ply
format ascii 1.0
element vertex 1664
property float x
property float y
property float z
property uchar red
property uchar green
property uchar blue
end_header
-1.4365116 0.65043491 0.96586555 234 88 12
-1.8643988 0.49127898 1.147408 234 88 12
-1.8611302 0.49116954 1.143804 234 88 12
-1.8620776 0.49129468 1.142136 234 88 12
-1.68888 0.55396104 1.0625769 234 88 12
-1.8681538 0.49177507 1.140797 234 88 12
-0.31344277 -1.3175367 1.2818323 234 88 12
-0.30703685 -1.3295702 1.2793195 234 88 12
-0.28450319 -1.3603315 1.2817053 234 88 12
-0.3129119 -1.3227963 1.2719364 234 88 12
-0.30937299 -1.3300753 1.2691138 234 88 12
-0.29151961 -1.3636608 1.2620012 234 88 12
-0.29781324 -1.3468255 1.260422 234 88 12
-0.30995977 -1.334947 1.2557662 234 88 12
-0.30309838 -1.339571 1.2562779 234 88 12
-0.27484575 -1.373239 1.2597388 234 88 12
-0.2891874 -1.3358959 1.2561079 234 88 12
-0.24731606 -1.4002497 1.2625749 234 88 12
-0.28390658 -1.3311566 1.255734 234 88 12
-0.26139283 -1.4033101 1.2594599 234 88 12
-0.16999131 -1.5491379 1.2745707 234 88 12
-0.25040305 -1.4090732 1.2601503 234 88 12
-0.27866423 -1.3761575 1.2533122 234 88 12
-0.24859226 -1.4196631 1.2580065 234 88 12
-0.28815222 -1.3472656 1.2503319 234 88 12
-0.24449794 -1.4140512 1.2575051 234 88 12
-0.26598564 -1.3579007 1.2516729 234 88 12
-0.3086271 -1.3415043 1.2460295 234 88 12
-0.30811334 -1.3357174 1.2454458 234 88 12
-0.28790858 -1.3491098 1.247085 234 88 12
-0.29002473 -1.3388216 1.2460066 234 88 12
-0.28838992 -1.3347521 1.2456133 234 88 12
-0.29403868 -1.3666663 1.2454033 234 88 12
-0.28979081 -1.3540685 1.2441365 234 88 12
-0.27913076 -1.3651903 1.2454551 234 88 12
-0.26197466 -1.387378 1.2480289 234 88 12
-0.30064937 -1.3508409 1.2401897 234 88 12
-0.26607192 -1.3551745 1.241155 234 88 12
-0.001288862 -1.8444682 1.2945011 234 88 12
-0.30634394 -1.3444744 1.2324229 234 88 12
-0.29982498 -1.3484991 1.2329844 234 88 12
-0.053318731 -1.7611737 1.2820834 234 88 12
-0.30113024 -1.3544184 1.2301635 234 88 12
-0.0069881184 -1.8390156 1.2847966 234 88 12
0.0013436038 -1.8498513 1.2845846 234 88 12
-0.00029671245 -1.8519782 1.2812792 234 88 12
0.0015916412 -1.8517287 1.2812792 234 88 12
0.00032338101 -1.8566718 1.2730155 234 88 12
0.0013155305 -1.8641816 1.2597938 234 88 12
0.0014395493 -1.8651204 1.2581409 234 88 12
1.6765714 -0.22149895 1.4747452 234 88 12
1.6157146 -0.19860719 1.4646647 234 88 12
1.6160605 -0.19650954 1.4646647 234 88 12
1.6801063 -0.22015147 1.470058 234 88 12
1.6807262 -0.21639273 1.470058 234 88 12
1.6873212 -0.22327192 1.4591211 234 88 12
1.6894711 -0.22362652 1.4559964 234 88 12
1.6897811 -0.22174715 1.4559964 234 88 12
1.693936 -0.21664092 1.4513092 234 88 12
1.6937711 -0.22433572 1.4497467 234 88 12
-1.7315804 0.95357072 0.92577195 234 88 12
-1.7822993 1.0394475 0.91263121 234 88 12
-1.7364261 0.96564078 0.92219746 234 88 12
-1.7773421 1.0337722 0.91192681 234 88 12
-1.754198 0.9962815 0.91575968 234 88 12
-1.7619542 1.0093913 0.91199243 234 88 12
-1.7723074 1.0270876 0.90768236 234 88 12
-1.7841595 1.0408473 0.90537655 234 88 12
-1.7857698 1.0396751 0.9035629 234 88 12
-1.7687557 1.0198666 0.90497345 234 88 12
-1.779883 1.0339332 0.89572072 234 88 12
-1.7851247 1.0463408 0.89268088 234 88 12
-1.7862699 1.0448188 0.89268088 234 88 12
-1.7888453 1.0491401 0.87817156 234 88 12
-1.793246 1.0500674 0.86547589 234 88 12
-1.7937111 1.0504174 0.86366224 234 88 12
-1.7965015 1.0525169 0.85278028 234 88 12
-1.7987919 1.0494728 0.85278028 234 88 12
-1.799042 1.0520446 0.84733927 234 88 12
-1.8009022 1.0534443 0.84008461 234 88 12
-1.806233 1.0550715 0.82376158 234 88 12
-1.8090235 1.057171 0.81287962 234 88 12
-1.8111339 1.0611424 0.80018395 234 88 12
-1.8122791 1.0596204 0.80018395 234 88 12
-1.8155346 1.0620698 0.78748828 234 88 12
-1.8153195 1.0642917 0.78386098 234 88 12
-1.8197203 1.065219 0.77116531 234 88 12
-0.56931823 -1.6888272 0.48256564 234 88 12
-0.56060982 -1.6921072 0.4815256 234 88 12
-0.56744486 -1.693785 0.47333258 234 88 12
-0.55596572 -1.6948566 0.47317246 234 88 12
-0.57667071 -1.6894376 0.47099912 234 88 12
-0.56263506 -1.6875262 0.47196612 234 88 12
-0.55999845 -1.6943141 0.46585539 234 88 12
-0.54489887 -1.7232269 0.4558416 234 88 12
-0.57778829 -1.6870651 0.46434951 234 88 12
-0.56718117 -1.6949372 0.46177745 234 88 12
-0.54976046 -1.7018038 0.45969263 234 88 12
-0.56840128 -1.6920965 0.45903018 234 88 12
-0.57119137 -1.6944641 0.45443189 234 88 12
-0.56315631 -1.7051926 0.45087785 234 88 12
-0.56181651 -1.6902555 0.45606428 234 88 12
-0.54084849 -1.7249091 0.44448978 234 88 12
-0.54824811 -1.7154012 0.44398794 234 88 12
-0.54760158 -1.7078202 0.44659141 234 88 12
-0.5567286 -1.7033548 0.44425592 234 88 12
-0.57434452 -1.6962432 0.44261873 234 88 12
-0.57390332 -1.6883426 0.44526899 234 88 12
-0.5699349 -1.7070839 0.4353987 234 88 12
-0.56142086 -1.6919215 0.44056824 234 88 12
-0.5694266 -1.7084792 0.43127468 234 88 12
-0.55193979 -1.7067201 0.4321647 234 88 12
-0.57631636 -1.6919718 0.43281633 234 88 12
-0.56604868 -1.6990639 0.43070602 234 88 12
-0.56238037 -1.6900216 0.4299511 234 88 12
-0.56828284 -1.7030646 0.41828668 234 88 12
-0.56994647 -1.7080458 0.41302422 234 88 12
-0.56990248 -1.6902469 0.41851589 234 88 12
-0.56048065 -1.6952865 0.41712117 234 88 12
-0.50426406 -1.8519191 0.36659458 234 88 12
-0.57722378 -1.6909508 0.40694606 234 88 12
-0.56143904 -1.7115693 0.40107295 234 88 12
-0.57376343 -1.6994811 0.40075189 234 88 12
-0.56150216 -1.6934006 0.40273571 234 88 12
-0.56627202 -1.7177492 0.39185938 234 88 12
-0.54672414 -1.7480814 0.38337636 234 88 12
-0.56445736 -1.6954079 0.3983663 234 88 12
-0.56157857 -1.7027162 0.39258644 234 88 12
-0.57717854 -1.6917312 0.39173958 234 88 12
-0.55365562 -1.7313612 0.38090882 234 88 12
-0.57795525 -1.6900232 0.38845736 234 88 12
-0.56567729 -1.7019773 0.3853128 234 88 12
-0.57573462 -1.6957207 0.3794356 234 88 12
-0.5605737 -1.7058733 0.37690681 234 88 12
-0.57333571 -1.6927518 0.37653026 234 88 12
-0.55940741 -1.7089298 0.3724052 234 88 12
-0.56783396 -1.7151237 0.36695734 234 88 12
-0.55749989 -1.7138222 0.36745098 234 88 12
-0.55841506 -1.6932071 0.37287891 234 88 12
-0.56994385 -1.7013441 0.36684594 234 88 12
-0.56353939 -1.699024 0.3675414 234 88 12
-0.54629916 -1.7239374 0.3613053 234 88 12
-0.57317615 -1.6936438 0.36505657 234 88 12
-0.5534215 -1.7242547 0.35748371 234 88 12
-0.55084234 -1.6939626 0.36529011 234 88 12
-0.55935591 -1.7274424 0.35295731 234 88 12
-0.53265852 -1.7842004 0.33898151 234 88 12
-0.5575788 -1.7053889 0.35113853 234 88 12
0.73918825 -1.3376341 0.97186542 234 88 12
0.73057956 -1.3402123 0.96879447 234 88 12
0.73355001 -1.3378762 0.96880442 234 88 12
0.73587352 -1.3349587 0.96891993 234 88 12
0.76573777 -1.3569179 0.96453196 234 88 12
0.77616483 -1.3855498 0.95765895 234 88 12
0.73841488 -1.3474571 0.96405685 234 88 12
0.76426524 -1.3512686 0.95843101 234 88 12
0.75706732 -1.3397498 0.96001714 234 88 12
0.78048569 -1.3945636 0.9499799 234 88 12
0.76771599 -1.3787205 0.95229852 234 88 12
0.73257166 -1.3429041 0.9579705 234 88 12
0.73632979 -1.3412688 0.95786184 234 88 12
0.98051363 -1.5658641 0.91822821 234 88 12
0.74553251 -1.3348265 0.95433742 234 88 12
0.87381595 -1.4765195 0.93037057 234 88 12
0.77304351 -1.3839968 0.94484282 234 88 12
0.76007521 -1.3483236 0.94874841 234 88 12
0.75667763 -1.3352256 0.95009416 234 88 12
0.78969741 -1.398906 0.93923897 234 88 12
0.76742214 -1.3698369 0.94306082 234 88 12
0.77683008 -1.3925747 0.93728113 234 88 12
0.73660445 -1.3477088 0.9433527 234 88 12
0.74857843 -1.343479 0.94296646 234 88 12
0.77842462 -1.3606886 0.93976098 234 88 12
0.80102652 -1.3816049 0.93341494 234 88 12
1.0130312 -1.598721 0.90164059 234 88 12
0.92590237 -1.5191214 0.91261917 234 88 12
0.78065985 -1.3681413 0.93230361 234 88 12
0.80168086 -1.3824747 0.93002331 234 88 12
0.83222246 -1.4416618 0.92073005 234 88 12
0.81980222 -1.4264463 0.92252386 234 88 12
0.76355588 -1.3724072 0.9295615 234 88 12
0.74615192 -1.3521403 0.93199813 234 88 12
0.77801657 -1.3562499 0.92994696 234 88 12
0.76343429 -1.337818 0.93209445 234 88 12
0.83451045 -1.4439327 0.91736352 234 88 12
0.78259647 -1.394161 0.92362022 234 88 12
0.7491132 -1.3451518 0.92884648 234 88 12
0.86088389 -1.4671335 0.91136253 234 88 12
0.79817325 -1.408089 0.91856736 234 88 12
0.75972402 -1.3696364 0.92313749 234 88 12
0.74644476 -1.3530122 0.92494267 234 88 12
0.76625687 -1.3460135 0.92440629 234 88 12
0.85055119 -1.4541922 0.90973777 234 88 12
0.75828439 -1.3589233 0.92047715 234 88 12
1.033653 -1.6176876 0.88784558 234 88 12
0.86046439 -1.4631319 0.90567499 234 88 12
0.92135739 -1.5125196 0.89971626 234 88 12
0.76098061 -1.3665087 0.91640753 234 88 12
0.75128096 -1.3529736 0.9177115 234 88 12
0.75265932 -1.3492365 0.91788048 234 88 12
0.76502723 -1.3454536 0.91753483 234 88 12
1.1457299 -1.7176288 0.87454426 234 88 12
0.74386632 -1.3565999 0.91432369 234 88 12
0.74717653 -1.3496155 0.91459316 234 88 12
0.76433158 -1.3550833 0.91349131 234 88 12
0.80980837 -1.4194266 0.90435958 234 88 12
1.0165105 -1.5966917 0.88528007 234 88 12
0.80282837 -1.3854381 0.90660936 234 88 12
0.9212988 -1.5170559 0.89120293 234 88 12
0.96058714 -1.5254579 0.88912654 234 88 12
1.1346031 -1.7281855 0.86910325 234 88 12
1.1437355 -1.7213144 0.86910325 234 88 12
0.79592669 -1.4032837 0.89927918 234 88 12
0.75339401 -1.3610089 0.90314543 234 88 12
0.75274819 -1.3505162 0.90371692 234 88 12
1.0709898 -1.6267716 0.87687343 234 88 12
0.81779528 -1.3901982 0.89910388 234 88 12
1.0147637 -1.5990812 0.87815845 234 88 12
0.88322717 -1.4802547 0.88891828 234 88 12
1.066081 -1.6378473 0.87433571 234 88 12
0.76791263 -1.3545257 0.89941621 234 88 12
0.86578441 -1.4346945 0.89181751 234 88 12
1.1307367 -1.7325512 0.86547589 234 88 12
1.1429132 -1.7233897 0.86547589 234 88 12
1.1490015 -1.718809 0.86547589 234 88 12
1.0822437 -1.65813 0.87066078 234 88 12
1.0561514 -1.6323305 0.87278467 234 88 12
0.76343268 -1.3507445 0.89624488 234 88 12
1.161178 -1.7096475 0.86547589 234 88 12
1.0997841 -1.6505357 0.87039888 234 88 12
0.75102621 -1.3598399 0.89272302 234 88 12
0.78843689 -1.3785896 0.8906554 234 88 12
1.1569912 -1.7033875 0.86410928 234 88 12
1.1314366 -1.7334814 0.86184859 234 88 12
1.0488546 -1.6294173 0.86873311 234 88 12
1.0500368 -1.6273572 0.86878163 234 88 12
0.76333773 -1.3612074 0.88874197 234 88 12
0.78660768 -1.4059139 0.88281101 234 88 12
1.1247859 -1.6957341 0.86171985 234 88 12
0.96930975 -1.5567759 0.87163788 234 88 12
0.75730819 -1.3660059 0.88521183 234 88 12
0.81180346 -1.3907865 0.88266265 234 88 12
0.82642257 -1.3994671 0.88190001 234 88 12
0.78611749 -1.357402 0.88470525 234 88 12
0.77924007 -1.3459724 0.88534868 234 88 12
0.7844035 -1.408942 0.87940049 234 88 12
0.83302975 -1.4104503 0.87802625 234 88 12
0.99951857 -1.5870988 0.86468256 234 88 12
0.79151309 -1.4014859 0.87610602 234 88 12
0.77331942 -1.3807465 0.87725562 234 88 12
0.75499505 -1.3596328 0.87842101 234 88 12
0.77008593 -1.3632114 0.87792236 234 88 12
0.78020036 -1.3574926 0.87785923 234 88 12
0.77554959 -1.3481677 0.87828743 234 88 12
0.78188574 -1.3387786 0.87844175 234 88 12
0.82628715 -1.4322336 0.87098092 234 88 12
0.75876629 -1.3682183 0.874506 234 88 12
0.77808255 -1.3755898 0.87383348 234 88 12
0.77399963 -1.3670298 0.87419063 234 88 12
0.82448763 -1.40785 0.8717711 234 88 12
0.789177 -1.3408175 0.87464476 234 88 12
1.1468847 -1.7255001 0.85278028 234 88 12
0.75657535 -1.381217 0.87064683 234 88 12
0.90686196 -1.5030406 0.86406821 234 88 12
1.1165267 -1.6839978 0.85261321 234 88 12
1.1446112 -1.7061707 0.85151744 234 88 12
0.7890135 -1.361462 0.86701071 234 88 12
1.1004832 -1.6728622 0.85116428 234 88 12
1.1448777 -1.7091342 0.84958982 234 88 12
1.0904796 -1.6583329 0.8516627 234 88 12
1.1082381 -1.679821 0.84886926 234 88 12
1.1570668 -1.7200242 0.84733927 234 88 12
1.1589389 -1.7193441 0.84552562 234 88 12
1.1523783 -1.7264653 0.84008461 234 88 12
1.1554224 -1.724175 0.84008461 234 88 12
1.1551776 -1.7301859 0.82557529 234 88 12
1.1566997 -1.7290407 0.82557529 234 88 12
1.2219976 0.83111727 1.0895414 234 88 12
1.2165569 0.83443552 1.0898317 234 88 12
1.2471336 0.84309977 1.0874851 234 88 12
1.250939 0.85025722 1.0870339 234 88 12
1.2496446 0.8536855 1.0870339 234 88 12
1.2174546 0.85291356 1.0858821 234 88 12
1.218197 0.83537358 1.0828431 234 88 12
1.3281512 0.85745043 1.0753297 234 88 12
1.2233058 0.84686166 1.0788324 234 88 12
1.2835337 0.85283405 1.0750459 234 88 12
1.2298104 0.83323181 1.0753347 234 88 12
1.2587953 0.83833206 1.0735519 234 88 12
1.2652937 0.84214723 1.073094 234 88 12
1.2306533 0.8440395 1.0750507 234 88 12
1.2872714 0.85339808 1.0715815 234 88 12
1.3651304 0.84738517 1.0642104 234 88 12
1.2474016 0.84522742 1.0706996 234 88 12
1.2230351 0.85891747 1.0683262 234 88 12
1.3790096 0.83938795 1.0576335 234 88 12
1.2770271 0.83704036 1.0626589 234 88 12
1.2360241 0.8455748 1.0645046 234 88 12
1.5516438 0.8647393 1.0487323 234 88 12
1.3430365 0.83771497 1.0563109 234 88 12
1.2391075 0.83541811 1.0611207 234 88 12
1.2302803 0.838557 1.0614715 234 88 12
1.2299351 0.84214342 1.0614252 234 88 12
1.2373199 0.84606403 1.0610182 234 88 12
1.2645652 0.85421258 1.0596266 234 88 12
1.4052781 0.84159797 1.0504568 234 88 12
1.2496552 0.85408431 1.0569359 234 88 12
1.2590531 0.83377796 1.0534807 234 88 12
1.232132 0.85387194 1.0542535 234 88 12
1.4036709 0.842224 1.0446246 234 88 12
1.239872 0.85459912 1.0505099 234 88 12
1.6185468 0.85444069 1.0342053 234 88 12
1.2343602 0.83686185 1.047493 234 88 12
1.2374476 0.84062541 1.0473397 234 88 12
1.5313227 0.84994042 1.034655 234 88 12
1.2641777 0.8528657 1.0429038 234 88 12
1.7965726 0.88084865 1.026069 234 88 12
1.7817425 0.88414007 1.0264903 234 88 12
1.4884902 0.84792227 1.0332955 234 88 12
1.2335913 0.84129971 1.0405037 234 88 12
1.254257 0.84938186 1.0398396 234 88 12
1.3465121 0.85647351 1.0371811 234 88 12
1.798576 0.87753308 1.0242988 234 88 12
1.6674025 0.88211596 1.0279238 234 88 12
1.5086374 0.88165593 1.0323747 234 88 12
1.2973166 0.88145906 1.0382947 234 88 12
1.6414627 0.85652304 1.0266727 234 88 12
1.2383144 0.8383466 1.0369209 234 88 12
1.2349035 0.84179509 1.0369736 234 88 12
1.2335618 0.84534883 1.0369736 234 88 12
1.3204585 0.85587811 1.0347023 234 88 12
1.7999067 0.87599951 1.0225286 234 88 12
1.7985612 0.87956345 1.0225286 234 88 12
1.7978823 0.88134533 1.0225288 234 88 12
1.754639 0.88216883 1.0236019 234 88 12
1.4386152 0.87796539 1.0315405 234 88 12
1.2985395 0.88192075 1.0350044 234 88 12
1.8086379 0.85486394 1.0207585 234 88 12
1.3992828 0.84379405 1.0298471 234 88 12
1.2898251 0.85513073 1.0321587 234 88 12
1.237448 0.85673422 1.0332965 234 88 12
1.7992193 0.87981188 1.0207585 234 88 12
1.7297469 0.88186961 1.0222683 234 88 12
1.3834155 0.87729925 1.0299178 234 88 12
1.3692211 0.88015354 1.0302061 234 88 12
1.3957204 0.8836087 1.029595 234 88 12
1.8099686 0.85333037 1.0189884 234 88 12
1.7508869 0.86290544 1.0200396 234 88 12
1.2487413 0.85045731 1.0296458 234 88 12
1.259835 0.8544324 1.0294071 234 88 12
1.7796297 0.88135624 1.0193628 234 88 12
1.3218209 0.87656045 1.028074 234 88 12
1.4084938 0.88117564 1.0263983 234 88 12
1.3045076 0.88288772 1.0283569 234 88 12
1.264595 0.84801012 1.0259446 234 88 12
1.6532757 0.88301545 1.0195463 234 88 12
1.3152311 0.88017094 1.0249451 234 88 12
1.8119574 0.85204518 1.015448 234 88 12
1.2549721 0.8408882 1.0226761 234 88 12
1.2452674 0.8440128 1.0227859 234 88 12
1.8119426 0.85407555 1.0136778 234 88 12
1.2444222 0.83717883 1.01932 234 88 12
1.272588 0.85271198 1.0189854 234 88 12
1.5551358 0.8510716 1.0136603 234 88 12
1.2482321 0.83780348 1.0157734 234 88 12
1.3345089 0.85555911 1.0151435 234 88 12
1.7125961 0.8807649 1.0125176 234 88 12
1.2910826 0.8743822 1.0153896 234 88 12
1.2650726 0.87733328 1.0155582 234 88 12
1.2383643 0.88042933 1.0157312 234 88 12
1.2301533 0.89098787 1.0157598 234 88 12
1.8139312 0.85279042 1.0101374 234 88 12
1.8103975 0.85436034 1.0101484 234 88 12
1.2661415 0.81763476 1.0122193 234 88 12
1.3326302 0.83922005 1.0119424 234 88 12
1.2633272 0.83900666 1.0121998 234 88 12
1.8051853 0.8759563 1.0101374 234 88 12
1.7058967 0.87877816 1.010502 234 88 12
1.3228848 0.87214971 1.0119324 234 88 12
1.2503632 0.87402719 1.0121988 234 88 12
1.2404798 0.87738651 1.0122308 234 88 12
1.2592471 0.88813156 1.0121461 234 88 12
1.3150319 0.89181942 1.0119339 234 88 12
1.2720006 0.81844664 1.0087218 234 88 12
1.8118981 0.86016679 1.0083673 234 88 12
1.3118966 0.83505803 1.0086924 234 88 12
1.2483578 0.83866459 1.0087321 234 88 12
1.2497609 0.84234881 1.0087303 234 88 12
1.2619761 0.84649789 1.0087215 234 88 12
1.8044977 0.87976873 1.0083673 234 88 12
1.5189451 0.87427378 1.0085509 234 88 12
1.2774688 0.87156278 1.0087055 234 88 12
1.2578354 0.87463409 1.0087173 234 88 12
1.2339723 0.88132155 1.008731 234 88 12
1.2605234 0.8886134 1.0087123 234 88 12
1.2823608 0.89215398 1.0086975 234 88 12
1.3131373 0.83552647 1.0053544 234 88 12
1.2776383 0.83704197 1.0052691 234 88 12
1.2628483 0.87169093 1.0052649 234 88 12
1.2433307 0.87482208 1.0052202 234 88 12
1.2362949 0.88182878 1.0052094 234 88 12
1.2352171 0.89600682 1.0052198 234 88 12
1.2779844 0.81966031 1.001781 234 88 12
1.7774322 0.85645711 1.0046203 234 88 12
1.470152 0.84775907 1.0029026 234 88 12
1.7862262 0.8648963 1.0028313 234 88 12
1.7292145 0.86211216 1.0002899 234 88 12
1.2627054 0.84468192 0.99473941 234 88 12
1.253664 0.84786958 0.9946475 234 88 12
1.7004077 0.86302942 0.99782163 234 88 12
1.7177466 0.86600041 0.99809569 234 88 12
1.7741654 0.87052226 0.99895859 234 88 12
1.8145005 0.8652212 0.99774635 234 88 12
1.8138276 0.8670032 0.99774635 234 88 12
1.7774116 0.86704278 0.99709231 234 88 12
1.7473122 0.8676011 0.99655533 234 88 12
1.8118094 0.8723492 0.99774635 234 88 12
1.8190914 0.86899042 0.983585 234 88 12
1.8243699 0.86894727 0.97119379 234 88 12
1.8250279 0.8691957 0.96942365 234 88 12
0.47472435 -1.7149099 0.001263222 234 88 12
0.47200069 -1.7114456 -0.00083822815 234 88 12
0.47487339 -1.7091899 -0.00044982912 234 88 12
0.61409932 -1.887755 -0.10067488 234 88 12
0.50089139 -1.7233095 -0.014757674 234 88 12
0.49285445 -1.7463924 -0.026352905 234 88 12
0.49634761 -1.7118385 -0.013320778 234 88 12
0.50429952 -1.7646928 -0.039348807 234 88 12
0.49262694 -1.7458864 -0.029937556 234 88 12
0.47560394 -1.7205408 -0.017026603 234 88 12
0.47531396 -1.714619 -0.014658747 234 88 12
0.48169693 -1.7052239 -0.012105647 234 88 12
0.46847242 -1.7119224 -0.016393337 234 88 12
0.47746441 -1.7056092 -0.015513805 234 88 12
0.48608533 -1.7045599 -0.01660884 234 88 12
0.5136798 -1.7750705 -0.052397158 234 88 12
0.50182194 -1.7611151 -0.048736315 234 88 12
0.48390174 -1.7349914 -0.035758104 234 88 12
0.50001436 -1.7210741 -0.033224322 234 88 12
0.55132174 -1.8181806 -0.082281061 234 88 12
0.50118428 -1.754904 -0.050025985 234 88 12
0.54435319 -1.8003371 -0.074396946 234 88 12
0.47200811 -1.7097214 -0.028113654 234 88 12
0.47516847 -1.7078222 -0.02793386 234 88 12
0.47906104 -1.7067977 -0.0282066 234 88 12
0.5262863 -1.7889708 -0.070650108 234 88 12
0.56127918 -1.8247789 -0.089824073 234 88 12
0.56528926 -1.8247266 -0.090475343 234 88 12
0.48968551 -1.7080009 -0.034406211 234 88 12
0.51137692 -1.7663261 -0.06341847 234 88 12
0.49075073 -1.7033172 -0.03680528 234 88 12
0.55576986 -1.822682 -0.094905987 234 88 12
0.52318037 -1.7798737 -0.073969945 234 88 12
0.47308689 -1.7102599 -0.040399861 234 88 12
0.48701504 -1.7042664 -0.040497687 234 88 12
0.77961493 -2.0847445 -0.22905716 234 88 12
0.60145855 -1.8754292 -0.12471432 234 88 12
0.54072785 -1.7951952 -0.085943408 234 88 12
0.46944335 -1.7056949 -0.042120896 234 88 12
0.47290373 -1.7041391 -0.042120896 234 88 12
0.72171462 -2.0146804 -0.19677486 234 88 12
0.60450011 -1.8744198 -0.12794358 234 88 12
0.46760181 -1.7089068 -0.046947621 234 88 12
0.48973167 -1.7071123 -0.049856607 234 88 12
0.76547796 -2.0904615 -0.23282187 234 88 12
0.65730077 -1.9398105 -0.16249371 234 88 12
0.57452345 -1.8345453 -0.11221209 234 88 12
0.48503515 -1.7068686 -0.052956719 234 88 12
0.54992729 -1.8102316 -0.10315987 234 88 12
0.55521309 -1.8115957 -0.10446567 234 88 12
0.46894172 -1.7043589 -0.053490251 234 88 12
0.47489074 -1.7000808 -0.052930467 234 88 12
0.54942751 -1.7847819 -0.094197258 234 88 12
0.75829005 -2.0930543 -0.23658659 234 88 12
0.76176459 -2.0914922 -0.23658659 234 88 12
0.77218813 -2.0868058 -0.23658659 234 88 12
0.7756626 -2.0852437 -0.23658659 234 88 12
0.56838518 -1.8362491 -0.11843509 234 88 12
0.5497219 -1.8097746 -0.10639661 234 88 12
0.5527091 -1.8084316 -0.10639661 234 88 12
0.60169309 -1.8703542 -0.13848703 234 88 12
0.49391049 -1.7493231 -0.084353723 234 88 12
0.70124745 -1.9866558 -0.19597697 234 88 12
0.48288512 -1.7256848 -0.074697398 234 88 12
0.47453517 -1.710263 -0.068221919 234 88 12
0.50200242 -1.7320416 -0.079746462 234 88 12
0.73235649 -2.0063694 -0.20735709 234 88 12
0.65692586 -1.9423401 -0.17701371 234 88 12
0.46616742 -1.711318 -0.071239382 234 88 12
0.46512377 -1.704497 -0.068805173 234 88 12
0.50338119 -1.7334726 -0.084223241 234 88 12
0.79016507 -2.0764759 -0.24180312 234 88 12
0.54357588 -1.7716289 -0.10299752 234 88 12
0.49503615 -1.744874 -0.090528011 234 88 12
0.49730423 -1.7259097 -0.084604315 234 88 12
0.77195334 -2.0542171 -0.23374496 234 88 12
0.46735111 -1.7177267 -0.08135327 234 88 12
0.48454204 -1.7102743 -0.081443526 234 88 12
0.59682333 -1.841136 -0.14062116 234 88 12
0.5577603 -1.822634 -0.13219349 234 88 12
0.49833438 -1.7482644 -0.09958753 234 88 12
0.4717043 -1.7059213 -0.08206778 234 88 12
0.47805652 -1.7022067 -0.081790797 234 88 12
0.56787032 -1.8057245 -0.1282054 234 88 12
0.51253587 -1.7329448 -0.096705623 234 88 12
0.48851702 -1.6977501 -0.081870258 234 88 12
0.53199667 -1.7460301 -0.10374849 234 88 12
0.77135193 -2.0849459 -0.24976306 234 88 12
0.77482641 -2.0833838 -0.24976306 234 88 12
0.58498001 -1.8495891 -0.14802469 234 88 12
0.48604637 -1.7116151 -0.089861877 234 88 12
0.48446348 -1.6925091 -0.083544388 234 88 12
0.48792198 -1.6909541 -0.083544388 234 88 12
0.50711536 -1.7091342 -0.092090696 234 88 12
0.74395037 -2.0357833 -0.23237832 234 88 12
0.73545498 -2.0225859 -0.2270178 234 88 12
0.48581305 -1.7110962 -0.093538359 234 88 12
0.76203161 -2.0538466 -0.24274273 234 88 12
0.47902128 -1.7026521 -0.093830369 234 88 12
0.48565444 -1.6935111 -0.091913484 234 88 12
0.48947933 -1.6924282 -0.092111669 234 88 12
0.77646488 -2.0706472 -0.25403574 234 88 12
0.49055561 -1.6991044 -0.10214156 234 88 12
0.77225298 -2.082305 -0.26293951 234 88 12
0.77572751 -2.0807428 -0.26293951 234 88 12
0.76794225 -2.0820072 -0.27611598 234 88 12
0.77489132 -2.0788829 -0.27611598 234 88 12
1.5093714 -0.680686 0.63831049 234 88 12
1.5120956 -0.67775279 0.63803893 234 88 12
1.5165894 -0.68803769 0.63268149 234 88 12
1.6781237 -0.76301366 0.59259635 234 88 12
1.5096661 -0.6849739 0.63063294 234 88 12
1.546575 -0.68527716 0.62371027 234 88 12
1.528219 -0.67269605 0.62819749 234 88 12
1.5626204 -0.71234965 0.61501491 234 88 12
1.5105811 -0.68538272 0.62680101 234 88 12
1.5110718 -0.68145025 0.62703568 234 88 12
1.5389689 -0.68176824 0.621885 234 88 12
1.6412778 -0.74685991 0.59459037 234 88 12
1.5500604 -0.68283695 0.61625087 234 88 12
1.5904492 -0.72456807 0.60225034 234 88 12
1.5097176 -0.6850071 0.61971867 234 88 12
1.5348694 -0.67576456 0.61599576 234 88 12
1.5249987 -0.66701275 0.61844367 234 88 12
1.6552734 -0.7530092 0.58540946 234 88 12
1.559131 -0.70690191 0.60575891 234 88 12
1.5186299 -0.68483526 0.61453825 234 88 12
1.5184778 -0.68062925 0.61489403 234 88 12
1.5641381 -0.71303719 0.60097498 234 88 12
1.5399609 -0.68627489 0.60716385 234 88 12
1.5715538 -0.6928091 0.60126185 234 88 12
1.6373254 -0.74514616 0.58284318 234 88 12
1.5273893 -0.69284642 0.60522521 234 88 12
1.5504326 -0.69906604 0.60089147 234 88 12
1.5458623 -0.68085295 0.60303134 234 88 12
1.6088585 -0.73266435 0.58529085 234 88 12
1.5251369 -0.69185197 0.60208297 234 88 12
1.5223883 -0.67409629 0.6038484 234 88 12
1.5310723 -0.67396635 0.60242939 234 88 12
1.5274252 -0.66811007 0.60346258 234 88 12
1.5163078 -0.683801 0.60049194 234 88 12
1.5835654 -0.72158051 0.58353055 234 88 12
1.6434096 -0.74783492 0.56905746 234 88 12
1.5399354 -0.70245433 0.58469522 234 88 12
1.5267748 -0.69259131 0.58736366 234 88 12
1.5193323 -0.68100721 0.58928221 234 88 12
1.5253923 -0.67960781 0.5884586 234 88 12
1.8214985 -0.8259567 0.53110647 234 88 12
1.5657927 -0.70987946 0.57680929 234 88 12
1.5175031 -0.68434042 0.58568168 234 88 12
1.9847801 -0.89965653 0.50011605 234 88 12
1.8686233 -0.8466298 0.52044517 234 88 12
1.9902476 -0.88749576 0.50011605 234 88 12
1.9605271 -0.86919028 0.50562686 234 88 12
1.9850458 -0.89977604 0.49823368 234 88 12
1.9158082 -0.86732864 0.51013535 234 88 12
1.6574272 -0.75047892 0.55427945 234 88 12
1.5292592 -0.68960226 0.57636285 234 88 12
1.528509 -0.67271715 0.57754725 234 88 12
1.8869096 -0.83685696 0.5161835 234 88 12
1.5897197 -0.69338012 0.56753749 234 88 12
1.9806252 -0.91031903 0.4963513 234 88 12
1.8432859 -0.83552426 0.52007246 234 88 12
1.6493816 -0.7469179 0.55250347 234 88 12
1.5191453 -0.68507856 0.57443094 234 88 12
1.5229621 -0.68264246 0.57405335 234 88 12
1.5777683 -0.69562197 0.5656395 234 88 12
1.7603049 -0.77424645 0.53540838 234 88 12
1.5916653 -0.69037306 0.56403875 234 88 12
1.9726617 -0.87052274 0.49993873 234 88 12
1.5423108 -0.69949079 0.56675297 234 88 12
1.9910446 -0.88785416 0.49446896 234 88 12
1.7196627 -0.7582978 0.53913718 234 88 12
1.6460291 -0.72005433 0.55144525 234 88 12
1.6697676 -0.72774231 0.54776001 234 88 12
1.6120576 -0.69627899 0.55749726 234 88 12
1.9827187 -0.90708339 0.49258661 234 88 12
1.6611109 -0.75211966 0.54434079 234 88 12
1.5404389 -0.68235368 0.56445086 234 88 12
1.8635612 -0.82049119 0.51349694 234 88 12
1.7008539 -0.77306873 0.53488708 234 88 12
1.5278804 -0.69310534 0.56184357 234 88 12
1.5212979 -0.68604517 0.56310242 234 88 12
1.5228518 -0.68258917 0.56310242 234 88 12
1.535508 -0.68007618 0.56161523 234 88 12
1.9757911 -0.87420368 0.49354661 234 88 12
1.5658706 -0.7256071 0.55159432 234 88 12
1.5228685 -0.70322615 0.55826861 234 88 12
1.5244104 -0.69979668 0.55826861 234 88 12
1.7639431 -0.80074233 0.52243257 234 88 12
1.5364105 -0.68460685 0.5576182 234 88 12
1.5638996 -0.69315082 0.55367756 234 88 12
1.6935663 -0.74945855 0.5341844 234 88 12
1.6162227 -0.70968932 0.54616129 234 88 12
1.5543629 -0.67655402 0.55581558 234 88 12
1.5425874 -0.66682214 0.55784702 234 88 12
1.5588294 -0.66640657 0.55582762 234 88 12
1.5389742 -0.65251499 0.55911052 234 88 12
1.5683067 -0.714948 0.54841691 234 88 12
1.5801429 -0.6966877 0.54797256 234 88 12
1.5618287 -0.6841315 0.55090821 234 88 12
1.5341213 -0.65855116 0.55571216 234 88 12
1.9806572 -0.91451025 0.4850572 234 88 12
1.9830004 -0.90929848 0.4850572 234 88 12
1.9845625 -0.90582401 0.4850572 234 88 12
1.9543861 -0.89091653 0.4894557 234 88 12
1.5321933 -0.70319194 0.54987681 234 88 12
1.5263437 -0.69243509 0.55115134 234 88 12
1.5310946 -0.67802536 0.55135739 234 88 12
1.6620467 -0.73478198 0.53269529 234 88 12
1.5379418 -0.67290163 0.55081546 234 88 12
1.5583451 -0.67024004 0.54852468 234 88 12
1.5435784 -0.65053231 0.55134273 234 88 12
1.8801693 -0.85172617 0.49814421 234 88 12
1.6669331 -0.75471354 0.52794182 234 88 12
1.7406274 -0.77133173 0.51852572 234 88 12
1.53646 -0.66802603 0.54759949 234 88 12
1.9248134 -0.87130815 0.48985073 234 88 12
1.5395224 -0.69011533 0.54247618 234 88 12
1.5356474 -0.6592353 0.54447842 234 88 12
1.9723082 -0.88998508 0.48163629 234 88 12
1.6136786 -0.72738105 0.52890319 234 88 12
1.9348128 -0.87337852 0.48449677 234 88 12
1.98597 -0.89182651 0.47818238 234 88 12
1.9887656 -0.90144843 0.47188073 234 88 12
1.9906255 -0.90228462 0.45870426 234 88 12
1.7377247 0.27135161 0.23166311 234 88 12
1.7316252 0.27207634 0.22991307 234 88 12
1.7375937 0.27882159 0.22774686 234 88 12
1.8563001 0.26659361 0.18741633 234 88 12
1.7405413 0.26722172 0.22314854 234 88 12
1.7558423 0.27640951 0.21780924 234 88 12
1.7428695 0.28925157 0.22195256 234 88 12
1.7330344 0.2680915 0.22183092 234 88 12
1.7312986 0.27958935 0.22219917 234 88 12
1.742929 0.285501 0.21820726 234 88 12
1.7779332 0.26268691 0.19961566 234 88 12
1.7479929 0.28474477 0.20898315 234 88 12
1.7752278 0.26298478 0.19682202 234 88 12
1.7470726 0.27004451 0.20576845 234 88 12
1.8100682 0.27959898 0.18530178 234 88 12
1.8132316 0.25843111 0.18113557 234 88 12
1.7418733 0.27065787 0.20363517 234 88 12
1.7319939 0.2756314 0.20669271 234 88 12
1.7406275 0.27826154 0.20389849 234 88 12
1.940195 0.24328032 0.13795745 234 88 12
1.8744162 0.25433743 0.15844783 234 88 12
1.7643592 0.27876949 0.19262843 234 88 12
1.7573173 0.28702894 0.19469957 234 88 12
1.7438623 0.27036121 0.1954308 234 88 12
1.7466053 0.27372634 0.1945215 234 88 12
1.7311431 0.27944466 0.19922511 234 88 12
1.7414042 0.28182459 0.19599816 234 88 12
1.735293 0.29386172 0.19769008 234 88 12
1.8544666 0.25344929 0.15801497 234 88 12
1.7325811 0.27547631 0.1950171 234 88 12
1.7292033 0.28343475 0.19591853 234 88 12
1.8838582 0.24992709 0.14581671 234 88 12
1.7362608 0.28992921 0.18983415 234 88 12
1.7825197 0.26196876 0.17265977 234 88 12
1.7459776 0.27372634 0.18338713 234 88 12
1.9497054 0.24204662 0.12003429 234 88 12
1.7432771 0.28146243 0.18028395 234 88 12
1.7592747 0.28660974 0.1754816 234 88 12
1.7580721 0.26848653 0.17240344 234 88 12
1.730518 0.27563 0.18030947 234 88 12
1.7285205 0.27964923 0.18082651 234 88 12
1.7664654 0.28194433 0.16974469 234 88 12
1.7809711 0.26565009 0.16214575 234 88 12
1.8381287 0.27538261 0.1455764 234 88 12
2.2242286 0.22257416 0.035524447 234 88 12
2.1128659 0.24338315 0.067178488 234 88 12
1.9762286 0.26710752 0.10604533 234 88 12
1.9136753 0.2799685 0.12380714 234 88 12
2.2248869 0.20925689 0.033621144 234 88 12
1.8693036 0.25478455 0.13365278 234 88 12
1.7333503 0.29019666 0.17161801 234 88 12
2.1473453 0.23591504 0.055174053 234 88 12
1.9762739 0.26425713 0.10319895 234 88 12
1.7945269 0.29556212 0.15420216 234 88 12
1.8988167 0.25114071 0.12216707 234 88 12
1.729425 0.27568758 0.16912289 234 88 12
1.7402269 0.27804184 0.1660683 234 88 12
1.7321078 0.28284907 0.16826311 234 88 12
1.7504616 0.28774464 0.16305916 234 88 12
2.1124675 0.24109967 0.062620766 234 88 12
1.853675 0.28298268 0.13429135 234 88 12
1.8101213 0.29653373 0.14625318 234 88 12
2.0999849 0.25237045 0.065935463 234 88 12
1.7572323 0.28310657 0.15751576 234 88 12
2.1308105 0.23834571 0.055255033 234 88 12
1.8142174 0.28898865 0.14172426 234 88 12
2.2137389 0.23367114 0.032474965 234 88 12
2.0669591 0.23047525 0.070437424 234 88 12
2.2238262 0.22445966 0.027911231 234 88 12
2.2252173 0.1978292 0.026007926 234 88 12
2.1924088 0.20702711 0.03465822 234 88 12
1.7387427 0.25951573 0.15537263 234 88 12
1.7753938 0.26620904 0.14545909 234 88 12
1.7422661 0.27769491 0.15416114 234 88 12
2.2239611 0.22065181 0.026007926 234 88 12
2.2237518 0.22445558 0.026007926 234 88 12
1.8009048 0.29096705 0.13826257 234 88 12
1.7425431 0.30358592 0.15370534 234 88 12
1.7274897 0.31345057 0.15759113 234 88 12
1.7297318 0.31682536 0.15694097 234 88 12
2.2252476 0.19592322 0.024104623 234 88 12
1.7333447 0.27133882 0.15282935 234 88 12
1.7279328 0.27576861 0.15419325 234 88 12
1.8849548 0.27493218 0.11276508 234 88 12
1.7465219 0.29924837 0.14894624 234 88 12
1.7275499 0.30965617 0.15380205 234 88 12
1.7625335 0.3149032 0.14449318 234 88 12
1.782176 0.26176542 0.13645494 234 88 12
1.8025488 0.26283062 0.13114202 234 88 12
1.7297848 0.27550772 0.14988194 234 88 12
1.7837987 0.28997919 0.13562916 234 88 12
2.0389819 0.22346643 0.067585789 234 88 12
1.7453983 0.25870249 0.14229414 234 88 12
1.787611 0.2646367 0.13139716 234 88 12
1.7386662 0.27808207 0.14374542 234 88 12
1.8189423 0.28471527 0.12308815 234 88 12
1.7361866 0.30076662 0.14406075 234 88 12
1.7605861 0.31517258 0.1376074 234 88 12
2.1351073 0.22203937 0.040716972 234 88 12
1.7373461 0.27449909 0.14033915 234 88 12
1.7285386 0.27937222 0.1424935 234 88 12
2.1861973 0.22998828 0.027717138 234 88 12
2.0765846 0.24875368 0.055110656 234 88 12
1.7322756 0.30506909 0.14119388 234 88 12
1.7317872 0.31634882 0.14116044 234 88 12
2.1497228 0.22238795 0.032609768 234 88 12
2.1786959 0.2207896 0.025546089 234 88 12
2.2240684 0.20921184 0.0126848 234 88 12
2.2239637 0.21111372 0.0126848 234 88 12
2.1918623 0.21906312 0.020305477 234 88 12
2.199789 0.22001109 0.018385174 234 88 12
2.223443 0.21108505 -0.00063832669 234 88 12
2.2228174 0.21295828 -0.013961453 234 88 12
0.86625248 1.5423983 0.54792142 234 88 12
0.86783183 1.5359068 0.54174304 234 88 12
0.87115169 1.5409008 0.53607541 234 88 12
0.87868392 1.5508432 0.53192711 234 88 12
0.86633468 1.5392652 0.533916 234 88 12
0.86939216 1.5442617 0.52467757 234 88 12
0.86293775 1.5456977 0.52214116 234 88 12
0.86602575 1.5471683 0.51006103 234 88 12
0.9570542 1.5801214 0.46936783 234 88 12
0.9179039 1.5662758 0.47694489 234 88 12
1.0210499 1.6031533 0.44485551 234 88 12
1.3953177 1.7333821 0.32700956 234 88 12
1.3967605 1.7321311 0.32510963 234 88 12
0.86345094 1.5482167 0.4511314 234 88 12
0.89027292 1.5363691 0.44109523 234 88 12
0.86596578 1.5493562 0.44305515 234 88 12
0.89472944 1.5381619 0.43634343 234 88 12
0.92411071 1.5666734 0.42646983 234 88 12
0.8741374 1.5523795 0.43743059 234 88 12
1.2080888 1.6534537 0.36067525 234 88 12
0.89491802 1.5383506 0.43260828 234 88 12
0.89227021 1.5409985 0.43260828 234 88 12
1.4027237 1.7273194 0.31371009 234 88 12
1.3959893 1.7340537 0.31371009 234 88 12
-1.4459938 -0.76569039 -0.8739813 234 88 12
-1.4435389 -0.76409918 -0.86742961 234 88 12
-1.4443359 -0.76068151 -0.87188214 234 88 12
-1.4425066 -0.75885212 -0.87465382 234 88 12
-1.4403921 -0.76334178 -0.88694441 234 88 12
-1.4379487 -0.77650261 -0.91211748 234 88 12
-0.083588801 -1.5334007 -0.88132817 234 88 12
-0.077332273 -1.5366105 -0.88517547 234 88 12
-0.07625325 -1.5319319 -0.88109338 234 88 12
-0.031586822 -1.621367 -0.97333008 234 88 12
-0.071698293 -1.5602515 -0.91722602 234 88 12
-0.046397157 -1.6074468 -0.96761692 234 88 12
-0.074041411 -1.5611213 -0.92249471 234 88 12
-0.092527524 -1.527627 -0.89008993 234 88 12
-0.072914645 -1.5323161 -0.89711636 234 88 12
-0.0021752086 -1.67097 -1.0344104 234 88 12
-0.066654503 -1.5705292 -0.9366554 234 88 12
-0.091856569 -1.527016 -0.8947022 234 88 12
-0.064735845 -1.5307325 -0.90190959 234 88 12
0.050190531 -1.7509068 -1.1157479 234 88 12
0.09571746 -1.813831 -1.1772671 234 88 12
-0.045714375 -1.6001279 -0.97023511 234 88 12
-0.089344218 -1.5229393 -0.89653003 234 88 12
-0.077366404 -1.5222375 -0.89764255 234 88 12
-0.052797087 -1.5936981 -0.9681142 234 88 12
-0.036250319 -1.612785 -0.98702526 234 88 12
-0.085130177 -1.5339074 -0.9116621 234 88 12
-0.072240651 -1.5286406 -0.90893942 234 88 12
-0.063467793 -1.5360264 -0.91659594 234 88 12
-0.033207707 -1.6264435 -1.0035536 234 88 12
-0.047410514 -1.6002148 -0.97897416 234 88 12
-0.047993671 -1.5588925 -0.94334221 234 88 12
0.12682091 -1.8633416 -1.2325732 234 88 12
-0.061008457 -1.5842087 -0.96780932 234 88 12
-0.090621576 -1.5347067 -0.92137605 234 88 12
-0.062856577 -1.5701742 -0.95556688 234 88 12
-0.083960123 -1.5200428 -0.90979457 234 88 12
-0.078579322 -1.5155784 -0.90674067 234 88 12
0.1078499 -1.8653662 -1.2341355 234 88 12
-0.0049898927 -1.6700493 -1.0528775 234 88 12
-0.050594807 -1.5980812 -0.9855271 234 88 12
0.10015512 -1.8655311 -1.2356979 234 88 12
0.10579323 -1.8646011 -1.2356979 234 88 12
0.1076726 -1.8642912 -1.2356979 234 88 12
0.12458695 -1.8615016 -1.2356979 234 88 12
0.082898684 -1.7974226 -1.1760365 234 88 12
-0.09030091 -1.5380189 -0.93390012 234 88 12
-0.072550185 -1.5584739 -0.95356113 234 88 12
-0.098032765 -1.5143188 -0.91289985 234 88 12
-0.074828796 -1.5183111 -0.91947466 234 88 12
0.10185719 -1.8641461 -1.2372603 234 88 12
0.060783233 -1.7600709 -1.1447641 234 88 12
0.00068170071 -1.6663175 -1.058262 234 88 12
-0.079655439 -1.5155942 -0.92143768 234 88 12
-0.042114764 -1.6063761 -1.0066261 234 88 12
-0.023278739 -1.6291987 -1.028097 234 88 12
-0.098711416 -1.5100801 -0.91915804 234 88 12
-0.087381795 -1.5083945 -0.91930962 234 88 12
-0.067849219 -1.5325099 -0.94194621 234 88 12
-0.090813339 -1.5265474 -0.93867624 234 88 12
-0.099394165 -1.507441 -0.92181319 234 88 12
-0.081534207 -1.522192 -0.93635488 234 88 12
-0.10107126 -1.5157204 -0.93324465 234 88 12
-0.083096631 -1.5409782 -0.96090895 234 88 12
-0.075406812 -1.5346831 -0.95684153 234 88 12
-0.087553732 -1.5097562 -0.93505085 234 88 12
-0.10480276 -1.5069505 -0.9353382 234 88 12
-0.093495406 -1.5177996 -0.94554657 234 88 12
-0.037880626 -1.6110399 -1.031895 234 88 12
0.11189234 -1.8547615 -1.2481971 234 88 12
0.11940982 -1.8535216 -1.2481971 234 88 12
-0.10518652 -1.5031744 -0.94194078 234 88 12
-0.0898505 -1.5078033 -0.94759983 234 88 12
-0.063028343 -1.5432615 -0.97912914 234 88 12
0.077016696 -1.7800078 -1.1874741 234 88 12
-0.10508724 -1.4954684 -0.94071108 234 88 12
-0.10029912 -1.4964558 -0.94210505 234 88 12
0.1209346 -1.8510617 -1.2513219 234 88 12
0.096850663 -1.8087419 -1.2152909 234 88 12
-0.1050899 -1.5001284 -0.94916034 234 88 12
-0.098837331 -1.4971095 -0.9476133 234 88 12
0.12768899 -1.8421861 -1.2452807 234 88 12
0.11323981 -1.8512266 -1.2528843 234 88 12
-0.10897654 -1.4926511 -0.94765836 234 88 12
-0.074165851 -1.5274941 -0.97900099 234 88 12
-0.091849953 -1.4935976 -0.95057088 234 88 12
-0.097136945 -1.50284 -0.9617523 234 88 12
-0.094594806 -1.4941502 -0.95541495 234 88 12
-0.083188973 -1.4992527 -0.96076626 234 88 12
-0.075769022 -1.5046401 -0.96583211 234 88 12
-0.096055083 -1.5075465 -0.97479379 234 88 12
-0.10067287 -1.4879296 -0.95942211 234 88 12
-0.089876227 -1.4854951 -0.958929 234 88 12
-0.088015802 -1.4818807 -0.95643407 234 88 12
-0.098391674 -1.4834757 -0.96110237 234 88 12
-0.090227716 -1.483364 -0.96202648 234 88 12
0.10859458 -1.8464715 -1.2606963 234 88 12
0.11987081 -1.8446118 -1.2606963 234 88 12
-0.080536738 -1.5036867 -0.98302525 234 88 12
0.10430394 -1.8438666 -1.2653835 234 88 12
0.11299161 -1.8380167 -1.2716331 234 88 12
0.10511953 -1.8371067 -1.274758 234 88 12
1.3167763 -1.0876901 -0.37087467 234 88 12
1.3082945 -1.091187 -0.37266415 234 88 12
1.3098612 -1.0877125 -0.37223399 234 88 12
1.5103987 -1.2182248 -0.50109172 234 88 12
1.3152041 -1.0863553 -0.38238031 234 88 12
1.3343229 -1.0896134 -0.39107773 234 88 12
1.347671 -1.1191548 -0.40937892 234 88 12
1.3068411 -1.0899099 -0.38427731 234 88 12
1.3086921 -1.0866189 -0.38402751 234 88 12
1.3616728 -1.1027147 -0.41003096 234 88 12
1.515759 -1.2212902 -0.51026607 234 88 12
1.3284271 -1.0943946 -0.39833602 234 88 12
1.332875 -1.0884827 -0.39833602 234 88 12
1.3356166 -1.1115679 -0.41029778 234 88 12
1.4040858 -1.1531193 -0.4530246 234 88 12
1.3072608 -1.089785 -0.39691153 234 88 12
1.3154483 -1.0904418 -0.40028343 234 88 12
1.3107085 -1.0830753 -0.39628986 234 88 12
1.3129797 -1.0800567 -0.39628986 234 88 12
1.3817116 -1.1153245 -0.43329036 234 88 12
1.3169922 -1.0999734 -0.40775096 234 88 12
1.3131328 -1.0755816 -0.39920604 234 88 12
1.4173676 -1.1609787 -0.46755841 234 88 12
1.3593309 -1.1215421 -0.43413886 234 88 12
1.3071036 -1.0761207 -0.40121716 234 88 12
1.6068563 -1.2789695 -0.57609153 234 88 12
1.3141671 -1.0892855 -0.41178429 234 88 12
1.3089244 -1.081609 -0.40762633 234 88 12
1.3196483 -1.0750883 -0.40982172 234 88 12
1.3291318 -1.1027318 -0.42524871 234 88 12
1.308091 -1.0765225 -0.41001609 234 88 12
1.3870963 -1.1421897 -0.46167499 234 88 12
1.6833234 -1.3249158 -0.62425846 234 88 12
1.5349467 -1.2322237 -0.54433411 234 88 12
1.4272763 -1.1664628 -0.49018964 234 88 12
1.2982252 -1.0833408 -0.42068014 234 88 12
1.3031491 -1.0819619 -0.42209011 234 88 12
1.3070511 -1.0710671 -0.42053184 234 88 12
1.6755221 -1.3333483 -0.62788576 234 88 12
1.4031301 -1.1516223 -0.48093653 234 88 12
1.3103071 -1.0906539 -0.43111971 234 88 12
1.5680397 -1.2346902 -0.56261802 234 88 12
1.632368 -1.2735448 -0.59622395 234 88 12
1.678759 -1.3241756 -0.62865543 234 88 12
1.3099334 -1.085938 -0.43377489 234 88 12
1.3205531 -1.0794828 -0.43582395 234 88 12
1.59216 -1.2473342 -0.57730567 234 88 12
1.6711564 -1.3372146 -0.63151312 234 88 12
1.6532497 -1.3111705 -0.61831337 234 88 12
1.6803179 -1.3250381 -0.63151312 234 88 12
1.681463 -1.3235161 -0.63151312 234 88 12
1.4966013 -1.2084525 -0.53597522 234 88 12
1.3149813 -1.0932857 -0.44155103 234 88 12
1.2990861 -1.0746304 -0.43101597 234 88 12
1.3334131 -1.0918957 -0.44767043 234 88 12
1.6894794 -1.3128617 -0.63151312 234 88 12
1.2960732 -1.0946503 -0.43932676 234 88 12
1.3322794 -1.1080233 -0.45544577 234 88 12
1.2941484 -1.0758836 -0.43373707 234 88 12
1.3741333 -1.1012013 -0.46823874 234 88 12
1.2998204 -1.0924286 -0.44410169 234 88 12
1.2973948 -1.0822005 -0.4406119 234 88 12
1.30355 -1.072767 -0.44028696 234 88 12
1.4964825 -1.1882695 -0.53677469 234 88 12
1.354911 -1.0927349 -0.46317649 234 88 12
1.3469917 -1.0959777 -0.46515074 234 88 12
1.315062 -1.0667052 -0.44674009 234 88 12
1.3268532 -1.0699825 -0.45160499 234 88 12
1.309429 -1.0540097 -0.44155851 234 88 12
1.6218942 -1.2846299 -0.60975796 234 88 12
1.3026246 -1.0851762 -0.45127919 234 88 12
1.2994428 -1.0743942 -0.44746557 234 88 12
1.3017092 -1.071382 -0.44746557 234 88 12
1.3229039 -1.0804747 -0.45693234 234 88 12
1.3066705 -1.0611488 -0.44654104 234 88 12
1.3108146 -1.0503041 -0.44518515 234 88 12
1.3177637 -1.0504247 -0.44756228 234 88 12
1.6444552 -1.2983449 -0.62310588 234 88 12
1.6354636 -1.2903687 -0.61809665 234 88 12
1.3168435 -1.0497324 -0.45115069 234 88 12
1.6564872 -1.2985102 -0.62936425 234 88 12
1.3235153 -1.0806638 -0.46511403 234 88 12
1.6759171 -1.3241107 -0.64420873 234 88 12
1.6758106 -1.3128679 -0.64140755 234 88 12
1.6827883 -1.3149784 -0.64420873 234 88 12
1.3168476 -1.0630627 -0.46255133 234 88 12
1.3319964 -1.0686458 -0.46887919 234 88 12
1.6726617 -1.3216614 -0.6569044 234 88 12
1.3762249 1.0636444 -0.37550423 234 88 12
1.3729526 1.0591797 -0.37676045 234 88 12
1.3817885 1.0710274 -0.38506183 234 88 12
1.4802618 1.0863124 -0.44405729 234 88 12
1.3757348 1.0773628 -0.38352373 234 88 12
1.3753959 1.0626647 -0.3834618 234 88 12
1.3675551 1.0647944 -0.38411862 234 88 12
1.3971865 1.0720643 -0.40233874 234 88 12
1.3790687 1.0728979 -0.39696971 234 88 12
1.3773549 1.0762084 -0.39696971 234 88 12
1.3644437 1.0782516 -0.39055553 234 88 12
1.3723111 1.0609553 -0.39429232 234 88 12
1.365273 1.0672082 -0.39225253 234 88 12
1.422295 1.0843714 -0.42762497 234 88 12
1.3988158 1.0640637 -0.41356918 234 88 12
1.3653532 1.0631913 -0.3955178 234 88 12
1.38846 1.0731622 -0.41056448 234 88 12
1.3850763 1.0796981 -0.41056448 234 88 12
1.3931845 1.0628901 -0.41445193 234 88 12
1.3783946 1.0644505 -0.4070715 234 88 12
1.363888 1.0661488 -0.39987829 234 88 12
1.3579149 1.0832397 -0.4013961 234 88 12
1.404194 1.0639509 -0.42469358 234 88 12
1.6457565 1.1112725 -0.56396389 234 88 12
1.3610399 1.072045 -0.40859744 234 88 12
1.3736268 1.0805384 -0.41741332 234 88 12
1.3668258 1.0616391 -0.41308933 234 88 12
1.3572631 1.0782529 -0.41259465 234 88 12
1.6478668 1.0983154 -0.57047302 234 88 12
1.3845392 1.0808735 -0.43148342 234 88 12
1.6033032 1.0921104 -0.54925454 234 88 12
1.4493293 1.0749437 -0.46685156 234 88 12
1.3605622 1.0706478 -0.4208129 234 88 12
1.3769228 1.0795702 -0.43142813 234 88 12
1.6024721 1.09168 -0.55187929 234 88 12
1.355092 1.0623815 -0.42017686 234 88 12
1.3499272 1.0689123 -0.41928211 234 88 12
1.3513517 1.0726583 -0.42096967 234 88 12
1.3758253 1.0790019 -0.43489379 234 88 12
1.5729305 1.1174933 -0.54376441 234 88 12
1.3987278 1.1049112 -0.45311132 234 88 12
1.4040195 1.0682825 -0.45031273 234 88 12
1.3489826 1.0790449 -0.42571363 234 88 12
1.8095379 1.1352695 -0.66922599 234 88 12
1.5761589 1.1147878 -0.54789215 234 88 12
1.4813254 1.1087369 -0.49917316 234 88 12
1.4524795 1.1122612 -0.48573539 234 88 12
1.3829608 1.0651289 -0.44317418 234 88 12
1.8107212 1.1315924 -0.67102009 234 88 12
1.7744288 1.1315346 -0.65311354 234 88 12
1.5321093 1.1102076 -0.52820879 234 88 12
1.4170775 1.1024091 -0.4695088 234 88 12
1.3995279 1.1040752 -0.46128219 234 88 12
1.417873 1.1089007 -0.47155783 234 88 12
1.6745461 1.1027637 -0.59932488 234 88 12
1.3562372 1.071889 -0.43595901 234 88 12
1.3857551 1.0822263 -0.45299959 234 88 12
1.4200158 1.102242 -0.47480664 234 88 12
1.8148394 1.1208551 -0.67460823 234 88 12
1.3490498 1.0634351 -0.43457898 234 88 12
1.3503447 1.0671761 -0.43614441 234 88 12
1.3846878 1.0748429 -0.45470309 234 88 12
1.4696383 1.0911746 -0.49994904 234 88 12
1.3371826 1.0975968 -0.43739802 234 88 12
1.3540033 1.1025345 -0.44678435 234 88 12
1.3302008 1.1040016 -0.43562233 234 88 12
1.3776268 1.0735648 -0.45507658 234 88 12
1.3759454 1.0768121 -0.45507658 234 88 12
1.3445082 1.0942971 -0.44432908 234 88 12
1.3500434 1.0982728 -0.44797498 234 88 12
1.3578781 1.0707526 -0.44908872 234 88 12
1.5416414 1.1096324 -0.54611313 234 88 12
1.3886336 1.1012906 -0.4712477 234 88 12
1.3248152 1.1130613 -0.44377899 234 88 12
1.8175136 1.111515 -0.67999053 234 88 12
1.3618944 1.045959 -0.44910997 234 88 12
1.6646528 1.1003145 -0.60516524 234 88 12
1.3564217 1.0630625 -0.45070514 234 88 12
1.3444108 1.0722444 -0.44728264 234 88 12
1.3720825 1.0789301 -0.46196532 234 88 12
1.4706482 1.1022781 -0.5141505 234 88 12
1.3334632 1.092307 -0.44701836 234 88 12
1.3276267 1.1058121 -0.44756332 234 88 12
1.3516809 1.1111305 -0.46020603 234 88 12
1.4012362 1.0582304 -0.47467285 234 88 12
1.3954846 1.0642655 -0.47344509 234 88 12
1.8081878 1.1281359 -0.68178457 234 88 12
1.4643416 1.1012501 -0.51457602 234 88 12
1.3405807 1.1029178 -0.45713761 234 88 12
1.8163773 1.1109267 -0.68357867 234 88 12
1.81375 1.1160012 -0.68357867 234 88 12
1.3795451 1.0651889 -0.47029656 234 88 12
1.3370376 1.0740436 -0.45273283 234 88 12
1.806744 1.1295332 -0.68357867 234 88 12
1.5208249 1.1092807 -0.54630166 234 88 12
1.3576031 1.0970819 -0.46778181 234 88 12
1.3634734 1.0485259 -0.46302775 234 88 12
1.8114303 1.1190901 -0.68537277 234 88 12
1.6830343 1.1042089 -0.62291276 234 88 12
1.7669072 1.1170774 -0.66446179 234 88 12
1.3533415 1.0684369 -0.46310884 234 88 12
1.3453884 1.0745469 -0.46091074 234 88 12
1.7779148 1.1182289 -0.67205155 234 88 12
1.8114773 1.1148245 -0.69075507 234 88 12
1.8062696 1.120708 -0.69613731 234 88 12
1.7984818 1.1274005 -0.70690185 234 88 12
1.7999728 1.1217377 -0.71049005 234 88 12
1.7982212 1.1251206 -0.71049005 234 88 12
-0.36530063 -1.0169097 -1.9654671 234 88 12
-0.4925105 -0.79096985 -1.5147847 234 88 12
-0.473389 -0.81266093 -1.5562404 234 88 12
-0.48209313 -0.79592061 -1.5226594 234 88 12
-0.45956832 -0.84893155 -1.6381229 234 88 12
-0.4497551 -0.85810918 -1.6550424 234 88 12
-0.47546113 -0.81941122 -1.5796319 234 88 12
-0.47377706 -0.81735402 -1.574831 234 88 12
-0.3535465 -1.0149468 -1.9672312 234 88 12
-0.39645064 -0.93310618 -1.8063697 234 88 12
-0.48404309 -0.81283355 -1.5762773 234 88 12
-0.474107 -0.82192475 -1.5928173 234 88 12
-0.49787694 -0.78521174 -1.5218191 234 88 12
-0.48969188 -0.78707802 -1.5236347 234 88 12
-0.4857665 -0.78779078 -1.5241226 234 88 12
-0.48297811 -0.78689361 -1.5215213 234 88 12
-0.46250552 -0.84615856 -1.6483424 234 88 12
-0.47337168 -0.82772762 -1.6127758 234 88 12
-0.46464118 -0.83535862 -1.6264242 234 88 12
-0.45859709 -0.83947295 -1.6334426 234 88 12
-0.3644802 -1.0102068 -1.9689952 234 88 12
-0.33990172 -1.0132152 -1.9689952 234 88 12
-0.39028728 -0.94211566 -1.8352603 234 88 12
-0.50711453 -0.78333408 -1.537685 234 88 12
-0.49294847 -0.79787946 -1.5640715 234 88 12
-0.45215747 -0.84889776 -1.6588657 234 88 12
-0.49142098 -0.78638399 -1.5400103 234 88 12
-0.48262215 -0.77957833 -1.5237753 234 88 12
-0.36049378 -1.008994 -1.9698772 234 88 12
-0.35293117 -1.0099196 -1.9698772 234 88 12
-0.3434779 -1.0110767 -1.9698772 234 88 12
-0.33969659 -1.0115395 -1.9698772 234 88 12
-0.34309834 -1.004788 -1.9569556 234 88 12
-0.42513952 -0.88973004 -1.7427523 234 88 12
-0.50552118 -0.77710283 -1.5330929 234 88 12
-0.49422833 -0.77382427 -1.5235863 234 88 12
-0.47462958 -0.78729296 -1.5461656 234 88 12
-0.33949149 -1.0098637 -1.9707593 234 88 12
-0.50778657 -0.77014655 -1.5281117 234 88 12
-0.48529786 -0.77284425 -1.5280007 234 88 12
-0.51753026 -0.77144688 -1.5416104 234 88 12
-0.34421691 -0.9943974 -1.9452559 234 88 12
-0.48553848 -0.79246902 -1.5758376 234 88 12
-0.49226314 -0.77843666 -1.5494078 234 88 12
-0.4691163 -0.80655366 -1.599997 234 88 12
-0.4616034 -0.79888719 -1.5828177 234 88 12
-0.39926204 -0.9197309 -1.8151337 234 88 12
-0.50037116 -0.77729106 -1.5573653 234 88 12
-0.49345738 -0.77292341 -1.547032 234 88 12
-0.50654668 -0.78298682 -1.578171 234 88 12
-0.50193799 -0.78042537 -1.5720351 234 88 12
-0.50988138 -0.76500756 -1.5436764 234 88 12
-0.51105738 -0.75867844 -1.531534 234 88 12
-0.49534008 -0.76148242 -1.5332619 234 88 12
-0.48101026 -0.77244788 -1.5513455 234 88 12
-0.39097694 -0.93500745 -1.8541989 234 88 12
-0.51908451 -0.75784105 -1.5401545 234 88 12
-0.49597603 -0.7804271 -1.5785774 234 88 12
-0.50137019 -0.75876564 -1.5377358 234 88 12
-0.49280423 -0.76125091 -1.5405301 234 88 12
-0.5113281 -0.75999308 -1.5506841 234 88 12
-0.50525016 -0.7637713 -1.5565298 234 88 12
-0.35527673 -0.99772674 -1.9760516 234 88 12
-0.34636083 -0.99585336 -1.9703931 234 88 12
-0.36519086 -0.96531969 -1.9165137 234 88 12
-0.49836564 -0.76018721 -1.5560973 234 88 12
-0.52047503 -0.74428761 -1.5391264 234 88 12
-0.50434357 -0.7477048 -1.5418546 234 88 12
-0.35172275 -0.98004019 -1.9545277 234 88 12
-0.33953619 -0.99455088 -1.9786978 234 88 12
-0.37395892 -0.93751156 -1.8806252 234 88 12
-0.49552011 -0.77260023 -1.6095243 234 88 12
-0.48828751 -0.76922256 -1.6016821 234 88 12
-0.52024138 -0.73865503 -1.5604905 234 88 12
-0.51388085 -0.74289018 -1.5667918 234 88 12
-0.48843727 -0.77456659 -1.6188601 234 88 12
-0.51940119 -0.73116338 -1.5545069 234 88 12
-0.51187253 -0.73710668 -1.563579 234 88 12
-0.36518487 -0.98460817 -1.9822259 234 88 12
-0.44141018 -0.85103899 -1.7597903 234 88 12
-0.36497977 -0.98293245 -1.9831079 234 88 12
-0.35363588 -0.98432094 -1.9831079 234 88 12
-0.52823132 -0.72053117 -1.5529546 234 88 12
-0.52027035 -0.7221092 -1.5540257 234 88 12
-0.50917739 -0.72325557 -1.5536506 234 88 12
-0.50665748 -0.72185689 -1.5506214 234 88 12
-0.50362223 -0.72768456 -1.5679275 234 88 12
-0.51675665 -0.71944439 -1.5638866 234 88 12
0.74395972 -0.90625125 -1.2855552 234 88 12
0.74662024 -0.90355206 -1.2855552 234 88 12
0.74204332 -0.90888071 -1.2912802 234 88 12
0.74110556 -0.90369785 -1.2871262 234 88 12
0.75024617 -0.90100259 -1.2915808 234 88 12
0.76875585 -0.93099391 -1.329571 234 88 12
0.73199326 -0.90533382 -1.2925091 234 88 12
0.76000065 -0.90240848 -1.3095089 234 88 12
0.76855659 -0.93396187 -1.341218 234 88 12
0.75899065 -0.92320168 -1.3276724 234 88 12
0.74676311 -0.89692843 -1.3020715 234 88 12
0.80834943 -0.96035165 -1.3899101 234 88 12
0.75386268 -0.90147859 -1.314927 234 88 12
0.75137144 -0.89059681 -1.3061188 234 88 12
0.93226933 -1.0438886 -1.5307935 234 88 12
0.72976738 -0.90204394 -1.3043979 234 88 12
0.73549062 -0.89241159 -1.3019038 234 88 12
0.93546093 -1.0456599 -1.5374364 234 88 12
0.78751522 -0.94111335 -1.3726953 234 88 12
0.73269391 -0.88988775 -1.3035729 234 88 12
0.74694508 -0.89095414 -1.3136166 234 88 12
0.80486482 -0.96030456 -1.4009193 234 88 12
0.81143892 -0.9609006 -1.4055842 234 88 12
0.75453544 -0.91791284 -1.3409185 234 88 12
0.8010245 -0.95719177 -1.4008412 234 88 12
0.71934599 -0.89765584 -1.3101064 234 88 12
0.72620595 -0.89785528 -1.3146679 234 88 12
0.73125607 -0.89234298 -1.3144203 234 88 12
0.93767732 -1.0489032 -1.550891 234 88 12
0.7196607 -0.89276767 -1.3122947 234 88 12
0.73919106 -0.90182805 -1.3305533 234 88 12
0.92116642 -1.0373539 -1.536383 234 88 12
0.95585966 -1.0580455 -1.5714561 234 88 12
1.0214097 -1.1070678 -1.6464998 234 88 12
0.74967074 -0.9208656 -1.3588414 234 88 12
0.84829605 -0.98410076 -1.4605383 234 88 12
0.76790267 -0.92496777 -1.3729157 234 88 12
0.71749723 -0.88558012 -1.3165377 234 88 12
0.74367785 -0.89059591 -1.3362035 234 88 12
0.72241205 -0.87935549 -1.3208045 234 88 12
1.0100827 -1.1146246 -1.6491232 234 88 12
1.0191456 -1.102663 -1.6474261 234 88 12
0.72068781 -0.89564794 -1.3347259 234 88 12
0.80161715 -0.94728935 -1.4167616 234 88 12
0.719625 -0.88595337 -1.3281182 234 88 12
0.7400797 -0.8958903 -1.3469417 234 88 12
0.72045875 -0.8774302 -1.3234092 234 88 12
1.0064248 -1.1163682 -1.6504349 234 88 12
0.72326285 -0.89684314 -1.3419406 234 88 12
0.72703069 -0.89059579 -1.3404646 234 88 12
0.74525708 -0.8946594 -1.3541939 234 88 12
0.95863032 -1.044609 -1.5772388 234 88 12
0.73531157 -0.90885496 -1.3614248 234 88 12
0.7073158 -0.88077784 -1.3273063 234 88 12
0.70997638 -0.87807858 -1.3273063 234 88 12
1.0100116 -1.0815089 -1.6340754 234 88 12
0.80509198 -0.92909598 -1.4164178 234 88 12
0.71381247 -0.88920265 -1.3412651 234 88 12
1.0258514 -1.0927242 -1.6530583 234 88 12
0.98458952 -1.0601614 -1.6084414 234 88 12
0.7619983 -0.89275736 -1.3727031 234 88 12
1.0021367 -1.1148161 -1.65437 234 88 12
1.0114965 -1.1053202 -1.65437 234 88 12
1.0141708 -1.1026071 -1.65437 234 88 12
0.74676692 -0.91554952 -1.3816831 234 88 12
0.70844084 -0.8758949 -1.3349584 234 88 12
1.0248678 -1.0917547 -1.65437 234 88 12
1.0185555 -1.0847884 -1.6464156 234 88 12
0.96955925 -1.0460843 -1.5938159 234 88 12
0.98524147 -1.0804716 -1.6264459 234 88 12
0.97097224 -1.0630285 -1.6076002 234 88 12
0.72611403 -0.87889755 -1.3522201 234 88 12
0.72944385 -0.87680751 -1.3529807 234 88 12
0.75330222 -0.88979948 -1.3749422 234 88 12
0.7266168 -0.86100191 -1.3419555 234 88 12
1.0108664 -1.1020246 -1.6569933 234 88 12
0.72026181 -0.87417704 -1.3507493 234 88 12
0.71518648 -0.86594355 -1.3429083 234 88 12
0.71568692 -0.85704142 -1.3379898 234 88 12
0.72048128 -0.85124749 -1.337445 234 88 12
0.72010654 -0.87804979 -1.3576968 234 88 12
0.71586132 -0.85201794 -1.3400562 234 88 12
0.72822714 -0.88333648 -1.3702381 234 88 12
1.0172746 -1.0896195 -1.6609278 234 88 12
0.81208253 -0.93901706 -1.455482 234 88 12
0.71594429 -0.8650071 -1.3572503 234 88 12
0.72164202 -0.85080165 -1.3524261 234 88 12
1.0016601 -1.0956247 -1.6674868 234 88 12
1.0083457 -1.0888419 -1.6674868 234 88 12
0.99737203 -1.0940726 -1.6714219 234 88 12
0.99709535 -1.0884508 -1.675357 234 88 12
1.5418386 -0.10600877 -0.79396987 234 88 12
1.5431223 -0.10244645 -0.79451913 234 88 12
1.5447937 -0.11084786 -0.80095029 234 88 12
1.5615797 -0.1036452 -0.81156182 234 88 12
1.5653644 -0.10085861 -0.81385142 234 88 12
1.5437818 -0.10308509 -0.80412716 234 88 12
1.5617957 -0.096357211 -0.81551015 234 88 12
1.5438762 -0.08786881 -0.80738586 234 88 12
1.5726268 -0.118375 -0.83333129 234 88 12
1.5356432 -0.10145844 -0.80768824 234 88 12
1.6322805 -0.13331912 -0.87760943 234 88 12
1.5462532 -0.10824109 -0.81967545 234 88 12
1.544742 -0.10402615 -0.8183344 234 88 12
1.6272415 -0.13226375 -0.87824398 234 88 12
1.5354835 -0.10188205 -0.81665295 234 88 12
1.5363996 -0.090493187 -0.81627452 234 88 12
1.5563339 -0.092099652 -0.82923073 234 88 12
1.7188492 -0.15503885 -0.94256169 234 88 12
1.5447574 -0.10830382 -0.8275944 234 88 12
1.5314085 -0.089401461 -0.81748837 234 88 12
1.5741488 -0.11956402 -0.85153574 234 88 12
1.5350772 -0.10609205 -0.82569921 234 88 12
1.6522105 -0.13897076 -0.90632975 234 88 12
1.5346143 -0.10619585 -0.82986242 234 88 12
1.5321621 -0.093991704 -0.82731324 234 88 12
1.5326561 -0.090252511 -0.82731324 234 88 12
1.5621274 -0.11701021 -0.85228854 234 88 12
1.6218377 -0.12826319 -0.89034665 234 88 12
1.8814982 -0.19342992 -1.0597109 234 88 12
1.5225954 -0.09195435 -0.83012569 234 88 12
1.6149939 -0.10944924 -0.88852876 234 88 12
1.7031077 -0.14896519 -0.94956273 234 88 12
1.5634606 -0.095591083 -0.85986644 234 88 12
1.6595691 -0.13826548 -0.92577475 234 88 12
1.5284832 -0.097849704 -0.84306866 234 88 12
1.5228791 -0.088641591 -0.83893383 234 88 12
1.5389829 -0.089155369 -0.8487376 234 88 12
1.9323967 -0.19269899 -1.0955324 234 88 12
1.728179 -0.13205898 -0.96687144 234 88 12
1.8417355 -0.16228971 -1.0381348 234 88 12
1.9304812 -0.20796978 -1.097826 234 88 12
1.778018 -0.16799137 -1.0030113 234 88 12
1.5175294 -0.09913674 -0.84097356 234 88 12
1.5660518 -0.10414106 -0.87053609 234 88 12
1.521015 -0.08839532 -0.84221578 234 88 12
1.8318121 -0.16444995 -1.0350639 234 88 12
1.6716703 -0.11606032 -0.93496597 234 88 12
1.6478969 -0.10593311 -0.9198724 234 88 12
1.9290435 -0.21162248 -1.0994787 234 88 12
1.929293 -0.20973413 -1.0994787 234 88 12
1.9044746 -0.19964933 -1.0838952 234 88 12
1.531718 -0.10296559 -0.8541531 234 88 12
1.5441426 -0.10236495 -0.86150974 234 88 12
1.5516875 -0.10059171 -0.86586624 234 88 12
1.5235487 -0.089326955 -0.84821111 234 88 12
1.5409319 -0.090200163 -0.85863876 234 88 12
1.9217263 -0.18997279 -1.0934138 234 88 12
1.5766026 -0.089048378 -0.87980467 234 88 12
1.9162874 -0.20671876 -1.0937769 234 88 12
1.8237834 -0.17968173 -1.0370166 234 88 12
1.5283469 -0.090861782 -0.85554475 234 88 12
1.5923041 -0.09381137 -0.89355993 234 88 12
1.5927559 -0.090391867 -0.89355993 234 88 12
1.5232625 -0.066291764 -0.85062325 234 88 12
1.5207032 -0.061638486 -0.84874803 234 88 12
1.5203049 -0.11586544 -0.85710365 234 88 12
1.5233532 -0.11276533 -0.85864913 234 88 12
1.5555212 -0.11311853 -0.87751663 234 88 12
1.6093482 -0.10240495 -0.90821296 234 88 12
1.5308267 -0.076494947 -0.86021972 234 88 12
1.5224857 -0.070240088 -0.85485065 234 88 12
1.5385572 -0.063499354 -0.86374182 234 88 12
1.9252294 -0.21880384 -1.104437 234 88 12
1.9267263 -0.20747371 -1.104437 234 88 12
1.5537511 -0.11288466 -0.88063318 234 88 12
1.5382454 -0.10528173 -0.87104744 234 88 12
1.5160891 -0.095817119 -0.85745752 234 88 12
1.5145255 -0.0915436 -0.85622197 234 88 12
1.9282231 -0.1961436 -1.104437 234 88 12
1.9098624 -0.18911423 -1.0932375 234 88 12
1.5372254 -0.082391486 -0.86869943 234 88 12
1.5171682 -0.065099135 -0.85572779 234 88 12
1.8555983 -0.18570727 -1.0640476 234 88 12
1.65617 -0.11925524 -0.94421649 234 88 12
1.5284525 -0.080199406 -0.86774075 234 88 12
1.8871601 -0.19380763 -1.0852296 234 88 12
1.5080088 -0.090320453 -0.86112469 234 88 12
1.5267198 -0.060842715 -0.86957753 234 88 12
1.8984264 -0.18221602 -1.0931255 234 88 12
1.9162519 -0.20149648 -1.1090962 234 88 12
1.9204047 -0.20471723 -1.116006 234 88 12
1.9207133 -0.19515145 -1.1176587 234 88 12
1.9166497 -0.20422116 -1.122617 234 88 12
1.9167089 -0.19654372 -1.1242697 234 88 12
1.9128948 -0.20372508 -1.1292279 234 88 12
1.9138927 -0.19617167 -1.1292279 234 88 12
0.69712818 1.251053 -1.0825897 234 88 12
0.69982183 1.2337848 -1.0757537 234 88 12
0.69722348 1.2364891 -1.0758462 234 88 12
0.71223795 1.2434798 -1.095073 234 88 12
0.74383521 1.2542672 -1.1321061 234 88 12
0.70710325 1.248737 -1.09518 234 88 12
0.71138006 1.2529368 -1.1025864 234 88 12
0.68776131 1.2507936 -1.0800771 234 88 12
0.69859201 1.2321105 -1.0791826 234 88 12
0.69930756 1.2356406 -1.082864 234 88 12
0.69271523 1.2373463 -1.0786268 234 88 12
0.71479899 1.245991 -1.1052713 234 88 12
0.69829845 1.2439274 -1.0950166 234 88 12
0.69566256 1.2465632 -1.0950166 234 88 12
0.69431049 1.2316623 -1.0869321 234 88 12
0.70462078 1.2408377 -1.1035722 234 88 12
0.69861388 1.2491096 -1.1055067 234 88 12
0.67723 1.2507386 -1.0886365 234 88 12
0.69142318 1.2329193 -1.0914044 234 88 12
0.67655408 1.2459068 -1.0898099 234 88 12
0.75039893 1.2657139 -1.1691785 234 88 12
0.72723758 1.2406203 -1.1338208 234 88 12
0.67673314 1.2379408 -1.0890902 234 88 12
0.690974 1.2542132 -1.1147536 234 88 12
0.68952042 1.2363583 -1.1042756 234 88 12
0.69271207 1.2532295 -1.1210215 234 88 12
0.67796296 1.2321451 -1.0969279 234 88 12
0.69321483 1.2765187 -1.1463182 234 88 12
0.83015352 1.2687242 -1.2578779 234 88 12
0.67328626 1.2395759 -1.1049616 234 88 12
0.68653905 1.2459177 -1.1210696 234 88 12
0.78641915 1.2905371 -1.2398572 234 88 12
0.70143622 1.279667 -1.1610601 234 88 12
0.63957006 1.2711444 -1.103196 234 88 12
0.63402665 1.2732888 -1.1004019 234 88 12
0.67711747 1.232529 -1.1080453 234 88 12
0.66382813 1.2359481 -1.0999928 234 88 12
0.69960636 1.2538519 -1.1437882 234 88 12
0.65748054 1.2476605 -1.1043696 234 88 12
1.0259112 1.3370383 -1.4778639 234 88 12
0.63243723 1.2746625 -1.1059675 234 88 12
0.68569702 1.2333021 -1.1212999 234 88 12
0.66741067 1.2320989 -1.1055202 234 88 12
0.6633215 1.2344366 -1.1041021 234 88 12
0.67150646 1.2461559 -1.1202176 234 88 12
0.66888249 1.2487799 -1.1202176 234 88 12
0.70958257 1.2756362 -1.1749145 234 88 12
0.6399439 1.2745321 -1.1176378 234 88 12
0.62408346 1.2779696 -1.1075795 234 88 12
0.66619051 1.2435641 -1.1194522 234 88 12
1.024078 1.335205 -1.4806552 234 88 12
0.65876067 1.2642102 -1.1300718 234 88 12
0.68081605 1.2716076 -1.1537374 234 88 12
0.62921637 1.2679492 -1.1093369 234 88 12
0.62999791 1.2775024 -1.1176409 234 88 12
0.68874252 1.2378595 -1.1384802 234 88 12
0.65484339 1.236275 -1.1101844 234 88 12
0.71530348 1.2564998 -1.174525 234 88 12
0.64316243 1.2596672 -1.1195234 234 88 12
0.66178995 1.2695622 -1.1422682 234 88 12
0.62843174 1.2726262 -1.1181105 234 88 12
0.83169121 1.2715727 -1.2837369 234 88 12
0.66108555 1.2330686 -1.1182495 234 88 12
0.68465108 1.2419273 -1.1439098 234 88 12
0.66836256 1.2413121 -1.1305324 234 88 12
0.64584088 1.2587734 -1.1265277 234 88 12
0.63366926 1.2626919 -1.1199962 234 88 12
0.65371841 1.2299104 -1.1155835 234 88 12
0.64876127 1.2386578 -1.1185606 234 88 12
1.0253688 1.3284146 -1.4848419 234 88 12
1.0240219 1.3297614 -1.4848419 234 88 12
0.72650409 1.273832 -1.2072452 234 88 12
0.64287359 1.2599049 -1.1306237 234 88 12
1.0065535 1.337677 -1.4773393 234 88 12
0.66258222 1.2339745 -1.1312804 234 88 12
0.64151073 1.2388827 -1.1186819 234 88 12
0.80410689 1.2910631 -1.28609 234 88 12
0.73558706 1.279977 -1.224041 234 88 12
0.6521588 1.2300955 -1.1257176 234 88 12
0.65417147 1.2338692 -1.1301937 234 88 12
0.94124001 1.3179063 -1.4172629 234 88 12
0.97819114 1.3272148 -1.453047 234 88 12
1.0360876 1.312196 -1.4890288 234 88 12
1.0347407 1.3135428 -1.4890288 234 88 12
0.68832433 1.2343756 -1.1623102 234 88 12
0.6405434 1.2325578 -1.1242335 234 88 12
0.6405521 1.2391307 -1.1292862 234 88 12
0.66621089 1.2143201 -1.1354477 234 88 12
0.68659586 1.2326472 -1.1649419 234 88 12
1.0236915 1.320213 -1.4884847 234 88 12
0.9980889 1.3175974 -1.4669858 234 88 12
0.99665612 1.3190302 -1.4669858 234 88 12
0.71325123 1.2441248 -1.1990205 234 88 12
0.89156002 1.2703974 -1.3575248 234 88 12
1.0265473 1.3107369 -1.4974025 234 88 12
1.0238535 1.3134305 -1.4974025 234 88 12
1.0229369 1.3125139 -1.4987981 234 88 12
1.010815 1.3246357 -1.4987981 234 88 12
1.0021353 1.3186498 -1.509963 234 88 12
0.99717802 1.3217736 -1.5113586 234 88 12
-0.50251615 1.2665117 -1.2399647 234 88 12
-0.48458764 1.2653785 -1.2487628 234 88 12
-0.49121875 1.2637625 -1.2416482 234 88 12
-0.31345749 1.3533846 -1.6914428 234 88 12
-0.49263665 1.2649698 -1.2670792 234 88 12
-0.50197202 1.263685 -1.262453 234 88 12
-0.46796143 1.2819085 -1.3505883 234 88 12
-0.47532296 1.2620138 -1.2659487 234 88 12
-0.48624077 1.258078 -1.2480512 234 88 12
-0.48574507 1.2601224 -1.2585112 234 88 12
-0.49852294 1.2570786 -1.2456448 234 88 12
-0.50229341 1.2569147 -1.2456448 234 88 12
-0.49919045 1.2635534 -1.2792757 234 88 12
-0.42882496 1.2997305 -1.450526 234 88 12
-0.52523661 1.2557762 -1.2449156 234 88 12
-0.47705573 1.2579079 -1.2632911 234 88 12
-0.47480193 1.2609124 -1.2780603 234 88 12
-0.4990294 1.2553525 -1.2551612 234 88 12
-0.4683961 1.2758751 -1.3526748 234 88 12
-0.5058859 1.2587446 -1.2739122 234 88 12
-0.40300751 1.3112563 -1.5180116 234 88 12
-0.51707017 1.2565447 -1.2652049 234 88 12
-0.45411164 1.2902422 -1.4225227 234 88 12
-0.48540539 1.2501825 -1.2441534 234 88 12
-0.50658536 1.2535198 -1.26542 234 88 12
-0.51855326 1.2491882 -1.2463852 234 88 12
-0.5008629 1.2614278 -1.3036728 234 88 12
-0.51385838 1.2566192 -1.2824794 234 88 12
-0.47591257 1.2768574 -1.3753163 234 88 12
-0.51812339 1.2577811 -1.2892084 234 88 12
-0.4894186 1.2466354 -1.2453198 234 88 12
-0.49198216 1.2471366 -1.2483276 234 88 12
-0.50080216 1.2461395 -1.245315 234 88 12
-0.50734633 1.2463568 -1.2477791 234 88 12
-0.51531953 1.2458194 -1.2468429 234 88 12
-0.51796776 1.2462389 -1.2494677 234 88 12
-0.49819857 1.2613281 -1.3193359 234 88 12
-0.53214449 1.2460485 -1.251559 234 88 12
-0.48150048 1.2438854 -1.2478596 234 88 12
-0.52454513 1.2466415 -1.2702026 234 88 12
-0.50565296 1.2426138 -1.2640256 234 88 12
-0.52798116 1.2416977 -1.2642853 234 88 12
-0.4496257 1.2729766 -1.4112296 234 88 12
-0.52968842 1.2325497 -1.2555811 234 88 12
-0.52217722 1.2383159 -1.2805847 234 88 12
-0.53432113 1.2337526 -1.2620362 234 88 12
-0.30171376 1.3484253 -1.7762313 234 88 12
-0.49989048 1.2311921 -1.3223321 234 88 12
-0.5195542 1.2167984 -1.2801967 234 88 12
-0.42084861 0.23967612 -1.7392129 234 88 12
-0.41643536 0.23554038 -1.7407304 234 88 12
-0.42177245 0.23431802 -1.7458643 234 88 12
-0.42421654 0.22986183 -1.7488824 234 88 12
-0.38738436 0.2046878 -1.8418918 234 88 12
-0.39172199 0.21285351 -1.7909404 234 88 12
-0.22046393 0.11357233 -2.2289455 234 88 12
-0.41522118 0.2218305 -1.7346067 234 88 12
-0.42069995 0.22072598 -1.7395629 234 88 12
-0.4266465 0.21798097 -1.7518803 234 88 12
-0.3300029 0.16714433 -1.9799933 234 88 12
-0.22332315 0.11214081 -2.226804 234 88 12
-0.34568533 0.18152425 -1.9013023 234 88 12
-0.41348311 0.21516091 -1.7477437 234 88 12
-0.42327955 0.21256398 -1.7595992 234 88 12
-0.24058482 0.12413737 -2.1532555 234 88 12
-0.21664497 0.11077322 -2.2153456 234 88 12
-0.40510613 0.20527798 -1.7762748 234 88 12
-0.41593474 0.20705122 -1.7680364 234 88 12
-0.41611031 0.20532954 -1.7760353 234 88 12
-0.23714286 0.10761905 -2.23 234 88 12
-0.21238095 0.10380952 -2.23 234 88 12
-0.22380953 0.10380952 -2.23 234 88 12
-0.23714286 0.10380952 -2.23 234 88 12
-0.40221369 0.19827434 -1.7386283 234 88 12
-0.40957022 0.19817914 -1.7391043 234 88 12
-0.42100087 0.1982291 -1.7388544 234 88 12
-0.3828975 0.19427803 -1.7397479 234 88 12
-0.39520594 0.19110897 -1.7559009 234 88 12
-0.40318352 0.19315302 -1.7454821 234 88 12
-0.41276997 0.19413382 -1.7404829 234 88 12
-0.42240575 0.19510221 -1.7355469 234 88 12
-0.24304608 0.11126109 -2.1628926 234 88 12
-0.38450205 0.185812 -1.7641456 234 88 12
-0.40869927 0.18848687 -1.7502415 234 88 12
-0.22250912 0.099881865 -2.2108121 234 88 12
-0.37548178 0.18679747 -1.7394073 234 88 12
-0.38032892 0.18548061 -1.7463907 234 88 12
-0.25709501 0.1131218 -2.1301117 234 88 12
-0.36593261 0.18018001 -1.7547989 234 88 12
-0.36807078 0.1794114 -1.7589589 234 88 12
-0.38293365 0.18297815 -1.7396543 234 88 12
-0.37484607 0.1773662 -1.7700284 234 88 12
-0.39695269 0.18423164 -1.73287 234 88 12
-0.39943811 0.18362795 -1.7361374 234 88 12
-0.39283529 0.17559917 -1.779592 234 88 12
-0.40501612 0.17939071 -1.7590709 234 88 12
-0.40968812 0.17981787 -1.7567589 234 88 12
-0.22515732 0.095372312 -2.2138097 234 88 12
-0.37302846 0.17988682 -1.7358886 234 88 12
-0.40788049 0.18022627 -1.7340127 234 88 12
-0.40007648 0.17197858 -1.779592 234 88 12
-0.4004837 0.17060965 -1.7871572 234 88 12
-0.21428572 0.090476193 -2.23 234 88 12
-0.22380953 0.090476193 -2.23 234 88 12
-0.36610055 0.17460179 -1.7443447 234 88 12
-0.38251567 0.16701388 -1.7871797 234 88 12
-0.31778985 0.13746259 -1.9540015 234 88 12
-0.35389072 0.15166745 -1.8738128 234 88 12
-0.28032908 0.11904385 -2.0579782 234 88 12
-0.36906984 0.16709132 -1.7660116 234 88 12
-0.23950364 0.10428149 -2.128376 234 88 12
-0.36268848 0.15642014 -1.827576 234 88 12
-0.29129097 0.12444825 -2.0120294 234 88 12
-0.27532142 0.11653139 -2.0577035 234 88 12
-0.20666666 0.086666666 -2.23 234 88 12
-0.36792397 0.16792428 -1.7394354 234 88 12
-0.37391931 0.16556625 -1.7533451 234 88 12
-0.38477996 0.16869663 -1.7348794 234 88 12
-0.36750129 0.1580078 -1.7979316 234 88 12
-0.36689466 0.15623744 -1.8083746 234 88 12
-0.35099366 0.14804946 -1.8566746 234 88 12
-0.35847026 0.14839002 -1.8546656 234 88 12
-0.28355923 0.11629848 -2.0439696 234 88 12
-0.40877226 0.16612206 -1.7500665 234 88 12
-0.35670626 0.15138265 -1.816484 234 88 12
-0.30395541 0.12774937 -1.9590986 234 88 12
-0.30032817 0.12501699 -1.9755871 234 88 12
-0.22012778 0.086225167 -2.1974328 234 88 12
-0.23714286 0.07904762 -2.23 234 88 12
-0.22380953 0.077142857 -2.23 234 88 12
-0.23714286 0.077142857 -2.23 234 88 12
0.84379047 0.090663865 -1.5211012 234 88 12
0.84432763 0.094365112 -1.5215545 234 88 12
0.84857255 0.097112119 -1.5265237 234 88 12
0.8409763 0.090711541 -1.5236124 234 88 12
0.85822296 0.097713888 -1.5438641 234 88 12
0.83849674 0.090678975 -1.5265175 234 88 12
0.83836943 0.09837085 -1.5259697 234 88 12
0.85468072 0.10544051 -1.5449549 234 88 12
0.85146767 0.098126106 -1.5472169 234 88 12
0.85177946 0.10552001 -1.5472054 234 88 12
0.85738951 0.099617638 -1.559701 234 88 12
0.8613714 0.083340116 -1.5706733 234 88 12
0.83922523 0.096173726 -1.5443456 234 88 12
0.82962328 0.1062415 -1.5327036 234 88 12
0.83663052 0.10819116 -1.540731 234 88 12
0.84902346 0.10858136 -1.5550821 234 88 12
0.9735719 0.056025665 -1.7066092 234 88 12
0.82523549 0.10285816 -1.5335486 234 88 12
0.82540047 0.10665202 -1.5335486 234 88 12
1.0385774 0.040125936 -1.786059 234 88 12
0.82452899 0.098544158 -1.5386629 234 88 12
0.82666707 0.10562975 -1.5407532 234 88 12
0.85667211 0.082701176 -1.5815409 234 88 12
0.83957857 0.094163768 -1.5615972 234 88 12
0.91476113 0.071709663 -1.6527659 234 88 12
0.85303885 0.090211682 -1.58241 234 88 12
0.81331748 0.099373087 -1.5429111 234 88 12
1.0529854 0.03757342 -1.8171538 234 88 12
1.0326433 0.04499466 -1.7942468 234 88 12
0.81743002 0.10530123 -1.5527749 234 88 12
0.81178284 0.11439905 -1.5460765 234 88 12
0.84890646 0.08582212 -1.5938461 234 88 12
0.89845145 0.077318832 -1.6487657 234 88 12
0.80962062 0.10662849 -1.5496256 234 88 12
1.1393996 0.012424129 -1.9197736 234 88 12
1.1395651 0.016230058 -1.9197736 234 88 12
0.80437887 0.10346549 -1.5495706 234 88 12
0.82825881 0.10491041 -1.5755816 234 88 12
0.93028009 0.090843834 -1.6876681 234 88 12
0.99132013 0.076351292 -1.7550188 234 88 12
1.0549489 0.060403191 -1.8252658 234 88 12
1.1280072 0.014699617 -1.9100859 234 88 12
1.1156852 0.019521875 -1.8965013 234 88 12
0.81486487 0.10771906 -1.5662465 234 88 12
1.1385453 0.029620329 -1.9208063 234 88 12
1.1294094 0.036099654 -1.9105974 234 88 12
0.80235881 0.14160822 -1.5510923 234 88 12
0.80418628 0.14488098 -1.5529191 234 88 12
0.81837976 0.09500429 -1.5759991 234 88 12
0.79787594 0.10377688 -1.5535262 234 88 12
0.79906231 0.10730536 -1.5546377 234 88 12
0.80126202 0.118188 -1.5564954 234 88 12
0.83449394 0.12739965 -1.5918227 234 88 12
0.79920352 0.14173815 -1.5531787 234 88 12
0.7993682 0.14552638 -1.5531787 234 88 12
0.80432522 0.086469054 -1.5666778 234 88 12
0.83016211 0.087939546 -1.5942056 234 88 12
0.80842102 0.12683488 -1.569178 234 88 12
1.0523413 0.040155776 -1.8371186 234 88 12
0.79720688 0.10645456 -1.5635623 234 88 12
0.84679967 0.11165316 -1.6159022 234 88 12
0.79972553 0.12855339 -1.5652139 234 88 12
0.8008917 0.14718118 -1.5655917 234 88 12
1.0624223 0.037299573 -1.8512151 234 88 12
1.1280339 0.023231125 -1.920911 234 88 12
1.1206717 0.027054582 -1.9129878 234 88 12
0.81405729 0.12004924 -1.5860403 234 88 12
0.79314899 0.1411062 -1.5630721 234 88 12
0.92805392 0.087839887 -1.7117895 234 88 12
0.80334163 0.12603329 -1.5797654 234 88 12
1.1278756 0.0052989302 -1.9270024 234 88 12
1.1288685 0.028134499 -1.9270024 234 88 12
1.1230786 0.005507498 -1.9301004 234 88 12
1.1236577 0.018828247 -1.9301004 234 88 12
1.1239886 0.026440103 -1.9301004 234 88 12
1.115828 0.022981787 -1.9352638 234 88 12
1.1159936 0.026787715 -1.9352638 234 88 12
