ply
format ascii 1.0
element vertex 1805
property float x
property float y
property float z
property uchar red
property uchar green
property uchar blue
end_header
-0.00024967565 0.00036654511 2.727211 234 88 12
3.7185735e-05 0.00036654511 2.727211 234 88 12
-0.0007039734 0.011967548 2.6068046 234 88 12
0.00023465781 0.011967548 2.6068046 234 88 12
-0.0035198671 0.011028918 2.6068046 234 88 12
0.00023465781 0.011028918 2.6068046 234 88 12
0.13828278 0.089031376 1.7355006 234 88 12
-0.015722074 0.010559602 2.6068046 234 88 12
0.14207135 0.085242808 1.7355006 234 88 12
-0.033144321 0.021271728 2.4702871 234 88 12
0.011498232 0.010090286 2.6068046 234 88 12
-0.036112469 0.020282345 2.4702871 234 88 12
0.14585991 0.077665672 1.7355006 234 88 12
-0.17616847 0.073877104 1.7355006 234 88 12
0.14585991 0.073877104 1.7355006 234 88 12
-0.17995705 0.06629996 1.7355006 234 88 12
0.14964849 0.06629996 1.7355006 234 88 12
0.15722562 0.06629996 1.7355006 234 88 12
0.021395585 0.022871142 2.3426661 234 88 12
0.022871142 0.022871142 2.3426661 234 88 12
-0.18374561 0.054934256 1.7355006 234 88 12
0.016968912 0.021395585 2.3426661 234 88 12
0.022871142 0.021395585 2.3426661 234 88 12
0.14964849 0.054934256 1.7355006 234 88 12
0.15722562 0.054934256 1.7355006 234 88 12
-0.063474782 0.019699071 2.3469625 234 88 12
0.034675602 0.019920027 2.3426661 234 88 12
-0.039521445 0.013916002 2.4377639 234 88 12
0.011066682 0.018444469 2.3426661 234 88 12
-0.021271728 0.011377901 2.4702871 234 88 12
0.15343706 0.043568548 1.7355006 234 88 12
0.15722562 0.043568548 1.7355006 234 88 12
-0.067852356 0.015321499 2.3469625 234 88 12
-0.04402753 0.010388519 2.4702871 234 88 12
-0.030176174 0.010388519 2.4702871 234 88 12
-0.021271728 0.010388519 2.4702871 234 88 12
-0.045016915 0.0093991356 2.4702871 234 88 12
-0.045087844 0.010576161 2.4377639 234 88 12
-0.043974563 0.010576161 2.4377639 234 88 12
0.045004506 0.014017797 2.3426661 234 88 12
-0.032841764 0.0094628809 2.4377639 234 88 12
-0.035654686 0.014783651 2.2734461 234 88 12
-0.0018855428 0.032054227 1.74009 234 88 12
-0.069311544 0.010943928 2.3469625 234 88 12
-0.003688894 0.011066682 2.3426661 234 88 12
0.00073777878 0.011066682 2.3426661 234 88 12
0.012542239 0.011066682 2.3426661 234 88 12
0.022871142 0.011066682 2.3426661 234 88 12
0.034675602 0.011066682 2.3426661 234 88 12
0.045004506 0.011066682 2.3426661 234 88 12
-0.028454212 0.0094847372 2.3469625 234 88 12
0.02077489 0.003177336 2.6016846 234 88 12
-0.033915434 0.0095658917 2.2734461 234 88 12
-0.028283142 0.020740971 1.74009 234 88 12
-0.035825312 0.016969886 1.74009 234 88 12
-0.012542239 0.0066400091 2.3426661 234 88 12
-0.0054565836 0.0037776348 2.5096381 234 88 12
-0.0078266384 0.0078266384 2.2734461 234 88 12
-0.065993994 0.013198799 1.74009 234 88 12
-0.047138568 0.013198799 1.74009 234 88 12
-0.014783651 0.0060873856 2.2734461 234 88 12
-0.032176182 0.0043481323 2.2734461 234 88 12
-0.065993994 0.0094277142 1.74009 234 88 12
-0.054680739 0.0094277142 1.74009 234 88 12
0.056808967 0.00073777878 2.3426661 234 88 12
-0.047985062 -0.00049469137 2.4702871 234 88 12
-0.050654244 -0.00055664004 2.4377639 234 88 12
-0.043974563 -0.00055664004 2.4377639 234 88 12
-0.032841764 -0.00055664004 2.4377639 234 88 12
-0.025229258 -0.00049469137 2.4702871 234 88 12
-0.021271728 -0.00049469137 2.4702871 234 88 12
-0.033915434 -0.00086962647 2.2734461 234 88 12
-0.032176182 -0.00086962647 2.2734461 234 88 12
-0.021740662 -0.00086962647 2.2734461 234 88 12
-0.0095658917 -0.00086962647 2.2734461 234 88 12
-0.0012592117 -0.00041973722 2.5096381 234 88 12
0.00073777878 -0.00073777878 2.3426661 234 88 12
0.012542239 -0.00073777878 2.3426661 234 88 12
0.022871142 -0.00073777878 2.3426661 234 88 12
0.034675602 -0.00073777878 2.3426661 234 88 12
0.045004506 -0.00073777878 2.3426661 234 88 12
0.056808967 -0.00073777878 2.3426661 234 88 12
0.018537967 -0.00023465781 2.6068046 234 88 12
0.021752531 -0.00024441048 2.6016846 234 88 12
-0.00073777878 -0.003688894 2.3426661 234 88 12
-0.0021695588 -0.00015340315 2.7184947 234 88 12
0.022241352 -0.0021996943 2.6016846 234 88 12
-0.033915434 -0.011305144 2.2734461 234 88 12
-0.032176182 -0.011305144 2.2734461 234 88 12
-0.021740662 -0.011305144 2.2734461 234 88 12
-0.0095658917 -0.011305144 2.2734461 234 88 12
0.00041973722 -0.0062960582 2.5096381 234 88 12
0.011332905 -0.0062960582 2.5096381 234 88 12
0.028773373 -0.012542239 2.3426661 234 88 12
0.034675602 -0.012542239 2.3426661 234 88 12
0.045004506 -0.012542239 2.3426661 234 88 12
0.056808967 -0.012542239 2.3426661 234 88 12
-0.011339053 -0.0052546831 2.5848048 234 88 12
-0.051767524 -0.011689441 2.4377639 234 88 12
-0.043974563 -0.011689441 2.4377639 234 88 12
-0.032841764 -0.011689441 2.4377639 234 88 12
-0.048974443 -0.011377901 2.4702871 234 88 12
-0.025229258 -0.011377901 2.4702871 234 88 12
-0.021271728 -0.011377901 2.4702871 234 88 12
-0.010785928 -0.0063609318 2.5848048 234 88 12
0.00086962647 -0.02000141 2.2734461 234 88 12
0.022246072 -0.01049343 2.5096381 234 88 12
0.00086962647 -0.023479914 2.2734461 234 88 12
0.0012592117 -0.011332905 2.5096381 234 88 12
0.011332905 -0.011332905 2.5096381 234 88 12
0.022246072 -0.011332905 2.5096381 234 88 12
0.00027656226 -0.0080203051 2.5848048 234 88 12
0.0081155663 -0.022871142 2.3426661 234 88 12
0.047955621 -0.022871142 2.3426661 234 88 12
0.056808967 -0.022871142 2.3426661 234 88 12
0.012542239 -0.0243467 2.3426661 234 88 12
-0.00086962647 -0.030436927 2.2734461 234 88 12
-0.00041973722 -0.015530277 2.5096381 234 88 12
0.0056566284 -0.069765083 1.74009 234 88 12
0.013198799 -0.069765083 1.74009 234 88 12
0.024512056 -0.069765083 1.74009 234 88 12
-0.0018855428 -0.073536165 1.74009 234 88 12
-0.051767524 -0.022822242 2.4377639 234 88 12
-0.043974563 -0.022822242 2.4377639 234 88 12
-0.032841764 -0.022822242 2.4377639 234 88 12
-0.012998426 -0.011339053 2.5848048 234 88 12
-0.010785928 -0.011339053 2.5848048 234 88 12
-0.003688894 -0.030248931 2.3426661 234 88 12
-0.013198799 -0.081078336 1.74009 234 88 12
-0.047985062 -0.022261111 2.4702871 234 88 12
-0.028197408 -0.022261111 2.4702871 234 88 12
-0.0095658917 -0.039133191 2.2734461 234 88 12
-0.002688515 -0.011487292 2.6016846 234 88 12
0.00024441048 -0.011487292 2.6016846 234 88 12
0.0051071662 -0.034290973 2.3469625 234 88 12
0.012403118 -0.034290973 2.3469625 234 88 12
0.043367483 -0.088620506 1.74009 234 88 12
0.058284525 -0.034675602 2.3426661 234 88 12
0.022241352 -0.011487292 2.6016846 234 88 12
-0.02682654 -0.013551551 2.5848048 234 88 12
-0.014783651 -0.0426117 2.2734461 234 88 12
0.022871142 -0.037626717 2.3426661 234 88 12
0.033998713 -0.021406598 2.5096381 234 88 12
-0.04402753 -0.026218642 2.4702871 234 88 12
-0.02000141 -0.046090204 2.2734461 234 88 12
0.013851328 -0.022246072 2.5096381 234 88 12
0.022246072 -0.022246072 2.5096381 234 88 12
0.033998713 -0.022246072 2.5096381 234 88 12
-0.084353767 -0.047829457 2.2734461 234 88 12
-0.025219169 -0.049568709 2.2734461 234 88 12
-0.043974563 -0.033955045 2.4377639 234 88 12
0.024076641 -0.044505306 2.3469625 234 88 12
0.062711202 -0.045004506 2.3426661 234 88 12
-0.033915434 -0.05478647 2.2734461 234 88 12
-0.037393939 -0.056525722 2.2734461 234 88 12
0.034675602 -0.049431179 2.3426661 234 88 12
-0.082614519 -0.060004227 2.2734461 234 88 12
-0.041059382 -0.034133703 2.4702871 234 88 12
-0.047829457 -0.061743479 2.2734461 234 88 12
0.011487292 -0.017353144 2.6016846 234 88 12
0.045004506 -0.053857852 2.3426661 234 88 12
-0.080875263 -0.066961236 2.2734461 234 88 12
-0.077396758 -0.066961236 2.2734461 234 88 12
-0.060004227 -0.066961236 2.2734461 234 88 12
-0.05478647 -0.066961236 2.2734461 234 88 12
0.045964498 -0.056178831 2.3469625 234 88 12
0.056808967 -0.056808967 2.3426661 234 88 12
-1.398863 0.051157054 2.0835335 234 88 12
-1.3991911 0.043608915 2.0835335 234 88 12
-1.3996652 0.032706048 2.0835335 234 88 12
-1.3393598 0.047155894 1.9232913 234 88 12
-1.3394879 0.044207565 1.9232913 234 88 12
-1.3400006 0.032414246 1.9232913 234 88 12
-1.3412603 0.060531091 1.9216913 234 88 12
-1.3421576 0.039892785 1.9216913 234 88 12
-1.342478 0.032521959 1.9216913 234 88 12
-1.3422426 0.066481605 1.9208913 234 88 12
-1.3427553 0.05468829 1.9208913 234 88 12
-1.3426481 0.08569961 1.9200914 234 88 12
-1.343289 0.070957959 1.9200914 234 88 12
-1.3454683 0.020836353 1.9200914 234 88 12
-1.4777186 0.064445376 2.2912607 234 88 12
-1.3449333 0.090229817 1.9184914 234 88 12
-1.4362284 0.070665494 2.1745374 234 88 12
-1.3453819 0.079910666 1.9184914 234 88 12
-1.3455101 0.076962337 1.9184914 234 88 12
-1.3460228 0.065169014 1.9184914 234 88 12
-1.3464715 0.054849859 1.9184914 234 88 12
-1.3469843 0.04305654 1.9184914 234 88 12
-1.3474329 0.032737385 1.9184914 234 88 12
-1.3479457 0.020944066 1.9184914 234 88 12
-1.4354898 0.056785848 2.1693091 234 88 12
-1.4355534 0.05532077 2.1693091 234 88 12
-1.4369552 0.072106369 2.1740284 234 88 12
-1.3532851 0.012314505 1.9152914 234 88 12
-1.3506781 0.10081825 1.9144914 234 88 12
-1.3540111 0.024161682 1.9144914 234 88 12
-1.4087902 0.033943053 2.0776169 234 88 12
-1.4088267 0.033104371 2.0776169 234 88 12
-1.3554406 0.10545618 1.9112915 234 88 12
-1.1739229 0.12119488 1.3052799 234 88 12
-1.1771034 0.12133315 1.3032259 234 88 12
-1.3643694 0.014273382 1.9080917 234 88 12
-1.1801193 0.12525643 1.3011719 234 88 12
-1.4419887 0.065278836 2.1709752 234 88 12
-1.365544 0.015801404 1.9072917 234 88 12
-1.414428 0.034188174 2.0739758 234 88 12
-1.414501 0.03251081 2.0739758 234 88 12
-1.3626807 0.11020181 1.9064916 234 88 12
-1.4422604 0.068109207 2.1707208 234 88 12
-1.1864802 0.12553298 1.2970638 234 88 12
-1.1866447 0.12174799 1.2970638 234 88 12
-1.1869738 0.11417801 1.2970638 234 88 12
-1.1871384 0.11039302 1.2970638 234 88 12
-1.4419849 0.049239717 2.1653337 234 88 12
-1.1896605 0.12567127 1.2950099 234 88 12
-1.3663327 0.11183755 1.9040917 234 88 12
-1.4438022 0.078041181 2.1694486 234 88 12
-1.1990374 0.1298711 1.2888479 234 88 12
-1.1995311 0.11851612 1.2888479 234 88 12
-1.2032052 0.10729942 1.2867938 234 88 12
-1.2053983 0.13014767 1.2847399 234 88 12
-1.205892 0.11879268 1.2847399 234 88 12
-1.2063856 0.1074377 1.2847399 234 88 12
-1.3754536 0.016232258 1.9008918 234 88 12
-1.4199929 0.036110662 2.0703349 234 88 12
-1.2084142 0.13407093 1.2826859 234 88 12
-1.2090725 0.11893097 1.2826859 234 88 12
-1.2095661 0.10757598 1.2826859 234 88 12
-1.2115946 0.13420922 1.2806319 234 88 12
-1.2117592 0.13042423 1.2806319 234 88 12
-1.2177414 0.020860767 1.2853082 234 88 12
-1.2200346 -0.031884599 1.2853082 234 88 12
-1.3786683 0.025618732 1.9036695 234 88 12
-1.2205795 0.028533462 1.2832638 234 88 12
-1.2209071 0.020998409 1.2832638 234 88 12
-1.2213986 0.0096958308 1.2832638 234 88 12
-1.4453808 0.056237329 2.1629486 234 88 12
-1.4454232 0.055260606 2.1629486 234 88 12
-1.3761141 0.11521673 1.8976918 234 88 12
-1.2258748 -0.020306736 1.2812192 234 88 12
-1.2260386 -0.024074262 1.2812192 234 88 12
-1.2266937 -0.039144367 1.2812192 234 88 12
-1.221136 0.13462406 1.2744699 234 88 12
-1.2213005 0.13083906 1.2744699 234 88 12
-1.2217942 0.11948408 1.2744699 234 88 12
-1.2222879 0.10812911 1.2744699 234 88 12
-1.2265835 0.036343798 1.2791747 234 88 12
-1.2282215 -0.0013314633 1.2791747 234 88 12
-1.3785915 0.11532445 1.8960918 234 88 12
-1.2312235 0.002573705 1.2771302 234 88 12
-1.2313873 -0.0011938212 1.2771302 234 88 12
-1.2318786 -0.0124964 1.2771302 234 88 12
-1.3828218 0.018029565 1.8960918 234 88 12
-1.2327511 0.04038661 1.2750857 234 88 12
-1.2330788 0.032851558 1.2750857 234 88 12
-1.2335702 0.021548979 1.2750857 234 88 12
-1.2340616 0.0102464 1.2750857 234 88 12
-1.2345531 -0.0010561792 1.2750857 234 88 12
-1.2350445 -0.012358758 1.2750857 234 88 12
-1.2361912 -0.038731441 1.2750857 234 88 12
-1.2313355 0.11989892 1.2683079 234 88 12
-1.2318293 0.10854395 1.2683079 234 88 12
-1.3856379 0.034685168 1.8989229 234 88 12
-1.2338578 0.13517718 1.2662539 234 88 12
-1.2340223 0.13139218 1.2662539 234 88 12
-1.3868629 0.034738429 1.8981317 234 88 12
-1.3869896 0.031822801 1.8981317 234 88 12
-1.2370381 0.13531546 1.2642 234 88 12
-1.2372028 0.13153046 1.2642 234 88 12
-1.2376964 0.12017549 1.2642 234 88 12
-1.2381902 0.10882051 1.2642 234 88 12
-1.2420847 0.044567063 1.2689521 234 88 12
-1.2424123 0.037032008 1.2689521 234 88 12
-1.2425761 0.033264484 1.2689521 234 88 12
-1.2430675 0.021961905 1.2689521 234 88 12
-1.2435589 0.010659326 1.2689521 234 88 12
-1.2440504 -0.0006432528 1.2689521 234 88 12
-1.3877125 0.019719157 1.8928919 234 88 12
-1.471382 0.064384945 2.2619438 234 88 12
-1.4388729 0.064163618 2.1193926 234 88 12
-1.3727171 0.062246475 1.8290225 234 88 12
-1.2452505 0.044704705 1.2669076 234 88 12
-1.389186 0.037760574 1.8965496 234 88 12
-1.3894396 0.031929322 1.8965496 234 88 12
-1.2432345 0.13937701 1.2600919 234 88 12
-1.2435637 0.13180703 1.2600919 234 88 12
-1.2440573 0.12045205 1.2600919 234 88 12
-1.2445511 0.10909706 1.2600919 234 88 12
-1.4040067 0.067738771 1.9620891 234 88 12
-1.4040595 0.066523798 1.9620891 234 88 12
-1.4208393 0.064137921 2.0363419 234 88 12
-1.3934072 0.062673897 1.9139123 234 88 12
-1.2910236 0.05459553 1.4564677 234 88 12
-1.3871984 0.11717561 1.890492 234 88 12
-1.3889029 0.068547636 1.8886385 234 88 12
-1.4123502 0.061956633 1.993408 234 88 12
-1.2514182 0.048747513 1.2628186 234 88 12
-1.2517458 0.041212462 1.2628186 234 88 12
-1.2522372 0.029909883 1.2628186 234 88 12
-1.2527286 0.018607305 1.2628186 234 88 12
-1.2530563 0.011072252 1.2628186 234 88 12
-1.4441596 0.067122959 2.1358082 234 88 12
-1.43613 0.064940214 2.098464 234 88 12
-1.3555391 0.059972093 1.7270328 234 88 12
-1.3431885 0.057259202 1.6697206 234 88 12
-1.254584 0.048885155 1.260774 234 88 12
-1.2549115 0.041350104 1.260774 234 88 12
-1.255403 0.030047525 1.260774 234 88 12
-1.2558944 0.018744947 1.260774 234 88 12
-1.2534341 0.12465188 1.25393 234 88 12
-1.2535987 0.12086689 1.25393 234 88 12
-1.2540923 0.1095119 1.25393 234 88 12
-1.4285154 0.068495721 2.0604234 234 88 12
-1.409427 0.068925619 1.9713384 234 88 12
-1.3947978 0.067064427 1.9026197 234 88 12
-1.3948598 0.065640219 1.9026197 234 88 12
-1.3848449 0.06420701 1.8555437 234 88 12
-1.2559563 0.13993013 1.251876 234 88 12
-1.2562854 0.13236015 1.251876 234 88 12
-1.2567791 0.12100517 1.251876 234 88 12
-1.2572728 0.10965019 1.251876 234 88 12
-1.4146961 0.07086622 1.9914296 234 88 12
-1.4241428 0.068027899 2.0357034 234 88 12
-1.465937 0.064507112 2.2334459 234 88 12
-1.4062425 0.064270839 1.949924 234 88 12
-1.3906097 0.061223481 1.8750589 234 88 12
-1.4311227 0.039955635 2.0630529 234 88 12
-1.3707445 0.081216909 1.7763321 234 88 12
-1.4316758 0.069222182 2.0680032 234 88 12
-1.4347049 0.068141051 2.0824015 234 88 12
-1.4202142 0.066355564 2.0120625 234 88 12
-1.4435114 0.06430348 2.1241152 234 88 12
-1.3556141 0.062179402 1.6992837 234 88 12
-1.2637537 0.056833137 1.2546405 234 88 12
-1.2645726 0.037995502 1.2546405 234 88 12
-1.2649003 0.030460451 1.2546405 234 88 12
-1.2653917 0.019157873 1.2546405 234 88 12
-1.3962189 0.045369197 1.8918029 234 88 12
-1.4189227 0.073839851 2.0025403 234 88 12
-1.4270382 0.070730783 2.0417242 234 88 12
-1.4416646 0.06695085 2.1127334 234 88 12
-1.4457241 0.066076808 2.1324792 234 88 12
-1.4298775 0.065206654 2.0544863 234 88 12
-1.2667556 0.060738303 1.252596 234 88 12
-1.2670832 0.053203251 1.252596 234 88 12
-1.2675747 0.041900672 1.252596 234 88 12
-1.268066 0.030598093 1.252596 234 88 12
-1.397634 0.041049015 1.8910118 234 88 12
-1.3980143 0.032302137 1.8910118 234 88 12
-1.2654976 0.14034498 1.2457139 234 88 12
-1.2658267 0.13277499 1.2457139 234 88 12
-1.2663205 0.12142001 1.2457139 234 88 12
-1.2668141 0.11006503 1.2457139 234 88 12
-1.4508624 0.068821877 2.1559646 234 88 12
-1.4377797 0.069495186 2.0907707 234 88 12
-1.475266 0.064665228 2.2769427 234 88 12
-1.433531 0.065993004 2.0687909 234 88 12
-1.43574 0.06513714 2.0796375 234 88 12
-1.4730343 0.064300381 2.2657173 234 88 12
-1.3986055 0.046933528 1.8902206 234 88 12
-1.4503813 0.068989433 2.1511548 234 88 12
-1.4582553 0.066573471 2.1906314 234 88 12
-1.4637436 0.065145366 2.2182035 234 88 12
-1.4216026 0.066513807 2.0043745 234 88 12
-1.4564478 0.064750701 2.1810448 234 88 12
-1.3822454 0.059210908 1.8027751 234 88 12
-1.4489169 0.054968506 2.1406167 234 88 12
-1.2718585 0.14062154 1.241606 234 88 12
-1.2721876 0.13305154 1.241606 234 88 12
-1.2726814 0.12169657 1.241606 234 88 12
-1.273175 0.11034159 1.241606 234 88 12
-1.4271623 0.07301078 2.029475 234 88 12
-1.4443882 0.068836421 2.1176109 234 88 12
-1.4533317 0.066717342 2.1633811 234 88 12
-1.4533521 0.066247702 2.1633811 234 88 12
-1.2759253 0.068686284 1.2464625 234 88 12
-1.4332957 0.063586824 2.0590718 234 88 12
-1.3617831 0.058116276 1.6880536 234 88 12
-1.3032506 0.051744252 1.3839511 234 88 12
-1.2772357 0.038546074 1.2464625 234 88 12
-1.2775633 0.031011021 1.2464625 234 88 12
-1.4531966 0.079858907 2.163342 234 88 12
-1.2756972 0.12561984 1.239552 234 88 12
-1.2758617 0.12183485 1.239552 234 88 12
-1.2763555 0.11047987 1.239552 234 88 12
-1.4530687 0.066318519 2.1595697 234 88 12
-1.409271 0.060614102 1.9277369 234 88 12
-1.2895484 0.039864957 1.2928326 234 88 12
-1.4534112 0.051204365 2.1579134 234 88 12
-1.2782193 0.14089809 1.2374979 234 88 12
-1.2800297 0.099263169 1.2374979 234 88 12
-1.4537262 0.068213008 2.1610961 234 88 12
-1.2805233 0.087908186 1.2374979 234 88 12
-1.4688497 0.065276399 2.2414579 234 88 12
-1.2817655 0.080264144 1.2423735 234 88 12
-1.3880931 0.066445015 1.8089595 234 88 12
-1.2868434 -0.036529168 1.2423735 234 88 12
-1.4539642 0.080362044 2.162833 234 88 12
-1.4262441 0.073710658 2.0099697 234 88 12
-1.4350958 0.070442989 2.0575025 234 88 12
-1.390082 0.054345213 1.8080165 234 88 12
-1.2924734 0.11291929 1.2704425 234 88 12
-1.3909378 0.06830959 1.8070736 234 88 12
-1.3910888 0.064834364 1.8070736 234 88 12
-1.3915421 0.054408696 1.8070736 234 88 12
-1.406906 0.025385888 1.885474 234 88 12
-1.2879252 0.13752794 1.231336 234 88 12
-1.2882544 0.12995796 1.231336 234 88 12
-1.2887481 0.11860298 1.231336 234 88 12
-1.2892418 0.10724799 1.231336 234 88 12
-1.4448853 0.070616111 2.1040201 234 88 12
-1.2911057 0.13766623 1.229282 234 88 12
-1.2914349 0.13009624 1.229282 234 88 12
-1.2919285 0.11874126 1.229282 234 88 12
-1.4491433 0.067541644 2.1241779 234 88 12
-1.3949156 0.044109989 1.8051877 234 88 12
-1.3281856 0.1121042 1.4202092 234 88 12
-1.3167746 0.11243714 1.3531204 234 88 12
-1.3580061 0.097718455 1.5920755 234 88 12
-1.4349552 0.072825201 2.0386889 234 88 12
-1.4430561 0.066089861 2.0846531 234 88 12
-1.2977958 0.13037279 1.225174 234 88 12
-1.3307906 0.11221746 1.4185268 234 88 12
-1.3858924 0.0905191 1.7436783 234 88 12
-1.4193923 0.079819523 1.9420102 234 88 12
-1.4270976 0.074576594 1.9869015 234 88 12
-1.4316355 0.072687805 2.0136528 234 88 12
-1.4242222 0.07172624 1.9688947 234 88 12
-1.4540876 0.066094331 2.1467278 234 88 12
-1.3976091 0.049449787 1.8033018 234 88 12
-1.3978357 0.044236954 1.8033018 234 88 12
-1.453096 0.055150203 2.1379178 234 88 12
-1.411996 0.021225486 1.8823096 234 88 12
-1.3029984 0.14077087 1.2382379 234 88 12
-1.3008116 0.13429607 1.22312 234 88 12
-1.3407601 0.11568662 1.4628444 234 88 12
-1.3735782 0.10125332 1.6600081 234 88 12
-1.3736757 0.099012554 1.6600081 234 88 12
-1.3431965 0.10623796 1.4752511 234 88 12
-1.3693352 0.093528919 1.6319628 234 88 12
-1.4420727 0.073305905 2.072087 234 88 12
-1.4370145 0.073667429 2.0412021 234 88 12
-1.4490722 0.066524714 2.1131523 234 88 12
-1.3983136 0.066889383 1.8023589 234 88 12
-1.3983892 0.065151773 1.8023589 234 88 12
-1.3432286 0.11579394 1.4612502 234 88 12
-1.3455024 0.10923749 1.4736807 234 88 12
-1.4068472 0.083908178 1.8502368 234 88 12
-1.4481142 0.065993808 2.1033096 234 88 12
-1.3129662 0.13936879 1.2573121 234 88 12
-1.3071725 0.13457264 1.219012 234 88 12
-1.3274519 0.12298165 1.3451989 234 88 12
-1.3275973 0.11964097 1.3451989 234 88 12
-1.3230778 0.11790752 1.3158798 234 88 12
-1.4227482 0.082344897 1.9420086 234 88 12
-1.4233428 0.077298813 1.9444026 234 88 12
-1.4298892 0.071446948 1.9845513 234 88 12
-1.4650686 0.064770125 2.2071779 234 88 12
-1.4027448 0.032264117 1.800473 234 88 12
-1.310353 0.13471091 1.216958 234 88 12
-1.3528669 0.10856869 1.4865905 234 88 12
-1.442575 0.073779292 2.0613108 234 88 12
-1.4309639 0.075760752 1.9862089 234 88 12
-1.4308994 0.069307849 1.98396 234 88 12
-1.4677131 0.064693652 2.2225473 234 88 12
-1.3214028 0.13502137 1.2673421 234 88 12
-1.3215594 0.13142031 1.2673421 234 88 12
-1.3550044 0.11434715 1.4850507 234 88 12
-1.3552511 0.10867235 1.4850507 234 88 12
-1.4134901 0.086256124 1.866271 234 88 12
-1.4556031 0.071544498 2.1423686 234 88 12
-1.4282792 0.075530432 1.9616207 234 88 12
-1.4468808 0.066985756 2.082983 234 88 12
-1.3266723 0.12715253 1.2782861 234 88 12
-1.4410219 0.079000823 2.0420349 234 88 12
-1.4127226 0.088532425 1.852316 234 88 12
-1.4656277 0.068789169 2.2064228 234 88 12
-1.4477886 0.073501587 2.086446 234 88 12
-1.4251223 0.075265087 1.9327545 234 88 12
-1.4534346 0.065897442 2.1226099 234 88 12
-1.3317552 0.13326567 1.2927383 234 88 12
-1.3319073 0.12976702 1.2927383 234 88 12
-1.3379588 0.1237748 1.3330208 234 88 12
-1.3928837 0.098547339 1.7074509 234 88 12
-1.4420373 0.068470329 2.0402701 234 88 12
-1.4187326 0.063874885 1.8767718 234 88 12
-1.4073008 0.062057439 1.7967012 234 88 12
-1.407603 0.055106994 1.7967012 234 88 12
-1.4081318 0.042943712 1.7967012 234 88 12
-1.4085851 0.032518044 1.7967012 234 88 12
-1.4087362 0.029042821 1.7967012 234 88 12
-1.4090384 0.022092376 1.7967012 234 88 12
-1.3227457 0.14283402 1.208742 234 88 12
-1.3375691 0.12865339 1.3098221 234 88 12
-1.3409264 0.12053958 1.3311986 234 88 12
-1.4689496 0.06803412 2.2258203 234 88 12
-1.4066347 0.083293885 1.7871809 234 88 12
-1.4266392 0.072947778 1.9263088 234 88 12
-1.4317502 0.070948482 1.962054 234 88 12
-1.4367677 0.068177417 1.996896 234 88 12
-1.4087609 0.062120918 1.7957582 234 88 12
-1.4090631 0.055170473 1.7957582 234 88 12
-1.4095919 0.043007195 1.7957582 234 88 12
-1.3404534 0.1287788 1.3079594 234 88 12
-1.4042813 0.095374607 1.7620782 234 88 12
-1.4717146 0.066862918 2.2439945 234 88 12
-1.4018239 0.0888566 1.7421238 234 88 12
-1.4019073 0.086935565 1.7421238 234 88 12
-1.4139371 0.080182172 1.8275672 234 88 12
-1.4574201 0.064176388 2.1390746 234 88 12
-1.3289419 0.14689557 1.2046341 234 88 12
-1.3924128 0.10333207 1.6635765 234 88 12
-1.4164141 0.09091951 1.8384407 234 88 12
-1.4271551 0.074641742 1.9132202 234 88 12
-1.4322999 0.070055149 1.9500778 234 88 12
-1.4456251 0.064995974 2.047754 234 88 12
-1.4224709 0.062576845 1.8743985 234 88 12
-1.4582199 0.044300042 2.1349189 234 88 12
-1.3321224 0.14703386 1.2025801 234 88 12
-1.332287 0.14324886 1.2025801 234 88 12
-1.3563775 0.12406634 1.3801122 234 88 12
-1.3565153 0.12089705 1.3801122 234 88 12
-1.4484743 0.06417948 2.0632713 234 88 12
-1.4212661 0.096003585 1.8555593 234 88 12
-1.3504575 0.12847844 1.3127141 234 88 12
-1.4386147 0.083310939 1.9869493 234 88 12
-1.4714668 0.067342721 2.2384994 234 88 12
-1.4469883 0.066769421 2.0468254 234 88 12
-1.4442607 0.064195126 2.0246131 234 88 12
-1.4230568 0.12021162 1.8672925 234 88 12
-1.436716 0.066534802 1.9581206 234 88 12
-1.4441791 0.065182857 2.0175023 234 88 12
-1.4183277 0.010309986 1.7910435 234 88 12
-1.3990188 0.10619001 1.6535101 234 88 12
-1.4681189 0.069275774 2.2087812 234 88 12
-1.4320385 0.07732667 1.9148344 234 88 12
-1.4354291 0.07156498 1.9406668 234 88 12
-1.4362744 0.065457188 1.9454365 234 88 12
-1.4386818 0.063120708 1.9644055 234 88 12
-1.4198633 0.0086358562 1.7901006 234 88 12
-1.4133893 -1.4136373 1.8551662 234 88 12
-1.3707296 -1.3816807 1.7350466 234 88 12
-1.0753858 -1.1477166 0.85771555 234 88 12
-1.0852457 -1.1415031 0.85493964 234 88 12
-1.0825667 -1.144182 0.85493964 234 88 12
-1.071851 -1.1548977 0.85493964 234 88 12
-1.375841 -1.3788277 1.7333273 234 88 12
-1.0924267 -1.1379684 0.85216379 234 88 12
-1.0870688 -1.1433263 0.85216379 234 88 12
-1.0843899 -1.1460052 0.85216379 234 88 12
-1.0763532 -1.1540419 0.85216379 234 88 12
-1.0736742 -1.1567209 0.85216379 234 88 12
-1.3684342 -1.3866862 1.7329835 234 88 12
-1.1041098 -1.1335779 0.84661204 234 88 12
-1.0871805 -1.1541536 0.84383619 234 88 12
-1.0764648 -1.1648692 0.84383619 234 88 12
-1.1157929 -1.1291875 0.84106028 234 88 12
-1.1131139 -1.1318663 0.84106028 234 88 12
-1.1077561 -1.1372242 0.84106028 234 88 12
-1.1023983 -1.1425821 0.84106028 234 88 12
-1.0970404 -1.1479399 0.84106028 234 88 12
-1.0890037 -1.1559767 0.84106028 234 88 12
-1.0863247 -1.1586556 0.84106028 234 88 12
-1.078288 -1.1666924 0.84106028 234 88 12
-1.075609 -1.1693714 0.84106028 234 88 12
-1.124797 -1.127476 0.83550853 234 88 12
-1.0872921 -1.1649809 0.83550853 234 88 12
-1.0738975 -1.1783755 0.83550853 234 88 12
-1.131978 -1.1239413 0.83273268 234 88 12
-1.1239413 -1.131978 0.83273268 234 88 12
-1.1132256 -1.1426938 0.83273268 234 88 12
-1.099831 -1.1560884 0.83273268 234 88 12
-1.2877084 -1.3179662 1.4586319 234 88 12
-1.286665 -1.3190097 1.4586319 234 88 12
-1.2856216 -1.320053 1.4586319 234 88 12
-1.2751878 -1.3304868 1.4586319 234 88 12
-1.2741444 -1.3315302 1.4586319 234 88 12
-1.1364801 -1.1230855 0.82995683 234 88 12
-1.1311222 -1.1284434 0.82995683 234 88 12
-1.1257644 -1.1338012 0.82995683 234 88 12
-1.1177276 -1.141838 0.82995683 234 88 12
-1.1150488 -1.1445168 0.82995683 234 88 12
-1.1070119 -1.1525537 0.82995683 234 88 12
-1.104333 -1.1552325 0.82995683 234 88 12
-1.2758979 -1.3311969 1.4575508 234 88 12
-1.3831834 -1.3755506 1.7302325 234 88 12
-1.2880851 -1.3204298 1.4564697 234 88 12
-1.2661742 -1.3423407 1.4564697 234 88 12
-1.3669224 -1.3918116 1.7302325 234 88 12
0.063949212 -1.4778028 2.2912202 234 88 12
0.062925301 -1.4750303 2.2826631 234 88 12
0.062321864 -1.4752777 2.2825205 234 88 12
0.061544988 -1.4425458 2.1707208 234 88 12
0.066702589 -1.4423215 2.1707208 234 88 12
0.027123159 -1.1907588 1.2970638 234 88 12
0.117963 -1.1868093 1.2970638 234 88 12
-0.078718379 -1.1985471 1.2950099 234 88 12
0.047044195 -1.4439658 2.1702118 234 88 12
-0.059793413 -1.1977243 1.2950099 234 88 12
0.015906459 -1.194433 1.2950099 234 88 12
0.12945627 -1.189496 1.2950099 234 88 12
-0.089935079 -1.2022213 1.2929559 234 88 12
0.026980173 -1.4063609 2.032547 234 88 12
-0.048300151 -1.2004111 1.2929559 234 88 12
0.0084747514 -1.1979426 1.2929559 234 88 12
0.13716453 -1.1923474 1.2929559 234 88 12
-0.040591884 -1.2032623 1.2909019 234 88 12
-0.033021897 -1.2029332 1.2909019 234 88 12
-0.010311936 -1.2019458 1.2909019 234 88 12
0.0010430448 -1.2014521 1.2909019 234 88 12
0.012398025 -1.2009585 1.2909019 234 88 12
0.1448728 -1.1951987 1.2909019 234 88 12
-0.1010135 -1.2090758 1.2888479 234 88 12
0.022110151 -1.4082369 2.0314744 234 88 12
-0.021528635 -1.2056199 1.2888479 234 88 12
0.15258107 -1.19805 1.2888479 234 88 12
0.15636607 -1.1978854 1.2888479 234 88 12
0.043361731 -1.4457048 2.169194 234 88 12
0.021157814 -1.4091104 2.0309379 234 88 12
0.023134712 -1.4090245 2.0309379 234 88 12
0.03400765 -1.4085517 2.0309379 234 88 12
-0.032745335 -1.2092941 1.2867938 234 88 12
0.16028933 -1.2009013 1.2867938 234 88 12
0.16785932 -1.2005721 1.2867938 234 88 12
-0.11209192 -1.2159305 1.2847399 234 88 12
0.034043763 -1.4093823 2.0304015 234 88 12
-0.032607056 -1.2124746 1.2847399 234 88 12
-0.021252075 -1.2119808 1.2847399 234 88 12
-0.0098970952 -1.2114872 1.2847399 234 88 12
0.0014578856 -1.2109935 1.2847399 234 88 12
0.1679976 -1.2037526 1.2847399 234 88 12
0.17935258 -1.2032589 1.2847399 234 88 12
0.19084585 -1.2059457 1.2826859 234 88 12
-0.11938535 -1.2226205 1.2806319 234 88 12
0.018300803 -1.4117311 2.0293288 234 88 12
0.022254599 -1.4115591 2.0293288 234 88 12
0.034115985 -1.4110434 2.0293288 234 88 12
0.078109697 -1.4453782 2.1684308 234 88 12
0.17962915 -1.2096198 1.2806319 234 88 12
0.19098412 -1.2091261 1.2806319 234 88 12
-0.12303206 -1.2259655 1.2785779 234 88 12
-0.024622228 -1.2216867 1.2785779 234 88 12
-0.020837234 -1.2215222 1.2785779 234 88 12
-0.0094822543 -1.2210286 1.2785779 234 88 12
0.0018727264 -1.2205348 1.2785779 234 88 12
0.20247738 -1.2118129 1.2785779 234 88 12
-0.1265405 -1.2324909 1.2744699 234 88 12
-0.024345668 -1.2280476 1.2744699 234 88 12
-0.020560674 -1.2278831 1.2744699 234 88 12
-0.0092056934 -1.2273895 1.2744699 234 88 12
0.059040707 -1.4586505 2.2127702 234 88 12
0.081364796 -1.378827 1.8968918 234 88 12
0.09020979 -1.3784424 1.8968918 234 88 12
0.19518396 -1.2185029 1.2744699 234 88 12
0.20275395 -1.2181737 1.2744699 234 88 12
0.21410893 -1.2176801 1.2744699 234 88 12
0.017153066 -1.406891 1.9937756 234 88 12
0.032821622 -1.3525078 1.7754834 234 88 12
0.075521998 -1.3803221 1.8960918 234 88 12
0.078470327 -1.3801939 1.8960918 234 88 12
0.088789478 -1.3797452 1.8960918 234 88 12
0.19910723 -1.2215188 1.2724159 234 88 12
0.20289223 -1.2213542 1.2724159 234 88 12
0.2142472 -1.2208605 1.2724159 234 88 12
0.022754846 -1.4075838 1.993172 234 88 12
0.038175084 -1.4032074 1.9778838 234 88 12
0.044856343 -1.410086 2.0074589 234 88 12
0.030970763 -1.3542056 1.7744409 234 88 12
0.10063665 -1.3804712 1.8952919 234 88 12
0.013897644 -1.4089053 1.9925685 234 88 12
0.043835647 -1.4110223 2.0068841 234 88 12
0.03546552 -1.3655616 1.8149972 234 88 12
0.065310553 -1.3832482 1.8944919 234 88 12
-0.0046225269 -1.3885742 1.8981317 234 88 12
0.022836113 -1.4094529 1.9919649 234 88 12
0.035171598 -1.3964477 1.9389578 234 88 12
-0.13720407 -1.2488868 1.2642 234 88 12
0.04199449 -1.4102099 1.9941827 234 88 12
0.041919507 -1.3978506 1.9408195 234 88 12
0.059116103 -1.4166136 2.0250375 234 88 12
0.21480033 -1.2335823 1.2642 234 88 12
-0.0074316342 -1.3911508 1.8965496 234 88 12
0.010682859 -1.411854 1.9907578 234 88 12
0.037118208 -1.4001591 1.9445297 234 88 12
0.053678807 -1.387477 1.892092 234 88 12
0.056627136 -1.3873489 1.892092 234 88 12
0.06694629 -1.3869002 1.892092 234 88 12
0.01075433 -1.4203806 2.0239646 234 88 12
0.011742779 -1.4203376 2.0239646 234 88 12
-0.060648389 -1.2530028 1.2648631 234 88 12
0.039725967 -1.4050167 1.961163 234 88 12
0.04330733 -1.4087272 1.9783777 234 88 12
0.054246083 -1.4184897 2.0239646 234 88 12
0.078793466 -1.3876262 1.891292 234 88 12
0.089112625 -1.3871775 1.891292 234 88 12
0.10090594 -1.3866647 1.891292 234 88 12
0.1112251 -1.386216 1.891292 234 88 12
0.032536317 -1.4202657 2.0234282 234 88 12
0.033524767 -1.4202228 2.0234282 234 88 12
0.029909883 -1.2522372 1.2628186 234 88 12
0.06032262 -1.4493145 2.1602986 234 88 12
0.11127895 -1.3874547 1.890492 234 88 12
0.22278515 -1.2427945 1.2580379 234 88 12
-0.011645296 -1.395016 1.8941762 234 88 12
0.017510967 -1.3937483 1.8941762 234 88 12
0.044528261 -1.4105536 1.9768215 234 88 12
0.047621153 -1.4175998 2.0098279 234 88 12
0.050914589 -1.4263821 2.0508537 234 88 12
0.050364509 -1.4203227 2.022892 234 88 12
0.018744947 -1.2558944 1.260774 234 88 12
-0.056467935 -1.2623363 1.2587296 234 88 12
0.046823435 -1.3772435 1.816503 234 88 12
0.05551149 -1.3768659 1.816503 234 88 12
0.003950126 -1.2628812 1.256685 234 88 12
0.047589596 -1.4149312 1.9877399 234 88 12
0.043411694 -1.3788548 1.8155601 234 88 12
-0.014401143 -1.3988177 1.8918029 234 88 12
-0.052425124 -1.268504 1.2546405 234 88 12
-0.0034472842 -1.2663746 1.2546405 234 88 12
0.00032024199 -1.2662107 1.2546405 234 88 12
0.068135716 -1.2632623 1.2546405 234 88 12
-0.052287482 -1.2716697 1.252596 234 88 12
0.020639632 -1.3985214 1.8910118 234 88 12
0.033417497 -1.3970454 1.8864921 234 88 12
-0.010844694 -1.2698679 1.252596 234 88 12
0.072040886 -1.2662642 1.252596 234 88 12
0.023608517 -1.3996196 1.8902206 234 88 12
-0.018242104 -1.2733613 1.2505515 234 88 12
0.079713576 -1.2691023 1.2505515 234 88 12
0.0054874178 -1.4205071 1.9853257 234 88 12
0.012160794 -1.4202169 1.9853257 234 88 12
0.022170858 -1.4197817 1.9853257 234 88 12
0.023283087 -1.4197334 1.9853257 234 88 12
-0.048244674 -1.2778375 1.248507 234 88 12
-0.025639515 -1.2768546 1.248507 234 88 12
-0.02187199 -1.2766908 1.248507 234 88 12
0.055075556 -1.4524206 2.1584435 234 88 12
0.0911538 -1.2717767 1.248507 234 88 12
0.076275989 -1.397664 1.8848921 234 88 12
0.077750154 -1.3975999 1.8848921 234 88 12
0.089543477 -1.3970872 1.8848921 234 88 12
0.099862628 -1.3966385 1.8848921 234 88 12
0.11165595 -1.3961258 1.8848921 234 88 12
0.022211492 -1.4207163 1.9847221 234 88 12
-0.044339504 -1.2808394 1.2464625 234 88 12
0.040007163 -1.4199426 1.9847221 234 88 12
0.031565823 -1.3866839 1.8108454 234 88 12
0.033303432 -1.3866084 1.8108454 234 88 12
0.066814028 -1.4523214 2.1581783 234 88 12
0.10259402 -1.274451 1.2464625 234 88 12
0.080752343 -1.3987105 1.8840921 234 88 12
0.089597337 -1.3983259 1.8840921 234 88 12
0.099916488 -1.3978772 1.8840921 234 88 12
0.12202896 -1.3969158 1.8840921 234 88 12
0.0071616531 -1.4288582 2.0186007 234 88 12
0.053646162 -1.453305 2.1579134 234 88 12
0.045530193 -1.3875396 1.8099024 234 88 12
0.055955861 -1.3870864 1.8099024 234 88 12
0.11026672 -1.2772893 1.2444179 234 88 12
0.11403424 -1.2771254 1.2444179 234 88 12
0.11176366 -1.3986032 1.8832922 234 88 12
0.12208281 -1.3981545 1.8832922 234 88 12
-0.04406422 -1.287171 1.2423735 234 88 12
0.062942833 -1.4533119 2.1576483 234 88 12
0.066849709 -1.453142 2.1576483 234 88 12
0.12547445 -1.2797998 1.2423735 234 88 12
0.084095895 -1.4534072 2.1630874 234 88 12
0.14068221 -1.2823104 1.2403289 234 88 12
0.084581897 -1.4537808 2.162833 234 88 12
0.0072699883 -1.4313499 2.0169916 234 88 12
0.024869302 -1.3928264 1.8070736 234 88 12
0.033557359 -1.3924487 1.8070736 234 88 12
0.045720637 -1.3919199 1.8070736 234 88 12
0.056146305 -1.3914666 1.8070736 234 88 12
0.1483549 -1.2851485 1.2382843 234 88 12
-0.016784174 -1.4111941 1.8838918 234 88 12
0.021521041 -1.3958977 1.8051877 234 88 12
0.018172782 -1.3989689 1.8033018 234 88 12
0.023385616 -1.3987423 1.8033018 234 88 12
0.033811286 -1.398289 1.8033018 234 88 12
0.045974564 -1.3977602 1.8033018 234 88 12
0.17904568 -1.296501 1.2301064 234 88 12
0.056463715 -1.398767 1.8023589 234 88 12
0.0025977034 -1.4309325 1.9786863 234 88 12
0.1151967 -1.4096234 1.8760923 234 88 12
0.12256753 -1.4093028 1.8760923 234 88 12
0.011536173 -1.4314803 1.9780828 234 88 12
0.022658465 -1.4309967 1.9780828 234 88 12
0.073966794 -1.4009316 1.800473 234 88 12
0.068473227 -1.4539124 2.137018 234 88 12
0.20220141 -1.3081813 1.2219282 234 88 12
0.11972691 -1.4119085 1.8744923 234 88 12
0.12267524 -1.4117802 1.8744923 234 88 12
0.13446857 -1.4112675 1.8744923 234 88 12
0.047358759 -1.4570171 2.1447816 234 88 12
0.0098021338 -1.4066471 1.7985871 234 88 12
0.065750591 -1.4549612 2.1364183 234 88 12
0.075731806 -1.4422762 2.0548606 234 88 12
0.078247853 -1.4421668 2.0548606 234 88 12
0.0064538736 -1.4097183 1.7967012 234 88 12
0.011666708 -1.4094917 1.7967012 234 88 12
0.023829987 -1.4089628 1.7967012 234 88 12
0.030780433 -1.4086607 1.7967012 234 88 12
0.034255657 -1.4085095 1.7967012 234 88 12
0.034319136 -1.4099696 1.7957582 234 88 12
0.005762544 -1.4422333 2.0100183 234 88 12
0.053674094 -1.4573472 2.1352189 234 88 12
0.080199011 -1.4561939 2.1352189 234 88 12
0.0018105459 -1.4384576 1.9738578 234 88 12
0.01182061 -1.4380224 1.9738578 234 88 12
0.022942904 -1.4375387 1.9738578 234 88 12
0.089303918 -1.4452164 2.0525849 234 88 12
0.13042307 -1.4201307 1.8688924 234 88 12
0.1333714 -1.4200026 1.8688924 234 88 12
-0.00017916402 -1.4173208 1.7919865 234 88 12
0.069325291 -1.414299 1.7919865 234 88 12
0.07343024 -1.4473187 2.0516746 234 88 12
0.078462332 -1.4470999 2.0516746 234 88 12
0.089365199 -1.4466258 2.0516746 234 88 12
0.065913551 -1.4159101 1.7910435 234 88 12
0.089110084 -1.4606891 2.158253 234 88 12
0.0049546543 -1.4464291 2.0073364 234 88 12
0.00086085248 -1.4422443 1.9714435 234 88 12
-0.0035274236 -1.4203922 1.7901006 234 88 12
0.0016854105 -1.4201655 1.7901006 234 88 12
1.1593976 0.10770095 2.1423366 234 88 12
1.1589918 0.11101606 2.1423366 234 88 12
1.1576393 0.12206639 2.1423366 234 88 12
1.1562867 0.13311672 2.1423366 234 88 12
1.1559136 0.14428693 2.1418209 234 88 12
1.1726292 0.11312757 2.1718247 234 88 12
1.1565199 0.15557702 2.14079 234 88 12
1.1639915 0.10265531 2.1402745 234 88 12
1.1724179 0.1220726 2.1713665 234 88 12
1.1619626 0.11923081 2.1402745 234 88 12
1.161557 0.12254591 2.1402745 234 88 12
1.1602044 0.13359624 2.1402745 234 88 12
1.1588517 0.14464657 2.1402745 234 88 12
1.1574992 0.1556969 2.1402745 234 88 12
1.1649709 0.10277519 2.1397588 234 88 12
1.1718458 0.13396378 2.1709085 234 88 12
1.1686003 0.16047923 2.1709085 234 88 12
1.1571261 0.16686712 2.1397588 234 88 12
1.1756011 0.11050103 2.1704502 234 88 12
1.2103336 0.13114774 2.2803333 234 88 12
1.2100649 0.13334385 2.2803333 234 88 12
1.171394 0.1448729 2.1704502 234 88 12
1.1764715 0.11060756 2.169992 234 88 12
1.1763513 0.11158962 2.169992 234 88 12
1.2510742 0.15399161 2.4085925 234 88 12
1.1696199 0.16658463 2.169992 234 88 12
1.1758995 0.12249875 2.169534 234 88 12
1.176318 0.13351442 2.1686175 234 88 12
1.1758662 0.14442354 2.1681595 234 88 12
1.1252083 0.087786011 1.9759377 234 88 12
1.1249969 0.089512385 1.9759377 234 88 12
1.1637441 0.17777145 2.1356347 234 88 12
1.1252592 0.10005789 1.9751323 234 88 12
1.1284797 0.086434215 1.9743268 234 88 12
1.1280571 0.089886956 1.9743268 234 88 12
1.1267893 0.10024517 1.9743268 234 88 12
1.1655676 0.17911625 2.1346035 234 88 12
1.1435492 0.15099518 2.0453596 234 88 12
1.1763718 0.17638195 2.1658685 234 88 12
1.1765887 0.10531877 2.1335726 234 88 12
1.1315401 0.086808786 1.9727161 234 88 12
1.1326475 0.090448812 1.9719107 234 88 12
1.1301118 0.11116524 1.9719107 234 88 12
1.1779925 0.17757708 2.1649523 234 88 12
1.1869165 0.11188602 2.164494 234 88 12
1.1329098 0.10099431 1.9711053 234 88 12
1.131642 0.11135253 1.9711053 234 88 12
1.1497478 0.1429334 2.0426567 234 88 12
1.1349645 0.1222726 1.9686891 234 88 12
1.0173398 0.098575071 1.5292872 234 88 12
1.0169227 0.10198355 1.5292872 234 88 12
0.99590677 0.10122617 1.4523311 234 88 12
1.1334853 0.13435718 1.9686891 234 88 12
1.1842388 0.155416 2.1631196 234 88 12
1.254058 0.15370449 2.4168975 234 88 12
1.1543082 0.13761126 2.0406296 234 88 12
1.1534218 0.14485316 2.0406296 234 88 12
1.1852294 0.15454048 2.1626616 234 88 12
1.1851093 0.15552254 2.1626616 234 88 12
0.98371762 0.19483475 1.4355763 234 88 12
1.1819839 0.18105593 2.1626616 234 88 12
1.1910281 0.11438282 2.1622033 234 88 12
1.1547055 0.14501029 2.0399539 234 88 12
1.1344324 0.15199544 1.9670782 234 88 12
1.2414616 0.15360458 2.3694968 234 88 12
0.98751092 0.1914822 1.433822 234 88 12
0.98613006 0.20276372 1.433822 234 88 12
1.1840181 0.10959291 2.1294482 234 88 12
1.143147 0.093486175 1.9662728 234 88 12
0.99130422 0.18812965 1.4320676 234 88 12
0.98946309 0.20317167 1.4320676 234 88 12
1.1746855 0.1858402 2.1294482 234 88 12
1.1438318 0.10057893 1.9654675 234 88 12
1.1425641 0.11093715 1.9654675 234 88 12
1.1588684 0.13228911 2.0386024 234 88 12
1.2348522 0.15338229 2.3423307 234 88 12
1.2251885 0.15415195 2.3053358 234 88 12
1.1874801 0.15780626 2.1612871 234 88 12
0.99463719 0.18853761 1.4303132 234 88 12
0.99417692 0.19229811 1.4303132 234 88 12
0.99325633 0.19981913 1.4303132 234 88 12
0.99187553 0.21110064 1.4303132 234 88 12
1.2204853 0.13294755 2.2749546 234 88 12
1.2204181 0.13349658 2.2749546 234 88 12
1.1426151 0.12320902 1.9646621 234 88 12
1.1610065 0.15275332 2.0510345 234 88 12
1.1649188 0.15811647 2.0689654 234 88 12
1.1689655 0.15917335 2.085355 234 88 12
0.99843049 0.18518506 1.4285588 234 88 12
1.1868211 0.11105758 2.1279016 234 88 12
1.1686007 0.15164582 2.0750906 234 88 12
1.1699345 0.16057938 2.0847633 234 88 12
1.0013032 0.18935353 1.4268044 234 88 12
0.99992239 0.20063505 1.4268044 234 88 12
0.99854153 0.21191655 1.4268044 234 88 12
1.1486336 0.099414423 1.9630512 234 88 12
1.1484222 0.10114079 1.9630512 234 88 12
1.1471545 0.111499 1.9630512 234 88 12
1.1567839 0.15898232 2.0255425 234 88 12
1.1870862 0.18267721 2.1599126 234 88 12
1.1784679 0.18742475 2.1273861 234 88 12
1.1886446 0.11240237 2.1268706 234 88 12
1.1647124 0.1271241 2.0358996 234 88 12
1.1442471 0.14794004 1.9622458 234 88 12
1.1774372 0.15084928 2.1001444 234 88 12
1.1709141 0.15192899 2.073873 234 88 12
1.1651098 0.13452314 2.035224 234 88 12
1.184104 0.15117154 2.1230578 234 88 12
1.1692168 0.15471396 2.0626965 234 88 12
1.1824703 0.16016015 2.1208303 234 88 12
1.0126832 0.17929588 1.4215412 234 88 12
1.0113022 0.1905774 1.4215412 234 88 12
1.2227839 0.13434342 2.2736738 234 88 12
1.1651525 0.14481893 2.034548 234 88 12
1.1638696 0.15927215 2.0366108 234 88 12
1.0160161 0.17970385 1.4197869 234 88 12
1.0146352 0.19098535 1.4197869 234 88 12
1.0104927 0.2248299 1.4197869 234 88 12
1.1543314 0.1036163 1.9598297 234 88 12
1.1693349 0.16051547 2.0545774 234 88 12
1.0198094 0.17635129 1.4180325 234 88 12
1.1548049 0.11243543 1.9590242 234 88 12
1.0338329 0.098046169 1.4209086 234 88 12
1.0333748 0.10178932 1.4209086 234 88 12
1.0320003 0.11301877 1.4209086 234 88 12
1.0315422 0.11676192 1.4209086 234 88 12
1.195811 0.14885132 2.158355 234 88 12
1.1988904 0.15003401 2.1724913 234 88 12
1.1847888 0.15262298 2.1120529 234 88 12
1.1768339 0.15761583 2.0798545 234 88 12
1.0231425 0.17675926 1.4162781 234 88 12
1.0226821 0.18051976 1.4162781 234 88 12
1.0376087 0.094709091 1.4191623 234 88 12
1.0366924 0.1021954 1.4191623 234 88 12
1.0353179 0.11342485 1.4191623 234 88 12
1.1324002 0.13755205 1.8651196 234 88 12
1.2157423 0.15180013 2.2444339 234 88 12
1.1824361 0.15631777 2.0984197 234 88 12
1.0920981 0.16240552 1.6990149 234 88 12
1.1762658 0.15913628 2.0724502 234 88 12
1.1733012 0.12082496 2.0318453 234 88 12
1.129876 0.137205 1.8440534 234 88 12
1.1608588 0.14290698 1.9876872 234 88 12
1.1942552 0.14775591 2.1417913 234 88 12
1.208335 0.14991625 2.2068253 234 88 12
1.2204337 0.15146472 2.2625375 234 88 12
1.204906 0.1513616 2.192081 234 88 12
1.1792781 0.15407339 2.0773938 234 88 12
1.1525825 0.15596923 1.9574134 234 88 12
1.1897237 0.15728818 2.1265361 234 88 12
1.0451603 0.088034943 1.4156697 234 88 12
1.0447022 0.091778092 1.4156697 234 88 12
1.0433277 0.10300755 1.4156697 234 88 12
1.0405787 0.12546645 1.4156697 234 88 12
1.1620911 0.1446953 1.9869347 234 88 12
1.2090394 0.15000248 2.2064543 234 88 12
1.2239037 0.1517079 2.27597 234 88 12
1.1910635 0.15412301 2.1258757 234 88 12
1.187798 0.1552981 2.111479 234 88 12
1.034062 0.17046212 1.4110149 234 88 12
1.1762233 0.11824245 2.030494 234 88 12
1.0452708 0.11464307 1.4139234 234 88 12
1.0443546 0.12212937 1.4139234 234 88 12
1.2120037 0.14950036 2.2163496 234 88 12
1.2317401 0.152207 2.3105185 234 88 12
1.2163393 0.1519651 2.2381105 234 88 12
1.1984737 0.15417498 2.1555438 234 88 12
1.177507 0.11839958 2.0298181 234 88 12
1.1769751 0.12274472 2.0298181 234 88 12
1.2409668 0.15252335 2.352833 234 88 12
1.2129493 0.15187505 2.2186496 234 88 12
1.1901324 0.15439647 2.1111555 234 88 12
1.1965989 0.15534367 2.142592 234 88 12
1.0411884 0.16751753 1.4075061 234 88 12
1.1648309 0.10665366 1.9541918 234 88 12
1.0564877 0.078023717 1.4104308 234 88 12
1.0551132 0.089253165 1.4104308 234 88 12
1.0496153 0.13417098 1.4104308 234 88 12
1.2480987 0.15307711 2.3866341 234 88 12
1.2002654 0.15536571 2.155448 234 88 12
1.0449816 0.16416498 1.4057518 234 88 12
1.0598053 0.078429788 1.4086845 234 88 12
1.0584308 0.089659244 1.4086845 234 88 12
1.0570563 0.10088869 1.4086845 234 88 12
1.0556818 0.11211815 1.4086845 234 88 12
1.0543073 0.1233476 1.4086845 234 88 12
1.0533911 0.13083389 1.4086845 234 88 12
1.0529329 0.13457705 1.4086845 234 88 12
1.2289748 0.15307726 2.2913613 234 88 12
1.2066756 0.1544008 2.1817751 234 88 12
1.0635811 0.075092718 1.4069382 234 88 12
1.0562506 0.13498312 1.4069382 234 88 12
1.1696326 0.10548915 1.9517756 234 88 12
1.0673568 0.07175564 1.4051919 234 88 12
1.0664406 0.079241939 1.4051919 234 88 12
1.0650661 0.090471394 1.4051919 234 88 12
1.2388798 0.15302457 2.3373752 234 88 12
1.0572773 0.15410495 1.4051919 234 88 12
1.0559012 0.15786785 1.4004886 234 88 12
1.199272 0.18416874 2.1534984 234 88 12
1.0670092 0.10210692 1.4034456 234 88 12
1.0656347 0.11333637 1.4034456 234 88 12
1.230085 0.15836298 2.2931843 234 88 12
1.2318664 0.14723338 2.2929671 234 88 12
1.0675778 0.1249719 1.4016993 234 88 12
1.0662035 0.13620135 1.4016993 234 88 12
1.1875567 0.11080918 2.0250881 234 88 12
1.1873795 0.11225756 2.0250881 234 88 12
1.0782261 0.065487564 1.399953 234 88 12
1.0777678 0.069230713 1.399953 234 88 12
1.2317578 0.14362544 2.2874756 234 88 12
1.176387 0.10105918 1.948554 234 88 12
1.2316657 0.15571956 2.2925324 234 88 12
1.0857776 0.058813412 1.3964604 234 88 12
1.0890952 0.059219487 1.3947141 234 88 12
1.2320297 0.13547507 2.2688072 234 88 12
1.0966468 0.052545339 1.3912216 234 88 12
1.1004226 0.049208261 1.3894753 234 88 12
1.1987131 0.1048243 2.0196824 234 88 12
1.1079742 0.042534113 1.3859828 234 88 12
1.201635 0.10224179 2.0183311 234 88 12
1.2376903 0.13794948 2.2847593 234 88 12
1.224071 0.13756217 2.1879942 234 88 12
1.2365619 0.14716828 2.2847593 234 88 12
1.2058408 0.099816412 2.0163038 234 88 12
1.2239937 0.14431861 2.1876054 234 88 12
1.2262621 0.13191018 2.1872168 234 88 12
1.2100465 0.097391032 2.0142767 234 88 12
1.209692 0.1002878 2.0142767 234 88 12
1.2058228 0.13792911 2.0090466 234 88 12
1.2049265 0.14525226 2.0090466 234 88 12
1.2078381 0.13222949 2.0083632 234 88 12
1.2049698 0.15566353 2.0083632 234 88 12
1.2263604 0.15560292 2.1856618 234 88 12
1.2381326 0.1557325 2.283401 234 88 12
1.209674 0.12799451 2.0076799 234 88 12
1.2318151 0.12328673 2.1848843 234 88 12
1.2312032 0.12828626 2.1848843 234 88 12
1.2305913 0.13328581 2.1848843 234 88 12
1.2113307 0.12522414 2.0069966 234 88 12
1.210255 0.13401191 2.0069966 234 88 12
1.2090001 0.1442643 2.0069966 234 88 12
1.207566 0.15598132 2.0069966 234 88 12
1.2313298 0.1333762 2.1844954 234 88 12
1.2102983 0.14442319 2.0063133 234 88 12
1.2425252 0.13410905 2.2824955 234 88 12
1.2334962 0.12180101 2.1841068 234 88 12
1.214644 0.11968341 2.00563 234 88 12
1.2101623 0.1562991 2.00563 234 88 12
1.2294412 0.16105443 2.183718 234 88 12
1.22138 0.089957759 2.0088711 234 88 12
1.2115036 0.16686927 2.0042634 234 88 12
1.2241248 0.088823639 2.0075197 234 88 12
1.2444235 0.132864 2.2815902 234 88 12
1.2207328 0.11299584 2.0028968 234 88 12
1.2255858 0.087532379 2.0068438 234 88 12
1.2207761 0.12340712 2.0022135 234 88 12
1.2236876 0.11038436 2.0015302 234 88 12
1.2208194 0.1338184 2.0015302 234 88 12
1.2425855 0.15894741 2.2866645 234 88 12
1.2208625 0.14422968 2.0008471 234 88 12
1.2207265 0.15610558 2.0001638 234 88 12
1.2207698 0.16651687 1.9994804 234 88 12
1.2325363 0.083972879 2.0034654 234 88 12
1.2426399 0.1144628 2.1798306 234 88 12
1.2424605 0.1220525 2.1794419 234 88 12
1.2321935 0.1054792 1.9974306 234 88 12
1.2314764 0.1113377 1.9974306 234 88 12
1.2313404 0.12321361 1.9967473 234 88 12
1.234969 0.10433234 1.9960639 234 88 12
1.2340727 0.11165548 1.9960639 234 88 12
1.2326385 0.1233725 1.9960639 234 88 12
1.2313836 0.1336249 1.9960639 234 88 12
1.2312044 0.13508952 1.9960639 234 88 12
1.2299495 0.1453419 1.9960639 234 88 12
1.2286946 0.15559429 1.9960639 234 88 12
1.2272605 0.16731131 1.9960639 234 88 12
1.2459456 0.15888585 2.2849259 234 88 12
1.2312475 0.14550079 1.9953806 234 88 12
1.1878551 0.19244623 1.3453113 234 88 12
1.2312908 0.15591207 1.9946973 234 88 12
1.1948832 0.18954219 1.3418508 234 88 12
1.2084908 0.12068272 1.3782258 234 88 12
1.2326322 0.16648224 1.9933307 234 88 12
1.244799 0.079593495 1.997384 234 88 12
1.2120998 0.11749304 1.3765566 234 88 12
1.2429371 0.10382105 1.9919642 234 88 12
1.2138057 0.11239208 1.32406 234 88 12
1.2433388 0.11130308 1.9912809 234 88 12
1.2432028 0.12317899 1.9905976 234 88 12
1.2501112 0.078773625 1.9946811 234 88 12
1.2432461 0.13359027 1.9899143 234 88 12
1.2431099 0.14546618 1.989231 234 88 12
0.12999012 1.2099814 2.2805896 234 88 12
0.083209567 1.1164502 1.9807701 234 88 12
0.076304093 1.1172954 1.9807701 234 88 12
0.13346297 1.2110381 2.2798212 234 88 12
0.088763244 1.1188765 1.9791594 234 88 12
0.076678663 1.1203556 1.9791594 234 88 12
0.08895053 1.1204066 1.9783539 234 88 12
0.087224163 1.1206179 1.9783539 234 88 12
0.066507727 1.1231536 1.9783539 234 88 12
0.10680956 1.1704416 2.1366656 234 88 12
0.099314086 1.1733472 2.1356347 234 88 12
0.11158933 1.1728388 2.1351192 234 88 12
0.17783771 1.1869087 2.20471 234 88 12
0.17700446 1.1870108 2.20471 234 88 12
0.10024517 1.1267893 1.9743268 234 88 12
0.098518796 1.1270007 1.9743268 234 88 12
0.062265046 1.131438 1.9743268 234 88 12
0.10298882 1.1758797 2.134088 234 88 12
0.099673726 1.1762855 2.134088 234 88 12
0.11194897 1.1757771 2.1335726 234 88 12
0.16561007 1.1906543 2.2035437 234 88 12
0.099080652 1.131591 1.9719107 234 88 12
0.10617342 1.1322758 1.9711053 234 88 12
0.15977672 1.2188687 2.2931345 234 88 12
0.1140632 1.188417 2.1635778 234 88 12
0.11013499 1.1888977 2.1635778 234 88 12
0.11191438 1.1362323 1.9686891 234 88 12
0.13508415 1.2223276 2.2929082 234 88 12
0.1651305 1.1509398 2.0406296 234 88 12
0.15648559 1.2201445 2.2926817 234 88 12
0.15502998 1.2203227 2.2926817 234 88 12
0.15439646 1.1957748 2.2016001 234 88 12
0.15357234 1.2159853 2.275979 234 88 12
0.11624039 1.1899173 2.1626616 234 88 12
0.11034807 1.1906385 2.1626616 234 88 12
0.18865035 1.1923317 2.2012112 234 88 12
0.16673601 1.1520462 2.0399539 234 88 12
0.16399637 1.1536845 2.039278 234 88 12
0.15385771 1.1549255 2.039278 234 88 12
0.1195382 1.1828009 2.1294482 234 88 12
0.097437538 1.185506 2.1294482 234 88 12
0.12239691 1.220789 2.2754667 234 88 12
0.16877349 1.21995 2.2920027 234 88 12
0.1668327 1.2201875 2.2920027 234 88 12
0.1480016 1.1988063 2.2004337 234 88 12
0.11093715 1.1425641 1.9654675 234 88 12
0.10921078 1.1427754 1.9654675 234 88 12
0.094242319 1.1868911 2.1289327 234 88 12
0.13874634 1.1407132 1.9646621 234 88 12
0.14419042 1.1600176 2.037251 234 88 12
0.13375452 1.1428773 1.9638567 234 88 12
0.13048907 1.14483 1.9630512 234 88 12
0.12185722 1.1458865 1.9630512 234 88 12
0.10977264 1.1473657 1.9630512 234 88 12
0.19859397 1.1549175 2.0315952 234 88 12
0.18834159 1.1561724 2.0315952 234 88 12
0.12234767 1.1874274 2.1268706 234 88 12
0.12124263 1.1875627 2.1268706 234 88 12
0.20168212 1.1558571 2.0309119 234 88 12
0.13741989 1.1647552 2.035224 234 88 12
0.13307476 1.1652871 2.035224 234 88 12
0.10825421 1.1979624 2.1589963 234 88 12
0.19020677 1.1981379 2.1981013 234 88 12
0.18854026 1.198342 2.1981013 234 88 12
0.21701483 1.0125366 1.4244012 234 88 12
0.14771569 1.164798 2.034548 234 88 12
0.03734361 1.0345283 1.4244012 234 88 12
0.1221095 1.19715 2.1585381 234 88 12
0.11523512 1.1979915 2.1585381 234 88 12
0.20492916 1.1580948 2.0295453 234 88 12
0.19907065 1.1588119 2.0295453 234 88 12
0.18735363 1.160246 2.0295453 234 88 12
0.17710124 1.1615009 2.0295453 234 88 12
0.20993461 1.0167706 1.4226549 234 88 12
0.1565631 1.1650181 2.0338724 234 88 12
0.12221604 1.1980205 2.1580799 234 88 12
0.20285438 1.0210046 1.4209086 234 88 12
0.12195908 1.1705565 2.0331967 234 88 12
0.19951731 1.0247803 1.4191623 234 88 12
0.16846441 1.1661673 2.032521 234 88 12
0.042304985 1.0440229 1.4191623 234 88 12
0.18343641 1.1646782 2.0274954 234 88 12
0.17611328 1.1655746 2.0274954 234 88 12
0.18495078 1.0299306 1.417416 234 88 12
0.04645421 1.0468824 1.417416 234 88 12
0.19149201 1.2017286 2.1961577 234 88 12
0.1938477 1.1647215 2.0268121 234 88 12
0.19284315 1.0323318 1.4156697 234 88 12
0.18535686 1.0332482 1.4156697 234 88 12
0.1741274 1.0346227 1.4156697 234 88 12
0.16289796 1.0359972 1.4156697 234 88 12
0.1516685 1.0373716 1.4156697 234 88 12
0.14418221 1.0382879 1.4156697 234 88 12
0.13295275 1.0396624 1.4156697 234 88 12
0.12172329 1.0410368 1.4156697 234 88 12
0.092245892 1.1980704 2.1232619 234 88 12
0.20425898 1.1647648 2.0261288 234 88 12
0.13335882 1.0429801 1.4139234 234 88 12
0.12961568 1.0434382 1.4139234 234 88 12
0.11838622 1.0448127 1.4139234 234 88 12
0.11089992 1.0457289 1.4139234 234 88 12
0.09967047 1.0471034 1.4139234 234 88 12
0.12113921 1.1758687 2.030494 234 88 12
0.15996696 1.0430906 1.4121771 234 88 12
0.15248065 1.0440068 1.4121771 234 88 12
0.085103944 1.0522537 1.4121771 234 88 12
0.12564148 1.1766206 2.0298181 234 88 12
0.12129634 1.1771524 2.0298181 234 88 12
0.055158738 1.0559189 1.4121771 234 88 12
0.18283193 1.0436592 1.4104308 234 88 12
0.17534563 1.0445756 1.4104308 234 88 12
0.096739471 1.0541968 1.4104308 234 88 12
0.085510015 1.0555713 1.4104308 234 88 12
0.074280567 1.0569458 1.4104308 234 88 12
0.059307963 1.0587784 1.4104308 234 88 12
0.21205878 1.1677628 2.0240788 234 88 12
0.16519071 1.1734993 2.0240788 234 88 12
0.17949486 1.047435 1.4086845 234 88 12
0.1757517 1.0478932 1.4086845 234 88 12
0.16452226 1.0492676 1.4086845 234 88 12
0.1532928 1.0506421 1.4086845 234 88 12
0.14206335 1.0520166 1.4086845 234 88 12
0.13083389 1.0533911 1.4086845 234 88 12
0.12709075 1.0538492 1.4086845 234 88 12
0.11960445 1.0547656 1.4086845 234 88 12
0.108375 1.0561401 1.4086845 234 88 12
0.097145543 1.0575145 1.4086845 234 88 12
0.085916094 1.058889 1.4086845 234 88 12
0.074686639 1.0602634 1.4086845 234 88 12
0.063457191 1.0616379 1.4086845 234 88 12
0.052227736 1.0630124 1.4086845 234 88 12
0.15369888 1.0539597 1.4069382 234 88 12
0.14246942 1.0553342 1.4069382 234 88 12
0.063863263 1.0649556 1.4069382 234 88 12
0.052633811 1.0663301 1.4069382 234 88 12
0.16697311 1.1759163 2.0227125 234 88 12
0.16550849 1.1760956 2.0227125 234 88 12
0.1728207 1.0549866 1.4051919 234 88 12
0.1653344 1.0559028 1.4051919 234 88 12
0.090471394 1.0650661 1.4051919 234 88 12
0.086728245 1.0655242 1.4051919 234 88 12
0.07549879 1.0668987 1.4051919 234 88 12
0.10364034 1.2091286 2.1534984 234 88 12
0.17884903 1.1757803 2.0220292 234 88 12
0.11707952 1.0651766 1.4034456 234 88 12
0.10959322 1.0660928 1.4034456 234 88 12
0.1359935 1.2107854 2.1778188 234 88 12
0.1892603 1.1758236 2.0213459 234 88 12
0.14368765 1.0652871 1.4016993 234 88 12
0.1324582 1.0666616 1.4016993 234 88 12
0.132652 1.2102724 2.1682067 234 88 12
0.053852037 1.0762829 1.4016993 234 88 12
0.11858422 1.2090664 2.1525819 234 88 12
0.19967158 1.1758668 2.0206625 234 88 12
0.16280948 1.066314 1.399953 234 88 12
0.15158002 1.0676885 1.399953 234 88 12
0.13024986 1.0789431 1.4469912 234 88 12
0.13538568 1.2078934 2.1521239 234 88 12
0.11159046 1.1523503 1.8340242 234 88 12
0.076717019 1.0768516 1.399953 234 88 12
0.061744414 1.0786842 1.399953 234 88 12
0.12556514 1.2090955 2.1521239 234 88 12
0.11871243 1.0772409 1.4102086 234 88 12
0.11097175 1.0767157 1.4020344 234 88 12
0.10706829 1.076504 1.3982067 234 88 12
0.095838845 1.0778785 1.3982067 234 88 12
0.12999548 1.1871104 2.0277381 234 88 12
0.11397342 1.1539925 1.8330213 234 88 12
0.1335281 1.2090042 2.1516657 234 88 12
0.12665373 1.2098457 2.1516657 234 88 12
0.12174346 1.2104466 2.1516657 234 88 12
0.10995881 1.211889 2.1516657 234 88 12
0.093444683 1.2078645 2.1181066 234 88 12
0.1916531 1.2099544 2.1918814 234 88 12
0.21317101 1.1768496 2.0192959 234 88 12
0.15601228 1.0826136 1.4459238 234 88 12
0.15239218 1.0743237 1.3964604 234 88 12
0.15062755 1.1468785 1.8061827 234 88 12
0.14116272 1.0756981 1.3964604 234 88 12
0.13741958 1.0761563 1.3964604 234 88 12
0.12993327 1.0770726 1.3964604 234 88 12
0.12665392 1.080532 1.4137803 234 88 12
0.10805893 1.08204 1.4094304 234 88 12
0.10679569 1.1028478 1.5264093 234 88 12
0.092501767 1.0816542 1.3964604 234 88 12
0.095106311 1.0990231 1.496642 234 88 12
0.085015468 1.0825706 1.3964604 234 88 12
0.1346167 1.2097545 2.1512077 234 88 12
0.12080767 1.1809795 1.9786555 234 88 12
0.10728306 1.160368 1.8525369 234 88 12
0.075610913 1.1096272 1.543188 234 88 12
0.059648927 1.0872679 1.4054805 234 88 12
0.05141902 1.086845 1.39738 234 88 12
0.047679231 1.0873028 1.39738 234 88 12
0.091354497 1.2091144 2.1175911 234 88 12
0.21479453 1.1779685 2.0186126 234 88 12
0.21040064 1.1785063 2.0186126 234 88 12
0.19868363 1.1799405 2.0186126 234 88 12
0.18843123 1.1811954 2.0186126 234 88 12
0.17671423 1.1826295 2.0186126 234 88 12
0.16499721 1.1840637 2.0186126 234 88 12
0.15474482 1.1853186 2.0186126 234 88 12
0.1491439 1.0815604 1.4147856 234 88 12
0.14180422 1.0824587 1.4147856 234 88 12
0.13714884 1.1074237 1.5558226 234 88 12
0.12296823 1.0819567 1.3985549 234 88 12
0.13949813 1.2126765 2.1659901 234 88 12
0.13981009 1.2206774 2.2124667 234 88 12
0.12259599 1.182212 1.9779028 234 88 12
0.13261537 1.2082447 2.1354976 234 88 12
0.10750813 1.1622068 1.8515689 234 88 12
0.11019363 1.171591 1.9077229 234 88 12
0.084390588 1.1333004 1.6680923 234 88 12
0.11795688 1.194803 2.0474133 234 88 12
0.072416201 1.1284871 1.6317911 234 88 12
0.040452845 1.0969951 1.4271061 234 88 12
0.15197445 1.1869752 2.0179293 234 88 12
0.14767188 1.1248027 1.6477948 234 88 12
0.14470628 1.1553165 1.8257856 234 88 12
0.14254113 1.1555815 1.8257856 234 88 12
0.12840959 1.1135263 1.5673088 234 88 12
0.11231763 1.0871685 1.4000814 234 88 12
0.10860042 1.0876234 1.4000814 234 88 12
0.1100033 1.1056073 1.5072597 234 88 12
0.11728188 1.1396546 1.7135124 234 88 12
0.14289586 1.2252806 2.2374992 234 88 12
0.13272797 1.2091645 2.1350133 234 88 12
0.10914773 1.1840805 1.9698955 234 88 12
0.072728343 1.1310374 1.6304487 234 88 12
0.11026833 1.1909679 2.0113645 234 88 12
0.075228162 1.1971238 2.0223854 234 88 12
0.16238573 1.1870185 2.017246 234 88 12
0.14656501 1.1755588 1.936466 234 88 12
0.14480637 1.1757741 1.936466 234 88 12
0.1457604 1.1962756 2.0607967 234 88 12
0.14188094 1.1895282 2.017246 234 88 12
0.13583703 1.176069 1.9316239 234 88 12
0.1196937 1.1302171 1.6432155 234 88 12
0.14789458 1.2393005 2.3218184 234 88 12
0.13690211 1.2206538 2.2012627 234 88 12
0.12461473 1.2055548 2.101145 234 88 12
0.11096537 1.1853331 1.9691305 234 88 12
0.11191838 1.1921052 2.0106702 234 88 12
0.17426163 1.1868824 2.0165627 234 88 12
0.14864951 1.2179443 2.1886494 234 88 12
0.14673449 1.2168403 2.1804023 234 88 12
0.14918667 1.2354734 2.2970695 234 88 12
0.13777281 1.1973288 2.0534127 234 88 12
0.11434832 1.1334136 1.6418972 234 88 12
0.15100344 1.2478722 2.3748422 234 88 12
0.14939785 1.2442527 2.3513272 234 88 12
0.14293718 1.2322057 2.2722213 234 88 12
0.12436079 1.2079738 2.1088922 234 88 12
0.11996204 1.2050841 2.0877674 234 88 12
0.1439247 1.242884 2.3387659 234 88 12
0.18467292 1.1869256 2.0158794 234 88 12
0.16254453 1.2333448 2.2912285 234 88 12
0.15942684 1.1936165 2.0385618 234 88 12
0.15292688 1.2516026 2.3988261 234 88 12
0.13791718 1.1985083 2.0527918 234 88 12
0.1494073 1.2420535 2.335959 234 88 12
0.15153533 1.2497196 2.3858914 234 88 12
0.14198464 1.2305679 2.2578838 234 88 12
0.12400205 1.2061892 2.0904479 234 88 12
0.074251167 1.2011522 2.0203581 234 88 12
0.17509933 1.2313973 2.2856646 234 88 12
0.1950842 1.1869689 2.0151961 234 88 12
0.24978282 1.0864615 1.4108146 234 88 12
0.15514164 1.2346699 2.2910111 234 88 12
0.15076895 1.2222164 2.2073317 234 88 12
0.1526159 1.2460045 2.3620417 234 88 12
0.15337339 1.2534621 2.4106843 234 88 12
0.14565317 1.2266449 2.2318277 234 88 12
0.13602263 1.2205462 2.1849437 234 88 12
0.12378845 1.2105767 2.1110673 234 88 12
0.1161751 1.203467 2.0592606 234 88 12
0.14714836 1.2474153 2.3668191 234 88 12
0.20549548 1.1870122 2.0145128 234 88 12
0.14651735 1.2338065 2.2753816 234 88 12
0.1264284 1.2097739 2.1007586 234 88 12
0.11084649 1.2013659 2.0327642 234 88 12
0.10000852 1.2201747 2.1480005 234 88 12
0.21590675 1.1870553 2.0138295 234 88 12
0.14378425 1.2315526 2.2545068 234 88 12
0.117221 1.2067879 2.0654709 234 88 12
0.11099822 1.2026056 2.0321116 234 88 12
0.12440395 1.221468 2.1704562 234 88 12
0.073274165 1.2051806 2.0183311 234 88 12
0.13367794 1.2159194 2.1339476 234 88 12
0.12291378 1.2058007 2.0549212 234 88 12
0.11412645 1.2056407 2.0463834 234 88 12
0.10809077 1.2020918 2.0167551 234 88 12
0.13953599 1.2390952 2.2990515 234 88 12
0.11397035 1.2202326 2.1470842 234 88 12
0.099239551 1.2220356 2.1470842 234 88 12
0.088013276 1.2184702 2.1129513 234 88 12
0.17482467 1.2331768 2.2847593 234 88 12
0.12805614 1.2107387 2.0853572 234 88 12
0.1254642 1.2107397 2.0831189 234 88 12
0.11757323 1.2091488 2.0650156 234 88 12
0.11069752 1.2078303 2.0497215 234 88 12
0.12286431 1.2097287 2.065001 234 88 12
0.11130898 1.2043097 2.0154006 234 88 12
0.10869837 1.2031533 2.0046873 234 88 12
0.10951126 1.2091725 2.0491006 234 88 12
0.13396573 1.2393572 2.2899244 234 88 12
-0.0085880542 1.1304023 1.3724184 234 88 12
-0.012348559 1.1308626 1.3724184 234 88 12
0.15162675 1.2533988 2.407537 234 88 12
-0.027390579 1.1327038 1.3724184 234 88 12
0.13070485 1.2397563 2.2899244 234 88 12
0.070848785 1.2093865 2.0163038 234 88 12
0.088253036 1.2204291 2.1119201 234 88 12
0.11635833 1.2095978 2.0489745 234 88 12
0.010622429 1.131434 1.370664 234 88 12
0.15392958 1.1172762 1.3689096 234 88 12
0.12384553 1.1209584 1.3689096 234 88 12
0.12008503 1.1214187 1.3689096 234 88 12
0.10880351 1.1227996 1.3689096 234 88 12
0.026072405 1.1329259 1.3689096 234 88 12
0.018551396 1.1338464 1.3689096 234 88 12
-0.045377187 1.1416712 1.3689096 234 88 12
0.17314005 1.1183078 1.3671552 234 88 12
0.097929955 1.1275134 1.3671552 234 88 12
0.086648442 1.1288943 1.3671552 234 88 12
0.075366929 1.1302751 1.3671552 234 88 12
0.064085409 1.1316561 1.3671552 234 88 12
0.052803896 1.1330369 1.3671552 234 88 12
0.041522384 1.1344177 1.3671552 234 88 12
-0.048729733 1.1454645 1.3671552 234 88 12
0.18859003 1.1197996 1.3654008 234 88 12
0.18482953 1.12026 1.3654008 234 88 12
0.090816908 1.131767 1.3654008 234 88 12
0.087056398 1.1322273 1.3654008 234 88 12
0.075774886 1.1336082 1.3654008 234 88 12
0.21278399 1.1979783 2.0083632 234 88 12
0.20985474 1.1983367 2.0083632 234 88 12
0.2002795 1.1217518 1.3636465 234 88 12
0.196519 1.1222122 1.3636465 234 88 12
0.079943344 1.1364809 1.3636465 234 88 12
0.076182842 1.1369412 1.3636465 234 88 12
0.06490133 1.138322 1.3636465 234 88 12
0.053619813 1.1397029 1.3636465 234 88 12
-0.051674325 1.1525908 1.3636465 234 88 12
0.21196897 1.123704 1.3618921 234 88 12
-0.051266365 1.1559238 1.3618921 234 88 12
0.21456639 1.2003952 2.0069966 234 88 12
0.21017252 1.200933 2.0069966 234 88 12
0.22365844 1.1256561 1.3601377 234 88 12
0.12779774 1.2430457 2.2884033 234 88 12
0.23534793 1.1276083 1.3583833 234 88 12
0.089212075 1.2282643 2.107796 234 88 12
0.23199537 1.1314017 1.3566289 234 88 12
-0.050042491 1.1659229 1.3566289 234 88 12
0.09844736 1.2318506 2.1420443 234 88 12
0.07081455 1.2211173 2.0102224 234 88 12
0.089331955 1.2292438 2.1072805 234 88 12
0.25496635 1.1319729 1.3548745 234 88 12
0.24368484 1.1333537 1.3548745 234 88 12
0.26289532 1.1343853 1.3531201 234 88 12
0.25161383 1.1357661 1.3531201 234 88 12
0.24033231 1.1371471 1.3531201 234 88 12
-0.049226575 1.1725888 1.3531201 234 88 12
0.27082428 1.1367978 1.3513657 234 88 12
0.099749029 1.2343416 2.1406701 234 88 12
0.09190166 1.2319115 2.1057339 234 88 12
0.27875325 1.1392102 1.3496113 234 88 12
0.24866922 1.1428925 1.3496113 234 88 12
-0.044650156 1.1787946 1.3496113 234 88 12
0.10083762 1.2350918 2.1402118 234 88 12
0.21567863 1.2094821 2.0022135 234 88 12
0.27916121 1.1425432 1.347857 234 88 12
0.27540073 1.1430036 1.347857 234 88 12
0.26411921 1.1443844 1.347857 234 88 12
0.29125866 1.1478285 1.3443482 234 88 12
0.26910359 1.1539232 1.3425938 234 88 12
0.26534307 1.1543834 1.3425938 234 88 12
0.17121083 1.2423416 2.2860126 234 88 12
0.29207456 1.1544944 1.3408394 234 88 12
0.28831407 1.1549547 1.3408394 234 88 12
0.27703255 1.1563356 1.3408394 234 88 12
0.26575103 1.1577164 1.3408394 234 88 12
0.28577742 1.165414 1.3355762 234 88 12
0.27449593 1.1667949 1.3355762 234 88 12
0.21402049 1.2202257 1.9967473 234 88 12
0.10670673 1.2423246 2.1360884 234 88 12
0.21417938 1.2215238 1.9960639 234 88 12
0.17053184 1.2445201 2.2849259 234 88 12
0.10095556 1.2417382 2.1000631 234 88 12
0.27948031 1.1763337 1.3303131 234 88 12
0.13378108 1.2494375 2.2847085 234 88 12
0.10218047 1.2425824 2.0995474 234 88 12
0.11095456 1.244455 2.1347139 234 88 12
0.15306404 1.2543187 2.4069688 234 88 12
0.14661142 1.2499623 2.283622 234 88 12
0.11162014 1.2463974 2.0969698 234 88 12
0.12436049 1.2481148 2.1319649 234 88 12
0.11738507 1.2476799 2.0959387 234 88 12
0.21414477 1.2333862 1.9899143 234 88 12
0.12642603 1.2454405 1.989231 234 88 12
0.13439409 1.2486537 2.1310487 234 88 12
0.13088523 1.2480158 2.0949078 234 88 12
-1.2646879 1.2495127 1.7726394 234 88 12
-1.2627642 1.2523315 1.7720613 234 88 12
-1.2620192 1.2539545 1.7714832 234 88 12
-1.2650876 1.2534428 1.7697489 234 88 12
-1.2584157 1.2645473 1.7668585 234 88 12
-1.2934089 1.2862002 1.8556968 234 88 12
-1.2926319 1.2874933 1.8553602 234 88 12
-1.2759389 1.2476366 1.7662804 234 88 12
-1.2980314 1.2825202 1.8550235 234 88 12
-1.2053816 1.2222949 1.6006258 234 88 12
-1.2084891 1.2191423 1.6006258 234 88 12
-1.2095249 1.2180915 1.6006258 234 88 12
-1.257481 1.2706983 1.7633899 234 88 12
-1.2775172 1.2503709 1.7633899 234 88 12
-1.210013 1.2206445 1.5985935 234 88 12
-1.2211332 1.2108868 1.5975773 234 88 12
-1.2294198 1.2024797 1.5975773 234 88 12
-1.2314914 1.2003781 1.5975773 234 88 12
-1.2011788 1.2326554 1.5965613 234 88 12
-1.2032505 1.2305537 1.5965613 234 88 12
-1.2094654 1.2242484 1.5965613 234 88 12
-1.2136087 1.2200449 1.5965613 234 88 12
-1.2208594 1.2126888 1.5965613 234 88 12
-1.229146 1.2042817 1.5965613 234 88 12
-1.2322534 1.2011291 1.5965613 234 88 12
-1.2914723 1.2932141 1.8523306 234 88 12
-1.3017666 1.28277 1.8523306 234 88 12
-1.2571356 1.2762516 1.7599213 234 88 12
-1.1977381 1.243767 1.5914806 234 88 12
-1.1987739 1.2427161 1.5914806 234 88 12
-1.2091321 1.2322073 1.5914806 234 88 12
-1.2205261 1.2206477 1.5914806 234 88 12
-1.2319201 1.209088 1.5914806 234 88 12
-1.2424927 1.2029343 1.5884323 234 88 12
-1.2868445 1.2513134 1.7564528 234 88 12
-1.2913421 1.2978904 1.849301 234 88 12
-1.1960951 1.2545787 1.5853839 234 88 12
-1.1981668 1.252477 1.5853839 234 88 12
-1.2085251 1.2419682 1.5853839 234 88 12
-1.2095609 1.2409173 1.5853839 234 88 12
-1.2199191 1.2304085 1.5853839 234 88 12
-1.2209549 1.2293577 1.5853839 234 88 12
-1.2302773 1.2198998 1.5853839 234 88 12
-1.2313131 1.2188488 1.5853839 234 88 12
-1.2416713 1.20834 1.5853839 234 88 12
-1.2468504 1.2030857 1.5853839 234 88 12
-1.209287 1.2427193 1.5843678 234 88 12
-1.2424333 1.2090912 1.5843678 234 88 12
-1.2445277 1.2092791 1.5887511 234 88 12
-1.3093474 1.2806332 1.8486278 234 88 12
-1.198655 1.25503 1.5833516 234 88 12
-1.2204072 1.2329615 1.5833516 234 88 12
-1.2318013 1.2214019 1.5833516 234 88 12
-1.2956825 1.299192 1.8525587 234 88 12
-1.2979888 1.2968524 1.8525587 234 88 12
-1.2979016 1.2974254 1.8522356 234 88 12
-1.253417 1.2077967 1.5837269 234 88 12
-1.2920805 1.2529383 1.7518281 234 88 12
-1.1952143 1.2661415 1.578271 234 88 12
-1.2978145 1.2979985 1.8519124 234 88 12
-1.2928066 1.2917563 1.8291211 234 88 12
-1.1980479 1.2647909 1.5772549 234 88 12
-1.0318624 1.125625 0.95141941 234 88 12
-1.2538998 1.2103214 1.5817171 234 88 12
-1.2319561 1.2319139 1.5762388 234 88 12
-1.2433501 1.2203542 1.5762388 234 88 12
-1.1079328 1.052344 0.9488225 234 88 12
-1.2939703 1.2536224 1.7500938 234 88 12
-1.043699 1.1214069 0.94622558 234 88 12
-1.0463462 1.1187211 0.94622558 234 88 12
-1.1098802 1.0542636 0.94622558 234 88 12
-1.3088067 1.2772377 1.8279784 234 88 12
-1.1930832 1.2744004 1.5742066 234 88 12
-1.0562354 1.1125835 0.94362867 234 88 12
-1.0615299 1.1072121 0.94362867 234 88 12
-1.0668244 1.1018405 0.94362867 234 88 12
-1.0721189 1.096469 0.94362867 234 88 12
-1.0774134 1.0910976 0.94362867 234 88 12
-1.0827079 1.0857261 0.94362867 234 88 12
-1.2407309 1.2260599 1.5742066 234 88 12
-1.2428025 1.2239581 1.5742066 234 88 12
-1.2469457 1.2197546 1.5742066 234 88 12
-1.2604115 1.2060932 1.5742066 234 88 12
-1.0528884 1.1198745 0.94103175 234 88 12
-1.0555357 1.1171888 0.94103175 234 88 12
-1.0634774 1.1091316 0.94103175 234 88 12
-1.0661246 1.1064458 0.94103175 234 88 12
-1.0767136 1.0957029 0.94103175 234 88 12
-1.0873026 1.08496 0.94103175 234 88 12
-1.1111279 1.0607884 0.94103175 234 88 12
-1.3097662 1.2774068 1.8272165 234 88 12
-1.1946071 1.2759025 1.5721743 234 88 12
-1.0654248 1.1110511 0.93843484 234 88 12
-1.0760138 1.1003082 0.93843484 234 88 12
-1.0998391 1.0761366 0.93843484 234 88 12
-1.1024863 1.0734508 0.93843484 234 88 12
-1.110428 1.0653937 0.93843484 234 88 12
-1.0594305 1.1210278 0.93583792 234 88 12
-1.0885502 1.0914848 0.93583792 234 88 12
-1.3378986 1.3193913 1.9765921 234 88 12
-1.2561016 1.2186383 1.5746832 234 88 12
-1.1513844 1.0316324 0.93324101 234 88 12
-1.2988719 1.2907448 1.8256929 234 88 12
-1.0686198 1.1194954 0.93064409 234 88 12
-1.0765616 1.1114383 0.93064409 234 88 12
-1.0792089 1.1087525 0.93064409 234 88 12
-1.0871506 1.1006953 0.93064409 234 88 12
-1.0897979 1.0980096 0.93064409 234 88 12
-1.1003869 1.0872667 0.93064409 234 88 12
-1.1030341 1.0845809 0.93064409 234 88 12
-1.1109759 1.0765237 0.93064409 234 88 12
-1.1136231 1.073838 0.93064409 234 88 12
-1.2650498 1.2110673 1.5736784 234 88 12
1.315652 -1.335871 1.9684356 234 88 12
1.2311419 -1.272295 1.7254725 234 88 12
1.2318466 -1.2716004 1.7254725 234 88 12
1.2281224 -1.2762785 1.7247912 234 88 12
1.2401011 -1.2644715 1.7247912 234 88 12
1.2425176 -1.2641042 1.7234285 234 88 12
1.231747 -1.2757277 1.7227472 234 88 12
1.2423165 -1.2653097 1.7227472 234 88 12
1.3187642 -1.3382462 1.9767751 234 88 12
1.2205045 -1.2691728 1.6898232 234 88 12
1.2221849 -1.2871675 1.7213845 234 88 12
1.2186925 -1.2720922 1.6890565 234 88 12
1.2266213 -1.2642771 1.6890565 234 88 12
1.213483 -1.279494 1.6875232 234 88 12
1.2317189 -1.2615194 1.6875232 234 88 12
1.2199715 -1.2933785 1.7186593 234 88 12
1.2206762 -1.292684 1.7186593 234 88 12
1.2114449 -1.28377 1.68599 234 88 12
1.2201664 -1.2751733 1.68599 234 88 12
1.2312665 -1.2642323 1.68599 234 88 12
1.2537937 -1.2600409 1.7186593 234 88 12
1.220733 -1.2757483 1.6852233 234 88 12
1.2318332 -1.2648071 1.6852233 234 88 12
1.044922 -1.0628111 0.97796011 234 88 12
1.2437263 -1.2530845 1.6852233 234 88 12
1.2101996 -1.2872642 1.6844566 234 88 12
1.0441523 -1.0674272 0.97535121 234 88 12
1.2184628 -1.2988949 1.7159339 234 88 12
1.0318201 -1.0872972 0.9701333 234 88 12
1.0345182 -1.0846376 0.9701333 234 88 12
1.2203757 -1.2980168 1.7152526 234 88 12
1.2087282 -1.2921151 1.6821567 234 88 12
1.0310503 -1.0919132 0.96752435 234 88 12
1.0445412 -1.0786155 0.96752435 234 88 12
1.0329788 -1.0938697 0.96491539 234 88 12
1.0410733 -1.0858911 0.96491539 234 88 12
1.0437715 -1.0832316 0.96491539 234 88 12
1.0518661 -1.075253 0.96491539 234 88 12
1.0430018 -1.0878476 0.96230644 234 88 12
1.0537945 -1.0772095 0.96230644 234 88 12
1.0564927 -1.0745499 0.96230644 234 88 12
1.2070305 -1.2983222 1.6790901 234 88 12
1.2426233 -1.2811245 1.711846 234 88 12
1.0433906 -1.099036 0.95447958 234 88 12
1.0541834 -1.088398 0.95447958 234 88 12
1.2097496 -1.297909 1.6775569 234 88 12
1.2208498 -1.286968 1.6775569 234 88 12
1.2319499 -1.2760268 1.6775569 234 88 12
1.0453191 -1.1009924 0.95187062 234 88 12
1.0507154 -1.0956734 0.95187062 234 88 12
1.0561118 -1.0903544 0.95187062 234 88 12
1.0615082 -1.0850353 0.95187062 234 88 12
1.21615 -1.3092332 1.7104833 234 88 12
1.1929511 -1.2695355 1.5827219 234 88 12
1.2422214 -1.2835355 1.7104833 234 88 12
1.0661348 -1.0843323 0.94926167 234 88 12
1.0545723 -1.0995864 0.94665277 234 88 12
1.0653651 -1.0889484 0.94665277 234 88 12
1.215337 -1.2119454 1.505363 234 88 12
1.2922211 -1.303987 1.8515892 234 88 12
1.2202917 -1.2070616 1.505363 234 88 12
1.1985935 -1.2669454 1.5807123 234 88 12
1.2056733 -1.3064607 1.6744902 234 88 12
1.2096376 -1.3025532 1.6744902 234 88 12
1.2151878 -1.2970827 1.6744902 234 88 12
1.2207378 -1.2916121 1.6744902 234 88 12
1.2294594 -1.2830155 1.6744902 234 88 12
1.231838 -1.280671 1.6744902 234 88 12
1.2421453 -1.2705114 1.6744902 234 88 12
1.0584292 -1.1034993 0.94143486 234 88 12
1.0665238 -1.0955207 0.94143486 234 88 12
1.215346 -1.314055 1.7077581 234 88 12
1.2442358 -1.2855792 1.7077581 234 88 12
1.2435048 -1.2703048 1.6737236 234 88 12
1.0657541 -1.1001368 0.93882591 234 88 12
1.2316184 -1.2012097 1.5017699 234 88 12
1.2126849 -1.2216427 1.5005721 234 88 12
1.2057877 -1.3097485 1.6721903 234 88 12
1.2459061 -1.2870667 1.7088275 234 88 12
1.0777054 -1.0960711 0.933608 234 88 12
1.1971111 -1.2758347 1.575688 234 88 12
1.2471036 -1.2868848 1.7081523 234 88 12
1.0715393 -1.1060061 0.93099904 234 88 12
1.0769356 -1.1006871 0.93099904 234 88 12
1.0796338 -1.0980276 0.93099904 234 88 12
1.1978539 -1.2765883 1.5746832 234 88 12
1.1988931 -1.275564 1.5746832 234 88 12
1.2092853 -1.2653207 1.5746832 234 88 12
1.2072898 -1.2622266 1.5634519 234 88 12
1.2124665 -1.2605101 1.570966 234 88 12
1.2270657 -1.264707 1.6122141 234 88 12
1.2280086 -1.2637776 1.6122141 234 88 12
1.2378464 -1.2671338 1.6411812 234 88 12
1.2392536 -1.2667607 1.6434315 234 88 12
1.2128634 -1.2267791 1.496979 234 88 12
1.2979043 -1.3017302 1.8493268 234 88 12
1.241353 -1.1986977 1.496979 234 88 12
1.2090734 -1.3099102 1.6698904 234 88 12
1.2201736 -1.2989691 1.6698904 234 88 12
1.1985966 -1.2773418 1.5736784 234 88 12
1.2091212 -1.2619482 1.5624192 234 88 12
1.2309873 -1.2757083 1.6416245 234 88 12
1.2340816 -1.2622015 1.6181705 234 88 12
1.2443173 -1.2698199 1.6578872 234 88 12
1.0753962 -1.1099191 0.92578113 234 88 12
1.2434771 -1.198375 1.4957813 234 88 12
1.3057166 1.3128016 1.5889465 234 88 12
1.310727 1.3099399 1.5873188 234 88 12
1.3599681 1.3627059 1.725535 234 88 12
1.3010305 1.3207107 1.5865049 234 88 12
1.3133757 1.3094397 1.5856911 234 88 12
1.3586705 1.3645372 1.7251307 234 88 12
1.3039292 1.3188862 1.5856911 234 88 12
1.3023548 1.3204607 1.5856911 234 88 12
1.3245474 1.3252469 1.6129166 234 88 12
1.3649652 1.3614452 1.7227046 234 88 12
1.2977057 1.3315556 1.580808 234 88 12
1.3202846 1.310051 1.5799943 234 88 12
1.3206049 1.3310989 1.6114701 234 88 12
1.3199053 1.3317986 1.6114701 234 88 12
1.2990301 1.3313055 1.5799943 234 88 12
1.2651595 1.2639297 1.4158819 234 88 12
1.2639297 1.2651595 1.4158819 234 88 12
1.3306874 1.3257902 1.6078538 234 88 12
1.2659987 1.2647688 1.4146104 234 88 12
1.324391 1.3320866 1.6078538 234 88 12
1.3194938 1.3369838 1.6078538 234 88 12
1.313897 1.3425806 1.6078538 234 88 12
1.3318644 1.325568 1.6071305 234 88 12
1.2943809 1.3424006 1.5751113 234 88 12
1.3256191 1.3122365 1.5742974 234 88 12
1.2988541 1.3390017 1.5742974 234 88 12
1.2972796 1.3405761 1.5742974 234 88 12
1.2957052 1.3421504 1.5742974 234 88 12
1.3685405 1.3626738 1.7190655 234 88 12
1.2599074 1.2758952 1.410796 234 88 12
1.2738842 1.2652752 1.4082532 234 88 12
1.2640455 1.2751139 1.4082532 234 88 12
1.2628156 1.2763438 1.4082532 234 88 12
1.2981039 1.3429748 1.5718559 234 88 12
1.2648846 1.2759532 1.4069817 234 88 12
1.2767923 1.2657238 1.4057103 234 88 12
1.3207366 1.3424242 1.602791 234 88 12
1.3694837 1.3643992 1.7170438 234 88 12
1.31072 1.3533956 1.6020676 234 88 12
1.3314908 1.3149594 1.5677867 234 88 12
1.2929176 1.3535326 1.5677867 234 88 12
1.2637705 1.2871374 1.3993531 234 88 12
1.276908 1.2756783 1.3980817 234 88 12
1.2658396 1.2867467 1.3980817 234 88 12
1.2838964 1.2703682 1.3968103 234 88 12
1.2777473 1.2765174 1.3968103 234 88 12
1.2752876 1.278977 1.3968103 234 88 12
1.2666787 1.287586 1.3968103 234 88 12
1.264219 1.2900456 1.3968103 234 88 12
1.3266544 1.3441443 1.5970048 234 88 12
1.3196584 1.3511404 1.5970048 234 88 12
1.3175596 1.3532392 1.5970048 234 88 12
1.2956034 1.3562183 1.5637176 234 88 12
1.30872 1.3639883 1.5955583 234 88 12
1.3413789 1.3322841 1.594835 234 88 12
1.2872531 1.2737249 1.3917246 234 88 12
1.3203909 1.3532721 1.594835 234 88 12
1.3091973 1.3644657 1.594835 234 88 12
1.3084977 1.3651652 1.594835 234 88 12
1.2868625 1.275794 1.3904531 234 88 12
1.275794 1.2868625 1.3904531 234 88 12
1.2914543 1.3646647 1.5604622 234 88 12
1.3423337 1.3332388 1.5933884 234 88 12
1.2655646 1.2987702 1.3891816 234 88 12
-2.0828307 -0.55674446 -0.75780064 234 88 12
