ply
format ascii 1.0
element vertex 2238
property float x
property float y
property float z
property uchar red
property uchar green
property uchar blue
end_header
0.099145271 0.46953705 1.7479006 234 88 12
0.092879951 0.47198179 1.7348577 234 88 12
0.12983283 0.4685272 1.7421415 234 88 12
0.088437386 0.46476668 1.7421355 234 88 12
0.13064423 0.46766847 1.7359678 234 88 12
0.085143849 0.46356097 1.7366551 234 88 12
0.11299048 0.45381424 1.7575409 234 88 12
0.11696785 0.45487499 1.7552679 234 88 12
0.12307066 0.4638817 1.7359678 234 88 12
0.08900819 0.46019128 1.7357596 234 88 12
0.096586019 0.46020398 1.7357322 234 88 12
0.11163651 0.45979103 1.7366242 234 88 12
0.11499849 0.45810872 1.7402589 234 88 12
0.11891876 0.45868665 1.7390103 234 88 12
0.084721968 0.45373321 1.741577 234 88 12
0.099906296 0.4542909 1.7403622 234 88 12
0.10200704 0.4469763 1.7562964 234 88 12
0.12699635 0.45680779 1.7348793 234 88 12
0.12904325 0.45071629 1.7481492 234 88 12
0.09131889 0.44541255 1.7515833 234 88 12
0.12904325 0.44697592 1.7481492 234 88 12
0.10734756 0.44633988 1.7412724 234 88 12
0.11788217 0.44346151 1.7476486 234 88 12
0.13059419 0.44856268 1.7363485 234 88 12
0.083662398 0.43690366 1.7539387 234 88 12
0.088805988 0.44402996 1.7380182 234 88 12
0.093111992 0.44655752 1.7323714 234 88 12
0.10432059 0.44573343 1.7342125 234 88 12
0.12294579 0.4444963 1.7369764 234 88 12
0.13059419 0.44477734 1.7363485 234 88 12
0.094954692 0.43381259 1.7525252 234 88 12
0.14119367 0.4386417 1.7416443 234 88 12
0.12504284 0.43111786 1.7501867 234 88 12
0.12877546 0.43111786 1.7501867 234 88 12
0.092098728 0.43042061 1.7432278 234 88 12
0.11165184 0.43336052 1.7364879 234 88 12
0.12315858 0.43389717 1.7352576 234 88 12
0.13048112 0.43304604 1.7372088 234 88 12
0.1413265 0.43151692 1.7407144 234 88 12
0.086513527 0.41784194 1.7636255 234 88 12
0.092984781 0.43076622 1.7337345 234 88 12
0.093967348 0.41824681 1.7626891 234 88 12
0.14252834 0.43138576 1.7323016 234 88 12
0.13726249 0.41930872 1.7428381 234 88 12
0.14162986 0.42111278 1.738591 234 88 12
0.096745223 0.4192293 1.7340933 234 88 12
0.10453001 0.42002055 1.7322136 234 88 12
0.11421803 0.41380629 1.746976 234 88 12
0.11986343 0.42047331 1.7311381 234 88 12
0.13111985 0.41996357 1.7323489 234 88 12
-0.87912112 0.46220386 1.4930639 234 88 12
-0.87509495 0.45751667 1.4872458 234 88 12
-0.87808919 0.44456694 1.4905897 234 88 12
-0.88571978 0.47093207 1.4963071 234 88 12
-0.88352692 0.46515417 1.4929185 234 88 12
-0.88249016 0.45123973 1.4906422 234 88 12
-0.88459688 0.48859644 1.4893863 234 88 12
-0.88476038 0.4848367 1.4893863 234 88 12
-0.88146961 0.48350164 1.4847057 234 88 12
-0.8798613 0.45146391 1.4805108 234 88 12
-0.88085383 0.44344166 1.4814106 234 88 12
-0.88422751 0.48760316 1.482305 234 88 12
-0.88439202 0.48381993 1.482305 234 88 12
-0.8827163 0.4702768 1.4791143 234 88 12
-0.88454843 0.45799676 1.4809436 234 88 12
-0.88404441 0.44358039 1.4793501 234 88 12
-0.89657557 0.46672449 1.4919778 234 88 12
-0.9064588 0.47882178 1.4938946 234 88 12
-0.89721304 0.47823054 1.4805101 234 88 12
-0.89522123 0.46132743 1.4765738 234 88 12
-0.90203136 0.4421708 1.4852027 234 88 12
-0.89604914 0.459389 1.4709711 234 88 12
-0.90517509 0.4423075 1.4831723 234 88 12
-0.90883052 0.49632615 1.4853305 234 88 12
-0.89843249 0.5005433 1.4703418 234 88 12
-0.89965612 0.49596295 1.471845 234 88 12
-0.89918172 0.47796825 1.470001 234 88 12
-0.89975578 0.47021177 1.4703485 234 88 12
-0.89912629 0.4596054 1.4687481 234 88 12
-0.89940542 0.44466242 1.4682043 234 88 12
-0.90427417 0.4986732 1.4720849 234 88 12
-0.90330279 0.49209219 1.4702245 234 88 12
-0.92789727 0.46679527 1.5049835 234 88 12
-0.91353238 0.46648678 1.4837116 234 88 12
-0.91563106 0.47818175 1.4809101 234 88 12
-0.91722459 0.49749687 1.477834 234 88 12
-0.9108867 0.49509433 1.4681445 234 88 12
-0.91116118 0.4802826 1.4675889 234 88 12
-0.91148949 0.47273177 1.4675889 234 88 12
-0.91479486 0.46307555 1.4719288 234 88 12
-0.9124192 0.4574405 1.4679872 234 88 12
-0.90978462 0.44454572 1.4631816 234 88 12
-0.91353953 0.49927703 1.4655793 234 88 12
-0.92040455 0.45421574 1.473019 234 88 12
-0.92477214 0.47156122 1.4740043 234 88 12
-0.92691904 0.45558801 1.4762253 234 88 12
-0.92656034 0.48353162 1.4707024 234 88 12
-0.93556273 0.45891333 1.4829333 234 88 12
-0.92061418 0.45511812 1.4596287 234 88 12
-0.92718881 0.44688755 1.4692147 234 88 12
-0.92444062 0.48039147 1.4602809 234 88 12
-0.92640543 0.46800065 1.4624983 234 88 12
-0.94596314 0.4501904 1.4917048 234 88 12
-0.92306149 0.46311289 1.4569684 234 88 12
-0.9215315 0.45685011 1.4541659 234 88 12
-0.94538081 -0.68029201 1.3132144 234 88 12
-0.95124143 -0.68158948 1.3120435 234 88 12
-0.9529435 -0.6911118 1.3171667 234 88 12
-0.9403435 -0.69863957 1.3148515 234 88 12
-0.9614799 -0.66901147 1.3065286 234 88 12
-0.95879674 -0.6716947 1.3065286 234 88 12
-0.95309252 -0.69710195 1.3155947 234 88 12
-0.93206757 -0.7053057 1.3096951 234 88 12
-0.9610647 -0.6812579 1.3075423 234 88 12
-0.94744533 -0.68730813 1.3040311 234 88 12
-0.94364905 -0.68827093 1.3027167 234 88 12
-0.94096082 -0.6909591 1.3027167 234 88 12
-0.94428164 -0.70937836 1.3128014 234 88 12
-0.93028349 -0.70182288 1.3028033 234 88 12
-0.92724431 -0.70399815 1.3024025 234 88 12
-0.97091889 -0.66800493 1.3014954 234 88 12
-0.96059543 -0.67937404 1.3019844 234 88 12
-0.97279143 -0.66991049 1.2987789 234 88 12
-0.96962386 -0.69288588 1.3081164 234 88 12
-0.94772607 -0.69257659 1.2976478 234 88 12
-0.93347412 -0.70479107 1.2966874 234 88 12
-0.97796589 -0.68450081 1.3036603 234 88 12
-0.9917506 -0.7063781 1.3162805 234 88 12
-0.94802541 -0.69788784 1.2912672 234 88 12
-0.94533575 -0.70057744 1.2912672 234 88 12
-0.939776 -0.70568734 1.2910516 234 88 12
-0.98905706 -0.70067203 1.3078706 234 88 12
-0.96925396 -0.68182963 1.289209 234 88 12
-0.96162188 -0.69057018 1.2897443 234 88 12
-0.94508696 -0.71934766 1.2956561 234 88 12
-0.98108035 -0.69314241 1.2959093 234 88 12
-0.94890869 -0.70410413 1.2855849 234 88 12
-0.97568238 -0.69006288 1.2872481 234 88 12
-0.9745025 -0.69401306 1.2840555 234 88 12
-0.97398734 -0.70601434 1.285201 234 88 12
-0.96285206 -0.70212626 1.2777113 234 88 12
-0.96016419 -0.70481414 1.2777113 234 88 12
-0.95773172 -0.70789719 1.2780356 234 88 12
-1.007677 -0.75918406 1.3242847 234 88 12
0.12329075 -0.69918561 1.6114447 234 88 12
0.12718624 -0.6976406 1.6102363 234 88 12
0.13097727 -0.69747579 1.6102363 234 88 12
0.14922506 -0.70311099 1.6158836 234 88 12
0.11947707 -0.70488006 1.6114639 234 88 12
0.13693292 -0.71879399 1.6244454 234 88 12
0.14209907 -0.70404762 1.6115975 234 88 12
0.14611086 -0.70160741 1.6095929 234 88 12
0.12362539 -0.70478719 1.6066642 234 88 12
0.13094606 -0.70741326 1.6092877 234 88 12
0.14633882 -0.7039389 1.6067883 234 88 12
0.15377706 -0.70478988 1.6078347 234 88 12
0.1154935 -0.71860474 1.6138296 234 88 12
0.14168382 -0.7171846 1.613577 234 88 12
0.12148723 -0.74224722 1.6305628 234 88 12
0.15712103 -0.71683979 1.6089982 234 88 12
0.1125311 -0.71712476 1.6025802 234 88 12
0.12006593 -0.71704894 1.6028094 234 88 12
0.11671715 -0.71618652 1.5969222 234 88 12
0.12055564 -0.71544939 1.5963993 234 88 12
0.12801674 -0.71675986 1.5978982 234 88 12
0.13566808 -0.71568888 1.5972214 234 88 12
0.1432838 -0.71510428 1.5969889 234 88 12
0.14694035 -0.71622533 1.5981625 234 88 12
0.14935078 -0.72822827 1.6092639 234 88 12
0.15864462 -0.7173245 1.5946449 234 88 12
0.11648813 -0.72983176 1.599539 234 88 12
0.16518795 -0.72902977 1.6007625 234 88 12
0.15791462 -0.73174411 1.5980123 234 88 12
0.12087502 -0.73133337 1.5910817 234 88 12
0.12861845 -0.72894573 1.5891465 234 88 12
0.14368914 -0.73375523 1.5892459 234 88 12
0.1327289 -0.7347278 1.5846202 234 88 12
0.14419112 -0.73354065 1.5839608 234 88 12
0.1555675 -0.73322648 1.5841335 234 88 12
0.13284697 -0.74281716 1.5821543 234 88 12
0.14328985 -0.75078833 1.590337 234 88 12
0.89821786 0.58260328 1.4522508 234 88 12
0.89700449 0.59049928 1.4514652 234 88 12
0.89998567 0.59003806 1.4607695 234 88 12
0.90301925 0.56838554 1.4494249 234 88 12
0.90662569 0.56732625 1.4606303 234 88 12
0.90405619 0.58633542 1.4598478 234 88 12
0.90916485 0.5813458 1.4618237 234 88 12
0.91160804 0.55727869 1.4473507 234 88 12
0.9103573 0.56520927 1.4464239 234 88 12
0.90955758 0.57581162 1.448072 234 88 12
0.9094997 0.59179246 1.4543535 234 88 12
0.91488326 0.5545398 1.4440801 234 88 12
0.91315526 0.56949383 1.4444234 234 88 12
0.91590488 0.57704026 1.4436092 234 88 12
0.92210913 0.55149782 1.4407692 234 88 12
0.92061174 0.56295729 1.4404424 234 88 12
0.92098594 0.57207698 1.4455795 234 88 12
0.9208433 0.57543224 1.4465034 234 88 12
0.92482144 0.58905977 1.4659632 234 88 12
0.92247713 0.57799983 1.4397647 234 88 12
0.92209011 0.59116614 1.4440439 234 88 12
0.92427611 0.59141684 1.4517902 234 88 12
0.93491274 0.54930252 1.4439286 234 88 12
0.93538654 0.55326521 1.4334061 234 88 12
0.93390924 0.56470829 1.4331266 234 88 12
0.93856865 0.56499761 1.4502426 234 88 12
0.93772835 0.57543588 1.4518371 234 88 12
0.93873286 0.55367482 1.4316447 234 88 12
0.93725652 0.56511801 1.4313647 234 88 12
0.93599474 0.58258891 1.4346071 234 88 12
0.94868922 0.57452619 1.4779098 234 88 12
0.93854183 0.59156656 1.4480923 234 88 12
0.94311029 0.57966566 1.4310385 234 88 12
0.94835079 0.5586248 1.4264936 234 88 12
0.94863153 0.56455773 1.4303863 234 88 12
0.94910163 0.56705976 1.4333876 234 88 12
0.94804835 0.5778591 1.4344258 234 88 12
0.95087433 0.57584244 1.4295791 234 88 12
-0.63347799 1.3053811 1.0891824 234 88 12
-0.63665515 1.3026843 1.0898247 234 88 12
-0.63932347 1.2999772 1.0898247 234 88 12
-0.64193743 1.3074317 1.0948079 234 88 12
-0.64327818 1.2991849 1.0863384 234 88 12
-0.65465337 1.304107 1.0992607 234 88 12
-0.64337385 1.3112384 1.0864637 234 88 12
-0.65272856 1.2976446 1.0813324 234 88 12
-0.65545696 1.31057 1.0935496 234 88 12
-0.65213376 1.3069502 1.0771669 234 88 12
-0.66722852 1.3017989 1.0900922 234 88 12
-0.64565647 1.3169998 1.0739783 234 88 12
-0.66130078 1.3007443 1.0734862 234 88 12
-0.66651404 1.2953217 1.0733149 234 88 12
-0.65076053 1.3162297 1.0719829 234 88 12
-0.65342742 1.3135241 1.0719829 234 88 12
-0.67109627 1.3056114 1.0849346 234 88 12
-0.67372513 1.3029443 1.0849346 234 88 12
-0.65387726 1.3181661 1.0708985 234 88 12
-0.66633743 1.3046415 1.0697463 234 88 12
-0.68679595 1.3159641 1.0890838 234 88 12
-0.67160034 1.3104318 1.0610471 234 88 12
-0.67985326 1.3023171 1.0613928 234 88 12
-0.66840571 1.3284672 1.0731003 234 88 12
-0.72214407 1.3253376 1.1424706 234 88 12
-0.66830236 1.3177809 1.0585334 234 88 12
-0.69128573 1.3152153 1.0865462 234 88 12
-0.6801306 1.3069763 1.0601474 234 88 12
-0.673334 1.3303235 1.0745989 234 88 12
-0.6630457 1.3278263 1.0569872 234 88 12
-0.67856199 1.3250195 1.0745989 234 88 12
-0.72173715 1.3121297 1.1166885 234 88 12
-0.66954118 1.3323265 1.0642185 234 88 12
-0.66500616 1.3297585 1.054373 234 88 12
-0.68213892 1.3189517 1.0634028 234 88 12
-0.68988979 1.3136204 1.0668806 234 88 12
-0.70553994 1.3310035 1.1050192 234 88 12
-0.67909878 1.3181701 1.0500796 234 88 12
-0.67894024 1.3228118 1.0482328 234 88 12
-0.69105339 1.3200999 1.0616162 234 88 12
-0.69986594 1.3373843 1.0905508 234 88 12
-0.6794275 1.335353 1.0584583 234 88 12
-0.67308086 1.3328612 1.0458695 234 88 12
-0.69075054 1.3220143 1.0558491 234 88 12
-0.68899393 1.3166276 1.0457438 234 88 12
-0.69052202 1.3318497 1.0613968 234 88 12
-0.72591949 1.3287154 1.1080064 234 88 12
-0.7142871 1.3237866 1.0842162 234 88 12
-0.69244581 1.3337458 1.0588315 234 88 12
-0.68615794 1.3312501 1.0461 234 88 12
-0.70793533 1.3257139 1.0698525 234 88 12
-0.68447757 1.3436762 1.0533694 234 88 12
-0.71293885 1.3326591 1.079213 234 88 12
-0.68150306 1.3431857 1.0400382 234 88 12
-1.4585674 0.64732862 0.84469193 234 88 12
-1.4557711 0.64131278 0.84251493 234 88 12
-1.4482037 0.63696873 0.83757931 234 88 12
-1.4476125 0.62642032 0.83637607 234 88 12
-1.453006 0.66455948 0.83829117 234 88 12
-1.4579153 0.63436103 0.83885354 234 88 12
-1.4492766 0.66702032 0.83176291 234 88 12
-1.4638777 0.65071028 0.83943796 234 88 12
-1.4814439 0.63360721 0.84887683 234 88 12
-1.4492276 0.64204037 0.82969767 234 88 12
-1.4503218 0.63446701 0.82975537 234 88 12
-1.451218 0.62336993 0.829404 234 88 12
-1.4685634 0.66033506 0.83874142 234 88 12
-1.4542655 0.66247797 0.83002567 234 88 12
-1.457891 0.65848392 0.82750499 234 88 12
-1.4597605 0.65067041 0.82803011 234 88 12
-1.4576838 0.63722062 0.82561326 234 88 12
-1.4515384 0.67978442 0.82079995 234 88 12
-1.4747518 0.65632844 0.83352143 234 88 12
-1.4576877 0.62381524 0.82001257 234 88 12
-1.4580226 0.67458481 0.81999117 234 88 12
-1.456503 0.67165643 0.81877536 234 88 12
-1.4556041 0.66846299 0.81793296 234 88 12
-1.4833736 0.65386987 0.83441383 234 88 12
-1.4908069 0.64406317 0.83832818 234 88 12
-1.4571546 0.65359509 0.81766909 234 88 12
-1.4573917 0.64993334 0.8175118 234 88 12
-1.4578887 0.64617145 0.8175118 234 88 12
-1.4571544 0.63928574 0.81646329 234 88 12
-1.4596081 0.63480234 0.81765044 234 88 12
-1.4595605 0.62406266 0.81671518 234 88 12
-1.4568572 0.6796245 0.81517446 234 88 12
-1.4584216 0.66832811 0.81522077 234 88 12
-1.4630351 0.66293293 0.81772935 234 88 12
-1.4753795 0.6475234 0.82435882 234 88 12
-1.4749106 0.65917665 0.8206113 234 88 12
-1.4889437 0.65012491 0.8289358 234 88 12
-1.4613943 0.67978299 0.80909753 234 88 12
-1.4725568 0.67162979 0.81569189 234 88 12
-1.4735363 0.66421628 0.81569189 234 88 12
-1.4618264 0.68062812 0.80492121 234 88 12
-1.4606651 0.67042977 0.80326736 234 88 12
-1.4623805 0.66260523 0.80371678 234 88 12
-1.4818112 0.65138572 0.81554949 234 88 12
-1.4658505 0.65054435 0.80495393 234 88 12
-1.4662058 0.63611567 0.80393147 234 88 12
-1.4678388 0.6247713 0.80401999 234 88 12
-1.4716558 0.65990007 0.80508208 234 88 12
-1.4834849 0.65169036 0.81222385 234 88 12
-1.4797657 0.63556379 0.8083356 234 88 12
-1.4704958 0.62831771 0.80153763 234 88 12
-1.4832212 0.6562624 0.80797607 234 88 12
-1.5042126 0.64103293 0.82069528 234 88 12
-1.4789597 0.64740306 0.80433589 234 88 12
-1.5238726 0.61657596 0.83170521 234 88 12
-1.4712671 0.62537861 0.79723066 234 88 12
-1.4791906 0.66940367 0.8019315 234 88 12
-1.611938 0.60263103 0.88566071 234 88 12
-1.4998412 0.64024514 0.81328112 234 88 12
-1.5369948 0.61588448 0.83620912 234 88 12
-1.4719585 0.66630983 0.79219925 234 88 12
-1.4859338 0.646613 0.79994601 234 88 12
-1.5144753 0.62868071 0.8177734 234 88 12
-1.4755423 0.6399824 0.7922712 234 88 12
-1.4760383 0.63622785 0.7922712 234 88 12
-1.5287099 0.63752794 0.82396775 234 88 12
-1.4751463 0.65535736 0.78880388 234 88 12
-1.4874157 0.63643771 0.79551268 234 88 12
-1.5782881 -0.49718952 0.61531913 234 88 12
-1.5721399 -0.49627104 0.61343372 234 88 12
-1.569618 -0.49888638 0.61310124 234 88 12
-1.5756978 -0.51464206 0.61715394 234 88 12
-1.5742272 -0.49273154 0.60952735 234 88 12
-1.5991451 -0.5218271 0.62105745 234 88 12
-1.5696394 -0.51343101 0.61129493 234 88 12
-1.5816573 -0.47917709 0.60565823 234 88 12
-1.5730766 -0.52604526 0.61024016 234 88 12
-1.5587841 -0.51783806 0.60482365 234 88 12
-1.5654513 -0.52887535 0.60844064 234 88 12
-1.5857692 -0.47764093 0.60264075 234 88 12
-1.5890082 -0.48035756 0.60003555 234 88 12
-1.5824738 -0.47889695 0.59785098 234 88 12
-1.5929029 -0.49941978 0.60415977 234 88 12
-1.587014 -0.49863151 0.60227293 234 88 12
-1.5766501 -0.4935433 0.59837818 234 88 12
-1.5734589 -0.50057322 0.59851253 234 88 12
-1.5717143 -0.50394297 0.59851253 234 88 12
-1.5652283 -0.51288539 0.59795636 234 88 12
-1.5589944 -0.52707213 0.59828931 234 88 12
-1.5618324 -0.52920187 0.59547251 234 88 12
-1.5873204 -0.48776421 0.59270346 234 88 12
-1.6002239 -0.49508798 0.5938915 234 88 12
-1.5847888 -0.48469484 0.58741796 234 88 12
-1.5830421 -0.48806837 0.58741796 234 88 12
-1.5784665 -0.49883285 0.5877282 234 88 12
-1.5703996 -0.51129156 0.5872255 234 88 12
-1.568652 -0.51466709 0.5872255 234 88 12
-1.5620821 -0.52855015 0.5874176 234 88 12
-1.5901853 -0.48954129 0.58587617 234 88 12
-1.599002 -0.50336051 0.59090382 234 88 12
-1.5971249 -0.50597894 0.58678728 234 88 12
-1.5729483 -0.51273042 0.58019823 234 88 12
-1.5872519 -0.50026762 0.57466429 234 88 12
-1.5939847 -0.51186252 0.57881951 234 88 12
-1.5827461 -0.50599158 0.57416111 234 88 12
-1.5753001 -0.5139842 0.57308185 234 88 12
-1.6187871 -0.53065896 0.58623421 234 88 12
-1.6329155 -0.53926051 0.58857685 234 88 12
-1.5930306 -0.51491767 0.57104796 234 88 12
-1.582147 -0.50895238 0.56232327 234 88 12
-1.5873058 -0.51340652 0.56080431 234 88 12
-0.8094418 -1.4038122 0.64722067 234 88 12
-0.8156203 -1.4085866 0.6453473 234 88 12
-0.80443257 -1.4014153 0.64203954 234 88 12
-0.80438226 -1.4108043 0.64442855 234 88 12
-0.82942569 -1.3925698 0.63916272 234 88 12
-0.81861037 -1.3959372 0.63858503 234 88 12
-0.81514269 -1.3974185 0.63850379 234 88 12
-0.8034355 -1.3988508 0.6373058 234 88 12
-0.83261973 -1.3900617 0.63500655 234 88 12
-0.846771 -1.4643958 0.65644014 234 88 12
-0.80032033 -1.4197606 0.63841242 234 88 12
-0.7905795 -1.407113 0.63376909 234 88 12
-0.83740407 -1.4019274 0.63487822 234 88 12
-0.82558119 -1.4123656 0.63602716 234 88 12
-0.79459387 -1.4066164 0.63022727 234 88 12
-0.86193424 -1.464301 0.65123171 234 88 12
-0.80499196 -1.401774 0.6264056 234 88 12
-0.82967639 -1.3918096 0.62319946 234 88 12
-0.82276684 -1.3949013 0.6230666 234 88 12
-0.8163799 -1.3992738 0.62335813 234 88 12
-0.7952987 -1.4078224 0.622711 234 88 12
-0.79239273 -1.4106312 0.62306774 234 88 12
-0.83534724 -1.3955746 0.62108064 234 88 12
-0.83708376 -1.4101996 0.62538415 234 88 12
-0.84029418 -1.4275711 0.62298232 234 88 12
-0.82895815 -1.4092655 0.61610097 234 88 12
-0.82090425 -1.3994421 0.61211777 234 88 12
-0.81471139 -1.4042834 0.61258316 234 88 12
-0.80775112 -1.4072703 0.61240762 234 88 12
-0.80402565 -1.4082044 0.61212444 234 88 12
-0.82910317 -1.4093093 0.61219031 234 88 12
-0.83930784 -1.443602 0.61597925 234 88 12
-0.82669556 -1.4124123 0.60084945 234 88 12
-0.81769377 -1.410339 0.59883171 234 88 12
0.30781385 -1.4339157 0.97279501 234 88 12
0.30050999 -1.4215499 0.96310991 234 88 12
0.30801985 -1.4205321 0.963099 234 88 12
0.31177768 -1.4183385 0.96237856 234 88 12
0.32292265 -1.4270849 0.96671677 234 88 12
0.32680932 -1.4172536 0.96276104 234 88 12
0.2971718 -1.4357852 0.96492594 234 88 12
0.30071929 -1.4197824 0.95826244 234 88 12
0.32333216 -1.4171766 0.95842618 234 88 12
0.30851412 -1.4248252 0.95676863 234 88 12
0.31981343 -1.4193588 0.95504647 234 88 12
0.33482838 -1.419663 0.956038 234 88 12
0.29375479 -1.4289708 0.95361441 234 88 12
0.2941727 -1.4405217 0.95462525 234 88 12
0.30538678 -1.4534351 0.9609924 234 88 12
0.29794818 -1.4283961 0.94534254 234 88 12
0.3092505 -1.4276506 0.94567662 234 88 12
0.32055488 -1.4250807 0.94519562 234 88 12
0.33562776 -1.4231321 0.94521469 234 88 12
0.33908582 -1.4324898 0.94959998 234 88 12
0.30574453 -1.4322401 0.94338524 234 88 12
0.30974615 -1.4336107 0.94009876 234 88 12
0.33970168 -1.432272 0.94129252 234 88 12
0.32500565 -1.433936 0.93701577 234 88 12
0.30283239 -1.4508024 0.93932849 234 88 12
0.30647081 -1.4345663 0.93200266 234 88 12
0.31023934 -1.4344698 0.93218935 234 88 12
0.3215504 -1.4321259 0.93179435 234 88 12
0.32532308 -1.4314867 0.9317289 234 88 12
0.33663237 -1.4301152 0.93178588 234 88 12
0.33297944 -1.4377011 0.93092585 234 88 12
0.30701557 -1.4520932 0.9319433 234 88 12
0.32583112 -1.4506474 0.92829406 234 88 12
0.31122968 -1.4412297 0.91864896 234 88 12
1.0158978 -0.55128628 1.3382608 234 88 12
1.0233006 -0.55122721 1.3425305 234 88 12
1.0246325 -0.54492116 1.3395848 234 88 12
1.032656 -0.5567553 1.3512311 234 88 12
1.0426723 -0.55795753 1.3481898 234 88 12
1.0138692 -0.56591576 1.3310183 234 88 12
1.0378188 -0.58061635 1.3541397 234 88 12
1.0386025 -0.57307208 1.3500524 234 88 12
1.0362791 -0.55682671 1.3388647 234 88 12
1.0391142 -0.54445004 1.3330811 234 88 12
1.0488975 -0.54145885 1.3370961 234 88 12
1.0154923 -0.56708986 1.327737 234 88 12
1.0271196 -0.57790405 1.3412848 234 88 12
1.0240668 -0.56026542 1.3287266 234 88 12
1.0363208 -0.56359923 1.3381006 234 88 12
1.0209352 -0.5873574 1.3384547 234 88 12
1.0294135 -0.59030676 1.3453838 234 88 12
1.02298 -0.56406832 1.3254169 234 88 12
1.0364664 -0.55059081 1.3253038 234 88 12
1.0434282 -0.54967207 1.3289464 234 88 12
1.0490246 -0.55542314 1.3358516 234 88 12
1.0185672 -0.57559037 1.3198287 234 88 12
1.0516986 -0.55597419 1.3279436 234 88 12
1.0236975 -0.57613689 1.3182954 234 88 12
1.0227097 -0.58021039 1.3151969 234 88 12
1.0252994 -0.57724202 1.3149341 234 88 12
1.0280066 -0.5745737 1.3149341 234 88 12
1.0361152 -0.56653446 1.3149047 234 88 12
1.0412717 -0.5604766 1.3142885 234 88 12
1.0488915 -0.55785996 1.312318 234 88 12
1.0294605 -0.58854914 1.3095369 234 88 12
1.0367918 -0.57853013 1.3077316 234 88 12
1.0509617 -0.56706089 1.3093462 234 88 12
1.0436773 -0.57389462 1.3039995 234 88 12
1.0351013 -0.58739436 1.3021507 234 88 12
1.0379412 -0.58508581 1.3024727 234 88 12
1.0500342 -0.57801831 1.3056574 234 88 12
1.054078 -0.56882733 1.3022411 234 88 12
1.0407002 -0.58926612 1.3018637 234 88 12
1.0488969 -0.58159071 1.3021308 234 88 12
1.5267588 0.23948909 0.92363006 234 88 12
1.5290515 0.22765146 0.91725796 234 88 12
1.5300572 0.23106451 0.91762459 234 88 12
1.5362463 0.23570821 0.91719389 234 88 12
1.5351878 0.21827702 0.90880585 234 88 12
1.535684 0.21506168 0.90468776 234 88 12
1.537331 0.21792355 0.90569091 234 88 12
1.5394877 0.23319216 0.90538222 234 88 12
1.5430294 0.22179666 0.89499682 234 88 12
1.5532836 0.22977215 0.90280426 234 88 12
1.5454071 0.21265732 0.89335334 234 88 12
1.5564717 0.21571267 0.90264761 234 88 12
1.5472192 0.2282321 0.89268738 234 88 12
1.5485754 0.23131703 0.89343315 234 88 12
1.5471417 0.21265954 0.88982499 234 88 12
1.5667713 0.20807201 0.90790242 234 88 12
1.5544605 0.21510981 0.88075495 234 88 12
1.555088 0.2188483 0.88076484 234 88 12
1.555967 0.23097721 0.87974775 234 88 12
1.560663 0.21542779 0.8812483 234 88 12
1.5664836 0.21446805 0.88671201 234 88 12
1.5634097 0.21880335 0.87814969 234 88 12
1.5692083 0.2178165 0.88363838 234 88 12
1.5640029 0.23113915 0.87682265 234 88 12
0.88449985 1.3489629 0.84828776 234 88 12
0.88181508 1.3516477 0.84828776 234 88 12
0.89649266 1.3399758 0.8443681 234 88 12
0.88037604 1.3561037 0.84438747 234 88 12
0.86668903 1.3695233 0.84392256 234 88 12
0.89796907 1.3417616 0.84087729 234 88 12
0.89527941 1.3444512 0.84087729 234 88 12
0.88860643 1.3526764 0.84360003 234 88 12
0.88207972 1.3579245 0.84135723 234 88 12
0.8957507 1.3621682 0.87278098 234 88 12
0.87740672 1.3691566 0.85286248 234 88 12
0.86893052 1.3713878 0.8419084 234 88 12
0.88660252 1.3570704 0.83857793 234 88 12
0.88423252 1.3713491 0.85965621 234 88 12
0.87068063 1.3732154 0.83897275 234 88 12
0.86572349 1.3814467 0.84476787 234 88 12
0.90951788 1.3373351 0.83492529 234 88 12
0.8675468 1.38327 0.84200537 234 88 12
0.85617596 1.3911656 0.83579797 234 88 12
0.91398287 1.3456087 0.84848595 234 88 12
0.89733773 1.3555455 0.83639431 234 88 12
0.88404644 1.3689519 0.83660191 234 88 12
0.88232344 1.3829695 0.85876244 234 88 12
0.87386155 1.3853096 0.84772807 234 88 12
0.87366426 1.3908029 0.857274 234 88 12
0.85524797 1.3956864 0.83288151 234 88 12
0.91916835 1.3357173 0.83061469 234 88 12
0.91078097 1.3437357 0.82994366 234 88 12
0.91037261 1.3467184 0.83462638 234 88 12
0.89483219 1.3598891 0.83031589 234 88 12
0.89370924 1.3713824 0.84917945 234 88 12
0.87410367 1.3814377 0.83180755 234 88 12
0.89984959 1.3855467 0.88611394 234 88 12
0.86191422 1.3948958 0.83411509 234 88 12
0.92143202 1.3376156 0.82874411 234 88 12
0.96399105 1.3577311 0.94380033 234 88 12
0.92471611 1.3587885 0.87364161 234 88 12
0.91200703 1.368856 0.8687923 234 88 12
0.89676476 1.3704344 0.84370852 234 88 12
0.89909852 1.3762469 0.8586632 234 88 12
0.88266766 1.3891423 0.85217291 234 88 12
0.86585432 1.3940272 0.830275 234 88 12
0.8535015 1.4074396 0.8322202 234 88 12
0.035589602 1.7131181 0.61106455 234 88 12
0.023897402 1.7118118 0.61211592 234 88 12
0.046098009 1.7176018 0.6088711 234 88 12
0.034306701 1.7216142 0.61901337 234 88 12
0.03523545 1.7152654 0.60794365 234 88 12
0.023872003 1.7135372 0.60819227 234 88 12
0.053192478 1.7227782 0.60194314 234 88 12
0.037326321 1.7264599 0.61282223 234 88 12
0.027605653 1.7280598 0.61835486 234 88 12
0.011547642 1.7164419 0.6028623 234 88 12
0.049437206 1.7288747 0.60667056 234 88 12
0.026486238 1.7206923 0.59902072 234 88 12
0.022349741 1.720559 0.59997576 234 88 12
0.0094200978 1.726343 0.61374879 234 88 12
0.011209828 1.7185657 0.59970444 234 88 12
-0.0040602782 1.7164632 0.60042816 234 88 12
0.046488423 1.7290747 0.60094607 234 88 12
0.023466639 1.7313683 0.611619 234 88 12
0.051611483 1.7347125 0.60243136 234 88 12
0.020163607 1.7267038 0.59745038 234 88 12
0.0013330751 1.7293512 0.60760528 234 88 12
-1.7578706 0.32990441 0.0054776832 234 88 12
-1.7826205 0.30626234 0.0081376405 234 88 12
-1.7584034 0.3141239 0.0056207669 234 88 12
-1.7789782 0.31948301 0.0039748512 234 88 12
-1.7647212 0.31885457 0.0024682083 234 88 12
-1.7709101 0.30434904 0.0032084018 234 88 12
-1.7610584 0.30132112 0.0021824401 234 88 12
-1.770192 0.29321703 0.0031972404 234 88 12
-1.7612153 0.29353103 0.0022444807 234 88 12
-1.7581297 0.34935042 -0.0022117051 234 88 12
-1.7592772 0.34486961 -0.0020586855 234 88 12
-1.7771189 0.32427987 2.408784e-05 234 88 12
-1.7621584 0.32790458 -0.0016399449 234 88 12
-1.755921 0.31933087 -0.0022727798 234 88 12
-1.7534534 0.30494708 -0.0024567351 234 88 12
-1.7517402 0.29406205 -0.002579015 234 88 12
-1.7512777 0.29037878 -0.0026075346 234 88 12
-1.7651322 0.34193334 -0.0051748757 234 88 12
-1.7868327 0.31947815 -0.0025694089 234 88 12
-1.765486 0.34568286 -0.0089352885 234 88 12
-1.7738316 0.32605636 -0.0078284275 234 88 12
-1.7743369 0.31816196 -0.0077180751 234 88 12
-1.7516809 0.29420862 -0.010223707 234 88 12
-1.7618927 0.35148993 -0.013188073 234 88 12
-1.7592802 0.34507132 -0.013462022 234 88 12
-1.760601 0.32887405 -0.013193748 234 88 12
-1.7541478 0.31648546 -0.013893594 234 88 12
-1.7569367 0.30349791 -0.013468735 234 88 12
-1.7531077 0.29361638 -0.013867083 234 88 12
-1.7516203 0.29040101 -0.014025982 234 88 12
-1.7722819 0.33846569 -0.015593181 234 88 12
-1.7653931 0.31884456 -0.016319826 234 88 12
-1.7945944 0.31958711 -0.016335376 234 88 12
-1.7763499 0.32117385 -0.018698934 234 88 12
-1.7708675 0.33939272 -0.027055627 234 88 12
-1.7595961 0.34129158 -0.028609648 234 88 12
-1.7653686 0.33062461 -0.027740881 234 88 12
-1.7613714 0.32487705 -0.028243702 234 88 12
-1.7670579 0.31437251 -0.027387915 234 88 12
-1.7565489 0.31558305 -0.028832618 234 88 12
-1.7544799 0.30489573 -0.02903489 234 88 12
-1.7537071 0.29358113 -0.029055396 234 88 12
-1.7855455 0.32057232 -0.02861063 234 88 12
-1.9326192 0.23094922 -0.010380837 234 88 12
-1.7641118 0.33145198 -0.039280862 234 88 12
-1.7693594 0.31728581 -0.038388029 234 88 12
-1.8160261 0.29078838 -0.03125935 234 88 12
-1.7587056 0.31473422 -0.039945349 234 88 12
-1.7635167 0.3046965 -0.039150856 234 88 12
-1.7701989 0.328464 -0.042120412 234 88 12
-1.7847764 0.31358305 -0.039780576 234 88 12
-1.8161536 0.29084629 -0.038404096 234 88 12
-1.7590741 0.32639971 -0.051413037 234 88 12
-1.7571647 0.3195563 -0.051657751 234 88 12
-1.7713155 0.31658232 -0.053134501 234 88 12
-1.347865 -1.0934868 -0.19732608 234 88 12
-1.3598964 -1.0781608 -0.20111692 234 88 12
-1.3400264 -1.0954009 -0.20112926 234 88 12
-1.3423649 -1.1051607 -0.20107248 234 88 12
-1.3390499 -1.1132826 -0.20104992 234 88 12
-1.3634317 -1.0768616 -0.20488259 234 88 12
-1.3578727 -1.0885466 -0.20483744 234 88 12
-1.3491958 -1.0890267 -0.20489785 234 88 12
-1.3424333 -1.0988934 -0.20487498 234 88 12
-1.3348321 -1.1011072 -0.20491467 234 88 12
-1.3285944 -1.1052922 -0.2049298 234 88 12
-1.3610319 -1.0733358 -0.20871624 234 88 12
-1.3621899 -1.1015166 -0.20842154 234 88 12
-1.3723501 -1.0838767 -0.21222615 234 88 12
-1.3503689 -1.084314 -0.21250015 234 88 12
-1.3728355 -1.0848118 -0.21965341 234 88 12
-1.3710558 -1.0887563 -0.21961431 234 88 12
-1.3554637 -1.0787091 -0.22007741 234 88 12
-1.352302 -1.0806962 -0.22009863 234 88 12
-1.3481038 -1.0877868 -0.22004639 234 88 12
-1.3415085 -1.0914004 -0.22010024 234 88 12
-1.3307899 -1.1022112 -0.22009857 234 88 12
-1.3282344 -1.1050842 -0.22009283 234 88 12
-1.3864802 -1.1056632 -0.22265789 234 88 12
-1.3594013 -1.0781795 -0.23132938 234 88 12
-1.3645226 -1.0924401 -0.23082417 234 88 12
-1.3541536 -1.0836965 -0.23132236 234 88 12
-1.348798 -1.0890521 -0.23132236 234 88 12
-1.3415734 -1.0917388 -0.23144065 234 88 12
-1.3337817 -1.1001711 -0.23142396 234 88 12
-1.364547 -1.1055683 -0.23416172 234 88 12
-1.3687359 -1.1053575 -0.23771523 234 88 12
-1.3520535 -1.0809642 -0.24655317 234 88 12
-1.3488263 -1.0894363 -0.24636057 234 88 12
-1.3420933 -1.0928081 -0.246484 234 88 12
-0.044641066 -1.7388942 0.028381212 234 88 12
-0.037302125 -1.741089 0.028522961 234 88 12
-0.032969255 -1.7364991 0.028140768 234 88 12
-0.025003137 -1.7337443 0.027888011 234 88 12
-0.018123768 -1.7394718 0.0283114 234 88 12
-0.05255051 -1.7422401 0.024908422 234 88 12
-0.047740318 -1.7322325 0.024056053 234 88 12
-0.041082658 -1.7410995 0.024761412 234 88 12
-0.036628574 -1.7352885 0.024258891 234 88 12
-0.025056111 -1.7342478 0.024119683 234 88 12
-0.018604619 -1.7431498 0.024828872 234 88 12
-0.011017317 -1.7431064 0.024790619 234 88 12
-0.05154521 -1.732172 0.020256501 234 88 12
-0.051321987 -1.7670562 0.023283394 234 88 12
-0.0098321922 -1.7348298 0.020287916 234 88 12
-0.051654454 -1.7334052 0.012746306 234 88 12
-0.047757056 -1.7326024 0.012650215 234 88 12
-0.047241274 -1.763499 0.015565718 234 88 12
-0.036523357 -1.7346017 0.012780655 234 88 12
-0.02505945 -1.7345253 0.012713841 234 88 12
-0.053566631 -1.7527424 0.010846451 234 88 12
-0.04845285 -1.7394218 0.0095096882 234 88 12
-0.010119521 -1.73713 0.0090771038 234 88 12
-0.0069805598 -1.741799 0.0095189698 234 88 12
-0.052875057 -1.7458379 0.0064002741 234 88 12
-0.058099829 -1.8331358 0.011913522 234 88 12
-0.04954581 -1.7502292 -0.00066897948 234 88 12
-0.044432357 -1.7375158 -0.0020953473 234 88 12
-0.036506839 -1.7347662 -0.0024450282 234 88 12
-0.024924181 -1.7337888 -0.0026222842 234 88 12
-0.014442482 -1.7410675 -0.0018866723 234 88 12
-0.051086619 -1.8320991 -0.0019878601 234 88 12
-0.038185816 -1.7496361 -0.012073512 234 88 12
-0.032995593 -1.7375933 -0.013568469 234 88 12
-0.025204055 -1.7362566 -0.013782568 234 88 12
-0.018233309 -1.7412465 -0.013224022 234 88 12
-0.040597484 -1.737538 -0.017329508 234 88 12
-0.02935914 -1.7390969 -0.017211881 234 88 12
1.2160161 -1.1468687 0.54659998 234 88 12
1.2323422 -1.1496032 0.55022532 234 88 12
1.2308519 -1.1346391 0.54634231 234 88 12
1.2422996 -1.1347396 0.54844582 234 88 12
1.2155786 -1.1550977 0.54457235 234 88 12
1.229822 -1.1521569 0.54647535 234 88 12
1.2292271 -1.1398333 0.54334986 234 88 12
1.2100205 -1.1497662 0.53826833 234 88 12
1.2232326 -1.1643745 0.5443579 234 88 12
1.2403162 -1.1487259 0.54366452 234 88 12
1.2106452 -1.1505005 0.53458542 234 88 12
1.2167953 -1.1461234 0.53464836 234 88 12
1.2297217 -1.1391597 0.53534269 234 88 12
1.2327527 -1.1368792 0.53534269 234 88 12
1.2418987 -1.1301936 0.53539193 234 88 12
1.2115438 -1.1519557 0.53113705 234 88 12
1.2164633 -1.1537563 0.52856326 234 88 12
1.2293533 -1.1574326 0.53201532 234 88 12
1.2189689 -1.1491194 0.52385855 234 88 12
1.2277201 -1.1412557 0.52352405 234 88 12
1.2342004 -1.1378204 0.52390063 234 88 12
1.2142503 -1.156356 0.52083063 234 88 12
1.2165039 -1.1519966 0.52012515 234 88 12
1.2429863 -1.1400783 0.52224571 234 88 12
1.2460042 -1.1378076 0.52224571 234 88 12
1.2360047 -1.2129618 0.53640276 234 88 12
1.2209681 -1.1723001 0.51852119 234 88 12
1.2187095 -1.1550766 0.50936711 234 88 12
1.2274661 -1.1472332 0.50902194 234 88 12
1.2324871 -1.1505003 0.51095939 234 88 12
1.2408025 -1.1414915 0.51020247 234 88 12
1.2295417 -1.1509743 0.50244963 234 88 12
1.2346513 -1.1641754 0.50328201 234 88 12
1.24064 -1.1596695 0.50328201 234 88 12
1.2292688 -1.1588734 0.49660051 234 88 12
1.233578 -1.1494366 0.4948121 234 88 12
0.57148349 1.6806524 0.22396156 234 88 12
0.56103086 1.6851414 0.22448356 234 88 12
0.58257371 1.6777544 0.22022121 234 88 12
0.55814707 1.6881557 0.22136232 234 88 12
0.54738551 1.6919891 0.22114033 234 88 12
0.57235682 1.6830269 0.21660121 234 88 12
0.56628448 1.6878926 0.21910667 234 88 12
0.55468702 1.6900069 0.21690208 234 88 12
0.53350592 1.698385 0.21727359 234 88 12
0.53044343 1.7006378 0.2183414 234 88 12
0.59098226 1.6783721 0.21392241 234 88 12
0.58742619 1.6797147 0.21392241 234 88 12
0.58199298 1.6950508 0.22693993 234 88 12
0.56677914 1.6892029 0.21558157 234 88 12
0.54845041 1.6947584 0.21424492 234 88 12
0.53488553 1.7013431 0.2156789 234 88 12
0.52342284 1.7038919 0.21393593 234 88 12
0.59472108 1.6870724 0.21888144 234 88 12
0.59120286 1.6884006 0.21888144 234 88 12
0.55721307 1.7040393 0.22164868 234 88 12
0.53930008 1.7020133 0.21298248 234 88 12
0.59521151 1.6883714 0.21538655 234 88 12
0.58749908 1.6895297 0.21364664 234 88 12
0.55298185 1.7042893 0.21536148 234 88 12
0.5486002 1.7120005 0.22137156 234 88 12
0.50289863 1.7142723 0.20650539 234 88 12
0.59580886 1.6804686 0.20274402 234 88 12
0.58047795 1.7013532 0.21781795 234 88 12
0.55754775 1.7293885 0.23716697 234 88 12
0.54635704 1.723828 0.22739644 234 88 12
0.54492307 1.7288311 0.23185141 234 88 12
0.53279305 1.7294539 0.22790068 234 88 12
0.5178405 1.7105907 0.20342939 234 88 12
0.58023572 1.6922191 0.20359965 234 88 12
0.57712865 1.7032381 0.21349226 234 88 12
0.57323366 1.7037297 0.2125088 234 88 12
0.56234843 1.6985148 0.20314012 234 88 12
0.55522406 1.7011067 0.20304178 234 88 12
0.54057157 1.7055434 0.20194153 234 88 12
0.54133147 1.7148781 0.21160871 234 88 12
0.52876419 1.7151637 0.20712852 234 88 12
0.52249378 1.7266027 0.21624334 234 88 12
0.51123512 1.7146058 0.19991875 234 88 12
0.59508896 1.6886418 0.20062691 234 88 12
0.56660849 1.6989461 0.2001739 234 88 12
0.53559595 1.7125074 0.2020473 234 88 12
0.53233999 1.7143384 0.20265572 234 88 12
0.52397645 1.7146875 0.19981629 234 88 12
0.59661603 1.7015401 0.20930366 234 88 12
0.58043152 1.7020159 0.20357168 234 88 12
0.59703773 1.7455789 0.25426731 234 88 12
0.56404626 1.7025658 0.1978379 234 88 12
0.56029952 1.7199111 0.21404471 234 88 12
0.53168547 1.7433906 0.22694097 234 88 12
0.49581274 1.7261493 0.19562323 234 88 12
0.49068263 1.7249486 0.19243141 234 88 12
0.54133779 1.7160554 0.19783422 234 88 12
0.51803678 1.7276248 0.20067216 234 88 12
0.48767552 1.7276912 0.1890067 234 88 12
-0.27328464 1.7905673 0.044913098 234 88 12
-0.27675393 1.7890075 0.044913098 234 88 12
-0.27432731 1.7920829 0.037653245 234 88 12
-0.28144854 1.7891181 0.037739519 234 88 12
-0.2819252 1.7901783 0.03022825 234 88 12
-0.2966378 1.7849838 0.026766872 234 88 12
-0.28610182 1.8028817 0.027769493 234 88 12
-0.28019029 1.7938095 0.023315653 234 88 12
-0.2838625 1.7924253 0.023416923 234 88 12
-0.29078251 1.789314 0.023416923 234 88 12
-0.29701751 1.7856315 0.023083063 234 88 12
-0.29619032 1.8027723 0.025518298 234 88 12
-0.29268956 1.8088291 0.023318274 234 88 12
-0.29608583 1.8073021 0.023318274 234 88 12
-0.30787128 1.8125845 0.027417285 234 88 12
-0.27961928 1.7943618 0.011434617 234 88 12
-0.31146333 1.8115875 0.023775645 234 88 12
-0.28953177 1.7892869 0.011192671 234 88 12
-0.29459488 1.789047 0.011989454 234 88 12
-0.28453532 1.7986602 0.0099986345 234 88 12
-0.34069088 1.8357677 0.034635786 234 88 12
-0.29492316 1.803071 0.0096344696 234 88 12
-0.29594386 1.7995782 0.008423985 234 88 12
-0.2936514 1.7892659 -0.00011436683 234 88 12
-0.2843993 1.8038685 0.0001153519 234 88 12
-0.28763142 1.7934685 -0.0035235828 234 88 12
-0.29809573 1.7888496 -0.0034886354 234 88 12
-0.29428455 1.8078442 -0.00040945082 234 88 12
-0.29607686 1.791935 -0.0066109914 234 88 12
-0.292705 1.8111725 -0.0032786026 234 88 12
-0.34534162 1.8329076 0.015539343 234 88 12
-0.29110467 1.7929209 -0.015164669 234 88 12
-0.29457343 1.7913615 -0.015164669 234 88 12
-0.28614435 1.8066084 -0.014354328 234 88 12
-0.33318889 1.8400722 0.0087080458 234 88 12
-0.29468155 1.8048732 -0.013466255 234 88 12
-0.30687881 1.8192818 -0.0089684837 234 88 12
-0.28912038 1.7966968 -0.026022706 234 88 12
-0.28393939 1.8058639 -0.027086636 234 88 12
-0.29548267 1.7978419 -0.028315775 234 88 12
-0.55153573 2.0162497 0.11371525 234 88 12
-0.30161867 1.8075143 -0.026892938 234 88 12
-0.31934977 1.8347058 -0.015334113 234 88 12
-0.30399361 1.8228222 -0.027552573 234 88 12
-0.28700891 1.8050269 -0.038888484 234 88 12
-0.28851709 1.8019127 -0.039974399 234 88 12
-0.28273126 1.8072779 -0.05485699 234 88 12
-1.5851189 -0.21581909 -0.77639407 234 88 12
-1.5842416 -0.21975753 -0.77652913 234 88 12
-1.5864683 -0.2263318 -0.77757245 234 88 12
-1.5821211 -0.23661411 -0.7774694 234 88 12
-1.5734094 -0.24334833 -0.77610242 234 88 12
-1.5703312 -0.24548823 -0.77559942 234 88 12
-1.5902712 -0.2162279 -0.78139639 234 88 12
-1.5936105 -0.22377288 -0.78274465 234 88 12
-1.5954381 -0.23916169 -0.78440875 234 88 12
-1.5791883 -0.23011178 -0.78012359 234 88 12
-1.5725309 -0.23856007 -0.77936792 234 88 12
-1.5724251 -0.2477497 -0.78010088 234 88 12
-1.5795164 -0.26716548 -0.78324318 234 88 12
-1.5851778 -0.20774357 -0.78343457 234 88 12
-1.5731411 -0.23032796 -0.7826826 234 88 12
-1.5715108 -0.23364574 -0.78260165 234 88 12
-1.5617187 -0.25823605 -0.78249276 234 88 12
-1.5718282 -0.22983232 -0.78621459 234 88 12
-1.5597501 -0.26183549 -0.78621548 234 88 12
-1.5849185 -0.20410661 -0.79075599 234 88 12
-1.5918827 -0.21952581 -0.79340154 234 88 12
-1.5844918 -0.20438479 -0.79450977 234 88 12
-1.5820336 -0.2069418 -0.79420632 234 88 12
-1.5890933 -0.23161149 -0.7975347 234 88 12
-1.5720321 -0.22185156 -0.79331744 234 88 12
-1.5689824 -0.23332101 -0.79357773 234 88 12
-1.5623838 -0.24653359 -0.79325038 234 88 12
-1.5589772 -0.25307626 -0.79306 234 88 12
-1.5616347 -0.25977132 -0.79411399 234 88 12
-1.5590645 -0.26235378 -0.79378974 234 88 12
-1.5818455 -0.22608101 -0.79942638 234 88 12
-1.5778683 -0.23661579 -0.79942638 234 88 12
-1.5816923 -0.23177278 -0.80735707 234 88 12
-1.6142617 -0.27226838 -0.81656635 234 88 12
-1.5817214 -0.22779061 -0.81082886 234 88 12
-1.5854841 -0.24465801 -0.81274188 234 88 12
-1.6130306 -0.27180356 -0.81987876 234 88 12
-1.5611238 -0.23385344 -0.80737162 234 88 12
-1.5593963 -0.24173568 -0.80760729 234 88 12
-1.5592455 -0.24623762 -0.80789977 234 88 12
-1.5551784 -0.25683933 -0.80788755 234 88 12
-1.5892978 -0.2393288 -0.8167842 234 88 12
-1.565493 -0.22872044 -0.81163251 234 88 12
-1.5880239 -0.23884785 -0.82021147 234 88 12
-1.5757637 -0.21994761 -0.82044351 234 88 12
-1.5649654 -0.22015615 -0.81853431 234 88 12
-1.573954 -0.2322754 -0.82095015 234 88 12
-1.572191 -0.23541185 -0.82084703 234 88 12
-1.5716667 -0.21708654 -0.82328498 234 88 12
-1.5589584 -0.22508892 -0.82159412 234 88 12
-1.5553218 -0.23606639 -0.82168275 234 88 12
-0.58694518 -1.4313214 -0.80803287 234 88 12
-0.57952666 -1.4330189 -0.80782455 234 88 12
-0.57521874 -1.4321297 -0.8073495 234 88 12
-0.57406324 -1.4518667 -0.81099415 234 88 12
-0.59955806 -1.4212198 -0.81084168 234 88 12
-0.57483548 -1.4311465 -0.81095153 234 88 12
-0.56022197 -1.4354211 -0.8107214 234 88 12
-0.60261953 -1.4185632 -0.81437546 234 88 12
-0.60624939 -1.4429812 -0.81906044 234 88 12
-0.60040396 -1.4244912 -0.81908333 234 88 12
-0.60086316 -1.4506981 -0.82378173 234 88 12
-0.56040186 -1.4360663 -0.81845516 234 88 12
-0.60735375 -1.4217417 -0.82283366 234 88 12
-0.61394292 -1.4559851 -0.82924497 234 88 12
-0.59207469 -1.4357339 -0.82426912 234 88 12
-0.58425677 -1.4239181 -0.82169151 234 88 12
-0.57299906 -1.4261833 -0.82134503 234 88 12
-0.56252009 -1.4307764 -0.82145619 234 88 12
-0.61872494 -1.4718175 -0.83589292 234 88 12
-0.62152243 -1.4927846 -0.83965886 234 88 12
-0.59397018 -1.4171604 -0.82494837 234 88 12
-0.60236353 -1.4189239 -0.82955998 234 88 12
-0.60187054 -1.417618 -0.83307314 234 88 12
-0.59860659 -1.4198272 -0.8332333 234 88 12
-0.58940822 -1.4158385 -0.83201009 234 88 12
-0.58701354 -1.420768 -0.83266997 234 88 12
-0.58245271 -1.419014 -0.83210015 234 88 12
-0.57263774 -1.4255441 -0.83256322 234 88 12
-0.56132495 -1.4276624 -0.8322103 234 88 12
-0.59774828 -1.4423383 -0.84420228 234 88 12
-0.59304935 -1.4279023 -0.845366 234 88 12
-0.57416499 -1.4186852 -0.84285814 234 88 12
-0.58849919 -1.413937 -0.84671152 234 88 12
-0.58533984 -1.4164653 -0.84691179 234 88 12
-0.57424688 -1.419085 -0.84667665 234 88 12
-0.56639653 -1.4195713 -0.84630519 234 88 12
-0.57961631 -1.4117483 -0.85713083 234 88 12
0.90676862 -1.496305 -0.36659485 234 88 12
0.90236181 -1.4567317 -0.36458686 234 88 12
0.90966117 -1.4555693 -0.36468926 234 88 12
0.92223072 -1.4629041 -0.36531678 234 88 12
0.89203465 -1.4622109 -0.36840096 234 88 12
0.89517969 -1.4591899 -0.36832887 234 88 12
0.91184562 -1.4674121 -0.36903408 234 88 12
0.92402995 -1.4532341 -0.36864367 234 88 12
0.89337331 -1.4862583 -0.37319157 234 88 12
0.89541399 -1.4785275 -0.37290928 234 88 12
0.89445078 -1.4563328 -0.37197179 234 88 12
0.89800662 -1.4551998 -0.37199107 234 88 12
0.9082256 -1.4496084 -0.37194976 234 88 12
0.92076343 -1.4564581 -0.3724671 234 88 12
0.92210102 -1.4433599 -0.37194934 234 88 12
0.88398987 -1.4612905 -0.37576288 234 88 12
0.90422857 -1.4678229 -0.37635678 234 88 12
0.88321465 -1.459429 -0.38701716 234 88 12
0.88995326 -1.4554167 -0.38698995 234 88 12
0.89690048 -1.4523436 -0.38699132 234 88 12
0.91099334 -1.4472375 -0.38702539 234 88 12
0.91429061 -1.4447932 -0.38699877 234 88 12
0.92365724 -1.4550602 -0.38739979 234 88 12
0.8870576 -1.4772068 -0.39126134 234 88 12
0.90252322 -1.4619796 -0.39106047 234 88 12
0.88968492 -1.4732362 -0.39860764 234 88 12
0.88935393 -1.4543642 -0.39827591 234 88 12
0.89640528 -1.451811 -0.39828667 234 88 12
0.90890861 -1.4578482 -0.39849001 234 88 12
0.91120553 -1.4504477 -0.39837894 234 88 12
0.89536315 -1.4833553 -0.40613917 234 88 12
0.90976948 -1.4444193 -0.40579438 234 88 12
0.89260137 -1.4535506 -0.40956399 234 88 12
0.89615351 -1.4524426 -0.40956751 234 88 12
0.90980852 -1.4453223 -0.40956044 234 88 12
1.7508422 -0.30147019 0.20662558 234 88 12
1.7555244 -0.30156624 0.20755556 234 88 12
1.7569758 -0.29274917 0.20706104 234 88 12
1.7651281 -0.28647357 0.20811018 234 88 12
1.7499081 -0.3052834 0.20289645 234 88 12
1.7539346 -0.30461499 0.20364326 234 88 12
1.7656655 -0.30761445 0.20626478 234 88 12
1.7578981 -0.2881723 0.20295598 234 88 12
1.7644044 -0.27994496 0.20351864 234 88 12
1.7667187 -0.27739507 0.20375273 234 88 12
1.7725716 -0.27911076 0.20508042 234 88 12
1.7487303 -0.30882245 0.19909348 234 88 12
1.7661343 -0.29738614 0.20159572 234 88 12
1.7652963 -0.28590283 0.20037121 234 88 12
1.7502415 -0.30980432 0.19172058 234 88 12
1.7516292 -0.30614561 0.19166622 234 88 12
1.7527167 -0.30214325 0.19151574 234 88 12
1.7578967 -0.29231542 0.19167669 234 88 12
1.7700601 -0.28510612 0.18970135 234 88 12
1.7461176 -0.32011932 0.18404296 234 88 12
1.7679694 -0.29802293 0.18664838 234 88 12
1.7518618 -0.31055301 0.18046372 234 88 12
1.7488469 -0.31724843 0.1765632 234 88 12
1.7525334 -0.31095034 0.17675637 234 88 12
1.7550917 -0.30338493 0.17656586 234 88 12
1.7674726 -0.31231263 0.18026999 234 88 12
1.765337 -0.29419461 0.17794707 234 88 12
1.7675916 -0.29157448 0.17819032 234 88 12
1.7643661 -0.28739828 0.17314094 234 88 12
1.7506651 -0.31821576 0.16537058 234 88 12
1.7530562 -0.31567878 0.16566685 234 88 12
1.7586612 -0.30111301 0.16544327 234 88 12
1.7538168 -0.32136533 0.16255969 234 88 12
1.7694006 -0.29742965 0.16371997 234 88 12
1.7687697 -0.29142752 0.16291891 234 88 12
1.7795283 -0.2988933 0.16631503 234 88 12
1.7780689 -0.29114467 0.15740396 234 88 12
1.7578461 -0.31442413 0.15108091 234 88 12
1.7705349 -0.31327423 0.15414393 234 88 12
1.7651485 -0.3018491 0.15149583 234 88 12
1.7704122 -0.29220966 0.15172981 234 88 12
1.7631071 -0.30436882 0.14736141 234 88 12
0.92927229 1.5341152 -0.07568793 234 88 12
0.92947239 1.5416406 -0.074183717 234 88 12
0.93689537 1.5481675 -0.071467631 234 88 12
0.91867298 1.5486199 -0.074927546 234 88 12
0.92352921 1.5540942 -0.072916128 234 88 12
0.94352585 1.5211215 -0.079306774 234 88 12
0.94056147 1.5236946 -0.079384044 234 88 12
0.93215197 1.5316185 -0.079479948 234 88 12
0.93797654 1.5376501 -0.077138446 234 88 12
0.93106735 1.5386643 -0.078302652 234 88 12
0.92023796 1.549325 -0.078335986 234 88 12
0.91237551 1.5610564 -0.077571899 234 88 12
0.90390968 1.5652928 -0.078407168 234 88 12
0.95574498 1.5072746 -0.083499067 234 88 12
0.95330811 1.5100733 -0.083426602 234 88 12
0.95566183 1.5336822 -0.078226767 234 88 12
0.93513107 1.5513813 -0.078793876 234 88 12
0.92650706 1.5554359 -0.079709053 234 88 12
0.90512198 1.5730416 -0.080466002 234 88 12
0.89368755 1.576295 -0.082104519 234 88 12
0.9618513 1.517628 -0.084029533 234 88 12
0.95321047 1.5365096 -0.081949905 234 88 12
0.92336857 1.5616512 -0.082904398 234 88 12
0.91886759 1.577912 -0.080516323 234 88 12
0.95988798 1.5054327 -0.090773411 234 88 12
0.95707113 1.5080644 -0.090811551 234 88 12
0.95438331 1.5107521 -0.090811551 234 88 12
0.94584507 1.5224137 -0.090168573 234 88 12
0.95565414 1.5557851 -0.08127927 234 88 12
1.074181 1.6041098 -0.046930563 234 88 12
0.96706498 1.5671893 -0.076582469 234 88 12
0.91046995 1.5607371 -0.089561626 234 88 12
0.90463346 1.5622886 -0.090443745 234 88 12
0.9675706 1.5126978 -0.091525264 234 88 12
0.95379078 1.5220294 -0.092453443 234 88 12
0.9525373 1.5364661 -0.089702658 234 88 12
0.93785775 1.534341 -0.09320908 234 88 12
0.92962998 1.5422871 -0.093267851 234 88 12
0.96214753 1.5583742 -0.083126128 234 88 12
0.9186517 1.5528861 -0.093346976 234 88 12
0.96315312 1.5763268 -0.079170346 234 88 12
0.92244673 1.5651618 -0.089993715 234 88 12
0.8985222 1.5783081 -0.092242651 234 88 12
0.96807033 1.5280681 -0.092000723 234 88 12
0.93391484 1.5477321 -0.09506496 234 88 12
0.93125761 1.5503893 -0.09506496 234 88 12
0.91362059 1.5764698 -0.093279578 234 88 12
0.93882102 1.5748094 -0.092041954 234 88 12
0.94553053 1.5806797 -0.089346781 234 88 12
0.92729706 1.5777955 -0.093871206 234 88 12
0.96295601 1.507199 -0.10522024 234 88 12
0.96092957 1.5101619 -0.10501699 234 88 12
0.95574069 1.5117704 -0.10579412 234 88 12
0.95849466 1.5243145 -0.1024737 234 88 12
0.97767001 1.5504402 -0.092641249 234 88 12
0.93719345 1.5381514 -0.10409383 234 88 12
0.9307003 1.5393386 -0.10524546 234 88 12
0.95223564 1.5549419 -0.097184613 234 88 12
0.92737901 1.5491627 -0.10383402 234 88 12
0.91793233 1.5566411 -0.10426124 234 88 12
0.91043383 1.561213 -0.10489645 234 88 12
0.98288071 1.5972714 -0.081345685 234 88 12
0.90371615 1.5733024 -0.10373054 234 88 12
0.97131842 1.5407803 -0.0998649 234 88 12
0.94196409 1.5326957 -0.10809575 234 88 12
0.9654243 1.5493283 -0.099281475 234 88 12
0.92265046 1.5728719 -0.10350916 234 88 12
0.9004119 1.5722884 -0.10852653 234 88 12
0.98977375 1.5375057 -0.10023546 234 88 12
0.95946413 1.5286834 -0.1089481 234 88 12
0.95403349 1.5376289 -0.10816552 234 88 12
0.96560919 1.5495131 -0.10294221 234 88 12
0.94638097 1.5493098 -0.10726861 234 88 12
0.96155041 1.5107553 -0.11633936 234 88 12
0.93768847 1.5349653 -0.11626088 234 88 12
0.94393563 1.5521303 -0.1109826 234 88 12
0.9277305 1.5496507 -0.11519508 234 88 12
0.92768091 1.5605687 -0.11274479 234 88 12
0.91034883 1.5759599 -0.11318235 234 88 12
0.96100873 1.506786 -0.12123525 234 88 12
0.9583202 1.5094745 -0.12123525 234 88 12
0.96029788 1.5217415 -0.11798384 234 88 12
0.95350367 1.5264587 -0.11845792 234 88 12
0.96256709 1.5449136 -0.11217674 234 88 12
0.93252254 1.5405129 -0.12003905 234 88 12
0.94313133 1.5482932 -0.11584163 234 88 12
0.96058309 1.565685 -0.10788842 234 88 12
0.92790425 1.5643766 -0.11564619 234 88 12
0.96226788 1.5802798 -0.10417254 234 88 12
0.91451782 1.5667828 -0.11815245 234 88 12
0.90623391 1.5674706 -0.11988634 234 88 12
0.90826589 1.575367 -0.11762013 234 88 12
0.90356702 1.5773293 -0.11824475 234 88 12
0.96434629 1.5347281 -0.11788882 234 88 12
0.94646883 1.5349505 -0.1219682 234 88 12
1.0268222 1.5838716 -0.092097923 234 88 12
0.93441647 1.5632699 -0.11820953 234 88 12
0.92381054 1.5737661 -0.11823487 234 88 12
0.95954698 1.5102204 -0.12853818 234 88 12
0.95575953 1.5124375 -0.12890543 234 88 12
0.96104246 1.5223837 -0.12918524 234 88 12
0.94649333 1.5239191 -0.1322653 234 88 12
0.94363773 1.5303031 -0.13143021 234 88 12
0.93807459 1.5355797 -0.13149804 234 88 12
0.93059945 1.5401187 -0.13219297 234 88 12
0.92710012 1.5535567 -0.12984069 234 88 12
0.96020895 1.5729284 -0.11741973 234 88 12
0.92191899 1.5625724 -0.12893313 234 88 12
0.91315705 1.5630454 -0.13089493 234 88 12
0.91092563 1.5766542 -0.12820219 234 88 12
0.94626528 1.5785218 -0.12312338 234 88 12
0.92687064 1.5752046 -0.1285626 234 88 12
0.93709475 1.5538833 -0.13504468 234 88 12
1.1573524 1.656145 -0.056898326 234 88 12
0.94706827 1.5244935 -0.14363049 234 88 12
0.93875635 1.532449 -0.14371784 234 88 12
0.93945557 1.5438977 -0.14074022 234 88 12
0.93294746 1.5450867 -0.14204402 234 88 12
0.93027437 1.5477598 -0.14204402 234 88 12
0.91606927 1.5571704 -0.1432192 234 88 12
0.91489416 1.5640339 -0.14182492 234 88 12
0.97795326 1.5659689 -0.12957366 234 88 12
0.9275226 1.56508 -0.14229721 234 88 12
0.96724969 1.5584605 -0.13782193 234 88 12
0.9939962 1.5721667 -0.12767859 234 88 12
0.93775308 1.5361468 -0.15469423 234 88 12
0.93114138 1.5410322 -0.15513195 234 88 12
0.97109604 1.5600467 -0.1401795 234 88 12
1.0101513 1.5784032 -0.12562196 234 88 12
0.92182046 1.5523094 -0.15463591 234 88 12
0.91584831 1.5611076 -0.15391931 234 88 12
0.94261074 1.5306898 -0.1587311 234 88 12
0.93375963 1.549554 -0.15616395 234 88 12
0.93462676 1.5608138 -0.15305479 234 88 12
0.92653686 1.5650859 -0.15403363 234 88 12
0.91310436 1.5747021 -0.15501204 234 88 12
0.97845161 1.5630877 -0.14493039 234 88 12
0.96690869 1.5622339 -0.14814369 234 88 12
0.93617213 1.5615014 -0.15630065 234 88 12
0.90740895 1.5692455 -0.16174889 234 88 12
0.9403224 1.5337634 -0.16630171 234 88 12
0.93712062 1.5362452 -0.16649038 234 88 12
0.94826633 1.5444424 -0.1652586 234 88 12
0.93960601 1.5484564 -0.16648918 234 88 12
0.93234897 1.5493736 -0.16816831 234 88 12
0.92494476 1.5612522 -0.16698326 234 88 12
0.91905618 1.5663757 -0.16718589 234 88 12
0.90504229 1.5722829 -0.16933298 234 88 12
0.9484551 1.5446311 -0.16899629 234 88 12
0.9332791 1.5461545 -0.17265081 234 88 12
0.94764864 1.5624982 -0.16442952 234 88 12
0.92014414 1.5596259 -0.17256078 234 88 12
0.91542917 1.5760016 -0.16943939 234 88 12
0.93913585 1.5737801 -0.16747205 234 88 12
0.92641938 1.576385 -0.17020726 234 88 12
0.93825382 1.5445992 -0.17947514 234 88 12
0.93122953 1.5456071 -0.18111965 234 88 12
0.92645264 1.5474976 -0.18190858 234 88 12
0.91923481 1.5595376 -0.18059048 234 88 12
0.91936958 1.5632299 -0.17954442 234 88 12
0.90397382 1.5794744 -0.17931244 234 88 12
0.91818798 1.5773263 -0.17985158 234 88 12
0.91047156 1.5676898 -0.19242303 234 88 12
0.31644115 1.7139308 -0.1909804 234 88 12
0.33024815 1.7203263 -0.19412646 234 88 12
0.3240661 1.7130023 -0.19480011 234 88 12
0.31625086 1.7148876 -0.19467221 234 88 12
0.30443329 1.718598 -0.19440325 234 88 12
0.28804263 1.7548711 -0.1912943 234 88 12
0.29017133 1.7135502 -0.19491594 234 88 12
0.32914343 1.7262827 -0.19733289 234 88 12
0.31759056 1.7289681 -0.19714502 234 88 12
0.31306747 1.7111877 -0.19879772 234 88 12
0.28825071 1.72718 -0.19745697 234 88 12
0.27849787 1.7163051 -0.19850303 234 88 12
0.33920684 1.7118148 -0.20238435 234 88 12
0.29551804 1.7280195 -0.20106731 234 88 12
0.26727727 1.7156086 -0.20240012 234 88 12
0.34535253 1.7185524 -0.20545726 234 88 12
0.34340489 1.709259 -0.20638984 234 88 12
0.33117768 1.7145748 -0.20592925 234 88 12
0.31876791 1.7215933 -0.20530075 234 88 12
0.30514318 1.713376 -0.20619033 234 88 12
0.29197446 1.7266815 -0.20494226 234 88 12
0.28904969 1.7210128 -0.2055206 234 88 12
0.27773005 1.7219002 -0.20549437 234 88 12
0.26731461 1.7150695 -0.20622888 234 88 12
0.25545996 1.7203352 -0.20577122 234 88 12
0.34735119 1.7080814 -0.21027125 234 88 12
0.33820757 1.7167757 -0.20942779 234 88 12
0.31784269 1.7268912 -0.20850158 234 88 12
0.2941111 1.7372432 -0.20757009 234 88 12
0.33161637 1.7117451 -0.21375763 234 88 12
0.31543264 1.7410077 -0.2107292 234 88 12
0.27132162 1.7126118 -0.21401936 234 88 12
0.28929919 1.7448624 -0.2141287 234 88 12
0.27819017 1.7462223 -0.214046 234 88 12
0.27044851 1.7783829 -0.21053913 234 88 12
0.27483478 1.7144753 -0.21757464 234 88 12
0.26751724 1.7126722 -0.21781841 234 88 12
0.26350036 1.7148416 -0.21760312 234 88 12
0.25203782 1.7164142 -0.21749905 234 88 12
0.23943509 1.7308693 -0.21597831 234 88 12
0.33428583 1.7172521 -0.22065714 234 88 12
0.33020943 1.7191975 -0.22046047 234 88 12
0.30773193 1.7863683 -0.21292618 234 88 12
0.30422309 1.7865614 -0.21292618 234 88 12
0.31134 1.7207265 -0.22040443 234 88 12
0.30213797 1.7321485 -0.21915711 234 88 12
0.30001462 1.7217278 -0.22036123 234 88 12
0.29252875 1.7219762 -0.22037995 234 88 12
0.28054699 1.7280532 -0.21976088 234 88 12
0.24694453 1.7297909 -0.21977365 234 88 12
0.24051721 1.7186284 -0.22108963 234 88 12
0.3320109 1.7294828 -0.22297812 234 88 12
0.31689042 1.7317735 -0.22280596 234 88 12
0.30456087 1.7399672 -0.22191893 234 88 12
0.29748812 1.7133224 -0.22510988 234 88 12
0.28178233 1.7461728 -0.22133444 234 88 12
0.27811676 1.7463745 -0.22133444 234 88 12
0.26556408 1.7290351 -0.22346263 234 88 12
0.2587983 1.7561868 -0.22030175 234 88 12
0.34590754 1.7145618 -0.22840546 234 88 12
0.33515227 1.7121371 -0.22877288 234 88 12
0.26786035 1.7405994 -0.22575738 234 88 12
0.24587178 1.7403288 -0.22593774 234 88 12
0.33854878 1.7138039 -0.23230679 234 88 12
0.33511916 1.7121254 -0.23254125 234 88 12
0.32844365 1.7284658 -0.23053572 234 88 12
0.32551411 1.7241614 -0.23109642 234 88 12
0.31503677 1.7424053 -0.22887816 234 88 12
0.29326415 1.8526142 -0.21519102 234 88 12
0.31305948 1.709444 -0.23303038 234 88 12
0.30856648 1.7140846 -0.23247875 234 88 12
0.30467278 1.7150331 -0.23238657 234 88 12
0.29350662 1.7144915 -0.23253174 234 88 12
0.28772333 1.7291466 -0.23073164 234 88 12
0.27326417 1.7554841 -0.22752468 234 88 12
0.27247396 1.7327104 -0.23038958 234 88 12
0.26605687 1.7243643 -0.23148184 234 88 12
0.25797805 1.7300977 -0.23081779 234 88 12
0.24419601 1.7572824 -0.22749978 234 88 12
0.24413 1.719486 -0.23224588 234 88 12
0.24063943 1.7165568 -0.23263778 234 88 12
0.31744769 1.7278825 -0.23439495 234 88 12
0.30311358 1.7925729 -0.22613135 234 88 12
0.25666296 1.9319131 -0.20844276 234 88 12
0.26962525 1.7555419 -0.23115849 234 88 12
0.27031663 1.7196932 -0.23578945 234 88 12
0.24743979 1.7606809 -0.23065184 234 88 12
0.24518333 1.746936 -0.23244537 234 88 12
0.29728246 1.738982 -0.23677449 234 88 12
0.29524195 1.7278994 -0.23826428 234 88 12
0.2654973 1.8661993 -0.2200776 234 88 12
0.26008886 1.8831236 -0.21786499 234 88 12
0.24304388 1.7306008 -0.23828711 234 88 12
0.23187655 1.7309338 -0.2383246 234 88 12
0.33388922 1.7182704 -0.24300313 234 88 12
0.31470236 1.743822 -0.23965129 234 88 12
0.31164253 1.7176611 -0.24325407 234 88 12
0.29912826 1.77359 -0.23569529 234 88 12
0.2968109 1.7169442 -0.24346386 234 88 12
0.29342684 1.714437 -0.24383242 234 88 12
0.27095252 1.7443911 -0.23990291 234 88 12
0.25955603 1.7483871 -0.23944196 234 88 12
0.25939363 1.7164121 -0.24381848 234 88 12
0.25504059 1.7220823 -0.24307539 234 88 12
0.23356734 1.7541428 -0.23885013 234 88 12
0.33555409 1.7089779 -0.24803613 234 88 12
0.33180544 1.7089474 -0.24806942 234 88 12
0.32646352 1.7179838 -0.24684031 234 88 12
0.31469446 1.7436787 -0.24331892 234 88 12
0.30582082 1.7307742 -0.24520186 234 88 12
0.2757802 1.7349018 -0.24485399 234 88 12
0.26180604 1.7900703 -0.23720589 234 88 12
0.24995597 1.7351592 -0.24501765 234 88 12
0.2394972 1.728296 -0.24606347 234 88 12
0.28724676 1.7315708 -0.24893157 234 88 12
0.24984246 1.9818983 -0.21309468 234 88 12
0.21640576 2.216135 -0.17954889 234 88 12
0.24874443 1.9471573 -0.21811818 234 88 12
0.22792451 2.092303 -0.19733217 234 88 12
0.22986999 2.0564392 -0.20249358 234 88 12
0.25011373 1.7686026 -0.24388117 234 88 12
0.24937846 1.7406436 -0.24792281 234 88 12
0.24196666 1.7414026 -0.24787213 234 88 12
0.27987298 1.7846555 -0.24482669 234 88 12
0.21722469 2.2097754 -0.18237635 234 88 12
0.22615021 2.1245902 -0.19491966 234 88 12
0.23974785 1.9738287 -0.21713687 234 88 12
0.25173777 1.7529032 -0.2497586 234 88 12
0.23996748 1.7225959 -0.25434309 234 88 12
0.32036597 1.7093532 -0.25942138 234 88 12
0.31586891 1.7138551 -0.25877532 234 88 12
0.30365014 1.7203023 -0.25789839 234 88 12
0.2955142 1.7498239 -0.25348338 234 88 12
0.29059464 1.7335523 -0.25599545 234 88 12
0.28556791 1.7162366 -0.25866693 234 88 12
0.25086123 1.8808656 -0.23395726 234 88 12
0.26208851 1.7570515 -0.25266522 234 88 12
0.26282066 1.7184643 -0.25851879 234 88 12
0.25645009 1.7426308 -0.25490221 234 88 12
0.25002161 1.7338376 -0.25629124 234 88 12
0.24762283 1.7205389 -0.25833076 234 88 12
0.23993151 1.7227588 -0.25805795 234 88 12
0.32249305 1.7186432 -0.26172882 234 88 12
0.29550636 1.7496814 -0.25713018 234 88 12
0.28082311 1.7236606 -0.26130494 234 88 12
0.26419735 1.7692978 -0.25434586 234 88 12
0.24507184 1.8160592 -0.24723324 234 88 12
0.24516562 1.7816466 -0.25258729 234 88 12
0.24286056 1.7311687 -0.26046178 234 88 12
0.31597689 1.7128035 -0.26645142 234 88 12
0.27799693 1.8666629 -0.24226575 234 88 12
0.22053233 2.1516609 -0.19735287 234 88 12
0.22966269 2.0575995 -0.21226227 234 88 12
0.26470843 1.7340437 -0.26351631 234 88 12
0.31117287 1.7192026 -0.26920778 234 88 12
0.3088083 1.7105447 -0.27064121 234 88 12
0.30205578 1.7301171 -0.2675094 234 88 12
0.27587014 1.8592589 -0.24668032 234 88 12
0.29254723 1.7191958 -0.26937613 234 88 12
0.28000212 1.7295195 -0.26780486 234 88 12
0.27729639 1.7217275 -0.2691001 234 88 12
0.26683411 1.7763124 -0.26029074 234 88 12
0.26275116 1.7184242 -0.26976946 234 88 12
0.25472212 1.7235514 -0.26900527 234 88 12
0.30369115 1.7192359 -0.27300385 234 88 12
0.24043694 2.1177793 -0.20708473 234 88 12
0.27610937 1.7308574 -0.27131802 234 88 12
0.26467544 1.7936091 -0.26095238 234 88 12
0.26197577 1.7872524 -0.26203787 234 88 12
0.26357758 1.7108395 -0.27477324 234 88 12
0.30471468 1.7123483 -0.27790248 234 88 12
0.27927345 1.7878393 -0.26526219 234 88 12
0.24665508 1.9395101 -0.23969261 234 88 12
0.25042063 1.7287648 -0.27561158 234 88 12
0.30470654 1.7122004 -0.28168604 234 88 12
0.29327866 1.7134289 -0.28158152 234 88 12
0.27912423 1.7629092 -0.27309036 234 88 12
0.27770466 1.7464697 -0.27597022 234 88 12
0.22472316 2.1349425 -0.20874752 234 88 12
0.24096949 1.9854487 -0.2346562 234 88 12
0.26515767 1.7602469 -0.27368855 234 88 12
0.25999716 1.7738446 -0.27136728 234 88 12
0.31531787 1.7158326 -0.28469226 234 88 12
0.30638951 1.7251806 -0.28311491 234 88 12
0.28132474 1.7726079 -0.27491391 234 88 12
0.28135395 1.7461253 -0.27963012 234 88 12
0.24372758 1.9851885 -0.23742229 234 88 12
0.24664243 1.9392803 -0.24556987 234 88 12
0.24841091 1.9000945 -0.25253147 234 88 12
0.26726922 1.7108698 -0.28604713 234 88 12
0.25885037 1.7189709 -0.28468686 234 88 12
0.25508621 1.7191781 -0.28468686 234 88 12
0.31589565 1.7121142 -0.28910285 234 88 12
0.30989292 1.7261978 -0.28660196 234 88 12
0.28898349 1.7433017 -0.283701 234 88 12
0.22126703 2.1929643 -0.20261101 234 88 12
0.21727629 2.2084172 -0.19984098 234 88 12
0.22265626 2.1509724 -0.210233 234 88 12
0.26957116 1.7229166 -0.28760219 234 88 12
0.29334474 1.7123473 -0.2930429 234 88 12
0.2715506 1.818673 -0.27353296 234 88 12
0.2213482 2.1771481 -0.20751782 234 88 12
0.25592321 1.8888165 -0.26067495 234 88 12
0.26398313 1.7694554 -0.28274435 234 88 12
0.26014715 1.7403384 -0.28818724 234 88 12
0.31132305 1.7168846 -0.29575211 234 88 12
0.30681008 1.721903 -0.29484898 234 88 12
0.29979032 1.7435505 -0.29082364 234 88 12
0.30101028 1.7110325 -0.29696754 234 88 12
0.2922388 1.7199425 -0.29537201 234 88 12
0.27452719 1.7963318 -0.28109396 234 88 12
0.27201483 1.7618649 -0.28764567 234 88 12
0.26841664 1.7620629 -0.28764567 234 88 12
0.26564887 1.7242085 -0.29484144 234 88 12
0.30872253 1.7329133 -0.29641888 234 88 12
0.2783379 1.7934673 -0.28505066 234 88 12
0.26476645 1.8187808 -0.28030759 234 88 12
0.2608507 1.7952663 -0.28488916 234 88 12
0.31947646 1.7122951 -0.30403355 234 88 12
0.29343638 1.7110845 -0.30455387 234 88 12
0.2803264 1.7527682 -0.29649213 234 88 12
0.27783674 1.744238 -0.29819793 234 88 12
0.2568512 1.8555601 -0.27651602 234 88 12
0.26572865 1.7542295 -0.29636267 234 88 12
0.26380563 1.7397037 -0.29924232 234 88 12
0.32002687 1.7088147 -0.30847251 234 88 12
0.30199209 1.7285568 -0.30471236 234 88 12
0.27740815 1.7743018 -0.29580963 234 88 12
0.26571187 1.7834175 -0.29411057 234 88 12
0.31623235 1.7088751 -0.31226173 234 88 12
0.304526 1.7357091 -0.30691153 234 88 12
0.30295905 1.7220294 -0.30972371 234 88 12
0.29198599 1.7209119 -0.3100754 234 88 12
0.28720182 1.7286428 -0.30854985 234 88 12
0.25683722 1.8553059 -0.28301573 234 88 12
0.2706587 1.712523 -0.31202894 234 88 12
0.26694253 1.7121613 -0.31214461 234 88 12
0.31153703 1.7145603 -0.31489116 234 88 12
0.27779752 1.7152494 -0.31513411 234 88 12
0.30454576 1.7112412 -0.31941238 234 88 12
0.28178036 1.7131994 -0.31926307 234 88 12
0.27468738 1.7098827 -0.32004806 234 88 12
0.29539138 1.7224449 -0.32085633 234 88 12
0.29165339 1.7226506 -0.32085633 234 88 12
0.28574264 1.7113956 -0.3233518 234 88 12
0.29724684 1.7094688 -0.32738724 234 88 12
-1.2640245 0.69968468 -1.0765302 234 88 12
-1.2585635 0.68767089 -1.0854433 234 88 12
-1.2546399 0.69855052 -1.0886045 234 88 12
-1.2591157 0.68993407 -1.0902101 234 88 12
-1.2524928 0.69819641 -1.0917251 234 88 12
-1.2474655 0.69664568 -1.1017628 234 88 12
-0.91383314 -0.61790508 -1.3900708 234 88 12
-0.90656942 -0.62020928 -1.3882542 234 88 12
-0.92120206 -0.59586358 -1.3888201 234 88 12
-0.9185133 -0.59855229 -1.3888201 234 88 12
-0.91582459 -0.60124105 -1.3888201 234 88 12
-0.92345029 -0.62064809 -1.3986368 234 88 12
-0.90526193 -0.61229974 -1.3890002 234 88 12
-0.8946026 -0.6231904 -1.3890842 234 88 12
-0.88875467 -0.627855 -1.3886545 234 88 12
-0.91973281 -0.60174805 -1.3945101 234 88 12
-0.90298653 -0.63024139 -1.3987391 234 88 12
-0.8814019 -0.63119572 -1.3913122 234 88 12
-0.92794001 -0.59530872 -1.3992051 234 88 12
-0.94277596 -0.62725329 -1.4158999 234 88 12
-0.91799897 -0.59296769 -1.3948219 234 88 12
-0.90772843 -0.60447252 -1.3952624 234 88 12
-0.89620876 -0.61399209 -1.3945485 234 88 12
-0.89352095 -0.61667991 -1.3945485 234 88 12
-0.88409704 -0.62939954 -1.3957247 234 88 12
-0.88015413 -0.63022476 -1.3946121 234 88 12
-0.92852175 -0.60460746 -1.4067363 234 88 12
-0.94643658 -0.64128172 -1.4260482 234 88 12
-0.90755361 -0.59829962 -1.3970869 234 88 12
-0.89418691 -0.61186773 -1.397158 234 88 12
-0.93918526 -0.61671805 -1.4187055 234 88 12
-0.91345286 -0.60893089 -1.4069508 234 88 12
-0.88709629 -0.63559401 -1.4070584 234 88 12
-0.91993183 -0.5855574 -1.4050719 234 88 12
-0.92712778 -0.6185081 -1.4190272 234 88 12
-0.93069196 -0.65093517 -1.4315381 234 88 12
-0.87959021 -0.61869645 -1.4025682 234 88 12
-0.9180029 -0.59068519 -1.4101974 234 88 12
-0.91214007 -0.58806533 -1.4072746 234 88 12
-0.90420175 -0.59625548 -1.4073614 234 88 12
-0.93149257 -0.64669508 -1.4341437 234 88 12
-0.8835541 -0.62549675 -1.4103224 234 88 12
-0.88022226 -0.63372982 -1.4120111 234 88 12
-0.90289414 -0.60905558 -1.4153026 234 88 12
-0.89268154 -0.59986472 -1.4086761 234 88 12
-0.88999516 -0.60255116 -1.4086761 234 88 12
-0.87910545 -0.61308056 -1.4085531 234 88 12
-0.87991261 -0.62096518 -1.4115214 234 88 12
-0.92290664 -0.62282389 -1.4345331 234 88 12
-0.90508884 -0.60096973 -1.4212238 234 88 12
-0.91393203 -0.60942501 -1.4309094 234 88 12
-0.88202626 -0.60007048 -1.4171903 234 88 12
-0.89733839 -0.58378935 -1.4208548 234 88 12
-0.89385957 -0.58519363 -1.4201711 234 88 12
-0.89100552 -0.59450883 -1.4223003 234 88 12
-0.88020164 -0.59824997 -1.4199729 234 88 12
0.35655898 -1.2412753 -1.1927317 234 88 12
0.36029366 -1.2389047 -1.1920643 234 88 12
0.3715502 -1.2357076 -1.1915543 234 88 12
0.3524462 -1.2383211 -1.1953031 234 88 12
0.34463206 -1.239116 -1.1990546 234 88 12
0.35965574 -1.248647 -1.2035255 234 88 12
0.33690757 -1.2420995 -1.2036039 234 88 12
0.34803742 -1.2373811 -1.2025422 234 88 12
0.3526555 -1.3045912 -1.2275748 234 88 12
0.35561222 -1.2471429 -1.2065973 234 88 12
0.37421381 -1.2314391 -1.2019439 234 88 12
0.3365373 -1.2393159 -1.2064627 234 88 12
0.35887185 -1.2290593 -1.2040684 234 88 12
0.37388119 -1.2271682 -1.2042812 234 88 12
0.33670229 -1.2549851 -1.2160069 234 88 12
0.35851979 -1.2272583 -1.2073139 234 88 12
0.35066327 -1.2265172 -1.2104932 234 88 12
0.33589324 -1.2467997 -1.2206773 234 88 12
0.33938041 -1.238886 -1.2180915 234 88 12
0.34672472 -1.2342089 -1.2168703 234 88 12
0.34244761 -1.2232732 -1.2166649 234 88 12
0.34620944 -1.2231593 -1.2168415 234 88 12
0.3612144 -1.2214929 -1.217123 234 88 12
0.37245521 -1.2198569 -1.217199 234 88 12
0.34214163 -1.2365468 -1.2289099 234 88 12
0.36425692 -1.2299066 -1.2278905 234 88 12
0.36765 -1.2134706 -1.2263498 234 88 12
0.37135839 -1.2186223 -1.2282904 234 88 12
0.34858143 -1.2162632 -1.2300823 234 88 12
0.35981455 -1.2160102 -1.2306148 234 88 12
0.36354953 -1.2143344 -1.2302619 234 88 12
0.34719157 -1.3498093 -1.2777773 234 88 12
0.35572621 -1.2144896 -1.2337205 234 88 12
1.5302733 -0.65589112 -0.64030874 234 88 12
1.5306901 -0.64975399 -0.63964623 234 88 12
1.5353142 -0.65065289 -0.64048213 234 88 12
1.5451044 -0.66037381 -0.64317954 234 88 12
1.5507444 -0.64953053 -0.64278233 234 88 12
1.5413197 -0.63409114 -0.64331234 234 88 12
1.5187217 -0.65974379 -0.65049231 234 88 12
1.516266 -0.6632998 -0.65435559 234 88 12
1.5226235 -0.65339315 -0.65419632 234 88 12
1.5244923 -0.64966917 -0.65406078 234 88 12
1.534938 -0.63972634 -0.65449148 234 88 12
1.5419312 -0.63786435 -0.65530396 234 88 12
1.5210705 -0.65167069 -0.65761632 234 88 12
1.5366639 -0.65718091 -0.66042304 234 88 12
1.5317596 -0.63607961 -0.66129631 234 88 12
1.5107427 -0.66351169 -0.6650641 234 88 12
1.5350568 -0.6761871 -0.66966909 234 88 12
1.5268681 -0.65607822 -0.66649693 234 88 12
1.5238972 -0.64437509 -0.66489494 234 88 12
1.5285444 -0.63841999 -0.66491759 234 88 12
1.5347933 -0.63520801 -0.66543895 234 88 12
1.5184807 -0.64989579 -0.66854221 234 88 12
1.5375979 -0.64088547 -0.67018276 234 88 12
1.5113991 -0.65432304 -0.67948169 234 88 12
1.5139995 -0.65179509 -0.67956817 234 88 12
1.5237573 -0.64068711 -0.67974156 234 88 12
1.5260389 -0.63765472 -0.67974156 234 88 12
1.5344503 -0.63124681 -0.68018609 234 88 12
1.5215163 -0.63864785 -0.68686551 234 88 12
1.5337062 -0.62481111 -0.68707502 234 88 12
1.5141184 -0.64766932 -0.69057798 234 88 12
1.5216323 -0.6396836 -0.69075072 234 88 12
1.5256453 -0.63270712 -0.69060892 234 88 12
1.5327802 -0.62411445 -0.69068575 234 88 12
1.5212725 -0.63309324 -0.69392765 234 88 12
0.5861131 1.6190805 -0.3990978 234 88 12
0.59344023 1.6038319 -0.4060024 234 88 12
0.5928548 1.6027011 -0.40957308 234 88 12
0.57929951 1.6150491 -0.41231629 234 88 12
0.57175326 1.6175894 -0.41161287 234 88 12
0.53104144 1.6323127 -0.41265503 234 88 12
0.60337979 1.5971036 -0.4180904 234 88 12
0.58961356 1.6147289 -0.42340207 234 88 12
0.58072537 1.6102178 -0.41879129 234 88 12
0.61782718 1.5851136 -0.42010623 234 88 12
0.59629488 1.5940148 -0.41897908 234 88 12
0.59036255 1.6096224 -0.42526761 234 88 12
0.58702981 1.6113478 -0.42526761 234 88 12
0.5769847 1.611044 -0.42250636 234 88 12
0.57363325 1.6127791 -0.42250636 234 88 12
0.56188965 1.6161675 -0.42115611 234 88 12
0.53287208 1.6330564 -0.42209187 234 88 12
0.52093101 1.6364284 -0.4206821 234 88 12
0.51702106 1.6376398 -0.42027429 234 88 12
0.6172415 1.5839823 -0.42367819 234 88 12
0.61387384 1.585726 -0.42367819 234 88 12
0.60483265 1.5922281 -0.42458385 234 88 12
0.59570783 1.592881 -0.42255914 234 88 12
0.5372023 1.6266286 -0.42427841 234 88 12
0.52034599 1.6352985 -0.42424992 234 88 12
0.63073379 1.5826713 -0.43075469 234 88 12
0.62555641 1.5938768 -0.43495747 234 88 12
0.5914104 1.6153733 -0.43683955 234 88 12
0.58698791 1.6265525 -0.44122204 234 88 12
0.51780623 1.6372805 -0.42885295 234 88 12
0.62829465 1.5910473 -0.43847322 234 88 12
0.58423269 1.6176831 -0.44034159 234 88 12
0.57152462 1.6090041 -0.43288502 234 88 12
0.56011295 1.6127558 -0.43183112 234 88 12
0.63179749 1.5772609 -0.4368732 234 88 12
0.62020755 1.5805403 -0.4355551 234 88 12
0.58639246 1.5976821 -0.43537804 234 88 12
0.58303159 1.5994221 -0.43537804 234 88 12
0.57488507 1.6067991 -0.43690839 234 88 12
0.55952853 1.611627 -0.43539566 234 88 12
0.53546524 1.6232573 -0.43499455 234 88 12
0.53511137 1.628047 -0.43722591 234 88 12
0.53014833 1.6382742 -0.44093525 234 88 12
0.51919168 1.6324985 -0.43538967 234 88 12
0.63681996 1.5650754 -0.43650994 234 88 12
0.61307204 1.5830972 -0.43925947 234 88 12
0.59605169 1.5915234 -0.43907413 234 88 12
0.59335226 1.5996709 -0.44231495 234 88 12
0.63202828 1.5887036 -0.45084062 234 88 12
0.6193288 1.5903919 -0.44851521 234 88 12
0.61198717 1.5929742 -0.44793528 234 88 12
0.60347229 1.5884589 -0.44368881 234 88 12
0.60465556 1.6178194 -0.45795187 234 88 12
0.58318585 1.6204675 -0.45392245 234 88 12
0.56245118 1.6084253 -0.44308358 234 88 12
0.54623735 1.6280961 -0.44844958 234 88 12
0.5370717 1.6238363 -0.44416434 234 88 12
0.53198898 1.6339968 -0.44774714 234 88 12
0.64063752 1.5933794 -0.45931318 234 88 12
0.62136567 1.5808017 -0.44867584 234 88 12
0.61025852 1.5846729 -0.44778955 234 88 12
0.60287231 1.6098475 -0.45785862 234 88 12
0.58808345 1.5982677 -0.44878647 234 88 12
0.56451094 1.6101791 -0.44864827 234 88 12
0.60334665 1.6624721 -0.48279262 234 88 12
0.59089917 1.6541269 -0.47581762 234 88 12
0.55249614 1.6185319 -0.44965392 234 88 12
0.53648925 1.6227113 -0.44771656 234 88 12
0.53703082 1.6384983 -0.4552941 234 88 12
0.52412975 1.6306757 -0.44845483 234 88 12
0.51077116 1.6326445 -0.44612157 234 88 12
0.50585169 1.6378438 -0.44737244 234 88 12
0.63793403 1.5716002 -0.45259479 234 88 12
0.63459444 1.5733292 -0.45259479 234 88 12
0.62908727 1.6016145 -0.46448183 234 88 12
0.59747475 1.5861788 -0.44961825 234 88 12
0.60230249 1.6087469 -0.46133408 234 88 12
0.58385766 1.5929393 -0.44948292 234 88 12
0.59131867 1.6179241 -0.4629654 234 88 12
0.56988633 1.6155536 -0.45667142 234 88 12
0.55649281 1.6063563 -0.449132 234 88 12
0.57515067 1.6368791 -0.46791214 234 88 12
0.5621925 1.6282706 -0.46075326 234 88 12
0.55267459 1.6487139 -0.46800476 234 88 12
0.51018673 1.6315157 -0.44968587 234 88 12
0.63607401 1.5808829 -0.46064892 234 88 12
0.6232633 1.5704724 -0.45275551 234 88 12
0.59771556 1.5802591 -0.45116222 234 88 12
0.60661143 1.6133262 -0.46861002 234 88 12
0.60332221 1.6309961 -0.47600499 234 88 12
0.56347513 1.6187127 -0.46076128 234 88 12
0.54130262 1.616244 -0.45430127 234 88 12
0.62505728 1.5842546 -0.46373248 234 88 12
0.61768597 1.641598 -0.48829737 234 88 12
0.58303034 1.6076635 -0.4644897 234 88 12
0.57417011 1.6085864 -0.46280804 234 88 12
0.54284716 1.622519 -0.46175966 234 88 12
0.56096911 1.6462377 -0.47695062 234 88 12
0.5308795 1.6307362 -0.46268719 234 88 12
0.52340329 1.6333417 -0.4621065 234 88 12
0.63328499 1.5644275 -0.46080551 234 88 12
0.62497056 1.5718865 -0.46223986 234 88 12
0.62787926 1.59894 -0.47522649 234 88 12
0.61022991 1.6057056 -0.4741478 234 88 12
0.59713358 1.5958319 -0.46657476 234 88 12
0.59529632 1.5992706 -0.46770588 234 88 12
0.58461511 1.5924554 -0.46209222 234 88 12
0.56087828 1.6042588 -0.46187124 234 88 12
0.55481946 1.6137203 -0.46474716 234 88 12
0.53190178 1.621057 -0.46268791 234 88 12
0.65021712 1.6315789 -0.49921402 234 88 12
0.60955691 1.5875378 -0.46988791 234 88 12
0.58369142 1.623503 -0.48005801 234 88 12
0.5491178 1.6071297 -0.46461684 234 88 12
0.53687489 1.6356837 -0.47462556 234 88 12
0.53382653 1.6376145 -0.47478443 234 88 12
0.62813741 1.5811031 -0.47545761 234 88 12
0.62493521 1.5829364 -0.47553593 234 88 12
0.61728096 1.5908178 -0.477285 234 88 12
0.61042279 1.5881779 -0.47452176 234 88 12
0.60083765 1.5823207 -0.46969235 234 88 12
0.61612487 1.6063373 -0.48394492 234 88 12
0.59444374 1.5973965 -0.47494385 234 88 12
0.57468379 1.5913134 -0.46766227 234 88 12
0.5662747 1.6145066 -0.47607133 234 88 12
0.56534249 1.6239717 -0.48008063 234 88 12
0.56703842 1.6460321 -0.49031922 234 88 12
0.54220688 1.6305107 -0.47765285 234 88 12
0.51132429 1.6248183 -0.46797535 234 88 12
0.62959361 1.5584997 -0.46991915 234 88 12
0.63065195 1.5660031 -0.4734793 234 88 12
0.61707705 1.5726664 -0.47331795 234 88 12
0.61368227 1.5743337 -0.47327802 234 88 12
0.60070914 1.5817441 -0.47358477 234 88 12
0.58443481 1.5852677 -0.47141707 234 88 12
0.58142084 1.5985314 -0.47659206 234 88 12
0.57438803 1.6015247 -0.47630566 234 88 12
0.58256412 1.6213256 -0.48693305 234 88 12
0.56062925 1.6025251 -0.47359812 234 88 12
0.55056995 1.612955 -0.47590709 234 88 12
0.54127526 1.613631 -0.47407815 234 88 12
0.52905744 1.6216919 -0.4748455 234 88 12
0.51074052 1.6236907 -0.47153592 234 88 12
0.62094307 1.5945079 -0.48793203 234 88 12
0.58805138 1.577675 -0.4730995 234 88 12
0.58647484 1.5928129 -0.4793728 234 88 12
0.56843048 1.588843 -0.47354174 234 88 12
0.54128212 1.6078826 -0.47572476 234 88 12
0.52317673 1.6203164 -0.47706512 234 88 12
0.625817 1.5589759 -0.47766975 234 88 12
0.61234808 1.5659302 -0.47766149 234 88 12
0.53668129 1.6077955 -0.47882852 234 88 12
0.62663114 1.5535219 -0.47969148 234 88 12
0.63022023 1.5703781 -0.48773402 234 88 12
0.62359148 1.57381 -0.48773402 234 88 12
0.59763616 1.5709535 -0.48073143 234 88 12
0.57241112 1.5979036 -0.48670074 234 88 12
0.55973315 1.594668 -0.48248941 234 88 12
0.56208026 1.6026646 -0.48644817 234 88 12
0.55553871 1.6115073 -0.48879284 234 88 12
0.59236544 1.6656065 -0.5202359 234 88 12
0.59624314 1.6744071 -0.52488071 234 88 12
0.61516666 1.5686977 -0.48781785 234 88 12
0.61182559 1.5704275 -0.48781785 234 88 12
0.60535228 1.5741441 -0.48797324 234 88 12
0.57329708 1.5818293 -0.48418045 234 88 12
0.57559901 1.5900564 -0.48818946 234 88 12
0.56095719 1.5955424 -0.48729792 234 88 12
0.53619742 1.6062573 -0.48640233 234 88 12
0.60834634 1.5597067 -0.48668313 234 88 12
0.599024 1.5718136 -0.48975194 234 88 12
0.60859954 1.5891984 -0.49916971 234 88 12
0.59163988 1.5744741 -0.4892619 234 88 12
0.5873304 1.5807923 -0.49098465 234 88 12
0.57271111 1.5806975 -0.48775426 234 88 12
0.59116042 1.6127679 -0.50529891 234 88 12
0.5736196 1.6143882 -0.50215387 234 88 12
0.54704088 1.5960442 -0.48862103 234 88 12
0.54590923 1.6001807 -0.49011767 234 88 12
0.53324515 1.6130803 -0.49279132 234 88 12
0.60058057 1.5728872 -0.498824 234 88 12
0.57833469 1.5918204 -0.50188917 234 88 12
0.57141417 1.5894377 -0.49942333 234 88 12
0.64197254 1.6840019 -0.55360967 234 88 12
0.55074239 1.5990645 -0.49897867 234 88 12
0.5619967 1.616483 -0.50858682 234 88 12
0.5439539 1.6023972 -0.49890348 234 88 12
0.58153492 1.5726289 -0.4988052 234 88 12
0.57945865 1.5758868 -0.49969861 234 88 12
0.56925064 1.5809569 -0.49961063 234 88 12
0.56191504 1.5892484 -0.5014497 234 88 12
0.54477102 1.5920966 -0.49898264 234 88 12
0.53470689 1.602638 -0.50116438 234 88 12
0.57911843 1.5913645 -0.51411152 234 88 12
0.56056398 1.5812784 -0.50621194 234 88 12
0.5729211 1.600639 -0.51654482 234 88 12
0.56170714 1.598901 -0.51351863 234 88 12
0.55820191 1.5891423 -0.5129869 234 88 12
0.54692912 1.5929593 -0.51218498 234 88 12
0.5424068 1.5987419 -0.51355153 234 88 12
0.58474821 1.5631987 -0.51229095 234 88 12
0.57427973 1.5737168 -0.51429492 234 88 12
0.57022494 1.5912684 -0.52036893 234 88 12
0.58604652 1.6144447 -0.53269887 234 88 12
0.53469092 1.5953068 -0.51472473 234 88 12
0.57012343 1.5684159 -0.51551193 234 88 12
0.58402956 1.6064326 -0.53310376 234 88 12
0.55566955 1.5798831 -0.51706189 234 88 12
0.54976183 1.5842713 -0.5175792 234 88 12
0.55716258 1.5978131 -0.52433848 234 88 12
0.5621962 1.5696437 -0.52267432 234 88 12
0.55343187 1.581926 -0.52562547 234 88 12
0.55937982 1.5992919 -0.53341633 234 88 12
0.54306716 1.5867919 -0.52543485 234 88 12
0.57361966 1.5654848 -0.52745974 234 88 12
0.56160897 1.5685096 -0.52625555 234 88 12
0.54583687 1.5839298 -0.52899098 234 88 12
0.53603882 1.5840544 -0.52712512 234 88 12
0.53330362 1.5864792 -0.52750546 234 88 12
0.55715817 1.5732207 -0.53945363 234 88 12
0.1147555 1.6954086 -0.58044559 234 88 12
0.15999119 1.7053548 -0.5901261 234 88 12
0.10181138 1.6950685 -0.58729792 234 88 12
0.10580192 1.6937016 -0.59057528 234 88 12
0.10205731 1.6932069 -0.59057528 234 88 12
0.1521606 1.6961159 -0.59190416 234 88 12
0.13919604 1.6955918 -0.59847909 234 88 12
0.10370106 1.6876453 -0.59500927 234 88 12
0.095846564 1.6872138 -0.59565502 234 88 12
0.13570356 1.6932398 -0.60175061 234 88 12
0.083790049 1.6923473 -0.60806191 234 88 12
0.12258089 1.6869863 -0.60226023 234 88 12
0.10346618 1.6850793 -0.60290968 234 88 12
0.10005802 1.684033 -0.60228366 234 88 12
0.089106582 1.6820401 -0.60170996 234 88 12
0.14613771 1.6869353 -0.60422355 234 88 12
0.1292724 1.6877034 -0.60734904 234 88 12
0.093472742 1.6932538 -0.61807311 234 88 12
0.12544839 1.6919742 -0.61753321 234 88 12
0.083483003 1.6885577 -0.61973739 234 88 12
0.15166338 1.6935384 -0.62075436 234 88 12
0.13088678 1.6883963 -0.61828834 234 88 12
0.092555396 1.7344903 -0.67091244 234 88 12
0.11839794 1.6827133 -0.61413968 234 88 12
0.099896334 1.6799064 -0.61376673 234 88 12
0.088653512 1.6851622 -0.62070101 234 88 12
0.075187832 1.7010587 -0.63888311 234 88 12
0.083883166 1.6727996 -0.60863239 234 88 12
0.14187299 1.6826699 -0.61613512 234 88 12
0.13812505 1.6821748 -0.61613512 234 88 12
0.12176828 1.6945937 -0.6310277 234 88 12
0.11446 1.6810538 -0.61818367 234 88 12
0.093645699 1.6886567 -0.62875849 234 88 12
0.083455376 1.6857458 -0.62716031 234 88 12
0.11083184 1.6977193 -0.64076191 234 88 12
0.10253192 1.6921138 -0.63618857 234 88 12
0.097571746 1.687312 -0.63198286 234 88 12
0.087780565 1.6903443 -0.63637042 234 88 12
0.081993096 1.6731579 -0.61971426 234 88 12
0.12828943 1.6938626 -0.63959408 234 88 12
0.12559654 1.6858563 -0.63188905 234 88 12
0.10350253 1.7015711 -0.65065569 234 88 12
0.089627638 1.7173018 -0.66834491 234 88 12
0.093905516 1.6981815 -0.64851886 234 88 12
0.088021062 1.6885239 -0.6395753 234 88 12
0.089864641 1.6720612 -0.62274975 234 88 12
0.15832795 1.6838436 -0.63066304 234 88 12
0.13702923 1.6793289 -0.62896216 234 88 12
0.10996071 1.6773782 -0.63058752 234 88 12
0.096149921 1.6867517 -0.64178616 234 88 12
0.084981501 1.6720672 -0.62857658 234 88 12
0.15179007 1.6741111 -0.62698609 234 88 12
0.12838967 1.6847746 -0.64064449 234 88 12
0.12470037 1.6842872 -0.64064449 234 88 12
0.12271539 1.6749229 -0.6316064 234 88 12
0.11380593 1.6825526 -0.6403513 234 88 12
0.11088007 1.6744469 -0.63268638 234 88 12
0.09728948 1.6702617 -0.63031346 234 88 12
0.084531121 1.6782244 -0.63989401 234 88 12
0.14335242 1.6849439 -0.64393127 234 88 12
0.13537599 1.6727153 -0.63291341 234 88 12
0.15492178 1.6724997 -0.63530779 234 88 12
0.13125794 1.6954122 -0.66079885 234 88 12
0.10472413 1.7060901 -0.67468387 234 88 12
-0.035007581 1.9183762 -0.90057701 234 88 12
0.098002963 1.6984493 -0.66807306 234 88 12
0.10719159 1.6709726 -0.63998598 234 88 12
0.092319719 1.6822643 -0.65296358 234 88 12
0.085016228 1.6745527 -0.64635873 234 88 12
0.16365266 1.6760476 -0.64276171 234 88 12
0.16086031 1.6742148 -0.64133888 234 88 12
0.1522456 1.674891 -0.64310229 234 88 12
0.1308195 1.6827575 -0.6535002 234 88 12
0.127977 1.6748664 -0.64619499 234 88 12
0.12426611 1.6743762 -0.64619499 234 88 12
-0.091027603 2.0051479 -0.99535668 234 88 12
-0.016961867 1.8848615 -0.86892539 234 88 12
-0.058473568 1.946687 -0.93435138 234 88 12
0.10217696 1.6644989 -0.63943076 234 88 12
0.055570431 1.7296624 -0.70875549 234 88 12
0.088415064 1.6604089 -0.63722241 234 88 12
0.12643096 1.6757784 -0.65233147 234 88 12
0.016087694 1.8363365 -0.82135445 234 88 12
-0.037068225 1.9157043 -0.90472949 234 88 12
-0.027636705 1.8965186 -0.88501096 234 88 12
0.089664131 1.6568077 -0.6387108 234 88 12
0.12054247 1.7182721 -0.69882071 234 88 12
0.1443167 1.6776156 -0.6568535 234 88 12
0.13963458 1.6725914 -0.65263206 234 88 12
0.12611175 1.6748086 -0.65646839 234 88 12
-0.090779565 2.0032704 -0.99866211 234 88 12
0.11037811 1.6744117 -0.65807986 234 88 12
0.11420219 1.6617826 -0.6454944 234 88 12
0.098490529 1.6610065 -0.6467396 234 88 12
0.083259635 1.6800246 -0.66689122 234 88 12
0.086473025 1.6538619 -0.641415 234 88 12
-0.05326952 1.9396116 -0.93594587 234 88 12
-0.045337349 1.9230013 -0.91914642 234 88 12
0.10167348 1.6676495 -0.65773559 234 88 12
0.088992365 1.6620414 -0.65399414 234 88 12
0.1713455 1.6648901 -0.65144277 234 88 12
0.15706612 1.6678057 -0.65597862 234 88 12
0.15684927 1.662155 -0.65066838 234 88 12
0.1492739 1.6673191 -0.65649146 234 88 12
0.11485009 1.7012337 -0.69282132 234 88 12
0.11951333 1.6821198 -0.67418528 234 88 12
0.058495909 1.7714273 -0.7661553 234 88 12
-0.088986009 1.9989524 -0.99946934 234 88 12
-0.064796984 1.957112 -0.95693022 234 88 12
0.095837772 1.6949259 -0.68923581 234 88 12
0.1137922 1.6595213 -0.65355372 234 88 12
0.080512032 1.701256 -0.69712746 234 88 12
0.095529437 1.6562974 -0.65278751 234 88 12
0.15716538 1.6601856 -0.65385139 234 88 12
0.12803237 1.6797206 -0.67578036 234 88 12
-0.019658307 1.8927321 -0.89383554 234 88 12
-0.064657241 1.9560541 -0.95879257 234 88 12
-0.0039948216 1.8401347 -0.8425703 234 88 12
0.16709124 1.6620945 -0.65946484 234 88 12
0.14992972 1.6572787 -0.65709203 234 88 12
0.13191101 1.6783922 -0.67896581 234 88 12
-0.047462229 1.9465921 -0.95073241 234 88 12
0.078294747 1.7489198 -0.75122434 234 88 12
0.049805712 1.7877833 -0.79091173 234 88 12
-0.039731469 1.9232987 -0.92809451 234 88 12
-0.063795134 1.9575064 -0.96290296 234 88 12
-0.088995188 1.9941808 -1.0001477 234 88 12
-0.025330096 1.8879515 -0.89341366 234 88 12
0.036248837 1.7831051 -0.7882238 234 88 12
0.095239624 1.660745 -0.66704637 234 88 12
0.095020048 1.6473334 -0.65458667 234 88 12
0.16440332 1.6644604 -0.66700751 234 88 12
0.15295573 1.6693482 -0.67292345 234 88 12
0.041745376 1.8090435 -0.81562775 234 88 12
0.057443503 1.7746669 -0.78193563 234 88 12
0.12669103 1.6603309 -0.66779584 234 88 12
0.026646545 1.8079159 -0.81642938 234 88 12
0.10009407 1.6838704 -0.69280189 234 88 12
0.09085422 1.6926464 -0.70204204 234 88 12
0.033052169 1.7762656 -0.78639197 234 88 12
0.095213935 1.666078 -0.67695177 234 88 12
0.16836898 1.6631021 -0.67026448 234 88 12
0.16554992 1.6613077 -0.66895956 234 88 12
0.1497784 1.6606205 -0.670241 234 88 12
0.1147337 1.6958138 -0.70678473 234 88 12
0.12083176 1.6804405 -0.69193816 234 88 12
0.13248813 1.6561035 -0.66819215 234 88 12
0.10561886 1.6860222 -0.69890451 234 88 12
0.081973188 1.6996539 -0.71428025 234 88 12
0.10657592 1.6522924 -0.66783625 234 88 12
0.17352834 1.6541997 -0.66650498 234 88 12
0.15360776 1.6713083 -0.68448859 234 88 12
0.1090413 1.6665243 -0.68549412 234 88 12
0.10926569 1.6463453 -0.66708386 234 88 12
0.080857947 1.6875032 -0.70799822 234 88 12
0.098534137 1.6439304 -0.6661756 234 88 12
0.1631425 1.6618026 -0.67963207 234 88 12
0.10089692 1.6968242 -0.71874279 234 88 12
0.11891069 1.6555468 -0.67925924 234 88 12
0.083798036 1.7001313 -0.72377676 234 88 12
0.15840556 1.6493386 -0.67392945 234 88 12
0.15029947 1.6492518 -0.67481309 234 88 12
0.13881947 1.6605954 -0.68635929 234 88 12
0.121858 1.6745729 -0.70092046 234 88 12
0.12841114 1.6452993 -0.67386073 234 88 12
0.12490107 1.6444067 -0.67347562 234 88 12
0.10261624 1.6741655 -0.70283705 234 88 12
0.10753637 1.6596518 -0.68922263 234 88 12
0.11102842 1.6472459 -0.67767018 234 88 12
0.16916905 1.6500491 -0.67827427 234 88 12
0.16633329 1.6482122 -0.67697102 234 88 12
0.16204044 1.6485112 -0.67774302 234 88 12
0.12664625 1.6778179 -0.70803124 234 88 12
0.14198196 1.6480443 -0.67968881 234 88 12
0.12787163 1.6637532 -0.69535124 234 88 12
0.10410669 1.657342 -0.69243538 234 88 12
0.16941527 1.6481854 -0.68155551 234 88 12
0.13163014 1.6564268 -0.69326389 234 88 12
0.12588741 1.6591933 -0.69638282 234 88 12
0.13359468 1.6405708 -0.67900532 234 88 12
0.12589255 1.6398622 -0.67927867 234 88 12
0.10785064 1.6360722 -0.67803431 234 88 12
0.1315551 1.648777 -0.69141483 234 88 12
0.11911343 1.6361738 -0.6817891 234 88 12
0.13865811 1.6360475 -0.68438458 234 88 12
0.15015148 1.6357665 -0.68777698 234 88 12
0.14342992 1.6398787 -0.6921044 234 88 12
0.14897944 1.6360945 -0.69312859 234 88 12
0.13722914 1.6353652 -0.69383568 234 88 12
0.12547438 1.6346858 -0.6945861 234 88 12
-0.69429618 0.40205812 -1.6226546 234 88 12
-0.68988198 0.40352994 -1.6228893 234 88 12
-0.69238144 0.39686137 -1.6270618 234 88 12
-0.68825632 0.39245006 -1.6225502 234 88 12
-0.69858873 0.39211828 -1.6415042 234 88 12
-0.69157147 0.39064401 -1.6329652 234 88 12
-0.68489778 0.39287376 -1.624289 234 88 12
-0.68330729 0.38174868 -1.6240034 234 88 12
-0.68304271 0.4044995 -1.6261923 234 88 12
-0.68796456 0.3968828 -1.6393291 234 88 12
-0.68626422 0.39436543 -1.6376162 234 88 12
-0.71081221 0.36672506 -1.6719806 234 88 12
-0.67731071 0.3819249 -1.6284739 234 88 12
-0.67591345 0.37062904 -1.6284559 234 88 12
-0.67493016 0.39825323 -1.6290256 234 88 12
-0.67620921 0.39283398 -1.6313975 234 88 12
-0.71216434 0.35101625 -1.6815546 234 88 12
-0.67610139 0.39998507 -1.6418734 234 88 12
-0.67564481 0.39625475 -1.6418734 234 88 12
-0.70669281 0.36284199 -1.6841472 234 88 12
-0.66480911 0.37282097 -1.6322877 234 88 12
-0.66434687 0.36904469 -1.6322877 234 88 12
-0.66290992 0.3577593 -1.6322209 234 88 12
-0.71075255 0.36426181 -1.6942232 234 88 12
-0.70257843 0.36809331 -1.6839015 234 88 12
-0.66427082 0.39165255 -1.634711 234 88 12
-0.66490436 0.38269079 -1.6367775 234 88 12
-0.66444373 0.37892762 -1.6367775 234 88 12
-0.77380073 0.30199888 -1.7833399 234 88 12
-0.66450155 0.40132308 -1.6393652 234 88 12
-0.6767807 0.38158441 -1.6567849 234 88 12
-0.66125864 0.39175686 -1.636909 234 88 12
-0.65875912 0.36055988 -1.6384726 234 88 12
-0.66844541 0.39906654 -1.6500639 234 88 12
-0.65154088 0.37435484 -1.6394897 234 88 12
-0.65107876 0.3705793 -1.6394897 234 88 12
-0.65214497 0.35717422 -1.6426516 234 88 12
-0.75687724 0.30424115 -1.7772818 234 88 12
-0.65194893 0.39652187 -1.6425164 234 88 12
-0.65129399 0.39292777 -1.6422671 234 88 12
-0.65478975 0.36902028 -1.6497136 234 88 12
-0.64984751 0.40569308 -1.6500992 234 88 12
-0.63922477 0.41014776 -1.6486177 234 88 12
-0.63868725 0.40799832 -1.6538677 234 88 12
0.012280797 -0.44757092 -1.7222594 234 88 12
0.016056411 -0.44803306 -1.7222594 234 88 12
0.0012231168 -0.44357401 -1.7246513 234 88 12
0.01652842 -0.44438934 -1.7237656 234 88 12
0.027437385 -0.44765803 -1.7253842 234 88 12
-0.0058858558 -0.43916261 -1.7262882 234 88 12
0.0015155419 -0.44084361 -1.7269329 234 88 12
0.020090157 -0.44442037 -1.7280166 234 88 12
0.027615303 -0.44534954 -1.7280234 234 88 12
0.029871734 -0.45240146 -1.7336583 234 88 12
-0.016323218 -0.4307133 -1.7294936 234 88 12
-0.012628883 -0.43164393 -1.7298864 234 88 12
0.0023122793 -0.43427294 -1.7305431 234 88 12
0.014135963 -0.43178508 -1.7318573 234 88 12
0.029354393 -0.43303266 -1.7313558 234 88 12
0.0094946744 -0.43441573 -1.7389557 234 88 12
0.016486561 -0.43769544 -1.7409191 234 88 12
-0.023544518 -0.42549607 -1.7394868 234 88 12
-0.015083821 -0.42061093 -1.7347224 234 88 12
-0.01316599 -0.47428459 -1.7777244 234 88 12
0.024513142 -0.43456709 -1.7420528 234 88 12
-0.010893798 -0.41769424 -1.7364566 234 88 12
0.00035246174 -0.41950819 -1.7368063 234 88 12
0.028786305 -0.43111107 -1.7432998 234 88 12
-0.022655915 -0.41837031 -1.7425953 234 88 12
-0.011095045 -0.41793555 -1.7411262 234 88 12
-0.0069169132 -0.4374668 -1.756232 234 88 12
0.00067550427 -0.41663283 -1.7389473 234 88 12
0.015799819 -0.4182798 -1.738785 234 88 12
0.022840668 -0.42157838 -1.7407204 234 88 12
-0.020330828 -0.42689088 -1.7535061 234 88 12
-0.01753654 -0.47580507 -1.7918315 234 88 12
-0.012217734 -0.42268133 -1.7537631 234 88 12
-0.017729988 -0.40913984 -1.7480701 234 88 12
-0.0076686451 -0.41733059 -1.75349 234 88 12
0.0019231057 -0.40649509 -1.7441369 234 88 12
0.016914448 -0.40881094 -1.7445114 234 88 12
-0.010115048 -0.40845034 -1.7511746 234 88 12
-0.0095756147 -0.42731017 -1.7657164 234 88 12
-0.0088621881 -0.44426382 -1.7787669 234 88 12
0.019662553 -0.41288173 -1.7517833 234 88 12
-0.015782595 -0.46205741 -1.7972512 234 88 12
0.0025575964 -0.39971408 -1.751951 234 88 12
0.013488063 -0.40283352 -1.7533116 234 88 12
-0.0011855355 -0.39813614 -1.7554189 234 88 12
0.0036846418 -0.39243904 -1.7506435 234 88 12
0.010753894 -0.39587027 -1.7525905 234 88 12
0.01451739 -0.39633092 -1.7525905 234 88 12
0.018758645 -0.39440644 -1.7507362 234 88 12
0.00948139 -0.40014806 -1.7644951 234 88 12
1.0203928 -0.45283648 -1.395512 234 88 12
1.0230637 -0.45012674 -1.395512 234 88 12
1.0287075 -0.44555831 -1.39608 234 88 12
1.0369248 -0.44845575 -1.4015936 234 88 12
1.0067979 -0.45596814 -1.4039139 234 88 12
1.0146464 -0.44742498 -1.4036355 234 88 12
1.0274895 -0.44268671 -1.4076107 234 88 12
1.0075926 -0.45156008 -1.4066859 234 88 12
1.0192283 -0.44337988 -1.4084102 234 88 12
1.0301995 -0.43354124 -1.4090247 234 88 12
1.0078537 -0.46496132 -1.4176055 234 88 12
1.0079257 -0.44593704 -1.4086611 234 88 12
1.013432 -0.45079771 -1.4135917 234 88 12
1.0348606 -0.49881932 -1.4465171 234 88 12
1.0213847 -0.43268451 -1.4088509 234 88 12
0.99590838 -0.45642427 -1.4123229 234 88 12
1.0208312 -0.4480851 -1.4246339 234 88 12
1.0209088 -0.43838039 -1.4201615 234 88 12
0.99686921 -0.44600329 -1.416815 234 88 12
1.0050967 -0.44813013 -1.4216433 234 88 12
1.0178623 -0.43341869 -1.4208318 234 88 12
0.98687166 -0.45212784 -1.4193921 234 88 12
0.99249923 -0.447438 -1.4198585 234 88 12
0.99808478 -0.44267204 -1.4202704 234 88 12
1.0121107 -0.49964234 -1.4569728 234 88 12
1.0038337 -0.43186876 -1.4224091 234 88 12
0.99033999 -0.46011165 -1.4376491 234 88 12
0.99465579 -0.43362406 -1.4277742 234 88 12
1.0106338 -0.46555406 -1.449276 234 88 12
1.0079578 -0.42000663 -1.4277197 234 88 12
1.0175464 -0.42642057 -1.4349295 234 88 12
0.98671401 -0.44482765 -1.4335235 234 88 12
1.0128785 -0.41694838 -1.4329323 234 88 12
0.99111342 -0.43073159 -1.4336056 234 88 12
0.99887693 -0.42201999 -1.4332383 234 88 12
1.002175 -0.42100292 -1.4342622 234 88 12
1.0071777 -0.40816593 -1.4351948 234 88 12
0.99268198 -0.44080016 -1.4472693 234 88 12
0.995965 -0.42080197 -1.4400578 234 88 12
0.99352551 -0.43027765 -1.4515846 234 88 12
1.0064818 -0.41647413 -1.451304 234 88 12
0.99533343 -0.40941089 -1.4477539 234 88 12
0.9974165 -0.40517217 -1.446856 234 88 12
0.79491091 1.3920301 -0.88593113 234 88 12
0.81657159 1.3746351 -0.90058285 234 88 12
0.80130637 1.3776346 -0.89042199 234 88 12
0.79126632 1.3883855 -0.89148027 234 88 12
0.82496136 1.3547736 -0.89975786 234 88 12
0.79214191 1.3866833 -0.89841485 234 88 12
0.81620663 1.3552005 -0.89563084 234 88 12
0.81352508 1.3578821 -0.89563084 234 88 12
0.80061239 1.3798158 -0.90883571 234 88 12
0.80477667 1.3641942 -0.90017086 234 88 12
0.79934824 1.369542 -0.90005386 234 88 12
0.79039294 1.3803455 -0.90273654 234 88 12
0.75766879 1.4096855 -0.89782447 234 88 12
0.82417601 1.337911 -0.89828008 234 88 12
0.81515306 1.3547575 -0.90954095 234 88 12
0.77904171 1.3864701 -0.90320945 234 88 12
0.82514709 1.3394686 -0.90990174 234 88 12
0.81744856 1.3415189 -0.90183985 234 88 12
0.82780069 1.3457328 -0.92263061 234 88 12
0.83150166 1.3490714 -0.9326784 234 88 12
0.81068593 1.3556067 -0.91229528 234 88 12
0.80456138 1.360852 -0.91104031 234 88 12
0.79258007 1.374246 -0.91305691 234 88 12
0.78110552 1.3848304 -0.9117862 234 88 12
0.74660021 1.4140832 -0.90428925 234 88 12
0.81989413 1.3432111 -0.91565925 234 88 12
0.81546658 1.3544571 -0.92531049 234 88 12
0.8043915 1.3705702 -0.93244153 234 88 12
0.78870744 1.3807242 -0.92461401 234 88 12
0.77574778 1.382845 -0.90927219 234 88 12
0.78110027 1.3858809 -0.92114568 234 88 12
0.7605803 1.3989125 -0.91054612 234 88 12
0.75256777 1.4069251 -0.91054612 234 88 12
0.81506753 1.3380235 -0.90943038 234 88 12
0.80523825 1.3518006 -0.91497183 234 88 12
0.82557046 1.3567196 -0.9504168 234 88 12
0.79107064 1.3621718 -0.90964264 234 88 12
0.80522496 1.3661854 -0.93514508 234 88 12
0.7791689 1.3756696 -0.91188312 234 88 12
0.75342095 1.4024366 -0.91331363 234 88 12
0.81997287 1.3279618 -0.9101125 234 88 12
0.77931964 1.3796 -0.92540443 234 88 12
0.77667522 1.3822445 -0.92540443 234 88 12
0.75778866 1.3925456 -0.91345298 234 88 12
0.81696492 1.329036 -0.91527849 234 88 12
0.81601739 1.3349838 -0.92218173 234 88 12
0.80531812 1.3396467 -0.91384816 234 88 12
0.80243295 1.3482606 -0.92175704 234 88 12
0.81015009 1.3519952 -0.93756676 234 88 12
0.79717702 1.3593917 -0.92986798 234 88 12
0.79113716 1.36461 -0.92873371 234 88 12
0.76296461 1.3882182 -0.92243242 234 88 12
0.76380187 1.3964435 -0.9349438 234 88 12
0.75616318 1.3989509 -0.92785978 234 88 12
0.73880678 1.4094825 -0.91843778 234 88 12
0.82300532 1.3343635 -0.93861735 234 88 12
0.79024434 1.354206 -0.92092985 234 88 12
0.77931607 1.3619843 -0.91661692 234 88 12
0.76282191 1.3808984 -0.91993016 234 88 12
0.77290076 1.3976351 -0.95664543 234 88 12
0.75138539 1.3997886 -0.93013573 234 88 12
0.74023277 1.4022822 -0.91828012 234 88 12
0.73431629 1.410336 -0.92120647 234 88 12
0.80527693 1.3334304 -0.92084086 234 88 12
0.80627382 1.351289 -0.94644493 234 88 12
0.7776643 1.3630726 -0.92359686 234 88 12
0.76645792 1.3737327 -0.92285508 234 88 12
0.77270806 1.376929 -0.93568259 234 88 12
0.75322431 1.3898885 -0.92682314 234 88 12
0.76436067 1.3956901 -0.94982326 234 88 12
0.73904312 1.4004712 -0.92193681 234 88 12
0.81273657 1.3206576 -0.9213779 234 88 12
0.80425394 1.3286607 -0.92073214 234 88 12
0.81035411 1.3355379 -0.93820941 234 88 12
0.78411245 1.3590714 -0.93456215 234 88 12
0.75948179 1.388396 -0.94088382 234 88 12
0.77514923 1.396934 -0.97348267 234 88 12
0.79835433 1.3384125 -0.93355346 234 88 12
0.79325855 1.3437588 -0.93388808 234 88 12
0.78495884 1.3546185 -0.93730766 234 88 12
0.78866327 1.3606906 -0.9503662 234 88 12
0.79550666 1.3640714 -0.96402299 234 88 12
0.76579785 1.3674383 -0.92883748 234 88 12
0.75383627 1.3780646 -0.92705381 234 88 12
0.75214911 1.3972598 -0.95043987 234 88 12
0.78886646 1.3416487 -0.93282497 234 88 12
0.77745497 1.3522593 -0.93176395 234 88 12
0.77735746 1.3551723 -0.93549395 234 88 12
0.77469474 1.3578349 -0.93549395 234 88 12
0.75827855 1.3793975 -0.94231188 234 88 12
0.75281698 1.3819022 -0.93839455 234 88 12
0.73935044 1.3896636 -0.93083632 234 88 12
0.79883188 1.3412318 -0.95291507 234 88 12
0.90279227 1.3678441 -1.1244888 234 88 12
0.76426041 1.3610779 -0.93356591 234 88 12
0.7509436 1.3744634 -0.93365616 234 88 12
0.74020529 1.3851662 -0.93360937 234 88 12
0.73126274 1.3959186 -0.93598753 234 88 12
0.79147112 1.3267068 -0.93175435 234 88 12
0.78816342 1.3383698 -0.942644 234 88 12
0.76608402 1.3537441 -0.9339053 234 88 12
0.81552219 1.361069 -1.0078855 234 88 12
0.75409138 1.3643824 -0.93213993 234 88 12
0.7528311 1.3812582 -0.95249212 234 88 12
0.72848982 1.3940736 -0.93747008 234 88 12
0.79290628 1.3222721 -0.93539625 234 88 12
0.78951669 1.3248585 -0.93435806 234 88 12
0.79630584 1.3436251 -0.96739477 234 88 12
0.7522617 1.3625526 -0.93492573 234 88 12
0.75104165 1.3794688 -0.95521671 234 88 12
0.72806871 1.3895353 -0.93853199 234 88 12
0.77947587 1.3310798 -0.93694317 234 88 12
0.78032196 1.3431474 -0.95350176 234 88 12
0.77604383 1.3456135 -0.95117831 234 88 12
0.7619915 1.3559003 -0.94634986 234 88 12
0.74130708 1.3715806 -0.9399333 234 88 12
0.76064837 1.3755707 -0.96985018 234 88 12
0.73296881 1.385208 -0.9467153 234 88 12
0.77800888 1.3292974 -0.94025648 234 88 12
0.76545787 1.3487564 -0.9490428 234 88 12
0.86694533 1.3663545 -1.1005071 234 88 12
0.75777614 1.365357 -0.96038663 234 88 12
0.8002373 1.3789371 -1.0316652 234 88 12
0.73559147 1.3780241 -0.94828129 234 88 12
0.76616925 1.3383118 -0.94409657 234 88 12
0.7747097 1.3480908 -0.96720886 234 88 12
0.75419056 1.3518798 -0.94610178 234 88 12
0.78153282 1.3572702 -0.98739827 234 88 12
0.75108898 1.3574343 -0.9491964 234 88 12
0.73714268 1.3678949 -0.94479865 234 88 12
0.75771427 1.3748261 -0.97949708 234 88 12
0.76981342 1.3311244 -0.94702125 234 88 12
0.76712775 1.3338101 -0.94702125 234 88 12
0.96740067 1.3709549 -1.2441429 234 88 12
0.75119853 1.3528763 -0.95094711 234 88 12
0.73988318 1.3635261 -0.95011419 234 88 12
0.76821715 1.3293271 -0.95012933 234 88 12
0.74268746 1.3649191 -0.96262074 234 88 12
0.73791814 1.370249 -0.96331668 234 88 12
0.75255847 1.3408784 -0.95235312 234 88 12
0.74982524 1.3507384 -0.96830952 234 88 12
0.73725355 1.352478 -0.95507711 234 88 12
0.18262576 1.355592 -1.1929399 234 88 12
