ply
format ascii 1.0
element vertex 739
property float x
property float y
property float z
property uchar red
property uchar green
property uchar blue
end_header
-0.021335455 0.58510679 2.3587046 234 88 12
-0.0069391141 0.57883835 2.3578515 234 88 12
0.0080802422 0.57462823 2.3593462 234 88 12
0.023958739 0.57312328 2.3639421 234 88 12
0.040396944 0.57323879 2.3704131 234 88 12
0.055084798 0.56774676 2.3704674 234 88 12
0.06975019 0.56218481 2.3704417 234 88 12
0.084637046 0.55728549 2.3711796 234 88 12
0.10042617 0.55501646 2.374959 234 88 12
0.11644112 0.55329287 2.3793838 234 88 12
0.13257033 0.55177051 2.3840587 234 88 12
0.14869332 0.5501017 2.3885813 234 88 12
-0.0029959409 0.59055978 2.3504961 234 88 12
0.011665936 0.58507037 2.3505428 234 88 12
0.027233502 0.58247906 2.3538857 234 88 12
0.043480083 0.58192086 2.3595576 234 88 12
0.057875827 0.57546949 2.3585236 234 88 12
0.07240168 0.56944436 2.3579731 234 88 12
0.0877873 0.5660041 2.3603823 234 88 12
0.10351736 0.56350619 2.3638828 234 88 12
0.11932038 0.56111932 2.3675241 234 88 12
0.13521533 0.55889159 2.3713627 234 88 12
0.1526103 0.56075454 2.3799388 234 88 12
0.016735796 0.60034347 2.3471189 234 88 12
0.031449862 0.59484518 2.3471763 234 88 12
0.04696016 0.59184879 2.3500671 234 88 12
0.062846519 0.58992684 2.3541877 234 88 12
0.078460835 0.58705503 2.3572443 234 88 12
0.093339212 0.58189493 2.3577063 234 88 12
0.10851295 0.57758904 2.3591447 234 88 12
0.12344141 0.57253319 2.3597312 234 88 12
0.13988426 0.57176632 2.365232 234 88 12
0.021012027 0.61302382 2.340651 234 88 12
0.035525348 0.60675532 2.3398581 234 88 12
0.050270576 0.6012404 2.3399103 234 88 12
0.065303221 0.59661186 2.3409619 234 88 12
0.080823809 0.59343356 2.3436558 234 88 12
0.048474789 0.62214154 2.3489716 234 88 12
0.04494857 0.60688406 2.3471892 234 88 12
0.042633064 0.59176236 2.3475044 234 88 12
0.040980224 0.57670081 2.3489716 234 88 12
0.04483401 0.56211102 2.3600216 234 88 12
0.058013827 0.54819262 2.3873374 234 88 12
0.055929046 0.53292972 2.3881011 234 88 12
0.064921394 0.62159264 2.3497634 234 88 12
0.054766402 0.60557908 2.3365963 234 88 12
0.052268073 0.59043133 2.3365963 234 88 12
0.053549062 0.57563639 2.3431172 234 88 12
0.058977075 0.56115109 2.3568158 234 88 12
0.066874206 0.54675859 2.3748145 234 88 12
0.065330245 0.53153425 2.3765092 234 88 12
0.072335131 0.60508931 2.3392253 234 88 12
0.069046356 0.58980501 2.3378894 234 88 12
0.069231905 0.57485181 2.3425028 234 88 12
0.07629548 0.56045306 2.3589237 234 88 12
0.077158526 0.5454371 2.3647337 234 88 12
0.080776647 0.53057623 2.3752928 234 88 12
0.11312955 0.60700721 2.3810663 234 88 12
0.094383083 0.59000039 2.3535311 234 88 12
0.091141075 0.57462245 2.3523123 234 88 12
0.091385372 0.55954957 2.357028 234 88 12
0.093881033 0.54461646 2.365593 234 88 12
0.098507844 0.52976978 2.3778141 234 88 12
0.1160524 0.58980721 2.362587 234 88 12
0.11077075 0.57416135 2.357955 234 88 12
0.10977776 0.55891103 2.3605654 234 88 12
0.11076495 0.54379356 2.366534 234 88 12
0.11634757 0.52895492 2.3803041 234 88 12
0.13932288 0.58974212 2.3740199 234 88 12
0.1282741 0.57348907 2.3597729 234 88 12
0.12659073 0.55812335 2.3612218 234 88 12
0.12805301 0.54298663 2.3679616 234 88 12
-0.072388463 0.56352103 2.4106903 234 88 12
-0.062061928 0.54794133 2.4039152 234 88 12
-0.049706161 0.53535891 2.4036226 234 88 12
-0.03661406 0.52381712 2.4056222 234 88 12
-0.065795943 0.5692094 2.391742 234 88 12
-0.05388359 0.55597752 2.390054 234 88 12
-0.041483387 0.54346579 2.3899112 234 88 12
-0.028830111 0.53131175 2.3905499 234 88 12
-0.01436607 0.52165437 2.396699 234 88 12
-0.057251044 0.57777721 2.3790228 234 88 12
-0.045390941 0.56447017 2.3771868 234 88 12
-0.032991026 0.5519582 2.3770444 234 88 12
-0.020318389 0.53983074 2.3777363 234 88 12
-0.0061268839 0.52979183 2.3830056 234 88 12
0.010785949 0.52338225 2.3963335 234 88 12
-0.046718515 0.58925885 2.3724706 234 88 12
-0.036415935 0.57365924 2.3658032 234 88 12
-0.024129 0.56097615 2.3653047 234 88 12
-0.011087492 0.5493567 2.3670945 234 88 12
0.003574779 0.53994745 2.3737063 234 88 12
0.019176153 0.53172201 2.3829904 234 88 12
0.035960834 0.52495188 2.3955953 234 88 12
-0.034710184 0.60288811 2.3703403 234 88 12
-0.024296314 0.58737719 2.3639765 234 88 12
-0.013021685 0.57317889 2.3603263 234 88 12
1.5056575e-05 0.56149548 2.362016 234 88 12
0.014095162 0.55122489 2.3667722 234 88 12
0.028885951 0.541852 2.3735366 234 88 12
0.044477545 0.53345555 2.38252 234 88 12
0.065185361 0.53166902 2.4061437 234 88 12
-0.013200997 0.59960234 2.3588548 234 88 12
-0.0013206278 0.58620954 2.3569815 234 88 12
0.011506952 0.57416511 2.3579514 234 88 12
0.025273394 0.56339765 2.3616657 234 88 12
0.039422784 0.55309695 2.3664322 234 88 12
0.055084702 0.54474795 2.3754892 234 88 12
0.073300622 0.53963113 2.3917122 234 88 12
0.087508298 0.52910441 2.396271 234 88 12
0.0013874306 0.6168288 2.3640435 234 88 12
0.010574834 0.59949911 2.3540404 234 88 12
0.023116313 0.5869844 2.3540733 234 88 12
0.0370312 0.57635409 2.3581085 234 88 12
0.052114177 0.56724662 2.3654497 234 88 12
0.069121659 0.56060094 2.3781796 234 88 12
0.081900656 0.54823112 2.3786824 234 88 12
0.096081793 0.53766745 2.3831265 234 88 12
0.11313954 0.53070825 2.3955331 234 88 12
0.023985615 0.61491132 2.3553729 234 88 12
0.036385454 0.60209775 2.3548687 234 88 12
0.049084097 0.5897007 2.3552363 234 88 12
0.062052619 0.57766289 2.3563704 234 88 12
0.077547975 0.56897026 2.364661 234 88 12
0.091555916 0.55821407 2.368624 234 88 12
0.1061733 0.54819077 2.3742225 234 88 12
0.12204575 0.53968859 2.3832047 234 88 12
0.032785401 0.62380141 2.3430173 234 88 12
0.045137633 0.61091757 2.3423748 234 88 12
0.057807911 0.5984779 2.3426535 234 88 12
0.071570173 0.58750629 2.3460274 234 88 12
0.086542077 0.57809436 2.3527491 234 88 12
0.10252032 0.56990671 2.3621674 234 88 12
0.11716226 0.55986667 2.3677309 234 88 12
0.13226372 0.55033517 2.3744645 234 88 12
0.056669779 0.62359023 2.3378274 234 88 12
0.06925337 0.61097199 2.337786 234 88 12
0.082425371 0.59914631 2.3394005 234 88 12
0.099132396 0.59198672 2.3508508 234 88 12
0.1140899 0.58238202 2.3572702 234 88 12
0.12861346 0.57213026 2.3623934 234 88 12
0.14311031 0.56177485 2.3673604 234 88 12
0.02585586 0.53491771 2.42347 234 88 12
0.04150302 0.55003202 2.4413066 234 88 12
0.060353331 0.53761357 2.4192095 234 88 12
0.077621855 0.53850484 2.4164248 234 88 12
0.094808795 0.53998065 2.4144909 234 88 12
0.11194325 0.5418449 2.4131224 234 88 12
0.12899536 0.54453337 2.412946 234 88 12
0.14586513 0.5495044 2.4160607 234 88 12
-0.0096417638 0.53695261 2.4062288 234 88 12
0.0075113517 0.53915113 2.4053378 234 88 12
0.024587397 0.54191029 2.405257 234 88 12
0.041808542 0.5434252 2.4033842 234 88 12
0.058966294 0.5453639 2.4021251 234 88 12
0.076135151 0.54709095 2.4005644 234 88 12
0.093297414 0.54874623 2.3989036 234 88 12
0.11038478 0.5510577 2.3981876 234 88 12
0.12742676 0.55382568 2.3981273 234 88 12
0.14444874 0.55683833 2.3984172 234 88 12
-0.062750012 0.54006481 2.3946168 234 88 12
-0.04557436 0.54226804 2.3937337 234 88 12
-0.028385803 0.54432607 2.3926437 234 88 12
-0.011183431 0.54621214 2.3913095 234 88 12
0.0059274971 0.54871118 2.3908563 234 88 12
0.022999736 0.55149084 2.3908055 234 88 12
0.040246502 0.5527795 2.3886228 234 88 12
0.057386003 0.55486107 2.3875773 234 88 12
0.074544787 0.55667102 2.3861463 234 88 12
0.091700986 0.55837965 2.3845737 234 88 12
0.1087774 0.56080347 2.384023 234 88 12
0.1258194 0.56357133 2.3839626 234 88 12
0.14284708 0.56651193 2.3841484 234 88 12
0.1594954 0.57462889 2.3916833 234 88 12
-0.064348482 0.54975164 2.3802927 234 88 12
-0.047179993 0.55199957 2.3794796 234 88 12
-0.029996695 0.55409312 2.3784482 234 88 12
-0.012797778 0.55600524 2.3771603 234 88 12
0.0043173353 0.55847383 2.376667 234 88 12
0.021389594 0.56125337 2.3766165 234 88 12
0.038628794 0.5626086 2.3745437 234 88 12
0.05574435 0.56491071 2.3738184 234 88 12
0.07289701 0.56679851 2.3725073 234 88 12
0.090043157 0.5686354 2.3711269 234 88 12
0.10714692 0.57079899 2.3702114 234 88 12
0.12419446 0.57352072 2.3700862 234 88 12
0.14117342 0.57708466 2.3711498 234 88 12
-0.06609229 0.5603736 2.3672965 234 88 12
-0.048843119 0.56211668 2.3657725 234 88 12
-0.031676501 0.56434286 2.3649356 234 88 12
-0.014494692 0.56640321 2.3638661 234 88 12
0.0026618603 0.5685845 2.3629694 234 88 12
0.019742684 0.57131255 2.3628461 234 88 12
0.036768604 0.57449788 2.3633678 234 88 12
0.054062415 0.57532078 2.3605611 234 88 12
0.07116317 0.57774258 2.3600099 234 88 12
0.088269226 0.5800615 2.3593152 234 88 12
0.10534289 0.58266354 2.3590193 234 88 12
0.12217078 0.58807379 2.3626633 234 88 12
-0.051481515 0.57877201 2.3612573 234 88 12
-0.034239005 0.58077025 2.3600962 234 88 12
-0.017093394 0.58340198 2.3598268 234 88 12
-5.9112504e-06 0.58646119 2.3601577 234 88 12
0.017024068 0.5900076 2.3611708 234 88 12
0.034358751 0.59104508 2.3586695 234 88 12
0.051694505 0.59187376 2.3558812 234 88 12
0.068941191 0.59331232 2.3539507 234 88 12
0.086079925 0.59566629 2.3533015 234 88 12
0.1031232 0.59898436 2.3539979 234 88 12
-0.0018371278 0.59791046 2.3482332 234 88 12
0.015248717 0.60108942 2.3487253 234 88 12
0.032698009 0.60122603 2.3449879 234 88 12
0.049875908 0.60349149 2.344214 234 88 12
0.066991888 0.60627782 2.3441639 234 88 12
0.084063306 0.6095078 2.3447289 234 88 12
0.030763686 0.61372083 2.3344917 234 88 12
0.047992226 0.61568427 2.3333032 234 88 12
0.065075137 0.61892337 2.3338737 234 88 12
0.0063785496 0.61860305 2.4255567 234 88 12
-0.0056607407 0.60777789 2.4232936 234 88 12
-0.01700283 0.59657365 2.4233472 234 88 12
-0.034182981 0.58877552 2.403497 234 88 12
-0.045636546 0.57771832 2.4029925 234 88 12
-0.056742296 0.56645244 2.403686 234 88 12
-0.067334794 0.55485958 2.4061894 234 88 12
0.027861813 0.62049913 2.421092 234 88 12
0.013778793 0.61075711 2.4121921 234 88 12
-0.0022269925 0.60216147 2.3967526 234 88 12
-0.014856379 0.59175694 2.3923578 234 88 12
-0.02665903 0.58090353 2.3906806 234 88 12
-0.0379926 0.56978238 2.390573 234 88 12
-0.049088426 0.55851609 2.3912814 234 88 12
-0.05971026 0.54694599 2.3936474 234 88 12
0.027728867 0.61667794 2.3833206 234 88 12
0.016905693 0.60526085 2.3849144 234 88 12
0.0051702568 0.5943436 2.3835311 234 88 12
-0.0069561196 0.58366251 2.3808255 234 88 12
-0.018716974 0.57278824 2.3792977 234 88 12
-0.030017821 0.56164932 2.3792977 234 88 12
-0.041040748 0.55033904 2.3802452 234 88 12
-0.051619206 0.53874034 2.3827388 234 88 12
-0.062176663 0.52710694 2.38535 234 88 12
0.072257698 0.62367243 2.4160302 234 88 12
0.045114394 0.62068307 2.3659835 234 88 12
0.033403013 0.60977483 2.3646455 234 88 12
0.022293571 0.59854519 2.3652339 234 88 12
0.012917321 0.58633202 2.371491 234 88 12
0.0013550267 0.57533157 2.3706567 234 88 12
-0.010355491 0.56442559 2.3693159 234 88 12
-0.021731148 0.55332804 2.3690734 234 88 12
-0.03267771 0.54196686 2.3702769 234 88 12
-0.043337107 0.53041357 2.3724809 234 88 12
0.068437293 0.62158191 2.3674498 234 88 12
0.052884139 0.61265337 2.3541064 234 88 12
0.041292071 0.60168552 2.3531518 234 88 12
0.030181821 0.59045815 2.3537278 234 88 12
0.020081148 0.57865328 2.3575816 234 88 12
0.010018181 0.56679499 2.361624 234 88 12
-0.0016447413 0.55585396 2.3604677 234 88 12
-0.012751653 0.54458463 2.3611379 234 88 12
-0.023116317 0.53284824 2.3643064 234 88 12
0.076669335 0.61329776 2.3569214 234 88 12
0.061440591 0.60420698 2.3447087 234 88 12
0.049662668 0.59333503 2.3431878 234 88 12
0.03855427 0.5821023 2.3437726 234 88 12
0.029636793 0.56961578 2.3513994 234 88 12
0.019504083 0.5577755 2.3552217 234 88 12
0.011395715 0.54469579 2.3657174 234 88 12
-0.0003501364 0.53374839 2.3644176 234 88 12
0.085985966 0.60444611 2.3497264 234 88 12
0.073247343 0.59401977 2.3453772 234 88 12
0.060750533 0.58349597 2.3417139 234 88 12
0.049915407 0.57207155 2.3432343 234 88 12
0.046168204 0.556575 2.3673372 234 88 12
0.034280248 0.54564935 2.3657198 234 88 12
0.022521649 0.53465968 2.3644938 234 88 12
0.1210488 0.59938204 2.3860981 234 88 12
0.10278592 0.59165663 2.3653262 234 88 12
0.083783641 0.58449471 2.3419416 234 88 12
0.072052971 0.57352251 2.3407483 234 88 12
0.066044174 0.55934119 2.3574429 234 88 12
0.060764372 0.54460353 2.3767145 234 88 12
0.049707182 0.53310615 2.3779244 234 88 12
0.13038103 0.59048241 2.3784413 234 88 12
0.11488044 0.58130348 2.366235 234 88 12
0.10028349 0.57173449 2.3565919 234 88 12
0.088504687 0.56068617 2.355468 234 88 12
0.080302022 0.54762578 2.3654242 234 88 12
0.069485553 0.53599417 2.3673656 234 88 12
0.141755 0.58051682 2.3768146 234 88 12
0.12644944 0.57120764 2.3653693 234 88 12
0.1137762 0.56056154 2.3617132 234 88 12
0.10282334 0.54898983 2.36325 234 88 12
0.092596702 0.53699321 2.3670471 234 88 12
0.15373577 0.57021707 2.376828 234 88 12
0.13982126 0.56013131 2.3697093 234 88 12
0.12727679 0.54935569 2.3665924 234 88 12
0.11627654 0.53774393 2.3681009 234 88 12
-0.074830428 0.55981714 2.4072044 234 88 12
-0.072806589 0.54130477 2.4062827 234 88 12
-0.061415382 0.57980621 2.3961058 234 88 12
-0.059758745 0.5610823 2.3937221 234 88 12
-0.057558298 0.54269415 2.3935335 234 88 12
-0.054991089 0.52451479 2.3948171 234 88 12
-0.04552827 0.58155924 2.3859677 234 88 12
-0.043610632 0.56299996 2.3846583 234 88 12
-0.041363508 0.54464096 2.3846583 234 88 12
-0.03895627 0.52637154 2.3852911 234 88 12
-0.021159776 0.60830116 2.4179461 234 88 12
-0.028967202 0.58372271 2.3785148 234 88 12
-0.027259624 0.56503791 2.3764024 234 88 12
-0.025048465 0.5466572 2.3762615 234 88 12
-0.022508694 0.52845949 2.3774004 234 88 12
-0.017119769 0.5117842 2.3896058 234 88 12
-0.0061068744 0.62939733 2.4128115 234 88 12
-0.0097589754 0.60724676 2.3899412 234 88 12
-0.011893289 0.58618784 2.3730061 234 88 12
-0.010301868 0.56742644 2.3704724 234 88 12
-0.0081562754 0.54899818 2.3700771 234 88 12
-0.0050701513 0.53108841 2.3732901 234 88 12
0.00042859832 0.51443636 2.3857276 234 88 12
0.010381745 0.63144678 2.4044049 234 88 12
0.0058374428 0.6087932 2.3784752 234 88 12
0.0051600481 0.58863109 2.3673294 234 88 12
0.0072707757 0.57015949 2.3667972 234 88 12
0.0097354343 0.55188972 2.3676066 234 88 12
0.013396445 0.53426218 2.3729343 234 88 12
0.01839467 0.51729566 2.3832874 234 88 12
0.020221995 0.62941271 2.3710117 234 88 12
0.020664563 0.60988843 2.364207 234 88 12
0.022783181 0.59139752 2.3637016 234 88 12
0.024940934 0.57293308 2.3633442 234 88 12
0.027815096 0.55486721 2.3656607 234 88 12
0.031805307 0.53738177 2.3721256 234 88 12
0.036782846 0.5203585 2.3822386 234 88 12
0.035069034 0.63050407 2.3568728 234 88 12
0.03675057 0.61174774 2.3547559 234 88 12
0.039003797 0.59333897 2.3547559 234 88 12
0.041605234 0.57512587 2.3560386 234 88 12
0.045819212 0.5577842 2.3632467 234 88 12
0.050712857 0.54074478 2.3729248 234 88 12
0.058101058 0.52491522 2.391711 234 88 12
0.052920803 0.6334219 2.3538599 234 88 12
0.053285331 0.61387312 2.3469644 234 88 12
0.055436913 0.59540296 2.3465934 234 88 12
0.058155026 0.57725114 2.3482807 234 88 12
0.063390411 0.560449 2.3590879 234 88 12
0.070777185 0.54469121 2.3776438 234 88 12
0.074543439 0.52692771 2.3830564 234 88 12
0.072568201 0.61759257 2.3490231 234 88 12
0.073776945 0.59854513 2.3452578 234 88 12
0.077210031 0.58075505 2.3494689 234 88 12
0.080806546 0.56301796 2.3542502 234 88 12
0.087987147 0.54711169 2.371804 234 88 12
0.092124201 0.52951759 2.3784568 234 88 12
0.092381768 0.60181403 2.3446565 234 88 12
0.095525615 0.58382678 2.3477745 234 88 12
0.10183421 0.56749588 2.3620367 234 88 12
0.10605451 0.54996783 2.3689032 234 88 12
0.11103232 0.5327639 2.3784075 234 88 12
0.11990935 0.61001527 2.374954 234 88 12
0.11914772 0.58974952 2.3643663 234 88 12
0.12178352 0.57136041 2.3656235 234 88 12
0.12537503 0.55345052 2.3701932 234 88 12
0.12970348 0.53586996 2.3773012 234 88 12
0.14065933 0.59446907 2.3730221 234 88 12
0.14122941 0.57492858 2.367151 234 88 12
0.14480834 0.5569641 2.371599 234 88 12
0.14879532 0.5391643 2.3774271 234 88 12
-0.062187988 0.53036618 2.3972821 234 88 12
-0.042934928 0.52780133 2.3967235 234 88 12
-0.023659779 0.52560091 2.3971496 234 88 12
-0.0043374747 0.52392149 2.398988 234 88 12
0.015008317 0.52233279 2.4010775 234 88 12
0.034428433 0.52128631 2.4046452 234 88 12
-0.079327345 0.5506869 2.3906567 234 88 12
-0.060112707 0.54715705 2.3875341 234 88 12
-0.040851403 0.54477465 2.3874683 234 88 12
-0.021585163 0.54246676 2.3876016 234 88 12
-0.0022861951 0.54053438 2.3887408 234 88 12
0.017052758 0.53892517 2.3907499 234 88 12
0.036395643 0.53719926 2.3924508 234 88 12
0.055874087 0.5365144 2.3969555 234 88 12
0.075216658 0.53448027 2.3978393 234 88 12
0.094601914 0.53270161 2.3994141 234 88 12
0.11405503 0.53129011 2.4019842 234 88 12
-0.077222146 0.5681079 2.3825517 234 88 12
-0.058021639 0.5642556 2.3786147 234 88 12
-0.038761705 0.56184751 2.3784819 234 88 12
-0.019493548 0.55956519 2.3786812 234 88 12
-0.00019344552 0.55764121 2.3798301 234 88 12
0.019142348 0.55599356 2.3817146 234 88 12
0.038478471 0.55420464 2.383229 234 88 12
0.057898145 0.55302453 2.3863657 234 88 12
0.077287726 0.55140883 2.3883514 234 88 12
0.096633889 0.54936326 2.3891962 234 88 12
0.11608554 0.54797661 2.3918021 234 88 12
0.13551511 0.54631954 2.393692 234 88 12
0.1550032 0.54491341 2.3962581 234 88 12
-0.05590222 0.58188659 2.3710825 234 88 12
-0.036656421 0.57916468 2.3701336 234 88 12
-0.017377758 0.5769884 2.3706088 234 88 12
0.0019392685 0.57521802 2.372148 234 88 12
0.021233454 0.57307786 2.3727219 234 88 12
0.040483415 0.57047778 2.3720899 234 88 12
0.059795294 0.56845081 2.3729627 234 88 12
0.079153568 0.5667311 2.3746464 234 88 12
0.098738715 0.56654972 2.3803885 234 88 12
0.11816405 0.56498301 2.3824902 234 88 12
0.13761143 0.56344646 2.3846769 234 88 12
0.15707086 0.56187528 2.3867774 234 88 12
-0.034432836 0.59831768 2.3665125 234 88 12
-0.015168165 0.59566146 2.3657482 234 88 12
0.0040734774 0.59280831 2.3644722 234 88 12
0.023253931 0.58942556 2.3618197 234 88 12
0.042516071 0.58701342 2.36168 234 88 12
0.061809052 0.58487445 2.3622501 234 88 12
0.081150502 0.58307838 2.3637142 234 88 12
0.10068331 0.58257842 2.3685596 234 88 12
0.12029096 0.58231372 2.3740313 234 88 12
0.13974372 0.58079845 2.3762498 234 88 12
0.15945998 0.58072114 2.3822358 234 88 12
-0.012925019 0.61476201 2.3618898 234 88 12
0.0061283321 0.60946834 2.3543847 234 88 12
0.025338978 0.60644871 2.3526912 234 88 12
0.044594634 0.6039812 2.3524108 234 88 12
0.06388665 0.60184366 2.352978 234 88 12
0.083239071 0.60014284 2.3546705 234 88 12
0.10296447 0.60103953 2.3630614 234 88 12
0.12252003 0.60033154 2.3673332 234 88 12
0.14224586 0.6004709 2.3738048 234 88 12
0.02745077 0.62374967 2.3442705 234 88 12
0.046708524 0.62128013 2.3439887 234 88 12
0.066039324 0.61945367 2.3453412 234 88 12
0.085426256 0.61797994 2.347595 234 88 12
0.1129078 0.52718675 2.4154241 234 88 12
0.12715453 0.53723711 2.4091625 234 88 12
0.13973345 0.54979587 2.4088736 234 88 12
0.15155952 0.56354439 2.4113629 234 88 12
0.089164734 0.52654272 2.4102273 234 88 12
0.10537851 0.53374004 2.3971853 234 88 12
0.1183494 0.54570419 2.3955004 234 88 12
0.13092333 0.55826074 2.3952184 234 88 12
0.14318892 0.57130075 2.3960586 234 88 12
0.15415461 0.58644474 2.4017236 234 88 12
0.065338895 0.52590513 2.4050341 234 88 12
0.081587486 0.53320789 2.3922031 234 88 12
0.096184336 0.54280144 2.3849151 234 88 12
0.10915674 0.55476511 2.3832421 234 88 12
0.12173126 0.56732112 2.3829608 234 88 12
0.13399509 0.5803628 2.3837986 234 88 12
0.14517602 0.59515423 2.3886166 234 88 12
0.037187409 0.53130633 2.4141626 234 88 12
0.056998163 0.53371316 2.3896542 234 88 12
0.071917936 0.54296076 2.3814962 234 88 12
0.086329833 0.55285001 2.3749406 234 88 12
0.0996475 0.56430733 2.3720953 234 88 12
0.11222418 0.57686847 2.3718204 234 88 12
0.12417343 0.59041214 2.3737886 234 88 12
0.015393408 0.52750021 2.4014187 234 88 12
0.031588905 0.53522795 2.3894663 234 88 12
0.047269095 0.54352987 2.3790202 234 88 12
0.061576284 0.55369622 2.3730476 234 88 12
0.075669616 0.56409526 2.3676927 234 88 12
0.088863574 0.57577997 2.3653564 234 88 12
0.10146267 0.58834749 2.3650618 234 88 12
0.11329381 0.60211492 2.3674846 234 88 12
-0.025084104 0.51907527 2.4082005 234 88 12
-0.0075387158 0.52525926 2.3923843 234 88 12
0.0062182946 0.53649986 2.3886857 234 88 12
0.01893645 0.54915941 2.3883541 234 88 12
0.036933042 0.55421698 2.3703809 234 88 12
0.050831292 0.56501406 2.3658834 234 88 12
0.064362764 0.57629174 2.3625469 234 88 12
0.077775396 0.58770043 2.3595529 234 88 12
0.090141021 0.60067511 2.3601375 234 88 12
-0.049198363 0.51820874 2.4024472 234 88 12
-0.032575816 0.52580017 2.3899302 234 88 12
-0.017035114 0.53469831 2.3806586 234 88 12
-0.0031691859 0.54579532 2.3766489 234 88 12
0.0095810229 0.55841231 2.3762188 234 88 12
0.025283806 0.56678295 2.3660131 234 88 12
0.04031159 0.57599264 2.3578646 234 88 12
0.053738859 0.58745956 2.3549547 234 88 12
0.066538855 0.59983027 2.3541241 234 88 12
0.078279063 0.61381423 2.3569224 234 88 12
-0.057522736 0.5260731 2.3868253 234 88 12
-0.042262811 0.53548265 2.3786986 234 88 12
-0.027441552 0.54537857 2.3718185 234 88 12
-0.01322261 0.55601406 2.3667459 234 88 12
-2.8004712e-05 0.56802231 2.3649015 234 88 12
0.015368074 0.5768497 2.3558109 234 88 12
0.030527767 0.58589089 2.3473272 234 88 12
0.043741379 0.59769011 2.3451772 234 88 12
0.056342751 0.61037928 2.3450494 234 88 12
0.068420798 0.62386709 2.3467011 234 88 12
-0.067404486 0.53599703 2.376087 234 88 12
-0.052769382 0.5462622 2.3700058 234 88 12
-0.038580194 0.55705065 2.3652196 234 88 12
-0.024798105 0.56833589 2.3616407 234 88 12
-0.011113564 0.5797078 2.3583081 234 88 12
0.0035065676 0.58969456 2.3518777 234 88 12
0.018973324 0.59835851 2.3425524 234 88 12
0.032801244 0.60930759 2.3384657 234 88 12
0.045280781 0.62222087 2.3388004 234 88 12
-0.064023636 0.55803686 2.3635571 234 88 12
-0.050418776 0.56966531 2.3606966 234 88 12
-0.036446203 0.58074564 2.3566241 234 88 12
-0.022799721 0.59222621 2.3535135 234 88 12
-0.0097027197 0.60444641 2.3521094 234 88 12
-0.016656483 0.522484 2.375519 234 88 12
-0.025592567 0.53474945 2.3694518 234 88 12
-0.036536578 0.5457623 2.3693261 234 88 12
-0.047783144 0.5565967 2.3700774 234 88 12
-0.060705837 0.56647372 2.3756278 234 88 12
-0.036160532 0.52537793 2.367069 234 88 12
-0.046015069 0.53708291 2.3637271 234 88 12
-0.057743244 0.54765713 2.3658111 234 88 12
0.082561076 0.62247735 2.413743 234 88 12
0.065711938 0.62184781 2.4131806 234 88 12
0.048135336 0.62676138 2.3821938 234 88 12
0.031465095 0.62558395 2.3846641 234 88 12
0.015397454 0.61770415 2.423856 234 88 12
-0.0014725962 0.61697453 2.4238353 234 88 12
0.10002887 0.60896283 2.4051564 234 88 12
0.082178205 0.61422193 2.3728139 234 88 12
0.06537243 0.61406893 2.3697181 234 88 12
0.048514631 0.61448538 2.3635585 234 88 12
0.031825766 0.6137808 2.363446 234 88 12
0.015189639 0.61251026 2.3663783 234 88 12
-0.0011948283 0.60747385 2.3895507 234 88 12
-0.017739415 0.6023187 2.413322 234 88 12
0.13470893 0.5945304 2.4053206 234 88 12
0.11743641 0.59575766 2.3949082 234 88 12
0.10025228 0.59691513 2.3848834 234 88 12
0.082714312 0.60061908 2.3613741 234 88 12
0.065865092 0.6008234 2.3564429 234 88 12
0.049104664 0.60061574 2.3537004 234 88 12
0.032421004 0.59989035 2.3537004 234 88 12
0.015765045 0.59886056 2.355309 234 88 12
-0.00063901464 0.59416932 2.3762474 234 88 12
-0.017314676 0.59176123 2.3851058 234 88 12
-0.034066942 0.58973294 2.391948 234 88 12
-0.050866213 0.58756196 2.3995304 234 88 12
0.15229845 0.58065689 2.3984253 234 88 12
0.13500193 0.58181065 2.3885705 234 88 12
0.1179264 0.58222902 2.3825681 234 88 12
0.10084311 0.58292568 2.3751252 234 88 12
0.083339214 0.58649009 2.3527582 234 88 12
0.066593289 0.58598918 2.3515835 234 88 12
0.049748447 0.58632869 2.3460407 234 88 12
0.033047333 0.58571726 2.345448 234 88 12
0.016417123 0.58436751 2.3486884 234 88 12
-2.463376e-05 0.58005571 2.3672879 234 88 12
-0.016705703 0.5777359 2.3755333 234 88 12
-0.033459615 0.57580972 2.381727 234 88 12
-0.050262228 0.57414925 2.3865356 234 88 12
-0.067102365 0.57154161 2.3962336 234 88 12
0.15287285 0.5666526 2.3883572 234 88 12
0.13561721 0.56765902 2.379431 234 88 12
0.11860752 0.56776375 2.3751409 234 88 12
0.10149302 0.56861496 2.3670347 234 88 12
0.084171325 0.57109243 2.3506191 234 88 12
0.067263812 0.57153487 2.3446355 234 88 12
0.050525799 0.57098019 2.3437562 234 88 12
0.03383667 0.57003176 2.3448882 234 88 12
0.017341482 0.56682545 2.3575363 234 88 12
0.00064330624 0.56518835 2.3621659 234 88 12
-0.016084701 0.56348264 2.3671374 234 88 12
-0.032844909 0.56166953 2.3726478 234 88 12
-0.04964719 0.56000274 2.3774052 234 88 12
-0.066486001 0.55739313 2.3869452 234 88 12
0.15368347 0.5516482 2.3833663 234 88 12
0.13639353 0.55276442 2.374037 234 88 12
0.11933853 0.5530389 2.3689628 234 88 12
0.10235903 0.55309922 2.3649745 234 88 12
0.085336387 0.55360556 2.3587494 234 88 12
0.068505146 0.55309314 2.3576536 234 88 12
0.052241009 0.54811555 2.3789818 234 88 12
0.035380606 0.54726404 2.3795733 234 88 12
0.018142026 0.55062199 2.3590593 234 88 12
0.0013422103 0.54987353 2.3591495 234 88 12
-0.015415356 0.54830843 2.363327 234 88 12
-0.032214664 0.54707807 2.365824 234 88 12
-0.049021829 0.54522508 2.371429 234 88 12
-0.065870434 0.54279822 2.3798909 234 88 12
0.1374204 0.53668153 2.3744047 234 88 12
0.12047386 0.53623778 2.3729658 234 88 12
0.10357775 0.53556955 2.3726399 234 88 12
0.08664149 0.53516716 2.3710001 234 88 12
0.069745988 0.53456181 2.3703656 234 88 12
0.052876733 0.53378201 2.3705933 234 88 12
0.036024641 0.5328247 2.3716958 234 88 12
0.019124484 0.53232193 2.3705566 234 88 12
0.0022467647 0.53161746 2.3704126 234 88 12
-0.014626692 0.53085154 2.3705711 234 88 12
-0.031501275 0.53008497 2.3707328 234 88 12
-0.048377492 0.52934599 2.3707583 234 88 12
0.10705182 0.61311501 2.3792915 234 88 12
0.087248936 0.61074257 2.3595214 234 88 12
0.067815006 0.61033505 2.3561254 234 88 12
0.048421688 0.61011326 2.3542771 234 88 12
0.029053012 0.61011326 2.3542771 234 88 12
0.0096886372 0.61038417 2.3565345 234 88 12
-0.0097265989 0.61277574 2.3764644 234 88 12
-0.029366506 0.61669666 2.4091387 234 88 12
0.14626692 0.59481883 2.3893423 234 88 12
0.12658745 0.59398729 2.3821855 234 88 12
0.10697164 0.59320635 2.3754644 234 88 12
0.087239996 0.59129328 2.3589997 234 88 12
0.067815006 0.59095931 2.3561254 234 88 12
0.048421688 0.59074455 2.3542771 234 88 12
0.029053012 0.59074455 2.3542771 234 88 12
0.00968841 0.59099299 2.3564153 234 88 12
-0.0097224591 0.59306997 2.3742909 234 88 12
-0.029182298 0.59337342 2.3769021 234 88 12
-0.048682321 0.59392434 2.3816438 234 88 12
0.16611849 0.57652885 2.4001298 234 88 12
0.14611946 0.57473654 2.384181 234 88 12
0.12657405 0.57445151 2.3816447 234 88 12
0.10697091 0.57375306 2.3754296 234 88 12
0.087275445 0.57213902 2.3610678 234 88 12
0.067846656 0.57185036 2.3584991 234 88 12
0.04843929 0.57158363 2.3561254 234 88 12
0.029065231 0.57161617 2.3564153 234 88 12
0.0097007221 0.57234263 2.3628793 234 88 12
-0.009722678 0.57363802 2.3744059 234 88 12
-0.029178647 0.5738467 2.3762631 234 88 12
-0.048659697 0.57418442 2.3792682 234 88 12
-0.068200335 0.57483137 2.385025 234 88 12
0.16603483 0.55670506 2.3975463 234 88 12
0.14618331 0.55549657 2.386416 234 88 12
0.12659073 0.55505168 2.382318 234 88 12
0.10699327 0.55441964 2.3764968 234 88 12
0.087519899 0.55429274 2.3753276 234 88 12
0.067928642 0.55313325 2.3646483 234 88 12
0.048508044 0.55299169 2.3633447 234 88 12
0.029150706 0.55386341 2.3713737 234 88 12
0.0097213881 0.55411911 2.3737288 234 88 12
-0.0097250491 0.55432779 2.3756509 234 88 12
-0.02918894 0.55458987 2.3780646 234 88 12
-0.048671328 0.55485314 2.3804893 234 88 12
-0.068192229 0.55527955 2.3844171 234 88 12
0.14626974 0.53632241 2.389441 234 88 12
0.12665994 0.535869 2.3851132 234 88 12
0.10712741 0.53563702 2.3828988 234 88 12
0.087635577 0.53555077 2.3820753 234 88 12
0.068207458 0.53591579 2.3855596 234 88 12
0.04871992 0.53591913 2.3855915 234 88 12
0.02922863 0.53585821 2.3850102 234 88 12
0.0097317873 0.53524828 2.3791881 234 88 12
-0.0097315637 0.535236 2.3790708 234 88 12
-0.029202772 0.53538418 2.3804851 234 88 12
-0.048707526 0.53578281 2.3842902 234 88 12
-0.068198785 0.5358476 2.3849087 234 88 12
0.10727326 0.51686209 2.3898602 234 88 12
0.087753408 0.51677006 2.3889489 234 88 12
0.068237305 0.5166539 2.3877978 234 88 12
0.029239355 0.51656193 2.3868871 234 88 12
0.0097433999 0.51640022 2.3852849 234 88 12
-0.0097429976 0.51637888 2.3850737 234 88 12
-0.029228132 0.51636368 2.384923 234 88 12
-0.048714764 0.5163765 2.3850503 234 88 12
0.15469839 0.55683088 2.4189065 234 88 12
0.14071727 0.53881496 2.4028969 234 88 12
0.14187786 0.55646896 2.4015439 234 88 12
0.14265297 0.57429677 2.4015439 234 88 12
0.14289963 0.5923844 2.4034023 234 88 12
0.12380047 0.52213418 2.3972249 234 88 12
0.12606515 0.53931808 2.3920677 234 88 12
0.12705456 0.55704814 2.391325 234 88 12
0.12782958 0.57487386 2.391325 234 88 12
0.12835543 0.59282088 2.3921897 234 88 12
0.10864592 0.52285361 2.3880763 234 88 12
0.1109912 0.54001051 2.3827107 234 88 12
0.11199681 0.55773538 2.3819225 234 88 12
0.11277189 0.57556218 2.3819225 234 88 12
0.11322455 0.5935443 2.3830268 234 88 12
0.11189082 0.61241943 2.3902545 234 88 12
0.091735899 0.52431667 2.3848357 234 88 12
0.095375367 0.54093921 2.3751745 234 88 12
0.096594281 0.55857736 2.3736773 234 88 12
0.097314067 0.57643533 2.3738649 234 88 12
0.097720876 0.5944441 2.3751109 234 88 12
0.096247315 0.61338431 2.3827195 234 88 12
0.074640445 0.52584213 2.3820481 234 88 12
0.078325018 0.54248416 2.3723638 234 88 12
0.080609001 0.55967569 2.3673384 234 88 12
0.081554405 0.57744282 2.3667729 234 88 12
0.081690922 0.59558767 2.3689067 234 88 12
0.081263356 0.61402291 2.3729265 234 88 12
0.057525549 0.52735907 2.3791494 234 88 12
0.060819827 0.54420727 2.3708756 234 88 12
0.06351582 0.56125522 2.3645623 234 88 12
0.06532108 0.57865894 2.3611755 234 88 12
0.0662352 0.59645307 2.3607218 234 88 12
0.066765532 0.61442816 2.3615332 234 88 12
0.065405078 0.63334292 2.3685832 234 88 12
0.039134968 0.52938586 2.3802218 234 88 12
0.043001041 0.54604346 2.3702002 234 88 12
0.046699651 0.56269586 2.3607121 234 88 12
0.050205227 0.57936084 2.3518412 234 88 12
0.051230546 0.59710544 2.3510315 234 88 12
0.051730134 0.61509401 2.3519328 234 88 12
0.050096698 0.63413244 2.3597834 234 88 12
0.016972236 0.5145613 2.3906052 234 88 12
0.019145217 0.5320406 2.3861535 234 88 12
0.023088286 0.54873949 2.3760178 234 88 12
0.027562594 0.56512845 2.364166 234 88 12
0.03408863 0.58050847 2.3457119 234 88 12
0.035448331 0.59811473 2.3438399 234 88 12
0.035109524 0.61650723 2.3474269 234 88 12
0.00025549677 0.5158298 2.3857265 234 88 12
0.0038574557 0.5327552 2.3768065 234 88 12
0.0067585297 0.54990286 2.3700981 234 88 12
0.010750043 0.56652921 2.3599255 234 88 12
0.016723622 0.58219898 2.3434548 234 88 12
0.018063525 0.59984601 2.3416727 234 88 12
0.018419659 0.61793858 2.3430126 234 88 12
-0.016955862 0.51727968 2.3822739 234 88 12
-0.012630463 0.53395015 2.3712034 234 88 12
-0.010450359 0.55142045 2.3668358 234 88 12
-0.0071938625 0.56839806 2.3590932 234 88 12
-0.0055115186 0.58600426 2.3562741 234 88 12
-0.0052591241 0.60423243 2.3579347 234 88 12
-0.034316882 0.51877308 2.3791292 234 88 12
-0.03052352 0.53569412 2.3698409 234 88 12
-0.028219085 0.55315197 2.3651464 234 88 12
-0.025357816 0.57033777 2.3587246 234 88 12
-0.024519457 0.58835113 2.358557 234 88 12
-0.029474454 0.6089493 2.3763292 234 88 12
-0.051929273 0.52034783 2.376591 234 88 12
-0.048655428 0.53751296 2.3690045 234 88 12
-0.046579648 0.55510467 2.3650696 234 88 12
-0.044437021 0.57263732 2.3609264 234 88 12
-0.045567542 0.59154546 2.3667874 234 88 12
-0.066812553 0.53932136 2.3680294 234 88 12
-0.065516979 0.55726677 2.3665009 234 88 12
-0.06567125 0.57580101 2.3693488 234 88 12
