ply
format ascii 1.0
element vertex 42
property float x
property float y
property float z
property uchar red
property uchar green
property uchar blue
end_header
-2.0273948 -0.7134937 -0.63132173 234 88 12
-2.0267222 -0.7152757 -0.63132173 234 88 12
-2.0253913 -0.71680927 -0.63309193 234 88 12
-2.0267665 -0.70918447 -0.63663226 234 88 12
-2.0240755 -0.71631247 -0.63663226 234 88 12
-0.72037327 -2.0240459 -0.63309193 234 88 12
-0.7147789 -2.0254061 -0.63486207 234 88 12
-0.72165847 -2.0220571 -0.63663226 234 88 12
-0.71453047 -2.0247481 -0.63663226 234 88 12
-1.8898202 0.40145734 -1.1310171 234 88 12
-1.8870503 0.40486148 -1.1341419 234 88 12
-1.8879802 0.39922336 -1.1341419 234 88 12
-1.8882902 0.39734399 -1.1341419 234 88 12
-1.8872151 0.3971667 -1.1357043 234 88 12
-1.2052497 -1.1985154 -1.4471494 234 88 12
-1.2016369 -1.2002901 -1.4485418 234 88 12
-1.2024926 -1.1957582 -1.4513266 234 88 12
-1.2011458 -1.1971052 -1.4513266 234 88 12
0.39734399 -1.8882902 -1.1341419 234 88 12
0.39922336 -1.8879802 -1.1341419 234 88 12
0.39528733 -1.8875251 -1.1357043 234 88 12
0.39904606 -1.8869052 -1.1357043 234 88 12
-1.0908587 1.2681639 -1.4904088 234 88 12
-1.0935718 1.2654896 -1.4904088 234 88 12
-1.0920197 1.2612016 -1.4943438 234 88 12
-1.0685548 -0.068423547 -1.9575286 234 88 12
-1.0683233 -0.070314199 -1.9575286 234 88 12
-1.0630647 -0.07158953 -1.9601748 234 88 12
-1.0618519 -0.067603119 -1.9610568 234 88 12
-0.073890395 -1.0661848 -1.9584107 234 88 12
-0.077261485 -1.0623704 -1.9601748 234 88 12
-0.069493771 -1.0616204 -1.9610568 234 88 12
1.2635224 -1.0916326 -1.4930321 234 88 12
1.2612016 -1.0920197 -1.4943438 234 88 12
0.024414182 1.3898394 -1.7586758 234 88 12
0.01870529 1.3895912 -1.7586758 234 88 12
0.069523811 0.07333333 -2.23 234 88 12
0.071428575 0.071428575 -2.23 234 88 12
0.071428575 0.069523811 -2.23 234 88 12
0.069523811 0.069523811 -2.23 234 88 12
1.3865587 0.022650262 -1.7607411 234 88 12
1.3801626 0.022928353 -1.7648718 234 88 12
