ply
format ascii 1.0
element vertex 691
property float x
property float y
property float z
property uchar red
property uchar green
property uchar blue
end_header
-0.86515909 1.6137265 -0.0794838 234 88 12
-0.85925573 1.6055135 -0.069821097 234 88 12
-0.87114143 1.6092254 -0.0794838 234 88 12
-0.86913472 1.6035627 -0.074007064 234 88 12
-0.87099487 1.6005017 -0.072738394 234 88 12
-0.88071716 1.598547 -0.076831333 234 88 12
-0.89068389 1.6012204 -0.084598571 234 88 12
-0.90550792 1.607455 -0.097875558 234 88 12
-0.88252795 1.5865837 -0.068736874 234 88 12
-0.90487117 1.5983529 -0.090559654 234 88 12
-0.90488452 1.5895594 -0.083852835 234 88 12
-0.90309173 1.583757 -0.078392394 234 88 12
-0.90887791 1.5836095 -0.081603862 234 88 12
-0.9090991 1.5792619 -0.078411296 234 88 12
-0.9400875 1.5941432 -0.10757704 234 88 12
-0.91643274 1.5712072 -0.076474078 234 88 12
-0.91431719 1.5649045 -0.070446156 234 88 12
-0.92840564 1.5714443 -0.083533667 234 88 12
-0.93799418 1.5745258 -0.091395251 234 88 12
-0.93663931 1.5688211 -0.086260892 234 88 12
-0.92870975 1.5576661 -0.073187709 234 88 12
-0.8631534 1.6033679 -0.075128317 234 88 12
-0.88457125 1.6094205 -0.0919502 234 88 12
-0.88139254 1.6029274 -0.085207939 234 88 12
-0.87746817 1.5914305 -0.074242629 234 88 12
-0.88183045 1.5856568 -0.072351873 234 88 12
-0.89281303 1.5891635 -0.081283636 234 88 12
-0.96562308 1.6382186 -0.16008149 234 88 12
-0.90378487 1.5883422 -0.086924873 234 88 12
-0.90251899 1.5829284 -0.08209379 234 88 12
-0.90879917 1.5740879 -0.078970701 234 88 12
-0.90706104 1.5681416 -0.073465876 234 88 12
-0.91574228 1.5702895 -0.08005254 234 88 12
-0.91362125 1.5639795 -0.074053086 234 88 12
-0.91644996 1.5615438 -0.073819853 234 88 12
-0.93711984 1.5642074 -0.087642804 234 88 12
-0.88211071 1.6157647 -0.099927299 234 88 12
-0.87370354 1.6014849 -0.084387377 234 88 12
-0.87835985 1.6003814 -0.086197242 234 88 12
-0.88869661 1.5945982 -0.087701149 234 88 12
-0.88910741 1.5904901 -0.084836081 234 88 12
-0.89643121 1.5913873 -0.08966846 234 88 12
-0.88990587 1.5821546 -0.079002768 234 88 12
-0.89214581 1.579301 -0.078121595 234 88 12
-0.89416617 1.5762721 -0.076983817 234 88 12
-0.90853339 1.5825629 -0.089880496 234 88 12
-0.91457033 1.5689944 -0.083073013 234 88 12
-0.92668682 1.5739405 -0.093678571 234 88 12
-0.92616034 1.5689257 -0.089597851 234 88 12
-0.92254585 1.5613726 -0.081850521 234 88 12
-0.927535 1.5607164 -0.084186584 234 88 12
-0.94009322 1.566299 -0.095522717 234 88 12
-0.8665185 1.6004324 -0.084197655 234 88 12
-0.86913496 1.5935149 -0.08048854 234 88 12
-0.88930911 1.603297 -0.099196523 234 88 12
-0.87726027 1.5904214 -0.082751863 234 88 12
-0.8913464 1.596076 -0.094933301 234 88 12
-0.88928765 1.5902027 -0.089370333 234 88 12
-0.90368569 1.5918877 -0.098752439 234 88 12
-0.88983035 1.5771731 -0.07991074 234 88 12
-0.89255327 1.5746595 -0.079562292 234 88 12
-0.89856225 1.5700493 -0.079495586 234 88 12
-0.90276611 1.5686675 -0.080830537 234 88 12
-0.91127628 1.5613751 -0.080163918 234 88 12
-0.92651004 1.5595269 -0.087369218 234 88 12
-0.86675018 1.591411 -0.082275696 234 88 12
-0.87721837 1.589962 -0.087062851 234 88 12
-0.88740098 1.5928286 -0.094904326 234 88 12
-0.93952376 1.6009499 -0.13016298 234 88 12
-0.90453273 1.5696409 -0.087234102 234 88 12
-0.93502516 1.566103 -0.10168696 234 88 12
-0.86459011 1.593859 -0.087579966 234 88 12
-0.86774176 1.5916632 -0.087709859 234 88 12
-0.88193715 1.5928894 -0.096522957 234 88 12
-0.88340139 1.580636 -0.088268623 234 88 12
-0.88642925 1.5783578 -0.088268623 234 88 12
-0.88955826 1.5761549 -0.088380635 234 88 12
-0.89162654 1.573157 -0.087313436 234 88 12
-0.90181351 1.5762975 -0.095311157 234 88 12
-0.90082157 1.5709893 -0.09082967 234 88 12
-0.90762007 1.5670431 -0.091694929 234 88 12
-0.9269644 1.577605 -0.11028557 234 88 12
-0.91243124 1.5615431 -0.090303354 234 88 12
-0.91630912 1.5599579 -0.091289565 234 88 12
-0.8964839 1.6155118 -0.1258349 234 88 12
-0.90126002 1.6104567 -0.12475986 234 88 12
-0.89605957 1.5982095 -0.1128736 234 88 12
-0.8896997 1.5892533 -0.10276633 234 88 12
-0.90234965 1.5852745 -0.10684034 234 88 12
-0.91130215 1.574095 -0.10357184 234 88 12
-0.90732026 1.5664284 -0.095729128 234 88 12
-0.92622614 1.5675304 -0.10700244 234 88 12
-0.87554508 1.6005697 -0.10785209 234 88 12
-0.90181673 1.6146295 -0.13257627 234 88 12
-0.86971331 1.587768 -0.095287912 234 88 12
-0.88749325 1.5959991 -0.111082 234 88 12
-0.88119453 1.5826693 -0.097875178 234 88 12
-0.88421255 1.5803986 -0.097875178 234 88 12
-0.89836639 1.5683275 -0.096835956 234 88 12
-0.91758555 1.5785691 -0.11489094 234 88 12
-0.92933184 1.5832107 -0.12474325 234 88 12
-0.91266501 1.5609857 -0.099333011 234 88 12
-0.96117592 1.5951688 -0.15099578 234 88 12
-0.86551183 1.5975174 -0.10473461 234 88 12
-0.86451966 1.5924827 -0.10053572 234 88 12
-0.87603676 1.5961587 -0.10949928 234 88 12
-0.89605063 1.6059471 -0.12754549 234 88 12
-0.89214343 1.5988953 -0.12028862 234 88 12
-0.92501169 1.6182173 -0.15228365 234 88 12
-0.91424054 1.5664889 -0.10882699 234 88 12
-0.86938369 1.5997405 -0.11305944 234 88 12
-0.86533517 1.5926086 -0.10571387 234 88 12
-0.87056863 1.587507 -0.10487386 234 88 12
-0.87785977 1.5882849 -0.10939435 234 88 12
-0.88367236 1.6091478 -0.13209626 234 88 12
-0.86766088 1.5937864 -0.11244117 234 88 12
-0.87581766 1.5951438 -0.11781567 234 88 12
-0.8996911 1.6076931 -0.13969608 234 88 12
-0.87638181 1.5868051 -0.11214022 234 88 12
-0.86750221 1.5975653 -0.11965014 234 88 12
-0.87099618 1.5956705 -0.12017316 234 88 12
-0.89520454 1.6083285 -0.14217104 234 88 12
-0.86834985 1.5850736 -0.11120357 234 88 12
-0.88042253 1.5892699 -0.12066601 234 88 12
-0.86474895 1.5908847 -0.1180252 234 88 12
-0.87237102 1.5874946 -0.11968516 234 88 12
-0.86775208 1.588184 -0.1223131 234 88 12
-1.8912976 0.23181747 -1.1685147 234 88 12
-1.8919176 0.22805871 -1.1685147 234 88 12
-1.8917923 0.20873311 -1.1732019 234 88 12
-1.8913372 0.20479706 -1.1747643 234 88 12
-1.8856127 0.23281035 -1.1763268 234 88 12
-1.8859227 0.23093097 -1.1763268 234 88 12
-1.8865426 0.22717223 -1.1763268 234 88 12
-1.8890224 0.21213725 -1.1763268 234 88 12
-1.5881153 0.065214261 -0.81387502 234 88 12
-1.6227795 0.07818459 -0.85490191 234 88 12
-1.8436881 0.18363434 -1.1205496 234 88 12
-1.5884296 0.053524926 -0.81207621 234 88 12
-1.8854676 0.22699493 -1.1778891 234 88 12
-1.6066769 0.074790858 -0.84156966 234 88 12
-1.5744501 0.051271636 -0.80161119 234 88 12
-1.8428124 0.18127987 -1.1223382 234 88 12
-1.880983 0.24749072 -1.1794515 234 88 12
-1.881603 0.24373198 -1.1794515 234 88 12
-1.8856325 0.21930015 -1.1794515 234 88 12
-1.8859425 0.21742077 -1.1794515 234 88 12
-1.6780564 0.11298619 -0.93212378 234 88 12
-1.5920286 0.068402648 -0.82952678 234 88 12
-1.5806025 0.058963891 -0.81526268 234 88 12
-1.5752808 0.052376844 -0.80822206 234 88 12
-1.5781246 0.049784154 -0.81087673 234 88 12
-1.5823085 0.047896065 -0.81513143 234 88 12
-1.6375244 0.11220746 -0.89233184 234 88 12
-1.5937978 0.089105584 -0.84048164 234 88 12
-1.599474 0.087851524 -0.84644729 234 88 12
-1.5798175 0.075017728 -0.82269847 234 88 12
-1.5872693 0.074559666 -0.83074397 234 88 12
-1.5723538 0.063627675 -0.81250852 234 88 12
-1.5684659 0.057776544 -0.80721521 234 88 12
-1.5739325 0.056402553 -0.81293064 234 88 12
-1.5689344 0.049952179 -0.80631876 234 88 12
-1.5698663 0.046379667 -0.80669248 234 88 12
-1.5839829 0.049450293 -0.82264239 234 88 12
-1.6744319 0.13556688 -0.94131881 234 88 12
-1.6749393 0.13249104 -0.94131881 234 88 12
-1.5883197 0.09107507 -0.84012783 234 88 12
-1.5761074 0.081784576 -0.82524484 234 88 12
-1.5717391 0.07588423 -0.81946087 234 88 12
-1.5738277 0.072883599 -0.8211866 234 88 12
-1.5719285 0.04409837 -0.81398928 234 88 12
-1.877758 0.24695884 -1.1841387 234 88 12
-1.878378 0.24320009 -1.1841387 234 88 12
-1.8796178 0.23568261 -1.1841387 234 88 12
-1.7681102 0.18141864 -1.0546498 234 88 12
-1.5744352 0.0972348 -0.83152848 234 88 12
-1.5713729 0.092036329 -0.82731479 234 88 12
-1.5735569 0.089064591 -0.82913566 234 88 12
-1.5772107 0.086757734 -0.83265442 234 88 12
-1.5668503 0.07824789 -0.82000852 234 88 12
-1.5644661 0.069213882 -0.81584388 234 88 12
-1.5614375 0.063811511 -0.81163043 234 88 12
-1.5620534 0.060077105 -0.81163043 234 88 12
-1.5617844 0.051884063 -0.80988854 234 88 12
-1.5656015 0.045676254 -0.81289119 234 88 12
-1.5756439 0.046674214 -0.82386357 234 88 12
-1.8766831 0.24678153 -1.1857011 234 88 12
-1.877303 0.24302278 -1.1857011 234 88 12
-1.8797828 0.22798781 -1.1857011 234 88 12
-1.6258001 0.11933272 -0.89553452 234 88 12
-1.5661279 0.090347968 -0.82675254 234 88 12
-1.5684447 0.087412953 -0.82870841 234 88 12
-1.5813643 0.089145504 -0.84280068 234 88 12
-1.5662004 0.078549363 -0.82475328 234 88 12
-1.5577967 0.070805021 -0.81442201 234 88 12
-1.5583675 0.063026868 -0.81366211 234 88 12
-1.5597038 0.051560063 -0.81307 234 88 12
-1.6088859 0.064005986 -0.86774617 234 88 12
-1.8774679 0.235328 -1.1872635 234 88 12
-1.5617497 0.089033499 -0.82722634 234 88 12
-1.5604632 0.084529169 -0.82507634 234 88 12
-1.5535553 0.077543087 -0.81653726 234 88 12
-1.553835 0.069632173 -0.81545138 234 88 12
-1.5713052 0.049885966 -0.83050919 234 88 12
-1.637104 0.14228737 -0.9210577 234 88 12
-1.5518854 0.10130505 -0.82432437 234 88 12
-1.5490856 0.096201584 -0.82049465 234 88 12
-1.5480604 0.091788299 -0.8186509 234 88 12
-1.5579808 0.087981358 -0.82842386 234 88 12
-1.5517882 0.081357084 -0.8207621 234 88 12
-1.5541389 0.066364154 -0.82063371 234 88 12
-1.5534739 0.062037658 -0.81918389 234 88 12
-1.5584307 0.060321193 -0.82409912 234 88 12
-1.5585591 0.048334636 -0.822155 234 88 12
-1.5689516 0.049414832 -0.83327222 234 88 12
-1.5921708 0.13266659 -0.87715495 234 88 12
-1.5613306 0.11722112 -0.8422969 234 88 12
-1.5445288 0.10683808 -0.82296741 234 88 12
-1.5474074 0.10398786 -0.82548189 234 88 12
-1.5549128 0.10301254 -0.83314997 234 88 12
-1.5475646 0.0921124 -0.82360113 234 88 12
-1.5488327 0.076644279 -0.82226151 234 88 12
-1.5599849 0.065664284 -0.83201426 234 88 12
-1.5609299 0.050164986 -0.83033192 234 88 12
-1.8726931 0.24419297 -1.1919507 234 88 12
-1.5702252 0.12865333 -0.85871536 234 88 12
-1.5586467 0.12051953 -0.8453247 234 88 12
-1.5445813 0.11129428 -0.82916993 234 88 12
-1.5598481 0.11323553 -0.8453247 234 88 12
-1.5458902 0.099909097 -0.82858044 234 88 12
-1.5482459 0.0968863 -0.83050513 234 88 12
-1.5460409 0.092011847 -0.82738662 234 88 12
-1.5529876 0.090916157 -0.83439904 234 88 12
-1.5695138 0.093945406 -0.85204512 234 88 12
-1.5499057 0.061659075 -0.8262037 234 88 12
-1.5592616 0.06198464 -0.83595604 234 88 12
-1.5653427 0.060873877 -0.84206873 234 88 12
-1.5782268 0.1320146 -0.87264973 234 88 12
-1.5394936 0.10981911 -0.82903248 234 88 12
-1.5480356 0.10125919 -0.83636844 234 88 12
-1.5552003 0.092366792 -0.84223092 234 88 12
-1.5502306 0.086341739 -0.83609539 234 88 12
-1.5447839 0.080045581 -0.82942325 234 88 12
-1.5439955 0.075697325 -0.82787418 234 88 12
-1.5451677 0.072194524 -0.82848573 234 88 12
-1.5490775 0.061906688 -0.83076262 234 88 12
-1.5804596 0.072455272 -0.86484033 234 88 12
-1.5476794 0.10946563 -0.8426879 234 88 12
-1.5462961 0.1050001 -0.84052289 234 88 12
-1.5455029 0.10074524 -0.83899599 234 88 12
-1.5380493 0.093789153 -0.83021164 234 88 12
-1.5569049 0.09749794 -0.85009426 234 88 12
-1.550586 0.090977259 -0.84254205 234 88 12
-1.5714566 0.084322259 -0.86273688 234 88 12
-1.5904009 0.12635666 -0.8940869 234 88 12
-1.5482457 0.10623826 -0.84798318 234 88 12
-1.5958054 0.12117411 -0.89869976 234 88 12
-1.5383246 0.086424358 -0.83461136 234 88 12
-1.5473001 0.086192116 -0.84367245 234 88 12
-1.5491515 0.083023973 -0.84501988 234 88 12
-1.5432867 0.076536193 -0.83798873 234 88 12
-1.5821142 0.11249854 -0.88833725 234 88 12
-1.5368924 0.090355754 -0.83914894 234 88 12
-1.5429916 0.088885866 -0.84504348 234 88 12
-1.5368006 0.082327195 -0.83772385 234 88 12
-1.5564226 0.082769118 -0.85754544 234 88 12
-1.6000885 0.1165745 -0.91190487 234 88 12
-1.5574411 0.095373034 -0.86580461 234 88 12
-1.5502863 0.084601358 -0.85688168 234 88 12
-1.5472399 0.095586449 -0.86083353 234 88 12
-1.5430812 0.089969546 -0.85579056 234 88 12
-1.5331007 0.077862293 -0.84391248 234 88 12
-1.5554165 0.083439372 -0.8669554 234 88 12
-1.5294781 0.088892065 -0.84741533 234 88 12
-1.5375422 0.084255494 -0.85460103 234 88 12
-1.5426165 0.078498244 -0.85866141 234 88 12
-1.5318662 0.090370513 -0.85524666 234 88 12
-1.5304071 0.081818484 -0.8524425 234 88 12
-1.5454952 0.084194347 -0.86756909 234 88 12
-1.5335047 0.079679139 -0.86033446 234 88 12
-0.031136163 2.0608163 -0.91272008 234 88 12
-0.033024516 2.0605667 -0.91272008 234 88 12
0.24067849 1.787748 -0.49524382 234 88 12
0.23225546 1.7878833 -0.49694216 234 88 12
0.14352159 1.8723089 -0.62777185 234 88 12
-0.036677204 2.059129 -0.9143728 234 88 12
-0.040453911 2.05863 -0.9143728 234 88 12
0.24839866 1.7782887 -0.48680997 234 88 12
0.23729946 1.7853779 -0.49837404 234 88 12
0.22960132 1.7847672 -0.4989233 234 88 12
-0.034664832 2.0584397 -0.91602552 234 88 12
0.22191037 1.7841601 -0.4994761 234 88 12
-0.040329892 2.0576913 -0.91602552 234 88 12
0.23902246 1.7820227 -0.49927774 234 88 12
0.2298426 1.7829407 -0.50213885 234 88 12
0.22421044 1.7845213 -0.50525993 234 88 12
0.22087471 1.7836924 -0.50473869 234 88 12
0.20755309 1.7935576 -0.52034748 234 88 12
0.25285408 1.7705145 -0.48720485 234 88 12
0.24599604 1.7688495 -0.48619264 234 88 12
0.22770098 1.7792633 -0.50330526 234 88 12
0.22145726 1.7815069 -0.50739789 234 88 12
0.044920892 1.9667621 -0.78558296 234 88 12
0.25310051 1.7686492 -0.49048892 234 88 12
0.24802054 1.7695301 -0.4925451 234 88 12
0.23925577 1.7698865 -0.49455133 234 88 12
0.2295932 1.7712444 -0.49804157 234 88 12
0.25465605 1.765433 -0.49176762 234 88 12
0.25084284 1.7649904 -0.49184817 234 88 12
0.23828997 1.7693083 -0.499713 234 88 12
0.23768677 1.7654936 -0.49479774 234 88 12
0.22217657 1.7776079 -0.51343662 234 88 12
0.21596736 1.7913445 -0.53809923 234 88 12
0.23313357 1.76875 -0.50559884 234 88 12
0.25528127 1.7615576 -0.49815166 234 88 12
0.24062634 1.7724489 -0.51480776 234 88 12
0.24355657 1.7649889 -0.50461853 234 88 12
0.22784016 1.777215 -0.52318972 234 88 12
0.2531057 1.7622082 -0.50510812 234 88 12
0.24753529 1.7636262 -0.50788623 234 88 12
0.22653215 1.7813747 -0.53435677 234 88 12
-1.0518647 1.1689085 -1.5835387 234 88 12
-1.0532212 1.1675713 -1.5835387 234 88 12
-1.03636 1.1803123 -1.5861621 234 88 12
-1.0485691 1.1682783 -1.5861621 234 88 12
-1.0499256 1.1669412 -1.5861621 234 88 12
-1.0394602 1.1753173 -1.5874738 234 88 12
-1.0475996 1.1672946 -1.5874738 234 88 12
-1.0330644 1.1796821 -1.5887854 234 88 12
-1.0315124 1.1753941 -1.5927205 234 88 12
-1.0396516 1.1673714 -1.5927205 234 88 12
-1.047791 1.1593487 -1.5927205 234 88 12
-1.0278296 1.1770847 -1.5940322 234 88 12
-1.0305427 1.1744105 -1.5940322 234 88 12
-1.0346124 1.1703991 -1.5940322 234 88 12
-1.0386821 1.1663878 -1.5940322 234 88 12
-1.0427518 1.1623764 -1.5940322 234 88 12
-1.0454649 1.1597022 -1.5940322 234 88 12
-1.0536042 1.1516795 -1.5940322 234 88 12
-1.0576738 1.1476681 -1.5940322 234 88 12
-0.7627086 1.0130461 -1.2350134 234 88 12
-0.82719803 1.0243429 -1.2987208 234 88 12
-0.92196071 1.0816967 -1.427016 234 88 12
-0.81206155 1.0065467 -1.2708797 234 88 12
-1.0512781 1.152033 -1.5953439 234 88 12
-0.84025109 0.99689621 -1.2863127 234 88 12
-0.80659449 0.96841538 -1.2338443 234 88 12
-0.76611972 1.0223535 -1.2514278 234 88 12
-0.81561249 1.0202515 -1.2908489 234 88 12
-0.77836192 0.98814374 -1.2327288 234 88 12
-0.78586 0.98871851 -1.2394553 234 88 12
-0.79143906 0.98809755 -1.2435747 234 88 12
-0.7834062 0.97837454 -1.2286777 234 88 12
-0.98977691 1.1116236 -1.5129777 234 88 12
-0.79616064 0.97383648 -1.235462 234 88 12
-0.79626364 0.96945006 -1.2318435 234 88 12
-0.80187047 0.96895194 -1.2360898 234 88 12
-0.79660487 0.95605004 -1.2208117 234 88 12
-0.76427597 1.0204829 -1.2539222 234 88 12
-0.74105972 1.0029644 -1.2200657 234 88 12
-0.74630225 1.0017978 -1.2234184 234 88 12
-0.76157969 1.0066426 -1.2400972 234 88 12
-0.75133759 0.99629301 -1.2229645 234 88 12
-0.78737837 1.0139972 -1.2675693 234 88 12
-0.75818127 0.99189538 -1.2249321 234 88 12
-0.75887465 0.98800641 -1.2222459 234 88 12
-0.77739924 0.99538136 -1.243727 234 88 12
-0.77057159 0.98674691 -1.2308519 234 88 12
-0.78127515 0.98503566 -1.2382588 234 88 12
-0.79921144 0.99261749 -1.2594273 234 88 12
-0.78346556 0.97776598 -1.2339761 234 88 12
-0.79186636 0.97907317 -1.2420105 234 88 12
-0.7932933 0.97566408 -1.2403322 234 88 12
-0.79307336 0.96209472 -1.2287797 234 88 12
-0.80427313 0.96564144 -1.2410026 234 88 12
-0.79878539 0.95710707 -1.2293181 234 88 12
-0.74380374 1.007906 -1.2322446 234 88 12
-0.73912996 1.0010066 -1.2226765 234 88 12
-0.75790328 0.99523836 -1.2332674 234 88 12
-0.77079964 0.99895227 -1.2469263 234 88 12
-0.75695044 0.98605418 -1.2248491 234 88 12
-0.75723362 0.98187131 -1.2216029 234 88 12
-0.76989502 0.98560452 -1.2350852 234 88 12
-0.77363765 0.98369378 -1.2365639 234 88 12
-0.76608884 0.97436547 -1.2226195 234 88 12
-0.77069026 0.96850324 -1.2215163 234 88 12
-0.77820301 0.96912134 -1.228188 234 88 12
-0.78433186 0.96437466 -1.2292644 234 88 12
-0.78277034 0.95873588 -1.2232955 234 88 12
-0.79228413 0.96096075 -1.2329435 234 88 12
-0.78925133 0.95420456 -1.2248394 234 88 12
-0.80504656 0.96116751 -1.2435762 234 88 12
-0.75273848 1.0081142 -1.2454065 234 88 12
-0.75766575 1.0068821 -1.2483975 234 88 12
-0.74272096 0.9937982 -1.225445 234 88 12
-0.75956255 0.99970114 -1.2440146 234 88 12
-0.75337261 0.99169677 -1.2323747 234 88 12
-0.76233882 0.98438698 -1.2336354 234 88 12
-0.75824982 0.97740316 -1.2245466 234 88 12
-0.76758343 0.97022951 -1.2262186 234 88 12
-0.77502596 0.96180695 -1.2253219 234 88 12
-0.78539914 1.0225139 -1.2891778 234 88 12
-0.78285342 1.0170566 -1.2826542 234 88 12
-0.74878627 0.99239373 -1.2349609 234 88 12
-0.76170963 0.98756939 -1.2414414 234 88 12
-0.76185489 0.97020227 -1.227337 234 88 12
-0.77259529 0.96401715 -1.2309412 234 88 12
-0.77309632 0.95984918 -1.2279326 234 88 12
-0.77836305 0.95898926 -1.2314794 234 88 12
-0.77812165 0.95426071 -1.2274125 234 88 12
-0.78112334 0.95181316 -1.227831 234 88 12
-0.80478042 0.96439326 -1.2572274 234 88 12
-0.79614604 0.9535715 -1.2413964 234 88 12
-0.73848474 0.98965657 -1.2301787 234 88 12
-0.74261737 0.98354954 -1.2285262 234 88 12
-0.75500911 0.98691756 -1.2411886 234 88 12
-0.75254375 0.97669691 -1.2309084 234 88 12
-0.75404805 0.97326493 -1.2293243 234 88 12
-0.75794101 0.97137696 -1.2309084 234 88 12
-0.76372862 0.96631873 -1.2314336 234 88 12
-0.78383976 0.966694 -1.2478472 234 88 12
-0.77833682 0.95382822 -1.2329844 234 88 12
-0.77477908 1.0107186 -1.2817382 234 88 12
-0.74014258 0.98557621 -1.233932 234 88 12
-0.75157541 0.98403108 -1.2417735 234 88 12
-0.75791961 0.98372424 -1.2465688 234 88 12
-0.7560969 0.96947569 -1.2336298 234 88 12
-0.76279855 0.96947181 -1.2389535 234 88 12
-0.7666809 0.96763909 -1.2405615 234 88 12
-0.77945489 0.96747595 -1.2505834 234 88 12
-0.77236098 0.95810711 -1.2373897 234 88 12
-0.77143055 0.95291609 -1.232464 234 88 12
-0.74431491 0.99158895 -1.2477283 234 88 12
-0.75085515 0.99134338 -1.2526907 234 88 12
-0.74247265 0.97759217 -1.2350742 234 88 12
-0.75339639 0.9758032 -1.2422591 234 88 12
-0.77053457 0.96957725 -1.2507951 234 88 12
-0.77481681 0.95920879 -1.2458755 234 88 12
-0.77313775 0.95352203 -1.2400002 234 88 12
-0.78411502 0.95679218 -1.2512759 234 88 12
-0.73500699 0.98518044 -1.2409376 234 88 12
-0.75377351 0.98817164 -1.258003 234 88 12
-0.74497318 0.97841245 -1.2433641 234 88 12
-0.75621414 0.98120236 -1.2543788 234 88 12
-0.76415414 0.98200232 -1.2612292 234 88 12
-0.7703225 0.95995259 -1.2485468 234 88 12
-0.78429699 0.96522248 -1.2636707 234 88 12
-0.77564824 0.95470315 -1.2485468 234 88 12
-0.73939413 0.98279846 -1.2481014 234 88 12
-0.73587763 0.97631842 -1.2402629 234 88 12
-0.74644154 0.97427195 -1.2468561 234 88 12
-0.7304461 0.98084408 -1.2452501 234 88 12
-0.7332347 0.97824711 -1.2453687 234 88 12
-0.74015695 0.97822398 -1.2506868 234 88 12
-0.76024646 0.98234779 -1.2693986 234 88 12
-0.72861624 0.97894889 -1.2479731 234 88 12
-0.73122466 0.97624165 -1.2478673 234 88 12
-0.75440109 0.98215699 -1.2701885 234 88 12
-0.73598021 0.97412467 -1.2554179 234 88 12
-0.80016387 1.0103801 -1.3320695 234 88 12
-0.98323596 -0.26523012 -1.9892823 234 88 12
-0.9810974 -0.26880631 -1.9901643 234 88 12
-0.97901469 -0.28582218 -1.9901643 234 88 12
-0.97757035 -0.28372642 -1.9910464 234 88 12
-0.97733897 -0.28561708 -1.9910464 234 88 12
-0.93689436 -0.30689868 -1.9289852 234 88 12
-0.85740519 -0.34777245 -1.8068202 234 88 12
-0.73277801 -0.41200176 -1.6153125 234 88 12
-0.97820878 -0.26461479 -1.9919285 234 88 12
-0.97774595 -0.26839611 -1.9919285 234 88 12
-0.85161394 -0.3439883 -1.8018653 234 88 12
-0.71384585 -0.41249189 -1.5914693 234 88 12
-0.70094305 -0.42219248 -1.5724183 234 88 12
-0.71013457 -0.42119652 -1.5871668 234 88 12
-0.73078704 -0.41437465 -1.6193929 234 88 12
-0.70669514 -0.41047457 -1.5865594 234 88 12
-0.70494401 -0.421738 -1.5859588 234 88 12
-0.70340246 -0.42596897 -1.5843083 234 88 12
-0.70299989 -0.4067862 -1.5869586 234 88 12
-0.70063251 -0.4148677 -1.5847552 234 88 12
-0.69661468 -0.42027625 -1.57939 234 88 12
-0.69274312 -0.42565885 -1.5742537 234 88 12
-0.69782394 -0.42669481 -1.5825794 234 88 12
-0.70035064 -0.42892972 -1.5870564 234 88 12
-0.71724081 -0.39163741 -1.613591 234 88 12
-0.70527738 -0.4003984 -1.596325 234 88 12
-0.70019764 -0.40616959 -1.5893918 234 88 12
-0.69328576 -0.41636664 -1.5804129 234 88 12
-0.68923807 -0.42886785 -1.5764217 234 88 12
-0.97034883 -0.27324763 -1.9954566 234 88 12
-0.81436509 -0.34163198 -1.7633979 234 88 12
-0.73487657 -0.37883687 -1.6455954 234 88 12
-0.69725001 -0.4021326 -1.5909264 234 88 12
-0.70021152 -0.40428326 -1.5959959 234 88 12
-0.69648546 -0.41293868 -1.5918038 234 88 12
-0.69127208 -0.41886991 -1.5847493 234 88 12
-0.68414617 -0.42577252 -1.5748751 234 88 12
-0.68395001 -0.42940983 -1.5752666 234 88 12
-0.68567169 -0.43210536 -1.5784919 234 88 12
-0.97145009 -0.25035471 -1.9963386 234 88 12
-0.9700616 -0.2616986 -1.9963386 234 88 12
-0.96913594 -0.26926121 -1.9963386 234 88 12
-0.72700769 -0.37392351 -1.6388384 234 88 12
-0.7143535 -0.38259166 -1.620765 234 88 12
-0.69314462 -0.39509091 -1.590086 234 88 12
-0.68804747 -0.4008216 -1.5832331 234 88 12
-0.68962985 -0.4036549 -1.5862406 234 88 12
-0.6829949 -0.41014963 -1.5771363 234 88 12
-0.68253428 -0.41391256 -1.5771363 234 88 12
-0.68375456 -0.42396945 -1.5809577 234 88 12
-0.69139117 -0.42383265 -1.5928369 234 88 12
-0.97000575 -0.24825893 -1.9972208 234 88 12
-0.96931154 -0.2539309 -1.9972208 234 88 12
-0.77006859 -0.34836939 -1.7070539 234 88 12
-0.70128602 -0.37946665 -1.6065979 234 88 12
-0.6962713 -0.38499865 -1.5998918 234 88 12
-0.69135207 -0.39054742 -1.5933365 234 88 12
-0.67876977 -0.41369823 -1.5782646 234 88 12
-0.67830884 -0.41746396 -1.5782646 234 88 12
-0.67728412 -0.42504382 -1.5781146 234 88 12
-0.67682308 -0.42881027 -1.5781146 234 88 12
-0.6848278 -0.42849377 -1.5904304 234 88 12
-0.74118435 -0.35521591 -1.6699386 234 88 12
-0.70112175 -0.37438995 -1.6121103 234 88 12
-0.68745434 -0.38336733 -1.5928391 234 88 12
-0.68882209 -0.38632652 -1.5954916 234 88 12
-0.69812584 -0.38595077 -1.6096863 234 88 12
-0.68340504 -0.39563051 -1.5889319 234 88 12
-0.6771757 -0.40183741 -1.5805455 234 88 12
-0.67748374 -0.40526572 -1.5816612 234 88 12
-0.68440479 -0.37934253 -1.5942556 234 88 12
-0.68318021 -0.38336191 -1.5931416 234 88 12
-0.67563301 -0.39354122 -1.5835595 234 88 12
-0.67975539 -0.40947238 -1.5927935 234 88 12
-0.67447639 -0.41536462 -1.5858625 234 88 12
-0.6848647 -0.4245435 -1.6033682 234 88 12
-0.94907022 -0.2680302 -1.9796373 234 88 12
-0.68495733 -0.37040511 -1.6002028 234 88 12
-0.67861634 -0.37637275 -1.5917411 234 88 12
-0.67400974 -0.38173172 -1.5857828 234 88 12
-0.68585032 -0.38407409 -1.604073 234 88 12
-0.75019187 -0.36110422 -1.6968721 234 88 12
-0.69172043 -0.38859552 -1.6137609 234 88 12
-0.67704934 -0.39824948 -1.5934162 234 88 12
-0.66965151 -0.40495282 -1.5834963 234 88 12
-0.67500585 -0.40971228 -1.5924504 234 88 12
-0.66893005 -0.41595441 -1.5844392 234 88 12
-0.67570007 -0.41994059 -1.5953856 234 88 12
-0.96237725 -0.25500113 -2.0007489 234 88 12
-0.86355269 -0.29651919 -1.8605207 234 88 12
-0.73103911 -0.34814981 -1.6717494 234 88 12
-0.67407787 -0.37287757 -1.5910696 234 88 12
-0.67060083 -0.37777585 -1.5867652 234 88 12
-0.67014074 -0.38153493 -1.5867652 234 88 12
-0.66822475 -0.38587055 -1.5846928 234 88 12
-0.67768538 -0.38564956 -1.5988045 234 88 12
-0.66755831 -0.39330292 -1.5850568 234 88 12
-0.6680752 -0.39666459 -1.5864456 234 88 12
-0.67170382 -0.40930811 -1.5941885 234 88 12
-0.66676313 -0.41502744 -1.587845 234 88 12
-0.67406452 -0.4152846 -1.598814 234 88 12
-0.96139574 -0.24912405 -2.001631 234 88 12
-0.71161669 -0.34718266 -1.6488366 234 88 12
-0.68350047 -0.36070696 -1.609576 234 88 12
-0.66846991 -0.36974639 -1.5889164 234 88 12
-0.67140418 -0.37579313 -1.5943682 234 88 12
-0.68406761 -0.38138983 -1.6141737 234 88 12
-0.67333883 -0.38919935 -1.5996734 234 88 12
-0.66382158 -0.40377772 -1.5882 234 88 12
-0.69187587 -0.3492538 -1.626399 234 88 12
-0.66822195 -0.36105937 -1.593714 234 88 12
-0.67146868 -0.36346993 -1.5989264 234 88 12
-0.66886443 -0.37509766 -1.5971885 234 88 12
-0.66840816 -0.37882543 -1.5971885 234 88 12
-0.67616773 -0.38284519 -1.6093323 234 88 12
-0.66944402 -0.38904148 -1.6005532 234 88 12
-0.66269529 -0.3953236 -1.5917526 234 88 12
-0.66911983 -0.39974234 -1.6020036 234 88 12
-0.66976488 -0.3553912 -1.6016163 234 88 12
-0.66181332 -0.36173812 -1.5911424 234 88 12
-0.66135269 -0.36550122 -1.5911424 234 88 12
-0.66136438 -0.37268305 -1.5924428 234 88 12
-0.70073009 -0.36817524 -1.6491046 234 88 12
-0.66258126 -0.38650984 -1.5966898 234 88 12
-0.65801042 -0.39189014 -1.5909785 234 88 12
-0.66334987 -0.39684305 -1.5996581 234 88 12
-0.65900028 -0.40219206 -1.5942643 234 88 12
-0.66647172 -0.3549881 -1.6033497 234 88 12
-0.65934896 -0.36462107 -1.5947427 234 88 12
-0.66399896 -0.37008977 -1.6024457 234 88 12
-0.66712141 -0.37247694 -1.6073904 234 88 12
-0.68026137 -0.37103012 -1.6261619 234 88 12
-0.65426385 -0.39164457 -1.5921687 234 88 12
-0.65472317 -0.39504075 -1.5934358 234 88 12
-0.66170549 -0.39928833 -1.6042998 234 88 12
-0.67334121 -0.37203544 -1.6227502 234 88 12
-0.65303481 -0.38325006 -1.5955516 234 88 12
-0.66746348 -0.38472804 -1.6165384 234 88 12
-0.65508932 -0.39315507 -1.6002445 234 88 12
-0.65463185 -0.3968927 -1.6002445 234 88 12
-0.66301835 -0.39699289 -1.6123095 234 88 12
-0.75976098 -0.36012727 -1.7447993 234 88 12
-0.64834714 -0.38694599 -1.5960888 234 88 12
-0.65837836 -0.38661152 -1.6103255 234 88 12
-0.64663446 -0.39837268 -1.5956413 234 88 12
-0.6614666 -0.39938 -1.6169535 234 88 12
-0.66245252 -0.37987483 -1.6213504 234 88 12
-0.64630973 -0.3896195 -1.6002151 234 88 12
-0.65023619 -0.39164627 -1.6061168 234 88 12
-0.65234822 -0.40139481 -1.6107894 234 88 12
-0.67885345 -0.37876299 -1.6504825 234 88 12
-0.64203817 -0.39672992 -1.601932 234 88 12
-0.63907099 -0.39260739 -1.6035515 234 88 12
-0.63816243 -0.40011218 -1.6035655 234 88 12
-0.64298671 -0.38940835 -1.6148311 234 88 12
-0.64205581 -0.40036619 -1.6153976 234 88 12
0.17594804 1.2810808 -1.8330287 234 88 12
0.17221163 1.2793164 -1.8340614 234 88 12
0.1856019 1.2782965 -1.835094 234 88 12
0.18179598 1.278131 -1.835094 234 88 12
0.17989302 1.2780483 -1.835094 234 88 12
0.17228116 1.2777174 -1.835094 234 88 12
0.18778296 1.2719831 -1.8392247 234 88 12
0.1801711 1.2716522 -1.8392247 234 88 12
0.18404655 1.2702187 -1.8402574 234 88 12
0.18024063 1.2700533 -1.8402574 234 88 12
0.40317327 1.0836536 -1.4507443 234 88 12
0.42594197 1.0647053 -1.4185921 234 88 12
0.40581223 1.0720422 -1.4351064 234 88 12
0.42283064 1.0643601 -1.4263802 234 88 12
0.39779738 1.0825144 -1.4647136 234 88 12
0.4249348 1.0558746 -1.4092939 234 88 12
0.40594476 1.0689944 -1.4370747 234 88 12
0.42807689 1.0535294 -1.4126494 234 88 12
0.42320079 1.0543565 -1.4147003 234 88 12
0.41107625 1.0615602 -1.4299572 234 88 12
0.18058825 1.2620581 -1.8454208 234 88 12
0.43451795 1.0483367 -1.4101329 234 88 12
0.4159908 1.0610169 -1.4365 234 88 12
0.39621696 1.0749962 -1.4655132 234 88 12
0.41535851 1.0548141 -1.424426 234 88 12
0.40838927 1.0575681 -1.4304031 234 88 12
0.41083038 1.0519172 -1.419147 234 88 12
0.40093145 1.0573515 -1.4306136 234 88 12
0.37582785 1.0767643 -1.4707035 234 88 12
0.1730459 1.2601281 -1.8464534 234 88 12
0.43074945 1.0451444 -1.4124351 234 88 12
0.38856253 1.078907 -1.4813905 234 88 12
0.42051545 1.0437232 -1.4105439 234 88 12
0.41920477 1.0413392 -1.4060361 234 88 12
0.40674835 1.0490837 -1.4220874 234 88 12
0.4003782 1.0513629 -1.427039 234 88 12
0.43098351 1.0383977 -1.4075764 234 88 12
0.41502056 1.049145 -1.4295359 234 88 12
0.41959053 1.0415193 -1.4145184 234 88 12
0.41107106 1.0456939 -1.4232416 234 88 12
0.40608662 1.0430968 -1.418673 234 88 12
0.39708215 1.047851 -1.4285491 234 88 12
0.38349611 1.0570028 -1.4472479 234 88 12
0.42977268 1.0434061 -1.4253187 234 88 12
0.4284696 1.0410985 -1.4210379 234 88 12
0.425239 1.0369427 -1.4134018 234 88 12
0.40931511 1.0407161 -1.4218944 234 88 12
0.40235093 1.0362101 -1.413901 234 88 12
0.42919105 1.0409172 -1.4285953 234 88 12
0.4355157 1.0317794 -1.410858 234 88 12
0.43187475 1.03148 -1.4105921 234 88 12
0.42596513 1.0332397 -1.4143924 234 88 12
0.42407313 1.0313507 -1.4109877 234 88 12
0.41317549 1.0341108 -1.4170817 234 88 12
0.38773412 1.0542997 -1.4572097 234 88 12
0.39227366 1.0464458 -1.4420381 234 88 12
0.24343178 1.184899 -1.715132 234 88 12
0.43244639 1.0314825 -1.4185679 234 88 12
0.41925225 1.0327401 -1.4219874 234 88 12
0.41158557 1.0362176 -1.4291034 234 88 12
0.41368806 1.0305967 -1.418437 234 88 12
0.40002802 1.0361094 -1.4298396 234 88 12
0.42188701 1.0414877 -1.4458414 234 88 12
0.42136905 1.0384833 -1.4403237 234 88 12
0.42880821 1.0281632 -1.4206289 234 88 12
0.40605226 1.0419716 -1.4480108 234 88 12
0.40138376 1.0427685 -1.4498609 234 88 12
0.40821514 1.0290229 -1.4238765 234 88 12
0.42829967 1.03273 -1.4369012 234 88 12
0.42857495 1.0289375 -1.4299246 234 88 12
0.41484049 1.0379732 -1.447589 234 88 12
0.39480865 1.049541 -1.4703988 234 88 12
0.41428545 1.0276767 -1.4287518 234 88 12
0.24285714 -0.13238095 -2.23 234 88 12
0.24285714 -0.13428572 -2.23 234 88 12
