ply
format ascii 1.0
element vertex 136
property float x
property float y
property float z
property uchar red
property uchar green
property uchar blue
end_header
-2.0227003 -0.72393727 -0.63309193 234 88 12
-2.0200241 -0.72903484 -0.63486207 234 88 12
-2.0220718 -0.71962804 -0.6384024 234 88 12
-2.0241051 -0.71225166 -0.6401726 234 88 12
-2.0234323 -0.71403366 -0.6401726 234 88 12
-2.0208151 -0.71100962 -0.64902341 234 88 12
-2.0181241 -0.71813762 -0.64902341 234 88 12
-2.0134444 -0.72655076 -0.65256375 234 88 12
-2.0208595 -0.70491844 -0.65433389 234 88 12
-2.0188856 -0.70417321 -0.65964442 234 88 12
-2.0168674 -0.70951921 -0.65964442 234 88 12
-0.71220851 -2.0293837 -0.62778139 234 88 12
-0.71374208 -2.0280528 -0.62955159 234 88 12
-0.70611733 -2.029428 -0.63309193 234 88 12
-0.7125001 -2.0247629 -0.6384024 234 88 12
-0.7071541 -2.0267813 -0.6384024 234 88 12
-0.71403366 -2.0234323 -0.6401726 234 88 12
-0.69774729 -2.0288291 -0.64194274 234 88 12
-0.70769405 -2.0228186 -0.64725327 234 88 12
-0.70922762 -2.021488 -0.64902341 234 88 12
-0.70744562 -2.0221608 -0.64902341 234 88 12
-0.70209968 -2.024179 -0.64902341 234 88 12
-0.69675368 -2.0261972 -0.64902341 234 88 12
-0.70773721 -2.0175402 -0.65964442 234 88 12
-1.8867601 0.39323065 -1.1372668 234 88 12
-1.8876899 0.38759255 -1.1372668 234 88 12
-1.8835154 0.40620896 -1.1388291 234 88 12
-1.8844453 0.40057084 -1.1388291 234 88 12
-1.8836802 0.39851418 -1.1403915 234 88 12
-1.8830801 0.38876271 -1.1435163 234 88 12
-1.8772105 0.41096058 -1.1466411 234 88 12
-1.8778305 0.40720186 -1.1466411 234 88 12
-1.8793803 0.39780498 -1.1466411 234 88 12
-1.8741307 0.41624412 -1.1497658 234 88 12
-1.8732206 0.40837204 -1.1528907 234 88 12
-1.8740054 0.39691851 -1.1544532 234 88 12
-1.2003534 -1.2070878 -1.4443645 234 88 12
-1.1963128 -1.2111284 -1.4443645 234 88 12
-1.1994344 -1.2061688 -1.4457569 234 88 12
-1.1980876 -1.2075156 -1.4457569 234 88 12
-1.1953938 -1.2102094 -1.4457569 234 88 12
-1.1962495 -1.2056775 -1.4485418 234 88 12
-1.1970417 -1.1956949 -1.4555039 234 88 12
-1.1862668 -1.2064698 -1.4555039 234 88 12
-1.1947758 -1.1961226 -1.4568964 234 88 12
-1.193429 -1.1974696 -1.4568964 234 88 12
-1.1853477 -1.2055508 -1.4568964 234 88 12
-1.1840008 -1.2068976 -1.4568964 234 88 12
-1.1896894 -1.1883426 -1.4666433 234 88 12
0.40198922 -1.8930451 -1.1263299 234 88 12
0.39993256 -1.8922801 -1.1278923 234 88 12
0.40897483 -1.8885803 -1.1310171 234 88 12
0.41596043 -1.8841155 -1.1357043 234 88 12
0.41971916 -1.8834956 -1.1357043 234 88 12
0.40262753 -1.8852103 -1.1372668 234 88 12
0.41014501 -1.8839704 -1.1372668 234 88 12
0.41954187 -1.8824205 -1.1372668 234 88 12
0.4043296 -1.8838253 -1.1388291 234 88 12
0.40908122 -1.8775206 -1.1466411 234 88 12
0.41624412 -1.8741307 -1.1497658 234 88 12
-1.0825238 1.2705613 -1.4943438 234 88 12
-1.0720583 1.2789376 -1.4956555 234 88 12
-1.0815542 1.2695777 -1.4956555 234 88 12
-1.0856239 1.2655663 -1.4956555 234 88 12
-1.0738019 1.2752796 -1.4969672 234 88 12
-1.0877545 1.2595878 -1.4982789 234 88 12
-1.0918241 1.2555764 -1.4982789 234 88 12
-1.0753499 1.2659966 -1.502214 234 88 12
-1.0862024 1.2552997 -1.502214 234 88 12
-1.0724412 1.2630457 -1.5061491 234 88 12
-1.0778675 1.2576972 -1.5061491 234 88 12
-1.0759283 1.2557299 -1.5087724 234 88 12
-1.0654905 -0.079562351 -1.9584107 234 88 12
-1.0652591 -0.081453003 -1.9584107 234 88 12
-1.0618519 -0.067603119 -1.9610568 234 88 12
-1.0565932 -0.068878449 -1.9637029 234 88 12
-1.0563618 -0.070769101 -1.9637029 234 88 12
-1.0556117 -0.063001387 -1.9645849 234 88 12
-1.0546861 -0.070563994 -1.9645849 234 88 12
-1.0529546 -0.056919217 -1.9663491 234 88 12
-1.0460761 -0.071429111 -1.9689952 234 88 12
-0.07092952 -1.0733504 -1.9548825 234 88 12
-0.069038868 -1.0735818 -1.9548825 234 88 12
-0.070109092 -1.0666475 -1.9584107 234 88 12
-0.05876518 -1.0680361 -1.9584107 234 88 12
-0.068013333 -1.0652033 -1.9592928 234 88 12
-0.058560073 -1.0663604 -1.9592928 234 88 12
-0.063001387 -1.0556117 -1.9645849 234 88 12
-0.059220083 -1.0560746 -1.9645849 234 88 12
1.2774469 -1.0893106 -1.485162 234 88 12
1.2801211 -1.0865976 -1.485162 234 88 12
1.2644292 -1.1005501 -1.4864737 234 88 12
1.2671034 -1.097837 -1.4864737 234 88 12
1.273789 -1.0910542 -1.4864737 234 88 12
1.2764633 -1.0883411 -1.4864737 234 88 12
1.2791375 -1.085628 -1.4864737 234 88 12
1.2651361 -1.0958979 -1.489097 234 88 12
1.274496 -1.0864019 -1.489097 234 88 12
1.2782307 -1.0767106 -1.4930321 234 88 12
1.2655663 -1.0856239 -1.4956555 234 88 12
1.2669035 -1.0842674 -1.4956555 234 88 12
1.2749262 -1.076128 -1.4956555 234 88 12
1.2762634 -1.0747714 -1.4956555 234 88 12
0.043096211 1.3986619 -1.7535124 234 88 12
0.039290283 1.3984964 -1.7535124 234 88 12
0.045138218 1.3955466 -1.7555778 234 88 12
0.039429326 1.3952984 -1.7555778 234 88 12
0.02822011 1.3900049 -1.7586758 234 88 12
0.039846461 1.3857043 -1.7617738 234 88 12
0.028428677 1.3852078 -1.7617738 234 88 12
0.043721914 1.3842707 -1.7628065 234 88 12
0.043860957 1.3810726 -1.7648718 234 88 12
0.038152065 1.3808244 -1.7648718 234 88 12
0.028637245 1.3804108 -1.7648718 234 88 12
0.030748777 1.3756964 -1.76797 234 88 12
0.028845813 1.3756137 -1.76797 234 88 12
0.084761903 0.084761903 -2.23 234 88 12
0.07904762 0.082857139 -2.23 234 88 12
0.084761903 0.07904762 -2.23 234 88 12
0.07904762 0.07904762 -2.23 234 88 12
0.086666666 0.069523811 -2.23 234 88 12
0.07904762 0.069523811 -2.23 234 88 12
0.069523811 0.065714285 -2.23 234 88 12
0.07333333 0.058095239 -2.23 234 88 12
0.069523811 0.058095239 -2.23 234 88 12
1.4008671 0.020121595 -1.7514471 234 88 12
1.3991853 0.018288154 -1.7524798 234 88 12
1.3997644 0.031608902 -1.7524798 234 88 12
1.4001782 0.041123722 -1.7524798 234 88 12
1.3943055 0.016593758 -1.7555778 234 88 12
1.394471 0.020399686 -1.7555778 234 88 12
1.3948847 0.029914506 -1.7555778 234 88 12
1.3953811 0.04133229 -1.7555778 234 88 12
1.3875785 0.0092599913 -1.7597085 234 88 12
1.3843805 0.0093990369 -1.7617738 234 88 12
1.3844632 0.011302001 -1.7617738 234 88 12
