ply
format ascii 1.0
element vertex 1351
property float x
property float y
property float z
property uchar red
property uchar green
property uchar blue
end_header
0.32377437 0.49281004 1.7661215 234 88 12
0.32055354 0.50114059 1.7645043 234 88 12
0.39780542 0.47895524 1.8192655 234 88 12
0.34254947 0.50341529 1.7808691 234 88 12
0.31623158 0.52066225 1.7630845 234 88 12
0.33932415 0.51511538 1.7795516 234 88 12
0.33574054 0.48650974 1.770171 234 88 12
0.32708594 0.49321535 1.7643784 234 88 12
0.32066497 0.49915779 1.7601683 234 88 12
0.32970694 0.50646317 1.7675155 234 88 12
0.32924682 0.51018351 1.767512 234 88 12
0.31955856 0.52106947 1.7613333 234 88 12
0.34404984 0.48508185 1.772018 234 88 12
0.44065484 0.45306504 1.8409982 234 88 12
0.74116713 0.34451002 2.0547607 234 88 12
0.3289395 0.50486231 1.7625742 234 88 12
0.32616454 0.50948721 1.7609303 234 88 12
0.33312675 0.52096522 1.7671574 234 88 12
0.38231903 0.47267956 1.7953469 234 88 12
0.32839227 0.49599108 1.7570897 234 88 12
0.55397749 0.41804019 1.9189197 234 88 12
0.41470796 0.473836 1.8197141 234 88 12
0.3306042 0.50946254 1.7599818 234 88 12
0.35874557 0.50553304 1.780701 234 88 12
0.33087632 0.52003419 1.7611548 234 88 12
0.33768684 0.48704907 1.75897 234 88 12
0.34201536 0.50673664 1.7640502 234 88 12
0.34607744 0.51219267 1.7676162 234 88 12
0.41447216 0.46389294 1.8107911 234 88 12
0.41815788 0.46579584 1.8137647 234 88 12
0.49467927 0.44316345 1.8697288 234 88 12
0.35577279 0.49957567 1.7695628 234 88 12
0.35532388 0.50324345 1.7695628 234 88 12
0.37315246 0.49973541 1.7827657 234 88 12
0.36898246 0.47532839 1.773154 234 88 12
0.42758957 0.45728689 1.8162293 234 88 12
0.36903545 0.48225409 1.7738419 234 88 12
0.39081037 0.47755677 1.7900336 234 88 12
0.33760977 0.50109118 1.7516011 234 88 12
0.3500641 0.49990711 1.7610025 234 88 12
0.41685075 0.48088032 1.810233 234 88 12
0.34407473 0.51285172 1.7576382 234 88 12
0.3595224 0.48035252 1.7621413 234 88 12
0.36128491 0.48322585 1.7637666 234 88 12
0.37019607 0.4834165 1.7706349 234 88 12
0.34918731 0.49480647 1.7555563 234 88 12
0.40490919 0.48713145 1.7976699 234 88 12
0.35691336 0.48645526 1.7564104 234 88 12
0.34683171 0.49377477 1.7493029 234 88 12
0.34787005 0.50053102 1.7507461 234 88 12
0.36299872 0.4982515 1.7622361 234 88 12
0.42250863 0.47852331 1.8064139 234 88 12
0.35589623 0.49912772 1.752493 234 88 12
0.35996231 0.50109649 1.7558475 234 88 12
0.51622963 -0.73778397 1.5786681 234 88 12
0.53076994 -0.75364983 1.5837851 234 88 12
0.57587928 -0.78287697 1.605183 234 88 12
0.52981633 -0.74391675 1.5806859 234 88 12
0.53724176 -0.744995 1.5831243 234 88 12
0.54560643 -0.74232107 1.584742 234 88 12
0.5015673 -0.732512 1.5655651 234 88 12
0.513735 -0.72764266 1.5676526 234 88 12
0.52256513 -0.72969985 1.5708057 234 88 12
0.54429024 -0.7417593 1.5806137 234 88 12
0.56815517 -0.78661829 1.5972238 234 88 12
0.50208801 -0.73342526 1.5622429 234 88 12
0.52638698 -0.73772216 1.5705947 234 88 12
0.53347749 -0.72924626 1.570155 234 88 12
0.51486027 -0.77044016 1.5732803 234 88 12
0.52210885 -0.75330704 1.5703006 234 88 12
0.50735968 -0.73785549 1.5613539 234 88 12
0.5152812 -0.73446947 1.5626731 234 88 12
0.52827734 -0.73964006 1.5680372 234 88 12
0.52089697 -0.72468364 1.5614051 234 88 12
0.51915145 -0.7784332 1.573311 234 88 12
0.50113696 -0.761334 1.5628192 234 88 12
0.53061903 -0.77339923 1.5751981 234 88 12
0.52398884 -0.75521433 1.5677571 234 88 12
0.5092808 -0.73980451 1.5587549 234 88 12
0.5248757 -0.73755419 1.5627044 234 88 12
0.52013022 -0.72928149 1.5588063 234 88 12
0.50475544 -0.77339679 1.5638362 234 88 12
0.50206506 -0.76706815 1.5611088 234 88 12
0.50164127 -0.75775605 1.5581539 234 88 12
0.5120759 -0.74701333 1.5580149 234 88 12
0.52994943 -0.75105774 1.5645937 234 88 12
0.53681922 -0.73319918 1.5612264 234 88 12
0.6476078 -0.79851115 1.6142262 234 88 12
0.49009359 -0.7638399 1.5527718 234 88 12
0.49308112 -0.76139152 1.5529239 234 88 12
0.50173116 -0.75384229 1.5532233 234 88 12
0.52051246 -0.7537306 1.5588613 234 88 12
0.53540963 -0.75107813 1.5625478 234 88 12
0.52065891 -0.73065716 1.5518357 234 88 12
0.53502011 -0.7322666 1.5566661 234 88 12
0.61329806 -0.78854287 1.5975511 234 88 12
0.54565716 -0.72171754 1.5566463 234 88 12
0.53892171 -0.7115314 1.551491 234 88 12
0.56472707 -0.72757709 1.5642012 234 88 12
0.7495963 -0.87370276 1.6648097 234 88 12
0.51196223 -0.76624173 1.5563838 234 88 12
0.50365376 -0.75579286 1.5506222 234 88 12
0.5105291 -0.75157523 1.5514133 234 88 12
0.53729016 -0.75298601 1.5600036 234 88 12
0.52939183 -0.73778915 1.5528991 234 88 12
0.53371245 -0.731718 1.5523388 234 88 12
0.53795266 -0.72555894 1.5517268 234 88 12
0.56440288 -0.72296524 1.5589845 234 88 12
0.4959332 -0.76912183 1.5486054 234 88 12
0.50387222 -0.76562929 1.5499567 234 88 12
0.51309651 -0.76311147 1.552007 234 88 12
0.51848865 -0.74872279 1.5491772 234 88 12
0.52787882 -0.74644524 1.5513535 234 88 12
0.54518938 -0.72217768 1.5491064 234 88 12
0.55583924 -0.72592568 1.5535491 234 88 12
0.57198495 -0.73421758 1.5610983 234 88 12
0.5171321 -0.78438967 1.5561775 234 88 12
0.50957078 -0.76571447 1.5479568 234 88 12
0.58318287 -0.792597 1.5792433 234 88 12
0.53611094 -0.7438674 1.5493137 234 88 12
0.53632993 -0.72993755 1.5449989 234 88 12
0.53054768 -0.79425669 1.5597793 234 88 12
0.50039929 -0.76893646 1.5423108 234 88 12
0.50973266 -0.76641715 1.5444312 234 88 12
0.5112595 -0.75838119 1.5423583 234 88 12
0.51703864 -0.75335962 1.5425724 234 88 12
0.51973015 -0.75070661 1.5425724 234 88 12
0.53745174 -0.74537206 1.5464234 234 88 12
0.53612471 -0.73968762 1.544204 234 88 12
0.53629392 -0.73510832 1.5428035 234 88 12
0.54620087 -0.73334897 1.5453445 234 88 12
0.54326129 -0.72628337 1.5421822 234 88 12
0.56862205 -0.73227292 1.5520173 234 88 12
0.58261168 -0.73892093 1.5585041 234 88 12
0.54135531 -0.8023082 1.5620846 234 88 12
0.50488019 -0.77266556 1.5410821 234 88 12
0.52214211 -0.76675981 1.544639 234 88 12
0.51988381 -0.76057667 1.5419466 234 88 12
0.55945629 -0.78482336 1.5621988 234 88 12
0.52786195 -0.75721866 1.5433893 234 88 12
0.53394622 -0.75711381 1.5452758 234 88 12
0.53660524 -0.75449288 1.5452758 234 88 12
0.53255284 -0.74682379 1.5415415 234 88 12
0.53523475 -0.74418032 1.5415415 234 88 12
0.54818124 -0.73534214 1.5427974 234 88 12
0.59154737 -0.76028019 1.5644683 234 88 12
0.57679552 -0.74392545 1.5545762 234 88 12
0.57328928 -0.73643035 1.5510699 234 88 12
0.69497252 -0.83069521 1.6196543 234 88 12
0.54779118 -0.80306715 1.5607268 234 88 12
0.51505131 -0.77586174 1.5415169 234 88 12
0.51911938 -0.76516056 1.5393558 234 88 12
0.53623468 -0.75472766 1.5414349 234 88 12
0.53890145 -0.7520991 1.5414349 234 88 12
0.54712665 -0.75368094 1.5445642 234 88 12
0.54668367 -0.73934734 1.5397937 234 88 12
0.62194926 -0.78046155 1.5770341 234 88 12
0.56809682 -0.73263186 1.5444417 234 88 12
0.57370234 -0.73242527 1.5461596 234 88 12
0.54645467 -0.79841316 1.5551289 234 88 12
0.51023102 -0.76854938 1.5337667 234 88 12
0.53603894 -0.76883787 1.5421485 234 88 12
0.5386858 -0.76622891 1.5421485 234 88 12
0.55825514 -0.76259112 1.5472475 234 88 12
0.57408118 -0.76557994 1.5533036 234 88 12
0.55481803 -0.74141854 1.5392458 234 88 12
0.55037141 -0.73319376 1.5351382 234 88 12
0.55486053 -0.73197126 1.5361816 234 88 12
0.56734121 -0.73716283 1.5418808 234 88 12
0.53567207 -0.78705502 1.5442135 234 88 12
0.55817586 -0.7985819 1.5552912 234 88 12
0.56875181 -0.80180466 1.5597761 234 88 12
0.64689869 -0.84209251 1.5983295 234 88 12
0.56138772 -0.77447921 1.5484107 234 88 12
0.54672784 -0.75435704 1.5370492 234 88 12
0.58688253 -0.78031117 1.5585855 234 88 12
0.55556458 -0.75180763 1.5390737 234 88 12
0.55133295 -0.74386656 1.5350933 234 88 12
0.55617315 -0.73343694 1.5332336 234 88 12
0.583637 -0.75059462 1.5477685 234 88 12
0.53817588 -0.78050005 1.5390853 234 88 12
0.52144736 -0.76395714 1.5281359 234 88 12
0.52414739 -0.7612958 1.5281359 234 88 12
0.56231618 -0.78459251 1.5483292 234 88 12
0.54889435 -0.77024579 1.5391881 234 88 12
0.54479992 -0.75803548 1.5338029 234 88 12
0.55917114 -0.76425159 1.5405589 234 88 12
0.54229879 -0.74681354 1.5292659 234 88 12
0.54499209 -0.7441588 1.5292659 234 88 12
0.5724684 -0.75607854 1.5421944 234 88 12
0.57508433 -0.75350004 1.5421944 234 88 12
0.56563991 -0.74136478 1.535086 234 88 12
0.5231964 -0.76578492 1.525422 234 88 12
0.53263754 -0.76801205 1.529278 234 88 12
0.54440826 -0.77202117 1.5344976 234 88 12
0.53515083 -0.76063848 1.5276409 234 88 12
0.59245133 -0.79856539 1.5592053 234 88 12
0.54876518 -0.75688291 1.530872 234 88 12
0.55578601 -0.75291491 1.531859 234 88 12
0.53446758 -0.77445763 1.5281799 234 88 12
0.53258628 -0.76852971 1.5255555 234 88 12
0.53664243 -0.76688576 1.5263493 234 88 12
0.54894656 -0.77133155 1.5319384 234 88 12
0.53975904 -0.75993818 1.5250424 234 88 12
0.57548064 -0.76848191 1.5397972 234 88 12
0.53591579 -0.76227248 1.5206425 234 88 12
0.76670772 -0.92877442 1.6546472 234 88 12
0.55497837 -0.76717097 1.5286994 234 88 12
0.54899454 -0.75805086 1.5235913 234 88 12
0.56274849 -0.75919348 1.528591 234 88 12
0.53675616 -0.77266335 1.5205592 234 88 12
0.65207207 -0.84818602 1.5854574 234 88 12
0.61464632 -0.81647724 1.5619255 234 88 12
0.55658311 -0.76426613 1.5243826 234 88 12
0.55924404 -0.76164329 1.5243826 234 88 12
0.53698599 -0.77338946 1.5169671 234 88 12
0.54964912 -0.77800375 1.5228817 234 88 12
0.54027838 -0.76655668 1.5157259 234 88 12
0.54778087 -0.76281595 1.5169902 234 88 12
0.55391604 -0.78617173 1.5233082 234 88 12
0.5550648 -0.78248888 1.5224181 234 88 12
0.6460588 -0.84066933 1.5740129 234 88 12
0.69363177 -0.87208194 1.6013346 234 88 12
0.55736518 -0.76119608 1.5157799 234 88 12
0.56969619 -0.78920281 1.5259709 234 88 12
0.59685266 -0.80477226 1.5408685 234 88 12
0.55155438 -0.76666325 1.5117474 234 88 12
0.55424362 -0.76401258 1.5117474 234 88 12
0.54872024 -0.77897012 1.5111588 234 88 12
0.57242674 -0.7872386 1.522385 234 88 12
0.56686211 -0.77857578 1.5173645 234 88 12
0.57534701 -0.77578813 1.5193431 234 88 12
0.55461884 -0.78380281 1.5110098 234 88 12
0.57782978 -0.79620755 1.5236365 234 88 12
0.55180448 -0.77254659 1.505989 234 88 12
0.60313088 -0.8060565 1.5360856 234 88 12
0.57459641 -0.78028905 1.5167992 234 88 12
1.3545822 -0.013507752 1.2820064 234 88 12
1.2901586 0.016816605 1.2607452 234 88 12
1.3919218 -0.021927942 1.2938669 234 88 12
1.3839682 -0.015102406 1.2910863 234 88 12
1.4108616 -0.03953908 1.2973607 234 88 12
1.2668359 0.023033481 1.2495139 234 88 12
1.2722015 0.024793761 1.2510872 234 88 12
1.3328806 0.0033102743 1.270996 234 88 12
1.3265947 0.0096924677 1.2687211 234 88 12
1.3005664 0.024582323 1.259891 234 88 12
1.2995188 -0.016765038 1.2580369 234 88 12
1.3177133 -0.019968603 1.2639114 234 88 12
1.3547566 -0.027078779 1.2759022 234 88 12
1.2753971 0.02796464 1.2481536 234 88 12
1.2827002 0.028837631 1.2503998 234 88 12
1.3032444 0.027842399 1.2568973 234 88 12
1.2966579 -0.019063177 1.2535893 234 88 12
1.2800452 -0.0088680573 1.24778 234 88 12
1.2747042 0.0010552889 1.2455642 234 88 12
1.3035213 -0.0063852463 1.2551048 234 88 12
1.2727287 0.017683497 1.2440661 234 88 12
1.2889079 0.01890571 1.2491397 234 88 12
1.2855942 -0.018320723 1.2463098 234 88 12
1.2672015 -0.0074626408 1.2398238 234 88 12
1.2762128 -0.0030006205 1.242483 234 88 12
1.2716681 0.002724156 1.2407192 234 88 12
1.2954586 -0.0027201707 1.2486527 234 88 12
1.270206 0.011254126 1.2397972 234 88 12
1.28196 0.018378748 1.2431968 234 88 12
1.2910038 0.018560022 1.2460934 234 88 12
1.2860646 0.02850467 1.2439791 234 88 12
1.2924365 0.033644807 1.2457542 234 88 12
1.2903742 0.038482316 1.2448351 234 88 12
1.2876887 -0.018666174 1.2432655 234 88 12
1.2737998 0.0023725783 1.2376209 234 88 12
1.2879936 0.0085542751 1.2419049 234 88 12
1.297271 0.012576417 1.2447058 234 88 12
1.3247993 0.0049783872 1.2540644 234 88 12
1.2754503 0.02957854 1.2366986 234 88 12
1.3197689 0.02232974 1.2514982 234 88 12
1.2747401 -0.013361978 1.2349656 234 88 12
1.272511 -0.0085605206 1.2339716 234 88 12
1.2839453 -0.0050559845 1.2375433 234 88 12
1.2776533 0.0013451274 1.235126 234 88 12
1.2767633 0.0096339127 1.2343833 234 88 12
1.2850838 0.01418648 1.2368737 234 88 12
1.2765994 0.021650184 1.2336775 234 88 12
1.2772095 0.029385876 1.2334584 234 88 12
1.2813004 -0.01144316 1.233222 234 88 12
1.2822834 -0.0078796549 1.2333535 234 88 12
1.2823973 0.011839052 1.232309 234 88 12
1.2919891 0.011873352 1.2354996 234 88 12
1.2837973 0.023173165 1.2321527 234 88 12
1.2873006 0.033610824 1.2327458 234 88 12
1.3138473 0.026017008 1.2419987 234 88 12
1.3727583 0.0039507635 1.2628185 234 88 12
1.526595 -0.05786375 1.317416 234 88 12
1.3046595 0.045689549 1.2378606 234 88 12
1.3178899 0.043565344 1.2423809 234 88 12
1.2877879 0.0022682929 1.2308303 234 88 12
1.4350939 -0.046381257 1.2831322 234 88 12
1.3021723 0.027750324 1.2342587 234 88 12
1.2887189 0.037547458 1.2291846 234 88 12
1.3049754 0.038289893 1.2346172 234 88 12
1.3167006 0.04082793 1.2384243 234 88 12
1.5302325 -0.053139795 1.3155421 234 88 12
1.3398329 0.037905406 1.2463756 234 88 12
1.2809347 -0.010386405 1.2253919 234 88 12
1.2786472 -0.0055426946 1.2243407 234 88 12
1.2916566 -0.0027106395 1.2286125 234 88 12
1.2824179 0.0049014436 1.2250383 234 88 12
1.2902396 0.0057284683 1.2276559 234 88 12
1.2832981 0.012501527 1.2249111 234 88 12
1.2942969 0.019849187 1.2282445 234 88 12
1.2885565 0.026235938 1.2259306 234 88 12
1.2872109 0.030794347 1.2252163 234 88 12
1.2888621 0.038063701 1.2253703 234 88 12
1.2920154 0.044655975 1.226074 234 88 12
1.3187677 0.040487006 1.23542 234 88 12
1.3196946 0.047837481 1.2353227 234 88 12
1.2891988 -0.017010063 1.2247646 234 88 12
1.2907938 -0.013688299 1.2251253 234 88 12
1.2836763 -0.0070115589 1.222294 234 88 12
1.2942775 0.0085447999 1.2250623 234 88 12
1.2975379 0.011147585 1.2260375 234 88 12
1.3067343 0.015159431 1.2289778 234 88 12
1.2916806 0.025461618 1.2232064 234 88 12
1.295307 0.031850684 1.2240927 234 88 12
1.2997196 0.033891607 1.2254968 234 88 12
1.3129601 0.03981407 1.2297217 234 88 12
1.3265687 0.04139832 1.2343198 234 88 12
1.348096 -0.024040984 1.2418584 234 88 12
1.3020024 -0.0019212412 1.2245274 234 88 12
1.2996451 0.010800055 1.222975 234 88 12
1.3502363 0.0011055634 1.2411591 234 88 12
1.3450831 -0.033548206 1.2377374 234 88 12
1.3310561 -0.020624418 1.2320439 234 88 12
1.332399 -0.017370848 1.2323279 234 88 12
1.3097034 -0.00062127231 1.2233577 234 88 12
1.3218392 -0.0016880182 1.2276958 234 88 12
1.2949662 0.025171461 1.216666 234 88 12
1.2923372 0.030285696 1.2154424 234 88 12
1.3478566 0.017679997 1.2357377 234 88 12
1.304683 0.040787578 1.2191823 234 88 12
1.4013212 0.0010525242 1.2555425 234 88 12
1.3000789 -0.0080232304 1.2165682 234 88 12
1.2874259 0.00091789826 1.2115344 234 88 12
1.3254941 -0.0026806153 1.22531 234 88 12
1.3028073 0.01054005 1.2164495 234 88 12
1.3044647 0.025626892 1.2161535 234 88 12
1.2993923 0.035775356 1.2137498 234 88 12
1.3000054 0.039492339 1.2137498 234 88 12
1.3120812 0.038068291 1.2181362 234 88 12
1.2893567 0.00064785552 1.2083445 234 88 12
1.3318952 -0.0086152405 1.2242209 234 88 12
1.3185136 0.00068309961 1.2188472 234 88 12
1.3118498 0.0073209759 1.2160518 234 88 12
1.3129234 0.014697197 1.2160003 234 88 12
1.3324618 0.010268243 1.2233028 234 88 12
1.3137952 0.033954076 1.2151701 234 88 12
1.3144003 0.037623275 1.2151701 234 88 12
1.3218123 0.038205124 1.217806 234 88 12
1.298609 -0.0025307697 1.2079946 234 88 12
1.310447 -0.0033269606 1.2123547 234 88 12
1.2972103 0.0059593045 1.206975 234 88 12
1.3044283 0.0069725909 1.2095435 234 88 12
1.3179753 0.0053035808 1.2145785 234 88 12
1.2976949 0.021687122 1.2062066 234 88 12
1.3431782 0.01002263 1.2234757 234 88 12
1.3728441 0.00087551872 1.2348317 234 88 12
1.3339696 0.021700148 1.2194196 234 88 12
1.3013449 0.00083151518 1.2049081 234 88 12
1.2998447 0.0093762195 1.2038367 234 88 12
1.3183055 0.0095914751 1.2106223 234 88 12
1.3113245 -0.0066049309 1.2051818 234 88 12
1.3145016 0.0038700402 1.2057215 234 88 12
1.3049127 0.019730654 1.2011776 234 88 12
1.5602713 -0.10542548 1.3011363 234 88 12
1.3000034 0.0023849497 1.1964923 234 88 12
1.341538 -0.010561757 1.2129275 234 88 12
1.348577 -0.0096527068 1.2155203 234 88 12
1.3175991 0.010958375 1.2025822 234 88 12
1.3150733 0.015963389 1.201321 234 88 12
1.3044897 -0.0028877326 1.1945894 234 88 12
1.4737445 -0.067273527 1.2630157 234 88 12
1.3064564 0.012209586 1.1943903 234 88 12
1.3263124 0.0078248456 1.2022189 234 88 12
1.3130846 0.017360598 1.1965885 234 88 12
1.3113294 -0.0090686353 1.1936747 234 88 12
1.4027659 -0.041701011 1.2309009 234 88 12
1.3628629 -0.022014184 1.2143101 234 88 12
1.3045824 0.0055425181 1.190154 234 88 12
1.318532 0.0077045546 1.1953804 234 88 12
1.360628 -0.006123181 1.212443 234 88 12
1.3163959 -0.010586356 1.1918187 234 88 12
1.3066064 -0.0027318741 1.1875111 234 88 12
1.3341395 -0.0099013913 1.1986698 234 88 12
1.3144143 0.0020397305 1.1902394 234 88 12
1.3427961 -0.01674512 1.198667 234 88 12
1.3098638 0.00044252721 1.1846209 234 88 12
1.3739148 -0.021836011 1.2112175 234 88 12
1.4016948 -0.02605954 1.2224005 234 88 12
1.3248707 -0.0051377965 1.1869709 234 88 12
1.3201792 0.00071389903 1.1847262 234 88 12
0.86127806 -1.4652303 0.68957436 234 88 12
0.82459128 -1.4284685 0.68140906 234 88 12
0.84185076 -1.4389466 0.68438572 234 88 12
0.86669225 -1.4563739 0.68896759 234 88 12
0.83794862 -1.4259527 0.68236482 234 88 12
0.81375569 -1.4288874 0.6767295 234 88 12
0.8069914 -1.4181932 0.67467904 234 88 12
0.83410817 -1.4371308 0.67978978 234 88 12
0.80933475 -1.4104702 0.67390478 234 88 12
0.81772059 -1.4130033 0.67505354 234 88 12
0.83304161 -1.4218351 0.67769843 234 88 12
0.84153104 -1.4246511 0.67889404 234 88 12
0.80468738 -1.4213583 0.67111403 234 88 12
0.79847962 -1.4110907 0.6691277 234 88 12
0.80701959 -1.4136509 0.67032248 234 88 12
0.81002593 -1.4113889 0.67032248 234 88 12
0.81771952 -1.413303 0.67134672 234 88 12
0.80650228 -1.4469317 0.67101896 234 88 12
0.8175348 -1.4515295 0.67277366 234 88 12
0.81650269 -1.4460256 0.67191929 234 88 12
0.81742746 -1.4230955 0.66889459 234 88 12
0.82039511 -1.4208627 0.66889459 234 88 12
0.80862278 -1.4055032 0.66560018 234 88 12
0.79213262 -1.4400165 0.66486722 234 88 12
0.79157627 -1.430077 0.66342628 234 88 12
0.83139575 -1.454354 0.67097116 234 88 12
0.8029986 -1.4156632 0.66261673 234 88 12
0.8093186 -1.4064281 0.6619935 234 88 12
0.93323821 -1.4868143 0.68614608 234 88 12
0.79377395 -1.4463913 0.66220021 234 88 12
0.78114307 -1.4312804 0.65870029 234 88 12
0.78281707 -1.4278855 0.65839666 234 88 12
0.79102451 -1.4251509 0.6588859 234 88 12
0.79826957 -1.4264773 0.65984958 234 88 12
0.81016672 -1.4270513 0.66120398 234 88 12
0.80855936 -1.4208202 0.66014606 234 88 12
0.8191393 -1.4105417 0.65981638 234 88 12
0.90070719 -1.4747702 0.67767549 234 88 12
0.83314961 -1.4033546 0.66029334 234 88 12
0.84454393 -1.4089171 0.66230327 234 88 12
0.83031517 -1.3905802 0.65817368 234 88 12
0.85046268 -1.4044638 0.66230327 234 88 12
0.80207694 -1.4348193 0.65769231 234 88 12
0.81224477 -1.4194813 0.65657544 234 88 12
0.8168273 -1.4137177 0.65623903 234 88 12
0.82043618 -1.4070379 0.65566301 234 88 12
0.8403309 -1.4052707 0.65758091 234 88 12
0.8589884 -1.4127736 0.66071033 234 88 12
0.86498791 -1.4134938 0.66147071 234 88 12
0.81072807 -1.4609758 0.65877944 234 88 12
0.78118205 -1.4320123 0.65118366 234 88 12
0.78506714 -1.4304489 0.65138543 234 88 12
0.79391354 -1.4330521 0.65275925 234 88 12
0.8025189 -1.430751 0.65337843 234 88 12
0.79985857 -1.4236612 0.65202951 234 88 12
0.80377018 -1.4172903 0.65152097 234 88 12
0.81293368 -1.4203968 0.65300483 234 88 12
0.81822652 -1.4201684 0.65356183 234 88 12
0.81519252 -1.4125683 0.65209544 234 88 12
0.81820405 -1.4103025 0.65209544 234 88 12
0.82112861 -1.4079581 0.6520741 234 88 12
0.82894105 -1.4000311 0.65177006 234 88 12
0.84399545 -1.4039392 0.65403056 234 88 12
0.81994641 -1.4688642 0.65735787 234 88 12
0.79107481 -1.4262042 0.64760548 234 88 12
0.85068351 -1.4104695 0.65201557 234 88 12
0.85363817 -1.4082465 0.65201557 234 88 12
0.82060575 -1.4697406 0.65394044 234 88 12
0.78627604 -1.4369144 0.64487314 234 88 12
0.78814083 -1.433695 0.64459234 234 88 12
0.7911576 -1.4314252 0.64459234 234 88 12
0.80514079 -1.4239979 0.64507061 234 88 12
0.82253617 -1.4098192 0.64490199 234 88 12
0.82293218 -1.4051775 0.64423048 234 88 12
0.91935074 -1.4749949 0.66623753 234 88 12
0.79147369 -1.4415472 0.64240378 234 88 12
0.79957557 -1.4292428 0.64142466 234 88 12
0.81968975 -1.4416059 0.64576095 234 88 12
0.81870145 -1.4312122 0.64400458 234 88 12
0.81089163 -1.4195504 0.64123887 234 88 12
0.82422411 -1.4215025 0.64312863 234 88 12
0.82831216 -1.4103541 0.6418556 234 88 12
0.83091396 -1.4026972 0.64095676 234 88 12
0.91996509 -1.4758115 0.66305327 234 88 12
0.85305834 -1.4082253 0.64445609 234 88 12
0.80956733 -1.4521655 0.64250183 234 88 12
0.81675005 -1.434643 0.64055294 234 88 12
0.84958935 -1.4395641 0.64531809 234 88 12
0.84436744 -1.4300748 0.64316005 234 88 12
0.83633471 -1.4029355 0.63782334 234 88 12
0.87395477 -1.4330322 0.64721584 234 88 12
0.85396385 -1.4093421 0.64098686 234 88 12
0.81184345 -1.440312 0.63710707 234 88 12
0.81354284 -1.4322021 0.63598698 234 88 12
0.82814157 -1.4400294 0.63907129 234 88 12
0.84078074 -1.4415634 0.64088196 234 88 12
0.85216105 -1.4468856 0.64315844 234 88 12
0.84532487 -1.4360436 0.6405375 234 88 12
0.82214433 -1.4103572 0.63346648 234 88 12
0.83047748 -1.412901 0.63491154 234 88 12
0.84214538 -1.4185647 0.63727945 234 88 12
0.84032446 -1.4119282 0.63596672 234 88 12
0.85971761 -1.4249049 0.64048672 234 88 12
0.83790302 -1.4672965 0.6411196 234 88 12
0.80776435 -1.4371831 0.63229865 234 88 12
0.7997756 -1.425565 0.62935293 234 88 12
0.82436925 -1.4370718 0.63436764 234 88 12
0.82727641 -1.4348062 0.63435453 234 88 12
0.86557972 -1.4402541 0.64008045 234 88 12
0.85387504 -1.476576 0.64111006 234 88 12
0.8067739 -1.4318691 0.6274659 234 88 12
0.80332917 -1.4240631 0.62569571 234 88 12
0.82002395 -1.4336216 0.62946141 234 88 12
0.81307107 -1.4227169 0.62671435 234 88 12
0.82149595 -1.4252055 0.62821716 234 88 12
0.827479 -1.4206973 0.62821603 234 88 12
0.80695713 -1.4371619 0.62457818 234 88 12
0.80557412 -1.4311745 0.62335956 234 88 12
0.80990493 -1.4300419 0.62372822 234 88 12
0.82293141 -1.4218785 0.62401211 234 88 12
0.86024642 -1.4455087 0.63297778 234 88 12
0.81941777 -1.428885 0.62095088 234 88 12
0.80564713 -1.4318972 0.61580324 234 88 12
0.81830752 -1.4379069 0.61859536 234 88 12
0.80966592 -1.4256134 0.61521733 234 88 12
0.82077003 -1.4205794 0.61581415 234 88 12
0.81533104 -1.4404765 0.61484581 234 88 12
0.80980408 -1.4309319 0.61233944 234 88 12
0.82197088 -1.4365759 0.61504608 234 88 12
0.82156181 -1.4461083 0.61294824 234 88 12
0.80870754 -1.4303181 0.60821009 234 88 12
0.83583587 -1.4488766 0.61546189 234 88 12
0.81382531 -1.4249623 0.60793 234 88 12
0.82208955 -1.4223634 0.60860342 234 88 12
0.85512704 -1.4749933 0.61940151 234 88 12
0.83774531 -1.4460996 0.61145711 234 88 12
0.86602384 -1.4661196 0.61927372 234 88 12
0.82690036 -1.426923 0.60628295 234 88 12
0.85149503 -1.4438897 0.61299694 234 88 12
0.82482636 -1.4447861 0.60556912 234 88 12
0.89993799 -1.4961394 0.62633115 234 88 12
0.82020819 -1.4363316 0.59942609 234 88 12
0.85339081 -1.4603226 0.60900635 234 88 12
0.91482228 -1.5094597 0.62766647 234 88 12
0.41191626 -1.7112062 -0.35154793 234 88 12
0.39687315 -1.6999224 -0.35416535 234 88 12
0.39168721 -1.6891012 -0.35339344 234 88 12
0.40029201 -1.693144 -0.35385776 234 88 12
0.41216609 -1.6955819 -0.35431412 234 88 12
0.43489838 -1.7154984 -0.35608277 234 88 12
0.39302278 -1.7007215 -0.35784855 234 88 12
0.39202148 -1.6944478 -0.35747722 234 88 12
0.39144954 -1.6885726 -0.35713854 234 88 12
0.4091436 -1.7025018 -0.35834715 234 88 12
0.41129079 -1.6943541 -0.35795051 234 88 12
0.39219186 -1.7297789 -0.36306718 234 88 12
0.37970501 -1.711995 -0.3618558 234 88 12
0.37694693 -1.7040828 -0.36138198 234 88 12
0.41559058 -1.7393211 -0.36410585 234 88 12
0.40250686 -1.6950172 -0.36150756 234 88 12
0.43957496 -1.725287 -0.36393756 234 88 12
0.40799662 -1.6851144 -0.36112264 234 88 12
0.38522422 -1.7272906 -0.36642581 234 88 12
0.36526814 -1.7019389 -0.36476722 234 88 12
0.37267792 -1.6993735 -0.36480424 234 88 12
0.37612289 -1.6978246 -0.36480424 234 88 12
0.38675213 -1.6986867 -0.36507681 234 88 12
0.39543512 -1.6975682 -0.3652114 234 88 12
0.40227181 -1.6944944 -0.3652114 234 88 12
0.41568047 -1.7039044 -0.36595741 234 88 12
0.40168178 -1.6832267 -0.36465409 234 88 12
0.4127737 -1.6901581 -0.36523002 234 88 12
0.41640928 -1.6888661 -0.36524656 234 88 12
0.37279797 -1.7193291 -0.36946326 234 88 12
0.36131826 -1.7026914 -0.36848503 234 88 12
0.36693832 -1.6982737 -0.36840016 234 88 12
0.40024003 -1.7076033 -0.36949071 234 88 12
0.39914316 -1.7012795 -0.36918479 234 88 12
0.39126712 -1.6875603 -0.36841026 234 88 12
0.40461403 -1.6808283 -0.36837745 234 88 12
0.42783347 -1.679893 -0.36880392 234 88 12
0.44353372 -1.6925769 -0.36968988 234 88 12
0.37256557 -1.7188122 -0.37312534 234 88 12
0.37649369 -1.7027742 -0.37253404 234 88 12
0.38239792 -1.7038265 -0.37268761 234 88 12
0.40168062 -1.6985519 -0.37282825 234 88 12
0.40942317 -1.6805266 -0.37222567 234 88 12
0.41868445 -1.685529 -0.37260544 234 88 12
0.49283233 -1.7593948 -0.377047 234 88 12
0.43262026 -1.6851504 -0.37284935 234 88 12
0.45123982 -1.6958894 -0.3736411 234 88 12
0.39892101 -1.7451868 -0.37826324 234 88 12
0.36264074 -1.7034659 -0.37605846 234 88 12
0.36421499 -1.7000065 -0.37595391 234 88 12
0.37808973 -1.6938871 -0.37595841 234 88 12
0.38363752 -1.694562 -0.37607881 234 88 12
0.39116168 -1.6973766 -0.37631428 234 88 12
0.38851598 -1.6893222 -0.37596309 234 88 12
0.40492362 -1.7017933 -0.37671715 234 88 12
0.40927985 -1.6908203 -0.37637466 234 88 12
0.40796044 -1.6840214 -0.37609383 234 88 12
0.40983692 -1.6807281 -0.37600076 234 88 12
0.45807642 -1.7296906 -0.37868497 234 88 12
0.42535824 -1.6765373 -0.37610668 234 88 12
0.44227862 -1.6906289 -0.37693107 234 88 12
0.43918803 -1.6815723 -0.37653419 234 88 12
0.39519802 -1.7411482 -0.38161597 234 88 12
0.36979192 -1.6952515 -0.37963516 234 88 12
0.39117378 -1.7022787 -0.38021022 234 88 12
0.39172706 -1.6872447 -0.37969926 234 88 12
0.41107985 -1.6818588 -0.37981382 234 88 12
0.4270733 -1.6782595 -0.37993795 234 88 12
0.44541493 -1.6885996 -0.38058025 234 88 12
0.36262453 -1.7028792 -0.38353458 234 88 12
0.37036088 -1.7057424 -0.38373196 234 88 12
0.37456369 -1.7050158 -0.38376814 234 88 12
0.37184852 -1.6971081 -0.38348401 234 88 12
0.37300846 -1.6931703 -0.38337767 234 88 12
0.38875294 -1.6994385 -0.38379312 234 88 12
0.3874422 -1.6928602 -0.38357002 234 88 12
0.40338981 -1.6996012 -0.38400301 234 88 12
0.40174797 -1.6925905 -0.38376182 234 88 12
0.42186376 -1.7042028 -0.38440478 234 88 12
0.43428144 -1.7127874 -0.38484576 234 88 12
0.40839753 -1.6785922 -0.38341916 234 88 12
0.41624871 -1.6820076 -0.38363534 234 88 12
0.42032921 -1.6812078 -0.38366756 234 88 12
0.42341125 -1.679276 -0.38365054 234 88 12
0.43258592 -1.678889 -0.38376689 234 88 12
0.50755948 -1.7609755 -0.38737112 234 88 12
0.39660922 -1.7023817 -0.38768685 234 88 12
0.41169825 -1.713443 -0.38818115 234 88 12
0.42559513 -1.7233853 -0.38862959 234 88 12
0.41237229 -1.7039102 -0.38792548 234 88 12
0.42289439 -1.7102597 -0.38823238 234 88 12
0.41695127 -1.6985139 -0.38783303 234 88 12
0.43783119 -1.7113242 -0.38844788 234 88 12
0.43348423 -1.6851439 -0.38766858 234 88 12
0.49015793 -1.7404127 -0.38990524 234 88 12
0.40210098 -1.7377615 -0.39229354 234 88 12
0.37330902 -1.7031599 -0.39113933 234 88 12
0.37300223 -1.6977478 -0.39100459 234 88 12
0.39025077 -1.7056009 -0.3913835 234 88 12
0.39330724 -1.7037278 -0.3913714 234 88 12
0.39299262 -1.698247 -0.3912349 234 88 12
0.40744638 -1.7086045 -0.39164409 234 88 12
0.41079921 -1.7070971 -0.39164409 234 88 12
0.40647462 -1.6972145 -0.39135697 234 88 12
0.41671932 -1.697998 -0.39148781 234 88 12
0.41309178 -1.6833327 -0.39109221 234 88 12
0.43031159 -1.6973701 -0.39162093 234 88 12
0.41599408 -1.6757667 -0.39094022 234 88 12
0.42050722 -1.6754423 -0.39098161 234 88 12
0.45710188 -1.7121251 -0.39227152 234 88 12
0.43211633 -1.6778445 -0.39116663 234 88 12
0.44223291 -1.684146 -0.39143002 234 88 12
0.42488074 -1.7561948 -0.39644584 234 88 12
0.37841219 -1.6876388 -0.39458027 234 88 12
0.40298 -1.7035319 -0.39514211 234 88 12
0.40092912 -1.6802695 -0.3946377 234 88 12
0.42109713 -1.6920527 -0.39507258 234 88 12
0.42334098 -1.6838654 -0.39492288 234 88 12
0.46818033 -1.7246616 -0.39619419 234 88 12
0.38500938 -1.6891675 -0.39841634 234 88 12
0.40731433 -1.6870711 -0.39855468 234 88 12
0.44580096 -1.714366 -0.39933252 234 88 12
0.43898743 -1.7014127 -0.39905319 234 88 12
0.4303852 -1.6862496 -0.39872128 234 88 12
0.37791279 -1.702024 -0.40228996 234 88 12
0.37709889 -1.696063 -0.40220121 234 88 12
0.37777132 -1.6864054 -0.40206996 234 88 12
0.38821441 -1.6870937 -0.40214548 234 88 12
0.39683291 -1.6911612 -0.40225691 234 88 12
0.40024966 -1.689625 -0.40225691 234 88 12
0.4119648 -1.6866494 -0.40228906 234 88 12
0.46055079 -1.7358247 -0.40328544 234 88 12
0.43213257 -1.6986709 -0.40258491 234 88 12
0.39133349 -1.6849267 -0.40587321 234 88 12
0.37902966 -1.6975348 -0.40965843 234 88 12
0.37799904 -1.6860955 -0.40957251 234 88 12
0.39250362 -1.691175 -0.40965626 234 88 12
0.40160269 -1.6958028 -0.4097192 234 88 12
0.39279577 -1.6809479 -0.40958339 234 88 12
0.40227583 -1.6807023 -0.40961239 234 88 12
0.38174817 -1.6898084 -0.41333938 234 88 12
0.39255852 -1.6804202 -0.41332209 234 88 12
0.43142334 -1.7519982 -0.41709879 234 88 12
0.41231951 -1.6965605 -0.41707167 234 88 12
0.37626496 -1.6886375 -0.42079312 234 88 12
0.38358065 -1.6859998 -0.42079118 234 88 12
0.38787174 -1.6800885 -0.42080301 234 88 12
0.39345419 -1.6808636 -0.42079324 234 88 12
0.38076133 -1.6931179 -0.42447916 234 88 12
0.40659088 -1.7053058 -0.42432785 234 88 12
0.39321738 -1.680337 -0.42452478 234 88 12
0.40905795 -1.6924467 -0.42440253 234 88 12
0.41054329 -1.7292827 -0.42769754 234 88 12
0.37888524 -1.6908581 -0.42821044 234 88 12
0.37793705 -1.6846528 -0.42827505 234 88 12
0.38179532 -1.6835397 -0.428269 234 88 12
0.40636072 -1.7047939 -0.42795441 234 88 12
0.39352417 -1.6856939 -0.42819664 234 88 12
0.39367679 -1.6805723 -0.42824587 234 88 12
0.38268062 -1.6946012 -0.43184626 234 88 12
0.4052467 -1.7134838 -0.43146542 234 88 12
0.45605284 -1.7486084 -0.43070486 234 88 12
0.39511868 -1.692119 -0.43547961 234 88 12
1.6228819 -0.65631074 0.34205666 234 88 12
1.6085235 -0.64442748 0.34062707 234 88 12
1.6188043 -0.64586467 0.34141999 234 88 12
1.587348 -0.64144075 0.33522746 234 88 12
1.5829654 -0.63482434 0.33466798 234 88 12
1.590862 -0.63480616 0.33526784 234 88 12
1.6182442 -0.64135331 0.33757392 234 88 12
1.6339023 -0.64590269 0.33892015 234 88 12
1.6222687 -0.67622072 0.33547813 234 88 12
1.6541747 -0.68089694 0.33818272 234 88 12
1.602572 -0.64110589 0.3326562 234 88 12
1.5998869 -0.63116813 0.33208734 234 88 12
1.6447259 -0.65187699 0.33639368 234 88 12
1.5883765 -0.66716278 0.32872844 234 88 12
1.5886508 -0.66312891 0.32860067 234 88 12
1.6157815 -0.66879022 0.33106419 234 88 12
1.5915185 -0.64780635 0.32826686 234 88 12
1.5843073 -0.6692667 0.32472342 234 88 12
1.5759956 -0.66090137 0.32367906 234 88 12
1.5860976 -0.6533829 0.32426053 234 88 12
1.5802889 -0.64611548 0.32347539 234 88 12
1.5818422 -0.64266062 0.32347539 234 88 12
1.5942013 -0.64072269 0.32446915 234 88 12
1.586525 -0.63230854 0.32347786 234 88 12
1.5913429 -0.63064015 0.32382977 234 88 12
1.6047069 -0.62947708 0.32494059 234 88 12
1.5746572 -0.66442835 0.31990898 234 88 12
1.5905392 -0.66402763 0.32132217 234 88 12
1.5854566 -0.65723711 0.32058996 234 88 12
1.596469 -0.6503368 0.32130188 234 88 12
1.5898062 -0.62544131 0.31969485 234 88 12
1.597648 -0.6254884 0.32040253 234 88 12
1.6031291 -0.61568308 0.32049906 234 88 12
1.5968802 -0.60775918 0.31961602 234 88 12
1.6221337 -0.6180979 0.32230723 234 88 12
1.5773188 -0.66572988 0.31641665 234 88 12
1.5816305 -0.66368181 0.31673372 234 88 12
1.5843692 -0.66086078 0.3168712 234 88 12
1.5839366 -0.65219194 0.31646633 234 88 12
1.5897332 -0.64249331 0.31660062 234 88 12
1.5974437 -0.64237344 0.3173165 234 88 12
1.5919808 -0.63516951 0.3165029 234 88 12
1.5903348 -0.62567896 0.31595001 234 88 12
1.6101235 -0.63238329 0.31808212 234 88 12
1.6048304 -0.62516874 0.31728393 234 88 12
1.6103868 -0.61977178 0.31757659 234 88 12
1.6119159 -0.61637098 0.31757659 234 88 12
1.6284584 -0.62171251 0.31934789 234 88 12
1.8282191 -0.7348243 0.34278074 234 88 12
1.5901437 -0.65957576 0.31360337 234 88 12
1.5922551 -0.64803183 0.31330472 234 88 12
1.6025224 -0.64926112 0.3143543 234 88 12
1.6206478 -0.62134564 0.31489509 234 88 12
1.6210423 -0.61732566 0.31475803 234 88 12
1.6302238 -0.6184563 0.315698 234 88 12
1.576147 -0.6650936 0.30868775 234 88 12
1.5791531 -0.66237754 0.30886716 234 88 12
1.5810552 -0.65062726 0.30852735 234 88 12
1.5856438 -0.64450175 0.30871174 234 88 12
1.5995941 -0.64343762 0.31006584 234 88 12
1.5941813 -0.62769496 0.30881038 234 88 12
1.6007621 -0.62705439 0.30944291 234 88 12
1.5960509 -0.62011421 0.30865571 234 88 12
1.6050289 -0.61657733 0.30939829 234 88 12
1.5845554 -0.66926211 0.30595443 234 88 12
1.5812244 -0.65916944 0.30513591 234 88 12
1.6163929 -0.65656382 0.30867243 234 88 12
1.6098361 -0.64889789 0.30763182 234 88 12
1.5966725 -0.63756835 0.30573261 234 88 12
1.6013627 -0.62733269 0.30574182 234 88 12
1.5981296 -0.61690146 0.3049176 234 88 12
1.6030962 -0.61540669 0.30536437 234 88 12
1.7008344 -0.66752005 0.31796888 234 88 12
1.6200436 -0.61660677 0.30718344 234 88 12
1.5903029 -0.65534639 0.30212843 234 88 12
1.6000071 -0.65619504 0.30321303 234 88 12
1.5996367 -0.64336878 0.30255306 234 88 12
1.5999426 -0.62218404 0.30156168 234 88 12
1.6175209 -0.6236003 0.30352053 234 88 12
1.6690387 -0.70756692 0.30970293 234 88 12
1.5887793 -0.66294903 0.29856133 234 88 12
1.5903159 -0.65953124 0.29856133 234 88 12
1.599389 -0.66001856 0.29959333 234 88 12
1.5973235 -0.64631891 0.29867989 234 88 12
1.6001581 -0.64360321 0.29885909 234 88 12
1.5960798 -0.63287294 0.29787037 234 88 12
1.6009735 -0.63128525 0.29833457 234 88 12
1.6004685 -0.62242049 0.29783583 234 88 12
1.6152484 -0.62223554 0.2994681 234 88 12
1.5822126 -0.65108204 0.29342225 234 88 12
1.6244783 -0.66483921 0.29897404 234 88 12
1.612672 -0.65445375 0.29708618 234 88 12
1.6270341 -0.65801013 0.29891509 234 88 12
1.6304317 -0.63921833 0.2983363 234 88 12
1.5899981 -0.65508062 0.2907325 234 88 12
1.5899274 -0.64655674 0.29027152 234 88 12
1.7021047 -0.70206964 0.3064692 234 88 12
1.621366 -0.64244771 0.29376665 234 88 12
1.6386417 -0.64789534 0.29609644 234 88 12
1.6150246 -0.63049179 0.29238272 234 88 12
1.6422516 -0.64169991 0.29619384 234 88 12
1.5883449 -0.65418774 0.28669026 234 88 12
1.6019766 -0.65287799 0.28827688 234 88 12
1.5918968 -0.64329606 0.28652662 234 88 12
1.5998297 -0.64328849 0.28749123 234 88 12
1.6002902 -0.63502431 0.28709528 234 88 12
1.6705878 -0.68907034 0.29514495 234 88 12
1.6360812 -0.66680247 0.289572 234 88 12
1.5981106 -0.63377881 0.28296006 234 88 12
1.7101892 -0.6914435 0.30023599 234 88 12
1.5897665 -0.65485233 0.27929914 234 88 12
1.6005723 -0.65626174 0.28077167 234 88 12
1.6279066 -0.66649109 0.28488231 234 88 12
1.5925726 -0.64356852 0.27900732 234 88 12
1.6046814 -0.64157432 0.28045061 234 88 12
1.6108608 -0.6407128 0.28119621 234 88 12
1.5908542 -0.65538007 0.27566749 234 88 12
1.6178992 -0.66116565 0.27958879 234 88 12
1.6887673 -0.68335009 0.29028177 234 88 12
1.5945877 -0.65727955 0.27248386 234 88 12
1.5910014 -0.65117615 0.27162409 234 88 12
1.6164438 -0.66035664 0.27564025 234 88 12
1.5909579 -0.64261961 0.27109569 234 88 12
1.6338193 -0.6531921 0.27756271 234 88 12
1.5894603 -0.65033072 0.26753893 234 88 12
1.6169556 -0.66058683 0.27201372 234 88 12
1.603834 -0.64096791 0.26895556 234 88 12
1.6841968 -0.68075246 0.28264895 234 88 12
1.602827 -0.66147977 0.26633719 234 88 12
1.6205564 -0.65416569 0.26840127 234 88 12
1.6054273 -0.65861112 0.26276141 234 88 12
1.6017598 -0.65247697 0.26182014 234 88 12
1.6573465 -0.67392242 0.27137566 234 88 12
1.6078629 -0.6430586 0.2620939 234 88 12
1.711571 0.43009984 -0.10006982 234 88 12
1.7556003 0.42147601 -0.10036384 234 88 12
1.7184855 0.43558457 -0.10011854 234 88 12
1.7678648 0.42506844 -0.10044798 234 88 12
1.7493452 0.43398112 -0.10032626 234 88 12
1.7530185 0.43647742 -0.10035199 234 88 12
1.7312763 0.43190074 -0.10391548 234 88 12
1.7244184 0.43752381 -0.10389616 234 88 12
1.7295963 0.44334051 -0.10391238 234 88 12
1.7453912 0.39901221 -0.10761593 234 88 12
1.7558249 0.3999263 -0.10760704 234 88 12
1.7354968 0.40882063 -0.10762385 234 88 12
1.7236853 0.42296818 -0.1076332 234 88 12
1.714718 0.44397324 -0.10763981 234 88 12
1.7292467 0.4470447 -0.10762736 234 88 12
1.7148728 0.4030138 -0.11141967 234 88 12
1.7210683 0.40885735 -0.11138941 234 88 12
1.7509443 0.40831372 -0.1112508 234 88 12
1.723539 0.42296013 -0.11137433 234 88 12
1.7152767 0.42892733 -0.11141117 234 88 12
1.7363597 0.42672738 -0.11131382 234 88 12
1.7111965 0.43750522 -0.11142793 234 88 12
1.7263303 0.44420242 -0.11135593 234 88 12
1.7729019 0.43395332 -0.11114227 234 88 12
1.7335616 0.39462668 -0.11504278 234 88 12
1.720107 0.40535846 -0.11515136 234 88 12
1.7153772 0.41028076 -0.11518899 234 88 12
1.7118548 0.42237568 -0.1152131 234 88 12
1.7278942 0.42172351 -0.11507803 234 88 12
1.7175401 0.42825237 -0.11516239 234 88 12
1.7173457 0.44680172 -0.11515541 234 88 12
1.7360693 0.45939279 -0.11499153 234 88 12
1.8515058 0.4264195 -0.11403256 234 88 12
1.7147852 0.39922217 -0.11897609 234 88 12
1.7139457 0.40315595 -0.11898371 234 88 12
1.7289826 0.40305454 -0.1187998 234 88 12
1.7245456 0.40786779 -0.11885084 234 88 12
1.7168827 0.41355687 -0.11894076 234 88 12
1.7141767 0.42170265 -0.11896839 234 88 12
2.0035167 0.3464646 -0.115479 234 88 12
1.7214501 0.42712229 -0.11887575 234 88 12
1.7113738 0.43363255 -0.11899465 234 88 12
1.7161165 0.43971118 -0.11893253 234 88 12
1.7178628 0.44290411 -0.11890901 234 88 12
1.7544296 0.43581307 -0.11846639 234 88 12
1.7119657 0.45205081 -0.11897501 234 88 12
1.8372562 0.41789138 -0.11746509 234 88 12
1.7316232 0.4534598 -0.11873355 234 88 12
1.7252809 0.45906055 -0.11880738 234 88 12
1.7427747 0.45723915 -0.11859456 234 88 12
1.7452918 0.46361732 -0.11855947 234 88 12
1.7222502 0.41579422 -0.12261764 234 88 12
1.729187 0.42127535 -0.12250162 234 88 12
1.7363826 0.43746015 -0.122372 234 88 12
1.7149272 0.4585146 -0.12269733 234 88 12
1.7428329 0.45357418 -0.12225439 234 88 12
1.827932 0.43051395 -0.12091072 234 88 12
1.8545212 0.42536935 -0.12048907 234 88 12
1.976501 0.38945246 -0.11856557 234 88 12
1.7175407 0.39845234 -0.12647285 234 88 12
1.7402906 0.4037132 -0.12601617 234 88 12
1.7338654 0.43087098 -0.12611391 234 88 12
1.7187048 0.44624677 -0.12639762 234 88 12
1.7346593 0.45605174 -0.12607069 234 88 12
1.7479661 0.45908132 -0.12580363 234 88 12
1.7662443 0.45679528 -0.12544383 234 88 12
1.7142365 0.39922383 -0.13031316 234 88 12
1.7156931 0.40258244 -0.1302744 234 88 12
1.724941 0.40762848 -0.13004948 234 88 12
1.7185506 0.4129805 -0.13019343 234 88 12
1.7303642 0.41720381 -0.12990898 234 88 12
1.9708462 0.35527143 -0.12431102 234 88 12
1.7460037 0.42018971 -0.12953581 234 88 12
1.716585 0.43202424 -0.13021508 234 88 12
1.7266209 0.43287772 -0.129977 234 88 12
1.7722815 0.42341611 -0.12891112 234 88 12
1.7114823 0.44460905 -0.13031922 234 88 12
1.7185581 0.44623873 -0.13015002 234 88 12
1.7110292 0.45217371 -0.13032009 234 88 12
1.7175238 0.45761442 -0.13015966 234 88 12
1.7331941 0.45645258 -0.12979114 234 88 12
1.7478238 0.45907351 -0.12944229 234 88 12
1.7608942 0.38765934 -0.13282658 234 88 12
1.746677 0.41276851 -0.13317831 234 88 12
1.8018783 0.4013105 -0.1316829 234 88 12
1.7198676 0.42736545 -0.13389096 234 88 12
1.7884681 0.4152815 -0.13202931 234 88 12
1.8411516 0.40357625 -0.13060327 234 88 12
1.7897998 0.421763 -0.13198304 234 88 12
1.7221862 0.4451181 -0.13380064 234 88 12
1.8052959 0.42399269 -0.13155504 234 88 12
1.7277719 0.45077771 -0.13363904 234 88 12
1.8277239 0.42715323 -0.13093567 234 88 12
1.7444085 0.46010232 -0.13316908 234 88 12
1.7120721 0.40339956 -0.13792147 234 88 12
1.7226528 0.4044387 -0.13758965 234 88 12
1.7172133 0.40953019 -0.13775058 234 88 12
1.7465343 0.41276065 -0.13683045 234 88 12
1.7612703 0.41233769 -0.13637152 234 88 12
1.7428225 0.42097408 -0.13693212 234 88 12
1.7190974 0.43122223 -0.13765457 234 88 12
1.7620136 0.42273945 -0.13633047 234 88 12
1.8263065 0.40779769 -0.13435069 234 88 12
1.7186812 0.44241184 -0.13764834 234 88 12
1.7619084 0.4333618 -0.13631552 234 88 12
1.7140613 0.45116466 -0.13777742 234 88 12
1.7146542 0.45468748 -0.13775288 234 88 12
1.7303956 0.45357397 -0.13726377 234 88 12
1.7269729 0.45827174 -0.13736247 234 88 12
1.727078 0.40326864 -0.14117645 234 88 12
1.7307839 0.40964124 -0.14103453 234 88 12
1.7101616 0.41876602 -0.14173834 234 88 12
1.7275999 0.42146987 -0.14112313 234 88 12
1.7758864 0.41527548 -0.13944598 234 88 12
1.7505828 0.42950723 -0.14030372 234 88 12
1.7387708 0.44012967 -0.14069645 234 88 12
1.7686481 0.39617696 -0.14330171 234 88 12
1.7100135 0.41875789 -0.14552663 234 88 12
1.7115121 0.43696484 -0.14542969 234 88 12
1.7298471 0.44270816 -0.14470664 234 88 12
1.723776 0.44816327 -0.14493036 234 88 12
1.7481537 0.44446877 -0.14399318 234 88 12
1.7648438 0.44294316 -0.14334939 234 88 12
1.7157301 0.41719478 -0.14906901 234 88 12
1.7296988 0.41714761 -0.14847471 234 88 12
1.735624 0.42281976 -0.14820929 234 88 12
1.7210724 0.43052214 -0.14881046 234 88 12
1.722778 0.43739519 -0.14872178 234 88 12
1.7500989 0.43312162 -0.14756919 234 88 12
1.7592019 0.43401176 -0.14717975 234 88 12
1.7459755 0.44149211 -0.14772506 234 88 12
1.741408 0.4464542 -0.14790781 234 88 12
1.8004663 0.39808038 -0.14895079 234 88 12
1.7136997 0.42882577 -0.15289296 234 88 12
1.7265939 0.43990791 -0.1522672 234 88 12
1.7154355 0.41717857 -0.15660177 234 88 12
1.7101096 0.42231771 -0.15685454 234 88 12
1.7205747 0.42319295 -0.15632759 234 88 12
1.7643522 0.41479316 -0.15415658 234 88 12
1.7145673 0.43224394 -0.15660372 234 88 12
1.7141531 0.43977138 -0.15660372 234 88 12
1.7262506 0.41793308 -0.15977497 234 88 12
1.7286844 0.42459199 -0.15962403 234 88 12
1.7264988 0.43617728 -0.15970747 234 88 12
1.8884982 0.39274108 -0.15110393 234 88 12
1.7164936 0.41680402 -0.16405764 234 88 12
1.7104713 0.42212474 -0.16438815 234 88 12
1.7128184 0.42892259 -0.16423118 234 88 12
1.7237732 0.42957097 -0.16359718 234 88 12
1.7228488 0.43717512 -0.16362637 234 88 12
2.000344 0.36019051 -0.14786337 234 88 12
1.7478775 0.4299435 -0.16583644 234 88 12
1.7691253 0.42734706 -0.1645392 234 88 12
1.7617618 0.40472025 -0.16865095 234 88 12
1.7435846 0.41313699 -0.16980669 234 88 12
1.7202363 0.42677853 -0.17128105 234 88 12
1.801067 0.41801825 -0.16603874 234 88 12
1.7228057 0.41499141 -0.17488231 234 88 12
1.8867047 0.37466481 -0.16372277 234 88 12
1.7409513 0.41740772 -0.17362067 234 88 12
1.7179109 0.42737153 -0.17517313 234 88 12
1.7295461 0.4314585 -0.17435452 234 88 12
1.8120366 0.41144302 -0.16873683 234 88 12
1.7277055 0.41364741 -0.17825645 234 88 12
1.7490878 0.41156718 -0.17670816 234 88 12
1.7111505 0.42546999 -0.17941427 234 88 12
1.7146568 0.42822042 -0.179148 234 88 12
1.7228279 0.43698153 -0.17851804 234 88 12
1.7255305 0.42150941 -0.182096 234 88 12
1.7828493 0.41282097 -0.17774342 234 88 12
1.7221686 0.43344885 -0.18230312 234 88 12
1.2493095 -1.0082368 -0.70256329 234 88 12
1.2538334 -1.0022241 -0.70256329 234 88 12
1.3044875 -1.0281341 -0.70997757 234 88 12
1.249911 -1.0130653 -0.70672822 234 88 12
1.2423472 -1.0034962 -0.705212 234 88 12
1.263521 -1.0087556 -0.70779294 234 88 12
1.262563 -0.99906671 -0.7069459 234 88 12
1.305755 -1.0246449 -0.71335804 234 88 12
1.3166138 -1.0776578 -0.72193372 234 88 12
1.2416501 -1.0254158 -0.71053982 234 88 12
1.2559347 -1.0302359 -0.71232575 234 88 12
1.2492448 -1.0125424 -0.71033132 234 88 12
1.2448467 -1.005095 -0.70933408 234 88 12
1.2551343 -1.002979 -0.71020114 234 88 12
1.2486551 -0.99398839 -0.7088806 234 88 12
1.2540238 -0.9931013 -0.70934939 234 88 12
1.237975 -1.0317986 -0.71434605 234 88 12
1.2290523 -1.0216939 -0.71274757 234 88 12
1.2341892 -1.0160372 -0.71283281 234 88 12
1.2410822 -1.0160419 -0.7134999 234 88 12
1.2439252 -1.0044017 -0.71292776 234 88 12
1.263733 -1.013236 -0.71548665 234 88 12
1.2651139 -0.99619097 -0.71437973 234 88 12
1.225857 -1.02402 -0.71634656 234 88 12
1.2353965 -1.0077162 -0.71609092 234 88 12
1.25115 -1.0136491 -0.71798635 234 88 12
1.2424691 -0.99879789 -0.71612489 234 88 12
1.2557813 -0.98962849 -0.71672612 234 88 12
1.2665112 -0.99257255 -0.71793979 234 88 12
1.2797369 -0.99286216 -0.71920013 234 88 12
1.287468 -0.99388736 -0.71999729 234 88 12
1.2942083 -0.98974389 -0.72033691 234 88 12
1.2394074 -1.0368595 -0.722184 234 88 12
1.2240967 -1.0227954 -0.71983331 234 88 12
1.2350236 -1.0208533 -0.72069269 234 88 12
1.2627926 -1.0344065 -0.72413945 234 88 12
1.242398 -1.0167227 -0.72108001 234 88 12
1.2414023 -1.0070876 -0.72033149 234 88 12
1.2501352 -1.0039082 -0.72090715 234 88 12
1.2544827 -1.00234 -0.72119468 234 88 12
1.2793468 -1.0148859 -0.72430897 234 88 12
1.2522383 -0.9916991 -0.72026408 234 88 12
1.2519828 -0.98692733 -0.71991497 234 88 12
1.2632085 -0.99020457 -0.72115797 234 88 12
1.2576706 -0.9816947 -0.72007394 234 88 12
1.2616513 -0.97990054 -0.72031277 234 88 12
1.2639164 -0.97688991 -0.72031277 234 88 12
1.2745521 -0.97995824 -0.72148788 234 88 12
1.2872854 -0.98465836 -0.72296494 234 88 12
1.2555364 -1.0468756 -0.72791523 234 88 12
1.2399335 -1.0194792 -0.7247346 234 88 12
1.2328033 -1.0103551 -0.72350556 234 88 12
1.2354891 -1.0076058 -0.72355974 234 88 12
1.2549103 -1.0115404 -0.72552538 234 88 12
1.2781353 -0.98710591 -0.72595048 234 88 12
1.2946373 -0.99002165 -0.72759241 234 88 12
1.2312196 -1.0270865 -0.72816247 234 88 12
1.2263727 -1.0195627 -0.72727066 234 88 12
1.225989 -1.0148375 -0.7269364 234 88 12
1.2338316 -1.0154241 -0.72763944 234 88 12
1.2375752 -1.0088966 -0.72754031 234 88 12
1.350386 -1.0794181 -0.74161756 234 88 12
1.2468199 -1.006041 -0.72814256 234 88 12
1.2549863 -1.0070477 -0.72889996 234 88 12
1.246635 -0.99686253 -0.72754079 234 88 12
1.2474898 -0.98830062 -0.72706664 234 88 12
1.2542818 -0.97921151 -0.7270627 234 88 12
1.2772325 -0.98642659 -0.72947121 234 88 12
1.2537637 -1.0455418 -0.73482877 234 88 12
1.2293975 -1.0258236 -0.73161733 234 88 12
1.2476467 -1.0154575 -0.73247343 234 88 12
1.2587136 -1.013943 -0.73328668 234 88 12
1.2818671 -1.0120535 -0.73506695 234 88 12
1.3280841 -1.0357229 -0.74031198 234 88 12
1.2948124 -1.0079199 -0.73587269 234 88 12
1.3260782 -1.0258583 -0.73953962 234 88 12
1.2448792 -1.0179896 -0.73605633 234 88 12
1.2555969 -1.0162116 -0.73679709 234 88 12
1.2569518 -0.99926645 -0.73589718 234 88 12
1.2540542 -0.98817325 -0.73500913 234 88 12
1.2708251 -0.98175186 -0.73595214 234 88 12
1.2757143 -0.98070747 -0.73627621 234 88 12
1.2478969 -1.0330011 -0.74078983 234 88 12
1.2230693 -1.0126566 -0.73773777 234 88 12
1.2344283 -1.015528 -0.7387659 234 88 12
1.2268437 -1.0060923 -0.73764926 234 88 12
1.2462057 -1.0143389 -0.73959345 234 88 12
1.269237 -1.0252101 -0.7419669 234 88 12
1.244271 -1.0041076 -0.73886096 234 88 12
1.2630076 -1.0078287 -0.74049872 234 88 12
1.2426142 -0.98935473 -0.73789084 234 88 12
1.2544394 -0.99294907 -0.73899579 234 88 12
1.2531375 -0.9874835 -0.73858404 234 88 12
1.254223 -0.97905076 -0.73818409 234 88 12
1.3325957 -1.02624 -0.74684393 234 88 12
1.4073675 -1.0763135 -0.755395 234 88 12
1.2421179 -1.0248293 -0.74351269 234 88 12
1.2236387 -1.0084254 -0.7412591 234 88 12
1.2683529 -1.0245448 -0.74541527 234 88 12
1.2476242 -1.0062828 -0.74289501 234 88 12
1.2472056 -0.99699187 -0.74235326 234 88 12
1.2588348 -0.98686022 -0.74264622 234 88 12
1.2308823 -1.0130363 -0.74572277 234 88 12
1.2503042 -1.0124545 -0.74705541 234 88 12
1.23577 -0.99825448 -0.74528515 234 88 12
1.2463696 -0.99635732 -0.745929 234 88 12
1.262762 -0.99410564 -0.74696082 234 88 12
1.2890662 -1.0080957 -0.74954617 234 88 12
1.2760733 -1.0423063 -0.75391704 234 88 12
1.229001 -1.0072353 -0.7489745 234 88 12
1.2381778 -1.0043033 -0.74944353 234 88 12
1.2348486 -0.99756128 -0.74887824 234 88 12
1.2428333 -0.98926556 -0.75267637 234 88 12
1.2453929 -0.98646331 -0.7527054 234 88 12
1.2283002 -1.0065973 -0.75625712 234 88 12
1.225124 -0.99999624 -0.75575656 234 88 12
1.2279528 -0.99733609 -0.7558074 234 88 12
1.2353859 -0.98867249 -0.75586361 234 88 12
1.2418014 -0.98849648 -0.75624985 234 88 12
1.2431946 -0.99844962 -0.76043898 234 88 12
1.2853611 -1.0183887 -0.76378787 234 88 12
1.2791888 -1.0397758 -0.76781005 234 88 12
1.2266153 -1.0008123 -0.76324958 234 88 12
1.2541553 -1.0146301 -0.76536226 234 88 12
1.2328867 -0.99140406 -0.76320463 234 88 12
1.2351569 -0.98838675 -0.76320463 234 88 12
1.2667018 -1.005501 -0.76567847 234 88 12
1.2253121 -1.0043715 -0.7669915 234 88 12
1.2236685 -0.99878037 -0.76668251 234 88 12
1.251338 -1.0126761 -0.76869583 234 88 12
1.2366668 -0.99389327 -0.76717478 234 88 12
1.282876 -1.0165672 -0.77051598 234 88 12
1.2329038 -1.0092604 -0.77121127 234 88 12
1.2550492 -1.0194379 -0.77269948 234 88 12
1.3273264 -1.0470848 -0.77734727 234 88 12
1.3015538 -1.054193 -0.77964997 234 88 12
1.224576 -0.99468827 -0.77391976 234 88 12
1.2268488 -0.99166739 -0.77391976 234 88 12
1.2917153 -1.0267926 -0.7782166 234 88 12
1.2307591 -1.0032158 -0.77814019 234 88 12
1.2887472 -1.0289531 -0.78155947 234 88 12
1.2409216 -0.99206382 -0.77821851 234 88 12
1.3665701 -1.0853962 -0.78993165 234 88 12
0.4991129 -0.70709729 -1.5864069 234 88 12
0.50032765 -0.70334381 -1.5857303 234 88 12
0.50903964 -0.7051267 -1.5885813 234 88 12
0.550933 -0.72729349 -1.6059397 234 88 12
0.50585878 -0.71152306 -1.5930483 234 88 12
0.51780015 -0.71114463 -1.5961695 234 88 12
0.5204072 -0.70849967 -1.5961695 234 88 12
0.5175457 -0.70174026 -1.5935999 234 88 12
0.52017021 -0.69907761 -1.5935999 234 88 12
0.54322785 -0.71202064 -1.6032628 234 88 12
0.49721664 -0.70471543 -1.5925422 234 88 12
0.49986604 -0.7020275 -1.5925422 234 88 12
0.54938662 -0.72526497 -1.6119003 234 88 12
0.51056498 -0.69135273 -1.5925895 234 88 12
0.59514624 -0.75128376 -1.6309861 234 88 12
1.4104285 0.057219602 -1.1175756 234 88 12
1.422196 0.056406811 -1.1204592 234 88 12
1.4397374 0.056925151 -1.1247022 234 88 12
1.455211 0.054345787 -1.1285424 234 88 12
1.3817813 0.064006582 -1.1141512 234 88 12
1.4020996 0.06387984 -1.1190141 234 88 12
1.3967365 0.073800512 -1.1174182 234 88 12
1.4025431 0.075339451 -1.1187581 234 88 12
1.4184272 0.072684944 -1.1226405 234 88 12
1.3799137 0.064253323 -1.1174394 234 88 12
1.3997829 0.06043981 -1.1222366 234 88 12
1.3915632 0.067559414 -1.1200796 234 88 12
1.3818668 0.075339273 -1.1175544 234 88 12
1.3978753 0.076735973 -1.1212804 234 88 12
1.4281815 0.068170443 -1.128683 234 88 12
1.3820224 0.062964357 -1.1216965 234 88 12
1.3892251 0.064087801 -1.1233317 234 88 12
1.4312998 0.051404525 -1.133473 234 88 12
1.38 0.075585902 -1.1208411 234 88 12
1.3865769 0.037369918 -1.1272136 234 88 12
1.3822715 0.042827789 -1.1260668 234 88 12
1.3827635 0.046551764 -1.1260668 234 88 12
1.3897139 0.047863178 -1.1276129 234 88 12
1.6087332 -0.024954954 -1.1797775 234 88 12
1.3778912 0.071977258 -1.1241888 234 88 12
1.3787317 0.083502881 -1.1240331 234 88 12
1.3862385 0.084384188 -1.1257193 234 88 12
1.3952541 0.084583111 -1.1277702 234 88 12
1.3967006 0.095680617 -1.1277657 234 88 12
1.4140455 0.092117928 -1.1318303 234 88 12
1.6374097 -0.0011523592 -1.1856027 234 88 12
1.5185044 0.053956833 -1.1568131 234 88 12
1.3730479 0.037904806 -1.1278242 234 88 12
1.3718565 0.04226226 -1.1274273 234 88 12
1.3737603 0.057312641 -1.1274084 234 88 12
1.3949683 0.053172935 -1.1322927 234 88 12
1.459501 0.032175083 -1.1474042 234 88 12
1.3850132 0.064777367 -1.1297135 234 88 12
1.3811648 0.074132495 -1.128572 234 88 12
1.3830036 0.085194789 -1.1286566 234 88 12
1.3819087 0.093534373 -1.1281635 234 88 12
1.3849187 0.10015943 -1.1286428 234 88 12
1.404578 0.09565185 -1.1331903 234 88 12
1.6364006 0.0017936395 -1.1880221 234 88 12
1.3759938 0.052091178 -1.1317605 234 88 12
1.3881772 0.063072883 -1.1341312 234 88 12
1.3796873 0.078159764 -1.1318156 234 88 12
1.3786148 0.086475931 -1.131336 234 88 12
1.3782262 0.094540343 -1.1310148 234 88 12
1.4010111 0.092768922 -1.1360996 234 88 12
1.4924163 0.060887437 -1.1572207 234 88 12
1.5044209 0.059140235 -1.1599234 234 88 12
1.3945916 0.029398143 -1.1401349 234 88 12
1.3713057 0.053389926 -1.1343867 234 88 12
1.3718009 0.057138443 -1.1343867 234 88 12
1.394787 0.052335203 -1.139519 234 88 12
1.3729008 0.064593419 -1.1344116 234 88 12
1.5040109 0.017622495 -1.1642481 234 88 12
1.3828441 0.068576902 -1.1364578 234 88 12
1.3834836 0.095748484 -1.1358167 234 88 12
1.4898921 0.054474369 -1.1601225 234 88 12
1.4145443 0.094111256 -1.1426127 234 88 12
1.367355 0.038679868 -1.1376436 234 88 12
1.3743223 0.040100891 -1.1390923 234 88 12
1.3669013 0.046702988 -1.1373202 234 88 12
1.3945698 0.040466025 -1.1434087 234 88 12
1.3803149 0.049594522 -1.1401049 234 88 12
1.3704168 0.057204541 -1.1377749 234 88 12
1.6249931 -0.035539176 -1.1947933 234 88 12
1.4706546 0.026607631 -1.1600584 234 88 12
1.3808842 0.064961016 -1.1397927 234 88 12
1.4040967 0.059769392 -1.1448995 234 88 12
1.396037 0.070625879 -1.1428708 234 88 12
1.3730475 0.083768286 -1.1375872 234 88 12
1.3811338 0.08834406 -1.1391859 234 88 12
1.4978837 0.043685131 -1.1653948 234 88 12
1.4413992 0.070877761 -1.152557 234 88 12
1.3956842 0.093964174 -1.1421366 234 88 12
1.396035 0.10157647 -1.1419965 234 88 12
1.4281031 0.027723948 -1.1543908 234 88 12
1.3720529 0.056137636 -1.1418257 234 88 12
1.4227488 0.040829536 -1.1529021 234 88 12
1.4171469 0.054194909 -1.1513541 234 88 12
1.4466058 0.04630151 -1.1577626 234 88 12
1.4292191 0.056885611 -1.1538159 234 88 12
1.4127146 0.067258 -1.1500602 234 88 12
1.3766092 0.093626887 -1.1417423 234 88 12
1.377596 0.10109638 -1.1417423 234 88 12
1.3937228 0.098143227 -1.1452127 234 88 12
1.3942083 0.10181779 -1.1452127 234 88 12
1.3734527 0.035686053 -1.1463302 234 88 12
1.4155656 0.024462363 -1.1553344 234 88 12
1.3941883 0.03594169 -1.1506059 234 88 12
1.3689044 0.049028575 -1.1450268 234 88 12
1.3733373 0.05130218 -1.1458803 234 88 12
1.4137878 0.040044378 -1.1545421 234 88 12
1.3694415 0.060589164 -1.1448222 234 88 12
1.4537022 0.032258533 -1.1629983 234 88 12
1.3793731 0.068500519 -1.1466577 234 88 12
1.3901397 0.068147965 -1.148891 234 88 12
1.4176095 0.061049376 -1.1547582 234 88 12
1.3964835 0.077156797 -1.1499554 234 88 12
1.3826902 0.086672023 -1.1468469 234 88 12
1.3739805 0.094192624 -1.1448429 234 88 12
1.4245278 0.080695689 -1.155651 234 88 12
1.3884938 0.09983813 -1.1476864 234 88 12
1.371092 0.036112539 -1.1494691 234 88 12
1.3606377 0.043748643 -1.1471423 234 88 12
1.3761187 0.042073514 -1.1503296 234 88 12
1.3815917 0.051667631 -1.1511832 234 88 12
1.3770359 0.057258222 -1.1501086 234 88 12
1.4126565 0.047527421 -1.1575998 234 88 12
1.3927668 0.062796161 -1.1531531 234 88 12
1.3762808 0.077043585 -1.1494247 234 88 12
1.4235382 0.065662533 -1.1593223 234 88 12
1.4065069 0.087799393 -1.1552715 234 88 12
1.3718123 0.039326847 -1.1531528 234 88 12
1.3880659 0.037326723 -1.1564471 234 88 12
1.3797609 0.051909503 -1.1544064 234 88 12
1.3603449 0.063113257 -1.150239 234 88 12
1.4050182 0.050001387 -1.159494 234 88 12
1.3787174 0.063923866 -1.1538818 234 88 12
1.3909597 0.063033275 -1.1563469 234 88 12
1.3652948 0.080924235 -1.150757 234 88 12
1.3775563 0.083847128 -1.1531253 234 88 12
1.3856392 0.088318452 -1.1546196 234 88 12
1.3861252 0.091997407 -1.1546196 234 88 12
1.4229857 0.027962977 -1.1670825 234 88 12
1.3717347 0.050577715 -1.1564568 234 88 12
1.3831978 0.057878986 -1.1585135 234 88 12
1.4332892 0.046083603 -1.1686321 234 88 12
1.3721845 0.073782831 -1.1559443 234 88 12
1.3634311 0.081170462 -1.1540382 234 88 12
1.3831153 0.081089824 -1.1578966 234 88 12
1.3950794 0.080068082 -1.1602669 234 88 12
1.3955594 0.083702222 -1.1602669 234 88 12
1.3643137 0.056789108 -1.1584738 234 88 12
1.3563828 0.06369181 -1.1567726 234 88 12
1.3766946 0.059902828 -1.1607767 234 88 12
1.3625942 0.073133774 -1.1577277 234 88 12
1.3683497 0.08264529 -1.1585932 234 88 12
1.3760587 0.083448321 -1.160056 234 88 12
1.3586292 0.06193535 -1.1645178 234 88 12
1.4425967 0.033951432 -1.1807703 234 88 12
1.5754941 -0.013483144 -1.2065706 234 88 12
1.4424539 0.0412005 -1.1805663 234 88 12
1.3569465 0.078315988 -1.1638047 234 88 12
1.3629562 0.083810359 -1.1647842 234 88 12
1.3742492 0.083180025 -1.1668932 234 88 12
1.3522351 0.067826763 -1.1668273 234 88 12
1.3555775 0.082312942 -1.1670872 234 88 12
1.3734667 0.079116687 -1.1704184 234 88 12
1.5477508 0.012696775 -1.2037197 234 88 12
1.475446 0.024110027 -1.1934711 234 88 12
1.3666699 0.077442341 -1.1728027 234 88 12
1.4128984 0.06289915 -1.1813949 234 88 12
1.367144 0.085048936 -1.1727079 234 88 12
1.353479 0.062513217 -1.174407 234 88 12
1.3524135 0.066838697 -1.1741205 234 88 12
1.4354246 0.039011668 -1.1892904 234 88 12
1.3497987 0.075713567 -1.1734577 234 88 12
1.3537604 0.082051516 -1.1740046 234 88 12
1.4425746 0.054201484 -1.1901906 234 88 12
1.589825 -0.023398472 -1.2204936 234 88 12
1.3807595 0.059472773 -1.1827493 234 88 12
1.3789812 0.063973956 -1.1823422 234 88 12
1.3518994 0.082297362 -1.1772809 234 88 12
1.3551008 0.076635383 -1.1815395 234 88 12
1.356055 0.084092245 -1.1815343 234 88 12
1.4194707 0.062560715 -1.1926744 234 88 12
1.3616567 0.061984099 -1.1865064 234 88 12
1.3598976 0.066525906 -1.1861179 234 88 12
1.3460076 0.075756967 -1.1836292 234 88 12
1.3506697 0.081809744 -1.1842654 234 88 12
1.4013273 0.050296806 -1.196681 234 88 12
1.3441445 0.076003112 -1.1869093 234 88 12
1.3524587 0.068443187 -1.1919596 234 88 12
1.4000378 0.054061517 -1.199773 234 88 12
1.3501689 0.077128276 -1.1914167 234 88 12
1.3561658 0.08258377 -1.1922499 234 88 12
