ply
format ascii 1.0
element vertex 2055
property float x
property float y
property float z
property uchar red
property uchar green
property uchar blue
end_header
0.024805719 0.072109647 2.4271395 234 88 12
0.020190703 0.069802143 2.4271395 234 88 12
-0.053570461 0.098969154 2.2533138 234 88 12
-0.051754512 0.098969154 2.2533138 234 88 12
-0.040858824 0.098969154 2.2533138 234 88 12
0.0086531583 0.062879615 2.4271395 234 88 12
-0.029963139 0.097153209 2.2533138 234 88 12
0.0051918947 0.061725859 2.4271395 234 88 12
0.010960666 0.061725859 2.4271395 234 88 12
0.021344457 0.061725859 2.4271395 234 88 12
-0.0208834 0.095337257 2.2533138 234 88 12
-0.0063456492 0.060572106 2.4271395 234 88 12
-0.062650196 0.093521312 2.2533138 234 88 12
-0.051754512 0.093521312 2.2533138 234 88 12
-0.040858824 0.093521312 2.2533138 234 88 12
-0.029963139 0.093521312 2.2533138 234 88 12
-0.0208834 0.093521312 2.2533138 234 88 12
-0.0099877128 0.093521312 2.2533138 234 88 12
-0.064466149 0.091705367 2.2533138 234 88 12
0.00090797391 0.091705367 2.2533138 234 88 12
0.011803661 0.089889415 2.2533138 234 88 12
-0.0047294134 0.089858852 2.2334116 234 88 12
0.0009458827 0.089858852 2.2334116 234 88 12
0.012296475 0.089858852 2.2334116 234 88 12
0.022699347 0.086257517 2.2533138 234 88 12
0.021755302 0.08796709 2.2334116 234 88 12
-0.069913991 0.082625628 2.2533138 234 88 12
-0.062650196 0.082625628 2.2533138 234 88 12
-0.051754512 0.082625628 2.2533138 234 88 12
-0.040858824 0.082625628 2.2533138 234 88 12
-0.029963139 0.082625628 2.2533138 234 88 12
-0.0208834 0.082625628 2.2533138 234 88 12
-0.01418824 0.086075321 2.2334116 234 88 12
0.028147191 0.082625628 2.2533138 234 88 12
0.031779088 0.080809675 2.2533138 234 88 12
0.021344457 0.05134207 2.4271395 234 88 12
-0.019863537 0.082291797 2.2334116 234 88 12
-0.01040471 0.082291797 2.2334116 234 88 12
0.0009458827 0.082291797 2.2334116 234 88 12
0.012296475 0.082291797 2.2334116 234 88 12
0.021755302 0.082291797 2.2334116 234 88 12
0.033105895 0.082291797 2.2334116 234 88 12
-0.023647066 0.080400027 2.2334116 234 88 12
0.04256472 0.076616496 2.2334116 234 88 12
0.031728245 0.046727054 2.4271395 234 88 12
-0.069913991 0.071729936 2.2533138 234 88 12
-0.062650196 0.071729936 2.2533138 234 88 12
-0.051754512 0.071729936 2.2533138 234 88 12
-0.040858824 0.071729936 2.2533138 234 88 12
-0.029963139 0.071729936 2.2533138 234 88 12
-0.029322363 0.072832964 2.2334116 234 88 12
-0.019863537 0.072832964 2.2334116 234 88 12
-0.01040471 0.072832964 2.2334116 234 88 12
0.0009458827 0.072832964 2.2334116 234 88 12
0.012296475 0.072832964 2.2334116 234 88 12
0.021755302 0.072832964 2.2334116 234 88 12
0.033105895 0.072832964 2.2334116 234 88 12
0.04256472 0.072832964 2.2334116 234 88 12
-0.033105895 0.069049433 2.2334116 234 88 12
0.012005034 0.094706379 2.0297062 234 88 12
0.015269308 0.098556444 2.0012376 234 88 12
0.017530844 0.095745377 2.0220237 234 88 12
0.049938563 0.064466149 2.2533138 234 88 12
0.032882001 0.040958282 2.4271395 234 88 12
-0.069913991 0.062650196 2.2533138 234 88 12
-0.062650196 0.062650196 2.2533138 234 88 12
-0.051754512 0.062650196 2.2533138 234 88 12
-0.040858824 0.062650196 2.2533138 234 88 12
-0.0093426984 0.071627349 2.1850092 234 88 12
-0.0080759758 0.079606041 2.1243019 234 88 12
-0.0054589934 0.075334109 2.1568058 234 88 12
-0.0033374906 0.076762281 2.1459391 234 88 12
0.0011049936 0.076244555 2.1498783 234 88 12
0.0033971807 0.078135155 2.1354933 234 88 12
0.0051956619 0.071700133 2.1844554 234 88 12
0.01282652 0.080457263 2.1178253 234 88 12
0.014805678 0.078583986 2.1320784 234 88 12
0.016832601 0.077429973 2.1408589 234 88 12
0.021770488 0.088362567 2.0576761 234 88 12
0.051754512 0.062650196 2.2533138 234 88 12
-0.011418853 0.0695512 2.1850092 234 88 12
-0.0056530312 0.075750619 2.1364317 234 88 12
0.0080076782 0.07664492 2.1294241 234 88 12
0.012110183 0.073762022 2.152014 234 88 12
0.053915314 0.063374139 2.2334116 234 88 12
0.053570461 0.060834251 2.2533138 234 88 12
-0.036889426 0.061482374 2.2334116 234 88 12
-0.031214129 0.061482374 2.2334116 234 88 12
-0.019863537 0.061482374 2.2334116 234 88 12
-0.014121679 0.070608392 2.1597013 234 88 12
-0.0098578623 0.071195669 2.154958 234 88 12
-0.0011154161 0.072502039 2.1444066 234 88 12
0.0011144606 0.072439939 2.1449082 234 88 12
0.0078795161 0.073166937 2.1390362 234 88 12
0.020139618 0.077004425 2.1080413 234 88 12
0.017971771 0.061482374 2.2334116 234 88 12
0.021755302 0.061482374 2.2334116 234 88 12
0.033105895 0.061482374 2.2334116 234 88 12
0.04256472 0.061482374 2.2334116 234 88 12
0.053915314 0.061482374 2.2334116 234 88 12
-0.01435594 0.069571093 2.1502409 234 88 12
-0.011779457 0.067464165 2.1677985 234 88 12
0.0032801067 0.068882242 2.1559813 234 88 12
0.010225127 0.071575888 2.1335342 234 88 12
0.012645059 0.0724217 2.1264858 234 88 12
0.02337444 0.077504724 2.0841272 234 88 12
-0.0097514084 0.066092879 2.1611679 234 88 12
0.019083552 0.068476275 2.140655 234 88 12
-0.016840989 0.066241227 2.1405654 234 88 12
0.010417959 0.068295501 2.1222858 234 88 12
0.012225463 0.065572932 2.146512 234 88 12
0.015094025 0.068503648 2.1204336 234 88 12
-0.066282094 0.051754512 2.2533138 234 88 12
-0.062650196 0.051754512 2.2533138 234 88 12
-0.051754512 0.051754512 2.2533138 234 88 12
-0.040858824 0.051754512 2.2533138 234 88 12
-0.014105763 0.061848346 2.1603441 234 88 12
-0.011810368 0.061199181 2.1663234 234 88 12
-0.0096897045 0.061368126 2.1647673 234 88 12
-0.0054901014 0.062587157 2.1535394 234 88 12
0.0011010981 0.062762596 2.1519234 234 88 12
0.059018303 0.051754512 2.2533138 234 88 12
-0.040672954 0.052023549 2.2334116 234 88 12
-0.031214129 0.052023549 2.2334116 234 88 12
-0.019863537 0.052023549 2.2334116 234 88 12
-0.015514945 0.05688813 2.1869769 234 88 12
-0.012125278 0.060626388 2.1512935 234 88 12
-0.0091494182 0.055913113 2.1962838 234 88 12
-0.0011492447 0.063208461 2.1266465 234 88 12
0.0010891334 0.059902336 2.158205 234 88 12
0.0078093298 0.061359022 2.1443002 234 88 12
0.012298746 0.061493728 2.1430144 234 88 12
0.020816458 0.067347363 2.0871389 234 88 12
0.017971771 0.052023549 2.2334116 234 88 12
0.021755302 0.052023549 2.2334116 234 88 12
0.033105895 0.052023549 2.2334116 234 88 12
0.04256472 0.052023549 2.2334116 234 88 12
0.053915314 0.052023549 2.2334116 234 88 12
-0.015802681 0.055836141 2.1769061 234 88 12
0.005711914 0.06054629 2.130249 234 88 12
0.017721094 0.055248119 2.1827309 234 88 12
0.023265453 0.064898364 2.0871389 234 88 12
-0.0033486765 0.056927498 2.1439817 234 88 12
0.0010699002 0.054564908 2.1683023 234 88 12
0.017083803 0.058084931 2.132067 234 88 12
0.063374139 0.048240017 2.2334116 234 88 12
-0.0093722781 0.051026847 2.1832838 234 88 12
-0.013988676 0.050574441 2.1650727 234 88 12
-0.012469765 0.053279903 2.1348522 234 88 12
-0.0098453248 0.051414471 2.1556895 234 88 12
-0.008209887 0.05512353 2.1142585 234 88 12
-0.005749891 0.054048974 2.1262615 234 88 12
-0.0032892074 0.051530916 2.1543887 234 88 12
-0.001059179 0.049781412 2.1739311 234 88 12
0.0010743713 0.050495446 2.1659551 234 88 12
0.0032703492 0.051235471 2.1576889 234 88 12
0.012164869 0.051977169 2.149404 234 88 12
-0.064466149 0.040858824 2.2533138 234 88 12
-0.062650196 0.040858824 2.2533138 234 88 12
-0.051754512 0.040858824 2.2533138 234 88 12
-0.04256472 0.04256472 2.2334116 234 88 12
-0.015207312 0.052640695 2.1158586 234 88 12
-0.012433632 0.05086486 2.1365767 234 88 12
-0.010202534 0.051012672 2.1348522 234 88 12
-0.00506189 0.045557007 2.1985016 234 88 12
0.0011096747 0.04993536 2.1474209 234 88 12
0.0057507227 0.051756501 2.1261742 234 88 12
0.012040343 0.049255949 2.1553473 234 88 12
0.015112715 0.052313242 2.1196787 234 88 12
0.018201813 0.054605439 2.0929365 234 88 12
0.064466149 0.040858824 2.2533138 234 88 12
-0.04256472 0.040672954 2.2334116 234 88 12
-0.040672954 0.040672954 2.2334116 234 88 12
-0.031214129 0.040672954 2.2334116 234 88 12
-0.019863537 0.040672954 2.2334116 234 88 12
-0.012169064 0.047569979 2.1492038 234 88 12
0.0011218387 0.048239063 2.1410346 234 88 12
0.012296475 0.040672954 2.2334116 234 88 12
0.018041085 0.051717781 2.098562 234 88 12
0.021755302 0.040672954 2.2334116 234 88 12
0.033105895 0.040672954 2.2334116 234 88 12
0.04256472 0.040672954 2.2334116 234 88 12
0.053915314 0.040672954 2.2334116 234 88 12
0.063374139 0.040672954 2.2334116 234 88 12
-0.012648701 0.047145158 2.126312 234 88 12
-0.0057243248 0.046939466 2.1289458 234 88 12
-0.00094156194 0.03860404 2.2356799 234 88 12
0.012419895 0.046292335 2.1372323 234 88 12
-0.0035163222 0.045712188 2.1146436 234 88 12
-0.0010466778 0.040820435 2.1804941 234 88 12
0.0031400332 0.040820435 2.1804941 234 88 12
0.0047294134 0.036889426 2.2334116 234 88 12
0.012632346 0.044787407 2.1270926 234 88 12
0.015149071 0.045447212 2.1182106 234 88 12
0.022907995 0.047021672 2.0970159 234 88 12
-0.0011767203 0.043538649 2.112222 234 88 12
0.0011189183 0.041399974 2.1425679 234 88 12
-0.0033896999 0.039546497 2.1368024 234 88 12
0.008054805 0.040274024 2.1258895 234 88 12
0.020133864 0.041452073 2.1082189 234 88 12
0.022502555 0.041452073 2.1082189 234 88 12
-0.060834251 0.029963139 2.2533138 234 88 12
-0.051754512 0.029963139 2.2533138 234 88 12
-0.04256472 0.031214129 2.2334116 234 88 12
-0.040672954 0.031214129 2.2334116 234 88 12
-0.031214129 0.031214129 2.2334116 234 88 12
-0.019863537 0.031214129 2.2334116 234 88 12
-0.01040471 0.031214129 2.2334116 234 88 12
0.008512944 0.031214129 2.2334116 234 88 12
0.013955064 0.041865192 2.0639629 234 88 12
0.012296475 0.031214129 2.2334116 234 88 12
0.021755302 0.031214129 2.2334116 234 88 12
0.033105895 0.031214129 2.2334116 234 88 12
0.04256472 0.031214129 2.2334116 234 88 12
0.053915314 0.031214129 2.2334116 234 88 12
0.063374139 0.031214129 2.2334116 234 88 12
0.068098046 0.029963139 2.2533138 234 88 12
-0.005451892 0.033801731 2.1575513 234 88 12
-0.040858824 0.022699347 2.2533138 234 88 12
-0.057202354 0.0208834 2.2533138 234 88 12
-0.051754512 0.0208834 2.2533138 234 88 12
-0.040858824 0.0208834 2.2533138 234 88 12
0.069913991 0.0208834 2.2533138 234 88 12
-0.040672954 0.019863537 2.2334116 234 88 12
-0.031214129 0.019863537 2.2334116 234 88 12
-0.019863537 0.019863537 2.2334116 234 88 12
-0.01040471 0.019863537 2.2334116 234 88 12
0.0009458827 0.019863537 2.2334116 234 88 12
0.012296475 0.019863537 2.2334116 234 88 12
0.021755302 0.019863537 2.2334116 234 88 12
0.033105895 0.019863537 2.2334116 234 88 12
0.04256472 0.019863537 2.2334116 234 88 12
0.053915314 0.019863537 2.2334116 234 88 12
0.063374139 0.019863537 2.2334116 234 88 12
-0.035189509 0.0098069124 2.4271395 234 88 12
-0.051754512 0.0099877128 2.2533138 234 88 12
-0.040858824 0.0099877128 2.2533138 234 88 12
-0.038781188 0.01040471 2.2334116 234 88 12
-0.031214129 0.01040471 2.2334116 234 88 12
-0.019863537 0.01040471 2.2334116 234 88 12
-0.01040471 0.01040471 2.2334116 234 88 12
0.0009458827 0.01040471 2.2334116 234 88 12
0.012296475 0.01040471 2.2334116 234 88 12
0.021755302 0.01040471 2.2334116 234 88 12
0.033105895 0.01040471 2.2334116 234 88 12
0.04256472 0.01040471 2.2334116 234 88 12
0.053915314 0.01040471 2.2334116 234 88 12
0.063374139 0.01040471 2.2334116 234 88 12
0.069913991 0.0099877128 2.2533138 234 88 12
-0.030574491 0.00057687721 2.4271395 234 88 12
-0.031728245 -0.00057687721 2.4271395 234 88 12
-0.030574491 -0.00057687721 2.4271395 234 88 12
-0.04630667 -0.00090797391 2.2533138 234 88 12
-0.040858824 -0.00090797391 2.2533138 234 88 12
-0.034997661 -0.0009458827 2.2334116 234 88 12
-0.031214129 -0.0009458827 2.2334116 234 88 12
-0.019863537 -0.0009458827 2.2334116 234 88 12
-0.01040471 -0.0009458827 2.2334116 234 88 12
0.0009458827 -0.0009458827 2.2334116 234 88 12
0.012296475 -0.0009458827 2.2334116 234 88 12
0.021755302 -0.0009458827 2.2334116 234 88 12
0.033105895 -0.0009458827 2.2334116 234 88 12
0.04256472 -0.0009458827 2.2334116 234 88 12
0.053915314 -0.0009458827 2.2334116 234 88 12
0.063374139 -0.0009458827 2.2334116 234 88 12
0.068098046 -0.00090797391 2.2533138 234 88 12
-0.029963139 -0.0099877128 2.2533138 234 88 12
-0.039042879 -0.011803661 2.2533138 234 88 12
-0.029963139 -0.011803661 2.2533138 234 88 12
-0.027430598 -0.012296475 2.2334116 234 88 12
-0.019863537 -0.012296475 2.2334116 234 88 12
-0.01040471 -0.012296475 2.2334116 234 88 12
0.0009458827 -0.012296475 2.2334116 234 88 12
0.012296475 -0.012296475 2.2334116 234 88 12
0.021755302 -0.012296475 2.2334116 234 88 12
0.033105895 -0.012296475 2.2334116 234 88 12
0.04256472 -0.012296475 2.2334116 234 88 12
0.053915314 -0.012296475 2.2334116 234 88 12
0.063374139 -0.012296475 2.2334116 234 88 12
0.064466149 -0.011803661 2.2533138 234 88 12
0.062650196 -0.015435556 2.2533138 234 88 12
-0.032882001 -0.010960666 2.4271395 234 88 12
-0.030574491 -0.010960666 2.4271395 234 88 12
-0.0208834 -0.0208834 2.2533138 234 88 12
-0.019863537 -0.021755302 2.2334116 234 88 12
-0.01040471 -0.021755302 2.2334116 234 88 12
0.0009458827 -0.021755302 2.2334116 234 88 12
0.012296475 -0.021755302 2.2334116 234 88 12
0.021755302 -0.021755302 2.2334116 234 88 12
0.033105895 -0.021755302 2.2334116 234 88 12
0.04256472 -0.021755302 2.2334116 234 88 12
0.053915314 -0.021755302 2.2334116 234 88 12
-0.031779088 -0.022699347 2.2533138 234 88 12
-0.029963139 -0.022699347 2.2533138 234 88 12
-0.0208834 -0.022699347 2.2533138 234 88 12
0.059018303 -0.022699347 2.2533138 234 88 12
0.064466149 -0.022699347 2.2533138 234 88 12
-0.020190703 -0.015575685 2.4271395 234 88 12
-0.022699347 -0.031779088 2.2533138 234 88 12
-0.0208834 -0.031779088 2.2533138 234 88 12
-0.0099877128 -0.031779088 2.2533138 234 88 12
-0.008512944 -0.033105895 2.2334116 234 88 12
0.0009458827 -0.033105895 2.2334116 234 88 12
0.012296475 -0.033105895 2.2334116 234 88 12
0.021755302 -0.033105895 2.2334116 234 88 12
0.033105895 -0.033105895 2.2334116 234 88 12
0.04256472 -0.033105895 2.2334116 234 88 12
0.051754512 -0.031779088 2.2533138 234 88 12
0.053570461 -0.031779088 2.2533138 234 88 12
0.064466149 -0.031779088 2.2533138 234 88 12
-0.035189509 -0.021344457 2.4271395 234 88 12
-0.030574491 -0.021344457 2.4271395 234 88 12
-0.020190703 -0.021344457 2.4271395 234 88 12
0.00090797391 -0.03722693 2.2533138 234 88 12
0.039042879 -0.039042879 2.2533138 234 88 12
-0.0098069124 -0.025959473 2.4271395 234 88 12
0.011803661 -0.040858824 2.2533138 234 88 12
0.01418824 -0.04256472 2.2334116 234 88 12
0.021755302 -0.04256472 2.2334116 234 88 12
0.033105895 -0.04256472 2.2334116 234 88 12
-0.011803661 -0.042674772 2.2533138 234 88 12
-0.0099877128 -0.042674772 2.2533138 234 88 12
0.00090797391 -0.042674772 2.2533138 234 88 12
0.011803661 -0.042674772 2.2533138 234 88 12
0.022699347 -0.042674772 2.2533138 234 88 12
0.031779088 -0.042674772 2.2533138 234 88 12
0.042674772 -0.042674772 2.2533138 234 88 12
0.053570461 -0.042674772 2.2533138 234 88 12
0.064466149 -0.042674772 2.2533138 234 88 12
-0.038650773 -0.031728245 2.4271395 234 88 12
-0.030574491 -0.031728245 2.4271395 234 88 12
-0.020190703 -0.031728245 2.4271395 234 88 12
0.0045398697 -0.053570461 2.2533138 234 88 12
0.011803661 -0.053570461 2.2533138 234 88 12
0.022699347 -0.053570461 2.2533138 234 88 12
0.031779088 -0.053570461 2.2533138 234 88 12
0.042674772 -0.053570461 2.2533138 234 88 12
0.053570461 -0.053570461 2.2533138 234 88 12
0.064466149 -0.053570461 2.2533138 234 88 12
0.028147191 -0.064466149 2.2533138 234 88 12
0.031779088 -0.064466149 2.2533138 234 88 12
0.042674772 -0.064466149 2.2533138 234 88 12
0.053570461 -0.064466149 2.2533138 234 88 12
-0.040958282 -0.042112034 2.4271395 234 88 12
-1.3335186 0.077861369 1.796174 234 88 12
-1.333765 0.072191432 1.796174 234 88 12
-1.3341759 0.062741533 1.796174 234 88 12
-1.334669 0.051401652 1.796174 234 88 12
-1.335162 0.040061772 1.796174 234 88 12
-1.3355728 0.030611875 1.796174 234 88 12
-1.3346958 0.08738032 1.7951484 234 88 12
-1.337654 0.019341044 1.7951484 234 88 12
-1.3359553 0.095009282 1.7941227 234 88 12
-1.3392421 0.019410092 1.7941227 234 88 12
-1.339653 0.0099601923 1.7941227 234 88 12
-1.3391868 0.057278737 1.7930971 234 88 12
-1.3394333 0.051608797 1.7930971 234 88 12
-1.3399264 0.040268917 1.7930971 234 88 12
-1.3403372 0.030819019 1.7930971 234 88 12
-1.3386384 0.10648726 1.7920715 234 88 12
-1.3392136 0.093257405 1.7920715 234 88 12
-1.3397067 0.081917524 1.7920715 234 88 12
-1.3401176 0.072467625 1.7920715 234 88 12
-1.3433223 -0.0012415904 1.7920715 234 88 12
-1.3400621 0.11033627 1.7910458 234 88 12
-1.3403908 0.10277635 1.7910458 234 88 12
-1.3429097 0.11803428 1.7889946 234 88 12
-1.3430741 0.11425433 1.7889946 234 88 12
-1.343567 0.10291445 1.7889946 234 88 12
-1.3439779 0.093464546 1.7889946 234 88 12
-1.344471 0.082124665 1.7889946 234 88 12
-1.3448819 0.072674766 1.7889946 234 88 12
-1.3453748 0.061334889 1.7889946 234 88 12
-1.3457857 0.05188499 1.7889946 234 88 12
-1.3462788 0.04054511 1.7889946 234 88 12
-1.3466897 0.031095212 1.7889946 234 88 12
-1.3471826 0.019755332 1.7889946 234 88 12
-1.3475935 0.010305434 1.7889946 234 88 12
-1.3480866 -0.0010344458 1.7889946 234 88 12
-1.3496747 -0.00096539769 1.787969 234 88 12
-1.3457572 0.1257323 1.7869433 234 88 12
-1.3497015 0.035013266 1.7869433 234 88 12
-1.3498659 0.031233307 1.7869433 234 88 12
-1.3503588 0.019893428 1.7869433 234 88 12
-1.3507698 0.010443529 1.7869433 234 88 12
-1.3496462 0.072881915 1.7859176 234 88 12
-1.3501393 0.061542034 1.7859176 234 88 12
-1.3505501 0.052092135 1.7859176 234 88 12
-1.349673 0.10886057 1.7848921 234 88 12
-1.3499196 0.10319064 1.7848921 234 88 12
-1.3503304 0.093740739 1.7848921 234 88 12
-1.3508234 0.082400858 1.7848921 234 88 12
-1.3581566 0.030876504 1.8052943 234 88 12
-1.3586299 0.019991102 1.8052943 234 88 12
-1.3500285 0.13727932 1.7838664 234 88 12
-1.3501107 0.13538934 1.7838664 234 88 12
-1.3506037 0.12404946 1.7838664 234 88 12
-1.3593656 0.038199719 1.8043097 234 88 12
-1.3601544 0.020057382 1.8043097 234 88 12
-1.3565202 -0.012029084 1.7838664 234 88 12
-1.3606534 0.043708704 1.8033252 234 88 12
-1.3608111 0.040080234 1.8033252 234 88 12
-1.3612056 0.031009067 1.8033252 234 88 12
-1.3621521 0.0092382608 1.8033252 234 88 12
-1.3517256 0.17143705 1.7818152 234 88 12
-1.3519721 0.16576712 1.7818152 234 88 12
-1.352383 0.15631722 1.7818152 234 88 12
-1.3527385 0.18473597 1.7807895 234 88 12
-1.3606271 0.0032978992 1.7807895 234 88 12
-1.3607914 -0.00048206048 1.7807895 234 88 12
-1.3612845 -0.01182194 1.7807895 234 88 12
-1.3541622 0.18858497 1.7797639 234 88 12
-1.3646746 0.056607183 1.8003716 234 88 12
-1.3601055 0.088485092 1.7787383 234 88 12
-1.360352 0.082815148 1.7787383 234 88 12
-1.3608451 0.071475267 1.7787383 234 88 12
-1.361256 0.062025372 1.7787383 234 88 12
-1.3661202 0.058487698 1.7993871 234 88 12
-1.3664356 0.051230762 1.7993871 234 88 12
-1.366909 0.04034536 1.7993871 234 88 12
-1.3673034 0.031274188 1.7993871 234 88 12
-1.3677766 0.020388788 1.7993871 234 88 12
-1.3682499 0.0095033841 1.7993871 234 88 12
-1.3572563 0.19061305 1.7777126 234 88 12
-1.3574207 0.18683308 1.7777126 234 88 12
-1.3578315 0.17738318 1.7777126 234 88 12
-1.3583245 0.16604331 1.7777126 234 88 12
-1.3587354 0.15659341 1.7777126 234 88 12
-1.3592285 0.14525354 1.7777126 234 88 12
-1.3596393 0.13580364 1.7777126 234 88 12
-1.3601323 0.12446375 1.7777126 234 88 12
-1.3605433 0.11501385 1.7777126 234 88 12
-1.3610363 0.10367397 1.7777126 234 88 12
-1.3615294 0.092334099 1.7777126 234 88 12
-1.3619401 0.0828842 1.7777126 234 88 12
-1.3624332 0.071544319 1.7777126 234 88 12
-1.3654736 0.0016150639 1.7777126 234 88 12
-1.3655558 -0.00027491595 1.7777126 234 88 12
-1.3660488 -0.011614795 1.7777126 234 88 12
-1.3601592 0.16044241 1.776687 234 88 12
-1.3603235 0.15666246 1.776687 234 88 12
-1.3608166 0.14532258 1.776687 234 88 12
-1.3612274 0.13587268 1.776687 234 88 12
-1.3688536 0.065877192 1.797418 234 88 12
-1.3705889 0.02596405 1.797418 234 88 12
-1.3708255 0.020521348 1.797418 234 88 12
-1.3712988 0.0096359458 1.797418 234 88 12
-1.3604325 0.19075115 1.7756613 234 88 12
-1.3605969 0.18697119 1.7756613 234 88 12
-1.3610077 0.17752129 1.7756613 234 88 12
-1.3706146 0.060500775 1.7964334 234 88 12
-1.3710091 0.051429603 1.7964334 234 88 12
-1.3714824 0.040544201 1.7964334 234 88 12
-1.4079862 0.13108487 1.9772326 234 88 12
-1.4082367 0.12532155 1.9772326 234 88 12
-1.3681163 0.15309298 1.795449 234 88 12
-1.3716658 0.071452461 1.795449 234 88 12
-1.3705666 -0.0057377107 1.7746357 234 88 12
-1.3708131 -0.01140765 1.7746357 234 88 12
-1.3730326 0.075147204 1.7944645 234 88 12
-1.3718261 0.0018912567 1.7736101 234 88 12
-1.4106249 0.11503178 1.9759816 234 88 12
-1.3717173 0.14052591 1.7934799 234 88 12
-1.3734784 0.13514948 1.7924954 234 88 12
-1.3705649 0.10408826 1.7715589 234 88 12
-1.371058 0.092748389 1.7715589 234 88 12
-1.3714688 0.083298489 1.7715589 234 88 12
-1.4124117 0.118574 1.9747306 234 88 12
-1.4126121 0.11396334 1.9747306 234 88 12
-1.3710848 0.12872705 1.7705332 234 88 12
-1.3712491 0.12494709 1.7705332 234 88 12
-1.3717421 0.11360721 1.7705332 234 88 12
-1.3772116 0.084417216 1.7915108 234 88 12
-1.3706186 0.1760456 1.7695075 234 88 12
-1.4128791 0.13014276 1.974105 234 88 12
-1.3770007 0.12439664 1.7905264 234 88 12
-1.3810235 0.031870719 1.7905264 234 88 12
-1.3811024 0.030056484 1.7905264 234 88 12
-1.3815757 0.019171081 1.7905264 234 88 12
-1.38197 0.010099912 1.7905264 234 88 12
-1.3717958 0.18556455 1.768482 234 88 12
-1.376632 0.16800454 1.7895418 234 88 12
-1.4150003 0.10367357 1.9734795 234 88 12
-1.3789984 0.11357752 1.7895418 234 88 12
-1.3797083 0.097249418 1.7895418 234 88 12
-1.3810493 0.066407442 1.7895418 234 88 12
-1.3812859 0.060964741 1.7895418 234 88 12
-1.3816803 0.05189357 1.7895418 234 88 12
-1.3733839 0.18563358 1.7674563 234 88 12
-1.3737948 0.17618369 1.7674563 234 88 12
-1.3802862 0.1190865 1.7885573 234 88 12
-1.3805228 0.1136438 1.7885573 234 88 12
-1.3809172 0.10457263 1.7885573 234 88 12
-1.381075 0.10094417 1.7885573 234 88 12
-1.3813906 0.093687229 1.7885573 234 88 12
-1.3818638 0.082801826 1.7885573 234 88 12
-1.3823371 0.071916424 1.7885573 234 88 12
-1.3828104 0.061031021 1.7885573 234 88 12
-1.3832047 0.051959854 1.7885573 234 88 12
-1.3836781 0.041074447 1.7885573 234 88 12
-1.3841513 0.030189047 1.7885573 234 88 12
-1.3846246 0.019303642 1.7885573 234 88 12
-1.3850189 0.010232474 1.7885573 234 88 12
-1.3811903 0.0060855052 1.7674563 234 88 12
-1.3815191 -0.001474414 1.7674563 234 88 12
-1.3819299 -0.010924313 1.7674563 234 88 12
-1.3819684 0.11552431 1.7875727 234 88 12
-1.3820473 0.11371008 1.7875727 234 88 12
-1.3829665 0.16282696 1.7856036 234 88 12
-1.4193256 0.093468025 1.9709774 234 88 12
-1.380558 0.16700998 1.7633538 234 88 12
-1.3815709 0.18030889 1.7623281 234 88 12
-1.3817353 0.17652893 1.7623281 234 88 12
-1.3821461 0.16707903 1.7623281 234 88 12
-1.391537 0.035963152 1.7836347 234 88 12
-1.3917736 0.03052045 1.7836347 234 88 12
-1.3922468 0.019635048 1.7836347 234 88 12
-1.3914838 0.072314106 1.7826501 234 88 12
-1.3919572 0.061428707 1.7826501 234 88 12
-1.3924304 0.050543305 1.7826501 234 88 12
-1.3893799 0.15583515 1.7816656 234 88 12
-1.4228991 0.10055246 1.9684755 234 88 12
-1.4231998 0.093636476 1.9684755 234 88 12
-1.3920617 0.094151199 1.7816656 234 88 12
-1.392535 0.083265796 1.7816656 234 88 12
-1.3920605 0.012238782 1.7602769 234 88 12
-1.3921428 0.010348802 1.7602769 234 88 12
-1.3926358 -0.00099107681 1.7602769 234 88 12
-1.4230157 0.12018989 1.9678499 234 88 12
-1.4232663 0.11442656 1.9678499 234 88 12
-1.4246194 0.083304591 1.9678499 234 88 12
-1.3925865 0.15233923 1.7796966 234 88 12
-1.3896759 0.17687418 1.7572 234 88 12
-1.3901689 0.16553429 1.7572 234 88 12
-1.425053 0.11796878 1.9665989 234 88 12
-1.4252034 0.11451078 1.9665989 234 88 12
-1.4256544 0.10413679 1.9665989 234 88 12
-1.4261055 0.093762808 1.9665989 234 88 12
-1.4265565 0.08338882 1.9665989 234 88 12
-1.3967427 0.014335906 1.7572 234 88 12
-1.3969892 0.0086659668 1.7572 234 88 12
-1.3974001 -0.00078393228 1.7572 234 88 12
-1.3915105 0.17127328 1.7561743 234 88 12
-1.391757 0.16560334 1.7561743 234 88 12
-1.3921678 0.15615344 1.7561743 234 88 12
-1.3957143 0.15065756 1.7777275 234 88 12
-1.3987906 0.079902448 1.7777275 234 88 12
-1.3991061 0.072645515 1.7777275 234 88 12
-1.3995794 0.061760113 1.7777275 234 88 12
-1.4000527 0.050874706 1.7777275 234 88 12
-1.4004471 0.041803539 1.7777275 234 88 12
-1.4009204 0.030918136 1.7777275 234 88 12
-1.4013937 0.020032732 1.7777275 234 88 12
-1.3974754 0.14528115 1.7767429 234 88 12
-1.4019716 0.041869819 1.7767429 234 88 12
-1.4020505 0.040055584 1.7767429 234 88 12
-1.4024448 0.030984417 1.7767429 234 88 12
-1.4029181 0.020099014 1.7767429 234 88 12
-1.4299133 0.073141165 1.9647223 234 88 12
-1.4020761 0.074592307 1.7757584 234 88 12
-1.402155 0.072778076 1.7757584 234 88 12
-1.4026283 0.061892673 1.7757584 234 88 12
-1.4020001 0.003203172 1.7541231 234 88 12
-1.4021645 -0.00057678774 1.7541231 234 88 12
-1.4029309 0.018392058 1.7530974 234 88 12
-1.4020488 0.14547999 1.7737894 234 88 12
-1.401943 0.15089779 1.7500205 234 88 12
-1.405571 0.13472715 1.7718203 234 88 12
-1.4333364 0.083683595 1.9622203 234 88 12
-1.4338377 0.072156943 1.9622203 234 88 12
-1.4075308 0.022379164 1.7500205 234 88 12
-1.4025451 0.1736466 1.7489949 234 88 12
-1.4028738 0.16608667 1.7489949 234 88 12
-1.3910655 0.14845139 1.6530014 234 88 12
-1.3927333 0.14475761 1.6645074 234 88 12
-1.4333528 0.10562635 1.9615947 234 88 12
-1.4334029 0.10447369 1.9615947 234 88 12
-1.433854 0.094099693 1.9615947 234 88 12
-1.4352572 0.061825063 1.9615947 234 88 12
-1.3944727 0.14702035 1.6633227 234 88 12
-1.3916355 0.14764482 1.6413419 234 88 12
-1.4124061 0.047776487 1.7698512 234 88 12
-1.4127216 0.04051955 1.7698512 234 88 12
-1.4131949 0.02963415 1.7698512 234 88 12
-1.4057213 0.17378469 1.7469437 234 88 12
-1.40605 0.16622478 1.7469437 234 88 12
-1.4064609 0.15677488 1.7469437 234 88 12
-1.3784132 0.16762482 1.5257884 234 88 12
-1.3982823 0.14511459 1.6772872 234 88 12
-1.3899145 0.15127361 1.612326 234 88 12
-1.3951756 0.14399517 1.6519811 234 88 12
-1.4136939 0.053285468 1.7688668 234 88 12
-1.412213 0.024476288 1.7469437 234 88 12
-1.4123772 0.020696327 1.7469437 234 88 12
-1.4124595 0.018806348 1.7469437 234 88 12
-1.4128703 0.0093564484 1.7469437 234 88 12
-1.4113533 0.14224921 1.7678822 234 88 12
-1.3911493 0.1543752 1.6060042 234 88 12
-1.4022459 0.1409747 1.6925007 234 88 12
-1.3974953 0.14151628 1.6536119 234 88 12
-1.4010648 0.1340638 1.680312 234 88 12
-1.4153762 0.049723282 1.7678822 234 88 12
-1.4157705 0.040652115 1.7678822 234 88 12
-1.4162439 0.02976671 1.7678822 234 88 12
-1.4138011 0.024545336 1.745918 234 88 12
-1.2962652 -1.217342 1.3681839 234 88 12
-1.2985133 -1.2169148 1.3667977 234 88 12
-1.2904872 -1.2249409 1.3667977 234 88 12
-1.2981417 -1.2245693 1.3612534 234 88 12
-1.3057405 -1.2187912 1.3598673 234 88 12
-1.3003898 -1.224142 1.3598673 234 88 12
-1.2963767 -1.228155 1.3598673 234 88 12
-1.2896882 -1.2348434 1.3598673 234 88 12
-1.3079885 -1.2183639 1.3584812 234 88 12
-1.3462715 -1.301401 1.5507838 234 88 12
-1.3089546 -1.2246808 1.3529369 234 88 12
-1.2982532 -1.2353822 1.3529369 234 88 12
-1.2875516 -1.2460836 1.3529369 234 88 12
-1.348753 -1.3022509 1.5482477 234 88 12
-1.286697 -1.2505797 1.3501647 234 88 12
-1.3170364 -1.2220612 1.3487786 234 88 12
-1.3143611 -1.2247365 1.3487786 234 88 12
-1.2983088 -1.2407886 1.3487786 234 88 12
-1.2969712 -1.2421263 1.3487786 234 88 12
-1.2929581 -1.2461394 1.3487786 234 88 12
-1.2862698 -1.2528278 1.3487786 234 88 12
-1.3192844 -1.2216338 1.3473924 234 88 12
-1.3141079 -1.2383479 1.3678532 234 88 12
-1.3498634 -1.3033613 1.5465569 234 88 12
-1.3449684 -1.3082563 1.5465569 234 88 12
-1.2974542 -1.2452847 1.3460064 234 88 12
-1.2867528 -1.2559862 1.3460064 234 88 12
-1.3197675 -1.2247922 1.3446203 234 88 12
-1.2890009 -1.2555588 1.3446203 234 88 12
0.10266393 -1.2942536 1.8207892 234 88 12
0.10644389 -1.2940892 1.8207892 234 88 12
0.097063042 -1.2960882 1.8197635 234 88 12
0.10462296 -1.2957594 1.8197635 234 88 12
0.093352132 -1.2978406 1.8187379 234 88 12
0.095242105 -1.2977585 1.8187379 234 88 12
0.104692 -1.2973475 1.8187379 234 88 12
0.0029092892 -1.3081374 1.8146354 234 88 12
0.010469208 -1.3078086 1.8146354 234 88 12
0.012359189 -1.3077265 1.8146354 234 88 12
0.021809088 -1.3073156 1.8146354 234 88 12
0.080398463 -1.3047683 1.8146354 234 88 12
-0.0026916021 -1.309972 1.8136097 234 88 12
0.021878136 -1.3089037 1.8136097 234 88 12
0.033218015 -1.3084108 1.8136097 234 88 12
0.042736962 -1.309588 1.8125842 234 88 12
0.07108666 -1.3083553 1.8125842 234 88 12
0.074866623 -1.3081911 1.8125842 234 88 12
0.084316522 -1.3077801 1.8125842 234 88 12
0.083420143 -1.3741541 2.0003767 234 88 12
0.084572807 -1.374104 2.0003767 234 88 12
0.054145891 -1.310683 1.8115585 234 88 12
0.10328536 -1.3085465 1.8115585 234 88 12
0.10517535 -1.3084644 1.8115585 234 88 12
0.0890892 -1.3174421 1.8299074 234 88 12
-0.009975329 -1.3166531 1.8095073 234 88 12
0.0013645503 -1.3161601 1.8095073 234 88 12
0.01081445 -1.3157492 1.8095073 234 88 12
0.022154329 -1.3152562 1.8095073 234 88 12
0.031604227 -1.3148453 1.8095073 234 88 12
0.042944107 -1.3143523 1.8095073 234 88 12
0.052394006 -1.3139414 1.8095073 234 88 12
0.063733883 -1.3134484 1.8095073 234 88 12
0.075073764 -1.3129554 1.8095073 234 88 12
0.084523663 -1.3125445 1.8095073 234 88 12
0.10342346 -1.3117228 1.8095073 234 88 12
0.10531344 -1.3116406 1.8095073 234 88 12
-0.01179626 -1.3183234 1.8084816 234 88 12
-0.0099062808 -1.3182412 1.8084816 234 88 12
0.077825256 -1.3782789 1.9978746 234 88 12
0.08474125 -1.3779782 1.9978746 234 88 12
0.0015026466 -1.3193363 1.807456 234 88 12
0.007647519 -1.325565 1.8269539 234 88 12
0.011275987 -1.3254073 1.8269539 234 88 12
0.014732505 -1.3187611 1.807456 234 88 12
0.022292424 -1.3184325 1.807456 234 88 12
0.031811371 -1.3196096 1.8064303 234 88 12
0.043151252 -1.3191166 1.8064303 234 88 12
0.052601151 -1.3187057 1.8064303 234 88 12
0.0023373794 -1.3288506 1.8249848 234 88 12
0.022293951 -1.3279829 1.8249848 234 88 12
0.064010076 -1.3198009 1.8054047 234 88 12
0.073459975 -1.3193899 1.8054047 234 88 12
0.074493594 -1.3813349 1.995998 234 88 12
0.011474829 -1.3299806 1.8240002 234 88 12
0.022360232 -1.3295074 1.8240002 234 88 12
0.076787248 -1.3271409 1.8240002 234 88 12
0.083757028 -1.3819026 1.9953725 234 88 12
0.10037228 -1.3261156 1.8240002 234 88 12
0.1037687 -1.3196633 1.8043791 234 88 12
0.10565868 -1.3195812 1.8043791 234 88 12
-0.0011585265 -1.3320572 1.8230157 234 88 12
0.031497683 -1.3306375 1.8230157 234 88 12
0.075039297 -1.3287443 1.8230157 234 88 12
0.072314598 -1.3843409 1.9941216 234 88 12
-0.015092883 -1.3296045 1.8013022 234 88 12
-0.009422943 -1.329358 1.8013022 234 88 12
0.071543388 -1.331951 1.8210467 234 88 12
0.098756894 -1.3307678 1.8210467 234 88 12
-0.0027739177 -1.3367095 1.8200622 234 88 12
0.00085454999 -1.3365518 1.8200622 234 88 12
0.011739953 -1.3360785 1.8200622 234 88 12
0.022625357 -1.3356053 1.8200622 234 88 12
0.031696524 -1.3352108 1.8200622 234 88 12
0.039785579 -1.3288096 1.8002765 234 88 12
0.069795437 -1.3335544 1.8200622 234 88 12
-0.014954787 -1.3327807 1.7992508 234 88 12
-0.0092848474 -1.3325342 1.7992508 234 88 12
0.042648207 -1.336262 1.8190776 234 88 12
0.04363459 -1.3302333 1.7992508 234 88 12
0.053084489 -1.3298225 1.7992508 234 88 12
0.064424366 -1.3293295 1.7992508 234 88 12
0.10033398 -1.3277682 1.7992508 234 88 12
0.10600393 -1.3275217 1.7992508 234 88 12
-0.0026413559 -1.3397585 1.8180931 234 88 12
0.00098711171 -1.3396007 1.8180931 234 88 12
0.062671065 -1.3369188 1.8180931 234 88 12
0.097141504 -1.33542 1.8180931 234 88 12
0.10040303 -1.3293563 1.7982253 234 88 12
0.10607297 -1.3291098 1.7982253 234 88 12
0.11552287 -1.3286989 1.7982253 234 88 12
0.011938795 -1.3406519 1.8171085 234 88 12
0.021009965 -1.3402575 1.8171085 234 88 12
0.031895369 -1.3397841 1.8171085 234 88 12
0.042780772 -1.3393109 1.8171085 234 88 12
0.11559192 -1.330287 1.7971996 234 88 12
0.053732455 -1.3403621 1.8161241 234 88 12
0.062803626 -1.3399677 1.8161241 234 88 12
0.095526114 -1.3400723 1.8151395 234 88 12
-0.014609545 -1.3407212 1.7941227 234 88 12
-0.0089396061 -1.3404747 1.7941227 234 88 12
0.064582832 -1.3924401 1.9891174 234 88 12
0.073804155 -1.3920392 1.9891174 234 88 12
0.093844444 -1.3432001 1.8131704 234 88 12
-0.0021773898 -1.3504297 1.8112015 234 88 12
0.001451078 -1.3502719 1.8112015 234 88 12
0.010522247 -1.3498775 1.8112015 234 88 12
0.062403832 -1.3954461 1.9872409 234 88 12
0.0635565 -1.3953959 1.9872409 234 88 12
0.073930487 -1.3949449 1.9872409 234 88 12
0.097106412 -1.3406373 1.7910458 234 88 12
0.10466633 -1.3403087 1.7910458 234 88 12
0.11600621 -1.3398156 1.7910458 234 88 12
0.021473931 -1.3509287 1.8102169 234 88 12
0.032359336 -1.3504554 1.8102169 234 88 12
0.043244738 -1.3499821 1.8102169 234 88 12
-0.014264305 -1.3486618 1.7889946 234 88 12
-0.0085943649 -1.3484153 1.7889946 234 88 12
-0.00023059413 -1.3533998 1.8092324 234 88 12
0.0015836396 -1.3533208 1.8092324 234 88 12
0.010654809 -1.3529265 1.8092324 234 88 12
0.021540212 -1.3524531 1.8092324 234 88 12
0.032425616 -1.3519799 1.8092324 234 88 12
0.043311018 -1.3515066 1.8092324 234 88 12
0.052382186 -1.3511122 1.8092324 234 88 12
0.092295334 -1.3493768 1.8092324 234 88 12
0.095354527 -1.3438958 1.7889946 234 88 12
0.10480443 -1.3434849 1.7889946 234 88 12
0.11614431 -1.3429918 1.7889946 234 88 12
-0.012305276 -1.3501678 1.787969 234 88 12
-0.010415297 -1.3500856 1.787969 234 88 12
0.090547375 -1.3509802 1.8082478 234 88 12
0.093602642 -1.3471541 1.7869433 234 88 12
0.093740739 -1.3503304 1.7848921 234 88 12
0.09563072 -1.3502482 1.7848921 234 88 12
0.10508062 -1.3498373 1.7848921 234 88 12
0.12587039 -1.3489335 1.7848921 234 88 12
0.0019150442 -1.3609432 1.8043097 234 88 12
0.010986214 -1.3605487 1.8043097 234 88 12
0.056935284 -1.4024765 1.9828622 234 88 12
0.063851275 -1.4021758 1.9828622 234 88 12
0.11648954 -1.3509324 1.7838664 234 88 12
0.12593944 -1.3505216 1.7838664 234 88 12
0.021937897 -1.3615999 1.8033252 234 88 12
0.032823302 -1.3611267 1.8033252 234 88 12
0.041894469 -1.3607322 1.8033252 234 88 12
0.07426738 -1.4026934 1.9822367 234 88 12
0.087316595 -1.3602847 1.8023406 234 88 12
-0.0099319592 -1.3612024 1.7807895 234 88 12
0.0040606824 -1.3684865 1.7993871 234 88 12
0.011317618 -1.3681711 1.7993871 234 88 12
0.022203021 -1.3676977 1.7993871 234 88 12
0.033088423 -1.3672245 1.7993871 234 88 12
0.042159595 -1.3668301 1.7993871 234 88 12
0.083886974 -1.3650159 1.7993871 234 88 12
-0.0097248154 -1.3659667 1.7777126 234 88 12
0.092334099 -1.3615294 1.7777126 234 88 12
0.094224073 -1.3614471 1.7777126 234 88 12
0.10556395 -1.360954 1.7777126 234 88 12
0.11690383 -1.360461 1.7777126 234 88 12
0.12635374 -1.3600502 1.7777126 234 88 12
0.0016841121 -1.3670617 1.776687 234 88 12
0.0060074781 -1.3714566 1.797418 234 88 12
0.01145018 -1.37122 1.797418 234 88 12
0.022335583 -1.3707467 1.797418 234 88 12
0.051466737 -1.409507 1.9784837 234 88 12
0.082205296 -1.3681437 1.797418 234 88 12
0.12642278 -1.3616383 1.776687 234 88 12
0.031473033 -1.3718767 1.7964334 234 88 12
0.042358436 -1.3714035 1.7964334 234 88 12
-0.0076276907 -1.3706487 1.7746357 234 88 12
0.050398294 -1.4114943 1.9772326 234 88 12
0.052703626 -1.411394 1.9772326 234 88 12
0.063077614 -1.410943 1.9772326 234 88 12
0.073451601 -1.4104919 1.9772326 234 88 12
0.080523625 -1.3712715 1.795449 234 88 12
0.084152095 -1.3711137 1.795449 234 88 12
1.2767624e-06 -1.3719082 1.7736101 234 88 12
0.04928774 -1.4125129 1.9766071 234 88 12
0.13607982 -1.3659917 1.7736101 234 88 12
0.052787848 -1.4133312 1.9759816 234 88 12
0.063161835 -1.4128801 1.9759816 234 88 12
0.092748389 -1.371058 1.7715589 234 88 12
0.094638363 -1.3709757 1.7715589 234 88 12
0.1060473 -1.3720708 1.7705332 234 88 12
0.11549719 -1.37166 1.7705332 234 88 12
0.12683707 -1.3711669 1.7705332 234 88 12
0.13628697 -1.370756 1.7705332 234 88 12
0.010099912 -1.38197 1.7905264 234 88 12
0.011914146 -1.3818911 1.7905264 234 88 12
0.020985315 -1.3814968 1.7905264 234 88 12
0.031870719 -1.3810235 1.7905264 234 88 12
-0.0052543739 -1.3816833 1.7674563 234 88 12
0.00041556582 -1.3814368 1.7674563 234 88 12
0.012046708 -1.3849401 1.7885573 234 88 12
0.021117877 -1.3845457 1.7885573 234 88 12
0.03200328 -1.3840724 1.7885573 234 88 12
0.073730655 -1.3822582 1.7885573 234 88 12
0.084616058 -1.3817849 1.7885573 234 88 12
0.094914556 -1.3773282 1.7674563 234 88 12
0.10625444 -1.3768352 1.7674563 234 88 12
0.11570434 -1.3764243 1.7674563 234 88 12
0.12704422 -1.3759313 1.7674563 234 88 12
0.13649411 -1.3755203 1.7674563 234 88 12
0.072048984 -1.385386 1.7865882 234 88 12
0.097011685 -1.3820103 1.7643794 234 88 12
0.10646158 -1.3815995 1.7643794 234 88 12
0.11591148 -1.3811886 1.7643794 234 88 12
0.095766589 -1.3874094 1.7846192 234 88 12
0.12732041 -1.3822837 1.7633538 234 88 12
0.13677031 -1.3818728 1.7633538 234 88 12
0.014192346 -1.3924835 1.7836347 234 88 12
0.021449281 -1.392168 1.7836347 234 88 12
0.041682307 -1.4235179 1.9697264 234 88 12
0.042834971 -1.4234678 1.9697264 234 88 12
0.053208958 -1.4230168 1.9697264 234 88 12
0.06362506 -1.4235343 1.969101 234 88 12
0.068685643 -1.3916416 1.7826501 234 88 12
-0.00099107681 -1.3926358 1.7602769 234 88 12
0.00089890306 -1.3925536 1.7602769 234 88 12
0.074194625 -1.3929294 1.7816656 234 88 12
0.085080028 -1.3924562 1.7816656 234 88 12
0.09596543 -1.3919829 1.7816656 234 88 12
0.010486899 -1.395319 1.7582256 234 88 12
0.0011060475 -1.3973179 1.7572 234 88 12
0.010555947 -1.3969071 1.7572 234 88 12
0.038434867 -1.428511 1.9665989 234 88 12
0.041892864 -1.4283607 1.9665989 234 88 12
0.053419515 -1.4278595 1.9665989 234 88 12
0.063793503 -1.4274085 1.9665989 234 88 12
0.10316496 -1.3928806 1.7572 234 88 12
0.10505494 -1.3927984 1.7572 234 88 12
0.11639482 -1.3923054 1.7572 234 88 12
0.12584472 -1.3918945 1.7572 234 88 12
0.13718459 -1.3914015 1.7572 234 88 12
0.014590031 -1.4016303 1.7777275 234 88 12
0.021846967 -1.4013147 1.7777275 234 88 12
0.067595422 -1.3886449 1.7081268 234 88 12
0.070831276 -1.3991851 1.7777275 234 88 12
0.074459746 -1.3990272 1.7777275 234 88 12
0.085345149 -1.398554 1.7777275 234 88 12
0.09441632 -1.3981596 1.7777275 234 88 12
0.13725364 -1.3929896 1.7561743 234 88 12
0.012842078 -1.4032336 1.7767429 234 88 12
0.063680664 -1.405807 1.8085897 234 88 12
0.0013131921 -1.4020822 1.7541231 234 88 12
0.061091341 -1.377213 1.6026047 234 88 12
0.063511789 -1.3771077 1.6026047 234 88 12
0.065700784 -1.3913413 1.7000926 234 88 12
0.068005264 -1.385604 1.6617391 234 88 12
0.069804691 -1.3920155 1.7058923 234 88 12
0.070963845 -1.402234 1.7757584 234 88 12
0.074481666 -1.3867928 1.6717434 234 88 12
0.074592307 -1.4020761 1.7757584 234 88 12
0.062474933 -1.4613351 2.1726928 234 88 12
0.059279468 -1.3886931 1.6664255 234 88 12
0.065776743 -1.3930885 1.6989644 234 88 12
0.065667935 -1.463378 2.1878688 234 88 12
0.083729759 -1.4032062 1.774774 234 88 12
0.094615161 -1.402733 1.774774 234 88 12
0.035187427 -1.4335042 1.9634713 234 88 12
0.059795577 -1.3983299 1.7208238 234 88 12
0.10556684 -1.4037842 1.7737894 234 88 12
0.042145528 -1.434172 1.9628458 234 88 12
0.052519519 -1.4337209 1.9628458 234 88 12
0.062091514 -1.4072018 1.7728049 234 88 12
0.10924919 -1.4021627 1.7510462 234 88 12
0.11687815 -1.4034221 1.7500205 234 88 12
0.12632805 -1.4030113 1.7500205 234 88 12
0.13766794 -1.4025183 1.7500205 234 88 12
0.01142553 -1.4124593 1.7708358 234 88 12
-9.3450486e-05 -1.4132812 1.7469437 234 88 12
0.0017965294 -1.4131991 1.7469437 234 88 12
0.0097438572 -1.4155871 1.7688668 234 88 12
0.055099703 -1.4136151 1.7688668 234 88 12
0.064170875 -1.4132206 1.7688668 234 88 12
0.073242038 -1.4128263 1.7688668 234 88 12
0.11330534 -1.4083508 1.7469437 234 88 12
0.11519532 -1.4082687 1.7469437 234 88 12
0.12653519 -1.4077756 1.7469437 234 88 12
0.13787508 -1.4072826 1.7469437 234 88 12
0.0098101385 -1.4171115 1.7678822 234 88 12
0.011624373 -1.4170326 1.7678822 234 88 12
0.053351749 -1.4152185 1.7678822 234 88 12
0.064237155 -1.4147451 1.7678822 234 88 12
0.073308326 -1.4143507 1.7678822 234 88 12
0.084193729 -1.4138775 1.7678822 234 88 12
0.095079131 -1.4134042 1.7678822 234 88 12
0.10596453 -1.412931 1.7678822 234 88 12
1.1801146 0.10201884 2.1199663 234 88 12
1.1796941 0.10545446 2.1199663 234 88 12
1.1804626 0.11600981 2.1188977 234 88 12
1.1831597 0.10239156 2.1183634 234 88 12
1.1828793 0.10468197 2.1183634 234 88 12
1.1826328 0.11511307 2.1178291 234 88 12
1.1268563 0.21019162 1.9445986 234 88 12
1.1304395 0.19416471 1.9437577 234 88 12
1.1297776 0.19957219 1.9437577 234 88 12
1.1271302 0.22120215 1.9437577 234 88 12
1.1834013 0.12566842 2.1167605 234 88 12
1.1331402 0.18534777 1.9429168 234 88 12
1.1313752 0.19976774 1.9429168 234 88 12
1.1300515 0.21058272 1.9429168 234 88 12
1.1276246 0.23041017 1.9429168 234 88 12
1.1305459 0.21979074 1.9420758 234 88 12
1.1381004 0.17131889 1.9412349 234 88 12
1.1308198 0.23080125 1.9412349 234 88 12
1.1851848 0.13634801 2.1151576 234 88 12
1.1403598 0.16610694 1.940394 234 88 12
1.1310936 0.24181177 1.940394 234 88 12
1.1836767 0.15708598 2.1146235 234 88 12
1.1426193 0.160895 1.9395531 234 88 12
1.1417367 0.16810499 1.9395531 234 88 12
1.140413 0.17891996 1.9395531 234 88 12
1.1859533 0.14690335 2.1140893 234 88 12
1.1448787 0.15568306 1.9387122 234 88 12
1.1406869 0.18993048 1.9387122 234 88 12
1.1411813 0.19913851 1.9378712 234 88 12
1.1924689 0.11050518 2.1130207 234 88 12
1.1919081 0.115086 2.1130207 234 88 12
1.1905065 0.12653808 2.1130207 234 88 12
1.1892449 0.13684495 2.1130207 234 88 12
1.1879833 0.14715183 2.1130207 234 88 12
1.1414552 0.21014902 1.9370303 234 88 12
1.1933438 0.11177462 2.1124864 234 88 12
1.1929232 0.11521024 2.1124864 234 88 12
1.1512159 0.14365222 1.9361894 234 88 12
1.141729 0.22115953 1.9361894 234 88 12
1.140626 0.23017202 1.9361894 234 88 12
1.1532547 0.14024277 1.9353485 234 88 12
1.1523722 0.14745276 1.9353485 234 88 12
1.1510484 0.15826772 1.9353485 234 88 12
1.1508279 0.16007023 1.9353485 234 88 12
1.1497247 0.1690827 1.9353485 234 88 12
1.1486216 0.17809518 1.9353485 234 88 12
1.1472979 0.18891016 1.9353485 234 88 12
1.1459742 0.19972514 1.9353485 234 88 12
1.1446503 0.2105401 1.9353485 234 88 12
1.1433266 0.22135508 1.9353485 234 88 12
1.1422235 0.23036756 1.9353485 234 88 12
1.1408998 0.24118254 1.9353485 234 88 12
1.1402379 0.24659003 1.9353485 234 88 12
1.1936916 0.12576559 2.1114178 234 88 12
1.1515429 0.16747575 1.9345076 234 88 12
1.1934451 0.1361967 2.1108835 234 88 12
1.1573324 0.13342386 1.9336667 234 88 12
1.1518167 0.17848627 1.9336667 234 88 12
1.1520905 0.18949679 1.9328258 234 88 12
1.1529131 0.16303337 1.9116242 234 88 12
1.1522236 0.16866662 1.9116242 234 88 12
1.1510744 0.17805538 1.9116242 234 88 12
1.1506147 0.18181089 1.9116242 234 88 12
1.1523645 0.20050731 1.9319848 234 88 12
1.1512613 0.20951979 1.9319848 234 88 12
1.1632283 0.12499803 1.9311439 234 88 12
1.1630076 0.12680052 1.9311439 234 88 12
1.1616839 0.1376155 1.9311439 234 88 12
1.1557266 0.15384831 1.9107482 234 88 12
1.1513597 0.18952559 1.9107482 234 88 12
1.1506702 0.19515885 1.9107482 234 88 12
1.1515352 0.2205303 1.9311439 234 88 12
1.1477846 0.25117272 1.9311439 234 88 12
1.1621784 0.14682351 1.930303 234 88 12
1.1518748 0.19911806 1.9098722 234 88 12
1.151809 0.23154083 1.930303 234 88 12
1.1604341 0.14298922 1.9089961 234 88 12
1.1523035 0.24074885 1.9294621 234 88 12
1.1509798 0.25156382 1.9294621 234 88 12
1.1625581 0.13943742 1.9081202 234 88 12
1.1616387 0.14694843 1.9081202 234 88 12
1.1709423 0.11496522 1.9277803 234 88 12
1.164682 0.13588563 1.9072441 234 88 12
1.161924 0.15841864 1.9072441 234 88 12
1.1554886 0.21099569 1.9072441 234 88 12
1.2038081 0.11886728 2.1066093 234 88 12
1.1727606 0.11335827 1.9269394 234 88 12
1.1725399 0.11516076 1.9269394 234 88 12
1.1624391 0.16801111 1.9063681 234 88 12
1.203982 0.12586276 2.106075 234 88 12
1.1728138 0.12617129 1.9260983 234 88 12
1.1627244 0.17948133 1.9054921 234 88 12
1.1615752 0.18887009 1.9054921 234 88 12
1.161562 0.21809858 1.9260983 234 88 12
1.1613413 0.21990107 1.9260983 234 88 12
1.1618605 0.2003403 1.904616 234 88 12
1.1593323 0.22099558 1.904616 234 88 12
1.1616151 0.23091158 1.9252574 234 88 12
1.1784358 0.10673492 1.9244165 234 88 12
1.1773326 0.1157474 1.9244165 234 88 12
1.172948 0.12355619 1.90374 234 88 12
1.1724883 0.12731169 1.90374 234 88 12
1.171569 0.1348227 1.90374 234 88 12
1.1713392 0.13670045 1.90374 234 88 12
1.1699601 0.14796697 1.90374 234 88 12
1.168811 0.15735573 1.90374 234 88 12
1.167432 0.16862224 1.90374 234 88 12
1.1662828 0.178011 1.90374 234 88 12
1.1649038 0.1892775 1.90374 234 88 12
1.1635247 0.20054401 1.90374 234 88 12
1.1623756 0.20993277 1.90374 234 88 12
1.1612264 0.21932153 1.90374 234 88 12
1.1609966 0.22119929 1.90374 234 88 12
1.1643158 0.22209466 1.9244165 234 88 12
1.1632128 0.23110713 1.9244165 234 88 12
1.161889 0.24192211 1.9244165 234 88 12
1.1612271 0.24732959 1.9244165 234 88 12
1.1730034 0.13690417 1.902864 234 88 12
1.1626608 0.22140299 1.902864 234 88 12
1.1623834 0.25113013 1.9235756 234 88 12
1.1820723 0.10352101 1.9227347 234 88 12
1.1735185 0.14649662 1.9019879 234 88 12
1.1721395 0.15776314 1.9019879 234 88 12
1.1838905 0.10191406 1.9218938 234 88 12
1.1834491 0.10551905 1.9218938 234 88 12
1.1724248 0.16923335 1.901112 234 88 12
1.2110534 0.11859173 2.1028695 234 88 12
1.1837231 0.11652957 1.9210529 234 88 12
1.1729399 0.17882583 1.9002359 234 88 12
1.1665046 0.23140287 1.9002359 234 88 12
1.1824187 0.11518597 1.8993598 234 88 12
1.1734551 0.18841828 1.8993598 234 88 12
1.1720761 0.1996848 1.8993598 234 88 12
1.1843128 0.11351193 1.8984839 234 88 12
1.182704 0.12665619 1.8984839 234 88 12
1.1725912 0.20927727 1.8984839 234 88 12
1.1727983 0.23228039 1.919371 234 88 12
1.1832191 0.13624866 1.8976078 234 88 12
1.1728765 0.22074749 1.8976078 234 88 12
1.1732928 0.24148841 1.9185301 234 88 12
1.1929815 0.093879297 1.9176892 234 88 12
1.1927608 0.095681794 1.9176892 234 88 12
1.1835043 0.14771888 1.8967317 234 88 12
1.1823552 0.15710764 1.8967317 234 88 12
1.1733916 0.23033996 1.8967317 234 88 12
1.1932553 0.10488982 1.9168483 234 88 12
1.1826404 0.16857785 1.8958558 234 88 12
1.1831555 0.17817032 1.8949797 234 88 12
1.1935536 0.10701945 1.8941036 234 88 12
1.1834408 0.18964054 1.8941036 234 88 12
1.1822916 0.1990293 1.8941036 234 88 12
1.1785799 0.25128308 1.9151665 234 88 12
1.2000338 0.089253984 1.9143256 234 88 12
1.1993718 0.094661474 1.9143256 234 88 12
1.1980481 0.10547645 1.9143256 234 88 12
1.1954477 0.10534541 1.8932277 234 88 12
1.1940687 0.11661192 1.8932277 234 88 12
1.1929195 0.12600069 1.8932277 234 88 12
1.1926897 0.12787843 1.8932277 234 88 12
1.1915405 0.13726719 1.8932277 234 88 12
1.1903913 0.14665595 1.8932277 234 88 12
1.1890123 0.15792246 1.8932277 234 88 12
1.1876333 0.16918898 1.8932277 234 88 12
1.1864841 0.17857774 1.8932277 234 88 12
1.1851051 0.18984425 1.8932277 234 88 12
1.1839559 0.19923301 1.8932277 234 88 12
1.1825769 0.21049951 1.8932277 234 88 12
1.1821172 0.21425502 1.8932277 234 88 12
1.1814277 0.21988827 1.8932277 234 88 12
1.1800487 0.23115478 1.8932277 234 88 12
1.1817219 0.23886114 1.9143256 234 88 12
1.1815013 0.24066363 1.9143256 234 88 12
1.1973418 0.10367137 1.8923516 234 88 12
1.1932048 0.1374709 1.8923516 234 88 12
1.183092 0.22009198 1.8923516 234 88 12
1.1805638 0.24074726 1.8923516 234 88 12
1.1833196 0.23905669 1.9134846 234 88 12
1.1830989 0.24085918 1.9134846 234 88 12
1.2036701 0.08604008 1.9126437 234 88 12
1.1937199 0.14706337 1.8914756 234 88 12
1.1833773 0.2315622 1.8914756 234 88 12
1.2041646 0.095248103 1.9118028 234 88 12
1.1940051 0.15853359 1.8905996 234 88 12
1.192856 0.16792235 1.8905996 234 88 12
1.1838924 0.24115467 1.8905996 234 88 12
1.1931412 0.17939256 1.8897235 234 88 12
1.2089041 0.083021715 1.910121 234 88 12
1.2044586 0.10073069 1.8888475 234 88 12
1.2037691 0.10636395 1.8888475 234 88 12
1.1936563 0.18898503 1.8888475 234 88 12
1.2126143 0.21525906 2.0959239 234 88 12
1.2042842 0.11595642 1.8879715 234 88 12
1.1939416 0.20045525 1.8879715 234 88 12
1.1927924 0.20984401 1.8879715 234 88 12
1.2136294 0.21538331 2.0953896 234 88 12
1.2047993 0.12554888 1.8870955 234 88 12
1.2034203 0.1368154 1.8870955 234 88 12
1.1930777 0.22131422 1.8870955 234 88 12
1.2141382 0.080003358 1.9075983 234 88 12
1.2037055 0.14828561 1.8862195 234 88 12
1.1935928 0.2309067 1.8862195 234 88 12
1.1940614 0.24403048 1.9075983 234 88 12
1.2152945 0.083803892 1.9067572 234 88 12
1.2139708 0.094618864 1.9067572 234 88 12
1.2042208 0.15787809 1.8853434 234 88 12
1.1938782 0.24237691 1.8853434 234 88 12
1.2047359 0.16747054 1.8844674 234 88 12
1.2033569 0.17873706 1.8844674 234 88 12
1.2149041 0.098197438 1.8835914 234 88 12
1.2139847 0.10570844 1.8835914 234 88 12
1.203872 0.18832952 1.8835914 234 88 12
1.1879314 0.22694315 1.7548753 234 88 12
1.1890322 0.22966851 1.7713382 234 88 12
1.2165684 0.098401144 1.8827153 234 88 12
1.215649 0.10591216 1.8827153 234 88 12
1.2144998 0.11530091 1.8827153 234 88 12
1.2135805 0.12281192 1.8827153 234 88 12
1.2131208 0.12656742 1.8827153 234 88 12
1.2117418 0.13783394 1.8827153 234 88 12
1.2105926 0.1472227 1.8827153 234 88 12
1.2092136 0.1584892 1.8827153 234 88 12
1.2080644 0.16787796 1.8827153 234 88 12
1.2066854 0.17914447 1.8827153 234 88 12
1.2055362 0.18853323 1.8827153 234 88 12
1.1977848 0.20182097 1.8096547 234 88 12
1.1959628 0.20532599 1.7930402 234 88 12
1.1941427 0.20893268 1.7765946 234 88 12
1.1940036 0.21105291 1.778031 234 88 12
1.1955043 0.2115618 1.7966753 234 88 12
1.193519 0.21743111 1.7815627 234 88 12
1.19125 0.22180396 1.7608827 234 88 12
1.1808193 0.23761354 1.6595461 234 88 12
1.1858231 0.23405744 1.7140391 234 88 12
1.193444 0.22704402 1.7947041 234 88 12
1.1798432 0.24558817 1.6595461 234 88 12
1.201629 0.22045502 1.8827153 234 88 12
1.20025 0.23172152 1.8827153 234 88 12
1.1991009 0.24111028 1.8827153 234 88 12
1.2198596 0.21498352 2.0921838 234 88 12
1.2225673 0.077376083 1.9033936 234 88 12
1.2216848 0.084586069 1.9033936 234 88 12
1.2203611 0.095401041 1.9033936 234 88 12
1.2147851 0.12677114 1.8818393 234 88 12
1.2136359 0.1361599 1.8818393 234 88 12
1.196718 0.19226378 1.7570748 234 88 12
1.1975318 0.19791707 1.7757664 234 88 12
1.1927371 0.20814912 1.7317945 234 88 12
1.1935686 0.22174607 1.7627747 234 88 12
1.1923776 0.23100445 1.7620567 234 88 12
1.1915815 0.23395489 1.7566574 234 88 12
1.2032933 0.22065872 1.8818393 234 88 12
1.2020493 0.2450082 1.9033936 234 88 12
1.2243856 0.075769126 1.9025527 234 88 12
1.2139212 0.14763011 1.8809633 234 88 12
1.1993176 0.19421889 1.7658 234 88 12
1.1963835 0.1985402 1.7346811 234 88 12
1.1968305 0.20454028 1.7499661 234 88 12
1.1994444 0.20422366 1.7832839 234 88 12
1.2025973 0.20502087 1.8253379 234 88 12
1.1950331 0.21863687 1.7490351 234 88 12
1.1950034 0.22068693 1.7518969 234 88 12
1.1972791 0.22005713 1.7803428 234 88 12
1.1953347 0.23006812 1.771039 234 88 12
1.1950579 0.23232904 1.771039 234 88 12
1.1731554 0.26376209 1.537441 234 88 12
1.157572 0.29084232 1.3787054 234 88 12
1.2038084 0.23025119 1.8809633 234 88 12
1.2036469 0.24520375 1.9025527 234 88 12
1.22488 0.08497715 1.9017118 234 88 12
1.2144363 0.15722257 1.8800873 234 88 12
1.2005123 0.18870324 1.7440599 234 88 12
1.1966382 0.19351502 1.6996874 234 88 12
1.2041336 0.20187078 1.8147434 234 88 12
1.2044883 0.2051893 1.8250204 234 88 12
1.2018211 0.21169659 1.7997524 234 88 12
1.190185 0.23986046 1.6891429 234 88 12
1.1898737 0.24240272 1.6891429 234 88 12
1.1961504 0.23572358 1.7628807 234 88 12
1.2040937 0.24172141 1.8800873 234 88 12
1.2253745 0.094185174 1.9008708 234 88 12
1.2147216 0.1686928 1.8792112 234 88 12
1.2041181 0.17493762 1.7402204 234 88 12
1.2035402 0.17965896 1.7402204 234 88 12
1.2008716 0.18333134 1.7088723 234 88 12
1.2034924 0.19045909 1.7582184 234 88 12
1.1920238 0.20376912 1.6192213 234 88 12
1.1949724 0.20379159 1.6609144 234 88 12
1.1978538 0.21019162 1.7126845 234 88 12
1.1975524 0.21689677 1.7200214 234 88 12
1.197544 0.22106752 1.7271129 234 88 12
1.1960557 0.22906287 1.7199118 234 88 12
1.1976876 0.22894928 1.7427696 234 88 12
1.1745472 0.27033246 1.4874337 234 88 12
1.2251196 0.097541928 1.8783352 234 88 12
1.2242002 0.10505294 1.8783352 234 88 12
1.2048091 0.17581645 1.7195023 234 88 12
1.2045118 0.17824517 1.7195023 234 88 12
1.2033627 0.18112966 1.7077202 234 88 12
1.1970633 0.18962108 1.6298558 234 88 12
1.2003452 0.19229272 1.6832771 234 88 12
1.2032542 0.19242136 1.7265726 234 88 12
1.1948291 0.20128974 1.6179239 234 88 12
1.1962929 0.20256138 1.6418967 234 88 12
1.2000406 0.20167986 1.6957766 234 88 12
1.2039995 0.20231728 1.7555355 234 88 12
1.2050586 0.20328201 1.7729613 234 88 12
1.1990895 0.21143506 1.6993735 234 88 12
1.2016931 0.21486992 1.7441373 234 88 12
1.2004794 0.21831714 1.7324162 234 88 12
1.1975825 0.22601162 1.7034746 234 88 12
1.1922747 0.23500869 1.641206 234 88 12
1.19055 0.23957402 1.623947 234 88 12
1.1941698 0.23689863 1.6726838 234 88 12
1.1951904 0.23760521 1.6890715 234 88 12
1.1927102 0.2454233 1.6665225 234 88 12
1.1642606 0.29669964 1.3382912 234 88 12
1.2252151 0.21331429 2.0895126 234 88 12
1.2312171 0.07294631 1.899189 234 88 12
1.2244855 0.11652315 1.8774592 234 88 12
1.1872672 0.18208236 1.4236407 234 88 12
1.2038736 0.18234448 1.6822859 234 88 12
1.2040328 0.18923584 1.6978714 234 88 12
1.2056794 0.19027799 1.725451 234 88 12
1.2040325 0.19816093 1.7148504 234 88 12
1.2037338 0.20060185 1.7148504 234 88 12
1.2028326 0.20362248 1.7065883 234 88 12
1.199193 0.21173343 1.6654437 234 88 12
1.1980416 0.2152486 1.6542321 234 88 12
1.1964811 0.22390859 1.6464531 234 88 12
1.2004176 0.2274922 1.7144651 234 88 12
1.1949723 0.23931979 1.6523203 234 88 12
1.1871924 0.25292566 1.557272 234 88 12
1.196449 0.24143368 1.6792989 234 88 12
1.2064269 0.22814485 1.8091187 234 88 12
1.2250006 0.12611562 1.8765831 234 88 12
1.1945827 0.18656269 1.499931 234 88 12
1.2030501 0.19427958 1.6539334 234 88 12
1.2015095 0.1979391 1.6360539 234 88 12
1.2032014 0.20347139 1.6748173 234 88 12
1.1956339 0.22094947 1.5859995 234 88 12
1.1956102 0.22344387 1.5906056 234 88 12
1.1977828 0.22322978 1.6257265 234 88 12
1.1967915 0.2314426 1.6259567 234 88 12
1.1940315 0.23989573 1.5977247 234 88 12
1.2022834 0.23019938 1.7133257 234 88 12
1.2012393 0.23375629 1.7033663 234 88 12
1.1729149 0.28525144 1.3430403 234 88 12
1.2252859 0.13758585 1.8757071 234 88 12
1.2241367 0.14697461 1.8757071 234 88 12
1.2037791 0.19590774 1.6276002 234 88 12
1.203739 0.20079486 1.6372362 234 88 12
1.198616 0.213285 1.5751722 234 88 12
1.1991247 0.21524227 1.5880933 234 88 12
1.2037182 0.21242093 1.6614501 234 88 12
1.1997296 0.21942122 1.60737 234 88 12
1.1993864 0.22222531 1.60737 234 88 12
1.1938708 0.23165318 1.5320559 234 88 12
1.1905233 0.24396893 1.5002819 234 88 12
1.1911993 0.24815702 1.5208069 234 88 12
1.1962025 0.24304599 1.5963988 234 88 12
1.1840467 0.2643685 1.4315611 234 88 12
1.194585 0.25251448 1.5884788 234 88 12
1.19827 0.24860324 1.6438435 234 88 12
1.2147135 0.22396243 1.8757071 234 88 12
1.2137941 0.23147343 1.8757071 234 88 12
1.2136737 0.24277201 1.8975072 234 88 12
1.2274191 0.22055826 2.0879097 234 88 12
1.2362306 0.07173045 1.8966663 234 88 12
1.23601 0.073532946 1.8966663 234 88 12
1.2346861 0.084347919 1.8966663 234 88 12
1.224422 0.15844482 1.8748311 234 88 12
1.1934551 0.1847185 1.367664 234 88 12
1.1930113 0.18834423 1.367664 234 88 12
1.2006186 0.1899049 1.5101836 234 88 12
1.1957548 0.19627689 1.4355471 234 88 12
1.1953397 0.19966865 1.4355471 234 88 12
1.1999085 0.1989444 1.5174259 234 88 12
1.2064636 0.19838691 1.6359761 234 88 12
1.1944805 0.21538173 1.4549949 234 88 12
1.2044996 0.20753179 1.62054 234 88 12
1.1963556 0.22443655 1.5095173 234 88 12
1.1930122 0.24216036 1.4880636 234 88 12
1.1933362 0.24431324 1.4988012 234 88 12
1.2143092 0.2410659 1.8748311 234 88 12
1.2349601 0.095358439 1.8958254 234 88 12
1.1966434 0.17824721 1.3491784 234 88 12
1.2249371 0.16803728 1.873955 234 88 12
1.1975726 0.18792923 1.3902055 234 88 12
1.1961049 0.19215064 1.3717513 234 88 12
1.1995144 0.19606625 1.4472108 234 88 12
1.1991048 0.19941244 1.4472108 234 88 12
1.1996055 0.20196132 1.4629793 234 88 12
1.2036411 0.20113088 1.5393152 234 88 12
1.2048185 0.20264152 1.5657516 234 88 12
1.1978343 0.21241768 1.4534439 234 88 12
1.2098269 0.20677516 1.6727548 234 88 12
1.1987469 0.22259082 1.4953171 234 88 12
1.1998551 0.22645131 1.5259901 234 88 12
1.1935201 0.23770149 1.4297812 234 88 12
1.1938753 0.24277404 1.4487218 234 88 12
1.1935186 0.25140864 1.4623095 234 88 12
1.194577 0.25486273 1.4910495 234 88 12
1.1888479 0.26725379 1.40931 234 88 12
1.1842738 0.28092626 1.3530264 234 88 12
1.1838247 0.28459653 1.3530264 234 88 12
1.1864433 0.28516966 1.4052018 234 88 12
1.2348754 0.10064193 1.8730791 234 88 12
1.2044189 0.18287002 1.4514201 234 88 12
1.2032201 0.18670435 1.4363363 234 88 12
1.2002788 0.19185585 1.3885529 234 88 12
1.1985923 0.19961101 1.3733089 234 88 12
1.2038065 0.20394602 1.4921007 234 88 12
1.2024243 0.20816605 1.4741981 234 88 12
1.2020267 0.21141416 1.4741981 234 88 12
1.1969849 0.22300684 1.3992844 234 88 12
1.2063004 0.21431769 1.5699179 234 88 12
1.1975561 0.2281567 1.4241313 234 88 12
1.2011869 0.23389474 1.51373 234 88 12
1.1983215 0.25111437 1.4980605 234 88 12
1.1963159 0.25714412 1.4718506 234 88 12
1.1887406 0.27623546 1.3635306 234 88 12
1.2365397 0.10084563 1.872203 234 88 12
1.2358502 0.10647889 1.872203 234 88 12
1.234701 0.11586765 1.872203 234 88 12
1.2344712 0.11774541 1.872203 234 88 12
1.233322 0.12713416 1.872203 234 88 12
1.2321728 0.13652292 1.872203 234 88 12
1.2307938 0.14778943 1.872203 234 88 12
1.2296447 0.15717819 1.872203 234 88 12
1.2029184 0.17566288 1.3309462 234 88 12
1.2081814 0.17657816 1.4498682 234 88 12
1.2016238 0.19023231 1.3417602 234 88 12
1.2058008 0.19044901 1.4347602 234 88 12
1.2040459 0.19491892 1.408038 234 88 12
1.2007391 0.20415585 1.3598921 234 88 12
1.1989237 0.21239954 1.3420496 234 88 12
1.2018934 0.21230017 1.4074851 234 88 12
1.204041 0.2155847 1.4638941 234 88 12
1.2084054 0.21527541 1.5596187 234 88 12
1.1995213 0.23287612 1.4107231 234 88 12
1.1958616 0.24704428 1.3681207 234 88 12
1.1962017 0.24937415 1.3819541 234 88 12
1.195766 0.25293344 1.3819541 234 88 12
1.191067 0.26979339 1.3236465 234 88 12
1.1981566 0.25944999 1.452492 234 88 12
1.1977504 0.26276734 1.452492 234 88 12
1.1947373 0.27118686 1.4086269 234 88 12
1.1900586 0.28316572 1.3375502 234 88 12
1.2218302 0.22102176 1.872203 234 88 12
1.2206811 0.23041052 1.872203 234 88 12
1.2193021 0.24167702 1.872203 234 88 12
1.2428415 0.070710123 1.8933026 234 88 12
1.2424003 0.074315116 1.8933026 234 88 12
1.2410766 0.085130095 1.8933026 234 88 12
1.2397528 0.095945068 1.8933026 234 88 12
1.2349863 0.12733787 1.8713269 234 88 12
1.2073591 0.16492255 1.3236575 234 88 12
1.2068998 0.16867581 1.3236575 234 88 12
1.2062281 0.17606799 1.3292041 234 88 12
1.2063544 0.17949058 1.3421696 234 88 12
1.2096219 0.18405913 1.4331841 234 88 12
1.2067432 0.18926638 1.3798767 234 88 12
1.2036196 0.19835649 1.3320482 234 88 12
1.2031637 0.20208102 1.3320482 234 88 12
1.2030131 0.20549972 1.3384181 234 88 12
1.2072731 0.20418766 1.435917 234 88 12
1.2028157 0.21210748 1.3529584 234 88 12
1.2049705 0.21267681 1.4058656 234 88 12
1.2068083 0.21886104 1.4675801 234 88 12
1.2032655 0.22941816 1.414052 234 88 12
1.202844 0.23286186 1.414052 234 88 12
1.2042867 0.23863758 1.4651762 234 88 12
1.2038865 0.24190621 1.4651762 234 88 12
1.1989206 0.25331959 1.3802935 234 88 12
1.2062399 0.24266241 1.5233488 234 88 12
1.194859 0.26644191 1.3218927 234 88 12
1.2010672 0.2623654 1.4576817 234 88 12
1.2239543 0.21746996 1.8713269 234 88 12
1.1933483 0.28356838 1.3358185 234 88 12
1.2221029 0.24014474 1.8933026 234 88 12
1.2218822 0.24194723 1.8933026 234 88 12
1.2355015 0.13693033 1.870451 234 88 12
1.2096231 0.18328513 1.3510858 234 88 12
1.2086645 0.19064361 1.3495988 234 88 12
1.216547 0.19485107 1.5654572 234 88 12
1.2065004 0.20885085 1.3512542 234 88 12
1.2060534 0.21250378 1.3512542 234 88 12
1.2092354 0.21154352 1.4300295 234 88 12
1.2042252 0.2241413 1.3408751 234 88 12
1.209299 0.22247514 1.4660591 234 88 12
1.2132735 0.21886536 1.5568663 234 88 12
1.2034162 0.23727211 1.3613971 234 88 12
1.2006431 0.24779004 1.3232026 234 88 12
1.2071837 0.23899218 1.4636513 234 88 12
1.2067837 0.2422608 1.4636513 234 88 12
1.2056934 0.24683923 1.4500318 234 88 12
1.2071834 0.25123629 1.5021657 234 88 12
1.1984569 0.27187917 1.3427994 234 88 12
1.1980063 0.27556098 1.3427994 234 88 12
1.2256186 0.21767366 1.870451 234 88 12
1.2251589 0.22142917 1.870451 234 88 12
1.234911 0.20985161 2.0847042 234 88 12
1.2460366 0.071101211 1.8916208 234 88 12
1.2455955 0.074706204 1.8916208 234 88 12
1.2360166 0.14652281 1.8695749 234 88 12
1.2346376 0.15778932 1.8695749 234 88 12
1.2332586 0.16905582 1.8695749 234 88 12
1.2102925 0.19580533 1.3190509 234 88 12
1.2098325 0.19956236 1.3190509 234 88 12
1.2444547 0.16639389 2.1734755 234 88 12
1.2314199 0.18407784 1.8695749 234 88 12
1.2074943 0.22454144 1.3391544 234 88 12
1.2305006 0.19158885 1.8695749 234 88 12
1.2066232 0.23766464 1.3597091 234 88 12
1.2061803 0.24128288 1.3597091 234 88 12
1.2039657 0.24819672 1.3214536 234 88 12
1.2035068 0.25194556 1.3214536 234 88 12
1.2043823 0.25306323 1.3497534 234 88 12
1.2047067 0.25515229 1.3659708 234 88 12
1.2128572 0.24525671 1.5599723 234 88 12
1.1994623 0.28548229 1.3231387 234 88 12
1.225674 0.23102164 1.8695749 234 88 12
1.2255187 0.23873334 1.8916208 234 88 12
1.2346644 0.22028272 2.0841699 234 88 12
1.2460899 0.083914228 1.8907799 234 88 12
1.2349229 0.16925953 1.8686988 234 88 12
1.2131625 0.19996993 1.3172981 234 88 12
1.2093679 0.23318069 1.3255801 234 88 12
1.2089995 0.2396163 1.3384249 234 88 12
1.2085484 0.24330133 1.3384249 234 88 12
1.2310157 0.20118131 1.8686988 234 88 12
1.2117598 0.2422075 1.4326899 234 88 12
1.2076193 0.25345942 1.3480494 234 88 12
1.2049297 0.26749462 1.3182826 234 88 12
1.205677 0.27102092 1.354396 234 88 12
1.2370812 0.20895487 2.0836356 234 88 12
1.2463638 0.094924748 1.889939 234 88 12
1.235438 0.17885201 1.8678229 234 88 12
1.2151386 0.21161094 1.3162614 234 88 12
1.213662 0.22303978 1.3136327 234 88 12
1.2077972 0.2716555 1.3165314 234 88 12
0.11055931 1.1739181 2.1226375 234 88 12
0.11551286 1.1764026 2.1210346 234 88 12
0.1092628 1.1823187 2.1183634 234 88 12
0.11740349 1.1823524 2.1178291 234 88 12
0.19075526 1.1324784 1.9429168 234 88 12
0.18715027 1.1329195 1.9429168 234 88 12
0.17653084 1.1358409 1.9420758 234 88 12
0.12579265 1.1844163 2.1162262 234 88 12
0.20196132 1.1343497 1.9412349 234 88 12
0.16591141 1.1387622 1.9412349 234 88 12
0.16430445 1.1405804 1.940394 234 88 12
0.17891996 1.140413 1.9395531 234 88 12
0.17711747 1.1406337 1.9395531 234 88 12
0.15548751 1.1432811 1.9395531 234 88 12
0.19173297 1.1404662 1.9387122 234 88 12
0.20995347 1.1398576 1.9378712 234 88 12
0.20454599 1.1405195 1.9378712 234 88 12
0.14506362 1.1478001 1.9378712 234 88 12
0.21195152 1.1412345 1.9370303 234 88 12
0.14486142 1.1882637 2.1130207 234 88 12
0.13340934 1.1896654 2.1130207 234 88 12
0.12539288 1.1906466 2.1130207 234 88 12
0.1139408 1.1920483 2.1130207 234 88 12
0.14545472 1.1509953 1.9361894 234 88 12
0.11635545 1.192783 2.1124864 234 88 12
0.11406504 1.1930634 2.1124864 234 88 12
0.21414509 1.1442091 1.9353485 234 88 12
0.20873761 1.144871 1.9353485 234 88 12
0.19792263 1.1461947 1.9353485 234 88 12
0.18710767 1.1475185 1.9353485 234 88 12
0.17629269 1.1488422 1.9353485 234 88 12
0.16728021 1.1499454 1.9353485 234 88 12
0.15826772 1.1510484 1.9353485 234 88 12
0.15646523 1.1512691 1.9353485 234 88 12
0.14565025 1.1525928 1.9353485 234 88 12
0.17288324 1.1508811 1.9345076 234 88 12
0.13503082 1.1555141 1.9345076 234 88 12
0.13378204 1.1927105 2.1114178 234 88 12
0.18569626 1.1509342 1.9336667 234 88 12
0.13848712 1.1931648 2.1108835 234 88 12
0.19850926 1.1509875 1.9328258 234 88 12
0.21132228 1.1510407 1.9319848 234 88 12
0.20771728 1.151482 1.9319848 234 88 12
0.17054437 1.1519938 1.9116242 234 88 12
0.16678886 1.1524534 1.9116242 234 88 12
0.12660497 1.1614101 1.9319848 234 88 12
0.18013683 1.1525089 1.9107482 234 88 12
0.15572606 1.1554967 1.9107482 234 88 12
0.13941799 1.1614633 1.9311439 234 88 12
0.12499803 1.1632283 1.9311439 234 88 12
0.14466326 1.15854 1.9098722 234 88 12
0.19201447 1.1561227 1.9081202 234 88 12
0.14882618 1.1614089 1.9081202 234 88 12
0.14507067 1.1618686 1.9081202 234 88 12
0.13568191 1.1630177 1.9081202 234 88 12
0.16217415 1.1614643 1.9072441 234 88 12
0.11530741 1.2032136 2.1071436 234 88 12
0.11416221 1.2033538 2.1071436 234 88 12
0.20528556 1.1615087 1.9269394 234 88 12
0.19807558 1.1623912 1.9269394 234 88 12
0.17552212 1.1615198 1.9063681 234 88 12
0.12056825 1.1718781 1.9269394 234 88 12
0.11335827 1.1727606 1.9269394 234 88 12
0.21990107 1.1613413 1.9260983 234 88 12
0.21809858 1.161562 1.9260983 234 88 12
0.2001366 1.1601962 1.9054921 234 88 12
0.19074784 1.1613454 1.9054921 234 88 12
0.18699233 1.161805 1.9054921 234 88 12
0.12797378 1.1725931 1.9260983 234 88 12
0.12586276 1.203982 2.106075 234 88 12
0.20221806 1.1616306 1.904616 234 88 12
0.12523024 1.1710539 1.904616 234 88 12
0.22029215 1.1645365 1.9244165 234 88 12
0.21848966 1.1647571 1.9244165 234 88 12
0.20767468 1.1660808 1.9244165 234 88 12
0.20242177 1.1632949 1.90374 234 88 12
0.19866626 1.1637546 1.90374 234 88 12
0.18739976 1.1651336 1.90374 234 88 12
0.17613325 1.1665126 1.90374 234 88 12
0.16674449 1.1676618 1.90374 234 88 12
0.15547797 1.1690408 1.90374 234 88 12
0.14608921 1.17019 1.90374 234 88 12
0.1348227 1.171569 1.90374 234 88 12
0.13294496 1.1717988 1.90374 234 88 12
0.12543394 1.1727182 1.90374 234 88 12
0.12295738 1.1764503 1.9244165 234 88 12
0.1139449 1.1775533 1.9244165 234 88 12
0.14629292 1.1718543 1.902864 234 88 12
0.15964089 1.1719097 1.9019879 234 88 12
0.15588538 1.1723694 1.9019879 234 88 12
0.17298886 1.1719651 1.901112 234 88 12
0.11453153 1.1823461 1.9218938 234 88 12
0.21386434 1.1718093 1.9210529 234 88 12
0.20845686 1.1724712 1.9210529 234 88 12
0.18821459 1.1717907 1.9002359 234 88 12
0.11652957 1.1837231 1.9210529 234 88 12
0.1039121 1.1852674 1.9210529 234 88 12
0.12088215 1.210773 2.1028695 234 88 12
0.1140109 1.211614 2.1028695 234 88 12
0.22307236 1.1723038 1.920212 234 88 12
0.21095131 1.1706971 1.8993598 234 88 12
0.20156255 1.1718463 1.8993598 234 88 12
0.19780704 1.1723059 1.8993598 234 88 12
0.11518597 1.1824187 1.8993598 234 88 12
0.21303277 1.1721315 1.8984839 234 88 12
0.1304117 1.1822443 1.8984839 234 88 12
0.11351193 1.1843128 1.8984839 234 88 12
0.11425938 1.2136441 2.1018009 234 88 12
0.14375967 1.1822997 1.8976078 234 88 12
0.11781923 1.2142386 2.1012666 234 88 12
0.15710764 1.1823552 1.8967317 234 88 12
0.15522988 1.182585 1.8967317 234 88 12
0.1704556 1.1824106 1.8958558 234 88 12
0.10849481 1.1928141 1.9168483 234 88 12
0.10308732 1.193476 1.9168483 234 88 12
0.18568133 1.1822362 1.8949797 234 88 12
0.22064064 1.1823306 1.9151665 234 88 12
0.21883814 1.1825511 1.9151665 234 88 12
0.1990293 1.1822916 1.8941036 234 88 12
0.19715154 1.1825215 1.8941036 234 88 12
0.11265271 1.1928641 1.8941036 234 88 12
0.22444117 1.1834869 1.9143256 234 88 12
0.21903369 1.1841488 1.9143256 234 88 12
0.21801051 1.1816576 1.8932277 234 88 12
0.21237727 1.1823471 1.8932277 234 88 12
0.20862177 1.1828067 1.8932277 234 88 12
0.19735526 1.1841857 1.8932277 234 88 12
0.1879665 1.1853349 1.8932277 234 88 12
0.17669998 1.1867139 1.8932277 234 88 12
0.16731122 1.1878631 1.8932277 234 88 12
0.15604471 1.1892421 1.8932277 234 88 12
0.14477821 1.1906211 1.8932277 234 88 12
0.13538945 1.1917703 1.8932277 234 88 12
0.12600069 1.1929195 1.8932277 234 88 12
0.12412293 1.1931493 1.8932277 234 88 12
0.11473417 1.1942985 1.8932277 234 88 12
0.10727894 1.1978275 1.9143256 234 88 12
0.10367395 1.1982688 1.9143256 234 88 12
0.092858978 1.1995925 1.9143256 234 88 12
0.14122641 1.1927451 1.8923516 234 88 12
0.22029568 1.1847563 1.8914756 234 88 12
0.15457438 1.1928005 1.8914756 234 88 12
0.16792235 1.192856 1.8905996 234 88 12
0.16604459 1.1930858 1.8905996 234 88 12
0.10245808 1.2032821 1.9118028 234 88 12
0.093445607 1.2043853 1.9118028 234 88 12
0.18127032 1.1929114 1.8897235 234 88 12
0.10428249 1.2023346 1.8897235 234 88 12
0.11206613 1.2242148 2.0964582 234 88 12
0.19649604 1.192737 1.8888475 234 88 12
0.11011945 1.2033094 1.8888475 234 88 12
0.1044862 1.2039989 1.8888475 234 88 12
0.10465167 1.2062566 1.910121 234 88 12
0.22561444 1.1930724 1.9092801 234 88 12
0.20984401 1.1927924 1.8879715 234 88 12
0.20796625 1.1930223 1.8879715 234 88 12
0.12346742 1.2033648 1.8879715 234 88 12
0.22319198 1.1928478 1.8870955 234 88 12
0.13869315 1.2031904 1.8870955 234 88 12
0.13493764 1.2036501 1.8870955 234 88 12
0.15204112 1.2032459 1.8862195 234 88 12
0.16538909 1.2033014 1.8853434 234 88 12
0.096421361 1.2137501 1.9067572 234 88 12
0.092816368 1.2141914 1.9067572 234 88 12
0.17873706 1.2033569 1.8844674 234 88 12
0.1768593 1.2035867 1.8844674 234 88 12
0.19396278 1.2031825 1.8835914 234 88 12
0.1075862 1.2137549 1.8835914 234 88 12
0.1038307 1.2142146 1.8835914 234 88 12
0.082392484 1.2187103 1.9050754 234 88 12
0.22421052 1.2011694 1.8827153 234 88 12
0.21857727 1.2018589 1.8827153 234 88 12
0.20918851 1.2030081 1.8827153 234 88 12
0.20731075 1.2032379 1.8827153 234 88 12
0.19792199 1.2043871 1.8827153 234 88 12
0.18665548 1.2057661 1.8827153 234 88 12
0.17726672 1.2069153 1.8827153 234 88 12
0.16600022 1.2082943 1.8827153 234 88 12
0.15661146 1.2094434 1.8827153 234 88 12
0.14534494 1.2108225 1.8827153 234 88 12
0.13595618 1.2119716 1.8827153 234 88 12
0.12468967 1.2133507 1.8827153 234 88 12
0.12093417 1.2138103 1.8827153 234 88 12
0.11342316 1.2147297 1.8827153 234 88 12
0.1040344 1.2158788 1.8827153 234 88 12
0.22518075 1.2044762 1.9033936 234 88 12
0.22065872 1.2032933 1.8818393 234 88 12
0.21878096 1.2035232 1.8818393 234 88 12
0.1361599 1.2136359 1.8818393 234 88 12
0.13428214 1.2138658 1.8818393 234 88 12
0.10080853 1.2196993 1.9033936 234 88 12
0.093598545 1.2205818 1.9033936 234 88 12
0.082783572 1.2219055 1.9033936 234 88 12
0.14950787 1.2136914 1.8809633 234 88 12
0.16285583 1.2137468 1.8800873 234 88 12
0.09038464 1.2242181 1.9017118 234 88 12
0.083174661 1.2251006 1.9017118 234 88 12
0.1762038 1.2138022 1.8792112 234 88 12
0.099592663 1.2247126 1.9008708 234 88 12
0.19142953 1.2136278 1.8783352 234 88 12
0.18767402 1.2140875 1.8783352 234 88 12
0.10505294 1.2242002 1.8783352 234 88 12
0.10317519 1.2244301 1.8783352 234 88 12
0.20477749 1.2136832 1.8774592 234 88 12
0.16332465 1.21119 1.7598287 234 88 12
0.15878248 1.2115149 1.7562387 234 88 12
0.15648492 1.2117962 1.7562387 234 88 12
0.14766271 1.2153711 1.7950262 234 88 12
0.14531094 1.2147226 1.7804704 234 88 12
0.14348301 1.216458 1.8039676 234 88 12
0.14041419 1.2201289 1.8551933 234 88 12
0.13831587 1.2200415 1.8498416 234 88 12
0.11840091 1.2242557 1.8774592 234 88 12
0.22455151 1.2142823 1.8983481 234 88 12
0.21812546 1.2137387 1.8765831 234 88 12
0.15667421 1.2146143 1.7678375 234 88 12
0.15434377 1.2185776 1.828021 234 88 12
0.15027824 1.2193547 1.8325939 234 88 12
0.1455117 1.2164978 1.7763009 234 88 12
0.14148618 1.2183197 1.7980486 234 88 12
0.13750271 1.2195371 1.8099915 234 88 12
0.1347018 1.2224768 1.8524835 234 88 12
0.12925625 1.2208284 1.8146049 234 88 12
0.12268126 1.2153602 1.7119631 234 88 12
0.11836524 1.213465 1.672308 234 88 12
0.12611562 1.2250006 1.8765831 234 88 12
0.22584018 1.2144836 1.8757071 234 88 12
0.18043706 1.208554 1.6773542 234 88 12
0.17699422 1.2105339 1.7042637 234 88 12
0.16621701 1.2205774 1.8549151 234 88 12
0.16632375 1.2142661 1.7461586 234 88 12
0.16108201 1.2177631 1.7954643 234 88 12
0.15472853 1.2146438 1.7281748 234 88 12
0.15247102 1.219075 1.7999187 234 88 12
0.14111677 1.2184681 1.7654414 234 88 12
0.13453282 1.2196504 1.7719418 234 88 12
0.13073109 1.2211841 1.7903907 234 88 12
0.12239951 1.2168629 1.6981636 234 88 12
0.11719359 1.2172407 1.6936833 234 88 12
0.11715545 1.2199124 1.7397387 234 88 12
0.071400926 1.2036711 1.3625813 234 88 12
0.19288512 1.19617 1.4355471 234 88 12
0.17551453 1.2116015 1.6787118 234 88 12
0.17137419 1.2154291 1.7394019 234 88 12
0.16760561 1.2193235 1.8021444 234 88 12
0.16575828 1.2187511 1.7875504 234 88 12
0.14481825 1.2243553 1.8431311 234 88 12
0.13990931 1.2163887 1.6865555 234 88 12
0.14050551 1.2240449 1.8278099 234 88 12
0.13379814 1.2238744 1.8096905 234 88 12
0.12919344 1.2206233 1.7399734 234 88 12
0.1270536 1.2241402 1.7994597 234 88 12
0.12571368 1.2252481 1.8167108 234 88 12
0.116913 1.2189211 1.6813937 234 88 12
0.11269915 1.2202832 1.696861 234 88 12
0.1069601 1.2180246 1.6427472 234 88 12
0.084347919 1.2346861 1.8966663 234 88 12
0.082545422 1.2349068 1.8966663 234 88 12
0.17706212 1.2156917 1.7159871 234 88 12
0.1774087 1.2108812 1.6234651 234 88 12
0.16142403 1.2221068 1.803327 234 88 12
0.16037464 1.216279 1.6877491 234 88 12
0.15526234 1.2185303 1.7192907 234 88 12
0.14375456 1.2218238 1.7558689 234 88 12
0.13523823 1.2194551 1.6896778 234 88 12
0.1346394 1.2229778 1.7566103 234 88 12
0.13313694 1.2244154 1.7809396 234 88 12
0.12598476 1.2180912 1.6412356 234 88 12
0.11905124 1.2228978 1.7180355 234 88 12
0.10068128 1.2155169 1.5311829 234 88 12
0.10980722 1.2262225 1.7605951 234 88 12
0.092253894 1.2192206 1.5830356 234 88 12
0.097160935 1.2347394 1.8958254 234 88 12
0.18701851 1.224303 1.8730791 234 88 12
0.20739648 1.1970725 1.361588 234 88 12
0.17762975 1.2254522 1.8730791 234 88 12
0.18540122 1.2129923 1.6351044 234 88 12
0.17954095 1.2178339 1.720386 234 88 12
0.17809319 1.2166402 1.6920406 234 88 12
0.17082103 1.2216308 1.7768282 234 88 12
0.1706339 1.2174709 1.690336 234 88 12
0.16723232 1.2200609 1.7352848 234 88 12
0.16162118 1.2241124 1.8048575 234 88 12
0.15560564 1.2192202 1.6884726 234 88 12
0.15094003 1.2240032 1.7755662 234 88 12
0.14848153 1.2227299 1.7430164 234 88 12
0.14486805 1.2266455 1.8148351 234 88 12
0.14116721 1.2227029 1.7239426 234 88 12
0.13921766 1.223942 1.7446343 234 88 12
0.13791203 1.2260839 1.7856172 234 88 12
0.13399787 1.223582 1.723978 234 88 12
0.12628785 1.2266607 1.7681239 234 88 12
0.12314364 1.2283666 1.7954419 234 88 12
0.11610902 1.2246982 1.7017809 234 88 12
0.10852316 1.2211773 1.6097789 234 88 12
0.10359478 1.2200239 1.5734556 234 88 12
0.09579017 1.2171906 1.4951178 234 88 12
0.10652452 1.226077 1.7060337 234 88 12
0.087846309 1.2170539 1.4721833 234 88 12
0.071105964 1.2148701 1.3846592 234 88 12
0.10251968 1.2346456 1.8730791 234 88 12
0.22477725 1.2213706 1.872203 234 88 12
0.219144 1.2220601 1.872203 234 88 12
0.20787749 1.2234391 1.872203 234 88 12
0.20224424 1.2241286 1.872203 234 88 12
0.19848873 1.2245883 1.872203 234 88 12
0.18722223 1.2259673 1.872203 234 88 12
0.20779082 1.2002943 1.3598921 234 88 12
0.19297756 1.2126962 1.5941665 234 88 12
0.19609173 1.2062467 1.4599078 234 88 12
0.19062774 1.2093185 1.5130737 234 88 12
0.17816825 1.2221357 1.7629082 234 88 12
0.18440861 1.2100798 1.5130737 234 88 12
0.17470935 1.2210116 1.7286736 234 88 12
0.17379746 1.2186943 1.6749352 234 88 12
0.16252531 1.2236274 1.7535539 234 88 12
0.15754236 1.2270888 1.8166417 234 88 12
0.15567079 1.2244717 1.7536685 234 88 12
0.15116276 1.2257568 1.7698938 234 88 12
0.13944629 1.2302682 1.8379804 234 88 12
0.1323995 1.2266995 1.7399385 234 88 12
0.1309244 1.2279985 1.7646837 234 88 12
0.12833185 1.2279047 1.7555867 234 88 12
0.1239717 1.228635 1.7599378 234 88 12
0.11924758 1.2269112 1.7090061 234 88 12
0.11239544 1.2238946 1.6237085 234 88 12
0.10928935 1.2239668 1.6168952 234 88 12
0.11262713 1.2282552 1.7208136 234 88 12
0.1090335 1.2278234 1.7015276 234 88 12
0.09401875 1.2209967 1.5098289 234 88 12
0.075047426 1.2175864 1.3830004 234 88 12
0.10835665 1.2356204 1.872203 234 88 12
0.10460114 1.2360801 1.872203 234 88 12
0.072317079 1.2410233 1.8941435 234 88 12
0.22392228 1.2240884 1.8933026 234 88 12
0.21559221 1.2241842 1.8713269 234 88 12
0.21210748 1.2028157 1.3529584 234 88 12
0.20910434 1.2026521 1.3403252 234 88 12
0.19468312 1.2110457 1.4979755 234 88 12
0.18371966 1.2175696 1.6212223 234 88 12
0.17918332 1.2203331 1.6737435 234 88 12
0.17143542 1.2253219 1.7698432 234 88 12
0.16893582 1.2261077 1.7812545 234 88 12
0.16681813 1.2262272 1.7779309 234 88 12
0.16460106 1.2265462 1.7790643 234 88 12
0.16288829 1.2252867 1.7441238 234 88 12
0.15942727 1.2303771 1.8551166 234 88 12
0.15599495 1.2255676 1.7307354 234 88 12
0.15363342 1.2273242 1.7656418 234 88 12
0.15147236 1.2285731 1.7890519 234 88 12
0.14183761 1.2272953 1.7306139 234 88 12
0.13984083 1.2282846 1.7483301 234 88 12
0.1385802 1.2302651 1.7917655 234 88 12
0.12723231 1.2256297 1.648482 234 88 12
0.12504096 1.2290649 1.7238073 234 88 12
0.12052514 1.2317756 1.7751311 234 88 12
0.1173058 1.231392 1.756636 234 88 12
0.10723143 1.2269826 1.6224349 234 88 12
0.10009161 1.2248454 1.5508192 234 88 12
0.10137612 1.2291341 1.6565596 234 88 12
0.097399019 1.2288228 1.6375771 234 88 12
0.087407835 1.2259609 1.5404246 234 88 12
0.097747564 1.2395321 1.8933026 234 88 12
0.094142571 1.2399734 1.8933026 234 88 12
0.083327599 1.2412971 1.8933026 234 88 12
0.072512619 1.2426209 1.8933026 234 88 12
0.22518468 1.2246993 1.870451 234 88 12
0.22540736 1.203317 1.3215163 234 88 12
0.21250378 1.2060534 1.3512542 234 88 12
0.20950533 1.2059281 1.3386008 234 88 12
0.20580915 1.2063805 1.3386008 234 88 12
0.19335763 1.215493 1.5336623 234 88 12
0.18026622 1.2242863 1.7185107 234 88 12
0.18103068 1.2206408 1.6272057 234 88 12
0.17619428 1.2204174 1.6062468 234 88 12
0.1688806 1.2285479 1.7922324 234 88 12
0.16825709 1.2257988 1.7196044 234 88 12
0.16722189 1.2229116 1.6421313 234 88 12
0.14464547 1.2296392 1.7440343 234 88 12
0.14286679 1.2310977 1.7759289 234 88 12
0.11583333 1.2305628 1.6771224 234 88 12
0.1135343 1.231016 1.6815398 234 88 12
0.10515469 1.2280926 1.5800266 234 88 12
0.10770058 1.2312294 1.6686699 234 88 12
0.099482082 1.2288284 1.5810938 234 88 12
0.092509918 1.2273314 1.5206751 234 88 12
0.081969686 1.2245512 1.4160469 234 88 12
0.09127105 1.2314538 1.6227465 234 88 12
0.2064866 1.2119745 1.4026262 234 88 12
0.19658311 1.2155299 1.4681368 234 88 12
0.17369418 1.2267898 1.7046016 234 88 12
0.17065355 1.2280304 1.7288799 234 88 12
0.16525784 1.2300508 1.766902 234 88 12
0.1540992 1.2321906 1.78854 234 88 12
0.14294639 1.2327178 1.7651136 234 88 12
0.14255884 1.2361227 1.8589797 234 88 12
0.13233632 1.2346193 1.781965 234 88 12
0.13060932 1.2352685 1.7942073 234 88 12
0.12200481 1.2327633 1.6947252 234 88 12
0.11943286 1.2347653 1.741896 234 88 12
0.11917796 1.236165 1.7801541 234 88 12
0.11795326 1.2369139 1.7969003 234 88 12
0.10182691 1.2322564 1.6115085 234 88 12
0.10963932 1.2369049 1.7681977 234 88 12
0.10236688 1.2375183 1.7604635 234 88 12
0.066672638 1.2271403 1.3481843 234 88 12
0.078311197 1.2451543 1.8916208 234 88 12
0.072903708 1.2458161 1.8916208 234 88 12
0.20389426 1.2172683 1.4577765 234 88 12
0.19463335 1.2179565 1.4441373 234 88 12
0.18153118 1.2255352 1.6271555 234 88 12
0.1703164 1.2275282 1.6461558 234 88 12
0.16635166 1.2303944 1.7190863 234 88 12
0.16069148 1.2336212 1.7967055 234 88 12
0.14560321 1.2348746 1.778528 234 88 12
0.13623719 1.235238 1.7545439 234 88 12
0.1344547 1.2359922 1.7709625 234 88 12
0.13204548 1.2360903 1.7649345 234 88 12
0.12884599 1.2356116 1.7382765 234 88 12
0.1247699 1.2365407 1.7514554 234 88 12
0.11737723 1.2338573 1.641541 234 88 12
0.11755697 1.2356861 1.6982343 234 88 12
0.10859175 1.2328023 1.5762886 234 88 12
0.11055388 1.2367457 1.7044349 234 88 12
0.092406675 1.2324988 1.5063106 234 88 12
0.095327571 1.2349395 1.5920212 234 88 12
0.080166966 1.2313367 1.424825 234 88 12
0.09284088 1.2365776 1.632879 234 88 12
0.091124207 1.2452074 1.8907799 234 88 12
0.22680332 1.2132014 1.3136327 234 88 12
0.21427651 1.2153867 1.3357129 234 88 12
0.20075028 1.2186301 1.3894719 234 88 12
0.18788867 1.2267251 1.6102608 234 88 12
0.18290769 1.2290223 1.6673977 234 88 12
0.177936 1.229495 1.6628023 234 88 12
0.17254013 1.2304409 1.672466 234 88 12
0.16825713 1.2333059 1.7517262 234 88 12
0.16305307 1.2352263 1.7951782 234 88 12
0.16172133 1.2333957 1.7276769 234 88 12
0.15900403 1.2350113 1.7711185 234 88 12
0.15673861 1.2356386 1.7829707 234 88 12
0.15239713 1.236035 1.7783992 234 88 12
0.14835942 1.2376416 1.8160615 234 88 12
0.14481376 1.2344248 1.6924522 234 88 12
0.14432842 1.2382815 1.8210235 234 88 12
0.14049412 1.2359384 1.7257978 234 88 12
0.13737082 1.2381594 1.7880559 234 88 12
0.13251287 1.2400621 1.8323489 234 88 12
0.12616438 1.240613 1.8246886 234 88 12
0.1254859 1.2414992 1.8518822 234 88 12
0.11863004 1.2395895 1.7588065 234 88 12
0.10580806 1.2370411 1.6193839 234 88 12
0.10722306 1.2388045 1.6849538 234 88 12
0.093901053 1.2356298 1.5222487 234 88 12
0.09334857 1.2367539 1.558023 234 88 12
0.077144235 1.2347568 1.4232432 234 88 12
0.090080418 1.2391914 1.6270115 234 88 12
0.099986427 1.2450911 1.8678229 234 88 12
0.098529734 1.2459226 1.889939 234 88 12
-1.2012398 1.1959801 1.4702969 234 88 12
-1.2038958 1.1932856 1.4702969 234 88 12
-1.2052238 1.1919383 1.4702969 234 88 12
-1.2141687 1.1848174 1.4689941 234 88 12
-1.2168247 1.1821228 1.4689941 234 88 12
-1.1978817 1.2032952 1.4676914 234 88 12
-1.2250675 1.1796224 1.4650859 234 88 12
-1.1941726 1.2129204 1.4637831 234 88 12
-1.2034686 1.2034894 1.4637831 234 88 12
-1.2047966 1.2021421 1.4637831 234 88 12
-1.2140925 1.192711 1.4637831 234 88 12
-1.2154205 1.1913637 1.4637831 234 88 12
-1.2247164 1.1819326 1.4637831 234 88 12
-1.1938215 1.2152307 1.4624804 234 88 12
-1.2243654 1.1842428 1.4624804 234 88 12
-1.1921425 1.2188883 1.4611777 234 88 12
-1.2352641 1.1790478 1.4585721 234 88 12
-1.1910893 1.225819 1.4572694 234 88 12
-1.2199593 1.2063028 1.4782008 234 88 12
-1.2237835 1.2024229 1.4782008 234 88 12
-1.2250583 1.2011296 1.4782008 234 88 12
-1.1933942 1.2254345 1.4559667 234 88 12
-1.2040181 1.2146562 1.4559667 234 88 12
-1.2247213 1.2033472 1.4769503 234 88 12
-1.2252661 1.1930994 1.4559667 234 88 12
-1.234562 1.1836684 1.4559667 234 88 12
-1.1887082 1.234097 1.4533613 234 88 12
-1.1940202 1.2287078 1.4533613 234 88 12
-1.1993321 1.2233186 1.4533613 234 88 12
-1.2033161 1.2192767 1.4533613 234 88 12
-1.209956 1.2125401 1.4533613 234 88 12
-1.2176735 1.214249 1.4744493 234 88 12
-1.2189482 1.2129557 1.4744493 234 88 12
-1.2253221 1.2064892 1.4744493 234 88 12
-1.2291465 1.2026093 1.4744493 234 88 12
-1.2298759 1.1923307 1.4533613 234 88 12
-1.2351879 1.1869415 1.4533613 234 88 12
-1.2404999 1.1815523 1.4533613 234 88 12
1.18855 -1.1838402 1.5144662 234 88 12
1.1911366 -1.1812906 1.5144662 234 88 12
1.1937232 -1.1787411 1.5144662 234 88 12
1.1929853 -1.1831663 1.5119652 234 88 12
1.2033317 -1.172968 1.5119652 234 88 12
1.1848565 -1.1930274 1.5107147 234 88 12
1.2068427 -1.1713563 1.5107147 234 88 12
1.1833806 -1.2018776 1.5057125 234 88 12
1.193727 -1.1916795 1.5057125 234 88 12
1.2040734 -1.1814812 1.5057125 234 88 12
1.2144198 -1.1712831 1.5057125 234 88 12
1.1830117 -1.2040901 1.504462 234 88 12
1.1933581 -1.193892 1.504462 234 88 12
1.2037045 -1.1836939 1.504462 234 88 12
1.2140509 -1.1734957 1.504462 234 88 12
1.2242148 -1.1708729 1.4994599 234 88 12
1.1824602 -1.2138782 1.4982094 234 88 12
1.1928066 -1.2036799 1.4982094 234 88 12
1.2251391 -1.1718107 1.4982094 234 88 12
1.2040774 -1.1944196 1.4969587 234 88 12
1.2144238 -1.1842214 1.4969587 234 88 12
1.1830156 -1.2170285 1.4957082 234 88 12
1.1868955 -1.2132041 1.4957082 234 88 12
1.193362 -1.2068303 1.4957082 234 88 12
1.1972419 -1.203006 1.4957082 234 88 12
1.2037084 -1.1966321 1.4957082 234 88 12
1.2088816 -1.1915331 1.4957082 234 88 12
1.2140548 -1.186434 1.4957082 234 88 12
1.219228 -1.1813349 1.4957082 234 88 12
1.2244012 -1.1762358 1.4957082 234 88 12
1.2295744 -1.1711367 1.4957082 234 88 12
1.235303 -1.169188 1.4932072 234 88 12
1.1931795 -1.2144058 1.4907061 234 88 12
1.2035259 -1.2042075 1.4907061 234 88 12
1.2138723 -1.1940094 1.4907061 234 88 12
1.2242187 -1.1838113 1.4907061 234 88 12
1.2345651 -1.1736131 1.4907061 234 88 12
1.1837574 -1.2255417 1.4894556 234 88 12
1.245098 -1.1687778 1.4869546 234 88 12
1.2731304 -1.2300053 1.6665779 234 88 12
1.1848682 -1.2318423 1.4844534 234 88 12
1.1939213 -1.222919 1.4844534 234 88 12
1.2042677 -1.2127208 1.4844534 234 88 12
1.2146142 -1.2025226 1.4844534 234 88 12
1.2183096 -1.1888607 1.4637831 234 88 12
1.2250462 -1.1822207 1.4637831 234 88 12
1.235307 -1.1821263 1.4844534 234 88 12
1.2456534 -1.1719282 1.4844534 234 88 12
1.2469467 -1.1706533 1.4844534 234 88 12
1.1935524 -1.2251315 1.4832029 234 88 12
1.2038988 -1.2149334 1.4832029 234 88 12
1.2142452 -1.2047352 1.4832029 234 88 12
1.2138834 -1.1951495 1.4624804 234 88 12
1.2246618 -1.1845256 1.4624804 234 88 12
1.2354401 -1.1739017 1.4624804 234 88 12
1.1854235 -1.2349926 1.4819524 234 88 12
1.2108045 -1.2001104 1.4611777 234 88 12
1.240445 -1.1708946 1.4611777 234 88 12
1.2779446 -1.2299588 1.6633999 234 88 12
1.2090728 -1.2037433 1.459875 234 88 12
1.2450655 -1.1701925 1.4585721 234 88 12
1.2558172 -1.1693054 1.4794514 234 88 12
1.1930008 -1.2349194 1.4769503 234 88 12
1.2033472 -1.2247213 1.4769503 234 88 12
1.2146562 -1.2040181 1.4559667 234 88 12
1.2240872 -1.1947222 1.4559667 234 88 12
1.2348657 -1.1840982 1.4559667 234 88 12
1.2456441 -1.1734743 1.4559667 234 88 12
1.2563726 -1.1724558 1.4769503 234 88 12
1.2048408 -1.2156191 1.454664 234 88 12
1.2874546 -1.2264584 1.6594273 234 88 12
1.188383 -1.2431688 1.4744493 234 88 12
1.1935562 -1.2380698 1.4744493 234 88 12
1.1974361 -1.2342455 1.4744493 234 88 12
1.2039026 -1.2278717 1.4744493 234 88 12
1.2077825 -1.2240473 1.4744493 234 88 12
1.2044564 -1.217924 1.4533613 234 88 12
1.2098455 -1.212612 1.4533613 234 88 12
1.2138875 -1.2086281 1.4533613 234 88 12
1.220624 -1.2019881 1.4533613 234 88 12
1.2246659 -1.1980041 1.4533613 234 88 12
1.2300551 -1.1926922 1.4533613 234 88 12
1.2354443 -1.1873802 1.4533613 234 88 12
1.2408334 -1.1820682 1.4533613 234 88 12
1.2462226 -1.1767563 1.4533613 234 88 12
1.2516118 -1.1714442 1.4533613 234 88 12
1.2556537 -1.1674602 1.4533613 234 88 12
1.2608079 -1.1717818 1.4744493 234 88 12
1.2621012 -1.1705071 1.4744493 234 88 12
1.2913285 -1.2238146 1.6586328 234 88 12
1.3267416 1.3177675 1.5536869 234 88 12
1.3259257 1.3185833 1.5536869 234 88 12
1.3292274 1.3186216 1.5511566 234 88 12
-2.0035737 -0.71092087 -0.69894117 234 88 12
