<svg xmlns="http://www.w3.org/2000/svg" width="1460" height="560" viewBox="0 0 1460 560">
<style>text{font-family:system-ui,sans-serif;fill:#0f172a}.title{font-size:22px;font-weight:700}.subtitle{font-size:12px;fill:#475569}.panel{font-size:14px;font-weight:650}.tick{font-size:10px;fill:#475569}.axis{stroke:#64748b;stroke-width:1}.grid{stroke:#e2e8f0;stroke-width:1}.legend{font-size:12px}.value{font-size:10px;font-weight:600}</style>
<rect width="100%" height="100%" fill="#ffffff"/>
<text x="730.00" y="32" class="title" text-anchor="middle">Per-step policy quality against true geometric gain</text>
<text x="730.00" y="54" class="subtitle" text-anchor="middle">Each point is a mean over available object rollouts; decision 1 follows the initial view.</text>
<line x1="710.00" y1="92" x2="730.00" y2="92" stroke="#2563eb" stroke-width="3"/>
<text x="737.00" y="96.00" class="legend">farthest</text>
<text x="223.00" y="116" class="panel" text-anchor="middle">Selected true gain</text>
<line x1="75.00" y1="480.00" x2="371.00" y2="480.00" class="grid"/>
<text x="67.00" y="484.00" class="tick" text-anchor="end">0.00</text>
<line x1="75.00" y1="409.00" x2="371.00" y2="409.00" class="grid"/>
<text x="67.00" y="413.00" class="tick" text-anchor="end">0.04</text>
<line x1="75.00" y1="338.00" x2="371.00" y2="338.00" class="grid"/>
<text x="67.00" y="342.00" class="tick" text-anchor="end">0.08</text>
<line x1="75.00" y1="267.00" x2="371.00" y2="267.00" class="grid"/>
<text x="67.00" y="271.00" class="tick" text-anchor="end">0.12</text>
<line x1="75.00" y1="196.00" x2="371.00" y2="196.00" class="grid"/>
<text x="67.00" y="200.00" class="tick" text-anchor="end">0.16</text>
<line x1="75.00" y1="125.00" x2="371.00" y2="125.00" class="grid"/>
<text x="67.00" y="129.00" class="tick" text-anchor="end">0.20</text>
<line x1="75.00" y1="125.00" x2="75.00" y2="480.00" class="axis"/>
<line x1="75.00" y1="480.00" x2="371.00" y2="480.00" class="axis"/>
<text x="75.00" y="499.00" class="tick" text-anchor="middle">0.5</text>
<text x="134.20" y="499.00" class="tick" text-anchor="middle">2.3</text>
<text x="193.40" y="499.00" class="tick" text-anchor="middle">4.1</text>
<text x="252.60" y="499.00" class="tick" text-anchor="middle">5.9</text>
<text x="311.80" y="499.00" class="tick" text-anchor="middle">7.7</text>
<text x="371.00" y="499.00" class="tick" text-anchor="middle">9.5</text>
<text x="223.00" y="528.00" class="subtitle" text-anchor="middle">decision number</text>
<polyline points="90.86,156.96 123.89,145.09 156.93,312.61 189.96,340.18 223.00,321.80 256.04,458.94 289.07,464.58 322.11,467.33 355.14,465.21" fill="none" stroke="#2563eb" stroke-width="3" stroke-linejoin="round" data-policy="farthest"/>
<circle cx="90.86" cy="156.96" r="3" fill="#2563eb" data-policy="farthest"/>
<circle cx="123.89" cy="145.09" r="3" fill="#2563eb" data-policy="farthest"/>
<circle cx="156.93" cy="312.61" r="3" fill="#2563eb" data-policy="farthest"/>
<circle cx="189.96" cy="340.18" r="3" fill="#2563eb" data-policy="farthest"/>
<circle cx="223.00" cy="321.80" r="3" fill="#2563eb" data-policy="farthest"/>
<circle cx="256.04" cy="458.94" r="3" fill="#2563eb" data-policy="farthest"/>
<circle cx="289.07" cy="464.58" r="3" fill="#2563eb" data-policy="farthest"/>
<circle cx="322.11" cy="467.33" r="3" fill="#2563eb" data-policy="farthest"/>
<circle cx="355.14" cy="465.21" r="3" fill="#2563eb" data-policy="farthest"/>
<text x="561.00" y="116" class="panel" text-anchor="middle">Normalized regret ↓</text>
<line x1="413.00" y1="480.00" x2="709.00" y2="480.00" class="grid"/>
<text x="405.00" y="484.00" class="tick" text-anchor="end">0.00</text>
<line x1="413.00" y1="409.00" x2="709.00" y2="409.00" class="grid"/>
<text x="405.00" y="413.00" class="tick" text-anchor="end">0.20</text>
<line x1="413.00" y1="338.00" x2="709.00" y2="338.00" class="grid"/>
<text x="405.00" y="342.00" class="tick" text-anchor="end">0.40</text>
<line x1="413.00" y1="267.00" x2="709.00" y2="267.00" class="grid"/>
<text x="405.00" y="271.00" class="tick" text-anchor="end">0.60</text>
<line x1="413.00" y1="196.00" x2="709.00" y2="196.00" class="grid"/>
<text x="405.00" y="200.00" class="tick" text-anchor="end">0.80</text>
<line x1="413.00" y1="125.00" x2="709.00" y2="125.00" class="grid"/>
<text x="405.00" y="129.00" class="tick" text-anchor="end">1.00</text>
<line x1="413.00" y1="125.00" x2="413.00" y2="480.00" class="axis"/>
<line x1="413.00" y1="480.00" x2="709.00" y2="480.00" class="axis"/>
<text x="413.00" y="499.00" class="tick" text-anchor="middle">0.5</text>
<text x="472.20" y="499.00" class="tick" text-anchor="middle">2.3</text>
<text x="531.40" y="499.00" class="tick" text-anchor="middle">4.1</text>
<text x="590.60" y="499.00" class="tick" text-anchor="middle">5.9</text>
<text x="649.80" y="499.00" class="tick" text-anchor="middle">7.7</text>
<text x="709.00" y="499.00" class="tick" text-anchor="middle">9.5</text>
<text x="561.00" y="528.00" class="subtitle" text-anchor="middle">decision number</text>
<polyline points="428.86,242.98 461.89,357.63 494.93,298.10 527.96,298.70 561.00,451.35 594.04,309.26 627.07,277.21 660.11,270.14 693.14,322.78" fill="none" stroke="#2563eb" stroke-width="3" stroke-linejoin="round" data-policy="farthest"/>
<circle cx="428.86" cy="242.98" r="3" fill="#2563eb" data-policy="farthest"/>
<circle cx="461.89" cy="357.63" r="3" fill="#2563eb" data-policy="farthest"/>
<circle cx="494.93" cy="298.10" r="3" fill="#2563eb" data-policy="farthest"/>
<circle cx="527.96" cy="298.70" r="3" fill="#2563eb" data-policy="farthest"/>
<circle cx="561.00" cy="451.35" r="3" fill="#2563eb" data-policy="farthest"/>
<circle cx="594.04" cy="309.26" r="3" fill="#2563eb" data-policy="farthest"/>
<circle cx="627.07" cy="277.21" r="3" fill="#2563eb" data-policy="farthest"/>
<circle cx="660.11" cy="270.14" r="3" fill="#2563eb" data-policy="farthest"/>
<circle cx="693.14" cy="322.78" r="3" fill="#2563eb" data-policy="farthest"/>
<text x="899.00" y="116" class="panel" text-anchor="middle">Spearman ↑</text>
<line x1="751.00" y1="480.00" x2="1047.00" y2="480.00" class="grid"/>
<text x="743.00" y="484.00" class="tick" text-anchor="end">-1.00</text>
<line x1="751.00" y1="409.00" x2="1047.00" y2="409.00" class="grid"/>
<text x="743.00" y="413.00" class="tick" text-anchor="end">-0.60</text>
<line x1="751.00" y1="338.00" x2="1047.00" y2="338.00" class="grid"/>
<text x="743.00" y="342.00" class="tick" text-anchor="end">-0.20</text>
<line x1="751.00" y1="267.00" x2="1047.00" y2="267.00" class="grid"/>
<text x="743.00" y="271.00" class="tick" text-anchor="end">0.20</text>
<line x1="751.00" y1="196.00" x2="1047.00" y2="196.00" class="grid"/>
<text x="743.00" y="200.00" class="tick" text-anchor="end">0.60</text>
<line x1="751.00" y1="125.00" x2="1047.00" y2="125.00" class="grid"/>
<text x="743.00" y="129.00" class="tick" text-anchor="end">1.00</text>
<line x1="751.00" y1="125.00" x2="751.00" y2="480.00" class="axis"/>
<line x1="751.00" y1="480.00" x2="1047.00" y2="480.00" class="axis"/>
<text x="751.00" y="499.00" class="tick" text-anchor="middle">0.5</text>
<text x="810.20" y="499.00" class="tick" text-anchor="middle">2.3</text>
<text x="869.40" y="499.00" class="tick" text-anchor="middle">4.1</text>
<text x="928.60" y="499.00" class="tick" text-anchor="middle">5.9</text>
<text x="987.80" y="499.00" class="tick" text-anchor="middle">7.7</text>
<text x="1047.00" y="499.00" class="tick" text-anchor="middle">9.5</text>
<text x="899.00" y="528.00" class="subtitle" text-anchor="middle">decision number</text>
<polyline points="766.86,218.94 799.89,236.22 832.93,192.98 865.96,193.75 899.00,211.50 932.04,270.47 965.07,263.85 998.11,258.60 1031.14,253.55" fill="none" stroke="#2563eb" stroke-width="3" stroke-linejoin="round" data-policy="farthest"/>
<circle cx="766.86" cy="218.94" r="3" fill="#2563eb" data-policy="farthest"/>
<circle cx="799.89" cy="236.22" r="3" fill="#2563eb" data-policy="farthest"/>
<circle cx="832.93" cy="192.98" r="3" fill="#2563eb" data-policy="farthest"/>
<circle cx="865.96" cy="193.75" r="3" fill="#2563eb" data-policy="farthest"/>
<circle cx="899.00" cy="211.50" r="3" fill="#2563eb" data-policy="farthest"/>
<circle cx="932.04" cy="270.47" r="3" fill="#2563eb" data-policy="farthest"/>
<circle cx="965.07" cy="263.85" r="3" fill="#2563eb" data-policy="farthest"/>
<circle cx="998.11" cy="258.60" r="3" fill="#2563eb" data-policy="farthest"/>
<circle cx="1031.14" cy="253.55" r="3" fill="#2563eb" data-policy="farthest"/>
<text x="1237.00" y="116" class="panel" text-anchor="middle">NDCG@5 ↑</text>
<line x1="1089.00" y1="480.00" x2="1385.00" y2="480.00" class="grid"/>
<text x="1081.00" y="484.00" class="tick" text-anchor="end">0.00</text>
<line x1="1089.00" y1="409.00" x2="1385.00" y2="409.00" class="grid"/>
<text x="1081.00" y="413.00" class="tick" text-anchor="end">0.20</text>
<line x1="1089.00" y1="338.00" x2="1385.00" y2="338.00" class="grid"/>
<text x="1081.00" y="342.00" class="tick" text-anchor="end">0.40</text>
<line x1="1089.00" y1="267.00" x2="1385.00" y2="267.00" class="grid"/>
<text x="1081.00" y="271.00" class="tick" text-anchor="end">0.60</text>
<line x1="1089.00" y1="196.00" x2="1385.00" y2="196.00" class="grid"/>
<text x="1081.00" y="200.00" class="tick" text-anchor="end">0.80</text>
<line x1="1089.00" y1="125.00" x2="1385.00" y2="125.00" class="grid"/>
<text x="1081.00" y="129.00" class="tick" text-anchor="end">1.00</text>
<line x1="1089.00" y1="125.00" x2="1089.00" y2="480.00" class="axis"/>
<line x1="1089.00" y1="480.00" x2="1385.00" y2="480.00" class="axis"/>
<text x="1089.00" y="499.00" class="tick" text-anchor="middle">0.5</text>
<text x="1148.20" y="499.00" class="tick" text-anchor="middle">2.3</text>
<text x="1207.40" y="499.00" class="tick" text-anchor="middle">4.1</text>
<text x="1266.60" y="499.00" class="tick" text-anchor="middle">5.9</text>
<text x="1325.80" y="499.00" class="tick" text-anchor="middle">7.7</text>
<text x="1385.00" y="499.00" class="tick" text-anchor="middle">9.5</text>
<text x="1237.00" y="528.00" class="subtitle" text-anchor="middle">decision number</text>
<polyline points="1104.86,246.53 1137.89,255.26 1170.93,229.25 1203.96,207.72 1237.00,146.58 1270.04,273.71 1303.07,280.60 1336.11,276.60 1369.14,266.70" fill="none" stroke="#2563eb" stroke-width="3" stroke-linejoin="round" data-policy="farthest"/>
<circle cx="1104.86" cy="246.53" r="3" fill="#2563eb" data-policy="farthest"/>
<circle cx="1137.89" cy="255.26" r="3" fill="#2563eb" data-policy="farthest"/>
<circle cx="1170.93" cy="229.25" r="3" fill="#2563eb" data-policy="farthest"/>
<circle cx="1203.96" cy="207.72" r="3" fill="#2563eb" data-policy="farthest"/>
<circle cx="1237.00" cy="146.58" r="3" fill="#2563eb" data-policy="farthest"/>
<circle cx="1270.04" cy="273.71" r="3" fill="#2563eb" data-policy="farthest"/>
<circle cx="1303.07" cy="280.60" r="3" fill="#2563eb" data-policy="farthest"/>
<circle cx="1336.11" cy="276.60" r="3" fill="#2563eb" data-policy="farthest"/>
<circle cx="1369.14" cy="266.70" r="3" fill="#2563eb" data-policy="farthest"/>
</svg>
