ply
format ascii 1.0
element vertex 1180
property float x
property float y
property float z
property uchar red
property uchar green
property uchar blue
end_header
-1.173368 -0.0052508614 -1.3568794 234 88 12
-1.1725178 -0.0082919654 -1.3517798 234 88 12
-1.1840477 -0.032547884 -1.5064629 234 88 12
-1.1701378 -0.00042891875 -1.3538775 234 88 12
-1.169825 -0.017868886 -1.3726491 234 88 12
-1.1671032 -0.00052895473 -1.3591409 234 88 12
-1.1661209 -0.0033797657 -1.3528309 234 88 12
-1.1658658 -0.007478537 -1.3552876 234 88 12
-1.1693001 -0.021697078 -1.4068358 234 88 12
-1.1644776 -0.0012841091 -1.3688939 234 88 12
-1.1628655 -0.0075889258 -1.3607917 234 88 12
-1.161882 -0.010519243 -1.354768 234 88 12
-1.1620162 -0.015166695 -1.361545 234 88 12
-1.1598339 0.001327564 -1.3554498 234 88 12
-1.1600977 -0.0035844515 -1.3635278 234 88 12
-1.1589692 -0.0062891962 -1.356081 234 88 12
-1.160587 -0.017480871 -1.3839819 234 88 12
-1.1567796 0.0012897878 -1.3602581 234 88 12
-1.1604825 -0.0088497866 -1.405022 234 88 12
-1.155768 -0.0060798312 -1.3592653 234 88 12
-1.1622468 -0.023954501 -1.4377359 234 88 12
-1.1538805 0.0010414904 -1.3664742 234 88 12
-1.1529931 -0.0020568366 -1.3620094 234 88 12
-1.1526784 -0.0060198815 -1.3635066 234 88 12
-1.151774 -0.013535067 -1.3636429 234 88 12
-1.1499871 0.0023100197 -1.3623654 234 88 12
-1.1509591 -0.0035180727 -1.3767455 234 88 12
-1.1487502 -0.0047633094 -1.3591994 234 88 12
-1.1482887 -0.0085333865 -1.3591994 234 88 12
-1.1482731 -0.012892104 -1.3636175 234 88 12
-1.1491418 -0.018346254 -1.3767253 234 88 12
-1.1463606 -0.0012729865 -1.365724 234 88 12
-1.1453925 -0.0087139262 -1.3652488 234 88 12
-1.1445481 -0.011974467 -1.3615559 234 88 12
-1.1451122 -0.017018685 -1.3713524 234 88 12
-1.1441721 0.0019337216 -1.3738867 234 88 12
-1.144033 -0.0022302235 -1.3768747 234 88 12
-1.1421309 -0.004029803 -1.3633138 234 88 12
-1.1416696 -0.0077977525 -1.3633138 234 88 12
-1.1421826 -0.021328403 -1.3808042 234 88 12
-1.1469655 -0.0060075233 -1.4315075 234 88 12
-1.1467644 -0.0098454105 -1.4336154 234 88 12
-1.1394391 -0.0044582752 -1.3709592 234 88 12
-1.1384044 -0.0074822889 -1.3657447 234 88 12
-1.1403286 -0.014152433 -1.3872504 234 88 12
-1.1394825 -0.017375119 -1.3837063 234 88 12
-1.1369921 -0.018745041 -1.3654798 234 88 12
-1.1442288 -0.031041043 -1.4340767 234 88 12
-1.1510098 -0.015187692 -1.4969131 234 88 12
-1.1512818 -0.019366711 -1.5029005 234 88 12
-1.135942 -0.0038298946 -1.3711536 234 88 12
-1.1353656 -0.007439231 -1.3701258 234 88 12
-1.1350216 -0.015614164 -1.375142 234 88 12
-1.1389753 -0.024276221 -1.4134548 234 88 12
-1.1334985 -0.022433493 -1.3698828 234 88 12
-1.1336328 -0.00037508458 -1.377697 234 88 12
-1.1321275 -0.0028224927 -1.3687197 234 88 12
-1.1316906 -0.0066188383 -1.3689262 234 88 12
-1.1352963 -0.019241501 -1.4072756 234 88 12
-1.1773769 -0.074475192 -1.7709118 234 88 12
-1.1308159 0.0037190777 -1.3797461 234 88 12
-1.1294495 0.0011069576 -1.3721482 234 88 12
-1.1321522 -0.01479802 -1.4058973 234 88 12
-1.12745 -0.013765723 -1.3708488 234 88 12
-1.1265495 -0.021320039 -1.3710235 234 88 12
-1.1296977 -0.028688127 -1.4004214 234 88 12
-1.1284012 0.003015663 -1.388785 234 88 12
-1.1265231 0.0010238107 -1.3772148 234 88 12
-1.1255586 -0.0021333091 -1.3731211 234 88 12
-1.125132 -0.0059364261 -1.3733963 234 88 12
-1.1375945 -0.023986505 -1.4772785 234 88 12
-1.1237154 -0.017190181 -1.373119 234 88 12
-1.1227994 -0.024724172 -1.3731629 234 88 12
-1.1275839 -0.033441015 -1.4145929 234 88 12
-1.1264613 -0.0024104214 -1.4047496 234 88 12
-1.1251544 -0.0050829868 -1.3979794 234 88 12
-1.126726 -0.011014646 -1.4138563 234 88 12
-1.1242533 -0.012445089 -1.3979794 234 88 12
-1.1278162 -0.020336855 -1.4292747 234 88 12
-1.1202253 -0.016625499 -1.3736814 234 88 12
-1.1196955 -0.020326553 -1.3731511 234 88 12
-1.1194632 -0.024315821 -1.3749189 234 88 12
-1.1255983 -0.034174897 -1.4256526 234 88 12
-1.1542964 -0.063784212 -1.6490055 234 88 12
-1.1190698 -0.040579021 -1.385956 234 88 12
-1.118275 -0.044031527 -1.3833846 234 88 12
-1.1194707 -0.049041633 -1.3958842 234 88 12
-1.1339707 -0.063834205 -1.5085942 234 88 12
-1.1208532 0.00071259501 -1.3882318 234 88 12
-1.1194177 -0.0019122106 -1.3807133 234 88 12
-1.1181387 -0.0090294657 -1.3779616 234 88 12
-1.1212118 -0.020525346 -1.4081911 234 88 12
-1.118996 -0.022468178 -1.3948454 234 88 12
-1.1168456 -0.024579383 -1.382079 234 88 12
-1.1381801 -0.048043057 -1.5454111 234 88 12
-1.1153103 -0.031527471 -1.3774582 234 88 12
-1.1148399 -0.035280269 -1.3773832 234 88 12
-1.1165591 -0.040819559 -1.3935585 234 88 12
-1.1143839 -0.04316894 -1.3808219 234 88 12
-1.1147583 -0.047548901 -1.3869649 234 88 12
-1.1137886 -0.050902046 -1.3831915 234 88 12
-1.1219192 -0.0038031605 -1.4227117 234 88 12
-1.1175035 -0.0030502651 -1.3929981 234 88 12
-1.1177068 -0.0074625267 -1.3978981 234 88 12
-1.1167467 -0.010630254 -1.3941246 234 88 12
-1.114122 -0.012155582 -1.3780546 234 88 12
-1.1130184 -0.019514661 -1.3767173 234 88 12
-1.1130006 -0.023691367 -1.3799698 234 88 12
-1.1122938 -0.027231175 -1.3781667 234 88 12
-1.1119766 -0.031119425 -1.379213 234 88 12
-1.1117765 -0.03509631 -1.3811024 234 88 12
-1.1119043 -0.055532862 -1.3984337 234 88 12
-1.1152004 0.00047671108 -1.3986207 234 88 12
-1.1127338 -0.0010587872 -1.3839412 234 88 12
-1.1114148 -0.0039117779 -1.3776929 234 88 12
-1.110953 -0.0076849475 -1.3776929 234 88 12
-1.1104417 -0.015625376 -1.3806608 234 88 12
-1.1100502 -0.019451661 -1.3811553 234 88 12
-1.1106477 -0.02416187 -1.3887188 234 88 12
-1.1106225 -0.028270407 -1.3917969 234 88 12
-1.1310835 -0.049574349 -1.5404152 234 88 12
-1.1084487 -0.034689005 -1.382854 234 88 12
-1.1076958 -0.038213417 -1.3807824 234 88 12
-1.1074609 -0.042145904 -1.3823694 234 88 12
-1.1086341 -0.047091782 -1.3938284 234 88 12
-1.1061587 -0.049390201 -1.3796929 234 88 12
-1.1127675 -0.057917327 -1.4289936 234 88 12
-1.1086349 0.00016283522 -1.3801826 234 88 12
-1.1081735 -0.0036076887 -1.3801826 234 88 12
-1.1407667 -0.040229879 -1.6137365 234 88 12
-1.1072009 -0.011100826 -1.379833 234 88 12
-1.1073183 -0.015415112 -1.3838996 234 88 12
-1.1064088 -0.027086925 -1.3871698 234 88 12
-1.1036483 -0.041379686 -1.3808007 234 88 12
-1.1027869 -0.04895829 -1.381218 234 88 12
-1.1083395 -0.0025687879 -1.4030825 234 88 12
-1.1044482 -0.011250488 -1.3856523 234 88 12
-1.1033592 -0.014429475 -1.3813393 234 88 12
-1.1033242 -0.018582467 -1.3842558 234 88 12
-1.1032256 -0.022657134 -1.3867215 234 88 12
-1.102237 -0.025967684 -1.3831266 234 88 12
-1.1023374 -0.030188225 -1.3869288 234 88 12
-1.1007087 -0.037156608 -1.3821489 234 88 12
-1.1052154 -0.052448306 -1.4214524 234 88 12
-1.1021454 -0.003434432 -1.3881305 234 88 12
-1.1065201 -0.011810204 -1.4206921 234 88 12
-1.1004771 -0.01024748 -1.3830994 234 88 12
-1.0994306 -0.025995661 -1.388412 234 88 12
-1.097829 -0.032977875 -1.3839076 234 88 12
-1.0984794 -0.037572678 -1.391221 234 88 12
-1.0983673 -0.041563649 -1.3934911 234 88 12
-1.1030777 -0.048864711 -1.4272839 234 88 12
-1.1004248 -0.0045780614 -1.4004897 234 88 12
-1.09997 -0.0082937889 -1.4004897 234 88 12
-1.097422 -0.010101379 -1.3867539 234 88 12
-1.096961 -0.013867185 -1.3867539 234 88 12
-1.0966473 -0.017759366 -1.387714 234 88 12
-1.0954213 -0.025038002 -1.3857358 234 88 12
-1.0946937 -0.032724295 -1.3869939 234 88 12
-1.0943561 -0.036579121 -1.3877866 234 88 12
-1.095332 -0.041351996 -1.3969969 234 88 12
-1.0959817 -0.0030855793 -1.3948051 234 88 12
-1.0957001 -0.0069910013 -1.3959405 234 88 12
-1.0923543 -0.024846168 -1.3892319 234 88 12
-1.0911322 -0.032149326 -1.3873347 234 88 12
-1.0929406 -0.037546501 -1.4016089 234 88 12
-1.0916519 -0.0017373257 -1.3901634 234 88 12
-1.103881 -0.016987665 -1.4700006 234 88 12
-1.092855 -0.011138557 -1.4034947 234 88 12
-1.0932781 -0.015606003 -1.4089882 234 88 12
-1.0906324 -0.017485468 -1.3953068 234 88 12
-1.0890975 -0.020367656 -1.388611 234 88 12
-1.1127477 -0.053429421 -1.5454845 234 88 12
-1.0887456 -0.0058887978 -1.3974148 234 88 12
-1.0863003 -0.016255204 -1.3908845 234 88 12
-1.0857544 -0.019958464 -1.3903706 234 88 12
-1.0854141 -0.023823215 -1.3911068 234 88 12
-1.0847074 -0.03151663 -1.3924118 234 88 12
-1.0872365 -0.037354693 -1.4104168 234 88 12
-1.0914121 -0.044152547 -1.4382129 234 88 12
-1.0857514 -0.0057674521 -1.4011264 234 88 12
-1.0855842 -0.0097530708 -1.4028709 234 88 12
-1.085367 -0.013683403 -1.404307 234 88 12
-1.0836456 -0.016396584 -1.3967469 234 88 12
-1.0825347 -0.019645147 -1.3928652 234 88 12
-1.0817889 -0.031403337 -1.3966386 234 88 12
-1.0841815 -0.037105713 -1.4134574 234 88 12
-1.0829011 -0.0057604536 -1.405605 234 88 12
-1.0894423 -0.01533866 -1.4467678 234 88 12
-1.080222 -0.011783488 -1.3952419 234 88 12
-1.0839225 -0.018831719 -1.4195931 234 88 12
-1.0800263 -0.019872911 -1.3994809 234 88 12
-1.0785472 -0.02286795 -1.3935446 234 88 12
-1.0789201 -0.027240623 -1.3983905 234 88 12
-1.0779651 -0.030651635 -1.3955224 234 88 12
-1.0779755 -0.034734219 -1.3982441 234 88 12
-1.0894538 -0.046239551 -1.4670138 234 88 12
-1.0791303 -0.0090768123 -1.4072891 234 88 12
-1.0769123 -0.011397939 -1.3971653 234 88 12
-1.0964988 -0.030721759 -1.5120817 234 88 12
-1.1240557 -0.061107293 -1.6758102 234 88 12
-1.0747743 -0.03034362 -1.3981124 234 88 12
-1.0812756 -0.038714584 -1.4375105 234 88 12
-1.0751712 -0.038712069 -1.4055529 234 88 12
-1.0749999 -0.012111116 -1.406952 234 88 12
-1.0740852 -0.019584429 -1.406952 234 88 12
-1.0721641 -0.022268767 -1.3987713 234 88 12
-1.0716368 -0.02598948 -1.3984021 234 88 12
-1.0720264 -0.030331364 -1.4031333 234 88 12
-1.0754281 -0.036599804 -1.4245485 234 88 12
-1.1151584 -0.065587811 -1.646863 234 88 12
-1.0687582 -0.021812484 -1.4001601 234 88 12
-1.0683495 -0.025616718 -1.4004471 234 88 12
-1.0699553 -0.030757172 -1.4117161 234 88 12
-1.0675204 -0.033210788 -1.4009531 234 88 12
-1.0711331 -0.039506003 -1.4230537 234 88 12
-1.0749983 -0.024196632 -1.4510338 234 88 12
-1.0757405 -0.028607357 -1.4573809 234 88 12
-1.06582 -0.025755467 -1.406543 234 88 12
-1.0677457 -0.031068357 -1.4192948 234 88 12
-1.0704678 -0.036784165 -1.4362339 234 88 12
-1.0639002 -0.036676589 -1.4036568 234 88 12
-1.0672541 -0.042693403 -1.4239051 234 88 12
-1.0655806 -0.023404047 -1.4221356 234 88 12
-1.0740341 -0.033042241 -1.4689684 234 88 12
-1.0626153 -0.029473513 -1.4113306 234 88 12
-1.0607407 -0.03232814 -1.4039159 234 88 12
-1.0605661 -0.036268495 -1.4054118 234 88 12
-1.0669631 -0.04402943 -1.4411298 234 88 12
-1.0603118 -0.021653073 -1.4135702 234 88 12
-1.060835 -0.026035948 -1.4186313 234 88 12
-1.0632577 -0.031587869 -1.4334463 234 88 12
-1.0778747 -0.044536617 -1.5108227 234 88 12
-1.0575399 -0.036043867 -1.4087447 234 88 12
-1.0592244 -0.041033614 -1.4197061 234 88 12
-1.0611928 -0.02405324 -1.4366062 234 88 12
-1.0568974 -0.025216535 -1.4171181 234 88 12
-1.0546707 -0.031880505 -1.4104968 234 88 12
-1.0535095 -0.035223942 -1.406968 234 88 12
-1.0547086 -0.039936021 -1.4153016 234 88 12
-1.0539944 -0.043533403 -1.4140165 234 88 12
-1.0550189 -0.048059259 -1.4214236 234 88 12
-1.0695685 -0.035036717 -1.4983217 234 88 12
-1.0860537 -0.048952978 -1.5822067 234 88 12
-1.0508411 -0.03117257 -1.4097704 234 88 12
-1.0510076 -0.039313026 -1.4151338 234 88 12
-1.0514408 -0.043540623 -1.4195184 234 88 12
-1.0488753 -0.046169348 -1.4091702 234 88 12
-1.0506691 -0.028653832 -1.4247057 234 88 12
-1.0493958 -0.031884871 -1.4207258 234 88 12
-1.0463037 -0.038140189 -1.4101785 234 88 12
-1.0515556 -0.04886191 -1.4399396 234 88 12
-1.0495675 -0.033514988 -1.4390836 234 88 12
-1.0469365 -0.035948876 -1.4286826 234 88 12
-1.042949 -0.037723951 -1.4118745 234 88 12
-1.0426582 -0.041584559 -1.4126854 234 88 12
-1.042691 -0.045603357 -1.4150244 234 88 12
-1.0438156 -0.031672388 -1.4290575 234 88 12
-1.043128 -0.035254609 -1.4279648 234 88 12
-1.0397681 -0.041410018 -1.4165368 234 88 12
-1.0425166 -0.046783742 -1.4314715 234 88 12
-1.0401407 -0.038974836 -1.4331993 234 88 12
-1.0560323 -0.051104683 -1.5081431 234 88 12
-0.15376835 -1.0459127 -1.5186945 234 88 12
-0.15011701 -1.0288389 -1.4431276 234 88 12
-0.14638937 -1.0273494 -1.4347354 234 88 12
-0.14276399 -1.0293103 -1.4412791 234 88 12
-0.15702847 -1.0262464 -1.4514228 234 88 12
-0.1533809 -1.0199064 -1.422623 234 88 12
-0.14960772 -1.018983 -1.4167446 234 88 12
-0.14584816 -1.0198202 -1.4183451 234 88 12
-0.1421205 -1.0210613 -1.4216752 234 88 12
-0.13877507 -1.0277734 -1.4484212 234 88 12
-0.15669461 -1.0183581 -1.4336883 234 88 12
-0.15297806 -1.0181154 -1.4307752 234 88 12
-0.14919853 -1.0156398 -1.4185044 234 88 12
-0.14543961 -1.0164825 -1.420102 234 88 12
-0.13790424 -1.0173513 -1.4198787 234 88 12
-0.15631637 -1.0128682 -1.4264007 234 88 12
-0.15257388 -1.0148133 -1.4325132 234 88 12
-0.14878933 -1.0122967 -1.420264 234 88 12
-0.1374872 -1.0138868 -1.4211142 234 88 12
-0.13379718 -1.0153009 -1.4250704 234 88 12
-0.15585898 -1.0149071 -1.4498227 234 88 12
-0.15215603 -1.0091687 -1.4247652 234 88 12
-0.14838518 -1.0091923 -1.4229931 234 88 12
-0.14463191 -1.0100635 -1.4246594 234 88 12
-0.13342153 -1.0123533 -1.4283732 234 88 12
-0.13059309 -1.0221168 -1.4664847 234 88 12
-0.085569739 -1.0213088 -1.4409122 234 88 12
-0.079919495 -1.0276145 -1.4636326 234 88 12
-0.15550591 -1.0058453 -1.428395 234 88 12
-0.15175851 -1.0072607 -1.4322076 234 88 12
-0.14798577 -1.0062687 -1.4264144 234 88 12
-0.13668659 -1.0074564 -1.4256358 234 88 12
-0.13293752 -1.0081067 -1.426399 234 88 12
-0.12850788 -1.0360223 -1.5354813 234 88 12
-0.12227278 -1.0142614 -1.4457232 234 88 12
-0.11827075 -1.0125648 -1.4370102 234 88 12
-0.11878705 -1.0392699 -1.5436819 234 88 12
-0.09425085 -1.0236733 -1.4695615 234 88 12
-0.088065073 -1.0146296 -1.4305055 234 88 12
-0.083910853 -1.0136771 -1.4246835 234 88 12
-0.080164842 -1.0142121 -1.4249885 234 88 12
-0.077723727 -1.0187994 -1.4420782 234 88 12
-0.073746726 -1.0184404 -1.4387076 234 88 12
-0.17382775 -1.0007629 -1.4322573 234 88 12
-0.16994193 -1.0033644 -1.4406003 234 88 12
-0.16622712 -1.0038191 -1.4406003 234 88 12
-0.16242684 -1.0066735 -1.449977 234 88 12
-0.15880768 -1.0042384 -1.4386817 234 88 12
-0.15510148 -1.0020368 -1.4282612 234 88 12
-0.15134004 -1.002519 -1.4283464 234 88 12
-0.14379868 -1.0029577 -1.4264456 234 88 12
-0.14002566 -1.0033357 -1.4261167 234 88 12
-0.12498749 -1.005538 -1.4275358 234 88 12
-0.12127516 -1.0063989 -1.4291315 234 88 12
-0.1138389 -1.0078186 -1.4311306 234 88 12
-0.11083844 -1.01253 -1.44818 234 88 12
-0.10647514 -1.009454 -1.4340122 234 88 12
-0.10349993 -1.0135942 -1.4488313 234 88 12
-0.09867122 -1.0089175 -1.4281573 234 88 12
-0.091427334 -1.0109376 -1.4326061 234 88 12
-0.087270558 -1.0098757 -1.4264416 234 88 12
-0.079756133 -1.0108731 -1.4267461 234 88 12
-0.075926267 -1.0111381 -1.4259466 234 88 12
-0.072633535 -1.0130264 -1.4317757 234 88 12
-0.072951846 -1.0250719 -1.4792029 234 88 12
-0.18046196 -1.000801 -1.4503204 234 88 12
-0.17691031 -0.99979943 -1.4447682 234 88 12
-0.17347716 -0.99671763 -1.4312296 234 88 12
-0.16598654 -0.99715024 -1.4293575 234 88 12
-0.1622224 -0.99761099 -1.4293575 234 88 12
-0.15469675 -0.99792564 -1.4270129 234 88 12
-0.15095183 -1.001093 -1.4374856 234 88 12
-0.13967746 -1.0011028 -1.4321886 234 88 12
-0.13217023 -1.0020158 -1.4321663 234 88 12
-0.12830518 -1.0013566 -1.4277886 234 88 12
-0.12081146 -1.0026371 -1.4291933 234 88 12
-0.11713315 -1.0036935 -1.4315363 234 88 12
-0.11330299 -1.00369 -1.4297106 234 88 12
-0.10968125 -1.0049533 -1.4328805 234 88 12
-0.10625142 -1.0070918 -1.439525 234 88 12
-0.10202872 -1.0051401 -1.4299815 234 88 12
-0.090621941 -1.0060414 -1.4280685 234 88 12
-0.079287648 -1.0073348 -1.4277056 234 88 12
-0.076920368 -1.012236 -1.445533 234 88 12
-0.07200262 -1.0090284 -1.430806 234 88 12
-0.071466416 -1.0187519 -1.4681422 234 88 12
-0.21312119 -0.99391997 -1.4536809 234 88 12
-0.21049932 -0.98944426 -1.4354119 234 88 12
-0.20659034 -0.99070626 -1.4383963 234 88 12
-0.20228103 -0.99422985 -1.4498079 234 88 12
-0.19919322 -0.99118328 -1.4367648 234 88 12
-0.19135307 -0.99454582 -1.4459168 234 88 12
-0.18747018 -0.99633563 -1.4509234 234 88 12
-0.18418658 -0.99332482 -1.4379253 234 88 12
-0.18030173 -0.99520785 -1.4432862 234 88 12
-0.17688516 -0.99226773 -1.4304955 234 88 12
-0.17311686 -0.99275315 -1.4305874 234 88 12
-0.16934809 -0.99325764 -1.4307522 234 88 12
-0.15052618 -0.99603993 -1.4325745 234 88 12
-0.14675577 -0.99605197 -1.4308625 234 88 12
-0.14302367 -0.99731666 -1.4339397 234 88 12
-0.13927029 -0.99777609 -1.4339397 234 88 12
-0.13546975 -0.99756581 -1.4313672 234 88 12
-0.13165601 -0.99743313 -1.4290837 234 88 12
-0.12789617 -0.99801505 -1.4295475 234 88 12
-0.11673097 -1.000401 -1.43343 234 88 12
-0.11020795 -1.006963 -1.455382 234 88 12
-0.10584725 -1.0037898 -1.4412631 234 88 12
-0.10162062 -1.0018059 -1.4317365 234 88 12
-0.097776659 -1.0018939 -1.4302794 234 88 12
-0.090245456 -1.0028297 -1.4303329 234 88 12
-0.086701863 -1.0041286 -1.4336278 234 88 12
-0.083614804 -1.0069526 -1.4429449 234 88 12
-0.079791673 -1.0070585 -1.4415659 234 88 12
-0.075640172 -1.0061517 -1.4361764 234 88 12
-0.075048245 -1.0161897 -1.4741328 234 88 12
-0.21413204 -0.98436141 -1.4324063 234 88 12
-0.21016951 -0.98575741 -1.4358255 234 88 12
-0.20244859 -0.98785198 -1.4401395 234 88 12
-0.19472206 -0.99039775 -1.4461445 234 88 12
-0.1914247 -0.98791653 -1.4353179 234 88 12
-0.18399842 -0.98810482 -1.4326133 234 88 12
-0.18025985 -0.9883005 -1.4316303 234 88 12
-0.17270829 -0.98941511 -1.4323444 234 88 12
-0.16894215 -0.98987609 -1.4323444 234 88 12
-0.16141893 -0.99049193 -1.4311998 234 88 12
-0.15764824 -0.99096566 -1.4312456 234 88 12
-0.15011653 -0.99256516 -1.4337887 234 88 12
-0.12372446 -0.9951992 -1.4315507 234 88 12
-0.11997538 -0.99581534 -1.4321408 234 88 12
-0.11634242 -0.99720293 -1.4356796 234 88 12
-0.10867194 -0.99718314 -1.4320818 234 88 12
-0.10492897 -0.99777192 -1.432572 234 88 12
-0.097620398 -0.99970543 -1.4364713 234 88 12
-0.094320051 -1.0020837 -1.4438807 234 88 12
-0.090757936 -1.0031801 -1.4463594 234 88 12
-0.089655623 -1.0134882 -1.484539 234 88 12
-0.08456333 -1.0084814 -1.4634094 234 88 12
-0.081048712 -1.009378 -1.4651597 234 88 12
-0.085545346 -1.0359943 -1.5671163 234 88 12
-0.2137235 -0.98102361 -1.4341632 234 88 12
-0.20976238 -0.98243117 -1.4375763 234 88 12
-0.2023809 -0.98265684 -1.4350692 234 88 12
-0.19852877 -0.98365855 -1.4370302 234 88 12
-0.19116966 -0.98348892 -1.4330713 234 88 12
-0.18359339 -0.98473698 -1.4342575 234 88 12
-0.17985098 -0.98496008 -1.4333886 234 88 12
-0.17216997 -0.98794091 -1.4409363 234 88 12
-0.16852625 -0.9866696 -1.4345845 234 88 12
-0.16097078 -0.98856115 -1.4381603 234 88 12
-0.15723921 -0.98762393 -1.4330045 234 88 12
-0.1459357 -0.98926836 -1.4339695 234 88 12
-0.13845374 -0.99108481 -1.4373008 234 88 12
-0.13090669 -0.99154842 -1.4355989 234 88 12
-0.12706576 -0.99120861 -1.4326031 234 88 12
-0.11956672 -0.99247664 -1.4338982 234 88 12
-0.11573742 -0.99250537 -1.4322708 234 88 12
-0.10110681 -0.99662524 -1.4408854 234 88 12
-0.097603321 -0.99816829 -1.4450066 234 88 12
-0.093662322 -0.99769509 -1.4414723 234 88 12
-0.094243526 -1.0155659 -1.5078336 234 88 12
-0.091649666 -1.0193775 -1.5207571 234 88 12
-0.20915829 -0.98007882 -1.4427897 234 88 12
-0.20573516 -0.97886157 -1.4368244 234 88 12
-0.2016748 -0.98101854 -1.4428762 234 88 12
-0.19815023 -0.98015279 -1.4381472 234 88 12
-0.19076067 -0.98014742 -1.4348301 234 88 12
-0.18697174 -0.98076367 -1.4353862 234 88 12
-0.17176422 -0.98462605 -1.4426812 234 88 12
-0.16059153 -0.98416823 -1.4360263 234 88 12
-0.15682603 -0.98462909 -1.4360263 234 88 12
-0.14928785 -0.98510081 -1.4343823 234 88 12
-0.1455141 -0.98549676 -1.4341418 234 88 12
-0.13799727 -0.98691171 -1.4359461 234 88 12
-0.11930824 -0.99029672 -1.4399471 234 88 12
-0.10787244 -0.99060851 -1.4359809 234 88 12
-0.10484632 -0.99501145 -1.4506823 234 88 12
-0.10153524 -0.99743497 -1.4580405 234 88 12
-0.097850978 -0.99787158 -1.457988 234 88 12
-0.098100096 -1.0152895 -1.5216002 234 88 12
-0.20496476 -0.97748244 -1.4454489 234 88 12
-0.19018619 -0.97805744 -1.4410142 234 88 12
-0.18475604 -0.99262577 -1.4909854 234 88 12
-0.17877176 -0.98112142 -1.447005 234 88 12
-0.17509851 -0.98085344 -1.4444261 234 88 12
-0.17147577 -0.9795059 -1.437989 234 88 12
-0.16770577 -0.98006964 -1.4383569 234 88 12
-0.16017252 -0.98126769 -1.4393487 234 88 12
-0.1564233 -0.98073441 -1.4357828 234 88 12
-0.14514005 -0.98328561 -1.4399883 234 88 12
-0.13760361 -0.98382616 -1.4386157 234 88 12
-0.13384131 -0.98428667 -1.4386157 234 88 12
-0.1304851 -0.98941219 -1.4555608 234 88 12
-0.12637261 -0.98576039 -1.4406269 234 88 12
-0.12267903 -0.98674911 -1.4425557 234 88 12
-0.11909137 -0.98843968 -1.4470533 234 88 12
-0.1151196 -0.98721397 -1.4409008 234 88 12
-0.11144061 -0.98814517 -1.4426291 234 88 12
-0.10804918 -0.99066573 -1.4501963 234 88 12
-0.19411454 -0.99420387 -1.5136521 234 88 12
-0.19202822 -0.98483527 -1.4795474 234 88 12
-0.18979657 -0.97459537 -1.4422921 234 88 12
-0.18573615 -0.97768855 -1.4514923 234 88 12
-0.18231879 -0.97520232 -1.4411995 234 88 12
-0.17814313 -0.98031938 -1.4575218 234 88 12
-0.15600854 -0.97801131 -1.4397418 234 88 12
-0.14847529 -0.97872782 -1.4390134 234 88 12
-0.14475074 -0.98052269 -1.4437584 234 88 12
-0.14098151 -0.98054779 -1.4422123 234 88 12
-0.13797896 -0.99360228 -1.4871715 234 88 12
-0.1336827 -0.98434269 -1.4524946 234 88 12
-0.12601972 -0.98296928 -1.4443038 234 88 12
-0.12234232 -0.98403287 -1.4464778 234 88 12
-0.17421959 -0.97513819 -1.4510825 234 88 12
-0.1667325 -0.97671551 -1.4533921 234 88 12
-0.16285573 -0.981821 -1.4695754 234 88 12
-0.15559255 -0.9757297 -1.4451821 234 88 12
-0.1518327 -0.97470433 -1.4399908 234 88 12
-0.14808723 -0.97643399 -1.4444331 234 88 12
-0.14455192 -0.98344243 -1.4674124 234 88 12
-0.13838369 -1.0035377 -1.5349983 234 88 12
-0.13567729 -1.0133697 -1.5681994 234 88 12
-0.13078623 -0.99540991 -1.5033455 234 88 12
-0.12652799 -0.98864603 -1.4778874 234 88 12
1.1375846 -1.049849 -0.93135339 234 88 12
1.1385661 -1.0448824 -0.92257488 234 88 12
1.1412338 -1.042176 -0.92257488 234 88 12
1.147077 -1.0440335 -0.93978751 234 88 12
1.1467558 -1.0370382 -0.92360187 234 88 12
1.149346 -1.0342216 -0.92318463 234 88 12
1.1520121 -1.0315168 -0.92318463 234 88 12
1.1549147 -1.0291855 -0.92454088 234 88 12
1.1575774 -1.0264841 -0.92454088 234 88 12
1.1631675 -1.0215307 -0.92612833 234 88 12
1.1681379 -1.0155182 -0.92398411 234 88 12
1.1714985 -1.0140872 -0.92835832 234 88 12
1.1767081 -1.0085189 -0.92773235 234 88 12
1.1796443 -1.00638 -0.92958969 234 88 12
1.1373171 -1.0501753 -0.94258356 234 88 12
1.1382838 -1.0452468 -0.93394852 234 88 12
1.1392714 -1.0402417 -0.92519176 234 88 12
1.1427594 -1.0387107 -0.92958355 234 88 12
1.1451199 -1.0355816 -0.9279772 234 88 12
1.1473848 -1.0322884 -0.92579997 234 88 12
1.1529559 -1.0272548 -0.92715293 234 88 12
1.158553 -1.0223002 -0.92873639 234 88 12
1.1687478 -1.0107125 -0.92601377 234 88 12
1.1721998 -1.0094719 -0.93096089 234 88 12
1.1768615 -1.0028287 -0.9267748 234 88 12
1.136716 -1.0438446 -0.93849087 234 88 12
1.1378629 -1.0390807 -0.93069887 234 88 12
1.1543881 -1.0561843 -1.0040028 234 88 12
1.1431626 -1.0336524 -0.93058717 234 88 12
1.1486984 -1.0285826 -0.93176991 234 88 12
1.151484 -1.0260868 -0.93248475 234 88 12
1.1568787 -1.0208347 -0.93296301 234 88 12
1.1592559 -1.0176752 -0.93134451 234 88 12
1.1613212 -1.0139564 -0.92783105 234 88 12
1.1667869 -1.0087796 -0.92862856 234 88 12
1.1763792 -1.0188963 -0.97158694 234 88 12
1.1722385 -1.0035996 -0.92938775 234 88 12
1.1761357 -1.0032953 -0.93728644 234 88 12
1.1404071 -1.0434173 -0.95650738 234 88 12
1.1467434 -1.0266556 -0.9343769 234 88 12
1.149621 -1.0243028 -0.93559068 234 88 12
1.1572443 -1.0156541 -0.9336319 234 88 12
1.1621147 -1.0094708 -0.93097168 234 88 12
1.1654767 -1.0080162 -0.93516135 234 88 12
1.1715233 -1.0040152 -0.9397307 234 88 12
1.1366236 -1.0325445 -0.93599331 234 88 12
1.1413175 -1.032799 -0.94662499 234 88 12
1.141621 -1.0266674 -0.93428266 234 88 12
1.147014 -1.0213606 -0.93463176 234 88 12
1.1530892 -1.0240862 -0.95347059 234 88 12
1.1522768 -1.0158513 -0.93427098 234 88 12
1.1552879 -1.0137258 -0.93624079 234 88 12
1.1592938 -1.0133244 -0.9440034 234 88 12
1.1645731 -1.0079683 -0.9440034 234 88 12
1.2059045 -1.1356097 -1.3103955 234 88 12
1.139787 -1.024922 -0.93755609 234 88 12
1.1424497 -1.0222205 -0.93755609 234 88 12
1.1483426 -1.0177168 -0.94064951 234 88 12
1.1509975 -1.0150234 -0.94064951 234 88 12
1.1558992 -1.0089434 -0.93832767 234 88 12
1.1605916 -1.0097753 -0.95005703 234 88 12
1.1632223 -1.0071062 -0.95005703 234 88 12
1.1645763 -1.0021107 -0.94246066 234 88 12
1.133371 -1.0359706 -0.95772368 234 88 12
1.1326921 -1.0286617 -0.94112301 234 88 12
1.1347347 -1.0250714 -0.93797189 234 88 12
1.1374031 -1.0223641 -0.93797189 234 88 12
1.1433084 -1.0178272 -0.94099009 234 88 12
1.145969 -1.0151278 -0.94099009 234 88 12
1.1547407 -1.0083649 -0.94542438 234 88 12
1.1597514 -1.0097624 -0.95887733 234 88 12
1.1619904 -1.0064441 -0.9567045 234 88 12
1.1314452 -1.0340724 -0.96029168 234 88 12
1.1316758 -1.0280569 -0.94841385 234 88 12
1.1327718 -1.0231365 -0.94058955 234 88 12
1.1361098 -1.0214143 -0.94400877 234 88 12
1.1411133 -1.0155321 -0.94235295 234 88 12
1.1434628 -1.0123352 -0.94068223 234 88 12
1.1461309 -1.0096282 -0.94068223 234 88 12
1.1537764 -1.015111 -0.96788156 234 88 12
1.174253 -1.0361542 -1.0537927 234 88 12
1.1909697 -1.0590119 -1.1355952 234 88 12
1.1281767 -1.0365435 -0.96897417 234 88 12
1.1315752 -1.0349975 -0.97284174 234 88 12
1.1286383 -1.0246075 -0.94565499 234 88 12
1.1316071 -1.0223469 -0.94718289 234 88 12
1.1367166 -1.0166433 -0.94612604 234 88 12
1.1423199 -1.0116854 -0.94760406 234 88 12
1.1449771 -1.0089897 -0.94760406 234 88 12
1.1497374 -1.0097405 -0.95895165 234 88 12
1.1509366 -1.00468 -0.95113552 234 88 12
1.1549931 -1.0044084 -0.95895165 234 88 12
1.126353 -1.0347781 -0.97195613 234 88 12
1.1238503 -1.0251486 -0.94746304 234 88 12
1.1289873 -1.0194691 -0.94652134 234 88 12
1.1347592 -1.0147139 -0.94873631 234 88 12
1.1395859 -1.0085417 -0.94616932 234 88 12
1.1460781 -1.0050179 -0.95233399 234 88 12
1.1399106 -1.0591911 -1.058182 234 88 12
1.1193171 -1.0260412 -0.9505018 234 88 12
1.1245546 -1.020514 -0.95007652 234 88 12
1.1336843 -1.020648 -0.96879882 234 88 12
1.1326332 -1.0125335 -0.95050597 234 88 12
1.1352962 -1.0098318 -0.95050597 234 88 12
1.1405159 -1.0042589 -0.94995326 234 88 12
1.143862 -1.0026636 -0.95353878 234 88 12
1.117215 -1.0301042 -0.96465117 234 88 12
1.117358 -1.0241102 -0.95311421 234 88 12
1.1200919 -1.0215049 -0.95344639 234 88 12
1.1227541 -1.018804 -0.95344639 234 88 12
1.1251724 -1.0157562 -0.95227402 234 88 12
1.1321249 -1.0127561 -0.96026963 234 88 12
1.1329184 -1.0072654 -0.95102739 234 88 12
1.1355869 -1.0045582 -0.95102739 234 88 12
1.1393052 -1.0035142 -0.9564091 234 88 12
1.1524155 -1.0177512 -1.0107266 234 88 12
1.115278 -1.0281949 -0.96723425 234 88 12
1.1152166 -1.0219364 -0.95489138 234 88 12
1.1203045 -1.0161916 -0.95375317 234 88 12
1.1229727 -1.0134846 -0.95375317 234 88 12
1.1317306 -1.013134 -0.97041905 234 88 12
1.1494648 -1.0333141 -1.0449595 234 88 12
1.1692532 -1.0576597 -1.1317039 234 88 12
1.1822634 -1.0724766 -1.1864123 234 88 12
1.1141002 -1.0332795 -0.98482817 234 88 12
1.1107175 -1.0228729 -0.95807403 234 88 12
1.1328969 -1.0344149 -1.0238913 234 88 12
1.121557 -1.0123239 -0.95894003 234 88 12
1.1289104 -1.0164007 -0.98124516 234 88 12
1.1275629 -1.0079309 -0.96222728 234 88 12
1.1523659 -1.0386181 -1.0702041 234 88 12
1.108758 -1.0209414 -0.96068716 234 88 12
1.1114217 -1.0182389 -0.96068716 234 88 12
1.1140709 -1.0155168 -0.96062118 234 88 12
1.1195168 -1.010278 -0.96116936 234 88 12
1.128081 -1.0160766 -0.98890013 234 88 12
1.1257031 -1.0061423 -0.96526629 234 88 12
1.1335717 -1.0112882 -0.99039733 234 88 12
1.1067556 -1.0309876 -0.98591948 234 88 12
1.1054629 -1.0233984 -0.96904993 234 88 12
1.1093175 -1.0161161 -0.96265966 234 88 12
1.1401263 -1.0342346 -1.0562407 234 88 12
1.1246343 -1.0055127 -0.97201484 234 88 12
1.1016359 -1.0251213 -0.97490925 234 88 12
1.1022615 -1.0198904 -0.9662835 234 88 12
1.1048976 -1.0171545 -0.96616805 234 88 12
1.1075608 -1.0144526 -0.96616805 234 88 12
1.1107942 -1.012519 -0.96869564 234 88 12
1.1134506 -1.0098239 -0.96869564 234 88 12
1.1173444 -1.0088649 -0.97430944 234 88 12
1.1184516 -1.003987 -0.96726316 234 88 12
1.0986922 -1.0278763 -0.98428845 234 88 12
1.0989172 -1.0222445 -0.97424656 234 88 12
1.1029385 -1.0152234 -0.96878052 234 88 12
1.1061379 -1.0132277 -0.97110379 234 88 12
1.1081464 -1.009661 -0.96826237 234 88 12
1.1117191 -1.008203 -0.97228903 234 88 12
1.1159221 -1.0076785 -0.97923833 234 88 12
1.0918405 -1.0258994 -0.97753084 234 88 12
1.0984842 -1.0280627 -0.99391621 234 88 12
1.0953604 -1.0183336 -0.97017926 234 88 12
1.0980268 -1.0156286 -0.97017926 234 88 12
1.1015263 -1.0139967 -0.97371024 234 88 12
1.1033556 -1.0102136 -0.9701634 234 88 12
1.1084931 -1.0108213 -0.98087394 234 88 12
1.1506717 -1.0622331 -1.1542391 234 88 12
1.0875759 -1.0327493 -0.99182427 234 88 12
1.09215 -1.020822 -0.97854412 234 88 12
1.0997322 -1.0122764 -0.97698927 234 88 12
1.1024669 -1.0096869 -0.97732669 234 88 12
1.1072098 -1.0097879 -0.9862802 234 88 12
1.0822997 -1.0270293 -0.98135185 234 88 12
1.0866169 -1.0204842 -0.97744387 234 88 12
1.092525 -1.0217123 -0.99047947 234 88 12
1.0928507 -1.0162101 -0.98114479 234 88 12
1.0977434 -1.0103055 -0.97944647 234 88 12
1.104062 -1.0124047 -0.99480611 234 88 12
1.0811338 -1.0260006 -0.98697078 234 88 12
1.0873203 -1.0158552 -0.9800542 234 88 12
1.090549 -1.0138549 -0.9823339 234 88 12
1.0932038 -1.0111614 -0.9823339 234 88 12
1.0958586 -1.008468 -0.9823339 234 88 12
1.0780461 -1.0227826 -0.98520291 234 88 12
1.0824943 -1.0221717 -0.99211168 234 88 12
1.08883 -1.0181074 -0.99629658 234 88 12
1.0824028 -1.0280328 -1.011615 234 88 12
1.0796666 -1.0192305 -0.99130946 234 88 12
1.0849786 -1.0138911 -0.9913969 234 88 12
1.1254202 -1.0576137 -1.1400313 234 88 12
1.0850618 -1.020171 -1.0118067 234 88 12
-0.016745737 0.1246627 -1.7531654 234 88 12
-0.020487385 0.12478679 -1.752193 234 88 12
-0.022843271 0.11773071 -1.8074832 234 88 12
-0.028074307 0.12539858 -1.7473992 234 88 12
-0.032022513 0.12620637 -1.7410694 234 88 12
-0.035789866 0.12620637 -1.7410694 234 88 12
-0.034933906 0.11145579 -1.8566524 234 88 12
0.0051967241 0.11259568 -1.8205733 234 88 12
0.0018971469 0.12331455 -1.7339978 234 88 12
-0.0017151345 0.11148374 -1.8295544 234 88 12
-0.0056151864 0.12166237 -1.7473423 234 88 12
-0.0094560497 0.12292864 -1.7371148 234 88 12
-0.013284733 0.12335823 -1.7336451 234 88 12
-0.020781936 0.12280235 -1.7381349 234 88 12
-0.024554048 0.12277023 -1.7383943 234 88 12
-0.032235231 0.12325235 -1.7345002 234 88 12
-0.036000699 0.12316028 -1.7352439 234 88 12
-0.039513271 0.12230298 -1.7421682 234 88 12
-0.042226791 0.11933658 -1.7661276 234 88 12
-0.046975929 0.12213742 -1.7435055 234 88 12
-0.051069789 0.12294579 -1.7369764 234 88 12
-0.054978345 0.12322732 -1.7347023 234 88 12
-0.058696549 0.12307341 -1.7359455 234 88 12
-0.061633591 0.12139949 -1.7494656 234 88 12
-0.063809916 0.11850414 -1.7728512 234 88 12
-0.068433039 0.12022021 -1.7589906 234 88 12
0.020661391 0.11833343 -1.7438881 234 88 12
0.016837602 0.11786322 -1.7478065 234 88 12
0.013134188 0.11820769 -1.7449359 234 88 12
0.0094379019 0.11891756 -1.7390203 234 88 12
0.0056630061 0.11892314 -1.7389739 234 88 12
-0.0018860634 0.11882199 -1.7398167 234 88 12
-0.0094431788 0.11898406 -1.7384661 234 88 12
-0.013289283 0.11960354 -1.7333038 234 88 12
-0.020907307 0.11974185 -1.7321513 234 88 12
-0.024653317 0.11947377 -1.7343853 234 88 12
-0.032226756 0.11942857 -1.734762 234 88 12
-0.036031641 0.11947334 -1.7343888 234 88 12
-0.039062683 0.11718805 -1.7534329 234 88 12
-0.043133467 0.11814819 -1.7454318 234 88 12
-0.047478419 0.11964561 -1.7329532 234 88 12
-0.054909676 0.11928654 -1.7359455 234 88 12
-0.058619082 0.11912911 -1.7372575 234 88 12
-0.065869682 0.11856543 -1.7419547 234 88 12
-0.070107542 0.1193723 -1.7352308 234 88 12
-0.07346005 0.11866623 -1.7411147 234 88 12
-0.071454711 0.10979627 -1.8150311 234 88 12
0.022442574 0.10530746 -1.8236653 234 88 12
0.02080993 0.11540052 -1.7367988 234 88 12
0.01707476 0.11572894 -1.7339723 234 88 12
0.013183611 0.11488575 -1.7412292 234 88 12
0.0093971537 0.11464528 -1.7432988 234 88 12
0.0056630061 0.11514779 -1.7389739 234 88 12
0.0018832866 0.11488049 -1.7412745 234 88 12
-0.0018951916 0.11560669 -1.7350245 234 88 12
-0.0056748837 0.1153893 -1.7368953 234 88 12
-0.0094431788 0.11520679 -1.7384661 234 88 12
-0.013289283 0.11580661 -1.7333038 234 88 12
-0.020907307 0.11594052 -1.7321513 234 88 12
-0.024653317 0.11568096 -1.7343853 234 88 12
-0.032226756 0.11563718 -1.734762 234 88 12
-0.036031641 0.11568053 -1.7343888 234 88 12
-0.039733935 0.11541763 -1.7366515 234 88 12
-0.042347763 0.11231364 -1.7633662 234 88 12
-0.047478419 0.11584734 -1.7329532 234 88 12
-0.055074099 0.11584552 -1.7329689 234 88 12
-0.058619082 0.11534723 -1.7372575 234 88 12
-0.066334136 0.11561092 -1.734988 234 88 12
-0.070255175 0.1158261 -1.7331361 234 88 12
-0.077686734 0.1155827 -1.7352308 234 88 12
0.027918791 0.10981391 -1.7528423 234 88 12
0.024536697 0.11135886 -1.7390949 234 88 12
0.020907125 0.11213821 -1.73216 234 88 12
0.016905701 0.11082626 -1.7438341 234 88 12
0.0094952965 0.1120445 -1.7329938 234 88 12
0.0056971777 0.1120445 -1.7329938 234 88 12
-0.0095021706 0.11212561 -1.732272 234 88 12
-0.043518122 0.11163344 -1.7366515 234 88 12
-0.047311585 0.11165534 -1.7364568 234 88 12
-0.058872312 0.11204731 -1.7329689 234 88 12
-0.077507831 0.11153566 -1.7375216 234 88 12
0.040973902 0.10154402 -1.7947261 234 88 12
0.03894132 0.10569787 -1.756467 234 88 12
0.034088958 0.10226688 -1.7880682 234 88 12
0.032213781 0.10801091 -1.7351626 234 88 12
0.028253959 0.10736504 -1.7411114 234 88 12
0.024667194 0.10815616 -1.7338248 234 88 12
0.020907125 0.10833692 -1.73216 234 88 12
0.017105829 0.10833692 -1.73216 234 88 12
0.0094952965 0.10824638 -1.7329938 234 88 12
0.0056971777 0.10824638 -1.7329938 234 88 12
-0.0018978178 0.10817561 -1.7336457 234 88 12
-0.0094868895 0.10815053 -1.7338766 234 88 12
-0.01324778 0.10787478 -1.7364165 234 88 12
-0.017057255 0.10802928 -1.7349935 234 88 12
-0.020881966 0.10820655 -1.7333608 234 88 12
-0.024678687 0.10820655 -1.7333608 234 88 12
-0.032251105 0.10813606 -1.73401 234 88 12
-0.03604535 0.10813606 -1.73401 234 88 12
-0.039625436 0.10755476 -1.739364 234 88 12
-0.043665409 0.10821427 -1.7332896 234 88 12
-0.047415178 0.10810661 -1.7342812 234 88 12
-0.05020291 0.10598392 -1.7538323 234 88 12
-0.054823123 0.10775579 -1.7375125 234 88 12
-0.058604028 0.10775579 -1.7375125 234 88 12
-0.059764255 0.10322917 -1.7792051 234 88 12
-0.066115156 0.10767326 -1.7382727 234 88 12
-0.070124656 0.10802988 -1.734988 234 88 12
-0.073726967 0.1077548 -1.7375216 234 88 12
-0.071071789 0.098807119 -1.8199344 234 88 12
0.048234168 0.098254785 -1.7921134 234 88 12
0.045161534 0.099355377 -1.7816077 234 88 12
0.042503532 0.10163888 -1.7598107 234 88 12
0.039342731 0.10304049 -1.7464317 234 88 12
0.035894684 0.10390566 -1.7381732 234 88 12
0.032090295 0.10382154 -1.7389762 234 88 12
0.028464427 0.10436957 -1.7337451 234 88 12
0.020872241 0.10436121 -1.7338248 234 88 12
0.017077636 0.10436333 -1.7338046 234 88 12
0.013227563 0.10393085 -1.7379328 234 88 12
0.0095000397 0.10450044 -1.7324958 234 88 12
0.0057000238 0.10450044 -1.7324958 234 88 12
-0.0018942414 0.10418328 -1.7355232 234 88 12
-0.0056852885 0.10423029 -1.7350745 234 88 12
-0.0094754808 0.10423029 -1.7350745 234 88 12
-0.013281645 0.10435578 -1.7338766 234 88 12
-0.017049138 0.10418918 -1.735467 234 88 12
-0.020891588 0.10445794 -1.7329015 234 88 12
-0.024650522 0.10429066 -1.7344981 234 88 12
-0.032235298 0.10429066 -1.7344981 234 88 12
-0.036068749 0.10440954 -1.7333635 234 88 12
-0.043637902 0.10435151 -1.7339175 234 88 12
-0.045842111 0.10085265 -1.7673156 234 88 12
-0.050603263 0.10308072 -1.7460476 234 88 12
-0.065984622 0.10369012 -1.7402307 234 88 12
-0.06869217 0.10210998 -1.7553139 234 88 12
0.057154704 0.097716101 -1.7620574 234 88 12
0.05059693 0.099319898 -1.7461708 234 88 12
0.044881769 0.095149353 -1.7874829 234 88 12
0.043229725 0.099616326 -1.7432345 234 88 12
0.036056578 0.10057887 -1.7336998 234 88 12
0.016875619 0.099378645 -1.7455889 234 88 12
0.0056722094 0.10020903 -1.7373633 234 88 12
-0.0094529158 0.10020091 -1.7374438 234 88 12
-0.020826437 0.10034555 -1.736011 234 88 12
-0.02833966 0.10013346 -1.7381119 234 88 12
-0.035884593 0.10009913 -1.738452 234 88 12
-0.037858922 0.095548712 -1.7835269 234 88 12
0.056411747 0.087181792 -1.8325404 234 88 12
0.058478508 0.096206576 -1.7396382 234 88 12
0.054405916 0.095679373 -1.7450653 234 88 12
0.047415551 0.096727729 -1.7342734 234 88 12
0.043124005 0.095622793 -1.7456477 234 88 12
0.039849851 0.096778207 -1.7337537 234 88 12
0.032213781 0.096641339 -1.7351626 234 88 12
0.028450297 0.096731007 -1.7342396 234 88 12
0.024485031 0.096056662 -1.7411814 234 88 12
0.020718103 0.096056662 -1.7411814 234 88 12
0.017072858 0.096746199 -1.7340832 234 88 12
0.013241701 0.096475251 -1.7368724 234 88 12
0.0094825663 0.096722178 -1.7343305 234 88 12
0.0056973551 0.096855037 -1.7329628 234 88 12
-0.0018956282 0.096677035 -1.7347952 234 88 12
-0.0094889831 0.096787624 -1.7336568 234 88 12
-0.013284576 0.096787624 -1.7336568 234 88 12
-0.01697908 0.096214786 -1.7395537 234 88 12
-0.02084339 0.09663754 -1.7352018 234 88 12
-0.024633098 0.09663754 -1.7352018 234 88 12
-0.027571091 0.093741715 -1.7650118 234 88 12
-0.032082669 0.096248001 -1.7392117 234 88 12
0.062039971 0.092119962 -1.7430004 234 88 12
0.058478508 0.092433766 -1.7396382 234 88 12
0.055079043 0.093064591 -1.7328794 234 88 12
0.051277287 0.09305878 -1.7329416 234 88 12
0.047073971 0.092264988 -1.7414466 234 88 12
0.043667402 0.09303055 -1.7332441 234 88 12
0.039731301 0.092706375 -1.7367175 234 88 12
0.036003474 0.092851065 -1.7351671 234 88 12
0.032213636 0.092851065 -1.7351671 234 88 12
0.028333381 0.092555709 -1.7383317 234 88 12
0.024656923 0.092937633 -1.7342396 234 88 12
0.020783059 0.092579082 -1.7380812 234 88 12
0.016714398 0.091000609 -1.7549934 234 88 12
0.013224902 0.092574306 -1.7381324 234 88 12
0.0094812 0.092915758 -1.7344739 234 88 12
0.0056774342 0.092731431 -1.736449 234 88 12
-0.0018989523 0.093048662 -1.73305 234 88 12
-0.0094916187 0.093017861 -1.7333801 234 88 12
-0.013288266 0.093017861 -1.7333801 234 88 12
-0.016955784 0.092314817 -1.7409127 234 88 12
-0.020737872 0.092377789 -1.740238 234 88 12
0.061408132 0.087460063 -1.7530525 234 88 12
0.058038857 0.087994397 -1.7470839 234 88 12
0.043136492 0.088148482 -1.7453626 234 88 12
0.03775337 0.084495634 -1.7861657 234 88 12
0.034157813 0.084495634 -1.7861657 234 88 12
0.020377856 0.08706902 -1.7574205 234 88 12
0.016901234 0.088261999 -1.7440946 234 88 12
0.012875345 0.086448744 -1.7643491 234 88 12
0.0091221593 0.0857483 -1.7721733 234 88 12
0.0056490428 0.088501669 -1.7414175 234 88 12
0.0018950583 0.089067742 -1.7350944 234 88 12
-0.0018916007 0.08890523 -1.7369096 234 88 12
-0.015997635 0.083543204 -1.7968047 234 88 12
-0.019724548 0.084277615 -1.788601 234 88 12
0.058217268 0.079387188 -1.8038162 234 88 12
0.058163177 0.084430419 -1.7449784 234 88 12
0.054988734 0.08532735 -1.7345142 234 88 12
0.051264662 0.085441105 -1.7331871 234 88 12
0.04673671 0.084126078 -1.7485291 234 88 12
0.0018879555 0.084957995 -1.7388234 234 88 12
-0.001898432 0.085429437 -1.7333232 234 88 12
-0.0094910115 0.085419096 -1.7334439 234 88 12
-0.013244937 0.085146025 -1.7366297 234 88 12
-0.017100435 0.085502177 -1.7324746 234 88 12
-0.020651484 0.084483348 -1.7443609 234 88 12
-0.0018974398 0.081589915 -1.733844 234 88 12
-0.0056551662 0.081057385 -1.7403458 234 88 12
-0.0093662627 0.080549859 -1.7465425 234 88 12
-0.013300339 0.081702083 -1.7324746 234 88 12
-0.016997181 0.081208751 -1.7384979 234 88 12
-0.020778025 0.08122319 -1.7383215 234 88 12
-0.0054980284 0.075139724 -1.767845 234 88 12
-0.0094850808 0.077777661 -1.7340665 234 88 12
-0.01671767 0.076158278 -1.7548025 234 88 12
-0.020086983 0.07486967 -1.7713031 234 88 12
-0.009232752 0.072015464 -1.760561 234 88 12
-0.012353744 0.068828002 -1.8034692 234 88 12
1.3508693 0.040995926 -1.2047465 234 88 12
1.3506382 0.049002048 -1.1999804 234 88 12
1.3534086 0.050388914 -1.2222761 234 88 12
1.3564651 0.051344953 -1.24708 234 88 12
1.3557775 0.034641944 -1.2737248 234 88 12
1.347304 0.04536717 -1.2020277 234 88 12
1.3475884 0.04903578 -1.2030299 234 88 12
1.3477523 0.052805025 -1.2030299 234 88 12
1.3490423 0.055533417 -1.2124246 234 88 12
1.3469789 0.039364189 -1.2284185 234 88 12
1.3437304 0.045834124 -1.200808 234 88 12
1.3625175 0.044061575 -1.3483691 234 88 12
1.3403161 0.050086476 -1.1997036 234 88 12
1.3432772 0.051490664 -1.2218418 234 88 12
1.342339 0.056180537 -1.2131242 234 88 12
1.3449447 0.057700984 -1.2325097 234 88 12
1.3376977 0.041956548 -1.2086948 234 88 12
1.336971 0.046423241 -1.2018311 234 88 12
1.337136 0.050217975 -1.2018311 234 88 12
1.3390203 0.052574199 -1.2151108 234 88 12
1.3419687 0.053914554 -1.2366517 234 88 12
1.3391049 0.060286794 -1.2132421 234 88 12
1.3349085 0.049595393 -1.211128 234 88 12
1.3350724 0.053364929 -1.211128 234 88 12
1.3359495 0.060423981 -1.2152798 234 88 12
1.336786 0.063572444 -1.2203733 234 88 12
1.3415623 0.038480133 -1.2865311 234 88 12
1.3308036 0.050460421 -1.2062798 234 88 12
1.3309686 0.054254003 -1.2062798 234 88 12
1.3333755 0.060063746 -1.221607 234 88 12
1.3297749 0.048957236 -1.2238519 234 88 12
1.3291146 0.061138041 -1.2155751 234 88 12
1.3322847 0.062306736 -1.2372735 234 88 12
1.3258017 0.045835968 -1.2211909 234 88 12
1.324726 0.050515685 -1.2124876 234 88 12
1.3251851 0.05407491 -1.214558 234 88 12
1.3264643 0.060851365 -1.2212574 234 88 12
1.3264719 0.068641104 -1.2190044 234 88 12
1.3235098 0.056948263 -1.2258042 234 88 12
1.323029 0.061214004 -1.2213689 234 88 12
1.3255451 0.063020721 -1.2375954 234 88 12
1.3195817 0.049917486 -1.224787 234 88 12
1.3185276 0.054578602 -1.216597 234 88 12
1.3188633 0.062145982 -1.2166407 234 88 12
1.3206044 0.064646214 -1.2272787 234 88 12
1.32928 0.040995605 -1.3113707 234 88 12
1.3171285 0.057285722 -1.229313 234 88 12
1.3165563 0.065502159 -1.2233825 234 88 12
1.3240924 0.063192584 -1.2721103 234 88 12
1.3125302 0.050702035 -1.2241203 234 88 12
1.3120092 0.054966338 -1.2197057 234 88 12
1.3120914 0.058817241 -1.2191721 234 88 12
1.3123742 0.066437386 -1.2188696 234 88 12
1.3134581 0.069486119 -1.2248156 234 88 12
1.316164 0.042486921 -1.270074 234 88 12
1.3102474 0.050235685 -1.2317725 234 88 12
1.3099682 0.054301091 -1.2289797 234 88 12
1.3089052 0.058955766 -1.2212298 234 88 12
1.3108839 0.069150679 -1.2306335 234 88 12
1.3171754 0.067893803 -1.269503 234 88 12
1.3079886 0.045934483 -1.2403476 234 88 12
1.3066831 0.050646562 -1.2312793 234 88 12
1.3073986 0.054028738 -1.2346919 234 88 12
1.3064126 0.058599677 -1.2275794 234 88 12
1.305898 0.062875785 -1.2233731 234 88 12
1.3061163 0.066626519 -1.2237053 234 88 12
1.3064493 0.070285298 -1.2247494 234 88 12
1.3073039 0.07351698 -1.2290368 234 88 12
1.3025678 0.047521774 -1.2285467 234 88 12
1.3024071 0.051515657 -1.2265784 234 88 12
1.3024281 0.055400502 -1.2257078 234 88 12
1.3026484 0.063060336 -1.2250441 234 88 12
1.3025831 0.067024767 -1.2236447 234 88 12
1.3091884 0.073452778 -1.2608831 234 88 12
1.2992957 0.055503894 -1.2280768 234 88 12
1.3014792 0.057901204 -1.2400821 234 88 12
1.3067513 0.058013521 -1.2704945 234 88 12
1.3011255 0.065892555 -1.236034 234 88 12
1.3000473 0.074506372 -1.2276459 234 88 12
1.3007185 0.077892549 -1.2306719 234 88 12
1.2987783 0.046223357 -1.2475591 234 88 12
1.2966366 0.051414713 -1.2341481 234 88 12
1.2961036 0.055647667 -1.2300858 234 88 12
1.2961719 0.059502471 -1.2295238 234 88 12
1.2964007 0.067158207 -1.2289337 234 88 12
1.2965655 0.070951752 -1.2289337 234 88 12
1.2983931 0.077362165 -1.2377079 234 88 12
1.2942395 0.043358814 -1.2424856 234 88 12
1.2927814 0.051979907 -1.2322952 234 88 12
1.2950246 0.073770091 -1.2394992 234 88 12
1.2953471 0.077410467 -1.2404124 234 88 12
1.2983989 0.035601381 -1.286304 234 88 12
1.2897896 0.044240955 -1.2372681 234 88 12
1.2895509 0.048259243 -1.2350117 234 88 12
1.2893107 0.052295033 -1.2327429 234 88 12
1.2900194 0.055743724 -1.2357928 234 88 12
1.2895521 0.059942499 -1.2322458 234 88 12
1.2898523 0.063647352 -1.2330053 234 88 12
1.2899765 0.067469537 -1.2327759 234 88 12
1.2901415 0.071264073 -1.2327759 234 88 12
1.2862972 0.03681618 -1.2393798 234 88 12
1.2887895 0.039324217 -1.2521513 234 88 12
1.2866147 0.044378996 -1.2393185 234 88 12
1.286788 0.067608163 -1.2348351 234 88 12
1.2888623 0.070051387 -1.2453825 234 88 12
1.2890258 0.073808134 -1.2453825 234 88 12
1.2880644 0.078406818 -1.239159 234 88 12
1.2925639 0.028392658 -1.2930843 234 88 12
1.2823446 0.037356939 -1.2372434 234 88 12
1.2842715 0.040203232 -1.246734 234 88 12
1.2826207 0.044973437 -1.2369539 234 88 12
1.2834536 0.048382301 -1.2405576 234 88 12
1.2832019 0.052412048 -1.2383109 234 88 12
1.2839618 0.05583442 -1.241527 234 88 12
1.2832937 0.060142364 -1.2370248 234 88 12
1.2839299 0.063626908 -1.2395761 234 88 12
1.2840945 0.067411818 -1.2395761 234 88 12
1.2850019 0.070679113 -1.2436042 234 88 12
1.2852616 0.07827016 -1.2432345 234 88 12
1.2810488 0.028861908 -1.2510247 234 88 12
1.2790966 0.033651028 -1.2398531 234 88 12
1.2791572 0.03749552 -1.2393019 234 88 12
1.2794324 0.045112059 -1.2390128 234 88 12
1.2823311 0.078234598 -1.2465553 234 88 12
1.2794317 0.024491295 -1.2618551 234 88 12
1.2775874 0.029142702 -1.2514564 234 88 12
1.2770712 0.037080307 -1.2470796 234 88 12
1.2776736 0.044477198 -1.2485064 234 88 12
1.2764091 0.049045 -1.2410719 234 88 12
1.2840917 0.048482709 -1.2802336 234 88 12
1.2776173 0.056107745 -1.2456509 234 88 12
1.2770941 0.060310423 -1.2420642 234 88 12
1.277917 0.063681751 -1.2455004 234 88 12
1.2774459 0.067877427 -1.2421795 234 88 12
1.2790595 0.070688128 -1.2497579 234 88 12
1.2793868 0.078214169 -1.2497579 234 88 12
1.2764999 0.024542172 -1.2648584 234 88 12
1.2726063 0.030115666 -1.2442024 234 88 12
1.2734654 0.03743409 -1.2469041 234 88 12
1.2733161 0.041376203 -1.2453022 234 88 12
1.2732888 0.049146056 -1.2434789 234 88 12
1.2735107 0.052906569 -1.2437706 234 88 12
1.2744257 0.07180623 -1.2442364 234 88 12
1.2795697 0.072183885 -1.2698452 234 88 12
1.2774673 0.077476233 -1.2581958 234 88 12
1.2794807 0.025709404 -1.2966219 234 88 12
1.2692518 0.034201778 -1.2445847 234 88 12
1.2723682 0.036555734 -1.2593838 234 88 12
1.2856864 0.037208881 -1.3246368 234 88 12
1.2701015 0.049284633 -1.2455373 234 88 12
1.2703243 0.053045105 -1.2458284 234 88 12
1.2707 0.060601566 -1.2460597 234 88 12
1.2706952 0.068397306 -1.2443717 234 88 12
1.2721505 0.071347252 -1.2508878 234 88 12
1.2727836 0.078682914 -1.2524303 234 88 12
1.2694067 0.028979642 -1.2639207 234 88 12
1.267009 0.033901073 -1.2513108 234 88 12
1.2737353 0.034517158 -1.2836573 234 88 12
1.2673749 0.041441612 -1.2514946 234 88 12
1.2788655 0.039346274 -1.3074132 234 88 12
1.2694731 0.048049275 -1.2602382 234 88 12
1.2683902 0.052488368 -1.2540773 234 88 12
1.2674366 0.056898933 -1.2485479 234 88 12
1.2675143 0.060740072 -1.248117 234 88 12
1.2676792 0.064531244 -1.248117 234 88 12
1.2682897 0.079729415 -1.2478739 234 88 12
1.2741764 0.079498596 -1.2763442 234 88 12
1.2657567 0.036982015 -1.261889 234 88 12
1.2641386 0.049343888 -1.2516526 234 88 12
1.2660663 0.056011003 -1.2594308 234 88 12
1.264671 0.060678743 -1.2518407 234 88 12
1.2647338 0.064525165 -1.2513446 234 88 12
1.264531 0.072438665 -1.2487482 234 88 12
1.2648652 0.076123975 -1.2495741 234 88 12
1.2659023 0.079328634 -1.2538375 234 88 12
1.2694495 0.080761388 -1.270386 234 88 12
1.2786031 0.040261656 -1.3380125 234 88 12
1.2899576 0.037687149 -1.3915784 234 88 12
1.2606082 0.057432503 -1.2504606 234 88 12
1.2609302 0.061139759 -1.2512119 234 88 12
1.2613741 0.064768948 -1.2525489 234 88 12
1.2612617 0.072627351 -1.2504274 234 88 12
1.2642032 0.074626885 -1.2637626 234 88 12
1.2643661 0.078376099 -1.2637626 234 88 12
1.2661141 0.081041738 -1.2713866 234 88 12
1.2696444 0.043500833 -1.3115367 234 88 12
1.2589196 0.052884486 -1.2603645 234 88 12
1.2636974 0.057893507 -1.2813244 234 88 12
1.2597257 0.064007267 -1.2618469 234 88 12
1.2617537 0.06664566 -1.270641 234 88 12
1.2619159 0.070377208 -1.270641 234 88 12
1.2937478 0.053874042 -1.4202551 234 88 12
1.2597218 0.079494163 -1.2587334 234 88 12
1.2751839 0.072952166 -1.3311133 234 88 12
1.2557526 0.053022183 -1.2624098 234 88 12
1.2547562 0.057421822 -1.2570373 234 88 12
1.2545422 0.061422851 -1.2552825 234 88 12
1.2548208 0.065152273 -1.2558089 234 88 12
1.2560197 0.068329558 -1.2606076 234 88 12
1.2750174 0.060560174 -1.3480737 234 88 12
1.2652259 0.074010849 -1.3011351 234 88 12
1.258584 0.082162671 -1.2694867 234 88 12
1.2515606 0.061446775 -1.258287 234 88 12
1.2570691 0.06598568 -1.2819359 234 88 12
1.2525109 0.072545826 -1.2603699 234 88 12
1.2566272 0.073871151 -1.2784414 234 88 12
1.2590177 0.076163806 -1.2886422 234 88 12
1.2545234 0.082900427 -1.267326 234 88 12
1.2491301 0.053445481 -1.2652081 234 88 12
1.2482666 0.057763588 -1.2605995 234 88 12
1.2485442 0.061492573 -1.2611059 234 88 12
1.2481911 0.065573171 -1.25878 234 88 12
1.2490993 0.07282266 -1.2613796 234 88 12
1.2492037 0.07664752 -1.261108 234 88 12
1.2513051 0.079214059 -1.2698308 234 88 12
1.2529629 0.082002215 -1.2765672 234 88 12
1.251188 0.050935026 -1.2903233 234 88 12
1.2452462 0.061692741 -1.2626566 234 88 12
1.2470288 0.064583413 -1.2698088 234 88 12
1.2455391 0.069295138 -1.262494 234 88 12
1.2458292 0.073012494 -1.2630488 234 88 12
1.245994 0.076801717 -1.2630488 234 88 12
1.2455429 0.052343119 -1.2812694 234 88 12
1.2418741 0.058051929 -1.2646179 234 88 12
1.2419074 0.061913099 -1.2640455 234 88 12
1.2421885 0.065642379 -1.2645513 234 88 12
1.2426453 0.073150925 -1.2651051 234 88 12
1.2430125 0.076818861 -1.2659887 234 88 12
1.2453617 0.079260804 -1.275524 234 88 12
1.2386886 0.058190431 -1.2666752 234 88 12
1.2407025 0.064858466 -1.2738943 234 88 12
1.2398405 0.069196075 -1.269495 234 88 12
1.2414939 0.075973973 -1.2751844 234 88 12
1.2406341 0.055741813 -1.2903634 234 88 12
1.2357568 0.062073786 -1.2691069 234 88 12
1.2358938 0.065878257 -1.26899 234 88 12
1.2359277 0.073626384 -1.26774 234 88 12
1.2372292 0.07675714 -1.272548 234 88 12
1.2345042 0.057377957 -1.2798704 234 88 12
1.2325723 0.062212236 -1.2711635 234 88 12
1.2327091 0.066016719 -1.2710469 234 88 12
1.2327391 0.073765017 -1.2697994 234 88 12
1.2340096 0.076921657 -1.2744061 234 88 12
1.23657 0.054943051 -1.3032807 234 88 12
1.2300712 0.062003668 -1.276017 234 88 12
1.2300972 0.065855347 -1.2754501 234 88 12
1.2330543 0.075794198 -1.2855654 234 88 12
1.227023 0.06207772 -1.2785822 234 88 12
1.226036 0.066450857 -1.2739339 234 88 12
1.2268046 0.073799603 -1.2757074 234 88 12
1.2293453 0.0762484 -1.285319 234 88 12
1.2237489 0.062265385 -1.2802342 234 88 12
1.2241633 0.069777876 -1.2805754 234 88 12
1.2281128 0.071504079 -1.295656 234 88 12
1.2317942 0.073264465 -1.3096875 234 88 12
1.2212179 0.058239877 -1.2854515 234 88 12
1.222766 0.061327353 -1.2908776 234 88 12
1.2231671 0.064953618 -1.2918116 234 88 12
1.2209373 0.069942869 -1.2824221 234 88 12
1.2211015 0.073721178 -1.2824221 234 88 12
1.2184476 0.058191579 -1.2890213 234 88 12
1.2168366 0.062814206 -1.2821647 234 88 12
1.2166193 0.053893194 -1.2967538 234 88 12
1.2140113 0.062781297 -1.2855787 234 88 12
1.2138191 0.0667395 -1.2842197 234 88 12
1.2158372 0.069582492 -1.2912896 234 88 12
1.2139915 0.074395634 -1.2836205 234 88 12
1.2123107 0.058381587 -1.293795 234 88 12
1.2107484 0.066823386 -1.2866932 234 88 12
1.2133405 0.069385841 -1.2958244 234 88 12
1.2453007 0.056658607 -1.4155058 234 88 12
1.2081847 0.058959782 -1.2922516 234 88 12
1.2091252 0.066207685 -1.2945219 234 88 12
1.2152333 0.067008696 -1.3165754 234 88 12
1.2102559 0.060509477 -1.3128538 234 88 12
