ply
format ascii 1.0
element vertex 1670
property float x
property float y
property float z
property uchar red
property uchar green
property uchar blue
end_header
-0.0036664451 0.010999336 2.6167715 234 88 12
0.00021567325 0.010999336 2.6167715 234 88 12
-0.00020082008 0.00039360736 2.7257829 234 88 12
-0.033071052 0.07716579 1.9032236 234 88 12
-0.018149788 0.046807345 2.2284927 234 88 12
-0.010507772 0.046807345 2.2284927 234 88 12
-0.014173308 0.07716579 1.9032236 234 88 12
-0.051968798 0.074016169 1.9032236 234 88 12
-0.029612811 0.044896841 2.2284927 234 88 12
-0.021970795 0.044896841 2.2284927 234 88 12
-0.010507772 0.044896841 2.2284927 234 88 12
0.001574812 0.074016169 1.9032236 234 88 12
2.409841e-05 0.00037754176 2.7257829 234 88 12
-0.037254825 0.042986337 2.2284927 234 88 12
0.00095525198 0.042986337 2.2284927 234 88 12
0.017322933 0.067716919 1.9032236 234 88 12
-0.080315411 0.064567298 1.9032236 234 88 12
-0.046807345 0.039165329 2.2284927 234 88 12
0.012418276 0.039165329 2.2284927 234 88 12
0.026771804 0.064567298 1.9032236 234 88 12
0.011953426 0.018151497 2.4975722 234 88 12
-0.086614661 0.061417669 1.9032236 234 88 12
-0.0034115887 0.044350654 2.132972 234 88 12
0.0011371962 0.044350654 2.132972 234 88 12
0.036220677 0.061417669 1.9032236 234 88 12
-0.092913911 0.058268044 1.9032236 234 88 12
-0.019332336 0.04207626 2.132972 234 88 12
0.012509159 0.04207626 2.132972 234 88 12
0.023881121 0.04207626 2.132972 234 88 12
0.023881299 0.035344321 2.2284927 234 88 12
0.048819173 0.058268044 1.9032236 234 88 12
-0.058270369 0.033433817 2.2284927 234 88 12
-0.056359865 0.033433817 2.2284927 234 88 12
-0.044896841 0.033433817 2.2284927 234 88 12
-0.033433817 0.033433817 2.2284927 234 88 12
-0.028429905 0.03980187 2.132972 234 88 12
0.029612811 0.033433817 2.2284927 234 88 12
0.051968798 0.055118423 1.9032236 234 88 12
0.058268044 0.055118423 1.9032236 234 88 12
0.011862028 0.0075485636 2.6167715 234 88 12
-0.0023632047 0.0011639665 2.7114823 234 88 12
-0.10236278 0.051968798 1.9032236 234 88 12
0.035253081 0.037527476 2.132972 234 88 12
-0.10866203 0.048819173 1.9032236 234 88 12
-0.037527476 0.035253081 2.132972 234 88 12
0.07086654 0.048819173 1.9032236 234 88 12
-0.015744148 0.006254524 2.6167715 234 88 12
-0.11181165 0.045669548 1.9032236 234 88 12
-0.03980187 0.032978691 2.132972 234 88 12
-0.032978691 0.032978691 2.132972 234 88 12
-0.021606728 0.032978691 2.132972 234 88 12
-0.010234766 0.032978691 2.132972 234 88 12
0.0011371962 0.032978691 2.132972 234 88 12
0.012509159 0.032978691 2.132972 234 88 12
0.023881121 0.032978691 2.132972 234 88 12
0.035253081 0.032978691 2.132972 234 88 12
0.046625044 0.032978691 2.132972 234 88 12
0.07086654 0.045669548 1.9032236 234 88 12
0.027005887 0.012838865 2.4975722 234 88 12
-0.11496128 0.042519927 1.9032236 234 88 12
0.08346504 0.042519927 1.9032236 234 88 12
-0.071643896 0.023881299 2.2284927 234 88 12
0.092913911 0.039370302 1.9032236 234 88 12
-0.073554404 0.021970795 2.2284927 234 88 12
-0.067822888 0.021970795 2.2284927 234 88 12
-0.056359865 0.021970795 2.2284927 234 88 12
-0.044896841 0.021970795 2.2284927 234 88 12
0.13648584 0.043002393 1.7484237 234 88 12
0.14022519 0.043002393 1.7484237 234 88 12
-0.12755978 0.033071052 1.9032236 234 88 12
0.057997007 0.023881121 2.132972 234 88 12
0.08346504 0.033071052 1.9032236 234 88 12
0.092913911 0.033071052 1.9032236 234 88 12
0.10551241 0.033071052 1.9032236 234 88 12
0.033203959 0.0092971083 2.4975722 234 88 12
-0.044350654 0.021606728 2.132972 234 88 12
-0.032978691 0.021606728 2.132972 234 88 12
-0.021606728 0.021606728 2.132972 234 88 12
-0.010234766 0.021606728 2.132972 234 88 12
0.0011371962 0.021606728 2.132972 234 88 12
0.012509159 0.021606728 2.132972 234 88 12
0.023881121 0.021606728 2.132972 234 88 12
0.035253081 0.021606728 2.132972 234 88 12
0.046625044 0.021606728 2.132972 234 88 12
0.057997007 0.021606728 2.132972 234 88 12
0.11496128 0.026771804 1.9032236 234 88 12
-0.13700865 0.020472556 1.9032236 234 88 12
-0.08119642 0.012418276 2.2284927 234 88 12
0.086614661 0.020472556 1.9032236 234 88 12
0.092913911 0.020472556 1.9032236 234 88 12
0.10551241 0.020472556 1.9032236 234 88 12
0.11496128 0.020472556 1.9032236 234 88 12
-0.14015827 0.017322933 1.9032236 234 88 12
-0.08119642 0.010507772 2.2284927 234 88 12
-0.079285912 0.010507772 2.2284927 234 88 12
-0.067822888 0.010507772 2.2284927 234 88 12
-0.056359865 0.010507772 2.2284927 234 88 12
-0.044896841 0.010507772 2.2284927 234 88 12
-0.040718418 0.012105476 2.1522386 234 88 12
-0.040718418 0.0099044805 2.1522386 234 88 12
-0.037527476 0.010234766 2.132972 234 88 12
-0.032978691 0.010234766 2.132972 234 88 12
-0.021606728 0.010234766 2.132972 234 88 12
-0.010234766 0.010234766 2.132972 234 88 12
0.0011371962 0.010234766 2.132972 234 88 12
0.012509159 0.010234766 2.132972 234 88 12
0.023881121 0.010234766 2.132972 234 88 12
0.035253081 0.010234766 2.132972 234 88 12
0.046625044 0.010234766 2.132972 234 88 12
0.057997007 0.010234766 2.132972 234 88 12
0.12755978 0.014173308 1.9032236 234 88 12
-0.14330789 0.011023684 1.9032236 234 88 12
-0.031523313 0.0066867638 2.2284927 234 88 12
0.0083714155 0.0083714155 2.1021438 234 88 12
0.010660306 0.0082913488 2.1081488 234 88 12
0.08346504 0.011023684 1.9032236 234 88 12
0.092913911 0.011023684 1.9032236 234 88 12
0.10551241 0.011023684 1.9032236 234 88 12
0.11496128 0.011023684 1.9032236 234 88 12
0.12755978 0.011023684 1.9032236 234 88 12
0.03940203 0.0030990362 2.4975722 234 88 12
-0.015188757 0.0058418298 2.1166079 234 88 12
-0.013608343 0.0061856103 2.0805109 234 88 12
-0.010872079 0.0060400441 2.0957954 234 88 12
-0.008763236 0.0062594544 2.0727572 234 88 12
-0.0035557197 0.0059261997 2.107749 234 88 12
0.0012382068 0.0061910339 2.0799415 234 88 12
0.013317398 0.0060533625 2.0943968 234 88 12
0.016235493 0.0062444205 2.0743358 234 88 12
0.018330136 0.0061100456 2.0884452 234 88 12
0.023124104 0.0060852906 2.0910444 234 88 12
0.028705232 0.0062402678 2.0747719 234 88 12
0.032806676 0.0065613347 2.0410597 234 88 12
0.03543121 0.0065613347 2.0410597 234 88 12
0.080315411 0.0078740604 1.9032236 234 88 12
-0.029736985 0.0035684381 2.1055233 234 88 12
-0.020351183 0.0035913852 2.1015077 234 88 12
-0.013124434 0.0035793912 2.1036065 234 88 12
-0.0085174553 0.0036503379 2.0911908 234 88 12
0.0012165917 0.0036497749 2.0912893 234 88 12
0.0081262356 0.0034826724 2.1205323 234 88 12
0.011381356 0.0037937851 2.0660875 234 88 12
0.024179745 0.0038178547 2.0618753 234 88 12
0.037057392 0.0038335235 2.0591333 234 88 12
-0.13700865 0.001574812 1.9032236 234 88 12
-0.031117108 0.0012446843 2.0765407 234 88 12
-0.021163352 0.0012449031 2.0764258 234 88 12
0.035016302 0.0012074588 2.0960841 234 88 12
0.067716919 0.001574812 1.9032236 234 88 12
-0.003421356 -3.5271711e-05 2.7114823 234 88 12
-0.14330789 -0.001574812 1.9032236 234 88 12
-0.13700865 -0.001574812 1.9032236 234 88 12
-0.079285912 -0.00095525198 2.2284927 234 88 12
-0.067822888 -0.00095525198 2.2284927 234 88 12
-0.056359865 -0.00095525198 2.2284927 234 88 12
-0.074016169 -0.001574812 1.9032236 234 88 12
-0.067716919 -0.001574812 1.9032236 234 88 12
-0.039165329 -0.00095525198 2.2284927 234 88 12
-0.055118423 -0.001574812 1.9032236 234 88 12
-0.033232071 -0.0011459335 2.1283848 234 88 12
-0.029234398 -0.001169376 2.1160777 234 88 12
-0.025492845 -0.001213945 2.0926788 234 88 12
-0.022439331 -0.0011810175 2.1099658 234 88 12
-0.015592881 -0.0011994524 2.1002874 234 88 12
-0.010822865 -0.0012025406 2.0986662 234 88 12
-0.006127215 -0.001225443 2.0866425 234 88 12
0.0012178577 -0.0012178577 2.0906248 234 88 12
0.0037289772 -0.0012429925 2.0774291 234 88 12
0.013365942 -0.0012150856 2.0920801 234 88 12
0.018356439 -0.0012237626 2.0875247 234 88 12
0.02346619 -0.0012350626 2.0815921 234 88 12
0.031326432 -0.0012530572 2.072145 234 88 12
0.034075681 -0.0012620622 2.0674174 234 88 12
0.036599807 -0.0012620622 2.0674174 234 88 12
0.035253081 -0.0011371962 2.132972 234 88 12
0.047850985 -0.0012269483 2.0858521 234 88 12
0.064567298 -0.001574812 1.9032236 234 88 12
0.07086654 -0.001574812 1.9032236 234 88 12
0.08346504 -0.001574812 1.9032236 234 88 12
0.092913911 -0.001574812 1.9032236 234 88 12
0.10551241 -0.001574812 1.9032236 234 88 12
0.11496128 -0.001574812 1.9032236 234 88 12
0.12755978 -0.001574812 1.9032236 234 88 12
0.00068278832 -8.0328036e-06 2.7257829 234 88 12
0.040287472 -0.00044271947 2.4975722 234 88 12
0.020057611 -0.00021567325 2.6167715 234 88 12
-0.092913911 -0.004724436 1.9032236 234 88 12
-0.08976429 -0.004724436 1.9032236 234 88 12
-0.029612811 -0.0028657559 2.2284927 234 88 12
-0.029376751 -0.0035252101 2.1130881 234 88 12
-0.0082814544 -0.0035491947 2.108891 234 88 12
-0.0035090991 -0.0035090991 2.1159077 234 88 12
0.001191465 -0.0035743949 2.104481 234 88 12
0.0059875874 -0.0035925524 2.1013033 234 88 12
0.007938996 -0.0034024268 2.1345754 234 88 12
0.035016302 -0.0036223761 2.0960841 234 88 12
0.042321652 -0.003847423 2.0567009 234 88 12
0.042705171 -0.0036604432 2.0894225 234 88 12
0.043087721 -0.0034935989 2.1186202 234 88 12
-0.12441015 -0.0078740604 1.9032236 234 88 12
-0.11181165 -0.0078740604 1.9032236 234 88 12
-0.03213837 -0.0051836083 2.1857212 234 88 12
-0.018426483 -0.0061421609 2.085073 234 88 12
0.01376741 -0.006257914 2.0729191 234 88 12
0.027686385 -0.0060187792 2.0980282 234 88 12
0.043615621 -0.0062308027 2.0757656 234 88 12
-0.00069885392 -5.6229626e-05 2.7257829 234 88 12
-0.033507194 -0.0075661405 2.1625395 234 88 12
-0.027483711 -0.0076954388 2.152842 234 88 12
0.015500123 -0.0083462195 2.1040335 234 88 12
0.031855889 -0.0082589341 2.11058 234 88 12
-0.12755978 -0.014173308 1.9032236 234 88 12
-0.12441015 -0.014173308 1.9032236 234 88 12
-0.11181165 -0.014173308 1.9032236 234 88 12
-0.10236278 -0.014173308 1.9032236 234 88 12
-0.08976429 -0.014173308 1.9032236 234 88 12
-0.080315411 -0.014173308 1.9032236 234 88 12
-0.067716919 -0.014173308 1.9032236 234 88 12
-0.055118423 -0.014173308 1.9032236 234 88 12
-0.027951889 -0.010937695 2.0919678 234 88 12
0.0063012033 -0.011342166 2.0683737 234 88 12
0.038384967 -0.0093368841 2.1853485 234 88 12
0.061417669 -0.014173308 1.9032236 234 88 12
0.07086654 -0.014173308 1.9032236 234 88 12
0.08346504 -0.014173308 1.9032236 234 88 12
0.092913911 -0.014173308 1.9032236 234 88 12
0.10551241 -0.014173308 1.9032236 234 88 12
0.11496128 -0.014173308 1.9032236 234 88 12
-0.039171003 -0.013057001 2.1068249 234 88 12
-0.037668552 -0.014288071 2.0480692 234 88 12
-0.029935172 -0.012195811 2.1479273 234 88 12
-0.029291544 -0.01288828 2.1148775 234 88 12
-0.02757985 -0.013190363 2.1004601 234 88 12
-0.023297263 -0.013487889 2.0862598 234 88 12
-0.0211084 -0.013658376 2.0781229 234 88 12
-0.018394846 -0.013489554 2.0861804 234 88 12
-0.011058931 -0.013516472 2.0848956 234 88 12
-0.0088512935 -0.013909176 2.066153 234 88 12
-0.0012413719 -0.013655091 2.0782797 234 88 12
0.0012356227 -0.013591849 2.0812981 234 88 12
0.0090690665 -0.01425139 2.0498199 234 88 12
0.011309999 -0.013823331 2.07025 234 88 12
0.013823331 -0.013823331 2.07025 234 88 12
0.021017767 -0.013599732 2.0809219 234 88 12
0.023949346 -0.013865411 2.0682418 234 88 12
0.026424587 -0.01384145 2.0693853 234 88 12
0.032262653 -0.013144043 2.1026707 234 88 12
0.035389222 -0.013423498 2.0893331 234 88 12
0.038377136 -0.013617693 2.0800645 234 88 12
0.040079519 -0.01335984 2.0923712 234 88 12
-0.016480921 -0.016480921 2.0644243 234 88 12
-0.013317564 -0.01573894 2.094389 234 88 12
0.0012659825 -0.016457774 2.0653591 234 88 12
0.0066112853 -0.017189343 2.035815 234 88 12
0.014051487 -0.016606303 2.0593607 234 88 12
0.022068983 -0.01687628 2.0484579 234 88 12
0.032978691 -0.014783551 2.132972 234 88 12
0.042017356 -0.016552292 2.061542 234 88 12
0.055118423 -0.020472556 1.9032236 234 88 12
-0.08346504 -0.023622181 1.9032236 234 88 12
-0.080315411 -0.023622181 1.9032236 234 88 12
-0.067716919 -0.023622181 1.9032236 234 88 12
-0.051011384 -0.020680292 2.0061898 234 88 12
-0.044275068 -0.020125031 2.0256238 234 88 12
-0.036483571 -0.018870812 2.0695217 234 88 12
-0.030708164 -0.017060092 2.1328969 234 88 12
-0.031139979 -0.018683987 2.0760605 234 88 12
-0.026546007 -0.018961433 2.0663497 234 88 12
0.0068474552 -0.020542366 2.0110171 234 88 12
0.022306915 -0.019682573 2.04111 234 88 12
0.030901102 -0.018540662 2.0810769 234 88 12
0.032106005 -0.017836669 2.1057165 234 88 12
0.051968798 -0.023622181 1.9032236 234 88 12
0.058268044 -0.023622181 1.9032236 234 88 12
0.07086654 -0.023622181 1.9032236 234 88 12
0.08346504 -0.023622181 1.9032236 234 88 12
0.092913911 -0.023622181 1.9032236 234 88 12
0.10551241 -0.023622181 1.9032236 234 88 12
-0.051011384 -0.023437664 2.0061898 234 88 12
-0.027049839 -0.021897489 2.0537541 234 88 12
-0.019255418 -0.021822808 2.0560603 234 88 12
-0.014441481 -0.022318652 2.0407474 234 88 12
-0.0091244839 -0.022159461 2.0456636 234 88 12
-0.0065076309 -0.022125946 2.0466988 234 88 12
0.0094172042 -0.022870352 2.0237098 234 88 12
0.024739385 -0.022135239 2.0464118 234 88 12
0.027701555 -0.022425069 2.037461 234 88 12
0.037152562 -0.023392353 2.0075891 234 88 12
-0.055118423 -0.029921429 1.9032236 234 88 12
-0.045669548 -0.029921429 1.9032236 234 88 12
-0.037283558 -0.026236577 2.0050418 234 88 12
-0.030384257 -0.025100037 2.0364463 234 88 12
-0.030844087 -0.027906556 1.9588978 234 88 12
-0.024292873 -0.024292873 2.0587494 234 88 12
-0.022665422 -0.025331944 2.0300384 234 88 12
-0.014441481 -0.024944376 2.0407474 234 88 12
-0.012255149 -0.025871981 2.0151162 234 88 12
-0.0086886426 -0.023583459 2.0783517 234 88 12
-0.0060317437 -0.022920625 2.0966668 234 88 12
-0.0038168388 -0.024173314 2.0620532 234 88 12
-0.0011816188 -0.022450758 2.1096501 234 88 12
0.0011926132 -0.022659648 2.103878 234 88 12
0.0039626192 -0.02509659 2.0365417 234 88 12
0.0062851082 -0.023883412 2.0700636 234 88 12
0.0091107991 -0.024729311 2.04669 234 88 12
0.014549977 -0.025131779 2.0355692 234 88 12
0.016741535 -0.024468396 2.0538995 234 88 12
0.02002991 -0.025371218 2.0289531 234 88 12
0.024471991 -0.024471991 2.0538003 234 88 12
0.027627908 -0.024996677 2.0393023 234 88 12
0.028696628 -0.023705911 2.0749683 234 88 12
0.034819979 -0.026463185 1.9987804 234 88 12
-0.027590798 -0.030495092 1.9676226 234 88 12
-0.011210661 -0.033631984 1.8892004 234 88 12
-0.0034115887 -0.023881121 2.132972 234 88 12
0.0015063357 -0.031633049 1.9391737 234 88 12
0.0036722203 -0.025705542 2.0873613 234 88 12
0.0056859809 -0.023881121 2.132972 234 88 12
0.0096104937 -0.028831482 2.009213 234 88 12
0.014354899 -0.033494763 1.8926309 234 88 12
0.016729388 -0.031937923 1.9315519 234 88 12
0.028792476 -0.031823263 1.9344184 234 88 12
0.026662765 -0.026662765 2.0634308 234 88 12
0.032034382 -0.029248783 1.9987804 234 88 12
0.035019655 -0.027237508 2.0490623 234 88 12
0.045669548 -0.033071052 1.9032236 234 88 12
0.033203959 -0.0092971083 2.4975722 234 88 12
-0.042519927 -0.036220677 1.9032236 234 88 12
-0.025805635 -0.028263316 2.0848591 234 88 12
-0.019713446 -0.026671134 2.1212025 234 88 12
-0.0060051465 -0.027623674 2.0994596 234 88 12
-0.001574812 -0.036220677 1.9032236 234 88 12
0.0078740604 -0.036220677 1.9032236 234 88 12
0.013770123 -0.028792076 2.0727897 234 88 12
0.015646696 -0.027682615 2.0981143 234 88 12
0.039370302 -0.036220677 1.9032236 234 88 12
0.048819173 -0.036220677 1.9032236 234 88 12
0.058268044 -0.036220677 1.9032236 234 88 12
-0.033071052 -0.039370302 1.9032236 234 88 12
-0.020472556 -0.039370302 1.9032236 234 88 12
0.014173308 -0.039370302 1.9032236 234 88 12
0.033071052 -0.039370302 1.9032236 234 88 12
0.029662203 -0.011953426 2.4975722 234 88 12
0.034974836 -0.011953426 2.4975722 234 88 12
0.022578692 -0.015495181 2.4975722 234 88 12
3.5271711e-05 -0.001587227 2.7114823 234 88 12
0.007526231 -0.019922376 2.4975722 234 88 12
-0.0045291381 -0.010136642 2.6167715 234 88 12
0.00021567325 -0.010136642 2.6167715 234 88 12
-1.4013484 0.064030156 2.0672114 234 88 12
-1.441031 0.063732907 2.1834974 234 88 12
-1.4023994 0.056985646 2.0667315 234 88 12
-1.4026812 0.067633204 2.0662513 234 88 12
-1.4773122 0.064303331 2.2898269 234 88 12
-1.404386 0.045550443 2.0657713 234 88 12
-1.2166611 0.067085005 1.4788516 234 88 12
-1.2172084 0.054498404 1.4788516 234 88 12
-1.2190316 0.073493272 1.477144 234 88 12
-1.2193052 0.067199968 1.477144 234 88 12
-1.2198524 0.054613363 1.477144 234 88 12
-1.2229069 0.045288369 1.4754364 234 88 12
-1.1755563 0.1016399 1.3201547 234 88 12
-1.4442089 0.057394765 2.1816266 234 88 12
-1.2265533 0.083278105 1.4720212 234 88 12
-1.4444273 0.069061615 2.1811588 234 88 12
-1.2291974 0.08339306 1.4703137 234 88 12
-1.2293342 0.080246411 1.4703137 234 88 12
-1.2298814 0.067659803 1.4703137 234 88 12
-1.2300183 0.064513154 1.4703137 234 88 12
-1.2304287 0.055073198 1.4703137 234 88 12
-1.2308391 0.045633245 1.4703137 234 88 12
-1.2317046 0.086654671 1.4686061 234 88 12
-1.2319783 0.080361366 1.4686061 234 88 12
-1.2393185 0.033391517 1.4651909 234 88 12
-1.2393632 0.093292855 1.4634833 234 88 12
-1.2414154 0.04609308 1.4634833 234 88 12
-1.2415521 0.042946432 1.4634833 234 88 12
-1.2419626 0.033506475 1.4634833 234 88 12
-1.2418704 0.096554466 1.4617758 234 88 12
-1.2421441 0.090261161 1.4617758 234 88 12
-1.2426913 0.077674553 1.4617758 234 88 12
-1.2431017 0.0682346 1.4617758 234 88 12
-1.414126 0.04420137 2.0595307 234 88 12
-1.2470218 0.099931031 1.4583606 234 88 12
-1.2474322 0.090491079 1.4583606 234 88 12
-1.2479794 0.07790447 1.4583606 234 88 12
-1.2483898 0.068464518 1.4583606 234 88 12
-1.2489371 0.055877913 1.4583606 234 88 12
-1.2494843 0.043291308 1.4583606 234 88 12
-1.2498947 0.033851355 1.4583606 234 88 12
-1.2529939 0.084427692 1.4549453 234 88 12
-1.2532675 0.078134388 1.4549453 234 88 12
-1.253678 0.068694435 1.4549453 234 88 12
-1.2542253 0.05610783 1.4549453 234 88 12
-1.2547724 0.043521225 1.4549453 234 88 12
-1.2551829 0.034081273 1.4549453 234 88 12
-1.4483045 0.054982312 2.179054 234 88 12
-1.2548171 0.10342256 1.4532378 234 88 12
-1.448298 0.071820438 2.1785862 234 88 12
-1.2574612 0.10353752 1.4515302 234 88 12
-1.3194309 0.081270248 1.6856279 234 88 12
-1.3195298 0.078997999 1.6856279 234 88 12
-1.4179579 0.041709147 2.0571306 234 88 12
-1.2626125 0.10691409 1.448115 234 88 12
-1.2628862 0.10062078 1.448115 234 88 12
-1.3229532 0.088253014 1.6831617 234 88 12
-1.3233484 0.079164028 1.6831617 234 88 12
-1.3238424 0.067802802 1.6831617 234 88 12
-1.2643911 0.066007622 1.448115 234 88 12
-1.2648015 0.056567669 1.448115 234 88 12
-1.2653487 0.043981064 1.448115 234 88 12
-1.265896 0.031394456 1.448115 234 88 12
-1.2663064 0.021954503 1.448115 234 88 12
-1.2651198 0.1101757 1.4464074 234 88 12
-1.3265743 0.092963532 1.6806957 234 88 12
-1.2759249 0.044440899 1.4412847 234 88 12
-1.2764722 0.031854294 1.4412847 234 88 12
-1.2768826 0.02241434 1.4412847 234 88 12
-1.3322035 0.095484816 1.6769964 234 88 12
-1.332401 0.090940326 1.6769964 234 88 12
-1.332895 0.0795791 1.6769964 234 88 12
-1.3333889 0.068217866 1.6769964 234 88 12
-1.2780218 0.057142463 1.4395771 234 88 12
-1.2780664 0.1170438 1.4378695 234 88 12
-1.2782032 0.11389714 1.4378695 234 88 12
-1.3340139 0.097840078 1.6757632 234 88 12
-1.3343104 0.091023341 1.6757632 234 88 12
-1.3348043 0.079662114 1.6757632 234 88 12
-1.2807105 0.11715876 1.4361619 234 88 12
-1.2808473 0.11401211 1.4361619 234 88 12
-1.2834467 0.054225732 1.4361619 234 88 12
-1.2838571 0.044785775 1.4361619 234 88 12
-1.2844044 0.03219917 1.4361619 234 88 12
-1.2848148 0.022759218 1.4361619 234 88 12
-1.2874589 0.022874177 1.4344543 234 88 12
-1.4255065 0.03937852 2.05233 234 88 12
-1.3415202 0.057188693 1.6720641 234 88 12
-1.2888716 0.051308997 1.4327468 234 88 12
-1.2891452 0.045015696 1.4327468 234 88 12
-1.2896925 0.032429092 1.4327468 234 88 12
-1.2885059 0.12065028 1.4310391 234 88 12
-1.3448449 0.068715952 1.6695979 234 88 12
-1.3453388 0.057354722 1.6695979 234 88 12
-1.3452723 0.10288265 1.6683649 234 88 12
-1.3457663 0.091521427 1.6683649 234 88 12
-1.3462602 0.080160193 1.6683649 234 88 12
-1.3470829 0.10523791 1.6671318 234 88 12
-1.2995847 0.048622184 1.4259164 234 88 12
-1.2997215 0.045475531 1.4259164 234 88 12
-1.3002688 0.032888927 1.4259164 234 88 12
-1.3008159 0.020302322 1.4259164 234 88 12
-1.2989453 0.12425677 1.4242088 234 88 12
-1.3489921 0.10532092 1.6658987 234 88 12
-1.3490909 0.10304868 1.6658987 234 88 12
-1.3495849 0.091687448 1.6658987 234 88 12
-1.3500788 0.080326222 1.6658987 234 88 12
-1.3505728 0.068964995 1.6658987 234 88 12
-1.3511657 0.055331517 1.6658987 234 88 12
-1.3022288 0.048737142 1.4242088 234 88 12
-1.3023655 0.04559049 1.4242088 234 88 12
-1.3029128 0.033003885 1.4242088 234 88 12
-1.30346 0.02041728 1.4242088 234 88 12
-1.3040966 0.12763335 1.4207937 234 88 12
-1.3563995 0.06694179 1.6621995 234 88 12
-1.3568935 0.05558056 1.6621995 234 88 12
-1.3104346 0.042788718 1.419086 234 88 12
-1.310845 0.033348765 1.419086 234 88 12
-1.3113922 0.020762159 1.419086 234 88 12
-1.3564318 0.11019747 1.6609664 234 88 12
-1.3567282 0.10338073 1.6609664 234 88 12
-1.357321 0.089747258 1.6609664 234 88 12
-1.3578149 0.078386031 1.6609664 234 88 12
-1.3506669 0.052642047 1.6174517 234 88 12
-1.351738 0.047896191 1.6220031 234 88 12
-1.3507029 0.045315061 1.6159641 234 88 12
-1.3480378 0.042417381 1.6012738 234 88 12
-1.311892 0.13112487 1.4156709 234 88 12
-1.3503048 0.050023582 1.6026274 234 88 12
-1.3462245 0.0444257 1.579457 234 88 12
-1.3375977 0.03487815 1.5310018 234 88 12
-1.345317 0.033877816 1.5721357 234 88 12
-1.3551834 0.023983873 1.6227038 234 88 12
-1.3511641 0.049976911 1.5945817 234 88 12
-1.347489 0.041788224 1.5725815 234 88 12
-1.3446048 0.033305559 1.5548278 234 88 12
-1.3065019 0.02106937 1.3439738 234 88 12
-1.3650248 0.044551387 1.6572672 234 88 12
-1.3535473 0.040035397 1.5923666 234 88 12
-1.3464603 0.03063694 1.5506942 234 88 12
-1.3198408 0.020637281 1.4002855 234 88 12
-1.3542196 0.027553812 1.5930866 234 88 12
-1.3222421 0.014928692 1.4122556 234 88 12
-1.3196874 0.1346164 1.4105481 234 88 12
-1.355332 0.060176194 1.5941374 234 88 12
-1.3567908 0.057755869 1.6018047 234 88 12
-1.3575425 0.055338092 1.6054677 234 88 12
-1.358489 0.052964877 1.6102456 234 88 12
-1.3587981 0.045657523 1.6101967 234 88 12
-1.3583755 0.040661894 1.606572 234 88 12
-1.349823 0.036335006 1.5570568 234 88 12
-1.349867 0.033693578 1.556656 234 88 12
-1.3266736 0.025050962 1.423139 234 88 12
-1.3564301 0.025143897 1.5917292 234 88 12
-1.3223314 0.13473137 1.4088405 234 88 12
-1.3658797 0.11288479 1.654801 234 88 12
-1.3663735 0.10152356 1.654801 234 88 12
-1.3668675 0.090162329 1.654801 234 88 12
-1.3673615 0.078801103 1.654801 234 88 12
-1.3678554 0.067439869 1.654801 234 88 12
-1.3613421 0.062810734 1.6160309 234 88 12
-1.3632373 0.058081247 1.6257865 234 88 12
-1.3661726 0.055916622 1.6421908 234 88 12
-1.3037417 0.014799761 1.2713969 234 88 12
-1.3676901 0.11524004 1.6535679 234 88 12
-1.3678877 0.11069556 1.6535679 234 88 12
-1.3682829 0.10160657 1.6535679 234 88 12
-1.3687769 0.090245344 1.6535679 234 88 12
-1.3692708 0.078884117 1.6535679 234 88 12
-1.3528852 0.070642352 1.5549995 234 88 12
-1.3600261 0.062858455 1.595044 234 88 12
-1.3606894 0.055444229 1.5970514 234 88 12
-1.3585088 0.050218146 1.5828767 234 88 12
-1.3612099 0.04556752 1.5975871 234 88 12
-1.3436469 0.031286608 1.4905419 234 88 12
-1.3069544 0.011297299 1.2694241 234 88 12
-1.4579251 0.075693034 2.1722722 234 88 12
-1.3274827 0.13810793 1.4054253 234 88 12
-1.3695995 0.11532306 1.6523348 234 88 12
-1.3745157 0.074126378 1.6710964 234 88 12
-1.3683109 0.072382458 1.6333898 234 88 12
-1.39244 0.068789795 1.7773166 234 88 12
-1.3694251 0.051351961 1.6345896 234 88 12
-1.3614163 0.045355905 1.5849422 234 88 12
-1.3542724 0.036132179 1.5396439 234 88 12
-1.3492182 0.029363403 1.5075334 234 88 12
-1.3186278 0.017624307 1.3208131 234 88 12
-1.333092 0.0090952264 1.4054253 234 88 12
-1.4589555 0.05199137 2.1722722 234 88 12
-1.3476901 0.085399143 1.4972243 234 88 12
-1.3628564 0.078000784 1.5881455 234 88 12
-1.4345347 0.068569973 2.0246561 234 88 12
-1.3919718 0.068964735 1.7640687 234 88 12
-1.36976 0.065458722 1.62709 234 88 12
-1.369516 0.055980466 1.6230713 234 88 12
-1.3736646 0.05171008 1.647344 234 88 12
-1.3678888 0.04859212 1.6111372 234 88 12
-1.3623827 0.037577022 1.5744795 234 88 12
-1.3569397 0.033635613 1.5400919 234 88 12
-1.3540207 0.030139646 1.5212826 234 88 12
-1.3304436 0.020391641 1.3742802 234 88 12
-1.3672552 0.028815133 1.6019901 234 88 12
-1.3355992 0.012356836 1.4037178 234 88 12
-1.335736 0.0092101851 1.4037178 234 88 12
-1.3857806 0.077589855 1.7168411 234 88 12
-1.4352932 0.069556631 2.0241396 234 88 12
-1.3567981 0.073752195 1.5346414 234 88 12
-1.3701264 0.070337571 1.6170229 234 88 12
-1.3770669 0.067718826 1.6596936 234 88 12
-1.3680557 0.065588042 1.6027896 234 88 12
-1.3425574 0.026411103 1.4327638 234 88 12
-1.3439577 0.023754487 1.440794 234 88 12
-1.3693104 0.028904488 1.6006628 234 88 12
-1.3382432 0.012471796 1.4020102 234 88 12
-1.3383801 0.0093251448 1.4020102 234 88 12
-1.3352782 0.14159946 1.4003025 234 88 12
-1.3364743 0.088297062 1.3931477 234 88 12
-1.4050304 0.071818046 1.8260311 234 88 12
-1.3938615 0.07106854 1.7545545 234 88 12
-1.3693507 0.070584983 1.5980176 234 88 12
-1.3693014 0.068139985 1.5970244 234 88 12
-1.3722255 0.065650046 1.6149926 234 88 12
-1.3713521 0.046237614 1.604033 234 88 12
-1.368999 0.043338686 1.588214 234 88 12
-1.3626955 0.03149423 1.5447056 234 88 12
-1.3452424 0.023483941 1.431115 234 88 12
-1.4600419 0.052038599 2.1715705 234 88 12
-1.3632075 0.079032175 1.5456057 234 88 12
-1.3652495 0.073622994 1.5573801 234 88 12
-1.3688966 0.06832017 1.5796438 234 88 12
-1.3700497 0.048278414 1.5814793 234 88 12
-1.3663077 0.037257832 1.5539724 234 88 12
-1.3690541 0.032780975 1.5706005 234 88 12
-1.3755069 0.02734622 1.6111101 234 88 12
-1.3793436 0.11119363 1.6461694 234 88 12
-1.3797388 0.10210466 1.6461694 234 88 12
-1.3802328 0.090743423 1.6461694 234 88 12
-1.3169014 0.10036355 1.2273438 234 88 12
-1.3229151 0.091873601 1.2649205 234 88 12
-1.3723247 0.080676556 1.5906098 234 88 12
-1.372432 0.078209423 1.5906098 234 88 12
-1.3912342 0.073725484 1.7144822 234 88 12
-1.3895857 0.071840003 1.7029626 234 88 12
-1.3803496 0.07034073 1.6410416 234 88 12
-1.3686181 0.065938897 1.5616684 234 88 12
-1.3702377 0.042942014 1.5657942 234 88 12
-1.3618101 0.035719186 1.507599 234 88 12
-1.3452439 0.022091825 1.3933703 234 88 12
-1.3463123 0.0096700219 1.3968874 234 88 12
-1.4600977 0.0757875 2.1708691 234 88 12
-1.3808578 0.12036563 1.6449364 234 88 12
-1.3192215 0.10440788 1.2208651 234 88 12
-1.3317233 0.09095756 1.3019444 234 88 12
-1.3398869 0.08621867 1.3560848 234 88 12
-1.3700283 0.076340772 1.558233 234 88 12
-1.3634483 0.074349053 1.5128762 234 88 12
-1.4411755 0.066677317 2.0394342 234 88 12
-1.3881023 0.067905568 1.6787072 234 88 12
-1.3766636 0.056190103 1.5974169 234 88 12
-1.3807129 0.044700693 1.6215683 234 88 12
-1.3690774 0.03971491 1.5409299 234 88 12
-1.374352 0.038360886 1.5764157 234 88 12
-1.3552728 0.030612551 1.4443158 234 88 12
-1.4304968 0.04878433 1.9614878 234 88 12
-1.3794355 0.029921358 1.6085055 234 88 12
-1.3457175 0.14520594 1.3934722 234 88 12
-1.3223784 0.10454514 1.2188264 234 88 12
-1.3225417 0.10078821 1.2188264 234 88 12
-1.3224115 0.093359314 1.2156743 234 88 12
-1.3225753 0.089591369 1.2156743 234 88 12
-1.3915596 0.06791573 1.6889768 234 88 12
-1.3798436 0.066006653 1.6069019 234 88 12
-1.380854 0.056450792 1.6110406 234 88 12
-1.3801081 0.053975504 1.6051036 234 88 12
-1.3810458 0.04445244 1.6087458 234 88 12
-1.3591696 0.028130222 1.4516376 234 88 12
-1.358031 0.024771975 1.4427016 234 88 12
-1.3770065 0.02844172 1.5758058 234 88 12
-1.3846765 0.12053166 1.6424702 234 88 12
-1.3849728 0.11371493 1.6424702 234 88 12
-1.3854668 0.1023537 1.6424702 234 88 12
-1.3859607 0.090992466 1.6424702 234 88 12
-1.3583736 0.075445391 1.4413837 234 88 12
-1.4049585 0.069309622 1.7709287 234 88 12
-1.3918699 0.068056554 1.677418 234 88 12
-1.3860594 0.066016167 1.6354457 234 88 12
-1.3801824 0.061234113 1.5921528 234 88 12
-1.3828509 0.058929697 1.6104262 234 88 12
-1.3765903 0.038034335 1.5594186 234 88 12
-1.374374 0.032159247 1.5418332 234 88 12
-1.3887269 0.027369585 1.6424702 234 88 12
-1.3270974 0.11273877 1.2056456 234 88 12
-1.3355258 0.088736616 1.2594097 234 88 12
-1.4057784 0.074918136 1.7665025 234 88 12
-1.3697206 0.074708141 1.5039212 234 88 12
-1.379096 0.071305916 1.5711011 234 88 12
-1.3807074 0.066245332 1.5812305 234 88 12
-1.3827173 0.051539529 1.591208 234 88 12
-1.3837254 0.041891363 1.5954943 234 88 12
-1.3577842 0.026358731 1.4017149 234 88 12
-1.3724734 0.028198222 1.5092403 234 88 12
-1.3747098 0.02624139 1.5249029 234 88 12
-1.3512857 0.014333487 1.350597 234 88 12
-1.3567517 0.01327651 1.3900571 234 88 12
-1.3568885 0.010129859 1.3900571 234 88 12
-1.4033405 0.10212944 1.7446327 234 88 12
-1.3311023 0.10142896 1.2060018 234 88 12
-1.3383954 0.092469648 1.2574552 234 88 12
-1.4378811 0.070405871 1.9917898 234 88 12
-1.4022443 0.069864303 1.7260076 234 88 12
-1.3839244 0.049028706 1.5827134 234 88 12
-1.3822839 0.041143503 1.5679315 234 88 12
-1.3765887 0.037073389 1.5241652 234 88 12
-1.3825802 0.031003473 1.5668536 234 88 12
-1.3925456 0.027535614 1.6400042 234 88 12
-1.3600799 -0.0023417873 1.3883494 234 88 12
-1.4048613 0.10410788 1.7435969 234 88 12
-1.4054422 0.090746969 1.7435969 234 88 12
-1.3334644 0.11301558 1.2015336 234 88 12
-1.3342787 0.10156707 1.2039503 234 88 12
-1.3749661 0.08298289 1.5083758 234 88 12
-1.355671 0.083250433 1.3611729 234 88 12
-1.378948 0.077054717 1.5368041 234 88 12
-1.3713542 0.075213194 1.4782248 234 88 12
-1.3842317 0.07142134 1.5752681 234 88 12
-1.3815142 0.069067776 1.5537428 234 88 12
-1.3866498 0.044270791 1.584717 234 88 12
-1.3830489 0.04090441 1.5561113 234 88 12
-1.3638465 0.02686025 1.4048656 234 88 12
-1.3864725 0.031720731 1.5791975 234 88 12
-1.3794857 0.026542295 1.5241444 234 88 12
-1.3926936 0.029212724 1.6258548 234 88 12
-1.3922149 0.12313596 1.637538 234 88 12
-1.3746369 0.08356753 1.4865793 234 88 12
-1.3810402 0.079776525 1.5353791 234 88 12
-1.3650874 0.076224588 1.4093822 234 88 12
-1.3908538 0.064046651 1.6067938 234 88 12
-1.3908682 0.056885704 1.6044717 234 88 12
-1.3917598 0.05458694 1.6106642 234 88 12
-1.3566879 0.023731684 1.3258257 234 88 12
-1.3857963 0.030817071 1.5559318 234 88 12
-1.3550851 0.016293623 1.3107585 234 88 12
-1.3553811 0.0094867898 1.3107585 234 88 12
-1.35276 0.088285558 1.292388 234 88 12
-1.3582112 0.083959684 1.334597 234 88 12
-1.3874797 0.071679667 1.5650456 234 88 12
-1.3935164 0.068844333 1.6124704 234 88 12
-1.4414097 0.065254435 1.9953173 234 88 12
-1.3910508 0.064130247 1.5910528 234 88 12
-1.3960963 0.052625347 1.6275061 234 88 12
-1.3913702 0.044582911 1.5867981 234 88 12
-1.3862287 0.040806748 1.5442474 234 88 12
-1.3967048 0.038811885 1.6275693 234 88 12
-1.357797 0.019821379 1.3089116 234 88 12
-1.358241 0.0096111298 1.3089116 234 88 12
-1.3586849 -0.00059911917 1.3089116 234 88 12
-1.3678752 0.0011497415 1.3832266 234 88 12
-1.3680121 -0.00199691 1.3832266 234 88 12
-1.3436395 0.09828496 1.1950868 234 88 12
-1.343969 0.090705797 1.1950868 234 88 12
-1.3544596 0.081702478 1.2781711 234 88 12
-1.3558571 0.078059837 1.2883652 234 88 12
-1.3880019 0.071905509 1.5506136 234 88 12
-1.3902452 0.064216584 1.5663185 234 88 12
-1.3924627 0.061768901 1.5836856 234 88 12
-1.3931882 0.044618111 1.5835197 234 88 12
-1.3839879 0.039757002 1.5060916 234 88 12
-1.3908733 0.036432244 1.5615469 234 88 12
-1.3605089 0.023349134 1.3070645 234 88 12
0.032814562 -1.3485068 1.7819211 234 88 12
0.034723263 -1.3484238 1.7819211 234 88 12
0.046175469 -1.3479259 1.7819211 234 88 12
0.05762767 -1.347428 1.7819211 234 88 12
0.025249492 -1.3504426 1.7808853 234 88 12
0.034792997 -1.3500277 1.7808853 234 88 12
0.046245199 -1.3495297 1.7808853 234 88 12
0.057697404 -1.3490318 1.7808853 234 88 12
0.069149606 -1.3485339 1.7808853 234 88 12
0.017684421 -1.3523784 1.7798495 234 88 12
0.080741279 -1.3512437 1.7788138 234 88 12
0.0082803816 -1.356001 1.777778 234 88 12
0.040784892 -1.3307558 1.6794626 234 88 12
0.047601629 -1.3304595 1.6794626 234 88 12
0.058962859 -1.3299655 1.6794626 234 88 12
0.070324086 -1.3294716 1.6794626 234 88 12
0.08168532 -1.3289776 1.6794626 234 88 12
0.0045327125 -1.3577708 1.7767422 234 88 12
0.012167515 -1.3574389 1.7767422 234 88 12
0.023619719 -1.356941 1.7767422 234 88 12
0.029506678 -1.3331591 1.6782295 234 88 12
0.09312956 -1.330393 1.6782295 234 88 12
0.094241649 -1.3538704 1.7767422 234 88 12
-0.0011236576 -1.3596237 1.7757064 234 88 12
0.022772953 -1.3353648 1.6769964 234 88 12
0.025045199 -1.335266 1.6769964 234 88 12
0.036406428 -1.3347721 1.6769964 234 88 12
0.047767658 -1.3342781 1.6769964 234 88 12
0.059128884 -1.3337841 1.6769964 234 88 12
0.070490114 -1.3332902 1.6769964 234 88 12
0.081851341 -1.3327962 1.6769964 234 88 12
0.093212575 -1.3323022 1.6769964 234 88 12
0.1045738 -1.3318083 1.6769964 234 88 12
0.070573129 -1.3351995 1.6757632 234 88 12
0.081934355 -1.3347056 1.6757632 234 88 12
0.093295589 -1.3342116 1.6757632 234 88 12
0.10465682 -1.3337176 1.6757632 234 88 12
0.065498039 -1.451838 2.1764817 234 88 12
0.11610106 -1.335133 1.6745303 234 88 12
0.0071162744 -1.3417844 1.6732972 234 88 12
0.069392234 -1.4520315 2.1762478 234 88 12
-0.014205634 -1.3666199 1.7715633 234 88 12
0.12762831 -1.3384576 1.6720641 234 88 12
-0.016044602 -1.3683068 1.7705275 234 88 12
-0.010318501 -1.3680577 1.7705275 234 88 12
0.00046556458 -1.3458993 1.670831 234 88 12
0.011826794 -1.3454053 1.670831 234 88 12
0.023188023 -1.3449115 1.670831 234 88 12
-0.017883571 -1.3699936 1.7694917 234 88 12
-0.010248768 -1.3696616 1.7694917 234 88 12
0.0012034359 -1.3691636 1.7694917 234 88 12
-0.0017236674 -1.3479074 1.6695979 234 88 12
0.034632266 -1.3463268 1.6695979 234 88 12
0.13923858 -1.3436916 1.6683649 234 88 12
-0.02347021 -1.3734502 1.7674201 234 88 12
0.056973714 -1.4543854 2.1750784 234 88 12
0.045475531 -1.2997215 1.4259164 234 88 12
0.048622184 -1.2995847 1.4259164 234 88 12
0.058062136 -1.2991743 1.4259164 234 88 12
0.067502089 -1.2987639 1.4259164 234 88 12
0.070648745 -1.298627 1.4259164 234 88 12
0.083235346 -1.2980797 1.4259164 234 88 12
0.092675306 -1.2976693 1.4259164 234 88 12
0.10526191 -1.2971221 1.4259164 234 88 12
0.13477711 -1.3457985 1.6671318 234 88 12
0.1393216 -1.345601 1.6671318 234 88 12
-0.010563609 -1.3540306 1.6658987 234 88 12
0.00079761981 -1.3535366 1.6658987 234 88 12
0.012158848 -1.3530427 1.6658987 234 88 12
0.026710583 -1.3031864 1.4242088 234 88 12
0.036150537 -1.302776 1.4242088 234 88 12
0.048737142 -1.3022288 1.4242088 234 88 12
0.058177095 -1.3018184 1.4242088 234 88 12
0.0707637 -1.3012711 1.4242088 234 88 12
0.083350308 -1.3007238 1.4242088 234 88 12
0.092790261 -1.3003134 1.4242088 234 88 12
0.10537687 -1.2997662 1.4242088 234 88 12
0.11796347 -1.2992189 1.4242088 234 88 12
0.12740342 -1.2988085 1.4242088 234 88 12
0.13713236 -1.347609 1.6658987 234 88 12
0.13940461 -1.3475102 1.6658987 234 88 12
-0.012752841 -1.3560387 1.6646656 234 88 12
0.011092286 -1.3065145 1.4225012 234 88 12
0.014238937 -1.3063778 1.4225012 234 88 12
0.12751839 -1.3014525 1.4225012 234 88 12
0.14010499 -1.3009053 1.4225012 234 88 12
0.15084885 -1.3489256 1.6646656 234 88 12
-0.014942073 -1.3580468 1.6634326 234 88 12
-0.010397581 -1.3578492 1.6634326 234 88 12
0.00096364744 -1.3573552 1.6634326 234 88 12
-0.0045260121 -1.3098427 1.4207937 234 88 12
0.1496599 -1.303139 1.4207937 234 88 12
0.19926611 -1.2688082 1.2573081 234 88 12
-0.032734785 -1.3802805 1.7632769 234 88 12
-0.02128258 -1.3797826 1.7632769 234 88 12
-0.016997658 -1.3130339 1.419086 234 88 12
-0.010704355 -1.3127604 1.419086 234 88 12
0.00188225 -1.3122131 1.419086 234 88 12
0.014468855 -1.3116659 1.419086 234 88 12
0.023908809 -1.3112555 1.419086 234 88 12
0.036495414 -1.3107082 1.419086 234 88 12
0.064325616 -1.4778247 2.2894957 234 88 12
0.21061002 -1.2714601 1.2552809 234 88 12
-0.034573752 -1.3819673 1.7622411 234 88 12
-0.0097606434 -1.3808885 1.7622411 234 88 12
-0.029469304 -1.3162253 1.4173784 234 88 12
0.046050329 -1.3129418 1.4173784 234 88 12
0.16247644 -1.3078798 1.4173784 234 88 12
0.080754101 -1.4551654 2.1739092 234 88 12
-0.023782015 -1.36417 1.6597333 234 88 12
-0.038794298 -1.3192798 1.4156709 234 88 12
0.12797822 -1.3120288 1.4156709 234 88 12
0.14056483 -1.3114816 1.4156709 234 88 12
0.15000479 -1.3110712 1.4156709 234 88 12
0.16259138 -1.3105239 1.4156709 234 88 12
0.2146188 -1.2775759 1.2512263 234 88 12
0.16254213 -1.3560688 1.6597333 234 88 12
-0.048119295 -1.3223343 1.4139633 234 88 12
-0.044972643 -1.3221974 1.4139633 234 88 12
0.17529295 -1.3126206 1.4139633 234 88 12
0.1603529 -1.358077 1.6585002 234 88 12
0.16262515 -1.3579782 1.6585002 234 88 12
-0.030432725 -1.3682849 1.6572672 234 88 12
-0.054297637 -1.3252519 1.4122556 234 88 12
-0.044857685 -1.3248415 1.4122556 234 88 12
-0.03227108 -1.3242943 1.4122556 234 88 12
-0.022831123 -1.3238839 1.4122556 234 88 12
-0.010244519 -1.3233366 1.4122556 234 88 12
0.0023420868 -1.3227893 1.4122556 234 88 12
0.011782041 -1.3223789 1.4122556 234 88 12
0.14079474 -1.3167697 1.4122556 234 88 12
0.1502347 -1.3163593 1.4122556 234 88 12
0.16282131 -1.315812 1.4122556 234 88 12
0.17540792 -1.3152647 1.4122556 234 88 12
0.18484786 -1.3148543 1.4122556 234 88 12
-0.040020928 -1.3886316 1.758098 234 88 12
-0.034294825 -1.3883827 1.758098 234 88 12
-0.02284262 -1.3878847 1.758098 234 88 12
-0.063622631 -1.3283064 1.4105481 234 88 12
-0.037083436 -1.3723999 1.654801 234 88 12
-0.069800973 -1.3312241 1.4088405 234 88 12
0.16741869 -1.3635086 1.654801 234 88 12
-0.041790161 -1.3919222 1.7560264 234 88 12
-0.034155361 -1.3915904 1.7560264 234 88 12
-0.072832666 -1.334005 1.4071329 234 88 12
-0.066539362 -1.3337314 1.4071329 234 88 12
0.15687288 -1.3240178 1.4071329 234 88 12
0.16316618 -1.3237442 1.4071329 234 88 12
0.17260614 -1.3233337 1.4071329 234 88 12
0.18519275 -1.3227865 1.4071329 234 88 12
0.19777934 -1.3222393 1.4071329 234 88 12
0.17431843 -1.3651215 1.6535679 234 88 12
-0.056984451 -1.335965 1.4054253 234 88 12
-0.044397846 -1.3354177 1.4054253 234 88 12
0.083449945 -1.4575877 2.1722722 234 88 12
-0.082042702 -1.3397036 1.4037178 234 88 12
0.17448446 -1.3689401 1.6511018 234 88 12
-0.088221051 -1.3426212 1.4020102 234 88 12
-0.078781091 -1.3422108 1.4020102 234 88 12
-0.06619449 -1.3416636 1.4020102 234 88 12
0.061791163 -1.4756018 2.2739811 234 88 12
0.16665772 -1.3315395 1.4020102 234 88 12
0.17295101 -1.3312659 1.4020102 234 88 12
0.18553762 -1.3307186 1.4020102 234 88 12
0.19812423 -1.3301715 1.4020102 234 88 12
0.20756418 -1.329761 1.4020102 234 88 12
-0.091252737 -1.3454021 1.4003025 234 88 12
-0.078666136 -1.3448548 1.4003025 234 88 12
0.16991933 -1.3340468 1.4003025 234 88 12
0.17306598 -1.33391 1.4003025 234 88 12
0.18565258 -1.3333627 1.4003025 234 88 12
-0.09428443 -1.348183 1.398595 234 88 12
-0.011928426 -1.3333905 1.3255339 234 88 12
0.19835414 -1.3354596 1.398595 234 88 12
0.2077941 -1.3350492 1.398595 234 88 12
-0.047097873 -1.4017943 1.7498116 234 88 12
-0.047028139 -1.4033982 1.7487758 234 88 12
-0.045119438 -1.4033152 1.7487758 234 88 12
-0.054597288 -1.3884648 1.6449364 234 88 12
-0.0014694977 -1.3386662 1.3218399 234 88 12
0.079044372 -1.4409103 2.0412891 234 88 12
0.080813579 -1.4408334 2.0412891 234 88 12
-0.10023285 -1.3563888 1.3934722 234 88 12
0.085283905 -1.4600476 2.1706352 234 88 12
0.18179928 -1.3800997 1.6437033 234 88 12
-0.046888676 -1.4066058 1.7467042 234 88 12
-0.044979975 -1.4065229 1.7467042 234 88 12
0.0055860146 -1.3440899 1.3181461 234 88 12
0.051363699 -1.3800015 1.587813 234 88 12
0.053997096 -1.3815043 1.5993197 234 88 12
0.058713231 -1.3789814 1.5828276 234 88 12
0.06122274 -1.3798158 1.5895414 234 88 12
0.068534575 -1.380849 1.599154 234 88 12
0.071082376 -1.378915 1.5861818 234 88 12
0.18308072 -1.3467199 1.3917646 234 88 12
0.18622738 -1.346583 1.3917646 234 88 12
0.19566733 -1.3461726 1.3917646 234 88 12
0.20825393 -1.3456254 1.3917646 234 88 12
0.18188229 -1.382009 1.6424702 234 88 12
-0.058892742 -1.3943905 1.6412371 234 88 12
-0.10314959 -1.3618137 1.3900571 234 88 12
0.0091137709 -1.3468016 1.3162992 234 88 12
0.012517187 -1.3466537 1.3162992 234 88 12
0.025675438 -1.3731632 1.513464 234 88 12
0.036066517 -1.3805939 1.5708511 234 88 12
0.038249925 -1.3792089 1.5614598 234 88 12
0.041455779 -1.3818787 1.5819118 234 88 12
0.046167701 -1.3803302 1.5721291 234 88 12
0.048818134 -1.381089 1.5784923 234 88 12
0.058728315 -1.3797216 1.5716741 234 88 12
0.06376186 -1.3803821 1.5780758 234 88 12
0.071224004 -1.3802589 1.5795414 234 88 12
0.073450364 -1.3828773 1.5993097 234 88 12
0.07627961 -1.3793669 1.5746477 234 88 12
0.078783669 -1.379258 1.5746477 234 88 12
0.080810778 -1.3819424 1.5948322 234 88 12
0.086290762 -1.3789544 1.5748135 234 88 12
0.087978639 -1.3821689 1.5987505 234 88 12
0.096957356 -1.3679262 1.4979004 234 88 12
0.094822466 -1.3831569 1.6081092 234 88 12
0.18634233 -1.3492271 1.3900571 234 88 12
0.19578229 -1.3488166 1.3900571 234 88 12
0.2083689 -1.3482695 1.3900571 234 88 12
-0.10618128 -1.3645946 1.3883494 234 88 12
0.030770347 -1.381907 1.5617615 234 88 12
0.034213077 -1.3846073 1.5830023 234 88 12
0.037849378 -1.3794997 1.5461125 234 88 12
0.040722083 -1.3805287 1.5547135 234 88 12
0.044851806 -1.3749276 1.5143062 234 88 12
0.047560804 -1.3748099 1.5143062 234 88 12
0.063836522 -1.3788761 1.5498863 234 88 12
0.068961382 -1.3796245 1.5571249 234 88 12
0.071536072 -1.3793147 1.5556505 234 88 12
0.079398423 -1.3778701 1.5474317 234 88 12
0.081992328 -1.3777573 1.5474317 234 88 12
0.083997093 -1.3805777 1.5691019 234 88 12
0.093576863 -1.3817766 1.5811415 234 88 12
0.092442691 -1.4433067 2.0393689 234 88 12
0.037171107 -1.3788362 1.5227137 234 88 12
0.045508314 -1.3801296 1.5353544 234 88 12
0.048693884 -1.3834038 1.5614058 234 88 12
0.056042764 -1.379802 1.5363498 234 88 12
0.058671892 -1.3797172 1.5365758 234 88 12
0.066590339 -1.377686 1.5236977 234 88 12
0.069292858 -1.3769354 1.518865 234 88 12
0.071585253 -1.3820603 1.5587474 234 88 12
0.081757933 -1.3817635 1.5598577 234 88 12
0.084900826 -1.3787583 1.5379603 234 88 12
-0.10909802 -1.3700196 1.3849343 234 88 12
-0.10280471 -1.3697459 1.3849343 234 88 12
0.032225236 -1.3734235 1.4596258 234 88 12
0.039958306 -1.3907983 1.5981679 234 88 12
0.039424635 -1.3788846 1.5047929 234 88 12
0.040635686 -1.3719008 1.4505751 234 88 12
0.045471616 -1.3816555 1.5285246 234 88 12
0.04613772 -1.3696232 1.4346304 234 88 12
0.052674834 -1.3951228 1.6363201 234 88 12
0.053621482 -1.383111 1.5426822 234 88 12
0.056026656 -1.3806803 1.5244865 234 88 12
0.058690239 -1.3805646 1.5244865 234 88 12
0.069253393 -1.3818799 1.538368 234 88 12
0.079713777 -1.3617145 1.3841847 234 88 12
0.080840282 -1.3743324 1.4832703 234 88 12
0.084710337 -1.3823125 1.5470095 234 88 12
0.094659656 -1.3831003 1.5565556 234 88 12
0.19298051 -1.3568857 1.3849343 234 88 12
0.19612716 -1.3567488 1.3849343 234 88 12
-0.044631314 -1.414542 1.7415253 234 88 12
0.023010146 -1.3745717 1.4445542 234 88 12
0.044965591 -1.4102448 1.7383043 234 88 12
0.066696271 -1.3856285 1.5484611 234 88 12
0.069320127 -1.3846166 1.5412614 234 88 12
0.072539166 -1.3768698 1.4802555 234 88 12
0.07737837 -1.3823912 1.5262232 234 88 12
0.08036831 -1.3802094 1.5097687 234 88 12
0.08328145 -1.3790226 1.5012659 234 88 12
0.085356385 -1.3819522 1.5254844 234 88 12
0.095270835 -1.3750881 1.4738919 234 88 12
0.095534891 -1.3828465 1.5362054 234 88 12
0.20882873 -1.3588457 1.3832266 234 88 12
0.037390783 -1.3853238 1.5162348 234 88 12
0.043744039 -1.3765589 1.4464002 234 88 12
0.046666939 -1.3764318 1.4464002 234 88 12
0.051561408 -1.3678976 1.3779417 234 88 12
0.058124624 -1.3718712 1.4129792 234 88 12
0.0623798 -1.4133497 1.7557378 234 88 12
0.064208731 -1.3808898 1.4893497 234 88 12
0.066603303 -1.3945959 1.6029634 234 88 12
0.070175759 -1.3731627 1.4279156 234 88 12
0.075801611 -1.3760026 1.4532903 234 88 12
0.080995761 -1.3793433 1.4826317 234 88 12
0.084738344 -1.374404 1.4433349 234 88 12
0.086886503 -1.3777834 1.4719055 234 88 12
0.091034546 -1.3724434 1.4294589 234 88 12
0.094015874 -1.3723139 1.4294589 234 88 12
1.2491164 0.1525711 2.4017861 234 88 12
1.105018 0.14199005 1.9322485 234 88 12
1.1040896 0.14957546 1.9322485 234 88 12
1.1088438 0.1386088 1.930479 234 88 12
1.1074511 0.14998691 1.930479 234 88 12
1.1107566 0.13691817 1.9295944 234 88 12
1.1094199 0.16177647 1.9287096 234 88 12
1.1160312 0.135639 1.9269403 234 88 12
1.1155668 0.1394317 1.9269403 234 88 12
1.115855 0.15101553 1.9260556 234 88 12
1.1161431 0.16259937 1.9251709 234 88 12
1.1183441 0.17249258 1.9234015 234 88 12
1.1268121 0.13118429 1.9216321 234 88 12
1.0287316 0.1207679 1.5300516 234 88 12
1.1036012 0.13393429 1.8257222 234 88 12
1.1033249 0.13619183 1.8257222 234 88 12
1.1030486 0.13844939 1.8257222 234 88 12
1.0325563 0.11437193 1.5284741 234 88 12
1.0481772 0.12670955 1.5957075 234 88 12
1.1047732 0.14095184 1.824669 234 88 12
1.1036679 0.14998201 1.824669 234 88 12
1.1276205 0.15245561 1.9198626 234 88 12
1.1264598 0.16193737 1.9198626 234 88 12
1.1325507 0.12611242 1.918978 234 88 12
1.0363811 0.10797597 1.5268966 234 88 12
1.1087084 0.12539393 1.8236158 234 88 12
1.0520961 0.11766983 1.594249 234 88 12
1.0494175 0.13955387 1.594249 234 88 12
1.128837 0.15645404 1.918978 234 88 12
1.1281406 0.1621431 1.918978 234 88 12
1.126748 0.17352121 1.918978 234 88 12
1.1262838 0.17731391 1.918978 234 88 12
1.0552497 0.11488269 1.5927905 234 88 12
1.0432029 0.10194684 1.5237415 234 88 12
1.0587858 0.10896926 1.591332 234 88 12
1.0580206 0.11522184 1.591332 234 88 12
1.1382895 0.12104054 1.9163238 234 88 12
1.0466137 0.098932274 1.522164 234 88 12
1.0592608 0.12806617 1.5898736 234 88 12
1.0577302 0.14057134 1.5898736 234 88 12
1.0565822 0.14995022 1.5898736 234 88 12
1.1102899 0.16224937 1.8204561 234 88 12
1.0650929 0.10339499 1.588415 234 88 12
1.0593531 0.15028937 1.588415 234 88 12
1.1151206 0.15596657 1.8183497 234 88 12
1.1339912 0.18403159 1.9145544 234 88 12
1.0568464 0.089888573 1.5174315 234 88 12
1.0714 0.097820707 1.585498 234 88 12
1.0706347 0.10407329 1.585498 234 88 12
1.0691041 0.11657847 1.585498 234 88 12
1.0687214 0.11970476 1.585498 234 88 12
1.0675735 0.12908363 1.585498 234 88 12
1.0664256 0.13846251 1.585498 234 88 12
1.0648949 0.15096769 1.585498 234 88 12
1.1162926 0.1629841 1.8172965 234 88 12
1.0602572 0.086874008 1.5158539 234 88 12
1.0703443 0.1294228 1.5840394 234 88 12
1.0691965 0.13880166 1.5840394 234 88 12
1.1169119 0.17451674 1.8162433 234 88 12
1.1387454 0.17306493 1.9127849 234 88 12
1.1269262 0.10929285 1.8151901 234 88 12
1.0704367 0.151646 1.5825809 234 88 12
1.0692887 0.16102488 1.5825809 234 88 12
1.1205708 0.16121638 1.8151901 234 88 12
1.1191891 0.1725041 1.8151901 234 88 12
1.1390336 0.18464877 1.9119003 234 88 12
1.0804781 0.092585593 1.5811224 234 88 12
1.070076 0.081211708 1.5111214 234 88 12
1.0836316 0.08979845 1.579664 234 88 12
1.0817183 0.10542992 1.579664 234 88 12
1.0734868 0.078197137 1.5095438 234 88 12
1.0833412 0.11514795 1.5782055 234 88 12
1.0818106 0.12765312 1.5782055 234 88 12
1.0830508 0.14049745 1.5767469 234 88 12
1.0819029 0.14987633 1.5767469 234 88 12
1.1280217 0.16671111 1.8109772 234 88 12
1.1271927 0.17348373 1.8109772 234 88 12
1.138036 0.10148722 1.809924 234 88 12
1.0927095 0.084563337 1.5752884 234 88 12
1.2539871 0.1533495 2.4153454 234 88 12
1.0831432 0.16272065 1.5752884 234 88 12
1.1481338 0.17998834 1.9074768 234 88 12
1.1474375 0.18567739 1.9074768 234 88 12
1.0833056 0.072534837 1.5048113 234 88 12
1.0958631 0.081776194 1.5738299 234 88 12
1.0943325 0.094281368 1.5738299 234 88 12
1.089358 0.13492317 1.5738299 234 88 12
1.0889753 0.13804947 1.5738299 234 88 12
1.0874447 0.15055464 1.5738299 234 88 12
1.0859141 0.16305982 1.5738299 234 88 12
1.129813 0.18526128 1.8088708 234 88 12
1.1495824 0.18209042 1.906592 234 88 12
1.0990167 0.078989059 1.5723714 234 88 12
1.0875371 0.17277785 1.5723714 234 88 12
1.1510311 0.18419249 1.9057074 234 88 12
1.0937518 0.14498036 1.5709128 234 88 12
1.0929865 0.15123294 1.5709128 234 88 12
1.1049411 0.076541081 1.5694543 234 88 12
1.1041758 0.08279366 1.5694543 234 88 12
1.0946094 0.16095099 1.5694543 234 88 12
1.0930789 0.17345615 1.5694543 234 88 12
1.1394745 0.17269565 1.8046579 234 88 12
1.138093 0.18398337 1.8046579 234 88 12
1.1414754 0.17294055 1.8036047 234 88 12
1.1400938 0.18422829 1.8036047 234 88 12
1.1167901 0.071645111 1.5636203 234 88 12
1.1053103 0.1654339 1.5636203 234 88 12
1.1041623 0.17481278 1.5636203 234 88 12
1.1199436 0.068857975 1.5621618 234 88 12
1.119561 0.071984269 1.5621618 234 88 12
1.1076986 0.16889934 1.5621618 234 88 12
1.1069332 0.17515193 1.5621618 234 88 12
1.1625644 0.18752892 1.8995144 234 88 12
1.1085562 0.18486996 1.5607033 234 88 12
1.1509273 0.1786802 1.7983388 234 88 12
1.1500983 0.18545283 1.7983388 234 88 12
1.1649975 0.19552578 1.897745 234 88 12
1.1286389 0.066749148 1.5577863 234 88 12
1.1152459 0.1761694 1.5577863 234 88 12
1.1168689 0.18588743 1.5563278 234 88 12
1.1690553 0.19024818 1.8959756 234 88 12
1.168359 0.19593723 1.8959756 234 88 12
1.1569967 0.19546264 1.7941259 234 88 12
1.1404878 0.061853185 1.5519522 234 88 12
1.2378584 0.15173024 2.3008194 234 88 12
1.1606555 0.18216228 1.7930727 234 88 12
1.1603792 0.18441983 1.7930727 234 88 12
1.1589977 0.19570754 1.7930727 234 88 12
1.1740977 0.19086535 1.8933215 234 88 12
1.1734014 0.19655441 1.8933215 234 88 12
1.1432587 0.062192343 1.5504937 234 88 12
1.1279525 0.18724406 1.5504937 234 88 12
1.1623801 0.18466474 1.7920195 234 88 12
1.1609986 0.19595246 1.7920195 234 88 12
1.2389842 0.14882608 2.3004198 234 88 12
1.1382707 0.19485326 1.5446597 234 88 12
1.1378881 0.19797955 1.5446597 234 88 12
1.1578785 0.057635535 1.5432012 234 88 12
1.140659 0.1983187 1.5432012 234 88 12
1.1839502 0.19399606 1.8880132 234 88 12
1.1741092 0.18839175 1.7857002 234 88 12
1.1730039 0.19742192 1.7857002 234 88 12
1.1853989 0.19609813 1.8871286 234 88 12
1.2416804 0.14567955 2.2992213 234 88 12
1.1665738 0.055526707 1.5388256 234 88 12
1.2415882 0.14957936 2.2990217 234 88 12
1.1489717 0.19933617 1.5388256 234 88 12
1.2425442 0.14491615 2.2988219 234 88 12
1.2419677 0.14962581 2.2988219 234 88 12
1.2413388 0.15476362 2.2988219 234 88 12
1.1517426 0.19967532 1.5373671 234 88 12
1.1906734 0.19481896 1.8844744 234 88 12
1.1904413 0.19671531 1.8844744 234 88 12
1.1818366 0.19162892 1.7814873 234 88 12
1.181284 0.19614401 1.7814873 234 88 12
1.2531078 0.15135397 2.3997934 234 88 12
1.1858383 0.19211873 1.7793809 234 88 12
1.1852857 0.19663383 1.7793809 234 88 12
1.1959478 0.19353978 1.8818203 234 88 12
1.1957157 0.19543613 1.8818203 234 88 12
1.1808109 0.054096192 1.5315331 234 88 12
1.1624435 0.20415825 1.5315331 234 88 12
1.1679852 0.20483655 1.5286161 234 88 12
1.1922772 0.052326519 1.5256991 234 88 12
1.2355219 0.13918434 2.1683395 234 88 12
1.1912363 0.12742428 1.6229248 234 88 12
1.173527 0.20551486 1.5256991 234 88 12
1.1958429 0.19334328 1.7741148 234 88 12
1.1955665 0.19560084 1.7741148 234 88 12
1.2366236 0.13664304 2.1679294 234 88 12
1.2016371 0.13361882 1.7290326 234 88 12
1.2005551 0.13577175 1.7188723 234 88 12
1.1989467 0.13784982 1.7020649 234 88 12
1.1986401 0.14035526 1.7020649 234 88 12
1.1973166 0.14526328 1.6930933 234 88 12
1.1878465 0.14984158 1.5824938 234 88 12
1.2006111 0.13532551 1.6892712 234 88 12
1.1999879 0.1404174 1.6892712 234 88 12
1.2077038 0.14451009 1.7955812 234 88 12
1.1976817 0.14526409 1.6671078 234 88 12
1.2006322 0.15070195 1.7138942 234 88 12
1.1821966 0.15628356 1.4842124 234 88 12
1.2077131 0.19497986 1.8756274 234 88 12
1.2009726 0.050217692 1.5213236 234 88 12
1.2050964 0.13889812 1.7236367 234 88 12
1.1758971 0.15334705 1.3531265 234 88 12
1.1845928 0.15665887 1.4760566 234 88 12
1.194446 0.16178088 1.617612 234 88 12
1.2072432 0.1391609 1.7225066 234 88 12
1.2111664 0.15152736 1.7993096 234 88 12
1.1969199 0.16208369 1.6163099 234 88 12
1.1773287 0.17220858 1.3570634 234 88 12
1.1768768 0.17590052 1.3570634 234 88 12
1.1849933 0.2037452 1.519865 234 88 12
1.2041228 0.19206537 1.769902 234 88 12
1.2035702 0.19658047 1.769902 234 88 12
1.1868954 0.13983268 1.38913 234 88 12
1.2143356 0.14755934 1.8093252 234 88 12
1.2140764 0.14967649 1.8093252 234 88 12
1.186283 0.16783054 1.4307939 234 88 12
1.2129877 0.19370069 1.8729733 234 88 12
1.1882331 0.13984258 1.3582871 234 88 12
1.1857662 0.15455501 1.3479317 234 88 12
1.1854939 0.161902 1.3576789 234 88 12
1.1832103 0.16956636 1.3367614 234 88 12
1.1905351 0.2044235 1.516948 234 88 12
1.2081246 0.1925552 1.7677956 234 88 12
1.207572 0.19707029 1.7677956 234 88 12
1.2421581 0.13018407 2.1654694 234 88 12
1.1989349 0.14511417 1.4881312 234 88 12
1.1968193 0.15150832 1.4663216 234 88 12
1.1940736 0.16159965 1.4416035 234 88 12
1.1869932 0.1662229 1.3350117 234 88 12
1.1874257 0.16975936 1.3491703 234 88 12
1.1860752 0.17372355 1.3350117 234 88 12
1.2419689 0.13818933 2.1650593 234 88 12
1.219854 0.14383867 1.7951263 234 88 12
1.2111839 0.15222405 1.6631359 234 88 12
1.1923456 0.15536033 1.3444686 234 88 12
1.1970708 0.16196652 1.4400258 234 88 12
1.1960769 0.20510182 1.5140311 234 88 12
1.2069246 0.14616637 1.5275878 234 88 12
1.2065482 0.14924091 1.5275878 234 88 12
1.1963391 0.15205789 1.347312 234 88 12
1.1956353 0.15576299 1.342737 234 88 12
1.1923391 0.178258 1.3328153 234 88 12
1.2199428 0.19262724 1.8694345 234 88 12
1.2239395 0.14215051 1.7931147 234 88 12
1.2043573 0.14213927 1.4131026 234 88 12
1.1980164 0.16358891 1.3410054 234 88 12
1.1965431 0.17118263 1.3304533 234 88 12
1.2045947 0.13804369 1.3416032 234 88 12
1.2067538 0.14235772 1.3971682 234 88 12
1.2184055 0.1915222 1.7625295 234 88 12
1.2084571 0.13479313 1.3428131 234 88 12
1.2078773 0.13844548 1.3398752 234 88 12
1.2098672 0.1427388 1.3955294 234 88 12
1.2090074 0.14976428 1.3955294 234 88 12
1.2130165 0.15330707 1.4938244 234 88 12
1.2052258 0.15699005 1.3314312 234 88 12
1.2020875 0.18308483 1.3326623 234 88 12
1.2079258 0.20020585 1.5081969 234 88 12
1.2198538 0.19628219 1.7614763 234 88 12
1.2473696 0.12636174 2.1630092 234 88 12
1.2106955 0.14632732 1.3488775 234 88 12
1.2102467 0.14999421 1.3488775 234 88 12
1.2096015 0.15366141 1.3442087 234 88 12
1.2083398 0.16108525 1.3358107 234 88 12
1.2227275 0.13908441 1.5488688 234 88 12
1.2099185 0.1727715 1.3255987 234 88 12
1.2134675 0.20088416 1.5052799 234 88 12
1.2187659 0.13232265 1.3387107 234 88 12
1.2198423 0.14405507 1.4089531 234 88 12
1.2232475 0.14816295 1.5182071 234 88 12
1.2149192 0.16189057 1.3323475 234 88 12
1.2266854 0.19024429 1.7583166 234 88 12
1.2210801 0.1361521 1.3205538 234 88 12
1.2192167 0.15486638 1.3336424 234 88 12
1.2193919 0.19843619 1.502363 234 88 12
1.2529219 0.13879877 2.2938282 234 88 12
1.2255435 0.12925477 1.3272524 234 88 12
1.2239416 0.14030442 1.3188062 234 88 12
1.247366 0.15223064 2.1613691 234 88 12
1.2226727 0.15154898 1.3224418 234 88 12
1.2214986 0.16269587 1.3288842 234 88 12
1.2309636 0.18847656 1.7562102 234 88 12
0.15154026 1.2505654 2.4011002 234 88 12
0.18292539 1.1993332 2.1843305 234 88 12
0.17237882 1.200624 2.1843305 234 88 12
0.15372357 1.2538695 2.4153826 234 88 12
0.1176734 1.0595293 1.5142764 234 88 12
0.1847785 1.1998969 2.1839204 234 88 12
0.18389961 1.2000046 2.1839204 234 88 12
0.17159529 1.2015105 2.1839204 234 88 12
0.091355897 1.0688343 1.5111214 234 88 12
0.081578538 1.073073 1.5095438 234 88 12
0.075182572 1.0768977 1.5079663 234 88 12
0.065405212 1.0811363 1.5063888 234 88 12
0.059009254 1.0849612 1.5048113 234 88 12
0.055627856 1.085375 1.5048113 234 88 12
0.20716706 1.0833278 1.5723714 234 88 12
0.20404077 1.0837104 1.5723714 234 88 12
0.19466189 1.0848584 1.5723714 234 88 12
0.18215673 1.0863891 1.5723714 234 88 12
0.16965155 1.0879197 1.5723714 234 88 12
0.16027267 1.0890676 1.5723714 234 88 12
0.1477675 1.0905982 1.5723714 234 88 12
0.15748553 1.0922211 1.5709128 234 88 12
0.14810665 1.0933691 1.5709128 234 88 12
0.13560149 1.0948998 1.5709128 234 88 12
0.12622261 1.0960478 1.5709128 234 88 12
0.046217326 1.0926106 1.5016562 234 88 12
0.042835932 1.0930245 1.5016562 234 88 12
0.22660314 1.0865736 1.5694543 234 88 12
0.15973589 1.2322567 2.3032162 234 88 12
0.17970873 1.0923135 1.5694543 234 88 12
0.17032985 1.0934615 1.5694543 234 88 12
0.11405659 1.1003493 1.5694543 234 88 12
0.10155142 1.1018798 1.5694543 234 88 12
0.18475772 1.2070153 2.1802301 234 88 12
0.18387884 1.2071228 2.1802301 234 88 12
0.23319487 1.0885792 1.5679959 234 88 12
0.1619231 1.2323741 2.3030167 234 88 12
0.11126945 1.1035029 1.5679959 234 88 12
0.10189057 1.1046507 1.5679959 234 88 12
0.089385405 1.1061814 1.5679959 234 88 12
0.080006525 1.1073294 1.5679959 234 88 12
0.033425402 1.1002601 1.4985012 234 88 12
0.22728144 1.0921154 1.5665374 234 88 12
0.13349266 1.1035951 1.5665374 234 88 12
0.12411378 1.1047431 1.5665374 234 88 12
0.067840509 1.1116309 1.5665374 234 88 12
0.023648042 1.1044987 1.4969237 234 88 12
0.24637835 1.0925905 1.5650789 234 88 12
0.24012576 1.0933557 1.5650789 234 88 12
0.15258957 1.1040701 1.5650789 234 88 12
0.14633699 1.1048354 1.5650789 234 88 12
0.06192708 1.1151671 1.5650789 234 88 12
0.055674493 1.1159325 1.5650789 234 88 12
0.084150285 1.1152594 1.5636203 234 88 12
0.077897698 1.1160247 1.5636203 234 88 12
0.043508478 1.1202339 1.5636203 234 88 12
0.034129601 1.1213819 1.5636203 234 88 12
0.25330925 1.0973669 1.5621618 234 88 12
0.25018296 1.0977495 1.5621618 234 88 12
0.24080408 1.0988975 1.5621618 234 88 12
0.14076272 1.1111425 1.5621618 234 88 12
0.13763642 1.1115252 1.5621618 234 88 12
0.12513125 1.1130558 1.5621618 234 88 12
0.11262608 1.1145864 1.5621618 234 88 12
0.10949978 1.114969 1.5621618 234 88 12
0.1032472 1.1157343 1.5621618 234 88 12
0.090742029 1.117265 1.5621618 234 88 12
0.078236856 1.1187956 1.5621618 234 88 12
0.068857975 1.1199436 1.5621618 234 88 12
0.056352805 1.1214741 1.5621618 234 88 12
0.043847635 1.1230048 1.5621618 234 88 12
0.034468755 1.1241528 1.5621618 234 88 12
0.021963585 1.1256834 1.5621618 234 88 12
0.015711 1.1264488 1.5621618 234 88 12
0.0094584143 1.1272141 1.5621618 234 88 12
0.13172299 1.1150614 1.5607033 234 88 12
0.1254704 1.1158266 1.5607033 234 88 12
0.037934203 1.126541 1.5607033 234 88 12
0.03168162 1.1273063 1.5607033 234 88 12
-0.0027076018 1.1315155 1.5607033 234 88 12
0.24773498 1.1036739 1.5592448 234 88 12
0.060157407 1.1266333 1.5592448 234 88 12
0.057031117 1.1270159 1.5592448 234 88 12
-0.011747325 1.1354344 1.5592448 234 88 12
0.26683187 1.104149 1.5577863 234 88 12
0.26370558 1.1045316 1.5577863 234 88 12
0.082380615 1.1267257 1.5577863 234 88 12
0.079254322 1.1271083 1.5577863 234 88 12
-0.011408169 1.1382053 1.5577863 234 88 12
-0.014534462 1.138588 1.5577863 234 88 12
0.14902198 1.2370344 2.3014185 234 88 12
0.10460382 1.1268179 1.5563278 234 88 12
0.10147753 1.1272006 1.5563278 234 88 12
0.13617745 1.2386066 2.3014185 234 88 12
0.07457073 1.1832142 1.8959756 234 88 12
0.068881676 1.1839106 1.8959756 234 88 12
0.066985324 1.1841427 1.8959756 234 88 12
0.082361862 1.1839665 1.8950909 234 88 12
0.078569159 1.1844307 1.8950909 234 88 12
0.27722824 1.1113137 1.5534108 234 88 12
0.058387738 1.1380996 1.5534108 234 88 12
0.055261444 1.1384822 1.5534108 234 88 12
0.056018669 1.1888969 1.8942062 234 88 12
0.26818851 1.1152325 1.5519522 234 88 12
0.26193592 1.1159978 1.5519522 234 88 12
0.16242129 1.1567346 1.749281 234 88 12
0.15999028 1.1572691 1.7509191 234 88 12
0.15031622 1.1573659 1.7434055 234 88 12
0.14781842 1.156621 1.7361451 234 88 12
0.14334686 1.1613641 1.7651384 234 88 12
0.1402545 1.1562243 1.7270057 234 88 12
0.13775893 1.1565297 1.7270057 234 88 12
0.13565075 1.1589066 1.7416478 234 88 12
0.13365497 1.1613029 1.7565186 234 88 12
0.080610946 1.1381918 1.5519522 234 88 12
0.077484652 1.1385745 1.5519522 234 88 12
0.096047774 1.1857033 1.8933215 234 88 12
-0.01317784 1.1496716 1.5519522 234 88 12
0.28103283 1.1164728 1.5504937 234 88 12
0.27478024 1.117238 1.5504937 234 88 12
0.26227507 1.1187687 1.5504937 234 88 12
0.17013301 1.156781 1.7397817 234 88 12
0.15300925 1.157928 1.7330627 234 88 12
0.1433921 1.1615275 1.7502142 234 88 12
0.13640082 1.1636448 1.7591468 234 88 12
0.13102677 1.161656 1.7404077 234 88 12
0.12381589 1.1629195 1.7431046 234 88 12
0.12183136 1.1644943 1.7525353 234 88 12
-0.0097123915 1.1520598 1.5504937 234 88 12
-0.012838685 1.1524425 1.5504937 234 88 12
0.18002819 1.1583056 1.7425305 234 88 12
0.15781911 1.167697 1.7909663 234 88 12
0.14878893 1.1688021 1.7909663 234 88 12
0.13750121 1.1701838 1.7909663 234 88 12
0.13438626 1.1844226 1.8915521 234 88 12
0.11452255 1.160522 1.7004201 234 88 12
0.11820038 1.1798818 1.8442121 234 88 12
0.11570713 1.1834755 1.868082 234 88 12
0.11334222 1.1830324 1.862765 234 88 12
0.11352639 1.1869758 1.8915521 234 88 12
0.28796372 1.1212493 1.5475768 234 88 12
0.18822514 1.1639729 1.7747749 234 88 12
0.18360151 1.1645387 1.7747749 234 88 12
0.18409507 1.1557062 1.7094631 234 88 12
0.18154912 1.1560178 1.7094631 234 88 12
0.17636089 1.1665705 1.7833037 234 88 12
0.17160928 1.1680399 1.7899131 234 88 12
0.13548858 1.172461 1.7899131 234 88 12
0.12420086 1.1738427 1.7899131 234 88 12
0.12511022 1.187264 1.8906673 234 88 12
0.056841571 1.1956199 1.8906673 234 88 12
0.26641884 1.1266987 1.5461183 234 88 12
0.19278143 1.160964 1.7390751 234 88 12
0.18388134 1.1595044 1.7195977 234 88 12
0.1515363 1.1725277 1.7888598 234 88 12
0.14927876 1.172804 1.7888598 234 88 12
0.11315804 1.1772251 1.7888598 234 88 12
0.072218105 1.1954439 1.8897827 234 88 12
0.068425402 1.1959081 1.8897827 234 88 12
0.19507204 1.218403 2.1736698 234 88 12
0.28864205 1.126791 1.5446597 234 88 12
0.28551576 1.1271737 1.5446597 234 88 12
0.24725871 1.1107806 1.3792778 234 88 12
0.19066927 1.1733932 1.8162482 234 88 12
0.18564437 1.1703838 1.7878066 234 88 12
0.16758402 1.1725943 1.7878066 234 88 12
0.085698292 1.1954999 1.888898 234 88 12
-0.0083557703 1.1631434 1.5446597 234 88 12
0.19305907 1.1750401 1.8152424 234 88 12
0.18363175 1.1726609 1.7867534 234 88 12
0.099178478 1.1955558 1.8880132 234 88 12
0.24806523 1.1173699 1.3758094 234 88 12
0.24504976 1.1167655 1.3677387 234 88 12
0.24130382 1.1172241 1.3677387 234 88 12
0.22920252 1.1201377 1.379616 234 88 12
0.19544889 1.1766871 1.8142365 234 88 12
0.19516437 1.1732802 1.7857002 234 88 12
0.10712013 1.1840569 1.7857002 234 88 12
0.10260504 1.1846095 1.7857002 234 88 12
0.10886596 1.196076 1.8871286 234 88 12
0.14990798 1.2529068 2.3999896 234 88 12
0.23330796 1.122967 1.3778881 234 88 12
0.22568637 1.1301934 1.4315829 234 88 12
0.19766682 1.1750048 1.784647 234 88 12
0.12316786 1.1841235 1.784647 234 88 12
0.29625124 1.1371093 1.5388256 234 88 12
0.28687236 1.1382573 1.5388256 234 88 12
0.27436721 1.1397879 1.5388256 234 88 12
0.23304491 1.1325208 1.430542 234 88 12
0.13921557 1.1841902 1.7835938 234 88 12
0.13695803 1.1844665 1.7835938 234 88 12
-0.00074656308 1.1734617 1.5388256 234 88 12
0.29659042 1.1398802 1.5373671 234 88 12
0.16932076 1.239557 2.2988219 234 88 12
0.24596281 1.1271489 1.3659873 234 88 12
0.15752085 1.1839805 1.7825406 234 88 12
0.10379408 1.2018147 1.8844744 234 88 12
0.10189773 1.2020469 1.8844744 234 88 12
0.090519622 1.2034395 1.8844744 234 88 12
0.079141513 1.2048322 1.8844744 234 88 12
0.067763403 1.2062248 1.8844744 234 88 12
0.062074352 1.2069212 1.8844744 234 88 12
0.20517419 1.1801786 1.7814873 234 88 12
0.19388646 1.1815603 1.7814873 234 88 12
0.18259874 1.1829418 1.7814873 234 88 12
0.17356856 1.1840471 1.7814873 234 88 12
0.17131102 1.1843234 1.7814873 234 88 12
0.1600233 1.1857051 1.7814873 234 88 12
0.14873557 1.1870867 1.7814873 234 88 12
0.13744785 1.1884682 1.7814873 234 88 12
0.12616013 1.1898499 1.7814873 234 88 12
0.11487241 1.1912315 1.7814873 234 88 12
0.10132714 1.1928895 1.7814873 234 88 12
0.075554535 1.2069771 1.8835897 234 88 12
0.0030580405 1.1786208 1.5359087 234 88 12
0.20767665 1.1819032 1.7804341 234 88 12
0.18961629 1.1841137 1.7804341 234 88 12
0.097056963 1.1954429 1.7804341 234 88 12
0.089034721 1.2070332 1.882705 234 88 12
0.1958348 1.2246348 2.1703897 234 88 12
0.2851027 1.1497235 1.5329916 234 88 12
0.27572381 1.1508715 1.5329916 234 88 12
0.25168213 1.1356832 1.3523768 234 88 12
0.20566401 1.1841804 1.7793809 234 88 12
0.11310468 1.1955097 1.7793809 234 88 12
0.10251491 1.2070892 1.8818203 234 88 12
0.29482073 1.1513464 1.5315331 234 88 12
0.16650949 1.2414417 2.298023 234 88 12
0.2558535 1.1385579 1.3506212 234 88 12
0.25209036 1.1390185 1.3506212 234 88 12
0.21042401 1.1856287 1.7783277 234 88 12
0.1291524 1.1955763 1.7783277 234 88 12
0.12463731 1.196129 1.7783277 234 88 12
0.010328093 1.1861681 1.5315331 234 88 12
0.14520012 1.1956429 1.7772745 234 88 12
0.01379354 1.1885563 1.5300746 234 88 12
0.29237276 1.1572709 1.5286161 234 88 12
0.28612018 1.1580362 1.5286161 234 88 12
0.273615 1.1595669 1.5286161 234 88 12
0.25897127 1.1462739 1.3617845 234 88 12
0.22252271 1.1497993 1.3514357 234 88 12
0.199341 1.1540802 1.3673979 234 88 12
0.19186218 1.155231 1.3700014 234 88 12
0.17090856 1.1699337 1.5042374 234 88 12
0.16350539 1.1954333 1.7762213 234 88 12
0.15899029 1.1959859 1.7762213 234 88 12
0.15131758 1.1587648 1.3542012 234 88 12
0.14757934 1.1592225 1.3542012 234 88 12
0.10240879 1.1641611 1.3476747 234 88 12
0.017258989 1.1909446 1.5286161 234 88 12
0.28333303 1.1611898 1.5271575 234 88 12
0.27395415 1.1623377 1.5271575 234 88 12
0.25937393 1.1495636 1.3600529 234 88 12
0.25195065 1.1504722 1.3600529 234 88 12
0.23401587 1.1519462 1.3517755 234 88 12
0.17278048 1.1963289 1.7751681 234 88 12
0.15172313 1.1620781 1.3524572 234 88 12
0.11783322 1.1655829 1.3450732 234 88 12
0.10523416 1.2135801 1.8782815 234 88 12
0.1353938 1.2464058 2.2974236 234 88 12
0.27091151 1.1514903 1.3583213 234 88 12
0.19560084 1.1955665 1.7741148 234 88 12
0.19334328 1.1958429 1.7741148 234 88 12
0.21205905 1.1578741 1.3485432 234 88 12
0.20332634 1.161129 1.3746191 234 88 12
0.10078396 1.207172 1.7741148 234 88 12
0.078890964 1.2185105 1.8773968 234 88 12
0.20939101 1.1959095 1.7730616 234 88 12
0.21246542 1.1611941 1.3467957 234 88 12
0.11908922 1.2069625 1.7730616 234 88 12
0.11457414 1.207515 1.7730616 234 88 12
0.092371151 1.2185664 1.8765121 234 88 12
0.090474799 1.2187985 1.8765121 234 88 12
0.27542847 1.1576154 1.3548582 234 88 12
0.22378063 1.163566 1.3500564 234 88 12
0.13513695 1.2070291 1.7720084 234 88 12
0.10585134 1.2186224 1.8756274 234 88 12
0.27843708 1.1730386 1.5213236 234 88 12
0.27531078 1.1734213 1.5213236 234 88 12
0.15118466 1.2070957 1.7709552 234 88 12
0.14892712 1.2073721 1.7709552 234 88 12
0.034586228 1.2028857 1.5213236 234 88 12
0.20335311 1.2027413 1.769902 234 88 12
0.19432293 1.2038465 1.769902 234 88 12
0.18303519 1.2052281 1.769902 234 88 12
0.17174748 1.2066097 1.769902 234 88 12
0.16723239 1.2071624 1.769902 234 88 12
0.16045976 1.2079914 1.769902 234 88 12
0.14917204 1.209373 1.769902 234 88 12
0.13788432 1.2107545 1.769902 234 88 12
0.12433904 1.2124125 1.769902 234 88 12
0.11305133 1.2137941 1.769902 234 88 12
0.11574455 1.2208234 1.873858 234 88 12
0.26348391 1.1804937 1.5184065 234 88 12
0.18553765 1.2069527 1.7688488 234 88 12
0.18328011 1.207229 1.7688488 234 88 12
0.11784662 1.222272 1.8729733 234 88 12
0.11405392 1.2227364 1.8729733 234 88 12
0.10267581 1.224129 1.8729733 234 88 12
0.091297701 1.2255217 1.8729733 234 88 12
0.26694936 1.182882 1.516948 234 88 12
0.26382306 1.1832646 1.516948 234 88 12
0.25757048 1.1840299 1.516948 234 88 12
0.19707029 1.207572 1.7677956 234 88 12
0.048108868 1.2096678 1.516948 234 88 12
0.25165704 1.1875662 1.5154896 234 88 12
0.18652673 1.2172776 1.8712039 234 88 12
0.12507378 1.2184153 1.7667423 234 88 12
0.12773983 1.2244731 1.8712039 234 88 12
0.16064461 1.2467816 2.2956259 234 88 12
0.1810434 1.2196547 1.8703191 234 88 12
0.14112149 1.2184819 1.7656891 234 88 12
0.13660641 1.2190346 1.7656891 234 88 12
0.058166057 1.2140617 1.5140311 234 88 12
0.2398302 1.1946385 1.5125725 234 88 12
0.17176737 1.222496 1.8694345 234 88 12
0.15716921 1.2185485 1.7646359 234 88 12
0.1471148 1.2255135 1.8694345 234 88 12
0.11108412 1.2299236 1.8694345 234 88 12
0.10160236 1.2310842 1.8694345 234 88 12
0.14142425 1.2495193 2.2954261 234 88 12
0.24329564 1.1970267 1.511114 234 88 12
0.24016935 1.1974094 1.511114 234 88 12
0.16059498 1.2255695 1.8685497 234 88 12
0.1245643 1.2299796 1.8685497 234 88 12
0.22800334 1.2017109 1.5096555 234 88 12
0.13804449 1.2300357 1.8676651 234 88 12
0.13614814 1.2302678 1.8676651 234 88 12
0.15152468 1.2300916 1.8667803 234 88 12
0.21617647 1.2087834 1.5067384 234 88 12
0.20088416 1.2134675 1.5052799 234 88 12
0.19463158 1.2142328 1.5052799 234 88 12
0.17933927 1.218917 1.5038215 234 88 12
0.11368712 1.2269528 1.5038215 234 88 12
-1.2645968 1.2645034 1.7460672 234 88 12
-1.2652184 1.2638727 1.7460672 234 88 12
-1.263811 1.2662153 1.7454574 234 88 12
-1.275878 1.2594604 1.7417989 234 88 12
-1.2601745 1.2763067 1.7411892 234 88 12
-1.3012989 1.2987022 1.862832 234 88 12
-1.3000077 1.3004578 1.8625349 234 88 12
-1.299242 1.3021258 1.8619409 234 88 12
-1.3375059 1.3189833 1.9751599 234 88 12
-1.3025727 1.2987466 1.8619409 234 88 12
-1.3105083 1.2920324 1.8610497 234 88 12
-1.0646468 1.1886983 1.1121742 234 88 12
-1.0690689 1.184212 1.1121742 234 88 12
-1.0712799 1.1819688 1.1121742 234 88 12
-1.0817504 1.1745995 1.1100053 234 88 12
-1.0839614 1.1723564 1.1100053 234 88 12
-1.2840155 1.2612652 1.7350917 234 88 12
-1.0612669 1.198634 1.1078362 234 88 12
-1.0922208 1.1672301 1.1078362 234 88 12
-1.2874163 1.2596442 1.7338722 234 88 12
-1.0932629 1.1726797 1.1034983 234 88 12
-1.1043178 1.1614641 1.1034983 234 88 12
1.1459674 -1.2537997 1.4613057 234 88 12
1.147328 -1.2524585 1.4613057 234 88 12
1.1500493 -1.2497762 1.4613057 234 88 12
1.1595738 -1.2403882 1.4613057 234 88 12
1.1609344 -1.2390471 1.4613057 234 88 12
1.1727921 -1.2293044 1.45999 234 88 12
1.1397485 -1.2638197 1.4586744 234 88 12
1.1506337 -1.2530906 1.4586744 234 88 12
1.1519943 -1.2517494 1.4586744 234 88 12
1.1615188 -1.2423614 1.4586744 234 88 12
1.1628795 -1.2410202 1.4586744 234 88 12
1.1737646 -1.2302911 1.4586744 234 88 12
1.1751252 -1.2289499 1.4586744 234 88 12
1.1393603 -1.2661475 1.4573587 234 88 12
1.1842616 -1.2218896 1.4573587 234 88 12
1.1906766 -1.2175117 1.4560431 234 88 12
1.1372234 -1.2721442 1.4547275 234 88 12
1.195731 -1.2144749 1.4547275 234 88 12
1.1374195 -1.2777863 1.4507805 234 88 12
1.1387801 -1.2764452 1.4507805 234 88 12
1.1496652 -1.265716 1.4507805 234 88 12
1.161911 -1.2536457 1.4507805 234 88 12
1.1727962 -1.2429165 1.4507805 234 88 12
1.185042 -1.2308462 1.4507805 234 88 12
1.1959271 -1.220117 1.4507805 234 88 12
1.313375 -1.3363373 1.9599674 234 88 12
1.2077848 -1.2103745 1.4494649 234 88 12
1.1380038 -1.2811006 1.4481492 234 88 12
1.1434463 -1.2757361 1.4481492 234 88 12
1.1910689 -1.2287959 1.4481492 234 88 12
1.1965115 -1.2234313 1.4481492 234 88 12
1.201954 -1.2180668 1.4481492 234 88 12
1.2073966 -1.2127022 1.4481492 234 88 12
1.4050442 1.4064908 1.8438673 234 88 12
1.1253231 2.2077839 -0.84180558 234 88 12
