ply
format ascii 1.0
element vertex 208
property float x
property float y
property float z
property uchar red
property uchar green
property uchar blue
end_header
-1.0024616 0.078856669 2.005486 234 88 12
-1.0040605 0.078926191 2.0044532 234 88 12
-1.0059078 0.073286824 2.0034206 234 88 12
-1.0072585 0.079065241 2.002388 234 88 12
-1.0088576 0.079134762 2.0013552 234 88 12
-1.0089403 0.077231795 2.0013552 234 88 12
-1.01677 0.081385337 1.9961919 234 88 12
-1.0169355 0.077579409 1.9961919 234 88 12
-0.89921194 -1.2345825 1.6523155 234 88 12
-0.89651817 -1.2372763 1.6523155 234 88 12
-0.90557218 -1.2355553 1.646733 234 88 12
-0.89975441 -1.2432063 1.6453375 234 88 12
-0.90875226 -1.2360417 1.6439418 234 88 12
-0.90746152 -1.2428322 1.639755 234 88 12
-0.91780621 -1.2343206 1.6383593 234 88 12
-0.92906755 -1.2267258 1.6355681 234 88 12
-0.92637378 -1.2294196 1.6355681 234 88 12
-0.92098635 -1.234807 1.6355681 234 88 12
-0.9169457 -1.2388476 1.6355681 234 88 12
-0.9129051 -1.2428883 1.6355681 234 88 12
-0.92777681 -1.2335163 1.6313813 234 88 12
-0.91834873 -1.2429444 1.6313813 234 88 12
-0.93413705 -1.2344891 1.6257988 234 88 12
-0.92605579 -1.2425703 1.6257988 234 88 12
-0.92697239 -1.2434869 1.6244032 234 88 12
-0.93731713 -1.2349755 1.6230077 234 88 12
-0.93694299 -1.2426825 1.6174252 234 88 12
-0.94459397 -1.2368648 1.6160295 234 88 12
-0.93785959 -1.2435992 1.6160295 234 88 12
-0.93651277 -1.244946 1.6160295 234 88 12
-0.94685745 -1.2364346 1.6146339 234 88 12
-0.9478302 -1.2427948 1.6090515 234 88 12
-0.95682806 -1.2356302 1.6076559 234 88 12
-0.95774466 -1.2365468 1.6062603 234 88 12
-0.95639777 -1.2378936 1.6062603 234 88 12
-0.95101029 -1.2432811 1.6062603 234 88 12
-0.84598517 1.1748629 1.7199544 234 88 12
-0.84893614 1.1777716 1.7160194 234 88 12
-0.85090345 1.1797106 1.713396 234 88 12
-0.85483801 1.1835889 1.7081492 234 88 12
-0.85849589 1.1818453 1.7068375 234 88 12
-0.85680532 1.1855279 1.7055259 234 88 12
-0.85814244 1.1841714 1.7055259 234 88 12
-0.85947955 1.1828148 1.7055259 234 88 12
-1.838655 0.29574659 1.2366555 234 88 12
-1.8393443 0.29775897 1.2350028 234 88 12
-1.8412218 0.29800701 1.2316973 234 88 12
-1.8417207 0.29423031 1.2316973 234 88 12
-1.8440971 0.29070163 1.2283918 234 88 12
-1.844038 0.29837906 1.226739 234 88 12
-1.8468541 0.29875112 1.2217809 234 88 12
-1.8473531 0.29497442 1.2217809 234 88 12
-1.8486724 0.3066766 1.2168226 234 88 12
-1.8512392 0.30893701 1.2118645 234 88 12
-1.8517381 0.30516031 1.2118645 234 88 12
-1.8529855 0.29571852 1.2118645 234 88 12
-1.8539834 0.28816512 1.2118645 234 88 12
-1.8539242 0.29584256 1.2102118 234 88 12
-1.8578694 0.30212772 1.201948 234 88 12
-1.8588673 0.29457429 1.201948 234 88 12
-1.8638104 0.29330602 1.1936845 234 88 12
-1.8637513 0.30098346 1.1920317 234 88 12
-1.8640008 0.29909512 1.1920317 234 88 12
-1.8644997 0.29531839 1.1920317 234 88 12
-1.7824016 -1.0568727 0.83787036 234 88 12
-1.7849818 -1.0560638 0.83248806 234 88 12
-1.7817395 -1.0651096 0.82889992 234 88 12
-1.7866864 -1.0569463 0.82710582 234 88 12
-1.7840592 -1.0620208 0.82710582 234 88 12
-1.7895743 -1.0541515 0.82351762 234 88 12
-1.7965333 -1.044885 0.81813538 234 88 12
-1.7956576 -1.0465766 0.81813538 234 88 12
-1.7939061 -1.0499595 0.81813538 234 88 12
-1.7904031 -1.0567256 0.81813538 234 88 12
-1.7860243 -1.065183 0.81813538 234 88 12
-1.7973151 -1.0517246 0.80737084 234 88 12
-1.7946879 -1.0567991 0.80737084 234 88 12
-1.7961318 -1.0554018 0.80557674 234 88 12
-1.8010318 -1.0515039 0.7984004 234 88 12
-1.7984046 -1.0565784 0.7984004 234 88 12
-1.805056 -1.0492976 0.791224 234 88 12
-1.8061924 -1.049886 0.78763586 234 88 12
-1.8044409 -1.0532689 0.78763586 234 88 12
-1.8026894 -1.0566519 0.78763586 234 88 12
-1.556613 1.4226588 0.75665599 234 88 12
-1.5589033 1.4196147 0.75665599 234 88 12
-1.5582232 1.4214866 0.75484234 234 88 12
-1.5584733 1.4240584 0.74940133 234 88 12
-1.5619088 1.4194922 0.74940133 234 88 12
-1.568815 1.4151536 0.74033302 234 88 12
-1.5624089 1.4246359 0.73851937 234 88 12
-1.5669897 1.4185476 0.73851937 234 88 12
-1.5681349 1.4170256 0.73851937 234 88 12
-1.5592234 1.4317739 0.73307836 234 88 12
-1.5601536 1.4324738 0.729451 234 88 12
-1.562444 1.4294297 0.729451 234 88 12
-1.5681698 1.4218193 0.729451 234 88 12
-1.5704602 1.4187752 0.729451 234 88 12
-1.5698152 1.4254409 0.71856904 234 88 12
-1.5743959 1.4193527 0.71856904 234 88 12
-1.5787616 1.4154862 0.71494168 234 88 12
-1.5744308 1.4241463 0.70950067 234 88 12
-1.5778664 1.4195801 0.70950067 234 88 12
-1.5787966 1.42028 0.70587337 234 88 12
-2.2242405 -0.12337729 0.10341673 234 88 12
-2.2240009 -0.12908703 0.10151343 234 88 12
-2.2245684 -0.12148769 0.097706825 234 88 12
-2.2241497 -0.12909523 0.097706825 234 88 12
-2.2250452 -0.11960629 0.088190302 234 88 12
-2.2245216 -0.1291157 0.088190302 234 88 12
-2.2252243 -0.1177085 0.086286999 234 88 12
-2.2259405 -0.11011735 0.07867378 234 88 12
-2.2254171 -0.11962676 0.07867378 234 88 12
-2.2248938 -0.12913617 0.07867378 234 88 12
-2.2259684 -0.11774945 0.067253962 234 88 12
-2.2258635 -0.11965133 0.067253962 234 88 12
-2.226445 -0.11586804 0.05773744 234 88 12
-2.2262356 -0.11967181 0.05773744 234 88 12
-1.4248316 -1.7197962 -0.16931601 234 88 12
-1.4270456 -1.7166226 -0.17881562 234 88 12
-1.4282006 -1.7150838 -0.18261546 234 88 12
-1.4307023 -1.7121983 -0.18641531 234 88 12
-1.4306065 -1.7121023 -0.18831523 234 88 12
-1.4292595 -1.7134491 -0.18831523 234 88 12
-1.4265658 -1.7161429 -0.18831523 234 88 12
-1.4372449 -1.705272 -0.19021516 234 88 12
-1.436861 -1.7048882 -0.19781484 234 88 12
-1.4355142 -1.7062351 -0.19781484 234 88 12
-1.4287798 -1.7129694 -0.19781484 234 88 12
-1.4247392 -1.71701 -0.19781484 234 88 12
-1.4336876 -1.7071022 -0.20731445 234 88 12
-1.429647 -1.7111428 -0.20731445 234 88 12
-1.4348425 -1.7055634 -0.2111143 234 88 12
-1.4371524 -1.7024858 -0.21871398 234 88 12
-1.4331118 -1.7065264 -0.21871398 234 88 12
-1.9518127 1.0205818 -0.37399837 234 88 12
-1.9525938 1.0188445 -0.37399837 234 88 12
-1.9507661 1.0221996 -0.37588072 234 88 12
-1.9531093 1.0169878 -0.37588072 234 88 12
-1.9538903 1.0152506 -0.37588072 234 88 12
-1.9502186 1.019865 -0.38529247 234 88 12
-1.9525619 1.0146533 -0.38529247 234 88 12
-1.9522961 1.0145339 -0.38717484 234 88 12
-1.9462973 1.0264558 -0.39093953 234 88 12
-1.9442037 1.0296913 -0.39470425 234 88 12
-1.9465469 1.0244795 -0.39470425 234 88 12
-1.9512333 1.014056 -0.39470425 234 88 12
-1.9527954 1.0105815 -0.39470425 234 88 12
-1.9465148 1.0202883 -0.40599835 234 88 12
-1.948858 1.0150765 -0.40599835 234 88 12
-1.9451864 1.019691 -0.41541013 234 88 12
-1.9475296 1.0144793 -0.41541013 234 88 12
-1.8756697 -0.8007673 -0.91100812 234 88 12
-1.8756845 -0.79873687 -0.91277832 234 88 12
-1.8729935 -0.80586487 -0.91277832 234 88 12
-1.8737106 -0.79799169 -0.91808879 234 88 12
-1.8730378 -0.79977363 -0.91808879 234 88 12
-1.8730526 -0.79774326 -0.91985899 234 88 12
-1.8744574 -0.78605765 -0.92693967 234 88 12
-1.8744721 -0.78402728 -0.92870981 234 88 12
-1.8731266 -0.78759128 -0.92870981 234 88 12
-1.8724538 -0.78937328 -0.92870981 234 88 12
-1.8684173 -0.80006522 -0.92870981 234 88 12
-1.8684913 -0.78991324 -0.93756062 234 88 12
-1.8651274 -0.79882318 -0.93756062 234 88 12
-1.8631536 -0.798078 -0.94287115 234 88 12
-1.8652014 -0.7886712 -0.94641149 234 88 12
-1.8652163 -0.78664076 -0.94818163 234 88 12
-1.8638707 -0.79020476 -0.94818163 234 88 12
-1.8631979 -0.79198676 -0.94818163 234 88 12
-1.8632275 -0.78792596 -0.95172197 234 88 12
-1.7038877 0.34376442 -1.4075619 234 88 12
-1.7021928 0.34734589 -1.4091244 234 88 12
-1.7011178 0.34716859 -1.4106867 234 88 12
-1.7017378 0.34340984 -1.4106867 234 88 12
-1.6954329 0.34816146 -1.4184988 234 88 12
-1.6960528 0.34440273 -1.4184988 234 88 12
-1.6931181 0.35550165 -1.4200611 234 88 12
-1.693428 0.35362229 -1.4200611 234 88 12
-1.6949779 0.34422544 -1.4200611 234 88 12
-1.6962177 0.33670795 -1.4200611 234 88 12
-1.6965277 0.33482856 -1.4200611 234 88 12
-1.6954527 0.33465126 -1.4216236 234 88 12
-1.6865231 0.34862247 -1.430998 234 88 12
-1.687143 0.34486371 -1.430998 234 88 12
-1.6854481 0.34844515 -1.4325603 234 88 12
-1.6860681 0.34468642 -1.4325603 234 88 12
-1.6797632 0.34943804 -1.4403723 234 88 12
-1.6806931 0.34379992 -1.4403723 234 88 12
-0.90185559 -1.2372262 -1.6476588 234 88 12
-0.89689595 -1.2403479 -1.6490513 234 88 12
-0.90179223 -1.2317754 -1.6518362 234 88 12
-0.89726037 -1.2326311 -1.654621 234 88 12
-0.89811605 -1.2280992 -1.6574059 234 88 12
-0.89676917 -1.2294461 -1.6574059 234 88 12
-0.89272857 -1.2334867 -1.6574059 234 88 12
-0.89939958 -1.2213016 -1.6615831 234 88 12
-0.89713365 -1.2217293 -1.6629755 234 88 12
-0.88678652 -1.2302384 -1.6643679 234 88 12
-0.90111089 -1.2122378 -1.6671528 234 88 12
-0.899764 -1.2135848 -1.6671528 234 88 12
-0.89707029 -1.2162784 -1.6671528 234 88 12
-0.89033592 -1.2230128 -1.6671528 234 88 12
-0.88629532 -1.2270534 -1.6671528 234 88 12
-0.88715094 -1.2225217 -1.6699377 234 88 12
-0.88794327 -1.212539 -1.6768998 234 88 12
-0.88659638 -1.2138858 -1.6768998 234 88 12
-0.88702422 -1.2116199 -1.6782923 234 88 12
