ply
format ascii 1.0
element vertex 1826
property float x
property float y
property float z
property uchar red
property uchar green
property uchar blue
end_header
-0.94008768 -1.5477066 -0.23978168 234 88 12
-0.93654394 -1.5495476 -0.24025926 234 88 12
-0.93288946 -1.5539528 -0.24313138 234 88 12
-0.94305694 -1.5461158 -0.24423379 234 88 12
-0.93625224 -1.5441493 -0.23995571 234 88 12
-0.92894351 -1.5528423 -0.24555252 234 88 12
-0.9357608 -1.5428208 -0.24344425 234 88 12
-0.92872483 -1.5446784 -0.24269576 234 88 12
-0.968723 -1.5495573 -0.26620442 234 88 12
-0.96546286 -1.5486649 -0.26422721 234 88 12
-0.94150281 -1.5538918 -0.26067102 234 88 12
-0.93846673 -1.5467277 -0.25293243 234 88 12
-0.93545705 -1.5375025 -0.24328379 234 88 12
-0.92109585 -1.5480616 -0.24806768 234 88 12
-0.91744083 -1.5542408 -0.25253686 234 88 12
-0.97162217 -1.5476986 -0.27026349 234 88 12
-0.96962291 -1.5324972 -0.25550047 234 88 12
-0.96624523 -1.5322304 -0.25407371 234 88 12
-0.9627223 -1.5336318 -0.25413978 234 88 12
-0.95624995 -1.5742385 -0.28944927 234 88 12
-0.94462025 -1.6918211 -0.39417717 234 88 12
-0.95195484 -1.5408515 -0.2570585 234 88 12
-0.93841863 -1.5367184 -0.24850622 234 88 12
-0.92778552 -1.5408328 -0.24859878 234 88 12
-0.92418116 -1.543995 -0.25026551 234 88 12
-0.92052603 -1.5493865 -0.25397712 234 88 12
-0.91318691 -1.5664092 -0.26716337 234 88 12
-0.97507685 -1.5399261 -0.26907077 234 88 12
-0.97323245 -1.5233898 -0.25322953 234 88 12
-0.96635729 -1.5236443 -0.2510775 234 88 12
-0.95982713 -1.5629269 -0.28492212 234 88 12
-0.95536125 -1.5786537 -0.2978293 234 88 12
-0.95550114 -1.5306938 -0.25379011 234 88 12
-0.94418287 -1.5469702 -0.26482442 234 88 12
-0.93781388 -1.537632 -0.25402975 234 88 12
-0.93064338 -1.5427802 -0.25627369 234 88 12
-0.90914023 -1.5731233 -0.27670431 234 88 12
-0.97297394 -1.555881 -0.28769222 234 88 12
-0.96236306 -1.5230601 -0.25405744 234 88 12
-0.95872867 -1.5255421 -0.25507113 234 88 12
-0.95137191 -1.5322707 -0.25867984 234 88 12
-0.94444257 -1.5327209 -0.25670171 234 88 12
-0.94012463 -1.5486785 -0.26978725 234 88 12
-0.9297117 -1.5522461 -0.26945513 234 88 12
-0.92327952 -1.538808 -0.25496387 234 88 12
-0.91972435 -1.5404758 -0.25526136 234 88 12
-0.90895873 -1.5529426 -0.26293546 234 88 12
-0.97464132 -1.5316873 -0.2709775 234 88 12
-0.96862584 -1.5613258 -0.29581082 234 88 12
-0.96872985 -1.5218656 -0.26004019 234 88 12
-0.94961691 -1.5503987 -0.27938354 234 88 12
-0.9439494 -1.5314147 -0.26021585 234 88 12
-0.94024694 -1.5358784 -0.26299784 234 88 12
-0.93631697 -1.5455589 -0.27043572 234 88 12
-0.92968363 -1.5396209 -0.26277503 234 88 12
-0.92615807 -1.5409518 -0.26277503 234 88 12
-0.91906857 -1.5450028 -0.26402214 234 88 12
-0.91214514 -1.5416518 -0.25860968 234 88 12
-0.90779692 -1.5963671 -0.30676895 234 88 12
-0.97499251 -1.5213554 -0.2665723 234 88 12
-0.96125847 -1.5219396 -0.26242465 234 88 12
-0.94844133 -1.6083829 -0.33599165 234 88 12
-0.9328056 -1.5349795 -0.26449621 234 88 12
-0.91865557 -1.5408356 -0.26495966 234 88 12
-0.91137719 -1.555016 -0.27526623 234 88 12
-0.97446102 -1.5204924 -0.27045202 234 88 12
-0.97097713 -1.5213846 -0.27007303 234 88 12
-0.96392298 -1.5241195 -0.27013722 234 88 12
-0.95303595 -1.5327721 -0.27420551 234 88 12
-0.94279689 -1.5317999 -0.2698727 234 88 12
-0.93591148 -1.530975 -0.26680565 234 88 12
-0.92889875 -1.5319347 -0.26529402 234 88 12
-0.91987216 -1.5977031 -0.32114613 234 88 12
-0.91807598 -1.542832 -0.2713944 234 88 12
-0.91112924 -1.5405623 -0.26701266 234 88 12
-0.90751916 -1.5470605 -0.27161196 234 88 12
-0.90392578 -1.5563978 -0.27875969 234 88 12
-0.97227633 -1.5377756 -0.28991732 234 88 12
-0.96371061 -1.5192951 -0.27059644 234 88 12
-0.95619816 -1.5280963 -0.27590394 234 88 12
-0.95268524 -1.5294226 -0.27590394 234 88 12
-0.94944048 -1.5264889 -0.27220368 234 88 12
-0.93538088 -1.5304656 -0.27101904 234 88 12
-0.92830688 -1.5331687 -0.27104789 234 88 12
-0.91756064 -1.5424992 -0.27574006 234 88 12
-0.90347379 -1.5513698 -0.27890086 234 88 12
-0.96340072 -1.5573452 -0.30896148 234 88 12
-0.95259655 -1.5220808 -0.27418423 234 88 12
-0.94372714 -1.5555562 -0.30081466 234 88 12
-0.92782032 -1.5316929 -0.27441245 234 88 12
-0.92072749 -1.5350089 -0.27497655 234 88 12
-0.90648466 -1.5487572 -0.2823762 234 88 12
-0.90303463 -1.5442717 -0.27725992 234 88 12
-0.96923661 -1.5205926 -0.28321913 234 88 12
-0.96243316 -1.5204244 -0.28081593 234 88 12
-0.95212001 -1.5205209 -0.2774817 234 88 12
-0.94499856 -1.5239444 -0.27812701 234 88 12
-0.93797988 -1.5255351 -0.277197 234 88 12
-0.92732072 -1.5305634 -0.27807871 234 88 12
-0.9237327 -1.5334744 -0.2794455 234 88 12
-0.92020309 -1.5348071 -0.2794455 234 88 12
-0.90964609 -1.5368444 -0.27773467 234 88 12
-0.90257215 -1.5392761 -0.27752486 234 88 12
-0.94452715 -1.522261 -0.281317 234 88 12
-0.94060767 -1.530829 -0.28750029 234 88 12
-0.93693024 -1.5356426 -0.29048833 234 88 12
-0.91964436 -1.5358799 -0.28500241 234 88 12
-0.91590399 -1.54643 -0.29297391 234 88 12
-0.90899783 -1.5454965 -0.28988504 234 88 12
-0.90198463 -1.5511496 -0.29250681 234 88 12
-0.96161437 -1.5156838 -0.28601491 234 88 12
-0.9582262 -1.5150326 -0.28434223 234 88 12
-0.95386678 -1.5283599 -0.29446498 234 88 12
-0.95104468 -1.5192862 -0.28567863 234 88 12
-0.94402999 -1.5210267 -0.28489202 234 88 12
-0.93696553 -1.5234892 -0.28471482 234 88 12
-0.93345439 -1.5242103 -0.28419095 234 88 12
-0.92577595 -1.5435864 -0.29846957 234 88 12
-0.91930234 -1.5291692 -0.28385818 234 88 12
-0.9121477 -1.535503 -0.28700617 234 88 12
-0.9076128 -1.6042181 -0.34506893 234 88 12
-0.90154052 -1.543534 -0.2904954 234 88 12
-0.95422637 -1.5145658 -0.28744236 234 88 12
-0.93945354 -1.5316621 -0.29735819 234 88 12
-0.92942744 -1.5240546 -0.28755113 234 88 12
-0.91860217 -1.5355495 -0.29392806 234 88 12
-0.91159195 -1.5376621 -0.29346842 234 88 12
-0.90777773 -1.560024 -0.31147835 234 88 12
-0.90110511 -1.5331975 -0.28621706 234 88 12
-0.96059245 -1.5135725 -0.29344425 234 88 12
-0.95457137 -1.5499984 -0.32264799 234 88 12
-0.95259631 -1.5302217 -0.30509952 234 88 12
-0.94295931 -1.5199542 -0.29320884 234 88 12
-0.92827165 -1.5399063 -0.30552801 234 88 12
-0.92472792 -1.5433539 -0.3073321 234 88 12
-0.91445875 -1.5421022 -0.3029466 234 88 12
-0.91122091 -1.5297449 -0.29133472 234 88 12
-0.90059096 -1.5355331 -0.29285252 234 88 12
-0.97738433 -1.5094831 -0.30012658 234 88 12
-0.97061306 -1.5091591 -0.29767996 234 88 12
-0.96468294 -1.5397208 -0.32173684 234 88 12
-0.9548375 -1.5382519 -0.31733206 234 88 12
-0.95296514 -1.5160782 -0.29789788 234 88 12
-0.94617158 -1.5143383 -0.29424146 234 88 12
-0.93535691 -1.5223671 -0.297593 234 88 12
-0.92830384 -1.5250299 -0.297593 234 88 12
-0.92357057 -1.562018 -0.32749218 234 88 12
-0.91722947 -1.5483519 -0.31385112 234 88 12
-0.91398221 -1.5403993 -0.30605498 234 88 12
-0.91067064 -1.5317196 -0.29762065 234 88 12
-0.905882 -1.6291518 -0.37884215 234 88 12
-0.90011102 -1.5316089 -0.29414052 234 88 12
-0.89656121 -1.5440252 -0.3035484 234 88 12
-0.89308816 -1.5518579 -0.3090876 234 88 12
-0.9803564 -1.5073941 -0.30405205 234 88 12
-0.96690506 -1.5053918 -0.29807824 234 88 12
-0.96287704 -1.5129977 -0.30321229 234 88 12
-0.9526583 -1.5119659 -0.29908672 234 88 12
-0.9451735 -1.521782 -0.30498454 234 88 12
-0.92772579 -1.5260457 -0.30302417 234 88 12
-0.92072392 -1.5276037 -0.30210844 234 88 12
-0.91324157 -1.5513424 -0.3197532 234 88 12
-0.89259797 -1.5490375 -0.31123319 234 88 12
-0.88904274 -1.541002 -0.30332136 234 88 12
-0.88602287 -1.581273 -0.33633566 234 88 12
-0.97696847 -1.5361143 -0.33177838 234 88 12
-0.97349453 -1.50141 -0.30159631 234 88 12
-0.96995294 -1.5027471 -0.30159631 234 88 12
-0.96593243 -1.5100071 -0.30640838 234 88 12
-0.95217752 -1.5104711 -0.30244538 234 88 12
-0.94506836 -1.513748 -0.30294231 234 88 12
-0.93784189 -1.5196255 -0.30558145 234 88 12
-0.93048459 -1.5299913 -0.31194046 234 88 12
-0.92746001 -1.5186272 -0.30146012 234 88 12
-0.92001808 -1.53385 -0.31186262 234 88 12
-0.91563094 -1.5719919 -0.34243852 234 88 12
-0.91332793 -1.522148 -0.29993954 234 88 12
-0.9093743 -1.5485865 -0.32084471 234 88 12
-0.90617424 -1.5293437 -0.30370641 234 88 12
-0.90264529 -1.5304185 -0.30349064 234 88 12
-0.89879036 -1.6220753 -0.3790814 234 88 12
-0.88852316 -1.5364435 -0.30407164 234 88 12
-0.88512713 -1.5477896 -0.31250548 234 88 12
-0.97212923 -1.5100029 -0.31308138 234 88 12
-0.95885718 -1.5051367 -0.30486014 234 88 12
-0.93752122 -1.514796 -0.30619553 234 88 12
-0.92647517 -1.6165198 -0.3873964 234 88 12
-0.91982818 -1.5219153 -0.30656141 234 88 12
-0.90927982 -1.5223922 -0.30364344 234 88 12
-0.88137698 -1.5601242 -0.32628211 234 88 12
-0.97497869 -1.5091842 -0.31799337 234 88 12
-0.970936 -1.5167834 -0.32301405 234 88 12
-0.95813054 -1.5070808 -0.31099558 234 88 12
-0.95460093 -1.5084133 -0.31099558 234 88 12
-0.93585104 -1.5382323 -0.32979602 234 88 12
-0.92615205 -1.5250591 -0.31587777 234 88 12
-0.8981294 -1.5287375 -0.31017241 234 88 12
-0.89459962 -1.5323077 -0.31202233 234 88 12
-0.89107376 -1.5333908 -0.31181717 234 88 12
-0.88770759 -1.5503376 -0.32477719 234 88 12
-0.88425934 -1.5524473 -0.32544512 234 88 12
-0.88088691 -1.5582551 -0.32919404 234 88 12
-0.96732241 -1.5127186 -0.32320341 234 88 12
-0.96493071 -1.500156 -0.3121464 234 88 12
-0.96138912 -1.5014931 -0.3121464 234 88 12
-0.95433682 -1.503705 -0.31177643 234 88 12
-0.94362187 -1.5092555 -0.31301242 234 88 12
-0.93654412 -1.5119975 -0.31306982 234 88 12
-0.93267322 -1.5211185 -0.31935939 234 88 12
-0.92944872 -1.5152242 -0.31351981 234 88 12
-0.92604351 -1.5128376 -0.31050447 234 88 12
-0.91891319 -1.5166609 -0.31143337 234 88 12
-0.91182673 -1.5191212 -0.31125674 234 88 12
-0.88729799 -1.5558116 -0.33378053 234 88 12
-0.88345581 -1.5297071 -0.31115407 234 88 12
-0.88040775 -1.5569859 -0.33260867 234 88 12
-0.87671876 -1.5475649 -0.32372919 234 88 12
-0.96034682 -1.5075809 -0.32152694 234 88 12
-0.95313036 -1.5131472 -0.32384458 234 88 12
-0.9394663 -1.5117756 -0.31851891 234 88 12
-0.93593925 -1.5131072 -0.31851891 234 88 12
-0.93182462 -1.5283443 -0.32967854 234 88 12
-0.92882597 -1.5173218 -0.31976593 234 88 12
-0.92477846 -1.5340757 -0.33218333 234 88 12
-0.92074347 -1.5545905 -0.34767169 234 88 12
-0.91778624 -1.5396873 -0.33460695 234 88 12
-0.91434157 -1.5409878 -0.33460695 234 88 12
-0.91085845 -1.5444461 -0.33635491 234 88 12
-0.90768665 -1.5264343 -0.32068887 234 88 12
-0.87676507 -1.5684205 -0.34540993 234 88 12
-0.94444281 -1.5894195 -0.38763905 234 88 12
-0.94336122 -1.5540671 -0.35867381 234 88 12
-0.94194555 -1.5195023 -0.33024418 234 88 12
-0.93095696 -1.5362862 -0.3404786 234 88 12
-0.92763293 -1.5347062 -0.33818233 234 88 12
-0.90328467 -1.5707412 -0.3599242 234 88 12
-0.90017617 -1.5254133 -0.32225913 234 88 12
-0.89312458 -1.5280755 -0.32225913 234 88 12
-0.88603514 -1.5275559 -0.31967038 234 88 12
-0.89615786 -1.5413536 -0.33856049 234 88 12
-0.89264715 -1.5302024 -0.3285239 234 88 12
-0.88906956 -1.5781054 -0.37038612 234 88 12
-0.8850593 -1.5257722 -0.32736775 234 88 12
-0.87852705 -1.5535872 -0.34761885 234 88 12
0.72174513 -1.6465009 0.20590357 234 88 12
0.72212601 -1.638453 0.21087874 234 88 12
0.72460103 -1.6347934 0.21248743 234 88 12
0.73211926 -1.6330136 0.21147655 234 88 12
0.74290907 -1.6293427 0.21073116 234 88 12
0.7495957 -1.6257477 0.21110307 234 88 12
0.76081455 -1.6231931 0.20953064 234 88 12
0.76844394 -1.6219472 0.20815103 234 88 12
0.77787423 -1.6253722 0.2033097 234 88 12
0.77775979 -1.6147707 0.21003847 234 88 12
0.78674191 -1.6171949 0.2059565 234 88 12
0.78695798 -1.6070853 0.21228065 234 88 12
0.7925266 -1.6112465 0.20807098 234 88 12
0.79713684 -1.6129271 0.20570026 234 88 12
0.80298203 -1.6181222 0.20075896 234 88 12
0.82090062 -1.6574724 0.17081568 234 88 12
0.81466675 -1.6290337 0.19054875 234 88 12
0.81723535 -1.6253095 0.19217165 234 88 12
0.82553601 -1.638314 0.18160032 234 88 12
0.73938262 -1.6399869 0.2009123 234 88 12
0.74568909 -1.6262659 0.20774277 234 88 12
0.76024836 -1.6218681 0.20639499 234 88 12
0.76854283 -1.6222537 0.20381311 234 88 12
0.7743488 -1.6164814 0.20579709 234 88 12
0.77779096 -1.6149338 0.20579709 234 88 12
0.78311205 -1.6077127 0.20882702 234 88 12
0.79365975 -1.603516 0.20848481 234 88 12
0.80379546 -1.6205105 0.19496182 234 88 12
0.8014344 -1.6028289 0.20672268 234 88 12
0.80664271 -1.6062999 0.20307533 234 88 12
0.81728554 -1.6143124 0.19504529 234 88 12
0.81973267 -1.6100141 0.19705202 234 88 12
0.71831471 -1.6391875 0.20322293 234 88 12
0.72073603 -1.6354382 0.20488133 234 88 12
0.72419387 -1.6338836 0.20488133 234 88 12
0.73406923 -1.6281056 0.20571533 234 88 12
0.73753172 -1.626549 0.20571533 234 88 12
0.74585414 -1.6361098 0.19742353 234 88 12
0.74674666 -1.6287341 0.2017709 234 88 12
0.74852705 -1.6233017 0.20465803 234 88 12
0.75209284 -1.6220062 0.20446631 234 88 12
0.75875324 -1.6182914 0.20491529 234 88 12
0.7856676 -1.6352926 0.18677546 234 88 12
0.77956378 -1.609126 0.20479633 234 88 12
0.78672463 -1.6066748 0.20431739 234 88 12
0.79775447 -1.6148635 0.19612218 234 88 12
0.79927146 -1.6080765 0.19992757 234 88 12
0.810269 -1.6278235 0.1845368 234 88 12
0.82376271 -1.6334403 0.17725421 234 88 12
0.82291406 -1.6196293 0.18610074 234 88 12
0.83751631 -1.6519663 0.16185212 234 88 12
0.72122234 -1.6453185 0.194488 234 88 12
0.7416482 -1.6540821 0.18337578 234 88 12
0.73788935 -1.6366529 0.19521384 234 88 12
0.74131411 -1.6351131 0.19521384 234 88 12
0.77624547 -1.6607336 0.16962615 234 88 12
0.76937431 -1.6343583 0.18786989 234 88 12
0.77880424 -1.6478434 0.17689517 234 88 12
0.7740013 -1.625939 0.19179481 234 88 12
0.77740693 -1.6244079 0.19179481 234 88 12
0.77903956 -1.6183132 0.19511406 234 88 12
0.7915343 -1.6196322 0.19081898 234 88 12
0.79903561 -1.6075518 0.19621076 234 88 12
0.80375838 -1.6096451 0.19359988 234 88 12
0.80848563 -1.6118475 0.19092029 234 88 12
0.80954403 -1.6035533 0.19576122 234 88 12
0.8268398 -1.6314493 0.17367388 234 88 12
0.82603693 -1.6176087 0.18246716 234 88 12
0.72680861 -1.6483961 0.18695734 234 88 12
0.72517335 -1.6359743 0.19504936 234 88 12
0.73063725 -1.6297239 0.19738272 234 88 12
0.73500705 -1.6302091 0.19587599 234 88 12
0.74548268 -1.625852 0.19565907 234 88 12
0.74909568 -1.6246877 0.19537614 234 88 12
0.76469976 -1.6424534 0.18013477 234 88 12
0.75918341 -1.6194288 0.19582111 234 88 12
0.7693119 -1.6142278 0.19621915 234 88 12
0.78374171 -1.6096693 0.19503272 234 88 12
0.80253059 -1.6173843 0.1850923 234 88 12
0.80672532 -1.5955698 0.19734901 234 88 12
0.81018293 -1.5940154 0.19734901 234 88 12
0.82316476 -1.6207155 0.17733783 234 88 12
0.82539642 -1.6158628 0.17970523 234 88 12
0.73800015 -1.6369065 0.18683758 234 88 12
0.75859201 -1.6180428 0.19270575 234 88 12
0.77554417 -1.6094824 0.19327922 234 88 12
0.80242461 -1.6385915 0.1681136 234 88 12
0.81074339 -1.6185726 0.17805831 234 88 12
0.81411308 -1.6170577 0.17805831 234 88 12
0.80961478 -1.5925196 0.19428405 234 88 12
0.82208335 -1.6060818 0.18257432 234 88 12
0.74009013 -1.6595057 0.16846859 234 88 12
0.73417878 -1.6283625 0.18897794 234 88 12
0.73763138 -1.6268102 0.18897794 234 88 12
0.74177605 -1.6268409 0.18782863 234 88 12
0.75187045 -1.6216158 0.18824537 234 88 12
0.75443333 -1.6179445 0.18977386 234 88 12
0.76222104 -1.6169773 0.18823616 234 88 12
0.77773315 -1.6355128 0.17275767 234 88 12
0.77700824 -1.6236176 0.18017308 234 88 12
0.78381324 -1.6205581 0.18017308 234 88 12
0.78682184 -1.6073589 0.18736123 234 88 12
0.80568868 -1.6475302 0.15783969 234 88 12
0.79316604 -1.6027759 0.18841133 234 88 12
0.8068493 -1.6187493 0.17498645 234 88 12
0.80343902 -1.5979093 0.1885618 234 88 12
0.82023752 -1.6007155 0.18227641 234 88 12
0.73369539 -1.6364795 0.18009371 234 88 12
0.76302224 -1.6189957 0.18268424 234 88 12
0.76701784 -1.6188335 0.18169938 234 88 12
0.77083278 -1.6182512 0.18101665 234 88 12
0.79316133 -1.6647489 0.14694533 234 88 12
0.77459133 -1.6071966 0.18666036 234 88 12
0.77865267 -1.6072049 0.18555488 234 88 12
0.78844362 -1.6009977 0.1866428 234 88 12
0.80004567 -1.5997597 0.18424536 234 88 12
0.80951321 -1.5925562 0.18602133 234 88 12
0.81371564 -1.5932115 0.18448776 234 88 12
0.8221435 -1.6066275 0.17411928 234 88 12
0.75444257 -1.6180475 0.18145704 234 88 12
0.76933026 -1.6345149 0.1675947 234 88 12
0.77401203 -1.6161512 0.17732601 234 88 12
0.78660071 -1.6069796 0.17942788 234 88 12
0.79723078 -1.6031933 0.17883365 234 88 12
0.800668 -1.6016479 0.17883365 234 88 12
0.80313081 -1.5973274 0.18075685 234 88 12
0.8171711 -1.6036298 0.17320655 234 88 12
0.82505155 -1.6155478 0.16395277 234 88 12
0.74229616 -1.6280754 0.17462443 234 88 12
0.74389231 -1.6222787 0.17764346 234 88 12
0.75056511 -1.6186275 0.17803049 234 88 12
0.76239145 -1.6274368 0.16963367 234 88 12
0.7630294 -1.6191208 0.17440626 234 88 12
0.76710314 -1.6090221 0.17932032 234 88 12
0.77792406 -1.6054881 0.1785292 234 88 12
0.80031168 -1.600785 0.17534181 234 88 12
0.80991787 -1.594072 0.17676491 234 88 12
0.74585533 -1.6362309 0.16477154 234 88 12
0.76443279 -1.6698163 0.14001583 234 88 12
0.74992681 -1.6171505 0.17495413 234 88 12
0.77619708 -1.6609297 0.14213936 234 88 12
0.76184797 -1.6162783 0.17230521 234 88 12
0.76540715 -1.6150196 0.17210367 234 88 12
0.7688486 -1.6134722 0.17210367 234 88 12
0.82287383 -1.7134252 0.098763481 234 88 12
0.73612702 -1.6327345 0.16533621 234 88 12
0.74254084 -1.6286647 0.16603154 234 88 12
0.74455982 -1.623865 0.16831304 234 88 12
0.75045007 -1.6184229 0.16995077 234 88 12
0.77986073 -1.6790305 0.12667175 234 88 12
0.75740623 -1.6154526 0.16985863 234 88 12
0.78233415 -1.6274415 0.15626101 234 88 12
0.73223704 -1.6332394 0.16198441 234 88 12
0.74230516 -1.6281406 0.16231754 234 88 12
0.76337862 -1.6299672 0.15573917 234 88 12
0.76928139 -1.614694 0.16308485 234 88 12
0.778346 -1.6274606 0.1532812 234 88 12
0.73825604 -1.6554346 0.14351551 234 88 12
0.73287374 -1.6254642 0.16223715 234 88 12
0.74549717 -1.6260751 0.15860356 234 88 12
0.75006938 -1.6175896 0.16232009 234 88 12
0.76203674 -1.6169019 0.15960766 234 88 12
0.77390265 -1.6263605 0.15105699 234 88 12
0.73178375 -1.6322309 0.15453351 234 88 12
0.7458933 -1.617469 0.15936494 234 88 12
0.76542127 -1.6252501 0.14986049 234 88 12
0.73973209 -1.6408092 0.1435385 234 88 12
0.73929805 -1.6213075 0.15476233 234 88 12
0.75391895 -1.617076 0.15342775 234 88 12
0.76456755 -1.6329851 0.14163427 234 88 12
-1.39508 -0.71721369 -0.95447367 234 88 12
-1.3927594 -0.73232788 -0.97084033 234 88 12
-1.3743112 -0.74744231 -0.9665755 234 88 12
-1.3711387 -0.74086177 -0.9540987 234 88 12
-1.3684794 -0.74352121 -0.9540987 234 88 12
-1.3931224 -0.70982009 -0.94995946 234 88 12
-1.390905 -0.72807777 -0.97031325 234 88 12
-1.3885525 -0.73864728 -0.98074001 234 88 12
-1.3720325 -0.73723209 -0.95798171 234 88 12
-1.3694713 -0.74141121 -0.96003461 234 88 12
-1.3664701 -0.7387799 -0.95288748 234 88 12
-1.3614942 -0.74900168 -0.959544 234 88 12
-1.3906788 -0.77478147 -1.0360219 234 88 12
-1.3860096 -0.71541792 -0.95542556 234 88 12
-1.383389 -0.7193622 -0.95709169 234 88 12
-1.3673186 -0.73428631 -0.95564884 234 88 12
-1.3592547 -0.74164456 -0.95476073 234 88 12
-1.3894364 -0.70521402 -0.95427841 234 88 12
-1.3892012 -0.77840549 -1.0453664 234 88 12
-1.384133 -0.71220928 -0.95639074 234 88 12
-1.3822519 -0.73353785 -0.98067153 234 88 12
-1.379066 -0.72370934 -0.96442258 234 88 12
-1.3766835 -0.73169839 -0.97142261 234 88 12
-1.374051 -0.73433101 -0.97142261 234 88 12
-1.3728112 -0.76058596 -1.0026548 234 88 12
-1.3653779 -0.7307086 -0.95607138 234 88 12
-1.3599079 -0.73455775 -0.95404774 234 88 12
-1.3573326 -0.73859894 -0.95587802 234 88 12
-1.3568252 -0.7670117 -0.9907186 234 88 12
-1.3875952 -0.70307297 -0.9566555 234 88 12
-1.3772556 -0.72189885 -0.96716559 234 88 12
-1.3744498 -0.72168988 -0.96343195 234 88 12
-1.3690186 -0.72534829 -0.96123624 234 88 12
-1.3550677 -0.7652542 -0.99338132 234 88 12
-1.3536141 -0.78013086 -1.0100055 234 88 12
-1.3861668 -0.71251345 -0.97377467 234 88 12
-1.3677486 -0.73216617 -0.97529119 234 88 12
-1.3593383 -0.73356104 -0.96667242 234 88 12
-1.351445 -0.74261647 -0.96810013 234 88 12
-1.3484797 -0.74200279 -0.96370333 234 88 12
-1.3842285 -0.70716476 -0.97201878 234 88 12
-1.3759657 -0.70920157 -0.96443123 234 88 12
-1.3681569 -0.7208373 -0.96909499 234 88 12
-1.3600378 -0.72712374 -0.96686161 234 88 12
-1.3571764 -0.72737664 -0.96368265 234 88 12
-1.3466567 -0.74017978 -0.96646541 234 88 12
-1.3448164 -0.75112277 -0.97755897 234 88 12
-1.3822112 -0.70030659 -0.96841437 234 88 12
-1.3687501 -0.71218765 -0.96650422 234 88 12
-1.3609965 -0.7241419 -0.97158253 234 88 12
-1.3504397 -0.73593241 -0.97307396 234 88 12
-1.3440371 -0.75923747 -0.99350816 234 88 12
-1.3789265 -0.72692269 -1.0035369 234 88 12
-1.3750499 -0.70405895 -0.97146738 234 88 12
-1.3590925 -0.72118765 -0.97287202 234 88 12
-1.3564234 -0.72385669 -0.97287202 234 88 12
-1.3509616 -0.72778994 -0.9710387 234 88 12
-1.3427645 -0.73409754 -0.96877271 234 88 12
-1.3413818 -0.74909848 -0.98510498 234 88 12
-1.3786031 -0.69756353 -0.97507107 234 88 12
-1.3758991 -0.6995616 -0.97423106 234 88 12
-1.3652147 -0.71038759 -0.97439957 234 88 12
-1.3597139 -0.71362829 -0.97171062 234 88 12
-1.3543595 -0.71907908 -0.9718253 234 88 12
-1.3495013 -0.72999299 -0.97902995 234 88 12
-1.33927 -0.74437618 -0.98396975 234 88 12
-1.376742 -0.69493467 -0.97683448 234 88 12
-1.3686855 -0.7023682 -0.97609925 234 88 12
-1.3580347 -0.71376842 -0.97698373 234 88 12
-1.3499942 -0.72155571 -0.97668487 234 88 12
-1.347687 -0.72817874 -0.98177874 234 88 12
-1.3419601 -0.72946525 -0.97653776 234 88 12
-1.3605928 -0.7322135 -1.0086118 234 88 12
-1.3509895 -0.71873516 -0.9815855 234 88 12
-1.3454996 -0.75196844 -1.0140703 234 88 12
-1.3348565 -0.73361802 -0.98012173 234 88 12
-1.3731649 -0.69264245 -0.9840222 234 88 12
-1.3676953 -0.69580531 -0.98134267 234 88 12
-1.3651364 -0.70030415 -0.98359615 234 88 12
-1.3596789 -0.7040292 -0.98158354 234 88 12
-1.3569049 -0.70543283 -0.97999179 234 88 12
-1.3548877 -0.71630889 -0.99028242 234 88 12
-1.3529058 -0.72680247 -1.0001696 234 88 12
-1.3410932 -0.72420508 -0.9834308 234 88 12
-1.3364819 -0.73614138 -0.9919396 234 88 12
-1.3685701 -0.69171572 -0.98461521 234 88 12
-1.3552831 -0.70622247 -0.98602086 234 88 12
-1.3501894 -0.71440303 -0.98957831 234 88 12
-1.3421078 -0.72137374 -0.988298 234 88 12
-1.3694199 -0.68721491 -0.98738098 234 88 12
-1.3649952 -0.70669222 -1.0045909 234 88 12
-1.3555187 -0.72960585 -1.0199536 234 88 12
-1.3511969 -0.71182096 -0.99467874 234 88 12
-1.3488431 -0.71780258 -0.9988265 234 88 12
-1.3429127 -0.71647018 -0.9905228 234 88 12
-1.367528 -0.68428308 -0.98881656 234 88 12
-1.3624246 -0.69340271 -0.99337214 234 88 12
-1.3598435 -0.69724149 -0.99479878 234 88 12
-1.3569865 -0.697321 -0.99164832 234 88 12
-1.3525892 -0.71390009 -1.005466 234 88 12
-1.3409411 -0.71313506 -0.99138588 234 88 12
-1.3330333 -0.7220909 -0.99257463 234 88 12
-1.3657459 -0.68319595 -0.99247271 234 88 12
-1.3583425 -0.69966513 -1.0026748 234 88 12
-1.3507037 -0.7110405 -1.0068798 234 88 12
-1.3470322 -0.70218545 -0.99278295 234 88 12
-1.3422943 -0.71374983 -1.0004653 234 88 12
-1.3342973 -0.72134024 -1.0000076 234 88 12
-1.3644066 -0.68889272 -1.0041834 234 88 12
-1.3585533 -0.68654573 -0.99502772 234 88 12
-1.3562723 -0.6943984 -1.0012486 234 88 12
-1.3540553 -0.70252824 -1.0078502 234 88 12
-1.3508773 -0.6987831 -1.0001205 234 88 12
-1.3427972 -0.70578516 -0.99891692 234 88 12
-1.3316885 -0.71251416 -0.99402696 234 88 12
-1.3622499 -0.68187988 -1.0007693 234 88 12
-1.3600055 -0.69051659 -1.0078503 234 88 12
-1.3515064 -0.6916967 -0.99974281 234 88 12
-1.3496143 -0.70332819 -1.0105315 234 88 12
-1.3458769 -0.69388771 -0.99593395 234 88 12
-1.360846 -0.68606472 -1.010586 234 88 12
-1.3574471 -0.67844564 -0.99847668 234 88 12
-1.3548231 -0.68190187 -0.99939126 234 88 12
-1.3494123 -0.68669075 -0.99870777 234 88 12
-1.3413806 -0.6949206 -0.99892557 234 88 12
-1.3336084 -0.70546991 -1.0019778 234 88 12
-1.3309355 -0.70814282 -1.0019778 234 88 12
-1.3295265 -0.72149283 -1.0151014 234 88 12
-1.3596026 -0.69209778 -1.0224823 234 88 12
-1.3558741 -0.68002743 -1.0052546 234 88 12
-1.345747 -0.69680852 -1.0125104 234 88 12
-1.3300279 -0.71418995 -1.0143231 234 88 12
-1.3592705 -0.70995766 -1.048017 234 88 12
-1.3541663 -0.67968035 -1.0097373 234 88 12
-1.3512051 -0.67874104 -1.0055172 234 88 12
-1.3416032 -0.70083898 -1.0190369 234 88 12
-1.3299389 -0.70163244 -1.0072757 234 88 12
-1.3287227 -0.71658432 -1.0221364 234 88 12
-1.3498784 -0.71568239 -1.0504431 234 88 12
-1.3441893 -0.68412268 -1.0104578 234 88 12
-1.341517 -0.68679506 -1.0104578 234 88 12
-1.338975 -0.69076741 -1.0119931 234 88 12
-1.333444 -0.69429547 -1.0098431 234 88 12
-1.3389645 -0.76976424 -1.0967823 234 88 12
-1.3262582 -0.70923722 -1.0181688 234 88 12
-1.3229729 -0.70679772 -1.0120236 234 88 12
-1.3213942 -0.71787232 -1.022217 234 88 12
-1.3453141 -0.71353233 -1.0496269 234 88 12
-1.340093 -0.6890313 -1.0179701 234 88 12
-1.3319957 -0.69587225 -1.0166317 234 88 12
-1.3237755 -0.70194775 -1.0143476 234 88 12
-1.3230078 -0.7195307 -1.0322574 234 88 12
-1.3389807 -0.69417983 -1.0288153 234 88 12
-1.3353447 -0.68722385 -1.0176216 234 88 12
-1.3372873 -0.73225063 -1.0672588 234 88 12
-1.3265108 -0.71302295 -1.0355505 234 88 12
-1.3243562 -0.71926755 -1.0398728 234 88 12
-1.3161972 -0.70233095 -1.0133517 234 88 12
-1.3335612 -0.68574488 -1.0207748 234 88 12
-1.3253565 -0.69200742 -1.0187383 234 88 12
-1.3196706 -0.69468099 -1.0155796 234 88 12
-1.3173484 -0.72238195 -1.0421913 234 88 12
-1.3132021 -0.71396309 -1.0290158 234 88 12
-1.3301022 -0.69564736 -1.0340202 234 88 12
-1.3269868 -0.69416797 -1.0292397 234 88 12
-1.3151579 -0.69553304 -1.0183526 234 88 12
-1.3124288 -0.69787824 -1.0179534 234 88 12
-1.3233405 -0.79581428 -1.1312022 234 88 12
-1.3296942 -0.73009557 -1.0755925 234 88 12
-1.3216726 -0.68806279 -1.0239184 234 88 12
-1.3122833 -0.70803207 -1.0348407 234 88 12
-1.3228325 -0.70992726 -1.0540049 234 88 12
-1.3172153 -0.68922246 -1.0270417 234 88 12
-1.314543 -0.69189477 -1.0270417 234 88 12
-1.3131214 -0.70359296 -1.0375686 234 88 12
0.15650924 -1.5379115 -0.83532763 234 88 12
0.16222288 -1.5439005 -0.8424589 234 88 12
0.15245087 -1.536402 -0.83841068 234 88 12
0.15511888 -1.5324244 -0.83479768 234 88 12
0.15864469 -1.5311463 -0.83408618 234 88 12
0.16404949 -1.5361568 -0.84011406 234 88 12
0.17031133 -1.5309592 -0.83586043 234 88 12
0.15375607 -1.5270166 -0.8344056 234 88 12
0.16172323 -1.5273868 -0.83611321 234 88 12
0.17335372 -1.5270448 -0.83771127 234 88 12
0.18217173 -1.5449892 -0.85737896 234 88 12
0.15236731 -1.534122 -0.84665412 234 88 12
0.1538983 -1.5264821 -0.83921927 234 88 12
0.17022826 -1.5288718 -0.84433496 234 88 12
0.17231084 -1.5224404 -0.83820796 234 88 12
0.18604839 -1.544524 -0.86271387 234 88 12
0.15341702 -1.5364678 -0.85441536 234 88 12
0.1572568 -1.5236453 -0.84223771 234 88 12
0.16457587 -1.5218818 -0.8416819 234 88 12
0.18450034 -1.5379511 -0.86101896 234 88 12
0.19162931 -1.5506576 -0.87488812 234 88 12
0.15448023 -1.5625621 -0.8856616 234 88 12
0.14660534 -1.526215 -0.84832758 234 88 12
0.15747815 -1.5234104 -0.84732485 234 88 12
0.16460221 -1.521049 -0.84614813 234 88 12
0.17547294 -1.5180064 -0.84490889 234 88 12
0.18561192 -1.5269314 -0.85541821 234 88 12
0.12840115 -1.5293235 -0.85367787 234 88 12
0.14757375 -1.5740271 -0.90079767 234 88 12
0.13583976 -1.5281596 -0.85373992 234 88 12
0.14033134 -1.5299213 -0.85620344 234 88 12
0.14253318 -1.5247002 -0.85142112 234 88 12
0.14735934 -1.5275582 -0.85501814 234 88 12
0.15335776 -1.5217551 -0.85027945 234 88 12
0.15970759 -1.529848 -0.85927713 234 88 12
0.18321189 -1.5169802 -0.85042596 234 88 12
0.19548973 -1.5497628 -0.8846913 234 88 12
0.12640449 -1.5224484 -0.85185134 234 88 12
0.12974851 -1.5206844 -0.85066652 234 88 12
0.14133112 -1.5199413 -0.85180712 234 88 12
0.14539754 -1.5203669 -0.85287833 234 88 12
0.15357558 -1.5214814 -0.85528547 234 88 12
0.15936042 -1.5277431 -0.86233646 234 88 12
0.16433764 -1.518298 -0.85390913 234 88 12
0.17252412 -1.5197219 -0.85661989 234 88 12
0.17480586 -1.51387 -0.85126936 234 88 12
0.18262289 -1.5139402 -0.85259777 234 88 12
0.18795285 -1.5195754 -0.85896331 234 88 12
0.12915467 -1.5403751 -0.87491333 234 88 12
0.12626381 -1.5209241 -0.85558408 234 88 12
0.12922585 -1.5180454 -0.85326582 234 88 12
0.15561906 -1.5143378 -0.85389179 234 88 12
0.16733122 -1.5142151 -0.85564643 234 88 12
0.17475401 -1.5128366 -0.85549688 234 88 12
0.18426885 -1.5194589 -0.8634423 234 88 12
0.1948819 -1.531175 -0.87650442 234 88 12
0.12733275 -1.5340842 -0.87363786 234 88 12
0.12818506 -1.5253729 -0.86538589 234 88 12
0.14000656 -1.5137466 -0.85606939 234 88 12
0.14803395 -1.5142331 -0.85781252 234 88 12
0.17153442 -1.5144336 -0.86173731 234 88 12
0.17516044 -1.5134914 -0.86140585 234 88 12
0.19072384 -1.513818 -0.86419183 234 88 12
0.1354658 -1.5453887 -0.89081043 234 88 12
0.1296282 -1.5170324 -0.86279088 234 88 12
0.14276366 -1.5331426 -0.88025749 234 88 12
0.14633927 -1.520279 -0.86852765 234 88 12
0.14851965 -1.514793 -0.86362845 234 88 12
0.15912478 -1.5110431 -0.86171633 234 88 12
0.16843927 -1.5163554 -0.86826134 234 88 12
0.18193038 -1.5089329 -0.8632943 234 88 12
0.19626591 -1.5353208 -0.89077216 234 88 12
0.19220889 -1.5034297 -0.85965502 234 88 12
0.1261771 -1.5173368 -0.8677147 234 88 12
0.12894309 -1.5139155 -0.86490202 234 88 12
0.13279392 -1.5136578 -0.86525995 234 88 12
0.14015386 -1.5121173 -0.86495018 234 88 12
0.14680913 -1.5207556 -0.87418568 234 88 12
0.16577512 -1.5060412 -0.86319494 234 88 12
0.18256795 -1.5106034 -0.87014991 234 88 12
0.18451403 -1.5030913 -0.8633284 234 88 12
0.19212709 -1.5024021 -0.86386573 234 88 12
0.1987716 -1.5139923 -0.87589973 234 88 12
0.13078745 -1.5182792 -0.87446398 234 88 12
0.14175476 -1.5160648 -0.87408209 234 88 12
0.1637444 -1.5249348 -0.88584852 234 88 12
0.16204682 -1.5057895 -0.86755842 234 88 12
0.17119808 -1.5106448 -0.87355107 234 88 12
0.17490001 -1.5100342 -0.87355107 234 88 12
0.18211688 -1.5226666 -0.88656592 234 88 12
0.18033737 -1.501247 -0.86612183 234 88 12
0.20806916 -1.5369709 -0.9040646 234 88 12
0.20427282 -1.5040815 -0.87250769 234 88 12
0.21346842 -1.5282389 -0.89668137 234 88 12
0.1367013 -1.5114771 -0.87412196 234 88 12
0.13966236 -1.5085114 -0.87180674 234 88 12
0.14695039 -1.5067391 -0.87127376 234 88 12
0.1504336 -1.5053087 -0.87047392 234 88 12
0.15790395 -1.5040767 -0.87047392 234 88 12
0.16538534 -1.5028837 -0.87051219 234 88 12
0.17665984 -1.5012982 -0.87076825 234 88 12
0.181108 -1.5034347 -0.87345058 234 88 12
0.19177392 -1.4995741 -0.8714866 234 88 12
0.20249745 -1.495676 -0.86949658 234 88 12
0.20931481 -1.5089564 -0.88295883 234 88 12
0.21821006 -1.5325555 -0.90638483 234 88 12
0.13340129 -1.5122764 -0.87947232 234 88 12
0.13898444 -1.5053601 -0.87391084 234 88 12
0.17484562 -1.5221671 -0.89498776 234 88 12
0.17558776 -1.5109276 -0.88467532 234 88 12
0.18360148 -1.4972483 -0.87321228 234 88 12
0.19137581 -1.4972503 -0.87440354 234 88 12
0.21466291 -1.5156426 -0.8950274 234 88 12
0.22233865 -1.5343255 -0.91353214 234 88 12
0.16180295 -1.5022196 -0.87960774 234 88 12
0.16584854 -1.5027677 -0.8807267 234 88 12
0.17323482 -1.5013947 -0.8805843 234 88 12
0.18163453 -1.5184966 -0.8976056 234 88 12
0.17918016 -1.494447 -0.8750903 234 88 12
0.18383421 -1.4974186 -0.87853295 234 88 12
0.19492802 -1.4952321 -0.87820441 234 88 12
0.19904558 -1.4963022 -0.87981498 234 88 12
0.20909965 -1.4893612 -0.87495106 234 88 12
0.21531841 -1.5005085 -0.88615882 234 88 12
0.14029485 -1.5074009 -0.88618976 234 88 12
0.14627258 -1.5140516 -0.89316839 234 88 12
0.14568968 -1.4996724 -0.87994033 234 88 12
0.14928424 -1.4985945 -0.87949711 234 88 12
0.16059618 -1.4971007 -0.87983692 234 88 12
0.17218751 -1.4966861 -0.88120508 234 88 12
0.2050771 -1.488178 -0.87838715 234 88 12
0.20894256 -1.4881295 -0.8789255 234 88 12
0.21497092 -1.4984016 -0.88922113 234 88 12
0.14597706 -1.5121164 -0.89636469 234 88 12
0.14494811 -1.4962713 -0.88183922 234 88 12
0.14868909 -1.4956542 -0.88183922 234 88 12
0.15767106 -1.499571 -0.8867352 234 88 12
0.16427669 -1.4954113 -0.88395065 234 88 12
0.12812293 -1.5038836 -0.8912825 234 88 12
0.13102503 -1.5008315 -0.8889659 234 88 12
0.1391114 -1.5016432 -0.89089721 234 88 12
0.14567578 -1.497648 -0.88827527 234 88 12
0.1571591 -1.4968909 -0.88929874 234 88 12
0.1639206 -1.4932629 -0.88703668 234 88 12
0.17062892 -1.489243 -0.88441396 234 88 12
0.17886686 -1.4909128 -0.88714015 234 88 12
0.18402222 -1.4959403 -0.89243138 234 88 12
0.19039084 -1.4904616 -0.88844502 234 88 12
0.20117144 -1.4869188 -0.88685632 234 88 12
0.20970403 -1.4906676 -0.89149791 234 88 12
0.21812533 -1.5125275 -0.91242683 234 88 12
0.13022697 -1.5204967 -0.91146225 234 88 12
0.13338274 -1.4949666 -0.88911706 234 88 12
0.1488158 -1.494137 -0.89065003 234 88 12
0.16534746 -1.4974915 -0.89608318 234 88 12
0.19059752 -1.5494365 -0.94621497 234 88 12
0.20832631 -1.5493207 -0.94872403 234 88 12
0.2172543 -1.5726639 -0.97089589 234 88 12
0.21065396 -1.5118642 -0.91560102 234 88 12
0.21866962 -1.5318586 -0.93464643 234 88 12
0.12743497 -1.4996778 -0.89747596 234 88 12
0.13127367 -1.4994713 -0.89785433 234 88 12
0.15659072 -1.4930969 -0.89590454 234 88 12
0.17113622 -1.5036817 -0.90741783 234 88 12
0.17573223 -1.5066025 -0.91068006 234 88 12
0.13378492 -1.5060776 -0.9090271 234 88 12
0.13290292 -1.4913914 -0.89597404 234 88 12
0.14002766 -1.4890746 -0.89496922 234 88 12
0.14751852 -1.4878972 -0.89502025 234 88 12
0.15169871 -1.488783 -0.89640665 234 88 12
0.16998816 -1.5124018 -0.91984779 234 88 12
0.13813451 -1.5066011 -0.91502959 234 88 12
0.13799296 -1.4940466 -0.90404356 234 88 12
0.15103263 -1.5234519 -0.93160588 234 88 12
0.14938393 -1.5058613 -0.91600394 234 88 12
0.15885241 -1.5121125 -0.92282802 234 88 12
1.57511 -0.88536066 -0.11322374 234 88 12
1.5938348 -0.90475386 -0.13696307 234 88 12
1.581316 -0.88162768 -0.11564457 234 88 12
1.587201 -0.88364863 -0.12092143 234 88 12
1.5828669 -0.87146664 -0.11130214 234 88 12
1.606824 -0.89904624 -0.14315863 234 88 12
1.5793699 -0.90943992 -0.13367899 234 88 12
1.5931334 -0.92179233 -0.15000343 234 88 12
1.5748829 -0.89163929 -0.12102007 234 88 12
1.577867 -0.87746263 -0.11558114 234 88 12
1.5952436 -0.89536417 -0.13741948 234 88 12
1.5806236 -0.86892742 -0.11298628 234 88 12
1.5996487 -0.8895092 -0.13741948 234 88 12
1.6018513 -0.88658178 -0.13741948 234 88 12
1.5954795 -0.87134498 -0.12479183 234 88 12
1.5659999 -0.89837432 -0.12291509 234 88 12
1.5657315 -0.89205509 -0.11938178 234 88 12
1.5674895 -0.88835782 -0.11866159 234 88 12
1.5771301 -0.88312793 -0.1226752 234 88 12
1.5885414 -0.86826015 -0.12283345 234 88 12
1.5882173 -0.86155003 -0.11905402 234 88 12
1.5955684 -0.86588073 -0.12651728 234 88 12
1.5701107 -0.90421557 -0.13344322 234 88 12
1.5665663 -0.88766319 -0.12226185 234 88 12
1.5679148 -0.88340813 -0.12096685 234 88 12
1.5721874 -0.87697089 -0.12056793 234 88 12
1.5769424 -0.87118709 -0.12084984 234 88 12
1.5846392 -0.87571955 -0.12861256 234 88 12
1.583762 -0.86208534 -0.12082996 234 88 12
1.5860399 -0.85905784 -0.12082996 234 88 12
1.5958663 -0.8606922 -0.12855719 234 88 12
1.6176724 -0.88647884 -0.15735777 234 88 12
1.6409709 -0.85411048 -0.15662029 234 88 12
1.6345675 -0.83718902 -0.14324665 234 88 12
1.6367738 -0.83425671 -0.14324665 234 88 12
1.5644876 -0.89741284 -0.13051641 234 88 12
1.5636784 -0.88437271 -0.12314166 234 88 12
1.5772605 -0.87833941 -0.12942082 234 88 12
1.5795224 -0.87533319 -0.12942082 234 88 12
1.5970929 -0.88161838 -0.14490533 234 88 12
1.5989498 -0.85326076 -0.13137925 234 88 12
1.5958612 -0.84226197 -0.12348824 234 88 12
1.6017323 -0.84465367 -0.12881456 234 88 12
1.6022749 -0.83902156 -0.1262489 234 88 12
1.6184758 -0.83817959 -0.13705873 234 88 12
1.6236436 -0.83987737 -0.14153421 234 88 12
1.6185209 -0.82510716 -0.13026026 234 88 12
1.6280895 -0.83396828 -0.14153421 234 88 12
1.6274467 -0.82632023 -0.13709208 234 88 12
1.5748736 -0.90555698 -0.14647633 234 88 12
1.6059289 -0.92950499 -0.18033139 234 88 12
1.583382 -0.86898732 -0.13336428 234 88 12
1.5857545 -0.85990417 -0.13028629 234 88 12
1.5930456 -0.85155451 -0.13098228 234 88 12
1.6030767 -0.84095311 -0.13239981 234 88 12
1.610574 -0.84598488 -0.14018384 234 88 12
1.6129502 -0.84322256 -0.14038934 234 88 12
1.6220047 -0.84449947 -0.14729875 234 88 12
1.6152593 -0.82728434 -0.13370943 234 88 12
1.621334 -0.83041114 -0.13952324 234 88 12
1.6312528 -0.8333497 -0.1478914 234 88 12
1.6426713 -0.84560192 -0.16212852 234 88 12
1.6363248 -0.82853818 -0.14889301 234 88 12
1.6623532 -0.86563236 -0.18610369 234 88 12
1.5716777 -0.89597642 -0.14382578 234 88 12
1.5666064 -0.88327205 -0.13379855 234 88 12
1.5689358 -0.88033229 -0.1338791 234 88 12
1.5712063 -0.87731439 -0.1338791 234 88 12
1.5738729 -0.86869305 -0.13126087 234 88 12
1.5830383 -0.86910295 -0.13775411 234 88 12
1.5900465 -0.86666214 -0.14129874 234 88 12
1.5916733 -0.85019922 -0.13392411 234 88 12
1.5941775 -0.84112036 -0.13095865 234 88 12
1.6012778 -0.83242822 -0.13134284 234 88 12
1.6244118 -0.83612752 -0.14910629 234 88 12
1.6148746 -0.81413168 -0.13122676 234 88 12
1.6321249 -0.83556759 -0.15410399 234 88 12
1.6615041 -0.86499357 -0.18941458 234 88 12
1.5707687 -0.89529252 -0.14737077 234 88 12
1.5740314 -0.89367974 -0.14876612 234 88 12
1.5743533 -0.88814539 -0.14615007 234 88 12
1.5746162 -0.88248521 -0.14342929 234 88 12
1.577521 -0.88038576 -0.14433157 234 88 12
1.5751677 -0.87105632 -0.13794966 234 88 12
1.6044391 -0.90558332 -0.17556927 234 88 12
1.5832279 -0.8575421 -0.13651453 234 88 12
1.5873606 -0.8571983 -0.13915241 234 88 12
1.5910542 -0.84994984 -0.13795394 234 88 12
1.5909714 -0.84345412 -0.13456972 234 88 12
1.6003524 -0.83173186 -0.13495193 234 88 12
1.6094283 -0.82617223 -0.13828351 234 88 12
1.6245791 -0.84363002 -0.15754355 234 88 12
1.6334344 -0.83196306 -0.1575962 234 88 12
1.626482 -0.81381279 -0.1435637 234 88 12
1.5610054 -0.88894588 -0.14204438 234 88 12
1.5719568 -0.86721075 -0.13839035 234 88 12
1.5830771 -0.85794961 -0.14119917 234 88 12
1.6021528 -0.86686808 -0.15864176 234 88 12
1.5902667 -0.84308457 -0.13849698 234 88 12
1.5944254 -0.84285891 -0.14119528 234 88 12
1.6007221 -0.83301944 -0.14044675 234 88 12
1.6028678 -0.82980281 -0.14026123 234 88 12
1.6105367 -0.82208633 -0.14152145 234 88 12
1.6226077 -0.83477008 -0.15614204 234 88 12
1.6127255 -0.81225735 -0.13799959 234 88 12
1.6147876 -0.80886972 -0.1376704 234 88 12
1.6255679 -0.81312507 -0.14712834 234 88 12
1.6299779 -0.81375045 -0.15042971 234 88 12
1.6538316 -1.0202491 -0.27536789 234 88 12
1.5858207 -0.92747837 -0.18276164 234 88 12
1.5720085 -0.90380919 -0.16151318 234 88 12
1.5649596 -0.8886717 -0.1491231 234 88 12
1.5650898 -0.88285047 -0.14626741 234 88 12
1.5744509 -0.88934565 -0.15584169 234 88 12
1.5814177 -0.8686161 -0.15004261 234 88 12
1.5867712 -0.87000239 -0.154341 234 88 12
1.5855081 -0.86203527 -0.1494641 234 88 12
1.5873368 -0.85842556 -0.14886791 234 88 12
1.610697 -0.84262162 -0.15657519 234 88 12
1.6249931 -0.83935142 -0.16452852 234 88 12
1.61408 -0.8085292 -0.14161159 234 88 12
1.63967 -0.83080542 -0.17007034 234 88 12
1.5785756 -0.92988008 -0.18343964 234 88 12
1.5656502 -0.90770346 -0.16367336 234 88 12
1.5559392 -0.88933724 -0.14796646 234 88 12
1.55718 -0.88497424 -0.14660344 234 88 12
1.5614311 -0.88454658 -0.14922641 234 88 12
1.5662783 -0.8728652 -0.14659519 234 88 12
1.5739115 -0.8649056 -0.14769296 234 88 12
1.6086354 -0.90728992 -0.19215988 234 88 12
1.587003 -0.84598809 -0.14693066 234 88 12
1.589278 -0.84296435 -0.14693066 234 88 12
1.6090844 -0.85983026 -0.16862303 234 88 12
1.6112876 -0.85690194 -0.16862303 234 88 12
1.5986378 -0.83126628 -0.14730339 234 88 12
1.6072366 -0.83152658 -0.15317409 234 88 12
1.6067921 -0.82429266 -0.1492441 234 88 12
1.6098908 -0.81597036 -0.14713281 234 88 12
1.6194364 -0.80462098 -0.14780459 234 88 12
1.6504672 -0.84966755 -0.19114335 234 88 12
1.5617081 -0.914684 -0.16899335 234 88 12
1.5879958 -0.94228208 -0.20019393 234 88 12
1.5671908 -0.87464839 -0.15265462 234 88 12
1.576919 -0.87575126 -0.15965572 234 88 12
1.5746272 -0.86030447 -0.15042937 234 88 12
1.5769025 -0.85728025 -0.15042937 234 88 12
1.601526 -0.88605505 -0.18111347 234 88 12
1.5880578 -0.85447735 -0.15642804 234 88 12
1.5903132 -0.85147965 -0.15642804 234 88 12
1.5941535 -0.83809632 -0.15229747 234 88 12
1.6169581 -0.81482452 -0.15580869 234 88 12
1.6192156 -0.81182408 -0.15580869 234 88 12
1.5635331 -0.91743046 -0.17598972 234 88 12
1.5476533 -0.89158183 -0.15271959 234 88 12
1.6007508 -0.93167484 -0.20756386 234 88 12
1.5637784 -0.87667131 -0.1559515 234 88 12
1.5748529 -0.86121529 -0.15558629 234 88 12
1.5815333 -0.85197663 -0.15540801 234 88 12
1.5943763 -0.85180414 -0.16378206 234 88 12
1.5915339 -0.83485746 -0.15351123 234 88 12
1.5985502 -0.8260625 -0.15377405 234 88 12
1.6051176 -0.82316899 -0.15666589 234 88 12
1.6128047 -0.82217449 -0.16123642 234 88 12
1.6204566 -0.82130361 -0.16584501 234 88 12
1.5459622 -0.8958171 -0.15825731 234 88 12
1.5480819 -0.89260095 -0.15806094 234 88 12
1.5518333 -0.88552934 -0.15703422 234 88 12
1.5641152 -0.88961506 -0.16708134 234 88 12
1.5631858 -0.8824327 -0.16293757 234 88 12
1.5664973 -0.86872667 -0.15835713 234 88 12
1.5719961 -0.85782135 -0.15658647 234 88 12
1.5758804 -0.85705268 -0.15874951 234 88 12
1.6070647 -0.88919055 -0.19497336 234 88 12
1.5873164 -0.842071 -0.15885675 234 88 12
1.590273 -0.83365834 -0.15664987 234 88 12
1.5982108 -0.83917999 -0.16456152 234 88 12
1.5962144 -0.82971066 -0.15859385 234 88 12
1.602161 -0.83234155 -0.16377972 234 88 12
1.599902 -0.82234162 -0.15737903 234 88 12
1.6090819 -0.8235988 -0.1640041 234 88 12
1.5660224 -0.87471634 -0.16551647 234 88 12
1.5894253 -0.87671071 -0.18170089 234 88 12
1.578407 -0.85501039 -0.16392951 234 88 12
1.5865527 -0.84793669 -0.16576453 234 88 12
1.610375 -0.84567916 -0.18014234 234 88 12
1.5704345 -0.91616964 -0.19300601 234 88 12
1.5529617 -0.88797194 -0.16803256 234 88 12
1.5533341 -0.88250458 -0.16561761 234 88 12
1.5571541 -0.87550408 -0.16468343 234 88 12
1.5644197 -0.87913257 -0.17113568 234 88 12
1.5637318 -0.86609 -0.16435727 234 88 12
1.570085 -0.86252189 -0.16672535 234 88 12
1.5723318 -0.85947526 -0.166696 234 88 12
1.5870066 -0.86781681 -0.18021986 234 88 12
1.5798095 -0.84510481 -0.1645436 234 88 12
1.5820858 -0.84207928 -0.1645436 234 88 12
1.5831697 -0.83730203 -0.16292301 234 88 12
1.5859718 -0.83504003 -0.16363324 234 88 12
1.5885237 -0.83241749 -0.16400678 234 88 12
1.6424069 -0.90140641 -0.23229434 234 88 12
1.5749071 -0.9166953 -0.20046785 234 88 12
1.5596495 -0.89120412 -0.17838924 234 88 12
1.5746449 -0.85090345 -0.16856302 234 88 12
1.6019729 -0.84691751 -0.18416117 234 88 12
1.5742412 -0.89326829 -0.19312733 234 88 12
1.5625778 -0.87171715 -0.17537525 234 88 12
1.5664489 -0.85866284 -0.17158589 234 88 12
1.5772372 -0.848957 -0.17380552 234 88 12
1.5813104 -0.84224808 -0.17318495 234 88 12
1.5858533 -0.83621001 -0.17318495 234 88 12
1.6029679 -0.85533673 -0.19324666 234 88 12
1.6028868 -0.84897214 -0.19014578 234 88 12
1.5636145 -0.86759961 -0.17856778 234 88 12
1.5681452 -0.86157793 -0.17856778 234 88 12
1.5672276 -0.85414368 -0.17445005 234 88 12
1.5729444 -0.84972143 -0.17596123 234 88 12
1.6086044 -0.89433104 -0.21974036 234 88 12
1.5997747 -0.85123748 -0.19365089 234 88 12
1.5863425 -0.88720155 -0.20659901 234 88 12
1.5772192 -0.86860728 -0.19208166 234 88 12
1.5782706 -0.84542722 -0.1817877 234 88 12
1.5805372 -0.84241468 -0.1817877 234 88 12
1.5984998 -0.8562147 -0.19959144 234 88 12
1.6113012 -0.86906511 -0.21370465 234 88 12
1.5696912 -0.87090975 -0.19288447 234 88 12
1.5676159 -0.86199623 -0.18740666 234 88 12
1.5667942 -0.85471809 -0.18347836 234 88 12
1.571151 -0.8484078 -0.18323451 234 88 12
1.6064975 -0.88068157 -0.22042938 234 88 12
1.5877702 -0.84731656 -0.19308892 234 88 12
1.5669868 -0.87977713 -0.19977297 234 88 12
1.5606961 -0.86530912 -0.18913288 234 88 12
1.5642219 -0.86401355 -0.19071314 234 88 12
1.5737262 -0.85264838 -0.19130363 234 88 12
1.5751741 -0.8422398 -0.18734936 234 88 12
1.5821691 -0.84605849 -0.1934623 234 88 12
1.5979396 -0.86281568 -0.21104167 234 88 12
1.5596194 -0.87045074 -0.19532567 234 88 12
1.5597794 -0.85852504 -0.18990435 234 88 12
1.5641459 -0.85221815 -0.18967134 234 88 12
1.568614 -0.84604543 -0.18956293 234 88 12
1.570926 -0.84306842 -0.18960734 234 88 12
1.5587029 -0.86976117 -0.19889988 234 88 12
1.5624799 -0.86881137 -0.20077054 234 88 12
1.5717232 -0.85718751 -0.20107462 234 88 12
1.5836679 -0.86178726 -0.2104855 234 88 12
1.577937 -0.89018202 -0.22433238 234 88 12
1.5635076 -0.85863435 -0.20118095 234 88 12
1.5948151 -0.88998628 -0.23448133 234 88 12
-0.29400864 -0.71493018 -1.5768526 234 88 12
-0.29086918 -0.71304435 -1.5731922 234 88 12
-0.29733676 -0.71116453 -1.5785941 234 88 12
-0.28332973 -0.70909989 -1.5725522 234 88 12
-0.27903438 -0.71187764 -1.5761527 234 88 12
-0.29543594 -0.71356374 -1.5890944 234 88 12
-0.29071784 -0.70373708 -1.5726004 234 88 12
-0.28292185 -0.70576739 -1.5743064 234 88 12
-0.27509296 -0.70807862 -1.5764512 234 88 12
-0.29376379 -0.70117235 -1.5762403 234 88 12
-0.29000467 -0.7016325 -1.5762403 234 88 12
-0.28258607 -0.70212597 -1.5755886 234 88 12
-0.27512339 -0.70276827 -1.5751623 234 88 12
-0.31870601 -0.70975065 -1.6013987 234 88 12
-0.31843787 -0.69877517 -1.5842371 234 88 12
-0.30399477 -0.73617065 -1.6397797 234 88 12
-0.27460608 -0.69993186 -1.5776764 234 88 12
-0.2640799 -0.71552056 -1.5999702 234 88 12
-0.31842035 -0.71761405 -1.6202897 234 88 12
-0.32275128 -0.69172597 -1.5810852 234 88 12
-0.31570593 -0.69104183 -1.5786942 234 88 12
-0.3033697 -0.72199821 -1.6242197 234 88 12
-0.306306 -0.6987803 -1.5888795 234 88 12
-0.29797977 -0.70309037 -1.5939673 234 88 12
-0.29257876 -0.69599414 -1.5819743 234 88 12
-0.28468913 -0.6985724 -1.5844673 234 88 12
-0.28152707 -0.69651657 -1.5806906 234 88 12
-0.27422589 -0.6964702 -1.5792373 234 88 12
-0.26520097 -0.70479381 -1.5903981 234 88 12
-0.32362407 -0.69606733 -1.5948331 234 88 12
-0.32239315 -0.68823498 -1.582593 234 88 12
-0.31153381 -0.68816656 -1.5804502 234 88 12
-0.30752259 -0.68953574 -1.5817966 234 88 12
-0.29983351 -0.69112444 -1.5827895 234 88 12
-0.29555005 -0.69367933 -1.585903 234 88 12
-0.28437105 -0.69488496 -1.5856537 234 88 12
-0.26627225 -0.69417071 -1.5811619 234 88 12
-0.25901788 -0.71259964 -1.6080569 234 88 12
-0.32198587 -0.6849075 -1.5843445 234 88 12
-0.30657595 -0.70129174 -1.606391 234 88 12
-0.30709893 -0.68626446 -1.583637 234 88 12
-0.29964197 -0.68695939 -1.5833058 234 88 12
-0.28475741 -0.68814749 -1.5823421 234 88 12
-0.28099418 -0.68860811 -1.5823421 234 88 12
-0.2762154 -0.69371569 -1.5892196 234 88 12
-0.27319035 -0.69083744 -1.5842797 234 88 12
-0.26069683 -0.69860375 -1.5937642 234 88 12
-0.31714454 -0.68441069 -1.5895464 234 88 12
-0.30545837 -0.68753964 -1.5921082 234 88 12
-0.29923418 -0.68362778 -1.5850594 234 88 12
-0.29159412 -0.68505287 -1.5857984 234 88 12
-0.28395459 -0.68653208 -1.586619 234 88 12
-0.27275428 -0.68764669 -1.5862324 234 88 12
-0.26524708 -0.68856555 -1.5862324 234 88 12
-0.2610465 -0.69136882 -1.5896848 234 88 12
-0.32116875 -0.67826152 -1.5878601 234 88 12
-0.31780565 -0.67734581 -1.5858746 234 88 12
-0.30505404 -0.68423617 -1.593847 234 88 12
-0.29893917 -0.67985016 -1.5861665 234 88 12
-0.31888145 -0.69360465 -1.616972 234 88 12
-0.31822625 -0.68372846 -1.6021996 234 88 12
-0.30948824 -0.67635262 -1.589669 234 88 12
-0.29096511 -0.67761481 -1.5881778 234 88 12
-0.28313962 -0.67988557 -1.5901258 234 88 12
-0.27518335 -0.68293262 -1.5932019 234 88 12
-0.31588817 -0.67461127 -1.5949802 234 88 12
-0.27885345 -0.67760617 -1.5927166 234 88 12
-0.27510542 -0.67806488 -1.5927166 234 88 12
-0.26380593 -0.67973042 -1.5931323 234 88 12
-0.25942636 -0.68360764 -1.5980495 234 88 12
-0.31301093 -0.6927346 -1.6275756 234 88 12
-0.31569183 -0.67054456 -1.5956609 234 88 12
-0.30852723 -0.67025119 -1.5939524 234 88 12
-0.3013784 -0.66977626 -1.5919818 234 88 12
-0.29738721 -0.67117763 -1.5933144 234 88 12
-0.29361421 -0.67171925 -1.5934309 234 88 12
-0.29000133 -0.67158061 -1.5925829 234 88 12
-0.26007146 -0.69394058 -1.6198769 234 88 12
-0.25644052 -0.67431718 -1.5905812 234 88 12
-0.28928319 -0.66959071 -1.5962204 234 88 12
-0.28184119 -0.67026228 -1.5958737 234 88 12
-0.26975816 -0.67579758 -1.6017478 234 88 12
-0.2672376 -0.67006713 -1.5930028 234 88 12
-0.26347497 -0.6705277 -1.5930028 234 88 12
-0.25526422 -0.67535537 -1.5985384 234 88 12
-0.31233391 -0.67323762 -1.6121042 234 88 12
-0.31178406 -0.66194409 -1.5957842 234 88 12
-0.30802611 -0.66240406 -1.5957842 234 88 12
-0.27588347 -0.67592502 -1.6095556 234 88 12
-0.25553212 -0.66816789 -1.5948341 234 88 12
-0.3106204 -0.66146982 -1.6014762 234 88 12
-0.30015135 -0.65979493 -1.5972633 234 88 12
-0.2924934 -0.66131133 -1.5980885 234 88 12
-0.28413987 -0.66603112 -1.6033574 234 88 12
-0.2804085 -0.66648787 -1.6033574 234 88 12
-0.24963856 -0.67568368 -1.6110948 234 88 12
-0.28016794 -0.66241217 -1.6040401 234 88 12
-0.27163467 -0.66859519 -1.6113046 234 88 12
-0.26953781 -0.66082048 -1.5999506 234 88 12
-0.26609543 -0.65962654 -1.597667 234 88 12
-0.2617788 -0.66310227 -1.6018337 234 88 12
-0.2497897 -0.66904593 -1.6081619 234 88 12
-0.24639946 -0.66743082 -1.605292 234 88 12
-0.32795143 -0.65447026 -1.6075613 234 88 12
-0.32482129 -0.65282452 -1.6047158 234 88 12
-0.31548595 -0.66054273 -1.6139383 234 88 12
-0.31376231 -0.65358144 -1.603879 234 88 12
-0.30660155 -0.65320402 -1.6021203 234 88 12
-0.30326325 -0.6519931 -1.5998489 234 88 12
-0.2992653 -0.65342188 -1.6011665 234 88 12
-0.29505047 -0.65581876 -1.6038046 234 88 12
-0.29154599 -0.65523064 -1.6023781 234 88 12
-0.26165843 -0.65820259 -1.6014156 234 88 12
-0.25781459 -0.65916312 -1.6021029 234 88 12
-0.24679847 -0.65898669 -1.5999644 234 88 12
-0.23907073 -0.68583858 -1.6362984 234 88 12
-0.32741845 -0.66382182 -1.6268889 234 88 12
-0.32744786 -0.65151 -1.6097624 234 88 12
-0.29867107 -0.65086842 -1.6039685 234 88 12
-0.29113898 -0.6519053 -1.6041285 234 88 12
-0.28341016 -0.65386593 -1.6055403 234 88 12
-0.27660564 -0.65141714 -1.600974 234 88 12
-0.27270335 -0.6525656 -1.6019074 234 88 12
-0.26906958 -0.65235662 -1.6009977 234 88 12
-0.24957599 -0.65877509 -1.6066087 234 88 12
-0.23608916 -0.67604297 -1.6283395 234 88 12
-0.3265329 -0.64999396 -1.6138804 234 88 12
-0.32083806 -0.6445725 -1.6054336 234 88 12
-0.3173022 -0.64421874 -1.6043477 234 88 12
-0.3098107 -0.6450364 -1.6042106 234 88 12
-0.26464114 -0.650859 -1.6046163 234 88 12
-0.25673187 -0.65407354 -1.6077176 234 88 12
-0.24944794 -0.65371823 -1.6059964 234 88 12
-0.23739712 -0.66074508 -1.6136608 234 88 12
-0.23206353 -0.67318964 -1.6299398 234 88 12
-0.29786879 -0.64416605 -1.6074028 234 88 12
-0.28225163 -0.64885598 -1.6112084 234 88 12
-0.26983708 -0.6564492 -1.6195277 234 88 12
-0.25625488 -0.65117252 -1.610023 234 88 12
-0.23782103 -0.651528 -1.6074194 234 88 12
-0.23166855 -0.66996264 -1.6316384 234 88 12
-0.32166266 -0.64513034 -1.6190103 234 88 12
-0.3175391 -0.64712739 -1.6210384 234 88 12
-0.29684758 -0.64346051 -1.6126131 234 88 12
-0.28736213 -0.65341955 -1.62457 234 88 12
-0.28558171 -0.64508814 -1.6129512 234 88 12
-0.27844784 -0.66169018 -1.6343272 234 88 12
-0.26428565 -0.71359968 -1.7025182 234 88 12
-0.26648685 -0.64961696 -1.6159296 234 88 12
-0.26197064 -0.65447462 -1.62178 234 88 12
-0.2363233 -0.65609449 -1.6197152 234 88 12
-0.30370009 -0.68150306 -1.6713197 234 88 12
-0.30662459 -0.65693539 -1.6386737 234 88 12
-0.30074203 -0.65223086 -1.6313589 234 88 12
-0.29564443 -0.64358115 -1.6188537 234 88 12
-0.28545728 -0.65698195 -1.6352427 234 88 12
-0.28108788 -0.66082597 -1.6397052 234 88 12
-0.25138572 -0.66885358 -1.6456277 234 88 12
-0.25017315 -0.65450513 -1.6260792 234 88 12
-0.24761471 -0.64769787 -1.6164776 234 88 12
-0.24072291 -0.64467317 -1.6112614 234 88 12
-0.24383342 -0.68851829 -1.6767015 234 88 12
-0.24631396 -0.65023947 -1.6258901 234 88 12
-0.24083675 -0.66280943 -1.641812 234 88 12
-0.23457976 -0.68192494 -1.6663641 234 88 12
1.0122372 -0.78828079 -1.2214092 234 88 12
1.0070207 -0.77280051 -1.2031577 234 88 12
1.0104091 -0.77135056 -1.2049042 234 88 12
1.0208689 -0.7748577 -1.2173096 234 88 12
1.0268403 -0.77807289 -1.2254574 234 88 12
1.0273216 -0.77178758 -1.220364 234 88 12
0.9981187 -0.7805047 -1.2079948 234 88 12
0.99929029 -0.77547276 -1.2046441 234 88 12
1.0087732 -0.76994717 -1.2082144 234 88 12
1.0112768 -0.75984919 -1.201625 234 88 12
1.0139388 -0.75714856 -1.201625 234 88 12
1.0166007 -0.75444794 -1.201625 234 88 12
1.0237186 -0.75966519 -1.2124697 234 88 12
1.0026602 -0.7888273 -1.2251316 234 88 12
0.99699551 -0.77299976 -1.206467 234 88 12
0.99834681 -0.76819676 -1.2034979 234 88 12
1.0018047 -0.7667951 -1.2053204 234 88 12
1.0041637 -0.76360112 -1.2046276 234 88 12
1.0202444 -0.74761564 -1.2049122 234 88 12
1.026327 -0.75114393 -1.2133033 234 88 12
1.04059 -0.76991343 -1.2420599 234 88 12
0.99984926 -0.7648676 -1.2079281 234 88 12
1.0101447 -0.76072317 -1.2133369 234 88 12
1.0102425 -0.75366741 -1.2073649 234 88 12
1.0161549 -0.74931633 -1.2087791 234 88 12
1.0182878 -0.74568713 -1.2075212 234 88 12
1.0249186 -0.74270087 -1.2107326 234 88 12
1.0386207 -0.76059544 -1.238028 234 88 12
0.99536264 -0.77276832 -1.2167203 234 88 12
0.99519366 -0.76556945 -1.2104419 234 88 12
1.0024122 -0.76331919 -1.2147635 234 88 12
1.0062016 -0.75541484 -1.2113053 234 88 12
1.0108426 -0.75613129 -1.2159263 234 88 12
1.0244281 -0.77250057 -1.2416117 234 88 12
1.014704 -0.74827653 -1.2125725 234 88 12
1.0226154 -0.74013036 -1.2124705 234 88 12
1.0256188 -0.73809332 -1.2133309 234 88 12
1.0438185 -0.76465839 -1.2516891 234 88 12
1.0292157 -0.7294789 -1.2091012 234 88 12
0.99909002 -0.77305609 -1.2260265 234 88 12
0.99680567 -0.76242572 -1.2150818 234 88 12
1.0069927 -0.75094777 -1.2141157 234 88 12
1.0128535 -0.74652976 -1.2154074 234 88 12
1.0180134 -0.74089783 -1.2150717 234 88 12
1.0207261 -0.73831969 -1.2152188 234 88 12
1.0280035 -0.73664504 -1.2200441 234 88 12
1.0287148 -0.73031867 -1.2153065 234 88 12
1.0344713 -0.73360878 -1.2230242 234 88 12
1.0422789 -0.73334479 -1.229497 234 88 12
1.0407773 -0.72248602 -1.2190303 234 88 12
1.0482813 -0.72968936 -1.2315546 234 88 12
1.0484302 -0.72202533 -1.2252039 234 88 12
1.0617197 -0.74163032 -1.2531728 234 88 12
1.0575105 -0.72485018 -1.2353789 234 88 12
1.0567318 -0.71503168 -1.2264115 234 88 12
0.99706703 -0.77779675 -1.2340711 234 88 12
0.99716741 -0.77116102 -1.2285904 234 88 12
1.0017964 -0.7648735 -1.2272557 234 88 12
1.0227447 -0.72852522 -1.2145936 234 88 12
1.0308998 -0.7207498 -1.2150115 234 88 12
1.0414938 -0.70985126 -1.2148852 234 88 12
1.044155 -0.70715135 -1.2148852 234 88 12
1.0563223 -0.72447532 -1.239771 234 88 12
1.066671 -0.73846203 -1.2603098 234 88 12
1.0707574 -0.73934942 -1.2645317 234 88 12
0.98880416 -0.77267271 -1.228551 234 88 12
0.98813516 -0.76480472 -1.2214371 234 88 12
1.0222859 -0.81257892 -1.2900418 234 88 12
0.99855119 -0.7677381 -1.2326747 234 88 12
0.99496907 -0.75492656 -1.2189858 234 88 12
0.99959052 -0.74837446 -1.2174348 234 88 12
1.0115631 -0.73992401 -1.2205113 234 88 12
1.0418664 -0.7045365 -1.2166462 234 88 12
1.0519568 -0.70926112 -1.2290996 234 88 12
1.0614526 -0.72142792 -1.2472458 234 88 12
0.9793914 -0.7726869 -1.2264353 234 88 12
0.98288643 -0.76455164 -1.2226444 234 88 12
1.0060523 -0.73910367 -1.2210377 234 88 12
1.0141939 -0.7387659 -1.2275811 234 88 12
1.0168289 -0.73609251 -1.2275811 234 88 12
1.0178916 -0.73053348 -1.2238802 234 88 12
1.0218902 -0.72271711 -1.2207747 234 88 12
1.0336114 -0.71408075 -1.2234634 234 88 12
1.0466444 -0.72445738 -1.2429559 234 88 12
1.0400479 -0.70289636 -1.219619 234 88 12
1.0577482 -0.71565658 -1.2449914 234 88 12
1.0015109 -0.80731487 -1.2789836 234 88 12
0.97698593 -0.76332533 -1.2225335 234 88 12
0.97938836 -0.76022106 -1.2219868 234 88 12
0.98456073 -0.75456846 -1.2216549 234 88 12
0.98945141 -0.75545865 -1.2264514 234 88 12
0.99075305 -0.75057083 -1.2235276 234 88 12
0.9931432 -0.74742985 -1.2229406 234 88 12
0.99893737 -0.74283481 -1.2239925 234 88 12
1.0048873 -0.73855144 -1.2254294 234 88 12
1.0123366 -0.74431461 -1.2363478 234 88 12
1.0122709 -0.72944808 -1.2241077 234 88 12
1.0203302 -0.7215327 -1.2243217 234 88 12
1.0255501 -0.71596861 -1.2241019 234 88 12
1.0321428 -0.71310961 -1.2272407 234 88 12
1.036267 -0.7053743 -1.2243301 234 88 12
1.0443978 -0.69763863 -1.2247508 234 88 12
1.0558547 -0.71379012 -1.2475165 234 88 12
0.97678661 -0.77079707 -1.2342434 234 88 12
0.98009253 -0.75558698 -1.2246 234 88 12
1.0105165 -0.73529965 -1.2332045 234 88 12
1.0180936 -0.73417276 -1.2385405 234 88 12
1.0152057 -0.72134876 -1.2257268 234 88 12
1.0425701 -0.69597673 -1.2276709 234 88 12
1.0894595 -0.78764343 -1.3409232 234 88 12
0.98454338 -0.75690359 -1.2350842 234 88 12
0.98731929 -0.74749285 -1.2297616 234 88 12
0.9949345 -0.73882324 -1.2289999 234 88 12
1.0052537 -0.73484862 -1.234242 234 88 12
1.0174056 -0.74905699 -1.2556611 234 88 12
1.0181161 -0.71316737 -1.2272748 234 88 12
1.0308672 -0.70653218 -1.2323608 234 88 12
1.0335127 -0.70384818 -1.2323608 234 88 12
1.0443462 -0.71789312 -1.2525685 234 88 12
1.0595515 -0.73376572 -1.2778314 234 88 12
0.97249508 -0.7663455 -1.2385488 234 88 12
0.97257572 -0.75977337 -1.2333502 234 88 12
0.9762131 -0.75860912 -1.2353735 234 88 12
0.97885722 -0.75592661 -1.2353735 234 88 12
0.98270082 -0.74824399 -1.2323433 234 88 12
0.99072552 -0.74026382 -1.2324724 234 88 12
0.997859 -0.73075205 -1.2306505 234 88 12
1.0075628 -0.73311085 -1.2404253 234 88 12
1.0085937 -0.72758681 -1.2368385 234 88 12
1.0096095 -0.72196341 -1.2331598 234 88 12
1.0200932 -0.7109645 -1.2328691 234 88 12
1.032675 -0.71206301 -1.2439733 234 88 12
1.0530771 -0.74516892 -1.2870696 234 88 12
1.0667108 -0.76542598 -1.3143741 234 88 12
0.98123014 -0.75397462 -1.2414218 234 88 12
0.98040682 -0.74577308 -1.2342389 234 88 12
0.98820823 -0.73740155 -1.2338758 234 88 12
0.99653643 -0.72991639 -1.2346421 234 88 12
0.99867457 -0.72631866 -1.2335067 234 88 12
1.0042539 -0.72138506 -1.2340845 234 88 12
1.0119535 -0.71278638 -1.2334588 234 88 12
1.0206583 -0.71383214 -1.2413095 234 88 12
0.98034263 -0.74686682 -1.2407414 234 88 12
1.0068121 -0.71259791 -1.2348927 234 88 12
1.015666 -0.71379977 -1.2429261 234 88 12
1.0244925 -0.72287762 -1.2571501 234 88 12
0.98747844 -0.75942731 -1.261878 234 88 12
0.98719251 -0.73124558 -1.2395912 234 88 12
0.99703276 -0.72640383 -1.2436159 234 88 12
0.99820131 -0.72113347 -1.2404184 234 88 12
1.0010741 -0.71883035 -1.2408969 234 88 12
1.0064043 -0.71349591 -1.2409543 234 88 12
1.0156826 -0.7230379 -1.2557919 234 88 12
0.98438853 -0.73499572 -1.2459378 234 88 12
0.98727113 -0.72556967 -1.2408874 234 88 12
0.98993272 -0.7228694 -1.2408874 234 88 12
1.0019801 -0.72197598 -1.2496878 234 88 12
1.0185884 -0.72265291 -1.2633024 234 88 12
1.0086343 -0.72077024 -1.2595254 234 88 12
1.0148081 -0.7246834 -1.2673705 234 88 12
0.98976743 -0.75317299 -1.2751557 234 88 12
0.98423398 -0.73729515 -1.2587143 234 88 12
0.98384261 -0.72964352 -1.252557 234 88 12
0.99244797 -0.71554124 -1.2484475 234 88 12
1.0027566 -0.72636276 -1.2647269 234 88 12
0.99775422 -0.71015787 -1.2484475 234 88 12
1.0052673 -0.7162565 -1.2589442 234 88 12
0.97419685 -0.73609573 -1.2555612 234 88 12
0.97558212 -0.73139429 -1.253059 234 88 12
0.98316473 -0.72274613 -1.2523338 234 88 12
0.98977 -0.71235412 -1.2495317 234 88 12
0.99811345 -0.71966642 -1.2615094 234 88 12
0.9722572 -0.73418385 -1.2581478 234 88 12
0.97618985 -0.733603 -1.2607161 234 88 12
0.97980922 -0.72556645 -1.2574279 234 88 12
0.9798739 -0.71857792 -1.252212 234 88 12
1.0034462 -0.73051572 -1.2792237 234 88 12
0.98070407 -0.71416867 -1.2550777 234 88 12
1.0011504 -0.74190503 -1.2913247 234 88 12
0.97570634 -0.72835618 -1.2673507 234 88 12
0.98095 -0.72303623 -1.2673507 234 88 12
0.98776567 -0.72745001 -1.2757564 234 88 12
1.7937236 0.19933625 -0.52202791 234 88 12
1.776821 0.22733772 -0.49436638 234 88 12
1.7790437 0.19907084 -0.50805724 234 88 12
1.7737582 0.20793597 -0.49944571 234 88 12
1.7847191 0.20211612 -0.51508999 234 88 12
1.7654498 0.2238429 -0.48556185 234 88 12
1.7710085 0.22292767 -0.49313676 234 88 12
1.7842 0.21893124 -0.51143473 234 88 12
1.7747213 0.23617364 -0.49575463 234 88 12
1.7794657 0.23996527 -0.5014143 234 88 12
1.7755854 0.24791256 -0.49483886 234 88 12
1.7642157 0.20255594 -0.493462 234 88 12
1.7637056 0.20718396 -0.4919762 234 88 12
1.7657112 0.20958202 -0.49421343 234 88 12
1.7630843 0.22033046 -0.48885208 234 88 12
1.7722231 0.22034766 -0.50095642 234 88 12
1.7655795 0.23489217 -0.489609 234 88 12
1.7695724 0.23535208 -0.49481848 234 88 12
1.7688363 0.24446794 -0.4922477 234 88 12
1.7704746 0.25132671 -0.49321768 234 88 12
1.796243 0.16920711 -0.54716945 234 88 12
1.7647117 0.20489842 -0.49946931 234 88 12
1.7612475 0.21634388 -0.49292049 234 88 12
1.7862066 0.20201637 -0.52825755 234 88 12
1.7623082 0.22800477 -0.49228898 234 88 12
1.7652258 0.22952254 -0.49586463 234 88 12
1.771697 0.23185527 -0.50397521 234 88 12
1.7580701 0.19680506 -0.49791196 234 88 12
1.7634526 0.19632089 -0.5050317 234 88 12
1.7775803 0.19624446 -0.5235126 234 88 12
1.7637068 0.23365362 -0.49891654 234 88 12
1.7639326 0.24186312 -0.497794 234 88 12
1.7665774 0.25199029 -0.49950233 234 88 12
1.7556256 0.2017294 -0.49963576 234 88 12
1.7616456 0.21315087 -0.50549322 234 88 12
1.7601125 0.21870206 -0.50255036 234 88 12
1.7634254 0.22406448 -0.50593203 234 88 12
1.7620251 0.23373283 -0.50245541 234 88 12
1.7647352 0.24379745 -0.50424773 234 88 12
1.7640992 0.25283179 -0.50187212 234 88 12
1.7565221 0.18713692 -0.50901514 234 88 12
1.7544295 0.19305618 -0.5053075 234 88 12
1.7560393 0.21254291 -0.50406337 234 88 12
1.7748221 0.2040884 -0.52972978 234 88 12
1.7621691 0.23631361 -0.50791901 234 88 12
1.7641761 0.24701071 -0.50868487 234 88 12
1.7659222 0.24953622 -0.51050657 234 88 12
1.7525678 0.19330212 -0.50858504 234 88 12
1.7633349 0.2006077 -0.52114278 234 88 12
1.7551523 0.21192889 -0.50874346 234 88 12
1.7569476 0.21451895 -0.51060522 234 88 12
1.7574412 0.21825489 -0.51060522 234 88 12
1.7549204 0.22891384 -0.50557154 234 88 12
1.8029402 0.18915857 -0.57382083 234 88 12
1.7693582 0.22402424 -0.52489603 234 88 12
1.7641743 0.24968247 -0.51391202 234 88 12
1.7558914 0.19330637 -0.51850188 234 88 12
1.7501527 0.20235997 -0.50967681 234 88 12
1.7601439 0.21029232 -0.52105767 234 88 12
1.752479 0.22547145 -0.50875157 234 88 12
1.7611066 0.22186264 -0.52033746 234 88 12
1.7561679 0.23052703 -0.51259601 234 88 12
1.7560983 0.23478758 -0.51179117 234 88 12
1.7685028 0.23161119 -0.52811062 234 88 12
1.7625988 0.24966469 -0.51756215 234 88 12
1.7593212 0.20551105 -0.52642632 234 88 12
1.7593511 0.20961016 -0.52577955 234 88 12
1.7522991 0.22001579 -0.5151279 234 88 12
1.7597533 0.22581343 -0.52358222 234 88 12
1.7933505 0.2030617 -0.56984895 234 88 12
1.7530707 0.24453251 -0.51200926 234 88 12
1.7488307 0.21331091 -0.51754117 234 88 12
1.7494669 0.22112282 -0.51704419 234 88 12
1.750528 0.22436807 -0.51783812 234 88 12
1.7520409 0.23558509 -0.51787704 234 88 12
1.7522789 0.24377863 -0.51681685 234 88 12
1.7717823 0.23381494 -0.54295653 234 88 12
1.7667023 0.24273629 -0.53509867 234 88 12
1.7595923 0.19438954 -0.53972495 234 88 12
1.7510974 0.20581166 -0.52724922 234 88 12
1.7469671 0.21355711 -0.52082217 234 88 12
1.7622856 0.20429212 -0.54145217 234 88 12
1.747238 0.2216914 -0.51981992 234 88 12
1.7470994 0.22601059 -0.51893538 234 88 12
1.7691307 0.2144668 -0.54831231 234 88 12
1.7661732 0.22941683 -0.54216093 234 88 12
1.7512749 0.25165153 -0.51991826 234 88 12
1.7461979 0.20868461 -0.5262965 234 88 12
1.7482312 0.21941467 -0.52705914 234 88 12
1.7524269 0.25326636 -0.52671653 234 88 12
1.8573488 0.10503767 -0.68549669 234 88 12
1.7427332 0.20613942 -0.52804661 234 88 12
1.7449206 0.21676303 -0.52901095 234 88 12
1.7449404 0.22510536 -0.52767932 234 88 12
1.7461168 0.23243248 -0.52793562 234 88 12
1.7473003 0.24394912 -0.52751976 234 88 12
1.7688665 0.23625623 -0.55530423 234 88 12
1.742929 0.1963439 -0.53546089 234 88 12
1.7498227 0.21111858 -0.54150009 234 88 12
1.7480619 0.2167933 -0.538432 234 88 12
1.79318 0.20804587 -0.59498054 234 88 12
1.7464869 0.25584948 -0.53020173 234 88 12
1.7368451 0.20011988 -0.53302091 234 88 12
1.7363758 0.20886505 -0.53104901 234 88 12
1.7371022 0.21661974 -0.53068703 234 88 12
1.744746 0.21832429 -0.53969169 234 88 12
1.7510686 0.22102068 -0.54693371 234 88 12
1.7453227 0.23029767 -0.5384717 234 88 12
1.7446549 0.24344978 -0.53555214 234 88 12
1.7578394 0.18133664 -0.56689608 234 88 12
1.734452 0.20497809 -0.53493524 234 88 12
1.7345057 0.20911212 -0.53434157 234 88 12
1.7360569 0.21615697 -0.53508967 234 88 12
1.7406088 0.23309991 -0.53787869 234 88 12
1.7509949 0.23206125 -0.55056542 234 88 12
1.7514821 0.23574904 -0.55056542 234 88 12
1.7416533 0.25315663 -0.53594345 234 88 12
1.7371914 0.20551454 -0.54369766 234 88 12
1.7424937 0.22169556 -0.5474869 234 88 12
1.7370934 0.23062506 -0.53960794 234 88 12
1.7378632 0.23413375 -0.53997457 234 88 12
1.7358285 0.20949391 -0.54696584 234 88 12
1.734598 0.21887347 -0.54402876 234 88 12
1.7344519 0.22736393 -0.54252088 234 88 12
1.7381499 0.23246664 -0.54611707 234 88 12
1.7399319 0.2392253 -0.54717463 234 88 12
1.737132 0.24595511 -0.54278725 234 88 12
1.740554 0.24702568 -0.5466888 234 88 12
1.7695386 0.22444262 -0.58470845 234 88 12
1.7395548 0.25634497 -0.54403615 234 88 12
1.7361026 0.20380215 -0.55367702 234 88 12
1.7404399 0.20426525 -0.5587281 234 88 12
1.7412719 0.20766677 -0.55918002 234 88 12
1.7510362 0.20743553 -0.57074994 234 88 12
1.748421 0.21377896 -0.56667084 234 88 12
1.7388721 0.25549555 -0.54888129 234 88 12
1.7445513 0.24876194 -0.5620811 234 88 12
1.7352886 0.25166944 -0.55625105 234 88 12
1.7430893 0.23896679 -0.57267821 234 88 12
1.7547348 0.2364856 -0.58653444 234 88 12
1.7332062 0.24649939 -0.56552774 234 88 12
1.7340776 0.24987707 -0.56601644 234 88 12
1.7293605 0.25838339 -0.55930293 234 88 12
1.7471685 0.23246884 -0.58899099 234 88 12
1.7322277 0.25012147 -0.56927347 234 88 12
1.7540226 0.23432365 -0.59653538 234 88 12
-0.13341989 0.47918409 -1.7434446 234 88 12
-0.14179142 0.48209083 -1.73746 234 88 12
-0.14961256 0.48292661 -1.7357394 234 88 12
-0.15285778 0.48121893 -1.7392551 234 88 12
-0.15699272 0.48232704 -1.7369738 234 88 12
-0.1585487 0.47564608 -1.7507286 234 88 12
-0.16373762 0.47992066 -1.7419281 234 88 12
-0.17606284 0.48275295 -1.7360969 234 88 12
-0.18377776 0.48312709 -1.7353265 234 88 12
-0.19108944 0.48245353 -1.7367133 234 88 12
-0.1987022 0.48256248 -1.7364889 234 88 12
-0.14213884 0.4794817 -1.7350281 234 88 12
-0.14961256 0.47913894 -1.7357394 234 88 12
-0.15699272 0.47854409 -1.7369738 234 88 12
-0.16227925 0.47191551 -1.7507286 234 88 12
-0.17499328 0.47605696 -1.7421347 234 88 12
-0.18004784 0.47949585 -1.7349987 234 88 12
-0.18377776 0.47933787 -1.7353265 234 88 12
-0.19115598 0.4788363 -1.7363673 234 88 12
-0.19781286 0.47663477 -1.7409357 234 88 12
-0.20255116 0.47892937 -1.7361742 234 88 12
-0.1410398 0.47201318 -1.7427214 234 88 12
-0.1564274 0.47305152 -1.7405496 234 88 12
-0.1680745 0.47400787 -1.7385492 234 88 12
-0.17021579 0.46949628 -1.7479858 234 88 12
-0.1868196 0.47365373 -1.73929 234 88 12
-0.20522548 0.47258347 -1.7415286 234 88 12
-0.20956758 0.47388706 -1.738802 234 88 12
-0.21205649 0.47102815 -1.7447817 234 88 12
-0.14583033 0.47158119 -1.7357023 234 88 12
-0.14915259 0.47011384 -1.7387961 234 88 12
-0.16082123 0.4711116 -1.7366924 234 88 12
-0.16193822 0.46347836 -1.7527866 234 88 12
-0.16810109 0.47030529 -1.7383925 234 88 12
-0.17602256 0.47128621 -1.7363242 234 88 12
-0.18356116 0.47120339 -1.7364988 234 88 12
-0.19058536 0.46985894 -1.7393335 234 88 12
-0.19828346 0.47021508 -1.7385826 234 88 12
-0.20226859 0.46206307 -1.7557706 234 88 12
-0.20215541 0.44545749 -1.7907823 234 88 12
-0.15565059 0.46320114 -1.7454631 234 88 12
-0.19093752 0.46694618 -1.7375031 234 88 12
-0.2136412 0.46698561 -1.7374192 234 88 12
-0.14447536 0.45969433 -1.7449408 234 88 12
-0.14980142 0.46457401 -1.7344842 234 88 12
-0.16696069 0.45961088 -1.7451196 234 88 12
-0.17219959 0.46361431 -1.7365408 234 88 12
-0.18342057 0.46327877 -1.7372597 234 88 12
-0.19095361 0.46320429 -1.7374194 234 88 12
-0.19836284 0.46284664 -1.7381858 234 88 12
-0.20899397 0.46129298 -1.741515 234 88 12
-0.2136412 0.46320435 -1.7374192 234 88 12
-0.21177691 0.45117691 -1.7631923 234 88 12
-0.14447536 0.45594171 -1.7449408 234 88 12
-0.14907677 0.4585526 -1.7392999 234 88 12
-0.15679085 0.45903829 -1.7382506 234 88 12
-0.16328518 0.45607239 -1.7446584 234 88 12
-0.16849242 0.46004111 -1.736084 234 88 12
-0.20522831 0.45752734 -1.741515 234 88 12
-0.21158123 0.45499325 -1.7469898 234 88 12
-0.20723036 0.43788677 -1.7839483 234 88 12
-0.14759871 0.45026949 -1.7491225 234 88 12
-0.15294614 0.455062 -1.7386824 234 88 12
-0.15672259 0.455062 -1.7386824 234 88 12
-0.16425572 0.45500726 -1.7388016 234 88 12
-0.16689354 0.45192522 -1.7455156 234 88 12
-0.17576218 0.4554697 -1.7377942 234 88 12
-0.18354328 0.45601988 -1.7365956 234 88 12
-0.19091907 0.45555937 -1.7375989 234 88 12
-0.19855043 0.45572054 -1.7372478 234 88 12
-0.20057309 0.45175809 -1.7458797 234 88 12
-0.20991068 0.45575202 -1.7371792 234 88 12
-0.21659696 0.4539119 -1.7411878 234 88 12
-0.1433368 0.44490257 -1.7527035 234 88 12
-0.19338003 0.44871676 -1.744325 234 88 12
-0.14443824 0.44456962 -1.7451938 234 88 12
-0.14919841 0.44759527 -1.7384915 234 88 12
-0.15635535 0.44646046 -1.7410053 234 88 12
-0.16411479 0.44707131 -1.7396522 234 88 12
-0.19058351 0.44721082 -1.7393432 234 88 12
-0.20088993 0.44496182 -1.744325 234 88 12
-0.20904496 0.44633925 -1.7412738 234 88 12
-0.21429822 0.44164068 -1.751682 234 88 12
-0.1400024 0.42728007 -1.7754382 234 88 12
-0.14773516 0.43946537 -1.7482157 234 88 12
-0.15673195 0.44375911 -1.7386233 234 88 12
-0.16451257 0.44437307 -1.7372516 234 88 12
-0.17250411 0.44547763 -1.734784 234 88 12
-0.18361498 0.44484043 -1.7362075 234 88 12
-0.19124025 0.44496495 -1.7359294 234 88 12
-0.19930658 0.44606712 -1.7334671 234 88 12
-0.21041359 0.44547021 -1.7348006 234 88 12
-0.21429822 0.43791378 -1.751682 234 88 12
-0.15980673 0.43805847 -1.7429584 234 88 12
-0.18622585 0.43828914 -1.7424387 234 88 12
-0.21565399 0.43693373 -1.7454927 234 88 12
-0.14533776 0.42497498 -1.7641478 234 88 12
-0.15344232 0.43759477 -1.7354665 234 88 12
-0.15697482 0.43688175 -1.7370869 234 88 12
-0.16356689 0.43429831 -1.7429584 234 88 12
-0.16831653 0.43686649 -1.7371216 234 88 12
-0.17523074 0.43525058 -1.7407942 234 88 12
-0.18717654 0.43674526 -1.7373971 234 88 12
-0.18733442 0.42845792 -1.756232 234 88 12
-0.18683659 0.41902187 -1.7776775 234 88 12
-0.18732165 0.41210765 -1.7933917 234 88 12
-0.20274098 0.43769315 -1.7352428 234 88 12
-0.20665936 0.43796617 -1.7346224 234 88 12
-0.21165922 0.43268391 -1.7466274 234 88 12
-0.21152371 0.42488676 -1.7643483 234 88 12
-0.14542684 0.42155376 -1.7635558 234 88 12
-0.17561613 0.4324311 -1.7386186 234 88 12
-0.18056782 0.42628896 -1.7527 234 88 12
-0.18429087 0.42628896 -1.7527 234 88 12
-0.19045511 0.43182394 -1.7400106 234 88 12
-0.1903376 0.42317775 -1.7598326 234 88 12
-0.19229016 0.41937566 -1.7685492 234 88 12
-0.19416331 0.41554579 -1.7773296 234 88 12
-0.20486948 0.43041387 -1.7432433 234 88 12
-0.208252 0.42963699 -1.7450243 234 88 12
-0.14739816 0.42353648 -1.7504553 234 88 12
-0.15176824 0.42532581 -1.7463169 234 88 12
-0.15734152 0.43031958 -1.7347674 234 88 12
-0.16421671 0.4284735 -1.739037 234 88 12
-0.16833964 0.42936063 -1.7369853 234 88 12
-0.17561613 0.4286544 -1.7386186 234 88 12
-0.17684478 0.41884288 -1.7527 234 88 12
-0.15367942 0.41289771 -1.7579314 234 88 12
-0.15979508 0.41922709 -1.7430304 234 88 12
-0.16365121 0.4194738 -1.7424495 234 88 12
-0.1751136 0.41989607 -1.7414554 234 88 12
-0.18217805 0.41882169 -1.7439848 234 88 12
-0.16058034 0.41750887 -1.7381803 234 88 12
-0.16813843 0.4175123 -1.7381722 234 88 12
-0.17229497 0.41843066 -1.7359905 234 88 12
-0.16407643 0.41301998 -1.7398835 234 88 12
-0.18240629 0.41182452 -1.7427495 234 88 12
-0.17186661 0.40983579 -1.7384619 234 88 12
-0.17564391 0.40983579 -1.7384619 234 88 12
-0.17864534 0.40806356 -1.7427495 234 88 12
1.1150727 0.4310672 -1.3683624 234 88 12
1.1205732 0.41563275 -1.3925946 234 88 12
1.1104841 0.43314186 -1.3667883 234 88 12
1.1133963 0.40947041 -1.3855801 234 88 12
1.1131167 0.41374683 -1.3844844 234 88 12
1.1052101 0.4280881 -1.3644043 234 88 12
1.1098371 0.42594406 -1.3755156 234 88 12
1.1116163 0.42751968 -1.3795427 234 88 12
1.1156489 0.37583593 -1.4035026 234 88 12
1.1128588 0.38693836 -1.3958771 234 88 12
1.1130182 0.39060503 -1.3958771 234 88 12
1.1008666 0.40971696 -1.365628 234 88 12
1.1038617 0.40992621 -1.3725855 234 88 12
1.1040252 0.41368797 -1.3725855 234 88 12
1.1069192 0.4139376 -1.3793029 234 88 12
1.1018634 0.42443967 -1.3664594 234 88 12
1.1046553 0.4327465 -1.3721226 234 88 12
1.1210308 0.34345582 -1.4281938 234 88 12
1.1008769 0.3703616 -1.3790143 234 88 12
1.108045 0.36983475 -1.3955991 234 88 12
1.0972031 0.38651142 -1.368922 234 88 12
1.1022561 0.38446906 -1.3807803 234 88 12
1.0992818 0.3959443 -1.37277 234 88 12
1.0994456 0.39971367 -1.37277 234 88 12
1.1016524 0.40096223 -1.3777342 234 88 12
1.1018153 0.40471128 -1.3777342 234 88 12
1.0979795 0.41347864 -1.3680084 234 88 12
1.0986099 0.41667831 -1.3691413 234 88 12
1.0997117 0.42325273 -1.3710231 234 88 12
1.1063563 0.41862413 -1.386812 234 88 12
1.0999388 0.43093818 -1.3707763 234 88 12
1.1032523 0.43056476 -1.3784558 234 88 12
1.0940875 0.36277044 -1.3734946 234 88 12
1.105935 0.35345179 -1.4014682 234 88 12
1.0930282 0.37188944 -1.3701708 234 88 12
1.0950158 0.37755668 -1.3741461 234 88 12
1.0946311 0.40982822 -1.3700645 234 88 12
1.0936953 0.35592046 -1.3825123 234 88 12
1.0919185 0.36180362 -1.377918 234 88 12
1.0896801 0.3682394 -1.3722266 234 88 12
1.0906775 0.38300285 -1.3730302 234 88 12
1.0917317 0.38972235 -1.3747525 234 88 12
1.0925883 0.39664802 -1.376008 234 88 12
1.0916233 0.40975118 -1.3725394 234 88 12
1.0917881 0.41353831 -1.3725394 234 88 12
1.0925938 0.42450505 -1.3732828 234 88 12
1.0880876 0.35477573 -1.3791653 234 88 12
1.089022 0.38535625 -1.3782815 234 88 12
1.0900029 0.38817734 -1.3802017 234 88 12
1.0894181 0.39678586 -1.3780555 234 88 12
1.0925695 0.40487322 -1.3843204 234 88 12
1.0909699 0.41474625 -1.3797807 234 88 12
1.0909997 0.43060738 -1.3783042 234 88 12
1.0902542 0.43554956 -1.3761553 234 88 12
1.0982734 0.33689108 -1.4125276 234 88 12
1.0832403 0.35670274 -1.3773142 234 88 12
1.0844046 0.35941282 -1.3796326 234 88 12
1.0833484 0.36451125 -1.3768015 234 88 12
1.0852404 0.37035793 -1.3804299 234 88 12
1.0846441 0.3749769 -1.3786641 234 88 12
1.0919889 0.41368133 -1.3912078 234 88 12
1.0867217 0.42417434 -1.3785278 234 88 12
1.082823 0.34606722 -1.3864557 234 88 12
1.0806199 0.35229883 -1.3810285 234 88 12
1.0827119 0.36190999 -1.384701 234 88 12
1.0816332 0.37889379 -1.3807148 234 88 12
1.0831368 0.38907182 -1.3830423 234 88 12
1.0820405 0.39827079 -1.3797604 234 88 12
1.0858095 0.3978141 -1.3880712 234 88 12
1.0891913 0.40165514 -1.3951234 234 88 12
1.0891581 0.40560949 -1.3946732 234 88 12
1.0831052 0.41688994 -1.38032 234 88 12
1.0823451 0.42579716 -1.3778032 234 88 12
1.0831263 0.43281147 -1.3788477 234 88 12
1.087674 0.33796799 -1.4066612 234 88 12
1.0798777 0.3695721 -1.3867427 234 88 12
1.0797746 0.37362719 -1.3861358 234 88 12
1.082656 0.39401826 -1.3904688 234 88 12
1.0801188 0.40488231 -1.3839316 234 88 12
1.082194 0.41825157 -1.3871764 234 88 12
1.0746671 0.35216713 -1.3860173 234 88 12
1.0737869 0.35702768 -1.3836694 234 88 12
1.0815947 0.35666651 -1.4004968 234 88 12
1.0805824 0.3655355 -1.39749 234 88 12
1.0756457 0.37481654 -1.386004 234 88 12
1.079855 0.37414357 -1.3951205 234 88 12
1.0744976 0.3840017 -1.3826755 234 88 12
1.0757509 0.39053413 -1.3847605 234 88 12
1.075141 0.39917013 -1.3826411 234 88 12
1.0767988 0.40122852 -1.3860142 234 88 12
1.0769476 0.40502018 -1.3859797 234 88 12
1.0739388 0.3537254 -1.3931369 234 88 12
1.0721815 0.36736935 -1.3881302 234 88 12
1.0725281 0.38280445 -1.3874391 234 88 12
1.0730395 0.3941125 -1.3874812 234 88 12
1.0732037 0.39788878 -1.3874812 234 88 12
1.0729319 0.4061372 -1.3861382 234 88 12
1.0839349 0.39724684 -1.4103976 234 88 12
1.0780188 0.40809128 -1.3967923 234 88 12
1.0757949 0.41466564 -1.3914467 234 88 12
1.0734969 0.42137572 -1.3859305 234 88 12
1.0736607 0.42515928 -1.385929 234 88 12
1.0731105 0.43380442 -1.3839564 234 88 12
1.0748761 0.36132514 -1.4031175 234 88 12
1.0704829 0.42529666 -1.3879833 234 88 12
1.0755521 0.42708424 -1.3985124 234 88 12
1.0700898 0.43773389 -1.3860136 234 88 12
1.0664669 0.36698902 -1.3935955 234 88 12
1.0719124 0.36518055 -1.405136 234 88 12
1.0671726 0.37412187 -1.3944219 234 88 12
1.0655411 0.383775 -1.3901366 234 88 12
1.0652694 0.38803467 -1.3891819 234 88 12
1.0667601 0.39827418 -1.391366 234 88 12
1.0665534 0.4064396 -1.3901927 234 88 12
1.0663558 0.41461524 -1.3890373 234 88 12
1.065568 0.3686901 -1.4001905 234 88 12
1.0670602 0.39453974 -1.4009526 234 88 12
1.0646379 0.40514642 -1.3949862 234 88 12
1.0663798 0.41895577 -1.397348 234 88 12
1.0654089 0.42405677 -1.3948804 234 88 12
1.065081 0.43238643 -1.3934524 234 88 12
1.0586965 0.37269923 -1.3942525 234 88 12
1.0634619 0.3755641 -1.4037638 234 88 12
1.0605084 0.38263676 -1.3970805 234 88 12
1.060622 0.39831817 -1.3959159 234 88 12
1.0657548 0.3965483 -1.4065932 234 88 12
1.0618728 0.43256545 -1.3954278 234 88 12
1.0734754 0.34672511 -1.4350641 234 88 12
1.0549378 0.369481 -1.3954228 234 88 12
1.0546761 0.38163352 -1.3938189 234 88 12
1.0564491 0.3837201 -1.397234 234 88 12
1.0566133 0.38749844 -1.397234 234 88 12
1.057673 0.39821076 -1.3984396 234 88 12
1.0571493 0.40670905 -1.3966264 234 88 12
1.0571675 0.41462362 -1.395965 234 88 12
1.0580866 0.42547923 -1.3968724 234 88 12
1.0586988 0.43270344 -1.3974776 234 88 12
1.0637231 0.43068361 -1.4078556 234 88 12
1.0513467 0.37399459 -1.3962704 234 88 12
1.0581092 0.42586082 -1.4053349 234 88 12
1.04886 0.36552247 -1.4004657 234 88 12
1.0608962 0.36116448 -1.4248205 234 88 12
1.0490831 0.37714607 -1.3999037 234 88 12
1.0501257 0.38002011 -1.4017317 234 88 12
1.04966 0.3884114 -1.4000771 234 88 12
1.0541515 0.38758934 -1.409096 234 88 12
1.0565302 0.39285722 -1.4133782 234 88 12
1.0530008 0.41244531 -1.4046507 234 88 12
1.0596427 0.40889448 -1.4181894 234 88 12
1.0554862 0.41751695 -1.4091626 234 88 12
1.0494916 0.3618778 -1.4103613 234 88 12
1.0483482 0.37478963 -1.4069967 234 88 12
1.0468947 0.3841652 -1.4033235 234 88 12
1.0470589 0.3879438 -1.4033235 234 88 12
1.0482565 0.3985219 -1.4047793 234 88 12
1.063306 0.38615251 -1.435541 234 88 12
1.0511793 0.40322915 -1.4101436 234 88 12
1.0495933 0.42075768 -1.4055097 234 88 12
1.0705984 0.40077615 -1.448678 234 88 12
1.0499334 0.42828229 -1.4055351 234 88 12
1.0484163 0.43399823 -1.4020506 234 88 12
1.0523227 0.35997415 -1.4242631 234 88 12
1.0495878 0.3665801 -1.4183543 234 88 12
1.0614383 0.35846075 -1.4422145 234 88 12
1.0643588 0.35925817 -1.4478569 234 88 12
1.0503161 0.37750012 -1.4188498 234 88 12
1.0582162 0.37317044 -1.4346642 234 88 12
1.0554363 0.37990871 -1.4286561 234 88 12
1.0517564 0.41491255 -1.4184855 234 88 12
1.0489894 0.42982122 -1.4118081 234 88 12
1.0453979 0.43792433 -1.4040972 234 88 12
1.0403777 0.41690734 -1.4125513 234 88 12
1.0387815 0.42658481 -1.4086801 234 88 12
1.0395371 0.43366504 -1.4095393 234 88 12
1.0462545 0.42995355 -1.4227419 234 88 12
1.0406258 0.42115751 -1.4207436 234 88 12
1.0399309 0.42585447 -1.4190338 234 88 12
1.0420209 0.43134502 -1.4225543 234 88 12
1.045698 0.41610023 -1.4386768 234 88 12
