ply
format ascii 1.0
element vertex 2267
property float x
property float y
property float z
property uchar red
property uchar green
property uchar blue
end_header
-0.0081576593 0.071935721 2.3406572 234 88 12
-0.006674448 0.071935721 2.3406572 234 88 12
0.00074160536 0.071935721 2.3406572 234 88 12
0.0081576593 0.071935721 2.3406572 234 88 12
-0.017056923 0.068969302 2.3406572 234 88 12
-0.014090502 0.068969302 2.3406572 234 88 12
-0.006674448 0.068969302 2.3406572 234 88 12
0.00074160536 0.068969302 2.3406572 234 88 12
0.0081576593 0.068969302 2.3406572 234 88 12
0.015573713 0.068969302 2.3406572 234 88 12
-0.024472976 0.064519666 2.3406572 234 88 12
0.024472976 0.064519666 2.3406572 234 88 12
-0.02892261 0.061553244 2.3406572 234 88 12
-0.022989767 0.061553244 2.3406572 234 88 12
-0.014090502 0.061553244 2.3406572 234 88 12
-0.006674448 0.061553244 2.3406572 234 88 12
0.00074160536 0.061553244 2.3406572 234 88 12
0.0081576593 0.061553244 2.3406572 234 88 12
0.015573713 0.061553244 2.3406572 234 88 12
0.024472976 0.061553244 2.3406572 234 88 12
-0.031889029 0.058586825 2.3406572 234 88 12
0.031889029 0.058586825 2.3406572 234 88 12
-0.036338661 0.054137193 2.3406572 234 88 12
-0.030405819 0.054137193 2.3406572 234 88 12
-0.022989767 0.054137193 2.3406572 234 88 12
-0.014090502 0.054137193 2.3406572 234 88 12
-0.006674448 0.054137193 2.3406572 234 88 12
0.00074160536 0.054137193 2.3406572 234 88 12
0.0081576593 0.054137193 2.3406572 234 88 12
0.015573713 0.054137193 2.3406572 234 88 12
0.024472976 0.054137193 2.3406572 234 88 12
0.031889029 0.054137193 2.3406572 234 88 12
-0.0087908274 0.089164108 2.070688 234 88 12
-0.0062791626 0.089164108 2.070688 234 88 12
0.01097995 0.086619608 2.0895028 234 88 12
0.011846161 0.076461591 2.1646149 234 88 12
0.016065411 0.087741867 2.0812044 234 88 12
-0.020483701 0.083139725 2.0974152 234 88 12
-0.017659239 0.081232503 2.1119266 234 88 12
-0.015304674 0.081232503 2.1119266 234 88 12
-0.0101413 0.077749968 2.1384242 234 88 12
-0.0056247613 0.077621706 2.1394 234 88 12
-0.0011091415 0.076530762 2.1477008 234 88 12
0.0011091415 0.076530762 2.1477008 234 88 12
0.0032413916 0.074552007 2.1627564 234 88 12
0.0058387802 0.080575168 2.1169281 234 88 12
0.01097995 0.084179617 2.0895028 234 88 12
0.014947656 0.07933756 2.1263447 234 88 12
0.017453564 0.080286399 2.1191251 234 88 12
-0.039305083 0.049687561 2.3406572 234 88 12
-0.013939592 0.071842514 2.1670549 234 88 12
-0.013380127 0.081497133 2.091403 234 88 12
-0.0101413 0.075496346 2.1384242 234 88 12
-0.0091406628 0.087489203 2.0444503 234 88 12
-0.0065290453 0.087489203 2.0444503 234 88 12
-0.0037674976 0.084140778 2.070688 234 88 12
0.0078056962 0.074711666 2.1445727 234 88 12
0.012689658 0.077291556 2.1243572 234 88 12
0.017247295 0.077037923 2.1263447 234 88 12
-0.023381736 0.079990149 2.0839257 234 88 12
-0.019060995 0.072880276 2.1413517 234 88 12
-0.015794838 0.068444297 2.1771808 234 88 12
-0.01368886 0.068444297 2.1771808 234 88 12
-0.012145469 0.071768686 2.1503298 234 88 12
-0.0054531819 0.070891365 2.1574159 234 88 12
-0.0033697472 0.07301119 2.1402943 234 88 12
0.012748972 0.075334832 2.1215262 234 88 12
0.019830974 0.075824313 2.1175728 234 88 12
0.0230844 0.078972951 2.0921416 234 88 12
0.025514338 0.078972951 2.0921416 234 88 12
0.039305083 0.048204347 2.3406572 234 88 12
-0.0209205 0.077528916 2.0839257 234 88 12
-0.0056855944 0.071638495 2.1330125 234 88 12
-0.0011039745 0.069550395 2.1504133 234 88 12
0.001092096 0.068802044 2.1566496 234 88 12
0.0033016838 0.069335364 2.1522052 234 88 12
0.019996973 0.074106432 2.1124463 234 88 12
0.025514338 0.076543011 2.0921416 234 88 12
-0.042271506 0.045237929 2.3406572 234 88 12
-0.037821874 0.045237929 2.3406572 234 88 12
-0.030405819 0.045237929 2.3406572 234 88 12
-0.022989767 0.045237929 2.3406572 234 88 12
-0.014090502 0.045237929 2.3406572 234 88 12
-0.020667117 0.074158482 2.0917509 234 88 12
-0.015977932 0.064976923 2.1707723 234 88 12
-0.013879794 0.065128259 2.1694698 234 88 12
-0.011912321 0.066059232 2.1614573 234 88 12
-0.0078449203 0.068362877 2.1416309 234 88 12
-0.0055718119 0.06797611 2.1449597 234 88 12
0.0078703575 0.068584546 2.1397231 234 88 12
0.012540933 0.069545172 2.1314554 234 88 12
0.01696478 0.068990104 2.1362326 234 88 12
0.020413483 0.073248379 2.0995836 234 88 12
0.015573713 0.045237929 2.3406572 234 88 12
0.024472976 0.045237929 2.3406572 234 88 12
0.031889029 0.045237929 2.3406572 234 88 12
0.039305083 0.045237929 2.3406572 234 88 12
-0.019577973 0.067947082 2.1253862 234 88 12
-0.014239329 0.064624645 2.1549501 234 88 12
-0.0075465916 0.063606985 2.1640055 234 88 12
-0.0010968101 0.064711794 2.1541748 234 88 12
0.010325246 0.067687728 2.1276939 234 88 12
0.015156074 0.068785258 2.1179278 234 88 12
0.019927721 0.069160916 2.1145852 234 88 12
0.014090502 0.043754715 2.3406572 234 88 12
-0.016376095 0.06222916 2.1568367 234 88 12
-0.014306402 0.06272807 2.1522415 234 88 12
-0.011626923 0.060248602 2.1750786 234 88 12
0.0056676497 0.064611204 2.1348968 234 88 12
-0.018658446 0.060365558 2.1537833 234 88 12
-0.016711446 0.061275303 2.1450994 234 88 12
-0.011941237 0.059706185 2.1600773 234 88 12
-0.0097125452 0.059354443 2.1634347 234 88 12
-0.0077935229 0.061234821 2.1454859 234 88 12
-0.0055639208 0.06120313 2.1457882 234 88 12
-0.0032909748 0.060334537 2.1540794 234 88 12
0.0011104972 0.061077345 2.1469889 234 88 12
0.0078057554 0.061330933 2.1445684 234 88 12
0.016754169 0.061431952 2.143604 234 88 12
-0.018749213 0.058453426 2.1509802 234 88 12
-0.0074942764 0.056742378 2.1679292 234 88 12
-0.0010651045 0.056450538 2.1708202 234 88 12
0.0010651045 0.056450538 2.1708202 234 88 12
0.0032838504 0.058014691 2.1553261 234 88 12
0.0099576134 0.05863928 2.1491392 234 88 12
0.014996063 0.061137795 2.1243896 234 88 12
0.02236546 0.069727607 2.0393019 234 88 12
0.02499669 0.069727607 2.0393019 234 88 12
-0.045237929 0.037821874 2.3406572 234 88 12
-0.037821874 0.037821874 2.3406572 234 88 12
-0.030405819 0.037821874 2.3406572 234 88 12
-0.022989767 0.037821874 2.3406572 234 88 12
-0.023123231 0.06206762 2.0910685 234 88 12
-0.015437339 0.052486952 2.1896932 234 88 12
-0.0056400402 0.05752841 2.1377957 234 88 12
0.010264516 0.058165587 2.1312366 234 88 12
0.01632541 0.055506397 2.1586106 234 88 12
0.02236546 0.067096382 2.0393019 234 88 12
0.02499669 0.067096382 2.0393019 234 88 12
0.015573713 0.037821874 2.3406572 234 88 12
0.024472976 0.037821874 2.3406572 234 88 12
0.031889029 0.037821874 2.3406572 234 88 12
0.039305083 0.037821874 2.3406572 234 88 12
-0.023123231 0.059633598 2.0910685 234 88 12
-0.01627494 0.053164806 2.160377 234 88 12
-0.014251973 0.053718977 2.1544394 234 88 12
-0.01187252 0.05288668 2.163357 234 88 12
-0.0076116482 0.053281538 2.1591263 234 88 12
-0.0055105691 0.054003578 2.1513903 234 88 12
0.0011224325 0.054999195 2.140723 234 88 12
0.0033168143 0.054174632 2.1495576 234 88 12
0.017636925 0.057613954 2.1127076 234 88 12
0.014090502 0.036338661 2.3406572 234 88 12
-0.046721138 0.034855451 2.3406572 234 88 12
-0.014090502 0.034855451 2.3406572 234 88 12
-0.0073124482 0.049097866 2.1815665 234 88 12
-0.0057173809 0.053743381 2.1296749 234 88 12
-0.0033530323 0.05253084 2.1432192 234 88 12
0.0010883666 0.051153231 2.1586075 234 88 12
0.0056585572 0.05319044 2.1358514 234 88 12
0.0078733973 0.052864235 2.1394951 234 88 12
0.011997316 0.051261261 2.1574008 234 88 12
0.014477198 0.052340638 2.145344 234 88 12
0.018727154 0.051775072 2.1516614 234 88 12
-0.016951511 0.05085453 2.1366971 234 88 12
-0.01375243 0.047604565 2.1746135 234 88 12
-0.012159958 0.04974528 2.1496384 234 88 12
-0.0078855827 0.050693031 2.1385813 234 88 12
0.0061349496 0.055214543 2.0858302 234 88 12
0.0097542461 0.048771229 2.1610024 234 88 12
0.014749791 0.051056966 2.1343353 234 88 12
-0.015195118 0.050260775 2.1163509 234 88 12
0.0011190051 0.04811722 2.1425223 234 88 12
-0.046721138 0.030405819 2.3406572 234 88 12
-0.045237929 0.030405819 2.3406572 234 88 12
-0.037821874 0.030405819 2.3406572 234 88 12
-0.030405819 0.030405819 2.3406572 234 88 12
-0.022989767 0.030405819 2.3406572 234 88 12
-0.014090502 0.030405819 2.3406572 234 88 12
-0.006674448 0.030405819 2.3406572 234 88 12
-0.0059041744 0.04841423 2.1100616 234 88 12
-0.0010911013 0.044735152 2.1571717 234 88 12
0.001248654 0.051194813 2.0744567 234 88 12
0.0033177601 0.045342721 2.1493919 234 88 12
0.005443383 0.044635739 2.1584449 234 88 12
0.010372054 0.047250468 2.1249635 234 88 12
0.0081576593 0.030405819 2.3406572 234 88 12
0.015573713 0.030405819 2.3406572 234 88 12
0.024472976 0.030405819 2.3406572 234 88 12
0.031889029 0.030405819 2.3406572 234 88 12
0.039305083 0.030405819 2.3406572 234 88 12
-0.0010440042 0.040716164 2.1818979 234 88 12
0.0010440042 0.040716164 2.1818979 234 88 12
0.0031068614 0.040389199 2.1862993 234 88 12
0.0037080268 0.02892261 2.3406572 234 88 12
0.010372054 0.044945568 2.1249635 234 88 12
-0.012693724 0.052185308 1.9895328 234 88 12
0.046721138 0.027439399 2.3406572 234 88 12
-0.048204347 0.022989767 2.3406572 234 88 12
-0.045237929 0.022989767 2.3406572 234 88 12
-0.037821874 0.022989767 2.3406572 234 88 12
-0.030405819 0.022989767 2.3406572 234 88 12
-0.022989767 0.022989767 2.3406572 234 88 12
-0.014090502 0.022989767 2.3406572 234 88 12
-0.006674448 0.022989767 2.3406572 234 88 12
0.00074160536 0.022989767 2.3406572 234 88 12
0.0081576593 0.022989767 2.3406572 234 88 12
0.015573713 0.022989767 2.3406572 234 88 12
0.024472976 0.022989767 2.3406572 234 88 12
0.031889029 0.022989767 2.3406572 234 88 12
0.039305083 0.022989767 2.3406572 234 88 12
0.046721138 0.022989767 2.3406572 234 88 12
-0.049687561 0.014090502 2.3406572 234 88 12
-0.045237929 0.014090502 2.3406572 234 88 12
-0.037821874 0.014090502 2.3406572 234 88 12
-0.030405819 0.014090502 2.3406572 234 88 12
-0.022989767 0.014090502 2.3406572 234 88 12
-0.014090502 0.014090502 2.3406572 234 88 12
-0.006674448 0.014090502 2.3406572 234 88 12
0.00074160536 0.014090502 2.3406572 234 88 12
0.0081576593 0.014090502 2.3406572 234 88 12
0.015573713 0.014090502 2.3406572 234 88 12
0.024472976 0.014090502 2.3406572 234 88 12
0.031889029 0.014090502 2.3406572 234 88 12
0.039305083 0.014090502 2.3406572 234 88 12
0.046721138 0.014090502 2.3406572 234 88 12
-0.049687561 0.006674448 2.3406572 234 88 12
-0.045237929 0.006674448 2.3406572 234 88 12
-0.037821874 0.006674448 2.3406572 234 88 12
-0.030405819 0.006674448 2.3406572 234 88 12
-0.022989767 0.006674448 2.3406572 234 88 12
-0.014090502 0.006674448 2.3406572 234 88 12
-0.006674448 0.006674448 2.3406572 234 88 12
0.00074160536 0.006674448 2.3406572 234 88 12
0.0081576593 0.006674448 2.3406572 234 88 12
0.015573713 0.006674448 2.3406572 234 88 12
0.024472976 0.006674448 2.3406572 234 88 12
0.031889029 0.006674448 2.3406572 234 88 12
0.039305083 0.006674448 2.3406572 234 88 12
0.046721138 0.006674448 2.3406572 234 88 12
-0.048204347 -0.00074160536 2.3406572 234 88 12
-0.045237929 -0.00074160536 2.3406572 234 88 12
-0.037821874 -0.00074160536 2.3406572 234 88 12
-0.030405819 -0.00074160536 2.3406572 234 88 12
-0.022989767 -0.00074160536 2.3406572 234 88 12
-0.014090502 -0.00074160536 2.3406572 234 88 12
-0.006674448 -0.00074160536 2.3406572 234 88 12
0.00074160536 -0.00074160536 2.3406572 234 88 12
0.0081576593 -0.00074160536 2.3406572 234 88 12
0.015573713 -0.00074160536 2.3406572 234 88 12
0.024472976 -0.00074160536 2.3406572 234 88 12
0.031889029 -0.00074160536 2.3406572 234 88 12
0.039305083 -0.00074160536 2.3406572 234 88 12
-0.046721138 -0.0081576593 2.3406572 234 88 12
-0.045237929 -0.0081576593 2.3406572 234 88 12
-0.037821874 -0.0081576593 2.3406572 234 88 12
-0.030405819 -0.0081576593 2.3406572 234 88 12
-0.022989767 -0.0081576593 2.3406572 234 88 12
-0.014090502 -0.0081576593 2.3406572 234 88 12
-0.006674448 -0.0081576593 2.3406572 234 88 12
0.00074160536 -0.0081576593 2.3406572 234 88 12
0.0081576593 -0.0081576593 2.3406572 234 88 12
0.015573713 -0.0081576593 2.3406572 234 88 12
0.024472976 -0.0081576593 2.3406572 234 88 12
0.031889029 -0.0081576593 2.3406572 234 88 12
0.039305083 -0.0081576593 2.3406572 234 88 12
-0.043754715 -0.015573713 2.3406572 234 88 12
-0.037821874 -0.015573713 2.3406572 234 88 12
-0.030405819 -0.015573713 2.3406572 234 88 12
-0.022989767 -0.015573713 2.3406572 234 88 12
-0.014090502 -0.015573713 2.3406572 234 88 12
-0.006674448 -0.015573713 2.3406572 234 88 12
0.00074160536 -0.015573713 2.3406572 234 88 12
0.0081576593 -0.015573713 2.3406572 234 88 12
0.015573713 -0.015573713 2.3406572 234 88 12
0.024472976 -0.015573713 2.3406572 234 88 12
0.031889029 -0.015573713 2.3406572 234 88 12
0.039305083 -0.015573713 2.3406572 234 88 12
-0.037821874 -0.024472976 2.3406572 234 88 12
-0.030405819 -0.024472976 2.3406572 234 88 12
-0.022989767 -0.024472976 2.3406572 234 88 12
-0.014090502 -0.024472976 2.3406572 234 88 12
-0.006674448 -0.024472976 2.3406572 234 88 12
0.00074160536 -0.024472976 2.3406572 234 88 12
0.0081576593 -0.024472976 2.3406572 234 88 12
0.015573713 -0.024472976 2.3406572 234 88 12
0.024472976 -0.024472976 2.3406572 234 88 12
0.031889029 -0.024472976 2.3406572 234 88 12
-0.031889029 -0.031889029 2.3406572 234 88 12
-0.030405819 -0.031889029 2.3406572 234 88 12
-0.022989767 -0.031889029 2.3406572 234 88 12
-0.014090502 -0.031889029 2.3406572 234 88 12
-0.006674448 -0.031889029 2.3406572 234 88 12
0.00074160536 -0.031889029 2.3406572 234 88 12
0.0081576593 -0.031889029 2.3406572 234 88 12
0.015573713 -0.031889029 2.3406572 234 88 12
0.024472976 -0.031889029 2.3406572 234 88 12
-0.020023344 -0.039305083 2.3406572 234 88 12
-0.014090502 -0.039305083 2.3406572 234 88 12
-0.006674448 -0.039305083 2.3406572 234 88 12
0.00074160536 -0.039305083 2.3406572 234 88 12
0.0081576593 -0.039305083 2.3406572 234 88 12
0.015573713 -0.039305083 2.3406572 234 88 12
-1.3734574 0.078273185 1.898049 234 88 12
-1.3741227 0.091663621 1.8972448 234 88 12
-1.3744448 0.08425457 1.8972448 234 88 12
-1.3747669 0.076845512 1.8972448 234 88 12
-1.375089 0.069436461 1.8972448 234 88 12
-1.3751101 0.097645 1.8964407 234 88 12
-1.3767208 0.060599729 1.8964407 234 88 12
-1.3761619 0.10214457 1.8956366 234 88 12
-1.378288 0.053244814 1.8956366 234 88 12
-1.3785024 0.07700792 1.8948324 234 88 12
-1.3788245 0.069598868 1.8948324 234 88 12
-1.3792111 0.060708005 1.8948324 234 88 12
-1.3795332 0.05329895 1.8948324 234 88 12
-1.3783301 0.1096619 1.8940283 234 88 12
-1.378459 0.10669827 1.8940283 234 88 12
-1.3787811 0.099289224 1.8940283 234 88 12
-1.3791032 0.091880165 1.8940283 234 88 12
-1.3794253 0.084471114 1.8940283 234 88 12
-1.3795108 0.11119784 1.8932241 234 88 12
-1.3823456 0.045998167 1.8932241 234 88 12
-1.3817433 0.11723336 1.8916159 234 88 12
-1.3851579 0.038697384 1.8916159 234 88 12
-1.3862098 0.043196954 1.8908118 234 88 12
-1.3864676 0.037269711 1.8908118 234 88 12
-1.3862308 0.071405493 1.8900076 234 88 12
-1.3863597 0.068441875 1.8900076 234 88 12
-1.3866818 0.06103282 1.8900076 234 88 12
-1.387004 0.053623766 1.8900076 234 88 12
-1.3852855 0.1218412 1.8892035 234 88 12
-1.3855432 0.11591396 1.8892035 234 88 12
-1.3859297 0.10702309 1.8892035 234 88 12
-1.3862519 0.099614039 1.8892035 234 88 12
-1.386574 0.092204981 1.8892035 234 88 12
-1.3868961 0.084795929 1.8892035 234 88 12
-1.3872182 0.077386878 1.8892035 234 88 12
-1.3876048 0.068496011 1.8892035 234 88 12
-1.3879269 0.061086956 1.8892035 234 88 12
-1.3882492 0.053677902 1.8892035 234 88 12
-1.3885713 0.046268847 1.8892035 234 88 12
-1.3889577 0.037377983 1.8892035 234 88 12
-1.3864018 0.12485896 1.8883994 234 88 12
-1.3864661 0.12337714 1.8883994 234 88 12
-1.3867884 0.11596809 1.8883994 234 88 12
-1.3871748 0.10707723 1.8883994 234 88 12
-1.3917702 0.030077202 1.8875953 234 88 12
-1.3940028 0.036112718 1.8859869 234 88 12
-1.3942604 0.030185474 1.8859869 234 88 12
-1.3939594 0.065803073 1.8851829 234 88 12
-1.3941526 0.061357636 1.8851829 234 88 12
-1.3944747 0.053948585 1.8851829 234 88 12
-1.3948613 0.045057718 1.8851829 234 88 12
-1.3939804 0.094011612 1.8843787 234 88 12
-1.3940448 0.092529804 1.8843787 234 88 12
-1.394367 0.085120745 1.8843787 234 88 12
-1.3947535 0.076229885 1.8843787 234 88 12
-1.3935504 0.13259283 1.8835746 234 88 12
-1.3940014 0.12222015 1.8835746 234 88 12
-1.3943236 0.1148111 1.8835746 234 88 12
-1.3946457 0.10740204 1.8835746 234 88 12
-1.3947312 0.13412878 1.8827704 234 88 12
-1.39486 0.13116516 1.8827704 234 88 12
-1.3995631 0.022992965 1.8827704 234 88 12
-1.397157 0.13571885 1.8811622 234 88 12
-1.3973502 0.13127343 1.8811622 234 88 12
-1.3976724 0.12386438 1.8811622 234 88 12
-1.3980589 0.11497351 1.8811622 234 88 12
-1.3983811 0.10756446 1.8811622 234 88 12
-1.3987032 0.1001554 1.8811622 234 88 12
-1.3990253 0.092746347 1.8811622 234 88 12
-1.3994119 0.08385548 1.8811622 234 88 12
-1.399734 0.076446429 1.8811622 234 88 12
-1.4000561 0.06903737 1.8811622 234 88 12
-1.4003783 0.061628319 1.8811622 234 88 12
-1.4007648 0.052737456 1.8811622 234 88 12
-1.401087 0.045328401 1.8811622 234 88 12
-1.4014091 0.037919346 1.8811622 234 88 12
-1.4017313 0.030510291 1.8811622 234 88 12
-1.4020534 0.023101239 1.8811622 234 88 12
-1.4017522 0.058718834 1.8803581 234 88 12
-1.40201 0.052791592 1.8803581 234 88 12
-1.4023321 0.045382537 1.8803581 234 88 12
-1.4026543 0.037973482 1.8803581 234 88 12
-1.4017088 0.088409185 1.8795539 234 88 12
-1.4019022 0.083963752 1.8795539 234 88 12
-1.4022243 0.076554701 1.8795539 234 88 12
-1.4025464 0.069145642 1.8795539 234 88 12
-1.4017299 0.11661772 1.8787498 234 88 12
-1.4017943 0.11513592 1.8787498 234 88 12
-1.4021164 0.10772686 1.8787498 234 88 12
-1.4024386 0.10031781 1.8787498 234 88 12
-1.4020087 0.13889903 1.8779457 234 88 12
-1.4023308 0.13148998 1.8779457 234 88 12
-1.4044344 0.1404891 1.8763374 234 88 12
-1.4094597 0.024907866 1.8763374 234 88 12
-1.4095886 0.021944243 1.8763374 234 88 12
-1.4094808 0.053116407 1.8755332 234 88 12
-1.4098029 0.045707352 1.8755332 234 88 12
-1.410125 0.038298298 1.8755332 234 88 12
-1.4094374 0.082806759 1.8747292 234 88 12
-1.4096951 0.076879516 1.8747292 234 88 12
-1.4100173 0.069470465 1.8747292 234 88 12
-1.4104037 0.060579598 1.8747292 234 88 12
-1.4081055 0.14213333 1.873925 234 88 12
-1.4082344 0.13916971 1.873925 234 88 12
-1.4086208 0.13027884 1.873925 234 88 12
-1.4089431 0.12286979 1.873925 234 88 12
-1.4092652 0.11546073 1.873925 234 88 12
-1.4094584 0.1110153 1.873925 234 88 12
-1.4095873 0.10805168 1.873925 234 88 12
-1.4099094 0.10064263 1.873925 234 88 12
-1.410296 0.091751762 1.873925 234 88 12
-1.4106181 0.084342703 1.873925 234 88 12
-1.4109402 0.076933652 1.873925 234 88 12
-1.4112624 0.069524601 1.873925 234 88 12
-1.4116489 0.060633734 1.873925 234 88 12
-1.4119711 0.053224679 1.873925 234 88 12
-1.4122932 0.045815624 1.873925 234 88 12
-1.4126153 0.038406573 1.873925 234 88 12
-1.4130019 0.029515706 1.873925 234 88 12
-1.413324 0.022106653 1.873925 234 88 12
-1.4136461 0.014697599 1.873925 234 88 12
-1.4094795 0.13922384 1.8731209 234 88 12
-1.409866 0.13033298 1.8731209 234 88 12
-1.4101881 0.12292393 1.8731209 234 88 12
-1.4105958 0.1422416 1.8723167 234 88 12
-1.4171883 0.01930544 1.8715127 234 88 12
-1.4173815 0.014860007 1.8715127 234 88 12
-1.4172093 0.04751398 1.8707085 234 88 12
-1.4172738 0.046032172 1.8707085 234 88 12
-1.4175959 0.038623117 1.8707085 234 88 12
-1.4179825 0.029732252 1.8707085 234 88 12
-1.4172304 0.075722523 1.8699044 234 88 12
-1.4175525 0.068313472 1.8699044 234 88 12
-1.4178746 0.060904413 1.8699044 234 88 12
-1.3933127 0.12337095 1.7047942 234 88 12
-1.3877033 0.12512636 1.6654274 234 88 12
-1.3817929 0.12680914 1.6238965 234 88 12
-1.4173157 0.10244925 1.8691002 234 88 12
-1.4174446 0.099485628 1.8691002 234 88 12
-1.4177668 0.092076577 1.8691002 234 88 12
-1.4180889 0.084667526 1.8691002 234 88 12
-1.417208 0.13362141 1.868296 234 88 12
-1.4173368 0.13065779 1.868296 234 88 12
-1.4176589 0.12324874 1.868296 234 88 12
-1.3856236 0.14331521 1.6414182 234 88 12
-1.3840455 0.14242809 1.6296475 234 88 12
-1.3881476 0.13690615 1.657765 234 88 12
-1.3900645 0.13327438 1.6705706 234 88 12
-1.3852025 0.13484468 1.6356715 234 88 12
-1.3932598 0.12470449 1.6911213 234 88 12
-1.3818963 0.13043344 1.6102035 234 88 12
-1.3916919 0.12166158 1.6787435 234 88 12
-1.3885978 0.12154543 1.6561806 234 88 12
-1.3936583 0.1162896 1.6913593 234 88 12
-1.3895549 0.11665612 1.6616008 234 88 12
-1.3819567 0.11878951 1.6069579 234 88 12
-1.4180021 0.14404823 1.867492 234 88 12
-1.3894675 0.14811659 1.6561372 234 88 12
-1.3895639 0.1459004 1.6561372 234 88 12
-1.3818045 0.15068974 1.5998571 234 88 12
-1.3900695 0.13693708 1.6570014 234 88 12
-1.3939786 0.12964346 1.6837724 234 88 12
-1.3913585 0.12955002 1.6642147 234 88 12
-1.387048 0.13054717 1.6324109 234 88 12
-1.3997918 0.1174915 1.7231621 234 88 12
-1.3893317 0.12236201 1.6467792 234 88 12
-1.3960923 0.11594641 1.6950881 234 88 12
-1.3973382 0.11317138 1.7034739 234 88 12
-1.3856637 0.11789869 1.6179945 234 88 12
-1.3862555 0.11527985 1.6215565 234 88 12
-1.3981385 0.10673549 1.7073541 234 88 12
-1.4005941 0.10350859 1.7246108 234 88 12
-1.3835721 0.10969728 1.5997477 234 88 12
-1.3698391 0.16883887 1.4977326 234 88 12
-1.4035532 0.13462868 1.7437408 234 88 12
-1.3895621 0.14555253 1.6405631 234 88 12
-1.3856497 0.14684542 1.6111263 234 88 12
-1.3862604 0.14403918 1.6148571 234 88 12
-1.3878652 0.13818975 1.6251658 234 88 12
-1.3941445 0.12890592 1.6700188 234 88 12
-1.3907942 0.12928918 1.6445707 234 88 12
-1.3949735 0.12203712 1.6740676 234 88 12
-1.3854697 0.12626807 1.6029229 234 88 12
-1.3871192 0.120589 1.613629 234 88 12
-1.3970281 0.11039194 1.685886 234 88 12
-1.3823764 0.11380012 1.5751719 234 88 12
-1.3953997 0.10499565 1.6716644 234 88 12
-1.3909131 0.10495968 1.6374037 234 88 12
-1.3874429 0.10424554 1.6106768 234 88 12
-1.4249812 0.012221203 1.8666878 234 88 12
-1.4204924 0.1441565 1.8658837 234 88 12
-1.42075 0.13822925 1.8658837 234 88 12
-1.4210722 0.1308202 1.8658837 234 88 12
-1.4213943 0.12341115 1.8658837 234 88 12
-1.3746865 0.16903512 1.5160344 234 88 12
-1.3487164 0.19196881 1.3206868 234 88 12
-1.3994775 0.14013621 1.7001302 234 88 12
-1.3704383 0.16524595 1.4815155 234 88 12
-1.3925192 0.1425029 1.6465055 234 88 12
-1.395413 0.13779353 1.6675401 234 88 12
-1.3950921 0.13598119 1.6644136 234 88 12
-1.3936405 0.13080104 1.6512966 234 88 12
-1.3990909 0.12452516 1.691797 234 88 12
-1.3950716 0.12332173 1.6599475 234 88 12
-1.3941001 0.12185309 1.6518484 234 88 12
-1.3962868 0.11403978 1.6662967 234 88 12
-1.3923211 0.10752325 1.6330588 234 88 12
-1.3940221 0.10227391 1.6445791 234 88 12
-1.3980988 0.098344706 1.6751322 234 88 12
-1.4012752 0.094980292 1.6988348 234 88 12
-1.3724823 0.10361396 1.4765426 234 88 12
-1.4005958 0.091155499 1.6922197 234 88 12
-1.4231982 0.081920445 1.8658837 234 88 12
-1.423456 0.075993203 1.8658837 234 88 12
-1.4237781 0.068584152 1.8658837 234 88 12
-1.4241003 0.061175097 1.8658837 234 88 12
-1.4244224 0.053766042 1.8658837 234 88 12
-1.4247445 0.046356987 1.8658837 234 88 12
-1.4249378 0.041911554 1.8658837 234 88 12
-1.4251311 0.037466124 1.8658837 234 88 12
-1.4254532 0.030057069 1.8658837 234 88 12
-1.4257753 0.022648014 1.8658837 234 88 12
-1.4260975 0.015238961 1.8658837 234 88 12
-1.4182705 0.1265521 1.831117 234 88 12
-1.393862 0.14955789 1.6433856 234 88 12
-1.3804513 0.15804783 1.5387942 234 88 12
-1.3953941 0.14166369 1.6529206 234 88 12
-1.3982719 0.13693616 1.6743518 234 88 12
-1.3972074 0.13162424 1.663962 234 88 12
-1.3958464 0.11985785 1.6489445 234 88 12
-1.3855945 0.12430014 1.5682747 234 88 12
-1.3857036 0.12179284 1.5682747 234 88 12
-1.3972274 0.11252649 1.6574639 234 88 12
-1.3906798 0.1117631 1.6046873 234 88 12
-1.3799096 0.1149593 1.5194253 234 88 12
-1.3887849 0.10802264 1.5881854 234 88 12
-1.397984 0.10140274 1.6596526 234 88 12
-1.4021933 0.097428977 1.6920248 234 88 12
-1.3919861 0.09953516 1.610899 234 88 12
-1.3878391 0.09878879 1.5773808 234 88 12
-1.4037834 0.088709585 1.7017375 234 88 12
-1.4071279 0.08568994 1.7275063 234 88 12
-1.3900665 0.088396735 1.5916201 234 88 12
-1.3932581 0.085214257 1.6161067 234 88 12
-1.4249588 0.070120096 1.8650795 234 88 12
-1.4250232 0.068638287 1.8650795 234 88 12
-1.4253454 0.061229233 1.8650795 234 88 12
-1.4256675 0.053820178 1.8650795 234 88 12
-1.3859923 0.16207907 1.5663345 234 88 12
-1.380577 0.16271177 1.5220095 234 88 12
-1.3964876 0.14461538 1.6464309 234 88 12
-1.3975656 0.13508126 1.6518894 234 88 12
-1.3981572 0.12392839 1.6527671 234 88 12
-1.3949604 0.12406811 1.6265178 234 88 12
-1.3960153 0.11890006 1.6333473 234 88 12
-1.3930838 0.11854246 1.6091021 234 88 12
-1.3895799 0.11836942 1.5802144 234 88 12
-1.3851779 0.11852303 1.5440545 234 88 12
-1.3876297 0.11464328 1.5628381 234 88 12
-1.3959011 0.10333354 1.62684 234 88 12
-1.3853445 0.10576814 1.5408633 234 88 12
-1.3959253 0.09653917 1.624608 234 88 12
-1.3839827 0.098592661 1.5270934 234 88 12
-1.3850172 0.095640317 1.5345478 234 88 12
-1.3818285 0.088672169 1.5058235 234 88 12
-1.3954297 0.080615759 1.6148359 234 88 12
0.059462871 -1.3505729 1.9133275 234 88 12
0.050626144 -1.3522047 1.9125233 234 88 12
0.055071574 -1.3520114 1.9125233 234 88 12
0.062480628 -1.3516892 1.9125233 234 88 12
0.06988968 -1.3513671 1.9125233 234 88 12
0.044753034 -1.3537076 1.9117192 234 88 12
0.078888819 -1.3534708 1.910915 234 88 12
0.038934063 -1.3564554 1.910111 234 88 12
0.04782493 -1.356069 1.910111 234 88 12
0.055233981 -1.3557467 1.910111 234 88 12
0.062643036 -1.3554246 1.910111 234 88 12
0.03750639 -1.3577651 1.9093068 234 88 12
0.070106231 -1.3563477 1.9093068 234 88 12
0.077515282 -1.3560256 1.9093068 234 88 12
0.086460285 -1.3568841 1.9085027 234 88 12
0.030259743 -1.3618226 1.9068944 234 88 12
0.028832069 -1.3631321 1.9060903 234 88 12
0.031795692 -1.3630033 1.9060903 234 88 12
0.039258882 -1.3639263 1.9052862 234 88 12
0.046667937 -1.3636042 1.9052862 234 88 12
0.055558801 -1.3632176 1.9052862 234 88 12
0.025976721 -1.3657513 1.904482 234 88 12
0.031903964 -1.3654935 1.904482 234 88 12
0.039313018 -1.3651714 1.904482 234 88 12
0.046722073 -1.3648493 1.904482 234 88 12
0.055612937 -1.3644627 1.904482 234 88 12
0.063021988 -1.3641406 1.904482 234 88 12
0.070431046 -1.3638184 1.904482 234 88 12
0.077840097 -1.3634963 1.904482 234 88 12
0.085249156 -1.3631742 1.904482 234 88 12
0.091176398 -1.3629165 1.904482 234 88 12
0.094140016 -1.3627876 1.904482 234 88 12
0.094194151 -1.3640327 1.9036778 234 88 12
0.023121372 -1.3683704 1.9028738 234 88 12
0.021747833 -1.3709251 1.9012655 234 88 12
0.024711454 -1.3707962 1.9012655 234 88 12
0.032174643 -1.3717192 1.9004613 234 88 12
0.039583698 -1.3713971 1.9004613 234 88 12
0.046992753 -1.3710749 1.9004613 234 88 12
0.054401807 -1.3707528 1.9004613 234 88 12
0.063346811 -1.3716114 1.8996572 234 88 12
0.070755862 -1.3712893 1.8996572 234 88 12
0.078164913 -1.3709671 1.8996572 234 88 12
0.10187389 -1.3699363 1.8996572 234 88 12
0.085628107 -1.3718901 1.8988531 234 88 12
0.093037158 -1.371568 1.8988531 234 88 12
0.10192803 -1.3711815 1.8988531 234 88 12
0.01609127 -1.3774084 1.8972448 234 88 12
0.023500325 -1.3770863 1.8972448 234 88 12
0.032391191 -1.3766997 1.8972448 234 88 12
0.039800242 -1.3763776 1.8972448 234 88 12
0.047209296 -1.3760555 1.8972448 234 88 12
0.054618351 -1.3757334 1.8972448 234 88 12
0.062027406 -1.3754113 1.8972448 234 88 12
0.070918269 -1.3750247 1.8972448 234 88 12
0.078327328 -1.3747026 1.8972448 234 88 12
0.085736379 -1.3743804 1.8972448 234 88 12
0.09314543 -1.3740582 1.8972448 234 88 12
0.1020363 -1.3736717 1.8972448 234 88 12
0.016145406 -1.3786535 1.8964407 234 88 12
0.014717733 -1.3799632 1.8956366 234 88 12
0.023608597 -1.3795766 1.8956366 234 88 12
0.031017652 -1.3792545 1.8956366 234 88 12
0.039908517 -1.3788679 1.8956366 234 88 12
0.047317568 -1.3785458 1.8956366 234 88 12
0.054780759 -1.3794688 1.8948324 234 88 12
0.062189814 -1.3791466 1.8948324 234 88 12
0.071080677 -1.3787601 1.8948324 234 88 12
0.078543872 -1.379683 1.8940283 234 88 12
0.085952923 -1.3793609 1.8940283 234 88 12
0.093361974 -1.3790388 1.8940283 234 88 12
0.10077103 -1.3787167 1.8940283 234 88 12
0.012024792 -1.3863176 1.8916159 234 88 12
0.01652436 -1.3873695 1.8908118 234 88 12
0.023933414 -1.3870474 1.8908118 234 88 12
0.031342469 -1.3867252 1.8908118 234 88 12
0.038751524 -1.3864031 1.8908118 234 88 12
0.10987844 -1.3833107 1.8908118 234 88 12
0.047696523 -1.3872616 1.8900076 234 88 12
0.055105578 -1.3869395 1.8900076 234 88 12
0.062514633 -1.3866174 1.8900076 234 88 12
0.069923684 -1.3862953 1.8900076 234 88 12
0.010705389 -1.3901175 1.8892035 234 88 12
0.016632633 -1.3898598 1.8892035 234 88 12
0.024041686 -1.3895376 1.8892035 234 88 12
0.031450741 -1.3892155 1.8892035 234 88 12
0.038859796 -1.3888934 1.8892035 234 88 12
0.047750659 -1.3885068 1.8892035 234 88 12
0.055159714 -1.3881847 1.8892035 234 88 12
0.062568769 -1.3878626 1.8892035 234 88 12
0.06997782 -1.3875405 1.8892035 234 88 12
0.078868687 -1.3871539 1.8892035 234 88 12
0.086277738 -1.3868318 1.8892035 234 88 12
0.093686797 -1.3865095 1.8892035 234 88 12
0.10109585 -1.3861874 1.8892035 234 88 12
0.1085049 -1.3858653 1.8892035 234 88 12
0.10114998 -1.3874326 1.8883994 234 88 12
0.10855904 -1.3871105 1.8883994 234 88 12
0.0079583125 -1.3952268 1.8859869 234 88 12
0.016849177 -1.3948402 1.8859869 234 88 12
0.024258232 -1.3945181 1.8859869 234 88 12
0.031667285 -1.394196 1.8859869 234 88 12
0.039130475 -1.3951191 1.8851829 234 88 12
0.04653953 -1.3947968 1.8851829 234 88 12
0.055430394 -1.3944104 1.8851829 234 88 12
0.062839448 -1.3940881 1.8851829 234 88 12
0.070302635 -1.3950112 1.8843787 234 88 12
0.077711694 -1.3946891 1.8843787 234 88 12
0.086602561 -1.3943025 1.8843787 234 88 12
0.094011612 -1.3939804 1.8843787 234 88 12
0.1014748 -1.3949034 1.8835746 234 88 12
0.10888386 -1.3945812 1.8835746 234 88 12
0.0067471829 -1.4015169 1.8819664 234 88 12
0.0068013188 -1.4027621 1.8811622 234 88 12
0.0082831299 -1.4026977 1.8811622 234 88 12
0.015692184 -1.4023755 1.8811622 234 88 12
0.024583049 -1.401989 1.8811622 234 88 12
0.031992104 -1.4016669 1.8811622 234 88 12
0.039401155 -1.4013447 1.8811622 234 88 12
0.04681021 -1.4010226 1.8811622 234 88 12
0.054219265 -1.4007004 1.8811622 234 88 12
0.063110128 -1.4003139 1.8811622 234 88 12
0.070519187 -1.3999918 1.8811622 234 88 12
0.077928238 -1.3996696 1.8811622 234 88 12
0.085337289 -1.3993474 1.8811622 234 88 12
0.094228156 -1.3989609 1.8811622 234 88 12
0.10163721 -1.3986387 1.8811622 234 88 12
0.10904627 -1.3983166 1.8811622 234 88 12
0.03204624 -1.4029119 1.8803581 234 88 12
0.039455295 -1.4025898 1.8803581 234 88 12
0.046864346 -1.4022677 1.8803581 234 88 12
0.0542734 -1.4019456 1.8803581 234 88 12
0.0632184 -1.4028041 1.8795539 234 88 12
0.070627458 -1.402482 1.8795539 234 88 12
0.078036509 -1.4021598 1.8795539 234 88 12
0.085445561 -1.4018377 1.8795539 234 88 12
0.094390564 -1.4026963 1.8787498 234 88 12
0.10179962 -1.4023741 1.8787498 234 88 12
0.10920867 -1.402052 1.8787498 234 88 12
0.0056443252 -1.4102973 1.8763374 234 88 12
0.0086079473 -1.4101684 1.8763374 234 88 12
0.016017001 -1.4098463 1.8763374 234 88 12
0.023426056 -1.4095242 1.8763374 234 88 12
0.032371055 -1.4103827 1.8755332 234 88 12
0.03978011 -1.4100606 1.8755332 234 88 12
0.047189165 -1.4097385 1.8755332 234 88 12
0.054652356 -1.4106615 1.8747292 234 88 12
0.062061407 -1.4103394 1.8747292 234 88 12
0.070952274 -1.4099528 1.8747292 234 88 12
0.078361325 -1.4096307 1.8747292 234 88 12
0.0058067339 -1.4140327 1.873925 234 88 12
0.008770356 -1.4139038 1.873925 234 88 12
0.016179409 -1.4135817 1.873925 234 88 12
0.023588464 -1.4132596 1.873925 234 88 12
0.030997518 -1.4129374 1.873925 234 88 12
0.039888382 -1.4125509 1.873925 234 88 12
0.047297437 -1.4122287 1.873925 234 88 12
0.054706492 -1.4119066 1.873925 234 88 12
0.062115546 -1.4115845 1.873925 234 88 12
0.07100641 -1.4111979 1.873925 234 88 12
0.078415461 -1.4108758 1.873925 234 88 12
0.10645853 -1.3110319 1.2574662 234 88 12
0.1101151 -1.3108729 1.2574662 234 88 12
0.085824519 -1.4105537 1.873925 234 88 12
0.09323357 -1.4102316 1.873925 234 88 12
0.10212444 -1.409845 1.873925 234 88 12
0.10953349 -1.4095229 1.873925 234 88 12
0.11249711 -1.409394 1.873925 234 88 12
0.060562722 -1.3629353 1.5543003 234 88 12
0.063253164 -1.3716925 1.6109267 234 88 12
0.068661071 -1.3544929 1.5026761 234 88 12
0.071447253 -1.3543718 1.5026761 234 88 12
0.041685216 -1.34619 1.4241308 234 88 12
0.056062214 -1.3732101 1.604279 234 88 12
0.060657874 -1.3651237 1.552887 234 88 12
0.063262284 -1.3650105 1.552887 234 88 12
0.074862644 -1.3501806 1.4595356 234 88 12
0.077795133 -1.3500531 1.4595356 234 88 12
0.09345413 -1.3294345 1.3296126 234 88 12
0.10428225 -1.3122883 1.2209481 234 88 12
0.0059691425 -1.4177681 1.8715127 234 88 12
0.0089327646 -1.4176393 1.8715127 234 88 12
0.016341818 -1.4173172 1.8715127 234 88 12
0.049994092 -1.3650523 1.5333158 234 88 12
0.068960615 -1.3566676 1.4829868 234 88 12
0.090188868 -1.3324296 1.3277735 234 88 12
0.093577951 -1.3322823 1.3277735 234 88 12
0.099811435 -1.3193777 1.2436688 234 88 12
0.023805009 -1.4182401 1.8707085 234 88 12
0.031214062 -1.417918 1.8707085 234 88 12
0.040104926 -1.4175314 1.8707085 234 88 12
0.04751398 -1.4172093 1.8707085 234 88 12
0.063392751 -1.3615863 1.4969674 234 88 12
0.065964036 -1.375033 1.5892138 234 88 12
0.071238555 -1.369476 1.5529667 234 88 12
0.075842716 -1.3463348 1.3968841 234 88 12
0.078983396 -1.3461982 1.3968841 234 88 12
0.083528012 -1.3356205 1.3262614 234 88 12
0.054977171 -1.4181323 1.8699044 234 88 12
0.052404515 -1.3650945 1.5001932 234 88 12
0.053969856 -1.3498946 1.3949355 234 88 12
0.060419269 -1.4091622 1.8091534 234 88 12
0.06009572 -1.3445963 1.3599323 234 88 12
0.06349469 -1.3639309 1.4954532 234 88 12
0.071333334 -1.3716559 1.551559 234 88 12
0.075957455 -1.3489739 1.3951797 234 88 12
0.079098135 -1.3488373 1.3951797 234 88 12
0.072758898 -1.4173591 1.8699044 234 88 12
0.054084629 -1.3525344 1.3932307 234 88 12
0.06363675 -1.3727722 1.5401741 234 88 12
0.065403983 -1.4189265 1.8691002 234 88 12
0.071351349 -1.3749635 1.5581508 234 88 12
0.078740284 -1.4183466 1.8691002 234 88 12
0.086149335 -1.4180244 1.8691002 234 88 12
0.093558386 -1.4177023 1.8691002 234 88 12
0.10096744 -1.4173802 1.8691002 234 88 12
0.060334202 -1.3500813 1.3563899 234 88 12
0.10843063 -1.4183033 1.868296 234 88 12
0.0077757705 -1.4251745 1.8666878 234 88 12
0.0078299064 -1.4264196 1.8658837 234 88 12
0.016720772 -1.426033 1.8658837 234 88 12
0.024129827 -1.4257109 1.8658837 234 88 12
0.031538881 -1.4253888 1.8658837 234 88 12
0.038947932 -1.4250666 1.8658837 234 88 12
0.043393366 -1.4248734 1.8658837 234 88 12
0.0478388 -1.4246801 1.8658837 234 88 12
0.055247854 -1.4243579 1.8658837 234 88 12
0.062656909 -1.4240358 1.8658837 234 88 12
0.07006596 -1.4237137 1.8658837 234 88 12
0.077475011 -1.4233916 1.8658837 234 88 12
0.086365879 -1.423005 1.8658837 234 88 12
0.093774937 -1.4226829 1.8658837 234 88 12
0.10118399 -1.4223608 1.8658837 234 88 12
0.10859304 -1.4220386 1.8658837 234 88 12
0.047892936 -1.4259253 1.8650795 234 88 12
0.05530199 -1.425603 1.8650795 234 88 12
0.062711045 -1.4252809 1.8650795 234 88 12
0.070120096 -1.4249588 1.8650795 234 88 12
0.077583291 -1.4258819 1.8642755 234 88 12
0.08647415 -1.4254953 1.8642755 234 88 12
0.093883209 -1.4251732 1.8642755 234 88 12
1.159041 0.1500843 2.0302694 234 88 12
1.1583202 0.1559732 2.0302694 234 88 12
1.1616073 0.13993844 2.0295825 234 88 12
1.1587241 0.16349402 2.0295825 234 88 12
1.163633 0.13420926 2.0288956 234 88 12
1.1629121 0.14009817 2.0288956 234 88 12
1.1620111 0.14745928 2.0288956 234 88 12
1.1614705 0.15187596 2.0288956 234 88 12
1.1609299 0.15629262 2.0288956 234 88 12
1.1600289 0.16365375 2.0288956 234 88 12
1.159128 0.17101486 2.0288956 234 88 12
1.1652982 0.13142453 2.0282087 234 88 12
1.162415 0.15498011 2.0282087 234 88 12
1.1595318 0.17853568 2.0282087 234 88 12
1.1626387 0.16397317 2.0275218 234 88 12
1.1617377 0.17133428 2.0275218 234 88 12
1.1621416 0.17885512 2.0268352 234 88 12
1.1612406 0.18621624 2.0268352 234 88 12
1.1702939 0.12307034 2.0261483 234 88 12
1.1701138 0.12454256 2.0261483 234 88 12
1.1625454 0.18637595 2.0261483 234 88 12
1.1705177 0.13206339 2.0254614 234 88 12
1.1696166 0.1394245 2.0254614 234 88 12
1.1698403 0.14841756 2.0247746 234 88 12
1.1642542 0.1940565 2.0247746 234 88 12
1.1702442 0.1559384 2.0240877 234 88 12
1.1765946 0.11487585 2.023401 234 88 12
1.170648 0.16345923 2.023401 234 88 12
1.169747 0.17082034 2.023401 234 88 12
1.1780796 0.11356334 2.0227141 234 88 12
1.1777192 0.11650778 2.0227141 234 88 12
1.1701509 0.17834118 2.0227141 234 88 12
1.1781231 0.12402862 2.0220273 234 88 12
1.1705548 0.185862 2.0220273 234 88 12
1.1694735 0.19469535 2.0220273 234 88 12
1.1685725 0.20205647 2.0220273 234 88 12
1.1783468 0.13302167 2.0213404 234 88 12
1.1774458 0.1403828 2.0213404 234 88 12
1.1698774 0.20221618 2.0213404 234 88 12
1.1825348 0.10962581 2.0206535 234 88 12
1.1816338 0.11698693 2.0206535 234 88 12
1.1807328 0.12434804 2.0206535 234 88 12
1.1798319 0.13170916 2.0206535 234 88 12
1.1787506 0.14054251 2.0206535 234 88 12
1.1778497 0.14790362 2.0206535 234 88 12
1.1769487 0.15526474 2.0206535 234 88 12
1.1758674 0.16409808 2.0206535 234 88 12
1.1749665 0.1714592 2.0206535 234 88 12
1.1740655 0.17882033 2.0206535 234 88 12
1.1731645 0.18618144 2.0206535 234 88 12
1.1720833 0.19501477 2.0206535 234 88 12
1.1711823 0.2023759 2.0206535 234 88 12
1.1840199 0.1083133 2.0199668 234 88 12
1.1782535 0.15542446 2.0199668 234 88 12
1.1773525 0.16278557 2.0199668 234 88 12
1.1853248 0.10847302 2.01928 234 88 12
1.1775762 0.17177863 2.01928 234 88 12
1.1868098 0.10716051 2.0185931 234 88 12
1.1855484 0.11746607 2.0185931 234 88 12
1.1779801 0.17929946 2.0185931 234 88 12
1.1741959 0.21021616 2.0185931 234 88 12
1.1859523 0.1249869 2.0179062 234 88 12
1.1850513 0.13234802 2.0179062 234 88 12
1.1783839 0.1868203 2.0179062 234 88 12
1.177483 0.19418141 2.0179062 234 88 12
1.1854552 0.13986886 2.0172193 234 88 12
1.1778868 0.20170224 2.0172193 234 88 12
1.1858591 0.14738968 2.0165327 234 88 12
1.1782907 0.20922308 2.0165327 234 88 12
1.1862628 0.15491052 2.0158458 234 88 12
1.1851817 0.16374385 2.0158458 234 88 12
1.1938747 0.1035424 2.0151589 234 88 12
1.193154 0.1094313 2.0151589 234 88 12
1.1855856 0.17126469 2.0151589 234 88 12
1.1799994 0.21690363 2.0151589 234 88 12
1.1935577 0.11695213 2.014472 234 88 12
1.1926568 0.12431325 2.014472 234 88 12
1.1859894 0.17878552 2.014472 234 88 12
1.1850884 0.18614665 2.014472 234 88 12
1.1930606 0.13183407 2.0137851 234 88 12
1.1854923 0.19366747 2.0137851 234 88 12
1.1979696 0.10254932 2.0130985 234 88 12
1.1972487 0.10843822 2.0130985 234 88 12
1.1961675 0.11727156 2.0130985 234 88 12
1.1952665 0.12463268 2.0130985 234 88 12
1.1943655 0.1319938 2.0130985 234 88 12
1.1932843 0.14082713 2.0130985 234 88 12
1.1925635 0.14671603 2.0130985 234 88 12
1.1923833 0.14818825 2.0130985 234 88 12
1.1914823 0.15554938 2.0130985 234 88 12
1.1905813 0.16291049 2.0130985 234 88 12
1.1895001 0.17174383 2.0130985 234 88 12
1.1885991 0.17910495 2.0130985 234 88 12
1.1876981 0.18646607 2.0130985 234 88 12
1.1867971 0.19382718 2.0130985 234 88 12
1.1857159 0.20266053 2.0130985 234 88 12
1.1848149 0.21002164 2.0130985 234 88 12
1.1839139 0.21738276 2.0130985 234 88 12
1.1936882 0.14834797 2.0124116 234 88 12
1.1927872 0.15570909 2.0124116 234 88 12
1.1861198 0.21018136 2.0124116 234 88 12
1.1852188 0.21754248 2.0124116 234 88 12
1.2007594 0.10139652 2.0117247 234 88 12
1.1931911 0.16322991 2.0117247 234 88 12
1.2011633 0.10891736 2.0110378 234 88 12
1.1935949 0.17075075 2.0110378 234 88 12
1.2015672 0.11643819 2.0103509 234 88 12
1.2004859 0.12527153 2.0103509 234 88 12
1.1939988 0.17827158 2.0103509 234 88 12
1.1929176 0.18710493 2.0103509 234 88 12
1.2008898 0.13279237 2.0096643 234 88 12
1.1933215 0.19462575 2.0096643 234 88 12
1.2012937 0.14031319 2.0089774 234 88 12
1.2003927 0.14767431 2.0089774 234 88 12
1.1937253 0.20214659 2.0089774 234 88 12
1.1928244 0.2095077 2.0089774 234 88 12
1.2007966 0.15519515 2.0082905 234 88 12
1.1932282 0.21702854 2.0082905 234 88 12
1.2087687 0.10088259 2.0076036 234 88 12
1.2012004 0.16271597 2.0076036 234 88 12
1.2089925 0.10987564 2.0069168 234 88 12
1.2080915 0.11723676 2.0069168 234 88 12
1.2014241 0.17170903 2.0069168 234 88 12
1.2005231 0.17907014 2.0069168 234 88 12
1.1730541 0.20223638 1.8082849 234 88 12
1.1731251 0.21017067 1.8166896 234 88 12
1.1742609 0.21131903 1.8269807 234 88 12
1.1949369 0.22470908 2.0069168 234 88 12
1.2084954 0.1247576 2.0062301 234 88 12
1.168352 0.19991393 1.7496575 234 88 12
1.1705724 0.20088936 1.7690582 234 88 12
1.1765369 0.19953915 1.8171421 234 88 12
1.173923 0.20516174 1.8011749 234 88 12
1.1751784 0.20635389 1.8127946 234 88 12
1.1691874 0.2124508 1.769308 234 88 12
1.1716427 0.21281677 1.7900369 234 88 12
1.1734425 0.21551391 1.8076973 234 88 12
1.1741985 0.21689023 1.8153621 234 88 12
1.1753428 0.21790308 1.8258786 234 88 12
1.1719106 0.22266108 1.802249 234 88 12
1.2126833 0.10136173 2.0055432 234 88 12
1.2117823 0.10872284 2.0055432 234 88 12
1.2107012 0.11755619 2.0055432 234 88 12
1.2098001 0.12491731 2.0055432 234 88 12
1.2088991 0.13227843 2.0055432 234 88 12
1.2079982 0.13963954 2.0055432 234 88 12
1.206917 0.14847289 2.0055432 234 88 12
1.2060159 0.155834 2.0055432 234 88 12
1.205115 0.16319512 2.0055432 234 88 12
1.204214 0.17055623 2.0055432 234 88 12
1.172539 0.19245017 1.7581607 234 88 12
1.1717632 0.19504541 1.7542516 234 88 12
1.1722287 0.19701405 1.7602793 234 88 12
1.1764203 0.19688521 1.7959075 234 88 12
1.1772304 0.19847715 1.8044808 234 88 12
1.1693319 0.20527749 1.7441937 234 88 12
1.1825414 0.19916521 1.8505116 234 88 12
1.1755844 0.20962974 1.8020847 234 88 12
1.1714458 0.22293179 1.7806664 234 88 12
1.1721985 0.22432123 1.7885385 234 88 12
1.1607345 0.23641421 1.7033583 234 88 12
1.1672415 0.2327946 1.7550948 234 88 12
1.2000694 0.20441738 2.0055432 234 88 12
1.1993487 0.21030627 2.0055432 234 88 12
1.1984476 0.2176674 2.0055432 234 88 12
1.1975466 0.22502851 2.0055432 234 88 12
1.209303 0.13979925 2.0048563 234 88 12
1.208402 0.14716038 2.0048563 234 88 12
1.1692811 0.18330209 1.7000165 234 88 12
1.1872448 0.17898798 1.8532003 234 88 12
1.1844012 0.18204807 1.8315082 234 88 12
1.1750427 0.18806942 1.7557631 234 88 12
1.1782283 0.18882763 1.7845657 234 88 12
1.1796353 0.19232669 1.8006902 234 88 12
1.1831723 0.19245903 1.8319082 234 88 12
1.1833079 0.1962458 1.8371705 234 88 12
1.1882181 0.19509584 1.8790737 234 88 12
1.1749841 0.2075614 1.7762083 234 88 12
1.1785564 0.2071407 1.8071418 234 88 12
1.1791263 0.20870602 1.8138317 234 88 12
1.1774213 0.2119431 1.802334 234 88 12
1.1746111 0.21611556 1.7821308 234 88 12
1.1753359 0.21757203 1.7900647 234 88 12
1.1708387 0.22751175 1.7612423 234 88 12
1.1743903 0.22637601 1.7912244 234 88 12
1.154423 0.24691139 1.6378806 234 88 12
1.1643099 0.23993143 1.7172378 234 88 12
1.201194 0.20604932 2.0048563 234 88 12
1.2006536 0.21046598 2.0048563 234 88 12
1.2086257 0.15615343 2.0041695 234 88 12
1.1752433 0.17990547 1.7282393 234 88 12
1.1854017 0.17858952 1.8187573 234 88 12
1.1953349 0.17675027 1.9066578 234 88 12
1.1772137 0.1882882 1.7553692 234 88 12
1.1906364 0.18412082 1.8722837 234 88 12
1.1806198 0.19098878 1.7892033 234 88 12
1.1857275 0.19035937 1.8347511 234 88 12
1.1860701 0.19209796 1.8397799 234 88 12
1.1805965 0.19722216 1.7958997 234 88 12
1.1862961 0.19575882 1.8458836 234 88 12
1.17867 0.20253289 1.7843429 234 88 12
1.1838857 0.20110613 1.8299853 234 88 12
1.1800898 0.20766115 1.802881 234 88 12
1.1816844 0.21037874 1.8203298 234 88 12
1.1761308 0.21675102 1.777108 234 88 12
1.1779296 0.21929139 1.7962114 234 88 12
1.1755037 0.22541657 1.7810345 234 88 12
1.1797125 0.22350423 1.817023 234 88 12
1.1449862 0.26132169 1.5445114 234 88 12
1.2010573 0.21798682 2.0041695 234 88 12
1.2165979 0.10184087 2.0034826 234 88 12
1.1766458 0.16587508 1.7035742 234 88 12
1.2090296 0.16367427 2.0034826 234 88 12
1.1799077 0.17473698 1.7441653 234 88 12
1.1891409 0.17414562 1.8297163 234 88 12
1.1803027 0.17917961 1.7529329 234 88 12
1.1848192 0.18184114 1.798154 234 88 12
1.1801823 0.1859322 1.7595273 234 88 12
1.1729089 0.1915012 1.6979687 234 88 12
1.1871521 0.18689167 1.8257132 234 88 12
1.1751456 0.19511586 1.7229882 234 88 12
1.1806108 0.19440866 1.7732176 234 88 12
1.1858131 0.19548441 1.8230305 234 88 12
1.1814207 0.20431586 1.792106 234 88 12
1.1846179 0.20404314 1.8216511 234 88 12
1.18682 0.20432261 1.8425367 234 88 12
1.1795186 0.21181624 1.7829152 234 88 12
1.1804529 0.21707028 1.7976465 234 88 12
1.1729562 0.22990625 1.7423096 234 88 12
1.1648357 0.23980084 1.6777833 234 88 12
1.1584046 0.24843504 1.6275951 234 88 12
1.1777022 0.23141766 1.7883583 234 88 12
1.2014612 0.22550765 2.0034826 234 88 12
1.2170018 0.1093617 2.0027959 234 88 12
1.2161008 0.11672282 2.0027959 234 88 12
1.1788911 0.16614988 1.7023923 234 88 12
1.1938033 0.16566977 1.8455908 234 88 12
1.1764567 0.17163391 1.685395 234 88 12
1.1778253 0.17623122 1.7040145 234 88 12
1.177516 0.17875867 1.7040145 234 88 12
1.1873749 0.17765792 1.7977628 234 88 12
1.1751008 0.18451026 1.6875175 234 88 12
1.1747843 0.18709596 1.6875175 234 88 12
1.1781008 0.19037391 1.7233591 234 88 12
1.1784331 0.19478837 1.7317708 234 88 12
1.183607 0.1941053 1.7808453 234 88 12
1.1856081 0.19701551 1.8035724 234 88 12
1.1893681 0.19654904 1.8392701 234 88 12
1.1876069 0.20344627 1.8304303 234 88 12
1.1810558 0.21037374 1.7754474 234 88 12
1.1792951 0.21591738 1.7650144 234 88 12
1.1835839 0.21433154 1.8044899 234 88 12
1.1849461 0.21507171 1.8184959 234 88 12
1.1778818 0.22747578 1.7650287 234 88 12
1.1524448 0.25460592 1.5518126 234 88 12
1.1810071 0.22836083 1.7962037 234 88 12
1.1538953 0.25844952 1.5703311 234 88 12
1.2165047 0.12424365 2.0021091 234 88 12
1.1718687 0.16523607 1.6074406 234 88 12
1.1688981 0.16855618 1.581897 234 88 12
1.1790725 0.16932204 1.6841853 234 88 12
1.178755 0.17191523 1.6841853 234 88 12
1.1863528 0.17234096 1.760391 234 88 12
1.1800654 0.17650542 1.7028354 234 88 12
1.1744614 0.1808273 1.6522794 234 88 12
1.1811097 0.18329304 1.7215136 234 88 12
1.186559 0.18325573 1.7757525 234 88 12
1.1819215 0.19207464 1.7403084 234 88 12
1.1827068 0.19386764 1.7503177 234 88 12
1.1818838 0.1965422 1.7453799 234 88 12
1.1860439 0.19822015 1.7888677 234 88 12
1.1904452 0.19916716 1.8338668 234 88 12
1.1890653 0.20206332 1.8236529 234 88 12
1.1859392 0.20834199 1.8001667 234 88 12
1.184785 0.21125644 1.7922219 234 88 12
1.182641 0.22307827 1.7852793 234 88 12
1.1608121 0.24919233 1.5996673 234 88 12
1.1782393 0.23352535 1.7541691 234 88 12
1.1544111 0.26106837 1.5503827 234 88 12
1.2169086 0.13176449 2.0014222 234 88 12
1.1744372 0.15410028 1.5919807 234 88 12
1.1960901 0.1643676 1.8280344 234 88 12
1.1762046 0.17072961 1.6311638 234 88 12
1.1903644 0.17203483 1.7787074 234 88 12
1.170827 0.18044998 1.5880141 234 88 12
1.1746372 0.18190554 1.6291085 234 88 12
1.1928172 0.17956926 1.8134826 234 88 12
1.1855546 0.18486388 1.7453293 234 88 12
1.1850374 0.18734722 1.743132 234 88 12
1.1847459 0.18972866 1.743132 234 88 12
1.1942494 0.18674868 1.8372934 234 88 12
1.1858627 0.20200551 1.7701215 234 88 12
1.1878983 0.2025965 1.7918414 234 88 12
1.1840103 0.20756358 1.758045 234 88 12
1.1890285 0.20569313 1.8073918 234 88 12
1.1872337 0.21108139 1.7956945 234 88 12
1.1857374 0.21831685 1.789402 234 88 12
1.1852723 0.2265396 1.7949808 234 88 12
1.1781107 0.23615661 1.733318 234 88 12
1.2171322 0.14075755 2.0007353 234 88 12
1.2162312 0.14811866 2.0007353 234 88 12
1.1766628 0.15732987 1.5906215 234 88 12
1.1805568 0.15988322 1.6354992 234 88 12
1.1772957 0.16299364 1.6047685 234 88 12
1.1790043 0.16825514 1.629869 234 88 12
1.1786646 0.17103072 1.629869 234 88 12
1.1926402 0.17002338 1.7776548 234 88 12
1.1744605 0.17763649 1.5936425 234 88 12
1.1734216 0.18076757 1.5866485 234 88 12
1.1894265 0.17767023 1.7533544 234 88 12
1.1817086 0.18300095 1.6779757 234 88 12
1.1903718 0.18169144 1.7686895 234 88 12
1.1775626 0.18986076 1.6427003 234 88 12
1.1887099 0.18682067 1.7576573 234 88 12
1.1823156 0.19241865 1.6967493 234 88 12
1.1864403 0.19243936 1.7407818 234 88 12
1.1826921 0.19690032 1.7066175 234 88 12
1.1850288 0.19773427 1.7326373 234 88 12
1.1888777 0.19739588 1.7732575 234 88 12
1.1884278 0.20391956 1.7769773 234 88 12
1.1879652 0.21038394 1.7804817 234 88 12
1.1881021 0.21425197 1.7869949 234 88 12
1.1858439 0.22035755 1.7708763 234 88 12
1.1896536 0.22043762 1.811625 234 88 12
1.1832701 0.23306669 1.7600119 234 88 12
1.1565979 0.26542944 1.5177158 234 88 12
1.2090232 0.2070076 2.0007353 234 88 12
1.2086629 0.20995206 2.0007353 234 88 12
1.2166351 0.15563948 2.0000484 234 88 12
1.1739691 0.16101094 1.5354691 234 88 12
1.1754602 0.16387086 1.5558306 234 88 12
1.1736132 0.16714808 1.5398396 234 88 12
1.189096 0.16699938 1.710866 234 88 12
1.1742653 0.17298302 1.5549502 234 88 12
1.1773887 0.17504852 1.5922883 234 88 12
1.1956276 0.1742433 1.7929059 234 88 12
1.182821 0.18126009 1.6607736 234 88 12
1.1776519 0.18595372 1.6099603 234 88 12
1.1797253 0.19028272 1.6387507 234 88 12
1.1982263 0.18509214 1.8363315 234 88 12
1.1909848 0.19126429 1.7646003 234 88 12
1.1909962 0.19338015 1.7675903 234 88 12
1.1916397 0.19712652 1.7797785 234 88 12
1.1935102 0.197824 1.8014086 234 88 12
1.1889365 0.20323949 1.758157 234 88 12
1.1893765 0.20910609 1.7709655 234 88 12
1.1874225 0.21492922 1.7572378 234 88 12
1.187138 0.21725339 1.7572378 234 88 12
1.1887197 0.21776581 1.7754246 234 88 12
1.1886618 0.22372843 1.782855 234 88 12
1.1953045 0.21842895 1.8491434 234 88 12
1.1860368 0.2305209 1.7630194 234 88 12
1.1649798 0.25922185 1.5689962 234 88 12
1.2090667 0.21747288 2.0000484 234 88 12
1.2081658 0.224834 2.0000484 234 88 12
1.2242469 0.10427137 1.9993616 234 88 12
1.2237064 0.10868805 1.9993616 234 88 12
1.1717255 0.148543 1.458721 234 88 12
1.1774422 0.15514371 1.5336105 234 88 12
1.176175 0.15830053 1.5235008 234 88 12
1.1752399 0.1646018 1.5216206 234 88 12
1.1773256 0.17027825 1.5535349 234 88 12
1.1982281 0.16792436 1.7901447 234 88 12
1.2016485 0.17103538 1.8337743 234 88 12
1.1768383 0.18204966 1.5644779 234 88 12
1.188206 0.18274513 1.6959325 234 88 12
1.1964015 0.18125296 1.7879045 234 88 12
1.1834501 0.18992008 1.6514256 234 88 12
1.1748533 0.19711003 1.562853 234 88 12
1.1965543 0.18733276 1.7981994 234 88 12
1.1833529 0.19744641 1.6608839 234 88 12
1.1942821 0.19281328 1.7798188 234 88 12
1.1951591 0.19426958 1.7919312 234 88 12
1.186461 0.20249835 1.7036556 234 88 12
1.1959285 0.19768816 1.8055652 234 88 12
1.1940234 0.20112272 1.7885234 234 88 12
1.1934229 0.20360211 1.7851151 234 88 12
1.1932595 0.20771287 1.7890143 234 88 12
1.1896226 0.22508867 1.7716819 234 88 12
1.2007959 0.21606623 1.8872521 234 88 12
1.1835943 0.24014215 1.7236379 234 88 12
1.2241101 0.11620888 1.9986749 234 88 12
1.1770995 0.15231997 1.4906468 234 88 12
1.1793416 0.15550198 1.5220363 234 88 12
1.2005289 0.15720494 1.7772483 234 88 12
1.1877264 0.16350938 1.6337428 234 88 12
1.1758848 0.17154679 1.50423 234 88 12
1.1790271 0.17380562 1.5450094 234 88 12
1.1860837 0.17459394 1.6303314 234 88 12
1.1770892 0.18033221 1.5314224 234 88 12
1.2045925 0.17278443 1.8484652 234 88 12
1.1852852 0.18278477 1.6327655 234 88 12
1.174798 0.19017705 1.5184662 234 88 12
1.1783026 0.1914061 1.5620651 234 88 12
1.1807081 0.19293356 1.5929866 234 88 12
1.1726038 0.20021984 1.5069565 234 88 12
1.1722132 0.20341168 1.5069565 234 88 12
1.1853462 0.20284611 1.6627841 234 88 12
1.1907593 0.20342541 1.7281964 234 88 12
1.1972435 0.20227861 1.8038666 234 88 12
1.1954359 0.20969976 1.7931401 234 88 12
1.1931528 0.21385975 1.771981 234 88 12
1.1928437 0.22009414 1.7773952 234 88 12
1.186653 0.23308963 1.7225258 234 88 12
1.1947823 0.2254426 1.8083289 234 88 12
1.1865088 0.23741023 1.7271138 234 88 12
1.2266765 0.10606303 1.997988 234 88 12
1.2263161 0.10900748 1.997988 234 88 12
1.225415 0.11636859 1.997988 234 88 12
1.2243339 0.12520194 1.997988 234 88 12
1.2234329 0.13256305 1.997988 234 88 12
1.2225318 0.13992417 1.997988 234 88 12
1.2216308 0.1472853 1.997988 234 88 12
1.1784973 0.14931838 1.465642 234 88 12
1.1772541 0.15263902 1.4552544 234 88 12
1.1768419 0.15600617 1.4552544 234 88 12
1.1881353 0.15850982 1.5992473 234 88 12
1.190284 0.16108403 1.629833 234 88 12
1.1786225 0.16563094 1.4919813 234 88 12
1.1778296 0.17210878 1.4919813 234 88 12
1.1771907 0.17853716 1.4938173 234 88 12
1.1739515 0.18279655 1.4600794 234 88 12
1.1735414 0.18614687 1.4600794 234 88 12
1.197052 0.17898354 1.7410424 234 88 12
1.1994066 0.1800884 1.7719501 234 88 12
1.1782787 0.19601358 1.5338775 234 88 12
1.1872381 0.19608928 1.6452096 234 88 12
1.1876638 0.19828971 1.6538359 234 88 12
1.1883905 0.2002237 1.6657953 234 88 12
1.1885962 0.20246615 1.6717573 234 88 12
1.2021445 0.19434845 1.8276036 234 88 12
1.1942271 0.20261614 1.7418828 234 88 12
1.1942757 0.20469698 1.7456487 234 88 12
1.1964241 0.20490934 1.7726403 234 88 12
1.1964846 0.20884639 1.7793723 234 88 12
1.1962761 0.2129738 1.7830558 234 88 12
1.1943401 0.2189225 1.7680619 234 88 12
1.1930729 0.22229755 1.7574598 234 88 12
1.1925029 0.22692637 1.7574165 234 88 12
1.1961511 0.22632656 1.801793 234 88 12
1.1883589 0.24009489 1.725984 234 88 12
1.2142427 0.20764646 1.997988 234 88 12
1.2140625 0.20911868 1.997988 234 88 12
1.2129813 0.21795203 1.997988 234 88 12
1.2120804 0.22531314 1.997988 234 88 12
1.2247378 0.13272277 1.9973011 234 88 12
1.2238367 0.14008388 1.9973011 234 88 12
1.1753057 0.14935233 1.3840804 234 88 12
1.1737455 0.15295333 1.3695977 234 88 12
1.1732975 0.15661359 1.3695977 234 88 12
1.1843529 0.15933594 1.5169445 234 88 12
1.1765516 0.16341327 1.4224677 234 88 12
1.1765683 0.17018127 1.4334012 234 88 12
1.1801062 0.1726114 1.4830226 234 88 12
1.1847203 0.18305947 1.5592667 234 88 12
1.1765258 0.1896648 1.463706 234 88 12
1.1915643 0.18526356 1.6513062 234 88 12
1.1970781 0.18478623 1.7218874 234 88 12
1.1755743 0.19950381 1.4669768 234 88 12
1.1732956 0.2039818 1.4445859 234 88 12
1.1769451 0.2076678 1.4976403 234 88 12
1.1765517 0.21088172 1.4976403 234 88 12
1.1832582 0.20863509 1.5808506 234 88 12
1.1950505 0.20176663 1.7225443 234 88 12
1.1936796 0.21165858 1.7204722 234 88 12
1.1977566 0.21373066 1.7765037 234 88 12
1.1950761 0.22457884 1.7590013 234 88 12
1.1955637 0.22594234 1.7674688 234 88 12
1.1947641 0.23080149 1.7648193 234 88 12
1.1899724 0.23902851 1.7158521 234 88 12
1.1896721 0.24148181 1.7158521 234 88 12
1.2242405 0.14760472 1.9966143 234 88 12
1.1785051 0.14974393 1.3823963 234 88 12
1.1814775 0.16018674 1.4398096 234 88 12
1.1810601 0.1635967 1.4398096 234 88 12
1.1800362 0.16711639 1.4317974 234 88 12
1.1962022 0.16681306 1.6496521 234 88 12
1.1802707 0.17370181 1.4458528 234 88 12
1.1788168 0.18070237 1.4377884 234 88 12
1.1751386 0.18542157 1.3959082 234 88 12
1.1830547 0.18529485 1.5026224 234 88 12
1.1854087 0.18715897 1.5375007 234 88 12
1.1744994 0.19575858 1.4043651 234 88 12
1.1789241 0.19654326 1.4654275 234 88 12
1.2012112 0.18610281 1.7492006 234 88 12
1.1801871 0.20480253 1.4961408 234 88 12
1.1928779 0.19852571 1.6571803 234 88 12
1.1885394 0.20424642 1.6080376 234 88 12
1.184462 0.21006607 1.5625842 234 88 12
1.1773837 0.21869215 1.4812378 234 88 12
1.1856123 0.21437986 1.5852541 234 88 12
1.1852568 0.21728367 1.5852541 234 88 12
1.1933075 0.21442711 1.6892718 234 88 12
1.1967432 0.21520597 1.7369673 234 88 12
1.1981322 0.21574044 1.7566113 234 88 12
1.2016368 0.21376379 1.8006797 234 88 12
1.1965942 0.22349188 1.7486533 234 88 12
1.1967942 0.22522737 1.7542233 234 88 12
1.1933446 0.23155819 1.7180961 234 88 12
1.1942484 0.23443739 1.7350637 234 88 12
1.1965078 0.23333173 1.7637544 234 88 12
1.2168524 0.20796588 1.9966143 234 88 12
1.2166722 0.20943812 1.9966143 234 88 12
1.1784749 0.15375121 1.3413404 234 88 12
1.1780163 0.15749778 1.3413404 234 88 12
1.1898109 0.16003054 1.5123347 234 88 12
1.181394 0.16781658 1.4068975 234 88 12
1.1809633 0.17133538 1.4068975 234 88 12
1.1855848 0.17655456 1.4812067 234 88 12
1.1851857 0.17981517 1.4812067 234 88 12
1.1782963 0.18580808 1.3942461 234 88 12
1.1858832 0.18564107 1.5011336 234 88 12
1.1820525 0.19058098 1.4555614 234 88 12
1.1816425 0.1939307 1.4555614 234 88 12
1.1763022 0.20350344 1.3966727 234 88 12
1.1816732 0.20612974 1.4770861 234 88 12
1.2116195 0.18637682 1.865967 234 88 12
1.1874707 0.20740694 1.5611926 234 88 12
1.1787876 0.21736608 1.455752 234 88 12
1.1945781 0.20649078 1.6600102 234 88 12
1.1807235 0.22153734 1.4903128 234 88 12
1.1849912 0.22031137 1.5484802 234 88 12
1.1846207 0.22333825 1.5484802 234 88 12
1.1973233 0.21288498 1.7098473 234 88 12
1.1936102 0.21899585 1.6679602 234 88 12
1.1910504 0.22641209 1.6446232 234 88 12
1.2006594 0.21933506 1.7681267 234 88 12
1.2024337 0.21903636 1.7926747 234 88 12
1.2015045 0.22391537 1.7879845 234 88 12
1.2012359 0.22611009 1.7879845 234 88 12
1.2013526 0.22777024 1.792504 234 88 12
1.1768603 0.26696876 1.5142938 234 88 12
1.2170761 0.21695894 1.9959275 234 88 12
1.2159948 0.22579229 1.9959275 234 88 12
1.2317157 0.10817411 1.9952407 234 88 12
1.2315354 0.10964634 1.9952407 234 88 12
1.1813369 0.15790422 1.3395925 234 88 12
1.1831216 0.16140628 1.3723558 234 88 12
1.1826769 0.1650392 1.3723558 234 88 12
1.1857462 0.17129071 1.4291176 234 88 12
1.184204 0.17506786 1.4131315 234 88 12
1.1847719 0.17820956 1.4272311 234 88 12
1.1802527 0.18672839 1.3757687 234 88 12
1.1883687 0.18615538 1.4948709 234 88 12
1.184333 0.19131282 1.444474 234 88 12
1.1839188 0.19469558 1.444474 234 88 12
1.1859047 0.19658139 1.4772866 234 88 12
1.1793572 0.20395263 1.393719 234 88 12
1.1886379 0.20060922 1.5250436 234 88 12
1.1817325 0.20862579 1.437349 234 88 12
1.1805401 0.21264964 1.4269888 234 88 12
1.1851302 0.21190029 1.4935776 234 88 12
1.1922704 0.211045 1.5977241 234 88 12
1.1886721 0.21701121 1.5552682 234 88 12
1.1963886 0.21193868 1.6603035 234 88 12
1.1882554 0.22526963 1.5640635 234 88 12
1.1909031 0.22487968 1.6025504 234 88 12
1.1951702 0.2223928 1.6612093 234 88 12
1.1949492 0.22490345 1.6624864 234 88 12
1.1924847 0.23016191 1.6355345 234 88 12
1.1921519 0.23288189 1.6355345 234 88 12
1.1987004 0.22664502 1.7211711 234 88 12
1.1993474 0.22780569 1.7328523 234 88 12
1.1925349 0.23914406 1.6525507 234 88 12
1.2000349 0.2326974 1.7518916 234 88 12
1.1904175 0.24881272 1.6387258 234 88 12
1.2027504 0.23236465 1.7914873 234 88 12
1.2319393 0.11716717 1.9945538 234 88 12
1.2272542 0.15544498 1.9945538 234 88 12
1.1863415 0.16180038 1.370661 234 88 12
1.1854045 0.1655179 1.3631697 234 88 12
1.1876316 0.16858006 1.4036143 234 88 12
1.1845089 0.17283562 1.3631697 234 88 12
1.1827221 0.17692786 1.3431803 234 88 12
1.1938164 0.17932034 1.5201932 234 88 12
1.1928408 0.18857057 1.5226272 234 88 12
1.1869171 0.19506255 1.4428958 234 88 12
1.1829469 0.20077989 1.3920587 234 88 12
1.1851697 0.20558798 1.4357593 234 88 12
1.1831291 0.21027915 1.412963 234 88 12
1.1809871 0.21519656 1.3890238 234 88 12
1.1972457 0.20657158 1.6253523 234 88 12
1.1811868 0.2244512 1.4097369 234 88 12
1.1812494 0.22745623 1.4164268 234 88 12
1.1839432 0.22767094 1.4587101 234 88 12
1.1957541 0.22010981 1.627924 234 88 12
1.1918181 0.22952838 1.5846598 234 88 12
1.1962175 0.22650652 1.6472989 234 88 12
1.194262 0.23126951 1.6259634 234 88 12
1.1939256 0.23401825 1.6259634 234 88 12
1.2017198 0.22572365 1.7313409 234 88 12
1.2005024 0.23139906 1.7232155 234 88 12
1.2023715 0.23063232 1.750811 234 88 12
1.2020879 0.23294869 1.750811 234 88 12
1.1928185 0.2491066 1.6374619 234 88 12
1.2323432 0.124688 1.9938669 234 88 12
1.2314422 0.13204911 1.9938669 234 88 12
1.1890063 0.16226768 1.3600296 234 88 12
1.1886475 0.16591482 1.3614627 234 88 12
1.1884196 0.17303702 1.3719965 234 88 12
1.1860263 0.1773323 1.341441 234 88 12
1.1883014 0.179977 1.3839641 234 88 12
1.1883949 0.18332012 1.3921872 234 88 12
1.18796 0.18687275 1.3921872 234 88 12
1.1851723 0.19171314 1.3562673 234 88 12
1.1847223 0.19538997 1.3562673 234 88 12
1.1853542 0.19836937 1.3725754 234 88 12
1.1890013 0.19915839 1.4338303 234 88 12
1.1828206 0.20682827 1.3480588 234 88 12
1.1866459 0.20717096 1.4113365 234 88 12
1.1896302 0.20782013 1.4614675 234 88 12
1.1837138 0.21915311 1.3873585 234 88 12
1.1891304 0.21706676 1.4718099 234 88 12
1.1842868 0.22483063 1.4081051 234 88 12
1.1855453 0.22950855 1.4380661 234 88 12
1.1865984 0.23123144 1.4587481 234 88 12
1.1861918 0.23455393 1.4587481 234 88 12
1.1914061 0.23359504 1.542148 234 88 12
1.1847433 0.24760485 1.4611849 234 88 12
1.1911032 0.24157728 1.5531785 234 88 12
1.1913999 0.24363153 1.562147 234 88 12
1.1833167 0.25785264 1.4583671 234 88 12
1.185213 0.25773117 1.4891506 234 88 12
1.2023449 0.23407266 1.7220901 234 88 12
1.1917762 0.25262055 1.5863054 234 88 12
1.1966747 0.24706149 1.6553242 234 88 12
1.2318461 0.13956995 1.9931802 234 88 12
1.1910363 0.16284171 1.3376733 234 88 12
1.189787 0.17400865 1.3397018 234 88 12
1.1911868 0.17705244 1.3703066 234 88 12
1.1937102 0.18904921 1.4392359 234 88 12
1.1876272 0.19601224 1.3489136 234 88 12
1.1865581 0.20352502 1.3463302 234 88 12
1.1918154 0.20582539 1.4419738 234 88 12
1.1872762 0.21600616 1.3851107 234 88 12
1.1864749 0.21993099 1.3795686 234 88 12
1.1889377 0.22356312 1.4297721 234 88 12
1.1882554 0.22727248 1.425831 234 88 12
1.1873276 0.23423904 1.424535 234 88 12
1.1909589 0.23538241 1.4896537 234 88 12
1.1901729 0.2418033 1.4896537 234 88 12
1.1874832 0.24824183 1.4568164 234 88 12
1.2008688 0.2359257 1.661926 234 88 12
1.2013314 0.23938842 1.6772313 234 88 12
1.2010176 0.24195133 1.6772313 234 88 12
1.2237371 0.20582001 1.9931802 234 88 12
1.2320697 0.148563 1.9924933 234 88 12
1.1966432 0.16288024 1.3770783 234 88 12
1.1943784 0.1668746 1.3446227 234 88 12
1.1939249 0.17057973 1.3446227 234 88 12
1.1930611 0.17442328 1.3374335 234 88 12
1.1922231 0.17830378 1.3307989 234 88 12
1.1918082 0.18902065 1.3471891 234 88 12
1.1940153 0.19753386 1.4065686 234 88 12
1.1952199 0.2028165 1.4403993 234 88 12
1.192198 0.21160018 1.4048233 234 88 12
1.1896572 0.22032051 1.3778936 234 88 12
1.1926855 0.23170413 1.4587013 234 88 12
1.1933992 0.2335591 1.4758959 234 88 12
1.1915871 0.24147634 1.4604876 234 88 12
1.1893446 0.24741544 1.4327904 234 88 12
1.2002772 0.23407272 1.6027437 234 88 12
1.1899602 0.25202036 1.4543424 234 88 12
1.1895269 0.25806451 1.4599444 234 88 12
1.1885498 0.26496127 1.4575133 234 88 12
1.2245014 0.21039639 1.9924933 234 88 12
1.2236004 0.21775751 1.9924933 234 88 12
1.2324736 0.15608384 1.9918065 234 88 12
1.1959605 0.17853662 1.3366138 234 88 12
1.1959602 0.18549581 1.3531374 234 88 12
1.1955773 0.189126 1.3543277 234 88 12
1.194195 0.19680308 1.3457419 234 88 12
1.1944528 0.19995317 1.3582247 234 88 12
1.1933316 0.20415993 1.3464597 234 88 12
1.1925575 0.21142507 1.3486931 234 88 12
1.19487 0.21547729 1.4031916 234 88 12
1.1944419 0.21897495 1.4031916 234 88 12
1.1920216 0.22781882 1.3772315 234 88 12
1.1891067 0.23445198 1.3364249 234 88 12
1.1892323 0.24358405 1.360552 234 88 12
1.1972907 0.23777667 1.5031273 234 88 12
1.186304 0.25691491 1.335391 234 88 12
1.2019472 0.23796092 1.5939212 234 88 12
1.1925018 0.25570828 1.4527903 234 88 12
1.1902541 0.26483139 1.4308424 234 88 12
1.2240043 0.22527835 1.9918065 234 88 12
1.2010163 0.1640479 1.333424 234 88 12
1.1999785 0.17155208 1.3309568 234 88 12
1.1989615 0.19277985 1.363655 234 88 12
1.1959751 0.21167548 1.3497252 234 88 12
1.19486 0.21926272 1.3458703 234 88 12
1.1962128 0.22088031 1.377937 234 88 12
1.1956398 0.22462097 1.375558 234 88 12
1.2001647 0.22199601 1.462479 234 88 12
1.1931676 0.23694351 1.355624 234 88 12
1.1927201 0.24059898 1.355624 234 88 12
1.1990296 0.23974994 1.4839416 234 88 12
1.2035804 0.23744515 1.5722084 234 88 12
1.1921053 0.25905165 1.3896142 234 88 12
1.1920083 0.26201037 1.395095 234 88 12
1.1915774 0.26553023 1.395095 234 88 12
1.1875814 0.2755141 1.3377355 234 88 12
1.1871265 0.27923101 1.3377355 234 88 12
1.2401289 0.115181 1.9904327 234 88 12
1.2399487 0.11665323 1.9904327 234 88 12
1.2034103 0.1719162 1.331683 234 88 12
1.2030228 0.17561847 1.3331364 234 88 12
1.2023779 0.17943825 1.329212 234 88 12
1.2040306 0.18199815 1.3727106 234 88 12
1.2015417 0.18686908 1.3308345 234 88 12
1.2021769 0.19317342 1.3619624 234 88 12
1.2017329 0.1968013 1.3619624 234 88 12
1.2003231 0.20454486 1.3517393 234 88 12
1.1996307 0.21165571 1.3556795 234 88 12
1.1966075 0.23095235 1.3410469 234 88 12
1.1961547 0.23465197 1.3410469 234 88 12
1.1964074 0.23734008 1.3539186 234 88 12
1.19596 0.24099554 1.3539186 234 88 12
1.199249 0.23891471 1.4210535 234 88 12
1.1935844 0.25065327 1.327513 234 88 12
1.2001269 0.24296102 1.4514321 234 88 12
1.1928079 0.25790894 1.3299824 234 88 12
1.1959896 0.25535247 1.3934529 234 88 12
1.2132965 0.22736382 1.7005701 234 88 12
1.2032149 0.24765395 1.532461 234 88 12
1.1941929 0.26685393 1.3848479 234 88 12
1.1952376 0.26757401 1.4099116 234 88 12
1.2412536 0.11681294 1.989746 234 88 12
1.2403525 0.12417406 1.989746 234 88 12
1.2392714 0.13300739 1.989746 234 88 12
1.238911 0.13595185 1.989746 234 88 12
1.2383704 0.14036852 1.989746 234 88 12
1.2374694 0.14772964 1.989746 234 88 12
1.2365683 0.15509075 1.989746 234 88 12
1.2075315 0.19183718 1.4061097 234 88 12
1.2036282 0.198349 1.3322303 234 88 12
1.2031723 0.2020729 1.3322303 234 88 12
1.2035695 0.20494223 1.3500304 234 88 12
1.2028654 0.21205162 1.353977 234 88 12
1.2046605 0.21600541 1.4081849 234 88 12
1.2011242 0.2235222 1.3459578 234 88 12
1.2003394 0.22765408 1.3393209 234 88 12
1.2005295 0.23344187 1.3606912 234 88 12
1.2013339 0.23802386 1.393162 234 88 12
1.2009037 0.24153911 1.393162 234 88 12
1.1986734 0.25653353 1.3837687 234 88 12
1.1988961 0.26152298 1.4035882 234 88 12
1.1983073 0.26794973 1.4082959 234 88 12
1.2306218 0.20367414 1.989746 234 88 12
1.2299011 0.20956303 1.989746 234 88 12
1.229 0.21692415 1.989746 234 88 12
1.2396753 0.14052823 1.9890591 234 88 12
1.2101322 0.16911565 1.3195922 234 88 12
1.2090803 0.18020761 1.3274515 234 88 12
1.2106078 0.19221371 1.4044904 234 88 12
1.2069287 0.19875298 1.330493 234 88 12
1.206473 0.20247689 1.330493 234 88 12
1.2087088 0.20329955 1.390555 234 88 12
1.2052358 0.21349113 1.3333485 234 88 12
1.2047813 0.21720527 1.3333485 234 88 12
1.203933 0.22759797 1.3442425 234 88 12
1.2030417 0.2319425 1.335 234 88 12
1.2025878 0.235651 1.335 234 88 12
1.2018034 0.24286006 1.3375205 234 88 12
1.2002248 0.25146604 1.3240176 234 88 12
1.2009425 0.25304121 1.347423 234 88 12
1.2019572 0.25392979 1.376303 234 88 12
1.2015207 0.25749707 1.376303 234 88 12
1.2029895 0.25725389 1.4132946 234 88 12
1.1987947 0.26842847 1.3406276 234 88 12
1.2015541 0.26538 1.4019649 234 88 12
1.1967205 0.27832094 1.3184323 234 88 12
1.2319267 0.20383385 1.9890591 234 88 12
1.2400792 0.14804906 1.9883723 234 88 12
1.2391781 0.15541019 1.9883723 234 88 12
1.2382771 0.1627713 1.9883723 234 88 12
1.2121648 0.18075627 1.3198987 234 88 12
1.2113625 0.18817165 1.3228443 234 88 12
1.2111315 0.19171742 1.3285201 234 88 12
1.2106756 0.19544211 1.3285201 234 88 12
1.2096214 0.20304722 1.3250742 234 88 12
1.2108579 0.20786496 1.3761247 234 88 12
1.2364751 0.17749353 1.9883723 234 88 12
1.2080731 0.2176082 1.3316157 234 88 12
1.2357544 0.18338242 1.9883723 234 88 12
1.207724 0.23007898 1.3645262 234 88 12
1.2082494 0.23205292 1.3859717 234 88 12
1.2171224 0.21935272 1.5905707 234 88 12
1.2060771 0.24426925 1.3670437 234 88 12
1.2056373 0.24786246 1.3670437 234 88 12
1.2064602 0.25418636 1.4116893 234 88 12
1.2020646 0.26882872 1.3389064 234 88 12
1.2026916 0.27010775 1.3608088 234 88 12
1.2325108 0.20988245 1.9883723 234 88 12
1.2316097 0.21724357 1.9883723 234 88 12
1.2395819 0.16293101 1.9876854 234 88 12
1.2112951 0.21503752 1.3165894 234 88 12
1.2366987 0.18648659 1.9876854 234 88 12
1.210448 0.24490665 1.4026287 234 88 12
1.2091399 0.2502425 1.3825674 234 88 12
1.2138247 0.24266066 1.4976388 234 88 12
1.207356 0.25935858 1.3621006 234 88 12
1.2046492 0.27082995 1.3221986 234 88 12
1.2041914 0.27457029 1.3221986 234 88 12
1.2399858 0.17045185 1.9869986 234 88 12
1.2146271 0.21544537 1.3148354 234 88 12
1.2371026 0.19400743 1.9869986 234 88 12
0.14041759 1.1655219 2.0275218 234 88 12
0.15088287 1.1655654 2.0268352 234 88 12
0.13910508 1.167007 2.0268352 234 88 12
0.13027173 1.1680881 2.0268352 234 88 12
0.15545925 1.1663296 2.0261483 234 88 12
0.13043146 1.1693929 2.0261483 234 88 12
0.14089674 1.1694365 2.0254614 234 88 12
0.13795228 1.1697968 2.0254614 234 88 12
0.12323005 1.1715988 2.0254614 234 88 12
0.15136202 1.1694798 2.0247746 234 88 12
0.16477174 1.169163 2.0240877 234 88 12
0.1618273 1.1695234 2.0240877 234 88 12
0.16640368 1.1702876 2.023401 234 88 12
0.11487585 1.1765946 2.023401 234 88 12
0.12092446 1.1771786 2.0227141 234 88 12
0.11503556 1.1778995 2.0227141 234 88 12
0.17113978 1.1723567 2.0220273 234 88 12
0.13138974 1.1772221 2.0220273 234 88 12
0.14185502 1.1772656 2.0213404 234 88 12
0.13891056 1.177626 2.0213404 234 88 12
0.17440365 1.1746061 2.0206535 234 88 12
0.16998698 1.1751467 2.0206535 234 88 12
0.16262586 1.1760477 2.0206535 234 88 12
0.15379252 1.1771289 2.0206535 234 88 12
0.1464314 1.1780299 2.0206535 234 88 12
0.13907029 1.1789309 2.0206535 234 88 12
0.13023694 1.1800121 2.0206535 234 88 12
0.12287582 1.1809131 2.0206535 234 88 12
0.1155147 1.1818141 2.0206535 234 88 12
0.10815359 1.1827151 2.0206535 234 88 12
0.16425779 1.1771723 2.0199668 234 88 12
0.16131335 1.1775328 2.0199668 234 88 12
0.17472307 1.1772158 2.01928 234 88 12
0.11141746 1.1849644 2.01928 234 88 12
0.10700079 1.1855049 2.01928 234 88 12
0.12188274 1.1850078 2.0185931 234 88 12
0.17945917 1.1792849 2.0179062 234 88 12
0.13382025 1.1848711 2.0179062 234 88 12
0.1308758 1.1852314 2.0179062 234 88 12
0.14428553 1.1849146 2.0172193 234 88 12
0.15475081 1.184958 2.0165327 234 88 12
0.16521609 1.1850015 2.0158458 234 88 12
0.16227163 1.1853619 2.0158458 234 88 12
0.10191046 1.1927501 2.0158458 234 88 12
0.17715359 1.1848648 2.0151589 234 88 12
0.11384797 1.1926134 2.0151589 234 88 12
0.10059796 1.1942351 2.0151589 234 88 12
0.18614665 1.1850884 2.014472 234 88 12
0.18467441 1.1852686 2.014472 234 88 12
0.12431325 1.1926568 2.014472 234 88 12
0.12284102 1.192837 2.014472 234 88 12
0.13477853 1.1927003 2.0137851 234 88 12
0.18793829 1.187518 2.0130985 234 88 12
0.18499385 1.1878784 2.0130985 234 88 12
0.17763272 1.1887794 2.0130985 234 88 12
0.17027161 1.1896803 2.0130985 234 88 12
0.16143827 1.1907616 2.0130985 234 88 12
0.15407714 1.1916625 2.0130985 234 88 12
0.14671603 1.1925635 2.0130985 234 88 12
0.14524381 1.1927438 2.0130985 234 88 12
0.13935491 1.1934645 2.0130985 234 88 12
0.13052157 1.1945457 2.0130985 234 88 12
0.12316045 1.1954467 2.0130985 234 88 12
0.11579934 1.1963477 2.0130985 234 88 12
0.106966 1.1974289 2.0130985 234 88 12
0.099604875 1.1983299 2.0130985 234 88 12
0.15718131 1.192607 2.0124116 234 88 12
0.15423687 1.1929674 2.0124116 234 88 12
0.16764659 1.1926504 2.0117247 234 88 12
0.10434097 1.200399 2.0117247 234 88 12
0.099924304 1.2009397 2.0117247 234 88 12
0.17811187 1.1926939 2.0110378 234 88 12
0.11480625 1.2004424 2.0110378 234 88 12
0.18857715 1.1927373 2.0103509 234 88 12
0.18563271 1.1930978 2.0103509 234 88 12
0.12527153 1.2004859 2.0103509 234 88 12
0.12379931 1.2006662 2.0103509 234 88 12
0.13720903 1.2003492 2.0096643 234 88 12
0.14767431 1.2003927 2.0089774 234 88 12
0.14620209 1.2005728 2.0089774 234 88 12
0.15813959 1.2004361 2.0082905 234 88 12
0.094833978 1.2081847 2.0082905 234 88 12
0.19363268 1.1974162 2.0076036 234 88 12
0.16860487 1.2004796 2.0076036 234 88 12
0.10529926 1.2082282 2.0076036 234 88 12
0.18054238 1.2003429 2.0069168 234 88 12
0.17759793 1.2007033 2.0069168 234 88 12
0.11723676 1.2080915 2.0069168 234 88 12
0.11576454 1.2082716 2.0069168 234 88 12
0.19100766 1.2003864 2.0062301 234 88 12
0.12770204 1.2081349 2.0062301 234 88 12
0.19558404 1.2011507 2.0055432 234 88 12
0.19263959 1.201511 2.0055432 234 88 12
0.18527848 1.202412 2.0055432 234 88 12
0.17791736 1.203313 2.0055432 234 88 12
0.16908401 1.2043942 2.0055432 234 88 12
0.1617229 1.2052952 2.0055432 234 88 12
0.15436178 1.2061962 2.0055432 234 88 12
0.14700066 1.2070972 2.0055432 234 88 12
0.13816732 1.2081784 2.0055432 234 88 12
0.13080621 1.2090794 2.0055432 234 88 12
0.12344509 1.2099804 2.0055432 234 88 12
0.11608396 1.2108814 2.0055432 234 88 12
0.10725062 1.2119626 2.0055432 234 88 12
0.099889502 1.2128636 2.0055432 234 88 12
0.1486326 1.2082219 2.0048563 234 88 12
0.14568815 1.2085823 2.0048563 234 88 12
0.15909788 1.2082653 2.0041695 234 88 12
0.097264484 1.2158337 2.0041695 234 88 12
0.092847817 1.2163743 2.0041695 234 88 12
0.17103538 1.2081286 2.0034826 234 88 12
0.16956316 1.2083088 2.0034826 234 88 12
0.10772976 1.2158772 2.0034826 234 88 12
0.18150066 1.2081721 2.0027959 234 88 12
0.11819504 1.2159206 2.0027959 234 88 12
0.11525059 1.2162811 2.0027959 234 88 12
0.19196594 1.2082155 2.0021091 234 88 12
0.12866032 1.2159641 2.0021091 234 88 12
0.19801454 1.2087996 2.0014222 234 88 12
0.1391256 1.2160076 2.0014222 234 88 12
0.1510631 1.2158709 2.0007353 234 88 12
0.14664644 1.2164115 2.0007353 234 88 12
0.16152838 1.2159142 2.0000484 234 88 12
0.09822277 1.2236629 2.0000484 234 88 12
0.092333876 1.2243836 2.0000484 234 88 12
0.17199366 1.2159578 1.9993616 234 88 12
0.16904922 1.2163181 1.9993616 234 88 12
0.10868805 1.2237064 1.9993616 234 88 12
0.10721582 1.2238865 1.9993616 234 88 12
0.18245894 1.2160013 1.9986749 234 88 12
0.11915333 1.2237498 1.9986749 234 88 12
0.19881311 1.2153239 1.997988 234 88 12
0.19439645 1.2158645 1.997988 234 88 12
0.19292422 1.2160447 1.997988 234 88 12
0.1855631 1.2169456 1.997988 234 88 12
0.17672977 1.2180269 1.997988 234 88 12
0.16936864 1.2189279 1.997988 234 88 12
0.16200753 1.2198288 1.997988 234 88 12
0.15464641 1.2207298 1.997988 234 88 12
0.14581306 1.2218111 1.997988 234 88 12
0.13845195 1.222712 1.997988 234 88 12
0.13109083 1.223613 1.997988 234 88 12
0.12372971 1.224514 1.997988 234 88 12
0.11489637 1.2255952 1.997988 234 88 12
0.10753525 1.2264962 1.997988 234 88 12
0.10017414 1.2273972 1.997988 234 88 12
0.092813015 1.2282982 1.997988 234 88 12
0.14155611 1.2236565 1.9973011 234 88 12
0.13861166 1.2240169 1.9973011 234 88 12
0.15202139 1.2236999 1.9966143 234 88 12
0.14351359 1.2137425 1.8480525 234 88 12
0.14050898 1.210549 1.7999495 234 88 12
0.13835233 1.210813 1.7999495 234 88 12
0.13260391 1.2020428 1.6719857 234 88 12
0.13000193 1.2023612 1.6719857 234 88 12
0.12647398 1.2008359 1.6455506 234 88 12
0.12378 1.2011657 1.6455506 234 88 12
0.12938613 1.2151141 1.8432226 234 88 12
0.10900147 1.1876844 1.4390247 234 88 12
0.16248667 1.2237434 1.9959275 234 88 12
0.16532646 1.1942472 1.5841625 234 88 12
0.16014706 1.2101232 1.7994769 234 88 12
0.15952069 1.1949579 1.5841625 234 88 12
0.15575089 1.2123531 1.8233758 234 88 12
0.15371595 1.1951677 1.5770881 234 88 12
0.14864387 1.2039387 1.6922233 234 88 12
0.14769807 1.2149525 1.8461717 234 88 12
0.14448038 1.209038 1.757059 234 88 12
0.14355065 1.2147928 1.8367461 234 88 12
0.14148015 1.2148917 1.8345621 234 88 12
0.13919264 1.2144259 1.8240281 234 88 12
0.13782068 1.2163799 1.8492582 234 88 12
0.13005476 1.2139454 1.8014395 234 88 12
0.11906275 1.2002211 1.588557 234 88 12
0.12160081 1.208442 1.7090778 234 88 12
0.11221983 1.1995 1.56654 234 88 12
0.11685171 1.2092801 1.7127078 234 88 12
0.099181056 1.231492 1.9959275 234 88 12
0.17442417 1.2236067 1.9952407 234 88 12
0.1700075 1.2241473 1.9952407 234 88 12
0.17906907 1.1823262 1.392584 234 88 12
0.17550632 1.1827623 1.392584 234 88 12
0.16426334 1.2131722 1.8223697 234 88 12
0.16385695 1.2054092 1.706718 234 88 12
0.16303055 1.195335 1.5560929 234 88 12
0.16003498 1.1957016 1.5560929 234 88 12
0.15615503 1.2111334 1.7774974 234 88 12
0.15392423 1.2118263 1.7837125 234 88 12
0.15139309 1.2046733 1.6732414 234 88 12
0.14639062 1.2064883 1.6910441 234 88 12
0.1441299 1.217988 1.8571788 234 88 12
0.14085092 1.2139679 1.7917275 234 88 12
0.13944843 1.2163453 1.8243798 234 88 12
0.13459362 1.210017 1.7219052 234 88 12
0.13234079 1.2106615 1.7273639 234 88 12
0.13148823 1.2138287 1.7727025 234 88 12
0.12148761 1.2011288 1.5665883 234 88 12
0.12664169 1.2172804 1.8150178 234 88 12
0.11072426 1.1997942 1.5273304 234 88 12
0.10762892 1.2001731 1.5273304 234 88 12
0.099199809 1.1946507 1.4303106 234 88 12
0.087458424 1.1907659 1.35153 234 88 12
0.083753265 1.1912193 1.35153 234 88 12
0.072317705 1.1923338 1.3473067 234 88 12
0.06859789 1.1927891 1.3473067 234 88 12
0.11111856 1.2313553 1.9952407 234 88 12
0.10817411 1.2317157 1.9952407 234 88 12
0.18488945 1.2236502 1.9945538 234 88 12
0.18735243 1.1895709 1.4694797 234 88 12
0.18712121 1.1834621 1.3740792 234 88 12
0.1727739 1.2093391 1.7490374 234 88 12
0.17536047 1.1964626 1.5537932 234 88 12
0.16468647 1.2142838 1.810514 234 88 12
0.16314115 1.2120125 1.7722673 234 88 12
0.16313361 1.1992817 1.5743515 234 88 12
0.15889008 1.2106174 1.742491 234 88 12
0.15677258 1.2075202 1.6903177 234 88 12
0.15412411 1.2166032 1.8264716 234 88 12
0.15179121 1.2098964 1.7177777 234 88 12
0.14712754 1.2118087 1.7386285 234 88 12
0.14614284 1.2187525 1.8446974 234 88 12
0.14307708 1.2149169 1.7792392 234 88 12
0.1374535 1.2045842 1.6079196 234 88 12
0.13734093 1.2178211 1.8134707 234 88 12
0.1247761 1.2034042 1.565454 234 88 12
0.13134791 1.2190822 1.8216723 234 88 12
0.12813935 1.2176751 1.7936928 234 88 12
0.11575639 1.2083118 1.6245798 234 88 12
0.10866383 1.203712 1.5395817 234 88 12
0.11952418 1.2187959 1.7947247 234 88 12
0.11991061 1.221579 1.8387215 234 88 12
0.092708349 1.1985326 1.4287096 234 88 12
0.084155217 1.1945033 1.3498013 234 88 12
0.082166515 1.1963619 1.3749088 234 88 12
0.074930094 1.1972476 1.3749088 234 88 12
0.11863939 1.2317592 1.9945538 234 88 12
0.19535473 1.2236936 1.9938669 234 88 12
0.19241028 1.2240541 1.9938669 234 88 12
0.21828246 1.181074 1.3424215 234 88 12
0.21098584 1.1817914 1.3395461 234 88 12
0.20725119 1.1822485 1.3395461 234 88 12
0.20259613 1.1840353 1.3594583 234 88 12
0.19930755 1.1838987 1.3506379 234 88 12
0.19171314 1.1851723 1.3562673 234 88 12
0.18029696 1.1951501 1.4966669 234 88 12
0.17438121 1.2024094 1.6035981 234 88 12
0.1731412 1.1981715 1.5317718 234 88 12
0.17147896 1.19374 1.4559331 234 88 12
0.16561146 1.2047162 1.6237787 234 88 12
0.16105448 1.1982087 1.5081741 234 88 12
0.15747769 1.2041382 1.5980321 234 88 12
0.1543774 1.2169605 1.8016281 234 88 12
0.15203546 1.2115088 1.7077328 234 88 12
0.14807673 1.2184712 1.8137265 234 88 12
0.14598164 1.2187276 1.8137265 234 88 12
0.13920607 1.2114422 1.6809508 234 88 12
0.13918918 1.2182071 1.7916073 234 88 12
0.13389814 1.2116297 1.6733884 234 88 12
0.13505952 1.2191497 1.7987601 234 88 12
0.12873748 1.2122614 1.6733884 234 88 12
0.12797989 1.2153845 1.7229731 234 88 12
0.12313258 1.2122724 1.6623427 234 88 12
0.12398423 1.217024 1.741796 234 88 12
0.12102124 1.2165837 1.728659 234 88 12
0.10647546 1.2036787 1.4883677 234 88 12
0.11109073 1.2119735 1.6333362 234 88 12
0.097546011 1.2021261 1.4450799 234 88 12
0.074127518 1.1996243 1.3572425 234 88 12
0.21496183 1.1848313 1.3406838 234 88 12
0.20765635 1.1855587 1.3378038 234 88 12
0.20339198 1.1867399 1.3491899 234 88 12
0.1958182 1.1928817 1.4392359 234 88 12
0.1924337 1.193296 1.4392359 234 88 12
0.19211203 1.1884311 1.354552 234 88 12
0.17498952 1.2143278 1.7655404 234 88 12
0.18226549 1.1945697 1.4397395 234 88 12
0.18000853 1.19232 1.3961231 234 88 12
0.17647521 1.1927525 1.3961231 234 88 12
0.16607863 1.2150469 1.7591227 234 88 12
0.16769955 1.2002305 1.5067037 234 88 12
0.15944381 1.214465 1.7350535 234 88 12
0.15680858 1.2178762 1.7883865 234 88 12
0.15459688 1.2192901 1.8081279 234 88 12
0.14965189 1.2119327 1.6706293 234 88 12
0.14706618 1.2122492 1.6706293 234 88 12
0.14724116 1.2253734 1.8976251 234 88 12
0.13258024 1.2203885 1.7805614 234 88 12
0.11823586 1.211795 1.6018512 234 88 12
0.1154214 1.2121502 1.602037 234 88 12
0.10508455 1.2047355 1.4521542 234 88 12
0.094180681 1.2017815 1.3780984 234 88 12
0.11637301 1.2237532 1.8044063 234 88 12
0.086827204 1.2025344 1.3755589 234 88 12
0.081432581 1.2016563 1.3489945 234 88 12
0.089277066 1.2101295 1.5118867 234 88 12
0.074526034 1.2028801 1.3555286 234 88 12
0.064922296 1.2024461 1.3277366 234 88 12
0.061152898 1.2029076 1.3277366 234 88 12
0.21931572 1.1874458 1.3352319 234 88 12
0.21013211 1.1903104 1.3670399 234 88 12
0.20650423 1.1907544 1.3670399 234 88 12
0.20379287 1.1900152 1.3474659 234 88 12
0.20009753 1.1904675 1.3474659 234 88 12
0.19525589 1.192631 1.3761736 234 88 12
0.19191401 1.1926583 1.3691974 234 88 12
0.17685704 1.2134433 1.7153738 234 88 12
0.1782272 1.2062533 1.5870376 234 88 12
0.17441568 1.2086911 1.6230643 234 88 12
0.16338925 1.2197005 1.7996016 234 88 12
0.16334675 1.2104312 1.6301063 234 88 12
0.16064952 1.2106141 1.627414 234 88 12
0.15793394 1.2107974 1.6246901 234 88 12
0.15245807 1.2116166 1.627414 234 88 12
0.15047361 1.2202326 1.780436 234 88 12
0.14683481 1.2242459 1.8456417 234 88 12
0.14332822 1.2259949 1.8697622 234 88 12
0.13854586 1.2194346 1.7391702 234 88 12
0.13524027 1.217783 1.7015926 234 88 12
0.13368054 1.2197005 1.7331465 234 88 12
0.13251951 1.2218747 1.7702845 234 88 12
0.12271678 1.2115428 1.5595359 234 88 12
0.11267884 1.2075167 1.4635009 234 88 12
0.11641921 1.2184376 1.6714544 234 88 12
0.10210698 1.2081045 1.450596 234 88 12
0.10658639 1.2151191 1.588811 234 88 12
0.10650965 1.2176691 1.6352421 234 88 12
0.089151122 1.2071589 1.4043328 234 88 12
0.077197872 1.2047689 1.3339152 234 88 12
0.070882298 1.2063695 1.3490411 234 88 12
0.067192391 1.2068212 1.3490411 234 88 12
0.21598367 1.1912159 1.3334882 234 88 12
0.2068978 1.1939698 1.3653474 234 88 12
0.19909774 1.1994876 1.4538891 234 88 12
0.19995317 1.1944528 1.3582247 234 88 12
0.19442101 1.1975374 1.4049398 234 88 12
0.19092937 1.1979648 1.4049398 234 88 12
0.18380511 1.2044489 1.5138413 234 88 12
0.18453011 1.197742 1.3854176 234 88 12
0.17234923 1.2160161 1.7110864 234 88 12
0.16941051 1.2174956 1.7328166 234 88 12
0.16777274 1.2157874 1.6957806 234 88 12
0.16413257 1.2199 1.7669379 234 88 12
0.16501403 1.2071123 1.5208921 234 88 12
0.16039848 1.2161435 1.6851763 234 88 12
0.15778302 1.2172428 1.7002952 234 88 12
0.15274718 1.2136897 1.6193873 234 88 12
0.14853218 1.2225993 1.782263 234 88 12
0.14672627 1.224575 1.8163128 234 88 12
0.1423846 1.2245717 1.8059356 234 88 12
0.13900287 1.2219696 1.7474118 234 88 12
0.13846388 1.2256725 1.817984 234 88 12
0.13668828 1.2264212 1.8282965 234 88 12
0.12753364 1.2160836 1.6059585 234 88 12
0.13083032 1.2245396 1.7778716 234 88 12
0.13008685 1.2265711 1.8155259 234 88 12
0.11710858 1.2182317 1.6228775 234 88 12
0.1071475 1.2118932 1.4762238 234 88 12
0.10823563 1.2160012 1.5585215 234 88 12
0.1120657 1.2217717 1.6795928 234 88 12
0.09031412 1.2078142 1.3570921 234 88 12
0.086657837 1.2082617 1.3570921 234 88 12
0.091182083 1.2140539 1.480233 234 88 12
0.077603832 1.2080855 1.3321694 234 88 12
0.073861785 1.2085435 1.3321694 234 88 12
0.067592688 1.2100916 1.3473196 234 88 12
0.10161156 1.239141 1.9918065 234 88 12
0.10013933 1.2393212 1.9918065 234 88 12
0.21499135 1.1958706 1.3559595 234 88 12
0.20781042 1.1966282 1.3534482 234 88 12
0.20454814 1.1966188 1.3449986 234 88 12
0.20086768 1.1970567 1.3447369 234 88 12
0.19382024 1.2019203 1.4274694 234 88 12
0.18991005 1.1982242 1.3411444 234 88 12
0.18132232 1.2013993 1.3850653 234 88 12
0.17341928 1.2113658 1.5711484 234 88 12
0.17331165 1.2045681 1.4303149 234 88 12
0.16572735 1.2177649 1.6839972 234 88 12
0.16572671 1.2084109 1.4905765 234 88 12
0.16253488 1.2088015 1.4905765 234 88 12
0.15599826 1.2122844 1.5460508 234 88 12
0.15312926 1.2220587 1.7408987 234 88 12
0.15074584 1.2217443 1.7283655 234 88 12
0.14828831 1.2215159 1.7174234 234 88 12
0.14587581 1.2218112 1.7174234 234 88 12
0.14393735 1.2236382 1.7502956 234 88 12
0.14181459 1.2243769 1.7601979 234 88 12
0.14030111 1.2262704 1.7955201 234 88 12
0.1369839 1.2243823 1.7480828 234 88 12
0.13304529 1.2220628 1.6901536 234 88 12
0.13287075 1.2256528 1.763944 234 88 12
0.12927949 1.2242446 1.7257364 234 88 12
0.12621109 1.2237597 1.7079439 234 88 12
0.12796442 1.2283903 1.8081331 234 88 12
0.12229529 1.2252783 1.7294337 234 88 12
0.10350636 1.2112999 1.3928382 234 88 12
0.099978738 1.2117317 1.3928382 234 88 12
0.11865875 1.2287453 1.7919205 234 88 12
0.096395433 1.2150122 1.4516026 234 88 12
0.10904411 1.2258211 1.7071208 234 88 12
0.083297916 1.2118886 1.3538659 234 88 12
0.082250066 1.2138385 1.3915328 234 88 12
0.11207684 1.2391845 1.9911196 234 88 12
0.18584773 1.2314794 1.9904327 234 88 12
0.22051351 1.1973996 1.3303038 234 88 12
0.21677704 1.197857 1.3303038 234 88 12
0.20957322 1.2016103 1.393838 234 88 12
0.19757542 1.2007817 1.3430141 234 88 12
0.19041476 1.2058463 1.4356756 234 88 12
0.19031201 1.2015082 1.3394158 234 88 12
0.18124294 1.2105502 1.5149091 234 88 12
0.17453305 1.2173791 1.647826 234 88 12
0.17428374 1.2128371 1.5466613 234 88 12
0.16643457 1.2246207 1.7861156 234 88 12
0.16310485 1.2216039 1.7103508 234 88 12
0.16058515 1.2223052 1.719044 234 88 12
0.15593302 1.220646 1.6697384 234 88 12
0.1534057 1.2275932 1.8165978 234 88 12
0.15102994 1.2241662 1.7343409 234 88 12
0.14875951 1.2249498 1.7455329 234 88 12
0.14668915 1.226235 1.7683593 234 88 12
0.14462671 1.2270402 1.7805868 234 88 12
0.1413939 1.2247407 1.7209599 234 88 12
0.14145097 1.2300435 1.8384374 234 88 12
0.13800056 1.2277579 1.7785237 234 88 12
0.12943855 1.2227691 1.6449621 234 88 12
0.12828714 1.2248768 1.6884743 234 88 12
0.1180917 1.2204789 1.5635622 234 88 12
0.11803661 1.2233863 1.6277401 234 88 12
0.12099861 1.2283345 1.7452401 234 88 12
0.11460987 1.2255574 1.666495 234 88 12
0.10143537 1.2184956 1.4745758 234 88 12
0.092132486 1.2149605 1.3711686 234 88 12
0.079101145 1.2174014 1.3898849 234 88 12
0.07203842 1.2161597 1.3432857 234 88 12
0.068346478 1.2166115 1.3432857 234 88 12
0.083395697 1.2250214 1.5701059 234 88 12
0.11665323 1.2399487 1.9904327 234 88 12
0.20072968 1.2309822 1.989746 234 88 12
0.19778524 1.2313427 1.989746 234 88 12
0.19336857 1.2318832 1.989746 234 88 12
0.18453522 1.2329644 1.989746 234 88 12
0.21578422 1.2023485 1.3525498 234 88 12
0.20904115 1.2027115 1.3415538 234 88 12
0.18482412 1.2236508 1.7690728 234 88 12
0.20110333 1.2042054 1.353977 234 88 12
0.19009815 1.209682 1.4521936 234 88 12
0.18852179 1.2077467 1.4015774 234 88 12
0.18503538 1.2081735 1.4015774 234 88 12
0.17812669 1.2142586 1.5261928 234 88 12
0.17343551 1.2176864 1.5940645 234 88 12
0.16740958 1.2249484 1.7492386 234 88 12
0.16701092 1.2203566 1.6388669 234 88 12
0.16278718 1.225608 1.7514694 234 88 12
0.15829158 1.2256669 1.7397844 234 88 12
0.15602481 1.2252041 1.7221785 234 88 12
0.15363665 1.2252817 1.7170711 234 88 12
0.15124783 1.2257893 1.7221895 234 88 12
0.14877827 1.2255889 1.7102363 234 88 12
0.14655569 1.2267129 1.7304993 234 88 12
0.14136162 1.2261802 1.7027071 234 88 12
0.1366473 1.227102 1.7109085 234 88 12
0.13229865 1.2283255 1.7273475 234 88 12
0.13122186 1.2300491 1.765208 234 88 12
0.1217094 1.2285755 1.702467 234 88 12
0.10601462 1.2216593 1.4922825 234 88 12
0.11120845 1.2274538 1.6452199 234 88 12
0.11398189 1.2310373 1.738521 234 88 12
0.10051265 1.2250814 1.5576571 234 88 12
0.084931836 1.2188194 1.3633647 234 88 12
0.079429388 1.2183346 1.3358135 234 88 12
0.075717762 1.2187889 1.3358135 234 88 12
0.071518667 1.2190305 1.3293375 234 88 12
0.067784861 1.2194875 1.3293375 234 88 12
0.060243528 1.2203743 1.3284757 234 88 12
0.11534072 1.2414337 1.989746 234 88 12
0.1079796 1.2423347 1.989746 234 88 12
0.10061848 1.2432357 1.989746 234 88 12
0.22174072 1.2037107 1.3200971 234 88 12
0.21104072 1.2072645 1.3777866 234 88 12
0.2087981 1.2065465 1.3522743 234 88 12
0.18376431 1.2172351 1.5482626 234 88 12
0.18617037 1.2102276 1.3757021 234 88 12
0.18260103 1.2106645 1.3757021 234 88 12
0.16964883 1.2230443 1.6531781 234 88 12
0.16591756 1.2259654 1.7165259 234 88 12
0.16528116 1.221171 1.5912813 234 88 12
0.16121164 1.2261698 1.7069752 234 88 12
0.15904079 1.2250141 1.6704352 234 88 12
0.15624735 1.2276947 1.7305534 234 88 12
0.15169151 1.2302916 1.7829721 234 88 12
0.1493663 1.2296746 1.7597946 234 88 12
0.14466818 1.2297032 1.7457501 234 88 12
0.13995945 1.2300848 1.7407438 234 88 12
0.13726333 1.229794 1.7247882 234 88 12
0.13042481 1.2309639 1.7333453 234 88 12
0.13058233 1.2335653 1.8007083 234 88 12
0.12643211 1.232124 1.7505989 234 88 12
0.11882524 1.2305683 1.6866766 234 88 12
0.12085661 1.2337911 1.7759113 234 88 12
0.11000926 1.2289206 1.6165832 234 88 12
0.094484426 1.2222029 1.3950576 234 88 12
0.090981275 1.2226317 1.3950576 234 88 12
0.10418134 1.2310865 1.6539223 234 88 12
0.073814742 1.2230921 1.3528826 234 88 12
0.060648911 1.2236863 1.3267324 234 88 12
0.21389405 1.2085278 1.3316157 234 88 12
0.209194 1.2097812 1.3505718 234 88 12
0.20290178 1.2124965 1.404953 234 88 12
0.19988622 1.2125107 1.3950328 234 88 12
0.19371884 1.2124935 1.3734478 234 88 12
0.17757623 1.2273381 1.7332128 234 88 12
0.18326107 1.2175345 1.4785906 234 88 12
0.1718201 1.2294034 1.7712573 234 88 12
0.17219119 1.2212965 1.5458859 234 88 12
0.16890047 1.2223157 1.5631176 234 88 12
0.16458149 1.2262951 1.6595892 234 88 12
0.16060463 1.2312574 1.7847106 234 88 12
0.15816663 1.2328235 1.82015 234 88 12
0.15641358 1.2305512 1.7506275 234 88 12
0.1541134 1.2315594 1.7709404 234 88 12
0.14977837 1.2326478 1.7865332 234 88 12
0.14726131 1.2316067 1.7488152 234 88 12
0.14426064 1.2299953 1.6934985 234 88 12
0.14364009 1.2341589 1.8077735 234 88 12
0.14200859 1.2351898 1.8310125 234 88 12
0.13929574 1.234432 1.8005444 234 88 12
0.13528614 1.2323635 1.7289951 234 88 12
0.13436966 1.2341988 1.7771688 234 88 12
0.13277912 1.2350403 1.7952508 234 88 12
0.13005763 1.2347989 1.7791926 234 88 12
0.12492701 1.2328043 1.7058707 234 88 12
0.12372461 1.2339647 1.734197 234 88 12
0.11876182 1.2325752 1.6783711 234 88 12
0.10594491 1.2289884 1.5342366 234 88 12
0.11198776 1.2339152 1.6926532 234 88 12
0.092451259 1.2262461 1.4113978 234 88 12
0.086341999 1.2255042 1.3697523 234 88 12
0.082758047 1.2259429 1.3697523 234 88 12
0.076003365 1.2251695 1.3250179 234 88 12
0.074210428 1.2263248 1.351181 234 88 12
0.067213126 1.2273124 1.3548472 234 88 12
0.11713237 1.2438633 1.9883723 234 88 12
0.2065078 1.2130141 1.3372651 234 88 12
0.18465038 1.2269247 1.6814116 234 88 12
0.19432333 1.2154491 1.3661681 234 88 12
0.19073285 1.2158885 1.3661681 234 88 12
0.18674888 1.2167796 1.3785235 234 88 12
0.17818826 1.2197365 1.4370028 234 88 12
0.1705232 1.2271907 1.636593 234 88 12
0.16798502 1.2272671 1.6294209 234 88 12
0.16428922 1.2299298 1.697124 234 88 12
0.1618267 1.2302313 1.697124 234 88 12
0.1586735 1.2334388 1.7835522 234 88 12
0.15660925 1.2329528 1.7609254 234 88 12
0.15431693 1.2345458 1.8011292 234 88 12
0.14972128 1.2329117 1.733842 234 88 12
0.14467211 1.2325484 1.7037845 234 88 12
0.14465265 1.2375312 1.8563383 234 88 12
0.14122152 1.2353914 1.7779287 234 88 12
0.13702838 1.2361312 1.7848696 234 88 12
0.131736 1.2358211 1.7555298 234 88 12
0.1295068 1.2379824 1.8133733 234 88 12
0.12625287 1.2374817 1.7858381 234 88 12
0.12183696 1.2364398 1.7373682 234 88 12
0.11807368 1.2359606 1.7085793 234 88 12
0.10634001 1.2317002 1.5340862 234 88 12
0.10967463 1.2349457 1.6460023 234 88 12
0.09944129 1.2320766 1.5197543 234 88 12
0.080145396 1.228024 1.3232747 234 88 12
0.076408736 1.2284814 1.3232747 234 88 12
0.085406326 1.2330129 1.4958143 234 88 12
0.087991595 1.2351209 1.5700749 234 88 12
0.065007001 1.2297993 1.3208963 234 88 12
0.10256985 1.2469702 1.9876854 234 88 12
0.099625401 1.2473305 1.9876854 234 88 12
0.21432312 1.2153565 1.3348802 234 88 12
0.21041019 1.21596 1.3390963 234 88 12
0.2067333 1.21641 1.3390963 234 88 12
0.20173693 1.2178729 1.3679192 234 88 12
0.18644208 1.2279104 1.644398 234 88 12
0.19471283 1.2186314 1.364493 234 88 12
0.18784893 1.2221894 1.4565201 234 88 12
0.18665388 1.2204239 1.3917879 234 88 12
0.1831563 1.220852 1.3917879 234 88 12
0.17464876 1.2277273 1.589325 234 88 12
0.17466526 1.2239032 1.4599074 234 88 12
0.16684139 1.2321153 1.7055396 234 88 12
0.16111702 1.2349885 1.7791029 234 88 12
0.15904418 1.2348644 1.7663106 234 88 12
0.15238872 1.2359025 1.7738802 234 88 12
0.14869443 1.2387422 1.8547201 234 88 12
0.14453217 1.2337703 1.6691196 234 88 12
0.14225309 1.2384754 1.8189926 234 88 12
0.1369323 1.2377087 1.7709787 234 88 12
0.1310129 1.2390114 1.790553 234 88 12
0.12894663 1.2393202 1.7924471 234 88 12
0.11723225 1.2375848 1.6851385 234 88 12
0.10864411 1.2352368 1.570043 234 88 12
0.12015381 1.2413818 1.8258078 234 88 12
0.094934024 1.2329934 1.4372617 234 88 12
0.11021547 1.2398386 1.7323695 234 88 12
0.088045992 1.2337466 1.4342198 234 88 12
0.077848226 1.2321036 1.3363224 234 88 12
0.074161902 1.2325547 1.3363224 234 88 12
0.072466418 1.2335286 1.3622715 234 88 12
0.065413252 1.2331184 1.3191491 234 88 12
0.061668489 1.2335768 1.3191491 234 88 12
0.11450735 1.2468334 1.9869986 234 88 12
1.2266272 -1.2286129 1.579254 234 88 12
1.2319089 -1.2234069 1.579254 234 88 12
1.2393032 -1.2161186 1.579254 234 88 12
1.2403595 -1.2150774 1.579254 234 88 12
1.2231569 -1.2335436 1.5782326 234 88 12
1.2242132 -1.2325023 1.5782326 234 88 12
1.2316076 -1.225214 1.5782326 234 88 12
1.2471511 -1.2114033 1.5772113 234 88 12
1.2193853 -1.2402815 1.5761899 234 88 12
1.2521315 -1.2080045 1.5761899 234 88 12
1.254999 -1.206688 1.5751684 234 88 12
1.2314584 -1.2314014 1.574147 234 88 12
1.2546977 -1.2084951 1.574147 234 88 12
1.2153121 -1.2488265 1.5731256 234 88 12
1.2163684 -1.2477853 1.5731256 234 88 12
1.2237628 -1.2404969 1.5731256 234 88 12
1.2396077 -1.224879 1.5731256 234 88 12
1.247002 -1.2175907 1.5731256 234 88 12
1.2625456 -1.2037799 1.5721042 234 88 12
1.2136531 -1.253482 1.5710828 234 88 12
1.2168221 -1.2503583 1.5710828 234 88 12
1.2210474 -1.2461936 1.5710828 234 88 12
1.2242165 -1.24307 1.5710828 234 88 12
1.2284417 -1.2389052 1.5710828 234 88 12
1.2316108 -1.2357817 1.5710828 234 88 12
1.2368923 -1.2305757 1.5710828 234 88 12
1.2400614 -1.2274522 1.5710828 234 88 12
1.2442867 -1.2232873 1.5710828 234 88 12
1.2474557 -1.2201638 1.5710828 234 88 12
1.2527373 -1.2149578 1.5710828 234 88 12
1.2548499 -1.2128755 1.5710828 234 88 12
1.2601316 -1.2076695 1.5710828 234 88 12
1.2633007 -1.2045459 1.5710828 234 88 12
1.2122954 -1.2563303 1.5700614 234 88 12
1.246853 -1.223778 1.5690401 234 88 12
1.2626979 -1.2081602 1.5690401 234 88 12
1.2159181 -1.2557797 1.5680187 234 88 12
1.2243687 -1.2474502 1.5680187 234 88 12
1.231763 -1.2401619 1.5680187 234 88 12
1.2391573 -1.2328736 1.5680187 234 88 12
1.2550023 -1.2172557 1.5680187 234 88 12
1.2705458 -1.203445 1.5669973 234 88 12
