ply
format ascii 1.0
element vertex 2069
property float x
property float y
property float z
property uchar red
property uchar green
property uchar blue
end_header
-1.1939691 -0.54481155 1.2881057 234 88 12
-1.1982812 -0.54399192 1.285447 234 88 12
-1.1937006 -0.53856212 1.2801727 234 88 12
-1.1911111 -0.54115164 1.2801727 234 88 12
-1.3035998 -0.96542764 1.5606592 234 88 12
-1.1970119 -0.54650903 1.2815964 234 88 12
-1.1977713 -0.56218261 1.2903229 234 88 12
-1.2085513 -0.61632651 1.3247998 234 88 12
-1.1799203 -0.51838571 1.2575856 234 88 12
-1.1767644 -0.51926482 1.2563766 234 88 12
-1.3844955 -1.2924783 1.7766585 234 88 12
-1.2005892 -0.58058208 1.2972102 234 88 12
-1.2064148 -0.62649667 1.3249024 234 88 12
-1.1784375 -0.53322446 1.2600077 234 88 12
-1.2904373 -0.90582556 1.5167124 234 88 12
-1.1943337 -0.53821975 1.2665763 234 88 12
-1.1917197 -0.54083377 1.2665763 234 88 12
-1.2106316 -0.63803643 1.3292114 234 88 12
-1.2029347 -0.62024486 1.3154622 234 88 12
-1.3868155 -1.3005202 1.78101 234 88 12
-1.3957572 -1.3385954 1.8065712 234 88 12
-1.1900568 -0.52902937 1.2546117 234 88 12
-1.1913559 -0.55966401 1.2719729 234 88 12
-1.1840371 -0.55677134 1.2664213 234 88 12
-1.3017973 -0.94654876 1.5398746 234 88 12
-1.1952609 -0.53117478 1.2539082 234 88 12
-1.1892087 -0.53349078 1.251861 234 88 12
-1.1831021 -0.54841006 1.2566897 234 88 12
-1.1788424 -0.54504192 1.2525102 234 88 12
-1.3203803 -1.0212409 1.5888917 234 88 12
-1.3676691 -1.2248849 1.7274601 234 88 12
-1.2473509 -0.79441297 1.4233065 234 88 12
-1.3467423 -1.1296359 1.6617843 234 88 12
-1.3170038 -1.0107728 1.5790826 234 88 12
-1.3482592 -1.1444788 1.670889 234 88 12
-1.1940707 -0.52879775 1.2424315 234 88 12
-1.191399 -0.53146952 1.2424315 234 88 12
-1.1858276 -0.56125158 1.2559055 234 88 12
-1.3318882 -1.0648286 1.6155715 234 88 12
-1.3294429 -1.0600445 1.6115167 234 88 12
-1.343577 -1.1235318 1.655053 234 88 12
-1.1932173 -0.53328782 1.239663 234 88 12
-1.1989648 -0.56899887 1.2629163 234 88 12
-1.1893771 -0.54444355 1.2437662 234 88 12
-1.2058229 -0.63141513 1.301771 234 88 12
-1.3271483 -1.0422862 1.5982591 234 88 12
-1.3278501 -1.0510397 1.6036037 234 88 12
-1.3226717 -1.0352515 1.5917523 234 88 12
-1.3818452 -1.2819026 1.7646216 234 88 12
-1.187811 -0.54615164 1.2390543 234 88 12
-1.2074586 -0.6330508 1.2992806 234 88 12
-1.3207242 -1.0122001 1.5754369 234 88 12
-1.3003685 -0.94000119 1.5227121 234 88 12
-1.2009467 -0.55343324 1.2458621 234 88 12
-1.3174827 -1.0020872 1.5655711 234 88 12
-1.354564 -1.1677279 1.6819532 234 88 12
-1.2027308 -0.55521733 1.2431457 234 88 12
-1.1932455 -0.54375941 1.2311224 234 88 12
-1.1905727 -0.5464322 1.2311224 234 88 12
-1.350252 -1.1482279 1.6668081 234 88 12
-1.2054462 -0.56080586 1.2431693 234 88 12
-1.1983742 -0.5454672 1.2302033 234 88 12
-1.2796568 -0.85161346 1.4512198 234 88 12
-1.2341037 -0.67310601 1.3205799 234 88 12
-1.3278775 -1.0325285 1.5826993 234 88 12
-1.3084693 -0.95444351 1.5254142 234 88 12
-1.3165994 -0.99655694 1.5549364 234 88 12
-1.2624716 -0.77560711 1.393306 234 88 12
-1.2519091 -0.74194235 1.367319 234 88 12
-1.3286657 -1.0333167 1.5814992 234 88 12
-1.3423572 -1.099404 1.628739 234 88 12
-1.2260001 -0.61692464 1.2741464 234 88 12
-1.239449 -0.68558699 1.3227675 234 88 12
-1.3320998 -1.0520135 1.5925643 234 88 12
-1.3297132 -1.0475782 1.5884935 234 88 12
-1.2568092 -0.75351691 1.3695173 234 88 12
-1.3391732 -1.0751679 1.6086882 234 88 12
-1.3161529 -0.98585713 1.5411391 234 88 12
-1.2805754 -0.84939057 1.4376823 234 88 12
-1.2277081 -0.63873607 1.2792163 234 88 12
-1.3389798 -1.0717934 1.6045995 234 88 12
-1.3021957 -0.93743455 1.5008888 234 88 12
-1.233018 -0.65573859 1.2882636 234 88 12
-1.3444817 -1.0944223 1.6198214 234 88 12
-1.2434444 -0.6944961 1.3138987 234 88 12
-1.3553007 -1.1418989 1.6538578 234 88 12
-1.3223909 -1.0111901 1.55317 234 88 12
-1.3022914 -0.93119341 1.4915726 234 88 12
-1.2649024 -0.78053677 1.3758528 234 88 12
-1.2138699 -0.57787454 1.2197338 234 88 12
-1.3528819 -1.1334803 1.6455638 234 88 12
-1.2548417 -0.73318505 1.3365326 234 88 12
-1.2156512 -0.57965571 1.2170218 234 88 12
-1.2303985 -0.62331343 1.2485813 234 88 12
-1.3981473 -1.3377175 1.7993959 234 88 12
-1.3761271 -1.2369606 1.7220812 234 88 12
-1.3694565 -1.2096226 1.7006654 234 88 12
-1.2830174 -0.8358838 1.4108839 234 88 12
-1.3116237 -0.95853615 1.5034274 234 88 12
-1.3934227 -1.3156265 1.7813452 234 88 12
-1.3882397 -1.2933784 1.7638048 234 88 12
-1.3492875 -1.1183871 1.6270008 234 88 12
0.059781127 -1.4587224 2.2788925 234 88 12
0.061652228 -1.4665177 2.2847781 234 88 12
0.055302836 -1.4344542 2.2606139 234 88 12
0.058823135 -1.4512472 2.2731311 234 88 12
0.047311354 -1.4024369 2.2356219 234 88 12
0.017837996 -1.2611468 2.127594 234 88 12
0.039478838 -1.3599529 2.2031734 234 88 12
0.053789433 -1.424912 2.2528648 234 88 12
0.027416904 -1.3169256 2.1693056 234 88 12
0.023251573 -1.2949526 2.1524014 234 88 12
0.015635824 -1.2562872 2.1226461 234 88 12
0.057472903 -1.4468571 2.2694435 234 88 12
0.017650891 -1.240554 2.1107082 234 88 12
-0.014667522 -1.0658935 1.9763659 234 88 12
-0.077600665 -0.67954689 1.6794865 234 88 12
0.060697738 -1.4641486 2.2826655 234 88 12
0.012208707 -1.2462304 2.1136019 234 88 12
0.043334614 -1.3667731 2.2072642 234 88 12
-0.081093445 -0.6827507 1.6775192 234 88 12
0.011430623 -1.2385461 2.1063633 234 88 12
-0.023223765 -1.012695 1.9304396 234 88 12
-0.076667048 -0.70923644 1.6938334 234 88 12
-0.074981995 -0.67817366 1.6698544 234 88 12
0.026112087 -1.3251654 2.1730373 234 88 12
0.017899293 -1.2593679 2.1214888 234 88 12
0.017219571 -1.2459533 2.1110132 234 88 12
-0.084762044 -0.6873641 1.6722989 234 88 12
-0.081129305 -0.68720615 1.6722989 234 88 12
-0.083403744 -0.65406674 1.6463993 234 88 12
-0.073982105 -0.66464949 1.6549646 234 88 12
0.025760774 -1.3213016 2.1691432 234 88 12
0.0071713976 -1.2261159 2.0938177 234 88 12
0.0059907967 -1.2154713 2.0854247 234 88 12
0.0040136781 -1.1815628 2.0587494 234 88 12
0.043733843 -1.3749791 2.2118766 234 88 12
-0.087110706 -0.67728204 1.6599363 234 88 12
-0.062042207 -0.77539599 1.7377807 234 88 12
-0.078242466 -0.6641621 1.6499437 234 88 12
-0.07609269 -0.65459651 1.6425111 234 88 12
0.0026276805 -1.2323151 2.097152 234 88 12
0.011894987 -1.2653463 2.1235721 234 88 12
-0.002059269 -1.2032728 2.0740414 234 88 12
-0.01198082 -1.1424851 2.0256655 234 88 12
0.0012219117 -1.1948284 2.0674813 234 88 12
0.0060693468 -1.2051319 2.0757897 234 88 12
-0.067694709 -0.74608642 1.7105123 234 88 12
-0.057462033 -0.78494048 1.7415668 234 88 12
0.023954099 -1.3266031 2.1715362 234 88 12
0.037947521 -1.3675256 2.2045856 234 88 12
-0.013481821 -1.143862 2.0248201 234 88 12
-0.0049373256 -1.1613994 2.0390713 234 88 12
-0.010820379 -1.1106987 1.9985216 234 88 12
0.016204221 -1.2317601 2.0957944 234 88 12
-0.089195646 -0.67109871 1.6459867 234 88 12
-0.077493064 -0.6940217 1.6646332 234 88 12
-0.064182989 -0.74878591 1.7086737 234 88 12
-0.0018765579 -1.2255269 2.0887728 234 88 12
-0.0019981642 -1.2155409 2.080766 234 88 12
-0.018499773 -1.1437515 2.02266 234 88 12
-0.015953943 -1.1411539 2.0206671 234 88 12
-0.0067069582 -1.1677053 2.0422671 234 88 12
-0.088540621 -0.67696768 1.6461468 234 88 12
-0.073907182 -0.67446047 1.6446475 234 88 12
-0.021421898 -1.1263146 2.0065722 234 88 12
-0.011880713 -1.146104 2.0228777 234 88 12
-0.0013188613 -1.1861731 2.0555854 234 88 12
-0.0088491244 -1.1225625 2.0039854 234 88 12
0.00048304279 -1.1606863 2.03508 234 88 12
-0.093680523 -0.67241979 1.6377279 234 88 12
-0.067098893 -0.79153281 1.7347889 234 88 12
-0.082837723 -0.68974942 1.6520939 234 88 12
-0.045083657 -0.86095262 1.7915856 234 88 12
-0.043870356 -1.0174823 1.9152994 234 88 12
-0.028336411 -1.0755459 1.9630383 234 88 12
-0.019557683 -1.1060447 1.9881358 234 88 12
0.016289141 -1.2401981 2.098433 234 88 12
-0.09277831 -0.67948073 1.638867 234 88 12
-0.037183944 -0.90727073 1.8259634 234 88 12
-0.068472572 -0.71061414 1.665029 234 88 12
0.015222548 -1.2858053 2.1343424 234 88 12
-0.03874848 -1.0407393 1.9318423 234 88 12
-0.027960379 -1.0784711 1.9631085 234 88 12
-0.022667237 -1.0934589 1.975564 234 88 12
-0.021968991 -1.0883023 1.9713683 234 88 12
-0.024506591 -1.0490118 1.9391199 234 88 12
-0.090437807 -0.69381356 1.6460543 234 88 12
-0.080176309 -0.72773951 1.6741868 234 88 12
-0.063980326 -0.75853139 1.6999654 234 88 12
-0.01513168 -1.1788042 2.0439298 234 88 12
-0.017361956 -1.1587766 2.0273418 234 88 12
-0.012810059 -1.164804 2.0324731 234 88 12
-0.025767226 -1.1047509 1.9825096 234 88 12
-0.033784311 -1.0456033 1.9334694 234 88 12
-0.088957056 -0.68454313 1.633886 234 88 12
-0.067251958 -0.76153231 1.6981226 234 88 12
-0.073249377 -0.70880669 1.6544483 234 88 12
-0.027477335 -1.1063195 1.9815464 234 88 12
-0.038196508 -1.0545341 1.9381731 234 88 12
-0.040054955 -1.028922 1.9168457 234 88 12
-0.0043734601 -1.1699191 2.0351737 234 88 12
-0.0094238091 -1.1398855 2.0100608 234 88 12
-0.02120411 -1.0768678 1.9573253 234 88 12
0.026964691 -1.2949659 2.1401045 234 88 12
-0.09256576 -0.68794644 1.6319106 234 88 12
-0.079431444 -0.71734542 1.6567883 234 88 12
-0.02308885 -1.1252972 1.9953582 234 88 12
0.011907365 -1.233274 2.0868952 234 88 12
-0.077120505 -0.80086738 1.7221818 234 88 12
-0.088100702 -0.69385976 1.6323278 234 88 12
-0.0092904381 -1.2036467 2.0597086 234 88 12
-0.0047960547 -1.1888622 2.0474262 234 88 12
-0.042315286 -0.96932328 1.8612248 234 88 12
-0.067596041 -0.81798065 1.7328851 234 88 12
0.00075961085 -1.2183542 2.0708873 234 88 12
0.0034609975 -1.2243441 2.0760655 234 88 12
-0.018616315 -1.0927594 1.9636855 234 88 12
-0.045176294 -0.9573251 1.8478763 234 88 12
-0.058328006 -0.88085014 1.7825509 234 88 12
-0.081956491 -0.74835074 1.6693383 234 88 12
0.048417967 -1.4163562 2.2401438 234 88 12
0.020970056 -1.3052316 2.1442368 234 88 12
-0.076853223 -0.77607006 1.6887611 234 88 12
0.007232083 -1.2464367 2.0920978 234 88 12
-0.0015469559 -1.1936029 2.0463347 234 88 12
0.00040556517 -1.1960512 2.0485132 234 88 12
-0.0083512031 -1.1501803 2.0087388 234 88 12
-0.0319998 -1.0230298 1.8985107 234 88 12
0.011510725 -1.2645756 2.1065321 234 88 12
0.0061130072 -1.2276074 2.0743115 234 88 12
-0.024904218 -1.0766466 1.9424001 234 88 12
-0.013566892 -1.1197835 1.9801869 234 88 12
-0.057167262 -0.90579838 1.7932177 234 88 12
-0.08266677 -0.76905596 1.6738281 234 88 12
-0.020943951 -1.0957644 1.9567214 234 88 12
-0.059858479 -0.90826696 1.7917019 234 88 12
-0.092669144 -0.72321111 1.6290435 234 88 12
0.026668232 -1.3207678 2.1537929 234 88 12
-0.051851671 -0.95863807 1.8326753 234 88 12
-0.051900666 -0.94658959 1.8220893 234 88 12
-0.096231923 -0.72647911 1.6270367 234 88 12
-0.054315902 -0.9608984 1.8312874 234 88 12
-0.054421451 -0.94890183 1.8206695 234 88 12
-1.1796499 -2.2594223 0.91006649 234 88 12
-1.1805658 -2.2688711 0.91278064 234 88 12
-1.1595006 -2.0913165 0.86123329 234 88 12
-1.1648058 -2.1404252 0.87541664 234 88 12
-1.1787735 -2.2558219 0.90895766 234 88 12
-1.1754441 -2.2307811 0.90163708 234 88 12
-1.1567546 -2.0606155 0.85157329 234 88 12
-1.1489292 -2.0009243 0.83390266 234 88 12
-1.1496001 -2.0146995 0.83781761 234 88 12
-1.1451873 -1.9952832 0.83180171 234 88 12
-1.1488792 -2.031033 0.84224218 234 88 12
-1.1733069 -2.2193596 0.89795595 234 88 12
-1.159912 -2.0874488 0.85869467 234 88 12
-1.1042745 -1.7223039 0.74802178 234 88 12
-1.1120232 -1.7909249 0.7684266 234 88 12
-1.0431606 -1.3321611 0.6295296 234 88 12
-1.1326702 -1.8597944 0.78910488 234 88 12
-1.1470648 -1.9916817 0.82876837 234 88 12
-1.0505542 -1.3801184 0.64046192 234 88 12
-1.0342871 -1.2933446 0.61336416 234 88 12
-1.0316252 -1.2996688 0.61477208 234 88 12
-1.1783971 -2.2446125 0.90523088 234 88 12
-1.1542647 -2.019429 0.83668834 234 88 12
-1.1461661 -1.9739469 0.82236284 234 88 12
-1.1423765 -1.961138 0.81810313 234 88 12
-1.1648973 -2.1578553 0.87819582 234 88 12
-1.0459161 -1.3455725 0.62618142 234 88 12
-1.0477438 -1.3808559 0.63662952 234 88 12
-1.0419146 -1.3643726 0.63100564 234 88 12
-1.1590664 -2.0481563 0.84476435 234 88 12
-1.1463288 -1.9430513 0.81213397 234 88 12
-1.1405479 -1.924353 0.8057974 234 88 12
-1.1405816 -1.9353172 0.80900538 234 88 12
-1.1422793 -1.9591842 0.81623435 234 88 12
-1.1033685 -1.7251934 0.7419945 234 88 12
-1.0420986 -1.3164808 0.61333209 234 88 12
-1.0367477 -1.3042903 0.60896164 234 88 12
-1.0376965 -1.3341447 0.6178264 234 88 12
-1.0448005 -1.4021389 0.63876373 234 88 12
-1.1659963 -2.1116111 0.86367291 234 88 12
-1.1435107 -1.9266994 0.80551708 234 88 12
-1.1364578 -1.8994123 0.796363 234 88 12
-1.1169677 -1.7948431 0.7624377 234 88 12
-1.1706427 -2.198936 0.89022219 234 88 12
-1.0406616 -1.3036841 0.60542542 234 88 12
-1.0350215 -1.3369088 0.61439192 234 88 12
-1.0274915 -1.3116307 0.6057592 234 88 12
-1.1542099 -2.0060744 0.82954317 234 88 12
-1.1347558 -1.8712468 0.78612548 234 88 12
-1.1344422 -1.9144562 0.79902405 234 88 12
-1.1225151 -1.834901 0.77333587 234 88 12
-1.1397991 -1.9812146 0.81985861 234 88 12
-1.1429198 -1.905761 0.79623216 234 88 12
-1.1316823 -1.8428266 0.77537185 234 88 12
-1.0409193 -1.2996453 0.59630632 234 88 12
-1.0395217 -1.3146725 0.6006462 234 88 12
-1.0341672 -1.3262808 0.60332721 234 88 12
-1.0722288 -1.588976 0.6890111 234 88 12
-1.1515753 -1.9541069 0.81095475 234 88 12
-1.1231066 -1.823807 0.7663995 234 88 12
-1.1120232 -1.752605 0.74276388 234 88 12
-1.126341 -1.8721548 0.78176612 234 88 12
-1.1667634 -2.1725583 0.88047737 234 88 12
-1.0357705 -1.3107457 0.59489948 234 88 12
-1.0448204 -1.4136717 0.62795711 234 88 12
-1.1544975 -1.9722362 0.81575382 234 88 12
-1.1449755 -1.9342519 0.80240804 234 88 12
-1.1285392 -1.7964352 0.75690246 234 88 12
-1.1170624 -1.7108558 0.72844046 234 88 12
-1.1196123 -1.7500142 0.74102879 234 88 12
-1.1264 -1.8219343 0.76448786 234 88 12
-1.1296259 -1.8611643 0.77720731 234 88 12
-1.1266577 -1.8618406 0.77693975 234 88 12
-1.0447233 -1.320367 0.59535623 234 88 12
-1.0358863 -1.3087757 0.59032857 234 88 12
-1.047111 -1.4051944 0.62212092 234 88 12
-1.035512 -1.3523028 0.60380471 234 88 12
-1.1549498 -1.9873185 0.81933701 234 88 12
-1.1409196 -1.8811413 0.78362685 234 88 12
-1.1222636 -1.737237 0.73528671 234 88 12
-1.123369 -1.780063 0.74894804 234 88 12
-1.1258138 -1.8289342 0.76473069 234 88 12
-1.1341037 -1.9269776 0.79694486 234 88 12
-1.0387418 -1.3482425 0.5992229 234 88 12
-1.1472225 -1.9014889 0.78953356 234 88 12
-1.1329986 -1.833107 0.76540059 234 88 12
-1.1166869 -1.7207345 0.72690767 234 88 12
-1.1186557 -1.7539732 0.73782241 234 88 12
-1.1444956 -2.0104461 0.82379788 234 88 12
-1.0437506 -1.3076569 0.58326876 234 88 12
-1.0392525 -1.3257786 0.58830047 234 88 12
-1.038731 -1.3455956 0.59452814 234 88 12
-1.1497303 -1.9747692 0.81204981 234 88 12
-1.1229036 -1.7384732 0.73138332 234 88 12
-1.1167841 -1.7675213 0.73972774 234 88 12
-1.1202062 -1.8081192 0.75338882 234 88 12
-1.1408145 -1.9746653 0.81052798 234 88 12
-1.0381805 -1.3158375 0.58097124 234 88 12
-1.1463834 -1.9294834 0.7954613 234 88 12
-1.1413172 -1.9180386 0.79087156 234 88 12
-1.136036 -1.8957721 0.78271472 234 88 12
-1.1234182 -1.8044275 0.75078124 234 88 12
-1.1274306 -1.8499076 0.7662974 234 88 12
-1.0726392 -1.4407651 0.62355489 234 88 12
-1.1457657 -1.9455665 0.79923248 234 88 12
-1.1282805 -1.8424001 0.76218837 234 88 12
-1.0636483 -1.3936033 0.60299194 234 88 12
-1.069878 -1.4629363 0.62694383 234 88 12
-1.1638596 -2.0935867 0.85041845 234 88 12
-1.1523088 -1.9851956 0.8122229 234 88 12
-1.1391622 -1.9077535 0.78408718 234 88 12
-1.1215475 -1.7999353 0.74503452 234 88 12
-1.1363239 -1.9279819 0.79035193 234 88 12
-1.1084205 -1.727704 0.71864247 234 88 12
-1.0560175 -1.3587527 0.58636665 234 88 12
-1.1511189 -1.9603897 0.80242181 234 88 12
-1.1576178 -2.0369339 0.82941711 234 88 12
-1.1579295 -2.0636485 0.83849651 234 88 12
-1.1310019 -1.8854018 0.77357036 234 88 12
-1.1011642 -1.6710279 0.69593048 234 88 12
-1.0596026 -1.3821079 0.59105635 234 88 12
-1.1306388 -1.8693858 0.76638752 234 88 12
-1.1129189 -1.7430371 0.720079 234 88 12
-1.1031801 -1.6842411 0.69826531 234 88 12
-1.0633547 -1.4068403 0.59643131 234 88 12
-1.1254159 -1.825812 0.74868101 234 88 12
-1.1172553 -1.7892504 0.73458558 234 88 12
-1.0509373 -1.3121089 0.55782473 234 88 12
-1.1534051 -2.0104091 0.81636119 234 88 12
-1.1221755 -1.7979398 0.73645526 234 88 12
-1.1116837 -1.7295214 0.71064556 234 88 12
-1.0878168 -1.5629216 0.64810264 234 88 12
-1.0667442 -1.4262319 0.59651846 234 88 12
-1.1359726 -1.8966273 0.77183616 234 88 12
-1.0965269 -1.6081309 0.66266584 234 88 12
-1.0615118 -1.3590292 0.56822801 234 88 12
-1.1596652 -2.0816743 0.84072906 234 88 12
-1.1011187 -1.6228685 0.66596061 234 88 12
-1.0969312 -1.6089121 0.66019917 234 88 12
-1.0630015 -1.3672857 0.56758583 234 88 12
-1.1562446 -2.0501258 0.82785368 234 88 12
-1.1663384 -2.1452305 0.86409748 234 88 12
-1.1420541 -1.9448681 0.78717589 234 88 12
-1.0966935 -1.5368363 0.62817639 234 88 12
0.30505148 -2.3265064 1.3487171 234 88 12
0.30719116 -2.3350339 1.3520024 234 88 12
0.30505732 -2.3265505 1.3486392 234 88 12
0.29061276 -2.264374 1.3244729 234 88 12
0.27140144 -2.1760077 1.2901931 234 88 12
0.2997418 -2.2999454 1.3383416 234 88 12
0.24894087 -2.0909991 1.2558955 234 88 12
0.25383478 -2.1028576 1.2606641 234 88 12
0.25888041 -2.1163237 1.2660532 234 88 12
0.25312185 -2.0853236 1.253942 234 88 12
0.29788131 -2.2891307 1.3339134 234 88 12
0.25988951 -2.1166694 1.2652245 234 88 12
0.21508089 -1.8929136 1.176669 234 88 12
0.30116007 -2.3133919 1.3430223 234 88 12
0.24301261 -2.0666251 1.2438312 234 88 12
0.20215054 -1.8314189 1.1500368 234 88 12
0.19841719 -1.8025999 1.1386101 234 88 12
0.13192083 -1.4598861 1.0015862 234 88 12
0.13714622 -1.4675219 1.004832 234 88 12
0.23761138 -2.0736547 1.2450771 234 88 12
0.25520787 -2.1367865 1.270874 234 88 12
0.23415031 -2.0407255 1.2319194 234 88 12
0.24268292 -2.0550904 1.2380251 234 88 12
0.28391546 -2.2250109 1.3071383 234 88 12
0.13053028 -1.4535805 0.9951275 234 88 12
0.14249283 -1.4952972 1.0121912 234 88 12
0.23169912 -2.0416903 1.2308104 234 88 12
0.23215961 -2.0329792 1.2273642 234 88 12
0.23346139 -2.0328074 1.2273642 234 88 12
0.22060362 -1.9734112 1.203024 234 88 12
0.28558421 -2.2329175 1.3098315 234 88 12
0.1270487 -1.455601 0.99180436 234 88 12
0.1361095 -1.481963 1.0027839 234 88 12
0.13437687 -1.435109 0.98402607 234 88 12
0.24102631 -2.0828109 1.2464992 234 88 12
0.22289348 -2.0076509 1.2152666 234 88 12
0.21915919 -1.974384 1.2016709 234 88 12
0.24698968 -2.0637872 1.2391554 234 88 12
0.29363361 -2.2706544 1.3249449 234 88 12
0.12071665 -1.4440327 0.98285466 234 88 12
0.14241479 -1.5310775 1.0190631 234 88 12
0.13340063 -1.4691014 0.99362499 234 88 12
0.15322222 -1.5509269 1.0276316 234 88 12
0.2670145 -2.1904845 1.2905349 234 88 12
0.23078853 -2.0535607 1.2328532 234 88 12
0.21501628 -1.970994 1.1983969 234 88 12
0.21639086 -1.9344045 1.1835774 234 88 12
0.22055185 -1.9373387 1.1849955 234 88 12
0.230869 -2.0541699 1.2317809 234 88 12
0.24202554 -2.082804 1.244167 234 88 12
0.21298647 -1.9497938 1.1878699 234 88 12
0.22991455 -1.9943546 1.2071217 234 88 12
0.25040114 -2.0795827 1.2432971 234 88 12
0.12256598 -1.4542145 0.97907978 234 88 12
0.13009647 -1.4539334 0.9793734 234 88 12
0.13628015 -1.4467331 0.97674739 234 88 12
0.2187303 -2.0095406 1.2112294 234 88 12
0.21567406 -1.9866627 1.20155 234 88 12
0.2050547 -1.9251423 1.1753894 234 88 12
0.19868462 -1.8916196 1.1611023 234 88 12
0.19526204 -1.8691891 1.1515888 234 88 12
0.21343118 -1.9299642 1.1778542 234 88 12
0.22132258 -1.9493234 1.1863363 234 88 12
0.11649145 -1.4443057 0.97061527 234 88 12
0.18315256 -1.7042304 1.0823414 234 88 12
0.22061118 -2.0001502 1.2058506 234 88 12
0.20203198 -1.8978204 1.1618268 234 88 12
0.20223722 -1.8640889 1.1476665 234 88 12
0.12114337 -1.4488124 0.96869236 234 88 12
0.15110633 -1.5423667 1.0096611 234 88 12
0.22004358 -2.0040829 1.2059038 234 88 12
0.22046985 -1.9940083 1.2016506 234 88 12
0.20679976 -1.9180719 1.1686461 234 88 12
0.22446975 -1.9640937 1.1891751 234 88 12
0.11694419 -1.4654546 0.97145343 234 88 12
0.13812171 -1.4771996 0.9776274 234 88 12
0.22555286 -2.0357995 1.2182469 234 88 12
0.21023093 -1.9471414 1.1793482 234 88 12
0.20512152 -1.9192021 1.167074 234 88 12
0.22191125 -1.9745709 1.1917763 234 88 12
0.11398826 -1.4526902 0.96179628 234 88 12
0.13233171 -1.4857984 0.97703779 234 88 12
0.12978807 -1.4549465 0.96365952 234 88 12
0.22810957 -2.0191846 1.209756 234 88 12
0.20877104 -1.9344981 1.1719463 234 88 12
0.21693838 -1.9609704 1.1838869 234 88 12
0.13843884 -1.5800003 1.0142825 234 88 12
0.11796995 -1.454054 0.95852619 234 88 12
0.1263136 -1.4572865 0.96040487 234 88 12
0.26567277 -2.1787615 1.2802845 234 88 12
0.2332453 -2.0400696 1.2176827 234 88 12
0.24087863 -2.0606334 1.227128 234 88 12
0.24404185 -2.0687292 1.2308558 234 88 12
0.19194204 -1.8197261 1.1188165 234 88 12
0.13191995 -1.5358685 0.99105793 234 88 12
0.2359437 -2.045903 1.2189958 234 88 12
0.22144666 -1.9594156 1.1798935 234 88 12
0.21237487 -1.9028039 1.1543227 234 88 12
0.12817244 -1.5028664 0.97250116 234 88 12
0.23357348 -2.0251136 1.2081641 234 88 12
0.22758736 -1.9866306 1.190616 234 88 12
0.17804796 -1.7586533 1.0858283 234 88 12
0.16093764 -1.6692083 1.0448531 234 88 12
0.1522198 -1.6151259 1.0201737 234 88 12
0.24986906 -2.1030633 1.2428125 234 88 12
0.21527806 -1.9331316 1.1640557 234 88 12
0.19344355 -1.8277769 1.1152046 234 88 12
0.14626959 -1.6031127 1.0109954 234 88 12
0.20577797 -1.9087522 1.1504325 234 88 12
0.20763908 -1.9085063 1.1504325 234 88 12
0.16020009 -1.6929014 1.0492911 234 88 12
0.20319028 -1.8716288 1.1333537 234 88 12
0.13802353 -1.5662923 0.99024034 234 88 12
0.25751442 -2.1382799 1.2571921 234 88 12
0.26546773 -2.1667902 1.2708021 234 88 12
0.22567968 -1.9992571 1.1912494 234 88 12
0.11551583 -1.481963 0.94638526 234 88 12
0.11556699 -1.4650614 0.93860686 234 88 12
0.29064691 -2.2703519 1.3196455 234 88 12
0.17065105 -1.751044 1.070812 234 88 12
0.28349802 -2.2361135 1.3027555 234 88 12
0.1528562 -1.6755215 1.0314219 234 88 12
1.308409 -1.3207117 1.9668645 234 88 12
1.3129441 -1.3277035 1.9718162 234 88 12
1.3106325 -1.3251687 1.9696581 234 88 12
1.2766293 -1.2688493 1.9305365 234 88 12
1.2183365 -1.1725554 1.8635806 234 88 12
1.2966063 -1.3022921 1.9534681 234 88 12
1.1863797 -1.1257398 1.8282744 234 88 12
1.1477081 -1.0588176 1.7821652 234 88 12
1.2537016 -1.2294053 1.902909 234 88 12
1.2999496 -1.3094809 1.9578987 234 88 12
1.1923161 -1.1440493 1.8377556 234 88 12
1.2266141 -1.1952027 1.8753486 234 88 12
1.1788059 -1.117401 1.8200719 234 88 12
1.2271173 -1.1920016 1.8741516 234 88 12
1.1946166 -1.1348832 1.8347031 234 88 12
1.233629 -1.1945457 1.8781173 234 88 12
1.264695 -1.2449009 1.9139476 234 88 12
1.1706992 -1.1168348 1.8149828 234 88 12
1.2056346 -1.167343 1.8528682 234 88 12
1.2062616 -1.1667248 1.8528682 234 88 12
1.1735132 -1.1066244 1.8116658 234 88 12
1.1927361 -1.131493 1.8312082 234 88 12
1.2041327 -1.1447631 1.8421371 234 88 12
1.2907777 -1.2889078 1.9445179 234 88 12
1.1650869 -1.110274 1.8082349 234 88 12
1.1565819 -1.0887259 1.7947789 234 88 12
1.1530663 -1.0809788 1.7897383 234 88 12
1.189712 -1.1301324 1.8280746 234 88 12
1.1582183 -1.1019955 1.8000529 234 88 12
1.1378126 -1.0621196 1.7728693 234 88 12
1.1489416 -1.0766544 1.7844265 234 88 12
1.1498984 -1.0757114 1.7844265 234 88 12
1.1546699 -1.0807351 1.788834 234 88 12
1.1686198 -1.0981394 1.8029513 234 88 12
1.2588447 -1.2353446 1.9054235 234 88 12
1.0973368 -0.95699608 1.7071551 234 88 12
0.89979535 -0.5898065 1.4525348 234 88 12
1.1588473 -1.1026337 1.7992018 234 88 12
1.1213223 -1.0338256 1.7508807 234 88 12
1.120989 -1.0304765 1.7492011 234 88 12
1.2015034 -1.1448947 1.8377078 234 88 12
1.1959683 -1.1299982 1.8284121 234 88 12
1.0678838 -0.90565205 1.6682808 234 88 12
0.90875816 -0.61831456 1.4654044 234 88 12
0.8990581 -0.59422761 1.4500359 234 88 12
1.1347854 -1.0669644 1.7704322 234 88 12
1.2019432 -1.1641206 1.8456334 234 88 12
1.1098772 -1.0187596 1.736938 234 88 12
1.1413127 -1.0564231 1.7685412 234 88 12
1.1692091 -1.0960987 1.7994648 234 88 12
1.1090069 -0.98594517 1.7214365 234 88 12
0.89226824 -0.6022197 1.4464346 234 88 12
0.89485788 -0.59966713 1.4464346 234 88 12
0.92263234 -0.64135593 1.4782298 234 88 12
0.8845793 -0.56714618 1.4267991 234 88 12
1.1254567 -1.0475731 1.7555119 234 88 12
1.1352688 -1.0544894 1.7632087 234 88 12
1.1213387 -1.021372 1.7414709 234 88 12
1.1503979 -1.0653292 1.775158 234 88 12
1.2812442 -1.2743478 1.9319884 234 88 12
0.88439476 -0.5944488 1.435006 234 88 12
0.88178277 -0.56816608 1.421616 234 88 12
0.8844803 -0.56550717 1.421616 234 88 12
0.96616948 -0.70457351 1.5235053 234 88 12
1.1247244 -1.0378118 1.7488376 234 88 12
1.084264 -0.97192562 1.6993729 234 88 12
1.1364856 -1.0451692 1.7577002 234 88 12
1.1153581 -0.99867672 1.7262174 234 88 12
1.1834618 -1.1098909 1.8096241 234 88 12
0.93689471 -0.67036837 1.4904072 234 88 12
0.95013195 -0.68723798 1.5043988 234 88 12
1.0586405 -0.94267887 1.6714693 234 88 12
1.0852276 -0.97290325 1.6980691 234 88 12
1.0837262 -0.96708429 1.6946286 234 88 12
1.1069217 -1.0004599 1.721138 234 88 12
1.1114392 -1.0045056 1.7251439 234 88 12
1.1285383 -1.0290431 1.7446547 234 88 12
0.88193345 -0.59475642 1.4253677 234 88 12
0.89404637 -0.60837215 1.4374137 234 88 12
0.92625034 -0.65711474 1.475352 234 88 12
1.2093093 -1.1726772 1.8488649 234 88 12
1.0962251 -0.98956472 1.7089152 234 88 12
1.1185223 -1.0122943 1.7301551 234 88 12
1.1852759 -1.1185727 1.8119061 234 88 12
1.2690215 -1.2550234 1.9159486 234 88 12
0.87516028 -0.5891521 1.4151638 234 88 12
0.88634616 -0.5718739 1.4121932 234 88 12
0.88905132 -0.56920749 1.4121932 234 88 12
1.1471648 -1.0811962 1.7747021 234 88 12
1.2581238 -1.2451723 1.9055874 234 88 12
1.0753002 -0.95989567 1.6827019 234 88 12
1.0748539 -0.94827521 1.6769272 234 88 12
1.1037738 -0.99112231 1.7110928 234 88 12
1.077523 -0.94133651 1.6748644 234 88 12
0.8791163 -0.60165972 1.4185758 234 88 12
0.88940573 -0.60487968 1.4249738 234 88 12
0.98704261 -0.76033872 1.5454936 234 88 12
0.89809281 -0.59848535 1.4260122 234 88 12
0.89373428 -0.58350813 1.4167835 234 88 12
1.2015872 -1.1622468 1.8380933 234 88 12
1.1603609 -1.09377 1.7854364 234 88 12
0.87522066 -0.60100853 1.4119972 234 88 12
0.92327952 -0.66798049 1.4671781 234 88 12
1.0121397 -0.80299491 1.5746043 234 88 12
0.89564323 -0.58544481 1.4142009 234 88 12
1.1683961 -1.105803 1.7936169 234 88 12
1.1154571 -1.0120457 1.722635 234 88 12
0.93173271 -0.71208113 1.4886568 234 88 12
1.1483166 -1.0593213 1.7613825 234 88 12
0.92500961 -0.66973567 1.4648376 234 88 12
1.0122962 -0.80748183 1.5736815 234 88 12
0.91428715 -0.63118422 1.4409461 234 88 12
0.91077781 -0.61803615 1.4328687 234 88 12
0.97588843 -0.77170646 1.5353699 234 88 12
0.88455576 -0.60699862 1.4105006 234 88 12
0.90077358 -0.62739158 1.4283333 234 88 12
0.99891692 -0.78873599 1.5548445 234 88 12
0.90313077 -0.61744821 1.424598 234 88 12
0.89126122 -0.5895853 1.4052045 234 88 12
1.1350358 -1.0424532 1.7431483 234 88 12
0.98779607 -0.79572141 1.5495534 234 88 12
1.0329554 -0.8650561 1.6057982 234 88 12
0.89350414 -0.62079895 1.4172184 234 88 12
1.1915895 -1.142573 1.8189038 234 88 12
1.1543539 -1.078122 1.7685392 234 88 12
1.0714531 -0.93976307 1.6589645 234 88 12
1.1002274 -0.98259312 1.6944113 234 88 12
1.0687922 -0.92759323 1.6515992 234 88 12
1.0432582 -0.88131142 1.6160239 234 88 12
0.98537433 -0.78008342 1.5372145 234 88 12
0.96116519 -0.73373634 1.5022569 234 88 12
1.1306448 -1.0344443 1.7332464 234 88 12
0.91637933 -0.66359818 1.4411808 234 88 12
1.2252667 -1.1937661 1.8590608 234 88 12
1.1403533 -1.0579151 1.7480328 234 88 12
0.99020243 -0.80744654 1.5465227 234 88 12
0.95077986 -0.73213601 1.4887865 234 88 12
0.93411225 -0.69848168 1.4634589 234 88 12
1.0156511 -0.85718727 1.5812814 234 88 12
1.0664047 -0.93366611 1.6457554 234 88 12
0.9334352 -0.70254171 1.4611642 234 88 12
0.91547698 -0.66637766 1.4337116 234 88 12
1.2557482 -1.2393608 1.8960259 234 88 12
1.1636925 -1.0937408 1.7746274 234 88 12
1.0100061 -0.84748471 1.5703384 234 88 12
0.89995265 -0.6663214 1.4215722 234 88 12
0.88725489 -0.63915402 1.40119 234 88 12
2.1950352 -0.35365853 1.5524709 234 88 12
2.1781592 -0.34170377 1.5417521 234 88 12
2.1910343 -0.34985164 1.5497781 234 88 12
2.0276179 -0.23223288 1.4455751 234 88 12
2.0054276 -0.21282068 1.4311162 234 88 12
2.17191 -0.33549607 1.5374368 234 88 12
1.9649998 -0.18896106 1.4044913 234 88 12
2.0769899 -0.26862594 1.4763672 234 88 12
1.9738774 -0.19280799 1.4099553 234 88 12
2.1795886 -0.34232774 1.5422837 234 88 12
2.059936 -0.25308058 1.4650986 234 88 12
1.9899513 -0.198603 1.4197372 234 88 12
2.1389031 -0.30881178 1.5157381 234 88 12
2.0730188 -0.26774001 1.4732386 234 88 12
1.9550344 -0.18278724 1.396757 234 88 12
1.9813617 -0.19913316 1.4135737 234 88 12
1.9954257 -0.20817244 1.4225866 234 88 12
1.9473507 -0.17025401 1.3911072 234 88 12
2.0389962 -0.23166007 1.4500771 234 88 12
2.0033293 -0.20275834 1.4266487 234 88 12
1.9276506 -0.14032343 1.3768321 234 88 12
1.9428726 -0.17226996 1.3872026 234 88 12
1.9182305 -0.14979684 1.370634 234 88 12
1.9347348 -0.16047241 1.3813092 234 88 12
1.9492391 -0.16558418 1.3902791 234 88 12
1.9717753 -0.18150659 1.4049855 234 88 12
1.9854362 -0.19079481 1.4138651 234 88 12
2.0040648 -0.20185435 1.4258189 234 88 12
1.9145505 -0.15616907 1.3674306 234 88 12
2.0224597 -0.23035242 1.4382584 234 88 12
1.9626446 -0.18079604 1.3981776 234 88 12
2.1040287 -0.28482741 1.491642 234 88 12
1.9337064 -0.15476395 1.3785868 234 88 12
1.8857861 -0.11656415 1.3466223 234 88 12
1.9862365 -0.18981119 1.4129622 234 88 12
1.9820614 -0.20104517 1.4102989 234 88 12
1.8991731 -0.13982025 1.3550082 234 88 12
1.8928392 -0.13352033 1.3506242 234 88 12
1.9107895 -0.14174005 1.3621038 234 88 12
1.8887055 -0.12352689 1.3471862 234 88 12
1.8928411 -0.12490343 1.3497802 234 88 12
1.8736109 -0.11531359 1.3354776 234 88 12
1.9116184 -0.14187676 1.3608991 234 88 12
1.849581 -0.098880082 1.3173656 234 88 12
1.7699035 -0.03528126 1.2628268 234 88 12
1.8329897 -0.080453023 1.3054919 234 88 12
1.9193445 -0.14079663 1.3637451 234 88 12
1.9522191 -0.1647149 1.3860159 234 88 12
1.9302012 -0.14453152 1.3706845 234 88 12
2.0231535 -0.21461208 1.4338996 234 88 12
1.9151123 -0.1515871 1.3605595 234 88 12
1.866953 -0.11489739 1.3274893 234 88 12
1.7905688 -0.056962844 1.2750633 234 88 12
1.8276615 -0.077904813 1.2997981 234 88 12
1.8438212 -0.088019192 1.3106737 234 88 12
1.8674123 -0.10018737 1.3262894 234 88 12
1.9723454 -0.17597899 1.3979276 234 88 12
1.815654 -0.044864744 1.2891488 234 88 12
1.9728794 -0.19298507 1.3985891 234 88 12
2.1100266 -0.29181513 1.492994 234 88 12
1.8447938 -0.092171192 1.3095579 234 88 12
1.8550823 -0.095943339 1.3162704 234 88 12
1.8829432 -0.1134368 1.3351862 234 88 12
1.8983623 -0.12356297 1.3456999 234 88 12
1.8779796 -0.10039965 1.3308096 234 88 12
2.1203408 -0.29293001 1.4994527 234 88 12
2.1450644 -0.31239855 1.5166386 234 88 12
2.0642383 -0.25975049 1.460722 234 88 12
1.7786806 -0.044487908 1.2615209 234 88 12
1.8423752 -0.089765236 1.3056731 234 88 12
1.9345714 -0.1572244 1.3697791 234 88 12
1.8684046 -0.092163585 1.3220686 234 88 12
1.9501661 -0.15451778 1.3791778 234 88 12
1.5699326 0.15686673 1.1113993 234 88 12
1.9046035 -0.13919333 1.3475462 234 88 12
1.7954347 -0.053964924 1.2704449 234 88 12
2.0463166 -0.23571762 1.4461761 234 88 12
1.4647746 0.23975556 1.0332423 234 88 12
1.4867976 0.22596742 1.0484449 234 88 12
1.9638804 -0.18394554 1.3878014 234 88 12
1.9522662 -0.17256211 1.3792887 234 88 12
1.8069365 -0.057442807 1.2756104 234 88 12
1.9088221 -0.13010053 1.3474581 234 88 12
1.8062145 -0.047870852 1.2741588 234 88 12
2.0968204 -0.27535564 1.4811947 234 88 12
1.4673665 0.23482642 1.0309379 234 88 12
1.9647192 -0.18280883 1.3867562 234 88 12
1.9378941 -0.15380794 1.366645 234 88 12
2.0517004 -0.24117883 1.4482249 234 88 12
1.4624119 0.23174822 1.0236506 234 88 12
1.4731276 0.22735859 1.0309293 234 88 12
1.5411977 0.18402128 1.0787879 234 88 12
1.984558 -0.19841301 1.3996722 234 88 12
1.8817014 -0.11701342 1.3250661 234 88 12
1.8741115 -0.10752862 1.3191929 234 88 12
2.0388417 -0.23083448 1.4379312 234 88 12
1.9293536 -0.14353886 1.3584465 234 88 12
1.4694881 0.22744235 1.0241416 234 88 12
1.4814533 0.22199978 1.0323944 234 88 12
1.641078 0.10312217 1.1473885 234 88 12
1.5701059 0.13364577 1.0947585 234 88 12
1.479445 0.21252601 1.0276884 234 88 12
1.5412947 0.17122737 1.0721089 234 88 12
1.6830279 0.060601078 1.1756077 234 88 12
2.0024533 -0.2109441 1.4099845 234 88 12
1.9454522 -0.16424204 1.3677759 234 88 12
1.8962408 -0.12340105 1.3312794 234 88 12
1.8648069 -0.097267359 1.3079621 234 88 12
1.8851484 -0.11119895 1.3227305 234 88 12
1.468869 0.21801116 1.015756 234 88 12
1.543766 0.17426458 1.0693209 234 88 12
1.5041814 0.21840779 1.038749 234 88 12
2.0560222 -0.25040403 1.4482428 234 88 12
1.9389968 -0.1588874 1.3613412 234 88 12
1.8439043 -0.082495801 1.290507 234 88 12
1.8156455 -0.05623617 1.269071 234 88 12
1.4921167 0.21739422 1.0265857 234 88 12
1.4982171 0.22060817 1.0302496 234 88 12
1.5062187 0.21807177 1.0357878 234 88 12
1.8411508 -0.083905771 1.2865931 234 88 12
1.7756746 -0.02912027 1.2371774 234 88 12
1.7893666 -0.037315331 1.2471542 234 88 12
1.7463783 -0.0012071698 1.2146952 234 88 12
1.8408673 -0.073213704 1.2852355 234 88 12
1.8344656 -0.066014066 1.2802026 234 88 12
1.4861672 0.21527536 1.0184467 234 88 12
1.4922873 0.21448115 1.0225923 234 88 12
1.4739906 0.23347266 1.0083808 234 88 12
2.0446599 -0.24141358 1.4377744 234 88 12
1.9165509 -0.14414683 1.3413862 234 88 12
1.8121958 -0.058912307 1.2622082 234 88 12
1.8015791 -0.048426118 1.2539527 234 88 12
1.7281066 0.01398644 1.1979415 234 88 12
1.5629089 0.14754809 1.0727509 234 88 12
1.6485471 0.082952194 1.1371375 234 88 12
1.5927038 0.13103083 1.0944951 234 88 12
1.8429642 -0.086107515 1.2835134 234 88 12
1.6649921 0.058348626 1.1474698 234 88 12
1.5317863 0.17732209 1.0444393 234 88 12
1.523217 0.1881243 1.0374612 234 88 12
1.6069841 0.12415406 1.1010464 234 88 12
1.9537513 -0.17270611 1.3662422 234 88 12
1.8155986 -0.066893652 1.2604799 234 88 12
1.7111088 0.014876166 1.1802931 234 88 12
1.5149184 0.16815767 1.029762 234 88 12
1.5629717 0.14242187 1.0653082 234 88 12
1.5283476 0.1813312 1.0374129 234 88 12
1.6480726 0.060614537 1.1288117 234 88 12
1.7015762 0.025920564 1.1693958 234 88 12
1.4922384 0.19091949 1.0073006 234 88 12
1.4928408 0.19457152 1.0073006 234 88 12
1.5396483 0.16191649 1.0430658 234 88 12
1.5312856 0.1723983 1.0361507 234 88 12
1.5062209 0.19630012 1.0162739 234 88 12
-1.7081336 -1.3023 -0.22311443 234 88 12
-1.5741522 -0.91850704 -0.24436319 234 88 12
-1.5715811 -0.92107821 -0.24436319 234 88 12
-1.5541579 -0.8819102 -0.24644116 234 88 12
-1.5681118 -0.90154183 -0.24888162 234 88 12
-1.6012919 -1.0146739 -0.24312009 234 88 12
-1.5652529 -0.92324769 -0.24813946 234 88 12
-1.588065 -0.99578363 -0.24438481 234 88 12
-1.5644006 -0.89125943 -0.25314158 234 88 12
-1.5549313 -0.89486814 -0.25338793 234 88 12
-1.5564488 -0.91877192 -0.25231931 234 88 12
-1.5609459 -0.88207185 -0.26115197 234 88 12
-1.5593207 -0.89777899 -0.2604852 234 88 12
-1.5541071 -0.89324921 -0.26094654 234 88 12
-1.5571972 -0.91171479 -0.2599259 234 88 12
-1.5545839 -0.9143281 -0.2599259 234 88 12
-1.5594507 -0.87814713 -0.26515943 234 88 12
-1.5680757 -0.92268187 -0.26250133 234 88 12
-1.5933136 -1.011423 -0.25680214 234 88 12
-1.6563785 -1.1920698 -0.24461605 234 88 12
-1.5864379 -0.9928031 -0.26145011 234 88 12
-1.587119 -1.0036095 -0.26084524 234 88 12
-1.5550195 -0.88673526 -0.27242514 234 88 12
-1.5626441 -0.93724322 -0.2692101 234 88 12
-1.5601913 -0.88132471 -0.27617276 234 88 12
-1.557529 -0.88398689 -0.27617276 234 88 12
-1.560639 -0.91272378 -0.27432707 234 88 12
-1.5655905 -0.89710498 -0.27862161 234 88 12
-1.5734768 -0.91997826 -0.28035042 234 88 12
-0.15279712 -2.7000749 0.10475437 234 88 12
-0.17670515 -2.5031579 0.086938031 234 88 12
-0.18287806 -2.4436407 0.081575111 234 88 12
-0.18031539 -2.4568927 0.082763284 234 88 12
-0.17086878 -2.5335546 0.08966361 234 88 12
-0.15284066 -2.6963174 0.104324 234 88 12
-0.15529707 -2.6713676 0.10207519 234 88 12
-0.18409419 -2.433367 0.079546303 234 88 12
-0.180453 -2.4367812 0.079849832 234 88 12
-0.17575818 -2.4719985 0.083151698 234 88 12
-0.17811388 -2.4385741 0.080007017 234 88 12
-0.15601873 -2.659637 0.10077156 234 88 12
-0.15551777 -2.6838624 0.10290545 234 88 12
-0.18165489 -2.491262 0.084118672 234 88 12
-0.18462321 -2.462323 0.081290692 234 88 12
-0.15566902 -2.6838598 0.10275441 234 88 12
-0.19229124 -2.421699 0.076192379 234 88 12
-0.19471438 -2.3863661 0.072598323 234 88 12
-0.1934381 -2.3864362 0.072598323 234 88 12
-0.1933143 -2.3773048 0.071665257 234 88 12
-0.16270773 -2.589354 0.093144484 234 88 12
-0.20124386 -2.1620023 0.049726434 234 88 12
-0.23622027 -1.7384737 0.0066787251 234 88 12
-0.22998504 -1.7684954 0.009709049 234 88 12
-0.19500451 -2.4107912 0.073904902 234 88 12
-0.19102766 -2.430768 0.075997956 234 88 12
-0.19990049 -2.3124602 0.063516885 234 88 12
-0.19506249 -2.3404093 0.066449434 234 88 12
-0.16239138 -2.5977058 0.093515314 234 88 12
-0.23378946 -1.7664578 0.0058744526 234 88 12
-0.23350176 -1.7267816 0.001669724 234 88 12
-0.22707403 -1.7600384 0.0051552649 234 88 12
-0.17577448 -2.5488806 0.087756641 234 88 12
-0.19382372 -2.4109025 0.072720684 234 88 12
-0.19566444 -2.369328 0.068168432 234 88 12
-0.20209229 -2.3073962 0.061409388 234 88 12
-0.19187911 -2.3431966 0.065277271 234 88 12
-0.20032147 -2.2330911 0.053242695 234 88 12
-0.24027227 -1.7352818 -0.0011573938 234 88 12
-0.21375613 -1.9625014 0.023622889 234 88 12
-0.22995336 -1.7243229 -0.0024226326 234 88 12
-0.19806394 -2.3807557 0.06813316 234 88 12
-0.19979799 -2.3483098 0.064458333 234 88 12
-0.19993085 -2.3363516 0.063100755 234 88 12
-0.20341386 -2.2837362 0.057145678 234 88 12
-0.19174509 -2.3570189 0.065397285 234 88 12
-0.19428372 -2.3214755 0.061375592 234 88 12
-0.17385215 -2.4908371 0.080486499 234 88 12
-0.17984621 -2.4213994 0.072636202 234 88 12
-0.24269386 -1.7492472 -0.0033240432 234 88 12
-0.23266211 -1.7372823 -0.0047459281 234 88 12
-0.2213804 -1.831605 0.0058981297 234 88 12
-0.20626926 -2.3223755 0.060026299 234 88 12
-0.20789064 -2.2317882 0.049399327 234 88 12
-0.19371311 -2.3398459 0.061996635 234 88 12
-0.19916454 -2.2773142 0.054688923 234 88 12
-0.16059174 -2.6117017 0.093705922 234 88 12
-0.23518762 -1.7512039 -0.0068580718 234 88 12
-0.23213078 -1.743858 -0.0077404417 234 88 12
-0.20816897 -2.2727227 0.052491054 234 88 12
-0.20700538 -2.2394066 0.048443351 234 88 12
-0.20187072 -2.2528839 0.050043359 234 88 12
-0.24108677 -1.766577 -0.0086650187 234 88 12
-0.23150539 -1.7515514 -0.010550992 234 88 12
-0.2184241 -2.1775196 0.038934737 234 88 12
-0.21867992 -2.1585224 0.036560021 234 88 12
-0.20271103 -2.2611654 0.049290277 234 88 12
-0.20488317 -2.1891677 0.040298644 234 88 12
-0.17758496 -2.4444406 0.072044261 234 88 12
-0.24453083 -1.7306489 -0.016787155 234 88 12
-0.22835313 -1.829591 -0.0045213024 234 88 12
-0.21155657 -1.9894545 0.015361297 234 88 12
-0.22767733 -1.7537184 -0.014017297 234 88 12
-0.20558821 -2.279969 0.049971666 234 88 12
-0.24808629 -1.7328132 -0.020272447 234 88 12
-0.21156257 -1.9895635 0.012571609 234 88 12
-0.22602344 -1.7745892 -0.015042769 234 88 12
-0.20187128 -2.363636 0.059361704 234 88 12
-0.21843301 -2.1776814 0.034793776 234 88 12
-0.20801856 -2.2463717 0.043837603 234 88 12
-0.19917332 -2.2923563 0.049878247 234 88 12
-0.20557283 -2.2196636 0.040273715 234 88 12
-0.20547353 -2.2027736 0.038030509 234 88 12
-0.18698509 -2.3634205 0.059224308 234 88 12
-0.23625693 -1.7399586 -0.023191862 234 88 12
-0.19249816 -2.3844726 0.060766298 234 88 12
-0.21625903 -2.1787758 0.032845348 234 88 12
-0.19172385 -2.3576882 0.057101537 234 88 12
-0.2078227 -2.1994004 0.035599388 234 88 12
-0.21817282 -2.0838184 0.019887911 234 88 12
-0.23769106 -1.8706397 -0.0090869991 234 88 12
-0.24810249 -1.7331073 -0.027796583 234 88 12
-0.24443915 -1.7323079 -0.027933331 234 88 12
-0.23486108 -1.7560983 -0.02475542 234 88 12
-0.18282294 -2.4764564 0.07231655 234 88 12
-0.22315443 -1.9557559 -0.00050207134 234 88 12
-0.20290969 -2.3364975 0.051338937 234 88 12
-0.19297527 -2.400212 0.060453217 234 88 12
-0.19624613 -2.3182635 0.048655119 234 88 12
-0.17595641 -2.4797614 0.071795948 234 88 12
-0.24360026 -1.813617 -0.02378257 234 88 12
-0.23953573 -1.8199639 -0.022899076 234 88 12
-0.19400121 -2.3925714 0.058095828 234 88 12
-0.1944996 -2.3336375 0.049370129 234 88 12
-0.20403692 -2.2340119 0.034690496 234 88 12
-0.20482315 -2.209336 0.031041728 234 88 12
-0.23184745 -1.9279839 -0.010414154 234 88 12
-0.23263815 -1.8897215 -0.016075442 234 88 12
-0.16082355 -2.6441221 0.094783261 234 88 12
-0.18956986 -2.4259291 0.061864708 234 88 12
-0.18788341 -2.4121616 0.059758335 234 88 12
-0.21446154 -2.1590643 0.021517195 234 88 12
-0.19428258 -2.3081944 0.044011861 234 88 12
-0.21406277 -2.1008751 0.012670795 234 88 12
-0.24223319 -1.7931889 -0.033852961 234 88 12
-0.18558043 -2.4481635 0.064158387 234 88 12
-0.19256863 -2.3626106 0.050887894 234 88 12
-0.20309025 -2.2586608 0.034781203 234 88 12
-0.19637759 -2.3035166 0.041712854 234 88 12
-0.20857552 -2.1744239 0.021702869 234 88 12
-0.21679196 -2.0745194 0.0062067374 234 88 12
-0.23103946 -1.9062189 -0.019894807 234 88 12
-0.20827197 -2.2297354 0.028431326 234 88 12
-0.20639752 -2.2298386 0.028431326 234 88 12
-0.23124246 -1.9882891 -0.0099161379 234 88 12
-0.24018805 -1.8475678 -0.032305092 234 88 12
-0.17565425 -2.5190077 0.073547736 234 88 12
-0.19787829 -2.3303745 0.042905036 234 88 12
-0.25389174 -1.750442 -0.051413462 234 88 12
-0.19068809 -2.3787611 0.049433 234 88 12
-0.22695066 -2.0503821 -0.0051883832 234 88 12
-0.25759548 -1.7503831 -0.055112001 234 88 12
-0.1529121 -2.6999798 0.10275117 234 88 12
-0.16491729 -2.5968845 0.085214138 234 88 12
-0.23687999 -1.963748 -0.022502057 234 88 12
-0.15363517 -2.6933217 0.10150162 234 88 12
1.5514369 -2.0570066 0.8285439 234 88 12
1.5559878 -2.0648284 0.8306883 234 88 12
1.5542129 -2.0624399 0.82987922 234 88 12
1.5393902 -2.0364134 0.82236457 234 88 12
1.4276514 -1.8400991 0.76569223 234 88 12
1.4577296 -1.889497 0.78025085 234 88 12
1.3897647 -1.7653378 0.74481964 234 88 12
1.4011234 -1.7831444 0.75014615 234 88 12
1.5384736 -2.0320508 0.82134336 234 88 12
1.5437844 -2.0451961 0.82465839 234 88 12
1.4679768 -1.9165874 0.78653556 234 88 12
1.4278464 -1.8403583 0.76468134 234 88 12
1.4350135 -1.8509048 0.76795447 234 88 12
1.4452077 -1.8612485 0.77165359 234 88 12
1.4246937 -1.8493577 0.76496816 234 88 12
1.4468164 -1.8841497 0.77569741 234 88 12
1.4252635 -1.8400304 0.76311201 234 88 12
1.4137411 -1.8178604 0.75667924 234 88 12
1.4314673 -1.8424305 0.76458627 234 88 12
1.3337057 -1.652527 0.70963132 234 88 12
1.533483 -2.0217502 0.81800121 234 88 12
1.4683734 -1.9227076 0.7863915 234 88 12
1.4114127 -1.8273895 0.75712109 234 88 12
1.4333231 -1.8597293 0.76746398 234 88 12
1.3966956 -1.7957536 0.74807376 234 88 12
1.3932121 -1.7872868 0.74572498 234 88 12
1.5005835 -1.9617437 0.7997945 234 88 12
1.3043365 -1.5934521 0.69049847 234 88 12
1.2918718 -1.5654089 0.68257123 234 88 12
1.4742372 -1.9335215 0.78893268 234 88 12
1.3592172 -1.7290815 0.7263459 234 88 12
1.3629274 -1.7323564 0.72765076 234 88 12
1.4089069 -1.8068491 0.75111425 234 88 12
1.3030239 -1.5952553 0.68846744 234 88 12
1.1202763 -1.2331247 0.58100265 234 88 12
1.1284847 -1.2409968 0.58402425 234 88 12
1.122007 -1.2205207 0.57857174 234 88 12
1.3977196 -1.8094013 0.74857438 234 88 12
1.3595072 -1.7294669 0.72484291 234 88 12
1.3632139 -1.7327372 0.72616595 234 88 12
1.4045619 -1.7940358 0.74634337 234 88 12
1.1560726 -1.308237 0.59944576 234 88 12
1.1112591 -1.2155252 0.57183993 234 88 12
1.1360161 -1.2473346 0.58285272 234 88 12
1.3736793 -1.7676338 0.7340278 234 88 12
1.3486696 -1.7140749 0.71798784 234 88 12
1.3481836 -1.7099867 0.71700078 234 88 12
1.3495171 -1.7089834 0.71700078 234 88 12
1.378168 -1.7555546 0.73209924 234 88 12
1.3766772 -1.7470428 0.72996432 234 88 12
1.3634076 -1.7170111 0.72109604 234 88 12
1.3879137 -1.7583607 0.73434621 234 88 12
1.5233765 -2.0045817 0.81150132 234 88 12
1.1069193 -1.2307895 0.57057166 234 88 12
1.1229528 -1.2529532 0.57815707 234 88 12
1.1158404 -1.2238672 0.57052505 234 88 12
1.1171124 -1.2101529 0.56769782 234 88 12
1.3626246 -1.7465553 0.72593606 234 88 12
1.3317977 -1.6888264 0.70773679 234 88 12
1.3370725 -1.6873757 0.70830303 234 88 12
1.3578252 -1.7200043 0.71915269 234 88 12
1.108273 -1.2329395 0.56738657 234 88 12
1.1144146 -1.2126629 0.56386566 234 88 12
1.3717409 -1.761523 0.72933561 234 88 12
1.3805488 -1.7679311 0.73231 234 88 12
1.2877707 -1.6063465 0.67951107 234 88 12
1.3290297 -1.6696982 0.70105016 234 88 12
1.3362625 -1.678714 0.70434916 234 88 12
1.421994 -1.8202649 0.75136703 234 88 12
1.1196791 -1.2613531 0.5719316 234 88 12
1.1153939 -1.2458059 0.56764829 234 88 12
1.1230788 -1.2447286 0.56872183 234 88 12
1.2514052 -1.4820952 0.64491588 234 88 12
1.3458452 -1.7089466 0.71114278 234 88 12
1.3307835 -1.679842 0.70178264 234 88 12
1.3260475 -1.6680691 0.69823271 234 88 12
1.3894693 -1.7749246 0.73401254 234 88 12
1.3108971 -1.6257988 0.68580961 234 88 12
1.2423998 -1.4703177 0.63789022 234 88 12
1.1379771 -1.2572944 0.57039458 234 88 12
1.3857497 -1.7870822 0.73478156 234 88 12
1.4101818 -1.8226274 0.74744248 234 88 12
1.3311164 -1.6802844 0.70005751 234 88 12
1.3076981 -1.6322159 0.68463552 234 88 12
1.1013485 -1.2347181 0.55486256 234 88 12
1.1053449 -1.2342572 0.55546027 234 88 12
1.1525829 -1.3142433 0.58258337 234 88 12
1.1552989 -1.3121998 0.58258337 234 88 12
1.1616716 -1.3170847 0.58485585 234 88 12
1.119154 -1.2285945 0.55657011 234 88 12
1.3732781 -1.7552986 0.72357965 234 88 12
1.3368795 -1.6720375 0.69723624 234 88 12
1.1364188 -1.2612277 0.5635199 234 88 12
1.4155102 -1.8313711 0.74807346 234 88 12
1.3975996 -1.7965086 0.73640454 234 88 12
1.3491994 -1.7043332 0.70536244 234 88 12
1.384001 -1.762215 0.72565615 234 88 12
1.1145447 -1.2270098 0.54751611 234 88 12
1.3567992 -1.714179 0.70739722 234 88 12
1.2050145 -1.429176 0.6097014 234 88 12
1.1113676 -1.2519935 0.549097 234 88 12
1.1177545 -1.2560802 0.55127311 234 88 12
1.125735 -1.2632526 0.55449784 234 88 12
1.2616031 -1.5364467 0.64381528 234 88 12
1.1424062 -1.3154933 0.56675911 234 88 12
1.1307422 -1.2797009 0.55570352 234 88 12
1.3904916 -1.7760793 0.7258746 234 88 12
1.3638394 -1.7263281 0.70832586 234 88 12
1.3726447 -1.7387633 0.7131176 234 88 12
1.2107564 -1.439064 0.60715157 234 88 12
1.1779143 -1.3730427 0.58434159 234 88 12
1.4284766 -1.8507184 0.75072682 234 88 12
1.4073386 -1.8103155 0.7363826 234 88 12
1.3896457 -1.7772413 0.72456574 234 88 12
1.3047124 -1.617722 0.66764885 234 88 12
1.2908797 -1.5886192 0.65758359 234 88 12
1.2112858 -1.4397676 0.60440779 234 88 12
1.1396614 -1.3027477 0.55577356 234 88 12
1.4637254 -1.9085593 0.77140146 234 88 12
1.3281568 -1.6668932 0.68269849 234 88 12
1.1542634 -1.3429154 0.56530762 234 88 12
1.176847 -1.3770449 0.57850236 234 88 12
1.1346008 -1.293161 0.54864717 234 88 12
1.3738585 -1.752648 0.71213675 234 88 12
1.3750528 -1.7517493 0.71213675 234 88 12
1.2160691 -1.4651381 0.60591865 234 88 12
1.1164354 -1.2671419 0.53454691 234 88 12
1.4949366 -1.9615812 0.79002464 234 88 12
1.3972828 -1.7927791 0.72585845 234 88 12
1.2416952 -1.5204612 0.62273192 234 88 12
1.2457865 -1.5173829 0.62273192 234 88 12
1.1074042 -1.2656089 0.52847493 234 88 12
1.1395605 -1.3158973 0.54820144 234 88 12
1.3112279 -1.636831 0.66527826 234 88 12
1.1797006 -1.4004537 0.57533073 234 88 12
1.1147379 -1.2783736 0.52947485 234 88 12
-0.89552361 -2.3549991 -1.004986 234 88 12
-0.8856743 -2.1412199 -0.97009486 234 88 12
-0.89518845 -2.3311288 -1.0012865 234 88 12
-0.88912189 -2.1269641 -0.96889079 234 88 12
-0.89481634 -2.3329346 -1.0015478 234 88 12
-0.88639832 -2.0969145 -0.96401429 234 88 12
-0.88829088 -2.1705246 -0.97567683 234 88 12
-0.8836146 -2.0753944 -0.96047252 234 88 12
-0.88172626 -2.0784879 -0.96084607 234 88 12
-0.88145709 -2.0927451 -0.96306729 234 88 12
-0.8921265 -2.1928935 -0.98005116 234 88 12
-0.88688445 -2.0528133 -0.95825684 234 88 12
-0.88460594 -2.015599 -0.95241559 234 88 12
-0.88123995 -2.0484087 -0.95725417 234 88 12
-0.88105321 -2.067241 -0.96013254 234 88 12
-0.87947011 -2.1091163 -0.96646523 234 88 12
-0.88861501 -2.0400045 -0.95756513 234 88 12
-0.88384408 -1.9968696 -0.9508279 234 88 12
-0.89040965 -2.2287366 -0.98596323 234 88 12
-0.88043565 -2.0067706 -0.95211941 234 88 12
-0.8924526 -2.1867173 -0.98043352 234 88 12
-0.88813335 -2.0253029 -0.95655531 234 88 12
-0.88650697 -2.0078211 -0.95390517 234 88 12
-0.88687044 -2.06163 -0.96180564 234 88 12
-0.88159961 -1.933646 -0.94277078 234 88 12
-0.87916195 -2.0343623 -0.95738608 234 88 12
-0.85640454 -1.7822638 -0.91920751 234 88 12
-0.8521083 -1.7504319 -0.91430813 234 88 12
-0.8827467 -1.9735736 -0.95008636 234 88 12
-0.87981045 -1.9304266 -0.94375855 234 88 12
-0.87720942 -1.9710664 -0.94942892 234 88 12
-0.88653964 -2.2319252 -0.98723119 234 88 12
-0.85213524 -1.7830336 -0.92118979 234 88 12
-0.89082968 -2.1152318 -0.97167784 234 88 12
-0.88653314 -1.9706546 -0.95127934 234 88 12
-0.88305247 -1.9449981 -0.94751626 234 88 12
-0.88063109 -1.9574834 -0.94913071 234 88 12
-0.87553841 -1.905682 -0.94163489 234 88 12
-0.87379378 -1.9861798 -0.95277447 234 88 12
-0.87598485 -2.0438666 -0.96093863 234 88 12
-0.86452675 -1.8837097 -0.93798912 234 88 12
-0.822878 -1.3475301 -0.86098468 234 88 12
-0.81941956 -1.3488358 -0.86098468 234 88 12
-0.81836969 -1.3809 -0.86540318 234 88 12
-0.82349581 -1.4858519 -0.88031662 234 88 12
-0.88111979 -1.9359127 -0.94767576 234 88 12
-0.88571155 -2.1199708 -0.97295761 234 88 12
-0.87095189 -1.9126418 -0.94398677 234 88 12
-0.86245334 -1.8546702 -0.93566161 234 88 12
-0.88996965 -2.2837451 -0.99546218 234 88 12
-0.81773508 -1.3315725 -0.86218309 234 88 12
-0.81434214 -1.3344165 -0.86239582 234 88 12
-0.8113907 -1.3425055 -0.86334491 234 88 12
-0.80893832 -1.3558697 -0.86503744 234 88 12
-0.87778032 -1.8916398 -0.94316107 234 88 12
-0.87765813 -1.9279464 -0.94797051 234 88 12
-0.87081778 -1.8088191 -0.93182731 234 88 12
-0.88835663 -2.2548101 -0.99186045 234 88 12
-0.86890149 -1.9774816 -0.95410228 234 88 12
-0.82762301 -1.4241297 -0.87864035 234 88 12
-0.80992901 -1.3716974 -0.87079984 234 88 12
-0.8021071 -1.3234147 -0.86400408 234 88 12
-0.87169617 -1.7897302 -0.93137354 234 88 12
-0.8726517 -1.8545126 -0.93979049 234 88 12
-0.86994112 -1.8348839 -0.93712211 234 88 12
-0.86820847 -1.8367237 -0.93727529 234 88 12
-0.86873955 -1.8793085 -0.94280344 234 88 12
-0.86850262 -1.9297826 -0.94931352 234 88 12
-0.8755343 -2.0601182 -0.96649677 234 88 12
-0.81978118 -1.320935 -0.8682695 234 88 12
-0.82424355 -1.4275509 -0.88226271 234 88 12
-0.81326473 -1.3305725 -0.86919683 234 88 12
-0.81107938 -1.3478951 -0.87132847 234 88 12
-0.80161172 -1.3221025 -0.86753404 234 88 12
-0.88776761 -1.9972551 -0.96026909 234 88 12
-0.87605125 -1.8985739 -0.94729996 234 88 12
-0.85862505 -1.8057827 -0.93480051 234 88 12
-0.82539624 -1.3553457 -0.87656361 234 88 12
-0.81586117 -1.3223755 -0.87196362 234 88 12
-0.81502485 -1.4388279 -0.886572 234 88 12
-0.80231732 -1.3341007 -0.87279528 234 88 12
-0.88759494 -1.9967978 -0.96149951 234 88 12
-0.88528556 -2.0413883 -0.96684963 234 88 12
-0.86973333 -1.8737586 -0.94561732 234 88 12
-0.8813079 -2.1507115 -0.98004431 234 88 12
-0.82371855 -1.3368686 -0.8777892 234 88 12
-0.8190645 -1.3219947 -0.875754 234 88 12
-0.81002414 -1.3852948 -0.88308269 234 88 12
-0.88044912 -1.979022 -0.9603563 234 88 12
-0.86963642 -1.8756788 -0.94757551 234 88 12
-0.86461365 -1.8167197 -0.94033527 234 88 12
-0.86668611 -1.8828689 -0.94829839 234 88 12
-0.83078289 -1.5958662 -0.91253996 234 88 12
-0.80826241 -1.3692265 -0.88456422 234 88 12
-0.88895094 -2.1062274 -0.9767884 234 88 12
-0.88146937 -2.008522 -0.96516895 234 88 12
-0.87289017 -1.9109335 -0.95351517 234 88 12
-0.86876273 -1.8934296 -0.95131195 234 88 12
-0.87029612 -1.9687117 -0.96008009 234 88 12
-0.87983102 -2.1312621 -0.97928393 234 88 12
-0.82153678 -1.3170964 -0.88263774 234 88 12
-0.81424445 -1.3166521 -0.88226819 234 88 12
-0.81136048 -1.3260503 -0.8832286 234 88 12
-0.81027424 -1.3560981 -0.8866542 234 88 12
-0.88196307 -1.9555001 -0.96049458 234 88 12
-0.8930707 -2.2919323 -0.99871224 234 88 12
-0.88099653 -2.0748665 -0.97384638 234 88 12
-0.86752224 -1.8750821 -0.95086008 234 88 12
-0.84064257 -1.4603212 -0.90318602 234 88 12
-0.85322899 -1.7050149 -0.93117338 234 88 12
-0.83795255 -1.5540618 -0.9135896 234 88 12
-0.81878275 -1.3341091 -0.88809925 234 88 12
-0.88735372 -2.0565865 -0.97314525 234 88 12
-0.88527793 -2.0234246 -0.96945113 234 88 12
-0.87474155 -1.9545004 -0.96151757 234 88 12
-0.87128013 -1.9435594 -0.96018469 234 88 12
-0.8678177 -1.9107521 -0.95647222 234 88 12
-0.83323056 -1.399019 -0.89936209 234 88 12
-0.83044153 -1.4068263 -0.90009707 234 88 12
-0.88485432 -2.0145907 -0.9696945 234 88 12
-0.88166958 -2.0242248 -0.97058368 234 88 12
-0.86458838 -1.8313127 -0.94955909 234 88 12
-0.84355831 -1.5192355 -0.91581011 234 88 12
-0.86701787 -1.8460337 -0.95301527 234 88 12
-0.83688688 -1.4664586 -0.91309738 234 88 12
-0.8845067 -2.0747077 -0.97805279 234 88 12
-0.88188112 -2.0359976 -0.97413194 234 88 12
-0.88077384 -2.0364158 -0.97413194 234 88 12
-0.87242424 -1.9196467 -0.96228874 234 88 12
-0.86516851 -1.8164566 -0.95182735 234 88 12
-0.86873072 -1.9088101 -0.96108085 234 88 12
-0.85435033 -1.7031074 -0.94022977 234 88 12
-0.88120568 -2.02334 -0.97404426 234 88 12
-0.86401671 -1.7631044 -0.94859308 234 88 12
-0.85883993 -1.7450196 -0.9466809 234 88 12
-0.85225528 -1.6737832 -0.93964624 234 88 12
-0.84222645 -1.5577749 -0.92821532 234 88 12
-0.89261627 -2.2775099 -0.99903262 234 88 12
-0.88104576 -2.0229163 -0.97518402 234 88 12
-0.84504616 -1.5179381 -0.92742741 234 88 12
-0.83941048 -1.474293 -0.92321205 234 88 12
-0.88717896 -2.1506066 -0.98790789 234 88 12
-0.84025466 -1.3885705 -0.91868621 234 88 12
-0.84833145 -1.5781379 -0.93578553 234 88 12
-0.83604997 -1.4267305 -0.92193288 234 88 12
-0.86697167 -1.7955791 -0.957663 234 88 12
-0.85681701 -1.6425337 -0.94425547 234 88 12
-0.83796394 -1.3551495 -0.91908622 234 88 12
-0.83237731 -1.3192545 -0.91583824 234 88 12
-0.8356154 -1.4255794 -0.92502964 234 88 12
-0.87826198 -1.9977144 -0.97656554 234 88 12
-0.83576453 -1.3237518 -0.91987264 234 88 12
-0.85911322 -1.5433042 -0.94141537 234 88 12
-0.853706 -1.5453457 -0.94141537 234 88 12
-0.84318781 -1.4030416 -0.92987853 234 88 12
-0.83415204 -1.3029007 -0.92171133 234 88 12
-0.89460677 -2.3402579 -1.0054396 234 88 12
1.0972389 -2.4386432 -0.41689491 234 88 12
1.0212746 -2.2562544 -0.41246769 234 88 12
0.99928749 -2.2006326 -0.41110143 234 88 12
1.0078534 -2.2188585 -0.41156188 234 88 12
1.0530622 -2.3284748 -0.41427201 234 88 12
1.0960734 -2.4349916 -0.41689691 234 88 12
1.0295761 -2.2837963 -0.41384169 234 88 12
0.99544483 -2.1997402 -0.412108 234 88 12
1.0307089 -2.2808592 -0.41379935 234 88 12
1.0051869 -2.2123239 -0.41240388 234 88 12
1.0899304 -2.4240654 -0.41691124 234 88 12
0.99287242 -2.1879985 -0.41298705 234 88 12
1.0133886 -2.2248878 -0.41363403 234 88 12
1.0832746 -2.4002433 -0.41653502 234 88 12
1.0294896 -2.2889509 -0.415337 234 88 12
0.98348165 -2.1832993 -0.41399503 234 88 12
0.97139251 -2.1496847 -0.41358021 234 88 12
0.97130513 -2.1395862 -0.41347253 234 88 12
0.98739225 -2.1748383 -0.41392383 234 88 12
0.98351532 -2.1623547 -0.4137727 234 88 12
1.0002586 -2.1915898 -0.4141632 234 88 12
0.90258092 -1.9321164 -0.41094053 234 88 12
0.8933937 -1.9020315 -0.41057706 234 88 12
1.0339426 -2.3005278 -0.41613686 234 88 12
0.98606902 -2.1918855 -0.41519722 234 88 12
0.98708117 -2.1914306 -0.41519722 234 88 12
1.0133057 -2.2463033 -0.41567844 234 88 12
0.94588822 -2.079149 -0.414253 234 88 12
0.97328895 -2.1375268 -0.41476333 234 88 12
0.98048115 -2.14834 -0.41486475 234 88 12
0.99878615 -2.1908545 -0.41523105 234 88 12
1.0570533 -2.3343229 -0.41645584 234 88 12
1.0575188 -2.3341136 -0.41645584 234 88 12
0.76211894 -1.557678 -0.40989217 234 88 12
0.76543534 -1.5561869 -0.40989217 234 88 12
0.75900131 -1.5285259 -0.4096716 234 88 12
0.97120076 -2.1616752 -0.41615367 234 88 12
0.96661234 -2.1452091 -0.41608292 234 88 12
0.97505867 -2.1612418 -0.41615865 234 88 12
0.95593327 -2.114064 -0.41594562 234 88 12
0.94094497 -2.0755501 -0.4157728 234 88 12
0.94238466 -2.074903 -0.4157728 234 88 12
0.95767576 -2.1034403 -0.41590804 234 88 12
0.9695189 -2.1248009 -0.41600996 234 88 12
0.95918578 -2.0955021 -0.41588032 234 88 12
0.99198848 -2.1738164 -0.41623574 234 88 12
0.98044634 -2.1378174 -0.41607845 234 88 12
0.74727273 -1.5293449 -0.41335419 234 88 12
0.82684523 -1.7275665 -0.41424787 234 88 12
0.7881909 -1.6166596 -0.41375792 234 88 12
0.94317812 -2.0885141 -0.41733876 234 88 12
0.96663594 -2.1387405 -0.41736448 234 88 12
0.9328565 -2.0567231 -0.41732332 234 88 12
0.93442708 -2.0519228 -0.41732159 234 88 12
0.94985223 -2.0765326 -0.41733494 234 88 12
0.95990342 -2.0973072 -0.41734564 234 88 12
0.966353 -2.1095135 -0.41735205 234 88 12
0.74756134 -1.5301805 -0.41706505 234 88 12
0.75329649 -1.534718 -0.41706806 234 88 12
0.76078385 -1.5440425 -0.41707343 234 88 12
0.79107112 -1.614796 -0.41710916 234 88 12
0.75668424 -1.5116704 -0.41705894 234 88 12
0.91996771 -2.0267177 -0.41906402 234 88 12
0.92569149 -2.0311654 -0.41904318 234 88 12
0.93500584 -2.0445876 -0.41899091 234 88 12
1.0045998 -2.2054994 -0.4184204 234 88 12
0.98805988 -2.1607316 -0.41857535 234 88 12
0.85397422 -1.7913401 -0.41985074 234 88 12
0.79085845 -1.6143229 -0.4204604 234 88 12
0.90941983 -1.9973696 -0.42103454 234 88 12
0.93212682 -2.0464852 -0.42065746 234 88 12
1.0271182 -2.2641597 -0.41900244 234 88 12
1.0017102 -2.1982684 -0.41949385 234 88 12
0.73736364 -1.5248811 -0.42452943 234 88 12
0.75721329 -1.5241596 -0.42447728 234 88 12
0.91770309 -2.016876 -0.42267546 234 88 12
0.89970177 -1.9641895 -0.42326745 234 88 12
0.94884539 -2.0741286 -0.42198142 234 88 12
0.74407208 -1.5419692 -0.42806146 234 88 12
0.74184477 -1.5260663 -0.42822611 234 88 12
0.7700485 -1.5586967 -0.42778477 234 88 12
0.7602185 -1.5216098 -0.42818904 234 88 12
1.0890244 -2.4224267 -0.41813046 234 88 12
0.95789057 -2.1288991 -0.42275515 234 88 12
0.98105633 -2.1749461 -0.42201436 234 88 12
0.92273015 -2.0100448 -0.42452192 234 88 12
0.86639571 -1.8588785 -0.42683756 234 88 12
0.78329825 -1.6137543 -0.43054384 234 88 12
0.7629506 -1.5501829 -0.43149793 234 88 12
0.76982212 -1.5581932 -0.43135229 234 88 12
0.89448404 -1.9516972 -0.42749384 234 88 12
0.8618086 -1.8605331 -0.42924008 234 88 12
0.7376008 -1.525704 -0.43568477 234 88 12
0.84081125 -1.764623 -0.43097797 234 88 12
0.98390925 -2.1842868 -0.42411119 234 88 12
1.005818 -2.2314444 -0.42390266 234 88 12
0.93986714 -2.0565219 -0.4286564 234 88 12
0.77989638 -1.6595647 -0.43955186 234 88 12
0.82028228 -1.7354846 -0.43736577 234 88 12
0.7506218 -1.5387188 -0.44266582 234 88 12
0.9734202 -2.1447532 -0.42751938 234 88 12
0.91709316 -2.0012448 -0.43201065 234 88 12
0.85953653 -1.8485167 -0.43676189 234 88 12
0.79146123 -1.6624734 -0.44252515 234 88 12
0.78269917 -1.6311876 -0.44346222 234 88 12
0.95281214 -2.0957739 -0.43052688 234 88 12
0.95138234 -2.0804899 -0.43100411 234 88 12
0.85413653 -1.8283541 -0.43986875 234 88 12
0.98605782 -2.1835644 -0.42856014 234 88 12
0.98258072 -2.1696057 -0.42907733 234 88 12
0.94223648 -2.0665293 -0.43311617 234 88 12
0.89561063 -1.9436544 -0.43790874 234 88 12
0.87439072 -1.8854401 -0.44016629 234 88 12
0.79242092 -1.6736562 -0.44845077 234 88 12
0.82348341 -1.7437695 -0.4456493 234 88 12
0.99588174 -2.2035801 -0.42877442 234 88 12
0.97802049 -2.1588876 -0.4307079 234 88 12
0.88579446 -1.9309616 -0.44058713 234 88 12
0.92787838 -2.0228615 -0.43652305 234 88 12
0.86159462 -1.8471433 -0.44405997 234 88 12
0.76340204 -1.5915411 -0.45505252 234 88 12
0.91325283 -1.9969432 -0.43955836 234 88 12
0.82389587 -1.7677553 -0.45033872 234 88 12
0.73581797 -1.5418463 -0.46096483 234 88 12
0.7758044 -1.6321112 -0.45663276 234 88 12
1.0241203 -2.2693367 -0.4274253 234 88 12
0.84288293 -1.8279364 -0.45010129 234 88 12
0.84521788 -1.8268865 -0.45010129 234 88 12
0.75443572 -1.5786028 -0.46263871 234 88 12
0.9688828 -2.137423 -0.43550947 234 88 12
0.83906233 -1.8119774 -0.45343688 234 88 12
0.73197782 -1.5423313 -0.46828046 234 88 12
0.80858922 -1.7456276 -0.46000916 234 88 12
0.78994334 -1.6927869 -0.46307319 234 88 12
0.75705171 -1.6038952 -0.46826202 234 88 12
2.4428399 -1.089178 0.4135215 234 88 12
2.4473383 -1.0939337 0.41449735 234 88 12
2.4242668 -1.0717813 0.40918651 234 88 12
2.2948539 -0.94789153 0.37942359 234 88 12
2.3923767 -1.040171 0.40177414 234 88 12
2.4498422 -1.0957651 0.41503233 234 88 12
2.2619376 -0.92411834 0.37140733 234 88 12
2.3141494 -0.96819544 0.38324633 234 88 12
2.2498031 -0.90615577 0.36808544 234 88 12
2.2605639 -0.91373765 0.37041441 234 88 12
2.2046089 -0.85477835 0.35686037 234 88 12
2.2298808 -0.89907295 0.3631255 234 88 12
2.2833664 -0.94597596 0.37565029 234 88 12
2.2421927 -0.89885479 0.36517686 234 88 12
2.2531178 -0.9078657 0.3676922 234 88 12
2.2734411 -0.92107028 0.37210262 234 88 12
2.2212424 -0.89275885 0.35999334 234 88 12
2.2300403 -0.89914465 0.36199507 234 88 12
2.204011 -0.8724888 0.35547405 234 88 12
2.1986253 -0.86251748 0.3537811 234 88 12
2.1870608 -0.84279811 0.35027641 234 88 12
2.4132516 -1.058427 0.4057087 234 88 12
2.2111702 -0.88369846 0.35630986 234 88 12
2.2370846 -0.90540314 0.36255759 234 88 12
2.1751399 -0.84609354 0.34703839 234 88 12
2.1916554 -0.85941827 0.35098016 234 88 12
2.2201846 -0.8762033 0.35729843 234 88 12
2.0943613 -0.74112362 0.32462525 234 88 12
2.3265066 -0.98826253 0.38406959 234 88 12
2.1918428 -0.85950255 0.34965253 234 88 12
2.1454613 -0.81488383 0.33777669 234 88 12
2.1721594 -0.83393759 0.34407988 234 88 12
2.2392881 -0.89294004 0.36081997 234 88 12
2.2454154 -0.89741647 0.36227491 234 88 12
2.3608296 -1.0074228 0.39174426 234 88 12
2.0443609 -0.69111127 0.30975953 234 88 12
2.0961609 -0.73782015 0.32277185 234 88 12
2.1291149 -0.80393356 0.33229008 234 88 12
2.1456814 -0.81498283 0.33621675 234 88 12
2.1501324 -0.81708592 0.33720079 234 88 12
2.1809659 -0.83847445 0.34457657 234 88 12
2.2107415 -0.86533374 0.35220796 234 88 12
2.2578111 -0.90665781 0.3641786 234 88 12
2.3671021 -1.0136003 0.39287454 234 88 12
1.7530167 -0.39545128 0.23022276 234 88 12
1.7767994 -0.41468003 0.23613581 234 88 12
1.7980239 -0.43160924 0.24139386 234 88 12
1.7524793 -0.38036576 0.22888803 234 88 12
2.1542685 -0.83264422 0.33768097 234 88 12
2.0537624 -0.73245925 0.31061569 234 88 12
2.1840622 -0.8485952 0.34455478 234 88 12
2.2161567 -0.87046617 0.35235134 234 88 12
2.1961396 -0.84939754 0.34686768 234 88 12
2.1153965 -0.76866812 0.32510394 234 88 12
1.7274617 -0.37943068 0.22042458 234 88 12
1.8286761 -0.47549772 0.24727729 234 88 12
1.7488692 -0.38614482 0.2249667 234 88 12
1.7271707 -0.35916474 0.21867616 234 88 12
1.7384049 -0.36563817 0.2213064 234 88 12
1.7527896 -0.37549809 0.22480561 234 88 12
2.1551042 -0.83135247 0.33617797 234 88 12
2.1539779 -0.82837933 0.33571103 234 88 12
2.1051862 -0.78188074 0.32249883 234 88 12
2.1466391 -0.81769091 0.33340892 234 88 12
2.1166365 -0.78565502 0.32499108 234 88 12
2.1689842 -0.82679075 0.33842033 234 88 12
2.3770251 -1.0250536 0.39475539 234 88 12
1.7490685 -0.40057588 0.22249314 234 88 12
1.8002546 -0.44686908 0.23614176 234 88 12
1.951739 -0.59119761 0.27715889 234 88 12
1.734015 -0.36583853 0.21667892 234 88 12
1.7499318 -0.37224776 0.22024243 234 88 12
2.0829136 -0.75899541 0.31439516 234 88 12
2.0938673 -0.76669234 0.31717974 234 88 12
2.1267903 -0.7950061 0.32599908 234 88 12
2.1163363 -0.78301114 0.32293776 234 88 12
2.1120191 -0.77667218 0.32155314 234 88 12
2.1279919 -0.78958511 0.32576036 234 88 12
2.1431358 -0.80190504 0.32975596 234 88 12
2.1545517 -0.81081778 0.33273542 234 88 12
1.732815 -0.38908592 0.21463373 234 88 12
1.7443496 -0.39076328 0.21700773 234 88 12
1.8021182 -0.4439888 0.23279051 234 88 12
2.2500269 -0.91798133 0.35941795 234 88 12
2.169014 -0.8436867 0.33690041 234 88 12
2.1242459 -0.79905856 0.32414109 234 88 12
2.0912344 -0.76172769 0.31434116 234 88 12
2.0791054 -0.74792153 0.31073248 234 88 12
2.2995331 -0.95071483 0.37205735 234 88 12
1.9382714 -0.58427429 0.26853576 234 88 12
1.7288381 -0.35491258 0.20702377 234 88 12
2.1858552 -0.86226469 0.34046462 234 88 12
2.061089 -0.72295821 0.3029044 234 88 12
1.7202128 -0.3860487 0.20422259 234 88 12
1.7266659 -0.38740537 0.20563821 234 88 12
1.9397476 -0.58199275 0.26588109 234 88 12
1.7349532 -0.3708885 0.20581087 234 88 12
2.315676 -0.97751188 0.37613353 234 88 12
2.0667758 -0.74376851 0.30389807 234 88 12
2.0917535 -0.76196104 0.31066412 234 88 12
1.9815867 -0.64968276 0.27788243 234 88 12
1.7218428 -0.39229509 0.20126496 234 88 12
1.7964609 -0.45551491 0.22229166 234 88 12
1.8052225 -0.45524919 0.22405519 234 88 12
1.8066037 -0.4521772 0.22405519 234 88 12
1.7611297 -0.40192455 0.21016534 234 88 12
2.1671126 -0.83981496 0.33168244 234 88 12
2.2039154 -0.87157267 0.34229165 234 88 12
2.183974 -0.84975392 0.33611256 234 88 12
2.1667044 -0.82796556 0.33049119 234 88 12
1.7334983 -0.40329206 0.20086086 234 88 12
1.7286568 -0.39371654 0.19896114 234 88 12
1.9154757 -0.5719226 0.2544032 234 88 12
1.7983288 -0.45262808 0.21893276 234 88 12
1.9177654 -0.56682998 0.2544032 234 88 12
1.7601531 -0.40544346 0.20659781 234 88 12
1.7403116 -0.37573233 0.19970246 234 88 12
2.2930648 -0.95302761 0.36755329 234 88 12
1.8227845 -0.49786392 0.22491983 234 88 12
1.7491761 -0.39902118 0.19997236 234 88 12
1.7399874 -0.38498163 0.19669648 234 88 12
2.2161953 -0.88264114 0.34336355 234 88 12
2.2166986 -0.88152134 0.34336355 234 88 12
2.1327715 -0.79991353 0.31743351 234 88 12
2.1555834 -0.81722009 0.32401028 234 88 12
1.9502796 -0.61590534 0.26041701 234 88 12
1.7226694 -0.39227876 0.18987194 234 88 12
1.7360533 -0.4003751 0.19353172 234 88 12
1.7251382 -0.37982595 0.18919908 234 88 12
2.2352498 -0.90145695 0.34812048 234 88 12
2.1463714 -0.80629927 0.31933618 234 88 12
1.7888917 -0.45610362 0.20676067 234 88 12
1.7897408 -0.45242813 0.20658505 234 88 12
1.8440292 -0.49701905 0.22283678 234 88 12
2.2258203 -0.88977051 0.34369731 234 88 12
1.9966028 -0.66007817 0.26979345 234 88 12
2.085031 -0.74260139 0.29769588 234 88 12
1.7625029 -0.42561963 0.19432808 234 88 12
1.7639701 -0.42235634 0.19432808 234 88 12
1.8424398 -0.4952096 0.2190506 234 88 12
2.0251737 -0.69318032 0.27718094 234 88 12
2.0508511 -0.71482265 0.28518072 234 88 12
1.9772421 -0.64128464 0.26108015 234 88 12
1.8975862 -0.5608936 0.2349173 234 88 12
1.8148867 -0.47209626 0.20721291 234 88 12
2.2181556 -0.88095886 0.3385976 234 88 12
2.0372925 -0.71011096 0.27943707 234 88 12
2.0048342 -0.67372316 0.26822874 234 88 12
1.9775865 -0.6414395 0.25864041 234 88 12
1.7803227 -0.44248196 0.1928128 234 88 12
2.306299 -0.96482897 0.36669344 234 88 12
2.1646876 -0.83310479 0.31984729 234 88 12
2.0904994 -0.75977683 0.29485226 234 88 12
1.9116771 -0.58511961 0.23482385 234 88 12
1.8077401 -0.4821071 0.1997766 234 88 12
1.7986982 -0.46016222 0.19536611 234 88 12
1.8565056 -0.51250863 0.21433981 234 88 12
2.2011762 -0.86670047 0.33053449 234 88 12
1.9562346 -0.63390654 0.24770352 234 88 12
1.7585411 -0.44413292 0.18064953 234 88 12
1.9120671 -0.58529496 0.23206085 234 88 12
1.7977784 -0.46347618 0.19200638 234 88 12
2.0617776 -0.73523331 0.28142488 234 88 12
1.9565917 -0.63406706 0.24517356 234 88 12
1.7349284 -0.41680107 0.16833869 234 88 12
1.7364461 -0.41342521 0.16833869 234 88 12
1.7242783 -0.39686427 0.16361965 234 88 12
1.7309701 -0.39841616 0.1653976 234 88 12
1.8908805 -0.5760535 0.22011535 234 88 12
2.3187799 -0.97240579 0.36817259 234 88 12
1.8062153 -0.48429734 0.1893561 234 88 12
0.35404915 -2.172097 -1.5501485 234 88 12
0.31323433 -2.0221701 -1.5044971 234 88 12
0.30727664 -1.9940561 -1.4960181 234 88 12
0.35208249 -2.1622794 -1.5471931 234 88 12
0.29394481 -1.9355459 -1.478327 234 88 12
0.28048018 -1.9149876 -1.4728205 234 88 12
0.30067137 -1.9826399 -1.4932449 234 88 12
0.29370123 -1.9541966 -1.4847299 234 88 12
0.29117543 -1.9331205 -1.4785457 234 88 12
0.29916617 -1.9475486 -1.4830763 234 88 12
0.31592366 -2.0438528 -1.5122163 234 88 12
0.31159928 -2.026576 -1.5071057 234 88 12
0.27302814 -1.8792708 -1.4634515 234 88 12
0.28558823 -1.907254 -1.4719895 234 88 12
0.29114503 -1.9242163 -1.4770687 234 88 12
0.29883316 -1.9417632 -1.4824136 234 88 12
0.30460697 -1.9613311 -1.4882431 234 88 12
0.29878992 -1.9279819 -1.4784966 234 88 12
0.27106494 -1.890324 -1.4677168 234 88 12
0.28168622 -1.9227136 -1.4772916 234 88 12
0.26114017 -1.8412955 -1.453508 234 88 12
0.26956597 -1.8614461 -1.4595488 234 88 12
0.25806737 -1.7951082 -1.4404129 234 88 12
0.29609737 -1.9258285 -1.4788316 234 88 12
0.26741767 -1.872939 -1.4639498 234 88 12
0.27493286 -1.8901823 -1.4690663 234 88 12
0.25725245 -1.8041161 -1.444434 234 88 12
0.27260438 -1.8569094 -1.4597492 234 88 12
0.28647634 -1.9055674 -1.4738522 234 88 12
0.33336866 -2.0761447 -1.5232126 234 88 12
0.23677532 -1.6518807 -1.4013571 234 88 12
0.25403666 -1.7189001 -1.4206976 234 88 12
0.2952534 -1.972574 -1.4936975 234 88 12
0.28118023 -1.9204212 -1.4788145 234 88 12
0.24564961 -1.7792099 -1.4386325 234 88 12
0.24628717 -1.7752829 -1.4375883 234 88 12
0.25369421 -1.7491398 -1.4307795 234 88 12
0.14343923 -1.226769 -1.2830924 234 88 12
0.16787089 -1.3199896 -1.3096625 234 88 12
0.14862779 -1.2153709 -1.280212 234 88 12
0.25396809 -1.8358938 -1.4559016 234 88 12
0.24652652 -1.775793 -1.4393662 234 88 12
0.22942746 -1.7055634 -1.4196705 234 88 12
0.25464162 -1.7872586 -1.4428185 234 88 12
0.26366147 -1.8159946 -1.4509674 234 88 12
0.26298055 -1.8071579 -1.4485545 234 88 12
0.29303741 -1.9172801 -1.4795824 234 88 12
0.27335423 -1.8306251 -1.4553431 234 88 12
0.34439445 -2.1248157 -1.5378224 234 88 12
0.28488067 -1.8674551 -1.4657859 234 88 12
0.13939138 -1.2252634 -1.2861674 234 88 12
0.14453287 -1.2310724 -1.2879623 234 88 12
0.15436916 -1.2413223 -1.2911633 234 88 12
0.35739839 -2.1860435 -1.5549968 234 88 12
0.25455102 -1.8272343 -1.4550247 234 88 12
0.24133955 -1.7628179 -1.4373075 234 88 12
0.23190929 -1.721604 -1.425929 234 88 12
0.24131407 -1.7426888 -1.431951 234 88 12
0.26674354 -1.8217949 -1.4541126 234 88 12
0.26280832 -1.7932357 -1.446342 234 88 12
0.33929244 -2.1048956 -1.5326134 234 88 12
0.28865319 -1.8834754 -1.4714838 234 88 12
0.19908123 -1.4470236 -1.3514379 234 88 12
0.15105897 -1.2076579 -1.2856488 234 88 12
0.24476001 -1.7685469 -1.4406224 234 88 12
0.22690782 -1.6876396 -1.4186128 234 88 12
0.24787264 -1.7536337 -1.4368428 234 88 12
0.23639166 -1.7009398 -1.4225144 234 88 12
0.24714272 -1.736298 -1.4322609 234 88 12
0.14188047 -1.2512915 -1.3003981 234 88 12
0.20833001 -1.5019455 -1.3690671 234 88 12
0.26356936 -1.8579659 -1.4662133 234 88 12
0.27757141 -1.902553 -1.4783565 234 88 12
0.25470015 -1.8106176 -1.4535744 234 88 12
0.23727576 -1.7336831 -1.4329093 234 88 12
0.22664261 -1.6783133 -1.4181179 234 88 12
0.25061545 -1.7571068 -1.4395441 234 88 12
0.24437657 -1.7170421 -1.4289035 234 88 12
0.23595993 -1.6739645 -1.4173898 234 88 12
0.31335458 -1.9931153 -1.5033345 234 88 12
0.13363752 -1.2151827 -1.2942249 234 88 12
0.16280273 -1.3108374 -1.3202388 234 88 12
0.15288442 -1.2329811 -1.2996554 234 88 12
0.26176068 -1.851334 -1.4657435 234 88 12
0.2786184 -1.9017011 -1.4793175 234 88 12
0.26513132 -1.8430003 -1.463757 234 88 12
0.28364077 -1.9069506 -1.4808699 234 88 12
0.21795908 -1.6443937 -1.4110451 234 88 12
0.12959531 -1.2137697 -1.2973397 234 88 12
0.13848934 -1.2189652 -1.2990413 234 88 12
0.14914438 -1.2494158 -1.3072673 234 88 12
0.15706854 -1.2518104 -1.3082128 234 88 12
0.15259883 -1.2134556 -1.2982285 234 88 12
0.30944195 -2.0201149 -1.5115572 234 88 12
0.2484574 -1.7478493 -1.4404434 234 88 12
0.23494434 -1.685957 -1.4242922 234 88 12
0.20776103 -1.5659424 -1.3929328 234 88 12
0.28899181 -1.8946339 -1.4791006 234 88 12
0.13279027 -1.2266883 -1.3043644 234 88 12
0.14880711 -1.2473708 -1.3102396 234 88 12
0.1567325 -1.2497731 -1.3111739 234 88 12
0.29552773 -1.961929 -1.4972295 234 88 12
0.27115586 -1.8695695 -1.4732904 234 88 12
0.25386417 -1.7757573 -1.4492805 234 88 12
0.15203704 -1.3501004 -1.3393823 234 88 12
0.1393255 -1.2044977 -1.302696 234 88 12
0.14313422 -1.2042562 -1.3027921 234 88 12
0.27418631 -1.8849529 -1.4784192 234 88 12
0.26568589 -1.8387955 -1.466772 234 88 12
0.15173531 -1.348271 -1.3420413 234 88 12
0.1425638 -1.2968572 -1.3290797 234 88 12
0.1786065 -1.4328002 -1.3638276 234 88 12
0.27306232 -1.8505411 -1.4712453 234 88 12
0.26090708 -1.7833978 -1.4545512 234 88 12
0.15971495 -1.3532693 -1.3466784 234 88 12
0.13318837 -1.2101899 -1.3110793 234 88 12
0.35994691 -2.19361 -1.5575874 234 88 12
0.30243227 -1.9861615 -1.5059644 234 88 12
0.25960496 -1.815327 -1.4636307 234 88 12
0.19475266 -1.5423455 -1.396125 234 88 12
0.27013692 -1.8271858 -1.466866 234 88 12
0.23991883 -1.696651 -1.4346172 234 88 12
0.15941598 -1.3514566 -1.349313 234 88 12
0.27340806 -1.8669612 -1.4776908 234 88 12
0.2616542 -1.7988983 -1.461274 234 88 12
0.20837481 -1.5762935 -1.4070073 234 88 12
0.22575286 -1.6379104 -1.4221301 234 88 12
0.14480959 -1.2897203 -1.337341 234 88 12
0.34177735 -2.1289079 -1.5420568 234 88 12
0.28813228 -1.9302684 -1.494108 234 88 12
0.25586194 -1.7820046 -1.4586154 234 88 12
0.22455129 -1.6502481 -1.4269741 234 88 12
0.17712216 -1.436929 -1.37587 234 88 12
0.24239336 -1.7357707 -1.4491043 234 88 12
0.24519432 -1.7396487 -1.4500924 234 88 12
0.22811583 -1.6641101 -1.4322528 234 88 12
0.18981338 -1.4887948 -1.3908992 234 88 12
0.25665441 -1.8087393 -1.4676765 234 88 12
0.30037919 -1.9678953 -1.5049888 234 88 12
0.30549073 -1.9839151 -1.5087707 234 88 12
0.23463859 -1.7052836 -1.4436597 234 88 12
0.17389745 -1.4581206 -1.3859801 234 88 12
0.14392824 -1.3129096 -1.3523042 234 88 12
0.15787515 -1.3563939 -1.3625727 234 88 12
0.13724883 -1.2562011 -1.3393389 234 88 12
0.30825922 -2.0004814 -1.5133277 234 88 12
0.25946501 -1.8074092 -1.4689027 234 88 12
0.12075558 -1.2478338 -1.3402456 234 88 12
0.17639583 -1.4560877 -1.3882735 234 88 12
0.12182856 -1.2223637 -1.3346586 234 88 12
0.32578 -2.0655754 -1.5288514 234 88 12
0.2709232 -1.8562055 -1.4813423 234 88 12
0.33049446 -2.0794332 -1.5320349 234 88 12
0.18696298 -1.5190173 -1.4049866 234 88 12
0.11151056 -1.2106172 -1.335198 234 88 12
0.11881463 -1.2094126 -1.335198 234 88 12
0.12450653 -1.2172469 -1.3371063 234 88 12
0.15242641 -1.371609 -1.3746161 234 88 12
0.11481807 -1.2079259 -1.3382342 234 88 12
0.15786412 -1.4277543 -1.3895613 234 88 12
0.14908099 -1.3703645 -1.3771576 234 88 12
0.12436941 -1.260026 -1.353038 234 88 12
0.11849212 -1.2219738 -1.3448118 234 88 12
2.0618355 -1.5436035 -0.83119547 234 88 12
1.895115 -1.3361847 -0.80006236 234 88 12
1.8957533 -1.3353364 -0.80006236 234 88 12
1.985908 -1.4467258 -0.81688946 234 88 12
2.0679417 -1.550932 -0.83240831 234 88 12
1.9500066 -1.4102443 -0.81148165 234 88 12
1.9047229 -1.3543965 -0.80329674 234 88 12
1.8921249 -1.3359029 -0.80081111 234 88 12
1.8888038 -1.3267562 -0.79985458 234 88 12
1.9165943 -1.3541726 -0.80439389 234 88 12
2.0439787 -1.5190837 -0.82796919 234 88 12
1.9220375 -1.3794545 -0.80755758 234 88 12
1.9038857 -1.355006 -0.80423969 234 88 12
1.7636698 -1.1497656 -0.77749115 234 88 12
2.0366163 -1.5090228 -0.82680982 234 88 12
1.8753625 -1.3243977 -0.80068839 234 88 12
1.8532025 -1.2943555 -0.7967571 234 88 12
1.8755045 -1.3139967 -0.8000136 234 88 12
1.9052606 -1.3444966 -0.8046422 234 88 12
1.9914299 -1.4507535 -0.81923109 234 88 12
1.7200985 -1.0926486 -0.77173918 234 88 12
1.7017498 -1.0649064 -0.76829463 234 88 12
1.8663739 -1.3174791 -0.80061007 234 88 12
1.912375 -1.3668152 -0.80766445 234 88 12
1.8422546 -1.2793361 -0.7961275 234 88 12
1.8674819 -1.3023664 -0.79973912 234 88 12
1.7799207 -1.177267 -0.7843197 234 88 12
1.9966441 -1.457635 -0.82061553 234 88 12
1.4675894 -0.76064211 -0.73120922 234 88 12
1.4596549 -0.74432153 -0.72949368 234 88 12
1.4467477 -0.72116768 -0.72691977 234 88 12
1.4720523 -0.74322045 -0.73047554 234 88 12
1.9588184 -1.4261432 -0.81604642 234 88 12
1.8570515 -1.3067521 -0.80035079 234 88 12
1.8018415 -1.2331263 -0.79128987 234 88 12
1.801717 -1.2281816 -0.79097492 234 88 12
1.8059881 -1.2309854 -0.79149759 234 88 12
1.7930003 -1.212575 -0.78929889 234 88 12
1.8261094 -1.2511466 -0.79438865 234 88 12
1.8294908 -1.2531204 -0.79478729 234 88 12
1.8957634 -1.3327022 -0.80512154 234 88 12
1.8567511 -1.2771013 -0.79849857 234 88 12
1.4455251 -0.73808336 -0.73158741 234 88 12
1.5915395 -0.92415756 -0.755018 234 88 12
1.5098761 -0.81136507 -0.74137592 234 88 12
1.4535209 -0.72473031 -0.73141944 234 88 12
1.4491149 -0.71270984 -0.73031759 234 88 12
1.7860215 -1.2143608 -0.79046464 234 88 12
1.7486653 -1.1639384 -0.784518 234 88 12
1.8337785 -1.2586539 -0.79686856 234 88 12
1.8222803 -1.2419823 -0.79496974 234 88 12
1.8829663 -1.3166101 -0.80419737 234 88 12
1.7595412 -1.1572086 -0.78497708 234 88 12
1.7862766 -1.1886698 -0.78895813 234 88 12
1.4487329 -0.74277508 -0.73580235 234 88 12
1.8782581 -1.331648 -0.80581319 234 88 12
1.8232965 -1.2656294 -0.79785633 234 88 12
1.8073684 -1.2446963 -0.79544735 234 88 12
1.8143544 -1.2484354 -0.79619253 234 88 12
1.7085274 -1.1186455 -0.78071886 234 88 12
1.7851471 -1.2084267 -0.79168236 234 88 12
1.7729204 -1.1882348 -0.78959727 234 88 12
1.4526716 -0.74841362 -0.7400791 234 88 12
1.4823942 -0.75880885 -0.74293417 234 88 12
1.7214018 -1.1343824 -0.78458369 234 88 12
1.7887602 -1.2053723 -0.79341412 234 88 12
1.7472907 -1.1510249 -0.78739214 234 88 12
1.7908336 -1.2028074 -0.79342461 234 88 12
1.6256005 -0.98268312 -0.76923347 234 88 12
1.4397587 -0.73802119 -0.74218559 234 88 12
1.4517694 -0.74773473 -0.7435981 234 88 12
1.5092236 -0.81728649 -0.7516253 234 88 12
1.4706203 -0.76087695 -0.74569947 234 88 12
1.4515519 -0.72370911 -0.74226052 234 88 12
1.8636289 -1.3130918 -0.80598694 234 88 12
1.7473048 -1.1686279 -0.79019147 234 88 12
1.7539287 -1.1709529 -0.79077923 234 88 12
1.8024514 -1.2249637 -0.79703796 234 88 12
1.7637814 -1.1746267 -0.7916649 234 88 12
1.7281966 -1.1211411 -0.78634214 234 88 12
1.4345486 -0.73771542 -0.74547833 234 88 12
1.4609363 -0.76590472 -0.74881947 234 88 12
1.5011734 -0.81258231 -0.75410926 234 88 12
1.6057279 -0.94435233 -0.76840812 234 88 12
1.6262006 -0.96695518 -0.77103901 234 88 12
1.4591208 -0.734393 -0.7470277 234 88 12
1.4469131 -0.71195281 -0.74498564 234 88 12
1.6990286 -1.107911 -0.78569543 234 88 12
1.7587903 -1.1770506 -0.79321635 234 88 12
1.7161462 -1.1190568 -0.78741139 234 88 12
1.7548506 -1.1637834 -0.79227966 234 88 12
1.8744121 -1.3081878 -0.80763417 234 88 12
1.9401674 -1.3895375 -0.81617641 234 88 12
1.4314299 -0.74011451 -0.74907207 234 88 12
1.4710279 -0.75666589 -0.75257415 234 88 12
1.4525452 -0.72611493 -0.74978405 234 88 12
2.0488856 -1.5300322 -0.83075744 234 88 12
1.8368607 -1.2820579 -0.80509788 234 88 12
1.8688822 -1.3159544 -0.808801 234 88 12
1.8395536 -1.266703 -0.80452752 234 88 12
1.6566836 -1.0350273 -0.78153419 234 88 12
1.4305106 -0.73942286 -0.75265694 234 88 12
1.4545135 -0.76429492 -0.7554068 234 88 12
1.4374149 -0.73647642 -0.75295871 234 88 12
1.4396701 -0.73347902 -0.75295871 234 88 12
1.4769771 -0.77076626 -0.75716633 234 88 12
1.4423153 -0.71901035 -0.75242817 234 88 12
1.9480152 -1.4120083 -0.81925142 234 88 12
1.750463 -1.1645353 -0.79566109 234 88 12
1.7689584 -1.1816695 -0.79759061 234 88 12
1.5157099 -0.85846746 -0.76707387 234 88 12
1.4415839 -0.74819261 -0.75741667 234 88 12
1.4366159 -0.72403938 -0.75599414 234 88 12
1.81615 -1.2515388 -0.80515665 234 88 12
1.8491815 -1.2889818 -0.80874187 234 88 12
1.8171804 -1.2437711 -0.80487466 234 88 12
1.5168674 -0.85528165 -0.77016044 234 88 12
1.5194981 -0.85355854 -0.77023858 234 88 12
1.8077732 -1.2300372 -0.80521947 234 88 12
1.7984067 -1.2160002 -0.80410969 234 88 12
1.5770345 -0.91797578 -0.77929372 234 88 12
1.8584932 -1.3023034 -0.81226707 234 88 12
1.7843008 -1.2012372 -0.80433333 234 88 12
1.4775516 -0.80649501 -0.77244979 234 88 12
1.4878056 -0.8033756 -0.77286738 234 88 12
1.5075543 -0.82357955 -0.77471304 234 88 12
1.6675183 -1.0427221 -0.79417062 234 88 12
1.5305309 -0.86383855 -0.78060955 234 88 12
1.4647169 -0.76846039 -0.77373981 234 88 12
1.6908677 -1.0795686 -0.79887193 234 88 12
1.7141422 -1.1054462 -0.80088371 234 88 12
1.6495197 -1.0201818 -0.79482287 234 88 12
1.5797369 -0.92713034 -0.78824335 234 88 12
1.4717352 -0.78358865 -0.77807707 234 88 12
1.5317773 -0.85586447 -0.78346241 234 88 12
1.8905984 -1.3393058 -0.8184855 234 88 12
1.7663151 -1.1796545 -0.80768192 234 88 12
1.7209455 -1.1205971 -0.80371225 234 88 12
1.6733656 -1.0543568 -0.79940599 234 88 12
1.470876 -0.78294206 -0.78142834 234 88 12
2.0175359 -1.490922 -0.8294639 234 88 12
1.9286653 -1.3811761 -0.82237506 234 88 12
1.7465457 -1.1555048 -0.80782408 234 88 12
1.7476743 -1.1540048 -0.80782408 234 88 12
1.5881269 -0.95171762 -0.79493392 234 88 12
1.4963206 -0.83182645 -0.78740805 234 88 12
1.4983239 -0.82916373 -0.78740805 234 88 12
1.4368103 -0.74542093 -0.78225935 234 88 12
1.5426451 -0.87077796 -0.79053527 234 88 12
1.9385694 -1.395769 -0.8239916 234 88 12
1.8117465 -1.2406129 -0.81461471 234 88 12
1.4495473 -0.78451288 -0.78745878 234 88 12
1.440932 -0.75115204 -0.78616071 234 88 12
1.4610201 -0.77119398 -0.78751463 234 88 12
1.8447756 -1.2788539 -0.81826198 234 88 12
1.6250449 -1.0064117 -0.80311823 234 88 12
1.4156477 -0.73709661 -0.78842682 234 88 12
1.4680655 -0.78621644 -0.79161358 234 88 12
1.5660982 -0.93420303 -0.80187029 234 88 12
1.6156043 -0.99106842 -0.80489928 234 88 12
1.4463896 -0.77590507 -0.79403245 234 88 12
1.436316 -0.75766611 -0.79325151 234 88 12
1.5653926 -0.93367213 -0.80462193 234 88 12
2.0567942 -1.5374388 -0.83298272 234 88 12
1.1883764 -1.0811607 -1.8560561 234 88 12
1.2005461 -1.0968506 -1.8649043 234 88 12
1.2327896 -1.158412 -1.8953948 234 88 12
1.3126082 -1.2787689 -1.9583825 234 88 12
1.2341542 -1.1539375 -1.8944281 234 88 12
1.1863016 -1.0722507 -1.8536843 234 88 12
1.146639 -1.0028048 -1.8193693 234 88 12
1.2070103 -1.1005304 -1.8691044 234 88 12
1.2082027 -1.1259803 -1.8783357 234 88 12
1.3174423 -1.2876512 -1.9628427 234 88 12
1.1564313 -1.0193938 -1.8289926 234 88 12
1.1896714 -1.0700605 -1.8551636 234 88 12
1.0815842 -0.88569832 -1.7639822 234 88 12
1.0316797 -0.79725659 -1.7208534 234 88 12
1.3058442 -1.2630333 -1.9515591 234 88 12
1.1685213 -1.067454 -1.8488549 234 88 12
1.1503083 -1.0360104 -1.8335088 234 88 12
1.1700021 -1.0573826 -1.8462207 234 88 12
1.1102127 -0.95876694 -1.7972592 234 88 12
1.200953 -1.0984473 -1.868497 234 88 12
1.1933657 -1.0824699 -1.8612192 234 88 12
0.82261449 -0.45025226 -1.5512458 234 88 12
0.87664199 -0.52838999 -1.5921154 234 88 12
0.87211227 -0.51404798 -1.5862938 234 88 12
0.82790929 -0.43046805 -1.5468154 234 88 12
0.85190874 -0.46521562 -1.5649817 234 88 12
1.1831423 -1.0893679 -1.8611997 234 88 12
1.2467291 -1.1812248 -1.9088458 234 88 12
1.1409345 -1.0198936 -1.8269829 234 88 12
1.1418775 -1.0189369 -1.8269829 234 88 12
1.1648518 -1.0431647 -1.8414673 234 88 12
1.2085693 -1.1058389 -1.8740789 234 88 12
1.2724106 -1.2088182 -1.9251926 234 88 12
0.82365626 -0.45335099 -1.5562736 234 88 12
0.94310987 -0.64325851 -1.6510663 234 88 12
0.83783221 -0.45628864 -1.561551 234 88 12
0.82717097 -0.423318 -1.548209 234 88 12
0.83362472 -0.42730203 -1.5514179 234 88 12
1.2310251 -1.1640853 -1.8994805 234 88 12
1.1998366 -1.1110182 -1.8738966 234 88 12
1.1065893 -0.96550661 -1.8013774 234 88 12
1.1104954 -0.96868271 -1.8035336 234 88 12
1.1479431 -1.0215199 -1.8309658 234 88 12
1.1674088 -1.0454091 -1.8441453 234 88 12
1.1579539 -1.0279516 -1.8359756 234 88 12
1.0921674 -0.91213715 -1.7808398 234 88 12
1.2938859 -1.2447493 -1.9431037 234 88 12
0.82870841 -0.45617962 -1.5624055 234 88 12
0.96995461 -0.69014299 -1.6763462 234 88 12
0.84437168 -0.46893558 -1.5710574 234 88 12
0.8779006 -0.52010745 -1.5967859 234 88 12
1.150308 -1.0479293 -1.8409032 234 88 12
1.1291202 -1.0027732 -1.820951 234 88 12
1.0947824 -0.94201982 -1.792336 234 88 12
1.1263013 -0.98012656 -1.8133155 234 88 12
1.1313182 -0.9800635 -1.8148203 234 88 12
0.86538327 -0.52595663 -1.5981191 234 88 12
0.97045308 -0.68686253 -1.678196 234 88 12
0.82713467 -0.43350413 -1.5588274 234 88 12
0.83012778 -0.42416257 -1.5569401 234 88 12
1.237968 -1.1732718 -1.9057075 234 88 12
1.1699327 -1.072633 -1.8553696 234 88 12
1.1043501 -0.97403139 -1.8063742 234 88 12
1.0879252 -0.92255616 -1.7861578 234 88 12
1.1191148 -0.9691295 -1.8093641 234 88 12
1.1125243 -0.95572293 -1.8034027 234 88 12
1.2134272 -1.1147085 -1.8809452 234 88 12
0.80992812 -0.44145262 -1.5597384 234 88 12
0.8492294 -0.47999156 -1.5830026 234 88 12
0.83260483 -0.43001652 -1.5631713 234 88 12
1.1179574 -1.0019846 -1.8201947 234 88 12
1.0965173 -0.95151079 -1.7989565 234 88 12
1.0582082 -0.88994306 -1.7694237 234 88 12
1.0762389 -0.91436386 -1.7819839 234 88 12
1.081811 -0.91981441 -1.7852489 234 88 12
1.0783458 -0.90466595 -1.7797606 234 88 12
1.0483332 -0.84942478 -1.7545632 234 88 12
1.1379025 -0.98915052 -1.822371 234 88 12
0.80798364 -0.43953601 -1.5623313 234 88 12
0.83052862 -0.47011447 -1.5780488 234 88 12
0.8322053 -0.45916086 -1.5753281 234 88 12
0.82321954 -0.42236152 -1.5618263 234 88 12
1.1159384 -0.99184966 -1.8180674 234 88 12
1.0282125 -0.85200584 -1.7513759 234 88 12
1.0859704 -0.93595606 -1.7929181 234 88 12
1.1413151 -1.0028955 -1.8287894 234 88 12
0.80344933 -0.44038868 -1.5649656 234 88 12
0.82662123 -0.46487236 -1.5789518 234 88 12
0.83658445 -0.44704357 -1.5767019 234 88 12
0.82168406 -0.41384315 -1.5626209 234 88 12
1.3250456 -1.2996763 -1.9696906 234 88 12
1.0375971 -0.85952407 -1.7583421 234 88 12
1.0701153 -0.90595716 -1.781281 234 88 12
1.1374785 -1.0047381 -1.8295486 234 88 12
1.0589323 -0.87844622 -1.7700586 234 88 12
1.1302391 -0.98559523 -1.8218986 234 88 12
1.215073 -1.1182644 -1.8850728 234 88 12
0.8122102 -0.44911733 -1.5737695 234 88 12
0.82655722 -0.4522635 -1.578882 234 88 12
0.81324869 -0.4225547 -1.5664021 234 88 12
0.82642305 -0.43797278 -1.5747153 234 88 12
1.2146366 -1.1345363 -1.8904531 234 88 12
1.117242 -0.98421258 -1.8191468 234 88 12
1.1669681 -1.0574375 -1.8545443 234 88 12
1.0988833 -0.95070225 -1.8042246 234 88 12
0.98551965 -0.75463712 -1.7151893 234 88 12
0.98722625 -0.75290567 -1.7151893 234 88 12
0.79901284 -0.43565857 -1.5697351 234 88 12
0.8254177 -0.45857793 -1.5839623 234 88 12
0.81349719 -0.43151826 -1.5727559 234 88 12
1.12923 -1.0124201 -1.832045 234 88 12
1.1597644 -1.0551316 -1.8529457 234 88 12
1.0829734 -0.91422755 -1.7908837 234 88 12
0.86830765 -0.56228811 -1.6292908 234 88 12
0.93941236 -0.67163825 -1.6807668 234 88 12
0.80384994 -0.42375639 -1.5714506 234 88 12
0.80650133 -0.42106649 -1.5714506 234 88 12
1.0899287 -0.92577094 -1.7978207 234 88 12
1.0148702 -0.79478538 -1.7396027 234 88 12
0.87175596 -0.55695337 -1.631948 234 88 12
0.87770659 -0.56070042 -1.634698 234 88 12
0.81024998 -0.44277385 -1.5823181 234 88 12
1.143411 -1.024875 -1.8421862 234 88 12
1.144315 -1.023958 -1.8421862 234 88 12
1.1115632 -0.96877462 -1.8175631 234 88 12
1.0878665 -0.92611486 -1.7989863 234 88 12
1.0978062 -0.93273115 -1.8036375 234 88 12
0.91815126 -0.62825775 -1.6680771 234 88 12
1.1150854 -0.98255044 -1.8238293 234 88 12
1.1276695 -0.99655414 -1.8312171 234 88 12
1.1286519 -0.99555743 -1.8312171 234 88 12
0.83377397 -0.50367683 -1.6129165 234 88 12
0.98348206 -0.74101585 -1.7203285 234 88 12
0.84442741 -0.50185704 -1.615397 234 88 12
1.1941586 -1.1052424 -1.8807403 234 88 12
1.0887666 -0.93750143 -1.8056369 234 88 12
1.1258188 -0.98388386 -1.8285983 234 88 12
0.96881068 -0.72728789 -1.7148798 234 88 12
1.0574158 -0.86559677 -1.7772785 234 88 12
0.85993415 -0.52241266 -1.6286559 234 88 12
1.2626967 -1.2016066 -1.9265945 234 88 12
1.1178285 -0.97174257 -1.824501 234 88 12
1.1118702 -0.95677978 -1.8188095 234 88 12
0.87702221 -0.56389809 -1.6478194 234 88 12
0.82280022 -0.46185309 -1.6052698 234 88 12
1.1592675 -1.0437795 -1.8565534 234 88 12
1.0455011 -0.85491776 -1.7748783 234 88 12
1.0225132 -0.81067842 -1.7567434 234 88 12
0.96479356 -0.71312273 -1.7148392 234 88 12
0.91770566 -0.63144052 -1.6800911 234 88 12
0.87832308 -0.55525446 -1.6489166 234 88 12
1.2922267 -1.2497272 -1.9483335 234 88 12
1.1780539 -1.0766821 -1.8715119 234 88 12
1.0989904 -0.94306189 -1.8146471 234 88 12
1.0268387 -0.82599854 -1.7640499 234 88 12
1.0093809 -0.79434156 -1.7509212 234 88 12
0.97504354 -0.73055291 -1.7246938 234 88 12
0.82264543 -0.47728166 -1.6162244 234 88 12
1.1775135 -1.0761495 -1.8722326 234 88 12
1.0559785 -0.87610102 -1.787044 234 88 12
0.92146045 -0.6550439 -1.6928504 234 88 12
0.84372312 -0.5251689 -1.6378559 234 88 12
0.99580342 -0.76492637 -1.7416704 234 88 12
0.82739335 -0.47970811 -1.6215142 234 88 12
2.1888466 -0.20400812 -1.307773 234 88 12
2.0500569 -0.11190055 -1.2660952 234 88 12
1.9991089 -0.079157956 -1.2549405 234 88 12
