ply
format ascii 1.0
element vertex 135
property float x
property float y
property float z
property uchar red
property uchar green
property uchar blue
end_header
-2.0459511 -0.70217544 -0.59768856 234 88 12
-2.0446055 -0.70573944 -0.59768856 234 88 12
-2.0425873 -0.71108544 -0.59768856 234 88 12
-2.0446501 -0.69964826 -0.60299909 234 88 12
-2.0439773 -0.7014302 -0.60299909 234 88 12
-2.0399406 -0.7121222 -0.60299909 234 88 12
-0.77503198 -2.0124314 -0.6118499 234 88 12
-0.77656555 -2.0111005 -0.6136201 234 88 12
-0.77478355 -2.0117733 -0.6136201 234 88 12
-0.77300161 -2.0124462 -0.6136201 234 88 12
-0.78854275 -2.0050752 -0.61716038 234 88 12
-0.76463157 -2.0118473 -0.62247092 234 88 12
-0.76284957 -2.0125201 -0.62247092 234 88 12
-0.78754908 -2.0024433 -0.62424105 234 88 12
-0.78576714 -2.0031161 -0.62424105 234 88 12
-0.77507514 -2.0071528 -0.62424105 234 88 12
-0.7643832 -2.0111892 -0.62424105 234 88 12
-1.9250243 0.38216713 -1.0857075 234 88 12
-1.9236393 0.3838692 -1.0872699 234 88 12
-1.9239492 0.38198984 -1.0872699 234 88 12
-1.9187194 0.38691875 -1.0935194 234 88 12
-1.9196494 0.38128066 -1.0935194 234 88 12
-1.9190491 0.37152919 -1.0966443 234 88 12
-1.9130346 0.38791165 -1.1013315 234 88 12
-1.9128895 0.38209623 -1.1028939 234 88 12
-1.9111946 0.38567767 -1.1044563 234 88 12
-1.9118145 0.38191894 -1.1044563 234 88 12
-1.2569377 -1.1909411 -1.4137311 234 88 12
-1.2555909 -1.192288 -1.4137311 234 88 12
-1.2465906 -1.1994503 -1.4151236 234 88 12
-1.2393651 -1.2029996 -1.4179084 234 88 12
-1.247383 -1.1894675 -1.4220856 234 88 12
-1.2460361 -1.1908144 -1.4220856 234 88 12
-1.2446892 -1.1921613 -1.4220856 234 88 12
-1.2347699 -1.1984044 -1.4248706 234 88 12
0.32780725 -1.8997589 -1.1341419 234 88 12
0.32968661 -1.8994489 -1.1341419 234 88 12
0.32557327 -1.8979189 -1.1372668 234 88 12
0.32933202 -1.8972989 -1.1372668 234 88 12
0.34025365 -1.8932892 -1.1403915 234 88 12
0.3156445 -1.8962438 -1.1419539 234 88 12
0.3361403 -1.8917592 -1.1435163 234 88 12
0.33989906 -1.8911393 -1.1435163 234 88 12
0.32263011 -1.8917789 -1.1466411 234 88 12
0.31305596 -1.8922538 -1.1482035 234 88 12
0.31681469 -1.8916339 -1.1482035 234 88 12
0.31869406 -1.8913239 -1.1482035 234 88 12
0.32809094 -1.8897741 -1.1482035 234 88 12
1.7840844 -1.2839267 -0.45014659 234 88 12
1.7875201 -1.2793605 -0.45014659 234 88 12
-1.1579205 1.2330918 -1.4694217 234 88 12
-1.1592771 1.2317547 -1.4694217 234 88 12
-1.1491987 1.2378101 -1.4720451 234 88 12
-1.1468725 1.2381636 -1.4733567 234 88 12
-1.1462899 1.2348591 -1.4759802 234 88 12
-1.1426073 1.2365497 -1.4772918 234 88 12
-1.1439639 1.2352126 -1.4772918 234 88 12
-1.1493901 1.2298641 -1.4772918 234 88 12
-1.1369855 1.2362731 -1.4812269 234 88 12
-1.136016 1.2352893 -1.4825386 234 88 12
-1.1468685 1.2245924 -1.4825386 234 88 12
-1.124835 -0.081069149 -1.9275391 234 88 12
-1.1172065 -0.087811328 -1.9310672 234 88 12
-1.1152993 -0.089496873 -1.9319493 234 88 12
-1.115012 -0.077947855 -1.9328314 234 88 12
-1.1118921 -0.075646989 -1.9345955 234 88 12
-1.1083091 -0.077127427 -1.9363595 234 88 12
-1.1069207 -0.088471338 -1.9363595 234 88 12
-1.1042635 -0.082389168 -1.9381236 234 88 12
-1.1035693 -0.088061124 -1.9381236 234 88 12
-0.13475679 -1.0774438 -1.9487082 234 88 12
-0.13097548 -1.0779066 -1.9487082 234 88 12
-0.14569049 -1.072704 -1.9504722 234 88 12
-0.14548539 -1.0710282 -1.9513543 234 88 12
-0.14170408 -1.071491 -1.9513543 234 88 12
-0.13015506 -1.0712038 -1.9522364 234 88 12
-0.11881115 -1.0725923 -1.9522364 234 88 12
-0.11860604 -1.0709165 -1.9531184 234 88 12
1.198034 -1.1206906 -1.5179542 234 88 12
1.2023989 -1.1142948 -1.5192659 234 88 12
1.2037359 -1.1129383 -1.5192659 234 88 12
1.1933925 -1.1214646 -1.5205775 234 88 12
1.2000781 -1.1146818 -1.5205775 234 88 12
1.2040894 -1.1106122 -1.5205775 234 88 12
1.1910717 -1.1218516 -1.5218893 234 88 12
1.1898113 -1.1152602 -1.5271361 234 88 12
1.1801748 -1.1191344 -1.5310711 234 88 12
1.181512 -1.1177778 -1.5310711 234 88 12
1.1841862 -1.1150647 -1.5310711 234 88 12
1.1922089 -1.1069254 -1.5310711 234 88 12
1.1808819 -1.1144822 -1.5336945 234 88 12
2.0455644 -0.21164593 -0.89784551 234 88 12
2.046313 -0.20598087 -0.89784551 234 88 12
2.0475602 -0.1965391 -0.89784551 234 88 12
2.0446258 -0.21152191 -0.89949822 234 88 12
2.0441859 -0.20762119 -0.90115094 234 88 12
2.040431 -0.20712511 -0.90776187 234 88 12
2.0409892 -0.19567096 -0.90941459 234 88 12
2.0383041 -0.20876542 -0.91106737 234 88 12
2.0336106 -0.20814534 -0.91933101 234 88 12
2.03386 -0.20625697 -0.91933101 234 88 12
2.0341094 -0.20436862 -0.91933101 234 88 12
1.2481635 1.2926102 -1.3424895 234 88 12
1.2485938 1.2903467 -1.3438852 234 88 12
1.2459 1.2930405 -1.3438852 234 88 12
1.2476771 1.2894301 -1.3452808 234 88 12
1.2463303 1.290777 -1.3452808 234 88 12
1.2454137 1.2898604 -1.3466763 234 88 12
1.2350689 1.2983718 -1.3480719 234 88 12
1.2345264 1.2897481 -1.3550501 234 88 12
1.2336098 1.2888315 -1.3564457 234 88 12
1.2309161 1.2915252 -1.3564457 234 88 12
1.2241818 1.2982596 -1.3564457 234 88 12
-0.048897624 1.3658254 -1.7721007 234 88 12
-0.056370437 1.3622965 -1.774166 234 88 12
-0.037271272 1.3615248 -1.7751987 234 88 12
-0.065815732 1.3602837 -1.7751987 234 88 12
-0.056092348 1.3559003 -1.7782967 234 88 12
-0.040799111 1.3549632 -1.7793294 234 88 12
-0.044605039 1.3547977 -1.7793294 234 88 12
0.0085714282 0.058095239 -2.23 234 88 12
0.014285714 0.056190476 -2.23 234 88 12
-0.00095238094 0.056190476 -2.23 234 88 12
0.018095238 0.054285713 -2.23 234 88 12
0.010476191 0.054285713 -2.23 234 88 12
-0.00095238094 0.054285713 -2.23 234 88 12
0.010476191 0.042857144 -2.23 234 88 12
1.3277529 -0.0033913874 -1.7979176 234 88 12
1.3279184 0.00041454073 -1.7979176 234 88 12
1.3227077 -0.0088917119 -1.8010156 234 88 12
1.3231213 0.00062310835 -1.8010156 234 88 12
1.3163116 -0.0086136218 -1.8051463 234 88 12
1.3167253 0.00090119854 -1.8051463 234 88 12
1.3115972 -0.0065020905 -1.8082443 234 88 12
1.3119282 0.0011097662 -1.8082443 234 88 12
