ply
format ascii 1.0
element vertex 1278
property float x
property float y
property float z
property uchar red
property uchar green
property uchar blue
end_header
-0.88166296 1.4930646 1.2574569 234 88 12
-0.87107486 1.4856657 1.257291 234 88 12
-0.86007112 1.4832534 1.2575754 234 88 12
-0.88378578 1.4862351 1.2457846 234 88 12
-0.8730551 1.4806794 1.2457846 234 88 12
-0.8622334 1.4761925 1.2458781 234 88 12
-0.85106963 1.4755155 1.2463057 234 88 12
-0.93191677 1.4549456 1.2302219 234 88 12
-0.92138755 1.4486021 1.2301496 234 88 12
-0.91077048 1.4435353 1.2301844 234 88 12
-0.89966786 1.4448419 1.2307557 234 88 12
-0.88650191 1.471838 1.2334936 234 88 12
-0.87633038 1.4598318 1.2329478 234 88 12
-0.86464202 1.4661888 1.2339525 234 88 12
-0.85361427 1.4642018 1.234254 234 88 12
-0.8427555 1.4601163 1.2343785 234 88 12
-0.83180362 1.4569304 1.2345796 234 88 12
-0.81808317 1.4822261 1.237203 234 88 12
-0.80716467 1.4775549 1.2372825 234 88 12
-0.79586381 1.4765496 1.237675 234 88 12
-0.93388313 1.4495127 1.2188386 234 88 12
-0.92337286 1.4429711 1.2187526 234 88 12
-0.91283023 1.4369628 1.2187096 234 88 12
-0.90209299 1.4335781 1.2188796 234 88 12
-0.89095181 1.4351913 1.2194564 234 88 12
-0.87949991 1.4401084 1.2203043 234 88 12
-0.86819226 1.4425774 1.2209548 234 88 12
-0.85664278 1.4472711 1.221789 234 88 12
-0.84524459 1.4496102 1.2224331 234 88 12
-0.83415002 1.4481872 1.2227708 234 88 12
-0.82313442 1.4456853 1.223021 234 88 12
-0.8110224 1.454037 1.224164 234 88 12
-0.79849303 1.4656413 1.225578 234 88 12
-0.93578309 1.4450606 1.2075427 234 88 12
-0.92536616 1.4371983 1.2073567 234 88 12
-0.91480976 1.4314686 1.2073368 234 88 12
-0.90416652 1.4269185 1.2074091 234 88 12
-0.89328778 1.4253204 1.2077131 234 88 12
-0.88229299 1.4248712 1.2081081 234 88 12
-0.87090838 1.4287126 1.2088416 234 88 12
-0.85941863 1.4331214 1.2096219 234 88 12
-0.84807205 1.4352754 1.2102269 234 88 12
-0.83664626 1.4377849 1.2108616 234 88 12
-0.82509023 1.4411463 1.2115656 234 88 12
-0.81360877 1.4432089 1.2121689 234 88 12
-0.80138057 1.4521419 1.2133189 234 88 12
-0.78930885 1.4587432 1.2142872 234 88 12
-0.93761796 1.4415879 1.1963255 234 88 12
-0.92722273 1.4333913 1.1961215 234 88 12
-0.91666335 1.4277124 1.1961061 234 88 12
-0.9060595 1.422646 1.1961368 234 88 12
-0.89525568 1.4201301 1.19636 234 88 12
-0.88445777 1.4173212 1.1965617 234 88 12
-0.87320578 1.4197623 1.1971612 234 88 12
-0.86149931 1.4269123 1.1981192 234 88 12
-0.85022873 1.4283402 1.1986458 234 88 12
-0.83922118 1.426471 1.1989236 234 88 12
-0.82698667 1.4372207 1.2001624 234 88 12
-0.81557226 1.4386438 1.2006942 234 88 12
-0.80395311 1.4416656 1.2013495 234 88 12
-0.79156196 1.4515676 1.2025328 234 88 12
-0.92899853 1.4307649 1.1849729 234 88 12
-0.91847312 1.4245689 1.1849209 234 88 12
-0.90782195 1.4201279 1.1849958 234 88 12
-0.89705884 1.4170592 1.1851702 234 88 12
-0.88631475 1.4135746 1.185315 234 88 12
-0.87507492 1.4159163 1.1858836 234 88 12
-0.86329037 1.4240445 1.1868752 234 88 12
-0.8521558 1.4239531 1.1872705 234 88 12
-0.84121382 1.4214138 1.1874884 234 88 12
-0.8287037 1.4351792 1.1888989 234 88 12
-0.8174786 1.4346539 1.1892673 234 88 12
-0.80596715 1.4366565 1.1898222 234 88 12
-0.79328519 1.4494495 1.1911712 234 88 12
-0.91987228 1.427238 1.174136 234 88 12
-0.90941495 1.419921 1.1740088 234 88 12
-0.89877075 1.4151846 1.1740606 234 88 12
-0.88791198 1.413088 1.1742963 234 88 12
-0.87664664 1.4156671 1.1748586 234 88 12
-0.86466449 1.4260538 1.1759676 234 88 12
-0.85395539 1.4209969 1.1760001 234 88 12
-0.84282923 1.4204601 1.1763493 234 88 12
-0.83011931 1.4363357 1.1778504 234 88 12
-0.81906062 1.43398 1.1780757 234 88 12
-0.80745894 1.4368199 1.1786669 234 88 12
-0.91793478 1.4774613 1.1664685 234 88 12
-0.90743542 1.4685297 1.1662447 234 88 12
-0.89702165 1.4587386 1.1659632 234 88 12
-0.88607335 1.4560155 1.1661516 234 88 12
-0.8749274 1.4554907 1.1664875 234 88 12
-0.86377853 1.454646 1.1668028 234 88 12
-0.85201281 1.4604727 1.1675656 234 88 12
-0.84069318 1.460655 1.1679523 234 88 12
-0.82948405 1.4592935 1.1682365 234 88 12
-0.90891212 1.4702861 1.1551975 234 88 12
-0.89830315 1.4628357 1.1550778 234 88 12
-0.88746506 1.4584371 1.155152 234 88 12
-0.87652093 1.4552497 1.1553036 234 88 12
-0.86529642 1.4552011 1.1556559 234 88 12
-0.85354394 1.4607878 1.1563696 234 88 12
-0.84180206 1.465515 1.1570303 234 88 12
-0.82968688 1.4735535 1.1579055 234 88 12
-0.89944732 1.4688424 1.1442621 234 88 12
-0.88899577 1.4591495 1.1440126 234 88 12
-0.87797529 1.4567538 1.1442055 234 88 12
-0.86671817 1.456937 1.1445559 234 88 12
-0.85516566 1.4601034 1.145089 234 88 12
-0.8431409 1.4679091 1.1459069 234 88 12
-0.90025574 1.4794381 1.1336532 234 88 12
-0.89004356 1.4661061 1.1332073 234 88 12
-0.87925106 1.4605184 1.1332073 234 88 12
-0.86825657 1.4573364 1.1333464 234 88 12
-0.85659707 1.4616363 1.1339192 234 88 12
-0.84415805 1.4739338 1.1349578 234 88 12
-0.89097345 1.4747005 1.1224281 234 88 12
-0.88024992 1.4677997 1.1223572 234 88 12
-0.86932975 1.4633473 1.1224203 234 88 12
-0.85714716 1.4734037 1.1232803 234 88 12
-0.8809607 1.4787945 1.1116335 234 88 12
-0.86991066 1.4753807 1.1117482 234 88 12
-0.80027783 1.448382 1.2142354 234 88 12
-0.8019048 1.442251 1.1989994 234 88 12
-0.80082256 1.4442419 1.1871443 234 88 12
-0.88358051 1.485756 1.2692164 234 88 12
-0.86769056 1.483485 1.268827 234 88 12
-0.93919927 1.4514917 1.243456 234 88 12
-0.92243361 1.4438727 1.2416139 234 88 12
-0.9073686 1.4453403 1.2422457 234 88 12
-0.89858538 1.4821945 1.2525172 234 88 12
-0.88090378 1.4695952 1.2493188 234 88 12
-0.86516625 1.467882 1.2490859 234 88 12
-0.84889567 1.4629383 1.2479722 234 88 12
-0.83680701 1.4834247 1.253791 234 88 12
-0.82088357 1.4808664 1.2533283 234 88 12
-0.8055017 1.4817016 1.253791 234 88 12
-0.93653476 1.4366159 1.2241007 234 88 12
-0.92016232 1.4308358 1.2227767 234 88 12
-0.90441126 1.4282757 1.2223172 234 88 12
-0.88912088 1.4282327 1.2225339 234 88 12
-0.87503135 1.4351113 1.224611 234 88 12
-0.86026835 1.4383773 1.2257179 234 88 12
-0.84566671 1.4427912 1.2271339 234 88 12
-0.83130741 1.448927 1.2290134 234 88 12
-0.81619793 1.4506861 1.2297165 234 88 12
-0.80266672 1.4626908 1.2331765 234 88 12
-0.78895175 1.474112 1.2364808 234 88 12
-0.95464689 1.4504533 1.2122298 234 88 12
-0.93554431 1.4305974 1.2071966 234 88 12
-0.9191469 1.4245766 1.2058266 234 88 12
-0.9035331 1.4226576 1.205543 234 88 12
-0.88814211 1.4219457 1.2055792 234 88 12
-0.87319124 1.4237633 1.206286 234 88 12
-0.85880196 1.4289861 1.2078959 234 88 12
-0.84375763 1.4305546 1.2085373 234 88 12
-0.82984382 1.439154 1.2110441 234 88 12
-0.81532991 1.4444313 1.2126704 234 88 12
-0.80059004 1.4485494 1.2139899 234 88 12
-0.78707808 1.4609735 1.2175144 234 88 12
-0.93543375 1.4292332 1.191548 234 88 12
-0.91904509 1.4232455 1.1902057 234 88 12
-0.90347874 1.421573 1.1899904 234 88 12
-0.88807786 1.4207954 1.1900089 234 88 12
-0.8729223 1.4214274 1.1903958 234 88 12
-0.85862094 1.4271264 1.1921078 234 88 12
-0.84337604 1.4274662 1.1924189 234 88 12
-0.82866549 1.4311308 1.1935999 234 88 12
-0.81504571 1.441835 1.1966231 234 88 12
-0.80012906 1.4447721 1.197615 234 88 12
-0.78631014 1.4551009 1.200542 234 88 12
-0.93602431 1.4315755 1.1768595 234 88 12
-0.91917408 1.4231585 1.1749105 234 88 12
-0.90352482 1.4210408 1.1745836 234 88 12
-0.88811105 1.4201925 1.1745836 234 88 12
-0.87309074 1.4215994 1.1751648 234 88 12
-0.85879427 1.4273425 1.1768641 234 88 12
-0.8434093 1.4268618 1.1769593 234 88 12
-0.82901597 1.4324669 1.178624 234 88 12
-0.81508297 1.4412527 1.1811099 234 88 12
-0.80016506 1.4441814 1.1820856 234 88 12
-0.78696644 1.4585807 1.1860218 234 88 12
-0.90428549 1.4244381 1.1601741 234 88 12
-0.88895047 1.4241145 1.1603075 234 88 12
-0.87502533 1.4318932 1.1624994 234 88 12
-0.85928333 1.4294071 1.162084 234 88 12
-0.84422427 1.4309351 1.1626885 234 88 12
-0.83082157 1.4427063 1.165897 234 88 12
-0.81565225 1.444001 1.1664433 234 88 12
-0.80136317 1.4510379 1.16845 234 88 12
-0.91214359 1.4668552 1.1554997 234 88 12
-0.89552879 1.4602388 1.1540585 234 88 12
-0.87990963 1.4590847 1.1539841 234 88 12
-0.86439425 1.4585252 1.1540585 234 88 12
-0.85033166 1.4666708 1.1563131 234 88 12
-0.83553761 1.4707472 1.1575494 234 88 12
-0.82066882 1.4745841 1.1587262 234 88 12
-0.91298085 1.4706632 1.1409887 234 88 12
-0.89668232 1.4659137 1.1400292 234 88 12
-0.88101941 1.4646418 1.1399271 234 88 12
-0.86567253 1.4652011 1.1402769 234 88 12
-0.85060304 1.4674828 1.1410517 234 88 12
-0.83665526 1.4767669 1.1435552 234 88 12
-0.82237411 1.4844334 1.1456603 234 88 12
-0.89728582 1.4685007 1.1252036 234 88 12
-0.88160044 1.4671674 1.1250882 234 88 12
-0.8660807 1.4667833 1.1252036 234 88 12
-0.85121471 1.4703293 1.1262742 234 88 12
-0.8376947 1.4823056 1.129395 234 88 12
-0.88252485 1.4716588 1.1106966 234 88 12
-0.86697131 1.4711864 1.1107893 234 88 12
-0.85387141 1.4854025 1.1143981 234 88 12
-0.89090741 1.4739408 1.2563742 234 88 12
-0.87812871 1.4820734 1.2562582 234 88 12
-0.86610323 1.491298 1.2562721 234 88 12
-0.88599181 1.4671555 1.2415915 234 88 12
-0.8713026 1.4724786 1.2411581 234 88 12
-0.86061209 1.4836199 1.2413925 234 88 12
-0.83339059 1.4703192 1.2388374 234 88 12
-0.82002884 1.4773524 1.238609 234 88 12
-0.80801964 1.486388 1.238609 234 88 12
-0.79760212 1.4978342 1.2388819 234 88 12
-0.9351964 1.4321001 1.2277423 234 88 12
-0.91872215 1.4350458 1.2270522 234 88 12
-0.90182424 1.4372951 1.226288 234 88 12
-0.88588464 1.4408181 1.2256693 234 88 12
-0.8673197 1.4404571 1.2246227 234 88 12
-0.85098046 1.4431996 1.2239252 234 88 12
-0.83734065 1.4498136 1.2236587 234 88 12
-0.8249234 1.4582009 1.2235889 234 88 12
-0.81264967 1.4667928 1.223542 234 88 12
-0.80094856 1.4762391 1.2235889 234 88 12
-0.79202831 1.4899042 1.2240968 234 88 12
-0.9486779 1.4250721 1.2139338 234 88 12
-0.9257549 1.4190469 1.2122947 234 88 12
-0.909159 1.4217499 1.2116057 234 88 12
-0.89485002 1.4276185 1.2112607 234 88 12
-0.87599105 1.4269015 1.2102108 234 88 12
-0.86246109 1.4337511 1.2099762 234 88 12
-0.846717 1.4373382 1.2093946 234 88 12
-0.83330631 1.4442719 1.2091722 234 88 12
-0.82073897 1.4524227 1.2090803 234 88 12
-0.80928898 1.4622276 1.2091641 234 88 12
-0.79746366 1.4714801 1.2091892 234 88 12
-0.78797746 1.4842801 1.2095881 234 88 12
-0.94173795 1.4155766 1.1988693 234 88 12
-0.91967368 1.4107137 1.1974136 234 88 12
-0.90442324 1.4152861 1.1969454 234 88 12
-0.89089245 1.4222432 1.1967268 234 88 12
-0.87187827 1.4212896 1.1956918 234 88 12
-0.85907483 1.4291762 1.1955734 234 88 12
-0.84330785 1.4327226 1.1950094 234 88 12
-0.82974082 1.439419 1.1947712 234 88 12
-0.81738204 1.4478695 1.1947137 234 88 12
-0.80558383 1.4571481 1.1947409 234 88 12
-0.79470867 1.4678185 1.1949097 234 88 12
-0.78622186 1.4821333 1.1954474 234 88 12
-0.91687393 1.4069905 1.1830313 234 88 12
-0.90165269 1.4116037 1.1825854 234 88 12
-0.88836372 1.4189057 1.1824095 234 88 12
-0.86910701 1.4176053 1.1813799 234 88 12
-0.85631472 1.4255079 1.1812676 234 88 12
-0.84075856 1.4293611 1.1807556 234 88 12
-0.82717133 1.4360299 1.1805239 234 88 12
-0.81462854 1.4442098 1.1804419 234 88 12
-0.80302882 1.4537846 1.1804972 234 88 12
-0.79280937 1.4654437 1.1807561 234 88 12
-0.90054166 1.4102708 1.1684505 234 88 12
-0.88678026 1.4169165 1.1682184 234 88 12
-0.86742198 1.4154819 1.1672169 234 88 12
-0.85434669 1.4229863 1.1670709 234 88 12
-0.84224874 1.4318933 1.1670587 234 88 12
-0.82608688 1.434824 1.166481 234 88 12
-0.81312162 1.4423968 1.1663444 234 88 12
-0.80970562 1.4642011 1.1675483 234 88 12
-0.90762568 1.4469221 1.156944 234 88 12
-0.89151168 1.4504042 1.1564258 234 88 12
-0.87822694 1.4578975 1.1562759 234 88 12
-0.86116654 1.4598566 1.1556236 234 88 12
-0.84588748 1.4643254 1.1552023 234 88 12
-0.83360916 1.473169 1.1551785 234 88 12
-0.82502109 1.4875174 1.1556515 234 88 12
-0.89204419 1.451472 1.1423682 234 88 12
-0.87788838 1.4577399 1.1421169 234 88 12
-0.86423016 1.4646902 1.1419263 234 88 12
-0.85009873 1.4709111 1.1416733 234 88 12
-0.83872163 1.4811685 1.1417706 234 88 12
-0.83058363 1.4962791 1.1422859 234 88 12
-0.89219117 1.4519864 1.128226 234 88 12
-0.87851661 1.4589834 1.128046 234 88 12
-0.86574984 1.4672722 1.1279739 234 88 12
-0.85279822 1.4752759 1.1278788 234 88 12
-0.8411926 1.4852563 1.127947 234 88 12
-0.87935573 1.4605333 1.1139594 234 88 12
-0.86715949 1.4696949 1.1139587 234 88 12
-0.8575111 1.4826035 1.1142527 234 88 12
-0.92996979 1.4353418 1.2412285 234 88 12
-0.91524655 1.4296869 1.2411712 234 88 12
-0.94254732 1.4387051 1.2221392 234 88 12
-0.92778713 1.4251442 1.2174444 234 88 12
-0.91312462 1.4196086 1.2174444 234 88 12
-0.89846486 1.4183524 1.2199588 234 88 12
-0.88358569 1.4743309 1.2561582 234 88 12
-0.86866361 1.4693425 1.2565374 234 88 12
-0.85367978 1.4694909 1.2599492 234 88 12
-0.9404124 1.4366769 1.2032179 234 88 12
-0.92572153 1.4277745 1.2012616 234 88 12
-0.911062 1.4202763 1.2001169 234 88 12
-0.89641792 1.4147476 1.2001169 234 88 12
-0.88176793 1.4107646 1.2010192 234 88 12
-0.86705339 1.413632 1.2059287 234 88 12
-0.85224253 1.4191703 1.2124162 234 88 12
-0.83731824 1.4264487 1.219943 234 88 12
-0.82223266 1.4368588 1.2293308 234 88 12
-0.80670112 1.4610083 1.2468253 234 88 12
-0.93837696 1.4428799 1.1891043 234 88 12
-0.92367041 1.4319873 1.186017 234 88 12
-0.90901989 1.4254589 1.1854404 234 88 12
-0.89437664 1.4199306 1.1854404 234 88 12
-0.87972909 1.415398 1.186017 234 88 12
-0.86502892 1.4163352 1.1897672 234 88 12
-0.85024011 1.4204499 1.1953737 234 88 12
-0.83546412 1.419048 1.1977882 234 88 12
-0.82038695 1.4311494 1.2080748 234 88 12
-0.80538243 1.434386 1.2132208 234 88 12
-0.78994602 1.4506785 1.2260088 234 88 12
-0.92164993 1.4405712 1.1732832 234 88 12
-0.90698028 1.431415 1.171209 234 88 12
-0.89233464 1.4261472 1.1713589 234 88 12
-0.87767977 1.4223641 1.1723621 234 88 12
-0.86296564 1.4238187 1.176381 234 88 12
-0.84818959 1.425881 1.1807618 234 88 12
-0.83341885 1.4240359 1.1829011 234 88 12
-0.81834584 1.4355755 1.1927799 234 88 12
-0.80339366 1.4366429 1.1966283 234 88 12
-0.78821313 1.4439399 1.204098 234 88 12
-0.91979772 1.4770669 1.1763538 234 88 12
-0.90500754 1.4665118 1.1735271 234 88 12
-0.89027643 1.4423501 1.1629512 234 88 12
-0.87555039 1.4438819 1.1669832 234 88 12
-0.86083329 1.4385324 1.1671008 234 88 12
-0.84611118 1.4334408 1.167366 234 88 12
-0.83121091 1.4386047 1.1735008 234 88 12
-0.81626761 1.4418246 1.1785393 234 88 12
-0.80131966 1.4424605 1.1821097 234 88 12
-0.78609741 1.450936 1.1901964 234 88 12
-0.91774106 1.4831387 1.1620193 234 88 12
-0.90294939 1.4715356 1.1586256 234 88 12
-0.88819826 1.4626913 1.1567788 234 88 12
-0.87345296 1.4571245 1.1567788 234 88 12
-0.85867262 1.4551457 1.1588095 234 88 12
-0.84377235 1.4599135 1.1646698 234 88 12
-0.82894927 1.4557 1.1654494 234 88 12
-0.81409663 1.4523622 1.1667291 234 88 12
-0.79910618 1.4537702 1.170714 234 88 12
-0.91571194 1.4947677 1.1507804 234 88 12
-0.90089124 1.4762597 1.1435605 234 88 12
-0.88613784 1.4700458 1.1432005 234 88 12
-0.87138522 1.4644762 1.1432005 234 88 12
-0.85661983 1.4601493 1.143898 234 88 12
-0.84167808 1.4675908 1.1512129 234 88 12
-0.82667643 1.4727533 1.1572661 234 88 12
-0.89883494 1.4824337 1.1293058 234 88 12
-0.88407993 1.4759593 1.1288047 234 88 12
-0.86932462 1.4705197 1.1288773 234 88 12
-0.85455871 1.4659674 1.1294441 234 88 12
-0.83956409 1.4764509 1.1383951 234 88 12
-0.8245976 1.4787147 1.1427829 234 88 12
-0.88201934 1.4824635 1.1147298 234 88 12
-0.86726016 1.4769888 1.1147833 234 88 12
-0.85246384 1.4747258 1.1166102 234 88 12
-0.83741581 1.4873406 1.1266681 234 88 12
-0.86503202 1.5037502 1.111774 234 88 12
-0.88288707 1.4714468 1.2673191 234 88 12
-0.86555898 1.4760134 1.2661936 234 88 12
-0.85131598 1.4867482 1.2677057 234 88 12
-0.80782759 1.4775673 1.2576753 234 88 12
-0.92074031 1.4306511 1.2407457 234 88 12
-0.9002583 1.428969 1.2369853 234 88 12
-0.88206196 1.4315872 1.2350645 234 88 12
-0.86367589 1.433741 1.232954 234 88 12
-0.84661078 1.4384328 1.2319249 234 88 12
-0.82936054 1.4427027 1.2307212 234 88 12
-0.81383014 1.4504181 1.2309744 234 88 12
-0.79976159 1.4611536 1.2324972 234 88 12
-0.78847319 1.4777417 1.2364725 234 88 12
-0.93342191 1.417686 1.2200145 234 88 12
-0.91146582 1.4131786 1.2151043 234 88 12
-0.89436835 1.4178627 1.2140789 234 88 12
-0.87590522 1.4198253 1.2119144 234 88 12
-0.85880071 1.424372 1.2108411 234 88 12
-0.84320706 1.4318844 1.2110124 234 88 12
-0.82743669 1.4390486 1.2110376 234 88 12
-0.81152284 1.4459219 1.2109414 234 88 12
-0.79695255 1.4555551 1.2119941 234 88 12
-0.78454381 1.469733 1.2149304 234 88 12
-0.92975986 1.4110748 1.1990248 234 88 12
-0.91108537 1.4127793 1.1967652 234 88 12
-0.89436287 1.4181627 1.1960442 234 88 12
-0.87556463 1.419448 1.1936243 234 88 12
-0.85946667 1.4259571 1.1933783 234 88 12
-0.84367132 1.4330585 1.1933783 234 88 12
-0.82828414 1.4409833 1.1937182 234 88 12
-0.81235069 1.4478116 1.1936051 234 88 12
-0.79680955 1.4554418 1.1938221 234 88 12
-0.78536159 1.4715914 1.1975375 234 88 12
-0.93090725 1.4136083 1.1818954 234 88 12
-0.91217375 1.4152002 1.1796147 234 88 12
-0.89555264 1.4207799 1.1789826 234 88 12
-0.87665087 1.4218642 1.1765071 234 88 12
-0.86055273 1.4283727 1.1762637 234 88 12
-0.84484029 1.4356397 1.1763314 234 88 12
-0.82945293 1.4435657 1.1766679 234 88 12
-0.81365359 1.4506691 1.1766679 234 88 12
-0.79812616 1.4583319 1.1768956 234 88 12
-0.78766298 1.4765338 1.1814024 234 88 12
-0.91457337 1.4201391 1.1634899 234 88 12
-0.89752352 1.424912 1.1625351 234 88 12
-0.88118637 1.4310342 1.1621314 234 88 12
-0.86233985 1.4321747 1.1597108 234 88 12
-0.84697419 1.4401481 1.1600623 234 88 12
-0.83116972 1.4472537 1.1600623 234 88 12
-0.8157782 1.4552007 1.1604013 234 88 12
-0.8090741 1.4810427 1.1679372 234 88 12
-0.91234457 1.4539635 1.1560889 234 88 12
-0.89293975 1.4543395 1.1533647 234 88 12
-0.87690574 1.4612476 1.1532664 234 88 12
-0.86189848 1.4702014 1.1539866 234 88 12
-0.84543365 1.476251 1.153545 234 88 12
-0.83006573 1.4845133 1.1539866 234 88 12
-0.81833631 1.5002861 1.1574128 234 88 12
-0.91343564 1.4563917 1.1388164 234 88 12
-0.89673334 1.4620596 1.1382225 234 88 12
-0.88073897 1.4690982 1.1381733 234 88 12
-0.86487019 1.4763851 1.1382225 234 88 12
-0.84927577 1.484228 1.1384907 234 88 12
-0.83452165 1.4937966 1.1394376 234 88 12
-0.89805681 1.4649428 1.1211354 234 88 12
-0.88196403 1.471791 1.121012 234 88 12
-0.86619008 1.4792699 1.1211354 234 88 12
-0.85096651 1.4878654 1.1216936 234 88 12
-0.83691972 1.4988875 1.123194 234 88 12
-0.86837041 1.4838736 1.1047075 234 88 12
-0.87862045 1.4687637 1.2578859 234 88 12
-0.87147468 1.4816121 1.25763 234 88 12
-0.82961273 1.4672947 1.2486043 234 88 12
-0.81741542 1.4759486 1.2470521 234 88 12
-0.81203043 1.4899384 1.2472211 234 88 12
-0.88255793 1.4541068 1.2430838 234 88 12
-0.84593254 1.444221 1.2355397 234 88 12
-0.83271539 1.4521838 1.2337694 234 88 12
-0.81808341 1.4589607 1.2316414 234 88 12
-0.81113201 1.4716941 1.2314161 234 88 12
-0.80556124 1.4855131 1.2315341 234 88 12
-0.80364364 1.5022566 1.2325646 234 88 12
-0.92356682 1.4307797 1.2342705 234 88 12
-0.89712596 1.4292135 1.2293707 234 88 12
-0.87379885 1.4297944 1.2252073 234 88 12
-0.84960324 1.4295218 1.2208178 234 88 12
-0.83378923 1.4355172 1.2184498 234 88 12
-0.82069904 1.4435215 1.2167367 234 88 12
-0.81152952 1.4545164 1.2159739 234 88 12
-0.80543602 1.4679009 1.2159601 234 88 12
-0.80040079 1.4821247 1.2162056 234 88 12
-0.79996657 1.5000376 1.2175808 234 88 12
-0.92265683 1.4123877 1.218207 234 88 12
-0.89964902 1.4134753 1.2142142 234 88 12
-0.8777349 1.4152057 1.2104665 234 88 12
-0.86271596 1.4220095 1.2083459 234 88 12
-0.84140539 1.4238945 1.2047175 234 88 12
-0.8273235 1.4311908 1.2028023 234 88 12
-0.81773508 1.4418913 1.2019552 234 88 12
-0.80932242 1.453473 1.2013868 234 88 12
-0.80328524 1.4669011 1.2013868 234 88 12
-0.79782027 1.4807833 1.2015245 234 88 12
-0.9081139 1.4021776 1.2004529 234 88 12
-0.89336437 1.4093887 1.1984493 234 88 12
-0.86833811 1.408742 1.1940411 234 88 12
-0.85920781 1.4199851 1.1933316 234 88 12
-0.83761019 1.4216392 1.1897005 234 88 12
-0.8246538 1.4297932 1.1880829 234 88 12
-0.81724519 1.4421843 1.187763 234 88 12
-0.80784994 1.4530047 1.186974 234 88 12
-0.80138445 1.4660983 1.1868733 234 88 12
-0.79800636 1.4816389 1.1875017 234 88 12
-0.90528917 1.4006907 1.1854782 234 88 12
-0.8912797 1.4084514 1.1836802 234 88 12
-0.86673123 1.4081622 1.1794621 234 88 12
-0.85713679 1.4190539 1.1786592 234 88 12
-0.83999187 1.4241186 1.176118 234 88 12
-0.82482642 1.43059 1.1740232 234 88 12
-0.8161962 1.4420432 1.1734282 234 88 12
-0.80951327 1.4549929 1.1732811 234 88 12
-0.80533117 1.4699081 1.1737125 234 88 12
-0.83534241 1.5120071 1.1820771 234 88 12
-0.90978485 1.4046572 1.1721488 234 88 12
-0.8936404 1.41085 1.1699082 234 88 12
-0.88306671 1.4211448 1.168911 234 88 12
-0.85816711 1.4204839 1.164685 234 88 12
-0.85060138 1.4329093 1.164353 234 88 12
-0.84568644 1.4473658 1.1646188 234 88 12
-0.83607614 1.4581828 1.1638227 234 88 12
-0.83136153 1.4727962 1.1641339 234 88 12
-0.82929569 1.4895148 1.165048 234 88 12
-0.83494776 1.5124112 1.1677226 234 88 12
-0.89153796 1.4465441 1.1578264 234 88 12
-0.87477654 1.4521104 1.1554806 234 88 12
-0.85823023 1.457726 1.1531739 234 88 12
-0.84585983 1.4664756 1.151786 234 88 12
-0.83925313 1.4796724 1.1516751 234 88 12
-0.83666199 1.496033 1.1524589 234 88 12
-0.89108616 1.4468539 1.1433393 234 88 12
-0.87627405 1.4539227 1.1414626 234 88 12
-0.86171579 1.4610924 1.1396343 234 88 12
-0.85245389 1.4722909 1.1389524 234 88 12
-0.84632331 1.485909 1.1389511 234 88 12
-0.8418566 1.5008407 1.1393135 234 88 12
-0.87901634 1.4566919 1.1276784 234 88 12
-0.86640787 1.4653935 1.1263036 234 88 12
-0.85511822 1.4750503 1.1252052 234 88 12
-0.84794712 1.487879 1.1249833 234 88 12
-0.84490186 1.5039542 1.1256444 234 88 12
-0.87985462 1.4580013 1.1134559 234 88 12
-0.87292606 1.4711093 1.1132956 234 88 12
-0.86628217 1.4844306 1.1131941 234 88 12
-0.85835934 1.4967433 1.1128244 234 88 12
-0.87113076 1.4698111 1.2618744 234 88 12
-0.81046098 1.4606056 1.2384964 234 88 12
-0.80841672 1.4729042 1.237439 234 88 12
-0.8098405 1.4864939 1.2377017 234 88 12
-0.82042277 1.5035869 1.241448 234 88 12
-0.82994175 1.4413215 1.2328477 234 88 12
-0.81191462 1.4478492 1.2257751 234 88 12
-0.80551302 1.4585487 1.2230861 234 88 12
-0.80624604 1.4718673 1.2230861 234 88 12
-0.80815911 1.4856322 1.2235305 234 88 12
-0.81164962 1.5000081 1.2245688 234 88 12
-0.83406258 1.429435 1.2210389 234 88 12
-0.81523919 1.43576 1.2137394 234 88 12
-0.80604953 1.4454762 1.2100368 234 88 12
-0.80441433 1.4579195 1.2091534 234 88 12
-0.80514705 1.4712321 1.2091534 234 88 12
-0.80750018 1.4851573 1.2097576 234 88 12
-0.81377465 1.5005916 1.2118231 234 88 12
-0.91608799 1.4317629 1.2382596 234 88 12
-0.85114032 1.4221269 1.2139846 234 88 12
-0.82239169 1.4250206 1.203091 234 88 12
-0.81274664 1.4346359 1.199257 234 88 12
-0.80657065 1.4454474 1.1967053 234 88 12
-0.80522811 1.4579995 1.1959391 234 88 12
-0.80596089 1.4713131 1.1959391 234 88 12
-0.80941504 1.4856555 1.1969433 234 88 12
-0.89535785 1.410841 1.2170006 234 88 12
-0.85640931 1.4105307 1.202482 234 88 12
-0.84605891 1.4201019 1.1984255 234 88 12
-0.82046413 1.4241105 1.1887983 234 88 12
-0.81488353 1.4351937 1.1864896 234 88 12
-0.81095052 1.4468346 1.1847839 234 88 12
-0.80846959 1.4589791 1.1836095 234 88 12
-0.80986184 1.4725496 1.1838502 234 88 12
-0.8377775 1.4961505 1.1937762 234 88 12
-0.9144488 1.4037974 1.2103119 234 88 12
-0.88403064 1.4066795 1.1990284 234 88 12
-0.85447073 1.4096329 1.1880603 234 88 12
-0.85100067 1.4216434 1.1865358 234 88 12
-0.82681471 1.4261763 1.1775186 234 88 12
-0.81802464 1.4361159 1.1740731 234 88 12
-0.81634718 1.4485942 1.1732006 234 88 12
-0.81829727 1.4623988 1.1736399 234 88 12
-0.82650566 1.4785545 1.1763407 234 88 12
-0.8400659 1.4967879 1.1809744 234 88 12
-0.85070544 1.5140014 1.184551 234 88 12
-0.89900815 1.398262 1.1908368 234 88 12
-0.88452923 1.4066383 1.1853821 234 88 12
-0.85814738 1.4107119 1.1756679 234 88 12
-0.85324496 1.4222248 1.1736466 234 88 12
-0.85289055 1.4353304 1.1732539 234 88 12
-0.83598101 1.442417 1.1669376 234 88 12
-0.83614695 1.455636 1.1667325 234 88 12
-0.83702743 1.4691155 1.1667831 234 88 12
-0.83879262 1.4829271 1.16715 234 88 12
-0.84442538 1.4982077 1.1688995 234 88 12
-0.85124165 1.5139759 1.1710714 234 88 12
-0.8915441 1.408866 1.1740446 234 88 12
-0.88492495 1.4199204 1.1714339 234 88 12
-0.87792379 1.4307843 1.1686891 234 88 12
-0.87356544 1.4425406 1.1668811 234 88 12
-0.86134994 1.4514068 1.1622926 234 88 12
-0.84774101 1.4596663 1.1572127 234 88 12
-0.84403163 1.4714864 1.1556379 234 88 12
-0.84487742 1.484978 1.1556752 234 88 12
-0.84752864 1.4991523 1.1563511 234 88 12
-0.90239543 1.4258509 1.163738 234 88 12
-0.87592453 1.4431682 1.1539394 234 88 12
-0.86509132 1.4525437 1.1498843 234 88 12
-0.85630041 1.4625823 1.1465459 234 88 12
-0.85014933 1.4735283 1.1441329 234 88 12
-0.85081679 1.4869738 1.144107 234 88 12
-0.85193592 1.5005893 1.1442391 234 88 12
-0.8649323 1.5187378 1.1485257 234 88 12
-0.87748027 1.443507 1.1407053 234 88 12
-0.87313598 1.4552418 1.1389419 234 88 12
-0.86181509 1.4643813 1.1347634 234 88 12
-0.85272849 1.4742591 1.1313601 234 88 12
-0.85245806 1.4873614 1.1310097 234 88 12
-0.85445964 1.5013143 1.1314456 234 88 12
-0.87526715 1.4557934 1.1259165 234 88 12
-0.87068212 1.4674085 1.1240907 234 88 12
-0.86374539 1.4781137 1.1214604 234 88 12
-0.86249429 1.4908879 1.1207775 234 88 12
-0.86519498 1.5051398 1.1214472 234 88 12
-0.87507224 1.4687939 1.1118382 234 88 12
-0.87195796 1.4809287 1.1105312 234 88 12
-0.93337089 1.4274381 1.2335421 234 88 12
-0.94598055 1.4611068 1.2293605 234 88 12
-0.93810672 1.4359881 1.213383 234 88 12
-0.92830831 1.4228988 1.2103341 234 88 12
-0.91804105 1.4126315 1.2103341 234 88 12
-0.90719712 1.4055872 1.2138543 234 88 12
-0.94007522 1.4611812 1.2112156 234 88 12
-0.9315697 1.440172 1.1997194 234 88 12
-0.92148358 1.4288542 1.1985871 234 88 12
-0.91136891 1.4177482 1.1976756 234 88 12
-0.9010123 1.4080192 1.1982526 234 88 12
-0.88965189 1.4036837 1.2047116 234 88 12
-0.92450994 1.4474941 1.1894426 234 88 12
-0.91458565 1.4352533 1.1873289 234 88 12
-0.90436769 1.4247495 1.1870681 234 88 12
-0.89406306 1.4147307 1.1873289 234 88 12
-0.88319629 1.4077018 1.1908307 234 88 12
-0.87046081 1.4102778 1.2048008 234 88 12
-0.92543036 1.4786988 1.1935591 234 88 12
-0.91610402 1.4626234 1.1874481 234 88 12
-0.90733284 1.4436773 1.1782355 234 88 12
-0.89728528 1.4321998 1.1769408 234 88 12
-0.88700265 1.422049 1.1770602 234 88 12
-0.87609804 1.4151787 1.1807129 234 88 12
-0.86392629 1.4146994 1.1912997 234 88 12
-0.85244399 1.4103062 1.1977184 234 88 12
-0.83638662 1.4282564 1.2285099 234 88 12
-0.91870916 1.4838619 1.180918 234 88 12
-0.90904349 1.4698449 1.1770082 234 88 12
-0.89898956 1.4581783 1.175559 234 88 12
-0.88936657 1.444217 1.171661 234 88 12
-0.87912244 1.4337445 1.1714559 234 88 12
-0.86819124 1.4268719 1.1751026 234 88 12
-0.85611701 1.4256902 1.1848898 234 88 12
-0.8456288 1.4161816 1.18577 234 88 12
-0.83233351 1.4203695 1.201479 234 88 12
-0.91170371 1.4907202 1.1700718 234 88 12
-0.90277439 1.4725732 1.1618527 234 88 12
-0.89285827 1.4602581 1.1597136 234 88 12
-0.88253009 1.450267 1.1600142 234 88 12
-0.8716132 1.4433776 1.1636055 234 88 12
-0.85923731 1.4438847 1.1750928 234 88 12
-0.84901386 1.4330283 1.1745285 234 88 12
-0.83812457 1.425491 1.1775173 234 88 12
-0.82473594 1.4299433 1.1934255 234 88 12
-0.813429 1.423901 1.1981198 234 88 12
-0.90464854 1.4978681 1.159529 234 88 12
-0.89640701 1.4759487 1.1474258 234 88 12
-0.88630861 1.4647386 1.1464421 234 88 12
-0.87590772 1.4551914 1.1471975 234 88 12
-0.86513686 1.4475489 1.1499656 234 88 12
-0.85054308 1.4593649 1.1733351 234 88 12
-0.84057772 1.4470379 1.1712453 234 88 12
-0.82832789 1.4459941 1.1811613 234 88 12
-0.81758022 1.4373492 1.1830219 234 88 12
-0.80632836 1.4310015 1.1873616 234 88 12
-0.79177004 1.439706 1.2079462 234 88 12
-0.89759976 1.5049772 1.1489446 234 88 12
-0.88964224 1.4816089 1.1354117 234 88 12
-0.87957436 1.4702742 1.1342994 234 88 12
-0.8691119 1.4610785 1.1354117 234 88 12
-0.85828292 1.4537349 1.1384723 234 88 12
-0.84369439 1.4653211 1.1614574 234 88 12
-0.8323372 1.4599413 1.1667063 234 88 12
-0.82054353 1.4564699 1.1740144 234 88 12
-0.80985641 1.4474504 1.1754789 234 88 12
-0.79850572 1.4414636 1.1801891 234 88 12
-0.78344262 1.4522318 1.2028725 234 88 12
-0.88275427 1.4879743 1.124141 234 88 12
-0.87257254 1.4772761 1.123691 234 88 12
-0.86222845 1.4674485 1.124141 234 88 12
-0.85082608 1.4630305 1.1302276 234 88 12
-0.83667225 1.4721698 1.1505264 234 88 12
-0.82454807 1.4705143 1.1596495 234 88 12
-0.81183916 1.4713068 1.1714153 234 88 12
-0.80057979 1.4648098 1.1755655 234 88 12
-0.78810686 1.4637524 1.1855136 234 88 12
-0.87542027 1.4967743 1.1153716 234 88 12
-0.86548847 1.4847143 1.113531 234 88 12
-0.85489666 1.4761586 1.1152918 234 88 12
-0.84162807 1.4811226 1.1310599 234 88 12
-0.82929832 1.4807713 1.1414191 234 88 12
-0.85525125 1.5087048 1.1202765 234 88 12
-0.84384012 1.5039732 1.1260092 234 88 12
-0.85614175 1.4626956 1.2691284 234 88 12
-0.93054754 1.4116902 1.2185802 234 88 12
-0.90978509 1.4057481 1.2117898 234 88 12
-0.89163369 1.4070617 1.2105716 234 88 12
-0.87428653 1.4106781 1.2111193 234 88 12
-0.85664439 1.4134409 1.2110128 234 88 12
-0.83975559 1.4184692 1.2126387 234 88 12
-0.82397687 1.4269607 1.2169083 234 88 12
-0.80693161 1.4316926 1.2183007 234 88 12
-0.79279321 1.4456648 1.2267398 234 88 12
-0.9530673 1.4277414 1.2106736 234 88 12
-0.9292239 1.4134135 1.1975404 234 88 12
-0.91062284 1.4134775 1.19538 234 88 12
-0.89285499 1.4158603 1.1949861 234 88 12
-0.87532634 1.4189276 1.1951128 234 88 12
-0.85768974 1.4216789 1.1949996 234 88 12
-0.84021741 1.4249215 1.1952592 234 88 12
-0.8244406 1.4333701 1.199464 234 88 12
-0.80746233 1.4382547 1.2009631 234 88 12
-0.79079556 1.4441884 1.2032536 234 88 12
-0.77753723 1.4611765 1.213899 234 88 12
-0.95589387 1.4410596 1.1983916 234 88 12
-0.93087447 1.4234536 1.1828859 234 88 12
-0.91215831 1.4231857 1.1804924 234 88 12
-0.89451402 1.4259192 1.1803664 234 88 12
-0.87697506 1.4289564 1.1804695 234 88 12
-0.85934871 1.4317378 1.1803799 234 88 12
-0.84187657 1.4349813 1.1806381 234 88 12
-0.8259148 1.4428699 1.184388 234 88 12
-0.80906463 1.4481475 1.1861706 234 88 12
-0.79201663 1.4528745 1.1875371 234 88 12
-0.77877307 1.4699056 1.19813 234 88 12
-0.93574727 1.4425446 1.175014 234 88 12
-0.91459972 1.4354743 1.1675413 234 88 12
-0.89653814 1.4370339 1.1665367 234 88 12
-0.87896681 1.4399921 1.1665792 234 88 12
-0.86132658 1.4427468 1.1664697 234 88 12
-0.84405917 1.4466248 1.1671988 234 88 12
-0.82835007 1.4553211 1.17152 234 88 12
-0.81112742 1.4594768 1.1724509 234 88 12
-0.7953831 1.4683603 1.1769005 234 88 12
-0.92193633 1.4617405 1.1649437 234 88 12
-0.90104616 1.4553449 1.1580344 234 88 12
-0.8828814 1.4566822 1.1568699 234 88 12
-0.86525851 1.4595888 1.1568699 234 88 12
-0.8482917 1.4644829 1.1583413 234 88 12
-0.83321398 1.4752508 1.1641555 234 88 12
-0.81724972 1.4834964 1.1680961 234 88 12
-0.9266364 1.4805181 1.1566343 234 88 12
-0.90209955 1.4636608 1.1420758 234 88 12
-0.88395756 1.4650365 1.14095 234 88 12
-0.86634302 1.4679416 1.14095 234 88 12
-0.84921092 1.4723107 1.1420249 234 88 12
-0.83480418 1.4851215 1.1492921 234 88 12
-0.82329482 1.5073115 1.1634243 234 88 12
-0.90366834 1.4734684 1.1272273 234 88 12
-0.88537103 1.47438 1.1257724 234 88 12
-0.8676787 1.4770416 1.1255952 234 88 12
-0.8505674 1.4814607 1.1266984 234 88 12
-0.83674783 1.4960818 1.1352245 234 88 12
-0.88742781 1.4856204 1.1119758 234 88 12
-0.86934 1.4871143 1.1109552 234 88 12
-0.85644406 1.5043586 1.1213144 234 88 12
-0.86344653 1.4757514 1.2733651 234 88 12
-0.81949574 1.455054 1.2493644 234 88 12
-0.80468851 1.4643971 1.2462283 234 88 12
-0.79743755 1.4816675 1.2485441 234 88 12
-0.84278995 1.4285116 1.2314633 234 88 12
-0.82267153 1.4324288 1.2246035 234 88 12
-0.81053191 1.4444908 1.2233794 234 88 12
-0.80033958 1.4585679 1.2235388 234 88 12
-0.79116863 1.4737301 1.2244325 234 88 12
-0.79059595 1.4980915 1.2315261 234 88 12
-0.90181869 1.4134066 1.231136 234 88 12
-0.87872601 1.4147682 1.2224017 234 88 12
-0.85682499 1.4171312 1.2144374 234 88 12
-0.83714759 1.42158 1.2079741 234 88 12
-0.82305157 1.4316357 1.2053896 234 88 12
-0.81183118 1.4446225 1.204816 234 88 12
-0.80292118 1.4600203 1.2058748 234 88 12
-0.79391575 1.475343 1.2068734 234 88 12
-0.79056919 1.4967273 1.2119168 234 88 12
-0.91403115 1.4000375 1.2126611 234 88 12
-0.89506531 1.4056075 1.2068682 234 88 12
-0.87167221 1.4065801 1.1979831 234 88 12
-0.8589828 1.4182059 1.1964375 234 88 12
-0.8404088 1.4237703 1.1907964 234 88 12
-0.82646143 1.4339728 1.1883377 234 88 12
-0.81570506 1.4474359 1.1880918 234 88 12
-0.80565196 1.4616307 1.1883377 234 88 12
-0.79814553 1.4785254 1.1903784 234 88 12
-0.80142146 1.506969 1.2000536 234 88 12
-0.91403097 1.3990203 1.1930863 234 88 12
-0.89783758 1.4073263 1.1892241 234 88 12
-0.87558192 1.4094363 1.1811969 234 88 12
-0.86322522 1.4213978 1.179893 234 88 12
-0.84564477 1.4279821 1.1749891 234 88 12
-0.83219689 1.4387099 1.1729009 234 88 12
-0.82068944 1.4514046 1.1721412 234 88 12
-0.81164449 1.466663 1.1730871 234 88 12
-0.80598807 1.4855276 1.1764028 234 88 12
-0.91959357 1.4035125 1.177301 234 88 12
-0.90359128 1.4120218 1.1736078 234 88 12
-0.89063758 1.4235084 1.1719493 234 88 12
-0.86893523 1.4260787 1.1643442 234 88 12
-0.85798723 1.4394622 1.1640064 234 88 12
-0.84227961 1.4479289 1.1604142 234 88 12
-0.83083677 1.4607408 1.1597204 234 88 12
-0.83179772 1.4865381 1.1675571 234 88 12
-0.82546115 1.5048184 1.1704106 234 88 12
-0.91341114 1.4207728 1.1606843 234 88 12
-0.90006316 1.4319094 1.1587911 234 88 12
-0.889449 1.4457717 1.1587209 234 88 12
-0.87501955 1.4557313 1.156078 234 88 12
-0.861292 1.4663485 1.1538912 234 88 12
-0.84954023 1.4789647 1.1530303 234 88 12
-0.83983749 1.4937063 1.1535594 234 88 12
-0.83209825 1.5105355 1.1554352 234 88 12
-0.9228912 1.4537832 1.1544492 234 88 12
-0.8933202 1.4485807 1.141813 234 88 12
-0.88031828 1.4599975 1.1401482 234 88 12
-0.86750877 1.4715708 1.1386002 234 88 12
-0.85664839 1.4851301 1.1383517 234 88 12
-0.84626245 1.4991801 1.1384215 234 88 12
-0.83708912 1.5145122 1.1393131 234 88 12
-0.89771408 1.4519196 1.1252548 234 88 12
-0.88458204 1.4632056 1.1235205 234 88 12
-0.87284768 1.4758873 1.122701 234 88 12
-0.86183578 1.4892985 1.1223567 234 88 12
-0.85165089 1.5035666 1.1225624 234 88 12
-0.89071834 1.468326 1.1081183 234 88 12
-0.8779822 1.4799924 1.1066535 234 88 12
-0.86961728 1.4961588 1.1080592 234 88 12
-0.93793815 1.4613426 1.2235997 234 88 12
-0.93728656 1.4434483 1.2127056 234 88 12
-0.93601739 1.428745 1.2089493 234 88 12
-0.93406218 1.4174449 1.2129999 234 88 12
-0.92711115 1.4588883 1.2087644 234 88 12
-0.92621714 1.4423859 1.2009846 234 88 12
-0.92473197 1.4288062 1.1997615 234 88 12
-0.9230994 1.4159378 1.2001588 234 88 12
-0.92044288 1.4780678 1.1841458 234 88 12
-0.91878557 1.4653764 1.1848468 234 88 12
-0.91641635 1.4560633 1.1931416 234 88 12
-0.91469896 1.4435949 1.194432 234 88 12
-0.91321677 1.4300218 1.1932232 234 88 12
-0.91165209 1.4168395 1.1928937 234 88 12
-0.90987355 1.4046272 1.1948085 234 88 12
-0.91100115 1.4901234 1.1729167 234 88 12
-0.90945601 1.4769256 1.1724535 234 88 12
-0.90780324 1.4642348 1.1731089 234 88 12
-0.90586203 1.4528646 1.1767311 234 88 12
-0.90321785 1.4446487 1.1875317 234 88 12
-0.90169227 1.4312917 1.1868113 234 88 12
-0.90009648 1.4182539 1.1868113 234 88 12
-0.89842439 1.4055496 1.1875829 234 88 12
-0.9009285 1.5052286 1.1683904 234 88 12
-0.90027714 1.4878881 1.1589128 234 88 12
-0.89940459 1.4716663 1.1517426 234 88 12
-0.89765996 1.4594635 1.1533595 234 88 12
-0.8952145 1.4503688 1.1619428 234 88 12
-0.89254576 1.4421614 1.172664 234 88 12
-0.88997132 1.4334252 1.1823609 234 88 12
-0.88846767 1.4199826 1.181448 234 88 12
-0.88670236 1.4076595 1.1831033 234 88 12
-0.88970315 1.5053173 1.159479 234 88 12
-0.89024532 1.4827688 1.138678 234 88 12
-0.88872027 1.4696186 1.1381456 234 88 12
-0.88689625 1.4577836 1.1405103 234 88 12
-0.88460946 1.4479243 1.1473138 234 88 12
-0.88155258 1.44128 1.1614472 234 88 12
-0.87795168 1.436776 1.1806579 234 88 12
-0.87649775 1.4231139 1.1792827 234 88 12
-0.87455744 1.4114689 1.1825268 234 88 12
-0.88025486 1.4976507 1.1338924 234 88 12
-0.87922311 1.4823493 1.1287092 234 88 12
-0.87764502 1.4694563 1.1287092 234 88 12
-0.87564564 1.4583544 1.1326562 234 88 12
-0.87328631 1.4487207 1.1399286 234 88 12
-0.86983109 1.4435534 1.1573225 234 88 12
-0.86515534 1.4431978 1.1858664 234 88 12
-0.86376673 1.4292272 1.1838859 234 88 12
-0.86173636 1.4178436 1.1878111 234 88 12
-0.8596068 1.4068094 1.1926115 234 88 12
-0.86872375 1.4994246 1.1286694 234 88 12
-0.8681097 1.4824201 1.1198214 234 88 12
-0.86621773 1.470855 1.1226943 234 88 12
-0.8641519 1.4599764 1.127122 234 88 12
-0.86138499 1.4519104 1.1378535 234 88 12
-0.85666293 1.4516101 1.1661067 234 88 12
-0.85315228 1.4461789 1.1832676 234 88 12
-0.85169154 1.4324976 1.1819783 234 88 12
-0.85008699 1.4193889 1.1819783 234 88 12
-0.84790057 1.4085141 1.1871364 234 88 12
-0.85636103 1.504638 1.1308072 234 88 12
-0.85530198 1.4895331 1.126145 234 88 12
-0.85383499 1.4761368 1.1251252 234 88 12
-0.85100895 1.4682097 1.1360805 234 88 12
-0.84814864 1.4603002 1.1472507 234 88 12
-0.84442723 1.4556465 1.165857 234 88 12
-0.84122002 1.4488008 1.1798439 234 88 12
-0.83974385 1.4351796 1.1787161 234 88 12
-0.83808768 1.4222509 1.1791511 234 88 12
-0.83251023 1.4239656 1.2133156 234 88 12
-0.84222656 1.497408 1.1340457 234 88 12
-0.84035021 1.4855677 1.1365148 234 88 12
-0.83833557 1.4742414 1.1401472 234 88 12
-0.83541757 1.4663652 1.1514438 234 88 12
-0.83184707 1.4608583 1.1681892 234 88 12
-0.82883257 1.4530759 1.1801101 234 88 12
-0.82642525 1.4429038 1.1868294 234 88 12
-0.82481074 1.4297415 1.1868497 234 88 12
-0.82222545 1.4201102 1.1949806 234 88 12
-0.8233974 1.4886526 1.1624397 234 88 12
-0.82137215 1.4771334 1.165925 234 88 12
-0.81867009 1.4680932 1.174962 234 88 12
-0.81623274 1.4579846 1.1817592 234 88 12
-0.81462008 1.4448096 1.1817592 234 88 12
-0.81280005 1.4323788 1.1834502 234 88 12
-0.80456603 1.4783955 1.1884501 234 88 12
-0.80372393 1.4623924 1.1822516 234 88 12
-0.80225509 1.4486734 1.1810838 234 88 12
-0.80044621 1.4361564 1.1826203 234 88 12
-0.7899524 1.4710679 1.1921972 234 88 12
-0.78835189 1.4577323 1.1920244 234 88 12
-0.9332009 1.4085592 1.2107527 234 88 12
-0.91490394 1.4007103 1.2028227 234 88 12
-0.89814037 1.3980752 1.2019981 234 88 12
-0.88205111 1.3978689 1.2044904 234 88 12
-0.94896281 1.4284911 1.2072608 234 88 12
-0.92969775 1.417449 1.1950811 234 88 12
-0.912521 1.4133693 1.1923078 234 88 12
-0.89586109 1.4110574 1.1919252 234 88 12
-0.87939137 1.409431 1.1924716 234 88 12
-0.86344469 1.4097863 1.1957076 234 88 12
-0.84716958 1.408991 1.1973859 234 88 12
-0.83238178 1.4141022 1.2070931 234 88 12
-0.81893474 1.4249612 1.2246318 234 88 12
-0.94694519 1.4425298 1.1985294 234 88 12
-0.92777371 1.4317269 1.1867626 234 88 12
-0.91072136 1.4280627 1.1845682 234 88 12
-0.89406246 1.4257522 1.1841904 234 88 12
-0.8775596 1.4240065 1.1845721 234 88 12
-0.86160332 1.424342 1.1877565 234 88 12
-0.84508812 1.4226233 1.1881778 234 88 12
-0.8290174 1.4226815 1.1909958 234 88 12
-0.81367904 1.4258159 1.1979698 234 88 12
-0.79799414 1.427767 1.203356 234 88 12
-0.92729914 1.4510672 1.1851971 234 88 12
-0.90915477 1.4435883 1.1779381 234 88 12
-0.89217991 1.4401406 1.1760468 234 88 12
-0.87568432 1.4384176 1.1764555 234 88 12
-0.85984236 1.4392017 1.180215 234 88 12
-0.84328789 1.4373358 1.1804364 234 88 12
-0.82746327 1.4383949 1.1845725 234 88 12
-0.81174099 1.4400244 1.1894786 234 88 12
-0.79553074 1.4397898 1.1918941 234 88 12
-0.78157258 1.4493462 1.2074455 234 88 12
-0.92565054 1.466342 1.1781631 234 88 12
-0.90549052 1.4515766 1.1613185 234 88 12
-0.88782632 1.4454366 1.15587 234 88 12
-0.87139714 1.4437568 1.1563234 234 88 12
-0.8561542 1.4466536 1.1628467 234 88 12
-0.84181517 1.4533372 1.1744053 234 88 12
-0.82650375 1.4565202 1.1813322 234 88 12
-0.81001711 1.4551077 1.1821615 234 88 12
-0.79380786 1.4549009 1.1845958 234 88 12
-0.77968597 1.463853 1.1992253 234 88 12
-0.92316025 1.4786354 1.1672062 234 88 12
-0.90201175 1.4601327 1.1455783 234 88 12
-0.8848505 1.4556916 1.1423973 234 88 12
-0.86838907 1.4537942 1.1425569 234 88 12
-0.85284865 1.4554722 1.1474226 234 88 12
-0.83860803 1.4624792 1.1593142 234 88 12
-0.82380939 1.4676538 1.1688081 234 88 12
-0.80875361 1.4721129 1.1773727 234 88 12
-0.79361093 1.4765301 1.1858947 234 88 12
-0.78122479 1.493353 1.2108182 234 88 12
-0.92155904 1.4940736 1.1603928 234 88 12
-0.89957261 1.4723945 1.134788 234 88 12
-0.88236552 1.4677111 1.1313127 234 88 12
-0.86588776 1.4656942 1.1313127 234 88 12
-0.85028571 1.4670986 1.1357816 234 88 12
-0.83631742 1.4751966 1.1490071 234 88 12
-0.82097465 1.4781536 1.1555268 234 88 12
-0.89787716 1.4873592 1.1275406 234 88 12
-0.88011909 1.4805881 1.121389 234 88 12
-0.8484686 1.4816141 1.1279454 234 88 12
-0.83441591 1.4894505 1.140732 234 88 12
-0.81951296 1.4942535 1.1495992 234 88 12
-0.87895757 1.4975545 1.1167532 234 88 12
-0.86247599 1.4955373 1.1167532 234 88 12
-0.84838367 1.5030032 1.1289557 234 88 12
-0.83330137 1.5068954 1.1365741 234 88 12
-0.80786908 1.4402657 1.2394758 234 88 12
-0.79314041 1.4503424 1.2363037 234 88 12
-0.78649145 1.4709702 1.2453533 234 88 12
-0.83606642 1.4158258 1.2177676 234 88 12
-0.81831485 1.4220362 1.210134 234 88 12
-0.80480248 1.433553 1.2087158 234 88 12
-0.79354811 1.4479746 1.210659 234 88 12
-0.78395325 1.4646082 1.2151226 234 88 12
-0.78182417 1.4912199 1.2309415 234 88 12
-0.89311439 1.3988431 1.2197809 234 88 12
-0.87437803 1.4041767 1.2110009 234 88 12
-0.85519171 1.408794 1.201468 234 88 12
-0.84041524 1.4187816 1.1982553 234 88 12
-0.82615912 1.4293718 1.1957686 234 88 12
-0.81298465 1.4413048 1.1948485 234 88 12
-0.80073887 1.4544251 1.1952957 234 88 12
-0.7916438 1.4716815 1.2004508 234 88 12
-0.78617716 1.4938371 1.2111148 234 88 12
-0.91477144 1.394832 1.2069637 234 88 12
-0.89664727 1.4009904 1.1991715 234 88 12
-0.87835014 1.4067973 1.1910436 234 88 12
-0.86407495 1.4174559 1.1886071 234 88 12
-0.84959412 1.4278125 1.1858449 234 88 12
-0.83539206 1.4384725 1.1834565 234 88 12
-0.8222149 1.4504029 1.1825401 234 88 12
-0.80997044 1.4635243 1.1829854 234 88 12
-0.80106813 1.4810282 1.1883837 234 88 12
-0.80082536 1.5100845 1.2067407 234 88 12
-0.92126513 1.4006207 1.1906217 234 88 12
-0.90575385 1.4099268 1.1865554 234 88 12
-0.88932687 1.4180351 1.1811441 234 88 12
-0.87351459 1.4268093 1.1765482 234 88 12
-0.86010981 1.4385202 1.1753539 234 88 12
-0.84576172 1.4490138 1.1727847 234 88 12
-0.83263224 1.4610209 1.1719543 234 88 12
-0.82121384 1.4752268 1.1736119 234 88 12
-0.81396496 1.4949144 1.1814108 234 88 12
-0.93235064 1.411937 1.1807319 234 88 12
-0.91546857 1.4196025 1.174794 234 88 12
-0.90177643 1.4310776 1.1732777 234 88 12
-0.88427943 1.437806 1.1663604 234 88 12
-0.86960828 1.4479502 1.1633857 234 88 12
-0.85666859 1.4602326 1.1628551 234 88 12
-0.8441416 1.4730331 1.1629125 234 88 12
-0.83175892 1.4860212 1.1631794 234 88 12
-0.82170993 1.5020621 1.1668479 234 88 12
-0.93110615 1.4364687 1.1712438 234 88 12
-0.91270864 1.4422525 1.1632216 234 88 12
-0.8910563 1.4438573 1.1505402 234 88 12
-0.87597144 1.4534541 1.1469859 234 88 12
-0.86304653 1.4657184 1.1464573 234 88 12
-0.85136229 1.4795583 1.1476941 234 88 12
-0.84051561 1.4945029 1.150148 234 88 12
-0.82886285 1.5084416 1.1514661 234 88 12
-0.93000561 1.4612252 1.1619407 234 88 12
-0.89878923 1.4510975 1.1361073 234 88 12
-0.88304758 1.4598564 1.1316501 234 88 12
-0.86859614 1.4701639 1.1289591 234 88 12
-0.85734677 1.4845104 1.1307721 234 88 12
-0.84918994 1.5028797 1.1370108 234 88 12
-0.83832461 1.5178357 1.1394414 234 88 12
-0.90967208 1.4622381 1.1260587 234 88 12
-0.89227295 1.4689496 1.119348 234 88 12
-0.87781352 1.4792492 1.1166677 234 88 12
-0.86656952 1.493601 1.1184736 234 88 12
-0.85843343 1.5119915 1.1246908 234 88 12
-0.89214277 1.4947833 1.1114587 234 88 12
-0.88499546 1.5144202 1.1189978 234 88 12
-0.79992425 1.4525251 1.2360169 234 88 12
-0.7958656 1.4672679 1.2343979 234 88 12
-0.79603511 1.4844025 1.236264 234 88 12
-0.82987577 1.4316605 1.2367357 234 88 12
-0.80543178 1.4352404 1.2184931 234 88 12
-0.80031681 1.4493815 1.2160223 234 88 12
-0.79779887 1.4649552 1.2156718 234 88 12
-0.79691672 1.4814563 1.2166595 234 88 12
-0.80413467 1.5026283 1.2242812 234 88 12
-0.81740195 1.4215484 1.2062644 234 88 12
-0.81066012 1.434821 1.2024975 234 88 12
-0.80774909 1.4501804 1.2018316 234 88 12
-0.80520594 1.4657382 1.2014632 234 88 12
-0.80400008 1.4820514 1.20218 234 88 12
-0.81061053 1.5028602 1.2092479 234 88 12
-0.84327489 1.4153473 1.2051692 234 88 12
-0.82341164 1.4215704 1.1909019 234 88 12
-0.81772316 1.4354187 1.1880105 234 88 12
-0.81563401 1.4512322 1.1880105 234 88 12
-0.81354481 1.4670458 1.1880105 234 88 12
-0.81272948 1.4835821 1.1890365 234 88 12
-0.8741073 1.4115947 1.2078032 234 88 12
-0.85117602 1.4163859 1.1912252 234 88 12
-0.83413261 1.4241638 1.179318 234 88 12
-0.82738149 1.4374462 1.1756033 234 88 12
-0.82458168 1.4528745 1.1750371 234 88 12
-0.82363862 1.4693369 1.175953 234 88 12
-0.82895583 1.4893572 1.1818726 234 88 12
-0.83519191 1.5099826 1.1885347 234 88 12
-0.88872641 1.3990189 1.1973588 234 88 12
-0.88162816 1.4124099 1.1934278 234 88 12
-0.8605752 1.4182314 1.178465 234 88 12
-0.85698688 1.4333515 1.1772915 234 88 12
-0.8498944 1.4465311 1.1733441 234 88 12
-0.84555912 1.4611865 1.1715744 234 88 12
-0.8418557 1.4761721 1.1703029 234 88 12
-0.83960271 1.4919603 1.1701796 234 88 12
-0.84002686 1.5092746 1.1721798 234 88 12
-0.89684379 1.4001468 1.1834249 234 88 12
-0.88975281 1.4135474 1.1795309 234 88 12
-0.87124747 1.4207584 1.1666842 234 88 12
-0.86850822 1.4363556 1.1661874 234 88 12
-0.85978645 1.4486662 1.1609943 234 88 12
-0.85196018 1.4614021 1.1564977 234 88 12
-0.84882981 1.4767015 1.155686 234 88 12
-0.84670615 1.492558 1.1556649 234 88 12
-0.84504372 1.5086769 1.1560068 234 88 12
-0.91020966 1.4040357 1.1735655 234 88 12
-0.90212333 1.4169406 1.1689316 234 88 12
-0.89758813 1.4316883 1.1670531 234 88 12
-0.87882048 1.4386972 1.1540973 234 88 12
-0.86942208 1.4506569 1.14842 234 88 12
-0.85985273 1.4624448 1.1426021 234 88 12
-0.85671985 1.4777439 1.1417948 234 88 12
-0.85459614 1.4936004 1.1417738 234 88 12
-0.8527528 1.509616 1.1419717 234 88 12
-0.92934817 1.4282037 1.169729 234 88 12
-0.93051845 1.4461114 1.1722766 234 88 12
-0.88632965 1.4395176 1.1398138 234 88 12
-0.87799484 1.4520636 1.1350032 234 88 12
-0.86940587 1.4644033 1.1299899 234 88 12
-0.86531675 1.4791799 1.1284503 234 88 12
-0.86292291 1.4948883 1.1282208 234 88 12
-0.86217761 1.5115291 1.1292677 234 88 12
-0.88701367 1.453712 1.1219199 234 88 12
-0.87857592 1.4661475 1.1170633 234 88 12
-0.87402058 1.4806738 1.1151791 234 88 12
-0.87370318 1.4975519 1.1165459 234 88 12
-0.89454502 1.4716251 1.1092921 234 88 12
-0.89315295 1.4879512 1.1098344 234 88 12
-0.84767604 1.5110747 1.1398253 234 88 12
-0.86115491 1.5088612 1.1341567 234 88 12
-0.87649608 1.5099303 1.1368945 234 88 12
-0.8343156 1.4988147 1.146245 234 88 12
-0.84643435 1.4941406 1.1341567 234 88 12
-0.85932302 1.4909621 1.1259365 234 88 12
-0.87296247 1.4891713 1.121305 234 88 12
-0.8900156 1.4931667 1.1316381 234 88 12
-0.82289636 1.4901097 1.1620774 234 88 12
-0.83425468 1.4839398 1.145962 234 88 12
-0.84703404 1.4804682 1.1368945 234 88 12
-0.8590979 1.4758862 1.1249266 234 88 12
-0.87296247 1.4744996 1.121305 234 88 12
-0.88870156 1.4762728 1.1259365 234 88 12
-0.90703607 1.4822297 1.1414955 234 88 12
-0.79057026 1.4983189 1.2228513 234 88 12
-0.80193865 1.491456 1.2047458 234 88 12
-0.81297159 1.4842325 1.185689 234 88 12
-0.82380152 1.4769055 1.1663585 234 88 12
-0.834791 1.4701186 1.1484537 234 88 12
-0.84804189 1.4674811 1.1414955 234 88 12
-0.86059362 1.4637448 1.1316381 234 88 12
-0.87422675 1.4619422 1.1268828 234 88 12
-0.8900156 1.4637448 1.1316381 234 88 12
-0.90704423 1.4674944 1.1415303 234 88 12
-0.92996114 1.4804982 1.1758368 234 88 12
-0.78662026 1.4758494 1.2031012 234 88 12
-0.79972804 1.4723965 1.1938992 234 88 12
-0.81300402 1.4693743 1.1858451 234 88 12
-0.82513773 1.4644337 1.1726785 234 88 12
-0.83714104 1.4594406 1.1593721 234 88 12
-0.84980011 1.4557446 1.1495223 234 88 12
-0.86201072 1.4514197 1.1379967 234 88 12
-0.87611026 1.4503675 1.1351924 234 88 12
-0.89139789 1.4512842 1.1376355 234 88 12
-0.91039211 1.4581077 1.1558199 234 88 12
-0.93058497 1.4666018 1.1784568 234 88 12
-0.78614998 1.4599928 1.2007499 234 88 12
-0.79888749 1.4559164 1.189775 234 88 12
-0.81371939 1.4557365 1.1892905 234 88 12
-0.82703578 1.4529006 1.1816556 234 88 12
-0.84045976 1.4503509 1.1747909 234 88 12
-0.85391462 1.4479421 1.1683059 234 88 12
-0.86557478 1.4426246 1.1539893 234 88 12
-0.87916934 1.4406557 1.1486883 234 88 12
-0.89552432 1.4432003 1.1555393 234 88 12
-0.91428375 1.4494742 1.1724305 234 88 12
-0.9380753 1.4633975 1.2099164 234 88 12
-0.78641903 1.445513 1.202095 234 88 12
-0.79888719 1.4409834 1.1897736 234 88 12
-0.81371939 1.4408059 1.1892905 234 88 12
-0.82865 1.4408059 1.1892905 234 88 12
-0.84289843 1.4396406 1.186121 234 88 12
-0.85779476 1.4396033 1.1860194 234 88 12
-0.87208158 1.4385619 1.1831865 234 88 12
-0.88544577 1.4360591 1.1763785 234 88 12
-0.90199029 1.4387118 1.1835942 234 88 12
-0.91827804 1.4408753 1.1894794 234 88 12
-0.9349907 1.4436257 1.1969609 234 88 12
-0.80276966 1.4329814 1.2088232 234 88 12
-0.81380063 1.4260176 1.189682 234 88 12
-0.82865351 1.4258813 1.1893072 234 88 12
-0.84287655 1.4246851 1.1860194 234 88 12
-0.85779476 1.4246851 1.1860194 234 88 12
-0.87275296 1.4247506 1.1861992 234 88 12
-0.8877933 1.4249456 1.1867352 234 88 12
-0.90271419 1.4249456 1.1867352 234 88 12
-0.91787952 1.4253252 1.1877785 234 88 12
-0.93475103 1.4282995 1.1959543 234 88 12
-0.83375448 1.419636 1.2134333 234 88 12
-0.84319389 1.4102978 1.1874938 234 88 12
-0.85788637 1.4099176 1.1864378 234 88 12
-0.8729912 1.4102166 1.1872683 234 88 12
-0.88783264 1.4100871 1.1869087 234 88 12
-0.90275419 1.4100871 1.1869087 234 88 12
-0.91804838 1.4106597 1.1884992 234 88 12
-0.9349907 1.4137059 1.1969609 234 88 12
-0.88854831 1.3962902 1.1900661 234 88 12
-0.90343142 1.3962122 1.189847 234 88 12
-0.92135948 1.400766 1.202632 234 88 12
-0.78670716 1.4797533 1.2433656 234 88 12
-0.79130501 1.441236 1.2186018 234 88 12
-0.78794807 1.4555007 1.2144858 234 88 12
-0.78779763 1.4719 1.2153319 234 88 12
-0.79267681 1.491753 1.2239684 234 88 12
-0.8038044 1.4246767 1.2073117 234 88 12
-0.80012071 1.4387429 1.2027292 234 88 12
-0.79942441 1.4547577 1.2027292 234 88 12
-0.80016971 1.4717444 1.2049426 234 88 12
-0.80086154 1.4887154 1.2070752 234 88 12
-0.81456554 1.4235021 1.1944818 234 88 12
-0.81205189 1.4383271 1.1917167 234 88 12
-0.81135601 1.4543313 1.1917167 234 88 12
-0.81241018 1.4715086 1.1943811 234 88 12
-0.81404459 1.4891043 1.1979309 234 88 12
-0.83748102 1.4136603 1.1990013 234 88 12
-0.82813585 1.4241593 1.1859584 234 88 12
-0.82579094 1.4391016 1.1834708 234 88 12
-0.82509506 1.4551079 1.1834708 234 88 12
-0.82534152 1.4717425 1.1848938 234 88 12
-0.82500476 1.4879975 1.1854367 234 88 12
-0.8265987 1.5055724 1.1888969 234 88 12
-0.8569079 1.4014446 1.1980782 234 88 12
-0.85033602 1.4138322 1.1892971 234 88 12
-0.84369117 1.4260896 1.1804017 234 88 12
-0.84101832 1.4408398 1.1774449 234 88 12
-0.83890235 1.4559273 1.17532 234 88 12
-0.83284664 1.4683822 1.1672945 234 88 12
-0.83000517 1.482915 1.1640786 234 88 12
-0.83026057 1.4995148 1.1655008 234 88 12
-0.87356746 1.4039805 1.1939594 234 88 12
-0.8646577 1.4149343 1.1817845 234 88 12
-0.86243165 1.4300385 1.1795189 234 88 12
-0.85755575 1.443411 1.1733195 234 88 12
-0.84818023 1.453789 1.1604362 234 88 12
-0.84338224 1.4670631 1.1543429 234 88 12
-0.84198201 1.4825439 1.153293 234 88 12
-0.84128863 1.498491 1.153293 234 88 12
-0.84253997 1.5157619 1.1561835 234 88 12
-0.89492482 1.392792 1.1956382 234 88 12
-0.88805097 1.4051446 1.1865643 234 88 12
-0.87992013 1.4166216 1.1756359 234 88 12
-0.87798899 1.4319304 1.1738237 234 88 12
-0.86683059 1.4412991 1.1584288 234 88 12
-0.85949022 1.4529985 1.1486462 234 88 12
-0.85600859 1.4671358 1.1445409 234 88 12
-0.85249889 1.4812151 1.1403917 234 88 12
-0.8517729 1.4971201 1.1403424 234 88 12
-0.85375631 1.5148588 1.1442869 234 88 12
-0.9096902 1.3940955 1.188557 234 88 12
-0.9034673 1.4068787 1.1805075 234 88 12
-0.90091252 1.4218758 1.1778048 234 88 12
-0.89386088 1.4340073 1.1685379 234 88 12
-0.87752569 1.4401227 1.1457131 234 88 12
-0.87094349 1.4523152 1.1371167 234 88 12
-0.86558306 1.4652227 1.1302999 234 88 12
-0.86237568 1.4794847 1.1266249 234 88 12
-0.86515611 1.497702 1.1316992 234 88 12
-0.86646128 1.5149744 1.1346197 234 88 12
-0.92050993 1.4095998 1.1767591 234 88 12
-0.91787308 1.424576 1.1739613 234 88 12
-0.91772872 1.4410912 1.1747695 234 88 12
-0.89194351 1.4413294 1.1384534 234 88 12
-0.88434786 1.452898 1.1284599 234 88 12
-0.87834406 1.465404 1.1207668 234 88 12
-0.8757391 1.4800657 1.1179945 234 88 12
-0.87757641 1.4976456 1.1216602 234 88 12
-0.94438696 1.433158 1.183749 234 88 12
-0.9022342 1.4563433 1.1262414 234 88 12
-0.89705867 1.4694332 1.1198031 234 88 12
-0.89584309 1.4850448 1.1190528 234 88 12
