ply
format ascii 1.0
element vertex 230
property float x
property float y
property float z
property uchar red
property uchar green
property uchar blue
end_header
-0.90985596 -1.1671082 1.6955794 234 88 12
-0.90312159 -1.1738424 1.6955794 234 88 12
-0.89908099 -1.177883 1.6955794 234 88 12
-0.89234662 -1.1846174 1.6955794 234 88 12
-0.91077256 -1.1680248 1.6941838 234 88 12
-0.91082871 -1.1734684 1.689997 234 88 12
-0.91713279 -1.1689975 1.6886014 234 88 12
-0.91174531 -1.174385 1.6886014 234 88 12
-0.90905154 -1.1770787 1.6886014 234 88 12
-0.90097034 -1.1851599 1.6886014 234 88 12
-0.89827663 -1.1878537 1.6886014 234 88 12
-0.92122954 -1.1704005 1.6844145 234 88 12
-0.895639 -1.195991 1.6844145 234 88 12
-0.92171586 -1.1735805 1.6816233 234 88 12
-0.91094095 -1.1843555 1.6816233 234 88 12
-0.90108258 -1.1960471 1.6802278 234 88 12
-0.92042512 -1.180371 1.6774365 234 88 12
-0.91638452 -1.1844116 1.6774365 234 88 12
-0.90965015 -1.191146 1.6774365 234 88 12
-0.90426272 -1.1965334 1.6774365 234 88 12
-0.89887524 -1.201921 1.6774365 234 88 12
-0.92182815 -1.1844678 1.6732497 234 88 12
-0.91196978 -1.1961594 1.671854 234 88 12
-0.80368841 1.1331722 1.7763571 234 88 12
-1.8077489 0.31279793 1.2862374 234 88 12
-1.8087468 0.30524454 1.2862374 234 88 12
-1.8094361 0.30725691 1.2845846 234 88 12
-1.8096855 0.30536854 1.2845846 234 88 12
-1.8091273 0.31682268 1.2829319 234 88 12
-1.8096263 0.31304598 1.2829319 234 88 12
-1.8106242 0.30549255 1.2829319 234 88 12
-1.8098166 0.31883505 1.2812792 234 88 12
-1.8149372 0.2945345 1.2779738 234 88 12
-1.8192503 0.28357643 1.2730155 234 88 12
-1.8147006 0.32524422 1.2713628 234 88 12
-1.8156985 0.31769082 1.2713628 234 88 12
-1.8171954 0.30636069 1.2713628 234 88 12
-1.8186922 0.29503056 1.2713628 234 88 12
-1.8201891 0.28370044 1.2713628 234 88 12
-1.8204385 0.2818121 1.2713628 234 88 12
-1.8203794 0.28948954 1.2697101 234 88 12
-1.8205105 0.30295604 1.2664046 234 88 12
-1.8204514 0.31063348 1.2647519 234 88 12
-1.8203921 0.31831092 1.2630992 234 88 12
-1.8230181 0.31289387 1.2597938 234 88 12
-1.824016 0.30534047 1.2597938 234 88 12
-1.8252634 0.29589871 1.2597938 234 88 12
-1.7794152 -1.0167181 0.8970753 234 88 12
-1.7776637 -1.0201012 0.8970753 234 88 12
-1.7759122 -1.0234842 0.8970753 234 88 12
-1.7741138 -1.0311327 0.891693 234 88 12
-1.7866349 -1.0097315 0.88810486 234 88 12
-1.7813804 -1.0198805 0.88810486 234 88 12
-1.7761258 -1.0300295 0.88810486 234 88 12
-1.7752501 -1.031721 0.88810486 234 88 12
-1.7880788 -1.0083342 0.88631076 234 88 12
-1.7877712 -1.0103198 0.88451666 234 88 12
-1.7778304 -1.030912 0.88272256 234 88 12
-1.7717001 -1.0427525 0.88272256 234 88 12
-1.7914879 -1.0100992 0.87554622 234 88 12
-1.7871091 -1.0185567 0.87554622 234 88 12
-1.7862334 -1.0202482 0.87554622 234 88 12
-1.7801031 -1.0320888 0.87554622 234 88 12
-1.7879379 -1.0211307 0.87016392 234 88 12
-1.7861395 -1.0287793 0.86478168 234 88 12
-1.7843879 -1.0321622 0.86478168 234 88 12
-0.72813344 -1.9345902 0.88272256 234 88 12
-0.73269308 -1.9351114 0.87554622 234 88 12
-0.73497295 -1.935372 0.87195802 234 88 12
-0.73107511 -1.940272 0.86478168 234 88 12
-0.73166347 -1.9414083 0.86119348 234 88 12
-1.5364348 1.4146279 0.82194793 234 88 12
-1.53758 1.4131058 0.82194793 234 88 12
-1.5350746 1.4183719 0.81832063 234 88 12
-1.5465264 1.4031513 0.81832063 234 88 12
-1.5463114 1.4053732 0.81469327 234 88 12
-1.5346445 1.4228157 0.81106597 234 88 12
-1.5357897 1.4212936 0.81106597 234 88 12
-1.5415156 1.4136833 0.81106597 234 88 12
-1.5472416 1.406073 0.81106597 234 88 12
-1.5495319 1.4030288 0.81106597 234 88 12
-1.5598385 1.3893304 0.81106597 234 88 12
-1.5580132 1.3927244 0.80925226 234 88 12
-1.5353596 1.4257374 0.80381131 234 88 12
-1.5374349 1.4249152 0.80018395 234 88 12
-1.5454513 1.4142607 0.80018395 234 88 12
-1.5465964 1.4127387 0.80018395 234 88 12
-1.5534675 1.4036063 0.80018395 234 88 12
-1.5573682 1.3993901 0.7983703 234 88 12
-1.5463814 1.4149606 0.79655665 234 88 12
-1.5516772 1.4117941 0.78930199 234 88 12
-2.2226832 -0.10421513 0.17003237 234 88 12
-2.2224436 -0.10992488 0.16812906 234 88 12
-2.2232509 -0.096615784 0.16622576 234 88 12
-2.2234299 -0.094717994 0.16432245 234 88 12
-2.2231159 -0.10042365 0.16432245 234 88 12
-2.2225924 -0.10993306 0.16432245 234 88 12
-2.2221131 -0.12135255 0.16051584 234 88 12
-2.2240856 -0.090938799 0.15290263 234 88 12
-2.2235622 -0.10044822 0.15290263 234 88 12
-2.2230389 -0.10995764 0.15290263 234 88 12
-2.2224107 -0.12136893 0.15290263 234 88 12
-2.2235899 -0.10808032 0.14148282 234 88 12
-2.2234852 -0.10998221 0.14148282 234 88 12
-1.467633 -1.684479 -0.095219046 234 88 12
-1.4622455 -1.6898665 -0.095219046 234 88 12
-1.4702307 -1.6816894 -0.097118966 234 88 12
-1.4714817 -1.6802465 -0.099018887 234 88 12
-1.4687879 -1.6829402 -0.099018887 234 88 12
-1.4620535 -1.6896746 -0.099018887 234 88 12
-1.4580129 -1.6937152 -0.099018887 234 88 12
-1.4739835 -1.6773609 -0.10281873 234 88 12
-1.4510868 -1.7002577 -0.10281873 234 88 12
-1.4749466 -1.6756302 -0.11041842 234 88 12
-1.4722528 -1.678324 -0.11041842 234 88 12
-1.4682122 -1.6823646 -0.11041842 234 88 12
-1.4614779 -1.689099 -0.11041842 234 88 12
-1.4574373 -1.6931396 -0.11041842 234 88 12
-1.462249 -1.6871763 -0.12181795 234 88 12
-1.4595553 -1.68987 -0.12181795 234 88 12
-1.4582084 -1.6912169 -0.12181795 234 88 12
-1.9608785 1.0288346 -0.29870424 234 88 12
-1.9632217 1.0236228 -0.29870424 234 88 12
-1.9590508 1.0321896 -0.30058658 234 88 12
-1.9652992 1.0182916 -0.30058658 234 88 12
-1.9564258 1.0351863 -0.30811599 234 88 12
-1.958769 1.0299745 -0.30811599 234 88 12
-1.9634553 1.0195509 -0.30811599 234 88 12
-1.9689229 1.0073901 -0.30811599 234 88 12
-1.9733435 0.99684721 -0.30999836 234 88 12
-1.9626583 1.0191926 -0.31376305 234 88 12
-1.9563937 1.030995 -0.31941012 234 88 12
-1.9571748 1.0292578 -0.31941012 234 88 12
-1.9618611 1.0188342 -0.31941012 234 88 12
-1.9634233 1.0153598 -0.31941012 234 88 12
-1.9665476 1.0084107 -0.31941012 234 88 12
-1.9594859 1.0198548 -0.33070424 234 88 12
-1.9602669 1.0181175 -0.33070424 234 88 12
-1.9154289 -0.77709401 -0.8384313 234 88 12
-1.9147562 -0.77887601 -0.8384313 234 88 12
-1.9087309 -0.79085314 -0.84197164 234 88 12
-1.9073853 -0.79441714 -0.84197164 234 88 12
-1.9161608 -0.7671904 -0.84551197 234 88 12
-1.9154881 -0.7689724 -0.84551197 234 88 12
-1.9114515 -0.77966434 -0.84551197 234 88 12
-1.9074149 -0.79035634 -0.84551197 234 88 12
-1.9074297 -0.78832597 -0.84728211 234 88 12
-1.9122131 -0.76569998 -0.85613298 234 88 12
-1.9108676 -0.76926398 -0.85613298 234 88 12
-1.9075037 -0.77817392 -0.85613298 234 88 12
-1.9068309 -0.77995592 -0.85613298 234 88 12
-1.9021363 -0.79039949 -0.85790312 234 88 12
-1.9022104 -0.78024751 -0.86675394 234 88 12
-1.0886635 1.8508803 -0.64964974 234 88 12
-1.0963962 1.8421488 -0.6569044 234 88 12
-1.0979183 1.8410037 -0.6569044 234 88 12
-1.0869139 1.8485548 -0.65871805 234 88 12
-1.0960463 1.8416837 -0.65871805 234 88 12
-1.0975684 1.8405386 -0.65871805 234 88 12
-1.0855143 1.8466946 -0.66597271 234 88 12
-1.7536271 0.36355096 -1.3325667 234 88 12
-1.753937 0.3616716 -1.3325667 234 88 12
-1.754867 0.35603347 -1.3325667 234 88 12
-1.7536469 0.35004076 -1.3356916 234 88 12
-1.7544317 0.33858722 -1.3372539 234 88 12
-1.7547417 0.33670786 -1.3372539 234 88 12
-1.7477773 0.37223864 -1.3388163 234 88 12
-1.7496371 0.36096239 -1.3388163 234 88 12
-1.7514969 0.34968618 -1.3388163 234 88 12
-1.7533567 0.33840993 -1.3388163 234 88 12
-1.7442424 0.37358612 -1.3435036 234 88 12
-1.7434773 0.37152943 -1.345066 234 88 12
-1.7428772 0.36177799 -1.3481908 234 88 12
-1.7418022 0.3616007 -1.3497531 234 88 12
-1.7436621 0.35032445 -1.3497531 234 88 12
-1.7425871 0.35014716 -1.3513155 234 88 12
-0.9931733 -1.2396505 -1.576645 234 88 12
-0.99360114 -1.2373846 -1.5780375 234 88 12
-0.99402899 -1.2351187 -1.57943 234 88 12
-0.98998833 -1.2391593 -1.57943 234 88 12
-1.002538 -1.2247716 -1.5808223 234 88 12
-0.99849743 -1.2288122 -1.5808223 234 88 12
-0.99757838 -1.2278931 -1.5822148 234 88 12
-1.0051683 -1.216627 -1.5849997 234 88 12
-1.0041859 -1.2102571 -1.5905694 234 88 12
-0.9974516 -1.2169914 -1.5905694 234 88 12
-0.99610472 -1.2183383 -1.5905694 234 88 12
-0.98483855 -1.2259283 -1.5933542 234 88 12
-0.98214483 -1.2286221 -1.5933542 234 88 12
-0.97491926 -1.2321714 -1.5961391 234 88 12
-0.97577494 -1.2276397 -1.5989239 234 88 12
-0.97932434 -1.220414 -1.6017088 234 88 12
-0.97528374 -1.2244546 -1.6017088 234 88 12
-0.87896711 1.226849 -1.6596167 234 88 12
-0.87528443 1.2285396 -1.6609284 234 88 12
-0.87664098 1.2272024 -1.6609284 234 88 12
-0.88749343 1.2165055 -1.6609284 234 88 12
-0.88826746 1.211864 -1.6635518 234 88 12
-0.89039803 1.2058853 -1.6661751 234 88 12
-0.86772358 1.2262956 -1.6674868 234 88 12
-0.87721944 1.2169358 -1.6674868 234 88 12
-0.87857604 1.2155986 -1.6674868 234 88 12
-0.88807189 1.2062389 -1.6674868 234 88 12
-0.88942844 1.2049017 -1.6674868 234 88 12
-0.89562869 1.1949117 -1.6701102 234 88 12
-0.90008533 1.1885796 -1.6714219 234 88 12
-0.88768083 1.1949885 -1.675357 234 88 12
-0.86674994 1.2117409 -1.6779803 234 88 12
-0.86578041 1.2107571 -1.6792921 234 88 12
-0.87120664 1.2054087 -1.6792921 234 88 12
-0.86558485 1.205132 -1.6832271 234 88 12
-0.85081434 -0.12428831 -2.0669024 234 88 12
-0.85214704 -0.099504724 -2.0677843 234 88 12
-0.85075855 -0.11084864 -2.0677843 234 88 12
-0.85116553 -0.093627661 -2.0686665 234 88 12
-0.84434289 -0.12157723 -2.0704305 234 88 12
-0.84683263 -0.087340377 -2.0713127 234 88 12
-0.8442871 -0.10813756 -2.0713127 234 88 12
-0.84405565 -0.11002821 -2.0713127 234 88 12
-0.84423125 -0.094697885 -2.0721946 234 88 12
-0.84371263 -0.085039511 -2.0730767 234 88 12
-0.8432498 -0.088820815 -2.0730767 234 88 12
-0.84186131 -0.10016473 -2.0730767 234 88 12
-0.84047282 -0.11150865 -2.0730767 234 88 12
-0.83325124 -0.10102985 -2.077487 234 88 12
-0.83203834 -0.09704344 -2.0783689 234 88 12
-0.83041847 -0.110278 -2.0783689 234 88 12
-0.82227129 -0.10736182 -2.0827792 234 88 12
-0.82180846 -0.11114312 -2.0827792 234 88 12
-0.82082695 -0.10526606 -2.0836613 234 88 12
