ply
format ascii 1.0
element vertex 1148
property float x
property float y
property float z
property uchar red
property uchar green
property uchar blue
end_header
-0.96204329 -2.0965123 0.86985773 234 88 12
-0.92378944 -2.0642316 0.86049819 234 88 12
-1.0083791 -2.1369631 0.87915117 234 88 12
-1.0076668 -2.137332 0.87915117 234 88 12
-0.91740978 -2.0675344 0.86049819 234 88 12
-0.96507388 -2.0957143 0.86793739 234 88 12
-0.91546816 -2.0689926 0.85937041 234 88 12
-0.87637538 -2.0423388 0.8517043 234 88 12
-0.92734903 -2.0632944 0.85824263 234 88 12
-1.030606 -2.1577251 0.88222545 234 88 12
-0.874385 -2.0443954 0.84914881 234 88 12
-0.87338984 -2.0454237 0.84787107 234 88 12
-1.1531212 -2.2488289 0.90820307 234 88 12
-0.9660849 -2.1202629 0.86826587 234 88 12
-0.96461487 -2.1046975 0.86436814 234 88 12
-0.95047182 -2.1052022 0.86313665 234 88 12
-1.0135204 -2.1364253 0.87386239 234 88 12
-1.1013396 -2.2152905 0.89675045 234 88 12
-0.8728137 -2.0472615 0.84403783 234 88 12
-1.1149763 -2.2275877 0.89999944 234 88 12
-1.1098025 -2.2282369 0.8996188 234 88 12
-0.91056782 -2.0751529 0.85034835 234 88 12
-1.1040926 -2.1826727 0.88953555 234 88 12
-0.9837783 -2.1177824 0.86479717 234 88 12
-0.98050243 -2.1194782 0.86479717 234 88 12
-0.95019633 -2.1068873 0.85929608 234 88 12
-1.1732731 -2.271831 0.91373086 234 88 12
-0.97526801 -2.1014426 0.8587389 234 88 12
-1.1030245 -2.1837764 0.88816422 234 88 12
-0.98834777 -2.0467803 0.84790504 234 88 12
-0.98732066 -2.0705893 0.85267729 234 88 12
-1.0719308 -2.1997936 0.88814759 234 88 12
-1.0547312 -2.1243021 0.87005198 234 88 12
-1.0519688 -2.1257324 0.87005198 234 88 12
-0.97428638 -2.0597737 0.84790981 234 88 12
-1.0514755 -2.1438224 0.87377119 234 88 12
-1.0873479 -2.1828618 0.88578552 234 88 12
-0.96818912 -2.0629306 0.84790981 234 88 12
-0.97691578 -2.0763857 0.85165793 234 88 12
-1.0243769 -2.1638434 0.87502056 234 88 12
-0.99438262 -2.0677519 0.85063851 234 88 12
-0.96328479 -2.0659025 0.84683192 234 88 12
-1.041564 -2.175566 0.87868285 234 88 12
-1.0251019 -2.1637311 0.87436557 234 88 12
-1.0244843 -2.1640508 0.87436557 234 88 12
-1.0002426 -2.0419412 0.84462005 234 88 12
-1.0574199 -2.1412866 0.87242228 234 88 12
-1.0094079 -2.1004748 0.85826343 234 88 12
-1.0077322 -2.1013422 0.85826343 234 88 12
-0.98170245 -2.0938962 0.85375232 234 88 12
-1.0394125 -2.156585 0.87371057 234 88 12
-1.0549011 -2.1726384 0.87890077 234 88 12
-1.0418351 -2.0972238 0.86026347 234 88 12
-0.96363825 -2.0665853 0.84467626 234 88 12
-0.96262205 -2.0671113 0.84467626 234 88 12
-0.94756603 -2.0751696 0.84473389 234 88 12
-0.98968905 -2.1171639 0.85871673 234 88 12
-0.98477525 -2.1197081 0.85871673 234 88 12
-1.022229 -2.1657445 0.87305558 234 88 12
-1.042771 -2.0970788 0.85941786 234 88 12
-1.1609983 -2.2621171 0.90980655 234 88 12
-1.0031424 -2.1047893 0.8555975 234 88 12
-1.0819871 -2.1940336 0.88502872 234 88 12
-1.0525964 -2.1523728 0.87144953 234 88 12
-1.0392199 -2.1706417 0.87405688 234 88 12
-1.038258 -2.1786959 0.87515074 234 88 12
-0.98882496 -2.0734947 0.84350288 234 88 12
-0.96796077 -2.1089935 0.84935683 234 88 12
-1.0390061 -2.1787815 0.87397337 234 88 12
-0.98723704 -2.0751357 0.8414641 234 88 12
-0.98327136 -2.0969265 0.84418368 234 88 12
-1.0021548 -2.0686402 0.83840597 234 88 12
-1.0462197 -2.1284282 0.85948235 234 88 12
-1.0772563 -2.191757 0.87974113 234 88 12
-1.0034295 -2.045568 0.83148009 234 88 12
-0.9920733 -2.0514474 0.83148009 234 88 12
-0.99363911 -2.1018705 0.84473979 234 88 12
-0.96254569 -2.0749116 0.83359629 234 88 12
-1.0017238 -2.0473304 0.82929009 234 88 12
-0.99243236 -2.052141 0.82929009 234 88 12
-0.96390277 -2.0750668 0.83146048 234 88 12
-1.0972095 -2.2045803 0.88429832 234 88 12
-1.1080624 -2.2170246 0.88910574 234 88 12
-0.97668171 -2.1018751 0.84035617 234 88 12
-0.96527296 -2.0722315 0.82850862 234 88 12
-0.96525979 -2.075222 0.82932466 234 88 12
-0.96239966 -2.073977 0.82857913 234 88 12
-1.00793 -2.1410129 0.8533622 234 88 12
-0.95546848 -2.0779982 0.82750219 234 88 12
-1.0592256 -2.174335 0.86910057 234 88 12
-1.0229282 -2.1341817 0.85103667 234 88 12
-0.9763819 -2.1134062 0.83826309 234 88 12
-0.99398041 -2.1046662 0.83733785 234 88 12
-0.94065857 -2.0840898 0.82344258 234 88 12
-0.97933286 -2.0900102 0.82643813 234 88 12
-0.96872932 -2.1042593 0.82909578 234 88 12
-0.96780944 -2.1047356 0.82909578 234 88 12
-0.96245033 -2.1079021 0.82812017 234 88 12
-0.9911992 -2.0850775 0.82342273 234 88 12
-0.99420696 -2.0839241 0.82241762 234 88 12
-0.96154886 -2.0767651 0.81474972 234 88 12
-0.95182288 -2.1026936 0.82025886 234 88 12
-1.0031301 -2.1571059 0.84384066 234 88 12
-0.9907186 -2.1111853 0.82530963 234 88 12
-0.94786137 -2.1067872 0.81517255 234 88 12
-1.0400945 -2.0979021 0.82744628 234 88 12
-1.1311171 -2.2172787 0.88498777 234 88 12
-0.96529186 -2.0981712 0.81415534 234 88 12
-1.0091221 -2.1549022 0.84160322 234 88 12
-0.94419181 -2.1090956 0.81415534 234 88 12
-1.0368991 -2.0999122 0.8265605 234 88 12
-0.99457777 -2.0869613 0.81437659 234 88 12
-0.99268246 -2.0879424 0.81437659 234 88 12
-0.98889184 -2.089905 0.81437659 234 88 12
-1.0185611 -2.1645339 0.8458268 234 88 12
-1.0444506 -2.1841495 0.85669971 234 88 12
-0.96017092 -2.1097038 0.81383902 234 88 12
-1.0168179 -2.1659963 0.84443253 234 88 12
-0.96491766 -2.111203 0.81413358 234 88 12
-1.0276033 -2.1065037 0.8221314 234 88 12
-0.97827071 -2.0606863 0.79579043 234 88 12
-0.97892451 -2.1120596 0.81487906 234 88 12
-1.0009075 -2.0744483 0.80399638 234 88 12
-0.96002096 -2.121069 0.81238997 234 88 12
-1.1238039 -2.218281 0.88064003 234 88 12
-0.96379429 -2.1195004 0.81143111 234 88 12
-0.97474486 -2.0643299 0.79126352 234 88 12
-0.94635922 -2.1196404 0.80690211 234 88 12
-0.97464705 -2.0023916 0.76583755 234 88 12
-1.0015932 -2.0757728 0.79981494 234 88 12
-0.99272293 -2.0803652 0.79981494 234 88 12
-0.96329021 -2.1037014 0.80296546 234 88 12
-1.0168407 -2.0872703 0.80622703 234 88 12
-1.0885427 -2.1831315 0.85850006 234 88 12
-1.0020659 -2.0949197 0.80622703 234 88 12
-0.98061866 -2.1194487 0.81042254 234 88 12
-1.0296004 -2.1083155 0.81504494 234 88 12
-1.0136288 -2.0901132 0.80328876 234 88 12
-1.0903972 -2.1897571 0.85976934 234 88 12
-0.96413678 -2.1012461 0.79741704 234 88 12
-0.9865284 -2.060956 0.78447312 234 88 12
-0.971178 -2.1060309 0.79966795 234 88 12
-0.9627642 -2.1105025 0.79971522 234 88 12
-1.0004957 -2.1308336 0.81502557 234 88 12
-0.9369995 -2.1110339 0.79325342 234 88 12
-0.97910184 -2.1080058 0.79986495 234 88 12
-0.95608127 -2.1201243 0.79994833 234 88 12
-1.0389582 -2.0885186 0.80356359 234 88 12
-0.97641581 -2.0058079 0.75505018 234 88 12
-1.016118 -2.0903976 0.799371 234 88 12
-0.9783504 -2.0064306 0.75100487 234 88 12
-1.0073656 -2.0961092 0.79643273 234 88 12
-1.0087863 -2.1286359 0.81086469 234 88 12
-0.97952461 -2.1398013 0.80913585 234 88 12
-1.0406231 -2.0895534 0.79884094 234 88 12
-1.0388421 -2.0904753 0.79884094 234 88 12
-1.0162458 -2.0896034 0.79328233 234 88 12
-0.99479133 -2.1114073 0.79801196 234 88 12
-1.0431626 -2.1586354 0.82996923 234 88 12
-0.96574366 -2.1304095 0.79976439 234 88 12
-0.96715951 -2.1345968 0.80194008 234 88 12
-1.0439326 -2.1585162 0.82927352 234 88 12
-1.0542775 -2.1609042 0.83114928 234 88 12
-1.0584366 -2.1675551 0.8351528 234 88 12
-0.94965464 -2.1137075 0.78505701 234 88 12
-0.94771242 -2.1147132 0.78505701 234 88 12
-1.0557611 -2.1606743 0.82980883 234 88 12
-0.96211308 -2.1343863 0.79406625 234 88 12
-1.1478305 -2.2389033 0.8873232 234 88 12
-1.0203403 -2.0906608 0.78537071 234 88 12
-0.96345848 -2.1348195 0.79125309 234 88 12
-0.98650759 -2.112047 0.78488249 234 88 12
-0.98903513 -2.1204562 0.78958988 234 88 12
-0.97736174 -2.1168809 0.78493035 234 88 12
-0.9588781 -2.1241193 0.78380108 234 88 12
-1.0195661 -2.1275561 0.79965597 234 88 12
-0.97291368 -2.1195765 0.78395277 234 88 12
-1.0611868 -2.1684406 0.82940197 234 88 12
-1.0073978 -2.1341956 0.79775596 234 88 12
-0.98134983 -2.1196203 0.78264225 234 88 12
-0.97994053 -2.1367128 0.79085034 234 88 12
-0.92417604 -2.0976067 0.75675076 234 88 12
-0.96147752 -2.1344481 0.7849192 234 88 12
-0.95043272 -2.0844753 0.75559878 234 88 12
-0.92653722 -2.0968468 0.75559878 234 88 12
-1.0088923 -2.1348135 0.79534495 234 88 12
-0.94844931 -2.0859647 0.75444674 234 88 12
-0.95689535 -2.1131039 0.77052784 234 88 12
-1.0069169 -2.1137085 0.78291577 234 88 12
-1.0817147 -2.1954696 0.84431529 234 88 12
-0.93579316 -2.0934427 0.75214267 234 88 12
-1.0822769 -2.1953826 0.84380734 234 88 12
-0.98622823 -2.1491492 0.79357636 234 88 12
-1.094879 -2.1628137 0.82944417 234 88 12
-0.99314678 -2.1219747 0.78008497 234 88 12
-0.97689509 -2.1107202 0.76970285 234 88 12
-1.0944653 -2.2038772 0.85045445 234 88 12
-0.98176599 -2.1392875 0.7850185 234 88 12
-0.96000028 -2.1202826 0.76767254 234 88 12
-0.97146922 -2.1344564 0.77732003 234 88 12
-1.0322241 -2.09412 0.77132463 234 88 12
-1.0194384 -2.0797498 0.75987279 234 88 12
-0.98043221 -2.1105196 0.76564229 234 88 12
-1.0286996 -2.0963371 0.7703476 234 88 12
-0.9226566 -2.09356 0.73862058 234 88 12
-0.96462142 -2.1300063 0.77061909 234 88 12
-1.0247518 -2.0778453 0.75776511 234 88 12
-0.99826527 -2.1135318 0.76995027 234 88 12
-0.94132167 -2.083596 0.73700094 234 88 12
-0.95793641 -2.1355429 0.77057761 234 88 12
-1.0440581 -2.1031482 0.77620775 234 88 12
-1.0137259 -2.1039953 0.76790208 234 88 12
-1.0118775 -2.1049521 0.76790208 234 88 12
-1.0241038 -2.0790272 0.75565743 234 88 12
-1.0221167 -2.080056 0.75565743 234 88 12
-0.95519447 -2.1142588 0.7554065 234 88 12
-0.97905695 -2.1278317 0.76765603 234 88 12
-0.96917635 -2.1374433 0.77023035 234 88 12
-1.0437925 -2.1047728 0.77250504 234 88 12
-1.1266946 -2.2199712 0.86334115 234 88 12
-1.1260504 -2.2203045 0.86334115 234 88 12
-1.0449687 -2.1049073 0.77065372 234 88 12
-1.0453904 -2.1569154 0.80127257 234 88 12
-0.99346513 -2.1232061 0.76574874 234 88 12
-0.98234463 -2.1139448 0.75569093 234 88 12
-0.97756511 -2.1164193 0.75569093 234 88 12
-0.97182959 -2.1193888 0.75569093 234 88 12
-1.0456303 -2.1573789 0.79980856 234 88 12
-1.0556655 -2.1770661 0.8146252 234 88 12
-1.0378312 -2.0959253 0.75960016 234 88 12
-1.1023263 -2.2103624 0.84830874 234 88 12
-1.0298893 -2.0909181 0.75287151 234 88 12
-1.0224184 -2.0951927 0.75185901 234 88 12
-1.0505538 -2.1804829 0.81270677 234 88 12
-0.95989782 -2.0449703 0.69988501 234 88 12
-1.0542761 -2.1788125 0.81206727 234 88 12
-0.96095842 -2.1347396 0.75534117 234 88 12
-1.0167396 -2.1075525 0.7551586 234 88 12
-0.99409205 -2.1199131 0.75555146 234 88 12
-0.99224812 -2.1208677 0.75555146 234 88 12
-0.94762093 -2.0875103 0.7191323 234 88 12
-0.95680648 -2.0481646 0.69591588 234 88 12
-0.96580237 -2.1385939 0.75563616 234 88 12
-1.0374664 -2.1207478 0.76548672 234 88 12
-1.0072104 -2.1100199 0.74740922 234 88 12
-1.1042317 -2.2110887 0.84404433 234 88 12
-0.96627057 -2.116154 0.73640794 234 88 12
-0.9386847 -2.0950074 0.71198481 234 88 12
-0.94112629 -2.0942216 0.71079355 234 88 12
-0.96263617 -2.1188831 0.73429698 234 88 12
-0.9781602 -2.1362484 0.75097519 234 88 12
-1.0290177 -2.0962486 0.74072134 234 88 12
-1.0223353 -2.0997083 0.74072134 234 88 12
-0.96181411 -2.1197326 0.7332415 234 88 12
-0.9647789 -2.0482876 0.68533158 234 88 12
-0.97873992 -2.1190901 0.73731333 234 88 12
-0.97541744 -2.1516221 0.7578392 234 88 12
-1.0271412 -2.1085379 0.74574471 234 88 12
-0.97697318 -2.1204169 0.73628712 234 88 12
-1.0168147 -2.1078501 0.74043018 234 88 12
-1.0074147 -2.1127169 0.74043018 234 88 12
-1.046392 -2.1773539 0.79775321 234 88 12
-0.9648571 -2.1344407 0.74022067 234 88 12
-1.132576 -2.2321086 0.86454093 234 88 12
-1.1425644 -2.2527606 0.882119 234 88 12
-0.98099524 -2.128875 0.74084866 234 88 12
-0.96439922 -2.0506094 0.68003941 234 88 12
-1.0424615 -2.1221197 0.75563055 234 88 12
-1.0874951 -2.2011106 0.82626975 234 88 12
-1.0076401 -2.1454315 0.75927866 234 88 12
-0.97761798 -2.1499996 0.75170058 234 88 12
-1.0233541 -2.1124513 0.74088228 234 88 12
-1.0086094 -2.1452813 0.75840294 234 88 12
-1.023205 -2.177496 0.7860586 234 88 12
-1.0450394 -2.1794062 0.79438645 234 88 12
-0.98717356 -2.1506591 0.75327492 234 88 12
-1.0248055 -2.177248 0.78461248 234 88 12
-0.99190086 -2.1607928 0.76099372 234 88 12
-1.0275791 -2.1358502 0.75530338 234 88 12
-1.0106915 -2.1452584 0.75577563 234 88 12
-1.0356083 -2.1809456 0.78939527 234 88 12
-0.98059082 -2.1226649 0.72602516 234 88 12
-1.0918918 -2.2147517 0.83383507 234 88 12
-1.0237979 -2.1786408 0.78244334 234 88 12
-1.0220038 -2.1776061 0.78008586 234 88 12
-1.022553 -2.1795757 0.78172028 234 88 12
-0.93282527 -2.1272831 0.71011668 234 88 12
-1.0030813 -2.1386571 0.74354887 234 88 12
-1.0065953 -2.1138196 0.72543257 234 88 12
-0.99417865 -2.1202481 0.72543257 234 88 12
-0.99439853 -2.1318164 0.73402089 234 88 12
-0.97129887 -2.151979 0.73883736 234 88 12
-1.0036862 -2.1398251 0.73986036 234 88 12
-0.97261286 -2.1360154 0.72493076 234 88 12
-1.0583962 -2.2003336 0.80651504 234 88 12
-1.1614894 -2.2646408 0.894665 234 88 12
-1.0468336 -2.197489 0.79909426 234 88 12
-1.0887747 -2.2147446 0.82793492 234 88 12
-0.93583298 -2.1036949 0.68325758 234 88 12
-0.9348951 -2.1046641 0.68205333 234 88 12
-0.9967193 -2.1504109 0.74158657 234 88 12
-0.93622792 -2.1044579 0.68084913 234 88 12
-0.93509257 -2.1050456 0.68084913 234 88 12
-0.99601901 -2.1511345 0.74068749 234 88 12
-1.0402366 -2.1856787 0.78495944 234 88 12
-0.99178052 -2.1533289 0.74068749 234 88 12
-1.0156974 -2.1140311 0.71862352 234 88 12
-1.0203416 -2.1408584 0.74013484 234 88 12
-1.0082972 -2.1278567 0.7238335 234 88 12
-0.99142355 -2.1372426 0.72434449 234 88 12
-1.1244426 -2.2447634 0.86303997 234 88 12
-1.0849485 -2.223201 0.83000761 234 88 12
-1.05539 -2.1513705 0.76046467 234 88 12
-1.0846082 -2.2235527 0.82957059 234 88 12
-1.0260308 -2.1430006 0.73949361 234 88 12
-1.1016496 -2.230648 0.84068429 234 88 12
-1.0540107 -2.2051449 0.80018812 234 88 12
-1.0227112 -2.1136332 0.71057171 234 88 12
-1.0189154 -2.1155984 0.71057171 234 88 12
-0.99919188 -2.1442654 0.72566408 234 88 12
-1.0269233 -2.1803489 0.76691359 234 88 12
-1.0583724 -2.1517115 0.75577086 234 88 12
-0.98351288 -2.1527576 0.72473115 234 88 12
-0.99395275 -2.1492257 0.72006667 234 88 12
-1.0195125 -2.127115 0.71122086 234 88 12
-1.1222091 -2.247335 0.85951602 234 88 12
-1.0828264 -2.1888688 0.79128015 234 88 12
-1.0817138 -2.1894448 0.79128015 234 88 12
-1.1660302 -2.2688408 0.89706331 234 88 12
-0.98323691 -2.1640532 0.72433203 234 88 12
-1.0093312 -2.1343346 0.70636988 234 88 12
1.3892574 1.3726925 1.8496659 234 88 12
1.3972303 1.3872536 1.8545742 234 88 12
1.4051508 1.4009221 1.8592768 234 88 12
1.3141334 1.2484779 1.8062458 234 88 12
1.3097634 1.2437314 1.80426 234 88 12
1.3008021 1.2343942 1.8002743 234 88 12
1.2835042 1.2082303 1.7908074 234 88 12
1.2712399 1.1904091 1.7842541 234 88 12
1.3734832 1.3474119 1.8404806 234 88 12
1.2949724 1.2175858 1.7946022 234 88 12
1.2802237 1.1963282 1.7866731 234 88 12
1.326497 1.2643566 1.8112873 234 88 12
1.3484873 1.3033253 1.8248578 234 88 12
1.2931007 1.2142096 1.7926892 234 88 12
1.3189031 1.2584304 1.8082775 234 88 12
1.3486969 1.303535 1.8245401 234 88 12
1.3656586 1.3333647 1.8350698 234 88 12
1.265025 1.1744392 1.7766606 234 88 12
1.3529478 1.3114961 1.826905 234 88 12
-0.36562666 2.1879811 1.5582156 234 88 12
-0.37729684 2.0161316 1.531713 234 88 12
-0.37029985 2.1252539 1.5485525 234 88 12
-0.37058097 2.1252077 1.5485525 234 88 12
-0.36770204 2.1727386 1.5558918 234 88 12
-0.39373133 1.9048122 1.5147736 234 88 12
-0.39701068 1.8922765 1.5129029 234 88 12
-0.37011793 2.1587334 1.5537696 234 88 12
-0.40438145 1.8643105 1.5087306 234 88 12
-0.40079534 1.9038451 1.5148045 234 88 12
-0.38136986 2.0707772 1.5403407 234 88 12
-0.37222055 2.05481 1.537136 234 88 12
-0.37080625 2.0906298 1.5427974 234 88 12
-0.37776732 1.9885898 1.5267465 234 88 12
-0.38200024 1.9708351 1.524033 234 88 12
-0.37254778 2.1081185 1.5456254 234 88 12
-0.39042866 1.9209492 1.5163178 234 88 12
-0.38722578 1.9736191 1.524613 234 88 12
-0.39068851 1.9955393 1.5281912 234 88 12
-0.37271419 2.0349452 1.5334457 234 88 12
-0.37497729 2.0019426 1.5281523 234 88 12
-0.37709716 1.989135 1.5261314 234 88 12
-0.38153952 1.9558721 1.5208541 234 88 12
-0.3812778 1.9714229 1.5233698 234 88 12
-0.38833809 1.9455552 1.5193623 234 88 12
-0.38819975 1.9648151 1.5224831 234 88 12
-0.39895844 1.8963699 1.5116674 234 88 12
-0.37054601 2.1569457 1.5531794 234 88 12
-0.39264038 2.0024579 1.5287086 234 88 12
-0.36862344 2.1368058 1.5496341 234 88 12
-0.39691582 1.8653189 1.5055088 234 88 12
-0.40015095 1.8772825 1.5075755 234 88 12
-0.4007678 1.9307563 1.5164355 234 88 12
-0.37274256 2.0814755 1.5401961 234 88 12
-0.38728815 1.9047993 1.5108241 234 88 12
-0.39197156 1.9289283 1.5150208 234 88 12
-0.40063497 1.9023454 1.5107815 234 88 12
-0.36956227 2.1106894 1.5447204 234 88 12
-0.37598816 2.0009425 1.5260578 234 88 12
-0.39365321 1.9133353 1.5115151 234 88 12
-0.40139395 1.913694 1.511796 234 88 12
-0.38872364 2.0246739 1.5304935 234 88 12
-0.41078508 1.8887745 1.5077831 234 88 12
-0.38568321 2.0655794 1.5374312 234 88 12
-0.40465 1.9431548 1.5169469 234 88 12
-0.36493379 2.198781 1.5596818 234 88 12
-0.38061389 1.9362482 1.5142182 234 88 12
-0.4024753 1.9140962 1.5109745 234 88 12
-0.41548041 1.8654542 1.5028423 234 88 12
-0.3973383 1.9276125 1.5114181 234 88 12
-0.38755432 2.0477419 1.5329058 234 88 12
-0.37821859 1.9163313 1.5078629 234 88 12
-0.37548625 2.0159662 1.5261656 234 88 12
-0.429113 1.7880276 1.4857358 234 88 12
-0.40130809 1.9349986 1.5111413 234 88 12
-0.38979432 1.942654 1.5113683 234 88 12
-0.3935442 2.0219419 1.5260358 234 88 12
-0.42300504 1.8008385 1.4814016 234 88 12
-0.37456605 2.0971401 1.5389451 234 88 12
-0.38598451 1.9874501 1.5169352 234 88 12
-0.4063639 1.8727163 1.4931029 234 88 12
-0.41532293 1.8114922 1.4807068 234 88 12
-0.37391752 2.1436968 1.5482153 234 88 12
-0.39201221 1.8959616 1.4964054 234 88 12
-0.38062564 2.0321105 1.524711 234 88 12
-0.36656249 2.1821229 1.5556654 234 88 12
-0.38921624 1.9755111 1.5115368 234 88 12
-0.3929404 1.9565346 1.5075427 234 88 12
-0.39204472 2.0017004 1.5173348 234 88 12
-0.40785459 1.8985274 1.4954604 234 88 12
-0.38966355 2.0369754 1.5249223 234 88 12
-0.37190646 2.1204083 1.5412409 234 88 12
2.3588922 0.88216746 1.0078282 234 88 12
2.3197207 0.84558839 1.0073712 234 88 12
2.3546667 0.87759036 1.0076965 234 88 12
2.1368816 0.66704351 1.0042088 234 88 12
2.335031 0.85903108 1.0073839 234 88 12
2.1220937 0.65564269 1.0039848 234 88 12
2.1099744 0.6455723 1.003798 234 88 12
2.1939161 0.72945964 1.0051544 234 88 12
2.2699072 0.80103505 1.0059286 234 88 12
2.1663272 0.69151485 1.0028892 234 88 12
2.239908 0.76727897 1.0047251 234 88 12
2.1322093 0.66766238 1.0021144 234 88 12
2.2238698 0.75613379 1.0043613 234 88 12
2.2609506 0.78614128 1.0047487 234 88 12
2.3054059 0.82994676 1.0060354 234 88 12
2.1939559 0.72055668 1.0020416 234 88 12
2.1173167 0.65752631 0.99960768 234 88 12
2.1464305 0.68592864 1.000573 234 88 12
2.2141109 0.74946177 1.0027944 234 88 12
2.3466661 0.86946678 1.0069884 234 88 12
2.1559722 0.68322581 0.99984217 234 88 12
2.0463719 0.57983649 0.99577266 234 88 12
2.3120744 0.83405852 1.0054075 234 88 12
2.2991781 0.82237613 1.004879 234 88 12
2.179481 0.7048949 0.99986988 234 88 12
2.1747549 0.7037456 0.99971235 234 88 12
2.2185652 0.75768 1.0016718 234 88 12
2.3356752 0.86247563 1.0064555 234 88 12
2.1897151 0.71912414 0.99955362 234 88 12
2.1905146 0.7262491 0.99967122 234 88 12
2.0721374 0.6249764 0.994394 234 88 12
2.1319396 0.68283558 0.99714518 234 88 12
2.1993954 0.74431366 1.0002003 234 88 12
2.2239776 0.74486977 1.0003803 234 88 12
2.289866 0.82121992 1.003872 234 88 12
2.23735 0.77500314 1.0012927 234 88 12
2.1184778 0.67075408 0.99545914 234 88 12
2.2650425 0.80144149 1.0026816 234 88 12
2.1501999 0.67139703 0.99565768 234 88 12
2.1699102 0.71143353 0.99705231 234 88 12
2.2513251 0.78860575 1.0009605 234 88 12
2.3567262 0.88148052 1.0070333 234 88 12
2.2100503 0.73225778 0.99753577 234 88 12
2.1326346 0.65757036 0.99263203 234 88 12
2.1602278 0.69740552 0.9946115 234 88 12
2.1273153 0.67797929 0.99274284 234 88 12
2.0544064 0.61876041 0.98831952 234 88 12
2.2625611 0.78409332 1.0003912 234 88 12
2.1456578 0.67832977 0.9926067 234 88 12
2.1482377 0.68604141 0.99287927 234 88 12
2.1595552 0.69516224 0.99268037 234 88 12
2.159739 0.69657576 0.99271834 234 88 12
2.1716022 0.70155841 0.99255729 234 88 12
2.0958111 0.64761263 0.98596507 234 88 12
2.1970258 0.72571635 0.99293572 234 88 12
2.2040391 0.73332942 0.99280387 234 88 12
2.1876814 0.72090477 0.99141908 234 88 12
2.169853 0.71235698 0.99003381 234 88 12
2.2189178 0.73894066 0.99252635 234 88 12
2.2180648 0.74185175 0.99254411 234 88 12
2.1909919 0.73528951 0.99040729 234 88 12
2.229872 0.74904084 0.99294192 234 88 12
2.1490417 0.67043698 0.98458904 234 88 12
2.2477436 0.77493817 0.99503177 234 88 12
2.28439 0.80638063 0.99829501 234 88 12
2.2685301 0.79223168 0.99614793 234 88 12
2.2329631 0.75875509 0.9921872 234 88 12
2.1787663 0.70444971 0.9851678 234 88 12
2.2411225 0.76793283 0.99134654 234 88 12
2.1185379 0.65235704 0.97603899 234 88 12
2.3682566 0.89062113 1.0072465 234 88 12
2.2475824 0.77521718 0.98990059 234 88 12
0.79025263 2.094692 1.0062368 234 88 12
0.88941401 2.3561304 1.0078899 234 88 12
0.89309025 2.3651829 1.0079181 234 88 12
0.88773876 2.3508015 1.0077766 234 88 12
0.8789674 2.3274355 1.0075464 234 88 12
0.78314537 2.0759692 1.0050648 234 88 12
0.87144178 2.3099604 1.0073712 234 88 12
0.83713073 2.2130563 1.0058559 234 88 12
0.77830631 2.0598626 1.003798 234 88 12
0.8125518 2.1625459 1.0051544 234 88 12
0.80686253 2.1224048 1.0037715 234 88 12
0.75812984 2.0021124 1.0017126 234 88 12
0.78369099 2.0742006 1.002926 234 88 12
0.87850398 2.3245854 1.0070008 234 88 12
0.78955269 2.0867035 1.0021236 234 88 12
0.74062192 1.9767969 0.99981707 234 88 12
0.84765768 2.2524891 1.0054963 234 88 12
0.79730099 2.104619 1.0015397 234 88 12
0.84220988 2.234585 1.004639 234 88 12
0.82132685 2.1866956 1.0034624 234 88 12
0.83729118 2.2001839 1.0032605 234 88 12
0.86400026 2.2831929 1.0055164 234 88 12
0.78581619 2.0665796 0.99955183 234 88 12
0.81080896 2.1387897 1.0015304 234 88 12
0.802122 2.117733 1.0009407 234 88 12
0.82190526 2.193769 1.0029643 234 88 12
0.85087407 2.2336607 1.0037022 234 88 12
0.88977295 2.3542218 1.0074052 234 88 12
0.82950902 2.1748788 1.0018719 234 88 12
0.82204533 2.1602371 1.0013939 234 88 12
0.85244632 2.2656038 1.004593 234 88 12
0.81061864 2.1664426 1.0014457 234 88 12
0.84002578 2.2404044 1.0037746 234 88 12
0.88986081 2.3591774 1.0075418 234 88 12
0.84557205 2.2152936 1.0025851 234 88 12
0.83538759 2.1857159 1.0015645 234 88 12
0.83030844 2.1748729 1.0011749 234 88 12
0.75298113 2.0232759 0.9956547 234 88 12
0.77888286 2.0952516 0.99815094 234 88 12
0.79718769 2.1433349 0.99983013 234 88 12
0.76692504 2.0758388 0.99742037 234 88 12
0.80030471 2.1007133 0.99758732 234 88 12
0.79272777 2.133033 0.99769348 234 88 12
0.85882568 2.2876806 1.0043149 234 88 12
0.8642509 2.2817714 1.0038425 234 88 12
0.78388363 2.1072364 0.99563783 234 88 12
0.73777437 2.0089095 0.98964995 234 88 12
0.79310715 2.0992551 0.99245429 234 88 12
0.79001731 2.1086321 0.99286181 234 88 12
0.78419507 2.1080875 0.99272567 234 88 12
0.82601351 2.2105899 0.99859715 234 88 12
0.79555565 2.1224825 0.99272424 234 88 12
0.77489549 2.0889449 0.99053955 234 88 12
0.80483949 2.1331501 0.99258757 234 88 12
0.77978826 2.1004763 0.99022514 234 88 12
0.80415177 2.1390676 0.99203503 234 88 12
0.79909968 2.1363707 0.99176198 234 88 12
0.80645132 2.1631424 0.99272293 234 88 12
0.83041441 2.1698325 0.9929648 234 88 12
0.82968646 2.1701071 0.9929648 234 88 12
0.87499166 2.311945 1.0034217 234 88 12
0.85949689 2.272737 1.0004573 234 88 12
0.81754267 2.1619904 0.99212915 234 88 12
0.82106954 2.1901689 0.99268961 234 88 12
0.80760622 2.1638355 0.99041778 234 88 12
0.82951272 2.1942155 0.9925431 234 88 12
0.83541584 2.2024794 0.99269927 234 88 12
0.83056152 2.1929882 0.99113017 234 88 12
0.8363477 2.2089121 0.99138027 234 88 12
-1.1051146 2.4414544 0.41987732 234 88 12
-1.1027267 2.4102795 0.42355427 234 88 12
-1.0831014 2.1168535 0.45861837 234 88 12
-1.0854384 2.1358316 0.45629483 234 88 12
-1.102236 2.3904357 0.42588195 234 88 12
-1.1055864 2.4515438 0.41858736 234 88 12
-1.0831645 2.1327605 0.45566601 234 88 12
-1.0943179 2.2262735 0.44455725 234 88 12
-1.0826312 2.1530159 0.45236972 234 88 12
-1.0836724 2.1892123 0.44743481 234 88 12
-1.0778121 2.0547493 0.46199611 234 88 12
-1.0998744 2.3255615 0.43217936 234 88 12
-1.0821948 2.0994434 0.45582187 234 88 12
-1.0812665 2.0212994 0.46390876 234 88 12
-1.0964218 2.2519903 0.43946072 234 88 12
-1.0970775 2.2516956 0.43946072 234 88 12
-1.1035786 2.4251604 0.42118365 234 88 12
-1.0857153 2.165854 0.44782636 234 88 12
-1.1021988 2.3674741 0.42699444 234 88 12
-1.088433 2.2748768 0.43620357 234 88 12
-1.0987746 2.3796508 0.42565754 234 88 12
-1.0888678 2.2103658 0.44240221 234 88 12
-1.0971055 2.163974 0.44651639 234 88 12
-1.0986207 2.1847413 0.44444925 234 88 12
-1.1005731 2.2286787 0.44013005 234 88 12
-1.0884992 2.2613363 0.43682477 234 88 12
-1.0868613 2.2050016 0.44213769 234 88 12
-1.0859796 2.1813004 0.444381 234 88 12
-1.0876092 2.1782548 0.44459635 234 88 12
-1.0987772 2.2582324 0.43668357 234 88 12
-1.0975605 2.1442995 0.44734085 234 88 12
-1.0979736 2.1203587 0.44955227 234 88 12
-1.1006858 2.1974931 0.44225806 234 88 12
-1.0874159 2.2931359 0.43333104 234 88 12
-1.0938445 2.3467591 0.42825586 234 88 12
-1.090723 2.3087847 0.4317922 234 88 12
-1.0995766 2.2788079 0.43412676 234 88 12
-1.0791086 2.1659889 0.44407448 234 88 12
-1.0914056 2.1602025 0.44409677 234 88 12
-1.0978165 2.1490195 0.44481489 234 88 12
-1.0985334 2.3217063 0.42937812 234 88 12
-1.0973798 2.1651883 0.44244602 234 88 12
-1.0968249 2.1099389 0.44706443 234 88 12
-1.0976247 2.0416179 0.45271987 234 88 12
-1.078863 2.1825235 0.44073781 234 88 12
-1.0948266 2.1450155 0.44316173 234 88 12
-1.0981634 2.1572769 0.44206196 234 88 12
-1.0928193 2.3137879 0.42924115 234 88 12
-1.098637 2.1339293 0.4428201 234 88 12
-1.0879028 2.2959886 0.42962971 234 88 12
-1.0932155 2.0946376 0.44355577 234 88 12
-1.0987773 2.1342413 0.44060874 234 88 12
-1.1045141 2.3545282 0.42500961 234 88 12
-1.0957303 2.3629599 0.42435634 234 88 12
-1.09266 2.3304591 0.42661548 234 88 12
-1.0943848 2.0522127 0.44511679 234 88 12
-1.0887371 2.3029864 0.42801556 234 88 12
-1.0882356 2.2759454 0.42974314 234 88 12
-1.0944729 2.0524085 0.44372866 234 88 12
-1.0892763 2.2661755 0.42966101 234 88 12
-1.100163 2.2191432 0.43137839 234 88 12
-1.0835664 2.2421629 0.42973456 234 88 12
-1.071594 2.0624139 0.43961698 234 88 12
-1.0837762 2.2364883 0.4292514 234 88 12
-1.0984111 2.2518582 0.42815292 234 88 12
-1.081596 2.1389019 0.43307343 234 88 12
-1.0887731 2.2221034 0.42903647 234 88 12
-1.0926951 2.2075398 0.42963436 234 88 12
-1.0988088 2.2203157 0.42890921 234 88 12
-1.101985 2.286798 0.4257372 234 88 12
-1.0942715 2.1861331 0.42966583 234 88 12
-1.0915319 2.1658869 0.42958903 234 88 12
1.9154299 1.9106025 0.19737932 234 88 12
1.9208238 1.918249 0.19583692 234 88 12
1.8991941 1.8859634 0.20194373 234 88 12
1.7453244 1.6568038 0.24532819 234 88 12
1.7553977 1.6757554 0.24204063 234 88 12
1.8881787 1.8715521 0.20482373 234 88 12
1.7847522 1.7088894 0.23402658 234 88 12
1.7649995 1.6823405 0.23914972 234 88 12
1.7522274 1.6730481 0.24159107 234 88 12
1.8006657 1.7464269 0.22811238 234 88 12
1.7133032 1.6064937 0.25186959 234 88 12
1.7845289 1.7200891 0.23190416 234 88 12
1.7720162 1.6929177 0.23517857 234 88 12
1.762857 1.6866317 0.23680656 234 88 12
1.8436067 1.8070858 0.21559906 234 88 12
1.8536313 1.8223855 0.21292979 234 88 12
1.8304253 1.7744272 0.21978486 234 88 12
1.8839085 1.8599342 0.20549956 234 88 12
1.8749477 1.8470576 0.20774399 234 88 12
1.7636654 1.6859307 0.23574196 234 88 12
1.7473234 1.6678363 0.23928131 234 88 12
1.8139609 1.7666892 0.22227235 234 88 12
1.8416156 1.785655 0.21689337 234 88 12
1.8248079 1.7603017 0.22111595 234 88 12
1.8676962 1.8314207 0.20969771 234 88 12
1.8176515 1.7513613 0.22272812 234 88 12
1.874965 1.8470749 0.20740189 234 88 12
1.7804965 1.703984 0.23119433 234 88 12
1.8665365 1.8428308 0.20867108 234 88 12
1.8171589 1.7519293 0.22198004 234 88 12
1.876229 1.8542353 0.20624153 234 88 12
1.7141904 1.6269002 0.24421592 234 88 12
1.8434825 1.8131322 0.21344386 234 88 12
1.8637857 1.8258266 0.20980155 234 88 12
1.8368833 1.7890222 0.21584724 234 88 12
1.798113 1.7338856 0.22475888 234 88 12
1.7702606 1.7044033 0.23019986 234 88 12
1.7539096 1.6903917 0.23308124 234 88 12
1.7403599 1.6737745 0.23594403 234 88 12
1.8971298 1.8781848 0.20146951 234 88 12
1.8136727 1.746297 0.22133918 234 88 12
1.8059191 1.7412896 0.22171734 234 88 12
1.745946 1.6756048 0.23298104 234 88 12
1.7758222 1.7219567 0.22614813 234 88 12
1.6967156 1.6167442 0.24125507 234 88 12
1.9101064 1.8996093 0.19796938 234 88 12
1.7975552 1.7314405 0.22165416 234 88 12
1.7829568 1.6876242 0.22558022 234 88 12
1.7909148 1.7276512 0.2216581 234 88 12
1.776873 1.7136565 0.22109684 234 88 12
1.7743869 1.7199016 0.22081937 234 88 12
1.7872268 1.7139928 0.21938396 234 88 12
1.8628433 1.8265628 0.20556168 234 88 12
1.8518963 1.8137856 0.2071877 234 88 12
1.8078326 1.7510681 0.21450633 234 88 12
1.7641633 1.7007961 0.22094494 234 88 12
1.7634349 1.7015245 0.22094494 234 88 12
1.8309026 1.7957629 0.20926875 234 88 12
1.8497059 1.8076588 0.20622118 234 88 12
1.8403573 1.7898943 0.20669492 234 88 12
1.8295047 1.7773743 0.2073404 234 88 12
1.8364636 1.7923679 0.20559527 234 88 12
0.14655446 2.7066839 -0.10297221 234 88 12
0.088211857 2.4162018 -0.037966665 234 88 12
0.14139159 2.6786377 -0.09687788 234 88 12
0.090590201 2.4160242 -0.039158005 234 88 12
0.092821889 2.4334888 -0.042982858 234 88 12
0.10570908 2.5155849 -0.0609909 234 88 12
0.14843801 2.7156079 -0.10503418 234 88 12
0.098691128 2.4467897 -0.047026452 234 88 12
0.093310684 2.4359426 -0.044646163 234 88 12
0.10646124 2.4784217 -0.054831453 234 88 12
0.13505031 2.6433821 -0.089762121 234 88 12
0.12398414 2.6038358 -0.081339501 234 88 12
0.10983681 2.5383816 -0.068171248 234 88 12
0.12191923 2.5544868 -0.072283357 234 88 12
0.13387603 2.6351423 -0.088711306 234 88 12
0.10740377 2.4985831 -0.060827635 234 88 12
0.095679931 2.4816468 -0.057275601 234 88 12
0.1027871 2.5169954 -0.064496167 234 88 12
0.14639714 2.7093318 -0.10383921 234 88 12
0.13421774 2.6351099 -0.089054026 234 88 12
0.10334639 2.4718544 -0.056364287 234 88 12
0.13203782 2.6410573 -0.090208851 234 88 12
0.12816139 2.6266439 -0.08731021 234 88 12
0.081536651 2.4288003 -0.047594182 234 88 12
0.08416497 2.4448595 -0.050805356 234 88 12
0.093582273 2.4925115 -0.060351457 234 88 12
0.12834056 2.5797286 -0.078574926 234 88 12
0.12439083 2.5576718 -0.07424666 234 88 12
0.13240203 2.6126163 -0.085009016 234 88 12
0.11910909 2.5329647 -0.069389127 234 88 12
0.11878178 2.5439517 -0.071520619 234 88 12
0.1147399 2.5250812 -0.067810491 234 88 12
0.10245038 2.4822853 -0.059363086 234 88 12
0.071560614 2.3738902 -0.037969612 234 88 12
0.14011075 2.6547182 -0.093540981 234 88 12
0.12742943 2.5696318 -0.077202313 234 88 12
0.10374586 2.4791284 -0.05971656 234 88 12
0.11395312 2.5659323 -0.076356418 234 88 12
0.085079595 2.4486756 -0.053720761 234 88 12
0.13384412 2.6191659 -0.087110586 234 88 12
0.10445907 2.4551299 -0.056198344 234 88 12
0.1131906 2.562567 -0.076336652 234 88 12
0.076910339 2.4139774 -0.048236053 234 88 12
0.060072497 2.3548155 -0.037023004 234 88 12
0.12847863 2.6371365 -0.090408906 234 88 12
0.12092186 2.5483677 -0.074448436 234 88 12
0.099414788 2.4717677 -0.060233075 234 88 12
0.086982183 2.4652951 -0.058925137 234 88 12
0.058639977 2.3548381 -0.038453512 234 88 12
0.11720697 2.5429225 -0.074119546 234 88 12
0.08698003 2.465256 -0.059927162 234 88 12
0.08786469 2.4559128 -0.059309043 234 88 12
0.11159568 2.4609747 -0.061443653 234 88 12
0.1169158 2.5330372 -0.074572131 234 88 12
0.089536592 2.4585843 -0.061859988 234 88 12
0.087626062 2.4352517 -0.060183849 234 88 12
0.10773818 2.5171688 -0.074242845 234 88 12
0.13103075 2.6120608 -0.089661658 234 88 12
0.1002932 2.5093911 -0.074636109 234 88 12
0.14336358 2.6840911 -0.10101917 234 88 12
0.10370469 2.4928713 -0.074906677 234 88 12
0.10496084 2.4946594 -0.076049328 234 88 12
0.092609614 2.4196005 -0.06717284 234 88 12
-1.5597438 2.0596576 -0.82660973 234 88 12
-1.5519127 2.01285 -0.80652964 234 88 12
-1.5270957 1.8624601 -0.74211186 234 88 12
-1.5092432 1.7804865 -0.70699435 234 88 12
-1.5098499 1.7781613 -0.70628917 234 88 12
-1.5124249 1.7813052 -0.70820665 234 88 12
-1.5541933 2.0312088 -0.81456262 234 88 12
-1.5048593 1.7631307 -0.70050746 234 88 12
-1.5382206 1.9359568 -0.7744748 234 88 12
-1.512368 1.7759309 -0.70740223 234 88 12
-1.5424479 1.9529709 -0.78202176 234 88 12
-1.5326531 1.9171308 -0.76654017 234 88 12
-1.5103415 1.7882559 -0.71263576 234 88 12
-1.5130723 1.7925653 -0.71499085 234 88 12
-1.5176932 1.8030819 -0.72016931 234 88 12
-1.5317694 1.8846238 -0.75426435 234 88 12
-1.5612347 2.0688462 -0.83067739 234 88 12
-1.5094341 1.794807 -0.71598035 234 88 12
-1.4878747 1.6734319 -0.66556126 234 88 12
-1.5184708 1.8337013 -0.73272371 234 88 12
-1.5550317 2.0317836 -0.81538647 234 88 12
-1.5491756 1.9910049 -0.7988295 234 88 12
-1.5535578 2.0282381 -0.81388366 234 88 12
-1.5163273 1.818571 -0.72871572 234 88 12
-1.5176944 1.8410797 -0.73911667 234 88 12
-1.5425919 1.9585921 -0.78707141 234 88 12
-1.5265074 1.9064108 -0.76515669 234 88 12
-1.5264601 1.8874363 -0.7585339 234 88 12
-1.5469549 1.9928125 -0.80061734 234 88 12
-1.5250604 1.8728004 -0.75306803 234 88 12
-1.5089167 1.7742904 -0.71451724 234 88 12
-1.5217073 1.8416556 -0.74133885 234 88 12
-1.5263872 1.9062511 -0.76577991 234 88 12
-1.5184568 1.8655498 -0.74968868 234 88 12
-1.5188944 1.8055419 -0.72911137 234 88 12
-1.5288948 1.9235097 -0.77302146 234 88 12
-1.5208172 1.8340688 -0.74140674 234 88 12
-1.5391492 1.9721096 -0.79311252 234 88 12
-1.5200561 1.8812141 -0.75794369 234 88 12
-1.5440054 1.9849486 -0.79862291 234 88 12
-1.5349234 1.9516486 -0.78573346 234 88 12
-1.5354698 1.9457312 -0.78391325 234 88 12
-1.509321 1.8017457 -0.72981316 234 88 12
-1.5266095 1.8912114 -0.76444137 234 88 12
-1.5272244 1.9097669 -0.77134597 234 88 12
-1.5153368 1.7892203 -0.72945565 234 88 12
-1.5196761 1.8214771 -0.741961 234 88 12
-1.5269988 1.8810265 -0.76356179 234 88 12
-1.5267417 1.8597462 -0.75676602 234 88 12
-1.5514429 2.0272851 -0.81587338 234 88 12
-1.5030867 1.8114413 -0.73693436 234 88 12
-1.5258055 1.9043137 -0.7713502 234 88 12
-1.5259565 1.8600316 -0.75752681 234 88 12
-1.5422317 1.9562238 -0.79194099 234 88 12
-1.4883276 1.7006152 -0.70179218 234 88 12
-1.5284064 1.8969368 -0.77109212 234 88 12
-1.5395968 1.9620107 -0.79404151 234 88 12
-1.5236845 1.8487613 -0.75615996 234 88 12
2.2780452 1.1761667 -0.91364086 234 88 12
2.2686052 1.1658553 -0.90783179 234 88 12
2.2531378 1.1493032 -0.89838332 234 88 12
2.0848107 0.96815431 -0.79535204 234 88 12
2.0755057 0.95977682 -0.78998959 234 88 12
2.120199 0.99987984 -0.81675428 234 88 12
2.0980563 0.97815597 -0.80376369 234 88 12
2.1771705 1.0686256 -0.85276711 234 88 12
2.2407892 1.1376201 -0.89141613 234 88 12
2.1950397 1.0769258 -0.86196399 234 88 12
2.1719317 1.054106 -0.84851694 234 88 12
2.136205 1.0142869 -0.8268221 234 88 12
2.2346592 1.1269684 -0.88719589 234 88 12
2.2514966 1.1465545 -0.89758384 234 88 12
2.0977366 0.97799033 -0.80477381 234 88 12
2.184164 1.0761931 -0.85763031 234 88 12
2.0890598 0.97616863 -0.80106968 234 88 12
2.1406686 1.0342026 -0.83251125 234 88 12
2.1833057 1.0613559 -0.85499227 234 88 12
2.17307 1.0508956 -0.84902817 234 88 12
2.2103548 1.0977155 -0.87247276 234 88 12
2.1575959 1.0377772 -0.84054357 234 88 12
2.0433381 0.91841167 -0.77345556 234 88 12
2.189389 1.0840622 -0.86179 234 88 12
2.2149494 1.1019565 -0.87549895 234 88 12
2.1555524 1.0345113 -0.83993512 234 88 12
2.2243469 1.1159018 -0.88176495 234 88 12
2.1145129 0.99541831 -0.81682831 234 88 12
2.1367364 1.0223423 -0.83046436 234 88 12
2.2009325 1.0968167 -0.86921018 234 88 12
2.1891975 1.0711024 -0.86036849 234 88 12
2.1628156 1.046014 -0.8456791 234 88 12
2.1283617 1.0108874 -0.82603914 234 88 12
2.1048203 0.97926676 -0.81227219 234 88 12
2.223031 1.1141237 -0.88205951 234 88 12
2.1070869 0.99055004 -0.81635451 234 88 12
2.1007214 0.99636376 -0.81512916 234 88 12
2.0682678 0.96497935 -0.79734379 234 88 12
2.1152716 1.0100292 -0.82404059 234 88 12
2.1962771 1.093623 -0.86893785 234 88 12
2.1582804 1.0559516 -0.84816605 234 88 12
2.264914 1.1598144 -0.90623075 234 88 12
2.1118562 0.97638369 -0.8176074 234 88 12
2.1323335 1.0194679 -0.83289456 234 88 12
2.0873086 0.98744589 -0.81088263 234 88 12
2.1315908 1.0246849 -0.83450931 234 88 12
2.0671964 0.96442461 -0.80072707 234 88 12
2.0923939 0.99167907 -0.81800622 234 88 12
2.0209625 0.92622644 -0.7820186 234 88 12
2.0987477 0.97392994 -0.81817144 234 88 12
2.1515539 1.036642 -0.84697938 234 88 12
2.1468854 1.0347161 -0.84506547 234 88 12
2.118535 1.0079328 -0.83080333 234 88 12
2.1750457 1.0609498 -0.85982901 234 88 12
2.0867059 0.9877618 -0.81767255 234 88 12
2.2085907 1.0961313 -0.87757534 234 88 12
2.1106565 1.0040058 -0.83052093 234 88 12
2.1684632 1.0673242 -0.86207849 234 88 12
2.1804285 1.0634698 -0.86584258 234 88 12
2.1342499 1.0220466 -0.8448121 234 88 12
2.131578 1.0283527 -0.84499651 234 88 12
2.2076361 1.0942943 -0.87972724 234 88 12
2.2281153 1.1189972 -0.89028043 234 88 12
2.1656744 1.0495535 -0.86042643 234 88 12
2.1313682 1.0180628 -0.8450706 234 88 12
2.087697 0.96655303 -0.82488847 234 88 12
1.1755313 2.2687147 -0.91063917 234 88 12
1.1649741 2.2442305 -0.90035987 234 88 12
1.0685358 2.0306458 -0.80929214 234 88 12
1.1570129 2.2297401 -0.89392769 234 88 12
1.0900221 2.0692194 -0.8274855 234 88 12
1.0771207 2.0419507 -0.81588537 234 88 12
1.0695605 2.0274291 -0.80958575 234 88 12
1.0669913 2.0327389 -0.81094569 234 88 12
1.0980799 2.1042376 -0.84087682 234 88 12
1.1735001 2.2627108 -0.90846831 234 88 12
1.0792512 2.049504 -0.8199569 234 88 12
1.1332738 2.1802981 -0.8735913 234 88 12
1.1207937 2.1341867 -0.85653096 234 88 12
1.1552399 2.2186208 -0.89068455 234 88 12
1.1346444 2.1623712 -0.86890018 234 88 12
1.1174719 2.1243501 -0.8534143 234 88 12
1.1141641 2.1181355 -0.85079753 234 88 12
1.1490744 2.2056153 -0.88564152 234 88 12
1.1063418 2.123589 -0.8512609 234 88 12
1.158555 2.2217844 -0.89288372 234 88 12
1.1078119 2.1087985 -0.84744942 234 88 12
1.1486207 2.2119141 -0.88798529 234 88 12
1.0363876 1.982585 -0.79420602 234 88 12
1.1257236 2.1692526 -0.87019885 234 88 12
1.0949687 2.1088817 -0.84530711 234 88 12
1.1290067 2.1448874 -0.86344111 234 88 12
1.1207787 2.1376445 -0.85973221 234 88 12
1.0938058 2.0805397 -0.83681738 234 88 12
1.095042 2.0978947 -0.84261948 234 88 12
1.0819646 2.074476 -0.83288562 234 88 12
1.0811306 2.0749078 -0.83288562 234 88 12
1.0637901 2.0440981 -0.82005709 234 88 12
1.0529389 2.0274105 -0.81286514 234 88 12
1.1278335 2.1768062 -0.87353665 234 88 12
1.1029283 2.0994987 -0.84531367 234 88 12
1.0751469 2.0602899 -0.82823896 234 88 12
1.0809857 2.0746276 -0.83377016 234 88 12
1.1701283 2.2515903 -0.90500093 234 88 12
1.1191496 2.1322219 -0.85981596 234 88 12
1.0210779 1.9675223 -0.79280603 234 88 12
1.0719912 2.0584509 -0.83035117 234 88 12
1.0657446 2.050473 -0.8269068 234 88 12
1.0903171 2.0475006 -0.83097452 234 88 12
1.1098202 2.1415069 -0.86323786 234 88 12
1.09351 2.0908177 -0.84641665 234 88 12
1.0449352 1.9585555 -0.80280972 234 88 12
1.0628552 2.0447507 -0.83034265 234 88 12
1.1408961 2.1834574 -0.88244867 234 88 12
1.0897303 2.0827088 -0.84622979 234 88 12
1.1113728 2.123029 -0.86163026 234 88 12
1.1095734 2.1189916 -0.86098456 234 88 12
1.1423184 2.18922 -0.8872689 234 88 12
-0.34000838 2.0840428 -1.2188631 234 88 12
-0.34111395 2.0838966 -1.2188631 234 88 12
-0.31720001 2.2908502 -1.3270718 234 88 12
-0.32422996 2.2137461 -1.2872684 234 88 12
-0.34080601 2.0653374 -1.2103391 234 88 12
-0.33494586 2.1561656 -1.2577187 234 88 12
-0.33553946 2.0935302 -1.2260194 234 88 12
-0.3244468 2.237417 -1.3002636 234 88 12
-0.33163559 2.1224186 -1.2418821 234 88 12
-0.33572921 2.1006742 -1.2309304 234 88 12
-0.34439543 2.0715106 -1.2164589 234 88 12
-0.34148464 2.1032226 -1.2326396 234 88 12
-0.33285567 2.1764493 -1.269872 234 88 12
-0.316598 2.3076439 -1.3365239 234 88 12
-0.34136441 2.0950072 -1.2295804 234 88 12
-0.34158173 2.1230702 -1.2439553 234 88 12
-0.32319191 2.2579484 -1.3117307 234 88 12
-0.32557568 2.2442386 -1.3048764 234 88 12
-0.34465343 2.1323946 -1.2489343 234 88 12
-0.34138951 2.1577113 -1.2616686 234 88 12
-0.31211928 2.32652 -1.346174 234 88 12
-0.33517796 2.1131628 -1.2395574 234 88 12
-0.32029256 2.2713654 -1.318761 234 88 12
-0.35542247 2.0222371 -1.1948186 234 88 12
-0.32090977 2.2735999 -1.3199351 234 88 12
-0.3449086 2.1119514 -1.2395949 234 88 12
-0.32929778 2.2313156 -1.2990609 234 88 12
-0.32226908 2.1919875 -1.2793871 234 88 12
-0.3277843 2.1422305 -1.2547649 234 88 12
-0.33745539 2.0688612 -1.2185601 234 88 12
-0.32374191 2.1718345 -1.2701894 234 88 12
-0.32584584 2.1546862 -1.2617966 234 88 12
-0.32664734 2.1545804 -1.2617966 234 88 12
-0.33102614 2.1338799 -1.2517864 234 88 12
-0.33010092 2.2155762 -1.2923679 234 88 12
-0.3648313 2.0018468 -1.1883241 234 88 12
-0.31327638 2.3300931 -1.3482322 234 88 12
-0.31926194 2.2069111 -1.2880046 234 88 12
-0.33590579 2.1928084 -1.2821386 234 88 12
-0.31894359 2.2193837 -1.2947289 234 88 12
-0.33822623 2.1156399 -1.2453355 234 88 12
-0.34298941 2.1150572 -1.2453582 234 88 12
-0.32535836 2.1228299 -1.2490578 234 88 12
-0.32310608 2.1772897 -1.2752414 234 88 12
-0.33221126 2.1442668 -1.2598586 234 88 12
-0.35102475 2.0865808 -1.2331729 234 88 12
-0.31301266 2.3314407 -1.349195 234 88 12
-0.31842959 2.206481 -1.2910084 234 88 12
-0.32806802 2.1738997 -1.2763076 234 88 12
-0.34241527 2.1447666 -1.263518 234 88 12
-0.32532212 2.1025612 -1.243758 234 88 12
-0.33446735 2.1945112 -1.2870737 234 88 12
-0.31075528 2.339442 -1.3530864 234 88 12
-0.33721131 2.131109 -1.2606782 234 88 12
-0.34258604 2.0948269 -1.245748 234 88 12
-0.31669703 2.295558 -1.3346066 234 88 12
-0.31072989 2.3422401 -1.3545235 234 88 12
-0.32995427 2.1621711 -1.2783713 234 88 12
-0.32576606 2.1891925 -1.2904193 234 88 12
-0.32697606 2.2006304 -1.295343 234 88 12
-1.3079129 1.2751786 -1.9273694 234 88 12
-1.2922659 1.1921791 -1.8601472 234 88 12
-1.2889856 1.1762425 -1.8479822 234 88 12
-1.3009619 1.2424852 -1.9017893 234 88 12
-1.3164486 1.3225648 -1.9664034 234 88 12
-1.2865808 1.1701344 -1.8442757 234 88 12
-1.2944609 1.2138306 -1.8795973 234 88 12
-1.2971101 1.2248096 -1.8886541 234 88 12
-1.3049536 1.2629501 -1.9192238 234 88 12
-1.3011714 1.2478701 -1.9072421 234 88 12
-1.2979735 1.2301543 -1.8934407 234 88 12
-1.2780216 1.1263764 -1.8117988 234 88 12
-1.2888209 1.1913009 -1.8626705 234 88 12
-1.2867029 1.176688 -1.8526783 234 88 12
-1.3101617 1.2931942 -1.9439017 234 88 12
-1.3133178 1.3077266 -1.955307 234 88 12
-1.2715234 1.1058941 -1.8023002 234 88 12
1.3939521 1.3809687 -1.8314816 234 88 12
1.2473426 1.1465224 -1.644511 234 88 12
1.2724675 1.1890053 -1.6776837 234 88 12
1.2796978 1.2025459 -1.6878753 234 88 12
1.4039747 1.3965306 -1.8441453 234 88 12
1.304945 1.2304248 -1.7150863 234 88 12
1.2892466 1.2081043 -1.6965799 234 88 12
1.2787172 1.1971635 -1.686129 234 88 12
1.2456651 1.1468413 -1.6455454 234 88 12
1.3854263 1.3607355 -1.818013 234 88 12
1.3493012 1.2950237 -1.7688367 234 88 12
1.3561099 1.3096173 -1.7791717 234 88 12
1.3665048 1.3291531 -1.793625 234 88 12
1.3404834 1.285411 -1.7599368 234 88 12
1.392906 1.3783339 -1.8301229 234 88 12
1.3031454 1.2313106 -1.715782 234 88 12
1.2918379 1.2146471 -1.702275 234 88 12
1.2911028 1.2153822 -1.702275 234 88 12
1.2298263 1.1277131 -1.6303505 234 88 12
1.3493705 1.3143555 -1.7782054 234 88 12
1.3152186 1.2632636 -1.7370418 234 88 12
1.3356931 1.2731872 -1.7525676 234 88 12
1.3691552 1.3340222 -1.7977399 234 88 12
1.3298676 1.2656987 -1.7461897 234 88 12
1.321559 1.2558149 -1.7374748 234 88 12
1.3118331 1.2458788 -1.728056 234 88 12
1.2929239 1.2167282 -1.7050333 234 88 12
1.3573682 1.3267803 -1.7886242 234 88 12
1.3483077 1.2948718 -1.7697088 234 88 12
1.3096396 1.2268006 -1.7189846 234 88 12
1.3094852 1.2406279 -1.7254822 234 88 12
1.2323052 1.1296583 -1.636071 234 88 12
1.2888846 1.2199911 -1.7058858 234 88 12
1.3254075 1.2791523 -1.7513561 234 88 12
1.3923544 1.3734093 -1.8282021 234 88 12
1.333173 1.2734176 -1.7531663 234 88 12
1.3993431 1.3864611 -1.8378121 234 88 12
1.3400526 1.2880584 -1.7640698 234 88 12
1.3748466 1.3533063 -1.8108524 234 88 12
1.3932102 1.375544 -1.8300644 234 88 12
1.3041799 1.2309724 -1.7217026 234 88 12
1.3182449 1.2559034 -1.7397919 234 88 12
1.2864707 1.2152028 -1.7061727 234 88 12
1.242583 1.1591299 -1.6598036 234 88 12
1.4103556 1.4068525 -1.8525842 234 88 12
1.3012908 1.2073917 -1.7106193 234 88 12
1.3617224 1.3355018 -1.7973748 234 88 12
1.2977219 1.2475721 -1.7274656 234 88 12
1.2739865 1.2119989 -1.7014477 234 88 12
1.2627492 1.1978078 -1.6898415 234 88 12
1.3520975 1.2999316 -1.778535 234 88 12
1.2482897 1.1318023 -1.6564153 234 88 12
1.2925941 1.2292535 -1.7200739 234 88 12
1.2888252 1.2304478 -1.7189177 234 88 12
1.2262734 1.1463019 -1.6530397 234 88 12
1.3470207 1.3052319 -1.7792789 234 88 12
1.2511708 1.1733668 -1.6778479 234 88 12
1.3603696 1.3220721 -1.7937831 234 88 12
1.2884861 1.2237484 -1.7191973 234 88 12
1.2723455 1.2107756 -1.7064397 234 88 12
1.3337733 1.2796285 -1.7650667 234 88 12
1.3172178 1.2593205 -1.7491761 234 88 12
1.3026898 1.2396315 -1.7354395 234 88 12
1.304032 1.2552865 -1.7427063 234 88 12
1.4114747 1.4092461 -1.8544923 234 88 12
1.3313054 1.2936573 -1.771488 234 88 12
1.4094125 1.4058837 -1.8522863 234 88 12
1.3091297 1.2442904 -1.7430722 234 88 12
1.3000715 1.226804 -1.7340816 234 88 12
1.3538855 1.3161513 -1.7933422 234 88 12
-0.11127568 1.2516071 -2.0876234 234 88 12
-0.10124382 1.3155463 -2.1458485 234 88 12
-0.10690553 1.2613753 -2.0978141 234 88 12
-0.1128571 1.2370476 -2.0759029 234 88 12
-0.093177088 1.3416271 -2.1703277 234 88 12
-0.086026341 1.3842956 -2.2088878 234 88 12
-0.086816631 1.3632368 -2.1904902 234 88 12
-0.1017544 1.2913492 -2.1261008 234 88 12
-0.10988086 1.2561269 -2.0945837 234 88 12
-0.11217786 1.2697004 -2.1069429 234 88 12
-0.09857367 1.3321749 -2.1628766 234 88 12
-0.090830043 1.379626 -2.2054615 234 88 12
-0.11407009 1.2222651 -2.0657766 234 88 12
-0.10406572 1.2835437 -2.1203799 234 88 12
-0.080346458 1.4150178 -2.2374439 234 88 12
-0.1266607 1.2404612 -2.0825977 234 88 12
-0.11335181 1.2946827 -2.1307387 234 88 12
-0.09906777 1.2840352 -2.1218574 234 88 12
-0.071799226 1.4455993 -2.2647641 234 88 12
-0.12123307 1.2560503 -2.0977798 234 88 12
-0.067549154 1.4598483 -2.2774143 234 88 12
-0.10385757 1.2778432 -2.1177845 234 88 12
-0.093715876 1.3652221 -2.1947017 234 88 12
-0.14385167 1.1827974 -2.0352325 234 88 12
-0.074136868 1.4198225 -2.2426219 234 88 12
-0.077171467 1.4077805 -2.2321594 234 88 12
-0.10284809 1.2770673 -2.1183131 234 88 12
-0.12025386 1.2445703 -2.0904303 234 88 12
-0.11996446 1.2629845 -2.1065955 234 88 12
-0.086230867 1.3429424 -2.1763859 234 88 12
-0.095453039 1.3189294 -2.1557903 234 88 12
-0.10079904 1.295988 -2.1359825 234 88 12
-0.08623074 1.3784506 -2.2073576 234 88 12
-0.087808341 1.3279678 -2.1643076 234 88 12
-0.12042916 1.2591243 -2.1059122 234 88 12
-0.081230409 1.362453 -2.1946335 234 88 12
-0.088216804 1.3245586 -2.1623073 234 88 12
-0.10109172 1.2615283 -2.1085851 234 88 12
-0.087594725 1.3449154 -2.17979 234 88 12
-0.069797538 1.4479156 -2.2677002 234 88 12
-0.10726828 1.2447063 -2.0943501 234 88 12
-0.071865551 1.422791 -2.2465088 234 88 12
-0.081034876 1.3702693 -2.2020016 234 88 12
-0.10446636 1.2924647 -2.1364353 234 88 12
-0.090518698 1.3415585 -2.1786568 234 88 12
-0.11696456 1.2530371 -2.1045773 234 88 12
-0.090731256 1.3287123 -2.1686618 234 88 12
-0.11453668 1.2707582 -2.1207418 234 88 12
-0.069993384 1.4359367 -2.258426 234 88 12
-0.10343088 1.2862341 -2.1344948 234 88 12
-0.10782076 1.2865944 -2.1349556 234 88 12
-0.099820063 1.303152 -2.1495292 234 88 12
-0.11832041 1.2234305 -2.0840209 234 88 12
-0.075491376 1.4336426 -2.2569699 234 88 12
-0.090389594 1.3514298 -2.1907289 234 88 12
-0.065360971 1.4707762 -2.287565 234 88 12
-0.11801042 1.1745282 -2.0486557 234 88 12
-0.07442265 1.4227754 -2.2488735 234 88 12
-0.082888789 1.3914858 -2.2237427 234 88 12
-0.093062066 1.3317646 -2.1788452 234 88 12
-0.097299092 1.3131552 -2.1651914 234 88 12
-0.10379755 1.2931007 -2.1496766 234 88 12
-0.10784578 1.2541877 -2.1204996 234 88 12
-0.086620934 1.3473198 -2.1937628 234 88 12
-0.11352143 1.2338858 -2.1075013 234 88 12
