ply
format ascii 1.0
element vertex 1828
property float x
property float y
property float z
property uchar red
property uchar green
property uchar blue
end_header
1.035967 0.17262532 1.1139432 234 88 12
1.0357479 0.17733838 1.1161008 234 88 12
1.0353123 0.18206406 1.1169616 234 88 12
1.0346938 0.18681118 1.1167361 234 88 12
1.0403713 0.17312337 1.1128972 234 88 12
1.040114 0.1778349 1.1148653 234 88 12
1.0395691 0.18257108 1.11508 234 88 12
1.0389977 0.18730989 1.1151328 234 88 12
1.0383636 0.19205944 1.1148075 234 88 12
1.0446885 0.17362809 1.1113595 234 88 12
1.0443447 0.17834584 1.1128317 234 88 12
1.0438181 0.18307866 1.1131636 234 88 12
1.0432706 0.18781249 1.1133645 234 88 12
1.0426767 0.19255342 1.113279 234 88 12
1.0487729 0.17415507 1.108371 234 88 12
1.048561 0.17885828 1.1107144 234 88 12
1.0480814 0.18358365 1.1113513 234 88 12
1.0475473 0.18831363 1.1116399 234 88 12
1.0469675 0.19305024 1.1116399 234 88 12
1.0463057 0.19780426 1.1111246 234 88 12
1.0527214 0.17469738 1.1044625 234 88 12
1.0527536 0.17937358 1.1084479 234 88 12
1.05233 0.18409015 1.1094608 234 88 12
1.0518126 0.18881582 1.1098636 234 88 12
1.0512463 0.19354828 1.1099485 234 88 12
1.0506253 0.19829206 1.1096832 234 88 12
1.0568763 0.17989826 1.1057149 234 88 12
1.0565666 0.18459795 1.1075066 234 88 12
1.0560833 0.18931621 1.1081427 234 88 12
1.0555375 0.19404271 1.1083623 234 88 12
1.0549386 0.19877961 1.1082339 234 88 12
1.0609653 0.18042848 1.1027286 234 88 12
1.0608051 0.18510501 1.1055764 234 88 12
1.0605546 0.18977827 1.1077987 234 88 12
1.0601811 0.19446176 1.1091794 234 88 12
1.0596244 0.1991784 1.1093218 234 88 12
1.0589691 0.20391938 1.1088034 234 88 12
1.0648488 0.18098965 1.0982755 234 88 12
1.0650669 0.18560757 1.1038222 234 88 12
1.0649337 0.19025439 1.1069056 234 88 12
1.0644511 0.1949555 1.1075633 234 88 12
1.0638975 0.19966918 1.1077284 234 88 12
1.0632975 0.204394 1.1075751 234 88 12
1.069289 0.18611626 1.1018068 234 88 12
1.0691768 0.19075502 1.1051135 234 88 12
1.06894 0.19539867 1.1075213 234 88 12
1.0694431 0.19984101 1.1151192 234 88 12
1.0688854 0.20452115 1.1152295 234 88 12
1.0690196 0.20899427 1.1201767 234 88 12
1.0688586 0.21352829 1.1230375 234 88 12
1.0683327 0.21816909 1.1233426 234 88 12
1.0675176 0.2229148 1.1216427 234 88 12
1.073378 0.18664883 1.0988325 234 88 12
1.0735644 0.19122477 1.104391 234 88 12
1.0741551 0.19566786 1.1128378 234 88 12
1.0736045 0.20034677 1.1130021 234 88 12
1.0733678 0.20493568 1.1154221 234 88 12
1.0735209 0.20938799 1.1206187 234 88 12
1.0730581 0.21400921 1.1213851 234 88 12
1.0724927 0.21866184 1.121415 234 88 12
1.0719204 0.22331688 1.1213965 234 88 12
1.0796847 0.18217769 1.108085 234 88 12
1.0792683 0.18684173 1.109265 234 88 12
1.0787265 0.19152452 1.1095049 234 88 12
1.0783232 0.19617224 1.1107705 234 88 12
1.0778394 0.20083272 1.1114317 234 88 12
1.0775384 0.20543513 1.1134367 234 88 12
1.0776783 0.20988367 1.1186659 234 88 12
1.0771872 0.21451275 1.1192429 234 88 12
1.0766181 0.21916659 1.1192467 234 88 12
1.076048 0.22382078 1.1192437 234 88 12
1.0754114 0.22850274 1.118759 234 88 12
1.0835997 0.17811036 1.0995741 234 88 12
1.083885 0.18268013 1.1062013 234 88 12
1.0834432 0.18734689 1.107217 234 88 12
1.0828824 0.19203319 1.1073176 234 88 12
1.0824527 0.19668603 1.1084143 234 88 12
1.0819212 0.20135939 1.1087329 234 88 12
1.081641 0.20595464 1.1109469 234 88 12
1.0816876 0.21042734 1.1156092 234 88 12
1.0813076 0.21501926 1.1170375 234 88 12
1.0807426 0.21967164 1.1170726 234 88 12
1.0801705 0.22432667 1.117054 234 88 12
1.0794523 0.22904468 1.11595 234 88 12
1.08787 0.17860857 1.098085 234 88 12
1.0880344 0.18319102 1.1039333 234 88 12
1.0874957 0.18787684 1.1042148 234 88 12
1.0870326 0.19254318 1.1050857 234 88 12
1.086464 0.19723082 1.105128 234 88 12
1.0860223 0.20188193 1.1061559 234 88 12
1.0855899 0.20652305 1.1072496 234 88 12
1.0854377 0.2110616 1.1105019 234 88 12
1.0852476 0.21559182 1.1134409 234 88 12
1.0848042 0.22020136 1.1144149 234 88 12
1.0841908 0.22487529 1.1140823 234 88 12
1.0921376 0.18371059 1.1012866 234 88 12
1.0916196 0.18839331 1.1017439 234 88 12
1.0910596 0.19308297 1.1018603 234 88 12
1.0904759 0.19777822 1.1017855 234 88 12
1.0898985 0.20247211 1.1017618 234 88 12
1.089131 0.20722772 1.1002239 234 88 12
1.0881433 0.212071 1.0969509 234 88 12
1.0871469 0.2169399 1.0936296 234 88 12
1.0865682 0.22166219 1.0936248 234 88 12
1.0856464 0.22653253 1.090924 234 88 12
1.0954767 0.18437871 1.0922495 234 88 12
1.0953237 0.18900357 1.0957737 234 88 12
1.0948114 0.19369417 1.0963018 234 88 12
1.0941496 0.19842289 1.0955929 234 88 12
1.0923094 0.20351847 1.0852138 234 88 12
1.0922456 0.20808937 1.0894424 234 88 12
1.0919043 0.21273221 1.0913795 234 88 12
1.0913314 0.21745248 1.0914202 234 88 12
1.0907251 0.22218637 1.0911914 234 88 12
1.0898416 0.22704521 1.0887282 234 88 12
1.096015 0.20874897 1.0836861 234 88 12
1.0957825 0.21335995 1.0866016 234 88 12
1.0952768 0.21806164 1.0872149 234 88 12
1.09462 0.22282454 1.0865655 234 88 12
1.0940427 0.22755517 1.0865811 234 88 12
1.0934529 0.2322918 1.0864929 234 88 12
1.0998992 0.21390314 1.0837317 234 88 12
1.0993881 0.21860828 1.0843185 234 88 12
1.098835 0.22332828 1.0845413 234 88 12
1.0982637 0.22805536 1.0846084 234 88 12
1.0976775 0.23278962 1.0845469 234 88 12
1.1039498 0.21447517 1.0802366 234 88 12
1.1035837 0.21912079 1.0821276 234 88 12
1.1030412 0.22383538 1.0824506 234 88 12
1.1024654 0.22856422 1.082479 234 88 12
1.1018863 0.23329464 1.0824775 234 88 12
1.1012555 0.2380534 1.0820271 234 88 12
1.1077294 0.215165 1.0741847 234 88 12
1.1077391 0.21965128 1.0795712 234 88 12
1.1072365 0.22434729 1.0802678 234 88 12
1.106658 0.22907738 1.0802721 234 88 12
1.1060789 0.2338078 1.0802705 234 88 12
1.1054505 0.23856619 1.0798283 234 88 12
1.1117204 0.22026415 1.0753585 234 88 12
1.1113826 0.22488356 1.0776262 234 88 12
1.1108502 0.22959077 1.0780615 234 88 12
1.1102673 0.23432332 1.0780247 234 88 12
1.1152748 0.22555253 1.0725051 234 88 12
1.1148094 0.2302317 1.0736107 234 88 12
1.1141316 0.23502654 1.0726746 234 88 12
1.078389 0.22943355 1.1246327 234 88 12
1.0765221 0.21783866 1.1246554 234 88 12
1.0674224 0.2064658 1.1251693 234 88 12
1.0505546 0.19540691 1.1262113 234 88 12
1.0481746 0.18391368 1.1262696 234 88 12
1.0466959 0.1723897 1.1262666 234 88 12
1.0476276 0.16075931 1.1260997 234 88 12
1.0726205 0.23019566 1.1144768 234 88 12
1.0707542 0.21860068 1.1145004 234 88 12
1.0491797 0.20760339 1.1159232 234 88 12
1.0440125 0.19619116 1.116182 234 88 12
1.0418235 0.18469349 1.1162294 234 88 12
1.0403016 0.1731734 1.1162294 234 88 12
1.0397086 0.16161254 1.1161633 234 88 12
1.0681427 0.23092778 1.1042252 234 88 12
1.0649862 0.21936269 1.1043453 234 88 12
1.0442162 0.2083378 1.1057707 234 88 12
1.0384147 0.19694354 1.1060877 234 88 12
1.0363057 0.18544237 1.1061312 234 88 12
1.0347836 0.17392157 1.1061312 234 88 12
1.0340093 0.16236807 1.1060758 234 88 12
1.1059786 0.24247295 1.0908219 234 88 12
1.0703391 0.23150665 1.0934509 234 88 12
1.0627122 0.2200323 1.0939207 234 88 12
1.0458193 0.20887634 1.0951064 234 88 12
1.0342103 0.19764958 1.095885 234 88 12
1.031309 0.18617219 1.0959915 234 88 12
1.0298252 0.17464735 1.0959885 234 88 12
1.0314246 0.16298789 1.0957471 234 88 12
1.1108439 0.25484952 1.0798028 234 88 12
1.0998561 0.24325018 1.0805593 234 88 12
1.0765454 0.23199685 1.0823052 234 88 12
1.0708606 0.22042938 1.0826377 234 88 12
1.0537797 0.20922866 1.0838858 234 88 12
1.0416362 0.19797093 1.0847383 234 88 12
1.0331577 0.18665203 1.0852969 234 88 12
1.0326198 0.17506336 1.0852175 234 88 12
1.0958896 0.24398582 1.0701187 234 88 12
1.0808991 0.23253348 1.0712389 234 88 12
1.070446 0.22105485 1.0719817 234 88 12
1.0676868 0.20941021 1.0720832 234 88 12
1.0659159 0.19774133 1.0721022 234 88 12
1.0988543 0.24459016 1.0590671 234 88 12
1.0875239 0.23302285 1.0599126 234 88 12
1.0801381 0.22142042 1.0604173 234 88 12
1.0787224 0.2096829 1.0604057 234 88 12
1.0714954 0.23175211 1.1317856 234 88 12
1.0395634 0.20465778 1.1293705 234 88 12
1.0402519 0.19135357 1.1290447 234 88 12
1.0456883 0.18003382 1.1290224 234 88 12
1.0528153 0.16940182 1.1291076 234 88 12
1.0640382 0.24204321 1.1199118 234 88 12
1.0670712 0.22952142 1.1197404 234 88 12
1.0313962 0.2008722 1.1172317 234 88 12
1.036106 0.18924803 1.1171668 234 88 12
1.0418783 0.17806734 1.1171659 234 88 12
1.0477011 0.16690719 1.1171681 234 88 12
1.0580763 0.15757202 1.1174434 234 88 12
1.0634032 0.24142165 1.1080773 234 88 12
1.055276 0.22418593 1.1072795 234 88 12
1.0276541 0.19893347 1.1053756 234 88 12
1.0323522 0.18730456 1.1053138 234 88 12
1.0381246 0.17612387 1.1053129 234 88 12
1.043957 0.1649676 1.1053156 234 88 12
1.0536073 0.15534131 1.105534 234 88 12
1.0596781 0.22567339 1.0957409 234 88 12
1.0273964 0.19844784 1.0937054 234 88 12
1.0292754 0.18564063 1.0934968 234 88 12
1.034433 0.17420587 1.0934634 234 88 12
1.0415704 0.16357754 1.0935352 234 88 12
1.0906814 0.1697567 1.095831 234 88 12
1.0871389 0.25080788 1.0855916 234 88 12
1.0641702 0.22719698 1.0841489 234 88 12
1.0446409 0.20525804 1.0828828 234 88 12
1.0345273 0.1874146 1.0820895 234 88 12
1.0369407 0.17482144 1.0819212 234 88 12
1.0521102 0.16741741 1.0823859 234 88 12
1.0883212 0.16836554 1.0838903 234 88 12
1.0892297 0.25134024 1.0737275 234 88 12
1.0696371 0.22912894 1.0725434 234 88 12
1.065094 0.21340075 1.0720602 234 88 12
1.0577674 0.19660968 1.0714501 234 88 12
1.0626385 0.18491051 1.0714049 234 88 12
1.0826858 0.17935804 1.0720589 234 88 12
1.0816668 0.23382057 1.0611529 234 88 12
1.0753622 0.21729414 1.0606303 234 88 12
1.07525 0.20342307 1.0603738 234 88 12
1.0931581 0.19696175 1.060886 234 88 12
1.0951383 0.22514485 1.0494732 234 88 12
1.0775508 0.2274183 1.1420876 234 88 12
1.0315373 0.19116241 1.1280619 234 88 12
1.0408386 0.18519968 1.127995 234 88 12
1.0511749 0.18038879 1.1280265 234 88 12
1.089151 0.20586534 1.1306574 234 88 12
1.0219281 0.19538493 1.1176436 234 88 12
1.028879 0.18677568 1.117366 234 88 12
1.0387444 0.18144614 1.1173537 234 88 12
1.0488294 0.17636064 1.1173612 234 88 12
1.0599304 0.17238687 1.1174594 234 88 12
1.0917225 0.19091205 1.1193984 234 88 12
1.1021037 0.18598187 1.119423 234 88 12
1.0192661 0.19098641 1.1069412 234 88 12
1.0270871 0.18335739 1.1067531 234 88 12
1.0370052 0.17808674 1.106746 234 88 12
1.0470465 0.17295317 1.1067494 234 88 12
1.0579809 0.16879657 1.1068285 234 88 12
1.086194 0.18341696 1.1083643 234 88 12
1.100075 0.18229446 1.108683 234 88 12
1.0259591 0.1806801 1.0961946 234 88 12
1.0355153 0.1750039 1.0961585 234 88 12
1.0457103 0.17003764 1.096174 234 88 12
1.0577316 0.16706656 1.0963355 234 88 12
1.0830591 0.17852819 1.0975561 234 88 12
1.0983384 0.17892279 1.0979687 234 88 12
1.0333755 0.18753131 1.0862832 234 88 12
1.0364072 0.17455937 1.0857497 234 88 12
1.0474043 0.17045654 1.0858241 234 88 12
1.0648348 0.17337357 1.0863829 234 88 12
1.0864367 0.18071505 1.0872495 234 88 12
1.0970476 0.1760322 1.0872874 234 88 12
1.0575598 0.21306066 1.077486 234 88 12
1.0527979 0.19127266 1.0764215 234 88 12
1.0602883 0.18317954 1.0762365 234 88 12
1.0748409 0.18284097 1.0765523 234 88 12
1.0865517 0.17935354 1.0766654 234 88 12
1.0659617 0.20439146 1.0667065 234 88 12
1.0738482 0.19662634 1.0665556 234 88 12
1.0862901 0.19386904 1.0667067 234 88 12
1.1108925 0.20427138 1.0676552 234 88 12
1.0864749 0.22561897 1.0573045 234 88 12
1.0899054 0.21279685 1.0568838 234 88 12
1.102429 0.20999809 1.0570241 234 88 12
1.0669813 0.22037405 1.1286763 234 88 12
1.0345316 0.18603306 1.1237483 234 88 12
1.042894 0.18714257 1.1237479 234 88 12
1.0518186 0.19017664 1.1235703 234 88 12
1.065452 0.20911548 1.1219304 234 88 12
1.0266707 0.18059912 1.1164471 234 88 12
1.0349756 0.18151018 1.1164654 234 88 12
1.0433354 0.18261461 1.1164654 234 88 12
1.0517904 0.18404387 1.1164346 234 88 12
1.0612969 0.18901968 1.1160668 234 88 12
1.0272009 0.17637669 1.1091363 234 88 12
1.0355223 0.17734624 1.1091497 234 88 12
1.0438821 0.17845067 1.1091497 234 88 12
1.0522954 0.17973781 1.1091317 234 88 12
1.0614661 0.18357345 1.1088639 234 88 12
1.0279433 0.17289969 1.1017506 234 88 12
1.0360787 0.17321602 1.1018305 234 88 12
1.0444447 0.17434138 1.1018283 234 88 12
1.0530306 0.17621405 1.1017506 234 88 12
1.062477 0.18096361 1.101382 234 88 12
1.0372012 0.17104723 1.0943065 234 88 12
1.0455152 0.17197296 1.0943252 234 88 12
1.0543855 0.17478904 1.0941468 234 88 12
1.0641562 0.18058862 1.0936579 234 88 12
1.0574921 0.17927623 1.0858918 234 88 12
1.0664908 0.18238862 1.085677 234 88 12
1.0721098 0.19512527 1.0764525 234 88 12
1.0374285 0.17591217 1.1171607 234 88 12
1.0394634 0.18012479 1.1176329 234 88 12
1.0411272 0.18450081 1.1179647 234 88 12
1.0423154 0.18909463 1.1181165 234 88 12
1.0700811 0.21640919 1.1263125 234 88 12
1.0710908 0.22098118 1.1264026 234 88 12
1.0379415 0.1713257 1.1126261 234 88 12
1.0410283 0.17506358 1.1135063 234 88 12
1.0434009 0.1791141 1.1141137 234 88 12
1.0455886 0.18323764 1.1146508 234 88 12
1.0475188 0.18747114 1.1150898 234 88 12
1.0488317 0.19199044 1.115292 234 88 12
1.0489025 0.19710603 1.1150166 234 88 12
1.0721827 0.21117654 1.1224847 234 88 12
1.0736434 0.21551818 1.12275 234 88 12
1.0746064 0.22011013 1.1228234 234 88 12
1.0753466 0.22481613 1.1228105 234 88 12
1.040993 0.17073236 1.1087565 234 88 12
1.0442482 0.17438942 1.109712 234 88 12
1.0470394 0.17824128 1.1104888 234 88 12
1.0496304 0.18216981 1.1111889 234 88 12
1.0519456 0.18621349 1.1117827 234 88 12
1.0539716 0.19038242 1.1122649 234 88 12
1.0554458 0.19480775 1.1125331 234 88 12
1.058584 0.19841322 1.1134495 234 88 12
1.0717018 0.20215432 1.1179533 234 88 12
1.0727575 0.20671231 1.1180629 234 88 12
1.0751846 0.21057267 1.1187079 234 88 12
1.0764819 0.21499598 1.1189123 234 88 12
1.0773778 0.21962164 1.1189604 234 88 12
1.0781511 0.22431004 1.1189604 234 88 12
1.0785195 0.22921094 1.1188018 234 88 12
1.0429707 0.17063111 1.1044689 234 88 12
1.0469242 0.17396645 1.1057087 234 88 12
1.0502985 0.17754458 1.106723 234 88 12
1.0532711 0.18128935 1.1075808 234 88 12
1.0560271 0.18511787 1.1083547 234 88 12
1.0588051 0.18891825 1.1091384 234 88 12
1.0622405 0.1923818 1.1101817 234 88 12
1.0645026 0.19639637 1.1107645 234 88 12
1.0747497 0.19645086 1.114494 234 88 12
1.0757612 0.2010269 1.1145875 234 88 12
1.0760282 0.20597546 1.1143874 234 88 12
1.0777627 0.21018346 1.1147665 234 88 12
1.0791035 0.21458456 1.1149905 234 88 12
1.0800219 0.21919881 1.1150478 234 88 12
1.0807952 0.22388737 1.1150478 234 88 12
1.048649 0.1739848 1.1013278 234 88 12
1.0528562 0.17717555 1.1026834 234 88 12
1.056469 0.1806169 1.1038048 234 88 12
1.0596722 0.18422841 1.1047652 234 88 12
1.0634034 0.18756412 1.1059368 234 88 12
1.0791155 0.18504955 1.1118759 234 88 12
1.0800209 0.18966515 1.1119291 234 88 12
1.0806665 0.19440812 1.1118786 234 88 12
1.0802909 0.19966242 1.1114212 234 88 12
1.079643 0.20506421 1.1108545 234 88 12
1.0800115 0.20996197 1.1106927 234 88 12
1.0813248 0.21437864 1.110908 234 88 12
1.0823617 0.21893351 1.1110133 234 88 12
1.0829512 0.22371955 1.1109396 234 88 12
1.0543005 0.17732888 1.0981958 234 88 12
1.0589294 0.18029283 1.0997372 234 88 12
1.0628495 0.18356121 1.1009959 234 88 12
1.0773432 0.18170103 1.1065062 234 88 12
1.0821911 0.18441413 1.1081445 234 88 12
1.0829952 0.18907763 1.1081575 234 88 12
1.083693 0.19379346 1.1081278 234 88 12
1.0841125 0.19864927 1.1079857 234 88 12
1.0825449 0.2045114 1.1070422 234 88 12
1.0821159 0.20981471 1.1065568 234 88 12
1.0831577 0.21437305 1.1066648 234 88 12
1.0838537 0.21910827 1.1066332 234 88 12
1.0598061 0.1807202 1.0950243 234 88 12
1.0650029 0.18338342 1.0968149 234 88 12
1.0838941 0.17939086 1.1041723 234 88 12
1.0849389 0.18393798 1.1042833 234 88 12
1.085717 0.18861391 1.104286 234 88 12
1.0864434 0.19331542 1.1042675 234 88 12
1.0869105 0.1981473 1.1041434 234 88 12
1.0853246 0.20402001 1.103182 234 88 12
1.0842324 0.20966218 1.1024208 234 88 12
1.0848053 0.21446434 1.1023382 234 88 12
1.081633 0.22121283 1.1007255 234 88 12
1.064965 0.18425696 1.0917293 234 88 12
1.0848569 0.17977886 1.0995774 234 88 12
1.0875764 0.18351556 1.1003774 234 88 12
1.0883869 0.18817562 1.1003934 234 88 12
1.0890832 0.19289218 1.1003624 234 88 12
1.0894142 0.19779277 1.1001809 234 88 12
1.08832 0.20341919 1.0994116 234 88 12
1.0856385 0.20987366 1.0979866 234 88 12
1.0843254 0.21565408 1.0971243 234 88 12
1.0851026 0.2203663 1.0971243 234 88 12
1.0850418 0.2255182 1.0967779 234 88 12
1.0868888 0.17965129 1.0954111 234 88 12
1.0888832 0.18374415 1.0959183 234 88 12
1.0898514 0.18833253 1.0959996 234 88 12
1.0906367 0.19301024 1.096005 234 88 12
1.0913152 0.19774163 1.0959659 234 88 12
1.0891775 0.20390247 1.0947531 234 88 12
1.0861949 0.21052225 1.0931866 234 88 12
1.0872566 0.21508773 1.0933053 234 88 12
1.0886078 0.21949986 1.093545 234 88 12
1.0895916 0.22409979 1.0936316 234 88 12
1.0908722 0.18364057 1.0917335 234 88 12
1.0922047 0.18805182 1.0919685 234 88 12
1.0930291 0.19271152 1.0919902 234 88 12
1.0926348 0.19798447 1.0914991 234 88 12
1.0867699 0.20604771 1.0887033 234 88 12
1.0889653 0.21003923 1.0893005 234 88 12
1.0907617 0.21422417 1.0897304 234 88 12
1.0924213 0.21847117 1.0901031 234 88 12
1.0938731 0.22281942 1.0903887 234 88 12
1.0950177 0.22732468 1.0905446 234 88 12
1.0947585 0.23257823 1.0901072 234 88 12
1.0792226 0.19536681 1.0814202 234 88 12
1.0824977 0.19887285 1.0824792 234 88 12
1.0866255 0.20192613 1.0839025 234 88 12
1.089111 0.20578468 1.0846287 234 88 12
1.0919191 0.20946194 1.0854933 234 88 12
1.0940192 0.21348751 1.0860573 234 88 12
1.095962 0.21758306 1.086555 234 88 12
1.0977955 0.22172566 1.0870067 234 88 12
1.0993285 0.22601828 1.0873307 234 88 12
1.1003891 0.23055735 1.0874532 234 88 12
1.1006298 0.23553744 1.0872252 234 88 12
1.0840145 0.20416513 1.0776881 234 88 12
1.0905398 0.20598719 1.0801585 234 88 12
1.0944041 0.20912534 1.0814866 234 88 12
1.0969634 0.2129124 1.0822544 234 88 12
1.099213 0.21684526 1.0828897 234 88 12
1.1011982 0.22090413 1.0834119 234 88 12
1.102592 0.22526698 1.0836794 234 88 12
1.1034832 0.22989416 1.0837302 234 88 12
1.1042287 0.2345992 1.0837182 234 88 12
1.0959074 0.20929486 1.0770508 234 88 12
1.0993308 0.21263672 1.0782026 234 88 12
1.1020327 0.21633258 1.0790416 234 88 12
1.1041441 0.22032307 1.0796244 234 88 12
1.1053643 0.22477676 1.0798192 234 88 12
1.1062269 0.22941881 1.0798581 234 88 12
1.1069452 0.2341384 1.0798339 234 88 12
1.1073617 0.23902375 1.0796778 234 88 12
1.100606 0.21293031 1.0736673 234 88 12
1.10421 0.21615715 1.074912 234 88 12
1.1067032 0.21994652 1.0756689 234 88 12
1.1079865 0.22436665 1.0758935 234 88 12
1.1088542 0.2290061 1.075935 234 88 12
1.1096277 0.23369595 1.075935 234 88 12
1.1096786 0.23878211 1.0756158 234 88 12
1.1050669 0.21667732 1.0701901 234 88 12
1.1084358 0.22000884 1.0713443 234 88 12
1.1103755 0.22408144 1.0718634 234 88 12
1.1113815 0.22864752 1.071967 234 88 12
1.112053 0.23339365 1.0719215 234 88 12
1.1098008 0.22538637 1.0664964 234 88 12
1.0386112 0.17781426 1.1199014 234 88 12
1.0348066 0.18075258 1.1195006 234 88 12
1.0452645 0.17867097 1.117388 234 88 12
1.0418355 0.18282178 1.1177247 234 88 12
1.0380113 0.18566051 1.117265 234 88 12
1.0338655 0.18747517 1.1161779 234 88 12
1.0517058 0.17887227 1.1144863 234 88 12
1.0486248 0.18419306 1.1155393 234 88 12
1.0449859 0.18760599 1.1154331 234 88 12
1.0410208 0.1899471 1.1146697 234 88 12
1.0366696 0.19106179 1.1131481 234 88 12
1.0552838 0.1852054 1.1131469 234 88 12
1.0517735 0.1890253 1.1132938 234 88 12
1.0479859 0.19190757 1.1128646 234 88 12
1.0439292 0.19391595 1.1118939 234 88 12
1.0392616 0.19396438 1.1097047 234 88 12
1.063115 0.19040754 1.1133374 234 88 12
1.0592699 0.19298995 1.1127342 234 88 12
1.0548143 0.19351146 1.1108546 234 88 12
1.0508748 0.19585198 1.1100907 234 88 12
1.0466682 0.19733463 1.1087894 234 88 12
1.0811131 0.18349674 1.1126531 234 88 12
1.0777357 0.18767029 1.1130366 234 88 12
1.0780767 0.2052889 1.1216856 234 88 12
1.075773 0.21308586 1.124331 234 88 12
1.0723228 0.216728 1.1244234 234 88 12
1.0686224 0.21949604 1.1239744 234 88 12
1.0585948 0.20055778 1.1100252 234 88 12
1.0536437 0.19940399 1.1070851 234 88 12
1.0491098 0.19976749 1.1050768 234 88 12
1.0871794 0.18273956 1.1092122 234 88 12
1.0842519 0.18860258 1.1106372 234 88 12
1.0819954 0.19687769 1.1135588 234 88 12
1.0816144 0.21185051 1.1206423 234 88 12
1.0784246 0.21643221 1.121318 234 88 12
1.0749716 0.22005272 1.1213993 234 88 12
1.0713664 0.22313771 1.1211468 234 88 12
1.0665725 0.22213179 1.1183313 234 88 12
1.0562487 0.20240882 1.1037453 234 88 12
1.0896659 0.1854127 1.1057016 234 88 12
1.0871332 0.19276901 1.1080619 234 88 12
1.0850505 0.20169014 1.1114081 234 88 12
1.0841357 0.21473818 1.1173452 234 88 12
1.0808764 0.21906807 1.1178691 234 88 12
1.0773872 0.22255716 1.1178691 234 88 12
1.0738194 0.22576965 1.1176952 234 88 12
1.0673501 0.21892819 1.111182 234 88 12
1.0579106 0.2021912 1.0983731 234 88 12
1.0920323 0.18762822 1.1019086 234 88 12
1.0895134 0.19506064 1.1043321 234 88 12
1.0873675 0.20377703 1.1075729 234 88 12
1.0861514 0.21577187 1.1128894 234 88 12
1.083151 0.22106376 1.1140198 234 88 12
1.0796973 0.22468467 1.1141021 234 88 12
1.0760179 0.22750485 1.1136783 234 88 12
1.066257 0.20914911 1.0998101 234 88 12
1.094311 0.18950281 1.0979004 234 88 12
1.0909629 0.19381216 1.0983783 234 88 12
1.0888226 0.20262894 1.1016978 234 88 12
1.0870702 0.21273512 1.1058511 234 88 12
1.0846238 0.22013097 1.1083118 234 88 12
1.0812651 0.22413878 1.1086345 234 88 12
1.0756749 0.22021209 1.1039029 234 88 12
1.0666926 0.2046019 1.0916761 234 88 12
1.0962641 0.19010951 1.0930883 234 88 12
1.093237 0.19567566 1.0943607 234 88 12
1.0899941 0.20037211 1.0950891 234 88 12
1.0878063 0.20895998 1.0982965 234 88 12
1.0844835 0.21324711 1.0987797 234 88 12
1.0808018 0.21621613 1.0984225 234 88 12
1.0769235 0.21849805 1.0976225 234 88 12
1.0704581 0.21170583 1.0909786 234 88 12
1.0931653 0.20564409 1.0932466 234 88 12
1.0903432 0.21184865 1.0949551 234 88 12
1.0868891 0.21564969 1.0951304 234 88 12
1.0833133 0.21900065 1.0950168 234 88 12
1.0795634 0.22173159 1.0945021 234 88 12
1.0728978 0.21416681 1.087314 234 88 12
1.0961466 0.21022403 1.0909839 234 88 12
1.0931501 0.21575789 1.0922757 234 88 12
1.0896665 0.21942972 1.0923716 234 88 12
1.0858963 0.22205016 1.0917861 234 88 12
1.081959 0.2240928 1.0908215 234 88 12
1.0992658 0.21535775 1.0890982 234 88 12
1.095975 0.21975157 1.0896642 234 88 12
1.092456 0.22327054 1.0896642 234 88 12
1.0887302 0.22602916 1.089168 234 88 12
1.0843375 0.22639126 1.0870996 234 88 12
1.1024806 0.22089131 1.0874968 234 88 12
1.0990839 0.22484294 1.0877838 234 88 12
1.0954093 0.22774066 1.087382 234 88 12
1.0914745 0.22969438 1.0863572 234 88 12
1.0854719 0.2241544 1.080387 234 88 12
1.1084381 0.21996701 1.0839908 234 88 12
1.1052793 0.2248475 1.0848883 234 88 12
1.1018035 0.228477 1.0849684 234 88 12
1.0981644 0.23148772 1.0846409 234 88 12
1.0941328 0.23305371 1.0833554 234 88 12
1.1110563 0.22324137 1.0809382 234 88 12
1.1077701 0.22762011 1.0815123 234 88 12
1.1042634 0.23112668 1.0815123 234 88 12
1.1006612 0.23427038 1.0812713 234 88 12
1.096589 0.23566858 1.0798663 234 88 12
1.1133789 0.22534956 1.0771207 234 88 12
1.1101314 0.22988984 1.0778054 234 88 12
1.1066245 0.23339677 1.0778054 234 88 12
1.1030194 0.23652953 1.0775552 234 88 12
1.0973482 0.23190895 1.0721048 234 88 12
1.1154809 0.22657087 1.0727091 234 88 12
1.1122658 0.23126227 1.0734971 234 88 12
1.1087582 0.23478107 1.073503 234 88 12
1.105004 0.23735468 1.0728729 234 88 12
1.0843354 0.21976046 1.1388758 234 88 12
1.0771413 0.2104395 1.1388626 234 88 12
1.0884582 0.23132524 1.1276928 234 88 12
1.0805939 0.22228849 1.1276178 234 88 12
1.0733742 0.21298194 1.1276025 234 88 12
1.0669171 0.20334686 1.1276582 234 88 12
1.0573058 0.19508345 1.1274192 234 88 12
1.0490886 0.18622652 1.1273098 234 88 12
1.0419306 0.17690825 1.1272994 234 88 12
1.0357269 0.16716297 1.1273789 234 88 12
1.0853901 0.23356652 1.1164984 234 88 12
1.0775639 0.22451417 1.1164294 234 88 12
1.0705091 0.21513759 1.1164294 234 88 12
1.0637156 0.20564808 1.1164529 234 88 12
1.0535618 0.19762181 1.1161739 234 88 12
1.0458353 0.18855211 1.1161127 234 88 12
1.0387883 0.17918605 1.1161127 234 88 12
1.0321604 0.16963229 1.1161506 234 88 12
1.083467 0.23532678 1.1054035 234 88 12
1.0752307 0.22644435 1.1053022 234 88 12
1.0681255 0.21708722 1.105298 234 88 12
1.0612797 0.20761849 1.1053162 234 88 12
1.050891 0.19969197 1.1050276 234 88 12
1.04311 0.19064526 1.104964 234 88 12
1.0360628 0.1812788 1.104964 234 88 12
1.0295783 0.17166035 1.1050131 234 88 12
1.1102653 0.23746531 1.0960821 234 88 12
1.0954804 0.23123825 1.0954499 234 88 12
1.0748935 0.22752927 1.094336 234 88 12
1.0676769 0.21820983 1.0943233 234 88 12
1.0613738 0.20849739 1.0943861 234 88 12
1.0498862 0.20103669 1.0940185 234 88 12
1.0412099 0.19237585 1.0938833 234 88 12
1.0340487 0.18305609 1.0938739 234 88 12
1.0279148 0.17327751 1.0939505 234 88 12
1.1197133 0.24693507 1.0852336 234 88 12
1.1067679 0.23989113 1.0847751 234 88 12
1.0940781 0.23278542 1.0843347 234 88 12
1.0841228 0.22456594 1.0841086 234 88 12
1.073244 0.21676351 1.0838083 234 88 12
1.0640846 0.20824963 1.0836432 234 88 12
1.0533133 0.2004538 1.083349 234 88 12
1.0438951 0.19209318 1.0831615 234 88 12
1.0363497 0.18292142 1.0831228 234 88 12
1.1173836 0.24887963 1.0739985 234 88 12
1.1053137 0.24146821 1.0736262 234 88 12
1.095124 0.23330742 1.0733939 234 88 12
1.0841805 0.22548969 1.0731038 234 88 12
1.0758911 0.21656893 1.0730133 234 88 12
1.0690891 0.20701675 1.0730355 234 88 12
1.0607681 0.19812284 1.072942 234 88 12
1.1061264 0.24210562 1.0626299 234 88 12
1.0960709 0.23387326 1.0624187 234 88 12
1.0872842 0.22512758 1.0622981 234 88 12
1.0794991 0.2159677 1.0622492 234 88 12
1.0724956 0.20647664 1.0622567 234 88 12
1.1004391 0.23300962 1.0516509 234 88 12
1.0937926 0.22333086 1.051684 234 88 12
1.0750639 0.22459383 1.1433263 234 88 12
1.0461144 0.2074338 1.1352137 234 88 12
1.0397903 0.19255826 1.1332753 234 88 12
1.0399567 0.17830262 1.1331074 234 88 12
1.041679 0.16418143 1.133364 234 88 12
1.0736487 0.23889737 1.1289572 234 88 12
1.0740443 0.22451775 1.1288512 234 88 12
1.0394129 0.20682065 1.1193209 234 88 12
1.0385891 0.19246893 1.118889 234 88 12
1.039324 0.1782653 1.1188765 234 88 12
1.0401522 0.16406982 1.118889 234 88 12
1.0438104 0.15009934 1.1196623 234 88 12
1.0729499 0.23885237 1.1145691 234 88 12
1.0536394 0.22253028 1.109235 234 88 12
1.0388213 0.20678668 1.1050951 234 88 12
1.0380336 0.19243835 1.1046789 234 88 12
1.0387685 0.17823473 1.1046665 234 88 12
1.0395967 0.16403925 1.1046789 234 88 12
1.042879 0.15003884 1.1053418 234 88 12
1.0728613 0.23886988 1.1003417 234 88 12
1.0575683 0.22294199 1.0961339 234 88 12
1.04106 0.20702101 1.0916101 234 88 12
1.0381383 0.19246785 1.0906413 234 88 12
1.0385638 0.17823476 1.0905482 234 88 12
1.0400121 0.16408968 1.0907224 234 88 12
1.0993407 0.25613689 1.093169 234 88 12
1.077811 0.23940335 1.0874103 234 88 12
1.0661756 0.22381513 1.0842057 234 88 12
1.052052 0.20808534 1.080361 234 88 12
1.0440674 0.19302751 1.0781003 234 88 12
1.0423619 0.17858392 1.077459 234 88 12
1.0501251 0.16494921 1.0792577 234 88 12
1.0979198 0.25601488 1.0784934 234 88 12
1.0829271 0.23995395 1.0744801 234 88 12
1.0754274 0.22475192 1.0723728 234 88 12
1.0668775 0.20951329 1.0699996 234 88 12
1.0615618 0.19463997 1.068449 234 88 12
1.0648868 0.18056667 1.0690937 234 88 12
1.0875421 0.16808699 1.0746468 234 88 12
1.1028005 0.25656226 1.0654029 234 88 12
1.0906465 0.24077128 1.0621594 234 88 12
1.0829185 0.2255152 1.0600255 234 88 12
1.0763912 0.21043773 1.0581932 234 88 12
1.0771661 0.19608054 1.0581894 234 88 12
1.1017101 0.24193126 1.0506016 234 88 12
1.0962194 0.22685161 1.0490509 234 88 12
1.0966326 0.2123796 1.0489569 234 88 12
1.0287929 0.18861623 1.133577 234 88 12
1.038053 0.17828868 1.1332973 234 88 12
1.0484846 0.16879308 1.1335427 234 88 12
1.0206206 0.1999321 1.1200837 234 88 12
1.0284796 0.18859227 1.1191814 234 88 12
1.0380772 0.17851005 1.1190559 234 88 12
1.0482416 0.16883022 1.1191814 234 88 12
1.0596436 0.16001178 1.1198511 234 88 12
1.0208228 0.20027414 1.105914 234 88 12
1.0291835 0.1892962 1.1052431 234 88 12
1.038781 0.17921393 1.1051188 234 88 12
1.048804 0.16943447 1.1051812 234 88 12
1.0600262 0.16049123 1.1057655 234 88 12
1.1001849 0.17158888 1.1189067 234 88 12
1.0273554 0.20518392 1.0945127 234 88 12
1.0305129 0.19044784 1.0915768 234 88 12
1.039999 0.18028279 1.0914046 234 88 12
1.0502533 0.17066334 1.0915656 234 88 12
1.0629592 0.16275291 1.0927815 234 88 12
1.099816 0.17155133 1.1043581 234 88 12
1.0562388 0.22622357 1.0927036 234 88 12
1.0371511 0.19540004 1.0801886 234 88 12
1.0432669 0.18280761 1.0785646 234 88 12
1.0549968 0.17421326 1.0793508 234 88 12
1.0756884 0.17186081 1.0839493 234 88 12
1.1006839 0.17237121 1.0903448 234 88 12
1.0593563 0.22867182 1.0796238 234 88 12
1.054584 0.20808145 1.0733356 234 88 12
1.0585034 0.19383319 1.0707748 234 88 12
1.0700396 0.18501994 1.07145 234 88 12
1.0893378 0.18161364 1.07539 234 88 12
1.1034832 0.17453004 1.0771408 234 88 12
1.0721982 0.23813893 1.0706246 234 88 12
1.0669383 0.21712878 1.0641855 234 88 12
1.0754209 0.20605479 1.0635504 234 88 12
1.0859047 0.19640814 1.0637555 234 88 12
1.1072851 0.19437246 1.0684972 234 88 12
1.0870676 0.24907133 1.0623543 234 88 12
1.0823334 0.22835514 1.0561877 234 88 12
1.0882534 0.21537673 1.0544775 234 88 12
1.1009464 0.20721821 1.0555762 234 88 12
1.1239612 0.20624505 1.0609168 234 88 12
1.0993453 0.24074142 1.0487132 234 88 12
1.1035819 0.22647369 1.0463108 234 88 12
1.1170053 0.21874717 1.0476751 234 88 12
1.031271 0.18332475 1.1337065 234 88 12
1.0415289 0.18059473 1.1329582 234 88 12
1.0538481 0.18288174 1.1339827 234 88 12
1.0196917 0.182437 1.1221993 234 88 12
1.0299807 0.17977317 1.1214824 234 88 12
1.0410249 0.17898944 1.1214222 234 88 12
1.052282 0.17872298 1.1215429 234 88 12
1.0644636 0.18066108 1.1224346 234 88 12
1.0797727 0.1899624 1.1259019 234 88 12
1.0909359 0.18934797 1.1259019 234 88 12
1.0190645 0.18050332 1.1105504 234 88 12
1.0298868 0.17916638 1.1102998 234 88 12
1.0409317 0.17838579 1.1102414 234 88 12
1.0521547 0.17803858 1.1103328 234 88 12
1.0636616 0.17836496 1.1106573 234 88 12
1.0790201 0.18779962 1.1141332 234 88 12
1.0902877 0.18744583 1.1142232 234 88 12
1.1016916 0.18740471 1.1144216 234 88 12
1.0192926 0.18069454 1.0996392 234 88 12
1.0299321 0.1789021 1.0992357 234 88 12
1.040977 0.17811985 1.0991774 234 88 12
1.052179 0.17772025 1.0992498 234 88 12
1.06387 0.17848577 1.0997211 234 88 12
1.0783519 0.18583685 1.102446 234 88 12
1.0899504 0.18627426 1.1028057 234 88 12
1.1014049 0.18635738 1.1030444 234 88 12
1.0302986 0.17942753 1.0884372 234 88 12
1.0412157 0.17832477 1.0882713 234 88 12
1.0525588 0.1782597 1.0884562 234 88 12
1.0654147 0.18180099 1.0898614 234 88 12
1.0787716 0.18645185 1.0916426 234 88 12
1.0899264 0.18583788 1.0916426 234 88 12
1.1013809 0.18592089 1.0918787 234 88 12
1.0448092 0.18670265 1.0800934 234 88 12
1.0555683 0.18514487 1.0797776 234 88 12
1.067803 0.18713178 1.0806476 234 88 12
1.079106 0.18686405 1.0807635 234 88 12
1.0902308 0.18617208 1.0807375 234 88 12
1.1019269 0.18680982 1.0811565 234 88 12
1.0625998 0.20173191 1.074252 234 88 12
1.0712818 0.19506775 1.0722518 234 88 12
1.0849414 0.20030254 1.0741874 234 88 12
1.0994482 0.2074175 1.076746 234 88 12
1.1131819 0.21259402 1.0786641 234 88 12
1.1310865 0.22727373 1.0837289 234 88 12
1.0789328 0.21297213 1.0670521 234 88 12
1.0900211 0.21194802 1.0669199 234 88 12
1.1017303 0.21238792 1.0672665 234 88 12
1.1150249 0.21649365 1.0688126 234 88 12
1.131024 0.22674313 1.0723699 234 88 12
1.0832291 0.22285588 1.0591213 234 88 12
1.0922201 0.21677078 1.0573553 234 88 12
1.1042285 0.2178638 1.0579094 234 88 12
1.1175432 0.22196166 1.0594355 234 88 12
1.0311087 0.17817104 1.1233442 234 88 12
1.0371379 0.18196116 1.123263 234 88 12
1.032637 0.17562561 1.1162423 234 88 12
1.0385312 0.1799857 1.1162344 234 88 12
1.0279229 0.17018838 1.1093323 234 88 12
1.0339997 0.17378187 1.1092308 234 88 12
1.0398871 0.17817061 1.1092265 234 88 12
1.035345 0.17201291 1.1022283 234 88 12
1.0412364 0.17638405 1.1022221 234 88 12
1.0425705 0.1746635 1.0952252 234 88 12
1.0788884 0.19570678 1.1160952 234 88 12
1.0794785 0.20166232 1.1158984 234 88 12
1.0812556 0.20822915 1.1156033 234 88 12
1.081453 0.21393129 1.1154404 234 88 12
1.0801766 0.21884479 1.1154002 234 88 12
1.0785732 0.22358428 1.1153873 234 88 12
1.0762275 0.22794011 1.115436 234 88 12
1.0850645 0.18181369 1.1115069 234 88 12
1.0835396 0.18664134 1.1114872 234 88 12
1.0823499 0.19164966 1.1114407 234 88 12
1.0807933 0.19645436 1.1114235 234 88 12
1.082072 0.20277934 1.1111799 234 88 12
1.0825424 0.20864736 1.1110015 234 88 12
1.082384 0.21416382 1.1108737 234 88 12
1.0814143 0.21924147 1.1108108 234 88 12
1.0796548 0.22390197 1.1108108 234 88 12
1.0870379 0.18260138 1.1068275 234 88 12
1.0864611 0.1879496 1.1067359 234 88 12
1.0847913 0.19269089 1.1067283 234 88 12
1.083022 0.19737737 1.1067283 234 88 12
1.0834607 0.20324962 1.1065596 234 88 12
1.0832387 0.20875077 1.1064417 234 88 12
1.0825796 0.21400748 1.1063576 234 88 12
1.0813141 0.21893686 1.1063198 234 88 12
1.0786605 0.22314058 1.1063875 234 88 12
1.0898242 0.18384017 1.1020902 234 88 12
1.088344 0.18868682 1.102069 234 88 12
1.0865909 0.19338195 1.1020678 234 88 12
1.0848055 0.19805938 1.102069 234 88 12
1.0841539 0.2033461 1.1019876 234 88 12
1.0843498 0.20907475 1.1018447 234 88 12
1.0836873 0.21433263 1.1017644 234 88 12
1.0814358 0.21874791 1.1018 234 88 12
1.0894489 0.17763786 1.0977048 234 88 12
1.0916386 0.18454002 1.0974282 234 88 12
1.090076 0.18934104 1.0974138 234 88 12
1.0883212 0.1940352 1.0974127 234 88 12
1.0865358 0.19871263 1.0974139 234 88 12
1.0873631 0.20479448 1.0972338 234 88 12
1.0882702 0.21089625 1.0970485 234 88 12
1.088712 0.21672863 1.0968961 234 88 12
1.0863873 0.22109109 1.0969352 234 88 12
1.0809659 0.22384793 1.0971878 234 88 12
1.0926811 0.18481129 1.0928178 234 88 12
1.0917323 0.18995351 1.0927634 234 88 12
1.0899949 0.19465747 1.0927614 234 88 12
1.0881647 0.19931094 1.0927653 234 88 12
1.0912977 0.20663357 1.0924425 234 88 12
1.0956938 0.21458696 1.0920376 234 88 12
1.0979954 0.22137867 1.0917711 234 88 12
1.0973463 0.22658716 1.091699 234 88 12
1.0918312 0.22925448 1.0919458 234 88 12
1.0914669 0.18950687 1.0882329 234 88 12
1.0893579 0.19401647 1.088254 234 88 12
1.0863448 0.19803891 1.0883313 234 88 12
1.097039 0.20944536 1.0875543 234 88 12
1.1035049 0.21848676 1.0870426 234 88 12
1.1047475 0.22469234 1.0868568 234 88 12
1.1033331 0.22947745 1.0868366 234 88 12
1.1010289 0.2337966 1.0868714 234 88 12
1.0821977 0.19550264 1.0840092 234 88 12
1.102103 0.2118945 1.0827345 234 88 12
1.1080585 0.22065049 1.0822819 234 88 12
1.1073685 0.22582117 1.0822203 234 88 12
1.1057831 0.23051257 1.0822113 234 88 12
1.1036643 0.23492487 1.0822334 234 88 12
1.0978509 0.23743299 1.0824711 234 88 12
1.1055385 0.21346833 1.0780282 234 88 12
1.1103419 0.22160323 1.0776668 234 88 12
1.1092892 0.2265795 1.0776289 234 88 12
1.107704 0.2312701 1.0776204 234 88 12
1.105642 0.23571095 1.077638 234 88 12
1.1030487 0.21185179 1.0736405 234 88 12
1.1116749 0.22204855 1.0731047 234 88 12
1.1109272 0.22718823 1.0730536 234 88 12
1.1092509 0.23183122 1.0730503 234 88 12
1.1071229 0.23623832 1.0730702 234 88 12
1.1096681 0.2207091 1.0687006 234 88 12
1.1115876 0.22727874 1.0685247 234 88 12
1.1100373 0.23199256 1.0685155 234 88 12
1.1018063 0.23322253 1.0688258 234 88 12
1.086019 0.22186095 1.1322343 234 88 12
1.0761695 0.21762694 1.1321912 234 88 12
1.0668719 0.2128237 1.1323293 234 88 12
1.0953867 0.227394 1.1218063 234 88 12
1.0849348 0.22377194 1.1215709 234 88 12
1.0752186 0.21940358 1.1215709 234 88 12
1.0657837 0.21474421 1.1216621 234 88 12
1.0570866 0.20931351 1.1219944 234 88 12
1.0599804 0.19172893 1.126121 234 88 12
1.0504007 0.18712224 1.1261866 234 88 12
1.0408635 0.18246765 1.1262667 234 88 12
1.0318667 0.1772327 1.1265267 234 88 12
1.0949641 0.22863132 1.1113524 234 88 12
1.0843675 0.22515504 1.1110752 234 88 12
1.0745505 0.22088958 1.1110432 234 88 12
1.0651932 0.21615024 1.1111579 234 88 12
1.0567181 0.21048832 1.1115566 234 88 12
1.0542338 0.1985373 1.1138898 234 88 12
1.0493517 0.18901481 1.1154679 234 88 12
1.0399407 0.18422908 1.1155874 234 88 12
1.0306286 0.17933269 1.1157402 234 88 12
1.0229279 0.17269832 1.1164234 234 88 12
1.1105859 0.22787169 1.102851 234 88 12
1.100584 0.22374424 1.1027726 234 88 12
1.0844616 0.22586367 1.1007847 234 88 12
1.0744686 0.22177371 1.1006992 234 88 12
1.0653466 0.21678755 1.1008869 234 88 12
1.0592291 0.20866884 1.1020261 234 88 12
1.0549664 0.19856043 1.1037645 234 88 12
1.0483078 0.19090167 1.1047546 234 88 12
1.0392642 0.18572906 1.1049894 234 88 12
1.029956 0.18082877 1.1051412 234 88 12
1.0226837 0.17373489 1.1059527 234 88 12
1.1192328 0.23417842 1.0921563 234 88 12
1.1091784 0.23010482 1.0920628 234 88 12
1.0994681 0.22568668 1.0920738 234 88 12
1.0899081 0.22111464 1.0921311 234 88 12
1.0783316 0.21860982 1.0915667 234 88 12
1.0695302 0.21326265 1.0918573 234 88 12
1.0613371 0.20727071 1.0923399 234 88 12
1.0571862 0.19702868 1.0940908 234 88 12
1.0482605 0.19173881 1.0943577 234 88 12
1.0387694 0.18703647 1.0944488 234 88 12
1.0302027 0.18134393 1.0948336 234 88 12
1.0237788 0.17333363 1.0959045 234 88 12
1.1182907 0.23594113 1.0815134 234 88 12
1.1084354 0.23166873 1.0814809 234 88 12
1.0987275 0.22724868 1.0814922 234 88 12
1.0892204 0.22262326 1.0815645 234 88 12
1.0802289 0.21746574 1.081794 234 88 12
1.0718596 0.21165596 1.0822155 234 88 12
1.0637603 0.20554714 1.0827236 234 88 12
1.0574841 0.19750912 1.0837976 234 88 12
1.0488439 0.19191249 1.0841501 234 88 12
1.0415022 0.1849241 1.0849093 234 88 12
1.0332642 0.17885813 1.0853957 234 88 12
1.1178277 0.23722464 1.0710139 234 88 12
1.1078033 0.23312102 1.0709321 234 88 12
1.098092 0.22870415 1.0709424 234 88 12
1.0887372 0.22392333 1.071059 234 88 12
1.0801922 0.21830717 1.0714188 234 88 12
1.0730916 0.21118402 1.0722157 234 88 12
1.0661296 0.20388174 1.0730615 234 88 12
1.0605422 0.19510436 1.0743316 234 88 12
1.1189865 0.23688748 1.0609815 234 88 12
1.1078821 0.23385835 1.0605897 234 88 12
1.0981303 0.22947755 1.060589 234 88 12
1.089954 0.22349207 1.0610498 234 88 12
1.082742 0.2164973 1.0617987 234 88 12
1.0386974 0.18577477 1.1437478 234 88 12
1.0790465 0.23355986 1.1360738 234 88 12
1.0728861 0.22048375 1.1359627 234 88 12
1.054945 0.21041183 1.1306632 234 88 12
1.0451748 0.19832382 1.1289501 234 88 12
1.0388798 0.18535371 1.1287669 234 88 12
1.0330157 0.1722718 1.1287738 234 88 12
1.028227 0.1588978 1.1292574 234 88 12
1.0879912 0.24554659 1.1222829 234 88 12
1.0808026 0.23271888 1.1217268 234 88 12
1.0711285 0.2205251 1.1200868 234 88 12
1.0542293 0.21020451 1.1152903 234 88 12
1.0467752 0.19752809 1.1146038 234 88 12
1.0407279 0.18449447 1.1145304 234 88 12
1.0348485 0.17141733 1.1145304 234 88 12
1.0293072 0.15824832 1.114679 234 88 12
1.0903847 0.24454983 1.1082065 234 88 12
1.0829691 0.2317767 1.1075585 234 88 12
1.0705017 0.22028357 1.1047305 234 88 12
1.0568417 0.20914891 1.101378 234 88 12
1.0488434 0.19661121 1.1004632 234 88 12
1.0427909 0.18357867 1.1003884 234 88 12
1.0369606 0.17048813 1.1004097 234 88 12
1.0315247 0.15729001 1.1006026 234 88 12
1.1129323 0.25329921 1.1001763 234 88 12
1.0973713 0.24243778 1.0960809 234 88 12
1.0859947 0.23062234 1.093755 234 88 12
1.0748975 0.2187818 1.0915405 234 88 12
1.0620435 0.20743246 1.0885675 234 88 12
1.0520451 0.19540037 1.0868075 234 88 12
1.0452857 0.1825491 1.086431 234 88 12
1.0395503 0.16943108 1.0864934 234 88 12
1.0372492 0.15537824 1.0880339 234 88 12
1.1118904 0.25312254 1.0845884 234 88 12
1.1002327 0.24132663 1.0821756 234 88 12
1.0903161 0.22914772 1.0804894 234 88 12
1.0814335 0.21674202 1.0792345 234 88 12
1.0697187 0.20508392 1.0767766 234 88 12
1.0601926 0.19290623 1.0752383 234 88 12
1.0524561 0.18028699 1.0744551 234 88 12
1.0758735 0.15934135 1.0869222 234 88 12
1.1151811 0.2519114 1.0708296 234 88 12
1.1042894 0.23992479 1.0687615 234 88 12
1.0950369 0.22757381 1.067371 234 88 12
1.0862439 0.21513483 1.0661681 234 88 12
1.080067 0.20205149 1.0660573 234 88 12
1.0743308 0.18885598 1.0661311 234 88 12
1.1204898 0.25021756 1.0578916 234 88 12
1.1099225 0.23813918 1.0559806 234 88 12
1.1010168 0.225688 1.0547501 234 88 12
1.0932356 0.21297866 1.0539811 234 88 12
1.088523 0.19950065 1.0544822 234 88 12
1.0275548 0.19550934 1.1421188 234 88 12
1.0282643 0.17934027 1.1390769 234 88 12
1.0342957 0.16487435 1.1393983 234 88 12
1.0586026 0.22235362 1.1471426 234 88 12
1.0274701 0.19578764 1.1241275 234 88 12
1.0325232 0.18101808 1.1238351 234 88 12
1.0382148 0.16645187 1.1239427 234 88 12
1.0447069 0.15212952 1.1245493 234 88 12
1.0596961 0.23959585 1.1332196 234 88 12
1.029652 0.21319845 1.1110369 234 88 12
1.0325736 0.19773102 1.1094192 234 88 12
1.0377432 0.18299972 1.1092019 234 88 12
1.0432624 0.16838068 1.1092019 234 88 12
1.0494925 0.15397973 1.1096417 234 88 12
1.0614523 0.24043167 1.116243 234 88 12
1.0380408 0.21621172 1.0983461 234 88 12
1.0382892 0.19987099 1.0950912 234 88 12
1.0434062 0.18512152 1.0948431 234 88 12
1.0489259 0.17050135 1.0948431 234 88 12
1.0553358 0.15615435 1.0953892 234 88 12
1.0665963 0.2423881 1.1013825 234 88 12
1.0512414 0.22079472 1.0885696 234 88 12
1.0463233 0.20275599 1.082177 234 88 12
1.0497295 0.1874523 1.0808843 234 88 12
1.0556239 0.17294456 1.0811118 234 88 12
1.0693088 0.16082485 1.086077 234 88 12
1.072564 0.24461716 1.087026 234 88 12
1.0664883 0.22604647 1.0799539 234 88 12
1.0623364 0.20820595 1.0740705 234 88 12
1.0646544 0.19250673 1.0721201 234 88 12
1.0724181 0.17853656 1.0734653 234 88 12
1.0970114 0.16971362 1.0849556 234 88 12
1.0822765 0.24808614 1.0749213 234 88 12
1.0766069 0.22962657 1.0681499 234 88 12
1.0796107 0.2140632 1.0666113 234 88 12
1.082476 0.19848047 1.0649946 234 88 12
1.0922782 0.18508737 1.0675372 234 88 12
1.0938226 0.25216299 1.0638678 234 88 12
1.0910424 0.23461626 1.0588727 234 88 12
1.0926787 0.2185699 1.0565243 234 88 12
1.0987281 0.20395929 1.0568075 234 88 12
1.1174158 0.19328801 1.0645932 234 88 12
1.1057061 0.23968191 1.0496376 234 88 12
1.1088934 0.22409013 1.0482163 234 88 12
1.1175961 0.21026918 1.0500512 234 88 12
1.022581 0.1784962 1.1266948 234 88 12
1.0351793 0.17312346 1.1262932 234 88 12
1.0482298 0.16835022 1.1263933 234 88 12
1.0624273 0.16506144 1.1277428 234 88 12
1.0239197 0.18265887 1.1133019 234 88 12
1.036622 0.17742829 1.1130207 234 88 12
1.0496857 0.1726764 1.1131371 234 88 12
1.0631646 0.16846092 1.1137017 234 88 12
1.0864921 0.17690338 1.1248537 234 88 12
1.1013021 0.17425616 1.1267571 234 88 12
1.0257261 0.18744357 1.1004294 234 88 12
1.0384282 0.18221235 1.1001498 234 88 12
1.0514919 0.17746073 1.1002655 234 88 12
1.064983 0.17326172 1.1008393 234 88 12
1.0834616 0.17547333 1.1067336 234 88 12
1.1005387 0.17577544 1.1110635 234 88 12
1.0281665 0.19307387 1.0882474 234 88 12
1.0405988 0.18747836 1.0876733 234 88 12
1.0536666 0.18272808 1.08779 234 88 12
1.0680797 0.17972419 1.0893416 234 88 12
1.0860238 0.1812394 1.0946184 234 88 12
1.1021487 0.18032148 1.0979093 234 88 12
1.0507096 0.22554407 1.0978001 234 88 12
1.0456315 0.19653372 1.0782665 234 88 12
1.058646 0.19167699 1.0783023 234 88 12
1.073617 0.18936539 1.0804121 234 88 12
1.0900815 0.18893692 1.0840675 234 88 12
1.1041652 0.18538727 1.0851837 234 88 12
1.0558475 0.21246387 1.0743397 234 88 12
1.0656974 0.20335554 1.0709623 234 88 12
1.0795946 0.19958943 1.0718901 234 88 12
1.0934589 0.19576146 1.0727714 234 88 12
1.1095799 0.19480518 1.0759861 234 88 12
1.0647181 0.22663082 1.0688601 234 88 12
1.0727179 0.21500632 1.0635105 234 88 12
1.0856519 0.20992762 1.0633889 234 88 12
1.1016244 0.20877928 1.066424 234 88 12
1.1197684 0.21035075 1.0716599 234 88 12
1.0816544 0.22919148 1.0579817 234 88 12
1.0936614 0.22282377 1.0568501 234 88 12
1.1082526 0.21982361 1.0583973 234 88 12
1.1249143 0.21944749 1.0620453 234 88 12
1.1012497 0.23518485 1.0497844 234 88 12
1.1148907 0.23089267 1.0503094 234 88 12
1.0305631 0.17215692 1.1239051 234 88 12
1.0397552 0.1754328 1.1234097 234 88 12
1.0489219 0.17960757 1.1234406 234 88 12
1.0580798 0.18428284 1.1237632 234 88 12
1.0672107 0.19105855 1.1253067 234 88 12
1.076544 0.18149087 1.1173512 234 88 12
1.0856855 0.18435588 1.1166316 234 88 12
1.0948102 0.18907864 1.1169901 234 88 12
1.0299598 0.17261699 1.1134204 234 88 12
1.0391308 0.1766021 1.1133411 234 88 12
1.0482975 0.18073691 1.1133488 234 88 12
1.0574602 0.18509433 1.1134853 234 88 12
1.0667688 0.17982125 1.1080573 234 88 12
1.0759388 0.18090811 1.1063149 234 88 12
1.0850658 0.18475702 1.1061687 234 88 12
1.0941894 0.18897246 1.106234 234 88 12
1.1033126 0.19414544 1.1068487 234 88 12
1.0293306 0.17397812 1.1034635 234 88 12
1.0385004 0.1780041 1.1034085 234 88 12
1.0476671 0.18213892 1.1034161 234 88 12
1.0568309 0.18644218 1.1035206 234 88 12
1.0661519 0.18047747 1.0977337 234 88 12
1.0753137 0.18210311 1.0963129 234 88 12
1.0844393 0.18605177 1.096225 234 88 12
1.0935625 0.1902546 1.0962826 234 88 12
1.1026857 0.19496395 1.0966289 234 88 12
1.028693 0.17562816 1.0936726 234 88 12
1.0378677 0.17950179 1.0935305 234 88 12
1.0470341 0.18366447 1.093554 234 88 12
1.0561962 0.18806805 1.0937148 234 88 12
1.0654268 0.18816532 1.091422 234 88 12
1.0746835 0.18373407 1.0865605 234 88 12
1.0838106 0.18760079 1.0864266 234 88 12
1.0929344 0.19179861 1.0864807 234 88 12
1.1020571 0.19705622 1.0871348 234 88 12
1.1112281 0.22422521 1.100173 234 88 12
1.0463886 0.18573499 1.0840001 234 88 12
1.0555553 0.19002028 1.0840923 234 88 12
1.0647221 0.19437201 1.0842216 234 88 12
1.0739148 0.19672731 1.0832231 234 88 12
1.083172 0.19028349 1.0772661 234 88 12
1.0922958 0.19530421 1.0777822 234 88 12
1.1013956 0.21693042 1.0876311 234 88 12
1.1105912 0.22328046 1.0888757 234 88 12
1.1198027 0.22979395 1.0902079 234 88 12
1.0640789 0.19656694 1.0747294 234 88 12
1.0732512 0.20080996 1.0747958 234 88 12
1.0824128 0.20636193 1.0755949 234 88 12
1.0915855 0.21167006 1.0762552 234 88 12
1.1007628 0.21869259 1.0778702 234 88 12
1.1099585 0.22462966 1.0788755 234 88 12
1.1191659 0.23042214 1.0797971 234 88 12
1.0725678 0.20637652 1.067173 234 88 12
1.0817537 0.2108015 1.0673363 234 88 12
1.0909379 0.21590653 1.0678766 234 88 12
1.1001283 0.22117595 1.0685062 234 88 12
1.1093266 0.22662136 1.0692313 234 88 12
1.1185338 0.23202841 1.0699329 234 88 12
1.0902907 0.21983349 1.0593047 234 88 12
1.0994917 0.22422549 1.059445 234 88 12
1.1086949 0.22908036 1.059839 234 88 12
1.1179072 0.23491806 1.060771 234 88 12
1.0831553 0.22012135 1.1354108 234 88 12
1.0736611 0.22065048 1.1354076 234 88 12
1.0653437 0.21795893 1.1370028 234 88 12
1.0924276 0.21975575 1.1256522 234 88 12
1.0826133 0.22114919 1.1252234 234 88 12
1.073127 0.22167131 1.1252234 234 88 12
1.0639588 0.2213227 1.1256522 234 88 12
1.0922582 0.21978039 1.1159623 234 88 12
1.0825028 0.22101976 1.1156119 234 88 12
1.0730175 0.22154184 1.1156119 234 88 12
1.063828 0.2212538 1.1160078 234 88 12
1.0557218 0.21795224 1.1178766 234 88 12
1.1074592 0.2281508 1.1017281 234 88 12
1.0984093 0.22761537 1.1022394 234 88 12
1.0905397 0.2239221 1.1042807 234 88 12
1.0825897 0.22036079 1.106259 234 88 12
1.0731931 0.22063935 1.106377 234 88 12
1.0641108 0.22005226 1.1069148 234 88 12
1.0567067 0.21479864 1.1097153 234 88 12
1.0526289 0.20012599 1.117085 234 88 12
1.0453078 0.19429655 1.1201682 234 88 12
1.0371758 0.1906468 1.1221951 234 88 12
1.0294296 0.18579435 1.1248066 234 88 12
1.1157856 0.23011185 1.0909007 234 88 12
1.1062429 0.2308985 1.0907724 234 88 12
1.096913 0.23113021 1.0909107 234 88 12
1.0882887 0.22948077 1.0919532 234 88 12
1.0807873 0.22477348 1.0944659 234 88 12
1.0739489 0.21816324 1.0978947 234 88 12
1.0653647 0.21618992 1.0990949 234 88 12
1.0576257 0.21182676 1.1014452 234 88 12
1.0520642 0.20127286 1.1067748 234 88 12
1.0444562 0.19626875 1.1094362 234 88 12
1.0363514 0.19256577 1.1114724 234 88 12
1.0285233 0.18797329 1.1139376 234 88 12
1.0214515 0.18106337 1.1175197 234 88 12
1.1255082 0.22844866 1.0818222 234 88 12
1.1155913 0.23019178 1.0812393 234 88 12
1.1061392 0.23074675 1.0812224 234 88 12
1.0967834 0.23104878 1.0813261 234 88 12
1.0877855 0.23039505 1.0818855 234 88 12
1.080196 0.22593592 1.0842595 234 88 12
1.0741249 0.21725899 1.0886463 234 88 12
1.0656788 0.2149016 1.0900202 234 88 12
1.05893 0.20778707 1.0936644 234 88 12
1.0521576 0.20057957 1.0973547 234 88 12
1.0444801 0.19576794 1.0999026 234 88 12
1.0363841 0.19203782 1.1019355 234 88 12
1.028633 0.18722062 1.1044883 234 88 12
1.0213354 0.18096404 1.1077296 234 88 12
1.1255645 0.22788343 1.0724645 234 88 12
1.1156415 0.22964042 1.0718799 234 88 12
1.1061324 0.23034205 1.0717938 234 88 12
1.0967786 0.23063831 1.0718993 234 88 12
1.0878925 0.22968674 1.072595 234 88 12
1.080542 0.22458193 1.0752553 234 88 12
1.0744054 0.21607117 1.079528 234 88 12
1.0664011 0.21249412 1.0814679 234 88 12
1.0593919 0.20607854 1.0847521 234 88 12
1.0530199 0.197736 1.0889498 234 88 12
1.045082 0.19363326 1.0911418 234 88 12
1.0372447 0.18914482 1.0935174 234 88 12
1.0295888 0.18402468 1.0961933 234 88 12
1.1159112 0.22852173 1.0627848 234 88 12
1.1063578 0.22933207 1.0626485 234 88 12
1.0971246 0.22930455 1.0629051 234 88 12
1.0890328 0.22623086 1.0645905 234 88 12
1.0818207 0.22072236 1.0674188 234 88 12
1.0752567 0.21333432 1.0711302 234 88 12
1.0678567 0.20807658 1.0738432 234 88 12
1.0609554 0.20131908 1.0772616 234 88 12
1.0544614 0.19327115 1.081287 234 88 12
1.0467986 0.18834662 1.0838475 234 88 12
1.0393456 0.18270713 1.0867449 234 88 12
1.1085709 0.22313686 1.0559094 234 88 12
1.0994198 0.22283587 1.0562916 234 88 12
1.0928643 0.21561511 1.0598927 234 88 12
1.0779074 0.2296416 1.1423242 234 88 12
1.0672261 0.22154945 1.1423528 234 88 12
1.0907691 0.23465528 1.1293124 234 88 12
1.0798002 0.22676642 1.1291263 234 88 12
1.069087 0.21870014 1.1291292 234 88 12
1.058789 0.21033804 1.1294433 234 88 12
1.0516425 0.19970785 1.13213 234 88 12
1.0409026 0.19163659 1.1321253 234 88 12
1.0305097 0.18331197 1.1323836 234 88 12
1.0929853 0.2315525 1.1163588 234 88 12
1.0821681 0.22355901 1.116285 234 88 12
1.0714513 0.21549578 1.116285 234 88 12
1.0610784 0.20718741 1.1165408 234 88 12
1.0521333 0.19784889 1.1178643 234 88 12
1.0433224 0.18839149 1.1192994 234 88 12
1.0325999 0.18030785 1.1193076 234 88 12
1.0224704 0.1717871 1.119764 234 88 12
1.115384 0.24543054 1.1025038 234 88 12
1.1042132 0.23768841 1.1021702 234 88 12
1.093549 0.22959936 1.1022031 234 88 12
1.0831882 0.221297 1.1024584 234 88 12
1.0736015 0.21244298 1.1032846 234 88 12
1.0638467 0.20369549 1.1039934 234 88 12
1.0549911 0.19428959 1.1053745 234 88 12
1.045789 0.18511261 1.106509 234 88 12
1.0350602 0.17703359 1.1065123 234 88 12
1.0248941 0.16853945 1.1069379 234 88 12
1.1172755 0.24254845 1.0893308 234 88 12
1.1064397 0.2345787 1.0892394 234 88 12
1.0957654 0.22649807 1.089264 234 88 12
1.0853041 0.21826746 1.0894437 234 88 12
1.075362 0.20966639 1.0900034 234 88 12
1.0664043 0.20035352 1.0912887 234 88 12
1.0572586 0.19115493 1.0924461 234 88 12
1.0482602 0.18183027 1.093722 234 88 12
1.0376707 0.1736493 1.0938286 234 88 12
1.0282013 0.1646397 1.0947701 234 88 12
1.1197096 0.23929533 1.0765504 234 88 12
1.1089016 0.23130667 1.0764793 234 88 12
1.0982273 0.22322601 1.0765039 234 88 12
1.0877382 0.21501477 1.0766621 234 88 12
1.0778816 0.20635289 1.0772793 234 88 12
1.0689696 0.19700596 1.0785884 234 88 12
1.0599219 0.1877353 1.0798088 234 88 12
1.0512466 0.17817371 1.0813124 234 88 12
1.0416263 0.16927952 1.0821329 234 88 12
1.1224226 0.23585112 1.0639672 234 88 12
1.1114811 0.22795331 1.0638028 234 88 12
1.1008203 0.21986243 1.0638372 234 88 12
1.0904543 0.2115638 1.0640826 234 88 12
1.081123 0.20252745 1.0650733 234 88 12
1.0723808 0.1930535 1.066497 234 88 12
1.0656487 0.1821067 1.069388 234 88 12
1.0247401 0.19457632 1.139763 234 88 12
1.0211868 0.17889985 1.1389616 234 88 12
1.0625352 0.23948449 1.1440601 234 88 12
1.0582036 0.22372536 1.1426367 234 88 12
1.0348665 0.20889403 1.12547 234 88 12
1.0313078 0.19322062 1.1246701 234 88 12
1.0285989 0.17750761 1.1245736 234 88 12
1.0263528 0.16176677 1.1248612 234 88 12
1.0675828 0.23814526 1.1276078 234 88 12
1.0512563 0.22292665 1.1163416 234 88 12
1.0431539 0.20744473 1.1118168 234 88 12
1.0399667 0.19175531 1.111328 234 88 12
1.0372517 0.17604432 1.111227 234 88 12
1.0348936 0.16031207 1.11142 234 88 12
1.0825542 0.25235432 1.1171608 234 88 12
1.0723724 0.23681886 1.1109954 234 88 12
1.0597339 0.22146422 1.1028181 234 88 12
1.0523283 0.20595278 1.0988959 234 88 12
1.0489572 0.1902725 1.0982609 234 88 12
1.046242 0.17456155 1.0981604 234 88 12
1.0439887 0.1588226 1.0984377 234 88 12
1.0872424 0.25101113 1.1004752 234 88 12
1.0780554 0.23546036 1.095158 234 88 12
1.0705945 0.21989714 1.0912285 234 88 12
1.0632429 0.20437562 1.0873811 234 88 12
1.0586252 0.18875325 1.0857424 234 88 12
1.0558041 0.17304526 1.0855573 234 88 12
1.0539653 0.15727714 1.0861691 234 88 12
1.0945482 0.24958012 1.085941 234 88 12
1.086921 0.23397823 1.0819143 234 88 12
1.082695 0.21827379 1.080611 234 88 12
1.0763605 0.20268881 1.077612 234 88 12
1.0718614 0.18704073 1.0760838 234 88 12
1.0697135 0.17127259 1.0764445 234 88 12
1.0854862 0.15435769 1.0912336 234 88 12
1.1125481 0.26369736 1.0778553 234 88 12
1.1042072 0.24806769 1.0732992 234 88 12
1.0981163 0.23240323 1.0705265 234 88 12
1.0924962 0.21675123 1.0681242 234 88 12
1.0895491 0.20099588 1.0678487 234 88 12
1.0869874 0.18522291 1.06788 234 88 12
1.0966654 0.16872512 1.0776824 234 88 12
1.1151346 0.24650986 1.0616508 234 88 12
1.109828 0.23080598 1.0595198 234 88 12
1.1056539 0.21507697 1.0582805 234 88 12
1.1029718 0.19928865 1.0582192 234 88 12
1.0158125 0.18396044 1.1244652 234 88 12
1.0261419 0.17237397 1.1235315 234 88 12
1.0372502 0.16129918 1.1235564 234 88 12
1.0495371 0.15097232 1.1250122 234 88 12
1.0157154 0.2049014 1.1172055 234 88 12
1.0225877 0.19100654 1.1120293 234 88 12
1.0332862 0.17966554 1.1115557 234 88 12
1.0443722 0.16857955 1.1115557 234 88 12
1.0560429 0.15786543 1.1122608 234 88 12
1.0241003 0.21301788 1.1067057 234 88 12
1.0301857 0.19859354 1.1006056 234 88 12
1.0408508 0.18723008 1.1000948 234 88 12
1.0520372 0.17620882 1.1002157 234 88 12
1.0636472 0.16545588 1.1008425 234 88 12
1.0875621 0.16244456 1.1161337 234 88 12
1.0479698 0.23147932 1.1149422 234 88 12
1.0386488 0.206752 1.0902244 234 88 12
1.0489024 0.19511262 1.0892183 234 88 12
1.0600524 0.18406436 1.0892922 234 88 12
1.0724185 0.17379121 1.0908115 234 88 12
1.0910844 0.16747399 1.0997763 234 88 12
1.0558003 0.23924415 1.1036179 234 88 12
1.050885 0.21740806 1.0843444 234 88 12
1.0594193 0.20460854 1.0812715 234 88 12
1.0706072 0.193563 1.081374 234 88 12
1.0837476 0.18376438 1.0837817 234 88 12
1.1007781 0.17639472 1.090742 234 88 12
1.1155678 0.1675397 1.0950177 234 88 12
1.0632529 0.22816114 1.0785434 234 88 12
1.0716335 0.21522249 1.0752842 234 88 12
1.0823677 0.203849 1.0748272 234 88 12
1.0952622 0.19386452 1.0769079 234 88 12
1.1100528 0.18505478 1.0811843 234 88 12
1.0746847 0.23830296 1.0715582 234 88 12
1.0820297 0.22465351 1.0670847 234 88 12
1.0928736 0.21333003 1.0667442 234 88 12
1.1059512 0.20344368 1.0690088 234 88 12
1.1239829 0.19667111 1.0769981 234 88 12
1.0866034 0.24877612 1.0650804 234 88 12
1.0947764 0.23563497 1.0615819 234 88 12
1.1054888 0.22418788 1.0610645 234 88 12
1.1182802 0.21408318 1.0629565 234 88 12
1.1065986 0.24601863 1.0549242 234 88 12
1.117244 0.23449665 1.0543115 234 88 12
1.1299504 0.22430886 1.0560718 234 88 12
1.0338748 0.16404271 1.1307852 234 88 12
1.0462414 0.16506647 1.1295766 234 88 12
1.0198987 0.1688104 1.119809 234 88 12
1.0321163 0.16928601 1.1179907 234 88 12
1.0447608 0.17131272 1.1179214 234 88 12
1.0574718 0.17356969 1.118111 234 88 12
1.069798 0.17452131 1.1168337 234 88 12
1.0817811 0.1743706 1.1143214 234 88 12
1.094426 0.17645612 1.1143214 234 88 12
1.1077269 0.18065156 1.1166856 234 88 12
1.0183648 0.1748236 1.1078933 234 88 12
1.0308957 0.17643526 1.1073596 234 88 12
1.0435499 0.1784972 1.1073302 234 88 12
1.0562282 0.18064348 1.1073951 234 88 12
1.0679324 0.17948005 1.103767 234 88 12
1.0804543 0.18115611 1.1033107 234 88 12
1.0931189 0.18331383 1.1033915 234 88 12
1.1058586 0.18571205 1.1037399 234 88 12
1.0173423 0.18269864 1.0980668 234 88 12
1.0297191 0.18374197 1.096905 234 88 12
1.0423628 0.18576591 1.0968336 234 88 12
1.0550599 0.18797705 1.0969697 234 88 12
1.0667129 0.18662162 1.0931542 234 88 12
1.0792617 0.18838748 1.0928005 234 88 12
1.0919042 0.1904726 1.0928005 234 88 12
1.1046089 0.19275984 1.0930239 234 88 12
1.0287123 0.19166273 1.0871267 234 88 12
1.0412854 0.19342366 1.0867652 234 88 12
1.0540204 0.19576046 1.0870384 234 88 12
1.0658064 0.19483575 1.0837228 234 88 12
1.0781194 0.19578864 1.082477 234 88 12
1.0907562 0.19785242 1.0824534 234 88 12
1.1036794 0.20085031 1.0834548 234 88 12
1.1193935 0.21277317 1.0942401 234 88 12
1.0531163 0.2040237 1.0776236 234 88 12
1.0657924 0.20613277 1.0776447 234 88 12
1.0784631 0.20822254 1.0776447 234 88 12
1.091146 0.21035339 1.0776894 234 88 12
1.104798 0.21565713 1.0811918 234 88 12
1.1179833 0.21935403 1.0829386 234 88 12
1.1315199 0.22411428 1.085839 234 88 12
1.0649486 0.21459621 1.0684303 234 88 12
1.0774871 0.2162164 1.0679202 234 88 12
1.0907459 0.22026129 1.070037 234 88 12
1.1037959 0.22355533 1.0713377 234 88 12
1.1168541 0.22683768 1.0726235 234 88 12
1.1300023 0.23036887 1.0741758 234 88 12
1.0774436 0.22740366 1.0616219 234 88 12
1.090088 0.22932735 1.0614389 234 88 12
1.1029322 0.2319171 1.061972 234 88 12
1.115831 0.23466879 1.0626781 234 88 12
1.1295363 0.23998126 1.06613 234 88 12
1.1022469 0.2408817 1.0532331 234 88 12
1.1159196 0.24613751 1.0566026 234 88 12
1.0888834 0.22972469 1.1311119 234 88 12
1.0766351 0.22826131 1.1309446 234 88 12
1.0646194 0.2264418 1.1311953 234 88 12
1.0540432 0.22237487 1.1340791 234 88 12
1.104215 0.2414569 1.1034658 234 88 12
1.0933981 0.23797554 1.1056674 234 88 12
1.0852185 0.23045588 1.1125747 234 88 12
1.0753158 0.22546372 1.1165265 234 88 12
1.0652107 0.22071928 1.1201838 234 88 12
1.0536276 0.21822263 1.1212205 234 88 12
1.1157774 0.23897676 1.0906655 234 88 12
1.1037034 0.23740342 1.0906422 234 88 12
1.0918938 0.23543185 1.0910804 234 88 12
1.0812653 0.23165667 1.0936062 234 88 12
1.0723643 0.22518715 1.0992454 234 88 12
1.0634775 0.21860218 1.1050096 234 88 12
1.0544147 0.21219605 1.1105584 234 88 12
1.0465616 0.20378457 1.1184137 234 88 12
1.0367932 0.19829617 1.1228856 234 88 12
1.0270252 0.19273028 1.1274401 234 88 12
1.1287924 0.23433615 1.0803846 234 88 12
1.1164752 0.23312102 1.0799487 234 88 12
1.1044154 0.23152776 1.0799487 234 88 12
1.0924349 0.2298146 1.0800866 234 88 12
1.0811388 0.22705576 1.0814264 234 88 12
1.0718057 0.22125371 1.0862598 234 88 12
1.0630015 0.21454917 1.092122 234 88 12
1.0540408 0.20799132 1.097807 234 88 12
1.0465969 0.19893405 1.1063482 234 88 12
1.036473 0.19401777 1.110134 234 88 12
1.02641 0.18893753 1.1141019 234 88 12
1.0168351 0.18299155 1.1190538 234 88 12
1.1296985 0.2281722 1.0700197 234 88 12
1.117298 0.22708012 1.069446 234 88 12
1.105238 0.22548683 1.069446 234 88 12
1.0932364 0.22380486 1.0695473 234 88 12
1.082059 0.22086191 1.0710876 234 88 12
1.0726948 0.21509658 1.0758445 234 88 12
1.0637352 0.20862091 1.0814039 234 88 12
1.0547824 0.20204072 1.0870739 234 88 12
1.0472656 0.19308335 1.0954405 234 88 12
1.0370845 0.18825367 1.0991012 234 88 12
1.0270714 0.18308783 1.1031383 234 88 12
1.0173235 0.17741756 1.1077421 234 88 12
1.1183512 0.22069588 1.0593325 234 88 12
1.1061844 0.2192595 1.0591542 234 88 12
1.0945896 0.21695818 1.0599568 234 88 12
1.084108 0.21293852 1.0627055 234 88 12
1.0748874 0.20692344 1.0677097 234 88 12
1.0658138 0.20059422 1.0730617 234 88 12
1.0563146 0.19484459 1.0777504 234 88 12
1.0485008 0.18633237 1.0855534 234 88 12
1.0385389 0.18113618 1.0896012 234 88 12
1.0189399 0.16999713 1.0985202 234 88 12
1.1000561 0.2038528 1.0573993 234 88 12
1.0898054 0.19940645 1.0606024 234 88 12
1.0800114 0.19419861 1.0646569 234 88 12
1.06945 0.19012193 1.0674344 234 88 12
1.0616614 0.18161865 1.0751772 234 88 12
1.0515008 0.17676392 1.0788156 234 88 12
1.0417408 0.17120034 1.0832433 234 88 12
1.0317578 0.16592143 1.0873455 234 88 12
1.0814682 0.24360886 1.1306088 234 88 12
1.0694009 0.23365815 1.1288626 234 88 12
1.0585247 0.22316609 1.1286576 234 88 12
1.046687 0.21313354 1.1271883 234 88 12
1.0354277 0.2028369 1.1264684 234 88 12
1.0248903 0.19219449 1.1266984 234 88 12
1.0153253 0.18106754 1.1282247 234 88 12
1.0797677 0.24012087 1.1081856 234 88 12
1.0695888 0.22935605 1.108838 234 88 12
1.0595337 0.21852629 1.1096569 234 88 12
1.0515702 0.2066896 1.1132113 234 88 12
1.0418013 0.19569075 1.1144325 234 88 12
1.0316433 0.18487042 1.1151526 234 88 12
1.0216027 0.17398424 1.1160346 234 88 12
1.1065018 0.25444919 1.0949804 234 88 12
1.0950978 0.24425963 1.0940508 234 88 12
1.0844365 0.23373801 1.0940623 234 88 12
1.0745245 0.22286697 1.0950363 234 88 12
1.0652262 0.21169604 1.0968105 234 88 12
1.0560122 0.20046668 1.0987098 234 88 12
1.048997 0.18814966 1.1034884 234 88 12
1.0388451 0.17732842 1.1042091 234 88 12
1.0289712 0.16636096 1.1053015 234 88 12
1.0199496 0.15495092 1.1075286 234 88 12
1.1131337 0.24715696 1.083405 234 88 12
1.1021382 0.23678912 1.0829924 234 88 12
1.0915164 0.22625294 1.0830508 234 88 12
1.0812395 0.21555489 1.0835496 234 88 12
1.0718348 0.20443796 1.0851709 234 88 12
1.0630531 0.19300482 1.0876086 234 88 12
1.0537862 0.18178333 1.0894405 234 88 12
1.0464261 0.16960053 1.093766 234 88 12
1.0367272 0.15854453 1.0950791 234 88 12
1.1330513 0.24921596 1.0751098 234 88 12
1.1205472 0.23951617 1.0728234 234 88 12
1.109715 0.22907558 1.0726177 234 88 12
1.0990474 0.21856086 1.0726177 234 88 12
1.0887003 0.2078957 1.0730237 234 88 12
1.0793391 0.1967569 1.0746888 234 88 12
1.0708722 0.18516952 1.0775121 234 88 12
1.0642964 0.17262785 1.0827901 234 88 12
1.0546021 0.16157781 1.0840919 234 88 12
1.1285534 0.231608 1.062982 234 88 12
1.1174335 0.22129722 1.0624205 234 88 12
1.1068056 0.21076348 1.0624707 234 88 12
1.0966111 0.20002492 1.0630672 234 88 12
1.0880843 0.18848348 1.065778 234 88 12
1.0808148 0.17630509 1.0701106 234 88 12
1.0804286 0.16070299 1.0832654 234 88 12
1.1261868 0.21304224 1.0535049 234 88 12
1.1156577 0.20245519 1.053684 234 88 12
1.0136869 0.19667248 1.1243242 234 88 12
1.014101 0.1805522 1.1219338 234 88 12
1.0165051 0.16473262 1.122651 234 88 12
1.026966 0.21447495 1.1186717 234 88 12
1.0257362 0.19808246 1.1137503 234 88 12
1.0274881 0.1821737 1.1134535 234 88 12
1.0294579 0.16629815 1.113494 234 88 12
1.0319682 0.1504941 1.1143698 234 88 12
1.0499594 0.23392624 1.1279454 234 88 12
1.0385463 0.21579513 1.1073853 234 88 12
1.0396944 0.19978724 1.1061618 234 88 12
1.0415307 0.18389171 1.105997 234 88 12
1.0434742 0.16801271 1.105997 234 88 12
1.0456921 0.15217017 1.1064173 234 88 12
1.0640728 0.2519711 1.1234061 234 88 12
1.0560743 0.23430891 1.1082072 234 88 12
1.0521948 0.21744914 1.0993172 234 88 12
1.0536588 0.20149302 1.0985857 234 88 12
1.0556184 0.18561639 1.09861 234 88 12
1.0576305 0.16974688 1.0987144 234 88 12
1.0600157 0.15392596 1.0993855 234 88 12
1.0776622 0.25360397 1.1150612 234 88 12
1.0651828 0.23519772 1.0932025 234 88 12
1.0657198 0.21908352 1.0910728 234 88 12
1.0676589 0.20320432 1.091066 234 88 12
1.0696043 0.1873261 1.0910689 234 88 12
1.0719279 0.17150071 1.0916425 234 88 12
1.081079 0.15657662 1.1025099 234 88 12
1.0805169 0.25336659 1.0905954 234 88 12
1.0792166 0.23691328 1.0857177 234 88 12
1.0797906 0.22080567 1.0836611 234 88 12
1.0817323 0.20492689 1.0836582 234 88 12
1.0836772 0.1890486 1.0836602 234 88 12
1.0861211 0.17323998 1.0844094 234 88 12
1.0950127 0.15828016 1.0948002 234 88 12
1.0918379 0.25460893 1.0790277 234 88 12
1.0933864 0.2386516 1.078437 234 88 12
1.094035 0.22255562 1.0765077 234 88 12
1.0958116 0.20665036 1.0762591 234 88 12
1.097824 0.19078192 1.0763617 234 88 12
1.1067955 0.17588343 1.0867965 234 88 12
1.1061267 0.25636834 1.0719159 234 88 12
1.1075572 0.24039002 1.0711553 234 88 12
1.1094269 0.22448899 1.0710443 234 88 12
1.1113563 0.20859814 1.0710218 234 88 12
1.1134222 0.19272746 1.0712005 234 88 12
1.1225034 0.25848952 1.0678623 234 88 12
1.1219794 0.24217026 1.0642402 234 88 12
1.1237321 0.22624825 1.0639584 234 88 12
1.1259074 0.21039349 1.0642956 234 88 12
1.0318551 0.15503024 1.1208247 234 88 12
1.0462997 0.15310191 1.1204597 234 88 12
1.0186126 0.16941631 1.1132611 234 88 12
1.0330274 0.16745323 1.1128132 234 88 12
1.047475 0.16553386 1.1124729 234 88 12
1.0620145 0.16372532 1.1124078 234 88 12
1.0768404 0.16224745 1.1131668 234 88 12
1.0914195 0.16048095 1.1132072 234 88 12
1.0200688 0.18217392 1.1060936 234 88 12
1.0344369 0.18015528 1.1055137 234 88 12
1.0488715 0.17822206 1.1051425 234 88 12
1.0632643 0.17624359 1.1046588 234 88 12
1.0775194 0.17411068 1.1037933 234 88 12
1.0920736 0.17232928 1.1037933 234 88 12
1.1069051 0.17086166 1.104569 234 88 12
1.0216546 0.1950891 1.0993167 234 88 12
1.0359392 0.19296695 1.0984915 234 88 12
1.050348 0.19100295 1.0980492 234 88 12
1.0637585 0.18786043 1.0947348 234 88 12
1.0782914 0.18606642 1.0947012 234 88 12
1.0929551 0.18442371 1.0950371 234 88 12
1.1082472 0.18349378 1.0971166 234 88 12
1.0375826 0.20595032 1.091887 234 88 12
1.0508999 0.20266294 1.0882645 234 88 12
1.0653189 0.20073095 1.0878992 234 88 12
1.0798631 0.19895017 1.0878979 234 88 12
1.0944139 0.19717732 1.0879158 234 88 12
1.1095548 0.19608204 1.0895724 234 88 12
1.0474997 0.22915716 1.1095922 234 88 12
1.0527176 0.21584763 1.0821742 234 88 12
1.0669013 0.2136274 1.0811266 234 88 12
1.0814413 0.21184179 1.0811138 234 88 12
1.0960028 0.21008144 1.0811613 234 88 12
1.1109246 0.20873767 1.0822057 234 88 12
1.1256849 0.20719819 1.0827837 234 88 12
1.0581975 0.23353457 1.0866758 234 88 12
1.0688449 0.22696184 1.0753868 234 88 12
1.083155 0.22489539 1.074712 234 88 12
1.0979407 0.2233979 1.075381 234 88 12
1.1124896 0.22161713 1.075381 234 88 12
1.1270806 0.21988478 1.0754958 234 88 12
1.0725898 0.24250248 1.0747736 234 88 12
1.0850155 0.2381283 1.0687213 234 88 12
1.0995238 0.2362985 1.0686067 234 88 12
1.1140727 0.23451772 1.0686067 234 88 12
1.1287578 0.23289493 1.0689772 234 88 12
1.0879885 0.25271711 1.0658487 234 88 12
1.1012571 0.24937935 1.0622494 234 88 12
1.1159058 0.24771425 1.062518 234 88 12
1.0803695 0.16658042 1.1164925 234 88 12
1.089226 0.17142572 1.1091622 234 88 12
1.0974994 0.17961028 1.1087919 234 88 12
1.1056939 0.18828975 1.1094395 234 88 12
1.0648874 0.17037997 1.1212696 234 88 12
1.0748668 0.16932032 1.1016556 234 88 12
1.0832187 0.17706586 1.1003791 234 88 12
1.0914716 0.18536624 1.1002522 234 88 12
1.0997039 0.19379073 1.1003791 234 88 12
1.107775 0.20328316 1.1026659 234 88 12
1.0418679 0.16114332 1.1164412 234 88 12
1.0506742 0.16699742 1.1110902 234 88 12
1.0594385 0.17289421 1.1058875 234 88 12
1.0688018 0.17529297 1.0935528 234 88 12
1.0771551 0.18304263 1.0922933 234 88 12
1.0854081 0.19134276 1.0921665 234 88 12
1.0937543 0.19906121 1.0908654 234 88 12
1.1022713 0.20562562 1.0872582 234 88 12
1.1105763 0.21346493 1.0862395 234 88 12
1.1188008 0.22182474 1.0862671 234 88 12
1.1269206 0.23095025 1.087809 234 88 12
1.0271317 0.16024545 1.1114383 234 88 12
1.0359511 0.16621237 1.1063092 234 88 12
1.0447459 0.17213625 1.101149 234 88 12
1.0534711 0.17825182 1.0964402 234 88 12
1.0623491 0.18337272 1.0897529 234 88 12
1.0710428 0.1892933 1.0847635 234 88 12
1.0793298 0.19740587 1.0842559 234 88 12
1.0878679 0.20397651 1.080657 234 88 12
1.0963064 0.2110327 1.0780672 234 88 12
1.104575 0.21909888 1.0775119 234 88 12
1.1127996 0.22744302 1.0775119 234 88 12
1.1209664 0.23619959 1.0783224 234 88 12
1.0208919 0.16684693 1.1044664 234 88 12
1.0297968 0.17245899 1.0986327 234 88 12
1.0385695 0.17854175 1.09383 234 88 12
1.0472887 0.18474028 1.0893172 234 88 12
1.0560192 0.19072346 1.0844176 234 88 12
1.0646027 0.19734652 1.0808629 234 88 12
1.0731993 0.20376635 1.0769396 234 88 12
1.0818092 0.20995891 1.0726056 234 88 12
1.0902549 0.21699749 1.0699975 234 88 12
1.0985247 0.22506258 1.0694437 234 88 12
1.1067492 0.23340674 1.0694437 234 88 12
1.1149144 0.24216488 1.0702521 234 88 12
1.0233934 0.17988215 1.0933609 234 88 12
1.0321138 0.18630467 1.0892664 234 88 12
1.0408398 0.19256455 1.0848877 234 88 12
1.0495019 0.19901083 1.0809333 234 88 12
1.0584216 0.20391989 1.0739416 234 88 12
1.066915 0.21097668 1.0713069 234 88 12
1.0755396 0.21717107 1.0669916 234 88 12
1.0841064 0.2235496 1.0630858 234 88 12
1.0924212 0.23135988 1.0620297 234 88 12
1.1006454 0.23971985 1.062057 234 88 12
1.1087317 0.24902083 1.0639098 234 88 12
1.0453564 0.16233358 1.096428 234 88 12
1.0378971 0.17073624 1.0947087 234 88 12
1.0301613 0.17821121 1.0951841 234 88 12
1.0219898 0.184331 1.098923 234 88 12
1.1153268 0.25079077 1.0910413 234 88 12
1.1017469 0.25032926 1.0907003 234 88 12
1.0892887 0.24867474 1.0936451 234 88 12
1.0865314 0.23652312 1.1254836 234 88 12
1.0728946 0.2359729 1.1253706 234 88 12
1.0597978 0.23482595 1.1268989 234 88 12
1.1290587 0.24029467 1.0831066 234 88 12
1.115298 0.24002536 1.0822457 234 88 12
1.1018416 0.23944029 1.0822457 234 88 12
1.0885339 0.23869529 1.0826812 234 88 12
1.0764657 0.23659676 1.0868003 234 88 12
1.0675277 0.23101002 1.1004056 234 88 12
1.0591758 0.2246431 1.1161194 234 88 12
1.0472745 0.2221417 1.1213119 234 88 12
1.1293869 0.22915585 1.0753409 234 88 12
1.1157272 0.22878431 1.0747652 234 88 12
1.1022716 0.22819929 1.0747652 234 88 12
1.088905 0.22751758 1.0750256 234 88 12
1.0762317 0.22607204 1.0773413 234 88 12
1.0671152 0.22065021 1.0903518 234 88 12
1.0553447 0.21809503 1.0956421 234 88 12
1.0465689 0.21207534 1.1102388 234 88 12
1.0354203 0.20865603 1.1178361 234 88 12
1.1300719 0.21764329 1.0685818 234 88 12
1.1162813 0.21741112 1.0676409 234 88 12
1.1027793 0.21687531 1.0675097 234 88 12
1.0894824 0.21611628 1.067973 234 88 12
1.0770817 0.21436024 1.0710894 234 88 12
1.067481 0.20943494 1.0826341 234 88 12
1.0553275 0.20729966 1.0867493 234 88 12
1.0460224 0.20184934 1.0996716 234 88 12
1.0344523 0.19891228 1.1059051 234 88 12
1.0231323 0.19561911 1.1130785 234 88 12
1.1172763 0.20556147 1.0617685 234 88 12
1.1036832 0.20511894 1.0613924 234 88 12
1.0907636 0.20393674 1.0629644 234 88 12
1.0790464 0.20139644 1.0681098 234 88 12
1.0682539 0.19776188 1.0761293 234 88 12
1.0564213 0.19524182 1.0812107 234 88 12
1.0464565 0.19050676 1.0921097 234 88 12
1.0346537 0.18782409 1.0976063 234 88 12
1.0232229 0.18464415 1.1044037 234 88 12
1.0119621 0.18119144 1.1119109 234 88 12
1.0960938 0.18723609 1.0696809 234 88 12
1.082743 0.18645357 1.0701873 234 88 12
1.0704839 0.18442139 1.0739453 234 88 12
1.0602211 0.18004751 1.0837904 234 88 12
1.0476282 0.17830254 1.086792 234 88 12
1.0358348 0.17558099 1.0923285 234 88 12
1.0241547 0.17266817 1.098357 234 88 12
1.0900648 0.16733244 1.0828197 234 88 12
1.0768083 0.16633901 1.0838541 234 88 12
1.0629225 0.16606852 1.0830276 234 88 12
1.0503612 0.16424422 1.0861975 234 88 12
1.0381622 0.1619554 1.0905586 234 88 12
1.0260407 0.15952902 1.0952692 234 88 12
1.1239859 0.25380328 1.077049 234 88 12
1.1089579 0.25368318 1.0752478 234 88 12
1.0945697 0.25370821 1.075623 234 88 12
1.1231421 0.23912059 1.0741911 234 88 12
1.1084731 0.23908243 1.0735841 234 88 12
1.0940226 0.23909105 1.0737212 234 88 12
1.0799494 0.23918341 1.0751905 234 88 12
1.0684675 0.23986004 1.0859551 234 88 12
1.0629518 0.24191318 1.1186187 234 88 12
1.1385702 0.22481322 1.0773208 234 88 12
1.1230321 0.22460642 1.0738184 234 88 12
1.1084321 0.22458428 1.0734434 234 88 12
1.0939833 0.22459258 1.0735841 234 88 12
1.0797955 0.22465545 1.0746486 234 88 12
1.066649 0.22493958 1.0794606 234 88 12
1.0544394 0.22543187 1.0877979 234 88 12
1.0464343 0.22684939 1.1118042 234 88 12
1.1231971 0.21014655 1.0743771 234 88 12
1.108513 0.21011031 1.0737212 234 88 12
1.0940604 0.21011756 1.0738525 234 88 12
1.0799844 0.2101983 1.075314 234 88 12
1.0668114 0.21045941 1.0800409 234 88 12
1.0539597 0.21079195 1.086061 234 88 12
1.042286 0.21137269 1.0965745 234 88 12
1.0303444 0.21191479 1.1063886 234 88 12
1.109086 0.19572106 1.0756872 234 88 12
1.0946748 0.19573657 1.0759888 234 88 12
1.0809617 0.19587895 1.0787575 234 88 12
1.0675498 0.19608058 1.0826778 234 88 12
1.0540593 0.1962731 1.0864215 234 88 12
1.0419444 0.19673076 1.0953202 234 88 12
1.0288122 0.19700658 1.1006835 234 88 12
1.0161829 0.19738804 1.1081007 234 88 12
1.1153256 0.18224274 1.0970974 234 88 12
1.0972883 0.18167023 1.0850749 234 88 12
1.0826757 0.181657 1.0847969 234 88 12
1.0685662 0.18172894 1.0863078 234 88 12
1.0548909 0.18187773 1.0894322 234 88 12
1.0421425 0.18219274 1.0960476 234 88 12
1.028801 0.18241152 1.100642 234 88 12
1.0156049 0.18266274 1.1059175 234 88 12
1.100548 0.16763315 1.0964088 234 88 12
1.0858235 0.16761033 1.0958881 234 88 12
1.0710762 0.16758335 1.0952721 234 88 12
1.0567482 0.16762212 1.0961571 234 88 12
1.0429316 0.16774423 1.0989444 234 88 12
1.029381 0.16791323 1.1028018 234 88 12
1.0158799 0.16809523 1.1069565 234 88 12
1.0590309 0.15337689 1.1044223 234 88 12
1.044456 0.15338165 1.1045413 234 88 12
1.0304198 0.15346678 1.1066694 234 88 12
1.0773822 0.16953403 1.091161 234 88 12
1.0782524 0.18098588 1.0880982 234 88 12
1.0798718 0.19193475 1.0786927 234 88 12
1.0811981 0.20301387 1.0717442 234 88 12
1.0819367 0.21445645 1.06976 234 88 12
1.0824345 0.22606148 1.0698162 234 88 12
1.0826133 0.23791023 1.0725833 234 88 12
1.0663537 0.17065521 1.0948457 234 88 12
1.0683243 0.18148839 1.0828186 234 88 12
1.0694444 0.1927705 1.0777695 234 88 12
1.0706339 0.20397109 1.0721357 234 88 12
1.0714941 0.21535778 1.0692078 234 88 12
1.0717525 0.22715451 1.0712484 234 88 12
1.0671625 0.24258131 1.1134393 234 88 12
1.0538855 0.16049656 1.1054626 234 88 12
1.0560112 0.17136396 1.09253 234 88 12
1.0572736 0.18264543 1.0864915 234 88 12
1.0590609 0.19356152 1.0762239 234 88 12
1.0597328 0.20512174 1.0748994 234 88 12
1.0601227 0.21686195 1.0758424 234 88 12
1.0567546 0.23124108 1.1070794 234 88 12
1.0437453 0.16105717 1.1010458 234 88 12
1.0454578 0.17217602 1.0916634 234 88 12
1.0466619 0.18351986 1.0862373 234 88 12
1.0474855 0.19505389 1.0837787 234 88 12
1.0476248 0.20700096 1.0866796 234 88 12
1.0332551 0.16179015 1.0992012 234 88 12
1.0346252 0.17312171 1.0926622 234 88 12
1.035616 0.18461971 1.0890033 234 88 12
1.036062 0.19641259 1.089501 234 88 12
1.0345788 0.20939784 1.104763 234 88 12
1.0236112 0.17414169 1.094663 234 88 12
1.0242751 0.18585499 1.0935372 234 88 12
1.023652 0.19830298 1.1020141 234 88 12
