ply
format ascii 1.0
element vertex 900
property float x
property float y
property float z
property uchar red
property uchar green
property uchar blue
end_header
0.46281356 0.091813214 1.746287 234 88 12
0.46656105 0.091813214 1.746287 234 88 12
0.47655329 0.092296883 1.7411048 234 88 12
0.45282745 0.086868942 1.7596555 234 88 12
0.46798825 0.089050397 1.7352881 234 88 12
0.47655329 0.088529661 1.7411048 234 88 12
0.40461445 0.074316941 1.862969 234 88 12
0.47859398 0.084457763 1.7446594 234 88 12
0.43865207 0.076987915 1.7900313 234 88 12
0.46252319 0.080520228 1.7469041 234 88 12
0.46179649 0.077280231 1.7404361 234 88 12
0.46643788 0.077424906 1.7385834 234 88 12
0.44697857 0.073598884 1.7875752 234 88 12
0.44713503 0.073037989 1.7947574 234 88 12
0.47686353 0.077278279 1.740461 234 88 12
0.46123025 0.072825827 1.7496523 234 88 12
0.4649649 0.072825827 1.7496523 234 88 12
0.44349176 0.066976309 1.7796605 234 88 12
0.45155573 0.064507961 1.7623806 234 88 12
0.46579465 0.066003293 1.7399507 234 88 12
0.4798165 0.066377774 1.7343334 234 88 12
0.46149167 0.061656781 1.7490966 234 88 12
0.46522844 0.061656781 1.7490966 234 88 12
0.46325895 0.058616441 1.7373022 234 88 12
0.46325895 0.054834735 1.7373022 234 88 12
0.46324655 0.054389272 1.7453666 234 88 12
0.47198117 0.054969694 1.734859 234 88 12
0.47956321 0.054969694 1.734859 234 88 12
0.46209586 0.049314577 1.7711054 234 88 12
0.46735048 0.046548851 1.7524741 234 88 12
0.48309666 0.043573424 1.7353892 234 88 12
-1.0882294 0.095931634 1.9497213 234 88 12
-1.0884776 0.090222746 1.9497213 234 88 12
-1.0913447 0.097973645 1.9476559 234 88 12
-1.0916756 0.090361789 1.9476559 234 88 12
-1.092172 0.078944005 1.9476559 234 88 12
-1.0994225 0.096418291 1.9424926 234 88 12
-1.0997535 0.088806435 1.9424926 234 88 12
-1.1001672 0.079291619 1.9424926 234 88 12
-1.1006906 0.10409968 1.9414599 234 88 12
-1.1086856 0.10444728 1.9362965 234 88 12
-1.1088511 0.10064135 1.9362965 234 88 12
-1.1093476 0.089223571 1.9362965 234 88 12
-1.109844 0.077805787 1.9362965 234 88 12
-1.1103674 0.10261384 1.9352638 234 88 12
-1.1104501 0.10071088 1.9352638 234 88 12
-1.0339055 0.09911859 1.8603134 234 88 12
-0.92920572 0.10448375 1.7581152 234 88 12
-1.0488967 0.093511768 1.8747406 234 88 12
-0.96767914 0.096396521 1.7954092 234 88 12
-0.78655332 0.10420284 1.6185482 234 88 12
-0.76086122 0.10197663 1.5933193 234 88 12
-1.1112776 0.081681237 1.9352638 234 88 12
-0.91007936 0.088264741 1.7387142 234 88 12
-1.111443 0.077875309 1.9352638 234 88 12
-0.9064281 0.11236664 1.7321066 234 88 12
-0.81958687 0.11625069 1.6466988 234 88 12
-0.81973571 0.11282667 1.6466988 234 88 12
-0.7571668 0.10621626 1.5847596 234 88 12
-0.76173478 0.098510452 1.5889308 234 88 12
-0.75133592 0.09145166 1.5783812 234 88 12
-0.75150049 0.087666243 1.5783812 234 88 12
-0.75757426 0.12527487 1.5808156 234 88 12
-0.8439734 0.11466856 1.6661172 234 88 12
-0.79788506 0.11478581 1.6203752 234 88 12
-0.76371706 0.11359984 1.5864091 234 88 12
-1.0729471 0.071108654 1.8915154 234 88 12
-0.81800151 0.12053706 1.6358197 234 88 12
-0.79535723 0.11889693 1.6131076 234 88 12
-0.76353967 0.11396635 1.5810807 234 88 12
-0.86505431 0.10370661 1.6821334 234 88 12
-0.84348202 0.098445393 1.6603358 234 88 12
-0.77574927 0.098406993 1.592612 234 88 12
-0.7611534 0.095356919 1.5778859 234 88 12
-0.75750905 0.091735423 1.5740846 234 88 12
-0.77126783 0.087502964 1.5876573 234 88 12
-1.1054602 0.072621129 1.9211501 234 88 12
-1.0897467 0.0709299 1.9053656 234 88 12
-0.78079844 0.12775944 1.5938529 234 88 12
-0.77625442 0.1244906 1.5891333 234 88 12
-0.77036089 0.11012676 1.5825685 234 88 12
-0.76386565 0.10679146 1.5758808 234 88 12
-0.77861512 0.10223471 1.5905362 234 88 12
-0.77044636 0.098953001 1.5821654 234 88 12
-0.77438951 0.087638684 1.5856413 234 88 12
-1.0849479 0.07111755 1.8976985 234 88 12
-0.76238143 0.12986194 1.5701321 234 88 12
-0.76594508 0.11827267 1.5732363 234 88 12
-0.76740897 0.1106599 1.5743858 234 88 12
-0.76510507 0.099507809 1.5715564 234 88 12
-1.1005189 0.07495518 1.9107622 234 88 12
-1.089769 0.073199309 1.8997785 234 88 12
-0.80420035 0.12287308 1.6072483 234 88 12
-0.78736913 0.12067728 1.5899496 234 88 12
-0.78347367 0.11731504 1.5858191 234 88 12
-0.77450055 0.11427024 1.5765135 234 88 12
-0.77057123 0.11079739 1.5723435 234 88 12
-1.1218392 0.091699444 1.9278116 234 88 12
-1.1220051 0.089789376 1.9278969 234 88 12
-0.77395308 0.095901027 1.5698544 234 88 12
-1.034217 -1.2187382 1.5616007 234 88 12
-1.0301763 -1.2227788 1.5616007 234 88 12
-1.031093 -1.2236954 1.5602051 234 88 12
-1.0297461 -1.2250422 1.5602051 234 88 12
-1.0477418 -1.210713 1.5574138 234 88 12
-1.0473115 -1.2129766 1.5560182 234 88 12
-1.0289418 -1.2350128 1.5532269 234 88 12
-1.0527551 -1.2130326 1.5518314 234 88 12
-1.0419801 -1.2238076 1.5518314 234 88 12
-1.0298584 -1.2359295 1.5518314 234 88 12
-1.0536717 -1.2139493 1.5504358 234 88 12
-1.0428967 -1.2247243 1.5504358 234 88 12
-1.0321218 -1.2354991 1.5504358 234 88 12
-0.79289681 -1.0783681 1.320856 234 88 12
-0.97673625 -1.1802741 1.4811249 234 88 12
-0.94808006 -1.1675979 1.4579424 234 88 12
-0.71412164 -1.0477294 1.2594879 234 88 12
-0.72801614 -1.0320889 1.2538315 234 88 12
-0.72265071 -1.0331631 1.251406 234 88 12
-0.85463589 -1.1091655 1.3689723 234 88 12
-0.91437685 -1.1446345 1.4227903 234 88 12
-0.73864961 -1.0575606 1.2742401 234 88 12
-0.78394383 -1.0921001 1.3193668 234 88 12
-0.727786 -1.0286758 1.247048 234 88 12
-0.71147662 -1.023681 1.2349118 234 88 12
-0.70587796 -1.0247378 1.2323246 234 88 12
-0.71486902 -1.0337676 1.2425903 234 88 12
-0.70423138 -1.0320954 1.2355779 234 88 12
-0.70156586 -1.034761 1.2355779 234 88 12
-0.75789279 -1.0685077 1.2868894 234 88 12
-0.70460248 -1.0484461 1.2451036 234 88 12
-0.76237845 -1.0854887 1.2991182 234 88 12
-0.7161082 -1.0229111 1.2322787 234 88 12
-0.69911361 -1.0383991 1.2314138 234 88 12
-0.70012999 -1.0429883 1.234632 234 88 12
-0.95794451 -1.1796205 1.4610827 234 88 12
-0.99733537 -1.2022141 1.4966677 234 88 12
-1.043009 -1.2356114 1.5420622 234 88 12
-0.74938071 -1.046284 1.2601863 234 88 12
-0.81522661 -1.0862709 1.3214171 234 88 12
-0.71529287 -1.0356411 1.2343068 234 88 12
-0.78916216 -1.0792983 1.3023031 234 88 12
-0.7392835 -1.0564628 1.2602335 234 88 12
-0.89634478 -1.1427026 1.4009981 234 88 12
-0.74745393 -1.0721736 1.2740502 234 88 12
-0.71682483 -1.0603656 1.2494978 234 88 12
-0.68949783 -1.050528 1.2279959 234 88 12
-0.71248901 -1.0659437 1.2502165 234 88 12
-0.73247224 -1.0377171 1.2406894 234 88 12
-0.75777644 -1.0555795 1.2658579 234 88 12
-0.71285641 -1.0351516 1.2277565 234 88 12
-0.73972321 -1.0575088 1.2564567 234 88 12
-0.71640861 -1.0571053 1.2426277 234 88 12
-0.69010866 -1.0557479 1.2265019 234 88 12
-1.047536 -1.234751 1.5392709 234 88 12
-0.7767092 -1.0704288 1.281113 234 88 12
-0.7276153 -1.0519357 1.2414002 234 88 12
-0.70991123 -1.0466428 1.2278876 234 88 12
-0.6932227 -1.050186 1.2201638 234 88 12
-0.69180959 -1.0535047 1.2212834 234 88 12
-0.68913037 -1.0561839 1.2212834 234 88 12
-1.0396042 -1.2313459 1.5301367 234 88 12
-1.0612367 -1.2243254 1.536248 234 88 12
-0.80531746 -1.0901508 1.3052595 234 88 12
-0.72212934 -1.049883 1.2321568 234 88 12
-0.70571554 -1.0453224 1.2197371 234 88 12
-0.72285759 -1.0698872 1.2444332 234 88 12
-0.71441227 -1.0587025 1.2279681 234 88 12
-0.99800664 -1.2188922 1.4927837 234 88 12
-1.016464 -1.2259346 1.5052924 234 88 12
-1.021893 -1.2268842 1.5064318 234 88 12
0.51316917 -0.98667276 1.4196391 234 88 12
0.49782982 -1.0110254 1.4634675 234 88 12
0.52368855 -0.98702765 1.4211421 234 88 12
0.51895744 -0.98764598 1.4139537 234 88 12
0.52274323 -0.98748142 1.4139537 234 88 12
0.39381659 -1.1283939 1.6666104 234 88 12
0.49434704 -1.0173746 1.4598974 234 88 12
0.51315725 -1.0047623 1.4376719 234 88 12
0.49061915 -1.0208378 1.4585013 234 88 12
0.50168347 -1.012706 1.4439517 234 88 12
0.51549226 -1.0017998 1.4243529 234 88 12
0.50078058 -1.0131454 1.4368634 234 88 12
0.32719058 -1.2027283 1.7862444 234 88 12
0.34169567 -1.1897866 1.7626158 234 88 12
0.51304632 -1.0033722 1.4110061 234 88 12
0.46503282 -1.0576127 1.5120329 234 88 12
0.49410436 -1.0306368 1.4622257 234 88 12
0.42409006 -1.1065623 1.603406 234 88 12
0.50332355 -1.024206 1.442677 234 88 12
0.50468421 -1.0223815 1.4312145 234 88 12
0.51846629 -1.0114152 1.4024371 234 88 12
0.52278113 -1.0106988 1.4013836 234 88 12
0.52471554 -1.0124017 1.4049436 234 88 12
0.51146924 -1.0251336 1.4126744 234 88 12
0.51933032 -1.0207984 1.4045674 234 88 12
0.52222139 -1.0211958 1.39714 234 88 12
-0.93583435 1.1938874 1.6464998 234 88 12
-0.9408294 1.1907872 1.6451881 234 88 12
-0.94216651 1.1894306 1.6451881 234 88 12
-0.93245322 1.2012526 1.6438764 234 88 12
-0.93308336 1.2045482 1.641253 234 88 12
-0.93709475 1.2004787 1.641253 234 88 12
-0.94110608 1.196409 1.641253 234 88 12
-0.94912875 1.1882696 1.641253 234 88 12
-0.95278662 1.1865261 1.6399413 234 88 12
-0.94039911 1.2010611 1.6386297 234 88 12
-0.95207971 1.1911783 1.637318 234 88 12
-0.9634068 1.1836215 1.6346946 234 88 12
-0.59657317 1.0482215 1.290957 234 88 12
-0.67463803 1.0811391 1.3616201 234 88 12
-0.62259424 1.0589118 1.3108135 234 88 12
-0.60403228 1.0485007 1.2910111 234 88 12
-0.94228965 1.2109481 1.6307595 234 88 12
-0.95164949 1.2014523 1.6307595 234 88 12
-0.9529866 1.2000957 1.6307595 234 88 12
-0.68527591 1.1049465 1.3805089 234 88 12
-0.62716866 1.0824828 1.3249555 234 88 12
-0.95865577 1.1893344 1.6273412 234 88 12
-0.59803712 1.0620972 1.2908789 234 88 12
-0.60316342 1.0602953 1.2931981 234 88 12
-0.84304464 1.1424447 1.515313 234 88 12
-0.62975508 1.059157 1.3108299 234 88 12
-0.94306946 1.1722929 1.6049232 234 88 12
-0.82458967 1.1564251 1.5085057 234 88 12
-0.76985514 1.1363863 1.4565477 234 88 12
-0.89527053 1.1747029 1.5703762 234 88 12
-0.61263478 1.0788704 1.307333 234 88 12
-0.59959471 1.0674596 1.2903914 234 88 12
-0.60222685 1.0647893 1.2903914 234 88 12
-0.9348821 1.1779345 1.6002293 234 88 12
-0.63740826 1.059603 1.3113663 234 88 12
-0.94291985 1.2142438 1.6281362 234 88 12
-0.63407522 1.0971522 1.3299332 234 88 12
-0.65527755 1.1006467 1.3472569 234 88 12
-0.81054473 1.145403 1.4873987 234 88 12
-0.84163284 1.1484747 1.511378 234 88 12
-0.89693409 1.1653593 1.561946 234 88 12
-0.65029866 1.0758327 1.3265659 234 88 12
-0.6145227 1.0595714 1.2901537 234 88 12
-0.61487544 1.0524423 1.2854625 234 88 12
-0.63589364 1.0989445 1.3275083 234 88 12
-0.60144591 1.0846695 1.2931452 234 88 12
-0.72969949 1.1226716 1.4105104 234 88 12
-0.63953334 1.0868332 1.3216313 234 88 12
-0.60714382 1.0689642 1.286217 234 88 12
-0.61976403 1.0697706 1.2957181 234 88 12
-0.64480633 1.0750539 1.3171427 234 88 12
-0.65461105 1.0751135 1.3241285 234 88 12
-0.61042029 1.055675 1.2792603 234 88 12
-0.58830303 1.0853064 1.2789677 234 88 12
-0.59135544 1.0827509 1.2793485 234 88 12
-0.63113183 1.092014 1.3142515 234 88 12
-0.68258291 1.1022952 1.3582025 234 88 12
-0.63839585 1.0842741 1.3139911 234 88 12
-0.64845508 1.0775068 1.3164096 234 88 12
-0.75970608 1.113655 1.4212335 234 88 12
-0.63046759 1.0963851 1.3117865 234 88 12
-0.61176139 1.0835799 1.289258 234 88 12
-0.63800573 1.0887375 1.3117865 234 88 12
-0.60465628 1.0706201 1.2749624 234 88 12
-0.61172342 1.06945 1.2792152 234 88 12
-0.69386727 1.0945332 1.3560659 234 88 12
-0.59914333 1.0878077 1.2778565 234 88 12
-0.65430713 1.0919822 1.3208107 234 88 12
-0.96325606 1.2026173 1.6209788 234 88 12
-0.59553158 1.0844582 1.2674421 234 88 12
-0.66156673 1.1021193 1.328369 234 88 12
-0.96922189 1.1973834 1.621568 234 88 12
-1.895609 0.31287754 1.1341861 234 88 12
-1.8962982 0.31488991 1.1325334 234 88 12
-1.8975456 0.30544814 1.1325334 234 88 12
-1.8998036 0.31727433 1.1259224 234 88 12
-1.9032372 0.29851481 1.1242697 234 88 12
-1.903178 0.30619225 1.122617 234 88 12
-1.9018714 0.32331145 1.1209643 234 88 12
-1.9028693 0.31575805 1.1209643 234 88 12
-1.9031188 0.31386968 1.1209643 234 88 12
-1.9043663 0.30442792 1.1209643 234 88 12
-1.9033091 0.31965876 1.1193116 234 88 12
-1.6758044 0.29889134 0.99264133 234 88 12
-1.6881738 0.31057084 0.99692363 234 88 12
-1.7344697 0.30792394 1.0219934 234 88 12
-1.4950273 0.30336416 0.89101696 234 88 12
-1.5480494 0.30036291 0.91973126 234 88 12
-1.5180961 0.29643133 0.90310431 234 88 12
-1.5050229 0.29259205 0.89569443 234 88 12
-1.5544301 0.31425712 0.92030293 234 88 12
-1.4738994 0.31092149 0.875723 234 88 12
-1.5155524 0.30732179 0.89839381 234 88 12
-1.4805648 0.30347684 0.87885123 234 88 12
-1.4835045 0.29234675 0.87966019 234 88 12
-1.7563894 0.29544541 1.030126 234 88 12
-1.4784616 0.28098601 0.87605745 234 88 12
-1.909618 0.29359385 1.1143533 234 88 12
-1.4774829 0.31863031 0.87395012 234 88 12
-1.4987524 0.31478652 0.88548344 234 88 12
-1.5155727 0.31112561 0.89455873 234 88 12
-1.4720186 0.3074092 0.87009108 234 88 12
-1.4848691 0.3037397 0.8769604 234 88 12
-1.8790672 0.3046928 1.0960132 234 88 12
-1.6951536 0.29970089 0.99348015 234 88 12
-1.582491 0.29457843 0.93051851 234 88 12
-1.4759389 0.28863141 0.8708908 234 88 12
-1.4931703 0.28166127 0.87995148 234 88 12
-1.4775805 0.3188929 0.86969894 234 88 12
-1.4948483 0.31505802 0.87909335 234 88 12
-1.4785688 0.3114121 0.86969894 234 88 12
-1.4966571 0.30772388 0.87956411 234 88 12
-1.4893469 0.29287803 0.87436754 234 88 12
-1.4960867 0.28193939 0.87733507 234 88 12
-1.8797561 0.29061303 1.0930192 234 88 12
-1.4961872 0.31896725 0.87588274 234 88 12
-1.5232621 0.30803123 0.89037609 234 88 12
-1.4827991 0.30418661 0.86720777 234 88 12
-1.5174233 0.29724422 0.88626844 234 88 12
-1.487929 0.29305619 0.86927706 234 88 12
-1.4852395 0.28176278 0.86691254 234 88 12
-1.9124342 0.29396594 1.1093951 234 88 12
-1.8962129 0.29139054 1.1000298 234 88 12
-1.5255008 0.30470705 0.88726217 234 88 12
-1.4892048 0.29701784 0.8659758 234 88 12
-1.9131235 0.29597831 1.1077424 234 88 12
-1.8971871 0.29151925 1.0983146 234 88 12
-1.8879366 0.28912318 1.0928568 234 88 12
-1.9103076 0.31310734 1.1052217 234 88 12
-1.5032337 0.31210712 0.87085968 234 88 12
-1.5708448 0.30522251 0.90924889 234 88 12
-1.5303985 0.3014116 0.88568079 234 88 12
-1.6750875 0.30005029 0.96885115 234 88 12
-1.5115548 0.29393324 0.87426698 234 88 12
-1.4879546 0.28972667 0.86036432 234 88 12
-1.5008445 0.28633967 0.8675254 234 88 12
-1.854298 0.28767186 1.0710522 234 88 12
-1.8390483 -1.0239985 0.73919547 234 88 12
-1.8361135 -1.0310587 0.73740137 234 88 12
-1.8410604 -1.0228953 0.73560727 234 88 12
-1.8366816 -1.0313528 0.73560727 234 88 12
-1.8349302 -1.0347358 0.73560727 234 88 12
-1.8474513 -1.0133346 0.73201907 234 88 12
-1.8456998 -1.0167177 0.73201907 234 88 12
-1.8497241 -1.0145113 0.72484273 234 88 12
-1.8470968 -1.0195858 0.72484273 234 88 12
-1.846221 -1.0212773 0.72484273 234 88 12
-1.8409665 -1.0314263 0.72484273 234 88 12
-1.7788516 -0.9966737 0.69050491 234 88 12
-1.7226641 -0.97859567 0.66578889 234 88 12
-1.5840147 -0.93145835 0.60430562 234 88 12
-1.494478 -0.90296257 0.5649808 234 88 12
-1.4378268 -0.86358285 0.53190434 234 88 12
-1.4413577 -0.86882979 0.53428501 234 88 12
-1.6438293 -0.94714653 0.62688911 234 88 12
-1.4406035 -0.87634152 0.53547955 234 88 12
-1.435349 -0.88221294 0.53463566 234 88 12
-1.6310776 -0.95442659 0.62346619 234 88 12
-1.7956345 -1.014104 0.69794536 234 88 12
-1.4270716 -0.85568452 0.52215022 234 88 12
-1.4656925 -0.87423438 0.54071939 234 88 12
-1.4800646 -0.88711429 0.54882109 234 88 12
-1.7575991 -0.99149352 0.67649502 234 88 12
-1.4528031 -0.88475817 0.53785425 234 88 12
-1.7760174 -1.002834 0.68584788 234 88 12
-1.578769 -0.93631446 0.59663576 234 88 12
-1.4748728 -0.90373254 0.5501349 234 88 12
-1.4102114 -0.88541466 0.52158511 234 88 12
-1.4708921 -0.90970463 0.54979271 234 88 12
-1.8034267 -1.0233915 0.70050013 234 88 12
-1.4684181 -0.87159675 0.53733283 234 88 12
-1.451844 -0.87304974 0.53117716 234 88 12
-1.4221004 -0.865991 0.51818329 234 88 12
-1.5350642 -0.91092622 0.57118422 234 88 12
-1.4678575 -0.89031911 0.54088593 234 88 12
-1.4295104 -0.88051164 0.52399111 234 88 12
-1.4167303 -0.87995636 0.51890701 234 88 12
-1.4103867 -0.88171732 0.51679373 234 88 12
-1.4134499 -0.88671535 0.51899225 234 88 12
-1.4555023 -0.86682314 0.52736324 234 88 12
-1.4290317 -0.86870426 0.51734108 234 88 12
-1.4204898 -0.88538909 0.51737899 234 88 12
-1.4265212 -0.89522642 0.52175182 234 88 12
-1.4475909 -0.86788255 0.52044529 234 88 12
-1.4682143 -0.87944871 0.53101289 234 88 12
-1.462332 -0.88868421 0.53057581 234 88 12
-1.4276366 -0.88021636 0.51505709 234 88 12
-1.8431922 -1.0368685 0.71228409 234 88 12
-1.8506157 -1.021558 0.70999908 234 88 12
-1.8191577 -1.0141995 0.69585156 234 88 12
-1.6114984 -0.94215173 0.5975861 234 88 12
-1.4174573 -0.87681043 0.50617647 234 88 12
-1.419139 -0.88531488 0.50861734 234 88 12
-1.4157845 -0.88810968 0.50785208 234 88 12
-1.7793941 -1.0226964 0.68166518 234 88 12
-1.8028001 -1.0302289 0.69035226 234 88 12
-1.8017956 -1.0320532 0.690328 234 88 12
-1.8483998 -1.030985 0.70690185 234 88 12
-1.7796912 -1.0252944 0.67757624 234 88 12
-1.813536 -1.0296538 0.69011462 234 88 12
-1.7918534 -1.0270225 0.68058932 234 88 12
-0.7989552 -1.9678098 0.70869595 234 88 12
-0.79248339 -1.9718809 0.70690185 234 88 12
-0.81645858 -1.9601886 0.70510775 234 88 12
-0.81476706 -1.9610643 0.70510775 234 88 12
-0.79446906 -1.9715734 0.70510775 234 88 12
-0.8187384 -1.9604492 0.70151955 234 88 12
-0.81535542 -1.9622008 0.70151955 234 88 12
-0.8035149 -1.968331 0.70151955 234 88 12
-0.79674888 -1.9718339 0.70151955 234 88 12
-0.79167438 -1.9744612 0.70151955 234 88 12
-0.58330512 -1.7615417 0.54910386 234 88 12
-0.52170241 -1.7120867 0.51313269 234 88 12
-0.8049857 -1.9711719 0.69254911 234 88 12
-0.49084041 -1.6634314 0.48047665 234 88 12
-0.52727735 -1.7004606 0.50542498 234 88 12
-0.69098788 -1.8494222 0.60974634 234 88 12
-0.51495552 -1.6982373 0.50158513 234 88 12
-0.48313877 -1.6748497 0.48379347 234 88 12
-0.55375916 -1.7403545 0.52935135 234 88 12
-0.51376975 -1.7100365 0.50657767 234 88 12
-0.48746377 -1.6918371 0.49237522 234 88 12
-0.81035441 -1.9691128 0.69075507 234 88 12
-0.80527991 -1.97174 0.69075507 234 88 12
-0.80358839 -1.9726158 0.69075507 234 88 12
-0.49798635 -1.6658301 0.47913644 234 88 12
-0.48120719 -1.660048 0.47261757 234 88 12
-0.66763049 -1.8292232 0.59232056 234 88 12
-0.46671611 -1.6565402 0.46765706 234 88 12
-0.45856246 -1.654073 0.46464363 234 88 12
-0.50282913 -1.7097372 0.50004756 234 88 12
-0.50071001 -1.6688679 0.4770852 234 88 12
-0.50922078 -1.6810601 0.48463288 234 88 12
-0.47046241 -1.6557875 0.46401614 234 88 12
-0.49259508 -1.6798052 0.48014814 234 88 12
-0.75776058 -1.9173772 0.65060437 234 88 12
-0.45311806 -1.6592588 0.46151131 234 88 12
-0.45245627 -1.6632807 0.46318436 234 88 12
-0.52243638 -1.7268631 0.50857186 234 88 12
-0.47007725 -1.6513659 0.45770788 234 88 12
-0.56838095 -1.7466695 0.52480239 234 88 12
-0.50112671 -1.6922606 0.48385292 234 88 12
-0.60138649 -1.7830085 0.54932141 234 88 12
-0.73872554 -1.9069451 0.63883126 234 88 12
-0.49880716 -1.7075188 0.4903042 234 88 12
-0.53753358 -1.7441362 0.51631033 234 88 12
-0.46509156 -1.6879214 0.47329953 234 88 12
-0.8022669 -1.9702332 0.68297338 234 88 12
-0.49037352 -1.6653709 0.46484193 234 88 12
-0.53240806 -1.7115281 0.49629843 234 88 12
-0.51730025 -1.706871 0.49051896 234 88 12
-0.46493274 -1.6660558 0.45905879 234 88 12
-0.44798738 -1.6607491 0.4525378 234 88 12
-0.45944813 -1.6749737 0.46187389 234 88 12
-0.44095236 -1.6685169 0.45444843 234 88 12
-0.48377693 -1.6693249 0.46096623 234 88 12
-0.49458003 -1.6877611 0.47219679 234 88 12
-0.45689178 -1.6597599 0.44999033 234 88 12
-0.44153526 -1.6696427 0.45089334 234 88 12
-0.82205206 -1.9670773 0.67984802 234 88 12
-0.46003261 -1.6676704 0.45025125 234 88 12
-0.46755272 -1.6830347 0.45933336 234 88 12
-0.45637539 -1.678128 0.45429021 234 88 12
-0.48382825 -1.7052982 0.47380704 234 88 12
-0.80315852 -1.9719554 0.67753536 234 88 12
-0.82081002 -1.9686581 0.67815608 234 88 12
-0.46718973 -1.6743923 0.45100507 234 88 12
-0.45289436 -1.6668049 0.4438726 234 88 12
-0.45765993 -1.679829 0.45124429 234 88 12
-0.80903059 -1.9748416 0.67819643 234 88 12
-0.45768562 -1.6669251 0.44088155 234 88 12
-0.81638491 -1.9724749 0.67460823 234 88 12
-0.7683596 -1.9522049 0.65040535 234 88 12
-0.75000471 -1.9425529 0.6410445 234 88 12
-0.77755231 -1.9575272 0.65302896 234 88 12
-0.79665923 -1.9732556 0.66346049 234 88 12
-0.74705148 -1.9409897 0.63464189 234 88 12
-0.76884091 -1.9561026 0.64542562 234 88 12
-1.6014802 1.4230448 0.64420873 234 88 12
-1.6072061 1.4154345 0.64420873 234 88 12
-1.6094965 1.4123904 0.64420873 234 88 12
-1.6086013 1.4164842 0.63876778 234 88 12
-1.6182278 1.4046576 0.63695407 234 88 12
-1.6209834 1.4019635 0.63514042 234 88 12
-1.6031255 1.4266664 0.63332677 234 88 12
-1.6088514 1.4190561 0.63332677 234 88 12
-1.6122869 1.4144899 0.63332677 234 88 12
-1.6203033 1.4038354 0.63332677 234 88 12
-1.6040556 1.4273661 0.62969941 234 88 12
-1.6200882 1.4060574 0.62969941 234 88 12
-1.4616125 1.3596405 0.55815846 234 88 12
-1.5277447 1.379196 0.58719677 234 88 12
-1.4180093 1.3397746 0.53712827 234 88 12
-1.268885 1.2859297 0.46901399 234 88 12
-1.2551026 1.2742801 0.46091536 234 88 12
-1.2811257 1.2800349 0.47181761 234 88 12
-1.1814415 1.2407987 0.42540938 234 88 12
-1.3557751 1.3309451 0.50914735 234 88 12
-1.3888987 1.3387692 0.52330035 234 88 12
-1.4094014 1.3426907 0.53180915 234 88 12
-1.3472558 1.3191781 0.50284451 234 88 12
-1.1709229 1.2565405 0.42177269 234 88 12
-1.1906289 1.2520134 0.42768627 234 88 12
-1.209192 1.2548337 0.43519086 234 88 12
-1.2220892 1.2918363 0.44612923 234 88 12
-1.3886243 1.3418037 0.52092832 234 88 12
-1.1648399 1.2662193 0.41808897 234 88 12
-1.1734214 1.2652804 0.42097458 234 88 12
-1.2128664 1.2746835 0.4380208 234 88 12
-1.1733146 1.2539444 0.41781017 234 88 12
-1.5589863 1.3835672 0.59486789 234 88 12
-1.2077088 1.25836 0.43163058 234 88 12
-1.2170938 1.2506188 0.43293527 234 88 12
-1.6047708 1.430288 0.62244475 234 88 12
-1.6070611 1.4272438 0.62244475 234 88 12
-1.6093515 1.4241997 0.62244475 234 88 12
-1.1779304 1.2782351 0.42214957 234 88 12
-1.1722764 1.2727461 0.41852894 234 88 12
-1.2350727 1.2859403 0.4454414 234 88 12
-1.1777395 1.2596041 0.41689146 234 88 12
-1.2313529 1.274134 0.44077754 234 88 12
-1.3935487 1.3237221 0.51460749 234 88 12
-1.1802027 1.2452809 0.41381496 234 88 12
-1.1826422 1.2764593 0.41935202 234 88 12
-1.1865509 1.2666695 0.41806 234 88 12
-1.2026507 1.2683733 0.42455578 234 88 12
-1.1977441 1.2593242 0.42017776 234 88 12
-1.2363644 1.2655092 0.43634963 234 88 12
-1.2112813 1.2529327 0.42343959 234 88 12
-1.2014254 1.2456374 0.41770512 234 88 12
-1.1597815 1.2732977 0.4057703 234 88 12
-1.1835457 1.2771391 0.41582879 234 88 12
-1.2153189 1.2766047 0.42766717 234 88 12
-1.2035428 1.2690444 0.42107674 234 88 12
-1.1787609 1.2569388 0.40828776 234 88 12
-1.2604799 1.2813174 0.44604746 234 88 12
-1.3928875 1.3240578 0.50814867 234 88 12
-1.1842811 1.2474586 0.40767923 234 88 12
-1.2171757 1.2553931 0.42234537 234 88 12
-1.6116472 1.3944113 0.61067635 234 88 12
-1.5924647 1.3853732 0.60087138 234 88 12
-1.2145082 1.2838634 0.42549184 234 88 12
-1.2453681 1.2904007 0.43912452 234 88 12
-1.1936634 1.2697911 0.41351506 234 88 12
-1.2252058 1.2766919 0.42751199 234 88 12
-1.3632885 1.3170556 0.49169734 234 88 12
-1.6256341 1.4054626 0.6170038 234 88 12
-1.6279244 1.4024185 0.6170038 234 88 12
-1.6082352 1.3933669 0.60690665 234 88 12
-1.5780371 1.3802915 0.59165174 234 88 12
-1.5582923 1.3952655 0.5860517 234 88 12
-1.6194581 1.4131235 0.6147514 234 88 12
-1.6195062 1.4154348 0.61124521 234 88 12
-1.6211294 1.414066 0.61147779 234 88 12
-2.2291727 -0.098849379 0.01205815 234 88 12
-2.2293518 -0.096951589 0.010154846 234 88 12
-2.2290378 -0.10265724 0.010154846 234 88 12
-2.2285585 -0.11407673 0.0063482383 234 88 12
-2.2299938 -0.08935634 0.0044449344 234 88 12
-2.2303216 -0.087466747 -0.0012649772 234 88 12
-2.2301123 -0.091270506 -0.0012649772 234 88 12
-2.2294841 -0.10268181 -0.0012649772 234 88 12
-2.2288561 -0.11409311 -0.0012649772 234 88 12
-1.8726293 -0.061980303 -0.085974477 234 88 12
-1.9345871 -0.071436919 -0.071904182 234 88 12
-1.7963676 -0.061280664 -0.1031575 234 88 12
-1.8022888 -0.065411106 -0.10177285 234 88 12
-1.7959747 -0.068419501 -0.1031575 234 88 12
-2.0801854 -0.095872112 -0.038812131 234 88 12
-1.8449231 -0.079511181 -0.091996685 234 88 12
-1.7546657 -0.042275939 -0.11655389 234 88 12
-1.7945783 -0.050310131 -0.10730987 234 88 12
-1.7506624 -0.049372066 -0.11738145 234 88 12
-1.739508 -0.052030731 -0.11990306 234 88 12
-1.7498844 -0.056832075 -0.11746565 234 88 12
-2.1511366 -0.097399674 -0.025039736 234 88 12
-1.743356 -0.063792624 -0.11887331 234 88 12
-2.1135433 -0.098670684 -0.033635207 234 88 12
-1.7459761 -0.075357161 -0.11812734 234 88 12
-1.7434952 -0.078952491 -0.11865029 234 88 12
-1.7675658 -0.062216222 -0.11706389 234 88 12
-1.7581116 -0.065084055 -0.11922937 234 88 12
-1.7766811 -0.070376977 -0.11483601 234 88 12
-1.7718321 -0.081001401 -0.11582929 234 88 12
-1.7396431 -0.082469396 -0.12330845 234 88 12
-1.7922188 -0.046431314 -0.11514927 234 88 12
-1.7570025 -0.046266899 -0.12349079 234 88 12
-1.7446117 -0.0525252 -0.12634338 234 88 12
-1.742515 -0.067503296 -0.12664469 234 88 12
-1.7423072 -0.071279287 -0.12664469 234 88 12
-1.7500743 -0.075663447 -0.12474825 234 88 12
-1.7595217 -0.080107667 -0.12245314 234 88 12
-2.2066793 -0.11447719 -0.016116396 234 88 12
-1.7529844 -0.042064581 -0.12827644 234 88 12
-1.7569431 -0.049999896 -0.12721854 234 88 12
-1.7766559 -0.055706121 -0.12239862 234 88 12
-1.7461743 -0.060243435 -0.12967461 234 88 12
-1.7606697 -0.080188259 -0.12592177 234 88 12
-2.2291977 -0.11601956 -0.0126848 234 88 12
-2.164655 -0.089963757 -0.030740621 234 88 12
-1.7852108 -0.0529144 -0.12403012 234 88 12
-1.8293051 -0.064401343 -0.11309253 234 88 12
-1.7873603 -0.067639686 -0.12330627 234 88 12
-1.786845 -0.071218334 -0.12338413 234 88 12
-2.2294803 -0.096910998 -0.016719583 234 88 12
-2.2300794 -0.10271457 -0.016491408 234 88 12
-1.7459892 -0.071563222 -0.13717298 234 88 12
-2.1858964 -0.11720091 -0.029359221 234 88 12
-2.160064 -0.1178042 -0.035868116 234 88 12
-2.2231352 -0.11366463 -0.023908541 234 88 12
-2.1646948 -0.11375203 -0.039104041 234 88 12
-1.4711192 -1.6637216 -0.26621205 234 88 12
-1.4684254 -1.6664153 -0.26621205 234 88 12
-1.4829531 -1.6513119 -0.2719118 234 88 12
-1.4802594 -1.6540056 -0.2719118 234 88 12
-1.4721781 -1.6620868 -0.2719118 234 88 12
-1.4681375 -1.6661274 -0.2719118 234 88 12
-1.4600563 -1.6742086 -0.2719118 234 88 12
-1.1528025 -1.4614828 -0.34427395 234 88 12
-1.3817606 -1.6015816 -0.29957464 234 88 12
-1.2048975 -1.4996536 -0.33334115 234 88 12
-1.1047451 -1.4443549 -0.35216904 234 88 12
-1.0490996 -1.3820779 -0.3701632 234 88 12
-1.116966 -1.4281285 -0.35606804 234 88 12
-1.0345004 -1.3860689 -0.37147579 234 88 12
-1.0812199 -1.4224702 -0.36119109 234 88 12
-1.4742962 -1.6588174 -0.28331134 234 88 12
-1.1164187 -1.4511273 -0.35329008 234 88 12
-1.4045212 -1.6249344 -0.29613712 234 88 12
-1.1390854 -1.4754567 -0.34747517 234 88 12
-1.4675618 -1.6655517 -0.28331134 234 88 12
-1.4608275 -1.672286 -0.28331134 234 88 12
-1.0437537 -1.3786907 -0.37497628 234 88 12
-1.0863283 -1.409212 -0.36574101 234 88 12
-1.0507953 -1.3958602 -0.37191734 234 88 12
-1.070287 -1.4158826 -0.36692497 234 88 12
-1.4525644 -1.6459318 -0.28956074 234 88 12
-1.0482162 -1.4110626 -0.37032244 234 88 12
-1.3212354 -1.5740041 -0.31524113 234 88 12
-1.0485457 -1.419486 -0.36921656 234 88 12
-1.0728353 -1.4374671 -0.3638759 234 88 12
-1.0204709 -1.4116802 -0.37374991 234 88 12
-1.0691298 -1.4432421 -0.36361444 234 88 12
-1.0595914 -1.3884411 -0.37540707 234 88 12
-1.0699555 -1.4032412 -0.37216201 234 88 12
-1.0801712 -1.41765 -0.36898649 234 88 12
-1.0372941 -1.3961458 -0.37728885 234 88 12
-1.0381448 -1.405079 -0.3760272 234 88 12
-1.0286055 -1.4037049 -0.37743452 234 88 12
-1.0179461 -1.4017489 -0.37906134 234 88 12
-1.0176926 -1.4100207 -0.37802735 234 88 12
-1.4469315 -1.6581402 -0.29067788 234 88 12
-1.0901375 -1.4154911 -0.3714911 234 88 12
-1.0638191 -1.4036003 -0.37651816 234 88 12
-1.1380459 -1.4523523 -0.3603383 234 88 12
-1.0257556 -1.4061756 -0.38118717 234 88 12
-1.0770106 -1.4074057 -0.37784681 234 88 12
-1.1116673 -1.432512 -0.3698281 234 88 12
-1.1537043 -1.4616948 -0.36027223 234 88 12
-1.0809553 -1.4220215 -0.37535647 234 88 12
-1.0555806 -1.4110357 -0.38023514 234 88 12
-1.0137993 -1.4076451 -0.38629603 234 88 12
-1.4547166 -1.6602527 -0.29324254 234 88 12
-1.3903389 -1.6064152 -0.31133121 234 88 12
-1.2085284 -1.5014255 -0.35056031 234 88 12
-1.0290281 -1.3994967 -0.38905475 234 88 12
-1.0349407 -1.4071546 -0.38719851 234 88 12
-1.0199622 -1.4068794 -0.38928494 234 88 12
-1.467082 -1.665072 -0.29281095 234 88 12
-1.4777533 -1.6541964 -0.29471263 234 88 12
-1.4721704 -1.6594692 -0.29475582 234 88 12
-1.4656392 -1.6663228 -0.29471087 234 88 12
-1.4602518 -1.6717104 -0.29471087 234 88 12
-1.4506199 -1.6620945 -0.30123836 234 88 12
-1.4236381 -1.6493927 -0.30697641 234 88 12
-1.4451605 -1.6590219 -0.30441499 234 88 12
-1.3989657 -1.6381315 -0.31428972 234 88 12
-1.4141228 -1.6509514 -0.3101716 234 88 12
-1.4051319 -1.6391145 -0.31533512 234 88 12
-1.3933448 -1.6373866 -0.31735966 234 88 12
-1.4002825 -1.643471 -0.315409 234 88 12
-1.9374973 1.0183225 -0.4643513 234 88 12
-1.9364505 1.0199403 -0.46623367 234 88 12
-1.9372315 1.018203 -0.46623367 234 88 12
-1.9419179 1.0077795 -0.46623367 234 88 12
-1.9369658 1.0180835 -0.46811602 234 88 12
-1.9452758 0.99675858 -0.47564542 234 88 12
-1.9317321 1.0261725 -0.4775278 234 88 12
-1.9348563 1.0192235 -0.4775278 234 88 12
-1.9371995 1.0140117 -0.4775278 234 88 12
-1.9403237 1.0070627 -0.4775278 234 88 12
-1.5698537 0.92341787 -0.52086997 234 88 12
-1.9450101 0.99663913 -0.4775278 234 88 12
-1.560897 0.94108677 -0.52416271 234 88 12
-1.5225561 0.93066311 -0.52887338 234 88 12
-1.461087 0.91553855 -0.53634757 234 88 12
-1.486562 0.91331977 -0.53366774 234 88 12
-1.4433964 0.90105462 -0.53899729 234 88 12
-1.5803103 0.92545408 -0.52280682 234 88 12
-1.8061354 0.96943849 -0.49591818 234 88 12
-1.5271699 0.90767062 -0.52950001 234 88 12
-1.4399211 0.88533455 -0.54015154 234 88 12
-1.4414688 0.88189209 -0.54015154 234 88 12
-1.4511032 0.92442012 -0.54056811 234 88 12
-1.4250523 0.91600424 -0.5439319 234 88 12
-1.4274187 0.91271365 -0.54383194 234 88 12
-1.4453127 0.91239429 -0.5418306 234 88 12
-1.4385173 0.90738904 -0.54285049 234 88 12
-1.5247509 0.92076468 -0.53244984 234 88 12
-1.8084806 0.97462946 -0.49772954 234 88 12
-1.6903985 0.94797158 -0.51239431 234 88 12
-1.4351764 0.88418424 -0.54440343 234 88 12
-1.5295157 0.90116757 -0.532906 234 88 12
-1.4193325 0.91855419 -0.5481205 234 88 12
-1.4468161 0.91621244 -0.54505426 234 88 12
-1.4625307 0.91193193 -0.54345447 234 88 12
-1.4304664 0.90194196 -0.54769534 234 88 12
-1.4409174 0.90029562 -0.54656875 234 88 12
-1.4409719 0.88531703 -0.54734367 234 88 12
-1.4346683 0.88015187 -0.54834437 234 88 12
-1.4679012 0.90562075 -0.54669005 234 88 12
-1.4842831 0.90536177 -0.54475009 234 88 12
-1.7617484 0.95989871 -0.5087325 234 88 12
-1.689635 0.96707571 -0.51966226 234 88 12
-1.4359111 0.91758442 -0.5534761 234 88 12
-1.4786044 0.91480654 -0.54839814 234 88 12
-1.519938 0.91602015 -0.54326689 234 88 12
-1.5508564 0.91894841 -0.53931731 234 88 12
-1.6263958 0.93144488 -0.52937341 234 88 12
-1.4647988 0.89391482 -0.5512405 234 88 12
-1.9340432 1.0167695 -0.48882189 234 88 12
-1.8675122 0.99698406 -0.49830881 234 88 12
-1.8683971 0.99501562 -0.49830881 234 88 12
-1.4489907 0.91256386 -0.55572295 234 88 12
-1.9395106 1.0046088 -0.48882189 234 88 12
-1.8373976 0.98242158 -0.50292003 234 88 12
-1.8277158 0.97819197 -0.50437695 234 88 12
-1.4340544 0.89476871 -0.55860788 234 88 12
-1.944978 0.99244791 -0.48882189 234 88 12
-1.9366351 1.0077667 -0.49085087 234 88 12
-1.912598 0.98313957 -0.49733853 234 88 12
-1.9209857 0.98496181 -0.4980464 234 88 12
-1.8831947 0.97432023 -0.50381583 234 88 12
-1.9281825 0.98848939 -0.49875131 234 88 12
-1.9081922 0.98202157 -0.50192839 234 88 12
-1.8621631 -0.75291234 -0.98535514 234 88 12
-1.862178 -0.75088197 -0.98712534 234 88 12
-1.8588141 -0.75979191 -0.98712534 234 88 12
-1.8574834 -0.76132554 -0.98889548 234 88 12
-1.8655714 -0.73791116 -0.99066567 234 88 12
-1.857513 -0.75726473 -0.99243581 234 88 12
-1.8629395 -0.73691756 -0.99774635 234 88 12
-1.3710037 -0.59524417 -0.98794699 234 88 12
-1.355989 -0.59467113 -0.98767334 234 88 12
-1.5092367 -0.6433987 -0.99075717 234 88 12
-1.3534031 -0.60175973 -0.98767495 234 88 12
-1.3773682 -0.61249429 -0.98817837 234 88 12
-1.8525 -0.74975306 -0.9976458 234 88 12
-1.4006685 -0.62655985 -0.9886924 234 88 12
-1.3691665 -0.62165356 -0.98809314 234 88 12
-1.7415744 -0.72581142 -0.99549049 234 88 12
-1.5586448 -0.67960501 -0.99189049 234 88 12
-1.8541936 -0.7600835 -0.99774635 234 88 12
-1.3573519 -0.58711368 -0.99118245 234 88 12
-1.3686336 -0.59443319 -0.99139094 234 88 12
-1.4033675 -0.60860491 -0.99198598 234 88 12
-1.4230137 -0.61808616 -0.99233079 234 88 12
-1.4862535 -0.64677739 -0.99343044 234 88 12
-1.3894364 -0.62332219 -0.9918617 234 88 12
-1.3476676 -0.6156432 -0.99119854 234 88 12
-1.3614441 -0.62324554 -0.99144566 234 88 12
-1.3469228 -0.6232118 -0.99122995 234 88 12
-1.3568761 -0.629691 -0.99141401 234 88 12
-1.3850853 -0.60688555 -0.99512196 234 88 12
-1.3701687 -0.63679677 -0.99507946 234 88 12
-1.3873063 -0.64492077 -0.99531651 234 88 12
-1.8609656 -0.73617232 -1.0030568 234 88 12
-1.3858762 -0.59941387 -0.99851251 234 88 12
-1.364327 -0.59682673 -0.99831814 234 88 12
-1.3924072 -0.60892159 -0.99859977 234 88 12
-1.405847 -0.61656207 -0.99874061 234 88 12
-1.3505204 -0.60448855 -0.99822396 234 88 12
-1.3638664 -0.61597764 -0.99837655 234 88 12
-1.3556991 -0.61757022 -0.99831128 234 88 12
-1.3411551 -0.61749381 -0.99818552 234 88 12
-1.3953826 -0.63949603 -0.99872506 234 88 12
-1.3882375 -0.64131832 -0.99866933 234 88 12
-1.8132958 -0.75332594 -1.0027014 234 88 12
-1.3741517 -0.59963691 -1.0018535 234 88 12
-1.3995154 -0.61089689 -1.0020173 234 88 12
-1.3812705 -0.60935086 -1.0019132 234 88 12
-1.3693603 -0.60974079 -1.0018481 234 88 12
-1.4635617 -0.6400668 -1.0024325 234 88 12
-1.3437371 -0.61026245 -1.0017074 234 88 12
-1.3902732 -0.62690192 -1.0019996 234 88 12
-1.3500056 -0.62359828 -1.00177 234 88 12
-1.3393768 -0.62465382 -1.0017134 234 88 12
-1.8576313 -0.74102151 -1.0065972 234 88 12
-1.7874528 -0.72442347 -1.0064105 234 88 12
-1.7867073 -0.72414201 -1.0084162 234 88 12
-1.8549536 -0.74611866 -1.0083673 234 88 12
-1.8541135 -0.74785292 -1.0083674 234 88 12
-1.849573 -0.76037508 -1.0083673 234 88 12
-1.846224 -0.76725465 -1.0101374 234 88 12
-1.8331019 -0.75996369 -1.0120101 234 88 12
-1.8076046 -0.7556355 -1.0121939 234 88 12
-1.7973223 -0.75521052 -1.0122647 234 88 12
-1.8167952 -0.76202166 -1.0121154 234 88 12
-1.8233545 -0.75742215 -1.0139244 234 88 12
-1.7845756 -0.74982494 -1.0143338 234 88 12
-1.7716712 -0.74883914 -1.0144644 234 88 12
-1.7761475 -0.74763572 -1.0164169 234 88 12
-0.48714671 -1.9617471 -0.98712534 234 88 12
-0.48536471 -1.9624199 -0.98712534 234 88 12
-0.097825527 -1.5560083 -0.98439533 234 88 12
-0.086478963 -1.5493392 -0.98416424 234 88 12
-0.084815517 -1.5525644 -0.98421907 234 88 12
-0.39372906 -1.8741581 -0.9934637 234 88 12
-0.10915227 -1.5619725 -0.98808092 234 88 12
-0.099518918 -1.5569526 -0.98792535 234 88 12
-0.11176848 -1.5743074 -0.98832023 234 88 12
-0.089084893 -1.5560855 -0.98783898 234 88 12
-0.076721646 -1.5533699 -0.98770636 234 88 12
-0.10888135 -1.5902126 -0.98858643 234 88 12
-0.13436909 -1.587224 -0.9920575 234 88 12
-0.1275893 -1.5849675 -0.99198598 234 88 12
-0.1181261 -1.594047 -0.99206775 234 88 12
-0.2399801 -1.7200197 -0.9946208 234 88 12
-0.08924251 -1.5398407 -0.99464476 234 88 12
-0.11009976 -1.5758184 -0.99515927 234 88 12
-0.10129094 -1.5716565 -0.99507141 234 88 12
-0.10034592 -1.5754461 -0.9951117 234 88 12
-0.23531102 -1.7147173 -0.99734348 234 88 12
-0.085203417 -1.5398701 -0.9981662 234 88 12
-0.094242856 -1.5540696 -0.99831814 234 88 12
-0.12083438 -1.5859482 -0.99867976 234 88 12
-0.1383224 -1.6082714 -0.99892932 234 88 12
-0.16972257 -1.644313 -0.99934256 234 88 12
-0.28075242 -1.7515079 -1.0032748 234 88 12
-0.48085245 -1.9562654 -1.0048251 234 88 12
-0.25781506 -1.7358986 -1.0031406 234 88 12
-0.48036578 -1.9549593 -1.0083675 234 88 12
-1.0515723 1.8015823 -0.84189826 234 88 12
-1.0512223 1.8011173 -0.84371191 234 88 12
-1.0542665 1.7988269 -0.84371191 234 88 12
-0.79420197 1.6616106 -0.85392976 234 88 12
-0.65223759 1.5773332 -0.86094439 234 88 12
-0.57036757 1.5285257 -0.86343938 234 88 12
-0.98659974 1.7563595 -0.85121375 234 88 12
-0.56001967 1.5149164 -0.86392283 234 88 12
-0.56807619 1.511513 -0.86386281 234 88 12
-0.54561561 1.5261214 -0.86747813 234 88 12
-0.6327216 1.5697261 -0.86471623 234 88 12
-0.60207945 1.549287 -0.86581689 234 88 12
-0.62769508 1.5597168 -0.86506522 234 88 12
-0.63462782 1.559914 -0.86492825 234 88 12
-0.57960421 1.5214723 -0.8669486 234 88 12
-0.55346489 1.5298318 -0.87076455 234 88 12
-0.5809021 1.5371264 -0.86998212 234 88 12
-0.61499786 1.5521853 -0.86884189 234 88 12
-0.77824044 1.6395252 -0.86295605 234 88 12
-0.57060814 1.5385959 -0.87362152 234 88 12
-0.54991615 1.523466 -0.87456399 234 88 12
-0.87724251 1.6943828 -0.86175549 234 88 12
-0.6199652 1.5470232 -0.87222266 234 88 12
-0.5622254 1.5105902 -0.87467498 234 88 12
-0.56804842 1.5099186 -0.87456107 234 88 12
-0.60021174 1.554149 -0.87581456 234 88 12
-0.64183724 1.5696563 -0.87425101 234 88 12
-0.66887718 1.5810754 -0.87319034 234 88 12
-0.61311573 1.5464114 -0.87574875 234 88 12
-0.58869392 1.5289243 -0.87694615 234 88 12
-1.0484231 1.7973967 -0.85822123 234 88 12
-1.0545113 1.7928159 -0.85822123 234 88 12
-0.55926114 1.5112987 -0.88535583 234 88 12
-1.0477232 1.7964666 -0.86184859 234 88 12
-1.0538114 1.7918859 -0.86184859 234 88 12
-1.0375917 1.7822413 -0.86642921 234 88 12
-1.0081991 1.763555 -0.86833662 234 88 12
-1.0183018 1.7689812 -0.86963314 234 88 12
-1.0126632 1.7673762 -0.87375164 234 88 12
-0.98733169 1.75085 -0.87569797 234 88 12
-1.6597738 0.36351562 -1.4653708 234 88 12
-1.6600838 0.36163625 -1.4653708 234 88 12
-1.655764 0.37443727 -1.4684956 234 88 12
-1.6597936 0.35000542 -1.4684956 234 88 12
-1.653469 0.36826727 -1.4731828 234 88 12
-1.6540889 0.36450851 -1.4731828 234 88 12
-1.1097499 0.35715625 -1.3863908 234 88 12
-1.1429731 0.35375634 -1.391587 234 88 12
-1.1053152 0.34962931 -1.3854878 234 88 12
-1.3247795 0.349558 -1.4204005 234 88 12
-1.2408167 0.34485063 -1.4069194 234 88 12
-1.6562587 0.3513529 -1.4731828 234 88 12
-1.6565686 0.34947354 -1.4731828 234 88 12
-1.6584284 0.33819729 -1.4731828 234 88 12
-1.1628124 0.35364068 -1.3980149 234 88 12
-1.1325001 0.34967715 -1.3931853 234 88 12
-1.1348642 0.33875403 -1.393273 234 88 12
-1.1166394 0.33459687 -1.3903236 234 88 12
-1.1120694 0.32698438 -1.389415 234 88 12
-1.1500409 0.31740576 -1.3950909 234 88 12
-1.1154288 0.31211883 -1.3895565 234 88 12
