ply
format ascii 1.0
element vertex 1630
property float x
property float y
property float z
property uchar red
property uchar green
property uchar blue
end_header
-0.012337384 0.013096608 2.6303518 234 88 12
-0.00035390983 0.00038761552 2.7270508 234 88 12
0.00024516287 0.00067664951 2.7248516 234 88 12
0.00018980591 0.012337384 2.6303518 234 88 12
-0.036132712 0.032990739 2.4550772 234 88 12
-0.0024315557 0.0022138043 2.7109468 234 88 12
-0.026706789 0.030896088 2.4550772 234 88 12
0.01347622 0.011198549 2.6303518 234 88 12
-0.041369338 0.028801437 2.4550772 234 88 12
-0.088956848 0.10409844 1.736333 234 88 12
-0.042416662 0.026706789 2.4550772 234 88 12
-0.024612138 0.026706789 2.4550772 234 88 12
0.10031305 0.085171454 1.736333 234 88 12
0.10788384 0.085171454 1.736333 234 88 12
-0.077600658 0.081386052 1.736333 234 88 12
0.070029862 0.081386052 1.736333 234 88 12
0.081386052 0.081386052 1.736333 234 88 12
0.0030719049 0.0026957532 2.6970868 234 88 12
0.13059622 0.081386052 1.736333 234 88 12
0.043532077 0.077600658 1.736333 234 88 12
0.054888271 0.077600658 1.736333 234 88 12
0.043542728 0.030258507 2.3425436 234 88 12
0.028390484 0.073815256 1.736333 234 88 12
0.039114654 0.028782481 2.3425436 234 88 12
-0.073815256 0.070029862 1.736333 234 88 12
0.01703429 0.070029862 1.736333 234 88 12
0.053874902 0.027306456 2.3425436 234 88 12
0.14573781 0.070029862 1.736333 234 88 12
-0.073815256 0.066244461 1.736333 234 88 12
0.013248893 0.066244461 1.736333 234 88 12
0.01703429 0.066244461 1.736333 234 88 12
0.03173453 0.025830431 2.3425436 234 88 12
0.040590677 0.025830431 2.3425436 234 88 12
0.053874902 0.025830431 2.3425436 234 88 12
-0.045591109 0.021190234 2.3928826 234 88 12
-0.039169826 0.021190234 2.3928826 234 88 12
-0.0076960917 0.014939472 2.4923265 234 88 12
0.018450309 0.024354408 2.3425436 234 88 12
-0.027221946 0.022807578 2.3437426 234 88 12
-0.0028874679 0.012787358 2.5134399 234 88 12
0.0047062882 0.0097263288 2.56528 234 88 12
0.15709402 0.054888271 1.736333 234 88 12
-0.070029862 0.051102873 1.736333 234 88 12
-0.0018926989 0.051102873 1.736333 234 88 12
0.0018926989 0.051102873 1.736333 234 88 12
0.01349136 0.0084713185 2.56528 234 88 12
-0.048700612 0.013091562 2.4550772 234 88 12
-0.022517487 0.013091562 2.4550772 234 88 12
-0.0025389683 0.0070526898 2.5818934 234 88 12
0.1608794 0.047317475 1.736333 234 88 12
-0.02575049 0.016921751 2.3437426 234 88 12
-0.070029862 0.039746679 1.736333 234 88 12
-0.066244461 0.039746679 1.736333 234 88 12
-0.0056780968 0.039746679 1.736333 234 88 12
0.0018926989 0.039746679 1.736333 234 88 12
0.012727438 0.015722129 2.3369467 234 88 12
0.1646648 0.039746679 1.736333 234 88 12
-0.053296648 0.012200437 2.3928826 234 88 12
-0.039169826 0.012200437 2.3928826 234 88 12
-0.1835918 0.032175884 1.736333 234 88 12
-0.00026598334 0.00090434332 2.7020717 234 88 12
0.011230092 0.012727438 2.3369467 234 88 12
0.014224784 0.012727438 2.3369467 234 88 12
0.027700895 0.012727438 2.3369467 234 88 12
0.041177005 0.012727438 2.3369467 234 88 12
0.053874902 0.01254621 2.3425436 234 88 12
-0.054580905 0.0083476678 2.3928826 234 88 12
-0.066244461 0.024605086 1.736333 234 88 12
-0.0094634946 0.024605086 1.736333 234 88 12
0.0018926989 0.024605086 1.736333 234 88 12
0.17223561 0.020819688 1.736333 234 88 12
-0.066244461 0.013248893 1.736333 234 88 12
-0.013248893 0.013248893 1.736333 234 88 12
0.0018926989 0.013248893 1.736333 234 88 12
-0.01703429 0.0094634946 1.736333 234 88 12
0.17602099 0.0094634946 1.736333 234 88 12
-0.051842589 -0.00052366249 2.4550772 234 88 12
-0.003447728 -3.6291873e-05 2.7109468 234 88 12
-0.057149418 -0.00064212829 2.3928826 234 88 12
-0.053296648 -0.00064212829 2.3928826 234 88 12
-0.039169826 -0.00064212829 2.3928826 234 88 12
-0.022517487 -0.00052366249 2.4550772 234 88 12
-0.066244461 -0.0018926989 1.736333 234 88 12
-0.00011161488 -3.8487892e-06 2.7279794 234 88 12
-0.00090434332 -5.3196665e-05 2.7020717 234 88 12
-0.028409647 -0.0018939765 1.7356623 234 88 12
-0.024605086 -0.0018926989 1.736333 234 88 12
-0.013248893 -0.0018926989 1.736333 234 88 12
0.0018926989 -0.0018926989 1.736333 234 88 12
0.00018807582 -6.2691935e-05 2.6970868 234 88 12
0.00161113 -0.000322226 2.5608313 234 88 12
0.0097327465 -0.00074867281 2.3369467 234 88 12
0.014224784 -0.00074867281 2.3369467 234 88 12
0.027700895 -0.00074867281 2.3369467 234 88 12
0.041177005 -0.00074867281 2.3369467 234 88 12
0.022276431 -0.00031375253 2.56528 234 88 12
0.055350926 -0.00073801231 2.3425436 234 88 12
0.1798064 -0.0018926989 1.736333 234 88 12
0.02419127 -0.00076393486 2.5963113 234 88 12
-0.051102873 -0.0094634946 1.736333 234 88 12
0.068635151 -0.0036900616 2.3425436 234 88 12
-0.066244461 -0.01703429 1.736333 234 88 12
-0.051102873 -0.01703429 1.736333 234 88 12
-0.039746679 -0.01703429 1.736333 234 88 12
-0.024605086 -0.01703429 1.736333 234 88 12
-0.013248893 -0.01703429 1.736333 234 88 12
-0.0012732247 -0.0028010944 2.5963113 234 88 12
-0.000322226 -0.0035444861 2.5608313 234 88 12
0.00038103011 -4.233668e-05 2.7279794 234 88 12
0.1873772 -0.024605086 1.736333 234 88 12
-0.062459067 -0.028390484 1.736333 234 88 12
-0.051102873 -0.028390484 1.736333 234 88 12
-0.039746679 -0.028390484 1.736333 234 88 12
-0.0089022629 -0.0078549376 2.4550772 234 88 12
-0.013484694 -0.010916181 2.3928826 234 88 12
0.015722129 -0.014224784 2.3369467 234 88 12
0.027700895 -0.014224784 2.3369467 234 88 12
0.041177005 -0.014224784 2.3369467 234 88 12
0.054653116 -0.014224784 2.3369467 234 88 12
0.068635151 -0.014022235 2.3425436 234 88 12
-0.058433674 -0.013484694 2.3928826 234 88 12
-0.053296648 -0.013484694 2.3928826 234 88 12
-0.039169826 -0.013484694 2.3928826 234 88 12
-0.019905977 -0.013484694 2.3928826 234 88 12
0.0012732247 -0.0063661239 2.5963113 234 88 12
-0.052889913 -0.014138888 2.4550772 234 88 12
-0.013855718 -0.0093445545 2.5608313 234 88 12
0.027296472 -0.0097263288 2.56528 234 88 12
0.1873772 -0.058673669 1.736333 234 88 12
0.026203549 -0.027700895 2.3369467 234 88 12
0.027700895 -0.027700895 2.3369467 234 88 12
0.041177005 -0.027700895 2.3369467 234 88 12
0.054653116 -0.027700895 2.3369467 234 88 12
0.068635151 -0.027306456 2.3425436 234 88 12
-0.058433674 -0.027611516 2.3928826 234 88 12
-0.053296648 -0.027611516 2.3928826 234 88 12
-0.020300237 -0.013855718 2.5608313 234 88 12
-0.013211266 -0.013855718 2.5608313 234 88 12
-0.0078549376 -0.022517487 2.4550772 234 88 12
0.012863855 -0.01349136 2.56528 234 88 12
0.01349136 -0.01349136 2.56528 234 88 12
0.027296472 -0.01349136 2.56528 234 88 12
-0.02520985 -0.011968313 2.5963113 234 88 12
0.020819688 -0.088956848 1.736333 234 88 12
0.028390484 -0.088956848 1.736333 234 88 12
0.043532077 -0.088956848 1.736333 234 88 12
-0.0056780968 -0.092742249 1.736333 234 88 12
0.0018926989 -0.092742249 1.736333 234 88 12
0.054888271 -0.092742249 1.736333 234 88 12
-0.020819688 -0.096527644 1.736333 234 88 12
-0.013248893 -0.096527644 1.736333 234 88 12
0.062459067 -0.096527644 1.736333 234 88 12
-0.050795265 -0.027754113 2.4550772 234 88 12
-0.014138888 -0.027754113 2.4550772 234 88 12
-0.0063661239 -0.013496182 2.5963113 234 88 12
-0.035961282 -0.10031305 1.736333 234 88 12
0.0094218636 -0.013496182 2.5963113 234 88 12
-0.043532077 -0.10409844 1.736333 234 88 12
0.073815256 -0.10409844 1.736333 234 88 12
0.040590677 -0.040590677 2.3425436 234 88 12
0.053874902 -0.040590677 2.3425436 234 88 12
-0.021190234 -0.036601312 2.3928826 234 88 12
-0.051102873 -0.10788384 1.736333 234 88 12
0.077600658 -0.10788384 1.736333 234 88 12
-0.02470056 -0.015024052 2.5963113 234 88 12
-0.058673669 -0.11166923 1.736333 234 88 12
0.081386052 -0.11166923 1.736333 234 88 12
-0.057149418 -0.040454082 2.3928826 234 88 12
-0.053296648 -0.040454082 2.3928826 234 88 12
-0.027611516 -0.040454082 2.3928826 234 88 12
-0.077600658 -0.12302543 1.736333 234 88 12
0.096527644 -0.12302543 1.736333 234 88 12
-0.028801437 -0.03718004 2.4550772 234 88 12
-0.096527644 -0.13438162 1.736333 234 88 12
-0.046605963 -0.041369338 2.4550772 234 88 12
-0.040322013 -0.041369338 2.4550772 234 88 12
-1.3335689 0.03655868 1.9271752 234 88 12
-1.3341027 0.052833501 1.9263749 234 88 12
-1.3352568 0.026290134 1.9263749 234 88 12
-1.3350854 0.0587859 1.9255747 234 88 12
-1.4665722 0.061944224 2.2626653 234 88 12
-1.3361322 0.06326367 1.9247744 234 88 12
-1.336581 0.052941248 1.9247744 234 88 12
-1.3380556 0.019024722 1.9247744 234 88 12
-1.3371789 0.067741439 1.9239742 234 88 12
-1.3395511 0.013180071 1.9239742 234 88 12
-1.4196006 0.053242445 2.1363261 234 88 12
-1.4199911 0.056399912 2.1359859 234 88 12
-1.4689002 0.061256129 2.2671165 234 88 12
-1.3414301 0.084177881 1.9207733 234 88 12
-1.3656108 0.045185018 1.982295 234 88 12
-1.3658251 0.040258899 1.982295 234 88 12
-1.3426555 0.039641827 1.9145708 234 88 12
-1.3475628 0.00023163061 1.9191728 234 88 12
-1.3446985 0.094661921 1.9183725 234 88 12
-1.4769173 0.064498454 2.2889676 234 88 12
-1.4673671 0.065492846 2.2620535 234 88 12
-1.3465567 0.036813919 1.9121355 234 88 12
-1.4677501 0.059108883 2.2619855 234 88 12
-1.350105 -0.0011352531 1.9175723 234 88 12
-1.3469844 0.099193566 1.916772 234 88 12
-1.3472409 0.093295038 1.916772 234 88 12
-1.3464478 0.068283148 1.9113237 234 88 12
-1.3465128 0.066787221 1.9113237 234 88 12
-1.3470982 0.053323828 1.9113237 234 88 12
-1.3476835 0.039860435 1.9113237 234 88 12
-1.3713204 0.033094682 1.9789535 234 88 12
-1.3471844 0.080305263 1.9105119 234 88 12
-1.4780205 0.064203978 2.2919872 234 88 12
-1.3495259 0.026451696 1.9105119 234 88 12
-1.3481814 0.086343646 1.9097 234 88 12
-1.4459212 0.069895588 2.1963341 234 88 12
-1.4353247 0.058072366 2.1629851 234 88 12
-1.4463552 0.06725467 2.1961284 234 88 12
-1.3540984 0.10688996 1.9119706 234 88 12
-1.4273026 0.04604014 2.1315632 234 88 12
-1.3552735 0.10841847 1.9111704 234 88 12
-1.3599538 0.00077036978 1.9111704 234 88 12
-1.4683379 0.067417599 2.2613738 234 88 12
-1.3611928 0.0008242437 1.9103701 234 88 12
-1.3605788 0.032927293 1.9032058 234 88 12
-1.360904 0.025447633 1.9032058 234 88 12
-1.3601657 0.1101086 1.9079695 234 88 12
-1.4483056 0.073798969 2.1946876 234 88 12
-1.4397991 0.053678967 2.160224 234 88 12
-1.3624197 0.10644659 1.8999585 234 88 12
-1.3648688 0.10805183 1.898335 234 88 12
-1.4407499 0.061366875 2.1593955 234 88 12
-1.4410818 0.053734735 2.1593955 234 88 12
-1.3683159 0.028767409 1.898335 234 88 12
-1.368446 0.025775544 1.898335 234 88 12
-1.1995229 0.046465866 1.2910651 234 88 12
-1.1998519 0.038897112 1.2910651 234 88 12
-1.2055535 0.054311138 1.2869577 234 88 12
-1.373474 0.025994154 1.8950877 234 88 12
-1.2119135 0.054587655 1.2828505 234 88 12
-1.212078 0.050803278 1.2828505 234 88 12
-1.2125716 0.039450143 1.2828505 234 88 12
-1.2132298 0.024312634 1.2828505 234 88 12
-1.3736035 0.1151251 1.8991668 234 88 12
-1.2179443 0.062432926 1.2787431 234 88 12
-1.2184378 0.051079791 1.2787431 234 88 12
-1.2189314 0.03972666 1.2787431 234 88 12
-1.2195896 0.024589149 1.2787431 234 88 12
-1.3759866 0.11303149 1.8910288 234 88 12
-1.2254559 0.036218796 1.2746358 234 88 12
-1.2259494 0.024865665 1.2746358 234 88 12
-1.227484 0.062847696 1.2725822 234 88 12
-1.2279776 0.051494565 1.2725822 234 88 12
-1.2297876 0.0098664118 1.2725822 234 88 12
-1.411693 0.067147307 2.0096779 234 88 12
-1.4237134 0.064917363 2.0603662 234 88 12
-1.2388337 0.021634318 1.2664212 234 88 12
-1.2393273 0.010281185 1.2664212 234 88 12
-1.4542451 0.076716997 2.1907773 234 88 12
-1.4620512 0.065806583 2.2224243 234 88 12
-1.4252465 0.067474782 2.0638702 234 88 12
-1.4093723 0.067325681 1.9953212 234 88 12
-1.4100814 0.06620951 1.9981722 234 88 12
-1.4504009 0.064633906 2.171916 234 88 12
-1.2402037 0.06340073 1.2643675 234 88 12
-1.2408578 0.052055854 1.265062 234 88 12
-1.2415155 0.036928553 1.265062 234 88 12
-1.2418491 0.025556954 1.2643675 234 88 12
-1.2425072 0.010419442 1.2643675 234 88 12
-1.4482228 0.068092123 2.1611278 234 88 12
-1.4206169 0.069686443 2.040417 234 88 12
-1.4040775 0.066449352 1.9672968 234 88 12
-1.4086668 0.065192625 1.9871753 234 88 12
-1.3938447 0.077803098 1.9187897 234 88 12
-1.430426 0.071200766 2.0803955 234 88 12
-1.4660436 0.065693602 2.2379229 234 88 12
-1.4332833 0.067123815 2.092329 234 88 12
-1.2493607 -0.00065717462 1.2602602 234 88 12
-1.3888181 0.020666249 1.8853462 234 88 12
-1.3871695 0.11719235 1.8903643 234 88 12
-1.3859775 0.11496464 1.8845344 234 88 12
-1.3844876 0.084152162 1.8717345 234 88 12
-1.4147484 0.076733761 2.007163 234 88 12
-1.335362 0.089851744 1.6506305 234 88 12
-1.4237167 0.073199414 2.0470366 234 88 12
-1.4196248 0.071934752 2.0282779 234 88 12
-1.4426279 0.06836801 2.1316333 234 88 12
-1.4548111 0.065422907 2.1861656 234 88 12
-1.460911 0.064547606 2.2135873 234 88 12
-1.2524741 0.04505584 1.2668688 234 88 12
-1.2523761 0.0032654607 1.2582065 234 88 12
-1.2525406 -0.00051891687 1.2582065 234 88 12
-1.3900751 0.020720901 1.8845344 234 88 12
-1.3872346 0.11501929 1.8837227 234 88 12
-1.2669909 0.1131562 1.3306475 234 88 12
-1.4006532 0.075871006 1.9375782 234 88 12
-1.2529234 0.063953757 1.2561529 234 88 12
-1.253569 0.052608512 1.2568529 234 88 12
-1.2559537 0.037687484 1.2648323 234 88 12
-1.25472 0.026135737 1.2568529 234 88 12
-1.3401016 0.099124543 1.653616 234 88 12
-1.3495538 0.092446998 1.6964159 234 88 12
-1.4288311 0.072661243 2.0627444 234 88 12
-1.449205 0.054087922 2.1541493 234 88 12
-1.4492271 0.053579111 2.1541493 234 88 12
-1.2697057 0.1177015 1.3125783 234 88 12
-1.3945382 0.082954668 1.8982006 234 88 12
-1.4162309 0.073904395 1.9993457 234 88 12
-1.4548048 0.065106951 2.180706 234 88 12
-1.2594478 0.060445897 1.2520455 234 88 12
-1.2624094 -0.0076728989 1.2520455 234 88 12
-1.3239366 0.10716008 1.5557805 234 88 12
-1.2893211 0.10702223 1.3886211 234 88 12
-1.3767281 0.082037635 1.8053945 234 88 12
-1.4677275 0.066009656 2.241394 234 88 12
-1.4292171 0.071193457 2.0565462 234 88 12
-1.2631023 0.053023007 1.2506959 234 88 12
-1.26574 0.030593334 1.2587228 234 88 12
-1.2659032 0.026840605 1.2587228 234 88 12
-1.2645822 0.018986581 1.2506959 234 88 12
-1.2649111 0.01142293 1.2506959 234 88 12
-1.2657331 -0.0074861953 1.2506959 234 88 12
-1.2718847 0.12613809 1.2917415 234 88 12
-1.3579319 0.096218891 1.7078502 234 88 12
-1.3580241 0.094098419 1.7078502 234 88 12
-1.2920787 0.10714212 1.3868401 234 88 12
-1.4127378 0.078286059 1.9731218 234 88 12
-1.4267052 0.063419454 2.0385284 234 88 12
-1.2662802 0.05316117 1.2486438 234 88 12
-1.2684039 0.041988619 1.2566863 234 88 12
-1.2679244 0.015342919 1.2486438 234 88 12
-1.2680888 0.011561095 1.2486438 234 88 12
-1.3088967 0.11593889 1.4571656 234 88 12
-1.2752467 0.11901876 1.2897738 234 88 12
-1.2835832 0.11333687 1.330175 234 88 12
-1.3505023 0.091984764 1.6597582 234 88 12
-1.3797044 0.082167037 1.8034723 234 88 12
-1.4548297 0.067751355 2.1755459 234 88 12
-1.2722784 -0.014826881 1.2458845 234 88 12
-1.3754404 0.094400734 1.7759713 234 88 12
-1.3755215 0.09253405 1.7759713 234 88 12
-1.3868239 0.08284957 1.8312625 234 88 12
-1.395533 0.061439287 1.8707858 234 88 12
-1.2760159 0.012240998 1.2526134 234 88 12
-1.2788507 0.12722018 1.2747493 234 88 12
-1.2791694 0.1198886 1.2747493 234 88 12
-1.3113512 0.10788123 1.4384599 234 88 12
-1.3114849 0.10480426 1.4384599 234 88 12
-1.3881525 0.084577918 1.8303577 234 88 12
-1.2764711 0.038448364 1.242487 234 88 12
-1.2793323 0.0086253723 1.2505769 234 88 12
-1.3341987 0.11060168 1.5440359 234 88 12
-1.2820903 0.12368832 1.2727599 234 88 12
-1.3346338 0.10516067 1.5450809 234 88 12
-1.2765249 0.11044121 1.2404346 234 88 12
-1.4439417 0.069640405 2.1122904 234 88 12
-1.2793201 0.046150178 1.2404346 234 88 12
-1.279649 0.038586527 1.2404346 234 88 12
-1.2818331 0.023773385 1.2485404 234 88 12
-1.4449992 0.055407852 2.1145992 234 88 12
-1.4450831 0.053476322 2.1145992 234 88 12
-1.2814577 -0.0030135477 1.2404346 234 88 12
-1.281951 -0.014359023 1.2404346 234 88 12
-1.2772362 0.16730675 1.2383823 234 88 12
-1.2775651 0.1597431 1.2383823 234 88 12
-1.3304601 0.10989001 1.5102289 234 88 12
-1.3211335 0.10981207 1.4602296 234 88 12
-1.3770615 0.089841969 1.755293 234 88 12
-1.4410683 0.071624391 2.0940578 234 88 12
-1.282169 0.053851992 1.2383823 234 88 12
-1.2828268 0.038724691 1.2383823 234 88 12
-1.2849643 -0.010439034 1.2383823 234 88 12
-1.2851287 -0.014220859 1.2383823 234 88 12
-1.2810717 0.15231761 1.23633 234 88 12
-1.2905475 0.1268059 1.2819912 234 88 12
-1.3237733 0.10693419 1.4586087 234 88 12
-1.2830448 0.10693571 1.23633 234 88 12
-1.2837025 0.091808408 1.23633 234 88 12
-1.285018 0.061553806 1.23633 234 88 12
-1.3506285 0.044861048 1.5904448 234 88 12
-1.4460253 0.056742586 2.1139004 234 88 12
-1.4461652 0.053523365 2.1139004 234 88 12
-1.2889643 -0.029209994 1.23633 234 88 12
-1.4040972 0.016834278 1.8756046 234 88 12
-1.2934307 0.13055666 1.2800276 234 88 12
-1.2855649 0.12220117 1.2342778 234 88 12
-1.2857293 0.11841935 1.2342778 234 88 12
-1.3866171 0.088334605 1.7878929 234 88 12
-1.4163494 0.078148246 1.9507282 234 88 12
-1.4203733 0.076118007 1.9726088 234 88 12
-1.2873737 0.080601096 1.2342778 234 88 12
-1.327632 0.050185669 1.4507432 234 88 12
-1.2942724 0.043378688 1.2636343 234 88 12
-1.2944323 0.039701629 1.2636343 234 88 12
-1.2973613 0.036449742 1.279132 234 88 12
-1.2877561 0.14503029 1.2322255 234 88 12
-1.3350477 0.11663205 1.4931339 234 88 12
-1.2966286 0.12707031 1.2780639 234 88 12
-1.3881346 0.088400587 1.7869128 234 88 12
-1.4232565 0.062441852 1.9794817 234 88 12
-1.4044964 0.060313366 1.8726833 234 88 12
-1.3064883 0.051565185 1.3153207 234 88 12
-1.3619611 0.053292032 1.6299949 234 88 12
-1.2942832 0.02807452 1.2403945 234 88 12
-1.2944463 0.024321791 1.2403945 234 88 12
-1.2951554 -0.025151839 1.2322255 234 88 12
-1.2953198 -0.028933665 1.2322255 234 88 12
-1.2892896 0.18298671 1.2301732 234 88 12
-1.2983544 0.13840456 1.2713205 234 88 12
-1.4129012 0.082153916 1.918586 234 88 12
-1.4527353 0.068725213 2.1452153 234 88 12
-1.3981451 0.061618328 1.8282298 234 88 12
-1.3703715 0.058464956 1.667075 234 88 12
-1.4032234 0.058674183 1.8568126 234 88 12
-1.312871 0.04852074 1.3325742 234 88 12
-1.3884628 0.050092556 1.7694312 234 88 12
-1.3001161 0.025012391 1.2530265 234 88 12
-1.4545125 0.050240513 2.150836 234 88 12
-1.3370082 0.11791281 1.4736332 234 88 12
-1.2950983 0.12261567 1.2281209 234 88 12
-1.2952627 0.11883384 1.2281209 234 88 12
-1.4140224 0.082202673 1.9178618 234 88 12
-1.4566739 0.066316344 2.1648762 234 88 12
-1.3864322 0.063177198 1.7505734 234 88 12
-1.3856108 0.061219282 1.7452374 234 88 12
-1.3766012 0.058781508 1.6915749 234 88 12
-1.3602577 0.055411864 1.5945016 234 88 12
-1.3647629 0.050950486 1.6198812 234 88 12
-1.3107792 0.041082896 1.2995636 234 88 12
-1.2954807 0.18704486 1.2260687 234 88 12
-1.3965017 0.092620783 1.8079218 234 88 12
-1.4074998 0.085887231 1.8721939 234 88 12
-1.4434142 0.072059944 2.0842052 234 88 12
-1.4566075 0.068231449 2.1624138 234 88 12
-1.3826801 0.06522727 1.7177907 234 88 12
-1.3245921 0.059234574 1.3674823 234 88 12
-1.3467506 0.057145804 1.4999708 234 88 12
-1.3081536 0.047756184 1.265794 234 88 12
-1.3285929 0.043289457 1.3873401 234 88 12
-1.308565 0.033151008 1.2644515 234 88 12
-1.3043633 0.028612735 1.238041 234 88 12
-1.3045259 0.024873309 1.238041 234 88 12
-1.3055109 -0.043646473 1.2260687 234 88 12
-1.348977 0.11805058 1.513801 234 88 12
-1.3583577 0.10912934 1.568881 234 88 12
-1.3584691 0.10656648 1.568881 234 88 12
-1.4088198 0.084448166 1.8713834 234 88 12
-1.413998 0.07884603 1.9016074 234 88 12
-1.4133722 0.064991131 1.8940853 234 88 12
-1.3754293 0.060922716 1.6606053 234 88 12
-1.3868499 0.059299469 1.7301232 234 88 12
-1.3869365 0.057306532 1.7301232 234 88 12
-1.3438141 0.051081959 1.4643458 234 88 12
-1.382467 0.050657634 1.7009773 234 88 12
-1.3619395 0.045188025 1.5737923 234 88 12
-1.3073429 0.032488778 1.2360117 234 88 12
-1.3671505 0.041132979 1.6046293 234 88 12
-1.3672565 0.038696472 1.6046293 234 88 12
-1.3086886 -0.043508306 1.2240164 234 88 12
-1.4085385 0.11744431 1.869922 234 88 12
-1.3603997 0.11178584 1.5674903 234 88 12
-1.3606226 0.10666011 1.5674903 234 88 12
-1.4146577 0.084527455 1.8992254 234 88 12
-1.4688416 0.065485775 2.2327299 234 88 12
-1.4145598 0.065042771 1.8933182 234 88 12
-1.4172922 0.063656949 1.9100207 234 88 12
-1.4233884 0.062498182 1.9478096 234 88 12
-1.4099921 0.060543355 1.8635446 234 88 12
-1.3872358 0.055241745 1.7198641 234 88 12
-1.3873239 0.053216435 1.7198641 234 88 12
-1.3806353 0.050218567 1.677242 234 88 12
-1.3318435 0.036646239 1.3685772 234 88 12
-1.3579365 0.11638604 1.5378901 234 88 12
-1.4377775 0.079278208 2.0370591 234 88 12
-1.4022692 0.088954151 1.8131664 234 88 12
-1.4330971 0.076008841 2.0062869 234 88 12
-1.4544346 0.068385065 2.1403263 234 88 12
-1.430757 0.069189034 1.9894631 234 88 12
-1.4551766 0.065644361 2.1442997 234 88 12
-1.4358592 0.062911399 2.0202785 234 88 12
-1.3871238 0.057207555 1.7077161 234 88 12
-1.3289936 0.049321372 1.3345999 234 88 12
-1.3799244 0.052173838 1.6603805 234 88 12
-1.3913001 0.049592711 1.732252 234 88 12
-1.3777608 0.042704523 1.6439466 234 88 12
-1.3524098 0.034389414 1.479876 234 88 12
-1.3602892 0.1138211 1.5364455 234 88 12
-1.3504003 0.1094367 1.470763 234 88 12
-1.4060076 0.085011899 1.8262045 234 88 12
-1.4367121 0.075319663 2.0235424 234 88 12
-1.4339923 0.075032927 2.0057371 234 88 12
-1.4460843 0.064742371 2.0816178 234 88 12
-1.4546378 0.06407322 2.1371672 234 88 12
-1.4352609 0.061903235 2.0102839 234 88 12
-1.3185743 0.048104543 1.2459944 234 88 12
-1.409255 0.052444715 1.8381388 234 88 12
-1.4199893 0.050170776 1.9074438 234 88 12
-1.3187152 -0.054439288 1.2178596 234 88 12
-1.3625262 0.11391836 1.5350008 234 88 12
-1.3663565 0.10721868 1.5585611 234 88 12
-1.3853614 0.097846344 1.6823679 234 88 12
-1.4300987 0.079557993 1.9748995 234 88 12
-1.4493201 0.065414794 2.0987673 234 88 12
-1.4245127 0.062569961 1.9327962 234 88 12
-1.395962 0.057780884 1.7413414 234 88 12
-1.3322797 0.049323794 1.3149471 234 88 12
-1.4334381 0.058597755 1.9910641 234 88 12
-1.407838 0.052024886 1.8187366 234 88 12
-1.4026564 0.049323674 1.7834594 234 88 12
-1.3220575 -0.058082949 1.2158073 234 88 12
-1.3713508 0.11114036 1.5775254 234 88 12
-1.3939856 0.097369604 1.7274507 234 88 12
-1.3872573 0.095779449 1.6812038 234 88 12
-1.453523 0.068266563 2.123913 234 88 12
-1.4651848 0.065469503 2.2024274 234 88 12
-1.4029646 0.054638386 1.7759006 234 88 12
-1.3735675 0.10872374 1.5761642 234 88 12
-1.4039778 0.090603858 1.7822194 234 88 12
-1.4235275 0.079806075 1.9149431 234 88 12
-1.4285653 0.077199109 1.9491978 234 88 12
-1.4435699 0.071662232 2.0518961 234 88 12
-1.4543357 0.065893233 2.1250384 234 88 12
-1.4145563 0.054427177 1.8448629 234 88 12
-1.4025935 0.050710805 1.760525 234 88 12
-1.3910997 0.046495102 1.6792988 234 88 12
-1.3884374 0.043719124 1.6599402 234 88 12
-1.3285775 -0.061588448 1.2117027 234 88 12
-1.4044689 0.094595097 1.7752674 234 88 12
-1.4045476 0.092786014 1.7752674 234 88 12
-1.3580694 0.05754343 1.433681 234 88 12
-1.4158067 0.056053825 1.8440113 234 88 12
-1.3466684 0.040355925 1.3472476 234 88 12
-1.4229497 0.082104906 1.893791 234 88 12
-1.4457457 0.064113572 2.0540602 234 88 12
-1.3382396 0.056396797 1.2689306 234 88 12
-1.426833 0.060054075 1.9150834 234 88 12
-1.3466092 0.046742056 1.3268093 234 88 12
-1.3702333 0.047097173 1.4989141 234 88 12
-1.4342072 0.05609481 1.9675176 234 88 12
-1.4076257 0.049364943 1.7718626 234 88 12
-1.4542152 0.042907331 2.109009 234 88 12
-1.3352619 -0.068875767 1.2075982 234 88 12
-1.4241807 0.080762744 1.8930349 234 88 12
-1.4427845 0.072415121 2.0289874 234 88 12
-1.3618636 0.051597785 1.4191232 234 88 12
-1.360407 0.04834386 1.4072123 234 88 12
-1.4136904 0.053822611 1.8061186 234 88 12
-1.4150647 0.052371211 1.8158911 234 88 12
-1.4447669 0.056145929 2.0384896 234 88 12
-1.4261799 0.050293177 1.8980615 234 88 12
-1.4542243 0.055163883 2.1086595 234 88 12
-1.417498 0.086392544 1.8341811 234 88 12
-1.4415166 0.074847147 2.0136991 234 88 12
-1.4153426 0.05900716 1.8086377 234 88 12
-1.4054049 0.05032504 1.7298963 234 88 12
-1.4026963 0.04776112 1.7083675 234 88 12
-1.4351581 0.053646401 1.958124 234 88 12
-1.4545311 0.087422252 2.1128519 234 88 12
-1.4027175 0.096393034 1.710598 234 88 12
-1.4169929 0.087133884 1.8191165 234 88 12
-1.4321558 0.077847727 1.934568 234 88 12
-1.4357712 0.075660266 1.9621046 234 88 12
-1.441577 0.069184035 2.0053165 234 88 12
-1.4312752 0.062873334 1.9225864 234 88 12
-1.4223005 0.11954142 1.8609923 234 88 12
-1.4045022 0.094447464 1.7095021 234 88 12
-1.4343301 0.066662356 1.9390309 234 88 12
-1.4460623 0.065134175 2.0325885 234 88 12
-1.4138405 0.060568925 1.7725818 234 88 12
-1.3484663 -0.079668581 1.1993891 234 88 12
-1.4161273 0.088667594 1.7879914 234 88 12
-1.4304718 0.0790978 1.9025785 234 88 12
-1.4415828 0.069491558 1.9905505 234 88 12
-1.4417193 0.066352546 1.9905505 234 88 12
-1.4570602 0.039805721 2.1072619 234 88 12
-1.4126738 -1.4127986 1.8528824 234 88 12
-1.3802246 -1.3853246 1.7596443 234 88 12
-1.3786139 -1.3869352 1.7596443 234 88 12
-1.2801448 -1.3041501 1.4747276 234 88 12
-1.2791011 -1.3051938 1.4747276 234 88 12
-1.2780575 -1.3062376 1.4747276 234 88 12
-1.2805218 -1.3066144 1.4725647 234 88 12
-1.2669536 -1.3201827 1.4725647 234 88 12
-1.4136186 -1.4139179 1.8559071 234 88 12
-1.2655765 -1.3229803 1.4714832 234 88 12
-1.2941334 -1.2972646 1.4693203 234 88 12
-1.2965977 -1.2976414 1.4671574 234 88 12
-1.2924229 -1.3018162 1.4671574 234 88 12
-1.2872044 -1.3070349 1.4671574 234 88 12
-1.2788547 -1.3153845 1.4671574 234 88 12
-1.2736362 -1.320603 1.4671574 234 88 12
-1.2652866 -1.3289527 1.4671574 234 88 12
-1.2611117 -1.3331275 1.4671574 234 88 12
-1.3873341 -1.382234 1.7565846 234 88 12
-1.403303 -1.4060515 1.8243554 234 88 12
-1.2542261 -1.3471161 1.4617499 234 88 12
-1.2928668 -1.306631 1.4549303 234 88 12
-1.2663972 -1.3331006 1.4549303 234 88 12
-1.3067883 -1.297395 1.459587 234 88 12
-1.3009988 -1.2999401 1.4538332 234 88 12
-1.2946461 -1.3062928 1.4538332 234 88 12
-1.2925285 -1.3084103 1.4538332 234 88 12
-1.2650002 -1.3359387 1.4538332 234 88 12
-1.3486829 -1.3846236 1.6885741 234 88 12
-1.2521822 -1.3534218 1.4585055 234 88 12
-1.2569122 -1.3469088 1.4516389 234 88 12
-1.347512 -1.3870025 1.6876545 234 88 12
-1.3695558 -1.3655624 1.6871947 234 88 12
-1.3063369 -1.2989254 1.4505419 234 88 12
0.063907124 -1.4777528 2.2910628 234 88 12
0.06399329 -1.4770383 2.288904 234 88 12
0.050243683 -1.448372 2.1953051 234 88 12
0.054050073 -1.4485258 2.1950994 234 88 12
0.061537731 -1.4730175 2.2750165 234 88 12
0.067337804 -1.4482673 2.1948936 234 88 12
0.048009731 -1.4494269 2.1946876 234 88 12
0.055594802 -1.4490972 2.1946876 234 88 12
0.067351662 -1.448586 2.1946876 234 88 12
0.024756577 -1.3654749 1.9083663 234 88 12
0.023634091 -1.3995329 2.0189412 234 88 12
0.027819438 -1.3993509 2.0189412 234 88 12
0.021579646 -1.400503 2.0183735 234 88 12
0.02789589 -1.4011093 2.0178056 234 88 12
0.092682391 -1.3671306 1.9039683 234 88 12
0.095631652 -1.3670024 1.9039683 234 88 12
0.029435316 -1.3714595 1.9043775 234 88 12
0.10895721 -1.3676645 1.9031681 234 88 12
0.078043826 -1.37025 1.9023678 234 88 12
0.10712526 -1.200258 1.2896893 234 88 12
0.11090708 -1.2000936 1.2896893 234 88 12
0.12225255 -1.1996003 1.2896893 234 88 12
-0.078046009 -1.2114928 1.287637 234 88 12
0.092136122 -1.2040936 1.287637 234 88 12
0.13751802 -1.2021204 1.287637 234 88 12
-0.089253321 -1.2151638 1.2855847 234 88 12
0.01348158 -1.3892282 1.9518515 234 88 12
-0.066562369 -1.2141773 1.2855847 234 88 12
0.034587231 -1.3860784 1.943521 234 88 12
0.030177221 -1.3009645 1.6251656 234 88 12
0.033407964 -1.2898256 1.5841202 234 88 12
0.078351788 -1.3711976 1.8950877 234 88 12
0.081343651 -1.3710674 1.8950877 234 88 12
0.094807044 -1.3704821 1.8950877 234 88 12
0.14900166 -1.2048049 1.2855847 234 88 12
0.010962365 -1.3904179 1.9511553 234 88 12
0.031120213 -1.3763367 1.9011865 234 88 12
0.035949532 -1.3871256 1.9428078 234 88 12
0.018162359 -1.3052521 1.6300619 234 88 12
0.030833259 -1.3283651 1.7196091 234 88 12
0.073503323 -1.2112713 1.2835324 234 88 12
0.015768304 -1.307448 1.6287134 234 88 12
0.033602484 -1.2942995 1.5812308 234 88 12
0.039873213 -1.3009564 1.607823 234 88 12
0.042436078 -1.3008449 1.607823 234 88 12
0.042380657 -1.2765814 1.5147012 234 88 12
0.062357221 -1.2230349 1.312546 234 88 12
0.066077836 -1.2147778 1.2814802 234 88 12
0.069859661 -1.2146134 1.2814802 234 88 12
0.070981428 -1.3740368 1.8934642 234 88 12
0.081452958 -1.3735814 1.8934642 234 88 12
0.16440529 -1.2105027 1.2814802 234 88 12
0.10480268 -1.3740523 1.8991668 234 88 12
0.10775195 -1.373924 1.8991668 234 88 12
0.12249827 -1.3732829 1.8991668 234 88 12
0.024743401 -1.3473901 1.7762084 234 88 12
0.034598149 -1.3558836 1.8109355 234 88 12
0.037533432 -1.343156 1.7618926 234 88 12
0.041500155 -1.3429835 1.7618926 234 88 12
0.054801065 -1.4167575 2.0512946 234 88 12
0.051397052 -1.3606184 1.8322076 234 88 12
0.053863358 -1.2732728 1.4926487 234 88 12
0.058825359 -1.2262745 1.3105568 234 88 12
0.094971001 -1.374253 1.8926524 234 88 12
0.16832528 -1.2135161 1.2794279 234 88 12
0.10780583 -1.3751632 1.8983667 234 88 12
0.12255214 -1.374522 1.8983667 234 88 12
0.012544882 -1.4097047 2.0126953 234 88 12
-0.054664236 -1.2263951 1.2773756 234 88 12
0.020269446 -1.3409131 1.7424037 234 88 12
0.025005704 -1.3429207 1.7511438 234 88 12
0.03971801 -1.3337078 1.7172931 234 88 12
0.059795246 -1.4227724 2.0724039 234 88 12
0.058790516 -1.2214622 1.2773756 234 88 12
0.066602938 -1.3767458 1.8918406 234 88 12
0.17224526 -1.2165295 1.2773756 234 88 12
0.17602709 -1.2163651 1.2773756 234 88 12
0.080805652 -1.4521517 2.1920121 234 88 12
0.028663993 -1.3629156 1.8239733 234 88 12
0.027098821 -1.3445297 1.7500479 234 88 12
0.036517218 -1.3726827 1.8644669 234 88 12
0.050393235 -1.4040433 1.9925121 234 88 12
0.051175926 -1.3856269 1.9188734 234 88 12
0.051717591 -1.3788068 1.8916471 234 88 12
0.030800372 -1.3761464 1.8712143 234 88 12
0.032433748 -1.3709391 1.8503358 234 88 12
0.041470673 -1.3871877 1.917982 234 88 12
0.03678567 -1.3611544 1.8113316 234 88 12
0.054440636 -1.3905137 1.9337937 234 88 12
0.054571789 -1.3591962 1.8065147 234 88 12
0.055285022 -1.2279823 1.2732711 234 88 12
-0.050467916 -1.235764 1.2712188 234 88 12
0.04012851 -1.3884189 1.917226 234 88 12
0.045292173 -1.3926934 1.9357861 234 88 12
0.049321476 -1.3998487 1.9660273 234 88 12
0.047775447 -1.3839756 1.9002675 234 88 12
0.058445454 -1.4330238 2.1045232 234 88 12
0.060150694 -1.4419174 2.1415186 234 88 12
0.057743814 -1.3986744 1.9626933 234 88 12
0.05164136 -1.2313246 1.2712188 234 88 12
0.072224542 -1.4372475 2.124419 234 88 12
0.18400525 -1.2255696 1.2712188 234 88 12
-0.050329752 -1.2389418 1.2691665 234 88 12
0.03140248 -1.3802385 1.8757159 234 88 12
0.040270284 -1.3992279 1.9568467 234 88 12
0.041514337 -1.3991737 1.9568467 234 88 12
0.048439793 -1.4164803 2.0305777 234 88 12
0.047053251 -1.4014778 1.9675032 234 88 12
0.049365778 -1.4008677 1.9653692 234 88 12
0.05384938 -1.4135947 2.019479 234 88 12
0.059287127 -1.427577 2.0790191 234 88 12
0.19170706 -1.2284185 1.2691665 234 88 12
0.0095970063 -1.4142371 2.0098562 234 88 12
0.035579979 -1.3937303 1.9274818 234 88 12
0.05357879 -1.418456 2.0359199 234 88 12
0.053886384 -1.4144459 2.0189295 234 88 12
0.058146421 -1.4315121 2.0922673 234 88 12
0.060876142 -1.4374665 2.1180847 234 88 12
0.066511579 -1.4705919 2.2599461 234 88 12
0.067388438 -1.4705538 2.2599461 234 88 12
0.0024029252 -1.4005115 1.9448888 234 88 12
0.033700973 -1.41407 2.0092883 234 88 12
0.048529867 -1.4141707 2.012506 234 88 12
0.060454451 -1.449494 2.167217 234 88 12
0.048274029 -1.2410222 1.265062 234 88 12
0.05583768 -1.2406934 1.265062 234 88 12
0.081070028 -1.4384463 2.1233983 234 88 12
0.19576521 -1.2346096 1.265062 234 88 12
0.013997199 -1.4010875 1.9441925 234 88 12
-0.046133433 -1.2483107 1.2630097 234 88 12
0.045506347 -1.4268836 2.0632794 234 88 12
0.082419656 -1.4543165 2.1905715 234 88 12
0.046383459 -1.4275578 2.0628202 234 88 12
0.052716199 -1.4323623 2.085439 234 88 12
0.056454968 -1.4425092 2.1313436 234 88 12
0.062552355 -1.386997 1.8853462 234 88 12
0.20360519 -1.2406363 1.2609574 234 88 12
-2.254024e-05 -1.4038574 1.9428 234 88 12
-0.045857105 -1.2546663 1.2589051 234 88 12
0.054098692 -1.4408916 2.1209724 234 88 12
0.062103659 -1.4657154 2.2348397 234 88 12
0.062607005 -1.3882539 1.8845344 234 88 12
0.068590738 -1.3879938 1.8845344 234 88 12
0.11197278 -1.3861077 1.8845344 234 88 12
0.12161624 -1.3869771 1.8903643 234 88 12
0.05051728 -1.4362401 2.096087 234 88 12
0.053489737 -1.4414501 2.1206293 234 88 12
0.058298122 -1.455255 2.1850445 234 88 12
0.045044862 -1.2538978 1.2568529 234 88 12
0.056390338 -1.2534045 1.2568529 234 88 12
0.067369558 -1.441153 2.1220374 234 88 12
0.11202743 -1.3873646 1.8837227 234 88 12
0.050753228 -1.4395685 2.1084547 234 88 12
0.0067255837 -1.4205282 2.0058815 234 88 12
0.034976669 -1.4192998 2.0058815 234 88 12
0.041254688 -1.4190269 2.0058815 234 88 12
0.045972455 -1.4289502 2.0539789 234 88 12
0.059799373 -1.4603055 2.2057316 234 88 12
0.062361341 -1.4628285 2.2182417 234 88 12
0.12260826 -1.3894234 1.882099 234 88 12
0.21550332 -1.2528542 1.2527483 234 88 12
0.13504955 -1.3901174 1.8879635 234 88 12
-0.045304447 -1.2673775 1.2506959 234 88 12
0.046248298 -1.4278772 2.0448399 234 88 12
0.037895706 -1.2637601 1.2506959 234 88 12
0.041677531 -1.2635956 1.2506959 234 88 12
0.056804832 -1.2629379 1.2506959 234 88 12
0.085618742 -1.4419429 2.1210167 234 88 12
0.21564148 -1.256032 1.2506959 234 88 12
0.04882415 -1.3997965 1.9032893 234 88 12
0.055979852 -1.4201484 2.004746 234 88 12
0.038033869 -1.2669379 1.2486438 234 88 12
0.041815694 -1.2667733 1.2486438 234 88 12
0.056942996 -1.2661157 1.2486438 234 88 12
-0.0023073819 -1.4104376 1.9386225 234 88 12
0.0002587068 -1.410326 1.9386225 234 88 12
0.014372195 -1.4097124 1.9386225 234 88 12
0.043245487 -1.4013155 1.9029548 234 88 12
-0.13565375 -1.2808571 1.2445391 234 88 12
0.038747519 -1.409597 1.9372363 234 88 12
0.046719845 -1.4102707 1.942421 234 88 12
0.053053532 -1.4274781 2.031256 234 88 12
0.13526505 -1.3950738 1.8847626 234 88 12
-0.044751789 -1.2800885 1.242487 234 88 12
0.028563108 -1.3833848 1.7931106 234 88 12
0.0052600359 -1.3127261 1.4224982 234 88 12
0.038894814 -1.3986748 1.8744973 234 88 12
0.046322729 -1.3978273 1.8717846 234 88 12
0.076174475 -1.2763954 1.2505769 234 88 12
0.0097328732 -1.3274422 1.4853892 234 88 12
0.04081801 -1.4099035 1.9265354 234 88 12
0.046021365 -1.4141361 1.9500037 234 88 12
0.042887107 -1.3975124 1.861789 234 88 12
0.023459228 -1.2803067 1.2404346 234 88 12
0.027241053 -1.2801422 1.2404346 234 88 12
0.042368352 -1.2794845 1.2404346 234 88 12
0.22767778 -1.2714276 1.2404346 234 88 12
-0.0034029284 -1.4148059 1.9358374 234 88 12
0.00044620485 -1.4146385 1.9358374 234 88 12
0.014559694 -1.4140248 1.9358374 234 88 12
-0.048257284 -1.2866086 1.2383823 234 88 12
0.030266246 -1.3857056 1.7877352 234 88 12
0.031686526 -1.3787853 1.7509804 234 88 12
0.019815568 -1.2836488 1.2383823 234 88 12
0.027379217 -1.2833201 1.2383823 234 88 12
0.042506516 -1.2826623 1.2383823 234 88 12
0.060161665 -1.400954 1.8764164 234 88 12
0.072695948 -1.2828653 1.2465039 234 88 12
0.0038923877 -1.4276984 2.001339 234 88 12
0.012390082 -1.2871555 1.23633 234 88 12
0.23173593 -1.2776188 1.23633 234 88 12
-0.047980957 -1.2929641 1.2342778 234 88 12
0.061711967 -1.2896614 1.2424309 234 88 12
0.072065242 -1.4162813 1.9488794 234 88 12
0.12459606 -1.4006712 1.8747928 234 88 12
0.13553442 -1.4012693 1.8807615 234 88 12
-0.040279139 -1.2958131 1.2322255 234 88 12
0.036405273 -1.4280465 2.0002034 234 88 12
0.040590618 -1.4278646 2.0002034 234 88 12
-0.0024608898 -1.2941688 1.2322255 234 88 12
0.0013209352 -1.2940043 1.2322255 234 88 12
0.016448235 -1.2933466 1.2322255 234 88 12
0.027793711 -1.2928534 1.2322255 234 88 12
0.050590884 -1.2933042 1.2403945 234 88 12
0.054343615 -1.293141 1.2403945 234 88 12
0.064721055 -1.4176373 1.9482111 234 88 12
0.2357941 -1.2838099 1.2322255 234 88 12
-0.14225025 -1.3034304 1.2301732 234 88 12
0.051404677 -1.4063723 1.8731693 234 88 12
-0.021093687 -1.3013465 1.2281209 234 88 12
0.045634005 -1.4191548 1.9316597 234 88 12
0.044034321 -1.4092115 1.8715457 234 88 12
0.060962684 -1.454903 2.1502838 234 88 12
0.062010944 -1.4485064 2.1121535 234 88 12
0.12930247 -1.4055041 1.8715457 234 88 12
-0.047290131 -1.308853 1.2240164 234 88 12
-0.039726481 -1.3085243 1.2240164 234 88 12
-0.024599181 -1.3078665 1.2240164 234 88 12
-0.013253707 -1.3073732 1.2240164 234 88 12
0.067595795 -1.455043 2.1500077 234 88 12
0.2439104 -1.2961922 1.2240164 234 88 12
-0.0088838711 -1.3653035 1.5653484 234 88 12
0.1353955 -1.407758 1.869922 234 88 12
-0.14534126 -1.3194838 1.2199118 234 88 12
-0.051538173 -1.3247664 1.2796443 234 88 12
0.0064659314 -1.3873824 1.6952882 234 88 12
0.020226192 -1.400331 1.7817314 234 88 12
0.036793318 -1.4227796 1.9295709 234 88 12
0.04036041 -1.4249172 1.9442012 234 88 12
0.067876108 -1.4498774 2.1111052 234 88 12
-0.047836188 -1.3276122 1.2777061 234 88 12
0.020594105 -1.395389 1.7387576 234 88 12
0.053091221 -1.4510623 2.1107559 234 88 12
0.025198771 -1.4286535 1.9495451 234 88 12
0.020628132 -1.4209607 1.8970091 234 88 12
0.036538165 -1.4407476 2.0333405 234 88 12
0.016504835 -1.4110634 1.8299278 234 88 12
0.030641399 -1.4274811 1.9433151 234 88 12
0.021985307 -1.4117959 1.8363895 234 88 12
0.031190185 -1.4242299 1.9218298 234 88 12
0.021505555 -1.4021095 1.7717671 234 88 12
0.05342349 -1.4573725 2.1489031 234 88 12
-0.0066895676 -1.4279106 1.9274821 234 88 12
0.0010086989 -1.4275758 1.9274821 234 88 12
0.019870197 -1.4246553 1.9131911 234 88 12
0.029546596 -1.4320948 1.9666696 234 88 12
0.013020894 -1.40492 1.7768934 234 88 12
0.027887395 -1.4222105 1.8989284 234 88 12
0.036716893 -1.4341723 1.9829247 234 88 12
0.013886018 -1.4280962 1.9267858 234 88 12
0.050700147 -1.461962 2.1734922 234 88 12
0.043739446 -1.4516654 2.0997636 234 88 12
0.050038252 -1.4592868 2.1546838 234 88 12
0.040890086 -1.445671 2.0572045 234 88 12
0.058469575 -1.4698312 2.2305813 234 88 12
0.1371647 -1.413978 1.8658631 234 88 12
0.25986668 -1.3146012 1.2117027 234 88 12
0.14202556 -1.4146429 1.8719589 234 88 12
0.058784738 -1.471828 2.2434385 234 88 12
0.080954954 -1.4574605 2.1480749 234 88 12
0.12309787 -1.4265039 1.9408597 234 88 12
0.094853595 -1.4520969 2.1142128 234 88 12
-0.0065489439 -1.431145 1.9253933 234 88 12
0.0011493225 -1.4308102 1.9253933 234 88 12
0.013979767 -1.4302523 1.9253933 234 88 12
0.053140003 -1.4646114 2.1879363 234 88 12
0.094876498 -1.4526237 2.1138725 234 88 12
0.26392484 -1.3207923 1.2075982 234 88 12
0.0023731147 -1.4409776 1.9928218 234 88 12
-0.14815593 -1.3418926 1.2055459 234 88 12
0.045506228 -1.4546442 2.1086595 234 88 12
0.053876195 -1.4542804 2.1086595 234 88 12
0.12441939 -1.42852 1.939523 234 88 12
0.0013650048 -1.4419022 1.992254 234 88 12
0.12446438 -1.4295548 1.9388547 234 88 12
0.069375493 -1.4546905 2.1079607 234 88 12
0.095595025 -1.4547036 2.1125116 234 88 12
0.26825932 -1.333339 1.1993891 234 88 12
1.1383876 0.12445862 2.1015308 234 88 12
1.1371393 0.13465656 2.1015308 234 88 12
1.1404535 0.11694845 2.1009362 234 88 12
1.1428316 0.10688879 2.1003413 234 88 12
1.1426755 0.10816354 2.1003413 234 88 12
1.1409593 0.12218571 2.1003413 234 88 12
1.1612033 0.13421686 2.1592507 234 88 12
1.1610761 0.13525642 2.1592507 234 88 12
1.1384628 0.1425816 2.1003413 234 88 12
1.1445855 0.10192811 2.0997467 234 88 12
1.1388124 0.14909361 2.0997467 234 88 12
1.1449351 0.10844012 2.0991518 234 88 12
1.1612647 0.14899635 2.1582808 234 88 12
1.2484689 0.15277511 2.4015048 234 88 12
1.1676881 0.1117975 2.157311 234 88 12
1.1417716 0.1623942 2.0973678 234 88 12
1.1717554 0.10912991 2.155371 234 88 12
1.2033975 0.128791 2.2570317 234 88 12
1.165266 0.16214782 2.155371 234 88 12
1.1446929 0.16663331 2.0955837 234 88 12
1.1720713 0.12183026 2.1544008 234 88 12
1.1746469 0.10842867 2.1539159 234 88 12
1.1729927 0.12194304 2.1539159 234 88 12
1.1713386 0.13545741 2.1539159 234 88 12
1.1675212 0.16664441 2.1539159 234 88 12
1.1469902 0.17597137 2.0937996 234 88 12
1.1722599 0.13557018 2.1534309 234 88 12
1.1590797 0.095939137 2.0926101 234 88 12
1.2055277 0.13489509 2.2555397 234 88 12
1.1711103 0.17552483 2.1514909 234 88 12
1.1719044 0.17667718 2.151006 234 88 12
1.1557544 0.18868868 2.0884473 234 88 12
1.2449547 0.15073694 2.3829131 234 88 12
1.2539943 0.15378793 2.4167445 234 88 12
1.1580141 0.18896526 2.0872579 234 88 12
1.185449 0.11186113 2.1480961 234 88 12
1.2120585 0.12855259 2.2525551 234 88 12
1.2241622 0.14512123 2.3040755 234 88 12
1.1627077 0.13088804 2.0736778 234 88 12
1.0070444 0.10347863 1.4939409 234 88 12
1.1589879 0.19037829 2.086663 234 88 12
1.2411809 0.14979404 2.3674593 234 88 12
1.2261602 0.14604835 2.3102064 234 88 12
1.1724081 0.13314666 2.1055543 234 88 12
1.0103018 0.1002501 1.4910831 234 88 12
1.036996 0.11575772 1.5968366 234 88 12
1.0299486 0.1178429 1.5717143 234 88 12
0.99494606 0.11988698 1.4431767 234 88 12
0.99448931 0.12361844 1.4431767 234 88 12
1.1491727 0.17253029 2.0374434 234 88 12
1.1720135 0.10269759 2.0854738 234 88 12
1.2124095 0.13508816 2.2519584 234 88 12
1.1975393 0.13928607 2.1980793 234 88 12
1.0203772 0.10920817 1.519375 234 88 12
1.000977 0.10933339 1.4466243 234 88 12
1.0022705 0.11707509 1.4550344 234 88 12
0.9977966 0.12402324 1.4414359 234 88 12
0.99694651 0.13525461 1.4434049 234 88 12
1.2382233 0.15289143 2.3570158 234 88 12
1.1386441 0.124385 1.963527 234 88 12
1.0833687 0.1157552 1.7489755 234 88 12
1.0238413 0.10614657 1.5177728 234 88 12
1.0234209 0.10958073 1.5177728 234 88 12
1.2067996 0.15302137 2.2364624 234 88 12
1.0085596 0.1754397 1.4918724 234 88 12
1.0556145 0.11858359 1.6329452 234 88 12
1.0552484 0.12157389 1.6329452 234 88 12
1.0028738 0.12465631 1.4319273 234 88 12
1.0035144 0.13606027 1.4398 234 88 12
1.1584437 0.14973775 2.0452168 234 88 12
1.160928 0.15537038 2.0574861 234 88 12
1.0968173 0.11830176 1.7825643 234 88 12
1.0962255 0.12313636 1.7825643 234 88 12
1.0100745 0.11798461 1.441976 234 88 12
1.0176414 0.12273754 1.4739567 234 88 12
1.0127226 0.12951222 1.4579065 234 88 12
1.0023243 0.15509976 1.4293885 234 88 12
1.0014045 0.16261448 1.4293885 234 88 12
0.99956495 0.1776439 1.4293885 234 88 12
1.0208061 0.047367632 1.435268 234 88 12
1.1341028 0.12838134 1.9262699 234 88 12
1.1305506 0.12960875 1.9127131 234 88 12
1.021261 0.11953857 1.4722826 234 88 12
1.1218772 0.1445052 1.8854154 234 88 12
1.1787519 0.14955693 2.1145246 234 88 12
1.2296553 0.15528946 2.3201697 234 88 12
1.0015155 0.18932359 1.4276356 234 88 12
1.024567 0.044043668 1.4335287 234 88 12
1.023198 0.055229008 1.4335287 234 88 12
1.151286 0.13350852 1.990674 234 88 12
1.1510874 0.13513045 1.990674 234 88 12
1.1263845 0.13278277 1.8895386 234 88 12
1.0479736 0.12336619 1.567547 234 88 12
1.0198525 0.12297545 1.4535477 234 88 12
1.0975337 0.13557586 1.7741636 234 88 12
1.1799177 0.14852661 2.1139853 234 88 12
1.0108243 0.14088556 1.4258826 234 88 12
1.0099045 0.14840028 1.4258826 234 88 12
1.0094446 0.15215763 1.4258826 234 88 12
1.0043858 0.19348857 1.4258826 234 88 12
1.0261118 0.0436019 1.4241297 234 88 12
1.0265026 0.055633489 1.4317893 234 88 12
1.0512235 0.12049396 1.566044 234 88 12
1.036155 0.12156677 1.5046418 234 88 12
1.1025463 0.13616666 1.7849028 234 88 12
1.2140104 0.15021713 2.2501678 234 88 12
1.029902 0.04025216 1.4223768 234 88 12
1.0280625 0.055281587 1.4223768 234 88 12
1.0184046 0.13418609 1.4223768 234 88 12
1.0096666 0.20557587 1.4223768 234 88 12
1.0317427 0.067627795 1.4283104 234 88 12
1.0370224 0.037310034 1.4188709 234 88 12
1.0350473 0.068032272 1.4265709 234 88 12
1.0305837 0.089913033 1.4188709 234 88 12
1.029664 0.097427748 1.4188709 234 88 12
1.0269046 0.11997189 1.4188709 234 88 12
1.0264447 0.12372924 1.4188709 234 88 12
1.0250651 0.13500132 1.4188709 234 88 12
1.0398927 0.041475009 1.4171181 234 88 12
1.2258483 0.13901147 2.2847707 234 88 12
1.184386 0.12075105 2.0931828 234 88 12
1.038053 0.056504436 1.4171181 234 88 12
1.0187374 0.21431343 1.4171181 234 88 12
1.0400037 0.068184122 1.4153651 234 88 12
1.038164 0.083213553 1.4153651 234 88 12
1.1885201 0.18609691 2.1417911 234 88 12
1.219761 0.13144316 2.2483773 234 88 12
1.047473 0.034775529 1.4136121 234 88 12
1.0442536 0.061077025 1.4136121 234 88 12
1.0433338 0.068591744 1.4136121 234 88 12
1.0414943 0.083621167 1.4136121 234 88 12
1.0401145 0.094893239 1.4136121 234 88 12
1.038275 0.10992267 1.4136121 234 88 12
1.0368953 0.12119474 1.4136121 234 88 12
1.0364354 0.12495209 1.4136121 234 88 12
1.0350556 0.13622417 1.4136121 234 88 12
1.0508031 0.035183143 1.4118593 234 88 12
1.1873399 0.12359639 2.0914702 234 88 12
1.0383859 0.13663179 1.4118593 234 88 12
1.0278082 0.223051 1.4118593 234 88 12
1.1903629 0.18632247 2.1408212 234 88 12
1.1996822 0.11782384 2.1403363 234 88 12
1.0503162 0.065590262 1.4094249 234 88 12
1.1769092 0.19386569 2.0771477 234 88 12
1.0531884 0.069758043 1.4076709 234 88 12
1.0518079 0.081037723 1.4076709 234 88 12
1.0532995 0.09648519 1.4059168 234 88 12
1.0520557 0.10779577 1.4066005 234 88 12
1.0645839 0.033056252 1.4048476 234 88 12
1.0535463 0.12323282 1.4048476 234 88 12
1.0402093 0.23219617 1.4048476 234 88 12
1.0745746 0.034279101 1.3995888 234 88 12
1.1935833 0.13553761 2.0874746 234 88 12
1.0661691 0.10187665 1.3989004 234 88 12
1.0652487 0.10939644 1.3989004 234 88 12
1.063537 0.12445567 1.3995888 234 88 12
1.2343069 0.16159548 2.3173571 234 88 12
1.0497401 0.23717637 1.3995888 234 88 12
1.0779048 0.034686718 1.3978359 234 88 12
1.1955663 0.12832898 2.0869036 234 88 12
1.1946677 0.13567035 2.0869036 234 88 12
1.0667404 0.1248439 1.3971462 234 88 12
1.2253523 0.13277678 2.245393 234 88 12
1.0559406 0.24174897 1.396083 234 88 12
1.1985202 0.13117433 2.0851912 234 88 12
1.0916855 0.032559827 1.3908242 234 88 12
1.1991553 0.13497774 2.0846202 234 88 12
1.1016762 0.033782676 1.3855655 234 88 12
1.2369325 0.16229931 2.3159509 234 88 12
1.1050065 0.03419029 1.3838125 234 88 12
1.0783323 0.25211701 1.3838125 234 88 12
1.2505841 0.1520523 2.3904402 234 88 12
1.1925598 0.15275678 2.0085306 234 88 12
1.1914682 0.16167429 2.0085306 234 88 12
1.1947867 0.14548674 2.0078373 234 88 12
1.1187872 0.032063399 1.3768009 234 88 12
1.1986947 0.13540544 2.0064504 234 88 12
1.238844 0.16329816 2.3148961 234 88 12
1.0945235 0.25791243 1.3750479 234 88 12
1.1259075 0.029121276 1.3732951 234 88 12
1.2003758 0.13259417 2.0057571 234 88 12
1.200012 0.13556667 2.0057571 234 88 12
1.1983747 0.14894296 2.0057571 234 88 12
1.1967375 0.16231924 2.0057571 234 88 12
1.199692 0.14910419 2.0050635 234 88 12
1.2314928 0.15357865 2.2459073 234 88 12
1.1330279 0.026179152 1.3697892 234 88 12
1.1991901 0.16412796 2.0043702 234 88 12
1.2388886 0.13650288 2.2781672 234 88 12
1.2339113 0.14755279 2.2450354 234 88 12
1.2003694 0.17634048 2.0029836 234 88 12
1.2087815 0.11853781 2.00229 234 88 12
1.1477284 0.016537545 1.3627775 234 88 12
1.1515186 0.013187805 1.3610246 234 88 12
1.2119617 0.11440152 2.0009034 234 88 12
1.1207054 0.26493073 1.3610246 234 88 12
1.1553087 0.0098380642 1.3592716 234 88 12
1.2123694 0.12199402 2.00021 234 88 12
1.2522435 0.14936134 2.3897505 234 88 12
1.2183225 0.10612894 1.9981298 234 88 12
1.2389193 0.13868293 2.2430015 234 88 12
1.2133166 0.16887407 1.9967431 234 88 12
1.212407 0.17630534 1.9967431 234 88 12
1.2416611 0.13459322 2.2418392 234 88 12
1.2260004 0.098017596 1.9946629 234 88 12
1.2392398 0.15895221 2.2415485 234 88 12
1.2304981 0.09404254 1.9925828 234 88 12
1.2303162 0.095528796 1.9925828 234 88 12
1.2212204 0.16984148 1.9925828 234 88 12
1.2204927 0.1757865 1.9925828 234 88 12
1.2293171 0.12890542 1.9972969 234 88 12
1.2285998 0.13476577 1.9972969 234 88 12
1.2281051 0.14957562 1.9966134 234 88 12
1.2331694 0.11896766 1.9959298 234 88 12
1.2263076 0.17197269 1.9898093 234 88 12
1.2257619 0.17643145 1.9898093 234 88 12
1.2292675 0.16161424 1.9952464 234 88 12
1.2393115 0.087578692 1.9884225 234 88 12
1.2394396 0.11081288 1.9931958 234 88 12
1.2541094 0.1480891 2.3888638 234 88 12
1.2409174 0.10950673 1.9925123 234 88 12
1.2394828 0.12122745 1.9925123 234 88 12
1.2387655 0.12708782 1.9925123 234 88 12
1.2376896 0.13587835 1.9925123 234 88 12
1.2360756 0.14906418 1.9925123 234 88 12
1.238988 0.1360373 1.9918288 234 88 12
1.2540798 0.14812987 2.3832519 234 88 12
1.2542055 0.14801891 2.383194 234 88 12
1.2451717 0.10705337 1.9904618 234 88 12
1.2399713 0.14954101 1.9904618 234 88 12
1.2396559 0.16288576 1.9897783 234 88 12
1.252894 0.12522092 2.2366087 234 88 12
1.2393404 0.17623052 1.9890947 234 88 12
0.12474475 1.2021664 2.2579269 234 88 12
0.12097608 1.2032032 2.2576284 234 88 12
0.13151939 1.2149415 2.2909026 234 88 12
0.099348493 1.1552221 2.0943942 234 88 12
0.094249517 1.1558461 2.0943942 234 88 12
0.13471702 1.2159144 2.290195 234 88 12
0.094526097 1.1581059 2.093205 234 88 12
0.093251355 1.1582619 2.093205 234 88 12
0.13489509 1.2055277 2.2555397 234 88 12
0.10896315 1.159779 2.0914207 234 88 12
0.15729672 1.2461421 2.392411 234 88 12
0.11003213 1.1791265 2.1514909 234 88 12
0.10691343 1.1795082 2.1514909 234 88 12
0.13802433 1.2177833 2.2890158 234 88 12
0.10020034 1.1850059 2.149066 234 88 12
0.11696898 1.2129009 2.2528536 234 88 12
0.11644319 1.1680375 2.086663 234 88 12
0.1160194 1.1849401 2.1480961 234 88 12
0.084574603 1.1719382 2.086663 234 88 12
0.080750376 1.1724063 2.086663 234 88 12
0.14909168 1.21012 2.2522569 234 88 12
0.14952959 1.2195585 2.287365 234 88 12
0.049073681 1.0038267 1.4439653 234 88 12
0.17543752 1.2086457 2.2563682 234 88 12
0.17481467 1.208722 2.2563682 234 88 12
0.25532556 0.97991639 1.4346472 234 88 12
0.12144279 1.1861466 2.1471262 234 88 12
0.20142484 1.1464919 2.0293319 234 88 12
0.24070373 0.9850862 1.4328943 234 88 12
0.057339538 1.0095232 1.4404864 234 88 12
0.30498642 0.98059821 1.4311414 234 88 12
0.20604482 1.1472635 2.0286386 234 88 12
0.18820979 1.1494465 2.0286386 234 88 12
0.061472464 1.0123714 1.4387469 234 88 12
0.11954583 1.1722448 2.0842843 234 88 12
0.22648954 0.99358624 1.4293885 234 88 12
0.1675408 1.170954 2.0971787 234 88 12
0.31331638 0.98633885 1.4276356 234 88 12
0.21938245 0.99783629 1.4276356 234 88 12
0.21186773 0.99875605 1.4276356 234 88 12
0.07346677 1.0176116 1.435268 234 88 12
0.1223719 1.1741924 2.0830948 234 88 12
0.21227534 1.0020863 1.4258826 234 88 12
0.20100328 1.003466 1.4258826 234 88 12
0.081328146 1.0200034 1.4335287 234 88 12
0.078004174 1.0237644 1.4317893 234 88 12
0.18089338 1.2119001 2.2543342 234 88 12
0.17415342 1.1578521 2.0251718 234 88 12
0.16158481 1.2142636 2.2543342 234 88 12
0.19806115 1.0105863 1.4223768 234 88 12
0.18678908 1.011966 1.4223768 234 88 12
0.097050898 1.0247872 1.4300498 234 88 12
0.093322448 1.0252435 1.4300498 234 88 12
-0.008593481 1.0358807 1.4223768 234 88 12
-0.016108194 1.0368005 1.4223768 234 88 12
0.18323219 1.158078 2.0244784 234 88 12
0.17431466 1.1591694 2.0244784 234 88 12
0.16040666 1.2149681 2.2540436 234 88 12
0.17216727 1.0171359 1.4206239 234 88 12
0.1608952 1.0185155 1.4206239 234 88 12
0.14586055 1.0201968 1.4199495 234 88 12
0.13458088 1.0215775 1.4199495 234 88 12
0.11954131 1.0234183 1.4199495 234 88 12
0.14105721 1.1912273 2.1432462 234 88 12
-0.00067115034 1.0382911 1.4206239 234 88 12
0.15041593 1.250702 2.4004962 234 88 12
-0.023215292 1.0410506 1.4206239 234 88 12
0.2049454 1.1580642 2.0294218 234 88 12
0.20055012 1.1586021 2.0294218 234 88 12
0.14627339 1.0236853 1.4188709 234 88 12
0.13124396 1.0255249 1.4188709 234 88 12
0.10490963 1.0285916 1.4181955 234 88 12
0.093629949 1.0299722 1.4181955 234 88 12
0.0072511798 1.0407015 1.4188709 234 88 12
-0.03032239 1.0453005 1.4188709 234 88 12
0.079722084 1.1851465 2.0801213 234 88 12
0.21625224 1.1567104 2.0230916 234 88 12
0.17673986 1.0233364 1.4171181 234 88 12
0.1729825 1.0237962 1.4171181 234 88 12
0.15795307 1.0256358 1.4171181 234 88 12
0.078998268 1.0351455 1.4164413 234 88 12
0.097620957 1.1984143 2.1422763 234 88 12
0.21641347 1.1580276 2.0223982 234 88 12
0.090728268 1.0372442 1.4153651 234 88 12
0.079406157 1.038478 1.4146873 234 88 12
0.015581126 1.0464422 1.4153651 234 88 12
0.16628303 1.0313765 1.4136121 234 88 12
0.15876831 1.0322963 1.4136121 234 88 12
0.14749624 1.033676 1.4136121 234 88 12
0.13246681 1.0355155 1.4136121 234 88 12
0.12119474 1.0368953 1.4136121 234 88 12
0.11743738 1.0373552 1.4136121 234 88 12
0.10616531 1.0387348 1.4136121 234 88 12
0.091135882 1.0405744 1.4136121 234 88 12
0.079863809 1.0419542 1.4136121 234 88 12
0.064774476 1.0436513 1.4129331 234 88 12
0.019746101 1.0493125 1.4136121 234 88 12
0.012231386 1.0502323 1.4136121 234 88 12
-0.036614254 1.056211 1.4136121 234 88 12
0.21169285 1.1765569 2.0914702 234 88 12
0.16025831 1.167575 2.0210114 234 88 12
0.14790386 1.0370061 1.4118593 234 88 12
0.12706716 1.1976157 2.1408212 234 88 12
0.12082976 1.1983792 2.1408212 234 88 12
0.11979019 1.1985064 2.1408212 234 88 12
0.023911074 1.0521828 1.4118593 234 88 12
0.012639002 1.0535625 1.4118593 234 88 12
0.10003842 1.200924 2.1408212 234 88 12
0.15582618 1.0394167 1.4101063 234 88 12
0.065590262 1.0503162 1.4094249 234 88 12
0.12614037 1.1986643 2.1403363 234 88 12
0.093913801 1.2026088 2.1403363 234 88 12
0.21854468 1.1631149 2.0196247 234 88 12
0.18584709 1.167117 2.0196247 234 88 12
0.17395706 1.1685724 2.0196247 234 88 12
0.16058077 1.1702096 2.0196247 234 88 12
0.092358731 1.0505651 1.4083534 234 88 12
0.0773293 1.0524046 1.4083534 234 88 12
0.028483663 1.0583833 1.4083534 234 88 12
0.16074201 1.1715269 2.0189314 234 88 12
0.11906785 1.050676 1.4066005 234 88 12
0.10403842 1.0525156 1.4066005 234 88 12
0.051366471 1.058822 1.4059168 234 88 12
0.17130703 1.1715708 2.0182378 234 88 12
0.14752696 1.1744815 2.0182378 234 88 12
0.13450488 1.0521667 1.4048476 234 88 12
0.036813609 1.064124 1.4048476 234 88 12
0.025541538 1.0655037 1.4048476 234 88 12
0.19172496 1.1715443 2.0232701 234 88 12
0.18732968 1.1720823 2.0232701 234 88 12
0.18187204 1.1716146 2.0175445 234 88 12
0.067280084 1.0637751 1.4030946 234 88 12
0.052250654 1.0656146 1.4030946 234 88 12
-0.045440629 1.077572 1.4030946 234 88 12
0.32694533 1.0353723 1.4013418 234 88 12
0.20213953 1.1715876 2.0225868 234 88 12
0.093989193 1.0638859 1.4013418 234 88 12
0.078959771 1.0657256 1.4013418 234 88 12
0.32735294 1.0387025 1.3995888 234 88 12
0.1131836 1.0649167 1.3995888 234 88 12
0.10566888 1.0658365 1.3995888 234 88 12
0.090639457 1.0676761 1.3995888 234 88 12
0.079367384 1.0690558 1.3995888 234 88 12
0.064337954 1.0708953 1.3995888 234 88 12
0.053065885 1.072275 1.3995888 234 88 12
0.038036458 1.0741147 1.3995888 234 88 12
0.026764387 1.0754944 1.3995888 234 88 12
0.079968534 1.1977307 2.0735795 234 88 12
0.21564323 1.1725707 2.0212197 234 88 12
0.038444076 1.0774449 1.3978359 234 88 12
0.14091237 1.2371775 2.3171813 234 88 12
0.080106825 1.1988604 2.0729849 234 88 12
0.17758335 1.2265842 2.2819407 234 88 12
0.22115958 1.1721541 2.014771 234 88 12
0.065153189 1.0775558 1.396083 234 88 12
0.050123762 1.0793954 1.396083 234 88 12
0.15342852 1.2363235 2.3168297 234 88 12
0.15357906 1.2544533 2.4175675 234 88 12
0.13363184 1.1842045 2.0140777 234 88 12
0.095619664 1.0772069 1.39433 234 88 12
0.091862306 1.0776668 1.39433 234 88 12
0.080590233 1.0790465 1.39433 234 88 12
0.032811873 1.0865124 1.4033111 234 88 12
0.21465497 1.1766456 2.0191691 234 88 12
0.20146914 1.1782596 2.0191691 234 88 12
0.13379307 1.1855217 2.0133843 234 88 12
0.094002008 1.2119499 2.1354864 234 88 12
0.096504748 1.165979 1.8655912 234 88 12
0.040363412 1.0911833 1.3934424 234 88 12
0.097233482 1.2124896 2.1350014 234 88 12
0.16808994 1.1849811 2.0178022 234 88 12
0.066783652 1.0908767 1.3890713 234 88 12
0.092677318 1.1682678 1.8646472 234 88 12
0.14149356 1.2388011 2.3163025 234 88 12
0.13320397 1.2398158 2.3163025 234 88 12
0.18224478 1.2229412 2.2485225 234 88 12
0.17850451 1.1850244 2.0171187 234 88 12
0.13907911 1.223537 2.2202551 234 88 12
0.13501702 1.2186261 2.187644 234 88 12
0.13417259 1.2187295 2.187644 234 88 12
0.11529164 1.1923866 2.0148571 234 88 12
0.12008096 1.2062721 2.1021235 234 88 12
0.32685652 1.0658041 1.3855655 234 88 12
0.18891908 1.1850677 2.0164351 234 88 12
0.1577777 1.237486 2.3159509 234 88 12
0.14798091 1.238685 2.3159509 234 88 12
0.1472273 1.2387773 2.3159509 234 88 12
0.13956957 1.227932 2.2433462 234 88 12
0.13505523 1.2209249 2.1967626 234 88 12
0.13425609 1.2210428 2.1968863 234 88 12
0.12805179 1.2138904 2.1481342 234 88 12
0.12136204 1.207155 2.1015844 234 88 12
0.12340175 1.2052023 2.0837686 234 88 12
0.12640612 1.2120038 2.1289296 234 88 12
0.12132739 1.2060485 2.0874994 234 88 12
0.21121334 1.1849748 2.0150681 234 88 12
0.13222654 1.2203223 2.1805067 234 88 12
0.12025325 1.2072638 2.0869374 234 88 12
0.21869773 1.1853768 2.0143845 234 88 12
0.15001932 1.2522413 2.3997233 234 88 12
0.16024289 1.2388791 2.3150718 234 88 12
-0.050598454 1.1289049 1.3768009 234 88 12
0.080491565 1.2125745 2.0658484 234 88 12
0.13315418 1.2425337 2.3148961 234 88 12
0.32595247 1.0895756 1.3732951 234 88 12
0.22028314 1.1896428 2.0057571 234 88 12
0.32636008 1.0929059 1.3715421 234 88 12
0.16187271 1.2396965 2.3145444 234 88 12
0.080906436 1.215964 2.0640643 234 88 12
0.19799288 1.198455 2.0089166 234 88 12
0.10876151 1.2095344 2.0101876 234 88 12
0.10730096 1.2097132 2.0101876 234 88 12
0.096733235 1.2256435 2.1282115 234 88 12
0.3242332 1.1066866 1.3645304 234 88 12
0.20840746 1.1984982 2.0082331 234 88 12
0.21735695 1.1987208 2.0075495 234 88 12
0.11053897 1.2119447 2.0088248 234 88 12
0.10761786 1.2123022 2.0088248 234 88 12
0.096958786 1.2274864 2.1272416 234 88 12
0.21992554 1.1990458 2.0009034 234 88 12
0.12273447 1.2016293 1.9190857 234 88 12
0.12095782 1.2018467 1.9190857 234 88 12
0.09983813 1.1960318 1.8452859 234 88 12
0.21474464 1.2016765 2.0061824 234 88 12
0.20155883 1.2032905 2.0061824 234 88 12
0.10005929 1.1978387 1.8443348 234 88 12
0.054343991 1.1710812 1.5514034 234 88 12
0.08314921 1.2237167 2.0599012 234 88 12
0.3221063 1.1204674 1.3575188 234 88 12
0.11916971 1.2046347 1.9115686 234 88 12
0.10231902 1.1993959 1.8433838 234 88 12
0.054677751 1.173808 1.5499681 234 88 12
0.051601194 1.1741846 1.5499681 234 88 12
0.12089077 1.220479 2.0499229 234 88 12
0.10896262 1.2135488 1.9690351 234 88 12
0.10737116 1.2137436 1.9690351 234 88 12
0.10825165 1.2174803 2.0060992 234 88 12
0.10533053 1.2178379 2.0060992 234 88 12
0.08342579 1.2259763 2.058712 234 88 12
0.12233821 1.2214766 2.0493135 234 88 12
0.32120228 1.1442388 1.3452483 234 88 12
0.21748126 1.2118855 2.0007145 234 88 12
0.21455108 1.2122442 2.0007145 234 88 12
0.32160988 1.1475691 1.3434954 234 88 12
0.099577233 1.2402585 2.1204517 234 88 12
0.32324034 1.1608899 1.3364837 234 88 12
0.087634765 1.2392223 2.0515754 234 88 12
0.21922959 1.2261695 1.9931958 234 88 12
0.21938853 1.227468 1.9925123 234 88 12
0.095114797 1.2474808 2.0468178 234 88 12
0.11975744 1.243395 1.9842622 234 88 12
0.064301521 1.2263849 1.3189545 234 88 12
0.12784652 1.2470855 2.1151168 234 88 12
0.12056955 1.2479762 2.1151168 234 88 12
0.096527837 1.2484546 2.0462232 234 88 12
0.13329495 1.243075 1.9835688 234 88 12
0.13731539 1.2468617 2.1146319 234 88 12
0.15151715 1.2538892 2.3831358 234 88 12
0.11196304 1.247712 2.0456283 234 88 12
0.14088745 1.2434827 1.9828755 234 88 12
0.11771975 1.2266068 1.3154486 234 88 12
-1.3293488 1.3109725 1.9533178 234 88 12
-1.3268926 1.310432 1.9484645 234 88 12
-1.1987531 1.2136997 1.6106703 234 88 12
-1.2008253 1.2115973 1.6106703 234 88 12
-1.197443 1.2165534 1.6096538 234 88 12
-1.2807342 1.2751579 1.8214253 234 88 12
-1.2124374 1.2043904 1.607621 234 88 12
-1.2224448 1.2369486 1.6672362 234 88 12
-1.1950374 1.2266173 1.6045716 234 88 12
-1.2219872 1.2399594 1.6655384 234 88 12
-1.2797114 1.2794365 1.8192647 234 88 12
-1.1931795 1.2330761 1.6015223 234 88 12
-1.218047 1.2078471 1.6015223 234 88 12
-1.2055123 1.2187237 1.5950308 234 88 12
-1.2125921 1.2130874 1.5939996 234 88 12
-1.2796861 1.2820548 1.8175362 234 88 12
-1.2889366 1.2726698 1.8175362 234 88 12
-1.2255145 1.204845 1.598473 234 88 12
-1.19312 1.239235 1.5974565 234 88 12
-1.2907476 1.2897722 1.8477052 234 88 12
-1.2025764 1.2263421 1.5919373 234 88 12
-1.2006917 1.2328942 1.5888439 234 88 12
-1.2091006 1.2243631 1.5888439 234 88 12
-1.2122539 1.2211639 1.5888439 234 88 12
-1.221714 1.2115663 1.5888439 234 88 12
-1.2259184 1.2073007 1.5888439 234 88 12
-1.2927594 1.2720324 1.8153756 234 88 12
-1.2902751 1.292882 1.8459517 234 88 12
-1.2124715 1.2255832 1.5857506 234 88 12
-1.1995802 1.2402085 1.5847194 234 88 12
-1.2258581 1.2135485 1.5847194 234 88 12
-1.3029566 1.2810682 1.8452502 234 88 12
-1.1919649 1.2526041 1.589325 234 88 12
-1.1916909 1.2544066 1.5883085 234 88 12
-1.1947994 1.251253 1.5883085 234 88 12
-1.2906121 1.2946444 1.8445488 234 88 12
-1.3044606 1.2811205 1.8441981 234 88 12
-1.2391844 1.2077619 1.5795639 234 88 12
-1.2585403 1.2257942 1.6502587 234 88 12
-1.1988845 1.2532071 1.5842427 234 88 12
-1.3062277 1.281432 1.8427953 234 88 12
-1.212073 1.2399075 1.5764704 234 88 12
-1.2257375 1.2260443 1.5764704 234 88 12
-1.2394019 1.2121812 1.5764704 234 88 12
-1.263046 1.2250428 1.647712 234 88 12
-1.0279826 1.1116489 0.95725489 234 88 12
-1.0359598 1.1035557 0.95725489 234 88 12
-1.0386189 1.1008579 0.95725489 234 88 12
-1.0492553 1.0900669 0.95725489 234 88 12
-1.0519145 1.0873692 0.95725489 234 88 12
-1.2806736 1.2927201 1.8097579 234 88 12
-1.2010061 1.2542286 1.5744082 234 88 12
-1.2031083 1.2520958 1.5744082 234 88 12
-1.0193024 1.124368 0.95464641 234 88 12
-1.0246205 1.1189725 0.95464641 234 88 12
-1.0272796 1.1162747 0.95464641 234 88 12
-1.0381191 1.1056283 0.95533764 234 88 12
-1.0407764 1.1029323 0.95533764 234 88 12
-1.0514055 1.0921487 0.95533764 234 88 12
-1.0540628 1.0894527 0.95533764 234 88 12
-1.0645069 1.0785064 0.95464641 234 88 12
-1.2314883 1.2233031 1.5744082 234 88 12
-1.2388462 1.2158383 1.5744082 234 88 12
-1.2430507 1.2115728 1.5744082 234 88 12
-1.1933703 1.2664245 1.5791605 234 88 12
-1.0159403 1.1316916 0.95203787 234 88 12
-1.0719614 1.075204 0.95273089 234 88 12
-1.0792308 1.071739 0.95012414 234 88 12
-1.3331544 1.3112876 1.9505336 234 88 12
-1.0113935 1.1483825 0.94491059 234 88 12
-1.02468 1.134903 0.94491059 234 88 12
-1.0379665 1.1214234 0.94491059 234 88 12
-1.051253 1.1079437 0.94491059 234 88 12
-1.0645394 1.0944641 0.94491059 234 88 12
-1.0778259 1.0809845 0.94491059 234 88 12
-1.0911124 1.0675048 0.94491059 234 88 12
-1.0962633 1.0619391 0.94421232 234 88 12
-1.1933109 1.2725834 1.5750947 234 88 12
-1.1984916 1.2673273 1.5750947 234 88 12
-1.0078105 1.1555905 0.94160378 234 88 12
-1.010691 1.1530054 0.94230384 234 88 12
-1.0213202 1.1422217 0.94230384 234 88 12
-1.0239775 1.1395258 0.94230384 234 88 12
-1.0346067 1.128742 0.94230384 234 88 12
-1.037264 1.1260461 0.94230384 234 88 12
-1.0478932 1.1152624 0.94230384 234 88 12
-1.0505505 1.1125665 0.94230384 234 88 12
-1.0611796 1.1017828 0.94230384 234 88 12
-1.0638369 1.0990869 0.94230384 234 88 12
-1.0744661 1.0883031 0.94230384 234 88 12
-1.0797807 1.0829113 0.94230384 234 88 12
-1.0877526 1.0748235 0.94230384 234 88 12
-1.0930672 1.0694317 0.94230384 234 88 12
-1.1010391 1.0613439 0.94230384 234 88 12
-1.312622 1.2791533 1.8399894 234 88 12
-1.0073313 1.160324 0.93969709 234 88 12
-1.3072519 1.302112 1.8752611 234 88 12
-1.2856218 1.2893695 1.8025099 234 88 12
-1.3382732 1.3193507 1.9774253 234 88 12
-1.1056513 1.0605748 0.93969709 234 88 12
-1.2529458 1.2108138 1.5682214 234 88 12
-1.0119435 1.159555 0.93709034 234 88 12
-1.0783758 1.0921568 0.93709034 234 88 12
-1.0916623 1.0786772 0.93709034 234 88 12
-1.1049488 1.0651975 0.93709034 234 88 12
-1.2526679 1.2126423 1.5671903 234 88 12
-1.0032691 1.1722654 0.93448353 234 88 12
-1.2930733 1.2831409 1.8016224 234 88 12
-1.12019 1.0536447 0.93448353 234 88 12
-1.3057082 1.3048545 1.8744769 234 88 12
-1.1274595 1.0501796 0.93187678 234 88 12
-1.1940136 1.2794937 1.5700125 234 88 12
-0.99654955 1.1869028 0.92927003 234 88 12
-1.1320716 1.0494106 0.92927003 234 88 12
-0.99318981 1.1942215 0.92666328 234 88 12
-1.3050343 1.3063223 1.8739541 234 88 12
-1.0968243 1.0890803 0.92666328 234 88 12
-1.1047962 1.0809926 0.92666328 234 88 12
-1.1101108 1.0756007 0.92666328 234 88 12
-1.1180826 1.067513 0.92666328 234 88 12
-1.1233972 1.062121 0.92666328 234 88 12
-1.1313691 1.0540333 0.92666328 234 88 12
-1.1366837 1.0486414 0.92666328 234 88 12
1.3186945 -1.3380972 1.9767011 234 88 12
1.2030425 -1.2488885 1.6532882 234 88 12
1.3129028 -1.3341089 1.9610507 234 88 12
1.2009523 -1.2522563 1.6524038 234 88 12
1.2119279 -1.2414379 1.6524038 234 88 12
1.1983402 -1.2587535 1.6497507 234 88 12
1.2294712 -1.2659941 1.709872 234 88 12
1.2302171 -1.2652588 1.709872 234 88 12
1.1954672 -1.2668155 1.6462132 234 88 12
1.2390625 -1.2608054 1.7069871 234 88 12
1.1986039 -1.2663389 1.6444443 234 88 12
1.226043 -1.239293 1.6444443 234 88 12
1.223719 -1.2780616 1.7055447 234 88 12
1.1916796 -1.2757791 1.6426756 234 88 12
1.1989967 -1.2685668 1.6426756 234 88 12
1.2227603 -1.2800729 1.7048235 234 88 12
1.228265 -1.239718 1.6426756 234 88 12
1.2909868 -1.3116473 1.8797052 234 88 12
1.2307479 -1.2385781 1.6417912 234 88 12
1.1902431 -1.2798101 1.6409068 234 88 12
1.2253183 -1.2796842 1.7033809 234 88 12
1.2394904 -1.2657152 1.7033809 234 88 12
1.2928021 -1.3102444 1.8794438 234 88 12
1.2175413 -1.2926813 1.6997749 234 88 12
1.2548361 -1.255921 1.6997749 234 88 12
1.2442093 -1.23577 1.6347162 234 88 12
1.1863264 -1.294131 1.6338317 234 88 12
1.2157315 -1.2997969 1.6961687 234 88 12
1.2231904 -1.2924448 1.6961687 234 88 12
1.2254281 -1.2902392 1.6961687 234 88 12
1.2373625 -1.2784759 1.6961687 234 88 12
1.2388543 -1.2770054 1.6961687 234 88 12
1.2255356 -1.2933322 1.694005 234 88 12
1.2389618 -1.2800984 1.694005 234 88 12
1.1847608 -1.3035195 1.6285254 234 88 12
1.1856754 -1.3026179 1.6285254 234 88 12
1.2146676 -1.3061773 1.6925626 234 88 12
1.1848927 -1.3073121 1.6258723 234 88 12
1.1858072 -1.3064107 1.6258723 234 88 12
1.0212749 -1.1563724 0.94377518 234 88 12
1.0265799 -1.1510801 0.94363749 234 88 12
1.0205127 -1.1609435 0.94119161 234 88 12
1.0258175 -1.1556518 0.94105357 234 88 12
1.2326669 -1.277954 1.6572961 234 88 12
1.0249444 -1.1601564 0.93807852 234 88 12
1.0692089 -1.1758435 1.0697145 234 88 12
1.232177 -1.2734332 1.6427598 234 88 12
1.2582579 -1.2850267 1.7255367 234 88 12
1.0398051 -1.1658146 0.97246695 234 88 12
1.1679263 -1.2357254 1.4125277 234 88 12
1.2113106 -1.2616942 1.5666895 234 88 12
1.2319304 -1.2749121 1.6419239 234 88 12
1.2523739 -1.2812655 1.701371 234 88 12
1.2645372 -1.2894797 1.7466863 234 88 12
2.1990159 -0.36397254 1.5431046 234 88 12
2.1990867 -0.36354285 1.5431046 234 88 12
1.2882819 1.2964549 1.5487628 234 88 12
1.2907178 1.2952584 1.547824 234 88 12
1.2931536 1.2940618 1.5468853 234 88 12
1.3496698 1.3546824 1.704281 234 88 12
1.281968 1.3064868 1.5459464 234 88 12
1.2789552 1.3107389 1.5450076 234 88 12
1.3468124 1.3600276 1.7023965 234 88 12
1.3463566 1.3604832 1.7023965 234 88 12
1.3105527 1.3261046 1.6005781 234 88 12
1.3053687 1.3312887 1.6005781 234 88 12
1.275077 1.3195742 1.5412523 234 88 12
1.3043929 1.3332752 1.5998125 234 88 12
1.3061441 1.3335452 1.5982813 234 88 12
1.3063266 1.2945212 1.5365582 234 88 12
1.3202498 1.3224715 1.5959843 234 88 12
1.3084739 1.2948524 1.5346805 234 88 12
1.4038261 1.4061357 1.8442742 234 88 12
1.2730578 1.3302685 1.5346805 234 88 12
1.3602581 1.3534226 1.6972144 234 88 12
1.2988081 1.3469452 1.5936875 234 88 12
1.2724808 1.3333241 1.5328028 234 88 12
1.3613356 1.3535888 1.6962721 234 88 12
1.3595128 1.3554115 1.6962721 234 88 12
1.3297465 1.3230814 1.5883281 234 88 12
1.3193785 1.3334494 1.5883281 234 88 12
1.2993832 1.3534448 1.5883281 234 88 12
1.3206245 1.3332142 1.5875626 234 88 12
1.2714125 1.3467854 1.5234146 234 88 12
1.3339896 1.322881 1.5852656 234 88 12
1.123735 1.1051424 0.86736017 234 88 12
1.1313628 1.096566 0.85687453 234 88 12
1.1286861 1.0992426 0.85687453 234 88 12
1.1233327 1.104596 0.85687453 234 88 12
1.2717438 1.3489327 1.5215369 234 88 12
1.3734101 1.3694488 1.7271072 234 88 12
1.2987123 1.3601797 1.5837344 234 88 12
1.3743762 1.3689743 1.7267349 234 88 12
1.1212039 1.1185478 0.8591224 234 88 12
1.1448722 1.0940152 0.84857291 234 88 12
1.1493753 1.0931649 0.84580564 234 88 12
1.1279619 1.1145784 0.84580564 234 88 12
1.1271116 1.1190815 0.84303844 234 88 12
1.1583815 1.0914645 0.84027123 234 88 12
1.1316147 1.1182313 0.84027123 234 88 12
1.1628846 1.0906142 0.83750403 234 88 12
1.1249536 1.1329219 0.84539276 234 88 12
1.1673877 1.089764 0.83473682 234 88 12
1.1352676 1.1218842 0.83473682 234 88 12
1.1299142 1.1272376 0.83473682 234 88 12
1.1692141 1.0915904 0.83196956 234 88 12
1.129064 1.1317407 0.83196956 234 88 12
1.3747548 1.3777508 1.7346199 234 88 12
-1.901777 0.33677429 -1.437622 234 88 12
-0.29320768 2.1753879 -1.1073192 234 88 12
