ply
format ascii 1.0
element vertex 415
property float x
property float y
property float z
property uchar red
property uchar green
property uchar blue
end_header
-0.0034958017 0.0018311342 2.6426051 234 88 12
-0.029932287 0.014178451 1.9029237 234 88 12
-0.026101727 0.013818561 1.9239173 234 88 12
-0.023030935 0.013818561 1.9239173 234 88 12
-0.017329218 0.014178451 1.9029237 234 88 12
-0.011027684 0.014178451 1.9029237 234 88 12
-0.0047261505 0.014178451 1.9029237 234 88 12
0.0015753835 0.014178451 1.9029237 234 88 12
0.00049940025 0.0014982007 2.6426051 234 88 12
-0.041455682 0.01074777 1.9239173 234 88 12
-0.035314102 0.01074777 1.9239173 234 88 12
-0.026000053 0.0095789675 2.0115774 234 88 12
-0.023263207 0.0095789675 2.0115774 234 88 12
-0.017789511 0.0095789675 2.0115774 234 88 12
-0.012315814 0.0095789675 2.0115774 234 88 12
-0.0041052718 0.0095789675 2.0115774 234 88 12
0.0013684239 0.0095789675 2.0115774 234 88 12
0.0046061869 0.01074777 1.9239173 234 88 12
0.0076769781 0.01074777 1.9239173 234 88 12
0.014178451 0.011027684 1.9029237 234 88 12
0.020479985 0.011027684 1.9029237 234 88 12
0.020526359 0.0095789675 2.0115774 234 88 12
0.026000053 0.0095789675 2.0115774 234 88 12
0.03623382 0.011027684 1.9029237 234 88 12
0.039384585 0.011027684 1.9029237 234 88 12
0.01207071 0.0031294434 2.4952917 234 88 12
0.012964836 0.0031294434 2.4952917 234 88 12
-0.044526473 0.0076769781 1.9239173 234 88 12
0.0068421192 0.0068421192 2.0115774 234 88 12
0.013316274 0.0095116245 1.7312795 234 88 12
0.0088489782 0.0049160994 2.2138095 234 88 12
0.012781858 0.0049160994 2.2138095 234 88 12
0.021072267 0.0070240889 1.9924706 234 88 12
0.032339521 0.0095116245 1.7312795 234 88 12
0.020647617 0.0049160994 2.2138095 234 88 12
0.026546935 0.0049160994 2.2138095 234 88 12
0.039684292 0.0068421192 2.0115774 234 88 12
0.048836887 0.0078769177 1.9029237 234 88 12
-0.044526473 0.0046061869 1.9239173 234 88 12
-0.041455682 0.0046061869 1.9239173 234 88 12
-0.034210596 0.0041052718 2.0115774 234 88 12
-0.031473748 0.0041052718 2.0115774 234 88 12
-0.023263207 0.0041052718 2.0115774 234 88 12
-0.017789511 0.0041052718 2.0115774 234 88 12
-0.012315814 0.0041052718 2.0115774 234 88 12
-0.0068002925 0.002914411 2.2199781 234 88 12
-0.0067381985 0.0040429188 2.0224891 234 88 12
-0.0042763459 0.0042763459 1.9816394 234 88 12
-0.0013283119 0.0039849356 2.0326362 234 88 12
0.001456067 0.0043682009 1.9655648 234 88 12
0.0040175081 0.0040175081 2.0269361 234 88 12
0.0069695688 0.0041817413 1.9981953 234 88 12
0.0080563752 0.0034527322 2.1257718 234 88 12
0.014283209 0.00476107 1.8968128 234 88 12
0.016627237 0.0045347009 1.9364274 234 88 12
0.018229332 0.0042067687 1.9938154 234 88 12
0.021204982 0.0042409967 1.9878256 234 88 12
0.02375963 0.0041928757 1.9962467 234 88 12
0.021080595 0.0033285148 2.1475098 234 88 12
0.039948821 0.0057069743 1.7312795 234 88 12
0.051987655 0.0047261505 1.9029237 234 88 12
-0.0082109449 0.0011729922 2.1141791 234 88 12
-0.0063652284 0.0012730457 2.061651 234 88 12
-0.0041619404 0.0013873135 2.0016603 234 88 12
0.0014203237 0.0014203237 1.9843301 234 88 12
0.0043124412 0.0014374804 1.9753227 234 88 12
0.007149904 0.0014299809 1.9792601 234 88 12
0.0098546967 0.0014078137 1.9908978 234 88 12
0.013038807 0.0014487563 1.9694029 234 88 12
0.015030518 0.0013664108 2.0126343 234 88 12
0.024064917 0.0016043278 1.8877279 234 88 12
0.032446254 0.00098321983 2.2138095 234 88 12
-0.0054934025 -0.00016646675 2.6426051 234 88 12
-0.034210596 -0.0013684239 2.0115774 234 88 12
-0.031473748 -0.0013684239 2.0115774 234 88 12
-0.023263207 -0.0013684239 2.0115774 234 88 12
-0.017789511 -0.0013684239 2.0115774 234 88 12
-0.012315814 -0.0013684239 2.0115774 234 88 12
-0.0097478917 -0.0013925559 1.9989082 234 88 12
-0.0065576765 -0.0013115352 2.0414441 234 88 12
-0.0041226884 -0.0013742294 2.0085294 234 88 12
-0.0013873135 -0.0013873135 2.0016603 234 88 12
0.0013383823 -0.0013383823 2.0273492 234 88 12
0.0042614583 -0.0014204861 1.9842448 234 88 12
0.0070161531 -0.0014032306 1.9933039 234 88 12
0.0098546967 -0.0014078137 1.9908978 234 88 12
0.012815024 -0.0014238915 1.9824569 234 88 12
0.018318012 -0.0014090779 1.9902341 234 88 12
0.020479163 -0.0013652776 2.0132294 234 88 12
0.027273573 -0.0016043278 1.8877279 234 88 12
0.036144171 -0.0019023248 1.7312795 234 88 12
0.039948821 -0.0019023248 1.7312795 234 88 12
0.022614056 -0.00098321983 2.2138095 234 88 12
0.026546935 -0.00098321983 2.2138095 234 88 12
0.050668057 -0.0015353956 1.9239173 234 88 12
0.05513842 -0.0015753835 1.9029237 234 88 12
0.058289189 -0.0015753835 1.9029237 234 88 12
-0.0075671035 -0.0032430445 2.1624672 234 88 12
-0.0066415593 -0.0039849356 2.0326362 234 88 12
-0.0038191369 -0.0038191369 2.061651 234 88 12
-0.0012456583 -0.0037369749 2.0760293 234 88 12
0.0013852596 -0.0041557783 2.0027387 234 88 12
0.0096827019 -0.0041497294 2.0037973 234 88 12
0.012462233 -0.0041540777 2.0030365 234 88 12
0.015231618 -0.0041540777 2.0030365 234 88 12
0.0207134 -0.0041426802 2.0050309 234 88 12
0.02499176 -0.0044103106 1.9581957 234 88 12
0.047597267 -0.0046061869 1.9239173 234 88 12
-0.023263207 -0.0068421192 2.0115774 234 88 12
-0.017789511 -0.0068421192 2.0115774 234 88 12
-0.012315814 -0.0068421192 2.0115774 234 88 12
-0.0029496595 -0.0049160994 2.2138095 234 88 12
-0.0019023248 -0.0095116245 1.7312795 234 88 12
0.0019023248 -0.0095116245 1.7312795 234 88 12
0.0073360158 -0.0073360158 1.9597183 234 88 12
0.010786239 -0.0077044568 1.9210321 234 88 12
0.012551456 -0.006973031 1.9978317 234 88 12
0.01537757 -0.0069898046 1.9960705 234 88 12
0.025598871 -0.0085329562 1.8340396 234 88 12
0.027483022 -0.008083242 1.8812596 234 88 12
0.036144171 -0.0095116245 1.7312795 234 88 12
0.034210596 -0.0068421192 2.0115774 234 88 12
0.041455682 -0.0076769781 1.9239173 234 88 12
0.044526473 -0.0076769781 1.9239173 234 88 12
0.051987655 -0.0078769177 1.9029237 234 88 12
-0.0041052718 -0.0095789675 2.0115774 234 88 12
-0.00098321983 -0.006882539 2.2138095 234 88 12
0.0019023248 -0.013316274 1.7312795 234 88 12
0.0095116245 -0.013316274 1.7312795 234 88 12
0.013316274 -0.013316274 1.7312795 234 88 12
0.020925572 -0.013316274 1.7312795 234 88 12
0.028534872 -0.013316274 1.7312795 234 88 12
0.016714737 -0.006882539 2.2138095 234 88 12
0.032243308 -0.01074777 1.9239173 234 88 12
0.045686122 -0.011027684 1.9029237 234 88 12
-0.008494203 -0.0040235701 2.4952917 234 88 12
-0.0058118235 -0.0040235701 2.4952917 234 88 12
0.020526359 -0.012315814 2.0115774 234 88 12
0.026781518 -0.014178451 1.9029237 234 88 12
0.0013684239 -0.015052662 2.0115774 234 88 12
0.0068421192 -0.015052662 2.0115774 234 88 12
0.0049176966 -0.0049176966 2.4952917 234 88 12
-1.4077952 0.064160928 1.7253512 234 88 12
-1.4078805 0.062196348 1.7253512 234 88 12
-1.4095314 0.062268119 1.724285 234 88 12
-1.3680165 0.057902109 1.381188 234 88 12
-1.3681533 0.054754313 1.381188 234 88 12
-1.4097877 0.056374371 1.724285 234 88 12
1.2446591 0.15251304 2.3263898 234 88 12
1.2453257 0.15192382 2.3260815 234 88 12
1.2456186 0.15195967 2.3259273 234 88 12
1.1774633 0.15377109 1.6491936 234 88 12
1.180536 0.14863265 1.6479262 234 88 12
1.179206 0.15949894 1.6479262 234 88 12
1.1832763 0.14621077 1.6466589 234 88 12
1.1822788 0.1543605 1.6466589 234 88 12
1.1840216 0.16008836 1.6453916 234 88 12
1.1884243 0.14408362 1.6441242 234 88 12
1.247164 0.15147799 2.3251565 234 88 12
1.1908321 0.14437832 1.6428568 234 88 12
1.1904995 0.14709491 1.6428568 234 88 12
1.1898346 0.15252805 1.6428568 234 88 12
1.1815312 0.15544651 1.5480741 234 88 12
1.1888371 0.16067778 1.6428568 234 88 12
1.1842327 0.15577719 1.5466521 234 88 12
1.1963125 0.13953459 1.6403221 234 88 12
1.1953151 0.14768432 1.6403221 234 88 12
1.1865612 0.15915589 1.54523 234 88 12
1.1997179 0.13167958 1.6390548 234 88 12
1.1993854 0.13439615 1.6390548 234 88 12
1.190382 0.15034243 1.5438081 234 88 12
1.1900089 0.15339048 1.5438081 234 88 12
1.1963928 0.15884532 1.6390548 234 88 12
1.2376099 0.14652814 2.1642175 234 88 12
1.2014606 0.13740744 1.6377873 234 88 12
1.2011281 0.14012401 1.6377873 234 88 12
1.2048659 0.12955242 1.63652 234 88 12
1.2035359 0.14041871 1.63652 234 88 12
1.2028708 0.14585187 1.63652 234 88 12
1.1961582 0.14795572 1.540964 234 88 12
1.1954119 0.15405181 1.540964 234 88 12
1.2012084 0.15943474 1.63652 234 88 12
1.2008758 0.16215131 1.63652 234 88 12
1.2392918 0.14583319 2.1633894 234 88 12
1.2020563 0.14269617 1.5785975 234 88 12
1.2238407 0.14893502 1.9291055 234 88 12
1.2096856 0.14407596 1.6619596 234 88 12
1.2019343 0.14556901 1.53812 234 88 12
1.2050089 0.14285164 1.5366981 234 88 12
1.2038897 0.15199576 1.5366981 234 88 12
1.2031435 0.15809186 1.5366981 234 88 12
1.2084316 0.16031885 1.6327178 234 88 12
1.2073374 0.14623034 1.5352761 234 88 12
1.2069643 0.14927839 1.5352761 234 88 12
1.2065912 0.15232643 1.5352761 234 88 12
1.205845 0.15842251 1.5352761 234 88 12
1.2092928 0.15265709 1.533854 234 88 12
1.2085466 0.15875319 1.533854 234 88 12
1.2132471 0.16090827 1.6301832 234 88 12
1.2432249 0.14631459 2.1613193 234 88 12
1.2045314 0.13018505 1.3204039 234 88 12
1.2040691 0.13396151 1.3204039 234 88 12
1.2031447 0.14151445 1.3204039 234 88 12
1.2424644 0.15252712 2.1613193 234 88 12
1.2156549 0.16120298 1.6289158 234 88 12
1.2083408 0.12681827 1.3186421 234 88 12
1.2074163 0.13437121 1.3186421 234 88 12
1.2060297 0.1457006 1.3186421 234 88 12
1.2140335 0.15018393 1.5078663 234 88 12
1.2136507 0.15331136 1.5078663 234 88 12
1.2139497 0.15941451 1.53101 234 88 12
1.209839 0.14233384 1.3168802 234 88 12
1.2204703 0.1617924 1.626381 234 88 12
1.2455846 0.14660344 2.1600771 234 88 12
1.2150351 0.12763765 1.3151184 234 88 12
1.2141106 0.13519059 1.3151184 234 88 12
1.2203429 0.14460763 1.5049481 234 88 12
1.2199601 0.14773506 1.5049481 234 88 12
1.2159185 0.16070373 1.4418637 234 88 12
1.2183822 0.12804735 1.3133566 234 88 12
1.2174578 0.13560028 1.3133566 234 88 12
1.2234975 0.14181949 1.5034891 234 88 12
1.2350352 0.14819571 1.8478615 234 88 12
1.2223492 0.15120177 1.5034891 234 88 12
1.2219664 0.1543292 1.5034891 234 88 12
1.2142221 0.16203554 1.3133566 234 88 12
1.2252859 0.1623818 1.6238464 234 88 12
1.2217294 0.12845704 1.3115947 234 88 12
1.2208049 0.13600996 1.3115947 234 88 12
1.2362874 0.15231121 1.8469509 234 88 12
1.2239727 0.16092333 1.5020301 234 88 12
1.2276936 0.16267651 1.622579 234 88 12
1.2245978 0.13666911 1.3259569 234 88 12
1.2275101 0.15500775 1.500571 234 88 12
1.2271273 0.15813518 1.500571 234 88 12
1.2518197 0.15473118 2.3225355 234 88 12
0.14731936 1.2367147 2.1646316 234 88 12
0.15185316 1.2369581 2.1642175 234 88 12
0.14475313 1.2378272 2.1642175 234 88 12
0.15416218 1.1812128 1.3309749 234 88 12
0.15038571 1.1816751 1.3309749 234 88 12
0.14307441 1.238831 2.1638036 234 88 12
0.16590127 1.1831733 1.3292131 234 88 12
0.1621248 1.1836355 1.3292131 234 88 12
0.15457188 1.1845599 1.3292131 234 88 12
0.1507954 1.1850222 1.3292131 234 88 12
0.14324246 1.1859467 1.3292131 234 88 12
0.13568954 1.1868712 1.3292131 234 88 12
0.13191307 1.1873333 1.3292131 234 88 12
0.14760821 1.2390745 2.1633894 234 88 12
0.12436014 1.1882578 1.3292131 234 88 12
0.12984712 1.2072736 1.6352526 234 88 12
0.12441397 1.2079387 1.6352526 234 88 12
0.11898082 1.2086036 1.6352526 234 88 12
0.11354768 1.2092687 1.6352526 234 88 12
0.10539795 1.2102662 1.6352526 234 88 12
0.16012953 1.2383403 2.1629753 234 88 12
0.17764035 1.1851337 1.3274512 234 88 12
0.17386389 1.185596 1.3274512 234 88 12
0.15120509 1.1883694 1.3274512 234 88 12
0.14365216 1.1892939 1.3274512 234 88 12
0.14372471 1.2080189 1.6339853 234 88 12
0.13829155 1.2086838 1.6339853 234 88 12
0.14974613 1.249457 2.3240771 234 88 12
0.10025952 1.213339 1.6339853 234 88 12
0.16200082 1.2389096 2.1625614 234 88 12
0.18560298 1.1875564 1.3256894 234 88 12
0.18182652 1.1880186 1.3256894 234 88 12
0.17805004 1.1884809 1.3256894 234 88 12
0.17427358 1.1889431 1.3256894 234 88 12
0.16575201 1.2077665 1.6327178 234 88 12
0.16303542 1.208099 1.6327178 234 88 12
0.15760228 1.2087641 1.6327178 234 88 12
0.14945255 1.2097616 1.6327178 234 88 12
0.10055422 1.2157468 1.6327178 234 88 12
0.18777931 1.2075143 1.6314505 234 88 12
0.18890296 1.2021142 1.5352761 234 88 12
0.18280686 1.2028605 1.5352761 234 88 12
0.17671078 1.2036066 1.5352761 234 88 12
0.17061469 1.2043527 1.5352761 234 88 12
0.16147056 1.205472 1.5352761 234 88 12
0.15537448 1.2062181 1.5352761 234 88 12
0.15312251 1.2496383 2.3237689 234 88 12
0.14202455 1.2146503 1.6595151 234 88 12
0.19894031 1.2085919 1.6301832 234 88 12
0.20142581 1.2033235 1.533854 234 88 12
0.19532971 1.2040696 1.533854 234 88 12
0.17641506 1.2228016 1.8524146 234 88 12
0.17055945 1.2235184 1.8524146 234 88 12
0.16275196 1.224474 1.8524146 234 88 12
0.15689634 1.2251906 1.8524146 234 88 12
0.15272115 1.212419 1.5946698 234 88 12
0.1499877 1.2139614 1.6181062 234 88 12
0.14656101 1.2100389 1.533854 234 88 12
0.14351296 1.210412 1.533854 234 88 12
0.13741688 1.2111582 1.533854 234 88 12
0.10114364 1.2205622 1.6301832 234 88 12
0.098427065 1.2208947 1.6301832 234 88 12
0.20785256 1.2052789 1.5324321 234 88 12
0.18443431 1.2235759 1.851504 234 88 12
0.18248244 1.2238148 1.851504 234 88 12
0.19050121 1.2062852 1.5093253 234 88 12
0.18737377 1.206668 1.5093253 234 88 12
0.18111892 1.2074336 1.5093253 234 88 12
0.17486407 1.2081991 1.5093253 234 88 12
0.1629637 1.2262039 1.851504 234 88 12
0.15710808 1.2269207 1.851504 234 88 12
0.1501725 1.2150751 1.5890118 234 88 12
0.14814024 1.2205855 1.6978099 234 88 12
0.14461198 1.2164021 1.6023755 234 88 12
0.14140943 1.2154701 1.5749989 234 88 12
0.13617955 1.2098049 1.4446198 234 88 12
0.1374606 1.2201662 1.6621113 234 88 12
0.13165146 1.2146058 1.5324321 234 88 12
0.21123126 1.2076074 1.53101 234 88 12
0.20818323 1.2079804 1.53101 234 88 12
0.20022276 1.2079087 1.5078663 234 88 12
0.19396791 1.2086743 1.5078663 234 88 12
0.18771306 1.2094399 1.5078663 234 88 12
0.1689485 1.2117367 1.5078663 234 88 12
0.16269363 1.2125022 1.5078663 234 88 12
0.15992568 1.2103622 1.453023 234 88 12
0.15670434 1.209394 1.422877 234 88 12
0.15328036 1.2090689 1.4064108 234 88 12
0.15035725 1.2161093 1.5542629 234 88 12
0.15234271 1.2496598 2.3019366 234 88 12
0.13696362 1.2138116 1.4671566 234 88 12
0.13508545 1.2170472 1.5336571 234 88 12
0.13564327 1.2236646 1.6815779 234 88 12
0.12588604 1.2180536 1.53101 234 88 12
0.11978995 1.2187997 1.53101 234 88 12
0.18876155 1.2265581 1.8496827 234 88 12
0.20368947 1.2102978 1.5064073 234 88 12
0.17406966 1.2244428 1.7566031 234 88 12
0.17483544 1.2197003 1.6460376 234 88 12
0.17328912 1.2179605 1.6001546 234 88 12
0.17034639 1.2185987 1.6067686 234 88 12
0.1714 1.2090834 1.3835249 234 88 12
0.1675545 1.2104621 1.4051214 234 88 12
0.16380885 1.2120241 1.4313658 234 88 12
0.16071375 1.2106439 1.389531 234 88 12
0.15677807 1.2160398 1.5064073 234 88 12
0.15366092 1.2099133 1.3516212 234 88 12
0.15000342 1.2103609 1.3516212 234 88 12
0.14675288 1.2132815 1.4116209 234 88 12
0.1447427 1.2194668 1.5528781 234 88 12
0.14188203 1.2201488 1.5607733 234 88 12
0.14544332 1.2357424 1.9420155 234 88 12
0.13294199 1.2149662 1.4114845 234 88 12
0.1294895 1.2153888 1.4114845 234 88 12
0.12926474 1.220382 1.529588 234 88 12
0.12621671 1.2207551 1.529588 234 88 12
0.11707257 1.2218744 1.529588 234 88 12
0.14797844 1.2514571 2.3231521 234 88 12
0.10202776 1.2277855 1.626381 234 88 12
0.099311188 1.2281179 1.626381 234 88 12
0.2118926 1.2130104 1.5281661 234 88 12
0.19777389 1.2138354 1.5049481 234 88 12
0.19464646 1.2142181 1.5049481 234 88 12
0.18839161 1.2149837 1.5049481 234 88 12
0.183503 1.213879 1.4611706 234 88 12
0.17614114 1.2204983 1.6081587 234 88 12
0.17346837 1.220663 1.6039826 234 88 12
0.17541778 1.2116265 1.3778311 234 88 12
0.17218176 1.2112992 1.359236 234 88 12
0.16869718 1.211337 1.3492423 234 88 12
0.16481195 1.2126325 1.370321 234 88 12
0.1599752 1.2199033 1.5420015 234 88 12
0.1575862 1.2140244 1.3833656 234 88 12
0.15040021 1.2136027 1.3499149 234 88 12
0.15217569 1.250845 2.3128262 234 88 12
0.13872415 1.2278425 1.6792158 234 88 12
0.13120168 1.2204998 1.4668039 234 88 12
0.12959541 1.2230835 1.5281661 234 88 12
0.12349933 1.2238297 1.5281661 234 88 12
0.11740324 1.2245759 1.5281661 234 88 12
0.17066231 1.2434382 2.159663 234 88 12
0.2012406 1.2162244 1.5034891 234 88 12
0.19498575 1.21699 1.5034891 234 88 12
0.1887309 1.2177556 1.5034891 234 88 12
0.17805952 1.2240722 1.6435657 234 88 12
0.17986467 1.2135649 1.3559924 234 88 12
0.17623375 1.2140093 1.3559924 234 88 12
0.17269106 1.2142664 1.3510561 234 88 12
0.1690942 1.2145807 1.3475349 234 88 12
0.15745662 1.2215836 1.5034891 234 88 12
0.15014759 1.2347963 1.8478615 234 88 12
0.14211826 1.2242928 1.526744 234 88 12
0.13602217 1.2250389 1.526744 234 88 12
0.14950088 1.2489932 2.2425466 234 88 12
0.10805032 1.231936 1.6238464 234 88 12
0.10533375 1.2322685 1.6238464 234 88 12
0.22286868 1.2101735 1.3115947 234 88 12
0.18158931 1.2327037 1.8469509 234 88 12
0.19219761 1.2201447 1.5020301 234 88 12
0.18907017 1.2205275 1.5020301 234 88 12
0.18355347 1.2204461 1.4788532 234 88 12
0.1832881 1.2171026 1.3754443 234 88 12
0.17996912 1.217196 1.3658617 234 88 12
0.17637761 1.2176356 1.3658617 234 88 12
0.16521093 1.2201253 1.4002589 234 88 12
0.16092333 1.2239727 1.5020301 234 88 12
0.15426308 1.2360485 1.8469509 234 88 12
0.15159306 1.225875 1.525322 234 88 12
0.153043 1.251729 2.3226895 234 88 12
0.11377817 1.2336787 1.622579 234 88 12
0.1110616 1.2340112 1.622579 234 88 12
0.16907987 1.2452288 2.1588349 234 88 12
0.21572544 1.2144451 1.3098329 234 88 12
0.18375292 1.2341948 1.8460404 234 88 12
0.17594543 1.2351505 1.8460404 234 88 12
0.18002717 1.2244477 1.500571 234 88 12
0.17689975 1.2248306 1.500571 234 88 12
0.17064489 1.2255962 1.500571 234 88 12
0.16228232 1.2368227 1.8460404 234 88 12
