ply
format ascii 1.0
element vertex 912
property float x
property float y
property float z
property uchar red
property uchar green
property uchar blue
end_header
-0.30820265 0.4880119 2.1289496 234 88 12
-0.29481068 0.48146483 2.1274326 234 88 12
-0.28173119 0.47353598 2.1243899 234 88 12
-0.26806819 0.46837774 2.1243899 234 88 12
-0.30657089 0.49172464 2.113898 234 88 12
-0.2935577 0.48341617 2.1104653 234 88 12
-0.27995363 0.47799295 2.1101749 234 88 12
-0.26628268 0.47288445 2.1102281 234 88 12
-0.25257507 0.46793556 2.1104569 234 88 12
-0.23876673 0.46341193 2.1111538 234 88 12
-0.30467409 0.4967275 2.1002617 234 88 12
-0.29165652 0.48844525 2.0968781 234 88 12
-0.27804944 0.48303673 2.0966053 234 88 12
-0.26438925 0.47787952 2.0966053 234 88 12
-0.25073218 0.47270852 2.0965903 234 88 12
-0.23699825 0.46786967 2.0969381 234 88 12
-0.30254298 0.50286591 2.0878479 234 88 12
-0.28956828 0.49435899 2.0842447 234 88 12
-0.27609283 0.48832241 2.083297 234 88 12
-0.26246929 0.48299438 2.0831127 234 88 12
-0.24882801 0.47775227 2.0830207 234 88 12
-0.2350878 0.47294 2.0833952 234 88 12
-0.2985605 0.51796013 2.0849996 234 88 12
-0.28643915 0.50518519 2.0768642 234 88 12
-0.27383319 0.49500445 2.0714848 234 88 12
-0.26044923 0.48855978 2.0701036 234 88 12
-0.24679986 0.48334149 2.070039 234 88 12
-0.23278446 0.47970027 2.0716763 234 88 12
-0.29435265 0.53411418 2.0831459 234 88 12
-0.28157997 0.52415341 2.0780787 234 88 12
-0.27006862 0.50861061 2.0670381 234 88 12
-0.25693363 0.50084949 2.064275 234 88 12
-0.24315476 0.49603561 2.0646577 234 88 12
-0.21996532 0.53164077 2.1083989 234 88 12
-0.29225659 0.54004687 2.0703473 234 88 12
-0.27921763 0.53132612 2.0666258 234 88 12
-0.26547992 0.52598399 2.0664732 234 88 12
-0.25117996 0.52317387 2.0690098 234 88 12
-0.23591845 0.52447653 2.075932 234 88 12
-0.21811575 0.5363965 2.0941978 234 88 12
-0.28887519 0.5521701 2.064038 234 88 12
-0.27655929 0.53988516 2.0566037 234 88 12
-0.2628924 0.53413624 2.0560298 234 88 12
-0.24841291 0.53205794 2.059329 234 88 12
-0.23256885 0.5358215 2.0688179 234 88 12
-0.21602935 0.54216844 2.0810781 234 88 12
-0.28378177 0.57251054 2.0662117 234 88 12
-0.27251473 0.55494487 2.0533314 234 88 12
-0.25931111 0.54683822 2.0503109 234 88 12
-0.24460402 0.54560095 2.054486 234 88 12
-0.22906733 0.54781753 2.0623062 234 88 12
-0.20455967 0.58812487 2.1102588 234 88 12
-0.27440596 0.61338234 2.0894787 234 88 12
-0.26734805 0.57524037 2.0553689 234 88 12
-0.25467941 0.56433207 2.0494795 234 88 12
-0.24028771 0.56139439 2.0518792 234 88 12
-0.22327705 0.56981033 2.0661452 234 88 12
-0.20273554 0.59272856 2.0956361 234 88 12
-0.25671187 0.62111229 2.0836136 234 88 12
-0.24881065 0.58745331 2.0543072 234 88 12
-0.2293397 0.60680521 2.079818 234 88 12
-0.21509929 0.60219717 2.0805519 234 88 12
-0.19999887 0.60123324 2.0850775 234 88 12
-0.23877749 0.62955499 2.0784085 234 88 12
-0.22587119 0.61872715 2.0727553 234 88 12
-0.21129371 0.61543906 2.0748584 234 88 12
-0.31047025 0.48362732 2.1292031 234 88 12
-0.29913151 0.4718309 2.1285932 234 88 12
-0.28730693 0.46085319 2.1297216 234 88 12
-0.31410906 0.50301844 2.1173663 234 88 12
-0.30288824 0.49101523 2.1163323 234 88 12
-0.2915923 0.479155 2.1155865 234 88 12
-0.28014329 0.46756047 2.1153941 234 88 12
-0.26839635 0.45645577 2.1162429 234 88 12
-0.31339666 0.53010488 2.1213217 234 88 12
-0.306382 0.51065224 2.1050158 234 88 12
-0.29506987 0.49881041 2.1043212 234 88 12
-0.28385413 0.486817 2.1033018 234 88 12
-0.27235159 0.47531444 2.1033018 234 88 12
-0.26076013 0.46395677 2.1036081 234 88 12
-0.24881117 0.45316792 2.105129 234 88 12
-0.306054 0.53703421 2.1074295 234 88 12
-0.29809517 0.51925832 2.0946643 234 88 12
-0.28716561 0.50675243 2.0926147 234 88 12
-0.27594805 0.49476197 2.0916097 234 88 12
-0.2644681 0.48322055 2.0915298 234 88 12
-0.25280884 0.47197184 2.0920637 234 88 12
-0.24096712 0.46100694 2.0932038 234 88 12
-0.30372468 0.56717861 2.1170447 234 88 12
-0.29809037 0.54506075 2.0957851 234 88 12
-0.28882161 0.52956605 2.0877552 234 88 12
-0.27870286 0.51564413 2.0828502 234 88 12
-0.26774022 0.50321162 2.0809546 234 88 12
-0.25632048 0.49156153 2.0806572 234 88 12
-0.24469039 0.48025706 2.0810773 234 88 12
-0.23300578 0.46903324 2.0816717 234 88 12
-0.29545635 0.5757162 2.1062665 234 88 12
-0.29132965 0.55097872 2.0798995 234 88 12
-0.28100756 0.53734308 2.0756607 234 88 12
-0.26955822 0.52568686 2.0753961 234 88 12
-0.25863901 0.51314962 2.0733261 234 88 12
-0.24794517 0.50027406 2.0705349 234 88 12
-0.23648916 0.48867396 2.0703506 234 88 12
-0.22417992 0.47843492 2.072999 234 88 12
-0.2925598 0.60714138 2.1176949 234 88 12
-0.28941607 0.58029449 2.0876174 234 88 12
-0.28265417 0.56025338 2.0707669 234 88 12
-0.27255452 0.54621905 2.0657742 234 88 12
-0.26152289 0.53384048 2.064065 234 88 12
-0.24949048 0.52315503 2.0657742 234 88 12
-0.23638578 0.51420051 2.0710404 234 88 12
-0.28386563 0.61641157 2.108156 234 88 12
-0.28059748 0.58981055 2.0787873 234 88 12
-0.27301821 0.57119256 2.0648932 234 88 12
-0.26327252 0.55651027 2.0586796 234 88 12
-0.25221434 0.54414058 2.0570288 234 88 12
-0.24004821 0.53363675 2.0591211 234 88 12
-0.22027166 0.53554082 2.08641 234 88 12
-0.2741884 0.62743628 2.1019938 234 88 12
-0.27062723 0.60134906 2.0738695 234 88 12
-0.2626614 0.58336574 2.0613625 234 88 12
-0.25274718 0.56891292 2.0556958 234 88 12
-0.24147202 0.5568397 2.0546994 234 88 12
-0.2288105 0.54707819 2.05832 234 88 12
-0.21164832 0.54459858 2.0766518 234 88 12
-0.26381686 0.63968325 2.0981102 234 88 12
-0.2544255 0.62382859 2.0901058 234 88 12
-0.25150147 0.59690475 2.0603821 234 88 12
-0.24131702 0.5828324 2.055567 234 88 12
-0.22948037 0.57160878 2.0563264 234 88 12
-0.20529298 0.58077496 2.0976343 234 88 12
-0.24355133 0.63687724 2.0877566 234 88 12
-0.23294722 0.6231786 2.0839548 234 88 12
-0.22125623 0.61138839 2.083833 234 88 12
-0.20944855 0.59979534 2.0840967 234 88 12
-0.19614102 0.59066927 2.0892336 234 88 12
-0.22107495 0.63784379 2.0846665 234 88 12
-0.20964403 0.6255098 2.0835657 234 88 12
-0.19769861 0.61405194 2.0841601 234 88 12
-0.28643647 0.46227333 2.1204181 234 88 12
-0.26894921 0.46026453 2.1139355 234 88 12
-0.25239369 0.46203205 2.1126597 234 88 12
-0.23615822 0.46517256 2.1132729 234 88 12
-0.30500931 0.47157356 2.11042 234 88 12
-0.28712556 0.46812204 2.1019998 234 88 12
-0.27011412 0.46802199 2.0981774 234 88 12
-0.25366679 0.47021407 2.0974927 234 88 12
-0.23741727 0.4732596 2.0979733 234 88 12
-0.22149713 0.47783631 2.1005399 234 88 12
-0.3064602 0.48056558 2.0962796 234 88 12
-0.28859419 0.47717023 2.0879967 234 88 12
-0.27165481 0.47736353 2.0846002 234 88 12
-0.25520721 0.47955388 2.0839181 234 88 12
-0.23895788 0.48260063 2.0843971 234 88 12
-0.22296964 0.48686627 2.0865242 234 88 12
-0.30907118 0.49421388 2.0884328 234 88 12
-0.29080749 0.48928487 2.078135 234 88 12
-0.27348593 0.48793301 2.0726776 234 88 12
-0.25697938 0.48990041 2.0716984 234 88 12
-0.24073021 0.49297637 2.072212 234 88 12
-0.22537947 0.500202 2.0782986 234 88 12
-0.21566445 0.5343532 2.1205056 234 88 12
-0.31304711 0.51335812 2.0878689 234 88 12
-0.29429534 0.50666118 2.0752652 234 88 12
-0.27643299 0.50322902 2.0670533 234 88 12
-0.25958684 0.5038811 2.0643156 234 88 12
-0.24355711 0.50806791 2.0663023 234 88 12
-0.23134656 0.52990121 2.0918193 234 88 12
-0.21665415 0.54111439 2.1031361 234 88 12
-0.29814562 0.52555126 2.0742533 234 88 12
-0.2811549 0.52605808 2.0713189 234 88 12
-0.26469889 0.52877218 2.0713189 234 88 12
-0.24859075 0.53304249 2.0733817 234 88 12
-0.23286982 0.53918386 2.0779176 234 88 12
-0.21816 0.55031663 2.0890472 234 88 12
-0.30052647 0.5383898 2.065073 234 88 12
-0.28312281 0.53723311 2.059962 234 88 12
-0.26662797 0.53982568 2.0597997 234 88 12
-0.25041366 0.54366773 2.0612819 234 88 12
-0.23469272 0.54984635 2.0658326 234 88 12
-0.21977796 0.56004983 2.0756605 234 88 12
-0.20910132 0.59140247 2.1132166 234 88 12
-0.19363917 0.60043496 2.1214437 234 88 12
-0.28594384 0.55203426 2.0533185 234 88 12
-0.26901272 0.55286962 2.0508523 234 88 12
-0.25285655 0.55707377 2.0527923 234 88 12
-0.23726021 0.56394303 2.0582068 234 88 12
-0.2225756 0.57538044 2.069567 234 88 12
-0.21067759 0.60095972 2.0993259 234 88 12
-0.19445793 0.60617936 2.1025324 234 88 12
-0.27500612 0.58167279 2.0622976 234 88 12
-0.25800136 0.58260745 2.0599582 234 88 12
-0.24152403 0.58587289 2.0606437 234 88 12
-0.22568469 0.59219825 2.0652888 234 88 12
-0.21232711 0.61087507 2.0858986 234 88 12
-0.19627346 0.61694402 2.0901787 234 88 12
-0.28485447 0.62735629 2.0951402 234 88 12
-0.26588354 0.62045997 2.0826879 234 88 12
-0.2478523 0.61735463 2.0751367 234 88 12
-0.23096733 0.61935419 2.0741613 234 88 12
-0.21450587 0.62338066 2.0757902 234 88 12
-0.19888595 0.63172984 2.0829611 234 88 12
-0.25894925 0.45997357 2.1117241 234 88 12
-0.24887247 0.47052029 2.1100891 234 88 12
-0.24046627 0.48251978 2.110564 234 88 12
-0.235761 0.49782282 2.1157627 234 88 12
-0.27528986 0.45440158 2.1027901 234 88 12
-0.26114824 0.46147299 2.096096 234 88 12
-0.25171199 0.47256842 2.0952704 234 88 12
-0.24312016 0.48439798 2.0955045 234 88 12
-0.23562178 0.4972046 2.0971262 234 88 12
-0.24518481 0.52537417 2.1204672 234 88 12
-0.23496492 0.53589952 2.1187212 234 88 12
-0.22628623 0.54781353 2.1189377 234 88 12
-0.27888656 0.45711011 2.088882 234 88 12
-0.26478389 0.46421635 2.0822785 234 88 12
-0.25527656 0.47525039 2.0813694 234 88 12
-0.24668503 0.48708016 2.0816023 234 88 12
-0.2392363 0.49993071 2.0832767 234 88 12
-0.23957869 0.51980764 2.0948136 234 88 12
-0.23758386 0.53771889 2.1034727 234 88 12
-0.22874001 0.54947329 2.1034727 234 88 12
-0.22062886 0.56190515 2.1044097 234 88 12
-0.22734928 0.58819354 2.1243949 234 88 12
-0.21805725 0.59966868 2.1238985 234 88 12
-0.20990475 0.6122207 2.1248724 234 88 12
-0.28916091 0.46554264 2.0832062 234 88 12
-0.27027196 0.46856269 2.0707521 234 88 12
-0.25996283 0.47891223 2.0688617 234 88 12
-0.25145754 0.49082738 2.0692062 234 88 12
-0.24578822 0.50527197 2.0731025 234 88 12
-0.25014377 0.52877867 2.0896227 234 88 12
-0.24109502 0.54034823 2.0893648 234 88 12
-0.23225147 0.55210215 2.0893648 234 88 12
-0.22393551 0.56434381 2.0900354 234 88 12
-0.22960077 0.58964074 2.1085467 234 88 12
-0.22069921 0.60147178 2.1085467 234 88 12
-0.21206555 0.61355752 2.108891 234 88 12
-0.20462291 0.626791 2.1107752 234 88 12
-0.30575368 0.47938806 2.0851672 234 88 12
-0.2867139 0.48238567 2.0726657 234 88 12
-0.27076307 0.48791385 2.0638831 234 88 12
-0.2612085 0.49896374 2.062959 234 88 12
-0.26158857 0.51884383 2.0743828 234 88 12
-0.25546452 0.53303462 2.077774 234 88 12
-0.24501982 0.54335272 2.0757768 234 88 12
-0.23628856 0.55521232 2.0759196 234 88 12
-0.22913611 0.56853294 2.0780571 234 88 12
-0.23176861 0.59101063 2.0926144 234 88 12
-0.22430211 0.60418028 2.0944335 234 88 12
-0.21555346 0.61615658 2.0946288 234 88 12
-0.20807734 0.62935627 2.0964575 234 88 12
-0.28063676 0.51562846 2.0685284 234 88 12
-0.27142552 0.52710384 2.0681009 234 88 12
-0.26276359 0.53906679 2.0683517 234 88 12
-0.25364107 0.55061555 2.0680311 234 88 12
-0.24513073 0.56272024 2.0684731 234 88 12
-0.2387583 0.57680625 2.0716009 234 88 12
-0.2346167 0.59301573 2.0775623 234 88 12
-0.22807084 0.60704488 2.0805302 234 88 12
-0.22002389 0.61968911 2.0816157 234 88 12
-0.2127353 0.63307577 2.0836759 234 88 12
-0.28538808 0.51935172 2.0558958 234 88 12
-0.27558658 0.53031158 2.0547516 234 88 12
-0.26663977 0.54202342 2.0546525 234 88 12
-0.25812715 0.55412745 2.0550895 234 88 12
-0.25021958 0.56679118 2.0562816 234 88 12
-0.24524829 0.58218336 2.0611432 234 88 12
-0.24039203 0.59775025 2.0661862 234 88 12
-0.23499325 0.61287695 2.0705864 234 88 12
-0.22980773 0.62826771 2.0752897 234 88 12
-0.26033193 0.57545674 2.0502651 234 88 12
-0.19750312 0.62822497 2.0955069 234 88 12
-0.20851181 0.61831266 2.0934014 234 88 12
-0.21903439 0.60809541 2.0930548 234 88 12
-0.23135792 0.5991053 2.0859742 234 88 12
-0.24239396 0.58928025 2.0836127 234 88 12
-0.25279778 0.57902551 2.0836127 234 88 12
-0.2629084 0.56855696 2.0847404 234 88 12
-0.2729142 0.55800027 2.0862975 234 88 12
-0.28260848 0.5471918 2.0891082 234 88 12
-0.29188305 0.53603011 2.0936391 234 88 12
-0.29791024 0.52223152 2.1112638 234 88 12
-0.30678263 0.51059675 2.1177449 234 88 12
-0.20047985 0.61037421 2.0854175 234 88 12
-0.2110783 0.60019881 2.0848157 234 88 12
-0.22160351 0.58997864 2.0844736 234 88 12
-0.23465709 0.58152622 2.0746779 234 88 12
-0.24507691 0.57127798 2.0746286 234 88 12
-0.25538912 0.56095147 2.0749881 234 88 12
-0.26540244 0.55039829 2.0765047 234 88 12
-0.27517948 0.53965062 2.0789695 234 88 12
-0.28470105 0.52868062 2.0824866 234 88 12
-0.29375541 0.51730424 2.0879276 234 88 12
-0.29941663 0.50309783 2.1070709 234 88 12
-0.3082332 0.49135616 2.1138427 234 88 12
-0.22674274 0.57364661 2.0663793 234 88 12
-0.23725456 0.56345654 2.0660033 234 88 12
-0.24758185 0.55313462 2.0663166 234 88 12
-0.25775206 0.54269207 2.0672348 234 88 12
-0.26730815 0.53177023 2.0705342 234 88 12
-0.27706149 0.52097315 2.073133 234 88 12
-0.28641215 0.50982898 2.0773654 234 88 12
-0.29146156 0.49511591 2.0987437 234 88 12
-0.30065522 0.48368001 2.1039565 234 88 12
-0.30973586 0.47209761 2.1097355 234 88 12
-0.22849526 0.55496049 2.0608208 234 88 12
-0.23938721 0.54503161 2.0590672 234 88 12
-0.24937619 0.5344398 2.060688 234 88 12
-0.25946221 0.5239079 2.0619709 234 88 12
-0.26896876 0.51290876 2.06551 234 88 12
-0.2785877 0.50196731 2.0686829 234 88 12
-0.28314248 0.48683348 2.0918107 234 88 12
-0.29259738 0.4756003 2.095969 234 88 12
-0.3019318 0.46422404 2.1006961 234 88 12
-0.21384193 0.54221296 2.0771689 234 88 12
-0.22470409 0.53214532 2.0757952 234 88 12
-0.2350232 0.52168089 2.0764256 234 88 12
-0.25055504 0.5152266 2.0573862 234 88 12
-0.25466338 0.49994856 2.0815289 234 88 12
-0.26445013 0.48902011 2.0842853 234 88 12
-0.27442953 0.47822446 2.0863478 234 88 12
-0.28417706 0.46721414 2.0893633 234 88 12
-0.23423845 0.50081974 2.0804107 234 88 12
-0.24523184 0.49081355 2.0786452 234 88 12
-0.25576967 0.48045623 2.0785823 234 88 12
-0.26601252 0.46985623 2.0796547 234 88 12
-0.27499971 0.45818749 2.0856347 234 88 12
-0.22427353 0.4912979 2.0792804 234 88 12
-0.23676157 0.48243275 2.0720277 234 88 12
-0.24729443 0.47205484 2.0720193 234 88 12
-0.2568166 0.4608421 2.0758667 234 88 12
-0.23729685 0.46241802 2.0710845 234 88 12
-0.3165212 0.50457048 2.1224451 234 88 12
-0.31456882 0.48749006 2.1218288 234 88 12
-0.31245431 0.47052199 2.1219964 234 88 12
-0.30569348 0.55890018 2.1241207 234 88 12
-0.30469951 0.5410735 2.118912 234 88 12
-0.30315983 0.52367771 2.116327 234 88 12
-0.30162778 0.50629759 2.1137171 234 88 12
-0.29955265 0.48930413 2.1136959 234 88 12
-0.29747242 0.47231418 2.113699 234 88 12
-0.29532409 0.45536745 2.1140237 234 88 12
-0.29353565 0.61448658 2.1318836 234 88 12
-0.29308784 0.59611678 2.1241174 234 88 12
-0.29239136 0.57799977 2.1175573 234 88 12
-0.29500085 0.55748731 2.0954738 234 88 12
-0.29389679 0.53983504 2.0909166 234 88 12
-0.29194769 0.52281356 2.0903375 234 88 12
-0.28975123 0.50596583 2.0909166 234 88 12
-0.28464472 0.49104702 2.1050653 234 88 12
-0.28251654 0.4740909 2.105293 234 88 12
-0.28031325 0.45717999 2.1058683 234 88 12
-0.2802476 0.6336177 2.1250019 234 88 12
-0.27945703 0.6154989 2.1189456 234 88 12
-0.28206223 0.59481746 2.0971477 234 88 12
-0.28181964 0.57645166 2.0886378 234 88 12
-0.28080615 0.55871934 2.0837281 234 88 12
-0.27908874 0.5415287 2.082087 234 88 12
-0.27710751 0.5245344 2.0816677 234 88 12
-0.27500612 0.50762463 2.0818019 234 88 12
-0.26962951 0.49286282 2.0969508 234 88 12
-0.26753175 0.47588766 2.0970356 234 88 12
-0.26530236 0.45899332 2.0977211 234 88 12
-0.26290721 0.44219297 2.099159 234 88 12
-0.26637766 0.65322781 2.1207607 234 88 12
-0.26550829 0.63514501 2.1151481 234 88 12
-0.26443654 0.61726612 2.1104848 234 88 12
-0.2678501 0.59601897 2.0853682 234 88 12
-0.26701638 0.57812446 2.0797029 234 88 12
-0.26579949 0.56055307 2.075803 234 88 12
-0.26408237 0.54336548 2.0741882 234 88 12
-0.26210254 0.526371 2.0737696 234 88 12
-0.26000071 0.50946128 2.0739036 234 88 12
-0.25457358 0.49470565 2.0890257 234 88 12
-0.25248814 0.47772262 2.0890541 234 88 12
-0.25027788 0.46081567 2.0896423 234 88 12
-0.24785921 0.44402766 2.0911617 234 88 12
-0.25083739 0.65538847 2.1144888 234 88 12
-0.25020012 0.63712841 2.1079209 234 88 12
-0.24913359 0.6192525 2.1033108 234 88 12
-0.25282985 0.59784275 2.0773444 234 88 12
-0.25190297 0.5800283 2.0721912 234 88 12
-0.25052661 0.56257671 2.0690684 234 88 12
-0.24884991 0.54535931 2.0672979 234 88 12
-0.24688421 0.52835196 2.0668211 234 88 12
-0.24468502 0.51150221 2.0673835 234 88 12
-0.23949678 0.49656188 2.0811937 234 88 12
-0.23738979 0.47959182 2.0813162 234 88 12
-0.23503087 0.462773 2.0825508 234 88 12
-0.23484725 0.63914329 2.1008673 234 88 12
-0.23326276 0.62166649 2.0986226 234 88 12
-0.23723137 0.60009521 2.0718765 234 88 12
-0.23623629 0.58233035 2.0671039 234 88 12
-0.23484129 0.56488633 2.0641084 234 88 12
-0.23312294 0.54768878 2.0625439 234 88 12
-0.23105717 0.53073633 2.0625067 234 88 12
-0.22417119 0.49857521 2.0744431 234 88 12
-0.22196802 0.48165929 2.07498 234 88 12
-0.21893284 0.64158529 2.0962315 234 88 12
-0.21784453 0.62372744 2.0918581 234 88 12
-0.21584564 0.60657185 2.0914559 234 88 12
-0.2137543 0.58948565 2.0914559 234 88 12
-0.21119983 0.57272166 2.0934587 234 88 12
-0.20302926 0.64400476 2.0914414 234 88 12
-0.20189454 0.62617719 2.0873308 234 88 12
-0.20027962 0.60873061 2.085288 234 88 12
-0.19802794 0.59175003 2.085968 234 88 12
-0.3036505 0.45834064 2.124898 234 88 12
-0.28515202 0.45193848 2.1138022 234 88 12
-0.26690489 0.44799024 2.1092038 234 88 12
-0.24878906 0.44573486 2.109102 234 88 12
-0.31983548 0.47647169 2.1158838 234 88 12
-0.30133942 0.47048974 2.1060278 234 88 12
-0.28302747 0.46591562 2.099844 234 88 12
-0.26488173 0.46314803 2.0983951 234 88 12
-0.24677283 0.46084613 2.0981686 234 88 12
-0.22868924 0.45908064 2.0993562 234 88 12
-0.31778124 0.49170119 2.1051285 234 88 12
-0.29931989 0.48593986 2.0959511 234 88 12
-0.28104678 0.48174867 2.0908282 234 88 12
-0.26290464 0.47898692 2.0894098 234 88 12
-0.24480256 0.47677124 2.0894098 234 88 12
-0.22671361 0.47486597 2.0902193 234 88 12
-0.31586674 0.50841141 2.098217 234 88 12
-0.29740715 0.50266629 2.089184 234 88 12
-0.27910069 0.49805361 2.0830371 234 88 12
-0.26095614 0.49528039 2.0816057 234 88 12
-0.24284942 0.49302435 2.0815027 234 88 12
-0.2247619 0.49121854 2.0825601 234 88 12
-0.31418473 0.5277285 2.097878 234 88 12
-0.29550365 0.51953846 2.0827498 234 88 12
-0.27724802 0.51570964 2.0786643 234 88 12
-0.25904858 0.51227427 2.0755694 234 88 12
-0.2409312 0.50999612 2.0754142 234 88 12
-0.22329518 0.51994222 2.1064332 234 88 12
-0.31261748 0.5484857 2.1009729 234 88 12
-0.29355192 0.53583115 2.0748174 234 88 12
-0.27536744 0.53303665 2.0733762 234 88 12
-0.25722787 0.53081745 2.073379 234 88 12
-0.23913127 0.52949524 2.0756414 234 88 12
-0.22130296 0.53574783 2.0970168 234 88 12
-0.20309401 0.53446013 2.0994017 234 88 12
-0.31116071 0.57072353 2.1074901 234 88 12
-0.29164541 0.55272508 2.0683665 234 88 12
-0.27344605 0.54981458 2.0666547 234 88 12
-0.25530407 0.5476765 2.0668616 234 88 12
-0.23719431 0.5462684 2.0688879 234 88 12
-0.21932587 0.55194169 2.088589 234 88 12
-0.20111622 0.55068731 2.0910313 234 88 12
-0.28991657 0.57203871 2.067816 234 88 12
-0.27157754 0.56744438 2.061991 234 88 12
-0.25341085 0.56513768 2.061785 234 88 12
-0.23530865 0.56422871 2.0650246 234 88 12
-0.21737064 0.56876272 2.0817072 234 88 12
-0.19943044 0.57859939 2.1115363 234 88 12
-0.28847405 0.59543216 2.0770123 234 88 12
-0.26984578 0.587322 2.0627162 234 88 12
-0.25158805 0.58400017 2.0600502 234 88 12
-0.2334533 0.58301342 2.0630736 234 88 12
-0.21574472 0.59544069 2.0988624 234 88 12
-0.19741453 0.59387022 2.1005132 234 88 12
-0.2874907 0.62561971 2.1021733 234 88 12
-0.2683045 0.61049455 2.0711794 234 88 12
-0.2498872 0.60538203 2.0642459 234 88 12
-0.23169644 0.60432631 2.0670862 234 88 12
-0.21376227 0.61194432 2.0908906 234 88 12
-0.19543292 0.61055559 2.0929642 234 88 12
-0.26715899 0.64064455 2.0959096 234 88 12
-0.24857073 0.63472492 2.0871634 234 88 12
-0.23015724 0.63136268 2.0845032 234 88 12
-0.21180688 0.62934464 2.0850503 234 88 12
-0.19349049 0.62914079 2.0899415 234 88 12
-0.22835831 0.65254599 2.0875478 234 88 12
-0.20997137 0.65089834 2.0889795 234 88 12
-0.24751277 0.4531849 2.1115801 234 88 12
-0.23487008 0.46528727 2.1107042 234 88 12
-0.22334109 0.47866029 2.1127319 234 88 12
-0.26911438 0.44989091 2.1001256 234 88 12
-0.25575912 0.46120733 2.0974469 234 88 12
-0.24336612 0.47357965 2.0972059 234 88 12
-0.23146389 0.48651329 2.0982356 234 88 12
-0.22122671 0.50140405 2.1036394 234 88 12
-0.29711762 0.45352745 2.1046321 234 88 12
-0.27796015 0.45858616 2.087528 234 88 12
-0.26480722 0.47012576 2.0853813 234 88 12
-0.25241369 0.48249754 2.0851412 234 88 12
-0.24049425 0.49541107 2.0861175 234 88 12
-0.22941898 0.50932193 2.0892994 234 88 12
-0.22521031 0.53140175 2.1104872 234 88 12
-0.21304432 0.54420865 2.1110394 234 88 12
-0.30877835 0.46527204 2.0988703 234 88 12
-0.28841934 0.46905515 2.0789635 234 88 12
-0.27432531 0.47956842 2.0744967 234 88 12
-0.26189646 0.49190801 2.0741785 234 88 12
-0.24991165 0.50475329 2.0749881 234 88 12
-0.23968185 0.51965427 2.0803239 234 88 12
-0.23330826 0.53918576 2.0957394 234 88 12
-0.22183542 0.55280656 2.0980768 234 88 12
-0.21044141 0.56655496 2.1006594 234 88 12
-0.20615701 0.58912218 2.1221576 234 88 12
-0.19466482 0.60294878 2.1247146 234 88 12
-0.3216041 0.47827539 2.09586 234 88 12
-0.30268782 0.48370719 2.0797586 234 88 12
-0.28615126 0.49158275 2.0693424 234 88 12
-0.27287832 0.50301301 2.0669601 234 88 12
-0.26124817 0.51629692 2.0686975 234 88 12
-0.25427046 0.53502011 2.0823236 234 88 12
-0.24197793 0.54764742 2.0825062 234 88 12
-0.23030157 0.56101573 2.0842874 234 88 12
-0.21960095 0.57559484 2.088644 234 88 12
-0.21447314 0.59711027 2.1077337 234 88 12
-0.20242971 0.61022991 2.108788 234 88 12
-0.19152871 0.6248157 2.1129146 234 88 12
-0.31997988 0.50167251 2.087749 234 88 12
-0.30351347 0.5097599 2.0777462 234 88 12
-0.28810275 0.51890928 2.070219 234 88 12
-0.27545094 0.53112245 2.0694966 234 88 12
-0.26336575 0.54398501 2.070195 234 88 12
-0.2510736 0.55661279 2.0703771 234 88 12
-0.23932186 0.56988996 2.0719492 234 88 12
-0.22950445 0.58553833 2.0785511 234 88 12
-0.22351642 0.60599709 2.0952451 234 88 12
-0.21136133 0.61897451 2.0959945 234 88 12
-0.20024346 0.63327843 2.0995047 234 88 12
-0.29775241 0.52850026 2.0594585 234 88 12
-0.28491524 0.54051042 2.0582917 234 88 12
-0.27261856 0.55313307 2.0584612 234 88 12
-0.26060206 0.56608832 2.0593407 234 88 12
-0.2490475 0.57960808 2.0614095 234 88 12
-0.23942839 0.59550458 2.0684748 234 88 12
-0.23279747 0.61517698 2.0833764 234 88 12
-0.22106433 0.62868321 2.0852213 234 88 12
-0.21003714 0.64310992 2.0889499 234 88 12
-0.28436211 0.56517297 2.0529079 234 88 12
-0.27203545 0.57780683 2.0530541 234 88 12
-0.2610769 0.59207737 2.0566537 234 88 12
-0.25176686 0.6083954 2.0645008 234 88 12
-0.24359438 0.62622041 2.075386 234 88 12
-0.23247024 0.64051461 2.0788209 234 88 12
-0.27604404 0.63573384 2.0904722 234 88 12
-0.21197243 0.59393281 2.1225114 234 88 12
-0.20861952 0.60869026 2.1206894 234 88 12
-0.2069777 0.62405658 2.1211934 234 88 12
-0.2433366 0.45946717 2.1167731 234 88 12
-0.23899202 0.47403413 2.1136518 234 88 12
-0.23711163 0.48933464 2.1138337 234 88 12
-0.24657127 0.50821352 2.1292515 234 88 12
-0.24392851 0.52334201 2.1284206 234 88 12
-0.22842686 0.53424865 2.1102853 234 88 12
-0.22638619 0.54948348 2.1102493 234 88 12
-0.22499113 0.56493759 2.1110833 234 88 12
-0.22181235 0.57978165 2.1095128 234 88 12
-0.21785429 0.59433663 2.1068878 234 88 12
-0.21553215 0.60945421 2.1064687 234 88 12
-0.21356592 0.6246978 2.1065302 234 88 12
-0.21344851 0.64062822 2.1090932 234 88 12
-0.24814905 0.45964599 2.0997057 234 88 12
-0.24596722 0.47485164 2.0994842 234 88 12
-0.24395184 0.49010664 2.0994842 234 88 12
-0.24257861 0.50556386 2.1003411 234 88 12
-0.24418351 0.52198493 2.1051764 234 88 12
-0.23572177 0.5351572 2.0965652 234 88 12
-0.23367208 0.55038732 2.0965171 234 88 12
-0.23194681 0.56572711 2.0969031 234 88 12
-0.22930028 0.58075207 2.0960557 234 88 12
-0.2254248 0.59533679 2.0935593 234 88 12
-0.22310175 0.61045426 2.0931418 234 88 12
-0.22113563 0.62569785 2.0932028 234 88 12
-0.22102384 0.64162898 2.0957561 234 88 12
-0.26210037 0.44665375 2.0921035 234 88 12
-0.25569829 0.46063763 2.0863073 234 88 12
-0.25344354 0.47582114 2.0859907 234 88 12
-0.25142825 0.49107552 2.0859907 234 88 12
-0.24992694 0.50649148 2.0866721 234 88 12
-0.25032756 0.52252316 2.0898771 234 88 12
-0.24346638 0.53621292 2.0834475 234 88 12
-0.24128519 0.55140036 2.083225 234 88 12
-0.23962279 0.56676149 2.0836921 234 88 12
-0.23765771 0.58202261 2.0837572 234 88 12
-0.2345573 0.5968855 2.0823104 234 88 12
-0.2314464 0.61173129 2.0808475 234 88 12
-0.2299376 0.62714595 2.0815191 234 88 12
-0.23479663 0.64492142 2.0906909 234 88 12
-0.27943739 0.45047709 2.0915115 234 88 12
-0.26379704 0.46179175 2.0736313 234 88 12
-0.26126671 0.47689536 2.0729551 234 88 12
-0.25930971 0.49216914 2.0730321 234 88 12
-0.25878409 0.50789279 2.0749934 234 88 12
-0.25821838 0.52362186 2.076905 234 88 12
-0.25224414 0.53760529 2.0716887 234 88 12
-0.24992897 0.55275565 2.0712922 234 88 12
-0.25073329 0.56895757 2.0750146 234 88 12
-0.24970041 0.58456141 2.0763147 234 88 12
-0.24623668 0.59932512 2.0744019 234 88 12
-0.24352866 0.6143406 2.0734863 234 88 12
-0.24929233 0.63242185 2.0837913 234 88 12
-0.28202286 0.46593368 2.0741568 234 88 12
-0.27172446 0.47876272 2.0633547 234 88 12
-0.26985186 0.49407983 2.0635443 234 88 12
-0.2711634 0.51039624 2.0678973 234 88 12
-0.26785645 0.52527815 2.0662138 234 88 12
-0.26272011 0.53954905 2.0621321 234 88 12
-0.26068896 0.55481142 2.0621138 234 88 12
-0.25883344 0.57013291 2.0623255 234 88 12
-0.25756767 0.58565915 2.0633116 234 88 12
-0.25828424 0.6018883 2.0669031 234 88 12
-0.27219525 0.62284911 2.0878456 234 88 12
-0.3007215 0.48620111 2.0777416 234 88 12
-0.29692009 0.50105608 2.0754485 234 88 12
-0.28221706 0.51248002 2.0589948 234 88 12
-0.27712867 0.52681565 2.055011 234 88 12
-0.27250123 0.54126376 2.0516205 234 88 12
-0.26963529 0.55626315 2.0505178 234 88 12
-0.26827237 0.57175893 2.0513711 234 88 12
-0.20093405 0.61979938 2.121675 234 88 12
-0.21146165 0.6305216 2.1213536 234 88 12
-0.22388211 0.64034688 2.1256392 234 88 12
-0.19741638 0.60194337 2.1103528 234 88 12
-0.20719393 0.61303669 2.1081991 234 88 12
-0.21753028 0.62384212 2.1074312 234 88 12
-0.22905369 0.63407785 2.109539 234 88 12
-0.24302305 0.64319205 2.1174865 234 88 12
-0.20444222 0.59480518 2.0987527 234 88 12
-0.21444343 0.60578722 2.0971613 234 88 12
-0.22477838 0.61659402 2.0963955 234 88 12
-0.23625591 0.62684959 2.0983782 234 88 12
-0.24926221 0.63640594 2.1039762 234 88 12
-0.26897103 0.64293462 2.1253626 234 88 12
-0.21262759 0.58707839 2.0899742 234 88 12
-0.22219642 0.59828663 2.087337 234 88 12
-0.23283654 0.60894984 2.0872998 234 88 12
-0.24399459 0.61936444 2.0884957 234 88 12
-0.2582936 0.62831241 2.0971031 234 88 12
-0.27568078 0.63590586 2.1128566 234 88 12
-0.22251728 0.56223738 2.1111643 234 88 12
-0.22229272 0.57859182 2.0847275 234 88 12
-0.23148648 0.59001392 2.0811741 234 88 12
-0.24190153 0.60080743 2.0805707 234 88 12
-0.25430802 0.61063689 2.0846801 234 88 12
-0.26967824 0.6190995 2.0956948 234 88 12
-0.28506318 0.62764257 2.1066048 234 88 12
-0.22023088 0.54355985 2.1028061 234 88 12
-0.22541988 0.55722833 2.0894015 234 88 12
-0.23527229 0.56839508 2.0873237 234 88 12
-0.24511252 0.57955098 2.0852437 234 88 12
-0.25582245 0.59026092 2.0852437 234 88 12
-0.26764187 0.60043395 2.0878465 234 88 12
-0.28312591 0.60888886 2.0989583 234 88 12
-0.21779181 0.52493757 2.094074 234 88 12
-0.22735029 0.53634661 2.0911739 234 88 12
-0.23261197 0.54998666 2.078043 234 88 12
-0.24270068 0.56103259 2.0765429 234 88 12
-0.25250638 0.57220918 2.0743942 234 88 12
-0.26321697 0.58291978 2.0743942 234 88 12
-0.27533343 0.59294689 2.0776687 234 88 12
-0.23383208 0.51284516 2.1038673 234 88 12
-0.23323043 0.52979952 2.0765893 234 88 12
-0.24098952 0.54212081 2.0695007 234 88 12
-0.25029308 0.55358469 2.066144 234 88 12
-0.26077613 0.56442249 2.0655928 234 88 12
-0.2717298 0.57502145 2.066144 234 88 12
-0.28920421 0.5824405 2.0817678 234 88 12
-0.22630142 0.47999495 2.1089685 234 88 12
-0.23498835 0.49207962 2.1037345 234 88 12
-0.24295172 0.50451708 2.0968423 234 88 12
-0.24205153 0.52167338 2.0690267 234 88 12
-0.2503337 0.53373909 2.0631981 234 88 12
-0.25943312 0.54533201 2.0593569 234 88 12
-0.26983199 0.55623102 2.0585866 234 88 12
-0.28231713 0.56608063 2.0626464 234 88 12
-0.23215713 0.47347957 2.0940149 234 88 12
-0.24204215 0.48488036 2.0916998 234 88 12
-0.2519488 0.4962495 2.0894661 234 88 12
-0.25302884 0.51237464 2.0664871 234 88 12
-0.25995159 0.52520365 2.0574663 234 88 12
-0.26974538 0.53646052 2.0552318 234 88 12
-0.28133428 0.54678041 2.0571699 234 88 12
-0.23982485 0.46593115 2.0834322 234 88 12
-0.24950804 0.47745037 2.080652 234 88 12
-0.26027548 0.48834619 2.0804574 234 88 12
-0.26419118 0.50296074 2.064256 234 88 12
-0.27191618 0.51540768 2.0571053 234 88 12
-0.28230307 0.5264014 2.0561862 234 88 12
-0.29656497 0.5353967 2.0641618 234 88 12
-0.2486843 0.45769614 2.0756588 234 88 12
-0.25786045 0.46951914 2.0716846 234 88 12
-0.26833254 0.48058882 2.0707872 234 88 12
-0.2800172 0.49099001 2.0727143 234 88 12
-0.29375866 0.5003069 2.0793579 234 88 12
-0.30818453 0.5093202 2.0874848 234 88 12
-0.26953182 0.45970252 2.0704267 234 88 12
-0.28094414 0.47029245 2.0716512 234 88 12
-0.29454127 0.47969791 2.0778916 234 88 12
-0.30829433 0.48907277 2.0844097 234 88 12
-0.22653309 0.64639026 2.1284959 234 88 12
-0.24237949 0.64569193 2.128546 234 88 12
-0.25843924 0.64407796 2.1334534 234 88 12
-0.20993042 0.63480514 2.1144664 234 88 12
-0.22574303 0.63418132 2.1141312 234 88 12
-0.24161105 0.63328195 2.1152337 234 88 12
-0.25757056 0.63201606 2.1182444 234 88 12
-0.27364418 0.63037449 2.1232064 234 88 12
-0.1935387 0.62212098 2.1062636 234 88 12
-0.20930357 0.62179559 2.1044018 234 88 12
-0.22512315 0.62110776 2.1044018 234 88 12
-0.2409886 0.62019706 2.1055441 234 88 12
-0.25691164 0.61906564 2.1078148 234 88 12
-0.27299377 0.61734438 2.1130996 234 88 12
-0.1929605 0.60882246 2.0976753 234 88 12
-0.20874161 0.60840654 2.0963025 234 88 12
-0.2245452 0.60781497 2.0958171 234 88 12
-0.24041449 0.60688108 2.0970564 234 88 12
-0.25633821 0.60574001 2.0993366 234 88 12
-0.27245191 0.60386884 2.1052845 234 88 12
-0.28913569 0.59993529 2.1215863 234 88 12
-0.19252935 0.5945102 2.0941184 234 88 12
-0.20820045 0.59488577 2.0888395 234 88 12
-0.22402087 0.59422523 2.0887034 234 88 12
-0.23988779 0.59332526 2.0897527 234 88 12
-0.25576067 0.59243244 2.090765 234 88 12
-0.2716819 0.59136361 2.0926459 234 88 12
-0.28855434 0.58656442 2.112951 234 88 12
-0.20779534 0.58050501 2.0855327 234 88 12
-0.22357844 0.58016235 2.0838459 234 88 12
-0.23935102 0.57981157 2.082201 234 88 12
-0.25518224 0.57912886 2.0821733 234 88 12
-0.27108955 0.57811403 2.0837605 234 88 12
-0.28770712 0.57426995 2.0990875 234 88 12
-0.3044953 0.57019514 2.1155112 234 88 12
-0.22304346 0.56660295 2.0764523 234 88 12
-0.2388449 0.56612992 2.0754189 234 88 12
-0.25467286 0.56549424 2.0751657 234 88 12
-0.27055141 0.56462628 2.0760233 234 88 12
-0.2870917 0.5610581 2.0897787 234 88 12
-0.30403203 0.55633026 2.1090498 234 88 12
-0.20750611 0.54823506 2.0949512 234 88 12
-0.22257821 0.55262631 2.0709863 234 88 12
-0.23831069 0.55258423 2.0679379 234 88 12
-0.25414976 0.55191481 2.0678465 234 88 12
-0.27003223 0.55104667 2.0686898 234 88 12
-0.28652519 0.54764634 2.0814319 234 88 12
-0.30274552 0.54567093 2.0874639 234 88 12
-0.22282058 0.53441072 2.085077 234 88 12
-0.23792876 0.53820539 2.0642817 234 88 12
-0.25372937 0.53781581 2.0628924 234 88 12
-0.26970011 0.53659993 2.0653284 234 88 12
-0.28598794 0.53410798 2.0736616 234 88 12
-0.30225164 0.53195059 2.0804365 234 88 12
-0.23767661 0.52307373 2.0639012 234 88 12
-0.25339714 0.52324426 2.0599754 234 88 12
-0.26934248 0.52223378 2.0614336 234 88 12
-0.28553617 0.52019292 2.0675778 234 88 12
-0.30300093 0.51319057 2.0962744 234 88 12
-0.31996039 0.5088895 2.1126549 234 88 12
-0.22277376 0.50073153 2.0987585 234 88 12
-0.23842871 0.50224823 2.0888186 234 88 12
-0.25327361 0.50755757 2.0618815 234 88 12
-0.2691496 0.50705123 2.0610497 234 88 12
-0.28528166 0.5053907 2.0653882 234 88 12
-0.30282494 0.49805743 2.0951107 234 88 12
-0.31951264 0.49485016 2.1063371 234 88 12
-0.22213094 0.48759967 2.0884812 234 88 12
-0.23803893 0.48767874 2.0850494 234 88 12
-0.25405353 0.48707041 2.0846577 234 88 12
-0.27007502 0.48641524 2.0844734 234 88 12
-0.28625008 0.48506659 2.087347 234 88 12
-0.30259863 0.48308018 2.0930269 234 88 12
-0.3192099 0.48022565 2.1025212 234 88 12
-0.22173928 0.47287568 2.0851839 234 88 12
-0.23752485 0.47379225 2.0781572 234 88 12
-0.25354284 0.47320247 2.0776899 234 88 12
-0.26960632 0.47237292 2.0782647 234 88 12
-0.28601649 0.46998531 2.0856035 234 88 12
-0.30241603 0.46786892 2.0917554 234 88 12
-0.23722011 0.45865715 2.0765603 234 88 12
-0.25317994 0.45852304 2.0741439 234 88 12
-0.26934841 0.4572621 2.0765524 234 88 12
-0.28580332 0.45475814 2.0842726 234 88 12
-0.21184945 0.65397 2.1056938 234 88 12
-0.23022325 0.65383404 2.1046882 234 88 12
-0.24892317 0.65457577 2.1101727 234 88 12
-0.26783019 0.6557222 2.11865 234 88 12
-0.19325973 0.63499629 2.1014934 234 88 12
-0.21159936 0.63479811 2.0999856 234 88 12
-0.22998765 0.63476592 2.0997405 234 88 12
-0.24843648 0.63489324 2.1007094 234 88 12
-0.26724586 0.63586086 2.1080718 234 88 12
-0.28611451 0.63683552 2.1154876 234 88 12
-0.19319956 0.61639857 2.0999889 234 88 12
-0.21151334 0.61614758 2.098022 234 88 12
-0.22989108 0.61610806 2.0977125 234 88 12
-0.24761751 0.61445826 2.084785 234 88 12
-0.26608574 0.61474985 2.0870695 234 88 12
-0.28581578 0.61773086 2.1104283 234 88 12
-0.19318923 0.59796667 2.099731 234 88 12
-0.21149978 0.59771681 2.0977125 234 88 12
-0.22909701 0.59565222 2.081037 234 88 12
-0.24736625 0.59551132 2.0798993 234 88 12
-0.26571846 0.59557587 2.0804205 234 88 12
-0.28421912 0.59594333 2.0833883 234 88 12
-0.21087551 0.5776155 2.0834627 234 88 12
-0.22891577 0.5768677 2.0772309 234 88 12
-0.24716708 0.57672316 2.0760264 234 88 12
-0.26549473 0.5767644 2.0763702 234 88 12
-0.28388533 0.57692826 2.0777354 234 88 12
-0.21133541 0.56049824 2.0939603 234 88 12
-0.22885573 0.55840796 2.0759702 234 88 12
-0.2471468 0.55836868 2.0756321 234 88 12
-0.26545396 0.55836868 2.0756321 234 88 12
-0.28380558 0.55845618 2.076385 234 88 12
-0.30424997 0.56240147 2.1103406 234 88 12
-0.21133927 0.54213119 2.0940485 234 88 12
-0.22885522 0.54009831 2.0759597 234 88 12
-0.24713789 0.54004204 2.075459 234 88 12
-0.2654444 0.54004204 2.075459 234 88 12
-0.28379411 0.54012424 2.0761905 234 88 12
-0.30404055 0.54358768 2.1070089 234 88 12
-0.21136837 0.52382594 2.0947127 234 88 12
-0.22891149 0.52191818 2.0771413 234 88 12
-0.24716364 0.52178991 2.0759597 234 88 12
-0.26547265 0.52179104 2.0759702 234 88 12
-0.28384364 0.52190602 2.0770292 234 88 12
-0.30386677 0.5248608 2.1042442 234 88 12
-0.32265359 0.52546442 2.1098037 234 88 12
-0.22949597 0.50489116 2.0894156 234 88 12
-0.24726295 0.50368381 2.0778909 234 88 12
-0.26555815 0.50364476 2.0775185 234 88 12
-0.28391466 0.50371957 2.0782323 234 88 12
-0.30377397 0.5062899 2.1027675 234 88 12
-0.32246777 0.50673509 2.1070166 234 88 12
-0.22949402 0.48652732 2.0893745 234 88 12
-0.247834 0.48648897 2.0889945 234 88 12
-0.26619208 0.48648897 2.0889945 234 88 12
-0.28458971 0.48655659 2.0896645 234 88 12
-0.30376267 0.48786128 2.1025882 234 88 12
-0.32241327 0.48822579 2.1061988 234 88 12
-0.22951385 0.46820825 2.0897908 234 88 12
-0.24785355 0.46816781 2.0893745 234 88 12
-0.26621321 0.46816805 2.0893769 234 88 12
-0.28464001 0.46827877 2.0905166 234 88 12
-0.30378002 0.46947819 2.1028638 234 88 12
-0.32263184 0.47012067 2.1094775 234 88 12
-0.22960775 0.45003116 2.0917625 234 88 12
-0.24790804 0.44990718 2.0904341 234 88 12
-0.26628637 0.44993216 2.0907016 234 88 12
-0.28491843 0.45035493 2.0952315 234 88 12
-0.19633424 0.5999186 2.1173012 234 88 12
-0.19542331 0.6174795 2.1169195 234 88 12
-0.19625306 0.63576484 2.1211259 234 88 12
-0.21476111 0.53027827 2.1091874 234 88 12
-0.21376784 0.54782194 2.1085973 234 88 12
-0.21357509 0.56565875 2.1100898 234 88 12
-0.21182461 0.58291131 2.1075277 234 88 12
-0.21046872 0.60029829 2.1059914 234 88 12
-0.20965075 0.61789012 2.1058552 234 88 12
-0.20907575 0.63558155 2.1063526 234 88 12
-0.23367582 0.460738 2.1022899 234 88 12
-0.23267372 0.47829977 2.1016855 234 88 12
-0.23200773 0.49596673 2.1019442 234 88 12
-0.23063354 0.51339644 2.1003826 234 88 12
-0.22830887 0.53048223 2.096375 234 88 12
-0.22673015 0.54780316 2.0942831 234 88 12
-0.22617476 0.565485 2.0948238 234 88 12
-0.22576249 0.58322561 2.0957334 234 88 12
-0.22521578 0.60092121 2.0962975 234 88 12
-0.22445002 0.61853355 2.0962975 234 88 12
-0.22382917 0.63620549 2.0966713 234 88 12
-0.22748551 0.65568542 2.1080806 234 88 12
-0.25006187 0.44398105 2.0947495 234 88 12
-0.24825785 0.46131006 2.0921161 234 88 12
-0.24727051 0.47887456 2.0915554 234 88 12
-0.24659075 0.49653453 2.0917761 234 88 12
-0.24457811 0.51374918 2.0886073 234 88 12
-0.24197668 0.53073436 2.0839376 234 88 12
-0.24113569 0.54830849 2.083745 234 88 12
-0.24044438 0.56593585 2.0839331 234 88 12
-0.24022624 0.58374321 2.0853271 234 88 12
-0.23993765 0.60153466 2.0865426 234 88 12
-0.23944348 0.61925423 2.087235 234 88 12
-0.23943265 0.63717687 2.0891612 234 88 12
-0.26538619 0.44477105 2.0864251 234 88 12
-0.26314339 0.46197486 2.0827179 234 88 12
-0.26217365 0.4795461 2.0822074 234 88 12
-0.26131946 0.49715045 2.0819871 234 88 12
-0.25838065 0.51405895 2.0765219 234 88 12
-0.25669008 0.53135115 2.0741937 234 88 12
-0.25592145 0.54895025 2.0741851 234 88 12
-0.25515962 0.5665518 2.0741937 234 88 12
-0.25502074 0.58438647 2.0757725 234 88 12
-0.25463533 0.60213929 2.076731 234 88 12
-0.25588524 0.62054557 2.0818157 234 88 12
-0.25964975 0.64001238 2.093251 234 88 12
-0.28661537 0.44727007 2.0927474 234 88 12
-0.27878901 0.46286738 2.0752056 234 88 12
-0.27738893 0.48031402 2.073631 234 88 12
-0.27656162 0.49793124 2.0734806 234 88 12
-0.27424109 0.51505375 2.0696127 234 88 12
-0.27163839 0.5320484 2.0650389 234 88 12
-0.27072302 0.54959762 2.0646651 234 88 12
-0.2701042 0.56725091 2.0650301 234 88 12
-0.27002466 0.58510745 2.06674 234 88 12
-0.27062908 0.60323906 2.070158 234 88 12
-0.27863082 0.62429726 2.0920415 234 88 12
-0.30094281 0.46569449 2.0836589 234 88 12
-0.2970711 0.48245549 2.0760264 234 88 12
-0.29577467 0.49997279 2.0747278 234 88 12
-0.28996488 0.5159986 2.0623114 234 88 12
-0.28833613 0.53333652 2.0601866 234 88 12
-0.2865735 0.5506103 2.0577302 234 88 12
-0.28611711 0.5683322 2.0584929 234 88 12
-0.29960227 0.59119928 2.0936546 234 88 12
