<svg xmlns="http://www.w3.org/2000/svg" width="1280" height="720" viewBox="0 0 1280 720">
<style>
text{font-family:Inter,Arial,sans-serif;fill:#172033}
.title{font-size:25px;font-weight:700}.subtitle{font-size:13px;fill:#536076}
.axis{font-size:12px;fill:#536076}.legend{font-size:13px;font-weight:600}
.note{font-size:13px;fill:#92400e}.grid{stroke:#d9dee8;stroke-width:1}
</style>
<rect width="100%" height="100%" fill="#ffffff"/>
<text x="55" y="42" class="title">All-policy closed-loop surface coverage</text>
<text x="55" y="68" class="subtitle">Common evaluator target: vis_a. Phase 2 proxy-trained and Phase 3 direct-gain policies are distinct experiment groups.</text>
<line x1="60" y1="103" x2="90" y2="103" stroke="#64748b" stroke-width="4"/>
<text x="98" y="107" class="legend">Random (n=300)</text>
<line x1="355" y1="103" x2="385" y2="103" stroke="#2563eb" stroke-width="4"/>
<text x="393" y="107" class="legend">Farthest (n=300)</text>
<line x1="650" y1="103" x2="680" y2="103" stroke="#dc2626" stroke-width="4"/>
<text x="688" y="107" class="legend">PUN (n=300)</text>
<line x1="945" y1="103" x2="975" y2="103" stroke="#7c3aed" stroke-width="4"/>
<text x="983" y="107" class="legend">Phase 2 VGGT (n=300)</text>
<line x1="60" y1="133" x2="90" y2="133" stroke="#059669" stroke-width="4"/>
<text x="98" y="137" class="legend">Oracle (n=300)</text>
<line x1="355" y1="133" x2="385" y2="133" stroke="#ea580c" stroke-width="4"/>
<text x="393" y="137" class="legend">Phase 3 independent (n=300)</text>
<line x1="650" y1="133" x2="680" y2="133" stroke="#0891b2" stroke-width="4"/>
<text x="688" y="137" class="legend">Phase 3 joint (n=300)</text>
<line x1="105.0" y1="625.00" x2="1225.0" y2="625.00" class="grid"/>
<text x="91.0" y="629.00" class="axis" text-anchor="end">0.0</text>
<line x1="105.0" y1="537.00" x2="1225.0" y2="537.00" class="grid"/>
<text x="91.0" y="541.00" class="axis" text-anchor="end">0.2</text>
<line x1="105.0" y1="449.00" x2="1225.0" y2="449.00" class="grid"/>
<text x="91.0" y="453.00" class="axis" text-anchor="end">0.4</text>
<line x1="105.0" y1="361.00" x2="1225.0" y2="361.00" class="grid"/>
<text x="91.0" y="365.00" class="axis" text-anchor="end">0.6</text>
<line x1="105.0" y1="273.00" x2="1225.0" y2="273.00" class="grid"/>
<text x="91.0" y="277.00" class="axis" text-anchor="end">0.8</text>
<line x1="105.0" y1="185.00" x2="1225.0" y2="185.00" class="grid"/>
<text x="91.0" y="189.00" class="axis" text-anchor="end">1.0</text>
<text x="105.00" y="650.0" class="axis" text-anchor="middle">1</text>
<text x="229.44" y="650.0" class="axis" text-anchor="middle">2</text>
<text x="353.89" y="650.0" class="axis" text-anchor="middle">3</text>
<text x="478.33" y="650.0" class="axis" text-anchor="middle">4</text>
<text x="602.78" y="650.0" class="axis" text-anchor="middle">5</text>
<text x="727.22" y="650.0" class="axis" text-anchor="middle">6</text>
<text x="851.67" y="650.0" class="axis" text-anchor="middle">7</text>
<text x="976.11" y="650.0" class="axis" text-anchor="middle">8</text>
<text x="1100.56" y="650.0" class="axis" text-anchor="middle">9</text>
<text x="1225.00" y="650.0" class="axis" text-anchor="middle">10</text>
<line x1="105.0" y1="185.0" x2="105.0" y2="625.0" stroke="#64748b" stroke-width="1.5"/>
<line x1="105.0" y1="625.0" x2="1225.0" y2="625.0" stroke="#64748b" stroke-width="1.5"/>
<text x="665.0" y="688" class="axis" text-anchor="middle">Total acquired views (initial view included)</text>
<text x="27" y="405.0" class="axis" text-anchor="middle" transform="rotate(-90 27 405.0)">Mean absolute surface coverage</text>
<polyline points="105.00,539.07 229.44,435.40 353.89,372.63 478.33,329.36 602.78,301.89 727.22,282.03 851.67,270.72 976.11,261.45 1100.56,255.57 1225.00,250.52" fill="none" stroke="#64748b" stroke-width="3" stroke-linejoin="round"/>
<circle cx="105.00" cy="539.07" r="3" fill="#64748b"/>
<circle cx="229.44" cy="435.40" r="3" fill="#64748b"/>
<circle cx="353.89" cy="372.63" r="3" fill="#64748b"/>
<circle cx="478.33" cy="329.36" r="3" fill="#64748b"/>
<circle cx="602.78" cy="301.89" r="3" fill="#64748b"/>
<circle cx="727.22" cy="282.03" r="3" fill="#64748b"/>
<circle cx="851.67" cy="270.72" r="3" fill="#64748b"/>
<circle cx="976.11" cy="261.45" r="3" fill="#64748b"/>
<circle cx="1100.56" cy="255.57" r="3" fill="#64748b"/>
<circle cx="1225.00" cy="250.52" r="3" fill="#64748b"/>
<polyline points="105.00,539.07 229.44,459.22 353.89,376.43 478.33,335.05 602.78,300.49 727.22,261.38 851.67,256.17 976.11,252.36 1100.56,249.23 1225.00,245.58" fill="none" stroke="#2563eb" stroke-width="3" stroke-linejoin="round"/>
<circle cx="105.00" cy="539.07" r="3" fill="#2563eb"/>
<circle cx="229.44" cy="459.22" r="3" fill="#2563eb"/>
<circle cx="353.89" cy="376.43" r="3" fill="#2563eb"/>
<circle cx="478.33" cy="335.05" r="3" fill="#2563eb"/>
<circle cx="602.78" cy="300.49" r="3" fill="#2563eb"/>
<circle cx="727.22" cy="261.38" r="3" fill="#2563eb"/>
<circle cx="851.67" cy="256.17" r="3" fill="#2563eb"/>
<circle cx="976.11" cy="252.36" r="3" fill="#2563eb"/>
<circle cx="1100.56" cy="249.23" r="3" fill="#2563eb"/>
<circle cx="1225.00" cy="245.58" r="3" fill="#2563eb"/>
<polyline points="105.00,539.07 229.44,415.68 353.89,345.12 478.33,310.78 602.78,291.20 727.22,276.48 851.67,267.65 976.11,260.16 1100.56,255.06 1225.00,251.15" fill="none" stroke="#dc2626" stroke-width="3" stroke-linejoin="round"/>
<circle cx="105.00" cy="539.07" r="3" fill="#dc2626"/>
<circle cx="229.44" cy="415.68" r="3" fill="#dc2626"/>
<circle cx="353.89" cy="345.12" r="3" fill="#dc2626"/>
<circle cx="478.33" cy="310.78" r="3" fill="#dc2626"/>
<circle cx="602.78" cy="291.20" r="3" fill="#dc2626"/>
<circle cx="727.22" cy="276.48" r="3" fill="#dc2626"/>
<circle cx="851.67" cy="267.65" r="3" fill="#dc2626"/>
<circle cx="976.11" cy="260.16" r="3" fill="#dc2626"/>
<circle cx="1100.56" cy="255.06" r="3" fill="#dc2626"/>
<circle cx="1225.00" cy="251.15" r="3" fill="#dc2626"/>
<polyline points="105.00,539.07 229.44,445.52 353.89,381.37 478.33,354.71 602.78,326.01 727.22,306.34 851.67,293.57 976.11,280.93 1100.56,272.98 1225.00,265.90" fill="none" stroke="#7c3aed" stroke-width="3" stroke-linejoin="round"/>
<circle cx="105.00" cy="539.07" r="3" fill="#7c3aed"/>
<circle cx="229.44" cy="445.52" r="3" fill="#7c3aed"/>
<circle cx="353.89" cy="381.37" r="3" fill="#7c3aed"/>
<circle cx="478.33" cy="354.71" r="3" fill="#7c3aed"/>
<circle cx="602.78" cy="326.01" r="3" fill="#7c3aed"/>
<circle cx="727.22" cy="306.34" r="3" fill="#7c3aed"/>
<circle cx="851.67" cy="293.57" r="3" fill="#7c3aed"/>
<circle cx="976.11" cy="280.93" r="3" fill="#7c3aed"/>
<circle cx="1100.56" cy="272.98" r="3" fill="#7c3aed"/>
<circle cx="1225.00" cy="265.90" r="3" fill="#7c3aed"/>
<polyline points="105.00,539.07 229.44,382.48 353.89,287.59 478.33,265.84 602.78,254.39 727.22,248.22 851.67,243.88 976.11,240.56 1100.56,237.87 1225.00,235.62" fill="none" stroke="#059669" stroke-width="3" stroke-linejoin="round"/>
<circle cx="105.00" cy="539.07" r="3" fill="#059669"/>
<circle cx="229.44" cy="382.48" r="3" fill="#059669"/>
<circle cx="353.89" cy="287.59" r="3" fill="#059669"/>
<circle cx="478.33" cy="265.84" r="3" fill="#059669"/>
<circle cx="602.78" cy="254.39" r="3" fill="#059669"/>
<circle cx="727.22" cy="248.22" r="3" fill="#059669"/>
<circle cx="851.67" cy="243.88" r="3" fill="#059669"/>
<circle cx="976.11" cy="240.56" r="3" fill="#059669"/>
<circle cx="1100.56" cy="237.87" r="3" fill="#059669"/>
<circle cx="1225.00" cy="235.62" r="3" fill="#059669"/>
<polyline points="105.00,539.07 229.44,394.79 353.89,298.53 478.33,278.81 602.78,265.39 727.22,259.14 851.67,254.19 976.11,250.15 1100.56,247.36 1225.00,244.83" fill="none" stroke="#ea580c" stroke-width="3" stroke-linejoin="round" stroke-dasharray="9 5"/>
<circle cx="105.00" cy="539.07" r="3" fill="#ea580c"/>
<circle cx="229.44" cy="394.79" r="3" fill="#ea580c"/>
<circle cx="353.89" cy="298.53" r="3" fill="#ea580c"/>
<circle cx="478.33" cy="278.81" r="3" fill="#ea580c"/>
<circle cx="602.78" cy="265.39" r="3" fill="#ea580c"/>
<circle cx="727.22" cy="259.14" r="3" fill="#ea580c"/>
<circle cx="851.67" cy="254.19" r="3" fill="#ea580c"/>
<circle cx="976.11" cy="250.15" r="3" fill="#ea580c"/>
<circle cx="1100.56" cy="247.36" r="3" fill="#ea580c"/>
<circle cx="1225.00" cy="244.83" r="3" fill="#ea580c"/>
<polyline points="105.00,539.07 229.44,395.18 353.89,302.07 478.33,282.09 602.78,267.36 727.22,260.17 851.67,254.97 976.11,251.11 1100.56,248.08 1225.00,245.58" fill="none" stroke="#0891b2" stroke-width="3" stroke-linejoin="round" stroke-dasharray="9 5"/>
<circle cx="105.00" cy="539.07" r="3" fill="#0891b2"/>
<circle cx="229.44" cy="395.18" r="3" fill="#0891b2"/>
<circle cx="353.89" cy="302.07" r="3" fill="#0891b2"/>
<circle cx="478.33" cy="282.09" r="3" fill="#0891b2"/>
<circle cx="602.78" cy="267.36" r="3" fill="#0891b2"/>
<circle cx="727.22" cy="260.17" r="3" fill="#0891b2"/>
<circle cx="851.67" cy="254.97" r="3" fill="#0891b2"/>
<circle cx="976.11" cy="251.11" r="3" fill="#0891b2"/>
<circle cx="1100.56" cy="248.08" r="3" fill="#0891b2"/>
<circle cx="1225.00" cy="245.58" r="3" fill="#0891b2"/>
</svg>
