ply
format ascii 1.0
element vertex 833
property float x
property float y
property float z
property uchar red
property uchar green
property uchar blue
end_header
-1.1590269 -0.91793716 1.6955794 234 88 12
-1.1482519 -0.92871213 1.6955794 234 88 12
-1.1455582 -0.93140584 1.6955794 234 88 12
-1.1334363 -0.9435277 1.6955794 234 88 12
-1.1307427 -0.94622141 1.6955794 234 88 12
-1.165331 -0.91346633 1.6941838 234 88 12
-1.1639842 -0.91481316 1.6941838 234 88 12
-1.1779392 -0.90452456 1.6913927 234 88 12
-1.1892005 -0.89692974 1.6886014 234 88 12
-1.1914641 -0.89649945 1.6872058 234 88 12
-1.1896869 -0.90010983 1.6858102 234 88 12
-1.146587 -0.94320971 1.6858102 234 88 12
-1.1771349 -0.91449517 1.6844145 234 88 12
-1.1937836 -0.90151286 1.6816233 234 88 12
-1.1883961 -0.90690029 1.6816233 234 88 12
-1.158765 -0.93653148 1.6816233 234 88 12
-1.1520307 -0.9432658 1.6816233 234 88 12
-1.1610847 -0.94154483 1.6760409 234 88 12
-1.1606544 -0.94380832 1.6746453 234 88 12
-0.91860896 -0.51422197 1.4975049 234 88 12
-0.90366071 -0.49460906 1.4885819 234 88 12
-0.91415763 -0.48962212 1.4862995 234 88 12
0.10455907 1.2070012 1.8834368 234 88 12
0.10077776 1.207464 1.8834368 234 88 12
0.041251715 1.1617295 1.3552631 234 88 12
0.015162824 1.1650629 1.3566588 234 88 12
0.086062759 1.2126667 1.8816727 234 88 12
0.12428602 1.2113899 1.8799086 234 88 12
0.090664491 1.2189069 1.8781445 234 88 12
0.086883187 1.2193696 1.8781445 234 88 12
0.13057329 1.2157229 1.8772625 234 88 12
0.10599482 1.2187313 1.8772625 234 88 12
0.11943449 1.2187871 1.8763804 234 88 12
0.13287416 1.2188429 1.8754984 234 88 12
0.19567589 1.2145576 1.8737342 234 88 12
0.18811329 1.2154833 1.8737342 234 88 12
0.17298807 1.2173346 1.8737342 234 88 12
0.16164416 1.2187232 1.8737342 234 88 12
0.15786286 1.2191859 1.8737342 234 88 12
0.21478753 1.2139193 1.8728522 234 88 12
0.17508383 1.218779 1.8728522 234 88 12
0.071097963 1.2315067 1.8728522 234 88 12
0.069412418 1.2334139 1.8719702 234 88 12
0.056177855 1.2350338 1.8719702 234 88 12
0.21897905 1.2168078 1.8710881 234 88 12
0.21708839 1.2170392 1.8710881 234 88 12
0.20196317 1.2188905 1.8710881 234 88 12
0.18683796 1.2207419 1.8710881 234 88 12
0.17360339 1.2223618 1.8710881 234 88 12
0.15847817 1.2242131 1.8710881 234 88 12
0.14335296 1.2260644 1.8710881 234 88 12
0.1301184 1.2276844 1.8710881 234 88 12
0.11499318 1.2295357 1.8710881 234 88 12
0.099867962 1.231387 1.8710881 234 88 12
0.086633392 1.2330068 1.8710881 234 88 12
0.08474274 1.2332383 1.8710881 234 88 12
0.071508177 1.2348582 1.8710881 234 88 12
0.056382962 1.2367095 1.8710881 234 88 12
0.043148398 1.2383294 1.8710881 234 88 12
0.2172935 1.218715 1.8702061 234 88 12
0.098182417 1.2332941 1.8702061 234 88 12
0.028228287 1.2418565 1.8702061 234 88 12
0.21938926 1.2201593 1.8693241 234 88 12
0.11162209 1.2333499 1.8693241 234 88 12
0.013308178 1.2453835 1.8693241 234 88 12
0.12506175 1.2334057 1.8684419 234 88 12
0.0078413291 1.2477534 1.8684419 234 88 12
0.14039208 1.2332301 1.8675599 234 88 12
0.021281 1.2478093 1.8675599 234 88 12
-0.0014068246 1.2505863 1.8675599 234 88 12
0.15383175 1.233286 1.8666779 234 88 12
0.03472067 1.2478651 1.8666779 234 88 12
0.16727142 1.2333418 1.8657959 234 88 12
0.048160344 1.2479209 1.8657959 234 88 12
0.18071109 1.2333976 1.8649138 234 88 12
0.063490666 1.2477453 1.8649138 234 88 12
0.19604142 1.233222 1.8640318 234 88 12
0.076930337 1.2478012 1.8640318 234 88 12
-1.8939464 -0.7607134 0.94192749 234 88 12
-1.8901359 -0.76946509 0.94013339 234 88 12
-1.8857571 -0.77792257 0.94013339 234 88 12
-1.9003373 -0.75115275 0.93833929 234 88 12
-1.9035327 -0.7463724 0.93654525 234 88 12
-1.8842661 -0.78358543 0.93654525 234 88 12
-1.9008585 -0.75571239 0.93116295 234 88 12
-1.8865389 -0.78476208 0.92936885 234 88 12
-1.8795328 -0.79829413 0.92936885 234 88 12
-1.9133797 -0.73431122 0.92757481 234 88 12
-1.9098767 -0.74107724 0.92757481 234 88 12
-1.9028707 -0.75460923 0.92757481 234 88 12
-1.9002434 -0.75968373 0.92757481 234 88 12
-1.8949889 -0.76983273 0.92757481 234 88 12
-1.887107 -0.78505623 0.92757481 234 88 12
-1.8853556 -0.78843927 0.92757481 234 88 12
-1.8801011 -0.79858828 0.92757481 234 88 12
-1.8727875 -0.81410593 0.92578071 234 88 12
-1.9150842 -0.73519373 0.92219251 234 88 12
-1.896907 -0.7772606 0.91322207 234 88 12
-1.893404 -0.78402662 0.91322207 234 88 12
-1.5316907 -0.41700506 0.89229244 234 88 12
-1.5113397 -0.40141705 0.89168042 234 88 12
-1.5204229 -0.38961112 0.88815701 234 88 12
-1.5198132 -0.39354751 0.8846004 234 88 12
-1.0082608 -1.7672229 0.93833929 234 88 12
-1.0014949 -1.7707258 0.93833929 234 88 12
-1.0000975 -1.7721698 0.93654525 234 88 12
-1.0223812 -1.7613531 0.93475115 234 88 12
-0.98605067 -1.7823243 0.92936885 234 88 12
-0.98097616 -1.7849516 0.92936885 234 88 12
-1.0387814 -1.7557441 0.92757481 234 88 12
-1.0286324 -1.7609986 0.92757481 234 88 12
-1.0151004 -1.7680047 0.92757481 234 88 12
-1.0100259 -1.7706319 0.92757481 234 88 12
-0.99987686 -1.7758864 0.92757481 234 88 12
-0.98634481 -1.7828925 0.92757481 234 88 12
-0.98296183 -1.784644 0.92757481 234 88 12
-0.97112131 -1.7907742 0.92757481 234 88 12
-1.04415 -1.753685 0.92578071 234 88 12
-1.0461357 -1.7533774 0.92398661 234 88 12
-0.98722732 -1.784597 0.92219251 234 88 12
-1.0162771 -1.7702774 0.92039841 234 88 12
-1.0123792 -1.7751774 0.91322207 234 88 12
-0.84783733 -1.2803255 0.89527023 234 88 12
-0.83732539 -1.2842236 0.89524168 234 88 12
-0.84950483 -1.3077695 0.89229244 234 88 12
0.26738149 -1.7984672 1.3126811 234 88 12
0.2599521 -1.8004037 1.3110284 234 88 12
0.26184046 -1.8001543 1.3110284 234 88 12
0.27694729 -1.7981585 1.3110284 234 88 12
0.29016575 -1.7964121 1.3110284 234 88 12
0.2770713 -1.7990972 1.3093756 234 88 12
0.29053783 -1.7992283 1.3060702 234 88 12
0.25289476 -1.8051566 1.3044175 234 88 12
0.26233652 -1.8039092 1.3044175 234 88 12
0.27744338 -1.8019134 1.3044175 234 88 12
0.29066184 -1.8001671 1.3044175 234 88 12
0.22670585 -1.8105267 1.3011119 234 88 12
0.23237091 -1.8097783 1.3011119 234 88 12
0.30601671 -1.8000487 1.3011119 234 88 12
0.22518955 -1.8135924 1.2961538 234 88 12
0.23286699 -1.8135332 1.2945011 234 88 12
0.25766364 -1.8121675 1.2911956 234 88 12
0.26144034 -1.8116685 1.2911956 234 88 12
0.27654716 -1.8096727 1.2911956 234 88 12
0.25791165 -1.814045 1.2878902 234 88 12
0.26168838 -1.8135461 1.2878902 234 88 12
0.20422535 -1.3007824 1.2002138 234 88 12
0.21030886 -1.3242664 1.2038038 234 88 12
1.0608838 -0.86330521 1.7842273 234 88 12
1.069023 -0.85528255 1.7842273 234 88 12
1.0744493 -0.84993404 1.7842273 234 88 12
1.0839452 -0.84057426 1.7842273 234 88 12
1.0893713 -0.83522582 1.7842273 234 88 12
1.0882103 -0.84218806 1.7802922 234 88 12
1.1031325 -0.82747978 1.7802922 234 88 12
1.0742579 -0.85788 1.7789805 234 88 12
1.1068151 -0.82578921 1.7789805 234 88 12
1.0653445 -0.8705442 1.7763571 234 88 12
1.1174761 -0.82303822 1.7737337 234 88 12
1.0661225 -0.87947381 1.7697986 234 88 12
1.0742619 -0.87145108 1.7697986 234 88 12
1.1122454 -0.83401185 1.7697986 234 88 12
0.81814468 -0.43468019 1.5585483 234 88 12
0.83487535 -0.45018733 1.56818 234 88 12
0.82748902 -0.42748299 1.5553919 234 88 12
0.84200883 -0.44691259 1.5656391 234 88 12
1.7259878 -0.042391226 1.446622 234 88 12
1.7264428 -0.046327267 1.4450595 234 88 12
1.7267528 -0.044447895 1.4450595 234 88 12
1.7270627 -0.042568523 1.4450595 234 88 12
1.7335126 -0.04363231 1.4356852 234 88 12
1.7338226 -0.041752938 1.4356852 234 88 12
1.7410375 -0.044873394 1.4247483 234 88 12
1.7413474 -0.042994022 1.4247483 234 88 12
1.7422576 -0.050866105 1.4216236 234 88 12
1.7434975 -0.043348618 1.4216236 234 88 12
1.2942202 0.24387135 1.2655914 234 88 12
1.3157599 0.23359528 1.2723621 234 88 12
1.2957677 0.24804862 1.2621014 234 88 12
0.97317618 1.3166281 1.5334798 234 88 12
0.97685236 1.3203042 1.5279101 234 88 12
0.98811853 1.3127142 1.5251253 234 88 12
0.99265033 1.3118585 1.5223404 234 88 12
0.98591596 1.3185929 1.5223404 234 88 12
0.98322225 1.3212867 1.5223404 234 88 12
0.98775405 1.320431 1.5195556 234 88 12
-0.20032929 1.7706093 1.3466283 234 88 12
-0.20408803 1.7699894 1.3466283 234 88 12
-0.20596741 1.7696794 1.3466283 234 88 12
-0.19986831 1.7795192 1.3341291 234 88 12
-0.20362705 1.7788992 1.3341291 234 88 12
-0.091219321 1.7996471 1.3310044 234 88 12
-0.096857436 1.7987173 1.3310044 234 88 12
-0.10267285 1.7988623 1.3294419 234 88 12
-0.11770783 1.7963825 1.3294419 234 88 12
-0.18724459 1.7849139 1.3294419 234 88 12
-0.18912396 1.7846038 1.3294419 234 88 12
-0.10285015 1.7999374 1.3278795 234 88 12
-0.13104074 1.7952878 1.3278795 234 88 12
-0.21937121 1.7807194 1.3278795 234 88 12
-0.146253 1.7938831 1.3263172 234 88 12
-0.11636035 1.7999175 1.3247547 234 88 12
-0.16146527 1.7924783 1.3247547 234 88 12
-0.20469083 1.7853491 1.3247547 234 88 12
-0.13174993 1.7995877 1.3216299 234 88 12
-0.21820103 1.7853293 1.3216299 234 88 12
-0.13192722 1.8006628 1.3200675 234 88 12
-0.14320345 1.798803 1.3200675 234 88 12
-0.14508282 1.798493 1.3200675 234 88 12
-0.16011781 1.7960132 1.3200675 234 88 12
-0.17515278 1.7935336 1.3200675 234 88 12
-0.19018775 1.7910538 1.3200675 234 88 12
-0.20334335 1.788884 1.3200675 234 88 12
-0.21837834 1.7864043 1.3200675 234 88 12
-0.14526013 1.7995679 1.3185052 234 88 12
-0.23394519 1.7871495 1.3153803 234 88 12
-0.1799753 1.7993635 1.3106931 234 88 12
-0.2476327 1.7882047 1.3106931 234 88 12
-0.18972676 1.7999636 1.3075683 234 88 12
-0.26302227 1.7878749 1.3075683 234 88 12
-0.17692575 1.8042834 1.3044435 234 88 12
-0.19008136 1.8021135 1.3044435 234 88 12
-0.20323695 1.7999438 1.3044435 234 88 12
-0.21075444 1.7987039 1.3044435 234 88 12
-0.21827193 1.7974641 1.3044435 234 88 12
-0.23330691 1.7949843 1.3044435 234 88 12
-0.24834189 1.7925047 1.3044435 234 88 12
-0.2614975 1.7903348 1.3044435 234 88 12
-0.27653247 1.7878551 1.3044435 234 88 12
-0.21862653 1.7996141 1.3013188 234 88 12
-0.29192203 1.7875254 1.3013188 234 88 12
-0.23213673 1.7995943 1.2981939 234 88 12
-0.30543223 1.7875056 1.2981939 234 88 12
-0.32099912 1.7882508 1.2935067 234 88 12
-0.21986762 1.8071389 1.2903819 234 88 12
-0.092417337 1.4083898 1.023296 234 88 12
-0.1062694 1.4265426 1.0362997 234 88 12
-0.23302321 1.8049692 1.2903819 234 88 12
-0.30631873 1.7928805 1.2903819 234 88 12
-0.31947434 1.7907107 1.2903819 234 88 12
-0.10396095 1.4086778 1.0201946 234 88 12
-0.13410778 1.404812 1.0209045 234 88 12
-0.12328226 1.4087865 1.0178072 234 88 12
-0.13073359 1.4075575 1.0178072 234 88 12
-0.11618241 1.4121464 1.0147099 234 88 12
-0.13108507 1.4096886 1.0147099 234 88 12
-0.95416296 1.3211845 0.83511341 234 88 12
-0.95882767 1.3191777 0.83151674 234 88 12
-2.2308691 0.12043642 0.27661738 234 88 12
-2.2305551 0.11473078 0.27661738 234 88 12
-2.2289848 0.086202525 0.27661738 234 88 12
-2.2309434 0.12043232 0.27471408 234 88 12
-2.2306294 0.11472668 0.27471408 234 88 12
-2.2290592 0.086198427 0.27471408 234 88 12
-2.2299712 0.1014094 0.27281076 234 88 12
-2.2305965 0.10328262 0.25948766 234 88 12
-2.2304919 0.10138074 0.25948766 234 88 12
-2.2296543 0.086165667 0.25948766 234 88 12
-2.2290401 0.070938319 0.25377774 234 88 12
-2.2304893 0.091842651 0.24616452 234 88 12
-2.2301753 0.086137004 0.24616452 234 88 12
-2.2293377 0.070921935 0.24616452 234 88 12
-1.7456932 0.31801379 0.37175792 234 88 12
-1.767665 0.29994014 0.36569607 234 88 12
-1.6584941 -1.5009103 -0.023021998 234 88 12
-1.6865864 -1.472434 -0.026821842 234 88 12
-1.6663834 -1.4926372 -0.026821842 234 88 12
-1.6824498 -1.4763788 -0.028721765 234 88 12
-1.6784092 -1.4804194 -0.028721765 234 88 12
-1.6890882 -1.4695485 -0.030621687 234 88 12
-1.6823539 -1.4762828 -0.030621687 234 88 12
-1.6783133 -1.4803234 -0.030621687 234 88 12
-1.6675383 -1.4910984 -0.030621687 234 88 12
-1.6634977 -1.495139 -0.030621687 234 88 12
-1.6527227 -1.505914 -0.030621687 234 88 12
-1.6484903 -1.5097626 -0.034421533 234 88 12
-1.6388702 -1.5189989 -0.038221378 234 88 12
-1.6333869 -1.5242903 -0.040121298 234 88 12
-1.6628261 -1.4944673 -0.043921143 234 88 12
-1.653398 -1.5038954 -0.043921143 234 88 12
-1.6453167 -1.5119766 -0.043921143 234 88 12
-1.6385825 -1.518711 -0.043921143 234 88 12
-1.6331949 -1.5240984 -0.043921143 234 88 12
-1.6626341 -1.4942755 -0.047720987 234 88 12
-1.4015379 -1.0731236 0.092695199 234 88 12
-1.3928293 -1.0800251 0.093072258 234 88 12
-1.3926389 -1.0798347 0.089300908 234 88 12
-0.12880856 -2.2189415 0.23093809 234 88 12
-0.13071454 -2.2189112 0.22903478 234 88 12
-0.11550357 -2.2198231 0.22713149 234 88 12
-0.11740955 -2.2197928 0.22522818 234 88 12
-0.10030079 -2.2208838 0.22142157 234 88 12
-0.15736139 -2.2178178 0.21951826 234 88 12
-0.086991705 -2.2216909 0.21951826 234 88 12
-0.16307113 -2.2175782 0.21761496 234 88 12
-0.15926737 -2.2177875 0.21761496 234 88 12
-0.1440523 -2.2186248 0.21761496 234 88 12
-0.12883723 -2.2194624 0.21761496 234 88 12
-0.12313158 -2.2197764 0.21761496 234 88 12
-0.11552405 -2.2201951 0.21761496 234 88 12
-0.10030898 -2.2210326 0.21761496 234 88 12
-0.086995803 -2.2217653 0.21761496 234 88 12
-0.13076368 -2.219804 0.20619515 234 88 12
-0.12327281 -1.7243634 0.29629576 234 88 12
-0.11568733 -1.7234669 0.29654455 234 88 12
-0.12887 -2.2200575 0.20238853 234 88 12
-0.13457973 -2.2198179 0.20048523 234 88 12
1.3385594 -1.574731 0.86910325 234 88 12
1.3252107 -1.5855026 0.8672896 234 88 12
1.3495637 -1.5671797 0.8672896 234 88 12
1.3510858 -1.5660346 0.8672896 234 88 12
1.333171 -1.5802418 0.86547589 234 88 12
1.3650118 -1.5591985 0.85822123 234 88 12
1.3166558 -1.5963094 0.85640758 234 88 12
1.3181778 -1.5951642 0.85640758 234 88 12
1.3349205 -1.5825672 0.85640758 234 88 12
1.3063513 -1.6047908 0.85459393 234 88 12
1.3185278 -1.5956293 0.85459393 234 88 12
1.3215719 -1.593339 0.85459393 234 88 12
1.3352705 -1.5830323 0.85459393 234 88 12
1.3383147 -1.5807419 0.85459393 234 88 12
1.350491 -1.5715804 0.85459393 234 88 12
1.3581014 -1.5658545 0.85459393 234 88 12
1.3641896 -1.5612738 0.85459393 234 88 12
1.3051791 -1.606401 0.85278028 234 88 12
1.3236715 -1.5961294 0.84371191 234 88 12
1.3228492 -1.5982047 0.84008461 234 88 12
1.3274153 -1.5947691 0.84008461 234 88 12
1.3350257 -1.5890433 0.84008461 234 88 12
1.0891666 -1.1304418 0.83511215 234 88 12
1.1029518 -1.149883 0.83509052 234 88 12
1.1088483 -1.1454465 0.83509052 234 88 12
0.54202121 1.9237398 1.0278392 234 88 12
0.53667521 1.9257581 1.0278392 234 88 12
0.52801365 1.9297799 1.026069 234 88 12
0.55142802 1.9216919 1.0242988 234 88 12
0.58731627 1.9088947 1.0225286 234 88 12
0.58018833 1.9115857 1.0225286 234 88 12
0.56949633 1.9156222 1.0225286 234 88 12
0.52187932 1.9351028 1.0189884 234 88 12
0.53816569 1.9297059 1.0172181 234 88 12
0.50608975 1.9418156 1.0172181 234 88 12
0.59187394 1.9101809 1.015448 234 88 12
0.57939994 1.9148903 1.015448 234 88 12
0.57761794 1.9155631 1.015448 234 88 12
0.565144 1.9202724 1.015448 234 88 12
0.550888 1.9256545 1.015448 234 88 12
0.54019606 1.9296911 1.015448 234 88 12
0.53663206 1.9310366 1.015448 234 88 12
0.52059412 1.9370915 1.015448 234 88 12
0.50633818 1.9424736 1.015448 234 88 12
0.50099218 1.944492 1.015448 234 88 12
0.58167875 1.9155334 1.0119077 234 88 12
0.50911379 1.9444327 1.0083673 234 88 12
0.55237848 1.9296024 1.004827 234 88 12
0.63509542 1.900629 0.99951649 234 88 12
0.62262148 1.9053384 0.99951649 234 88 12
0.60836554 1.9107206 0.99951649 234 88 12
0.59589154 1.9154298 0.99951649 234 88 12
0.59410954 1.9161026 0.99951649 234 88 12
0.57985359 1.9214847 0.99951649 234 88 12
0.56559765 1.9268669 0.99951649 234 88 12
0.55668765 1.9302307 0.99951649 234 88 12
0.54955971 1.9329218 0.99951649 234 88 12
0.53530371 1.9383038 0.99951649 234 88 12
0.66207379 1.8911955 0.99774635 234 88 12
0.65138179 1.8952322 0.99774635 234 88 12
0.63915622 1.9005995 0.99597615 234 88 12
0.52332658 1.9443291 0.99597615 234 88 12
0.52154458 1.945002 0.99597615 234 88 12
0.50728863 1.950384 0.99597615 234 88 12
0.49303266 1.9557662 0.99597615 234 88 12
0.4861531 1.9591151 0.99420601 234 88 12
0.56683969 1.9301567 0.99066567 234 88 12
0.66866177 1.8924671 0.98889548 234 88 12
0.49427468 1.959056 0.98712534 234 88 12
0.66737658 1.8944558 0.98535514 234 88 12
0.66559464 1.8951286 0.98535514 234 88 12
0.65133864 1.9005107 0.98535514 234 88 12
0.64955664 1.9011835 0.98535514 234 88 12
0.59609681 1.9213663 0.98535514 234 88 12
0.59431481 1.9220392 0.98535514 234 88 12
0.58005887 1.9274212 0.98535514 234 88 12
0.57293087 1.9301124 0.98535514 234 88 12
0.56580287 1.9328034 0.98535514 234 88 12
0.54976493 1.9388583 0.98535514 234 88 12
0.51947105 1.9502952 0.98535514 234 88 12
0.50699705 1.9550046 0.98535514 234 88 12
0.49630508 1.9590412 0.98535514 234 88 12
0.49274111 1.9603868 0.98535514 234 88 12
0.58105248 1.9300531 0.97827446 234 88 12
0.58382809 1.9320122 0.97119379 234 88 12
0.58026409 1.9333578 0.97119379 234 88 12
0.56422615 1.9394127 0.97119379 234 88 12
0.57690537 1.9406399 0.9570325 234 88 12
0.57027417 1.9446468 0.95349216 234 88 12
0.28317803 1.5387598 0.89555776 234 88 12
0.27557093 1.516727 0.88926011 234 88 12
0.25568128 1.5271569 0.88590664 234 88 12
-0.67562562 2.071769 0.58105719 234 88 12
-0.68257463 2.0686448 0.58105719 234 88 12
-0.6964727 2.0623963 0.58105719 234 88 12
-0.72253156 2.0506802 0.58105719 234 88 12
-0.72600609 2.049118 0.58105719 234 88 12
-0.73469234 2.0452127 0.58105719 234 88 12
-0.7416414 2.0420885 0.58105719 234 88 12
-0.67748237 2.0712535 0.57917488 234 88 12
-0.68269414 2.0689104 0.57917488 234 88 12
-0.722651 2.050946 0.57917488 234 88 12
-0.72612554 2.0493839 0.57917488 234 88 12
-0.73481178 2.0454786 0.57917488 234 88 12
-0.74002355 2.0431354 0.57917488 234 88 12
-0.75577837 2.0363715 0.5772925 234 88 12
-0.74445373 2.0436988 0.564116 234 88 12
-0.75487727 2.0390124 0.564116 234 88 12
-0.4172948 1.6243091 0.68235087 234 88 12
-0.43730578 1.6430014 0.67595279 234 88 12
-0.41753191 1.6248366 0.67861438 234 88 12
-0.42098036 1.6232861 0.67861438 234 88 12
-0.43565473 1.6181905 0.67827201 234 88 12
-1.9442562 1.140401 -0.10105715 234 88 12
-1.9439905 1.1402816 -0.1029395 234 88 12
-1.9447715 1.1385443 -0.1029395 234 88 12
-1.946833 1.1311175 -0.11046892 234 88 12
-1.9421306 1.1394454 -0.11611598 234 88 12
-1.9444737 1.1342336 -0.11611598 234 88 12
-1.9460359 1.1307591 -0.11611598 234 88 12
-1.9520187 1.1167417 -0.11799833 234 88 12
-1.9400051 1.1384897 -0.1311748 234 88 12
-1.9431293 1.1315408 -0.1311748 234 88 12
-1.9446914 1.1280662 -0.1311748 234 88 12
-1.9501588 1.1159054 -0.1311748 234 88 12
-1.9425658 1.1271106 -0.14623363 234 88 12
-1.9441279 1.123636 -0.14623363 234 88 12
-1.9472522 1.1166871 -0.14623363 234 88 12
-1.4444267 1.1193058 0.10909053 234 88 12
-1.4454483 1.1156251 0.10535896 234 88 12
-1.4681594 1.11518 0.089749917 234 88 12
-1.9427835 1.1209432 -0.16129245 234 88 12
-1.9443456 1.1174686 -0.16129245 234 88 12
-1.9451267 1.1157314 -0.16129245 234 88 12
-2.051563 -0.56584704 -0.70566875 234 88 12
-2.0515778 -0.56381667 -0.70743895 234 88 12
-2.0495892 -0.56510186 -0.71097928 234 88 12
-2.0489163 -0.56688386 -0.71097928 234 88 12
-2.0455525 -0.5757938 -0.71097928 234 88 12
-2.0428762 -0.58089137 -0.71274942 234 88 12
-2.0334725 -0.60380894 -0.71451962 234 88 12
-2.0308111 -0.60687608 -0.71805996 234 88 12
-2.033576 -0.58959609 -0.72691077 234 88 12
-2.0315578 -0.59494209 -0.72691077 234 88 12
-2.030885 -0.59672409 -0.72691077 234 88 12
-2.0308998 -0.59469372 -0.72868091 234 88 12
-2.0235288 -0.61023486 -0.73222125 234 88 12
-1.6890436 -0.29661834 -0.46831441 234 88 12
-1.7007949 -0.32068908 -0.48066157 234 88 12
-1.6828325 -0.30594996 -0.47111961 234 88 12
-2.0195663 -0.61077482 -0.74107212 234 88 12
-2.0162024 -0.61968476 -0.74107212 234 88 12
-0.78495663 -1.9470409 -0.75700361 234 88 12
-0.78317463 -1.9477137 -0.75700361 234 88 12
-0.78777546 -1.9437215 -0.76231408 234 88 12
-0.81935453 -1.9302958 -0.76585442 234 88 12
-0.81222653 -1.9329869 -0.76585442 234 88 12
-0.78168422 -1.9437659 -0.76762462 234 88 12
-0.76742828 -1.9491481 -0.76762462 234 88 12
-0.81885773 -1.9289799 -0.76939476 234 88 12
-0.81707573 -1.9296527 -0.76939476 234 88 12
-0.81172973 -1.9316709 -0.76939476 234 88 12
-0.79747379 -1.9370531 -0.76939476 234 88 12
-0.78321785 -1.9424351 -0.76939476 234 88 12
-0.77787185 -1.9444535 -0.76939476 234 88 12
-0.76717985 -1.94849 -0.76939476 234 88 12
-0.75292391 -1.9538722 -0.76939476 234 88 12
-0.68751919 -1.5056987 -0.5525347 234 88 12
-0.68538767 -1.5281606 -0.56295502 234 88 12
-0.67663354 -1.5085655 -0.55193669 234 88 12
0.96723866 -2.0003896 -0.22905716 234 88 12
0.96526247 -2.0006394 -0.23282187 234 88 12
0.97221154 -1.9975151 -0.23282187 234 88 12
0.98784685 -1.9904855 -0.23282187 234 88 12
0.99479586 -1.9873613 -0.23282187 234 88 12
1.0017449 -1.9842371 -0.23282187 234 88 12
0.95597893 -2.0032163 -0.24223363 234 88 12
0.95771617 -2.0024352 -0.24223363 234 88 12
0.95747727 -2.0019038 -0.24599834 234 88 12
0.93998528 -2.0094485 -0.2478807 234 88 12
0.94345975 -2.0078864 -0.2478807 234 88 12
0.95735782 -2.0016379 -0.2478807 234 88 12
0.95909506 -2.0008569 -0.2478807 234 88 12
0.97299314 -1.9946084 -0.2478807 234 88 12
0.82360929 -1.566457 -0.10349886 234 88 12
0.8200593 -1.5427688 -0.095724195 234 88 12
0.83033961 -1.5634311 -0.10349886 234 88 12
2.0672429 -0.70700544 0.52458662 234 88 12
2.0557926 -0.73318374 0.52270424 234 88 12
2.0651653 -0.71233666 0.52270424 234 88 12
2.0552773 -0.73504043 0.52082193 234 88 12
2.063869 -0.71593058 0.52082193 234 88 12
2.0662122 -0.71071881 0.52082193 234 88 12
2.0732417 -0.6950835 0.52082193 234 88 12
2.0750694 -0.69172847 0.51893955 234 88 12
2.0602453 -0.72683197 0.51329249 234 88 12
2.0555751 -0.73935115 0.50764543 234 88 12
2.0602615 -0.72892761 0.50764543 234 88 12
2.0626047 -0.72371584 0.50764543 234 88 12
2.0542786 -0.74294508 0.50576305 234 88 12
2.0561385 -0.74378127 0.49258661 234 88 12
2.0584817 -0.7385695 0.49258661 234 88 12
2.0608249 -0.73335773 0.49258661 234 88 12
1.6608459 -0.38397539 0.55531067 234 88 12
1.6791701 -0.40502274 0.54833567 234 88 12
1.6598513 -0.39228401 0.54766685 234 88 12
1.6613997 -0.38884005 0.54766685 234 88 12
2.2198 0.36540377 0.12307642 234 88 12
2.2199349 0.36159593 0.12117311 234 88 12
2.2197256 0.36539969 0.12117311 234 88 12
2.2200258 0.355878 0.1154632 234 88 12
2.2197118 0.36158365 0.1154632 234 88 12
2.2196071 0.36348552 0.1154632 234 88 12
2.2208495 0.33684686 0.1097533 234 88 12
2.2209845 0.33303902 0.10784999 234 88 12
2.220582 0.33492452 0.10023677 234 88 12
2.2198493 0.34823769 0.10023677 234 88 12
2.21964 0.35204145 0.10023677 234 88 12
2.2190118 0.36345276 0.10023677 234 88 12
2.2204635 0.33301035 0.094526865 234 88 12
2.2197309 0.34632352 0.094526865 234 88 12
2.2200613 0.33489585 0.086913645 234 88 12
2.2196426 0.34250337 0.086913645 234 88 12
2.2193284 0.34820902 0.086913645 234 88 12
2.2200916 0.33298987 0.085010342 234 88 12
2.2197194 0.3329694 0.075493827 234 88 12
2.21978 0.32915744 0.071687222 234 88 12
2.2196753 0.33105931 0.071687222 234 88 12
2.219466 0.3348631 0.071687222 234 88 12
1.7230362 0.50569165 0.23994033 234 88 12
1.7470113 0.50078034 0.23156321 234 88 12
1.7240534 0.50520891 0.23193945 234 88 12
1.7238458 0.5089792 0.23193945 234 88 12
1.4131255 1.7080901 0.40110651 234 88 12
1.4090849 1.7121307 0.40110651 234 88 12
1.4063911 1.7148244 0.40110651 234 88 12
1.3942693 1.7269462 0.40110651 234 88 12
1.3915756 1.72964 0.40110651 234 88 12
1.4041772 1.7179979 0.3916069 234 88 12
1.4073507 1.715784 0.38210729 234 88 12
1.4076385 1.7160717 0.37640753 234 88 12
1.4062916 1.7174187 0.37640753 234 88 12
0.90938389 1.5002363 0.53297186 234 88 12
0.92610604 1.5183374 0.52479416 234 88 12
0.90041655 1.5118545 0.52499521 234 88 12
0.89774656 1.5145246 0.52499521 234 88 12
-1.1560736 1.8802799 -0.45014659 234 88 12
-1.8732073 0.52226901 -1.1263299 234 88 12
-1.8718224 0.52397114 -1.1278923 234 88 12
-1.8710573 0.52191442 -1.1294547 234 88 12
-1.8692173 0.5196805 -1.1325794 234 88 12
-1.8667772 0.50769508 -1.1388291 234 88 12
-1.8629125 0.52443212 -1.1403915 234 88 12
-1.8586125 0.52372289 -1.1466411 234 88 12
-1.8589226 0.52184355 -1.1466411 234 88 12
-1.8614023 0.50680858 -1.1466411 234 88 12
-1.8560076 0.51943225 -1.1513283 234 88 12
-1.861277 0.48748294 -1.1513283 234 88 12
-1.8560274 0.50592208 -1.1544532 234 88 12
-1.8560472 0.49241188 -1.1575779 234 88 12
-1.8507975 0.51085103 -1.1607027 234 88 12
-1.8514174 0.50709224 -1.1607027 234 88 12
-1.8538972 0.49205729 -1.1607027 234 88 12
-1.497584 0.62013125 -0.7762177 234 88 12
-1.5129892 0.60665637 -0.79721093 234 88 12
-1.4929969 0.61603254 -0.7813893 234 88 12
-1.4942275 0.60857147 -0.7813893 234 88 12
-1.8428375 0.49216369 -1.1763268 234 88 12
-1.8417624 0.49198636 -1.1778891 234 88 12
-1.8340925 0.48492989 -1.1903883 234 88 12
-1.2646071 -1.069311 -1.5000616 234 88 12
-1.2619134 -1.0720047 -1.5000616 234 88 12
-1.2583007 -1.0737795 -1.501454 234 88 12
-1.2358316 -1.0944103 -1.5028465 234 88 12
-1.233138 -1.0971041 -1.5028465 234 88 12
-1.2470344 -1.0813694 -1.5042388 234 88 12
-1.2487458 -1.0723058 -1.5098085 234 88 12
-1.2473989 -1.0736526 -1.5098085 234 88 12
-1.2325833 -1.0884682 -1.5098085 234 88 12
-1.2464799 -1.0727336 -1.511201 234 88 12
-1.2330111 -1.0862023 -1.511201 234 88 12
-1.0596843 -0.75797033 -1.1712914 234 88 12
-1.0651168 -0.77552348 -1.1871125 234 88 12
-1.0547249 -0.75796199 -1.1731473 234 88 12
-1.2181323 -1.095567 -1.5153782 234 88 12
-1.2046001 -1.1035849 -1.5195556 234 88 12
-1.2036811 -1.1026658 -1.5209481 234 88 12
-1.204109 -1.1004 -1.5223404 234 88 12
-1.2058836 -1.0967871 -1.5237329 234 88 12
-1.2031898 -1.0994809 -1.5237329 234 88 12
0.3216728 -1.8157454 -1.2544467 234 88 12
0.32319757 -1.8132854 -1.2575716 234 88 12
0.34575003 -1.8095658 -1.2575716 234 88 12
0.34950879 -1.8089459 -1.2575716 234 88 12
0.31908423 -1.8117553 -1.2606963 234 88 12
0.3151482 -1.8113003 -1.2622588 234 88 12
0.32078633 -1.8103704 -1.2622588 234 88 12
0.33394191 -1.8082006 -1.2622588 234 88 12
0.34897688 -1.8057209 -1.2622588 234 88 12
0.30351737 -1.8110101 -1.2653835 234 88 12
0.27232873 -1.4072114 -0.98297828 234 88 12
0.2760593 -1.4065962 -0.98297828 234 88 12
0.26464665 -1.4073613 -0.98683417 234 88 12
0.26837233 -1.4067469 -0.98683417 234 88 12
0.27420992 -1.4245113 -0.99998248 234 88 12
0.27785033 -1.4239109 -0.99998248 234 88 12
1.8232458 -1.1679865 -0.56984848 234 88 12
1.8149794 -1.1760691 -0.57528949 234 88 12
1.7996269 -1.195506 -0.57710314 234 88 12
1.812224 -1.1787633 -0.57710314 234 88 12
1.7980168 -1.1966782 -0.57891679 234 88 12
1.7964065 -1.1978502 -0.5807305 234 88 12
1.799842 -1.193284 -0.5807305 234 88 12
1.8067131 -1.1841516 -0.5807305 234 88 12
1.8135842 -1.1750194 -0.5807305 234 88 12
1.8131192 -1.1746694 -0.58254415 234 88 12
1.7977318 -1.1893126 -0.59342611 234 88 12
1.7903955 -1.1980951 -0.59523982 234 88 12
1.7972666 -1.1889627 -0.59523982 234 88 12
1.799557 -1.1859186 -0.59523982 234 88 12
1.7844195 -1.2031336 -0.60068077 234 88 12
1.7828093 -1.2043056 -0.60249448 234 88 12
1.519395 -0.84997827 -0.38892025 234 88 12
1.507859 -0.82930815 -0.3778969 234 88 12
1.5207124 -0.84635216 -0.39243338 234 88 12
1.7798039 -1.2044281 -0.60974914 234 88 12
1.780949 -1.202906 -0.60974914 234 88 12
1.8479393 1.1766005 -0.5203166 234 88 12
1.841809 1.188441 -0.5203166 234 88 12
1.834803 1.201973 -0.5203166 234 88 12
1.8330514 1.205356 -0.5203166 234 88 12
1.8468029 1.1760122 -0.52390474 234 88 12
1.8424242 1.1844697 -0.52390474 234 88 12
1.8354181 1.1980016 -0.52390474 234 88 12
1.8319151 1.2047677 -0.52390474 234 88 12
1.8278439 1.2112395 -0.52569884 234 88 12
1.843962 1.1745414 -0.53287524 234 88 12
1.8422575 1.1736588 -0.53825748 234 88 12
1.8413817 1.1753503 -0.53825748 234 88 12
1.8334999 1.1905738 -0.53825748 234 88 12
1.8256181 1.2057973 -0.53825748 234 88 12
1.8274636 1.1938833 -0.54902202 234 88 12
1.8350848 1.1763799 -0.55261022 234 88 12
1.8280787 1.189912 -0.55261022 234 88 12
1.827203 1.1916034 -0.55261022 234 88 12
1.8275106 1.1896178 -0.55440426 234 88 12
1.8336878 1.1735117 -0.55978656 234 88 12
1.8314151 1.1723351 -0.5669629 234 88 12
1.8296635 1.1757181 -0.5669629 234 88 12
1.8226576 1.1892501 -0.5669629 234 88 12
1.8217818 1.1909416 -0.5669629 234 88 12
1.3856118 1.1580499 -0.22928402 234 88 12
1.3838733 1.1614076 -0.22928402 234 88 12
1.404507 1.1613412 -0.2493746 234 88 12
1.3804544 1.1675582 -0.2337424 234 88 12
1.3816739 1.1596855 -0.2408556 234 88 12
-1.0802181 1.3387704 -1.4497464 234 88 12
-1.0856444 1.3334219 -1.4497464 234 88 12
-1.0883574 1.3307477 -1.4497464 234 88 12
-1.0992099 1.3200507 -1.4497464 234 88 12
-1.1032795 1.3160394 -1.4497464 234 88 12
-1.0778919 1.3391238 -1.451058 234 88 12
-1.0833182 1.3337754 -1.451058 234 88 12
-1.0941707 1.3230784 -1.451058 234 88 12
-1.0982403 1.3190671 -1.451058 234 88 12
-1.0716877 1.3355427 -1.4576164 234 88 12
-1.0730442 1.3342056 -1.4576164 234 88 12
-1.0879663 1.3194973 -1.4576164 234 88 12
-1.0926144 1.3052193 -1.464175 234 88 12
-1.0631573 1.3323151 -1.4654866 234 88 12
-1.0740097 1.3216182 -1.4654866 234 88 12
-1.0767229 1.318944 -1.4654866 234 88 12
-1.0889318 1.3069099 -1.4654866 234 88 12
-1.0902884 1.3055727 -1.4654866 234 88 12
-1.0720706 1.3196509 -1.46811 234 88 12
-1.0869927 1.3049426 -1.46811 234 88 12
-0.85644078 1.2696288 -0.96828181 234 88 12
-0.86450845 1.2616767 -0.96828181 234 88 12
-0.86591142 1.2648128 -0.99649942 234 88 12
-0.85005879 1.2636801 -0.97476518 234 88 12
-0.85275155 1.261026 -0.97476518 234 88 12
-1.0579184 1.3161465 -1.4799153 234 88 12
-1.059275 1.3148094 -1.4799153 234 88 12
-1.115204 0.048681147 -1.9407698 234 88 12
-1.112834 0.043214299 -1.9416518 234 88 12
-1.1085011 0.049501576 -1.9442979 234 88 12
-1.1075754 0.041938968 -1.9442979 234 88 12
-1.1025482 0.042554289 -1.9469441 234 88 12
-1.1013353 0.0465407 -1.9478261 234 88 12
-1.0889668 0.028864823 -1.9531184 234 88 12
-1.0879854 0.034741886 -1.9540005 234 88 12
-1.0870597 0.027179278 -1.9540005 234 88 12
-1.0879296 0.04818156 -1.9548825 234 88 12
-0.91273755 0.20973475 -1.5017899 234 88 12
-0.91686982 0.19815746 -1.5244977 234 88 12
-0.91362387 0.19855477 -1.5262063 234 88 12
-1.0790881 0.045425791 -1.9592928 234 88 12
-1.0786253 0.041644488 -1.9592928 234 88 12
-1.0770054 0.028409921 -1.9592928 234 88 12
-1.0734226 0.026929483 -1.9610568 234 88 12
-1.0733668 0.040369157 -1.9619389 234 88 12
-1.0588597 0.01911708 -1.9681132 234 88 12
-1.0492682 0.024129028 -1.9734055 234 88 12
-0.13486449 -0.96857774 -2.0051591 234 88 12
-0.12898743 -0.96759623 -2.006041 234 88 12
-0.11513755 -0.96418899 -2.0086873 234 88 12
-0.15085483 -0.95811641 -2.0095694 234 88 12
-0.099807225 -0.96436459 -2.0095694 234 88 12
-0.16577494 -0.95458937 -2.0104513 234 88 12
-0.15821233 -0.95551503 -2.0104513 234 88 12
-0.14497776 -0.9571349 -2.0104513 234 88 12
-0.12861449 -0.66227728 -1.610201 234 88 12
-0.12552361 -0.67628217 -1.62872 234 88 12
-0.12964745 -0.9573105 -2.0113335 234 88 12
-0.12820788 -0.65895534 -1.6119496 234 88 12
-0.11431712 -0.95748609 -2.0122154 234 88 12
1.2065012 -0.99798548 -1.5940322 234 88 12
1.2028433 -0.99972904 -1.5953439 234 88 12
1.2005225 -1.000116 -1.5966556 234 88 12
1.2045339 -0.99604636 -1.5966556 234 88 12
1.1968647 -1.0018595 -1.5979673 234 88 12
1.1885654 -1.0043771 -1.6019024 234 88 12
1.1755476 -1.0156165 -1.603214 234 88 12
1.1732268 -1.0160036 -1.6045257 234 88 12
1.174564 -1.014647 -1.6045257 234 88 12
1.1892723 -0.99972492 -1.6045257 234 88 12
1.1683086 -1.0111558 -1.6110842 234 88 12
1.1763313 -1.0030165 -1.6110842 234 88 12
1.1790056 -1.0003034 -1.6110842 234 88 12
1.1733804 -1.0001079 -1.6150192 234 88 12
0.99511564 -0.69682968 -1.2585692 234 88 12
1.159379 -1.0103778 -1.6176426 234 88 12
0.99316305 -0.69490516 -1.261173 234 88 12
1.0041062 -0.70737273 -1.2785285 234 88 12
0.98901576 -0.6964916 -1.2647152 234 88 12
0.98706579 -0.69456959 -1.2673155 234 88 12
1.1467916 -1.0113432 -1.6255127 234 88 12
1.145808 -1.0103737 -1.6268245 234 88 12
2.0194066 -0.069855586 -0.97552389 234 88 12
2.01703 -0.073384255 -0.97882932 234 88 12
2.0158417 -0.07514859 -0.98048204 234 88 12
2.0163407 -0.071371883 -0.98048204 234 88 12
2.0115879 -0.078429222 -0.98709297 234 88 12
2.0125859 -0.070875809 -0.98709297 234 88 12
2.0027716 -0.094556279 -0.99866211 234 88 12
2.0015833 -0.096320614 -1.0003148 234 88 12
2.0006447 -0.096196592 -1.0019675 234 88 12
2.0018921 -0.086754821 -1.0019675 234 88 12
2.0021415 -0.084866472 -1.0019675 234 88 12
2.0038879 -0.071647994 -1.0019675 234 88 12
2.0020103 -0.071399957 -1.005273 234 88 12
1.9924455 -0.093192071 -1.0168421 234 88 12
1.9934434 -0.085638657 -1.0168421 234 88 12
1.6534711 0.11092252 -0.70758432 234 88 12
1.636762 0.12509824 -0.69150305 234 88 12
1.6316178 0.12152149 -0.70220494 234 88 12
1.9873121 -0.088671252 -1.0267586 234 88 12
1.9875616 -0.086782895 -1.0267586 234 88 12
1.9837475 -0.093964256 -1.0317167 234 88 12
1.9847454 -0.086410843 -1.0317167 234 88 12
1.1759189 1.3685213 -1.3396983 234 88 12
1.174572 1.3698682 -1.3396983 234 88 12
1.165144 1.3792963 -1.3396983 234 88 12
1.1597564 1.3846837 -1.3396983 234 88 12
1.1503284 1.3941119 -1.3396983 234 88 12
1.1449409 1.3994993 -1.3396983 234 88 12
1.1601306 1.3769767 -1.3452808 234 88 12
1.1668088 1.3647987 -1.3494676 234 88 12
1.1600745 1.371533 -1.3494676 234 88 12
1.1533401 1.3782674 -1.3494676 234 88 12
1.1452589 1.3863486 -1.3494676 234 88 12
1.1460633 1.3763781 -1.3564457 234 88 12
1.130331 1.390277 -1.3578413 234 88 12
1.1540884 1.3628533 -1.3606325 234 88 12
0.89586288 1.3102616 -0.8735767 234 88 12
0.90578163 1.3153865 -0.89735806 234 88 12
0.90400606 1.313611 -0.90006143 234 88 12
1.1499916 1.3614502 -1.3648193 234 88 12
0.88489848 1.314774 -0.88040072 234 88 12
1.1297886 1.3816533 -1.3648193 234 88 12
0.88393432 1.3084699 -0.88593405 234 88 12
-0.0066666668 0.18190476 -2.23 234 88 12
0.0085714282 0.17809524 -2.23 234 88 12
0.016190477 0.17619048 -2.23 234 88 12
-0.025714286 0.17428571 -2.23 234 88 12
-0.02952381 0.17428571 -2.23 234 88 12
0.025714286 0.17238095 -2.23 234 88 12
0.014285714 0.17238095 -2.23 234 88 12
-0.00095238094 0.17238095 -2.23 234 88 12
-0.016190477 0.17238095 -2.23 234 88 12
-0.02952381 0.17238095 -2.23 234 88 12
0.042857144 0.16285715 -2.23 234 88 12
0.044761904 0.16095237 -2.23 234 88 12
-0.0094399983 0.31907192 -1.7388002 234 88 12
0.044761904 0.15904762 -2.23 234 88 12
0.042857144 0.15904762 -2.23 234 88 12
0.027619047 0.15904762 -2.23 234 88 12
0.014285714 0.15904762 -2.23 234 88 12
-0.0018448051 0.30808246 -1.7614774 234 88 12
-0.0085714282 0.15904762 -2.23 234 88 12
-0.0055344151 0.30439284 -1.7614774 234 88 12
1.3105791 0.11746867 -1.8123751 234 88 12
1.3088146 0.11373226 -1.8134078 234 88 12
1.3072156 0.11380178 -1.8144405 234 88 12
1.307381 0.11760771 -1.8144405 234 88 12
1.3056166 0.11387131 -1.8154731 234 88 12
1.304183 0.11774676 -1.8165058 234 88 12
1.29106 0.11069108 -1.8247672 234 88 12
1.2897091 0.11646949 -1.8257999 234 88 12
1.2846639 0.11096917 -1.828898 234 88 12
1.2849121 0.11667807 -1.828898 234 88 12
1.2777714 0.09982948 -1.8330287 234 88 12
1.2762551 0.10180196 -1.8340614 234 88 12
1.275318 0.1170952 -1.835094 234 88 12
1.2711 0.13062452 -1.838192 234 88 12
1.051793 0.27406257 -1.3974606 234 88 12
1.0519572 0.27783996 -1.3974606 234 88 12
1.2620294 0.1062336 -1.8433554 234 88 12
1.0591695 0.26970884 -1.42112 234 88 12
1.2622776 0.11194248 -1.8433554 234 88 12
1.2625258 0.11765138 -1.8433554 234 88 12
1.2609268 0.1177209 -1.8443881 234 88 12
1.0428431 0.27403235 -1.4047776 234 88 12
1.0430071 0.27780479 -1.4047776 234 88 12
1.2462047 0.11073475 -1.8536822 234 88 12
1.2464529 0.11644364 -1.8536822 234 88 12
