ply
format ascii 1.0
element vertex 265
property float x
property float y
property float z
property uchar red
property uchar green
property uchar blue
end_header
0.83321983 -0.07935784 2.0889535 234 88 12
0.832757 -0.075576536 2.0889535 234 88 12
0.83633989 -0.077056974 2.0871894 234 88 12
0.83610845 -0.075166322 2.0871894 234 88 12
0.83685851 -0.067398608 2.0863073 234 88 12
0.83922845 -0.072865456 2.0854254 234 88 12
1.7066904 -0.52762371 1.36069 234 88 12
1.7077653 -0.52780098 1.3591275 234 88 12
1.71562 -0.5136525 1.3513155 234 88 12
1.7168599 -0.50613505 1.3513155 234 88 12
1.7142153 -0.5288648 1.3497531 234 88 12
1.7145252 -0.52698541 1.3497531 234 88 12
1.7151452 -0.52322668 1.3497531 234 88 12
1.716695 -0.51382983 1.3497531 234 88 12
1.7179348 -0.50631231 1.3497531 234 88 12
1.7195902 -0.5297513 1.3419411 234 88 12
1.7208301 -0.52223378 1.3419411 234 88 12
1.7228152 -0.53028315 1.3372539 234 88 12
1.7249651 -0.53063774 1.3341291 234 88 12
1.731415 -0.53170156 1.3247547 234 88 12
1.733565 -0.53205615 1.3216299 234 88 12
1.7367899 -0.53258806 1.3169427 234 88 12
1.7370999 -0.53070867 1.3169427 234 88 12
1.009415 1.113124 1.6601907 234 88 12
1.0067214 1.1158178 1.6601907 234 88 12
1.0148659 1.1131874 1.6560134 234 88 12
1.0332943 1.0965972 1.654621 234 88 12
1.0319474 1.097944 1.654621 234 88 12
1.0292537 1.1006378 1.654621 234 88 12
1.0171318 1.1127596 1.654621 234 88 12
1.014438 1.1154534 1.654621 234 88 12
1.0130912 1.1168002 1.654621 234 88 12
1.0270511 1.1065165 1.6518362 234 88 12
1.0221548 1.1150889 1.6490513 234 88 12
1.0325019 1.1065799 1.6476588 234 88 12
1.0320742 1.1088457 1.6462665 234 88 12
1.0293804 1.1115395 1.6462665 234 88 12
1.0253398 1.1155801 1.6462665 234 88 12
1.0212992 1.1196207 1.6462665 234 88 12
1.0172586 1.1236613 1.6462665 234 88 12
1.0123624 1.1322337 1.6434816 234 88 12
1.0307907 1.1156435 1.6420891 234 88 12
1.0227095 1.1237247 1.6420891 234 88 12
1.0146282 1.1318059 1.6420891 234 88 12
1.009732 1.1403784 1.6393043 234 88 12
1.0348947 1.1170537 1.6379118 234 88 12
1.0295072 1.1224412 1.6379118 234 88 12
1.0281603 1.1237881 1.6379118 234 88 12
1.0187322 1.1332161 1.6379118 234 88 12
1.0133448 1.1386037 1.6379118 234 88 12
1.0304263 1.1233603 1.6365194 234 88 12
1.0389986 1.118464 1.6337346 234 88 12
1.0431026 1.1198742 1.6295573 234 88 12
1.039062 1.1239148 1.6295573 234 88 12
1.0377152 1.1252617 1.6295573 234 88 12
1.0472066 1.1212845 1.62538 234 88 12
1.0476978 1.1244694 1.6225952 234 88 12
1.0486169 1.1253885 1.6212027 234 88 12
1.0459231 1.1280822 1.6212027 234 88 12
1.9380296 0.66346735 0.88622582 234 88 12
1.937342 0.66727978 0.88445562 234 88 12
1.9426798 0.65911502 0.87914515 234 88 12
1.9493927 0.64332545 0.87737495 234 88 12
1.9433378 0.65936339 0.87737495 234 88 12
1.9419923 0.66292739 0.87737495 234 88 12
1.939974 0.66827339 0.87737495 234 88 12
1.9513961 0.64000988 0.87560481 234 88 12
1.9507234 0.64179188 0.87560481 234 88 12
1.9513813 0.64204025 0.87383461 234 88 12
1.9480175 0.65095025 0.87383461 234 88 12
1.9426206 0.66723657 0.87206447 234 88 12
1.951337 0.64813149 0.86852413 234 88 12
1.9506642 0.64991343 0.86852413 234 88 12
1.9499915 0.65169543 0.86852413 234 88 12
1.9473004 0.65882343 0.86852413 234 88 12
1.9439366 0.66773343 0.86852413 234 88 12
1.9419183 0.67307937 0.86852413 234 88 12
1.9405727 0.67664337 0.86852413 234 88 12
1.9378669 0.68580174 0.86675394 234 88 12
1.9425466 0.67738861 0.8632136 234 88 12
1.9512777 0.65625304 0.86144346 234 88 12
1.9519358 0.65650147 0.85967332 234 88 12
1.9505903 0.66006547 0.85967332 234 88 12
1.9478991 0.66719341 0.85967332 234 88 12
1.9512482 0.66031384 0.85790312 234 88 12
1.9545677 0.65749508 0.85259265 234 88 12
1.9538949 0.65927708 0.85259265 234 88 12
1.9538356 0.66739869 0.84551197 234 88 12
1.9585302 0.65695512 0.84374177 234 88 12
1.9578575 0.65873712 0.84374177 234 88 12
1.9598314 0.65948236 0.8384313 234 88 12
0.53205341 1.9944087 0.87029427 234 88 12
0.53027141 1.9950814 0.87029427 234 88 12
0.53408378 1.9943939 0.86852413 234 88 12
0.53051978 1.9957395 0.86852413 234 88 12
0.5592801 1.9856331 0.86675394 234 88 12
0.55571616 1.9869787 0.86675394 234 88 12
0.54755139 1.9923164 0.86144346 234 88 12
0.54220539 1.9943347 0.86144346 234 88 12
0.55849177 1.9889377 0.85967332 234 88 12
0.55670977 1.9896106 0.85967332 234 88 12
0.54779977 1.9929744 0.85967332 234 88 12
0.54601777 1.9936471 0.85967332 234 88 12
0.53888983 1.9963382 0.85967332 234 88 12
0.53176183 1.9990293 0.85967332 234 88 12
0.55007857 1.9936175 0.85613298 234 88 12
0.55413938 1.993588 0.85259265 234 88 12
0.54879338 1.9956062 0.85259265 234 88 12
0.53988343 1.99897 0.85259265 234 88 12
0.53275543 2.0016611 0.85259265 234 88 12
0.53122187 2.0029919 0.85082245 234 88 12
0.5225603 2.0070136 0.84905231 234 88 12
0.54087704 2.0016019 0.84551197 234 88 12
0.5177111 2.0103478 0.84551197 234 88 12
0.55181742 1.9982233 0.84374177 234 88 12
0.54825342 1.9995688 0.84374177 234 88 12
0.54290742 2.0015872 0.84374177 234 88 12
0.53934348 2.0029325 0.84374177 234 88 12
0.53043348 2.0062964 0.84374177 234 88 12
0.52330548 2.0089877 0.84374177 234 88 12
0.51974154 2.0103331 0.84374177 234 88 12
0.54899865 2.0015428 0.8384313 234 88 12
0.55662346 2.0001676 0.83489096 234 88 12
0.55305946 2.0015132 0.83489096 234 88 12
0.54771346 2.0035315 0.83489096 234 88 12
0.55865383 2.0001528 0.83312076 234 88 12
0.55939907 2.0021267 0.82781029 234 88 12
0.55964744 2.0027847 0.82604009 234 88 12
0.55608344 2.0041301 0.82604009 234 88 12
2.2313831 -0.040287048 -0.15099932 234 88 12
2.231518 -0.044094909 -0.15290263 234 88 12
2.2314134 -0.042193025 -0.15290263 234 88 12
2.2313251 -0.046013173 -0.16051584 234 88 12
2.2311158 -0.042209405 -0.16051584 234 88 12
2.2326114 -0.07074175 -0.16241916 234 88 12
2.2324021 -0.066937983 -0.16241916 234 88 12
2.2318044 -0.057432663 -0.16432245 234 88 12
2.2319999 -0.06505248 -0.17003237 234 88 12
2.2315812 -0.057444949 -0.17003237 234 88 12
2.2311623 -0.049837414 -0.17003237 234 88 12
2.230639 -0.040328 -0.17003237 234 88 12
2.2301459 -0.032724559 -0.17193566 234 88 12
2.2297273 -0.025117029 -0.17193566 234 88 12
2.2294433 -0.021317357 -0.17383897 234 88 12
2.2310741 -0.053657562 -0.17764558 234 88 12
2.2308648 -0.049853794 -0.17764558 234 88 12
2.2303414 -0.04034438 -0.17764558 234 88 12
2.2299228 -0.032736845 -0.17764558 234 88 12
2.2295039 -0.025129313 -0.17764558 234 88 12
2.2308068 -0.055579919 -0.1871621 234 88 12
2.2304928 -0.049874272 -0.1871621 234 88 12
2.2306139 -0.057498183 -0.19477531 234 88 12
2.2301953 -0.049890652 -0.19477531 234 88 12
2.2302418 -0.057518661 -0.20429184 234 88 12
2.2298231 -0.049911126 -0.20429184 234 88 12
1.5277659 1.6206999 0.13131757 234 88 12
1.526419 1.6220468 0.13131757 234 88 12
1.5292087 1.619449 0.12941764 234 88 12
1.5320944 1.6169472 0.1256178 234 88 12
1.5280538 1.6209878 0.1256178 234 88 12
1.5267069 1.6223346 0.1256178 234 88 12
1.5456591 1.6035744 0.12371787 234 88 12
1.5443121 1.6049213 0.12371787 234 88 12
1.5459468 1.6038623 0.11801811 234 88 12
1.5446 1.6052091 0.11801811 234 88 12
1.5365188 1.6132903 0.11801811 234 88 12
1.5284376 1.6213716 0.11801811 234 88 12
1.5270907 1.6227185 0.11801811 234 88 12
1.5286294 1.6215634 0.11421826 234 88 12
1.5192974 1.6310875 0.11231834 234 88 12
1.5356517 1.615117 0.1085185 234 88 12
1.5289173 1.6218513 0.1085185 234 88 12
1.5275705 1.6231983 0.1085185 234 88 12
1.5208361 1.6299325 0.1085185 234 88 12
1.5194892 1.6312795 0.1085185 234 88 12
1.5370945 1.6138661 0.10661858 234 88 12
1.5373824 1.614154 0.10091881 234 88 12
1.5360354 1.6155008 0.10091881 234 88 12
1.5293012 1.6222352 0.10091881 234 88 12
1.5389211 1.612999 0.097118966 234 88 12
1.5405558 1.6119399 0.091419198 234 88 12
1.539209 1.6132869 0.091419198 234 88 12
1.5365152 1.6159805 0.091419198 234 88 12
1.5409397 1.6123238 0.083819509 234 88 12
1.5395927 1.6136706 0.083819509 234 88 12
1.5368991 1.6163644 0.083819509 234 88 12
1.8316998 0.91294831 -0.90066344 234 88 12
1.8320074 0.91096264 -0.90245754 234 88 12
1.832315 0.90897697 -0.90425164 234 88 12
1.8305634 0.91236001 -0.90425164 234 88 12
1.8408118 0.88978213 -0.90783983 234 88 12
1.8411194 0.88779646 -0.90963387 234 88 12
1.8367406 0.896254 -0.90963387 234 88 12
1.8399831 0.88720816 -0.91322207 234 88 12
1.8356043 0.89566565 -0.91322207 234 88 12
1.8321013 0.90243167 -0.91322207 234 88 12
1.8312255 0.90412313 -0.91322207 234 88 12
1.8268468 0.91258067 -0.91322207 234 88 12
1.8233907 0.91508114 -0.91860431 234 88 12
1.8193195 0.92155296 -0.92039841 234 88 12
1.8292603 0.9009608 -0.92219251 234 88 12
1.8275089 0.90434378 -0.92219251 234 88 12
1.8240058 0.91110981 -0.92219251 234 88 12
1.8231301 0.91280133 -0.92219251 234 88 12
1.8187513 0.92125881 -0.92219251 234 88 12
1.8152484 0.92802483 -0.92219251 234 88 12
1.8143727 0.92971635 -0.92219251 234 88 12
1.8278635 0.89809263 -0.92936885 234 88 12
1.8243604 0.90485865 -0.92936885 234 88 12
1.8234847 0.90655017 -0.92936885 234 88 12
1.8240998 0.90257883 -0.93295705 234 88 12
1.8258983 0.8949303 -0.93833929 234 88 12
1.8250226 0.89662182 -0.93833929 234 88 12
1.823271 0.9000048 -0.93833929 234 88 12
1.8206438 0.90507931 -0.93833929 234 88 12
1.8236256 0.89375365 -0.94551569 234 88 12
1.8239331 0.89176798 -0.94730979 234 88 12
1.8213059 0.89684248 -0.94730979 234 88 12
1.8216604 0.89059126 -0.95448613 234 88 12
1.8190331 0.89566576 -0.95448613 234 88 12
0.78130543 1.9005767 -0.89886934 234 88 12
0.7827028 1.8991327 -0.90066344 234 88 12
0.77593678 1.9026358 -0.90066344 234 88 12
0.78579164 1.896813 -0.90245754 234 88 12
0.78718895 1.8953692 -0.90425164 234 88 12
0.78380597 1.8971207 -0.90425164 234 88 12
0.77703995 1.9006237 -0.90425164 234 88 12
0.77534842 1.9014994 -0.90425164 234 88 12
0.7767458 1.9000555 -0.90604573 234 88 12
0.80520713 1.8845996 -0.90783983 234 88 12
0.80182409 1.886351 -0.90783983 234 88 12
0.80660444 1.8831556 -0.90963387 234 88 12
0.79277825 1.8895935 -0.91142797 234 88 12
0.80432463 1.882895 -0.91322207 234 88 12
0.80263311 1.8837707 -0.91322207 234 88 12
0.80094159 1.8846465 -0.91322207 234 88 12
0.7924841 1.8890252 -0.91322207 234 88 12
0.78571808 1.8925283 -0.91322207 234 88 12
0.78402662 1.893404 -0.91322207 234 88 12
0.77556908 1.8977828 -0.91322207 234 88 12
0.78512979 1.8913919 -0.91681027 234 88 12
0.7676264 1.899013 -0.92039841 234 88 12
0.76424342 1.9007646 -0.92039841 234 88 12
0.75916892 1.9033918 -0.92039841 234 88 12
0.78424728 1.8896874 -0.92219251 234 88 12
0.77917278 1.8923147 -0.92219251 234 88 12
0.77578974 1.8940661 -0.92219251 234 88 12
0.76733226 1.8984449 -0.92219251 234 88 12
0.76394928 1.9001964 -0.92219251 234 88 12
0.75887477 1.9028237 -0.92219251 234 88 12
0.78564459 1.8882434 -0.92398661 234 88 12
0.77659875 1.8914858 -0.92757481 234 88 12
0.7864536 1.8856632 -0.92936885 234 88 12
0.78476208 1.8865389 -0.92936885 234 88 12
0.7763046 1.8909177 -0.92936885 234 88 12
0.77461308 1.8917934 -0.92936885 234 88 12
0.78498274 1.8828223 -0.93833929 234 88 12
0.78329128 1.883698 -0.93833929 234 88 12
0.77652526 1.887201 -0.93833929 234 88 12
0.78549761 1.8796737 -0.94551569 234 88 12
0.7852034 1.8791056 -0.94730979 234 88 12
0.77674592 1.8834844 -0.94730979 234 88 12
0.77645177 1.8829162 -0.94910383 234 88 12
0.78233522 1.8777087 -0.95448613 234 88 12
0.77556926 1.8812116 -0.95448613 234 88 12
