ply
format ascii 1.0
element vertex 881
property float x
property float y
property float z
property uchar red
property uchar green
property uchar blue
end_header
-0.19693345 -0.057135891 -0.48598971 234 88 12
-0.19869103 -0.054212611 -0.50518721 234 88 12
-0.16194985 -0.057556317 0.45970863 234 88 12
-0.16282142 -0.061613434 0.43657805 234 88 12
-0.16262954 -0.058523814 0.41234932 234 88 12
-0.17868624 -0.036052747 -0.39157623 234 88 12
-0.17885646 -0.037988177 -0.40985491 234 88 12
-0.17987723 -0.035528804 -0.42960894 234 88 12
-0.17766363 -0.03907804 -0.44902886 234 88 12
-0.17584711 -0.044477942 -0.46529645 234 88 12
-0.17621983 -0.042275859 -0.48424156 234 88 12
-0.1753015 -0.045097718 -0.50401244 234 88 12
-0.17732755 -0.045014235 -0.5255698 234 88 12
-0.17756507 -0.042378725 -0.54470014 234 88 12
-0.17754652 -0.046091362 -0.56482283 234 88 12
-0.17749749 -0.048166443 -0.58337766 234 88 12
-0.17671903 -0.046826864 -0.60414384 234 88 12
-0.17579859 -0.049651575 -0.62402368 234 88 12
-0.17664845 -0.050757448 -0.64506636 234 88 12
-0.13058007 -0.083559755 0.71171843 234 88 12
-0.13096592 -0.08026097 0.68982792 234 88 12
-0.13144673 -0.075672652 0.66674817 234 88 12
-0.13227899 -0.072060391 0.64311468 234 88 12
-0.13233621 -0.068815616 0.62057482 234 88 12
-0.13334298 -0.064420135 0.59847984 234 88 12
-0.13547589 -0.06005701 0.57461155 234 88 12
-0.13858086 -0.053988406 0.54976904 234 88 12
-0.13818206 -0.051314929 0.5273989 234 88 12
-0.13732327 -0.052610339 0.50467168 234 88 12
-0.13930174 -0.043699154 0.48128395 234 88 12
-0.14147075 -0.042812754 0.4565887 234 88 12
-0.14100427 -0.044145116 0.43471089 234 88 12
-0.14245104 -0.030702594 0.41381779 234 88 12
-0.1441327 -0.035302245 0.38854524 234 88 12
-0.14353966 -0.036767637 0.36665704 234 88 12
-0.14571994 -0.036181703 0.34526567 234 88 12
-0.15220699 -0.026011646 0.14450695 234 88 12
-0.15135213 -0.027267465 0.12214675 234 88 12
-0.15304556 -0.027021796 0.097900868 234 88 12
-0.15614241 -0.021829358 -0.1386618 234 88 12
-0.15589538 -0.028736259 -0.15882291 234 88 12
-0.15647385 -0.026083157 -0.17921327 234 88 12
-0.1552624 -0.028375639 -0.19892225 234 88 12
-0.1569487 -0.028528737 -0.2183781 234 88 12
-0.15672246 -0.02590926 -0.23868847 234 88 12
-0.15709705 -0.023350092 -0.25927889 234 88 12
-0.15586678 -0.026045324 -0.27723764 234 88 12
-0.15644916 -0.023247019 -0.29714772 234 88 12
-0.15652144 -0.025195763 -0.31542999 234 88 12
-0.15580536 -0.028865657 -0.33371157 234 88 12
-0.15503864 -0.031322212 -0.35271411 234 88 12
-0.15747731 -0.023708739 -0.37163259 234 88 12
-0.15530905 -0.026964517 -0.39042285 234 88 12
-0.15632223 -0.024528534 -0.41016146 234 88 12
-0.15654894 -0.031392296 -0.42911255 234 88 12
-0.15581703 -0.030454754 -0.44733002 234 88 12
-0.15505323 -0.03292116 -0.46641086 234 88 12
-0.15420194 -0.03571219 -0.48374326 234 88 12
-0.15507855 -0.033566506 -0.50422755 234 88 12
-0.15280218 -0.03689479 -0.52318987 234 88 12
-0.15503285 -0.039283062 -0.54282888 234 88 12
-0.15392862 -0.036991587 -0.56407846 234 88 12
-0.15495906 -0.034735138 -0.58367341 234 88 12
-0.15399939 -0.040860765 -0.60396238 234 88 12
-0.15493154 -0.043640769 -0.62522475 234 88 12
-0.15440995 -0.042263125 -0.64560581 234 88 12
-0.15241635 -0.045895569 -0.66479728 234 88 12
-0.15505294 -0.045801772 -0.6879732 234 88 12
-0.15273199 -0.054295421 -0.7086567 234 88 12
-0.15291959 -0.05313045 -0.73020915 234 88 12
-0.10573213 -0.078899579 0.75897463 234 88 12
-0.10803683 -0.072979344 0.73495149 234 88 12
-0.10883273 -0.069172995 0.71117149 234 88 12
-0.10752208 -0.070811416 0.69005556 234 88 12
-0.10932595 -0.061889415 0.66635176 234 88 12
-0.11006332 -0.058305336 0.64265683 234 88 12
-0.10956789 -0.059042045 0.61967064 234 88 12
-0.11113585 -0.050639941 0.59802406 234 88 12
-0.1118655 -0.047073645 0.57439113 234 88 12
-0.11468253 -0.045112826 0.55008545 234 88 12
-0.11551751 -0.041479722 0.52655737 234 88 12
-0.11635549 -0.037836514 0.50305747 234 88 12
-0.11835569 -0.029771742 0.4817725 234 88 12
-0.11750652 -0.031039421 0.45909406 234 88 12
-0.11888067 -0.03037248 0.43431776 234 88 12
-0.12109179 -0.01661838 0.41236484 234 88 12
-0.12048864 -0.018240177 0.38986432 234 88 12
-0.12227499 -0.022414729 0.3669506 234 88 12
-0.12337981 -0.018933851 0.3443182 234 88 12
-0.12480753 -0.017595204 0.32107391 234 88 12
-0.12457982 -0.014983491 0.29879198 234 88 12
-0.12448014 -0.015685683 0.27691342 234 88 12
-0.12535036 -0.012322251 0.2562669 234 88 12
-0.12845395 -0.0057418486 0.23228473 234 88 12
-0.12786179 -0.0073055779 0.2099669 234 88 12
-0.12885761 -0.008999246 0.18878686 234 88 12
-0.12800021 -0.010283722 0.1663896 234 88 12
-0.13063414 -0.0094787654 0.14285353 234 88 12
-0.12977866 -0.010745589 0.12049636 234 88 12
-0.13135191 -0.0023118691 0.099286768 234 88 12
-0.13131222 -0.006674679 0.076334624 234 88 12
-0.1316153 -0.0045065343 0.05535 234 88 12
-0.13059888 -0.0097058712 0.035156529 234 88 12
-0.13287519 -0.0083256838 -0.032373275 234 88 12
-0.13281906 -0.0091484214 -0.05455754 234 88 12
-0.13267162 -0.010455121 -0.075430191 234 88 12
-0.13498876 -0.0051753753 -0.097925911 234 88 12
-0.13389157 -0.0073698291 -0.11750954 234 88 12
-0.13529476 -0.0074068305 -0.13760116 234 88 12
-0.13410214 -0.014892592 -0.15850173 234 88 12
-0.13477456 -0.012220873 -0.17882827 234 88 12
-0.13441603 -0.013954459 -0.19785207 234 88 12
-0.13450244 -0.0071357688 -0.21867833 234 88 12
-0.1350501 -0.011952394 -0.23830431 234 88 12
-0.13552514 -0.0093464728 -0.2588346 234 88 12
-0.13424769 -0.011773889 -0.27626677 234 88 12
-0.13315934 -0.019069815 -0.29665164 234 88 12
-0.13407516 -0.016647037 -0.31638677 234 88 12
-0.13244703 -0.019805955 -0.3325556 234 88 12
-0.13337362 -0.017341403 -0.35232819 234 88 12
-0.13307214 -0.019894858 -0.37050188 234 88 12
-0.1336933 -0.017928655 -0.39069943 234 88 12
-0.13300425 -0.020444396 -0.40966816 234 88 12
-0.13481644 -0.017765716 -0.4293199 234 88 12
-0.13234294 -0.021485396 -0.44623824 234 88 12
-0.13166409 -0.023952885 -0.46526566 234 88 12
-0.13250675 -0.021820206 -0.48337095 234 88 12
-0.13175768 -0.029476616 -0.50374676 234 88 12
-0.13117731 -0.027880145 -0.52348152 234 88 12
-0.13218041 -0.033282182 -0.54303566 234 88 12
-0.13241915 -0.031247328 -0.56210313 234 88 12
-0.13173669 -0.02934241 -0.58310847 234 88 12
-0.13256158 -0.032192461 -0.60440758 234 88 12
-0.13060816 -0.035558536 -0.62296936 234 88 12
-0.13200716 -0.036428014 -0.64494454 234 88 12
-0.13186327 -0.034668256 -0.6672017 234 88 12
-0.1310488 -0.042692495 -0.68833338 234 88 12
-0.13195926 -0.043899831 -0.70935992 234 88 12
-0.1311081 -0.046802034 -0.72926008 234 88 12
-0.13087813 -0.050160639 -0.75233009 234 88 12
-0.084872493 -0.07086314 0.78229778 234 88 12
-0.084024969 -0.072266746 0.75872971 234 88 12
-0.083110932 -0.069388004 0.7352448 234 88 12
-0.084932698 -0.060397946 0.71148834 234 88 12
-0.08615528 -0.05658893 0.69029138 234 88 12
-0.08762886 -0.055090979 0.66669838 234 88 12
-0.088373736 -0.051477488 0.64300164 234 88 12
-0.089066681 -0.048179622 0.61873792 234 88 12
-0.088766643 -0.044223721 0.59510354 234 88 12
-0.089503078 -0.040634737 0.57147387 234 88 12
-0.09108212 -0.032181823 0.54986021 234 88 12
-0.093311968 -0.027776879 0.5261006 234 88 12
-0.092455856 -0.029065783 0.50337285 234 88 12
-0.094664336 -0.020586998 0.48011852 234 88 12
-0.095509203 -0.016929465 0.45667116 234 88 12
-0.098158765 -0.016060455 0.43283917 234 88 12
-0.097969621 -0.012486729 0.41205775 234 88 12
-0.098356672 -0.0093996851 0.38874927 234 88 12
-0.10038211 -0.008234718 0.36459481 234 88 12
-0.10053511 -0.0048727938 0.34465 234 88 12
-0.10166932 -0.001732637 0.32152256 234 88 12
-0.1023794 0.0017670601 0.29817031 234 88 12
-0.10398969 -0.0016789062 0.27641678 234 88 12
-0.10575033 0.0070895041 0.25312861 234 88 12
-0.1046992 0.0057403911 0.23054162 234 88 12
-0.10647078 0.009464939 0.21067553 234 88 12
-0.10756582 0.0097504341 0.18778158 234 88 12
-0.10671749 0.003238188 0.16415131 234 88 12
-0.10792343 0.011083336 0.14306685 234 88 12
-0.10894516 0.010552885 0.12130964 234 88 12
-0.11072975 0.011063061 0.098790036 234 88 12
-0.10802073 0.0084406404 0.076775749 234 88 12
-0.11014557 0.0091850053 0.055572957 234 88 12
-0.11011819 0.012197341 0.033514703 234 88 12
-0.10991148 0.011611596 0.011843784 234 88 12
-0.11031322 0.007188308 -0.0091483068 234 88 12
-0.11107147 0.005364071 -0.032062881 234 88 12
-0.112625 0.0062522009 -0.053015336 234 88 12
-0.11126688 0.0082822897 -0.073991058 234 88 12
-0.11170577 0.0037585404 -0.096728872 234 88 12
-0.11220898 0.0064653757 -0.11713342 234 88 12
-0.11318507 0.0020042476 -0.13733587 234 88 12
-0.11243136 -0.0010118824 -0.15812546 234 88 12
-0.11132448 -0.0032562059 -0.17774911 234 88 12
-0.11270655 -0.00033902343 -0.1980595 234 88 12
-0.11114612 0.0018433315 -0.21753585 234 88 12
-0.11300887 0.0020461934 -0.23870278 234 88 12
-0.11232385 -0.0052410059 -0.25828429 234 88 12
-0.11227502 -0.0026563035 -0.27732161 234 88 12
-0.11150403 -0.0051357464 -0.2962716 234 88 12
-0.11043616 -0.0080313249 -0.31334148 234 88 12
-0.11216602 -0.0083318468 -0.33282841 234 88 12
-0.11145455 -0.01571331 -0.35248996 234 88 12
-0.11284577 -0.013344152 -0.37143392 234 88 12
-0.11066049 -0.016669719 -0.39022457 234 88 12
-0.11355335 -0.0084814219 -0.40925227 234 88 12
-0.11272593 -0.011308549 -0.42888571 234 88 12
-0.11203872 -0.010077564 -0.44652513 234 88 12
-0.11189274 -0.017516874 -0.46536961 234 88 12
-0.1105711 -0.020237221 -0.48354846 234 88 12
-0.11144643 -0.018094086 -0.50403203 234 88 12
-0.10940297 -0.021479645 -0.52256873 234 88 12
-0.10909452 -0.020233988 -0.54242395 234 88 12
-0.10844805 -0.028091286 -0.56248083 234 88 12
-0.10931231 -0.025657154 -0.58299603 234 88 12
-0.10899819 -0.031527981 -0.60414585 234 88 12
-0.10868787 -0.030284187 -0.62407521 234 88 12
-0.10894892 -0.032815186 -0.64455229 234 88 12
-0.10869976 -0.03112366 -0.66686739 234 88 12
-0.10923632 -0.036437091 -0.68739624 234 88 12
-0.1087399 -0.040114859 -0.70848503 234 88 12
-0.10986672 -0.037725454 -0.73108967 234 88 12
-0.10905994 -0.043929153 -0.75138389 234 88 12
-0.11009379 -0.042079513 -0.77168725 234 88 12
-0.059976829 -0.072507119 0.78132631 234 88 12
-0.061816759 -0.063468035 0.7575383 234 88 12
-0.060609382 -0.065064119 0.73644527 234 88 12
-0.061948423 -0.056047564 0.71183603 234 88 12
-0.063986344 -0.05484837 0.68735263 234 88 12
-0.065283245 -0.051089285 0.66624513 234 88 12
-0.065279722 -0.047204479 0.64328667 234 88 12
-0.066008328 -0.038970824 0.61974991 234 88 12
-0.067779424 -0.030177796 0.59612712 234 88 12
-0.066452908 -0.03140365 0.57248413 234 88 12
-0.067282529 -0.02779257 0.54893654 234 88 12
-0.068861427 -0.019345927 0.52734672 234 88 12
-0.071430091 -0.015290966 0.50380586 234 88 12
-0.073312794 -0.0064106126 0.48035651 234 88 12
-0.07431324 -0.010179315 0.4578614 234 88 12
-0.074187791 -0.0073194411 0.43308965 234 88 12
-0.076465113 0.0015497899 0.41047729 234 88 12
-0.076928693 0.0048220005 0.38891775 234 88 12
-0.077779378 0.0007283181 0.36584448 234 88 12
-0.079450572 0.0094982397 0.3423955 234 88 12
-0.080629399 0.012925132 0.31985563 234 88 12
-0.081099193 0.0085371307 0.29928532 234 88 12
-0.082847701 0.017259521 0.27597763 234 88 12
-0.083939189 0.020682708 0.25344449 234 88 12
-0.083819588 0.019867527 0.23160262 234 88 12
-0.085793338 0.020718641 0.20703693 234 88 12
-0.085010937 0.018904878 0.18727361 234 88 12
-0.08732864 0.022796304 0.16425389 234 88 12
-0.086609396 0.020770542 0.14400659 234 88 12
-0.088450683 0.021378012 0.1203881 234 88 12
-0.088915323 0.024660788 0.099096884 234 88 12
-0.088987278 0.020400209 0.076206956 234 88 12
-0.089336556 0.027752575 0.055321761 234 88 12
-0.089233586 0.023502744 0.032347649 234 88 12
-0.091795511 0.02393196 0.011433741 234 88 12
-0.088639871 0.020971075 -0.0087840514 234 88 12
-0.090730299 0.016428116 -0.032925276 234 88 12
-0.090962577 0.020080664 -0.052649806 234 88 12
-0.090979106 0.019656577 -0.074270163 234 88 12
-0.090122805 0.017778226 -0.09462866 234 88 12
-0.092387177 0.01846206 -0.11749926 234 88 12
-0.091207705 0.011027574 -0.13838585 234 88 12
-0.088707783 0.0080129217 -0.15776326 234 88 12
-0.089670397 0.010598958 -0.17737733 234 88 12
-0.090737719 0.006160765 -0.19757574 234 88 12
-0.089928404 0.0080730974 -0.21777757 234 88 12
-0.090659817 0.006633518 -0.23747141 234 88 12
-0.091181477 0.0095314126 -0.2574143 234 88 12
-0.090301695 0.0038248279 -0.27683297 234 88 12
-0.089537267 0.0013666138 -0.29578306 234 88 12
-0.091355777 -0.0005838244 -0.31548475 234 88 12
-0.088881884 -0.0042972533 -0.3323364 234 88 12
-0.089888445 -0.0018605324 -0.35204301 234 88 12
-0.08817441 -0.005255338 -0.36998037 234 88 12
-0.089926066 -0.0023309748 -0.3890827 234 88 12
-0.089203069 -0.0097715228 -0.4087755 234 88 12
-0.088666915 -0.0084609922 -0.42895743 234 88 12
-0.089498249 -0.0057713742 -0.44710236 234 88 12
-0.089656499 -0.0077315119 -0.46543655 234 88 12
-0.08888874 -0.0064776039 -0.48316924 234 88 12
-0.086901621 -0.010104271 -0.50222098 234 88 12
-0.090085588 -0.01454089 -0.52275771 234 88 12
-0.088280426 -0.01785493 -0.54381482 234 88 12
-0.089501092 -0.015918601 -0.56355735 234 88 12
-0.086644183 -0.020181663 -0.58336485 234 88 12
-0.087829095 -0.02280366 -0.60357589 234 88 12
-0.085874412 -0.026088428 -0.62507217 234 88 12
-0.088087524 -0.026521803 -0.64634546 234 88 12
-0.08599803 -0.035072719 -0.66656474 234 88 12
-0.085442532 -0.033840854 -0.68696609 234 88 12
-0.086062273 -0.03119048 -0.70837927 234 88 12
-0.088263364 -0.031675569 -0.72972168 234 88 12
-0.086340781 -0.03995928 -0.75201053 234 88 12
-0.087181348 -0.038362562 -0.77327674 234 88 12
-0.036495972 -0.071603197 0.80358129 234 88 12
-0.038469929 -0.070628068 0.78107372 234 88 12
-0.039205179 -0.061935719 0.75793042 234 88 12
-0.040935333 -0.052966573 0.73409408 234 88 12
-0.039245168 -0.054535645 0.71216528 234 88 12
-0.040389858 -0.045929509 0.68930591 234 88 12
-0.041133945 -0.042311174 0.66557878 234 88 12
-0.042946292 -0.045319677 0.64175869 234 88 12
-0.044375367 -0.037233329 0.61943857 234 88 12
-0.045107547 -0.03366791 0.59579142 234 88 12
-0.046983825 -0.024804624 0.57224713 234 88 12
-0.045565582 -0.026047344 0.54856559 234 88 12
-0.047447357 -0.017164098 0.52506643 234 88 12
-0.050114142 -0.013067466 0.50158915 234 88 12
-0.051080959 -0.0049612694 0.48152865 234 88 12
-0.051995166 0.0031225211 0.4567557 234 88 12
-0.053234897 0.0067648309 0.43410298 234 88 12
-0.054672933 0.0080266099 0.4101711 234 88 12
-0.055909786 0.01167183 0.38755184 234 88 12
-0.05636023 0.014896615 0.36601379 234 88 12
-0.059971997 0.021191572 0.3428086 234 88 12
-0.05852206 0.019134507 0.32028666 234 88 12
-0.059232327 0.022636913 0.29693243 234 88 12
-0.062190681 0.031766442 0.2750882 234 88 12
-0.062196699 0.027477398 0.25372013 234 88 12
-0.062872529 0.030729694 0.22984709 234 88 12
-0.063136432 0.029849489 0.20879927 234 88 12
-0.063640811 0.028146587 0.186784 234 88 12
-0.066419126 0.03393239 0.16308317 234 88 12
-0.065705316 0.031925186 0.14283331 234 88 12
-0.066094831 0.035017127 0.11979944 234 88 12
-0.066668619 0.030581619 0.098871676 234 88 12
-0.068948448 0.039477781 0.076568701 234 88 12
-0.067245177 0.034038504 0.055738755 234 88 12
-0.068492255 0.034007575 0.033298933 234 88 12
-0.068404205 0.027818269 0.011849119 234 88 12
-0.068266931 0.027036208 -0.010352894 234 88 12
-0.067757563 0.025883663 -0.03195334 234 88 12
-0.070210901 0.031475832 -0.053762512 234 88 12
-0.069964907 0.029838732 -0.072628964 234 88 12
-0.070035432 0.024487058 -0.094911805 234 88 12
-0.068902809 0.022029743 -0.1150724 234 88 12
-0.068845881 0.020726989 -0.13592446 234 88 12
-0.069269964 0.019868142 -0.15735918 234 88 12
-0.068640982 0.017582144 -0.17615158 234 88 12
-0.069196713 0.015354361 -0.19727571 234 88 12
-0.067539626 0.012877627 -0.216028 234 88 12
-0.068022179 0.015508018 -0.23653774 234 88 12
-0.068263979 0.010733279 -0.25688939 234 88 12
-0.066915579 0.0031142258 -0.27562429 234 88 12
-0.067830509 0.0055363399 -0.29533993 234 88 12
-0.068090286 0.0082476785 -0.31428157 234 88 12
-0.067599164 0.009844454 -0.33379551 234 88 12
-0.067832455 0.0073646502 -0.34935999 234 88 12
-0.067494616 0.0040814717 -0.36950085 234 88 12
-0.066704787 0.0015276414 -0.38852294 234 88 12
-0.066763187 -0.0004737911 -0.40687128 234 88 12
-0.066697182 0.00076464061 -0.42620853 234 88 12
-0.065926448 -0.0017212641 -0.44528044 234 88 12
-0.065601602 -0.0049602736 -0.46550626 234 88 12
-0.06727892 -0.009401981 -0.48415529 234 88 12
-0.067781198 -0.0028727053 -0.50437855 234 88 12
-0.067231448 -0.0054506209 -0.52308771 234 88 12
-0.06691158 -0.0042504574 -0.54294034 234 88 12
-0.066498826 -0.012144205 -0.562573 234 88 12
-0.066166015 -0.010993051 -0.58245637 234 88 12
-0.064349465 -0.014355569 -0.6035641 234 88 12
-0.066686205 -0.014527677 -0.62415729 234 88 12
-0.064490465 -0.023146194 -0.6444191 234 88 12
-0.065622142 -0.020732113 -0.6669651 234 88 12
-0.063367773 -0.024453747 -0.6865888 234 88 12
-0.065868192 -0.029851285 -0.70815433 234 88 12
-0.065200832 -0.032435079 -0.73004262 234 88 12
-0.064610034 -0.031320585 -0.75050666 234 88 12
-0.064158937 -0.037577525 -0.77299062 234 88 12
-0.016044552 -0.065296646 0.80405718 234 88 12
-0.016291592 -0.061153214 0.78108952 234 88 12
-0.016695406 -0.057807518 0.75914219 234 88 12
-0.015605893 -0.054802959 0.73472655 234 88 12
-0.01699575 -0.053277839 0.71102248 234 88 12
-0.018297585 -0.049495178 0.68988969 234 88 12
-0.019980417 -0.040696064 0.66612585 234 88 12
-0.018636994 -0.041997871 0.64241696 234 88 12
-0.020759816 -0.037659226 0.6185122 234 88 12
-0.022484274 -0.029158351 0.59429587 234 88 12
-0.022932847 -0.025959449 0.57258215 234 88 12
-0.023066857 -0.017092625 0.55049619 234 88 12
-0.023785267 -0.013694571 0.52631736 234 88 12
-0.027077573 -0.0039688803 0.50260646 234 88 12
-0.029765415 -0.0028133223 0.47931727 234 88 12
-0.029742479 9.9221919e-05 0.45458156 234 88 12
-0.031931894 0.0089623056 0.43189015 234 88 12
-0.032841832 0.011952501 0.41056495 234 88 12
-0.034236228 0.013505817 0.38717799 234 88 12
-0.034617795 0.016569371 0.36389436 234 88 12
-0.035344555 0.020137253 0.34048639 234 88 12
-0.037265536 0.028375966 0.31986342 234 88 12
-0.03812081 0.024421746 0.29745888 234 88 12
-0.039573182 0.028412273 0.27475419 234 88 12
-0.042582995 0.037627664 0.25059063 234 88 12
-0.043158037 0.033316708 0.23013917 234 88 12
-0.043806624 0.036914942 0.20680838 234 88 12
-0.041634315 0.034331138 0.1872728 234 88 12
-0.043889527 0.043123199 0.16489987 234 88 12
-0.046530428 0.044000905 0.14135591 234 88 12
-0.044934181 0.041755889 0.12096147 234 88 12
-0.046564328 0.042128754 0.096653477 234 88 12
-0.045834146 0.040517933 0.076965261 234 88 12
-0.046878898 0.040052002 0.054169531 234 88 12
-0.04818668 0.036307972 0.032764153 234 88 12
-0.048123632 0.039066522 0.011567366 234 88 12
-0.046389374 0.033382546 -0.0098141513 234 88 12
-0.047565823 0.037134634 -0.032171598 234 88 12
-0.046074055 0.030158904 -0.05317963 234 88 12
-0.045242569 0.025341506 -0.073353355 234 88 12
-0.045846345 0.028092929 -0.093675564 234 88 12
-0.048202172 0.029585017 -0.1151394 234 88 12
-0.047415263 0.026326842 -0.13649895 234 88 12
-0.046223093 0.024089433 -0.15617044 234 88 12
-0.046667795 0.026450551 -0.17720466 234 88 12
-0.046756731 0.021421616 -0.19581314 234 88 12
-0.047346649 0.024126031 -0.21624585 234 88 12
-0.047038957 0.017464625 -0.23595915 234 88 12
-0.044984203 0.014285689 -0.25458729 234 88 12
-0.045428107 0.01677098 -0.27512316 234 88 12
-0.045492439 0.014796296 -0.29338373 234 88 12
-0.045054931 0.011471872 -0.31353598 234 88 12
-0.0447414 0.0088726383 -0.33167331 234 88 12
-0.047011228 0.0087878398 -0.35208964 234 88 12
-0.046708849 0.011210286 -0.37015322 234 88 12
-0.045919461 0.0086563659 -0.38917565 234 88 12
-0.045662275 0.0048672387 -0.40666426 234 88 12
-0.045720714 0.0028667829 -0.42502667 234 88 12
-0.046823998 0.0049563845 -0.44503576 234 88 12
-0.044656552 0.0016761849 -0.46388887 234 88 12
-0.045812449 0.0040810044 -0.48334061 234 88 12
-0.043979341 -0.0044306004 -0.50299399 234 88 12
-0.043624185 -0.0029207785 -0.52230123 234 88 12
-0.043065639 -0.0054274538 -0.54395211 234 88 12
-0.045177784 -0.0062356855 -0.56336326 234 88 12
-0.044799121 -0.0094588722 -0.58404318 234 88 12
-0.044131074 -0.0083240282 -0.60443106 234 88 12
-0.043792411 -0.01091188 -0.62573838 234 88 12
-0.043274802 -0.0094161756 -0.64551488 234 88 12
-0.042705102 -0.017303595 -0.66560244 234 88 12
-0.042109464 -0.023091027 -0.6878199 234 88 12
-0.042932623 -0.021135509 -0.70847559 234 88 12
-0.04240945 -0.028629341 -0.73097409 234 88 12
-0.043179807 -0.03000236 -0.75210795 234 88 12
0.00548747 -0.063941916 0.80566812 234 88 12
0.0063813796 -0.065079678 0.78261217 234 88 12
0.006151436 -0.0612502 0.75788066 234 88 12
0.0046305447 -0.052702595 0.7360373 234 88 12
0.0056467887 -0.053946018 0.71297478 234 88 12
0.0038585473 -0.045080775 0.68924606 234 88 12
0.0022226288 -0.043878035 0.66400329 234 88 12
0.0035460205 -0.046022738 0.64241096 234 88 12
0.0014160297 -0.036671982 0.61861105 234 88 12
-0.00064932012 -0.027426774 0.59539447 234 88 12
-0.0024391246 -0.018560971 0.57178858 234 88 12
-0.0032027439 -0.014875386 0.54818045 234 88 12
-0.0029955348 -0.011738881 0.52501496 234 88 12
-0.0035706311 -0.0083952508 0.50342254 234 88 12
-0.0073351076 0.0012656757 0.48057976 234 88 12
-0.0082040968 0.0050179764 0.45712078 234 88 12
-0.0098374098 0.0053813879 0.43246589 234 88 12
-0.011980601 0.019201751 0.41044621 234 88 12
-0.011779604 0.022117816 0.38564698 234 88 12
-0.013429133 0.023162744 0.36508503 234 88 12
-0.014633126 0.026689248 0.34251429 234 88 12
-0.01534167 0.030185615 0.31913488 234 88 12
-0.0153848 0.033935065 0.29657109 234 88 12
-0.017067054 0.034513773 0.27441954 234 88 12
-0.018961511 0.038208689 0.25198438 234 88 12
-0.020341244 0.042848311 0.22918914 234 88 12
-0.021256872 0.045982333 0.20863931 234 88 12
-0.023844069 0.047103745 0.18557226 234 88 12
-0.020989044 0.039137162 0.16478143 234 88 12
-0.024574259 0.045211352 0.14119733 234 88 12
-0.023278852 0.043402771 0.11892281 234 88 12
-0.025931811 0.043847619 0.098001644 234 88 12
-0.025957677 0.046608619 0.076812533 234 88 12
-0.024527116 0.041386537 0.053529322 234 88 12
-0.026432317 0.049899171 0.033073326 234 88 12
-0.026228511 0.045295711 0.012111246 234 88 12
-0.024461052 0.038424712 -0.0098236472 234 88 12
-0.025862576 0.03874759 -0.031629495 234 88 12
-0.02510776 0.03691418 -0.051888195 234 88 12
-0.025514729 0.036923706 -0.075318367 234 88 12
-0.025235151 0.030364528 -0.094909179 234 88 12
-0.025831888 0.033088675 -0.11524919 234 88 12
-0.024037099 0.030297591 -0.13457317 234 88 12
-0.025896361 0.030497951 -0.15565662 234 88 12
-0.023788558 0.022201949 -0.17551491 234 88 12
-0.023921292 0.025568326 -0.19708592 234 88 12
-0.025728779 0.028711974 -0.21605969 234 88 12
-0.023216762 0.02564828 -0.23551102 234 88 12
-0.025949835 0.021386744 -0.25665643 234 88 12
-0.025259161 0.018875619 -0.27552654 234 88 12
-0.025604095 0.020983553 -0.29431971 234 88 12
-0.024808331 0.018408838 -0.31327907 234 88 12
-0.023722666 0.015439193 -0.33035664 234 88 12
-0.023291592 0.012136442 -0.350542 234 88 12
-0.022507726 0.0096015807 -0.36954953 234 88 12
-0.024726812 0.012457049 -0.38781009 234 88 12
-0.022539226 0.0091049103 -0.40661334 234 88 12
-0.024719877 0.016683905 -0.4259919 234 88 12
-0.023535467 0.0086426753 -0.44502692 234 88 12
-0.02276458 0.0061521568 -0.46411364 234 88 12
-0.02248328 0.0074937099 -0.48392407 234 88 12
-0.021941804 0.0049497733 -0.50261808 234 88 12
-0.023056384 -0.0011839279 -0.52378063 234 88 12
-0.022475147 -0.0038783089 -0.54249877 234 88 12
-0.022128876 -0.0027801743 -0.56236232 234 88 12
-0.021685758 -0.0054392499 -0.58368182 234 88 12
-0.021103811 -0.0043041202 -0.60401032 234 88 12
-0.020533067 -0.012191782 -0.62406513 234 88 12
-0.020303632 -0.01030765 -0.64576426 234 88 12
-0.021044125 -0.015744114 -0.66585171 234 88 12
-0.021565247 -0.014265561 -0.68689915 234 88 12
-0.020977519 -0.016878017 -0.70870433 234 88 12
-0.020294304 -0.015790079 -0.7292072 234 88 12
0.02871105 -0.064783829 0.80499269 234 88 12
0.027194415 -0.06314128 0.78129386 234 88 12
0.027181121 -0.059755748 0.75855797 234 88 12
0.026497456 -0.056047775 0.73470041 234 88 12
0.026521037 -0.052353006 0.71106881 234 88 12
0.026066827 -0.049124906 0.68924023 234 88 12
0.025814598 -0.045516147 0.66466385 234 88 12
0.025355969 -0.036208976 0.64234399 234 88 12
0.024645022 -0.032717476 0.61867328 234 88 12
0.022880057 -0.023942963 0.5950502 234 88 12
0.022419322 -0.020698686 0.57333442 234 88 12
0.017979392 -0.013738612 0.54819979 234 88 12
0.019160274 -0.015463992 0.52559936 234 88 12
0.01724466 -0.0064601534 0.50212095 234 88 12
0.016379974 -0.0027258012 0.47864466 234 88 12
0.015099597 0.005865975 0.45669077 234 88 12
0.012398353 0.014704127 0.43248306 234 88 12
0.010159152 0.015529611 0.41102488 234 88 12
0.0088528723 0.023598515 0.38708826 234 88 12
0.0098720935 0.022364078 0.36435801 234 88 12
0.007629379 0.031112609 0.34181113 234 88 12
0.0055960777 0.031861817 0.31719301 234 88 12
0.0068355145 0.030286733 0.29708626 234 88 12
0.0051881421 0.0389597 0.27371869 234 88 12
0.003449491 0.042551866 0.25381773 234 88 12
0.0040168333 0.037925424 0.2293089 234 88 12
0.00035601344 0.047535129 0.206661 234 88 12
0.00083256761 0.049901528 0.18635942 234 88 12
-6.4977838e-05 0.046098824 0.16407764 234 88 12
-0.00044317637 0.049074038 0.14043966 234 88 12
-0.0032209938 0.049767199 0.12014711 234 88 12
-0.0042069523 0.050462443 0.096616775 234 88 12
-0.0028539437 0.047263286 0.074428756 234 88 12
-0.0038772156 0.043139352 0.054877774 234 88 12
-0.003998575 0.045932209 0.033783265 234 88 12
-0.0035333083 0.041471927 0.011860045 234 88 12
-0.0031728757 0.044265586 -0.010050583 234 88 12
-0.0052963964 0.040923433 -0.032796236 234 88 12
-0.0023391982 0.038027614 -0.052923006 234 88 12
-0.0033217523 0.041405922 -0.073378608 234 88 12
-0.0021401239 0.039212932 -0.092999772 234 88 12
-0.0035657233 0.034037289 -0.11430819 234 88 12
-0.0026596616 0.032182007 -0.13584386 234 88 12
-0.0044109094 0.034991009 -0.15534363 234 88 12
-0.0017172385 0.031904826 -0.17485989 234 88 12
-0.0040625911 0.026847407 -0.19638214 234 88 12
-0.0019323106 0.023717557 -0.21504109 234 88 12
-0.0033445202 0.026879521 -0.23480219 234 88 12
-0.0021095301 0.024490469 -0.25455679 234 88 12
-0.00092220758 0.016819668 -0.27316255 234 88 12
-0.0013470828 0.019236578 -0.29371082 234 88 12
-0.0013922988 0.017189379 -0.31198199 234 88 12
-0.0019323617 0.023982995 -0.33146962 234 88 12
-0.0011487961 0.021454147 -0.35046149 234 88 12
-0.0009011266 0.013973445 -0.36928733 234 88 12
-0.00041005557 0.015570272 -0.38884648 234 88 12
-0.00026281948 0.01278849 -0.40551832 234 88 12
-3.3289055e-07 0.014325052 -0.42468446 234 88 12
0.000542227 0.011778511 -0.44333113 234 88 12
-0.0013875608 0.0065164171 -0.46322213 234 88 12
-0.00081297849 0.0037301946 -0.48249368 234 88 12
-0.00075969895 0.010003351 -0.50239421 234 88 12
-0.0012909287 0.00804169 -0.52291139 234 88 12
-0.00095085553 0.009167179 -0.54275958 234 88 12
-0.00016835011 0.0015109149 -0.56257735 234 88 12
0.00028603949 0.0025393082 -0.58251977 234 88 12
0.00063171834 -7.4679381e-05 -0.6038063 234 88 12
0.0010623562 0.0010488754 -0.62379655 234 88 12
0.00045089765 -0.0089645752 -0.64436654 234 88 12
-6.4507713e-05 -0.0071440351 -0.66718929 234 88 12
0.0013686271 -0.010400232 -0.68611795 234 88 12
0.0019568293 -0.01300986 -0.70792512 234 88 12
0.0012175239 -0.019302153 -0.72976785 234 88 12
0.05214831 -0.065231195 0.78278644 234 88 12
0.051414724 -0.061790905 0.75837619 234 88 12
0.050470903 -0.053242215 0.73562086 234 88 12
0.050030329 -0.056950521 0.71195635 234 88 12
0.049352092 -0.048442234 0.68887324 234 88 12
0.0480612 -0.039603034 0.6643207 234 88 12
0.048207611 -0.040528387 0.64209629 234 88 12
0.045823418 -0.031353761 0.61928313 234 88 12
0.045098753 -0.027813631 0.59563508 234 88 12
0.043301757 -0.018922499 0.57202951 234 88 12
0.044264437 -0.020411869 0.54860261 234 88 12
0.041312634 -0.011185615 0.5250205 234 88 12
0.040488208 -0.0024736863 0.5021808 234 88 12
0.038403908 0.0060246322 0.48147778 234 88 12
0.037238374 0.006454859 0.4559561 234 88 12
0.035992295 0.0101225 0.43329863 234 88 12
0.033796305 0.019015559 0.41061878 234 88 12
0.033528805 0.02186246 0.38665871 234 88 12
0.031680461 0.023278592 0.36413793 234 88 12
0.031375515 0.02616929 0.34197664 234 88 12
0.029621815 0.034914508 0.31862 234 88 12
0.028913842 0.038406157 0.29526697 234 88 12
0.027124229 0.035320338 0.2718193 234 88 12
0.025189255 0.043604548 0.25125674 234 88 12
0.026241298 0.042251371 0.2286689 234 88 12
0.023474761 0.04289108 0.2083003 234 88 12
0.02309411 0.045951794 0.18519881 234 88 12
0.022556006 0.049633064 0.16300651 234 88 12
0.020215246 0.050549069 0.1418631 234 88 12
0.019968424 0.05019925 0.11776653 234 88 12
0.021069745 0.047996609 0.098212415 234 88 12
0.017540414 0.054188461 0.074620206 234 88 12
0.019196153 0.052074024 0.054206283 234 88 12
0.019035654 0.046749205 0.032052081 234 88 12
0.019816311 0.04482234 0.011838868 234 88 12
0.017088592 0.046116522 -0.011021023 234 88 12
0.019941263 0.043372714 -0.030489071 234 88 12
0.020610727 0.036833927 -0.05081175 234 88 12
0.01871943 0.037613652 -0.074411403 234 88 12
0.020370883 0.035161353 -0.093061277 234 88 12
0.019855095 0.032674979 -0.11469295 234 88 12
0.021060709 0.030392874 -0.1343472 234 88 12
0.019528112 0.03035944 -0.15698245 234 88 12
0.020359618 0.027976007 -0.17589578 234 88 12
0.019813245 0.034674503 -0.19586053 234 88 12
0.020118215 0.028016037 -0.21555264 234 88 12
0.020577811 0.029734108 -0.23498894 234 88 12
0.020969937 0.027880591 -0.2540569 234 88 12
0.019968328 0.030293784 -0.27368952 234 88 12
0.021725418 0.02265071 -0.29320922 234 88 12
0.022522869 0.020072129 -0.3121675 234 88 12
0.020772002 0.022995203 -0.33122361 234 88 12
0.02295598 0.019671746 -0.34998246 234 88 12
0.02214181 0.021370124 -0.36802723 234 88 12
0.021351684 0.011423322 -0.38800582 234 88 12
0.022261718 0.013287914 -0.40636582 234 88 12
0.020275759 0.016171961 -0.4250763 234 88 12
0.022318486 0.012786747 -0.44354967 234 88 12
0.021306665 0.0148583 -0.46363562 234 88 12
0.023182468 0.0066380878 -0.48274321 234 88 12
0.022084437 0.0087006203 -0.50279954 234 88 12
0.024052253 0.0052670277 -0.52126927 234 88 12
0.023088003 0.0071646172 -0.54141684 234 88 12
0.024840328 0.0037290356 -0.56242621 234 88 12
0.023182025 0.0015063533 -0.58240802 234 88 12
0.021414156 0.0012438489 -0.60241364 234 88 12
0.022626793 0.0022875258 -0.62544692 234 88 12
0.023256898 -0.00069443665 -0.64485416 234 88 12
0.023533976 -0.004451384 -0.66548815 234 88 12
0.024163351 -0.0067627328 -0.68674421 234 88 12
0.074998888 -0.064458531 0.78081553 234 88 12
0.07348902 -0.05595413 0.75895991 234 88 12
0.072825395 -0.052319518 0.73510482 234 88 12
0.072931943 -0.053098724 0.71280749 234 88 12
0.071936569 -0.044666959 0.69015331 234 88 12
0.065375302 -0.019043178 0.54927018 234 88 12
0.064863704 -0.015843119 0.52589905 234 88 12
0.064185276 -0.0074645926 0.50240889 234 88 12
0.062641466 0.00093900104 0.47910707 234 88 12
0.061487806 0.004583085 0.45637015 234 88 12
0.057923276 0.010991373 0.43301599 234 88 12
0.057668403 0.013790956 0.40903693 234 88 12
0.054556095 0.023500754 0.38530463 234 88 12
0.055373967 0.021444152 0.36478903 234 88 12
0.053227182 0.032151891 0.34065594 234 88 12
0.052033763 0.035632146 0.31811465 234 88 12
0.052161332 0.034785748 0.29621093 234 88 12
0.050697862 0.043136307 0.27479045 234 88 12
0.049976265 0.046682728 0.2514777 234 88 12
0.047788262 0.043578759 0.22884184 234 88 12
0.046672202 0.051424999 0.20762708 234 88 12
0.046893565 0.053949679 0.1848576 234 88 12
0.047183099 0.049389914 0.16371553 234 88 12
0.045438802 0.047878542 0.14094005 234 88 12
0.042604175 0.053893377 0.11727425 234 88 12
0.041622016 0.049502465 0.097114716 234 88 12
0.042885812 0.051592091 0.076215246 234 88 12
0.042862924 0.047493177 0.053283707 234 88 12
0.04186629 0.045697548 0.031645929 234 88 12
0.043469841 0.040281225 0.010919403 234 88 12
0.042394682 0.043671455 -0.0094228498 234 88 12
0.043582244 0.041914415 -0.031572621 234 88 12
0.043605355 0.037493921 -0.053062818 234 88 12
0.043345607 0.040568226 -0.073557394 234 88 12
0.04349813 0.03895914 -0.092376653 234 88 12
0.044152959 0.040971957 -0.11500813 234 88 12
0.043468398 0.031194009 -0.13512856 234 88 12
0.042297134 0.033972959 -0.15552155 234 88 12
0.044183001 0.031031519 -0.17602826 234 88 12
0.042574832 0.033572059 -0.19562395 234 88 12
0.044666279 0.025470122 -0.21493193 234 88 12
0.041985923 0.026104069 -0.23540336 234 88 12
0.043228243 0.023695385 -0.2551559 234 88 12
0.042869739 0.025850454 -0.27393051 234 88 12
0.044117981 0.02340985 -0.29370898 234 88 12
0.044626907 0.023777191 -0.31005846 234 88 12
0.045019927 0.025419855 -0.3295084 234 88 12
0.044470481 0.020164622 -0.34974414 234 88 12
0.04340684 0.022549198 -0.3691626 234 88 12
0.044506885 0.019744978 -0.3868422 234 88 12
0.043395024 0.017177029 -0.40694891 234 88 12
0.045384538 0.013548447 -0.42593805 234 88 12
0.046020911 0.010981912 -0.44464696 234 88 12
0.04636491 0.012547099 -0.46390888 234 88 12
0.042620447 0.017336834 -0.48416565 234 88 12
0.044577899 0.013953403 -0.50262865 234 88 12
0.043532823 0.011022474 -0.52343054 234 88 12
0.044960781 0.0077926561 -0.54224125 234 88 12
0.043951435 0.0099764875 -0.56181502 234 88 12
0.044396963 0.007317661 -0.58314074 234 88 12
0.044914787 0.0035735617 -0.60414001 234 88 12
0.045599336 0.00083493673 -0.62299275 234 88 12
0.046719877 0.0018997098 -0.64598429 234 88 12
0.04597652 -0.0035415521 -0.66607448 234 88 12
0.096480829 -0.060441753 0.75804682 234 88 12
0.095742897 -0.056853564 0.73425768 234 88 12
0.096437104 -0.053332714 0.71236202 234 88 12
0.08691732 -0.0071988071 0.5014934 234 88 12
0.08566194 -0.0035128838 0.47880033 234 88 12
0.084265072 0.0045580894 0.45486871 234 88 12
0.081715493 0.0089757558 0.43191822 234 88 12
0.079591052 0.017484759 0.40865379 234 88 12
0.080405507 0.012750023 0.38645811 234 88 12
0.078357347 0.026116115 0.36389431 234 88 12
0.067385625 0.046115815 -0.010415178 234 88 12
0.066612686 0.042181586 -0.030660619 234 88 12
0.069464381 0.039384918 -0.05072451 234 88 12
0.067934952 0.038320103 -0.073583711 234 88 12
0.069411161 0.036219278 -0.0939143 234 88 12
0.066613653 0.036936479 -0.11422147 234 88 12
0.068561007 0.034134223 -0.13475299 234 88 12
0.067608589 0.03141089 -0.1555873 234 88 12
0.069041788 0.028573098 -0.17358509 234 88 12
0.068656511 0.030675441 -0.19463705 234 88 12
0.068639252 0.025321432 -0.21325882 234 88 12
0.067130284 0.027937828 -0.23439359 234 88 12
0.06768876 0.025648297 -0.25410586 234 88 12
0.067317488 0.027850063 -0.27288152 234 88 12
0.06855368 0.025457685 -0.29266112 234 88 12
0.066785414 0.028431474 -0.31169642 234 88 12
0.067487878 0.021067502 -0.33132753 234 88 12
0.069957808 0.017376976 -0.34818581 234 88 12
0.06879963 0.019782861 -0.36754051 234 88 12
0.06993954 0.01671203 -0.38580875 234 88 12
0.067608486 0.024255523 -0.40481119 234 88 12
0.066800077 0.014359039 -0.42482425 234 88 12
0.067097703 0.01565134 -0.44459964 234 88 12
0.067734523 0.013087174 -0.46332586 234 88 12
0.067993174 0.014648104 -0.48254447 234 88 12
0.068696946 0.01171756 -0.50189254 234 88 12
0.068176975 0.013450131 -0.52104064 234 88 12
0.068792237 0.0058349296 -0.54049063 234 88 12
0.067889184 0.012598984 -0.56231714 234 88 12
0.068573313 0.0098613392 -0.58113428 234 88 12
0.067844232 0.011795414 -0.60176093 234 88 12
0.068204354 0.0059743565 -0.62349526 234 88 12
0.067407132 0.0030245923 -0.64482931 234 88 12
0.070283265 -0.0012792983 -0.66471319 234 88 12
0.12095537 -0.065450076 0.75816913 234 88 12
0.095576669 0.036274223 -0.052324881 234 88 12
0.094367647 0.035163029 -0.072786156 234 88 12
0.093133337 0.031133921 -0.092252589 234 88 12
0.092254253 0.034213841 -0.11447084 234 88 12
0.094921878 0.030800317 -0.13447631 234 88 12
0.093925481 0.028351107 -0.15472713 234 88 12
0.093980093 0.030866082 -0.17511196 234 88 12
0.091788848 0.030733073 -0.19545772 234 88 12
0.092265931 0.028397992 -0.21507889 234 88 12
0.092400496 0.030511201 -0.23466514 234 88 12
0.092296654 0.02348943 -0.25354916 234 88 12
0.091963934 0.025848723 -0.27414298 234 88 12
0.093598146 0.02262617 -0.29027458 234 88 12
0.092915084 0.025063251 -0.31041916 234 88 12
0.091790986 0.028374662 -0.32868223 234 88 12
0.093935947 0.019950766 -0.34868592 234 88 12
0.091688672 0.019513987 -0.36679609 234 88 12
0.092218288 0.017018307 -0.38539682 234 88 12
0.092602931 0.01831705 -0.40519921 234 88 12
0.092896183 0.015789034 -0.42340988 234 88 12
0.092390417 0.01790597 -0.44196338 234 88 12
0.090500846 0.012931319 -0.46251334 234 88 12
0.090859793 0.014448346 -0.48178953 234 88 12
0.091462413 0.011567283 -0.50107566 234 88 12
0.090136392 0.014236419 -0.5225332 234 88 12
0.091411936 0.010999615 -0.54098588 234 88 12
0.090324826 0.0083368016 -0.56122977 234 88 12
0.091048802 0.0053337407 -0.58064235 234 88 12
0.091185353 0.0068678341 -0.60252947 234 88 12
0.092049744 0.0039245329 -0.62233705 234 88 12
0.093280979 0.0048090974 -0.64244047 234 88 12
0.091661595 -0.00025395733 -0.66359504 234 88 12
0.1199095 0.026954028 -0.093831919 234 88 12
0.11986178 0.029460786 -0.11325915 234 88 12
0.12006701 0.032156386 -0.13347299 234 88 12
0.11644993 0.02822619 -0.15551441 234 88 12
0.11921343 0.024878045 -0.17503004 234 88 12
0.11750933 0.027443804 -0.19456338 234 88 12
0.11971204 0.024032987 -0.21321701 234 88 12
0.11847126 0.026723532 -0.23361908 234 88 12
0.118821 0.01985937 -0.25333954 234 88 12
0.11837822 0.026591584 -0.27284249 234 88 12
0.11831776 0.024547611 -0.29110142 234 88 12
0.11653186 0.024206633 -0.31000675 234 88 12
0.11643871 0.022324031 -0.32829382 234 88 12
0.11857727 0.013928393 -0.34829771 234 88 12
0.11753974 0.016462954 -0.36801247 234 88 12
0.1172171 0.01451942 -0.38592354 234 88 12
0.11623073 0.013227971 -0.40346863 234 88 12
0.11576732 0.015664052 -0.42266414 234 88 12
0.11439873 0.018480392 -0.44404811 234 88 12
0.11634682 0.015139793 -0.46247424 234 88 12
0.11432993 0.0128574 -0.48248427 234 88 12
0.11637843 0.0094760101 -0.50100539 234 88 12
0.11552919 0.011525349 -0.52150378 234 88 12
0.11346682 0.018983653 -0.54104048 234 88 12
0.11558989 0.015211451 -0.56020344 234 88 12
0.11303251 0.0097178403 -0.58135691 234 88 12
0.11481312 0.0066436456 -0.60187614 234 88 12
0.11383327 0.0085923045 -0.62209634 234 88 12
0.11469262 0.0056671999 -0.64192104 234 88 12
0.11481601 0.0072517961 -0.66386741 234 88 12
0.14462751 0.026073118 -0.13502636 234 88 12
0.14276906 0.024204936 -0.15459332 234 88 12
0.14544019 0.020874219 -0.17404753 234 88 12
0.14236619 0.020910816 -0.1942324 234 88 12
0.14503934 0.017573763 -0.21372358 234 88 12
0.14227579 0.025468867 -0.23326717 234 88 12
0.1425971 0.018735422 -0.25298891 234 88 12
0.14306701 0.020432099 -0.27245343 234 88 12
0.14322311 0.018540746 -0.29112993 234 88 12
0.14173005 0.021170459 -0.30827437 234 88 12
0.14133251 0.016358418 -0.32832548 234 88 12
0.14174794 0.01395837 -0.34683486 234 88 12
0.14029243 0.016285134 -0.36691328 234 88 12
0.14080836 0.013838843 -0.38551318 234 88 12
0.13963447 0.016290073 -0.40489674 234 88 12
0.13934253 0.011072256 -0.42325902 234 88 12
0.13822751 0.013183748 -0.44326176 234 88 12
0.1401628 0.0098940902 -0.46168733 234 88 12
0.13795724 0.017542908 -0.48111091 234 88 12
0.13694401 0.019607684 -0.50122793 234 88 12
0.13893679 0.011295112 -0.52042787 234 88 12
0.13734732 0.013809533 -0.54030928 234 88 12
0.13772289 0.011534275 -0.56102921 234 88 12
0.13815699 0.012662376 -0.58098165 234 88 12
0.13890396 0.0047571303 -0.60113924 234 88 12
0.13908766 0.0058980478 -0.62069978 234 88 12
0.13821929 0.0051980371 -0.64149994 234 88 12
0.13707932 0.0076330538 -0.66404543 234 88 12
0.13919699 0.0038820994 -0.68330936 234 88 12
0.16905763 0.016865989 -0.15403506 234 88 12
0.16952341 0.014548183 -0.17361917 234 88 12
0.1690345 0.017202461 -0.19408784 234 88 12
0.16795981 0.017056694 -0.2132734 234 88 12
0.16692364 0.01959052 -0.23287954 234 88 12
0.16724565 0.01285295 -0.25260289 234 88 12
0.1668753 0.015060396 -0.27138155 234 88 12
0.16779203 0.012634529 -0.29068397 234 88 12
0.16654742 0.015255892 -0.30824671 234 88 12
0.16491885 0.01534333 -0.32844354 234 88 12
0.16311464 0.018431435 -0.34751539 234 88 12
0.1648652 0.010357232 -0.36646617 234 88 12
0.16391498 0.012887044 -0.38625655 234 88 12
0.16349494 0.010972301 -0.4041176 234 88 12
0.16373365 0.012608338 -0.42328043 234 88 12
0.16237683 0.015861307 -0.44120568 234 88 12
0.1631814 0.013134036 -0.46087575 234 88 12
0.16188962 0.012272868 -0.4803863 234 88 12
0.16072246 0.014697721 -0.49984991 234 88 12
0.16164949 0.011853208 -0.51963452 234 88 12
0.16166228 0.0088263219 -0.54153742 234 88 12
0.16049405 0.011602065 -0.56021452 234 88 12
0.16102247 0.012711714 -0.58022745 234 88 12
0.16268257 0.0091774857 -0.60041421 234 88 12
0.16132749 0.0066761036 -0.62322574 234 88 12
0.16338688 0.0032680626 -0.64186145 234 88 12
0.1631479 0.0047472705 -0.66275542 234 88 12
0.16517243 0.0010193076 -0.68195461 234 88 12
