ply
format ascii 1.0
element vertex 290
property float x
property float y
property float z
property uchar red
property uchar green
property uchar blue
end_header
1.6489528 -1.4635301 -0.45014659 234 88 12
1.6535336 -1.4574418 -0.45014659 234 88 12
1.6546787 -1.4559197 -0.45014659 234 88 12
1.6530684 -1.4570919 -0.45196024 234 88 12
1.6475576 -1.4624803 -0.45558757 234 88 12
1.6521384 -1.456392 -0.45558757 234 88 12
1.6532835 -1.45487 -0.45558757 234 88 12
1.6553239 -1.449254 -0.46102858 234 88 12
1.6468425 -1.4595586 -0.46284223 234 88 12
1.6491328 -1.4565145 -0.46284223 234 88 12
1.6537136 -1.4504262 -0.46284223 234 88 12
1.6548587 -1.4489042 -0.46284223 234 88 12
1.6523184 -1.4493765 -0.46828324 234 88 12
1.6449822 -1.4581589 -0.47009689 234 88 12
1.6456623 -1.4562869 -0.47191057 234 88 12
1.6513882 -1.4486766 -0.47191057 234 88 12
1.6451972 -1.455937 -0.47372422 234 88 12
1.8926027 1.0903339 -0.5203166 234 88 12
1.8890996 1.0970999 -0.5203166 234 88 12
1.8882239 1.0987915 -0.5203166 234 88 12
1.8847209 1.1055574 -0.5203166 234 88 12
1.8879633 1.0965116 -0.52390474 234 88 12
1.8800815 1.1117351 -0.52390474 234 88 12
1.8900224 1.0911429 -0.52569884 234 88 12
1.8873951 1.0962174 -0.52569884 234 88 12
1.8865193 1.097909 -0.52569884 234 88 12
1.8821406 1.1063664 -0.52569884 234 88 12
1.8803891 1.1097494 -0.52569884 234 88 12
1.8868738 1.0916578 -0.53287524 234 88 12
1.8833709 1.0984237 -0.53287524 234 88 12
1.8798679 1.1051898 -0.53287524 234 88 12
1.8801755 1.1032041 -0.53466928 234 88 12
1.874921 1.1133531 -0.53466928 234 88 12
1.8869208 1.0873922 -0.53825748 234 88 12
1.8723407 1.1141621 -0.54005158 234 88 12
1.887536 1.0834209 -0.54184568 234 88 12
1.884033 1.090187 -0.54184568 234 88 12
1.88053 1.0969529 -0.54184568 234 88 12
1.8796543 1.0986444 -0.54184568 234 88 12
1.8761512 1.1054105 -0.54184568 234 88 12
1.8717724 1.1138679 -0.54184568 234 88 12
1.8799618 1.0966587 -0.54363972 234 88 12
1.87208 1.1118822 -0.54363972 234 88 12
1.8881512 1.0794495 -0.54543382 234 88 12
1.8884587 1.0774639 -0.54722792 234 88 12
1.8878906 1.0771698 -0.54902202 234 88 12
1.8852633 1.0822443 -0.54902202 234 88 12
1.8747543 1.1025423 -0.54902202 234 88 12
1.8730028 1.1059253 -0.54902202 234 88 12
1.8721269 1.1076168 -0.54902202 234 88 12
1.8694997 1.1126913 -0.54902202 234 88 12
1.8645527 1.1208546 -0.55081612 234 88 12
1.8642921 1.1185747 -0.55440426 234 88 12
1.8675346 1.1095289 -0.55799246 234 88 12
1.8657831 1.1129119 -0.55799246 234 88 12
1.8640316 1.116295 -0.55799246 234 88 12
1.8614043 1.1213695 -0.55799246 234 88 12
1.8646467 1.1123236 -0.56158066 234 88 12
1.8626347 1.1134268 -0.5651688 234 88 12
1.8582559 1.1218842 -0.5651688 234 88 12
1.8568119 1.1232816 -0.5669629 234 88 12
1.041038 -1.2681639 -1.5258243 234 88 12
1.0373802 -1.2699075 -1.5271361 234 88 12
1.0427287 -1.2644812 -1.5271361 234 88 12
1.0350595 -1.2702944 -1.5284477 234 88 12
1.0363965 -1.2689379 -1.5284477 234 88 12
1.0340757 -1.2693249 -1.5297594 234 88 12
1.0420985 -1.2611856 -1.5297594 234 88 12
1.0330921 -1.2683554 -1.5310711 234 88 12
1.0411148 -1.260216 -1.5310711 234 88 12
1.0341525 -1.2613771 -1.5350062 234 88 12
1.0278205 -1.2658337 -1.5363178 234 88 12
1.0331689 -1.2604074 -1.5363178 234 88 12
1.034506 -1.259051 -1.5363178 234 88 12
1.0258532 -1.2638946 -1.5389413 234 88 12
1.0342293 -1.2534292 -1.5402529 234 88 12
1.025223 -1.2605989 -1.5415646 234 88 12
1.0309249 -1.2528466 -1.5428764 234 88 12
1.0192443 -1.2627295 -1.544188 234 88 12
1.0205815 -1.2613729 -1.544188 234 88 12
1.027267 -1.2545902 -1.544188 234 88 12
1.0286041 -1.2532337 -1.544188 234 88 12
1.0182607 -1.26176 -1.5454997 234 88 12
1.017277 -1.2607905 -1.5468113 234 88 12
1.0252998 -1.2526511 -1.5468113 234 88 12
0.9989109 -1.277456 -1.5481231 234 88 12
1.000248 -1.2760996 -1.5481231 234 88 12
1.0029222 -1.2733864 -1.5481231 234 88 12
1.00595 -1.2683471 -1.5494348 234 88 12
0.99462283 -1.2759039 -1.5520581 234 88 12
0.99595994 -1.2745475 -1.5520581 234 88 12
1.0013084 -1.2691212 -1.5520581 234 88 12
1.0039827 -1.2664081 -1.5520581 234 88 12
1.0093311 -1.2609819 -1.5520581 234 88 12
1.0120053 -1.2582687 -1.5520581 234 88 12
1.0173538 -1.2528425 -1.5520581 234 88 12
1.0186909 -1.2514859 -1.5520581 234 88 12
1.0253764 -1.2447032 -1.5520581 234 88 12
1.0013852 -1.2611734 -1.5573049 234 88 12
1.0094079 -1.253034 -1.5573049 234 88 12
1.0174305 -1.2448946 -1.5573049 234 88 12
1.0047663 -1.253808 -1.5599283 234 88 12
1.0061035 -1.2524514 -1.5599283 234 88 12
1.011452 -1.2470253 -1.5599283 234 88 12
1.012789 -1.2456686 -1.5599283 234 88 12
1.002799 -1.251869 -1.5625516 234 88 12
1.0094846 -1.2450862 -1.5625516 234 88 12
1.0128658 -1.2377208 -1.5651751 234 88 12
1.0002016 -1.2466341 -1.5677984 234 88 12
1.0015388 -1.2452776 -1.5677984 234 88 12
1.004213 -1.2425644 -1.5677984 234 88 12
1.0095614 -1.2371383 -1.5677984 234 88 12
1.0016155 -1.2373297 -1.5730451 234 88 12
0.99394625 -1.243143 -1.5743569 234 88 12
0.9929626 -1.2421734 -1.5756686 234 88 12
0.99563682 -1.2394603 -1.5756686 234 88 12
0.99831104 -1.2367471 -1.5756686 234 88 12
0.99366951 -1.2375212 -1.5782919 234 88 12
0.99937147 -1.2297689 -1.5796037 234 88 12
0.98839784 -1.2349995 -1.5835387 234 88 12
0.99374628 -1.2295734 -1.5835387 234 88 12
0.99508339 -1.2282168 -1.5835387 234 88 12
2.0024931 -0.31354916 -0.94908017 234 88 12
2.0018039 -0.31153679 -0.95073289 234 88 12
1.9997362 -0.30549967 -0.9556911 234 88 12
1.9970511 -0.31859413 -0.95734382 234 88 12
1.9977995 -0.31292906 -0.95734382 234 88 12
1.998049 -0.3110407 -0.95734382 234 88 12
1.9987974 -0.30537564 -0.95734382 234 88 12
1.9978586 -0.30525163 -0.95899653 234 88 12
1.9937952 -0.31432134 -0.96395475 234 88 12
1.9940445 -0.31243297 -0.96395475 234 88 12
1.9950424 -0.30487958 -0.96395475 234 88 12
1.9893509 -0.31181288 -0.97221839 234 88 12
1.9900993 -0.30614784 -0.97221839 234 88 12
1.9903488 -0.30425948 -0.97221839 234 88 12
1.9894102 -0.30413544 -0.97387117 234 88 12
1.9904081 -0.29658204 -0.97387117 234 88 12
1.9894693 -0.29645804 -0.97552389 234 88 12
1.9849068 -0.30930445 -0.98048204 234 88 12
1.9854057 -0.30552775 -0.98048204 234 88 12
1.9866531 -0.29608595 -0.98048204 234 88 12
1.9857736 -0.28828451 -0.98378754 234 88 12
1.9813421 -0.31459746 -0.98544025 234 88 12
1.9815916 -0.31270909 -0.98544025 234 88 12
1.9816508 -0.30503166 -0.98709297 234 88 12
1.9782172 -0.32379118 -0.98874575 234 88 12
1.9787163 -0.32001448 -0.98874575 234 88 12
1.9797142 -0.31246105 -0.98874575 234 88 12
1.9807121 -0.30490765 -0.98874575 234 88 12
1.98171 -0.29735422 -0.98874575 234 88 12
1.9824584 -0.29168916 -0.98874575 234 88 12
1.9827079 -0.28980082 -0.98874575 234 88 12
1.9817691 -0.28967679 -0.99039847 234 88 12
1.9742129 -0.32518345 -0.99535668 234 88 12
1.9744624 -0.32329512 -0.99535668 234 88 12
1.9749613 -0.31951839 -0.99535668 234 88 12
1.9759592 -0.31196499 -0.99535668 234 88 12
1.9769571 -0.30441156 -0.99535668 234 88 12
1.977955 -0.29685816 -0.99535668 234 88 12
1.9789529 -0.28930473 -0.99535668 234 88 12
1.9740226 -0.31939438 -0.9970094 234 88 12
1.9739506 -0.29825044 -1.0019675 234 88 12
1.9742001 -0.29636207 -1.0019675 234 88 12
1.9732614 -0.29623806 -1.0036203 234 88 12
1.9742593 -0.28868464 -1.0036203 234 88 12
1.9745088 -0.2867963 -1.0036203 234 88 12
1.9715023 -0.28063515 -1.0102313 234 88 12
1.9688172 -0.2937296 -1.011884 234 88 12
1.9695656 -0.28806454 -1.011884 234 88 12
1.9705635 -0.28051114 -1.011884 234 88 12
1.9662505 -0.29146922 -1.0168421 234 88 12
1.9664999 -0.28958085 -1.0168421 234 88 12
1.9665592 -0.28190342 -1.0184948 234 88 12
1.9646225 -0.28933281 -1.0201477 234 88 12
1.9656204 -0.28177941 -1.0201477 234 88 12
1.1204915 1.3157877 -1.4220394 234 88 12
1.1191446 1.3171345 -1.4220394 234 88 12
1.1195748 1.314871 -1.4234351 234 88 12
1.1114936 1.3229523 -1.4234351 234 88 12
1.1190884 1.3116909 -1.4262263 234 88 12
1.113701 1.3170784 -1.4262263 234 88 12
1.1123542 1.3184252 -1.4262263 234 88 12
1.1056198 1.3251595 -1.4262263 234 88 12
1.1047032 1.3242429 -1.4276218 234 88 12
1.1118678 1.3152452 -1.4290175 234 88 12
1.1037865 1.3233263 -1.4290175 234 88 12
1.0965658 1.3268806 -1.4318087 234 88 12
1.0911783 1.3322681 -1.4318087 234 88 12
1.0889149 1.3326983 -1.4332043 234 88 12
1.1055075 1.3142724 -1.4346 234 88 12
1.1041607 1.3156192 -1.4346 234 88 12
1.1028138 1.3169662 -1.4346 234 88 12
1.0960795 1.3237004 -1.4346 234 88 12
1.0947325 1.3250474 -1.4346 234 88 12
1.0879983 1.3317817 -1.4346 234 88 12
1.0866513 1.3331286 -1.4346 234 88 12
1.0812078 1.3330724 -1.4387867 234 88 12
1.0964535 1.3159934 -1.4401824 234 88 12
1.0883723 1.3240746 -1.4401824 234 88 12
1.0807214 1.3298924 -1.441578 234 88 12
1.0919266 1.3168539 -1.4429736 234 88 12
1.087886 1.3208945 -1.4429736 234 88 12
1.0838454 1.3249351 -1.4429736 234 88 12
1.0811516 1.3276289 -1.4429736 234 88 12
1.0757642 1.3330163 -1.4429736 234 88 12
1.0730704 1.33571 -1.4429736 234 88 12
1.09101 1.3159373 -1.4443692 234 88 12
1.0645028 1.3406112 -1.4457649 234 88 12
1.0878298 1.3154509 -1.4471605 234 88 12
1.0810955 1.3221853 -1.4471605 234 88 12
1.0730143 1.3302665 -1.4471605 234 88 12
1.0649331 1.3383477 -1.4471605 234 88 12
1.0900372 1.3095771 -1.4499516 234 88 12
1.0886904 1.3109239 -1.4499516 234 88 12
1.0833029 1.3163114 -1.4499516 234 88 12
1.0806091 1.3190051 -1.4499516 234 88 12
1.0752217 1.3243927 -1.4499516 234 88 12
1.0725279 1.3270863 -1.4499516 234 88 12
1.0671405 1.3324739 -1.4499516 234 88 12
1.0644467 1.3351675 -1.4499516 234 88 12
1.0590593 1.3405551 -1.4499516 234 88 12
1.0577123 1.3419019 -1.4499516 234 88 12
1.0895509 1.306397 -1.4527429 234 88 12
1.088204 1.3077438 -1.4527429 234 88 12
1.0653071 1.3306406 -1.4527429 234 88 12
1.0572259 1.3387219 -1.4527429 234 88 12
1.0809833 1.311298 -1.4555341 234 88 12
1.0490886 1.3413595 -1.4569298 234 88 12
1.0872313 1.3013836 -1.4583254 234 88 12
1.0804969 1.308118 -1.4583254 234 88 12
1.0562532 1.3323616 -1.4583254 234 88 12
1.0495189 1.339096 -1.4583254 234 88 12
1.048172 1.3404428 -1.4583254 234 88 12
1.0863147 1.300467 -1.459721 234 88 12
-0.24285714 -0.0066666668 -2.23 234 88 12
-0.23904762 -0.0085714282 -2.23 234 88 12
-0.22952381 -0.012380952 -2.23 234 88 12
-0.22571428 -0.014285714 -2.23 234 88 12
-0.22571428 -0.016190477 -2.23 234 88 12
-0.22761905 -0.016190477 -2.23 234 88 12
-0.23523809 -0.016190477 -2.23 234 88 12
-0.22380953 -0.023809524 -2.23 234 88 12
-0.22761905 -0.023809524 -2.23 234 88 12
-0.23523809 -0.023809524 -2.23 234 88 12
1.205785 -0.081977144 -1.8743358 234 88 12
1.2059506 -0.078171209 -1.8743358 234 88 12
1.1998855 -0.070281267 -1.8784665 234 88 12
1.1977073 -0.08353249 -1.8794992 234 88 12
1.1979555 -0.077823602 -1.8794992 234 88 12
1.1982864 -0.070211746 -1.8794992 234 88 12
1.196191 -0.081560008 -1.8805319 234 88 12
1.1963564 -0.07775408 -1.8805319 234 88 12
1.1966875 -0.070142217 -1.8805319 234 88 12
1.1898776 -0.079378948 -1.8846625 234 88 12
1.1899604 -0.077475987 -1.8846625 234 88 12
1.1902913 -0.069864132 -1.8846625 234 88 12
1.1858252 -0.062043708 -1.8877606 234 88 12
1.1835643 -0.077197894 -1.8887932 234 88 12
1.1838952 -0.069586039 -1.8887932 234 88 12
1.1842262 -0.061974183 -1.8887932 234 88 12
1.1819652 -0.077128373 -1.8898259 234 88 12
1.1822963 -0.069516517 -1.8898259 234 88 12
1.1826272 -0.061904661 -1.8898259 234 88 12
1.1770028 -0.080725737 -1.892924 234 88 12
1.1752383 -0.084462143 -1.8939567 234 88 12
1.173391 -0.09010151 -1.8949894 234 88 12
1.1739702 -0.076780759 -1.8949894 234 88 12
1.1743011 -0.069168903 -1.8949894 234 88 12
1.1746321 -0.061557047 -1.8949894 234 88 12
1.1700275 -0.093768395 -1.8970547 234 88 12
1.1703584 -0.08615654 -1.8970547 234 88 12
1.1707722 -0.076641716 -1.8970547 234 88 12
1.1711031 -0.06902986 -1.8970547 234 88 12
1.171434 -0.061418004 -1.8970547 234 88 12
1.1669122 -0.091726385 -1.8991201 234 88 12
1.1671604 -0.086017489 -1.8991201 234 88 12
1.1685669 -0.053667102 -1.8991201 234 88 12
1.166306 -0.068821289 -1.9001527 234 88 12
1.1666371 -0.061209437 -1.9001527 234 88 12
1.166968 -0.053597581 -1.9001527 234 88 12
1.1601582 -0.062834308 -1.9042834 234 88 12
1.1602409 -0.060931347 -1.9042834 234 88 12
1.1605719 -0.053319488 -1.9042834 234 88 12
1.1585592 -0.062764786 -1.9053161 234 88 12
1.1586419 -0.060861822 -1.9053161 234 88 12
1.1589729 -0.053249966 -1.9053161 234 88 12
1.1507295 -0.058611248 -1.9104795 234 88 12
1.150895 -0.05480532 -1.9104795 234 88 12
1.147697 -0.054666273 -1.9125448 234 88 12
