ply
format ascii 1.0
element vertex 1773
property float x
property float y
property float z
property uchar red
property uchar green
property uchar blue
end_header
-0.00020215772 0.00028818229 2.727742 234 88 12
-0.0010408958 0.0018848655 2.7152305 234 88 12
4.3012283e-06 0.00028818229 2.727742 234 88 12
-0.0030130961 0.0036953064 2.7001534 234 88 12
2.8132321e-05 0.0017723362 2.7152305 234 88 12
5.6850866e-05 0.0031267977 2.7001534 234 88 12
0.11702368 0.0984485 1.7548026 234 88 12
0.12445376 0.094733462 1.7548026 234 88 12
0.13188383 0.087303385 1.7548026 234 88 12
0.01625956 0.02666568 2.3885493 234 88 12
0.017560326 0.02666568 2.3885493 234 88 12
-0.031810783 0.016541606 2.5073245 234 88 12
0.0097557362 0.025364915 2.3885493 234 88 12
0.017560326 0.025364915 2.3885493 234 88 12
0.02666568 0.025364915 2.3885493 234 88 12
0.005853442 0.02406415 2.3885493 234 88 12
0.10457063 0.070347518 1.7318258 234 88 12
-0.011246474 0.0051120338 2.6533196 234 88 12
-0.025872769 0.014845031 2.5073245 234 88 12
0.035771035 0.022763385 2.3885493 234 88 12
0.11217576 0.066544943 1.7318258 234 88 12
0.11597834 0.066544943 1.7318258 234 88 12
-0.03520393 0.013996744 2.5073245 234 88 12
0.0080587314 0.013996744 2.5073245 234 88 12
0.01602591 0.025183573 2.3293521 234 88 12
0.017552188 0.025183573 2.3293521 234 88 12
0.026709851 0.025183573 2.3293521 234 88 12
0.035867512 0.025183573 2.3293521 234 88 12
0.12358347 0.062742375 1.7318258 234 88 12
-0.0032519123 0.020161856 2.3885493 234 88 12
0.12738603 0.058939811 1.7318258 234 88 12
0.13499117 0.058939811 1.7318258 234 88 12
-0.0086174281 0.0042356849 2.6533196 234 88 12
3.9927028e-05 0.0011578839 2.7090383 234 88 12
0.0083945245 0.022131018 2.3293521 234 88 12
0.045025177 0.022131018 2.3293521 234 88 12
-0.012357267 0.017560326 2.3885493 234 88 12
-0.00043919732 0.0010780299 2.7090383 234 88 12
-0.0021207188 0.011451881 2.5073245 234 88 12
0.044876389 0.017560326 2.3885493 234 88 12
0.13879375 0.051334672 1.7318258 234 88 12
0.14259632 0.051334672 1.7318258 234 88 12
-0.017389894 0.010603594 2.5073245 234 88 12
0.052656561 0.019078465 2.3293521 234 88 12
0.046177153 0.01625956 2.3885493 234 88 12
0.14639889 0.043729536 1.7318258 234 88 12
-0.03739379 0.01602591 2.3293521 234 88 12
-0.00076313858 0.01602591 2.3293521 234 88 12
0.00076313858 0.01602591 2.3293521 234 88 12
0.009920802 0.01602591 2.3293521 234 88 12
0.017552188 0.01602591 2.3293521 234 88 12
0.026709851 0.01602591 2.3293521 234 88 12
0.035867512 0.01602591 2.3293521 234 88 12
0.045025177 0.01602591 2.3293521 234 88 12
0.052656561 0.01602591 2.3293521 234 88 12
-0.038597081 0.0080587314 2.5073245 234 88 12
-0.032814961 0.014499634 2.3293521 234 88 12
-0.017389894 0.0080587314 2.5073245 234 88 12
-0.0080587314 0.0080587314 2.5073245 234 88 12
0.015832655 0.0058984403 2.5670168 234 88 12
0.017695321 0.0058984403 2.5670168 234 88 12
-0.023657296 0.012973356 2.3293521 234 88 12
-0.01602591 0.012973356 2.3293521 234 88 12
0.052680977 0.011056501 2.3885493 234 88 12
-0.0027023563 0.0010955499 2.6916556 234 88 12
-0.028077932 0.0093593104 2.3520279 234 88 12
-0.025198143 0.0093593104 2.3520279 234 88 12
0.061814226 0.009920802 2.3293521 234 88 12
0.053981744 0.0084549719 2.3885493 234 88 12
-0.032397613 0.0079194168 2.3520279 234 88 12
-0.025198143 0.0079194168 2.3520279 234 88 12
-0.016558779 0.0079194168 2.3520279 234 88 12
-0.011447079 0.0083945245 2.3293521 234 88 12
-0.0083945245 0.0083945245 2.3293521 234 88 12
0.00076313858 0.0083945245 2.3293521 234 88 12
0.009920802 0.0083945245 2.3293521 234 88 12
0.017552188 0.0083945245 2.3293521 234 88 12
0.026709851 0.0083945245 2.3293521 234 88 12
0.058761671 0.0083945245 2.3293521 234 88 12
0.061814226 0.0083945245 2.3293521 234 88 12
-0.0352774 0.0064795227 2.3520279 234 88 12
-0.020801174 0.0094550792 1.7372167 234 88 12
-0.0053806729 0.0012416937 2.5127037 234 88 12
-0.017019143 0.0056730476 1.7372167 234 88 12
-0.0009313327 0.0009313327 2.5670168 234 88 12
-0.043916766 0.00071994698 2.3520279 234 88 12
-0.01387552 -0.0001460581 2.6533196 234 88 12
-0.0047473828 -7.3036659e-05 2.6916556 234 88 12
-0.045356657 -0.00071994698 2.3520279 234 88 12
-0.04247687 -0.00071994698 2.3520279 234 88 12
-0.033837508 -0.00071994698 2.3520279 234 88 12
-0.025198143 -0.00071994698 2.3520279 234 88 12
-0.016558779 -0.00071994698 2.3520279 234 88 12
-0.004552877 -0.00041389791 2.5127037 234 88 12
-0.01323711 -0.0018910158 1.7372167 234 88 12
-0.0056730476 -0.0018910158 1.7372167 234 88 12
0.0018910158 -0.0018910158 1.7372167 234 88 12
0.0015522211 -0.00031044424 2.5670168 234 88 12
0.0053419699 -0.00076313858 2.3293521 234 88 12
0.009920802 -0.00076313858 2.3293521 234 88 12
0.017552188 -0.00076313858 2.3293521 234 88 12
0.009002883 -0.00031044424 2.5670168 234 88 12
0.017695321 -0.00031044424 2.5670168 234 88 12
0.064866781 -0.00076313858 2.3293521 234 88 12
0.059184801 -0.00065038243 2.3885493 234 88 12
0.0094550792 -0.0056730476 1.7372167 234 88 12
0.020801174 -0.0056730476 1.7372167 234 88 12
0.028365238 -0.0056730476 1.7372167 234 88 12
0.0026163058 -8.4396961e-05 2.7152305 234 88 12
-0.0027288352 -0.00014066161 2.7152305 234 88 12
-0.0094550792 -0.0094550792 1.7372167 234 88 12
-0.0056730476 -0.0094550792 1.7372167 234 88 12
0.0018910158 -0.0094550792 1.7372167 234 88 12
0.0094550792 -0.0094550792 1.7372167 234 88 12
0.020801174 -0.0094550792 1.7372167 234 88 12
0.028365238 -0.0094550792 1.7372167 234 88 12
0.0359293 -0.0094550792 1.7372167 234 88 12
0.047275394 -0.0094550792 1.7372167 234 88 12
0.02638776 -0.0015522211 2.5670168 234 88 12
0.054839458 -0.01323711 1.7372167 234 88 12
7.3036659e-05 -0.00065732992 2.6916556 234 88 12
0.062403522 -0.017019143 1.7372167 234 88 12
0.00041389791 -0.004552877 2.5127037 234 88 12
0.028365238 -0.020801174 1.7372167 234 88 12
0.0359293 -0.020801174 1.7372167 234 88 12
0.047275394 -0.020801174 1.7372167 234 88 12
0.054839458 -0.020801174 1.7372167 234 88 12
0.062403522 -0.020801174 1.7372167 234 88 12
0.061786331 -0.0071542067 2.3885493 234 88 12
-0.052556127 -0.0093593104 2.3520279 234 88 12
-0.04247687 -0.0093593104 2.3520279 234 88 12
-0.033837508 -0.0093593104 2.3520279 234 88 12
-0.025198143 -0.0093593104 2.3520279 234 88 12
-0.016558779 -0.0093593104 2.3520279 234 88 12
0.067919336 -0.009920802 2.3293521 234 88 12
0.070971891 -0.009920802 2.3293521 234 88 12
0.039711334 -0.028365238 1.7372167 234 88 12
0.047275394 -0.028365238 1.7372167 234 88 12
0.054839458 -0.028365238 1.7372167 234 88 12
0.062403522 -0.028365238 1.7372167 234 88 12
0.061786331 -0.0097557362 2.3885493 234 88 12
-0.053996023 -0.012239099 2.3520279 234 88 12
0.043493364 -0.0359293 1.7372167 234 88 12
0.047275394 -0.0359293 1.7372167 234 88 12
0.040293656 -0.0089070192 2.5073245 234 88 12
-0.0062084687 -0.0095196525 2.5127037 234 88 12
0.00041389791 -0.0095196525 2.5127037 234 88 12
0.06944561 -0.017552188 2.3293521 234 88 12
0.070971891 -0.017552188 2.3293521 234 88 12
-0.05687581 -0.017998675 2.3520279 234 88 12
-0.052556127 -0.017998675 2.3520279 234 88 12
-0.04247687 -0.017998675 2.3520279 234 88 12
-0.033837508 -0.017998675 2.3520279 234 88 12
-0.025198143 -0.017998675 2.3520279 234 88 12
-0.016558779 -0.017998675 2.3520279 234 88 12
0.0359293 -0.047275394 1.7372167 234 88 12
0.017552188 -0.020604743 2.3293521 234 88 12
0.063087098 -0.017560326 2.3885493 234 88 12
0.0052775522 -0.009002883 2.5670168 234 88 12
0.014499634 -0.022131018 2.3293521 234 88 12
0.026709851 -0.022131018 2.3293521 234 88 12
0.011486437 -0.009002883 2.5670168 234 88 12
0.017695321 -0.009002883 2.5670168 234 88 12
0.02638776 -0.009002883 2.5670168 234 88 12
-0.033525731 -0.013658632 2.5127037 234 88 12
-0.0095196525 -0.013658632 2.5127037 234 88 12
0.0083945245 -0.026709851 2.3293521 234 88 12
0.009920802 -0.026709851 2.3293521 234 88 12
0.017552188 -0.026709851 2.3293521 234 88 12
0.026709851 -0.026709851 2.3293521 234 88 12
0.067919336 -0.026709851 2.3293521 234 88 12
0.070971891 -0.026709851 2.3293521 234 88 12
-0.05687581 -0.026638038 2.3520279 234 88 12
-0.052556127 -0.026638038 2.3520279 234 88 12
-0.04247687 -0.026638038 2.3520279 234 88 12
-0.033837508 -0.026638038 2.3520279 234 88 12
-0.025198143 -0.026638038 2.3520279 234 88 12
0.0072104437 -0.015693318 2.5073245 234 88 12
0.0089070192 -0.016541606 2.5073245 234 88 12
0.063087098 -0.02666568 2.3885493 234 88 12
-0.033525731 -0.01779761 2.5127037 234 88 12
-0.013658632 -0.01779761 2.5127037 234 88 12
-0.0086918566 -0.01779761 2.5127037 234 88 12
0.0012724312 -0.018238181 2.5073245 234 88 12
0.0089070192 -0.018238181 2.5073245 234 88 12
0.040293656 -0.018238181 2.5073245 234 88 12
-0.00042414377 -0.019086469 2.5073245 234 88 12
0.00019963515 -0.0017967164 2.7090383 234 88 12
0.0084549719 -0.030567974 2.3885493 234 88 12
0.028236128 -0.035867512 2.3293521 234 88 12
0.035867512 -0.035867512 2.3293521 234 88 12
0.066393055 -0.035867512 2.3293521 234 88 12
-0.053996023 -0.0352774 2.3520279 234 88 12
-0.052556127 -0.0352774 2.3520279 234 88 12
-0.04247687 -0.0352774 2.3520279 234 88 12
-0.033837508 -0.0352774 2.3520279 234 88 12
0.011056501 -0.031868741 2.3885493 234 88 12
-0.018625407 -0.021108793 2.5127037 234 88 12
0.018238181 -0.02247962 2.5073245 234 88 12
0.01625956 -0.035771035 2.3885493 234 88 12
0.063087098 -0.035771035 2.3885493 234 88 12
-0.0089070192 -0.024176193 2.5073245 234 88 12
0.017560326 -0.037071798 2.3885493 234 88 12
0.045025177 -0.0434989 2.3293521 234 88 12
0.018937098 -0.017695321 2.5670168 234 88 12
0.058761671 -0.0434989 2.3293521 234 88 12
0.038920067 -0.045025177 2.3293521 234 88 12
0.045025177 -0.045025177 2.3293521 234 88 12
0.055709116 -0.045025177 2.3293521 234 88 12
0.061814226 -0.045025177 2.3293521 234 88 12
-0.014167636 -0.008909544 2.6533196 234 88 12
-0.0045278012 -0.0092016608 2.6533196 234 88 12
0.019086469 -0.026721057 2.5073245 234 88 12
0.033507358 -0.026721057 2.5073245 234 88 12
0.03520393 -0.026721057 2.5073245 234 88 12
-0.033525731 -0.026903365 2.5127037 234 88 12
-0.026075568 -0.026903365 2.5127037 234 88 12
-0.016969815 -0.026903365 2.5127037 234 88 12
0.02666568 -0.043575622 2.3885493 234 88 12
0.060485568 -0.043575622 2.3885493 234 88 12
0.027966445 -0.044876389 2.3885493 234 88 12
0.060485568 -0.044876389 2.3885493 234 88 12
0.035771035 -0.050079446 2.3885493 234 88 12
0.042274859 -0.052680977 2.3885493 234 88 12
0.044876389 -0.052680977 2.3885493 234 88 12
0.052680977 -0.052680977 2.3885493 234 88 12
-1.4180578 0.0551292 2.1393347 234 88 12
-1.4181927 0.052027687 2.1393347 234 88 12
-1.4192979 0.062640816 2.1383247 234 88 12
-1.4201339 0.043411441 2.1383247 234 88 12
-1.3560905 0.043987531 1.9672 234 88 12
-1.3561471 0.042687993 1.9672 234 88 12
-1.4711733 0.062805079 2.2738986 234 88 12
-1.357578 0.034938246 1.9664948 234 88 12
-1.3577094 0.057077855 1.9657896 234 88 12
-1.4216976 0.043479428 2.137315 234 88 12
-1.358632 0.061023943 1.9650844 234 88 12
-1.3590274 0.051927183 1.9650844 234 88 12
-1.3594229 0.042830423 1.9650844 234 88 12
-1.359762 0.0350332 1.9650844 234 88 12
-1.3600445 0.028535515 1.9650844 234 88 12
-1.4714369 0.061377805 2.2737687 234 88 12
-1.4216074 0.069577456 2.1366417 234 88 12
-1.3596109 0.063670494 1.9643792 234 88 12
-1.3600065 0.054573733 1.9643792 234 88 12
-1.3601195 0.051974662 1.9643792 234 88 12
-1.3605149 0.042877901 1.9643792 234 88 12
-1.3612494 0.025983917 1.9643792 234 88 12
-1.4220747 0.070840724 2.1363051 234 88 12
-1.3605334 0.067616582 1.9636739 234 88 12
-1.3615123 0.070263132 1.9629687 234 88 12
-1.3421257 0.049950834 1.9055854 234 88 12
-1.3423908 0.043851487 1.9055854 234 88 12
-1.3424572 0.042326652 1.9055854 234 88 12
-1.4779204 0.064356431 2.2917647 234 88 12
-1.3430754 0.057630725 1.9047579 234 88 12
-1.3433406 0.051531378 1.9047579 234 88 12
-1.34407 0.034758177 1.9047579 234 88 12
-1.3441578 0.062260944 1.9039304 234 88 12
-1.3442241 0.060736105 1.9039304 234 88 12
-1.3446219 0.051587086 1.9039304 234 88 12
-1.3450197 0.042438067 1.9039304 234 88 12
-1.3453512 0.034813885 1.9039304 234 88 12
-1.345749 0.025664864 1.9039304 234 88 12
-1.3660128 0.017077066 1.9615583 234 88 12
-1.15064 0.14485079 1.3425961 234 88 12
-1.3474281 0.016571553 1.903103 234 88 12
-1.1534361 0.15240945 1.340582 234 88 12
-1.3654847 0.079549804 1.9601479 234 88 12
-1.3463227 0.071521379 1.9022754 234 88 12
-1.4248514 0.079040624 2.1342854 234 88 12
-1.3692323 0.018519035 1.9594426 234 88 12
-1.3692888 0.017219497 1.9594426 234 88 12
-1.3484874 0.080781817 1.9006205 234 88 12
-1.4076879 0.042099319 2.0753458 234 88 12
-1.3513381 0.015213841 1.9006205 234 88 12
-1.1623081 0.16395083 1.3345395 234 88 12
-1.3512936 0.045766279 1.899793 234 88 12
-1.3514261 0.042716607 1.899793 234 88 12
-1.3517576 0.035092425 1.899793 234 88 12
-1.4082894 0.044672742 2.0748858 234 88 12
-1.3695136 0.087536931 1.957327 234 88 12
-1.3512489 0.076318718 1.8989656 234 88 12
-1.3515804 0.068694539 1.8989656 234 88 12
-1.3519119 0.061070357 1.8989656 234 88 12
-1.3705491 0.088883951 1.9566218 234 88 12
-1.3706056 0.087584414 1.9566218 234 88 12
-1.3519335 0.090097956 1.898138 234 88 12
-1.352066 0.087048285 1.898138 234 88 12
-1.3736566 0.017409405 1.9566218 234 88 12
-1.4740686 0.065131821 2.2793362 234 88 12
-1.4283382 0.082921073 2.1319292 234 88 12
-1.3769325 0.017551836 1.9545062 234 88 12
-1.43028 0.038259298 2.1319292 234 88 12
-1.3567934 0.096420139 1.8948282 234 88 12
-1.3579868 0.068973079 1.8948282 234 88 12
-1.3583183 0.061348896 1.8948282 234 88 12
-1.3587161 0.052199874 1.8948282 234 88 12
-1.4126728 0.042316053 2.0721264 234 88 12
-1.3604398 0.012554124 1.8948282 234 88 12
-1.3780246 0.017599313 1.9538009 234 88 12
-1.3780811 0.016299777 1.9538009 234 88 12
-1.3580084 0.098000683 1.8940006 234 88 12
-1.3600637 0.050730746 1.8940006 234 88 12
-1.412869 0.054211833 2.0716665 234 88 12
-1.4129428 0.052516859 2.0716665 234 88 12
-1.4131021 0.065260127 2.0712066 234 88 12
-1.3607483 0.064509988 1.8931732 234 88 12
-1.3609471 0.059935477 1.8931732 234 88 12
-1.3778539 0.097013511 1.9516852 234 88 12
-1.3604385 0.10116177 1.8923457 234 88 12
-1.4146001 0.063627072 2.0702868 234 88 12
-1.4147106 0.061084613 2.0702868 234 88 12
-1.4150791 0.052609745 2.0702868 234 88 12
-1.4154844 0.043287389 2.0702868 234 88 12
-1.4314116 0.08429765 2.1299093 234 88 12
-1.3692762 0.015993753 1.8890358 234 88 12
-1.3704911 0.017574299 1.8882083 234 88 12
-1.3865908 0.021877741 1.9481591 234 88 12
-1.3842362 0.10119698 1.947454 234 88 12
-1.3679272 0.10607053 1.8873808 234 88 12
-1.3876263 0.023224756 1.947454 234 88 12
-1.3692086 0.10612624 1.8865533 234 88 12
-1.3704236 0.10770679 1.8857259 234 88 12
-1.3742025 0.020791097 1.8857259 234 88 12
-1.3874556 0.10263895 1.9453382 234 88 12
-1.2226768 0.036124635 1.2782797 234 88 12
-1.222841 0.032346174 1.2782797 234 88 12
-1.2231696 0.024789251 1.2782797 234 88 12
-1.4214882 0.052888401 2.0661476 234 88 12
-1.4215251 0.052040916 2.0661476 234 88 12
-1.4218935 0.043566044 2.0661476 234 88 12
-1.4733704 0.061701667 2.2725132 234 88 12
-1.37798 0.022483056 1.8832434 234 88 12
-1.2288624 0.040179182 1.2741787 234 88 12
-1.2291909 0.032622259 1.2741787 234 88 12
-1.2295195 0.025065335 1.2741787 234 88 12
-1.229848 0.01750841 1.2741787 234 88 12
-1.3940086 0.027408229 1.9432226 234 88 12
-1.3107709 0.050551314 1.5987688 234 88 12
-1.2320373 0.040317222 1.2721282 234 88 12
-1.2323658 0.0327603 1.2721282 234 88 12
-1.2326944 0.025203375 1.2721282 234 88 12
-1.2331873 0.013867989 1.2721282 234 88 12
-1.3951006 0.027455706 1.9425174 234 88 12
-1.3951571 0.026156168 1.9425174 234 88 12
-1.4388981 0.044227272 2.1262066 234 88 12
-1.378045 0.10956587 1.880761 234 88 12
-1.2350479 0.044233728 1.2700778 234 88 12
-1.4393923 0.044870239 2.12587 234 88 12
-1.3206946 0.053693142 1.6203465 234 88 12
-1.238223 0.044371769 1.2680273 234 88 12
-1.2383872 0.040593307 1.2680273 234 88 12
-1.2387158 0.033036381 1.2680273 234 88 12
-1.2398658 0.0065871486 1.2680273 234 88 12
-1.3929054 0.062608249 1.9233558 234 88 12
-1.4625921 0.063719094 2.2243676 234 88 12
-1.3171393 0.05340369 1.5945839 234 88 12
-1.3903316 0.085105792 1.9105952 234 88 12
-1.466749 0.064444609 2.2416453 234 88 12
-1.3140807 0.055804968 1.5707521 234 88 12
-1.3971703 0.10566532 1.9389913 234 88 12
-1.3831038 0.11131354 1.8774511 234 88 12
-1.4120959 0.068445742 1.9982446 234 88 12
-1.4694961 0.064715259 2.2531066 234 88 12
-1.3706944 0.060478654 1.8123547 234 88 12
-1.3626404 0.058295447 1.7760704 234 88 12
-1.2475835 0.048564356 1.261876 234 88 12
-1.247912 0.041007433 1.261876 234 88 12
-1.2482407 0.033450507 1.261876 234 88 12
-1.3868164 0.025922688 1.8774511 234 88 12
-1.4004475 0.030292166 1.9389913 234 88 12
-1.3962358 0.081675187 1.9243916 234 88 12
-1.3450541 0.090296291 1.6945618 234 88 12
-1.4543917 0.067435339 2.1846645 234 88 12
-1.4134198 0.068458848 1.9995257 234 88 12
-1.4161434 0.06725616 2.0116093 234 88 12
-1.4646496 0.064493611 2.2304885 234 88 12
-1.3847795 0.062542319 1.8688043 234 88 12
-1.3177154 0.058626823 1.5646636 234 88 12
-1.3480644 0.057527531 1.7017341 234 88 12
-1.3467991 0.092566349 1.6933733 234 88 12
-1.4217918 0.074614242 2.0344911 234 88 12
-1.4711341 0.065036155 2.2593796 234 88 12
-1.465445 0.064935662 2.2332101 234 88 12
-1.3754073 0.062404007 1.8188437 234 88 12
-1.2837081 0.057453051 1.3963563 234 88 12
-1.4289411 0.045570638 2.0615485 234 88 12
-1.2700143 0.1271299 1.3318883 234 88 12
-1.3053299 0.10786434 1.4929537 234 88 12
-1.3054566 0.10494924 1.4929537 234 88 12
-1.3329136 0.09364178 1.6189231 234 88 12
-1.4526349 0.068664961 2.1731327 234 88 12
-1.4767938 0.064417675 2.2851293 234 88 12
-1.3435667 0.061871015 1.6622362 234 88 12
-1.2746961 0.057161555 1.3395485 234 88 12
-1.2571084 0.048978481 1.2557247 234 88 12
-1.257437 0.041421555 1.2557247 234 88 12
-1.4303343 0.057631273 2.066714 234 88 12
-1.4305861 0.051842172 2.066714 234 88 12
-1.4417552 0.0866118 2.1231771 234 88 12
-1.3881626 0.1130612 1.8741411 234 88 12
-1.2728041 0.13075909 1.3299882 234 88 12
-1.3077794 0.10797084 1.4913716 234 88 12
-1.3079062 0.10505573 1.4913716 234 88 12
-1.3348711 0.096188203 1.61759 234 88 12
-1.4026972 0.07857012 1.9360408 234 88 12
-1.4451747 0.065436006 2.1350429 234 88 12
-1.4622633 0.064569414 2.2160137 234 88 12
-1.2828074 0.057469282 1.362359 234 88 12
-1.3053968 0.055255681 1.4691733 234 88 12
-1.2602834 0.049116522 1.2536741 234 88 12
-1.2606119 0.041559599 1.2536741 234 88 12
-1.430439 0.04393759 2.0606287 234 88 12
-1.4304758 0.043090101 2.0606287 234 88 12
-1.4048718 0.029182537 1.9361705 234 88 12
-1.3917227 0.086895339 1.8788115 234 88 12
-1.2978697 0.10819381 1.4301416 234 88 12
-1.2803993 0.10563014 1.3452526 234 88 12
-1.3047701 0.097558022 1.4612255 234 88 12
-1.415251 0.074238136 1.9897541 234 88 12
-1.3077838 0.058360867 1.4675477 234 88 12
-1.2636226 0.045476101 1.2516237 234 88 12
-1.2637869 0.04169764 1.2516237 234 88 12
-1.2754197 0.12156063 1.3081216 234 88 12
-1.3275099 0.10163627 1.5596333 234 88 12
-1.2831396 0.10919483 1.3433863 234 88 12
-1.3958906 0.078969084 1.8905467 234 88 12
-1.395954 0.077509582 1.8905467 234 88 12
-1.4272041 0.0707101 2.0425344 234 88 12
-1.4406521 0.064329393 2.1072025 234 88 12
-1.2810893 0.060978569 1.3230262 234 88 12
-1.2726449 0.057168685 1.2807506 234 88 12
-1.2669176 0.13613409 1.2518914 234 88 12
-1.2784168 0.12169093 1.3061861 234 88 12
-1.2858347 0.1161705 1.3420355 234 88 12
-1.2910327 0.1114642 1.3669741 234 88 12
-1.2771193 0.10783866 1.2966986 234 88 12
-1.2772759 0.10423776 1.2966986 234 88 12
-1.3839213 0.081405483 1.8243679 234 88 12
-1.3840687 0.078014292 1.8243679 234 88 12
-1.3590243 0.070950665 1.6977525 234 88 12
-1.449339 0.065397143 2.1476126 234 88 12
-1.2945452 0.054617241 1.3721732 234 88 12
-1.4337254 0.043692879 2.0649188 234 88 12
-1.395918 0.02326297 1.8716587 234 88 12
-1.4743621 0.062064499 2.2718639 234 88 12
-1.4058496 0.10734467 1.9333496 234 88 12
-1.2771457 0.1302498 1.2844257 234 88 12
-1.273561 0.12776998 1.265663 234 88 12
-1.2962689 0.10769724 1.3766143 234 88 12
-1.3507575 0.087832265 1.6490986 234 88 12
-1.3508584 0.085508361 1.6490986 234 88 12
-1.3838812 0.076599531 1.8149292 234 88 12
-1.4463326 0.066729933 2.1300833 234 88 12
-1.4078033 0.06705115 1.9343747 234 88 12
-1.3313909 0.059239764 1.5443742 234 88 12
-1.2728189 0.05344715 1.2454724 234 88 12
-1.2729832 0.049668688 1.2454724 234 88 12
-1.2733117 0.042111766 1.2454724 234 88 12
-1.2800446 0.13402079 1.2824515 234 88 12
-1.3677431 0.10123356 1.7285662 234 88 12
-1.2845237 0.1183966 1.3021007 234 88 12
-1.2990468 0.10781801 1.3748204 234 88 12
-1.2912161 0.10629901 1.333987 234 88 12
-1.2913662 0.10284629 1.333987 234 88 12
-1.3527101 0.087917164 1.6478375 234 88 12
-1.3528112 0.085593261 1.6478375 234 88 12
-1.4007695 0.067425236 1.8917432 234 88 12
-1.408114 0.064509571 1.9290655 234 88 12
-1.299994 0.058188815 1.3685608 234 88 12
-1.2831016 0.13415371 1.2804772 234 88 12
-1.2918093 0.12761845 1.3248146 234 88 12
-1.2799498 0.12433504 1.261641 234 88 12
-1.2797883 0.11705197 1.2591242 234 88 12
-1.2866794 0.11167645 1.294165 234 88 12
-1.2942675 0.10297243 1.3321133 234 88 12
-1.2928342 0.099822417 1.3238484 234 88 12
-1.3840876 0.078855284 1.7993588 234 88 12
-1.4340385 0.069497578 2.0601323 234 88 12
-1.4122427 0.06830176 1.9451371 234 88 12
-1.2910429 0.057910994 1.3048288 234 88 12
-1.3970654 0.114976 1.8683487 234 88 12
-1.2826874 0.13190044 1.2593453 234 88 12
-1.2802273 0.12904903 1.2454973 234 88 12
-1.2827481 0.12090242 1.2571082 234 88 12
-1.2818046 0.1137914 1.2503947 234 88 12
-1.2959118 0.096467242 1.3219585 234 88 12
-1.3855795 0.078920148 1.7983953 234 88 12
-1.4178618 0.070383474 1.9694062 234 88 12
-1.4310666 0.068153709 2.0396504 234 88 12
-1.4291054 0.067366719 2.0289569 234 88 12
-1.4134037 0.06584318 1.9444577 234 88 12
-1.2823437 0.053861275 1.239321 234 88 12
-1.2825081 0.050082814 1.239321 234 88 12
-1.2964104 0.047564957 1.3132366 234 88 12
-1.2828367 0.042525891 1.239321 234 88 12
-1.2833836 0.12918627 1.2434589 234 88 12
-1.2986866 0.10007687 1.3200687 234 88 12
-1.415805 0.075585671 1.9534417 234 88 12
-1.4365729 0.071045682 2.0657072 234 88 12
-1.4354125 0.070398271 2.0592213 234 88 12
-1.4654264 0.065906681 2.2219589 234 88 12
-1.4213178 0.070171848 1.9822441 234 88 12
-1.3894442 0.069981031 1.8082457 234 88 12
-1.3193402 0.065149747 1.4245 234 88 12
-1.2851902 0.061556242 1.2372706 234 88 12
-1.2992101 0.051206969 1.3113298 234 88 12
-1.4137771 0.025663741 1.9305288 234 88 12
-1.3270686 0.12143762 1.4648334 234 88 12
-1.2873286 0.12167232 1.243955 234 88 12
-1.3003154 0.10740931 1.3127075 234 88 12
-1.323918 0.098694652 1.4418201 234 88 12
-1.3240502 0.095653512 1.4418201 234 88 12
-1.3654786 0.078393936 1.6679704 234 88 12
-1.4352 0.067998432 2.0530756 234 88 12
-1.4286259 0.067572087 2.0164237 234 88 12
-1.3910546 0.0665709 1.8073032 234 88 12
-1.2928884 0.065443657 1.2612734 234 88 12
-1.2883651 0.061694283 1.2352201 234 88 12
-1.2885294 0.057915822 1.2352201 234 88 12
-1.2982711 0.054649174 1.288589 234 88 12
-1.298427 0.051061179 1.288589 234 88 12
-1.2895367 0.13321573 1.2394025 234 88 12
-1.2903144 0.12555651 1.2419214 234 88 12
-1.2904773 0.12180923 1.2419214 234 88 12
-1.3162405 0.10433683 1.3835645 234 88 12
-1.3266056 0.095764622 1.4401698 234 88 12
-1.3684032 0.084927194 1.6742803 234 88 12
-1.384807 0.07625214 1.7650701 234 88 12
-1.4015449 0.07103537 1.8586038 234 88 12
-1.4016123 0.069484666 1.8586038 234 88 12
-1.4053245 0.066285975 1.8788447 234 88 12
-1.2915401 0.061832324 1.2331697 234 88 12
-1.3010694 0.058366239 1.2862988 234 88 12
-1.4378346 0.061271682 2.0617771 234 88 12
-1.4134369 0.10897655 1.928413 234 88 12
-1.3283638 0.12309232 1.4407492 234 88 12
-1.3284956 0.12005911 1.4407492 234 88 12
-1.2949106 0.12887481 1.2490436 234 88 12
-1.3113534 0.10636942 1.3383342 234 88 12
-1.3463194 0.094916418 1.5373509 234 88 12
-1.3702579 0.085007831 1.6730825 234 88 12
-1.4042022 0.075509697 1.866691 234 88 12
-1.3892066 0.075953841 1.7802188 234 88 12
-1.3646768 0.072190925 1.6376402 234 88 12
-1.3647783 0.069857672 1.6376402 234 88 12
-1.438997 0.05055071 2.0613284 234 88 12
-1.4393207 0.043107577 2.0613284 234 88 12
-1.3633562 0.086797208 1.6207751 234 88 12
-1.3814911 0.067174941 1.7225091 234 88 12
-1.4391166 0.063813157 2.0608797 234 88 12
-1.409918 0.062021408 1.8885339 234 88 12
-1.4099805 0.060582872 1.8885339 234 88 12
-1.4103558 0.051951665 1.8885339 234 88 12
-1.4395481 0.05388898 2.0608797 234 88 12
-1.4046868 0.11683509 1.8633839 234 88 12
-1.3333294 0.12634717 1.4374571 234 88 12
-1.4124852 0.091197267 1.9035114 234 88 12
-1.306839 0.13060467 1.2795277 234 88 12
-1.3073335 0.11981875 1.2796811 234 88 12
-1.3300036 0.10939685 1.4130657 234 88 12
-1.316915 0.11001496 1.3346469 234 88 12
-1.3459041 0.099064678 1.5058305 234 88 12
-1.3782662 0.088500947 1.6973665 234 88 12
-1.3783581 0.086388171 1.6973665 234 88 12
-1.3991872 0.073471956 1.8190471 234 88 12
-1.3579578 0.073141418 1.5714313 234 88 12
-1.4119399 0.043373011 1.8877532 234 88 12
-1.3097016 0.13432841 1.2775782 234 88 12
-1.3098577 0.1307359 1.2775782 234 88 12
-1.3338706 0.11825381 1.4213306 234 88 12
-1.3103517 0.11994998 1.2777318 234 88 12
-1.3326249 0.10951082 1.4113728 234 88 12
-1.3340447 0.10296456 1.4183253 234 88 12
-1.3852252 0.083333872 1.7265726 234 88 12
-1.4514492 0.069261059 2.1284397 234 88 12
-1.4505036 0.067626871 2.1222131 234 88 12
-1.3862646 0.073247969 1.7302523 234 88 12
-1.3863511 0.07125549 1.7302523 234 88 12
-1.4126482 0.054933842 1.8869727 234 88 12
-1.4127734 0.052056774 1.8869727 234 88 12
-1.4131486 0.043425564 1.8869727 234 88 12
-1.3472 0.11708571 1.4864252 234 88 12
-1.3398938 0.11409884 1.4399451 234 88 12
-1.3400247 0.11108601 1.4399451 234 88 12
-1.3732299 0.09762039 1.6438361 234 88 12
-1.3714674 0.095875435 1.6323451 234 88 12
-1.3964038 0.086759888 1.7857343 234 88 12
-1.3781868 0.089568332 1.6726313 234 88 12
-1.3868232 0.085412621 1.7254843 234 88 12
-1.4132315 0.069371745 1.886192 234 88 12
-1.4136068 0.060740538 1.886192 234 88 12
-1.413982 0.052109331 1.886192 234 88 12
-1.4143573 0.04347812 1.886192 234 88 12
-1.3422943 0.11722173 1.4383101 234 88 12
-1.3425564 0.11119609 1.4383101 234 88 12
-1.3422086 0.10833778 1.4352978 234 88 12
-1.3383267 0.10652184 1.410024 234 88 12
-1.338462 0.10340942 1.410024 234 88 12
-1.4103386 0.080355145 1.8622715 234 88 12
-1.4043713 0.076835886 1.8232173 234 88 12
-1.4079883 0.074658521 1.8456933 234 88 12
-1.4251212 0.069764964 1.9536605 234 88 12
-1.4159414 0.034899466 1.8854113 234 88 12
-1.3238592 0.12563951 1.3024004 234 88 12
-1.3240107 0.1221548 1.3024004 234 88 12
-1.383435 0.087183431 1.6797268 234 88 12
-1.4155866 0.070915394 1.8846307 234 88 12
-1.3574258 0.11336716 1.5008873 234 88 12
-1.3670669 0.096824199 1.5602814 234 88 12
-1.4445447 0.035048932 2.0581868 234 88 12
-1.4123082 0.11869417 1.8584191 234 88 12
-1.3597634 0.1134688 1.4993777 234 88 12
-1.3694942 0.10441809 1.5629051 234 88 12
-1.3691175 0.099491738 1.5588849 234 88 12
-1.4370397 0.073797032 2.0134027 234 88 12
-1.4343604 0.072334237 1.9947402 234 88 12
-1.4135895 0.11874988 1.8575915 234 88 12
-1.3622218 0.11078858 1.4978681 234 88 12
-1.3808599 0.098745875 1.6238724 234 88 12
-1.3809617 0.096404329 1.6238724 234 88 12
-1.400052 0.08640901 1.7536427 234 88 12
-1.3662271 0.11020924 1.508014 234 88 12
-1.3781332 0.1005228 1.5897268 234 88 12
-1.3783468 0.095610395 1.5897268 234 88 12
-1.4144608 0.076542459 1.8407736 234 88 12
-1.4740782 0.065057732 2.261389 234 88 12
-1.4214224 0.048109055 1.8815081 234 88 12
-1.42161 0.043793451 1.8815081 234 88 12
-1.4220477 0.033723708 1.8815081 234 88 12
-1.422423 0.025092497 1.8815081 234 88 12
-1.3687689 0.10482699 1.5065264 234 88 12
-1.3834563 0.097071201 1.6110018 234 88 12
-1.3923591 0.091881454 1.6741749 234 88 12
-1.4180419 0.079174772 1.8571332 234 88 12
-1.418108 0.077654101 1.8571332 234 88 12
-1.4237057 0.075050913 1.8970627 234 88 12
-1.4215053 0.07405524 1.8807274 234 88 12
-1.421693 0.069739632 1.8807274 234 88 12
-1.4220682 0.061108425 1.8807274 234 88 12
-1.3709531 0.10766833 1.5050387 234 88 12
-1.3855575 0.094780557 1.6097116 234 88 12
-1.3943597 0.087645113 1.673004 234 88 12
-1.4121664 0.081030354 1.8035764 234 88 12
-1.4478755 0.038508058 2.0559428 234 88 12
-1.4480553 0.034372985 2.0559428 234 88 12
-1.3789237 0.10543147 1.5460372 234 88 12
-1.3873485 0.099622421 1.6084214 234 88 12
-1.3959851 0.092039108 1.6718332 234 88 12
-1.413524 0.082796499 1.8026516 234 88 12
-1.4059201 0.093138851 1.7345436 234 88 12
-1.4183491 0.085048243 1.8290154 234 88 12
-1.4213743 0.077955954 1.850268 234 88 12
-1.4734273 0.061357144 2.2517996 234 88 12
-1.4276334 0.016671509 1.8783855 234 88 12
-1.3897555 0.10044187 1.5933264 234 88 12
-1.4233475 0.080839768 1.8558943 234 88 12
-1.4448251 0.072584711 2.0252633 234 88 12
-1.4263403 0.074265458 1.8776048 234 88 12
-1.426528 0.069949858 1.8776048 234 88 12
-1.4269032 0.061318647 1.8776048 234 88 12
-1.4273411 0.051248901 1.8776048 234 88 12
-1.4284043 0.026793808 1.8776048 234 88 12
-1.4284669 0.025355274 1.8776048 234 88 12
-1.4288422 0.016724063 1.8776048 234 88 12
-1.3920001 0.09568882 1.5920128 234 88 12
-1.414871 0.085649073 1.7765759 234 88 12
-1.421177 0.077169426 1.8254223 234 88 12
-1.0878397 -1.1219897 0.89618224 234 88 12
-1.0852128 -1.1246167 0.89618224 234 88 12
-1.0975083 -1.1158967 0.89346021 234 88 12
-1.4136585 -1.4137133 1.8556834 234 88 12
-1.40923 -1.4104633 1.843145 234 88 12
-1.3579613 -1.3715714 1.6939991 234 88 12
-1.3600162 -1.3701141 1.6935441 234 88 12
-1.3525527 -1.3775777 1.6935441 234 88 12
-1.3611932 -1.3695347 1.6930891 234 88 12
-1.359876 -1.3708519 1.6930891 234 88 12
-1.3528515 -1.3778764 1.6930891 234 88 12
-1.3510953 -1.3796326 1.6930891 234 88 12
-1.3635468 -1.3683763 1.6921793 234 88 12
-1.281495 -1.3106344 1.4493804 234 88 12
-1.2804157 -1.3117137 1.4493804 234 88 12
-1.2750195 -1.3171098 1.4493804 234 88 12
-1.2717818 -1.3203475 1.4493804 234 88 12
-1.2663856 -1.3257438 1.4493804 234 88 12
-1.2628031 -1.3307953 1.4482621 234 88 12
-1.2894393 -1.3056279 1.4471438 234 88 12
-1.2872808 -1.3077865 1.4471438 234 88 12
-1.2808053 -1.3142619 1.4471438 234 88 12
-1.2786469 -1.3164203 1.4471438 234 88 12
-1.2721715 -1.3228958 1.4471438 234 88 12
-1.270013 -1.3250543 1.4471438 234 88 12
-1.2624583 -1.3326089 1.4471438 234 88 12
-1.2613791 -1.3336883 1.4471438 234 88 12
-1.3473209 -1.386395 1.6908146 234 88 12
-1.2934115 -1.3031247 1.4460255 234 88 12
-1.289829 -1.3081762 1.4449072 234 88 12
-1.2811952 -1.3168101 1.4449072 234 88 12
-1.2725612 -1.325444 1.4449072 234 88 12
-1.2639272 -1.334078 1.4449072 234 88 12
-1.3688519 -1.3666567 1.6894498 234 88 12
-1.302422 -1.3309352 1.5049776 234 88 12
-1.2996627 -1.3336946 1.5049776 234 88 12
-1.2978232 -1.3355341 1.5049776 234 88 12
-1.2560278 -1.3434464 1.4437889 234 88 12
-1.3010112 -1.299932 1.4426706 234 88 12
-1.2920107 -1.3425986 1.5040245 234 88 12
-1.2546039 -1.3463393 1.4426706 234 88 12
0.064022824 -1.4779711 2.2917414 234 88 12
0.060975574 -1.4691873 2.2646563 234 88 12
0.061429951 -1.4691675 2.2646563 234 88 12
0.064242706 -1.4743439 2.2791839 234 88 12
0.16173086 -1.1967753 1.3123841 234 88 12
0.16915391 -1.1964526 1.3123841 234 88 12
0.013053579 -1.3613915 1.8657571 234 88 12
0.017900979 -1.3611808 1.8657571 234 88 12
0.17671257 -1.1992486 1.31037 234 88 12
0.052128788 -1.4578754 2.2164598 234 88 12
0.05271247 -1.4578501 2.2164598 234 88 12
0.0050336104 -1.3631005 1.8648803 234 88 12
0.18055971 -1.2022059 1.3083559 234 88 12
0.18427123 -1.2020445 1.3083559 234 88 12
0.058765937 -1.4707178 2.2637315 234 88 12
0.07704293 -1.3679056 1.8882083 234 88 12
0.080092601 -1.3677731 1.8882083 234 88 12
0.089241616 -1.3673753 1.8882083 234 88 12
0.18811837 -1.2050018 1.3063418 234 88 12
0.027772876 -1.3648324 1.8631266 234 88 12
0.069474451 -1.3695184 1.8873808 234 88 12
0.070999287 -1.3694521 1.8873808 234 88 12
0.080148309 -1.3690543 1.8873808 234 88 12
0.096921511 -1.368325 1.8873808 234 88 12
0.19567703 -1.2077979 1.3043276 234 88 12
0.055806629 -1.3713963 1.8865533 234 88 12
0.087828197 -1.3700041 1.8865533 234 88 12
0.096977219 -1.3696063 1.8865533 234 88 12
0.039089136 -1.3734069 1.8857259 234 88 12
0.045188483 -1.3731418 1.8857259 234 88 12
0.052812666 -1.3728102 1.8857259 234 88 12
0.061961684 -1.3724124 1.8857259 234 88 12
0.071110703 -1.3720146 1.8857259 234 88 12
0.080259725 -1.3716168 1.8857259 234 88 12
0.087883905 -1.3712854 1.8857259 234 88 12
0.097032927 -1.3708876 1.8857259 234 88 12
0.10618195 -1.3704898 1.8857259 234 88 12
0.17625634 -1.2087908 1.2768875 234 88 12
0.015023568 -1.3694676 1.860496 234 88 12
0.018255169 -1.3693271 1.860496 234 88 12
0.026334168 -1.3689758 1.860496 234 88 12
0.1839931 -1.2116526 1.274826 234 88 12
0.0183142 -1.3706847 1.8596193 234 88 12
0.033101205 -1.3762347 1.8840709 234 88 12
0.040308647 -1.3912597 1.9446331 234 88 12
0.039182059 -1.3818457 1.9072695 234 88 12
0.044936199 -1.3815955 1.9072695 234 88 12
0.052004483 -1.3907511 1.9446331 234 88 12
0.053304017 -1.3906946 1.9446331 234 88 12
0.085792445 -1.3892821 1.9446331 234 88 12
0.08839152 -1.3891691 1.9446331 234 88 12
0.097488284 -1.3887736 1.9446331 234 88 12
0.19172984 -1.2145145 1.2727644 234 88 12
0.031632077 -1.3775822 1.8832434 234 88 12
0.11549809 -1.3739359 1.8832434 234 88 12
0.19566761 -1.2175415 1.2707028 234 88 12
0.033533033 -1.3845134 1.9057082 234 88 12
0.053672519 -1.3836378 1.9057082 234 88 12
0.062495731 -1.3924831 1.9432226 234 88 12
0.078090176 -1.3918051 1.9432226 234 88 12
0.19960539 -1.2205685 1.2686412 234 88 12
0.20340437 -1.2204033 1.2686412 234 88 12
0.061404664 -1.4751298 2.2787569 234 88 12
0.071389243 -1.3784211 1.8815885 234 88 12
0.10542794 -1.3917105 1.9425174 234 88 12
0.029322537 -1.3871186 1.9041469 234 88 12
0.03651521 -1.3868059 1.9041469 234 88 12
0.045146421 -1.3864306 1.9041469 234 88 12
0.11719005 -1.3777134 1.880761 234 88 12
0.2112799 -1.2264574 1.264518 234 88 12
0.027936557 -1.3883898 1.9033662 234 88 12
0.03512923 -1.3880771 1.9033662 234 88 12
0.045198977 -1.3876394 1.9033662 234 88 12
0.053830184 -1.3872641 1.9033662 234 88 12
0.062461395 -1.3868889 1.9033662 234 88 12
0.063937701 -1.3957025 1.941107 234 88 12
0.07043539 -1.39542 1.941107 234 88 12
0.12334511 -1.3787296 1.8799335 234 88 12
0.21521768 -1.2294844 1.2624565 234 88 12
0.079579622 -1.3961164 1.9404018 234 88 12
0.088676386 -1.395721 1.9404018 234 88 12
0.097773142 -1.3953254 1.9404018 234 88 12
0.021292469 -1.3857341 1.8782785 234 88 12
0.025164599 -1.3909326 1.9018049 234 88 12
0.056495082 -1.4263257 2.0629282 234 88 12
0.10561784 -1.3960783 1.9396966 234 88 12
0.061610967 -1.4268167 2.0624683 234 88 12
0.070577815 -1.3986958 1.9389913 234 88 12
0.079674579 -1.3983004 1.9389913 234 88 12
0.088771336 -1.3979049 1.9389913 234 88 12
0.10002097 -1.388889 1.9010242 234 88 12
0.080318123 -1.43994 2.1245234 234 88 12
0.10826439 -1.3970573 1.9389913 234 88 12
0.11476208 -1.3967749 1.9389913 234 88 12
0.12503707 -1.3825071 1.8774511 234 88 12
0.065453529 -1.4411085 2.1241868 234 88 12
0.071302824 -1.3913486 1.9002436 234 88 12
0.054892994 -1.4285358 2.0615485 234 88 12
0.061672889 -1.428241 2.0615485 234 88 12
0.077882238 -1.4410903 2.1238503 234 88 12
0.01674361 -1.3961428 1.8986824 234 88 12
0.018182144 -1.3960803 1.8986824 234 88 12
0.026813352 -1.395705 1.8986824 234 88 12
0.035444561 -1.3953298 1.8986824 234 88 12
-0.068015799 -1.2653761 1.2536741 234 88 12
0.044128329 -1.3961632 1.8979017 234 88 12
0.070209682 -1.4292967 2.0606287 234 88 12
0.069243327 -1.4425104 2.1231771 234 88 12
0.070483938 -1.4424564 2.1231771 234 88 12
0.0800917 -1.3945997 1.8979017 234 88 12
0.088722907 -1.3942244 1.8979017 234 88 12
0.079168171 -1.4420788 2.1231771 234 88 12
0.087852404 -1.4417013 2.1231771 234 88 12
0.12983441 -1.3874334 1.8741411 234 88 12
0.054985881 -1.4306722 2.0601687 234 88 12
0.061765775 -1.4303774 2.0601687 234 88 12
0.13293979 -1.3885821 1.8733137 234 88 12
0.070271604 -1.430721 2.0597088 234 88 12
-0.082715526 -1.2755581 1.2475228 234 88 12
0.11899303 -1.4042491 1.9340549 234 88 12
-0.086355947 -1.2788973 1.2454724 234 88 12
0.0083751753 -1.402562 1.8947791 234 88 12
0.0098137101 -1.4024994 1.8947791 234 88 12
0.01844492 -1.4021242 1.8947791 234 88 12
0.027076129 -1.4017489 1.8947791 234 88 12
0.03570734 -1.4013736 1.8947791 234 88 12
0.044338547 -1.4009984 1.8947791 234 88 12
-0.08999636 -1.2822366 1.2434219 234 88 12
0.1229866 -1.4062636 1.9326444 234 88 12
0.0056032161 -1.4051046 1.8932178 234 88 12
0.009918821 -1.404917 1.8932178 234 88 12
0.018550031 -1.4045417 1.8932178 234 88 12
0.02718124 -1.4041665 1.8932178 234 88 12
-0.097277202 -1.288915 1.239321 234 88 12
0.035865005 -1.405 1.8924371 234 88 12
0.044496212 -1.4046247 1.8924371 234 88 12
0.079748772 -1.4338763 2.0574093 234 88 12
0.13632371 -1.3961372 1.8683487 234 88 12
-0.10091762 -1.2922543 1.2372706 234 88 12
0.064871326 -1.4745759 2.2716475 234 88 12
0.12317651 -1.4106314 1.9298235 234 88 12
-0.0013266826 -1.4114611 1.8893145 234 88 12
0.078797147 -1.4478393 2.1194742 234 88 12
0.079417452 -1.4478123 2.1194742 234 88 12
0.124571 -1.4127589 1.928413 234 88 12
0.14112106 -1.4010634 1.8650389 234 88 12
0.047487363 -1.4654479 2.2117085 234 88 12
-0.0027126623 -1.4127325 1.8885339 234 88 12
0.037529238 -1.4392793 2.0551097 234 88 12
0.059828483 -1.4718965 2.2528291 234 88 12
0.08812435 -1.447956 2.1191375 234 88 12
0.00021696265 -1.4138162 1.8877532 234 88 12
0.0088481717 -1.4134409 1.8877532 234 88 12
0.03501774 -1.440102 2.0546498 234 88 12
0.044340093 -1.4396967 2.0546498 234 88 12
0.054509938 -1.4392545 2.0546498 234 88 12
0.036232889 -1.4134613 1.8869727 234 88 12
0.063925333 -1.4719641 2.2526708 234 88 12
0.063873582 -1.4405065 2.0599821 234 88 12
0.13976334 -1.4049736 1.8625565 234 88 12
0.14128818 -1.4049073 1.8625565 234 88 12
-0.0054320665 -1.4164839 1.886192 234 88 12
0.000322073 -1.4162337 1.886192 234 88 12
0.0089532826 -1.4158584 1.886192 234 88 12
0.070519917 -1.4409138 2.0595331 234 88 12
0.082538925 -1.4394628 2.0537302 234 88 12
0.04753001 -1.4664289 2.2110751 234 88 12
0.083448336 -1.4408501 2.0528104 234 88 12
0.14145531 -1.4087511 1.8600739 234 88 12
-0.009537451 -1.4215066 1.8830694 234 88 12
-0.0080989162 -1.4214441 1.8830694 234 88 12
0.087747693 -1.4420902 2.0518906 234 88 12
0.12759736 -1.4224737 1.9220661 234 88 12
0.12894438 -1.4235091 1.9213609 234 88 12
0.14320298 -1.41381 1.8567641 234 88 12
0.04350036 -1.4483546 2.0554941 234 88 12
0.044327375 -1.4483187 2.0554941 234 88 12
0.053424533 -1.4479232 2.0554941 234 88 12
0.061724894 -1.4482585 2.0550454 234 88 12
0.13173336 -1.4277641 1.91854 234 88 12
-0.013485169 -1.4301556 1.8776048 234 88 12
-0.0077310293 -1.4299054 1.8776048 234 88 12
0.086580709 -1.4553341 2.1144249 234 88 12
0.087821312 -1.4552801 2.1144249 234 88 12
-0.014871148 -1.4314269 1.8768241 234 88 12
-0.0076784743 -1.4311142 1.8768241 234 88 12
0.14506206 -1.4214314 1.8517991 234 88 12
1.229495 0.14180754 2.3470221 234 88 12
1.2422531 0.14800385 2.3832657 234 88 12
1.2290863 0.1494092 2.3467515 234 88 12
1.2423681 0.14919524 2.3831306 234 88 12
1.2312499 0.14025655 2.3462105 234 88 12
1.138476 0.099456027 2.056977 234 88 12
1.1390431 0.10532799 2.0563102 234 88 12
1.1378185 0.11533258 2.0563102 234 88 12
1.1415343 0.095478445 2.0556436 234 88 12
1.1413594 0.096907675 2.0556436 234 88 12
1.1380357 0.124063 2.0556436 234 88 12
1.1415765 0.10563809 2.0549767 234 88 12
1.1417937 0.11436851 2.0543098 234 88 12
1.1407441 0.12294387 2.0543098 234 88 12
1.1395195 0.13294846 2.0543098 234 88 12
1.2303699 0.15810093 2.3455341 234 88 12
1.1409612 0.13167429 2.0536432 234 88 12
1.1467763 0.094669417 2.0529764 234 88 12
1.1464264 0.097527869 2.0529764 234 88 12
1.1924071 0.1221815 2.2088501 234 88 12
1.1923065 0.12300316 2.2088501 234 88 12
1.1453768 0.10610323 2.0529764 234 88 12
1.1443272 0.1146786 2.0529764 234 88 12
1.1432775 0.12325397 2.0529764 234 88 12
1.142228 0.13182934 2.0529764 234 88 12
1.1411784 0.1404047 2.0529764 234 88 12
1.1939642 0.12153811 2.2080834 234 88 12
1.1937631 0.12318144 2.2080834 234 88 12
1.1505766 0.095134564 2.050976 234 88 12
1.1504016 0.096563794 2.050976 234 88 12
1.143929 0.14944522 2.050976 234 88 12
1.149744 0.11244035 2.0503092 234 88 12
1.2458804 0.15564497 2.3904872 234 88 12
1.150661 0.11545385 2.0496426 234 88 12
1.1496114 0.12402922 2.0496426 234 88 12
1.1433136 0.17548141 2.0496426 234 88 12
1.246008 0.15543149 2.3904345 234 88 12
1.1498284 0.13275963 2.0489757 234 88 12
1.1500456 0.14149004 2.0483088 234 88 12
1.1479464 0.15864079 2.0483088 234 88 12
1.1345793 0.16086853 2.0025496 234 88 12
1.1502627 0.15022047 2.0476422 234 88 12
1.1352161 0.16746406 2.0018008 234 88 12
1.1978551 0.13202204 2.2054002 234 88 12
1.1504799 0.15895088 2.0469754 234 88 12
1.1494303 0.16752625 2.0469754 234 88 12
1.1594439 0.096219912 2.0463085 234 88 12
1.1592689 0.097649135 2.0463085 234 88 12
1.1590034 0.12082688 2.044975 234 88 12
1.1586535 0.12368534 2.044975 234 88 12
1.1984308 0.14543608 2.2042501 234 88 12
1.1630691 0.098114289 2.0443082 234 88 12
1.1600952 0.12241115 2.0443082 234 88 12
1.1599203 0.12384038 2.0443082 234 88 12
1.1588707 0.13241576 2.0443082 234 88 12
1.0014082 0.10923572 1.4337718 234 88 12
1.0004892 0.11674375 1.4337718 234 88 12
1.0000297 0.12049777 1.4337718 234 88 12
0.99957025 0.12425178 1.4337718 234 88 12
0.99865127 0.13175982 1.4337718 234 88 12
1.1571213 0.14670803 2.0443082 234 88 12
1.1567714 0.14956649 2.0443082 234 88 12
1.1557218 0.15814185 2.0443082 234 88 12
1.2027034 0.12260777 2.2034836 234 88 12
1.2026027 0.12342943 2.2034836 234 88 12
1.0028975 0.12465904 1.4320204 234 88 12
1.0019785 0.13216707 1.4320204 234 88 12
1.2510524 0.15338296 2.4049597 234 88 12
1.2542441 0.15360956 2.4174061 234 88 12
1.2023252 0.13173521 2.2031002 234 88 12
1.0089817 0.1025422 1.4302691 234 88 12
1.012309 0.10294946 1.4285177 234 88 12
1.0118495 0.10670347 1.4285177 234 88 12
1.0109305 0.1142115 1.4285177 234 88 12
1.2460507 0.14788003 2.3813043 234 88 12
1.1681361 0.098734483 2.0416412 234 88 12
1.2026755 0.14095178 2.2023335 234 88 12
1.2055157 0.12378599 2.2019501 234 88 12
1.2045101 0.13200262 2.2019501 234 88 12
1.0198824 0.096255928 1.425015 234 88 12
1.019423 0.10000995 1.425015 234 88 12
1.018504 0.10751797 1.425015 234 88 12
1.235341 0.16224092 2.3426933 234 88 12
1.0269965 0.093316421 1.4215122 234 88 12
1.0303237 0.093723677 1.4197609 234 88 12
1.0298642 0.097477689 1.4197609 234 88 12
1.1613075 0.19654216 2.038974 234 88 12
1.0374377 0.09078417 1.4162582 234 88 12
1.0365187 0.098292194 1.4162582 234 88 12
1.1766535 0.10267828 2.0369737 234 88 12
1.0412245 0.087437406 1.4145068 234 88 12
1.0445517 0.087844662 1.4127555 234 88 12
1.2069426 0.14473771 2.1938114 234 88 12
1.2111406 0.12614241 2.1988835 234 88 12
1.0483384 0.084497899 1.4110041 234 88 12
1.047879 0.088251911 1.4110041 234 88 12
1.2078949 0.14314504 2.1934185 234 88 12
1.1802789 0.10457266 2.0349734 234 88 12
1.211165 0.13198321 2.1985002 234 88 12
1.2078167 0.14997242 2.1930256 234 88 12
1.0554525 0.081558391 1.4075013 234 88 12
1.1826375 0.10631199 2.0336399 234 88 12
1.210546 0.14005107 2.19224 234 88 12
1.2114985 0.1384584 2.1918473 234 88 12
1.2111893 0.14098442 2.1918473 234 88 12
1.1851709 0.10662209 2.0323062 234 88 12
1.0663532 0.075272121 1.4022473 234 88 12
1.210905 0.1494958 2.1914544 234 88 12
1.1765085 0.19840276 2.0309727 234 88 12
1.2196786 0.12885541 2.1942835 234 88 12
1.1963968 0.10944676 2.0263052 234 88 12
1.2211351 0.12903368 2.193517 234 88 12
1.2198888 0.13179381 2.1879191 234 88 12
1.251444 0.15289424 2.3978012 234 88 12
1.2174402 0.15798727 2.1875262 234 88 12
1.2203509 0.14039654 2.1871333 234 88 12
1.2000644 0.14885271 2.0631075 234 88 12
1.1999063 0.15014383 2.0631075 234 88 12
1.202157 0.14124599 2.0625052 234 88 12
1.2001026 0.15803067 2.0625052 234 88 12
1.2037754 0.13751268 2.0619028 234 88 12
1.2033013 0.14138606 2.0619028 234 88 12
1.1936265 0.14533018 1.9998802 234 88 12
1.1932557 0.14836012 1.9998802 234 88 12
1.1930703 0.14987509 1.9998802 234 88 12
1.201721 0.15429735 2.0619028 234 88 12
1.2012469 0.15817074 2.0619028 234 88 12
1.1958965 0.13791966 1.9991734 234 88 12
1.1944131 0.15003943 1.9991734 234 88 12
1.2023913 0.15831082 2.0613005 234 88 12
1.21991 0.16256267 2.1859548 234 88 12
1.2068543 0.13133717 2.060698 234 88 12
1.1946431 0.15929361 1.9984666 234 88 12
1.2024294 0.16748878 2.060698 234 88 12
1.1995091 0.13067351 1.9977598 234 88 12
1.2072306 0.10497025 2.0209711 234 88 12
1.2266836 0.12578854 2.1847765 234 88 12
1.2112355 0.12401059 2.0588911 234 88 12
1.2029363 0.12494233 1.9963462 234 88 12
1.212696 0.1215684 2.0582888 234 88 12
1.2046499 0.12207674 1.9956394 234 88 12
1.203352 0.13268153 1.9956394 234 88 12
1.2022394 0.14177136 1.9956394 234 88 12
1.199087 0.16752587 1.9956394 234 88 12
1.2292316 0.12353656 2.183598 234 88 12
1.202655 0.14951058 1.9949327 234 88 12
1.230081 0.1227859 2.1832051 234 88 12
1.2028852 0.15876475 1.9942259 234 88 12
1.2031152 0.16801892 1.9935191 234 88 12
1.2111335 0.11364432 1.9928124 234 88 12
1.2109481 0.1151593 1.9928124 234 88 12
1.2114261 0.16990046 2.0558794 234 88 12
1.219524 0.11323084 2.0552769 234 88 12
1.2113637 0.1228985 1.9921056 234 88 12
1.2209845 0.11078865 2.0546746 234 88 12
1.2205104 0.11466204 2.0546746 234 88 12
1.2143754 0.10942812 1.9913988 234 88 12
1.2136337 0.11548799 1.9913988 234 88 12
1.2127064 0.12306285 1.9913988 234 88 12
1.2115939 0.13215268 1.9913988 234 88 12
1.2106667 0.13972753 1.9913988 234 88 12
1.2104813 0.1412425 1.9913988 234 88 12
1.2093687 0.15033233 1.9913988 234 88 12
1.2082561 0.15942216 1.9913988 234 88 12
1.2073289 0.16699702 1.9913988 234 88 12
1.2118241 0.14140685 1.990692 234 88 12
1.2142271 0.17548518 2.0540724 234 88 12
1.2120541 0.15066104 1.9899852 234 88 12
1.211127 0.15823589 1.9899852 234 88 12
1.2250496 0.10604434 2.0528677 234 88 12
1.2113572 0.16749007 1.9892784 234 88 12
1.2169899 0.17189193 2.0528677 234 88 12
1.2165158 0.17576532 2.0528677 234 88 12
1.209619 0.20100482 2.0136366 234 88 12
1.226352 0.10489327 2.0522652 234 88 12
1.2206734 0.10251066 1.9885716 234 88 12
1.2203026 0.1055406 1.9885716 234 88 12
1.2377251 0.11602998 2.1796699 234 88 12
1.2205328 0.11479478 1.9878649 234 88 12
1.2404994 0.14088956 2.2440016 234 88 12
1.2289568 0.10259115 2.0510604 234 88 12
1.2284827 0.10646454 2.0510604 234 88 12
1.2414228 0.13787498 2.2437141 234 88 12
1.220423 0.17231213 2.0510604 234 88 12
1.2405357 0.14965132 2.2434266 234 88 12
1.2402731 0.113778 2.1784914 234 88 12
1.2202961 0.15013216 1.9857446 234 88 12
1.2283144 0.095757566 1.9850378 234 88 12
1.2205262 0.15938635 1.9850378 234 88 12
1.2298425 0.094406947 1.984331 234 88 12
1.2294717 0.09743689 1.984331 234 88 12
1.2209419 0.16712555 1.984331 234 88 12
1.1720054 0.21643646 1.3583372 234 88 12
1.2327135 0.093220674 1.9829174 234 88 12
1.2321572 0.097765587 1.9829174 234 88 12
1.2455299 0.13149694 2.2419889 234 88 12
1.2247399 0.15836443 1.9829174 234 88 12
1.2236273 0.16745426 1.9829174 234 88 12
1.1748223 0.22052403 1.3566169 234 88 12
1.2377574 0.097115979 2.046844 234 88 12
1.2461516 0.13094752 2.2417014 234 88 12
1.2460006 0.13218009 2.2417014 234 88 12
1.1832124 0.16589454 1.3298097 234 88 12
1.2285914 0.17200148 2.046844 234 88 12
1.178542 0.21723655 1.3548965 234 88 12
1.1780907 0.22092406 1.3548965 234 88 12
1.2390598 0.095964924 2.0462418 234 88 12
1.1860958 0.1700784 1.3280487 234 88 12
1.246037 0.14094186 2.2411263 234 88 12
1.1885171 0.17803666 1.3262879 234 88 12
1.1875932 0.18558547 1.3262879 234 88 12
1.1855301 0.21434911 1.3514559 234 88 12
1.1846273 0.22172414 1.3514559 234 88 12
1.2467587 0.11029874 2.1753488 234 88 12
1.2384553 0.09084814 1.9800903 234 88 12
1.1923244 0.17467172 1.324527 234 88 12
1.1918625 0.17844613 1.324527 234 88 12
1.1909385 0.18599492 1.324527 234 88 12
1.1900145 0.19354373 1.324527 234 88 12
1.2286274 0.17114161 1.9800903 234 88 12
1.1887983 0.21474914 1.3497355 234 88 12
1.1878957 0.22212419 1.3497355 234 88 12
1.2460735 0.14970362 2.2405512 234 88 12
1.1956698 0.17508119 1.3227662 234 88 12
1.1952078 0.1788556 1.3227662 234 88 12
1.1942838 0.18640439 1.3227662 234 88 12
1.1933599 0.1939532 1.3227662 234 88 12
1.2439532 0.093942933 2.0438323 234 88 12
1.2436372 0.096525192 2.0438323 234 88 12
1.2343132 0.17270182 2.0438323 234 88 12
1.1957864 0.21186171 1.3462949 234 88 12
1.1944323 0.22292426 1.3462949 234 88 12
1.2023604 0.17590013 1.3192444 234 88 12
1.2462419 0.094223067 2.0426276 234 88 12
1.2043198 0.18763278 1.3174835 234 88 12
1.2033958 0.19518159 1.3174835 234 88 12
1.202323 0.21266179 1.3428541 234 88 12
1.2470703 0.096945398 2.0420253 234 88 12
1.2090511 0.17671905 1.3157227 234 88 12
1.2081271 0.18426785 1.3157227 234 88 12
1.2067412 0.19559106 1.3157227 234 88 12
1.2060426 0.20937431 1.3411338 234 88 12
1.2055913 0.21306182 1.3411338 234 88 12
1.2046887 0.22043687 1.3411338 234 88 12
1.2468827 0.088804305 1.9758496 234 88 12
1.2123964 0.17712852 1.3139617 234 88 12
1.2114724 0.18467732 1.3139617 234 88 12
1.2070543 0.22821194 1.3394135 234 88 12
1.2162037 0.17376359 1.3122009 234 88 12
1.2134318 0.19640999 1.3122009 234 88 12
1.2378412 0.17380704 1.9751428 234 88 12
1.240193 0.17211103 2.0408206 234 88 12
1.2125793 0.2101744 1.3376932 234 88 12
1.2121279 0.21386191 1.3376932 234 88 12
1.2112253 0.22123694 1.3376932 234 88 12
1.2547162 0.153832 2.4171472 234 88 12
1.2276237 0.11035926 1.3193737 234 88 12
0.14735754 1.2429843 2.3829277 234 88 12
0.11771663 1.189997 2.2103834 234 88 12
0.12446821 1.1906489 2.2096169 234 88 12
0.11378659 1.1919563 2.2096169 234 88 12
0.14919181 1.2435424 2.3825219 234 88 12
0.11478653 1.1933123 2.2088501 234 88 12
0.11396486 1.1934129 2.2088501 234 88 12
0.12646809 1.1933608 2.2080834 234 88 12
0.09640874 1.1491349 2.0516429 234 88 12
0.093550287 1.1494848 2.0516429 234 88 12
0.15629283 1.2483184 2.3992062 234 88 12
0.13230889 1.193385 2.2077003 234 88 12
0.099422246 1.1500517 2.050976 234 88 12
0.086559199 1.1516262 2.050976 234 88 12
0.10544926 1.1518855 2.0496426 234 88 12
0.18098368 1.1888717 2.2008822 234 88 12
0.17508964 1.1895931 2.2008822 234 88 12
0.078604028 1.1577429 2.0483088 234 88 12
0.19573556 1.1548351 2.0835874 234 88 12
0.19186218 1.1553092 2.0835874 234 88 12
0.084475987 1.1583098 2.0476422 234 88 12
0.078759082 1.1590096 2.0476422 234 88 12
0.18537638 1.189849 2.2000964 234 88 12
0.18425547 1.1574018 2.0829852 234 88 12
0.14106035 1.1967489 2.2054002 234 88 12
0.13064614 1.1965479 2.2000964 234 88 12
0.094635636 1.158352 2.0469754 234 88 12
0.14133975 1.2352908 2.3440461 234 88 12
0.14017995 1.2354327 2.3440461 234 88 12
0.18697779 1.1582301 2.0823827 234 88 12
0.18310441 1.1587042 2.0823827 234 88 12
0.11479987 1.1571697 2.0463085 234 88 12
0.10622451 1.1582192 2.0463085 234 88 12
0.10479528 1.1583942 2.0463085 234 88 12
0.20390254 1.1573199 2.0817804 234 88 12
0.17390771 1.2087373 2.2583773 234 88 12
0.16871899 1.1934028 2.1993108 234 88 12
0.16619298 1.1937119 2.1993108 234 88 12
0.13251284 1.1978344 2.1993108 234 88 12
0.11638415 1.1582614 2.0456419 234 88 12
0.20533374 1.1583062 2.0811779 234 88 12
0.20146035 1.1587803 2.0811779 234 88 12
0.17650659 1.2095281 2.2578025 234 88 12
0.16664596 1.210735 2.2578025 234 88 12
0.17448671 1.1632434 2.0805757 234 88 12
0.15785018 1.1976506 2.2038667 234 88 12
0.12098193 1.1602702 2.0443082 234 88 12
0.11383579 1.1611449 2.0443082 234 88 12
0.10526042 1.1621945 2.0443082 234 88 12
0.079534329 1.1653433 2.0443082 234 88 12
0.078105099 1.1655183 2.0443082 234 88 12
0.16979426 1.210904 2.257515 234 88 12
0.16609654 1.2113566 2.257515 234 88 12
0.075401694 1.1671349 2.0436416 234 88 12
0.10781782 1.2045135 2.2034836 234 88 12
0.14536799 1.2459669 2.3815072 234 88 12
0.19097647 1.1937083 2.1977396 234 88 12
0.2083362 1.1614233 2.079371 234 88 12
0.17347571 1.1656902 2.079371 234 88 12
0.15729631 1.1978307 2.1977396 234 88 12
0.12415048 1.1624538 2.0429747 234 88 12
0.13862896 1.2371876 2.3432345 234 88 12
0.17793974 1.2110158 2.2569399 234 88 12
0.17232466 1.1669925 2.0787687 234 88 12
0.14069007 1.2371962 2.3430991 234 88 12
0.14905897 1.2003539 2.1969538 234 88 12
0.14588177 1.2020721 2.2023335 234 88 12
0.10730985 1.1670865 2.0416412 234 88 12
0.1044514 1.1674364 2.0416412 234 88 12
0.10611679 1.20561 2.1969538 234 88 12
0.16614914 1.1700715 2.077564 234 88 12
0.14073028 1.2021308 2.1965611 234 88 12
0.13988827 1.2022339 2.1965611 234 88 12
0.1174695 1.1671287 2.0409744 234 88 12
0.12905836 1.166996 2.0403075 234 88 12
0.14339402 1.2376478 2.3426933 234 88 12
0.14020455 1.2380382 2.3426933 234 88 12
0.1931172 1.1972336 2.1957755 234 88 12
0.2116188 1.166829 2.0763593 234 88 12
0.21032767 1.1669871 2.0763593 234 88 12
0.15354303 1.2020775 2.1957755 234 88 12
0.21175887 1.1679733 2.0757568 234 88 12
0.19457407 1.1562532 2.0161362 234 88 12
0.19154413 1.1566241 2.0161362 234 88 12
0.18396927 1.1575513 2.0161362 234 88 12
0.13222691 1.1691797 2.038974 234 88 12
0.073628582 1.176352 2.038974 234 88 12
0.18867855 1.1583377 2.0154293 234 88 12
0.18413363 1.1588941 2.0154293 234 88 12
0.17504381 1.1600066 2.0154293 234 88 12
0.1595373 1.1671226 2.0383072 234 88 12
0.1808729 1.2145377 2.2549272 234 88 12
0.1753263 1.2152166 2.2549272 234 88 12
0.20096266 1.158197 2.0147226 234 88 12
0.15991907 1.2171024 2.2549272 234 88 12
0.15745392 1.2174042 2.2549272 234 88 12
0.16039383 1.1765834 2.0745523 234 88 12
0.15781158 1.1768994 2.0745523 234 88 12
0.20264198 1.1593543 2.0140157 234 88 12
0.16628268 1.1638047 2.0140157 234 88 12
0.15555972 1.1701809 2.0369737 234 88 12
0.10982443 1.1757789 2.0369737 234 88 12
0.14285171 1.173022 2.0363069 234 88 12
0.11998407 1.1758211 2.0363069 234 88 12
0.10516354 1.2117864 2.1938114 234 88 12
0.19366527 1.2017113 2.1934185 234 88 12
0.16206647 1.1670464 2.0126021 234 88 12
0.13014372 1.1758633 2.0356402 234 88 12
0.10525488 1.2125326 2.1934185 234 88 12
0.19375661 1.2024575 2.1930256 234 88 12
0.17283562 1.1670913 2.0118954 234 88 12
0.15768591 1.1689456 2.0118954 234 88 12
0.15998547 1.0424759 1.4092528 234 88 12
0.15402362 1.2200418 2.253777 234 88 12
0.14744949 1.1750308 2.0349734 234 88 12
0.14030336 1.1759055 2.0349734 234 88 12
0.10742924 1.0489088 1.4092528 234 88 12
0.10367523 1.0493683 1.4092528 234 88 12
0.096167199 1.0502872 1.4092528 234 88 12
0.084905148 1.0516657 1.4092528 234 88 12
0.077397123 1.0525846 1.4092528 234 88 12
0.11886494 1.1785295 2.0349734 234 88 12
0.11314803 1.1792293 2.0349734 234 88 12
0.073129654 1.1841274 2.0349734 234 88 12
0.21403047 1.1758257 2.0715404 234 88 12
0.18360476 1.167136 2.0111885 234 88 12
0.15288469 1.0467222 1.4075013 234 88 12
0.14913067 1.0471817 1.4075013 234 88 12
0.13786863 1.0485601 1.4075013 234 88 12
0.13036059 1.0494791 1.4075013 234 88 12
0.11909854 1.0508575 1.4075013 234 88 12
0.10032847 1.0531551 1.4075013 234 88 12
0.092820436 1.054074 1.4075013 234 88 12
0.085312404 1.054993 1.4075013 234 88 12
0.077804372 1.0559119 1.4075013 234 88 12
0.066542327 1.0572904 1.4075013 234 88 12
0.071855478 1.1855692 2.0343065 234 88 12
0.19588889 1.1669953 2.0104818 234 88 12
0.19285895 1.1673661 2.0104818 234 88 12
0.12701383 1.0532658 1.40575 234 88 12
0.1195058 1.0541848 1.40575 234 88 12
0.11199777 1.0551038 1.40575 234 88 12
0.059441548 1.0615367 1.40575 234 88 12
0.21431062 1.1781144 2.0703356 234 88 12
0.20665804 1.16704 2.0097752 234 88 12
0.14908913 1.1740863 2.0097752 234 88 12
0.13868313 1.0552146 1.4039986 234 88 12
0.082372896 1.062107 1.4039986 234 88 12
0.078618884 1.0625665 1.4039986 234 88 12
0.067356832 1.0639449 1.4039986 234 88 12
0.059848804 1.0648639 1.4039986 234 88 12
0.20985232 1.1680119 2.0090683 234 88 12
0.2007625 1.1691245 2.0090683 234 88 12
0.19167268 1.1702371 2.0090683 234 88 12
0.18409783 1.1711642 2.0090683 234 88 12
0.175008 1.1722767 2.0090683 234 88 12
0.16591817 1.1733893 2.0090683 234 88 12
0.15682834 1.1745019 2.0090683 234 88 12
0.14773852 1.1756145 2.0090683 234 88 12
0.14622355 1.1758 2.0090683 234 88 12
0.13158235 1.0594609 1.4022473 234 88 12
0.12032031 1.0608393 1.4022473 234 88 12
0.11281227 1.0617583 1.4022473 234 88 12
0.10155023 1.0631368 1.4022473 234 88 12
0.094042197 1.0640558 1.4022473 234 88 12
0.086534165 1.0649748 1.4022473 234 88 12
0.075272121 1.0663532 1.4022473 234 88 12
0.067764089 1.0672722 1.4022473 234 88 12
0.060256056 1.0681912 1.4022473 234 88 12
0.17962576 1.2196801 2.2523396 234 88 12
0.15699269 1.1758447 2.0083616 234 88 12
0.12448157 1.0637071 1.4004959 234 88 12
0.12072756 1.0641667 1.4004959 234 88 12
0.068171345 1.0705994 1.4004959 234 88 12
0.060663309 1.0715184 1.4004959 234 88 12
0.16776185 1.1758894 2.0076547 234 88 12
0.16624688 1.1760749 2.0076547 234 88 12
0.094856702 1.0707103 1.3987446 234 88 12
0.087348677 1.0716293 1.3987446 234 88 12
0.076086625 1.0730077 1.3987446 234 88 12
0.11550756 1.1866548 2.0309727 234 88 12
0.1126491 1.1870047 2.0309727 234 88 12
0.18004596 1.1757487 2.006948 234 88 12
0.13914174 1.1807554 2.006948 234 88 12
0.11403403 1.0717402 1.3969932 234 88 12
0.10277199 1.0731186 1.3969932 234 88 12
0.043577734 1.0818384 1.4050171 234 88 12
0.19081511 1.1757934 2.0062411 234 88 12
0.076901138 1.0796622 1.3952419 234 88 12
0.063209176 1.0840029 1.4100331 234 88 12
0.059509363 1.0844557 1.4100331 234 88 12
0.063933909 1.0990268 1.4939201 234 88 12
0.060541511 1.099442 1.4939201 234 88 12
0.050346322 1.0889258 1.4286205 234 88 12
0.042976897 1.0896566 1.4276695 234 88 12
0.21385989 1.1851386 2.0667217 234 88 12
0.21067409 1.1747257 2.0055344 234 88 12
0.20158426 1.1758382 2.0055344 234 88 12
0.10122341 1.0847501 1.4200414 234 88 12
0.093909636 1.0856452 1.4200414 234 88 12
0.088570438 1.081611 1.3934906 234 88 12
0.084816419 1.0820705 1.3934906 234 88 12
0.077308387 1.0829895 1.3934906 234 88 12
0.06996768 1.0842497 1.3955396 234 88 12
0.058728121 1.0856255 1.3955396 234 88 12
0.056283649 1.0883121 1.4090623 234 88 12
0.055959575 1.0943103 1.4428107 234 88 12
0.052385986 1.0947478 1.4428107 234 88 12
0.10532632 1.2200986 2.1894903 234 88 12
0.21083844 1.1760683 2.0048275 234 88 12
0.20932347 1.1762538 2.0048275 234 88 12
0.14114977 1.1845982 2.0048275 234 88 12
0.1396348 1.1847836 2.0048275 234 88 12
0.10060984 1.0963552 1.4659759 234 88 12
0.10250801 1.1118437 1.5568637 234 88 12
0.077394679 1.0940216 1.436056 234 88 12
0.071439281 1.0897113 1.4069228 234 88 12
0.067740716 1.0901639 1.4069228 234 88 12
0.063511223 1.0896431 1.4009184 234 88 12
0.05979073 1.0900985 1.4009184 234 88 12
0.096449301 1.1623675 1.844672 234 88 12
0.11983035 1.2077311 2.123481 234 88 12
0.10836095 1.1995273 2.0679357 234 88 12
0.15352836 1.2522403 2.4043343 234 88 12
0.13070932 1.1872389 2.0041208 234 88 12
0.099698879 1.1150222 1.5553937 234 88 12
0.125497 1.186164 1.9940087 234 88 12
0.081876911 1.0891845 1.3899878 234 88 12
0.078122899 1.0896441 1.3899878 234 88 12
0.096677102 1.1642286 1.8436923 234 88 12
0.047795165 1.0988774 1.4225818 234 88 12
0.16268806 1.1846876 2.0034139 234 88 12
0.13467112 1.2032502 2.0946696 234 88 12
0.13322848 1.2109208 2.1398599 234 88 12
0.11540289 1.1766272 1.919908 234 88 12
0.13086241 1.2105281 2.1357458 234 88 12
0.14825003 1.2453413 2.3585074 234 88 12
0.056006055 1.0957282 1.3882364 234 88 12
0.1203083 1.2066015 2.1042778 234 88 12
0.14823903 1.2478625 2.3737018 234 88 12
0.17497219 1.1845469 2.0027072 234 88 12
0.1437113 1.2338496 2.2829349 234 88 12
0.14925931 1.2469062 2.367574 234 88 12
0.14907008 1.2469294 2.367574 234 88 12
0.14925507 1.2475783 2.3717124 234 88 12
0.18574134 1.1845917 2.0020006 234 88 12
0.18422636 1.1847771 2.0020006 234 88 12
0.15088366 1.2488514 2.3799198 234 88 12
0.14370066 1.2378364 2.3049932 234 88 12
0.14525314 1.2422228 2.3338223 234 88 12
0.13338779 1.2285742 2.2386959 234 88 12
0.11574089 1.2073351 2.0912964 234 88 12
0.19260077 1.213961 2.1871333 234 88 12
0.19651048 1.1846364 2.0012937 234 88 12
0.12530684 1.1933516 2.0012937 234 88 12
0.14244162 1.2341394 2.2775784 234 88 12
0.13429597 1.2326261 2.2614055 234 88 12
0.2122581 1.1934651 2.0625052 234 88 12
0.20727964 1.1846812 2.000587 234 88 12
0.14090025 1.232777 2.2640634 234 88 12
0.13977531 1.2329147 2.2640634 234 88 12
0.13566032 1.2275859 2.2256181 234 88 12
0.12547196 1.2138442 2.1268167 234 88 12
0.11658131 1.2116603 2.105248 234 88 12
0.21239817 1.1946095 2.0619028 234 88 12
0.20895895 1.1858385 1.9998802 234 88 12
0.2013841 1.1867656 1.9998802 234 88 12
0.19229427 1.1878781 1.9998802 234 88 12
0.18320444 1.1889908 1.9998802 234 88 12
0.1325887 1.2106602 2.1042907 234 88 12
0.13145055 1.2107996 2.1042907 234 88 12
0.12260561 1.196408 1.9998802 234 88 12
0.13142677 1.221782 2.1783743 234 88 12
0.1325206 1.2258894 2.2069926 234 88 12
0.12678719 1.2207373 2.1674943 234 88 12
0.12244215 1.2215137 2.1691446 234 88 12
0.15343334 1.2545038 2.4172826 234 88 12
0.1406967 1.2321427 2.2519903 234 88 12
0.13496169 1.2236212 2.1882548 234 88 12
0.12052704 1.2043231 2.0426917 234 88 12
0.12534745 1.2167989 2.1329792 234 88 12
0.12688591 1.2215439 2.1670697 234 88 12
0.12494876 1.2137679 2.1041121 234 88 12
0.11298133 1.2118211 2.0799565 234 88 12
0.074646369 1.2083707 2.0223045 234 88 12
0.17631461 1.2284015 2.2480268 234 88 12
0.12509659 1.2040002 2.025404 234 88 12
0.12226517 1.2043468 2.025404 234 88 12
0.13225895 1.2220514 2.1627924 234 88 12
0.1068316 1.1989601 1.972592 234 88 12
0.10522626 1.1991565 1.972592 234 88 12
0.21037619 1.1995029 2.0594933 234 88 12
0.19143671 1.1934346 1.997053 234 88 12
0.10726446 1.228951 2.1847765 234 88 12
0.20372082 1.1932939 1.9963462 234 88 12
0.20069088 1.1936648 1.9963462 234 88 12
0.11649971 1.1974645 1.9466387 234 88 12
0.10396922 1.2021987 1.9710941 234 88 12
0.09594249 1.2031811 1.9710941 234 88 12
0.13940848 1.2459608 2.3386352 234 88 12
0.2411515 1.1094877 1.3632662 234 88 12
0.11779881 1.2055737 1.9987788 234 88 12
0.11056476 1.2028356 1.9703451 234 88 12
0.14146961 1.2459693 2.3385 234 88 12
0.20950526 1.2030941 2.0576863 234 88 12
0.18926314 1.2226331 2.1889169 234 88 12
0.24951923 1.1152543 1.3597444 234 88 12
0.1189398 1.2046988 1.9688473 234 88 12
0.17548318 1.2318298 2.2463017 234 88 12
0.25747749 1.1176757 1.3579836 234 88 12
0.17924777 1.2319235 2.2460141 234 88 12
0.26543576 1.120097 1.3562227 234 88 12
0.091997229 1.2108849 1.9673494 234 88 12
0.26584524 1.1234424 1.3544618 234 88 12
0.26207083 1.1239043 1.3544618 234 88 12
0.10340881 1.2109323 1.9666004 234 88 12
0.20790122 1.2023222 1.9913988 234 88 12
0.2738035 1.1258637 1.3527009 234 88 12
0.27798736 1.1287471 1.3509401 234 88 12
0.27043855 1.129671 1.3509401 234 88 12
0.090914346 1.2153499 1.9651026 234 88 12
0.20661235 1.2115786 2.0534699 234 88 12
0.28217122 1.1316304 1.3491791 234 88 12
0.27839682 1.1320924 1.3491791 234 88 12
0.27084801 1.1330163 1.3491791 234 88 12
0.15055029 1.2519865 2.3876438 234 88 12
0.28635508 1.1345137 1.3474183 234 88 12
0.14909536 1.2522662 2.3875911 234 88 12
0.28717402 1.1412044 1.3438966 234 88 12
0.27962521 1.1421283 1.3438966 234 88 12
0.20588149 1.2163141 2.0510604 234 88 12
0.28758347 1.1445497 1.3421357 234 88 12
0.28003469 1.1454737 1.3421357 234 88 12
0.21056665 1.211536 1.9864513 234 88 12
0.17806749 1.237612 2.243139 234 88 12
0.21073101 1.2128788 1.9857446 234 88 12
0.284628 1.1517024 1.338614 234 88 12
0.28167254 1.158855 1.3350922 234 88 12
0.28208202 1.1622003 1.3333313 234 88 12
0.2067219 1.2231802 2.0474465 234 88 12
0.2129034 1.2180644 1.9829174 234 88 12
0.2795243 1.1676008 1.3566169 234 88 12
0.21491142 1.2219073 1.9807971 234 88 12
0.28072444 1.1774057 1.3514559 234 88 12
0.28112447 1.1806741 1.3497355 234 88 12
0.15324581 1.2547419 2.417171 234 88 12
0.28192455 1.1872107 1.3462949 234 88 12
0.27823704 1.187662 1.3462949 234 88 12
0.27534959 1.1946501 1.3428541 234 88 12
0.27206212 1.1983697 1.3411338 234 88 12
0.11248019 1.2448833 2.0009677 234 88 12
0.12700729 1.2449324 1.974436 234 88 12
0.12708257 1.2456673 1.9996341 234 88 12
-1.3317736 1.3131948 1.9598037 234 88 12
-1.2805009 1.2739215 1.8248028 234 88 12
-1.2813725 1.2730371 1.8248028 234 88 12
-1.2822442 1.2721528 1.8248028 234 88 12
-1.2607056 1.2599114 1.7652098 234 88 12
-1.263683 1.2568908 1.7652098 234 88 12
-1.218753 1.2295988 1.6499902 234 88 12
-1.2196661 1.2286724 1.6499902 234 88 12
-1.2205791 1.227746 1.6499902 234 88 12
-1.2670985 1.2543018 1.7646257 234 88 12
-1.2775151 1.28144 1.8218098 234 88 12
-1.2175984 1.2321136 1.6490945 234 88 12
-1.2203379 1.2293345 1.6490945 234 88 12
-1.222164 1.2274817 1.6490945 234 88 12
-1.2901548 1.2686166 1.8218098 234 88 12
-1.2584468 1.2648317 1.7634573 234 88 12
-1.2292277 1.2216591 1.6481987 234 88 12
-1.2685701 1.2545613 1.7634573 234 88 12
-1.2150481 1.238732 1.6464072 234 88 12
-1.2724237 1.2524041 1.762289 234 88 12
-1.2198026 1.2379391 1.6437199 234 88 12
-1.2289338 1.2286751 1.6437199 234 88 12
-1.238065 1.2194113 1.6437199 234 88 12
-1.204228 1.2201899 1.5844481 234 88 12
-1.2052994 1.2191029 1.5844481 234 88 12
-1.2378236 1.2209997 1.6428242 234 88 12
-1.2018019 1.2242278 1.583397 234 88 12
-1.2114447 1.2144448 1.583397 234 88 12
-1.2145128 1.2473365 1.6410327 234 88 12
-1.2142715 1.2489251 1.640137 234 88 12
-1.217924 1.2452195 1.640137 234 88 12
-1.2197502 1.2433667 1.640137 234 88 12
-1.2001641 1.2290426 1.581295 234 88 12
-1.2352732 1.227618 1.640137 234 88 12
-1.2380126 1.2248389 1.640137 234 88 12
-1.2434913 1.2192805 1.640137 234 88 12
-1.1995976 1.2327704 1.5791929 234 88 12
-1.2028118 1.2295094 1.5791929 234 88 12
-1.2049546 1.2273355 1.5791929 234 88 12
-1.2113832 1.2208134 1.5791929 234 88 12
-1.2135261 1.2186394 1.5791929 234 88 12
-1.2199546 1.2121174 1.5791929 234 88 12
-1.2773247 1.2899705 1.8162514 234 88 12
-1.2777606 1.2895284 1.8162514 234 88 12
-1.2464195 1.2203404 1.6374496 234 88 12
-1.2969382 1.2700719 1.8162514 234 88 12
-1.2796243 1.2547373 1.7558632 234 88 12
-1.2814108 1.2529248 1.7558632 234 88 12
-1.2148908 1.2550148 1.6356581 234 88 12
-1.1987479 1.2383621 1.5760397 234 88 12
-1.3337015 1.3133011 1.958429 234 88 12
-1.281096 1.2549967 1.7546949 234 88 12
-1.2816914 1.2543925 1.7546949 234 88 12
-1.2024671 1.2377418 1.5739377 234 88 12
-1.2110385 1.2290459 1.5739377 234 88 12
-1.2990924 1.2704517 1.8145412 234 88 12
-1.2203981 1.2211268 1.5728866 234 88 12
-1.2289695 1.2124307 1.5728866 234 88 12
-1.2155101 1.2611045 1.6311793 234 88 12
-1.1984031 1.2465945 1.5707844 234 88 12
-1.2492955 1.226828 1.6311793 234 88 12
-1.1991913 1.2473714 1.5697334 234 88 12
-1.2013341 1.2451975 1.5697334 234 88 12
-1.2024056 1.2441105 1.5697334 234 88 12
-1.2099055 1.2365015 1.5697334 234 88 12
-1.210977 1.2354145 1.5697334 234 88 12
-1.2184769 1.2278055 1.5697334 234 88 12
-1.2206198 1.2256315 1.5697334 234 88 12
-1.2270484 1.2191094 1.5697334 234 88 12
-1.2291912 1.2169354 1.5697334 234 88 12
-1.2021223 1.2459744 1.5686823 234 88 12
-1.2552046 1.2235202 1.6293879 234 88 12
-1.2166122 1.2640172 1.6284921 234 88 12
-1.2114819 1.2380552 1.5676314 234 88 12
-1.2200533 1.2293593 1.5676314 234 88 12
-1.2286247 1.2206633 1.5676314 234 88 12
-1.2379843 1.2127441 1.5665803 234 88 12
-1.2902405 1.2544814 1.7488533 234 88 12
-1.1996348 1.2563809 1.5634271 234 88 12
-1.2900832 1.2555174 1.7482691 234 88 12
-1.2025658 1.2549838 1.562376 234 88 12
-1.2111372 1.2462877 1.562376 234 88 12
-1.2197086 1.2375917 1.562376 234 88 12
-1.2179033 1.270769 1.6231176 234 88 12
-1.2197294 1.2689162 1.6231176 234 88 12
-1.2001398 1.2590216 1.561325 234 88 12
-1.2022825 1.2568476 1.561325 234 88 12
-1.2044255 1.2546736 1.561325 234 88 12
-1.2108539 1.2481517 1.561325 234 88 12
-1.2140682 1.2448907 1.561325 234 88 12
-1.2204968 1.2383686 1.561325 234 88 12
-1.2226397 1.2361946 1.561325 234 88 12
-1.2290682 1.2296727 1.561325 234 88 12
-1.2312111 1.2274987 1.561325 234 88 12
-1.2376395 1.2209766 1.561325 234 88 12
-1.2397825 1.2188026 1.561325 234 88 12
-1.2462109 1.2122806 1.561325 234 88 12
-1.2617329 1.2263021 1.6231176 234 88 12
-1.2635592 1.2244494 1.6231176 234 88 12
-1.2792886 1.2988807 1.8089828 234 88 12
-1.2176619 1.2723575 1.6222218 234 88 12
-1.2756931 1.2754292 1.7521456 234 88 12
-1.2791796 1.271892 1.7521456 234 88 12
-1.2813504 1.2705446 1.7515756 234 88 12
-1.2510016 1.2105734 1.5592229 234 88 12
-1.2924309 1.2566404 1.7459325 234 88 12
-1.1982186 1.2657003 1.5581719 234 88 12
-1.2718992 1.2809883 1.7510055 234 88 12
-1.255004 1.2080894 1.5581719 234 88 12
-1.2952509 1.2546556 1.7453483 234 88 12
-0.99570233 1.1816566 0.92712462 234 88 12
-1.0010411 1.1762403 0.92712462 234 88 12
-1.0037104 1.1735321 0.92712462 234 88 12
-1.0090491 1.1681159 0.92712462 234 88 12
-1.2705834 1.2831783 1.7504355 234 88 12
-1.2723267 1.2814097 1.7504355 234 88 12
-1.2810432 1.2725666 1.7504355 234 88 12
-1.2796996 1.3010293 1.8072726 234 88 12
-0.99232727 1.1890085 0.92450601 234 88 12
-1.0163515 1.1646351 0.92450601 234 88 12
-1.2901871 1.2641447 1.7498655 234 88 12
-0.99162167 1.1936522 0.92188746 234 88 12
-1.338185 1.3193661 1.9771472 234 88 12
-1.3342396 1.3173724 1.9638903 234 88 12
-1.0545607 1.1323819 0.92759955 234 88 12
-1.0572156 1.1296884 0.92759955 234 88 12
-1.0625255 1.1243013 0.92759955 234 88 12
-1.0651804 1.1216078 0.92759955 234 88 12
-1.0704902 1.1162207 0.92759955 234 88 12
-1.0731452 1.1135272 0.92759955 234 88 12
-1.08111 1.1054466 0.92759955 234 88 12
-1.29875 1.2563123 1.7492955 234 88 12
-1.2670115 1.200637 1.5550187 234 88 12
-1.2995425 1.2529303 1.7435958 234 88 12
1.3093539 -1.3307374 1.9508117 234 88 12
1.2927935 -1.319702 1.9047273 234 88 12
1.2917238 -1.321946 1.9039228 234 88 12
1.2904763 -1.3252577 1.9025146 234 88 12
1.3190229 -1.3383393 1.9772716 234 88 12
1.2985899 -1.3172603 1.9025146 234 88 12
1.2050239 -1.2440794 1.5988767 234 88 12
1.2026805 -1.2478553 1.5978853 234 88 12
1.2108842 -1.239769 1.5978853 234 88 12
1.2078396 -1.2173349 1.5508553 234 88 12
1.2023878 -1.2496097 1.5968937 234 88 12
1.2064898 -1.2455665 1.5968937 234 88 12
1.3153744 -1.335178 1.9645878 234 88 12
1.2116172 -1.2405126 1.5968937 234 88 12
1.2174774 -1.2362022 1.5959021 234 88 12
1.2007773 -1.2541292 1.5949105 234 88 12
1.2202613 -1.2349243 1.5949105 234 88 12
1.2004848 -1.2558836 1.5939189 234 88 12
1.2022431 -1.2556163 1.5929273 234 88 12
1.2897934 -1.32831 1.9009054 234 88 12
1.1944797 -1.2662005 1.5909443 234 88 12
1.2293459 -1.2318339 1.5909443 234 88 12
1.1900852 -1.271998 1.5899527 234 88 12
1.3161358 -1.3348284 1.9643166 234 88 12
1.1877416 -1.275774 1.5889611 234 88 12
1.1853982 -1.27955 1.5879695 234 88 12
1.193602 -1.2714636 1.5879695 234 88 12
1.2018058 -1.2633774 1.5879695 234 88 12
1.2028313 -1.2623667 1.5879695 234 88 12
1.2356466 -1.2300215 1.5879695 234 88 12
1.1820291 -1.2843367 1.586978 234 88 12
1.1851056 -1.2813044 1.586978 234 88 12
1.1933094 -1.273218 1.586978 234 88 12
1.2025387 -1.2641209 1.586978 234 88 12
1.2374051 -1.2297543 1.586978 234 88 12
1.1783676 -1.2908778 1.5849949 234 88 12
1.2419474 -1.2282091 1.5849949 234 88 12
1.2108904 -1.260287 1.5840033 234 88 12
1.1747061 -1.2974188 1.5830117 234 88 12
1.2464896 -1.2266639 1.5830117 234 88 12
1.1744136 -1.2991732 1.5820202 234 88 12
1.1761719 -1.2989061 1.5810286 234 88 12
1.1854012 -1.289809 1.5810286 234 88 12
1.1936051 -1.2817227 1.5810286 234 88 12
1.3096297 -1.3304372 1.9391119 234 88 12
1.306271 -1.3338965 1.9390115 234 88 12
1.306583 -1.3335888 1.9390115 234 88 12
1.3079355 -1.3322558 1.9390115 234 88 12
1.1714849 -1.3064579 1.5790455 234 88 12
1.1766123 -1.301404 1.5790455 234 88 12
1.1796888 -1.2983717 1.5790455 234 88 12
1.218029 -1.2498688 1.5550187 234 88 12
1.220203 -1.2477258 1.5550187 234 88 12
1.2223771 -1.2455829 1.5550187 234 88 12
1.2555742 -1.2235736 1.5790455 234 88 12
1.3975401 1.3980565 1.8268851 234 88 12
1.3844768 1.3855095 1.7901036 234 88 12
1.3836505 1.3863357 1.7901036 234 88 12
1.3848243 1.3854439 1.7898899 234 88 12
1.3837914 1.3864768 1.7898899 234 88 12
1.2816783 1.2867692 1.5012293 234 88 12
1.2806602 1.2877873 1.5012293 234 88 12
1.2786238 1.2898237 1.5012293 234 88 12
1.2844094 1.2854276 1.5001767 234 88 12
1.2803367 1.2895002 1.5001767 234 88 12
1.2793186 1.2905184 1.5001767 234 88 12
1.3865618 1.3851159 1.7888223 234 88 12
1.2827444 1.2898716 1.4980716 234 88 12
1.2752938 1.2987115 1.4970189 234 88 12
1.291261 1.2841339 1.4959663 234 88 12
1.3398929 1.3404782 1.6519157 234 88 12
1.3375515 1.3428196 1.6519157 234 88 12
1.3434324 1.3393351 1.6501002 234 88 12
1.2719638 1.3075994 1.4928086 234 88 12
1.3438319 1.3397344 1.6494951 234 88 12
1.3420758 1.3414905 1.6494951 234 88 12
1.3409052 1.3426611 1.6494951 234 88 12
1.2818221 1.2991308 1.491756 234 88 12
1.2726586 1.3082942 1.491756 234 88 12
1.2977892 1.2845532 1.4907033 234 88 12
1.283535 1.2988074 1.4907033 234 88 12
1.2804805 1.3018619 1.4907033 234 88 12
1.2743715 1.3079708 1.4907033 234 88 12
1.271317 1.3110253 1.4907033 234 88 12
1.4000481 1.3980857 1.8249631 234 88 12
1.2995021 1.2842298 1.4896507 234 88 12
1.3432741 1.3426887 1.6476797 234 88 12
1.2703468 1.3161639 1.4875455 234 88 12
1.2819179 1.3073719 1.4854404 234 88 12
1.2727544 1.3165352 1.4854404 234 88 12
1.3801317 1.3952104 1.7860461 234 88 12
1.3074198 1.2860384 1.4822825 234 88 12
1.2880747 1.3053834 1.4822825 234 88 12
1.2860384 1.3074198 1.4822825 234 88 12
1.2809477 1.3125106 1.4822825 234 88 12
1.276875 1.3165832 1.4822825 234 88 12
1.2717842 1.321674 1.4822825 234 88 12
1.3519233 1.3396312 1.6434437 234 88 12
1.2694244 1.3254232 1.4812299 234 88 12
1.3416007 1.3515514 1.6422334 234 88 12
1.3513656 1.3425854 1.6416283 234 88 12
1.3425854 1.3513656 1.6416283 234 88 12
1.2898356 1.3091806 1.4780722 234 88 12
1.2827084 1.3163077 1.4780722 234 88 12
1.273545 1.3254712 1.4780722 234 88 12
1.3550911 1.3404576 1.6404181 234 88 12
1.3527497 1.3427989 1.6404181 234 88 12
1.3509936 1.3445549 1.6404181 234 88 12
1.3439696 1.351579 1.6404181 234 88 12
1.3422135 1.353335 1.6404181 234 88 12
1.3163556 1.286829 1.4749143 234 88 12
1.3170503 1.2875237 1.4738618 234 88 12
1.2865056 1.3180685 1.4738618 234 88 12
1.2803966 1.3241775 1.4738618 234 88 12
1.2793784 1.3251956 1.4738618 234 88 12
1.2722514 1.3323227 1.4738618 234 88 12
1.0908993 1.1631054 0.8384158 234 88 12
1.0855507 1.1684541 0.8384158 234 88 12
1.271928 1.3340356 1.4728092 234 88 12
1.100747 1.1569073 0.83565104 234 88 12
1.0980728 1.1595817 0.83565104 234 88 12
1.0900499 1.1676046 0.83565104 234 88 12
1.3385432 1.3602008 1.6379974 234 88 12
1.2817861 1.3255669 1.4717566 234 88 12
1.2736409 1.3337122 1.4717566 234 88 12
1.1105947 1.1507093 0.83288628 234 88 12
1.1052462 1.1560578 0.83288628 234 88 12
1.1025718 1.1587322 0.83288628 234 88 12
1.0945489 1.1667551 0.83288628 234 88 12
1.0918746 1.1694293 0.83288628 234 88 12
1.086526 1.174778 0.83288628 234 88 12
1.0838517 1.1774522 0.83288628 234 88 12
