ply
format ascii 1.0
element vertex 1574
property float x
property float y
property float z
property uchar red
property uchar green
property uchar blue
end_header
0.34758073 -1.0118639 1.5348825 234 88 12
0.32637951 -1.0098914 1.5114106 234 88 12
1.2651039 -0.31580576 1.3182946 234 88 12
1.29963 -0.31425765 1.3270475 234 88 12
1.2662321 -0.30896553 1.3182946 234 88 12
1.228758 -0.3031702 1.3084794 234 88 12
1.2180189 -0.29886332 1.3055552 234 88 12
1.2394465 -0.31826174 1.3083923 234 88 12
1.2514963 -0.3153311 1.3113872 234 88 12
1.1893929 -0.30841401 1.295011 234 88 12
1.1900039 -0.30470979 1.295011 234 88 12
1.2046789 -0.30188078 1.2986901 234 88 12
1.3336818 -0.30668992 1.332299 234 88 12
1.2060522 -0.3169179 1.2961012 234 88 12
1.1800612 -0.31191492 1.2890624 234 88 12
1.1937855 -0.30888775 1.2925338 234 88 12
1.1876622 -0.30104053 1.2905868 234 88 12
1.1929941 -0.29762781 1.2918385 234 88 12
1.2628245 -0.29872513 1.3102154 234 88 12
1.3076119 -0.34829992 1.3208957 234 88 12
1.2094276 -0.34290859 1.2945378 234 88 12
1.2685466 -0.34075287 1.3101715 234 88 12
1.2015445 -0.33539328 1.2921107 234 88 12
1.2108787 -0.33201656 1.2944459 234 88 12
1.2320323 -0.32197234 1.2996329 234 88 12
1.1951787 -0.31665176 1.2895948 234 88 12
1.1965091 -0.30554047 1.2894611 234 88 12
1.2166733 -0.3505933 1.2932433 234 88 12
1.1957159 -0.34661111 1.2874156 234 88 12
1.1913055 -0.34282258 1.2860579 234 88 12
1.1919159 -0.33912221 1.2860579 234 88 12
1.2774422 -0.32418013 1.3084533 234 88 12
1.1916252 -0.31673485 1.2849841 234 88 12
1.1846228 -0.31263533 1.2829138 234 88 12
1.2066228 -0.30264834 1.2884014 234 88 12
1.2181313 -0.29969123 1.2913728 234 88 12
1.200374 -0.35436025 1.2853853 234 88 12
1.2062181 -0.35076305 1.2868198 234 88 12
1.185927 -0.3467533 1.2810954 234 88 12
1.1847317 -0.33924291 1.2804303 234 88 12
1.1946427 -0.33577093 1.2829818 234 88 12
1.2261618 -0.33305606 1.2914709 234 88 12
1.2258298 -0.3258214 1.2910541 234 88 12
1.225812 -0.32220209 1.2908862 234 88 12
1.1916113 -0.31698564 1.281307 234 88 12
1.1867635 -0.31298843 1.2798024 234 88 12
1.1903465 -0.30186683 1.2802801 234 88 12
1.1935873 -0.3509118 1.2797027 234 88 12
1.1960058 -0.33609897 1.2796959 234 88 12
1.2126156 -0.32923567 1.2839805 234 88 12
1.1993457 -0.32504833 1.280116 234 88 12
1.2573439 -0.32379845 1.296114 234 88 12
1.2004023 -0.30270353 1.2793882 234 88 12
1.2076437 -0.29942641 1.2812432 234 88 12
1.2546109 -0.29536888 1.2940594 234 88 12
1.2136977 -0.28869975 1.2824293 234 88 12
1.2143024 -0.28503254 1.2824293 234 88 12
1.2228932 -0.28203213 1.2846705 234 88 12
1.2463009 -0.28038406 1.291075 234 88 12
1.2143931 -0.32222196 1.2805219 234 88 12
1.1934088 -0.31757459 1.274422 234 88 12
1.1967225 -0.31022269 1.2750113 234 88 12
1.2079176 -0.30710408 1.2780067 234 88 12
1.2237616 -0.29700759 1.281983 234 88 12
1.2047701 -0.29196155 1.2764236 234 88 12
1.224974 -0.28237531 1.2816463 234 88 12
1.2345743 -0.27952123 1.2842065 234 88 12
1.2261962 -0.35196942 1.2816228 234 88 12
1.1967727 -0.34788033 1.2730725 234 88 12
1.1971776 -0.34044272 1.272839 234 88 12
1.1996856 -0.32932964 1.2730308 234 88 12
1.1990669 -0.32183269 1.2725037 234 88 12
1.1961256 -0.31042874 1.2711339 234 88 12
1.2047291 -0.30340821 1.273249 234 88 12
1.2013694 -0.29944545 1.2721089 234 88 12
1.2003756 -0.29561433 1.2716471 234 88 12
1.2019876 -0.28818837 1.2717571 234 88 12
1.2026021 -0.28446233 1.2717571 234 88 12
1.2302651 -0.28298545 1.2795465 234 88 12
1.1999252 -0.35195962 1.2704625 234 88 12
1.205588 -0.33723438 1.2713931 234 88 12
1.2024193 -0.32596996 1.2699468 234 88 12
1.2039989 -0.31856686 1.2700499 234 88 12
1.2312279 -0.31252933 1.2775983 234 88 12
1.3456285 -0.31537658 1.3106507 234 88 12
1.2125043 -0.28168163 1.2707468 234 88 12
1.2134166 -0.27800837 1.2708349 234 88 12
1.2507299 -0.34936044 1.2814299 234 88 12
1.2424157 -0.32775542 1.2779686 234 88 12
1.2053773 -0.31139621 1.2663891 234 88 12
1.2645739 -0.31099239 1.2836201 234 88 12
1.2281541 -0.27945003 1.2714911 234 88 12
1.2267549 -0.34929332 1.2708088 234 88 12
1.2378873 -0.34587222 1.2739273 234 88 12
1.2017283 -0.34145185 1.263042 234 88 12
1.2019062 -0.3377215 1.262913 234 88 12
1.2018692 -0.33023772 1.2625378 234 88 12
1.2060207 -0.3266457 1.2635881 234 88 12
1.2224061 -0.31990519 1.2680951 234 88 12
1.2068899 -0.31546235 1.2633002 234 88 12
1.2060751 -0.3116717 1.2628753 234 88 12
1.3787339 -0.31763712 1.3141161 234 88 12
1.2067034 -0.30419391 1.2626967 234 88 12
1.2135841 -0.29338381 1.264201 234 88 12
1.2099445 -0.28936026 1.2629312 234 88 12
1.2105581 -0.28564006 1.2629312 234 88 12
1.2299548 -0.28347188 1.2685496 234 88 12
1.3019714 -0.28599253 1.2899239 234 88 12
1.2794353 -0.34004748 1.2824467 234 88 12
1.2542832 -0.33583671 1.2747239 234 88 12
1.2879907 -0.32653999 1.2843374 234 88 12
1.2238566 -0.28686979 1.2632195 234 88 12
1.2292936 -0.28358957 1.2646824 234 88 12
1.2095959 -0.34223366 1.2579558 234 88 12
1.2184377 -0.3350485 1.260272 234 88 12
1.2568895 -0.33263367 1.2717837 234 88 12
1.212374 -0.31622303 1.2574984 234 88 12
1.2202665 -0.3017239 1.2591627 234 88 12
1.2124579 -0.29746804 1.2565881 234 88 12
1.225354 -0.29089537 1.2601614 234 88 12
1.2292738 -0.28747687 1.2611766 234 88 12
1.2157595 -0.28264907 1.2568475 234 88 12
1.230636 -0.33203205 1.2601368 234 88 12
1.2101277 -0.32761297 1.2536329 234 88 12
1.2127839 -0.32023537 1.2540737 234 88 12
1.2115406 -0.31267712 1.2533113 234 88 12
1.210796 -0.3088772 1.2528913 234 88 12
1.213973 -0.30154133 1.2534937 234 88 12
1.2129452 -0.29393753 1.2527949 234 88 12
1.2169341 -0.28669232 1.2536505 234 88 12
1.2237681 -0.28348279 1.2555813 234 88 12
1.2246234 -0.32841593 1.254397 234 88 12
1.2213848 -0.31715113 1.252817 234 88 12
1.2208184 -0.29844403 1.251685 234 88 12
1.2253829 -0.29501605 1.2529248 234 88 12
1.2313039 -0.28799957 1.2544016 234 88 12
1.2111987 -0.33195177 1.2466358 234 88 12
1.2355136 -0.31807125 1.2535466 234 88 12
1.2126958 -0.31322035 1.2461363 234 88 12
1.2345443 -0.30696315 1.2526677 234 88 12
1.3407341 -0.33640969 1.284206 234 88 12
1.2174764 -0.32870063 1.244662 234 88 12
1.2142469 -0.32107294 1.2432371 234 88 12
1.2211913 -0.31763887 1.2452625 234 88 12
1.2218032 -0.31392905 1.2452625 234 88 12
1.2690028 -0.31277692 1.2601902 234 88 12
1.2408307 -0.33346581 1.2486278 234 88 12
1.236161 -0.31120461 1.2459474 234 88 12
1.2364035 -0.32992202 1.2432818 234 88 12
1.2189493 -0.32555199 1.237372 234 88 12
1.2193762 -0.3218143 1.2373104 234 88 12
1.2442594 -0.3192201 1.2452624 234 88 12
1.2544783 -0.31243327 1.2482213 234 88 12
1.2381281 -0.33025444 1.2401154 234 88 12
1.2215099 -0.3221662 1.2342093 234 88 12
1.2653948 -0.31325313 1.2481636 234 88 12
1.2345413 -0.33040181 1.2351681 234 88 12
1.2305844 -0.311602 1.2328191 234 88 12
1.225045 -0.32283911 1.2277585 234 88 12
1.2318513 -0.31565094 1.2296512 234 88 12
1.2328565 -0.32342947 1.2266017 234 88 12
0.43484995 1.0314628 1.4849411 234 88 12
0.4192239 1.0290205 1.4799061 234 88 12
0.47255281 1.0529871 1.5014458 234 88 12
0.42073098 1.0403756 1.4834903 234 88 12
0.41521946 1.0594784 1.4872777 234 88 12
0.43876466 1.0745401 1.4980363 234 88 12
0.44255164 1.0319566 1.4835852 234 88 12
0.42398679 1.0283288 1.4773411 234 88 12
0.4546842 1.0472323 1.491297 234 88 12
0.45216271 1.0497538 1.491297 234 88 12
0.41095445 1.0378352 1.4763489 234 88 12
0.41702324 1.0436713 1.4796985 234 88 12
0.41751796 1.0579451 1.4838539 234 88 12
0.39063475 1.05196 1.4746059 234 88 12
0.44361648 1.0739772 1.4957081 234 88 12
0.37761968 1.0545571 1.4716746 234 88 12
0.45099485 1.0363233 1.4835656 234 88 12
0.4081682 1.0233066 1.4677016 234 88 12
0.40307978 1.0323852 1.4688351 234 88 12
0.42322266 1.0435244 1.4777217 234 88 12
0.4687891 1.0739276 1.4993033 234 88 12
0.39018357 1.0493926 1.470003 234 88 12
0.37381718 1.0472269 1.4647384 234 88 12
0.39629114 1.0586481 1.4743674 234 88 12
0.377893 1.0558395 1.4683429 234 88 12
0.41872111 1.0211378 1.466311 234 88 12
0.40940309 1.0211974 1.4636555 234 88 12
0.4023228 1.0258772 1.462967 234 88 12
0.40489164 1.034197 1.46609 234 88 12
0.41453397 1.0414147 1.4709256 234 88 12
0.41712451 1.0565733 1.4760162 234 88 12
0.39199004 1.0511991 1.4672661 234 88 12
0.37564787 1.0490576 1.4619647 234 88 12
0.37610531 1.0564193 1.4642073 234 88 12
0.41122606 1.0230204 1.4608935 234 88 12
0.44370013 1.0427641 1.4760133 234 88 12
0.43855795 1.0479063 1.4760133 234 88 12
0.51845664 1.0809807 1.508725 234 88 12
0.39128226 1.0449063 1.4614558 234 88 12
0.38312414 1.0456219 1.4593009 234 88 12
0.38172418 1.052368 1.4608489 234 88 12
0.39893746 1.0619012 1.4685934 234 88 12
0.42498064 1.0220994 1.4608172 234 88 12
0.42184919 1.0245667 1.460623 234 88 12
0.41304901 1.0248433 1.4581316 234 88 12
0.43023756 1.0387411 1.4672184 234 88 12
0.41170347 1.0353658 1.4608141 234 88 12
0.57465494 1.1027168 1.5281339 234 88 12
0.46256471 1.0648054 1.4842869 234 88 12
0.41046131 1.0493702 1.4645447 234 88 12
0.38078502 1.0604137 1.4590981 234 88 12
0.41982895 1.0359085 1.4595596 234 88 12
0.41609028 1.041772 1.4601866 234 88 12
0.4070513 1.0456837 1.4586736 234 88 12
0.38951361 1.0502464 1.454845 234 88 12
0.38957241 1.0610421 1.4580479 234 88 12
0.4264529 1.0322442 1.4566327 234 88 12
0.4110401 1.0337149 1.4524798 234 88 12
0.40382138 1.0420247 1.4528048 234 88 12
0.42718658 1.0576777 1.4644271 234 88 12
0.39428037 1.0494914 1.4521869 234 88 12
0.38499343 1.0570784 1.4516805 234 88 12
0.42282721 1.0282751 1.4505289 234 88 12
0.41734082 1.0298606 1.449356 234 88 12
0.41466606 1.0325354 1.449356 234 88 12
0.46552789 1.0553542 1.4715097 234 88 12
0.41272408 1.0428036 1.4518595 234 88 12
0.45714536 1.0695423 1.4732552 234 88 12
0.39610523 1.0513163 1.4494221 234 88 12
0.40085551 1.0637319 1.4545835 234 88 12
0.39620015 1.0692248 1.4548353 234 88 12
0.43128172 1.0326579 1.4505628 234 88 12
0.42273262 1.0330502 1.4480873 234 88 12
0.44821694 1.0605086 1.4641547 234 88 12
0.42469203 1.0555127 1.4554991 234 88 12
0.4044022 1.0518223 1.4482213 234 88 12
0.40265757 1.065534 1.4518532 234 88 12
0.39285296 1.0657449 1.4489416 234 88 12
0.39019331 1.0684046 1.4489416 234 88 12
0.47611159 1.0545341 1.4671499 234 88 12
0.47296289 1.0602975 1.4679507 234 88 12
0.43189758 1.0521313 1.4528702 234 88 12
0.43986809 1.0585916 1.4572906 234 88 12
0.45937294 1.0725504 1.4675412 234 88 12
0.40545443 1.0605595 1.4473519 234 88 12
0.39466777 1.0675597 1.446192 234 88 12
0.47231266 1.0576552 1.4632633 234 88 12
0.46480459 1.0583346 1.4611521 234 88 12
0.43046093 1.0491444 1.4476929 234 88 12
0.44483489 1.0579927 1.4548724 234 88 12
0.41124463 1.0529883 1.4429402 234 88 12
0.41592941 1.0582565 1.4460174 234 88 12
0.40297812 1.0644597 1.4439311 234 88 12
0.39365697 1.0684227 1.4422746 234 88 12
0.43708798 1.0455123 1.4447845 234 88 12
0.42408556 1.0442923 1.4403468 234 88 12
0.41941115 1.0462136 1.4394878 234 88 12
0.49066383 1.0758114 1.4709558 234 88 12
0.44216219 1.0616777 1.451412 234 88 12
0.45215112 1.0687617 1.4567392 234 88 12
0.4180319 1.0601659 1.4434109 234 88 12
0.46029323 1.0785174 1.4623238 234 88 12
0.40756854 1.0672244 1.4423485 234 88 12
0.39821488 1.0675997 1.4395469 234 88 12
0.43336979 1.0452454 1.4396749 234 88 12
0.43197188 1.05557 1.4424858 234 88 12
0.48987955 1.079965 1.4684033 234 88 12
0.42767271 1.0682656 1.4451299 234 88 12
0.462652 1.057303 1.4489253 234 88 12
0.42606583 1.0473146 1.434124 234 88 12
0.44367185 1.0573938 1.4429222 234 88 12
0.51648223 1.087307 1.4755676 234 88 12
0.4205839 1.0562155 1.4352106 234 88 12
0.41403508 1.0574956 1.4335362 234 88 12
0.41136512 1.0601655 1.4335362 234 88 12
0.41542602 1.0687383 1.4375511 234 88 12
0.54197413 1.1153523 1.4925816 234 88 12
0.40240702 1.0714252 1.4342676 234 88 12
0.39680228 1.0766658 1.4341519 234 88 12
0.42663059 1.0523149 1.4319853 234 88 12
0.48434833 1.0767632 1.4583365 234 88 12
0.41618153 1.0594321 1.4309168 234 88 12
0.47228333 1.0826645 1.4563597 234 88 12
0.40515533 1.0699899 1.4307665 234 88 12
0.44526404 1.0530672 1.4343307 234 88 12
0.43159738 1.0588845 1.4317904 234 88 12
0.46162841 1.0731635 1.4461304 234 88 12
0.42899084 1.0757477 1.4364042 234 88 12
0.41639066 1.0749929 1.4320822 234 88 12
0.43616727 1.0851356 1.441765 234 88 12
0.44793436 1.0623474 1.4343406 234 88 12
0.42208081 1.0566319 1.424031 234 88 12
0.42293566 1.0605626 1.4255939 234 88 12
0.41982403 1.0630747 1.425398 234 88 12
0.41312781 1.0679458 1.4248021 234 88 12
0.41240832 1.0712832 1.4256569 234 88 12
0.43327808 1.0853493 1.437066 234 88 12
0.58427018 1.1385789 1.5037587 234 88 12
0.41692728 1.086907 1.432235 234 88 12
0.42323387 1.0690395 1.4245275 234 88 12
0.40661979 1.0776837 1.4219012 234 88 12
0.43543291 1.0528653 1.4192524 234 88 12
0.43896514 1.0614051 1.4232663 234 88 12
0.41518378 1.0781938 1.4209412 234 88 12
0.41618854 1.0855905 1.4237347 234 88 12
0.40623429 1.0858706 1.420518 234 88 12
0.43725675 1.0546892 1.4164891 234 88 12
0.45574686 1.0685817 1.4273531 234 88 12
0.46650776 1.0759338 1.4334297 234 88 12
0.46393636 1.0785052 1.4334297 234 88 12
0.43294603 1.0747591 1.4217761 234 88 12
0.43030483 1.0774003 1.4217761 234 88 12
0.45348284 1.0581636 1.4191597 234 88 12
0.43622237 1.059119 1.4136404 234 88 12
0.48726848 1.0878117 1.4406315 234 88 12
0.42669222 1.0702153 1.4141706 234 88 12
0.4397369 1.0782709 1.4213128 234 88 12
0.45202059 1.0587661 1.4149054 234 88 12
0.45274666 1.0733558 1.420136 234 88 12
0.50766212 1.0960413 1.4466379 234 88 12
0.48290938 1.0908102 1.4363979 234 88 12
0.46646279 1.0885777 1.4300188 234 88 12
0.4396646 1.0590502 1.4067611 234 88 12
0.43663648 1.0616071 1.4065987 234 88 12
0.49512288 1.0893999 1.4363265 234 88 12
0.44335935 1.0747875 1.4134564 234 88 12
0.43859974 1.0743173 1.4076539 234 88 12
1.4167565 0.713498 0.86841965 234 88 12
1.4827191 0.7294383 0.87821448 234 88 12
1.4329593 0.72365826 0.87114638 234 88 12
1.4194658 0.72831595 0.86954951 234 88 12
1.4535286 0.71726435 0.87021089 234 88 12
1.4366655 0.71752483 0.86787182 234 88 12
1.3633665 0.70735866 0.85710925 234 88 12
1.3676854 0.7119444 0.85795337 234 88 12
1.3851863 0.71885175 0.86075908 234 88 12
1.3865858 0.7227909 0.86116183 234 88 12
1.4166167 0.73163086 0.86581755 234 88 12
1.4139553 0.68412775 0.85934836 234 88 12
1.4005256 0.68491006 0.85747033 234 88 12
1.406386 0.69360465 0.85877764 234 88 12
1.3933507 0.70580065 0.8575722 234 88 12
1.3775306 0.71025181 0.85555041 234 88 12
1.370977 0.720312 0.85515648 234 88 12
1.4165071 0.68118697 0.85595393 234 88 12
1.3944005 0.68001002 0.8526513 234 88 12
1.384129 0.68156004 0.85123271 234 88 12
1.3869017 0.68595707 0.85188192 234 88 12
1.4097519 0.70555675 0.85631204 234 88 12
1.3797016 0.70338845 0.8517912 234 88 12
1.3676016 0.70485067 0.85010004 234 88 12
1.3701261 0.7091195 0.85070574 234 88 12
1.3868423 0.72703862 0.85414463 234 88 12
1.3914646 0.67576176 0.84828162 234 88 12
1.3805085 0.68098509 0.84693468 234 88 12
1.3791718 0.68452585 0.84693468 234 88 12
1.3963438 0.6956777 0.85014051 234 88 12
1.4035147 0.70085508 0.85150868 234 88 12
1.3821861 0.70034003 0.84828174 234 88 12
1.3726046 0.71360457 0.84759599 234 88 12
1.3676409 0.72025478 0.84722823 234 88 12
1.4385225 0.70454013 0.85345286 234 88 12
1.3862572 0.69760966 0.84503305 234 88 12
1.4023153 0.72657204 0.84917414 234 88 12
1.5035248 0.697869 0.85973454 234 88 12
1.3940575 0.67674065 0.84130591 234 88 12
1.3861632 0.67880625 0.84018958 234 88 12
1.3889961 0.6832419 0.84089684 234 88 12
1.3856663 0.69393563 0.84100783 234 88 12
1.3799686 0.69657564 0.84027022 234 88 12
1.389505 0.70224994 0.84210277 234 88 12
1.3795494 0.70407593 0.84064877 234 88 12
1.3856186 0.71274638 0.84211475 234 88 12
1.3759623 0.71848512 0.84093946 234 88 12
1.3822731 0.72333544 0.84221709 234 88 12
1.4161977 0.73283762 0.84810323 234 88 12
1.3734697 0.72929078 0.84118849 234 88 12
1.4024948 0.73775381 0.84624428 234 88 12
1.3780035 0.74115676 0.84260285 234 88 12
1.3902957 0.68373257 0.83740044 234 88 12
1.3851262 0.73150563 0.83946449 234 88 12
1.4037528 0.73822874 0.84285975 234 88 12
1.3981615 0.74457413 0.84234709 234 88 12
1.4432839 0.68814421 0.84262037 234 88 12
1.3862696 0.68307406 0.83295977 234 88 12
1.383127 0.69386744 0.8331126 234 88 12
1.4228128 0.70562166 0.8403461 234 88 12
1.3859575 0.70201993 0.83408123 234 88 12
1.3808217 0.70858371 0.83364552 234 88 12
1.3785242 0.7119298 0.83347595 234 88 12
1.37579 0.71897429 0.83346373 234 88 12
1.3705757 0.7293579 0.83325154 234 88 12
1.3852491 0.73917729 0.83626485 234 88 12
1.3994235 0.74505055 0.83895206 234 88 12
1.419278 0.68297309 0.83471572 234 88 12
1.3917055 0.68064147 0.82995093 234 88 12
1.3911213 0.68433154 0.83008641 234 88 12
1.3911601 0.69950956 0.83105248 234 88 12
1.383672 0.71313238 0.83065981 234 88 12
1.3747759 0.72658253 0.83002037 234 88 12
1.3865311 0.73966128 0.83281583 234 88 12
1.4226702 0.69133651 0.83217639 234 88 12
1.4125568 0.6928882 0.83054715 234 88 12
1.4012887 0.69426847 0.82870942 234 88 12
1.4049101 0.70248795 0.82985932 234 88 12
1.3944803 0.704162 0.82818389 234 88 12
1.4071465 0.71034527 0.83074898 234 88 12
1.3816464 0.7242806 0.82728809 234 88 12
1.3921037 0.7408241 0.83014435 234 88 12
1.4157085 0.74812925 0.83465242 234 88 12
1.3973864 0.68229878 0.8235212 234 88 12
1.3996795 0.69415373 0.82470268 234 88 12
1.3889555 0.69573516 0.82293504 234 88 12
1.4560519 0.71292561 0.83577931 234 88 12
1.3852855 0.70259619 0.82274657 234 88 12
1.3928766 0.70784199 0.82441723 234 88 12
1.3829684 0.70972711 0.82281202 234 88 12
1.3800336 0.71296316 0.82251304 234 88 12
1.3815887 0.72078401 0.82329983 234 88 12
1.3789811 0.72408491 0.82306224 234 88 12
1.3757764 0.7272945 0.82271433 234 88 12
1.3865632 0.73283267 0.82496208 234 88 12
1.3852456 0.73632294 0.82496208 234 88 12
1.4107639 0.74405134 0.82992554 234 88 12
1.4849005 0.70857823 0.83711606 234 88 12
1.4009123 0.70588952 0.82197672 234 88 12
1.4015759 0.73923701 0.82433718 234 88 12
1.420493 0.74586076 0.82815176 234 88 12
1.3885612 0.69610983 0.81533718 234 88 12
1.3868824 0.7071752 0.81579113 234 88 12
1.3828678 0.71399015 0.81552923 234 88 12
1.3834691 0.71787488 0.81590486 234 88 12
1.3785522 0.72454512 0.81546909 234 88 12
1.3799779 0.72854805 0.81600267 234 88 12
1.4422547 0.7460652 0.82851791 234 88 12
1.4073969 0.6964103 0.8150546 234 88 12
1.405369 0.69974691 0.81491226 234 88 12
1.410943 0.70460141 0.81628436 234 88 12
1.4370294 0.7134043 0.8217324 234 88 12
1.3816196 0.72909689 0.81256545 234 88 12
1.3874229 0.73751098 0.81422895 234 88 12
1.4109143 0.70854282 0.81284815 234 88 12
1.4091148 0.72299415 0.81353861 234 88 12
1.4196061 0.6993686 0.81013715 234 88 12
1.3924619 0.69758606 0.8047843 234 88 12
1.400955 0.7030766 0.80681753 234 88 12
1.3959596 0.70586634 0.80605894 234 88 12
1.3946316 0.70938396 0.80605894 234 88 12
1.4073035 0.71922493 0.80921233 234 88 12
1.4208786 0.69984901 0.80671346 234 88 12
1.4061559 0.71554822 0.80498922 234 88 12
1.3997127 0.71808636 0.80391395 234 88 12
1.4091666 0.69765759 0.80049598 234 88 12
1.3929274 0.69813919 0.79729009 234 88 12
1.3944986 0.702263 0.79791462 234 88 12
1.4143159 0.71731442 0.80300575 234 88 12
1.4125316 0.72067791 0.802903 234 88 12
1.4104565 0.69814456 0.79702556 234 88 12
1.3898692 0.70920986 0.79368979 234 88 12
1.4013742 0.70030183 0.79153943 234 88 12
1.4145002 0.71412945 0.79533565 234 88 12
1.4046267 0.71600193 0.79343891 234 88 12
1.4013449 0.70431978 0.78803641 234 88 12
1.4005665 0.71172971 0.78846157 234 88 12
1.4641111 -0.92176437 0.38392735 234 88 12
1.471059 -0.91938961 0.38411036 234 88 12
1.4597152 -0.90980631 0.38362315 234 88 12
1.5103284 -0.91619313 0.38528794 234 88 12
1.4765198 -0.9278295 0.38074651 234 88 12
1.4479868 -0.91517001 0.37956378 234 88 12
1.462424 -0.91418839 0.38004744 234 88 12
1.4580902 -0.92092633 0.37627223 234 88 12
1.4485161 -0.91540796 0.37581423 234 88 12
1.4542226 -0.91274565 0.37598556 234 88 12
1.4644825 -0.91100687 0.37634566 234 88 12
1.4783356 -0.90636814 0.37679273 234 88 12
1.4718359 -0.95607698 0.37376204 234 88 12
1.460543 -0.95075649 0.37319505 234 88 12
1.4484302 -0.94521302 0.37258992 234 88 12
1.4486768 -0.94158232 0.37253252 234 88 12
1.4730074 -0.94194967 0.37354741 234 88 12
1.5710498 -0.94849616 0.37773141 234 88 12
1.4537475 -0.92398179 0.37241474 234 88 12
1.4708475 -0.9596374 0.37015244 234 88 12
1.4508785 -0.95304829 0.3691234 234 88 12
1.4432021 -0.94821417 0.3686814 234 88 12
1.4412389 -0.94052315 0.36843812 234 88 12
1.4652194 -0.92986554 0.36929923 234 88 12
1.4536276 -0.95724237 0.36562914 234 88 12
1.4456706 -0.95241386 0.36513975 234 88 12
1.4410806 -0.94803953 0.36482292 234 88 12
1.4417669 -0.94076049 0.36469793 234 88 12
1.4518021 -0.93871772 0.3651385 234 88 12
1.4763231 -0.93919593 0.36633378 234 88 12
1.4612436 -0.92930281 0.36539018 234 88 12
1.4603581 -0.92176104 0.36518353 234 88 12
1.4536448 -0.91304219 0.36466971 234 88 12
1.4650807 -0.91152197 0.36518931 234 88 12
1.4796277 -0.91069603 0.36587429 234 88 12
1.4695966 -0.89749855 0.36510286 234 88 12
1.4813993 -0.89627415 0.36564657 234 88 12
1.5072887 -0.89820242 0.36693949 234 88 12
1.4483329 -0.94197792 0.36129317 234 88 12
1.4538647 -0.93553001 0.36142948 234 88 12
1.4507309 -0.92758465 0.36108232 234 88 12
1.481549 -0.90753025 0.36221105 234 88 12
1.4894856 -0.89073062 0.3622309 234 88 12
1.4736583 -0.96051395 0.35939926 234 88 12
1.4431026 -0.95233768 0.35750869 234 88 12
1.4457722 -0.94907671 0.35757518 234 88 12
1.4434807 -0.94503742 0.35734832 234 88 12
1.4458083 -0.93802106 0.35730264 234 88 12
1.4497092 -0.93126577 0.35735035 234 88 12
1.4550807 -0.9247877 0.35748616 234 88 12
1.4566258 -0.92135119 0.35748616 234 88 12
1.4552966 -0.91363132 0.35722107 234 88 12
1.4700153 -0.91275197 0.35801211 234 88 12
1.4633123 -0.9039579 0.35742354 234 88 12
1.465197 -0.89682335 0.3573505 234 88 12
1.48406 -0.89337218 0.35830659 234 88 12
1.6296302 -0.92193782 0.36705542 234 88 12
1.4456857 -0.95654052 0.35401198 234 88 12
1.4682333 -0.95629281 0.35532871 234 88 12
1.4550668 -0.94337076 0.35421506 234 88 12
1.4870813 -0.92348087 0.35556909 234 88 12
1.4715015 -0.89827526 0.35398969 234 88 12
1.4758894 -0.89171189 0.35407403 234 88 12
1.4916807 -0.89145249 0.35499394 234 88 12
1.4805374 -0.95830369 0.35247922 234 88 12
1.4444257 -0.94179851 0.34977365 234 88 12
1.4488606 -0.93141067 0.34975904 234 88 12
1.4677343 -0.91998452 0.35061276 234 88 12
1.602188 -0.94201338 0.35958466 234 88 12
1.6761373 -0.95323169 0.36449412 234 88 12
1.508206 -0.89523196 0.35243645 234 88 12
1.4569135 -0.94762158 0.34698507 234 88 12
1.448487 -0.93891352 0.34617525 234 88 12
1.4535419 -0.93606299 0.34642285 234 88 12
1.4544929 -0.93252951 0.34638101 234 88 12
1.4667236 -0.92362607 0.34692088 234 88 12
1.4775017 -0.92195243 0.34757873 234 88 12
1.4591621 -0.91477966 0.34616375 234 88 12
1.4622372 -0.9078877 0.3461622 234 88 12
1.4637855 -0.90444374 0.3461622 234 88 12
1.4809783 -0.89679521 0.3470647 234 88 12
1.5182579 -0.89757389 0.34953386 234 88 12
1.4531506 -0.95083505 0.34309313 234 88 12
1.4690046 -0.94968295 0.34415269 234 88 12
1.4564785 -0.92188329 0.34242377 234 88 12
1.4814984 -0.89702904 0.34338033 234 88 12
1.495376 -0.89631498 0.34431696 234 88 12
1.4812781 -0.95176959 0.3414205 234 88 12
1.4520639 -0.94348758 0.33903041 234 88 12
1.482321 -0.94479817 0.34126875 234 88 12
1.4609199 -0.9376027 0.33948106 234 88 12
1.4538546 -0.93271053 0.33880875 234 88 12
1.4519739 -0.92866796 0.33854041 234 88 12
1.459928 -0.92265642 0.33892146 234 88 12
1.460729 -0.91160792 0.33861911 234 88 12
1.462279 -0.90816051 0.33861911 234 88 12
1.4657745 -0.90510654 0.33877313 234 88 12
1.4709194 -0.89489222 0.33881325 234 88 12
1.4846797 -0.89410871 0.3397862 234 88 12
1.4668604 -0.9350968 0.3361049 234 88 12
1.4711853 -0.89883727 0.33519411 234 88 12
1.5034003 -0.90195 0.33775026 234 88 12
1.4957153 -0.89662725 0.33698389 234 88 12
1.4507588 -0.93618441 0.33113346 234 88 12
1.4693688 -0.93201512 0.3324644 234 88 12
1.4789864 -0.92642814 0.33302948 234 88 12
1.45692 -0.91864717 0.33099642 234 88 12
1.4623363 -0.91218954 0.33119625 234 88 12
1.482267 -0.91238701 0.33278835 234 88 12
1.4701664 -0.9025079 0.33147278 234 88 12
1.4890729 -0.90271139 0.33298364 234 88 12
1.4971578 -0.94414139 0.33149362 234 88 12
1.4701992 -0.93230319 0.32881382 234 88 12
1.4717251 -0.92890936 0.32881382 234 88 12
1.4644786 -0.92019796 0.32788712 234 88 12
1.4740844 -0.91460663 0.32847586 234 88 12
1.6754342 -0.97425944 0.34446841 234 88 12
1.4683855 -0.93579173 0.32506135 234 88 12
1.4540644 -0.92961347 0.3235822 234 88 12
1.5134648 -0.92593843 0.32857776 234 88 12
1.4780705 -0.9412182 0.32241613 234 88 12
1.5045811 -0.94215024 0.32483983 234 88 12
1.4545921 -0.92985076 0.31984305 234 88 12
1.4639857 -0.92409885 0.32045576 234 88 12
1.4631662 -0.92022908 0.32022542 234 88 12
1.4787952 -0.91947138 0.32160136 234 88 12
1.7785037 -0.99179107 0.34893456 234 88 12
1.4965098 -0.94090497 0.32042864 234 88 12
1.4589995 -0.92332804 0.31618249 234 88 12
1.8114123 -0.9974106 0.34980154 234 88 12
1.4679582 -0.93615204 0.31381306 234 88 12
1.4659222 -0.93212426 0.31343991 234 88 12
1.4549959 -0.92648041 0.31213385 234 88 12
1.4571538 -0.923132 0.31219715 234 88 12
1.601035 -0.95590502 0.32433113 234 88 12
1.4759113 -0.93415743 0.30704162 234 88 12
1.4759845 -0.93051398 0.30687883 234 88 12
1.5033727 -0.9318375 0.30978981 234 88 12
1.4710721 -0.92225373 0.30598152 234 88 12
1.7903769 0.1039001 -0.050584942 234 88 12
1.7435073 0.10533787 -0.04777465 234 88 12
1.7406236 0.10896468 -0.047613442 234 88 12
1.7539916 0.11322685 -0.048430432 234 88 12
1.7387447 0.11641196 -0.047525212 234 88 12
1.8799336 0.12443601 -0.056031723 234 88 12
1.756091 0.10220892 -0.052222155 234 88 12
1.7302212 0.10473222 -0.050774891 234 88 12
1.7560943 0.12069271 -0.052279562 234 88 12
1.7624524 0.080439471 -0.056193821 234 88 12
1.7647101 0.084278233 -0.056323275 234 88 12
1.7798071 0.099767238 -0.057159543 234 88 12
1.74119 0.10147343 -0.055139698 234 88 12
1.7303433 0.10473637 -0.054580402 234 88 12
1.7339467 0.1086826 -0.054780725 234 88 12
1.7343283 0.12003167 -0.054833479 234 88 12
1.896229 0.083763987 -0.066386938 234 88 12
1.7478899 0.075648427 -0.059153147 234 88 12
1.7387714 0.078730494 -0.05871807 234 88 12
1.7336577 0.082154952 -0.058478609 234 88 12
1.7411846 0.086433686 -0.058856007 234 88 12
1.7631463 0.091530554 -0.059937395 234 88 12
1.7357087 0.10120234 -0.0586293 234 88 12
1.7402095 0.11269782 -0.05887888 234 88 12
1.7566288 0.072607972 -0.063272789 234 88 12
1.7528125 0.090903297 -0.063146919 234 88 12
1.7985245 0.097222127 -0.065210715 234 88 12
1.8562422 0.12370773 -0.067862183 234 88 12
1.7522366 0.12797414 -0.063212536 234 88 12
1.772938 0.13206488 -0.064150192 234 88 12
1.756264 0.13543694 -0.063411392 234 88 12
1.7422637 0.071463332 -0.066383094 234 88 12
1.7354827 0.074710406 -0.066112429 234 88 12
1.7355092 0.08228562 -0.066130608 234 88 12
1.7414149 0.086451381 -0.066382118 234 88 12
1.7412087 0.09019886 -0.066382118 234 88 12
1.7327546 0.10105499 -0.066060029 234 88 12
1.7346326 0.10870526 -0.066154286 234 88 12
1.7447683 0.11286533 -0.066579193 234 88 12
1.7449619 0.12034201 -0.066604003 234 88 12
1.7386826 0.12390853 -0.066354625 234 88 12
1.7384762 0.12765858 -0.066354625 234 88 12
1.7484913 0.13160059 -0.0667741 234 88 12
1.7649719 0.13556156 -0.067458674 234 88 12
1.7462165 0.13900203 -0.066697545 234 88 12
1.7624521 0.073080622 -0.070892811 234 88 12
1.7341962 0.089773498 -0.069876231 234 88 12
1.7747283 0.099496335 -0.071403384 234 88 12
1.8921875 0.1406267 -0.075855479 234 88 12
1.7737386 0.073986262 -0.074948505 234 88 12
1.7412739 0.075157285 -0.073867045 234 88 12
1.7338073 0.078381918 -0.073623747 234 88 12
1.7444767 0.082903221 -0.073988177 234 88 12
1.7342563 0.085991703 -0.073652714 234 88 12
1.738551 0.090039022 -0.073803499 234 88 12
1.7665142 0.095399864 -0.074746706 234 88 12
1.7389104 0.10135683 -0.073836289 234 88 12
1.7351577 0.1087232 -0.073724568 234 88 12
1.7353626 0.12004464 -0.073752202 234 88 12
1.7327595 0.12751985 -0.073679045 234 88 12
1.7536813 0.13538094 -0.07439182 234 88 12
1.778025 0.13934489 -0.075211652 234 88 12
1.7418079 0.071437851 -0.077633195 234 88 12
1.7407737 0.093934163 -0.07763923 234 88 12
1.7444848 0.10537115 -0.077767588 234 88 12
1.7431678 0.075307555 -0.081427768 234 88 12
1.736321 0.07856863 -0.081255987 234 88 12
1.7368652 0.0823863 -0.081275418 234 88 12
1.7376772 0.089987598 -0.081307121 234 88 12
1.7631017 0.098877802 -0.081974782 234 88 12
1.7379037 0.1013055 -0.08132901 234 88 12
1.7443389 0.10536312 -0.08150056 234 88 12
1.7339783 0.10867011 -0.081238307 234 88 12
1.7329843 0.11996543 -0.081228718 234 88 12
1.7324183 0.12750256 -0.081224829 234 88 12
1.7448996 0.131512 -0.081552088 234 88 12
1.7589655 0.13544862 -0.081920072 234 88 12
1.8068539 0.080156051 -0.086579084 234 88 12
1.7577908 0.080122434 -0.085501641 234 88 12
1.7651823 0.08432588 -0.085669033 234 88 12
1.7445159 0.086658701 -0.085218027 234 88 12
1.7426953 0.097793333 -0.085191503 234 88 12
1.811965 0.13623807 -0.086759105 234 88 12
1.8028597 0.083381161 -0.090012342 234 88 12
1.7420622 0.13518342 -0.088960283 234 88 12
1.7449251 0.08668793 -0.092699446 234 88 12
1.7485957 0.090653673 -0.092755258 234 88 12
1.7317939 0.097213574 -0.092519291 234 88 12
1.7343668 0.10112856 -0.092559308 234 88 12
1.7366582 0.10877589 -0.092598237 234 88 12
1.7334731 0.11996925 -0.092561364 234 88 12
1.7411002 0.12768465 -0.09267693 234 88 12
1.7542189 0.098404758 -0.096538834 234 88 12
1.7540158 0.10209666 -0.096538834 234 88 12
1.7304744 0.10472677 -0.096291974 234 88 12
1.7504331 0.11676996 -0.096509553 234 88 12
1.7411597 0.12394045 -0.096415877 234 88 12
1.7772897 0.12849891 -0.096799739 234 88 12
1.7362441 0.089904726 -0.10010998 234 88 12
1.7481005 0.094353102 -0.10019167 234 88 12
1.7374952 0.10128115 -0.10012265 234 88 12
1.7396021 0.10889468 -0.1001397 234 88 12
1.7522863 0.11312749 -0.1002269 234 88 12
1.7485818 0.10926704 -0.10391415 234 88 12
1.7323476 0.093456537 -0.10764122 234 88 12
1.7293919 0.10087985 -0.10764337 234 88 12
1.7346534 0.10491268 -0.10763873 234 88 12
1.7444028 0.090403043 -0.11136243 234 88 12
1.7652857 0.10995955 -0.11126046 234 88 12
1.7309172 0.097165301 -0.11520329 234 88 12
1.8011788 0.11145407 -0.11460364 234 88 12
1.7405598 0.093925059 -0.11886632 234 88 12
1.7305615 0.10093499 -0.11898393 234 88 12
1.736083 0.10497353 -0.11891366 234 88 12
1.7855278 0.1107997 -0.11830478 234 88 12
1.748759 0.10183162 -0.12246973 234 88 12
0.93845904 1.51819 0.20476206 234 88 12
1.0195198 1.5413599 0.20054057 234 88 12
1.0493622 1.5573779 0.20032537 234 88 12
0.9370414 1.5139606 0.20105617 234 88 12
0.94951898 1.5228636 0.20095584 234 88 12
0.98736334 1.5455474 0.20067182 234 88 12
0.98374808 1.5476042 0.20067912 234 88 12
0.94445747 1.5096422 0.1973004 234 88 12
0.93088335 1.5077084 0.19733164 234 88 12
0.94090611 1.5156798 0.1972954 234 88 12
0.93111193 1.5153816 0.19731572 234 88 12
0.93305051 1.5199319 0.19730265 234 88 12
0.93039495 1.5225874 0.19730265 234 88 12
0.94111508 1.5306088 0.19726491 234 88 12
1.0007366 1.5191977 0.19360095 234 88 12
1.0652523 1.5576193 0.19366945 234 88 12
0.93402719 1.5053309 0.19354734 234 88 12
0.97983223 1.49506 0.18988144 234 88 12
0.95996982 1.4898942 0.18979768 234 88 12
0.95742917 1.4964545 0.18981113 234 88 12
0.95477384 1.4991097 0.18981113 234 88 12
0.97407389 1.5113226 0.1899166 234 88 12
0.9421801 1.505097 0.18978903 234 88 12
0.94392896 1.5319605 0.18988478 234 88 12
0.94666868 1.5367002 0.1899098 234 88 12
0.9715336 1.4913851 0.18611771 234 88 12
0.96015954 1.4900839 0.18604128 234 88 12
0.95267558 1.4905916 0.18599923 234 88 12
0.94999939 1.4932678 0.18599923 234 88 12
0.97685421 1.5089122 0.18625546 234 88 12
0.94237012 1.5052872 0.18602569 234 88 12
0.93704975 1.5068315 0.18600293 234 88 12
0.93172723 1.5083953 0.18598026 234 88 12
0.928536 1.5184244 0.18602149 234 88 12
0.94456095 1.5323254 0.18620192 234 88 12
0.98015934 1.4915959 0.18246903 234 88 12
0.95988417 1.4861876 0.18224524 234 88 12
0.95566922 1.4997151 0.18232638 234 88 12
0.93952686 1.5079902 0.18225783 234 88 12
0.93601292 1.5178477 0.1823131 234 88 12
0.93723971 1.5258064 0.18239313 234 88 12
0.92579693 1.528638 0.18231811 234 88 12
0.9335373 1.5353823 0.18244432 234 88 12
0.95094573 1.5458165 0.18268692 234 88 12
0.99597275 1.4989535 0.17902918 234 88 12
0.96007448 1.486378 0.17847663 234 88 12
0.96148324 1.4908891 0.17854412 234 88 12
0.95882291 1.4935493 0.17854412 234 88 12
0.96092778 1.5021292 0.17866591 234 88 12
0.95465338 1.5031884 0.17860647 234 88 12
0.94704664 1.5037014 0.1785256 234 88 12
0.94036406 1.5046479 0.17846021 234 88 12
0.93971699 1.5081804 0.17849311 234 88 12
0.94474065 1.517825 0.1786603 234 88 12
0.93247306 1.5202562 0.17854819 234 88 12
0.92277604 1.5238218 0.1784783 234 88 12
0.94053131 1.5345997 0.17880353 234 88 12
0.97469133 1.551676 0.17938757 234 88 12
0.96189922 1.5501946 0.17922488 234 88 12
0.9200002 1.5375587 0.17860323 234 88 12
0.92392808 1.5427232 0.17870688 234 88 12
0.98812658 1.4954534 0.17522565 234 88 12
0.94821024 1.4966542 0.17468031 234 88 12
0.96409786 1.5111581 0.17510839 234 88 12
0.94338328 1.5136164 0.17485124 234 88 12
0.92067653 1.5268347 0.17471759 234 88 12
0.94282997 1.5392619 0.17520468 234 88 12
0.94570535 1.5475892 0.17536248 234 88 12
0.92411566 1.5429107 0.17499247 234 88 12
0.96951336 1.4870163 0.1710957 234 88 12
0.98727232 1.5175835 0.17190634 234 88 12
1.0253749 1.541164 0.17294103 234 88 12
0.93282437 1.5168692 0.17098103 234 88 12
0.93111265 1.5273876 0.17112876 234 88 12
0.96871966 1.4906188 0.16739942 234 88 12
0.96030933 1.4906726 0.16723678 234 88 12
0.95722574 1.4931509 0.16722499 234 88 12
0.95409423 1.4994489 0.16728662 234 88 12
0.96968901 1.5100439 0.16779639 234 88 12
0.9497444 1.5051875 0.16731365 234 88 12
0.94516724 1.5070258 0.16726035 234 88 12
0.93843722 1.5117629 0.16722155 234 88 12
0.9395833 1.5197625 0.16739957 234 88 12
0.93126881 1.5201018 0.16724433 234 88 12
0.92529148 1.5251709 0.16722666 234 88 12
0.93744791 1.5410123 0.16777161 234 88 12
0.92056668 1.538125 0.16738683 234 88 12
1.0027019 1.5172229 0.16499631 234 88 12
1.0621588 1.550332 0.16704716 234 88 12
1.0025787 1.5316353 0.1653129 234 88 12
0.93338388 1.5322165 0.16379273 234 88 12
0.95515388 1.548014 0.16462506 234 88 12
0.96416318 1.4926167 0.15984297 234 88 12
0.99528354 1.5103463 0.1610568 234 88 12
0.96322495 1.4998621 0.15999968 234 88 12
0.95390195 1.4995774 0.15976095 234 88 12
0.94815427 1.5008987 0.15965097 234 88 12
0.98641968 1.5211931 0.16110606 234 88 12
0.96674913 1.5164511 0.16049947 234 88 12
0.94025505 1.5089567 0.1596549 234 88 12
0.94153476 1.5207874 0.15998068 234 88 12
0.92955363 1.5196277 0.15965416 234 88 12
0.92406112 1.5249068 0.15964885 234 88 12
0.93423986 1.5326692 0.16009465 234 88 12
0.93893492 1.5381836 0.16034834 234 88 12
0.96134406 1.5540663 0.16129982 234 88 12
1.0401719 1.5269386 0.15912536 234 88 12
0.97673965 1.5059434 0.15680002 234 88 12
0.96981782 1.5104154 0.15673254 234 88 12
0.95429057 1.5074679 0.1562237 234 88 12
0.96125239 1.5326548 0.15710916 234 88 12
0.95404404 1.5333743 0.15693043 234 88 12
0.9488731 1.5385799 0.15693139 234 88 12
0.96406919 1.5517037 0.15771139 234 88 12
0.95264941 1.4992417 0.15218033 234 88 12
1.0224868 1.5333906 0.15532468 234 88 12
0.94406527 1.5069911 0.15215507 234 88 12
0.94095665 1.5094727 0.15213612 234 88 12
0.93353689 1.5177215 0.1521612 234 88 12
0.9259395 1.5221436 0.15206517 234 88 12
0.9263851 1.5260642 0.1521972 234 88 12
0.92337728 1.5285938 0.15218274 234 88 12
0.92960417 1.5347492 0.15255715 234 88 12
1.0114433 1.5251027 0.15119481 234 88 12
0.99325848 1.5208019 0.15045424 234 88 12
0.96649957 1.512935 0.14931382 234 88 12
0.93648547 1.5265117 0.14877245 234 88 12
0.93331844 1.5363204 0.1489912 234 88 12
0.92455161 1.5365704 0.14871068 234 88 12
0.96880823 1.5065317 0.14546654 234 88 12
0.94093877 1.5058767 0.1444501 234 88 12
0.95199221 1.54015 0.14606528 234 88 12
0.95434844 1.5079226 0.14125112 234 88 12
0.94802797 1.5090069 0.14105038 234 88 12
0.94492513 1.519003 0.14131463 234 88 12
1.0119598 1.550269 0.14508291 234 88 12
0.97576857 1.5097885 0.1384549 234 88 12
0.94739991 1.5012177 0.13693906 234 88 12
0.9544965 1.5193639 0.13797492 234 88 12
0.97599614 1.5319903 0.13937531 234 88 12
0.94759053 1.5014083 0.13316502 234 88 12
0.94608825 1.5083982 0.13340504 234 88 12
0.95731091 1.5169238 0.13426881 234 88 12
0.94690043 1.5200422 0.13394986 234 88 12
0.93723857 1.5085638 0.12922482 234 88 12
0.9617793 1.5226263 0.13101768 234 88 12
0.95607656 1.5276442 0.13098587 234 88 12
0.94582528 1.5008591 0.12546571 234 88 12
0.94105417 1.5064735 0.12550716 234 88 12
0.93742967 1.5087548 0.12544115 234 88 12
0.94048905 1.5176077 0.12602662 234 88 12
0.98389155 1.539166 0.12921941 234 88 12
0.96162218 1.5078129 0.12284335 234 88 12
0.94982809 1.5178492 0.1227522 234 88 12
0.94067854 1.5177971 0.12227503 234 88 12
0.94869834 1.5099449 0.11851191 234 88 12
1.0001477 1.5425209 0.12309682 234 88 12
1.0854168 -1.2744505 -0.62075555 234 88 12
1.0876726 -1.2714524 -0.62075555 234 88 12
1.3161867 -1.335922 -0.66966593 234 88 12
1.1023847 -1.2825503 -0.62857574 234 88 12
1.0992534 -1.2780573 -0.62744665 234 88 12
1.0756024 -1.2674737 -0.62196487 234 88 12
1.0857425 -1.2630963 -0.62315202 234 88 12
1.1491234 -1.2787864 -0.6361891 234 88 12
1.1297557 -1.2934779 -0.63837469 234 88 12
1.081033 -1.2759849 -0.62783933 234 88 12
1.0834271 -1.273026 -0.62786788 234 88 12
1.0856831 -1.2700274 -0.62786788 234 88 12
1.0769572 -1.2637448 -0.62557763 234 88 12
1.091952 -1.264562 -0.62823504 234 88 12
1.1056026 -1.2650623 -0.63062304 234 88 12
1.0928836 -1.3142101 -0.63843858 234 88 12
1.074548 -1.3060613 -0.6343503 234 88 12
1.0585769 -1.2983818 -0.63071609 234 88 12
1.0557795 -1.2940404 -0.62970287 234 88 12
1.131928 -1.2936897 -0.64238292 234 88 12
1.0769494 -1.274382 -0.63076878 234 88 12
1.0717421 -1.2691915 -0.62924612 234 88 12
1.0801427 -1.2642791 -0.63003224 234 88 12
1.1046985 -1.2643821 -0.63414842 234 88 12
1.0639337 -1.3099793 -0.63684702 234 88 12
1.0703793 -1.3080736 -0.63766873 234 88 12
1.0553932 -1.3006992 -0.63430196 234 88 12
1.0571308 -1.2903209 -0.63330656 234 88 12
1.0901322 -1.2956151 -0.6393705 234 88 12
1.1924541 -1.3137594 -0.65838528 234 88 12
1.0737665 -1.2766988 -0.6343537 234 88 12
1.063026 -1.3092963 -0.64038724 234 88 12
1.0557191 -1.3039064 -0.63855988 234 88 12
1.0511501 -1.2991533 -0.63724995 234 88 12
1.1327888 -1.3101192 -0.65170652 234 88 12
1.0669769 -1.2889048 -0.63855517 234 88 12
1.0879614 -1.2910513 -0.6421898 234 88 12
1.1302103 -1.2992516 -0.64997679 234 88 12
1.1407112 -1.2987894 -0.65160966 234 88 12
1.0973995 -1.2830193 -0.64273578 234 88 12
1.0705626 -1.2716831 -0.63704795 234 88 12
1.0761513 -1.2622464 -0.63680488 234 88 12
1.0862045 -1.2615845 -0.63834161 234 88 12
1.0838494 -1.2571623 -0.63742775 234 88 12
1.0849557 -1.3143331 -0.6482076 234 88 12
1.0648025 -1.2950743 -0.6427443 234 88 12
1.0643437 -1.2804804 -0.64094037 234 88 12
1.071485 -1.2751889 -0.64143866 234 88 12
1.0889546 -1.2656788 -0.64306521 234 88 12
1.1291456 -1.2600085 -0.64873064 234 88 12
1.1135101 -1.2513542 -0.64523804 234 88 12
1.1050473 -1.24491 -0.64313883 234 88 12
1.0661383 -1.2913976 -0.64630651 234 88 12
1.0580736 -1.2856023 -0.64438581 234 88 12
1.1089371 -1.2854885 -0.65223533 234 88 12
1.0726204 -1.2640579 -0.64412874 234 88 12
1.0880426 -1.2649926 -0.64662147 234 88 12
1.0921147 -1.2625649 -0.6469686 234 88 12
1.103719 -1.2588311 -0.64832819 234 88 12
1.0915519 -1.2513251 -0.64557433 234 88 12
1.1304396 -1.2564466 -0.65218145 234 88 12
1.1125703 -1.2469859 -0.64831877 234 88 12
1.050697 -1.3048328 -0.64927763 234 88 12
1.0547163 -1.2987072 -0.64918834 234 88 12
1.05462 -1.2914824 -0.64835036 234 88 12
1.0605885 -1.2785585 -0.64778149 234 88 12
1.0712132 -1.2779003 -0.64931589 234 88 12
1.0871979 -1.2788403 -0.65184426 234 88 12
1.0740983 -1.2714307 -0.64901555 234 88 12
1.098784 -1.2714306 -0.65275484 234 88 12
1.0812784 -1.2625419 -0.64909011 234 88 12
1.0818754 -1.2553263 -0.64835823 234 88 12
1.0874768 -1.2458996 -0.64813232 234 88 12
1.1109478 -1.2460704 -0.65170705 234 88 12
1.1263508 -1.2474809 -0.65420097 234 88 12
1.1441214 -1.3278983 -0.66950077 234 88 12
1.0852226 -1.3096159 -0.65872085 234 88 12
1.1557082 -1.2880007 -0.66676599 234 88 12
1.0759817 -1.2605293 -0.65186995 234 88 12
1.0900505 -1.2500505 -0.65278763 234 88 12
1.0981236 -1.2414774 -0.65302837 234 88 12
1.1254587 -1.2468097 -0.65767944 234 88 12
1.1195725 -1.3179595 -0.66828281 234 88 12
1.0551622 -1.2979186 -0.65673476 234 88 12
1.0531149 -1.2901863 -0.6555922 234 88 12
1.067027 -1.2867235 -0.65723479 234 88 12
1.0616186 -1.2816185 -0.65589106 234 88 12
1.0652131 -1.271675 -0.65532643 234 88 12
1.0715356 -1.269838 -0.65604413 234 88 12
1.0992367 -1.2743375 -0.66056031 234 88 12
1.0724933 -1.2627622 -0.65540987 234 88 12
1.1431261 -1.2769591 -0.66722304 234 88 12
1.0806495 -1.2541313 -0.65565133 234 88 12
1.087181 -1.2450092 -0.65560311 234 88 12
1.097208 -1.2407886 -0.65659851 234 88 12
1.0726742 -1.3055214 -0.6638093 234 88 12
1.069863 -1.3012849 -0.66295636 234 88 12
1.0772371 -1.292635 -0.6630795 234 88 12
1.1087749 -1.2802806 -0.66624218 234 88 12
1.0835767 -1.269302 -0.66148472 234 88 12
1.1093531 -1.244397 -0.66248548 234 88 12
1.1318505 -1.3169641 -0.67692971 234 88 12
1.0802569 -1.2965429 -0.66761512 234 88 12
1.0659882 -1.2891568 -0.66485715 234 88 12
1.0580709 -1.2797606 -0.6627723 234 88 12
1.0878681 -1.2737651 -0.66628987 234 88 12
1.0941725 -1.261169 -0.66584849 234 88 12
1.1000363 -1.2556944 -0.6660912 234 88 12
1.0814718 -1.2461275 -0.66250741 234 88 12
1.1104192 -1.2480392 -0.6667344 234 88 12
1.1122726 -1.2449769 -0.66667169 234 88 12
1.0901787 -1.2917744 -0.67215633 234 88 12
1.0571502 -1.2790679 -0.6663627 234 88 12
1.072508 -1.2797434 -0.66852105 234 88 12
1.065402 -1.2704477 -0.66660297 234 88 12
1.0736207 -1.2691814 -0.66759139 234 88 12
1.0678836 -1.263824 -0.66626257 234 88 12
1.0748335 -1.2548237 -0.66628683 234 88 12
1.0771016 -1.2518091 -0.66628683 234 88 12
1.0897183 -1.2483537 -0.66764951 234 88 12
1.0844114 -1.2429286 -0.6663723 234 88 12
1.1010853 -1.2446127 -0.66881293 234 88 12
1.0625724 -1.2801424 -0.6709733 234 88 12
1.0827254 -1.2750356 -0.67314214 234 88 12
1.0669624 -1.2631308 -0.66985512 234 88 12
1.0602692 -1.2862906 -0.67502928 234 88 12
1.0503969 -1.2799668 -0.67312866 234 88 12
1.0687692 -1.2814386 -0.67565924 234 88 12
1.0539855 -1.2736546 -0.67297786 234 88 12
1.0601505 -1.2643896 -0.67287314 234 88 12
1.0878994 -1.261681 -0.67621332 234 88 12
1.0806665 -1.2558024 -0.67469907 234 88 12
1.0770694 -1.2509875 -0.67376113 234 88 12
1.095228 -1.2493215 -0.67595732 234 88 12
1.0888075 -1.2435582 -0.67455989 234 88 12
1.2029171 -1.3247075 -0.70053083 234 88 12
1.0670391 -1.2805254 -0.67907619 234 88 12
1.0656526 -1.2728927 -0.67817181 234 88 12
1.09109 -1.2658677 -0.68072826 234 88 12
1.17249 -1.316031 -0.69916254 234 88 12
1.0638908 -1.2828171 -0.68262219 234 88 12
1.0617 -1.2786013 -0.6819582 234 88 12
1.064738 -1.2722045 -0.68173844 234 88 12
1.4545618 -1.3796129 -0.74001044 234 88 12
1.0726942 -1.2635825 -0.68192035 234 88 12
1.0716846 -1.2880987 -0.68776143 234 88 12
1.0500246 -1.2748972 -0.68394572 234 88 12
1.0522972 -1.2718767 -0.68394572 234 88 12
1.0762175 -1.2678552 -0.68646932 234 88 12
1.2127405 -1.3262707 -0.71142572 234 88 12
1.0767934 -1.2855296 -0.69180906 234 88 12
1.0491017 -1.2742028 -0.68754494 234 88 12
1.0533041 -1.2643788 -0.68716943 234 88 12
1.0592014 -1.2624185 -0.6876902 234 88 12
1.0561386 -1.2829771 -0.69287467 234 88 12
1.0583837 -1.2799931 -0.69287467 234 88 12
1.0472034 -1.2695631 -0.69069177 234 88 12
1.0517663 -1.2671912 -0.69101048 234 88 12
1.0523788 -1.2636826 -0.6907779 234 88 12
1.0812968 -1.2685272 -0.69451362 234 88 12
1.0478871 -1.276642 -0.69513565 234 88 12
1.1956612 -1.3204681 -0.71852827 234 88 12
1.0680993 -1.2818345 -0.7015031 234 88 12
1.0481515 -1.2758442 -0.70258301 234 88 12
1.0635172 -1.2765394 -0.70426244 234 88 12
1.052663 -1.269829 -0.70258152 234 88 12
1.0589588 -1.2679913 -0.7031008 234 88 12
1.3293548 0.94853723 -0.70413399 234 88 12
1.3117278 0.94798195 -0.70058686 234 88 12
1.3274882 0.95546949 -0.7044751 234 88 12
1.3183607 0.9570145 -0.7028262 234 88 12
1.3913265 0.95649743 -0.72074538 234 88 12
1.3159467 0.94119269 -0.7045418 234 88 12
1.307209 0.94658124 -0.70338488 234 88 12
1.308266 0.95434016 -0.70437187 234 88 12
1.3534452 0.9684574 -0.71458143 234 88 12
1.3040737 0.93793064 -0.70575672 234 88 12
1.3185308 0.96011353 -0.71071243 234 88 12
1.3085215 0.96152353 -0.70893979 234 88 12
1.3154334 0.93670124 -0.71161085 234 88 12
1.3032087 0.93741131 -0.709387 234 88 12
1.3034946 0.94506168 -0.7101835 234 88 12
1.3024777 0.95234871 -0.71070039 234 88 12
1.3174256 0.95954132 -0.71420234 234 88 12
1.3308274 0.91783744 -0.71644258 234 88 12
1.323498 0.91961223 -0.71526253 234 88 12
1.3322822 0.925776 -0.71746701 234 88 12
1.3388356 0.9312644 -0.7191965 234 88 12
1.3002594 0.94396722 -0.71330583 234 88 12
1.2991016 0.95123821 -0.71378565 234 88 12
1.3163203 0.95896906 -0.71769226 234 88 12
1.3143133 0.97316754 -0.71867603 234 88 12
1.3604555 0.92213029 -0.72596234 234 88 12
1.3201143 0.91459417 -0.71797073 234 88 12
1.3135762 0.91662216 -0.71697938 234 88 12
1.3176985 0.92536622 -0.71854174 234 88 12
1.3377949 0.93441981 -0.72301847 234 88 12
1.3237514 0.93448961 -0.72048831 234 88 12
1.3095486 0.93461514 -0.71793455 234 88 12
1.3070818 0.94906008 -0.71883988 234 88 12
1.3033395 0.95191544 -0.71843094 234 88 12
1.3378861 0.96363801 -0.72576737 234 88 12
1.3002888 0.95868057 -0.71851254 234 88 12
1.3044081 0.96332294 -0.71969074 234 88 12
1.3681552 0.98102909 -0.73286128 234 88 12
1.3356581 0.97744769 -0.72665638 234 88 12
1.3017766 0.97380382 -0.72019559 234 88 12
1.3164804 0.9133144 -0.72100902 234 88 12
1.3147445 0.91666746 -0.72100902 234 88 12
1.3188192 0.92159051 -0.72218257 234 88 12
1.3204294 0.92958432 -0.72320122 234 88 12
1.3076401 0.93003803 -0.72097677 234 88 12
1.3063776 0.93729925 -0.72141922 234 88 12
1.3003236 0.93957853 -0.7205556 234 88 12
1.3115027 0.9460783 -0.72313261 234 88 12
1.3450289 0.96140915 -0.73047918 234 88 12
1.292016 0.96022075 -0.72097725 234 88 12
1.31932 0.97719586 -0.72737217 234 88 12
1.4747931 0.95068467 -0.75568086 234 88 12
1.3092145 0.92254198 -0.72438115 234 88 12
1.325829 0.93445265 -0.7283392 234 88 12
1.344074 0.9464609 -0.73258936 234 88 12
1.3257117 0.94554728 -0.72931683 234 88 12
1.2972972 0.94985932 -0.72476792 234 88 12
1.3107741 0.96409696 -0.72839016 234 88 12
1.3088534 0.97099102 -0.72867656 234 88 12
1.2930925 0.971277 -0.72596395 234 88 12
1.3234899 0.90710163 -0.72925425 234 88 12
1.3153394 0.90861869 -0.72799987 234 88 12
1.3213989 0.91794807 -0.72985452 234 88 12
1.3089739 0.91837168 -0.72777569 234 88 12
1.322143 0.92570913 -0.73066556 234 88 12
1.3107946 0.92648333 -0.72880107 234 88 12
1.3352414 0.93660527 -0.73385721 234 88 12
1.3141723 0.93490988 -0.73011935 234 88 12
1.3046606 0.93626881 -0.72861922 234 88 12
1.2997983 0.94261628 -0.72835082 234 88 12
1.3063776 0.94795853 -0.72994244 234 88 12
1.2989863 0.9536823 -0.72918832 234 88 12
1.2956592 0.96037853 -0.72921211 234 88 12
1.2974116 0.9718582 -0.73052281 234 88 12
1.3109331 0.9186244 -0.7319262 234 88 12
1.3312488 0.9389801 -0.73707557 234 88 12
1.2995274 0.93846697 -0.7317372 234 88 12
1.3154205 0.96084595 -0.7363233 234 88 12
1.3013215 0.96132433 -0.73401165 234 88 12
1.3122588 0.97106946 -0.73667902 234 88 12
1.3338757 0.97931248 -0.74099892 234 88 12
1.3470449 0.91706818 -0.74148279 234 88 12
1.3084564 0.91384417 -0.73490149 234 88 12
1.3079764 0.92517012 -0.73578167 234 88 12
1.3157749 0.93473589 -0.73786616 234 88 12
1.3116583 0.95599425 -0.73899251 234 88 12
1.2892001 0.95452368 -0.73519659 234 88 12
1.2984953 0.96405935 -0.73752326 234 88 12
1.3742263 0.98762441 -0.75189817 234 88 12
1.3633101 0.92506135 -0.74840379 234 88 12
1.31434 0.91519213 -0.73974699 234 88 12
1.3075006 0.9171384 -0.73881346 234 88 12
1.299011 0.93394911 -0.73884773 234 88 12
1.2924292 0.94367385 -0.73860008 234 88 12
1.2906914 0.94703048 -0.73860008 234 88 12
1.2908946 0.95083964 -0.73894829 234 88 12
1.2861992 0.96100247 -0.73903894 234 88 12
1.3450546 0.91970044 -0.74868488 234 88 12
1.3132198 0.91461217 -0.74328429 234 88 12
1.4232284 0.94832945 -0.76325548 234 88 12
1.2990096 0.92605168 -0.7419858 234 88 12
1.3293591 0.92253518 -0.75014222 234 88 12
1.3130561 0.92188537 -0.7475915 234 88 12
1.3160628 0.92645478 -0.74841505 234 88 12
1.3009046 0.9300499 -0.74637675 234 88 12
1.2971739 0.93288809 -0.74603009 234 88 12
1.2957824 0.94385993 -0.74668759 234 88 12
1.2904414 0.95009458 -0.74636364 234 88 12
1.28871 0.95343858 -0.74636364 234 88 12
1.2932785 0.95820791 -0.74744248 234 88 12
1.2989146 0.96316767 -0.74870008 234 88 12
1.3052536 0.96822637 -0.75007331 234 88 12
1.317502 0.93402189 -0.75293332 234 88 12
1.2925191 0.93141204 -0.74898541 234 88 12
1.2913339 0.93870085 -0.7493735 234 88 12
1.3528793 0.96439248 -0.76059413 234 88 12
1.3265424 0.96182972 -0.7564469 234 88 12
1.3127143 0.96228671 -0.75440937 234 88 12
1.301668 0.92207944 -0.75339442 234 88 12
1.3116429 0.92848158 -0.75534195 234 88 12
1.3163991 0.93345088 -0.75641596 234 88 12
1.2983421 0.93258923 -0.75370443 234 88 12
1.2966135 0.93592817 -0.75370443 234 88 12
1.4623594 0.98665953 -0.78184289 234 88 12
1.3057814 0.92666471 -0.75807548 234 88 12
1.3075162 0.94577646 -0.75974071 234 88 12
1.4426391 0.9816969 -0.78175116 234 88 12
1.3043354 0.94098705 -0.76263112 234 88 12
1.3064122 0.94520485 -0.76322687 234 88 12
1.2957145 0.94634324 -0.7618134 234 88 12
1.2931737 0.92279088 -0.76351327 234 88 12
1.2912471 0.926099 -0.76348412 234 88 12
1.2989223 0.94679993 -0.76599455 234 88 12
1.3323721 0.9327839 -0.77317238 234 88 12
1.3383422 0.95593029 -0.775563 234 88 12
1.4332429 0.95899385 -0.79162359 234 88 12
1.282192 0.93081164 -0.77011871 234 88 12
1.2887053 0.93622237 -0.77132797 234 88 12
1.3461363 0.93585062 -0.78229272 234 88 12
1.3047158 0.92871249 -0.7765851 234 88 12
1.2828046 0.92685717 -0.77369159 234 88 12
1.2876803 0.93566543 -0.77488536 234 88 12
1.315908 0.93132842 -0.7818048 234 88 12
1.2950139 0.93343699 -0.77936518 234 88 12
1.3262087 0.9449147 -0.78394043 234 88 12
0.3656711 -1.0310348 -1.4742036 234 88 12
0.35572141 -1.0254011 -1.4762499 234 88 12
0.41619211 -1.0389836 -1.5093062 234 88 12
0.3495653 -1.0208805 -1.480299 234 88 12
0.35480982 -1.0115447 -1.4909798 234 88 12
0.3724058 -1.0101423 -1.4971306 234 88 12
0.3923057 -1.0131037 -1.5057873 234 88 12
0.34335294 -1.0136777 -1.4914854 234 88 12
0.34441626 -1.0104989 -1.4907066 234 88 12
0.36007184 -1.0049037 -1.4945217 234 88 12
0.37309396 -1.0056136 -1.4996845 234 88 12
0.3507964 -1.0006255 -1.4934926 234 88 12
0.37044016 -1.0034847 -1.5018739 234 88 12
0.38815859 -1.0058311 -1.509348 234 88 12
0.34045264 -1.0101465 -1.497161 234 88 12
0.34668916 -1.0085891 -1.4989008 234 88 12
0.34509847 -1.0045751 -1.496848 234 88 12
0.35208529 -1.0032815 -1.4989616 234 88 12
0.367185 -1.0011567 -1.5037742 234 88 12
0.38627204 -1.0039716 -1.5118637 234 88 12
0.33941388 -1.0085111 -1.5001909 234 88 12
0.34315133 -1.0026559 -1.4994445 234 88 12
0.370839 -1.0010993 -1.509042 234 88 12
0.40697902 -1.0283285 -1.5358748 234 88 12
0.33694631 -1.0029125 -1.501272 234 88 12
0.35238516 -1.0043114 -1.5073922 234 88 12
0.42322996 -1.0237119 -1.5401328 234 88 12
0.36485776 -1.0013667 -1.5108749 234 88 12
0.35968411 -1.0122638 -1.5167923 234 88 12
0.42094651 -1.0217862 -1.5422879 234 88 12
0.32921028 -1.0013841 -1.5059178 234 88 12
0.33465531 -0.99958098 -1.5072303 234 88 12
0.34853455 -1.0005159 -1.512527 234 88 12
0.38576475 -1.0091393 -1.5288922 234 88 12
0.34714958 -1.0044785 -1.5212202 234 88 12
1.4261376 -0.27646562 -1.079213 234 88 12
1.3793192 -0.27101892 -1.0649565 234 88 12
1.3798097 -0.26730531 -1.0649565 234 88 12
1.4613349 -0.26407129 -1.0892775 234 88 12
1.3893807 -0.27862725 -1.0720383 234 88 12
1.3752505 -0.27442485 -1.0676916 234 88 12
1.3760206 -0.26697496 -1.0676283 234 88 12
1.3901864 -0.26022118 -1.071557 234 88 12
1.4235731 -0.25839552 -1.0813679 234 88 12
1.3696754 -0.2777935 -1.0699987 234 88 12
1.3628454 -0.27379 -1.0678493 234 88 12
1.3676159 -0.26643774 -1.068959 234 88 12
1.3700689 -0.25902224 -1.0693893 234 88 12
1.3881284 -0.25626922 -1.0745583 234 88 12
1.396575 -0.30750316 -1.0826941 234 88 12
1.4036312 -0.30393857 -1.0845921 234 88 12
1.3646064 -0.299941 -1.0731921 234 88 12
1.3602026 -0.29613754 -1.0717779 234 88 12
1.3684124 -0.29252496 -1.0740067 234 88 12
1.3863024 -0.25602797 -1.0777732 234 88 12
1.3960235 -0.31087363 -1.0863411 234 88 12
1.3783836 -0.30721486 -1.0811876 234 88 12
1.3632436 -0.29596227 -1.0764598 234 88 12
1.3588331 -0.29213899 -1.0750619 234 88 12
1.3891879 -0.28904697 -1.0835774 234 88 12
1.395306 -0.28192255 -1.0850495 234 88 12
1.3617761 -0.26585048 -1.0749112 234 88 12
1.3719653 -0.26256973 -1.0776854 234 88 12
1.3901994 -0.24874523 -1.0823511 234 88 12
1.3938119 -0.245303 -1.083249 234 88 12
1.4359448 -0.31062019 -1.1011939 234 88 12
1.3571904 -0.30316114 -1.0788258 234 88 12
1.4119316 -0.29291037 -1.0938016 234 88 12
1.3708642 -0.28843948 -1.082116 234 88 12
1.3644857 -0.28455877 -1.0801829 234 88 12
1.3806475 -0.27761582 -1.0844592 234 88 12
1.3638505 -0.27329731 -1.0795875 234 88 12
1.3599994 -0.26938227 -1.078362 234 88 12
1.3734531 -0.26621565 -1.0820186 234 88 12
1.3604058 -0.26184982 -1.0781969 234 88 12
1.3750323 -0.25884202 -1.0821884 234 88 12
1.3699772 -0.25107637 -1.0804825 234 88 12
1.4416134 -0.24844538 -1.1004798 234 88 12
1.398121 -0.24182656 -1.0880344 234 88 12
1.3725106 -0.31040362 -1.0871319 234 88 12
1.3579242 -0.30667198 -1.0829597 234 88 12
1.3655622 -0.29927823 -1.0848027 234 88 12
1.3582786 -0.28419942 -1.0822363 234 88 12
1.4002583 -0.2817046 -1.09376 234 88 12
1.3778932 -0.27734327 -1.0874127 234 88 12
1.3899378 -0.27410585 -1.0906268 234 88 12
1.4160566 -0.27154082 -1.0977596 234 88 12
1.3629413 -0.25805601 -1.0825708 234 88 12
1.3632271 -0.24676104 -1.082237 234 88 12
1.3811867 -0.24049725 -1.0869771 234 88 12
1.3590857 -0.31016105 -1.0871859 234 88 12
1.3539108 -0.30267254 -1.0855038 234 88 12
1.3527819 -0.29891008 -1.0850602 234 88 12
1.3532773 -0.29515997 -1.0850602 234 88 12
1.3591617 -0.29151195 -1.0865343 234 88 12
1.3883967 -0.28480133 -1.0942695 234 88 12
1.3616216 -0.28035238 -1.0868032 234 88 12
1.3685371 -0.27312496 -1.0884297 234 88 12
1.3611655 -0.26909357 -1.086273 234 88 12
1.3602529 -0.26529625 -1.085887 234 88 12
1.3644793 -0.26174158 -1.086912 234 88 12
1.3620656 -0.25786266 -1.0861137 234 88 12
1.3661145 -0.2543295 -1.0870911 234 88 12
1.3666062 -0.2506074 -1.0870911 234 88 12
1.3811386 -0.24779196 -1.0909549 234 88 12
1.3819336 -0.24414434 -1.0910403 234 88 12
1.3835753 -0.24056026 -1.0913591 234 88 12
1.4438547 -0.30994591 -1.1137488 234 88 12
1.389797 -0.30632716 -1.0990756 234 88 12
1.354504 -0.29870543 -1.0893087 234 88 12
1.3543087 -0.28745717 -1.0888563 234 88 12
1.3886389 -0.28098792 -1.0978632 234 88 12
1.3605551 -0.25010717 -1.0892093 234 88 12
1.3675348 -0.23929095 -1.0907029 234 88 12
1.3838212 -0.29520211 -1.1007347 234 88 12
1.3753663 -0.29140767 -1.0983589 234 88 12
1.3538371 -0.28349251 -1.0923704 234 88 12
1.3540453 -0.26469105 -1.0917667 234 88 12
1.365075 -0.26146564 -1.0945796 234 88 12
1.3773139 -0.25469309 -1.0975888 234 88 12
1.3702762 -0.24684234 -1.0954468 234 88 12
1.4085604 -0.24215338 -1.1054381 234 88 12
1.3713981 -0.30212674 -1.1013738 234 88 12
1.3820211 -0.29496425 -1.1039042 234 88 12
1.3598568 -0.2908996 -1.097968 234 88 12
1.353507 -0.28703368 -1.096174 234 88 12
1.3658457 -0.28362274 -1.0992826 234 88 12
1.3528234 -0.27951819 -1.0957355 234 88 12
1.3522776 -0.27574393 -1.0954624 234 88 12
1.352182 -0.26444489 -1.0950471 234 88 12
1.3544039 -0.25701466 -1.0953715 234 88 12
1.3552418 -0.24951853 -1.0953315 234 88 12
1.3812993 -0.24375421 -1.1019464 234 88 12
1.4067932 -0.2419199 -1.1085495 234 88 12
1.3520383 -0.30173659 -1.1000489 234 88 12
1.3545767 -0.26814818 -1.0995594 234 88 12
1.3534786 -0.25681907 -1.0988907 234 88 12
1.352212 -0.24920103 -1.0983049 234 88 12
1.3678622 -0.29798391 -1.1076789 234 88 12
1.4407203 -0.29550099 -1.1261005 234 88 12
1.3541902 -0.29037315 -1.1039511 234 88 12
1.3927777 -0.28397956 -1.1135372 234 88 12
1.3615 -0.27941442 -1.1054399 234 88 12
1.3619877 -0.27572253 -1.1054399 234 88 12
1.3663919 -0.24249662 -1.1054436 234 88 12
1.3431773 -0.28994405 -1.1049013 234 88 12
1.3666904 -0.27939278 -1.1104367 234 88 12
1.3671746 -0.27572715 -1.1104367 234 88 12
1.3440623 -0.27114263 -1.1045011 234 88 12
1.3468766 -0.26748779 -1.1050845 234 88 12
1.3538868 -0.25655067 -1.1064773 234 88 12
1.3588461 -0.24934638 -1.1074802 234 88 12
1.3835915 -0.24722141 -1.1136025 234 88 12
1.3529695 -0.28249946 -1.1108205 234 88 12
1.3648682 -0.27915204 -1.113645 234 88 12
1.348755 -0.27489942 -1.1095339 234 88 12
1.4051449 -0.26273099 -1.1230397 234 88 12
1.3690581 -0.29006213 -1.1186708 234 88 12
1.3549852 -0.28606996 -1.1151254 234 88 12
1.3501734 -0.27850187 -1.1137142 234 88 12
1.350664 -0.27478835 -1.1137142 234 88 12
1.3643122 -0.26790634 -1.1168076 234 88 12
1.4132829 -0.29078165 -1.1328936 234 88 12
1.4279146 -0.28766224 -1.136294 234 88 12
1.3387001 -0.28171328 -1.1147712 234 88 12
1.3390033 -0.2779597 -1.1147251 234 88 12
1.3647254 -0.27143922 -1.1206703 234 88 12
1.3578634 -0.26746571 -1.1189039 234 88 12
1.3615656 -0.2895028 -1.1241237 234 88 12
1.3352393 -0.27387935 -1.1174388 234 88 12
1.3963208 -0.2689707 -1.1316687 234 88 12
1.365777 -0.28939089 -1.1287212 234 88 12
1.4798621 -0.28859374 -1.1551419 234 88 12
1.3317684 -0.28112921 -1.120585 234 88 12
1.3607939 -0.27094719 -1.1270014 234 88 12
1.3540416 -0.26697496 -1.1253145 234 88 12
1.4197299 -0.29034752 -1.1446555 234 88 12
1.3572998 -0.28534272 -1.1302611 234 88 12
1.3359677 -0.2810573 -1.125265 234 88 12
1.3326577 -0.27719662 -1.1243935 234 88 12
1.3434825 -0.27008775 -1.1266488 234 88 12
1.3692172 -0.26747593 -1.1324415 234 88 12
1.348925 -0.28493652 -1.1319841 234 88 12
1.3584592 -0.27051902 -1.133697 234 88 12
1.3714061 -0.28531528 -1.1405936 234 88 12
1.3477552 -0.27732345 -1.135136 234 88 12
1.3353006 -0.27316809 -1.1322637 234 88 12
0.46703044 1.0880677 -1.3981729 234 88 12
0.45055988 1.0859686 -1.3914702 234 88 12
0.44790128 1.0886272 -1.3914702 234 88 12
0.44529271 1.0757759 -1.3899879 234 88 12
0.45499048 1.0827388 -1.3959495 234 88 12
0.44537857 1.0830061 -1.3926058 234 88 12
0.49665427 1.1106309 -1.4208378 234 88 12
0.44614974 1.0712671 -1.3927679 234 88 12
0.45233133 1.0912635 -1.4020534 234 88 12
0.453143 1.095036 -1.4036794 234 88 12
0.50525135 1.087689 -1.4233862 234 88 12
0.45497513 1.0732288 -1.4006246 234 88 12
0.44680297 1.0811162 -1.4005246 234 88 12
0.43739647 1.0850426 -1.3985977 234 88 12
0.45377523 1.1009905 -1.4099638 234 88 12
0.43784356 1.1027639 -1.4049858 234 88 12
0.45494169 1.1116172 -1.4141104 234 88 12
0.44795144 1.0695612 -1.4009068 234 88 12
0.43333837 1.0824695 -1.4003127 234 88 12
0.43145639 1.085405 -1.4006798 234 88 12
0.46075988 1.09866 -1.4155123 234 88 12
0.42845729 1.0950348 -1.4029907 234 88 12
0.47217703 1.1125474 -1.4243314 234 88 12
0.57843393 1.1495452 -1.4742587 234 88 12
0.4345549 1.0745082 -1.4020066 234 88 12
0.48762161 1.1030663 -1.4302044 234 88 12
0.44996464 1.093899 -1.4140288 234 88 12
0.42930564 1.0905719 -1.4057425 234 88 12
0.41854456 1.0941306 -1.4032544 234 88 12
0.43128732 1.1017033 -1.4102726 234 88 12
0.44432017 1.06593 -1.4064356 234 88 12
0.44238225 1.0760449 -1.4092355 234 88 12
0.44354185 1.0800089 -1.4109898 234 88 12
0.45779446 1.0884068 -1.4187455 234 88 12
0.43886214 1.0854937 -1.4112655 234 88 12
0.42593977 1.0847032 -1.4065701 234 88 12
0.50843489 1.0707253 -1.4338188 234 88 12
0.46918541 1.0737305 -1.4215183 234 88 12
0.43947536 1.0666533 -1.4090335 234 88 12
0.47457647 1.092984 -1.4298822 234 88 12
0.42679176 1.0802211 -1.4093336 234 88 12
0.42602396 1.0870675 -1.4113966 234 88 12
0.4191367 1.0883356 -1.4094896 234 88 12
0.41818577 1.0950723 -1.4114531 234 88 12
0.46507147 1.0458395 -1.4146295 234 88 12
0.45102388 1.0478163 -1.4105693 234 88 12
0.45589283 1.0533347 -1.4140632 234 88 12
0.47232187 1.0666696 -1.4240746 234 88 12
0.4498814 1.0620146 -1.4149607 234 88 12
0.44662103 1.0644438 -1.4146812 234 88 12
0.51210237 1.0948179 -1.4469234 234 88 12
0.48585427 1.0889382 -1.4361168 234 88 12
0.43046862 1.0731266 -1.4121687 234 88 12
0.43153062 1.0770729 -1.4138533 234 88 12
0.43346664 1.0953063 -1.4206375 234 88 12
0.42255571 1.0952531 -1.4169496 234 88 12
0.46556541 1.0558654 -1.4220876 234 88 12
0.45433548 1.0588971 -1.4193546 234 88 12
0.44064635 1.0574872 -1.4143212 234 88 12
0.46777937 1.0709701 -1.427861 234 88 12
0.51810062 1.0925577 -1.4518329 234 88 12
0.44020665 1.0717704 -1.418936 234 88 12
0.43756413 1.0744131 -1.418936 234 88 12
0.4297913 1.0788503 -1.4178241 234 88 12
0.42110837 1.0794649 -1.4151344 234 88 12
0.49598646 1.1080002 -1.4496087 234 88 12
0.42406586 1.0910378 -1.4199783 234 88 12
0.4214296 1.0936739 -1.4199783 234 88 12
0.45438951 1.0394679 -1.4168761 234 88 12
0.45311511 1.0463688 -1.418735 234 88 12
0.44577792 1.054589 -1.4190267 234 88 12
0.43699157 1.0549943 -1.4162577 234 88 12
0.44080549 1.0600315 -1.4191821 234 88 12
0.4362326 1.0619992 -1.4183214 234 88 12
0.4635067 1.0788293 -1.4328926 234 88 12
0.42624882 1.0692909 -1.4174318 234 88 12
0.420573 1.0780836 -1.4184617 234 88 12
0.41208172 1.0823584 -1.4170686 234 88 12
0.43220118 1.0959538 -1.4282074 234 88 12
0.45257136 1.0376498 -1.4196444 234 88 12
0.44158182 1.0482221 -1.4195077 234 88 12
0.47447443 1.0746645 -1.438935 234 88 12
0.45654747 1.0717187 -1.4321009 234 88 12
0.42680791 1.064703 -1.4200666 234 88 12
0.41719329 1.0721582 -1.4193597 234 88 12
0.43384284 1.0848964 -1.4289817 234 88 12
0.4727219 1.101307 -1.4470845 234 88 12
0.43493974 1.0922068 -1.4317343 234 88 12
0.40653881 1.0864075 -1.4205366 234 88 12
0.45491788 1.0448369 -1.4266859 234 88 12
0.50119358 1.0730377 -1.4508511 234 88 12
0.4650192 1.0630723 -1.4358802 234 88 12
0.50655341 1.081825 -1.4554414 234 88 12
0.45737663 1.0673565 -1.4347905 234 88 12
0.48073906 1.0860965 -1.4484514 234 88 12
0.42812529 1.0747304 -1.4276921 234 88 12
0.41221261 1.0764226 -1.4230779 234 88 12
0.41505563 1.0844576 -1.4266075 234 88 12
0.45534217 1.0365378 -1.4280527 234 88 12
0.44519782 1.0399771 -1.4258968 234 88 12
0.44327009 1.042927 -1.4262255 234 88 12
0.44938165 1.0525477 -1.431284 234 88 12
0.4364908 1.051374 -1.4267616 234 88 12
0.43183506 1.053303 -1.425885 234 88 12
0.44247615 1.0608119 -1.4317207 234 88 12
0.48667878 1.0803088 -1.4522023 234 88 12
0.43143302 1.0640137 -1.4291996 234 88 12
0.42047891 1.0637295 -1.4255861 234 88 12
0.4209792 1.0675054 -1.4269609 234 88 12
0.40688568 1.0805464 -1.4266225 234 88 12
0.41060913 1.0853028 -1.4293492 234 88 12
0.49689084 1.0553882 -1.4511976 234 88 12
0.44338268 1.0381619 -1.4286605 234 88 12
0.43718499 1.0431683 -1.4282809 234 88 12
0.45749891 1.0544825 -1.4383582 234 88 12
0.43001986 1.0514878 -1.4286487 234 88 12
0.4479509 1.0616728 -1.4376069 234 88 12
0.42133155 1.059244 -1.4283518 234 88 12
0.41196024 1.0667783 -1.4277664 234 88 12
0.41626629 1.0859562 -1.4352489 234 88 12
0.53771812 1.0703651 -1.4725204 234 88 12
0.46025229 1.0472304 -1.4407593 234 88 12
0.44581184 1.0489683 -1.436749 234 88 12
0.43961552 1.0502715 -1.4352041 234 88 12
0.42519164 1.0485584 -1.4301095 234 88 12
0.47514948 1.0739564 -1.4539003 234 88 12
0.42396304 1.0768373 -1.4386497 234 88 12
0.46237537 1.0932994 -1.4559742 234 88 12
0.45986173 1.095813 -1.4559742 234 88 12
0.45734811 1.0983267 -1.4559742 234 88 12
0.44467306 1.0401273 -1.4374777 234 88 12
0.43868965 1.0414984 -1.4360349 234 88 12
0.47062528 1.0572444 -1.450951 234 88 12
0.43635392 1.0551642 -1.4395792 234 88 12
0.4380748 1.062946 -1.4425519 234 88 12
0.41190639 1.0571673 -1.4325579 234 88 12
0.41299972 1.0683531 -1.4363992 234 88 12
0.41034648 1.0710063 -1.4363992 234 88 12
0.52407789 1.1130521 -1.4851305 234 88 12
0.56654751 1.0862004 -1.4933928 234 88 12
0.43568587 1.0392326 -1.4382734 234 88 12
0.50947005 1.0709075 -1.4709612 234 88 12
0.48663187 1.0656968 -1.4622673 234 88 12
0.42236775 1.0452211 -1.4360017 234 88 12
0.48203474 1.0708638 -1.4624439 234 88 12
0.43891001 1.0585521 -1.445261 234 88 12
0.41008425 1.0553451 -1.4353323 234 88 12
0.47301069 1.0812398 -1.462863 234 88 12
0.40933013 1.0623116 -1.4372579 234 88 12
0.42672968 1.0754428 -1.4467211 234 88 12
0.85762107 1.2252868 -1.6267236 234 88 12
0.68069059 1.1350613 -1.54681 234 88 12
0.4205485 1.0434018 -1.4387716 234 88 12
0.43353516 1.051863 -1.4453582 234 88 12
0.41531312 1.056052 -1.4410486 234 88 12
0.41265443 1.0587107 -1.4410486 234 88 12
0.44388324 1.0767429 -1.4561768 234 88 12
0.56513131 1.121941 -1.5072924 234 88 12
0.76052004 1.1915344 -1.5886686 234 88 12
0.42831132 1.0524092 -1.447751 234 88 12
0.41991222 1.0529468 -1.4453591 234 88 12
0.41980603 1.0636576 -1.4485856 234 88 12
0.40114382 1.0606883 -1.4420041 234 88 12
0.41866446 1.0703351 -1.4502701 234 88 12
0.40687135 1.0698141 -1.4465233 234 88 12
0.408041 1.0474732 -1.443962 234 88 12
0.43087578 1.0593575 -1.4544276 234 88 12
0.4066501 1.0542393 -1.4455823 234 88 12
0.42472708 1.0488249 -1.4532082 234 88 12
0.40719274 1.0460081 -1.4471309 234 88 12
0.40217146 1.0550907 -1.4483438 234 88 12
0.41385823 1.062799 -1.4541355 234 88 12
0.40591758 1.0635779 -1.4519969 234 88 12
0.45891964 1.0853798 -1.4743352 234 88 12
0.40250847 1.046792 -1.4498229 234 88 12
0.40858293 1.0597814 -1.4554626 234 88 12
0.42695045 1.0697489 -1.4638449 234 88 12
0.4040263 1.0688374 -1.4567935 234 88 12
0.56270355 1.1009427 -1.5164728 234 88 12
0.39194906 1.0491071 -1.4512434 234 88 12
0.38926679 1.0517894 -1.4512434 234 88 12
0.44532138 1.0784463 -1.4754817 234 88 12
0.40909973 1.0694039 -1.4622172 234 88 12
0.39585078 1.0420496 -1.4541665 234 88 12
0.39276281 1.0482275 -1.4550635 234 88 12
0.38744134 1.049964 -1.4540228 234 88 12
0.39759415 1.0607258 -1.4600939 234 88 12
0.42740053 1.0745409 -1.4727564 234 88 12
0.42196122 1.0504688 -1.4679224 234 88 12
0.40984294 1.0532027 -1.4652241 234 88 12
0.39579615 1.0589279 -1.4628315 234 88 12
0.43788108 1.0770224 -1.4801348 234 88 12
0.40775371 1.0441208 -1.4657816 234 88 12
0.40166679 1.045506 -1.4644426 234 88 12
0.38961464 1.0520035 -1.4628607 234 88 12
0.49038231 1.0800632 -1.5029765 234 88 12
0.43128514 1.0621585 -1.4812568 234 88 12
0.38525611 1.0528926 -1.4656599 234 88 12
