ply
format ascii 1.0
element vertex 117
property float x
property float y
property float z
property uchar red
property uchar green
property uchar blue
end_header
-0.7948392 -2.0109673 -0.59768856 234 88 12
-0.7894932 -2.0129857 -0.59768856 234 88 12
-0.7788012 -2.0170221 -0.59768856 234 88 12
-0.77523726 -2.0183678 -0.59768856 234 88 12
-0.76989126 -2.020386 -0.59768856 234 88 12
-0.78493559 -2.0116994 -0.60476923 234 88 12
-0.77958959 -2.0137177 -0.60476923 234 88 12
-0.76889765 -2.0177543 -0.60476923 234 88 12
-1.9296143 0.39450714 -1.076333 234 88 12
-1.9302343 0.39074841 -1.076333 234 88 12
-1.9305443 0.38886905 -1.076333 234 88 12
-1.9320941 0.37947217 -1.076333 234 88 12
-1.9294692 0.38869175 -1.0778955 234 88 12
-1.9299442 0.37911758 -1.0794579 234 88 12
-1.9253144 0.39379796 -1.0825827 234 88 12
-1.9262443 0.38815984 -1.0825827 234 88 12
-1.2652092 -1.1992126 -1.4011993 234 88 12
-1.2656369 -1.1969466 -1.4025917 234 88 12
-1.2562089 -1.2063746 -1.4025917 234 88 12
-1.2660648 -1.1946807 -1.4039842 234 88 12
-1.2606773 -1.2000681 -1.4039842 234 88 12
-1.2566367 -1.2041088 -1.4039842 234 88 12
-1.2565733 -1.1986579 -1.4081614 234 88 12
-1.247573 -1.2058201 -1.4095539 234 88 12
-1.2528971 -1.1949818 -1.4137311 234 88 12
-1.2475097 -1.2003692 -1.4137311 234 88 12
-1.2470185 -1.1971843 -1.4165159 234 88 12
0.32564417 -1.9100536 -1.1200804 234 88 12
0.33316165 -1.9088138 -1.1200804 234 88 12
0.32358751 -1.9092886 -1.1216427 234 88 12
0.33298436 -1.9077388 -1.1216427 234 88 12
0.32153082 -1.9085237 -1.1232051 234 88 12
0.34184933 -1.902964 -1.1263299 234 88 12
0.34149474 -1.9008141 -1.1294547 234 88 12
0.31500623 -1.9040786 -1.1310171 234 88 12
0.32252371 -1.9028387 -1.1310171 234 88 12
0.33192056 -1.9012889 -1.1310171 234 88 12
0.33567932 -1.900669 -1.1310171 234 88 12
0.34131745 -1.8997391 -1.1310171 234 88 12
0.32798454 -1.9008338 -1.1325794 234 88 12
-1.166842 1.2475698 -1.4536815 234 88 12
-1.164516 1.2479233 -1.4549931 234 88 12
-1.1699421 1.2425748 -1.4549931 234 88 12
-1.1594768 1.2509509 -1.4563048 234 88 12
-1.1588942 1.2476466 -1.4589282 234 88 12
-1.1505593 1.2500441 -1.4628632 234 88 12
-1.1532724 1.2473699 -1.4628632 234 88 12
-1.1600552 1.2406843 -1.4628632 234 88 12
-1.1627682 1.23801 -1.4628632 234 88 12
-1.1482332 1.2503976 -1.464175 234 88 12
-1.1499767 1.2467396 -1.4654866 234 88 12
-1.1594726 1.2373799 -1.4654866 234 88 12
-1.133445 -0.080204032 -1.9231288 234 88 12
-1.130325 -0.077903166 -1.9248929 234 88 12
-1.1300936 -0.079793818 -1.9248929 234 88 12
-1.1255851 -0.088836864 -1.9266571 234 88 12
-1.1210208 -0.084440239 -1.9293032 234 88 12
-1.1205579 -0.088221543 -1.9293032 234 88 12
-1.1202707 -0.076672524 -1.9301852 234 88 12
-1.1200392 -0.078563176 -1.9301852 234 88 12
-1.1188822 -0.088016436 -1.9301852 234 88 12
-1.1111978 -0.081318945 -1.9345955 234 88 12
-0.13578233 -1.0858225 -1.9442979 234 88 12
-0.13935852 -1.0836838 -1.9451799 234 88 12
-0.14104407 -1.0817767 -1.9460621 234 88 12
-0.135167 -1.0807953 -1.9469441 234 88 12
-0.14630581 -1.077731 -1.9478261 234 88 12
-0.12550864 -1.0802766 -1.9478261 234 88 12
-0.14569049 -1.072704 -1.9504722 234 88 12
-0.13623723 -1.073861 -1.9504722 234 88 12
-0.12489332 -1.0752494 -1.9504722 234 88 12
-0.14170408 -1.071491 -1.9513543 234 88 12
-0.13603212 -1.0721853 -1.9513543 234 88 12
-0.12637375 -1.0716666 -1.9522364 234 88 12
1.2025988 -1.1278645 -1.510084 234 88 12
1.2092843 -1.1210817 -1.510084 234 88 12
1.2106215 -1.1197251 -1.510084 234 88 12
1.200278 -1.1282514 -1.5113958 234 88 12
1.2083007 -1.1201121 -1.5113958 234 88 12
1.2096379 -1.1187556 -1.5113958 234 88 12
1.1979573 -1.1286385 -1.5127075 234 88 12
1.198034 -1.1206906 -1.5179542 234 88 12
1.1897346 -1.1232082 -1.5218893 234 88 12
1.1924088 -1.1204951 -1.5218893 234 88 12
1.1990944 -1.1137123 -1.5218893 234 88 12
1.188751 -1.1222386 -1.523201 234 88 12
1.1891044 -1.1199125 -1.5245126 234 88 12
1.2459562 1.2984841 -1.3396983 234 88 12
1.2378749 1.3065653 -1.3396983 234 88 12
1.2369583 1.3056487 -1.3410939 234 88 12
-0.051426291 1.3801339 -1.7628065 234 88 12
-0.04184195 1.3789485 -1.7638392 234 88 12
-0.062774554 1.3780384 -1.7638392 234 88 12
-0.039869461 1.3774322 -1.7648718 234 88 12
-0.049384285 1.3770186 -1.7648718 234 88 12
-0.058899105 1.3766048 -1.7648718 234 88 12
-0.039730418 1.3742342 -1.7669373 234 88 12
-0.049245238 1.3738205 -1.7669373 234 88 12
-0.058760058 1.3734068 -1.7669373 234 88 12
0.014285714 0.059999999 -2.23 234 88 12
0.0085714282 0.059999999 -2.23 234 88 12
-0.00095238094 0.059999999 -2.23 234 88 12
0.016190477 0.058095239 -2.23 234 88 12
0.0085714282 0.058095239 -2.23 234 88 12
-0.00095238094 0.058095239 -2.23 234 88 12
0.010476191 0.04857143 -2.23 234 88 12
0.0085714282 0.04857143 -2.23 234 88 12
-0.00095238094 0.04857143 -2.23 234 88 12
1.3359134 6.6928027e-05 -1.7927542 234 88 12
1.3342317 -0.0017665136 -1.7937869 234 88 12
1.3343145 0.00013645057 -1.7937869 234 88 12
1.3243066 -0.0089612352 -1.7999829 234 88 12
1.3247204 0.00055358582 -1.7999829 234 88 12
1.3181587 -0.0029742522 -1.8041136 234 88 12
1.3183243 0.00083167601 -1.8041136 234 88 12
1.3150434 -0.00093224307 -1.806179 234 88 12
1.3151262 0.00097072107 -1.806179 234 88 12
