<svg xmlns="http://www.w3.org/2000/svg" width="1200" height="470" viewBox="0 0 1200 470">
<style>
text { font-family: ui-sans-serif, system-ui, sans-serif; fill: #111827; }
.title { font-size: 22px; font-weight: 700; }
.panel-title { font-size: 15px; font-weight: 650; }
.tick { font-size: 11px; fill: #475569; }
.legend { font-size: 11px; }
.note { font-size: 11px; fill: #64748b; }
</style>
<rect width="100%" height="100%" fill="#ffffff"/>
<text x="600.00" y="32" class="title" text-anchor="middle">Validation ranking metrics — raw_rgb_16x16_mlp</text>
<text x="236.67" y="68" class="panel-title" text-anchor="middle">Normalized regret (lower is better)</text>
<rect x="65.00" y="90.00" width="343.33" height="315.00" fill="#f8fafc" stroke="#cbd5e1"/>
<line x1="65.00" y1="90.00" x2="65.00" y2="405.00" stroke="#e2e8f0"/>
<text x="65.00" y="424.00" class="tick" text-anchor="middle">0</text>
<line x1="65.00" y1="405.00" x2="408.33" y2="405.00" stroke="#e2e8f0"/>
<text x="57.00" y="409.00" class="tick" text-anchor="end">0.241</text>
<line x1="133.67" y1="90.00" x2="133.67" y2="405.00" stroke="#e2e8f0"/>
<text x="133.67" y="424.00" class="tick" text-anchor="middle">10</text>
<line x1="65.00" y1="342.00" x2="408.33" y2="342.00" stroke="#e2e8f0"/>
<text x="57.00" y="346.00" class="tick" text-anchor="end">0.271</text>
<line x1="202.33" y1="90.00" x2="202.33" y2="405.00" stroke="#e2e8f0"/>
<text x="202.33" y="424.00" class="tick" text-anchor="middle">20</text>
<line x1="65.00" y1="279.00" x2="408.33" y2="279.00" stroke="#e2e8f0"/>
<text x="57.00" y="283.00" class="tick" text-anchor="end">0.302</text>
<line x1="271.00" y1="90.00" x2="271.00" y2="405.00" stroke="#e2e8f0"/>
<text x="271.00" y="424.00" class="tick" text-anchor="middle">30</text>
<line x1="65.00" y1="216.00" x2="408.33" y2="216.00" stroke="#e2e8f0"/>
<text x="57.00" y="220.00" class="tick" text-anchor="end">0.332</text>
<line x1="339.67" y1="90.00" x2="339.67" y2="405.00" stroke="#e2e8f0"/>
<text x="339.67" y="424.00" class="tick" text-anchor="middle">40</text>
<line x1="65.00" y1="153.00" x2="408.33" y2="153.00" stroke="#e2e8f0"/>
<text x="57.00" y="157.00" class="tick" text-anchor="end">0.363</text>
<line x1="408.33" y1="90.00" x2="408.33" y2="405.00" stroke="#e2e8f0"/>
<text x="408.33" y="424.00" class="tick" text-anchor="middle">50</text>
<line x1="65.00" y1="90.00" x2="408.33" y2="90.00" stroke="#e2e8f0"/>
<text x="57.00" y="94.00" class="tick" text-anchor="end">0.393</text>
<text x="236.67" y="447.00" class="tick" text-anchor="middle">epoch</text>
<line x1="391.98" y1="90.0" x2="391.98" y2="405.0" stroke="#64748b" stroke-width="1.5" stroke-dasharray="1 4" data-last-epoch="48" data-stopped-early="true"/>
<line x1="337.49" y1="90.0" x2="337.49" y2="405.0" stroke="#111827" stroke-width="1.5" stroke-dasharray="3 4" data-best-epoch="40"/>
<polyline points="65.00,104.32 71.81,318.32 78.62,331.84 85.44,333.35 92.25,332.61 99.06,344.88 105.87,352.10 112.69,359.07 119.50,350.11 126.31,360.77 133.12,371.21 139.93,352.81 146.75,359.45 153.56,361.21 160.37,376.51 167.18,378.94 173.99,372.10 180.81,375.71 187.62,380.84 194.43,379.60 201.24,385.03 208.06,364.80 214.87,357.47 221.68,379.97 228.49,383.03 235.30,376.78 242.12,388.21 248.93,379.31 255.74,387.58 262.55,377.05 269.37,369.85 276.18,380.31 282.99,381.14 289.80,368.92 296.61,378.11 303.43,386.16 310.24,376.10 317.05,384.92 323.86,379.60 330.67,381.05 337.49,387.89 344.30,390.68 351.11,382.66 357.92,384.16 364.74,372.50 371.55,383.22 378.36,383.15 385.17,380.14 391.98,368.76" fill="none" stroke="#7c3aed" stroke-width="2.5" stroke-linejoin="round" stroke-linecap="round" data-series="validation_normalized_regret_mean"/>
<line x1="75.00" y1="107.00" x2="95.00" y2="107.00" stroke="#7c3aed" stroke-width="2.5"/>
<text x="102.00" y="111.00" class="legend">validation</text>
<text x="615.00" y="68" class="panel-title" text-anchor="middle">Spearman (higher is better)</text>
<rect x="443.33" y="90.00" width="343.33" height="315.00" fill="#f8fafc" stroke="#cbd5e1"/>
<line x1="443.33" y1="90.00" x2="443.33" y2="405.00" stroke="#e2e8f0"/>
<text x="443.33" y="424.00" class="tick" text-anchor="middle">0</text>
<line x1="443.33" y1="405.00" x2="786.67" y2="405.00" stroke="#e2e8f0"/>
<text x="435.33" y="409.00" class="tick" text-anchor="end">-0.0239</text>
<line x1="512.00" y1="90.00" x2="512.00" y2="405.00" stroke="#e2e8f0"/>
<text x="512.00" y="424.00" class="tick" text-anchor="middle">10</text>
<line x1="443.33" y1="342.00" x2="786.67" y2="342.00" stroke="#e2e8f0"/>
<text x="435.33" y="346.00" class="tick" text-anchor="end">0.0744</text>
<line x1="580.67" y1="90.00" x2="580.67" y2="405.00" stroke="#e2e8f0"/>
<text x="580.67" y="424.00" class="tick" text-anchor="middle">20</text>
<line x1="443.33" y1="279.00" x2="786.67" y2="279.00" stroke="#e2e8f0"/>
<text x="435.33" y="283.00" class="tick" text-anchor="end">0.173</text>
<line x1="649.33" y1="90.00" x2="649.33" y2="405.00" stroke="#e2e8f0"/>
<text x="649.33" y="424.00" class="tick" text-anchor="middle">30</text>
<line x1="443.33" y1="216.00" x2="786.67" y2="216.00" stroke="#e2e8f0"/>
<text x="435.33" y="220.00" class="tick" text-anchor="end">0.271</text>
<line x1="718.00" y1="90.00" x2="718.00" y2="405.00" stroke="#e2e8f0"/>
<text x="718.00" y="424.00" class="tick" text-anchor="middle">40</text>
<line x1="443.33" y1="153.00" x2="786.67" y2="153.00" stroke="#e2e8f0"/>
<text x="435.33" y="157.00" class="tick" text-anchor="end">0.369</text>
<line x1="786.67" y1="90.00" x2="786.67" y2="405.00" stroke="#e2e8f0"/>
<text x="786.67" y="424.00" class="tick" text-anchor="middle">50</text>
<line x1="443.33" y1="90.00" x2="786.67" y2="90.00" stroke="#e2e8f0"/>
<text x="435.33" y="94.00" class="tick" text-anchor="end">0.468</text>
<text x="615.00" y="447.00" class="tick" text-anchor="middle">epoch</text>
<line x1="770.32" y1="90.0" x2="770.32" y2="405.0" stroke="#64748b" stroke-width="1.5" stroke-dasharray="1 4" data-last-epoch="48" data-stopped-early="true"/>
<line x1="715.82" y1="90.0" x2="715.82" y2="405.0" stroke="#111827" stroke-width="1.5" stroke-dasharray="3 4" data-best-epoch="40"/>
<polyline points="443.33,390.68 450.15,141.41 456.96,133.90 463.77,129.33 470.58,127.28 477.39,122.45 484.21,121.63 491.02,119.47 497.83,120.65 504.64,120.99 511.46,115.84 518.27,119.60 525.08,114.81 531.89,122.64 538.70,112.27 545.52,111.63 552.33,110.68 559.14,112.21 565.95,110.38 572.76,110.12 579.58,109.86 586.39,110.82 593.20,117.85 600.01,109.10 606.83,106.41 613.64,107.96 620.45,107.27 627.26,108.60 634.07,106.41 640.89,111.98 647.70,116.12 654.51,110.17 661.32,106.68 668.13,111.39 674.95,111.03 681.76,105.24 688.57,112.76 695.38,110.78 702.20,105.37 709.01,109.29 715.82,109.49 722.63,105.69 729.44,104.32 736.26,107.15 743.07,106.54 749.88,108.63 756.69,105.72 763.51,109.56 770.32,107.29" fill="none" stroke="#059669" stroke-width="2.5" stroke-linejoin="round" stroke-linecap="round" data-series="validation_spearman_mean"/>
<line x1="453.33" y1="107.00" x2="473.33" y2="107.00" stroke="#059669" stroke-width="2.5"/>
<text x="480.33" y="111.00" class="legend">validation</text>
<text x="993.33" y="68" class="panel-title" text-anchor="middle">NDCG@5 (higher is better)</text>
<rect x="821.67" y="90.00" width="343.33" height="315.00" fill="#f8fafc" stroke="#cbd5e1"/>
<line x1="821.67" y1="90.00" x2="821.67" y2="405.00" stroke="#e2e8f0"/>
<text x="821.67" y="424.00" class="tick" text-anchor="middle">0</text>
<line x1="821.67" y1="405.00" x2="1165.00" y2="405.00" stroke="#e2e8f0"/>
<text x="813.67" y="409.00" class="tick" text-anchor="end">0.606</text>
<line x1="890.33" y1="90.00" x2="890.33" y2="405.00" stroke="#e2e8f0"/>
<text x="890.33" y="424.00" class="tick" text-anchor="middle">10</text>
<line x1="821.67" y1="342.00" x2="1165.00" y2="342.00" stroke="#e2e8f0"/>
<text x="813.67" y="346.00" class="tick" text-anchor="end">0.641</text>
<line x1="959.00" y1="90.00" x2="959.00" y2="405.00" stroke="#e2e8f0"/>
<text x="959.00" y="424.00" class="tick" text-anchor="middle">20</text>
<line x1="821.67" y1="279.00" x2="1165.00" y2="279.00" stroke="#e2e8f0"/>
<text x="813.67" y="283.00" class="tick" text-anchor="end">0.675</text>
<line x1="1027.67" y1="90.00" x2="1027.67" y2="405.00" stroke="#e2e8f0"/>
<text x="1027.67" y="424.00" class="tick" text-anchor="middle">30</text>
<line x1="821.67" y1="216.00" x2="1165.00" y2="216.00" stroke="#e2e8f0"/>
<text x="813.67" y="220.00" class="tick" text-anchor="end">0.709</text>
<line x1="1096.33" y1="90.00" x2="1096.33" y2="405.00" stroke="#e2e8f0"/>
<text x="1096.33" y="424.00" class="tick" text-anchor="middle">40</text>
<line x1="821.67" y1="153.00" x2="1165.00" y2="153.00" stroke="#e2e8f0"/>
<text x="813.67" y="157.00" class="tick" text-anchor="end">0.743</text>
<line x1="1165.00" y1="90.00" x2="1165.00" y2="405.00" stroke="#e2e8f0"/>
<text x="1165.00" y="424.00" class="tick" text-anchor="middle">50</text>
<line x1="821.67" y1="90.00" x2="1165.00" y2="90.00" stroke="#e2e8f0"/>
<text x="813.67" y="94.00" class="tick" text-anchor="end">0.778</text>
<text x="993.33" y="447.00" class="tick" text-anchor="middle">epoch</text>
<line x1="1148.65" y1="90.0" x2="1148.65" y2="405.0" stroke="#64748b" stroke-width="1.5" stroke-dasharray="1 4" data-last-epoch="48" data-stopped-early="true"/>
<line x1="1094.15" y1="90.0" x2="1094.15" y2="405.0" stroke="#111827" stroke-width="1.5" stroke-dasharray="3 4" data-best-epoch="40"/>
<polyline points="821.67,390.68 828.48,160.45 835.29,150.44 842.10,143.56 848.92,141.03 855.73,131.34 862.54,131.38 869.35,128.30 876.16,134.49 882.98,126.54 889.79,119.94 896.60,133.48 903.41,121.78 910.22,128.69 917.04,117.44 923.85,113.56 930.66,116.30 937.47,116.33 944.29,112.57 951.10,112.03 957.91,107.46 964.72,118.88 971.53,127.51 978.35,108.86 985.16,106.67 991.97,111.61 998.78,105.35 1005.60,109.60 1012.41,105.47 1019.22,114.10 1026.03,120.88 1032.84,114.33 1039.66,107.33 1046.47,119.51 1053.28,114.10 1060.09,104.32 1066.90,118.41 1073.72,112.60 1080.53,106.52 1087.34,113.12 1094.15,110.17 1100.97,105.60 1107.78,105.05 1114.59,107.60 1121.40,116.26 1128.21,108.17 1135.03,105.82 1141.84,112.47 1148.65,115.26" fill="none" stroke="#d97706" stroke-width="2.5" stroke-linejoin="round" stroke-linecap="round" data-series="validation_ndcg_at_5_mean"/>
<line x1="831.67" y1="107.00" x2="851.67" y2="107.00" stroke="#d97706" stroke-width="2.5"/>
<text x="858.67" y="111.00" class="legend">validation</text>
<text x="600.00" y="452" class="note" text-anchor="middle">Black dashed: validation-selected best epoch. Gray dotted: early-stop epoch. Test data are evaluated only on the restored best checkpoint.</text>
</svg>
