<svg xmlns="http://www.w3.org/2000/svg" width="1200" height="470" viewBox="0 0 1200 470">
<style>
text { font-family: ui-sans-serif, system-ui, sans-serif; fill: #111827; }
.title { font-size: 22px; font-weight: 700; }
.panel-title { font-size: 15px; font-weight: 650; }
.tick { font-size: 11px; fill: #475569; }
.legend { font-size: 11px; }
.note { font-size: 11px; fill: #64748b; }
</style>
<rect width="100%" height="100%" fill="#ffffff"/>
<text x="600.00" y="32" class="title" text-anchor="middle">Validation ranking metrics — vggt_pooled_register</text>
<text x="236.67" y="68" class="panel-title" text-anchor="middle">Normalized regret (lower is better)</text>
<rect x="65.00" y="90.00" width="343.33" height="315.00" fill="#f8fafc" stroke="#cbd5e1"/>
<line x1="65.00" y1="90.00" x2="65.00" y2="405.00" stroke="#e2e8f0"/>
<text x="65.00" y="424.00" class="tick" text-anchor="middle">0</text>
<line x1="65.00" y1="405.00" x2="408.33" y2="405.00" stroke="#e2e8f0"/>
<text x="57.00" y="409.00" class="tick" text-anchor="end">0.216</text>
<line x1="133.67" y1="90.00" x2="133.67" y2="405.00" stroke="#e2e8f0"/>
<text x="133.67" y="424.00" class="tick" text-anchor="middle">10</text>
<line x1="65.00" y1="342.00" x2="408.33" y2="342.00" stroke="#e2e8f0"/>
<text x="57.00" y="346.00" class="tick" text-anchor="end">0.24</text>
<line x1="202.33" y1="90.00" x2="202.33" y2="405.00" stroke="#e2e8f0"/>
<text x="202.33" y="424.00" class="tick" text-anchor="middle">21</text>
<line x1="65.00" y1="279.00" x2="408.33" y2="279.00" stroke="#e2e8f0"/>
<text x="57.00" y="283.00" class="tick" text-anchor="end">0.264</text>
<line x1="271.00" y1="90.00" x2="271.00" y2="405.00" stroke="#e2e8f0"/>
<text x="271.00" y="424.00" class="tick" text-anchor="middle">32</text>
<line x1="65.00" y1="216.00" x2="408.33" y2="216.00" stroke="#e2e8f0"/>
<text x="57.00" y="220.00" class="tick" text-anchor="end">0.287</text>
<line x1="339.67" y1="90.00" x2="339.67" y2="405.00" stroke="#e2e8f0"/>
<text x="339.67" y="424.00" class="tick" text-anchor="middle">42</text>
<line x1="65.00" y1="153.00" x2="408.33" y2="153.00" stroke="#e2e8f0"/>
<text x="57.00" y="157.00" class="tick" text-anchor="end">0.311</text>
<line x1="408.33" y1="90.00" x2="408.33" y2="405.00" stroke="#e2e8f0"/>
<text x="408.33" y="424.00" class="tick" text-anchor="middle">52</text>
<line x1="65.00" y1="90.00" x2="408.33" y2="90.00" stroke="#e2e8f0"/>
<text x="57.00" y="94.00" class="tick" text-anchor="end">0.335</text>
<text x="236.67" y="447.00" class="tick" text-anchor="middle">epoch</text>
<line x1="391.98" y1="90.0" x2="391.98" y2="405.0" stroke="#64748b" stroke-width="1.5" stroke-dasharray="1 4" data-last-epoch="50" data-stopped-early="false"/>
<line x1="391.98" y1="90.0" x2="391.98" y2="405.0" stroke="#111827" stroke-width="1.5" stroke-dasharray="3 4" data-best-epoch="50"/>
<polyline points="65.00,104.32 71.54,237.73 78.08,258.68 84.62,272.39 91.16,243.05 97.70,272.11 104.24,301.65 110.78,289.45 117.32,300.51 123.86,297.89 130.40,312.08 136.94,295.19 143.48,302.54 150.02,304.02 156.56,294.03 163.10,314.55 169.63,312.37 176.17,324.50 182.71,324.55 189.25,317.43 195.79,324.11 202.33,340.12 208.87,334.34 215.41,350.25 221.95,351.22 228.49,342.58 235.03,328.49 241.57,341.12 248.11,344.94 254.65,341.51 261.19,344.54 267.73,362.48 274.27,358.23 280.81,350.22 287.35,337.43 293.89,358.86 300.43,363.96 306.97,370.80 313.51,374.43 320.05,383.30 326.59,374.71 333.13,367.78 339.67,376.17 346.21,378.88 352.75,381.89 359.29,390.17 365.83,390.68 372.37,381.81 378.90,389.19 385.44,381.03 391.98,371.83" fill="none" stroke="#7c3aed" stroke-width="2.5" stroke-linejoin="round" stroke-linecap="round" data-series="validation_normalized_regret_mean"/>
<line x1="75.00" y1="107.00" x2="95.00" y2="107.00" stroke="#7c3aed" stroke-width="2.5"/>
<text x="102.00" y="111.00" class="legend">validation</text>
<text x="615.00" y="68" class="panel-title" text-anchor="middle">Spearman (higher is better)</text>
<rect x="443.33" y="90.00" width="343.33" height="315.00" fill="#f8fafc" stroke="#cbd5e1"/>
<line x1="443.33" y1="90.00" x2="443.33" y2="405.00" stroke="#e2e8f0"/>
<text x="443.33" y="424.00" class="tick" text-anchor="middle">0</text>
<line x1="443.33" y1="405.00" x2="786.67" y2="405.00" stroke="#e2e8f0"/>
<text x="435.33" y="409.00" class="tick" text-anchor="end">0.152</text>
<line x1="512.00" y1="90.00" x2="512.00" y2="405.00" stroke="#e2e8f0"/>
<text x="512.00" y="424.00" class="tick" text-anchor="middle">10</text>
<line x1="443.33" y1="342.00" x2="786.67" y2="342.00" stroke="#e2e8f0"/>
<text x="435.33" y="346.00" class="tick" text-anchor="end">0.224</text>
<line x1="580.67" y1="90.00" x2="580.67" y2="405.00" stroke="#e2e8f0"/>
<text x="580.67" y="424.00" class="tick" text-anchor="middle">21</text>
<line x1="443.33" y1="279.00" x2="786.67" y2="279.00" stroke="#e2e8f0"/>
<text x="435.33" y="283.00" class="tick" text-anchor="end">0.295</text>
<line x1="649.33" y1="90.00" x2="649.33" y2="405.00" stroke="#e2e8f0"/>
<text x="649.33" y="424.00" class="tick" text-anchor="middle">32</text>
<line x1="443.33" y1="216.00" x2="786.67" y2="216.00" stroke="#e2e8f0"/>
<text x="435.33" y="220.00" class="tick" text-anchor="end">0.367</text>
<line x1="718.00" y1="90.00" x2="718.00" y2="405.00" stroke="#e2e8f0"/>
<text x="718.00" y="424.00" class="tick" text-anchor="middle">42</text>
<line x1="443.33" y1="153.00" x2="786.67" y2="153.00" stroke="#e2e8f0"/>
<text x="435.33" y="157.00" class="tick" text-anchor="end">0.439</text>
<line x1="786.67" y1="90.00" x2="786.67" y2="405.00" stroke="#e2e8f0"/>
<text x="786.67" y="424.00" class="tick" text-anchor="middle">52</text>
<line x1="443.33" y1="90.00" x2="786.67" y2="90.00" stroke="#e2e8f0"/>
<text x="435.33" y="94.00" class="tick" text-anchor="end">0.511</text>
<text x="615.00" y="447.00" class="tick" text-anchor="middle">epoch</text>
<line x1="770.32" y1="90.0" x2="770.32" y2="405.0" stroke="#64748b" stroke-width="1.5" stroke-dasharray="1 4" data-last-epoch="50" data-stopped-early="false"/>
<line x1="770.32" y1="90.0" x2="770.32" y2="405.0" stroke="#111827" stroke-width="1.5" stroke-dasharray="3 4" data-best-epoch="50"/>
<polyline points="443.33,390.68 449.87,187.74 456.41,170.10 462.95,164.82 469.49,171.08 476.03,159.38 482.57,154.77 489.11,153.22 495.65,156.09 502.19,153.21 508.73,145.93 515.27,146.62 521.81,146.92 528.35,149.29 534.89,144.85 541.43,143.45 547.97,138.66 554.51,139.04 561.05,135.92 567.59,139.38 574.13,133.54 580.67,136.42 587.21,134.79 593.75,130.72 600.29,130.16 606.83,127.90 613.37,128.20 619.90,131.05 626.44,127.31 632.98,127.74 639.52,131.24 646.06,122.40 652.60,121.94 659.14,123.02 665.68,131.40 672.22,119.67 678.76,122.55 685.30,117.73 691.84,114.13 698.38,113.57 704.92,115.62 711.46,111.44 718.00,108.58 724.54,113.05 731.08,107.08 737.62,106.26 744.16,104.44 750.70,106.27 757.24,105.22 763.78,104.32 770.32,116.94" fill="none" stroke="#059669" stroke-width="2.5" stroke-linejoin="round" stroke-linecap="round" data-series="validation_spearman_mean"/>
<line x1="453.33" y1="107.00" x2="473.33" y2="107.00" stroke="#059669" stroke-width="2.5"/>
<text x="480.33" y="111.00" class="legend">validation</text>
<text x="993.33" y="68" class="panel-title" text-anchor="middle">NDCG@5 (higher is better)</text>
<rect x="821.67" y="90.00" width="343.33" height="315.00" fill="#f8fafc" stroke="#cbd5e1"/>
<line x1="821.67" y1="90.00" x2="821.67" y2="405.00" stroke="#e2e8f0"/>
<text x="821.67" y="424.00" class="tick" text-anchor="middle">0</text>
<line x1="821.67" y1="405.00" x2="1165.00" y2="405.00" stroke="#e2e8f0"/>
<text x="813.67" y="409.00" class="tick" text-anchor="end">0.667</text>
<line x1="890.33" y1="90.00" x2="890.33" y2="405.00" stroke="#e2e8f0"/>
<text x="890.33" y="424.00" class="tick" text-anchor="middle">10</text>
<line x1="821.67" y1="342.00" x2="1165.00" y2="342.00" stroke="#e2e8f0"/>
<text x="813.67" y="346.00" class="tick" text-anchor="end">0.694</text>
<line x1="959.00" y1="90.00" x2="959.00" y2="405.00" stroke="#e2e8f0"/>
<text x="959.00" y="424.00" class="tick" text-anchor="middle">21</text>
<line x1="821.67" y1="279.00" x2="1165.00" y2="279.00" stroke="#e2e8f0"/>
<text x="813.67" y="283.00" class="tick" text-anchor="end">0.721</text>
<line x1="1027.67" y1="90.00" x2="1027.67" y2="405.00" stroke="#e2e8f0"/>
<text x="1027.67" y="424.00" class="tick" text-anchor="middle">32</text>
<line x1="821.67" y1="216.00" x2="1165.00" y2="216.00" stroke="#e2e8f0"/>
<text x="813.67" y="220.00" class="tick" text-anchor="end">0.748</text>
<line x1="1096.33" y1="90.00" x2="1096.33" y2="405.00" stroke="#e2e8f0"/>
<text x="1096.33" y="424.00" class="tick" text-anchor="middle">42</text>
<line x1="821.67" y1="153.00" x2="1165.00" y2="153.00" stroke="#e2e8f0"/>
<text x="813.67" y="157.00" class="tick" text-anchor="end">0.775</text>
<line x1="1165.00" y1="90.00" x2="1165.00" y2="405.00" stroke="#e2e8f0"/>
<text x="1165.00" y="424.00" class="tick" text-anchor="middle">52</text>
<line x1="821.67" y1="90.00" x2="1165.00" y2="90.00" stroke="#e2e8f0"/>
<text x="813.67" y="94.00" class="tick" text-anchor="end">0.802</text>
<text x="993.33" y="447.00" class="tick" text-anchor="middle">epoch</text>
<line x1="1148.65" y1="90.0" x2="1148.65" y2="405.0" stroke="#64748b" stroke-width="1.5" stroke-dasharray="1 4" data-last-epoch="50" data-stopped-early="false"/>
<line x1="1148.65" y1="90.0" x2="1148.65" y2="405.0" stroke="#111827" stroke-width="1.5" stroke-dasharray="3 4" data-best-epoch="50"/>
<polyline points="821.67,390.68 828.21,230.71 834.75,209.06 841.29,196.18 847.83,208.47 854.37,185.99 860.90,173.48 867.44,181.73 873.98,179.20 880.52,172.80 887.06,168.65 893.60,169.82 900.14,172.75 906.68,172.72 913.22,172.45 919.76,162.69 926.30,157.68 932.84,155.18 939.38,154.36 945.92,161.34 952.46,149.07 959.00,148.66 965.54,148.70 972.08,140.39 978.62,140.97 985.16,144.36 991.70,144.06 998.24,143.47 1004.78,140.93 1011.32,140.60 1017.86,144.14 1024.40,131.74 1030.94,130.66 1037.48,136.39 1044.02,147.81 1050.56,130.97 1057.10,128.70 1063.63,121.48 1070.17,118.72 1076.71,116.54 1083.25,121.04 1089.79,122.95 1096.33,113.97 1102.87,118.04 1109.41,111.20 1115.95,107.92 1122.49,104.32 1129.03,114.58 1135.57,111.24 1142.11,106.93 1148.65,124.38" fill="none" stroke="#d97706" stroke-width="2.5" stroke-linejoin="round" stroke-linecap="round" data-series="validation_ndcg_at_5_mean"/>
<line x1="831.67" y1="107.00" x2="851.67" y2="107.00" stroke="#d97706" stroke-width="2.5"/>
<text x="858.67" y="111.00" class="legend">validation</text>
<text x="600.00" y="452" class="note" text-anchor="middle">Black dashed: validation-selected best epoch. Gray dotted: last completed epoch. Test data are evaluated only on the restored best checkpoint.</text>
</svg>
