ply
format ascii 1.0
element vertex 226
property float x
property float y
property float z
property uchar red
property uchar green
property uchar blue
end_header
0.83433914 -1.0866035 1.7842273 234 88 12
0.83976537 -1.0812551 1.7842273 234 88 12
0.8451916 -1.0759066 1.7842273 234 88 12
0.85061783 -1.0705582 1.7842273 234 88 12
0.82542586 -1.0992677 1.7816038 234 88 12
0.82678241 -1.0979307 1.7816038 234 88 12
0.82813895 -1.0965935 1.7816038 234 88 12
0.83860439 -1.0882174 1.7802922 234 88 12
0.82600838 -1.1025722 1.7789805 234 88 12
0.82736492 -1.101235 1.7789805 234 88 12
0.83007807 -1.0985608 1.7789805 234 88 12
0.83957392 -1.089201 1.7789805 234 88 12
0.84093046 -1.0878639 1.7789805 234 88 12
0.85042638 -1.0785041 1.7789805 234 88 12
0.85313946 -1.0758299 1.7789805 234 88 12
0.86224836 -1.0687908 1.7776688 234 88 12
0.86864412 -1.0644259 1.7763571 234 88 12
0.86205691 -1.0767367 1.772422 234 88 12
0.85081744 -1.0897545 1.7711103 234 88 12
0.851013 -1.0953796 1.7671752 234 88 12
0.85915232 -1.0873569 1.7671752 234 88 12
0.86206096 -1.0903078 1.7632402 234 88 12
0.85818684 -1.0999444 1.7593051 234 88 12
0.8614825 -1.1005745 1.7566817 234 88 12
1.6869518 -0.26568189 1.4497467 234 88 12
1.6886467 -0.26210046 1.4481844 234 88 12
1.6889567 -0.26022106 1.4481844 234 88 12
1.686622 -0.28107145 1.446622 234 88 12
1.6886269 -0.27561066 1.4450595 234 88 12
1.6929665 -0.24929944 1.4450595 234 88 12
1.689537 -0.28348273 1.4419347 234 88 12
1.6923069 -0.28007859 1.43881 234 88 12
1.6938567 -0.27068171 1.43881 234 88 12
1.6957166 -0.25940549 1.43881 234 88 12
1.6986513 -0.24830656 1.4372475 234 88 12
1.7000363 -0.24660449 1.4356852 234 88 12
1.6998714 -0.25429925 1.4341228 234 88 12
1.6998516 -0.26780948 1.430998 234 88 12
1.7013817 -0.2719228 1.4278731 234 88 12
1.7024566 -0.27210009 1.4263108 234 88 12
1.1126651 -1.7687271 0.80925226 234 88 12
1.1141871 -1.7675819 0.80925226 234 88 12
1.1233195 -1.7607108 0.80925226 234 88 12
1.1312797 -1.7554499 0.80743861 234 88 12
1.1027104 -1.7776735 0.80562496 234 88 12
1.1015383 -1.7792838 0.80381131 234 88 12
1.1030604 -1.7781386 0.80381131 234 88 12
1.1106707 -1.7724127 0.80381131 234 88 12
1.1167589 -1.7678319 0.80381131 234 88 12
1.1228472 -1.7632512 0.80381131 234 88 12
1.1319795 -1.7563801 0.80381131 234 88 12
1.1335015 -1.755235 0.80381131 234 88 12
1.1345513 -1.7566302 0.7983703 234 88 12
1.1158143 -1.7729127 0.79292929 234 88 12
1.1219025 -1.768332 0.79292929 234 88 12
1.1234245 -1.7671869 0.79292929 234 88 12
1.134079 -1.7591705 0.79292929 234 88 12
1.1386452 -1.755735 0.79292929 234 88 12
1.1447334 -1.7511543 0.79292929 234 88 12
1.1213078 -1.7738779 0.78023362 234 88 12
1.1228299 -1.7727327 0.78023362 234 88 12
1.8377661 0.841429 0.96411318 234 88 12
1.8390968 0.83989537 0.96234298 234 88 12
1.8357329 0.84880537 0.96234298 234 88 12
1.8350602 0.85058737 0.96234298 234 88 12
1.8444641 0.82766986 0.96057284 234 88 12
1.8363761 0.85108417 0.95880264 234 88 12
1.8464528 0.82638466 0.9570325 234 88 12
1.8464084 0.83247584 0.95172197 234 88 12
1.8437173 0.83960384 0.95172197 234 88 12
1.8396808 0.85029578 0.95172197 234 88 12
1.8369601 0.86148459 0.94818163 234 88 12
1.8476948 0.83703345 0.94464129 234 88 12
1.84768 0.83906388 0.94287115 234 88 12
1.8496686 0.83777869 0.93933082 234 88 12
1.8489959 0.83956069 0.93933082 234 88 12
1.8469776 0.84490663 0.93933082 234 88 12
1.8536165 0.8392691 0.92870981 234 88 12
0.71510786 -2.1038449 -0.28741011 234 88 12
0.69935304 -2.1106088 -0.28929245 234 88 12
0.70282757 -2.1090467 -0.28929245 234 88 12
0.71151388 -2.1051414 -0.28929245 234 88 12
0.72541189 -2.0988929 -0.28929245 234 88 12
0.73038477 -2.0960183 -0.29305717 234 88 12
0.69725746 -2.1105928 -0.29493952 234 88 12
0.70420647 -2.1074686 -0.29493952 234 88 12
0.71463001 -2.102782 -0.29493952 234 88 12
0.72679079 -2.0973146 -0.29493952 234 88 12
0.73026532 -2.0957525 -0.29493952 234 88 12
0.73685598 -2.0918312 -0.30058658 234 88 12
0.71043879 -2.1027501 -0.30623364 234 88 12
0.71565056 -2.1004069 -0.30623364 234 88 12
0.7260741 -2.0957205 -0.30623364 234 88 12
0.73823488 -2.0902531 -0.30623364 234 88 12
0.72421736 -2.0962358 -0.30811599 234 88 12
0.70972204 -2.101156 -0.31752777 234 88 12
0.71493381 -2.0988126 -0.31752777 234 88 12
1.9758334 -0.94157934 0.44176307 234 88 12
1.9766145 -0.9398421 0.44176307 234 88 12
1.9823476 -0.92780077 0.43988073 234 88 12
1.9708973 -0.95397907 0.43799835 234 88 12
1.9833943 -0.92618293 0.43799835 234 88 12
1.9719441 -0.95236123 0.43611601 234 88 12
1.9727411 -0.95271963 0.43046895 234 88 12
1.9735222 -0.95098233 0.43046895 234 88 12
1.9782087 -0.94055885 0.43046895 234 88 12
1.9836761 -0.92839801 0.43046895 234 88 12
1.9831607 -0.93025476 0.4285866 234 88 12
1.9782406 -0.94475007 0.41917485 234 88 12
1.9805839 -0.9395383 0.41917485 234 88 12
2.2241066 0.17869161 -0.029187884 234 88 12
2.2238972 0.18249539 -0.029187884 234 88 12
2.223269 0.19390668 -0.029187884 234 88 12
2.2245858 0.16727212 -0.03299449 234 88 12
2.2246161 0.16536614 -0.034897797 234 88 12
2.2243021 0.1710718 -0.034897797 234 88 12
2.2236741 0.18248309 -0.034897797 234 88 12
2.2230458 0.1938944 -0.034897797 234 88 12
2.2236462 0.174851 -0.046317618 234 88 12
2.2232275 0.18245852 -0.046317618 234 88 12
2.2231998 0.17482643 -0.05773744 234 88 12
2.2227812 0.18243395 -0.05773744 234 88 12
1.4031004 1.7330836 0.25291258 234 88 12
1.4017535 1.7344304 0.25291258 234 88 12
1.4046392 1.7319286 0.24911274 234 88 12
1.4019455 1.7346224 0.24911274 234 88 12
1.4128164 1.7239434 0.24721283 234 88 12
1.415702 1.7214415 0.24341297 234 88 12
1.4132961 1.7244231 0.2377132 234 88 12
1.4038681 1.7338512 0.2377132 234 88 12
1.4111781 1.7276926 0.22631368 234 88 12
1.4044437 1.7344269 0.22631368 234 88 12
1.4131007 1.7269214 0.21491414 234 88 12
0.057603337 -1.8416309 -1.2794452 234 88 12
0.057426039 -1.8405559 -1.2810075 234 88 12
0.060475592 -1.835636 -1.2872571 234 88 12
1.6407415 -1.3524698 -0.67866838 234 88 12
1.6453222 -1.3463815 -0.67866838 234 88 12
1.6391313 -1.3536419 -0.68048203 234 88 12
1.643712 -1.3475536 -0.68048203 234 88 12
1.6306499 -1.3639464 -0.68229574 234 88 12
1.6329403 -1.3609023 -0.68229574 234 88 12
1.6416366 -1.3483759 -0.68410939 234 88 12
1.650333 -1.3358495 -0.68592304 234 88 12
1.6315451 -1.3598526 -0.68773669 234 88 12
1.6340505 -1.3545865 -0.69136405 234 88 12
1.6386312 -1.3484982 -0.69136405 234 88 12
1.643212 -1.3424101 -0.69136405 234 88 12
1.6477927 -1.3363218 -0.69136405 234 88 12
1.63126 -1.352487 -0.70224601 234 88 12
1.6307949 -1.3521371 -0.70405972 234 88 12
1.6319401 -1.350615 -0.70405972 234 88 12
1.6342305 -1.3475709 -0.70405972 234 88 12
1.7964439 1.1048963 -0.74098951 234 88 12
1.792941 1.1116623 -0.74098951 234 88 12
1.7979349 1.0992335 -0.74457771 234 88 12
1.7900531 1.114457 -0.74457771 234 88 12
1.7994257 1.0935706 -0.74816591 234 88 12
1.7959228 1.1003367 -0.74816591 234 88 12
1.7897925 1.1121771 -0.74816591 234 88 12
1.7901001 1.1101915 -0.74996001 234 88 12
1.8017924 1.0862163 -0.75175405 234 88 12
1.7945727 1.0932029 -0.76072448 234 88 12
1.7910697 1.099969 -0.76072448 234 88 12
1.790194 1.1016605 -0.76072448 234 88 12
1.790241 1.0973949 -0.76610678 234 88 12
1.7911637 1.0914379 -0.77148902 234 88 12
1.790288 1.0931295 -0.77148902 234 88 12
0.94172019 -1.1328261 -1.6832271 234 88 12
0.93939942 -1.133213 -1.6845388 234 88 12
0.95143348 -1.1210041 -1.6845388 234 88 12
0.95277059 -1.1196475 -1.6845388 234 88 12
0.9598096 -1.1105386 -1.6858505 234 88 12
0.94348752 -1.1211956 -1.6897856 234 88 12
0.95284736 -1.1116996 -1.6897856 234 88 12
0.95418447 -1.1103431 -1.6897856 234 88 12
0.96354425 -1.1008472 -1.6897856 234 88 12
0.96621853 -1.098134 -1.6897856 234 88 12
0.95088005 -1.1097605 -1.6924089 234 88 12
0.961577 -1.0989081 -1.6924089 234 88 12
0.94053662 -1.1182868 -1.6937206 234 88 12
0.93428123 -1.1147957 -1.7002791 234 88 12
0.93962973 -1.1093694 -1.7002791 234 88 12
0.94096684 -1.1080129 -1.7002791 234 88 12
1.8974481 -0.22666143 -1.1507134 234 88 12
1.8976976 -0.22477308 -1.1507134 234 88 12
1.8921372 -0.24517292 -1.1556716 234 88 12
1.8926361 -0.2413962 -1.1556716 234 88 12
1.8961288 -0.21495925 -1.1556716 234 88 12
1.8909489 -0.24693725 -1.1573243 234 88 12
1.8921963 -0.23749548 -1.1573243 234 88 12
1.8926953 -0.23371877 -1.1573243 234 88 12
1.8936932 -0.22616535 -1.1573243 234 88 12
1.89519 -0.21483524 -1.1573243 234 88 12
1.8918157 -0.22591732 -1.1606299 234 88 12
1.8868134 -0.23486301 -1.1672407 234 88 12
1.8880608 -0.22542125 -1.1672407 234 88 12
0.977929 1.3025247 -1.5406665 234 88 12
0.97658211 1.3038715 -1.5406665 234 88 12
0.9738884 1.3065653 -1.5406665 234 88 12
0.97835928 1.3002611 -1.5420622 234 88 12
0.97431862 1.3043019 -1.5420622 234 88 12
0.97383225 1.3011217 -1.5448533 234 88 12
0.98142713 1.2898604 -1.5476445 234 88 12
0.98045439 1.2835002 -1.5532269 234 88 12
0.97372001 1.2902344 -1.5532269 234 88 12
0.9710263 1.2929282 -1.5532269 234 88 12
0.9813149 1.2789732 -1.5560182 234 88 12
0.96283281 1.2901223 -1.5616007 234 88 12
0.96773392 1.2815547 -1.5643919 234 88 12
0.96234643 1.2869421 -1.5643919 234 88 12
0.96363723 1.2801517 -1.5685787 234 88 12
1.0778096 -0.0039636558 -1.9590154 234 88 12
1.0780578 0.0017452367 -1.9590154 234 88 12
1.0785543 0.013163022 -1.9590154 234 88 12
1.0760452 -0.0077000614 -1.9600481 234 88 12
1.0764588 0.0018147592 -1.9600481 234 88 12
1.0742806 -0.011436467 -1.9610808 234 88 12
1.0743634 -0.0095335031 -1.9610808 234 88 12
1.0748597 0.0018842818 -1.9610808 234 88 12
1.0752735 0.011399102 -1.9610808 234 88 12
1.0642728 -0.020534152 -1.9672768 234 88 12
1.0646865 -0.011019331 -1.9672768 234 88 12
1.0651829 0.00039845286 -1.9672768 234 88 12
1.0566914 -0.010671719 -1.9724402 234 88 12
1.0535761 -0.0086297095 -1.9745055 234 88 12
