ply
format ascii 1.0
element vertex 1802
property float x
property float y
property float z
property uchar red
property uchar green
property uchar blue
end_header
-0.076681279 -1.1090953 1.0651162 234 88 12
-0.07184615 -1.1092455 1.0662949 234 88 12
-0.06705638 -1.1092938 1.0671343 234 88 12
-0.062343966 -1.1091355 1.0672865 234 88 12
-0.057928294 -1.108081 1.0644654 234 88 12
-0.081186309 -1.113322 1.0627961 234 88 12
-0.076227747 -1.1137798 1.0650265 234 88 12
-0.071415871 -1.1138898 1.0660839 234 88 12
-0.066513315 -1.1142753 1.068067 234 88 12
-0.061740372 -1.1143305 1.0689373 234 88 12
-0.057113606 -1.1139669 1.0683993 234 88 12
-0.080751233 -1.117929 1.0624787 234 88 12
-0.075893559 -1.1181432 1.0639061 234 88 12
-0.070840381 -1.1189075 1.067207 234 88 12
-0.06599398 -1.1191716 1.0688001 234 88 12
-0.061209843 -1.1192927 1.0699044 234 88 12
-0.056513563 -1.1191779 1.0702041 234 88 12
-0.051900942 -1.1188111 1.0696464 234 88 12
-0.080493905 -1.1220855 1.0606618 234 88 12
-0.075346492 -1.1230408 1.0646689 234 88 12
-0.070400126 -1.1235477 1.0671226 234 88 12
-0.065529987 -1.1238981 1.0690333 234 88 12
-0.060797498 -1.1239001 1.069739 234 88 12
-0.055998407 -1.1241143 1.0711763 234 88 12
-0.051351584 -1.1238955 1.0711192 234 88 12
-0.046884377 -1.1231008 1.0690783 234 88 12
-0.028338673 -1.1219239 1.0678191 234 88 12
-0.023673674 -1.121721 1.0678191 234 88 12
-0.079441704 -1.1281761 1.0656424 234 88 12
-0.075088419 -1.1271907 1.0629011 234 88 12
-0.069886692 -1.1283652 1.0677234 234 88 12
-0.06515573 -1.1283662 1.0684355 234 88 12
-0.060311921 -1.1286998 1.0703088 234 88 12
-0.055555426 -1.1288205 1.0714366 234 88 12
-0.050909091 -1.1286329 1.0714864 234 88 12
-0.04633902 -1.1282049 1.0706969 234 88 12
-0.080196008 -1.1298624 1.0551836 234 88 12
-0.075061187 -1.1307598 1.0590928 234 88 12
-0.069716603 -1.1322773 1.0651969 234 88 12
-0.064775594 -1.1328392 1.0679066 234 88 12
-0.059924163 -1.1332101 1.069936 234 88 12
-0.055222455 -1.1331931 1.0705904 234 88 12
-0.050425291 -1.1334786 1.0723139 234 88 12
-0.046016783 -1.1325862 1.0698695 234 88 12
-0.074901938 -1.1346625 1.0564498 234 88 12
-0.069558874 -1.1361578 1.0625566 234 88 12
-0.06447491 -1.1370901 1.0666339 234 88 12
-0.059416633 -1.138038 1.0707623 234 88 12
-0.054558683 -1.1385033 1.0731535 234 88 12
-0.049968015 -1.1382267 1.0728817 234 88 12
-0.045350876 -1.138026 1.0728817 234 88 12
-0.074044943 -1.1402726 1.0600299 234 88 12
-0.069388762 -1.1400702 1.0600299 234 88 12
-0.063730329 -1.1424997 1.069615 234 88 12
-0.058863528 -1.1429716 1.0720636 234 88 12
-0.054252759 -1.1427711 1.0720636 234 88 12
-0.049706608 -1.14238 1.0713706 234 88 12
-0.044332966 -1.1445183 1.079868 234 88 12
-0.039751645 -1.1443191 1.079868 234 88 12
-0.082136206 -1.146971 1.0663146 234 88 12
-0.072623074 -1.1472157 1.0687052 234 88 12
-0.067983851 -1.1470783 1.0689389 234 88 12
-0.062826455 -1.1482924 1.0741616 234 88 12
-0.057740908 -1.1494205 1.0790608 234 88 12
-0.053132012 -1.1493167 1.0794114 234 88 12
-0.048292767 -1.1498934 1.0822695 234 88 12
-0.043729853 -1.149695 1.0822695 234 88 12
-0.039584272 -1.1481687 1.0773817 234 88 12
-0.026514191 -1.1450955 1.0682858 234 88 12
-0.087518051 -1.149042 1.0562418 234 88 12
-0.079496317 -1.1563942 1.084589 234 88 12
-0.076616235 -1.1523408 1.0701294 234 88 12
-0.071937457 -1.1523315 1.0708437 234 88 12
-0.067340903 -1.1521316 1.0708437 234 88 12
-0.062112276 -1.1535575 1.0769295 234 88 12
-0.057231765 -1.154178 1.0799946 234 88 12
-0.052669603 -1.1539797 1.0799946 234 88 12
-0.048126068 -1.1537275 1.0797935 234 88 12
-0.043744389 -1.1529827 1.0777532 234 88 12
-0.039638814 -1.1513193 1.0722871 234 88 12
-0.035350233 -1.150122 1.0685663 234 88 12
-0.084899582 -1.1582102 1.0737439 234 88 12
-0.080382653 -1.1578796 1.0732429 234 88 12
-0.074917577 -1.1597127 1.0809706 234 88 12
-0.071159527 -1.1576396 1.073844 234 88 12
-0.066372648 -1.1579585 1.0758106 234 88 12
-0.061682701 -1.1580688 1.0769831 234 88 12
-0.05703656 -1.1580869 1.0778048 234 88 12
-0.05250293 -1.1578132 1.0775188 234 88 12
-0.048147991 -1.157022 1.0752728 234 88 12
-0.043705206 -1.1564419 1.0738291 234 88 12
-0.039697878 -1.15447 1.06712 234 88 12
-0.0080053639 -1.1507307 1.0583075 234 88 12
-0.080215394 -1.1617265 1.0707585 234 88 12
-0.074751377 -1.1635352 1.0785019 234 88 12
-0.069879912 -1.1640931 1.0814142 234 88 12
-0.065434709 -1.1636697 1.0805433 234 88 12
-0.060893137 -1.1634722 1.0805433 234 88 12
-0.057010178 -1.1615528 1.0739191 234 88 12
-0.052690022 -1.1606849 1.0713458 234 88 12
-0.048290934 -1.1599852 1.0694215 234 88 12
-0.04413094 -1.1585363 1.064623 234 88 12
-0.039606981 -1.158098 1.0637089 234 88 12
-0.080048136 -1.1655735 1.068274 234 88 12
-0.074617825 -1.1672847 1.075747 234 88 12
-0.069714107 -1.1679065 1.0789515 234 88 12
-0.065268792 -1.1674858 1.0780787 234 88 12
-0.060727216 -1.1672884 1.0780787 234 88 12
-0.057289895 -1.1642349 1.0669343 234 88 12
-0.053128008 -1.1629026 1.0625157 234 88 12
-0.048528302 -1.1627026 1.0625157 234 88 12
-0.04404334 -1.1621673 1.0612102 234 88 12
-0.039483342 -1.161831 1.0606803 234 88 12
-0.074983671 -1.1699286 1.0685962 234 88 12
-0.069901302 -1.1709104 1.0732777 234 88 12
-0.065746628 -1.1697727 1.0695527 234 88 12
-0.062439747 -1.1664768 1.0572836 234 88 12
-0.057876442 -1.1661571 1.0568118 234 88 12
-0.053256024 -1.16598 1.056904 234 88 12
-0.048522487 -1.1661181 1.0582427 234 88 12
-0.04415952 -1.1652144 1.0554634 234 88 12
-0.039542831 -1.1650137 1.0554634 234 88 12
-0.062517263 -1.1697513 1.0523741 234 88 12
-0.057778485 -1.1698538 1.0535926 234 88 12
-0.053048808 -1.1699567 1.0548108 234 88 12
-0.048354201 -1.1699888 1.055743 234 88 12
-0.046517912 -1.1618685 1.023996 234 88 12
-0.021077491 -1.16747 1.0504808 234 88 12
-0.062348519 -1.1736324 1.0498676 234 88 12
-0.057490192 -1.1740307 1.0523092 234 88 12
-0.052785046 -1.1740783 1.0533195 234 88 12
-0.086864889 -1.1753249 1.034102 234 88 12
-0.082196899 -1.175122 1.034102 234 88 12
-0.077515416 -1.1749479 1.0342219 234 88 12
-0.057321776 -1.1779041 1.0498075 234 88 12
-0.052780636 -1.1775271 1.0490775 234 88 12
-0.082026355 -1.1790444 1.0315688 234 88 12
-0.077358373 -1.1788415 1.0315688 234 88 12
-0.057997748 -1.1797132 1.0386381 234 88 12
-0.053311285 -1.1796249 1.0391142 234 88 12
-0.025712097 -1.1776072 1.0357404 234 88 12
-0.025989367 -1.1161585 1.0686413 234 88 12
-0.059993029 -1.1045449 1.0727245 234 88 12
-0.061693512 -1.0962855 1.0650363 234 88 12
-0.067121126 -1.1022078 1.0655851 234 88 12
-0.066179104 -1.0955864 1.057555 234 88 12
-0.071501404 -1.1015693 1.0581051 234 88 12
-0.074404836 -1.1018476 1.0504267 234 88 12
-0.075602174 -1.1031896 1.0425025 234 88 12
-0.052627325 -1.1274904 1.0871147 234 88 12
-0.068972804 -1.1513755 1.0839539 234 88 12
-0.072875775 -1.1624181 1.0826775 234 88 12
-0.069159225 -1.165701 1.0825447 234 88 12
-0.06103259 -1.1645716 1.0830662 234 88 12
-0.037013393 -1.147725 1.0859274 234 88 12
-0.078286618 -1.1615801 1.0777886 234 88 12
-0.074565731 -1.1648636 1.0776598 234 88 12
-0.069960177 -1.167248 1.0776598 234 88 12
-0.064892024 -1.1691712 1.0777264 234 88 12
-0.044313226 -1.1557281 1.0800141 234 88 12
-0.060565427 -1.1298233 1.0768529 234 88 12
-0.083248302 -1.1602829 1.0729636 234 88 12
-0.078637168 -1.1626703 1.0729636 234 88 12
-0.074908234 -1.1659479 1.0728395 234 88 12
-0.070300773 -1.1683334 1.0728395 234 88 12
-0.065693304 -1.1707188 1.0728395 234 88 12
-0.047204871 -1.1593568 1.0747687 234 88 12
-0.067284577 -1.1153944 1.0729988 234 88 12
-0.068233877 -1.1238046 1.0722032 234 88 12
-0.065476611 -1.1283052 1.0719285 234 88 12
-0.073555119 -1.1439174 1.0701594 234 88 12
-0.077854142 -1.1555034 1.068925 234 88 12
-0.074929565 -1.1596423 1.0686905 234 88 12
-0.074665144 -1.1664423 1.068095 234 88 12
-0.070053332 -1.16883 1.068095 234 88 12
-0.058794681 -1.1645979 1.0689942 234 88 12
-0.047913596 -1.1608222 1.0698351 234 88 12
-0.03349112 -1.1536405 1.0711443 234 88 12
-0.077710591 -1.1121428 1.0679382 234 88 12
-0.076335266 -1.1181756 1.0674776 234 88 12
-0.079748146 -1.1291761 1.0663722 234 88 12
-0.072828591 -1.1293187 1.0666699 234 88 12
-0.083725132 -1.1479076 1.0645722 234 88 12
-0.079070143 -1.1503177 1.0645722 234 88 12
-0.074509591 -1.152824 1.0645596 234 88 12
-0.074023433 -1.1594619 1.0640067 234 88 12
-0.069109388 -1.1615835 1.0640433 234 88 12
-0.062434249 -1.161945 1.0643111 234 88 12
-0.05598237 -1.1625543 1.0645477 234 88 12
-0.048200507 -1.1618705 1.0649557 234 88 12
-0.039190497 -1.1600183 1.0655199 234 88 12
-0.015675763 -1.1440521 1.0679563 234 88 12
-0.078731053 -1.1064038 1.0634948 234 88 12
-0.08113464 -1.1164935 1.0625452 234 88 12
-0.079322673 -1.1220466 1.0621586 234 88 12
-0.077703975 -1.1277626 1.0617499 234 88 12
-0.073649645 -1.1309046 1.0616624 234 88 12
-0.074008629 -1.138597 1.0610025 234 88 12
-0.076382831 -1.1482917 1.0600872 234 88 12
-0.074952707 -1.1540139 1.0596699 234 88 12
-0.071806423 -1.1579549 1.0594761 234 88 12
-0.067156613 -1.1603622 1.0594761 234 88 12
-0.063242361 -1.1635059 1.0593826 234 88 12
-0.057649858 -1.164971 1.0595025 234 88 12
-0.051423512 -1.1658216 1.0597012 234 88 12
-0.046766356 -1.1682327 1.0597012 234 88 12
-0.032835726 -1.1615925 1.0608618 234 88 12
-0.0053581391 -1.1490185 1.0631071 234 88 12
-0.07982555 -1.1082902 1.05839 234 88 12
-0.082045525 -1.1181788 1.0574963 234 88 12
-0.078914404 -1.1223413 1.0572906 234 88 12
-0.078211196 -1.1290206 1.0567791 234 88 12
-0.074036084 -1.1320388 1.0567098 234 88 12
-0.072875254 -1.1381618 1.0562626 234 88 12
-0.07012631 -1.1426089 1.0560178 234 88 12
-0.072525196 -1.1522779 1.0551343 234 88 12
-0.071070902 -1.1579527 1.0547358 234 88 12
-0.066414624 -1.1603634 1.0547358 234 88 12
-0.064050473 -1.1650667 1.054454 234 88 12
-0.061279137 -1.1693366 1.0542245 234 88 12
-0.058284562 -1.1733625 1.054024 234 88 12
-0.052393485 -1.1745251 1.0541768 234 88 12
-0.037587762 -1.1670082 1.0554062 234 88 12
-0.010955716 -1.1481515 1.0580496 234 88 12
-0.012734747 -1.1569271 1.0572644 234 88 12
-0.0079929717 -1.1593821 1.0572644 234 88 12
-0.080171645 -1.1093788 1.0533804 234 88 12
-0.08201918 -1.118872 1.0525637 234 88 12
-0.078713946 -1.122856 1.0523859 234 88 12
-0.078196526 -1.1297338 1.0518694 234 88 12
-0.074623056 -1.133382 1.0517288 234 88 12
-0.071422093 -1.1373992 1.0515443 234 88 12
-0.068984479 -1.142179 1.0512694 234 88 12
-0.064278193 -1.144618 1.0512692 234 88 12
-0.065020509 -1.1525725 1.0506175 234 88 12
-0.060335461 -1.1549982 1.0506175 234 88 12
-0.060572244 -1.1623433 1.0500338 234 88 12
-0.062085904 -1.1708947 1.0493041 234 88 12
-0.059090149 -1.1749184 1.0491109 234 88 12
-0.054457929 -1.1773167 1.0491109 234 88 12
-0.038401477 -1.1685798 1.0504435 234 88 12
-0.021847611 -1.1664979 1.0512761 234 88 12
-0.01587032 -1.1677215 1.0514224 234 88 12
-0.080046855 -1.1099668 1.0484225 234 88 12
-0.079467721 -1.1168951 1.0479231 234 88 12
-0.075731046 -1.1204475 1.0478011 234 88 12
-0.071919329 -1.1239077 1.0476892 234 88 12
-0.071455956 -1.1308298 1.0471857 234 88 12
-0.067543298 -1.1341385 1.0470891 234 88 12
-0.0598232 -1.1335356 1.0474356 234 88 12
-0.043894138 -1.167729 1.0454807 234 88 12
-0.016690001 -1.1693047 1.0464232 234 88 12
-0.071769267 -1.117016 1.0432935 234 88 12
-0.084539369 -1.1738044 1.0386961 234 88 12
-0.053274501 -1.1776915 1.039588 234 88 12
-0.085341074 -1.1753529 1.0338064 234 88 12
-0.080731153 -1.1777396 1.0338064 234 88 12
-0.073680699 -1.1776919 1.0340642 234 88 12
-0.024267249 -1.1781391 1.0358157 234 88 12
-0.019578019 -1.1805669 1.0358157 234 88 12
-0.064580016 -1.1551324 1.0311184 234 88 12
-0.080501087 -1.1782531 1.0290219 234 88 12
-0.050680999 -1.1555163 1.0315738 234 88 12
-0.046782371 -1.1595449 1.0265682 234 88 12
-0.050773386 -1.1266402 1.0949426 234 88 12
-0.046157081 -1.1260303 1.0949426 234 88 12
-0.050470207 -1.1289351 1.0909023 234 88 12
-0.090997919 -1.1255935 1.0799176 234 88 12
-0.080831639 -1.157926 1.082752 234 88 12
-0.059449043 -1.1504821 1.0817317 234 88 12
-0.054028869 -1.1526778 1.0823749 234 88 12
-0.049720135 -1.1512512 1.0821855 234 88 12
-0.045263771 -1.1503 1.0821054 234 88 12
-0.042426836 -1.1438082 1.0807543 234 88 12
-0.043195777 -1.1246712 1.0765046 234 88 12
-0.074964128 -1.1627208 1.0795031 234 88 12
-0.069072187 -1.1663388 1.0804902 234 88 12
-0.064846955 -1.164804 1.0802709 234 88 12
-0.060321044 -1.164206 1.0802709 234 88 12
-0.057718787 -1.1573819 1.0788159 234 88 12
-0.053726729 -1.1549525 1.0783889 234 88 12
-0.049172897 -1.154341 1.0783868 234 88 12
-0.044964213 -1.1525674 1.0781133 234 88 12
-0.0414561 -1.1483718 1.0772754 234 88 12
-0.025773024 -1.1190407 1.0711553 234 88 12
-0.086336158 -1.1583952 1.0736775 234 88 12
-0.080974974 -1.1601995 1.0742508 234 88 12
-0.073969319 -1.167119 1.0760406 234 88 12
-0.068775184 -1.168587 1.0765321 234 88 12
-0.064549714 -1.1670539 1.0763097 234 88 12
-0.061278239 -1.1624517 1.0753584 234 88 12
-0.057419982 -1.1596437 1.074834 234 88 12
-0.053427465 -1.1572176 1.0744008 234 88 12
-0.048870791 -1.1566156 1.0744008 234 88 12
-0.044804502 -1.1543646 1.0740098 234 88 12
-0.040941648 -1.1513754 1.0734442 234 88 12
-0.03764084 -1.146379 1.0724038 234 88 12
-0.030140921 -1.1219823 1.0670637 234 88 12
-0.025465997 -1.1213647 1.0670637 234 88 12
-0.08067555 -1.1624659 1.0702606 234 88 12
-0.074658461 -1.1663411 1.0713431 234 88 12
-0.068775438 -1.1699109 1.0723507 234 88 12
-0.065521233 -1.1653093 1.0713837 234 88 12
-0.060979988 -1.1647093 1.0713837 234 88 12
-0.057517797 -1.1606245 1.0705429 234 88 12
-0.053128205 -1.1594828 1.0704128 234 88 12
-0.04900803 -1.1574339 1.0700639 234 88 12
-0.044689223 -1.1560135 1.0698669 234 88 12
-0.040833313 -1.1529948 1.0692853 234 88 12
-0.036701646 -1.1508617 1.0689174 234 88 12
-0.024112178 -1.1449004 1.067921 234 88 12
-0.086249731 -1.1469347 1.0618969 234 88 12
-0.077117249 -1.1601417 1.0652908 234 88 12
-0.071543828 -1.1626399 1.0660524 234 88 12
-0.066981316 -1.1620371 1.0660524 234 88 12
-0.062688954 -1.160574 1.0658414 234 88 12
-0.058123138 -1.1599708 1.0658414 234 88 12
-0.053309936 -1.160176 1.0660394 234 88 12
-0.048747227 -1.1595733 1.0660394 234 88 12
-0.044465985 -1.158026 1.0658083 234 88 12
-0.040159818 -1.1565378 1.0655919 234 88 12
-0.036400821 -1.1531386 1.0649085 234 88 12
-0.073306039 -1.1585118 1.0604645 234 88 12
-0.067294233 -1.1623809 1.0615797 234 88 12
-0.062389091 -1.1628437 1.0618453 234 88 12
-0.057823274 -1.1622405 1.0618453 234 88 12
-0.053010281 -1.1624442 1.0620462 234 88 12
-0.048447568 -1.1618415 1.0620462 234 88 12
-0.044166088 -1.160296 1.0618118 234 88 12
-0.039599754 -1.1596926 1.0618118 234 88 12
-0.037312079 -1.1512408 1.0598629 234 88 12
-0.0093547497 -1.1490178 1.0602145 234 88 12
-0.011369043 -1.1232501 1.0539888 234 88 12
-0.07385353 -1.1581621 1.0557837 234 88 12
-0.066994101 -1.1646527 1.05758 234 88 12
-0.062053505 -1.1652269 1.0578779 234 88 12
-0.057488129 -1.1646239 1.0578779 234 88 12
-0.051876783 -1.1674317 1.0587398 234 88 12
-0.047324557 -1.1668303 1.0587398 234 88 12
-0.043734457 -1.163007 1.0579265 234 88 12
-0.039169826 -1.1624039 1.0579265 234 88 12
-0.0090532312 -1.1513001 1.0561963 234 88 12
-0.068954274 -1.1598401 1.0517601 234 88 12
-0.061170813 -1.1693467 1.0543573 234 88 12
-0.055463418 -1.1724396 1.0553057 234 88 12
-0.051577814 -1.1696947 1.0547556 234 88 12
-0.047025584 -1.1690933 1.0547556 234 88 12
-0.043176562 -1.1661396 1.0541527 234 88 12
-0.03861526 -1.165537 1.0541527 234 88 12
-0.059708938 -1.1752987 1.0513288 234 88 12
-0.054849137 -1.1757129 1.0515931 234 88 12
-0.050309118 -1.1751131 1.0515931 234 88 12
-0.019651875 -1.1668932 1.0505496 234 88 12
-0.053981371 -1.1797973 1.0481029 234 88 12
-0.014434193 -1.1698735 1.0469093 234 88 12
-0.088512413 -1.1629585 1.0380288 234 88 12
-0.085043073 -1.1746559 1.0365516 234 88 12
-0.080458425 -1.1740502 1.0365516 234 88 12
-0.084741972 -1.176935 1.032539 234 88 12
-0.080001362 -1.1767975 1.0326686 234 88 12
-0.075208679 -1.1768299 1.0328453 234 88 12
-0.027256452 -1.1782292 1.0348969 234 88 12
-0.022705104 -1.1776279 1.0348969 234 88 12
-0.084440872 -1.1792141 1.0285264 234 88 12
-0.047387548 -1.159776 1.0246135 234 88 12
-0.037477676 -1.1887366 1.0231181 234 88 12
-0.051862951 -1.1612583 1.027774 234 88 12
-0.064004965 -1.1566236 1.0288091 234 88 12
-0.074533656 -1.1702691 1.0269517 234 88 12
-0.086109743 -1.1721784 1.0269517 234 88 12
-0.0421624 -1.121164 1.0985552 234 88 12
-0.043912359 -1.1371216 1.099224 234 88 12
-0.042800825 -1.1569976 1.1002717 234 88 12
-0.042341877 -1.1225123 1.0879846 234 88 12
-0.057828188 -1.1202461 1.0869086 234 88 12
-0.060372982 -1.1351366 1.0874505 234 88 12
-0.061349444 -1.1522182 1.0881938 234 88 12
-0.075347997 -1.1517495 1.0872955 234 88 12
-0.082218595 -1.1608812 1.0872955 234 88 12
-0.016272878 -1.1400748 1.079692 234 88 12
-0.057089061 -1.1046284 1.0756453 234 88 12
-0.065224245 -1.1120209 1.0754911 234 88 12
-0.0721616 -1.1209934 1.0754799 234 88 12
-0.078272812 -1.1310775 1.0755683 234 88 12
-0.078392126 -1.1493057 1.0763836 234 88 12
-0.085261852 -1.1584362 1.0763836 234 88 12
-0.081654951 -1.1819773 1.077662 234 88 12
-0.022736896 -1.1148764 1.0674599 234 88 12
-0.029664716 -1.1240842 1.0674599 234 88 12
-0.061128553 -1.1008735 1.0646548 234 88 12
-0.068643749 -1.1090783 1.0645779 234 88 12
-0.075628638 -1.1179812 1.0645615 234 88 12
-0.082218051 -1.1274148 1.0645906 234 88 12
-0.086313337 -1.1402395 1.0649091 234 88 12
-0.088051744 -1.1563371 1.0655037 234 88 12
-0.0026427961 -1.1426344 1.0589706 234 88 12
-0.0096479682 -1.1519449 1.0589706 234 88 12
-0.063711442 -1.0990422 1.0538365 234 88 12
-0.071294412 -1.1071581 1.0537556 234 88 12
-0.078407168 -1.1158906 1.053726 234 88 12
-0.084441759 -1.1260731 1.053815 234 88 12
-0.08870741 -1.1386738 1.0541002 234 88 12
-0.084956586 -1.1622881 1.0552771 234 88 12
-0.0063681034 -1.1578513 1.0485102 234 88 12
-0.065265596 -1.0985721 1.0431228 234 88 12
-0.073003419 -1.1064922 1.0430301 234 88 12
-0.07995218 -1.1154543 1.0430195 234 88 12
-0.086035624 -1.1255828 1.0430995 234 88 12
-0.07932175 -1.1531228 1.0445275 234 88 12
-0.08075536 -1.1697633 1.0451046 234 88 12
-0.084351569 -1.1835259 1.0454564 234 88 12
-0.01624739 -1.1650428 1.037383 234 88 12
-0.07366614 -1.1072224 1.0323969 234 88 12
-0.080097497 -1.1168981 1.0324389 234 88 12
-0.062539272 -1.1589923 1.034871 234 88 12
-0.069478378 -1.168215 1.034871 234 88 12
-0.083563358 -1.1676506 1.0341542 234 88 12
-0.087164253 -1.1814097 1.0344877 234 88 12
-0.025788568 -1.172685 1.0262873 234 88 12
-0.049143955 -1.1601014 1.0247529 234 88 12
-0.055722311 -1.1698973 1.0247899 234 88 12
-0.044528421 -1.2038913 1.0265089 234 88 12
-0.081350066 -1.1724195 1.0236806 234 88 12
-0.085703835 -1.18519 1.0239261 234 88 12
-0.044292044 -1.1298124 1.1011792 234 88 12
-0.048280053 -1.1379564 1.0994991 234 88 12
-0.047740668 -1.1477562 1.0994991 234 88 12
-0.078076944 -1.1554164 1.0878501 234 88 12
-0.07400956 -1.1664571 1.0891604 234 88 12
-0.031549528 -1.1152952 1.0965787 234 88 12
-0.06861981 -1.1115412 1.0827532 234 88 12
-0.070159376 -1.1205127 1.0819906 234 88 12
-0.067635797 -1.1309701 1.0827212 234 88 12
-0.06311518 -1.1421865 1.0841851 234 88 12
-0.071193479 -1.1486877 1.0810212 234 88 12
-0.081012197 -1.1544656 1.0772195 234 88 12
-0.08077623 -1.1640272 1.0771106 234 88 12
-0.071715824 -1.1770041 1.0802407 234 88 12
-0.072052114 -1.1009291 1.0720994 234 88 12
-0.075370461 -1.1092547 1.0706971 234 88 12
-0.075855032 -1.1185892 1.0703263 234 88 12
-0.080277905 -1.1264615 1.0685229 234 88 12
-0.077517875 -1.1369774 1.069333 234 88 12
-0.080348335 -1.1454041 1.0681096 234 88 12
-0.081687167 -1.1543736 1.0674291 234 88 12
-0.081154689 -1.164048 1.0674291 234 88 12
-0.072095506 -1.1770251 1.070528 234 88 12
-0.073688909 -1.1004994 1.061918 234 88 12
-0.077169493 -1.1087614 1.0604712 234 88 12
-0.077081874 -1.1183001 1.0603104 234 88 12
-0.07851848 -1.1272724 1.0596006 234 88 12
-0.077897087 -1.1369983 1.0596322 234 88 12
-0.080727071 -1.145425 1.0584213 234 88 12
-0.080194212 -1.1551061 1.0584213 234 88 12
-0.073144622 -1.1672885 1.0607666 234 88 12
-0.074477829 -1.1003736 1.0520482 234 88 12
-0.07754904 -1.1087823 1.0507619 234 88 12
-0.077461354 -1.1183209 1.0506027 234 88 12
-0.076927446 -1.1280214 1.0506027 234 88 12
-0.074092723 -1.1385802 1.051423 234 88 12
-0.071791045 -1.1489547 1.0520529 234 88 12
-0.071256317 -1.1586701 1.0520529 234 88 12
-0.070597999 -1.1684327 1.052097 234 88 12
-0.059626944 -1.1821922 1.0558145 234 88 12
-0.072343156 -1.1012969 1.0432138 234 88 12
-0.074944921 -1.1098845 1.0421062 234 88 12
-0.076177776 -1.1189505 1.0414822 234 88 12
-0.074158013 -1.1292061 1.0420065 234 88 12
-0.07021606 -1.1401895 1.043209 234 88 12
-0.066010602 -1.1512967 1.0445039 234 88 12
-0.064537324 -1.1613911 1.0448345 234 88 12
-0.084340617 -1.1633232 1.0376613 234 88 12
-0.083808549 -1.17299 1.0376613 234 88 12
-0.08327648 -1.1826568 1.0376613 234 88 12
-0.069164306 -1.1121384 1.034539 234 88 12
-0.068700425 -1.1218476 1.0345138 234 88 12
-0.062154394 -1.1338046 1.0366135 234 88 12
-0.044311803 -1.1500211 1.0426577 234 88 12
-0.042708073 -1.1602426 1.043029 234 88 12
-0.042167317 -1.1700672 1.043029 234 88 12
-0.05979427 -1.1729152 1.0366874 234 88 12
-0.084186718 -1.1730108 1.0279874 234 88 12
-0.082265146 -1.1832211 1.0284722 234 88 12
-0.010099521 -1.1629574 1.044788 234 88 12
-0.047881782 -1.1584586 1.0315419 234 88 12
-0.025476743 -1.1765851 1.0390966 234 88 12
-0.019737247 -1.1884676 1.0408913 234 88 12
-0.035335165 -1.1921159 1.0353159 234 88 12
-0.048265442 -1.1584797 1.0217274 234 88 12
-0.025863536 -1.1766063 1.029202 234 88 12
-0.064217761 -1.1667299 1.0773813 234 88 12
-0.059499867 -1.1631802 1.0773813 234 88 12
-0.056120012 -1.1588717 1.0775825 234 88 12
-0.050460439 -1.1558545 1.0774411 234 88 12
-0.045228288 -1.152599 1.0773635 234 88 12
-0.040823266 -1.1488686 1.0774109 234 88 12
-0.039934486 -1.1430866 1.0779935 234 88 12
-0.0651742 -1.1670305 1.0720577 234 88 12
-0.061290495 -1.1630034 1.0721809 234 88 12
-0.054740172 -1.1604812 1.0719128 234 88 12
-0.049375545 -1.1572964 1.0718179 234 88 12
-0.044003189 -1.1541212 1.0717213 234 88 12
-0.039426185 -1.150491 1.0717422 234 88 12
-0.037593424 -1.1452618 1.0721711 234 88 12
-0.027441582 -1.1448867 1.0713619 234 88 12
-0.045786124 -1.1277359 1.0748107 234 88 12
-0.069501542 -1.1654503 1.0672017 234 88 12
-0.060335539 -1.1643736 1.066568 234 88 12
-0.053168006 -1.1621993 1.0662175 234 88 12
-0.045275588 -1.1604571 1.0657605 234 88 12
-0.040239487 -1.1571002 1.0657135 234 88 12
-0.038201593 -1.1520134 1.0661005 234 88 12
-0.033975795 -1.1481783 1.0661719 234 88 12
-0.026358768 -1.1463258 1.0657495 234 88 12
-0.021648766 -1.1427821 1.0657495 234 88 12
-0.045299258 -1.1224005 1.0699069 234 88 12
-0.026620293 -1.1206559 1.0685664 234 88 12
-0.068411931 -1.1668986 1.0615542 234 88 12
-0.052673679 -1.169512 1.0600166 234 88 12
-0.04796619 -1.1659702 1.0600166 234 88 12
-0.042631727 -1.1627854 1.0599284 234 88 12
-0.038714159 -1.158793 1.0600395 234 88 12
-0.037117139 -1.1534548 1.0604796 234 88 12
-0.037879243 -1.1467206 1.0612569 234 88 12
-0.0080572348 -1.1578418 1.057687 234 88 12
-0.0092790788 -1.1508715 1.0585264 234 88 12
-0.034935679 -1.1293594 1.0628681 234 88 12
-0.04792029 -1.1151711 1.0654167 234 88 12
-0.05464226 -1.1754159 1.0541818 234 88 12
-0.049939588 -1.1718776 1.0541818 234 88 12
-0.046883952 -1.1674086 1.0544072 234 88 12
-0.040256973 -1.164959 1.0541438 234 88 12
-0.023810929 -1.1681497 1.0525275 234 88 12
-0.019143617 -1.164638 1.0525275 234 88 12
-0.043034051 -1.1445414 1.056481 234 88 12
-0.044067658 -1.1375833 1.0572844 234 88 12
-0.043029297 -1.131799 1.0578039 234 88 12
-0.044196106 -1.1246778 1.0586345 234 88 12
-0.048822533 -1.1154442 1.0599549 234 88 12
-0.053561132 -1.1768528 1.0485783 234 88 12
-0.051836587 -1.1716444 1.0489744 234 88 12
-0.05447033 -1.1639522 1.0499544 234 88 12
-0.042749926 -1.1643639 1.0490193 234 88 12
-0.022737928 -1.1695758 1.0469661 234 88 12
-0.013521704 -1.1686858 1.0463537 234 88 12
-0.047716126 -1.1426426 1.0515984 234 88 12
-0.047883738 -1.1361706 1.0522668 234 88 12
-0.046733815 -1.1304342 1.0527604 234 88 12
-0.048186991 -1.1231272 1.0536114 234 88 12
-0.051665701 -1.1145622 1.0547441 234 88 12
-0.055464823 -1.1766288 1.0433605 234 88 12
-0.072782092 -1.1417686 1.0480902 234 88 12
-0.0661292 -1.1392002 1.0478494 234 88 12
-0.061286367 -1.135597 1.0478455 234 88 12
-0.055696778 -1.1324298 1.047743 234 88 12
-0.052735291 -1.1277245 1.0479876 234 88 12
-0.051216576 -1.1221505 1.0484252 234 88 12
-0.057162456 -1.1121033 1.0498594 234 88 12
-0.087081768 -1.1598887 1.0418628 234 88 12
-0.028901042 -1.1800294 1.0357132 234 88 12
-0.024236735 -1.17652 1.0357132 234 88 12
-0.06850186 -1.1257869 1.0437989 234 88 12
-0.063273765 -1.122358 1.0437504 234 88 12
-0.063165508 -1.1159053 1.0443634 234 88 12
-0.048222508 -1.1582973 1.0283083 234 88 12
-0.047129299 -1.1597503 1.022642 234 88 12
-0.049632397 -1.1410625 1.0973978 234 88 12
-0.04945967 -1.1280613 1.0972556 234 88 12
-0.061516531 -1.178738 1.0884441 234 88 12
-0.043527942 -1.1504858 1.0877279 234 88 12
-0.04602344 -1.1396999 1.0876884 234 88 12
-0.046502147 -1.1272408 1.0875828 234 88 12
-0.086192466 -1.1473914 1.088765 234 88 12
-0.039501596 -1.1616956 1.0781089 234 88 12
-0.039917201 -1.1491226 1.0780137 234 88 12
-0.043609146 -1.1393435 1.0780137 234 88 12
-0.047301088 -1.1295644 1.0780137 234 88 12
-0.059925828 -1.1272124 1.0782716 234 88 12
-0.063932255 -1.1176459 1.0782803 234 88 12
-0.070084244 -1.1098374 1.0783508 234 88 12
-0.07840129 -1.1037691 1.0784832 234 88 12
-0.020030169 -1.1596802 1.0680764 234 88 12
-0.023710329 -1.1499389 1.0680764 234 88 12
-0.027388612 -1.140196 1.0680764 234 88 12
-0.024635447 -1.1250329 1.0679157 234 88 12
-0.028303891 -1.115316 1.0679157 234 88 12
-0.056267496 -1.1258156 1.0685208 234 88 12
-0.060150594 -1.1161475 1.0685252 234 88 12
-0.06491559 -1.1072021 1.0685515 234 88 12
-0.072836317 -1.1008213 1.068656 234 88 12
-0.0069639334 -1.1630561 1.0582758 234 88 12
-0.0069726165 -1.1501901 1.0581986 234 88 12
-0.020112947 -1.1485808 1.0583981 234 88 12
-0.036313288 -1.1494669 1.0586613 234 88 12
-0.040760245 -1.1403053 1.0586771 234 88 12
-0.04893297 -1.1342583 1.0587709 234 88 12
-0.052674584 -1.1244733 1.0587716 234 88 12
-0.056576192 -1.1148205 1.0587757 234 88 12
-0.061429229 -1.1059479 1.0587996 234 88 12
-0.068970218 -1.0992589 1.0588795 234 88 12
-0.077237792 -1.0931194 1.0589743 234 88 12
-0.014872686 -1.1716549 1.0488175 234 88 12
-0.018559789 -1.1618887 1.0488175 234 88 12
-0.03539465 -1.1633627 1.0490415 234 88 12
-0.039101988 -1.1535429 1.0490415 234 88 12
-0.04194076 -1.1429898 1.0490267 234 88 12
-0.045485519 -1.1330382 1.049024 234 88 12
-0.049284816 -1.1233004 1.0490257 234 88 12
-0.053328063 -1.1137638 1.0490314 234 88 12
-0.059264239 -1.1057811 1.0490689 234 88 12
-0.066335276 -1.0987028 1.0491257 234 88 12
-0.077040754 -1.0945412 1.0492432 234 88 12
-0.023034723 -1.1804903 1.0392696 234 88 12
-0.028894441 -1.1725309 1.0392977 234 88 12
-0.05080102 -1.1782784 1.0395344 234 88 12
-0.054537691 -1.1683809 1.0395344 234 88 12
-0.055166289 -1.1558574 1.039494 234 88 12
-0.046753958 -1.1357774 1.0393368 234 88 12
-0.049561694 -1.1251864 1.0393251 234 88 12
-0.053735416 -1.1157373 1.0393311 234 88 12
-0.059507437 -1.1075996 1.0393577 234 88 12
-0.0672829 -1.1010792 1.0394099 234 88 12
-0.021558763 -1.1809849 1.0295396 234 88 12
-0.073964246 -1.2131275 1.0299768 234 88 12
-0.077748157 -1.2031047 1.0299768 234 88 12
-0.047784578 -1.1643645 1.0296748 234 88 12
-0.064098522 -1.1651186 1.0297872 234 88 12
-0.082517318 -1.167506 1.0299181 234 88 12
-0.073660456 -1.1881326 1.0200002 234 88 12
-0.060429767 -1.1637335 1.019917 234 88 12
-0.057641953 -1.1413659 1.1048557 234 88 12
-0.035674598 -1.1590239 1.0933706 234 88 12
-0.040941916 -1.1296355 1.0927683 234 88 12
-0.047863275 -1.1070297 1.0923289 234 88 12
-0.071644515 -1.1462379 1.093388 234 88 12
-0.03223734 -1.1478878 1.0813853 234 88 12
-0.041687425 -1.1342258 1.081194 234 88 12
-0.052685373 -1.1265265 1.0811268 234 88 12
-0.064522721 -1.121969 1.0811251 234 88 12
-0.076409832 -1.1175923 1.0811272 234 88 12
-0.089039594 -1.1158434 1.0811844 234 88 12
-0.0093703074 -1.1626124 1.0697399 234 88 12
-0.018677028 -1.1479867 1.069563 234 88 12
-0.024794454 -1.1215417 1.0691788 234 88 12
-0.038069077 -1.1224942 1.0692737 234 88 12
-0.05094263 -1.121817 1.0693403 234 88 12
-0.062609658 -1.1166439 1.0693281 234 88 12
-0.074465543 -1.112168 1.0693281 234 88 12
-0.086600602 -1.1086812 1.0693455 234 88 12
-0.0055137235 -1.1496367 1.0577626 234 88 12
-0.017420268 -1.1451416 1.0577626 234 88 12
-0.027917957 -1.1352966 1.0576868 234 88 12
-0.0379498 -1.1238567 1.0575883 234 88 12
-0.049289621 -1.1174386 1.0575608 234 88 12
-0.060904641 -1.1120757 1.0575482 234 88 12
-0.072759874 -1.1076 1.0575482 234 88 12
-0.084934667 -1.104257 1.0575643 234 88 12
-0.099453427 -1.1090839 1.0576971 234 88 12
-0.0099989017 -1.1692669 1.0461941 234 88 12
-0.021986743 -1.1647412 1.0461941 234 88 12
-0.030539721 -1.1471647 1.0460531 234 88 12
-0.037318405 -1.1233064 1.0458437 234 88 12
-0.047788568 -1.1136215 1.0457873 234 88 12
-0.059486303 -1.108552 1.0457809 234 88 12
-0.071344443 -1.1040752 1.0457809 234 88 12
-0.083552413 -1.1008389 1.0457944 234 88 12
-0.013207721 -1.1839323 1.0344276 234 88 12
-0.02469258 -1.177193 1.0344114 234 88 12
-0.036737677 -1.1726456 1.0344114 234 88 12
-0.047449168 -1.1630995 1.0343741 234 88 12
-0.048197556 -1.1168652 1.0340627 234 88 12
-0.058723651 -1.1074195 1.0340257 234 88 12
-0.070938066 -1.10418 1.034035 234 88 12
-0.084570199 -1.1059372 1.0340818 234 88 12
-0.040434469 -1.1886457 1.0225296 234 88 12
-0.045772482 -1.1586584 1.0224259 234 88 12
-0.063077487 -1.1736321 1.0225056 234 88 12
-0.075967371 -1.1719666 1.0225176 234 88 12
-0.088754907 -1.169854 1.0225276 234 88 12
-0.040164392 -1.1146148 1.0975552 234 88 12
-0.050020847 -1.1285876 1.0991554 234 88 12
-0.054016415 -1.1629689 1.1046205 234 88 12
-0.040982746 -1.1128285 1.0842073 234 88 12
-0.055677731 -1.1103588 1.0827141 234 88 12
-0.068128556 -1.1154042 1.0826232 234 88 12
-0.080267295 -1.121526 1.0827324 234 88 12
-0.091397755 -1.1312324 1.083506 234 88 12
-0.024873173 -1.1206994 1.0736442 234 88 12
-0.043877125 -1.1040764 1.0695845 234 88 12
-0.056937899 -1.1070695 1.06912 234 88 12
-0.069398627 -1.1120617 1.0690217 234 88 12
-0.081547931 -1.118127 1.069119 234 88 12
-0.093399972 -1.1252592 1.0694098 234 88 12
-0.096646532 -1.1633239 1.0753145 234 88 12
-0.0025873398 -1.1483802 1.0665401 234 88 12
-0.025785781 -1.1186036 1.0601836 234 88 12
-0.044820908 -1.1018673 1.0561848 234 88 12
-0.057785783 -1.1051815 1.0557872 234 88 12
-0.070244543 -1.1101803 1.055692 234 88 12
-0.082536124 -1.1157485 1.0556986 234 88 12
-0.094225004 -1.1234523 1.0560857 234 88 12
-0.097500622 -1.1614243 1.061856 234 88 12
-0.0034476384 -1.1464666 1.0529838 234 88 12
-0.015959024 -1.1520916 1.0529838 234 88 12
-0.044979539 -1.1022938 1.0432503 234 88 12
-0.058265258 -1.1045467 1.0426742 234 88 12
-0.070838682 -1.1091667 1.0425142 234 88 12
-0.082933515 -1.1154344 1.0426427 234 88 12
-0.094669476 -1.1229936 1.0429963 234 88 12
-0.090865947 -1.1864218 1.0530847 234 88 12
-0.011779432 -1.1668818 1.0423043 234 88 12
-0.026172992 -1.1664069 1.0412508 234 88 12
-0.058045838 -1.1062907 1.0299604 234 88 12
-0.071002245 -1.1096387 1.0295848 234 88 12
-0.083177425 -1.1156577 1.0296674 234 88 12
-0.084421776 -1.1604242 1.0363718 234 88 12
-0.093870193 -1.1768055 1.0382119 234 88 12
-0.008793978 -1.1777219 1.0308366 234 88 12
-0.023733985 -1.1755784 1.0295213 234 88 12
-0.043421533 -1.1570671 1.0254598 234 88 12
-0.05592446 -1.1626883 1.0254598 234 88 12
-0.068061084 -1.1695904 1.0256743 234 88 12
-0.080989078 -1.1737225 1.0254248 234 88 12
-0.093491286 -1.1793435 1.0254248 234 88 12
-0.0674835 -1.149352 1.101236 234 88 12
-0.030216536 -1.1178393 1.0980731 234 88 12
-0.067517243 -1.0997883 1.0780073 234 88 12
-0.073811255 -1.1100966 1.0772741 234 88 12
-0.079456881 -1.1209953 1.0769447 234 88 12
-0.084576517 -1.1323825 1.0769447 234 88 12
-0.083166108 -1.1499668 1.0810608 234 88 12
-0.08420594 -1.1652987 1.0836469 234 88 12
-0.059256643 -1.0904523 1.0665221 234 88 12
-0.06698022 -1.0994608 1.0649135 234 88 12
-0.073931262 -1.1091514 1.0637774 234 88 12
-0.079953097 -1.119686 1.0632145 234 88 12
-0.083727345 -1.1323251 1.0640502 234 88 12
-0.08286652 -1.1493796 1.0677848 234 88 12
-0.086963564 -1.1617788 1.0684319 234 88 12
-0.07747107 -1.1872709 1.0776074 234 88 12
-0.057966422 -1.0908215 1.0538901 234 88 12
-0.066855952 -1.0987538 1.0515798 234 88 12
-0.073098339 -1.1090918 1.0508878 234 88 12
-0.078522302 -1.1201793 1.0506973 234 88 12
-0.082207665 -1.1328995 1.0515798 234 88 12
-0.07967338 -1.1515372 1.0563163 234 88 12
-0.080994517 -1.1665974 1.0586814 234 88 12
-0.048787501 -1.0984021 1.0460502 234 88 12
-0.063322194 -1.1011875 1.0403377 234 88 12
-0.070450082 -1.1107165 1.0391147 234 88 12
-0.075566851 -1.1220974 1.0391147 234 88 12
-0.078386053 -1.1356404 1.0405209 234 88 12
-0.075998947 -1.15415 1.0451266 234 88 12
-0.082799949 -1.1639899 1.0441043 234 88 12
-0.086155623 -1.1771202 1.0452 234 88 12
-0.052103162 -1.1106941 1.0337063 234 88 12
-0.065260507 -1.114697 1.0288659 234 88 12
-0.067978665 -1.1283413 1.0303218 234 88 12
-0.065056533 -1.1473243 1.0352044 234 88 12
-0.068022132 -1.1608381 1.0365299 234 88 12
-0.07926961 -1.1664776 1.0328171 234 88 12
-0.084407762 -1.177906 1.0328171 234 88 12
-0.08652515 -1.1922591 1.0346649 234 88 12
-0.0050716959 -1.1531461 1.0483477 234 88 12
-0.012292144 -1.1629589 1.0471617 234 88 12
-0.030581081 -1.1624112 1.0393348 234 88 12
-0.049711693 -1.1608951 1.0309685 234 88 12
-0.05425493 -1.1730063 1.0313494 234 88 12
-0.072521448 -1.1720339 1.0234513 234 88 12
-0.079630367 -1.181603 1.0222661 234 88 12
-0.02144446 -1.1700815 1.0311638 234 88 12
-0.047951028 -1.1616867 1.018495 234 88 12
-0.033743791 -1.1915511 1.0300565 234 88 12
-0.080731452 -1.1601496 1.0872478 234 88 12
-0.07606145 -1.1698294 1.0882181 234 88 12
-0.070090272 -1.1319952 1.0941243 234 88 12
-0.084725924 -1.1488326 1.0741966 234 88 12
-0.085186079 -1.1579047 1.0705084 234 88 12
-0.079937793 -1.1676204 1.0720085 234 88 12
-0.067162126 -1.1782701 1.0803195 234 88 12
-0.082691982 -1.1105651 1.0764741 234 88 12
-0.082523324 -1.1198188 1.0733378 234 88 12
-0.082652032 -1.1290146 1.0699418 234 88 12
-0.07716658 -1.1387736 1.0716406 234 88 12
-0.08120466 -1.1475031 1.0647231 234 88 12
-0.077604204 -1.1570399 1.0647231 234 88 12
-0.072136991 -1.1667962 1.0664057 234 88 12
-0.067413159 -1.176477 1.067414 234 88 12
-0.081814468 -1.0997224 1.0678139 234 88 12
-0.082602836 -1.1089075 1.063825 234 88 12
-0.081275068 -1.1182622 1.0617594 234 88 12
-0.079121903 -1.1276819 1.0604445 234 88 12
-0.075512387 -1.1372426 1.0604445 234 88 12
-0.074103139 -1.1465636 1.0584671 234 88 12
-0.072216243 -1.1559212 1.0569246 234 88 12
-0.089180276 -1.1630622 1.038499 234 88 12
-0.086958937 -1.1723584 1.0372915 234 88 12
-0.083389819 -1.1818122 1.0372915 234 88 12
-0.079185061 -1.0983044 1.0574605 234 88 12
-0.079941981 -1.107492 1.0535257 234 88 12
-0.077840775 -1.1169192 1.052168 234 88 12
-0.074229121 -1.1264856 1.052168 234 88 12
-0.070008494 -1.1361156 1.0527128 234 88 12
-0.070184045 -1.1452746 1.0493293 234 88 12
-0.068692118 -1.1545907 1.0474434 234 88 12
-0.065088741 -1.1641352 1.0474434 234 88 12
-0.083468318 -1.1710407 1.0279006 234 88 12
-0.079899199 -1.1804944 1.0279006 234 88 12
-0.050607804 -1.1932383 1.0506966 234 88 12
-0.074962966 -1.0970269 1.0485423 234 88 12
-0.074933998 -1.1062922 1.0453327 234 88 12
-0.072793387 -1.1157303 1.0440165 234 88 12
-0.069055595 -1.1253153 1.0441266 234 88 12
-0.065441363 -1.1348885 1.0441266 234 88 12
-0.060916904 -1.1445596 1.0449346 234 88 12
-0.057155333 -1.1541529 1.045064 234 88 12
-0.054410733 -1.16363 1.0442929 234 88 12
-0.055621617 -1.1726284 1.0400294 234 88 12
-0.0520146 -1.1821826 1.0400294 234 88 12
-0.068187445 -1.1052482 1.0386668 234 88 12
-0.065283373 -1.1147724 1.038031 234 88 12
-0.061304789 -1.124397 1.0383481 234 88 12
-0.055493422 -1.1342129 1.0402837 234 88 12
-0.048191465 -1.1442051 1.0435283 234 88 12
-0.044176571 -1.1538626 1.0438673 234 88 12
-0.044135369 -1.1630679 1.0407104 234 88 12
-0.034168541 -1.1734215 1.0462794 234 88 12
-0.024789724 -1.1169096 1.0610576 234 88 12
-0.021111581 -1.1266521 1.0610576 234 88 12
-0.010724221 -1.1464584 1.0637152 234 88 12
-0.02493787 -1.1542464 1.0480481 234 88 12
-0.047234558 -1.160973 1.0253648 234 88 12
-0.028618809 -1.1723144 1.0384562 234 88 12
-0.024980845 -1.1819504 1.0384562 234 88 12
-0.007122355 -1.1450986 1.0540249 234 88 12
-0.0034394874 -1.1548536 1.0540249 234 88 12
-0.0118152 -1.1632447 1.0435501 234 88 12
-0.011168602 -1.1725971 1.040933 234 88 12
-0.018053446 -1.1810148 1.0318019 234 88 12
-0.047298752 -1.1235328 1.0963182 234 88 12
-0.049728684 -1.1245943 1.0813793 234 88 12
-0.028444555 -1.1249578 1.0680079 234 88 12
-0.025107194 -1.1175348 1.0680079 234 88 12
-0.056163993 -1.1101648 1.0770205 234 88 12
-0.046861961 -1.1256191 1.0650139 234 88 12
-0.045073014 -1.1181451 1.065421 234 88 12
-0.049313515 -1.1106722 1.0673903 234 88 12
-0.057127606 -1.1031495 1.0702915 234 88 12
-0.046125989 -1.1261367 1.0570117 234 88 12
-0.046298806 -1.1186715 1.0579153 234 88 12
-0.048361622 -1.111189 1.0593046 234 88 12
-0.054295484 -1.1036699 1.0616893 234 88 12
-0.048118912 -1.1266767 1.0496948 234 88 12
-0.048443802 -1.1192037 1.0506266 234 88 12
-0.050984945 -1.1117135 1.052121 234 88 12
-0.055402104 -1.1041863 1.0540941 234 88 12
-0.053305019 -1.1272446 1.0431528 234 88 12
-0.053001963 -1.1197501 1.0439188 234 88 12
-0.054626565 -1.112242 1.0451679 234 88 12
-0.058678288 -1.1047022 1.0470268 234 88 12
-0.068930179 -1.1279044 1.0391366 234 88 12
-0.064380258 -1.120337 1.0388535 234 88 12
-0.063840881 -1.1127868 1.0395578 234 88 12
-0.064914882 -1.1052188 1.0406622 234 88 12
-0.051573828 -1.1542273 1.0999795 234 88 12
-0.048142582 -1.1413623 1.098225 234 88 12
-0.048089571 -1.1300902 1.0979396 234 88 12
-0.027533837 -1.153926 1.0787034 234 88 12
-0.03966324 -1.1484529 1.0836704 234 88 12
-0.042700801 -1.1386514 1.0847194 234 88 12
-0.041712612 -1.1269714 1.0840344 234 88 12
-0.049122162 -1.1191477 1.0869651 234 88 12
-0.0073432284 -1.1552737 1.0592586 234 88 12
-0.007938277 -1.1444626 1.0592586 234 88 12
-0.026027072 -1.1418695 1.0667243 234 88 12
-0.02859336 -1.1319056 1.0675637 234 88 12
-0.02671987 -1.1198759 1.0665089 234 88 12
-0.052262776 -1.1204121 1.0771471 234 88 12
-0.054623473 -1.1102318 1.0778961 234 88 12
-0.062418088 -1.1024798 1.0809612 234 88 12
-0.015139888 -1.1699481 1.0518103 234 88 12
-0.015736673 -1.1591055 1.0518103 234 88 12
-0.033957656 -1.1566126 1.0592624 234 88 12
-0.040095937 -1.1483014 1.0616033 234 88 12
-0.042908087 -1.1383963 1.0625376 234 88 12
-0.049877223 -1.1303922 1.0652279 234 88 12
-0.052729592 -1.1204529 1.0661778 234 88 12
-0.054373581 -1.1099473 1.066617 234 88 12
-0.059639767 -1.1010612 1.0685856 234 88 12
-0.066618711 -1.0929003 1.0712764 234 88 12
-0.024748648 -1.1855668 1.0450587 234 88 12
-0.01826632 -1.1712735 1.0420917 234 88 12
-0.033783928 -1.1675485 1.0483419 234 88 12
-0.041619938 -1.1600636 1.0513721 234 88 12
-0.042961769 -1.14947 1.0516818 234 88 12
-0.048784174 -1.1409564 1.053867 234 88 12
-0.051486652 -1.1309606 1.0547454 234 88 12
-0.05332971 -1.1205546 1.055264 234 88 12
-0.055339444 -1.1102141 1.0558519 234 88 12
-0.060082469 -1.1010906 1.057583 234 88 12
-0.065652147 -1.0923016 1.0596588 234 88 12
-0.025174331 -1.1855903 1.0341692 234 88 12
-0.025773248 -1.1747088 1.0341692 234 88 12
-0.049311467 -1.1747856 1.0436862 234 88 12
-0.047224812 -1.1625391 1.0425701 234 88 12
-0.050162029 -1.1526736 1.043538 234 88 12
-0.052004389 -1.1422794 1.0440515 234 88 12
-0.05327148 -1.1316098 1.0443263 234 88 12
-0.054961748 -1.1211283 1.0447763 234 88 12
-0.057543665 -1.1110423 1.0455956 234 88 12
-0.062337302 -1.101934 1.0473309 234 88 12
-0.068130627 -1.0932369 1.0494792 234 88 12
-0.063528039 -1.1927135 1.0386198 234 88 12
-0.054762036 -1.1772076 1.0347688 234 88 12
-0.04765363 -1.1625627 1.0316005 234 88 12
-0.06122078 -1.1576879 1.0369244 234 88 12
-0.06726376 -1.1492058 1.0391566 234 88 12
-0.059169944 -1.1341568 1.0355848 234 88 12
-0.059710436 -1.1231272 1.0355582 234 88 12
-0.062114093 -1.1129428 1.036296 234 88 12
-0.06711293 -1.1039097 1.0380982 234 88 12
-0.079952039 -1.1890558 1.0338417 234 88 12
-0.048082449 -1.1625863 1.0206308 234 88 12
-0.066209808 -1.1598516 1.0277569 234 88 12
-0.089413777 -1.1593373 1.036944 234 88 12
-0.083992913 -1.1794084 1.0239503 234 88 12
-0.084603965 -1.1683067 1.0239503 234 88 12
-0.049017053 -1.127389 1.1039065 234 88 12
-0.038072161 -1.1587912 1.0945649 234 88 12
-0.038971871 -1.136098 1.0906789 234 88 12
-0.047456373 -1.1253406 1.0902736 234 88 12
-0.056829277 -1.1159676 1.0902736 234 88 12
-0.075442195 -1.1206614 1.0944294 234 88 12
-0.023709601 -1.1607711 1.0793397 234 88 12
-0.026818566 -1.1414953 1.0764989 234 88 12
-0.028108196 -1.1195383 1.0728672 234 88 12
-0.047680985 -1.1260529 1.0774513 234 88 12
-0.059403945 -1.1202753 1.0784961 234 88 12
-0.068851672 -1.1109776 1.0785224 234 88 12
-0.078500211 -1.1019819 1.0786371 234 88 12
-0.0037004524 -1.15363 1.061615 234 88 12
-0.013049473 -1.144281 1.061615 234 88 12
-0.027386071 -1.1427681 1.0638353 234 88 12
-0.027443632 -1.1188737 1.0597082 234 88 12
-0.049405783 -1.1290858 1.0652788 234 88 12
-0.058486313 -1.1192247 1.0651436 234 88 12
-0.067873381 -1.1098375 1.0651436 234 88 12
-0.077599578 -1.1009629 1.065291 234 88 12
-0.088774443 -1.0942521 1.066064 234 88 12
-0.0070227883 -1.1593305 1.0501931 234 88 12
-0.019227086 -1.1544535 1.0514427 234 88 12
-0.033168681 -1.1522361 1.0534424 234 88 12
-0.040388469 -1.1394271 1.052489 234 88 12
-0.048787855 -1.1284957 1.0520573 234 88 12
-0.05783182 -1.1185777 1.0519083 234 88 12
-0.067218952 -1.1091907 1.0519083 234 88 12
-0.076947846 -1.10032 1.0520545 234 88 12
-0.088658363 -1.0944123 1.0530442 234 88 12
-0.01365208 -1.170312 1.0401601 234 88 12
-0.027130678 -1.1673627 1.0419285 234 88 12
-0.037002984 -1.1586448 1.0421224 234 88 12
-0.041045163 -1.1408252 1.0398084 234 88 12
-0.048655502 -1.1286569 1.0390428 234 88 12
-0.057547092 -1.1184984 1.03883 234 88 12
-0.066936046 -1.1091095 1.03883 234 88 12
-0.077019647 -1.1007704 1.0391231 234 88 12
-0.020618293 -1.1818347 1.030174 234 88 12
-0.030059077 -1.1723939 1.030174 234 88 12
-0.041582648 -1.1662267 1.0310597 234 88 12
-0.051033437 -1.156776 1.0310597 234 88 12
-0.060484227 -1.1473252 1.0310597 234 88 12
-0.059569776 -1.1219617 1.0267142 234 88 12
-0.068853892 -1.1123809 1.0266651 234 88 12
-0.057855535 -1.1921916 1.0248228 234 88 12
-0.050360158 -1.1561027 1.0177283 234 88 12
-0.077672958 -1.1742922 1.025135 234 88 12
-0.089665726 -1.1685288 1.026149 234 88 12
-0.039766796 -1.1281193 1.1075749 234 88 12
-0.054541998 -1.1261063 1.1071978 234 88 12
-0.025928441 -1.1508553 1.0993679 234 88 12
-0.039434575 -1.1213049 1.0904226 234 88 12
-0.053793345 -1.1119885 1.0877751 234 88 12
-0.068587892 -1.1114743 1.0878682 234 88 12
-0.083436936 -1.1118178 1.0882287 234 88 12
-0.024555704 -1.1204849 1.0749205 234 88 12
-0.039105505 -1.1145545 1.0733477 234 88 12
-0.053812321 -1.1123248 1.0729122 234 88 12
-0.068559811 -1.111001 1.0727551 234 88 12
-0.08336547 -1.1106982 1.0729122 234 88 12
-0.098268636 -1.1118413 1.0735142 234 88 12
-0.010808931 -1.1465144 1.0675831 234 88 12
-0.024587573 -1.1210639 1.0601078 234 88 12
-0.039118472 -1.1147499 1.0584384 234 88 12
-0.053817015 -1.1123922 1.0579695 234 88 12
-0.068574294 -1.1112748 1.0578772 234 88 12
-0.083374709 -1.1109051 1.0580118 234 88 12
-0.098240688 -1.1114957 1.0584384 234 88 12
0.0036400489 -1.1589458 1.0559783 234 88 12
-0.010939022 -1.1494573 1.0533824 234 88 12
-0.025063869 -1.1314346 1.0482285 234 88 12
-0.039181795 -1.1159676 1.0438384 234 88 12
-0.053888801 -1.1137228 1.0434095 234 88 12
-0.068652533 -1.1126677 1.043337 234 88 12
-0.083440289 -1.1120381 1.0433921 234 88 12
-0.098313481 -1.1127071 1.0438366 234 88 12
-0.011707298 -1.1677659 1.0437059 234 88 12
-0.026511928 -1.1632138 1.0426036 234 88 12
-0.03968497 -1.1261166 1.031875 234 88 12
-0.05399463 -1.1156944 1.0290332 234 88 12
-0.068742536 -1.114267 1.0288515 234 88 12
-0.083549485 -1.1138881 1.0289801 234 88 12
-0.10280088 -1.1821488 1.0494274 234 88 12
-0.012279171 -1.1813439 1.0325115 234 88 12
-0.027167987 -1.1775428 1.0316435 234 88 12
-0.041334528 -1.1595421 1.0266308 234 88 12
-0.056280803 -1.1587194 1.0266308 234 88 12
-0.071588315 -1.1642375 1.0284822 234 88 12
-0.087178044 -1.1735891 1.0314541 234 88 12
-0.10283328 -1.1827376 1.0343679 234 88 12
-0.043057296 -1.194453 1.0215585 234 88 12
-0.072769076 -1.1849828 1.0193083 234 88 12
-0.087817378 -1.1841545 1.0193083 234 88 12
-0.049010191 -1.0997488 1.0855085 234 88 12
-0.065005437 -1.0996772 1.0801237 234 88 12
-0.076981261 -1.1080304 1.0798314 234 88 12
-0.088273339 -1.1178547 1.0804222 234 88 12
-0.088694215 -1.1515106 1.0952511 234 88 12
-0.048478797 -1.0987828 1.0687335 234 88 12
-0.063318193 -1.1011183 1.06484 234 88 12
-0.075288422 -1.1094609 1.0645473 234 88 12
-0.08690758 -1.1185532 1.0647017 234 88 12
-0.096970856 -1.1310562 1.0668763 234 88 12
-0.094351508 -1.171698 1.0856668 234 88 12
-0.022495959 -1.117403 1.0689389 234 88 12
-0.045779765 -1.1023656 1.0547073 234 88 12
-0.060755957 -1.1044158 1.0506778 234 88 12
-0.072621882 -1.1129789 1.0505184 234 88 12
-0.084328771 -1.1218804 1.0505592 234 88 12
-0.094845228 -1.1333869 1.0521302 234 88 12
-0.095091186 -1.1676568 1.0670302 234 88 12
-0.012312762 -1.1364828 1.0639443 234 88 12
-0.041534383 -1.1091874 1.0425889 234 88 12
-0.057499759 -1.1091825 1.0373815 234 88 12
-0.069796875 -1.116836 1.0366887 234 88 12
-0.081401683 -1.1259609 1.0368593 234 88 12
-0.089502446 -1.1427501 1.0414935 234 88 12
-0.091341212 -1.1735452 1.0542386 234 88 12
-0.0051962519 -1.1491909 1.0550617 234 88 12
-0.019129217 -1.1540157 1.0526313 234 88 12
-0.05175234 -1.1192172 1.027141 234 88 12
-0.06528081 -1.1243078 1.0249555 234 88 12
-0.072948083 -1.1419817 1.0300692 234 88 12
-0.07831531 -1.1648687 1.0381653 234 88 12
-0.089337461 -1.1755755 1.0392022 234 88 12
0.00090763922 -1.1597915 1.0448637 234 88 12
-0.012823485 -1.1651143 1.0427314 234 88 12
-0.029610604 -1.1638991 1.0368367 234 88 12
-0.060203709 -1.1672496 1.0284634 234 88 12
-0.074018389 -1.171924 1.0260283 234 88 12
-0.08586859 -1.1808399 1.0260283 234 88 12
-0.0077802753 -1.173564 1.0312364 234 88 12
-0.022031305 -1.1777637 1.0284841 234 88 12
-0.033987913 -1.1867597 1.0284841 234 88 12
-0.04359233 -1.2008309 1.0313724 234 88 12
-0.083890602 -1.1039163 1.0779265 234 88 12
-0.087172143 -1.1159862 1.0764875 234 88 12
-0.090186834 -1.1282285 1.0753777 234 88 12
-0.086748101 -1.1450478 1.0823034 234 88 12
-0.088875525 -1.1579467 1.0823034 234 88 12
-0.082616314 -1.1769234 1.09277 234 88 12
-0.075003952 -1.0918421 1.0664784 234 88 12
-0.080014847 -1.1027265 1.0629195 234 88 12
-0.082619421 -1.1152462 1.0623223 234 88 12
-0.084445611 -1.128306 1.062685 234 88 12
-0.083745629 -1.1431615 1.0661712 234 88 12
-0.08417251 -1.1572483 1.06827 234 88 12
-0.083624899 -1.1720625 1.0715801 234 88 12
-0.068526253 -1.0924536 1.054693 234 88 12
-0.072878972 -1.1037897 1.0519649 234 88 12
-0.076185539 -1.1158216 1.0505122 234 88 12
-0.077387258 -1.1293123 1.0516365 234 88 12
-0.07668063 -1.1441652 1.0551044 234 88 12
-0.076803736 -1.1584636 1.0575601 234 88 12
-0.089102209 -1.1640128 1.0450534 234 88 12
-0.09121681 -1.176834 1.0450534 234 88 12
-0.06060468 -1.0940484 1.044675 234 88 12
-0.065307289 -1.1051522 1.0415432 234 88 12
-0.067646153 -1.1178576 1.0412778 234 88 12
-0.069676571 -1.1307755 1.0413871 234 88 12
-0.067188613 -1.1468821 1.0469983 234 88 12
-0.067395195 -1.1611316 1.0493363 234 88 12
-0.082232028 -1.1648892 1.0338292 234 88 12
-0.084346168 -1.1777076 1.0338292 234 88 12
-0.084838793 -1.1917136 1.0358115 234 88 12
-0.025058366 -1.1143419 1.0678996 234 88 12
-0.055138275 -1.1082896 1.0342473 234 88 12
-0.057677381 -1.1208758 1.0337456 234 88 12
-0.057337131 -1.1354631 1.0367192 234 88 12
-0.057627667 -1.1496396 1.0389365 234 88 12
-0.058830645 -1.1631925 1.0400543 234 88 12
-0.070996158 -1.1688976 1.0279 234 88 12
-0.076515347 -1.1792779 1.0237774 234 88 12
-0.039311055 -1.1296661 1.0362182 234 88 12
-0.040564872 -1.1432141 1.0372725 234 88 12
-0.049322821 -1.1515076 1.0293282 234 88 12
-0.05145077 -1.1644098 1.0293282 234 88 12
-0.049589556 -1.1801646 1.0341222 234 88 12
-0.0057434868 -1.1488558 1.0565522 234 88 12
-0.014198505 -1.1575828 1.0490652 234 88 12
-0.025261827 -1.1644006 1.0384588 234 88 12
-0.027406154 -1.1774019 1.0384588 234 88 12
-0.029550482 -1.1904033 1.0384588 234 88 12
-0.00041431349 -1.1631827 1.0456684 234 88 12
-0.0077458504 -1.1726637 1.0395578 234 88 12
-0.017247554 -1.1805468 1.030869 234 88 12
-0.094089724 -1.1254821 1.0794957 234 88 12
-0.082105622 -1.1322103 1.0891443 234 88 12
-0.086156972 -1.142253 1.0632707 234 88 12
-0.07929495 -1.1499952 1.061655 234 88 12
-0.073800988 -1.1579863 1.0570709 234 88 12
-0.07907515 -1.1679156 1.0291606 234 88 12
-0.071565904 -1.1754249 1.0291606 234 88 12
-0.056415465 -1.1816396 1.0455648 234 88 12
-0.090113766 -1.1205411 1.0688518 234 88 12
-0.084786698 -1.128665 1.0637643 234 88 12
-0.078922793 -1.1366463 1.0599127 234 88 12
-0.07380449 -1.1447521 1.0544784 234 88 12
-0.068627596 -1.152813 1.0492326 234 88 12
-0.062695399 -1.160701 1.0456748 234 88 12
-0.055240832 -1.1682945 1.045422 234 88 12
-0.049734693 -1.1762228 1.0410161 234 88 12
-0.091051772 -1.107358 1.0642569 234 88 12
-0.086464711 -1.1156807 1.0575235 234 88 12
-0.079921499 -1.123538 1.0551549 234 88 12
-0.073730424 -1.131454 1.0520458 234 88 12
-0.066120908 -1.1390635 1.0520458 234 88 12
-0.060019482 -1.1469679 1.0487961 234 88 12
-0.054295283 -1.1549233 1.0447742 234 88 12
-0.046704747 -1.162514 1.0447742 234 88 12
-0.034844533 -1.1693543 1.0538223 234 88 12
-0.024288017 -1.1764705 1.0600233 234 88 12
-0.023153411 -1.1851586 1.0464084 234 88 12
-0.08637511 -1.1022692 1.0551733 234 88 12
-0.081262581 -1.1104785 1.0496418 234 88 12
-0.073936448 -1.1181676 1.0489936 234 88 12
-0.067105956 -1.1259577 1.0472796 234 88 12
-0.059745979 -1.1336282 1.0467249 234 88 12
-0.051248163 -1.1410693 1.0486124 234 88 12
-0.043759104 -1.1487159 1.0483311 234 88 12
-0.047344431 -1.1584129 1.0246069 234 88 12
-0.029574303 -1.1641454 1.0461079 234 88 12
-0.027771272 -1.1727614 1.0339388 234 88 12
-0.020188555 -1.1803442 1.0339388 234 88 12
-0.080547817 -1.0969118 1.0486228 234 88 12
-0.074838571 -1.1049964 1.0444185 234 88 12
-0.06782978 -1.1127654 1.0430729 234 88 12
-0.060461648 -1.1204485 1.0425155 234 88 12
-0.052341074 -1.1279712 1.0435737 234 88 12
-0.043582458 -1.1353718 1.0459774 234 88 12
-0.034953739 -1.142813 1.0480794 234 88 12
-0.021143261 -1.1492909 1.0610579 234 88 12
-0.013468787 -1.1569654 1.0610579 234 88 12
-0.013874857 -1.1660573 1.0442464 234 88 12
-0.0060638222 -1.1736572 1.0446203 234 88 12
-0.067803122 -1.0993651 1.0404814 234 88 12
-0.060549472 -1.1070936 1.0396485 234 88 12
-0.052859988 -1.1147215 1.0397564 234 88 12
-0.044704512 -1.1222517 1.0408533 234 88 12
-0.022946529 -1.1270045 1.0706819 234 88 12
-0.013164404 -1.1435293 1.0588547 234 88 12
-0.0054748468 -1.1512188 1.0588547 234 88 12
-0.082132809 -1.1837195 1.0324084 234 88 12
-0.07656651 -1.1763213 1.0324084 234 88 12
-0.080564834 -1.1671692 1.0407193 234 88 12
-0.081265256 -1.1585598 1.0462003 234 88 12
-0.047628604 -1.1564676 1.0217183 234 88 12
-0.070522755 -1.1435618 1.0466139 234 88 12
-0.065717869 -1.1359473 1.0473197 234 88 12
-0.060121451 -1.1284871 1.0473323 234 88 12
-0.05473325 -1.1209837 1.0475287 234 88 12
-0.050762713 -1.1131788 1.0489808 234 88 12
-0.051602893 -1.1043245 1.0547092 234 88 12
-0.089539476 -1.1811121 1.0280157 234 88 12
-0.083959922 -1.1736963 1.0280157 234 88 12
-0.090143353 -1.1641164 1.0381777 234 88 12
-0.094340593 -1.1548175 1.0466722 234 88 12
-0.081114195 -1.1402202 1.0449697 234 88 12
-0.071163826 -1.1336001 1.0411986 234 88 12
-0.064502999 -1.1263441 1.0402868 234 88 12
-0.059329044 -1.1187875 1.0406749 234 88 12
-0.056254812 -1.1107825 1.0429126 234 88 12
-0.057163499 -1.1018965 1.0486758 234 88 12
-0.075265594 -1.1228944 1.0387725 234 88 12
-0.069222257 -1.1154846 1.0384192 234 88 12
-0.065484412 -1.1075883 1.0400809 234 88 12
-0.063999936 -1.0991884 1.0437276 234 88 12
-0.039241679 -1.1498182 1.1042993 234 88 12
-0.040187255 -1.1321384 1.0995995 234 88 12
-0.046533406 -1.1198809 1.0995995 234 88 12
-0.054629553 -1.1093386 1.10111 234 88 12
-0.0071730916 -1.1526004 1.0708969 234 88 12
-0.020743981 -1.147795 1.0771925 234 88 12
-0.021900689 -1.1304191 1.0727394 234 88 12
-0.027109127 -1.1171579 1.0717978 234 88 12
-0.048735589 -1.1201221 1.0849546 234 88 12
-0.055767413 -1.1085511 1.0855461 234 88 12
-0.06340988 -1.0975627 1.0866557 234 88 12
-0.0049617263 -1.1668768 1.0579978 234 88 12
-0.0081229871 -1.1515226 1.0552995 234 88 12
-0.023834286 -1.1488986 1.0633879 234 88 12
-0.031158324 -1.1377168 1.0642527 234 88 12
-0.032613091 -1.1206828 1.0601027 234 88 12
-0.052366398 -1.1217754 1.0715531 234 88 12
-0.059430063 -1.110239 1.0721679 234 88 12
-0.066333361 -1.0985355 1.0726435 234 88 12
-0.074895233 -1.0884202 1.0745171 234 88 12
-0.013111707 -1.1731608 1.0485779 234 88 12
-0.019419286 -1.1609778 1.0485779 234 88 12
-0.035755366 -1.1589183 1.0571141 234 88 12
-0.044263799 -1.1488589 1.0589591 234 88 12
-0.050138012 -1.136148 1.0585641 234 88 12
-0.055818252 -1.1232532 1.0580074 234 88 12
-0.062918797 -1.1117575 1.0586495 234 88 12
-0.070027344 -1.1002575 1.0592951 234 88 12
-0.077761725 -1.0893477 1.0604612 234 88 12
-0.02107862 -1.1792499 1.0389446 234 88 12
-0.028630605 -1.1683007 1.0399889 234 88 12
-0.042668715 -1.1638734 1.0465025 234 88 12
-0.049011331 -1.1516229 1.0465025 234 88 12
-0.054252941 -1.1382793 1.0455781 234 88 12
-0.059930179 -1.1253822 1.0450236 234 88 12
-0.067032062 -1.1138871 1.0456614 234 88 12
-0.07429672 -1.1025379 1.0464317 234 88 12
-0.082701094 -1.0922698 1.0481441 234 88 12
-0.026410403 -1.1826341 1.0270383 234 88 12
-0.043133393 -1.1809893 1.0357685 234 88 12
-0.043904461 -1.1631025 1.0310987 234 88 12
-0.053875864 -1.1545026 1.0341345 234 88 12
-0.060101118 -1.1421297 1.0340351 234 88 12
-0.065938421 -1.1293769 1.0336142 234 88 12
-0.072336279 -1.1171792 1.0336596 234 88 12
-0.079853959 -1.1060648 1.0346296 234 88 12
-0.059366494 -1.1766603 1.0275434 234 88 12
-0.063620023 -1.1622554 1.0257951 234 88 12
-0.082542785 -1.1624209 1.0361658 234 88 12
-0.093134277 -1.1541979 1.0396217 234 88 12
-0.07852304 -1.1939151 1.0268692 234 88 12
-0.082549006 -1.1791656 1.0249155 234 88 12
-0.090670779 -1.168509 1.0263249 234 88 12
-0.048677608 -1.1203005 1.1101104 234 88 12
-0.027828705 -1.1511725 1.1026133 234 88 12
-0.034203053 -1.1232755 1.0903813 234 88 12
-0.046447631 -1.1121495 1.0880009 234 88 12
-0.060134657 -1.1050632 1.0880009 234 88 12
-0.074135527 -1.0988219 1.0885019 234 88 12
-0.012566055 -1.1518044 1.0815113 234 88 12
-0.019066408 -1.1241473 1.0695357 234 88 12
-0.032726288 -1.1170751 1.0695357 234 88 12
-0.048358414 -1.1154503 1.0727246 234 88 12
-0.061965398 -1.1081626 1.072605 234 88 12
-0.075774528 -1.1014243 1.0728077 234 88 12
-0.090071328 -1.0959724 1.0737691 234 88 12
-0.00011056138 -1.1603222 1.0650862 234 88 12
-0.011527205 -1.1465687 1.0612535 234 88 12
-0.027356595 -1.1455024 1.0647376 234 88 12
-0.037497204 -1.1283636 1.0589278 234 88 12
-0.050640117 -1.1197762 1.0580565 234 88 12
-0.064315841 -1.1126797 1.0580486 234 88 12
-0.078001559 -1.1056103 1.0580565 234 88 12
-0.092225745 -1.09997 1.058899 234 88 12
-0.0035927761 -1.1681198 1.0523418 234 88 12
-0.016227648 -1.1578257 1.0505241 234 88 12
-0.03224032 -1.157186 1.0542301 234 88 12
-0.04042438 -1.13449 1.0452887 234 88 12
-0.053074379 -1.1245235 1.0436335 234 88 12
-0.066700041 -1.1172887 1.0435461 234 88 12
-0.080437042 -1.1103569 1.0436335 234 88 12
-0.094649911 -1.104684 1.0444499 234 88 12
-0.0089859823 -1.1814716 1.0427072 234 88 12
-0.02110805 -1.1695904 1.0400161 234 88 12
-0.035300795 -1.1636986 1.0407152 234 88 12
-0.044155683 -1.1428611 1.0329118 234 88 12
-0.056130681 -1.1309857 1.0301869 234 88 12
-0.069294818 -1.1224707 1.0293709 234 88 12
-0.083311118 -1.1162816 1.0298835 234 88 12
-0.025608025 -1.1802549 1.0288186 234 88 12
-0.039389983 -1.1731195 1.0288186 234 88 12
-0.050470345 -1.1584408 1.0245634 234 88 12
-0.065922499 -1.1560065 1.027212 234 88 12
-0.085152969 -1.1637274 1.0356239 234 88 12
-0.10186496 -1.1643046 1.0400159 234 88 12
-0.062303618 -1.189407 1.0247084 234 88 12
-0.075629227 -1.1807694 1.0238886 234 88 12
-0.090414293 -1.1761371 1.025314 234 88 12
-0.039640915 -1.1167355 1.1055311 234 88 12
-0.057294816 -1.0962857 1.0895052 234 88 12
-0.073226444 -1.0978222 1.0891055 234 88 12
-0.021869704 -1.1313056 1.0976897 234 88 12
-0.040395122 -1.1016139 1.0752621 234 88 12
-0.056514967 -1.1005988 1.0730675 234 88 12
-0.072442822 -1.1019493 1.0725416 234 88 12
-0.088271983 -1.1047275 1.0730209 234 88 12
-0.10372698 -1.1138841 1.0779859 234 88 12
-0.022648724 -1.1171992 1.0682021 234 88 12
-0.039554421 -1.1069231 1.0595425 234 88 12
-0.055572443 -1.1071321 1.0582222 234 88 12
-0.071459383 -1.1089855 1.0580523 234 88 12
-0.087318636 -1.1112336 1.058158 234 88 12
-0.10304702 -1.1156931 1.0598067 234 88 12
-0.0038682206 -1.1435102 1.0684911 234 88 12
-0.021462819 -1.1267977 1.0554187 234 88 12
-0.038491353 -1.1150744 1.0458237 234 88 12
-0.054530162 -1.1150215 1.0443323 234 88 12
-0.070417173 -1.1168742 1.0441633 234 88 12
-0.086276382 -1.1191226 1.0442685 234 88 12
-0.10198273 -1.1239431 1.0461538 234 88 12
-0.0028154552 -1.1514789 1.0544615 234 88 12
-0.019377306 -1.1472026 1.0500584 234 88 12
-0.036919679 -1.1296968 1.0365556 234 88 12
-0.053378273 -1.1243926 1.0314616 234 88 12
-0.069315434 -1.1256214 1.0308645 234 88 12
-0.085137509 -1.128504 1.0314041 234 88 12
-0.099258721 -1.1597873 1.051442 234 88 12
-0.00099898246 -1.1681316 1.0463674 234 88 12
-0.017294018 -1.1675476 1.0445182 234 88 12
-0.0344836 -1.1552808 1.034696 234 88 12
-0.051400308 -1.1449066 1.0261768 234 88 12
-0.06727574 -1.1478616 1.0267562 234 88 12
-0.082343794 -1.1633774 1.0358943 234 88 12
-0.097867355 -1.1733825 1.0412685 234 88 12
-0.016013086 -1.178243 1.032303 234 88 12
-0.032154884 -1.1794485 1.0316818 234 88 12
-0.04958567 -1.1631758 1.0192332 234 88 12
-0.064731434 -1.1772896 1.0273507 234 88 12
-0.080767602 -1.1794082 1.0273507 234 88 12
-0.096803769 -1.1815268 1.0273507 234 88 12
-0.075065635 -1.0889868 1.0830615 234 88 12
-0.086676404 -1.0982902 1.0812675 234 88 12
-0.096945643 -1.1102427 1.0828012 234 88 12
-0.056556623 -1.0858408 1.0721447 234 88 12
-0.069592014 -1.0923926 1.0669085 234 88 12
-0.081242591 -1.1015626 1.0649847 234 88 12
-0.091973729 -1.1125277 1.065307 234 88 12
-0.10067246 -1.1276119 1.0707207 234 88 12
-0.050370034 -1.0906832 1.0578033 234 88 12
-0.062618844 -1.0987326 1.0544827 234 88 12
-0.073565625 -1.1092699 1.0542742 234 88 12
-0.084402755 -1.1200209 1.0543313 234 88 12
-0.094340362 -1.1325874 1.0566182 234 88 12
-0.096450917 -1.1612004 1.0785129 234 88 12
-0.042069957 -1.0995768 1.0485435 234 88 12
-0.054722283 -1.1068671 1.044301 234 88 12
-0.065803535 -1.1171448 1.0437731 234 88 12
-0.076640524 -1.127896 1.0438299 234 88 12
-0.086374998 -1.1408651 1.046593 234 88 12
-0.092683747 -1.1608733 1.0578853 234 88 12
-0.03154942 -1.1126907 1.0444725 234 88 12
-0.045899548 -1.1167855 1.0363059 234 88 12
-0.057440724 -1.1261929 1.0347064 234 88 12
-0.067821287 -1.1378622 1.0358745 234 88 12
-0.075658344 -1.154655 1.0432433 234 88 12
-0.088419527 -1.161608 1.0386721 234 88 12
-0.097216628 -1.1766176 1.0438229 234 88 12
-0.011320215 -1.1442004 1.0628546 234 88 12
-0.034024477 -1.1325597 1.0354208 234 88 12
-0.045744929 -1.1417239 1.0334948 234 88 12
-0.056291785 -1.1531619 1.0343353 234 88 12
-0.067630529 -1.1630356 1.0332849 234 88 12
-0.078909807 -1.1730068 1.0323604 234 88 12
-0.08980488 -1.1837457 1.0323604 234 88 12
-0.0029246977 -1.1531832 1.0534335 234 88 12
-0.015403663 -1.1612191 1.0500212 234 88 12
-0.031381026 -1.1623905 1.0383558 234 88 12
-0.048272315 -1.1615145 1.0243311 234 88 12
-0.054642562 -1.1812946 1.0351354 234 88 12
-0.070319645 -1.182528 1.0237566 234 88 12
-0.080817714 -1.1940999 1.0247363 234 88 12
-0.0070561566 -1.1701252 1.040509 234 88 12
-0.020862626 -1.175539 1.034001 234 88 12
-0.031840429 -1.1863595 1.034001 234 88 12
-0.042613726 -1.1975862 1.0344837 234 88 12
-0.096866518 -1.1150196 1.0694551 234 88 12
-0.095300034 -1.1284488 1.0691961 234 88 12
-0.093149059 -1.1423737 1.0706939 234 88 12
-0.091495886 -1.1558801 1.0706939 234 88 12
-0.089539364 -1.169651 1.0716027 234 88 12
-0.086876549 -1.1840514 1.0746222 234 88 12
-0.087488614 -1.0992948 1.0603651 234 88 12
-0.086739153 -1.1120455 1.0576805 234 88 12
-0.085228883 -1.1254098 1.0572652 234 88 12
-0.083331689 -1.1390967 1.0579996 234 88 12
-0.081032775 -1.1531309 1.0599228 234 88 12
-0.08710748 -1.1599617 1.0370529 234 88 12
-0.086346261 -1.1725955 1.0344546 234 88 12
-0.08470729 -1.1859859 1.0344546 234 88 12
-0.074936867 -1.0861154 1.0606959 234 88 12
-0.076367766 -1.0971615 1.0516078 234 88 12
-0.075155824 -1.1102874 1.0503191 234 88 12
-0.07350634 -1.1237637 1.0503191 234 88 12
-0.071400553 -1.1376194 1.0516576 234 88 12
-0.069077134 -1.1516675 1.0536298 234 88 12
-0.072576173 -1.1607691 1.0385652 234 88 12
-0.074004412 -1.1715512 1.0295913 234 88 12
-0.072364785 -1.184947 1.0295913 234 88 12
-0.062315054 -1.0851505 1.0562609 234 88 12
-0.063807711 -1.0961829 1.047098 234 88 12
-0.062837951 -1.109125 1.0451181 234 88 12
-0.061187953 -1.1226054 1.0451181 234 88 12
-0.058239691 -1.137153 1.0488813 234 88 12
-0.056587901 -1.1506481 1.0488813 234 88 12
-0.060672395 -1.1593121 1.0322994 234 88 12
-0.055962082 -1.1753561 1.0411513 234 88 12
-0.052376602 -1.1904918 1.0467364 234 88 12
-0.04832036 -1.0974833 1.0509671 234 88 12
-0.048622157 -1.1094598 1.0453436 234 88 12
-0.046867866 -1.1230468 1.0456339 234 88 12
-0.044778321 -1.1369083 1.0468838 234 88 12
-0.042850897 -1.1506453 1.0476664 234 88 12
-0.048768613 -1.1578552 1.0260336 234 88 12
-0.041957311 -1.1756401 1.0407767 234 88 12
-0.038354464 -1.1907924 1.0463382 234 88 12
-0.032707974 -1.1110843 1.0502398 234 88 12
-0.03374844 -1.1224923 1.0425873 234 88 12
-0.030552536 -1.1372503 1.0469511 234 88 12
-0.028822904 -1.1508461 1.0471567 234 88 12
-0.027421083 -1.1641736 1.0464362 234 88 12
-0.028956015 -1.1750489 1.0374357 234 88 12
-0.027303679 -1.1885484 1.0374357 234 88 12
-0.011425401 -1.1414458 1.0605904 234 88 12
-0.010245799 -1.1546689 1.0592295 234 88 12
-0.013162822 -1.1645471 1.0464367 234 88 12
-0.016381344 -1.1740868 1.0328375 234 88 12
0.0023080884 -1.1535835 1.0542387 234 88 12
-0.099355727 -1.1579357 1.0858293 234 88 12
-0.088346481 -1.1607215 1.0371315 234 88 12
-0.076342016 -1.1618702 1.0479861 234 88 12
-0.064580992 -1.1633542 1.0464842 234 88 12
-0.052992996 -1.1649822 1.039384 234 88 12
-0.040950816 -1.166209 1.0477527 234 88 12
-0.029013379 -1.167556 1.0516158 234 88 12
-0.017349355 -1.1690949 1.0478511 234 88 12
-0.0053894874 -1.1704476 1.0516158 234 88 12
-0.086565368 -1.1495024 1.0578475 234 88 12
-0.074862003 -1.1511488 1.0512959 234 88 12
-0.063093983 -1.1526662 1.0489346 234 88 12
-0.052015454 -1.1548446 1.0237446 234 88 12
-0.039420009 -1.1555333 1.0498704 234 88 12
-0.027570235 -1.1569613 1.0505587 234 88 12
-0.015393253 -1.1581643 1.0593661 234 88 12
-0.0035361124 -1.1596155 1.0593661 234 88 12
-0.085180528 -1.1388297 1.0573543 234 88 12
-0.073411644 -1.1404256 1.0530112 234 88 12
-0.061586354 -1.1419122 1.0519155 234 88 12
-0.049735762 -1.1433626 1.0519155 234 88 12
-0.03788517 -1.1448132 1.0519155 234 88 12
-0.025722092 -1.1459978 1.0604203 234 88 12
-0.013917215 -1.1475092 1.0585589 234 88 12
-0.0020439464 -1.1489625 1.0585589 234 88 12
-0.095585331 -1.126466 1.0624259 234 88 12
-0.083858751 -1.1282479 1.0535181 234 88 12
-0.072034299 -1.1297789 1.0513678 234 88 12
-0.060202833 -1.1312792 1.0500245 234 88 12
-0.048293911 -1.132678 1.0515375 234 88 12
-0.036369905 -1.1340733 1.0531908 234 88 12
-0.024071291 -1.135134 1.0646175 234 88 12
-0.094328776 -1.115996 1.0548198 234 88 12
-0.08253298 -1.1176504 1.0498097 234 88 12
-0.070684381 -1.1191581 1.0484442 234 88 12
-0.058794454 -1.1205928 1.0489328 234 88 12
-0.046879373 -1.1220009 1.0501306 234 88 12
-0.034922682 -1.1233729 1.0523059 234 88 12
-0.022360869 -1.1241591 1.0701772 234 88 12
-0.093009681 -1.1053804 1.0508897 234 88 12
-0.081176467 -1.1069819 1.0475023 234 88 12
-0.069330737 -1.1085185 1.0455854 234 88 12
-0.057444967 -1.1099732 1.0455854 234 88 12
-0.045533355 -1.1113937 1.0464144 234 88 12
-0.033015363 -1.1121039 1.0646018 234 88 12
-0.020819526 -1.1133057 1.0710388 234 88 12
-0.079828329 -1.0963168 1.0446783 234 88 12
-0.067964926 -1.0978438 1.0431293 234 88 12
-0.056028366 -1.0992358 1.044556 234 88 12
-0.04388158 -1.1003468 1.0523257 234 88 12
-0.033447966 -1.1864566 1.0601413 234 88 12
-0.018666664 -1.1791915 1.044737 234 88 12
-0.013316737 -1.1709788 1.0502863 234 88 12
-0.010258153 -1.1624664 1.0610642 234 88 12
-0.004054423 -1.154278 1.0648389 234 88 12
-0.051836032 -1.1882858 1.0627819 234 88 12
-0.03119717 -1.181563 1.0347412 234 88 12
-0.02337661 -1.1736288 1.0347412 234 88 12
-0.021980135 -1.164964 1.0490376 234 88 12
-0.016046837 -1.1567607 1.0533451 234 88 12
-0.0098502934 -1.1485652 1.0571101 234 88 12
-0.054720242 -1.1828494 1.0486884 234 88 12
-0.046843447 -1.1748581 1.0486884 234 88 12
-0.041856103 -1.1665462 1.0550387 234 88 12
-0.034257103 -1.1585037 1.0556892 234 88 12
-0.03033023 -1.150002 1.0645111 234 88 12
-0.023851795 -1.141781 1.0677301 234 88 12
-0.072024055 -1.1847818 1.0487578 234 88 12
-0.058811232 -1.1773114 1.0372844 234 88 12
-0.055556111 -1.1688309 1.0472955 234 88 12
-0.04796005 -1.1607887 1.0479444 234 88 12
-0.040487558 -1.1527277 1.048872 234 88 12
-0.036609691 -1.1442026 1.0577476 234 88 12
-0.032737166 -1.1356236 1.0667379 234 88 12
-0.027363591 -1.1272019 1.0724798 234 88 12
-0.019404603 -1.1191273 1.0724798 234 88 12
-0.084274642 -1.187203 1.0379237 234 88 12
-0.075460114 -1.1792911 1.0359505 234 88 12
-0.06931515 -1.1711092 1.0396788 234 88 12
-0.059928607 -1.1632677 1.03646 234 88 12
-0.04656408 -1.1559157 1.0245792 234 88 12
-0.050357006 -1.1464951 1.0499777 234 88 12
-0.044514108 -1.1381867 1.0545343 234 88 12
-0.039104536 -1.1297913 1.0600995 234 88 12
-0.0332186 -1.1214308 1.0646722 234 88 12
-0.025259612 -1.1133561 1.0646722 234 88 12
-0.090909377 -1.1814022 1.0319353 234 88 12
-0.08218915 -1.1734788 1.0301846 234 88 12
-0.078162126 -1.1650536 1.0384097 234 88 12
-0.071415551 -1.1568936 1.0409027 234 88 12
-0.066409856 -1.1485066 1.0471733 234 88 12
-0.059475861 -1.1403295 1.0493383 234 88 12
-0.052077614 -1.1322019 1.0505168 234 88 12
-0.046014823 -1.1238784 1.0546348 234 88 12
-0.040197697 -1.1154932 1.0593415 234 88 12
-0.047062844 -1.1051155 1.092211 234 88 12
-0.094972953 -1.1670151 1.0371311 234 88 12
-0.092300996 -1.1583798 1.0482497 234 88 12
-0.086368434 -1.1500663 1.0525562 234 88 12
-0.076336458 -1.142241 1.048141 234 88 12
-0.068058476 -1.1342112 1.0474496 234 88 12
-0.060905688 -1.1260298 1.0491848 234 88 12
-0.053514544 -1.1178724 1.0504211 234 88 12
-0.046521198 -1.1096472 1.0525423 234 88 12
-0.043506 -1.1007787 1.0634449 234 88 12
-0.085554756 -1.1360377 1.0474867 234 88 12
-0.076125339 -1.1281432 1.0443795 234 88 12
-0.067950919 -1.1200895 1.0439342 234 88 12
-0.060220204 -1.1119728 1.0444429 234 88 12
-0.053586829 -1.1036825 1.0473427 234 88 12
-0.050356135 -1.0948236 1.0577149 234 88 12
-0.084644914 -1.1219969 1.0422069 234 88 12
-0.075436637 -1.114077 1.0395895 234 88 12
-0.068155795 -1.1058803 1.0410802 234 88 12
-0.062240489 -1.0974578 1.045536 234 88 12
-0.084822416 -1.1077703 1.039227 234 88 12
-0.076838829 -1.0996573 1.0392513 234 88 12
-0.0060911514 -1.1608205 1.0647877 234 88 12
-0.0044167275 -1.1489497 1.0646732 234 88 12
-0.033599697 -1.1479318 1.096342 234 88 12
-0.012453092 -1.1714797 1.0533277 234 88 12
-0.011972566 -1.1600435 1.054433 234 88 12
-0.010297864 -1.1481727 1.0543188 234 88 12
-0.024336843 -1.1418103 1.0702804 234 88 12
-0.025411913 -1.1308169 1.0729916 234 88 12
-0.023836846 -1.1188948 1.0729916 234 88 12
-0.046517488 -1.1151246 1.097856 234 88 12
-0.021324122 -1.1830554 1.0444268 234 88 12
-0.018331811 -1.1707031 1.0429776 234 88 12
-0.021972781 -1.1607443 1.0482578 234 88 12
-0.031830218 -1.1529369 1.0598575 234 88 12
-0.036367867 -1.1431625 1.066067 234 88 12
-0.037857089 -1.1322795 1.0691851 234 88 12
-0.029763522 -1.1181118 1.0625571 234 88 12
-0.043098982 -1.1111834 1.0777382 234 88 12
-0.027206391 -1.1822783 1.0340705 234 88 12
-0.025643123 -1.1704454 1.0340705 234 88 12
-0.04269781 -1.1652702 1.0528356 234 88 12
-0.041424114 -1.1534511 1.0531399 234 88 12
-0.043388352 -1.1427561 1.0567126 234 88 12
-0.047355294 -1.1327149 1.0623125 234 88 12
-0.048210498 -1.1215674 1.0647752 234 88 12
-0.048596434 -1.1102399 1.0667666 234 88 12
-0.051139072 -1.0996029 1.070943 234 88 12
-0.055874005 -1.1898371 1.0464935 234 88 12
-0.051882949 -1.1770197 1.0440798 234 88 12
-0.048929028 -1.1645949 1.042701 234 88 12
-0.050904389 -1.1539165 1.0462582 234 88 12
-0.052970875 -1.1432358 1.0499114 234 88 12
-0.054102518 -1.1322007 1.0526317 234 88 12
-0.054635093 -1.1209377 1.0547544 234 88 12
-0.054674946 -1.1094906 1.0563849 234 88 12
-0.055820592 -1.0983906 1.059129 234 88 12
-0.060662396 -1.0884583 1.0655938 234 88 12
-0.073518589 -1.1933208 1.0476615 234 88 12
-0.05994058 -1.1770008 1.0357463 234 88 12
-0.048350085 -1.1615001 1.0257915 234 88 12
-0.05959776 -1.1540976 1.0385451 234 88 12
-0.062169928 -1.1435744 1.0426787 234 88 12
-0.061928362 -1.1320525 1.0440147 234 88 12
-0.061330359 -1.120398 1.044997 234 88 12
-0.061453141 -1.108973 1.0466996 234 88 12
-0.06263648 -1.0978782 1.0494632 234 88 12
-0.066857092 -1.0877348 1.0552641 234 88 12
-0.082284018 -1.1935492 1.0399146 234 88 12
-0.07581567 -1.1797807 1.0350983 234 88 12
-0.07423114 -1.167787 1.0350983 234 88 12
-0.073268048 -1.1560104 1.0357124 234 88 12
-0.076792315 -1.1457738 1.0407642 234 88 12
-0.071075864 -1.132349 1.0366797 234 88 12
-0.069543436 -1.1203651 1.0367323 234 88 12
-0.069381997 -1.1088337 1.0381433 234 88 12
-0.071497746 -1.09803 1.0418135 234 88 12
-0.084502392 -1.1799669 1.0272714 234 88 12
-0.085082851 -1.1687242 1.0293963 234 88 12
-0.090070643 -1.158995 1.0358492 234 88 12
-0.083056942 -1.1220969 1.033649 234 88 12
-0.081443682 -1.1100501 1.0336267 234 88 12
-0.018437505 -1.1207515 1.0747219 234 88 12
-0.029351505 -1.1098375 1.0747219 234 88 12
-0.044219717 -1.1057554 1.0826937 234 88 12
-0.05520599 -1.0948845 1.082779 234 88 12
-0.0035720023 -1.1491662 1.0624551 234 88 12
-0.016290631 -1.1414862 1.0661508 234 88 12
-0.025865087 -1.1281791 1.063413 234 88 12
-0.036779087 -1.1172651 1.063413 234 88 12
-0.050191607 -1.1106586 1.0684052 234 88 12
-0.061124258 -1.0997261 1.0684052 234 88 12
-0.072736099 -1.0899371 1.0697422 234 88 12
-0.0024167639 -1.1717548 1.0559418 234 88 12
-0.011117974 -1.1568093 1.0513965 234 88 12
-0.024566256 -1.1504198 1.0565346 234 88 12
-0.036756489 -1.1417079 1.0590667 234 88 12
-0.04670902 -1.1290487 1.0570964 234 88 12
-0.057076719 -1.1171439 1.0559775 234 88 12
-0.068005249 -1.1062154 1.0559775 234 88 12
-0.079497181 -1.0962337 1.0570768 234 88 12
-0.09276928 -1.0891871 1.0616086 234 88 12
-0.0098541426 -1.1791923 1.044618 234 88 12
-0.020782536 -1.1682639 1.044618 234 88 12
-0.033072043 -1.1597561 1.0473499 234 88 12
-0.044496059 -1.1496704 1.0483167 234 88 12
-0.054387793 -1.1369032 1.0462395 234 88 12
-0.06451419 -1.1245813 1.0446534 234 88 12
-0.075820245 -1.1142935 1.0453889 234 88 12
-0.086947516 -1.1036909 1.045768 234 88 12
-0.10223135 -1.0999717 1.0541224 234 88 12
-0.017792979 -1.1875407 1.0343068 234 88 12
-0.028667381 -1.1765046 1.0341909 234 88 12
-0.039148308 -1.1647729 1.0332941 234 88 12
-0.048851669 -1.1516961 1.0308756 234 88 12
-0.062804252 -1.1460345 1.0368197 234 88 12
-0.073011369 -1.1338342 1.0353907 234 88 12
-0.083505444 -1.1221491 1.0345368 234 88 12
-0.09522365 -1.1125302 1.0360419 234 88 12
-0.040075947 -1.1910539 1.0307459 234 88 12
-0.053363726 -1.1842104 1.035331 234 88 12
-0.059419353 -1.1646159 1.0256979 234 88 12
-0.075317033 -1.1622438 1.0353216 234 88 12
-0.089213558 -1.1562526 1.0409462 234 88 12
-0.074258707 -1.1849707 1.0286938 234 88 12
-0.085996091 -1.1752512 1.0301186 234 88 12
-0.097601406 -1.165277 1.0312703 234 88 12
-0.041076344 -1.1032711 1.0939643 234 88 12
-0.057279054 -1.0881152 1.0731612 234 88 12
-0.073334679 -1.0875238 1.07147 234 88 12
-0.089416713 -1.0912843 1.0754852 234 88 12
-0.024435457 -1.1090783 1.07599 234 88 12
-0.040641662 -1.0998751 1.063096 234 88 12
-0.056700438 -1.0988519 1.0608559 234 88 12
-0.072742432 -1.0992426 1.0604566 234 88 12
-0.088786431 -1.1002469 1.0608559 234 88 12
-0.10490865 -1.1059858 1.0674121 234 88 12
-0.023911025 -1.1184825 1.0618989 234 88 12
-0.040061407 -1.1126963 1.0535208 234 88 12
-0.056115489 -1.1119637 1.0516737 234 88 12
-0.072155938 -1.1125729 1.0515597 234 88 12
-0.088197477 -1.1134189 1.0517516 234 88 12
-0.10426973 -1.1161389 1.0543615 234 88 12
-0.0070333946 -1.1404546 1.0649042 234 88 12
-0.023316381 -1.1324372 1.0537251 234 88 12
-0.039469123 -1.1268049 1.0456094 234 88 12
-0.055528261 -1.1257988 1.0434257 234 88 12
-0.071570173 -1.1261398 1.0429689 234 88 12
-0.087614082 -1.1271939 1.0434257 234 88 12
-0.1037416 -1.1334935 1.0505984 234 88 12
-0.006443514 -1.154022 1.0561422 234 88 12
-0.022634013 -1.1519239 1.0525801 234 88 12
-0.038843267 -1.1443517 1.0420579 234 88 12
-0.054934561 -1.1414051 1.0374225 234 88 12
-0.070988216 -1.1412089 1.0362858 234 88 12
-0.087067887 -1.1452725 1.040563 234 88 12
-0.10345586 -1.167382 1.0677643 234 88 12
-0.0058370945 -1.1683382 1.0483259 234 88 12
-0.022028545 -1.1664915 1.0451084 234 88 12
-0.038292043 -1.1541985 1.0287095 234 88 12
-0.054347977 -1.1548966 1.0287095 234 88 12
-0.070420682 -1.1628194 1.0378221 234 88 12
-0.086520649 -1.1635194 1.0378221 234 88 12
-0.10275534 -1.1735083 1.0495322 234 88 12
-0.0052333861 -1.1825248 1.0403327 234 88 12
-0.021458652 -1.1788342 1.0348301 234 88 12
-0.037586458 -1.1795354 1.0348301 234 88 12
-0.053723205 -1.1779882 1.0320151 234 88 12
-0.069836758 -1.1783943 1.0316466 234 88 12
-0.085949138 -1.1790948 1.0316466 234 88 12
-0.0369615 -1.1965865 1.0304263 234 88 12
-0.069261745 -1.1992794 1.0320268 234 88 12
-0.085369945 -1.1938324 1.0243913 234 88 12
-0.050491404 -1.0891716 1.0568552 234 88 12
-0.064863488 -1.0882652 1.0537033 234 88 12
-0.079279043 -1.0882851 1.0537724 234 88 12
-0.036065549 -1.1036057 1.0568826 234 88 12
-0.050428197 -1.1022162 1.0521147 234 88 12
-0.06482102 -1.1019573 1.0512261 234 88 12
-0.079225689 -1.1019573 1.0512261 234 88 12
-0.093655497 -1.1022532 1.0522413 234 88 12
-0.021706346 -1.1214945 1.0686107 234 88 12
-0.03604389 -1.1173606 1.0546083 234 88 12
-0.050424479 -1.1165421 1.051836 234 88 12
-0.064820364 -1.1163507 1.0511878 234 88 12
-0.079224885 -1.1163507 1.0511878 234 88 12
-0.093639836 -1.116475 1.0516088 234 88 12
-0.021674858 -1.1343175 1.0631001 234 88 12
-0.03604389 -1.1317781 1.0546083 234 88 12
-0.050444271 -1.131393 1.0533204 234 88 12
-0.06482435 -1.1308247 1.0514202 234 88 12
-0.079229757 -1.1308247 1.0514202 234 88 12
-0.093685597 -1.1314337 1.0534568 234 88 12
-0.0072174263 -1.1475707 1.0591488 234 88 12
-0.021651132 -1.1475099 1.058948 234 88 12
-0.03604595 -1.1462612 1.0548248 234 88 12
-0.050455928 -1.1460704 1.0541945 234 88 12
-0.064869694 -1.1460314 1.0540657 234 88 12
-0.079287887 -1.1460704 1.0541945 234 88 12
-0.093745589 -1.1465807 1.0558796 234 88 12
-0.007217044 -1.161944 1.058948 234 88 12
-0.02160467 -1.1594507 1.0508173 234 88 12
-0.036007784 -1.1594507 1.0508173 234 88 12
-0.050076742 -1.1517651 1.0257556 234 88 12
-0.06463334 -1.1562185 1.040278 234 88 12
-0.079046495 -1.1569532 1.0426736 234 88 12
-0.093683213 -1.1602305 1.0533605 234 88 12
-0.0071959854 -1.1729456 1.0478923 234 88 12
-0.021519005 -1.1691993 1.035826 234 88 12
-0.035865009 -1.1691993 1.035826 234 88 12
-0.050076742 -1.1660727 1.0257556 234 88 12
-0.064518429 -1.1685004 1.0335748 234 88 12
-0.078851514 -1.1684361 1.0333676 234 88 12
-0.093188152 -1.1684361 1.0333676 234 88 12
-0.021519005 -1.1835454 1.035826 234 88 12
-0.035865009 -1.1835454 1.035826 234 88 12
-0.050270375 -1.1849445 1.040278 234 88 12
-0.064530887 -1.1830662 1.0343018 234 88 12
-0.078850187 -1.1827527 1.0333042 234 88 12
-0.093188152 -1.1827726 1.0333676 234 88 12
-0.0086151343 -1.1723402 1.059154 234 88 12
-0.0080297673 -1.1586573 1.0591762 234 88 12
-0.0074345428 -1.1449671 1.0591762 234 88 12
-0.022426492 -1.1424725 1.0943596 234 88 12
-0.016317511 -1.1822425 1.0419152 234 88 12
-0.017718064 -1.1700661 1.0463663 234 88 12
-0.019523386 -1.1581498 1.0517249 234 88 12
-0.024047552 -1.1481522 1.0631616 234 88 12
-0.025723847 -1.136035 1.0682427 234 88 12
-0.025601977 -1.1226125 1.0693076 234 88 12
-0.031402543 -1.1132954 1.0836198 234 88 12
-0.027787255 -1.1817439 1.0345078 234 88 12
-0.02912713 -1.1695111 1.038781 234 88 12
-0.036334198 -1.1614934 1.0560312 234 88 12
-0.036590118 -1.1483656 1.0579185 234 88 12
-0.037815548 -1.1359079 1.0619529 234 88 12
-0.038827948 -1.1232694 1.0655189 234 88 12
-0.039475504 -1.1103513 1.0682795 234 88 12
-0.041995734 -1.0986849 1.0751915 234 88 12
-0.047906037 -1.1876094 1.0460232 234 88 12
-0.04678658 -1.1735017 1.0448794 234 88 12
-0.046712324 -1.160154 1.0460232 234 88 12
-0.048146784 -1.1478678 1.0504727 234 88 12
-0.050636321 -1.1362859 1.0572377 234 88 12
-0.050404552 -1.1227661 1.0580424 234 88 12
-0.050420448 -1.1094093 1.0593909 234 88 12
-0.05193055 -1.0970498 1.0640185 234 88 12
-0.061427474 -1.1885579 1.0428773 234 88 12
-0.058317725 -1.1730003 1.0374324 234 88 12
-0.051312972 -1.1547103 1.0235378 234 88 12
-0.062276777 -1.1491817 1.0486085 234 88 12
-0.062580161 -1.13604 1.050566 234 88 12
-0.06198116 -1.1222628 1.050566 234 88 12
-0.062001713 -1.1089058 1.0519115 234 88 12
-0.062959984 -1.0961657 1.0552952 234 88 12
-0.064812422 -1.0839891 1.060625 234 88 12
-0.073418848 -1.1883754 1.0363652 234 88 12
-0.072596706 -1.1744654 1.0358837 234 88 12
-0.071998999 -1.1607181 1.0358837 234 88 12
-0.075655632 -1.1499423 1.0450226 234 88 12
-0.07493294 -1.136072 1.0447576 234 88 12
-0.074252665 -1.1222329 1.0445836 234 88 12
-0.073910818 -1.1086228 1.0451372 234 88 12
-0.074553572 -1.095662 1.0478096 234 88 12
-0.07876274 -1.0850171 1.0581601 234 88 12
-0.084972128 -1.187873 1.0289038 234 88 12
-0.084374331 -1.1741238 1.0289038 234 88 12
-0.087706923 -1.1631316 1.0372626 234 88 12
-0.091886282 -1.1526591 1.0474291 234 88 12
-0.088880457 -1.1371872 1.0423112 234 88 12
-0.087267056 -1.1226976 1.040154 234 88 12
-0.087020174 -1.1091372 1.0409057 234 88 12
-0.087152794 -1.0958208 1.0424666 234 88 12
