ply
format ascii 1.0
element vertex 1687
property float x
property float y
property float z
property uchar red
property uchar green
property uchar blue
end_header
-0.00032379269 0.00043807246 2.7266669 234 88 12
-0.01232076 0.01734964 2.5979919 234 88 12
9.5233139e-05 0.00043807246 2.7266669 234 88 12
-0.0148352 0.016846752 2.5979919 234 88 12
0.0052803252 0.016846752 2.5979919 234 88 12
0.011805713 0.034390554 2.4605217 234 88 12
0.012832297 0.034390554 2.4605217 234 88 12
0.085728198 0.12220828 1.7723978 234 88 12
0.089376204 0.12220828 1.7723978 234 88 12
0.10032023 0.12220828 1.7723978 234 88 12
-0.0025664594 0.033363972 2.4605217 234 88 12
-0.0022784888 0.04936726 2.3312645 234 88 12
-7.2403447e-05 0.004706224 2.6919882 234 88 12
7.2403447e-05 0.004706224 2.6919882 234 88 12
0.023544384 0.04936726 2.3312645 234 88 12
0.025063377 0.04936726 2.3312645 234 88 12
0.0010004306 0.0018579423 2.7149935 234 88 12
0.025151301 0.033363972 2.4605217 234 88 12
0.11491226 0.11856027 1.7723978 234 88 12
-0.01443043 0.047848266 2.3312645 234 88 12
-0.001290062 0.0027135788 2.7066455 234 88 12
0.038734309 0.046329275 2.3312645 234 88 12
0.12950429 0.11126426 1.7723978 234 88 12
0.037470307 0.03028422 2.4605217 234 88 12
0.14044832 0.10396824 1.7723978 234 88 12
0.14774434 0.093024217 1.7723978 234 88 12
0.043291289 0.037215319 2.3312645 234 88 12
0.032337386 0.024124717 2.4605217 234 88 12
0.037470307 0.024124717 2.4605217 234 88 12
0.037215319 0.034177333 2.3312645 234 88 12
0.15139236 0.082080185 1.7723978 234 88 12
-0.056679744 0.03532216 2.2987411 234 88 12
-0.034421179 0.022091204 2.4602818 234 88 12
-0.048465289 0.03532216 2.2987411 234 88 12
-0.03896581 0.021884907 2.4497664 234 88 12
-0.036830697 0.021884907 2.4497664 234 88 12
-0.0083837071 0.026440924 2.3914273 234 88 12
-0.063251309 0.032036375 2.2987411 234 88 12
0.00064490055 0.025151122 2.3914273 234 88 12
-0.031600129 0.023861321 2.3914273 234 88 12
-0.014832713 0.023861321 2.3914273 234 88 12
-0.012253111 0.023861321 2.3914273 234 88 12
-0.00739301 0.030393485 2.2987411 234 88 12
0.00064490055 0.023861321 2.3914273 234 88 12
0.022025393 0.028101362 2.3312645 234 88 12
0.00082144554 0.028750595 2.2987411 234 88 12
0.15504035 0.063840143 1.7723978 234 88 12
-0.015607466 0.027107703 2.2987411 234 88 12
0.15504035 0.060192138 1.7723978 234 88 12
-0.03696505 0.025464812 2.2987411 234 88 12
-0.0046237404 0.015926218 2.4602818 234 88 12
0.00051374896 0.015926218 2.4602818 234 88 12
0.013542912 0.019991918 2.3914273 234 88 12
0.018987408 0.023544384 2.3312645 234 88 12
0.025063377 0.023544384 2.3312645 234 88 12
-0.024146201 0.014898719 2.4602818 234 88 12
-0.03696505 0.023821922 2.2987411 234 88 12
-0.018893247 0.023821922 2.2987411 234 88 12
-0.012321684 0.023821922 2.2987411 234 88 12
0.00739301 0.023821922 2.2987411 234 88 12
0.013964575 0.023821922 2.2987411 234 88 12
0.038734309 0.022025393 2.3312645 234 88 12
0.15504035 0.049248114 1.7723978 234 88 12
-0.03920918 0.014206225 2.4316692 234 88 12
-0.036936186 0.014206225 2.4316692 234 88 12
-0.047506262 0.012276899 2.4497664 234 88 12
-0.029357802 0.012276899 2.4497664 234 88 12
-0.023118703 0.011816226 2.4602818 234 88 12
-0.0077062342 0.011816226 2.4602818 234 88 12
0.00051374896 0.011816226 2.4602818 234 88 12
0.036443722 0.011805713 2.4605217 234 88 12
0.037470307 0.011805713 2.4605217 234 88 12
-0.042618673 0.011933229 2.4316692 234 88 12
-0.036936186 0.011933229 2.4316692 234 88 12
-0.02402002 0.011209343 2.4497664 234 88 12
0.025464812 0.017250357 2.2987411 234 88 12
-0.025151122 0.012253111 2.3914273 234 88 12
-0.023861321 0.012253111 2.3914273 234 88 12
0.012843723 0.0097612301 2.4602818 234 88 12
0.022571521 0.012253111 2.3914273 234 88 12
0.15504035 0.034656081 1.7723978 234 88 12
0.021875633 0.0047774371 2.5979919 234 88 12
-0.033679269 0.012321684 2.2987411 234 88 12
-0.02217903 0.012321684 2.2987411 234 88 12
0.025464812 0.012321684 2.2987411 234 88 12
0.031139348 0.011392444 2.3312645 234 88 12
0.038734309 0.011392444 2.3312645 234 88 12
-0.065674134 0.020823505 1.8890507 234 88 12
-0.030434353 0.020823505 1.8890507 234 88 12
0.050886251 0.0098734517 2.3312645 234 88 12
0.056063283 0.017619889 1.8890507 234 88 12
0.15868837 0.020064047 1.7723978 234 88 12
-0.050708931 0.004804004 2.4497664 234 88 12
0.03860794 0.00739301 2.2987411 234 88 12
-0.062470514 0.011212656 1.8890507 234 88 12
-0.036841586 0.011212656 1.8890507 234 88 12
-0.018447187 0.0022496569 2.4937861 234 88 12
-0.059266899 0.0080090407 1.8890507 234 88 12
-0.046452433 0.0080090407 1.8890507 234 88 12
-0.15537538 0.0048054243 1.8890507 234 88 12
0.16233638 0.0054720128 1.7723978 234 88 12
0.072081365 0.0016018081 1.8890507 234 88 12
-0.000176617 -1.7840101e-06 2.7290635 234 88 12
-0.051776487 -0.00053377822 2.4497664 234 88 12
-0.049641374 -0.00053377822 2.4497664 234 88 12
-0.049437664 -0.00056824897 2.4316692 234 88 12
-0.036936186 -0.00056824897 2.4316692 234 88 12
-0.02402002 -0.00053377822 2.4497664 234 88 12
-0.017547322 -0.00044993137 2.4937861 234 88 12
-0.059266899 -0.0016018081 1.8890507 234 88 12
-0.049656048 -0.0016018081 1.8890507 234 88 12
-0.013871222 -0.00051374896 2.4602818 234 88 12
-0.011816226 -0.00051374896 2.4602818 234 88 12
0.00051374896 -0.00051374896 2.4602818 234 88 12
0.012843723 -0.00051374896 2.4602818 234 88 12
0.07528498 -0.0016018081 1.8890507 234 88 12
0.040250834 -0.00082144554 2.2987411 234 88 12
0.046329275 -0.0007594963 2.3312645 234 88 12
0.050886251 -0.0007594963 2.3312645 234 88 12
0.0022581145 -2.8583729e-05 2.7149935 234 88 12
0.022881411 -0.00025144406 2.5979919 234 88 12
-0.15857899 -0.0048054243 1.8890507 234 88 12
0.050108179 -0.0024643366 2.2987411 234 88 12
0.16598438 -0.0054720128 1.7723978 234 88 12
-0.012148147 -0.0022496569 2.4937861 234 88 12
0.025173699 -0.0025687448 2.4602818 234 88 12
0.04670956 -0.0025664594 2.4605217 234 88 12
-0.050574161 -0.003977743 2.4316692 234 88 12
-0.15857899 -0.014416273 1.8890507 234 88 12
0.084895827 -0.014416273 1.8890507 234 88 12
0.16963239 -0.016416037 1.7723978 234 88 12
-0.017619889 -0.017619889 1.8890507 234 88 12
0.088099442 -0.017619889 1.8890507 234 88 12
0.063038193 -0.008354459 2.3312645 234 88 12
-0.015487238 -0.0049105878 2.5316877 234 88 12
-0.011212656 -0.020823505 1.8890507 234 88 12
0.1732804 -0.027360063 1.7723978 234 88 12
-0.16178262 -0.027230738 1.8890507 234 88 12
0.091303058 -0.027230738 1.8890507 234 88 12
0.048465289 -0.013964575 2.2987411 234 88 12
0.050108179 -0.013964575 2.2987411 234 88 12
0.056962222 -0.012911437 2.3312645 234 88 12
0.063038193 -0.012911437 2.3312645 234 88 12
-0.051710658 -0.013069727 2.4316692 234 88 12
-0.049437664 -0.013069727 2.4316692 234 88 12
-0.036936186 -0.013069727 2.4316692 234 88 12
-0.0033996375 -0.0086879628 2.5316877 234 88 12
0.00037773751 -0.0086879628 2.5316877 234 88 12
0.063251309 -0.018893247 2.2987411 234 88 12
-0.065134957 -0.016122514 2.3914273 234 88 12
-0.052844044 -0.013344456 2.4497664 234 88 12
-0.049641374 -0.013344456 2.4497664 234 88 12
-0.025087576 -0.013344456 2.4497664 234 88 12
-0.02402002 -0.013344456 2.4497664 234 88 12
0.0066787363 -0.012843723 2.4602818 234 88 12
0.012843723 -0.012843723 2.4602818 234 88 12
0.025173699 -0.012843723 2.4602818 234 88 12
0.1769284 -0.045600105 1.7723978 234 88 12
0.050108179 -0.025464812 2.2987411 234 88 12
0.063251309 -0.025464812 2.2987411 234 88 12
-0.016242713 -0.012465338 2.5316877 234 88 12
-0.011709862 -0.012465338 2.5316877 234 88 12
0.00037773751 -0.012465338 2.5316877 234 88 12
0.063038193 -0.025063377 2.3312645 234 88 12
-0.037396014 -0.013976288 2.5316877 234 88 12
0.18057641 -0.067488156 1.7723978 234 88 12
-0.15857899 -0.062470514 1.8890507 234 88 12
0.02402712 -0.062470514 1.8890507 234 88 12
0.027230738 -0.062470514 1.8890507 234 88 12
0.048465289 -0.032036375 2.2987411 234 88 12
-0.063845158 -0.026440924 2.3914273 234 88 12
0.00739301 -0.033679269 2.2987411 234 88 12
0.013964575 -0.033679269 2.2987411 234 88 12
0.18057641 -0.074784175 1.7723978 234 88 12
0.0068354667 -0.032658342 2.3312645 234 88 12
0.025464812 -0.03532216 2.2987411 234 88 12
-0.049437664 -0.025571205 2.4316692 234 88 12
-0.036936186 -0.025571205 2.4316692 234 88 12
-0.00082144554 -0.03696505 2.2987411 234 88 12
0.0001334547 -0.0020018204 2.7066455 234 88 12
0.01443043 -0.034177333 2.3312645 234 88 12
-0.03664054 -0.017753663 2.5316877 234 88 12
-0.050708931 -0.025087576 2.4497664 234 88 12
-0.049641374 -0.025087576 2.4497664 234 88 12
-0.029357802 -0.025087576 2.4497664 234 88 12
-0.0041072275 -0.03860794 2.2987411 234 88 12
0.023821922 -0.03860794 2.2987411 234 88 12
0.025464812 -0.03860794 2.2987411 234 88 12
0.03860794 -0.03860794 2.2987411 234 88 12
0.050108179 -0.03860794 2.2987411 234 88 12
0.063251309 -0.03860794 2.2987411 234 88 12
-0.0058041052 -0.031600129 2.3914273 234 88 12
0.18057641 -0.089376204 1.7723978 234 88 12
0.023544384 -0.038734309 2.3312645 234 88 12
0.025063377 -0.038734309 2.3312645 234 88 12
0.061519198 -0.038734309 2.3312645 234 88 12
0.063038193 -0.038734309 2.3312645 234 88 12
-0.010348422 -0.024746224 2.4937861 234 88 12
-0.013542912 -0.035469532 2.3914273 234 88 12
-0.012148147 -0.025646089 2.4937861 234 88 12
0.038734309 -0.043291289 2.3312645 234 88 12
0.1769284 -0.10396824 1.7723978 234 88 12
-0.063845158 -0.038049135 2.3914273 234 88 12
-0.014847735 -0.026545951 2.4937861 234 88 12
-0.018702116 -0.038049135 2.3914273 234 88 12
0.1732804 -0.11491226 1.7723978 234 88 12
-0.061265554 -0.041918539 2.3914273 234 88 12
-0.025151122 -0.041918539 2.3914273 234 88 12
-0.035129588 -0.025308413 2.5316877 234 88 12
-0.023797464 -0.025308413 2.5316877 234 88 12
0.07843218 -0.1258563 1.7723978 234 88 12
0.16963239 -0.1258563 1.7723978 234 88 12
-0.026545951 -0.031945128 2.4937861 234 88 12
0.093024217 -0.13680032 1.7723978 234 88 12
0.16233638 -0.14044832 1.7723978 234 88 12
-0.054816548 -0.050947145 2.3914273 234 88 12
-0.049657345 -0.050947145 2.3914273 234 88 12
0.10396824 -0.14409633 1.7723978 234 88 12
0.15868837 -0.14409633 1.7723978 234 88 12
0.11491226 -0.15139236 1.7723978 234 88 12
0.15139236 -0.15139236 1.7723978 234 88 12
0.1258563 -0.15504035 1.7723978 234 88 12
0.14044832 -0.15504035 1.7723978 234 88 12
0.14044832 -0.16233638 1.7723978 234 88 12
-1.4731572 0.063392267 2.2796905 234 88 12
-1.4733053 0.062197056 2.2796285 234 88 12
-1.1353353 -0.0035836909 1.3775613 234 88 12
-1.1358106 -0.014517386 1.3775613 234 88 12
-1.136286 -0.025451083 1.3775613 234 88 12
-1.1369199 -0.040029343 1.3775613 234 88 12
-1.1373953 -0.05096304 1.3775613 234 88 12
-1.137447 0.01841685 1.3755835 234 88 12
-1.1377639 0.01112772 1.3755835 234 88 12
-1.3371934 0.031531356 1.9115567 234 88 12
-1.1410916 -0.065408148 1.3755835 234 88 12
-1.1395587 0.040417392 1.3736057 234 88 12
-1.1397171 0.036772829 1.3736057 234 88 12
-1.3380066 0.042209711 1.9107331 234 88 12
-1.3387984 0.023999006 1.9107331 234 88 12
-1.1419873 0.055128802 1.3716279 234 88 12
-1.3841165 0.057610095 2.0344059 234 88 12
-1.33882 0.052888066 1.9099096 234 88 12
-1.146741 -0.054208156 1.3716279 234 88 12
-1.1472164 -0.065141849 1.3716279 234 88 12
-1.1476918 -0.076075546 1.3716279 234 88 12
-1.1445743 0.066195652 1.3696501 234 88 12
-1.1470029 0.080907062 1.3676724 234 88 12
-1.1473199 0.073617928 1.3676724 234 88 12
-1.385528 0.064864337 2.0332928 234 88 12
-1.1531829 -0.061230984 1.3676724 234 88 12
-1.1533413 -0.064875551 1.3676724 234 88 12
-1.1538167 -0.075809248 1.3676724 234 88 12
-1.1475301 0.13935326 1.3656946 234 88 12
-1.3855425 0.084388487 2.0327363 234 88 12
-1.14959 0.091973908 1.3656946 234 88 12
-1.3421177 0.065194868 1.907439 234 88 12
-1.3326193 0.027517771 1.8759121 234 88 12
-1.332762 0.02423509 1.8759121 234 88 12
-1.4707983 0.061854985 2.2713194 234 88 12
-1.344427 0.012080303 1.907439 234 88 12
-1.3862705 0.0875028 2.0321796 234 88 12
-1.3454382 0.018205982 1.9066155 234 88 12
-1.3457022 0.012135746 1.9066155 234 88 12
-1.1596247 -0.068253815 1.3637168 234 88 12
-1.1599416 -0.075542949 1.3637168 234 88 12
-1.1605754 -0.09012121 1.3637168 234 88 12
-1.344602 0.066823311 1.905792 234 88 12
-1.3448659 0.060753074 1.905792 234 88 12
-1.3453938 0.048612602 1.905792 234 88 12
-1.3348782 0.039127085 1.8741307 234 88 12
-1.3468224 0.074521989 1.9041449 234 88 12
-1.3474163 0.060863957 1.9041449 234 88 12
-1.3367802 0.0589431 1.8723493 234 88 12
-1.3495276 0.012302072 1.9041449 234 88 12
-1.3479656 0.077612549 1.9033214 234 88 12
-1.3378739 0.065568425 1.8714585 234 88 12
-1.1725084 -0.082299478 1.3558056 234 88 12
-1.1728252 -0.089588605 1.3558056 234 88 12
-1.341608 0.011464153 1.8705679 234 88 12
-1.167541 0.17308639 1.35185 234 88 12
-1.3911738 0.093881309 2.0288403 234 88 12
-1.3914859 0.086702004 2.0288403 234 88 12
-1.4364301 0.064718619 2.1640861 234 88 12
-1.3510654 0.094472021 1.9008508 234 88 12
-1.3415833 0.075596362 1.8687865 234 88 12
-1.4369614 0.062224902 2.1638134 234 88 12
-1.1735075 0.17699726 1.3478945 234 88 12
-1.3519447 0.10363282 1.9000273 234 88 12
-1.3948294 0.047788899 2.0274901 234 88 12
-1.345032 0.028057452 1.8678957 234 88 12
-1.3451747 0.024774771 1.8678957 234 88 12
-1.3457456 0.011644047 1.8678957 234 88 12
-1.1852335 -0.092700571 1.3478945 234 88 12
-1.3437707 0.088847011 1.867005 234 88 12
-1.3439848 0.08392299 1.867005 234 88 12
-1.3955135 0.051932517 2.026933 234 88 12
-1.3465539 0.024834735 1.867005 234 88 12
-1.3471248 0.011704011 1.867005 234 88 12
-1.3577725 -0.0010233045 1.8992037 234 88 12
-1.1794739 0.18090811 1.3439389 234 88 12
-1.3945318 0.096082419 2.026614 234 88 12
-1.1944208 -0.092301123 1.3419611 234 88 12
-1.4670866 0.068207152 2.2560904 234 88 12
-1.1974833 -0.092167974 1.3399833 234 88 12
-1.1885028 0.18495214 1.3380055 234 88 12
-1.3580565 0.10998026 1.8959095 234 88 12
-1.3628072 0.00071602321 1.8959095 234 88 12
-1.2005942 0.18912929 1.3300943 234 88 12
-1.4019678 0.062497821 2.0224764 234 88 12
-1.35773 0.022031769 1.8598794 234 88 12
-1.4410592 0.074987143 2.1608143 234 88 12
-1.3689851 0.0055459109 1.8917919 234 88 12
-1.3655757 0.11334804 1.8909684 234 88 12
-1.2097815 0.18952875 1.3241611 234 88 12
-1.3714695 0.0071743545 1.8901448 234 88 12
-1.4047396 0.099608898 2.0199351 234 88 12
-1.4052987 0.085268952 2.0196912 234 88 12
-1.4068608 0.049340472 2.0196912 234 88 12
-1.3706104 0.11508736 1.8876742 234 88 12
-1.40692 0.067855477 2.019134 234 88 12
-1.4071878 0.06169631 2.019134 234 88 12
-1.3659338 0.024032896 1.8545352 234 88 12
-1.407325 0.099721305 2.0182655 234 88 12
-1.407931 0.084354937 2.0180199 234 88 12
-1.444211 0.070593908 2.1589057 234 88 12
-1.3700713 0.024212791 1.8518631 234 88 12
-1.3787906 0.015094802 1.8852037 234 88 12
-1.2674878 0.034264989 1.4301416 234 88 12
-1.2679052 0.02466321 1.4301416 234 88 12
-1.4099104 0.099833712 2.0165958 234 88 12
-1.4105633 0.083440915 2.0163488 234 88 12
-1.4110097 0.073175631 2.0163488 234 88 12
-1.4115006 0.061883826 2.0163488 234 88 12
-1.270038 0.037582509 1.4284047 234 88 12
-1.2701771 0.034381919 1.4284047 234 88 12
-1.2705946 0.024780139 1.4284047 234 88 12
-1.4120808 0.048538961 2.0163488 234 88 12
-1.4691217 0.069020353 2.254756 234 88 12
-1.3824182 0.019813806 1.8827331 234 88 12
-1.27653 0.01221163 1.4249309 234 88 12
-1.2832067 0.044568345 1.4197204 234 88 12
-1.2836242 0.034966566 1.4197204 234 88 12
-1.2841808 0.022164198 1.4197204 234 88 12
-1.2847373 0.0093618268 1.4197204 234 88 12
-1.3873869 0.023070693 1.879439 234 88 12
-1.4150692 0.099063858 2.0130064 234 88 12
-1.2857568 0.047885865 1.4179835 234 88 12
-1.2863135 0.035083495 1.4179835 234 88 12
-1.2868701 0.022281127 1.4179835 234 88 12
-1.433553 0.052119844 2.0873864 234 88 12
-1.2878442 -0.00012302041 1.4179835 234 88 12
-1.3848038 0.060998369 1.8617532 234 88 12
-1.3599619 0.058129635 1.7469938 234 88 12
-1.3244249 0.053686235 1.5827591 234 88 12
-1.4343184 0.049128368 2.0869768 234 88 12
-1.3825554 0.023111129 1.8438468 234 88 12
-1.3892411 0.064210936 1.8760815 234 88 12
-1.3818678 0.062556922 1.841301 234 88 12
-1.3914877 0.061243258 1.8859737 234 88 12
-1.3542668 0.057819102 1.7113996 234 88 12
-1.2909966 0.051320318 1.4145098 234 88 12
-1.4193385 0.040626761 2.0118923 234 88 12
-1.415238 0.067549266 1.9933184 234 88 12
-1.4040052 0.065557443 1.9395653 234 88 12
-1.4081264 0.064271361 1.9588698 234 88 12
-1.3696446 0.06237847 1.7757396 234 88 12
-1.3690811 0.060473751 1.7726706 234 88 12
-1.2947991 0.025832508 1.4127729 234 88 12
-1.2949383 0.022631915 1.4127729 234 88 12
-1.419323 0.080736361 2.0107782 234 88 12
-1.4195907 0.07457719 2.0107782 234 88 12
-1.4601839 0.066231906 2.205018 234 88 12
-1.4057519 0.068137899 1.94261 234 88 12
-1.4120791 0.066642806 1.9728451 234 88 12
-1.3816355 0.066023022 1.8257272 234 88 12
-1.3954265 0.062862411 1.8916495 234 88 12
-1.2962362 0.054754771 1.4110361 234 88 12
-1.2965144 0.048353586 1.4110361 234 88 12
-1.3867643 0.021649683 1.8411746 234 88 12
-1.2839588 0.11239456 1.3480922 234 88 12
-1.4342926 0.070605829 2.077317 234 88 12
-1.4683172 0.065584041 2.2433071 234 88 12
-1.4157602 0.069921985 1.9861758 234 88 12
-1.42472 0.067214757 2.0295913 234 88 12
-1.3602581 0.060197134 1.7115823 234 88 12
-1.3950379 0.023403345 1.8744978 234 88 12
-1.4202075 0.10130896 2.009917 234 88 12
-1.286983 0.10909756 1.3462352 234 88 12
-1.4200391 0.07488279 2.0033371 234 88 12
-1.4247632 0.069224574 2.025703 234 88 12
-1.3952781 0.070428759 1.8787045 234 88 12
-1.409937 0.065645576 1.9508783 234 88 12
-1.4367052 0.064361699 2.08429 234 88 12
-1.4009575 0.06301935 1.9054602 234 88 12
-1.3675176 0.096711218 1.7362235 234 88 12
-1.2895609 0.11606664 1.3443781 234 88 12
-1.3286492 0.099992454 1.539446 234 88 12
-1.3287674 0.097273394 1.539446 234 88 12
-1.4106525 0.076810643 1.951009 234 88 12
-1.4696511 0.065627754 2.248328 234 88 12
-1.4205821 0.071834758 2.0003643 234 88 12
-1.4402449 0.067188837 2.099251 234 88 12
-1.4015964 0.067292847 1.9028895 234 88 12
-1.304026 0.061506744 1.4058255 234 88 12
-1.3045826 0.048704375 1.4058255 234 88 12
-1.3051392 0.035902005 1.4058255 234 88 12
-1.3056959 0.023099635 1.4058255 234 88 12
-1.4238298 0.036708161 2.0091069 234 88 12
-1.3140563 0.1131529 1.4536332 234 88 12
-1.3016133 0.11363444 1.3893995 234 88 12
-1.3017547 0.11038102 1.3893995 234 88 12
-1.4145445 0.079833038 1.9657627 234 88 12
-1.4175045 0.076884069 1.9804063 234 88 12
-1.4297265 0.073473394 2.0428383 234 88 12
-1.3927112 0.06934157 1.8505045 234 88 12
-1.4420198 0.065765902 2.1046739 234 88 12
-1.306437 0.068024859 1.4040886 234 88 12
-1.307272 0.048821304 1.4040886 234 88 12
-1.3078285 0.036018934 1.4040886 234 88 12
-1.2969909 0.1191865 1.350158 234 88 12
-1.3085842 0.1062706 1.4082235 234 88 12
-1.4171175 0.077205226 1.9728329 234 88 12
-1.4078779 0.077828482 1.9243432 234 88 12
-1.4106127 0.076039642 1.9383287 234 88 12
-1.3087089 0.077743568 1.4023517 234 88 12
-1.3088481 0.074542977 1.4023517 234 88 12
-1.3094047 0.061740603 1.4023517 234 88 12
-1.2853743 0.13097362 1.2735281 234 88 12
-1.2952406 0.11729305 1.3232144 234 88 12
-1.3002367 0.1091572 1.3480922 234 88 12
-1.3688065 0.087782949 1.7105749 234 88 12
-1.386806 0.080466092 1.8053287 234 88 12
-1.4112246 0.072331257 1.9342912 234 88 12
-1.4116727 0.062022585 1.9342912 234 88 12
-1.4245576 0.09947639 2.0068786 234 88 12
-1.4009607 0.082720436 1.8741208 234 88 12
-1.3408592 0.094333835 1.548867 234 88 12
-1.4208759 0.075784601 1.9811642 234 88 12
-1.2915182 0.13124076 1.2695602 234 88 12
-1.2887594 0.12857236 1.2535775 234 88 12
-1.290347 0.12440422 1.2613963 234 88 12
-1.3120183 0.11104486 1.378649 234 88 12
-1.3957678 0.084335506 1.8378 234 88 12
-1.3642416 0.085269406 1.6627554 234 88 12
-1.3659385 0.089857019 1.6615329 234 88 12
-1.3834224 0.08211685 1.7586707 234 88 12
-1.2963797 0.12835853 1.2573968 234 88 12
-1.2967001 0.12098844 1.2573968 234 88 12
-1.4117194 0.08113119 1.9115061 234 88 12
-1.4198564 0.076718107 1.9573807 234 88 12
-1.4009129 0.014042624 1.8322676 234 88 12
-1.3009059 0.1351655 1.2655216 234 88 12
-1.305285 0.12641217 1.2890598 234 88 12
-1.3072673 0.12222897 1.2996585 234 88 12
-1.3011078 0.11709578 1.2620848 234 88 12
-1.3203948 0.1081363 1.373331 234 88 12
-1.4021215 0.083936647 1.8482468 234 88 12
-1.3696822 0.090031579 1.6588423 234 88 12
-1.3634337 0.089146689 1.6218328 234 88 12
-1.4176469 0.049372133 1.9307948 234 88 12
-1.4288255 0.10168366 2.0043511 234 88 12
-1.308126 0.13010804 1.2871248 234 88 12
-1.308436 0.12297684 1.2871248 234 88 12
-1.312409 0.11817402 1.309724 234 88 12
-1.3710774 0.094706416 1.6558267 234 88 12
-1.3207772 0.10564492 1.3566934 234 88 12
-1.4442254 0.040484842 2.080833 234 88 12
-1.4061831 0.11967486 1.8646154 234 88 12
-1.3163959 0.13155392 1.3178415 234 88 12
-1.4629897 0.067823157 2.1987407 234 88 12
-1.4187479 0.073949382 1.9293963 234 88 12
-1.4193082 0.061063539 1.9293963 234 88 12
-1.4198124 0.049466286 1.9293963 234 88 12
-1.4444002 0.051079083 2.0804236 234 88 12
-1.4074583 0.1197303 1.8637918 234 88 12
-1.3088391 0.13248819 1.2508337 234 88 12
-1.4097315 0.083120577 1.8680513 234 88 12
-1.3509909 0.09640839 1.504501 234 88 12
-1.4197186 0.076573625 1.928697 234 88 12
-1.4198307 0.073996454 1.928697 234 88 12
-1.3223442 0.12835582 1.3140969 234 88 12
-1.3331873 0.11124923 1.3785415 234 88 12
-1.4103066 0.080362685 1.8620689 234 88 12
-1.4044067 0.12437222 1.8269234 234 88 12
-1.4323206 0.099813916 2.0018651 234 88 12
-1.3146946 0.12927081 1.2437091 234 88 12
-1.3221594 0.11937489 1.289549 234 88 12
-1.3725001 0.094564714 1.6105608 234 88 12
-1.4016403 0.082808129 1.7971206 234 88 12
-1.4236209 0.03672168 1.9272985 234 88 12
-1.4563954 0.082197659 2.1507266 234 88 12
-1.3206909 0.13534153 1.2626952 234 88 12
-1.3386489 0.12096636 1.3780847 234 88 12
-1.3280666 0.12185114 1.3078922 234 88 12
-1.3295308 0.11115638 1.3145442 234 88 12
-1.4015449 0.083256081 1.7858814 234 88 12
-1.4404776 0.05767554 2.0376608 234 88 12
-1.4471339 0.046660807 2.0787852 234 88 12
-1.4568175 0.082216017 2.1504538 234 88 12
-1.330973 0.12197751 1.3060153 234 88 12
-1.4202515 0.08576569 1.9027214 234 88 12
-1.3322682 0.11471738 1.3126799 234 88 12
-1.3688179 0.099587977 1.5568751 234 88 12
-1.3739092 0.095523261 1.5903124 234 88 12
-1.4415848 0.049617264 2.037173 234 88 12
-1.3279601 0.12446703 1.2636784 234 88 12
-1.3867174 0.098848239 1.6646491 234 88 12
-1.370874 0.1022628 1.5554746 234 88 12
-1.3966072 0.083476409 1.7287936 234 88 12
-1.3331277 0.13414563 1.2799214 234 88 12
-1.3334833 0.12357859 1.2791828 234 88 12
-1.3518021 0.11001033 1.40532 234 88 12
-1.3921437 0.091303989 1.6865579 234 88 12
-1.4051422 0.085469075 1.7772344 234 88 12
-1.416846 0.088613115 1.8514142 234 88 12
-1.3513572 0.11124803 1.3817948 234 88 12
-1.3838767 0.09459243 1.6132768 234 88 12
-1.4442029 0.041624676 2.0357094 234 88 12
-1.4500973 0.036959201 2.0771468 234 88 12
-1.3379729 0.13495572 1.2680742 234 88 12
-1.3467344 0.12400217 1.3298253 234 88 12
-1.378776 0.10451863 1.5623233 234 88 12
-1.4081709 0.085600764 1.7752784 234 88 12
-1.4130582 0.082466751 1.8106886 234 88 12
-1.4111981 0.081273988 1.7964391 234 88 12
-1.4442157 0.058738776 2.0352216 234 88 12
-1.3397949 0.12864403 1.2550454 234 88 12
-1.3401082 0.12143795 1.2550454 234 88 12
-1.3491372 0.11108386 1.3205329 234 88 12
-1.4026195 0.089813173 1.7217393 234 88 12
-1.4317605 0.024165379 1.9224036 234 88 12
-1.3475499 0.12993391 1.2904639 234 88 12
-1.351827 0.11458311 1.3187009 234 88 12
-1.4466646 0.037228145 2.0342457 234 88 12
-1.3460066 0.12530425 1.2511349 234 88 12
-1.3461633 0.12170122 1.2511349 234 88 12
-1.4050745 0.094214819 1.7140108 234 88 12
-1.3707384 0.10528237 1.4424987 234 88 12
-1.4115279 0.084374182 1.7623355 234 88 12
-1.4317971 0.073225714 1.921005 234 88 12
-1.4323014 0.061628465 1.921005 234 88 12
-1.4315913 0.10291022 1.9203057 234 88 12
-1.4785591 0.064394109 2.2929246 234 88 12
-1.4320395 0.092601553 1.9203057 234 88 12
-1.3631146 0.12193768 1.3637657 234 88 12
-1.4327679 0.075849958 1.9203057 234 88 12
-1.3236356 -1.3301686 1.5951674 234 88 12
-1.3214579 -1.3323463 1.5951674 234 88 12
-1.3192801 -1.334524 1.5951674 234 88 12
-1.3301989 -1.3265694 1.5929109 234 88 12
-1.3243917 -1.3323766 1.5929109 234 88 12
-1.3193103 -1.3374579 1.5929109 234 88 12
-1.3321447 -1.3256116 1.5921587 234 88 12
-1.4023536 -1.402456 1.8203235 234 88 12
-1.3149852 -1.3447472 1.5906544 234 88 12
-1.4132442 -1.4135226 1.8545644 234 88 12
-1.1026168 -1.1464688 0.89215142 234 88 12
-1.0948782 -1.1542073 0.89215142 234 88 12
-1.0897191 -1.1593665 0.89215142 234 88 12
-1.0819805 -1.1671051 0.89215142 234 88 12
-1.0768214 -1.1722641 0.89215142 234 88 12
-1.0690829 -1.1800027 0.89215142 234 88 12
-1.1121109 -1.1404858 0.88947856 234 88 12
-1.0682589 -1.1843377 0.88947856 234 88 12
-1.0579407 -1.1946559 0.88947856 234 88 12
-1.0553612 -1.1972353 0.88947856 234 88 12
-1.3450699 -1.3225669 1.5846369 234 88 12
-1.1087073 -1.1474003 0.88680565 234 88 12
-1.0958097 -1.160298 0.88680565 234 88 12
-1.0854915 -1.170616 0.88680565 234 88 12
-1.3679909 -1.3818591 1.7240463 234 88 12
-1.3676353 -1.3822147 1.7240463 234 88 12
-1.2710005 -1.3193345 1.4535562 234 88 12
-1.2699264 -1.3204086 1.4535562 234 88 12
-1.2688524 -1.3214827 1.4535562 234 88 12
-1.0467986 -1.209309 0.88680565 234 88 12
-1.044219 -1.2118886 0.88680565 234 88 12
-1.3095006 -1.3581362 1.5846369 234 88 12
-1.1207809 -1.1388377 0.8841328 234 88 12
-1.3696553 -1.3806788 1.7236779 234 88 12
-1.0382359 -1.2213827 0.8841328 234 88 12
-1.125116 -1.1380136 0.88145989 234 88 12
-1.119957 -1.1431727 0.88145989 234 88 12
-1.1173774 -1.1457522 0.88145989 234 88 12
-1.1070592 -1.1560704 0.88145989 234 88 12
-1.1044798 -1.1586499 0.88145989 234 88 12
-1.2606474 -1.3326114 1.4513303 234 88 12
-1.0322529 -1.2308768 0.88145989 234 88 12
-1.2839344 -1.3107866 1.4502174 234 88 12
-1.2570821 -1.3376389 1.4502174 234 88 12
-1.1234679 -1.1466837 0.87611413 234 88 12
-1.4090308 -1.4110116 1.842531 234 88 12
-1.1355416 -1.1381211 0.87344122 234 88 12
-1.3531153 -1.3204496 1.5801239 234 88 12
-1.1398766 -1.1372972 0.87076837 234 88 12
-1.132138 -1.1450357 0.87076837 234 88 12
-1.2539046 -1.3452022 1.4468784 234 88 12
-1.0186387 -1.2585351 0.87076837 234 88 12
-1.2943769 -1.3061918 1.4457655 234 88 12
-1.1511263 -1.1330695 0.86542261 234 88 12
-1.297256 -1.3047746 1.4446526 234 88 12
0.060058054 -1.4663447 2.2567971 234 88 12
0.063894764 -1.4776186 2.2906928 234 88 12
0.064183109 -1.4783882 2.2930408 234 88 12
0.062383346 -1.4664872 2.25664 234 88 12
0.053218171 -1.4381989 2.1632681 234 88 12
0.087877497 -1.3948885 2.026614 234 88 12
0.05612091 -1.3971328 2.0260575 234 88 12
0.083812512 -1.3959287 2.0260575 234 88 12
0.049774695 -1.4400406 2.1621776 234 88 12
0.062335033 -1.4394945 2.1621776 234 88 12
0.062349539 -1.3985888 2.0249443 234 88 12
0.10033476 -1.3978007 2.0243876 234 88 12
0.04907795 -1.4008228 2.0235906 234 88 12
0.021899063 -1.4007387 2.0118923 234 88 12
0.025098709 -1.4005996 2.0118923 234 88 12
0.03067545 -1.4033513 2.0224764 234 88 12
0.049707264 -1.4013255 2.0107348 234 88 12
0.049900897 -1.3962801 1.9924445 234 88 12
0.049248409 -1.3851078 1.951773 234 88 12
0.050536994 -1.3850517 1.951773 234 88 12
0.055680797 -1.3680829 1.8909684 234 88 12
0.047671527 -1.3973328 1.9918283 234 88 12
0.063324034 -1.3690282 1.8901448 234 88 12
0.077535927 -1.4417943 2.160269 234 88 12
0.063379474 -1.3703034 1.8893213 234 88 12
0.10283601 -1.3685879 1.8893213 234 88 12
0.037022132 -1.4073963 2.0196912 234 88 12
0.038048662 -1.4073517 2.0196912 234 88 12
0.062275477 -1.3877958 1.9496752 234 88 12
0.099856332 -1.369995 1.8884978 234 88 12
0.11351436 -1.3694011 1.8884978 234 88 12
0.047011662 -1.3649347 1.8545352 234 88 12
0.050294343 -1.364792 1.8545352 234 88 12
0.096876658 -1.3714021 1.8876742 234 88 12
0.16806081 -1.2199196 1.3182276 234 88 12
0.17534994 -1.2196027 1.3182276 234 88 12
0.11205225 -1.3707423 1.8876742 234 88 12
0.012572879 -1.4074295 2.0078409 234 88 12
0.025371464 -1.406873 2.0078409 234 88 12
0.075686276 -1.373601 1.8868507 234 88 12
0.074052148 -1.4075147 2.0185771 234 88 12
0.075078681 -1.4074701 2.0185771 234 88 12
0.1645494 -1.2231405 1.3162498 234 88 12
0.17548309 -1.2226651 1.3162498 234 88 12
0.038209017 -1.4072127 2.007262 234 88 12
0.16103798 -1.2263614 1.314272 234 88 12
0.10177254 -1.4072359 2.0182655 234 88 12
0.011584261 -1.4092683 2.0066833 234 88 12
0.019534783 -1.4042914 1.9881314 234 88 12
0.02521191 -1.4040446 1.9881314 234 88 12
0.063604958 -1.3683586 1.8518631 234 88 12
0.19032764 -1.2281562 1.3122942 234 88 12
0.043968841 -1.3705941 1.8509724 234 88 12
0.050534204 -1.3703088 1.8509724 234 88 12
0.063664928 -1.3697379 1.8509724 234 88 12
0.15765971 -1.2326447 1.3103164 234 88 12
0.040652014 -1.3952448 1.9454796 234 88 12
0.16508199 -1.2353903 1.3083386 234 88 12
0.17601569 -1.2349149 1.3083386 234 88 12
0.18694939 -1.2344395 1.3083386 234 88 12
0.10393617 -1.4097321 2.0165958 234 88 12
0.015117526 -1.4073511 1.9862829 234 88 12
0.025336353 -1.4069068 1.9862829 234 88 12
0.071625106 -1.3949831 1.9447803 234 88 12
0.075490855 -1.394815 1.9447803 234 88 12
0.15428145 -1.2389281 1.306361 234 88 12
0.16521513 -1.2384527 1.306361 234 88 12
0.17614883 -1.2379774 1.306361 234 88 12
0.18708253 -1.237502 1.306361 234 88 12
0.0085404739 -1.4129921 2.0043681 234 88 12
0.01280667 -1.4128066 2.0043681 234 88 12
0.037867513 -1.4073179 1.9856668 234 88 12
0.075334206 -1.3733758 1.8483002 234 88 12
0.20179394 -1.2399305 1.3043832 234 88 12
0.084250852 -1.445732 2.1575427 234 88 12
0.082144603 -1.3822633 1.881086 234 88 12
0.088214837 -1.3819994 1.881086 234 88 12
0.15090318 -1.2452115 1.3024054 234 88 12
0.12463626 -1.3804158 1.881086 234 88 12
0.011835694 -1.4103614 1.9844345 234 88 12
0.036974572 -1.399744 1.9426825 234 88 12
0.059617162 -1.4229857 2.0488818 234 88 12
0.062314201 -1.4228684 2.0488818 234 88 12
0.14739177 -1.2484324 1.3004276 234 88 12
0.16197002 -1.2477986 1.3004276 234 88 12
0.17654829 -1.2471647 1.3004276 234 88 12
0.18748198 -1.2466893 1.3004276 234 88 12
0.20206024 -1.2460555 1.3004276 234 88 12
0.037021648 -1.4008268 1.9419832 234 88 12
0.038310234 -1.4007708 1.9419832 234 88 12
0.080833495 -1.398922 1.9419832 234 88 12
0.085290603 -1.3846817 1.879439 234 88 12
0.088325724 -1.3845497 1.879439 234 88 12
0.12474713 -1.3829662 1.879439 234 88 12
0.064013012 -1.4733235 2.2696311 234 88 12
0.088764749 -1.3797008 1.8438468 234 88 12
0.12592383 -1.2585704 1.2944942 234 88 12
0.14050208 -1.2579366 1.2944942 234 88 12
0.15143578 -1.2574612 1.2944942 234 88 12
0.15508035 -1.2573028 1.2944942 234 88 12
0.16236947 -1.2569859 1.2944942 234 88 12
0.17694774 -1.2563521 1.2944942 234 88 12
0.18788143 -1.2558767 1.2944942 234 88 12
0.20245969 -1.2552428 1.2944942 234 88 12
0.21339339 -1.2547674 1.2944942 234 88 12
0.04286718 -1.3830782 1.8429561 234 88 12
0.051073883 -1.3827213 1.8429561 234 88 12
0.088706233 -1.4018341 1.9398854 234 88 12
0.16250263 -1.2600483 1.2925164 234 88 12
0.11016214 -1.3801523 1.8429561 234 88 12
0.11344482 -1.3800095 1.8429561 234 88 12
0.19165915 -1.2587806 1.2925164 234 88 12
0.20259285 -1.2583052 1.2925164 234 88 12
0.21352653 -1.2578299 1.2925164 234 88 12
0.0056135831 -1.4194046 2.0003166 234 88 12
0.042927142 -1.3844573 1.8420653 234 88 12
0.051133845 -1.3841006 1.8420653 234 88 12
0.072471276 -1.3831729 1.8420653 234 88 12
0.075753957 -1.3830301 1.8420653 234 88 12
0.087243333 -1.3825306 1.8420653 234 88 12
0.10037406 -1.3819597 1.8420653 234 88 12
0.1020154 -1.3818883 1.8420653 234 88 12
0.12669547 -1.382197 1.8411746 234 88 12
-0.098756738 -1.3056051 1.4092993 234 88 12
0.029572608 -1.4076595 1.9377875 234 88 12
0.038592692 -1.4072673 1.9377875 234 88 12
0.087430529 -1.4494004 2.1550889 234 88 12
0.11255326 -1.4188552 2.0104735 234 88 12
0.0064904192 -1.4182409 1.9795052 234 88 12
0.013302971 -1.4179447 1.9795052 234 88 12
0.025792649 -1.4174017 1.9795052 234 88 12
0.21405914 -1.2700796 1.2846053 234 88 12
0.11259073 -1.419717 2.009917 234 88 12
-0.10172347 -1.3111229 1.4058255 234 88 12
0.22512598 -1.2726667 1.2826275 234 88 12
0.0054379567 -1.4201983 1.9782728 234 88 12
0.013385934 -1.4198529 1.9782728 234 88 12
0.025875613 -1.4193097 1.9782728 234 88 12
0.22161457 -1.2758876 1.2806497 234 88 12
0.22525914 -1.2757292 1.2806497 234 88 12
0.02460658 -1.4122148 1.9349905 234 88 12
0.20896785 -1.3030035 1.4023517 234 88 12
0.13440691 -1.395322 1.8712037 234 88 12
0.060910307 -1.4320116 2.0430274 234 88 12
0.062207494 -1.4394685 2.0832906 234 88 12
0.072774157 -1.4390091 2.0832906 234 88 12
0.088527128 -1.4514676 2.1537256 234 88 12
-0.10765693 -1.3221588 1.3988781 234 88 12
0.035200156 -1.3958476 1.8349397 234 88 12
0.038482837 -1.3957049 1.8349397 234 88 12
0.049972221 -1.3952054 1.8349397 234 88 12
0.13696326 -1.3914231 1.8349397 234 88 12
0.22930315 -1.2847581 1.2747163 234 88 12
0.13755292 -1.3977404 1.8695565 234 88 12
0.04928882 -1.4340307 2.0420516 234 88 12
0.091065697 -1.3948004 1.834049 234 88 12
0.04752364 -1.4348643 2.0415637 234 88 12
0.050220679 -1.434747 2.0415637 234 88 12
0.075121172 -1.4408133 2.0820618 234 88 12
-0.11370733 -1.3305053 1.3936675 234 88 12
-0.11050674 -1.3303661 1.3936675 234 88 12
0.23334716 -1.2937869 1.2687829 234 88 12
0.21595369 -1.3161721 1.3936675 234 88 12
0.13771924 -1.4015659 1.8670859 234 88 12
-0.1135904 -1.3331946 1.3919306 234 88 12
-0.11038981 -1.3330555 1.3919306 234 88 12
0.14048581 -1.3967972 1.8313769 234 88 12
0.23712488 -1.2966909 1.2668051 234 88 12
0.015916031 -1.4201863 1.9300956 234 88 12
0.024936117 -1.4197941 1.9300956 234 88 12
0.11608835 -1.4281563 2.0040934 234 88 12
0.00082635059 -1.4321833 1.9922137 234 88 12
0.015963107 -1.4212691 1.9293963 234 88 12
0.024983196 -1.4208769 1.9293963 234 88 12
0.045407988 -1.4036945 1.8295954 234 88 12
0.05033201 -1.4034804 1.8295954 234 88 12
0.21950507 -1.3241012 1.3884569 234 88 12
0.00086531567 -1.4330795 1.991635 234 88 12
0.063182846 -1.4445094 2.080014 234 88 12
0.14230704 -1.4008633 1.8287048 234 88 12
-0.00016226804 -1.4340221 1.9910562 234 88 12
0.078305662 -1.4444872 2.0796044 234 88 12
0.24130204 -1.3087822 1.258894 234 88 12
0.13951401 -1.4078758 1.8629683 234 88 12
-0.11620634 -1.3467808 1.3832463 234 88 12
0.0025294577 -1.4317954 1.970879 234 88 12
0.012238587 -1.4246855 1.9272985 234 88 12
0.04887056 -1.4076893 1.8269234 234 88 12
0.0505119 -1.407618 1.8269234 234 88 12
0.04031571 -1.3160251 1.2271757 234 88 12
0.061728474 -1.4458435 2.0791948 234 88 12
0.2414352 -1.3118447 1.2569162 234 88 12
-0.11608941 -1.3494701 1.3815094 234 88 12
0.012789767 -1.4323051 1.9702628 234 88 12
0.061001286 -1.4465104 2.0787852 234 88 12
0.062510811 -1.4464447 2.0787852 234 88 12
0.079870336 -1.44569 2.0787852 234 88 12
0.052537456 -1.4629271 2.1832421 234 88 12
0.057052914 -1.4694861 2.2277517 234 88 12
0.037063923 -1.4428874 2.0366852 234 88 12
0.24547921 -1.3208736 1.2509828 234 88 12
0.11840393 -1.434105 2.0001938 234 88 12
0.091277815 -1.4568465 2.1501813 234 88 12
-0.11573862 -1.3575382 1.3762989 234 88 12
0.058504313 -1.4714786 2.2408655 234 88 12
0.14594951 -1.4089956 1.8233606 234 88 12
0.22672477 -1.3426486 1.3762989 234 88 12
0.036230598 -1.4444374 2.0357094 234 88 12
0.038028624 -1.4443592 2.0357094 234 88 12
0.24939007 -1.32684 1.2470272 234 88 12
0.048308205 -1.4502393 2.0767372 234 88 12
0.000548977 -1.4385725 1.9665658 234 88 12
0.0061252071 -1.4325449 1.9224036 234 88 12
0.012568126 -1.4322648 1.9224036 234 88 12
0.24965638 -1.3329649 1.2430717 234 88 12
0.1446211 -1.4204296 1.854733 234 88 12
1.1619887 0.11264966 2.1542206 234 88 12
1.1604323 0.12536544 2.1542206 234 88 12
1.1631873 0.11064532 2.1537261 234 88 12
1.1629279 0.11276461 2.1537261 234 88 12
1.1613715 0.1254804 2.1537261 234 88 12
1.1599448 0.13713652 2.1537261 234 88 12
1.1578549 0.11137862 2.1360266 234 88 12
1.1577168 0.1125067 2.1360266 234 88 12
1.1587167 0.11262908 2.1355004 234 88 12
1.1602668 0.15008222 2.1527376 234 88 12
1.1581976 0.12516032 2.1349742 234 88 12
1.1577834 0.12854457 2.1349742 234 88 12
1.1566788 0.1375692 2.1349742 234 88 12
1.1607184 0.16196826 2.1517489 234 88 12
1.1494697 0.10495999 2.0953791 234 88 12
1.1586785 0.13781396 2.1339216 234 88 12
1.1496642 0.11278036 2.0947819 234 88 12
1.1581595 0.15034521 2.1333952 234 88 12
1.1577452 0.15372944 2.1333952 234 88 12
1.1566406 0.16275407 2.1333952 234 88 12
1.1705399 0.10509212 2.1502657 234 88 12
1.2545261 0.15361597 2.4187503 234 88 12
1.1579499 0.16863923 2.1323428 234 88 12
1.1851709 0.12103971 2.1913314 234 88 12
1.1649269 0.17431413 2.1487827 234 88 12
1.1570615 0.099392086 2.0917954 234 88 12
1.1861812 0.11935022 2.1909146 234 88 12
1.1855253 0.1247094 2.1909146 234 88 12
1.1539274 0.12499702 2.0917954 234 88 12
1.1602591 0.17464676 2.130764 234 88 12
1.1581961 0.099530973 2.0911982 234 88 12
1.1580395 0.10081122 2.0911982 234 88 12
1.1975852 0.12717515 2.227267 234 88 12
1.156159 0.11617418 2.0911982 234 88 12
1.1550621 0.12513591 2.0911982 234 88 12
1.1534951 0.13793838 2.0911982 234 88 12
1.1710956 0.10269446 2.1297114 234 88 12
1.1582718 0.1177322 2.0900037 234 88 12
1.1730953 0.10293922 2.1286588 234 88 12
1.1584662 0.12555256 2.0894065 234 88 12
1.0119816 0.11256947 1.5993853 234 88 12
1.1679865 0.14467815 2.1286588 234 88 12
1.1672961 0.15031855 2.1286588 234 88 12
1.1637062 0.17964861 2.1286588 234 88 12
1.0151893 0.10973455 1.5979018 234 88 12
1.1586986 0.14247355 2.0882118 234 88 12
1.1708527 0.18041706 2.1453221 234 88 12
1.0216045 0.10406473 1.5949348 234 88 12
1.01888 0.12632391 1.5949348 234 88 12
1.1707098 0.14730145 2.12708 234 88 12
1.1704338 0.14955761 2.12708 234 88 12
1.1902187 0.13888253 2.1875811 234 88 12
1.0244229 0.10440969 1.5934513 234 88 12
1.0232552 0.11394934 1.5934513 234 88 12
1.0216984 0.12666889 1.5934513 234 88 12
1.2012501 0.14132378 2.2244682 234 88 12
1.1835587 0.10776114 2.1433446 234 88 12
1.1952175 0.11773651 2.1863308 234 88 12
1.1635885 0.14956923 2.0852256 234 88 12
1.1706779 0.10105874 2.0846281 234 88 12
1.0364749 0.099429801 1.5875173 234 88 12
1.0360857 0.10260969 1.5875173 234 88 12
1.0349181 0.11214934 1.5875173 234 88 12
1.0333612 0.12486888 1.5875173 234 88 12
1.2500144 0.15358779 2.401849 234 88 12
1.1711526 0.18513995 2.1244485 234 88 12
1.1870561 0.11034027 2.1413672 234 88 12
1.1956246 0.13410474 2.1850808 234 88 12
1.1654257 0.16278836 2.0834336 234 88 12
1.2447025 0.15534136 2.3819048 234 88 12
1.1779771 0.18451566 2.1413672 234 88 12
1.1835412 0.10879771 2.1228697 234 88 12
1.0402595 0.13862333 1.5830667 234 88 12
1.2204736 0.15673137 2.2883291 234 88 12
1.2077383 0.12689565 2.2220194 234 88 12
1.0481377 0.097629793 1.5815831 234 88 12
1.0477484 0.10080968 1.5815831 234 88 12
1.0461916 0.11352921 1.5815831 234 88 12
1.0403534 0.16122749 1.5815831 234 88 12
1.1857895 0.15807933 2.1508579 234 88 12
1.1750138 0.18675755 2.1223433 234 88 12
1.0509561 0.097974762 1.5800997 234 88 12
1.0505669 0.10115465 1.5800997 234 88 12
1.04901 0.11387418 1.5800997 234 88 12
1.0474532 0.12659372 1.5800997 234 88 12
1.0458963 0.13931327 1.5800997 234 88 12
1.0455071 0.14249314 1.5800997 234 88 12
1.0443394 0.15203281 1.5800997 234 88 12
1.1861941 0.16226952 2.150382 234 88 12
1.2450143 0.15596306 2.3817036 234 88 12
1.1905534 0.11291939 2.1393898 234 88 12
1.2077825 0.13755666 2.2213197 234 88 12
1.22119 0.16188546 2.2876306 234 88 12
1.0598005 0.095829785 1.5756491 234 88 12
1.0590221 0.10218956 1.5756491 234 88 12
1.1834825 0.18626504 2.138401 234 88 12
1.0606728 0.11207418 1.5741656 234 88 12
1.0591159 0.12479372 1.5741656 234 88 12
1.1813982 0.1075686 2.0786555 234 88 12
1.1925863 0.14752443 2.1480031 234 88 12
1.1911258 0.11316098 2.1186595 234 88 12
1.0714632 0.094029777 1.569715 234 88 12
1.1846457 0.10926551 2.0768638 234 88 12
1.0742817 0.094374746 1.5682316 234 88 12
1.0735033 0.10073452 1.5682316 234 88 12
1.0719464 0.11345406 1.5682316 234 88 12
1.1957974 0.1437768 2.1465757 234 88 12
1.1881784 0.18683982 2.1359293 234 88 12
1.208129 0.12384976 2.1792469 234 88 12
1.0859444 0.092574738 1.5622975 234 88 12
1.0847768 0.10211439 1.5622975 234 88 12
1.195918 0.17277621 2.1446724 234 88 12
1.1956683 0.17481598 2.1446724 234 88 12
1.2032486 0.13537233 2.143245 234 88 12
1.1934099 0.1129371 2.0720854 234 88 12
1.2187617 0.13052824 2.2160721 234 88 12
1.2179356 0.13727716 2.2160721 234 88 12
1.0979965 0.087594844 1.5563635 234 88 12
1.1920111 0.18883801 2.1133966 234 88 12
1.101204 0.084759928 1.5548799 234 88 12
1.1008148 0.087939814 1.5548799 234 88 12
1.2207556 0.13077229 2.2150226 234 88 12
1.2073637 0.13173535 2.1413417 234 88 12
1.201871 0.17661037 2.1413417 234 88 12
1.1104376 0.079435073 1.5504295 234 88 12
1.2083925 0.1308261 2.140866 234 88 12
1.1773878 0.14328381 1.973894 234 88 12
1.1765894 0.14980671 1.973894 234 88 12
1.1168529 0.073765241 1.5474623 234 88 12
1.1812764 0.13548402 1.9723724 234 88 12
1.1831211 0.1323995 1.9716117 234 88 12
1.1839676 0.13746858 1.9708509 234 88 12
1.192772 0.19342349 2.0673072 234 88 12
1.1838161 0.15069124 1.9700902 234 88 12
1.207949 0.17942463 2.1380112 234 88 12
1.1950414 0.19370127 2.0661128 234 88 12
1.2155939 0.1244614 2.1375353 234 88 12
1.1901 0.12332281 1.9685686 234 88 12
1.1935894 0.11878446 1.967047 234 88 12
1.1927911 0.12530734 1.967047 234 88 12
1.1911943 0.13835311 1.967047 234 88 12
1.189797 0.14976816 1.967047 234 88 12
1.1882002 0.16281393 1.967047 234 88 12
1.1952344 0.11733065 1.9662862 234 88 12
1.2335314 0.16744916 2.2808774 234 88 12
1.1956818 0.12566116 1.9655254 234 88 12
1.2207378 0.11991517 2.1351562 234 88 12
1.1957299 0.13725312 1.9647647 234 88 12
1.1955785 0.1504758 1.9640039 234 88 12
1.2018142 0.1115154 1.9632431 234 88 12
1.1956266 0.16206776 1.9632431 234 88 12
1.2072375 0.13628751 1.995553 234 88 12
1.2070529 0.13779525 1.995553 234 88 12
1.2055767 0.14985718 1.995553 234 88 12
1.2085935 0.10406943 1.9602 234 88 12
1.2094966 0.12891237 1.9948496 234 88 12
1.2083893 0.13795882 1.9948496 234 88 12
1.2054366 0.16208267 1.9948496 234 88 12
1.1998111 0.17582116 1.9602 234 88 12
1.2090409 0.11239994 1.9594392 234 88 12
1.2082493 0.1501843 1.9941461 234 88 12
1.2132766 0.12019307 1.9934428 234 88 12
1.2081093 0.1624098 1.9934428 234 88 12
1.2066329 0.17447172 1.9934428 234 88 12
1.2079692 0.17463529 1.9927393 234 88 12
1.2383368 0.16854398 2.2783155 234 88 12
1.2309008 0.11184262 2.1303983 234 88 12
1.2151732 0.098254174 1.9571569 234 88 12
1.2183928 0.11163733 1.9913325 234 88 12
1.2182083 0.11314507 1.9913325 234 88 12
1.2167319 0.12520699 1.9913325 234 88 12
1.2152556 0.13726892 1.9913325 234 88 12
1.2135947 0.15083858 1.9913325 234 88 12
1.2121183 0.16290051 1.9913325 234 88 12
1.210642 0.17496243 1.9913325 234 88 12
1.2056407 0.18812074 1.9563961 234 88 12
1.2329583 0.11002413 2.1294465 234 88 12
1.2200983 0.10878541 1.9906291 234 88 12
1.2258687 0.1681447 2.1297047 234 88 12
1.2203077 0.092262015 1.9548745 234 88 12
1.220881 0.1134722 1.9899257 234 88 12
1.2118382 0.18735148 1.9899257 234 88 12
1.2348911 0.10922553 2.128495 234 88 12
1.2219527 0.090808205 1.9541137 234 88 12
1.2207409 0.12569769 1.9892223 234 88 12
1.2284232 0.16225192 2.1287539 234 88 12
1.2269266 0.17447966 2.1287539 234 88 12
1.220601 0.13792318 1.988519 234 88 12
1.2295759 0.1603245 2.1282785 234 88 12
1.22692 0.097377762 1.9878155 234 88 12
1.2204609 0.15014867 1.9878155 234 88 12
1.227087 0.084816046 1.9518315 234 88 12
1.1870253 0.051572569 1.3808647 234 88 12
1.1856956 0.062435526 1.3808647 234 88 12
1.1839229 0.076919466 1.3808647 234 88 12
1.1825932 0.08778242 1.3808647 234 88 12
1.1808205 0.10226636 1.3808647 234 88 12
1.1794908 0.11312932 1.3808647 234 88 12
1.2333777 0.14424191 2.1273279 234 88 12
1.1924506 0.033860464 1.3791755 234 88 12
1.1920075 0.03748145 1.3791755 234 88 12
1.2537946 0.15216766 2.4033473 234 88 12
1.1835866 0.10628017 1.3791755 234 88 12
1.1809274 0.12800609 1.3791755 234 88 12
1.2336572 0.14944737 2.1268525 234 88 12
1.1969897 0.023390332 1.3774862 234 88 12
1.1965464 0.027011316 1.3774862 234 88 12
1.1952169 0.037874274 1.3774862 234 88 12
1.1850231 0.12115693 1.3774862 234 88 12
1.1845798 0.12477792 1.3774862 234 88 12
1.1828071 0.13926186 1.3774862 234 88 12
1.1823639 0.14288284 1.3774862 234 88 12
1.232939 0.16280463 2.1263771 234 88 12
1.253625 0.14936444 2.3941941 234 88 12
1.2335572 0.087477848 1.9850019 234 88 12
1.1846868 0.15051764 1.3757969 234 88 12
1.2204545 0.19452742 1.9850019 234 88 12
1.2338665 0.07737007 1.9487883 234 88 12
1.2350781 0.086133674 1.9842985 234 88 12
1.2060676 0.002450065 1.3741076 234 88 12
1.2332486 0.17525347 2.1254263 234 88 12
1.2101634 -0.0043990836 1.3724183 234 88 12
1.2092769 0.0028428871 1.3724183 234 88 12
1.2079474 0.013705842 1.3724183 234 88 12
1.1897759 0.16216624 1.3724183 234 88 12
1.2371563 0.074462444 1.9472667 234 88 12
1.1912124 0.17704299 1.370729 234 88 12
1.2451789 0.10013308 2.1237369 234 88 12
1.2179117 -0.014476395 1.3690397 234 88 12
1.2174685 -0.010855409 1.3690397 234 88 12
1.2161388 7.5459257e-06 1.3690397 234 88 12
1.1975242 0.15208893 1.3690397 234 88 12
1.1961946 0.16295189 1.3690397 234 88 12
1.194865 0.17381483 1.3690397 234 88 12
1.1944218 0.17743582 1.3690397 234 88 12
1.2462077 0.099223837 2.123261 234 88 12
1.2215643 -0.017704558 1.3673503 234 88 12
1.2206779 -0.010462588 1.3673503 234 88 12
1.1976311 0.17782864 1.3673503 234 88 12
1.1963015 0.1886916 1.3673503 234 88 12
1.2520822 0.15843295 2.3778815 234 88 12
1.2225575 0.00079319003 1.3656611 234 88 12
1.2013906 0.2003402 1.3639718 234 88 12
1.2324868 0.19828455 2.0464027 234 88 12
1.2451813 0.068824105 1.9434628 234 88 12
1.2457243 0.076724455 1.9793746 234 88 12
1.2325219 -0.027389048 1.3622825 234 88 12
1.2094752 0.16090219 1.3622825 234 88 12
1.2090319 0.16452317 1.3622825 234 88 12
1.2077024 0.17538613 1.3622825 234 88 12
1.2357312 -0.026996225 1.3605932 234 88 12
1.235288 -0.023375239 1.3605932 234 88 12
1.2335153 -0.0088912994 1.3605932 234 88 12
1.2091389 0.19026288 1.3605932 234 88 12
1.2078093 0.20112585 1.3605932 234 88 12
1.2482717 0.067547202 1.9419413 234 88 12
1.209689 0.21238162 1.3589039 234 88 12
1.2453593 -0.025817759 1.3555253 234 88 12
1.2449161 -0.022196773 1.3555253 234 88 12
1.2435864 -0.011333819 1.3555253 234 88 12
1.2227558 0.15885249 1.3555253 234 88 12
1.2223126 0.16247347 1.3555253 234 88 12
1.2205398 0.17695741 1.3555253 234 88 12
1.2196534 0.18419938 1.3555253 234 88 12
1.2192101 0.18782036 1.3555253 234 88 12
1.2174374 0.2023043 1.3555253 234 88 12
1.2161077 0.21316727 1.3555253 234 88 12
0.12518729 1.193781 2.2293661 234 88 12
0.12443741 1.1938727 2.2293661 234 88 12
0.12074902 1.182796 2.1925814 234 88 12
0.11851974 1.1952716 2.2290163 234 88 12
0.11191395 1.1846808 2.1921647 234 88 12
0.12918074 1.195316 2.2283165 234 88 12
0.10039456 1.1546353 2.0929899 234 88 12
0.099114314 1.1547921 2.0929899 234 88 12
0.1164328 1.1968763 2.2283165 234 88 12
0.1246125 1.1847336 2.1913314 234 88 12
0.1256026 1.185416 2.1909146 234 88 12
0.12381621 1.1856346 2.1909146 234 88 12
0.10583394 1.1686817 2.130764 234 88 12
0.091710605 1.1580017 2.0917954 234 88 12
0.10721245 1.1572559 2.0911982 234 88 12
0.10031592 1.1703719 2.1302376 234 88 12
0.099187844 1.1705101 2.1302376 234 88 12
0.09056925 1.1592931 2.0911982 234 88 12
0.086728506 1.1597631 2.0911982 234 88 12
0.10863159 1.1582339 2.090601 234 88 12
0.15557553 1.2501104 2.4050415 234 88 12
0.1115904 1.2008419 2.2265673 234 88 12
0.1568663 1.247543 2.3968723 234 88 12
0.11196385 1.1719908 2.1286588 234 88 12
0.099554978 1.1735095 2.1286588 234 88 12
0.20611304 1.1227537 1.998239 234 88 12
0.11288899 1.161168 2.088809 234 88 12
0.11321431 1.1728525 2.1281326 234 88 12
0.27423024 0.96432632 1.4822227 234 88 12
0.27060926 0.96476954 1.4822227 234 88 12
0.27824405 0.96709245 1.4805334 234 88 12
0.27100208 0.96797889 1.4805334 234 88 12
0.26013911 0.9693085 1.4805334 234 88 12
0.19831325 1.1266425 1.9967175 234 88 12
0.13741168 1.2003797 2.225168 234 88 12
0.10741628 1.1807412 2.1448278 234 88 12
0.21316664 1.1262914 1.9959567 234 88 12
0.27139491 0.97118825 1.478844 234 88 12
0.26053193 0.97251785 1.478844 234 88 12
0.28627166 0.97262472 1.4771547 234 88 12
0.24644083 0.97750002 1.4771547 234 88 12
0.10658655 1.1827493 2.1438391 234 88 12
0.28666449 0.97583407 1.4754655 234 88 12
0.081577256 1.1707591 2.0858228 234 88 12
0.24722646 0.98391873 1.4737762 234 88 12
0.19086727 1.1334218 1.9936743 234 88 12
0.1121147 1.1839792 2.1428504 234 88 12
0.27658716 0.98358244 1.4720869 234 88 12
0.27296618 0.9840256 1.4720869 234 88 12
0.25848225 0.98579842 1.4720869 234 88 12
0.23313534 0.9889009 1.4720869 234 88 12
0.18615203 1.135466 1.9929135 234 88 12
0.099513873 1.1864747 2.1423559 234 88 12
0.21731263 1.1331189 1.9921528 234 88 12
0.29146394 0.98501897 1.4703976 234 88 12
0.093887918 1.1833365 2.1239221 234 88 12
0.21912026 1.1343646 1.991392 234 88 12
0.29185677 0.98822832 1.4687083 234 88 12
0.28461477 0.9891147 1.4687083 234 88 12
0.27375183 0.9904443 1.4687083 234 88 12
0.2592679 0.99221712 1.4687083 234 88 12
0.19608541 1.1456639 2.0236893 234 88 12
0.18553123 1.1469557 2.0236893 234 88 12
0.22667903 0.99620599 1.4687083 234 88 12
0.22305804 0.99664921 1.4687083 234 88 12
0.18324439 1.1387558 1.991392 234 88 12
0.15897773 1.2024622 2.222719 234 88 12
0.13499795 1.1955153 2.1850808 234 88 12
0.12182046 1.1704401 2.0834336 234 88 12
0.11457886 1.1865373 2.1413672 234 88 12
0.11139992 1.1869264 2.1413672 234 88 12
0.098684132 1.1884828 2.1413672 234 88 12
0.2007722 1.1464466 2.0229857 234 88 12
0.17363697 1.1413988 1.9906312 234 88 12
0.11443811 1.1828508 2.1228697 234 88 12
0.27815846 0.99641979 1.4653296 234 88 12
0.12465873 1.1723962 2.0822392 234 88 12
0.29665622 0.99741316 1.4636405 234 88 12
0.17396 1.1524411 2.021579 234 88 12
0.13707504 1.1976715 2.1838307 234 88 12
0.17090626 1.146134 1.9883488 234 88 12
0.16129884 1.1487769 1.987588 234 88 12
0.14363703 1.2077129 2.2209699 234 88 12
0.17484008 1.187408 2.1489546 234 88 12
0.1738202 1.1875328 2.1489546 234 88 12
0.29822749 1.0102506 1.4568832 234 88 12
0.17159879 1.1581556 2.0187654 234 88 12
0.097369529 1.1953164 2.1379068 234 88 12
0.22379696 1.1455282 1.9853058 234 88 12
0.3022413 1.0130167 1.4551939 234 88 12
0.29862031 1.0134599 1.4551939 234 88 12
0.15375765 1.0584314 1.5726821 234 88 12
0.13317353 1.1782641 2.0786555 234 88 12
0.1242118 1.1793611 2.0786555 234 88 12
0.10596167 1.1952181 2.1374123 234 88 12
0.19604978 1.1578755 2.0173585 234 88 12
0.16137174 1.1621201 2.0173585 234 88 12
0.14774285 1.0620282 1.5711986 234 88 12
0.12556985 1.1896069 2.1186595 234 88 12
0.11349417 1.1952493 2.1369181 234 88 12
0.22415079 1.1484189 1.9837842 234 88 12
0.209783 1.1575509 2.0166552 234 88 12
0.20676753 1.15792 2.0166552 234 88 12
0.19772108 1.1590273 2.0166552 234 88 12
0.16100425 1.1927714 2.1470513 234 88 12
0.16304305 1.1632719 2.0166552 234 88 12
0.16153531 1.1634564 2.0166552 234 88 12
0.14753403 1.1788099 2.077461 234 88 12
0.12526526 1.1947619 2.1364236 234 88 12
0.087337539 1.1953013 2.1181331 234 88 12
0.30341977 1.0226448 1.4501261 234 88 12
0.2961778 1.0235312 1.4501261 234 88 12
0.1558374 1.1582474 1.9830234 234 88 12
0.14931452 1.1590457 1.9830234 234 88 12
0.13889313 1.0688326 1.5682316 234 88 12
0.13571325 1.0692219 1.5682316 234 88 12
0.078475319 1.0762278 1.5682316 234 88 12
0.072115555 1.0770062 1.5682316 234 88 12
0.059396014 1.0785631 1.5682316 234 88 12
0.13605821 1.0720402 1.566748 234 88 12
0.12333868 1.0735971 1.566748 234 88 12
0.11061914 1.0751539 1.566748 234 88 12
0.097899601 1.0767108 1.566748 234 88 12
0.047021441 1.0829383 1.566748 234 88 12
0.043841559 1.0833275 1.566748 234 88 12
0.034301903 1.0844952 1.566748 234 88 12
0.077398226 1.1896979 2.0762663 234 88 12
0.16337594 1.1952336 2.1456239 234 88 12
0.16133617 1.1954832 2.1456239 234 88 12
0.066445723 1.0834213 1.5652646 234 88 12
0.060085952 1.0841998 1.5652646 234 88 12
0.021927333 1.0888704 1.5652646 234 88 12
0.086576603 1.1984389 2.1165543 234 88 12
0.29373527 1.0336024 1.4450581 234 88 12
0.089049883 1.0835153 1.563781 234 88 12
0.085869998 1.0839045 1.563781 234 88 12
0.088955142 1.1991626 2.1160281 234 88 12
0.086698979 1.1994387 2.1160281 234 88 12
0.30137008 1.0359254 1.4433688 234 88 12
0.29774907 1.0363685 1.4433688 234 88 12
0.17787564 1.1952938 2.1446724 234 88 12
0.15179896 1.17143 2.0131381 234 88 12
0.11483394 1.08322 1.5622975 234 88 12
0.11165405 1.0836092 1.5622975 234 88 12
0.22521223 1.1570909 1.9792194 234 88 12
0.22358152 1.1572905 1.9792194 234 88 12
0.14894705 1.1731354 2.0124347 234 88 12
0.14693762 1.1666716 1.9792194 234 88 12
0.03568178 1.0957687 1.560814 234 88 12
0.022962241 1.0973256 1.560814 234 88 12
0.22538915 1.1585362 1.9784588 234 88 12
0.22375843 1.1587359 1.9784588 234 88 12
0.058285944 1.0958626 1.5593305 234 88 12
0.048746288 1.0970303 1.5593305 234 88 12
0.29892755 1.0459965 1.438301 234 88 12
0.29530656 1.0464398 1.438301 234 88 12
0.19299866 1.1704562 2.0110278 234 88 12
0.14076856 1.1703607 1.977698 234 88 12
0.13587639 1.1709595 1.977698 234 88 12
0.080890104 1.0959564 1.557847 234 88 12
0.074530341 1.0967349 1.557847 234 88 12
0.20522414 1.1703162 2.0103245 234 88 12
0.1487415 1.2025298 2.1427691 234 88 12
0.10667416 1.0956612 1.5563635 234 88 12
0.097134501 1.0968288 1.5563635 234 88 12
0.10701913 1.0984795 1.5548799 234 88 12
0.09747947 1.0996472 1.5548799 234 88 12
0.084759928 1.101204 1.5548799 234 88 12
0.072040394 1.1027609 1.5548799 234 88 12
0.059320852 1.1043178 1.5548799 234 88 12
0.049781196 1.1054854 1.5548799 234 88 12
0.037061658 1.1070423 1.5548799 234 88 12
0.097804308 1.2076557 2.1314802 234 88 12
0.050126165 1.1083038 1.5533965 234 88 12
0.046946283 1.108693 1.5533965 234 88 12
0.034226742 1.1102499 1.5533965 234 88 12
0.1053368 1.2076869 2.1309857 234 88 12
0.30411983 1.0583907 1.4315437 234 88 12
0.29687786 1.0592772 1.4315437 234 88 12
0.21174581 1.173587 2.0082142 234 88 12
0.17865013 1.2016214 2.1413417 234 88 12
0.1735507 1.2022456 2.1413417 234 88 12
0.16131206 1.2037436 2.1413417 234 88 12
0.14907342 1.2052416 2.1413417 234 88 12
0.072730333 1.1083977 1.5519129 234 88 12
0.11286929 1.2077181 2.1304915 234 88 12
0.11540584 1.0967072 1.4975984 234 88 12
0.10230793 1.1182086 1.6103007 234 88 12
0.10626909 1.135959 1.7135834 234 88 12
0.11754 1.1691867 1.9095967 234 88 12
0.097302258 1.1280293 1.6624538 234 88 12
0.085794836 1.1096593 1.5504295 234 88 12
0.078464657 1.1015824 1.4996012 234 88 12
0.06220299 1.0918236 1.4330537 234 88 12
0.057581704 1.0969774 1.4590409 234 88 12
0.04371611 1.0933852 1.4290826 234 88 12
0.042476259 1.1074876 1.5080981 234 88 12
0.090056553 1.2081611 2.1112914 234 88 12
0.14419527 1.2076737 2.1403902 234 88 12
0.13517818 1.1856716 2.0068076 234 88 12
0.10714872 1.0940244 1.4571279 234 88 12
0.11164974 1.1508886 1.7890651 234 88 12
0.12303843 1.1832485 1.9842088 234 88 12
0.06259454 1.0950224 1.4313699 234 88 12
0.1108463 1.1828251 1.9731332 234 88 12
0.04410924 1.0965971 1.427392 234 88 12
0.046172772 1.1100351 1.5065423 234 88 12
0.22354297 1.1704981 1.9723724 234 88 12
0.15144512 1.2077037 2.1399143 234 88 12
0.10341956 1.095682 1.4439104 234 88 12
0.09937945 1.1050481 1.4962823 234 88 12
0.12350881 1.1767905 1.9372368 234 88 12
0.12406898 1.1826737 1.9723724 234 88 12
0.12243826 1.1828732 1.9723724 234 88 12
0.14833236 1.2438955 2.3513174 234 88 12
0.14546657 1.2387458 2.3188465 234 88 12
0.15092891 1.2500237 2.3893707 234 88 12
0.10876346 1.1805248 1.9486276 234 88 12
0.049869288 1.1125826 1.5049866 234 88 12
0.046534542 1.1129907 1.5049866 234 88 12
0.30569112 1.0712281 1.4247866 234 88 12
0.29844916 1.0721146 1.4247866 234 88 12
0.096690647 1.0997058 1.4422507 234 88 12
0.12896352 1.1918176 2.0215175 234 88 12
0.12910245 1.1958215 2.0457642 234 88 12
0.055030897 1.1220067 1.5459789 234 88 12
0.13619938 1.2321906 2.2703125 234 88 12
0.042311359 1.1235634 1.5459789 234 88 12
0.11544842 1.2112155 2.1285141 234 88 12
0.11120982 1.2117343 2.1285141 234 88 12
0.099553689 1.213161 2.1285141 234 88 12
0.16594481 1.2077639 2.1389627 234 88 12
0.14973502 1.2480913 2.3752356 234 88 12
0.13625836 1.2326723 2.2700589 234 88 12
0.2127272 1.1816051 2.0039937 234 88 12
0.21121947 1.1817896 2.0039937 234 88 12
0.20217302 1.1828969 2.0039937 234 88 12
0.19915755 1.1832659 2.0039937 234 88 12
0.12829375 1.1919396 2.0039937 234 88 12
0.1481169 1.2420243 2.3347795 234 88 12
0.14031737 1.2369456 2.2967737 234 88 12
0.110366 1.1986566 2.0324836 234 88 12
0.039821412 1.1295894 1.5430119 234 88 12
0.2242506 1.1762795 1.9693294 234 88 12
0.21439852 1.1827569 2.0032904 234 88 12
0.1814644 1.2076993 2.1380112 234 88 12
0.13658939 1.213192 2.1380112 234 88 12
0.30726239 1.0840656 1.4180293 234 88 12
0.12570684 1.2172714 2.1495976 234 88 12
0.12706307 1.2204167 2.1714244 234 88 12
0.29206723 1.1072966 1.5385613 234 88 12
0.16634253 1.2327687 2.281343 234 88 12
0.16135089 1.2333796 2.281343 234 88 12
0.12839946 1.2118375 2.1087751 234 88 12
0.13399997 1.2268134 2.2144494 234 88 12
0.13335681 1.2308871 2.241405 234 88 12
0.18689576 1.209787 2.1365836 234 88 12
0.14892597 1.2353495 2.28111 234 88 12
0.14222124 1.2313261 2.2476373 234 88 12
0.13776393 1.2306529 2.2392149 234 88 12
0.12428588 1.2220237 2.1681862 234 88 12
0.12172078 1.221457 2.1621003 234 88 12
0.13851847 1.2288039 2.2223327 234 88 12
0.13514915 1.2259212 2.1990023 234 88 12
0.12094632 1.2117599 2.0864267 234 88 12
0.1284692 1.2241627 2.1807628 234 88 12
0.12380129 1.219788 2.1457419 234 88 12
0.096131273 1.1978292 1.9662862 234 88 12
0.0830855 1.1994259 1.9662862 234 88 12
0.15342976 1.2547082 2.4186678 234 88 12
0.097179435 1.2201245 2.1250534 234 88 12
0.30883369 1.096903 1.4112722 234 88 12
0.12743068 1.1994292 1.9942981 234 88 12
0.12437587 1.199803 1.9942981 234 88 12
0.13322784 1.2220135 2.1633782 234 88 12
0.1271375 1.2206528 2.1480913 234 88 12
0.10921059 1.2055585 2.0226014 234 88 12
0.12232901 1.2098893 2.0565853 234 88 12
0.12235495 1.2168827 2.1086767 234 88 12
0.11889528 1.2208627 2.1351562 234 88 12
0.13511187 1.2383875 2.2804115 234 88 12
0.088140868 1.2205734 2.1049759 234 88 12
0.1176774 1.1964194 1.9397542 234 88 12
0.13163573 1.2208736 2.1396687 234 88 12
0.11280457 1.1999477 1.9621571 234 88 12
0.11138689 1.2083968 2.0253925 234 88 12
0.11980129 1.2202432 2.1237838 234 88 12
0.22403516 1.1880418 1.9632431 234 88 12
0.30639118 1.1069742 1.4062042 234 88 12
0.11197969 1.1948309 1.9088916 234 88 12
0.11295098 1.2094747 2.0247343 234 88 12
0.11263877 1.2108281 2.035054 234 88 12
0.11257971 1.2123581 2.0470037 234 88 12
0.088385627 1.222573 2.1039236 234 88 12
0.306784 1.1101836 1.4045149 234 88 12
0.2113474 1.1953375 1.9969598 234 88 12
0.21603419 1.1961203 1.9962564 234 88 12
0.30835527 1.123021 1.3977578 234 88 12
0.17778178 1.2201058 2.1320817 234 88 12
0.1738164 1.2215078 2.1316063 234 88 12
0.30551994 1.1298829 1.3943791 234 88 12
0.17303646 1.2377869 2.2783155 234 88 12
0.18717368 1.2207896 2.1311309 234 88 12
0.30591276 1.1330923 1.3926898 234 88 12
0.21567142 1.2056592 1.9913325 234 88 12
0.096554562 1.2325933 2.1186268 234 88 12
0.21599855 1.2083318 1.9899257 234 88 12
0.09198796 1.2332952 2.0981343 234 88 12
0.17430553 1.2398769 2.2771513 234 88 12
0.19282129 1.2246816 2.1287539 234 88 12
0.18670741 1.2254299 2.1287539 234 88 12
0.17346069 1.2270514 2.1287539 234 88 12
0.16145402 1.2303543 2.1278033 234 88 12
0.14922628 1.231851 2.1278033 234 88 12
0.12849085 1.2463826 2.2766855 234 88 12
0.09924864 1.2370298 2.1161549 234 88 12
0.10042325 1.2378393 2.1156607 234 88 12
0.16586158 1.2325648 2.1263771 234 88 12
0.18034837 1.232625 2.1254263 234 88 12
0.18759176 1.232655 2.1249509 234 88 12
0.099857852 1.2414652 2.0933979 234 88 12
0.21914196 1.2215106 1.9828917 234 88 12
0.086231314 1.2386497 1.9457451 234 88 12
0.11099468 1.2451247 2.1112115 234 88 12
0.10598776 1.2447742 2.0912926 234 88 12
0.11322893 1.2458044 2.1107171 234 88 12
0.1083663 1.2454979 2.0907664 234 88 12
0.31298357 1.1908605 1.3622825 234 88 12
0.13762644 1.250653 2.273891 234 88 12
0.11791372 1.2466725 2.1218336 234 88 12
0.11425146 1.2468072 2.0897138 234 88 12
0.12935376 1.2471073 2.120882 234 88 12
0.31054103 1.2009318 1.3572146 234 88 12
0.14884648 1.2456475 2.1206725 234 88 12
0.11990719 1.2433299 1.9411805 234 88 12
0.13064313 1.247486 2.1087396 234 88 12
0.12803318 1.2471499 2.0886612 234 88 12
0.15405191 1.245927 2.1201971 234 88 12
0.13496666 1.2459954 2.0434163 234 88 12
-1.3337297 1.3150599 1.9654502 234 88 12
-1.0150372 1.0235424 1.0754118 234 88 12
-1.0201588 1.0183463 1.0754118 234 88 12
-1.0227196 1.0157481 1.0754118 234 88 12
-1.3314263 1.3121605 1.9574282 234 88 12
-1.0060006 1.0402466 1.0703875 234 88 12
-1.0085615 1.0376486 1.0703875 234 88 12
-1.0136832 1.0324523 1.0703875 234 88 12
-1.0213658 1.0246581 1.0703875 234 88 12
-1.0264875 1.019462 1.0703875 234 88 12
-1.03417 1.0116677 1.0703875 234 88 12
-1.0027628 1.0472996 1.0678753 234 88 12
-0.99884802 1.0588076 1.062851 234 88 12
-1.0090914 1.0484153 1.062851 234 88 12
-1.0218956 1.0354249 1.062851 234 88 12
-1.0346999 1.0224346 1.062851 234 88 12
-0.99561024 1.0658607 1.0603389 234 88 12
-1.2002255 1.2096876 1.5967941 234 88 12
-1.202358 1.2075239 1.5967941 234 88 12
-1.2076896 1.2021149 1.5967941 234 88 12
-0.99493325 1.0703157 1.0578266 234 88 12
-0.9974941 1.0677176 1.0578266 234 88 12
-1.0333461 1.0313445 1.0578266 234 88 12
-1.0461502 1.0183541 1.0578266 234 88 12
-0.99425626 1.0747706 1.0553145 234 88 12
-0.99681711 1.0721725 1.0553145 234 88 12
-1.0473572 1.024666 1.0528023 234 88 12
-0.99290234 1.0836805 1.0502902 234 88 12
-1.1969652 1.2192713 1.59261 234 88 12
-1.2086947 1.2073714 1.59261 234 88 12
-1.1966834 1.2211262 1.5915639 234 88 12
-1.1966158 1.2013839 1.5599183 234 88 12
-0.99154842 1.0925905 1.0452659 234 88 12
-1.1940044 1.2057303 1.5587869 234 88 12
-1.0555696 1.0276386 1.0452659 234 88 12
-0.99087143 1.0970454 1.0427538 234 88 12
-1.1936995 1.2077366 1.5576556 234 88 12
-1.2063856 1.1948661 1.5576556 234 88 12
-1.2206448 1.1999545 1.5894719 234 88 12
-1.0600144 1.0268973 1.0427538 234 88 12
-1.2083874 1.1945323 1.5565242 234 88 12
-1.1930897 1.2117492 1.5553929 234 88 12
-1.1953963 1.2094091 1.5553929 234 88 12
-1.1977029 1.207069 1.5553929 234 88 12
-1.2080824 1.1965386 1.5553929 234 88 12
-1.210389 1.1941985 1.5553929 234 88 12
-0.99072444 1.1122673 1.0327052 234 88 12
-1.0726717 1.0291288 1.0327052 234 88 12
-1.1957766 1.2330295 1.5842417 234 88 12
-0.99125439 1.1230341 1.0251687 234 88 12
-1.1927186 1.2206107 1.549736 234 88 12
-1.2561322 1.2489532 1.7107317 234 88 12
-1.2575748 1.2474897 1.7107317 234 88 12
-1.1949309 1.2385944 1.5811037 234 88 12
-1.1959972 1.2375126 1.5811037 234 88 12
-1.2013288 1.2321036 1.5811037 234 88 12
-1.2301191 1.2028947 1.5811037 234 88 12
-0.98990047 1.1319441 1.0201443 234 88 12
-1.1955688 1.2211132 1.5474733 234 88 12
-1.2209411 1.195372 1.5474733 234 88 12
-1.2220944 1.1942019 1.5474733 234 88 12
-1.2330362 1.2015042 1.5800576 234 88 12
-0.98922348 1.136399 1.0176322 234 88 12
-0.98975343 1.1471658 1.0100957 234 88 12
-1.1945878 1.2467877 1.5758735 234 88 12
-1.195654 1.2457058 1.5758735 234 88 12
-1.1931961 1.2303084 1.5429479 234 88 12
-1.1955025 1.2279683 1.5429479 234 88 12
-1.2231815 1.1998872 1.5429479 234 88 12
-0.98907644 1.1516207 1.0075836 234 88 12
-1.2540762 1.2584685 1.7057787 234 88 12
-1.1925863 1.2343211 1.5406852 234 88 12
-1.2538855 1.2597233 1.7050711 234 88 12
-1.2567707 1.2567962 1.7050711 234 88 12
-1.2574919 1.2560644 1.7050711 234 88 12
-0.98772252 1.1605307 1.0025593 234 88 12
-1.1957413 1.2328172 1.5395539 234 88 12
-1.2578319 1.2578422 1.703656 234 88 12
-1.2699032 1.2466568 1.7029485 234 88 12
-1.2331899 1.1982181 1.5372912 234 88 12
-0.98825246 1.1712976 0.99502283 234 88 12
-1.1947472 1.257609 1.5685512 234 88 12
-1.1958135 1.2565272 1.5685512 234 88 12
-1.1887553 1.2466928 1.5350285 234 88 12
-1.2457193 1.273315 1.7015333 234 88 12
-1.2448639 1.2067639 1.5685512 234 88 12
-1.1955316 1.2583822 1.5675052 234 88 12
-1.2448074 1.2753016 1.7008257 234 88 12
-1.2467146 1.2064552 1.5675052 234 88 12
-1.2722303 1.285293 1.774093 234 88 12
-0.98810548 1.1865193 0.98497421 234 88 12
-1.2944288 1.297417 1.8424362 234 88 12
-1.2951349 1.2967008 1.8424362 234 88 12
-0.98486763 1.1935724 0.98246205 234 88 12
-1.2394336 1.2020656 1.530503 234 88 12
-1.2501342 1.207693 1.5643671 234 88 12
-0.98419064 1.1980274 0.97994989 234 88 12
-1.2419671 1.2825491 1.6982459 234 88 12
-1.2776433 1.2821423 1.7725323 234 88 12
-0.98351371 1.2024823 0.97743773 234 88 12
-1.2457436 1.1990579 1.5282403 234 88 12
-1.1906414 1.2727576 1.561229 234 88 12
-1.2449988 1.2826545 1.696125 234 88 12
-1.2996106 1.2947572 1.8407047 234 88 12
-1.2851778 1.2768395 1.7709715 234 88 12
-1.2575371 1.2064584 1.5601829 234 88 12
-1.2929926 1.2696915 1.7704513 234 88 12
-1.2951139 1.2675393 1.7704513 234 88 12
-1.2829528 1.2450922 1.6951652 234 88 12
-1.2836741 1.2443604 1.6951652 234 88 12
-1.259212 1.1938788 1.5225835 234 88 12
1.319396 -1.3386455 1.9786384 234 88 12
1.2290293 -1.2567813 1.7090738 234 88 12
1.2265314 -1.2603303 1.7083386 234 88 12
1.2326139 -1.254335 1.7083386 234 88 12
1.2240987 -1.2540364 1.6892594 234 88 12
1.2233829 -1.2677814 1.705398 234 88 12
1.307889 -1.328037 1.9423543 234 88 12
1.238589 -1.2527932 1.705398 234 88 12
1.223406 -1.2581906 1.6869116 234 88 12
1.2339282 -1.2478192 1.6869116 234 88 12
1.2206682 -1.272631 1.7039276 234 88 12
1.3079332 -1.3282882 1.9421549 234 88 12
1.2189307 -1.2754306 1.7031925 234 88 12
1.2458678 -1.2510532 1.7017221 234 88 12
1.2142615 -1.2843804 1.7002518 234 88 12
1.2438744 -1.2449582 1.6822157 234 88 12
1.2452623 -1.2447472 1.6814331 234 88 12
1.2175117 -1.2732573 1.6806505 234 88 12
1.2207493 -1.2700661 1.6806505 234 88 12
1.2215587 -1.2692683 1.6806505 234 88 12
1.2833449 -1.3016434 1.8469383 234 88 12
1.2111531 -1.2829961 1.6783025 234 88 12
1.209919 -1.2951823 1.6958408 234 88 12
1.2256413 -1.2480526 1.6367803 234 88 12
1.2074537 -1.2889568 1.6767373 234 88 12
1.2325453 -1.2642248 1.6767373 234 88 12
1.2082911 -1.3011346 1.6929003 234 88 12
1.2049112 -1.2960912 1.6736068 234 88 12
1.2486434 -1.2689912 1.7022408 234 88 12
1.2451963 -1.2366568 1.631451 234 88 12
1.2076403 -1.3050368 1.6906948 234 88 12
1.207687 -1.2956693 1.6720415 234 88 12
1.2206376 -1.2829045 1.6720415 234 88 12
1.2327785 -1.2709374 1.6720415 234 88 12
1.2256441 -1.2572422 1.6305628 234 88 12
1.2484347 -1.2702432 1.7015333 234 88 12
1.2467715 -1.2364174 1.6305628 234 88 12
1.2263006 -1.2579082 1.6296746 234 88 12
1.20775 -1.3081895 1.6884893 234 88 12
1.2841655 -1.3074906 1.8424362 234 88 12
1.2891796 -1.3025483 1.8424362 234 88 12
1.207533 -1.3094902 1.6877542 234 88 12
1.2025498 -1.2852583 1.62701 234 88 12
1.2062241 -1.2816366 1.62701 234 88 12
1.2090859 -1.232514 1.530503 234 88 12
1.2578444 -1.2651527 1.6987029 234 88 12
1.2041043 -1.3049864 1.6681284 234 88 12
1.2081513 -1.3009973 1.6681284 234 88 12
1.2146266 -1.2946148 1.6681284 234 88 12
1.2077992 -1.2813972 1.6261218 234 88 12
1.2243394 -1.2850412 1.6681284 234 88 12
1.227577 -1.28185 1.6681284 234 88 12
1.2332429 -1.2762654 1.6681284 234 88 12
1.2087522 -1.2345157 1.5293716 234 88 12
1.2036425 -1.3077557 1.666563 234 88 12
1.0358676 -1.2083724 1.0973054 234 88 12
1.0381491 -1.2061235 1.0973054 234 88 12
1.0472754 -1.1971279 1.0973054 234 88 12
1.2201353 -1.2718643 1.6243453 234 88 12
1.0374982 -1.2100269 1.0950993 234 88 12
1.0420614 -1.205529 1.0950993 234 88 12
1.0466245 -1.2010312 1.0950993 234 88 12
1.0534693 -1.1942846 1.0950993 234 88 12
1.0968195 -1.1515555 1.0950993 234 88 12
1.2951155 -1.2992575 1.8407047 234 88 12
1.2575352 -1.2363135 1.6234572 234 88 12
1.0596632 -1.1914412 1.0928932 234 88 12
1.2575666 -1.2867446 1.73049 234 88 12
1.2202874 -1.2298363 1.5248462 234 88 12
1.0590123 -1.1953444 1.090687 234 88 12
1.2721239 -1.2733121 1.7298703 234 88 12
1.2083846 -1.3077099 1.6634325 234 88 12
1.2016339 -1.2953533 1.6207925 234 88 12
1.0469534 -1.2104923 1.0884809 234 88 12
1.0720509 -1.1857544 1.0884809 234 88 12
1.2207899 -1.2326864 1.5225835 234 88 12
1.3024585 1.3129057 1.5824039 234 88 12
1.3091806 1.308377 1.5807422 234 88 12
1.3067697 1.3107879 1.5807422 234 88 12
1.3121082 1.318902 1.5970731 234 88 12
1.3105984 1.3204118 1.5970731 234 88 12
1.306824 1.3241862 1.5970731 234 88 12
1.2984782 1.3201761 1.5799115 234 88 12
1.3126882 1.3070629 1.5790807 234 88 12
1.3202075 1.3149234 1.5939515 234 88 12
1.3306782 1.3338598 1.6361859 234 88 12
1.3419909 1.3478673 1.6725504 234 88 12
1.3214775 1.3146836 1.593171 234 88 12
1.3336576 1.3317487 1.635528 234 88 12
1.3330214 1.3323851 1.635528 234 88 12
1.3093995 1.3267616 1.593171 234 88 12
1.3071349 1.3290262 1.593171 234 88 12
1.294791 1.3293469 1.5757574 234 88 12
1.3046304 1.3325609 1.5923907 234 88 12
1.3452213 1.3468239 1.6708937 234 88 12
1.2934768 1.3328545 1.5740958 234 88 12
1.3205448 1.3068832 1.573265 234 88 12
1.3197411 1.3076868 1.573265 234 88 12
1.2948288 1.3325992 1.573265 234 88 12
1.3076855 1.3325963 1.5900494 234 88 12
1.3405147 1.3309702 1.6309233 234 88 12
1.3392421 1.3322428 1.6309233 234 88 12
1.3491807 1.3465097 1.6681323 234 88 12
1.3443729 1.3513175 1.6681323 234 88 12
1.3265162 1.3449688 1.6309233 234 88 12
1.2986635 1.3086958 1.5294924 234 88 12
1.2941034 1.313256 1.5294924 234 88 12
1.3246386 1.3093697 1.5682802 234 88 12
1.3004475 1.3449852 1.5861474 234 88 12
1.2924936 1.3415147 1.5682802 234 88 12
1.3406587 1.3572189 1.6664755 234 88 12
1.2898273 1.3452775 1.5674493 234 88 12
1.2920326 1.3203053 1.5257208 234 88 12
1.3448266 1.3327368 1.6263185 234 88 12
1.2951013 1.319726 1.5238351 234 88 12
1.30758 1.3084919 1.5228922 234 88 12
1.3342482 1.3183957 1.5806845 234 88 12
1.3093373 1.3433067 1.5806845 234 88 12
1.3078275 1.3448164 1.5806845 234 88 12
1.3070726 1.3455714 1.5806845 234 88 12
1.2860239 1.3325373 1.5210065 234 88 12
1.3572943 1.3471445 1.6615051 234 88 12
1.2980497 1.3576849 1.5783433 234 88 12
1.3125156 1.3097795 1.5181779 234 88 12
1.3070434 1.3152517 1.5181779 234 88 12
1.3024833 1.3198118 1.5181779 234 88 12
1.294275 1.3280201 1.5181779 234 88 12
1.1140298 1.2114376 1.0067955 234 88 12
1.1072339 1.2182335 1.0067955 234 88 12
1.1049685 1.2204988 1.0067955 234 88 12
1.2851548 1.3371403 1.5181779 234 88 12
1.2888819 1.3571901 1.5591413 234 88 12
1.1223714 1.2061875 1.0044535 234 88 12
1.3341781 1.3140874 1.5574796 234 88 12
1.1239171 1.2077332 1.0021117 234 88 12
1.1103253 1.2213249 1.0021117 234 88 12
1.1383351 1.1994982 0.99742782 234 88 12
1.1043556 1.2334776 0.99742782 234 88 12
1.2894682 1.3609908 1.5558181 234 88 12
1.3366268 1.3149289 1.5549873 234 88 12
1.308331 1.3201873 1.5134634 234 88 12
1.1421461 1.1987785 0.9950859 234 88 12
1.1330849 1.2078397 0.9950859 234 88 12
1.1308196 1.2101051 0.9950859 234 88 12
1.1194931 1.2214315 0.9950859 234 88 12
1.1081666 1.232758 0.9950859 234 88 12
1.1059014 1.2350234 0.9950859 234 88 12
1.1482224 1.1957937 0.99274397 234 88 12
1.1233041 1.2207119 0.99274397 234 88 12
1.1520334 1.1950741 0.99040204 234 88 12
-2.141217 -0.67396379 -0.83564168 234 88 12
1.0053157 2.1348875 -0.71288085 234 88 12
-0.29120368 2.1267662 -1.1812292 234 88 12
