ply
format ascii 1.0
element vertex 339
property float x
property float y
property float z
property uchar red
property uchar green
property uchar blue
end_header
-1.079918 0.84112191 1.7842273 234 88 12
-1.0839293 0.83705229 1.7842273 234 88 12
-1.0932891 0.82755637 1.7842273 234 88 12
-1.103986 0.81670398 1.7842273 234 88 12
-1.0835758 0.83937836 1.7829156 234 88 12
-1.0942727 0.82852596 1.7829156 234 88 12
-1.1036326 0.81903005 1.7829156 234 88 12
-1.0875105 0.84325659 1.7776688 234 88 12
-1.094196 0.83647382 1.7776688 234 88 12
-1.1035558 0.82697791 1.7776688 234 88 12
-1.0938425 0.83879989 1.7763571 234 88 12
-1.1045395 0.8279475 1.7763571 234 88 12
-1.1138225 0.82639945 1.7711103 234 88 12
-1.1041093 0.83822143 1.7697986 234 88 12
-1.1144527 0.82969511 1.768487 234 88 12
-1.1087508 0.83744746 1.7671752 234 88 12
-1.1140993 0.83202124 1.7671752 234 88 12
-1.1194477 0.82659501 1.7671752 234 88 12
-1.1240892 0.82582098 1.7645519 234 88 12
-1.1247194 0.82911664 1.7619284 234 88 12
-0.25756162 1.6728319 1.4716203 234 88 12
-0.24834205 1.6754568 1.470058 234 88 12
-0.25585952 1.6742169 1.470058 234 88 12
-0.26713577 1.6723571 1.470058 234 88 12
-0.2447606 1.6771517 1.4684956 234 88 12
-0.24663997 1.6768417 1.4684956 234 88 12
-0.25621414 1.6763668 1.4669331 234 88 12
-0.26578829 1.675892 1.4653708 234 88 12
-0.24000898 1.6834565 1.4606836 234 88 12
-0.24564709 1.6825266 1.4606836 234 88 12
-0.25692332 1.6806668 1.4606836 234 88 12
-0.26632017 1.679117 1.4606836 234 88 12
-0.2384842 1.6859164 1.4575588 234 88 12
-0.24635628 1.6868265 1.4544339 234 88 12
-0.25593042 1.6863517 1.4528716 234 88 12
-0.23937069 1.6912913 1.4497467 234 88 12
-0.24688818 1.6900514 1.4497467 234 88 12
-0.25628504 1.6885016 1.4497467 234 88 12
-0.26568189 1.6869518 1.4497467 234 88 12
-0.27319938 1.685712 1.4497467 234 88 12
-0.27749002 1.6883169 1.4450595 234 88 12
-0.24213655 1.6963563 1.4419347 234 88 12
-0.24419321 1.6971213 1.4403723 234 88 12
-0.24607259 1.6968113 1.4403723 234 88 12
-0.25171071 1.6958815 1.4403723 234 88 12
-0.25546944 1.6952615 1.4403723 234 88 12
-0.26674569 1.6934017 1.4403723 234 88 12
-0.27614254 1.6918519 1.4403723 234 88 12
-0.25564674 1.6963365 1.43881 234 88 12
-0.26727757 1.6966267 1.4356852 234 88 12
-0.27685174 1.6961519 1.4341228 234 88 12
-0.25671053 1.7027864 1.4294356 234 88 12
-0.26610738 1.7012366 1.4294356 234 88 12
-0.27603614 1.7029117 1.4247483 234 88 12
-0.26699388 1.7066115 1.4216236 234 88 12
-0.26905054 1.7073765 1.4200611 234 88 12
-0.27656803 1.7061366 1.4200611 234 88 12
-0.27674535 1.7072116 1.4184988 234 88 12
-1.7762433 1.096867 0.82013428 234 88 12
-1.7785337 1.0938228 0.82013428 234 88 12
-1.7796788 1.0923008 0.82013428 234 88 12
-1.7881602 1.0819962 0.81832063 234 88 12
-1.7725927 1.1036551 0.81650692 234 88 12
-1.7737379 1.102133 0.81650692 234 88 12
-1.7783186 1.0960448 0.81650692 234 88 12
-1.780609 1.0930007 0.81650692 234 88 12
-1.7886252 1.0823462 0.81650692 234 88 12
-1.7884102 1.084568 0.81287962 234 88 12
-1.7696573 1.1133648 0.80562496 234 88 12
-1.7776735 1.1027104 0.80562496 234 88 12
-1.7788187 1.1011883 0.80562496 234 88 12
-1.7856898 1.092056 0.80562496 234 88 12
-1.7891253 1.0874898 0.80562496 234 88 12
-1.7701223 1.1137148 0.80381131 234 88 12
-1.7779236 1.1052822 0.80018395 234 88 12
-1.7696922 1.1181586 0.79655665 234 88 12
-1.7731278 1.1135924 0.79655665 234 88 12
-1.7788537 1.1059821 0.79655665 234 88 12
-1.781144 1.1029379 0.79655665 234 88 12
-1.7891604 1.0922835 0.79655665 234 88 12
-1.7884803 1.0941556 0.79474294 234 88 12
-1.7736279 1.118736 0.78567463 234 88 12
-1.7782086 1.1126478 0.78567463 234 88 12
-1.7862248 1.1019933 0.78567463 234 88 12
-1.7885152 1.0989492 0.78567463 234 88 12
-1.7779936 1.1148696 0.78204733 234 88 12
-1.7885503 1.103743 0.77660632 234 88 12
-1.7855798 1.108659 0.77479267 234 88 12
-1.7890153 1.1040928 0.77479267 234 88 12
-1.7901605 1.1025708 0.77479267 234 88 12
-1.7984269 1.0944881 0.76935166 234 88 12
-1.7924858 1.1043204 0.7657243 234 88 12
-1.7936311 1.1027983 0.7657243 234 88 12
-1.7993569 1.095188 0.7657243 234 88 12
-1.8021125 1.0924938 0.76391065 234 88 12
-1.8021474 1.0972875 0.75484234 234 88 12
-1.805583 1.0927213 0.75484234 234 88 12
0.87354803 1.8203777 0.97650433 234 88 12
0.86820209 1.822396 0.97650433 234 88 12
0.87914246 1.8190174 0.97473413 234 88 12
0.85775852 1.8270906 0.97473413 234 88 12
0.85647333 1.8290793 0.97119379 234 88 12
0.88523364 1.8189731 0.96942365 234 88 12
0.87810564 1.8216641 0.96942365 234 88 12
0.8674137 1.8257006 0.96942365 234 88 12
0.8585037 1.8290645 0.96942365 234 88 12
0.8567217 1.8297373 0.96942365 234 88 12
0.86865574 1.8289905 0.96057284 234 88 12
0.88672405 1.8229208 0.95880264 234 88 12
0.87781411 1.8262846 0.95880264 234 88 12
0.87068611 1.8289757 0.95880264 234 88 12
0.86712211 1.8303212 0.95880264 234 88 12
0.85821217 1.833685 0.95880264 234 88 12
0.84826541 1.8396956 0.95349216 234 88 12
0.87880772 1.8289165 0.95172197 234 88 12
0.84673178 1.8410263 0.95172197 234 88 12
0.8844021 1.8275563 0.94995183 234 88 12
0.8790561 1.8295745 0.94995183 234 88 12
0.87727416 1.8302473 0.94995183 234 88 12
0.86836416 1.8336111 0.94995183 234 88 12
0.85767215 1.8376477 0.94995183 234 88 12
0.85232621 1.839666 0.94995183 234 88 12
0.84698021 1.8416842 0.94995183 234 88 12
0.85841739 1.8396215 0.94464129 234 88 12
0.87876457 1.834195 0.93933082 234 88 12
0.87698257 1.8348678 0.93933082 234 88 12
0.86807257 1.8382317 0.93933082 234 88 12
0.86450863 1.8395772 0.93933082 234 88 12
0.85738063 1.8422682 0.93933082 234 88 12
0.84668863 1.8463048 0.93933082 234 88 12
0.86856937 1.8395476 0.93579048 234 88 12
0.87134504 1.8415067 0.92870981 234 88 12
0.86778104 1.8428522 0.92870981 234 88 12
0.85758585 1.8482047 0.92516947 234 88 12
0.85605228 1.8495355 0.92339933 234 88 12
0.86011308 1.8495059 0.91985899 234 88 12
0.86036146 1.8501638 0.91808879 234 88 12
0.85679752 1.8515093 0.91808879 234 88 12
-0.94134045 1.975302 0.44552779 234 88 12
-0.93624812 1.9779109 0.44364542 234 88 12
-0.9501462 1.9716624 0.44364542 234 88 12
-0.95188344 1.9708813 0.44364542 234 88 12
-0.95038509 1.9721937 0.43988073 234 88 12
-0.9313947 1.9810511 0.43799835 234 88 12
-0.940081 1.9771458 0.43799835 234 88 12
-0.95050454 1.9724594 0.43799835 234 88 12
-0.95224178 1.9716784 0.43799835 234 88 12
-0.92977691 1.9820979 0.43611601 234 88 12
-0.92815912 1.9831446 0.43423367 234 88 12
-0.92989635 1.9823636 0.43423367 234 88 12
-0.92678022 1.9847229 0.4285866 234 88 12
-0.93025476 1.9831607 0.4285866 234 88 12
-0.93372923 1.9815985 0.4285866 234 88 12
-0.9406783 1.9784743 0.4285866 234 88 12
-0.95110184 1.9737879 0.4285866 234 88 12
-0.95631361 1.9714447 0.4285866 234 88 12
-0.92923421 1.9855359 0.41729248 234 88 12
-0.93097144 1.9847548 0.41729248 234 88 12
-0.93792051 1.9816306 0.41729248 234 88 12
-0.94139498 1.9800684 0.41729248 234 88 12
-0.95181853 1.9753821 0.41729248 234 88 12
-0.93851781 1.9829592 0.40788072 234 88 12
-0.94025505 1.9821781 0.40788072 234 88 12
-0.94199228 1.9813969 0.40788072 234 88 12
-0.95067859 1.9774916 0.40788072 234 88 12
-0.94606411 1.9811634 0.39846894 234 88 12
-0.95127583 1.9788202 0.39846894 234 88 12
-0.96193832 1.9746652 0.39470425 234 88 12
-0.95894164 1.97729 0.38717484 234 88 12
-0.96067888 1.976509 0.38717484 234 88 12
-2.1160603 0.68509662 -0.29493952 234 88 12
-2.1142323 0.68845171 -0.29682189 234 88 12
-2.1150134 0.68671447 -0.29682189 234 88 12
-2.110311 0.69504237 -0.30246893 234 88 12
-2.1147318 0.68449938 -0.3043513 234 88 12
-2.1079519 0.6981585 -0.30811599 234 88 12
-2.109514 0.69468397 -0.30811599 234 88 12
-2.1142004 0.68426043 -0.30811599 234 88 12
-2.1042802 0.70277297 -0.31752777 234 88 12
-2.1050613 0.70103574 -0.31752777 234 88 12
-2.1081855 0.69408673 -0.31752777 234 88 12
-2.1128719 0.68366319 -0.31752777 234 88 12
-2.1089344 0.68815821 -0.3288219 234 88 12
-2.1112776 0.68294644 -0.3288219 234 88 12
0.20340791 2.2225969 -0.03299449 234 88 12
0.19389848 2.2231202 -0.03299449 234 88 12
0.20720758 2.2223132 -0.034897797 234 88 12
0.18247901 2.2235994 -0.0368011 234 88 12
0.21099496 2.221806 -0.042511012 234 88 12
0.20338744 2.222225 -0.042511012 234 88 12
0.19387801 2.2227483 -0.042511012 234 88 12
0.18246672 2.2233763 -0.042511012 234 88 12
0.21097448 2.2214341 -0.052027531 234 88 12
0.20336695 2.2218528 -0.052027531 234 88 12
0.19385754 2.2223763 -0.052027531 234 88 12
0.18244624 2.2230043 -0.052027531 234 88 12
0.17292863 2.2233789 -0.055834137 234 88 12
0.20524837 2.2213762 -0.06154405 234 88 12
0.20334648 2.2214808 -0.06154405 234 88 12
0.19383706 2.2220042 -0.06154405 234 88 12
0.18242577 2.2226324 -0.06154405 234 88 12
0.19761626 2.2213485 -0.072963871 234 88 12
0.19381249 2.2215579 -0.072963871 234 88 12
0.18238482 2.2218883 -0.08057709 234 88 12
0.18998826 2.2213953 -0.082480393 234 88 12
0.18238072 2.2218139 -0.082480393 234 88 12
-1.3576306 1.6317601 -0.69136405 234 88 12
-1.3591527 1.6306149 -0.69136405 234 88 12
-1.3664131 1.6244239 -0.6931777 234 88 12
-1.3694572 1.6221335 -0.6931777 234 88 12
-1.3493205 1.6365558 -0.69499135 234 88 12
-1.3523647 1.6342654 -0.69499135 234 88 12
-1.359975 1.6285396 -0.69499135 234 88 12
-1.3660632 1.6239588 -0.69499135 234 88 12
-1.3706294 1.6205232 -0.69499135 234 88 12
-1.3474486 1.637236 -0.69680506 234 88 12
-1.3479209 1.6346955 -0.70224601 234 88 12
-1.3411328 1.6383461 -0.70587337 234 88 12
-1.347221 1.6337653 -0.70587337 234 88 12
-1.3487431 1.6326202 -0.70587337 234 88 12
-1.3593975 1.6246039 -0.70587337 234 88 12
-1.3609196 1.6234587 -0.70587337 234 88 12
-1.3586977 1.6236738 -0.70950067 234 88 12
-1.3451215 1.6309749 -0.71675539 234 88 12
-1.3496877 1.6275394 -0.71675539 234 88 12
-1.3542539 1.6241039 -0.71675539 234 88 12
-1.3592924 1.6181279 -0.72219634 234 88 12
-1.3494601 1.6240689 -0.7258237 234 88 12
-1.3601146 1.6160525 -0.7258237 234 88 12
-1.3609369 1.6139772 -0.729451 234 88 12
-1.3587149 1.6141922 -0.73307836 234 88 12
-1.3549709 1.6155524 -0.73670566 234 88 12
-1.3580151 1.6132621 -0.73670566 234 88 12
-1.3595371 1.6121169 -0.73670566 234 88 12
-1.3694917 1.6031705 -0.74033302 234 88 12
-1.3676198 1.6038506 -0.74214667 234 88 12
1.1366671 1.7749517 -0.75354815 234 88 12
1.1332842 1.7767031 -0.75354815 234 88 12
1.129607 1.7778865 -0.75534225 234 88 12
1.122841 1.7813895 -0.75534225 234 88 12
1.1428448 1.7703123 -0.75713634 234 88 12
1.1326958 1.7755668 -0.75713634 234 88 12
1.1276213 1.7781941 -0.75713634 234 88 12
1.1225468 1.7808213 -0.75713634 234 88 12
1.1132069 1.7834955 -0.76251858 234 88 12
1.1433597 1.7671639 -0.76431268 234 88 12
1.1230617 1.7776729 -0.76431268 234 88 12
1.1427714 1.7660275 -0.76790088 234 88 12
1.1393883 1.767779 -0.76790088 234 88 12
1.1326224 1.771282 -0.76790088 234 88 12
1.1224734 1.7765365 -0.76790088 234 88 12
1.1190903 1.778288 -0.76790088 234 88 12
1.1123244 1.781791 -0.76790088 234 88 12
1.1029843 1.7844652 -0.77328312 234 88 12
1.139609 1.7640623 -0.77687132 234 88 12
1.132843 1.7675654 -0.77687132 234 88 12
1.1311514 1.7684411 -0.77687132 234 88 12
1.122694 1.7728199 -0.77687132 234 88 12
1.112545 1.7780744 -0.77687132 234 88 12
1.102396 1.7833289 -0.77687132 234 88 12
1.1122508 1.7775062 -0.77866542 234 88 12
1.1327695 1.7632805 -0.78763586 234 88 12
1.1237236 1.7665229 -0.791224 234 88 12
1.12593 1.7624986 -0.7984004 234 88 12
1.1225469 1.7642502 -0.7984004 234 88 12
1.1193846 1.762285 -0.80737084 234 88 12
1.1126186 1.7657881 -0.80737084 234 88 12
-0.21573144 1.8874307 -1.1705462 234 88 12
-0.22517321 1.8861834 -1.1705462 234 88 12
-0.21183072 1.8869909 -1.1721989 234 88 12
-0.20969433 1.885363 -1.1755044 234 88 12
-0.21535939 1.8846145 -1.1755044 234 88 12
-0.22480115 1.8833672 -1.1755044 234 88 12
-0.23613128 1.8818703 -1.1755044 234 88 12
-0.23588324 1.8799928 -1.1788099 234 88 12
-0.23009416 1.8798025 -1.1804626 234 88 12
-0.22241673 1.8798617 -1.1821153 234 88 12
-0.20706186 1.8799801 -1.1854208 234 88 12
-0.21461527 1.8789822 -1.1854208 234 88 12
-0.2259454 1.8774853 -1.1854208 234 88 12
-0.23538716 1.8762379 -1.1854208 234 88 12
-0.21374714 1.872411 -1.1969899 234 88 12
-0.21563549 1.8721615 -1.1969899 234 88 12
-0.22105251 1.8695357 -1.2002953 234 88 12
-0.22482923 1.8690367 -1.2002953 234 88 12
-0.22055644 1.8657807 -1.2069063 234 88 12
-0.2262215 1.8650323 -1.2069063 234 88 12
-0.23516721 1.8600299 -1.2135172 234 88 12
-0.23315482 1.8593408 -1.2151699 234 88 12
-0.23504318 1.8590913 -1.2151699 234 88 12
-0.2292541 1.8589009 -1.2168226 234 88 12
-0.23680751 1.857903 -1.2168226 234 88 12
-1.1200264 0.9233076 -1.7042141 234 88 12
-1.124096 0.91929626 -1.7042141 234 88 12
-1.1231264 0.91831261 -1.7055259 234 88 12
-1.112661 0.92668879 -1.7068375 234 88 12
-1.1140176 0.92535168 -1.7068375 234 88 12
-1.1208004 0.91866612 -1.7068375 234 88 12
-1.1248699 0.91465473 -1.7068375 234 88 12
-1.1302962 0.90930629 -1.7068375 234 88 12
-1.1033566 0.92810267 -1.7120843 234 88 12
-1.1128525 0.91874284 -1.7120843 234 88 12
-1.1237049 0.90804595 -1.7120843 234 88 12
-1.0981219 0.92550522 -1.7173311 234 88 12
-1.103548 0.92015672 -1.7173311 234 88 12
-1.1049047 0.91881961 -1.7173311 234 88 12
-1.1025785 0.91917312 -1.7186427 234 88 12
-1.1054831 0.90855294 -1.7238895 234 88 12
-1.1031569 0.9089064 -1.7252011 234 88 12
-1.0998613 0.9082762 -1.7278246 234 88 12
-1.103931 0.90426487 -1.7278246 234 88 12
-1.1093572 0.89891642 -1.7278246 234 88 12
-1.1027659 0.89765608 -1.7330713 234 88 12
-1.1122618 0.88829625 -1.7330713 234 88 12
-1.1140053 0.88463837 -1.734383 234 88 12
-1.1039269 0.89069378 -1.7370064 234 88 12
-1.10664 0.88801956 -1.7370064 234 88 12
-1.1147794 0.87999684 -1.7370064 234 88 12
-1.1151663 0.87767607 -1.7383181 234 88 12
-1.1128402 0.87802958 -1.7396297 234 88 12
-1.1190405 0.86803955 -1.7422532 234 88 12
0.012789553 1.0432931 -1.9817343 234 88 12
0.0089836251 1.0431277 -1.9817343 234 88 12
0.018567968 1.0419422 -1.982767 234 88 12
0.0090531474 1.0415286 -1.982767 234 88 12
-0.0004616731 1.0411149 -1.982767 234 88 12
0.022443419 1.0405087 -1.9837997 234 88 12
-0.011531845 1.0326234 -1.9879304 234 88 12
0.0094702831 1.0319345 -1.9889631 234 88 12
-4.4537865e-05 1.0315208 -1.9889631 234 88 12
-0.011462322 1.0310243 -1.9889631 234 88 12
0.030472411 1.0312456 -1.9899957 234 88 12
0.019054625 1.0307492 -1.9899957 234 88 12
0.025041608 1.0246013 -1.9941264 234 88 12
0.019332716 1.0243531 -1.9941264 234 88 12
0.027083617 1.021486 -1.9961919 234 88 12
0.019471761 1.021155 -1.9961919 234 88 12
0.017985933 1.0114782 -2.002388 234 88 12
0.01995842 1.009962 -2.0034206 234 88 12
