ply
format ascii 1.0
element vertex 2335
property float x
property float y
property float z
property uchar red
property uchar green
property uchar blue
end_header
-0.00072818942 0.015777437 2.602567 234 88 12
0.00024272982 0.015777437 2.602567 234 88 12
0.0031472715 0.06819088 2.1792276 234 88 12
-0.0010490904 0.0660927 2.1792276 234 88 12
0.0032381848 0.068001881 2.1633177 234 88 12
-0.0010793949 0.0636843 2.1633177 234 88 12
0.00097904238 0.057763502 2.2160027 234 88 12
-0.0052454523 0.059798155 2.1792276 234 88 12
-0.00097904238 0.055805415 2.2160027 234 88 12
0.0053969747 0.059366722 2.1633177 234 88 12
-0.0029371271 0.051889248 2.2160027 234 88 12
0.00097904238 0.051889248 2.2160027 234 88 12
-0.0073436331 0.051405434 2.1792276 234 88 12
0.0075557646 0.050731562 2.1633177 234 88 12
-0.0029371271 0.042098824 2.2160027 234 88 12
0.00097904238 0.042098824 2.2160027 234 88 12
-0.0073436331 0.043012708 2.1792276 234 88 12
0.0097145541 0.044255193 2.1633177 234 88 12
0.0097145541 0.042096402 2.1633177 234 88 12
-0.0048952121 0.034266483 2.2160027 234 88 12
0.00097904238 0.034266483 2.2160027 234 88 12
-0.0073436331 0.034619983 2.1792276 234 88 12
-0.0015584591 0.0043920209 2.6556189 234 88 12
0.0097145541 0.033461243 2.1633177 234 88 12
-0.0094418144 0.030423623 2.1792276 234 88 12
-0.0016658425 0.0069013475 2.6050618 234 88 12
-0.020949274 0.051420946 1.7301483 234 88 12
-0.0048952121 0.024476061 2.2160027 234 88 12
0.00097904238 0.024476061 2.2160027 234 88 12
0.00064988981 0.0014770223 2.6989825 234 88 12
0.0088113816 0.022517975 2.2160027 234 88 12
0.0026177526 0.0054734824 2.6050618 234 88 12
-0.0037454523 0.006050346 2.5787413 234 88 12
-0.020949274 0.039994068 1.7301483 234 88 12
-0.017140316 0.039994068 1.7301483 234 88 12
-0.032376152 0.036185108 1.7301483 234 88 12
-0.0073436331 0.019932719 2.1792276 234 88 12
0.0053969747 0.020508504 2.1633177 234 88 12
0.011873344 0.020508504 2.1633177 234 88 12
-0.043803029 0.032376152 1.7301483 234 88 12
-0.039994068 0.032376152 1.7301483 234 88 12
-0.032376152 0.032376152 1.7301483 234 88 12
-0.0052834889 0.0081653921 2.4778335 234 88 12
-0.0029371271 0.016643722 2.2160027 234 88 12
0.00097904238 0.016643722 2.2160027 234 88 12
0.0088113816 0.016643722 2.2160027 234 88 12
0.024758805 0.0323769 1.7301252 234 88 12
-0.0052454523 0.015736356 2.1792276 234 88 12
0.0053969747 0.016190924 2.1633177 234 88 12
0.0097145541 0.016190924 2.1633177 234 88 12
0.028567852 0.028567852 1.7301252 234 88 12
-0.078050703 0.024747785 1.7305702 234 88 12
-0.070176333 0.024656549 1.7342547 234 88 12
-0.066597313 0.024736144 1.7310404 234 88 12
-0.059038863 0.024758233 1.7301483 234 88 12
-0.051420946 0.024758233 1.7301483 234 88 12
-0.039994068 0.024758233 1.7301483 234 88 12
0.00066942268 0.0087024942 2.3785532 234 88 12
0.024758805 0.024758805 1.7301252 234 88 12
0.028567852 0.024758805 1.7301252 234 88 12
0.062849276 0.024758805 1.7301252 234 88 12
0.066545755 0.024716994 1.7318137 234 88 12
0.070348367 0.024716994 1.7318137 234 88 12
0.072831087 0.023092784 1.7974068 234 88 12
-0.081765987 0.020916881 1.7316943 234 88 12
-0.066383019 0.020863233 1.7342547 234 88 12
-0.00066942268 0.0073636491 2.3785532 234 88 12
0.00066942268 0.0073636491 2.3785532 234 88 12
0.013331665 0.020949759 1.7301252 234 88 12
0.036185946 0.020949759 1.7301252 234 88 12
0.0064321985 0.0033692466 2.569195 234 88 12
0.021338327 0.009388864 2.2818952 234 88 12
0.00021780662 8.8736037e-05 2.725765 234 88 12
0.05902316 0.020943703 1.7304142 234 88 12
0.078999609 0.020209203 1.7654699 234 88 12
-0.081810325 0.017123092 1.731153 234 88 12
-0.078005195 0.017123092 1.731153 234 88 12
-0.07398013 0.017072339 1.7341136 234 88 12
-0.066597313 0.017125024 1.7310404 234 88 12
-0.059038863 0.017140316 1.7301483 234 88 12
-0.051420946 0.017140316 1.7301483 234 88 12
-0.034998175 0.014999217 1.8550457 234 88 12
-0.031665016 0.014999217 1.8550457 234 88 12
-0.0045944275 0.0027566564 2.569195 234 88 12
-0.0011535682 0.0034607046 2.5281255 234 88 12
0.0094262138 0.016967185 1.7402476 234 88 12
0.028567852 0.017140711 1.7301252 234 88 12
0.036185946 0.017140711 1.7301252 234 88 12
0.043804042 0.017140711 1.7301252 234 88 12
0.05523118 0.017140711 1.7301252 234 88 12
0.062849276 0.017140711 1.7301252 234 88 12
0.070421137 0.017129466 1.7307812 234 88 12
0.081820704 0.017125264 1.7310263 234 88 12
-0.085418433 0.013287311 1.7334516 234 88 12
-0.066484384 0.013296878 1.7327342 234 88 12
-0.024998695 0.011666058 1.8550457 234 88 12
-0.020916881 0.013310743 1.7316943 234 88 12
0.01994079 0.012689593 1.7782805 234 88 12
0.066546172 0.013309235 1.7318074 234 88 12
0.070348814 0.013309235 1.7318074 234 88 12
-0.0088825598 0.0015314758 2.569195 234 88 12
-0.0011531296 0.00021354253 2.7075779 234 88 12
-0.0070768106 0.0032167321 2.3922431 234 88 12
-0.0028741087 0.0015967271 2.5623436 234 88 12
0.02073767 0.0094262138 1.7402476 234 88 12
0.027191987 0.0090639954 1.7782805 234 88 12
0.081804454 0.009512146 1.7312247 234 88 12
-0.093319491 0.0057134381 1.7301483 234 88 12
-0.085701577 0.0057134381 1.7301483 234 88 12
-0.078083657 0.0057134381 1.7301483 234 88 12
-0.066656783 0.0057134381 1.7301483 234 88 12
-0.0005597804 0.00015266737 2.7032833 234 88 12
-0.00096998201 0.002909946 2.2207594 234 88 12
0.00096998201 0.002909946 2.2207594 234 88 12
0.0087298388 0.002909946 2.2207594 234 88 12
0.027191987 0.0054383972 1.7782805 234 88 12
0.039994992 0.0057135704 1.7301252 234 88 12
0.044519313 0.0053423177 1.7950944 234 88 12
0.051422134 0.0057135704 1.7301252 234 88 12
0.05523118 0.0057135704 1.7301252 234 88 12
0.062849276 0.0057135704 1.7301252 234 88 12
0.070467368 0.0057135704 1.7301252 234 88 12
0.081894509 0.0057135704 1.7301252 234 88 12
0.085559368 0.0057039578 1.7318074 234 88 12
-0.10093741 0.0019044795 1.7301483 234 88 12
-0.057367764 0.0016390791 1.8694835 234 88 12
0.00031934542 0.00031934542 2.5623436 234 88 12
0.0073584053 0.00049056037 2.4724557 234 88 12
0.038068783 0.0018127991 1.7782805 234 88 12
0.089362003 0.0019013193 1.7318074 234 88 12
-0.10474637 -0.0019044795 1.7301483 234 88 12
-0.10093741 -0.0019044795 1.7301483 234 88 12
-0.093319491 -0.0019044795 1.7301483 234 88 12
-0.085701577 -0.0019044795 1.7301483 234 88 12
-0.078083657 -0.0019044795 1.7301483 234 88 12
-0.063924082 -0.0016390791 1.8694835 234 88 12
-0.060645923 -0.0016390791 1.8694835 234 88 12
-0.0013239636 -4.2708507e-05 2.7075779 234 88 12
-0.044255134 -0.0016390791 1.8694835 234 88 12
-0.0076573789 -0.00030629514 2.569195 234 88 12
-0.004897899 -0.00028811171 2.5787413 234 88 12
-0.0007633369 -5.0889124e-05 2.7032833 234 88 12
-0.0063772849 -0.00049056037 2.4724557 234 88 12
-0.0028741087 -0.00031934542 2.5623436 234 88 12
0.00031934542 -0.00031934542 2.5623436 234 88 12
0.0032167321 -0.0006433464 2.3922431 234 88 12
0.0096501959 -0.0006433464 2.3922431 234 88 12
0.011282888 -0.00049056037 2.4724557 234 88 12
0.047613088 -0.0019045235 1.7301252 234 88 12
0.05523118 -0.0019045235 1.7301252 234 88 12
0.062849276 -0.0019045235 1.7301252 234 88 12
0.070467368 -0.0019045235 1.7301252 234 88 12
0.081894509 -0.0019045235 1.7301252 234 88 12
0.083696313 -0.0017807726 1.7950944 234 88 12
0.093164645 -0.0019013193 1.7318074 234 88 12
-0.070480399 -0.004917237 1.8694835 234 88 12
-0.0088825598 -0.00091888546 2.569195 234 88 12
-0.040957768 -0.0053423177 1.7950944 234 88 12
-0.033834677 -0.0053423177 1.7950944 234 88 12
-0.025944544 -0.0051889089 1.8219409 234 88 12
0.089512601 -0.0057135704 1.7301252 234 88 12
0.090819404 -0.0053423177 1.7950944 234 88 12
0.10076992 -0.0057039578 1.7318074 234 88 12
-0.11617325 -0.0095223971 1.7301483 234 88 12
-0.11236428 -0.0095223971 1.7301483 234 88 12
-0.10093741 -0.0095223971 1.7301483 234 88 12
-0.093319491 -0.0095223971 1.7301483 234 88 12
-0.048536442 -0.0056437724 2.137404 234 88 12
-0.048299279 -0.0058901561 2.1115336 234 88 12
-0.049754418 -0.008578348 1.8292735 234 88 12
-0.04670018 -0.0086481813 1.8219409 234 88 12
-0.043240909 -0.0086481813 1.8219409 234 88 12
-0.029403817 -0.0086481813 1.8219409 234 88 12
-0.0057901177 -0.0032167321 2.3922431 234 88 12
-0.0021636363 -0.0036060605 2.3513637 234 88 12
0.0093757575 -0.0036060605 2.3513637 234 88 12
0.018030303 -0.0036060605 2.3513637 234 88 12
0.018657045 -0.0032167321 2.3922431 234 88 12
0.030548934 -0.0043641333 2.2717659 234 88 12
0.07808546 -0.0095226178 1.7301252 234 88 12
0.081894509 -0.0095226178 1.7301252 234 88 12
0.089512601 -0.0095226178 1.7301252 234 88 12
0.097130701 -0.0095226178 1.7301252 234 88 12
0.094380945 -0.0089038629 1.7950944 234 88 12
0.097942494 -0.0089038629 1.7950944 234 88 12
-0.12379117 -0.013331356 1.7301483 234 88 12
-0.053051461 -0.0079012811 2.137404 234 88 12
-0.066911116 -0.012009688 1.8292735 234 88 12
-0.060048439 -0.012009688 1.8292735 234 88 12
-0.053618725 -0.012107454 1.8219409 234 88 12
-0.050159454 -0.012107454 1.8219409 234 88 12
-0.043240909 -0.012107454 1.8219409 234 88 12
-0.0097884666 -0.0036062773 2.4595292 234 88 12
-0.0016699674 -0.0012988636 2.6325853 234 88 12
-0.0019045905 -0.0026664266 2.5300181 234 88 12
-0.0010462637 -0.0024412822 2.5469038 234 88 12
-0.00036674272 -0.0025671991 2.5374601 234 88 12
0.0003356426 -0.0023494982 2.5537877 234 88 12
0.0013627725 -0.0031798028 2.4915147 234 88 12
0.0038580247 -0.0038580247 2.4406481 234 88 12
0.006490909 -0.005048485 2.3513637 234 88 12
0.039946433 -0.007169873 2.1922596 234 88 12
0.035785895 -0.0061097867 2.2717659 234 88 12
0.10506558 -0.012465408 1.7950944 234 88 12
0.11575022 -0.012465408 1.7950944 234 88 12
0.0042311242 -0.00042924448 2.6978066 234 88 12
-0.14283596 -0.017140316 1.7301483 234 88 12
-0.139027 -0.017140316 1.7301483 234 88 12
-0.020742293 -0.0027055168 2.5721781 234 88 12
-0.066219985 -0.0088952221 2.211112 234 88 12
-0.060289837 -0.0088952221 2.211112 234 88 12
-0.050406259 -0.0088952221 2.211112 234 88 12
-0.042499393 -0.0088952221 2.211112 234 88 12
-0.024916926 -0.0054695695 2.4109418 234 88 12
-0.069450133 -0.016026953 1.7950944 234 88 12
-0.011282888 -0.0044150432 2.4724557 234 88 12
-0.0037339621 -0.0037339621 2.5121856 234 88 12
-0.002410301 -0.0030989584 2.5492275 234 88 12
-0.0032123108 -0.0057821595 2.3927073 234 88 12
0.00041744142 -0.0037569727 2.5108433 234 88 12
0.0046290113 -0.0059515857 2.3828242 234 88 12
0.0045758453 -0.0045758453 2.4630756 234 88 12
0.0062114126 -0.0050820648 2.4335463 234 88 12
0.026684849 -0.006490909 2.3513637 234 88 12
0.026377203 -0.0057901177 2.3922431 234 88 12
0.044043504 -0.0092184078 2.1922596 234 88 12
0.027347846 -0.0054695695 2.4109418 234 88 12
0.10474879 -0.017140711 1.7301252 234 88 12
0.12287331 -0.016026953 1.7950944 234 88 12
0.0060713352 -0.0007285602 2.6875007 234 88 12
0.014257842 -0.001666501 2.6327875 234 88 12
-0.076103561 -0.010871937 2.211112 234 88 12
-0.10689233 -0.020628344 1.7454654 234 88 12
-0.10314173 -0.020628344 1.7454654 234 88 12
-0.095640503 -0.020628344 1.7454654 234 88 12
-0.029778766 -0.0066850292 2.4109418 234 88 12
-0.07645075 -0.019557169 1.7965896 234 88 12
-0.069339052 -0.019557169 1.7965896 234 88 12
-0.019061752 -0.0056670071 2.4595292 234 88 12
-0.00040351404 -0.0044386545 2.5181551 234 88 12
0.00043927459 -0.0048320205 2.4993808 234 88 12
0.0023427745 -0.005154104 2.4840088 234 88 12
0.093321651 -0.020949759 1.7301252 234 88 12
0.097130701 -0.020949759 1.7301252 234 88 12
0.10474879 -0.020949759 1.7301252 234 88 12
0.10862713 -0.019588498 1.7950944 234 88 12
0.11575022 -0.019588498 1.7950944 234 88 12
0.12287331 -0.019588498 1.7950944 234 88 12
0.13355795 -0.019588498 1.7950944 234 88 12
-0.016850177 -0.0024071683 2.6327875 234 88 12
-0.035856064 -0.0079004886 2.4109418 234 88 12
-0.029365402 -0.0066973721 2.4595292 234 88 12
-0.018150734 -0.0063772849 2.4724557 234 88 12
-0.0015407467 -0.00095379556 2.6914814 234 88 12
-0.0012981938 -0.0056255069 2.502816 234 88 12
0.0010661079 -0.0046198005 2.543431 234 88 12
0.0026642873 -0.006927147 2.4502499 234 88 12
0.005684285 -0.0067177918 2.4587045 234 88 12
0.0093757575 -0.0093757575 2.3513637 234 88 12
0.018030303 -0.0093757575 2.3513637 234 88 12
0.026684849 -0.0093757575 2.3513637 234 88 12
0.0024157872 -0.00059255154 2.7060699 234 88 12
0.11617593 -0.024758805 1.7301252 234 88 12
0.0122353 -0.0021207854 2.6443529 234 88 12
-0.028461684 -0.0046914862 2.565798 234 88 12
-0.0065570418 -0.001214267 2.6875007 234 88 12
-0.15045388 -0.028567191 1.7301483 234 88 12
-0.012561575 -0.0024470601 2.6443529 234 88 12
-0.039502446 -0.0091159493 2.4109418 234 88 12
-0.085569061 -0.028523019 1.7316943 234 88 12
-0.019597981 -0.0089081731 2.4182138 234 88 12
-0.011970731 -0.0057922895 2.5272698 234 88 12
-0.0059581585 -0.0030818062 2.6221368 234 88 12
-0.00044587665 -0.0066881501 2.4959147 234 88 12
0.0064479476 -0.0087926555 2.4222569 234 88 12
0.0086624688 -0.0099951569 2.3801696 234 88 12
0.035339393 -0.010818182 2.3513637 234 88 12
0.032810669 -0.0096501959 2.3922431 234 88 12
0.054286182 -0.015364014 2.1922596 234 88 12
0.033425145 -0.0091159493 2.4109418 234 88 12
0.11236688 -0.028567852 1.7301252 234 88 12
0.11617593 -0.028567852 1.7301252 234 88 12
0.12379403 -0.028567852 1.7301252 234 88 12
0.11931176 -0.026711589 1.7950944 234 88 12
0.12287331 -0.026711589 1.7950944 234 88 12
0.022545973 -0.0045091943 2.5721781 234 88 12
-0.035547592 -0.0087581016 2.4595292 234 88 12
-0.034517225 -0.0087581016 2.4595292 234 88 12
-0.093175195 -0.032326087 1.7316943 234 88 12
-0.0058802627 -0.0037023877 2.6156616 234 88 12
-0.0018575891 -0.0045112879 2.5906808 234 88 12
-0.0015106121 -0.008560135 2.4656429 234 88 12
0.0017152465 -0.0097197294 2.429832 234 88 12
0.0026195848 -0.008906588 2.4549437 234 88 12
0.035384052 -0.010936889 2.3922431 234 88 12
0.035856064 -0.010331409 2.4109418 234 88 12
-0.017590845 -0.0035181688 2.6327875 234 88 12
-0.16188075 -0.036185108 1.7301483 234 88 12
-0.14068103 -0.033834677 1.7950944 234 88 12
-0.045579743 -0.011546869 2.4109418 234 88 12
-0.10078134 -0.036129158 1.7316943 234 88 12
-0.025018578 -0.0093206465 2.4724557 234 88 12
-0.017169613 -0.0093206465 2.4724557 234 88 12
-0.0083395261 -0.0093206465 2.4724557 234 88 12
-0.00049903482 -0.009481662 2.4680066 234 88 12
0.00053847145 -0.010230958 2.4473026 234 88 12
0.0016563552 -0.01049025 2.4401379 234 88 12
0.0024829789 -0.0094353193 2.4692872 234 88 12
0.006490909 -0.013703031 2.3513637 234 88 12
0.0070768106 -0.012223582 2.3922431 234 88 12
0.0096501959 -0.012223582 2.3922431 234 88 12
0.12760307 -0.036185946 1.7301252 234 88 12
0.13141212 -0.036185946 1.7301252 234 88 12
-0.16949867 -0.039994068 1.7301483 234 88 12
-0.026153328 -0.0063128723 2.5721781 234 88 12
-0.14780413 -0.037396222 1.7950944 234 88 12
-0.026980819 -0.010301768 2.4724557 234 88 12
-0.0092184078 -0.021509619 2.1922596 234 88 12
-0.002260464 -0.0094939489 2.4926512 234 88 12
0.0006063903 -0.012734196 2.4116452 234 88 12
0.0049638273 -0.014891481 2.357713 234 88 12
0.062480323 -0.021509619 2.1922596 234 88 12
0.13355795 -0.037396222 1.7950944 234 88 12
-0.15492721 -0.040957768 1.7950944 234 88 12
-0.060431786 -0.023558155 2.1922596 234 88 12
-0.0016288261 -0.012487668 2.4449553 234 88 12
-0.00057538017 -0.013233744 2.4279253 234 88 12
0.00061478838 -0.014140132 2.4072361 234 88 12
0.043993939 -0.01658788 2.3513637 234 88 12
0.13903022 -0.043804042 1.7301252 234 88 12
0.14283927 -0.043804042 1.7301252 234 88 12
0.017590845 -0.0042588362 2.6327875 234 88 12
-0.17711659 -0.047611985 1.7301483 234 88 12
-0.017412549 -0.025606688 2.1922596 234 88 12
-0.0038276652 -0.019138327 2.3280952 234 88 12
-0.0016341552 -0.01361796 2.4440229 234 88 12
0.0021541223 -0.017951021 2.3530285 234 88 12
0.0031569013 -0.015784506 2.3985255 234 88 12
0.0064979838 -0.023207085 2.2426512 234 88 12
0.018030303 -0.018030303 2.3513637 234 88 12
0.026684849 -0.018030303 2.3513637 234 88 12
0.035339393 -0.018030303 2.3513637 234 88 12
0.043993939 -0.018030303 2.3513637 234 88 12
-0.15848875 -0.048080858 1.7950944 234 88 12
-0.064528853 -0.027655223 2.1922596 234 88 12
-0.023558155 -0.027655223 2.1922596 234 88 12
-0.015364014 -0.027655223 2.1922596 234 88 12
-0.007169873 -0.027655223 2.1922596 234 88 12
-0.0029353222 -0.01585074 2.4217911 234 88 12
-0.0018965974 -0.017069377 2.3980954 234 88 12
-0.00072024501 -0.019446615 2.3518715 234 88 12
0.0008032216 -0.021686982 2.3083086 234 88 12
0.0067898743 -0.026189515 2.2207594 234 88 12
0.0087298388 -0.026189515 2.2207594 234 88 12
0.013315478 -0.027655223 2.1922596 234 88 12
-0.029087216 -0.0090702064 2.565798 234 88 12
-0.15492721 -0.051642403 1.7950944 234 88 12
-0.049226124 -0.017624168 2.4109418 234 88 12
-0.12359975 -0.055144504 1.7316943 234 88 12
-0.027655223 -0.029703759 2.1922596 234 88 12
-0.0018529028 -0.017911395 2.4057419 234 88 12
-0.00067257817 -0.019504767 2.3768964 234 88 12
0.0006112472 -0.01772617 2.4090953 234 88 12
0.0043361727 -0.041916333 1.9711698 234 88 12
0.013092401 -0.025311975 2.2717659 234 88 12
0.019461084 -0.029703759 2.1922596 234 88 12
0.0067062541 -0.0092610177 2.5623436 234 88 12
0.014796968 -0.018657045 2.3922431 234 88 12
0.018657045 -0.018657045 2.3922431 234 88 12
0.044390902 -0.018657045 2.3922431 234 88 12
0.043148823 -0.017624168 2.4109418 234 88 12
0.044364285 -0.017624168 2.4109418 234 88 12
0.1466483 -0.05523118 1.7301252 234 88 12
0.023748424 -0.0087177763 2.5721781 234 88 12
-0.14780413 -0.055203948 1.7950944 234 88 12
-0.035849366 -0.031752296 2.1922596 234 88 12
-0.002909946 -0.030069442 2.2207594 234 88 12
0.0096010938 -0.027057627 2.2717659 234 88 12
0.01832936 -0.027057627 2.2717659 234 88 12
-0.044043504 -0.033800829 2.1922596 234 88 12
-0.024082962 -0.010946801 2.565798 234 88 12
-0.13355795 -0.062327038 1.7950944 234 88 12
-0.036577955 -0.018031387 2.4595292 234 88 12
-0.068625927 -0.035849366 2.1922596 234 88 12
-0.060431786 -0.035849366 2.1922596 234 88 12
-0.050189111 -0.035849366 2.1922596 234 88 12
-0.04199497 -0.035849366 2.1922596 234 88 12
-0.033800829 -0.035849366 2.1922596 234 88 12
-0.025606688 -0.035849366 2.1922596 234 88 12
-0.010331409 -0.021270547 2.4109418 234 88 12
-0.0079004886 -0.021270547 2.4109418 234 88 12
-0.0025759123 -0.018031387 2.4595292 234 88 12
0.0078554405 -0.030548934 2.2717659 234 88 12
0.016408708 -0.021270547 2.4109418 234 88 12
-0.043148823 -0.022486007 2.4109418 234 88 12
-0.013909927 -0.019061752 2.4595292 234 88 12
-0.0063128723 -0.011122679 2.5721781 234 88 12
-0.0025930053 -0.010660133 2.5787413 234 88 12
-0.002909946 -0.035889335 2.2207594 234 88 12
0.00096998201 -0.035889335 2.2207594 234 88 12
0.0096130688 -0.014227341 2.5281255 234 88 12
0.0081165498 -0.011122679 2.5721781 234 88 12
0.052571174 -0.067073569 1.7782805 234 88 12
0.018839628 -0.022486007 2.4109418 234 88 12
0.010538399 -0.011815781 2.5623436 234 88 12
0.026377203 -0.023803817 2.3922431 234 88 12
0.033896968 -0.026684849 2.3513637 234 88 12
0.035339393 -0.026684849 2.3513637 234 88 12
0.043993939 -0.026684849 2.3513637 234 88 12
0.023950906 -0.011815781 2.5623436 234 88 12
-0.034517225 -0.020092117 2.4595292 234 88 12
-0.022486007 -0.023701467 2.4109418 234 88 12
-0.0093190018 -0.011723906 2.5721781 234 88 12
-0.0033471133 -0.026107484 2.3785532 234 88 12
0.011047294 -0.018732369 2.4778335 234 88 12
0.0046291696 -0.0072215046 2.6327875 234 88 12
-0.015884021 -0.0091724629 2.6125476 234 88 12
-0.098589271 -0.070915088 1.8219409 234 88 12
-0.095129997 -0.070915088 1.8219409 234 88 12
-0.08475218 -0.070915088 1.8219409 234 88 12
-0.07783363 -0.070915088 1.8219409 234 88 12
-0.0082775885 -0.0091724629 2.6125476 234 88 12
0.0061097867 -0.035785895 2.2717659 234 88 12
0.0096010938 -0.035785895 2.2717659 234 88 12
0.026377203 -0.026377203 2.3922431 234 88 12
0.035384052 -0.026377203 2.3922431 234 88 12
0.044390902 -0.026377203 2.3922431 234 88 12
-0.002909946 -0.043649193 2.2207594 234 88 12
0.00096998201 -0.043649193 2.2207594 234 88 12
-0.00261848 -0.041022856 2.2717659 234 88 12
-0.00087282667 -0.044514161 2.2717659 234 88 12
0.00087282667 -0.044514161 2.2717659 234 88 12
0.013196698 -0.096147381 1.7402476 234 88 12
-0.00066942268 -0.036818247 2.3785532 234 88 12
0.00066942268 -0.036818247 2.3785532 234 88 12
0.0008643351 -0.015846144 2.5787413 234 88 12
-1.464503 0.062134519 2.2525854 234 88 12
-1.1755883 0.017245891 1.3780413 234 88 12
-1.3753018 0.047021344 1.9813803 234 88 12
-1.3573949 0.039526049 1.9222304 234 88 12
-1.1814133 0.021064062 1.3741795 234 88 12
-1.1617475 -0.0047726007 1.3102614 234 88 12
-1.1842484 0.024752239 1.3722485 234 88 12
-1.429063 0.055814333 2.1383641 234 88 12
-1.3737869 0.041055191 1.9602711 234 88 12
-1.3616747 0.052706204 1.9191022 234 88 12
-1.1900735 0.02857041 1.3683867 234 88 12
-1.1929086 0.032258589 1.3664558 234 88 12
-1.3637 0.034025036 1.9183202 234 88 12
-1.1955891 0.039504949 1.3645248 234 88 12
-1.1958985 0.032388583 1.3645248 234 88 12
-1.4493487 0.059493668 2.1973147 234 88 12
-1.3833063 0.051019192 1.9761087 234 88 12
-1.3836758 0.042519003 1.9761087 234 88 12
-1.3782192 0.03867209 1.9574808 234 88 12
-1.3661219 0.034130331 1.9167562 234 88 12
-1.3664978 0.025483955 1.9167562 234 88 12
-1.2015688 0.039764937 1.3606631 234 88 12
-1.2018782 0.032648571 1.3606631 234 88 12
-1.3792995 0.038719054 1.9567832 234 88 12
-1.4298624 0.052258868 2.1262445 234 88 12
-1.2073938 0.04358311 1.3568013 234 88 12
-1.2075485 0.040024925 1.3568013 234 88 12
-1.207858 0.032908559 1.3568013 234 88 12
-1.386737 0.042652093 1.9741317 234 88 12
-1.3816833 0.033671066 1.9553881 234 88 12
-1.2103837 0.043713104 1.3548703 234 88 12
-1.2105384 0.040154919 1.3548703 234 88 12
-1.2108479 0.033038553 1.3548703 234 88 12
-1.454223 0.059797969 2.2079282 234 88 12
-1.4309624 0.051667403 2.1255519 234 88 12
-1.3712786 0.027135607 1.9136281 234 88 12
-1.3713413 0.025694543 1.9136281 234 88 12
-1.3883553 0.052455321 1.9728138 234 88 12
-1.3837318 0.036335949 1.9539928 234 88 12
-1.3838437 0.033764992 1.9539928 234 88 12
-1.2193533 0.044103086 1.3490776 234 88 12
-1.2195079 0.040544901 1.3490776 234 88 12
-1.2198174 0.033428535 1.3490776 234 88 12
-1.374974 0.025852486 1.9112821 234 88 12
-1.2043635 0.046644662 1.28135 234 88 12
-1.2223431 0.04423308 1.3471466 234 88 12
-1.2224978 0.040674895 1.3471466 234 88 12
-1.2228073 0.033558529 1.3471466 234 88 12
-1.4699099 0.062497422 2.2613549 234 88 12
-1.4357288 0.053696975 2.1341267 234 88 12
-1.4671487 0.060791049 2.2509177 234 88 12
-1.3924367 0.052632775 1.9701779 234 88 12
-1.3929647 0.040489648 1.9701779 234 88 12
-1.2112095 0.046951938 1.2789304 234 88 12
-1.2283229 0.044493068 1.3432848 234 88 12
-1.2284776 0.040934883 1.3432848 234 88 12
-1.2287869 0.033818517 1.3432848 234 88 12
-1.4528489 0.057792433 2.1951063 234 88 12
-1.2144017 0.047090732 1.2768688 234 88 12
-1.4702135 0.062633373 2.2611556 234 88 12
-1.2343026 0.044753056 1.3394231 234 88 12
-1.2344573 0.041194871 1.3394231 234 88 12
-1.2347667 0.034078505 1.3394231 234 88 12
-1.3387455 0.038726855 1.7449272 234 88 12
-1.3809658 0.027556786 1.907372 234 88 12
-1.2206211 0.051167369 1.2727456 234 88 12
-1.2372924 0.04488305 1.3374921 234 88 12
-1.2374471 0.041324865 1.3374921 234 88 12
-1.2377566 0.034208499 1.3374921 234 88 12
-1.4358158 0.051239122 2.1224356 234 88 12
-1.392429 0.035426177 1.9484122 234 88 12
-1.3924849 0.034140699 1.9484122 234 88 12
-1.2232183 0.055089731 1.2689594 234 88 12
-1.3820719 0.057924401 1.9058079 234 88 12
-1.3833877 0.027662082 1.9058079 234 88 12
-1.2268405 0.055244002 1.2686223 234 88 12
-1.2270056 0.051444955 1.2686223 234 88 12
-1.3832828 0.057977051 1.9050258 234 88 12
-1.3635296 0.049673729 1.8232638 234 88 12
-1.3845985 0.027714729 1.9050258 234 88 12
-1.2462621 0.045273032 1.3316994 234 88 12
-1.2464167 0.041714847 1.3316994 234 88 12
-1.3995265 0.05415763 1.9655652 234 88 12
-1.40016 0.039585881 1.9655652 234 88 12
-1.2324804 0.06311772 1.2627642 234 88 12
-1.2492518 0.045403026 1.3297684 234 88 12
-1.2494066 0.041844841 1.3297684 234 88 12
-1.4577413 0.060930684 2.2056284 234 88 12
-1.347255 0.041147307 1.739374 234 88 12
-1.4403235 0.052693158 2.1311929 234 88 12
-1.4011804 0.039630242 1.9649062 234 88 12
-1.2354012 0.074663743 1.2616303 234 88 12
-1.23578 0.067059152 1.2618353 234 88 12
-1.2362521 0.059459437 1.2624375 234 88 12
-1.2361743 0.051840391 1.260699 234 88 12
-1.4015672 0.054246359 1.9642472 234 88 12
-1.3489747 0.041222077 1.7382635 234 88 12
-1.271354 0.079913467 1.4019269 234 88 12
-1.2394407 0.07854449 1.2639157 234 88 12
-1.2385958 0.074802645 1.259567 234 88 12
-1.2389741 0.067198023 1.2597724 234 88 12
-1.2394443 0.05959823 1.2603759 234 88 12
-1.3979039 0.058846571 1.9442266 234 88 12
-1.2552316 0.045663014 1.3259066 234 88 12
-1.2553864 0.042104829 1.3259066 234 88 12
-1.4730092 0.062903278 2.2691801 234 88 12
-1.2420279 0.082501896 1.2599847 234 88 12
-1.2460843 0.059803534 1.273441 234 88 12
-1.2601426 0.056552015 1.3344475 234 88 12
-1.2651315 0.053281549 1.3556943 234 88 12
-1.3094009 0.052827328 1.54967 234 88 12
-1.3707809 0.05173631 1.8185316 234 88 12
-1.4418637 0.052158333 2.1302152 234 88 12
-1.2454741 0.086393207 1.2598066 234 88 12
-1.2463603 0.082550451 1.2630088 234 88 12
-1.2454108 0.075060807 1.2573309 234 88 12
-1.409339 0.065237477 1.9853475 234 88 12
-1.2457399 0.063675068 1.2565924 234 88 12
-1.245905 0.059877262 1.2565924 234 88 12
-1.2518926 0.056284986 1.2825576 234 88 12
-1.3116951 0.052927077 1.5481884 234 88 12
-1.2612114 0.045923002 1.3220448 234 88 12
-1.261366 0.042364817 1.3220448 234 88 12
-1.3722464 0.051800027 1.8175852 234 88 12
-1.4561399 0.06090099 2.1928976 234 88 12
-1.4010704 0.035801888 1.9428315 234 88 12
-1.256637 0.085759826 1.2937059 234 88 12
-1.254843 0.060123008 1.2805482 234 88 12
-1.3205646 0.058727074 1.5775717 234 88 12
-1.3076715 0.055436131 1.5186018 234 88 12
-1.3017626 0.052190628 1.4912337 234 88 12
-1.2642012 0.046052996 1.3201139 234 88 12
-1.2643559 0.042494811 1.3201139 234 88 12
-1.3557646 0.043567758 1.7338209 234 88 12
-1.2628635 -0.012229824 1.3025997 234 88 12
-1.3929495 0.030965388 1.8995517 234 88 12
-1.2512237 0.082947582 1.2521359 234 88 12
-1.2577029 0.071359113 1.2796022 234 88 12
-1.3281666 0.066587545 1.6025366 234 88 12
-1.3258294 0.06406261 1.5912887 234 88 12
-1.3098058 0.061205544 1.5170645 234 88 12
-1.3225492 0.058815166 1.5751625 234 88 12
-1.3040996 0.055230733 1.4896421 234 88 12
-1.3751773 0.051927458 1.8156924 234 88 12
-1.3574843 0.043642528 1.7327104 234 88 12
-1.2541015 0.083112724 1.2486107 234 88 12
-1.2544241 0.07550443 1.2485726 234 88 12
-1.3339937 0.06169958 1.6174809 234 88 12
-1.3341007 0.059237663 1.6174809 234 88 12
-1.3065641 0.055337884 1.4880505 234 88 12
-1.2701809 0.046312984 1.3162521 234 88 12
-1.2703357 0.042754799 1.3162521 234 88 12
-1.4777533 0.064322814 2.2895205 234 88 12
-1.4537542 0.064283952 2.1755469 234 88 12
-1.2948432 0.051517654 1.4182851 234 88 12
-1.4573674 0.061325043 2.1920946 234 88 12
-1.3609238 0.043792069 1.730489 234 88 12
-1.4575605 0.056885235 2.1920946 234 88 12
-1.4093961 0.03877084 1.9596344 234 88 12
-1.3961641 0.068643615 1.8964237 234 88 12
-1.2975157 0.051633853 1.4165592 234 88 12
-1.2761607 0.046572972 1.3123902 234 88 12
-1.2763153 0.043014787 1.3123902 234 88 12
-1.4424254 0.059837319 2.117934 234 88 12
-1.3807111 0.025958516 1.8128532 234 88 12
-1.3977931 0.031175978 1.8964237 234 88 12
-1.2637949 0.079729803 1.2421132 234 88 12
-1.2639604 0.075924352 1.2421132 234 88 12
-1.4403375 0.063647971 2.1055126 234 88 12
-1.2786864 0.057377517 1.3104593 234 88 12
-1.2788411 0.053819332 1.3104593 234 88 12
-1.2789959 0.050261151 1.3104593 234 88 12
-1.3831235 0.054155428 1.8225625 234 88 12
-1.2758769 0.039142303 1.2927715 234 88 12
-1.4444748 0.058817651 2.1247952 234 88 12
-1.4454229 0.051711284 2.1279335 234 88 12
-1.4076072 0.03479819 1.938646 234 88 12
-1.4408808 0.064354651 2.1051426 234 88 12
-1.3841858 0.062745012 1.8216369 234 88 12
-1.3843341 0.059334099 1.8216369 234 88 12
-1.3824288 0.05399004 1.8109603 234 88 12
-1.411718 0.055904306 1.9576576 234 88 12
-1.3660829 0.04401638 1.7271572 234 88 12
-1.2701902 0.080007859 1.237983 234 88 12
-1.2703557 0.076202407 1.237983 234 88 12
-1.3974843 0.065969832 1.8817021 234 88 12
-1.2818066 0.043029141 1.2888402 234 88 12
-1.4135302 0.03773398 1.9569986 234 88 12
-1.3851832 0.024405656 1.8100139 234 88 12
-1.2846928 0.046783648 1.2868745 234 88 12
-1.2848502 0.043161474 1.2868745 234 88 12
-1.3704121 0.023699904 1.7249359 234 88 12
-1.3866487 0.02446937 1.8090675 234 88 12
-1.2765855 0.080285914 1.2338527 234 88 12
-1.2767509 0.076480463 1.2338527 234 88 12
-1.3270614 0.070591353 1.4973124 234 88 12
-1.3271858 0.067731641 1.4973124 234 88 12
-1.2875789 0.05053816 1.2849089 234 88 12
-1.4615617 0.061423372 2.2031519 234 88 12
-1.4460427 0.054418765 2.1198652 234 88 12
-1.2796177 0.084230393 1.2317877 234 88 12
-1.4034294 0.068959497 1.8917315 234 88 12
-1.3671031 0.069080308 1.697089 234 88 12
-1.3898438 0.064699695 1.8179349 234 88 12
-1.2904651 0.054292668 1.2829432 234 88 12
-1.4156939 0.058510385 1.9550216 234 88 12
-1.2824844 0.091980323 1.2297226 234 88 12
-1.3541735 0.07464429 1.6168594 234 88 12
-1.3689929 0.067020021 1.6959286 234 88 12
-1.3610343 0.064925008 1.6519961 234 88 12
-1.3758241 0.062837109 1.7322173 234 88 12
-1.2997237 0.058261853 1.3158073 234 88 12
-1.4474539 0.061399855 2.1228025 234 88 12
-1.2855166 0.095924802 1.2276574 234 88 12
-1.2949775 0.090779088 1.279012 234 88 12
-1.2952925 0.08353474 1.279012 234 88 12
-1.3597426 0.072086841 1.6345565 234 88 12
-1.3442224 0.070449002 1.5478761 234 88 12
-1.3443382 0.067786358 1.5478761 234 88 12
-1.2965524 0.054557331 1.279012 234 88 12
-1.4479681 0.061422214 2.1224704 234 88 12
-1.3763121 0.046511602 1.7204934 234 88 12
-1.3805025 0.033310968 1.7405984 234 88 12
-1.3828336 0.022258161 1.7508867 234 88 12
-1.3925105 0.024724232 1.8052819 234 88 12
-1.4066235 0.07920488 1.8893855 234 88 12
-1.3898324 0.072059371 1.7925054 234 88 12
-1.2986511 0.076422721 1.2770463 234 88 12
-1.3521001 0.0677334 1.57769 234 88 12
-1.3383884 0.065279499 1.4994106 234 88 12
-1.2958766 0.061889291 1.2577497 234 88 12
-1.2960371 0.058198381 1.2577497 234 88 12
-1.382861 0.059153497 1.7498349 234 88 12
-1.4674357 0.062541835 2.2297776 234 88 12
-1.3821619 0.033383116 1.7395267 234 88 12
-1.4489082 0.051652379 2.1221383 234 88 12
-1.3844621 0.022328967 1.7498349 234 88 12
-1.4197053 0.036785848 1.9530448 234 88 12
-1.3943551 0.016067918 1.8043355 234 88 12
-1.3004348 0.10553246 1.2750807 234 88 12
-1.3677415 0.06744311 1.6541437 234 88 12
-1.2988175 0.065715045 1.2557467 234 88 12
-1.2952768 0.06197745 1.234364 234 88 12
-1.3844054 0.061162435 1.7487832 234 88 12
-1.4470776 0.059316345 2.1101856 234 88 12
-1.3837354 0.035430115 1.7384551 234 88 12
-1.3838212 0.033455268 1.7384551 234 88 12
-1.4631013 0.057571314 2.2022676 234 88 12
-1.2988799 -0.020894935 1.234364 234 88 12
-1.2968042 0.099784337 1.2323198 234 88 12
-1.2979506 0.073415853 1.2323198 234 88 12
-1.2982782 0.065881997 1.2323198 234 88 12
-1.3859496 0.063171379 1.7477314 234 88 12
-1.455503 0.063525699 2.1572697 234 88 12
-1.3825392 0.022176692 1.7171615 234 88 12
-1.3878036 0.02053245 1.7477314 234 88 12
-1.3023727 -0.028291168 1.2323198 234 88 12
-1.3055772 0.12753019 1.2711494 234 88 12
-1.3058921 0.12028583 1.2711494 234 88 12
-1.2993144 0.11498966 1.2302756 234 88 12
-1.2994782 0.11122274 1.2302756 234 88 12
-1.3761758 0.089004926 1.6849473 234 88 12
-1.3858767 0.082794756 1.7415676 234 88 12
-1.3766446 0.078221165 1.6849473 234 88 12
-1.3006246 0.084854253 1.2302756 234 88 12
-1.3872411 0.070994712 1.7466797 234 88 12
-1.4156936 0.066242285 1.9162599 234 88 12
-1.4331646 0.051017959 2.0171766 234 88 12
-1.3842589 0.022251463 1.716051 234 88 12
-1.4616343 0.056320988 2.1894844 234 88 12
-1.3896006 0.016726991 1.7466797 234 88 12
-1.3058655 -0.035687402 1.2302756 234 88 12
-1.3005142 0.1603304 1.2282314 234 88 12
-1.300678 0.15656348 1.2282314 234 88 12
-1.3768628 0.11496475 1.6837769 234 88 12
-1.3769566 0.112808 1.6837769 234 88 12
-1.3773316 0.10418098 1.6837769 234 88 12
-1.4560018 0.070836157 2.1567433 234 88 12
-1.456508 0.069281496 2.1594298 234 88 12
-1.3822734 0.05484844 1.7009079 234 88 12
-1.3848218 0.048932053 1.7149403 234 88 12
-1.4182134 0.034189191 1.915534 234 88 12
-1.4003686 0.012834767 1.8005497 234 88 12
-1.400596 0.0076027499 1.8005497 234 88 12
-1.3026968 0.18306959 1.2261872 234 88 12
-1.3780186 0.13014081 1.6826065 234 88 12
-1.3886539 0.094675116 1.7394445 234 88 12
-1.4568663 0.070249878 2.1591718 234 88 12
-1.3894194 0.077068985 1.7394445 234 88 12
-1.3898447 0.067287803 1.7394445 234 88 12
-1.4347267 0.053049967 2.0161128 234 88 12
-1.4531198 0.051932149 2.1307764 234 88 12
-1.3928578 0.016868606 1.7445761 234 88 12
-1.3932791 0.0071779401 1.7445761 234 88 12
-1.4019856 0.0094104707 1.7996033 234 88 12
-1.3795496 0.13668986 1.6814361 234 88 12
-1.3893621 0.11626519 1.7383829 234 88 12
-1.3895322 0.11235271 1.7383829 234 88 12
-1.3899574 0.10257152 1.7383829 234 88 12
-1.4527025 0.07267765 2.1304641 234 88 12
-1.3842469 0.090637013 1.6986328 234 88 12
-1.3844292 0.086444609 1.6986328 234 88 12
-1.4529027 0.068072207 2.1304641 234 88 12
-1.3857051 0.057097804 1.6986328 234 88 12
-1.4497372 0.061395656 2.108413 234 88 12
-1.4354224 0.056026362 2.0155809 234 88 12
-1.4355929 0.052105583 2.0155809 234 88 12
-1.3919467 0.037765712 1.7330966 234 88 12
-1.3921183 0.03381601 1.7330966 234 88 12
-1.4568448 0.079619341 2.1559536 234 88 12
-1.3907508 0.12220536 1.7373213 234 88 12
-1.3854614 0.1032908 1.6974953 234 88 12
-1.3865551 0.078136392 1.6974953 234 88 12
-1.4592749 0.061879225 2.1667626 234 88 12
-1.4217596 0.030323047 1.9133564 234 88 12
-1.3829865 0.14116095 1.6790953 234 88 12
-1.3922244 0.12618931 1.7362597 234 88 12
-1.3924795 0.1203206 1.7362597 234 88 12
-1.3928198 0.11249565 1.7362597 234 88 12
-1.3868583 0.11175218 1.6963577 234 88 12
-1.3872229 0.10336738 1.6963577 234 88 12
-1.3875874 0.094982579 1.6963577 234 88 12
-1.387952 0.086597778 1.6963577 234 88 12
-1.3883165 0.078212976 1.6963577 234 88 12
-1.3951796 0.039884858 1.7309532 234 88 12
-1.4757222 0.063209899 2.2738936 234 88 12
-1.3956949 0.028035758 1.7309532 234 88 12
-1.3847989 0.14123975 1.6779249 234 88 12
-1.3883463 0.11811737 1.6952202 234 88 12
-1.452978 0.052215811 2.1154563 234 88 12
-1.3946661 0.020653483 1.7093872 234 88 12
-1.3899254 0.12238635 1.6940827 234 88 12
-1.3919305 0.07626994 1.6940827 234 88 12
-1.4012535 0.011408243 1.7393173 234 88 12
-1.4014219 0.0075319773 1.7393173 234 88 12
-1.3270915 0.19378801 1.2554243 234 88 12
-1.3919601 0.11617433 1.6929451 234 88 12
-1.3921424 0.11198193 1.6929451 234 88 12
-1.3925071 0.10359713 1.6929451 234 88 12
-1.3928716 0.095212325 1.6929451 234 88 12
-1.3932362 0.086827524 1.6929451 234 88 12
-1.4672228 0.065635853 2.2127924 234 88 12
-1.3981851 0.069770671 1.7228801 234 88 12
-1.3982717 0.067778878 1.7228801 234 88 12
-1.3368765 0.06341508 1.2847133 234 88 12
-1.4195912 0.062456992 1.8729186 234 88 12
-1.3999861 0.044051006 1.7277381 234 88 12
-1.4546715 0.049450282 2.118485 234 88 12
-1.410475 0.016768785 1.7939248 234 88 12
-1.3932658 0.12673192 1.6918076 234 88 12
-1.3999454 0.067851648 1.7217993 234 88 12
-1.4014739 0.048072856 1.7266665 234 88 12
-1.4005283 0.12459041 1.7309518 234 88 12
-1.4006134 0.12263418 1.7309518 234 88 12
-1.4006984 0.12067794 1.7309518 234 88 12
-1.4559134 0.076854624 2.1282773 234 88 12
-1.4013789 0.10502805 1.7309518 234 88 12
-1.401464 0.10307181 1.7309518 234 88 12
-1.4088327 0.067584321 1.7743726 234 88 12
-1.4614897 0.06287124 2.165307 234 88 12
-1.331992 0.13225928 1.196681 234 88 12
-1.4403944 0.050765451 1.9971397 234 88 12
-1.4057373 0.026493801 1.7245231 234 88 12
-1.4556308 0.051705029 2.1137607 234 88 12
-1.4033537 0.018980732 1.7038341 234 88 12
-1.4074306 0.019444006 1.7351103 234 88 12
-1.4350635 0.036236987 1.9431602 234 88 12
-1.4735337 0.065693147 2.2531013 234 88 12
-1.4616195 0.071409352 2.1560752 234 88 12
-1.360886 0.074182339 1.3283494 234 88 12
-1.4443545 0.059360858 2.0097299 234 88 12
0.057032913 -1.3342962 1.7755384 234 88 12
0.060945388 -1.3341261 1.7755384 234 88 12
0.057104383 -1.33594 1.7744769 234 88 12
0.061016858 -1.3357699 1.7744769 234 88 12
0.056666791 -1.3274881 1.7361717 234 88 12
0.060760066 -1.3229328 1.7200593 234 88 12
0.062995613 -1.3246514 1.7188889 234 88 12
0.054723755 -1.331102 1.7338966 234 88 12
0.061012357 -1.3308285 1.7338966 234 88 12
0.053477786 -1.3426853 1.7702305 234 88 12
0.061088938 -1.33259 1.7327591 234 88 12
0.069127679 -1.3420049 1.7702305 234 88 12
0.054953504 -1.3363862 1.730484 234 88 12
0.063100442 -1.4457222 2.1635864 234 88 12
0.063338302 -1.3360217 1.730484 234 88 12
0.065467544 -1.3318067 1.7142073 234 88 12
0.065546334 -1.333619 1.7130369 234 88 12
0.053010467 -1.3400002 1.7282089 234 88 12
0.06941355 -1.34858 1.7659842 234 88 12
0.065664254 -1.3412147 1.7270714 234 88 12
0.070017427 -1.3370559 1.7106961 234 88 12
0.068018265 -1.3407743 1.7083553 234 88 12
0.070175022 -1.3406805 1.7083553 234 88 12
0.053393379 -1.3488071 1.7225212 234 88 12
0.05346996 -1.3505684 1.7213837 234 88 12
0.06814336 -1.3499305 1.7213837 234 88 12
0.070411399 -1.3461174 1.704844 234 88 12
0.052307706 -1.360852 1.758553 234 88 12
0.070568994 -1.3497418 1.7025032 234 88 12
0.050494406 -1.3642246 1.7564299 234 88 12
0.051603507 -1.3559438 1.7179711 234 88 12
0.06239352 -1.456684 2.1907749 234 88 12
0.070469312 -1.3551235 1.7179711 234 88 12
0.060479179 -1.4512863 2.1630423 234 88 12
0.061748851 -1.4626253 2.2158649 234 88 12
0.053230923 -1.2681556 1.2400725 234 88 12
0.064656034 -1.4721272 2.2612646 234 88 12
0.049564581 -1.2715186 1.2380074 234 88 12
0.053369947 -1.2713531 1.2380074 234 88 12
0.058664016 -1.4533669 2.1617522 234 88 12
0.034482151 -1.275378 1.2359424 234 88 12
0.064219721 -1.4741039 2.270232 234 88 12
0.064370088 -1.4531187 2.1617522 234 88 12
0.060668208 -1.463864 2.2150967 234 88 12
0.023205085 -1.2790719 1.2338773 234 88 12
0.027010448 -1.2789065 1.2338773 234 88 12
0.030815812 -1.278741 1.2338773 234 88 12
0.038426541 -1.2784101 1.2338773 234 88 12
0.046037268 -1.2780792 1.2338773 234 88 12
0.053647749 -1.2777437 1.2338527 234 88 12
0.0081226537 -1.2829312 1.2318122 234 88 12
0.011928017 -1.2827659 1.2318122 234 88 12
0.038605344 -1.2819124 1.2334546 234 88 12
0.046204302 -1.281582 1.2334546 234 88 12
0.059261173 -1.4092408 1.9206151 234 88 12
0.061936338 -1.4091245 1.9206151 234 88 12
0.06140222 -1.2809212 1.2334546 234 88 12
0.076025724 -1.2895201 1.2829432 234 88 12
0.058797613 -1.4297493 2.0255601 234 88 12
0.059310041 -1.4103647 1.9198892 234 88 12
0.061985202 -1.4102484 1.9198892 234 88 12
0.079780228 -1.2924063 1.2809776 234 88 12
-0.02961329 -1.2910601 1.2281321 234 88 12
-0.025775207 -1.2909663 1.2285382 234 88 12
-0.014361246 -1.2904872 1.2286334 234 88 12
-0.0068207523 -1.2899882 1.2276821 234 88 12
0.00078997511 -1.2896572 1.2276821 234 88 12
0.012206066 -1.289161 1.2276821 234 88 12
0.064072549 -1.477563 2.2876444 234 88 12
0.03888296 -1.2882977 1.2293309 234 88 12
0.061422214 -1.4479681 2.1224704 234 88 12
0.062168192 -1.4497669 2.1326509 234 88 12
0.071994118 -1.3883315 1.7934747 234 88 12
0.087156914 -1.295135 1.279012 234 88 12
-0.014292455 -1.2935166 1.2256171 234 88 12
-0.0066817282 -1.2931857 1.2256171 234 88 12
0.00092899957 -1.2928549 1.2256171 234 88 12
0.012345091 -1.2923585 1.2256171 234 88 12
0.05994932 -1.440801 2.0782557 234 88 12
0.065606758 -1.2919477 1.2364082 234 88 12
0.073140614 -1.2916201 1.2364082 234 88 12
0.076422721 -1.2986511 1.2770463 234 88 12
0.08366707 -1.2983361 1.2770463 234 88 12
0.087289251 -1.2981787 1.2770463 234 88 12
-0.035573319 -1.3002307 1.2384788 234 88 12
-0.033082306 -1.2977235 1.2246276 234 88 12
-0.025337119 -1.2976799 1.2263204 234 88 12
-0.014153431 -1.2967142 1.2235521 234 88 12
-0.0065427036 -1.2963833 1.2235521 234 88 12
0.025615625 -1.3181428 1.3572628 234 88 12
0.028945638 -1.3179979 1.3572628 234 88 12
0.063569292 -1.4569434 2.1682181 234 88 12
0.069511302 -1.2949492 1.234364 234 88 12
0.073278233 -1.2947854 1.234364 234 88 12
0.074612089 -1.3635951 1.6320024 234 88 12
0.12663072 -1.2906357 1.2237977 234 88 12
0.1301226 -1.2913599 1.2288555 234 88 12
0.13413922 -1.2905755 1.225335 234 88 12
0.1377334 -1.290934 1.2283072 234 88 12
-0.030998375 -1.3111848 1.283502 234 88 12
0.0013045921 -1.2995274 1.2231454 234 88 12
0.0089035518 -1.2991971 1.2231454 234 88 12
0.025737284 -1.3209409 1.3554558 234 88 12
0.029067297 -1.3207961 1.3554558 234 88 12
0.035727322 -1.3205066 1.3554558 234 88 12
0.035499912 -1.2980407 1.2231454 234 88 12
0.069648921 -1.2981144 1.2323198 234 88 12
0.098420441 -1.3037934 1.273115 234 88 12
0.10395279 -1.2947786 1.2214622 234 88 12
0.083771229 -1.3961935 1.8133074 234 88 12
0.064491071 -1.4779088 2.2894156 234 88 12
0.14161083 -1.2940707 1.2269336 234 88 12
0.14554432 -1.2935702 1.2249937 234 88 12
-0.036707565 -1.3041021 1.219422 234 88 12
0.024355957 -1.3970991 1.7936901 234 88 12
0.026997522 -1.3283296 1.3815062 234 88 12
0.029188955 -1.3235942 1.3536487 234 88 12
0.035848983 -1.3233047 1.3536487 234 88 12
0.059675615 -1.450105 2.1211419 234 88 12
0.060525279 -1.4517769 2.1314013 234 88 12
0.081087321 -1.3007884 1.2302756 234 88 12
0.084064066 -1.307467 1.2711494 234 88 12
0.087686241 -1.3073095 1.2711494 234 88 12
0.088480964 -1.3431361 1.4864494 234 88 12
0.10409182 -1.2979763 1.2193971 234 88 12
0.10789727 -1.2978108 1.2193971 234 88 12
0.11550817 -1.2974799 1.2193971 234 88 12
0.12690642 -1.2970361 1.2197077 234 88 12
0.12886916 -1.3019118 1.2494934 234 88 12
0.13448934 -1.296772 1.2201021 234 88 12
0.13692619 -1.299968 1.239926 234 88 12
0.14177004 -1.2972031 1.2245907 234 88 12
-0.044179268 -1.3076305 1.2173569 234 88 12
-0.040373903 -1.3074651 1.2173569 234 88 12
-0.032763176 -1.3071342 1.2173569 234 88 12
-0.028813627 -1.3072343 1.2190216 234 88 12
-0.025014147 -1.3070691 1.2190216 234 88 12
0.031113679 -1.4088678 1.8574747 234 88 12
0.035742074 -1.4086666 1.8574747 234 88 12
0.0091811707 -1.3055823 1.2190216 234 88 12
0.047932804 -1.413722 1.8916852 234 88 12
0.037358068 -1.3614293 1.5685823 234 88 12
0.048937052 -1.3959645 1.78319 234 88 12
0.060546312 -1.4522606 2.131089 234 88 12
0.061121993 -1.4522356 2.131089 234 88 12
0.081398137 -1.3021666 1.217332 234 88 12
0.07818082 -1.3793093 1.6889658 234 88 12
0.080319233 -1.3792163 1.6889658 234 88 12
0.10423084 -1.3011738 1.217332 234 88 12
0.10803629 -1.3010083 1.217332 234 88 12
0.1156472 -1.3006774 1.217332 234 88 12
0.12325811 -1.3003466 1.217332 234 88 12
0.14981912 -1.2993501 1.2183022 234 88 12
0.015627157 -1.4004617 1.7917672 234 88 12
0.026541648 -1.4103655 1.8566375 234 88 12
0.052839145 -1.457058 2.1556385 234 88 12
0.0054057334 -1.3623956 1.5510553 234 88 12
0.010647421 -1.3621677 1.5510553 234 88 12
0.018509952 -1.3618258 1.5510553 234 88 12
0.038884036 -1.4098288 1.8566375 234 88 12
0.0093199797 -1.3087749 1.2169597 234 88 12
0.030581607 -1.3186955 1.2847478 234 88 12
0.063832112 -1.4342579 2.0161128 234 88 12
0.089148067 -1.3050333 1.2152669 234 88 12
0.07713633 -1.4007893 1.8105309 234 88 12
0.078841783 -1.4007151 1.8105309 234 88 12
0.13100803 -1.3032132 1.2152669 234 88 12
0.14155072 -1.3046846 1.2273285 234 88 12
0.14995801 -1.302545 1.216239 234 88 12
-0.055317312 -1.314522 1.2132268 234 88 12
-0.051511947 -1.3143566 1.2132268 234 88 12
0.050905094 -1.4575528 2.1553736 234 88 12
-0.0049818917 -1.3650537 1.5496331 234 88 12
-0.018998828 -1.3365453 1.3638331 234 88 12
0.048143137 -1.4499745 2.1062503 234 88 12
-0.0124487 -1.3362606 1.3638331 234 88 12
0.026468232 -1.3636862 1.5496331 234 88 12
0.053387903 -1.4401282 2.0448761 234 88 12
0.060012694 -1.4532531 2.1304641 234 88 12
0.061164055 -1.4532031 2.1304641 234 88 12
0.06210126 -1.4503846 2.11274 234 88 12
0.062228009 -1.4146407 1.8846934 234 88 12
0.070874386 -1.4142648 1.8846934 234 88 12
0.069749087 -1.4348258 2.0155809 234 88 12
0.096897997 -1.3079001 1.2132018 234 88 12
0.10831435 -1.3074037 1.2132018 234 88 12
0.11592525 -1.3070728 1.2132018 234 88 12
0.12353616 -1.3067418 1.2132018 234 88 12
0.13114706 -1.3064109 1.2132018 234 88 12
0.14243174 -1.3062053 1.2150201 234 88 12
0.15007988 -1.305774 1.2143903 234 88 12
-0.062789015 -1.3180505 1.2111617 234 88 12
0.010441657 -1.4036701 1.7898444 234 88 12
0.030922314 -1.4269528 1.9473672 234 88 12
0.03628882 -1.4297844 1.9673401 234 88 12
0.014713862 -1.3841794 1.6640446 234 88 12
-0.0057789218 -1.3387277 1.3620558 234 88 12
0.013459763 -1.3664582 1.5482109 234 88 12
0.049034726 -1.4410558 2.0444002 234 88 12
0.060091164 -1.4593526 2.1667626 234 88 12
0.060848396 -1.4509764 2.1123936 234 88 12
0.059982952 -1.4360756 2.015049 234 88 12
0.060963146 -1.436033 2.015049 234 88 12
0.060839593 -1.4159142 1.8839114 234 88 12
0.070765093 -1.4356068 2.015049 234 88 12
0.091351077 -1.322142 1.2814956 234 88 12
-0.066455357 -1.3214135 1.2090967 234 88 12
-0.058844626 -1.3210826 1.2090967 234 88 12
0.032887168 -1.4308987 1.9667171 234 88 12
-0.022840083 -1.3353356 1.3144035 234 88 12
0.019552557 -1.3986139 1.7479309 234 88 12
0.037057087 -1.4277115 1.9467062 234 88 12
0.046435636 -1.4419072 2.0439241 234 88 12
0.054279301 -1.4529158 2.1194813 234 88 12
0.070803627 -1.4521973 2.1194813 234 88 12
0.11239786 -1.3136334 1.2090716 234 88 12
0.11620331 -1.313468 1.2090716 234 88 12
0.12381422 -1.3131371 1.2090716 234 88 12
0.13142511 -1.3128062 1.2090716 234 88 12
0.14284147 -1.3123099 1.2090716 234 88 12
0.15045238 -1.3119789 1.2090716 234 88 12
-0.07392706 -1.3249419 1.2070316 234 88 12
-0.066316329 -1.3246111 1.2070316 234 88 12
-0.058705602 -1.3242801 1.2070316 234 88 12
-0.050916459 -1.3241885 1.2087123 234 88 12
0.044910882 -1.4517844 2.1051743 234 88 12
0.03842381 -1.4385573 2.0132637 234 88 12
-0.019278575 -1.3380734 1.312539 234 88 12
0.0013426348 -1.3681122 1.5230119 234 88 12
0.0062146615 -1.3318347 1.2776338 234 88 12
0.011338371 -1.3359014 1.3068184 234 88 12
0.018250385 -1.3356009 1.3068184 234 88 12
0.056621701 -1.418524 1.8823473 234 88 12
0.060944889 -1.418336 1.8823473 234 88 12
0.079678707 -1.4175215 1.8823473 234 88 12
0.10940199 -1.3273482 1.2776338 234 88 12
0.12014779 -1.3165002 1.2070065 234 88 12
0.12395325 -1.3163347 1.2070065 234 88 12
0.13156414 -1.3160038 1.2070065 234 88 12
0.1429805 -1.3155075 1.2070065 234 88 12
0.1505914 -1.3151766 1.2070065 234 88 12
0.15804431 -1.3151213 1.2088352 234 88 12
-0.085204124 -1.3286358 1.2049665 234 88 12
0.031823181 -1.4328777 1.9654714 234 88 12
0.028988691 -1.4269965 1.9237038 234 88 12
0.035126287 -1.4343108 1.9764389 234 88 12
0.01255704 -1.3895361 1.6581585 234 88 12
0.013823784 -1.3877181 1.6458951 234 88 12
0.051875971 -1.4540508 2.1188171 234 88 12
0.0010966089 -1.3392562 1.3049428 234 88 12
0.055175539 -1.4528345 2.1113548 234 88 12
0.066495009 -1.4257087 1.9260893 234 88 12
0.072526038 -1.4190457 1.8815653 234 88 12
0.079731353 -1.4187324 1.8815653 234 88 12
0.069365047 -1.4632474 2.1880789 234 88 12
0.12020653 -1.3298739 1.2757028 234 88 12
0.12376472 -1.3297193 1.2757028 234 88 12
0.07513243 -1.4530396 2.1188171 234 88 12
0.078561515 -1.4466978 2.0757403 234 88 12
0.1657812 -1.3179833 1.2067736 234 88 12
-0.040867556 -1.4036783 1.7277381 234 88 12
-0.032968152 -1.4033349 1.7277381 234 88 12
-0.025068752 -1.4029914 1.7277381 234 88 12
-0.017169353 -1.402648 1.7277381 234 88 12
-0.081034675 -1.3318954 1.2045887 234 88 12
-0.0772352 -1.3317301 1.2045887 234 88 12
-0.065836757 -1.3312345 1.2045887 234 88 12
-0.014986519 -1.3765206 1.5425218 234 88 12
0.00057912309 -1.3905715 1.6473064 234 88 12
0.034057286 -1.4352913 1.9758368 234 88 12
-0.018836465 -1.344157 1.3110688 234 88 12
-0.015408364 -1.3440078 1.3110688 234 88 12
-0.0056891451 -1.3424608 1.3030674 234 88 12
0.0012228701 -1.3421602 1.3030674 234 88 12
0.049344052 -1.439839 2.0129213 234 88 12
0.054770198 -1.4376204 1.9988155 234 88 12
0.054274224 -1.4301901 1.9457961 234 88 12
0.063927092 -1.4721868 2.2475822 234 88 12
0.065256499 -1.4268447 1.9253918 234 88 12
0.070398413 -1.4266211 1.9253918 234 88 12
0.081690475 -1.4384326 2.0129213 234 88 12
0.13456926 -1.332245 1.273772 234 88 12
0.14168562 -1.3319356 1.273772 234 88 12
0.060897615 -1.4760598 2.2737408 234 88 12
0.0026512993 -1.4034487 1.7266665 234 88 12
0.0105507 -1.4031053 1.7266665 234 88 12
0.050690237 -1.4386644 1.9982569 234 88 12
0.059772495 -1.4642874 2.1876774 234 88 12
0.04957433 -1.42247 1.8800013 234 88 12
0.070445374 -1.4277014 1.9246942 234 88 12
0.080229238 -1.3972447 1.7060553 234 88 12
0.087041967 -1.4208409 1.8800013 234 88 12
0.071981966 -1.4637566 2.1876774 234 88 12
0.14893198 -1.3346161 1.271841 234 88 12
0.15960653 -1.334152 1.271841 234 88 12
0.17384119 -1.3237767 1.2008113 234 88 12
0.17764665 -1.3236113 1.2008113 234 88 12
0.060759425 -1.476125 2.2737026 234 88 12
0.05998091 -1.4741454 2.2586954 234 88 12
0.030791972 -1.4422959 2.0118575 234 88 12
0.086443812 -1.3986975 1.7049447 234 88 12
0.15617834 -1.3372965 1.2699101 234 88 12
0.15973653 -1.3371419 1.2699101 234 88 12
0.16685289 -1.3368324 1.2699101 234 88 12
0.17752744 -1.3363683 1.2699101 234 88 12
0.18464382 -1.3360589 1.2699101 234 88 12
0.19176018 -1.3357495 1.2699101 234 88 12
0.022986224 -1.4434605 2.0113256 234 88 12
0.021942465 -1.4416475 1.9971397 234 88 12
0.027089426 -1.4414238 1.9971397 234 88 12
0.051705029 -1.4556308 2.1137607 234 88 12
0.058378063 -1.4666337 2.1999679 234 88 12
0.044692811 -1.4336735 1.9438192 234 88 12
0.061959367 -1.401485 1.7038341 234 88 12
0.079537652 -1.4294704 1.923299 234 88 12
0.096751593 -1.3999723 1.7038341 234 88 12
0.091470443 -1.4230747 1.8784373 234 88 12
0.095793635 -1.4228867 1.8784373 234 88 12
0.092051007 -1.4316144 1.9438192 234 88 12
0.072394632 -1.4660243 2.1999679 234 88 12
0.20256473 -1.3382752 1.2679793 234 88 12
0.20968109 -1.3379658 1.2679793 234 88 12
-0.12465817 -1.3554978 1.2660483 234 88 12
-0.03860411 -1.4102302 1.7234514 234 88 12
0.019101257 -1.4444547 2.0107937 234 88 12
0.049083509 -1.4656866 2.1870751 234 88 12
0.039853979 -1.4566721 2.1134214 234 88 12
0.066030003 -1.4070368 1.7340585 234 88 12
0.087297484 -1.4302152 1.9226013 234 88 12
0.10296617 -1.401425 1.7027234 234 88 12
0.080446951 -1.455804 2.1204364 234 88 12
0.1849038 -1.3420386 1.2660483 234 88 12
0.19202018 -1.3417292 1.2660483 234 88 12
0.20269471 -1.3412651 1.2660483 234 88 12
0.20981109 -1.3409557 1.2660483 234 88 12
0.22048564 -1.3404915 1.2660483 234 88 12
0.22760201 -1.3401822 1.2660483 234 88 12
-0.13764507 -1.3501376 1.1925763 234 88 12
-0.038531959 -1.4118896 1.7223797 234 88 12
0.014811932 -1.4436908 1.9960225 234 88 12
0.037495665 -1.436031 1.9425012 234 88 12
0.062920354 -1.4323573 1.9219038 234 88 12
0.069977082 -1.4084969 1.7330067 234 88 12
0.070633225 -1.432022 1.9219038 234 88 12
0.078346096 -1.4316866 1.9219038 234 88 12
0.087344445 -1.4312954 1.9219038 234 88 12
0.10508754 -1.4030558 1.7016128 234 88 12
0.095782667 -1.4334968 1.9425012 234 88 12
0.015252098 -1.4462724 2.0097299 234 88 12
0.013820147 -1.4446006 1.9954638 234 88 12
0.033897091 -1.4372097 1.9418423 234 88 12
0.060889311 -1.4731359 2.2470555 234 88 12
0.060137074 -1.4067332 1.7005022 234 88 12
0.062295355 -1.4104625 1.7319549 234 88 12
0.070047885 -1.4101254 1.7319549 234 88 12
0.23497836 -1.3458525 1.2621865 234 88 12
1.1726905 0.13575104 2.1582191 234 88 12
1.1746286 0.13495021 2.1572649 234 88 12
0.95789266 0.08846496 1.4496824 234 88 12
1.2493186 0.15252532 2.4017127 234 88 12
0.95650434 0.099807195 1.4496824 234 88 12
1.1740028 0.14006387 2.1572649 234 88 12
1.1792055 0.13692056 2.1693509 234 88 12
1.2065374 0.14358298 2.2600682 234 88 12
1.1747841 0.14119756 2.1567879 234 88 12
0.96931314 0.082244426 1.4458989 234 88 12
1.2479504 0.15215124 2.396311 234 88 12
0.96654087 0.10489381 1.4458989 234 88 12
1.2458063 0.1515591 2.3881373 234 88 12
1.1082231 0.13066702 1.9116951 234 88 12
1.1838789 0.13452725 2.1670792 234 88 12
1.209517 0.14205708 2.2586198 234 88 12
1.2311145 0.14822218 2.3356583 234 88 12
1.1826315 0.12970142 2.1534479 234 88 12
1.1846516 0.14252937 2.1661706 234 88 12
1.1839135 0.12674418 2.1529708 234 88 12
1.1870643 0.12997493 2.1657162 234 88 12
1.1869451 0.13094878 2.1657162 234 88 12
1.2320548 0.14767987 2.3352051 234 88 12
1.2288897 0.14761697 2.3238018 234 88 12
1.2288448 0.14798455 2.3238018 234 88 12
1.1149391 0.13348052 1.9080337 234 88 12
1.2251596 0.14252082 2.3032241 234 88 12
1.117752 0.11307805 1.8865994 234 88 12
1.2143781 0.14349042 2.2632062 234 88 12
0.99440193 0.12363275 1.4285164 234 88 12
1.1195542 0.11329864 1.8856508 234 88 12
1.1218952 0.13433193 1.9043722 234 88 12
1.1236342 0.13454479 1.9034568 234 88 12
1.0011039 0.12445306 1.4249887 234 88 12
1.1239053 0.10763973 1.8837535 234 88 12
1.2267885 0.14226942 2.3023951 234 88 12
1.2313503 0.14642575 2.3226013 234 88 12
1.2310354 0.14899889 2.3226013 234 88 12
1.0086497 0.12154225 1.4230045 234 88 12
1.194327 0.12789856 2.1620815 234 88 12
1.1280074 0.10401419 1.8818563 234 88 12
1.1785476 0.1326203 2.1005611 234 88 12
1.0119954 0.12195177 1.4212434 234 88 12
1.0145077 0.12609367 1.4179333 234 88 12
1.1316118 0.10445537 1.879959 234 88 12
1.2182997 0.14215328 2.2612574 234 88 12
1.1323293 0.13560906 1.89888 234 88 12
1.018687 0.12277081 1.4177212 234 88 12
1.0169331 0.13406532 1.4161695 234 88 12
1.133414 0.10467596 1.8790104 234 88 12
1.2353709 0.14677089 2.3335431 234 88 12
1.0207467 0.13069472 1.4144057 234 88 12
1.0536857 0.064496197 1.5050918 234 88 12
1.1831201 0.13073093 2.0983098 234 88 12
1.056729 0.064868696 1.5034899 234 88 12
1.1375464 0.13624763 1.8961339 234 88 12
1.0287243 0.12399936 1.4124379 234 88 12
1.0274487 0.13151503 1.4108781 234 88 12
1.1390696 0.10330436 1.8761646 234 88 12
1.1854064 0.12978622 2.0971842 234 88 12
1.0307996 0.13192518 1.4091142 234 88 12
1.0298741 0.13948667 1.4091142 234 88 12
1.1408718 0.10352495 1.8752159 234 88 12
1.1406229 0.10555831 1.8752159 234 88 12
1.2361227 0.15015002 2.3329389 234 88 12
1.1410245 0.13667335 1.8943032 234 88 12
1.1034795 0.13374363 1.7224562 234 88 12
1.0349538 0.1285933 1.4089156 234 88 12
1.2012322 0.12874374 2.158447 234 88 12
1.1875451 0.13004799 2.0960584 234 88 12
1.1873974 0.13125445 2.0960584 234 88 12
1.0563778 0.095212668 1.4714559 234 88 12
1.055945 0.098747835 1.4714559 234 88 12
1.2051659 0.14530034 2.185935 234 88 12
1.1057874 0.13402611 1.7212414 234 88 12
1.0378375 0.13277772 1.4071546 234 88 12
1.0365759 0.14030698 1.4055866 234 88 12
1.0599438 0.09206102 1.4698067 234 88 12
1.0590783 0.099131346 1.4698067 234 88 12
1.2184886 0.14683622 2.2452497 234 88 12
1.2299094 0.14941306 2.3003232 234 88 12
1.1684514 0.1422397 2.0078073 234 88 12
1.1074579 0.13951637 1.7200266 234 88 12
1.0391883 0.14828321 1.4047023 234 88 12
1.0630771 0.092444532 1.4681575 234 88 12
1.0626444 0.095979691 1.4681575 234 88 12
1.2009321 0.14551054 2.1575382 234 88 12
1.0506785 0.14523003 1.4398006 234 88 12
1.0552099 0.14898536 1.4636368 234 88 12
1.0442665 0.15248202 1.4134178 234 88 12
1.0411702 0.16002479 1.4030401 234 88 12
1.2205925 0.13918789 2.2446442 234 88 12
1.2017952 0.14561619 2.157084 234 88 12
1.0772356 0.13020153 1.5423485 234 88 12
1.0464886 0.14533097 1.4018713 234 88 12
1.0465257 0.14911659 1.4043041 234 88 12
1.0448664 0.15665911 1.4007252 234 88 12
1.0434787 0.16799656 1.4007252 234 88 12
1.1498828 0.10462789 1.8704728 234 88 12
1.2357657 0.14547381 2.3203719 234 88 12
1.1919699 0.12936507 2.093807 234 88 12
1.1918223 0.13057153 2.093807 234 88 12
1.0797213 0.1338084 1.5408305 234 88 12
1.0789248 0.14031614 1.5408305 234 88 12
1.1717767 0.14886983 2.005662 234 88 12
1.0497966 0.14573903 1.3999218 234 88 12
1.0483806 0.15706632 1.3997755 234 88 12
1.151685 0.10484848 1.8695241 234 88 12
1.0729096 0.090059906 1.4632097 234 88 12
1.0720441 0.097130232 1.4632097 234 88 12
1.0707461 0.10773572 1.4632097 234 88 12
1.2355516 0.14992476 2.3202004 234 88 12
1.082207 0.13741527 1.5393125 234 88 12
1.0818087 0.14066914 1.5393125 234 88 12
1.0529943 0.14614314 1.3974071 234 88 12
1.0529287 0.14992872 1.3994129 234 88 12
1.0521896 0.15369985 1.3980138 234 88 12
1.2064111 0.12937763 2.1557209 234 88 12
1.0764756 0.086908251 1.4615605 234 88 12
1.1929271 0.13927849 2.0926814 234 88 12
1.2403826 0.15111259 2.3438926 234 88 12
1.2095864 0.14761026 2.1834958 234 88 12
1.2094798 0.14848164 2.1834958 234 88 12
1.0721987 0.15406606 1.4818165 234 88 12
1.055009 0.15788703 1.3959178 234 88 12
1.0542367 0.16543278 1.3966945 234 88 12
1.0796089 0.087291762 1.4599112 234 88 12
1.0783107 0.097897254 1.4599112 234 88 12
1.0774454 0.10496758 1.4599112 234 88 12
1.0875767 0.14137514 1.5362765 234 88 12
1.1570916 0.10551025 1.8666784 234 88 12
1.081444 0.098280765 1.458262 234 88 12
1.0805787 0.10535109 1.458262 234 88 12
1.2533096 0.15348041 2.4114797 234 88 12
1.0622302 0.1549288 1.3927288 234 88 12
1.0617681 0.15870494 1.3927288 234 88 12
1.0610697 0.16249192 1.3914759 234 88 12
1.0863081 0.084523626 1.4566127 234 88 12
1.0827417 0.15517987 1.4842671 234 88 12
1.0649105 0.15912054 1.3898591 234 88 12
1.2271278 0.14020528 2.2568028 234 88 12
1.0894414 0.084907137 1.4549634 234 88 12
1.0890087 0.088442296 1.4549634 234 88 12
1.0877106 0.099047787 1.4549634 234 88 12
1.068924 0.1557481 1.3892055 234 88 12
1.0673089 0.16709296 1.3879483 234 88 12
1.0899785 0.10650162 1.4533142 234 88 12
1.2261757 0.14792292 2.2534411 234 88 12
1.1807238 0.15463229 2.0006561 234 88 12
1.0716115 0.15994073 1.3863319 234 88 12
1.0706598 0.16750312 1.3861845 234 88 12
1.1645494 0.10435925 1.8628838 234 88 12
1.2008197 0.12799922 2.0893042 234 88 12
1.095708 0.085674159 1.4516649 234 88 12
1.2475746 0.15066333 2.3756492 234 88 12
1.0944098 0.096279643 1.4516649 234 88 12
1.0931118 0.10688514 1.4516649 234 88 12
1.2267146 0.14798889 2.2531574 234 88 12
1.0964381 0.13592353 1.4914436 234 88 12
1.2149055 0.15000097 2.1863086 234 88 12
1.1663516 0.10457984 1.8619351 234 88 12
1.0992739 0.082522511 1.4500157 234 88 12
1.0971105 0.10019832 1.4500157 234 88 12
1.0962451 0.10726865 1.4500157 234 88 12
1.2273279 0.1474468 2.2528737 234 88 12
1.2272536 0.14805485 2.2528737 234 88 12
1.2444721 0.15197667 2.3573549 234 88 12
1.1864825 0.14748858 2.01178 234 88 12
1.094915 0.15666987 1.4778595 234 88 12
1.0778245 0.16454269 1.3826568 234 88 12
1.0773617 0.16832343 1.3826568 234 88 12
1.1681538 0.10480043 1.8609866 234 88 12
1.2014816 0.14032553 2.0881786 234 88 12
1.1420194 0.13850527 1.7282695 234 88 12
1.1847475 0.14580339 1.9913124 234 88 12
1.1843657 0.14892143 1.9913124 234 88 12
1.1040822 0.15360802 1.5106505 234 88 12
1.1036773 0.1569165 1.5106505 234 88 12
1.081906 0.16116036 1.3824991 234 88 12
1.0807127 0.16873358 1.380893 234 88 12
1.2041752 0.1271854 2.0876157 234 88 12
1.1055405 0.083289534 1.4467171 234 88 12
1.1016462 0.11510599 1.4467171 234 88 12
1.2263045 0.14976935 2.2410102 234 88 12
1.163758 0.14349195 1.8508618 234 88 12
1.1924047 0.14810023 2.0308599 234 88 12
1.1066096 0.15727542 1.509107 234 88 12
1.1065103 0.10134885 1.4450679 234 88 12
1.1060776 0.10488402 1.4450679 234 88 12
1.1598666 0.1430829 1.8133565 234 88 12
1.1199378 0.14182228 1.5608587 234 88 12
1.1442132 0.14651458 1.7173961 234 88 12
1.1036247 0.16122101 1.4730538 234 88 12
1.0881355 0.1657543 1.3789769 234 88 12
1.0864891 0.17711538 1.3773654 234 88 12
1.1122398 0.08052139 1.4434186 234 88 12
1.1096436 0.10173237 1.4434186 234 88 12
1.1092108 0.10526753 1.4434186 234 88 12
1.1079128 0.11587302 1.4434186 234 88 12
1.090095 0.17748852 1.3772159 234 88 12
1.2327553 0.13782655 2.2614405 234 88 12
1.0920547 0.18922272 1.3754548 234 88 12
1.2317523 0.13811375 2.2511716 234 88 12
1.2042328 0.12109488 2.0514295 234 88 12
1.1812809 0.10843073 1.8861037 234 88 12
1.1159102 0.10249939 1.4401201 234 88 12
1.1154774 0.10603455 1.4401201 234 88 12
1.1146121 0.11310488 1.4401201 234 88 12
1.2066804 0.1421864 2.0853643 234 88 12
1.1812695 0.15277901 1.9226533 234 88 12
1.2068746 0.10927869 2.0508096 234 88 12
1.1848731 0.093234874 1.8852054 234 88 12
1.1844018 0.097086065 1.8852054 234 88 12
1.1834589 0.10478844 1.8852054 234 88 12
1.2096695 0.12663336 2.0848014 234 88 12
1.2300895 0.14766648 2.2436974 234 88 12
1.2026454 0.14383082 2.0508096 234 88 12
1.1789808 0.14137471 1.8852054 234 88 12
1.2431641 0.15658715 2.3415897 234 88 12
1.1252056 0.078520276 1.4368216 234 88 12
1.2305738 0.14836922 2.2434015 234 88 12
1.2251565 0.15112042 2.2074294 234 88 12
1.1790434 0.14924578 1.8793066 234 88 12
1.2317559 0.15860307 2.2606399 234 88 12
1.2357128 0.15820317 2.2883096 234 88 12
1.1004672 0.20185061 1.3685461 234 88 12
1.2353431 0.1334991 2.2603731 234 88 12
1.2093929 0.10823811 2.0495696 234 88 12
1.2490777 0.15019485 2.3748994 234 88 12
1.1248773 0.10718509 1.4351723 234 88 12
1.1240119 0.11425541 1.4351723 234 88 12
1.2182597 0.15346919 2.1541145 234 88 12
1.1800524 0.15528737 1.8783998 234 88 12
1.1798145 0.15723096 1.8783998 234 88 12
1.1739377 0.16165674 1.8396745 234 88 12
1.1258471 0.12524441 1.4335231 234 88 12
1.236539 0.15550867 2.2852371 234 88 12
1.1755286 0.1639653 1.8387029 234 88 12
1.1752737 0.16604795 1.8387029 234 88 12
1.1742541 0.1743785 1.8387029 234 88 12
1.2363766 0.15972297 2.2878687 234 88 12
1.1921712 0.090219282 1.8816121 234 88 12
1.2384996 0.14303249 2.2850122 234 88 12
1.2270927 0.15213221 2.2063611 234 88 12
1.1832597 0.15765265 1.8765863 234 88 12
1.1815945 0.1712577 1.8765863 234 88 12
1.1811187 0.17514487 1.8765863 234 88 12
1.1745704 0.18710026 1.8377312 234 88 12
1.1743156 0.18918289 1.8377312 234 88 12
1.1738057 0.19334817 1.8377312 234 88 12
1.1995586 0.10022003 1.9346949 234 88 12
1.1340762 0.049542423 1.3721792 234 88 12
1.1924638 0.10198174 1.8807137 234 88 12
1.1919924 0.10583293 1.8807137 234 88 12
1.1381714 0.076519161 1.4302245 234 88 12
1.1321137 0.12601143 1.4302245 234 88 12
1.1312482 0.13308176 1.4302245 234 88 12
1.1791346 0.14758755 1.819922 234 88 12
1.1788723 0.14973034 1.819922 234 88 12
1.1852202 0.15591992 1.8756796 234 88 12
1.1840308 0.16563782 1.8756796 234 88 12
1.1818898 0.18313004 1.8756796 234 88 12
1.1748868 0.19982202 1.8367597 234 88 12
1.174632 0.20190467 1.8367597 234 88 12
1.174377 0.2039873 1.8367597 234 88 12
1.2010944 0.10040801 1.9338865 234 88 12
1.200458 0.10560618 1.9338865 234 88 12
1.1364772 0.057433546 1.3704331 234 88 12
1.135103 0.068661205 1.3704331 234 88 12
1.2119389 0.14121079 2.0616021 234 88 12
1.184564 0.17556657 1.8747729 234 88 12
1.1836123 0.18334089 1.8747729 234 88 12
1.1824229 0.19305879 1.8747729 234 88 12
1.2366407 0.16530275 2.2845628 234 88 12
1.1754582 0.21046115 1.835788 234 88 12
1.2019938 0.10579415 1.9330782 234 88 12
1.2009335 0.11445776 1.9330782 234 88 12
1.2133836 0.13879503 2.0610063 234 88 12
1.182933 0.14805247 1.8179226 234 88 12
1.1818838 0.15662366 1.8179226 234 88 12
1.1805725 0.16733766 1.8179226 234 88 12
1.1795233 0.17590885 1.8179226 234 88 12
1.1841456 0.19326964 1.8738661 234 88 12
1.183194 0.20104395 1.8738661 234 88 12
1.1770492 0.21276972 1.8348165 234 88 12
1.1985266 0.094906062 1.8780186 234 88 12
1.1848322 0.14828493 1.8169229 234 88 12
1.1837831 0.15685612 1.8169229 234 88 12
1.1803734 0.1847125 1.8169229 234 88 12
1.1781303 0.21924357 1.8338448 234 88 12
1.2145532 0.14801227 2.0598147 234 88 12
1.1354344 0.14847289 1.365195 234 88 12
1.1846331 0.16565979 1.8159232 234 88 12
1.1835841 0.17423098 1.8159232 234 88 12
1.1812235 0.19351615 1.8159232 234 88 12
1.1856877 0.20923997 1.8720527 234 88 12
1.2068132 0.10462535 1.930653 234 88 12
1.2057527 0.11328896 1.930653 234 88 12
1.2353204 0.15152404 2.2407398 234 88 12
1.1392096 0.14513636 1.363449 234 88 12
1.1844342 0.18303463 1.8149236 234 88 12
1.183385 0.19160582 1.8149236 234 88 12
1.182336 0.20017701 1.8149236 234 88 12
1.218693 0.13296343 2.0586231 234 88 12
1.2134434 0.13762565 2.0149269 234 88 12
1.2130929 0.14048913 2.0149269 234 88 12
1.1420686 0.14928491 1.361703 234 88 12
1.1842351 0.20040947 1.813924 234 88 12
1.1831861 0.20898066 1.813924 234 88 12
1.1829238 0.21112347 1.813924 234 88 12
1.1893709 0.20771809 1.8702391 234 88 12
1.1891329 0.20966168 1.8702391 234 88 12
1.2096726 0.10673402 1.9290363 234 88 12
1.2184181 0.14459644 2.0580273 234 88 12
1.2179492 0.14842792 2.0580273 234 88 12
1.1504722 0.14264327 1.4006776 234 88 12
1.1777927 0.14818852 1.6706089 234 88 12
1.1861702 0.15349221 1.7576333 234 88 12
1.1403468 0.19085903 1.359957 234 88 12
1.1398888 0.19460158 1.359957 234 88 12
1.1394306 0.19834414 1.359957 234 88 12
1.1389725 0.20208669 1.359957 234 88 12
1.2398045 0.1375169 2.2503994 234 88 12
1.2074025 0.14692526 1.9390907 234 88 12
1.235786 0.15160304 2.2275426 234 88 12
1.1984826 0.14973171 1.8536564 234 88 12
1.1798135 0.15112093 1.6693747 234 88 12
1.2038554 0.15725745 1.9163543 234 88 12
1.1970981 0.17315535 1.8684257 234 88 12
1.1927129 0.17663784 1.8289868 234 88 12
1.1417792 0.19914041 1.3490382 234 88 12
1.1413171 0.20291531 1.3490382 234 88 12
1.1916932 0.1849684 1.8289868 234 88 12
1.1951951 0.18870398 1.8684257 234 88 12
1.1947193 0.19259115 1.8684257 234 88 12
1.1937677 0.20036547 1.8684257 234 88 12
1.1925782 0.21008337 1.8684257 234 88 12
1.2225579 0.12954761 2.0568357 234 88 12
1.2181265 0.13093293 2.012923 234 88 12
1.1559705 0.15062156 1.3973197 234 88 12
1.1884549 0.15401131 1.7363025 234 88 12
1.1878661 0.15882227 1.7363025 234 88 12
1.1995748 0.17125759 1.8726286 234 88 12
1.2368709 0.13395943 2.2024436 234 88 12
1.2397594 0.13855475 2.2392609 234 88 12
1.2195708 0.12965651 2.012255 234 88 12
1.2183441 0.13967867 2.012255 234 88 12
1.2104061 0.1472929 1.9375098 234 88 12
1.2101986 0.14898731 1.9375098 234 88 12
1.2369038 0.15242738 2.2269106 234 88 12
1.1587197 0.15461072 1.3956409 234 88 12
1.1582792 0.15820946 1.3956409 234 88 12
1.1573982 0.16540694 1.3956409 234 88 12
1.2332425 0.1291724 2.1478865 234 88 12
1.1924245 0.1569387 1.734058 234 88 12
1.2285861 0.12282608 2.075233 234 88 12
1.1843344 0.15217111 1.6085428 234 88 12
1.2395924 0.15450242 2.2460654 234 88 12
1.2436454 0.15470055 2.2928641 234 88 12
1.2277111 0.12499317 2.0544522 234 88 12
1.2440934 0.15430461 2.2926569 234 88 12
1.2530309 0.15121177 2.3937359 234 88 12
1.2202107 0.10978256 1.9233778 234 88 12
1.2067257 0.14445454 1.8086637 234 88 12
1.2451402 0.15218738 2.2972667 234 88 12
1.2266166 0.12470616 2.0089152 234 88 12
1.2264414 0.1261379 2.0089152 234 88 12
1.2257404 0.13186485 2.0089152 234 88 12
1.2246889 0.14045529 2.0089152 234 88 12
1.2274739 0.14570487 2.0532606 234 88 12
1.2266923 0.15209067 2.0532606 234 88 12
1.2231117 0.15334094 2.0089152 234 88 12
1.1897506 0.059787165 1.3855673 234 88 12
1.2314197 0.1228545 2.0526648 234 88 12
1.2271847 0.13058844 2.0082474 234 88 12
1.2287621 0.14456625 2.0526648 234 88 12
1.204309 0.14119995 1.7168068 234 88 12
1.1748885 0.14956169 1.3332444 234 88 12
1.173963 0.15712334 1.3332444 234 88 12
1.2338796 0.15547393 2.1398194 234 88 12
1.2485511 0.14368086 2.3138552 234 88 12
1.232708 0.1217159 2.0520689 234 88 12
1.2274021 0.13933419 2.0075793 234 88 12
1.2294252 0.14853628 2.0520689 234 88 12
1.1787022 0.14619102 1.3314805 234 88 12
1.2445649 0.13656911 2.2368948 234 88 12
1.2276196 0.14807995 2.0069115 234 88 12
1.182516 0.14282034 1.3297167 234 88 12
1.1815904 0.15038201 1.3297167 234 88 12
1.1806864 0.15794241 1.3300318 234 88 12
1.2529798 0.15021311 2.3845026 234 88 12
1.2322183 0.12103222 2.0062435 234 88 12
1.1863298 0.13944969 1.3279529 234 88 12
1.1849415 0.15079217 1.3279529 234 88 12
1.1840365 0.15835246 1.3282684 234 88 12
1.2364166 0.11957723 2.0502813 234 88 12
1.2361039 0.12213156 2.0502813 234 88 12
1.1901436 0.13607901 1.3261889 234 88 12
1.2468998 0.13656822 2.2467799 234 88 12
1.1939574 0.13270834 1.3244251 234 88 12
1.1930319 0.14027001 1.3244251 234 88 12
1.1912426 0.15912847 1.3333865 234 88 12
1.1911817 0.16282064 1.3401377 234 88 12
1.2528352 0.14902367 2.3730252 234 88 12
1.2363757 0.11863472 2.0042396 234 88 12
1.23585 0.12292993 2.0042396 234 88 12
1.1977712 0.12933768 1.3226612 234 88 12
1.1955572 0.14825083 1.3245068 234 88 12
1.1941717 0.1595742 1.3245138 234 88 12
1.1967283 0.16635817 1.3864131 234 88 12
1.2476071 0.13501111 2.2354162 234 88 12
1.2360674 0.13167569 2.0035717 234 88 12
1.2035944 0.11097542 1.3242836 234 88 12
1.2015851 0.12596701 1.3208973 234 88 12
1.2006595 0.13352866 1.3208973 234 88 12
1.2001967 0.13730951 1.3208973 234 88 12
1.199734 0.14109033 1.3208973 234 88 12
1.2064738 0.1151535 1.3225251 234 88 12
1.236285 0.14042145 2.0029037 234 88 12
1.2448303 0.14813705 2.1991296 234 88 12
1.203172 0.14152083 1.320985 234 88 12
1.2021594 0.14906216 1.3191334 234 88 12
1.2019534 0.1528466 1.3244525 234 88 12
1.2014929 0.15660915 1.3244525 234 88 12
1.200452 0.16415755 1.3220341 234 88 12
1.2098145 0.1155624 1.3207667 234 88 12
1.2455945 0.14746164 2.198776 234 88 12
1.2103248 0.13856532 1.3174632 234 88 12
1.2098628 0.14233978 1.3174632 234 88 12
1.2081625 0.15742552 1.3209418 234 88 12
1.2449657 0.11543845 2.0461106 234 88 12
1.2327495 0.13455799 1.7922442 234 88 12
1.2445153 0.11527143 2.000232 234 88 12
1.2439896 0.11956665 2.000232 234 88 12
1.2436391 0.12243012 2.000232 234 88 12
1.2425876 0.13102056 2.000232 234 88 12
1.2197285 0.11667533 1.312078 234 88 12
1.2188029 0.12423699 1.312078 234 88 12
1.2169518 0.13936031 1.312078 234 88 12
1.2449081 0.12258545 1.9995641 234 88 12
1.2207656 0.13598965 1.3103141 234 88 12
1.2486743 0.11329979 2.044323 234 88 12
1.2451255 0.13133121 1.998896 234 88 12
1.2273561 0.10993399 1.3085502 234 88 12
1.2268933 0.11371482 1.3085502 234 88 12
0.14637451 1.1455879 1.9597542 234 88 12
0.15003753 1.2488419 2.3928385 234 88 12
0.14829519 1.1469116 1.9589459 234 88 12
0.14385465 1.1353707 1.9076641 234 88 12
0.14848317 1.1484474 1.9581375 234 88 12
0.15213659 1.149559 1.9573292 234 88 12
0.14812362 1.1383128 1.9058675 234 88 12
0.090883613 1.1387607 1.8771132 234 88 12
0.086816892 1.1392584 1.8771132 234 88 12
0.082750171 1.1397562 1.8771132 234 88 12
0.14833252 1.1400194 1.9049691 234 88 12
0.14640693 1.1402552 1.9049691 234 88 12
0.097204283 1.1398162 1.8761646 234 88 12
0.095170923 1.1400651 1.8761646 234 88 12
0.12463703 1.1999828 2.1593556 234 88 12
0.1332678 1.2200882 2.2536955 234 88 12
0.07687068 1.142305 1.8761646 234 88 12
0.12669039 1.2006074 2.1589012 234 88 12
0.055312749 1.0640764 1.5002861 234 88 12
0.051879104 1.0644966 1.5002861 234 88 12
0.12084727 1.2013227 2.1589012 234 88 12
0.068957828 1.1451027 1.8752159 234 88 12
0.15100855 1.2218803 2.2662435 234 88 12
0.13912235 1.1446114 1.9031724 234 88 12
0.1057789 1.1424251 1.8742673 234 88 12
0.12749666 1.1985421 2.1453366 234 88 12
0.1216028 1.1885787 2.0960584 234 88 12
0.14884709 1.2460622 2.3765488 234 88 12
0.1162466 1.1999191 2.1453366 234 88 12
0.12967713 1.2216449 2.2531161 234 88 12
0.15808666 1.1550657 1.9540957 234 88 12
0.13905795 1.2210552 2.2528265 234 88 12
0.066358693 1.0689023 1.4970822 234 88 12
0.14097473 1.2309424 2.3003232 234 88 12
0.11431209 1.201076 2.1448593 234 88 12
0.11226663 1.2013264 2.1448593 234 88 12
0.12601911 1.2226511 2.2528265 234 88 12
0.055165485 1.1504494 1.8733187 234 88 12
0.1953578 1.177737 2.0759022 234 88 12
0.19024916 1.1783623 2.0759022 234 88 12
0.15480918 1.1570256 1.9532872 234 88 12
0.11842024 1.1445363 1.87237 234 88 12
0.14098801 1.2213775 2.2525368 234 88 12
0.15223803 1.2514154 2.402566 234 88 12
0.13187659 1.202601 2.1575382 234 88 12
0.12548393 1.1902744 2.0949328 234 88 12
0.070164837 1.0715252 1.4954804 234 88 12
0.15782775 1.2475578 2.386831 234 88 12
0.18144758 1.1805885 2.0753064 234 88 12
0.16192804 1.1577131 1.9524789 234 88 12
0.15130261 1.1483172 1.9004773 234 88 12
0.14371166 1.1891285 2.0943699 234 88 12
0.13397227 1.1504384 1.9004773 234 88 12
0.13084099 1.1448451 1.8714215 234 88 12
0.12880763 1.145094 1.8714215 234 88 12
0.14911447 1.2409348 2.3494475 234 88 12
0.13587765 1.2029873 2.157084 234 88 12
0.14616911 1.23535 2.3205433 234 88 12
0.15101071 1.2483922 2.386831 234 88 12
0.11475671 1.1926726 2.0943699 234 88 12
0.12029601 1.2048944 2.157084 234 88 12
0.11250518 1.205848 2.157084 234 88 12
0.13960324 1.2385789 2.3323345 234 88 12
0.10430667 1.2041408 2.1439052 234 88 12
0.12118664 1.2243598 2.2522471 234 88 12
0.15684029 1.249493 2.3952134 234 88 12
0.16558146 1.1588246 1.9516705 234 88 12
0.15728828 1.1493168 1.8995789 234 88 12
0.15356079 1.2347759 2.3203719 234 88 12
0.15294582 1.2223473 2.2584734 234 88 12
0.15108128 1.1893119 2.093807 234 88 12
0.1469781 1.2230778 2.2584734 234 88 12
0.13177797 1.1916746 2.093807 234 88 12
0.13057153 1.1918223 2.093807 234 88 12
0.12936507 1.1919699 2.093807 234 88 12
0.13899066 1.2389452 2.3321834 234 88 12
0.19372033 1.1730897 2.0322936 234 88 12
0.19085684 1.1734402 2.0322936 234 88 12
0.1568087 1.2458105 2.376174 234 88 12
0.17789319 1.1833215 2.0741148 234 88 12
0.18307815 1.1459349 1.888811 234 88 12
0.16136537 1.2218536 2.2581949 234 88 12
0.15801175 1.2345618 2.3202004 234 88 12
0.19244391 1.174534 2.0316255 234 88 12
0.19101217 1.1747092 2.0316255 234 88 12
0.18242173 1.1757606 2.0316255 234 88 12
0.1729231 1.1850787 2.073519 234 88 12
0.17544271 1.1486347 1.8878957 234 88 12
0.16582051 1.1896784 2.0926814 234 88 12
0.17151856 1.149115 1.8878957 234 88 12
0.16340761 1.1899738 2.0926814 234 88 12
0.11273645 1.1961759 2.0926814 234 88 12
0.13893694 1.2372272 2.3200288 234 88 12
0.17581739 1.2211584 2.257638 234 88 12
0.19732772 1.1832405 2.0729232 234 88 12
0.13105947 1.2266368 2.257638 234 88 12
0.13046269 1.2267097 2.257638 234 88 12
0.10805851 1.2098966 2.1552665 234 88 12
0.12021427 1.2267131 2.2510884 234 88 12
0.22492026 1.1461087 1.8860649 234 88 12
0.16585997 1.2210189 2.2472465 234 88 12
0.16522601 1.2210965 2.2472465 234 88 12
0.17271021 1.1795253 2.0302896 234 88 12
0.14278546 1.2230718 2.24313 234 88 12
0.13889088 1.2235485 2.24313 234 88 12
0.093461357 1.1621993 1.8860649 234 88 12
0.099747762 1.209299 2.1415195 234 88 12
0.1677286 1.2346952 2.3195145 234 88 12
0.19758102 1.189047 2.0909927 234 88 12
0.20150031 1.1772894 2.0296218 234 88 12
0.16427509 1.1818457 2.0296218 234 88 12
0.14108622 1.0793849 1.4566127 234 88 12
0.13755105 1.0798177 1.4566127 234 88 12
0.14985111 1.2266527 2.2638419 234 88 12
0.14756329 1.2269328 2.2638419 234 88 12
0.15096959 1.2437781 2.3577788 234 88 12
0.16443041 1.1831146 2.0289538 234 88 12
0.15648814 1.2233067 2.246655 234 88 12
0.15440823 1.1843414 2.0289538 234 88 12
0.14770484 1.1902162 2.0570095 234 88 12
0.1482687 1.244313 2.3576727 234 88 12
0.091924995 1.1659174 1.8842342 234 88 12
0.11205352 1.2006007 2.09043 234 88 12
0.13758217 1.2408657 2.3312769 234 88 12
0.16817595 1.2353019 2.3191714 234 88 12
0.1579258 1.2174565 2.2109907 234 88 12
0.16659938 1.0826225 1.4533142 234 88 12
0.12771259 1.0873823 1.4533142 234 88 12
0.11710711 1.0886804 1.4533142 234 88 12
0.11003678 1.0895458 1.4533142 234 88 12
0.10296646 1.0904112 1.4533142 234 88 12
0.092360973 1.0917093 1.4533142 234 88 12
0.085290648 1.0925747 1.4533142 234 88 12
0.14123435 1.2269944 2.2534411 234 88 12
0.12788297 1.2047725 2.1183221 234 88 12
0.096061997 1.1671761 1.8833188 234 88 12
0.086251631 1.1683769 1.8833188 234 88 12
0.10373921 1.2027038 2.0898671 234 88 12
0.19797367 1.1922549 2.0893042 234 88 12
0.19929765 1.1887441 2.0699439 234 88 12
0.18478541 1.1831993 2.0276179 234 88 12
0.18192193 1.1835498 2.0276179 234 88 12
0.17405322 1.0848905 1.4516649 234 88 12
0.15724526 1.2182264 2.2106345 234 88 12
0.15648191 1.2183199 2.2106345 234 88 12
0.16344774 1.0861886 1.4516649 234 88 12
0.1563774 1.0870539 1.4516649 234 88 12
0.15284224 1.0874866 1.4516649 234 88 12
0.14577192 1.0883521 1.4516649 234 88 12
0.14799318 1.192572 2.0557694 234 88 12
0.14666425 1.1927346 2.0557694 234 88 12
0.13163127 1.0900829 1.4516649 234 88 12
0.1280961 1.0905156 1.4516649 234 88 12
0.12102579 1.091381 1.4516649 234 88 12
0.11042029 1.092679 1.4516649 234 88 12
0.10334997 1.0935445 1.4516649 234 88 12
0.092744485 1.0948426 1.4516649 234 88 12
0.085674159 1.095708 1.4516649 234 88 12
0.082139 1.0961406 1.4516649 234 88 12
0.071127474 1.1036096 1.4870534 234 88 12
0.060909711 1.1048603 1.4870534 234 88 12
0.14106059 1.2353266 2.298044 234 88 12
0.04484063 1.0918179 1.4002798 234 88 12
0.076654121 1.1713167 1.8824035 234 88 12
0.068805829 1.1722773 1.8824035 234 88 12
0.14784278 1.2497655 2.3863199 234 88 12
0.16715863 1.2381196 2.3308237 234 88 12
0.1949629 1.1832415 2.0269499 234 88 12
0.17443673 1.0880238 1.4500157 234 88 12
0.15676092 1.0901872 1.4500157 234 88 12
0.10726865 1.0962451 1.4500157 234 88 12
0.10373348 1.0966778 1.4500157 234 88 12
0.093127996 1.0979759 1.4500157 234 88 12
0.14136627 1.2280722 2.2528737 234 88 12
0.071496964 1.1066283 1.4854643 234 88 12
0.057873283 1.1082959 1.4854643 234 88 12
0.041521676 1.0955732 1.3985429 234 88 12
0.034076028 1.0964845 1.3985429 234 88 12
0.065094538 1.1744967 1.8814881 234 88 12
0.20064834 1.1940981 2.0881786 234 88 12
0.19941345 1.1839848 2.0262821 234 88 12
0.190823 1.1850362 2.0262821 234 88 12
0.18223257 1.1860877 2.0262821 234 88 12
0.1675375 1.2042572 2.1250005 234 88 12
0.19603121 1.0885608 1.4483664 234 88 12
0.18896089 1.0894262 1.4483664 234 88 12
0.17128508 1.0915897 1.4483664 234 88 12
0.15740925 1.2109151 2.1576731 234 88 12
0.15140384 1.2051557 2.1185107 234 88 12
0.14846627 1.2165109 2.1848159 234 88 12
0.12886313 1.0967821 1.4483664 234 88 12
0.11825764 1.0980803 1.4483664 234 88 12
0.051430929 1.1121484 1.4838754 234 88 12
0.038202722 1.0993285 1.3968061 234 88 12
0.079041906 1.1745546 1.8805727 234 88 12
0.077079833 1.1747948 1.8805727 234 88 12
0.20198569 1.1950198 2.0876157 234 88 12
0.18017708 1.1447287 1.7612712 234 88 12
0.17300038 1.1456071 1.7612712 234 88 12
0.15673034 1.2203497 2.2095661 234 88 12
0.15655917 1.211877 2.1572285 234 88 12
0.15520364 1.2205365 2.2095661 234 88 12
0.15156081 1.2070242 2.1235552 234 88 12
0.14747198 1.2430913 2.3427188 234 88 12
0.094479203 1.1467053 1.7088151 234 88 12
0.065754429 1.1079394 1.4482732 234 88 12
0.096535116 1.1670313 1.8356158 234 88 12
0.055008233 1.1090021 1.4467171 234 88 12
0.12174717 1.2094903 2.1162651 234 88 12
0.051800422 1.1151671 1.4822865 234 88 12
0.087103046 1.175333 1.8796574 234 88 12
0.0067990972 1.1041956 1.380738 234 88 12
0.21093889 1.0930966 1.4450679 234 88 12
0.20740373 1.0935292 1.4450679 234 88 12
0.17558727 1.0974236 1.4450679 234 88 12
0.1720521 1.0978563 1.4450679 234 88 12
0.15666261 1.2127221 2.1567836 234 88 12
0.15278909 1.2098503 2.1357067 234 88 12
0.15095176 1.2135826 2.1578009 234 88 12
0.14952841 1.21812 2.1852858 234 88 12
0.11195435 1.1052122 1.4450679 234 88 12
0.14891787 1.2405589 2.3261659 234 88 12
0.072848432 1.1161021 1.4835148 234 88 12
0.09608224 1.1602929 1.7798032 234 88 12
0.1159807 1.1955801 2.0174329 234 88 12
0.062178068 1.1166183 1.4785395 234 88 12
0.058764316 1.1170361 1.4785395 234 88 12
0.089105584 1.1646554 1.8019055 234 88 12
0.091240048 1.1765918 1.878742 234 88 12
0.085353829 1.1773123 1.878742 234 88 12
0.020396339 1.108206 1.3933325 234 88 12
0.014758411 1.1066172 1.3789769 234 88 12
0.0072086165 1.1075413 1.3789769 234 88 12
0.075543463 1.1785129 1.878742 234 88 12
0.17539358 1.2061899 2.1234994 234 88 12
0.22192788 1.0949317 1.4434186 234 88 12
0.21485756 1.0957972 1.4434186 234 88 12
0.2113224 1.0962299 1.4434186 234 88 12
0.20778725 1.0966625 1.4434186 234 88 12
0.19718175 1.0979607 1.4434186 234 88 12
0.18069611 1.1489692 1.7590392 234 88 12
0.16299279 1.2146634 2.1683111 234 88 12
0.16080813 1.2168053 2.1803877 234 88 12
0.1711272 1.1501404 1.7590392 234 88 12
0.17243561 1.1009896 1.4434186 234 88 12
0.15697037 1.2109131 2.1394002 234 88 12
0.15315744 1.2271715 2.2411382 234 88 12
0.15213114 1.2175416 2.1782885 234 88 12
0.15121402 1.2169619 2.1738307 234 88 12
0.14472723 1.1989492 2.0526695 234 88 12
0.14675762 1.2218815 2.2020113 234 88 12
0.1458829 1.2216048 2.1995382 234 88 12
0.15085098 1.2451018 2.3548341 234 88 12
0.1426554 1.2191705 2.1813102 234 88 12
0.10526753 1.1092108 1.4434186 234 88 12
0.09466204 1.110509 1.4434186 234 88 12
0.12197495 1.196159 2.0167522 234 88 12
0.066380747 1.1139706 1.4434186 234 88 12
0.12431603 1.209527 2.1047215 234 88 12
0.11271115 1.1941284 1.9963655 234 88 12
0.13433351 1.2311211 2.251739 234 88 12
0.034564283 1.117865 1.4434186 234 88 12
0.022717725 1.1090389 1.3772159 234 88 12
0.11398426 1.2179321 2.1507232 234 88 12
0.17951339 1.2266114 2.2545755 234 88 12
0.23645204 1.0963342 1.4417694 234 88 12
0.23291689 1.0967669 1.4417694 234 88 12
0.22584656 1.0976323 1.4417694 234 88 12
0.1857401 1.1505039 1.7579231 234 88 12
0.16700833 1.1992459 2.0641017 234 88 12
0.17100886 1.175257 1.9092017 234 88 12
0.16503188 1.1965328 2.0446234 234 88 12
0.15105493 1.2135925 2.1457984 234 88 12
0.15117726 1.2266872 2.2322135 234 88 12
0.14970571 1.2259895 2.2264266 234 88 12
0.14904779 1.2263298 2.2281394 234 88 12
0.14734486 1.2281803 2.2389631 234 88 12
0.15058509 1.2442878 2.347753 234 88 12
0.14702196 1.2353063 2.285675 234 88 12
0.12990725 1.1894715 1.969738 234 88 12
0.13915958 1.2200273 2.1786175 234 88 12
0.11594307 1.1951118 1.9956505 234 88 12
0.084429167 1.1540222 1.6993752 234 88 12
0.076617502 1.1549783 1.6993752 234 88 12
0.030677039 1.1114606 1.3754548 234 88 12
0.019144461 1.1126268 1.3738376 234 88 12
0.015363717 1.1130896 1.3738376 234 88 12
0.011802552 1.1137708 1.3754548 234 88 12
0.20019005 1.1903297 2.0229423 234 88 12
0.26511687 1.0960059 1.4401201 234 88 12
0.26158169 1.0964386 1.4401201 234 88 12
0.25804654 1.0968713 1.4401201 234 88 12
0.2509762 1.0977367 1.4401201 234 88 12
0.17449115 1.1708971 1.8705984 234 88 12
0.17067988 1.1792332 1.9236977 234 88 12
0.17092621 1.1694207 1.8576919 234 88 12
0.16719842 1.1791241 1.9200861 234 88 12
0.16154908 1.1819872 1.9347388 234 88 12
0.15752941 1.2087485 2.1119893 234 88 12
0.15200117 1.2100919 2.1164887 234 88 12
0.15137851 1.2180638 2.169764 234 88 12
0.14956602 1.2378381 2.3016932 234 88 12
0.14508715 1.2253791 2.2139275 234 88 12
0.10120903 1.1220338 1.4803733 234 88 12
0.097819142 1.1224487 1.4803733 234 88 12
0.089919418 1.1556926 1.6981604 234 88 12
0.07689999 1.1572862 1.6981604 234 88 12
0.099988528 1.1891066 1.9319348 234 88 12
0.034861457 1.1143444 1.3736936 234 88 12
0.031086558 1.1148064 1.3736936 234 88 12
0.023335356 1.115515 1.3720738 234 88 12
0.01598697 1.1166545 1.3736936 234 88 12
0.20523842 1.1373121 1.6512827 234 88 12
0.19665201 1.151598 1.7427388 234 88 12
0.18983167 1.1629982 1.8157479 234 88 12
0.20091414 1.1193449 1.5234693 234 88 12
0.1921951 1.1365594 1.6350496 234 88 12
0.17392281 1.1822765 1.9355081 234 88 12
0.17287841 1.1722373 1.865252 234 88 12
0.17307545 1.1620306 1.7948891 234 88 12
0.16458915 1.187111 1.9610218 234 88 12
0.16173893 1.1835383 1.9339223 234 88 12
0.150759 1.2396904 2.3126574 234 88 12
0.1501482 1.2404538 2.3174157 234 88 12
0.14807554 1.2340895 2.2716844 234 88 12
0.13683784 1.2023679 2.0429771 234 88 12
0.14389166 1.2268221 2.2179265 234 88 12
0.11749555 1.1581734 1.7212256 234 88 12
0.10157678 1.1250383 1.4787917 234 88 12
0.12776046 1.2093822 2.0837696 234 88 12
0.092805788 1.1576818 1.6969455 234 88 12
0.08499413 1.1586379 1.6969455 234 88 12
0.056602929 1.1242338 1.4351937 234 88 12
0.10369986 1.1902357 1.9311136 234 88 12
0.20397744 1.201288 2.0842385 234 88 12
0.20193243 1.1926924 2.0216064 234 88 12
0.25478336 1.0939848 1.3685218 234 88 12
0.25100252 1.0944476 1.3685218 234 88 12
0.24113774 1.1053014 1.4368216 234 88 12
0.23406743 1.1061668 1.4368216 234 88 12
0.2140577 1.1272988 1.5691031 234 88 12
0.22431806 1.0981712 1.3717613 234 88 12
0.20040801 1.1394427 1.6432569 234 88 12
0.20610103 1.1176106 1.4936111 234 88 12
0.1946663 1.1326255 1.5900128 234 88 12
0.18413867 1.1571184 1.7543083 234 88 12
0.17878754 1.1676456 1.8242075 234 88 12
0.17764059 1.1641573 1.7985151 234 88 12
0.16854541 1.1773697 1.884182 234 88 12
0.1617174 1.1984751 2.0276988 234 88 12
0.15115689 1.2435243 2.3375123 234 88 12
0.12847152 1.1772907 1.848893 234 88 12
0.10998226 1.1398795 1.5679835 234 88 12
0.1328879 1.2101974 2.0857127 234 88 12
0.1413881 1.2300469 2.2336211 234 88 12
0.14665425 1.242218 2.3243608 234 88 12
0.095692158 1.1596709 1.6957308 234 88 12
0.077985719 1.1363161 1.5150239 234 88 12
0.068224095 1.1375108 1.5150239 234 88 12
0.050780084 1.1191877 1.3701714 234 88 12
0.024355803 1.122422 1.3701714 234 88 12
0.15999773 1.2478778 2.3748994 234 88 12
0.27333772 1.1045403 1.4351723 234 88 12
0.26980257 1.1049731 1.4351723 234 88 12
0.26626739 1.1054058 1.4351723 234 88 12
0.25919706 1.1062711 1.4351723 234 88 12
0.25212675 1.1071366 1.4351723 234 88 12
0.2551935 1.0973358 1.366758 234 88 12
0.25141269 1.0977986 1.366758 234 88 12
0.24007019 1.0991869 1.366758 234 88 12
0.23091577 1.1097327 1.4351723 234 88 12
0.21540315 1.1279296 1.553473 234 88 12
0.21596617 1.113299 1.4477766 234 88 12
0.21247627 1.1137263 1.4477766 234 88 12
0.21313524 1.1036177 1.3749886 234 88 12
0.20485735 1.1163074 1.459743 234 88 12
0.19035541 1.1486545 1.6816524 234 88 12
0.19892439 1.1141697 1.438956 234 88 12
0.17851257 1.1712453 1.8351073 234 88 12
0.17727931 1.1683414 1.8129333 234 88 12
0.17606618 1.1647379 1.7857 234 88 12
0.17425977 1.1629267 1.7709483 234 88 12
0.17092827 1.1682175 1.8063918 234 88 12
0.16523629 1.1883938 1.9477862 234 88 12
0.16218063 1.1861448 1.9287467 234 88 12
0.13355759 1.1813846 1.8687638 234 88 12
0.13074721 1.178859 1.8479353 234 88 12
0.11337797 1.1422197 1.5665544 234 88 12
0.13083379 1.203475 2.0266886 234 88 12
0.14581302 1.2383581 2.2931981 234 88 12
0.1242723 1.199608 1.9927901 234 88 12
0.08159259 1.1388017 1.5135059 234 88 12
0.071172953 1.1338564 1.4683529 234 88 12
0.068318695 1.1350635 1.474579 234 88 12
0.054964501 1.1220714 1.3684103 234 88 12
0.051165439 1.1225022 1.3681623 234 88 12
0.043469533 1.1232541 1.3667823 234 88 12
0.032127302 1.1246424 1.3667823 234 88 12
0.25182286 1.1011497 1.364994 234 88 12
0.24048035 1.102538 1.364994 234 88 12
0.23291869 1.1034635 1.364994 234 88 12
0.16872832 1.2245899 2.2083192 234 88 12
0.20856427 1.1395901 1.6117735 234 88 12
0.20566811 1.1399447 1.6117735 234 88 12
0.21729347 1.1064833 1.3732384 234 88 12
0.20605984 1.1078042 1.3728353 234 88 12
0.18348925 1.1264472 1.4910692 234 88 12
0.16711454 1.1896883 1.9469957 234 88 12
0.1663987 1.1327378 1.5223296 234 88 12
0.1631819 1.1331315 1.5223296 234 88 12
0.15352194 1.1146157 1.3756711 234 88 12
0.15349182 1.2530177 2.4060869 234 88 12
0.11832341 1.1272527 1.4376807 234 88 12
0.12935825 1.1753955 1.8061744 234 88 12
0.11615157 1.1426965 1.5506855 234 88 12
0.12668528 1.1806887 1.8431484 234 88 12
0.13976055 1.2220196 2.1627836 234 88 12
0.15304849 1.253768 2.4112694 234 88 12
0.074248508 1.123107 1.3666493 234 88 12
0.081945583 1.1416857 1.5119879 234 88 12
0.072488554 1.1327465 1.4368142 234 88 12
0.062923811 1.124493 1.3666493 234 88 12
0.059148919 1.1249551 1.3666493 234 88 12
0.051441174 1.1256795 1.3650185 234 88 12
0.040098943 1.1270678 1.3650185 234 88 12
0.13806713 1.2385634 2.2844143 234 88 12
0.24935861 1.1138358 1.4318738 234 88 12
0.24845217 1.1049634 1.3632302 234 88 12
0.24089052 1.105889 1.3632302 234 88 12
0.23332885 1.1068145 1.3632302 234 88 12
0.2257672 1.10774 1.3632302 234 88 12
0.21022071 1.1267275 1.4937769 234 88 12
0.21011056 1.1194608 1.4381473 234 88 12
0.20659785 1.1198907 1.4381473 234 88 12
0.20154783 1.1244985 1.4686327 234 88 12
0.1838948 1.1594621 1.7192869 234 88 12
0.18863526 1.1349871 1.5367018 234 88 12
0.1622151 1.1918123 1.9462053 234 88 12
0.16733797 1.1302395 1.4805052 234 88 12
0.15392795 1.1179328 1.3739251 234 88 12
0.14644285 1.1188489 1.3739251 234 88 12
0.1521879 1.237379 2.2850122 234 88 12
0.1476851 1.2115715 2.0836003 234 88 12
0.14809328 1.2264113 2.1973765 234 88 12
0.13102569 1.1532738 1.6225535 234 88 12
0.12052478 1.1231698 1.3827006 234 88 12
0.11499912 1.1302032 1.4312767 234 88 12
0.13245358 1.1975456 1.9621797 234 88 12
0.12658936 1.1871512 1.877269 234 88 12
0.13034551 1.2006644 1.9840391 234 88 12
0.070883125 1.1269147 1.3648881 234 88 12
0.0694452 1.1308209 1.3933907 234 88 12
0.063250087 1.1277217 1.3639153 234 88 12
0.059471708 1.1281842 1.3639153 234 88 12
0.27802342 1.1135075 1.4302245 234 88 12
0.26741794 1.1148056 1.4302245 234 88 12
0.2603476 1.115671 1.4302245 234 88 12
0.24267179 1.1178346 1.4302245 234 88 12
0.20697892 1.1230041 1.4365085 234 88 12
0.19496495 1.1458297 1.6040826 234 88 12
0.18291752 1.1654891 1.7467784 234 88 12
0.18244353 1.1503892 1.6278342 234 88 12
0.16917659 1.1924845 1.9454148 234 88 12
0.16818079 1.1290978 1.4470618 234 88 12
0.16470578 1.1295232 1.4470618 234 88 12
0.14533073 1.1944822 1.9381874 234 88 12
0.14331476 1.1929108 1.9239208 234 88 12
0.1481327 1.2268763 2.1950758 234 88 12
0.12463853 1.1260047 1.3809692 234 88 12
0.11538287 1.1333383 1.4296265 234 88 12
0.1382646 1.210385 2.05619 234 88 12
0.13207366 1.2018553 1.9833118 234 88 12
0.063726246 1.1311617 1.3629317 234 88 12
0.05995065 1.1316239 1.3629317 234 88 12
0.085912257 1.1695545 1.6855098 234 88 12
0.053392559 1.1337482 1.3733026 234 88 12
0.048571751 1.1329498 1.3624071 234 88 12
0.22538239 1.1753451 1.8496031 234 88 12
0.16509822 1.2406387 2.3165991 234 88 12
0.19015437 1.2084064 2.0814242 234 88 12
0.1941186 1.2000887 2.0182667 234 88 12
0.23414919 1.1135166 1.3597025 234 88 12
0.22280669 1.1149049 1.3597025 234 88 12
0.21524502 1.1158304 1.3597025 234 88 12
0.19511257 1.1554344 1.6591778 234 88 12
0.19385965 1.1520406 1.6305754 234 88 12
0.19104503 1.1523851 1.6305754 234 88 12
0.18932089 1.1405886 1.5337533 234 88 12
0.1621858 1.1843913 1.8601736 234 88 12
0.16571786 1.1258491 1.3916065 234 88 12
0.16205083 1.126298 1.3916065 234 88 12
0.15473998 1.124567 1.3704331 234 88 12
0.14763646 1.2114476 2.063983 234 88 12
0.14814913 1.2222643 2.1517081 234 88 12
0.13018386 1.1361014 1.4392043 234 88 12
0.12736401 1.1800562 1.7908505 234 88 12
0.11476825 1.1532396 1.5621841 234 88 12
0.11170967 1.153614 1.5621841 234 88 12
0.071616016 1.1392684 1.4069371 234 88 12
0.067789696 1.1394227 1.4044052 234 88 12
0.059677988 1.1392397 1.3949236 234 88 12
0.056022789 1.1396871 1.3949236 234 88 12
0.05633558 1.1446306 1.4350936 234 88 12
0.23990366 1.1245338 1.426926 234 88 12
0.24212101 1.1159421 1.3579386 234 88 12
0.20809352 1.1201071 1.3579386 234 88 12
0.15932259 1.2396539 2.299659 234 88 12
0.15929049 1.2311889 2.2294388 234 88 12
0.15717864 1.1685398 1.7078439 234 88 12
0.12997167 1.1362305 1.4123417 234 88 12
0.12356876 1.1400572 1.4375728 234 88 12
0.11796162 1.1332877 1.3757538 234 88 12
0.1451541 1.2288666 2.1958368 234 88 12
0.12408108 1.1721663 1.7043238 234 88 12
0.11252201 1.1493278 1.5032284 234 88 12
0.10203001 1.1490871 1.490585 234 88 12
0.077981517 1.145444 1.4359723 234 88 12
0.075438984 1.1471955 1.4479142 234 88 12
0.049689688 1.1399757 1.3619196 234 88 12
0.047483929 1.1420951 1.3772541 234 88 12
0.23875034 1.1197559 1.3561747 234 88 12
0.22146104 1.1257269 1.3890641 234 88 12
0.21921256 1.1233393 1.3663449 234 88 12
0.21606535 1.1225325 1.3561747 234 88 12
0.20850369 1.123458 1.3561747 234 88 12
0.1971612 1.1248463 1.3561747 234 88 12
0.16291307 1.1664711 1.6755455 234 88 12
0.15787588 1.1616017 1.6287402 234 88 12
0.155552 1.1312011 1.3669411 234 88 12
0.15319879 1.2277684 2.1883798 234 88 12
0.1452564 1.2056729 1.991569 234 88 12
0.13879615 1.1913968 1.8630224 234 88 12
0.13659345 1.197773 1.915122 234 88 12
0.087518632 1.1382694 1.3561994 234 88 12
0.079957142 1.139195 1.3561994 234 88 12
0.076176405 1.1396576 1.3561994 234 88 12
0.068718463 1.1407224 1.3574952 234 88 12
0.05735001 1.1420621 1.357053 234 88 12
0.05364266 1.1426035 1.3578006 234 88 12
0.049726017 1.142913 1.356351 234 88 12
0.2300652 1.1320984 1.4236275 234 88 12
0.23146759 1.1242524 1.3562031 234 88 12
0.22391866 1.1251764 1.3562031 234 88 12
0.21481797 1.1292822 1.3824887 234 88 12
0.1900097 1.1291229 1.3544109 234 88 12
0.16485626 1.2061135 2.0037787 234 88 12
0.16768171 1.18497 1.8210574 234 88 12
0.16584548 1.168492 1.6743113 234 88 12
0.15727973 1.1819047 1.7829397 234 88 12
0.15501986 1.1821812 1.7829397 234 88 12
0.14865981 1.1886432 1.8328732 234 88 12
0.14657716 1.1888981 1.8328732 234 88 12
0.14098974 1.1929085 1.8620993 234 88 12
0.13901083 1.1931508 1.8620993 234 88 12
0.13959989 1.2029208 1.9485694 234 88 12
0.10605632 1.1545469 1.487498 234 88 12
0.10274785 1.1549518 1.487498 234 88 12
0.091805212 1.1413333 1.3560826 234 88 12
0.084148042 1.142083 1.3544356 234 88 12
0.069037132 1.14395 1.3545874 234 88 12
0.21991648 1.1301813 1.364578 234 88 12
0.1880113 1.1725364 1.7127135 234 88 12
0.18663903 1.1329367 1.3526469 234 88 12
0.17274319 1.1639248 1.6178215 234 88 12
0.16366304 1.1873732 1.8200662 234 88 12
0.15752488 1.1839076 1.7818854 234 88 12
0.10641523 1.1574792 1.4859545 234 88 12
0.10310677 1.1578841 1.4859545 234 88 12
0.066119522 1.1483141 1.3583143 234 88 12
0.061958071 1.1483086 1.3536528 234 88 12
0.058236782 1.1488332 1.3542782 234 88 12
0.055340871 1.1502312 1.3637267 234 88 12
0.050574996 1.1496433 1.353122 234 88 12
0.2285558 1.1313332 1.3520584 234 88 12
0.22477913 1.1317954 1.3520584 234 88 12
0.2172325 1.1327071 1.3519458 234 88 12
0.17305142 1.166443 1.616496 234 88 12
0.16525583 1.1805867 1.7396691 234 88 12
0.15599482 1.2151787 2.0521302 234 88 12
0.14911167 1.192335 1.83093 234 88 12
0.14683951 1.1907921 1.813924 234 88 12
0.1449464 1.1928449 1.83093 234 88 12
0.10017405 1.1471008 1.3525604 234 88 12
0.088849351 1.148487 1.3525604 234 88 12
0.084968351 1.148785 1.3509078 234 88 12
0.077524662 1.149873 1.3525604 234 88 12
0.12330826 1.2151958 2.0149269 234 88 12
0.21715344 1.1369612 1.3583452 234 88 12
0.20488544 1.1406159 1.3791027 234 88 12
0.20250025 1.1379846 1.3509203 234 88 12
0.19502102 1.1387132 1.3491193 234 88 12
0.18745936 1.1396388 1.3491193 234 88 12
0.16707449 1.2034118 1.9398812 234 88 12
0.15782091 1.2364513 2.2474837 234 88 12
0.16368565 1.2038267 1.9398812 234 88 12
0.16551678 1.1827188 1.738547 234 88 12
0.15873612 1.2160128 2.0515237 234 88 12
0.15883952 1.2020653 1.9171822 234 88 12
0.14707197 1.1926913 1.8129243 234 88 12
0.15307964 1.2527616 2.3991323 234 88 12
0.15076564 1.2469127 2.3400152 234 88 12
0.10058356 1.1504465 1.3507993 234 88 12
0.22561286 1.1384671 1.3483218 234 88 12
0.21778698 1.1398771 1.3528258 234 88 12
0.21427688 1.1398611 1.3483872 234 88 12
0.2100884 1.141151 1.3561293 234 88 12
0.20662902 1.1409864 1.3502719 234 88 12
0.20298037 1.1411674 1.3476263 234 88 12
0.19921201 1.1416014 1.3473554 234 88 12
0.16657108 1.2124765 2.0135911 234 88 12
0.16144572 1.22614 2.1434541 234 88 12
0.16227587 1.2130022 2.0135911 234 88 12
0.1727462 1.1448408 1.3473554 234 88 12
0.14944723 1.1943282 1.8119246 234 88 12
0.10091163 1.1536359 1.3473802 234 88 12
0.16861528 1.1537681 1.3973197 234 88 12
0.097627707 1.1576002 1.347277 234 88 12
0.14355765 1.2385768 2.2395568 234 88 12
0.22170526 1.1471272 1.3595783 234 88 12
0.21872132 1.146348 1.3473701 234 88 12
0.20445554 1.1536224 1.4063494 234 88 12
0.17356652 1.1515429 1.3438276 234 88 12
0.13960223 1.2009931 1.8270435 234 88 12
0.16939609 1.1601473 1.3939619 234 88 12
0.15232399 1.2013094 1.826072 234 88 12
0.15014462 1.2000258 1.8089255 234 88 12
0.14585902 1.2005503 1.8089255 234 88 12
0.13982816 1.202839 1.826072 234 88 12
0.17060602 1.1587077 1.3402998 234 88 12
0.15037708 1.201925 1.8079258 234 88 12
0.14484505 1.2075571 1.8647988 234 88 12
0.10263116 1.1671754 1.3419938 234 88 12
0.16657817 1.1669672 1.390604 234 88 12
0.14505589 1.2092798 1.863892 234 88 12
0.13819739 1.2067857 1.8241287 234 88 12
0.14915343 1.2440454 2.2845628 234 88 12
0.13648762 1.2263042 2.0544522 234 88 12
0.15524103 1.2443783 2.2924497 234 88 12
0.16336983 1.1705972 1.3889251 234 88 12
0.16416667 1.1705483 1.3459889 234 88 12
0.13864926 1.2104774 1.8221855 234 88 12
0.15695317 1.1778574 1.3855673 234 88 12
0.15130693 1.2095219 1.8039271 234 88 12
0.14763202 1.2142098 1.8611717 234 88 12
0.10804413 1.1800964 1.3349494 234 88 12
0.15753351 1.1773139 1.3314805 234 88 12
0.1578996 1.1814158 1.3407508 234 88 12
0.14805372 1.2176551 1.8593583 234 88 12
0.14416656 1.2181308 1.8593583 234 88 12
0.14795709 1.2443786 2.2547696 234 88 12
0.15835373 1.1840177 1.327978 234 88 12
0.14826457 1.2193776 1.8584516 234 88 12
0.13747036 1.2181158 1.8182991 234 88 12
0.15223677 1.2171186 1.7999284 234 88 12
0.1376963 1.2199618 1.8173274 234 88 12
0.15530647 1.1942462 1.3771727 234 88 12
0.15246923 1.2190179 1.7989287 234 88 12
0.13917921 1.2257351 1.8557314 234 88 12
0.15618709 1.1984594 1.3320208 234 88 12
0.1452208 1.2267439 1.8548247 234 88 12
0.1565931 1.2017764 1.3302747 234 88 12
0.14931881 1.2279909 1.8539178 234 88 12
0.13651739 1.2276002 1.8134409 234 88 12
0.15339908 1.2266147 1.79493 234 88 12
0.14974052 1.2314361 1.8521044 234 88 12
0.14779693 1.231674 1.8521044 234 88 12
0.14931482 1.2498682 2.2787178 234 88 12
0.15409645 1.2323123 1.7919309 234 88 12
0.14627504 1.2353572 1.8502909 234 88 12
0.15037306 1.236604 1.8493842 234 88 12
0.13764706 1.2368296 1.8085829 234 88 12
0.15528661 1.2221371 1.3197987 234 88 12
0.15241858 1.2363729 1.7899317 234 88 12
-1.2353873 1.2402685 1.6367202 234 88 12
-1.2144903 1.2406323 1.5942346 234 88 12
-1.2185405 1.2365232 1.5942346 234 88 12
-1.2324389 1.244589 1.6358341 234 88 12
-1.2333422 1.2436726 1.6358341 234 88 12
-1.2213106 1.2352028 1.5932413 234 88 12
-1.2367163 1.2415785 1.634948 234 88 12
-1.2129425 1.2451825 1.592248 234 88 12
-1.3248795 1.3112372 1.936069 234 88 12
-1.0142953 1.1147507 0.95680815 234 88 12
-1.0169693 1.112038 0.95680815 234 88 12
-1.0196432 1.1093253 0.95680815 234 88 12
-1.2271183 1.2308006 1.592248 234 88 12
-1.2126747 1.246944 1.5912547 234 88 12
-1.2359498 1.2549325 1.652351 234 88 12
-1.2385095 1.2523355 1.652351 234 88 12
-1.2228004 1.2366712 1.5912547 234 88 12
-1.2248255 1.2346166 1.5912547 234 88 12
-1.2268506 1.2325621 1.5912547 234 88 12
-1.244368 1.2364737 1.633176 234 88 12
-1.289443 1.2874279 1.8168682 234 88 12
-1.2890509 1.2826866 1.8067315 234 88 12
-1.2897534 1.287734 1.8164542 234 88 12
-1.0420836 1.1396699 1.0109996 234 88 12
-1.2469928 1.2487508 1.649003 234 88 12
-1.2359055 1.2293352 1.5872815 234 88 12
-1.0439228 1.1414828 1.0085469 234 88 12
-1.3103114 1.2990755 1.878575 234 88 12
-1.0253907 1.1310356 0.93844682 234 88 12
-1.0273578 1.1329744 0.93582374 234 88 12
-1.3149058 1.3013326 1.8899127 234 88 12
-1.2963705 1.2841259 1.8143841 234 88 12
-1.2523934 1.2389642 1.6260874 234 88 12
-1.2532966 1.2380478 1.6260874 234 88 12
-1.031292 1.1368521 0.93057764 234 88 12
-1.05378 1.1461978 0.9987365 234 88 12
-1.3323101 1.314563 1.9544351 234 88 12
-1.2426677 1.2299244 1.582315 234 88 12
-1.2439331 1.2593881 1.643981 234 88 12
-1.2447863 1.2585224 1.643981 234 88 12
-1.0499579 1.157433 0.99383128 234 88 12
-1.052458 1.1548966 0.99383128 234 88 12
-1.0549582 1.1523601 0.99383128 234 88 12
-1.3137987 1.2978328 1.8770448 234 88 12
-1.2965029 1.2810638 1.802773 234 88 12
-1.24517 1.2303656 1.5803283 234 88 12
-1.049297 1.1617825 0.99137866 234 88 12
-1.0542973 1.1567094 0.99137866 234 88 12
-1.0617977 1.1490999 0.99137866 234 88 12
-1.0642979 1.1465634 0.99137866 234 88 12
-1.0536364 1.1610589 0.98892605 234 88 12
-1.2603211 1.2465283 1.64147 234 88 12
1.3178564 1.3506424 1.5829813 234 88 12
1.4030812 1.4041607 1.8351035 234 88 12
