ply
format ascii 1.0
element vertex 430
property float x
property float y
property float z
property uchar red
property uchar green
property uchar blue
end_header
-1.7479438 1.0851095 0.91263121 234 88 12
-1.7513793 1.0805433 0.91263121 234 88 12
-1.7461184 1.0885035 0.91081756 234 88 12
-1.7472637 1.0869814 0.91081756 234 88 12
-1.7518444 1.0808932 0.91081756 234 88 12
-1.7335564 1.1100398 0.90174919 234 88 12
-1.7358468 1.1069957 0.90174919 234 88 12
-1.7392824 1.1024295 0.90174919 234 88 12
-1.7438631 1.0963413 0.90174919 234 88 12
-1.7450082 1.0948192 0.90174919 234 88 12
-1.7507342 1.087209 0.90174919 234 88 12
-1.7317312 1.1134338 0.89993554 234 88 12
-1.7511992 1.0875589 0.89993554 234 88 12
-1.7274004 1.1220939 0.89449453 234 88 12
-1.7296908 1.1190498 0.89449453 234 88 12
-1.7354168 1.1114395 0.89449453 234 88 12
-1.7365619 1.1099174 0.89449453 234 88 12
-1.7422879 1.1023072 0.89449453 234 88 12
-1.743433 1.1007851 0.89449453 234 88 12
-1.7480137 1.0946969 0.89449453 234 88 12
-1.7255752 1.125488 0.89268088 234 88 12
-1.724895 1.12736 0.89086723 234 88 12
-1.7512343 1.0923525 0.89086723 234 88 12
-1.7436831 1.103357 0.88905358 234 88 12
-1.7235348 1.131104 0.88723987 234 88 12
-1.7269704 1.1265378 0.88723987 234 88 12
-1.7326963 1.1189275 0.88723987 234 88 12
-1.7349867 1.1158834 0.88723987 234 88 12
-1.7395674 1.1097951 0.88723987 234 88 12
-1.743003 1.1052289 0.88723987 234 88 12
-1.7452934 1.1021848 0.88723987 234 88 12
-1.7510192 1.0945745 0.88723987 234 88 12
-1.7567451 1.0869641 0.88723987 234 88 12
-1.7590355 1.08392 0.88723987 234 88 12
-1.7636162 1.0778317 0.88723987 234 88 12
-1.7272204 1.1291096 0.88179892 234 88 12
-1.7512692 1.0971463 0.88179892 234 88 12
-1.7231047 1.1355478 0.87998521 234 88 12
-1.7235699 1.1358976 0.87817156 234 88 12
-1.724715 1.1343756 0.87817156 234 88 12
-1.7270054 1.1313314 0.87817156 234 88 12
-1.730441 1.1267653 0.87817156 234 88 12
-1.7350217 1.120677 0.87817156 234 88 12
-1.7361668 1.1191549 0.87817156 234 88 12
-1.7430379 1.1100225 0.87817156 234 88 12
-1.7487639 1.1024123 0.87817156 234 88 12
-1.7510543 1.0993682 0.87817156 234 88 12
-1.7544898 1.094802 0.87817156 234 88 12
-1.7590705 1.0887138 0.87817156 234 88 12
-1.7602158 1.0871917 0.87817156 234 88 12
-1.743288 1.1125944 0.87273055 234 88 12
-1.7277205 1.1342531 0.8709169 234 88 12
-1.7334464 1.1266428 0.8709169 234 88 12
-1.7357367 1.1235988 0.8709169 234 88 12
-1.7391723 1.1190326 0.8709169 234 88 12
-1.7437531 1.1129444 0.8709169 234 88 12
-1.7460434 1.1099002 0.8709169 234 88 12
-1.7517693 1.1022899 0.8709169 234 88 12
-1.7574953 1.0946796 0.8709169 234 88 12
-1.7510892 1.1041619 0.86910325 234 88 12
-1.7591056 1.0935074 0.86910325 234 88 12
-1.7353067 1.1280426 0.86366224 234 88 12
-1.7334814 1.1314366 0.86184859 234 88 12
-1.7357718 1.1283925 0.86184859 234 88 12
-1.736917 1.1268704 0.86184859 234 88 12
-1.7426429 1.1192601 0.86184859 234 88 12
-1.7437881 1.117738 0.86184859 234 88 12
-1.749514 1.1101277 0.86184859 234 88 12
-1.7518044 1.1070836 0.86184859 234 88 12
-1.75524 1.1025174 0.86184859 234 88 12
-1.7431079 1.1196101 0.86003494 234 88 12
-1.7387773 1.12827 0.85459393 234 88 12
-1.7399224 1.126748 0.85459393 234 88 12
-1.743358 1.1221818 0.85459393 234 88 12
-1.7456484 1.1191376 0.85459393 234 88 12
-1.7513742 1.1115274 0.85459393 234 88 12
-0.89510697 1.983951 0.51705718 234 88 12
-0.89684421 1.9831699 0.51705718 234 88 12
-0.89858145 1.9823889 0.51705718 234 88 12
-0.89025354 1.9870913 0.51141012 234 88 12
-0.89546531 1.9847481 0.51141012 234 88 12
-0.87994945 1.9920434 0.5095278 234 88 12
-0.87485713 1.9946522 0.50764543 234 88 12
-0.88528067 1.9899658 0.50764543 234 88 12
-0.86814702 1.9983078 0.50388074 234 88 12
-0.86305469 2.0009167 0.50199836 234 88 12
-0.86479199 2.0001357 0.50199836 234 88 12
-0.86826646 1.9985735 0.50199836 234 88 12
-0.871741 1.9970114 0.50199836 234 88 12
-0.8804273 1.9931061 0.50199836 234 88 12
-0.88737631 1.9899819 0.50199836 234 88 12
-0.88911355 1.9892008 0.50199836 234 88 12
-0.89606261 1.9860766 0.50199836 234 88 12
-0.88773465 1.9907789 0.4963513 234 88 12
-0.85832077 2.0043228 0.49446896 234 88 12
-0.86353254 2.0019796 0.49446896 234 88 12
-0.87221885 1.9980742 0.49446896 234 88 12
-0.88090509 1.9941689 0.49446896 234 88 12
-0.88785416 1.9910446 0.49446896 234 88 12
-0.8895914 1.9902636 0.49446896 234 88 12
-0.8965404 1.9871393 0.49446896 234 88 12
-0.90348947 1.9840151 0.49446896 234 88 12
-0.90696394 1.982453 0.49446896 234 88 12
-0.91217571 1.9801098 0.49446896 234 88 12
-0.87257719 1.9988713 0.48882189 234 88 12
-0.86053586 2.0046043 0.48693955 234 88 12
-0.86401039 2.0030422 0.48693955 234 88 12
-0.87269664 1.999137 0.48693955 234 88 12
-0.87443393 1.998356 0.48693955 234 88 12
-0.87964571 1.9960127 0.48693955 234 88 12
-0.88833195 1.9921074 0.48693955 234 88 12
-0.89180648 1.9905453 0.48693955 234 88 12
-0.89701825 1.9882021 0.48693955 234 88 12
-0.90396726 1.9850779 0.48693955 234 88 12
-0.91091627 1.9819536 0.48693955 234 88 12
-0.91265357 1.9811726 0.48693955 234 88 12
-0.86622542 2.003324 0.47941014 234 88 12
-0.87143719 2.0009809 0.47941014 234 88 12
-0.87664896 1.9986377 0.47941014 234 88 12
-0.8801235 1.9970756 0.47941014 234 88 12
-0.8888098 1.9931703 0.47941014 234 88 12
-0.89575881 1.990046 0.47941014 234 88 12
-0.90444511 1.9861406 0.47941014 234 88 12
-0.89611715 1.9908431 0.47376308 234 88 12
-0.87377173 2.0015283 0.46999836 234 88 12
-0.88072079 1.998404 0.46999836 234 88 12
-0.8876698 1.9952798 0.46999836 234 88 12
-0.89635611 1.9913745 0.46999836 234 88 12
-0.89809334 1.9905934 0.46999836 234 88 12
-0.88095969 1.9989355 0.46623367 234 88 12
-0.88119859 1.9994668 0.46246895 234 88 12
-0.88293588 1.9986857 0.46246895 234 88 12
-0.88814765 1.9963425 0.46246895 234 88 12
-2.1222034 0.69203538 -0.24035129 234 88 12
-2.1193287 0.69700825 -0.24411599 234 88 12
-2.1182818 0.69862604 -0.24599834 234 88 12
-2.1180162 0.69850659 -0.2478807 234 88 12
-2.1187973 0.69676936 -0.2478807 234 88 12
-2.1195784 0.69503206 -0.2478807 234 88 12
-2.1112363 0.71216571 -0.25164542 234 88 12
-2.1086276 0.71725804 -0.25352776 234 88 12
-2.1117518 0.71030903 -0.25352776 234 88 12
-2.1067996 0.72061312 -0.2554101 234 88 12
-2.1185155 0.69455427 -0.2554101 234 88 12
-2.1049719 0.72396815 -0.25729245 234 88 12
-2.1073151 0.71875638 -0.25729245 234 88 12
-2.1112204 0.71007007 -0.25729245 234 88 12
-2.1143446 0.70312107 -0.25729245 234 88 12
-2.1182499 0.69443482 -0.25729245 234 88 12
-2.1020973 0.72894102 -0.26105717 234 88 12
-2.1208427 0.68724686 -0.26105717 234 88 12
-2.1026125 0.72708428 -0.26293951 234 88 12
-2.109642 0.71144897 -0.26293951 234 88 12
-2.119015 0.69060189 -0.26293951 234 88 12
-2.0992227 0.7339139 -0.26482189 234 88 12
-2.1023469 0.72696483 -0.26482189 234 88 12
-2.103128 0.72522759 -0.26482189 234 88 12
-2.1062522 0.71827859 -0.26482189 234 88 12
-2.1093764 0.71132952 -0.26482189 234 88 12
-2.1109385 0.70785505 -0.26482189 234 88 12
-2.1132817 0.70264328 -0.26482189 234 88 12
-2.117187 0.69395697 -0.26482189 234 88 12
-2.1187491 0.69048244 -0.26482189 234 88 12
-2.1203113 0.68700796 -0.26482189 234 88 12
-2.098176 0.73553169 -0.26670423 234 88 12
-2.0958166 0.73864782 -0.27235129 234 88 12
-2.0973787 0.73517329 -0.27235129 234 88 12
-2.101284 0.72648704 -0.27235129 234 88 12
-2.1028461 0.72301251 -0.27235129 234 88 12
-2.1051893 0.71780074 -0.27235129 234 88 12
-2.1083136 0.71085173 -0.27235129 234 88 12
-2.1106567 0.70563996 -0.27235129 234 88 12
-2.1122189 0.70216542 -0.27235129 234 88 12
-2.1153433 0.69521642 -0.27235129 234 88 12
-2.095535 0.73643273 -0.2798807 234 88 12
-2.0963161 0.73469549 -0.2798807 234 88 12
-2.1002214 0.72600919 -0.2798807 234 88 12
-2.1033456 0.71906018 -0.2798807 234 88 12
-2.1072509 0.71037388 -0.2798807 234 88 12
-2.1103752 0.70342487 -0.2798807 234 88 12
-2.1111562 0.70168763 -0.2798807 234 88 12
-2.1142805 0.69473857 -0.2798807 234 88 12
-2.1025484 0.71870178 -0.28552777 234 88 12
-2.0981119 0.72714919 -0.28929245 234 88 12
-2.1020172 0.71846288 -0.28929245 234 88 12
-2.1027982 0.71672565 -0.28929245 234 88 12
-2.1051414 0.71151388 -0.28929245 234 88 12
-2.1090467 0.70282757 -0.28929245 234 88 12
-2.1001732 0.71972233 -0.29682189 234 88 12
-2.1009543 0.71798509 -0.29682189 234 88 12
-2.1032975 0.71277332 -0.29682189 234 88 12
-2.1040785 0.71103603 -0.29682189 234 88 12
0.26821527 2.2216418 0.033621144 234 88 12
0.27201495 2.2213581 0.031717837 234 88 12
0.27011305 2.2214627 0.031717837 234 88 12
0.29292747 2.2200577 0.027911231 234 88 12
0.28722182 2.2203717 0.027911231 234 88 12
0.29672715 2.219774 0.026007926 234 88 12
0.30622837 2.2191017 0.022201318 234 88 12
0.30242461 2.2193112 0.022201318 234 88 12
0.29481706 2.2197299 0.022201318 234 88 12
0.28720954 2.2201486 0.022201318 234 88 12
0.27960199 2.2205672 0.022201318 234 88 12
0.27009258 2.2210908 0.022201318 234 88 12
0.31192583 2.2186389 0.01839471 234 88 12
0.31191763 2.2184901 0.014588104 234 88 12
0.31001574 2.2185948 0.014588104 234 88 12
0.30240822 2.2190135 0.014588104 234 88 12
0.29480067 2.2194324 0.014588104 234 88 12
0.28719315 2.219851 0.014588104 234 88 12
0.27958563 2.2202697 0.014588104 234 88 12
0.27007619 2.220793 0.014588104 234 88 12
0.26246047 2.2210631 0.010781496 234 88 12
0.25485295 2.2214818 0.010781496 234 88 12
0.24724132 2.2218261 0.0088781919 234 88 12
0.30809748 2.2184019 0.0069748885 234 88 12
0.30239183 2.2187159 0.0069748885 234 88 12
0.29478431 2.2191346 0.0069748885 234 88 12
0.28717676 2.2195535 0.0069748885 234 88 12
0.27956924 2.2199721 0.0069748885 234 88 12
0.27005982 2.2204955 0.0069748885 234 88 12
0.26245227 2.2209141 0.0069748885 234 88 12
0.25484475 2.221333 0.0069748885 234 88 12
0.24723722 2.2217517 0.0069748885 234 88 12
0.30047357 2.218523 -0.00063832669 234 88 12
0.29476792 2.218837 -0.00063832669 234 88 12
0.2871604 2.2192557 -0.00063832669 234 88 12
0.27955285 2.2196746 -0.00063832669 234 88 12
0.27004343 2.2201979 -0.00063832669 234 88 12
0.26243591 2.2206166 -0.00063832669 234 88 12
0.29475155 2.2185395 -0.0082515422 234 88 12
0.28714401 2.2189581 -0.0082515422 234 88 12
0.27953649 2.2193768 -0.0082515422 234 88 12
0.27002707 2.2199004 -0.0082515422 234 88 12
0.28331977 2.2187955 -0.017768061 234 88 12
0.27951601 2.2190049 -0.017768061 234 88 12
-1.3387539 1.6605297 -0.65509075 234 88 12
-1.3353599 1.6623549 -0.6569044 234 88 12
-1.333488 1.663035 -0.65871805 234 88 12
-1.3350101 1.6618899 -0.65871805 234 88 12
-1.3190895 1.6724116 -0.66234541 234 88 12
-1.3206116 1.6712664 -0.66234541 234 88 12
-1.3221337 1.6701212 -0.66234541 234 88 12
-1.3156955 1.6742369 -0.66415906 234 88 12
-1.3202617 1.6708013 -0.66415906 234 88 12
-1.327872 1.6650754 -0.66415906 234 88 12
-1.3309162 1.6627851 -0.66415906 234 88 12
-1.3354824 1.6593494 -0.66415906 234 88 12
-1.3089074 1.6778874 -0.66778642 234 88 12
-1.3055134 1.6797128 -0.66960007 234 88 12
-1.3176899 1.6705513 -0.66960007 234 88 12
-1.3386488 1.6540537 -0.67141372 234 88 12
-1.343215 1.6506181 -0.67141372 234 88 12
-1.3017694 1.681073 -0.67322737 234 88 12
-1.3032914 1.6799278 -0.67322737 234 88 12
-1.3048135 1.6787826 -0.67322737 234 88 12
-1.3124238 1.6730567 -0.67322737 234 88 12
-1.315468 1.6707664 -0.67322737 234 88 12
-1.3200341 1.6673307 -0.67322737 234 88 12
-1.3261224 1.66275 -0.67322737 234 88 12
-1.3276445 1.6616049 -0.67322737 234 88 12
-1.3352548 1.6558789 -0.67322737 234 88 12
-1.3367769 1.6547338 -0.67322737 234 88 12
-1.3443872 1.6490078 -0.67322737 234 88 12
-1.3474313 1.6467174 -0.67322737 234 88 12
-1.3022417 1.6785326 -0.67866838 234 88 12
-1.334205 1.6544837 -0.67866838 234 88 12
-1.3003697 1.6792127 -0.68048203 234 88 12
-1.3018918 1.6780674 -0.68048203 234 88 12
-1.3034139 1.6769223 -0.68048203 234 88 12
-1.3125463 1.6700512 -0.68048203 234 88 12
-1.3201566 1.6643252 -0.68048203 234 88 12
-1.3232007 1.6620349 -0.68048203 234 88 12
-1.3277669 1.6585994 -0.68048203 234 88 12
-1.3338552 1.6540186 -0.68048203 234 88 12
-1.3353772 1.6528735 -0.68048203 234 88 12
-1.3106743 1.6707313 -0.68229574 234 88 12
-1.3050584 1.6727717 -0.68773669 234 88 12
-1.3081025 1.6704813 -0.68773669 234 88 12
-1.3126687 1.6670457 -0.68773669 234 88 12
-1.3187569 1.662465 -0.68773669 234 88 12
-1.320279 1.6613199 -0.68773669 234 88 12
-1.3278892 1.6555939 -0.68773669 234 88 12
-1.3294113 1.6544487 -0.68773669 234 88 12
-1.3268394 1.6541986 -0.6931777 234 88 12
-1.310919 1.6647204 -0.69680506 234 88 12
-1.3124411 1.6635752 -0.69680506 234 88 12
-1.3139632 1.66243 -0.69680506 234 88 12
-1.3200514 1.6578493 -0.69680506 234 88 12
-0.16886657 1.9108143 -1.140797 234 88 12
-0.16496585 1.9103745 -1.1424497 234 88 12
-0.16874257 1.9098755 -1.1424497 234 88 12
-0.14218159 1.9124295 -1.1441025 234 88 12
-0.14406995 1.9121799 -1.1441025 234 88 12
-0.15351172 1.9109327 -1.1441025 234 88 12
-0.15540007 1.9106832 -1.1441025 234 88 12
-0.16295348 1.9096853 -1.1441025 234 88 12
-0.16861854 1.9089367 -1.1441025 234 88 12
-0.13450415 1.9124886 -1.1457552 234 88 12
-0.14772263 1.9107423 -1.1457552 234 88 12
-0.14193356 1.910552 -1.147408 234 88 12
-0.13425612 1.9106112 -1.1490607 234 88 12
-0.12657869 1.9106704 -1.1507134 234 88 12
-0.12645467 1.9097316 -1.1523662 234 88 12
-0.12834303 1.9094821 -1.1523662 234 88 12
-0.13778479 1.9082347 -1.1523662 234 88 12
-0.14533821 1.9072368 -1.1523662 234 88 12
-0.15289162 1.9062389 -1.1523662 234 88 12
-0.16044503 1.905241 -1.1523662 234 88 12
-0.16799845 1.9042431 -1.1523662 234 88 12
-0.16586205 1.9026152 -1.1556716 234 88 12
-0.16963877 1.9021162 -1.1556716 234 88 12
-0.17719218 1.9011183 -1.1556716 234 88 12
-0.15818463 1.9026743 -1.1573243 234 88 12
-0.18462157 1.8991816 -1.1573243 234 88 12
-0.1505072 1.9027334 -1.158977 234 88 12
-0.13149963 1.9042895 -1.1606299 234 88 12
-0.1371647 1.9035411 -1.1606299 234 88 12
-0.14471811 1.9025432 -1.1606299 234 88 12
-0.15227152 1.9015453 -1.1606299 234 88 12
-0.1617133 1.9002979 -1.1606299 234 88 12
-0.16926672 1.8993 -1.1606299 234 88 12
-0.17682013 1.8983021 -1.1606299 234 88 12
-0.18437354 1.8973042 -1.1606299 234 88 12
-0.13704067 1.9026023 -1.1622826 234 88 12
-0.1350283 1.9019132 -1.1639353 234 88 12
-0.13843296 1.898598 -1.1688935 234 88 12
-0.14409801 1.8978496 -1.1688935 234 88 12
-0.15353979 1.8966022 -1.1688935 234 88 12
-0.16109321 1.8956043 -1.1688935 234 88 12
-0.16864662 1.8946064 -1.1688935 234 88 12
-0.16096918 1.8946655 -1.1705462 234 88 12
-0.15329175 1.8947247 -1.1721989 234 88 12
-0.14750268 1.8945343 -1.1738516 234 88 12
-0.1454903 1.8938452 -1.1755044 234 88 12
-0.15304372 1.8928472 -1.1755044 234 88 12
-1.0956084 0.94737571 -1.7042141 234 88 12
-1.0932822 0.94772917 -1.7055259 234 88 12
-1.0963824 0.94273418 -1.7068375 234 88 12
-1.0940562 0.94308764 -1.7081492 234 88 12
-1.0754515 0.95948648 -1.7094609 234 88 12
-1.0768081 0.95814937 -1.7094609 234 88 12
-1.0795212 0.95547515 -1.7094609 234 88 12
-1.0849473 0.95012671 -1.7094609 234 88 12
-1.0694427 0.96153057 -1.7120843 234 88 12
-1.0721558 0.95885634 -1.7120843 234 88 12
-1.0802952 0.95083362 -1.7120843 234 88 12
-1.0884345 0.94281095 -1.7120843 234 88 12
-1.1033566 0.92810267 -1.7120843 234 88 12
-1.0698297 0.9592098 -1.713396 234 88 12
-1.0779691 0.95118713 -1.713396 234 88 12
-1.0861084 0.94316441 -1.713396 234 88 12
-1.0956043 0.93380463 -1.713396 234 88 12
-1.1023871 0.92711902 -1.713396 234 88 12
-1.1037436 0.92578191 -1.713396 234 88 12
-1.0620774 0.96491176 -1.7147076 234 88 12
-1.0932782 0.93415809 -1.7147076 234 88 12
-1.0550991 0.96597213 -1.7186427 234 88 12
-1.0618819 0.95928657 -1.7186427 234 88 12
-1.0700212 0.95126384 -1.7186427 234 88 12
-1.0781605 0.94324118 -1.7186427 234 88 12
-1.0862999 0.93521845 -1.7186427 234 88 12
-1.0944391 0.92719579 -1.7186427 234 88 12
-1.0541296 0.96498847 -1.7199544 234 88 12
-1.0554861 0.96365136 -1.7199544 234 88 12
-1.0609124 0.95830292 -1.7199544 234 88 12
-1.0636255 0.95562869 -1.7199544 234 88 12
-1.0690516 0.95028025 -1.7199544 234 88 12
-1.0717647 0.94760597 -1.7199544 234 88 12
-1.077191 0.94225752 -1.7199544 234 88 12
-1.0799041 0.9395833 -1.7199544 234 88 12
-1.0853302 0.93423486 -1.7199544 234 88 12
-1.0880435 0.93156058 -1.7199544 234 88 12
-1.0888174 0.9269191 -1.7225778 234 88 12
-1.053934 0.95936334 -1.7238895 234 88 12
-1.0620733 0.95134062 -1.7238895 234 88 12
-1.0702126 0.94331795 -1.7238895 234 88 12
-1.078352 0.93529522 -1.7238895 234 88 12
-1.0864913 0.92727256 -1.7238895 234 88 12
-1.0564516 0.95106393 -1.7278246 234 88 12
-1.0645909 0.94304121 -1.7278246 234 88 12
-1.0713737 0.93635565 -1.7278246 234 88 12
-1.0727302 0.93501854 -1.7278246 234 88 12
-1.079513 0.92833298 -1.7278246 234 88 12
-1.0704042 0.93537199 -1.7291362 234 88 12
-1.0612953 0.94241107 -1.7304479 234 88 12
0.10949311 1.0555078 -1.976571 234 88 12
0.10378422 1.0552596 -1.976571 234 88 12
0.094269395 1.0548459 -1.976571 234 88 12
0.12098042 1.0544052 -1.9776037 234 88 12
0.11907745 1.0543225 -1.9776037 234 88 12
0.1114656 1.0539916 -1.9776037 234 88 12
0.086796589 1.051317 -1.9786363 234 88 12
0.079184726 1.0509859 -1.9786363 234 88 12
0.10413183 1.0472645 -1.9817343 234 88 12
0.10222887 1.0471817 -1.9817343 234 88 12
0.094617009 1.0468508 -1.9817343 234 88 12
0.087005153 1.0465199 -1.9817343 234 88 12
0.079393297 1.046189 -1.9817343 234 88 12
0.12323099 1.0464928 -1.982767 234 88 12
0.11942507 1.0463274 -1.982767 234 88 12
0.11181321 1.0459964 -1.982767 234 88 12
0.10229839 1.0455828 -1.982767 234 88 12
0.094686531 1.0452518 -1.982767 234 88 12
0.087074675 1.0449208 -1.982767 234 88 12
0.079462819 1.0445899 -1.982767 234 88 12
0.10447944 1.0392694 -1.9868977 234 88 12
0.10257648 1.0391867 -1.9868977 234 88 12
0.094964623 1.0388557 -1.9868977 234 88 12
0.087352768 1.0385247 -1.9868977 234 88 12
0.079740912 1.0381938 -1.9868977 234 88 12
0.070226088 1.0377802 -1.9868977 234 88 12
0.11596675 1.0381668 -1.9879304 234 88 12
0.062683754 1.0358502 -1.9879304 234 88 12
0.11236939 1.0332043 -1.9910284 234 88 12
0.11046643 1.0331216 -1.9910284 234 88 12
0.10285457 1.0327905 -1.9910284 234 88 12
0.095242716 1.0324596 -1.9910284 234 88 12
0.087630853 1.0321287 -1.9910284 234 88 12
0.078116037 1.031715 -1.9910284 234 88 12
0.070504181 1.0313841 -1.9910284 234 88 12
0.068601213 1.0313014 -1.9910284 234 88 12
0.062892325 1.0310531 -1.9910284 234 88 12
0.10482705 1.0312743 -1.9920611 234 88 12
0.10292409 1.0311916 -1.9920611 234 88 12
0.095312238 1.0308607 -1.9920611 234 88 12
0.087700382 1.0305297 -1.9920611 234 88 12
0.078185558 1.030116 -1.9920611 234 88 12
0.10327171 1.0231965 -1.9972245 234 88 12
0.095659845 1.0228655 -1.9972245 234 88 12
