ply
format ascii 1.0
element vertex 82
property float x
property float y
property float z
property uchar red
property uchar green
property uchar blue
end_header
-0.77167326 -2.0197134 -0.59768856 234 88 12
-0.76276326 -2.023077 -0.59768856 234 88 12
-0.75385332 -2.0264409 -0.59768856 234 88 12
-1.9280645 0.40390402 -1.076333 234 88 12
-1.9286845 0.40014526 -1.076333 234 88 12
-1.9272995 0.40184733 -1.0778955 234 88 12
-1.9276094 0.39996797 -1.0778955 234 88 12
-1.9256244 0.3919186 -1.0825827 234 88 12
-1.9200846 0.39872688 -1.0888323 234 88 12
-1.9207045 0.39496815 -1.0888323 234 88 12
-1.9213245 0.39120939 -1.0888323 234 88 12
-1.9202495 0.3910321 -1.0903947 234 88 12
-1.2552265 -1.2000048 -1.4081614 234 88 12
-1.2529606 -1.2004327 -1.4095539 234 88 12
-1.2560822 -1.195473 -1.4109462 234 88 12
-1.2533884 -1.1981667 -1.4109462 234 88 12
-1.2443881 -1.2053289 -1.4123387 234 88 12
-1.2430413 -1.2066758 -1.4123387 234 88 12
-1.2528971 -1.1949818 -1.4137311 234 88 12
-1.2434691 -1.2044098 -1.4137311 234 88 12
-1.2339777 -1.2083871 -1.4179084 234 88 12
0.35794809 -1.9069343 -1.1169555 234 88 12
0.34837392 -1.9074091 -1.1185179 234 88 12
0.35401204 -1.9064791 -1.1185179 234 88 12
0.3632316 -1.9038544 -1.1200804 234 88 12
0.34050184 -1.9064989 -1.1216427 234 88 12
0.33791327 -1.902509 -1.1278923 234 88 12
0.3435514 -1.9015791 -1.1278923 234 88 12
0.34918952 -1.9006492 -1.1278923 234 88 12
-1.1515329 1.2645988 -1.4523697 234 88 12
-1.1528895 1.2632617 -1.4523697 234 88 12
-1.1459112 1.2643222 -1.4563048 234 88 12
-1.1449416 1.2633384 -1.4576164 234 88 12
-1.1402894 1.2640454 -1.4602399 234 88 12
-1.1416459 1.2627083 -1.4602399 234 88 12
-1.1470722 1.2573599 -1.4602399 234 88 12
-1.1360242 1.2624316 -1.464175 234 88 12
-1.1209649 -0.071000569 -1.9301852 234 88 12
-1.1195207 -0.06890481 -1.9310672 234 88 12
-1.1169193 -0.07626231 -1.9319493 234 88 12
-1.1131049 -0.0796334 -1.9337134 234 88 12
-1.1070963 -0.073141016 -1.9372416 234 88 12
-1.106402 -0.078812972 -1.9372416 234 88 12
-1.0999306 -0.076101892 -1.9407698 234 88 12
-1.0994678 -0.079883195 -1.9407698 234 88 12
-0.11963157 -1.0792952 -1.9487082 234 88 12
-0.11585027 -1.0797579 -1.9487082 234 88 12
-0.12698908 -1.0766938 -1.9495902 234 88 12
-0.1061919 -1.0792394 -1.9495902 234 88 12
-0.12867463 -1.0747867 -1.9504722 234 88 12
-0.12678397 -1.075018 -1.9504722 234 88 12
-0.11733071 -1.0761751 -1.9504722 234 88 12
-0.1059868 -1.0775636 -1.9504722 234 88 12
1.2301712 -1.1175987 -1.4982789 234 88 12
1.2315084 -1.1162421 -1.4982789 234 88 12
1.2291876 -1.1166291 -1.4995905 234 88 12
1.2268668 -1.1170161 -1.5009023 234 88 12
1.2245461 -1.1174031 -1.502214 234 88 12
1.2235624 -1.1164335 -1.5035256 234 88 12
1.2132957 -1.117012 -1.510084 234 88 12
1.2146329 -1.1156554 -1.510084 234 88 12
1.2159699 -1.1142989 -1.510084 234 88 12
-0.032883309 1.3921543 -1.7555778 234 88 12
-0.040495165 1.3918234 -1.7555778 234 88 12
-0.029007858 1.3907208 -1.7566105 234 88 12
-0.030910823 1.3906381 -1.7566105 234 88 12
-0.040425643 1.3902243 -1.7566105 234 88 12
-0.01928447 1.3863374 -1.7597085 234 88 12
-0.020978866 1.3814577 -1.7628065 234 88 12
0.014285714 0.067619048 -2.23 234 88 12
0.025714286 0.065714285 -2.23 234 88 12
0.02952381 0.063809521 -2.23 234 88 12
0.0085714282 0.063809521 -2.23 234 88 12
0.033333335 0.058095239 -2.23 234 88 12
0.027619047 0.058095239 -2.23 234 88 12
0.018095238 0.058095239 -2.23 234 88 12
1.3587134 0.0086084334 -1.7782967 234 88 12
1.3571972 0.01058092 -1.7793294 234 88 12
1.3505528 0.0051501174 -1.7834601 234 88 12
1.3508011 0.01085901 -1.7834601 234 88 12
1.3410414 0.0074702171 -1.7896562 234 88 12
1.3412069 0.011276145 -1.7896562 234 88 12
