ply
format ascii 1.0
element vertex 2113
property float x
property float y
property float z
property uchar red
property uchar green
property uchar blue
end_header
-0.47984266 0.46478876 1.7420887 234 88 12
-0.46844527 0.45007485 1.7655538 234 88 12
-0.47953436 0.45696804 1.7427233 234 88 12
-0.47120938 0.45619076 1.7444026 234 88 12
-0.48245999 0.45597199 1.7367001 234 88 12
-0.47554612 0.45660007 1.7353318 234 88 12
-0.44231489 0.45750168 1.7333677 234 88 12
-0.44758213 0.45135918 1.7385206 234 88 12
-0.42993802 0.45266601 1.7356499 234 88 12
-0.46374109 0.43100643 1.7752389 234 88 12
-0.46122637 0.44983807 1.7335232 234 88 12
-0.48145014 0.44368935 1.7387791 234 88 12
-0.47956872 0.4454492 1.7348475 234 88 12
-0.47292495 0.44633481 1.732869 234 88 12
-0.46167895 0.43924922 1.7486986 234 88 12
-0.46122637 0.44604194 1.7335232 234 88 12
-0.44624853 0.44624853 1.7330618 234 88 12
-0.43084076 0.4460246 1.7335621 234 88 12
-0.42123422 0.43995574 1.7471201 234 88 12
-0.47440618 0.43690372 1.7455603 234 88 12
-0.46539885 0.43202364 1.7565562 234 88 12
-0.42315757 0.43434235 1.7513316 234 88 12
-0.466041 0.43235129 1.7473835 234 88 12
-0.46024263 0.43394303 1.7437658 234 88 12
-0.42746279 0.42379358 1.7668327 234 88 12
-0.42584303 0.42584303 1.762175 234 88 12
-0.48101422 0.43196964 1.7396766 234 88 12
-0.41228992 0.37615296 1.8676406 234 88 12
-0.45591798 0.43321669 1.7368176 234 88 12
-0.44651699 0.42783427 1.7491572 234 88 12
-0.44456735 0.43321669 1.7368176 234 88 12
-0.41369364 0.41733852 1.7732196 234 88 12
-0.46709991 0.41909754 1.7607216 234 88 12
-0.46854791 0.43060881 1.7340986 234 88 12
-0.43406126 0.43027034 1.7348814 234 88 12
-0.42939425 0.42939425 1.7369076 234 88 12
-0.47604939 0.42004359 1.7498983 234 88 12
-0.45342037 0.40645254 1.7816107 234 88 12
-0.44809097 0.4183422 1.7538682 234 88 12
-0.48023158 0.41996723 1.7412879 234 88 12
-0.45162022 0.41788924 1.7461801 234 88 12
-0.43148854 0.42018315 1.7407795 234 88 12
-0.48379982 0.4192932 1.7339416 234 88 12
-0.46738049 0.41818255 1.7365799 234 88 12
-0.46093288 0.41920233 1.7341573 234 88 12
-0.44711101 0.41692629 1.7395642 234 88 12
-0.44583344 0.41927317 1.7339891 234 88 12
-0.46482933 0.39920637 1.7729985 234 88 12
-0.42596707 0.39361513 1.7864021 234 88 12
-0.42595479 0.40735415 1.7534661 234 88 12
-0.47275323 0.40230373 1.7566845 234 88 12
-0.44213855 0.40143961 1.7587751 234 88 12
-0.42955843 0.41063514 1.7365279 234 88 12
-0.47491845 0.40358683 1.7444973 234 88 12
-0.45884511 0.40597409 1.738668 234 88 12
-0.47575083 0.40372482 1.7349036 234 88 12
-0.46054026 0.40368345 1.7350056 234 88 12
-0.44672629 0.40490511 1.7319944 234 88 12
-0.43132287 0.40118676 1.7411593 234 88 12
-0.4261834 0.39966533 1.7355721 234 88 12
-0.4213658 0.39140201 1.7468132 234 88 12
-0.45974565 0.39163518 1.7367224 234 88 12
-0.45379943 0.38977793 1.7414328 234 88 12
-0.43695056 0.38819212 1.7454548 234 88 12
-0.44576323 0.38885728 1.734146 234 88 12
-0.42592636 0.37798661 1.7619855 234 88 12
-0.33765611 -0.6455695 1.6715537 234 88 12
-0.33706573 -0.63880759 1.6666247 234 88 12
-0.33185187 -0.64168662 1.6688972 234 88 12
-0.33508468 -0.63774961 1.6615199 234 88 12
-0.32771933 -0.64518273 1.6672329 234 88 12
-0.35103297 -0.63973874 1.6580548 234 88 12
-0.3283205 -0.64677548 1.6640089 234 88 12
-0.34963924 -0.6454581 1.6579207 234 88 12
-0.32185039 -0.64703363 1.6600008 234 88 12
-0.30731577 -0.64796484 1.6567354 234 88 12
-0.2922518 -0.64714181 1.6566089 234 88 12
-0.32524478 -0.66977757 1.6682056 234 88 12
-0.32116714 -0.6704008 1.6688122 234 88 12
-0.32392865 -0.64834493 1.6520092 234 88 12
-0.30477715 -0.64786571 1.652277 234 88 12
-0.29316378 -0.64788079 1.6526711 234 88 12
-0.34491402 -0.66359413 1.6584461 234 88 12
-0.33466575 -0.66884947 1.6627959 234 88 12
-0.32510945 -0.67288965 1.6661958 234 88 12
-0.3200022 -0.67566168 1.6684803 234 88 12
-0.31149977 -0.65300095 1.6514717 234 88 12
-0.29340473 -0.6590625 1.6566972 234 88 12
-0.34375295 -0.67629433 1.6637834 234 88 12
-0.34725863 -0.66181904 1.6525438 234 88 12
-0.32141462 -0.69099575 1.675826 234 88 12
-0.31727067 -0.66010189 1.6522262 234 88 12
-0.36069313 -0.66853482 1.6527841 234 88 12
-0.33064067 -0.6671924 1.6527563 234 88 12
-0.31465289 -0.66857463 1.6543638 234 88 12
-0.3080681 -0.67453498 1.6591973 234 88 12
-0.30698851 -0.66018468 1.6481297 234 88 12
-0.36694679 -0.66690141 1.6467941 234 88 12
-0.32284099 -0.69367385 1.6691498 234 88 12
-0.30288851 -0.67206895 1.6529909 234 88 12
-0.36417717 -0.67501491 1.6487046 234 88 12
-0.35235673 -0.675574 1.6495466 234 88 12
-0.34860295 -0.67541075 1.6495466 234 88 12
-0.32941046 -0.67545885 1.6502391 234 88 12
-0.33225992 -0.69541949 1.6613849 234 88 12
-0.31250143 -0.67357069 1.6447986 234 88 12
-0.22094993 -0.93781656 1.8536758 234 88 12
-0.30745286 -0.76728934 1.7149814 234 88 12
-0.32934615 -0.71838373 1.675306 234 88 12
-0.31071624 -0.74064177 1.693663 234 88 12
-0.3338868 -0.68754894 1.6506113 234 88 12
-0.30187753 -0.69102252 1.654483 234 88 12
-0.12948693 -1.0575099 1.9520894 234 88 12
-0.16772872 -1.0321712 1.9280419 234 88 12
-0.15615027 -1.0504695 1.9431094 234 88 12
-0.3329708 -0.6768961 1.6375729 234 88 12
-0.31455651 -0.67496145 1.636664 234 88 12
-0.27392057 -0.75376606 1.7012327 234 88 12
-0.2905975 -0.71009195 1.6656519 234 88 12
-0.33737049 -0.67874879 1.6342849 234 88 12
-0.30204439 -0.69630933 1.6496964 234 88 12
-0.30360499 -0.68478292 1.6403394 234 88 12
-0.3056179 -0.68331879 1.6344655 234 88 12
-0.30005425 -0.6870259 1.6376749 234 88 12
-0.32423303 -0.68763638 1.6326786 234 88 12
-0.32269663 -0.70137924 1.6393867 234 88 12
-0.32182205 -0.68755984 1.6280273 234 88 12
-0.31653059 -0.70413607 1.6326159 234 88 12
-0.30692065 -0.70820701 1.6363683 234 88 12
-0.30599245 -0.69406527 1.62458 234 88 12
-0.31710663 -0.69799405 1.6227362 234 88 12
-0.30380496 -0.7174983 1.6396435 234 88 12
-0.29305872 -0.73207062 1.6523052 234 88 12
0.41895813 0.44247878 1.7128199 234 88 12
0.43048534 0.44558999 1.7233346 234 88 12
0.41959858 0.46377677 1.7156873 234 88 12
0.42294186 0.43906102 1.7112281 234 88 12
0.42035267 0.4507696 1.7102004 234 88 12
0.4204891 0.46508983 1.7118798 234 88 12
0.41875494 0.47649467 1.7115792 234 88 12
0.43927953 0.4755441 1.7297206 234 88 12
0.4213343 0.47360972 1.7087935 234 88 12
0.42542225 0.4791694 1.7130609 234 88 12
0.4199484 0.48490033 1.7087899 234 88 12
0.43000981 0.44333252 1.7084655 234 88 12
0.42767599 0.4513526 1.7072471 234 88 12
0.42328361 0.48530856 1.7070343 234 88 12
0.44521421 0.43600225 1.7166266 234 88 12
0.43460432 0.44687834 1.7082102 234 88 12
0.45574674 0.44280764 1.7269361 234 88 12
0.4359009 0.45356247 1.7101284 234 88 12
0.45795569 0.43308625 1.7231666 234 88 12
0.43420985 0.46656519 1.7052234 234 88 12
0.45248947 0.43655506 1.7137966 234 88 12
0.52598286 0.41384986 1.7788141 234 88 12
0.46283951 0.44337082 1.7240798 234 88 12
0.43655238 0.45658535 1.7013977 234 88 12
0.44453311 0.46428993 1.7096025 234 88 12
0.43660453 0.47805786 1.7038621 234 88 12
0.45009449 0.43540221 1.7066417 234 88 12
0.4500452 0.44966212 1.7082118 234 88 12
0.46307236 0.44836268 1.7201238 234 88 12
0.44776994 0.43059531 1.6990614 234 88 12
0.45741478 0.45561859 1.7109052 234 88 12
0.44883999 0.42817146 1.6948605 234 88 12
0.44814727 0.43202275 1.6946528 234 88 12
0.44856301 0.46421501 1.6987405 234 88 12
0.44295779 0.46997175 1.6941419 234 88 12
0.45172086 0.43235224 1.6931007 234 88 12
0.45148101 0.43965197 1.6937183 234 88 12
0.45054799 0.45079041 1.6941248 234 88 12
0.44875622 0.46583509 1.6941718 234 88 12
0.44600594 0.47768092 1.6929432 234 88 12
0.46261713 0.42654637 1.6978031 234 88 12
0.57575798 0.40896073 1.8033867 234 88 12
0.45152342 0.47721437 1.6931494 234 88 12
0.47752228 0.4405188 1.7087532 234 88 12
0.46248674 0.45320943 1.6958393 234 88 12
0.47923315 0.45036563 1.7115463 234 88 12
0.46884722 0.46492171 1.7033048 234 88 12
0.46241745 0.42973617 1.6880128 234 88 12
0.46294701 0.45112011 1.6910479 234 88 12
0.46608922 0.43723577 1.6874169 234 88 12
0.82939732 0.31626058 2.0258491 234 88 12
0.46408868 0.4631083 1.6885494 234 88 12
0.659132 0.38945705 1.8692032 234 88 12
0.48065528 0.4512634 1.6982712 234 88 12
0.47812191 0.42895007 1.6880844 234 88 12
0.51594609 0.43590674 1.7261648 234 88 12
0.49404722 0.42486066 1.6982924 234 88 12
0.48045161 0.44401211 1.6871371 234 88 12
0.47655591 0.44905645 1.6838868 234 88 12
0.4790501 0.43901122 1.6800241 234 88 12
0.49521536 0.44361061 1.696725 234 88 12
0.50534469 0.43092519 1.7003005 234 88 12
-1.1573879 -1.1835821 0.72367853 234 88 12
-1.1472056 -1.1864089 0.72325379 234 88 12
-1.1411341 -1.2077082 0.72640824 234 88 12
-1.1550177 -1.2028323 0.72304493 234 88 12
-1.1444722 -1.1908935 0.71996224 234 88 12
-1.1343019 -1.1948227 0.71972543 234 88 12
-1.1558505 -1.214309 0.72142112 234 88 12
-1.1424483 -1.1996577 0.71370333 234 88 12
-1.1406275 -1.2398967 0.72093725 234 88 12
-1.1597279 -1.1879568 0.70935881 234 88 12
-1.1564995 -1.1956396 0.71048629 234 88 12
-1.1438394 -1.223078 0.71440309 234 88 12
-1.1616006 -1.1974019 0.69984877 234 88 12
-1.1586499 -1.2171971 0.70346588 234 88 12
-1.1558031 -1.2149428 0.69893754 234 88 12
-1.1626573 -1.1936052 0.69149047 234 88 12
-1.1638049 -1.194443 0.68403894 234 88 12
-1.1604129 -1.195264 0.68384063 234 88 12
-1.1651965 -1.2104542 0.67992008 234 88 12
-1.1664789 -1.2573383 0.68666095 234 88 12
-1.1623371 -1.207456 0.67507392 234 88 12
-1.1662683 -1.206847 0.6715219 234 88 12
-1.163208 -1.2246355 0.67518854 234 88 12
-1.1600722 -1.2340616 0.67695415 234 88 12
-1.1564308 -1.2206647 0.67349613 234 88 12
-1.1646661 -1.2764117 0.68344122 234 88 12
-1.1601346 -1.210551 0.66776347 234 88 12
-0.1039885 -1.4020509 1.0839798 234 88 12
-0.096223086 -1.4016044 1.084138 234 88 12
-0.078820497 -1.4331911 1.093384 234 88 12
-0.1028343 -1.4149764 1.0837762 234 88 12
-0.084496923 -1.4390812 1.0911158 234 88 12
-0.095814086 -1.4232901 1.0825819 234 88 12
-0.091494933 -1.4059535 1.0778788 234 88 12
-0.07903222 -1.4167962 1.0813823 234 88 12
-0.11045553 -1.4093773 1.0743101 234 88 12
-0.095690154 -1.4158779 1.0767133 234 88 12
-0.082809858 -1.4090308 1.0752501 234 88 12
-0.068899386 -1.4043405 1.074439 234 88 12
-0.079463288 -1.436682 1.0795189 234 88 12
-0.050904803 -1.4311881 1.0790229 234 88 12
-0.11734761 -1.4230486 1.0703405 234 88 12
-0.11727386 -1.4145743 1.067868 234 88 12
-0.10876332 -1.4157841 1.0685499 234 88 12
-0.081935108 -1.4411504 1.0769945 234 88 12
-0.071594335 -1.4563197 1.0818245 234 88 12
-0.053999551 -1.434297 1.0760708 234 88 12
-0.078516938 -1.4590443 1.0786923 234 88 12
-0.079868808 -1.4104072 1.0642433 234 88 12
-0.067488335 -1.4213189 1.0679572 234 88 12
-0.068443142 -1.4092426 1.0643454 234 88 12
-0.054300126 -1.4250072 1.0695646 234 88 12
-0.12341489 -1.4211997 1.0618888 234 88 12
-0.10904764 -1.4265486 1.0640621 234 88 12
-0.095985427 -1.4203823 1.0627304 234 88 12
-0.090864986 -1.4138876 1.0609856 234 88 12
-0.082398109 -1.4151243 1.0616919 234 88 12
-0.066522703 -1.4152575 1.0623608 234 88 12
-0.11909447 -1.4317627 1.0614104 234 88 12
-0.10954928 -1.4353706 1.0628897 234 88 12
-0.094265118 -1.4780186 1.0728234 234 88 12
-0.099513099 -1.4584776 1.0665962 234 88 12
0.095805265 -1.8242072 1.1870929 234 88 12
0.079363696 -1.8476707 1.191546 234 88 12
0.087951817 -1.8617433 1.1962862 234 88 12
-0.029877776 -1.5967166 1.1088228 234 88 12
-0.068239562 -1.4340061 1.0565249 234 88 12
-0.10139325 -1.4312466 1.0504447 234 88 12
-0.1014832 -1.422156 1.0475712 234 88 12
-0.097084746 -1.4230927 1.0480504 234 88 12
-0.082490161 -1.4200418 1.047696 234 88 12
-0.070959322 -1.4380872 1.0538733 234 88 12
-0.089872763 -1.433099 1.0437824 234 88 12
-0.08833389 -1.430132 1.0350775 234 88 12
-0.08031977 -1.4395372 1.0385484 234 88 12
-0.077407211 -1.4278114 1.0347866 234 88 12
-0.083358735 -1.4518287 1.0386547 234 88 12
-0.066970117 -1.4805799 1.0490347 234 88 12
-0.079442754 -1.4336518 1.0327255 234 88 12
-0.05556237 -1.5080184 1.0551435 234 88 12
-0.047013611 -1.5193837 1.0593894 234 88 12
-0.069625877 -1.4579486 1.037498 234 88 12
0.64100385 -0.67922211 1.5428956 234 88 12
0.67868543 -0.71097106 1.5655352 234 88 12
0.61946827 -0.6689316 1.5286632 234 88 12
0.63361722 -0.66161674 1.5308614 234 88 12
0.62147266 -0.67617804 1.5278498 234 88 12
0.62870336 -0.66214538 1.5255409 234 88 12
0.63130361 -0.65938562 1.5254751 234 88 12
0.65525955 -0.67787004 1.5395501 234 88 12
0.61695385 -0.67724055 1.5228137 234 88 12
0.6316216 -0.68593478 1.5306211 234 88 12
0.61472744 -0.68567604 1.5210118 234 88 12
0.64185894 -0.70082539 1.5352604 234 88 12
0.63351882 -0.68785954 1.5280544 234 88 12
0.61224437 -0.69384062 1.5190443 234 88 12
0.63160563 -0.6809867 1.5211813 234 88 12
0.6455971 -0.65768152 1.5179176 234 88 12
0.62377012 -0.69439119 1.5192305 234 88 12
0.6444084 -0.69843823 1.5276686 234 88 12
0.64632732 -0.65842718 1.5144804 234 88 12
0.89890939 -0.95545363 1.7010231 234 88 12
0.6224764 -0.68820441 1.5127047 234 88 12
0.6246261 -0.68502796 1.5123357 234 88 12
0.63298601 -0.67728949 1.5125108 234 88 12
0.65029526 -0.68362522 1.5206743 234 88 12
0.64321345 -0.66607618 1.5121156 234 88 12
0.64459866 -0.66209263 1.5112021 234 88 12
0.65042472 -0.65717435 1.5114897 234 88 12
0.64608419 -0.71538538 1.5264903 234 88 12
0.64716715 -0.71139866 1.5254631 234 88 12
0.63184059 -0.68677324 1.511482 234 88 12
0.64921641 -0.69302279 1.5197077 234 88 12
0.64507383 -0.6732949 1.5113291 234 88 12
0.65832901 -0.65438092 1.5092709 234 88 12
0.75950015 -0.82463634 1.6010908 234 88 12
0.82685953 -0.88283324 1.6453038 234 88 12
0.64061749 -0.70035112 1.5154035 234 88 12
0.68214995 -0.68946654 1.5222352 234 88 12
0.65434849 -0.69825727 1.5116628 234 88 12
0.68211269 -0.70491105 1.5239401 234 88 12
0.85629988 -0.87063622 1.6457075 234 88 12
0.69138569 -0.72910976 1.5322415 234 88 12
0.64691114 -0.68065727 1.4986557 234 88 12
0.92807156 -0.95262861 1.6984833 234 88 12
0.94017678 -0.96153516 1.7060667 234 88 12
0.78844458 -0.80639184 1.5951809 234 88 12
0.6356861 -0.70147085 1.4981998 234 88 12
0.63487679 -0.69552761 1.4957261 234 88 12
0.66740459 -0.69036287 1.5055964 234 88 12
0.64453065 -0.68910426 1.4928222 234 88 12
0.66074312 -0.68377894 1.4967649 234 88 12
0.66131526 -0.68969333 1.4951526 234 88 12
0.83609515 -0.85813522 1.6222838 234 88 12
0.83427107 -0.87951726 1.623746 234 88 12
0.66255474 -0.71190429 1.4959514 234 88 12
0.69628835 -0.74419826 1.5170146 234 88 12
0.66006023 -0.69394034 1.4841319 234 88 12
0.6590519 -0.70358038 1.4833702 234 88 12
1.2818739 0.031397574 1.2348838 234 88 12
1.2824439 0.019761344 1.2318895 234 88 12
1.3064134 0.017584432 1.2399873 234 88 12
1.2784671 0.033412032 1.2298164 234 88 12
1.3166353 0.0022687926 1.2405436 234 88 12
1.2908757 0.040584013 1.2297422 234 88 12
1.2822056 0.0049860282 1.2249612 234 88 12
1.3246547 -0.00052343734 1.2397288 234 88 12
1.3370051 -0.0051061222 1.2405576 234 88 12
1.2936478 0.016703168 1.2243817 234 88 12
1.3008337 -0.0014543887 1.2240933 234 88 12
1.2848427 0.0089183562 1.2179257 234 88 12
1.3014622 0.013979888 1.2234254 234 88 12
1.2861875 0.02434588 1.2175077 234 88 12
1.3264899 0.011207227 1.2323049 234 88 12
1.287604 0.031754486 1.2175754 234 88 12
1.2902739 0.038610339 1.2181118 234 88 12
1.3195199 0.029669479 1.2288154 234 88 12
1.7141137 -0.16627105 1.375481 234 88 12
1.3029907 0.0020927961 1.2208346 234 88 12
1.3310978 -0.0016664696 1.2309569 234 88 12
1.2982681 0.019801714 1.2181414 234 88 12
1.3173143 0.023427272 1.2246418 234 88 12
1.2928457 0.042075232 1.2149365 234 88 12
1.7313025 -0.17288548 1.3799063 234 88 12
1.2951046 0.0057898448 1.2139841 234 88 12
1.7110732 -0.15396179 1.3715863 234 88 12
1.3087988 0.031639103 1.2173444 234 88 12
1.2927564 -0.00020555619 1.2057229 234 88 12
1.3126404 0.0075160344 1.2125022 234 88 12
1.3061656 0.022057634 1.20927 234 88 12
1.3273995 0.024597658 1.2168523 234 88 12
1.2917949 0.00067470549 1.2014006 234 88 12
1.2995332 0.021460649 1.2029879 234 88 12
1.3602121 0.0031934769 1.2264444 234 88 12
1.4304299 -0.023769995 1.253942 234 88 12
1.5514847 -0.07380072 1.301563 234 88 12
1.2958122 -0.00042508924 1.1990271 234 88 12
1.3358372 0.0027568012 1.2137332 234 88 12
1.6700728 -0.13534351 1.3466512 234 88 12
1.6885135 -0.14088131 1.3538569 234 88 12
1.4549675 -0.037345815 1.2605487 234 88 12
1.3897132 -0.005440128 1.2342949 234 88 12
1.3046019 0.016428631 1.1973512 234 88 12
1.3201709 0.01827695 1.1992269 234 88 12
1.3029443 0.0022190053 1.1897349 234 88 12
1.3018948 0.0066413186 1.1890509 234 88 12
1.3026261 0.014347902 1.1888435 234 88 12
1.3735673 -0.025869729 1.2150146 234 88 12
1.346469 -0.010583318 1.1997104 234 88 12
1.3311968 0.011282938 1.1922965 234 88 12
1.3321248 -0.0041907029 1.1897877 234 88 12
-1.2288855 1.1787469 0.40500239 234 88 12
-1.2311867 1.1757224 0.40501204 234 88 12
-1.233469 1.1726892 0.40501204 234 88 12
-1.2347345 1.1776183 0.40273997 234 88 12
-1.2422884 1.1606582 0.40075603 234 88 12
-1.2503201 1.1521288 0.40137112 234 88 12
-1.254796 1.1460171 0.40132445 234 88 12
-1.2638077 1.1631534 0.40557796 234 88 12
-1.260705 1.1450621 0.39914784 234 88 12
-1.2793608 1.1296377 0.40186024 234 88 12
-1.2836691 1.1192399 0.40050805 234 88 12
-1.2472669 1.1635571 0.39516827 234 88 12
-1.2627461 1.1504984 0.3973642 234 88 12
-1.2874563 1.138406 0.40342766 234 88 12
-1.2902191 1.1102144 0.39626256 234 88 12
-1.2393044 1.1764599 0.39167866 234 88 12
-1.25001 1.1610037 0.39131662 234 88 12
-1.2694089 1.1373975 0.3919588 234 88 12
-1.2716839 1.1343739 0.3919588 234 88 12
-1.2756175 1.1279924 0.39161852 234 88 12
-1.2812603 1.1182513 0.39095736 234 88 12
-1.3007073 1.1206681 0.39929509 234 88 12
-1.2887291 1.1095214 0.39131042 234 88 12
-1.2910073 1.1064934 0.39131042 234 88 12
-1.2498906 1.1735088 0.39081153 234 88 12
-1.2616273 1.1586844 0.39104226 234 88 12
-1.2899828 1.1233014 0.3917284 234 88 12
-1.2848989 1.158309 0.39607057 234 88 12
-1.2768433 1.1459069 0.38912466 234 88 12
-1.3026699 1.1092696 0.38842997 234 88 12
-1.3049263 1.1062707 0.38842997 234 88 12
-1.2869402 1.1636306 0.39442721 234 88 12
-1.2962953 1.1439314 0.39222309 234 88 12
-1.3212043 1.1244824 0.39636648 234 88 12
-1.3534052 1.2157223 0.43335569 234 88 12
-1.2523971 1.1631516 0.37615454 234 88 12
-1.261597 1.163506 0.38000694 234 88 12
-1.2594589 1.1583216 0.37754947 234 88 12
-1.2610291 1.1507701 0.37587631 234 88 12
-1.2633123 1.1477354 0.37587631 234 88 12
-1.2792146 1.1517175 0.38356692 234 88 12
-1.2786812 1.1346813 0.37813365 234 88 12
-1.279258 1.1264724 0.37585494 234 88 12
-1.2838248 1.1204027 0.37585494 234 88 12
-1.2906107 1.1155949 0.37714437 234 88 12
-1.3003769 1.1038789 0.37753147 234 88 12
-1.3026519 1.1008551 0.37753147 234 88 12
-1.2761694 1.1503658 0.37775683 234 88 12
-1.2623478 1.1684651 0.37350467 234 88 12
-1.2835888 1.174745 0.38426587 234 88 12
-1.2645965 1.1490657 0.36416176 234 88 12
-1.2938623 1.130792 0.37065092 234 88 12
-1.3041496 1.1065551 0.36732697 234 88 12
-1.2579939 1.1709691 0.36409304 234 88 12
-1.2574468 1.162449 0.36115718 234 88 12
-1.2708786 1.1483005 0.36233306 234 88 12
-1.2746753 1.1376035 0.36053902 234 88 12
-1.2792503 1.131523 0.36053902 234 88 12
-1.2931314 1.1220219 0.36337993 234 88 12
-1.2906877 1.1163216 0.36053902 234 88 12
-1.3015057 1.1051449 0.36155546 234 88 12
-1.3042039 1.1023587 0.36180943 234 88 12
-1.3143777 1.0908788 0.36245775 234 88 12
-1.2704517 1.1649408 0.36325553 234 88 12
-1.276335 1.163748 0.36537823 234 88 12
-1.3035461 1.1195058 0.36279127 234 88 12
-1.2945287 1.1730416 0.37202424 234 88 12
-1.2797228 1.1491103 0.35793048 234 88 12
-1.321227 1.1041253 0.36121982 234 88 12
-1.3177804 1.0887899 0.35478339 234 88 12
-1.3101903 1.1810647 0.37733924 234 88 12
-1.2714233 1.149244 0.35016546 234 88 12
-1.2737085 1.1462067 0.35016546 234 88 12
-1.2779505 1.1399587 0.34996662 234 88 12
-1.2825227 1.1338819 0.34996662 234 88 12
-1.2985252 1.112613 0.34996662 234 88 12
-1.3056142 1.103635 0.35011137 234 88 12
-1.2627696 1.1660266 0.34764799 234 88 12
-1.3019166 1.1771721 0.36842665 234 88 12
-1.2780336 1.1528574 0.34998918 234 88 12
-1.2903093 1.1254652 0.34634608 234 88 12
-1.3049785 1.120821 0.3512311 234 88 12
-1.3048573 1.1164348 0.3497355 234 88 12
-1.3183967 1.0982809 0.34968331 234 88 12
-1.3229376 1.0922457 0.34968331 234 88 12
-1.3369699 1.0880293 0.3460376 234 88 12
-1.3339648 1.0771273 0.34105259 234 88 12
-1.2819909 1.1429254 0.33568925 234 88 12
-1.2885224 1.1336375 0.33548445 234 88 12
-1.2908084 1.1305991 0.33548445 234 88 12
-1.3064551 1.1221633 0.33965653 234 88 12
-1.3044782 1.1123414 0.33545426 234 88 12
-1.3367888 1.096857 0.34472311 234 88 12
-1.2770171 1.1615796 0.33551273 234 88 12
-1.3016536 1.1367463 0.3382059 234 88 12
-1.3073758 1.122856 0.33606628 234 88 12
-1.3139558 1.1049383 0.33294368 234 88 12
-1.3182658 1.0942785 0.33126482 234 88 12
-1.3205546 1.0912364 0.33126482 234 88 12
-1.3338791 1.0862511 0.33559671 234 88 12
-1.3356444 1.0784079 0.3337253 234 88 12
-1.2907023 1.1352103 0.32845116 234 88 12
-1.3205448 1.113386 0.33457616 234 88 12
-1.3373686 1.0930321 0.33526513 234 88 12
-1.3788186 1.1110356 0.3563444 234 88 12
-1.2896204 1.1519912 0.32522145 234 88 12
-1.2885028 1.1429552 0.3215476 234 88 12
-1.2907865 1.13992 0.3215476 234 88 12
-1.2948436 1.1335696 0.32121304 234 88 12
-1.3196967 1.1303914 0.33163726 234 88 12
-1.3104782 1.112097 0.32097122 234 88 12
-1.3154852 1.1062802 0.32126382 234 88 12
-1.3187655 1.0994185 0.32039025 234 88 12
-1.2880316 1.1513755 0.31999546 234 88 12
-1.3061091 1.1228023 0.31839466 234 88 12
-1.3181206 1.1080016 0.31880441 234 88 12
-1.3334424 1.0908639 0.31994051 234 88 12
-1.2912297 1.1490475 0.31639323 234 88 12
-1.3320915 1.0945824 0.31633788 234 88 12
-1.3028792 1.1470134 0.31691727 234 88 12
-1.3313599 1.1162142 0.31944251 234 88 12
-1.2928716 1.1460965 0.3075234 234 88 12
-1.3049694 1.1313184 0.30799305 234 88 12
-1.3196535 1.1224341 0.31183049 234 88 12
-1.3260517 1.0999624 0.30678904 234 88 12
-1.2937106 1.1509798 0.30539063 234 88 12
-1.3043106 1.1354293 0.30485857 234 88 12
-1.3166851 1.1208664 0.30554417 234 88 12
-1.3324136 1.0995824 0.30540612 234 88 12
-1.3343884 1.1270481 0.31213582 234 88 12
-1.3682503 1.1470585 0.33194926 234 88 12
-1.3238508 1.1166651 0.29888532 234 88 12
-1.2981069 1.149696 0.29412848 234 88 12
-1.3003842 1.1466693 0.29412848 234 88 12
-1.3156786 1.1251109 0.2936697 234 88 12
-1.3171519 1.1216136 0.29309595 234 88 12
-1.3242429 1.1126634 0.29327282 234 88 12
-1.303409 1.1442425 0.29039738 234 88 12
-1.3034198 1.1486958 0.2877529 234 88 12
-1.3662149 1.1746463 0.32519075 234 88 12
-1.3413961 1.1528798 0.30428627 234 88 12
-1.3351443 1.1452168 0.29818815 234 88 12
-1.3316418 1.1218674 0.28749615 234 88 12
-1.317279 1.135337 0.28101918 234 88 12
-0.42936391 -1.7106876 0.17566413 234 88 12
-0.42532918 -1.7254899 0.1709435 234 88 12
-0.41744539 -1.7275405 0.17083801 234 88 12
-0.35770655 -1.9392662 0.15723856 234 88 12
-0.41521648 -1.7080324 0.17211883 234 88 12
-0.43098256 -1.71855 0.16763555 234 88 12
-0.40865889 -1.7470633 0.16595849 234 88 12
-0.40758428 -1.72334 0.16742028 234 88 12
-0.40317816 -1.7679212 0.16113429 234 88 12
-0.41162452 -1.7221391 0.16374843 234 88 12
-0.40816805 -1.7067187 0.16464894 234 88 12
-0.4027822 -1.7132758 0.16428779 234 88 12
-0.35056382 -1.8976258 0.15381928 234 88 12
-0.39287731 -1.7079786 0.16462481 234 88 12
-0.38893467 -1.7088113 0.1645893 234 88 12
-0.44854769 -1.7093214 0.1605967 234 88 12
-0.44475538 -1.709573 0.16059439 234 88 12
-0.44142377 -1.7082207 0.16067716 234 88 12
-0.42668653 -1.7075714 0.1607559 234 88 12
-0.38662809 -1.7917156 0.15633903 234 88 12
-0.39130998 -1.7300305 0.15965021 234 88 12
-0.38523161 -1.708814 0.1608119 234 88 12
-0.38064423 -1.7443699 0.15525232 234 88 12
-0.45216402 -1.7100114 0.15300435 234 88 12
-0.44494671 -1.7092668 0.15305726 234 88 12
-0.43308952 -1.7248305 0.15236631 234 88 12
-0.43003249 -1.7226474 0.15247527 234 88 12
-0.41807991 -1.7122134 0.15298925 234 88 12
-0.40602687 -1.7156891 0.15285893 234 88 12
-0.39173293 -1.7133087 0.15300569 234 88 12
-0.38073194 -1.7441744 0.15160349 234 88 12
-0.44597197 -1.7309519 0.14835387 234 88 12
-0.42556587 -1.7639683 0.14699671 234 88 12
-0.43063053 -1.7073414 0.1493945 234 88 12
-0.41533193 -1.7086676 0.1493739 234 88 12
-0.39826503 -1.732035 0.14841951 234 88 12
-0.39087191 -1.7323674 0.14842269 234 88 12
-0.34464309 -2.0708785 0.13169499 234 88 12
-0.32956216 -2.1139469 0.1300575 234 88 12
-0.3563624 -2.0141304 0.13386995 234 88 12
-0.34827465 -2.033221 0.13314712 234 88 12
-0.34202173 -1.9567753 0.13612406 234 88 12
-0.29095054 -2.1522763 0.12865396 234 88 12
-0.30364406 -2.1954432 0.12498463 234 88 12
-0.30515179 -2.1693647 0.12382612 234 88 12
-0.42589936 -1.7249976 0.13747966 234 88 12
-0.42450595 -1.7166388 0.13774279 234 88 12
-0.42310268 -1.7080823 0.1380121 234 88 12
-0.41930968 -1.7082911 0.1380121 234 88 12
-0.4148894 -1.7108978 0.13793838 234 88 12
-0.40324682 -1.7126818 0.13790272 234 88 12
-0.39801237 -1.7337506 0.13355479 234 88 12
-0.41390502 -1.7427976 0.12595536 234 88 12
-0.42332211 -1.7216851 0.12262006 234 88 12
-0.41898659 -1.7102247 0.12280758 234 88 12
-0.39736733 -1.7368531 0.12239983 234 88 12
-0.40684664 -1.7822378 0.11814567 234 88 12
-0.40852442 -1.7361031 0.118709 234 88 12
-0.40126851 -1.7360016 0.11871512 234 88 12
-0.29979968 -2.1593943 0.11149278 234 88 12
-0.30058631 -2.1484497 0.11158479 234 88 12
-0.34359825 -1.9736459 0.11304016 234 88 12
0.89573228 -1.3195384 0.71981883 234 88 12
0.90082318 -1.3196288 0.72017479 234 88 12
0.90029883 -1.3132811 0.71956271 234 88 12
0.9232164 -1.3284525 0.72250545 234 88 12
0.91194755 -1.3436354 0.7194832 234 88 12
0.91063964 -1.3080186 0.71605176 234 88 12
0.89313477 -1.3225749 0.71243769 234 88 12
0.90088558 -1.3256582 0.71329999 234 88 12
0.93379456 -1.3466159 0.71772224 234 88 12
0.91032535 -1.3135829 0.71281898 234 88 12
0.91318458 -1.3052647 0.71222246 234 88 12
0.91907775 -1.3004906 0.71218956 234 88 12
0.9202072 -1.3421838 0.71267122 234 88 12
0.92551672 -1.3083439 0.70969534 234 88 12
0.88955873 -1.3413458 0.70657516 234 88 12
0.93571794 -1.3654574 0.71261805 234 88 12
1.0362893 -1.4658372 0.73069811 234 88 12
0.92673767 -1.2980196 0.70499837 234 88 12
0.90847933 -1.3458287 0.70483178 234 88 12
0.9763425 -1.406615 0.71665329 234 88 12
0.91048521 -1.319894 0.70225012 234 88 12
0.94000942 -1.3486364 0.70763588 234 88 12
1.1245376 -1.5983638 0.74627721 234 88 12
0.88718677 -1.3334975 0.69807577 234 88 12
0.90244395 -1.3392284 0.69994646 234 88 12
0.89482731 -1.3250463 0.69778204 234 88 12
0.90120727 -1.3265613 0.69846851 234 88 12
0.90718049 -1.316175 0.69782805 234 88 12
0.9151479 -1.3138558 0.69822752 234 88 12
0.92398304 -1.3184834 0.69945312 234 88 12
0.94687343 -1.3343539 0.70305026 234 88 12
1.2049817 -1.6833683 0.76010042 234 88 12
1.1558607 -1.6259176 0.74955428 234 88 12
1.0584866 -1.4736776 0.72436404 234 88 12
1.093173 -1.5565182 0.73389667 234 88 12
1.1335416 -1.5713738 0.73908544 234 88 12
1.1694841 -1.6101521 0.74663663 234 88 12
0.92533243 -1.3144423 0.69163746 234 88 12
0.92382556 -1.3358386 0.69026685 234 88 12
1.2184428 -1.6683316 0.75551754 234 88 12
0.90281057 -1.334597 0.6845035 234 88 12
0.90166712 -1.327625 0.68355751 234 88 12
0.91356915 -1.318264 0.68350852 234 88 12
0.9308641 -1.3329941 0.67944074 234 88 12
0.93840909 -1.3696644 0.68121994 234 88 12
0.90968049 -1.3372493 0.67043412 234 88 12
0.94680768 -1.3739415 0.67902756 234 88 12
0.91009283 -1.326291 0.66901827 234 88 12
0.92592114 -1.3388467 0.67227131 234 88 12
0.96691185 -1.3917656 0.67993271 234 88 12
1.1076282 -1.5495657 0.71580207 234 88 12
1.2983487 0.94776154 0.81243253 234 88 12
1.3480804 0.93926972 0.81743175 234 88 12
1.3273318 0.94353038 0.8138175 234 88 12
1.3028907 0.94809616 0.8095277 234 88 12
1.2928231 0.95206672 0.80790967 234 88 12
1.2934999 0.95550257 0.80828243 234 88 12
1.3182718 0.96426398 0.81358474 234 88 12
1.3075645 0.93805641 0.80591744 234 88 12
1.2887713 0.96674836 0.80438548 234 88 12
1.3069026 0.92869914 0.79749364 234 88 12
1.3272986 0.93493122 0.80203551 234 88 12
1.299963 0.94294494 0.7971819 234 88 12
1.2932334 0.95373762 0.79665184 234 88 12
1.3169202 0.92892271 0.7957226 234 88 12
1.3351108 0.93176758 0.79963875 234 88 12
1.3156055 0.93935913 0.7962563 234 88 12
1.3511924 0.94123608 0.80363452 234 88 12
1.3269917 0.94570667 0.79905808 234 88 12
1.3126589 0.95325792 0.79672402 234 88 12
1.3474293 0.92849076 0.79820311 234 88 12
1.3610591 0.93470842 0.80150908 234 88 12
1.3177645 0.93981212 0.79294932 234 88 12
1.3385197 0.93269908 0.79296279 234 88 12
1.3429762 0.94602084 0.7949602 234 88 12
1.3116322 0.92366964 0.78273642 234 88 12
1.3145481 0.92709976 0.78363854 234 88 12
1.3106402 0.94120091 0.78394181 234 88 12
1.3472744 0.94353515 0.78827888 234 88 12
1.3672235 0.94589806 0.79282004 234 88 12
1.5442665 0.93983823 0.83089811 234 88 12
1.6062859 0.93905962 0.84434772 234 88 12
1.3000181 0.95968372 0.77931046 234 88 12
1.3199894 0.92100215 0.77663815 234 88 12
1.8020483 0.92094308 0.88344443 234 88 12
1.564351 0.93392444 0.83186299 234 88 12
1.7942713 0.9250716 0.88206661 234 88 12
1.3144618 0.9525162 0.77804953 234 88 12
1.3183286 0.92508042 0.77275789 234 88 12
1.8042389 0.92114335 0.88188064 234 88 12
1.7281132 0.92871916 0.86537665 234 88 12
1.3178159 0.95633203 0.7753002 234 88 12
1.3213067 0.92202103 0.76931089 234 88 12
1.3196377 0.92557466 0.76923591 234 88 12
1.3135725 0.93278295 0.76847029 234 88 12
1.3154964 0.93970674 0.76950932 234 88 12
1.3648957 0.94430143 0.7812171 234 88 12
1.3087615 0.9539479 0.7691983 234 88 12
1.31915 0.94010252 0.76652861 234 88 12
1.3311017 0.94303799 0.76956731 234 88 12
1.3204949 0.95387042 0.76805097 234 88 12
1.421737 0.94258595 0.78713894 234 88 12
1.5674448 0.93811542 0.82118475 234 88 12
1.3948629 0.92545283 0.77202308 234 88 12
1.3214291 0.9311673 0.75464076 234 88 12
1.3415374 0.93736148 0.76011491 234 88 12
1.7095641 0.9292317 0.84911788 234 88 12
1.3693149 0.93008655 0.76249737 234 88 12
1.3260474 0.93852526 0.75257206 234 88 12
1.467266 0.93881011 0.78756815 234 88 12
-1.1178119 1.3594109 0.34940821 234 88 12
-1.1384509 1.3559908 0.34977236 234 88 12
-1.1215054 1.3593726 0.34571448 234 88 12
-1.1352171 1.3588659 0.34608573 234 88 12
-1.1320802 1.3577918 0.34213474 234 88 12
-1.0665733 1.3864363 0.33828381 234 88 12
-1.0804405 1.3810054 0.33834213 234 88 12
-1.1046526 1.367135 0.33812553 234 88 12
-1.1217755 1.3748982 0.33924749 234 88 12
-1.0633121 1.3875921 0.33446059 234 88 12
-1.0668113 1.3869659 0.33453259 234 88 12
-1.073818 1.3865808 0.33474287 234 88 12
-1.080654 1.3805048 0.33451453 234 88 12
-1.0945345 1.3769801 0.33472106 234 88 12
-1.1014222 1.3692253 0.33436683 234 88 12
-1.1083525 1.3701636 0.33467513 234 88 12
-1.1151882 1.3763678 0.33538061 234 88 12
-1.1221886 1.3631465 0.33461457 234 88 12
-1.1282814 1.3998013 0.33761021 234 88 12
-1.135601 1.3725934 0.3357915 234 88 12
-1.1383919 1.3916596 0.33733678 234 88 12
-1.0845203 1.3876324 0.33141693 234 88 12
-1.1171052 1.5261216 0.34359565 234 88 12
-1.1233102 1.6484293 0.35354424 234 88 12
-1.1318443 1.3988123 0.33399811 234 88 12
-1.1343271 1.4286293 0.33645815 234 88 12
-1.1387571 1.3877023 0.33336174 234 88 12
-1.0644022 1.4041308 0.32825953 234 88 12
-1.0678172 1.4025955 0.32825953 234 88 12
-1.1183786 1.651116 0.35077739 234 88 12
-1.1265308 1.5050918 0.33895954 234 88 12
-1.131314 1.4305788 0.33295241 234 88 12
-1.1345496 1.4291241 0.33295241 234 88 12
-1.0654813 1.4260589 0.32644382 234 88 12
-1.0690076 1.4295481 0.32688281 234 88 12
-1.0857015 1.4243494 0.32708237 234 88 12
-1.1086648 1.5287491 0.33700666 234 88 12
-1.1119241 1.4746975 0.33245763 234 88 12
-1.1209344 1.4945146 0.33452237 234 88 12
-1.1237317 1.5069029 0.33570281 234 88 12
-1.1272757 1.6048088 0.3443101 234 88 12
-1.1374482 1.4463718 0.331 234 88 12
-1.0842071 1.7097174 0.34905064 234 88 12
-1.0795997 1.4398761 0.32457808 234 88 12
-1.0816883 1.3862004 0.3198317 234 88 12
-1.0955019 1.3808223 0.31990659 234 88 12
-1.1088682 1.5292014 0.33380181 234 88 12
-1.1118523 1.5234321 0.33340332 234 88 12
-1.1202079 1.5558211 0.33665648 234 88 12
-1.1226687 1.5759311 0.33856598 234 88 12
-1.1279111 1.5870233 0.33977643 234 88 12
-1.1295192 1.6266603 0.34340891 234 88 12
-1.0750623 1.3911746 0.31621933 234 88 12
-1.0800494 1.4490077 0.32183644 234 88 12
-1.0824445 1.4096035 0.31825277 234 88 12
-1.0878407 1.5118917 0.3280437 234 88 12
-1.1129842 1.3733002 0.3161422 234 88 12
-1.1146991 1.7859789 0.35480028 234 88 12
-1.1209388 1.5220298 0.330383 234 88 12
-1.1240537 1.6481051 0.34230217 234 88 12
-1.1235508 1.7695488 0.35363615 234 88 12
-1.1263176 1.7474582 0.35168698 234 88 12
-1.0873086 1.6162093 0.33478659 234 88 12
-1.0899218 1.4376756 0.31758186 234 88 12
-1.0945289 1.5401212 0.32772055 234 88 12
-1.096348 1.4207829 0.31622347 234 88 12
-1.0996177 1.410684 0.31538641 234 88 12
-1.1149106 1.5567899 0.33022639 234 88 12
-1.1149671 1.7767487 0.35156599 234 88 12
-1.1194925 1.6266842 0.33720633 234 88 12
-1.1188215 1.7998276 0.35397285 234 88 12
-1.1304592 1.3665395 0.31244928 234 88 12
-1.1251973 1.792805 0.35356972 234 88 12
-1.1285485 1.7519935 0.34975693 234 88 12
-1.0859046 1.3890164 0.3088952 234 88 12
-1.0972358 1.8872346 0.35948467 234 88 12
-1.0953054 1.5862625 0.32914582 234 88 12
-1.1100262 1.3708813 0.30816245 234 88 12
-1.123754 1.3730346 0.30899924 234 88 12
-1.1168476 1.9104486 0.36270425 234 88 12
-1.1308268 1.36122 0.30813134 234 88 12
-1.1375208 1.3664802 0.30896255 234 88 12
-1.1380434 1.4571306 0.31809771 234 88 12
-1.0970893 1.8699914 0.35565603 234 88 12
-1.0930732 1.390278 0.30556598 234 88 12
-1.0967273 1.4132642 0.30812803 234 88 12
-1.106799 1.3729695 0.30440742 234 88 12
-1.1102645 1.3714114 0.30440742 234 88 12
-1.1205513 1.3751068 0.30527291 234 88 12
-1.1237411 1.3888682 0.30685365 234 88 12
-1.1377745 1.3664136 0.30517411 234 88 12
-1.100109 1.3771331 0.30070814 234 88 12
-1.1070135 1.4079547 0.30435655 234 88 12
-1.0989823 1.6206176 0.32386965 234 88 12
-1.1010493 1.5056716 0.31120679 234 88 12
-1.1071014 1.5654458 0.31814757 234 88 12
-1.1171646 1.4180257 0.30227739 234 88 12
-1.1272575 1.4055188 0.30139232 234 88 12
-1.1030451 1.8451781 0.3468383 234 88 12
-1.1043139 1.5047655 0.30789718 234 88 12
-1.1074073 1.468833 0.30393919 234 88 12
-1.1109701 1.3751498 0.29338795 234 88 12
-1.1248304 1.3674486 0.29321954 234 88 12
-1.135213 1.3630652 0.29325217 234 88 12
-1.1051185 1.8275112 0.34268486 234 88 12
-1.1070638 1.8850161 0.34958035 234 88 12
-1.1111488 1.3887219 0.29117778 234 88 12
-1.1215421 1.3740205 0.28999323 234 88 12
-1.0976686 1.3896136 0.28676999 234 88 12
-1.1053016 1.8547945 0.34377536 234 88 12
-1.1072618 1.8397063 0.34204713 234 88 12
-1.114475 1.7232558 0.32827577 234 88 12
-1.1279531 1.4066933 0.29050401 234 88 12
-1.1105747 1.5994503 0.30996284 234 88 12
-1.114922 1.4021962 0.28551444 234 88 12
-1.1131985 1.8505296 0.34154159 234 88 12
-1.1193591 1.5584661 0.30532667 234 88 12
-1.1259165 1.5162256 0.30040789 234 88 12
-1.111634 1.4325365 0.28549555 234 88 12
-1.1206657 1.4835093 0.29257971 234 88 12
-1.1214491 1.6121013 0.30917805 234 88 12
-1.1279361 1.4303645 0.2861594 234 88 12
-1.1325524 1.3729702 0.27903849 234 88 12
-1.1360618 1.3689816 0.27872816 234 88 12
-1.108665 1.3952808 0.27675492 234 88 12
-1.1153531 1.690854 0.31624812 234 88 12
-1.1157833 1.8250457 0.3340233 234 88 12
-1.1235566 1.5062873 0.29232332 234 88 12
-1.1268573 1.4922254 0.29065964 234 88 12
-1.1389848 1.3929318 0.27824727 234 88 12
-1.1054811 1.3833714 0.27116543 234 88 12
-1.118539 1.4398438 0.27963287 234 88 12
-1.1156003 1.8465794 0.33469605 234 88 12
-1.1208522 1.6657141 0.31045172 234 88 12
-1.1249239 1.5925767 0.30076686 234 88 12
-1.1245062 1.7202408 0.31808063 234 88 12
-1.1301754 1.5993723 0.30201051 234 88 12
-1.115573 1.8573861 0.33403331 234 88 12
-1.1214821 1.7603446 0.32087862 234 88 12
-1.1319742 1.426421 0.27499613 234 88 12
-1.1353017 1.4231913 0.27475449 234 88 12
-1.1399192 1.3788235 0.26886016 234 88 12
-1.1094164 1.380142 0.2632935 234 88 12
-1.1184119 1.4869568 0.27913868 234 88 12
-1.1228856 1.7036537 0.31039882 234 88 12
-1.131659 1.4484892 0.27449173 234 88 12
-1.136883 1.3756251 0.26441294 234 88 12
-1.1404966 1.3684186 0.2636151 234 88 12
-1.1128958 1.4139354 0.26462954 234 88 12
-1.1184227 1.5034261 0.27810326 234 88 12
-1.1233912 1.3812888 0.26053828 234 88 12
-1.1219774 1.6350883 0.29762498 234 88 12
-1.1260473 1.5687842 0.28817993 234 88 12
-1.1064308 1.3847523 0.25609213 234 88 12
-1.1160682 1.4548671 0.26726368 234 88 12
-1.1194772 1.6400236 0.29527804 234 88 12
-1.1100845 1.3945805 0.25401336 234 88 12
-1.1223512 1.4751576 0.26723963 234 88 12
-1.1034458 1.3853478 0.24828817 234 88 12
-1.1069052 1.387024 0.24879618 234 88 12
-1.1130942 1.4859929 0.26479191 234 88 12
-1.116856 1.4219002 0.25498211 234 88 12
-1.1207141 1.380453 0.24873917 234 88 12
-1.1225673 1.4756384 0.26383364 234 88 12
-1.1329508 1.4347209 0.25813514 234 88 12
-1.138026 1.3709359 0.24846661 234 88 12
-1.1447641 1.3728397 0.24924213 234 88 12
-1.1036921 1.3893272 0.24509299 234 88 12
-1.1105945 1.3857365 0.24501462 234 88 12
-1.1135778 1.4491835 0.25543144 234 88 12
-1.116264 1.5013083 0.26400638 234 88 12
-1.1151423 1.8086636 0.31334269 234 88 12
-1.1269624 1.4227219 0.25214443 234 88 12
-1.1039556 1.4017832 0.24331711 234 88 12
-1.1105182 1.4604084 0.25343806 234 88 12
-1.1138009 1.4496795 0.25191715 234 88 12
-1.121646 1.5562934 0.27002057 234 88 12
-1.1271641 1.4245057 0.24876697 234 88 12
-1.1006992 1.3886516 0.23706359 234 88 12
-1.1109735 1.4082943 0.24113846 234 88 12
-1.1160302 1.5627187 0.26745632 234 88 12
-1.1213467 1.3876957 0.23846215 234 88 12
-1.1244894 1.4030759 0.24128261 234 88 12
-1.1272264 1.4331099 0.24653359 234 88 12
-1.1352112 1.3767097 0.23766394 234 88 12
-1.1421648 1.3719418 0.23738822 234 88 12
-1.107833 1.403769 0.23634803 234 88 12
-1.1143861 1.4330186 0.24187103 234 88 12
-1.113886 1.7745979 0.30042848 234 88 12
-1.1214045 1.4007206 0.23687181 234 88 12
-1.1222761 1.5438348 0.26148945 234 88 12
-1.108086 1.3930322 0.23068975 234 88 12
-1.1187235 1.6023654 0.26819003 234 88 12
-1.1222184 1.6960883 0.28487986 234 88 12
-1.1321788 1.3817101 0.2306039 234 88 12
-1.134747 1.4123381 0.23617032 234 88 12
-1.11499 1.4160118 0.23151143 234 88 12
-1.1176035 1.6917306 0.28100353 234 88 12
-1.124633 1.4355689 0.235782 234 88 12
-1.1251222 1.5665992 0.25924173 234 88 12
-1.1315148 1.4194075 0.23344634 234 88 12
-1.1154453 1.3903039 0.22311001 234 88 12
-1.117811 1.4803355 0.23972073 234 88 12
-1.120279 1.5244358 0.24796452 234 88 12
-1.123968 1.4852 0.24111252 234 88 12
-1.1431055 1.3743347 0.22246575 234 88 12
-1.1053545 1.3950381 0.2192992 234 88 12
-1.1189789 1.7691836 0.29001182 234 88 12
-1.1192936 1.8564658 0.30626851 234 88 12
-1.1329612 1.3803564 0.21887712 234 88 12
-1.4516734 1.1135266 0.18440881 234 88 12
-1.4681809 1.1100012 0.17547736 234 88 12
-1.4677062 1.1031542 0.17760395 234 88 12
-1.4710625 1.099736 0.17651491 234 88 12
-1.4549214 1.1167021 0.17749125 234 88 12
-1.4858981 1.113047 0.16005516 234 88 12
-1.4686835 1.0891168 0.17668292 234 88 12
-1.4732906 1.0822607 0.17577665 234 88 12
-1.4765842 1.0753847 0.17565645 234 88 12
-1.4597411 1.1161695 0.16658378 234 88 12
-1.4668171 1.1058776 0.16514826 234 88 12
-1.4732578 1.1024741 0.1622698 234 88 12
-1.470147 1.0886875 0.16772677 234 88 12
-1.4716926 1.0852499 0.16772677 234 88 12
-1.4672604 1.0781616 0.17219299 234 88 12
-1.4811012 1.0716136 0.16580535 234 88 12
-1.5233777 1.0959533 0.13074724 234 88 12
-1.4690324 1.0744834 0.16800022 234 88 12
-1.4744807 1.0641328 0.1675376 234 88 12
-1.4856733 1.0609096 0.15779091 234 88 12
-1.4558266 1.1120532 0.1576539 234 88 12
-1.4829968 1.1085496 0.14296465 234 88 12
-1.5961267 1.1053183 0.078871772 234 88 12
-1.4531692 1.101687 0.16185379 234 88 12
-1.476903 1.0496653 0.1616558 234 88 12
-1.48228 1.1083192 0.13944386 234 88 12
-1.465562 1.1049374 0.14983664 234 88 12
-1.470575 1.0597789 0.15854935 234 88 12
-1.4837461 1.0498528 0.15358715 234 88 12
-1.4545295 1.1081384 0.15120316 234 88 12
-1.4794199 1.1047252 0.1379896 234 88 12
-1.4703547 1.0736448 0.15102383 234 88 12
-1.4778371 1.0599079 0.15028472 234 88 12
-1.4881084 1.056906 0.14523728 234 88 12
-1.4927462 1.0501685 0.14432719 234 88 12
-1.4529271 1.0975001 0.15069474 234 88 12
-1.4562569 1.0905631 0.15057629 234 88 12
-1.4578167 1.0870937 0.15057629 234 88 12
-1.4754066 1.0666088 0.1458694 234 88 12
-1.5300083 1.0521327 0.11885653 234 88 12
-1.4625459 1.1042291 0.13952862 234 88 12
-1.4764025 1.0734076 0.13952889 234 88 12
-1.4848324 1.0633018 0.13736185 234 88 12
-1.4821362 1.059689 0.13977095 234 88 12
-1.7104075 1.0624725 0.011787189 234 88 12
-1.4973942 1.0465488 0.1345572 234 88 12
-1.4989201 1.0431548 0.1345572 234 88 12
-1.4899024 1.0354865 0.14150803 234 88 12
-1.4669641 1.0763748 0.13995586 234 88 12
-1.5461692 1.0559831 0.10118724 234 88 12
-1.7522258 1.0647657 -0.015060136 234 88 12
-1.5143173 1.0474008 0.12095453 234 88 12
-1.4921613 1.0354538 0.13619217 234 88 12
-1.4551581 1.0968202 0.13730524 234 88 12
-1.4554826 1.0898608 0.1388462 234 88 12
-1.4570413 1.0863942 0.1388462 234 88 12
-1.5038242 1.0637239 0.11874016 234 88 12
-1.7094691 1.0701921 0.0041429894 234 88 12
-1.4801836 1.0728836 0.12543292 234 88 12
-1.6891501 1.0690501 0.012395512 234 88 12
-1.8575826 1.0750225 -0.080937907 234 88 12
-1.496653 1.0528512 0.12136241 234 88 12
-1.9417305 1.075655 -0.12699011 234 88 12
-1.5769771 1.0665962 0.070531182 234 88 12
-1.9241166 1.080276 -0.12073517 234 88 12
-1.9444082 1.079414 -0.13151093 234 88 12
-1.9160498 1.0759844 -0.11532333 234 88 12
-1.6622599 1.0589898 0.026211614 234 88 12
-1.8032283 1.064968 -0.051561862 234 88 12
-1.4943635 1.0420564 0.12123005 234 88 12
-1.4800074 1.03754 0.13010165 234 88 12
-1.4908394 1.0659622 0.11332531 234 88 12
-1.514535 1.0635872 0.1011664 234 88 12
-1.6671808 1.0676496 0.018161759 234 88 12
-1.5503696 1.0587081 0.083089627 234 88 12
-1.8727003 1.0713335 -0.093162857 234 88 12
-1.9483056 1.0739799 -0.13442819 234 88 12
-1.5317758 1.0443518 0.096549161 234 88 12
-1.6006244 1.0973953 0.043250628 234 88 12
-1.4518033 1.0923738 0.12382175 234 88 12
-1.4702895 1.0788471 0.11720636 234 88 12
-1.461201 1.0750911 0.12295392 234 88 12
-1.5050644 1.0730994 0.1000388 234 88 12
-1.5158175 1.0701395 0.09501382 234 88 12
-1.4828075 1.0619445 0.11458313 234 88 12
-1.5607369 1.0622736 0.072944015 234 88 12
-1.5864506 1.0604082 0.05967807 234 88 12
-1.9250323 1.0743327 -0.12422822 234 88 12
-1.891848 1.0703017 -0.10556434 234 88 12
-1.4515145 1.0990926 0.11828241 234 88 12
-1.4807545 1.0651177 0.11089113 234 88 12
-1.7706451 1.0748488 -0.044855896 234 88 12
-1.6918575 1.0685223 -0.0016502296 234 88 12
-1.6967709 1.066036 -0.0036591389 234 88 12
-1.6765536 1.0621619 0.0079632197 234 88 12
-1.7720821 1.0625815 -0.042697292 234 88 12
-1.4779247 1.0786206 0.10516772 234 88 12
-1.4677869 1.0748571 0.11138126 234 88 12
-1.8920023 1.0842836 -0.11366215 234 88 12
-1.7273811 1.0727198 -0.024464794 234 88 12
-1.6446028 1.0660268 0.020594737 234 88 12
-1.8770099 1.0754098 -0.10369186 234 88 12
-1.8246068 1.0703601 -0.07497488 234 88 12
-1.4466414 1.1020632 0.11197678 234 88 12
-1.45718 1.0986686 0.10727931 234 88 12
-1.4574447 1.0917635 0.10875945 234 88 12
-1.5092677 1.0692662 0.087020144 234 88 12
-1.5299773 1.0667827 0.076807775 234 88 12
-1.482029 1.0612777 0.10308956 234 88 12
-1.8462027 1.075842 -0.09013918 234 88 12
-1.8609903 1.0722892 -0.097014271 234 88 12
-1.5009121 1.0484283 0.096258394 234 88 12
-1.4886034 1.0441853 0.10366826 234 88 12
-1.4541579 1.0914862 0.10646736 234 88 12
-1.4768864 1.0781537 0.09781228 234 88 12
-1.904938 1.0786339 -0.12369008 234 88 12
-1.8996811 1.074365 -0.11997855 234 88 12
-1.525617 1.0497228 0.079219691 234 88 12
-1.5319033 1.0467597 0.076657452 234 88 12
-1.4957689 1.0409591 0.09669514 234 88 12
-1.4553866 1.0773157 0.10504118 234 88 12
-1.4694138 1.0637835 0.10096486 234 88 12
-1.5459524 1.060575 0.062426005 234 88 12
-1.8725468 1.0748005 -0.10846225 234 88 12
-1.8169634 1.067214 -0.078186758 234 88 12
-1.5573395 1.0482035 0.059436683 234 88 12
-1.4552305 1.0979575 0.096314624 234 88 12
-1.4567741 1.094524 0.096314624 234 88 12
-1.4739858 1.0602732 0.095391646 234 88 12
-1.5008065 1.0581146 0.082229078 234 88 12
-1.6797948 1.0643157 -0.0103288 234 88 12
-1.8564388 1.071651 -0.10195266 234 88 12
-1.8304331 1.0679007 -0.087852396 234 88 12
-1.8881104 1.0693545 -0.11755368 234 88 12
-1.4532238 1.0907843 0.094918557 234 88 12
-1.4543264 1.076839 0.097528957 234 88 12
-1.459002 1.0664393 0.097528957 234 88 12
-1.4621106 1.0630398 0.096730627 234 88 12
-1.6376724 1.0589378 0.0089714155 234 88 12
-1.4771781 1.0319692 0.096175782 234 88 12
-1.5966423 1.059482 0.02603773 234 88 12
-1.5979943 1.0564746 0.02603773 234 88 12
-1.5358549 1.0429165 0.060236171 234 88 12
-1.4870521 1.0360515 0.086242408 234 88 12
-1.4787482 1.0211366 0.093764991 234 88 12
-1.4586623 1.0834892 0.085740618 234 88 12
-1.4748273 1.0631664 0.082246318 234 88 12
-1.4938642 1.046798 0.0764402 234 88 12
-1.5491759 1.0469276 0.048910651 234 88 12
-1.5148447 1.037865 0.068005726 234 88 12
-1.4881666 1.0324088 0.08248952 234 88 12
-1.4515343 1.0935401 0.082991317 234 88 12
-1.4609568 1.0902225 0.079079702 234 88 12
-1.4527674 1.0866156 0.083918571 234 88 12
-1.4596591 1.0763311 0.082800053 234 88 12
-1.4908282 1.0567913 0.071760096 234 88 12
-1.6861477 1.0584697 -0.024944827 234 88 12
-1.4827834 1.0388809 0.07969927 234 88 12
-1.4799443 1.0351419 0.081928633 234 88 12
-1.4552469 1.0759772 0.080996424 234 88 12
-1.4620219 1.0621774 0.080717266 234 88 12
-1.4965121 1.0500113 0.066519834 234 88 12
-1.7787256 1.0640445 -0.074632317 234 88 12
-1.527186 1.0451123 0.052590992 234 88 12
-1.4704909 1.037832 0.081928857 234 88 12
-1.4807718 1.0207371 0.080659285 234 88 12
-1.4716806 1.0728052 0.069660947 234 88 12
-1.5116917 1.0506997 0.055068374 234 88 12
-1.5730448 1.0511197 0.025205385 234 88 12
-1.5266875 1.0448881 0.049059581 234 88 12
-1.464655 1.0688661 0.069906078 234 88 12
-1.5556507 1.0498519 0.030226536 234 88 12
-1.4968214 1.0357829 0.061583724 234 88 12
-1.4487313 1.0856272 0.069891363 234 88 12
-1.4548798 1.0753018 0.06917242 234 88 12
-1.4631042 1.0615844 0.068190508 234 88 12
-1.4711739 1.0514392 0.06651593 234 88 12
-1.5320561 1.0515068 0.037442002 234 88 12
-1.5551687 1.0496352 0.026811821 234 88 12
-1.4812003 1.034443 0.065377511 234 88 12
-1.4799358 1.0200905 0.069061078 234 88 12
-1.4849629 1.0554624 0.055114169 234 88 12
-1.5981629 1.0521475 0.0022371644 234 88 12
-1.4912654 1.0419647 0.055003427 234 88 12
-1.4823143 1.0378549 0.060114961 234 88 12
-1.5068744 1.0462209 0.042827569 234 88 12
-1.4937857 1.0349776 0.051343936 234 88 12
-1.4645066 1.0504456 0.057786118 234 88 12
-1.4797482 1.0478109 0.051243499 234 88 12
-1.6042433 1.0521771 -0.0076142219 234 88 12
-1.5078582 1.0426769 0.039234549 234 88 12
-1.4839324 1.0340548 0.052174646 234 88 12
-1.4479715 1.0812143 0.055001184 234 88 12
-1.4541641 1.0778875 0.052833591 234 88 12
-1.4565375 1.0639591 0.054628227 234 88 12
-1.4580908 1.0605042 0.054628227 234 88 12
-1.4776976 1.0509802 0.047556013 234 88 12
-1.6748074 1.0564743 -0.044547051 234 88 12
-1.4603392 1.0497953 0.051768202 234 88 12
-1.4905847 1.034158 0.041146327 234 88 12
-1.4703562 1.0290792 0.051446494 234 88 12
-1.4718986 1.0220273 0.05219144 234 88 12
-1.4568425 1.067053 0.045795482 234 88 12
-1.4835551 1.0474323 0.037680022 234 88 12
-1.4885463 1.0373086 0.037480596 234 88 12
-1.511165 1.0788691 0.014961893 234 88 12
-1.4557639 1.0735693 0.036940329 234 88 12
-1.4573081 1.0701348 0.036940329 234 88 12
-1.4544107 1.0630083 0.039659966 234 88 12
-1.458257 1.0561353 0.039322894 234 88 12
-1.4616845 1.0492487 0.039175216 234 88 12
-1.5998803 1.0479459 -0.022163371 234 88 12
-1.4635772 1.0351353 0.041159954 234 88 12
-1.4782201 1.0326498 0.03513106 234 88 12
-1.4866329 1.0709807 0.019815715 234 88 12
-1.468094 1.0700941 0.024229459 234 88 12
-1.4805428 1.0671364 0.019360445 234 88 12
-1.4675207 1.0561811 0.027219635 234 88 12
-1.4710188 1.05287 0.026339734 234 88 12
-1.4785601 1.0393251 0.025704075 234 88 12
-1.5554897 1.066777 -0.017000057 234 88 12
-1.4928124 1.0606527 0.011395926 234 88 12
-1.6585864 1.0599933 -0.060419012 234 88 12
-1.4697332 1.0349778 0.026421599 234 88 12
-1.8557839 1.0797563 -0.15226705 234 88 12
-1.5045904 1.0610062 0.0023987405 234 88 12
-1.551168 1.0600197 -0.017442483 234 88 12
-1.5668972 1.0545163 -0.023143049 234 88 12
-1.492565 1.0467807 0.010321214 234 88 12
-1.4619918 1.0413522 0.024519736 234 88 12
-1.4561232 1.0620124 0.019049352 234 88 12
-1.9041892 1.0798149 -0.17531528 234 88 12
-1.571521 1.060869 -0.029910969 234 88 12
-1.8835456 1.0726204 -0.16744828 234 88 12
-1.4563283 1.0545645 0.01238038 234 88 12
-1.682813 1.0634934 -0.084055632 234 88 12
-1.4825714 1.0455658 0.0030934589 234 88 12
-1.4637107 1.0408565 0.011870198 234 88 12
-1.4576051 1.0506874 0.004582895 234 88 12
-0.98335737 -1.3711499 -0.60908669 234 88 12
-0.97982836 -1.3724822 -0.60908669 234 88 12
-0.98593318 -1.3736494 -0.61461246 234 88 12
-0.97900045 -1.3752255 -0.61418843 234 88 12
-0.97456175 -1.3881561 -0.61877173 234 88 12
-1.0006278 -1.3559524 -0.61380088 234 88 12
-0.99631858 -1.3649368 -0.61676598 234 88 12
-0.98895478 -1.3710275 -0.61810017 234 88 12
-0.97190839 -1.414322 -0.63295442 234 88 12
-1.0068172 -1.3557786 -0.61878675 234 88 12
-0.98555237 -1.401391 -0.63377488 234 88 12
-0.97861016 -1.3654249 -0.61838681 234 88 12
-0.96706522 -1.4276162 -0.64144981 234 88 12
-0.9644174 -1.3712465 -0.61857158 234 88 12
-0.97946614 -1.3886634 -0.6317898 234 88 12
-0.97394013 -1.3736308 -0.62503493 234 88 12
-0.96294022 -1.3845009 -0.62768543 234 88 12
-0.94990939 -1.3726994 -0.62108755 234 88 12
-0.94643974 -1.372489 -0.62048769 234 88 12
-0.98301446 -1.450592 -0.66048402 234 88 12
-0.94418919 -1.8439897 -0.80834216 234 88 12
-1.0068884 -1.3685466 -0.63599592 234 88 12
-0.99974138 -1.3730875 -0.6367076 234 88 12
-0.96524614 -1.6600978 -0.74252635 234 88 12
-0.95218384 -1.7741523 -0.7846716 234 88 12
-0.98603582 -1.3764997 -0.63602698 234 88 12
-0.98319447 -1.3705257 -0.63330543 234 88 12
-0.9808892 -1.3575383 -0.62795335 234 88 12
-0.95456076 -1.3918327 -0.6373595 234 88 12
-0.94481564 -1.3827512 -0.63243115 234 88 12
-0.9375689 -1.3908927 -0.63451886 234 88 12
-0.93481672 -1.3731972 -0.62728328 234 88 12
-1.005139 -1.3477924 -0.63182545 234 88 12
-0.97072542 -1.6488973 -0.74189985 234 88 12
-0.96170038 -1.715245 -0.76594651 234 88 12
-0.97950226 -1.442735 -0.66440076 234 88 12
-0.98023897 -1.3581041 -0.63217354 234 88 12
-0.97669625 -1.3594416 -0.63217354 234 88 12
-0.96876544 -1.3737487 -0.63649565 234 88 12
-0.96621269 -1.3613657 -0.63139647 234 88 12
-0.9518401 -1.3698306 -0.63255745 234 88 12
-0.9438448 -1.3913714 -0.63963395 234 88 12
-0.93642479 -1.4054023 -0.6439243 234 88 12
-0.95137149 -1.8154901 -0.804986 234 88 12
-0.9520461 -1.7889831 -0.79506522 234 88 12
-0.97648299 -1.4703921 -0.67815548 234 88 12
-0.94178551 -1.4228712 -0.65524691 234 88 12
-0.97606808 -1.4332434 -0.66782486 234 88 12
-0.9780907 -1.3696983 -0.64435953 234 88 12
-0.92895132 -1.8057092 -0.80039018 234 88 12
-0.9350782 -1.6571839 -0.74574149 234 88 12
-0.97475594 -1.4421806 -0.67470104 234 88 12
-0.96128041 -1.357177 -0.6414001 234 88 12
-0.95302755 -1.3797915 -0.64860755 234 88 12
-0.98055208 -1.3664916 -0.65154457 234 88 12
-0.97806931 -1.3552854 -0.64710581 234 88 12
-0.96430242 -1.3550891 -0.64513427 234 88 12
-0.98111099 -1.3526461 -0.65061671 234 88 12
-0.96873194 -1.3809223 -0.6591472 234 88 12
-0.96528196 -1.3822248 -0.6591472 234 88 12
-0.955854 -1.3706554 -0.65367937 234 88 12
-0.955495 -1.4221016 -0.6760233 234 88 12
-0.97598284 -1.3590972 -0.6602869 234 88 12
-0.95331162 -1.4487038 -0.68891716 234 88 12
-0.96702993 -1.425386 -0.68625498 234 88 12
-0.96229136 -1.4011443 -0.67716539 234 88 12
-0.95366806 -1.4836165 -0.70482695 234 88 12
-0.9583928 -1.3572916 -0.66133851 234 88 12
-0.9632051 -1.4266732 -0.68993503 234 88 12
0.56775516 -1.6353412 -0.23441917 234 88 12
0.58784032 -1.6460439 -0.23780423 234 88 12
0.56679356 -1.6404891 -0.23904479 234 88 12
0.58334416 -1.6524104 -0.24229677 234 88 12
0.57427502 -1.6315289 -0.23810482 234 88 12
0.59386355 -1.6553578 -0.24358612 234 88 12
0.57739788 -1.622478 -0.23682052 234 88 12
0.56122935 -1.631863 -0.24102797 234 88 12
0.59582776 -1.6780519 -0.2511766 234 88 12
0.58451003 -1.654056 -0.24639611 234 88 12
0.60404152 -1.6777691 -0.25173709 234 88 12
0.57869476 -1.631366 -0.24223694 234 88 12
0.77665639 -1.9381562 -0.30729166 234 88 12
0.58853668 -1.633036 -0.24323873 234 88 12
0.58452415 -1.6195306 -0.24072237 234 88 12
0.61646444 -1.664273 -0.25043681 234 88 12
0.60607976 -1.6404073 -0.2457467 234 88 12
0.5504663 -1.635766 -0.24472502 234 88 12
0.61446267 -1.6938673 -0.2586928 234 88 12
0.60220408 -1.6681707 -0.2536751 234 88 12
0.59009266 -1.6212556 -0.24525647 234 88 12
0.60512435 -1.624433 -0.24685393 234 88 12
0.55358362 -1.6402174 -0.24949145 234 88 12
0.61170757 -1.6423761 -0.25393888 234 88 12
0.54469609 -1.640185 -0.2526935 234 88 12
0.54706138 -1.6370409 -0.25237381 234 88 12
0.55334729 -1.6396918 -0.25321525 234 88 12
0.56221986 -1.6462828 -0.25484067 234 88 12
0.56096232 -1.6309557 -0.25239912 234 88 12
0.57332385 -1.622458 -0.25194743 234 88 12
0.57877773 -1.6240578 -0.25256991 234 88 12
0.59110749 -1.6226232 -0.25320116 234 88 12
0.58007276 -1.6792042 -0.26476613 234 88 12
0.57309943 -1.6624004 -0.26177409 234 88 12
0.56972933 -1.6236521 -0.25573221 234 88 12
0.59427816 -1.6346833 -0.25904375 234 88 12
0.77780545 -1.926222 -0.31517351 234 88 12
0.79192501 -1.9974589 -0.32897156 234 88 12
0.72747153 -1.8979713 -0.31015232 234 88 12
0.81949109 -1.9979057 -0.3308526 234 88 12
0.69746351 -1.8532711 -0.30444571 234 88 12
0.78151774 -1.9742186 -0.32713425 234 88 12
0.58422202 -1.6252531 -0.26457793 234 88 12
0.61405838 -1.7172354 -0.2830745 234 88 12
0.55976254 -1.6284623 -0.26729965 234 88 12
0.5627982 -1.6262645 -0.26718354 234 88 12
0.56625628 -1.6247097 -0.26718354 234 88 12
0.57711995 -1.6208222 -0.26732245 234 88 12
0.59157145 -1.636723 -0.2741943 234 88 12
0.5782066 -1.6562245 -0.27972466 234 88 12
0.59519988 -1.6756997 -0.28331122 234 88 12
0.58871007 -1.6590044 -0.28438386 234 88 12
0.58912349 -1.639429 -0.28188795 234 88 12
0.56253028 -1.6251986 -0.28234103 234 88 12
0.576092 -1.639304 -0.28487009 234 88 12
0.57595348 -1.6322702 -0.28398177 234 88 12
0.57443607 -1.6229728 -0.28273246 234 88 12
1.5927767 -0.58955061 0.40584099 234 88 12
1.6007738 -0.58996922 0.40592793 234 88 12
1.5975292 -0.58364582 0.40586329 234 88 12
1.6172673 -0.59130758 0.40610954 234 88 12
1.5952229 -0.58216691 0.40207994 234 88 12
1.6111101 -0.5831241 0.40230888 234 88 12
1.6294438 -0.6154238 0.39918149 234 88 12
1.6018927 -0.57295424 0.39836794 234 88 12
1.6279016 -0.61862576 0.39558685 234 88 12
1.8179482 -0.72019827 0.40050298 234 88 12
1.587432 -0.60793084 0.39089069 234 88 12
1.592245 -0.60202324 0.39094305 234 88 12
1.6090165 -0.6074959 0.3914099 234 88 12
1.6357797 -0.61486208 0.39214 234 88 12
1.6711714 -0.63194984 0.39318568 234 88 12
1.607723 -0.58949304 0.39118201 234 88 12
1.598061 -0.57923913 0.39083555 234 88 12
1.5997357 -0.57143301 0.390791 234 88 12
1.6177548 -0.62517512 0.38818917 234 88 12
1.5945144 -0.58581126 0.38705522 234 88 12
1.6262842 -0.57921374 0.38785306 234 88 12
1.9871215 -0.83597422 0.39900607 234 88 12
1.6593937 -0.64489317 0.38613114 234 88 12
1.6170501 -0.6120615 0.3843537 234 88 12
1.8162093 -0.70245975 0.39181781 234 88 12
1.997978 -0.84213793 0.39743534 234 88 12
1.6176567 -0.59096181 0.38038996 234 88 12
1.7572104 -0.67266577 0.386482 234 88 12
1.9804598 -0.80781567 0.39629671 234 88 12
1.7224948 -0.68479794 0.38228425 234 88 12
1.5899845 -0.60479039 0.37588322 234 88 12
1.5888405 -0.59976834 0.37575397 234 88 12
1.6129084 -0.6009329 0.37668827 234 88 12
1.6097959 -0.59475791 0.37646455 234 88 12
1.8330548 -0.72578537 0.38718483 234 88 12
1.9884295 -0.8175751 0.39465576 234 88 12
1.9612566 -0.7983982 0.39329585 234 88 12
1.5988467 -0.58809507 0.37216973 234 88 12
1.6415113 -0.60530001 0.37066203 234 88 12
1.6039542 -0.61263943 0.36540663 234 88 12
1.5928308 -0.60180879 0.36085621 234 88 12
1.5968024 -0.59102136 0.36081073 234 88 12
1.6081287 -0.58471245 0.36125025 234 88 12
1.6167431 -0.6113193 0.35494205 234 88 12
1.6339986 -0.61725748 0.35611141 234 88 12
1.9630523 -0.81187999 0.37837628 234 88 12
1.9557152 -0.80497307 0.37772727 234 88 12
1.7192832 0.38475639 0.013441027 234 88 12
1.726069 0.3868764 0.012604034 234 88 12
1.7193931 0.39591968 0.013353196 234 88 12
1.7252771 0.39818332 0.012624596 234 88 12
1.7369713 0.37324393 0.0076370789 234 88 12
1.7383058 0.38026729 0.0074349758 234 88 12
1.7562361 0.38322023 0.0016515255 234 88 12
1.7186196 0.3735767 0.0021809589 234 88 12
1.7493678 0.37035775 -0.0011746404 234 88 12
1.742575 0.38647148 -0.00052638992 234 88 12
1.72733 0.36789212 -0.0025113984 234 88 12
1.7222977 0.37271735 -0.0020064467 234 88 12
1.7166715 0.38145503 -0.0014613868 234 88 12
1.7477528 0.3960385 -0.0048389742 234 88 12
1.7597544 0.36076045 -0.0095515 234 88 12
1.7181177 0.3922801 -0.0054773372 234 88 12
1.7843994 0.38327372 -0.01219439 234 88 12
1.7294846 0.37842593 -0.010317974 234 88 12
2.1156795 0.29644328 -0.047828533 234 88 12
1.7244548 0.39812011 -0.0099301897 234 88 12
1.7392882 0.36881685 -0.01495075 234 88 12
2.1104667 0.29539743 -0.049626939 234 88 12
2.0562227 0.31074041 -0.044583339 234 88 12
2.1622281 0.28728521 -0.05447362 234 88 12
1.7193387 0.36200708 -0.016829027 234 88 12
1.7198969 0.3656235 -0.016897652 234 88 12
1.7245044 0.37948671 -0.017384356 234 88 12
1.7206852 0.38408771 -0.017061202 234 88 12
2.1501687 0.28595555 -0.055493478 234 88 12
2.0723197 0.30924949 -0.048554629 234 88 12
1.7163694 0.39626056 -0.020531721 234 88 12
1.7282234 0.36745599 -0.025183573 234 88 12
1.7182142 0.36586523 -0.028143771 234 88 12
1.7280769 0.36744794 -0.02893135 234 88 12
1.7157953 0.38136083 -0.028019818 234 88 12
1.7992973 0.35185146 -0.037990835 234 88 12
1.9143077 0.34475285 -0.046625566 234 88 12
1.7487293 0.38094968 -0.037978005 234 88 12
1.784227 0.35855672 -0.043972492 234 88 12
1.7294322 0.38179287 -0.040349722 234 88 12
2.0508361 0.30933949 -0.061837267 234 88 12
1.8532015 0.34643596 -0.051878799 234 88 12
-1.2293601 1.3285726 -0.070983194 234 88 12
-1.2442021 1.3442448 -0.091476783 234 88 12
-1.3685369 1.6247076 -0.37706006 234 88 12
-1.2513568 1.3428032 -0.094486415 234 88 12
-1.2604635 1.3553385 -0.10928967 234 88 12
-1.2478012 1.3156227 -0.071689464 234 88 12
-1.2521672 1.3166392 -0.074973956 234 88 12
-1.2627208 1.3137301 -0.078815751 234 88 12
-1.2652259 1.3001323 -0.069871955 234 88 12
-1.2732053 1.3007232 -0.074907303 234 88 12
-1.2394816 1.3248742 -0.078658327 234 88 12
-1.2795643 1.4099356 -0.16609405 234 88 12
-1.2598029 1.3544606 -0.11271314 234 88 12
-1.2578144 1.3405585 -0.10102803 234 88 12
-1.2874351 1.3494483 -0.12468639 234 88 12
-1.2539375 1.3679068 -0.12398604 234 88 12
-1.264696 1.3932176 -0.15342829 234 88 12
-1.3467861 1.5754374 -0.33629265 234 88 12
-1.2964826 1.4352063 -0.20282346 234 88 12
-1.2709191 1.3647116 -0.1355726 234 88 12
-1.2524499 1.3100076 -0.084157169 234 88 12
-1.2296718 1.3227549 -0.085554771 234 88 12
-1.2393067 1.335631 -0.10054466 234 88 12
-1.2705326 1.3989736 -0.16522317 234 88 12
-1.3046716 1.4707794 -0.23783782 234 88 12
-1.3350502 1.5354793 -0.30305246 234 88 12
-1.2995615 1.4432493 -0.21446887 234 88 12
-1.2733358 1.37132 -0.14619686 234 88 12
-1.2615365 1.3140442 -0.096923836 234 88 12
-1.2693791 1.2942204 -0.086553521 234 88 12
-1.3558395 1.5914156 -0.35934958 234 88 12
-1.2847424 1.416476 -0.1902689 234 88 12
-1.2790201 1.385872 -0.16442968 234 88 12
-1.2618098 1.3346714 -0.11694767 234 88 12
-1.2598909 1.3107032 -0.098138198 234 88 12
-1.2602158 1.3016307 -0.091603927 234 88 12
-1.3678571 1.6200404 -0.39003009 234 88 12
-1.3445226 1.5589925 -0.33221316 234 88 12
-1.3275483 1.5117406 -0.28806373 234 88 12
-1.262094 1.3453766 -0.12947308 234 88 12
-1.2572552 1.3242081 -0.11122485 234 88 12
-1.2626224 1.3086444 -0.10274738 234 88 12
-1.2317368 1.3202823 -0.098867334 234 88 12
-1.2437172 1.3387618 -0.11896282 234 88 12
-1.2436589 1.3295529 -0.11219975 234 88 12
-1.3422711 1.5476356 -0.32582995 234 88 12
-1.3554502 1.5730389 -0.35164535 234 88 12
-1.2833797 1.380549 -0.17131732 234 88 12
-1.264533 1.324065 -0.11966792 234 88 12
-1.2295947 1.3160516 -0.099263005 234 88 12
-1.3616047 1.6004397 -0.37795407 234 88 12
-1.2661638 1.3656083 -0.15524001 234 88 12
-1.2864265 1.4059194 -0.19559094 234 88 12
-1.2511529 1.3010249 -0.10012981 234 88 12
-1.2360753 1.322433 -0.11204001 234 88 12
-1.2471142 1.3299118 -0.12343166 234 88 12
-1.2695956 1.3745176 -0.16783147 234 88 12
-1.3354005 1.5253954 -0.31245339 234 88 12
-1.2934588 1.407069 -0.20428187 234 88 12
-1.250334 1.3290834 -0.12909028 234 88 12
-1.2656811 1.356964 -0.15736464 234 88 12
-1.2286141 1.3157989 -0.11247508 234 88 12
-1.2372528 1.3080133 -0.11155885 234 88 12
-1.2408143 1.3070332 -0.11276981 234 88 12
-1.6272269 0.72860909 -0.63984627 234 88 12
-1.6468711 0.71322435 -0.6700418 234 88 12
-1.8634652 0.57702339 -1.0127063 234 88 12
-1.6557049 0.7016322 -0.6822598 234 88 12
-1.6167794 0.72205448 -0.61949706 234 88 12
-1.6437844 0.69947386 -0.66059047 234 88 12
-1.6054174 0.71883398 -0.59850395 234 88 12
-1.6105567 0.73738211 -0.61981279 234 88 12
-1.6010054 0.73999101 -0.60382909 234 88 12
-1.6030712 0.72533661 -0.60321373 234 88 12
-1.6269863 0.70787287 -0.64007521 234 88 12
-1.5967182 0.7359575 -0.60901642 234 88 12
-0.030444818 -1.3872218 -1.0780431 234 88 12
0.01191128 -1.467851 -1.1257814 234 88 12
-0.021255597 -1.3896267 -1.0801792 234 88 12
-0.030693097 -1.3936359 -1.0857793 234 88 12
-0.030232556 -1.3862618 -1.0818381 234 88 12
-0.011581453 -1.4088449 -1.0956948 234 88 12
-0.017214797 -1.3796315 -1.0794171 234 88 12
-0.013125753 -1.3797524 -1.0798466 234 88 12
-0.046279859 -1.385062 -1.0840573 234 88 12
-0.0349616 -1.3998077 -1.0929486 234 88 12
0.081528105 -1.5933261 -1.2068039 234 88 12
0.085250467 -1.5883255 -1.2044561 234 88 12
0.0038127289 -1.3804134 -1.0859913 234 88 12
-0.028089691 -1.4043789 -1.10017 234 88 12
-0.027229844 -1.3980229 -1.0968739 234 88 12
0.0059195273 -1.3929805 -1.0970993 234 88 12
0.017453853 -1.4015754 -1.1026673 234 88 12
0.0085867774 -1.3715785 -1.0859807 234 88 12
-0.029568885 -1.4311996 -1.1182879 234 88 12
-0.048079424 -1.3866791 -1.093281 234 88 12
0.087049611 -1.6452266 -1.2409009 234 88 12
-0.014257955 -1.3819747 -1.0937403 234 88 12
0.019220373 -1.4044218 -1.1084421 234 88 12
-0.055333804 -1.3788594 -1.0928118 234 88 12
0.11348711 -1.7080863 -1.2788104 234 88 12
-0.024906743 -1.4239058 -1.1188906 234 88 12
0.07919392 -1.6282518 -1.2342783 234 88 12
-0.0047816387 -1.449602 -1.1340048 234 88 12
-0.036411956 -1.3761796 -1.0930415 234 88 12
-0.01796196 -1.3725101 -1.0927151 234 88 12
-0.0091364328 -1.3742568 -1.0943832 234 88 12
0.084325366 -1.5695151 -1.2041231 234 88 12
0.14995325 -1.714053 -1.2850515 234 88 12
0.050943684 -1.4772578 -1.1531984 234 88 12
-0.018482737 -1.4430712 -1.1333432 234 88 12
0.099287026 -1.6735845 -1.2623554 234 88 12
0.001956657 -1.4622047 -1.1449596 234 88 12
-0.029791825 -1.371713 -1.0955467 234 88 12
0.16925271 -1.7724119 -1.3193246 234 88 12
0.16126169 -1.7495909 -1.3068645 234 88 12
0.16483317 -1.7527386 -1.3087933 234 88 12
0.13712201 -1.7537453 -1.3092716 234 88 12
0.044512112 -1.5617642 -1.2032646 234 88 12
0.086329348 -1.6408595 -1.2472479 234 88 12
-0.030751478 -1.3933934 -1.1107973 234 88 12
-0.0025737623 -1.3950137 -1.1140029 234 88 12
-0.0043572299 -1.3822868 -1.107343 234 88 12
-0.02210163 -1.4018705 -1.1199375 234 88 12
0.011245635 -1.4160173 -1.1298946 234 88 12
-0.036319599 -1.3707647 -1.1071954 234 88 12
-0.021132167 -1.394374 -1.1203085 234 88 12
-0.033454526 -1.3753756 -1.1139148 234 88 12
-0.02694064 -1.3636377 -1.1086094 234 88 12
-0.0027936972 -1.3991675 -1.1282676 234 88 12
-0.021076094 -1.3834578 -1.1230516 234 88 12
-0.0071727172 -1.3795046 -1.1222334 234 88 12
1.3418094 -0.97458112 -0.56537956 234 88 12
1.6836878 -1.242934 -0.68946129 234 88 12
1.3752633 -0.98755521 -0.57524055 234 88 12
1.3572307 -0.96800339 -0.56776917 234 88 12
1.3434848 -0.9517526 -0.56184262 234 88 12
1.3453233 -0.94343042 -0.56083339 234 88 12
1.3262271 -0.96701115 -0.56446373 234 88 12
1.3324569 -0.95743304 -0.56424409 234 88 12
1.3611754 -0.97132874 -0.57305408 234 88 12
1.3701597 -0.95973742 -0.57311326 234 88 12
1.346791 -0.98336434 -0.57567775 234 88 12
1.3296161 -0.96006215 -0.56798595 234 88 12
1.3688267 -0.98705292 -0.5811764 234 88 12
1.359162 -0.97447872 -0.57693779 234 88 12
1.3446755 -0.95776504 -0.57094038 234 88 12
1.3437752 -0.93732375 -0.56733239 234 88 12
1.3335406 -0.98238617 -0.57643676 234 88 12
1.3417583 -0.9794085 -0.57774192 234 88 12
1.3871263 -1.0109544 -0.5928306 234 88 12
1.3437601 -0.95707631 -0.57451022 234 88 12
1.3555528 -0.95719844 -0.57710516 234 88 12
1.3661629 -0.96132094 -0.58009917 234 88 12
1.3537031 -0.94588333 -0.57484239 234 88 12
1.3171204 -0.97439903 -0.57546175 234 88 12
1.3245416 -0.96578753 -0.5756644 234 88 12
1.6634179 -1.2425193 -0.69546711 234 88 12
1.3302118 -0.95094222 -0.57840943 234 88 12
1.6433486 -1.2017286 -0.68471438 234 88 12
1.3411627 -0.94528127 -0.57982701 234 88 12
1.6365548 -1.2217337 -0.68872666 234 88 12
1.6703804 -1.2242705 -0.69618046 234 88 12
1.4091611 -1.0024091 -0.60687333 234 88 12
1.6254942 -1.2131829 -0.68739176 234 88 12
1.3162978 -0.96905714 -0.59007919 234 88 12
1.3213571 -0.96822333 -0.59097499 234 88 12
1.3194373 -0.9618898 -0.58962381 234 88 12
1.3364652 -0.97065139 -0.59439796 234 88 12
1.3251144 -0.95185703 -0.58924556 234 88 12
1.3321846 -0.94785523 -0.59006602 234 88 12
1.3589131 -0.96998477 -0.60258549 234 88 12
1.412812 -1.0360433 -0.63000304 234 88 12
1.3698668 -0.99747795 -0.61615199 234 88 12
1.5212365 -1.1040688 -0.66072392 234 88 12
1.3137397 -0.95752221 -0.60346174 234 88 12
1.43716 -1.0513035 -0.64017832 234 88 12
1.3881111 -1.0076835 -0.62468237 234 88 12
1.3759365 -0.99335253 -0.62033707 234 88 12
1.6483222 -1.2117816 -0.70300114 234 88 12
1.2608508 1.1507735 -0.53761566 234 88 12
1.2591056 1.1541445 -0.53761566 234 88 12
1.2571566 1.1643147 -0.53882682 234 88 12
1.2630593 1.1434397 -0.54113591 234 88 12
1.2796894 1.1474481 -0.54789311 234 88 12
1.2930244 1.1506978 -0.55727464 234 88 12
1.27081 1.1533703 -0.54983145 234 88 12
1.2628313 1.1632932 -0.54881626 234 88 12
1.2671548 1.1390915 -0.54995447 234 88 12
1.2999648 1.1471004 -0.56301475 234 88 12
1.2967092 1.1502861 -0.56244707 234 88 12
1.2590953 1.1558888 -0.5501796 234 88 12
1.3197125 1.1638221 -0.57305294 234 88 12
1.2564464 1.1659917 -0.55109197 234 88 12
1.2605391 1.1451473 -0.55279744 234 88 12
1.5498115 1.1605351 -0.65667862 234 88 12
1.3110223 1.1464615 -0.57454085 234 88 12
1.5480181 1.1600873 -0.65888202 234 88 12
1.271902 1.1551259 -0.56257159 234 88 12
1.2774425 1.13455 -0.56481105 234 88 12
1.2649786 1.1408165 -0.56166077 234 88 12
1.6974814 1.1603708 -0.71290737 234 88 12
1.6904219 1.162087 -0.71079868 234 88 12
1.2584535 1.1542137 -0.5618012 234 88 12
1.2651595 1.1299951 -0.56386018 234 88 12
1.2843976 1.1343598 -0.57112271 234 88 12
1.2578212 1.1365418 -0.56252617 234 88 12
1.720314 1.1590407 -0.72270352 234 88 12
1.3742642 1.1508583 -0.60436767 234 88 12
1.6315274 1.1619058 -0.69321018 234 88 12
1.2603841 1.1292219 -0.56617266 234 88 12
1.6172014 1.1588908 -0.69046545 234 88 12
1.6579468 1.1623964 -0.70467889 234 88 12
1.4558138 1.1587226 -0.63653922 234 88 12
1.2773222 1.1295813 -0.5758754 234 88 12
1.2758274 1.1362934 -0.57652909 234 88 12
1.5719179 1.1569272 -0.67779666 234 88 12
1.2459555 1.1556238 -0.56997192 234 88 12
1.2558739 1.1382914 -0.57432199 234 88 12
1.2540658 1.1518898 -0.576029 234 88 12
1.2977779 1.1564249 -0.59105664 234 88 12
1.2605351 1.1241939 -0.57749867 234 88 12
1.2680843 1.1304326 -0.58893347 234 88 12
1.2464852 1.1500138 -0.58532566 234 88 12
1.2557242 1.1258212 -0.58831066 234 88 12
1.2539871 1.1360708 -0.58942074 234 88 12
1.2688217 1.1434764 -0.59522647 234 88 12
1.4026825 1.1515015 -0.63814759 234 88 12
1.2469881 1.1494813 -0.58940339 234 88 12
1.2849547 1.1302714 -0.60200661 234 88 12
1.5538415 1.153985 -0.68837863 234 88 12
1.2442552 1.1454265 -0.59191424 234 88 12
1.6875906 1.1529167 -0.73160708 234 88 12
1.3930935 1.1413904 -0.64044243 234 88 12
1.4812025 1.1480979 -0.6682294 234 88 12
-0.70784336 1.662619 -0.44842359 234 88 12
-1.2613517 0.33173323 -1.3262324 234 88 12
-1.2605413 0.30013457 -1.3894495 234 88 12
-1.2604332 0.32431126 -1.3260244 234 88 12
-1.2579986 0.32854062 -1.3360761 234 88 12
-1.2567265 0.24555317 -1.5084953 234 88 12
-1.2566448 0.32135081 -1.326882 234 88 12
-1.2542738 0.097850829 -1.847077 234 88 12
-1.2533206 0.31906593 -1.3348167 234 88 12
-1.2509847 0.3192406 -1.3539361 234 88 12
-1.2517219 0.18579306 -1.648716 234 88 12
-1.2521012 0.11394982 -1.8071104 234 88 12
-1.2485616 0.29555348 -1.4175975 234 88 12
-1.2481375 0.29208872 -1.4175975 234 88 12
-1.2485648 0.235699 -1.5375252 234 88 12
-1.250282 0.11097176 -1.8154224 234 88 12
-1.2461882 0.31870607 -1.332394 234 88 12
-1.2466081 0.2421301 -1.5389482 234 88 12
-1.2450666 0.29246458 -1.4192139 234 88 12
-1.2470951 0.18242373 -1.6601206 234 88 12
-1.2478691 0.13442744 -1.7634754 234 88 12
-1.243556 0.29147974 -1.3976063 234 88 12
-1.2434616 0.25853166 -1.5046923 234 88 12
-1.2458619 0.15833282 -1.7217712 234 88 12
-1.2421038 0.27158999 -1.4609345 234 88 12
-1.2465714 0.11165572 -1.8168476 234 88 12
-1.244543 0.16436291 -1.6913221 234 88 12
-1.2418995 0.22248429 -1.5867689 234 88 12
-1.2452301 0.11606465 -1.8178232 234 88 12
-1.2430739 0.14506796 -1.7372161 234 88 12
-1.2362905 0.30243409 -1.3692939 234 88 12
-1.2346718 0.33607683 -1.3378588 234 88 12
-1.2427237 0.13168114 -1.7845358 234 88 12
-1.2432194 0.11194464 -1.8238602 234 88 12
-1.2433674 0.10094704 -1.8440413 234 88 12
-1.2332907 0.3110494 -1.3605801 234 88 12
-1.2387949 0.18251704 -1.6474237 234 88 12
-1.2320118 0.31135237 -1.3428055 234 88 12
-1.2314694 0.33368292 -1.345791 234 88 12
-1.2304134 0.32895571 -1.3396151 234 88 12
-1.2341864 0.24370259 -1.5234371 234 88 12
-1.2298425 0.3148517 -1.3545635 234 88 12
-1.2280262 0.33638489 -1.3424901 234 88 12
-1.2279074 0.31490663 -1.3736506 234 88 12
-1.2288463 0.287714 -1.4266219 234 88 12
-1.2271701 0.30500349 -1.3795451 234 88 12
-1.2376206 0.12498641 -1.7827874 234 88 12
-1.2251892 0.27730811 -1.4370141 234 88 12
-1.2210292 0.30644706 -1.3448495 234 88 12
-1.2230037 0.28429174 -1.439204 234 88 12
-1.2200305 0.31525311 -1.3615806 234 88 12
-1.218569 0.31500331 -1.3451562 234 88 12
-1.2176977 0.30685484 -1.346603 234 88 12
-1.2171682 0.30393991 -1.3446203 234 88 12
-1.2179046 0.33923066 -1.3442147 234 88 12
-1.2178608 0.32998875 -1.3562404 234 88 12
-1.2175001 0.3250266 -1.3589686 234 88 12
-1.2204237 0.27883357 -1.4538293 234 88 12
-1.217615 0.30494314 -1.3874241 234 88 12
-1.2148385 0.33623135 -1.3533951 234 88 12
-1.2143581 0.31462911 -1.3764782 234 88 12
-1.2134914 0.31570831 -1.3658224 234 88 12
-1.2155148 0.23222598 -1.5576025 234 88 12
-1.2042003 0.31005758 -1.3499914 234 88 12
-1.2085475 0.29376927 -1.4455911 234 88 12
-1.2035115 0.32609162 -1.3588998 234 88 12
-1.2042406 0.31142846 -1.383231 234 88 12
-1.2012413 0.30716759 -1.3593431 234 88 12
-1.2054404 0.30200264 -1.4376692 234 88 12
-1.2197258 0.15988523 -1.7335254 234 88 12
-1.2027683 0.28927943 -1.4272585 234 88 12
-1.198523 0.31014472 -1.3637627 234 88 12
-1.2223479 0.1286833 -1.8127474 234 88 12
-1.2002949 0.29146975 -1.4326689 234 88 12
-1.1960238 0.32952955 -1.3834889 234 88 12
-1.1922922 0.32241344 -1.358357 234 88 12
-1.1921923 0.30178362 -1.3796635 234 88 12
-1.2195095 0.11750496 -1.8352221 234 88 12
-1.1905273 0.33268186 -1.3632441 234 88 12
-1.2165598 0.12317 -1.8041396 234 88 12
-1.1887023 0.31756043 -1.3634652 234 88 12
-1.1877033 0.33651674 -1.3657022 234 88 12
-1.2171379 0.10986864 -1.8397758 234 88 12
-1.2184389 0.0970999 -1.8635211 234 88 12
-1.1851642 0.30578247 -1.375841 234 88 12
-1.2122099 0.1348329 -1.7913426 234 88 12
-1.2137604 0.11654367 -1.8218949 234 88 12
-1.1831627 0.3045451 -1.3896209 234 88 12
-1.1936347 0.24243429 -1.5591013 234 88 12
-1.1808972 0.318252 -1.3863287 234 88 12
-1.1830778 0.29799175 -1.4228989 234 88 12
-1.1812024 0.30336428 -1.403023 234 88 12
-1.1782669 0.31472582 -1.396629 234 88 12
-1.1738224 0.32216695 -1.3829885 234 88 12
-1.1725488 0.32319537 -1.3725684 234 88 12
-1.1716781 0.32179305 -1.3673635 234 88 12
-0.47832409 -0.58708847 -1.6233525 234 88 12
-0.47449028 -0.58770168 -1.623535 234 88 12
-0.46911514 -0.5915584 -1.6275911 234 88 12
-0.45322403 -0.61055845 -1.649217 234 88 12
-0.45984554 -0.58868796 -1.6225127 234 88 12
-0.45655957 -0.58809632 -1.6212525 234 88 12
-0.43940488 -0.6106872 -1.6472355 234 88 12
-0.39094073 -0.7690146 -1.8448465 234 88 12
-0.42803776 -0.68696046 -1.7473006 234 88 12
-0.33893335 -0.86709642 -1.9602656 234 88 12
-0.45335048 -0.62073261 -1.6678561 234 88 12
-0.31616512 -0.90703428 -2.0070179 234 88 12
-0.44815078 -0.61745745 -1.6629335 234 88 12
-0.45899427 -0.58632123 -1.6254207 234 88 12
-0.44666666 -0.59008604 -1.6282597 234 88 12
-0.42580074 -0.61412734 -1.6553001 234 88 12
-0.47848585 -0.59283394 -1.6425114 234 88 12
-0.32555869 -0.90065229 -2.0035882 234 88 12
-0.4705064 -0.59500092 -1.6439981 234 88 12
-0.43674633 -0.65877306 -1.7184864 234 88 12
-0.33538699 -0.86346787 -1.9586486 234 88 12
-0.4585596 -0.59077269 -1.6368909 234 88 12
-0.44754067 -0.58384401 -1.6265526 234 88 12
-0.42518523 -0.60322046 -1.6473356 234 88 12
-0.42912337 -0.58519536 -1.6254249 234 88 12
-0.42306474 -0.59129906 -1.632122 234 88 12
-0.41677094 -0.59814024 -1.6397043 234 88 12
-0.4818356 -0.58187968 -1.6352708 234 88 12
-0.32759401 -0.89424175 -1.9990718 234 88 12
-0.37726912 -0.7810427 -1.8662875 234 88 12
-0.43801394 -0.63161778 -1.6902772 234 88 12
-0.44591346 -0.60684621 -1.660769 234 88 12
-0.4445866 -0.59436578 -1.6450969 234 88 12
-0.42989358 -0.59608603 -1.6450001 234 88 12
-0.42005122 -0.58561522 -1.6305271 234 88 12
-0.47768608 -0.58629996 -1.6459507 234 88 12
-0.48012051 -0.57398963 -1.6311716 234 88 12
-0.45130408 -0.62727362 -1.6923888 234 88 12
-0.35676235 -0.81694567 -1.9115103 234 88 12
-0.34222159 -0.84366018 -1.9421883 234 88 12
-0.45723149 -0.58534366 -1.6416938 234 88 12
-0.41916797 -0.60941875 -1.6655821 234 88 12
-0.47389504 -0.57549232 -1.6379552 234 88 12
-0.33384308 -0.86828142 -1.9745623 234 88 12
-0.34479007 -0.84019345 -1.9418987 234 88 12
-0.44072881 -0.62504745 -1.6935123 234 88 12
-0.45750603 -0.57267475 -1.6320648 234 88 12
-0.44073319 -0.58683032 -1.6468439 234 88 12
-0.43960795 -0.57281941 -1.6295663 234 88 12
-0.33342573 -0.81498837 -1.9094208 234 88 12
-0.40785557 -0.60792327 -1.6676875 234 88 12
-0.35989302 -0.72279376 -1.8007932 234 88 12
-0.4029628 -0.60281974 -1.660724 234 88 12
-0.46387824 -0.57778287 -1.6450564 234 88 12
-0.46360981 -0.57064861 -1.6363693 234 88 12
-0.44535372 -0.5880478 -1.6547501 234 88 12
-0.344928 -0.78386682 -1.8771987 234 88 12
-0.32243636 -0.8337962 -1.9343801 234 88 12
-0.34185308 -0.77915388 -1.87103 234 88 12
-0.30930278 -0.85610241 -1.9594684 234 88 12
-0.40578896 -0.60021424 -1.6636269 234 88 12
-0.40870667 -0.57400358 -1.6322905 234 88 12
-0.46221647 -0.56951737 -1.6406087 234 88 12
-0.42398539 -0.62553906 -1.7023782 234 88 12
-0.43352762 -0.5872159 -1.6576769 234 88 12
-0.43255267 -0.58119267 -1.6502869 234 88 12
-0.43389377 -0.56934077 -1.6362255 234 88 12
-0.33268401 -0.81119782 -1.9122978 234 88 12
-0.39166203 -0.6573832 -1.7359296 234 88 12
-0.33565268 -0.79186946 -1.8894812 234 88 12
-0.39157185 -0.64151645 -1.7168273 234 88 12
-0.44799349 -0.56539392 -1.6393626 234 88 12
-0.30778262 -0.87536359 -1.9890343 234 88 12
-0.4283818 -0.56982815 -1.6417913 234 88 12
-0.45549479 -0.56021559 -1.6400621 234 88 12
-0.40664041 -0.63605601 -1.722875 234 88 12
-0.34471324 -0.80710757 -1.9203504 234 88 12
-0.32110208 -0.85766709 -1.9764428 234 88 12
-0.43410137 -0.57321453 -1.6580045 234 88 12
0.72832739 -0.74176538 -1.4099587 234 88 12
0.73161554 -0.73443979 -1.4080609 234 88 12
0.74145097 -0.7281732 -1.4098265 234 88 12
0.74468553 -0.72606254 -1.4103836 234 88 12
0.71919477 -0.74347919 -1.4108386 234 88 12
0.736103 -0.75414777 -1.42397 234 88 12
0.74343336 -0.75599009 -1.4283495 234 88 12
0.76273549 -0.7441206 -1.4319899 234 88 12
0.72068089 -0.74987537 -1.418983 234 88 12
0.72700024 -0.73515415 -1.4150916 234 88 12
0.7304042 -0.7331869 -1.4157876 234 88 12
0.74571693 -0.7376371 -1.4251465 234 88 12
0.73758018 -0.72435802 -1.4150624 234 88 12
0.75919288 -0.74060678 -1.4329393 234 88 12
0.75517416 -0.72608232 -1.4242285 234 88 12
0.71006709 -0.74511766 -1.416155 234 88 12
0.71083164 -0.74067146 -1.4144496 234 88 12
0.72474802 -0.72769219 -1.414979 234 88 12
0.87817222 -0.86356235 -1.5504262 234 88 12
1.0125161 -0.99368221 -1.6742079 234 88 12
0.84876812 -0.82573223 -1.5189894 234 88 12
0.70661366 -0.74182105 -1.417434 234 88 12
0.9445802 -0.93276614 -1.616747 234 88 12
0.98739058 -0.96859872 -1.6532865 234 88 12
0.76253927 -0.79746151 -1.4732417 234 88 12
0.96309322 -0.95092785 -1.63649 234 88 12
1.0036319 -1.0185157 -1.688517 234 88 12
0.96596783 -0.98170167 -1.6544728 234 88 12
0.71691245 -0.75095886 -1.4351134 234 88 12
0.71332371 -0.72710317 -1.4226364 234 88 12
0.73406309 -0.73137975 -1.4341246 234 88 12
0.75142479 -0.74320519 -1.4474833 234 88 12
0.98809028 -1.0044601 -1.6773807 234 88 12
0.89364719 -0.91247058 -1.5928314 234 88 12
0.76122689 -0.77720827 -1.4714551 234 88 12
0.72667885 -0.72417188 -1.4317987 234 88 12
0.99130583 -1.004499 -1.6812364 234 88 12
0.92786682 -0.94367963 -1.6253247 234 88 12
0.70250505 -0.73237085 -1.4288234 234 88 12
0.71860832 -0.74218506 -1.4405038 234 88 12
0.73492926 -0.7524243 -1.4524729 234 88 12
0.71044421 -0.7242251 -1.4287826 234 88 12
0.72138864 -0.71371275 -1.4290466 234 88 12
0.7040028 -0.74380577 -1.4389106 234 88 12
0.94282937 -0.95409554 -1.6394627 234 88 12
0.73372865 -0.74614525 -1.4574711 234 88 12
0.91070962 -0.90313715 -1.6054232 234 88 12
0.70648092 -0.73057652 -1.4427586 234 88 12
0.92814785 -0.93373257 -1.6294456 234 88 12
1.4834183 0.039509766 -0.92928547 234 88 12
1.4993645 0.036955237 -0.93693155 234 88 12
1.4844464 0.047022652 -0.92930216 234 88 12
1.4862411 0.050243363 -0.92994505 234 88 12
1.4855305 0.026331184 -0.935256 234 88 12
1.4857109 0.030194674 -0.93510246 234 88 12
1.4930012 0.015172017 -0.94351822 234 88 12
1.4894502 0.028233867 -0.9410888 234 88 12
1.5093795 0.031858549 -0.9500438 234 88 12
1.5015513 0.011468563 -0.95172483 234 88 12
1.47653 0.028877132 -0.93927032 234 88 12
1.4745833 0.021251123 -0.94299829 234 88 12
1.5888543 -0.0014466989 -0.99592507 234 88 12
1.756435 -0.066887893 -1.0754603 234 88 12
1.4986638 0.011667005 -0.95846254 234 88 12
1.4893333 0.019075887 -0.95385617 234 88 12
1.8806691 -0.11824379 -1.1368165 234 88 12
1.4695951 0.014323148 -0.94945759 234 88 12
1.4704455 0.029801795 -0.94892925 234 88 12
1.8709848 -0.11887525 -1.1347847 234 88 12
1.4794108 0.042031709 -0.95218009 234 88 12
1.469366 0.010031915 -0.95372862 234 88 12
1.4687405 0.014195888 -0.95321393 234 88 12
1.4764009 0.027021676 -0.9558261 234 88 12
1.4695754 0.033616345 -0.95245606 234 88 12
1.4775623 0.034414206 -0.95590699 234 88 12
1.4712876 0.0089005856 -0.95873088 234 88 12
1.5108341 0.024545185 -0.97497433 234 88 12
1.4702764 0.044713821 -0.95624208 234 88 12
1.4926708 0.031319898 -0.97071147 234 88 12
1.8688951 -0.13411677 -1.1436921 234 88 12
1.5210512 0.0010305139 -0.98843944 234 88 12
1.474533 0.022430893 -0.96749043 234 88 12
1.479131 0.032338336 -0.96888679 234 88 12
1.4658338 0.017428625 -0.96815217 234 88 12
1.4897175 0.012378256 -0.97846693 234 88 12
1.4680086 0.0362349 -0.96802205 234 88 12
1.8295205 -0.10372604 -1.1276749 234 88 12
1.5175579 0.0014920249 -0.99458975 234 88 12
1.7464445 -0.070995763 -1.0937316 234 88 12
1.5299075 -0.0035592932 -1.003751 234 88 12
1.487061 0.020134147 -0.9848367 234 88 12
1.5388538 0.0038627537 -1.007028 234 88 12
1.8378909 -0.11470757 -1.1388243 234 88 12
1.8192332 -0.10521553 -1.1307194 234 88 12
-0.51691306 1.3260305 -1.199959 234 88 12
-0.51742303 1.326959 -1.2077801 234 88 12
-0.52288979 1.326224 -1.2036887 234 88 12
-0.52343017 1.3271233 -1.2112807 234 88 12
-0.53280079 1.3261791 -1.2068647 234 88 12
-0.51443458 1.3258882 -1.2254728 234 88 12
-0.47761905 1.3205447 -1.1974688 234 88 12
-0.49030524 1.3208097 -1.2038559 234 88 12
-0.50612199 1.324512 -1.2381955 234 88 12
-0.52904117 1.321061 -1.2189959 234 88 12
-0.47333905 1.3176565 -1.2004528 234 88 12
-0.47151408 1.319685 -1.2153316 234 88 12
-0.39004692 1.3535339 -1.4466828 234 88 12
-0.45893806 1.3282679 -1.2766765 234 88 12
-0.4885866 1.3182367 -1.2099423 234 88 12
-0.4944143 1.3172972 -1.2047046 234 88 12
-0.49982154 1.3165262 -1.2006136 234 88 12
-0.48912877 1.3217133 -1.2366616 234 88 12
-0.50791335 1.3160101 -1.1993598 234 88 12
-0.52269262 1.3154943 -1.2003269 234 88 12
-0.52635342 1.3165418 -1.2095381 234 88 12
-0.53338778 1.3152376 -1.2019175 234 88 12
-0.4732005 1.3144699 -1.2025107 234 88 12
-0.47544223 1.3149227 -1.2066116 234 88 12
-0.4648504 1.3204358 -1.244269 234 88 12
-0.48704517 1.3143255 -1.2059205 234 88 12
-0.5090639 1.3148125 -1.2166864 234 88 12
-0.35660979 1.3628033 -1.5427936 234 88 12
-0.48160493 1.3145566 -1.2311045 234 88 12
-0.45572594 1.3259385 -1.305777 234 88 12
-0.49558067 1.3116887 -1.2146486 234 88 12
-0.50892717 1.3116673 -1.2187176 234 88 12
-0.53593719 1.3090539 -1.2082406 234 88 12
-0.46936098 1.3109769 -1.2260171 234 88 12
-0.46652254 1.3135102 -1.243163 234 88 12
-0.43016151 1.3296551 -1.3467832 234 88 12
-0.35196057 1.3624462 -1.5558958 234 88 12
-0.48146975 1.3114476 -1.2331123 234 88 12
-0.41234967 1.3402506 -1.416659 234 88 12
-0.39517292 1.3481041 -1.4672217 234 88 12
-0.31550607 1.3803073 -1.6716987 234 88 12
-0.40958485 1.3444935 -1.4459915 234 88 12
-0.41874385 1.3419729 -1.4308914 234 88 12
-0.50300193 1.3107381 -1.2347246 234 88 12
-0.47611392 1.3221986 -1.3079469 234 88 12
-0.38198465 1.3468256 -1.4727904 234 88 12
-0.32697529 1.3705318 -1.6210552 234 88 12
-0.31845242 1.3748714 -1.648664 234 88 12
-0.33013162 1.370954 -1.624947 234 88 12
-0.30279058 1.3835257 -1.704127 234 88 12
-0.35014477 1.3655016 -1.5930728 234 88 12
-0.30507496 1.3854746 -1.7183741 234 88 12
-0.53286499 1.3024966 -1.2100676 234 88 12
-0.47922826 1.301821 -1.2133542 234 88 12
-0.46939749 1.3074124 -1.2484883 234 88 12
-0.30774236 1.3781964 -1.6822567 234 88 12
-0.3804971 1.3491826 -1.5063797 234 88 12
-0.4598833 1.3179208 -1.3171693 234 88 12
-0.48748562 1.3093135 -1.2667736 234 88 12
-0.51580137 1.3006725 -1.2163595 234 88 12
-0.52062708 1.3000964 -1.2138671 234 88 12
-0.33593383 1.373155 -1.6562971 234 88 12
-0.45361078 1.3285321 -1.387509 234 88 12
-0.48837546 1.2990232 -1.2206318 234 88 12
-0.48876268 1.3016744 -1.2383938 234 88 12
-0.39595488 1.3414488 -1.4763178 234 88 12
-0.50219589 1.3002439 -1.2327584 234 88 12
-0.51027882 1.2983184 -1.2222804 234 88 12
-0.50460881 1.30194 -1.2447486 234 88 12
-0.44461563 1.3271503 -1.3952149 234 88 12
-0.50400937 1.3047683 -1.2634043 234 88 12
-0.52561873 1.2975456 -1.221575 234 88 12
-0.51889288 1.3014703 -1.2457564 234 88 12
-0.53320324 1.2971947 -1.2214347 234 88 12
-0.49200279 1.2956959 -1.222675 234 88 12
-0.45157033 1.3216343 -1.3802457 234 88 12
-0.51508182 1.2985407 -1.2477517 234 88 12
-0.51875859 1.2983809 -1.2477517 234 88 12
-0.50271463 1.2907821 -1.2165604 234 88 12
-0.49962896 1.2977134 -1.2599324 234 88 12
-0.46156773 1.3159689 -1.3658605 234 88 12
-0.50257605 1.2875944 -1.218619 234 88 12
-0.50990778 1.2873743 -1.2192353 234 88 12
-0.49949595 1.294654 -1.2619082 234 88 12
-0.51848716 1.2880528 -1.2258084 234 88 12
-0.49271691 1.3015002 -1.3028586 234 88 12
-0.53441966 1.2870471 -1.223852 234 88 12
-0.5212332 1.293748 -1.2621526 234 88 12
-0.40533826 1.3341984 -1.4997884 234 88 12
-0.46713394 1.3092678 -1.3635477 234 88 12
-0.49059537 1.3032436 -1.332898 234 88 12
-0.50755692 1.2834215 -1.2373316 234 88 12
-0.50552595 1.2857827 -1.2509774 234 88 12
-0.48314479 1.2982831 -1.3201846 234 88 12
-0.48830745 1.2974004 -1.316232 234 88 12
-0.49727425 1.2862858 -1.2721369 234 88 12
-0.51622224 1.2837377 -1.261986 234 88 12
-0.53108549 1.2787813 -1.236613 234 88 12
-0.5131337 1.2744712 -1.2274926 234 88 12
-0.52038598 1.2742896 -1.2282647 234 88 12
-0.51850027 1.2781384 -1.2500141 234 88 12
-0.53573179 1.2735474 -1.2278318 234 88 12
-0.3782289 0.3669385 -1.7420887 234 88 12
-0.3929655 0.37018487 -1.7333484 234 88 12
-0.36667567 0.36667567 -1.7325661 234 88 12
-0.37250513 0.36494157 -1.7372832 234 88 12
-0.38216245 0.36333671 -1.7416488 234 88 12
-0.37450075 0.35257873 -1.7709128 234 88 12
-0.39459088 0.36438298 -1.7388028 234 88 12
-0.342814 0.361754 -1.7356499 234 88 12
-0.34217408 0.35713252 -1.748353 234 88 12
-0.26372606 0.27227932 -1.9815882 234 88 12
-0.25238001 0.25777853 -2.0214465 234 88 12
-0.23747328 0.23998623 -2.0703521 234 88 12
-0.27510828 0.27510828 -1.9738123 234 88 12
-0.36351255 0.35974556 -1.7411705 234 88 12
-0.3672795 0.35974556 -1.7411705 234 88 12
-0.24015264 0.23283835 -2.0899992 234 88 12
-0.37657323 0.36143461 -1.7365279 234 88 12
-0.3636376 0.34554616 -1.7802004 234 88 12
-0.21335089 0.20073903 -2.1782305 234 88 12
-0.27262464 0.25400639 -2.0318148 234 88 12
-0.24340037 0.22458681 -2.1126802 234 88 12
-0.35304859 0.32264248 -1.8431555 234 88 12
-0.3983669 0.360607 -1.7388028 234 88 12
-0.33505139 0.34986028 -1.7581658 234 88 12
-0.33404112 0.34499329 -1.7716852 234 88 12
-0.28700686 0.29321238 -1.9155211 234 88 12
-0.31550092 0.31219724 -1.8627855 234 88 12
-0.21664944 0.21215931 -2.1406686 234 88 12
-0.35382876 0.34294173 -1.777384 234 88 12
-0.36503968 0.34669599 -1.7669556 234 88 12
-0.35035577 0.3261933 -1.8239075 234 88 12
-0.39541009 0.35757181 -1.736745 234 88 12
-0.19913778 0.19913778 -2.1709232 234 88 12
-0.26081452 0.25805455 -2.0055153 234 88 12
-0.23684961 0.22948641 -2.0857201 234 88 12
-0.35524368 0.32405153 -1.8202296 234 88 12
-0.39162627 0.35378799 -1.736745 234 88 12
-0.39398867 0.34589615 -1.7589011 234 88 12
-0.40161619 0.34931266 -1.7493093 234 88 12
-0.40798706 0.3515833 -1.7429346 234 88 12
-0.41818181 0.35384616 -1.7365817 234 88 12
-0.3384361 0.34213486 -1.7590767 234 88 12
-0.19970597 0.19547939 -2.1752613 234 88 12
-0.28173855 0.27288812 -1.9555877 234 88 12
-0.21416338 0.20528613 -2.1474311 234 88 12
-0.36907983 0.35015267 -1.7363235 234 88 12
-0.37220907 0.3460235 -1.7480414 234 88 12
-0.38308606 0.34911785 -1.7392602 234 88 12
-0.35524368 0.32058576 -1.8202296 234 88 12
-0.31632453 0.26967761 -1.9646987 234 88 12
-0.36687693 0.30991888 -1.8505005 234 88 12
-0.41550756 0.34782305 -1.7429346 234 88 12
-0.42301813 0.35093433 -1.7341053 234 88 12
-0.34649241 0.34649241 -1.7359644 234 88 12
-0.34679183 0.34304273 -1.7458609 234 88 12
-0.35289609 0.34534752 -1.7392489 234 88 12
-0.35074928 0.33961439 -1.7556964 234 88 12
-0.35409978 0.32238936 -1.8051125 234 88 12
-0.37256336 0.33585763 -1.766474 234 88 12
-0.32611442 0.29111677 -1.8948289 234 88 12
-0.39265102 0.34712625 -1.734146 234 88 12
-0.26462242 0.22316083 -2.0897844 234 88 12
-0.32940397 0.27525535 -1.940333 234 88 12
-0.33955142 0.281167 -1.9233733 234 88 12
-0.37467459 0.33739352 -1.7513723 234 88 12
-0.3669427 0.32398355 -1.7902687 234 88 12
-0.38762909 0.33569792 -1.7562906 234 88 12
-0.28488371 0.23983234 -2.0343537 234 88 12
-0.38222378 0.31590185 -1.8137101 234 88 12
-0.41942048 0.34350726 -1.7336391 234 88 12
-0.41030693 0.33302939 -1.7640308 234 88 12
-0.36243802 0.33966705 -1.7337698 234 88 12
-0.35846862 0.33246574 -1.754891 234 88 12
-0.38174793 0.33996457 -1.7328972 234 88 12
-0.38069081 0.33568305 -1.7454548 234 88 12
-0.24202825 0.20339464 -2.1334515 234 88 12
-0.23983809 0.19603205 -2.1550457 234 88 12
-0.30723625 0.24884747 -2.0001402 234 88 12
-0.35122892 0.31880781 -1.7843837 234 88 12
-0.37261766 0.33478844 -1.7369834 234 88 12
-0.37756595 0.335825 -1.7339089 234 88 12
-0.39503655 0.3345525 -1.7376833 234 88 12
-0.38107631 0.31967065 -1.7818244 234 88 12
-0.4071489 0.3351877 -1.7357992 234 88 12
-0.41424939 0.3348043 -1.7369363 234 88 12
-0.38186815 0.33247229 -1.7325832 234 88 12
-0.39326707 0.33247218 -1.7325835 234 88 12
0.7769134 0.2534292 -1.5679682 234 88 12
0.78761357 0.25621364 -1.5787011 234 88 12
0.78975612 0.23877576 -1.5868243 234 88 12
0.79838341 0.24618566 -1.595189 234 88 12
0.77182013 0.24154454 -1.5739053 234 88 12
0.7951445 0.24265461 -1.5971777 234 88 12
0.77419949 0.25591186 -1.5756598 234 88 12
0.92239416 0.19159785 -1.726627 234 88 12
1.0831063 0.11262593 -1.89367 234 88 12
0.92670226 0.18858455 -1.735146 234 88 12
0.77838588 0.23248439 -1.5911578 234 88 12
0.76695913 0.24117582 -1.5795255 234 88 12
0.78069651 0.24283455 -1.5929914 234 88 12
0.97827929 0.15860564 -1.7912999 234 88 12
1.0063347 0.14866821 -1.8193717 234 88 12
0.89437705 0.20231104 -1.7067493 234 88 12
0.76531637 0.23297943 -1.5834305 234 88 12
1.028708 0.13291349 -1.8453594 234 88 12
0.76284802 0.26100916 -1.5798236 234 88 12
0.77707762 0.241965 -1.5996016 234 88 12
1.0136652 0.1411894 -1.8336374 234 88 12
0.76429278 0.25521529 -1.5866252 234 88 12
0.75487202 0.23495382 -1.5834881 234 88 12
0.75469166 0.23888943 -1.5831492 234 88 12
0.76131433 0.24377277 -1.5893302 234 88 12
1.0117136 0.14372803 -1.8349665 234 88 12
1.0035232 0.1499175 -1.8268096 234 88 12
0.75602448 0.25250718 -1.5889733 234 88 12
0.74950469 0.22326683 -1.589051 234 88 12
0.77028352 0.24008881 -1.613026 234 88 12
0.74736619 0.2257185 -1.5970215 234 88 12
0.74234641 0.23156354 -1.5920807 234 88 12
0.77442378 0.22605318 -1.6223562 234 88 12
0.75290513 0.23872882 -1.6016805 234 88 12
0.76096672 0.23912673 -1.6092167 234 88 12
0.77714586 0.23964961 -1.6243525 234 88 12
0.86293972 0.20571311 -1.7061089 234 88 12
1.0346274 0.11112895 -1.8738319 234 88 12
0.76723319 0.22046679 -1.6207005 234 88 12
0.837695 0.21233991 -1.6865673 234 88 12
0.74087298 0.22606041 -1.600945 234 88 12
1.0431311 0.10937352 -1.8847582 234 88 12
0.8678664 0.1824255 -1.7199724 234 88 12
0.78901875 0.21785457 -1.645736 234 88 12
0.74007791 0.24171412 -1.5995823 234 88 12
0.75833279 0.23789571 -1.6165936 234 88 12
0.7710709 0.23991373 -1.6282759 234 88 12
0.74016511 0.25704423 -1.5990473 234 88 12
0.79219621 0.20838453 -1.6536542 234 88 12
0.95594531 0.15145275 -1.8060626 234 88 12
0.86105889 0.20020786 -1.7171192 234 88 12
0.94647247 0.1490448 -1.8010129 234 88 12
0.96265155 0.15053388 -1.8156824 234 88 12
0.88021976 0.18793543 -1.7391605 234 88 12
