ply
format ascii 1.0
element vertex 2189
property float x
property float y
property float z
property uchar red
property uchar green
property uchar blue
end_header
-1.043601 -0.63560599 1.5429498 234 88 12
-1.0247438 -0.60306644 1.528868 234 88 12
-0.99877542 -0.55644554 1.5089799 234 88 12
-0.95009124 -0.48034582 1.4747913 234 88 12
-0.96755356 -0.52312356 1.4912961 234 88 12
-0.95352596 -0.50294363 1.4819238 234 88 12
-0.9716059 -0.47426462 1.4753119 234 88 12
-0.99801624 -0.54561388 1.5023583 234 88 12
-0.99557084 -0.54805934 1.5023583 234 88 12
-0.9745366 -0.51238513 1.4866692 234 88 12
-0.96808565 -0.53005332 1.4897726 234 88 12
-0.93998688 -0.49024549 1.4709853 234 88 12
-0.98347151 -0.48940137 1.4791279 234 88 12
-0.97424978 -0.47787046 1.4733305 234 88 12
-0.97154546 -0.48033243 1.4732628 234 88 12
-0.95950693 -0.47152263 1.4674387 234 88 12
-0.94644397 -0.47739008 1.4654286 234 88 12
-0.95149612 -0.4954212 1.471877 234 88 12
-0.96211684 -0.53171152 1.484982 234 88 12
-0.94842488 -0.51269126 1.4758435 234 88 12
-0.98021227 -0.48036328 1.4719858 234 88 12
-0.96269083 -0.46795231 1.4635428 234 88 12
-0.95688665 -0.47236255 1.4631497 234 88 12
-0.94537693 -0.48147509 1.4624735 234 88 12
-0.9595933 -0.53267634 1.4809257 234 88 12
-0.94482583 -0.53439015 1.4772437 234 88 12
-0.98699236 -0.49292222 1.4737672 234 88 12
-0.954005 -0.48085713 1.4609367 234 88 12
-0.94881284 -0.49446291 1.4633328 234 88 12
-0.94713253 -0.50683469 1.4663776 234 88 12
-0.98243195 -0.5825274 1.4979872 234 88 12
-0.96446079 -0.55526376 1.4851047 234 88 12
-0.94102126 -0.51814884 1.4678594 234 88 12
-0.94542462 -0.54137796 1.4757289 234 88 12
-0.97640246 -0.47635907 1.4622672 234 88 12
-0.971111 -0.48165053 1.4622672 234 88 12
-1.0172927 -0.58613783 1.5055889 234 88 12
-1.0170306 -0.61401623 1.5135293 234 88 12
-0.94761813 -0.49824917 1.4602849 234 88 12
-0.94892681 -0.50862896 1.4636457 234 88 12
-0.94629031 -0.51126546 1.4636457 234 88 12
-0.94233859 -0.5190447 1.4647462 234 88 12
-0.93162823 -0.50647587 1.4580528 234 88 12
-0.99976271 -0.52443486 1.4792168 234 88 12
-0.97737509 -0.48467261 1.4611759 234 88 12
-0.97110116 -0.51189399 1.4672567 234 88 12
-0.95079243 -0.51829374 1.4632192 234 88 12
-0.97848731 -0.50134653 1.4626071 234 88 12
-0.98031563 -0.52885544 1.4712043 234 88 12
-0.96363962 -0.5107525 1.4610124 234 88 12
-0.96194607 -0.53822219 1.4685661 234 88 12
-0.94161302 -0.53715938 1.462296 234 88 12
-0.98962033 -0.49861175 1.46134 234 88 12
-0.97659713 -0.47893366 1.451666 234 88 12
-0.97206438 -0.47763172 1.44994 234 88 12
-0.96939176 -0.48030433 1.44994 234 88 12
-0.96016771 -0.49396607 1.4512527 234 88 12
-0.95750368 -0.4966301 1.4512527 234 88 12
-0.94029862 -0.51028574 1.4502027 234 88 12
-0.93135095 -0.52416837 1.4516627 234 88 12
-1.0374057 -0.60708529 1.5042547 234 88 12
-0.97327012 -0.49466208 1.4515301 234 88 12
-0.9593972 -0.50658298 1.4509472 234 88 12
-0.9376803 -0.51914608 1.4482136 234 88 12
-1.0147921 -0.48335007 1.4568115 234 88 12
-1.0173408 -0.49781057 1.4619387 234 88 12
-0.9976238 -0.46984386 1.4475652 234 88 12
-0.99384862 -0.46997407 1.4464664 234 88 12
-1.0042872 -0.51003951 1.4616902 234 88 12
-0.9937644 -0.51162642 1.4589965 234 88 12
-0.98057467 -0.49163353 1.4489942 234 88 12
-0.96135569 -0.51659065 1.4507239 234 88 12
-1.024852 -0.65576291 1.5118152 234 88 12
-0.94993222 -0.51767415 1.447607 234 88 12
-0.94481802 -0.54599673 1.4546028 234 88 12
-1.0164087 -0.47606185 1.4513261 234 88 12
-1.0041606 -0.48239914 1.4495277 234 88 12
-0.99076366 -0.50315219 1.4517659 234 88 12
-1.0253564 -0.62819862 1.5003377 234 88 12
-0.96293521 -0.51796174 1.4478047 234 88 12
-1.0346985 -0.51687193 1.4656798 234 88 12
-1.0239009 -0.49994621 1.4571658 234 88 12
-1.0010949 -0.46438646 1.4392418 234 88 12
-0.99603468 -0.470359 1.4395219 234 88 12
-0.98914343 -0.48080978 1.4406151 234 88 12
-0.98494732 -0.48013249 1.4391184 234 88 12
-0.98288548 -0.48411673 1.4397088 234 88 12
-0.97236723 -0.49509874 1.4398512 234 88 12
-0.9592827 -0.50892168 1.440078 234 88 12
-0.94791335 -0.51821721 1.4394411 234 88 12
-0.93777061 -0.52988195 1.4399085 234 88 12
-0.93790567 -0.53770143 1.4423513 234 88 12
-1.0242648 -0.48981279 1.4504111 234 88 12
-1.0145444 -0.48437825 1.4457138 234 88 12
-1.0000914 -0.46853012 1.4363217 234 88 12
-0.97605455 -0.49257824 1.4363252 234 88 12
-0.98416609 -0.51772225 1.446633 234 88 12
-0.96109629 -0.51073527 1.4373167 234 88 12
-0.96099758 -0.51847088 1.4396838 234 88 12
-0.98239207 -0.56821698 1.4617343 234 88 12
-0.94706076 -0.52270252 1.4366755 234 88 12
-0.95448631 -0.5444653 1.4457227 234 88 12
-0.94185871 -0.54346657 1.4414991 234 88 12
-1.013947 -0.47180691 1.437776 234 88 12
-1.0206318 -0.49620596 1.4474999 234 88 12
-0.9891572 -0.50180674 1.4394058 234 88 12
-0.97256351 -0.50795794 1.4361391 234 88 12
-0.97443736 -0.55852062 1.4525427 234 88 12
-0.96573395 -0.54920942 1.4469073 234 88 12
-0.9778955 -0.57998979 1.4603407 234 88 12
-0.94790459 -0.53040248 1.4354464 234 88 12
-0.94365424 -0.5452621 1.4387653 234 88 12
-1.0366315 -0.52289313 1.4571897 234 88 12
-1.0174011 -0.48630133 1.4395659 234 88 12
-0.99814177 -0.48559725 1.4332632 234 88 12
-0.99526423 -0.52104419 1.4435457 234 88 12
-0.98774666 -0.51323056 1.4387054 234 88 12
-1.0289966 -0.51108611 1.4473116 234 88 12
-0.99332434 -0.5390442 1.4448538 234 88 12
-0.9754687 -0.5182007 1.4325236 234 88 12
-0.96679378 -0.5402844 1.4367959 234 88 12
-0.95963001 -0.54181343 1.4350005 234 88 12
-1.0183475 -0.50113147 1.4369267 234 88 12
-1.0039108 -0.48542169 1.4272336 234 88 12
-0.99654651 -0.48619369 1.4251139 234 88 12
-0.99359083 -0.49674582 1.4275565 234 88 12
-1.039713 -0.62668127 1.484165 234 88 12
-0.98006487 -0.50952774 1.4273173 234 88 12
-0.97099012 -0.51527333 1.4262468 234 88 12
-1.0232799 -0.50161856 1.4348441 234 88 12
-1.0236331 -0.51103038 1.4380126 234 88 12
-1.0000643 -0.5170688 1.4323245 234 88 12
-0.9895587 -0.51105487 1.4269645 234 88 12
-0.98185229 -0.50303143 1.4218607 234 88 12
-0.9926393 -0.53381348 1.4353485 234 88 12
-0.9732635 -0.51802105 1.4239376 234 88 12
-0.96919423 -0.51784986 1.4225616 234 88 12
-0.9729622 -0.53337097 1.4288204 234 88 12
-0.96082067 -0.53301966 1.4247668 234 88 12
-0.95919204 -0.53765774 1.4257433 234 88 12
-1.0155221 -0.49862662 1.4274787 234 88 12
-1.0244955 -0.52762645 1.4399117 234 88 12
-1.0329322 -0.55492383 1.4516116 234 88 12
-1.0065809 -0.50411063 1.4263468 234 88 12
-0.9946183 -0.55185634 1.4380627 234 88 12
-0.99041432 -0.55882066 1.4389665 234 88 12
-0.97453463 -0.53472435 1.4258777 234 88 12
-0.95848775 -0.52676517 1.4180177 234 88 12
-1.0086497 -0.50652367 1.4239185 234 88 12
-0.99891937 -0.55103874 1.4354107 234 88 12
-0.96299416 -0.52590853 1.4152391 234 88 12
-1.0397965 -0.5741623 1.4529331 234 88 12
-1.0167332 -0.54712737 1.4362321 234 88 12
-0.9959985 -0.51868373 1.4198378 234 88 12
-0.98653281 -0.51514864 1.4155039 234 88 12
-0.98386961 -0.51781183 1.4155039 234 88 12
-1.0000458 -0.51700848 1.4166958 234 88 12
-0.98569542 -0.51965207 1.4127581 234 88 12
-0.97710353 -0.53445083 1.4148458 234 88 12
-0.97119898 -0.53061277 1.4115688 234 88 12
-1.0526896 -0.62918657 1.4686782 234 88 12
-1.0075059 -0.53930229 1.4228393 234 88 12
-1.0063024 -0.54483646 1.424309 234 88 12
-0.99282223 -0.54066145 1.4183172 234 88 12
-0.98501879 -0.55641347 1.4210148 234 88 12
-1.0132431 -0.54150063 1.4216706 234 88 12
-1.0408844 -0.60922116 1.4543232 234 88 12
-1.0194068 -0.57083052 1.4338238 234 88 12
-0.9973917 -0.53205746 1.4130094 234 88 12
-1.0183561 -0.59178168 1.4406378 234 88 12
-1.0002624 -0.56208438 1.4242738 234 88 12
-1.005904 -0.59646046 1.4379762 234 88 12
-1.0827409 -0.7044574 1.4980901 234 88 12
-1.0677221 -0.6792019 1.4841771 234 88 12
-0.98533124 -0.52943552 1.403977 234 88 12
-1.0090314 -0.54466212 1.4135165 234 88 12
-0.99618047 -0.5254553 1.4023438 234 88 12
-0.9908033 -0.5306527 1.4022812 234 88 12
-0.98456019 -0.5340811 1.4013001 234 88 12
-0.98151064 -0.54399967 1.4036942 234 88 12
-1.0234836 -0.57371122 1.4248821 234 88 12
-1.0173794 -0.56857246 1.4209291 234 88 12
-1.0042949 -0.53037137 1.3988863 234 88 12
-0.99545527 -0.55265683 1.4036556 234 88 12
-0.98777133 -0.54495722 1.3981991 234 88 12
-1.0066451 -0.54166132 1.3997341 234 88 12
-0.98990405 -0.53110659 1.3899672 234 88 12
-1.0039537 -0.58209109 1.4093431 234 88 12
-0.98990524 -0.54364318 1.3863127 234 88 12
-1.0038495 -0.55432349 1.3912518 234 88 12
0.13013005 -0.54377377 1.7286204 234 88 12
0.13439801 -0.53637213 1.7242435 234 88 12
0.13824292 -0.53510284 1.723575 234 88 12
0.14441763 -0.55042201 1.7330297 234 88 12
0.14811791 -0.55026114 1.7330297 234 88 12
0.15300453 -0.53751421 1.7254269 234 88 12
0.16004799 -0.54166389 1.7281296 234 88 12
0.16378058 -0.54150158 1.7281296 234 88 12
0.16906309 -0.52726483 1.7196337 234 88 12
0.16964747 -0.55518699 1.7365853 234 88 12
0.17597227 -0.5325951 1.7230489 234 88 12
0.12929617 -0.56060857 1.7349392 234 88 12
0.134464 -0.54048365 1.7227845 234 88 12
0.13829355 -0.53936666 1.7222041 234 88 12
0.14997967 -0.53434241 1.7194457 234 88 12
0.1612145 -0.53476787 1.7200038 234 88 12
0.16708194 -0.58183295 1.7489061 234 88 12
0.13186738 -0.57999468 1.7430345 234 88 12
0.14346845 -0.61043024 1.7620637 234 88 12
0.15314972 -0.54517061 1.7221855 234 88 12
0.15828353 -0.56768173 1.736168 234 88 12
0.13237981 -0.57799214 1.7379686 234 88 12
0.13858549 -0.54546475 1.7179906 234 88 12
0.15870152 -0.56800723 1.7324934 234 88 12
0.13516293 -0.5461657 1.7143214 234 88 12
0.12025588 -0.70530754 1.8098145 234 88 12
0.13943234 -0.54466999 1.70946 234 88 12
0.15081337 -0.54399043 1.709344 234 88 12
0.14786379 -0.61357766 1.7529632 234 88 12
0.13063134 -0.56692165 1.7192169 234 88 12
0.11662275 -0.79744005 1.8646024 234 88 12
0.15699416 -0.56202328 1.7168442 234 88 12
0.13503009 -0.6085884 1.7418667 234 88 12
0.14317948 -0.55459154 1.7077091 234 88 12
0.14637375 -0.5608958 1.7118118 234 88 12
0.13011438 -0.58387375 1.7220367 234 88 12
0.14871417 -0.58029866 1.7202629 234 88 12
0.1513772 -0.59050179 1.7268794 234 88 12
0.13550924 -0.56638867 1.7069145 234 88 12
0.14370185 -0.59979314 1.7287127 234 88 12
0.1506193 -0.56464177 1.7062109 234 88 12
0.13525611 -0.57451248 1.7080998 234 88 12
-1.6816678 -0.38057765 0.78161412 234 88 12
-1.6800984 -0.38360891 0.78161412 234 88 12
-1.6385375 -0.34485334 0.77340829 234 88 12
-1.6131339 -0.31744301 0.76813608 234 88 12
-1.6114082 -0.32077602 0.76813608 234 88 12
-1.6141657 -0.32981849 0.76912659 234 88 12
-1.6172644 -0.33921942 0.77018732 234 88 12
-1.6326663 -0.31440526 0.76685846 234 88 12
-1.6385577 -0.33320475 0.76899105 234 88 12
-1.6101943 -0.30717117 0.76328003 234 88 12
-1.6102057 -0.31279543 0.76367903 234 88 12
-1.6058587 -0.31279865 0.76308596 234 88 12
-1.626038 -0.30465609 0.76154745 234 88 12
-1.6172096 -0.2985512 0.75987095 234 88 12
-1.6076851 -0.33094481 0.76088428 234 88 12
-1.6153691 -0.34606102 0.76305318 234 88 12
-1.614686 -0.31124884 0.75668383 234 88 12
-1.6309842 -0.30944225 0.75517213 234 88 12
-1.6357751 -0.32691142 0.75719965 234 88 12
-1.6232355 -0.33255219 0.75579 234 88 12
-1.6126691 -0.32452017 0.75363213 234 88 12
-1.6287576 -0.37183982 0.75958008 234 88 12
-1.6233 -0.37039655 0.75867081 234 88 12
-1.6258597 -0.30166748 0.75007951 234 88 12
-1.6235542 -0.30424193 0.74993372 234 88 12
-1.6140641 -0.30866516 0.74885434 234 88 12
-1.6336446 -0.33967701 0.75419676 234 88 12
-1.6155207 -0.32176068 0.75008911 234 88 12
-1.608871 -0.32438412 0.74929589 234 88 12
-1.6112417 -0.33293095 0.75031465 234 88 12
-1.6497316 -0.38674819 0.76026201 234 88 12
-1.6481076 -0.38988504 0.76026201 234 88 12
-1.5998169 -0.34071547 0.74920613 234 88 12
-1.5994017 -0.35115179 0.74995387 234 88 12
-1.6467739 -0.33969784 0.7525425 234 88 12
-1.6813241 -0.40070623 0.76268077 234 88 12
-1.6342338 -0.34502572 0.75104302 234 88 12
-1.62547 -0.3392072 0.74923778 234 88 12
-1.6134707 -0.3349129 0.74705756 234 88 12
-1.6329836 -0.36492667 0.7524308 234 88 12
-1.6178082 -0.35129294 0.74902248 234 88 12
-1.6055318 -0.34695098 0.74679601 234 88 12
-1.6490428 -0.36329687 0.7511788 234 88 12
-1.638945 -0.37162268 0.7502721 234 88 12
-1.6722138 -0.36115393 0.75111669 234 88 12
-1.6290287 -0.30879587 0.73986459 234 88 12
-1.635999 -0.32919163 0.74267071 234 88 12
-1.6185244 -0.31182054 0.73843378 234 88 12
-1.6337276 -0.37488046 0.74609363 234 88 12
-1.6051499 -0.36121389 0.74038643 234 88 12
-1.6422809 -0.32003707 0.73921543 234 88 12
-1.6240668 -0.32377532 0.73655427 234 88 12
-1.7080196 -0.44274557 0.76034826 234 88 12
-1.7559251 -0.50870699 0.7737627 234 88 12
-1.6154478 -0.3349013 0.73608691 234 88 12
-1.6864831 -0.42993173 0.75574297 234 88 12
-1.6112499 -0.34064677 0.73588693 234 88 12
-1.6116471 -0.3466332 0.73645854 234 88 12
-1.6037989 -0.35880283 0.73620558 234 88 12
-1.6297015 -0.30219138 0.73186249 234 88 12
-1.6426308 -0.32515255 0.73600423 234 88 12
-1.6259078 -0.3084586 0.73177087 234 88 12
-1.6127658 -0.34721237 0.73292613 234 88 12
-1.6606234 -0.39062828 0.74113113 234 88 12
-1.684567 -0.4407644 0.74962991 234 88 12
-1.657125 -0.42697921 0.74374062 234 88 12
-1.6310291 -0.30211166 0.7244845 234 88 12
-1.6382722 -0.31750125 0.72712725 234 88 12
-1.6291351 -0.31092367 0.72494805 234 88 12
-1.6247725 -0.31643677 0.72468603 234 88 12
-1.6503156 -0.35540923 0.73262966 234 88 12
-1.6246047 -0.3274225 0.72564507 234 88 12
-1.6257124 -0.33993056 0.72696269 234 88 12
-1.6257852 -0.34551552 0.72747773 234 88 12
-1.6334084 -0.36061355 0.7301603 234 88 12
-1.6567286 -0.3952674 0.73732924 234 88 12
-1.611372 -0.34384108 0.72482288 234 88 12
-1.6089751 -0.34636769 0.72463369 234 88 12
-1.6205347 -0.37145355 0.72889864 234 88 12
-1.6046284 -0.35746741 0.724877 234 88 12
-1.643217 -0.3232199 0.72476923 234 88 12
-1.6866484 -0.39695245 0.73922831 234 88 12
-1.6430231 -0.34502447 0.72673512 234 88 12
-1.6257247 -0.32800236 0.72210866 234 88 12
-1.6220396 -0.33437261 0.72204012 234 88 12
-1.6529232 -0.37923697 0.7316277 234 88 12
-1.6137886 -0.34603652 0.72164816 234 88 12
-1.6441165 -0.34559056 0.72328264 234 88 12
-1.6298995 -0.33809161 0.72001332 234 88 12
-1.6234276 -0.36268276 0.72114408 234 88 12
-1.6378274 -0.3084873 0.71488094 234 88 12
-1.6272049 -0.36117509 0.71794707 234 88 12
-1.6131756 -0.37092164 0.71629339 234 88 12
-1.6361581 -0.30528775 0.71045148 234 88 12
-1.6337893 -0.31346285 0.71080101 234 88 12
-1.6370074 -0.32338485 0.71236801 234 88 12
-1.6527736 -0.34978327 0.71788841 234 88 12
-1.6568162 -0.36050811 0.71968806 234 88 12
-1.6256015 -0.336371 0.7114898 234 88 12
-1.6199837 -0.3347345 0.71027726 234 88 12
-1.6278106 -0.35022417 0.71324933 234 88 12
-1.6214876 -0.34771672 0.71181995 234 88 12
-1.6168766 -0.3583954 0.71199208 234 88 12
-1.639762 -0.30923152 0.70770282 234 88 12
-1.6715865 -0.36846682 0.71964067 234 88 12
-1.6473068 -0.34717077 0.71289635 234 88 12
-1.6400936 -0.32006276 0.70504069 234 88 12
-1.654801 -0.36154842 0.71207929 234 88 12
-1.6811223 -0.40105626 0.72117782 234 88 12
-1.6709108 -0.34967986 0.71037221 234 88 12
-1.6502162 -0.33272231 0.7045362 234 88 12
-1.6427339 -0.33386543 0.70317185 234 88 12
-1.6619495 -0.36468711 0.71013629 234 88 12
-1.6304096 -0.32882226 0.70021456 234 88 12
-1.6266836 -0.33517274 0.70012784 234 88 12
-1.6256464 -0.34495422 0.70092517 234 88 12
-1.6238586 -0.34820971 0.70090491 234 88 12
-1.615456 -0.34315762 0.69872326 234 88 12
-1.6501276 -0.32049951 0.69948506 234 88 12
-1.6631591 -0.34372738 0.70453429 234 88 12
-1.6456884 -0.33132473 0.69971991 234 88 12
-1.6438421 -0.33443916 0.69967276 234 88 12
-1.647163 -0.36074299 0.7030862 234 88 12
-1.6481961 -0.37817571 0.70511305 234 88 12
-1.6831441 -0.36453423 0.7071377 234 88 12
-1.6798977 -0.37080467 0.7071377 234 88 12
-1.6460476 -0.35300335 0.69830823 234 88 12
-1.643163 -0.37098941 0.69962597 234 88 12
-1.6595287 -0.34251985 0.69623226 234 88 12
-1.6568002 -0.34985447 0.69645512 234 88 12
-1.6309129 -0.32680881 0.68856841 234 88 12
-1.6550245 -0.36922058 0.69817579 234 88 12
-1.6268559 -0.33837882 0.68897158 234 88 12
-1.7301735 -0.42694736 0.71674669 234 88 12
-1.6631052 -0.34092954 0.69307923 234 88 12
-1.7002865 -0.39652672 0.70706856 234 88 12
-1.6472818 -0.33072951 0.68860364 234 88 12
-1.6338253 -0.34647891 0.6874792 234 88 12
-1.6632191 -0.34016934 0.689282 234 88 12
-1.6528243 -0.33166498 0.68609148 234 88 12
-1.6466804 -0.33461195 0.68509579 234 88 12
-1.6590711 -0.33917844 0.68451279 234 88 12
-1.6669793 -0.36075515 0.68869412 234 88 12
-1.660174 -0.36258844 0.68741071 234 88 12
-1.6598865 -0.34490496 0.68158054 234 88 12
-1.6426343 -0.32740134 0.67571998 234 88 12
-1.6370827 -0.3313258 0.67493612 234 88 12
-1.6342335 -0.33883345 0.6751672 234 88 12
-1.650049 -0.32513753 0.67326814 234 88 12
-1.6515254 -0.3327612 0.67449534 234 88 12
-1.6432245 -0.33851889 0.67329156 234 88 12
-1.6370319 -0.34716454 0.67290318 234 88 12
-1.6634346 -0.38658753 0.68349618 234 88 12
-1.6351186 -0.33169445 0.66286051 234 88 12
-1.6363637 -0.33896005 0.66402936 234 88 12
-1.660648 -0.38136044 0.67482287 234 88 12
-1.686154 -0.37669134 0.67656589 234 88 12
-1.6548836 -0.34012297 0.66466582 234 88 12
-1.6398653 -0.33138353 0.6600334 234 88 12
-1.6392269 -0.3361893 0.66047186 234 88 12
-1.6977011 -0.39663449 0.67817277 234 88 12
-1.6615144 -0.35912487 0.66479141 234 88 12
-0.86334729 -1.3322852 0.79417229 234 88 12
-0.85511291 -1.3194468 0.79229033 234 88 12
-0.85979956 -1.3445787 0.79532295 234 88 12
-0.8533088 -1.3369956 0.7941187 234 88 12
-0.84666604 -1.3291978 0.79288208 234 88 12
-0.84333307 -1.3309233 0.79288208 234 88 12
-0.84828317 -1.3556614 0.7958864 234 88 12
-0.86489385 -1.3246596 0.78974128 234 88 12
-0.85811323 -1.3160591 0.78836882 234 88 12
-0.85468209 -1.3936385 0.79695886 234 88 12
-0.88596749 -1.3766198 0.79338306 234 88 12
-0.86211187 -1.3156178 0.78482974 234 88 12
-0.8586973 -1.3171872 0.78480661 234 88 12
-0.84828907 -1.3214456 0.78467476 234 88 12
-0.84257168 -1.3496596 0.78761953 234 88 12
-0.83368337 -1.3361379 0.78550619 234 88 12
-0.84134275 -1.334905 0.78211987 234 88 12
-0.87834227 -1.3520099 0.78287286 234 88 12
-0.8649258 -1.3228565 0.7784254 234 88 12
-0.86462587 -1.333679 0.77973956 234 88 12
-0.85265321 -1.3441315 0.78026366 234 88 12
-0.83540463 -1.3713976 0.78252262 234 88 12
-0.83465064 -1.3795459 0.78347838 234 88 12
-0.86523014 -1.3231406 0.77475798 234 88 12
-0.85381991 -1.3243046 0.77415788 234 88 12
-0.84752578 -1.3289824 0.77433741 234 88 12
-0.84388202 -1.3299004 0.77421492 234 88 12
-0.86045623 -1.4175773 0.78639245 234 88 12
-0.83285838 -1.3539084 0.77653009 234 88 12
-0.82355231 -1.3398217 0.77413851 234 88 12
-0.91005009 -1.3691658 0.78001481 234 88 12
-0.89893925 -1.3443758 0.77604955 234 88 12
-0.89570665 -1.3460495 0.77604955 234 88 12
-0.88287359 -1.3167201 0.77137917 234 88 12
-0.88436013 -1.3338352 0.77370113 234 88 12
-0.86579889 -1.3474681 0.77422339 234 88 12
-0.83713573 -1.3436993 0.77180749 234 88 12
-0.83324361 -1.3439099 0.77157319 234 88 12
-0.82454163 -1.3420166 0.77074248 234 88 12
-0.82781339 -1.3711792 0.7747485 234 88 12
-0.92559898 -1.4090084 0.7828815 234 88 12
-0.90171367 -1.3403575 0.77209377 234 88 12
-0.88893318 -1.3104007 0.76722378 234 88 12
-0.87729841 -1.3229488 0.76809251 234 88 12
-0.87576479 -1.3421706 0.77054626 234 88 12
-0.84935248 -1.3331203 0.76752037 234 88 12
-0.83984488 -1.4017956 0.77600932 234 88 12
-0.89896601 -1.3174086 0.76513749 234 88 12
-0.89954358 -1.3185241 0.7616148 234 88 12
-0.89714158 -1.3233395 0.76211423 234 88 12
-0.89684111 -1.3350564 0.76373088 234 88 12
-0.88347828 -1.3164029 0.76015508 234 88 12
-0.88192457 -1.323886 0.76108897 234 88 12
-0.87000132 -1.3231394 0.76012141 234 88 12
-0.86038798 -1.3296698 0.76033854 234 88 12
-0.84760684 -1.338336 0.76062506 234 88 12
-0.8487615 -1.3526195 0.76270598 234 88 12
-0.83548439 -1.3486205 0.76118559 234 88 12
-0.82363158 -1.3489424 0.76037246 234 88 12
-0.82165807 -1.3542175 0.76096725 234 88 12
-0.89985782 -1.3316662 0.75979453 234 88 12
-0.86635256 -1.3467549 0.75947124 234 88 12
-0.85130328 -1.3482621 0.75857139 234 88 12
-0.84178156 -1.3545294 0.7587629 234 88 12
-0.82556063 -1.3639038 0.75890267 234 88 12
-0.92027551 -1.3997221 0.76762694 234 88 12
-0.89596325 -1.3305422 0.75564432 234 88 12
-0.86492509 -1.3302575 0.75324762 234 88 12
-0.88797557 -1.316059 0.749143 234 88 12
-0.88639659 -1.323575 0.75014722 234 88 12
-0.88305736 -1.3253038 0.75014722 234 88 12
-0.87245899 -1.3287011 0.74983388 234 88 12
-0.86973447 -1.3323234 0.75016546 234 88 12
-0.87438625 -1.3580718 0.7543866 234 88 12
-0.86070907 -1.340417 0.7506783 234 88 12
-0.85729384 -1.3418895 0.75063396 234 88 12
-0.84746969 -1.3475207 0.75071567 234 88 12
-0.83500636 -1.3459948 0.74951953 234 88 12
-0.82177162 -1.3533816 0.7495997 234 88 12
-0.91178066 -1.3816726 0.75730795 234 88 12
-0.91330367 -1.3986011 0.76002383 234 88 12
-0.89397901 -1.3474324 0.75064635 234 88 12
-0.87920696 -1.3488429 0.74969018 234 88 12
-0.85403705 -1.3653904 0.75022912 234 88 12
-0.84566814 -1.3637674 0.74931616 234 88 12
-0.82630491 -1.3647047 0.74792308 234 88 12
-0.90685344 -1.3885241 0.75445354 234 88 12
-0.88096178 -1.3295364 0.74311107 234 88 12
-0.86587775 -1.3306104 0.73826444 234 88 12
-0.88432318 -1.3387564 0.73735631 234 88 12
-0.88335901 -1.3596928 0.74069732 234 88 12
-0.874569 -1.3444756 0.73746568 234 88 12
-0.8614912 -1.3403808 0.73568934 234 88 12
-0.86139238 -1.3515402 0.73750532 234 88 12
-0.8643409 -1.3712174 0.74097168 234 88 12
-0.85662764 -1.3602357 0.73852354 234 88 12
-0.8480159 -1.3470361 0.73563683 234 88 12
-0.84747326 -1.3565296 0.73714286 234 88 12
-0.84501839 -1.3712742 0.73934555 234 88 12
-0.88931429 -1.3657975 0.73855001 234 88 12
-0.88557041 -1.3658756 0.73823959 234 88 12
-0.88317978 -1.3701268 0.73874253 234 88 12
-0.87303823 -1.3509374 0.73466367 234 88 12
-0.86452794 -1.3821301 0.73913413 234 88 12
-0.84650791 -1.3748636 0.73636436 234 88 12
-0.86531717 -1.3618292 0.73209941 234 88 12
-0.88004893 -1.3708607 0.73126936 234 88 12
-0.86518782 -1.3378649 0.72419977 234 88 12
-0.85872608 -1.3420914 0.72435284 234 88 12
-0.87337863 -1.3956 0.73496765 234 88 12
-0.85168242 -1.3557987 0.7261008 234 88 12
-0.87860423 -1.3542242 0.7245124 234 88 12
-0.87450802 -1.3535022 0.72400874 234 88 12
-0.86746806 -1.3440551 0.72168905 234 88 12
-0.89171147 -1.3937179 0.7291258 234 88 12
-0.94237292 -1.5483564 0.75882536 234 88 12
-0.881769 -1.3742175 0.72099251 234 88 12
-0.86285692 -1.340852 0.71304786 234 88 12
-0.85605812 -1.3441521 0.71300739 234 88 12
-0.90534663 -1.4342878 0.73085773 234 88 12
-0.86934549 -1.3478233 0.71114522 234 88 12
-0.86028278 -1.3557689 0.71175539 234 88 12
-0.87703496 -1.3586357 0.71015692 234 88 12
-0.86970419 -1.3927698 0.71228546 234 88 12
-0.89252114 -1.4043607 0.71324313 234 88 12
-0.87326926 -1.3577243 0.70203531 234 88 12
-0.86642098 -1.3489913 0.69960403 234 88 12
-0.85952681 -1.3519272 0.69947863 234 88 12
-0.87194765 -1.3647544 0.69951165 234 88 12
-0.88452655 -1.4129008 0.71052581 234 88 12
0.32518744 -1.3412837 1.1351033 234 88 12
0.33170816 -1.3784491 1.1435032 234 88 12
0.33546138 -1.3698175 1.1417061 234 88 12
0.31806621 -1.3439103 1.1318409 234 88 12
0.32169572 -1.3480868 1.1328863 234 88 12
0.32566181 -1.3277136 1.1284298 234 88 12
0.32923272 -1.3361634 1.1304328 234 88 12
0.33316824 -1.3254231 1.1281382 234 88 12
0.34005585 -1.344613 1.132651 234 88 12
0.34337166 -1.3547431 1.1350237 234 88 12
0.34626326 -1.374259 1.1394911 234 88 12
0.34466285 -1.325248 1.1247364 234 88 12
0.3476361 -1.3454676 1.1294392 234 88 12
0.31480604 -1.3612885 1.1284591 234 88 12
0.31869841 -1.3296703 1.1212492 234 88 12
0.35223824 -1.3300356 1.1223609 234 88 12
0.31517464 -1.3363906 1.1189945 234 88 12
0.32263297 -1.3359762 1.1191289 234 88 12
0.33393389 -1.3297976 1.1180257 234 88 12
0.33776754 -1.3261148 1.1172777 234 88 12
0.34496659 -1.3344691 1.1194688 234 88 12
0.28984165 -1.3681362 1.1220675 234 88 12
0.29439652 -1.421458 1.1349628 234 88 12
0.29767939 -1.4096272 1.1322372 234 88 12
0.33374643 -1.3500837 1.1191374 234 88 12
0.34733021 -1.3778703 1.1262115 234 88 12
0.34859529 -1.4324679 1.139308 234 88 12
0.28678113 -1.3842013 1.1222428 234 88 12
0.28978851 -1.3557854 1.1154391 234 88 12
0.29411998 -1.3934387 1.1247214 234 88 12
0.29701689 -1.3437228 1.1127418 234 88 12
0.31906763 -1.3759981 1.1212866 234 88 12
0.3375963 -1.3540361 1.1165479 234 88 12
0.35997015 -1.3440146 1.1148323 234 88 12
0.36202353 -1.3744358 1.1222854 234 88 12
0.36986956 -1.3622332 1.1195738 234 88 12
0.37295774 -1.3701158 1.121587 234 88 12
0.28400278 -1.4068918 1.1241633 234 88 12
0.28972098 -1.3424439 1.1084608 234 88 12
0.30479616 -1.3586873 1.1129564 234 88 12
0.30845448 -1.3483534 1.1105279 234 88 12
0.31212094 -1.3719406 1.1164623 234 88 12
0.31544304 -1.4250104 1.1296542 234 88 12
0.34557658 -1.3435512 1.110553 234 88 12
0.36467057 -1.3311357 1.1081141 234 88 12
0.28274578 -1.3549131 1.1076002 234 88 12
0.28677762 -1.3679581 1.110998 234 88 12
0.29003426 -1.3476433 1.1060219 234 88 12
0.29747933 -1.3452879 1.1056786 234 88 12
0.30868483 -1.3415356 1.1051099 234 88 12
0.31616607 -1.3419667 1.1054653 234 88 12
0.32363006 -1.3421085 1.1057475 234 88 12
0.33118677 -1.3369642 1.10471 234 88 12
0.33493751 -1.3364687 1.10471 234 88 12
0.34215799 -1.3443202 1.1069136 234 88 12
0.34608489 -1.337938 1.1054462 234 88 12
0.35330513 -1.3430066 1.1069534 234 88 12
0.36082569 -1.3403151 1.1065284 234 88 12
0.37213758 -1.3365381 1.1059573 234 88 12
0.37328693 -1.3758913 1.1158435 234 88 12
0.28690714 -1.3651149 1.1066095 234 88 12
0.35724962 -1.3447273 1.1037916 234 88 12
0.37115452 -1.3583579 1.1077203 234 88 12
0.3705909 -1.4277741 1.121913 234 88 12
0.28758106 -1.3769624 1.1023264 234 88 12
0.29445267 -1.3496795 1.0954294 234 88 12
0.29818365 -1.3482203 1.0951768 234 88 12
0.30942264 -1.3471156 1.0952761 234 88 12
0.32065767 -1.3455752 1.0952615 234 88 12
0.33895314 -1.3579272 1.0991235 234 88 12
0.34312615 -1.3426576 1.0952748 234 88 12
0.34687096 -1.3421628 1.0952748 234 88 12
0.35004786 -1.3558327 1.0989591 234 88 12
0.37249577 -1.3481644 1.0977294 234 88 12
0.3656303 -1.5081265 1.1393212 234 88 12
0.28911081 -1.4345558 1.1139795 234 88 12
0.29148754 -1.37949 1.0994555 234 88 12
0.29475969 -1.3554642 1.0931969 234 88 12
0.29848757 -1.3549718 1.0931969 234 88 12
0.31337693 -1.3600172 1.0950571 234 88 12
0.32082114 -1.3551878 1.0940369 234 88 12
0.35809323 -1.3479391 1.0934203 234 88 12
0.36947337 -1.3429664 1.0925001 234 88 12
0.33583143 -1.3588566 1.0917995 234 88 12
0.36831576 -1.4259942 1.1110181 234 88 12
0.29205588 -1.3878752 1.0943887 234 88 12
0.29541853 -1.3703265 1.0897216 234 88 12
0.35043946 -1.3695189 1.0914847 234 88 12
0.30293465 -1.3579669 1.082835 234 88 12
0.31415707 -1.3525833 1.0817556 234 88 12
0.31767061 -1.3829043 1.0902731 234 88 12
0.32908821 -1.3543189 1.0827816 234 88 12
0.33282465 -1.3538252 1.0827816 234 88 12
0.34767199 -1.3544632 1.0835007 234 88 12
0.35144719 -1.3527969 1.0831778 234 88 12
0.36282182 -1.3478638 1.0822287 234 88 12
0.36958951 -1.3588845 1.0855252 234 88 12
0.29995564 -1.4070718 1.0926994 234 88 12
0.3033779 -1.3874925 1.087334 234 88 12
0.31064904 -1.3646166 1.0811865 234 88 12
0.34017089 -1.3668982 1.0829206 234 88 12
0.34771347 -1.3616698 1.0817335 234 88 12
0.36613336 -1.361212 1.0822877 234 88 12
0.36862114 -1.380802 1.0878751 234 88 12
0.30718553 -1.3690184 1.0785235 234 88 12
0.31089011 -1.3708485 1.0791831 234 88 12
0.31438446 -1.4161264 1.0921896 234 88 12
0.31804773 -1.3987322 1.0873809 234 88 12
0.33318791 -1.3630176 1.077794 234 88 12
0.32178986 -1.4067153 1.0861607 234 88 12
0.32924119 -1.3893439 1.0814376 234 88 12
0.31510994 -1.3665783 1.0705342 234 88 12
0.31884426 -1.3650877 1.0702429 234 88 12
0.32258809 -1.3634408 1.0699062 234 88 12
0.32587188 -1.5707273 1.130581 234 88 12
0.33289978 -1.3992394 1.080761 234 88 12
0.33743456 -1.3646719 1.0708388 234 88 12
0.34523067 -1.3536547 1.0679216 234 88 12
0.35246918 -1.3592358 1.0698311 234 88 12
0.31424844 -1.5808218 1.130096 234 88 12
0.32248557 -1.3924663 1.0746667 234 88 12
0.33392304 -1.3684345 1.0680008 234 88 12
0.34766391 -1.3951118 1.0764344 234 88 12
0.31552857 -1.3832153 1.0678885 234 88 12
0.33041885 -1.372321 1.0652112 234 88 12
0.34122181 -1.3810986 1.0682716 234 88 12
0.31577101 -1.4270047 1.073795 234 88 12
0.31956518 -1.3988844 1.0652951 234 88 12
0.32358122 -1.3699651 1.0565583 234 88 12
0.33118045 -1.3631008 1.0547547 234 88 12
0.33494008 -1.362604 1.0547547 234 88 12
0.33756033 -1.4016068 1.0668646 234 88 12
0.31533402 -1.5356202 1.1039946 234 88 12
0.33490828 -1.3754694 1.0548804 234 88 12
0.31646085 -1.3956674 1.0566398 234 88 12
0.33407187 -1.4194555 1.0648836 234 88 12
0.33720884 -1.43322 1.0693595 234 88 12
0.316782 -1.3855444 1.0496259 234 88 12
0.32064804 -1.3696599 1.0447115 234 88 12
0.33091259 -1.4143046 1.0594161 234 88 12
0.33449721 -1.413831 1.0594161 234 88 12
0.33577213 -1.376008 1.0435047 234 88 12
0.32097083 -1.3887364 1.0431448 234 88 12
0.33127421 -1.4226781 1.0547127 234 88 12
1.0252206 -0.37252566 1.4988633 234 88 12
1.0202075 -0.35173437 1.4849647 234 88 12
1.0289614 -0.38746494 1.4981335 234 88 12
1.0221224 -0.35367715 1.482374 234 88 12
1.0256159 -0.35643902 1.4766172 234 88 12
1.0479982 -0.4270609 1.5094305 234 88 12
1.0314565 -0.36709222 1.4749415 234 88 12
1.034986 -0.3700085 1.4692913 234 88 12
-1.4473013 -1.0287466 -0.089591123 234 88 12
-1.4370259 -1.0171667 -0.08792378 234 88 12
-1.4309505 -1.0287206 -0.088341728 234 88 12
-1.4252005 -1.0258344 -0.087682866 234 88 12
-1.4215161 -1.0341597 -0.088036917 234 88 12
-1.428911 -1.054628 -0.093883179 234 88 12
-1.4624608 -1.0501306 -0.099660091 234 88 12
-1.4602172 -1.0385761 -0.10235754 234 88 12
-1.4439629 -1.0153295 -0.099666223 234 88 12
-1.4436759 -1.0300165 -0.10064734 234 88 12
-1.4362524 -1.0238258 -0.099719755 234 88 12
-1.4350165 -1.0439341 -0.10100558 234 88 12
-1.4257919 -1.0347949 -0.099754415 234 88 12
-1.4334047 -1.0556139 -0.10169154 234 88 12
-1.4245912 -1.0473356 -0.10052704 234 88 12
-1.4375589 -1.077108 -0.10343904 234 88 12
-1.4737264 -1.0269692 -0.10615502 234 88 12
-1.4383914 -1.0203581 -0.10341104 234 88 12
-1.4404981 -1.0539339 -0.10574526 234 88 12
-1.4832983 -1.0309082 -0.11066803 234 88 12
-1.4710361 -1.0139964 -0.10883877 234 88 12
-1.45818 -0.99623686 -0.10691913 234 88 12
-1.4555098 -0.99890703 -0.10691913 234 88 12
-1.4596624 -1.0226462 -0.10866798 234 88 12
-1.461588 -1.0849992 -0.11269836 234 88 12
-1.4272938 -1.0303564 -0.10712187 234 88 12
-1.4090358 -1.049666 -0.10718781 234 88 12
-1.4771174 -1.0107172 -0.11271325 234 88 12
-1.467762 -0.99967033 -0.11148936 234 88 12
-1.4523909 -1.0008819 -0.11063996 234 88 12
-1.4509122 -1.0058652 -0.11085019 234 88 12
-1.4488775 -1.0097411 -0.11096063 234 88 12
-1.4765916 -1.0774738 -0.11668631 234 88 12
-1.4373102 -1.0186751 -0.11080267 234 88 12
-1.4351718 -1.0223142 -0.11089269 234 88 12
-1.4992055 -1.1596923 -0.12297502 234 88 12
-1.4274442 -1.0381829 -0.11138106 234 88 12
-1.4305049 -1.0509175 -0.1123286 234 88 12
-1.415333 -1.0461568 -0.11113288 234 88 12
-1.4126772 -1.0488127 -0.11113288 234 88 12
-1.4064854 -1.0454736 -0.11056114 234 88 12
-1.4702182 -0.99683732 -0.11521986 234 88 12
-1.4712007 -1.0147002 -0.11629926 234 88 12
-1.4612361 -1.0026873 -0.11504047 234 88 12
-1.482231 -1.0882822 -0.12114554 234 88 12
-1.450519 -1.0359188 -0.11633001 234 88 12
-1.4267466 -1.0296758 -0.11461084 234 88 12
-1.4303207 -1.0434542 -0.11560472 234 88 12
-1.4801469 -1.025095 -0.1210546 234 88 12
-1.4525675 -1.0094274 -0.11869479 234 88 12
-1.4510906 -1.0875633 -0.12287775 234 88 12
-1.4330369 -1.0628369 -0.12054343 234 88 12
-1.4196024 -1.0465828 -0.11892344 234 88 12
-1.4874549 -1.0400541 -0.12585488 234 88 12
-1.4694902 -1.0116454 -0.12345011 234 88 12
-1.4739493 -1.0283197 -0.12454602 234 88 12
-1.4507426 -1.0291402 -0.12338514 234 88 12
-1.4420582 -1.0279781 -0.12287453 234 88 12
-1.4265554 -1.0516233 -0.12329677 234 88 12
-1.4116503 -1.0617144 -0.12304713 234 88 12
-1.4030857 -1.0544522 -0.1222264 234 88 12
-1.4531169 -1.0030251 -0.12593055 234 88 12
-1.451229 -1.0071896 -0.12604244 234 88 12
-1.4462707 -1.0131919 -0.12609376 234 88 12
-1.4530041 -1.0410566 -0.12779424 234 88 12
-1.4366169 -1.0180385 -0.12585749 234 88 12
-1.4368358 -1.026015 -0.12626028 234 88 12
-1.4254316 -1.0277679 -0.12578592 234 88 12
-1.4420549 -1.0647844 -0.12842229 234 88 12
-1.4547284 -1.09426 -0.13049389 234 88 12
-1.4206679 -1.0414535 -0.12622443 234 88 12
-1.4144371 -1.0451602 -0.12610038 234 88 12
-1.4081147 -1.0487638 -0.12596674 234 88 12
-1.4483925 -1.1301104 -0.13194452 234 88 12
-1.4677951 -1.0086241 -0.13064677 234 88 12
-1.4957482 -1.0719764 -0.13488731 234 88 12
-1.461604 -1.0120138 -0.13051666 234 88 12
-1.4448606 -1.0483046 -0.13142452 234 88 12
-1.434114 -1.0361371 -0.13036031 234 88 12
-1.4496434 -1.0784351 -0.133046 234 88 12
-1.4352652 -1.0741981 -0.13218145 234 88 12
-1.4134417 -1.0719672 -0.13106428 234 88 12
-1.4893835 -1.0595099 -0.13753429 234 88 12
-1.436874 -1.1044797 -0.13720451 234 88 12
-1.4112495 -1.0684376 -0.1345073 234 88 12
-1.4558164 -1.0088352 -0.13759702 234 88 12
-1.4507903 -1.0068722 -0.13731022 234 88 12
-1.4481322 -1.0095303 -0.13731022 234 88 12
-1.4520416 -1.0322527 -0.13840309 234 88 12
-1.4651458 -1.0642539 -0.14025402 234 88 12
-1.4344181 -1.0144467 -0.13694921 234 88 12
-1.4470155 -1.0452189 -0.13872892 234 88 12
-1.4320019 -1.0251491 -0.13728924 234 88 12
-1.4218541 -1.0292647 -0.1370417 234 88 12
-1.4240949 -1.0406033 -0.13759895 234 88 12
-1.4194465 -1.0470057 -0.13767092 234 88 12
-1.4116906 -1.0408412 -0.13709968 234 88 12
-1.4032171 -1.0480562 -0.13704804 234 88 12
-1.4110631 -1.0682511 -0.13819872 234 88 12
-1.4540826 -1.0134189 -0.14145161 234 88 12
-1.4558107 -1.0320228 -0.14223103 234 88 12
-1.4286596 -1.0415212 -0.14155433 234 88 12
-1.4416769 -1.0787871 -0.14348188 234 88 12
-1.4099897 -1.0524652 -0.14125817 234 88 12
-1.5107385 -1.1233441 -0.15440722 234 88 12
-1.4527897 -1.0189834 -0.14906149 234 88 12
-1.4501605 -1.0216125 -0.14906149 234 88 12
-1.4586258 -1.0451615 -0.15011589 234 88 12
-1.4454211 -1.027841 -0.14911053 234 88 12
-1.4360285 -1.0179211 -0.14847445 234 88 12
-1.4356424 -1.0322554 -0.14893386 234 88 12
-1.4417875 -1.0507724 -0.14974611 234 88 12
-1.4331778 -1.0425653 -0.14919224 234 88 12
-1.4243454 -1.03414 -0.14862385 234 88 12
-1.4165572 -1.0277387 -0.14815651 234 88 12
-1.4263742 -1.0594414 -0.14952399 234 88 12
-1.4108075 -1.0397325 -0.14836216 234 88 12
-1.4586099 -1.0303148 -0.15330015 234 88 12
-1.4136846 -1.0302292 -0.15193909 234 88 12
-1.5067643 -1.1295458 -0.16103129 234 88 12
-1.471297 -1.0693694 -0.15839702 234 88 12
-1.4697831 -1.0737023 -0.15847467 234 88 12
-1.4581562 -1.0373143 -0.16080436 234 88 12
-1.4492733 -1.0280216 -0.16035272 234 88 12
-1.4365447 -1.0634162 -0.16091594 234 88 12
-1.4357297 -1.0180149 -0.16353007 234 88 12
-1.4264332 -1.0236208 -0.1634483 234 88 12
-1.4696649 -1.0595096 -0.16875872 234 88 12
-1.4236381 -1.0187238 -0.16706899 234 88 12
-1.4430385 -1.0167722 -0.17115074 234 88 12
-1.4290582 -1.0286694 -0.1711158 234 88 12
-1.4454975 -1.0139359 -0.17488553 234 88 12
-1.43846 -1.0159774 -0.17481515 234 88 12
-1.4288692 -1.0284805 -0.17485617 234 88 12
-1.4478835 -1.0699421 -0.17570803 234 88 12
-1.4464163 -1.0234649 -0.17874371 234 88 12
-1.4278493 -1.0192981 -0.17848456 234 88 12
-1.4271902 -1.0257529 -0.18230511 234 88 12
-1.4495016 -1.0296023 -0.1862153 234 88 12
-1.4408835 -1.0209929 -0.18611142 234 88 12
-1.4382427 -1.0236337 -0.18611142 234 88 12
-1.4300615 -1.0161051 -0.18601671 234 88 12
-1.4271035 -1.0182526 -0.18601182 234 88 12
-1.4272043 -1.0259309 -0.18605871 234 88 12
-1.4752843 -1.0853515 -0.19016838 234 88 12
-1.4483323 -1.0424656 -0.18993467 234 88 12
-1.458413 -1.0682952 -0.19005485 234 88 12
-1.4376844 -1.0376662 -0.18988296 234 88 12
-0.049848236 -1.7504575 0.14845163 234 88 12
-0.049249925 -1.7798264 0.14720328 234 88 12
-0.050806288 -1.826674 0.14520612 234 88 12
-0.037554592 -1.7408538 0.14888909 234 88 12
-0.033807043 -1.7410601 0.14888909 234 88 12
-0.048030611 -1.7328471 0.14543249 234 88 12
-0.036445867 -1.7312318 0.14551982 234 88 12
-0.028022949 -1.7551515 0.14461049 234 88 12
-0.0255628 -1.7648839 0.14423844 234 88 12
-0.056597594 -1.7431537 0.14128156 234 88 12
-0.051815007 -1.732787 0.1416534 234 88 12
-0.02993617 -1.7404165 0.14142863 234 88 12
-0.022283936 -1.7396853 0.14146896 234 88 12
-0.048559055 -1.7381232 0.13771808 234 88 12
-0.023345614 -1.747955 0.13745469 234 88 12
-0.056028694 -1.7372997 0.13397335 234 88 12
-0.04808211 -1.7335539 0.13408798 234 88 12
-0.038823433 -1.752254 0.13358949 234 88 12
-0.033580605 -1.7394576 0.13394807 234 88 12
-0.029290756 -1.7352889 0.13406877 234 88 12
-0.027078906 -1.7478957 0.13372664 234 88 12
-0.027276149 -1.7783393 0.1328921 234 88 12
-0.08046639 -1.7621419 0.12959626 234 88 12
-0.079968952 -1.8039401 0.12860994 234 88 12
-0.07412643 -1.7748321 0.12930486 234 88 12
-0.052005734 -1.73491 0.13027628 234 88 12
-0.048506074 -1.7377447 0.13021389 234 88 12
-0.038070016 -1.8352884 0.12792417 234 88 12
-0.022362046 -1.7405412 0.13018183 234 88 12
-0.010318685 -1.7356452 0.1303131 234 88 12
-0.0080557019 -1.7715591 0.12946801 234 88 12
-0.078390419 -1.7334329 0.12650703 234 88 12
-0.070902303 -1.7345104 0.12649384 234 88 12
-0.067448296 -1.738469 0.12641914 234 88 12
-0.059622068 -1.775174 0.12570013 234 88 12
-0.054152895 -1.7566595 0.12607309 234 88 12
-0.086553089 -1.7426648 0.12258089 234 88 12
-0.082169048 -1.7333728 0.1227337 234 88 12
-0.074878342 -1.7370794 0.12268072 234 88 12
-0.070814304 -1.7334545 0.1227424 234 88 12
-0.067249529 -1.7361447 0.12270243 234 88 12
-0.059519347 -1.7343266 0.12273839 234 88 12
-0.057538409 -1.7533451 0.12243529 234 88 12
-0.052065771 -1.7356473 0.1227238 234 88 12
-0.048461769 -1.7374507 0.12269807 234 88 12
-0.033097219 -1.7356042 0.12274122 234 88 12
-0.022786288 -1.7439799 0.12261607 234 88 12
-0.011314127 -1.7428703 0.12264397 234 88 12
-0.00633458 -1.7601882 0.12237078 234 88 12
-0.0082751168 -1.7971896 0.12177598 234 88 12
-0.083740376 -1.7563717 0.11867972 234 88 12
-0.0064912424 -1.7613305 0.11867107 234 88 12
-0.0056014713 -1.7797897 0.11844583 234 88 12
-0.038360003 -1.748579 0.11508154 234 88 12
-0.027339067 -1.7503718 0.11507153 234 88 12
-0.010908783 -1.8145925 0.11453713 234 88 12
-0.036141627 -1.761587 0.1112965 234 88 12
-0.014757217 -1.8169696 0.11104476 234 88 12
-0.084113218 -1.761906 0.10761662 234 88 12
-0.078304417 -1.7324179 0.10764186 234 88 12
-0.074855708 -1.7369443 0.10763819 234 88 12
-0.071202658 -1.7384992 0.10763705 234 88 12
-0.067174204 -1.7354467 0.10763982 234 88 12
-0.059790935 -1.7375333 0.1076384 234 88 12
-0.048991326 -1.7428713 0.10763437 234 88 12
-0.034319963 -1.7462596 0.10763219 234 88 12
-0.022306297 -1.7406193 0.10763752 234 88 12
-0.010804252 -1.7396214 0.10763891 234 88 12
-0.0059533091 -1.7579942 0.10762358 234 88 12
-0.075831376 -1.7498114 0.10391235 234 88 12
-0.055647399 -1.7337919 0.10386179 234 88 12
-0.056109503 -1.7767957 0.10398878 234 88 12
-0.034850109 -1.7508203 0.10390867 234 88 12
-0.0077306619 -1.7700076 0.10396089 234 88 12
-0.054910786 -1.7647586 0.10028947 234 88 12
-0.072135106 -1.7503061 0.096482299 234 88 12
-0.069632351 -1.764955 0.096635409 234 88 12
-0.064062446 -1.743313 0.096403822 234 88 12
-0.060321957 -1.7435188 0.096403822 234 88 12
-0.055565789 -1.7330599 0.0962907 234 88 12
-0.054918669 -1.7649018 0.096626297 234 88 12
-0.048557825 -1.7388633 0.096347868 234 88 12
-0.044208508 -1.7679578 0.096652322 234 88 12
-0.034866117 -1.7511111 0.096469149 234 88 12
-0.030634938 -1.7471056 0.096424423 234 88 12
-0.022936476 -1.7457272 0.096405409 234 88 12
-0.019774821 -1.7502587 0.096451387 234 88 12
-0.011726876 -1.7464166 0.096406177 234 88 12
-0.011396203 -1.7700922 0.096655793 234 88 12
-0.060730156 -1.7480428 0.092723683 234 88 12
-0.045858007 -1.7490779 0.092726789 234 88 12
-0.019658253 -1.776773 0.093103603 234 88 12
-0.014039036 -1.7628573 0.092899427 234 88 12
-0.060663357 -1.7474281 0.085250556 234 88 12
-0.057307426 -1.7515312 0.085336603 234 88 12
-0.055687353 -1.7728499 0.085802794 234 88 12
-0.04444151 -1.735953 0.08497896 234 88 12
-0.033232331 -1.7375354 0.085000165 234 88 12
-0.0251661 -1.7337832 0.084908016 234 88 12
-0.022228314 -1.7405269 0.085052557 234 88 12
-0.024458559 -1.7855427 0.086043783 234 88 12
-0.05547094 -1.7707293 0.082109749 234 88 12
-0.048143055 -1.735108 0.081181586 234 88 12
-0.0284237 -1.7597159 0.081787638 234 88 12
-0.034731358 -1.8368812 0.083784714 234 88 12
-0.032753181 -1.7648436 0.078251421 234 88 12
-0.062595107 -1.807216 0.076044992 234 88 12
-0.047928054 -1.7331573 0.073546104 234 88 12
-0.044752307 -1.7390778 0.073737882 234 88 12
-0.036548141 -1.7335858 0.073539503 234 88 12
-0.039490763 -1.7906566 0.075449824 234 88 12
-0.052195046 -1.7378694 0.06993591 234 88 12
-0.033445887 -1.7396555 0.069963954 234 88 12
-0.061442923 -1.7952397 0.068532303 234 88 12
-0.05851952 -1.7646194 0.063596085 234 88 12
-0.041848123 -1.7800969 0.064248472 234 88 12
-0.057433102 -1.7532796 0.059366442 234 88 12
-0.052686729 -1.7430255 0.058855206 234 88 12
-0.04835359 -1.737565 0.05857813 234 88 12
-0.043882046 -1.7657983 0.056263756 234 88 12
-0.056669585 -1.8184415 0.055588141 234 88 12
-0.048617207 -1.808647 0.055012308 234 88 12
1.2789499 -1.0362033 0.70907509 234 88 12
1.2827787 -1.0369259 0.70943439 234 88 12
1.2884562 -1.0310593 0.70927531 234 88 12
1.2934529 -1.0224551 0.70879227 234 88 12
1.3054862 -1.0559089 0.7130307 234 88 12
1.3257161 -1.1101367 0.71995544 234 88 12
1.3106807 -1.1628895 0.72078782 234 88 12
1.2985636 -1.0406941 0.70730221 234 88 12
1.3063747 -1.0436771 0.70821208 234 88 12
1.3190472 -1.0672178 0.71160889 234 88 12
1.2823838 -1.0587225 0.70422041 234 88 12
1.2916946 -1.0261127 0.70151412 234 88 12
1.3058834 -1.0254549 0.70257294 234 88 12
1.3119228 -1.0210456 0.70258719 234 88 12
1.282218 -1.0565442 0.70027846 234 88 12
1.282451 -1.0441933 0.698955 234 88 12
1.2953144 -1.065569 0.70233047 234 88 12
1.2954216 -1.0247586 0.69790328 234 88 12
1.3057086 -1.037291 0.7001068 234 88 12
1.3065745 -1.0263734 0.69899088 234 88 12
1.2680374 -1.0930887 0.69946182 234 88 12
1.2989203 -1.0642589 0.69883692 234 88 12
1.2952679 -1.0364432 0.69542277 234 88 12
1.3172306 -1.0682279 0.70081925 234 88 12
1.2594749 -1.0872878 0.69441956 234 88 12
1.2556931 -1.062831 0.6912874 234 88 12
1.2748026 -1.1143514 0.69884741 234 88 12
1.3031313 -1.0515544 0.6940884 234 88 12
1.3392417 -1.143973 0.7078079 234 88 12
1.2533692 -1.0660235 0.68769175 234 88 12
1.2562193 -1.0631993 0.6876117 234 88 12
1.274336 -1.0750924 0.69061708 234 88 12
1.2738963 -1.0609198 0.68890935 234 88 12
1.2814667 -1.0490246 0.68817943 234 88 12
1.2835929 -1.0434998 0.68771726 234 88 12
1.2932699 -1.0391006 0.68805653 234 88 12
1.3016281 -1.0296124 0.68767983 234 88 12
1.3068391 -1.0362599 0.68892419 234 88 12
1.308755 -1.0295712 0.68830633 234 88 12
1.3228203 -1.0294585 0.68953913 234 88 12
1.3294325 -1.0279121 0.68994284 234 88 12
1.3484927 -1.0990924 0.70001268 234 88 12
1.3410972 -1.0499502 0.69357115 234 88 12
1.2582403 -1.0924752 0.68755919 234 88 12
1.2720824 -1.0530218 0.68405193 234 88 12
1.2844702 -1.0714259 0.68740046 234 88 12
1.3187401 -1.0249126 0.68489683 234 88 12
1.3201103 -1.0155197 0.68388689 234 88 12
1.3401808 -1.0434893 0.68908888 234 88 12
1.3469353 -1.0593842 0.69162238 234 88 12
1.2594332 -1.071098 0.68133616 234 88 12
1.2817962 -1.0601965 0.68206966 234 88 12
1.2962483 -1.0607597 0.68348575 234 88 12
1.3196517 -1.04181 0.68331969 234 88 12
1.2535921 -1.0748173 0.67749226 234 88 12
1.2555383 -1.0690781 0.67694992 234 88 12
1.2735761 -1.0552404 0.67691612 234 88 12
1.2970906 -1.0486131 0.67831981 234 88 12
1.3005892 -1.0342419 0.67683065 234 88 12
1.3157362 -1.0231078 0.67686391 234 88 12
1.3187546 -1.0208368 0.67686391 234 88 12
1.3307266 -1.0272201 0.67881638 234 88 12
1.2525781 -1.0702019 0.67302442 234 88 12
1.2574389 -1.0739648 0.6739884 234 88 12
1.268126 -1.060326 0.67326117 234 88 12
1.2801838 -1.0511844 0.67325217 234 88 12
1.2977781 -1.0495268 0.67475653 234 88 12
1.3056672 -1.0384061 0.67408293 234 88 12
1.3194484 -1.0217592 0.67326736 234 88 12
1.3323499 -1.016487 0.6738435 234 88 12
1.2532731 -1.0711255 0.66942245 234 88 12
1.2892454 -1.0825268 0.67453736 234 88 12
1.2901641 -1.0461649 0.6697942 234 88 12
1.3086668 -1.048668 0.67197818 234 88 12
1.2799914 -1.1567336 0.68000424 234 88 12
1.2818484 -1.067145 0.66800696 234 88 12
1.3100854 -1.066651 0.67082989 234 88 12
1.3244416 -1.0392996 0.66857845 234 88 12
1.3441039 -1.0662569 0.67425817 234 88 12
1.2687836 -1.1073017 0.66847193 234 88 12
1.262436 -1.0741912 0.66320151 234 88 12
1.2644576 -1.068604 0.66263586 234 88 12
1.2679086 -1.0678254 0.66288877 234 88 12
1.2805995 -1.0610912 0.66328025 234 88 12
1.2905921 -1.0843168 0.66755706 234 88 12
1.2918011 -1.0489575 0.66276479 234 88 12
1.301252 -1.0714413 0.66688168 234 88 12
1.3086866 -1.0867407 0.66978812 234 88 12
1.3024681 -1.0485845 0.66382933 234 88 12
1.3046697 -1.0431557 0.66330457 234 88 12
1.3082663 -1.0433033 0.66370153 234 88 12
1.3246588 -1.0962192 0.67277843 234 88 12
1.3126596 -1.0321093 0.66260415 234 88 12
1.3763165 -1.2753026 0.70309752 234 88 12
1.3223457 -1.0280842 0.66305804 234 88 12
1.333223 -1.0454004 0.66660535 234 88 12
1.3508033 -1.0951058 0.6753599 234 88 12
1.2734998 -1.0730319 0.66043442 234 88 12
1.2765118 -1.0579542 0.65861273 234 88 12
1.2917839 -1.0998461 0.66620326 234 88 12
1.3119583 -1.056437 0.66218919 234 88 12
1.3218331 -1.0539596 0.66289335 234 88 12
1.3330034 -1.0422626 0.66242516 234 88 12
1.3505067 -1.1065321 0.67343628 234 88 12
1.2661703 -1.0839034 0.65744001 234 88 12
1.2782396 -1.1124636 0.66290843 234 88 12
1.278235 -1.0880131 0.65935576 234 88 12
1.2889711 -1.0881706 0.6605522 234 88 12
1.3025882 -1.0594634 0.65787011 234 88 12
1.3100506 -1.0610685 0.65891898 234 88 12
1.317953 -1.0354713 0.65606403 234 88 12
1.29214 -1.1106392 0.66054106 234 88 12
1.2821671 -1.0620209 0.65221411 234 88 12
1.2882844 -1.0578562 0.65227908 234 88 12
1.2964681 -1.0478123 0.6517024 234 88 12
1.313574 -1.0734226 0.65741187 234 88 12
1.3148271 -1.0352405 0.65188658 234 88 12
1.3206394 -1.029762 0.65172255 234 88 12
1.3369067 -1.0555708 0.65736789 234 88 12
1.2796415 -1.0773605 0.65044546 234 88 12
1.2928002 -1.1115167 0.65711898 234 88 12
1.2968591 -1.0880897 0.65403295 234 88 12
1.2961962 -1.0588431 0.64952725 234 88 12
1.3069307 -1.059043 0.65078092 234 88 12
1.3081311 -1.0496473 0.64949453 234 88 12
1.3173418 -1.0438294 0.64966297 234 88 12
1.332001 -1.0620555 0.65409446 234 88 12
1.3294867 -1.0355973 0.64980018 234 88 12
1.286348 -1.0740083 0.64693576 234 88 12
1.296804 -1.0730115 0.6479978 234 88 12
1.3033746 -1.0845857 0.65055126 234 88 12
1.3309406 -1.0553161 0.64923275 234 88 12
1.2919508 -1.0927898 0.64678735 234 88 12
1.303467 -1.0965338 0.64874423 234 88 12
1.3170736 -1.0679885 0.64585704 234 88 12
1.3342302 -1.0826007 0.65019709 234 88 12
1.2837083 -1.0612358 0.63700306 234 88 12
1.2899709 -1.0574971 0.63715959 234 88 12
1.2952328 -1.0637132 0.63879603 234 88 12
1.2992886 -1.0516768 0.63735104 234 88 12
1.306703 -1.0526528 0.63840514 234 88 12
1.3072655 -1.040502 0.63651907 234 88 12
1.3112152 -1.0827938 0.64009178 234 88 12
1.3165119 -1.0901103 0.64194477 234 88 12
1.316836 -1.0774885 0.63991529 234 88 12
1.3237175 -1.091596 0.64307719 234 88 12
1.3232946 -1.0756339 0.64040798 234 88 12
1.2851635 -1.0617042 0.62572438 234 88 12
1.2925793 -1.0622383 0.62676519 234 88 12
1.2941995 -1.0546626 0.62568301 234 88 12
1.3052729 -1.0556847 0.62727541 234 88 12
1.3106713 -1.0630387 0.62921888 234 88 12
1.287711 -1.0825539 0.62581044 234 88 12
1.3101768 -1.0591974 0.62469143 234 88 12
1.301955 -1.1325599 0.63273281 234 88 12
1.2928334 -1.086584 0.62340367 234 88 12
1.2840148 -1.0660048 0.61472964 234 88 12
1.2935672 -1.0608828 0.6151008 234 88 12
1.2999529 -1.0576154 0.61537707 234 88 12
1.3202125 -1.1231184 0.62988943 234 88 12
1.3267138 -1.1356633 0.6330232 234 88 12
1.285991 -1.0715771 0.6121425 234 88 12
1.3064704 -1.1079584 0.62161511 234 88 12
1.3093598 -1.1057847 0.62161511 234 88 12
1.3064606 -1.0654542 0.61000407 234 88 12
1.2948182 -1.0874774 0.60866994 234 88 12
1.3007563 -1.0830096 0.60866994 234 88 12
1.3057383 -1.0885161 0.61042172 234 88 12
-1.6601764 -0.11488167 -0.71201795 234 88 12
-1.6548579 -0.10999365 -0.71386296 234 88 12
-1.6577647 -0.11813661 -0.71559536 234 88 12
-1.653553 -0.10950105 -0.71737325 234 88 12
-1.659855 -0.12624443 -0.72098058 234 88 12
-1.6922213 -0.16201772 -0.73779404 234 88 12
-1.6647947 -0.13336064 -0.73085332 234 88 12
-1.6520859 -0.11068726 -0.72885096 234 88 12
-1.6507562 -0.11420908 -0.72885096 234 88 12
-1.6484532 -0.11263475 -0.73196769 234 88 12
-1.6565101 -0.12624107 -0.73553503 234 88 12
-1.6471668 -0.10718754 -0.73497647 234 88 12
-1.6550114 -0.11661991 -0.74187458 234 88 12
-1.6891785 -0.16301696 -0.75545454 234 88 12
-1.6687945 -0.13246357 -0.75083929 234 88 12
-0.64861792 -1.4479461 -0.7479701 234 88 12
-0.65448409 -1.4972517 -0.76111645 234 88 12
-0.63832122 -1.4526354 -0.74817473 234 88 12
-0.63115853 -1.4410543 -0.7445296 234 88 12
-0.63306856 -1.4745029 -0.75324857 234 88 12
-0.64899731 -1.4353366 -0.74868405 234 88 12
-0.63786644 -1.4374654 -0.74816281 234 88 12
-0.62699699 -1.4406644 -0.74793541 234 88 12
-0.62628561 -1.4648448 -0.7539466 234 88 12
-0.66783446 -1.4935765 -0.76875049 234 88 12
-0.64978182 -1.4388788 -0.75351816 234 88 12
-0.64863169 -1.4490582 -0.75593138 234 88 12
-0.6379534 -1.4382619 -0.75225961 234 88 12
-0.62650245 -1.4393544 -0.75145966 234 88 12
-0.62544996 -1.449216 -0.75380325 234 88 12
-0.62388134 -1.4570973 -0.7556082 234 88 12
-0.65533292 -1.4459682 -0.75961626 234 88 12
-0.63170975 -1.4442761 -0.75702858 234 88 12
-0.63043058 -1.4920528 -0.76856226 234 88 12
-0.62974131 -1.4646088 -0.76558489 234 88 12
-0.63137513 -1.483003 -0.77015001 234 88 12
-0.6824553 -1.4502401 -0.77066088 234 88 12
-0.67200875 -1.4217008 -0.76298195 234 88 12
-0.66547799 -1.4265761 -0.76355159 234 88 12
-0.66253793 -1.4302734 -0.76416326 234 88 12
-0.69091207 -1.5840334 -0.80304384 234 88 12
-0.64818847 -1.4345199 -0.76388645 234 88 12
-0.65208715 -1.5039259 -0.78064173 234 88 12
-0.63035971 -1.4403819 -0.76368099 234 88 12
-0.62026 -1.4459617 -0.7640987 234 88 12
-0.61550391 -1.4809109 -0.77193606 234 88 12
-0.66579139 -1.4285768 -0.76789325 234 88 12
-0.67408746 -1.4920698 -0.78339517 234 88 12
-0.65386224 -1.4271325 -0.76650929 234 88 12
-0.65235567 -1.4508528 -0.77189606 234 88 12
-0.63678384 -1.43594 -0.76705837 234 88 12
-0.61305791 -1.4483793 -0.76786852 234 88 12
-0.60184669 -1.4502593 -0.76732111 234 88 12
-0.68026078 -1.4259455 -0.77237123 234 88 12
-0.68053645 -1.4435513 -0.77642614 234 88 12
-0.64992589 -1.4275081 -0.77010679 234 88 12
-0.62505049 -1.4363345 -0.76997739 234 88 12
-0.69136167 -1.475486 -0.78828311 234 88 12
-0.67862904 -1.4361259 -0.7783339 234 88 12
-0.67345482 -1.4460245 -0.78012365 234 88 12
-0.65519017 -1.4483131 -0.77908593 234 88 12
-0.65043306 -1.444674 -0.7778616 234 88 12
-0.64137793 -1.4395267 -0.77593201 234 88 12
-0.64160174 -1.5859569 -0.8089363 234 88 12
-0.6885044 -1.4794581 -0.79252332 234 88 12
-0.66972017 -1.4151348 -0.77669966 234 88 12
-0.66718286 -1.4206411 -0.77770746 234 88 12
-0.66365916 -1.4219713 -0.77770746 234 88 12
-0.65455484 -1.4316814 -0.77909738 234 88 12
-0.661466 -1.5004631 -0.79491568 234 88 12
-0.63628954 -1.4355732 -0.77843171 234 88 12
-0.63110161 -1.4446653 -0.78001237 234 88 12
-0.62723178 -1.4446646 -0.77968848 234 88 12
-0.63343656 -1.479012 -0.78781796 234 88 12
-0.61502582 -1.4429067 -0.77827793 234 88 12
-0.60108405 -1.4485848 -0.77836978 234 88 12
-0.59957939 -1.4561267 -0.77991498 234 88 12
-0.68335903 -1.4580766 -0.79101932 234 88 12
-0.67310613 -1.4302382 -0.78411007 234 88 12
-0.64901346 -1.4257618 -0.78115278 234 88 12
-0.64181429 -1.4826151 -0.79294854 234 88 12
-0.6257751 -1.4400262 -0.78234923 234 88 12
-0.63010192 -1.4680148 -0.7888037 234 88 12
-0.60332155 -1.4558363 -0.78394705 234 88 12
-0.64593762 -1.5997406 -0.81880862 234 88 12
-0.68873519 -1.5116982 -0.80659473 234 88 12
-0.65790874 -1.4459586 -0.7900185 234 88 12
-0.64219397 -1.4712508 -0.79416573 234 88 12
-0.6277411 -1.4856251 -0.79607618 234 88 12
-0.61537552 -1.4574479 -0.78903979 234 88 12
-0.60605001 -1.4398556 -0.78451687 234 88 12
-0.67264879 -1.4455576 -0.79482841 234 88 12
-0.66357499 -1.4237436 -0.78951377 234 88 12
-0.64958519 -1.4291142 -0.78953254 234 88 12
-0.64784604 -1.4513203 -0.79407012 234 88 12
-0.6379177 -1.4288359 -0.78854638 234 88 12
-0.62659734 -1.4436469 -0.79076517 234 88 12
-0.61328137 -1.4381052 -0.78853971 234 88 12
-0.60149813 -1.4381907 -0.78762096 234 88 12
-0.59827083 -1.4404826 -0.78784704 234 88 12
-0.68467087 -1.5105512 -0.81290913 234 88 12
-0.65687376 -1.4282268 -0.7937032 234 88 12
-0.6462478 -1.416912 -0.79053187 234 88 12
-0.63703632 -1.4261069 -0.79171491 234 88 12
-0.6348936 -1.4461801 -0.79570103 234 88 12
-0.62071085 -1.4371527 -0.79272515 234 88 12
-0.6139335 -1.4405842 -0.79290575 234 88 12
-0.59777886 -1.4391794 -0.79135311 234 88 12
-0.67029369 -1.4818541 -0.80940187 234 88 12
-0.65851068 -1.4644176 -0.8049531 234 88 12
-0.63887852 -1.4607551 -0.80270189 234 88 12
-0.65547705 -1.4239777 -0.80027372 234 88 12
-0.65892977 -1.4522947 -0.80618751 234 88 12
-0.6500811 -1.4327321 -0.80161482 234 88 12
-0.63865834 -1.4330198 -0.80081123 234 88 12
-0.6136263 -1.4402093 -0.80035985 234 88 12
-0.62285072 -1.4829869 -0.80959582 234 88 12
-0.61080736 -1.4562656 -0.80335301 234 88 12
-0.65184462 -1.4253749 -0.8040421 234 88 12
-0.63108444 -1.4200993 -0.80147141 234 88 12
-0.62588072 -1.4293001 -0.80288994 234 88 12
-0.62074333 -1.425027 -0.8016721 234 88 12
-0.6143564 -1.429968 -0.80216801 234 88 12
-0.6374588 -1.4153627 -0.80482292 234 88 12
-0.64229369 -1.4472609 -0.81131232 234 88 12
-0.65486115 -1.4382658 -0.81418598 234 88 12
-0.6718632 -1.5175785 -0.8303749 234 88 12
-0.65069252 -1.4510183 -0.81629688 234 88 12
-0.62210041 -1.4565704 -0.81530696 234 88 12
-0.65537667 -1.4408504 -0.81838197 234 88 12
-0.64746732 -1.4250202 -0.81489635 234 88 12
-0.63786352 -1.4178984 -0.81290537 234 88 12
-0.62845552 -1.4527303 -0.8186999 234 88 12
-0.67060935 -1.5004174 -0.83390903 234 88 12
-0.65063143 -1.4376495 -0.82113582 234 88 12
-0.64017355 -1.4125684 -0.81586206 234 88 12
-0.63538754 -1.4092559 -0.81493205 234 88 12
-0.6246922 -1.4130827 -0.81489372 234 88 12
-0.6538409 -1.4504349 -0.82729709 234 88 12
-0.62838691 -1.4400901 -0.8237431 234 88 12
-0.65829152 -1.4679304 -0.83425242 234 88 12
-0.64354956 -1.4263151 -0.82601714 234 88 12
-0.63638157 -1.455289 -0.83060211 234 88 12
-0.62174791 -1.4173533 -0.82301623 234 88 12
-0.63992864 -1.4132738 -0.82725078 234 88 12
-0.62555194 -1.4174345 -0.82703412 234 88 12
-0.62720007 -1.4098659 -0.82961339 234 88 12
-0.6327619 -1.4163821 -0.83478242 234 88 12
-0.64045066 -1.457791 -0.8420468 234 88 12
-0.65814984 -1.48307 -0.850734 234 88 12
-0.62811285 -1.4140522 -0.83784288 234 88 12
0.95420295 -1.4776211 -0.26725209 234 88 12
0.95461994 -1.4565388 -0.26426557 234 88 12
0.96667606 -1.5134513 -0.27317488 234 88 12
0.96075356 -1.4482611 -0.26347661 234 88 12
0.97334582 -1.4603078 -0.26600763 234 88 12
0.98114371 -1.4927891 -0.2711513 234 88 12
0.98166573 -1.4693342 -0.26783243 234 88 12
0.95136398 -1.4834493 -0.27162704 234 88 12
0.96321374 -1.5144124 -0.27668497 234 88 12
0.95724684 -1.450562 -0.26741207 234 88 12
0.96863681 -1.4534526 -0.26852864 234 88 12
0.97877002 -1.4476522 -0.26835519 234 88 12
0.96581662 -1.5754629 -0.28872678 234 88 12
0.95104378 -1.4592024 -0.27203426 234 88 12
0.95722002 -1.4514596 -0.27135977 234 88 12
0.96066797 -1.4499094 -0.27135977 234 88 12
0.96840119 -1.4529284 -0.27224204 234 88 12
0.97618592 -1.457024 -0.27327365 234 88 12
0.97853404 -1.4471275 -0.27207288 234 88 12
0.94893116 -1.4700127 -0.27714065 234 88 12
0.96307379 -1.4677061 -0.27767658 234 88 12
0.98328859 -1.4861411 -0.28131711 234 88 12
0.94718879 -1.4600042 -0.27951419 234 88 12
0.96784461 -1.4771609 -0.28291813 234 88 12
0.99447143 -1.4638405 -0.28274447 234 88 12
0.99651039 -1.4502608 -0.28111443 234 88 12
0.94687468 -1.4589883 -0.28316584 234 88 12
0.97458655 -1.4485664 -0.28342089 234 88 12
0.98405755 -1.4371845 -0.28252909 234 88 12
0.98830473 -1.4425222 -0.28343633 234 88 12
0.99094474 -1.4339881 -0.28251657 234 88 12
0.99490297 -1.437114 -0.28313068 234 88 12
1.0004331 -1.4554785 -0.28574085 234 88 12
1.0050753 -1.4664921 -0.28738087 234 88 12
0.92192942 -1.4655935 -0.28640118 234 88 12
0.92544055 -1.4644066 -0.28644884 234 88 12
0.93209189 -1.4808967 -0.2888186 234 88 12
0.93580306 -1.4812676 -0.28906667 234 88 12
0.94999319 -1.456418 -0.28681988 234 88 12
0.95615572 -1.4485689 -0.2862021 234 88 12
0.96270025 -1.4683976 -0.28897214 234 88 12
0.96365708 -1.4497194 -0.28675231 234 88 12
0.97873318 -1.4816754 -0.29146421 234 88 12
0.9990865 -1.4443929 -0.28804207 234 88 12
0.95126283 -1.4884185 -0.29446283 234 88 12
0.95911664 -1.4695778 -0.29265454 234 88 12
0.96437764 -1.4559679 -0.2913264 234 88 12
0.98372215 -1.4372891 -0.29014742 234 88 12
0.99789178 -1.4347801 -0.29060355 234 88 12
0.92242169 -1.4893917 -0.29676497 234 88 12
0.92609805 -1.4695745 -0.29468358 234 88 12
0.93665993 -1.4666803 -0.29489607 234 88 12
0.96824747 -1.4589286 -0.29563516 234 88 12
1.0089157 -1.5091934 -0.30348989 234 88 12
0.92133892 -1.4646599 -0.29767853 234 88 12
0.92478204 -1.4631119 -0.29767853 234 88 12
0.93845642 -1.4563321 -0.29760835 234 88 12
0.95545495 -1.4943699 -0.30268168 234 88 12
0.95381588 -1.4604923 -0.29883733 234 88 12
0.95924354 -1.4478379 -0.29770294 234 88 12
0.97452229 -1.4800429 -0.3020426 234 88 12
0.97478408 -1.455186 -0.29929501 234 88 12
0.97728449 -1.4466132 -0.29846776 234 88 12
0.98002076 -1.4395428 -0.29781914 234 88 12
0.99059099 -1.4681226 -0.30152106 234 88 12
0.99053109 -1.4366108 -0.29801831 234 88 12
0.9952625 -1.4469193 -0.29939947 234 88 12
1.006101 -1.5156168 -0.30757028 234 88 12
1.0100313 -1.5217208 -0.30844444 234 88 12
0.92526072 -1.4665143 -0.30186638 234 88 12
0.94346589 -1.4652672 -0.30261248 234 88 12
0.96939027 -1.4695445 -0.30432591 234 88 12
0.97593385 -1.4917234 -0.30702746 234 88 12
0.99989319 -1.4587202 -0.30463669 234 88 12
1.0081939 -1.5054476 -0.31006315 234 88 12
0.92270142 -1.4929805 -0.30828148 234 88 12
0.92129338 -1.4659082 -0.30539942 234 88 12
0.93744516 -1.5341434 -0.31325302 234 88 12
0.95299751 -1.4805498 -0.30840528 234 88 12
0.9666574 -1.450938 -0.30596378 234 88 12
0.9987734 -1.4498447 -0.3073521 234 88 12
0.92381138 -1.499527 -0.31267795 234 88 12
0.9202466 -1.4610275 -0.30864716 234 88 12
0.92683595 -1.4766884 -0.31051904 234 88 12
0.9282673 -1.4641954 -0.30932802 234 88 12
0.93946981 -1.4650409 -0.30991924 234 88 12
0.94266021 -1.4621682 -0.30977467 234 88 12
0.95469576 -1.492354 -0.31335261 234 88 12
0.95213187 -1.4525151 -0.30923244 234 88 12
0.95531034 -1.449276 -0.3090505 234 88 12
0.96268207 -1.4496822 -0.30942446 234 88 12
0.97492683 -1.460052 -0.31102011 234 88 12
0.97629529 -1.4428234 -0.30935025 234 88 12
0.98267239 -1.4357711 -0.30892959 234 88 12
0.98600554 -1.4333004 -0.30883187 234 88 12
0.99085104 -1.4440901 -0.31013533 234 88 12
0.99974078 -1.4605869 -0.31219521 234 88 12
0.93261015 -1.4892784 -0.31572679 234 88 12
0.94070727 -1.451171 -0.31238329 234 88 12
0.95459056 -1.4695944 -0.31477594 234 88 12
0.96711671 -1.4565971 -0.31406146 234 88 12
0.95203382 -1.4996388 -0.32118905 234 88 12
0.96026629 -1.4845141 -0.32012093 234 88 12
0.99524391 -1.4547248 -0.31880596 234 88 12
0.93888795 -1.5061222 -0.32484654 234 88 12
0.93885016 -1.485359 -0.32297629 234 88 12
0.9391827 -1.4659543 -0.32124329 234 88 12
0.94815135 -1.4763757 -0.32254413 234 88 12
0.94783485 -1.4514805 -0.32029071 234 88 12
0.95578581 -1.4793794 -0.3231234 234 88 12
0.9622767 -1.4502245 -0.32076207 234 88 12
0.97561258 -1.4414413 -0.32051119 234 88 12
0.98207527 -1.4351233 -0.32020408 234 88 12
0.98533022 -1.4320197 -0.32005644 234 88 12
0.99165392 -1.4557213 -0.32244551 234 88 12
0.94235027 -1.4639047 -0.32492882 234 88 12
0.94918787 -1.461067 -0.32494926 234 88 12
0.94321084 -1.447523 -0.32733849 234 88 12
0.96416366 -1.44002 -0.32749763 234 88 12
0.9845587 -1.4584115 -0.32978562 234 88 12
0.98889786 -1.4652334 -0.33051386 234 88 12
0.95345819 -1.4671905 -0.33305785 234 88 12
0.98206097 -1.4681137 -0.33415395 234 88 12
0.98534018 -1.466221 -0.33412069 234 88 12
0.94752616 -1.476169 -0.33723772 234 88 12
0.94709098 -1.4506539 -0.33528256 234 88 12
0.95015711 -1.4467435 -0.33509001 234 88 12
0.96006674 -1.4392638 -0.33486006 234 88 12
0.96495777 -1.4480498 -0.33569539 234 88 12
0.97282034 -1.4792295 -0.33833522 234 88 12
0.963278 -1.437186 -0.33859646 234 88 12
0.94588584 -1.4459331 -0.34621334 234 88 12
0.94856751 -1.4394666 -0.34586814 234 88 12
0.95291531 -1.4438103 -0.34628144 234 88 12
0.96055967 -1.446066 -0.34665498 234 88 12
0.9625358 -1.4342177 -0.34593582 234 88 12
0.94983149 -1.4718387 -0.35170186 234 88 12
0.96202052 -1.4828277 -0.35633633 234 88 12
0.96607184 -1.4617367 -0.35520545 234 88 12
0.94594657 -1.4492154 -0.35768759 234 88 12
0.94846469 -1.4418215 -0.35734177 234 88 12
0.95182043 -1.439684 -0.35730705 234 88 12
0.96179378 -1.4823233 -0.35990959 234 88 12
0.96253425 -1.4376932 -0.35746312 234 88 12
0.9755668 -1.5062017 -0.36157033 234 88 12
0.94658911 -1.4542251 -0.36170557 234 88 12
0.9653095 -1.4585737 -0.36236647 234 88 12
0.9615826 -1.5061487 -0.36826137 234 88 12
0.3833082 2.1794701 0.17712939 234 88 12
0.47972164 1.9479264 0.29799205 234 88 12
0.50382984 1.8839087 0.3314833 234 88 12
0.4840084 1.9167815 0.31450453 234 88 12
0.47789723 1.917118 0.31450453 234 88 12
0.46567491 1.9177907 0.31450453 234 88 12
0.47204262 1.8856584 0.3314833 234 88 12
0.45496491 1.9223497 0.31238386 234 88 12
0.48766497 1.8276924 0.36199117 234 88 12
0.477465 1.8282537 0.36199117 234 88 12
0.49319586 1.7657475 0.39492133 234 88 12
0.48955703 1.7659478 0.39492133 234 88 12
0.46386507 1.8290023 0.36199117 234 88 12
0.44977382 1.859988 0.34585202 234 88 12
0.43992499 1.8605301 0.34585202 234 88 12
0.43007618 1.8610722 0.34585202 234 88 12
0.44086397 1.8067353 0.37456325 234 88 12
0.45883086 1.7384851 0.41049626 234 88 12
0.45507908 1.7386916 0.41049626 234 88 12
0.42225164 1.7371496 0.4122853 234 88 12
0.36482835 1.9344406 0.30857491 234 88 12
0.35579062 1.9349381 0.30857491 234 88 12
0.34374031 1.9356014 0.30857491 234 88 12
0.36864549 1.8061721 0.37698758 234 88 12
0.34867546 1.8483474 0.35504347 234 88 12
0.35343751 1.8121986 0.37421525 234 88 12
0.34807828 1.7886761 0.38693929 234 88 12
0.34449735 1.7888732 0.38693929 234 88 12
0.34793976 1.7546991 0.40509489 234 88 12
0.346746 1.7423435 0.41173071 234 88 12
0.34298527 1.7425506 0.41173071 234 88 12
0.37493229 2.1989169 0.16495806 234 88 12
0.38005504 2.1823015 0.17361924 234 88 12
0.45799857 1.9220635 0.30934137 234 88 12
0.50254756 1.7394795 0.40486032 234 88 12
0.48227155 1.766206 0.39127982 234 88 12
0.47863275 1.7664063 0.39127982 234 88 12
0.44320086 1.8602209 0.34256661 234 88 12
0.43991792 1.8604016 0.34256661 234 88 12
0.44783881 1.8062143 0.37106946 234 88 12
0.46516719 1.741537 0.40486032 234 88 12
0.40609694 1.7826953 0.38475928 234 88 12
0.36180928 1.9344887 0.30556008 234 88 12
0.35578415 1.9348202 0.30556008 234 88 12
0.34373382 1.9354835 0.30556008 234 88 12
0.35460293 1.8068074 0.37347621 234 88 12
0.34065574 1.85457 0.3485561 234 88 12
0.34407666 1.8073868 0.37347621 234 88 12
0.3399471 1.8105633 0.3719123 234 88 12
0.3820993 2.1821086 0.17156906 234 88 12
0.38005063 2.1822214 0.17156906 234 88 12
0.49110126 1.88436 0.3251211 234 88 12
0.46711263 1.9214425 0.30629891 234 88 12
0.4944503 1.827052 0.3551861 234 88 12
0.49105033 1.8272392 0.3551861 234 88 12
0.47745037 1.8279877 0.3551861 234 88 12
0.49132538 1.7399505 0.4011195 234 88 12
0.47637326 1.7407736 0.4011195 234 88 12
0.40289149 1.8069617 0.36841238 234 88 12
0.40815514 1.7749641 0.38510066 234 88 12
0.37376857 1.7843337 0.38116542 234 88 12
0.36658621 1.784729 0.38116542 234 88 12
0.362995 1.7849267 0.38116542 234 88 12
0.36661467 1.7528139 0.397962 234 88 12
0.35920498 1.7698598 0.38920516 234 88 12
0.35555461 1.7700607 0.38920516 234 88 12
0.3434369 1.8102341 0.36841238 234 88 12
0.3542513 1.7416353 0.40420362 234 88 12
0.39459673 2.1528566 0.18439761 234 88 12
0.39243776 2.1529756 0.18439761 234 88 12
0.48093307 1.9165912 0.30533093 234 88 12
0.47622669 1.9208215 0.30325642 234 88 12
0.43004861 1.9496243 0.28953868 234 88 12
0.42128882 1.7401098 0.39923251 234 88 12
0.40814734 1.7748225 0.3814778 234 88 12
0.40249029 1.782612 0.37757155 234 88 12
0.37403625 1.7522597 0.39424443 234 88 12
0.35042402 1.8097122 0.36491242 234 88 12
0.35800391 1.7412813 0.40044007 234 88 12
0.4942663 1.8839363 0.3187589 234 88 12
0.5080356 1.8260375 0.34838107 234 88 12
0.50252342 1.7390409 0.39363784 234 88 12
0.49130929 1.7396581 0.39363784 234 88 12
0.48292777 1.753395 0.3867557 234 88 12
0.41394454 1.7665604 0.381899 234 88 12
0.41117626 1.7500697 0.39052686 234 88 12
0.39170903 1.7830645 0.37397769 234 88 12
0.37014031 1.7689714 0.381899 234 88 12
0.41658717 2.1013365 0.20587127 234 88 12
0.52983999 1.8214287 0.34666353 234 88 12
0.51751119 1.8429807 0.3359251 234 88 12
0.51417935 1.8431641 0.3359251 234 88 12
0.49345738 1.7332952 0.3930341 234 88 12
0.42621532 1.7353494 0.39388135 234 88 12
0.36949715 1.7715837 0.37684661 234 88 12
0.36648208 1.7690295 0.37824592 234 88 12
0.3539063 1.8092461 0.35791254 234 88 12
0.32942501 1.8105935 0.35791254 234 88 12
0.54988247 1.7566873 0.37566721 234 88 12
0.5042491 1.8352302 0.33685327 234 88 12
0.497821 1.8263329 0.34157601 234 88 12
0.49102104 1.8267071 0.34157601 234 88 12
0.47742108 1.8274556 0.34157601 234 88 12
0.43002963 1.9492794 0.2807166 234 88 12
0.49028516 1.7527007 0.37937695 234 88 12
0.39887592 1.7823881 0.36678997 234 88 12
0.39169356 1.7827835 0.36678997 234 88 12
0.38091999 1.7833765 0.36678997 234 88 12
0.36655527 1.7841671 0.36678997 234 88 12
0.35389876 1.8091092 0.35441262 234 88 12
0.36550111 1.7404259 0.38914946 234 88 12
0.34077045 1.7710484 0.37421152 234 88 12
0.5274924 1.8421699 0.32925642 234 88 12
0.51478326 1.8644392 0.31833026 234 88 12
0.55719161 1.7561414 0.37200597 234 88 12
0.53757167 1.7862973 0.35727757 234 88 12
0.44765428 1.9481941 0.27777591 234 88 12
0.43296179 1.9490027 0.27777591 234 88 12
0.46723589 1.8371354 0.33348659 234 88 12
0.44127119 1.734225 0.38633969 234 88 12
0.41392094 1.766132 0.37093976 234 88 12
0.40811616 1.774256 0.36698642 234 88 12
0.38506818 1.8344401 0.33714285 234 88 12
0.56450075 1.7555956 0.36834475 234 88 12
0.54465592 1.7857683 0.35372895 234 88 12
0.54110998 1.7859634 0.35372895 234 88 12
0.50759876 1.8347819 0.33011988 234 88 12
0.50423461 1.834967 0.33011988 234 88 12
0.49077788 1.8357077 0.33011988 234 88 12
0.46386448 1.8371891 0.33011988 234 88 12
0.49650598 1.7346125 0.38077182 234 88 12
0.44503108 1.7338701 0.38256887 234 88 12
0.40284628 1.8061407 0.34741274 234 88 12
0.40223202 1.7693534 0.36591899 234 88 12
0.35738105 1.8086431 0.34741274 234 88 12
0.34804967 1.7703615 0.36691114 234 88 12
0.34440222 1.7705623 0.36691114 234 88 12
0.52691853 1.7866055 0.35018033 234 88 12
0.48657471 1.752471 0.36830878 234 88 12
0.48590168 1.7331207 0.37797627 234 88 12
0.44502297 1.7337228 0.37879801 234 88 12
0.44125494 1.7339302 0.37879801 234 88 12
0.42995089 1.7345524 0.37879801 234 88 12
0.38166144 1.8343613 0.33035356 234 88 12
0.39167035 1.782362 0.35600835 234 88 12
0.38089681 1.7829549 0.35600835 234 88 12
0.36653206 1.7837456 0.35600835 234 88 12
0.35737351 1.8085064 0.34391278 234 88 12
0.4417583 1.9481727 0.26895386 234 88 12
0.43000433 1.9488196 0.26895386 234 88 12
0.41825032 1.9494666 0.26895386 234 88 12
0.47919351 1.7527326 0.3646194 234 88 12
0.46444699 1.7535442 0.3646194 234 88 12
0.467623 1.732331 0.37502718 234 88 12
0.39727491 1.8136357 0.33672097 234 88 12
0.40447262 1.7740303 0.35611787 234 88 12
0.37826204 1.8344153 0.32695889 234 88 12
0.35451722 1.8357223 0.32695889 234 88 12
0.55172497 1.7849618 0.34308311 234 88 12
0.54108709 1.7855473 0.34308311 234 88 12
0.52621526 1.7880388 0.34226209 234 88 12
0.50421286 1.8345722 0.32001981 234 88 12
0.49075615 1.8353128 0.32001981 234 88 12
0.45375022 1.8373498 0.32001981 234 88 12
0.45337915 1.7540088 0.36093003 234 88 12
0.40220851 1.7689263 0.35499135 234 88 12
0.35790205 1.8354028 0.32356426 234 88 12
0.43988442 1.7504476 0.35926539 234 88 12
0.42696565 1.7819809 0.34426075 234 88 12
0.43369457 1.7339027 0.36748549 234 88 12
0.42598686 1.7480348 0.36081237 234 88 12
0.40904811 1.7829671 0.34426075 234 88 12
0.40546462 1.7831644 0.34426075 234 88 12
0.38163954 1.8339633 0.3201696 234 88 12
0.36944228 1.7705868 0.35134882 234 88 12
0.5614996 1.7618026 0.34677464 234 88 12
0.48060632 1.7480611 0.35555992 234 88 12
0.47548306 1.7525028 0.35355124 234 88 12
0.46579546 1.7488762 0.35555992 234 88 12
0.44967392 1.7878556 0.33716646 234 88 12
0.4546873 1.7494876 0.35555992 234 88 12
0.44295111 1.7640789 0.34882614 234 88 12
0.43617374 1.7505066 0.35555992 234 88 12
0.38502434 1.8336438 0.31677496 234 88 12
0.37824011 1.8340173 0.31677496 234 88 12
0.37484801 1.834204 0.31677496 234 88 12
0.36806378 1.8345773 0.31677496 234 88 12
0.56149173 1.7616605 0.34313956 234 88 12
0.55059469 1.7622602 0.34313956 234 88 12
0.53327137 1.7872338 0.33163568 234 88 12
0.52619237 1.7876234 0.33163568 234 88 12
0.47727773 1.8356588 0.30991974 234 88 12
0.43291751 1.9481981 0.25719109 234 88 12
0.42997903 1.9483598 0.25719109 234 88 12
0.41822502 1.9490068 0.25719109 234 88 12
0.47293457 1.7808915 0.33626369 234 88 12
0.44141936 1.7917403 0.33189866 234 88 12
0.42846113 1.8113748 0.32283679 234 88 12
0.4237113 1.792715 0.33189866 234 88 12
0.42834809 1.7647395 0.34517464 234 88 12
0.42505762 1.7509731 0.35185441 234 88 12
0.41010413 1.7657436 0.34517464 234 88 12
0.40582481 1.7682987 0.34406373 234 88 12
0.51556629 1.7880695 0.32809356 234 88 12
0.48736301 1.8349717 0.30655307 234 88 12
0.47727048 1.8355272 0.30655307 234 88 12
0.45814747 1.8239007 0.31257537 234 88 12
0.46651757 1.7893088 0.32878718 234 88 12
0.4496586 1.7875774 0.33005032 234 88 12
0.43539059 1.8108573 0.31936574 234 88 12
0.42845365 1.8112391 0.31936574 234 88 12
0.41804829 1.8118118 0.31936574 234 88 12
0.42469144 1.7647976 0.34152311 234 88 12
0.41739386 1.7651992 0.34152311 234 88 12
0.54117382 1.7845539 0.32547808 234 88 12
0.53968197 1.7625757 0.3358694 234 88 12
0.50140071 1.7887102 0.32455143 234 88 12
0.50448966 1.7517151 0.3418977 234 88 12
0.49169055 1.747015 0.34444347 234 88 12
0.47005507 1.788975 0.32523939 234 88 12
0.47687969 1.7478303 0.34444347 234 88 12
0.47317696 1.748034 0.34444347 234 88 12
0.46482027 1.7624457 0.33787161 234 88 12
0.3816103 1.8334324 0.30659103 234 88 12
0.3782182 1.8336191 0.30659103 234 88 12
0.36804187 1.8341793 0.30659103 234 88 12
0.5614683 1.7612342 0.33223432 234 88 12
0.50816357 1.7513684 0.33821312 234 88 12
0.47948197 1.7817451 0.32476139 234 88 12
0.45813277 1.8236337 0.3057439 234 88 12
0.4547196 1.8238215 0.3057439 234 88 12
0.44578102 1.8100132 0.31242365 234 88 12
0.36803457 1.8340466 0.30319637 234 88 12
0.54470563 1.7840811 0.3183786 234 88 12
0.54115856 1.7842764 0.3183786 234 88 12
0.55047131 1.735636 0.34066981 234 88 12
0.52697015 1.7850573 0.3183786 234 88 12
0.5155434 1.787654 0.31746715 234 88 12
0.50138545 1.7884333 0.31746715 234 88 12
0.49732694 1.7806228 0.32118818 234 88 12
0.49018586 1.7810159 0.32118818 234 88 12
0.48479563 1.7863066 0.31887507 234 88 12
0.47713009 1.7883074 0.31814381 234 88 12
0.46575007 1.7807256 0.32194558 234 88 12
0.42368081 1.7921607 0.31772164 234 88 12
0.42831665 1.7641685 0.33056858 234 88 12
0.41737029 1.764771 0.33056858 234 88 12
0.40579346 1.7677292 0.32949358 234 88 12
0.38031471 1.7691315 0.32949358 234 88 12
0.55100137 1.7341622 0.33753011 234 88 12
0.49374872 1.7806797 0.31761497 234 88 12
0.47589606 1.7816623 0.31761497 234 88 12
0.46334031 1.7980484 0.31040734 234 88 12
0.46216553 1.7807825 0.31836605 234 88 12
0.45501181 1.7811762 0.31836605 234 88 12
0.43882915 1.8101236 0.30548155 234 88 12
0.42842379 1.8106964 0.30548155 234 88 12
0.38758653 1.7685884 0.32585105 234 88 12
0.55519879 1.7236377 0.33840904 234 88 12
0.53977907 1.7346332 0.33378926 234 88 12
0.51873475 1.7791643 0.31404179 234 88 12
0.49451932 1.7686832 0.31942064 234 88 12
0.49090317 1.7688822 0.31942064 234 88 12
0.47643849 1.7696784 0.31942064 234 88 12
0.39230803 1.7494351 0.33074561 234 88 12
0.5442062 1.800993 0.29991996 234 88 12
0.54072589 1.8011845 0.29991996 234 88 12
0.55053991 1.7612655 0.31769404 234 88 12
0.53603297 1.7346927 0.33004838 234 88 12
0.52285916 1.7499816 0.32347482 234 88 12
0.50801545 1.7796142 0.31046858 234 88 12
0.49128771 1.7871108 0.30750048 234 88 12
0.44068903 1.7816839 0.31120703 234 88 12
0.42719954 1.7915502 0.30708888 234 88 12
0.42464429 1.7639412 0.31961402 234 88 12
0.4130331 1.7923299 0.30708888 234 88 12
0.41668943 1.766701 0.31856596 234 88 12
0.40576994 1.767302 0.31856596 234 88 12
0.39601231 1.7490855 0.32703057 234 88 12
0.55176926 1.7831355 0.30417964 234 88 12
0.54112798 1.7837212 0.30417964 234 88 12
0.55140525 1.7235501 0.33084887 234 88 12
0.52854878 1.7349579 0.32630751 234 88 12
0.49729618 1.7800641 0.30689538 234 88 12
0.49015513 1.7804571 0.30689538 234 88 12
0.46557441 1.7699926 0.3121829 234 88 12
0.45526484 1.7906467 0.30319554 234 88 12
0.4544498 1.7824224 0.30689538 234 88 12
0.44068131 1.781544 0.3076275 234 88 12
0.41942969 1.8175133 0.2920571 234 88 12
0.41598722 1.8177029 0.2920571 234 88 12
0.40565982 1.8182713 0.2920571 234 88 12
0.39188996 1.8190292 0.2920571 234 88 12
0.3849586 1.8324496 0.28622314 234 88 12
0.39773738 1.742075 0.32634467 234 88 12
0.51358843 1.7356347 0.32256663 234 88 12
0.51211983 1.7296112 0.3252739 234 88 12
0.50075239 1.7509094 0.31610566 234 88 12
0.44025344 1.7712443 0.30856404 234 88 12
0.38495129 1.8323169 0.28282848 234 88 12
0.39025253 1.7423402 0.32260346 234 88 12
0.55138898 1.7232546 0.32328868 234 88 12
0.53600883 1.734254 0.31882578 234 88 12
0.52853268 1.7346655 0.31882578 234 88 12
0.51358038 1.7354885 0.31882578 234 88 12
0.50984228 1.7356943 0.31882578 234 88 12
0.47942814 1.7807673 0.29974899 234 88 12
0.47409606 1.7860595 0.29755175 234 88 12
0.4658654 1.7897855 0.29611304 234 88 12
0.40938628 1.7666745 0.30763835 234 88 12
0.40574643 1.7668748 0.30763835 234 88 12
0.40731585 1.7473133 0.316199 234 88 12
0.40519807 1.7413709 0.31886229 234 88 12
0.39024448 1.7421939 0.31886229 234 88 12
0.55174637 1.7827193 0.2935304 234 88 12
0.54110509 1.7833049 0.2935304 234 88 12
0.52691668 1.7840859 0.2935304 234 88 12
0.54347694 1.7336963 0.3150849 234 88 12
0.50339967 1.7819552 0.29502249 234 88 12
0.47053716 1.786116 0.29399788 234 88 12
0.46698594 1.7863115 0.29399788 234 88 12
0.45278099 1.7870933 0.29399788 234 88 12
0.43425226 1.7906061 0.29291183 234 88 12
0.41494548 1.843184 0.2704699 234 88 12
0.43978077 1.7485646 0.31109414 234 88 12
0.42686534 1.7801585 0.29764035 234 88 12
0.42959788 1.745941 0.31248122 234 88 12
0.48915073 1.7825998 0.29145953 234 88 12
0.49704677 1.7506801 0.30505195 234 88 12
0.48968309 1.7510853 0.30505195 234 88 12
0.47641903 1.7790155 0.29330939 234 88 12
0.44065049 1.7809843 0.29330939 234 88 12
0.42327413 1.7802155 0.29405415 234 88 12
0.42523503 1.7610244 0.30229259 234 88 12
0.51653117 1.8420906 0.26174304 234 88 12
0.55781698 1.7340274 0.3069984 234 88 12
0.55035174 1.7344383 0.3069984 234 88 12
0.53972274 1.7336096 0.30760318 234 88 12
0.51467168 1.7795188 0.28855383 234 88 12
0.52850854 1.7342268 0.30760318 234 88 12
0.40490279 1.8434744 0.26377937 234 88 12
0.42760429 1.7396976 0.3076387 234 88 12
0.41638911 1.7403148 0.3076387 234 88 12
0.40517393 1.7409321 0.3076387 234 88 12
0.55172342 1.782303 0.28288117 234 88 12
0.52334672 1.7838649 0.28288117 234 88 12
0.51004261 1.7344706 0.3041276 234 88 12
0.50256163 1.7348824 0.3041276 234 88 12
0.46937352 1.789037 0.28194806 234 88 12
0.46583492 1.7892318 0.28194806 234 88 12
0.45521912 1.7898161 0.28194806 234 88 12
0.44106472 1.7905952 0.28194806 234 88 12
0.43615958 1.7602392 0.29492906 234 88 12
0.42521927 1.7607381 0.29497281 234 88 12
0.41790497 1.7611407 0.29497281 234 88 12
0.56899875 1.733119 0.29952759 234 88 12
0.50806844 1.74964 0.29399821 234 88 12
0.4896926 1.7806139 0.28141603 234 88 12
0.49702296 1.750248 0.29399821 234 88 12
0.48965931 1.7506533 0.29399821 234 88 12
0.48003283 1.7576809 0.29126957 234 88 12
0.43615171 1.7600961 0.29126957 234 88 12
0.47480473 1.740743 0.29471639 234 88 12
0.45850396 1.7794402 0.27899131 234 88 12
0.45492712 1.7796371 0.27899131 234 88 12
0.42331335 1.7794126 0.27980852 234 88 12
0.42495364 1.7354691 0.29805186 234 88 12
0.57271534 1.7326216 0.29205677 234 88 12
0.5652501 1.7330323 0.29205677 234 88 12
0.55031961 1.7338542 0.29205677 234 88 12
0.5284763 1.7336419 0.2926397 234 88 12
0.5137589 1.7338258 0.29289773 234 88 12
0.50253743 1.7344434 0.29289773 234 88 12
0.46539006 1.7581998 0.2839506 234 88 12
0.45441976 1.7588037 0.2839506 234 88 12
0.42805523 1.7373992 0.29336905 234 88 12
0.54754668 1.7222803 0.29304793 234 88 12
0.53220636 1.7332898 0.28889883 234 88 12
0.50436282 1.7494105 0.28294447 234 88 12
0.48732275 1.7568492 0.28029111 234 88 12
0.48000923 1.7572517 0.28029111 234 88 12
0.46734342 1.7408615 0.28726551 234 88 12
0.45075515 1.7588619 0.28029111 234 88 12
0.43405119 1.7785404 0.27263433 234 88 12
0.43244463 1.7347622 0.29053912 234 88 12
0.57042372 1.7376659 0.28247941 234 88 12
0.53850949 1.7538884 0.27663162 234 88 12
0.53789496 1.7464259 0.27966195 234 88 12
0.526838 1.7470344 0.27966195 234 88 12
0.51578099 1.747643 0.27966195 234 88 12
0.50803673 1.7490638 0.27925992 234 88 12
0.43762791 1.7782028 0.2690472 234 88 12
0.4430187 1.7362818 0.28587365 234 88 12
0.5726912 1.7321835 0.28085056 234 88 12
0.56522596 1.7325944 0.28085056 234 88 12
0.54215837 1.753544 0.27297211 234 88 12
0.53617769 1.7321515 0.28166789 234 88 12
0.52869672 1.7325633 0.28166789 234 88 12
0.50976181 1.7342319 0.2814171 234 88 12
0.46536642 1.7577707 0.27297211 234 88 12
0.46360475 1.7407752 0.27981466 234 88 12
0.55885404 1.7212132 0.28170764 234 88 12
0.43044361 1.778317 0.26187301 234 88 12
0.57817656 1.7189837 0.27832708 234 88 12
0.54188401 1.7358793 0.27247968 234 88 12
0.44151941 1.7408147 0.27271074 234 88 12
0.54932356 1.7353237 0.26875314 234 88 12
0.44523743 1.7404639 0.26898193 234 88 12
0.57816023 1.7186879 0.27075902 234 88 12
0.55676311 1.7347682 0.26502657 234 88 12
-1.0071214 -0.54982257 -1.3664913 234 88 12
-1.0017729 -0.55517107 -1.3664913 234 88 12
-0.9986878 -0.55699462 -1.3659965 234 88 12
-0.9960109 -0.55967152 -1.3659965 234 88 12
-0.99692392 -0.56964141 -1.3702651 234 88 12
-0.99704379 -0.57787669 -1.3735422 234 88 12
-0.99651444 -0.55445153 -1.3683504 234 88 12
-1.0359029 -0.54148507 -1.3827195 234 88 12
-1.025454 -0.52612823 -1.3727678 234 88 12
-1.0174341 -0.55945724 -1.3825279 234 88 12
-1.0068574 -0.56158078 -1.3792681 234 88 12
-0.98359579 -0.56259811 -1.3706899 234 88 12
-0.98253334 -0.56846273 -1.3725418 234 88 12
-1.0439817 -0.54538959 -1.3913711 234 88 12
-1.033854 -0.53036153 -1.3817523 234 88 12
-1.0325749 -0.54477149 -1.3867731 234 88 12
-1.0207486 -0.52649319 -1.375262 234 88 12
-1.0190625 -0.5313763 -1.3764845 234 88 12
-0.99548298 -0.54800326 -1.373826 234 88 12
-0.99611109 -0.5735321 -1.3838277 234 88 12
-1.0065309 -0.62468958 -1.4073728 234 88 12
-1.0361221 -0.52042782 -1.3829352 234 88 12
-1.0334774 -0.52307242 -1.3829352 234 88 12
-1.0417002 -0.55950773 -1.3998659 234 88 12
-1.0215855 -0.53068167 -1.3813115 234 88 12
-1.0069839 -0.54107785 -1.3797172 234 88 12
-1.0042738 -0.54363823 -1.3796604 234 88 12
-0.99913591 -0.58143896 -1.3920436 234 88 12
-0.98608106 -0.5631659 -1.3801665 234 88 12
-0.98427171 -0.57535839 -1.3841029 234 88 12
-1.0432512 -0.53978181 -1.3969805 234 88 12
-1.0201 -0.52091706 -1.3811872 234 88 12
-1.0192777 -0.56142205 -1.3961035 234 88 12
-0.99602848 -0.54484463 -1.3811332 234 88 12
-0.9822374 -0.55731243 -1.3806357 234 88 12
-1.0016506 -0.61103123 -1.4081252 234 88 12
-1.0374119 -0.52838945 -1.394541 234 88 12
-1.0339532 -0.5290159 -1.3934855 234 88 12
-1.0493875 -0.57342988 -1.4157895 234 88 12
-1.0201449 -0.51458508 -1.3829616 234 88 12
-1.0291052 -0.54367805 -1.397143 234 88 12
-0.99334925 -0.54123753 -1.3829082 234 88 12
-0.99183851 -0.57036549 -1.3932004 234 88 12
-1.0095979 -0.62816066 -1.4213576 234 88 12
-1.038015 -0.54086757 -1.4033892 234 88 12
-1.0169166 -0.53549218 -1.3936077 234 88 12
-1.0089486 -0.52638197 -1.3872976 234 88 12
-0.99521255 -0.56318998 -1.3958223 234 88 12
-0.99977797 -0.58803898 -1.4066902 234 88 12
-1.0185289 -0.51557499 -1.3909374 234 88 12
-1.0134317 -0.52140069 -1.3912042 234 88 12
-1.005865 -0.53027534 -1.3916833 234 88 12
-1.0081604 -0.55181479 -1.4004141 234 88 12
-1.0032358 -0.55763859 -1.4007435 234 88 12
-0.98678899 -0.54790252 -1.3911526 234 88 12
-0.99492097 -0.58775425 -1.4087291 234 88 12
-0.97985959 -0.57357293 -1.3980175 234 88 12
-0.96316457 -0.56475133 -1.3886707 234 88 12
-1.0282873 -0.54009128 -1.4074539 234 88 12
-1.0257043 -0.5426743 -1.4074539 234 88 12
-1.0091741 -0.52272481 -1.3942066 234 88 12
-1.0111217 -0.54379094 -1.4025639 234 88 12
-1.0089147 -0.55542564 -1.4059875 234 88 12
-0.9946472 -0.53341126 -1.392812 234 88 12
-0.98421651 -0.54455 -1.3930691 234 88 12
-0.97741359 -0.5548951 -1.3943554 234 88 12
-1.0049713 -0.61665267 -1.4267895 234 88 12
-0.98334992 -0.58957702 -1.4091057 234 88 12
-0.96701902 -0.56597137 -1.394603 234 88 12
-0.96436304 -0.56862736 -1.394603 234 88 12
-0.95862418 -0.56552237 -1.3913914 234 88 12
-1.0432727 -0.57633328 -1.4298353 234 88 12
-1.0457048 -0.58982217 -1.4355668 234 88 12
-0.98171628 -0.54135048 -1.395081 234 88 12
-1.0237651 -0.57519913 -1.4262261 234 88 12
-0.99228543 -0.52416444 -1.3967787 234 88 12
-1.0078375 -0.56507564 -1.4169291 234 88 12
-0.99665225 -0.54970807 -1.4074531 234 88 12
-0.98231345 -0.55238533 -1.4032912 234 88 12
-0.98100609 -0.55766225 -1.4047079 234 88 12
-1.0008719 -0.60451782 -1.4285192 234 88 12
-0.95821691 -0.56790888 -1.4002318 234 88 12
-0.97236723 -0.60157043 -1.4172947 234 88 12
-1.0080272 -0.51824969 -1.4043121 234 88 12
-1.0032738 -0.54128611 -1.4107801 234 88 12
-0.97962987 -0.57216418 -1.4133393 234 88 12
-0.96516252 -0.55188674 -1.4010476 234 88 12
-0.97814047 -0.61367154 -1.4274964 234 88 12
-1.0494657 -0.61199194 -1.4557213 234 88 12
-0.98783392 -0.52710247 -1.4043392 234 88 12
-0.98517072 -0.52976567 -1.4043392 234 88 12
-0.98315442 -0.533755 -1.4050311 234 88 12
-0.99026954 -0.57182944 -1.4208782 234 88 12
-0.97004855 -0.54742277 -1.4052281 234 88 12
-0.98007566 -0.58969897 -1.4235699 234 88 12
-0.95876461 -0.55682385 -1.4045678 234 88 12
-0.98871636 -0.62757856 -1.4398837 234 88 12
-0.98511982 -0.62793994 -1.4387492 234 88 12
-1.0050427 -0.51602185 -1.410486 234 88 12
-0.96005285 -0.55318767 -1.4077663 234 88 12
-0.98470348 -0.60732335 -1.4351531 234 88 12
-1.0054346 -0.51904583 -1.4156387 234 88 12
-0.99536753 -0.53051412 -1.4161215 234 88 12
-0.98471314 -0.52453595 -1.4103907 234 88 12
-0.99149281 -0.54664153 -1.4203432 234 88 12
-0.98888105 -0.55708516 -1.4230417 234 88 12
-0.97334856 -0.55730563 -1.4177659 234 88 12
-1.0126703 -0.53705853 -1.4282048 234 88 12
-1.0094018 -0.53811324 -1.4274487 234 88 12
-1.0068264 -0.54068857 -1.4274487 234 88 12
-0.99410695 -0.5216279 -1.4165953 234 88 12
-0.98180628 -0.5366528 -1.4175258 234 88 12
-0.98121971 -0.54341912 -1.4196361 234 88 12
-0.96893823 -0.53471291 -1.4124686 234 88 12
-0.96822131 -0.5490157 -1.4171084 234 88 12
-0.9576245 -0.55946642 -1.4170585 234 88 12
-0.9469856 -0.55484211 -1.4118458 234 88 12
-1.0086855 -0.5304231 -1.4284554 234 88 12
-0.99758494 -0.51454771 -1.4193242 234 88 12
-0.98683429 -0.51649523 -1.4163444 234 88 12
-0.98133969 -0.51322514 -1.4133776 234 88 12
-0.99051791 -0.56396002 -1.4336578 234 88 12
-0.9713586 -0.533373 -1.416819 234 88 12
-0.95648402 -0.55128956 -1.4178486 234 88 12
-0.96535867 -0.57553673 -1.4290601 234 88 12
-1.0025426 -0.52736473 -1.4292247 234 88 12
-1.0142922 -0.56070399 -1.4443514 234 88 12
-0.97951442 -0.51139992 -1.4161431 234 88 12
-0.99510539 -0.55180246 -1.4349282 234 88 12
-0.9745115 -0.51745987 -1.4164976 234 88 12
-0.96692508 -0.52633888 -1.4169313 234 88 12
-0.96236569 -0.52528012 -1.4150465 234 88 12
-0.95970345 -0.53587931 -1.4177092 234 88 12
-0.96749693 -0.55864209 -1.4279604 234 88 12
-0.99501371 -0.52143252 -1.4286115 234 88 12
-1.0024017 -0.54524225 -1.4389848 234 88 12
-1.0778264 -0.68686289 -1.5142958 234 88 12
-0.99494386 -0.51509106 -1.4303805 234 88 12
-0.97171789 -0.51555282 -1.4228791 234 88 12
-0.97445941 -0.55259156 -1.4359877 234 88 12
-0.9952637 -0.53405386 -1.440557 234 88 12
-0.97572625 -0.50118583 -1.423443 234 88 12
-0.96810371 -0.5261417 -1.4291035 234 88 12
-0.96767306 -0.53317481 -1.4312596 234 88 12
-0.98557782 -0.58350384 -1.4535428 234 88 12
-1.0702397 -0.67380798 -1.5138519 234 88 12
-1.1733512 -0.90151519 -1.6209149 234 88 12
-0.98273134 -0.50136828 -1.4297249 234 88 12
-1.0010257 -0.5559262 -1.453302 234 88 12
-0.97121578 -0.50203741 -1.4262147 234 88 12
-0.97108763 -0.50994635 -1.4287328 234 88 12
-0.97832727 -0.54831588 -1.4434932 234 88 12
-1.0091122 -0.54359865 -1.4556423 234 88 12
-0.9861235 -0.51872939 -1.4402939 234 88 12
-0.97173876 -0.49684319 -1.4286617 234 88 12
-0.99679506 -0.55672497 -1.4559019 234 88 12
-0.98846096 -0.50111789 -1.4392718 234 88 12
-0.98863441 -0.50974214 -1.4420677 234 88 12
-0.98783344 -0.5018335 -1.4431551 234 88 12
-0.98126221 -0.54405922 -1.4543828 234 88 12
-0.98116767 -0.49789733 -1.4436815 234 88 12
-0.96499246 -0.50506777 -1.4408717 234 88 12
-0.95953381 -0.50208998 -1.4382393 234 88 12
-0.97607261 -0.50551617 -1.4483061 234 88 12
-0.97042984 -0.50192714 -1.445452 234 88 12
-0.98637754 -0.54259461 -1.4629554 234 88 12
-0.97143024 -0.51997709 -1.4513416 234 88 12
-1.0085001 -0.55970949 -1.4786563 234 88 12
-0.99287885 -0.54235572 -1.4685555 234 88 12
-0.97270018 -0.51648682 -1.4544502 234 88 12
-0.98945367 -0.52928686 -1.4671942 234 88 12
0.37830079 -1.2673568 -1.1688607 234 88 12
0.3818869 -1.2730182 -1.1714733 234 88 12
0.38570717 -1.2661352 -1.1688607 234 88 12
0.36683396 -1.2701322 -1.1732049 234 88 12
0.38183388 -1.2548072 -1.1678898 234 88 12
0.38549593 -1.2577848 -1.1693711 234 88 12
0.38672316 -1.35312 -1.2088844 234 88 12
0.36277691 -1.2583317 -1.1720566 234 88 12
0.37024584 -1.2561512 -1.1716683 234 88 12
0.37773922 -1.2532842 -1.1710005 234 88 12
0.39600277 -1.2635176 -1.176423 234 88 12
0.36246398 -1.2749912 -1.1827763 234 88 12
0.38852242 -1.2528175 -1.1755334 234 88 12
0.39071247 -1.2914673 -1.1951545 234 88 12
0.39530662 -1.2592965 -1.1825578 234 88 12
0.35801792 -1.2568171 -1.1830609 234 88 12
0.36545172 -1.2519053 -1.1815982 234 88 12
0.37662843 -1.2509282 -1.181942 234 88 12
0.38369456 -1.2685143 -1.1893835 234 88 12
0.38760924 -1.2571648 -1.1851357 234 88 12
0.39169082 -1.3590418 -1.2258326 234 88 12
0.40635046 -1.2479618 -1.1827102 234 88 12
0.41277745 -1.2664207 -1.1904563 234 88 12
0.35784331 -1.2796021 -1.195943 234 88 12
0.3613835 -1.254445 -1.1862928 234 88 12
0.37542549 -1.3177128 -1.2120483 234 88 12
0.38373029 -1.2474893 -1.1850086 234 88 12
0.40215567 -1.2496438 -1.1870482 234 88 12
0.40614599 -1.2424449 -1.1844796 234 88 12
0.40987742 -1.2418294 -1.1844796 234 88 12
0.41550329 -1.2742225 -1.1975651 234 88 12
0.33494073 -1.2534252 -1.1881369 234 88 12
0.34249067 -1.2564651 -1.1898021 234 88 12
0.34668955 -1.2814966 -1.1997982 234 88 12
0.36115777 -1.2876571 -1.2031194 234 88 12
0.3720482 -1.265972 -1.1953907 234 88 12
0.38672763 -1.260781 -1.1943144 234 88 12
0.39002374 -1.2736257 -1.199517 234 88 12
0.33085114 -1.2515606 -1.1910998 234 88 12
0.34221897 -1.2576994 -1.194181 234 88 12
0.34580344 -1.2513343 -1.1919609 234 88 12
0.38652787 -1.2523715 -1.1949424 234 88 12
0.39390501 -1.2511548 -1.1949424 234 88 12
0.41538417 -1.2596585 -1.199574 234 88 12
0.32714674 -1.2595888 -1.1978531 234 88 12
0.3320213 -1.292514 -1.2106841 234 88 12
0.33442593 -1.2551537 -1.1966226 234 88 12
0.34554642 -1.253958 -1.1968654 234 88 12
0.36032486 -1.2462655 -1.1948664 234 88 12
0.36405355 -1.2675115 -1.2031826 234 88 12
0.37148187 -1.2450252 -1.1950946 234 88 12
0.40125221 -1.2394564 -1.194844 234 88 12
0.40861705 -1.2399076 -1.1954777 234 88 12
0.40863803 -1.3140621 -1.2236884 234 88 12
0.330412 -1.2547137 -1.2001047 234 88 12
0.35280508 -1.2674576 -1.206291 234 88 12
0.35737309 -1.3772118 -1.2478805 234 88 12
0.36372104 -1.2796607 -1.2115612 234 88 12
0.37114179 -1.241361 -1.1976076 234 88 12
0.37808606 -1.2745706 -1.2105372 234 88 12
0.3806693 -1.3286064 -1.2310339 234 88 12
0.39334467 -1.2424037 -1.1993783 234 88 12
0.39516586 -1.2976639 -1.2202885 234 88 12
0.41117713 -1.2535979 -1.2046981 234 88 12
0.32694155 -1.267711 -1.2086145 234 88 12
0.3328951 -1.3314992 -1.2327287 234 88 12
0.3343941 -1.2717489 -1.2105753 234 88 12
0.35639733 -1.2988775 -1.2220266 234 88 12
0.35962325 -1.2420822 -1.2010795 234 88 12
0.38152519 -1.2616117 -1.2096953 234 88 12
0.39937016 -1.2670089 -1.2128005 234 88 12
0.33105612 -1.2875761 -1.2199965 234 88 12
0.33890149 -1.3122395 -1.2295561 234 88 12
0.34181407 -1.289546 -1.2213755 234 88 12
0.34437415 -1.2415661 -1.2038609 234 88 12
0.34877831 -1.2813741 -1.2187889 234 88 12
0.35184228 -1.2419778 -1.2044661 234 88 12
0.35586354 -1.2746376 -1.2167383 234 88 12
0.3630546 -1.2819128 -1.2198545 234 88 12
0.37501353 -1.4434348 -1.2800663 234 88 12
0.38145587 -1.2440602 -1.2070317 234 88 12
0.38513774 -1.24385 -1.207178 234 88 12
0.40770403 -1.2304094 -1.2035987 234 88 12
0.41086629 -1.2415429 -1.2078911 234 88 12
0.33035254 -1.2754451 -1.219252 234 88 12
0.33519223 -1.3130634 -1.2332461 234 88 12
0.33752295 -1.2736261 -1.2190202 234 88 12
0.3403919 -1.2437682 -1.2083162 234 88 12
0.34784853 -1.244778 -1.209132 234 88 12
0.35914111 -1.2767434 -1.2214546 234 88 12
0.36635664 -1.2391299 -1.2081865 234 88 12
0.37007368 -1.2373977 -1.2077788 234 88 12
0.3884581 -1.2419575 -1.2105443 234 88 12
0.39604163 -1.2342044 -1.2081758 234 88 12
0.39986831 -1.2303882 -1.2070155 234 88 12
0.41030073 -1.2440286 -1.2126111 234 88 12
0.33457837 -1.3023134 -1.2329322 234 88 12
0.33903641 -1.335397 -1.2451166 234 88 12
0.340042 -1.2416466 -1.2113997 234 88 12
0.3548184 -1.2330732 -1.2091889 234 88 12
0.36957023 -1.2633148 -1.220961 234 88 12
0.34174061 -1.3199158 -1.2432477 234 88 12
0.35470739 -1.2546706 -1.2207623 234 88 12
0.35831052 -1.2479352 -1.218574 234 88 12
0.36925945 -1.255433 -1.221889 234 88 12
0.37661296 -1.2468584 -1.2192659 234 88 12
0.38052756 -1.2306771 -1.2137305 234 88 12
0.38424474 -1.230064 -1.2137305 234 88 12
0.40196833 -1.2490484 -1.2215363 234 88 12
0.34685895 -1.2416123 -1.2194867 234 88 12
0.36529884 -1.241083 -1.2203718 234 88 12
0.38373226 -1.2360878 -1.2196829 234 88 12
0.35418737 -1.2659345 -1.2322036 234 88 12
0.36494207 -1.2562834 -1.229459 234 88 12
0.36868882 -1.2250016 -1.218775 234 88 12
0.37241837 -1.2243865 -1.218775 234 88 12
0.37605038 -1.2319589 -1.2216222 234 88 12
0.38358834 -1.2235 -1.2191081 234 88 12
0.39115277 -1.218098 -1.2176607 234 88 12
0.39469317 -1.2240306 -1.2199311 234 88 12
0.35373572 -1.2537127 -1.2316719 234 88 12
0.36817473 -1.2636088 -1.2359016 234 88 12
0.38624966 -1.2520143 -1.2329342 234 88 12
0.39695472 -1.2537323 -1.2341343 234 88 12
0.36023656 -1.2344066 -1.2329876 234 88 12
0.3788256 -1.2165046 -1.2279921 234 88 12
0.38595784 -1.2302126 -1.2330039 234 88 12
0.36355582 -1.2216177 -1.2326865 234 88 12
0.37099308 -1.2185521 -1.2320745 234 88 12
0.38212144 -1.218383 -1.2326291 234 88 12
0.38532361 -1.2414206 -1.2404729 234 88 12
0.36326301 -1.2667724 -1.2513305 234 88 12
0.36692277 -1.217038 -1.2351665 234 88 12
0.37413171 -1.23876 -1.2427042 234 88 12
0.38498166 -1.2393475 -1.2434862 234 88 12
0.35921896 -1.2323145 -1.2435235 234 88 12
0.37026045 -1.2195147 -1.2399536 234 88 12
0.38062456 -1.2607212 -1.2539083 234 88 12
0.36623287 -1.2062513 -1.2392524 234 88 12
0.37328213 -1.2522929 -1.2544214 234 88 12
0.38468698 -1.2161378 -1.2434075 234 88 12
0.35847148 -1.2185965 -1.246577 234 88 12
0.3696025 -1.207541 -1.2436494 234 88 12
0.37651315 -1.2496638 -1.2573873 234 88 12
0.35817185 -1.2242056 -1.2520738 234 88 12
0.36925071 -1.2054082 -1.2467492 234 88 12
0.38039535 -1.2061703 -1.247565 234 88 12
0.37248963 -1.2195711 -1.2550843 234 88 12
0.37606445 -1.2266611 -1.2574649 234 88 12
0.36139518 -1.2950772 -1.2813548 234 88 12
0.3648051 -1.2345989 -1.2630057 234 88 12
0.36830658 -1.2597569 -1.2708873 234 88 12
-0.011458329 -0.39001125 -1.7545314 234 88 12
-0.010092892 -0.40467298 -1.7654592 234 88 12
-0.028396366 -0.40050516 -1.7682354 234 88 12
-0.022503005 -0.38639134 -1.7571231 234 88 12
-0.033122286 -0.4068585 -1.7775917 234 88 12
-0.025746146 -0.38187087 -1.7583231 234 88 12
-0.0044246567 -0.39182776 -1.7637911 234 88 12
-0.0064747464 -0.44508308 -1.8036122 234 88 12
-0.03310205 -0.37937671 -1.7614008 234 88 12
-0.041518543 -0.46554413 -1.8258785 234 88 12
-0.027463401 -0.39305848 -1.7710074 234 88 12
-0.022481577 -0.38499725 -1.7645957 234 88 12
-0.016891684 -0.39770135 -1.7734838 234 88 12
0.002324455 -0.39557996 -1.7701759 234 88 12
0.0073563778 -0.38888466 -1.7647697 234 88 12
-0.030760696 -0.3893277 -1.7727329 234 88 12
-0.02115199 -0.37554961 -1.7617462 234 88 12
-0.0027883572 -0.38042066 -1.7636735 234 88 12
0.00096196582 -0.3808797 -1.7636735 234 88 12
-0.002118354 -0.41902924 -1.7919786 234 88 12
0.0053350679 -0.39864686 -1.7763337 234 88 12
1.0666209 -0.38862738 -1.4229875 234 88 12
1.0761579 -0.3982009 -1.4318609 234 88 12
1.0554444 -0.39043897 -1.4229964 234 88 12
1.058063 -0.39215779 -1.4293547 234 88 12
1.0611786 -0.3910943 -1.4303064 234 88 12
1.0614134 -0.38031882 -1.425525 234 88 12
1.0827017 -0.43041465 -1.4580572 234 88 12
1.0717973 -0.43095684 -1.4574242 234 88 12
1.059462 -0.37839538 -1.4281272 234 88 12
1.0852494 -0.44374582 -1.4693259 234 88 12
1.0565852 -0.41816559 -1.4489325 234 88 12
1.058131 -0.37855136 -1.4319392 234 88 12
1.0479649 -0.39490166 -1.4389365 234 88 12
1.0524982 -0.3983753 -1.4425137 234 88 12
1.0622088 -0.40789443 -1.4510974 234 88 12
1.058899 -0.42312372 -1.460494 234 88 12
1.0554025 -0.38990262 -1.4443299 234 88 12
1.0693126 -0.43968728 -1.4764359 234 88 12
1.0545745 -0.38034281 -1.4440322 234 88 12
1.0590669 -0.37244546 -1.4425756 234 88 12
1.0667217 -0.43537658 -1.4774238 234 88 12
1.059333 -0.40043685 -1.4590627 234 88 12
