ply
format ascii 1.0
element vertex 289
property float x
property float y
property float z
property uchar red
property uchar green
property uchar blue
end_header
-1.0977103 0.28318685 1.9383619 234 88 12
-1.0992266 0.28515935 1.9373292 234 88 12
-1.1038581 0.28917384 1.9342312 234 88 12
-1.1041063 0.28346497 1.9342312 234 88 12
-1.1053745 0.29114634 1.9331985 234 88 12
-1.1057881 0.28163153 1.9331985 234 88 12
-1.1137005 0.28388208 1.928035 234 88 12
-1.1137832 0.28197911 1.928035 234 88 12
-1.1213646 0.29184157 1.9228717 234 88 12
-1.1245626 0.29198059 1.9208063 234 88 12
-1.1341567 0.29239774 1.9146103 234 88 12
-1.1260473 -1.0627444 1.6104472 234 88 12
-1.1247004 -1.0640913 1.6104472 234 88 12
-1.1296576 -1.0609673 1.6090515 234 88 12
-1.126964 -1.063661 1.6090515 234 88 12
-1.1072472 -1.0870442 1.6062603 234 88 12
-1.1032066 -1.0910848 1.6062603 234 88 12
-1.114468 -1.0834899 1.603469 234 88 12
-1.103693 -1.0942649 1.603469 234 88 12
-1.1261595 -1.0736316 1.6020734 234 88 12
-1.1221189 -1.0776722 1.6020734 234 88 12
-1.1333803 -1.0700774 1.5992823 234 88 12
-1.1293397 -1.074118 1.5992823 234 88 12
-1.1226053 -1.0808523 1.5992823 234 88 12
-1.1199116 -1.083546 1.5992823 234 88 12
-1.1131772 -1.0902804 1.5992823 234 88 12
-1.1091366 -1.094321 1.5992823 234 88 12
-1.1342969 -1.070994 1.5978866 234 88 12
-1.1347833 -1.074174 1.5950954 234 88 12
-1.1253551 -1.0836022 1.5950954 234 88 12
-1.1446977 -1.0679262 1.5923041 234 88 12
-1.1519184 -1.0643718 1.5895129 234 88 12
-1.1438372 -1.0724531 1.5895129 234 88 12
-1.1424904 -1.0738 1.5895129 234 88 12
-1.1330622 -1.0832281 1.5895129 234 88 12
-1.1317154 -1.0845749 1.5895129 234 88 12
-1.1447538 -1.0733697 1.5881174 234 88 12
-1.1339788 -1.0841447 1.5881174 234 88 12
-1.1564454 -1.0635114 1.5867217 234 88 12
0.22280453 -1.0682948 1.9590154 234 88 12
0.22097109 -1.0699766 1.9579828 234 88 12
0.22117965 -1.0747736 1.9548846 234 88 12
0.22308262 -1.0746908 1.9548846 234 88 12
0.21934621 -1.0764554 1.9538521 234 88 12
0.22315215 -1.0762899 1.9538521 234 88 12
0.21201244 -1.0831823 1.9497213 234 88 12
0.1892464 -1.0857743 1.9486886 234 88 12
0.19305232 -1.0856087 1.9486886 234 88 12
0.20256715 -1.0851951 1.9486886 234 88 12
0.21398494 -1.0846987 1.9486886 234 88 12
0.22349976 -1.084285 1.9486886 234 88 12
0.23301457 -1.0838712 1.9486886 234 88 12
0.2445714 -1.0865729 1.9466233 234 88 12
0.25408623 -1.0861592 1.9466233 234 88 12
0.18769105 -1.093852 1.9435252 234 88 12
0.19339994 -1.0936038 1.9435252 234 88 12
0.19720587 -1.0934384 1.9435252 234 88 12
0.20291476 -1.0931902 1.9435252 234 88 12
0.21433255 -1.0926938 1.9435252 234 88 12
0.22384736 -1.09228 1.9435252 234 88 12
0.23336218 -1.0918664 1.9435252 234 88 12
0.24477997 -1.09137 1.9435252 234 88 12
0.25429478 -1.0909562 1.9435252 234 88 12
0.20298429 -1.0947891 1.9424926 234 88 12
0.21440206 -1.0942928 1.9424926 234 88 12
0.22391689 -1.0938791 1.9424926 234 88 12
0.23343171 -1.0934654 1.9424926 234 88 12
0.24301605 -1.0946507 1.9414599 234 88 12
0.25443384 -1.0941542 1.9414599 234 88 12
0.2205281 -1.1036386 1.9362965 234 88 12
-1.8803573 0.49338731 1.1193116 234 88 12
-1.8831735 0.49375936 1.1143533 234 88 12
-1.8841122 0.49388337 1.1127006 234 88 12
-1.915166 -0.85749602 0.76431268 234 88 12
-1.9134146 -0.86087906 0.76431268 234 88 12
-1.9139827 -0.86117321 0.76251858 234 88 12
-1.9022903 -0.88514841 0.76072448 234 88 12
-1.8987874 -0.89191437 0.76072448 234 88 12
-1.9186221 -0.85499555 0.75893044 234 88 12
-1.9151192 -0.86176157 0.75893044 234 88 12
-1.9133676 -0.86514455 0.75893044 234 88 12
-1.90461 -0.88205957 0.75893044 234 88 12
-1.9028586 -0.88544255 0.75893044 234 88 12
-1.8993555 -0.89220858 0.75893044 234 88 12
-1.9069297 -0.87897074 0.75713634 234 88 12
-1.9135813 -0.87168992 0.74996001 234 88 12
-1.9202797 -0.86014354 0.74816591 234 88 12
-1.9194039 -0.86183506 0.74816591 234 88 12
-1.9141494 -0.87198406 0.74816591 234 88 12
-1.9132737 -0.87367558 0.74816591 234 88 12
-1.9088949 -0.88213307 0.74816591 234 88 12
-1.9246114 -0.85595155 0.74278361 234 88 12
-1.9306948 -0.84837657 0.73740137 234 88 12
-1.9289433 -0.85175955 0.73740137 234 88 12
-1.9236888 -0.86190856 0.73740137 234 88 12
-1.9228131 -0.86360008 0.73740137 234 88 12
-1.9184343 -0.87205756 0.73740137 234 88 12
-1.9338433 -0.84786171 0.73022503 234 88 12
-1.9335357 -0.84984738 0.72843093 234 88 12
-1.93266 -0.8515389 0.72843093 234 88 12
-0.93581992 -1.871733 0.77148902 234 88 12
-0.93243688 -1.8734845 0.77148902 234 88 12
-0.93074542 -1.8743602 0.77148902 234 88 12
-0.93809974 -1.8719935 0.76790088 234 88 12
-0.93471676 -1.8737451 0.76790088 234 88 12
-0.93133372 -1.8754966 0.76790088 234 88 12
-0.91360974 -1.8868344 0.76251858 234 88 12
-0.91022676 -1.8885859 0.76251858 234 88 12
-0.93787909 -1.8757102 0.75893044 234 88 12
-0.93111306 -1.8792132 0.75893044 234 88 12
-0.92265558 -1.883592 0.75893044 234 88 12
-0.92096406 -1.8844677 0.75893044 234 88 12
-0.91081506 -1.8897222 0.75893044 234 88 12
-0.94185042 -1.8750951 0.75534225 234 88 12
-0.90632892 -1.8934859 0.75534225 234 88 12
-0.95089626 -1.8718526 0.75175405 234 88 12
-0.95457345 -1.8706694 0.74996001 234 88 12
-0.95825058 -1.869486 0.74816591 234 88 12
-0.95148462 -1.8729891 0.74816591 234 88 12
-0.9497931 -1.8738648 0.74816591 234 88 12
-0.94133556 -1.8782436 0.74816591 234 88 12
-0.93118656 -1.8834981 0.74816591 234 88 12
-0.95177877 -1.8735572 0.74637181 234 88 12
-0.93317223 -1.8831905 0.74637181 234 88 12
-0.93464309 -1.8860314 0.73740137 234 88 12
-0.93126011 -1.8877829 0.73740137 234 88 12
0.43298805 -1.8740101 1.1441025 234 88 12
0.43676475 -1.8735112 1.1441025 234 88 12
0.43122372 -1.8751984 1.1424497 234 88 12
0.43688878 -1.8744498 1.1424497 234 88 12
0.43007949 -1.8810802 1.1325334 234 88 12
0.43574452 -1.8803318 1.1325334 234 88 12
0.42277411 -1.8839556 1.1292279 234 88 12
0.42655081 -1.8834566 1.1292279 234 88 12
0.4473227 -1.8807124 1.1292279 234 88 12
0.40590292 -1.8871396 1.1275752 234 88 12
0.4568885 -1.8804036 1.1275752 234 88 12
0.46633026 -1.8791564 1.1275752 234 88 12
0.40225026 -1.8885772 1.1259224 234 88 12
0.43624061 -1.8840866 1.1259224 234 88 12
0.44580641 -1.883778 1.1242697 234 88 12
0.40060994 -1.8907042 1.122617 234 88 12
0.406275 -1.8899558 1.122617 234 88 12
0.41571677 -1.8887084 1.122617 234 88 12
0.4270469 -1.8872116 1.122617 234 88 12
0.43648866 -1.8859642 1.122617 234 88 12
0.44593042 -1.8847167 1.122617 234 88 12
0.45726055 -1.8832198 1.122617 234 88 12
0.45914888 -1.8829705 1.122617 234 88 12
0.46670231 -1.8819726 1.122617 234 88 12
0.46695036 -1.88385 1.1193116 234 88 12
0.43345606 -1.8920954 1.1127006 234 88 12
0.43723276 -1.8915966 1.1127006 234 88 12
0.43370408 -1.8939729 1.1093951 234 88 12
0.43559244 -1.8937235 1.1093951 234 88 12
-2.2404947 0.11227605 0.019671366 234 88 12
-2.2403901 0.11037416 0.019671366 234 88 12
-2.2387593 0.078033954 0.015864758 234 88 12
-2.2383406 0.070426419 0.015864758 234 88 12
-2.239043 0.081833623 0.013961453 234 88 12
-2.240941 0.11225148 0.0082515422 234 88 12
-2.2408364 0.11034959 0.0082515422 234 88 12
-2.2403131 0.10084017 0.0082515422 234 88 12
-2.2396848 0.089428872 0.0082515422 234 88 12
-2.2391615 0.079919457 0.0082515422 234 88 12
-2.2386382 0.070410043 0.0082515422 234 88 12
-2.2413132 0.11223099 -0.0012649772 234 88 12
-2.2412083 0.11032911 -0.0012649772 234 88 12
-2.240685 0.1008197 -0.0012649772 234 88 12
-2.240057 0.089408398 -0.0012649772 234 88 12
-2.2421038 0.11981805 -0.010781496 234 88 12
-2.2415805 0.11030864 -0.010781496 234 88 12
-2.2410572 0.10079923 -0.010781496 234 88 12
-2.2424757 0.11979758 -0.020298015 234 88 12
-2.2412198 0.096974976 -0.020298015 234 88 12
-1.5991641 -1.538555 -0.2377132 234 88 12
-1.6017619 -1.5357653 -0.23961313 234 88 12
-1.5977213 -1.539806 -0.23961313 234 88 12
-1.6015701 -1.5355735 -0.24341297 234 88 12
-1.5988764 -1.5382671 -0.24341297 234 88 12
-1.5975294 -1.5396141 -0.24341297 234 88 12
-1.5799242 -1.5570275 -0.2453129 234 88 12
-1.5785773 -1.5583743 -0.2453129 234 88 12
-1.5772305 -1.5597211 -0.2453129 234 88 12
-1.5891604 -1.5474074 -0.24911274 234 88 12
-1.6023412 -1.5336509 -0.25481251 234 88 12
-1.5996475 -1.5363446 -0.25481251 234 88 12
-1.5969537 -1.5390383 -0.25481251 234 88 12
-1.5888726 -1.5471196 -0.25481251 234 88 12
-1.5861788 -1.5498133 -0.25481251 234 88 12
-1.5780976 -1.5578945 -0.25481251 234 88 12
-1.5767508 -1.5592414 -0.25481251 234 88 12
-1.6087878 -1.5266286 -0.26051226 234 88 12
-1.6127324 -1.5224921 -0.26241219 234 88 12
-1.6139833 -1.5210493 -0.26431212 234 88 12
-1.6085958 -1.5264368 -0.26431212 234 88 12
-1.6059021 -1.5291305 -0.26431212 234 88 12
-1.5991677 -1.5358648 -0.26431212 234 88 12
-1.5951271 -1.5399054 -0.26431212 234 88 12
-1.5883927 -1.5466398 -0.26431212 234 88 12
-1.5919536 -1.5421194 -0.27381173 234 88 12
-1.5892599 -1.5448132 -0.27381173 234 88 12
0.013398591 -2.2346792 0.029187884 234 88 12
0.020997934 -2.2352469 0.025381276 234 88 12
0.011476233 -2.2349465 0.019671366 234 88 12
0.020985648 -2.2354701 0.019671366 234 88 12
0.047612015 -2.2369356 0.019671366 234 88 12
0.051415779 -2.2371449 0.019671366 234 88 12
0.03049097 -2.2360678 0.017768061 234 88 12
0.0076601803 -2.2349606 0.013961453 234 88 12
0.053301282 -2.2375472 0.01205815 234 88 12
-0.007567171 -2.2343462 0.0082515422 234 88 12
4.0361847e-05 -2.2347651 0.0082515422 234 88 12
0.011451662 -2.235393 0.0082515422 234 88 12
0.020961078 -2.2359164 0.0082515422 234 88 12
0.030470494 -2.2364399 0.0082515422 234 88 12
0.041881792 -2.2370679 0.0082515422 234 88 12
-0.011375032 -2.2342112 0.0063482383 234 88 12
-0.013293297 -2.2344041 -0.0012649772 234 88 12
-0.0094895298 -2.2346137 -0.0012649772 234 88 12
1.9886049e-05 -2.235137 -0.0012649772 234 88 12
0.017136835 -2.236079 -0.0012649772 234 88 12
0.020940602 -2.2362885 -0.0012649772 234 88 12
-1.9434345 -0.55556458 -0.96942365 234 88 12
-1.9427617 -0.55734658 -0.96942365 234 88 12
-1.9427912 -0.55328578 -0.97296399 234 88 12
-1.9414457 -0.55684978 -0.97296399 234 88 12
-1.9280349 -0.58639848 -0.97827446 234 88 12
-1.9273621 -0.58818048 -0.97827446 234 88 12
-1.9334465 -0.56808168 -0.9818148 234 88 12
-1.9233551 -0.59481162 -0.9818148 234 88 12
-1.937498 -0.5553593 -0.983585 234 88 12
-1.9368252 -0.5571413 -0.983585 234 88 12
-1.9334613 -0.5660513 -0.983585 234 88 12
-1.9327886 -0.5678333 -0.983585 234 88 12
-1.9287519 -0.57852525 -0.983585 234 88 12
-1.9253882 -0.58743525 -0.983585 234 88 12
-1.9233699 -0.59278125 -0.983585 234 88 12
-1.9388878 -0.54570413 -0.98889548 234 88 12
-1.940263 -0.53807932 -0.99243581 234 88 12
-1.9368992 -0.54698932 -0.99243581 234 88 12
-1.9335353 -0.55589932 -0.99243581 234 88 12
-1.9328625 -0.55768126 -0.99243581 234 88 12
-1.928826 -0.56837326 -0.99243581 234 88 12
-1.9416233 -0.53248495 -0.99420601 234 88 12
-1.9383335 -0.53124291 -1.0030568 234 88 12
-1.928242 -0.55797285 -1.0030568 234 88 12
-1.9235623 -0.56638604 -1.0065972 234 88 12
-0.65129548 -1.9057893 -0.97296399 234 88 12
-0.64773148 -1.9071348 -0.97296399 234 88 12
-0.61669236 -1.9165978 -0.97827446 234 88 12
-0.65030187 -1.9031574 -0.98004466 234 88 12
-0.62178993 -1.9139216 -0.98004466 234 88 12
-0.62688756 -1.9112453 -0.9818148 234 88 12
-0.64802307 -1.9025142 -0.983585 234 88 12
-0.64624107 -1.9031869 -0.983585 234 88 12
-0.64445907 -1.9038597 -0.983585 234 88 12
-0.63733107 -1.9065508 -0.983585 234 88 12
-0.62663913 -1.9105873 -0.983585 234 88 12
-0.61772913 -1.9139512 -0.983585 234 88 12
-0.61594713 -1.914624 -0.983585 234 88 12
-0.61748075 -1.9132932 -0.98535514 234 88 12
-0.65925503 -1.894515 -0.99243581 234 88 12
-0.65747303 -1.8951877 -0.99243581 234 88 12
-0.64678103 -1.8992244 -0.99243581 234 88 12
-0.63608909 -1.9032609 -0.99243581 234 88 12
-0.63430709 -1.9039338 -0.99243581 234 88 12
-0.62717909 -1.9066248 -0.99243581 234 88 12
-0.6643526 -1.8918388 -0.99420601 234 88 12
-0.66945016 -1.8891624 -0.99597615 234 88 12
-0.65672779 -1.8932139 -0.99774635 234 88 12
-0.66845655 -1.8865306 -1.0030568 234 88 12
-0.66667455 -1.8872033 -1.0030568 234 88 12
-0.63994461 -1.8972949 -1.0030568 234 88 12
-0.63638061 -1.8986404 -1.0030568 234 88 12
0.50847548 -1.6491162 -1.446622 234 88 12
0.50641882 -1.6483512 -1.4481844 234 88 12
0.50606418 -1.6462011 -1.4513092 234 88 12
0.51734042 -1.6443413 -1.4513092 234 88 12
0.51663125 -1.6400415 -1.4575588 234 88 12
0.50893646 -1.6402063 -1.4591211 234 88 12
0.51081586 -1.6398964 -1.4591211 234 88 12
0.51645392 -1.6389664 -1.4591211 234 88 12
0.50294375 -1.6389862 -1.4622459 234 88 12
0.49471706 -1.6359261 -1.4684956 234 88 12
0.49659646 -1.6356162 -1.4684956 234 88 12
0.5078727 -1.6337564 -1.4684956 234 88 12
0.48290893 -1.6345611 -1.4731828 234 88 12
0.51109952 -1.6299115 -1.4731828 234 88 12
