ply
format ascii 1.0
element vertex 1506
property float x
property float y
property float z
property uchar red
property uchar green
property uchar blue
end_header
0.21239261 -0.44921976 1.7432202 234 88 12
0.22541665 -0.45272756 1.7355148 234 88 12
0.22187652 -0.43112594 1.782966 234 88 12
0.24098253 -0.45350257 1.7338123 234 88 12
0.1989885 -0.45672598 1.7350575 234 88 12
0.20163397 -0.4225547 1.809497 234 88 12
0.18727507 -0.45967513 1.7368747 234 88 12
0.19519824 -0.46051624 1.7350575 234 88 12
0.21089558 -0.46169034 1.7325208 234 88 12
0.2115251 -0.45487255 1.7472507 234 88 12
0.20291428 -0.4287667 1.8036522 234 88 12
0.22242433 -0.46195823 1.7319421 234 88 12
0.24096839 -0.4610655 1.7338709 234 88 12
0.20436913 -0.4631117 1.7456533 234 88 12
0.20805594 -0.46297133 1.7459517 234 88 12
0.180574 -0.47329396 1.7320911 234 88 12
0.22996038 -0.47322425 1.7322381 234 88 12
0.19466639 -0.47438121 1.7377684 234 88 12
0.21318462 -0.47353399 1.7395405 234 88 12
-0.6417172 -0.3524791 1.6638861 234 88 12
-0.63975394 -0.35732603 1.6622843 234 88 12
-0.64426577 -0.33721513 1.6618598 234 88 12
-0.76148826 -0.28412578 1.7505519 234 88 12
-0.64077598 -0.3699252 1.658215 234 88 12
-0.67496735 -0.32751548 1.6806889 234 88 12
-0.72076559 -0.32279703 1.7150625 234 88 12
-0.9293136 -0.21884267 1.8742667 234 88 12
-0.65288222 -0.36515105 1.6629641 234 88 12
-0.87476021 -0.25258011 1.8324084 234 88 12
-0.76337272 -0.31435463 1.7471728 234 88 12
-0.82280129 -0.28595263 1.7925006 234 88 12
-1.0609398 -0.1607341 1.9745055 234 88 12
-1.0611053 -0.16454002 1.9745055 234 88 12
-0.6605463 -0.33212668 1.6653905 234 88 12
-0.65215683 -0.34389469 1.658693 234 88 12
-0.64823145 -0.35745421 1.6552957 234 88 12
-0.67176771 -0.34926826 1.6732731 234 88 12
-0.88353431 -0.24629466 1.8359823 234 88 12
-0.65213513 -0.37091494 1.6577927 234 88 12
-0.83648604 -0.27985519 1.7994837 234 88 12
-0.67026824 -0.32878813 1.6684606 234 88 12
-0.65354043 -0.34850445 1.6551363 234 88 12
-0.66724151 -0.35305431 1.6653678 234 88 12
-0.8617388 -0.26459706 1.8156544 234 88 12
-0.65498394 -0.35698304 1.6514759 234 88 12
-0.65745294 -0.37118527 1.6528887 234 88 12
-0.90259862 -0.24390699 1.8441631 234 88 12
-0.73538888 -0.33686537 1.7134942 234 88 12
-1.0657368 -0.16052553 1.9714075 234 88 12
-1.0659022 -0.16433145 1.9714075 234 88 12
-0.66560036 -0.34535354 1.6555129 234 88 12
-1.0001142 -0.19491713 1.9175719 234 88 12
-0.73841536 -0.34016484 1.7116357 234 88 12
-0.7145223 -0.35108587 1.6886913 234 88 12
-0.98865551 -0.20440543 1.9057431 234 88 12
-0.66581035 -0.37527815 1.6456617 234 88 12
-0.96268469 -0.2172035 1.882345 234 88 12
-0.67552793 -0.35622007 1.6493787 234 88 12
-0.78947049 -0.31305712 1.740261 234 88 12
-1.065547 -0.16388476 1.9619849 234 88 12
-0.69900155 -0.35289529 1.6635065 234 88 12
-1.0715965 -0.15548788 1.9647179 234 88 12
-0.68104112 -0.3672021 1.6350881 234 88 12
-0.45757684 -1.1364142 1.3343403 234 88 12
-0.50299633 -1.1442065 1.3527485 234 88 12
-0.46274605 -1.1357503 1.3319249 234 88 12
-0.6136235 -1.1828364 1.4165605 234 88 12
-0.45567778 -1.1406257 1.3309875 234 88 12
-0.4785265 -1.1313193 1.3324658 234 88 12
-0.50217468 -1.1418455 1.3471972 234 88 12
-0.48675433 -1.1406488 1.3400342 234 88 12
-0.46514404 -1.137742 1.3294656 234 88 12
-0.50263494 -1.1552793 1.3531865 234 88 12
-0.47595176 -1.1283183 1.3257053 234 88 12
-0.465996 -1.1392839 1.3261442 234 88 12
-0.47512129 -1.141065 1.3221775 234 88 12
-0.48205793 -1.1387494 1.3154408 234 88 12
-0.47130343 -1.1460184 1.3138756 234 88 12
-0.48291284 -1.1574055 1.3198451 234 88 12
-0.50973529 -1.1660742 1.3316602 234 88 12
-0.48864809 -1.1514229 1.3109365 234 88 12
-0.48598635 -1.1540847 1.3109365 234 88 12
-0.58126479 -1.183849 1.3684736 234 88 12
-0.55827957 -1.1806042 1.3564042 234 88 12
-0.50437158 -1.1605198 1.3180114 234 88 12
-0.49692884 -1.1618046 1.3151548 234 88 12
-0.5347023 -1.1754086 1.3389875 234 88 12
-0.48786622 -1.1611804 1.2927681 234 88 12
0.25373551 -1.0890266 1.3579248 234 88 12
0.26957443 -1.0869957 1.3546309 234 88 12
0.28256997 -1.0902101 1.3639055 234 88 12
0.28667039 -1.1018639 1.392942 234 88 12
0.26387727 -1.094282 1.3621095 234 88 12
0.26763192 -1.0941188 1.3621095 234 88 12
0.28555533 -1.094777 1.3656746 234 88 12
0.29198259 -1.0900278 1.3545892 234 88 12
0.28806648 -1.1027992 1.3858413 234 88 12
0.30388206 -1.0886475 1.3524489 234 88 12
0.31509101 -1.0884199 1.3530931 234 88 12
0.27408752 -1.1178774 1.4124061 234 88 12
0.2736679 -1.1244301 1.4287853 234 88 12
0.27319384 -1.1308597 1.4448503 234 88 12
0.28912786 -1.1158677 1.4090078 234 88 12
0.31601647 -1.0960073 1.3621558 234 88 12
0.24744391 -1.0971049 1.3473594 234 88 12
0.25409663 -1.0986612 1.3520352 234 88 12
0.26233065 -1.1040369 1.366562 234 88 12
0.26998955 -1.1033155 1.3655778 234 88 12
0.2795155 -1.0993303 1.3565304 234 88 12
0.28379712 -1.098264 1.3543004 234 88 12
0.25965601 -1.1613202 1.5113993 234 88 12
0.30425593 -1.0948682 1.3479505 234 88 12
0.31169114 -1.0947787 1.3485427 234 88 12
0.25140506 -1.1000803 1.345172 234 88 12
0.23167908 -1.1862919 1.5637647 234 88 12
0.30454126 -1.0978246 1.3453119 234 88 12
0.3121171 -1.0975236 1.3453845 234 88 12
0.24774586 -1.1034367 1.343111 234 88 12
0.27420774 -1.1025028 1.3436719 234 88 12
0.27287328 -1.1113721 1.3664836 234 88 12
0.28556305 -1.102062 1.3438088 234 88 12
0.26246569 -1.1469187 1.457339 234 88 12
0.18543987 -1.2635641 1.7446949 234 88 12
0.22378536 -1.2003777 1.5836798 234 88 12
0.22828907 -1.1973853 1.5763602 234 88 12
0.2861293 -1.1106726 1.355988 234 88 12
0.25135735 -1.1105673 1.3413516 234 88 12
0.25514594 -1.1104026 1.3413516 234 88 12
0.25176239 -1.136806 1.4108313 234 88 12
0.25163513 -1.1431713 1.4276608 234 88 12
0.23562886 -1.1772439 1.5159825 234 88 12
0.21929407 -1.2107004 1.6026361 234 88 12
0.25117609 -1.1610686 1.4749678 234 88 12
0.22303696 -1.2133958 1.6101996 234 88 12
0.28581741 -1.1204227 1.3713959 234 88 12
0.30820122 -1.11358 1.355864 234 88 12
0.26658031 -1.1132179 1.3396249 234 88 12
0.18121946 -1.2748784 1.7622383 234 88 12
0.21939452 -1.2130107 1.6011441 234 88 12
0.23877987 -1.189779 1.54124 234 88 12
0.27608511 -1.1337583 1.3956889 234 88 12
0.28188634 -1.135543 1.4011391 234 88 12
0.27380222 -1.1534394 1.4480828 234 88 12
0.25920156 -1.1807438 1.5194407 234 88 12
0.30368021 -1.1236228 1.3717804 234 88 12
0.24733345 -1.1510943 1.4291568 234 88 12
0.19030228 -1.2572054 1.7095398 234 88 12
0.26103678 -1.1389613 1.3979417 234 88 12
0.21408954 -1.2244935 1.6238333 234 88 12
0.17551829 -1.2962385 1.8134078 234 88 12
0.17837888 -1.2946106 1.80934 234 88 12
0.27056798 -1.156406 1.4462612 234 88 12
0.23004711 -1.2237465 1.6236895 234 88 12
0.28782812 -1.1401416 1.4042867 234 88 12
0.28407812 -1.1508374 1.4327841 234 88 12
0.31036639 -1.1170688 1.3445126 234 88 12
0.19759372 -1.2506809 1.6859689 234 88 12
0.2807925 -1.1538513 1.4309335 234 88 12
0.19574219 -1.2435911 1.6592276 234 88 12
0.24758367 -1.1568496 1.42544 234 88 12
0.18944548 -1.2926714 1.7942812 234 88 12
0.24833424 -1.1265088 1.3306878 234 88 12
0.17541488 -1.2818608 1.7566065 234 88 12
0.16811499 -1.3013666 1.8103098 234 88 12
0.16649368 -1.2994211 1.7990346 234 88 12
0.17769934 -1.3025519 1.8092771 234 88 12
0.16553672 -1.3028393 1.8029652 234 88 12
0.17804696 -1.310547 1.8041136 234 88 12
0.18213096 -1.3167776 1.7999829 234 88 12
0.77873123 -0.39065897 1.5805972 234 88 12
0.27344158 0.34257489 1.7602073 234 88 12
0.26977605 0.34221491 1.7596132 234 88 12
0.26595238 0.34308344 1.7599074 234 88 12
0.26226509 0.34283552 1.7593937 234 88 12
0.24941525 0.35849059 1.7697397 234 88 12
0.24455538 0.37007442 1.7778133 234 88 12
0.2430595 0.34850499 1.7618319 234 88 12
0.23560774 0.34865293 1.7612705 234 88 12
0.24734199 0.35028151 1.7592769 234 88 12
0.2362095 0.34987056 1.7579654 234 88 12
0.2658897 0.35681495 1.7615511 234 88 12
0.2662957 0.36013198 1.7598052 234 88 12
0.26283121 0.35830879 1.7581218 234 88 12
0.24039452 0.36028561 1.7575456 234 88 12
0.28233707 0.35697645 1.7546222 234 88 12
0.27873236 0.35630807 1.7537856 234 88 12
0.25462592 0.37223384 1.7635679 234 88 12
0.25930604 0.37033197 1.7582945 234 88 12
0.24450435 0.37095743 1.7573943 234 88 12
0.23391743 0.36543971 1.7522241 234 88 12
0.27846044 0.37685463 1.7564687 234 88 12
0.26843026 0.39708167 1.7710743 234 88 12
0.25638336 0.40770394 1.7781065 234 88 12
-1.024666 0.90701461 1.7776688 234 88 12
-0.69824678 0.51491147 1.5743741 234 88 12
-0.71617836 0.52556849 1.5824088 234 88 12
-0.86692601 0.71325922 1.6772766 234 88 12
-0.79815042 0.61962467 1.6317657 234 88 12
-0.83961338 0.66840476 1.6570669 234 88 12
-0.69775379 0.525819 1.5735809 234 88 12
-0.71292287 0.52686667 1.5782007 234 88 12
-0.72764093 0.5277487 1.5826454 234 88 12
-0.71336883 0.50309604 1.5716468 234 88 12
-0.90344417 0.74690926 1.6943735 234 88 12
-0.69210076 0.53032649 1.5695208 234 88 12
-0.72567463 0.53657544 1.5809543 234 88 12
-1.028954 0.90856671 1.7737337 234 88 12
-0.69790697 0.53695536 1.569369 234 88 12
-0.69632339 0.52906215 1.5666499 234 88 12
-0.71396357 0.53308791 1.5729245 234 88 12
-0.71282649 0.51349294 1.566986 234 88 12
-0.69331831 0.53684634 1.56427 234 88 12
-0.7277053 0.57290524 1.5847602 234 88 12
-0.69974059 0.53278792 1.5649797 234 88 12
-0.71019346 0.5217604 1.5648576 234 88 12
-0.72574729 0.50502503 1.5645816 234 88 12
-0.71191192 0.53544414 1.565603 234 88 12
-0.78829944 0.60910624 1.6063216 234 88 12
-1.0166367 0.91607726 1.7627772 234 88 12
-1.0229678 0.92096072 1.7661319 234 88 12
-0.72815877 0.52480441 1.5598552 234 88 12
-0.83754796 0.65704393 1.6320168 234 88 12
-0.73263502 0.51705688 1.5513538 234 88 12
-1.3504775 -0.13387394 1.1794909 234 88 12
-1.492367 -0.074146539 1.2046727 234 88 12
-1.5771401 -0.039164759 1.2197022 234 88 12
-1.3579351 -0.11925902 1.1774786 234 88 12
-1.3611209 -0.12971769 1.1777881 234 88 12
-1.627522 -0.016773926 1.2260501 234 88 12
-1.8496993 0.082018666 1.2664046 234 88 12
-1.3518471 -0.10655349 1.1731032 234 88 12
-1.3654543 -0.10477963 1.1755254 234 88 12
-1.4283663 -0.081885859 1.1870641 234 88 12
-1.7691265 0.04711606 1.249678 234 88 12
-1.3668094 -0.10082348 1.1722764 234 88 12
-1.3779004 -0.096702695 1.1708022 234 88 12
-1.3556749 -0.11795028 1.1662484 234 88 12
-1.3569092 -0.1253797 1.1662945 234 88 12
-1.357371 -0.13315088 1.1661917 234 88 12
-1.3606843 -0.13963182 1.1666387 234 88 12
-1.3773508 -0.13596083 1.1697588 234 88 12
-1.5194485 -0.074013039 1.1970974 234 88 12
-1.363392 -0.10726921 1.1642904 234 88 12
-1.3605638 -0.12037215 1.1634451 234 88 12
-1.4220259 -0.11600665 1.1749468 234 88 12
-1.7567879 0.035638202 1.2407241 234 88 12
-1.3876724 -0.11686043 1.1650054 234 88 12
-1.7236772 0.02494069 1.2320107 234 88 12
-1.7726405 0.044969462 1.2417591 234 88 12
-1.7357531 0.02548705 1.2343054 234 88 12
-1.843588 0.091651902 1.2544549 234 88 12
-1.8506503 0.09270101 1.2558402 234 88 12
-1.8507125 0.088704132 1.2557505 234 88 12
-1.4163895 -0.11597922 1.1669884 234 88 12
-1.6055044 -0.032507084 1.2054939 234 88 12
-1.8386906 0.073012501 1.2530389 234 88 12
-1.3918005 -0.12004412 1.15859 234 88 12
-1.4977592 -0.075835228 1.1804923 234 88 12
-1.3696384 -0.13857631 1.1501042 234 88 12
-1.1899221 -1.0646703 0.89567429 234 88 12
-1.1686031 -1.0659145 0.8952921 234 88 12
-1.1588415 -1.0684522 0.89513594 234 88 12
-1.4121996 -1.0968335 0.90009099 234 88 12
-1.4663199 -1.1047068 0.90116674 234 88 12
-1.7161473 -1.1319609 0.90604573 234 88 12
-1.7152716 -1.1336524 0.90604573 234 88 12
-1.1720121 -1.0632061 0.89175159 234 88 12
-1.1723696 -1.0494754 0.88799924 234 88 12
-1.1681864 -1.0561403 0.88798118 234 88 12
-1.7137808 -1.1393152 0.90245754 234 88 12
-1.1767998 -1.0504544 0.88451999 234 88 12
-1.1669722 -1.0600349 0.88438535 234 88 12
-1.1648794 -1.0669304 0.88442624 234 88 12
-1.6286074 -1.1188797 0.89799529 234 88 12
-1.6265701 -1.1228148 0.89799529 234 88 12
-1.7178519 -1.1328434 0.90066344 234 88 12
-1.7152246 -1.1379179 0.90066344 234 88 12
-1.7143489 -1.1396095 0.90066344 234 88 12
-1.1855831 -1.0519474 0.88120419 234 88 12
-1.6566499 -1.1258056 0.89685458 234 88 12
-1.199927 -1.0540918 0.87813789 234 88 12
-1.1708615 -1.0649396 0.87734509 234 88 12
-1.5445222 -1.1113729 0.89079076 234 88 12
-1.2691927 -1.0913577 0.88113195 234 88 12
-1.7154852 -1.1401978 0.8970753 234 88 12
-1.3232116 -1.0905581 0.87983322 234 88 12
-1.5232059 -1.1120539 0.88762277 234 88 12
-1.6786033 -1.1283044 0.89366663 234 88 12
-1.2954335 -1.0725694 0.87523133 234 88 12
-1.7136475 -1.1208206 0.89295477 234 88 12
-1.1805346 -1.0668854 0.8705188 234 88 12
-1.4500153 -1.1030217 0.88204354 234 88 12
-1.1996655 -1.0728028 0.8678683 234 88 12
-1.723273 -1.1335052 0.88631076 234 88 12
-1.7197701 -1.1402713 0.88631076 234 88 12
-0.35280025 -1.5536455 0.88850534 234 88 12
-0.5778662 -1.7550436 0.89632374 234 88 12
-0.45154989 -1.6486293 0.89209849 234 88 12
-0.56301004 -1.7488585 0.8959825 234 88 12
-0.75196159 -1.9143281 0.90245754 234 88 12
-0.3603341 -1.5469419 0.88487512 234 88 12
-0.34908912 -1.5416108 0.88456666 234 88 12
-0.33806834 -1.5412997 0.88440025 234 88 12
-0.75034416 -1.9061658 0.90039462 234 88 12
-0.5240382 -1.7120919 0.89178669 234 88 12
-0.75225574 -1.9148964 0.90066344 234 88 12
-0.36236197 -1.5351133 0.88097394 234 88 12
-0.35341769 -1.5365875 0.88087696 234 88 12
-0.35983416 -1.5610378 0.88173038 234 88 12
-0.58775586 -1.7678416 0.89171129 234 88 12
-0.75424141 -1.9145888 0.89886934 234 88 12
-0.43026286 -1.6276399 0.88167876 234 88 12
-0.68901867 -1.8536767 0.89173472 234 88 12
-0.62233871 -1.798661 0.88843119 234 88 12
-0.385304 -1.5977771 0.87649161 234 88 12
-0.3567982 -1.5366584 0.8700583 234 88 12
-0.35342225 -1.5384063 0.8700583 234 88 12
-0.35907778 -1.5575684 0.8709417 234 88 12
-0.47635567 -1.6649501 0.87766409 234 88 12
-0.70653617 -1.8692918 0.89060152 234 88 12
-0.72143102 -1.887328 0.89163119 234 88 12
-0.39284536 -1.5923556 0.86962003 234 88 12
-0.7253983 -1.8860514 0.88969558 234 88 12
-0.70990366 -1.8751799 0.88888139 234 88 12
-0.7435776 -1.9229918 0.891693 234 88 12
-0.49217108 -1.6798248 0.87261695 234 88 12
-0.62349933 -1.8009028 0.88135248 234 88 12
-0.35660857 -1.5525429 0.85988212 234 88 12
-0.35457966 -1.5554295 0.85997266 234 88 12
-0.44249135 -1.6369123 0.86623621 234 88 12
-0.73292321 -1.8932613 0.88629538 234 88 12
-0.35718992 -1.5536658 0.85633653 234 88 12
-0.38389271 -1.5907307 0.85900545 234 88 12
-0.75740916 -1.9171876 0.88626856 234 88 12
-0.75291759 -1.9203175 0.88631076 234 88 12
-0.74784309 -1.9229448 0.88631076 234 88 12
-0.36595225 -1.5712219 0.85393971 234 88 12
-0.45308372 -1.6513098 0.86089802 234 88 12
-0.35250634 -1.551363 0.84514314 234 88 12
-0.35309222 -1.5524946 0.8415699 234 88 12
0.34109586 -1.3830811 1.0226411 234 88 12
0.35616651 -1.3796713 1.0221474 234 88 12
0.35622421 -1.51398 1.0688871 234 88 12
0.35587659 -1.5742877 1.089857 234 88 12
0.37065774 -1.3861903 1.0250821 234 88 12
0.34133348 -1.3852154 1.0194529 234 88 12
0.34454599 -1.3995819 1.0246607 234 88 12
0.35653988 -1.3788856 1.0179316 234 88 12
0.34896982 -1.5980707 1.0947528 234 88 12
0.34923685 -1.6454055 1.1114314 234 88 12
0.35557199 -1.584232 1.0901874 234 88 12
0.36980873 -1.4053559 1.0278689 234 88 12
0.37419564 -1.3939672 1.024063 234 88 12
0.37920552 -1.3749664 1.017606 234 88 12
0.33419865 -1.3833032 1.0144786 234 88 12
0.33358154 -1.8632652 1.1854208 234 88 12
0.35280246 -1.5860971 1.087593 234 88 12
0.35988092 -1.5167665 1.0632293 234 88 12
0.34326166 -1.8287939 1.1735971 234 88 12
0.3746334 -1.3929139 1.0198051 234 88 12
0.37939927 -1.3775966 1.014573 234 88 12
0.38696802 -1.3761678 1.0144202 234 88 12
0.34920204 -1.390985 1.0139761 234 88 12
0.33181721 -1.8644533 1.183768 234 88 12
0.34125897 -1.8632059 1.183768 234 88 12
0.37187508 -1.4390546 1.032378 234 88 12
0.37494284 -1.4912127 1.0513198 234 88 12
0.40216064 -1.3774306 1.0116129 234 88 12
0.33697358 -1.6969299 1.1209497 234 88 12
0.33194125 -1.8653921 1.1821153 234 88 12
0.34138301 -1.8641447 1.1821153 234 88 12
0.37755829 -1.4137763 1.019689 234 88 12
0.37516162 -1.4928687 1.0484043 234 88 12
0.39720252 -1.3955963 1.014008 234 88 12
0.40130368 -1.3909121 1.012498 234 88 12
0.3461099 -1.4813368 1.0392009 234 88 12
0.3753804 -1.4945246 1.045489 234 88 12
0.38096923 -1.4659109 1.0352114 234 88 12
0.37598622 -1.565749 1.0717787 234 88 12
0.40638003 -1.3810631 1.0051661 234 88 12
0.33888832 -1.3925872 1.0021362 234 88 12
0.34262717 -1.3926946 1.0023605 234 88 12
0.34503967 -1.4277755 1.0155606 234 88 12
0.33662048 -1.7159598 1.1226065 234 88 12
0.38119522 -1.4676216 1.0321999 234 88 12
0.38463616 -1.4671669 1.0321999 234 88 12
0.39033976 -1.4410793 1.022753 234 88 12
0.34447658 -1.4505752 1.0202745 234 88 12
0.33266503 -1.8151691 1.1571736 234 88 12
0.38703135 -1.4433074 1.0196539 234 88 12
0.39795142 -1.4009069 1.0042088 234 88 12
0.40110552 -1.4061108 1.0063283 234 88 12
0.33452579 -1.7755553 1.1399208 234 88 12
0.33829409 -1.7426414 1.1275598 234 88 12
0.38723469 -1.4846554 1.031649 234 88 12
0.38260299 -1.6014465 1.075951 234 88 12
0.35401016 -1.8597831 1.1709719 234 88 12
0.35444874 -1.857263 1.1679552 234 88 12
0.35741588 -1.8459783 1.1637089 234 88 12
0.33305776 -1.8738329 1.1672376 234 88 12
0.34061083 -1.8728428 1.1672407 234 88 12
0.33711618 -1.407614 0.97564387 234 88 12
0.34087718 -1.4071171 0.97564387 234 88 12
0.34714401 -1.8786654 1.1556716 234 88 12
0.68682539 -1.0390418 1.2346678 234 88 12
0.69221431 -1.0337301 1.2346678 234 88 12
0.67681724 -1.0521984 1.2258441 234 88 12
0.68041164 -1.0499306 1.2268883 234 88 12
0.70288807 -1.0370021 1.2344433 234 88 12
0.70556462 -1.0343639 1.2344433 234 88 12
0.68411976 -1.0526907 1.2263783 234 88 12
0.69695693 -1.0390933 1.2255992 234 88 12
0.70304912 -1.0341159 1.2264471 234 88 12
0.72670841 -1.0692518 1.2692455 234 88 12
0.71126699 -1.0584694 1.2476227 234 88 12
0.85851139 -1.1356155 1.4282384 234 88 12
0.77566099 -1.0957849 1.3264281 234 88 12
0.84402406 -1.1234131 1.4060467 234 88 12
0.69723135 -1.0530607 1.2258444 234 88 12
0.68075806 -1.0660782 1.2172997 234 88 12
0.82441396 -1.1153843 1.3785112 234 88 12
0.96522117 -1.176728 1.5475166 234 88 12
0.71110576 -1.0489482 1.2280945 234 88 12
0.71189368 -1.0334963 1.2157017 234 88 12
0.7264452 -1.0288556 1.223895 234 88 12
0.99430281 -1.2081919 1.5953439 234 88 12
0.74386352 -1.0940484 1.2881386 234 88 12
0.72560734 -1.0827171 1.2631825 234 88 12
0.96712929 -1.1847279 1.552583 234 88 12
0.9374612 -1.1646874 1.5106428 234 88 12
0.71591258 -1.059929 1.2356578 234 88 12
0.70521754 -1.0432246 1.2124714 234 88 12
0.71183747 -1.0424625 1.2173755 234 88 12
0.7254414 -1.0373116 1.2244033 234 88 12
0.76154435 -1.0518774 1.267082 234 88 12
0.93339413 -1.1730047 1.5107071 234 88 12
0.70221728 -1.050752 1.2104514 234 88 12
0.9438287 -1.1462201 1.4965574 234 88 12
0.81001419 -1.0741572 1.3216438 234 88 12
0.74073762 -1.034198 1.228816 234 88 12
1.0057378 -1.2007993 1.5927205 234 88 12
0.73662817 -1.075186 1.2549205 234 88 12
0.7221821 -1.0648913 1.2337176 234 88 12
0.72479761 -1.0623133 1.2337176 234 88 12
0.71758902 -1.0433265 1.2111679 234 88 12
0.72330409 -1.034148 1.2081039 234 88 12
0.72706574 -1.0320283 1.2094764 234 88 12
0.71249563 -1.0537485 1.2099117 234 88 12
0.72492003 -1.0359479 1.2050744 234 88 12
0.74130166 -1.0282588 1.2124406 234 88 12
0.99682444 -1.2134635 1.5900972 234 88 12
0.77884501 -1.089321 1.2925581 234 88 12
0.76595128 -1.0762171 1.2699021 234 88 12
0.89340562 -1.1429323 1.4345182 234 88 12
0.76524609 -1.0804459 1.267512 234 88 12
0.72832602 -1.055512 1.2132685 234 88 12
0.74109983 -1.0381225 1.2090241 234 88 12
0.92447978 -1.155363 1.4686608 234 88 12
0.741611 -1.0628763 1.2255436 234 88 12
0.73288751 -1.0548189 1.2106963 234 88 12
0.984981 -1.1677716 1.5328803 234 88 12
0.80049825 -1.0698509 1.283501 234 88 12
1.0133712 -1.1971829 1.5809617 234 88 12
0.96313047 -1.1716131 1.513504 234 88 12
0.78275156 -1.0834527 1.2745843 234 88 12
0.78518254 -1.0810566 1.2745843 234 88 12
0.84523702 -1.106843 1.3509263 234 88 12
0.82303482 -1.0926224 1.3184917 234 88 12
0.73431069 -1.0446295 1.1968143 234 88 12
0.99039179 -1.184983 1.5463021 234 88 12
0.9131313 -1.1407489 1.4373088 234 88 12
0.79355013 -1.0752985 1.2713413 234 88 12
0.7462827 -1.0355456 1.1931703 234 88 12
1.0057418 -1.2143704 1.5835387 234 88 12
1.0165077 -1.1997141 1.5798483 234 88 12
0.73422307 -1.0585136 1.1971422 234 88 12
1.0094246 -1.2126799 1.582227 234 88 12
1.02161 -1.1986594 1.5803791 234 88 12
1.0232023 -1.1974256 1.5806878 234 88 12
1.020668 -1.2132332 1.5743569 234 88 12
1.7013155 -0.52673721 1.3685019 234 88 12
1.4553668 -0.59471256 1.2743711 234 88 12
1.2053709 -0.66043764 1.1784686 234 88 12
1.3431348 -0.632909 1.2284596 234 88 12
1.4870684 -0.58320284 1.2834569 234 88 12
1.2500236 -0.64821213 1.1917555 234 88 12
1.5071052 -0.56967831 1.2906717 234 88 12
1.2182475 -0.65058386 1.179039 234 88 12
1.2057545 -0.650626 1.1739799 234 88 12
1.4161528 -0.61387908 1.2536185 234 88 12
1.4301989 -0.60671276 1.2588848 234 88 12
1.4306772 -0.60381305 1.2588848 234 88 12
1.218462 -0.66554511 1.1761774 234 88 12
1.2040364 -0.66636831 1.1703274 234 88 12
1.2212653 -0.65418249 1.1765578 234 88 12
1.2342322 -0.66518515 1.1787086 234 88 12
1.2052356 -0.6705696 1.1670833 234 88 12
1.2088159 -0.65525049 1.1675191 234 88 12
1.2673612 -0.6592623 1.1882241 234 88 12
1.2128161 -0.6515013 1.1648991 234 88 12
1.2136512 -0.6476987 1.164986 234 88 12
1.3242079 -0.6423769 1.2072423 234 88 12
1.2133907 -0.67009062 1.1623983 234 88 12
1.7077653 -0.52780098 1.3591275 234 88 12
1.5109963 -0.58444351 1.2792187 234 88 12
1.3084127 -0.62895572 1.1959777 234 88 12
1.2278993 -0.63494724 1.1620723 234 88 12
1.230781 -0.66674298 1.1615497 234 88 12
1.2384943 -0.64695555 1.163466 234 88 12
1.6145397 -0.5530557 1.3163052 234 88 12
1.2750554 -0.65736544 1.1761285 234 88 12
1.2334968 -0.66340518 1.1584858 234 88 12
1.222461 -0.65969968 1.15342 234 88 12
1.2210308 -0.64588094 1.1518066 234 88 12
1.250277 -0.63408548 1.163681 234 88 12
1.4574826 -0.60094815 1.2483392 234 88 12
1.374415 -0.62408334 1.2135251 234 88 12
1.2278442 -0.66613835 1.1521856 234 88 12
1.2318624 -0.65787035 1.1533517 234 88 12
1.2292882 -0.6444872 1.1512513 234 88 12
1.2601259 -0.63223714 1.1639103 234 88 12
1.3203214 -0.64501685 1.18761 234 88 12
1.223466 -0.6684944 1.1463591 234 88 12
1.6968391 -0.52672416 1.3438673 234 88 12
1.5582316 -0.5635705 1.2844921 234 88 12
1.3304754 -0.63004786 1.1873666 234 88 12
1.6298507 -0.53747588 1.3146502 234 88 12
1.3041753 -0.6421966 1.1727046 234 88 12
1.4723337 -0.58792776 1.2447313 234 88 12
1.7056354 -0.51535684 1.3448637 234 88 12
1.7156003 -0.52716273 1.3481908 234 88 12
1.7107936 -0.51974595 1.3454361 234 88 12
1.7129215 -0.5172838 1.3462228 234 88 12
1.2304457 -0.65872127 1.1364738 234 88 12
1.7174402 -0.52939665 1.345066 234 88 12
1.2002428 0.92413443 1.6587982 234 88 12
1.197549 0.92682815 1.6587982 234 88 12
1.0772833 0.65232193 1.5403731 234 88 12
1.2034277 0.92462564 1.6560134 234 88 12
1.050981 0.58299589 1.5088432 234 88 12
1.0486757 0.58530122 1.5088432 234 88 12
1.0729102 0.64752227 1.5345956 234 88 12
0.98489773 0.45754758 1.4517919 234 88 12
1.1798306 0.87299138 1.6314484 234 88 12
0.99805379 0.45894697 1.4523023 234 88 12
0.99063301 0.45071992 1.4475975 234 88 12
0.99568081 0.47945866 1.4577562 234 88 12
0.9864046 0.46728897 1.451308 234 88 12
0.9804846 0.46277723 1.4481715 234 88 12
1.027795 0.50869048 1.4725795 234 88 12
0.99770373 0.44686705 1.4446846 234 88 12
0.99528635 0.45901018 1.4476362 234 88 12
0.98634714 0.47350734 1.4493231 234 88 12
0.97334164 0.4706656 1.4445136 234 88 12
0.97994113 0.47432426 1.4437531 234 88 12
1.0104687 0.45405498 1.4430301 234 88 12
0.99996912 0.47377625 1.4458812 234 88 12
1.0181712 0.46100324 1.4437156 234 88 12
1.0135436 0.48538366 1.4498791 234 88 12
1.0225739 0.51481676 1.4618807 234 88 12
1.0103376 0.44864887 1.4334936 234 88 12
1.002658 0.45760539 1.4338957 234 88 12
1.0064936 0.47536892 1.4406974 234 88 12
1.2139016 0.92701828 1.6462665 234 88 12
1.0098355 0.46303761 1.4339628 234 88 12
1.0044901 0.45943749 1.4311199 234 88 12
0.99145037 0.4737227 1.4315157 234 88 12
0.9887678 0.47640523 1.4315157 234 88 12
1.0234905 0.46619868 1.4354309 234 88 12
1.0108401 0.48940647 1.4388167 234 88 12
1.0269719 0.5073688 1.4459844 234 88 12
1.2024612 0.92482686 1.6378802 234 88 12
1.2099243 0.93650979 1.6420891 234 88 12
1.2175778 0.93069446 1.6406968 234 88 12
1.2162309 0.93204135 1.6406968 234 88 12
1.2121903 0.93608195 1.6406968 234 88 12
-0.18400852 1.4623554 1.3977647 234 88 12
-0.24142736 1.6920563 1.4481844 234 88 12
-0.20764995 1.5804346 1.421288 234 88 12
-0.11806922 1.20569 1.3378702 234 88 12
-0.12183035 1.2055137 1.3379653 234 88 12
-0.12064268 1.1845434 1.3334324 234 88 12
-0.23042287 1.6370184 1.4342101 234 88 12
-0.10204045 1.1885812 1.3300651 234 88 12
-0.10477152 1.1840006 1.3291668 234 88 12
-0.11150255 1.1953385 1.3318745 234 88 12
-0.11963824 1.2127663 1.3359572 234 88 12
-0.12018651 1.1832818 1.3295635 234 88 12
-0.12775758 1.1824168 1.3296469 234 88 12
-0.1119101 1.2136532 1.3288591 234 88 12
-0.11988374 1.230338 1.332896 234 88 12
-0.092191823 1.1979488 1.3210145 234 88 12
-0.10861181 1.2013869 1.3224138 234 88 12
-0.12743957 1.2163237 1.3229961 234 88 12
-0.091901921 1.19853 1.3139083 234 88 12
-0.11132234 1.1982324 1.3145897 234 88 12
-0.12382083 1.2018135 1.315913 234 88 12
-0.15063034 1.2844508 1.3363303 234 88 12
-0.22936305 1.6940956 1.4335948 234 88 12
-0.22864129 1.6835845 1.4310652 234 88 12
-0.23720571 1.7015785 1.4356833 234 88 12
-0.23362617 1.703281 1.4341228 234 88 12
-0.23738492 1.7026612 1.4341228 234 88 12
-0.13387808 1.1963767 1.3077718 234 88 12
-1.3478531 0.83659476 0.84561384 234 88 12
-1.4823997 0.96212423 0.84355909 234 88 12
-1.7035617 1.1828195 0.84008461 234 88 12
-1.326939 0.82608885 0.84229392 234 88 12
-1.3294642 0.81275535 0.84234071 234 88 12
-1.3344148 0.8124215 0.84231144 234 88 12
-1.3508947 0.82385701 0.84215516 234 88 12
-1.3258692 0.83006597 0.83870083 234 88 12
-1.3324405 0.8312813 0.83867478 234 88 12
-1.3328267 0.82643813 0.83868611 234 88 12
-1.3488979 0.86222166 0.83161092 234 88 12
-1.6836793 1.1563479 0.83274299 234 88 12
-1.3169068 0.83647841 0.82788992 234 88 12
-1.3324208 0.83584338 0.8279621 234 88 12
-1.3281002 0.82638043 0.82790715 234 88 12
-1.3314583 0.81914264 0.82789713 234 88 12
-1.3510655 0.83351874 0.82804328 234 88 12
-1.3362206 0.81329131 0.82789886 234 88 12
-1.4949613 0.96544224 0.82921124 234 88 12
-1.3596382 0.86721522 0.82476437 234 88 12
-1.3737376 0.87598163 0.82492119 234 88 12
-1.6361017 1.1259609 0.82833421 234 88 12
-1.6663153 1.1529715 0.82871711 234 88 12
-1.3786967 0.84590322 0.82478732 234 88 12
-1.6973255 1.1701758 0.82905018 234 88 12
-1.6904438 1.1851202 0.82721823 234 88 12
-1.6906074 1.1825659 0.8272 234 88 12
-1.7033739 1.1898274 0.82738882 234 88 12
-1.3545563 0.82613927 0.82094222 234 88 12
-1.7056583 1.1813812 0.82734662 234 88 12
-1.7119446 -0.39342895 0.35546559 234 88 12
-1.7210766 -0.39489958 0.35317108 234 88 12
-1.9824743 -0.33374619 0.2889069 234 88 12
-1.9319901 -0.34915939 0.30126897 234 88 12
-2.2104926 -0.28095514 0.23284139 234 88 12
-2.2103879 -0.282857 0.23284139 234 88 12
-1.7124187 -0.38595268 0.35173139 234 88 12
-1.701538 -0.3997176 0.35421488 234 88 12
-1.7002683 -0.40007234 0.35075948 234 88 12
-2.1269054 -0.30234742 0.24898148 234 88 12
-1.724324 -0.37959543 0.34154207 234 88 12
-1.7634627 -0.39520469 0.33202744 234 88 12
-2.0098681 -0.33487657 0.27420291 234 88 12
-1.7052423 -0.37655208 0.34237039 234 88 12
-1.7151145 -0.37805521 0.34003943 234 88 12
-1.7382038 -0.38727865 0.33451423 234 88 12
-1.7194054 -0.40283099 0.33871543 234 88 12
-2.1538281 -0.29552332 0.23837832 234 88 12
-2.0298755 -0.32972476 0.26696104 234 88 12
-1.7158794 -0.37422588 0.33619717 234 88 12
-1.7017809 -0.38860658 0.33926338 234 88 12
-2.1836483 -0.28002465 0.22960812 234 88 12
-1.7121457 -0.40100345 0.33671787 234 88 12
-2.1487968 -0.29683459 0.23742549 234 88 12
-1.8542495 -0.37527248 0.30430055 234 88 12
-1.7449776 -0.37138095 0.32592276 234 88 12
-1.7248733 -0.38691583 0.33028638 234 88 12
-2.1696069 -0.2834307 0.23076062 234 88 12
-2.1776898 -0.28747964 0.2288778 234 88 12
-2.1361461 -0.30224159 0.23811117 234 88 12
-2.2106252 -0.28668535 0.22142157 234 88 12
-1.7664448 -0.37007457 0.31754571 234 88 12
-2.2034669 -0.27148238 0.22131746 234 88 12
-2.1946015 -0.27936968 0.22319727 234 88 12
-2.2008367 -0.28358498 0.22175536 234 88 12
-2.2011445 -0.27204686 0.21990271 234 88 12
-1.4442387 -1.720347 0.028275901 234 88 12
-1.1039013 -1.5718864 0.18354888 234 88 12
-0.97592318 -1.505168 0.24226534 234 88 12
-1.2152824 -1.6140109 0.13125156 234 88 12
-1.233783 -1.6249243 0.12187381 234 88 12
-1.2559956 -1.6372708 0.11085565 234 88 12
-0.98509479 -1.4975102 0.23787642 234 88 12
-0.98534054 -1.5015137 0.23653379 234 88 12
-0.974841 -1.5084509 0.23765938 234 88 12
-1.1245966 -1.5773885 0.16855994 234 88 12
-1.3669379 -1.6849688 0.057996862 234 88 12
-0.97465003 -1.5082599 0.23387685 234 88 12
-1.2955898 -1.6516387 0.088493019 234 88 12
-1.4073142 -1.7022969 0.037649125 234 88 12
-1.3903744 -1.6971413 0.04456744 234 88 12
-1.3831176 -1.6896309 0.0469721 234 88 12
-1.3917642 -1.6955382 0.042456556 234 88 12
-0.9934181 -1.5009888 0.22254261 234 88 12
-0.98717606 -1.5135449 0.2206016 234 88 12
-1.0037471 -1.5055912 0.21413113 234 88 12
-0.98519242 -1.504897 0.21999361 234 88 12
-1.0617083 -1.5496633 0.18305558 234 88 12
-1.4428087 -1.7192965 0.013361742 234 88 12
-0.97331506 -1.5071379 0.21512765 234 88 12
-0.9900533 -1.5182748 0.20679662 234 88 12
-0.99170899 -1.5036595 0.20681508 234 88 12
-1.012561 -1.5168335 0.19674246 234 88 12
-1.2193632 -1.6122141 0.10439099 234 88 12
-1.4449408 -1.7142473 0.008340328 234 88 12
-1.4337552 -1.7287197 0.007376757 234 88 12
-1.1547551 -1.5897124 0.12678736 234 88 12
-0.0011858201 -2.2223837 0.32229668 234 88 12
0.00071606319 -2.2224884 0.32229668 234 88 12
0.13833927 -1.7265797 0.52031922 234 88 12
0.043183029 -2.0645573 0.38022441 234 88 12
0.13009883 -1.7286776 0.5155611 234 88 12
0.13430735 -1.7273629 0.51618665 234 88 12
0.12027261 -1.7891923 0.49086383 234 88 12
0.095628083 -1.8856161 0.45131111 234 88 12
0.037827823 -2.0912449 0.3668462 234 88 12
0.13011926 -1.7421628 0.50643867 234 88 12
0.026772007 -2.1126854 0.35564321 234 88 12
0.014893377 -2.1612709 0.33590677 234 88 12
0.027924668 -2.1246824 0.35085994 234 88 12
0.17316769 -1.7262923 0.51374978 234 88 12
0.11773422 -1.7856889 0.48521259 234 88 12
0.011071195 -2.1670551 0.3314226 234 88 12
-5.7235939e-06 -2.2121844 0.31325749 234 88 12
-0.0011050401 -2.2225361 0.30912235 234 88 12
0.00068739709 -2.2230093 0.30897355 234 88 12
0.17152792 -1.743196 0.50326437 234 88 12
0.0013125663 -2.2077477 0.31311804 234 88 12
0.12404018 -1.7232934 0.50265259 234 88 12
0.13456462 -1.7269388 0.50145745 234 88 12
-0.0019645265 -2.2122579 0.30935892 234 88 12
0.17659669 -1.7396082 0.49742091 234 88 12
0.12881514 -1.760223 0.48475492 234 88 12
0.015890177 -2.2240701 0.30326363 234 88 12
0.18378481 -1.7296802 0.49771568 234 88 12
0.13264935 -1.7338874 0.49130011 234 88 12
0.13277431 -1.7466539 0.4864206 234 88 12
0.13264126 -1.7340344 0.48753873 234 88 12
0.13647722 -1.7470034 0.48270696 234 88 12
0.13104297 -1.7263952 0.48292965 234 88 12
0.0082662636 -2.223949 0.29565042 234 88 12
0.015873797 -2.2243676 0.29565042 234 88 12
1.1729873 -1.7095026 0.84371191 234 88 12
0.90858418 -1.4380628 0.85050464 234 88 12
1.0127714 -1.5360343 0.84795779 234 88 12
0.99291706 -1.512531 0.84851295 234 88 12
1.1718152 -1.7111129 0.84189826 234 88 12
0.96337003 -1.4917734 0.84630328 234 88 12
1.0214645 -1.5409827 0.8452152 234 88 12
0.92007226 -1.4360441 0.84733731 234 88 12
0.81335694 -1.3242903 0.84958619 234 88 12
0.83128965 -1.3370775 0.84927845 234 88 12
1.0350274 -1.5545808 0.84241921 234 88 12
1.1448249 -1.6603502 0.84072882 234 88 12
0.83588672 -1.347142 0.84562498 234 88 12
1.1831695 -1.7040267 0.8382709 234 88 12
0.85731757 -1.3738849 0.84185511 234 88 12
0.83960825 -1.3510984 0.84208006 234 88 12
0.93104517 -1.4383731 0.84110773 234 88 12
0.82025135 -1.3209947 0.84235835 234 88 12
0.83513081 -1.3201358 0.84229392 234 88 12
0.90445596 -1.4116856 0.8382073 234 88 12
0.84303868 -1.3285605 0.8386575 234 88 12
0.83517104 -1.3149483 0.83872551 234 88 12
0.88615429 -1.3884995 0.83503574 234 88 12
0.85159373 -1.3481457 0.8350839 234 88 12
0.84074062 -1.3317175 0.83510172 234 88 12
0.84377515 -1.3077737 0.83511746 234 88 12
0.86999094 -1.3672022 0.83166009 234 88 12
0.87284505 -1.3650548 0.83166009 234 88 12
1.1921449 -1.7001259 0.831016 234 88 12
1.0323017 -1.5336756 0.82963878 234 88 12
0.85879385 -1.3455298 0.82810801 234 88 12
0.84792197 -1.3288844 0.8279888 234 88 12
0.8434906 -1.3133492 0.82789814 234 88 12
0.85893905 -1.3078787 0.82792771 234 88 12
0.90467989 -1.3982826 0.82527077 234 88 12
0.84562337 -1.3320421 0.82443219 234 88 12
1.1776285 -1.7125145 0.82738841 234 88 12
1.1837468 -1.7079623 0.82738894 234 88 12
1.189931 -1.6953692 0.82730669 234 88 12
0.83790928 -1.3296152 0.82077563 234 88 12
1.062947 -1.554216 0.82485533 234 88 12
0.89756852 -1.3761833 0.82172281 234 88 12
1.1736445 -1.6641142 0.82685608 234 88 12
0.88625342 -1.3539081 0.82140392 234 88 12
0.88911951 -1.3517516 0.82140392 234 88 12
1.1819714 -1.6816899 0.82520288 234 88 12
0.98186481 -1.469552 0.820436 234 88 12
1.1931559 -1.6849177 0.82535589 234 88 12
0.80220348 -1.353309 0.80260646 234 88 12
1.1850241 -1.712828 0.81287962 234 88 12
1.9576365 0.50799066 0.97827446 234 88 12
1.9054394 0.46469161 0.97465193 234 88 12
1.6581907 0.2409471 0.95712066 234 88 12
1.7310218 0.31132805 0.96237403 234 88 12
1.5593379 0.15972966 0.95027578 234 88 12
1.5426807 0.12967196 0.9451862 234 88 12
1.541339 0.13322589 0.9451862 234 88 12
1.5485202 0.1492632 0.94592834 234 88 12
1.9602979 0.50492352 0.97473413 234 88 12
1.5366732 0.16159512 0.94192541 234 88 12
1.5529925 0.14250869 0.93888599 234 88 12
1.544862 0.16345188 0.93887198 234 88 12
1.5567627 0.13103949 0.9352597 234 88 12
1.6010567 0.16731457 0.93566269 234 88 12
1.5525104 0.12632453 0.93124217 234 88 12
1.5475065 0.13605265 0.93115026 234 88 12
1.5587021 0.15106432 0.93231463 234 88 12
1.5448056 0.14789423 0.93127245 234 88 12
1.5609206 0.1287145 0.92828524 234 88 12
1.555336 0.14255092 0.92825913 234 88 12
1.5572191 0.14901312 0.92857176 234 88 12
1.5868702 0.1806899 0.93158066 234 88 12
1.6188033 0.21407236 0.93480122 234 88 12
1.637653 0.20050514 0.93252426 234 88 12
1.6115959 0.18035467 0.92997962 234 88 12
1.6537678 0.24091834 0.93489558 234 88 12
1.7172431 0.27900207 0.93786043 234 88 12
1.6330767 0.21286316 0.9292528 234 88 12
1.9468384 0.50484657 0.96269357 234 88 12
1.5699737 0.16396604 0.92281985 234 88 12
1.9669073 0.50334674 0.96057284 234 88 12
1.9662344 0.50512874 0.96057284 234 88 12
1.5488913 0.15289991 0.91354018 234 88 12
0.81706417 1.8379436 0.98535514 234 88 12
0.73844731 1.3300538 0.96382713 234 88 12
0.72818875 1.3117707 0.96293986 234 88 12
0.80993623 1.8406347 0.98535514 234 88 12
0.74609309 1.3041093 0.95931381 234 88 12
0.73879236 1.3054763 0.95925379 234 88 12
0.7329644 1.3165066 0.95963556 234 88 12
0.7219556 1.3179661 0.95951891 234 88 12
0.79819727 1.6912129 0.97460139 234 88 12
0.7181266 1.315951 0.95577395 234 88 12
0.75481635 1.3063463 0.94877881 234 88 12
0.75643247 1.3161458 0.94575185 234 88 12
0.75176102 1.3089975 0.94525218 234 88 12
0.74996376 1.32294 0.94599587 234 88 12
0.7337904 1.3142655 0.94516712 234 88 12
0.73065722 1.3182981 0.94532692 234 88 12
0.72359633 1.3211648 0.94533819 234 88 12
0.75579792 1.3089056 0.94172162 234 88 12
0.75171316 1.3333153 0.94307774 234 88 12
0.75211376 1.3618783 0.94478059 234 88 12
0.73867106 1.3442483 0.94343412 234 88 12
0.81723458 1.7893095 0.96959722 234 88 12
0.81859362 1.8139608 0.97117102 234 88 12
0.81814224 1.8246782 0.97183067 234 88 12
0.81702101 1.8432221 0.97296399 234 88 12
0.74192667 1.3867215 0.94264036 234 88 12
0.81124336 1.8425392 0.97278482 234 88 12
-0.69727761 1.5463922 0.54133856 234 88 12
-0.69741923 1.5375801 0.5423249 234 88 12
-0.69504714 1.5228894 0.54410154 234 88 12
-0.90085113 1.9874371 0.48129249 234 88 12
-0.69287223 1.5545636 0.53707379 234 88 12
-0.68580651 1.5299883 0.54011208 234 88 12
-0.69332319 1.518945 0.54095113 234 88 12
-0.90270782 1.9869218 0.47941014 234 88 12
-0.66979331 1.5314147 0.53706366 234 88 12
-0.67897993 1.5421654 0.53548312 234 88 12
-0.68248534 1.5408254 0.53545809 234 88 12
-0.67930555 1.5428828 0.53175831 234 88 12
-0.68216109 1.5401343 0.53190905 234 88 12
-0.68441159 1.536036 0.5322268 234 88 12
-0.6755296 1.5347846 0.52909738 234 88 12
-0.69506127 1.5228683 0.52940983 234 88 12
-0.68850076 1.5626812 0.52217323 234 88 12
-0.6996513 1.5606408 0.52188671 234 88 12
-0.69804251 1.5296534 0.52494293 234 88 12
-0.76386642 1.6637688 0.50916493 234 88 12
-0.87970924 1.9736556 0.47234461 234 88 12
-0.8675366 1.9424831 0.47575605 234 88 12
-0.878263 1.9608989 0.47359273 234 88 12
-0.88895297 1.9796156 0.47140288 234 88 12
-0.89200014 1.9816376 0.47108713 234 88 12
-0.70220464 1.5483371 0.51936817 234 88 12
-0.88657862 1.9838156 0.46921828 234 88 12
-1.6825966 0.55850118 -0.063846819 234 88 12
-1.8489115 0.66853994 -0.13835511 234 88 12
-2.0657172 0.819094 -0.23658659 234 88 12
-1.6651598 0.55091828 -0.060620837 234 88 12
-1.667249 0.54326564 -0.060159307 234 88 12
-1.6748626 0.53957373 -0.062192459 234 88 12
-2.0654514 0.81897455 -0.23846893 234 88 12
-2.0006564 0.77195144 -0.21143936 234 88 12
-1.6611465 0.5619989 -0.068873301 234 88 12
-1.6795423 0.56567007 -0.075566746 234 88 12
-1.719973 0.56807244 -0.089427114 234 88 12
-1.6700588 0.56818718 -0.076687507 234 88 12
-1.677784 0.54210788 -0.075367026 234 88 12
-1.9448545 0.7315833 -0.19165149 234 88 12
-2.0509486 0.80627 -0.23775917 234 88 12
-1.6640295 0.55518925 -0.076717556 234 88 12
-1.6729289 0.54784262 -0.078543834 234 88 12
-1.7464334 0.5875659 -0.10835861 234 88 12
-2.0573211 0.81101334 -0.24259408 234 88 12
-1.6834594 0.57754517 -0.090171479 234 88 12
-1.6921765 0.5791387 -0.093214266 234 88 12
-2.0462804 0.81734461 -0.24197577 234 88 12
-2.0275927 0.80184031 -0.2336996 234 88 12
-1.6865026 0.55759948 -0.088260569 234 88 12
-1.6693614 0.5363248 -0.079646401 234 88 12
-1.6869788 0.54452747 -0.086518474 234 88 12
-1.8608066 0.67433405 -0.164407 234 88 12
-2.0604672 0.82508743 -0.25164542 234 88 12
-1.9250389 -0.90695333 -0.70035827 234 88 12
-1.4894155 -0.89188999 -0.40397808 234 88 12
-1.4833367 -0.9025234 -0.40257028 234 88 12
-1.5664446 -0.90832043 -0.46073717 234 88 12
-1.9223775 -0.91002047 -0.70389861 234 88 12
-1.874537 -0.90337026 -0.67209852 234 88 12
-1.4863544 -0.88686538 -0.41420695 234 88 12
-1.4913983 -0.89044768 -0.41847116 234 88 12
-1.486059 -0.90451181 -0.41845134 234 88 12
-1.4948024 -0.88647854 -0.42420584 234 88 12
-1.494647 -0.90393358 -0.42846286 234 88 12
-1.4750597 -0.90764529 -0.41643107 234 88 12
-1.9194293 -0.90726918 -0.71033096 234 88 12
-1.8939886 -0.89631778 -0.69318187 234 88 12
-1.4993014 -0.89995158 -0.43494865 234 88 12
-1.4933631 -0.90344894 -0.43191674 234 88 12
-1.4992703 -0.88558692 -0.43578136 234 88 12
-1.9222542 -0.896056 -0.71394312 234 88 12
-1.8892992 -0.89796555 -0.69294161 234 88 12
-1.5327085 -0.88553888 -0.46178716 234 88 12
-1.4783415 -0.88841969 -0.42734087 234 88 12
-1.6049286 -0.88909203 -0.51319659 234 88 12
-1.4735506 -0.89097315 -0.43385711 234 88 12
-0.62430763 -2.0715902 -0.60653943 234 88 12
-0.62074363 -2.0729356 -0.60653943 234 88 12
-0.6258412 -2.0702593 -0.60830957 234 88 12
-0.36645666 -1.7663192 -0.2269682 234 88 12
-0.54542536 -1.9750475 -0.4943029 234 88 12
-0.61975002 -2.0703039 -0.6136201 234 88 12
-0.37025577 -1.7591181 -0.22636077 234 88 12
-0.44837716 -1.8596183 -0.35134363 234 88 12
-0.60537237 -2.0427678 -0.58441961 234 88 12
-0.61832809 -2.0602744 -0.60595405 234 88 12
-0.36623889 -1.759177 -0.22992224 234 88 12
-0.51834542 -1.9394101 -0.45697156 234 88 12
-0.48793066 -1.9038874 -0.41585177 234 88 12
-0.37246701 -1.754023 -0.23714992 234 88 12
-0.36558521 -1.756947 -0.23745736 234 88 12
-0.3664459 -1.7633617 -0.24381433 234 88 12
-0.36886036 -1.7714617 -0.25231445 234 88 12
-0.62206745 -2.0656633 -0.62246454 234 88 12
-0.61850798 -2.067014 -0.62247092 234 88 12
-0.60959804 -2.0703778 -0.62247092 234 88 12
-0.37067097 -1.7720765 -0.26316303 234 88 12
-0.60578561 -2.0710654 -0.62424105 234 88 12
-0.57486999 -2.0085895 -0.55810374 234 88 12
-0.35723212 -1.7552077 -0.2525461 234 88 12
-0.35369149 -1.7565444 -0.2525461 234 88 12
-0.3748928 -1.7747575 -0.28137231 234 88 12
-0.58140278 -2.0182388 -0.57495612 234 88 12
-0.60816652 -2.0512505 -0.61433494 234 88 12
-0.35396534 -1.7606945 -0.26615074 234 88 12
-0.33700338 -1.7575816 -0.25751525 234 88 12
1.9037032 -1.0657814 0.53776306 234 88 12
1.6604881 -1.0377239 0.59124565 234 88 12
1.6294538 -1.0323529 0.59823835 234 88 12
1.90475 -1.0641636 0.53588074 234 88 12
1.5917211 -1.0319831 0.60331136 234 88 12
1.8463526 -1.0517528 0.54905343 234 88 12
1.3597974 -1.0049546 0.65356576 234 88 12
1.360507 -1.0014091 0.65374786 234 88 12
1.4319431 -1.015141 0.63438588 234 88 12
1.3594785 -1.0051148 0.64999086 234 88 12
1.362027 -1.0017416 0.64978164 234 88 12
1.9021571 -1.0713515 0.532116 234 88 12
1.9052813 -1.0644025 0.532116 234 88 12
1.4864992 -1.0201441 0.61966318 234 88 12
1.4557966 -1.0141376 0.62632942 234 88 12
1.3778158 -0.99986225 0.6431728 234 88 12
1.3805302 -0.98939371 0.64357042 234 88 12
1.9078902 -1.0593101 0.53023368 234 88 12
1.5691059 -1.027604 0.59957063 234 88 12
1.3739514 -0.98886186 0.64131999 234 88 12
1.384163 -0.97555047 0.64048982 234 88 12
1.4011515 -1.009492 0.63065684 234 88 12
1.3833627 -1.0007735 0.63485157 234 88 12
1.4738402 -1.0163035 0.61275697 234 88 12
1.3742361 -1.0036477 0.63276821 234 88 12
1.8638693 -1.0419998 0.53643572 234 88 12
1.3815988 -0.98644662 0.63283873 234 88 12
1.453001 -1.0079373 0.61408776 234 88 12
1.4544351 -1.0047477 0.61408776 234 88 12
1.4468513 -1.0006182 0.61585194 234 88 12
1.8352627 -1.0390221 0.54004228 234 88 12
1.3734024 -0.98571551 0.63082951 234 88 12
1.4106547 -0.98280787 0.62411243 234 88 12
1.7784873 -1.0420744 0.54813218 234 88 12
1.5839399 -1.0208671 0.58561975 234 88 12
1.6138152 -1.0181633 0.58035529 234 88 12
1.4320935 -0.99582809 0.61558002 234 88 12
1.9027659 -1.0483265 0.52292645 234 88 12
1.6290696 -1.0364904 0.57053655 234 88 12
1.5613049 -1.0278568 0.58324027 234 88 12
1.9050637 -1.0705699 0.51705718 234 88 12
1.908188 -1.0636208 0.51705718 234 88 12
1.9076726 -1.0654775 0.51517487 234 88 12
1.3665997 -1.0116436 0.60451126 234 88 12
1.7647827 -0.29658201 0.29466382 234 88 12
1.766433 -0.29193148 0.29388577 234 88 12
2.2431049 -0.079702415 0.092623562 234 88 12
1.776343 -0.28345838 0.2858431 234 88 12
1.7761112 -0.27205241 0.28568301 234 88 12
1.8989568 -0.23735262 0.23193547 234 88 12
1.7677698 -0.27570897 0.28529817 234 88 12
1.7975769 -0.25869206 0.2729907 234 88 12
1.7731658 -0.26561773 0.28291568 234 88 12
2.032568 -0.1773798 0.17434758 234 88 12
1.7733732 -0.29625523 0.27968827 234 88 12
1.7859344 -0.28655541 0.27449727 234 88 12
1.7722344 -0.28136587 0.27981481 234 88 12
1.7697396 -0.27863473 0.28074419 234 88 12
1.7837577 -0.26853436 0.27496693 234 88 12
1.8497313 -0.23563126 0.24809651 234 88 12
1.7727721 -0.26573375 0.27926064 234 88 12
2.2430911 -0.083518468 0.086913645 234 88 12
2.2170801 -0.089978829 0.097262271 234 88 12
1.9016585 -0.21600141 0.22378524 234 88 12
1.8614681 -0.2547884 0.23693426 234 88 12
1.8399405 -0.25772771 0.24536227 234 88 12
1.8598168 -0.2450612 0.23736791 234 88 12
1.9500051 -0.20069738 0.20137395 234 88 12
2.101367 -0.12959358 0.14103746 234 88 12
1.8218006 -0.25149095 0.25227761 234 88 12
1.7984884 -0.25812447 0.2614781 234 88 12
2.161767 -0.11153697 0.11492514 234 88 12
2.2315652 -0.077072226 0.087346651 234 88 12
2.2202034 -0.080272563 0.091784917 234 88 12
2.2336907 -0.072123632 0.086424313 234 88 12
1.7873423 -0.27055672 0.2623193 234 88 12
1.8920798 -0.23020823 0.21784022 234 88 12
1.8508577 -0.24551566 0.23385632 234 88 12
1.7701181 -0.27823257 0.26528361 234 88 12
1.77157 -0.28137428 0.26097912 234 88 12
2.2426748 -0.085449018 0.073590524 234 88 12
1.4326117 1.0079252 0.41309842 234 88 12
1.4360846 1.0218457 0.41040254 234 88 12
1.4217571 1.0029837 0.41554672 234 88 12
1.4328514 0.98519427 0.41286233 234 88 12
1.4244841 1.0002657 0.41184065 234 88 12
1.41962 0.99891132 0.4127883 234 88 12
1.4355708 1.0354373 0.40479106 234 88 12
1.434458 0.98026955 0.40963531 234 88 12
1.4491833 1.0384622 0.3987124 234 88 12
1.4186921 1.0121042 0.40722826 234 88 12
1.441224 0.993119 0.40301329 234 88 12
1.449365 1.0386438 0.39511383 234 88 12
1.4361098 0.99861091 0.39927304 234 88 12
1.4361542 1.013876 0.39705935 234 88 12
1.4671611 1.0786358 0.38321194 234 88 12
1.6810426 1.4507277 0.2966108 234 88 12
1.4357687 0.98226219 0.39795622 234 88 12
1.4330493 0.98487711 0.39797106 234 88 12
1.4532517 1.0309143 0.38856554 234 88 12
1.4819503 1.092199 0.37578863 234 88 12
1.4558597 1.0504314 0.38542396 234 88 12
1.4262688 1.002919 0.39637202 234 88 12
1.4294105 1.0236363 0.39298424 234 88 12
1.4150318 1.0050477 0.39766532 234 88 12
1.6811384 1.4508237 0.29471087 234 88 12
1.6199121 1.3368189 0.31913593 234 88 12
1.6596059 1.4217229 0.30176854 234 88 12
1.6708226 1.4508836 0.2961404 234 88 12
1.4212908 1.0087202 0.39255428 234 88 12
1.6782037 1.4490222 0.29348502 234 88 12
1.4179277 1.0021361 0.38274854 234 88 12
0.20660178 1.908365 0.11387978 234 88 12
0.21245743 1.7720013 0.15083821 234 88 12
0.20999457 1.7532259 0.15597574 234 88 12
0.22981897 1.7362056 0.15648976 234 88 12
0.21886405 1.7316984 0.15785821 234 88 12
0.20363693 1.7337649 0.15752928 234 88 12
0.23293389 1.785573 0.13960341 234 88 12
0.21579841 1.7755576 0.14249551 234 88 12
0.23745902 1.7341915 0.14928061 234 88 12
0.22897252 1.7461772 0.14628536 234 88 12
0.22193578 1.7407756 0.14779072 234 88 12
0.21818231 1.7409822 0.14779072 234 88 12
0.23706654 1.7383898 0.14439449 234 88 12
0.2091047 1.7665213 0.1375825 234 88 12
0.20359106 1.7337157 0.14606383 234 88 12
0.22936134 1.7849891 0.12894614 234 88 12
0.22406703 1.7611268 0.13503984 234 88 12
0.2147101 1.8389415 0.11553802 234 88 12
0.18451931 2.2253695 0.018465871 234 88 12
0.18944243 2.1214437 0.044616766 234 88 12
0.19853625 1.8266897 0.11885358 234 88 12
0.19397338 2.203052 0.02195763 234 88 12
0.19147915 2.2094486 0.020402739 234 88 12
0.21333735 1.7570175 0.13249491 234 88 12
0.18449146 2.2255037 0.014588104 234 88 12
0.18934438 2.085582 0.048739798 234 88 12
-1.0908293 1.3635668 -0.42302161 234 88 12
-1.0651258 1.3178428 -0.39799166 234 88 12
-1.0675125 1.3145685 -0.39742279 234 88 12
-1.07302 1.316125 -0.39961573 234 88 12
-1.0611413 1.325637 -0.40398455 234 88 12
-1.0695848 1.3109444 -0.40080687 234 88 12
-1.3187051 1.6909095 -0.6170038 234 88 12
-1.0515436 1.3317263 -0.40769458 234 88 12
-1.0474566 1.3258576 -0.40848306 234 88 12
-1.0635355 1.315827 -0.40925545 234 88 12
-1.1533459 1.4295821 -0.47701955 234 88 12
-1.0725006 1.3624513 -0.43315101 234 88 12
-1.0580809 1.334836 -0.41891664 234 88 12
-1.0619786 1.3272403 -0.417191 234 88 12
-1.0692742 1.3178631 -0.41575217 234 88 12
-1.0722822 1.3155999 -0.41575217 234 88 12
-1.2638726 1.60448 -0.57600164 234 88 12
-1.1181614 1.4174072 -0.46981764 234 88 12
-1.2399048 1.5937196 -0.56798786 234 88 12
-1.2930845 1.6696836 -0.61048466 234 88 12
-1.0833316 1.3260964 -0.42675632 234 88 12
-1.3142788 1.6842651 -0.62167102 234 88 12
-1.0456564 1.3235025 -0.41956419 234 88 12
-1.2968447 1.6860801 -0.61967403 234 88 12
-1.1506704 1.465727 -0.49982879 234 88 12
-1.2738047 1.644536 -0.59831262 234 88 12
-1.3093197 1.6942716 -0.62605119 234 88 12
-1.3047491 1.683841 -0.6210193 234 88 12
-1.1303693 1.4121052 -0.47483319 234 88 12
-1.3002312 1.6876512 -0.62329257 234 88 12
-1.5039279 0.022799613 -0.8960799 234 88 12
-1.5082444 0.012788973 -0.898408 234 88 12
-1.8569576 0.18561333 -1.227886 234 88 12
-1.5066553 0.029478641 -0.90939558 234 88 12
-1.5028055 0.011501959 -0.90353286 234 88 12
-1.8124825 0.16159782 -1.1912417 234 88 12
-1.5020584 0.031960722 -0.91076308 234 88 12
-1.5162281 0.026811687 -0.92213571 234 88 12
-1.5153759 0.014512193 -0.91967618 234 88 12
-1.5054073 0.038149398 -0.91940713 234 88 12
-1.5236443 0.015465708 -0.93168914 234 88 12
-1.580299 0.044941939 -0.98820639 234 88 12
-1.4930032 0.033674456 -0.91818386 234 88 12
-1.492819 0.029572401 -0.91746557 234 88 12
-1.5172889 0.037118968 -0.93892258 234 88 12
-1.8206507 0.17837471 -1.2114969 234 88 12
-1.8153962 0.17364034 -1.206461 234 88 12
-1.7472831 0.1380581 -1.1447283 234 88 12
-1.8380853 0.19122413 -1.2303622 234 88 12
-1.8461063 0.19293071 -1.2372371 234 88 12
-1.8458977 0.18571973 -1.2435099 234 88 12
-1.1173545 -1.3342006 -1.4109462 234 88 12
-0.8306036 -1.2462294 -0.9687379 234 88 12
-0.82647556 -1.2485085 -0.96652037 234 88 12
-0.85308635 -1.259176 -1.0112282 234 88 12
-1.1083522 -1.3321922 -1.4049348 234 88 12
-0.83309406 -1.2387257 -0.96989936 234 88 12
-0.82549518 -1.2421519 -0.97207844 234 88 12
-0.82684278 -1.2493896 -0.98221153 234 88 12
-0.8318277 -1.2357862 -0.97911406 234 88 12
-0.82527912 -1.2407882 -0.97730315 234 88 12
-0.85700023 -1.2564994 -1.0328416 234 88 12
-1.1111263 -1.3308758 -1.4174837 234 88 12
-1.1036808 -1.3228762 -1.4030737 234 88 12
-0.83020175 -1.2510778 -1.0019948 234 88 12
-1.0013907 -1.2949827 -1.2566867 234 88 12
-1.105646 -1.3263019 -1.4129254 234 88 12
-1.1092254 -1.3290192 -1.4201816 234 88 12
-1.1082275 -1.330461 -1.4206933 234 88 12
-1.1068807 -1.331808 -1.4206933 234 88 12
-0.85085928 -1.251071 -1.0391678 234 88 12
-0.84356678 -1.2411413 -1.0261314 234 88 12
-1.0917479 -1.3173528 -1.3940867 234 88 12
-0.81120634 -1.2384313 -0.98635125 234 88 12
-0.81778932 -1.232142 -0.99358606 234 88 12
-0.83456558 -1.2405697 -1.0219495 234 88 12
-1.064585 -1.310631 -1.3596469 234 88 12
-0.87400013 -1.254187 -1.0877959 234 88 12
-1.092828 -1.3235586 -1.4095716 234 88 12
-0.80656189 -1.2331829 -0.99591196 234 88 12
-0.81104058 -1.2379334 -1.0061355 234 88 12
1.6798728 -1.4224344 -0.45014659 234 88 12
1.6821631 -1.4193903 -0.45014659 234 88 12
1.6860667 -1.4110729 -0.44834888 234 88 12
1.6831902 -1.4039329 -0.44205055 234 88 12
1.6669475 -1.3931378 -0.4234463 234 88 12
1.3982791 -1.2784514 -0.15241194 234 88 12
1.327642 -1.2449261 -0.079215221 234 88 12
1.6637554 -1.4043155 -0.42993689 234 88 12
1.3720845 -1.2708691 -0.13240561 234 88 12
1.3150514 -1.2432785 -0.0733722 234 88 12
1.3994113 -1.3060431 -0.17731217 234 88 12
1.3026297 -1.2655025 -0.081318155 234 88 12
1.3005313 -1.2607925 -0.077063031 234 88 12
1.305259 -1.2548012 -0.077228822 234 88 12
1.338958 -1.2568496 -0.10380609 234 88 12
1.3849363 -1.3036891 -0.16921026 234 88 12
1.3144685 -1.273522 -0.099383496 234 88 12
1.3002657 -1.256428 -0.079099074 234 88 12
1.2996589 -1.2675613 -0.089585572 234 88 12
1.3019221 -1.2645534 -0.089585572 234 88 12
1.6812392 0.49700361 -0.33830103 234 88 12
1.6770288 0.50292248 -0.33760801 234 88 12
1.6782733 0.50961435 -0.34045568 234 88 12
1.6818511 0.49305263 -0.34187081 234 88 12
1.6763781 0.51869202 -0.34655225 234 88 12
1.7590337 0.60507053 -0.42678776 234 88 12
1.669276 0.5168429 -0.34614059 234 88 12
1.7160103 0.52846801 -0.38172174 234 88 12
1.7262559 0.54522973 -0.39290297 234 88 12
1.708679 0.53527677 -0.37947276 234 88 12
1.6860399 0.51502031 -0.35989958 234 88 12
1.8301883 0.67994702 -0.4955239 234 88 12
1.6796385 0.51834273 -0.35713357 234 88 12
1.6708379 0.52437836 -0.35378003 234 88 12
1.9811642 0.8316083 -0.63334417 234 88 12
1.7407124 0.56718141 -0.41211101 234 88 12
1.8056669 0.64915025 -0.4750725 234 88 12
1.9116255 0.77059364 -0.57405543 234 88 12
1.6912575 0.53175199 -0.37236291 234 88 12
1.9581583 0.82245952 -0.61941952 234 88 12
1.6668336 0.51086164 -0.35611349 234 88 12
1.9817795 0.82763696 -0.63693237 234 88 12
1.9809036 0.82932842 -0.63693237 234 88 12
1.6843113 0.52025294 -0.37340406 234 88 12
1.6716682 0.51153934 -0.36350361 234 88 12
1.9812112 0.82734275 -0.63872647 234 88 12
1.6634969 0.50454545 -0.36990204 234 88 12
0.98082238 1.3950951 -0.423356 234 88 12
0.9798798 1.4073489 -0.42920715 234 88 12
0.97393703 1.4137912 -0.43088084 234 88 12
0.96521515 1.4088254 -0.4261657 234 88 12
0.95730776 1.4075992 -0.42351997 234 88 12
0.98263067 1.4045063 -0.43273908 234 88 12
0.97466111 1.4023956 -0.4296644 234 88 12
0.96711236 1.4023986 -0.42773908 234 88 12
0.96794266 1.4210219 -0.43713215 234 88 12
0.95882237 1.414636 -0.43165612 234 88 12
0.95969629 1.4043481 -0.43108413 234 88 12
0.99645334 1.4526471 -0.46796313 234 88 12
0.98383206 1.4438844 -0.46055311 234 88 12
1.0754635 1.8155642 -0.66581291 234 88 12
1.0728123 1.8126695 -0.66376406 234 88 12
1.0608457 1.7705525 -0.64056808 234 88 12
1.0427223 1.6730707 -0.59217042 234 88 12
1.0759387 1.8268315 -0.67352259 234 88 12
1.074528 1.8370657 -0.67804515 234 88 12
0.9667452 1.4209828 -0.45349336 234 88 12
0.9594776 1.4070053 -0.44505152 234 88 12
1.081068 1.8332771 -0.67999053 234 88 12
0.9893381 1.4990262 -0.49995738 234 88 12
1.0807738 1.832709 -0.68178457 234 88 12
1.0790824 1.8335847 -0.68178457 234 88 12
1.0773908 1.8344605 -0.68178457 234 88 12
0.95656669 1.3978994 -0.44851336 234 88 12
-0.14308527 1.5864716 -0.83173507 234 88 12
-0.13608506 1.5369285 -0.79791379 234 88 12
-0.1414481 1.5440657 -0.80317163 234 88 12
-0.11684901 1.5367675 -0.80067343 234 88 12
-0.12102915 1.5380503 -0.80189323 234 88 12
-0.12836069 1.5531847 -0.81259692 234 88 12
-0.13245995 1.5373018 -0.80239946 234 88 12
-0.14005698 1.5367466 -0.8026976 234 88 12
-0.11497982 1.5442164 -0.80997145 234 88 12
-0.13824281 1.5629667 -0.82435888 234 88 12
-0.11877228 1.5431914 -0.81411928 234 88 12
-0.1339245 1.5425168 -0.81498706 234 88 12
-0.12105198 1.5357254 -0.81394601 234 88 12
-0.21751022 1.9241405 -1.0740827 234 88 12
-0.13644713 1.5357623 -0.8152889 234 88 12
-0.16906139 1.7413357 -0.9547447 234 88 12
-0.14686024 1.6312963 -0.88209182 234 88 12
-0.20358109 1.8703136 -1.0406235 234 88 12
-0.13931519 1.5484751 -0.82818836 234 88 12
-0.22610405 1.9267713 -1.0788451 234 88 12
-0.21267799 1.9284497 -1.081094 234 88 12
-0.22632596 1.9275603 -1.0816767 234 88 12
-0.1418712 1.5228156 -0.82093382 234 88 12
-0.21765959 1.9311113 -1.0945206 234 88 12
-0.89634681 0.78892046 -1.2732636 234 88 12
-0.89620811 0.78258413 -1.2685373 234 88 12
-0.88097876 0.7885474 -1.2727815 234 88 12
-0.88887519 0.78031224 -1.2724565 234 88 12
-1.1099846 1.0515029 -1.6242011 234 88 12
-0.88488144 0.79982436 -1.2889365 234 88 12
-0.8869459 0.77835488 -1.2750666 234 88 12
-0.89755267 0.76745385 -1.2747482 234 88 12
-1.1084533 1.0497503 -1.6245688 234 88 12
-1.1103717 1.0491822 -1.6255127 234 88 12
-0.94573903 0.87563598 -1.3903531 234 88 12
-0.89507043 0.80128258 -1.3023202 234 88 12
-0.89774495 0.78685725 -1.2939706 234 88 12
-1.1080456 1.0495356 -1.6268245 234 88 12
-1.1094022 1.0481985 -1.6268245 234 88 12
-0.87172979 0.78438997 -1.2794118 234 88 12
-0.92294562 0.84242934 -1.3556893 234 88 12
-0.91670454 0.82911462 -1.3420068 234 88 12
-1.1016488 1.053899 -1.6281345 234 88 12
-0.89910233 0.78314596 -1.2975013 234 88 12
-0.95907956 0.88801193 -1.4170599 234 88 12
-1.0919055 1.0509816 -1.6220648 234 88 12
-1.0932921 1.0496181 -1.6220671 234 88 12
-0.81017852 -0.35765097 -1.5115418 234 88 12
-1.0310818 -0.26341051 -1.9645849 234 88 12
-1.030619 -0.26719183 -1.9645849 234 88 12
-0.80938226 -0.35253716 -1.5175265 234 88 12
-0.85269946 -0.3491323 -1.6094338 234 88 12
-0.8844949 -0.32619342 -1.6789306 234 88 12
-0.806485 -0.36607528 -1.5238136 234 88 12
-0.80252385 -0.37149972 -1.5168198 234 88 12
-0.80573076 -0.35040528 -1.5270039 234 88 12
-1.025359 -0.26846784 -1.9672284 234 88 12
-0.81458384 -0.34472162 -1.5526894 234 88 12
-0.79810321 -0.35543892 -1.5211413 234 88 12
-0.80799955 -0.36147842 -1.5432612 234 88 12
-1.0241475 -0.26448074 -1.9681132 234 88 12
-0.79405743 -0.35177261 -1.5206101 234 88 12
-0.79546052 -0.35472789 -1.5242449 234 88 12
-0.81052691 -0.33949485 -1.5598185 234 88 12
-0.80814898 -0.343934 -1.5560765 234 88 12
-1.0172479 -0.25665852 -1.9607896 234 88 12
-1.0201123 -0.25901756 -1.967221 234 88 12
-1.0203333 -0.26785183 -1.9698772 234 88 12
-0.87922513 -0.30929592 -1.6993855 234 88 12
-1.0101963 -0.25687551 -1.9510033 234 88 12
-0.99293733 -0.26314971 -1.9224808 234 88 12
-0.78302628 -0.34916553 -1.5320525 234 88 12
-0.068431571 -1.2097224 -1.8843188 234 88 12
-0.058773205 -1.2092037 -1.8852009 234 88 12
0.01045592 -1.1474314 -1.3626983 234 88 12
-0.062599272 -1.1982126 -1.8733339 234 88 12
0.0053790915 -1.1607779 -1.5043879 234 88 12
0.017541349 -1.1425071 -1.3739036 234 88 12
-0.0087894145 -1.1621984 -1.5537121 234 88 12
0.04504475 -1.1449624 -1.3667549 234 88 12
0.0083037503 -1.1366804 -1.3654479 234 88 12
0.015405389 -1.1379113 -1.3682113 234 88 12
0.0073579955 -1.149066 -1.4609735 234 88 12
-0.061583053 -1.1958653 -1.8830565 234 88 12
-0.058818605 -1.1969923 -1.8890827 234 88 12
0.031720199 -1.1494381 -1.4410319 234 88 12
-0.056233227 -1.1923306 -1.8656223 234 88 12
0.046123587 -1.1381404 -1.3688834 234 88 12
0.014748079 -1.1323134 -1.3808172 234 88 12
0.021113863 -1.1369393 -1.4087383 234 88 12
-0.053023186 -1.188598 -1.8495736 234 88 12
0.015524839 -1.1378598 -1.4449154 234 88 12
-0.031081418 -1.1740654 -1.7416549 234 88 12
0.028816408 -1.1373612 -1.4298661 234 88 12
0.03409281 -1.136717 -1.4207317 234 88 12
0.045810442 -1.1321585 -1.3783017 234 88 12
0.031964339 -1.1264999 -1.3759421 234 88 12
0.03544642 -1.1300856 -1.3977748 234 88 12
1.1676196 -1.253857 -1.4497464 234 88 12
1.1693101 -1.2501744 -1.451058 234 88 12
1.1603038 -1.2573441 -1.4523697 234 88 12
1.0078887 -1.1714997 -0.9319005 234 88 12
1.0430624 -1.1828276 -1.0435665 234 88 12
1.0108417 -1.1639881 -0.93321019 234 88 12
1.1712168 -1.2416109 -1.4534533 234 88 12
1.0893241 -1.1997398 -1.1968338 234 88 12
1.0150104 -1.1520847 -0.93875617 234 88 12
1.1678939 -1.2410226 -1.4560574 234 88 12
1.1672028 -1.2366698 -1.4455667 234 88 12
1.0253969 -1.1643084 -0.99673527 234 88 12
1.0132455 -1.1543028 -0.95037627 234 88 12
1.1611589 -1.2332265 -1.4313729 234 88 12
0.9937802 -1.1742007 -0.97163188 234 88 12
1.0929971 -1.2133586 -1.255946 234 88 12
0.99068964 -1.1652616 -0.94707865 234 88 12
0.99334806 -1.1625645 -0.94707865 234 88 12
0.99560046 -1.1596782 -0.94585615 234 88 12
1.1330833 -1.2213885 -1.3549736 234 88 12
1.1223364 -1.213709 -1.3171862 234 88 12
1.0138441 -1.1567216 -0.97748131 234 88 12
0.97494805 -1.1766253 -0.94828731 234 88 12
1.000365 -1.1831069 -1.0132375 234 88 12
0.98927587 -1.1749518 -0.97417772 234 88 12
1.0208343 -1.1631149 -1.0147972 234 88 12
1.0037066 -1.150696 -0.95482379 234 88 12
0.98096436 -1.1703992 -0.95845991 234 88 12
0.97545624 -1.1669853 -0.95096529 234 88 12
0.9901557 -1.1580217 -0.96270055 234 88 12
1.6779867 -0.5258854 -0.58326864 234 88 12
1.6369702 -0.53548098 -0.53534824 234 88 12
1.6374665 -0.53172362 -0.53534824 234 88 12
1.9894021 -0.42709839 -0.94577473 234 88 12
1.8604347 -0.46662021 -0.79759914 234 88 12
1.6606134 -0.50976676 -0.56515539 234 88 12
1.9874654 -0.43452781 -0.94742745 234 88 12
1.9014505 -0.45519388 -0.84837711 234 88 12
1.6377769 -0.53713602 -0.54766506 234 88 12
1.6884968 -0.51762092 -0.60492009 234 88 12
1.6889548 -0.5141539 -0.60492009 234 88 12
1.6508994 -0.51181293 -0.55929291 234 88 12
1.9872751 -0.42873871 -0.94908017 234 88 12
1.7720689 -0.49358079 -0.70499188 234 88 12
1.6812975 -0.51575422 -0.60123056 234 88 12
1.6707596 -0.51558948 -0.58875716 234 88 12
1.6712294 -0.51203358 -0.58875716 234 88 12
1.6529925 -0.51395774 -0.56751561 234 88 12
1.9795909 -0.4271341 -0.94258964 234 88 12
1.8626344 -0.45933443 -0.81036735 234 88 12
1.9653738 -0.42395219 -0.92541683 234 88 12
1.6335683 -0.51885629 -0.55085295 234 88 12
1.638869 -0.51295865 -0.56160861 234 88 12
1.9642648 -0.42918631 -0.93079346 234 88 12
1.6261432 -0.53027844 -0.5549503 234 88 12
1.6416847 -0.52826554 -0.57798129 234 88 12
1.6719444 -0.51556289 -0.61083227 234 88 12
1.6319478 -0.51697356 -0.56507528 234 88 12
1.6398627 -0.52802485 -0.5811891 234 88 12
1.627452 -0.52825916 -0.56705743 234 88 12
1.6249959 -0.52180213 -0.56327993 234 88 12
1.9813887 -0.42988443 -0.95899165 234 88 12
1.9808424 -0.42825159 -0.95812762 234 88 12
1.6152211 -0.53674215 -0.57076442 234 88 12
1.148612 0.76882559 -1.1029992 234 88 12
1.1420249 0.7711252 -1.0994477 234 88 12
1.1382475 0.77121049 -1.0963894 234 88 12
1.1663052 0.83872283 -1.1807276 234 88 12
1.1520599 0.79952598 -1.1422608 234 88 12
1.1884003 0.89193684 -1.2472999 234 88 12
1.1358744 0.77925634 -1.1125195 234 88 12
1.1596106 0.80281949 -1.1564637 234 88 12
1.1912555 0.88613617 -1.2495422 234 88 12
1.2702879 1.0824683 -1.4724909 234 88 12
1.1198095 0.78005642 -1.1058087 234 88 12
1.2744193 1.0750347 -1.4727575 234 88 12
1.2623693 1.0655038 -1.4554168 234 88 12
1.1281396 0.76628917 -1.1071377 234 88 12
1.2777199 1.0797299 -1.4820508 234 88 12
1.2707831 1.0769658 -1.474315 234 88 12
1.2707038 1.0858201 -1.4813124 234 88 12
1.1210356 0.7700035 -1.1101214 234 88 12
1.2781501 1.0774665 -1.4834464 234 88 12
1.1342696 0.77613288 -1.1311083 234 88 12
1.119212 0.76817989 -1.112898 234 88 12
1.1246946 0.76535881 -1.1206294 234 88 12
1.1589388 0.84961432 -1.2136989 234 88 12
1.2713596 1.0787572 -1.4876332 234 88 12
0.065783605 0.88567173 -1.496248 234 88 12
0.060662579 0.89178133 -1.5046855 234 88 12
0.056917366 0.89161849 -1.5046855 234 88 12
0.047900587 0.89917707 -1.5152794 234 88 12
0.043360651 0.88308793 -1.4941043 234 88 12
0.067876376 0.89079899 -1.5091729 234 88 12
0.057862375 0.8845405 -1.5014747 234 88 12
0.055524677 0.9111219 -1.5426823 234 88 12
0.053260371 0.90452331 -1.5341564 234 88 12
0.059238955 0.90826666 -1.5446268 234 88 12
0.054356996 0.89674878 -1.5299139 234 88 12
0.070341155 0.87212634 -1.5031774 234 88 12
0.06499134 0.879188 -1.5125961 234 88 12
0.00069228414 1.1682757 -1.8894895 234 88 12
-0.0011218664 1.1675754 -1.888687 234 88 12
-0.0011795575 1.1579078 -1.8762071 234 88 12
0.04899152 0.88386488 -1.5195334 234 88 12
0.042756218 0.87684768 -1.5108224 234 88 12
0.04019003 0.86975724 -1.501811 234 88 12
0.0050631477 1.1649077 -1.8880749 234 88 12
-0.0040821172 1.1714116 -1.8969172 234 88 12
0.048530255 0.88389194 -1.5256134 234 88 12
0.0016921093 1.1701562 -1.8980806 234 88 12
0.038123824 0.8771407 -1.5235633 234 88 12
0.0016579025 1.1677684 -1.9011854 234 88 12
-0.00024506156 1.1676856 -1.9011854 234 88 12
0.12666887 -0.24010369 -1.7374454 234 88 12
0.11767796 -0.23722383 -1.7493503 234 88 12
0.11089525 -0.23870674 -1.7432202 234 88 12
0.10025837 -0.24024175 -1.7368747 234 88 12
0.067922339 -0.13077584 -2.1977727 234 88 12
0.11656938 -0.23134537 -1.7884781 234 88 12
0.10420034 -0.22782786 -1.8027936 234 88 12
0.065145336 -0.12737371 -2.2195327 234 88 12
0.060692977 -0.13034065 -2.2076423 234 88 12
0.13092752 -0.25236753 -1.7338123 234 88 12
0.058511917 -0.12757516 -2.2264137 234 88 12
0.1070099 -0.2412257 -1.7777933 234 88 12
0.10802232 -0.2520521 -1.7350575 234 88 12
0.10042375 -0.25200674 -1.7352365 234 88 12
0.075234346 -0.14719763 -2.1575646 234 88 12
0.093675919 -0.23860846 -1.8020781 234 88 12
0.10166605 -0.25324088 -1.7595513 234 88 12
0.064272672 -0.13334182 -2.2263708 234 88 12
0.056497406 -0.15398313 -2.1484091 234 88 12
0.058095239 -0.13428572 -2.23 234 88 12
1.1583892 -0.32919368 -1.3090134 234 88 12
1.1608673 -0.31989264 -1.3156281 234 88 12
1.1870515 -0.30956933 -1.4087261 234 88 12
1.2268754 -0.27323753 -1.5292182 234 88 12
1.1775256 -0.3107883 -1.3788812 234 88 12
1.1728677 -0.30768916 -1.3637811 234 88 12
1.3139374 -0.2106059 -1.8010156 234 88 12
1.3141029 -0.20679998 -1.8010156 234 88 12
1.1774207 -0.30497417 -1.3889171 234 88 12
1.1539314 -0.31646156 -1.317368 234 88 12
1.168362 -0.30177373 -1.3602914 234 88 12
1.1501071 -0.31682831 -1.3174632 234 88 12
1.1594493 -0.30609885 -1.3447524 234 88 12
1.3056175 -0.19786802 -1.785858 234 88 12
1.2228142 -0.25896001 -1.5423939 234 88 12
1.1545823 -0.31193429 -1.3534483 234 88 12
1.1547412 -0.30828059 -1.3534483 234 88 12
1.3075414 -0.21032782 -1.8051463 234 88 12
1.3077068 -0.20652188 -1.8051463 234 88 12
1.2994429 -0.20375901 -1.780278 234 88 12
1.1443688 -0.32543793 -1.3472288 234 88 12
1.1384436 -0.32643333 -1.3299866 234 88 12
1.1364245 -0.32066917 -1.3233336 234 88 12
1.1396472 -0.31099048 -1.3315468 234 88 12
1.1412653 -0.32530302 -1.349233 234 88 12
1.1352835 -0.32629594 -1.3320273 234 88 12
1.1363596 -0.31458563 -1.3336699 234 88 12
