ply
format ascii 1.0
element vertex 1725
property float x
property float y
property float z
property uchar red
property uchar green
property uchar blue
end_header
0.81245917 -1.1702278 1.7422532 234 88 12
0.8147853 -1.1698743 1.7409414 234 88 12
0.81730694 -1.175146 1.7356946 234 88 12
0.81827646 -1.1761296 1.734383 234 88 12
0.82098961 -1.1734554 1.734383 234 88 12
0.82777238 -1.1667697 1.734383 234 88 12
0.83552468 -1.1610678 1.7330713 234 88 12
0.84153348 -1.1590238 1.7304479 234 88 12
0.82758093 -1.1747158 1.7291362 234 88 12
0.84114647 -1.1613445 1.7291362 234 88 12
1.6785035 -0.37046573 1.4372475 234 88 12
1.6859428 -0.3253608 1.4372475 234 88 12
1.6879476 -0.31989998 1.4356852 234 88 12
1.6818933 -0.36330283 1.4341228 234 88 12
1.6825134 -0.3595441 1.4341228 234 88 12
1.6886928 -0.33546686 1.430998 234 88 12
1.6852634 -0.36965016 1.4278731 234 88 12
1.6868132 -0.36025327 1.4278731 234 88 12
1.689603 -0.34333894 1.4278731 234 88 12
1.6914628 -0.33206272 1.4278731 234 88 12
1.6951427 -0.33653066 1.4216236 234 88 12
1.6957626 -0.3327719 1.4216236 234 88 12
1.695123 -0.35004085 1.4184988 234 88 12
1.6977279 -0.35433146 1.4138116 234 88 12
1.6989678 -0.34681398 1.4138116 234 88 12
1.7011375 -0.3336584 1.4138116 234 88 12
1.7085174 -0.32908407 1.4044372 234 88 12
1.7083524 -0.33677885 1.4028747 234 88 12
1.7094275 -0.33695614 1.4013124 234 88 12
1.7100474 -0.33319739 1.4013124 234 88 12
1.7122172 -0.32004181 1.4013124 234 88 12
0.8995105 1.1917813 1.683862 234 88 12
0.89369518 1.1994346 1.6824695 234 88 12
0.90269542 1.1922725 1.6810771 234 88 12
0.89553326 1.2012727 1.6796846 234 88 12
0.90820968 1.1977867 1.6727226 234 88 12
0.88580412 1.2238685 1.6699377 234 88 12
0.90961993 1.2018907 1.6685452 234 88 12
0.91053897 1.2028098 1.6671528 234 88 12
0.90649837 1.2068504 1.6671528 234 88 12
0.89841712 1.2149316 1.6671528 234 88 12
0.89302963 1.220319 1.6671528 234 88 12
0.88494843 1.2284003 1.6671528 234 88 12
0.90931886 1.2150583 1.6587982 234 88 12
0.89811605 1.2280992 1.6574059 234 88 12
0.91881031 1.2110811 1.654621 234 88 12
0.91476971 1.2151217 1.654621 234 88 12
0.90668851 1.2232029 1.654621 234 88 12
0.9035669 1.2281626 1.6532285 234 88 12
0.92156744 1.2138382 1.6504437 234 88 12
0.9211396 1.2161041 1.6490513 234 88 12
0.9090178 1.2282259 1.6490513 234 88 12
0.92396009 1.2243121 1.6406968 234 88 12
0.91991949 1.2283528 1.6406968 234 88 12
0.92218542 1.2279249 1.6393043 234 88 12
0.9173525 1.2419481 1.6323421 234 88 12
0.92953771 1.2352772 1.6281649 234 88 12
0.92280334 1.2420115 1.6281649 234 88 12
0.92010963 1.2447053 1.6281649 234 88 12
-2.2287858 0.12055109 0.32990989 234 88 12
-2.2286811 0.11864921 0.32990989 234 88 12
-2.2279484 0.10533603 0.32990989 234 88 12
-2.2272155 0.092022836 0.32990989 234 88 12
-2.2264829 0.078709655 0.32990989 234 88 12
-2.22575 0.065396473 0.32990989 234 88 12
-2.2250173 0.052083291 0.32990989 234 88 12
-2.2242844 0.038770109 0.32990989 234 88 12
-2.2235518 0.025456926 0.32990989 234 88 12
-2.2228191 0.012143743 0.32990989 234 88 12
-2.2220862 -0.0011694394 0.32990989 234 88 12
-2.2213535 -0.014482622 0.32990989 234 88 12
-2.2206206 -0.027795805 0.32990989 234 88 12
-2.219888 -0.041108988 0.32990989 234 88 12
-2.2191551 -0.05442217 0.32990989 234 88 12
-2.2184224 -0.067735352 0.32990989 234 88 12
-2.2176895 -0.081048533 0.32990989 234 88 12
-2.2169569 -0.094361715 0.32990989 234 88 12
-2.2162242 -0.1076749 0.32990989 234 88 12
-2.2154913 -0.12098809 0.32990989 234 88 12
-2.2147586 -0.13430126 0.32990989 234 88 12
-2.2140257 -0.14761445 0.32990989 234 88 12
-2.2132931 -0.16092764 0.32990989 234 88 12
-2.2125602 -0.17424081 0.32990989 234 88 12
-2.2118275 -0.187554 0.32990989 234 88 12
-2.2110949 -0.20086718 0.32990989 234 88 12
-2.210362 -0.21418037 0.32990989 234 88 12
-2.2096293 -0.22749354 0.32990989 234 88 12
-2.2088964 -0.24080673 0.32990989 234 88 12
-2.2081637 -0.2541199 0.32990989 234 88 12
-2.2074308 -0.26743311 0.32990989 234 88 12
-2.2066982 -0.28074628 0.32990989 234 88 12
-2.2059653 -0.29405946 0.32990989 234 88 12
-2.2052326 -0.30737263 0.32990989 234 88 12
-2.2045 -0.32068583 0.32990989 234 88 12
-2.2037671 -0.33399901 0.32990989 234 88 12
-2.2030344 -0.34731218 0.32990989 234 88 12
-2.2023015 -0.36062539 0.32990989 234 88 12
-2.2020922 -0.36442915 0.32990989 234 88 12
-2.2288601 0.12054699 0.3280066 234 88 12
-2.2155657 -0.12099218 0.3280066 234 88 12
-2.2289042 0.11863692 0.32419997 234 88 12
-2.2292323 0.12052651 0.31849006 234 88 12
-2.2291274 0.11862464 0.31849006 234 88 12
-2.2288134 0.11291898 0.31849006 234 88 12
-2.2283947 0.10531145 0.31849006 234 88 12
-2.2276621 0.091998272 0.31849006 234 88 12
-2.2269292 0.078685082 0.31849006 234 88 12
-2.2261965 0.065371901 0.31849006 234 88 12
-2.2254636 0.052058719 0.31849006 234 88 12
-2.224731 0.038745537 0.31849006 234 88 12
-2.2239981 0.025432356 0.31849006 234 88 12
-2.2232654 0.012119172 0.31849006 234 88 12
-2.2225327 -0.0011940104 0.31849006 234 88 12
-2.2217999 -0.014507193 0.31849006 234 88 12
-2.2210672 -0.027820375 0.31849006 234 88 12
-2.2203343 -0.04113356 0.31849006 234 88 12
-2.2196016 -0.054446742 0.31849006 234 88 12
-2.2188687 -0.067759924 0.31849006 234 88 12
-2.2181361 -0.081073105 0.31849006 234 88 12
-2.2174032 -0.094386287 0.31849006 234 88 12
-2.2166705 -0.10769947 0.31849006 234 88 12
-2.2159379 -0.12101266 0.31849006 234 88 12
-2.2154143 -0.13052207 0.31849006 234 88 12
-2.215205 -0.13432583 0.31849006 234 88 12
-2.2144723 -0.14763902 0.31849006 234 88 12
-2.2137394 -0.1609522 0.31849006 234 88 12
-2.2130067 -0.17426538 0.31849006 234 88 12
-2.2122738 -0.18757857 0.31849006 234 88 12
-2.2115412 -0.20089175 0.31849006 234 88 12
-2.2108083 -0.21420494 0.31849006 234 88 12
-2.2100756 -0.22751811 0.31849006 234 88 12
-2.209343 -0.2408313 0.31849006 234 88 12
-2.2086101 -0.25414449 0.31849006 234 88 12
-2.2078774 -0.26745766 0.31849006 234 88 12
-2.2071445 -0.28077084 0.31849006 234 88 12
-2.2064118 -0.29408404 0.31849006 234 88 12
-2.2056789 -0.30739722 0.31849006 234 88 12
-2.2049463 -0.32071039 0.31849006 234 88 12
-2.2042136 -0.33402357 0.31849006 234 88 12
-2.2034807 -0.34733677 0.31849006 234 88 12
-2.2027481 -0.36064994 0.31849006 234 88 12
-2.2155025 -0.13434222 0.31087685 234 88 12
-2.229753 0.12049785 0.30516693 234 88 12
-2.2296484 0.11859597 0.30516693 234 88 12
-2.2289157 0.10528278 0.30516693 234 88 12
-2.2288108 0.1033809 0.30516693 234 88 12
-2.2281828 0.091969602 0.30516693 234 88 12
-2.2274501 0.07865642 0.30516693 234 88 12
-2.2267172 0.065343238 0.30516693 234 88 12
-2.2259846 0.052030053 0.30516693 234 88 12
-2.2252517 0.038716871 0.30516693 234 88 12
-2.224519 0.02540369 0.30516693 234 88 12
-2.2237861 0.012090506 0.30516693 234 88 12
-2.2230535 -0.0012226765 0.30516693 234 88 12
-2.2223208 -0.014535859 0.30516693 234 88 12
-2.2215879 -0.027849041 0.30516693 234 88 12
-2.2208552 -0.041162226 0.30516693 234 88 12
-2.2201223 -0.054475408 0.30516693 234 88 12
-2.2193897 -0.067788593 0.30516693 234 88 12
-2.2186568 -0.081101775 0.30516693 234 88 12
-2.2179241 -0.094414957 0.30516693 234 88 12
-2.2171912 -0.10772814 0.30516693 234 88 12
-2.2164586 -0.12104132 0.30516693 234 88 12
-2.2157259 -0.1343545 0.30516693 234 88 12
-2.2154117 -0.14006016 0.30516693 234 88 12
-2.214993 -0.14766769 0.30516693 234 88 12
-2.2142603 -0.16098087 0.30516693 234 88 12
-2.2135274 -0.17429405 0.30516693 234 88 12
-2.2127948 -0.18760723 0.30516693 234 88 12
-2.2120619 -0.20092042 0.30516693 234 88 12
-2.2113292 -0.21423359 0.30516693 234 88 12
-2.2105966 -0.22754678 0.30516693 234 88 12
-2.2098637 -0.24085997 0.30516693 234 88 12
-2.209131 -0.25417316 0.30516693 234 88 12
-2.2083981 -0.26748633 0.30516693 234 88 12
-2.2076654 -0.28079951 0.30516693 234 88 12
-2.2069325 -0.29411268 0.30516693 234 88 12
-2.2061999 -0.30742589 0.30516693 234 88 12
-2.205467 -0.32073906 0.30516693 234 88 12
-2.2047343 -0.33405223 0.30516693 234 88 12
-2.2040017 -0.34736544 0.30516693 234 88 12
-2.2032688 -0.36067861 0.30516693 234 88 12
-2.2302737 0.12046918 0.2918438 234 88 12
-2.2301691 0.1185673 0.2918438 234 88 12
-2.2294364 0.10525412 0.2918438 234 88 12
-2.2288084 0.093842819 0.2918438 234 88 12
-2.2287037 0.091940939 0.2918438 234 88 12
-2.2279708 0.07862775 0.2918438 234 88 12
-2.2272382 0.065314569 0.2918438 234 88 12
-2.2265053 0.052001387 0.2918438 234 88 12
-2.2257726 0.038688205 0.2918438 234 88 12
-2.2250397 0.025375023 0.2918438 234 88 12
-2.2243071 0.01206184 0.2918438 234 88 12
-2.2235742 -0.0012513426 0.2918438 234 88 12
-2.2228415 -0.014564525 0.2918438 234 88 12
-2.2221088 -0.027877707 0.2918438 234 88 12
-2.2213759 -0.041190892 0.2918438 234 88 12
-2.2206433 -0.054504074 0.2918438 234 88 12
-2.2199104 -0.067817256 0.2918438 234 88 12
-2.2191777 -0.081130438 0.2918438 234 88 12
-2.2184448 -0.094443619 0.2918438 234 88 12
-2.2177122 -0.1077568 0.2918438 234 88 12
-2.2169795 -0.12106999 0.2918438 234 88 12
-2.2162466 -0.13438317 0.2918438 234 88 12
-2.2155139 -0.14769635 0.2918438 234 88 12
-2.2154093 -0.14959824 0.2918438 234 88 12
-2.214781 -0.16100954 0.2918438 234 88 12
-2.2140484 -0.17432272 0.2918438 234 88 12
-2.2133155 -0.1876359 0.2918438 234 88 12
-2.2125828 -0.20094909 0.2918438 234 88 12
-2.2118499 -0.21426226 0.2918438 234 88 12
-2.2111173 -0.22757545 0.2918438 234 88 12
-2.2103846 -0.24088863 0.2918438 234 88 12
-2.2096517 -0.2542018 0.2918438 234 88 12
-2.208919 -0.267515 0.2918438 234 88 12
-2.2081861 -0.28082818 0.2918438 234 88 12
-2.2074535 -0.29414135 0.2918438 234 88 12
-2.2067206 -0.30745456 0.2918438 234 88 12
-2.2059879 -0.32076773 0.2918438 234 88 12
-2.205255 -0.3340809 0.2918438 234 88 12
-2.2045224 -0.34739408 0.2918438 234 88 12
-2.2037897 -0.36070728 0.2918438 234 88 12
-2.2288525 0.091932744 0.28803721 234 88 12
-2.2307947 0.12044052 0.27852067 234 88 12
-2.23069 0.11853863 0.27852067 234 88 12
-2.2299571 0.10522545 0.27852067 234 88 12
-2.2292244 0.09191227 0.27852067 234 88 12
-2.2288058 0.084304735 0.27852067 234 88 12
-2.2284918 0.078599088 0.27852067 234 88 12
-2.2277589 0.065285906 0.27852067 234 88 12
-2.2270262 0.051972721 0.27852067 234 88 12
-2.2262933 0.038659539 0.27852067 234 88 12
-2.2255607 0.025346357 0.27852067 234 88 12
-2.2248278 0.012033174 0.27852067 234 88 12
-2.2240951 -0.0012800087 0.27852067 234 88 12
-2.2233622 -0.014593191 0.27852067 234 88 12
-2.2226295 -0.027906373 0.27852067 234 88 12
-2.2218969 -0.041219559 0.27852067 234 88 12
-2.221164 -0.05453274 0.27852067 234 88 12
-2.2204313 -0.067845926 0.27852067 234 88 12
-2.2196984 -0.081159107 0.27852067 234 88 12
-2.2189658 -0.094472289 0.27852067 234 88 12
-2.2182329 -0.10778547 0.27852067 234 88 12
-2.2175002 -0.12109865 0.27852067 234 88 12
-2.2167675 -0.13441184 0.27852067 234 88 12
-2.2160347 -0.14772502 0.27852067 234 88 12
-2.2154067 -0.15913631 0.27852067 234 88 12
-2.215302 -0.16103821 0.27852067 234 88 12
-2.2145691 -0.17435138 0.27852067 234 88 12
-2.2138364 -0.18766457 0.27852067 234 88 12
-2.2131035 -0.20097774 0.27852067 234 88 12
-2.2123709 -0.21429093 0.27852067 234 88 12
-2.211638 -0.22760412 0.27852067 234 88 12
-2.2109053 -0.2409173 0.27852067 234 88 12
-2.2101727 -0.25423047 0.27852067 234 88 12
-2.2094398 -0.26754367 0.27852067 234 88 12
-2.2087071 -0.28085685 0.27852067 234 88 12
-2.2079742 -0.29417002 0.27852067 234 88 12
-2.2072415 -0.3074832 0.27852067 234 88 12
-2.2065086 -0.3207964 0.27852067 234 88 12
-2.205776 -0.33410957 0.27852067 234 88 12
-2.2050431 -0.34742275 0.27852067 234 88 12
-2.2043104 -0.36073595 0.27852067 234 88 12
-2.2155252 -0.16105048 0.27281076 234 88 12
-2.2288637 0.078578614 0.26900417 234 88 12
-2.2313154 0.12041185 0.26519755 234 88 12
-2.2312107 0.11850997 0.26519755 234 88 12
-2.230478 0.10519679 0.26519755 234 88 12
-2.2297451 0.091883607 0.26519755 234 88 12
-2.2290125 0.078570418 0.26519755 234 88 12
-2.2288032 0.074766658 0.26519755 234 88 12
-2.2282798 0.065257236 0.26519755 234 88 12
-2.2275469 0.051944055 0.26519755 234 88 12
-2.2268143 0.038630873 0.26519755 234 88 12
-2.2260814 0.025317691 0.26519755 234 88 12
-2.2253487 0.012004508 0.26519755 234 88 12
-2.2246158 -0.0013086748 0.26519755 234 88 12
-2.2238832 -0.014621858 0.26519755 234 88 12
-2.2231505 -0.027935039 0.26519755 234 88 12
-2.2224176 -0.041248225 0.26519755 234 88 12
-2.2216849 -0.054561406 0.26519755 234 88 12
-2.220952 -0.067874588 0.26519755 234 88 12
-2.2202194 -0.08118777 0.26519755 234 88 12
-2.2194865 -0.094500951 0.26519755 234 88 12
-2.2187538 -0.10781413 0.26519755 234 88 12
-2.2180209 -0.12112732 0.26519755 234 88 12
-2.2172883 -0.1344405 0.26519755 234 88 12
-2.2165556 -0.14775369 0.26519755 234 88 12
-2.2158227 -0.16106686 0.26519755 234 88 12
-2.215404 -0.16867439 0.26519755 234 88 12
-2.21509 -0.17438005 0.26519755 234 88 12
-2.2143571 -0.18769324 0.26519755 234 88 12
-2.2136245 -0.20100641 0.26519755 234 88 12
-2.2128916 -0.2143196 0.26519755 234 88 12
-2.2121589 -0.22763278 0.26519755 234 88 12
-2.211426 -0.24094597 0.26519755 234 88 12
-2.2106934 -0.25425914 0.26519755 234 88 12
-2.2099607 -0.26757231 0.26519755 234 88 12
-2.2092278 -0.28088552 0.26519755 234 88 12
-2.2084951 -0.29419869 0.26519755 234 88 12
-2.2077622 -0.30751187 0.26519755 234 88 12
-2.2070296 -0.32082507 0.26519755 234 88 12
-2.2062967 -0.33413824 0.26519755 234 88 12
-2.205564 -0.34745142 0.26519755 234 88 12
-2.2048314 -0.36076459 0.26519755 234 88 12
-2.2155364 -0.17440462 0.25377774 234 88 12
-2.2318363 0.12038319 0.25187442 234 88 12
-2.2317317 0.1184813 0.25187442 234 88 12
-2.2309988 0.10516812 0.25187442 234 88 12
-2.2302661 0.091854937 0.25187442 234 88 12
-2.2295334 0.078541756 0.25187442 234 88 12
-2.2288005 0.065228574 0.25187442 234 88 12
-2.2280679 0.051915389 0.25187442 234 88 12
-2.227335 0.038602207 0.25187442 234 88 12
-2.2266023 0.025289025 0.25187442 234 88 12
-2.2258694 0.011975842 0.25187442 234 88 12
-2.2251368 -0.0013373409 0.25187442 234 88 12
-2.2244039 -0.014650524 0.25187442 234 88 12
-2.2236712 -0.027963707 0.25187442 234 88 12
-2.2229385 -0.041276891 0.25187442 234 88 12
-2.2222056 -0.054590072 0.25187442 234 88 12
-2.221473 -0.067903258 0.25187442 234 88 12
-2.2207401 -0.08121644 0.25187442 234 88 12
-2.2200074 -0.094529621 0.25187442 234 88 12
-2.2192745 -0.1078428 0.25187442 234 88 12
-2.2185419 -0.12115598 0.25187442 234 88 12
-2.217809 -0.13446917 0.25187442 234 88 12
-2.2170763 -0.14778236 0.25187442 234 88 12
-2.2163436 -0.16109553 0.25187442 234 88 12
-2.2156107 -0.17440872 0.25187442 234 88 12
-2.2154014 -0.17821248 0.25187442 234 88 12
-2.2148781 -0.18772189 0.25187442 234 88 12
-2.2141452 -0.20103508 0.25187442 234 88 12
-2.2134125 -0.21434826 0.25187442 234 88 12
-2.2126796 -0.22766145 0.25187442 234 88 12
-2.211947 -0.24097463 0.25187442 234 88 12
-2.2112143 -0.25428781 0.25187442 234 88 12
-2.2104814 -0.26760098 0.25187442 234 88 12
-2.2097487 -0.28091419 0.25187442 234 88 12
-2.2090158 -0.29422736 0.25187442 234 88 12
-2.2082832 -0.30754054 0.25187442 234 88 12
-2.2075503 -0.32085374 0.25187442 234 88 12
-2.2068176 -0.33416691 0.25187442 234 88 12
-2.2060847 -0.34748009 0.25187442 234 88 12
-2.2053521 -0.36079326 0.25187442 234 88 12
-2.2288749 0.065224476 0.24997112 234 88 12
-2.232357 0.12035452 0.2385513 234 88 12
-2.2322524 0.11845264 0.2385513 234 88 12
-2.2315197 0.10513946 0.2385513 234 88 12
-2.2307868 0.091826275 0.2385513 234 88 12
-2.2300541 0.078513086 0.2385513 234 88 12
-2.2293215 0.065199904 0.2385513 234 88 12
-2.2287979 0.05569049 0.2385513 234 88 12
-2.2285886 0.051886722 0.2385513 234 88 12
-2.2278559 0.038573541 0.2385513 234 88 12
-2.227123 0.025260359 0.2385513 234 88 12
-2.2263904 0.011947175 0.2385513 234 88 12
-2.2256575 -0.001366007 0.2385513 234 88 12
-2.2249248 -0.01467919 0.2385513 234 88 12
-2.2241919 -0.027992373 0.2385513 234 88 12
-2.2234592 -0.041305557 0.2385513 234 88 12
-2.2227266 -0.054618739 0.2385513 234 88 12
-2.2219937 -0.06793192 0.2385513 234 88 12
-2.221261 -0.081245102 0.2385513 234 88 12
-2.2205281 -0.094558284 0.2385513 234 88 12
-2.2197955 -0.10787147 0.2385513 234 88 12
-2.2190626 -0.12118465 0.2385513 234 88 12
-2.2183299 -0.13449784 0.2385513 234 88 12
-2.217597 -0.14781101 0.2385513 234 88 12
-2.2168643 -0.1611242 0.2385513 234 88 12
-2.2161317 -0.17443739 0.2385513 234 88 12
-2.2153988 -0.18775056 0.2385513 234 88 12
-2.2146661 -0.20106375 0.2385513 234 88 12
-2.2139332 -0.21437693 0.2385513 234 88 12
-2.2132006 -0.22769012 0.2385513 234 88 12
-2.2124677 -0.24100329 0.2385513 234 88 12
-2.211735 -0.25431648 0.2385513 234 88 12
-2.2110023 -0.26762965 0.2385513 234 88 12
-2.2102695 -0.28094286 0.2385513 234 88 12
-2.2095368 -0.29425603 0.2385513 234 88 12
-2.2088039 -0.30756921 0.2385513 234 88 12
-2.2080712 -0.32088238 0.2385513 234 88 12
-2.2073383 -0.33419558 0.2385513 234 88 12
-2.2066057 -0.34750876 0.2385513 234 88 12
-2.2058728 -0.36082193 0.2385513 234 88 12
-2.2155476 -0.18775876 0.2347447 234 88 12
-2.2288861 0.051870342 0.23093809 234 88 12
-2.232878 0.12032586 0.22522818 234 88 12
-2.2327733 0.11842397 0.22522818 234 88 12
-2.2320404 0.10511079 0.22522818 234 88 12
-2.2313077 0.091797605 0.22522818 234 88 12
-2.2305748 0.078484423 0.22522818 234 88 12
-2.2298422 0.065171242 0.22522818 234 88 12
-2.2291095 0.051858056 0.22522818 234 88 12
-2.2287953 0.046152409 0.22522818 234 88 12
-2.2283766 0.038544875 0.22522818 234 88 12
-2.227644 0.025231693 0.22522818 234 88 12
-2.2269111 0.011918509 0.22522818 234 88 12
-2.2261784 -0.0013946731 0.22522818 234 88 12
-2.2254455 -0.014707856 0.22522818 234 88 12
-2.2247128 -0.028021039 0.22522818 234 88 12
-2.2239799 -0.041334223 0.22522818 234 88 12
-2.2232473 -0.054647405 0.22522818 234 88 12
-2.2225146 -0.06796059 0.22522818 234 88 12
-2.2217817 -0.081273772 0.22522818 234 88 12
-2.2210491 -0.094586954 0.22522818 234 88 12
-2.2203162 -0.10790014 0.22522818 234 88 12
-2.2195835 -0.12121332 0.22522818 234 88 12
-2.2188506 -0.13452651 0.22522818 234 88 12
-2.218118 -0.14783968 0.22522818 234 88 12
-2.2173853 -0.16115287 0.22522818 234 88 12
-2.2166524 -0.17446604 0.22522818 234 88 12
-2.2159197 -0.18777923 0.22522818 234 88 12
-2.2155008 -0.19538677 0.22522818 234 88 12
-2.2151868 -0.20109241 0.22522818 234 88 12
-2.2144542 -0.2144056 0.22522818 234 88 12
-2.2137213 -0.22771879 0.22522818 234 88 12
-2.2129886 -0.24103196 0.22522818 234 88 12
-2.2122557 -0.25434515 0.22522818 234 88 12
-2.2115231 -0.26765832 0.22522818 234 88 12
-2.2107904 -0.2809715 0.22522818 234 88 12
-2.2100575 -0.2942847 0.22522818 234 88 12
-2.2093248 -0.30759788 0.22522818 234 88 12
-2.2085919 -0.32091105 0.22522818 234 88 12
-2.2078593 -0.33422425 0.22522818 234 88 12
-2.2071264 -0.34753743 0.22522818 234 88 12
-2.2063937 -0.3608506 0.22522818 234 88 12
-2.215559 -0.2011129 0.21571165 234 88 12
-2.2333987 0.12029719 0.21190505 234 88 12
-2.233294 0.11839531 0.21190505 234 88 12
-2.2325613 0.10508212 0.21190505 234 88 12
-2.2318285 0.091768943 0.21190505 234 88 12
-2.2310958 0.078455754 0.21190505 234 88 12
-2.2303629 0.065142572 0.21190505 234 88 12
-2.2296302 0.05182939 0.21190505 234 88 12
-2.2288976 0.038516209 0.21190505 234 88 12
-2.2287929 0.036614325 0.21190505 234 88 12
-2.2281647 0.025203027 0.21190505 234 88 12
-2.227432 0.011889843 0.21190505 234 88 12
-2.2266991 -0.0014233392 0.21190505 234 88 12
-2.2259665 -0.014736522 0.21190505 234 88 12
-2.2252336 -0.028049706 0.21190505 234 88 12
-2.2245009 -0.041362889 0.21190505 234 88 12
-2.2237682 -0.054676071 0.21190505 234 88 12
-2.2230353 -0.067989253 0.21190505 234 88 12
-2.2223027 -0.081302434 0.21190505 234 88 12
-2.2215698 -0.094615616 0.21190505 234 88 12
-2.2208371 -0.1079288 0.21190505 234 88 12
-2.2201042 -0.12124199 0.21190505 234 88 12
-2.2193716 -0.13455516 0.21190505 234 88 12
-2.2186387 -0.14786835 0.21190505 234 88 12
-2.217906 -0.16118152 0.21190505 234 88 12
-2.2171733 -0.17449471 0.21190505 234 88 12
-2.2164404 -0.1878079 0.21190505 234 88 12
-2.2157078 -0.20112108 0.21190505 234 88 12
-2.2154984 -0.20492485 0.21190505 234 88 12
-2.2149749 -0.21443427 0.21190505 234 88 12
-2.2142422 -0.22774744 0.21190505 234 88 12
-2.2135093 -0.24106063 0.21190505 234 88 12
-2.2127767 -0.25437382 0.21190505 234 88 12
-2.2120438 -0.26768699 0.21190505 234 88 12
-2.2113111 -0.28100017 0.21190505 234 88 12
-2.2105784 -0.29431337 0.21190505 234 88 12
-2.2098455 -0.30762655 0.21190505 234 88 12
-2.2091129 -0.32093972 0.21190505 234 88 12
-2.20838 -0.33425289 0.21190505 234 88 12
-2.2076473 -0.3475661 0.21190505 234 88 12
-2.2069144 -0.36087927 0.21190505 234 88 12
-2.2339196 0.12026852 0.19858192 234 88 12
-2.233815 0.11836664 0.19858192 234 88 12
-2.2330821 0.10505345 0.19858192 234 88 12
-2.2323494 0.091740273 0.19858192 234 88 12
-2.2316165 0.078427091 0.19858192 234 88 12
-2.2308838 0.06511391 0.19858192 234 88 12
-2.2301512 0.051800724 0.19858192 234 88 12
-2.2294183 0.038487542 0.19858192 234 88 12
-2.2287903 0.027076242 0.19858192 234 88 12
-2.2286856 0.025174361 0.19858192 234 88 12
-2.2279527 0.011861177 0.19858192 234 88 12
-2.2272201 -0.0014520055 0.19858192 234 88 12
-2.2264872 -0.014765188 0.19858192 234 88 12
-2.2257545 -0.028078372 0.19858192 234 88 12
-2.2250216 -0.041391555 0.19858192 234 88 12
-2.2242889 -0.054704737 0.19858192 234 88 12
-2.2235563 -0.068017922 0.19858192 234 88 12
-2.2228234 -0.081331104 0.19858192 234 88 12
-2.2220907 -0.094644286 0.19858192 234 88 12
-2.2213578 -0.10795747 0.19858192 234 88 12
-2.2206252 -0.12127065 0.19858192 234 88 12
-2.2198923 -0.13458383 0.19858192 234 88 12
-2.2191596 -0.14789702 0.19858192 234 88 12
-2.2184267 -0.16121019 0.19858192 234 88 12
-2.217694 -0.17452338 0.19858192 234 88 12
-2.2169614 -0.18783656 0.19858192 234 88 12
-2.2162285 -0.20114975 0.19858192 234 88 12
-2.2154958 -0.21446292 0.19858192 234 88 12
-2.2147629 -0.22777611 0.19858192 234 88 12
-2.2140303 -0.2410893 0.19858192 234 88 12
-2.2132974 -0.25440249 0.19858192 234 88 12
-2.2125647 -0.26771566 0.19858192 234 88 12
-2.211832 -0.28102884 0.19858192 234 88 12
-2.2110991 -0.29434201 0.19858192 234 88 12
-2.2103665 -0.30765522 0.19858192 234 88 12
-2.2096336 -0.32096839 0.19858192 234 88 12
-2.2089009 -0.33428156 0.19858192 234 88 12
-2.208168 -0.34759477 0.19858192 234 88 12
-2.2074354 -0.36090794 0.19858192 234 88 12
-2.2155702 -0.21446702 0.19667862 234 88 12
-2.2289088 0.025162075 0.19287202 234 88 12
-2.2344403 0.12023985 0.18525879 234 88 12
-2.2343357 0.11833797 0.18525879 234 88 12
-2.233603 0.10502479 0.18525879 234 88 12
-2.2328701 0.091711611 0.18525879 234 88 12
-2.2321374 0.078398421 0.18525879 234 88 12
-2.2314045 0.06508524 0.18525879 234 88 12
-2.2306719 0.051772058 0.18525879 234 88 12
-2.2299392 0.038458876 0.18525879 234 88 12
-2.2292063 0.025145695 0.18525879 234 88 12
-2.2287877 0.01753816 0.18525879 234 88 12
-2.2284737 0.011832511 0.18525879 234 88 12
-2.2277408 -0.0014806716 0.18525879 234 88 12
-2.2270081 -0.014793854 0.18525879 234 88 12
-2.2262752 -0.028107038 0.18525879 234 88 12
-2.2255425 -0.041420221 0.18525879 234 88 12
-2.2248096 -0.054733403 0.18525879 234 88 12
-2.224077 -0.068046585 0.18525879 234 88 12
-2.2233443 -0.081359766 0.18525879 234 88 12
-2.2226114 -0.094672948 0.18525879 234 88 12
-2.2218788 -0.10798613 0.18525879 234 88 12
-2.2211459 -0.12129932 0.18525879 234 88 12
-2.2204132 -0.1346125 0.18525879 234 88 12
-2.2196803 -0.14792567 0.18525879 234 88 12
-2.2189476 -0.16123886 0.18525879 234 88 12
-2.2182148 -0.17455205 0.18525879 234 88 12
-2.2174821 -0.18786523 0.18525879 234 88 12
-2.2167494 -0.20117842 0.18525879 234 88 12
-2.2160165 -0.21449159 0.18525879 234 88 12
-2.2154932 -0.22400101 0.18525879 234 88 12
-2.2152839 -0.22780478 0.18525879 234 88 12
-2.214551 -0.24111795 0.18525879 234 88 12
-2.2138183 -0.25443113 0.18525879 234 88 12
-2.2130854 -0.26774433 0.18525879 234 88 12
-2.2123528 -0.28105751 0.18525879 234 88 12
-2.2116201 -0.29437068 0.18525879 234 88 12
-2.2108872 -0.30768389 0.18525879 234 88 12
-2.2101545 -0.32099706 0.18525879 234 88 12
-2.2094216 -0.33431023 0.18525879 234 88 12
-2.208689 -0.34762341 0.18525879 234 88 12
-2.2079561 -0.36093661 0.18525879 234 88 12
-2.215507 -0.22781706 0.17954889 234 88 12
-2.22892 0.01180794 0.17383897 234 88 12
-2.2349613 0.12021119 0.17193566 234 88 12
-2.2348566 0.1183093 0.17193566 234 88 12
-2.2341237 0.10499612 0.17193566 234 88 12
-2.233391 0.091682941 0.17193566 234 88 12
-2.2326581 0.078369759 0.17193566 234 88 12
-2.2319255 0.065056577 0.17193566 234 88 12
-2.2311926 0.051743392 0.17193566 234 88 12
-2.2304599 0.03843021 0.17193566 234 88 12
-2.2297273 0.025117029 0.17193566 234 88 12
-2.2289944 0.011803845 0.17193566 234 88 12
-2.228785 0.0080000786 0.17193566 234 88 12
-2.2282617 -0.0015093377 0.17193566 234 88 12
-2.2275288 -0.01482252 0.17193566 234 88 12
-2.2267962 -0.028135704 0.17193566 234 88 12
-2.2260633 -0.041448887 0.17193566 234 88 12
-2.2253306 -0.054762069 0.17193566 234 88 12
-2.2245977 -0.068075255 0.17193566 234 88 12
-2.223865 -0.081388436 0.17193566 234 88 12
-2.2231324 -0.094701618 0.17193566 234 88 12
-2.2223995 -0.1080148 0.17193566 234 88 12
-2.2216668 -0.12132798 0.17193566 234 88 12
-2.2209339 -0.13464117 0.17193566 234 88 12
-2.2202013 -0.14795434 0.17193566 234 88 12
-2.2194684 -0.16126753 0.17193566 234 88 12
-2.2187357 -0.17458071 0.17193566 234 88 12
-2.218003 -0.1878939 0.17193566 234 88 12
-2.2172701 -0.20120707 0.17193566 234 88 12
-2.2165375 -0.21452026 0.17193566 234 88 12
-2.2158046 -0.22783345 0.17193566 234 88 12
-2.2154906 -0.23353909 0.17193566 234 88 12
-2.2150719 -0.24114662 0.17193566 234 88 12
-2.214339 -0.2544598 0.17193566 234 88 12
-2.2136064 -0.267773 0.17193566 234 88 12
-2.2128735 -0.28108618 0.17193566 234 88 12
-2.2121408 -0.29439935 0.17193566 234 88 12
-2.2114081 -0.30771253 0.17193566 234 88 12
-2.2106752 -0.32102573 0.17193566 234 88 12
-2.2099426 -0.3343389 0.17193566 234 88 12
-2.2092097 -0.34765208 0.17193566 234 88 12
-2.208477 -0.36096528 0.17193566 234 88 12
-2.2155182 -0.2411712 0.16051584 234 88 12
-2.235482 0.12018252 0.15861255 234 88 12
-2.2353773 0.11828064 0.15861255 234 88 12
-2.2346447 0.10496746 0.15861255 234 88 12
-2.2339118 0.091654278 0.15861255 234 88 12
-2.2331791 0.078341089 0.15861255 234 88 12
-2.2324462 0.065027907 0.15861255 234 88 12
-2.2317135 0.051714726 0.15861255 234 88 12
-2.2309806 0.038401544 0.15861255 234 88 12
-2.230248 0.025088362 0.15861255 234 88 12
-2.2295153 0.011775179 0.15861255 234 88 12
-2.2287824 -0.0015380038 0.15861255 234 88 12
-2.2280498 -0.014851186 0.15861255 234 88 12
-2.2273169 -0.02816437 0.15861255 234 88 12
-2.2265842 -0.041477554 0.15861255 234 88 12
-2.2258513 -0.054790735 0.15861255 234 88 12
-2.2251186 -0.068103917 0.15861255 234 88 12
-2.224386 -0.081417099 0.15861255 234 88 12
-2.2236531 -0.09473028 0.15861255 234 88 12
-2.2229204 -0.10804346 0.15861255 234 88 12
-2.2221875 -0.12135665 0.15861255 234 88 12
-2.2214549 -0.13466983 0.15861255 234 88 12
-2.220722 -0.14798301 0.15861255 234 88 12
-2.2199893 -0.16129619 0.15861255 234 88 12
-2.2192564 -0.17460938 0.15861255 234 88 12
-2.2185237 -0.18792257 0.15861255 234 88 12
-2.2177911 -0.20123574 0.15861255 234 88 12
-2.2170582 -0.21454893 0.15861255 234 88 12
-2.2163255 -0.2278621 0.15861255 234 88 12
-2.2155926 -0.24117529 0.15861255 234 88 12
-2.215488 -0.24307717 0.15861255 234 88 12
-2.21486 -0.25448847 0.15861255 234 88 12
-2.2141271 -0.26780164 0.15861255 234 88 12
-2.2133944 -0.28111485 0.15861255 234 88 12
-2.2126615 -0.29442802 0.15861255 234 88 12
-2.2119288 -0.30774119 0.15861255 234 88 12
-2.2111962 -0.3210544 0.15861255 234 88 12
-2.2104633 -0.33436757 0.15861255 234 88 12
-2.2097306 -0.34768075 0.15861255 234 88 12
-2.2089977 -0.36099392 0.15861255 234 88 12
-2.2288568 -0.0015420989 0.15670924 234 88 12
-2.2360029 0.12015386 0.14528942 234 88 12
-2.2358983 0.11825197 0.14528942 234 88 12
-2.2351654 0.10493879 0.14528942 234 88 12
-2.2344327 0.091625609 0.14528942 234 88 12
-2.2336998 0.078312427 0.14528942 234 88 12
-2.2329671 0.064999245 0.14528942 234 88 12
-2.2322342 0.05168606 0.14528942 234 88 12
-2.2315016 0.038372878 0.14528942 234 88 12
-2.2307687 0.025059696 0.14528942 234 88 12
-2.230036 0.011746513 0.14528942 234 88 12
-2.2293034 -0.0015666699 0.14528942 234 88 12
-2.2287798 -0.011076086 0.14528942 234 88 12
-2.2285705 -0.014879853 0.14528942 234 88 12
-2.2278378 -0.028193036 0.14528942 234 88 12
-2.2271049 -0.04150622 0.14528942 234 88 12
-2.2263722 -0.054819401 0.14528942 234 88 12
-2.2256393 -0.068132587 0.14528942 234 88 12
-2.2249067 -0.081445768 0.14528942 234 88 12
-2.224174 -0.09475895 0.14528942 234 88 12
-2.2234411 -0.10807213 0.14528942 234 88 12
-2.2227085 -0.12138531 0.14528942 234 88 12
-2.2219756 -0.1346985 0.14528942 234 88 12
-2.2212429 -0.14801168 0.14528942 234 88 12
-2.22051 -0.16132486 0.14528942 234 88 12
-2.2197773 -0.17463805 0.14528942 234 88 12
-2.2190444 -0.18795122 0.14528942 234 88 12
-2.2183118 -0.20126441 0.14528942 234 88 12
-2.2175791 -0.21457759 0.14528942 234 88 12
-2.2168462 -0.22789077 0.14528942 234 88 12
-2.2161136 -0.24120396 0.14528942 234 88 12
-2.2154853 -0.25261524 0.14528942 234 88 12
-2.2153807 -0.25451714 0.14528942 234 88 12
-2.214648 -0.26783031 0.14528942 234 88 12
-2.2139151 -0.28114352 0.14528942 234 88 12
-2.2131824 -0.29445669 0.14528942 234 88 12
-2.2124498 -0.30776986 0.14528942 234 88 12
-2.2117169 -0.32108307 0.14528942 234 88 12
-2.2109842 -0.33439624 0.14528942 234 88 12
-2.2102513 -0.34770942 0.14528942 234 88 12
-2.2095187 -0.36102259 0.14528942 234 88 12
-2.2155294 -0.25452533 0.14148282 234 88 12
-2.228868 -0.014896234 0.13767619 234 88 12
-2.2365236 0.12012519 0.13196629 234 88 12
-2.236419 0.11822331 0.13196629 234 88 12
-2.2356863 0.10491013 0.13196629 234 88 12
-2.2349534 0.091596946 0.13196629 234 88 12
-2.2342207 0.078283757 0.13196629 234 88 12
-2.2334878 0.064970575 0.13196629 234 88 12
-2.2327552 0.051657394 0.13196629 234 88 12
-2.2320223 0.038344212 0.13196629 234 88 12
-2.2312896 0.02503103 0.13196629 234 88 12
-2.230557 0.011717847 0.13196629 234 88 12
-2.2298241 -0.001595336 0.13196629 234 88 12
-2.2290914 -0.014908519 0.13196629 234 88 12
-2.2287772 -0.020614168 0.13196629 234 88 12
-2.2283585 -0.028221702 0.13196629 234 88 12
-2.2276258 -0.041534886 0.13196629 234 88 12
-2.2268929 -0.054848067 0.13196629 234 88 12
-2.2261603 -0.068161249 0.13196629 234 88 12
-2.2254274 -0.081474431 0.13196629 234 88 12
-2.2246947 -0.094787613 0.13196629 234 88 12
-2.2239621 -0.10810079 0.13196629 234 88 12
-2.2232292 -0.12141398 0.13196629 234 88 12
-2.2224965 -0.13472717 0.13196629 234 88 12
-2.2217636 -0.14804034 0.13196629 234 88 12
-2.221031 -0.16135353 0.13196629 234 88 12
-2.2202981 -0.17466672 0.13196629 234 88 12
-2.2195654 -0.18797989 0.13196629 234 88 12
-2.2188325 -0.20129308 0.13196629 234 88 12
-2.2180998 -0.21460626 0.13196629 234 88 12
-2.2173672 -0.22791944 0.13196629 234 88 12
-2.2166343 -0.24123262 0.13196629 234 88 12
-2.2159016 -0.25454581 0.13196629 234 88 12
-2.2154827 -0.26215333 0.13196629 234 88 12
-2.2151687 -0.26785898 0.13196629 234 88 12
-2.2144361 -0.28117219 0.13196629 234 88 12
-2.2137032 -0.29448536 0.13196629 234 88 12
-2.2129705 -0.30779853 0.13196629 234 88 12
-2.2122378 -0.32111171 0.13196629 234 88 12
-2.2115049 -0.33442491 0.13196629 234 88 12
-2.2107723 -0.34773809 0.13196629 234 88 12
-2.2100394 -0.36105126 0.13196629 234 88 12
-2.2155409 -0.26787946 0.12244977 234 88 12
-2.2370446 0.12009653 0.11864316 234 88 12
-2.236207 0.10488146 0.11864316 234 88 12
-2.2354743 0.091568276 0.11864316 234 88 12
-2.2347414 0.078255095 0.11864316 234 88 12
-2.2340088 0.064941913 0.11864316 234 88 12
-2.2332759 0.051628727 0.11864316 234 88 12
-2.2325432 0.038315546 0.11864316 234 88 12
-2.2318103 0.025002364 0.11864316 234 88 12
-2.2310777 0.011689181 0.11864316 234 88 12
-2.230345 -0.0016240021 0.11864316 234 88 12
-2.2296121 -0.014937185 0.11864316 234 88 12
-2.2288795 -0.028250368 0.11864316 234 88 12
-2.2287748 -0.03015225 0.11864316 234 88 12
-2.2281466 -0.041563552 0.11864316 234 88 12
-2.2274139 -0.054876734 0.11864316 234 88 12
-2.226681 -0.068189919 0.11864316 234 88 12
-2.2259483 -0.081503101 0.11864316 234 88 12
-2.2252154 -0.094816282 0.11864316 234 88 12
-2.2244828 -0.10812946 0.11864316 234 88 12
-2.2237501 -0.12144265 0.11864316 234 88 12
-2.2230172 -0.13475583 0.11864316 234 88 12
-2.2222846 -0.14806901 0.11864316 234 88 12
-2.2215517 -0.1613822 0.11864316 234 88 12
-2.220819 -0.17469537 0.11864316 234 88 12
-2.2200861 -0.18800856 0.11864316 234 88 12
-2.2193534 -0.20132174 0.11864316 234 88 12
-2.2186208 -0.21463493 0.11864316 234 88 12
-2.2178879 -0.22794811 0.11864316 234 88 12
-2.2171552 -0.24126129 0.11864316 234 88 12
-2.2164223 -0.25457448 0.11864316 234 88 12
-2.2156897 -0.26788765 0.11864316 234 88 12
-2.2154803 -0.27169141 0.11864316 234 88 12
-2.2149568 -0.28120083 0.11864316 234 88 12
-2.2142241 -0.29451403 0.11864316 234 88 12
-2.2134912 -0.3078272 0.11864316 234 88 12
-2.2127585 -0.32114038 0.11864316 234 88 12
-2.2375653 0.12006786 0.10532004 234 88 12
-2.2368326 0.10675468 0.10532004 234 88 12
-2.2359951 0.091539614 0.10532004 234 88 12
-2.2352624 0.078226425 0.10532004 234 88 12
-2.2345295 0.064913243 0.10532004 234 88 12
-2.2337968 0.051600061 0.10532004 234 88 12
-2.2330639 0.03828688 0.10532004 234 88 12
-2.2323313 0.024973698 0.10532004 234 88 12
-2.2315984 0.011660514 0.10532004 234 88 12
-2.2308657 -0.0016526682 0.10532004 234 88 12
-2.2301331 -0.014965851 0.10532004 234 88 12
-2.2294002 -0.028279034 0.10532004 234 88 12
-2.2287722 -0.039690334 0.10532004 234 88 12
-2.2286675 -0.041592218 0.10532004 234 88 12
-2.2279346 -0.0549054 0.10532004 234 88 12
-2.2272019 -0.068218581 0.10532004 234 88 12
-2.2243755 -0.11956943 0.10532004 234 88 12
-2.2242708 -0.12147132 0.10532004 234 88 12
-2.2265434 -0.081535861 0.10341673 234 88 12
-2.2258108 -0.094849043 0.10341673 234 88 12
-2.2288907 -0.0416045 0.099610128 234 88 12
-2.2237613 -0.13479678 0.099610128 234 88 12
-2.2230284 -0.14810996 0.099610128 234 88 12
-2.2222958 -0.16142315 0.099610128 234 88 12
-2.2215631 -0.17473634 0.099610128 234 88 12
-2.2208302 -0.18804951 0.099610128 234 88 12
-2.2200975 -0.2013627 0.099610128 234 88 12
-2.2193646 -0.21467587 0.099610128 234 88 12
-2.218632 -0.22798906 0.099610128 234 88 12
-2.2178991 -0.24130224 0.099610128 234 88 12
-2.2172408 -0.25461951 0.097706825 234 88 12
-2.2165079 -0.26793271 0.097706825 234 88 12
-2.2157753 -0.28124589 0.097706825 234 88 12
-2.2154613 -0.28695154 0.097706825 234 88 12
-2.2150426 -0.29455906 0.097706825 234 88 12
-2.2143097 -0.30787224 0.097706825 234 88 12
-2.213577 -0.32118544 0.097706825 234 88 12
-2.2129185 -0.3345027 0.095803514 234 88 12
-2.2121859 -0.3478159 0.095803514 234 88 12
-2.211453 -0.36112908 0.095803514 234 88 12
-2.2380862 0.12003919 0.091996908 234 88 12
-2.2373533 0.10672601 0.091996908 234 88 12
-2.2366207 0.093412824 0.091996908 234 88 12
-2.2357831 0.078197762 0.091996908 234 88 12
-2.2350504 0.064884581 0.091996908 234 88 12
-2.2343175 0.051571395 0.091996908 234 88 12
-2.2335849 0.038258214 0.091996908 234 88 12
-2.232852 0.024945032 0.091996908 234 88 12
-2.2321193 0.011631848 0.091996908 234 88 12
-2.2313864 -0.0016813343 0.091996908 234 88 12
-2.2306538 -0.014994517 0.091996908 234 88 12
-2.2299211 -0.028307701 0.091996908 234 88 12
-2.2291882 -0.041620884 0.091996908 234 88 12
-2.2287695 -0.049228415 0.091996908 234 88 12
-2.2284555 -0.054934066 0.091996908 234 88 12
-2.2277226 -0.068247251 0.091996908 234 88 12
-2.22699 -0.081560433 0.091996908 234 88 12
-2.2262571 -0.094873615 0.091996908 234 88 12
-2.2255244 -0.1081868 0.091996908 234 88 12
-2.2247918 -0.12149998 0.091996908 234 88 12
-2.2240589 -0.13481316 0.091996908 234 88 12
-2.2233262 -0.14812635 0.091996908 234 88 12
-2.2225933 -0.16143952 0.091996908 234 88 12
-2.2218606 -0.17475271 0.091996908 234 88 12
-2.2211277 -0.18806589 0.091996908 234 88 12
-2.2203951 -0.20137908 0.091996908 234 88 12
-2.2196622 -0.21469225 0.091996908 234 88 12
-2.2189295 -0.22800544 0.091996908 234 88 12
-2.2181969 -0.24131863 0.091996908 234 88 12
-2.217464 -0.25463182 0.091996908 234 88 12
-2.2167313 -0.26794499 0.091996908 234 88 12
-2.2159984 -0.28125817 0.091996908 234 88 12
-2.2154751 -0.29076758 0.091996908 234 88 12
-2.2152658 -0.29457134 0.091996908 234 88 12
-2.2145329 -0.30788454 0.091996908 234 88 12
-2.2138002 -0.32119772 0.091996908 234 88 12
-2.2130673 -0.33451089 0.091996908 234 88 12
-2.2123346 -0.3478241 0.091996908 234 88 12
-2.211602 -0.36113727 0.091996908 234 88 12
-2.2155633 -0.29458773 0.084383696 234 88 12
-2.2289019 -0.054958638 0.08057709 234 88 12
-2.2386069 0.12001052 0.07867378 234 88 12
-2.2378743 0.10669734 0.07867378 234 88 12
-2.2371414 0.093384162 0.07867378 234 88 12
-2.2364087 0.08007098 0.07867378 234 88 12
-2.2355711 0.064855911 0.07867378 234 88 12
-2.2348385 0.051542729 0.07867378 234 88 12
-2.2341056 0.038229547 0.07867378 234 88 12
-2.2333729 0.024916366 0.07867378 234 88 12
-2.23264 0.011603182 0.07867378 234 88 12
-2.2319074 -0.0017100004 0.07867378 234 88 12
-2.2311747 -0.015023183 0.07867378 234 88 12
-2.2304418 -0.028336367 0.07867378 234 88 12
-2.2297091 -0.04164955 0.07867378 234 88 12
-2.2289762 -0.054962732 0.07867378 234 88 12
-2.2287669 -0.058766499 0.07867378 234 88 12
-2.2282436 -0.068275914 0.07867378 234 88 12
-2.2275107 -0.081589095 0.07867378 234 88 12
-2.226778 -0.094902277 0.07867378 234 88 12
-2.2260451 -0.10821546 0.07867378 234 88 12
-2.2253125 -0.12152865 0.07867378 234 88 12
-2.2245798 -0.13484183 0.07867378 234 88 12
-2.2238469 -0.148155 0.07867378 234 88 12
-2.2231143 -0.16146819 0.07867378 234 88 12
-2.2223814 -0.17478138 0.07867378 234 88 12
-2.2216487 -0.18809456 0.07867378 234 88 12
-2.2209158 -0.20140775 0.07867378 234 88 12
-2.2201831 -0.21472092 0.07867378 234 88 12
-2.2194502 -0.22803411 0.07867378 234 88 12
-2.2187176 -0.24134728 0.07867378 234 88 12
-2.2179849 -0.25466046 0.07867378 234 88 12
-2.217252 -0.26797366 0.07867378 234 88 12
-2.2165194 -0.28128684 0.07867378 234 88 12
-2.2157865 -0.29460001 0.07867378 234 88 12
-2.2154725 -0.30030566 0.07867378 234 88 12
-2.2150538 -0.30791321 0.07867378 234 88 12
-2.2143209 -0.32122639 0.07867378 234 88 12
-2.2135882 -0.33453956 0.07867378 234 88 12
-2.2128556 -0.34785274 0.07867378 234 88 12
-2.2121227 -0.36116594 0.07867378 234 88 12
-2.2391276 0.11998186 0.065350659 234 88 12
-2.238395 0.10666868 0.065350659 234 88 12
-2.2376623 0.093355492 0.065350659 234 88 12
-2.2369294 0.08004231 0.065350659 234 88 12
-2.2361968 0.066729128 0.065350659 234 88 12
-2.2353592 0.051514063 0.065350659 234 88 12
-2.2346265 0.038200881 0.065350659 234 88 12
-2.2338936 0.0248877 0.065350659 234 88 12
-2.233161 0.011574516 0.065350659 234 88 12
-2.2324281 -0.0017386666 0.065350659 234 88 12
-2.2316954 -0.015051849 0.065350659 234 88 12
-2.2309628 -0.028365033 0.065350659 234 88 12
-2.2302299 -0.041678216 0.065350659 234 88 12
-2.2294972 -0.054991398 0.065350659 234 88 12
-2.2287643 -0.068304583 0.065350659 234 88 12
-2.2280316 -0.081617765 0.065350659 234 88 12
-2.2272987 -0.094930947 0.065350659 234 88 12
-2.2265661 -0.10824413 0.065350659 234 88 12
-2.2258332 -0.12155731 0.065350659 234 88 12
-2.2251005 -0.1348705 0.065350659 234 88 12
-2.2243679 -0.14818367 0.065350659 234 88 12
-2.223635 -0.16149686 0.065350659 234 88 12
-2.2229023 -0.17481004 0.065350659 234 88 12
-2.2221694 -0.18812323 0.065350659 234 88 12
-2.2214367 -0.2014364 0.065350659 234 88 12
-2.2207038 -0.21474959 0.065350659 234 88 12
-2.2199712 -0.22806278 0.065350659 234 88 12
-2.2192385 -0.24137595 0.065350659 234 88 12
-2.2185056 -0.25468913 0.065350659 234 88 12
-2.217773 -0.26800233 0.065350659 234 88 12
-2.2170401 -0.28131551 0.065350659 234 88 12
-2.2163074 -0.29462868 0.065350659 234 88 12
-2.2155745 -0.30794185 0.065350659 234 88 12
-2.2154698 -0.30984375 0.065350659 234 88 12
-2.2148418 -0.32125506 0.065350659 234 88 12
-2.2141089 -0.33456823 0.065350659 234 88 12
-2.2133763 -0.34788141 0.065350659 234 88 12
-2.2126436 -0.36119461 0.065350659 234 88 12
-2.2289131 -0.068312772 0.06154405 234 88 12
-2.2396486 0.11995319 0.052027531 234 88 12
-2.2389157 0.10664001 0.052027531 234 88 12
-2.238183 0.093326829 0.052027531 234 88 12
-2.2374504 0.080013648 0.052027531 234 88 12
-2.2367175 0.066700466 0.052027531 234 88 12
-2.2358801 0.051485397 0.052027531 234 88 12
-2.2351472 0.038172215 0.052027531 234 88 12
-2.2344146 0.024859034 0.052027531 234 88 12
-2.2336817 0.01154585 0.052027531 234 88 12
-2.232949 -0.0017673327 0.052027531 234 88 12
-2.2322161 -0.015080515 0.052027531 234 88 12
-2.2314835 -0.028393699 0.052027531 234 88 12
-2.2307508 -0.041706882 0.052027531 234 88 12
-2.2300179 -0.055020064 0.052027531 234 88 12
-2.2292852 -0.068333246 0.052027531 234 88 12
-2.2287617 -0.07784266 0.052027531 234 88 12
-2.2285523 -0.081646428 0.052027531 234 88 12
-2.2278197 -0.094959609 0.052027531 234 88 12
-2.2270868 -0.10827279 0.052027531 234 88 12
-2.2263541 -0.12158598 0.052027531 234 88 12
-2.2256215 -0.13489915 0.052027531 234 88 12
-2.2248886 -0.14821234 0.052027531 234 88 12
-2.2241559 -0.16152552 0.052027531 234 88 12
-2.223423 -0.17483871 0.052027531 234 88 12
-2.2226903 -0.1881519 0.052027531 234 88 12
-2.2219574 -0.20146507 0.052027531 234 88 12
-2.2212248 -0.21477826 0.052027531 234 88 12
-2.2204919 -0.22809143 0.052027531 234 88 12
-2.2197592 -0.24140462 0.052027531 234 88 12
-2.2190266 -0.2547178 0.052027531 234 88 12
-2.2182937 -0.268031 0.052027531 234 88 12
-2.217561 -0.28134418 0.052027531 234 88 12
-2.2168281 -0.29465735 0.052027531 234 88 12
-2.2160954 -0.30797052 0.052027531 234 88 12
-2.2154672 -0.31938183 0.052027531 234 88 12
-2.2153625 -0.32128373 0.052027531 234 88 12
-2.2146299 -0.3345969 0.052027531 234 88 12
-2.213897 -0.34791008 0.052027531 234 88 12
-2.2131643 -0.36122325 0.052027531 234 88 12
-2.2155113 -0.32129189 0.048220921 234 88 12
-2.2288501 -0.081662811 0.044414315 234 88 12
-2.2401693 0.11992453 0.038704403 234 88 12
-2.2394366 0.10661135 0.038704403 234 88 12
-2.238704 0.09329816 0.038704403 234 88 12
-2.2379711 0.079984978 0.038704403 234 88 12
-2.2372384 0.066671796 0.038704403 234 88 12
-2.2365055 0.053358614 0.038704403 234 88 12
-2.2356682 0.038143549 0.038704403 234 88 12
-2.2349353 0.024830367 0.038704403 234 88 12
-2.2342026 0.011517184 0.038704403 234 88 12
-2.2334697 -0.0017959989 0.038704403 234 88 12
-2.2327371 -0.015109181 0.038704403 234 88 12
-2.2320042 -0.028422365 0.038704403 234 88 12
-2.2312715 -0.041735549 0.038704403 234 88 12
-2.2305388 -0.05504873 0.038704403 234 88 12
-2.2298059 -0.068361916 0.038704403 234 88 12
-2.2290733 -0.081675097 0.038704403 234 88 12
-2.2287593 -0.087380745 0.038704403 234 88 12
-2.2283404 -0.094988279 0.038704403 234 88 12
-2.2276077 -0.10830146 0.038704403 234 88 12
-2.2268748 -0.12161464 0.038704403 234 88 12
-2.2261422 -0.13492782 0.038704403 234 88 12
-2.2254095 -0.14824101 0.038704403 234 88 12
-2.2246766 -0.16155419 0.038704403 234 88 12
-2.2239439 -0.17486738 0.038704403 234 88 12
-2.2232111 -0.18818055 0.038704403 234 88 12
-2.2224784 -0.20149374 0.038704403 234 88 12
-2.2217455 -0.21480691 0.038704403 234 88 12
-2.2210128 -0.2281201 0.038704403 234 88 12
-2.2202799 -0.24143329 0.038704403 234 88 12
-2.2195473 -0.25474647 0.038704403 234 88 12
-2.2188146 -0.26805964 0.038704403 234 88 12
-2.2180817 -0.28137285 0.038704403 234 88 12
-2.2173491 -0.29468602 0.038704403 234 88 12
-2.2166162 -0.30799919 0.038704403 234 88 12
-2.2158835 -0.3213124 0.038704403 234 88 12
-2.2154648 -0.32891992 0.038704403 234 88 12
-2.2151506 -0.33462557 0.038704403 234 88 12
-2.2144179 -0.34793875 0.038704403 234 88 12
-2.213685 -0.36125192 0.038704403 234 88 12
-2.2155228 -0.33464605 0.029187884 234 88 12
-2.2406902 0.11989586 0.025381276 234 88 12
-2.2399573 0.10658268 0.025381276 234 88 12
-2.2392247 0.093269497 0.025381276 234 88 12
-2.238492 0.079956315 0.025381276 234 88 12
-2.2377591 0.066643134 0.025381276 234 88 12
-2.2370265 0.053329948 0.025381276 234 88 12
-2.2362936 0.040016767 0.025381276 234 88 12
-2.2354562 0.024801701 0.025381276 234 88 12
-2.2347233 0.011488518 0.025381276 234 88 12
-2.2339907 -0.001824665 0.025381276 234 88 12
-2.2332578 -0.015137848 0.025381276 234 88 12
-2.2325251 -0.028451031 0.025381276 234 88 12
-2.2317924 -0.041764215 0.025381276 234 88 12
-2.2310596 -0.055077396 0.025381276 234 88 12
-2.2303269 -0.068390578 0.025381276 234 88 12
-2.229594 -0.08170376 0.025381276 234 88 12
-2.2288613 -0.095016941 0.025381276 234 88 12
-2.2287567 -0.096918829 0.025381276 234 88 12
-2.2281284 -0.10833012 0.025381276 234 88 12
-2.2273958 -0.12164331 0.025381276 234 88 12
-2.2266629 -0.13495649 0.025381276 234 88 12
-2.2259302 -0.14826967 0.025381276 234 88 12
-2.2251976 -0.16158286 0.025381276 234 88 12
-2.2244647 -0.17489605 0.025381276 234 88 12
-2.223732 -0.18820922 0.025381276 234 88 12
-2.2229991 -0.20152241 0.025381276 234 88 12
-2.2222664 -0.21483558 0.025381276 234 88 12
-2.2215335 -0.22814877 0.025381276 234 88 12
-2.2208009 -0.24146195 0.025381276 234 88 12
-2.220068 -0.25477514 0.025381276 234 88 12
-2.2193353 -0.26808831 0.025381276 234 88 12
-2.2186027 -0.28140152 0.025381276 234 88 12
-2.2178698 -0.29471469 0.025381276 234 88 12
-2.2171371 -0.30802786 0.025381276 234 88 12
-2.2164042 -0.32134104 0.025381276 234 88 12
-2.2156715 -0.33465424 0.025381276 234 88 12
-2.2154622 -0.338458 0.025381276 234 88 12
-2.2149386 -0.34796742 0.025381276 234 88 12
-2.214206 -0.36128059 0.025381276 234 88 12
-2.2412109 0.1198672 0.01205815 234 88 12
-2.2404783 0.10655402 0.01205815 234 88 12
-2.2397454 0.093240827 0.01205815 234 88 12
-2.2390127 0.079927646 0.01205815 234 88 12
-2.2382801 0.066614464 0.01205815 234 88 12
-2.2375472 0.053301282 0.01205815 234 88 12
-2.2368145 0.039988101 0.01205815 234 88 12
-2.2360816 0.026674917 0.01205815 234 88 12
-2.2352443 0.011459852 0.01205815 234 88 12
-2.2345114 -0.0018533311 0.01205815 234 88 12
-2.2337787 -0.015166514 0.01205815 234 88 12
-2.2330458 -0.028479697 0.01205815 234 88 12
-2.2323132 -0.041792881 0.01205815 234 88 12
-2.2315805 -0.055106062 0.01205815 234 88 12
-2.2308476 -0.068419248 0.01205815 234 88 12
-2.2301149 -0.08173243 0.01205815 234 88 12
-2.229382 -0.095045611 0.01205815 234 88 12
-2.228754 -0.10645691 0.01205815 234 88 12
-2.2286494 -0.10835879 0.01205815 234 88 12
-2.2279165 -0.12167197 0.01205815 234 88 12
-2.2271838 -0.13498516 0.01205815 234 88 12
-2.2264509 -0.14829834 0.01205815 234 88 12
-2.2257183 -0.16161153 0.01205815 234 88 12
-2.2249856 -0.1749247 0.01205815 234 88 12
-2.2242527 -0.18823789 0.01205815 234 88 12
-2.22352 -0.20155106 0.01205815 234 88 12
-2.2227871 -0.21486425 0.01205815 234 88 12
-2.2220545 -0.22817744 0.01205815 234 88 12
-2.2213216 -0.24149062 0.01205815 234 88 12
-2.2205889 -0.25480381 0.01205815 234 88 12
-2.2198563 -0.26811698 0.01205815 234 88 12
-2.2191234 -0.28143016 0.01205815 234 88 12
-2.2183907 -0.29474336 0.01205815 234 88 12
-2.2176578 -0.30805653 0.01205815 234 88 12
-2.2169251 -0.32136971 0.01205815 234 88 12
-2.2161922 -0.33468291 0.01205815 234 88 12
-2.2154596 -0.34799609 0.01205815 234 88 12
-2.2147267 -0.36130926 0.01205815 234 88 12
-2.215534 -0.34800017 0.010154846 234 88 12
-2.2288725 -0.10837108 0.0063482383 234 88 12
-2.2417319 0.11983853 -0.0012649772 234 88 12
-2.240999 0.10652535 -0.0012649772 234 88 12
-2.2402663 0.093212165 -0.0012649772 234 88 12
-2.2395334 0.079898983 -0.0012649772 234 88 12
-2.2388008 0.066585802 -0.0012649772 234 88 12
-2.2380681 0.053272616 -0.0012649772 234 88 12
-2.2373352 0.039959434 -0.0012649772 234 88 12
-2.2366025 0.026646251 -0.0012649772 234 88 12
-2.2358696 0.013333069 -0.0012649772 234 88 12
-2.2350323 -0.0018819972 -0.0012649772 234 88 12
-2.2342994 -0.01519518 -0.0012649772 234 88 12
-2.2335668 -0.028508363 -0.0012649772 234 88 12
-2.2328339 -0.041821547 -0.0012649772 234 88 12
-2.2321012 -0.055134729 -0.0012649772 234 88 12
-2.2313685 -0.06844791 -0.0012649772 234 88 12
-2.2306356 -0.081761092 -0.0012649772 234 88 12
-2.229903 -0.095074274 -0.0012649772 234 88 12
-2.2291701 -0.10838746 -0.0012649772 234 88 12
-2.2287514 -0.11599499 -0.0012649772 234 88 12
-2.2284374 -0.12170064 -0.0012649772 234 88 12
-2.2277045 -0.13501382 -0.0012649772 234 88 12
-2.2269719 -0.14832701 -0.0012649772 234 88 12
-2.226239 -0.16164018 -0.0012649772 234 88 12
-2.2255063 -0.17495337 -0.0012649772 234 88 12
-2.2247736 -0.18826656 -0.0012649772 234 88 12
-2.2240407 -0.20157973 -0.0012649772 234 88 12
-2.2233081 -0.21489292 -0.0012649772 234 88 12
-2.2225752 -0.2282061 -0.0012649772 234 88 12
-2.2218425 -0.24151929 -0.0012649772 234 88 12
-2.2211096 -0.25483248 -0.0012649772 234 88 12
-2.220377 -0.26814565 -0.0012649772 234 88 12
-2.2196443 -0.28145882 -0.0012649772 234 88 12
-2.2189114 -0.29477203 -0.0012649772 234 88 12
-2.2181787 -0.3080852 -0.0012649772 234 88 12
-2.2174459 -0.32139838 -0.0012649772 234 88 12
-2.2167132 -0.33471155 -0.0012649772 234 88 12
-2.2159803 -0.34802476 -0.0012649772 234 88 12
-2.215457 -0.35753417 -0.0012649772 234 88 12
-2.2152476 -0.36133793 -0.0012649772 234 88 12
-2.2155452 -0.36135432 -0.0088781919 234 88 12
-2.2288837 -0.12172521 -0.0126848 234 88 12
-2.2422526 0.11980987 -0.014588104 234 88 12
-2.2421479 0.11790798 -0.014588104 234 88 12
-2.2415199 0.10649668 -0.014588104 234 88 12
-2.240787 0.093183495 -0.014588104 234 88 12
-2.2400544 0.079870313 -0.014588104 234 88 12
-2.2393217 0.066557132 -0.014588104 234 88 12
-2.2385888 0.05324395 -0.014588104 234 88 12
-2.2378561 0.039930768 -0.014588104 234 88 12
-2.2371233 0.026617585 -0.014588104 234 88 12
-2.2363906 0.013304403 -0.014588104 234 88 12
-2.2356577 -8.780069e-06 -0.014588104 234 88 12
-2.2348204 -0.015223846 -0.014588104 234 88 12
-2.2340875 -0.028537029 -0.014588104 234 88 12
-2.2333548 -0.041850213 -0.014588104 234 88 12
-2.2326219 -0.055163395 -0.014588104 234 88 12
-2.2318892 -0.06847658 -0.014588104 234 88 12
-2.2311566 -0.081789762 -0.014588104 234 88 12
-2.2304237 -0.095102943 -0.014588104 234 88 12
-2.229691 -0.10841613 -0.014588104 234 88 12
-2.2289581 -0.12172931 -0.014588104 234 88 12
-2.2287488 -0.12553307 -0.014588104 234 88 12
-2.2282255 -0.13504249 -0.014588104 234 88 12
-2.2274926 -0.14835568 -0.014588104 234 88 12
-2.2267599 -0.16166885 -0.014588104 234 88 12
-2.2260273 -0.17498204 -0.014588104 234 88 12
-2.2252944 -0.18829522 -0.014588104 234 88 12
-2.2245617 -0.2016084 -0.014588104 234 88 12
-2.2238288 -0.21492158 -0.014588104 234 88 12
-2.2230961 -0.22823477 -0.014588104 234 88 12
-2.2223632 -0.24154796 -0.014588104 234 88 12
-2.2216306 -0.25486115 -0.014588104 234 88 12
-2.2208977 -0.26817432 -0.014588104 234 88 12
-2.220165 -0.28148749 -0.014588104 234 88 12
-2.2194324 -0.29480067 -0.014588104 234 88 12
-2.2186995 -0.30811387 -0.014588104 234 88 12
-2.2179668 -0.32142705 -0.014588104 234 88 12
-2.2172339 -0.33474022 -0.014588104 234 88 12
-2.2165012 -0.34805343 -0.014588104 234 88 12
-2.2157683 -0.3613666 -0.014588104 234 88 12
-2.2427735 0.1197812 -0.027911231 234 88 12
-2.2421453 0.1083699 -0.027911231 234 88 12
-2.2420406 0.10646801 -0.027911231 234 88 12
-2.241308 0.093154833 -0.027911231 234 88 12
-2.2405751 0.079841651 -0.027911231 234 88 12
-2.2398424 0.066528469 -0.027911231 234 88 12
-2.2391098 0.053215284 -0.027911231 234 88 12
-2.2383769 0.039902102 -0.027911231 234 88 12
-2.2376442 0.026588919 -0.027911231 234 88 12
-2.2369113 0.013275737 -0.027911231 234 88 12
-2.2361786 -3.7446189e-05 -0.027911231 234 88 12
-2.2354457 -0.013350629 -0.027911231 234 88 12
-2.2346084 -0.028565696 -0.027911231 234 88 12
-2.2338755 -0.041878879 -0.027911231 234 88 12
-2.2331429 -0.055192061 -0.027911231 234 88 12
-2.2324102 -0.068505242 -0.027911231 234 88 12
-2.2316773 -0.081818424 -0.027911231 234 88 12
-2.2309446 -0.095131606 -0.027911231 234 88 12
-2.2302117 -0.10844479 -0.027911231 234 88 12
-2.2294791 -0.12175798 -0.027911231 234 88 12
-2.2287462 -0.13507116 -0.027911231 234 88 12
-2.2280135 -0.14838433 -0.027911231 234 88 12
-2.2272806 -0.16169752 -0.027911231 234 88 12
-2.226548 -0.17501071 -0.027911231 234 88 12
-2.2258153 -0.18832389 -0.027911231 234 88 12
-2.2250824 -0.20163707 -0.027911231 234 88 12
-2.2243497 -0.21495025 -0.027911231 234 88 12
-2.2236168 -0.22826344 -0.027911231 234 88 12
-2.2228842 -0.24157661 -0.027911231 234 88 12
-2.2221513 -0.25488979 -0.027911231 234 88 12
-2.2214186 -0.26820299 -0.027911231 234 88 12
-2.2206857 -0.28151616 -0.027911231 234 88 12
-2.2199531 -0.29482934 -0.027911231 234 88 12
-2.2192204 -0.30814254 -0.027911231 234 88 12
-2.2184875 -0.32145572 -0.027911231 234 88 12
-2.2177548 -0.33476889 -0.027911231 234 88 12
-2.2170219 -0.34808207 -0.027911231 234 88 12
-2.2162893 -0.36139527 -0.027911231 234 88 12
-2.2288949 -0.13507934 -0.031717837 234 88 12
-2.2422638 0.10645573 -0.033621144 234 88 12
-2.2432942 0.11975253 -0.041234355 234 88 12
-2.2425616 0.10643935 -0.041234355 234 88 12
-2.2421429 0.098831818 -0.041234355 234 88 12
-2.2418287 0.093126163 -0.041234355 234 88 12
-2.241096 0.079812981 -0.041234355 234 88 12
-2.2403631 0.066499799 -0.041234355 234 88 12
-2.2396305 0.053186618 -0.041234355 234 88 12
-2.2388978 0.039873436 -0.041234355 234 88 12
-2.2381649 0.026560253 -0.041234355 234 88 12
-2.2374322 0.013247071 -0.041234355 234 88 12
-2.2366993 -6.6112305e-05 -0.041234355 234 88 12
-2.2359667 -0.013379295 -0.041234355 234 88 12
-2.2351291 -0.028594362 -0.041234355 234 88 12
-2.2343965 -0.041907545 -0.041234355 234 88 12
-2.2336636 -0.055220727 -0.041234355 234 88 12
-2.2329309 -0.068533912 -0.041234355 234 88 12
-2.2321982 -0.081847094 -0.041234355 234 88 12
-2.2314653 -0.095160276 -0.041234355 234 88 12
-2.2307327 -0.10847346 -0.041234355 234 88 12
-2.2299998 -0.12178664 -0.041234355 234 88 12
-2.2292671 -0.13509983 -0.041234355 234 88 12
-2.2288485 -0.14270735 -0.041234355 234 88 12
-2.2285342 -0.148413 -0.041234355 234 88 12
-2.2278016 -0.16172619 -0.041234355 234 88 12
-2.2270687 -0.17503937 -0.041234355 234 88 12
-2.226336 -0.18835256 -0.041234355 234 88 12
-2.2256033 -0.20166573 -0.041234355 234 88 12
-2.2248704 -0.21497892 -0.041234355 234 88 12
-2.2241378 -0.22829211 -0.041234355 234 88 12
-2.2234049 -0.24160528 -0.041234355 234 88 12
-2.2226722 -0.25491846 -0.041234355 234 88 12
-2.2219393 -0.26823166 -0.041234355 234 88 12
-2.2212067 -0.28154483 -0.041234355 234 88 12
-2.220474 -0.29485801 -0.041234355 234 88 12
-2.2197411 -0.30817118 -0.041234355 234 88 12
-2.2190084 -0.32148439 -0.041234355 234 88 12
-2.2182755 -0.33479756 -0.041234355 234 88 12
-2.2175429 -0.34811074 -0.041234355 234 88 12
-2.21681 -0.36142394 -0.041234355 234 88 12
-2.2422009 0.093105689 -0.050750878 234 88 12
-2.2289064 -0.14843348 -0.050750878 234 88 12
-2.2438152 0.11972386 -0.054557484 234 88 12
-2.2430823 0.10641068 -0.054557484 234 88 12
-2.2423496 0.093097501 -0.054557484 234 88 12
-2.2421403 0.089293733 -0.054557484 234 88 12
-2.2416167 0.079784319 -0.054557484 234 88 12
-2.2408841 0.066471137 -0.054557484 234 88 12
-2.2401512 0.053157952 -0.054557484 234 88 12
-2.2394185 0.03984477 -0.054557484 234 88 12
-2.2386858 0.026531586 -0.054557484 234 88 12
-2.2379529 0.013218404 -0.054557484 234 88 12
-2.2372203 -9.4778421e-05 -0.054557484 234 88 12
-2.2364874 -0.013407961 -0.054557484 234 88 12
-2.2357547 -0.026721144 -0.054557484 234 88 12
-2.2349172 -0.041936211 -0.054557484 234 88 12
-2.2341845 -0.055249393 -0.054557484 234 88 12
-2.2334516 -0.068562575 -0.054557484 234 88 12
-2.2327189 -0.081875756 -0.054557484 234 88 12
-2.2319863 -0.095188938 -0.054557484 234 88 12
-2.2312534 -0.10850212 -0.054557484 234 88 12
-2.2305207 -0.12181531 -0.054557484 234 88 12
-2.2297878 -0.13512848 -0.054557484 234 88 12
-2.2290552 -0.14844167 -0.054557484 234 88 12
-2.2288458 -0.15224543 -0.054557484 234 88 12
-2.2283223 -0.16175485 -0.054557484 234 88 12
-2.2275896 -0.17506804 -0.054557484 234 88 12
-2.2268567 -0.18838122 -0.054557484 234 88 12
-2.226124 -0.2016944 -0.054557484 234 88 12
-2.2253914 -0.21500759 -0.054557484 234 88 12
-2.2246585 -0.22832076 -0.054557484 234 88 12
-2.2239258 -0.24163395 -0.054557484 234 88 12
-2.2231929 -0.25494713 -0.054557484 234 88 12
-2.2224603 -0.26826033 -0.054557484 234 88 12
-2.2217274 -0.2815735 -0.054557484 234 88 12
-2.2209947 -0.29488668 -0.054557484 234 88 12
-2.2202621 -0.30819985 -0.054557484 234 88 12
-2.2195292 -0.32151306 -0.054557484 234 88 12
-2.2187965 -0.33482623 -0.054557484 234 88 12
-2.2180636 -0.34813941 -0.054557484 234 88 12
-2.2173309 -0.36145258 -0.054557484 234 88 12
-2.2443359 0.1196952 -0.067880608 234 88 12
-2.2436032 0.10638202 -0.067880608 234 88 12
-2.2428703 0.093068831 -0.067880608 234 88 12
-2.2421377 0.079755649 -0.067880608 234 88 12
-2.2414048 0.066442467 -0.067880608 234 88 12
-2.2406721 0.053129286 -0.067880608 234 88 12
-2.2399395 0.039816104 -0.067880608 234 88 12
-2.2392066 0.02650292 -0.067880608 234 88 12
-2.2384739 0.013189738 -0.067880608 234 88 12
-2.237741 -0.00012344454 -0.067880608 234 88 12
-2.2370083 -0.013436628 -0.067880608 234 88 12
-2.2362754 -0.02674981 -0.067880608 234 88 12
-2.2355428 -0.040062994 -0.067880608 234 88 12
-2.2347052 -0.055278059 -0.067880608 234 88 12
-2.2339725 -0.068591245 -0.067880608 234 88 12
-2.2332397 -0.081904426 -0.067880608 234 88 12
-2.232507 -0.095217608 -0.067880608 234 88 12
-2.2317743 -0.10853079 -0.067880608 234 88 12
-2.2310414 -0.12184397 -0.067880608 234 88 12
-2.2303088 -0.13515715 -0.067880608 234 88 12
-2.2295759 -0.14847034 -0.067880608 234 88 12
-2.2288432 -0.16178352 -0.067880608 234 88 12
-2.2281103 -0.17509671 -0.067880608 234 88 12
-2.2273777 -0.18840988 -0.067880608 234 88 12
-2.226645 -0.20172307 -0.067880608 234 88 12
-2.2259121 -0.21503624 -0.067880608 234 88 12
-2.2251794 -0.22834943 -0.067880608 234 88 12
-2.2244465 -0.24166262 -0.067880608 234 88 12
-2.2237139 -0.2549758 -0.067880608 234 88 12
-2.222981 -0.26828897 -0.067880608 234 88 12
-2.2222483 -0.28160217 -0.067880608 234 88 12
-2.2215154 -0.29491535 -0.067880608 234 88 12
-2.2207828 -0.30822852 -0.067880608 234 88 12
-2.2200501 -0.32154173 -0.067880608 234 88 12
-2.2193172 -0.3348549 -0.067880608 234 88 12
-2.2185845 -0.34816808 -0.067880608 234 88 12
-2.2178516 -0.36148125 -0.067880608 234 88 12
-2.2422121 0.079751559 -0.069783911 234 88 12
-2.2289176 -0.16178761 -0.069783911 234 88 12
-2.2448568 0.11966653 -0.081203736 234 88 12
-2.2441239 0.10635335 -0.081203736 234 88 12
-2.2433913 0.093040168 -0.081203736 234 88 12
-2.2426584 0.079726987 -0.081203736 234 88 12
-2.242135 0.070217572 -0.081203736 234 88 12
-2.2419257 0.066413805 -0.081203736 234 88 12
-2.2411928 0.053100619 -0.081203736 234 88 12
-2.2404602 0.039787438 -0.081203736 234 88 12
-2.2397275 0.026474254 -0.081203736 234 88 12
-2.2389946 0.013161072 -0.081203736 234 88 12
-2.2382619 -0.00015211066 -0.081203736 234 88 12
-2.237529 -0.013465294 -0.081203736 234 88 12
-2.2367964 -0.026778476 -0.081203736 234 88 12
-2.2360635 -0.04009166 -0.081203736 234 88 12
-2.2353308 -0.053404842 -0.081203736 234 88 12
-2.2344933 -0.068619907 -0.081203736 234 88 12
-2.2337606 -0.081933089 -0.081203736 234 88 12
-2.2330279 -0.09524627 -0.081203736 234 88 12
-2.232295 -0.10855945 -0.081203736 234 88 12
-2.2315624 -0.12187264 -0.081203736 234 88 12
-2.2308295 -0.13518582 -0.081203736 234 88 12
-2.2300968 -0.148499 -0.081203736 234 88 12
-2.2293639 -0.16181219 -0.081203736 234 88 12
-2.2288406 -0.1713216 -0.081203736 234 88 12
-2.2286313 -0.17512538 -0.081203736 234 88 12
-2.2278984 -0.18843855 -0.081203736 234 88 12
-2.2271657 -0.20175174 -0.081203736 234 88 12
-2.226433 -0.21506491 -0.081203736 234 88 12
-2.2257001 -0.2283781 -0.081203736 234 88 12
-2.2249675 -0.24169128 -0.081203736 234 88 12
-2.2242346 -0.25500447 -0.081203736 234 88 12
-2.2235019 -0.26831764 -0.081203736 234 88 12
-2.222769 -0.28163084 -0.081203736 234 88 12
-2.2220364 -0.29494402 -0.081203736 234 88 12
-2.2213035 -0.30825719 -0.081203736 234 88 12
-2.2205708 -0.32157037 -0.081203736 234 88 12
-2.2198381 -0.33488357 -0.081203736 234 88 12
-2.2191052 -0.34819674 -0.081203736 234 88 12
-2.2183726 -0.36150992 -0.081203736 234 88 12
-2.2288544 -0.17513765 -0.086913645 234 88 12
-2.2422233 0.066397421 -0.088816956 234 88 12
-2.2453775 0.11963787 -0.094526865 234 88 12
-2.2446449 0.10632469 -0.094526865 234 88 12
-2.243912 0.093011498 -0.094526865 234 88 12
-2.2431793 0.079698317 -0.094526865 234 88 12
-2.2424464 0.066385135 -0.094526865 234 88 12
-2.2421324 0.060679488 -0.094526865 234 88 12
-2.2417138 0.053071953 -0.094526865 234 88 12
-2.2409809 0.039758772 -0.094526865 234 88 12
-2.2402482 0.026445588 -0.094526865 234 88 12
-2.2395155 0.013132405 -0.094526865 234 88 12
-2.2387826 -0.00018077678 -0.094526865 234 88 12
-2.23805 -0.01349396 -0.094526865 234 88 12
-2.2373171 -0.026807142 -0.094526865 234 88 12
-2.2365844 -0.040120326 -0.094526865 234 88 12
-2.2358515 -0.053433508 -0.094526865 234 88 12
-2.2351189 -0.066746689 -0.094526865 234 88 12
-2.2342813 -0.081961758 -0.094526865 234 88 12
-2.2335486 -0.09527494 -0.094526865 234 88 12
-2.232816 -0.10858812 -0.094526865 234 88 12
-2.2320831 -0.1219013 -0.094526865 234 88 12
-2.2313504 -0.13521449 -0.094526865 234 88 12
-2.2306175 -0.14852767 -0.094526865 234 88 12
-2.2298849 -0.16184086 -0.094526865 234 88 12
-2.229152 -0.17515403 -0.094526865 234 88 12
-2.228838 -0.18085968 -0.094526865 234 88 12
-2.2284193 -0.18846722 -0.094526865 234 88 12
-2.2276864 -0.20178039 -0.094526865 234 88 12
-2.2269537 -0.21509358 -0.094526865 234 88 12
-2.2262211 -0.22840677 -0.094526865 234 88 12
-2.2254882 -0.24171995 -0.094526865 234 88 12
-2.2247555 -0.25503314 -0.094526865 234 88 12
-2.2240226 -0.26834631 -0.094526865 234 88 12
-2.22329 -0.28165948 -0.094526865 234 88 12
-2.2225571 -0.29497269 -0.094526865 234 88 12
-2.2218244 -0.30828586 -0.094526865 234 88 12
-2.2210917 -0.32159904 -0.094526865 234 88 12
-2.2203588 -0.33491224 -0.094526865 234 88 12
-2.2196262 -0.34822541 -0.094526865 234 88 12
-2.2188933 -0.36153859 -0.094526865 234 88 12
-2.2288656 -0.18849179 -0.10594669 234 88 12
-2.2458985 0.1196092 -0.10784999 234 88 12
-2.2451656 0.10629602 -0.10784999 234 88 12
-2.2444329 0.092982836 -0.10784999 234 88 12
-2.2437 0.079669654 -0.10784999 234 88 12
-2.2429674 0.066356473 -0.10784999 234 88 12
-2.2422345 0.053043287 -0.10784999 234 88 12
-2.2421298 0.051141404 -0.10784999 234 88 12
-2.2415018 0.039730106 -0.10784999 234 88 12
-2.2407689 0.026416922 -0.10784999 234 88 12
-2.2400362 0.013103739 -0.10784999 234 88 12
-2.2393036 -0.00020944289 -0.10784999 234 88 12
-2.2385707 -0.013522626 -0.10784999 234 88 12
-2.237838 -0.026835809 -0.10784999 234 88 12
-2.2371051 -0.040148992 -0.10784999 234 88 12
-2.2363725 -0.053462174 -0.10784999 234 88 12
-2.2356396 -0.066775359 -0.10784999 234 88 12
-2.2349069 -0.080088541 -0.10784999 234 88 12
-2.2340693 -0.095303603 -0.10784999 234 88 12
-2.2333367 -0.10861678 -0.10784999 234 88 12
-2.232604 -0.12192997 -0.10784999 234 88 12
-2.2318711 -0.13524315 -0.10784999 234 88 12
-2.2311385 -0.14855634 -0.10784999 234 88 12
-2.2304056 -0.16186951 -0.10784999 234 88 12
-2.2296729 -0.1751827 -0.10784999 234 88 12
-2.22894 -0.18849589 -0.10784999 234 88 12
-2.2288353 -0.19039777 -0.10784999 234 88 12
-2.2282073 -0.20180906 -0.10784999 234 88 12
-2.2274745 -0.21512225 -0.10784999 234 88 12
-2.2267418 -0.22843543 -0.10784999 234 88 12
-2.2260091 -0.24174862 -0.10784999 234 88 12
-2.2252762 -0.25506181 -0.10784999 234 88 12
-2.2245436 -0.26837498 -0.10784999 234 88 12
-2.2238107 -0.28168815 -0.10784999 234 88 12
-2.223078 -0.29500136 -0.10784999 234 88 12
-2.2223451 -0.30831453 -0.10784999 234 88 12
-2.2216125 -0.32162771 -0.10784999 234 88 12
-2.2208798 -0.33494088 -0.10784999 234 88 12
-2.2201469 -0.34825408 -0.10784999 234 88 12
-2.2194142 -0.36156726 -0.10784999 234 88 12
-2.2464192 0.11958054 -0.12117311 234 88 12
-2.2456865 0.10626736 -0.12117311 234 88 12
-2.2449536 0.092954166 -0.12117311 234 88 12
-2.244221 0.079640985 -0.12117311 234 88 12
-2.2434881 0.066327803 -0.12117311 234 88 12
-2.2427554 0.053014621 -0.12117311 234 88 12
-2.2421272 0.041603323 -0.12117311 234 88 12
-2.2420225 0.039701439 -0.12117311 234 88 12
-2.2412899 0.026388256 -0.12117311 234 88 12
-2.2405572 0.013075073 -0.12117311 234 88 12
-2.2398243 -0.00023810902 -0.12117311 234 88 12
-2.2390916 -0.013551292 -0.12117311 234 88 12
-2.2383587 -0.026864475 -0.12117311 234 88 12
-2.2376261 -0.040177658 -0.12117311 234 88 12
-2.2368932 -0.05349084 -0.12117311 234 88 12
-2.2361605 -0.066804022 -0.12117311 234 88 12
-2.2354276 -0.080117203 -0.12117311 234 88 12
-2.234695 -0.093430385 -0.12117311 234 88 12
-2.2338574 -0.10864545 -0.12117311 234 88 12
-2.2331247 -0.12195864 -0.12117311 234 88 12
-2.2323921 -0.13527182 -0.12117311 234 88 12
-2.2316592 -0.14858501 -0.12117311 234 88 12
-2.2309265 -0.16189818 -0.12117311 234 88 12
-2.2301936 -0.17521137 -0.12117311 234 88 12
-2.229461 -0.18852454 -0.12117311 234 88 12
-2.2288327 -0.19993585 -0.12117311 234 88 12
-2.2287281 -0.20183773 -0.12117311 234 88 12
-2.2279954 -0.21515092 -0.12117311 234 88 12
-2.2272627 -0.2284641 -0.12117311 234 88 12
-2.2265298 -0.24177729 -0.12117311 234 88 12
-2.2257972 -0.25509048 -0.12117311 234 88 12
-2.2250643 -0.26840365 -0.12117311 234 88 12
-2.2243316 -0.28171682 -0.12117311 234 88 12
-2.2235987 -0.29503 -0.12117311 234 88 12
-2.2228661 -0.3083432 -0.12117311 234 88 12
-2.2221332 -0.32165638 -0.12117311 234 88 12
-2.2214005 -0.33496955 -0.12117311 234 88 12
-2.2206678 -0.34828275 -0.12117311 234 88 12
-2.2199349 -0.36159593 -0.12117311 234 88 12
-2.2288771 -0.20184593 -0.12497973 234 88 12
-2.2422459 0.039689153 -0.12688303 234 88 12
-2.2469399 0.11955187 -0.13449624 234 88 12
-2.2462072 0.10623869 -0.13449624 234 88 12
-2.2454746 0.092925504 -0.13449624 234 88 12
-2.2447417 0.079612322 -0.13449624 234 88 12
-2.244009 0.06629914 -0.13449624 234 88 12
-2.2432761 0.052985955 -0.13449624 234 88 12
-2.2425435 0.039672773 -0.13449624 234 88 12
-2.2421248 0.032065239 -0.13449624 234 88 12
-2.2418106 0.02635959 -0.13449624 234 88 12
-2.2410779 0.013046407 -0.13449624 234 88 12
-2.2403452 -0.00026677514 -0.13449624 234 88 12
-2.2396123 -0.013579958 -0.13449624 234 88 12
-2.2388797 -0.026893141 -0.13449624 234 88 12
-2.2381468 -0.040206324 -0.13449624 234 88 12
-2.2374141 -0.053519506 -0.13449624 234 88 12
-2.2366812 -0.066832691 -0.13449624 234 88 12
-2.2359486 -0.080145873 -0.13449624 234 88 12
-2.2352157 -0.093459055 -0.13449624 234 88 12
-2.234483 -0.10677224 -0.13449624 234 88 12
-2.2336457 -0.12198731 -0.13449624 234 88 12
-2.2329128 -0.13530049 -0.13449624 234 88 12
-2.2321801 -0.14861366 -0.13449624 234 88 12
-2.2314472 -0.16192685 -0.13449624 234 88 12
-2.2307146 -0.17524004 -0.13449624 234 88 12
-2.2299817 -0.18855321 -0.13449624 234 88 12
-2.229249 -0.2018664 -0.13449624 234 88 12
-2.2288303 -0.20947394 -0.13449624 234 88 12
-2.2285161 -0.21517958 -0.13449624 234 88 12
-2.2277834 -0.22849277 -0.13449624 234 88 12
-2.2270508 -0.24180594 -0.13449624 234 88 12
-2.2263179 -0.25511912 -0.13449624 234 88 12
-2.2255852 -0.26843232 -0.13449624 234 88 12
-2.2248523 -0.28174549 -0.13449624 234 88 12
-2.2241197 -0.29505867 -0.13449624 234 88 12
-2.2233868 -0.30837187 -0.13449624 234 88 12
-2.2226541 -0.32168505 -0.13449624 234 88 12
-2.2219212 -0.33499822 -0.13449624 234 88 12
-2.2211885 -0.34831139 -0.13449624 234 88 12
-2.2204559 -0.3616246 -0.13449624 234 88 12
-2.2288883 -0.21520005 -0.14401276 234 88 12
-2.2422571 0.02633502 -0.14591606 234 88 12
-2.2474608 0.1195232 -0.14781937 234 88 12
-2.2467282 0.10621002 -0.14781937 234 88 12
-2.2459953 0.092896834 -0.14781937 234 88 12
-2.2452626 0.079583652 -0.14781937 234 88 12
-2.2445297 0.066270471 -0.14781937 234 88 12
-2.2437971 0.052957289 -0.14781937 234 88 12
-2.2430642 0.039644107 -0.14781937 234 88 12
-2.2423315 0.026330924 -0.14781937 234 88 12
-2.2421222 0.022527158 -0.14781937 234 88 12
-2.2415986 0.013017741 -0.14781937 234 88 12
-2.2408659 -0.00029544125 -0.14781937 234 88 12
-2.2401333 -0.013608624 -0.14781937 234 88 12
-2.2394004 -0.026921807 -0.14781937 234 88 12
-2.2386677 -0.04023499 -0.14781937 234 88 12
-2.2379348 -0.053548172 -0.14781937 234 88 12
-2.2372022 -0.066861354 -0.14781937 234 88 12
-2.2364693 -0.080174536 -0.14781937 234 88 12
-2.2357366 -0.093487717 -0.14781937 234 88 12
-2.2350037 -0.10680091 -0.14781937 234 88 12
-2.2341664 -0.12201597 -0.14781937 234 88 12
-2.2334337 -0.13532916 -0.14781937 234 88 12
-2.2327008 -0.14864233 -0.14781937 234 88 12
-2.2319682 -0.16195552 -0.14781937 234 88 12
-2.2312353 -0.17526869 -0.14781937 234 88 12
-2.2305026 -0.18858188 -0.14781937 234 88 12
-2.2297697 -0.20189506 -0.14781937 234 88 12
-2.229037 -0.21520825 -0.14781937 234 88 12
-2.2288277 -0.21901201 -0.14781937 234 88 12
-2.2283041 -0.22852144 -0.14781937 234 88 12
-2.2275715 -0.24183461 -0.14781937 234 88 12
-2.2268388 -0.25514778 -0.14781937 234 88 12
-2.2261059 -0.26846099 -0.14781937 234 88 12
-2.2253733 -0.28177416 -0.14781937 234 88 12
-2.2246404 -0.29508734 -0.14781937 234 88 12
-2.2239077 -0.30840051 -0.14781937 234 88 12
-2.2231748 -0.32171372 -0.14781937 234 88 12
-2.2224422 -0.33502689 -0.14781937 234 88 12
-2.2217093 -0.34834006 -0.14781937 234 88 12
-2.2209766 -0.36165327 -0.14781937 234 88 12
1.0708177 -1.8271614 0.74214667 234 88 12
1.0718675 -1.8285567 0.73670566 234 88 12
1.0825219 -1.8205404 0.73670566 234 88 12
1.0725673 -1.8294868 0.73307836 234 88 12
1.0740894 -1.8283416 0.73307836 234 88 12
1.0816997 -1.8226157 0.73307836 234 88 12
1.8726019 0.76906925 0.94641149 234 88 12
1.8705835 0.77441525 0.94641149 234 88 12
1.8604772 0.80317557 0.94464129 234 88 12
1.8624808 0.79986 0.94287115 234 88 12
1.8685061 0.7878828 0.93933082 234 88 12
1.8758621 0.7743721 0.93402028 234 88 12
1.8704799 0.78862804 0.93402028 234 88 12
1.8684616 0.79397404 0.93402028 234 88 12
1.8657706 0.80110198 0.93402028 234 88 12
1.8703911 0.80081046 0.92339933 234 88 12
1.877762 0.78526932 0.91985899 234 88 12
1.8764164 0.78883326 0.91985899 234 88 12
1.8717071 0.80130726 0.91985899 234 88 12
1.8783312 0.79770011 0.90746778 234 88 12
1.8769857 0.80126411 0.90746778 234 88 12
1.8735923 0.81423485 0.90392745 234 88 12
1.9553403 -0.99710667 0.41541013 234 88 12
1.9540437 -1.0007006 0.41352779 234 88 12
1.9363451 -1.040777 0.41164541 234 88 12
1.9527473 -1.0042946 0.41164541 234 88 12
1.9358296 -1.0426338 0.40976307 234 88 12
1.9431249 -1.0271178 0.40788072 234 88 12
1.9486084 -1.0170527 0.40223366 234 88 12
1.9410635 -1.0345447 0.40035132 234 88 12
1.9441878 -1.0275956 0.40035132 234 88 12
1.9488741 -1.0171721 0.40035132 234 88 12
1.9504362 -1.0136976 0.40035132 234 88 12
1.9580132 -1.0003968 0.39093953 234 88 12
1.9502186 -1.019865 0.38529247 234 88 12
1.9533429 -1.012916 0.38529247 234 88 12
1.9588103 -1.0007552 0.38529247 234 88 12
1.9622003 -0.99392563 0.38341013 234 88 12
1.9661216 -0.98733503 0.37776306 234 88 12
1.9630134 -0.99637967 0.372116 234 88 12
1.9676998 -0.98595613 0.372116 234 88 12
2.2252493 0.13487868 -0.06154405 234 88 12
2.2254889 0.12916894 -0.063447356 234 88 12
2.2270894 0.098734714 -0.065350659 234 88 12
2.2259381 0.11965543 -0.065350659 234 88 12
2.2271197 0.096828736 -0.067253962 234 88 12
2.2264917 0.10824003 -0.067253962 234 88 12
2.2257588 0.12155321 -0.067253962 234 88 12
2.2250261 0.1348664 -0.067253962 234 88 12
2.2258661 0.11011325 -0.08057709 234 88 12
2.2252381 0.12152455 -0.08057709 234 88 12
2.2243564 0.13482954 -0.084383696 234 88 12
2.2250314 0.11579023 -0.093900211 234 88 12
2.2247171 0.12149588 -0.093900211 234 88 12
2.2239845 0.13480906 -0.093900211 234 88 12
1.4238757 1.7161465 0.21491414 234 88 12
1.4280123 1.7122018 0.21301422 234 88 12
1.4172373 1.7229767 0.21301422 234 88 12
1.4483112 1.6920947 0.2111143 234 88 12
1.4442706 1.6961353 0.2111143 234 88 12
1.4308019 1.709604 0.2111143 234 88 12
1.440326 1.7002718 0.20921437 234 88 12
1.44754 1.6940173 0.19971476 234 88 12
1.4461932 1.6953641 0.19971476 234 88 12
1.4408057 1.7007517 0.19971476 234 88 12
1.4327245 1.7088329 0.19971476 234 88 12
1.4441711 1.6987295 0.18641531 234 88 12
1.4401305 1.7027701 0.18641531 234 88 12
1.4333961 1.7095045 0.18641531 234 88 12
1.4271415 1.7167186 0.17691571 234 88 12
1.4367615 1.7074825 0.17311585 234 88 12
1.4354147 1.7088293 0.17311585 234 88 12
1.4273335 1.7169105 0.17311585 234 88 12
1.5583982 -1.4454552 -0.70950067 234 88 12
1.5613688 -1.4405391 -0.71131438 234 88 12
1.5625139 -1.4390171 -0.71131438 234 88 12
1.5808369 -1.414664 -0.71131438 234 88 12
1.5888532 -1.4040096 -0.71131438 234 88 12
1.5911436 -1.4009655 -0.71131438 234 88 12
1.5792266 -1.4158362 -0.71312803 234 88 12
1.5691351 -1.4273129 -0.71675539 234 88 12
1.5881381 -1.4010879 -0.71856904 234 88 12
1.5620139 -1.4338734 -0.72219634 234 88 12
1.5665946 -1.4277852 -0.72219634 234 88 12
1.5757561 -1.4156086 -0.72219634 234 88 12
1.5769013 -1.4140866 -0.72219634 234 88 12
1.5743608 -1.4145589 -0.72763735 234 88 12
1.5821271 -1.4013326 -0.73307836 234 88 12
1.5656295 -1.4222916 -0.73489201 234 88 12
1.5713553 -1.4146813 -0.73489201 234 88 12
1.5759361 -1.4085931 -0.73489201 234 88 12
1.5816621 -1.4009827 -0.73489201 234 88 12
1.5889632 -1.3874066 -0.74214667 234 88 12
1.5880331 -1.3867067 -0.74577403 234 88 12
1.5818421 -1.3939672 -0.74758768 234 88 12
1.5864228 -1.3878789 -0.74758768 234 88 12
1.5887132 -1.3848348 -0.74758768 234 88 12
1.7968667 1.0665067 -0.78942996 234 88 12
1.7959909 1.0681983 -0.78942996 234 88 12
1.8039197 1.0487093 -0.7948122 234 88 12
1.8012924 1.0537838 -0.7948122 234 88 12
1.8080379 1.037972 -0.7984004 234 88 12
1.8095287 1.0323091 -0.80198854 234 88 12
1.8042742 1.0424581 -0.80198854 234 88 12
1.8016469 1.0475326 -0.80198854 234 88 12
1.7972682 1.0559901 -0.80198854 234 88 12
1.8014333 1.0409873 -0.81095898 234 88 12
1.7994212 1.0420904 -0.81454718 234 88 12
1.7924151 1.0556225 -0.81454718 234 88 12
1.788344 1.0620942 -0.81634128 234 88 12
1.7837046 1.0682719 -0.81992942 234 88 12
0.86412108 -1.1820408 -1.7029024 234 88 12
0.86813241 -1.1779711 -1.7029024 234 88 12
0.86883932 -1.173319 -1.7055259 234 88 12
0.86651856 -1.1737059 -1.7068375 234 88 12
0.86053991 -1.1758366 -1.7094609 234 88 12
0.86187708 -1.17448 -1.7094609 234 88 12
0.86856264 -1.1676972 -1.7094609 234 88 12
0.85188705 -1.1806802 -1.7120843 234 88 12
0.87194383 -1.1603318 -1.7120843 234 88 12
0.85294747 -1.1737019 -1.7160194 234 88 12
0.84401792 -1.1729238 -1.7225778 234 88 12
0.85471481 -1.1620713 -1.7225778 234 88 12
0.85605192 -1.1607147 -1.7225778 234 88 12
0.85373116 -1.1611018 -1.7238895 234 88 12
0.85915643 -1.1477277 -1.7291362 234 88 12
0.85353124 -1.1475321 -1.7330713 234 88 12
1.8642503 -0.29720676 -1.1920317 234 88 12
1.8647492 -0.29343006 -1.1920317 234 88 12
1.8664955 -0.28021157 -1.1920317 234 88 12
1.8579414 -0.32327166 -1.1969899 234 88 12
1.8584404 -0.31949493 -1.1969899 234 88 12
1.8551252 -0.32289961 -1.201948 234 88 12
1.8553747 -0.32101125 -1.201948 234 88 12
1.8556242 -0.31912288 -1.201948 234 88 12
1.8573705 -0.30590442 -1.201948 234 88 12
1.8591168 -0.29268593 -1.201948 234 88 12
1.8546854 -0.31899887 -1.2036009 234 88 12
1.8545543 -0.30553237 -1.2069063 234 88 12
1.8544232 -0.29206586 -1.2102118 234 88 12
1.8552308 -0.27872336 -1.2118645 234 88 12
1.854292 -0.27859932 -1.2135172 234 88 12
1.8501102 -0.3030239 -1.2151699 234 88 12
1.8513575 -0.29358214 -1.2151699 234 88 12
1.8533533 -0.27847531 -1.2151699 234 88 12
1.8529727 -0.26689714 -1.2184755 234 88 12
0.94298524 1.2568059 -1.6020734 234 88 12
0.94610918 1.2518487 -1.603469 234 88 12
0.94788629 1.2482383 -1.6048647 234 88 12
0.95682806 1.2356302 -1.6076559 234 88 12
0.94734383 1.2396146 -1.6118428 234 88 12
0.94055337 1.2409054 -1.6160295 234 88 12
0.93920648 1.2422522 -1.6160295 234 88 12
0.94814819 1.2296441 -1.6188208 234 88 12
0.95396596 1.2219931 -1.6202164 234 88 12
0.93376291 1.2421961 -1.6202164 234 88 12
0.94631499 1.2278109 -1.621612 234 88 12
0.93419313 1.2399327 -1.621612 234 88 12
0.95434004 1.214286 -1.6257988 234 88 12
0.9206683 1.2479577 -1.6257988 234 88 12
0.94173187 1.2232277 -1.6285901 234 88 12
0.93634439 1.2286152 -1.6285901 234 88 12
0.93365067 1.2313089 -1.6285901 234 88 12
0.9228757 1.2420839 -1.6285901 234 88 12
0.93359452 1.2258654 -1.6327769 234 88 12
1.0170182 -0.075676441 -1.9961919 234 88 12
1.0137374 -0.077440366 -1.9982572 234 88 12
1.0142338 -0.066022582 -1.9982572 234 88 12
1.0143993 -0.062216651 -1.9982572 234 88 12
1.0148129 -0.052701831 -1.9982572 234 88 12
1.013214 -0.052632306 -1.9992899 234 88 12
1.007755 -0.06764745 -2.002388 234 88 12
1.0078378 -0.065744489 -2.002388 234 88 12
1.0030677 -0.10176176 -2.0044532 234 88 12
1.0021306 -0.086468525 -2.005486 234 88 12
