ply
format ascii 1.0
element vertex 1834
property float x
property float y
property float z
property uchar red
property uchar green
property uchar blue
end_header
-0.28581047 0.63794529 1.886999 234 88 12
-0.28885892 0.63817036 1.8868815 234 88 12
-0.28558728 0.64042503 1.8855045 234 88 12
-0.28853872 0.64078629 1.8855045 234 88 12
-0.28821853 0.64340222 1.8841275 234 88 12
-0.28789836 0.64601815 1.8827506 234 88 12
-0.29105142 0.64610344 1.8825071 234 88 12
-0.28462669 0.64827287 1.8813736 234 88 12
-0.28710011 0.64929098 1.8819569 234 88 12
-0.29004839 0.64965183 1.8819569 234 88 12
-0.29299664 0.65001273 1.8819569 234 88 12
-0.29547349 0.65100747 1.8825208 234 88 12
-0.29786256 0.65211034 1.8831816 234 88 12
-0.30080411 0.65247041 1.8831816 234 88 12
-0.27854392 0.64996988 1.8798214 234 88 12
-0.28075927 0.65135533 1.880736 234 88 12
-0.28340667 0.65212983 1.8811057 234 88 12
-0.28631845 0.65253633 1.8811468 234 88 12
-0.28926364 0.65289682 1.8811468 234 88 12
-0.29220879 0.65325731 1.8811468 234 88 12
-0.29515398 0.6536178 1.8811468 234 88 12
-0.29754347 0.6547175 1.8818092 234 88 12
-0.30048501 0.65507752 1.8818092 234 88 12
-0.27425095 0.65365887 1.8797315 234 88 12
-0.27719635 0.65401936 1.8797315 234 88 12
-0.28010863 0.65442574 1.8797728 234 88 12
-0.28257543 0.65544361 1.8803643 234 88 12
-0.28543562 0.6559152 1.8804647 234 88 12
-0.28837702 0.65627527 1.8804647 234 88 12
-0.29131842 0.65663528 1.8804647 234 88 12
-0.29425982 0.6569953 1.8804647 234 88 12
-0.29720122 0.65735531 1.8804647 234 88 12
-0.29997662 0.65793377 1.8806618 234 88 12
-0.27098602 0.65590888 1.8783574 234 88 12
-0.27384624 0.6563887 1.8784653 234 88 12
-0.27637237 0.65733093 1.8789917 234 88 12
-0.27923372 0.65780216 1.8790925 234 88 12
-0.28217512 0.65816224 1.8790925 234 88 12
-0.28511652 0.65852225 1.8790925 234 88 12
-0.28805792 0.65888226 1.8790925 234 88 12
-0.29099932 0.65924227 1.8790925 234 88 12
-0.29394072 0.65960228 1.8790925 234 88 12
-0.29671732 0.66017991 1.8792901 234 88 12
-0.29965764 0.66053981 1.8792901 234 88 12
-0.26824427 0.65741801 1.8763095 234 88 12
-0.27066648 0.65851945 1.8769833 234 88 12
-0.27311128 0.65957832 1.8776193 234 88 12
-0.27597323 0.6600492 1.8777201 234 88 12
-0.27891463 0.66040921 1.8777201 234 88 12
-0.28185603 0.66076922 1.8777201 234 88 12
-0.28479743 0.66112924 1.8777201 234 88 12
-0.28773883 0.66148925 1.8777201 234 88 12
-0.29068023 0.66184932 1.8777201 234 88 12
-0.2936216 0.66220933 1.8777201 234 88 12
-0.29639834 0.66278601 1.8779184 234 88 12
-0.29933867 0.6631459 1.8779184 234 88 12
-0.26792434 0.66003186 1.8749336 234 88 12
-0.27034697 0.66113001 1.8756092 234 88 12
-0.2721388 0.66309386 1.8770794 234 88 12
-0.27499917 0.66355979 1.8771769 234 88 12
-0.27793607 0.66391927 1.8771769 234 88 12
-0.28097719 0.66413707 1.8770468 234 88 12
-0.2839148 0.66449666 1.8770468 234 88 12
-0.28685242 0.6648562 1.8770468 234 88 12
-0.28979003 0.66521573 1.8770468 234 88 12
-0.29330251 0.66481632 1.8763479 234 88 12
-0.29632768 0.6650666 1.8762467 234 88 12
-0.29926962 0.66542667 1.8762467 234 88 12
-0.27106538 0.6622923 1.8728987 234 88 12
-0.27136251 0.66633111 1.8762941 234 88 12
-0.27429679 0.66669029 1.8762941 234 88 12
-0.27723107 0.66704947 1.8762941 234 88 12
-0.28016534 0.66740859 1.8762941 234 88 12
-0.28309962 0.66776776 1.8762941 234 88 12
-0.28650734 0.66749507 1.8757089 234 88 12
-0.28944477 0.66785467 1.8757089 234 88 12
-0.29238221 0.6682142 1.8757089 234 88 12
-0.29576039 0.66799814 1.8751749 234 88 12
-0.29895046 0.6680342 1.8748742 234 88 12
-0.27501595 0.66787022 1.8736035 234 88 12
-0.27795735 0.66823024 1.8736035 234 88 12
-0.27984703 0.67000932 1.8749251 234 88 12
-0.2827813 0.67036843 1.8749251 234 88 12
-0.28571558 0.67072761 1.8749251 234 88 12
-0.28864986 0.67108679 1.8749251 234 88 12
-0.29158413 0.67144591 1.8749251 234 88 12
-0.29500097 0.67117721 1.8743385 234 88 12
-0.29793841 0.67153674 1.8743385 234 88 12
-0.27999511 0.671983 1.8729682 234 88 12
-0.27991083 0.67637467 1.8767524 234 88 12
-0.28282794 0.67673171 1.8767524 234 88 12
-0.28574505 0.6770888 1.8767524 234 88 12
-0.28866217 0.67744583 1.8767524 234 88 12
-0.29157925 0.67780286 1.8767524 234 88 12
-0.29449636 0.67815995 1.8767524 234 88 12
-0.27731916 0.67344427 1.8708589 234 88 12
-0.27672508 0.6785391 1.875331 234 88 12
-0.27959439 0.67896014 1.8753915 234 88 12
-0.28251147 0.67931724 1.8753915 234 88 12
-0.28542858 0.67967427 1.8753915 234 88 12
-0.28834569 0.6800313 1.8753915 234 88 12
-0.29073864 0.6810652 1.8760328 234 88 12
-0.2936523 0.68142182 1.8760328 234 88 12
-0.27349117 0.68076777 1.87397 234 88 12
-0.27316806 0.68544835 1.8780823 234 88 12
-0.2760635 0.68580276 1.8780823 234 88 12
-0.27895895 0.68615717 1.8780823 234 88 12
-0.28185439 0.68651158 1.8780823 234 88 12
-0.28474981 0.68686599 1.8780823 234 88 12
-0.28207335 0.69438809 1.8849212 234 88 12
-0.28493223 0.69473803 1.8849212 234 88 12
-0.27025723 0.68299645 1.8726089 234 88 12
-0.269696 0.68801177 1.877068 234 88 12
-0.27029118 0.69142097 1.8799943 234 88 12
-0.27316922 0.69177324 1.8799943 234 88 12
-0.27422267 0.69451523 1.8822861 234 88 12
-0.27604547 0.69622213 1.8835875 234 88 12
-0.27890435 0.69657201 1.8835875 234 88 12
-0.28117919 0.6976704 1.8843066 234 88 12
-0.2846221 0.69727188 1.8835875 234 88 12
-0.26702332 0.68522513 1.8712479 234 88 12
-0.2646172 0.69273728 1.8781409 234 88 12
-0.26710093 0.69361955 1.8786516 234 88 12
-0.2669352 0.69800216 1.8825392 234 88 12
-0.26959658 0.69860947 1.8827878 234 88 12
-0.27183607 0.69976348 1.8835647 234 88 12
-0.27468798 0.70011252 1.8835647 234 88 12
-0.27801442 0.69985139 1.8829746 234 88 12
-0.28086948 0.70020086 1.8829746 234 88 12
-0.28452998 0.69952941 1.8819861 234 88 12
-0.26293838 0.69289482 1.8748161 234 88 12
-0.26391065 0.69581819 1.8773088 234 88 12
-0.26444903 0.69927967 1.8803273 234 88 12
-0.26643071 0.70079124 1.8814554 234 88 12
-0.26826665 0.70247644 1.8827536 234 88 12
-0.2710427 0.7029202 1.8828461 234 88 12
-0.27351058 0.70376015 1.8833243 234 88 12
-0.2763567 0.70410854 1.8833243 234 88 12
-0.28055975 0.70273131 1.8816427 234 88 12
-0.26185381 0.70069605 1.8782398 234 88 12
-0.26165497 0.70510423 1.8822066 234 88 12
-0.26449999 0.7054525 1.8822066 234 88 12
-0.26734498 0.70580071 1.8822066 234 88 12
-0.27019 0.70614892 1.8822066 234 88 12
-0.27303499 0.70649713 1.8822066 234 88 12
-0.2758919 0.7068302 1.8821917 234 88 12
-0.279773 0.70586604 1.8809037 234 88 12
-0.25874063 0.70695966 1.8805665 234 88 12
-0.26134634 0.70762587 1.8808793 234 88 12
-0.26419133 0.70797408 1.8808793 234 88 12
-0.26703635 0.70832229 1.8808793 234 88 12
-0.26956922 0.70907307 1.8812764 234 88 12
-0.27241212 0.70942104 1.8812764 234 88 12
-0.27557135 0.70936698 1.8808793 234 88 12
-0.26103768 0.71014744 1.879552 234 88 12
-0.2638827 0.71049565 1.879552 234 88 12
-0.26672772 0.71084386 1.879552 234 88 12
-0.26926082 0.71159279 1.8799502 234 88 12
-0.27210373 0.71194077 1.8799502 234 88 12
-0.27526271 0.71188855 1.879552 234 88 12
-0.26698717 0.71263307 1.8774924 234 88 12
-0.26926407 0.71371371 1.8782247 234 88 12
-0.45965958 0.61594987 1.9104261 234 88 12
-0.44669497 0.60649979 1.9062113 234 88 12
-0.43284515 0.60300523 1.9078158 234 88 12
-0.48190585 0.65380532 1.9187007 234 88 12
-0.47156489 0.62478495 1.8956121 234 88 12
-0.45898032 0.61265206 1.8888264 234 88 12
-0.44549814 0.60690093 1.8882186 234 88 12
-0.43215364 0.60030603 1.8867874 234 88 12
-0.41865358 0.59476674 1.8863806 234 88 12
-0.4050042 0.59015286 1.8868762 234 88 12
-0.39044362 0.59085196 1.8925723 234 88 12
-0.48105419 0.65114212 1.8976513 234 88 12
-0.47009462 0.62680423 1.8792019 234 88 12
-0.45710897 0.61752045 1.8752004 234 88 12
-0.44360599 0.61191285 1.8747349 234 88 12
-0.43040323 0.60441488 1.8724393 234 88 12
-0.41697612 0.59845102 1.8716221 234 88 12
-0.4032639 0.59425324 1.8725163 234 88 12
-0.38923454 0.59185839 1.8751665 234 88 12
-0.37420484 0.59500217 1.8832202 234 88 12
-0.35708526 0.60926259 1.9021475 234 88 12
-0.34349397 0.60348767 1.9015596 234 88 12
-0.47848094 0.66103369 1.8886801 234 88 12
-0.46759129 0.63609588 1.869782 234 88 12
-0.45503271 0.6237821 1.8629107 234 88 12
-0.44164044 0.61740774 1.8617145 234 88 12
-0.42843691 0.60990548 1.8594302 234 88 12
-0.41494951 0.60430229 1.8589662 234 88 12
-0.40137321 0.59926128 1.8590429 234 88 12
-0.38724956 0.59741133 1.8622026 234 88 12
-0.37249506 0.59896177 1.8686641 234 88 12
-0.35591462 0.6102373 1.8845756 234 88 12
-0.34223041 0.60507101 1.8845756 234 88 12
-0.32815337 0.60196269 1.8865776 234 88 12
-0.4634262 0.65700334 1.8713464 234 88 12
-0.45176035 0.63814431 1.8583152 234 88 12
-0.43897504 0.62749469 1.8530661 234 88 12
-0.42595848 0.61865312 1.8495255 234 88 12
-0.41262758 0.61197335 1.8480408 234 88 12
-0.39893517 0.60755116 1.8487144 234 88 12
-0.38478944 0.60573053 1.8518876 234 88 12
-0.37018517 0.60632581 1.8573948 234 88 12
-0.35415587 0.61446959 1.8701921 234 88 12
-0.34047541 0.60930473 1.8701921 234 88 12
-0.32637349 0.60634416 1.8723227 234 88 12
-0.31113711 0.60905719 1.8799541 234 88 12
-0.43432203 0.65057325 1.8566623 234 88 12
-0.42099357 0.64317131 1.8545396 234 88 12
-0.40757218 0.63647461 1.8530802 234 88 12
-0.39523992 0.62334973 1.845495 234 88 12
-0.3815079 0.61881304 1.8460751 234 88 12
-0.3655706 0.62671429 1.8585405 234 88 12
-0.35192123 0.62132394 1.8583281 234 88 12
-0.33823252 0.61615598 1.8583281 234 88 12
-0.32408777 0.61336923 1.860615 234 88 12
-0.30586222 0.63123775 1.8827811 234 88 12
-0.29044589 0.63402486 1.8904902 234 88 12
-0.27486917 0.63720459 1.898605 234 88 12
-0.42781404 0.68568158 1.871362 234 88 12
-0.41638961 0.66531205 1.8570753 234 88 12
-0.40311104 0.65723604 1.85435 234 88 12
-0.38926396 0.65272075 1.8549839 234 88 12
-0.37557858 0.64722925 1.854695 234 88 12
-0.36156461 0.64360929 1.8561816 234 88 12
-0.34840918 0.63518912 1.8531086 234 88 12
-0.33505803 0.62798482 1.8511834 234 88 12
-0.31933573 0.63324529 1.8611455 234 88 12
-0.30335188 0.63931316 1.8719139 234 88 12
-0.28927138 0.63539183 1.8731548 234 88 12
-0.27453655 0.63457507 1.8773777 234 88 12
-0.42579696 0.69137669 1.8581923 234 88 12
-0.41256899 0.68242306 1.8546922 234 88 12
-0.39878246 0.67711532 1.8546013 234 88 12
-0.38498059 0.67190462 1.8546013 234 88 12
-0.37093061 0.66813105 1.8559544 234 88 12
-0.35667929 0.6654132 1.858308 234 88 12
-0.34279031 0.66057557 1.8586668 234 88 12
-0.32917771 0.65424186 1.8576109 234 88 12
-0.31524467 0.64963281 1.8581865 234 88 12
-0.30142552 0.64441562 1.8581865 234 88 12
-0.28734419 0.64049649 1.8594214 234 88 12
-0.27274275 0.63902891 1.8629969 234 88 12
-0.42342234 0.69939345 1.8471726 234 88 12
-0.41021761 0.69021398 1.8434895 234 88 12
-0.39662009 0.6836707 1.8422515 234 88 12
-0.38257232 0.67988056 1.8435805 234 88 12
-0.36808774 0.67853588 1.8472017 234 88 12
-0.35275787 0.68173385 1.8550922 234 88 12
-0.33874115 0.6772967 1.8558426 234 88 12
-0.32567602 0.66774446 1.851786 234 88 12
-0.31254682 0.65874434 1.8482352 234 88 12
-0.29895732 0.65226382 1.8470498 234 88 12
-0.28475919 0.64885336 1.848762 234 88 12
-0.2700631 0.64775974 1.8526738 234 88 12
-0.40768364 0.69914156 1.8333054 234 88 12
-0.39403567 0.6927976 1.8322661 234 88 12
-0.37995261 0.68909913 1.8336779 234 88 12
-0.36505553 0.69001222 1.8393806 234 88 12
-0.34978852 0.69266897 1.8467262 234 88 12
-0.33423048 0.69649822 1.8551904 234 88 12
-0.32086781 0.68817258 1.8523285 234 88 12
-0.30731705 0.68097794 1.8505151 234 88 12
-0.29444289 0.67045605 1.8455764 234 88 12
-0.28096154 0.66318715 1.8436754 234 88 12
-0.26442692 0.6707294 1.8557003 234 88 12
-0.40382344 0.71637601 1.8307068 234 88 12
-0.39044809 0.70802027 1.8278419 234 88 12
-0.37651089 0.70316821 1.8281969 234 88 12
-0.362151 0.70072842 1.8307806 234 88 12
-0.34671342 0.7041747 1.8388176 234 88 12
-0.33114135 0.70789617 1.8471371 234 88 12
-0.31710231 0.70300847 1.8474946 234 88 12
-0.30363116 0.69516003 1.8451005 234 88 12
-0.28960899 0.6902222 1.845409 234 88 12
-0.27479082 0.68919212 1.8493644 234 88 12
-0.26038271 0.68598783 1.8513013 234 88 12
-0.40097556 0.72721589 1.8221269 234 88 12
-0.3877016 0.71808469 1.8185804 234 88 12
-0.37372494 0.71332532 1.8190256 234 88 12
-0.35918802 0.71175855 1.8224013 234 88 12
-0.34300089 0.71922135 1.8340861 234 88 12
-0.32901034 0.71405548 1.834186 234 88 12
-0.31470779 0.71053916 1.8358072 234 88 12
-0.29962778 0.71095484 1.8410659 234 88 12
-0.28506127 0.70850015 1.8436868 234 88 12
-0.27168739 0.70003849 1.8407491 234 88 12
-0.25406414 0.71214926 1.8569018 234 88 12
-0.36881322 0.73599821 1.8211815 234 88 12
-0.35494727 0.73009425 1.8206093 234 88 12
-0.34095693 0.72491825 1.8206998 234 88 12
-0.32668135 0.72128731 1.8222036 234 88 12
-0.31160209 0.72182822 1.8275341 234 88 12
-0.3628937 0.61679894 1.9124315 234 88 12
-0.34377992 0.60955596 1.9025604 234 88 12
-0.33122388 0.61606443 1.9030985 234 88 12
-0.3274022 0.64148736 1.9178742 234 88 12
-0.41668037 0.59774834 1.90011 234 88 12
-0.40200832 0.6000855 1.8974727 234 88 12
-0.38914847 0.60606515 1.8975953 234 88 12
-0.37659779 0.61268908 1.8982028 234 88 12
-0.35685256 0.60425955 1.8874868 234 88 12
-0.34366423 0.6094057 1.8870019 234 88 12
-0.33078372 0.6151967 1.8870019 234 88 12
-0.31888786 0.62311828 1.8885951 234 88 12
-0.31055528 0.63888186 1.8960359 234 88 12
-0.29515898 0.63924259 1.8919733 234 88 12
-0.28052288 0.64118153 1.8890995 234 88 12
-0.27156895 0.6558857 1.8957114 234 88 12
-0.45209011 0.60502225 1.8988746 234 88 12
-0.42925549 0.59138262 1.8841716 234 88 12
-0.41509265 0.59475207 1.8823277 234 88 12
-0.40199569 0.6002332 1.8820772 234 88 12
-0.38903278 0.60598218 1.8820286 234 88 12
-0.37346289 0.60632652 1.8779351 234 88 12
-0.35744753 0.60562056 1.8730724 234 88 12
-0.34454805 0.6113717 1.8730426 234 88 12
-0.33166754 0.6171627 1.8730426 234 88 12
-0.31913313 0.62370259 1.8735988 234 88 12
-0.30978417 0.63722754 1.8793321 234 88 12
-0.29604658 0.64121681 1.8779869 234 88 12
-0.2831383 0.64702028 1.8779869 234 88 12
-0.27143627 0.65555215 1.8799984 234 88 12
-0.25977865 0.66424751 1.8821229 234 88 12
-0.26055303 0.70177233 1.9054161 234 88 12
-0.46749273 0.60404247 1.8869299 234 88 12
-0.44747534 0.59617341 1.8766247 234 88 12
-0.42932358 0.59172845 1.8689238 234 88 12
-0.41592419 0.59661406 1.8682282 234 88 12
-0.40286583 0.60217226 1.8680371 234 88 12
-0.38990536 0.60792589 1.8679923 234 88 12
-0.37697449 0.61373949 1.8679923 234 88 12
-0.35866988 0.60829574 1.8596392 234 88 12
-0.34545034 0.61337686 1.8591124 234 88 12
-0.33256969 0.61916792 1.8591124 234 88 12
-0.3213191 0.6284861 1.8617148 234 88 12
-0.31050217 0.63883072 1.8650633 234 88 12
-0.29741696 0.64425886 1.8647854 234 88 12
-0.2845042 0.65006435 1.8647854 234 88 12
-0.27204362 0.65689248 1.8655344 234 88 12
-0.26066783 0.66622525 1.8681114 234 88 12
-0.25738207 0.69435573 1.8843938 234 88 12
-0.24850613 0.70991778 1.8914628 234 88 12
-0.4683376 0.60593593 1.8727278 234 88 12
-0.45099303 0.60332358 1.8664111 234 88 12
-0.43122861 0.5957256 1.8564091 234 88 12
-0.4168869 0.59873945 1.8543254 234 88 12
-0.40380007 0.60424143 1.8540938 234 88 12
-0.39082384 0.60996372 1.854026 234 88 12
-0.37798724 0.61597335 1.8541706 234 88 12
-0.36804518 0.62805128 1.8587869 234 88 12
-0.3494142 0.62186491 1.8499507 234 88 12
-0.33808646 0.63105071 1.8524342 234 88 12
-0.32837683 0.6438117 1.8575283 234 88 12
-0.31165296 0.64138079 1.851491 234 88 12
-0.29847586 0.64661205 1.8510704 234 88 12
-0.28566352 0.65264624 1.8512366 234 88 12
-0.27376547 0.66075355 1.8529102 234 88 12
-0.26953959 0.68646252 1.8673567 234 88 12
-0.2579976 0.69569981 1.8698128 234 88 12
-0.2482632 0.70924515 1.8753762 234 88 12
-0.45527917 0.61198658 1.857265 234 88 12
-0.43867236 0.61073399 1.8520106 234 88 12
-0.42139518 0.60798681 1.8456738 234 88 12
-0.40622476 0.60933584 1.8423765 234 88 12
-0.39359179 0.61579502 1.8428462 234 88 12
-0.3847332 0.63009161 1.8490617 234 88 12
-0.37463832 0.64197934 1.8534907 234 88 12
-0.36403337 0.65291715 1.8572088 234 88 12
-0.35125121 0.65930492 1.8575952 234 88 12
-0.33636761 0.66115683 1.8546786 234 88 12
-0.31802371 0.65535051 1.8462093 234 88 12
-0.30110875 0.65244675 1.8398763 234 88 12
-0.29501638 0.67355406 1.8509457 234 88 12
-0.2842935 0.68453211 1.8546563 234 88 12
-0.27168411 0.69131136 1.8553253 234 88 12
-0.25915602 0.69829983 1.8561424 234 88 12
-0.25140077 0.71648335 1.8649994 234 88 12
-0.46176252 0.65685117 1.8703101 234 88 12
-0.43810746 0.64175051 1.8549066 234 88 12
-0.42296496 0.64348865 1.8518722 234 88 12
-0.41013873 0.64989036 1.8522522 234 88 12
-0.39775008 0.65721035 1.8532997 234 88 12
-0.38518459 0.66419053 1.8540963 234 88 12
-0.37319338 0.67241043 1.8557893 234 88 12
-0.36075568 0.67972511 1.8568205 234 88 12
-0.34613708 0.68235147 1.8544586 234 88 12
-0.33126363 0.68434846 1.8516515 234 88 12
-0.3140319 0.68104303 1.8450361 234 88 12
-0.3000991 0.68491107 1.8436021 234 88 12
-0.28614813 0.68869323 1.8421117 234 88 12
-0.27329436 0.69493806 1.8423905 234 88 12
-0.26591596 0.7138586 1.8517294 234 88 12
-0.41971749 0.66969508 1.8509794 234 88 12
-0.40464011 0.67162991 1.8481002 234 88 12
-0.39105049 0.67659694 1.8474209 234 88 12
-0.37827367 0.68326503 1.84797 234 88 12
-0.36647895 0.69205195 1.8500409 234 88 12
-0.35226217 0.69566035 1.8483864 234 88 12
-0.3374615 0.69794077 1.8457866 234 88 12
-0.32394138 0.70297337 1.8451649 234 88 12
-0.31131414 0.70998359 1.8459573 234 88 12
-0.30207142 0.72467357 1.8522191 234 88 12
-0.4236227 0.67786258 1.841153 234 88 12
-0.40797418 0.67867851 1.8374816 234 88 12
-0.39462167 0.68419605 1.8371949 234 88 12
-0.3819671 0.69118309 1.837961 234 88 12
-0.36995035 0.69955873 1.839716 234 88 12
-0.35574448 0.70325059 1.838125 234 88 12
-0.34106272 0.70585227 1.8357643 234 88 12
-0.32764646 0.71117991 1.8353486 234 88 12
-0.3158634 0.72014731 1.8375149 234 88 12
-0.39818507 0.69177932 1.8269019 234 88 12
-0.38540089 0.69855165 1.8275026 234 88 12
-0.37298077 0.70612174 1.8286668 234 88 12
-0.35928333 0.71096331 1.8278949 234 88 12
-0.34484819 0.71416706 1.8259686 234 88 12
-0.33111119 0.7188549 1.8250961 234 88 12
-0.31985593 0.72906572 1.8281153 234 88 12
-0.40439954 0.70491803 1.8204811 234 88 12
-0.38973799 0.70783371 1.8183411 234 88 12
-0.3768504 0.71448153 1.8188381 234 88 12
-0.36312264 0.7193265 1.8180656 234 88 12
-0.34963495 0.72467262 1.8176478 234 88 12
-0.33718231 0.73229516 1.8188258 234 88 12
-0.47920817 0.64490986 1.9287775 234 88 12
-0.47263336 0.62390298 1.9104643 234 88 12
-0.46393055 0.60776848 1.901034 234 88 12
-0.45289236 0.59669852 1.9009938 234 88 12
-0.48333663 0.66230887 1.9148566 234 88 12
-0.47589925 0.64309138 1.9000292 234 88 12
-0.46784425 0.62548316 1.8880048 234 88 12
-0.45741028 0.61314529 1.8856084 234 88 12
-0.44637361 0.60210866 1.8856084 234 88 12
-0.43488121 0.59200716 1.8873591 234 88 12
-0.42283568 0.58299053 1.8911715 234 88 12
-0.47663021 0.66793364 1.8998016 234 88 12
-0.46895951 0.64929515 1.886108 234 88 12
-0.46047226 0.63266695 1.8759438 234 88 12
-0.45002013 0.62037873 1.8736514 234 88 12
-0.43898511 0.60934371 1.8736514 234 88 12
-0.42744672 0.59933734 1.8755641 234 88 12
-0.4160291 0.58905429 1.8769807 234 88 12
-0.40425593 0.57944924 1.8796877 234 88 12
-0.46815735 0.67748815 1.8918586 234 88 12
-0.46041033 0.65901506 1.8785745 234 88 12
-0.45217919 0.6418255 1.8674796 234 88 12
-0.4420186 0.62890154 1.8640572 234 88 12
-0.43097818 0.61786115 1.8640572 234 88 12
-0.41983733 0.60702521 1.8644348 234 88 12
-0.40844259 0.59669095 1.8657483 234 88 12
-0.39688197 0.58666027 1.867643 234 88 12
-0.38310584 0.58088958 1.8775576 234 88 12
-0.45044461 0.67178768 1.8764687 234 88 12
-0.44193399 0.65513229 1.8664626 234 88 12
-0.43274194 0.64008963 1.8592747 234 88 12
-0.42241764 0.62751234 1.8565069 234 88 12
-0.41157106 0.61604404 1.8557432 234 88 12
-0.40040123 0.60523421 1.8561853 234 88 12
-0.38865909 0.59553981 1.8587011 234 88 12
-0.37532914 0.58886737 1.8668801 234 88 12
-0.42933095 0.67339766 1.8741951 234 88 12
-0.42062026 0.65718907 1.8650575 234 88 12
-0.40983236 0.64541316 1.8638535 234 88 12
-0.40084875 0.6300137 1.8560345 234 88 12
-0.39028439 0.61789525 1.8541405 234 88 12
-0.37905186 0.60711676 1.8546938 234 88 12
-0.36646914 0.59892654 1.860047 234 88 12
-0.34861654 0.6006217 1.8838698 234 88 12
-0.3366805 0.59088618 1.8865515 234 88 12
-0.41506609 0.7304126 1.9304761 234 88 12
-0.42003539 0.68458229 1.8690621 234 88 12
-0.41070738 0.66961902 1.8622493 234 88 12
-0.40037605 0.65683246 1.8592811 234 88 12
-0.39004445 0.64410001 1.8563786 234 88 12
-0.38073665 0.62939185 1.8498498 234 88 12
-0.36933467 0.61887932 1.8509251 234 88 12
-0.3531566 0.61750591 1.8688232 234 88 12
-0.34127063 0.60772443 1.8713673 234 88 12
-0.3294546 0.59776944 1.8736172 234 88 12
-0.42300415 0.70458579 1.8596948 234 88 12
-0.41247305 0.69208807 1.8573363 234 88 12
-0.40151745 0.68051326 1.8565936 234 88 12
-0.39015868 0.6697737 1.8573363 234 88 12
-0.3786923 0.65923655 1.8584507 234 88 12
-0.36761251 0.64791673 1.8581629 234 88 12
-0.35603365 0.63757104 1.8596418 234 88 12
-0.34440544 0.62729377 1.861262 234 88 12
-0.33323649 0.61612481 1.861262 234 88 12
-0.32102257 0.60689032 1.8648351 234 88 12
-0.41503561 0.7129513 1.8494595 234 88 12
-0.40476736 0.69989538 1.8461429 234 88 12
-0.39369315 0.68856382 1.8458368 234 88 12
-0.38236544 0.67775255 1.8464512 234 88 12
-0.37026507 0.66847396 1.8498083 234 88 12
-0.35606575 0.66326207 1.8605011 234 88 12
-0.34478036 0.65222323 1.8607943 234 88 12
-0.33488977 0.63852292 1.8562617 234 88 12
-0.32392833 0.62690836 1.8554847 234 88 12
-0.30912316 0.62239975 1.8677349 234 88 12
-0.29268628 0.62064773 1.885206 234 88 12
-0.40590104 0.72378719 1.8434952 234 88 12
-0.39658788 0.70869106 1.8366698 234 88 12
-0.38558525 0.69719404 1.8360863 234 88 12
-0.37407792 0.68672854 1.8373159 234 88 12
-0.36083221 0.67970139 1.8446555 234 88 12
-0.34560797 0.67641944 1.8587506 234 88 12
-0.3330934 0.66766322 1.8631865 234 88 12
-0.32187745 0.65636468 1.8630891 234 88 12
-0.31034803 0.64565355 1.8640548 234 88 12
-0.29850861 0.63549602 1.86604 234 88 12
-0.28600612 0.62650561 1.8701851 234 88 12
-0.39813504 0.73170251 1.8324202 234 88 12
-0.38726088 0.71986586 1.8312933 234 88 12
-0.37614343 0.70854837 1.8310591 234 88 12
-0.3645862 0.69812143 1.8323824 234 88 12
-0.35149023 0.69072264 1.8390534 234 88 12
-0.33497012 0.68988967 1.8574213 234 88 12
-0.32317573 0.67965019 1.859242 234 88 12
-0.31298795 0.66633952 1.8555853 234 88 12
-0.30186045 0.65484238 1.8551526 234 88 12
-0.29043362 0.64390153 1.8557216 234 88 12
-0.27785161 0.63503671 1.860074 234 88 12
-0.2629717 0.63018399 1.8718148 234 88 12
-0.38946202 0.7415266 1.8246084 234 88 12
-0.37910628 0.72858268 1.8216019 234 88 12
-0.36794901 0.71732962 1.8214906 234 88 12
-0.35590932 0.70785052 1.824465 234 88 12
-0.33972403 0.70651132 1.8417104 234 88 12
-0.32771629 0.69673604 1.8443037 234 88 12
-0.31402093 0.69014698 1.8525585 234 88 12
-0.30288112 0.67859459 1.8520793 234 88 12
-0.29249313 0.66565478 1.849115 234 88 12
-0.28122079 0.65438247 1.849115 234 88 12
-0.26911554 0.64460945 1.8518242 234 88 12
-0.2507619 0.64586723 1.8746051 234 88 12
-0.36566341 0.74821353 1.8305528 234 88 12
-0.35462457 0.73653042 1.8298103 234 88 12
-0.34337252 0.7252875 1.8298208 234 88 12
-0.33198854 0.71430415 1.8302824 234 88 12
-0.31910831 0.70621365 1.8358022 234 88 12
-0.3054316 0.69954568 1.8438792 234 88 12
-0.29188776 0.69248629 1.8513521 234 88 12
-0.28056219 0.68119186 1.851388 234 88 12
-0.26969701 0.66905779 1.8499256 234 88 12
-0.25655609 0.66103297 1.8558215 234 88 12
-0.34656879 0.74497581 1.8194951 234 88 12
-0.33540663 0.73354161 1.8191841 234 88 12
-0.32359889 0.72338009 1.8210663 234 88 12
-0.30904588 0.71848953 1.8321134 234 88 12
-0.29164514 0.71882111 1.852387 234 88 12
-0.28092143 0.70628756 1.8503177 234 88 12
-0.26957601 0.69493699 1.8503119 234 88 12
-0.25773078 0.68449467 1.8519158 234 88 12
-0.27458966 0.7442205 1.8712306 234 88 12
-0.26830676 0.72312862 1.8544329 234 88 12
-0.25901419 0.70786458 1.8476595 234 88 12
-0.24203892 0.70663399 1.8655185 234 88 12
-0.44322762 0.59438044 1.9074829 234 88 12
-0.42342007 0.58497238 1.8925122 234 88 12
-0.4067637 0.58645272 1.8910159 234 88 12
-0.39060697 0.5897308 1.8917403 234 88 12
-0.37508023 0.59542543 1.8954418 234 88 12
-0.35850424 0.59718794 1.8942944 234 88 12
-0.34205329 0.59940279 1.8937058 234 88 12
-0.32584307 0.60257477 1.8942944 234 88 12
-0.46088204 0.60008323 1.892662 234 88 12
-0.44176933 0.59331065 1.8810238 234 88 12
-0.42430171 0.5919708 1.8760743 234 88 12
-0.4079425 0.59447658 1.8758488 234 88 12
-0.39173365 0.59753233 1.8762972 234 88 12
-0.3758516 0.6018461 1.878284 234 88 12
-0.35976678 0.60544807 1.879397 234 88 12
-0.34339142 0.60793722 1.8791488 234 88 12
-0.32723954 0.61132801 1.8800011 234 88 12
-0.31128007 0.61555815 1.8818749 234 88 12
-0.29735562 0.62859499 1.8944694 234 88 12
-0.2812525 0.63258761 1.8960369 234 88 12
-0.26610616 0.64097536 1.9029434 234 88 12
-0.48143077 0.61548913 1.8897105 234 88 12
-0.46224162 0.60882115 1.8782631 234 88 12
-0.44314104 0.60206389 1.8667287 234 88 12
-0.42584026 0.60129911 1.8625163 234 88 12
-0.40948093 0.60380429 1.8622917 234 88 12
-0.39327228 0.60686129 1.8627384 234 88 12
-0.37733141 0.61095333 1.8644415 234 88 12
-0.36130682 0.61478543 1.8658259 234 88 12
-0.3449313 0.61727393 1.8655787 234 88 12
-0.32877985 0.62066698 1.8664277 234 88 12
-0.31297722 0.62555528 1.8690844 234 88 12
-0.29832816 0.63550836 1.877859 234 88 12
-0.28203714 0.63860929 1.878341 234 88 12
-0.26616547 0.64362925 1.8811377 234 88 12
-0.25126982 0.6533159 1.8895549 234 88 12
-0.48453707 0.63009459 1.8823553 234 88 12
-0.46391651 0.61863381 1.8651776 234 88 12
-0.44558191 0.61454308 1.8569542 234 88 12
-0.42781684 0.61218762 1.8508451 234 88 12
-0.41127196 0.61405152 1.8498455 234 88 12
-0.39512351 0.61735374 1.8505839 234 88 12
-0.37916765 0.62141705 1.8522387 234 88 12
-0.36358079 0.62698251 1.8557001 234 88 12
-0.34679547 0.62790418 1.8535656 234 88 12
-0.3306872 0.6315062 1.8546581 234 88 12
-0.31617674 0.64184779 1.8638451 234 88 12
-0.299797 0.64454931 1.8638451 234 88 12
-0.28353044 0.64775008 1.8644438 234 88 12
-0.26747689 0.65194201 1.8662286 234 88 12
-0.25241554 0.66083354 1.8736346 234 88 12
-0.46778736 0.63595611 1.8611175 234 88 12
-0.44955114 0.63236707 1.8535476 234 88 12
-0.43273059 0.63355595 1.8517283 234 88 12
-0.41556492 0.63342041 1.8483241 234 88 12
-0.39861506 0.63396168 1.8457373 234 88 12
-0.3836334 0.64190668 1.8520188 234 88 12
-0.36793336 0.64729458 1.8552301 234 88 12
-0.35177547 0.65098208 1.8564035 234 88 12
-0.33549547 0.6542179 1.8570355 234 88 12
-0.31789628 0.6519478 1.8510997 234 88 12
-0.30145857 0.65441877 1.8508242 234 88 12
-0.28513637 0.65738732 1.8511416 234 88 12
-0.26940769 0.66306007 1.8546742 234 88 12
-0.25439212 0.67221731 1.8623405 234 88 12
-0.24182545 0.69346571 1.8843448 234 88 12
-0.45672283 0.66141146 1.8633786 234 88 12
-0.43858382 0.65831214 1.8564396 234 88 12
-0.42135239 0.65826982 1.8531537 234 88 12
-0.40501556 0.6614421 1.853698 234 88 12
-0.38885388 0.66530389 1.8550608 234 88 12
-0.37278119 0.66956645 1.8568969 234 88 12
-0.35655528 0.67329031 1.8580905 234 88 12
-0.33952874 0.67378378 1.8554535 234 88 12
-0.3215549 0.6701895 1.8479815 234 88 12
-0.30387965 0.66755873 1.8416632 234 88 12
-0.28773153 0.67139512 1.8429997 234 88 12
-0.27322876 0.68275511 1.8532165 234 88 12
-0.25840899 0.69311291 1.862232 234 88 12
-0.24303149 0.70122904 1.8685888 234 88 12
-0.42609543 0.67934299 1.8532515 234 88 12
-0.4094708 0.68170083 1.8528171 234 88 12
-0.39294672 0.68442613 1.8528171 234 88 12
-0.37664264 0.68801171 1.8538311 234 88 12
-0.36049226 0.69225335 1.8556157 234 88 12
-0.34366667 0.69380015 1.8542265 234 88 12
-0.32630989 0.69305611 1.8501472 234 88 12
-0.30929857 0.69362408 1.8476163 234 88 12
-0.29283959 0.6965217 1.8478233 234 88 12
-0.27646914 0.69983071 1.8485122 234 88 12
-0.26020974 0.70368987 1.8498439 234 88 12
-0.24648681 0.71977538 1.8654772 234 88 12
-0.42812178 0.69050574 1.8415191 234 88 12
-0.41129425 0.69214225 1.8402402 234 88 12
-0.39477211 0.69489747 1.8402742 234 88 12
-0.3784458 0.69842058 1.8412067 234 88 12
-0.36260721 0.70393604 1.8444666 234 88 12
-0.346876 0.7100274 1.848393 234 88 12
-0.33033147 0.71286452 1.8485147 234 88 12
-0.31375736 0.71557939 1.8484937 234 88 12
-0.29722732 0.71848834 1.8486987 234 88 12
-0.2798079 0.71736586 1.8442124 234 88 12
-0.26747087 0.73975432 1.8670669 234 88 12
-0.41448644 0.70771235 1.8336157 234 88 12
-0.39769533 0.70957613 1.8326062 234 88 12
-0.38113582 0.71230733 1.8326062 234 88 12
-0.36475408 0.71575165 1.8334339 234 88 12
-0.34873652 0.72072691 1.8360351 234 88 12
-0.332311 0.7240954 1.8367703 234 88 12
-0.31573117 0.72682995 1.8367703 234 88 12
-0.3996557 0.72057486 1.8206019 234 88 12
-0.38304767 0.72315103 1.8204216 234 88 12
-0.36671653 0.72683173 1.8215141 234 88 12
-0.35071847 0.73192829 1.8242344 234 88 12
-0.33408988 0.73448408 1.8240277 234 88 12
-0.35259387 0.74269462 1.8119076 234 88 12
-0.27910033 0.64618516 1.9019296 234 88 12
-0.27049428 0.65833175 1.9022925 234 88 12
-0.34137321 0.6022402 1.9037286 234 88 12
-0.33140397 0.61325836 1.9025927 234 88 12
-0.32605943 0.6284768 1.9067228 234 88 12
-0.3023071 0.62681669 1.8898109 234 88 12
-0.28977272 0.63532448 1.8856621 234 88 12
-0.28096727 0.64726555 1.8857831 234 88 12
-0.27066007 0.65778798 1.8841662 234 88 12
-0.26357892 0.67136544 1.8862865 234 88 12
-0.26286826 0.69111091 1.8958552 234 88 12
-0.25664851 0.70564574 1.8990453 234 88 12
-0.26779875 0.73726654 1.922681 234 88 12
-0.35359716 0.59271526 1.8890883 234 88 12
-0.34232247 0.60257035 1.8864946 234 88 12
-0.33289233 0.61405343 1.8859634 234 88 12
-0.32440335 0.62638664 1.8864946 234 88 12
-0.30448422 0.62821227 1.8740323 234 88 12
-0.29398942 0.63860238 1.8722332 234 88 12
-0.28478998 0.65017933 1.8719045 234 88 12
-0.2742767 0.66050911 1.8700625 234 88 12
-0.26719835 0.67408866 1.8721716 234 88 12
-0.26514518 0.69253874 1.8801202 234 88 12
-0.25715712 0.70534253 1.8812258 234 88 12
-0.25354767 0.72245646 1.887453 234 88 12
-0.40203947 0.5949983 1.9045614 234 88 12
-0.38689128 0.60170579 1.8978183 234 88 12
-0.35639846 0.59471011 1.8739496 234 88 12
-0.34548801 0.60488474 1.8717767 234 88 12
-0.33651903 0.61678046 1.8717642 234 88 12
-0.32756126 0.62868619 1.8717642 234 88 12
-0.30840978 0.63121659 1.8602507 234 88 12
-0.29804313 0.64172864 1.8586103 234 88 12
-0.28869635 0.65317136 1.8581181 234 88 12
-0.27978376 0.66501707 1.8581181 234 88 12
-0.27216735 0.67809922 1.8596042 234 88 12
-0.26950616 0.69597352 1.8668052 234 88 12
-0.26106736 0.70834559 1.8673857 234 88 12
-0.25721854 0.72522545 1.8732945 234 88 12
-0.41267267 0.58389491 1.8878905 234 88 12
-0.39823464 0.59125358 1.8819878 234 88 12
-0.38844913 0.60261172 1.8811657 234 88 12
-0.36172837 0.59894657 1.8616184 234 88 12
-0.3503584 0.60872442 1.8589573 234 88 12
-0.34089237 0.62018156 1.8583964 234 88 12
-0.3326959 0.63278699 1.8592503 234 88 12
-0.31461012 0.63631243 1.8490164 234 88 12
-0.30309138 0.64577752 1.8461006 234 88 12
-0.29367733 0.65716952 1.8455417 234 88 12
-0.28525224 0.66948754 1.8461006 234 88 12
-0.28272927 0.687442 1.8533853 234 88 12
-0.27399272 0.69952863 1.8536222 234 88 12
-0.26611397 0.71245182 1.8548454 234 88 12
-0.27301091 0.73987108 1.8730986 234 88 12
-0.43263325 0.58079225 1.8813591 234 88 12
-0.41417861 0.58478969 1.8711843 234 88 12
-0.40141529 0.59358901 1.8671383 234 88 12
-0.39185476 0.60514086 1.8665658 234 88 12
-0.38281947 0.61714965 1.8665658 234 88 12
-0.3607156 0.61747062 1.8521653 234 88 12
-0.34967783 0.62756455 1.8498974 234 88 12
-0.34401351 0.64251894 1.8535775 234 88 12
-0.33119667 0.65095401 1.8493156 234 88 12
-0.31889215 0.65979993 1.8455948 234 88 12
-0.31163135 0.67331094 1.8475081 234 88 12
-0.29871073 0.68150455 1.8430581 234 88 12
-0.28796989 0.69170803 1.84104 234 88 12
-0.28035638 0.70488882 1.8425573 234 88 12
-0.29085505 0.73567349 1.8647292 234 88 12
-0.43720019 0.58431751 1.8679142 234 88 12
-0.41879687 0.58836764 1.8578671 234 88 12
-0.4060581 0.59719646 1.8538786 234 88 12
-0.39604822 0.60836172 1.8528256 234 88 12
-0.38718179 0.62052441 1.8530118 234 88 12
-0.37962091 0.63385719 1.8546283 234 88 12
-0.37156644 0.64676881 1.8557146 234 88 12
-0.3638151 0.65997285 1.8571429 234 88 12
-0.35236022 0.6697951 1.8544835 234 88 12
-0.34132579 0.67996693 1.8522712 234 88 12
-0.33162817 0.691356 1.8515328 234 88 12
-0.32292375 0.70367175 1.8519003 234 88 12
-0.31481707 0.71656275 1.8529422 234 88 12
-0.30862555 0.73131132 1.8561516 234 88 12
-0.45325923 0.59765452 1.8667228 234 88 12
-0.4270727 0.59509706 1.8484541 234 88 12
-0.4146564 0.60424358 1.8448573 234 88 12
-0.40366095 0.61458349 1.8427674 234 88 12
-0.39711452 0.628833 1.8454804 234 88 12
-0.39561394 0.64763391 1.8536983 234 88 12
-0.38713732 0.66026556 1.8543659 234 88 12
-0.37929565 0.67348534 1.8557338 234 88 12
-0.36995336 0.68534726 1.8554624 234 88 12
-0.35183758 0.6890713 1.8455102 234 88 12
-0.33889896 0.69748628 1.8412162 234 88 12
-0.32890686 0.70861691 1.840165 234 88 12
-0.32106274 0.72177756 1.8415024 234 88 12
-0.31316659 0.73490894 1.8427917 234 88 12
-0.46331498 0.60586309 1.8589876 234 88 12
-0.44928822 0.61383474 1.8538048 234 88 12
-0.43779054 0.62392795 1.851285 234 88 12
-0.42936078 0.63667554 1.8520347 234 88 12
-0.41998401 0.64859575 1.8517712 234 88 12
-0.41025656 0.66019857 1.8511273 234 88 12
-0.39899245 0.67040569 1.8488135 234 88 12
-0.3886427 0.68140978 1.8474771 234 88 12
-0.37933224 0.69334805 1.8472652 234 88 12
-0.36026099 0.69623643 1.8363576 234 88 12
-0.34698141 0.7043736 1.8317375 234 88 12
-0.33549687 0.71413356 1.8290644 234 88 12
-0.32644314 0.72616684 1.8290644 234 88 12
-0.32954964 0.74988556 1.842589 234 88 12
-0.41781694 0.66643065 1.8408008 234 88 12
-0.40625253 0.67639899 1.8381951 234 88 12
-0.39511511 0.6867159 1.8360312 234 88 12
-0.38481337 0.69776696 1.8347572 234 88 12
-0.36884531 0.70354819 1.8273084 234 88 12
-0.35630998 0.71242368 1.823553 234 88 12
-0.34566316 0.72302252 1.8218396 234 88 12
-0.3407951 0.73909616 1.8264722 234 88 12
-0.40174976 0.69216835 1.824718 234 88 12
-0.39121994 0.70303458 1.8232189 234 88 12
-0.38184467 0.71494704 1.8229562 234 88 12
-0.36450621 0.71941215 1.8140548 234 88 12
-0.35465279 0.73079795 1.8132354 234 88 12
-0.39843792 0.70904547 1.8125076 234 88 12
-0.38838053 0.72035557 1.8115288 234 88 12
-0.2605615 0.66815871 1.866526 234 88 12
-0.2719233 0.65943354 1.8609774 234 88 12
-0.28236848 0.6501466 1.8587151 234 88 12
-0.29267609 0.64078552 1.8569235 234 88 12
-0.30249947 0.63110286 1.8569235 234 88 12
-0.26348677 0.65138638 1.8565831 234 88 12
-0.27472872 0.64261013 1.8514688 234 88 12
-0.28479972 0.63307905 1.8505908 234 88 12
-0.48003903 0.66566896 1.9122188 234 88 12
-0.47903055 0.64864278 1.9068947 234 88 12
-0.47785717 0.63182765 1.9025148 234 88 12
-0.47609413 0.61563134 1.9014288 234 88 12
-0.46732056 0.68394345 1.9072967 234 88 12
-0.46661967 0.66658038 1.9003721 234 88 12
-0.46586165 0.64933318 1.8937942 234 88 12
-0.46494487 0.63229871 1.8881146 234 88 12
-0.46328828 0.61603069 1.886488 234 88 12
-0.46120709 0.60017937 1.8871734 234 88 12
-0.45316172 0.6856162 1.8994583 234 88 12
-0.45270237 0.66802776 1.8913708 234 88 12
-0.45208678 0.6506632 1.8841602 234 88 12
-0.45095956 0.63385993 1.8797212 234 88 12
-0.44922915 0.61767095 1.878522 234 88 12
-0.44727451 0.60170162 1.878522 234 88 12
-0.44485995 0.58615232 1.880964 234 88 12
-0.43843472 0.66983736 1.8842747 234 88 12
-0.43768796 0.65262121 1.8778906 234 88 12
-0.43670133 0.63568968 1.8727956 234 88 12
-0.43501088 0.61946404 1.8714086 234 88 12
-0.43302214 0.60352468 1.8715858 234 88 12
-0.43050668 0.58805782 1.8745061 234 88 12
-0.42712134 0.57333082 1.8819333 234 88 12
-0.41729191 0.71488005 1.9332788 234 88 12
-0.42728058 0.68649447 1.8711878 234 88 12
-0.42492253 0.67089432 1.8732567 234 88 12
-0.42277569 0.65507156 1.8742259 234 88 12
-0.42190969 0.63802344 1.8685961 234 88 12
-0.42035314 0.62166363 1.8665398 234 88 12
-0.41831848 0.60575485 1.8669431 234 88 12
-0.41605735 0.59004349 1.8685023 234 88 12
-0.41350037 0.57457536 1.8715631 234 88 12
-0.40609881 0.74993104 1.929714 234 88 12
-0.4064284 0.7312696 1.9178638 234 88 12
-0.41566378 0.70361048 1.8606434 234 88 12
-0.41372323 0.6876083 1.8605614 234 88 12
-0.41165942 0.67172748 1.8611054 234 88 12
-0.40918547 0.65623492 1.8637245 234 88 12
-0.40652701 0.64089328 1.8672637 234 88 12
-0.40530214 0.6242097 1.8635589 234 88 12
-0.40356264 0.60801727 1.8624597 234 88 12
-0.40160513 0.59202445 1.8624597 234 88 12
-0.39894882 0.57662785 1.8659588 234 88 12
-0.39207372 0.75130278 1.9202629 234 88 12
-0.40462747 0.72012252 1.8472847 234 88 12
-0.4027012 0.70413065 1.8471459 234 88 12
-0.40030199 0.68860608 1.8493705 234 88 12
-0.39759812 0.67335683 1.8531035 234 88 12
-0.3952457 0.65774465 1.8550718 234 88 12
-0.39115906 0.64371705 1.8656358 234 88 12
-0.39013144 0.62684077 1.8610082 234 88 12
-0.38871652 0.61034447 1.8583146 234 88 12
-0.38662183 0.59445608 1.8589832 234 88 12
-0.38361582 0.57932889 1.8641297 234 88 12
-0.39222169 0.73803598 1.8408771 234 88 12
-0.39074373 0.72158551 1.8385289 234 88 12
-0.3886016 0.70581371 1.8394569 234 88 12
-0.38652357 0.68997186 1.8400664 234 88 12
-0.38343534 0.6750856 1.8456178 234 88 12
-0.38071972 0.65980625 1.8493246 234 88 12
-0.37564719 0.64664125 1.8644997 234 88 12
-0.37454772 0.62981433 1.8602902 234 88 12
-0.37319365 0.61324376 1.8573344 234 88 12
-0.37102273 0.59739172 1.8583456 234 88 12
-0.37809232 0.73974454 1.8333148 234 88 12
-0.37659889 0.72331685 1.8310835 234 88 12
-0.37445369 0.7075454 1.8320099 234 88 12
-0.37220579 0.69186461 1.8334272 234 88 12
-0.3689777 0.67709106 1.8395509 234 88 12
-0.3642385 0.66365302 1.852897 234 88 12
-0.35943183 0.65016431 1.8665073 234 88 12
-0.35769275 0.63386989 1.8654062 234 88 12
-0.35563663 0.61785656 1.8658205 234 88 12
-0.35137707 0.60368675 1.8767117 234 88 12
-0.34900436 0.58788246 1.878602 234 88 12
-0.36068314 0.74474901 1.8413864 234 88 12
-0.36196196 0.72553271 1.8259782 234 88 12
-0.35997176 0.70959932 1.8261478 234 88 12
-0.35722515 0.69437909 1.8298978 234 88 12
-0.35222197 0.68121457 1.8442916 234 88 12
-0.34613344 0.66891211 1.8637389 234 88 12
-0.34308031 0.65375972 1.868825 234 88 12
-0.34107324 0.63765919 1.8689793 234 88 12
-0.33897644 0.62163329 1.8695532 234 88 12
-0.33696347 0.60553336 1.869733 234 88 12
-0.33455914 0.58974808 1.8717369 234 88 12
-0.34643039 0.74653584 1.8341382 234 88 12
-0.34463078 0.73035187 1.8333811 234 88 12
-0.34263158 0.71436405 1.8335576 234 88 12
-0.34042159 0.69857126 1.8347143 234 88 12
-0.3358649 0.68491 1.8467609 234 88 12
-0.33048609 0.67188221 1.8625647 234 88 12
-0.32667476 0.6573531 1.8710549 234 88 12
-0.32554978 0.64045787 1.8671168 234 88 12
-0.32401425 0.62393832 1.8650852 234 88 12
-0.32201445 0.60781449 1.8651949 234 88 12
-0.3192758 0.5922789 1.8686908 234 88 12
-0.33019689 0.73231214 1.8269694 234 88 12
-0.32819778 0.71631932 1.8271403 234 88 12
-0.32511371 0.70132273 1.8322726 234 88 12
-0.32047638 0.68768167 1.8444718 234 88 12
-0.31527433 0.67443633 1.8591917 234 88 12
-0.31206384 0.65935075 1.8647987 234 88 12
-0.31008455 0.64318013 1.8647987 234 88 12
-0.30770805 0.6273371 1.8665963 234 88 12
-0.30384821 0.6126743 1.8750856 234 88 12
-0.31110969 0.73866618 1.8415331 234 88 12
-0.31047112 0.72131962 1.8355248 234 88 12
-0.30766109 0.70599425 1.8393055 234 88 12
-0.30387756 0.69150227 1.8474388 234 88 12
-0.29895911 0.67792952 1.8606205 234 88 12
-0.29704574 0.6616888 1.8603191 234 88 12
-0.2950938 0.6454826 1.8601907 234 88 12
-0.29287335 0.62949616 1.861258 234 88 12
-0.28948146 0.61443281 1.8675234 234 88 12
-0.28438407 0.75202858 1.889279 234 88 12
-0.28590664 0.73248887 1.8736808 234 88 12
-0.28606385 0.71430349 1.8641843 234 88 12
-0.28492102 0.69733828 1.8604635 234 88 12
-0.28324085 0.68086582 1.8591243 234 88 12
-0.28152281 0.66443634 1.8579571 234 88 12
-0.27959689 0.64818746 1.8577062 234 88 12
-0.27754399 0.63204277 1.8580123 234 88 12
-0.26957443 0.73598599 1.8744599 234 88 12
-0.27072796 0.7169084 1.8607683 234 88 12
-0.26918057 0.70028561 1.8588561 234 88 12
-0.26746371 0.68382251 1.8576857 234 88 12
-0.26547724 0.667593 1.8576857 234 88 12
-0.26405776 0.65090317 1.8552393 234 88 12
-0.26099852 0.6355356 1.8598635 234 88 12
-0.2536253 0.72103578 1.8647786 234 88 12
-0.25401261 0.70271367 1.8546115 234 88 12
-0.25223383 0.68629134 1.8537174 234 88 12
-0.24726704 0.6724903 1.8663881 234 88 12
-0.43809852 0.57874703 1.8971499 234 88 12
-0.41996214 0.57287115 1.8883758 234 88 12
-0.40249214 0.57136822 1.8899008 234 88 12
-0.47143361 0.59897488 1.8897022 234 88 12
-0.45344421 0.59440064 1.8840692 234 88 12
-0.43540412 0.58919948 1.8769624 234 88 12
-0.41777742 0.58648205 1.8756329 234 88 12
-0.4002516 0.58443731 1.8758713 234 88 12
-0.38285294 0.58342743 1.8785299 234 88 12
-0.36602497 0.58755261 1.8932157 234 88 12
-0.34835148 0.58480954 1.8918389 234 88 12
-0.33092219 0.58448398 1.8961313 234 88 12
-0.48892981 0.62687188 1.9048114 234 88 12
-0.46934518 0.61350965 1.8790498 234 88 12
-0.45134217 0.60875303 1.8730516 234 88 12
-0.43344378 0.60437131 1.8679041 234 88 12
-0.41584522 0.6018194 1.8669693 234 88 12
-0.39833516 0.59988081 1.8674501 234 88 12
-0.38090768 0.59864753 1.8695643 234 88 12
-0.36352921 0.59799713 1.8730336 234 88 12
-0.3462964 0.59901768 1.8803869 234 88 12
-0.32876229 0.59748101 1.8818188 234 88 12
-0.31134447 0.59744591 1.8867451 234 88 12
-0.48652238 0.63977545 1.890239 234 88 12
-0.4675059 0.62950927 1.8717833 234 88 12
-0.44961804 0.62546939 1.8674812 234 88 12
-0.43164843 0.62064445 1.8613775 234 88 12
-0.41398633 0.61767715 1.8595049 234 88 12
-0.39647594 0.61576194 1.8600351 234 88 12
-0.37903613 0.61446738 1.8619881 234 88 12
-0.36165443 0.61383671 1.8654679 234 88 12
-0.34438789 0.6146102 1.8721795 234 88 12
-0.32683235 0.61285442 1.8730931 234 88 12
-0.30932775 0.61179829 1.8756189 234 88 12
-0.29210493 0.61482245 1.8875505 234 88 12
-0.48526049 0.65921158 1.8905047 234 88 12
-0.46615729 0.64850873 1.8712605 234 88 12
-0.44806796 0.64334172 1.8644669 234 88 12
-0.43022725 0.63950205 1.860657 234 88 12
-0.41234168 0.63510972 1.8555883 234 88 12
-0.3947528 0.63271892 1.8550409 234 88 12
-0.37728786 0.63133574 1.8567768 234 88 12
-0.36011577 0.63275772 1.864884 234 88 12
-0.34253633 0.63077092 1.8652633 234 88 12
-0.32497001 0.62896222 1.8660488 234 88 12
-0.30753356 0.62882102 1.8706341 234 88 12
-0.29000196 0.62788141 1.8734092 234 88 12
-0.2724463 0.62691879 1.8761382 234 88 12
-0.46537584 0.67110991 1.8786217 234 88 12
-0.44697604 0.66427898 1.8681962 234 88 12
-0.42914563 0.6608206 1.865291 234 88 12
-0.41148606 0.65845525 1.864827 234 88 12
-0.39371929 0.65520716 1.8623828 234 88 12
-0.37613663 0.65336776 1.8630948 234 88 12
-0.35859552 0.6519686 1.8647976 234 88 12
-0.34084874 0.64861977 1.8621185 234 88 12
-0.32330969 0.64735442 1.8641255 234 88 12
-0.30568287 0.64519691 1.8641255 234 88 12
-0.2880823 0.64341003 1.864962 234 88 12
-0.27049452 0.64194167 1.8665202 234 88 12
-0.25305277 0.64350361 1.8749374 234 88 12
-0.42746675 0.67809856 1.8607208 234 88 12
-0.40977803 0.67562199 1.8600187 234 88 12
-0.39213422 0.67346239 1.8600187 234 88 12
-0.37452739 0.67162502 1.8607347 234 88 12
-0.35709688 0.67151201 1.865288 234 88 12
-0.33947721 0.66982466 1.8663455 234 88 12
-0.32150298 0.66418374 1.8585913 234 88 12
-0.30380684 0.66128176 1.8569329 234 88 12
-0.2861841 0.65924454 1.8572026 234 88 12
-0.26861304 0.65810281 1.8594764 234 88 12
-0.25118214 0.66007721 1.8687339 234 88 12
-0.42553884 0.69364238 1.8522758 234 88 12
-0.40786287 0.69125187 1.8517696 234 88 12
-0.39018908 0.68884516 1.8512264 234 88 12
-0.37257636 0.68694085 1.8517874 234 88 12
-0.35504204 0.68583614 1.8541105 234 88 12
-0.3378329 0.68836069 1.8644401 234 88 12
-0.31991628 0.68362427 1.8587668 234 88 12
-0.30205485 0.67900223 1.8533336 234 88 12
-0.28440434 0.67683691 1.8533226 234 88 12
-0.26687354 0.6767115 1.8578291 234 88 12
-0.24945791 0.67965657 1.8691531 234 88 12
-0.42365193 0.70948154 1.8444762 234 88 12
-0.40588039 0.70635796 1.8423823 234 88 12
-0.38824099 0.70419538 1.8423746 234 88 12
-0.37060249 0.70204002 1.8423823 234 88 12
-0.3530308 0.70054018 1.8438196 234 88 12
-0.33562562 0.70095599 1.8494415 234 88 12
-0.31814244 0.70099229 1.8542465 234 88 12
-0.30056047 0.70023805 1.8573328 234 88 12
-0.28289604 0.69862133 1.858537 234 88 12
-0.26523641 0.69726151 1.8603071 234 88 12
-0.24755795 0.69581294 1.8618864 234 88 12
-0.40396681 0.72199172 1.8341533 234 88 12
-0.3863138 0.71971321 1.8338958 234 88 12
-0.36868855 0.71767008 1.8341454 234 88 12
-0.35110644 0.71607786 1.835369 234 88 12
-0.33369815 0.71649814 1.8409449 234 88 12
-0.31609178 0.7150718 1.8425376 234 88 12
-0.29863983 0.71592182 1.8490644 234 88 12
-0.28106117 0.71564299 1.8531579 234 88 12
-0.26335579 0.7136957 1.8536383 234 88 12
-0.24586615 0.7164427 1.8643216 234 88 12
-0.40211499 0.73812038 1.8269788 234 88 12
-0.38442448 0.73555392 1.8261108 234 88 12
-0.36680609 0.73359382 1.8265357 234 88 12
-0.34938756 0.73369884 1.8313763 234 88 12
-0.33178154 0.73215681 1.8327026 234 88 12
-0.31421468 0.73123389 1.8353581 234 88 12
-0.29747617 0.74211109 1.8633281 234 88 12
-0.27983975 0.74243134 1.8686922 234 88 12
-0.26216194 0.74280471 1.8741821 234 88 12
-0.36525309 0.75265229 1.8255428 234 88 12
-0.34754157 0.75007659 1.8246691 234 88 12
-0.32991096 0.74833852 1.8255688 234 88 12
-0.26921475 0.64244294 1.8970267 234 88 12
-0.34097761 0.59184158 1.8897048 234 88 12
-0.32840019 0.60373437 1.8887765 234 88 12
-0.31631753 0.616193 1.8889909 234 88 12
-0.29969454 0.62327087 1.8785183 234 88 12
-0.28720981 0.63517755 1.8777056 234 88 12
-0.27514046 0.64757907 1.8778733 234 88 12
-0.26344714 0.66044772 1.878949 234 88 12
-0.25286618 0.67472547 1.8827403 234 88 12
-0.2458006 0.69352376 1.8951852 234 88 12
-0.38257694 0.585132 1.8964164 234 88 12
-0.36277324 0.58905756 1.879256 234 88 12
-0.34953064 0.60021073 1.8768337 234 88 12
-0.33718035 0.61235929 1.876429 234 88 12
-0.32246768 0.62174165 1.8705437 234 88 12
-0.3083514 0.63174886 1.8659641 234 88 12
-0.29612014 0.64395583 1.8657496 234 88 12
-0.28400069 0.65629601 1.8657968 234 88 12
-0.27270561 0.66965443 1.8678129 234 88 12
-0.26173437 0.68344694 1.8706383 234 88 12
-0.25254723 0.69954395 1.8778313 234 88 12
-0.24411178 0.71671242 1.8869715 234 88 12
-0.42017886 0.57361943 1.8935016 234 88 12
-0.40269539 0.58036929 1.8819312 234 88 12
-0.38963386 0.59185404 1.8800708 234 88 12
-0.37226442 0.5984844 1.8684964 234 88 12
-0.35876405 0.6093536 1.865519 234 88 12
-0.34625548 0.62132436 1.8647611 234 88 12
-0.33396235 0.63353616 1.8644873 234 88 12
-0.31755915 0.64087945 1.8546959 234 88 12
-0.30507064 0.65278244 1.8538882 234 88 12
-0.29306516 0.66526151 1.854203 234 88 12
-0.28211898 0.67905122 1.8570298 234 88 12
-0.27320135 0.69541717 1.8647366 234 88 12
-0.26135829 0.70818722 1.8655314 234 88 12
-0.25262386 0.72496271 1.8738652 234 88 12
-0.42542577 0.57845056 1.8732246 234 88 12
-0.41132402 0.58883584 1.8691281 234 88 12
-0.39846051 0.60053444 1.867716 234 88 12
-0.3862392 0.6129334 1.867716 234 88 12
-0.36896497 0.61959463 1.8563669 234 88 12
-0.35625374 0.63135165 1.855177 234 88 12
-0.34467888 0.64441788 1.8565592 234 88 12
-0.32991111 0.65372771 1.8506334 234 88 12
-0.31531647 0.66316164 1.8450207 234 88 12
-0.30357313 0.67598063 1.845966 234 88 12
-0.29447192 0.69206727 1.853125 234 88 12
-0.28239954 0.70454729 1.8533674 234 88 12
-0.27068001 0.71747738 1.854454 234 88 12
-0.26421812 0.73716915 1.8681763 234 88 12
-0.45804417 0.58697927 1.8856888 234 88 12
-0.43472335 0.5876413 1.8618556 234 88 12
-0.42080009 0.59822637 1.8581865 234 88 12
-0.40769961 0.60967076 1.8562728 234 88 12
-0.39539424 0.6219793 1.8560908 234 88 12
-0.38380817 0.63510156 1.8575082 234 88 12
-0.3733792 0.6495741 1.8615415 234 88 12
-0.36090964 0.66172409 1.8610225 234 88 12
-0.34708524 0.67226607 1.8574126 234 88 12
-0.33212402 0.68139577 1.8511438 234 88 12
-0.3194136 0.6931684 1.8499806 234 88 12
-0.30491957 0.70273006 1.8446506 234 88 12
-0.29308802 0.71553522 1.8454814 234 88 12
-0.28882009 0.73791379 1.8641855 234 88 12
-0.46733347 0.5961526 1.8740937 234 88 12
-0.44746649 0.60053557 1.857878 234 88 12
-0.43150553 0.60895568 1.8498867 234 88 12
-0.4181737 0.62017024 1.8475107 234 88 12
-0.40627518 0.63295609 1.8482451 234 88 12
-0.39697033 0.64869308 1.8547188 234 88 12
-0.38682032 0.66354841 1.8594046 234 88 12
-0.37508881 0.67662692 1.8606141 234 88 12
-0.36020839 0.68600535 1.8547353 234 88 12
-0.34599668 0.69610065 1.8502908 234 88 12
-0.33324412 0.70790207 1.8491224 234 88 12
-0.32096067 0.72026324 1.8490187 234 88 12
-0.30886206 0.73285317 1.8493429 234 88 12
-0.48192561 0.6109485 1.8737127 234 88 12
-0.46329227 0.6167388 1.8603374 234 88 12
-0.44861737 0.62665892 1.8552703 234 88 12
-0.43646425 0.63929284 1.8555804 234 88 12
-0.42509779 0.65281069 1.8576062 234 88 12
-0.41260332 0.66507816 1.8571894 234 88 12
-0.3993189 0.67643273 1.8550241 234 88 12
-0.38611713 0.68785316 1.8530115 234 88 12
-0.36987242 0.69565636 1.8441609 234 88 12
-0.35578322 0.70591062 1.8400407 234 88 12
-0.34244668 0.71701777 1.8375691 234 88 12
-0.33010501 0.72931081 1.8373365 234 88 12
-0.31847963 0.74249166 1.8387506 234 88 12
-0.4837071 0.63786489 1.8722594 234 88 12
-0.46540174 0.64399737 1.8596731 234 88 12
-0.45322508 0.65671742 1.8600438 234 88 12
-0.44318417 0.67182928 1.8650272 234 88 12
-0.42212343 0.67453074 1.8461405 234 88 12
-0.40803206 0.68496722 1.842235 234 88 12
-0.39504501 0.6966331 1.8407072 234 88 12
-0.37936783 0.70510739 1.8331883 234 88 12
-0.36610097 0.71635318 1.8309481 234 88 12
-0.35314527 0.72794342 1.8293759 234 88 12
-0.34094566 0.74043828 1.8294952 234 88 12
-0.41753533 0.6944083 1.8311721 234 88 12
-0.40410125 0.70556241 1.8286873 234 88 12
-0.39167705 0.71787041 1.8283894 234 88 12
-0.37586874 0.72613662 1.8205875 234 88 12
-0.36315623 0.73803371 1.8195834 234 88 12
-0.35134816 0.75102431 1.8205982 234 88 12
-0.41419303 0.71569401 1.8189107 234 88 12
-0.40094402 0.72704798 1.8168316 234 88 12
-0.38873991 0.73961776 1.8170191 234 88 12
-0.26128477 0.68424273 1.902793 234 88 12
-0.25704971 0.69839704 1.8999802 234 88 12
-0.25689259 0.71412748 1.902265 234 88 12
-0.26792374 0.73434722 1.9185612 234 88 12
-0.27435431 0.64002484 1.8892031 234 88 12
-0.27096337 0.65453023 1.8874613 234 88 12
-0.2670103 0.66880828 1.88502 234 88 12
-0.26391375 0.68338841 1.8836375 234 88 12
-0.26013541 0.69769162 1.8814067 234 88 12
-0.26006657 0.71342891 1.8837812 234 88 12
-0.26268566 0.73026049 1.8895016 234 88 12
-0.27472302 0.75095809 1.9069504 234 88 12
-0.285368 0.62654328 1.8779713 234 88 12
-0.28098997 0.64071035 1.8750308 234 88 12
-0.27830246 0.65547037 1.8741655 234 88 12
-0.27459952 0.66984248 1.8720489 234 88 12
-0.27148536 0.68441743 1.8706543 234 88 12
-0.2693879 0.69937098 1.8705113 234 88 12
-0.2678293 0.7145341 1.871033 234 88 12
-0.27015468 0.73124725 1.8763516 234 88 12
-0.28096029 0.75143659 1.8921579 234 88 12
-0.32697254 0.60781562 1.9015507 234 88 12
-0.3041355 0.61574799 1.8761617 234 88 12
-0.29306099 0.62760872 1.8650833 234 88 12
-0.28945509 0.64205742 1.8631059 234 88 12
-0.28621241 0.65662009 1.8615693 234 88 12
-0.28350657 0.67136794 1.8606867 234 88 12
-0.28085327 0.68612707 1.859867 234 88 12
-0.27887037 0.70113623 1.859867 234 88 12
-0.27758107 0.71641654 1.8607169 234 88 12
-0.28755578 0.73617691 1.8753816 234 88 12
-0.33566391 0.5933159 1.8871862 234 88 12
-0.33196849 0.6079365 1.8851448 234 88 12
-0.32186583 0.62030423 1.8753443 234 88 12
-0.3030161 0.62947565 1.8549322 234 88 12
-0.29822153 0.64351177 1.8515295 234 88 12
-0.29587048 0.65840966 1.8510865 234 88 12
-0.29196563 0.67272466 1.8487562 234 88 12
-0.2893005 0.68748575 1.8479286 234 88 12
-0.28752914 0.70258206 1.8481869 234 88 12
-0.28853616 0.7187652 1.8518264 234 88 12
-0.30331329 0.74044037 1.8722416 234 88 12
-0.3427844 0.59416789 1.8733617 234 88 12
-0.33900648 0.60875869 1.871235 234 88 12
-0.3347373 0.62315768 1.8685145 234 88 12
-0.31536606 0.63218677 1.8476207 234 88 12
-0.30918771 0.64575577 1.84258 234 88 12
-0.30934551 0.66159207 1.845166 234 88 12
-0.31202245 0.67838997 1.8507935 234 88 12
-0.31013083 0.69351852 1.8509166 234 88 12
-0.30870751 0.70882791 1.8516053 234 88 12
-0.31492567 0.72712052 1.8615301 234 88 12
-0.38365939 0.5902912 1.8973628 234 88 12
-0.3517184 0.5956288 1.8617064 234 88 12
-0.34813324 0.61029458 1.8598256 234 88 12
-0.34605455 0.62546498 1.8597406 234 88 12
-0.34112638 0.63962811 1.8562509 234 88 12
-0.33552334 0.65351439 1.8519491 234 88 12
-0.33433425 0.66896921 1.8529224 234 88 12
-0.33079359 0.68356138 1.8510814 234 88 12
-0.32656544 0.69787621 1.8484137 234 88 12
-0.32434765 0.71293414 1.8481529 234 88 12
-0.32245228 0.7281149 1.8482786 234 88 12
-0.32469934 0.74493206 1.85338 234 88 12
-0.40037233 0.57820392 1.8922309 234 88 12
-0.38662466 0.58976185 1.8783761 234 88 12
-0.38059601 0.60376787 1.8736391 234 88 12
-0.36065117 0.6129843 1.8524078 234 88 12
-0.35930258 0.62843704 1.8531934 234 88 12
-0.36287716 0.64563322 1.8598216 234 88 12
-0.35912952 0.66027063 1.8577652 234 88 12
-0.35445976 0.67455155 1.85461 234 88 12
-0.34267291 0.68616587 1.8429867 234 88 12
-0.33549267 0.69939739 1.8368281 234 88 12
-0.33219883 0.71405262 1.8352889 234 88 12
-0.33109805 0.72954357 1.8363612 234 88 12
-0.33623752 0.74750388 1.8448778 234 88 12
-0.40228781 0.57736194 1.8719965 234 88 12
-0.394034 0.59069765 1.864687 234 88 12
-0.39157835 0.60589933 1.8641833 234 88 12
-0.38626763 0.62012464 1.8603197 234 88 12
-0.38278034 0.63494259 1.8585974 234 88 12
-0.3806985 0.65023798 1.8585286 234 88 12
-0.37862059 0.66553408 1.8584644 234 88 12
-0.37515214 0.68032378 1.8567591 234 88 12
-0.35589799 0.68926197 1.8364096 234 88 12
-0.34856209 0.70247209 1.8301147 234 88 12
-0.34530398 0.71717459 1.8286333 234 88 12
-0.34444532 0.73279172 1.8299897 234 88 12
-0.34739083 0.74991846 1.8358537 234 88 12
-0.41235182 0.57915115 1.8613553 234 88 12
-0.40339598 0.59227407 1.8532795 234 88 12
-0.3999252 0.60714722 1.8515955 234 88 12
-0.39803597 0.62254077 1.851757 234 88 12
-0.39770547 0.6384744 1.8537414 234 88 12
-0.39693838 0.65427452 1.8552178 234 88 12
-0.3894107 0.6676746 1.8487798 234 88 12
-0.38279018 0.68133944 1.8433954 234 88 12
-0.37790677 0.69559121 1.8400401 234 88 12
-0.36150047 0.70549017 1.8231567 234 88 12
-0.35822588 0.72021908 1.8216709 234 88 12
-0.35633487 0.73546797 1.8218091 234 88 12
-0.42587075 0.58204907 1.8546748 234 88 12
-0.41816264 0.59561831 1.8481055 234 88 12
-0.41388479 0.61026478 1.8455037 234 88 12
-0.41459304 0.62657577 1.8486834 234 88 12
-0.41802052 0.64385653 1.8550251 234 88 12
-0.40822399 0.65656298 1.8460099 234 88 12
-0.40048581 0.66991276 1.839375 234 88 12
-0.39184129 0.68286723 1.8316756 234 88 12
-0.38696459 0.69713181 1.8283527 234 88 12
-0.38362551 0.71193814 1.8268169 234 88 12
-0.38127089 0.72710317 1.826427 234 88 12
-0.382085 0.74348712 1.8297348 234 88 12
-0.45591557 0.59024757 1.8668994 234 88 12
-0.43905893 0.60095865 1.849869 234 88 12
-0.4368507 0.61637163 1.8496794 234 88 12
-0.4384912 0.63308549 1.8539239 234 88 12
-0.43879411 0.64938158 1.8566325 234 88 12
-0.44802958 0.66883254 1.8696523 234 88 12
-0.41390201 0.67297995 1.8326176 234 88 12
-0.40711823 0.68664563 1.8271271 234 88 12
-0.3969368 0.69900662 1.8176992 234 88 12
-0.39362717 0.71383876 1.8162102 234 88 12
-0.39202327 0.72930282 1.8166944 234 88 12
-0.46676403 0.60850692 1.8591995 234 88 12
-0.46006152 0.62254292 1.8538893 234 88 12
-0.46361774 0.63999182 1.8603094 234 88 12
-0.47394937 0.65983462 1.8744967 234 88 12
-0.27333802 0.73764747 1.9124942 234 88 12
-0.24822289 0.70067519 1.8986838 234 88 12
-0.25563544 0.71205205 1.892417 234 88 12
-0.26582164 0.72223824 1.892417 234 88 12
-0.27906954 0.73118919 1.8992096 234 88 12
-0.29016787 0.74104077 1.9011805 234 88 12
-0.25256965 0.69485241 1.8822842 234 88 12
-0.26167595 0.70549691 1.8798734 234 88 12
-0.27185673 0.71567768 1.8798734 234 88 12
-0.28375074 0.7251631 1.8836483 234 88 12
-0.29702136 0.73413008 1.8903931 234 88 12
-0.31057405 0.7430383 1.8976721 234 88 12
-0.25197399 0.6765548 1.8776882 234 88 12
-0.2601178 0.68765235 1.8730987 234 88 12
-0.26949996 0.69818753 1.8713073 234 88 12
-0.27987733 0.70829397 1.8717282 234 88 12
-0.29141787 0.71792883 1.8746891 234 88 12
-0.30420595 0.72708738 1.8803287 234 88 12
-0.31903079 0.7354911 1.8903055 234 88 12
-0.2583417 0.65503669 1.8886783 234 88 12
-0.2593137 0.66943461 1.867996 234 88 12
-0.26817206 0.68022865 1.8650141 234 88 12
-0.27801269 0.6905793 1.8642284 234 88 12
-0.2882103 0.70077419 1.8642325 234 88 12
-0.29954979 0.71050018 1.8667182 234 88 12
-0.30970618 0.7207213 1.8666185 234 88 12
-0.31999436 0.73088968 1.8668031 234 88 12
-0.35847566 0.73017865 1.9271778 234 88 12
-0.36975089 0.74020404 1.9291033 234 88 12
-0.38094223 0.75027484 1.9308293 234 88 12
-0.26478171 0.64830065 1.8768336 234 88 12
-0.2674171 0.66197091 1.8599797 234 88 12
-0.2760101 0.6728946 1.8564199 234 88 12
-0.28591695 0.68322533 1.8557725 234 88 12
-0.29642504 0.69329762 1.8564382 234 88 12
-0.30649316 0.70355684 1.8561463 234 88 12
-0.31593093 0.71406883 1.8545055 234 88 12
-0.32612896 0.72426689 1.8545055 234 88 12
-0.33659336 0.73436141 1.8550705 234 88 12
-0.3479822 0.74410868 1.8575777 234 88 12
-0.3873409 0.74345928 1.9186833 234 88 12
-0.40144223 0.75247502 1.9264507 234 88 12
-0.2720494 0.64118767 1.8668338 234 88 12
-0.28199446 0.65159088 1.86614 234 88 12
-0.28471339 0.6651749 1.8496866 234 88 12
-0.29412866 0.67573404 1.8479544 234 88 12
-0.30550939 0.68544656 1.8504807 234 88 12
-0.31347594 0.69659704 1.845659 234 88 12
-0.32310528 0.70703328 1.8444372 234 88 12
-0.33305871 0.71733075 1.8439162 234 88 12
-0.34276098 0.72772241 1.8428721 234 88 12
-0.35320747 0.73782128 1.8433986 234 88 12
-0.36587778 0.74709058 1.8485489 234 88 12
-0.40915179 0.74516726 1.9169928 234 88 12
-0.28051484 0.63352156 1.8594521 234 88 12
-0.29002675 0.64413422 1.8577993 234 88 12
-0.29926455 0.65485525 1.8555723 234 88 12
-0.30829257 0.66564983 1.8529199 234 88 12
-0.31814009 0.67607421 1.8520538 234 88 12
-0.32377571 0.68825144 1.8422316 234 88 12
-0.33082885 0.6997717 1.8355243 234 88 12
-0.33999899 0.71039051 1.8333491 234 88 12
-0.34969932 0.72078413 1.8323082 234 88 12
-0.36014676 0.73088199 1.8328331 234 88 12
-0.37218273 0.74038458 1.8366369 234 88 12
-0.28982857 0.62545615 1.8538729 234 88 12
-0.29905269 0.63622165 1.8515781 234 88 12
-0.30977958 0.6462993 1.8525448 234 88 12
-0.32102427 0.65615845 1.8546075 234 88 12
-0.33279166 0.66580993 1.8577577 234 88 12
-0.33808225 0.67820698 1.8471776 234 88 12
-0.3413319 0.69136178 1.832431 234 88 12
-0.34818316 0.70294815 1.8253815 234 88 12
-0.35737529 0.71355402 1.8232768 234 88 12
-0.3678408 0.72365016 1.8238266 234 88 12
-0.3866553 0.73058063 1.8415194 234 88 12
-0.31662449 0.60924911 1.8860347 234 88 12
-0.30975121 0.62753671 1.8488917 234 88 12
-0.32043859 0.63766307 1.8497199 234 88 12
-0.33247891 0.64720184 1.8534127 234 88 12
-0.34617639 0.65605623 1.8605621 234 88 12
-0.3571097 0.66613466 1.8618242 234 88 12
-0.36080113 0.67922217 1.8479536 234 88 12
-0.36458734 0.69216275 1.8344396 234 88 12
-0.37047267 0.70416313 1.8254124 234 88 12
-0.38338104 0.71335512 1.8308986 234 88 12
-0.39366955 0.72359025 1.8309774 234 88 12
-0.32375589 0.60214514 1.8753659 234 88 12
-0.33219239 0.61345047 1.8711665 234 88 12
-0.33868667 0.62559581 1.8628944 234 88 12
-0.34840921 0.63624966 1.8615313 234 88 12
-0.35967973 0.64622229 1.863431 234 88 12
-0.36883894 0.6571067 1.8609058 234 88 12
-0.37141466 0.67071271 1.8447596 234 88 12
-0.37478831 0.68386626 1.8304437 234 88 12
-0.38182193 0.69544315 1.8237934 234 88 12
-0.39100009 0.70612711 1.8215891 234 88 12
-0.4024384 0.71592516 1.8239902 234 88 12
-0.33158496 0.59471345 1.8661835 234 88 12
-0.34103081 0.60556453 1.8641438 234 88 12
-0.35131827 0.61601853 1.8639021 234 88 12
-0.36220643 0.62620407 1.8649219 234 88 12
-0.37268335 0.63657683 1.8650731 234 88 12
-0.38079384 0.64796108 1.8603213 234 88 12
-0.38398758 0.6613664 1.8454989 234 88 12
-0.38952363 0.67369312 1.8356422 234 88 12
-0.39469302 0.68609011 1.8251512 234 88 12
-0.40404478 0.69675481 1.8232455 234 88 12
-0.35014802 0.59754187 1.8576565 234 88 12
-0.36065677 0.60791308 1.8578545 234 88 12
-0.37264949 0.61762422 1.8611385 234 88 12
-0.38374841 0.6277529 1.8625351 234 88 12
-0.39381927 0.63833392 1.8618007 234 88 12
-0.39826289 0.6512782 1.8495651 234 88 12
-0.40278202 0.66409433 1.8376228 234 88 12
-0.41185936 0.67497092 1.8350331 234 88 12
-0.42526975 0.68410712 1.8411852 234 88 12
-0.47060946 0.68086624 1.9111103 234 88 12
-0.3776387 0.59630847 1.8676323 234 88 12
-0.38506287 0.60814685 1.8613316 234 88 12
-0.39486185 0.61889005 1.8599839 234 88 12
-0.40576166 0.62914753 1.8609008 234 88 12
-0.41622248 0.63959807 1.8609153 234 88 12
-0.42820752 0.64941597 1.8640087 234 88 12
-0.44660464 0.6566475 1.8799458 234 88 12
-0.46321642 0.66471726 1.8921381 234 88 12
-0.47781184 0.67367172 1.9001898 234 88 12
-0.38527271 0.58894885 1.8578272 234 88 12
-0.39539799 0.59958202 1.8571082 234 88 12
-0.40589187 0.61004645 1.85715 234 88 12
-0.41706923 0.62021488 1.8585781 234 88 12
-0.42817324 0.63042599 1.8598419 234 88 12
-0.44137931 0.63976973 1.8653089 234 88 12
-0.45539966 0.64882356 1.8723388 234 88 12
-0.47139269 0.65714079 1.8832035 234 88 12
-0.39763531 0.57940805 1.8577039 234 88 12
-0.40502122 0.59132534 1.8513433 234 88 12
-0.41603509 0.60157961 1.8524095 234 88 12
-0.42883199 0.61106545 1.8570572 234 88 12
-0.44103476 0.62084293 1.8604616 234 88 12
-0.45295361 0.63076687 1.8632618 234 88 12
-0.46804529 0.63940692 1.8723179 234 88 12
-0.41796044 0.58155078 1.8522229 234 88 12
-0.42803442 0.59227151 1.8513227 234 88 12
-0.44061938 0.60188502 1.8554591 234 88 12
-0.45309326 0.6115799 1.8593277 234 88 12
-0.46614039 0.62106407 1.8642875 234 88 12
-0.37038827 0.74781406 1.9302212 234 88 12
-0.3853766 0.7471624 1.9302212 234 88 12
-0.40047297 0.74627537 1.9315792 234 88 12
-0.26422891 0.74233574 1.907513 234 88 12
-0.27913353 0.74179566 1.9068897 234 88 12
-0.29408512 0.74109083 1.9072059 234 88 12
-0.30904824 0.74035788 1.9076815 234 88 12
-0.35027975 0.74756128 1.8557385 234 88 12
-0.36561912 0.74549174 1.8638374 234 88 12
-0.38470423 0.73485774 1.9204462 234 88 12
-0.39978713 0.73398346 1.921708 234 88 12
-0.41496935 0.73291653 1.9240568 234 88 12
-0.26350349 0.73045999 1.8956274 234 88 12
-0.27832699 0.73015928 1.8936799 234 88 12
-0.2933234 0.72924793 1.895149 234 88 12
-0.30826926 0.72852379 1.89557 234 88 12
-0.32088903 0.73455387 1.8583019 234 88 12
-0.33478698 0.73635918 1.8446519 234 88 12
-0.34949666 0.73580098 1.8441911 234 88 12
-0.36426991 0.73507732 1.8446519 234 88 12
-0.37917456 0.73405045 1.8467979 234 88 12
-0.39413029 0.73294204 1.8493934 234 88 12
-0.41433281 0.72050852 1.9148524 234 88 12
-0.24802721 0.7186026 1.887346 234 88 12
-0.26286271 0.71828651 1.8855175 234 88 12
-0.27777031 0.71766746 1.8853557 234 88 12
-0.2926856 0.71701896 1.8853557 234 88 12
-0.30580592 0.72199428 1.8545239 234 88 12
-0.31989321 0.72347188 1.8429039 234 88 12
-0.33421835 0.7240563 1.8361923 234 88 12
-0.34894311 0.72345537 1.8359739 234 88 12
-0.36371303 0.72273666 1.8363994 234 88 12
-0.378546 0.72187322 1.8376143 234 88 12
-0.39333031 0.7211414 1.8381094 234 88 12
-0.40862647 0.71928841 1.8447137 234 88 12
-0.24746753 0.70612484 1.8789178 234 88 12
-0.26231778 0.70575303 1.877423 234 88 12
-0.27723363 0.70510453 1.877423 234 88 12
-0.29202554 0.70487726 1.8751534 234 88 12
-0.30527091 0.709535 1.8465904 234 88 12
-0.31975287 0.70986533 1.8413514 234 88 12
-0.33373415 0.71151614 1.8290242 234 88 12
-0.34843391 0.71099138 1.8284003 234 88 12
-0.36321974 0.71023417 1.8290242 234 88 12
-0.37800729 0.70948339 1.8296127 234 88 12
-0.39279157 0.70875007 1.8301067 234 88 12
-0.40808684 0.70687729 1.8366983 234 88 12
-0.24693267 0.69354278 1.8710545 234 88 12
-0.26178059 0.69318873 1.8694921 234 88 12
-0.27669653 0.69254208 1.8694823 234 88 12
-0.29161295 0.69189352 1.8694823 234 88 12
-0.30539927 0.69491863 1.8500587 234 88 12
-0.31951746 0.69650602 1.8382623 234 88 12
-0.33394036 0.69696879 1.8324218 234 88 12
-0.34826341 0.69759297 1.8257397 234 88 12
-0.36311701 0.69670552 1.8270347 234 88 12
-0.37776864 0.69634485 1.8255538 234 88 12
-0.39267111 0.69536096 1.8273541 234 88 12
-0.40793225 0.69358653 1.8333073 234 88 12
-0.42471606 0.68856585 1.8563024 234 88 12
-0.44465438 0.67723835 1.9123603 234 88 12
-0.45973539 0.67656082 1.9124774 234 88 12
-0.47530034 0.67493856 1.9175442 234 88 12
-0.24662426 0.67996699 1.8683612 234 88 12
-0.26127082 0.68051231 1.8621393 234 88 12
-0.27615261 0.68000424 1.8614078 234 88 12
-0.29107606 0.67933118 1.8615354 234 88 12
-0.30573526 0.67953575 1.8571039 234 88 12
-0.32009777 0.68056804 1.8483835 234 88 12
-0.33470508 0.68069589 1.8443679 234 88 12
-0.34974796 0.67952496 1.8470886 234 88 12
-0.36391279 0.68074346 1.8374333 234 88 12
-0.37814295 0.68162316 1.8295466 234 88 12
-0.3930724 0.6806705 1.8311443 234 88 12
-0.40888825 0.67768365 1.8432462 234 88 12
-0.42439759 0.67557031 1.8508203 234 88 12
-0.44361329 0.6656267 1.8987607 234 88 12
-0.45912817 0.66401434 1.9036969 234 88 12
-0.47433412 0.6630854 1.9051064 234 88 12
-0.26078305 0.66773975 1.8552526 234 88 12
-0.27566153 0.66726351 1.8543701 234 88 12
-0.29058793 0.66659278 1.8544827 234 88 12
-0.30576688 0.66507393 1.8589239 234 88 12
-0.3207823 0.66417438 1.8601996 234 88 12
-0.3361508 0.6622417 1.8667383 234 88 12
-0.35128489 0.66110873 1.8691944 234 88 12
-0.36515054 0.66345984 1.8539196 234 88 12
-0.37911698 0.66527146 1.8414116 234 88 12
-0.39383703 0.66500413 1.8394847 234 88 12
-0.4089236 0.66383797 1.8421228 234 88 12
-0.42569673 0.65888828 1.8639466 234 88 12
-0.44268137 0.653813 1.8863722 234 88 12
-0.45814013 0.65227091 1.8908707 234 88 12
-0.47376612 0.65045464 1.8967495 234 88 12
-0.26125076 0.65094292 1.8685614 234 88 12
-0.27618685 0.6505428 1.8672948 234 88 12
-0.29088429 0.65098161 1.861818 234 88 12
-0.30578205 0.65059972 1.8604671 234 88 12
-0.32088187 0.64953387 1.8625469 234 88 12
-0.33606869 0.64824748 1.8657284 234 88 12
-0.35123491 0.64708614 1.8682789 234 88 12
-0.36624122 0.64641547 1.8683715 234 88 12
-0.38049662 0.6477198 1.8585943 234 88 12
-0.39516607 0.64781058 1.8548921 234 88 12
-0.4113709 0.6441465 1.8699304 234 88 12
-0.42671281 0.64271826 1.8737985 234 88 12
-0.4421576 0.64112252 1.8784947 234 88 12
-0.45758769 0.63962883 1.8826758 234 88 12
-0.4733035 0.63760829 1.8894705 234 88 12
-0.27568766 0.6377483 1.8601134 234 88 12
-0.29066563 0.63717622 1.8597183 234 88 12
-0.30565915 0.63654006 1.8596396 234 88 12
-0.32065693 0.63588798 1.8596396 234 88 12
-0.3360382 0.63404387 1.8655099 234 88 12
-0.35128728 0.63271266 1.8688471 234 88 12
-0.36626771 0.63220096 1.8681499 234 88 12
-0.38117549 0.63187015 1.8665649 234 88 12
-0.39617097 0.63128668 1.8662226 234 88 12
-0.41128209 0.63041461 1.8672967 234 88 12
-0.42644265 0.62944454 1.8688498 234 88 12
-0.44192058 0.62778401 1.8737818 234 88 12
-0.45720002 0.62662959 1.8762295 234 88 12
-0.47298175 0.62446159 1.8836304 234 88 12
-0.29016623 0.62439013 1.8524703 234 88 12
-0.30520177 0.62361634 1.8530596 234 88 12
-0.32083836 0.62084675 1.8633204 234 88 12
-0.33613622 0.61937946 1.867259 234 88 12
-0.35138008 0.61815822 1.8700012 234 88 12
-0.3663258 0.61784244 1.8683611 234 88 12
-0.38128677 0.6174534 1.8670775 234 88 12
-0.39624232 0.61705476 1.865842 234 88 12
-0.41123977 0.61653018 1.8652159 234 88 12
-0.42639744 0.6156131 1.8664831 234 88 12
-0.44163582 0.61453187 1.868539 234 88 12
-0.45712653 0.61292654 1.873114 234 88 12
-0.47259057 0.61144686 1.8770781 234 88 12
-0.32111454 0.60540098 1.8685403 234 88 12
-0.33618122 0.60481685 1.8681979 234 88 12
-0.35127121 0.60415423 1.8682294 234 88 12
-0.36607316 0.60432678 1.8642889 234 88 12
-0.38112289 0.60373747 1.863975 234 88 12
-0.39624941 0.60293961 1.8646519 234 88 12
-0.41140559 0.60207909 1.8656251 234 88 12
-0.4264909 0.60140699 1.8657032 234 88 12
-0.44167429 0.60050792 1.8668569 234 88 12
-0.45690361 0.59952438 1.8684087 234 88 12
-0.33573604 0.59179252 1.8616331 234 88 12
-0.35084841 0.59107846 1.8619039 234 88 12
-0.38072109 0.59065461 1.8577487 234 88 12
-0.39580071 0.58999896 1.8577487 234 88 12
-0.41096851 0.58911699 1.8588055 234 88 12
-0.42624766 0.58797961 1.861052 234 88 12
-0.44142169 0.58712858 1.8619603 234 88 12
-0.33958799 0.75754243 1.8413768 234 88 12
-0.35689729 0.75731868 1.8400264 234 88 12
-0.27275631 0.74788016 1.8892598 234 88 12
-0.29016885 0.74740458 1.8863225 234 88 12
-0.30549037 0.74190515 1.8523555 234 88 12
-0.3220174 0.7397697 1.8391657 234 88 12
-0.33928931 0.73947668 1.8373561 234 88 12
-0.35668877 0.73947668 1.8373561 234 88 12
-0.37398577 0.7392742 1.8361053 234 88 12
-0.39138046 0.7392742 1.8361053 234 88 12
-0.41620508 0.7527113 1.9190993 234 88 12
-0.25453836 0.72850627 1.8780217 234 88 12
-0.2717005 0.72745615 1.8713794 234 88 12
-0.28919095 0.72735906 1.8707652 234 88 12
-0.30530441 0.72400761 1.849566 234 88 12
-0.32194895 0.72220975 1.8381944 234 88 12
-0.33927873 0.72205472 1.8372135 234 88 12
-0.3566353 0.72196901 1.8366714 234 88 12
-0.37388551 0.72168601 1.8348813 234 88 12
-0.39127555 0.72168601 1.8348813 234 88 12
-0.40887654 0.72205853 1.8372378 234 88 12
-0.23710416 0.71131247 1.8803587 234 88 12
-0.2539995 0.70944685 1.8682666 234 88 12
-0.27145302 0.70928049 1.8671885 234 88 12
-0.28887159 0.70904845 1.8656845 234 88 12
-0.30536374 0.70669895 1.8504562 234 88 12
-0.32212204 0.70518607 1.8406506 234 88 12
-0.33931077 0.7047224 1.8376451 234 88 12
-0.35667762 0.70465583 1.8372135 234 88 12
-0.37393573 0.70439059 1.8354945 234 88 12
-0.3913281 0.70439059 1.8354945 234 88 12
-0.4089686 0.70481825 1.8382664 234 88 12
-0.42803222 0.70756346 1.8560596 234 88 12
-0.23698461 0.69339943 1.8780341 234 88 12
-0.25395411 0.69180602 1.867445 234 88 12
-0.27143556 0.69172287 1.8668923 234 88 12
-0.28887159 0.69154108 1.8656845 234 88 12
-0.30548885 0.68953198 1.8523326 234 88 12
-0.32270667 0.68902236 1.8489461 234 88 12
-0.33967245 0.68805444 1.8425136 234 88 12
-0.35692686 0.68773711 1.840405 234 88 12
-0.3741675 0.687424 1.8383241 234 88 12
-0.39161381 0.68749976 1.8388276 234 88 12
-0.4092446 0.6878792 1.8413491 234 88 12
-0.42786884 0.68982935 1.8543091 234 88 12
-0.25396761 0.67432779 1.8676896 234 88 12
-0.27143556 0.67421091 1.8668923 234 88 12
-0.28887159 0.6740337 1.8656845 234 88 12
-0.30618849 0.67361468 1.8628273 234 88 12
-0.32354963 0.67333305 1.8609071 234 88 12
-0.34080762 0.6728766 1.8577948 234 88 12
-0.3579284 0.672207 1.8532295 234 88 12
-0.37483776 0.67122114 1.8465075 234 88 12
-0.39223939 0.67116517 1.8461261 234 88 12
-0.41023275 0.67208344 1.852387 234 88 12
-0.42801076 0.67258835 1.8558297 234 88 12
-0.44860896 0.67731154 1.8880334 234 88 12
-0.46717045 0.67871928 1.8976316 234 88 12
-0.25414363 0.65726799 1.8708758 234 88 12
-0.27139992 0.65661269 1.8662887 234 88 12
-0.28884447 0.6564647 1.865253 234 88 12
-0.3063502 0.6564647 1.865253 234 88 12
-0.3239221 0.65659887 1.8661919 234 88 12
-0.34184229 0.65738904 1.8717232 234 88 12
-0.35910764 0.65690422 1.8683295 234 88 12
-0.37571701 0.65532035 1.8572426 234 88 12
-0.39300409 0.65500683 1.8550477 234 88 12
-0.41056699 0.65516007 1.8561206 234 88 12
-0.42883211 0.65637571 1.8646297 234 88 12
-0.44786736 0.65862846 1.8803992 234 88 12
-0.46596506 0.65938455 1.8856916 234 88 12
-0.48477858 0.6610617 1.8974319 234 88 12
-0.25420904 0.63990551 1.8720603 234 88 12
-0.27139893 0.63910073 1.8662724 234 88 12
-0.28884447 0.63895899 1.865253 234 88 12
-0.3063502 0.63895899 1.865253 234 88 12
-0.32390311 0.63905209 1.8659225 234 88 12
-0.34191656 0.63999772 1.8727231 234 88 12
-0.35970876 0.64045703 1.8760266 234 88 12
-0.37682804 0.63973135 1.8708076 234 88 12
-0.39421993 0.63951236 1.8692327 234 88 12
-0.41183448 0.6396578 1.8702788 234 88 12
-0.4297975 0.64031059 1.8749733 234 88 12
-0.44760528 0.64068991 1.8777013 234 88 12
-0.46535915 0.64096636 1.8796897 234 88 12
-0.48402438 0.64243233 1.8902326 234 88 12
-0.27157542 0.62199533 1.8692613 234 88 12
-0.28889376 0.62155926 1.8660369 234 88 12
-0.30639485 0.62154382 1.8659225 234 88 12
-0.32409593 0.62191385 1.8686585 234 88 12
-0.34208298 0.62276649 1.8749633 234 88 12
-0.3593744 0.62233132 1.8717456 234 88 12
-0.37669647 0.62198722 1.8692012 234 88 12
-0.39420283 0.62196445 1.8690329 234 88 12
-0.41170278 0.621934 1.8688078 234 88 12
-0.42928669 0.62202764 1.8695002 234 88 12
-0.44722173 0.62260282 1.8737531 234 88 12
-0.4651486 0.62312359 1.877604 234 88 12
-0.48350033 0.62415498 1.8852305 234 88 12
-0.30715564 0.60553539 1.8773346 234 88 12
-0.32455882 0.60525835 1.8752265 234 88 12
-0.34205902 0.60518134 1.8746405 234 88 12
-0.35926303 0.60461342 1.8703194 234 88 12
-0.37668735 0.60445178 1.8690896 234 88 12
-0.39417866 0.60440731 1.868751 234 88 12
-0.41167399 0.60437244 1.8684859 234 88 12
-0.42920876 0.60439599 1.8686652 234 88 12
-0.44702852 0.60480332 1.8717642 234 88 12
-0.46514562 0.60556692 1.8775744 234 88 12
-0.32460776 0.58780324 1.8759208 234 88 12
-0.34211537 0.58773667 1.8753991 234 88 12
-0.3596639 0.58774346 1.8754525 234 88 12
-0.37669119 0.58693749 1.8691368 234 88 12
-0.39418352 0.58689547 1.8688078 234 88 12
-0.41167399 0.5868544 1.8684859 234 88 12
-0.42921677 0.58688825 1.868751 234 88 12
-0.44715455 0.58743834 1.8730617 234 88 12
-0.46539328 0.58832735 1.8800278 234 88 12
-0.39431006 0.56955898 1.8702841 234 88 12
-0.41181493 0.56953132 1.8700604 234 88 12
-0.42973319 0.57005423 1.8742843 234 88 12
-0.24760592 0.68367469 1.8891723 234 88 12
-0.24703477 0.70075274 1.8895799 234 88 12
-0.24800195 0.71853161 1.8937187 234 88 12
-0.26599538 0.63403934 1.8844569 234 88 12
-0.26463541 0.65080696 1.8829716 234 88 12
-0.26218739 0.6671052 1.8788772 234 88 12
-0.2613073 0.68404371 1.8785391 234 88 12
-0.26062602 0.70106697 1.8786776 234 88 12
-0.26036993 0.71828264 1.8798368 234 88 12
-0.26213413 0.73643726 1.8858477 234 88 12
-0.28153577 0.61783195 1.8763976 234 88 12
-0.27980193 0.63446391 1.8740426 234 88 12
-0.27771461 0.65093231 1.8708475 234 88 12
-0.27640173 0.66769713 1.8694869 234 88 12
-0.27547237 0.68461442 1.8690352 234 88 12
-0.27473339 0.7016111 1.8690352 234 88 12
-0.27438459 0.71878207 1.8699621 234 88 12
-0.27630022 0.73699462 1.8762704 234 88 12
-0.2841844 0.75804389 1.8967726 234 88 12
-0.29568899 0.61839479 1.8667966 234 88 12
-0.29410499 0.63508713 1.8648173 234 88 12
-0.2931217 0.65200591 1.864246 234 88 12
-0.29075283 0.66834617 1.8604212 234 88 12
-0.28978413 0.68524802 1.8598818 234 88 12
-0.28913403 0.7022835 1.8600907 234 88 12
-0.2889342 0.71952045 1.8613583 234 88 12
-0.29534298 0.73976314 1.8781688 234 88 12
-0.32447308 0.58968031 1.8877002 234 88 12
-0.32281592 0.60648972 1.8855853 234 88 12
-0.3106899 0.61928231 1.8591707 234 88 12
-0.30894348 0.63592011 1.856835 234 88 12
-0.30811688 0.65290767 1.856634 234 88 12
-0.30618873 0.66944075 1.8538731 234 88 12
-0.30447495 0.68604094 1.8516082 234 88 12
-0.30397117 0.70314312 1.8521557 234 88 12
-0.30726263 0.72192061 1.8615342 234 88 12
-0.30765629 0.73947269 1.8641752 234 88 12
-0.33828911 0.59009296 1.877031 234 88 12
-0.33667547 0.60691518 1.875037 234 88 12
-0.33315447 0.62299722 1.8686593 234 88 12
-0.32530636 0.63734299 1.8523309 234 88 12
-0.32413545 0.65421337 1.8513422 234 88 12
-0.32498559 0.67190039 1.8550018 234 88 12
-0.32340798 0.68860376 1.8530775 234 88 12
-0.32199389 0.70536089 1.8515282 234 88 12
-0.32125309 0.72239935 1.8515282 234 88 12
-0.32103813 0.73967266 1.8527397 234 88 12
-0.35309729 0.59086341 1.8686438 234 88 12
-0.35162097 0.60774213 1.8669825 234 88 12
-0.35050032 0.6247409 1.8661287 234 88 12
-0.34813762 0.64125282 1.8624482 234 88 12
-0.34621057 0.65790629 1.8597564 234 88 12
-0.34297174 0.67400557 1.8540753 234 88 12
-0.33815601 0.68940306 1.8447975 234 88 12
-0.33664283 0.70612425 1.8430383 234 88 12
-0.33573282 0.72309244 1.8426529 234 88 12
-0.33581713 0.74049836 1.844535 234 88 12
-0.37925112 0.57814646 1.8840749 234 88 12
-0.37075561 0.59264433 1.8666501 234 88 12
-0.36727256 0.60882378 1.8604921 234 88 12
-0.36662462 0.62601221 1.8607123 234 88 12
-0.36754748 0.64380485 1.8644707 234 88 12
-0.36679694 0.66097146 1.8644615 234 88 12
-0.3604387 0.67588115 1.8518114 234 88 12
-0.35373804 0.69054341 1.8383788 234 88 12
-0.35179213 0.70709646 1.8356621 234 88 12
-0.35089758 0.72407973 1.8353162 234 88 12
-0.35031971 0.74119949 1.835685 234 88 12
-0.35188299 0.75928569 1.8408905 234 88 12
-0.39195013 0.57816011 1.870718 234 88 12
-0.39035708 0.59509504 1.8688385 234 88 12
-0.38944536 0.61226094 1.8684759 234 88 12
-0.38759643 0.62907553 1.8660237 234 88 12
-0.38699847 0.64634603 1.8663592 234 88 12
-0.38195771 0.66188544 1.8567839 234 88 12
-0.37651336 0.67718291 1.8463002 234 88 12
-0.36987877 0.69190514 1.8331507 234 88 12
-0.36664197 0.70793849 1.8275799 234 88 12
-0.3654184 0.72478634 1.8265026 234 88 12
-0.36506581 0.742006 1.8273715 234 88 12
-0.40731654 0.57909203 1.8633199 234 88 12
-0.40499762 0.59578282 1.8598592 234 88 12
-0.40414548 0.61297208 1.8596317 234 88 12
-0.40369359 0.63030714 1.8602872 234 88 12
-0.40204865 0.64719635 1.8583093 234 88 12
-0.39699593 0.66274798 1.848803 234 88 12
-0.39111343 0.67789006 1.837456 234 88 12
-0.38830146 0.69418377 1.8328869 234 88 12
-0.38657895 0.71089166 1.8307234 234 88 12
-0.38239163 0.72653395 1.8231055 234 88 12
-0.3865872 0.74575227 1.8340334 234 88 12
-0.42430577 0.5805698 1.8594251 234 88 12
-0.42147729 0.59710997 1.8548882 234 88 12
-0.42018521 0.61416078 1.8537036 234 88 12
-0.42094725 0.63195443 1.8570067 234 88 12
-0.41902426 0.64876711 1.8544428 234 88 12
-0.41360718 0.66421294 1.8442359 234 88 12
-0.40815529 0.67955875 1.8339447 234 88 12
-0.40373635 0.6952343 1.825906 234 88 12
-0.40193829 0.71192354 1.8235993 234 88 12
-0.40136063 0.72910827 1.823964 234 88 12
-0.4442941 0.58304602 1.8619049 234 88 12
-0.44001961 0.59914106 1.8542907 234 88 12
-0.44004071 0.6166963 1.8559614 234 88 12
-0.44189358 0.63493252 1.8615968 234 88 12
-0.4416849 0.65244704 1.8627744 234 88 12
-0.44633576 0.67182982 1.8744756 234 88 12
-0.42890671 0.68266588 1.8383555 234 88 12
-0.46310031 0.60271269 1.8632387 234 88 12
-0.46157143 0.61979729 1.8615805 234 88 12
-0.46139115 0.63735557 1.8628106 234 88 12
-0.4634859 0.65576774 1.8689178 234 88 12
-0.47036371 0.67604858 1.885286 234 88 12
-0.48916775 0.6427297 1.8813845 234 88 12
