<svg xmlns="http://www.w3.org/2000/svg" width="1460" height="590" viewBox="0 0 1460 590">
<style>text{font-family:system-ui,sans-serif;fill:#0f172a}.title{font-size:22px;font-weight:700}.subtitle{font-size:12px;fill:#475569}.panel{font-size:14px;font-weight:650}.tick{font-size:10px;fill:#475569}.axis{stroke:#64748b;stroke-width:1}.grid{stroke:#e2e8f0;stroke-width:1}.legend{font-size:12px}.value{font-size:10px;font-weight:600}</style>
<rect width="100%" height="100%" fill="#ffffff"/>
<text x="730.00" y="32" class="title" text-anchor="middle">Mean surface coverage by acquired-view count</text>
<text x="730.00" y="54" class="subtitle" text-anchor="middle">Mean over 300 objects; absolute target: vis_a; reachable normalization uses each object&#x27;s eligible-view union.</text>
<line x1="710.00" y1="92" x2="730.00" y2="92" stroke="#64748b" stroke-width="3"/>
<text x="737.00" y="96.00" class="legend">random</text>
<text x="392.00" y="116" class="panel" text-anchor="middle">Absolute coverage</text>
<line x1="75.00" y1="510.00" x2="709.00" y2="510.00" class="grid"/>
<text x="67.00" y="514.00" class="tick" text-anchor="end">0.00</text>
<line x1="75.00" y1="433.00" x2="709.00" y2="433.00" class="grid"/>
<text x="67.00" y="437.00" class="tick" text-anchor="end">0.20</text>
<line x1="75.00" y1="356.00" x2="709.00" y2="356.00" class="grid"/>
<text x="67.00" y="360.00" class="tick" text-anchor="end">0.40</text>
<line x1="75.00" y1="279.00" x2="709.00" y2="279.00" class="grid"/>
<text x="67.00" y="283.00" class="tick" text-anchor="end">0.60</text>
<line x1="75.00" y1="202.00" x2="709.00" y2="202.00" class="grid"/>
<text x="67.00" y="206.00" class="tick" text-anchor="end">0.80</text>
<line x1="75.00" y1="125.00" x2="709.00" y2="125.00" class="grid"/>
<text x="67.00" y="129.00" class="tick" text-anchor="end">1.00</text>
<line x1="75.00" y1="125.00" x2="75.00" y2="510.00" class="axis"/>
<line x1="75.00" y1="510.00" x2="709.00" y2="510.00" class="axis"/>
<text x="75.00" y="529.00" class="tick" text-anchor="middle">0.5</text>
<text x="201.80" y="529.00" class="tick" text-anchor="middle">2.5</text>
<text x="328.60" y="529.00" class="tick" text-anchor="middle">4.5</text>
<text x="455.40" y="529.00" class="tick" text-anchor="middle">6.5</text>
<text x="582.20" y="529.00" class="tick" text-anchor="middle">8.5</text>
<text x="709.00" y="529.00" class="tick" text-anchor="middle">10.5</text>
<text x="392.00" y="558.00" class="subtitle" text-anchor="middle">total acquired views (initial views included)</text>
<polyline points="108.96,434.82 171.86,344.10 234.76,289.18 297.65,251.32 360.55,227.28 423.45,209.91 486.35,200.00 549.24,191.89 612.14,186.75 675.04,182.33" fill="none" stroke="#64748b" stroke-width="3" stroke-linejoin="round" data-policy="random"/>
<circle cx="108.96" cy="434.82" r="3" fill="#64748b" data-policy="random"/>
<circle cx="171.86" cy="344.10" r="3" fill="#64748b" data-policy="random"/>
<circle cx="234.76" cy="289.18" r="3" fill="#64748b" data-policy="random"/>
<circle cx="297.65" cy="251.32" r="3" fill="#64748b" data-policy="random"/>
<circle cx="360.55" cy="227.28" r="3" fill="#64748b" data-policy="random"/>
<circle cx="423.45" cy="209.91" r="3" fill="#64748b" data-policy="random"/>
<circle cx="486.35" cy="200.00" r="3" fill="#64748b" data-policy="random"/>
<circle cx="549.24" cy="191.89" r="3" fill="#64748b" data-policy="random"/>
<circle cx="612.14" cy="186.75" r="3" fill="#64748b" data-policy="random"/>
<circle cx="675.04" cy="182.33" r="3" fill="#64748b" data-policy="random"/>
<text x="1068.00" y="116" class="panel" text-anchor="middle">Reachable-normalized coverage</text>
<line x1="751.00" y1="510.00" x2="1385.00" y2="510.00" class="grid"/>
<text x="743.00" y="514.00" class="tick" text-anchor="end">0.00</text>
<line x1="751.00" y1="433.00" x2="1385.00" y2="433.00" class="grid"/>
<text x="743.00" y="437.00" class="tick" text-anchor="end">0.20</text>
<line x1="751.00" y1="356.00" x2="1385.00" y2="356.00" class="grid"/>
<text x="743.00" y="360.00" class="tick" text-anchor="end">0.40</text>
<line x1="751.00" y1="279.00" x2="1385.00" y2="279.00" class="grid"/>
<text x="743.00" y="283.00" class="tick" text-anchor="end">0.60</text>
<line x1="751.00" y1="202.00" x2="1385.00" y2="202.00" class="grid"/>
<text x="743.00" y="206.00" class="tick" text-anchor="end">0.80</text>
<line x1="751.00" y1="125.00" x2="1385.00" y2="125.00" class="grid"/>
<text x="743.00" y="129.00" class="tick" text-anchor="end">1.00</text>
<line x1="751.00" y1="125.00" x2="751.00" y2="510.00" class="axis"/>
<line x1="751.00" y1="510.00" x2="1385.00" y2="510.00" class="axis"/>
<text x="751.00" y="529.00" class="tick" text-anchor="middle">0.5</text>
<text x="877.80" y="529.00" class="tick" text-anchor="middle">2.5</text>
<text x="1004.60" y="529.00" class="tick" text-anchor="middle">4.5</text>
<text x="1131.40" y="529.00" class="tick" text-anchor="middle">6.5</text>
<text x="1258.20" y="529.00" class="tick" text-anchor="middle">8.5</text>
<text x="1385.00" y="529.00" class="tick" text-anchor="middle">10.5</text>
<text x="1068.00" y="558.00" class="subtitle" text-anchor="middle">total acquired views (initial views included)</text>
<polyline points="784.96,431.36 847.86,334.13 910.76,274.88 973.65,234.57 1036.55,208.71 1099.45,190.00 1162.35,179.21 1225.24,170.45 1288.14,164.89 1351.04,160.07" fill="none" stroke="#64748b" stroke-width="3" stroke-linejoin="round" data-policy="random"/>
<circle cx="784.96" cy="431.36" r="3" fill="#64748b" data-policy="random"/>
<circle cx="847.86" cy="334.13" r="3" fill="#64748b" data-policy="random"/>
<circle cx="910.76" cy="274.88" r="3" fill="#64748b" data-policy="random"/>
<circle cx="973.65" cy="234.57" r="3" fill="#64748b" data-policy="random"/>
<circle cx="1036.55" cy="208.71" r="3" fill="#64748b" data-policy="random"/>
<circle cx="1099.45" cy="190.00" r="3" fill="#64748b" data-policy="random"/>
<circle cx="1162.35" cy="179.21" r="3" fill="#64748b" data-policy="random"/>
<circle cx="1225.24" cy="170.45" r="3" fill="#64748b" data-policy="random"/>
<circle cx="1288.14" cy="164.89" r="3" fill="#64748b" data-policy="random"/>
<circle cx="1351.04" cy="160.07" r="3" fill="#64748b" data-policy="random"/>
</svg>
