ply
format ascii 1.0
element vertex 478
property float x
property float y
property float z
property uchar red
property uchar green
property uchar blue
end_header
-0.011862169 0.016175685 2.163851 234 88 12
-0.014882792 0.011380958 2.2703843 234 88 12
-0.013054565 0.013054565 2.2027965 234 88 12
-0.01104617 0.013054565 2.2027965 234 88 12
-0.007879125 0.011380958 2.2703843 234 88 12
-0.0061282082 0.011380958 2.2703843 234 88 12
-0.023096537 0.01104617 2.2027965 234 88 12
-0.019653246 0.010294558 2.2386689 234 88 12
-0.017781509 0.010294558 2.2386689 234 88 12
-0.012166295 0.010294558 2.2386689 234 88 12
-0.0050209863 0.01104617 2.2027965 234 88 12
-0.027113326 0.009037775 2.2027965 234 88 12
-0.0046793446 0.0084228199 2.2386689 234 88 12
-0.027140198 0.0065510822 2.2386689 234 88 12
0.0010041973 0.0070293806 2.2027965 234 88 12
0.0070293806 0.0070293806 2.2027965 234 88 12
0.012671924 0.0098559409 1.9908044 234 88 12
0.021119874 0.0098559409 1.9908044 234 88 12
0.02675184 0.0098559409 1.9908044 234 88 12
0.032383807 0.0098559409 1.9908044 234 88 12
0.04646045 0.013008926 1.7543305 234 88 12
0.03395211 0.008802399 2.0698202 234 88 12
0.038982052 0.008802399 2.0698202 234 88 12
-0.03313851 0.0050209863 2.2027965 234 88 12
-0.029011935 0.0046793446 2.2386689 234 88 12
-0.02526846 0.0046793446 2.2386689 234 88 12
-0.029811036 0.0078450097 1.906274 234 88 12
-0.023535028 0.0078450097 1.906274 234 88 12
-0.01725902 0.0078450097 1.906274 234 88 12
-0.010983014 0.0078450097 1.906274 234 88 12
-0.0042239749 0.0070399581 1.9908044 234 88 12
-0.0013579186 0.006789593 2.0170927 234 88 12
0.0014079916 0.0070399581 1.9908044 234 88 12
0.0084232837 0.0084232837 1.8455552 234 88 12
0.0093554147 0.0066824392 2.0283439 234 88 12
0.012630442 0.0070169126 1.9932241 234 88 12
0.015650211 0.0071137319 1.9830581 234 88 12
0.016278684 0.0062610325 2.0725915 234 88 12
0.022966672 0.0076555568 1.9261665 234 88 12
0.027215341 0.0080045117 1.8895262 234 88 12
0.038015772 0.0070399581 1.9908044 234 88 12
0.038982052 0.0062874276 2.0698202 234 88 12
-0.029811036 0.0047070058 1.906274 234 88 12
-0.023535028 0.0047070058 1.906274 234 88 12
-0.01725902 0.0047070058 1.906274 234 88 12
-0.012671924 0.0042239749 1.9908044 234 88 12
-0.0096381726 0.0041306457 2.0071371 234 88 12
-0.0073820902 0.0044292542 1.9548805 234 88 12
-0.0039234725 0.0039234725 2.0433924 234 88 12
-0.0014047691 0.0042143078 1.9924961 234 88 12
0.001391558 0.0041746739 1.9994321 234 88 12
0.0042410339 0.0042410339 1.9878191 234 88 12
0.0074973828 0.0044984296 1.9427748 234 88 12
0.0098236771 0.0042101475 1.9932241 234 88 12
0.015484761 0.0042231167 1.9909545 234 88 12
0.021955807 0.0038745543 2.0519531 234 88 12
0.030417146 0.0048027071 1.8895262 234 88 12
0.029567823 0.0042239749 1.9908044 234 88 12
0.032383807 0.0042239749 1.9908044 234 88 12
0.038015772 0.0042239749 1.9908044 234 88 12
0.057610959 0.0055752541 1.7543305 234 88 12
-0.017781509 0.00093586888 2.2386689 234 88 12
-0.013984763 0.001271342 2.0625453 234 88 12
-0.0089255348 0.0012750764 2.0605848 234 88 12
-0.0041287034 0.0013762345 2.0074768 234 88 12
0.0013859988 0.0013859988 2.0023506 234 88 12
0.0042721229 0.0014240409 1.9823785 234 88 12
0.00706839 0.0014136779 1.9878191 234 88 12
0.0054076165 0.00015450333 2.6488857 234 88 12
0.025345258 0.00068500702 2.3703713 234 88 12
-0.0057166233 -0.00015450333 2.6488857 234 88 12
-0.035146903 -0.0010041973 2.2027965 234 88 12
-0.030883674 -0.00093586888 2.2386689 234 88 12
-0.02526846 -0.00093586888 2.2386689 234 88 12
-0.017781509 -0.00093586888 2.2386689 234 88 12
-0.020397024 -0.0015690019 1.906274 234 88 12
-0.01725902 -0.0015690019 1.906274 234 88 12
-0.0098016262 -0.0010890696 2.1582384 234 88 12
-0.0092170415 -0.0013167202 2.0387218 234 88 12
-0.0059554935 -0.0011910987 2.1046731 234 88 12
-0.0041287034 -0.0013762345 2.0074768 234 88 12
0.0013623025 -0.0013623025 2.0147913 234 88 12
0.0042721229 -0.0014240409 1.9823785 234 88 12
0.0070905797 -0.001418116 1.9854891 234 88 12
0.012632362 -0.0014035957 1.9931122 234 88 12
0.015259901 -0.0013872638 2.0016866 234 88 12
0.017963074 -0.001381775 2.0045681 234 88 12
0.021222742 -0.0014148495 1.987204 234 88 12
0.021955807 -0.0012915181 2.0519531 234 88 12
0.02675184 -0.0014079916 1.9908044 234 88 12
0.032383807 -0.0014079916 1.9908044 234 88 12
0.04646045 -0.001858418 1.7543305 234 88 12
0.053894121 -0.001858418 1.7543305 234 88 12
0.039411604 -0.001271342 2.0625453 234 88 12
0.041497022 -0.0012574856 2.0698202 234 88 12
0.023975246 -0.00068500702 2.3703713 234 88 12
0.025345258 -0.00068500702 2.3703713 234 88 12
-0.021088142 -0.0030125917 2.2027965 234 88 12
-0.017071353 -0.0030125917 2.2027965 234 88 12
-0.01104617 -0.0030125917 2.2027965 234 88 12
-0.012671924 -0.0042239749 1.9908044 234 88 12
-0.0092830034 -0.0039784303 2.0337746 234 88 12
-0.0058190357 -0.0034914215 2.1190012 234 88 12
-0.001388993 -0.0041669789 2.0007787 234 88 12
0.0014047691 -0.0042143078 1.9924961 234 88 12
0.0042543481 -0.0042543481 1.9854891 234 88 12
0.0067246608 -0.0040347963 2.0239105 234 88 12
0.010002477 -0.0042867758 1.9798142 234 88 12
0.012313346 -0.0041044489 2.0117214 234 88 12
0.018341899 -0.0042327461 1.9892695 234 88 12
0.020319134 -0.004063827 2.0188303 234 88 12
0.027290454 -0.0048159626 1.8872066 234 88 12
0.021749366 -0.0034341104 2.1290307 234 88 12
0.039026778 -0.0055752541 1.7543305 234 88 12
0.036868922 -0.0038140262 2.0625453 234 88 12
-0.031130115 -0.0050209863 2.2027965 234 88 12
-0.010983014 -0.0078450097 1.906274 234 88 12
-0.0092920903 -0.0092920903 1.7543305 234 88 12
-0.0033155626 -0.0055259373 2.1497765 234 88 12
-0.0015650942 -0.0078254715 1.9083256 234 88 12
0.0011078812 -0.0055394061 2.1483624 234 88 12
0.0042017195 -0.0070028659 1.9946991 234 88 12
0.0081994133 -0.0081994133 1.8690616 234 88 12
0.011741235 -0.0083865961 1.8494074 234 88 12
0.01373771 -0.0076320614 1.9286336 234 88 12
0.017072223 -0.0077601015 1.9151894 234 88 12
0.020176264 -0.0077601015 1.9151894 234 88 12
0.019668475 -0.0065561584 2.0416033 234 88 12
0.026781864 -0.0078770192 1.902913 234 88 12
0.035309941 -0.0092920903 1.7543305 234 88 12
0.039026778 -0.0092920903 1.7543305 234 88 12
0.029240869 -0.0063567106 2.0625453 234 88 12
0.031783551 -0.0063567106 2.0625453 234 88 12
0.039411604 -0.0063567106 2.0625453 234 88 12
0.0050986097 -0.00077251665 2.6488857 234 88 12
-0.029121721 -0.0070293806 2.2027965 234 88 12
-0.025104931 -0.0070293806 2.2027965 234 88 12
-0.017071353 -0.0070293806 2.2027965 234 88 12
-0.01104617 -0.0070293806 2.2027965 234 88 12
-0.0050209863 -0.0070293806 2.2027965 234 88 12
0.0010041973 -0.0070293806 2.2027965 234 88 12
0.0038140262 -0.0088993944 2.0625453 234 88 12
0.0063567106 -0.0088993944 2.0625453 234 88 12
0.016725762 -0.013008926 1.7543305 234 88 12
0.020442598 -0.013008926 1.7543305 234 88 12
0.027876269 -0.013008926 1.7543305 234 88 12
0.021612816 -0.0088993944 2.0625453 234 88 12
0.045501053 -0.010983014 1.906274 234 88 12
-0.026959475 -0.0097054113 2.163851 234 88 12
-0.020135541 -0.007879125 2.2703843 234 88 12
-0.0061282082 -0.007879125 2.2703843 234 88 12
0.0008754583 -0.007879125 2.2703843 234 88 12
0.0037724567 -0.01131737 2.0698202 234 88 12
0.008802399 -0.01131737 2.0698202 234 88 12
0.01662316 -0.01662316 1.7603157 234 88 12
0.020317195 -0.01662316 1.7603157 234 88 12
0.027705265 -0.01662316 1.7603157 234 88 12
0.011645119 -0.006165063 2.3703713 234 88 12
-0.02264596 -0.011862169 2.163851 234 88 12
-0.023892226 -0.013832341 2.0698202 234 88 12
-0.014882792 -0.0096300412 2.2703843 234 88 12
-0.011380958 -0.0096300412 2.2703843 234 88 12
-0.0012574856 -0.013832341 2.0698202 234 88 12
-0.02264596 -0.014018928 2.163851 234 88 12
-0.018332444 -0.014018928 2.163851 234 88 12
-1.429238 0.065569051 1.8978111 234 88 12
-1.4293571 0.06283161 1.8978111 234 88 12
-1.3792868 0.06983424 1.4781741 234 88 12
-1.3794091 0.067020915 1.4781741 234 88 12
-1.3796537 0.061394267 1.4781741 234 88 12
1.1943668 0.14713246 1.8970673 234 88 12
1.1962409 0.14547615 1.8962005 234 88 12
1.1953312 0.15290764 1.8962005 234 88 12
1.198115 0.14381982 1.8953338 234 88 12
1.1976601 0.14753556 1.8953338 234 88 12
1.1952533 0.1473098 1.8561229 234 88 12
1.1986246 0.15331073 1.894467 234 88 12
1.2014083 0.14422293 1.8936002 234 88 12
1.1972641 0.14553255 1.8551929 234 88 12
1.1962881 0.15350661 1.8551929 234 88 12
1.2000439 0.15537016 1.8936002 234 88 12
1.199275 0.1437553 1.8542628 234 88 12
1.199031 0.14574881 1.8542628 234 88 12
1.198055 0.15372288 1.8542628 234 88 12
1.2012358 0.15928745 1.8927335 234 88 12
1.1994901 0.13921171 1.8104991 234 88 12
1.204529 0.15969056 1.891 234 88 12
1.2050637 0.14041705 1.8514727 234 88 12
1.2043316 0.14639761 1.8514727 234 88 12
1.2105926 0.14905763 1.9243138 234 88 12
1.203809 0.13539463 1.8085016 234 88 12
1.1783099 0.14580497 1.5304503 234 88 12
1.2117075 0.15272206 1.923503 234 88 12
1.2048786 0.15658146 1.8505427 234 88 12
1.2046345 0.15857498 1.8505427 234 88 12
1.2088414 0.13885608 1.8496126 234 88 12
1.2085974 0.14084959 1.8496126 234 88 12
1.1814519 0.14302813 1.5289973 234 88 12
1.2475646 0.15285663 2.3319476 234 88 12
1.1806893 0.14925765 1.5289973 234 88 12
1.1803081 0.15237239 1.5289973 234 88 12
1.2064015 0.15879124 1.8496126 234 88 12
1.2025621 0.16131626 1.8075029 234 88 12
1.2108524 0.13707882 1.8486826 234 88 12
1.2103643 0.14106587 1.8486826 234 88 12
1.2158519 0.1444094 1.9218814 234 88 12
1.2108884 0.16235463 1.8875329 234 88 12
1.2097633 0.13395058 1.8055054 234 88 12
1.2178177 0.14112206 1.9210706 234 88 12
1.1873544 0.14058918 1.526091 234 88 12
1.1862108 0.14993344 1.526091 234 88 12
1.1858295 0.1530482 1.526091 234 88 12
1.1850671 0.15927772 1.526091 234 88 12
1.2156905 0.15850152 1.9210706 234 88 12
1.2484553 0.15234302 2.3315182 234 88 12
1.2172308 0.15869007 1.9202598 234 88 12
1.2114581 0.16143356 1.8468225 234 88 12
1.2211112 0.13976119 1.919449 234 88 12
1.1913508 0.15372401 1.5231848 234 88 12
1.2187712 0.15887859 1.919449 234 88 12
1.215601 0.16481715 1.8849328 234 88 12
1.218164 0.13595037 1.8449625 234 88 12
1.2140474 0.14311799 1.7970126 234 88 12
1.2205243 0.1573292 1.9186382 234 88 12
1.2117871 0.16461825 1.8025092 234 88 12
1.2172476 0.16501871 1.884066 234 88 12
1.2241919 0.14013827 1.9178274 234 88 12
1.1968721 0.15439983 1.5202785 234 88 12
1.2167587 0.16208236 1.8440324 234 88 12
1.2191217 0.16336238 1.8831992 234 88 12
1.2216977 0.13638291 1.8431025 234 88 12
1.2496177 0.15186268 2.3309457 234 88 12
1.2086858 0.15454948 1.6665777 234 88 12
1.1992517 0.15785249 1.5188254 234 88 12
1.223605 0.15770628 1.9170166 234 88 12
1.2233924 0.15944423 1.9170166 234 88 12
1.2185256 0.16229863 1.8431025 234 88 12
1.2234646 0.13659917 1.8421724 234 88 12
1.2143317 0.14229895 1.6965148 234 88 12
1.2137207 0.14729163 1.6965148 234 88 12
1.2094476 0.15487576 1.6387591 234 88 12
1.2177414 0.1631742 1.7995129 234 88 12
1.222415 0.16376549 1.8814657 234 88 12
1.2221876 0.16562337 1.8814657 234 88 12
1.2168499 0.14007343 1.6953502 234 88 12
1.1973462 0.14468201 1.3492177 234 88 12
1.2151957 0.15001988 1.6873689 234 88 12
1.2062764 0.15837996 1.5430639 234 88 12
1.2242891 0.16210917 1.880599 234 88 12
1.2010677 0.14139293 1.3474964 234 88 12
1.2177416 0.14776984 1.6861914 234 88 12
1.2171237 0.15281753 1.6861914 234 88 12
1.2106173 0.15852217 1.5734859 234 88 12
1.2217983 0.16149789 1.7975154 234 88 12
1.2215805 0.13811871 1.6930209 234 88 12
1.2047892 0.13810386 1.3457752 234 88 12
1.2202874 0.14551978 1.685014 234 88 12
1.2199785 0.14804363 1.685014 234 88 12
1.2358843 0.15196143 2.0238247 234 88 12
1.2357178 0.1533213 2.0238247 234 88 12
1.2131302 0.15595038 1.5634179 234 88 12
1.2492542 0.15429258 2.3061852 234 88 12
1.2260813 0.15917666 1.8393823 234 88 12
1.2302881 0.13945776 1.8384522 234 88 12
1.223793 0.13838953 1.6918564 234 88 12
1.2212887 0.15588897 1.6838366 234 88 12
1.213055 0.15954201 1.5115597 234 88 12
1.2260057 0.13866036 1.6906917 234 88 12
1.2117805 0.13521503 1.342333 234 88 12
1.2250702 0.14354353 1.6826591 234 88 12
1.2208453 0.15084907 1.6034437 234 88 12
1.2205032 0.15364419 1.6034437 234 88 12
1.2313306 0.15919963 1.8771319 234 88 12
1.233822 0.13989028 1.8365922 234 88 12
1.2233227 0.1511523 1.6021398 234 88 12
1.2229806 0.15394741 1.6021398 234 88 12
1.2185763 0.16021781 1.5086534 234 88 12
1.2355889 0.14010656 1.8356621 234 88 12
1.2187718 0.13232619 1.3388906 234 88 12
1.229853 0.14156729 1.6803042 234 88 12
1.22299 0.14162882 1.4886487 234 88 12
1.221337 0.16055572 1.5072004 234 88 12
1.2275288 0.13286079 1.5057472 234 88 12
1.2424099 0.14861946 2.0206525 234 88 12
1.2240976 0.16089362 1.5057472 234 88 12
1.2259415 0.12958552 1.3420992 234 88 12
1.2253116 0.13312666 1.3354483 234 88 12
1.2343268 0.14211488 1.6779493 234 88 12
1.231097 0.14926685 1.5982277 234 88 12
1.2307549 0.15206198 1.5982277 234 88 12
1.2392216 0.15785374 1.9089086 234 88 12
0.1318098 1.2100253 1.8055054 234 88 12
0.12966901 1.2102873 1.8055054 234 88 12
0.14149839 1.2138982 1.8468225 234 88 12
0.13751136 1.2143861 1.8468225 234 88 12
0.12561969 1.2127088 1.8045067 234 88 12
0.14323708 1.2206857 1.919449 234 88 12
0.13802324 1.2213238 1.919449 234 88 12
0.13374059 1.2166411 1.8458925 234 88 12
0.13174707 1.2168851 1.8458925 234 88 12
0.14791147 1.2167 1.8449625 234 88 12
0.14690152 1.2218007 1.9186382 234 88 12
0.13821179 1.2228643 1.9186382 234 88 12
0.12598279 1.219384 1.8449625 234 88 12
0.12000224 1.220116 1.8449625 234 88 12
0.15211478 1.2179788 1.8440324 234 88 12
0.15056595 1.2229155 1.9178274 234 88 12
0.14535211 1.2235538 1.9178274 234 88 12
0.11224443 1.2228589 1.8440324 234 88 12
0.17327446 1.1876087 1.3592052 234 88 12
0.16960779 1.1880575 1.3592052 234 88 12
0.16232805 1.1885486 1.3526599 234 88 12
0.15494944 1.1894517 1.3526599 234 88 12
0.15126014 1.1899033 1.3526599 234 88 12
0.15308955 1.2494675 2.3309457 234 88 12
0.13650292 1.1917095 1.3526599 234 88 12
0.13281362 1.1921611 1.3526599 234 88 12
0.13163708 1.2267959 1.9170166 234 88 12
0.14910223 1.2499555 2.3309457 234 88 12
0.1124607 1.2246258 1.8431025 234 88 12
0.18833892 1.1890634 1.3574947 234 88 12
0.18486409 1.1891091 1.3509388 234 88 12
0.1811748 1.1895607 1.3509388 234 88 12
0.16993688 1.2104875 1.6885464 234 88 12
0.16759156 1.2006484 1.5136907 234 88 12
0.15695833 1.2316027 2.025728 234 88 12
0.15819038 1.2020123 1.5173723 234 88 12
0.15478066 1.212804 1.6965148 234 88 12
0.14978798 1.2134151 1.6965148 234 88 12
0.1426166 1.2039185 1.5173723 234 88 12
0.12475017 1.2271905 1.8814657 234 88 12
0.11917655 1.2278727 1.8814657 234 88 12
0.20371084 1.1901211 1.3492177 234 88 12
0.18535377 1.2108709 1.6873689 234 88 12
0.18282992 1.2111797 1.6873689 234 88 12
0.18044071 1.2018892 1.5122317 234 88 12
0.16390517 1.2319757 2.0250936 234 88 12
0.16787256 1.2036293 1.5159191 234 88 12
0.1625405 1.2140999 1.6953502 234 88 12
0.14622693 1.2341394 2.0250936 234 88 12
0.13973553 1.2222334 1.7929821 234 88 12
0.11492167 1.2101103 1.5159191 234 88 12
0.12866746 1.2283823 1.880599 234 88 12
0.12123597 1.2292919 1.880599 234 88 12
0.1193781 1.2295194 1.880599 234 88 12
0.21517898 1.1920363 1.3474964 234 88 12
0.19319911 1.2121811 1.6861914 234 88 12
0.16949216 1.2325152 2.0244591 234 88 12
0.17755474 1.2052461 1.5144659 234 88 12
0.17030033 1.2153958 1.6941856 234 88 12
0.16372275 1.2125057 1.6224806 234 88 12
0.16031498 1.2166181 1.6941856 234 88 12
0.15781863 1.2169236 1.6941856 234 88 12
0.1503296 1.2178402 1.6941856 234 88 12
0.14533693 1.2184513 1.6941856 234 88 12
0.13706289 1.2102023 1.5144659 234 88 12
0.13083337 1.2109648 1.5144659 234 88 12
0.12460385 1.2117273 1.5144659 234 88 12
0.13258477 1.2295742 1.8797323 234 88 12
0.11111598 1.2301705 1.8403122 234 88 12
0.21926852 1.1948546 1.3457752 234 88 12
0.19599676 1.2141091 1.685014 234 88 12
0.17235942 1.2333876 2.0238247 234 88 12
0.18412217 1.2072443 1.5130129 234 88 12
0.17556383 1.2169973 1.6930209 234 88 12
0.17143582 1.2157131 1.6560212 234 88 12
0.17002778 1.2129369 1.5950507 234 88 12
0.16707312 1.2136555 1.6024297 234 88 12
0.16567442 1.2086109 1.4945793 234 88 12
0.16249633 1.2089999 1.4945793 234 88 12
0.15861225 1.2149891 1.6085919 234 88 12
0.15597859 1.2126319 1.5531877 234 88 12
0.15002009 1.2133023 1.5519664 234 88 12
0.14754452 1.2168424 1.6189047 234 88 12
0.14409719 1.2141988 1.5555145 234 88 12
0.14160623 1.2161059 1.5886458 234 88 12
0.13911738 1.217402 1.6091467 234 88 12
0.13494183 1.2147535 1.5438135 234 88 12
0.13117127 1.2137254 1.5130129 234 88 12
0.12494176 1.214488 1.5130129 234 88 12
0.13464418 1.2309935 1.8788655 234 88 12
0.19879441 1.216037 1.6838366 234 88 12
0.18082733 1.2185987 1.6918564 234 88 12
0.17023665 1.2281733 1.8750105 234 88 12
0.17873155 1.2098716 1.4930966 234 88 12
0.17290683 1.215631 1.6047478 234 88 12
0.1701117 1.2159731 1.6047478 234 88 12
0.16452146 1.2166574 1.6047478 234 88 12
0.15613608 1.2176838 1.6047478 234 88 12
0.15336666 1.2218235 1.6888387 234 88 12
0.15038632 1.2164575 1.5620456 234 88 12
0.14744473 1.2168175 1.5620456 234 88 12
0.14502078 1.2193223 1.6108998 234 88 12
0.14256695 1.2206545 1.6337286 234 88 12
0.1441351 1.2315031 1.8779987 234 88 12
0.13773471 1.2224561 1.6605037 234 88 12
0.13490118 1.2223761 1.6510592 234 88 12
0.13226491 1.2226988 1.6510592 234 88 12
0.094132073 1.2210611 1.5115597 234 88 12
0.2237583 1.2009429 1.342333 234 88 12
0.1990682 1.218274 1.6826591 234 88 12
0.15881012 1.2504228 2.3300872 234 88 12
0.17401433 1.2356317 2.0225558 234 88 12
0.18609083 1.2202002 1.6906917 234 88 12
0.1835945 1.2205057 1.6906917 234 88 12
0.18439054 1.2167399 1.6034437 234 88 12
0.18159543 1.217082 1.6034437 234 88 12
0.17600518 1.2177663 1.6034437 234 88 12
0.17041492 1.2184505 1.6034437 234 88 12
0.16467777 1.2196015 1.6141176 234 88 12
0.16221236 1.2187113 1.5857656 234 88 12
0.15062216 1.2180321 1.5358738 234 88 12
0.15152268 1.2465651 2.2171183 234 88 12
0.13949884 1.2218162 1.5934925 234 88 12
0.12390005 1.2356513 1.8771319 234 88 12
0.1201843 1.236106 1.8771319 234 88 12
0.11575182 1.2349832 1.8375221 234 88 12
0.22415853 1.2042128 1.3406118 234 88 12
0.19135432 1.2218016 1.689527 234 88 12
0.19028403 1.218533 1.6021398 234 88 12
0.1874889 1.2188752 1.6021398 234 88 12
0.18189865 1.2195594 1.6021398 234 88 12
0.17630841 1.2202437 1.6021398 234 88 12
0.17822185 1.2124933 1.4089332 234 88 12
0.17602952 1.2104158 1.3486333 234 88 12
0.17080882 1.2145137 1.4375437 234 88 12
0.15953767 1.2222964 1.6021398 234 88 12
0.15674254 1.2226385 1.6021398 234 88 12
0.15394741 1.2229806 1.6021398 234 88 12
0.15069346 1.2173926 1.4482595 234 88 12
0.14315183 1.225433 1.6312133 234 88 12
0.14722823 1.2407494 2.0377502 234 88 12
0.1371067 1.2357061 1.8762652 234 88 12
0.13153309 1.2363883 1.8762652 234 88 12
0.097922646 1.2262012 1.5086534 234 88 12
0.11596809 1.23675 1.8365922 234 88 12
0.19412148 1.2237086 1.6883625 234 88 12
0.18033421 1.2128276 1.3369848 234 88 12
0.17663839 1.21328 1.3369848 234 88 12
0.1711731 1.2174898 1.4359771 234 88 12
0.16781522 1.2179008 1.4359771 234 88 12
0.16464628 1.2176769 1.4188731 234 88 12
0.1598409 1.2247738 1.6008358 234 88 12
0.15143283 1.2254915 1.5921304 234 88 12
0.14880916 1.2270079 1.6255459 234 88 12
0.15284638 1.2520993 2.3408318 234 88 12
0.14225806 1.2246649 1.5376265 234 88 12
0.14712431 1.2413965 2.0220394 234 88 12
0.14288187 1.2366705 1.8753984 234 88 12
0.1013753 1.2285806 1.5072004 234 88 12
0.19688864 1.2256156 1.6871978 234 88 12
0.19648072 1.2228036 1.5995318 234 88 12
0.19368561 1.2231457 1.5995318 234 88 12
0.18809536 1.22383 1.5995318 234 88 12
0.18250512 1.2245141 1.5995318 234 88 12
0.17691487 1.2251984 1.5995318 234 88 12
0.18037619 1.2166153 1.3496002 234 88 12
0.17672925 1.2170616 1.3496002 234 88 12
0.172554 1.2185196 1.3786026 234 88 12
0.16872619 1.2196047 1.3974917 234 88 12
0.15736878 1.22745 1.5952168 234 88 12
0.1546641 1.2248601 1.5057472 234 88 12
0.15269905 1.2419106 2.0206525 234 88 12
0.14997932 1.2422435 2.0206525 234 88 12
0.14220507 1.2263851 1.5057472 234 88 12
0.13909031 1.2267663 1.5057472 234 88 12
0.14308342 1.2383173 1.8745317 234 88 12
0.13936768 1.238772 1.8745317 234 88 12
0.13193619 1.2396816 1.8745317 234 88 12
0.10794272 1.2305788 1.5057472 234 88 12
0.12238117 1.2395518 1.8347321 234 88 12
0.16883272 1.2287022 1.5982277 234 88 12
0.16470702 1.2318003 1.6860332 234 88 12
0.16047426 1.2366827 1.8338021 234 88 12
0.15050668 1.2379026 1.8338021 234 88 12
0.14916401 1.2402852 1.9089086 234 88 12
0.13942821 1.229527 1.504294 234 88 12
0.13004659 1.2426251 1.9089086 234 88 12
