ply
format ascii 1.0
element vertex 1604
property float x
property float y
property float z
property uchar red
property uchar green
property uchar blue
end_header
0.33151072 -0.96465832 1.6191597 234 88 12
0.26962504 -0.93758333 1.5956188 234 88 12
0.2605826 -0.93043929 1.5913271 234 88 12
0.27656111 -0.93295044 1.5962079 234 88 12
0.2924276 -0.93551105 1.6010724 234 88 12
0.31714132 -0.94167048 1.6092297 234 88 12
0.2785311 -0.92267203 1.5939796 234 88 12
0.28082007 -0.91987556 1.5938351 234 88 12
0.27492473 -0.91374588 1.5906436 234 88 12
0.34998885 -0.94079143 1.6176486 234 88 12
0.32170451 -0.92191833 1.6051524 234 88 12
0.34667158 -0.92878246 1.6135648 234 88 12
0.33430323 -0.91628677 1.6069664 234 88 12
0.40388975 -0.94271958 1.6323645 234 88 12
0.34170863 -0.91215849 1.607814 234 88 12
0.32857096 -0.90269542 1.6018234 234 88 12
0.3839269 -0.92351693 1.6219726 234 88 12
0.30768517 -0.88582426 1.5918115 234 88 12
0.34760007 -0.89997619 1.60611 234 88 12
0.31222272 -0.88012916 1.5914847 234 88 12
0.31491798 -0.87747252 1.5914847 234 88 12
0.32774287 -0.87950706 1.5954074 234 88 12
0.33433235 -0.87870866 1.5969299 234 88 12
0.33685705 -0.96440786 1.6171283 234 88 12
0.28876069 -0.94248825 1.5984241 234 88 12
0.34205586 -0.95955569 1.6172017 234 88 12
0.2750892 -0.9298929 1.5913903 234 88 12
0.33816272 -0.94411182 1.6119996 234 88 12
0.37371591 -0.9515928 1.6234727 234 88 12
0.33423206 -0.93184787 1.6076456 234 88 12
0.39489877 -0.95352966 1.6296284 234 88 12
0.29814473 -0.90946257 1.5920093 234 88 12
0.30927989 -0.90666771 1.5942165 234 88 12
0.33563238 -0.91427135 1.6032759 234 88 12
0.36159325 -0.92188215 1.612233 234 88 12
0.30632821 -0.89400959 1.5900164 234 88 12
0.32694662 -0.89930063 1.596927 234 88 12
0.36851692 -0.91044372 1.6109883 234 88 12
0.3820453 -0.9129281 1.6152561 234 88 12
0.2910715 -0.94456029 1.5960425 234 88 12
0.31050098 -0.94491202 1.6013535 234 88 12
0.56638366 -1.0421379 1.6965141 234 88 12
0.38790435 -0.96850967 1.6285563 234 88 12
0.28902644 -0.92551613 1.5903075 234 88 12
0.35127416 -0.9469974 1.6128658 234 88 12
0.30318242 -0.92385882 1.5936558 234 88 12
0.31989107 -0.92704546 1.5990086 234 88 12
0.36455017 -0.94195068 1.615055 234 88 12
0.34284773 -0.92934221 1.6057961 234 88 12
0.33735904 -0.92341262 1.602708 234 88 12
0.37548977 -0.93250972 1.6154203 234 88 12
0.32184154 -0.90567511 1.5937126 234 88 12
0.3153615 -0.89526403 1.589138 234 88 12
0.35422257 -0.90504748 1.6022333 234 88 12
0.3318727 -0.89119744 1.5924625 234 88 12
0.33452556 -0.88858259 1.5924625 234 88 12
0.27457803 -0.93577528 1.5855854 234 88 12
0.27797738 -0.9334107 1.5858563 234 88 12
0.28524327 -0.93256992 1.5875937 234 88 12
0.38837835 -0.9664228 1.62484 234 88 12
0.31653908 -0.93407768 1.5964868 234 88 12
0.31914705 -0.93150711 1.5964868 234 88 12
0.33099392 -0.93273187 1.600033 234 88 12
0.33132139 -0.92924988 1.5991647 234 88 12
0.30423635 -0.914289 1.5877147 234 88 12
0.31884813 -0.91669804 1.5923355 234 88 12
0.29707131 -0.90371042 1.5828658 234 88 12
0.31222567 -0.90260994 1.5866691 234 88 12
0.32698473 -0.90525216 1.5913938 234 88 12
0.58624148 -1.0157174 1.6919944 234 88 12
0.62283307 -1.0291804 1.7056082 234 88 12
0.34616122 -0.9024803 1.5958272 234 88 12
0.30536133 -0.93801713 1.5909673 234 88 12
0.34970298 -0.94856405 1.6060177 234 88 12
0.35222945 -0.94607377 1.6060177 234 88 12
0.30347532 -0.91885287 1.5851352 234 88 12
0.30970645 -0.91397077 1.5854846 234 88 12
0.32356656 -0.9160952 1.5898639 234 88 12
0.3187342 -0.94802821 1.5938673 234 88 12
0.28215939 -0.93003958 1.5787376 234 88 12
0.35913354 -0.95345557 1.6065357 234 88 12
0.48500985 -1.0009365 1.6545666 234 88 12
0.77295828 -1.1155304 1.7661139 234 88 12
0.36521009 -0.96728098 1.6086984 234 88 12
0.28586572 -0.93269247 1.5768272 234 88 12
0.28683224 -0.92935944 1.5761546 234 88 12
0.334512 -0.94112617 1.5927585 234 88 12
0.36752853 -0.95097977 1.604738 234 88 12
0.32000691 -0.92794973 1.5849956 234 88 12
0.41814369 -0.96496427 1.622786 234 88 12
0.29585677 -0.93780327 1.5773968 234 88 12
0.31212565 -0.94055104 1.5827529 234 88 12
0.61680073 -1.0584621 1.702008 234 88 12
0.51835841 -1.0162729 1.6623093 234 88 12
0.30214164 -0.92550361 1.5756561 234 88 12
0.30482087 -0.92286271 1.5756561 234 88 12
0.30338311 -0.91851896 1.5740132 234 88 12
0.3179124 -0.92080837 1.5787498 234 88 12
0.33294117 -0.95347774 1.5887487 234 88 12
0.31146044 -0.94145584 1.5791967 234 88 12
0.38430193 -0.96678245 1.6071448 234 88 12
0.38620409 -0.96072537 1.6059413 234 88 12
0.60000193 -1.0446901 1.6907427 234 88 12
0.32137215 -0.92709678 1.5778761 234 88 12
0.33478218 -0.95534557 1.5862581 234 88 12
0.31334645 -0.94336927 1.5766451 234 88 12
0.31598526 -0.94076824 1.5766451 234 88 12
0.34573799 -0.94902092 1.5875572 234 88 12
0.35496664 -0.94918126 1.5902451 234 88 12
0.29068026 -0.93937576 1.5652717 234 88 12
0.30164251 -0.93626338 1.5675259 234 88 12
0.30231762 -0.92908871 1.5656185 234 88 12
0.29260731 -0.94133085 1.5626646 234 88 12
0.30511662 -0.93139297 1.5633719 234 88 12
0.36306968 -0.96627373 1.5870684 234 88 12
0.30609396 -0.93669033 1.5614891 234 88 12
1.182888 -0.15907255 1.3450351 234 88 12
1.2451812 -0.20359357 1.3559643 234 88 12
1.2850499 -0.20683622 1.3643471 234 88 12
1.4326277 -0.21185912 1.3951383 234 88 12
1.1899257 -0.16040647 1.3430221 234 88 12
1.2193031 -0.15520841 1.3489394 234 88 12
1.1908864 -0.19829142 1.3410327 234 88 12
1.2486732 -0.2041723 1.3534193 234 88 12
1.1836355 -0.18953785 1.3391999 234 88 12
1.2498114 -0.19727109 1.3534193 234 88 12
1.1795543 -0.16593017 1.3375187 234 88 12
1.1917517 -0.16449161 1.34004 234 88 12
1.191324 -0.16061233 1.3398149 234 88 12
1.197901 -0.15815358 1.341116 234 88 12
1.1926032 -0.14946976 1.3396972 234 88 12
1.1803416 -0.20037432 1.3353487 234 88 12
1.2070171 -0.20092592 1.3410809 234 88 12
1.21264 -0.18708116 1.3417962 234 88 12
1.2216234 -0.1666052 1.3429967 234 88 12
1.2046111 -0.15567817 1.3389674 234 88 12
1.189106 -0.20178293 1.3337576 234 88 12
1.2014886 -0.20002815 1.336388 234 88 12
1.1985246 -0.19580105 1.3355917 234 88 12
1.1750834 -0.18805636 1.330215 234 88 12
1.2358594 -0.18393593 1.3432869 234 88 12
1.1930412 -0.17220786 1.3335526 234 88 12
1.1797708 -0.16585337 1.330438 234 88 12
1.2110891 -0.16815983 1.337333 234 88 12
1.2515591 -0.16534522 1.3460349 234 88 12
1.6317707 -0.24218723 1.4314934 234 88 12
1.2095288 -0.20504941 1.3348553 234 88 12
1.1750911 -0.19572723 1.3269088 234 88 12
1.2890348 -0.21089308 1.3526303 234 88 12
1.2415352 -0.19937463 1.3417184 234 88 12
1.2004234 -0.18109141 1.3319713 234 88 12
1.2128389 -0.17962649 1.3346603 234 88 12
1.265637 -0.18235624 1.3464223 234 88 12
1.1827897 -0.15867853 1.3272597 234 88 12
1.2287821 -0.16421176 1.3376204 234 88 12
1.1843941 -0.15129611 1.3273451 234 88 12
1.2542467 -0.21218705 1.3416725 234 88 12
1.1878362 -0.19780955 1.3262464 234 88 12
1.1791929 -0.18489294 1.3238301 234 88 12
1.1921256 -0.17954853 1.326533 234 88 12
1.1836016 -0.17416206 1.324422 234 88 12
1.242579 -0.21033888 1.3356123 234 88 12
1.3779148 -0.22880925 1.3671187 234 88 12
1.2198632 -0.19934855 1.3300277 234 88 12
1.3181446 -0.21241605 1.3528948 234 88 12
1.3141279 -0.20838684 1.3518291 234 88 12
1.1839114 -0.17032662 1.3207525 234 88 12
1.1903708 -0.16388553 1.3219813 234 88 12
1.245442 -0.17109048 1.3347903 234 88 12
1.1856722 -0.15524365 1.320587 234 88 12
1.1862886 -0.15150627 1.320587 234 88 12
1.2067173 -0.1519663 1.3252554 234 88 12
1.248661 -0.14992963 1.3347286 234 88 12
1.2098155 -0.13746087 1.3254161 234 88 12
1.1834115 -0.20092267 1.3181911 234 88 12
1.2102038 -0.2014648 1.3244033 234 88 12
1.1942397 -0.19507077 1.3204705 234 88 12
1.2016017 -0.19253083 1.3220749 234 88 12
1.2001387 -0.18850343 1.3215833 234 88 12
1.1994573 -0.18459967 1.321277 234 88 12
1.1899974 -0.17526087 1.318735 234 88 12
1.2088649 -0.17499816 1.3230851 234 88 12
1.1901304 -0.1676134 1.3184742 234 88 12
1.1914726 -0.16019204 1.3185016 234 88 12
1.1882738 -0.15182708 1.3174435 234 88 12
1.2195278 -0.1508283 1.324628 234 88 12
1.1962568 -0.14195986 1.3189123 234 88 12
1.2050968 -0.13625862 1.3207378 234 88 12
1.1979545 -0.13078101 1.3188785 234 88 12
1.2502527 -0.13919997 1.3312851 234 88 12
1.1904147 -0.20205039 1.3162657 234 88 12
1.2055367 -0.20070767 1.3197602 234 88 12
1.1872177 -0.19006586 1.3150523 234 88 12
1.1884471 -0.18261163 1.3150523 234 88 12
1.2000052 -0.1732696 1.3174016 234 88 12
1.2012877 -0.16970812 1.3175646 234 88 12
1.2266803 -0.14478189 1.3225555 234 88 12
1.2522695 -0.13953261 1.3283538 234 88 12
1.2519044 -0.20827213 1.3275405 234 88 12
1.2314366 -0.2012675 1.322395 234 88 12
1.1870464 -0.19002466 1.3113903 234 88 12
1.2208003 -0.18834512 1.3193567 234 88 12
1.1870981 -0.17849135 1.3109499 234 88 12
1.2157017 -0.17994414 1.3178136 234 88 12
1.3082891 -0.1800711 1.3398513 234 88 12
1.2094352 -0.15605044 1.3153846 234 88 12
1.2011278 -0.15048344 1.3131893 234 88 12
1.2170044 -0.14628661 1.3168027 234 88 12
1.2272117 -0.14102438 1.3190252 234 88 12
1.2437003 -0.13737668 1.3228058 234 88 12
1.3553009 -0.22192547 1.349646 234 88 12
1.1967663 -0.18785615 1.3100152 234 88 12
1.3148552 -0.20169221 1.3390757 234 88 12
1.2376226 -0.18397093 1.3197242 234 88 12
1.2564664 -0.18386266 1.3242693 234 88 12
1.2196168 -0.17313054 1.3149456 234 88 12
1.2047883 -0.16645336 1.3110998 234 88 12
1.2365701 -0.1690198 1.3188748 234 88 12
1.2264476 -0.16324824 1.3162012 234 88 12
1.2233629 -0.15510263 1.3151321 234 88 12
1.2038608 -0.14712465 1.3101062 234 88 12
1.2017472 -0.13896078 1.3092707 234 88 12
1.2159891 -0.13834094 1.3126844 234 88 12
1.2625624 -0.14530675 1.3242058 234 88 12
1.3166951 -0.21548212 1.3368832 234 88 12
1.2279181 -0.19697255 1.3143944 234 88 12
1.3082213 -0.20726928 1.3344762 234 88 12
1.2120492 -0.18673159 1.3100945 234 88 12
1.1969448 -0.18020993 1.306132 234 88 12
1.2652482 -0.18905886 1.3232167 234 88 12
1.2304997 -0.17889275 1.3142962 234 88 12
1.2541666 -0.17611791 1.3199801 234 88 12
1.1987437 -0.15363753 1.3054992 234 88 12
1.216156 -0.15347357 1.3097569 234 88 12
1.2072657 -0.1439137 1.3071935 234 88 12
1.2136394 -0.13767417 1.3085023 234 88 12
1.249483 -0.14214511 1.3174609 234 88 12
1.2097623 -0.19386359 1.3062379 234 88 12
1.1994051 -0.1882762 1.3034364 234 88 12
1.2983496 -0.19516619 1.328295 234 88 12
1.2012984 -0.17330675 1.3032935 234 88 12
1.5786954 -0.24244347 1.3998654 234 88 12
1.2680527 -0.17879091 1.3200989 234 88 12
1.2511277 -0.16447303 1.3153085 234 88 12
1.2459831 -0.15971082 1.3138355 234 88 12
1.2018752 -0.1426101 1.3021792 234 88 12
1.2024912 -0.1388761 1.3021792 234 88 12
1.2564038 -0.14728406 1.3159148 234 88 12
1.3103144 -0.21100661 1.3286783 234 88 12
1.2037309 -0.18901052 1.3009174 234 88 12
1.2443419 -0.19243033 1.3112888 234 88 12
1.303067 -0.19945076 1.3263726 234 88 12
1.2252278 -0.18154031 1.3060219 234 88 12
1.2258275 -0.17790513 1.3060219 234 88 12
1.2100263 -0.17109773 1.301759 234 88 12
1.1982754 -0.16496398 1.2985443 234 88 12
1.224095 -0.16628963 1.3051029 234 88 12
1.2083832 -0.15929894 1.3008549 234 88 12
1.2212201 -0.15814191 1.3040403 234 88 12
1.2597502 -0.15889156 1.3137767 234 88 12
1.2192355 -0.14631549 1.3030491 234 88 12
1.2139233 -0.14131165 1.3015032 234 88 12
1.2193341 -0.13870649 1.3027579 234 88 12
1.2218149 -0.19589604 1.3021873 234 88 12
1.2706654 -0.19352001 1.3145639 234 88 12
1.205652 -0.17785883 1.2972995 234 88 12
1.2246997 -0.17010836 1.3018378 234 88 12
1.2195629 -0.16150554 1.3001635 234 88 12
1.2822634 -0.1707966 1.3165689 234 88 12
1.5143479 -0.21658617 1.377773 234 88 12
1.2097478 -0.1479616 1.2970861 234 88 12
1.2197814 -0.14631918 1.2995796 234 88 12
1.2449797 -0.19983684 1.3047675 234 88 12
1.2081095 -0.18209675 1.2944628 234 88 12
1.2359421 -0.18344481 1.3017273 234 88 12
1.2264912 -0.177928 1.2990445 234 88 12
1.2118737 -0.17133431 1.2949779 234 88 12
1.2400925 -0.19899119 1.2999309 234 88 12
1.2586259 -0.19852677 1.3047756 234 88 12
1.2080908 -0.18588604 1.2909638 234 88 12
1.2220196 -0.18459333 1.2945639 234 88 12
1.2108449 -0.17873509 1.2913771 234 88 12
1.2261903 -0.19284821 1.2924129 234 88 12
1.2953937 -0.20142423 1.3112004 234 88 12
1.2292025 -0.18586552 1.2929078 234 88 12
1.2996188 -0.19170497 1.311898 234 88 12
1.249869 -0.17857082 1.298086 234 88 12
1.2054806 -0.19306046 1.2832202 234 88 12
1.2523121 -0.1973864 1.2960392 234 88 12
1.2557523 -0.19066623 1.2966681 234 88 12
1.2082028 -0.1935128 1.2802762 234 88 12
1.2082356 -0.18967465 1.2801121 234 88 12
1.2181525 -0.18759498 1.282728 234 88 12
1.3620679 -0.210003 1.3230573 234 88 12
1.284732 -0.19234827 1.3011326 234 88 12
0.59787846 -1.550702 0.73892087 234 88 12
0.60086805 -1.5484526 0.73892087 234 88 12
0.60846883 -1.5487564 0.73937887 234 88 12
0.60408819 -1.5584698 0.73622811 234 88 12
0.62791872 -1.5562255 0.73746693 234 88 12
0.59530205 -1.5542586 0.73169446 234 88 12
0.61641324 -1.5542084 0.73299152 234 88 12
0.6386022 -1.562692 0.73505419 234 88 12
0.60771018 -1.5538124 0.72876149 234 88 12
0.60350364 -1.5476102 0.72796649 234 88 12
0.62022847 -1.5725484 0.72756451 234 88 12
0.60899138 -1.5627283 0.7259596 234 88 12
0.59388202 -1.5467777 0.72356033 234 88 12
0.62157017 -1.5542598 0.72604704 234 88 12
0.5979082 -1.5649697 0.72175723 234 88 12
0.59060359 -1.5533584 0.72020417 234 88 12
0.59425181 -1.547523 0.71992362 234 88 12
0.64149284 -1.5696102 0.72515565 234 88 12
0.63158321 -1.5603421 0.72363734 234 88 12
0.57243103 -1.5636467 0.71616083 234 88 12
0.61013824 -1.5757557 0.71995592 234 88 12
0.6070897 -1.5703839 0.71923727 234 88 12
0.58829427 -1.5565526 0.71661472 234 88 12
0.60133892 -1.5440947 0.71636689 234 88 12
0.61031502 -1.5451494 0.71709895 234 88 12
0.64147156 -1.5432196 0.71911579 234 88 12
0.66851771 -1.555068 0.72213441 234 88 12
0.57312649 -1.564571 0.71255618 234 88 12
0.58353865 -1.5623121 0.71309543 234 88 12
0.60214609 -1.5683069 0.71502954 234 88 12
0.59067857 -1.5544953 0.71285897 234 88 12
0.59952635 -1.5475715 0.71283317 234 88 12
0.64429784 -1.5646429 0.7177428 234 88 12
0.69030857 -1.5866995 0.72322482 234 88 12
0.6320051 -1.5422046 0.71467775 234 88 12
0.63394773 -1.5393722 0.71454513 234 88 12
0.75035661 -1.6568258 0.73130184 234 88 12
0.58121932 -1.5654984 0.70950675 234 88 12
0.59461147 -1.5686839 0.71082908 234 88 12
0.58835471 -1.5576878 0.70926327 234 88 12
0.60305667 -1.5500516 0.70960486 234 88 12
0.60886919 -1.5414534 0.70918357 234 88 12
0.67141622 -1.5728582 0.71700728 234 88 12
0.61818117 -1.5387751 0.70961511 234 88 12
0.63424832 -1.5360852 0.71055228 234 88 12
0.63723475 -1.5338383 0.71055228 234 88 12
0.65791625 -1.542055 0.71292311 234 88 12
0.6003018 -1.5797446 0.70870763 234 88 12
0.6172331 -1.5848095 0.71053612 234 88 12
0.60384864 -1.5664911 0.70762062 234 88 12
0.85827351 -1.6906132 0.74002713 234 88 12
0.62595052 -1.5476592 0.70739442 234 88 12
0.61385268 -1.5368361 0.70534807 234 88 12
0.64799106 -1.5366886 0.7079708 234 88 12
0.57736391 -1.5684544 0.7020306 234 88 12
0.58336794 -1.5638949 0.70202619 234 88 12
0.63979417 -1.5898216 0.70925367 234 88 12
0.67425358 -1.6044872 0.71354407 234 88 12
0.59571362 -1.5588446 0.70247418 234 88 12
0.62597036 -1.5712941 0.70619613 234 88 12
0.60886031 -1.5581963 0.7034511 234 88 12
0.63415915 -1.5681788 0.70651805 234 88 12
0.65699446 -1.5769836 0.70926464 234 88 12
0.64115143 -1.5606128 0.70627439 234 88 12
0.61454809 -1.5377604 0.70174348 234 88 12
0.62329197 -1.5387615 0.70254463 234 88 12
0.62810302 -1.5375409 0.70279819 234 88 12
0.5882436 -1.5746288 0.69983774 234 88 12
0.61060297 -1.5824457 0.70251602 234 88 12
0.63031471 -1.5890286 0.70484364 234 88 12
0.61296988 -1.5724279 0.70162064 234 88 12
1.0105093 -1.7814631 0.75685406 234 88 12
0.62848997 -1.5731839 0.70297211 234 88 12
0.62241387 -1.5661012 0.70170534 234 88 12
0.61073864 -1.5558797 0.69963944 234 88 12
0.65010512 -1.5736934 0.70479524 234 88 12
0.63891059 -1.5560167 0.7019583 234 88 12
0.63208544 -1.5482553 0.70055652 234 88 12
0.63826174 -1.5399579 0.70015973 234 88 12
0.6398648 -1.5369097 0.69995946 234 88 12
0.71896762 -1.6359169 0.71395171 234 88 12
0.64837712 -1.5917631 0.7030865 234 88 12
0.59967989 -1.5620644 0.69567609 234 88 12
0.69084859 -1.6073143 0.70839328 234 88 12
0.70299906 -1.6103811 0.70975709 234 88 12
0.66568518 -1.5827934 0.70353919 234 88 12
0.64239126 -1.5661609 0.69972348 234 88 12
0.65083116 -1.5670609 0.70053333 234 88 12
0.65997821 -1.5684056 0.70145237 234 88 12
0.61704093 -1.5402347 0.69469672 234 88 12
0.65731448 -1.5476247 0.69890708 234 88 12
0.58240157 -1.5727421 0.69166982 234 88 12
0.59072727 -1.5732337 0.69244486 234 88 12
0.58691633 -1.567428 0.69144982 234 88 12
0.60502464 -1.5731037 0.69366401 234 88 12
0.62483943 -1.5760537 0.6957128 234 88 12
0.61757171 -1.568368 0.69420373 234 88 12
0.64586556 -1.5798849 0.69796723 234 88 12
0.6834743 -1.5930924 0.70272875 234 88 12
0.66495663 -1.5791944 0.69953591 234 88 12
0.61366349 -1.546806 0.69139272 234 88 12
0.67318028 -1.5650483 0.69862288 234 88 12
0.62576866 -1.5337396 0.69093859 234 88 12
0.63533336 -1.5352844 0.69194144 234 88 12
0.67698431 -1.618457 0.70167625 234 88 12
0.594868 -1.5683125 0.68849707 234 88 12
0.60061729 -1.5597895 0.68800288 234 88 12
0.61056632 -1.5612826 0.68906009 234 88 12
0.60057199 -1.5519468 0.68707538 234 88 12
0.62040621 -1.5589076 0.68965214 234 88 12
0.6676622 -1.5812 0.69646353 234 88 12
0.62757498 -1.5551057 0.6898396 234 88 12
0.61946529 -1.5466359 0.68812382 234 88 12
0.62892258 -1.5480258 0.68912536 234 88 12
0.68548679 -1.5763599 0.69747269 234 88 12
0.64144123 -1.543341 0.68968278 234 88 12
0.60642511 -1.5824705 0.68750799 234 88 12
0.62511778 -1.5884569 0.68992966 234 88 12
0.62801796 -1.5862747 0.68992966 234 88 12
0.657987 -1.5947946 0.69368201 234 88 12
0.62422359 -1.5653888 0.68706226 234 88 12
0.70470178 -1.5914426 0.69752216 234 88 12
0.6995222 -1.5848548 0.69625586 234 88 12
0.58040631 -1.5734134 0.68027413 234 88 12
0.65416861 -1.6041195 0.69094753 234 88 12
0.65698093 -1.6020036 0.69094753 234 88 12
0.74127477 -1.6429521 0.70387018 234 88 12
0.59967536 -1.5642598 0.68093586 234 88 12
0.60355049 -1.5585736 0.68059278 234 88 12
0.61114854 -1.5588005 0.68132871 234 88 12
0.61462343 -1.5651004 0.67870116 234 88 12
0.59114152 -1.5800414 0.67460692 234 88 12
0.59413469 -1.5777894 0.67460692 234 88 12
0.67248678 -1.611161 0.6866008 234 88 12
0.59895968 -1.5688424 0.67391622 234 88 12
0.68741333 -1.6119852 0.68816686 234 88 12
0.66119277 -1.5944196 0.68332195 234 88 12
0.60233653 -1.5863253 0.67280543 234 88 12
0.61127949 -1.5758868 0.67231214 234 88 12
0.5987516 -1.5654261 0.66966784 234 88 12
0.60696697 -1.5659348 0.67055738 234 88 12
0.58746922 -1.5792936 0.66660643 234 88 12
0.58201194 -1.5770777 0.66194153 234 88 12
0.6045748 -1.5810677 0.6648581 234 88 12
0.59657162 -1.5692528 0.66237688 234 88 12
0.63049644 -1.5833493 0.66788858 234 88 12
0.582708 -1.5780029 0.65833372 234 88 12
1.299736 0.88459563 0.88703042 234 88 12
1.382206 0.85636014 0.89168274 234 88 12
1.5980682 0.88559198 0.91790801 234 88 12
1.3051239 0.88512558 0.88402873 234 88 12
1.3692178 0.89234859 0.89175195 234 88 12
1.3371866 0.85150212 0.88269448 234 88 12
1.3522882 0.85900176 0.88482803 234 88 12
1.30776 0.87861711 0.88041139 234 88 12
1.3657264 0.88288558 0.88749963 234 88 12
1.3074719 0.88562208 0.88069177 234 88 12
1.3225926 0.89264703 0.8828063 234 88 12
1.3282712 0.84802371 0.87786001 234 88 12
1.3769424 0.85362077 0.88407481 234 88 12
1.3169428 0.85461473 0.87677824 234 88 12
1.3156233 0.85811013 0.87677824 234 88 12
1.3314663 0.86216444 0.87890434 234 88 12
1.343863 0.87965971 0.8812297 234 88 12
1.3429229 0.88642836 0.88142741 234 88 12
1.3129665 0.88962466 0.87790912 234 88 12
1.3204713 0.84809297 0.87325472 234 88 12
1.3893455 0.8545531 0.88222498 234 88 12
1.3037065 0.85812855 0.8716225 234 88 12
1.3535045 0.86331147 0.87813258 234 88 12
1.315528 0.87617236 0.8739664 234 88 12
1.3389287 0.88003439 0.87709326 234 88 12
1.3035322 0.88301414 0.87278235 234 88 12
1.2963811 0.88647103 0.87204701 234 88 12
1.3335187 0.89021683 0.87689632 234 88 12
1.3719534 0.89371377 0.88189691 234 88 12
1.3238121 0.84511918 0.86987722 234 88 12
1.3080987 0.84796304 0.86798567 234 88 12
1.386481 0.85483795 0.87844861 234 88 12
1.315045 0.86252159 0.86959332 234 88 12
1.3245456 0.86633021 0.87100667 234 88 12
1.3188841 0.86968684 0.87043893 234 88 12
1.3016485 0.87637812 0.86853838 234 88 12
1.3261831 0.88029665 0.87189955 234 88 12
1.3313566 0.88381606 0.87273967 234 88 12
1.3086673 0.89055502 0.8701368 234 88 12
1.3091195 0.89404613 0.8703655 234 88 12
1.4457995 0.85770011 0.88302064 234 88 12
1.3068634 0.85554606 0.86448473 234 88 12
1.4344879 0.86985111 0.88212878 234 88 12
1.3041735 0.86977822 0.86484063 234 88 12
1.3042957 0.8733421 0.8650353 234 88 12
1.3658227 0.88133878 0.87359649 234 88 12
1.2976449 0.88389623 0.86468166 234 88 12
1.2967024 0.88743621 0.86473393 234 88 12
1.5031884 0.8948167 0.89249116 234 88 12
1.3653131 0.84795213 0.86832678 234 88 12
1.3738767 0.85175276 0.86968732 234 88 12
1.4677936 0.85898471 0.88283873 234 88 12
1.6389718 0.86847955 0.90661979 234 88 12
1.3228189 0.8601287 0.86316985 234 88 12
1.301598 0.87375045 0.860982 234 88 12
1.3105763 0.87747258 0.86239493 234 88 12
1.3797626 0.88198185 0.87204123 234 88 12
1.3741198 0.8950808 0.87194633 234 88 12
1.3215934 0.84629208 0.85859925 234 88 12
1.3557929 0.85481632 0.86381996 234 88 12
1.3117857 0.85661924 0.85777479 234 88 12
1.3710461 0.86220235 0.86633718 234 88 12
1.3166199 0.87099683 0.85920662 234 88 12
1.3118713 0.87796146 0.85891098 234 88 12
1.3948787 0.88262981 0.87073851 234 88 12
1.3070258 0.88495308 0.85860318 234 88 12
1.3150564 0.8955034 0.86027938 234 88 12
1.417709 0.89869654 0.87477022 234 88 12
1.3803 0.90528893 0.86989796 234 88 12
1.307143 0.90943706 0.85990924 234 88 12
1.322504 0.91265821 0.86222214 234 88 12
1.3906224 0.84996158 0.86496407 234 88 12
1.3207324 0.85026044 0.85498708 234 88 12
1.3130906 0.85711187 0.85426426 234 88 12
1.4708389 0.86595827 0.87729722 234 88 12
1.306146 0.86405146 0.85364592 234 88 12
1.3255942 0.86815411 0.85664815 234 88 12
1.3131664 0.87845039 0.85542697 234 88 12
1.3445312 0.88239324 0.86012447 234 88 12
1.305601 0.88541573 0.85472125 234 88 12
1.3189634 0.88903767 0.85682738 234 88 12
1.2993989 0.89245069 0.85421419 234 88 12
1.2980644 0.89598584 0.85421419 234 88 12
1.2963079 0.91007996 0.85472387 234 88 12
1.2949777 0.91360337 0.85472387 234 88 12
1.319335 0.91662675 0.85836977 234 88 12
1.3409712 0.85156763 0.854312 234 88 12
1.3756849 0.85645282 0.85966599 234 88 12
1.3481117 0.85883003 0.85575926 234 88 12
1.3942909 0.86381668 0.86279804 234 88 12
1.3353549 0.8688615 0.8544457 234 88 12
1.3192047 0.87197268 0.85225248 234 88 12
1.3560792 0.87621945 0.85788763 234 88 12
1.3665771 0.87978393 0.85962212 234 88 12
1.3879063 0.88994491 0.86330765 234 88 12
1.3050349 0.89647663 0.8515321 234 88 12
1.3144076 0.90689015 0.85348052 234 88 12
1.3058532 0.91046023 0.8524251 234 88 12
1.3500966 0.91651803 0.85923958 234 88 12
1.326526 0.8549363 0.84868735 234 88 12
1.3998064 0.86441189 0.8602106 234 88 12
1.3812448 0.86715508 0.85758293 234 88 12
1.3780774 0.87041229 0.85729241 234 88 12
1.3476043 0.88334793 0.85345578 234 88 12
1.3480963 0.88676149 0.85372281 234 88 12
1.4960848 0.89101827 0.87615156 234 88 12
1.3170836 0.8934738 0.84945303 234 88 12
1.3388904 0.90034449 0.85311139 234 88 12
1.4829367 0.90267694 0.8748402 234 88 12
1.3808495 0.90668005 0.85976094 234 88 12
1.3052552 0.91445386 0.84886712 234 88 12
1.3412994 0.91718894 0.85442603 234 88 12
1.3235642 0.8516863 0.84433901 234 88 12
1.3426503 0.85600144 0.84751713 234 88 12
1.3218347 0.86232173 0.84468973 234 88 12
1.3158904 0.86570239 0.84397358 234 88 12
1.3087368 0.86908352 0.84307194 234 88 12
1.3519073 0.87361163 0.84995723 234 88 12
1.3751937 0.87747031 0.85375327 234 88 12
1.366717 0.88067806 0.8526386 234 88 12
1.3771353 0.88416046 0.85443866 234 88 12
1.3654805 0.88737398 0.85283673 234 88 12
1.3025857 0.89392757 0.84356719 234 88 12
1.3513383 0.89740157 0.85124791 234 88 12
1.311188 0.9044413 0.84549588 234 88 12
1.3000942 0.90804607 0.84400272 234 88 12
1.2974302 0.91510248 0.84400272 234 88 12
1.3342173 0.85610914 0.84254205 234 88 12
1.3426417 0.859936 0.84409064 234 88 12
1.3631048 0.86749423 0.84774935 234 88 12
1.3435206 0.88078052 0.8454634 234 88 12
1.3524956 0.88432258 0.84708148 234 88 12
1.308774 0.88736373 0.84040117 234 88 12
1.3917373 0.89130592 0.85365278 234 88 12
1.3725464 0.8978371 0.85102838 234 88 12
1.3003169 0.90150034 0.83991158 234 88 12
1.3310521 0.90819401 0.84513086 234 88 12
1.3297569 0.91162461 0.84513086 234 88 12
1.3979212 0.8655991 0.84963834 234 88 12
1.459682 0.87062281 0.85985035 234 88 12
1.3368883 0.87069839 0.84015626 234 88 12
1.346999 0.8744027 0.84200257 234 88 12
1.370337 0.8782655 0.84598041 234 88 12
1.307493 0.8807196 0.83604753 234 88 12
1.3047667 0.89491332 0.83646983 234 88 12
1.3629314 0.89832175 0.84600711 234 88 12
1.3122958 0.90193528 0.83810294 234 88 12
1.315348 0.90540212 0.83880252 234 88 12
1.3337775 0.91545808 0.84236807 234 88 12
1.3607838 0.85798389 0.83960724 234 88 12
1.3263749 0.86025441 0.83410686 234 88 12
1.391565 0.8658213 0.84513849 234 88 12
1.4934973 0.87194616 0.86222816 234 88 12
1.3202583 0.87075007 0.83375371 234 88 12
1.3231412 0.87789184 0.83466834 234 88 12
1.3251448 0.88494992 0.83543366 234 88 12
1.8062307 0.89384979 0.91485256 234 88 12
1.3183593 0.89541471 0.83496892 234 88 12
1.3851352 0.89873189 0.84612131 234 88 12
1.3122667 0.90592915 0.83462089 234 88 12
1.3659941 0.90874386 0.84360301 234 88 12
1.3902898 0.91166329 0.8477667 234 88 12
1.3771412 0.86241686 0.8390044 234 88 12
1.3870046 0.86610466 0.84088933 234 88 12
1.3238798 0.8677451 0.83042186 234 88 12
1.3605589 0.87216288 0.83684361 234 88 12
1.3202291 0.87476397 0.83025426 234 88 12
1.3635261 0.89255369 0.83862972 234 88 12
1.4221545 0.89592195 0.84866083 234 88 12
1.3421092 0.89932632 0.83547133 234 88 12
1.3778162 0.90250778 0.8416521 234 88 12
1.3449194 0.85825682 0.82965708 234 88 12
1.3797001 0.86292791 0.83590615 234 88 12
1.7204577 0.8765257 0.8950538 234 88 12
1.3375462 0.86856443 0.82906169 234 88 12
1.3238506 0.87175518 0.82692575 234 88 12
1.3461994 0.85874003 0.82621372 234 88 12
1.3375173 0.87252724 0.82560682 234 88 12
1.3362043 0.87600523 0.82560682 234 88 12
1.3239245 0.87930775 0.82368106 234 88 12
1.5347409 0.86595404 0.85657477 234 88 12
1.329528 0.86214834 0.8197698 234 88 12
1.3415846 0.86606067 0.82218015 234 88 12
1.4089437 0.87784278 0.83496928 234 88 12
1.3255885 0.8588835 0.81506103 234 88 12
1.3615223 0.86362445 0.82191432 234 88 12
1.3255678 0.86604923 0.81554872 234 88 12
1.3812068 0.86468434 0.82197148 234 88 12
1.3442409 0.86703265 0.81528795 234 88 12
1.3803301 0.87143862 0.82228148 234 88 12
1.5531716 -0.8250975 0.40302232 234 88 12
1.508082 -0.80723822 0.40227705 234 88 12
1.5851127 -0.82783693 0.40348771 234 88 12
1.5372524 -0.82399368 0.39920905 234 88 12
1.5070698 -0.81088507 0.39857984 234 88 12
1.5122392 -0.8086139 0.3986522 234 88 12
1.510138 -0.80406058 0.39857984 234 88 12
1.5741887 -0.82078356 0.39982808 234 88 12
1.5072672 -0.84173328 0.39516291 234 88 12
1.5173726 -0.84078127 0.39536473 234 88 12
1.5964695 -0.85959297 0.39719081 234 88 12
1.5152278 -0.80574733 0.39499149 234 88 12
1.5587704 -0.85610908 0.39290357 234 88 12
1.5331523 -0.84530735 0.39216378 234 88 12
1.5502546 -0.84283066 0.39255193 234 88 12
1.5397856 -0.82865298 0.39214304 234 88 12
1.500671 -0.81296122 0.39102224 234 88 12
1.5258982 -0.80536151 0.3915517 234 88 12
1.495811 -0.84638935 0.3875663 234 88 12
1.5040913 -0.84483099 0.38777626 234 88 12
1.5446452 -0.85227615 0.38899228 234 88 12
1.5336548 -0.84553325 0.38860387 234 88 12
1.4887383 -0.82901192 0.38715398 234 88 12
1.5635604 -0.84675944 0.38944751 234 88 12
1.5247657 -0.82420027 0.38809198 234 88 12
1.4994675 -0.81266922 0.38724765 234 88 12
1.5002015 -0.80505025 0.38717312 234 88 12
1.5227834 -0.80828512 0.3878389 234 88 12
1.5181646 -0.80293804 0.38764435 234 88 12
1.4995596 -0.84368396 0.38393804 234 88 12
1.4900862 -0.82558757 0.38338992 234 88 12
1.5026563 -0.82536566 0.38377807 234 88 12
1.4983386 -0.8202123 0.38357157 234 88 12
1.5059599 -0.80300868 0.38356802 234 88 12
1.6603136 -0.84874749 0.38901255 234 88 12
1.4949163 -0.84633631 0.38011611 234 88 12
1.4858469 -0.83615279 0.37964445 234 88 12
1.4906142 -0.82582498 0.37964875 234 88 12
1.4953704 -0.82331139 0.37977406 234 88 12
1.4953822 -0.81550002 0.3796531 234 88 12
1.5021166 -0.80579418 0.37973502 234 88 12
1.5009317 -0.80148101 0.37962705 234 88 12
1.6088921 -0.82166272 0.38367143 234 88 12
1.5229301 -0.78902256 0.38019371 234 88 12
1.5244602 -0.78561944 0.38019371 234 88 12
1.4924009 -0.84191275 0.37622613 234 88 12
1.4964899 -0.83534324 0.37626925 234 88 12
1.5082566 -0.81169134 0.37631232 234 88 12
1.5028702 -0.79821777 0.37587753 234 88 12
1.5127097 -0.79746199 0.37623844 234 88 12
1.4908334 -0.84542644 0.37248799 234 88 12
1.5037811 -0.82979929 0.37273335 234 88 12
1.5192931 -0.80356675 0.37288737 234 88 12
1.5103644 -0.78885955 0.37224349 234 88 12
1.5152036 -0.78652519 0.37240052 234 88 12
1.5434476 -0.78837454 0.37360516 234 88 12
1.4968486 -0.84331155 0.36897233 234 88 12
1.4874685 -0.83687544 0.36842152 234 88 12
1.4890209 -0.83342242 0.36842152 234 88 12
1.4927586 -0.8305918 0.36853215 234 88 12
1.4919763 -0.82256466 0.3683351 234 88 12
1.5006388 -0.82121605 0.36869663 234 88 12
1.5021826 -0.81778234 0.36869663 234 88 12
1.5102898 -0.81635106 0.36903155 234 88 12
1.5479308 -0.81660753 0.37072584 234 88 12
1.5198127 -0.8038004 0.36920568 234 88 12
1.5213404 -0.80040246 0.36920568 234 88 12
1.513496 -0.7939136 0.36872274 234 88 12
1.5162094 -0.78692383 0.36870348 234 88 12
1.5266113 -0.78259242 0.36908287 234 88 12
1.565366 -0.86209285 0.36896142 234 88 12
1.5121475 -0.84379661 0.36599231 234 88 12
1.5222392 -0.84283745 0.3664591 234 88 12
1.5285952 -0.81437469 0.36614788 234 88 12
1.5078169 -0.79606384 0.36474603 234 88 12
1.5101175 -0.78889912 0.36470154 234 88 12
1.5402253 -0.79123908 0.36620724 234 88 12
1.5261829 -0.8477686 0.36313081 234 88 12
1.542399 -0.84119976 0.36381745 234 88 12
1.498324 -0.82458884 0.36114892 234 88 12
1.5147766 -0.82557243 0.36202362 234 88 12
1.5497901 -0.8210814 0.36373183 234 88 12
1.507223 -0.80382657 0.36112636 234 88 12
1.5083444 -0.79630101 0.36100924 234 88 12
1.5006188 -0.8369441 0.35781994 234 88 12
1.4972439 -0.83212906 0.35751399 234 88 12
1.5336748 -0.83501667 0.35959771 234 88 12
1.5308516 -0.82663953 0.3592338 234 88 12
1.5044361 -0.81479305 0.35748076 234 88 12
1.5128863 -0.81348944 0.35791507 234 88 12
1.5469441 -0.81649452 0.35987064 234 88 12
1.5369502 -0.80950671 0.35914519 234 88 12
1.5190891 -0.79594606 0.35782203 234 88 12
1.522162 -0.7891115 0.35782203 234 88 12
1.5275564 -0.78701431 0.3580679 234 88 12
1.5287687 -0.84492767 0.35594293 234 88 12
1.5979484 -0.8573882 0.36033168 234 88 12
1.5565879 -0.8417998 0.35749304 234 88 12
1.523221 -0.82823569 0.35517693 234 88 12
1.5091175 -0.82018036 0.35413671 234 88 12
1.5407405 -0.82593358 0.35614437 234 88 12
1.5148523 -0.80638522 0.35410926 234 88 12
1.5712759 -0.80576593 0.35740426 234 88 12
1.4942905 -0.83146268 0.34978971 234 88 12
1.4996394 -0.82522154 0.34994775 234 88 12
1.5030776 -0.82234114 0.35008097 234 88 12
1.504029 -0.81482136 0.34992999 234 88 12
1.5603962 -0.82089299 0.35360286 234 88 12
1.5236363 -0.80536211 0.35088426 234 88 12
1.5978537 -0.82561606 0.35606283 234 88 12
1.5141252 -0.7944361 0.34998783 234 88 12
1.5167596 -0.83793801 0.34767622 234 88 12
1.5375947 -0.836402 0.34899804 234 88 12
1.5359684 -0.84720302 0.34559593 234 88 12
1.4932845 -0.83533269 0.33849305 234 88 12
1.5154034 -0.83772326 0.34017608 234 88 12
1.4987476 -0.82520944 0.33855921 234 88 12
1.5038618 -0.82281506 0.3388522 234 88 12
1.5184888 -0.82330704 0.33992964 234 88 12
1.512448 -0.83313829 0.33608571 234 88 12
1.5230674 -0.8247593 0.33660677 234 88 12
1.4956517 -0.83228612 0.33098879 234 88 12
1.5140858 -0.82985508 0.33236787 234 88 12
1.6671968 -0.87134188 0.34602767 234 88 12
1.7363628 0.25106704 -0.044080112 234 88 12
1.7730042 0.25088957 -0.046420053 234 88 12
1.749689 0.25702769 -0.044952314 234 88 12
1.8312722 0.25141105 -0.050143916 234 88 12
1.7814902 0.22157647 -0.050440211 234 88 12
1.7368779 0.24727845 -0.047845714 234 88 12
1.7399877 0.25067279 -0.048043709 234 88 12
1.7456503 0.25744793 -0.048406206 234 88 12
1.7566859 0.2598685 -0.049077015 234 88 12
1.8126143 0.21575451 -0.055752877 234 88 12
1.7585087 0.22330536 -0.052733034 234 88 12
1.738644 0.2285305 -0.051631901 234 88 12
1.7865041 0.22824436 -0.054322951 234 88 12
1.7805561 0.24294811 -0.05403392 234 88 12
1.7277774 0.25938842 -0.051116228 234 88 12
1.7372447 0.21745889 -0.055267561 234 88 12
1.8041233 0.21635067 -0.058770925 234 88 12
1.7740018 0.22210902 -0.057208225 234 88 12
1.725441 0.22956413 -0.0546836 234 88 12
1.7624246 0.24109738 -0.056656003 234 88 12
1.7522171 0.24572104 -0.056134149 234 88 12
1.7362678 0.26214057 -0.055345286 234 88 12
1.8560396 0.20931016 -0.06476894 234 88 12
1.7582226 0.22328961 -0.060050607 234 88 12
1.7260351 0.22949681 -0.058502294 234 88 12
1.7364306 0.23238829 -0.059015453 234 88 12
1.7299751 0.24041268 -0.058723066 234 88 12
1.8135092 0.23965661 -0.06278237 234 88 12
1.7254164 0.25209534 -0.058532692 234 88 12
1.7253652 0.25960484 -0.058550294 234 88 12
1.7524997 0.26027176 -0.059871327 234 88 12
1.7417839 0.2171122 -0.062964015 234 88 12
1.7254384 0.22199683 -0.062243666 234 88 12
1.7312167 0.26266509 -0.06260287 234 88 12
1.7477078 0.27177873 -0.063364267 234 88 12
1.7595071 0.27392069 -0.063898236 234 88 12
1.7505271 0.27872261 -0.063507713 234 88 12
1.8646232 0.20869124 -0.071709022 234 88 12
1.7368666 0.22487411 -0.066507995 234 88 12
1.7516651 0.26396656 -0.067202896 234 88 12
1.7471542 0.2681596 -0.067027427 234 88 12
1.759565 0.27027279 -0.067540988 234 88 12
1.7350858 0.27703431 -0.066552691 234 88 12
1.7272446 0.28177631 -0.066241935 234 88 12
1.7413852 0.28358468 -0.066825718 234 88 12
1.7331047 0.21766983 -0.070097417 234 88 12
1.7321148 0.22147743 -0.070068397 234 88 12
1.7249726 0.22575806 -0.069811568 234 88 12
1.727015 0.22935899 -0.069894888 234 88 12
1.8304027 0.22448426 -0.073729545 234 88 12
1.7358986 0.23980924 -0.070246629 234 88 12
1.7335236 0.24747433 -0.070173994 234 88 12
1.7805518 0.24638675 -0.071920589 234 88 12
1.7285292 0.25544667 -0.07000459 234 88 12
1.7224526 0.2598516 -0.069787636 234 88 12
1.7227683 0.26733118 -0.069814689 234 88 12
1.7270975 0.28176823 -0.070005223 234 88 12
1.7506032 0.28230304 -0.070880413 234 88 12
1.9391065 0.21539533 -0.080727972 234 88 12
1.729593 0.24036153 -0.073780663 234 88 12
1.7693182 0.24033777 -0.075106576 234 88 12
1.7676892 0.2440868 -0.075059094 234 88 12
1.7699789 0.24744591 -0.075141683 234 88 12
1.7544389 0.25267637 -0.0746326 234 88 12
1.742329 0.25764555 -0.074237525 234 88 12
1.738729 0.26173815 -0.07412488 234 88 12
1.7351041 0.2732735 -0.07402508 234 88 12
1.7508637 0.27495307 -0.07455419 234 88 12
1.7493651 0.22019596 -0.078098789 234 88 12
1.7849869 0.22116484 -0.079153731 234 88 12
1.7312969 0.22897816 -0.07757879 234 88 12
1.7222928 0.23723605 -0.07732597 234 88 12
1.8236461 0.23178601 -0.080314204 234 88 12
1.7318991 0.2438606 -0.077620827 234 88 12
1.7353324 0.24725127 -0.077727862 234 88 12
1.7604864 0.24839412 -0.078473553 234 88 12
1.7424371 0.25392529 -0.077948824 234 88 12
1.7261251 0.25939983 -0.077475369 234 88 12
1.7663746 0.2585761 -0.078664236 234 88 12
1.783748 0.26013085 -0.079180516 234 88 12
1.7279308 0.27040929 -0.077546686 234 88 12
1.725665 0.27816439 -0.077492304 234 88 12
1.7360207 0.28053319 -0.07780239 234 88 12
1.797987 0.27580512 -0.079627089 234 88 12
1.7634391 0.21916284 -0.08215405 234 88 12
1.7348443 0.22495101 -0.081425525 234 88 12
1.7920909 0.22762465 -0.082904249 234 88 12
1.8035665 0.23359238 -0.083208375 234 88 12
1.7516974 0.25656992 -0.081904575 234 88 12
1.7296296 0.22532739 -0.085058734 234 88 12
1.7837167 0.22476506 -0.086245783 234 88 12
1.7658513 0.22979349 -0.085859545 234 88 12
1.7900517 0.23128907 -0.086392783 234 88 12
1.745872 0.23881729 -0.085431717 234 88 12
1.7868978 0.23861021 -0.086332373 234 88 12
1.7689025 0.24390231 -0.085943602 234 88 12
1.8035841 0.25430736 -0.08671777 234 88 12
1.7641413 0.26238078 -0.085861385 234 88 12
1.7361393 0.27306572 -0.085259385 234 88 12
1.7251376 0.2294091 -0.088747166 234 88 12
1.8013655 0.22681336 -0.090128541 234 88 12
1.7488921 0.23485543 -0.089183889 234 88 12
1.7288107 0.2403468 -0.088824786 234 88 12
1.7338276 0.24361223 -0.088919133 234 88 12
1.7211601 0.25234443 -0.088697873 234 88 12
1.7397972 0.25413486 -0.089038029 234 88 12
1.7300612 0.25889537 -0.088866025 234 88 12
1.7745291 0.25757977 -0.089672051 234 88 12
1.7296724 0.2701211 -0.088870183 234 88 12
1.7657267 0.27293918 -0.089527592 234 88 12
1.7313 0.22889882 -0.09261623 234 88 12
1.8931835 0.21914226 -0.094932012 234 88 12
1.7341472 0.25099474 -0.092674553 234 88 12
1.7866459 0.25618225 -0.093432158 234 88 12
1.9439201 0.24419533 -0.095680021 234 88 12
1.7265604 0.22925614 -0.096322998 234 88 12
1.7710005 0.23288922 -0.096794002 234 88 12
1.729455 0.24024536 -0.096359923 234 88 12
1.7303283 0.24389946 -0.096371256 234 88 12
1.7301219 0.24765168 -0.096371256 234 88 12
1.7459033 0.24977134 -0.096538998 234 88 12
1.7449199 0.22777601 -0.10021977 234 88 12
1.7872888 0.24200775 -0.10051108 234 88 12
1.7300946 0.23640963 -0.10388024 234 88 12
1.7406895 0.24287586 -0.10391256 234 88 12
1.7224919 0.22952005 -0.10764322 234 88 12
1.7297411 0.2401551 -0.10763659 234 88 12
1.7301629 0.24384925 -0.10763606 234 88 12
1.917403 0.22917669 -0.10747816 234 88 12
1.7312393 0.23626833 -0.11138628 234 88 12
1.7624276 0.24077792 -0.11124029 234 88 12
1.7247963 0.2330533 -0.11519182 234 88 12
1.9873577 0.21397114 -0.11298465 234 88 12
1.2133049 -1.2068288 -0.66273934 234 88 12
1.1524534 -1.185329 -0.6548214 234 88 12
1.146276 -1.2168521 -0.66111058 234 88 12
1.1276386 -1.2061048 -0.65722823 234 88 12
1.1487925 -1.2102991 -0.66075993 234 88 12
1.146749 -1.1865758 -0.65786994 234 88 12
1.1651928 -1.1863919 -0.66052938 234 88 12
1.1549059 -1.1743419 -0.65771776 234 88 12
1.1301062 -1.2142867 -0.66221505 234 88 12
1.132334 -1.2113258 -0.66221505 234 88 12
1.154183 -1.2157437 -0.66579443 234 88 12
1.1629491 -1.2153472 -0.66699851 234 88 12
1.1917095 -1.2081376 -0.67031664 234 88 12
1.1651096 -1.193691 -0.66498888 234 88 12
1.143326 -1.1770548 -0.66011161 234 88 12
1.1587768 -1.1795646 -0.66257709 234 88 12
1.1614963 -1.1768193 -0.66267008 234 88 12
1.1487664 -1.2245086 -0.66960603 234 88 12
1.127645 -1.2130326 -0.66546667 234 88 12
1.1207428 -1.2066654 -0.66384012 234 88 12
1.1161975 -1.1972332 -0.6622206 234 88 12
1.1416541 -1.1916332 -0.66517574 234 88 12
1.1307569 -1.1794662 -0.66238636 234 88 12
1.1327126 -1.1763169 -0.66232878 234 88 12
1.1983349 -1.1957843 -0.67349511 234 88 12
1.1902694 -1.1886603 -0.67162746 234 88 12
1.1174337 -1.212736 -0.6677742 234 88 12
1.1346823 -1.2152801 -0.67038107 234 88 12
1.1098872 -1.2022716 -0.66567653 234 88 12
1.1122824 -1.1992909 -0.66569734 234 88 12
1.1145585 -1.1962658 -0.66569734 234 88 12
1.1233493 -1.1918644 -0.66644269 234 88 12
1.1462944 -1.1969801 -0.6700877 234 88 12
1.1273204 -1.1856183 -0.66634363 234 88 12
1.1291734 -1.1785041 -0.66586751 234 88 12
1.1326374 -1.1759696 -0.66607934 234 88 12
1.2031555 -1.2436846 -0.6860193 234 88 12
1.1335691 -1.168115 -0.6692059 234 88 12
1.1688188 -1.1634725 -0.67342865 234 88 12
1.1104983 -1.2094946 -0.67404824 234 88 12
1.1450976 -1.2072316 -0.6783219 234 88 12
1.1459466 -1.2037874 -0.67809558 234 88 12
1.186373 -1.2121141 -0.68416131 234 88 12
1.1362368 -1.1885124 -0.67534113 234 88 12
1.1358495 -1.1844764 -0.67489624 234 88 12
1.1718129 -1.1722879 -0.67837703 234 88 12
1.1493782 -1.1546376 -0.67373723 234 88 12
1.1587341 -1.154779 -0.67496651 234 88 12
1.2224804 -1.1793841 -0.68565291 234 88 12
1.1133726 -1.2101916 -0.67824084 234 88 12
1.1118437 -1.2058017 -0.67762786 234 88 12
1.1094272 -1.1971735 -0.67649782 234 88 12
1.1138784 -1.1949787 -0.67685294 234 88 12
1.1206595 -1.1859105 -0.6768477 234 88 12
1.1261656 -1.1841799 -0.67738098 234 88 12
1.184346 -1.2036663 -0.68662173 234 88 12
1.193838 -1.2038274 -0.68784124 234 88 12
1.1727567 -1.1914966 -0.68398988 234 88 12
1.1695238 -1.1863749 -0.68309093 234 88 12
1.137121 -1.1689864 -0.6773206 234 88 12
1.1390972 -1.1578784 -0.67651111 234 88 12
1.1494426 -1.1583713 -0.67787051 234 88 12
1.1637707 -1.1606873 -0.67990929 234 88 12
1.1529872 -1.1479268 -0.67732328 234 88 12
1.1807016 -1.2344985 -0.69258392 234 88 12
1.1350261 -1.1796082 -0.68181515 234 88 12
1.1538763 -1.1834375 -0.68450582 234 88 12
1.1815982 -1.1910882 -0.68865097 234 88 12
1.1495783 -1.1739035 -0.6830855 234 88 12
1.1503907 -1.1703354 -0.6828537 234 88 12
1.1415915 -1.1626439 -0.68104774 234 88 12
1.1740724 -1.1571206 -0.68455482 234 88 12
1.1407629 -1.2158179 -0.68953627 234 88 12
1.1208144 -1.2046182 -0.68610919 234 88 12
1.1230544 -1.2016412 -0.68610919 234 88 12
1.116464 -1.1952858 -0.68473572 234 88 12
1.1481663 -1.1961093 -0.68863946 234 88 12
1.1268756 -1.1838132 -0.68495065 234 88 12
1.1334115 -1.1786352 -0.68526947 234 88 12
1.1701229 -1.1860268 -0.69037509 234 88 12
1.1487182 -1.1732409 -0.68662804 234 88 12
1.2080216 -1.1944631 -0.69571906 234 88 12
1.1812013 -1.1793017 -0.69110203 234 88 12
1.1447349 -1.159724 -0.68491858 234 88 12
1.1469928 -1.156723 -0.68491858 234 88 12
1.1794337 -1.1631538 -0.68942112 234 88 12
1.2206939 -1.1778076 -0.69573605 234 88 12
1.1371514 -1.2141393 -0.69259143 234 88 12
1.1356049 -1.1984779 -0.69102186 234 88 12
1.1742067 -1.2097558 -0.69656622 234 88 12
1.134192 -1.1902685 -0.69012821 234 88 12
1.1306221 -1.1771833 -0.68854862 234 88 12
1.1853621 -1.1957846 -0.69664204 234 88 12
1.1325605 -1.1661541 -0.68779975 234 88 12
1.1351458 -1.1592873 -0.68749583 234 88 12
1.1519048 -1.1546078 -0.68905461 234 88 12
1.1092334 -1.1995859 -0.69176781 234 88 12
1.1108313 -1.1963264 -0.69166982 234 88 12
1.1551501 -1.1982327 -0.69691873 234 88 12
1.12012 -1.1725849 -0.69068617 234 88 12
1.1099117 -1.1956345 -0.69525582 234 88 12
1.116542 -1.1904304 -0.69555908 234 88 12
1.1194218 -1.1876706 -0.69564879 234 88 12
1.1297077 -1.1878471 -0.69681263 234 88 12
1.1198844 -1.1761184 -0.69472951 234 88 12
1.1317425 -1.1770092 -0.69612902 234 88 12
1.1439078 -1.1703153 -0.6969254 234 88 12
1.1415374 -1.1653849 -0.69624621 234 88 12
1.1329181 -1.1577345 -0.6946404 234 88 12
1.175755 -1.1645778 -0.7000007 234 88 12
1.1394751 -1.210265 -0.7034083 234 88 12
1.1308287 -1.1763217 -0.69969249 234 88 12
1.1574358 -1.1795535 -0.70284891 234 88 12
1.144101 -1.1582799 -0.69965965 234 88 12
1.1528516 -1.2149653 -0.708808 234 88 12
1.1766006 -1.2021177 -0.71029645 234 88 12
1.1878108 -1.1993001 -0.71125722 234 88 12
1.1392062 -1.1677331 -0.70360965 234 88 12
1.1342245 -1.1616766 -0.70260149 234 88 12
1.1399955 -1.2097934 -0.71064109 234 88 12
1.1462084 -1.2084271 -0.71117359 234 88 12
1.1090026 -1.19039 -0.70595884 234 88 12
1.1112678 -1.1873792 -0.70595884 234 88 12
1.1150051 -1.1849467 -0.7061547 234 88 12
1.1308249 -1.1834629 -0.70766473 234 88 12
1.1431527 -1.2106514 -0.71461517 234 88 12
1.0979459 -1.1932584 -0.71255189 234 88 12
1.1055378 -1.1922606 -0.71321362 234 88 12
1.111459 -1.1828921 -0.71310455 234 88 12
1.1414429 -1.1908983 -0.71658754 234 88 12
1.1520851 -1.1913632 -0.71765077 234 88 12
1.1040741 -1.1990753 -0.71727729 234 88 12
1.0962049 -1.1922543 -0.71605837 234 88 12
1.11435 -1.1837004 -0.71715617 234 88 12
1.1224923 -1.198058 -0.72258061 234 88 12
1.1550639 -1.1994183 -0.72563052 234 88 12
1.2339026 1.1222932 -0.70304656 234 88 12
1.2403381 1.1187733 -0.70771849 234 88 12
1.249568 1.1226854 -0.70990777 234 88 12
1.2280588 1.1248556 -0.70594251 234 88 12
1.2384342 1.1287844 -0.70835632 234 88 12
1.2739697 1.1203326 -0.71804601 234 88 12
1.2286607 1.1209694 -0.70945376 234 88 12
1.2587808 1.1326088 -0.71635866 234 88 12
1.2641438 1.0958498 -0.71744514 234 88 12
1.2261317 1.1134577 -0.71202564 234 88 12
1.25128 1.1184442 -0.71722651 234 88 12
1.2275013 1.120391 -0.71295577 234 88 12
1.2135551 1.1230245 -0.71059585 234 88 12
1.2656428 1.1324406 -0.72127938 234 88 12
1.2975756 1.0949568 -0.72720242 234 88 12
1.2752787 1.0963283 -0.72322851 234 88 12
1.2736224 1.0995272 -0.72322851 234 88 12
1.2927089 1.1043568 -0.72720242 234 88 12
1.2176008 1.1123935 -0.71414191 234 88 12
1.2964586 1.1207625 -0.72945631 234 88 12
1.2115003 1.1189359 -0.71364248 234 88 12
1.2446657 1.1242419 -0.72025353 234 88 12
1.2106963 1.125791 -0.71414781 234 88 12
1.2230095 1.1298341 -0.71679986 234 88 12
1.2851331 1.0900772 -0.72806305 234 88 12
1.2748079 1.0924793 -0.72642267 234 88 12
1.3086827 1.0987259 -0.73312563 234 88 12
1.2218715 1.0947965 -0.71707743 234 88 12
1.2332591 1.0991939 -0.7195456 234 88 12
1.2545918 1.1109819 -0.72450137 234 88 12
1.3572918 1.1211063 -0.74399889 234 88 12
1.385879 1.1288015 -0.74988228 234 88 12
1.2582631 1.1473151 -0.72856236 234 88 12
1.2566239 1.1504815 -0.72856236 234 88 12
1.2691888 1.0881448 -0.72866762 234 88 12
1.2233032 1.0874115 -0.72047025 234 88 12
1.2410685 1.0993267 -0.724711 234 88 12
1.2768085 1.1087636 -0.73190916 234 88 12
1.2170973 1.1078806 -0.72124839 234 88 12
1.3798873 1.1221678 -0.7514025 234 88 12
1.2036593 1.1243696 -0.72038001 234 88 12
1.2133672 1.141883 -0.72370666 234 88 12
1.2283952 1.1457686 -0.72672576 234 88 12
1.2006974 1.1482062 -0.72204185 234 88 12
1.2357212 1.1525819 -0.72864884 234 88 12
1.2348037 1.0844797 -0.72601962 234 88 12
1.3380516 1.0972447 -0.74510652 234 88 12
1.220564 1.0902004 -0.72406018 234 88 12
1.2188128 1.0935613 -0.72405827 234 88 12
1.2375646 1.1054081 -0.72838187 234 88 12
1.2159724 1.1072981 -0.72480041 234 88 12
1.3887737 1.1223339 -0.75617594 234 88 12
1.2122569 1.1139802 -0.72475594 234 88 12
1.204271 1.1204208 -0.72394782 234 88 12
1.2023679 1.1237758 -0.72391891 234 88 12
1.2200574 1.1315144 -0.72768849 234 88 12
1.2291175 1.1352925 -0.72960246 234 88 12
1.2055714 1.1376537 -0.72572392 234 88 12
1.224146 1.1450919 -0.72962022 234 88 12
1.1966027 1.1475312 -0.72505414 234 88 12
1.2207652 1.1516218 -0.72962022 234 88 12
1.2884725 1.0890332 -0.73933256 234 88 12
1.4248066 1.104654 -0.76392937 234 88 12
1.2454892 1.0953056 -0.73256505 234 88 12
1.2232602 1.1073103 -0.72983766 234 88 12
1.2177062 1.1138197 -0.72946572 234 88 12
1.2446826 1.1255614 -0.7350955 234 88 12
1.3286856 1.1362293 -0.75034297 234 88 12
1.1968071 1.1333194 -0.72762579 234 88 12
1.2261626 1.137983 -0.73303664 234 88 12
1.2032405 1.1472013 -0.72994554 234 88 12
1.1937476 1.1502939 -0.72860152 234 88 12
1.2299023 1.0830714 -0.73261207 234 88 12
1.2292773 1.0865076 -0.73280466 234 88 12
1.2540758 1.0921613 -0.73743182 234 88 12
1.2310225 1.0936105 -0.73370963 234 88 12
1.2851421 1.1014457 -0.74341875 234 88 12
1.2153685 1.0992939 -0.73158824 234 88 12
1.2430608 1.1048381 -0.73668891 234 88 12
1.2155278 1.1062617 -0.73221684 234 88 12
1.2693676 1.1133786 -0.74181718 234 88 12
1.2599787 1.1193426 -0.74076557 234 88 12
1.239282 1.1214218 -0.73749113 234 88 12
1.2346516 1.1245073 -0.73698497 234 88 12
1.3960775 1.1362232 -0.76493788 234 88 12
1.2146708 1.1302128 -0.73414332 234 88 12
1.2480837 1.1383899 -0.74042624 234 88 12
1.2062519 1.1400095 -0.73358482 234 88 12
1.2202622 1.1472212 -0.7365461 234 88 12
1.2092997 1.1502097 -0.7349748 234 88 12
1.2262192 1.0857511 -0.73600751 234 88 12
1.2623036 1.092416 -0.74247068 234 88 12
1.2428319 1.094128 -0.73943233 234 88 12
1.5916561 1.1259335 -0.79914963 234 88 12
1.2853488 1.1042657 -0.74724102 234 88 12
1.2082335 1.1017455 -0.73442096 234 88 12
1.2965138 1.1179419 -0.75022376 234 88 12
1.242996 1.1178025 -0.74146295 234 88 12
1.264024 1.1223741 -0.74528754 234 88 12
1.2477199 1.1280274 -0.74310064 234 88 12
1.2794191 1.1328757 -0.74869317 234 88 12
1.2438236 1.1344169 -0.7430045 234 88 12
1.1914192 1.1388878 -0.7348159 234 88 12
1.2007358 1.1426528 -0.73665762 234 88 12
1.195328 1.1458563 -0.7360447 234 88 12
1.2094527 1.1496751 -0.73867702 234 88 12
1.337956 1.0986409 -0.75873089 234 88 12
1.2673604 1.0957402 -0.74718994 234 88 12
1.2193946 1.0951444 -0.73946244 234 88 12
1.2973738 1.1079599 -0.75300705 234 88 12
1.2157727 1.1121761 -0.74029422 234 88 12
1.2809807 1.1228901 -0.75162029 234 88 12
1.2417403 1.1238941 -0.74542212 234 88 12
1.2475654 1.1340828 -0.747199 234 88 12
1.2333002 1.1498722 -0.74622405 234 88 12
1.2943213 1.0910734 -0.7546376 234 88 12
1.3285624 1.1005145 -0.76076835 234 88 12
1.2752091 1.0992501 -0.7523064 234 88 12
1.4071368 1.1158212 -0.77432102 234 88 12
1.2565775 1.1077402 -0.75007588 234 88 12
1.2803093 1.1127049 -0.75419694 234 88 12
1.2713064 1.1153423 -0.75300032 234 88 12
1.2137839 1.114976 -0.743958 234 88 12
1.2272347 1.1259345 -0.74695438 234 88 12
1.1948591 1.1276605 -0.7420218 234 88 12
1.2688053 1.1345754 -0.75416857 234 88 12
1.2010096 1.134801 -0.74356472 234 88 12
1.1948137 1.1413572 -0.74312574 234 88 12
1.2010859 1.1449708 -0.74440163 234 88 12
1.2839521 1.0896679 -0.75644618 234 88 12
1.2217768 1.087406 -0.74673563 234 88 12
1.2216597 1.0943558 -0.74726927 234 88 12
1.3107439 1.1049019 -0.76176226 234 88 12
1.2745836 1.1053069 -0.75625128 234 88 12
1.2476377 1.1066086 -0.75222397 234 88 12
1.2147347 1.1076583 -0.74726343 234 88 12
1.2065988 1.1105577 -0.7462464 234 88 12
1.2170372 1.1146752 -0.74817336 234 88 12
1.2041026 1.1207505 -0.74667275 234 88 12
1.2629215 1.1273454 -0.75621265 234 88 12
1.2476434 1.1298056 -0.75406587 234 88 12
1.2352582 1.1357894 -0.75264221 234 88 12
1.3157643 1.0953643 -0.76519567 234 88 12
1.2160263 1.0968802 -0.75036108 234 88 12
1.2735254 1.104759 -0.75959259 234 88 12
1.2328677 1.1050414 -0.7535193 234 88 12
1.2111452 1.1137946 -0.75094217 234 88 12
1.2170166 1.1175783 -0.75211602 234 88 12
1.2045397 1.1236863 -0.75071967 234 88 12
1.229295 1.1283673 -0.75479418 234 88 12
1.2034382 1.1304544 -0.75107986 234 88 12
1.2714418 1.1368989 -0.76177478 234 88 12
1.300511 1.1443565 -0.76671153 234 88 12
1.2159417 1.0929073 -0.75379264 234 88 12
1.2334268 1.0977898 -0.75672549 234 88 12
1.2724671 1.1042111 -0.76293385 234 88 12
1.2068486 1.1061016 -0.75346118 234 88 12
1.2254277 1.1243124 -0.75756556 234 88 12
1.5100868 1.1423448 -0.80064934 234 88 12
1.1959947 1.1295704 -0.7536512 234 88 12
1.1914927 1.1327848 -0.75323534 234 88 12
1.2548312 1.1023761 -0.76380605 234 88 12
1.2473466 1.1051444 -0.76293963 234 88 12
1.2033081 1.1157229 -0.75741816 234 88 12
1.2699056 1.1230484 -0.767497 234 88 12
1.2313564 1.0932403 -0.76344883 234 88 12
1.2052164 1.0945343 -0.75988728 234 88 12
1.3367133 1.1113565 -0.7794928 234 88 12
1.2056196 1.1050115 -0.76070219 234 88 12
1.2132063 1.1158266 -0.76254606 234 88 12
1.280663 1.1002139 -0.77434343 234 88 12
1.2612973 1.1019394 -0.77182215 234 88 12
1.3677906 1.1132609 -0.78715742 234 88 12
1.3458732 1.1051214 -0.78685093 234 88 12
1.2051873 1.0970378 -0.76756066 234 88 12
1.2178676 1.1014761 -0.76955509 234 88 12
1.2618762 1.1178842 -0.77654618 234 88 12
1.3448944 1.1046146 -0.78994167 234 88 12
1.2163517 1.0974325 -0.77277052 234 88 12
1.2168787 1.100911 -0.77307272 234 88 12
1.201406 1.1032066 -0.77121824 234 88 12
1.1968708 1.1098218 -0.77107412 234 88 12
1.7326504 1.1472833 -0.84315121 234 88 12
1.1985807 1.0920216 -0.77385455 234 88 12
1.197848 1.0989622 -0.77421641 234 88 12
1.2345157 1.1118418 -0.77969885 234 88 12
1.1974505 1.0914364 -0.77742338 234 88 12
1.1963425 1.0948521 -0.77750474 234 88 12
1.2119538 1.0995541 -0.77972794 234 88 12
1.2223538 1.1071509 -0.78149384 234 88 12
1.1976311 1.0944628 -0.78137356 234 88 12
1.2066106 1.1021004 -0.78292429 234 88 12
0.37580597 -0.91412175 -1.546965 234 88 12
0.37843227 -0.91145724 -1.546965 234 88 12
0.35816249 -0.95014662 -1.5563607 234 88 12
0.43434238 -0.97552782 -1.5882002 234 88 12
0.38442999 -0.95300817 -1.5655127 234 88 12
0.36757708 -0.94292414 -1.557083 234 88 12
0.37377989 -0.9159413 -1.5506667 234 88 12
0.44473979 -0.94214177 -1.5811179 234 88 12
0.38609016 -0.91364002 -1.5538261 234 88 12
0.40054005 -0.91609907 -1.5591351 234 88 12
0.33303931 -0.94682449 -1.5512089 234 88 12
0.34740153 -0.94854569 -1.5562172 234 88 12
0.37058777 -0.95368809 -1.5650291 234 88 12
0.38016102 -0.95378584 -1.5680448 234 88 12
0.3846539 -0.94843602 -1.5678015 234 88 12
0.36772534 -0.91607261 -1.5525732 234 88 12
0.37537196 -0.91176534 -1.5536339 234 88 12
0.38064906 -0.90647388 -1.5536531 234 88 12
0.32847127 -0.94758624 -1.5537907 234 88 12
0.35821036 -0.95143723 -1.5641575 234 88 12
0.36153328 -0.94911844 -1.5644782 234 88 12
0.37098709 -0.94915235 -1.5674109 234 88 12
0.3326768 -0.93077451 -1.5499681 234 88 12
0.3353323 -0.92808038 -1.5499681 234 88 12
0.39797825 -0.92758268 -1.5691825 234 88 12
0.39362705 -0.92211181 -1.5661703 234 88 12
0.36756384 -0.90737033 -1.5536215 234 88 12
0.31921792 -0.93929595 -1.5522031 234 88 12
0.32453355 -0.93390304 -1.5522031 234 88 12
0.35422149 -0.9343127 -1.5614234 234 88 12
0.34668997 -0.92767107 -1.5571097 234 88 12
0.39324898 -0.93179721 -1.5726221 234 88 12
0.4300203 -0.94340646 -1.5873954 234 88 12
0.48495355 -0.96286845 -1.6101054 234 88 12
0.72172582 -1.0594261 -1.711817 234 88 12
0.419752 -0.92849851 -1.5797466 234 88 12
0.38509321 -0.91002053 -1.5635461 234 88 12
0.37426847 -0.901582 -1.5576807 234 88 12
0.33993298 -0.94945294 -1.5653126 234 88 12
0.4209708 -0.97618157 -1.5979251 234 88 12
0.52926278 -1.013777 -1.6420677 234 88 12
0.54638278 -1.0173604 -1.6483397 234 88 12
0.54004222 -1.0120173 -1.6448146 234 88 12
0.34738448 -0.92310047 -1.5596871 234 88 12
0.40041292 -0.94078535 -1.5810858 234 88 12
0.34513301 -0.9147104 -1.5564917 234 88 12
0.37671533 -0.92392689 -1.5688423 234 88 12
0.37797958 -0.92077744 -1.5682834 234 88 12
0.52515566 -0.97875547 -1.6303366 234 88 12
0.35329008 -0.90293884 -1.5554453 234 88 12
0.46785289 -0.94800287 -1.6037279 234 88 12
0.32960951 -0.94444394 -1.5643935 234 88 12
0.32325703 -0.93842596 -1.5606959 234 88 12
0.36383814 -0.94658589 -1.575332 234 88 12
0.3398982 -0.93377191 -1.5643241 234 88 12
0.58966792 -1.0275117 -1.6673186 234 88 12
0.64352816 -1.0459483 -1.6890008 234 88 12
0.33583617 -0.92108369 -1.5593369 234 88 12
0.68216336 -1.0538019 -1.7029605 234 88 12
0.54048657 -0.99342334 -1.6424009 234 88 12
0.34211299 -0.90857071 -1.5575138 234 88 12
0.38052934 -0.92076093 -1.5726942 234 88 12
0.34832525 -0.90355623 -1.557896 234 88 12
0.31277496 -0.94065762 -1.5619531 234 88 12
0.31809974 -0.93897283 -1.5630462 234 88 12
0.41038626 -0.96669936 -1.5987309 234 88 12
0.32579091 -0.93085545 -1.5629538 234 88 12
0.33415774 -0.93039715 -1.565315 234 88 12
0.3691262 -0.93680698 -1.577632 234 88 12
0.33157811 -0.91824389 -1.5609717 234 88 12
0.34728104 -0.92080379 -1.5664091 234 88 12
0.3524527 -0.91918546 -1.5674762 234 88 12
0.62067908 -1.0253873 -1.6787244 234 88 12
0.34354326 -0.90804398 -1.561542 234 88 12
0.34895104 -0.90271753 -1.561589 234 88 12
0.47237724 -0.95137203 -1.6127175 234 88 12
0.42536831 -0.92429692 -1.5907319 234 88 12
0.3861222 -0.95981389 -1.5929517 234 88 12
0.31675181 -0.92620927 -1.5626481 234 88 12
0.37179738 -0.94032556 -1.5830369 234 88 12
0.55929166 -1.0081155 -1.6582278 234 88 12
0.38987279 -0.93686485 -1.5873725 234 88 12
0.33493093 -0.91094029 -1.5635731 234 88 12
0.50619113 -0.96482658 -1.6299124 234 88 12
0.35066313 -0.89087939 -1.5623783 234 88 12
0.38905919 -0.88877624 -1.5731177 234 88 12
0.39690495 -0.88855278 -1.5753723 234 88 12
0.39043561 -0.96375144 -1.5988177 234 88 12
0.42733678 -0.97432983 -1.6126854 234 88 12
0.3402257 -0.93410099 -1.5755421 234 88 12
0.5949086 -1.0297297 -1.6777865 234 88 12
0.36910748 -0.93816596 -1.5851789 234 88 12
0.4641487 -0.97233725 -1.6228963 234 88 12
0.39872009 -0.9393751 -1.594205 234 88 12
0.37112913 -0.92459297 -1.5818511 234 88 12
0.39001828 -0.92514914 -1.5875466 234 88 12
0.63694268 -1.0224761 -1.6880081 234 88 12
0.35174623 -0.89791864 -1.5684679 234 88 12
0.48286831 -0.95063943 -1.6221148 234 88 12
0.37064457 -0.89471495 -1.5730799 234 88 12
0.3625952 -0.88349748 -1.5674816 234 88 12
0.43436643 -0.91197658 -1.5967368 234 88 12
0.37781188 -0.87879467 -1.570582 234 88 12
0.37303466 -0.87270784 -1.5674243 234 88 12
0.43838894 -0.98070943 -1.6210206 234 88 12
0.34748042 -0.94293219 -1.5838103 234 88 12
0.35003516 -0.94034028 -1.5838103 234 88 12
0.41008276 -0.96001369 -1.6068776 234 88 12
0.32249185 -0.92239219 -1.5706753 234 88 12
0.37895933 -0.94095314 -1.5923846 234 88 12
0.32168481 -0.91085112 -1.5671377 234 88 12
0.4223268 -0.94789672 -1.6069649 234 88 12
0.33713275 -0.90959334 -1.5712634 234 88 12
0.40301958 -0.93305182 -1.5971097 234 88 12
0.34527171 -0.90544069 -1.5724382 234 88 12
0.40428114 -0.92649555 -1.5955995 234 88 12
0.38939419 -0.91660839 -1.5884469 234 88 12
0.40201041 -0.91836983 -1.5926144 234 88 12
0.52008253 -0.96579134 -1.6404728 234 88 12
0.3545225 -0.89041227 -1.5708231 234 88 12
0.35279042 -0.88194662 -1.5678971 234 88 12
0.40876651 -0.90313071 -1.5902146 234 88 12
0.37924597 -0.88610655 -1.5767698 234 88 12
0.36241642 -0.87461197 -1.568593 234 88 12
0.39308938 -0.88480484 -1.5804172 234 88 12
0.38245538 -0.87606287 -1.5748271 234 88 12
0.34653524 -0.94498909 -1.5876942 234 88 12
0.31099764 -0.92788923 -1.5726179 234 88 12
0.32000235 -0.91653907 -1.5719898 234 88 12
0.33426461 -0.91849124 -1.5766475 234 88 12
0.32529801 -0.91116637 -1.5719898 234 88 12
0.35814339 -0.92076385 -1.5841634 234 88 12
0.43474674 -0.94854993 -1.6140875 234 88 12
0.34172669 -0.9028613 -1.5743616 234 88 12
0.3683646 -0.91031677 -1.5841415 234 88 12
0.42003462 -0.92861003 -1.6041983 234 88 12
0.40731961 -0.9196279 -1.5979919 234 88 12
0.39358944 -0.91008914 -1.5913355 234 88 12
0.37229776 -0.89711899 -1.58153 234 88 12
0.36391586 -0.88965774 -1.5770017 234 88 12
0.35785863 -0.88314503 -1.5734115 234 88 12
0.38697228 -0.8885867 -1.5833325 234 88 12
0.39221194 -0.87959778 -1.5822908 234 88 12
0.42357156 -0.9531315 -1.6154997 234 88 12
0.36210197 -0.92490935 -1.5900396 234 88 12
0.38482744 -0.9305563 -1.5981069 234 88 12
0.3646405 -0.91868997 -1.5890154 234 88 12
0.35073686 -0.90926355 -1.5824014 234 88 12
0.35653931 -0.90797269 -1.5836931 234 88 12
0.37886748 -0.91369522 -1.5916684 234 88 12
0.37997293 -0.91051167 -1.5910888 234 88 12
0.38124239 -0.90738779 -1.5905728 234 88 12
0.40943938 -0.91235596 -1.6000094 234 88 12
0.39954001 -0.90436381 -1.5949404 234 88 12
0.46086982 -0.92804849 -1.6190854 234 88 12
0.39219847 -0.8899523 -1.5887964 234 88 12
0.40916204 -0.89395845 -1.5947596 234 88 12
0.37843883 -0.87605178 -1.580966 234 88 12
0.37413156 -0.87018651 -1.5780892 234 88 12
0.34533542 -0.93871433 -1.5926889 234 88 12
0.31499836 -0.9234038 -1.5798529 234 88 12
0.33304077 -0.92675638 -1.5858847 234 88 12
0.3579309 -0.93292081 -1.5946343 234 88 12
0.36046392 -0.93035102 -1.5946343 234 88 12
0.32846165 -0.9101876 -1.5799763 234 88 12
0.32769811 -0.90236658 -1.5775824 234 88 12
0.34026432 -0.90005678 -1.5804896 234 88 12
0.35297367 -0.89791852 -1.5834852 234 88 12
0.41090497 -0.91915488 -1.6057686 234 88 12
0.33971339 -0.88458526 -1.5760251 234 88 12
0.53155106 -0.96500832 -1.6526283 234 88 12
0.39419401 -0.90099078 -1.5959879 234 88 12
0.3472448 -0.87630856 -1.575848 234 88 12
0.34990144 -0.8736133 -1.575848 234 88 12
0.37022671 -0.87511301 -1.5820087 234 88 12
0.31005785 -0.92032987 -1.5812697 234 88 12
0.38026825 -0.94065362 -1.6065357 234 88 12
0.46901351 -0.9725762 -1.6401918 234 88 12
0.32981926 -0.91333342 -1.5848716 234 88 12
0.32575217 -0.9004485 -1.5801772 234 88 12
0.32464728 -0.89238667 -1.5776432 234 88 12
0.34893143 -0.89511728 -1.5851957 234 88 12
0.34147453 -0.88811034 -1.5811743 234 88 12
0.34714052 -0.88675499 -1.5823865 234 88 12
0.34417289 -0.88162059 -1.5801388 234 88 12
0.35518223 -0.87881565 -1.5824471 234 88 12
0.36193043 -0.87415737 -1.5830508 234 88 12
0.35833359 -0.86863023 -1.5805186 234 88 12
0.33816725 -0.93370217 -1.5963733 234 88 12
0.30156356 -0.9158656 -1.5813419 234 88 12
0.30928105 -0.91143376 -1.582271 234 88 12
0.35449585 -0.92217976 -1.5977525 234 88 12
0.32216665 -0.90538561 -1.5841918 234 88 12
0.33512965 -0.90695816 -1.5882179 234 88 12
0.34571755 -0.89643568 -1.5882778 234 88 12
0.3405045 -0.88279027 -1.5831006 234 88 12
0.3430782 -0.87233996 -1.5809571 234 88 12
0.30232006 -0.91126883 -1.583967 234 88 12
0.317296 -0.90227646 -1.5856471 234 88 12
0.45881414 -0.95030427 -1.6375564 234 88 12
0.34023482 -0.89302152 -1.5894446 234 88 12
0.34508845 -0.89132935 -1.5903203 234 88 12
0.3570421 -0.8889817 -1.5929699 234 88 12
0.34590074 -0.8802712 -1.5875477 234 88 12
0.34112334 -0.87041312 -1.5835638 234 88 12
0.35394263 -0.87233293 -1.5876074 234 88 12
0.39026171 -0.88509905 -1.6010487 234 88 12
0.30494741 -0.91856724 -1.5902941 234 88 12
0.47264573 -0.97428989 -1.6509191 234 88 12
0.31103498 -0.90611374 -1.5886092 234 88 12
0.31478921 -0.90388656 -1.5890337 234 88 12
0.31742719 -0.90121025 -1.5890337 234 88 12
0.32588539 -0.89341027 -1.5892434 234 88 12
0.37617546 -0.90734303 -1.6066782 234 88 12
0.38383099 -0.9070074 -1.608673 234 88 12
0.33502272 -0.88209647 -1.5886948 234 88 12
0.37768829 -0.88587224 -1.6013271 234 88 12
0.37678286 -0.88170481 -1.5999619 234 88 12
0.38770974 -0.95299596 -1.6253872 234 88 12
0.33499047 -0.92910278 -1.6048098 234 88 12
0.43372917 -0.96428806 -1.6408061 234 88 12
0.34674791 -0.92657149 -1.6073087 234 88 12
0.38995701 -0.94026893 -1.622609 234 88 12
0.33581382 -0.8736921 -1.5902965 234 88 12
0.29096946 -0.91823107 -1.5936671 234 88 12
0.30970755 -0.92177474 -1.5996091 234 88 12
0.29763636 -0.90969533 -1.5932003 234 88 12
0.30797285 -0.90261704 -1.5940982 234 88 12
0.32197013 -0.90457684 -1.5983559 234 88 12
0.43476236 -0.94731236 -1.6397626 234 88 12
1.3857405 -0.13232341 -1.0955356 234 88 12
1.418025 -0.13463069 -1.1041805 234 88 12
1.3787533 -0.13493261 -1.0975212 234 88 12
1.3928519 -0.12998198 -1.1010368 234 88 12
1.4243979 -0.12866652 -1.1092404 234 88 12
1.3898113 -0.16318421 -1.1050665 234 88 12
1.3920057 -0.15980306 -1.105517 234 88 12
1.4742635 -0.15228283 -1.1264615 234 88 12
1.4318837 -0.14103596 -1.1151558 234 88 12
1.3764054 -0.12698369 -1.1003788 234 88 12
1.3716134 -0.12224842 -1.0989825 234 88 12
1.3807739 -0.12021195 -1.1012741 234 88 12
1.4117119 -0.1702127 -1.1145288 234 88 12
1.3983974 -0.16453981 -1.1109568 234 88 12
1.4182527 -0.16397636 -1.1159809 234 88 12
1.3999046 -0.15740702 -1.1111002 234 88 12
1.4090986 -0.15523683 -1.1133626 234 88 12
1.4012418 -0.14287092 -1.1109521 234 88 12
1.5392318 -0.16409841 -1.1467119 234 88 12
1.4527926 -0.14498569 -1.1241163 234 88 12
1.476807 -0.14600807 -1.1302499 234 88 12
1.5427614 -0.15528262 -1.1473126 234 88 12
1.3901783 -0.12217607 -1.1074477 234 88 12
1.3676943 -0.16745418 -1.106987 234 88 12
1.3927907 -0.16741516 -1.1132661 234 88 12
1.3750186 -0.16099291 -1.1086063 234 88 12
1.3603758 -0.15492126 -1.1047411 234 88 12
1.3608712 -0.151171 -1.1047411 234 88 12
1.3718538 -0.14915082 -1.1074227 234 88 12
1.5025593 -0.16413954 -1.1406279 234 88 12
1.3658922 -0.13670672 -1.1055194 234 88 12
1.4799379 -0.15346809 -1.134614 234 88 12
1.3641073 -0.12871788 -1.1048086 234 88 12
1.3658124 -0.12135671 -1.1049919 234 88 12
1.3812013 -0.12053175 -1.1088158 234 88 12
1.3571573 -0.1582936 -1.1078075 234 88 12
1.3582611 -0.15080459 -1.1078357 234 88 12
1.3705593 -0.11856277 -1.1098175 234 88 12
1.38387 -0.10607099 -1.1126922 234 88 12
1.3793477 -0.10131107 -1.1114223 234 88 12
1.4320678 -0.10907919 -1.1246727 234 88 12
1.3677293 -0.16750896 -1.1144165 234 88 12
1.6120752 -0.20024076 -1.1748015 234 88 12
1.4978362 -0.17989412 -1.146408 234 88 12
1.3906133 -0.15976551 -1.1197251 234 88 12
1.5937878 -0.18877457 -1.1699929 234 88 12
1.3730031 -0.14946106 -1.1151181 234 88 12
1.3619188 -0.1438165 -1.1122454 234 88 12
1.3579967 -0.13931845 -1.1111487 234 88 12
1.3733345 -0.13818495 -1.1148369 234 88 12
1.368988 -0.12981142 -1.1135128 234 88 12
1.4525577 -0.13125125 -1.1338524 234 88 12
1.4158123 -0.11662226 -1.1244601 234 88 12
1.3689772 -0.099229909 -1.112529 234 88 12
1.3548796 -0.1656636 -1.114974 234 88 12
1.3603719 -0.15886495 -1.1160727 234 88 12
1.3694731 -0.15648985 -1.1181741 234 88 12
1.3800322 -0.15441576 -1.1206336 234 88 12
1.4039963 -0.15462837 -1.1263711 234 88 12
1.3576504 -0.14316449 -1.1149257 234 88 12
1.3676163 -0.14105336 -1.1172423 234 88 12
1.4117026 -0.1414053 -1.1277963 234 88 12
1.4570101 -0.14611588 -1.13878 234 88 12
1.4025964 -0.13242488 -1.1253349 234 88 12
1.3660988 -0.12174577 -1.1162695 234 88 12
1.368516 -0.11076452 -1.1165005 234 88 12
1.3775694 -0.10882032 -1.1186042 234 88 12
1.3515977 -0.1575599 -1.1176722 234 88 12
1.4072071 -0.15158679 -1.1305804 234 88 12
1.3523266 -0.13849115 -1.1172507 234 88 12
1.4225546 -0.14702509 -1.1340523 234 88 12
1.4374239 -0.14259836 -1.1374158 234 88 12
1.3670902 -0.12585211 -1.1203338 234 88 12
1.3946564 -0.12733345 -1.1268706 234 88 12
1.414103 -0.12743621 -1.1314529 234 88 12
1.3843378 -0.11786552 -1.1241465 234 88 12
1.3668089 -0.10290121 -1.1195536 234 88 12
1.5355914 -0.18889208 -1.1650068 234 88 12
1.3856292 -0.16281092 -1.1294466 234 88 12
1.3661594 -0.15606102 -1.1247268 234 88 12
1.3575402 -0.15090291 -1.1225709 234 88 12
1.53335 -0.16976868 -1.1639016 234 88 12
1.3609326 -0.13624263 -1.1229084 234 88 12
1.3642644 -0.13303168 -1.1235822 234 88 12
1.3862959 -0.12956193 -1.128583 234 88 12
1.4050711 -0.12212273 -1.1327072 234 88 12
1.3639737 -0.11010442 -1.1228127 234 88 12
1.3725752 -0.10426464 -1.1246277 234 88 12
1.3680785 -0.099497914 -1.1234394 234 88 12
1.4204931 -0.1071495 -1.1358236 234 88 12
1.4284644 -0.17292611 -1.143109 234 88 12
1.4431341 -0.16818666 -1.1463131 234 88 12
1.417287 -0.15698896 -1.1400784 234 88 12
1.3689941 -0.14527823 -1.1287074 234 88 12
1.3919957 -0.14547595 -1.1339612 234 88 12
1.3871565 -0.14094315 -1.1327205 234 88 12
1.3933935 -0.13836302 -1.1340657 234 88 12
1.4210638 -0.13976774 -1.140421 234 88 12
1.3561275 -0.12016579 -1.1250149 234 88 12
1.4022226 -0.12533703 -1.1356875 234 88 12
1.3546565 -0.11219374 -1.124439 234 88 12
1.3933095 -0.11619657 -1.1333784 234 88 12
1.3535701 -0.1579791 -1.1292613 234 88 12
1.4041829 -0.15488915 -1.140533 234 88 12
1.4110206 -0.15242095 -1.141995 234 88 12
1.3753405 -0.14267938 -1.1336952 234 88 12
1.3536731 -0.13512717 -1.1286066 234 88 12
1.3719367 -0.1345883 -1.132691 234 88 12
1.3483546 -0.12649705 -1.1271565 234 88 12
1.3697395 -0.12665631 -1.1319625 234 88 12
1.3611326 -0.12123445 -1.1298693 234 88 12
1.4566337 -0.11535074 -1.1511363 234 88 12
1.3864192 -0.16304469 -1.1403416 234 88 12
1.3549917 -0.15444565 -1.1331486 234 88 12
1.3525734 -0.15026364 -1.1324924 234 88 12
1.3855494 -0.15188123 -1.1398238 234 88 12
1.3577513 -0.13592628 -1.1332177 234 88 12
1.3591192 -0.13237055 -1.1334162 234 88 12
1.3679098 -0.12641457 -1.135184 234 88 12
1.3592858 -0.12099046 -1.1331208 234 88 12
1.3624076 -0.11398628 -1.133606 234 88 12
1.3512232 -0.10405689 -1.1308457 234 88 12
1.3958495 -0.1059119 -1.1407574 234 88 12
1.3443785 -0.14900023 -1.1343455 234 88 12
1.3602319 -0.14777628 -1.1377552 234 88 12
1.3477093 -0.14189555 -1.1348654 234 88 12
1.3489288 -0.13062692 -1.1348069 234 88 12
1.3665662 -0.12249194 -1.1384057 234 88 12
1.3839662 -0.11839814 -1.1420689 234 88 12
1.3533177 -0.10846686 -1.1351244 234 88 12
1.3983701 -0.11393857 -1.1450707 234 88 12
1.3982615 -0.1250108 -1.1488692 234 88 12
1.3502507 -0.15004858 -1.1429682 234 88 12
1.3411993 -0.1447673 -1.1409198 234 88 12
1.3700387 -0.14578322 -1.1470073 234 88 12
1.3474082 -0.1381664 -1.1420411 234 88 12
1.3494796 -0.13090225 -1.1422746 234 88 12
1.3716304 -0.13114823 -1.1469355 234 88 12
1.4496689 -0.16605268 -1.1675764 234 88 12
1.3576612 -0.14000201 -1.1478627 234 88 12
1.3547204 -0.12814176 -1.1469315 234 88 12
1.3805693 -0.15867774 -1.1566164 234 88 12
1.361271 -0.14818235 -1.1524178 234 88 12
1.3376755 -0.14047684 -1.1474217 234 88 12
1.356189 -0.13605312 -1.1510609 234 88 12
1.3551937 -0.13210225 -1.150753 234 88 12
1.3859073 -0.1595571 -1.1612041 234 88 12
1.3394907 -0.1484796 -1.151655 234 88 12
1.3366822 -0.14037681 -1.1508814 234 88 12
1.3410577 -0.1372962 -1.1516728 234 88 12
1.4005047 -0.14031239 -1.1636083 234 88 12
1.3635855 -0.13750917 -1.1597284 234 88 12
1.3293911 -0.14696562 -1.156934 234 88 12
1.3558116 -0.14746107 -1.1620296 234 88 12
1.3502923 -0.13902681 -1.1607535 234 88 12
1.3425132 -0.14533874 -1.1630186 234 88 12
1.3430024 -0.14163573 -1.1630186 234 88 12
