ply
format ascii 1.0
element vertex 1556
property float x
property float y
property float z
property uchar red
property uchar green
property uchar blue
end_header
0.2250981 -0.44830462 1.7369201 234 88 12
0.24065275 -0.44909215 1.7351756 234 88 12
0.2159158 -0.44872937 1.7442974 234 88 12
0.21730083 -0.44388804 1.7549322 234 88 12
0.18077794 -0.45860508 1.7309641 234 88 12
0.2145077 -0.45748988 1.7333934 234 88 12
0.21379641 -0.43298262 1.7867806 234 88 12
0.18077794 -0.46241093 1.7309641 234 88 12
0.19501612 -0.46008658 1.7359858 234 88 12
0.19571622 -0.46553859 1.7324173 234 88 12
0.21404585 -0.4640817 1.7355392 234 88 12
0.22621769 -0.46574229 1.7319808 234 88 12
0.24105719 -0.46503159 1.7335037 234 88 12
0.23412102 -0.45533773 1.7621769 234 88 12
0.21161336 -0.46629846 1.7468406 234 88 12
0.19995111 -0.46043789 1.7669327 234 88 12
0.2079668 -0.4702673 1.7463732 234 88 12
0.23760675 -0.47711435 1.7320516 234 88 12
0.23714155 -0.46868134 1.7496904 234 88 12
0.18299569 -0.47729805 1.7395594 234 88 12
0.19517246 -0.47940418 1.735189 234 88 12
0.20973025 -0.47803381 1.7380326 234 88 12
-0.63577211 -0.35012084 1.6639882 234 88 12
-0.63481283 -0.35834521 1.6630245 234 88 12
-0.63735121 -0.33527389 1.6612203 234 88 12
-0.64219296 -0.3343471 1.6604142 234 88 12
-0.64158493 -0.34624615 1.6595792 234 88 12
-0.6419034 -0.36158451 1.6593207 234 88 12
-0.92467874 -0.22794296 1.8734525 234 88 12
-0.82519877 -0.2542792 1.7953209 234 88 12
-0.65790105 -0.33964574 1.6675428 234 88 12
-0.65691972 -0.35540447 1.6662976 234 88 12
-0.65796739 -0.35868725 1.6669738 234 88 12
-0.7672767 -0.30897483 1.7502646 234 88 12
-0.90193528 -0.24369517 1.8530023 234 88 12
-1.0609398 -0.1607341 1.9745055 234 88 12
-1.0611053 -0.16454002 1.9745055 234 88 12
-0.66790581 -0.33233812 1.6709211 234 88 12
-0.64695197 -0.35422283 1.6544387 234 88 12
-0.64697194 -0.35809383 1.6543272 234 88 12
-0.85961735 -0.2645638 1.8173888 234 88 12
-0.84229738 -0.27674097 1.8039582 234 88 12
-0.81136781 -0.29144916 1.7766032 234 88 12
-0.77287406 -0.31528407 1.7466509 234 88 12
-0.6562469 -0.36407787 1.6522042 234 88 12
-1.0008706 -0.19133331 1.920891 234 88 12
-0.78720695 -0.30889937 1.7539604 234 88 12
-1.066357 -0.14344734 1.970191 234 88 12
-0.65992373 -0.35207796 1.6509265 234 88 12
-0.79241973 -0.30416131 1.7543343 234 88 12
-0.8485288 -0.27701947 1.798354 234 88 12
-0.66243368 -0.37552077 1.6475643 234 88 12
-0.85097784 -0.27691299 1.7967724 234 88 12
-1.0303016 -0.18156998 1.9387361 234 88 12
-0.80659425 -0.29914844 1.7579412 234 88 12
-0.83970833 -0.28429037 1.7842475 234 88 12
-1.0690356 -0.16114146 1.9671141 234 88 12
-0.69401157 -0.35780504 1.6638285 234 88 12
-1.0179181 -0.1879818 1.9237888 234 88 12
-1.0572121 -0.1684881 1.9552875 234 88 12
-0.66823286 -0.3537958 1.6391618 234 88 12
-0.67143494 -0.36376759 1.6413496 234 88 12
-0.67628521 -0.35114202 1.6410509 234 88 12
-0.67476571 -0.3635512 1.6394124 234 88 12
-1.0751643 -0.15630306 1.9652106 234 88 12
-0.46413207 -1.1314019 1.3349946 234 88 12
-0.46252704 -1.1343979 1.3355844 234 88 12
-0.45985025 -1.1370746 1.3355844 234 88 12
-0.47852185 -1.1347785 1.3339549 234 88 12
-0.5728597 -1.1721947 1.3907499 234 88 12
-0.47946748 -1.1306578 1.3238881 234 88 12
-0.47596368 -1.1330906 1.3234187 234 88 12
-0.47778904 -1.1349159 1.3206395 234 88 12
-0.46522418 -1.1485636 1.3211179 234 88 12
-0.4884212 -1.1563437 1.3305146 234 88 12
-0.48821667 -1.1313999 1.3104726 234 88 12
-0.48552552 -1.134091 1.3104726 234 88 12
-0.47944018 -1.1496339 1.3147544 234 88 12
-0.50565726 -1.1549841 1.3247371 234 88 12
-0.48079574 -1.1491923 1.3062969 234 88 12
-0.50304168 -1.1655195 1.3240459 234 88 12
-0.53677607 -1.1727751 1.3387278 234 88 12
-0.55820131 -1.1817926 1.3528495 234 88 12
0.31450099 -1.0825446 1.3583782 234 88 12
0.29884422 -1.087469 1.3589154 234 88 12
0.30192173 -1.0884515 1.3616549 234 88 12
0.30707428 -1.0860432 1.3562949 234 88 12
0.31513432 -1.084949 1.3544695 234 88 12
0.25419775 -1.0915419 1.3542699 234 88 12
0.26959962 -1.0903974 1.3530922 234 88 12
0.28867528 -1.0893637 1.3525854 234 88 12
0.27045536 -1.1267741 1.4434024 234 88 12
0.28590187 -1.1064352 1.3946255 234 88 12
0.29955822 -1.0896891 1.3545662 234 88 12
0.24373405 -1.0935934 1.3482273 234 88 12
0.25688186 -1.0970169 1.3582418 234 88 12
0.27183095 -1.0965449 1.3586875 234 88 12
0.28327507 -1.1020765 1.3738006 234 88 12
0.29109606 -1.0949422 1.3567699 234 88 12
0.25969899 -1.153329 1.4997016 234 88 12
0.31512913 -1.0917602 1.3514131 234 88 12
0.26797926 -1.1069839 1.3746508 234 88 12
0.22253649 -1.1925081 1.5786661 234 88 12
0.27819973 -1.1050286 1.3608286 234 88 12
0.25151625 -1.1033268 1.343251 234 88 12
0.25835612 -1.1044525 1.3469352 234 88 12
0.26959386 -1.1041604 1.3474438 234 88 12
0.24451663 -1.1667105 1.5065582 234 88 12
0.28440711 -1.1040295 1.3487724 234 88 12
0.31539914 -1.1069727 1.3598804 234 88 12
0.23860683 -1.1691554 1.5036477 234 88 12
0.24676228 -1.1602839 1.4813564 234 88 12
0.29332697 -1.104864 1.3416041 234 88 12
0.30102533 -1.104365 1.3411741 234 88 12
0.30835217 -1.1044459 1.3422197 234 88 12
0.31606743 -1.1039246 1.3417332 234 88 12
0.31906909 -1.1049238 1.34469 234 88 12
0.25515959 -1.1103762 1.3412834 234 88 12
0.25684151 -1.120999 1.3695871 234 88 12
0.2523393 -1.1419102 1.4244046 234 88 12
0.22099271 -1.2029941 1.5824393 234 88 12
0.22831833 -1.195098 1.5623875 234 88 12
0.25249314 -1.1588302 1.4691962 234 88 12
0.21763152 -1.2224293 1.6334821 234 88 12
0.18445818 -1.2811621 1.785085 234 88 12
0.28213444 -1.126379 1.3867339 234 88 12
0.29315451 -1.1201054 1.3714002 234 88 12
0.29428661 -1.1292162 1.3956399 234 88 12
0.29253775 -1.1370267 1.4161067 234 88 12
0.30339581 -1.1260089 1.3882004 234 88 12
0.25169593 -1.1133606 1.3382751 234 88 12
0.23983414 -1.1672279 1.4810239 234 88 12
0.23396899 -1.182934 1.5223656 234 88 12
0.25351053 -1.1653887 1.4776942 234 88 12
0.18842018 -1.2765305 1.7674966 234 88 12
0.28226626 -1.1294109 1.3847759 234 88 12
0.2678656 -1.1576536 1.4586679 234 88 12
0.27118045 -1.1575094 1.4586679 234 88 12
0.2828522 -1.1445907 1.4254599 234 88 12
0.28001854 -1.1587182 1.4629301 234 88 12
0.25800127 -1.1188526 1.343179 234 88 12
0.21716049 -1.2000059 1.5579414 234 88 12
0.2339119 -1.1751151 1.4925681 234 88 12
0.19113833 -1.255736 1.7056624 234 88 12
0.17256095 -1.2917355 1.8008766 234 88 12
0.18819383 -1.2684363 1.7396778 234 88 12
0.26360312 -1.1462095 1.4178542 234 88 12
0.17551829 -1.2962385 1.8134078 234 88 12
0.18008789 -1.2948607 1.8102175 234 88 12
0.22300312 -1.2307204 1.6417294 234 88 12
0.24655205 -1.198361 1.5569485 234 88 12
0.27035618 -1.1666028 1.4738245 234 88 12
0.19704877 -1.2806572 1.773784 234 88 12
0.24799818 -1.1202548 1.3351099 234 88 12
0.25310549 -1.1312774 1.3658762 234 88 12
0.23085436 -1.1779197 1.490846 234 88 12
0.21146102 -1.2177879 1.5976211 234 88 12
0.20296264 -1.2414975 1.6614814 234 88 12
0.17178188 -1.298003 1.8123751 234 88 12
0.17939374 -1.297672 1.8123751 234 88 12
0.19519481 -1.2822816 1.7721454 234 88 12
0.23161985 -1.1794246 1.4859874 234 88 12
0.18906102 -1.2932428 1.7958162 234 88 12
0.25487599 -1.1280895 1.3359079 234 88 12
0.16717054 -1.2982339 1.7957569 234 88 12
0.17431055 -1.3123114 1.803081 234 88 12
0.18001944 -1.3120632 1.803081 234 88 12
0.18382536 -1.3118978 1.803081 234 88 12
0.77589768 -0.3938981 1.5756035 234 88 12
0.27722982 0.34197986 1.7601107 234 88 12
0.27339789 0.34290755 1.7604477 234 88 12
0.2659837 0.34282932 1.7597235 234 88 12
0.26157814 0.34860039 1.7635673 234 88 12
0.25023243 0.35084665 1.7641973 234 88 12
0.2352602 0.35249269 1.7640603 234 88 12
0.27003798 0.34670916 1.7586895 234 88 12
0.26639301 0.34617332 1.7579634 234 88 12
0.25384906 0.35851222 1.765952 234 88 12
0.23992755 0.3499836 1.7583855 234 88 12
0.23616491 0.35035887 1.7583225 234 88 12
0.24331865 0.36072034 1.7624016 234 88 12
0.25319391 0.37800604 1.7719927 234 88 12
0.24843127 0.38840675 1.7793468 234 88 12
0.24798955 0.35856485 1.756953 234 88 12
0.23308931 0.35888991 1.7558303 234 88 12
0.25972098 0.36011425 1.7549009 234 88 12
0.25361067 0.38110226 1.7701603 234 88 12
0.23212898 0.54295874 1.8902054 234 88 12
0.28295532 0.35885543 1.7517824 234 88 12
0.20526551 0.80688626 2.0845432 234 88 12
0.28671399 0.36453053 1.7521213 234 88 12
0.26716027 0.3728281 1.7566308 234 88 12
0.27533478 0.37299052 1.7532041 234 88 12
-0.804883 0.62885326 1.639372 234 88 12
-1.024666 0.90701461 1.7776688 234 88 12
-0.69428945 0.52202368 1.5752367 234 88 12
-0.69499922 0.51689196 1.574008 234 88 12
-0.70681661 0.51362956 1.5764384 234 88 12
-0.71614814 0.5195201 1.5807157 234 88 12
-0.80120814 0.62358338 1.6337322 234 88 12
-0.87109876 0.70947677 1.6774021 234 88 12
-1.0296609 0.90391451 1.7763571 234 88 12
-0.71913189 0.51061958 1.5754048 234 88 12
-0.83642876 0.65875638 1.6504875 234 88 12
-1.028954 0.90856671 1.7737337 234 88 12
-0.7235716 0.56258941 1.5841583 234 88 12
-0.70134586 0.52927995 1.5681708 234 88 12
-0.89215928 0.72662234 1.6800612 234 88 12
-0.69420177 0.53791761 1.5648383 234 88 12
-0.69706541 0.53546685 1.5649695 234 88 12
-0.70811141 0.53717512 1.5686995 234 88 12
-0.70507509 0.52741104 1.5649898 234 88 12
-0.71333438 0.51967627 1.565176 234 88 12
-0.71760041 0.51291847 1.5644742 234 88 12
-0.72164869 0.5058316 1.5636137 234 88 12
-0.82529652 0.63729483 1.6319523 234 88 12
-0.7472713 0.53297347 1.5753375 234 88 12
-1.0010523 0.90324837 1.756285 234 88 12
-0.72285461 0.55449384 1.5707387 234 88 12
-0.71633852 0.54046839 1.5646706 234 88 12
-1.012803 0.9084124 1.761309 234 88 12
-1.0163052 0.90970379 1.7627336 234 88 12
-1.0185302 0.9094007 1.7633083 234 88 12
-0.83981097 0.65547937 1.6353251 234 88 12
-0.71752417 0.52330965 1.5562106 234 88 12
-0.73087168 0.51538479 1.5541031 234 88 12
-1.0291539 0.92213637 1.7645519 234 88 12
-1.3482114 -0.12291077 1.1793535 234 88 12
-1.6191187 -0.014312002 1.2273118 234 88 12
-1.4972073 -0.071972951 1.2055348 234 88 12
-1.4485571 -0.097420737 1.1967902 234 88 12
-1.3521168 -0.11383653 1.1766033 234 88 12
-1.350446 -0.12250673 1.1761202 234 88 12
-1.3605436 -0.12207294 1.1778623 234 88 12
-1.3601503 -0.13410874 1.1775221 234 88 12
-1.6064625 -0.026327895 1.2222208 234 88 12
-1.8496993 0.082018666 1.2664046 234 88 12
-1.3630697 -0.11365227 1.174903 234 88 12
-1.3579888 -0.13567322 1.1735048 234 88 12
-1.3544637 -0.10202876 1.1700449 234 88 12
-1.3782159 -0.099920608 1.1743331 234 88 12
-1.3566256 -0.1368826 1.169609 234 88 12
-1.5198913 -0.069946922 1.2003217 234 88 12
-1.3660364 -0.097751155 1.1686188 234 88 12
-1.5889122 -0.038742404 1.2105817 234 88 12
-1.7052962 0.012140336 1.2329766 234 88 12
-1.4895555 -0.053790189 1.1889904 234 88 12
-1.7541089 0.034394655 1.2401971 234 88 12
-1.7978601 0.074378721 1.2472566 234 88 12
-1.7455806 0.049552824 1.2367622 234 88 12
-1.8442645 0.09020108 1.2564166 234 88 12
-1.3588738 -0.12566912 1.159346 234 88 12
-1.3636702 -0.13549407 1.1600068 234 88 12
-1.3914728 -0.12678343 1.1654757 234 88 12
-1.7291144 0.024913838 1.2330371 234 88 12
-1.8520135 0.093296818 1.2561176 234 88 12
-1.8393388 0.07331422 1.2531712 234 88 12
-1.3730829 -0.13638972 1.1544999 234 88 12
-1.8363341 0.073675722 1.2506914 234 88 12
-1.8576488 0.086911537 1.2515301 234 88 12
-1.4718932 -1.1023427 0.90384209 234 88 12
-1.2948804 -1.0759548 0.89772248 234 88 12
-1.1689864 -1.0659546 0.89529955 234 88 12
-1.443749 -1.0999262 0.90070379 234 88 12
-1.4032966 -1.0987267 0.89994454 234 88 12
-1.7161473 -1.1319609 0.90604573 234 88 12
-1.7152716 -1.1336524 0.90604573 234 88 12
-1.7143959 -1.1353439 0.90604573 234 88 12
-1.1774118 -1.0567291 0.89179564 234 88 12
-1.1691229 -1.0593481 0.89164633 234 88 12
-1.1628016 -1.0693238 0.89162147 234 88 12
-1.3743165 -1.0963635 0.89647788 234 88 12
-1.3766398 -1.0941151 0.89359105 234 88 12
-1.2394611 -1.08407 0.89008963 234 88 12
-1.1780173 -1.0505995 0.88455576 234 88 12
-1.1623999 -1.0737708 0.88445562 234 88 12
-1.339466 -1.0938768 0.88964057 234 88 12
-1.422051 -1.0992602 0.88922334 234 88 12
-1.3548337 -1.0986311 0.88714778 234 88 12
-1.1937387 -1.0533599 0.87791586 234 88 12
-1.1713322 -1.0542966 0.87717474 234 88 12
-1.1747212 -1.0618044 0.87742072 234 88 12
-1.3597965 -1.0936568 0.88423538 234 88 12
-1.4012985 -1.1031951 0.88580543 234 88 12
-1.6053354 -1.1236042 0.8930608 234 88 12
-1.2024944 -1.0756081 0.87509376 234 88 12
-1.6846516 -1.1250679 0.89382797 234 88 12
-1.5787346 -1.1171803 0.88976943 234 88 12
-1.6827829 -1.1286771 0.89382797 234 88 12
-1.1816589 -1.0740215 0.87071151 234 88 12
-1.7189419 -1.1285834 0.89332724 234 88 12
-1.7127802 -1.1333914 0.89318037 234 88 12
-1.7171867 -1.1355416 0.89340109 234 88 12
-1.1756035 -1.0738989 0.86685586 234 88 12
-1.7132214 -1.1300877 0.89127678 234 88 12
-1.1728004 -1.0705614 0.86302668 234 88 12
-0.45518094 -1.6512522 0.89529288 234 88 12
-0.35344312 -1.5495661 0.88841319 234 88 12
-0.53213078 -1.7150549 0.89475805 234 88 12
-0.54743457 -1.7319373 0.89536804 234 88 12
-0.75196159 -1.9143281 0.90245754 234 88 12
-0.3589465 -1.5409706 0.88469011 234 88 12
-0.3414191 -1.5442457 0.88452971 234 88 12
-0.49851525 -1.6861635 0.89070415 234 88 12
-0.54787201 -1.7327821 0.8927002 234 88 12
-0.35686994 -1.534919 0.88088059 234 88 12
-0.41365516 -1.6083167 0.88403946 234 88 12
-0.39685237 -1.5979245 0.88345277 234 88 12
-0.5187999 -1.7080314 0.88877636 234 88 12
-0.36154544 -1.5349643 0.8773427 234 88 12
-0.35618022 -1.5348946 0.87724644 234 88 12
-0.3523702 -1.5362483 0.87722552 234 88 12
-0.3603341 -1.5620793 0.8782382 234 88 12
-0.63128424 -1.8029611 0.89112473 234 88 12
-0.62908792 -1.8040981 0.89112473 234 88 12
-0.74438661 -1.9204115 0.8970753 234 88 12
-0.36213073 -1.5360948 0.8737731 234 88 12
-0.47792953 -1.6658115 0.8807711 234 88 12
-0.5327931 -1.7175391 0.88372761 234 88 12
-0.48150596 -1.6767143 0.88124168 234 88 12
-0.47001371 -1.6672879 0.8776263 234 88 12
-0.75343245 -1.9171691 0.8934871 234 88 12
-0.74497491 -1.9215478 0.8934871 234 88 12
-0.35554373 -1.5550596 0.86718065 234 88 12
-0.38100553 -1.5819896 0.86890918 234 88 12
-0.48612112 -1.6778936 0.87538713 234 88 12
-0.44738153 -1.6482497 0.87324536 234 88 12
-0.36718071 -1.5328361 0.86283582 234 88 12
-0.35979855 -1.540576 0.86301684 234 88 12
-0.35643011 -1.5423199 0.86301684 234 88 12
-0.3725664 -1.5706545 0.864712 234 88 12
-0.36769831 -1.5709394 0.86460871 234 88 12
-0.74387175 -1.9235599 0.8898989 234 88 12
-0.39933279 -1.5947963 0.86305702 234 88 12
-0.41755626 -1.6151181 0.8645246 234 88 12
-0.74976468 -1.9078876 0.88744682 234 88 12
-0.74585742 -1.9232523 0.88810486 234 88 12
-0.39988184 -1.5958568 0.85970849 234 88 12
-0.3539516 -1.5601377 0.85658807 234 88 12
-0.45672241 -1.6544646 0.8611781 234 88 12
-0.75240278 -1.923466 0.87913436 234 88 12
-0.74394524 -1.9278448 0.87913436 234 88 12
0.35934785 -1.3837565 1.0276377 234 88 12
0.34117573 -1.3805809 1.0217748 234 88 12
0.34498653 -1.378679 1.0212882 234 88 12
0.34664506 -1.6382494 1.1116902 234 88 12
0.35131699 -1.6030437 1.099654 234 88 12
0.35155764 -1.647563 1.115157 234 88 12
0.34930488 -1.5915776 1.0924822 234 88 12
0.35676199 -1.5097179 1.0640069 234 88 12
0.36001691 -1.509288 1.0640069 234 88 12
0.36208394 -1.5276672 1.0705743 234 88 12
0.37502328 -1.3816144 1.0197521 234 88 12
0.39030498 -1.3760365 1.0184991 234 88 12
0.34475377 -1.5681874 1.0808345 234 88 12
0.33358154 -1.8632652 1.1854208 234 88 12
0.36137226 -1.5437396 1.0729078 234 88 12
0.40552348 -1.3766288 1.0154576 234 88 12
0.33821407 -1.3846918 1.0111853 234 88 12
0.34560287 -1.3877101 1.0126246 234 88 12
0.33181721 -1.8644533 1.183768 234 88 12
0.37262374 -1.4280075 1.0284327 234 88 12
0.37620413 -1.4275345 1.0284327 234 88 12
0.38334361 -1.379904 1.0116084 234 88 12
0.38460064 -1.4110087 1.0228772 234 88 12
0.390971 -1.3777058 1.0111794 234 88 12
0.38973764 -1.4347005 1.0316594 234 88 12
0.40066475 -1.3932331 1.0172364 234 88 12
0.40436709 -1.3927439 1.0172364 234 88 12
0.4096846 -1.3764676 1.0116241 234 88 12
0.33832315 -1.3912835 1.0096004 234 88 12
0.34327373 -1.5433464 1.0652689 234 88 12
0.34327134 -1.8638952 1.1821153 234 88 12
0.37434933 -1.5035743 1.0522677 234 88 12
0.38642523 -1.4369313 1.0285565 234 88 12
0.38997045 -1.4364629 1.0285565 234 88 12
0.39726594 -1.3949012 1.0137577 234 88 12
0.40492323 -1.3914208 1.0128578 234 88 12
0.3390626 -1.6517333 1.1016822 234 88 12
0.39184618 -1.4585038 1.0330102 234 88 12
0.34010801 -1.5582789 1.0639808 234 88 12
0.33626685 -1.7244403 1.1257514 234 88 12
0.38418722 -1.4724851 1.0341609 234 88 12
0.34402528 -1.544924 1.0558308 234 88 12
0.34478337 -1.5968119 1.0754354 234 88 12
0.33420163 -1.8679588 1.1771572 234 88 12
0.34364343 -1.8667114 1.1771572 234 88 12
0.36547816 -1.7257476 1.1250877 234 88 12
0.34317815 -1.3947639 0.99515182 234 88 12
0.34648228 -1.4062128 0.99968398 234 88 12
0.33302021 -1.8110824 1.1533923 234 88 12
0.35275507 -1.8498297 1.1691618 234 88 12
0.35631233 -1.8315874 1.1623847 234 88 12
0.37054548 -1.7000479 1.1129426 234 88 12
0.39871892 -1.4350743 1.0133212 234 88 12
0.34484273 -1.4566182 1.0150577 234 88 12
0.36249372 -1.789265 1.1442145 234 88 12
0.38273835 -1.6034819 1.0736139 234 88 12
0.33155015 -1.8537848 1.1654199 234 88 12
0.3573432 -1.8467525 1.1640069 234 88 12
0.33636674 -1.4023097 0.98563862 234 88 12
0.3437148 -1.4061452 0.98753279 234 88 12
0.34413323 -1.4031852 0.98234797 234 88 12
0.33909452 -1.8759084 1.1622826 234 88 12
0.34475958 -1.87516 1.1622826 234 88 12
0.34714401 -1.8786654 1.1556716 234 88 12
0.68574327 -1.0385292 1.2333943 234 88 12
0.68844235 -1.0358688 1.2333943 234 88 12
0.68078828 -1.0451237 1.229039 234 88 12
0.68744689 -1.0453565 1.2288212 234 88 12
0.76202053 -1.0809175 1.3130333 234 88 12
0.70487219 -1.0467963 1.2383937 234 88 12
0.70120889 -1.0411403 1.2307467 234 88 12
0.6795218 -1.0594664 1.2224318 234 88 12
0.84359556 -1.1282136 1.4140828 234 88 12
0.779396 -1.0932099 1.3323536 234 88 12
0.70188344 -1.0502926 1.233132 234 88 12
0.71831203 -1.054185 1.2498345 234 88 12
0.83165997 -1.12378 1.3961418 234 88 12
0.77182686 -1.0940716 1.3218255 234 88 12
0.79317343 -1.0938278 1.3392531 234 88 12
0.69949645 -1.0463189 1.2220658 234 88 12
0.86181992 -1.1294237 1.4215024 234 88 12
0.70179576 -1.0484476 1.2199224 234 88 12
0.70632333 -1.038754 1.2155051 234 88 12
0.72217059 -1.0346831 1.2252581 234 88 12
0.99430281 -1.2081919 1.5953439 234 88 12
0.99565935 -1.2068547 1.5953439 234 88 12
0.78608793 -1.1120024 1.3388355 234 88 12
0.85899651 -1.1402359 1.4240181 234 88 12
0.93136162 -1.1690879 1.5092711 234 88 12
0.90251452 -1.1539247 1.4721704 234 88 12
0.74623001 -1.0810972 1.2791023 234 88 12
0.97355294 -1.1811365 1.5549148 234 88 12
0.71703357 -1.0410478 1.2205303 234 88 12
0.73720324 -1.035405 1.2326467 234 88 12
0.72997183 -1.0235183 1.2164654 234 88 12
0.73266613 -1.0208626 1.2164654 234 88 12
0.99527234 -1.2091755 1.5940322 234 88 12
0.99798548 -1.2065012 1.5940322 234 88 12
0.99934202 -1.2051641 1.5940322 234 88 12
0.90725249 -1.1617788 1.4789823 234 88 12
0.73468846 -1.0669117 1.2461171 234 88 12
0.71435106 -1.0417371 1.207036 234 88 12
0.71706021 -1.0390668 1.207036 234 88 12
0.73211771 -1.0306002 1.2125456 234 88 12
0.9999246 -1.2084686 1.5914088 234 88 12
0.74791348 -1.0740509 1.2579987 234 88 12
0.72928536 -1.061633 1.231192 234 88 12
0.73190087 -1.059055 1.231192 234 88 12
0.71403605 -1.0465927 1.205002 234 88 12
0.71709687 -1.0440975 1.2054564 234 88 12
0.73152405 -1.0312345 1.2066386 234 88 12
0.73644346 -1.0256497 1.2059976 234 88 12
0.74551922 -1.0181941 1.2072954 234 88 12
0.78797638 -1.0901151 1.3011547 234 88 12
0.7359218 -1.0581503 1.2280656 234 88 12
0.73186076 -1.048396 1.215991 234 88 12
0.75347018 -1.03968 1.2270358 234 88 12
0.85095614 -1.1234187 1.3802484 234 88 12
0.9067207 -1.146392 1.449187 234 88 12
0.77350634 -1.0771621 1.2718091 234 88 12
0.76307541 -1.0534024 1.2416987 234 88 12
0.75503188 -1.0453647 1.2275766 234 88 12
0.75310385 -1.0404006 1.2215047 234 88 12
1.0150422 -1.1993854 1.5874738 234 88 12
0.94401032 -1.1644325 1.4939057 234 88 12
0.88092333 -1.1322777 1.4098126 234 88 12
0.77526242 -1.0789437 1.2694334 234 88 12
0.83768028 -1.0957812 1.3392847 234 88 12
1.0055819 -1.1783037 1.5603693 234 88 12
0.81448835 -1.0771004 1.3022554 234 88 12
0.96822798 -1.1762989 1.5222273 234 88 12
0.9609102 -1.1705714 1.5106024 234 88 12
0.77496755 -1.0724754 1.2578303 234 88 12
0.76021826 -1.0614747 1.2348877 234 88 12
0.76278615 -1.0589436 1.2348877 234 88 12
0.80820519 -1.0782484 1.2924477 234 88 12
1.0033351 -1.1931018 1.5652027 234 88 12
1.0098596 -1.1940819 1.5719124 234 88 12
0.99045706 -1.1828405 1.5444205 234 88 12
0.83840293 -1.1043291 1.3376499 234 88 12
0.86716068 -1.1152749 1.3732226 234 88 12
0.73669767 -1.046816 1.1948205 234 88 12
1.0170355 -1.1979727 1.5787339 234 88 12
1.017549 -1.1921617 1.5738937 234 88 12
1.0144638 -1.2096521 1.5809153 234 88 12
1.0113636 -1.2146471 1.5796037 234 88 12
1.0140767 -1.2119728 1.5796037 234 88 12
1.7013155 -0.52673721 1.3685019 234 88 12
1.5396317 -0.57133442 1.3066156 234 88 12
1.3467314 -0.62789041 1.2330022 234 88 12
1.3472589 -0.62469184 1.2330022 234 88 12
1.2021439 -0.6649465 1.1774727 234 88 12
1.2036145 -0.66095549 1.1777985 234 88 12
1.210799 -0.65530616 1.1803058 234 88 12
1.202256 -0.65065879 1.1765727 234 88 12
1.3370295 -0.63480121 1.2261124 234 88 12
1.3570986 -0.6255762 1.2336274 234 88 12
1.2093534 -0.6673159 1.1765535 234 88 12
1.2168232 -0.66154534 1.1791945 234 88 12
1.2128116 -0.65568858 1.1771777 234 88 12
1.7043953 -0.52145368 1.3653772 234 88 12
1.2107263 -0.63948071 1.1712507 234 88 12
1.2911879 -0.64761907 1.2010666 234 88 12
1.2077262 -0.67437422 1.1643486 234 88 12
1.2078711 -0.67534781 1.1604347 234 88 12
1.2091091 -0.66784132 1.1604347 234 88 12
1.2153664 -0.64817256 1.1617064 234 88 12
1.5297949 -0.57852143 1.286817 234 88 12
1.3822156 -0.60134912 1.2255021 234 88 12
1.2329791 -0.64058262 1.1646343 234 88 12
1.4430964 -0.6066252 1.2487112 234 88 12
1.281105 -0.65451252 1.1823525 234 88 12
1.2315812 -0.6629988 1.1616284 234 88 12
1.2245156 -0.65102327 1.1577351 234 88 12
1.223152 -0.64075935 1.1564188 234 88 12
1.7099154 -0.52815562 1.3560027 234 88 12
1.2604413 -0.65855098 1.1698571 234 88 12
1.5664752 -0.56666374 1.2937341 234 88 12
1.2977866 -0.64791256 1.1815897 234 88 12
1.2493981 -0.65260637 1.1606735 234 88 12
1.6837209 -0.53032941 1.3404363 234 88 12
1.2236233 -0.67199236 1.1466848 234 88 12
1.2242396 -0.66825581 1.1466848 234 88 12
1.2720137 -0.65014541 1.1665541 234 88 12
1.2570506 -0.65127134 1.1599983 234 88 12
1.2244372 -0.65397614 1.1457276 234 88 12
1.4493999 -0.60233694 1.2385987 234 88 12
1.3463538 -0.6283682 1.1943562 234 88 12
1.3468952 -0.62508559 1.1943562 234 88 12
1.4377247 -0.58924842 1.2324009 234 88 12
1.7145252 -0.52698541 1.3497531 234 88 12
1.7140677 -0.52000105 1.349025 234 88 12
1.6948552 -0.52417666 1.3406447 234 88 12
1.5081005 -0.57962173 1.2602926 234 88 12
1.447189 -0.59555244 1.2339246 234 88 12
1.7149316 -0.52024662 1.3473642 234 88 12
1.7206652 -0.52992857 1.3403788 234 88 12
1.2002428 0.92413443 1.6587982 234 88 12
1.1988959 0.92548132 1.6587982 234 88 12
1.0880227 0.6699906 1.5487559 234 88 12
1.101166 0.70660186 1.5634376 234 88 12
1.1059724 0.72381073 1.5699339 234 88 12
1.0565696 0.59584546 1.5143354 234 88 12
0.99218482 0.45659837 1.4536797 234 88 12
1.0006534 0.48439708 1.4644827 234 88 12
0.98176283 0.45920914 1.451353 234 88 12
1.2056936 0.92419779 1.654621 234 88 12
1.2043468 0.92554468 1.654621 234 88 12
1.0665933 0.60956061 1.5181953 234 88 12
0.99184752 0.46223333 1.4514245 234 88 12
0.98365974 0.46976906 1.4512284 234 88 12
1.0002763 0.44391054 1.444568 234 88 12
0.99810141 0.4477945 1.4450867 234 88 12
0.984761 0.47850713 1.450359 234 88 12
0.97699404 0.47006756 1.4454405 234 88 12
1.0003003 0.45048475 1.442687 234 88 12
0.99034882 0.46296272 1.4434609 234 88 12
1.0163555 0.45916796 1.4464309 234 88 12
1.0142778 0.51471174 1.4629608 234 88 12
1.004342 0.50068647 1.4555528 234 88 12
1.0148492 0.44380867 1.4373139 234 88 12
1.0089599 0.48341373 1.4478341 234 88 12
1.0001227 0.47180814 1.4414554 234 88 12
1.009202 0.50939804 1.4560175 234 88 12
0.98370308 0.47821754 1.438332 234 88 12
1.2129825 0.92609924 1.6476588 234 88 12
1.0199592 0.46277174 1.4409709 234 88 12
1.0062916 0.48360229 1.4432265 234 88 12
1.0410197 0.57876623 1.4841301 234 88 12
0.98813558 0.47722012 1.4354993 234 88 12
1.0189621 0.44858238 1.4322693 234 88 12
1.0183967 0.45378259 1.4298153 234 88 12
1.0116761 0.45586094 1.4283265 234 88 12
1.0078133 0.46476826 1.4299444 234 88 12
1.2029599 0.92598879 1.6384176 234 88 12
1.2100545 0.92765266 1.6392392 234 88 12
-0.15804642 1.3548359 1.3741957 234 88 12
-0.17637914 1.4183851 1.38823 234 88 12
-0.24330673 1.6917464 1.4481844 234 88 12
-0.10809575 1.1809511 1.33222 234 88 12
-0.1206325 1.2161348 1.3401976 234 88 12
-0.12171628 1.1890574 1.334437 234 88 12
-0.18459119 1.4412055 1.3906568 234 88 12
-0.093606956 1.1861713 1.3292384 234 88 12
-0.11239471 1.198916 1.3326846 234 88 12
-0.094373599 1.1898748 1.3264819 234 88 12
-0.10491827 1.1853285 1.3258618 234 88 12
-0.12047306 1.1851432 1.3263876 234 88 12
-0.17213809 1.3615922 1.3672454 234 88 12
-0.095259741 1.1940266 1.3238415 234 88 12
-0.10854153 1.2003682 1.325755 234 88 12
-0.11988717 1.2158376 1.3261273 234 88 12
-0.12616529 1.2260773 1.3286945 234 88 12
-0.17793083 1.4522272 1.379436 234 88 12
-0.22476843 1.6334643 1.4231038 234 88 12
-0.10272132 1.2245407 1.3204269 234 88 12
-0.13873553 1.3214161 1.3445394 234 88 12
-0.23491022 1.6920401 1.4351789 234 88 12
-0.16858414 1.4022549 1.3646524 234 88 12
-0.12173156 1.193063 1.3137801 234 88 12
-0.22864129 1.6835845 1.4310652 234 88 12
-0.239087 1.7012762 1.4356852 234 88 12
-0.2405633 1.691103 1.4333222 234 88 12
-0.15376274 1.3134044 1.340036 234 88 12
-0.12985738 1.1951796 1.3109643 234 88 12
-0.23362617 1.703281 1.4341228 234 88 12
-1.3354354 0.82422942 0.84580874 234 88 12
-1.332141 0.81567198 0.84589607 234 88 12
-1.5199056 1.0000054 0.84296679 234 88 12
-1.6450497 1.1233028 0.84101146 234 88 12
-1.7047068 1.1812974 0.84008461 234 88 12
-1.3187071 0.82328737 0.84235835 234 88 12
-1.4258682 0.92759937 0.83809733 234 88 12
-1.3256239 0.8193121 0.83872986 234 88 12
-1.4551729 0.92525488 0.83800149 234 88 12
-1.3160965 0.83607996 0.83511561 234 88 12
-1.3275902 0.83674258 0.83510691 234 88 12
-1.7072473 1.1808251 0.8346436 234 88 12
-1.3170218 0.83677614 0.83150703 234 88 12
-1.328614 0.8375361 0.83153182 234 88 12
-1.3304249 0.83410025 0.83153021 234 88 12
-1.3460029 0.83904564 0.83156949 234 88 12
-1.3302858 0.81820011 0.8315056 234 88 12
-1.3612195 0.82845646 0.83158427 234 88 12
-1.6910378 1.1639495 0.83276963 234 88 12
-1.3431841 0.85145885 0.82807028 234 88 12
-1.687966 1.1606385 0.83084369 234 88 12
-1.4904748 0.99405777 0.82647884 234 88 12
-1.6431894 1.139086 0.82846272 234 88 12
-1.6164967 1.1097918 0.82809347 234 88 12
-1.6908722 1.1802115 0.82905847 234 88 12
-1.3448987 0.81121171 0.82433343 234 88 12
-1.3838029 0.86097604 0.82151657 234 88 12
-1.7042234 -0.39528716 0.35736313 234 88 12
-1.960817 -0.33911669 0.29422715 234 88 12
-2.1302238 -0.29927772 0.25258163 234 88 12
-2.2104926 -0.28095514 0.23284139 234 88 12
-2.2102833 -0.2847589 0.23284139 234 88 12
-1.7040286 -0.40283868 0.3535617 234 88 12
-1.8647047 -0.3693068 0.31143996 234 88 12
-1.7064086 -0.37998271 0.34579864 234 88 12
-1.937961 -0.3506344 0.29110169 234 88 12
-1.9205557 -0.35801506 0.29514542 234 88 12
-1.7061268 -0.37635526 0.34216583 234 88 12
-1.7202939 -0.38424084 0.33874696 234 88 12
-1.7030407 -0.39574704 0.34263852 234 88 12
-1.7055268 -0.40260142 0.34196803 234 88 12
-1.9382353 -0.34772772 0.28818658 234 88 12
-2.0805573 -0.31659213 0.25526315 234 88 12
-1.7353094 -0.40248463 0.33136168 234 88 12
-2.1824656 -0.2902104 0.2297515 234 88 12
-2.2095652 -0.28506586 0.22357242 234 88 12
-2.0911145 -0.29306519 0.24843389 234 88 12
-1.806543 -0.36081538 0.31209826 234 88 12
-1.7150918 -0.39662477 0.33238259 234 88 12
-1.7144737 -0.40785381 0.33238259 234 88 12
-2.2104912 -0.28297058 0.22149828 234 88 12
-2.2056775 -0.2861115 0.22255027 234 88 12
-2.1966004 -0.27115363 0.22285242 234 88 12
-2.1892526 -0.2767624 0.22442187 234 88 12
-1.945847 -0.34306839 0.27787772 234 88 12
-1.8429382 -0.37184203 0.3004691 234 88 12
-2.1921945 -0.28579393 0.22365512 234 88 12
-1.4442387 -1.720347 0.028275901 234 88 12
-1.1805841 -1.6018921 0.14922974 234 88 12
-1.2363309 -1.6288835 0.1226149 234 88 12
-0.98179322 -1.5039036 0.24079695 234 88 12
-0.97918397 -1.5066113 0.24076556 234 88 12
-1.2155775 -1.6141404 0.13111623 234 88 12
-1.1551297 -1.5907469 0.15784651 234 88 12
-0.98532361 -1.4976144 0.23777121 234 88 12
-0.98127335 -1.4996796 0.23839842 234 88 12
-0.97812146 -1.5060346 0.23738633 234 88 12
-1.3041613 -1.6554357 0.087163538 234 88 12
-1.1919341 -1.6065735 0.13505936 234 88 12
-1.1917872 -1.6064265 0.13214941 234 88 12
-1.0064886 -1.5182852 0.21320756 234 88 12
-1.143499 -1.5821755 0.15144847 234 88 12
-1.4143182 -1.7031413 0.031009533 234 88 12
-0.9848718 -1.4969925 0.22249869 234 88 12
-0.98219055 -1.4996737 0.22249869 234 88 12
-0.98498487 -1.5124769 0.21774825 234 88 12
-0.97132194 -1.5103363 0.22256143 234 88 12
-1.4437752 -1.717783 0.013526781 234 88 12
-1.4371669 -1.7109399 0.01558549 234 88 12
-1.0816898 -1.5581664 0.16748668 234 88 12
-1.0328599 -1.5404989 0.18736085 234 88 12
-1.0200819 -1.5202001 0.19351943 234 88 12
-1.3947873 -1.690102 0.032300882 234 88 12
-1.4439631 -1.7138717 0.010707074 234 88 12
-0.97926122 -1.501822 0.2071507 234 88 12
-1.1868836 -1.5978042 0.11813832 234 88 12
-1.4262315 -1.7079849 0.013625784 234 88 12
-0.0011858201 -2.2223837 0.32229668 234 88 12
0.00071606319 -2.2224884 0.32229668 234 88 12
0.13435712 -1.727069 0.52003002 234 88 12
0.086320922 -1.9172888 0.44130617 234 88 12
0.13056843 -1.7270088 0.51624662 234 88 12
0.091738284 -1.8878928 0.45030355 234 88 12
0.06235956 -1.9991778 0.40463403 234 88 12
0.043175075 -2.0732293 0.37425265 234 88 12
0.00069558743 -2.2228606 0.31278014 234 88 12
0.17305805 -1.7265077 0.51739538 234 88 12
0.11349807 -1.812735 0.47778475 234 88 12
0.014761072 -2.1617224 0.33572286 234 88 12
0.016894504 -2.16184 0.33572286 234 88 12
0.17520158 -1.7434483 0.50691801 234 88 12
0.12602732 -1.7297777 0.50759882 234 88 12
0.088552952 -1.8879664 0.44395548 234 88 12
0.018537853 -2.1412339 0.34184054 234 88 12
-0.0025774853 -2.2209609 0.30971569 234 88 12
-0.0007846079 -2.2214568 0.309558 234 88 12
0.18014798 -1.7286569 0.50922698 234 88 12
0.12390052 -1.7236849 0.50623506 234 88 12
0.12978958 -1.7301327 0.50382566 234 88 12
0.16607539 -1.7712032 0.48845166 234 88 12
0.1256855 -1.7448292 0.49429363 234 88 12
0.12589285 -1.7573253 0.4894273 234 88 12
0.17624108 -1.7406801 0.49699548 234 88 12
0.18353112 -1.7303122 0.50119311 234 88 12
0.042248257 -2.059479 0.36737245 234 88 12
0.015890177 -2.2240701 0.30326363 234 88 12
0.1167696 -1.7219089 0.49554664 234 88 12
0.11908235 -1.7939805 0.468034 234 88 12
0.11676142 -1.7220576 0.49174371 234 88 12
0.12745704 -1.725222 0.49076822 234 88 12
0.13330403 -1.7317129 0.48843178 234 88 12
0.12048885 -1.7892313 0.46638066 234 88 12
0.072858214 -1.9639827 0.39920405 234 88 12
0.13508686 -1.7255877 0.48705104 234 88 12
0.00066282612 -2.2234557 0.29755372 234 88 12
0.015877891 -2.2242932 0.29755372 234 88 12
0.91427863 -1.438936 0.85349905 234 88 12
1.1729873 -1.7095026 0.84371191 234 88 12
0.97841954 -1.5062809 0.84876072 234 88 12
0.90659708 -1.431585 0.85061979 234 88 12
0.81565946 -1.331669 0.85305071 234 88 12
0.94588929 -1.4789375 0.84660757 234 88 12
0.90720022 -1.4323866 0.84749359 234 88 12
0.92445445 -1.444903 0.84719497 234 88 12
0.87492949 -1.391017 0.84826231 234 88 12
0.81727225 -1.3282233 0.84950566 234 88 12
0.82089657 -1.326563 0.84949315 234 88 12
0.81888127 -1.3191655 0.84959751 234 88 12
1.1782533 -1.7069972 0.84008461 234 88 12
1.1512296 -1.6696324 0.84060234 234 88 12
1.1433076 -1.6588372 0.84075266 234 88 12
0.8322556 -1.3115014 0.84596932 234 88 12
1.1758726 -1.6914282 0.83838362 234 88 12
0.84548092 -1.3466858 0.84208 234 88 12
0.84829569 -1.3231318 0.84221357 234 88 12
0.8395322 -1.3084006 0.84234643 234 88 12
0.85229564 -1.3640513 0.83850974 234 88 12
0.91269475 -1.4200132 0.83815676 234 88 12
0.85145956 -1.3425826 0.83858663 234 88 12
0.87355858 -1.3603017 0.83846706 234 88 12
0.8519659 -1.3217983 0.83865768 234 88 12
1.1732148 -1.7129731 0.8346436 234 88 12
1.177781 -1.7095376 0.8346436 234 88 12
1.0845906 -1.5869653 0.83478343 234 88 12
0.84668362 -1.3272008 0.83510178 234 88 12
0.85064518 -1.3096247 0.83511233 234 88 12
0.9914968 -1.5000063 0.83211654 234 88 12
1.1032872 -1.609612 0.83251095 234 88 12
0.93225324 -1.4310025 0.83188534 234 88 12
0.89638537 -1.3893497 0.83174556 234 88 12
0.89054668 -1.3783408 0.83171421 234 88 12
0.84502894 -1.325662 0.83153725 234 88 12
0.85353309 -1.3292197 0.83155757 234 88 12
0.88240147 -1.3492748 0.83164257 234 88 12
0.85245717 -1.3117517 0.83152032 234 88 12
1.1037207 -1.610188 0.83026439 234 88 12
1.0952765 -1.5981879 0.83017623 234 88 12
0.87559986 -1.3526706 0.82820308 234 88 12
0.84708112 -1.3116716 0.82790309 234 88 12
0.86741006 -1.3280338 0.82805514 234 88 12
1.1867106 -1.6947095 0.82912463 234 88 12
0.9738028 -1.4695821 0.82620507 234 88 12
0.98468637 -1.463423 0.82622045 234 88 12
0.86325032 -1.3127533 0.82438654 234 88 12
0.97107035 -1.4581014 0.82314396 234 88 12
0.9395203 -1.4156383 0.82245833 234 88 12
1.0044028 -1.4931234 0.82096869 234 88 12
1.0544202 -1.5415903 0.82210028 234 88 12
0.94012481 -1.4164418 0.81932527 234 88 12
1.0010408 -1.4897608 0.81807083 234 88 12
1.1935688 -1.6882699 0.82354236 234 88 12
1.1824523 -1.7125781 0.81832063 234 88 12
1.9576365 0.50799066 0.97827446 234 88 12
1.6633809 0.24161884 0.95740837 234 88 12
1.5467066 0.13884783 0.94919157 234 88 12
1.9589672 0.50645709 0.97650433 234 88 12
1.5444323 0.12649842 0.94521719 234 88 12
1.5510278 0.15153316 0.94611698 234 88 12
1.546911 0.15252034 0.94590706 234 88 12
1.5593442 0.13962926 0.94277805 234 88 12
1.5457171 0.16486382 0.94253486 234 88 12
1.5509241 0.12150158 0.93826061 234 88 12
1.5485537 0.12408361 0.93817329 234 88 12
1.5446754 0.13487048 0.93818545 234 88 12
1.5516667 0.15074401 0.93899751 234 88 12
1.5399071 0.15434623 0.9383471 234 88 12
1.5632433 0.1371095 0.93583679 234 88 12
1.5343217 0.15821631 0.93445832 234 88 12
1.5681434 0.14098114 0.93270367 234 88 12
1.9636025 0.50413513 0.96765345 234 88 12
1.593694 0.16423847 0.93162501 234 88 12
1.5667876 0.17169653 0.92988294 234 88 12
1.6630118 0.22865146 0.93524426 234 88 12
1.5717092 0.15693623 0.92629641 234 88 12
1.6425171 0.23489173 0.93387318 234 88 12
1.5444049 0.15091681 0.92406076 234 88 12
1.963573 0.50819594 0.96411318 234 88 12
1.9292561 0.47834447 0.9605177 234 88 12
1.7372541 0.30155233 0.94011015 234 88 12
1.769244 0.33497834 0.94362849 234 88 12
1.8198823 0.3852258 0.94911855 234 88 12
1.9502054 0.5079338 0.96305102 234 88 12
1.6621932 0.24798521 0.93259501 234 88 12
1.5520864 0.1524134 0.92106503 234 88 12
1.9682231 0.50384355 0.9570325 234 88 12
0.81325179 1.8386312 0.98712534 234 88 12
0.78700143 1.6342192 0.97674209 234 88 12
0.73489195 1.3065213 0.96283096 234 88 12
0.73316932 1.3197113 0.96333313 234 88 12
0.72780108 1.3093194 0.96283585 234 88 12
0.72466242 1.3132305 0.96294498 234 88 12
0.75210524 1.3207439 0.96013117 234 88 12
0.7459051 1.3027691 0.95925283 234 88 12
0.72351372 1.3274107 0.95995271 234 88 12
0.75426924 1.3046417 0.95228487 234 88 12
0.74404222 1.3116498 0.9524411 234 88 12
0.74160266 1.3204976 0.95283455 234 88 12
0.72917223 1.3125243 0.95220584 234 88 12
0.7481702 1.3122858 0.94896007 234 88 12
0.73956853 1.3297396 0.94971091 234 88 12
0.72910094 1.3337932 0.94971627 234 88 12
0.71523798 1.3180187 0.94860595 234 88 12
0.74875641 1.3653362 0.94834757 234 88 12
0.74228185 1.3459032 0.94712085 234 88 12
0.77962679 1.6134062 0.96291083 234 88 12
0.73788095 1.3643733 0.94806337 234 88 12
0.75257748 1.3395424 0.94346637 234 88 12
0.77600348 1.550162 0.95648116 234 88 12
0.80949092 1.7938242 0.9716807 234 88 12
0.81382734 1.835631 0.97425705 234 88 12
0.76323152 1.524582 0.95467824 234 88 12
0.82269514 1.8297609 0.97225606 234 88 12
0.81863904 1.8142887 0.97119266 234 88 12
0.81734008 1.8324996 0.97230089 234 88 12
0.78444338 1.6588595 0.96066433 234 88 12
0.73934764 1.3926401 0.94294965 234 88 12
0.72445488 1.322988 0.93824184 234 88 12
0.82439739 1.841189 0.97119379 234 88 12
0.82489419 1.842505 0.96765345 234 88 12
0.81954825 1.8445233 0.96765345 234 88 12
-0.68999177 1.5301065 0.54354405 234 88 12
-0.70500183 1.5546983 0.54001051 234 88 12
-0.90085113 1.9874371 0.48129249 234 88 12
-0.67222512 1.5276285 0.54103893 234 88 12
-0.68971473 1.5201787 0.54099369 234 88 12
-0.67085665 1.5336784 0.53677243 234 88 12
-0.68241006 1.5495381 0.5345363 234 88 12
-0.70111829 1.5178182 0.53701192 234 88 12
-0.66627789 1.5328838 0.53339052 234 88 12
-0.6748172 1.5332355 0.5329591 234 88 12
-0.68870848 1.5364163 0.5319888 234 88 12
-0.68658763 1.5224895 0.53352052 234 88 12
-0.69652754 1.5167491 0.53365141 234 88 12
-0.70325136 1.5597348 0.52536875 234 88 12
-0.70159405 1.5188764 0.52951491 234 88 12
-0.68195397 1.5573689 0.52296889 234 88 12
-0.69308954 1.5550699 0.52270794 234 88 12
-0.74595398 1.6631206 0.51000357 234 88 12
-0.80367398 1.7842052 0.49583256 234 88 12
-0.87551087 1.9646322 0.47336036 234 88 12
-0.86968005 1.9471349 0.47523329 234 88 12
-0.89161617 1.9855099 0.4707427 234 88 12
-0.79030305 1.7472361 0.49716476 234 88 12
-0.88700932 1.9800712 0.46953717 234 88 12
-0.89647555 1.9916402 0.46811602 234 88 12
-1.6717086 0.55083537 -0.058897346 234 88 12
-1.871062 0.68439084 -0.14846402 234 88 12
-2.0657172 0.819094 -0.23658659 234 88 12
-1.6672399 0.55237049 -0.061554082 234 88 12
-1.668148 0.54846305 -0.061264317 234 88 12
-1.6905938 0.55091941 -0.069306314 234 88 12
-1.6751354 0.53991354 -0.06628567 234 88 12
-1.9475206 0.73332936 -0.18763225 234 88 12
-2.0659668 0.81711787 -0.24035129 234 88 12
-1.6699871 0.56801754 -0.072728686 234 88 12
-1.702966 0.58188236 -0.085821629 234 88 12
-1.6704199 0.53665721 -0.068165421 234 88 12
-1.6958451 0.55053949 -0.078738853 234 88 12
-1.6556486 0.56742525 -0.071817391 234 88 12
-1.6676831 0.56657016 -0.075663261 234 88 12
-1.6688627 0.5628981 -0.075507633 234 88 12
-1.6704032 0.55947167 -0.075507633 234 88 12
-1.6921693 0.5701561 -0.084278643 234 88 12
-1.7802794 0.61202192 -0.11957839 234 88 12
-1.7015018 0.59397531 -0.094636463 234 88 12
-1.694209 0.58474177 -0.090901867 234 88 12
-1.6645315 0.54645616 -0.07560008 234 88 12
-1.670145 0.53674608 -0.076007314 234 88 12
-1.6757228 0.53620887 -0.077748716 234 88 12
-2.048224 0.80435306 -0.23864822 234 88 12
-2.007447 0.79796743 -0.2266399 234 88 12
-1.7367052 0.60968482 -0.1120069 234 88 12
-1.7785103 0.63449782 -0.12908959 234 88 12
-2.0556686 0.82389134 -0.24595334 234 88 12
-2.0313091 0.80445302 -0.23527719 234 88 12
-1.9217618 0.72434688 -0.18832555 234 88 12
-1.7176641 0.57541049 -0.10089473 234 88 12
-1.8110752 0.63463569 -0.13961349 234 88 12
-2.0567818 0.81069511 -0.24439874 234 88 12
-2.0593739 0.82654113 -0.24952102 234 88 12
-2.0609827 0.82323068 -0.25352776 234 88 12
-2.0625448 0.81975615 -0.25352776 234 88 12
-1.9250389 -0.90695333 -0.70035827 234 88 12
-1.7839246 -0.90069026 -0.60406566 234 88 12
-1.7563189 -0.90335751 -0.58579057 234 88 12
-1.9257265 -0.9031409 -0.70212841 234 88 12
-1.9230355 -0.9102689 -0.70212841 234 88 12
-1.4871255 -0.89187908 -0.40241361 234 88 12
-1.4844128 -0.89542669 -0.40147707 234 88 12
-1.4871088 -0.90249622 -0.40513566 234 88 12
-1.6373577 -0.90433437 -0.50806916 234 88 12
-1.6256268 -0.90742469 -0.50086504 234 88 12
-1.9230503 -0.90823847 -0.70389861 234 88 12
-1.489013 -0.88785309 -0.40720066 234 88 12
-1.5654194 -0.90467769 -0.46321368 234 88 12
-1.9041387 -0.90293926 -0.69202358 234 88 12
-1.684602 -0.90885007 -0.54494572 234 88 12
-1.5315367 -0.91070908 -0.45032921 234 88 12
-1.4922876 -0.88645101 -0.42253518 234 88 12
-1.4816059 -0.89699531 -0.41810191 234 88 12
-1.4891359 -0.88946992 -0.42567623 234 88 12
-1.5984753 -0.9025718 -0.50071126 234 88 12
-1.5704236 -0.88644284 -0.48235035 234 88 12
-1.9074982 -0.89789563 -0.70478159 234 88 12
-1.5037383 -0.88517487 -0.44296849 234 88 12
-1.9199662 -0.89401096 -0.71422529 234 88 12
-1.921326 -0.89759129 -0.71597832 234 88 12
-1.917099 -0.91006362 -0.71628976 234 88 12
-1.7216299 -0.89015669 -0.58832163 234 88 12
-0.62430763 -2.0715902 -0.60653943 234 88 12
-0.62252563 -2.072263 -0.60653943 234 88 12
-0.47750884 -1.8984498 -0.39149323 234 88 12
-0.6253444 -2.0689435 -0.6118499 234 88 12
-0.61643445 -2.0723073 -0.6118499 234 88 12
-0.4984082 -1.917604 -0.42154735 234 88 12
-0.45350701 -1.8705887 -0.35965487 234 88 12
-0.37107164 -1.7600714 -0.22757347 234 88 12
-0.48610303 -1.9029243 -0.40667409 234 88 12
-0.61402953 -2.052618 -0.59703261 234 88 12
-0.37208945 -1.7550293 -0.22806984 234 88 12
-0.56212497 -1.9897261 -0.52083182 234 88 12
-0.37542367 -1.7527004 -0.2320105 234 88 12
-0.43921506 -1.8478308 -0.34517878 234 88 12
-0.61009485 -2.0716937 -0.61893058 234 88 12
-0.36436072 -1.7609594 -0.24080586 234 88 12
-0.3744328 -1.7500758 -0.23907161 234 88 12
-0.36771327 -1.7532158 -0.2396369 234 88 12
-0.40826175 -1.8108617 -0.30801061 234 88 12
-0.58215022 -2.0172942 -0.56585962 234 88 12
-0.36889938 -1.7640038 -0.25986081 234 88 12
-0.37937292 -1.7864697 -0.28430521 234 88 12
-0.60968035 -2.0509548 -0.60946035 234 88 12
-0.35551795 -1.7532406 -0.25014299 234 88 12
-0.37334952 -1.7789065 -0.27992514 234 88 12
-0.6106348 -2.0677311 -0.62778139 234 88 12
-0.41578284 -1.8265169 -0.34274468 234 88 12
-0.59142965 -2.0295601 -0.58875352 234 88 12
-0.60816652 -2.0512505 -0.61433494 234 88 12
-0.61678165 -2.0635688 -0.62855619 234 88 12
-0.35290489 -1.7541584 -0.25985652 234 88 12
-0.48973006 -1.9181149 -0.45550445 234 88 12
-0.33858147 -1.7593203 -0.25963354 234 88 12
-0.34081978 -1.7557769 -0.26206425 234 88 12
1.9037032 -1.0657814 0.53776306 234 88 12
1.6534864 -1.0371239 0.59276581 234 88 12
1.3665481 -1.0089673 0.65539825 234 88 12
1.3629254 -0.99784052 0.65720135 234 88 12
1.9024068 -1.0693753 0.53588074 234 88 12
1.5065018 -1.0246956 0.62153232 234 88 12
1.5291951 -1.0235963 0.61696166 234 88 12
1.3628942 -0.99802333 0.65356976 234 88 12
1.8746594 -1.0543674 0.54105645 234 88 12
1.3968905 -1.0085522 0.64209282 234 88 12
1.3835328 -0.99668449 0.64588261 234 88 12
1.7111213 -1.0400075 0.57305324 234 88 12
1.3797578 -0.98209691 0.64437926 234 88 12
1.6141031 -1.0315753 0.59038252 234 88 12
1.7387106 -1.040207 0.5651474 234 88 12
1.4202245 -1.0042071 0.63087696 234 88 12
1.3909007 -0.99424899 0.63751543 234 88 12
1.3754858 -0.98902768 0.64100397 234 88 12
1.8973279 -1.054823 0.53084379 234 88 12
1.4513338 -1.0107585 0.62085021 234 88 12
1.3699687 -0.99585551 0.63786685 234 88 12
1.3736782 -0.98175281 0.63837528 234 88 12
1.9084216 -1.0595491 0.52646899 234 88 12
1.4212304 -1.0046593 0.62375045 234 88 12
1.3880659 -0.97997761 0.63216239 234 88 12
1.8331437 -1.0491762 0.53958511 234 88 12
1.4652004 -1.0124127 0.61143208 234 88 12
1.5680777 -1.0191693 0.59163952 234 88 12
1.503402 -1.0096892 0.60452205 234 88 12
1.6199414 -1.0186598 0.58199048 234 88 12
1.5166075 -1.0047474 0.60246956 234 88 12
1.402023 -0.98888946 0.62521446 234 88 12
1.5180309 -0.99859953 0.60272008 234 88 12
1.7818365 -1.0423898 0.54749095 234 88 12
1.6803582 -1.0302615 0.56713295 234 88 12
1.6814692 -1.0277904 0.56713295 234 88 12
1.8448145 -1.0401518 0.53610742 234 88 12
1.9045323 -1.070331 0.52082193 234 88 12
1.9084376 -1.0616447 0.52082193 234 88 12
1.9066436 -1.0578768 0.52145153 234 88 12
1.9094309 -1.0526751 0.52137053 234 88 12
1.3697948 -0.98931926 0.62391722 234 88 12
1.5888011 -1.0302547 0.57817376 234 88 12
1.3694023 -1.0148879 0.6146841 234 88 12
1.3709495 -1.0114467 0.6146841 234 88 12
1.3743116 -0.99739814 0.61519849 234 88 12
1.7647908 -0.29663917 0.29851851 234 88 12
1.7667643 -0.29183874 0.29759637 234 88 12
1.765341 -0.30021033 0.29451743 234 88 12
1.7808821 -0.28908631 0.28792423 234 88 12
1.767168 -0.27996472 0.29331687 234 88 12
2.2431049 -0.079702415 0.092623562 234 88 12
1.8129364 -0.27035409 0.26709881 234 88 12
2.2431655 -0.08351437 0.088816956 234 88 12
1.8412472 -0.26439163 0.25208721 234 88 12
1.767455 -0.28740498 0.28184122 234 88 12
1.7656145 -0.28048769 0.28241983 234 88 12
2.2302301 -0.083753012 0.09196648 234 88 12
2.2032568 -0.094412073 0.10278358 234 88 12
1.8832661 -0.24120417 0.23154858 234 88 12
1.8830832 -0.23788226 0.23154858 234 88 12
1.7971292 -0.27002549 0.26597926 234 88 12
1.7646637 -0.2653459 0.2786206 234 88 12
2.2316628 -0.083042972 0.089411967 234 88 12
2.0391853 -0.16860625 0.16603419 234 88 12
1.9790993 -0.1935451 0.18991564 234 88 12
2.0777724 -0.14541878 0.15054424 234 88 12
2.2029641 -0.083969094 0.10058343 234 88 12
1.7746069 -0.27249348 0.27106518 234 88 12
2.1643291 -0.10807861 0.11386643 234 88 12
2.2321606 -0.072816856 0.087027565 234 88 12
1.8069447 -0.26175493 0.2545926 234 88 12
1.9608049 -0.19879779 0.19101484 234 88 12
1.875881 -0.23418023 0.22409117 234 88 12
1.7666829 -0.27977479 0.26662388 234 88 12
2.24227 -0.07402543 0.079300433 234 88 12
2.0729485 -0.14750285 0.14463134 234 88 12
1.8244855 -0.25740692 0.24054134 234 88 12
1.8961544 -0.23159312 0.20967983 234 88 12
1.7693964 -0.28616145 0.25807154 234 88 12
2.2426748 -0.085449018 0.073590524 234 88 12
1.4318311 0.98342055 0.41701749 234 88 12
1.428278 0.98446286 0.41740662 234 88 12
1.4277517 1.0064597 0.41407883 234 88 12
1.4325765 0.98466957 0.41298416 234 88 12
1.4162799 1.000391 0.41307184 234 88 12
1.4362518 1.0218399 0.40313947 234 88 12
1.4625708 1.0265919 0.39140099 234 88 12
1.4369603 0.98473394 0.40115657 234 88 12
1.429253 0.9933632 0.4010233 234 88 12
1.4432312 1.0344211 0.3930653 234 88 12
1.4215574 1.001985 0.40088937 234 88 12
1.4248754 1.0155457 0.3984488 234 88 12
1.4118499 1.0069796 0.40157083 234 88 12
1.6810426 1.4507277 0.2966108 234 88 12
1.4602028 1.0293231 0.38780448 234 88 12
1.5385444 1.1863824 0.35437939 234 88 12
1.4956466 1.1112236 0.37114254 234 88 12
1.4551879 1.0419203 0.38672787 234 88 12
1.6466877 1.4059974 0.30784026 234 88 12
1.6406419 1.3990825 0.30968055 234 88 12
1.6753995 1.4437096 0.29650241 234 88 12
1.5433258 1.1953801 0.34952599 234 88 12
1.6621746 1.4265896 0.30073214 234 88 12
1.6631244 1.4324852 0.29977795 234 88 12
1.6663576 1.4465219 0.29737076 234 88 12
1.5234754 1.1885053 0.35325116 234 88 12
1.5425045 1.2174767 0.34371746 234 88 12
1.626231 1.3721613 0.30888423 234 88 12
1.4152184 1.0049239 0.38647076 234 88 12
0.21631733 1.7686005 0.1517044 234 88 12
0.21450554 1.7408308 0.15927568 234 88 12
0.23403256 1.7307669 0.15788409 234 88 12
0.20745333 1.733022 0.15767197 234 88 12
0.22097901 1.754089 0.14808613 234 88 12
0.21805917 1.7427551 0.14733145 234 88 12
0.2377892 1.7302186 0.14647748 234 88 12
0.20740977 1.7329067 0.14621721 234 88 12
0.21960698 1.8615627 0.10976292 234 88 12
0.21869275 1.8309005 0.11751133 234 88 12
0.19209945 2.147732 0.037947644 234 88 12
0.18509455 2.217083 0.020548444 234 88 12
0.19498748 2.1910651 0.024921527 234 88 12
0.19237542 2.1983566 0.02314594 234 88 12
0.18657123 2.2230995 0.017078772 234 88 12
0.20167883 1.9347432 0.088504463 234 88 12
0.20408013 1.847293 0.1101956 234 88 12
0.18449146 2.2255037 0.014588104 234 88 12
0.2071009 1.7373686 0.13365433 234 88 12
-1.0660198 1.3260589 -0.40141115 234 88 12
-1.0541325 1.3219765 -0.40058047 234 88 12
-1.0855569 1.3622109 -0.42491987 234 88 12
-1.0698509 1.311358 -0.40104073 234 88 12
-1.3187051 1.6909095 -0.6170038 234 88 12
-1.049149 1.3282353 -0.40569732 234 88 12
-1.0596315 1.3302473 -0.40943283 234 88 12
-1.0596204 1.323476 -0.40687442 234 88 12
-1.0682627 1.3090476 -0.40388343 234 88 12
-1.0523779 1.3263503 -0.41005093 234 88 12
-1.2576628 1.5945519 -0.56800193 234 88 12
-1.0725236 1.3624848 -0.43316984 234 88 12
-1.0569452 1.3331656 -0.41798231 234 88 12
-1.2972643 1.6572746 -0.6048364 234 88 12
-1.0599498 1.3442445 -0.42695996 234 88 12
-1.1637259 1.4902811 -0.50908273 234 88 12
-1.1128795 1.4095706 -0.46548989 234 88 12
-1.2814234 1.655875 -0.60220987 234 88 12
-1.2950598 1.6726675 -0.61212265 234 88 12
-1.2665304 1.6255157 -0.58697945 234 88 12
-1.0960488 1.3591901 -0.44238892 234 88 12
-1.3058249 1.6709019 -0.61444354 234 88 12
-1.0662335 1.3470163 -0.43371189 234 88 12
-1.2220837 1.5716665 -0.55775732 234 88 12
-1.310753 1.6929908 -0.62597775 234 88 12
-1.1515838 1.4447292 -0.4924601 234 88 12
-1.1351426 1.4134563 -0.47662637 234 88 12
-1.1709268 1.4634317 -0.50452542 234 88 12
-1.3125132 1.6815639 -0.62231255 234 88 12
-1.3068855 1.6941106 -0.62741101 234 88 12
-1.3132083 1.6899395 -0.62969685 234 88 12
-1.5039963 0.022832669 -0.89614427 234 88 12
-1.5062536 0.019887779 -0.89769179 234 88 12
-1.6254612 0.071566314 -1.0092576 234 88 12
-1.8569576 0.18561333 -1.227886 234 88 12
-1.5032682 0.011015587 -0.89884853 234 88 12
-1.6281922 0.070185296 -1.0155981 234 88 12
-1.5063806 0.0092547452 -0.90628964 234 88 12
-1.5268364 0.043605268 -0.93355751 234 88 12
-1.5048054 0.0091835195 -0.90990114 234 88 12
-1.5038232 0.0374153 -0.91796231 234 88 12
-1.5026802 0.028905666 -0.91580468 234 88 12
-1.5475729 0.027640501 -0.95366484 234 88 12
-1.4905281 0.035930488 -0.91147369 234 88 12
-1.6953493 0.11793946 -1.0950686 234 88 12
-1.7251105 0.12672739 -1.1213117 234 88 12
-1.5409298 0.032554608 -0.95338535 234 88 12
-1.8479619 0.18085162 -1.2321161 234 88 12
-1.5033327 0.034484722 -0.92691457 234 88 12
-1.822679 0.17716594 -1.2130232 234 88 12
-1.7113645 0.12046707 -1.1123358 234 88 12
-1.5124513 0.043265905 -0.94051176 234 88 12
-1.8484617 0.18999058 -1.2387861 234 88 12
-1.8491226 0.18625163 -1.2388227 234 88 12
-1.8503625 0.17873414 -1.2388227 234 88 12
-1.8482126 0.17837954 -1.2419475 234 88 12
-1.1173545 -1.3342006 -1.4109462 234 88 12
-0.82924932 -1.2458446 -0.96665227 234 88 12
-0.96040642 -1.2884047 -1.1749902 234 88 12
-1.1073053 -1.3301739 -1.4012586 234 88 12
-0.83398747 -1.2389922 -0.97127938 234 88 12
-0.84482199 -1.252334 -1.0000427 234 88 12
-0.83021605 -1.2365787 -0.97107244 234 88 12
-0.81920642 -1.2540888 -0.97874475 234 88 12
-1.1082902 -1.3359118 -1.416515 234 88 12
-0.83273417 -1.2347937 -0.98602074 234 88 12
-1.0876426 -1.3201531 -1.3812802 234 88 12
-0.91964859 -1.2757258 -1.1345289 234 88 12
-1.1024122 -1.3381145 -1.4193008 234 88 12
-0.96965843 -1.2834203 -1.2067932 234 88 12
-0.99711812 -1.2937713 -1.2503668 234 88 12
-0.81727695 -1.2380297 -0.98586249 234 88 12
-0.81710035 -1.2332132 -0.98711795 234 88 12
-1.1012063 -1.3219267 -1.4100034 234 88 12
-1.106359 -1.3251605 -1.4195162 234 88 12
-0.8307935 -1.2360654 -1.0126357 234 88 12
-1.0920707 -1.3186041 -1.3995507 234 88 12
-0.99396902 -1.2892468 -1.260886 234 88 12
-1.099596 -1.3236681 -1.4172505 234 88 12
-0.93685389 -1.2806326 -1.1874989 234 88 12
-0.81057119 -1.237798 -1.0054654 234 88 12
1.6798728 -1.4224344 -0.45014659 234 88 12
1.6855987 -1.4148241 -0.45014659 234 88 12
1.6831902 -1.4039329 -0.44205055 234 88 12
1.668161 -1.3936398 -0.42466134 234 88 12
1.4156765 -1.2857392 -0.1698828 234 88 12
1.3206908 -1.2419777 -0.07221368 234 88 12
1.6839885 -1.4159962 -0.45196024 234 88 12
1.6603519 -1.4030105 -0.42660895 234 88 12
1.67711 -1.4013124 -0.43835649 234 88 12
1.3855851 -1.2764596 -0.14584264 234 88 12
1.3210837 -1.2458079 -0.079393931 234 88 12
1.4554149 -1.3272623 -0.23158897 234 88 12
1.3341419 -1.2775996 -0.11194798 234 88 12
1.309269 -1.2641907 -0.085580982 234 88 12
1.3082558 -1.2520627 -0.07793504 234 88 12
1.4019943 -1.3067234 -0.18370619 234 88 12
1.3185525 -1.2712831 -0.10118193 234 88 12
1.2932982 -1.2728988 -0.087839097 234 88 12
1.293064 -1.2650567 -0.083269909 234 88 12
1.2994272 -1.2593559 -0.089494012 234 88 12
1.2897091 -1.266989 -0.091236226 234 88 12
1.6911719 0.50761443 -0.3432577 234 88 12
1.6796464 0.49984622 -0.33378389 234 88 12
1.691775 0.5037213 -0.3467752 234 88 12
1.6760441 0.50713682 -0.33833203 234 88 12
1.6792979 0.51601166 -0.34307814 234 88 12
1.7127736 0.52337438 -0.369847 234 88 12
1.7543659 0.57674408 -0.41527545 234 88 12
1.6798906 0.49686918 -0.34630346 234 88 12
1.6907185 0.51958507 -0.35975417 234 88 12
1.6677859 0.51522857 -0.34475559 234 88 12
1.6707604 0.52367061 -0.34912944 234 88 12
1.9699296 0.82100493 -0.62124258 234 88 12
1.8139892 0.64552546 -0.47542256 234 88 12
1.7576793 0.58580416 -0.42388198 234 88 12
1.7020236 0.53792703 -0.37635115 234 88 12
1.6830755 0.52212161 -0.36032042 234 88 12
1.9811642 0.8316083 -0.63334417 234 88 12
1.8743494 0.71861792 -0.53642499 234 88 12
1.8098594 0.64969486 -0.47769573 234 88 12
1.964287 0.82612127 -0.62178403 234 88 12
1.9284314 0.78919798 -0.58955532 234 88 12
1.9444804 0.80988908 -0.60524487 234 88 12
1.6903306 0.53582203 -0.37305486 234 88 12
1.9725882 0.83572668 -0.63180906 234 88 12
1.9511958 0.81761992 -0.61391193 234 88 12
1.6951181 0.54165655 -0.38184083 234 88 12
1.7944593 0.64194959 -0.47333837 234 88 12
1.7515664 0.59912831 -0.43578801 234 88 12
1.666894 0.51157159 -0.36075786 234 88 12
1.8140805 0.66413426 -0.49464545 234 88 12
1.7376053 0.58440185 -0.42721966 234 88 12
1.9800749 0.82675445 -0.64231461 234 88 12
1.9756961 0.83521193 -0.64231461 234 88 12
0.97900569 1.4021657 -0.4221366 234 88 12
0.97462869 1.3995464 -0.41968596 234 88 12
0.96447933 1.4058599 -0.42450148 234 88 12
0.98401147 1.3940365 -0.42793003 234 88 12
0.9716388 1.4209369 -0.4380337 234 88 12
0.95357722 1.4090687 -0.42757273 234 88 12
0.97040635 1.4016695 -0.43248492 234 88 12
0.96499884 1.4103887 -0.43537775 234 88 12
0.98261076 1.3907443 -0.43450576 234 88 12
1.0225695 1.5826499 -0.53748626 234 88 12
0.97947568 1.42545 -0.45053092 234 88 12
0.99086612 1.4880103 -0.48369178 234 88 12
0.95143342 1.4030955 -0.43266961 234 88 12
1.0639462 1.7745246 -0.64324588 234 88 12
1.0599774 1.766884 -0.63859087 234 88 12
1.0678751 1.8088001 -0.66067898 234 88 12
1.0045855 1.5714555 -0.53099161 234 88 12
0.95812953 1.4005265 -0.43737662 234 88 12
1.0763035 1.8199894 -0.67035663 234 88 12
1.0759387 1.8268315 -0.67352259 234 88 12
1.074528 1.8370657 -0.67804515 234 88 12
1.0726173 1.8370538 -0.67756873 234 88 12
0.98682702 1.5013573 -0.49668795 234 88 12
1.0341234 1.6811472 -0.59678239 234 88 12
1.0058951 1.5786396 -0.54154646 234 88 12
0.95385718 1.4010593 -0.44509205 234 88 12
1.0781999 1.8318802 -0.68716687 234 88 12
-0.13471821 1.5483366 -0.80543792 234 88 12
-0.13643147 1.5385424 -0.79902601 234 88 12
-0.11414079 1.5416099 -0.80365437 234 88 12
-0.12131192 1.5392612 -0.80272299 234 88 12
-0.13033821 1.5450798 -0.80738324 234 88 12
-0.13202861 1.535334 -0.80105364 234 88 12
-0.13976599 1.5353589 -0.80174965 234 88 12
-0.11282935 1.5353605 -0.80394578 234 88 12
-0.135904 1.5346498 -0.80548704 234 88 12
-0.11490212 1.5430533 -0.8136946 234 88 12
-0.1246343 1.5353191 -0.80947828 234 88 12
-0.11286983 1.5338253 -0.81201291 234 88 12
-0.14505379 1.6388179 -0.88285404 234 88 12
-0.17571534 1.7459902 -0.95497823 234 88 12
-0.14814863 1.6068535 -0.86239141 234 88 12
-0.20893359 1.9214591 -1.07397 234 88 12
-0.20900974 1.9130915 -1.0685953 234 88 12
-0.20851551 1.9018841 -1.0613458 234 88 12
-0.20693944 1.8853647 -1.0505881 234 88 12
-0.21892473 1.9302338 -1.080462 234 88 12
-0.15524435 1.623016 -0.87747908 234 88 12
-0.1705426 1.6940368 -0.92804354 234 88 12
-0.14916709 1.5769501 -0.8515687 234 88 12
-0.22745225 1.9332078 -1.0853733 234 88 12
-0.21425495 1.9344264 -1.0895623 234 88 12
-0.22369671 1.933179 -1.0895623 234 88 12
-0.89551705 0.78784257 -1.2718794 234 88 12
-0.89986575 0.77494699 -1.2655933 234 88 12
-0.88681781 0.78327805 -1.2677298 234 88 12
-0.8944608 0.77463615 -1.2669265 234 88 12
-0.90041715 0.77001911 -1.2678353 234 88 12
-0.87862808 0.79163802 -1.2733378 234 88 12
-0.88795322 0.79131144 -1.2797128 234 88 12
-0.89352083 0.77399254 -1.2712048 234 88 12
-1.1099846 1.0515029 -1.6242011 234 88 12
-1.1103717 1.0491822 -1.6255127 234 88 12
-0.87068677 0.78868049 -1.2763724 234 88 12
-1.0420184 0.99490225 -1.5420365 234 88 12
-0.88376731 0.7869724 -1.2842942 234 88 12
-0.89563376 0.79013622 -1.2948191 234 88 12
-0.96406823 0.87362468 -1.4017242 234 88 12
-0.9170512 0.80630666 -1.3212234 234 88 12
-0.87671947 0.79056603 -1.2872097 234 88 12
-0.93311346 0.85515219 -1.3716763 234 88 12
-0.88848466 0.79341811 -1.2973654 234 88 12
-1.0942822 1.0506226 -1.6207278 234 88 12
-1.1016498 1.0539005 -1.6281362 234 88 12
-0.97642612 0.88531351 -1.4228835 234 88 12
-0.91777349 0.80197513 -1.3236716 234 88 12
-0.81236595 -0.3566471 -1.5160093 234 88 12
-0.81264043 -0.3600587 -1.5175067 234 88 12
-1.0310818 -0.26341051 -1.9645849 234 88 12
-1.0203477 -0.26945788 -1.9477005 234 88 12
-1.0287119 -0.26887736 -1.9654671 234 88 12
-0.80458021 -0.35634166 -1.5172461 234 88 12
-0.80396956 -0.36017415 -1.516946 234 88 12
-0.80497497 -0.37031883 -1.5217124 234 88 12
-1.027499 -0.26489094 -1.9663491 234 88 12
-1.0270362 -0.26867226 -1.9663491 234 88 12
-0.80319607 -0.3515161 -1.5219659 234 88 12
-0.84414601 -0.33188719 -1.6109056 234 88 12
-0.8176043 -0.35022372 -1.5603721 234 88 12
-0.80954123 -0.35730904 -1.5454062 234 88 12
-1.0246104 -0.26069942 -1.9681132 234 88 12
-1.0234532 -0.27015269 -1.9681132 234 88 12
-0.80832446 -0.34217015 -1.5475738 234 88 12
-0.79903114 -0.34254032 -1.545603 234 88 12
-0.79334515 -0.34843209 -1.5355735 234 88 12
-1.0123457 -0.25782162 -1.9555793 234 88 12
-0.78574187 -0.34625915 -1.5282677 234 88 12
-0.88934404 -0.30648714 -1.7258197 234 88 12
-0.78657347 -0.34769514 -1.5387259 234 88 12
-0.068431571 -1.2097224 -1.8843188 234 88 12
-0.058773205 -1.2092037 -1.8852009 234 88 12
-0.069912009 -1.2061394 -1.8860829 234 88 12
-0.058568098 -1.207528 -1.8860829 234 88 12
0.0094453534 -1.148093 -1.3692095 234 88 12
0.0071195695 -1.1436213 -1.3643281 234 88 12
-0.06030491 -1.1982415 -1.8713021 234 88 12
0.015224827 -1.1410931 -1.3650334 234 88 12
0.016832057 -1.1429726 -1.378238 234 88 12
-0.030653186 -1.1761847 -1.6844624 234 88 12
0.044888902 -1.1450486 -1.367581 234 88 12
-0.026621966 -1.1713948 -1.6633735 234 88 12
-0.056785114 -1.1927906 -1.8550743 234 88 12
-0.016202951 -1.176693 -1.6941135 234 88 12
-0.05254671 -1.1883557 -1.8326684 234 88 12
-0.056234423 -1.1923313 -1.8656291 234 88 12
0.036159262 -1.1439624 -1.4213095 234 88 12
0.012402602 -1.1308223 -1.3720773 234 88 12
0.016635178 -1.13094 -1.3691716 234 88 12
0.02091586 -1.1341209 -1.3884573 234 88 12
-0.054903708 -1.1898365 -1.8602337 234 88 12
-0.056734841 -1.1925514 -1.8815668 234 88 12
0.045967385 -1.1351405 -1.3736016 234 88 12
0.0097499313 -1.141854 -1.4782006 234 88 12
-0.041843779 -1.1793863 -1.788656 234 88 12
0.010703024 -1.1465194 -1.5104077 234 88 12
0.03799431 -1.1342617 -1.3999664 234 88 12
0.046981778 -1.131438 -1.3721845 234 88 12
0.031702124 -1.1266812 -1.3774171 234 88 12
1.1676196 -1.253857 -1.4497464 234 88 12
1.1626246 -1.2569572 -1.451058 234 88 12
1.167973 -1.2515309 -1.451058 234 88 12
1.0073543 -1.1712604 -0.93020916 234 88 12
1.1054622 -1.2117009 -1.2409843 234 88 12
1.0172037 -1.1630911 -0.94511199 234 88 12
1.1623478 -1.2513354 -1.4549931 234 88 12
1.1684105 -1.2403038 -1.4446491 234 88 12
1.1163769 -1.2134111 -1.2757756 234 88 12
1.0120392 -1.1596018 -0.93739569 234 88 12
1.010085 -1.1576756 -0.94000173 234 88 12
1.0142857 -1.1517096 -0.93642741 234 88 12
1.167541 -1.2368333 -1.4466187 234 88 12
1.1644478 -1.233238 -1.4326414 234 88 12
1.1567107 -1.2414811 -1.43906 234 88 12
1.1609452 -1.2352219 -1.4350269 234 88 12
1.0492064 -1.1752775 -1.0789778 234 88 12
1.0572259 -1.2009519 -1.1569202 234 88 12
1.0985452 -1.2157583 -1.2722714 234 88 12
0.99855584 -1.1687509 -0.97040206 234 88 12
0.99475527 -1.1632046 -0.9512831 234 88 12
1.0494941 -1.1848023 -1.1081295 234 88 12
1.0738742 -1.1931014 -1.1753023 234 88 12
1.113369 -1.2093195 -1.2897604 234 88 12
0.97677594 -1.1773438 -0.95346653 234 88 12
1.0242105 -1.1860548 -1.0678655 234 88 12
1.0019702 -1.1729546 -0.99608046 234 88 12
0.99209082 -1.1609566 -0.95175636 234 88 12
0.99919236 -1.1603519 -0.96504092 234 88 12
1.0043058 -1.1588941 -0.97254866 234 88 12
1.0330263 -1.1691177 -1.0517769 234 88 12
0.98514324 -1.1645523 -0.95525736 234 88 12
0.987486 -1.1617246 -0.95435899 234 88 12
0.97989076 -1.1650387 -0.95599979 234 88 12
0.98122603 -1.1617614 -0.95220751 234 88 12
0.97974759 -1.1600432 -0.95619667 234 88 12
1.6370525 -0.53990132 -0.53056169 234 88 12
1.6393948 -0.53555083 -0.53270704 234 88 12
1.649717 -0.52872372 -0.54414129 234 88 12
1.6408399 -0.52069348 -0.53207868 234 88 12
1.6375911 -0.52085584 -0.53376746 234 88 12
1.646425 -0.51466364 -0.54343116 234 88 12
1.6343398 -0.53907686 -0.53833163 234 88 12
1.6697973 -0.52429056 -0.57844985 234 88 12
1.6702695 -0.52071595 -0.57844985 234 88 12
1.6371704 -0.5273912 -0.53987235 234 88 12
1.6357198 -0.5206086 -0.53706235 234 88 12
1.9874654 -0.43452781 -0.94742745 234 88 12
1.9879644 -0.43075109 -0.94742745 234 88 12
1.959259 -0.43644574 -0.91418302 234 88 12
1.865831 -0.46432084 -0.8074488 234 88 12
1.6680202 -0.52405578 -0.58157843 234 88 12
1.6684926 -0.52048117 -0.58157843 234 88 12
1.7214814 -0.50093257 -0.64152658 234 88 12
1.6525952 -0.51836967 -0.56233984 234 88 12
1.8419209 -0.47135994 -0.78403509 234 88 12
1.7909398 -0.48477933 -0.72590917 234 88 12
1.6502901 -0.52179235 -0.56554604 234 88 12
1.7853568 -0.4780246 -0.71826017 234 88 12
1.7712502 -0.47931492 -0.7017985 234 88 12
1.9795909 -0.4271341 -0.94258964 234 88 12
1.9679239 -0.42319509 -0.92829138 234 88 12
1.9158609 -0.43647313 -0.86926925 234 88 12
1.6362615 -0.52086294 -0.55978698 234 88 12
1.664923 -0.5150488 -0.5975005 234 88 12
1.9822729 -0.43768442 -0.9556911 234 88 12
1.9830213 -0.43201935 -0.9556911 234 88 12
1.8564487 -0.46201035 -0.81476551 234 88 12
1.6234187 -0.52305853 -0.55619621 234 88 12
1.6239165 -0.51929098 -0.55619621 234 88 12
1.9820825 -0.43189535 -0.95734382 234 88 12
1.7211702 -0.5030334 -0.67023462 234 88 12
1.6447303 -0.52303416 -0.58599299 234 88 12
1.6425629 -0.52017957 -0.58308828 234 88 12
1.6834228 -0.51717609 -0.63425827 234 88 12
1.6234074 -0.53226548 -0.56847811 234 88 12
1.6173261 -0.53691614 -0.56772685 234 88 12
1.1448272 0.7662285 -1.0919032 234 88 12
1.1431264 0.78017753 -1.1021265 234 88 12
1.1388513 0.78143084 -1.1053555 234 88 12
1.1472667 0.75897998 -1.0995233 234 88 12
1.1417258 0.77287775 -1.1063931 234 88 12
1.1467479 0.77833897 -1.1206421 234 88 12
1.1678717 0.85222256 -1.1981521 234 88 12
1.1320623 0.77926481 -1.1094164 234 88 12
1.1255959 0.77345353 -1.0993998 234 88 12
1.2754772 1.0762677 -1.4716721 234 88 12
1.2016357 0.90369421 -1.2721624 234 88 12
1.1744764 0.84641385 -1.2037959 234 88 12
1.1281335 0.77269953 -1.1065917 234 88 12
1.2493608 1.0304615 -1.4168073 234 88 12
1.2632266 1.0674714 -1.4576867 234 88 12
1.1167616 0.77560169 -1.105478 234 88 12
1.2777199 1.0797299 -1.4820508 234 88 12
1.263608 1.0552266 -1.4512579 234 88 12
1.2511123 1.0460148 -1.4339477 234 88 12
1.1143934 0.77261817 -1.1069096 234 88 12
1.1836333 0.89560169 -1.2647208 234 88 12
1.1625277 0.85011858 -1.2169137 234 88 12
1.1382798 0.80394036 -1.1616012 234 88 12
1.2665688 1.0843469 -1.4854313 234 88 12
0.069452614 0.88635111 -1.4969407 234 88 12
0.058960501 0.89977598 -1.5154368 234 88 12
0.047025442 0.88395089 -1.4950417 234 88 12
0.042688761 0.8868053 -1.4990964 234 88 12
0.073883712 0.87854052 -1.4989003 234 88 12
0.068567701 0.88518286 -1.5079159 234 88 12
0.042483184 0.95716327 -1.6038157 234 88 12
0.021815054 1.0446169 -1.7197019 234 88 12
0.04707212 0.8788206 -1.5007967 234 88 12
0.043435376 0.87783951 -1.4997172 234 88 12
0.066662185 0.89119571 -1.5219909 234 88 12
0.061725505 0.87923664 -1.5067067 234 88 12
0.055587351 0.89071417 -1.5219909 234 88 12
0.05383477 0.88073832 -1.5091076 234 88 12
0.023721861 1.018424 -1.6899941 234 88 12
0.0026315195 1.16836 -1.8894895 234 88 12
-0.0011214607 1.1675733 -1.8886845 234 88 12
0.027679717 0.9957692 -1.6652259 234 88 12
0.0056153899 1.1624091 -1.884843 234 88 12
-0.0040821172 1.1714116 -1.8969172 234 88 12
0.035583064 0.95215005 -1.6137877 234 88 12
0.047084905 0.8714748 -1.5097851 234 88 12
0.04386685 0.86819798 -1.505766 234 88 12
0.0016921093 1.1701562 -1.8980806 234 88 12
0.038139042 0.93650556 -1.5990316 234 88 12
0.040779263 0.90357578 -1.5570227 234 88 12
-0.0019394581 1.1628058 -1.9042834 234 88 12
0.1273033 -0.23750617 -1.7324741 234 88 12
0.11801859 -0.23416387 -1.7465117 234 88 12
0.13074835 -0.24065275 -1.7351756 234 88 12
0.12571654 -0.23829851 -1.7449077 234 88 12
0.1141099 -0.23003107 -1.7790841 234 88 12
0.10435019 -0.24095409 -1.73393 234 88 12
0.1103787 -0.21252017 -1.8650923 234 88 12
0.096922465 -0.19235381 -1.9471647 234 88 12
0.063560493 -0.13014768 -2.2003293 234 88 12
0.074840479 -0.1582692 -2.0858812 234 88 12
0.096422851 -0.21082284 -1.8720001 234 88 12
0.10314675 -0.23343737 -1.7799642 234 88 12
0.065212116 -0.12750427 -2.2190096 234 88 12
0.060106888 -0.12498416 -2.2291093 234 88 12
0.11066514 -0.24571411 -1.7452679 234 88 12
0.10441659 -0.24870133 -1.7332962 234 88 12
0.11477967 -0.22124198 -1.8566763 234 88 12
0.058511917 -0.12757516 -2.2264137 234 88 12
0.057529993 -0.12968625 -2.2180805 234 88 12
0.10510512 -0.24524526 -1.7619265 234 88 12
0.10687221 -0.2090978 -1.9168419 234 88 12
0.082391657 -0.19513814 -1.9711294 234 88 12
0.099987336 -0.25468472 -1.7395594 234 88 12
0.10753355 -0.25845784 -1.7395594 234 88 12
0.063809521 -0.13428572 -2.23 234 88 12
0.058095239 -0.13428572 -2.23 234 88 12
1.158476 -0.3327693 -1.3097862 234 88 12
1.158067 -0.32580435 -1.3075154 234 88 12
1.1620287 -0.31534055 -1.3187011 234 88 12
1.3096309 -0.20647533 -1.7808017 234 88 12
1.194586 -0.30003023 -1.4311576 234 88 12
1.3130388 -0.19987297 -1.7906343 234 88 12
1.3139374 -0.2106059 -1.8010156 234 88 12
1.311797 -0.20507887 -1.7936063 234 88 12
1.2248545 -0.26707935 -1.5314128 234 88 12
1.1545554 -0.31233943 -1.3187522 234 88 12
1.3014357 -0.20052208 -1.7671884 234 88 12
1.1653481 -0.30163091 -1.3622911 234 88 12
1.3106567 -0.21236983 -1.803081 234 88 12
1.2482573 -0.23960294 -1.6171263 234 88 12
1.3090577 -0.2123003 -1.8041136 234 88 12
1.3092232 -0.20849438 -1.8041136 234 88 12
1.1916839 -0.28358576 -1.4611114 234 88 12
1.1566052 -0.30687663 -1.35886 234 88 12
1.1434969 -0.31309092 -1.3203256 234 88 12
1.2863846 -0.21184549 -1.7425885 234 88 12
1.1756691 -0.29775289 -1.4354526 234 88 12
1.2032955 -0.27731997 -1.5229062 234 88 12
1.156063 -0.31044206 -1.3902336 234 88 12
1.1337442 -0.32381627 -1.3272556 234 88 12
1.1326312 -0.32098445 -1.3236738 234 88 12
1.1336133 -0.31292769 -1.3255045 234 88 12
1.1309828 -0.33431187 -1.3318167 234 88 12
1.151228 -0.31515807 -1.3874102 234 88 12
1.1305686 -0.3236782 -1.3293065 234 88 12
