ply
format ascii 1.0
element vertex 1182
property float x
property float y
property float z
property uchar red
property uchar green
property uchar blue
end_header
-1.1196544 0.16754225 1.64963 234 88 12
-1.1225947 0.17022268 1.6494113 234 88 12
-1.1227158 0.16743681 1.6494113 234 88 12
-1.1224453 0.16476141 1.6487019 234 88 12
-1.1217448 0.16219792 1.6472127 234 88 12
-1.1204916 0.15976897 1.6447212 234 88 12
-1.1204891 0.15699506 1.6444954 234 88 12
-1.1205474 0.15420392 1.6443799 234 88 12
-1.1201251 0.15152881 1.643392 234 88 12
-1.1252173 0.17298648 1.6486348 234 88 12
-1.1257395 0.17008352 1.6493675 234 88 12
-1.1257472 0.167337 1.649161 234 88 12
-1.1253828 0.1646945 1.6482739 234 88 12
-1.1247327 0.16212338 1.6468643 234 88 12
-1.1239796 0.15956795 1.6452649 234 88 12
-1.1234792 0.15693294 1.6441271 234 88 12
-1.1233754 0.1541879 1.6437141 234 88 12
-1.1231109 0.15147872 1.6430068 234 88 12
-1.122529 0.14883886 1.6417178 234 88 12
-1.1217102 0.14624241 1.6399935 234 88 12
-1.1283714 0.17283535 1.6486276 234 88 12
-1.1286974 0.1699971 1.649006 234 88 12
-1.1285093 0.16731335 1.6484368 234 88 12
-1.1281533 0.16467279 1.6475579 234 88 12
-1.1273721 0.16214325 1.6458936 234 88 12
-1.1266936 0.15957174 1.6444179 234 88 12
-1.1266274 0.1568267 1.6440716 234 88 12
-1.1264712 0.15410173 1.6435585 234 88 12
-1.1260027 0.15144953 1.6424683 234 88 12
-1.1253805 0.14882481 1.6410936 234 88 12
-1.1246096 0.14622281 1.6394428 234 88 12
-1.1239891 0.14357314 1.6380689 234 88 12
-1.1230619 0.14097787 1.636127 234 88 12
-1.1316035 0.17265598 1.6487927 234 88 12
-1.1316669 0.16990428 1.6486868 234 88 12
-1.1314149 0.16724518 1.647994 234 88 12
-1.1308619 0.16466707 1.6467407 234 88 12
-1.1301713 0.16211697 1.6452304 234 88 12
-1.1296648 0.1595038 1.6440619 234 88 12
-1.1297219 0.15673144 1.6439424 234 88 12
-1.1293905 0.15405793 1.6430987 234 88 12
-1.1288621 0.15142629 1.6418877 234 88 12
-1.1281025 0.14884013 1.6402442 234 88 12
-1.1273563 0.1462369 1.6386248 234 88 12
-1.1266384 0.1436135 1.6370572 234 88 12
-1.1258587 0.14099024 1.6353729 234 88 12
-1.1250057 0.13836797 1.6335508 234 88 12
-1.1340801 0.17543906 1.6477968 234 88 12
-1.1345289 0.17256884 1.6484127 234 88 12
-1.1344941 0.16985212 1.6481221 234 88 12
-1.1341859 0.16721463 1.6473178 234 88 12
-1.133562 0.16466215 1.6459203 234 88 12
-1.132869 0.16211739 1.644392 234 88 12
-1.1328928 0.15936263 1.6442095 234 88 12
-1.1328813 0.15661576 1.6439605 234 88 12
-1.1323698 0.1539963 1.6427711 234 88 12
-1.1315939 0.1514331 1.6410838 234 88 12
-1.1306814 0.14888884 1.6391381 234 88 12
-1.1300155 0.14627013 1.637655 234 88 12
-1.1292191 0.14366846 1.6359254 234 88 12
-1.1283278 0.14107291 1.6340159 234 88 12
-1.1273216 0.13848543 1.6318884 234 88 12
-1.1372765 0.17525688 1.6479443 234 88 12
-1.1375591 0.17244552 1.6482519 234 88 12
-1.137411 0.16976982 1.6477444 234 88 12
-1.1369451 0.16718553 1.6466347 234 88 12
-1.1363096 0.1646416 1.6452026 234 88 12
-1.1356543 0.16209126 1.643732 234 88 12
-1.1358833 0.15928341 1.6439373 234 88 12
-1.1357801 0.15656672 1.6435125 234 88 12
-1.135463 0.15390231 1.6426815 234 88 12
-1.134042 0.15151019 1.6397545 234 88 12
-1.133027 0.14899388 1.6375964 234 88 12
-1.1324067 0.14636573 1.6361867 234 88 12
-1.1317005 0.14374535 1.6346126 234 88 12
-1.1306101 0.14119652 1.6323072 234 88 12
-1.1403726 0.17510322 1.6479303 234 88 12
-1.1404945 0.17234902 1.6479343 234 88 12
-1.1403378 0.16968158 1.6474063 234 88 12
-1.1397508 0.16714031 1.6460553 234 88 12
-1.1389663 0.16464604 1.6443254 234 88 12
-1.1387018 0.16198775 1.6435891 234 88 12
-1.1388527 0.15920724 1.6436473 234 88 12
-1.1387548 0.15649472 1.6432291 234 88 12
-1.138234 0.15388994 1.6420012 234 88 12
-1.1360126 0.15170871 1.6375139 234 88 12
-1.1351547 0.14915274 1.635637 234 88 12
-1.1346593 0.14649437 1.6344533 234 88 12
-1.1339414 0.14387733 1.6328424 234 88 12
-1.1427281 0.17790271 1.6467472 234 88 12
-1.1434814 0.17494138 1.6479682 234 88 12
-1.1434005 0.17225885 1.6475822 234 88 12
-1.143196 0.16961195 1.6469572 234 88 12
-1.1425692 0.16708893 1.6455172 234 88 12
-1.1416661 0.16463609 1.643543 234 88 12
-1.1417664 0.16187604 1.6435045 234 88 12
-1.1417816 0.15913966 1.6433014 234 88 12
-1.1415571 0.15646707 1.6426355 234 88 12
-1.1409069 0.15390182 1.6411462 234 88 12
-1.1374887 0.15203589 1.6343044 234 88 12
-1.1370932 0.14935967 1.6333034 234 88 12
-1.1366671 0.14668237 1.6322428 234 88 12
-1.136075 0.14403477 1.6308601 234 88 12
-1.1459895 0.1776799 1.6470984 234 88 12
-1.1463627 0.17485109 1.6475919 234 88 12
-1.1463464 0.17215277 1.6473285 234 88 12
-1.1459459 0.16957384 1.6463169 234 88 12
-1.1452568 0.16707541 1.6447425 234 88 12
-1.144671 0.16453283 1.6433681 234 88 12
-1.1448323 0.16176058 1.6434485 234 88 12
-1.1448458 0.1590309 1.6432413 234 88 12
-1.1444341 0.15641676 1.6422042 234 88 12
-1.1436355 0.15389735 1.6404121 234 88 12
-1.1388797 0.15238886 1.6308969 234 88 12
-1.1385356 0.14969285 1.6299865 234 88 12
-1.1383986 0.14693889 1.62948 234 88 12
-1.1490266 0.17752901 1.6470438 234 88 12
-1.1492015 0.17477201 1.6471534 234 88 12
-1.1491629 0.17208578 1.6468437 234 88 12
-1.1487159 0.16952716 1.6457317 234 88 12
-1.148005 0.16704127 1.6441001 234 88 12
-1.1476939 0.16442083 1.6432533 234 88 12
-1.1478513 0.16165535 1.6433277 234 88 12
-1.147663 0.15898949 1.6427215 234 88 12
-1.1472137 0.15639104 1.6416014 234 88 12
-1.1460141 0.15398552 1.6390033 234 88 12
-1.1521982 0.17732765 1.6472821 234 88 12
-1.1523049 0.17460071 1.6472583 234 88 12
-1.1519868 0.1720136 1.6463926 234 88 12
-1.1515242 0.1694658 1.6452395 234 88 12
-1.1506947 0.16702326 1.6433579 234 88 12
-1.1506519 0.16432515 1.643036 234 88 12
-1.1507715 0.1615762 1.643036 234 88 12
-1.1505454 0.15892693 1.6423497 234 88 12
-1.1499671 0.1563706 1.6409632 234 88 12
-1.1546097 0.18007432 1.6462708 234 88 12
-1.1551781 0.17718835 1.6471698 234 88 12
-1.1551086 0.17452715 1.6467938 234 88 12
-1.1547903 0.17194551 1.6459199 234 88 12
-1.1541669 0.16945548 1.6444346 234 88 12
-1.1535218 0.16695999 1.6429046 234 88 12
-1.1536105 0.16422616 1.6428435 234 88 12
-1.153618 0.16151613 1.6426195 234 88 12
-1.1532743 0.15890636 1.6416913 234 88 12
-1.1526762 0.15636067 1.6402526 234 88 12
-1.1578115 0.17984678 1.6466229 234 88 12
-1.1582465 0.17701404 1.6472621 234 88 12
-1.1584215 0.17427592 1.6473767 234 88 12
-1.1576277 0.17186332 1.6455349 234 88 12
-1.1569163 0.16940857 1.643858 234 88 12
-1.1563447 0.1668954 1.6424625 234 88 12
-1.1564636 0.16415659 1.6424625 234 88 12
-1.1563636 0.16148384 1.6420193 234 88 12
-1.1560434 0.15887198 1.6411302 234 88 12
-1.1552024 0.15640102 1.6391863 234 88 12
-1.1609412 0.17964014 1.6468631 234 88 12
-1.1610912 0.17691469 1.6469282 234 88 12
-1.161024 0.17426497 1.6465507 234 88 12
-1.1610266 0.17158854 1.6463153 234 88 12
-1.1597131 0.16934359 1.6433955 234 88 12
-1.1592352 0.16680637 1.6421784 234 88 12
-1.1593541 0.1640726 1.6421784 234 88 12
-1.1591078 0.16144983 1.6414329 234 88 12
-1.1587089 0.15886599 1.6403751 234 88 12
-1.163209 0.18241407 1.6456062 234 88 12
-1.1638876 0.17949563 1.646759 234 88 12
-1.1638778 0.17683285 1.6464967 234 88 12
-1.1636533 0.17424287 1.6457922 234 88 12
-1.1634238 0.17164874 1.6450771 234 88 12
-1.1628362 0.16916759 1.6436243 234 88 12
-1.1622241 0.16668244 1.6421196 234 88 12
-1.1622792 0.16397461 1.641989 234 88 12
-1.1620382 0.16135651 1.6412476 234 88 12
-1.1612917 0.1588829 1.6394634 234 88 12
-1.1664413 0.18215364 1.6461102 234 88 12
-1.1668046 0.17935805 1.64662 234 88 12
-1.1667269 0.17672557 1.6462147 234 88 12
-1.1664444 0.17416182 1.6453836 234 88 12
-1.1660151 0.17164162 1.6442471 234 88 12
-1.1662647 0.16888484 1.6445204 234 88 12
-1.1663198 0.16619371 1.64439 234 88 12
-1.1650119 0.16393448 1.6414239 234 88 12
-1.1647807 0.16131802 1.6406963 234 88 12
-1.1639869 0.15886463 1.6387969 234 88 12
-1.1696135 0.18191025 1.646526 234 88 12
-1.1697839 0.17919338 1.6466372 234 88 12
-1.1696937 0.17657211 1.6462022 234 88 12
-1.1692017 0.1740898 1.6449245 234 88 12
-1.1686698 0.17161083 1.6435621 234 88 12
-1.1686772 0.16893865 1.6433303 234 88 12
-1.168795 0.16622822 1.6433303 234 88 12
-1.1687334 0.16357529 1.6429533 234 88 12
-1.1674553 0.16129841 1.6400201 234 88 12
-1.1669666 0.15875818 1.6387439 234 88 12
-1.1718154 0.1846852 1.6451739 234 88 12
-1.1724653 0.18178415 1.6463006 234 88 12
-1.1725824 0.17909218 1.6463006 234 88 12
-1.1723913 0.17651309 1.6456485 234 88 12
-1.1720057 0.17399828 1.6445838 234 88 12
-1.1713338 0.17157467 1.6429119 234 88 12
-1.1710014 0.16902176 1.6419586 234 88 12
-1.1711193 0.16631173 1.6419586 234 88 12
-1.1711067 0.16364385 1.641682 234 88 12
-1.1702182 0.16124898 1.6395471 234 88 12
-1.1698207 0.15868659 1.6384523 234 88 12
-1.1698637 0.15598439 1.6382923 234 88 12
-1.1684545 0.15369941 1.6350476 234 88 12
-1.1675431 0.15124869 1.6328578 234 88 12
-1.1750442 0.18440284 1.6457659 234 88 12
-1.1755369 0.18156932 1.6465685 234 88 12
-1.1755155 0.17893673 1.6462735 234 88 12
-1.1751117 0.17644307 1.6451607 234 88 12
-1.174634 0.17396691 1.6438894 234 88 12
-1.1741252 0.17149132 1.6425506 234 88 12
-1.1740366 0.1688606 1.6421098 234 88 12
-1.1739966 0.16621003 1.6417723 234 88 12
-1.1736852 0.16364507 1.6408538 234 88 12
-1.1730396 0.16117856 1.6392184 234 88 12
-1.1725986 0.15863559 1.6380205 234 88 12
-1.1724674 0.15599003 1.6374857 234 88 12
-1.1722234 0.15337287 1.6367087 234 88 12
-1.1706455 0.15112539 1.6330692 234 88 12
-1.1780919 0.18418637 1.6460078 234 88 12
-1.1782924 0.18147254 1.6461887 234 88 12
-1.1782956 0.17883542 1.6459442 234 88 12
-1.1778944 0.17634694 1.6448269 234 88 12
-1.1773343 0.17390715 1.6433657 234 88 12
-1.1767367 0.17146882 1.6418221 234 88 12
-1.1768197 0.16878228 1.641748 234 88 12
-1.1767497 0.16614674 1.6413431 234 88 12
-1.1765032 0.16356593 1.6405561 234 88 12
-1.1755748 0.16119666 1.6382936 234 88 12
-1.1749898 0.15870216 1.6367726 234 88 12
-1.1749104 0.15604256 1.6363448 234 88 12
-1.1745385 0.15346521 1.6352831 234 88 12
-1.1731285 0.15117434 1.6319717 234 88 12
-1.1724564 0.14865315 1.6302569 234 88 12
-1.1808558 0.18407878 1.6456652 234 88 12
-1.1811787 0.18132105 1.6461148 234 88 12
-1.1809742 0.17876974 1.6454161 234 88 12
-1.1805693 0.17628805 1.6442801 234 88 12
-1.1799728 0.17386745 1.6427253 234 88 12
-1.1795703 0.17136469 1.6415927 234 88 12
-1.1797165 0.16866125 1.641656 234 88 12
-1.1796225 0.16604002 1.6411954 234 88 12
-1.179112 0.16355304 1.6398247 234 88 12
-1.1779244 0.16127324 1.6369741 234 88 12
-1.1772881 0.15879735 1.6353259 234 88 12
-1.1772507 0.15612555 1.6349859 234 88 12
-1.1756788 0.15390483 1.6312895 234 88 12
-1.1753923 0.15128531 1.6304022 234 88 12
-1.1834065 0.1866798 1.6451313 234 88 12
-1.1840216 0.18380471 1.6462281 234 88 12
-1.184077 0.18116055 1.6460948 234 88 12
-1.1837893 0.17864841 1.6452065 234 88 12
-1.1832328 0.17623083 1.6437261 234 88 12
-1.1826023 0.17382868 1.6420815 234 88 12
-1.1824678 0.17123407 1.6415284 234 88 12
-1.1825619 0.16855453 1.6414782 234 88 12
-1.1823227 0.16598895 1.6406933 234 88 12
-1.1818129 0.16350745 1.6393111 234 88 12
-1.1794556 0.1616156 1.6338522 234 88 12
-1.1795449 0.15890557 1.6337883 234 88 12
-1.1793276 0.15628925 1.6330476 234 88 12
-1.1774658 0.15415749 1.6286744 234 88 12
-1.1864309 0.186452 1.6454086 234 88 12
-1.186799 0.18368319 1.6459688 234 88 12
-1.1868337 0.18105233 1.6457887 234 88 12
-1.1864918 0.17856731 1.6447716 234 88 12
-1.1859418 0.17615357 1.6432912 234 88 12
-1.185223 0.17379086 1.6414343 234 88 12
-1.1853056 0.17112127 1.6413589 234 88 12
-1.1853523 0.16846381 1.6412034 234 88 12
-1.1850753 0.16591719 1.640327 234 88 12
-1.1844884 0.16346788 1.6387599 234 88 12
-1.1815593 0.16177437 1.6319731 234 88 12
-1.1814888 0.15911379 1.6315521 234 88 12
-1.1894057 0.18623957 1.6456093 234 88 12
-1.1896632 0.18352218 1.6459274 234 88 12
-1.1895992 0.18093707 1.6455247 234 88 12
-1.189216 0.17847459 1.6444056 234 88 12
-1.1885731 0.17610323 1.6427022 234 88 12
-1.1880633 0.17366803 1.6412965 234 88 12
-1.1882213 0.17097618 1.6413902 234 88 12
-1.1881517 0.16836663 1.6409721 234 88 12
-1.1878062 0.16585 1.6399338 234 88 12
-1.1870382 0.16346872 1.6379437 234 88 12
-1.192312 0.18605091 1.6456881 234 88 12
-1.1925076 0.18336485 1.6458699 234 88 12
-1.1923665 0.18081734 1.6452889 234 88 12
-1.1919081 0.17839135 1.6439885 234 88 12
-1.191256 0.17603023 1.6422477 234 88 12
-1.1908354 0.17356725 1.6410304 234 88 12
-1.1909715 0.17088817 1.6410757 234 88 12
-1.190992 0.16825119 1.6408589 234 88 12
-1.1905528 0.16577441 1.6395975 234 88 12
-1.1890141 0.16366465 1.6358371 234 88 12
-1.1945958 0.18872592 1.6446375 234 88 12
-1.1954143 0.18577333 1.6462452 234 88 12
-1.195363 0.18319857 1.6458652 234 88 12
-1.1950623 0.18072325 1.6449136 234 88 12
-1.1945792 0.17831342 1.6435441 234 88 12
-1.1938909 0.17597312 1.6417031 234 88 12
-1.1939334 0.17333817 1.6415352 234 88 12
-1.19402 0.17068534 1.6414684 234 88 12
-1.1937587 0.16815883 1.6406037 234 88 12
-1.1932616 0.16570915 1.6391972 234 88 12
-1.1978673 0.1883616 1.6456087 234 88 12
-1.1982172 0.18561867 1.6461518 234 88 12
-1.1982107 0.18303099 1.6458715 234 88 12
-1.1978867 0.18057251 1.6448574 234 88 12
-1.1972761 0.17822197 1.6431795 234 88 12
-1.1966271 0.17587319 1.6414113 234 88 12
-1.196696 0.1732329 1.6413033 234 88 12
-1.1966641 0.17062974 1.6409619 234 88 12
-1.1964622 0.16808639 1.6402261 234 88 12
-1.1957674 0.16571382 1.6383477 234 88 12
-1.2007377 0.1881679 1.6456941 234 88 12
-1.2009073 0.18550883 1.6458224 234 88 12
-1.2009246 0.18291584 1.6455954 234 88 12
-1.2005827 0.18047108 1.6445295 234 88 12
-1.1999811 0.17812388 1.6428559 234 88 12
-1.1994085 0.17575173 1.6412488 234 88 12
-1.1995577 0.17308542 1.6413279 234 88 12
-1.1994643 0.17051202 1.6408396 234 88 12
-1.1991351 0.16802223 1.6397991 234 88 12
-1.1982205 0.16573583 1.6373875 234 88 12
-1.2036304 0.18795909 1.6458629 234 88 12
-1.203832 0.18529208 1.6460687 234 88 12
-1.2036639 0.18278599 1.6454029 234 88 12
-1.2032537 0.18037666 1.6441653 234 88 12
-1.2025487 0.17807893 1.6422309 234 88 12
-1.2021997 0.17562243 1.6411355 234 88 12
-1.2023149 0.17297469 1.6411355 234 88 12
-1.2021933 0.1704178 1.6405762 234 88 12
-1.2017198 0.16798821 1.6391844 234 88 12
-1.2057186 0.19068663 1.6444215 234 88 12
-1.2064894 0.1877602 1.6459842 234 88 12
-1.2066034 0.1851379 1.6459842 234 88 12
-1.2064186 0.18264547 1.6452724 234 88 12
-1.2058659 0.18030386 1.6436828 234 88 12
-1.2054001 0.17791346 1.6422994 234 88 12
-1.2049539 0.1755041 1.6409615 234 88 12
-1.2049165 0.1729219 1.6405981 234 88 12
-1.2048218 0.170359 1.6400974 234 88 12
-1.2043662 0.16792843 1.6387345 234 88 12
-1.2087001 0.19042167 1.6448526 234 88 12
-1.2091409 0.18765098 1.6456387 234 88 12
-1.2092546 0.18503302 1.6456387 234 88 12
-1.2091175 0.18252511 1.6450347 234 88 12
-1.2086524 0.18015322 1.6436398 234 88 12
-1.2081231 0.17779709 1.6420898 234 88 12
-1.207812 0.1753393 1.6410639 234 88 12
-1.2077124 0.17278865 1.6405474 234 88 12
-1.2074996 0.17027809 1.6397575 234 88 12
-1.2068087 0.16794363 1.6378126 234 88 12
-1.2050401 0.16599418 1.6332644 234 88 12
-1.2112268 0.19036458 1.644218 234 88 12
-1.2117506 0.18755732 1.6452143 234 88 12
-1.2117956 0.18497442 1.6450474 234 88 12
-1.2115965 0.18249822 1.6442866 234 88 12
-1.2112741 0.18006937 1.6432253 234 88 12
-1.2107565 0.17771481 1.6416876 234 88 12
-1.2105341 0.17522594 1.6408676 234 88 12
-1.2104591 0.17267105 1.640406 234 88 12
-1.2101685 0.17019752 1.6394185 234 88 12
-1.2095256 0.16785169 1.6375711 234 88 12
-1.2086006 0.16559702 1.635034 234 88 12
-1.2077327 0.16330138 1.6326339 234 88 12
-1.2067213 0.16103774 1.6298815 234 88 12
-1.2135346 0.19040889 1.6430622 234 88 12
-1.2139471 0.18765281 1.6437958 234 88 12
-1.2139926 0.18506993 1.6436286 234 88 12
-1.2138988 0.182548 1.6431185 234 88 12
-1.2135488 0.18013397 1.641978 234 88 12
-1.2132157 0.17770371 1.6408782 234 88 12
-1.2133298 0.17507803 1.6408782 234 88 12
-1.2131722 0.1725632 1.640209 234 88 12
-1.2128719 0.17009987 1.6391877 234 88 12
-1.212373 0.16770554 1.6376765 234 88 12
-1.2117593 0.16534276 1.6358806 234 88 12
-1.2110103 0.16301566 1.6337496 234 88 12
-1.2100375 0.16075209 1.6310642 234 88 12
-1.2158788 0.18787277 1.6417204 234 88 12
-1.2159926 0.1852562 1.6417204 234 88 12
-1.2158287 0.18276475 1.6410308 234 88 12
-1.2156805 0.18026096 1.6403795 234 88 12
-1.2159117 0.17758848 1.6406709 234 88 12
-1.2159956 0.17498037 1.640596 234 88 12
-1.2158887 0.17245016 1.6400466 234 88 12
-1.2155437 0.17001128 1.638904 234 88 12
-1.2151074 0.16759917 1.6375329 234 88 12
-1.2146312 0.16519156 1.636061 234 88 12
-1.2141056 0.16279066 1.634465 234 88 12
-1.2133768 0.16045085 1.6323605 234 88 12
-1.2106082 0.18887582 1.6212728 234 88 12
-1.2120215 0.18559347 1.6245266 234 88 12
-1.2179058 0.18034695 1.6390121 234 88 12
-1.2181593 0.17766447 1.6393627 234 88 12
-1.2182732 0.17504415 1.6393627 234 88 12
-1.2182161 0.17249489 1.6389325 234 88 12
-1.2179058 0.17004488 1.6378651 234 88 12
-1.2175548 0.1676026 1.6366942 234 88 12
-1.2171474 0.16517285 1.6353804 234 88 12
-1.2167552 0.16272706 1.6341034 234 88 12
-1.2163098 0.16029066 1.6326915 234 88 12
-1.2154617 0.15798645 1.630263 234 88 12
-1.2203414 0.17776881 1.6378911 234 88 12
-1.22043 0.17515919 1.6378264 234 88 12
-1.220331 0.1726277 1.6372851 234 88 12
-1.2200336 0.17017317 1.6362389 234 88 12
-1.2197655 0.16769871 1.6352664 234 88 12
-1.2194732 0.16522606 1.6342314 234 88 12
-1.2191535 0.16275568 1.6331255 234 88 12
-1.2187873 0.16029377 1.6319004 234 88 12
-1.2182209 0.15789419 1.6301639 234 88 12
-1.2220116 0.17294511 1.634517 234 88 12
-1.2218418 0.17043416 1.633787 234 88 12
-1.2217054 0.16790406 1.633142 234 88 12
-1.2214651 0.16540979 1.6322291 234 88 12
-1.2212654 0.16289274 1.6314201 234 88 12
-1.2209625 0.16040787 1.6303446 234 88 12
-1.2200977 0.15811846 1.6278205 234 88 12
-1.2231753 0.16570696 1.629482 234 88 12
-1.2229854 0.16318217 1.6286892 234 88 12
-1.222863 0.16062577 1.6280711 234 88 12
-1.1208472 0.15099221 1.6707512 234 88 12
-1.1403654 0.13457644 1.6515933 234 88 12
-1.1272002 0.13924488 1.6508757 234 88 12
-1.1151818 0.14524442 1.6512177 234 88 12
-1.1051786 0.153633 1.653451 234 88 12
-1.1041969 0.17281319 1.6642054 234 88 12
-1.1573241 0.13516286 1.6415491 234 88 12
-1.140371 0.13549347 1.6373943 234 88 12
-1.1277279 0.14076191 1.6371573 234 88 12
-1.1154866 0.14649731 1.6372894 234 88 12
-1.1040469 0.15318303 1.6381683 234 88 12
-1.0986605 0.16710021 1.6447188 234 88 12
-1.2259647 0.15458471 1.6552584 234 88 12
-1.1987729 0.14372417 1.6421976 234 88 12
-1.1835071 0.14618902 1.6397091 234 88 12
-1.1585201 0.13745402 1.6284117 234 88 12
-1.1414055 0.13759901 1.6241404 234 88 12
-1.1285795 0.14265594 1.623739 234 88 12
-1.1163383 0.14839144 1.6238703 234 88 12
-1.1051203 0.15533996 1.6249479 234 88 12
-1.1026345 0.17271994 1.6341484 234 88 12
-1.2398521 0.15135239 1.6420257 234 88 12
-1.2256869 0.15522651 1.6406246 234 88 12
-1.1984479 0.14429682 1.6276071 234 88 12
-1.1843011 0.14802478 1.6261286 234 88 12
-1.1710087 0.15270437 1.6254003 234 88 12
-1.144317 0.14187537 1.6125776 234 88 12
-1.1303848 0.14566141 1.6111858 234 88 12
-1.1183188 0.15161125 1.6114807 234 88 12
-1.111028 0.16321763 1.6161586 234 88 12
-1.2400178 0.15249737 1.6277881 234 88 12
-1.2264299 0.1570127 1.6268994 234 88 12
-1.2119943 0.16055229 1.6252542 234 88 12
-1.1857612 0.15061939 1.6131389 234 88 12
-1.172925 0.15582748 1.6128249 234 88 12
-1.1602831 0.16125432 1.6126817 234 88 12
-1.1457653 0.16449156 1.6108472 234 88 12
-1.1370802 0.17454356 1.614275 234 88 12
-1.2434435 0.15727378 1.6163808 234 88 12
-1.2276173 0.15929769 1.6135625 234 88 12
-1.2145803 0.16442128 1.6131541 234 88 12
-1.2004997 0.16834733 1.6118231 234 88 12
-1.1809925 0.16601537 1.6056775 234 88 12
-1.169876 0.17327058 1.6069269 234 88 12
-1.157668 0.17927814 1.6072142 234 88 12
-1.2317713 0.16491444 1.6027851 234 88 12
-1.2166412 0.16769744 1.6005764 234 88 12
-1.2046255 0.17398739 1.6010642 234 88 12
-1.1966718 0.18495345 1.6051251 234 88 12
-1.1871182 0.19414866 1.6078174 234 88 12
-1.2157348 0.18759458 1.5963215 234 88 12
-1.2030919 0.19326279 1.5963128 234 88 12
-1.2186491 0.14487638 1.6083924 234 88 12
-1.2120224 0.15720452 1.608088 234 88 12
-1.2060879 0.16976608 1.6080076 234 88 12
-1.1996137 0.18213567 1.6077513 234 88 12
-1.1949314 0.19513689 1.6080776 234 88 12
-1.1938576 0.20944536 1.6095823 234 88 12
-1.2078055 0.17016713 1.5954767 234 88 12
-1.202996 0.18313728 1.5957605 234 88 12
-1.1228392 0.15435807 1.6747218 234 88 12
-1.1233164 0.1692189 1.6745639 234 88 12
-1.1295704 0.18412839 1.6770805 234 88 12
-1.1241497 0.1245854 1.6609347 234 88 12
-1.1214821 0.13946657 1.6593335 234 88 12
-1.1217394 0.15432414 1.6590761 234 88 12
-1.122557 0.16918018 1.6590761 234 88 12
-1.1238375 0.18404034 1.6592884 234 88 12
-1.1359271 0.19904163 1.6644613 234 88 12
-1.1222895 0.12456948 1.6449397 234 88 12
-1.1215029 0.1394361 1.6442089 234 88 12
-1.1219144 0.15429169 1.644024 234 88 12
-1.1230772 0.16914789 1.6441811 234 88 12
-1.1241707 0.18400615 1.6443067 234 88 12
-1.1282173 0.1989041 1.6457758 234 88 12
-1.1230812 0.12453609 1.6301613 234 88 12
-1.1225311 0.1394029 1.6295435 234 88 12
-1.1228406 0.1542601 1.6293142 234 88 12
-1.1237195 0.16911621 1.6293418 234 88 12
-1.1256337 0.18398197 1.6298366 234 88 12
-1.1353538 0.19895537 1.6338518 234 88 12
-1.1250595 0.12449486 1.6159123 234 88 12
-1.1242704 0.13936773 1.6151929 234 88 12
-1.1245515 0.15422937 1.6149527 234 88 12
-1.1256688 0.16909105 1.6150866 234 88 12
-1.1317868 0.18399923 1.6174569 234 88 12
-1.1505705 0.19910909 1.6254891 234 88 12
-1.1851317 0.21461864 1.6405708 234 88 12
-1.1727502 0.12415131 1.621933 234 88 12
-1.1317017 0.13931689 1.6033579 234 88 12
-1.1328044 0.1542059 1.6034836 234 88 12
-1.1461573 0.16915801 1.6090405 234 88 12
-1.1553783 0.18417034 1.6127635 234 88 12
-1.1658665 0.19926353 1.6170466 234 88 12
-1.1972872 0.21477747 1.630603 234 88 12
-1.1724917 0.13917394 1.6061347 234 88 12
-1.1704015 0.15421468 1.604852 234 88 12
-1.1657867 0.16922036 1.6024605 234 88 12
-1.1683005 0.18424691 1.6032019 234 88 12
-1.1792828 0.19939384 1.6076629 234 88 12
-1.2049339 0.21486153 1.618564 234 88 12
-1.2116265 0.13903496 1.6078743 234 88 12
-1.2084477 0.15422331 1.6061252 234 88 12
-1.2021549 0.16936526 1.6030208 234 88 12
-1.2015659 0.18450248 1.6024013 234 88 12
-1.2038014 0.1996645 1.6030116 234 88 12
-1.213022 0.16938344 1.5922941 234 88 12
-1.1367934 0.12927654 1.6509972 234 88 12
-1.1218592 0.13146198 1.6506523 234 88 12
-1.1075021 0.13456093 1.6515603 234 88 12
-1.1878986 0.13856663 1.6498605 234 88 12
-1.1726469 0.14036107 1.6489713 234 88 12
-1.1533118 0.1358317 1.6394528 234 88 12
-1.1379321 0.13732898 1.6381712 234 88 12
-1.1229955 0.13950554 1.6378173 234 88 12
-1.1084126 0.14224124 1.638225 234 88 12
-1.0956926 0.14799118 1.6427287 234 88 12
-1.2396736 0.14838082 1.6493412 234 88 12
-1.2234927 0.14890425 1.6467146 234 88 12
-1.2074775 0.14963552 1.6443758 234 88 12
-1.1887753 0.14625518 1.6364601 234 88 12
-1.1737704 0.14841788 1.636078 234 88 12
-1.1548175 0.14445728 1.6274012 234 88 12
-1.1393509 0.14581805 1.625944 234 88 12
-1.1243889 0.14795409 1.625538 234 88 12
-1.1098324 0.15073268 1.6260005 234 88 12
-1.097116 0.1564977 1.6304913 234 88 12
-1.2398546 0.15509018 1.6345341 234 88 12
-1.2247604 0.15720779 1.6340821 234 88 12
-1.2086011 0.1577156 1.6314595 234 88 12
-1.1901735 0.15473269 1.6241387 234 88 12
-1.1751684 0.15689437 1.6237581 234 88 12
-1.1572752 0.15456298 1.6173365 234 88 12
-1.1411175 0.1548533 1.6144499 234 88 12
-1.126178 0.15703079 1.6141016 234 88 12
-1.1119444 0.1603357 1.6152655 234 88 12
-1.1017992 0.17029548 1.6253388 234 88 12
-1.241277 0.16362424 1.6222113 234 88 12
-1.2261629 0.16571176 1.6217222 234 88 12
-1.2112554 0.16810322 1.621641 234 88 12
-1.192113 0.16403568 1.6129215 234 88 12
-1.1768519 0.1658106 1.6120257 234 88 12
-1.1622028 0.16852476 1.6123855 234 88 12
-1.1474618 0.17109989 1.6125592 234 88 12
-1.1314346 0.17163041 1.6100092 234 88 12
-1.1203021 0.17999615 1.6178899 234 88 12
-1.2448643 0.17536704 1.6141608 234 88 12
-1.2277688 0.17452019 1.6097674 234 88 12
-1.2128034 0.17682703 1.609574 234 88 12
-1.1980656 0.17947882 1.6098388 234 88 12
-1.1825855 0.18098783 1.6085877 234 88 12
-1.169394 0.18605091 1.6120477 234 88 12
-1.1547785 0.18892244 1.6126 234 88 12
-1.2348824 0.19159895 1.6087264 234 88 12
-1.2156045 0.18745309 1.6000116 234 88 12
-1.2024353 0.19253227 1.6034702 234 88 12
-1.1875615 0.1950267 1.6035193 234 88 12
-1.207399 0.20652311 1.5982383 234 88 12
-1.1317589 0.12596385 1.6574416 234 88 12
-1.1208277 0.13792229 1.656366 234 88 12
-1.1119182 0.15095188 1.6568632 234 88 12
-1.1055028 0.16534284 1.6593174 234 88 12
-1.104924 0.18297119 1.6663727 234 88 12
-1.1486572 0.11799692 1.6449835 234 88 12
-1.1336111 0.12781498 1.6407549 234 88 12
-1.1239176 0.14042044 1.6406394 234 88 12
-1.1145229 0.15318494 1.6407549 234 88 12
-1.1068028 0.16686077 1.6421735 234 88 12
-1.1054487 0.18405132 1.6485666 234 88 12
-1.1520325 0.12065367 1.6294554 234 88 12
-1.1374871 0.13073123 1.6256397 234 88 12
-1.1277933 0.14333653 1.6255249 234 88 12
-1.1183989 0.15610117 1.6256397 234 88 12
-1.1106979 0.16978779 1.6270626 234 88 12
-1.1100842 0.18738714 1.6339824 234 88 12
-1.2228025 0.1404606 1.6576055 234 88 12
-1.1814187 0.13687772 1.6336317 234 88 12
-1.1427798 0.13439427 1.6116006 234 88 12
-1.1322882 0.14658238 1.610882 234 88 12
-1.1233121 0.1595756 1.611317 234 88 12
-1.1178937 0.17450975 1.6144812 234 88 12
-1.1195953 0.19340189 1.6231375 234 88 12
-1.223156 0.14157523 1.639503 234 88 12
-1.1862637 0.1403081 1.6190745 234 88 12
-1.1710615 0.15018179 1.6148787 234 88 12
-1.1442045 0.15378332 1.6018443 234 88 12
-1.1418725 0.17039871 1.6073334 234 88 12
-1.1404805 0.18760623 1.6135706 234 88 12
-1.2271053 0.14454594 1.6241156 234 88 12
-1.1930988 0.14477824 1.605992 234 88 12
-1.1812171 0.15641834 1.6043185 234 88 12
-1.171779 0.16933668 1.6044693 234 88 12
-1.163759 0.18302113 1.6056886 234 88 12
-1.158414 0.19817956 1.608935 234 88 12
-1.2321974 0.14810754 1.6095723 234 88 12
-1.220935 0.16022171 1.6084304 234 88 12
-1.2076523 0.17125253 1.6057812 234 88 12
-1.1870134 0.17832015 1.5976359 234 88 12
-1.179262 0.19221245 1.5990717 234 88 12
-1.1889324 0.21561265 1.6135728 234 88 12
-1.227384 0.16449894 1.5948826 234 88 12
-1.2173792 0.17727382 1.5946753 234 88 12
-1.2094189 0.19113663 1.5959783 234 88 12
-1.2025009 0.20558101 1.5980622 234 88 12
-1.1083235 0.14742684 1.6616535 234 88 12
-1.1145467 0.16178559 1.6608585 234 88 12
-1.1217197 0.17585362 1.6607859 234 88 12
-1.129729 0.18967755 1.6613455 234 88 12
-1.1081433 0.13020417 1.6485531 234 88 12
-1.1126114 0.14511563 1.6464335 234 88 12
-1.1189851 0.15942739 1.6457583 234 88 12
-1.1262534 0.17346595 1.6457583 234 88 12
-1.1339744 0.18737273 1.6460978 234 88 12
-1.1468326 0.19981252 1.6502806 234 88 12
-1.1130142 0.12771347 1.6337596 234 88 12
-1.1178557 0.14251232 1.6319348 234 88 12
-1.1241349 0.1568553 1.6311929 234 88 12
-1.1312475 0.17094202 1.6310761 234 88 12
-1.1392972 0.18475416 1.6316576 234 88 12
-1.1530092 0.19695024 1.6364437 234 88 12
-1.175913 0.20661445 1.6480253 234 88 12
-1.1193037 0.1247818 1.6200223 234 88 12
-1.1243763 0.13951816 1.6183801 234 88 12
-1.1302468 0.15399314 1.6173372 234 88 12
-1.1374946 0.16804647 1.6173191 234 88 12
-1.1476322 0.18125649 1.6194375 234 88 12
-1.1633812 0.19288284 1.6256863 234 88 12
-1.1812582 0.20398778 1.6334751 234 88 12
-1.2044662 0.2137111 1.6451472 234 88 12
-1.1326528 0.13598518 1.6061027 234 88 12
-1.1398802 0.1500684 1.6060619 234 88 12
-1.1504149 0.16316956 1.6084536 234 88 12
-1.1633965 0.17558685 1.612631 234 88 12
-1.1760181 0.18816106 1.6165271 234 88 12
-1.1882275 0.20090161 1.6201055 234 88 12
-1.2111537 0.21070844 1.6314842 234 88 12
-1.1706811 0.13975221 1.610221 234 88 12
-1.1690531 0.15658906 1.6036749 234 88 12
-1.1757658 0.17090294 1.6032331 234 88 12
-1.1848876 0.18451805 1.6045448 234 88 12
-1.1988735 0.19677356 1.6093796 234 88 12
-1.2170658 0.20792037 1.6172394 234 88 12
-1.2036099 0.14526629 1.6102848 234 88 12
-1.2008293 0.1624991 1.6029347 234 88 12
-1.2070286 0.1770505 1.6020967 234 88 12
-1.214543 0.19121857 1.6022091 234 88 12
-1.2238081 0.20490021 1.6035792 234 88 12
-1.2164031 0.15686299 1.5956078 234 88 12
-1.2234962 0.1712077 1.5953997 234 88 12
-1.1058607 0.16479386 1.6632578 234 88 12
-1.1177205 0.17153685 1.6627871 234 88 12
-1.1301022 0.17779805 1.6629037 234 88 12
-1.1429931 0.18360099 1.6635841 234 88 12
-1.1577785 0.18771638 1.6663489 234 88 12
-1.1729412 0.19153354 1.6694993 234 88 12
-1.1000957 0.15021868 1.6551688 234 88 12
-1.1076165 0.1610211 1.649808 234 88 12
-1.1195751 0.16767064 1.6494526 234 88 12
-1.131851 0.17402624 1.6494526 234 88 12
-1.1447147 0.17985024 1.6501013 234 88 12
-1.1592439 0.18418974 1.652571 234 88 12
-1.1730441 0.18921089 1.6542189 234 88 12
-1.1875556 0.19362676 1.6566222 234 88 12
-1.2024958 0.19769961 1.6594639 234 88 12
-1.2188373 0.20059459 1.6637825 234 88 12
-1.1010398 0.14720467 1.6407802 234 88 12
-1.1098608 0.15679593 1.6369075 234 88 12
-1.1219289 0.16334577 1.6366749 234 88 12
-1.1342679 0.16964531 1.6367434 234 88 12
-1.1470133 0.17557801 1.6372567 234 88 12
-1.1613815 0.18006128 1.639535 234 88 12
-1.1750855 0.18516648 1.6410687 234 88 12
-1.1892437 0.18989146 1.6430768 234 88 12
-1.2025638 0.1953771 1.6441642 234 88 12
-1.2155424 0.20117375 1.6448755 234 88 12
-1.2368107 0.19983964 1.6543913 234 88 12
-1.1054051 0.14098877 1.6302172 234 88 12
-1.1132891 0.15147071 1.625317 234 88 12
-1.1245905 0.15873696 1.6242335 234 88 12
-1.1369997 0.16497634 1.6243753 234 88 12
-1.150062 0.17062603 1.6252277 234 88 12
-1.1640726 0.17543532 1.6270993 234 88 12
-1.1777234 0.18059072 1.6285633 234 88 12
-1.19163 0.18553995 1.6302866 234 88 12
-1.2042266 0.19166055 1.6305938 234 88 12
-1.2168437 0.19776754 1.6309193 234 88 12
-1.2316474 0.20199333 1.6335522 234 88 12
-1.1102297 0.13433804 1.6201326 234 88 12
-1.1201799 0.1429241 1.6175206 234 88 12
-1.129869 0.15171446 1.6146504 234 88 12
-1.1420597 0.15817738 1.6145353 234 88 12
-1.1550958 0.16387205 1.6153374 234 88 12
-1.168421 0.16931784 1.6164424 234 88 12
-1.1814177 0.17507178 1.6171839 234 88 12
-1.1940515 0.18115684 1.6175307 234 88 12
-1.2063675 0.18752545 1.6175367 234 88 12
-1.2189848 0.19363192 1.6178607 234 88 12
-1.2332811 0.19829334 1.6199447 234 88 12
-1.1261994 0.13517949 1.6087073 234 88 12
-1.137951 0.14209852 1.6080767 234 88 12
-1.1513836 0.14747013 1.6092725 234 88 12
-1.1651331 0.15257066 1.6107969 234 88 12
-1.1714174 0.1644135 1.6043085 234 88 12
-1.1840652 0.17048457 1.604669 234 88 12
-1.1967844 0.17649743 1.6051013 234 88 12
-1.2090105 0.18294935 1.6050091 234 88 12
-1.2217662 0.18893851 1.6054736 234 88 12
-1.1987424 0.15514325 1.604889 234 88 12
-1.2098815 0.16264804 1.6035852 234 88 12
-1.2202581 0.17080563 1.6014954 234 88 12
-1.2437092 0.16753079 1.6130627 234 88 12
-1.1001201 0.17278545 1.6548275 234 88 12
-1.1109645 0.17532714 1.649048 234 88 12
-1.1223321 0.17634851 1.6453788 234 88 12
-1.1336797 0.17734692 1.6417469 234 88 12
-1.144423 0.17984293 1.6360533 234 88 12
-1.1554999 0.18136957 1.6317052 234 88 12
-1.1676596 0.18007246 1.6312554 234 88 12
-1.1774902 0.18457744 1.6228157 234 88 12
-1.1881328 0.186922 1.6173617 234 88 12
-1.2002872 0.18548928 1.61711 234 88 12
-1.2125422 0.18381059 1.6171968 234 88 12
-1.2252276 0.1811139 1.6186812 234 88 12
-1.2424102 0.16792479 1.6345595 234 88 12
-1.099022 0.16741675 1.6429057 234 88 12
-1.1102883 0.16881351 1.6387378 234 88 12
-1.1216997 0.16973281 1.635232 234 88 12
-1.1330893 0.17063715 1.6317519 234 88 12
-1.1436768 0.17356348 1.625504 234 88 12
-1.154806 0.17496958 1.6213487 234 88 12
-1.1668656 0.17393164 1.6205466 234 88 12
-1.1791395 0.17234121 1.6205016 234 88 12
-1.187894 0.17944761 1.6085651 234 88 12
-1.1995937 0.1791427 1.6067727 234 88 12
-1.2118534 0.17745596 1.6068696 234 88 12
-1.2271209 0.16862036 1.6167196 234 88 12
-1.2426498 0.15935114 1.627146 234 88 12
-1.0998075 0.15682593 1.6381351 234 88 12
-1.110023 0.16117319 1.6299598 234 88 12
-1.1215329 0.16185845 1.6267943 234 88 12
-1.1331453 0.16220517 1.6240952 234 88 12
-1.1439085 0.16472089 1.6184446 234 88 12
-1.154817 0.1667465 1.6134696 234 88 12
-1.1662678 0.16729079 1.6105176 234 88 12
-1.1784314 0.16598487 1.6100856 234 88 12
-1.1907736 0.16422747 1.6102675 234 88 12
-1.2025813 0.16378219 1.608668 234 88 12
-1.2148539 0.16218342 1.6086355 234 88 12
-1.2276381 0.15936296 1.6102593 234 88 12
-1.0997987 0.14841424 1.6303273 234 88 12
-1.1105958 0.15122086 1.624293 234 88 12
-1.1220802 0.15203923 1.6209635 234 88 12
-1.1342409 0.15098399 1.6201775 234 88 12
-1.1461926 0.15046163 1.6186712 234 88 12
-1.1577244 0.15099744 1.6157355 234 88 12
-1.1695473 0.15072933 1.613891 234 88 12
-1.1818408 0.14923741 1.6137025 234 88 12
-1.2046162 0.15069422 1.6073364 234 88 12
-1.2167749 0.14946112 1.6068044 234 88 12
-1.1111422 0.14131221 1.6185008 234 88 12
-1.12283 0.14164184 1.6158475 234 88 12
-1.1350427 0.14051019 1.6151651 234 88 12
-1.1478052 0.13791305 1.6164552 234 88 12
-1.1783648 0.19821459 1.6273556 234 88 12
-1.1767013 0.1843482 1.6262141 234 88 12
-1.1750162 0.17058103 1.6262141 234 88 12
-1.1733081 0.15690142 1.6273556 234 88 12
-1.1715742 0.14330252 1.6297038 234 88 12
-1.1698638 0.12960303 1.6308416 234 88 12
-1.1661373 0.19979607 1.6219319 234 88 12
-1.1644707 0.18594868 1.6210642 234 88 12
-1.1627851 0.17217718 1.6210642 234 88 12
-1.1610793 0.15847266 1.6219319 234 88 12
-1.1593531 0.14482382 1.6236341 234 88 12
-1.1576101 0.13120867 1.6259798 234 88 12
-1.1535101 0.20276266 1.6322461 234 88 12
-1.1521839 0.18771142 1.6178184 234 88 12
-1.1505053 0.17390287 1.6174957 234 88 12
-1.1487828 0.16022724 1.618855 234 88 12
-1.1470532 0.14655875 1.6204354 234 88 12
-1.144927 0.1339139 1.6366102 234 88 12
-1.1430671 0.12047211 1.6426091 234 88 12
-1.1395737 0.19038452 1.6252401 234 88 12
-1.137996 0.17623001 1.6212609 234 88 12
-1.1362339 0.16260307 1.6236799 234 88 12
-1.1343689 0.14921331 1.6294919 234 88 12
-1.1326605 0.13540202 1.6299539 234 88 12
-1.1308572 0.12179728 1.6335025 234 88 12
-1.1268464 0.19315732 1.6336627 234 88 12
-1.1253191 0.178836 1.628297 234 88 12
-1.1237444 0.16467753 1.6245334 234 88 12
-1.1220746 0.15076993 1.6237602 234 88 12
-1.1203617 0.13696241 1.6243062 234 88 12
-1.1185228 0.12340611 1.6285784 234 88 12
-1.1127236 0.18106776 1.6306396 234 88 12
-1.1113005 0.16655689 1.6228315 234 88 12
-1.1096671 0.15255651 1.6210542 234 88 12
-1.1079289 0.13878016 1.6222054 234 88 12
-1.1060494 0.12525864 1.6271696 234 88 12
-1.0984292 0.16926201 1.6314312 234 88 12
-1.0968546 0.15509269 1.628129 234 88 12
-1.1475728 0.12739305 1.6430547 234 88 12
-1.1316321 0.12526952 1.6424991 234 88 12
-1.1159077 0.12344997 1.6428379 234 88 12
-1.240693 0.15300359 1.6356577 234 88 12
-1.2246943 0.1508169 1.634931 234 88 12
-1.2088842 0.14887451 1.6349078 234 88 12
-1.1930722 0.14692894 1.6348754 234 88 12
-1.1772623 0.14498627 1.6348515 234 88 12
-1.1614614 0.14305559 1.6348621 234 88 12
-1.1456645 0.14113063 1.6348894 234 88 12
-1.1298549 0.13918814 1.6348658 234 88 12
-1.1140705 0.13728175 1.6349472 234 88 12
-1.098573 0.13579826 1.6362623 234 88 12
-1.2388228 0.16680989 1.6277039 234 88 12
-1.2229073 0.16472803 1.6272837 234 88 12
-1.2071044 0.16279377 1.6272837 234 88 12
-1.1913543 0.16093139 1.6274892 234 88 12
-1.175548 0.15899333 1.6274786 234 88 12
-1.1597469 0.15706268 1.6274892 234 88 12
-1.14395 0.15513782 1.6275164 234 88 12
-1.1281404 0.15319525 1.6274929 234 88 12
-1.1123661 0.15130372 1.6276162 234 88 12
-1.0969362 0.14992681 1.629223 234 88 12
-1.2371589 0.18088487 1.6205196 234 88 12
-1.2212259 0.17877857 1.6200356 234 88 12
-1.2054102 0.17682759 1.6199887 234 88 12
-1.1896592 0.1749654 1.6201923 234 88 12
-1.1738746 0.17305805 1.6202688 234 88 12
-1.1581382 0.17121977 1.6205412 234 88 12
-1.1424136 0.16940153 1.6208713 234 88 12
-1.1265181 0.16733702 1.6205025 234 88 12
-1.1108875 0.16566154 1.6212395 234 88 12
-1.0970002 0.16662061 1.6294832 234 88 12
-1.2372425 0.19730301 1.6198491 234 88 12
-1.2196391 0.19295882 1.6131459 234 88 12
-1.2038059 0.19098583 1.6130388 234 88 12
-1.1882336 0.18937583 1.6139451 234 88 12
-1.1736797 0.18921687 1.618912 234 88 12
-1.1580842 0.18761304 1.6198459 234 88 12
-1.1429417 0.18667917 1.622661 234 88 12
-1.1271126 0.18476003 1.6227171 234 88 12
-1.1122128 0.18423636 1.6266971 234 88 12
-1.098551 0.18564367 1.6361247 234 88 12
-1.2196935 0.20939703 1.6124632 234 88 12
-1.2037343 0.2072814 1.6119728 234 88 12
-1.1880727 0.20558104 1.6126276 234 88 12
-1.1729085 0.2045996 1.6152718 234 88 12
-1.1571623 0.20280032 1.6156589 234 88 12
-1.144582 0.20567125 1.6289934 234 88 12
-1.1368482 0.11281193 1.6516551 234 88 12
-1.1225209 0.12384599 1.6484314 234 88 12
-1.11024 0.1360618 1.6482071 234 88 12
-1.0988986 0.14884116 1.6493791 234 88 12
-1.0924207 0.16460235 1.6578388 234 88 12
-1.1439542 0.12055621 1.6370872 234 88 12
-1.131038 0.13240249 1.6359384 234 88 12
-1.1189106 0.14470628 1.6359384 234 88 12
-1.1070766 0.15718739 1.6363724 234 88 12
-1.0981463 0.17144975 1.6411245 234 88 12
-1.1793988 0.12530151 1.6459014 234 88 12
-1.1530035 0.12942538 1.6253673 234 88 12
-1.140106 0.14128254 1.6242545 234 88 12
-1.1279778 0.15358706 1.6242545 234 88 12
-1.1163423 0.16618975 1.6249777 234 88 12
-1.1076962 0.18063359 1.6301187 234 88 12
-1.1041461 0.1983005 1.6428671 234 88 12
-1.187857 0.13385089 1.6331925 234 88 12
-1.1649551 0.13998692 1.6178148 234 88 12
-1.149919 0.15060312 1.6136432 234 88 12
-1.1376001 0.16280046 1.6133728 234 88 12
-1.1269901 0.17603141 1.615591 234 88 12
-1.1214869 0.19242544 1.6253139 234 88 12
-1.2216815 0.13752058 1.6391059 234 88 12
-1.1970013 0.14279443 1.6214679 234 88 12
-1.1841892 0.15481304 1.6205935 234 88 12
-1.1697474 0.16585709 1.6173742 234 88 12
-1.1551046 0.17674531 1.6138337 234 88 12
-1.1458699 0.19088237 1.6180886 234 88 12
-1.1404271 0.20740215 1.627903 234 88 12
-1.230585 0.14634417 1.6269186 234 88 12
-1.2113391 0.15474115 1.6170645 234 88 12
-1.1940314 0.16416636 1.6098619 234 88 12
-1.1818558 0.17655918 1.6098975 234 88 12
-1.1722375 0.19049041 1.6135927 234 88 12
-1.1611397 0.20356086 1.6151966 234 88 12
-1.2397497 0.15531686 1.6150976 234 88 12
-1.2271981 0.16758494 1.6146883 234 88 12
-1.2109894 0.17770091 1.6091279 234 88 12
-1.1962551 0.18863305 1.605599 234 88 12
-1.1841537 0.20111334 1.6057774 234 88 12
-1.2366589 0.1767308 1.6032802 234 88 12
-1.2243501 0.1891403 1.603212 234 88 12
-1.2127962 0.20199919 1.6042032 234 88 12
-1.2026262 0.2157052 1.6071572 234 88 12
-1.1098785 0.1379301 1.6645359 234 88 12
-1.1078293 0.1550588 1.6647195 234 88 12
-1.1071519 0.17238122 1.6661034 234 88 12
-1.1090773 0.19009629 1.669768 234 88 12
-1.1196826 0.12183362 1.6487405 234 88 12
-1.1170082 0.13887545 1.6483799 234 88 12
-1.1149709 0.1559989 1.6485717 234 88 12
-1.1138468 0.17325208 1.6495569 234 88 12
-1.115352 0.19089709 1.652828 234 88 12
-1.1277801 0.12290642 1.633433 234 88 12
-1.1254643 0.13999273 1.6333835 234 88 12
-1.1232474 0.15709177 1.633419 234 88 12
-1.1219076 0.17431369 1.6342108 234 88 12
-1.1232948 0.19193932 1.6373558 234 88 12
-1.1403153 0.21194163 1.6539981 234 88 12
-1.1366796 0.12407916 1.6188153 234 88 12
-1.1340033 0.14112073 1.6184583 234 88 12
-1.1318678 0.15823093 1.6185633 234 88 12
-1.1309402 0.17551102 1.6197019 234 88 12
-1.1337706 0.19334793 1.6240593 234 88 12
-1.1533111 0.21373636 1.6427379 234 88 12
-1.1730994 0.12868215 1.6275175 234 88 12
-1.1587414 0.1443485 1.6172712 234 88 12
-1.1564726 0.1615217 1.6172712 234 88 12
-1.1556109 0.17889133 1.6184661 234 88 12
-1.1570297 0.19660477 1.6216005 234 88 12
-1.1701965 0.21611257 1.6347282 234 88 12
-1.1846223 0.13018246 1.6149223 234 88 12
-1.1787101 0.14695823 1.6118637 234 88 12
-1.1726067 0.16367212 1.60864 234 88 12
-1.1720104 0.1811166 1.6100538 234 88 12
-1.1721358 0.19868211 1.6120781 234 88 12
-1.1904418 0.21899056 1.6294485 234 88 12
-1.2184676 0.13446604 1.6209276 234 88 12
-1.192301 0.1487413 1.6009835 234 88 12
-1.1887615 0.16582523 1.59993 234 88 12
-1.1864039 0.1830616 1.599864 234 88 12
-1.1896138 0.20110188 1.6044583 234 88 12
-1.2038921 0.22085163 1.6183296 234 88 12
-1.2323118 0.13625643 1.6100419 234 88 12
-1.2245542 0.15294382 1.6055149 234 88 12
-1.2188854 0.16985832 1.6027153 234 88 12
-1.2156258 0.18707559 1.6019123 234 88 12
-1.2143688 0.20457265 1.602772 234 88 12
-1.0948547 0.15867648 1.6663356 234 88 12
-1.1049824 0.17117518 1.6641161 234 88 12
-1.1165775 0.18293791 1.6639593 234 88 12
-1.128669 0.19446097 1.6644913 234 88 12
-1.1012943 0.1514734 1.6520569 234 88 12
-1.1126765 0.1633428 1.6516045 234 88 12
-1.1243831 0.17504941 1.6516045 234 88 12
-1.1362523 0.18667774 1.6518282 234 88 12
-1.149536 0.19763704 1.6539873 234 88 12
-1.1672713 0.20653468 1.6621966 234 88 12
-1.099384 0.13086295 1.6424732 234 88 12
-1.1092802 0.14349632 1.63995 234 88 12
-1.1206856 0.15535496 1.6395322 234 88 12
-1.1323923 0.16706175 1.6395322 234 88 12
-1.1443338 0.17865521 1.639853 234 88 12
-1.1573277 0.18975072 1.6416029 234 88 12
-1.1730272 0.19959305 1.6470021 234 88 12
-1.1895427 0.20911063 1.6534528 234 88 12
-1.1076039 0.12276312 1.6306728 234 88 12
-1.1177213 0.13528931 1.6284693 234 88 12
-1.1289473 0.14724103 1.6278056 234 88 12
-1.1406409 0.15895635 1.6277857 234 88 12
-1.1526345 0.17052607 1.6281735 234 88 12
-1.1663933 0.18125619 1.630944 234 88 12
-1.1811327 0.19155174 1.6350091 234 88 12
-1.1937294 0.2028826 1.6361669 234 88 12
-1.2088057 0.2130892 1.6406217 234 88 12
-1.1162926 0.11442168 1.6195123 234 88 12
-1.1271803 0.12656502 1.6183724 234 88 12
-1.1378329 0.13881442 1.6169229 234 88 12
-1.1494763 0.15056074 1.6168295 234 88 12
-1.1629902 0.1613968 1.6192604 234 88 12
-1.1768693 0.17208207 1.6221597 234 88 12
-1.1891707 0.18354191 1.6229237 234 88 12
-1.2019175 0.19480175 1.6242735 234 88 12
-1.2164623 0.20524849 1.6279936 234 88 12
-1.1478119 0.12983675 1.6075026 234 88 12
-1.1637586 0.13946888 1.6131912 234 88 12
-1.1737181 0.15207851 1.6108037 234 88 12
-1.1854442 0.16381437 1.610795 234 88 12
-1.1975574 0.17536654 1.6113005 234 88 12
-1.2119627 0.18585153 1.6148322 234 88 12
-1.2245039 0.19723129 1.6158783 234 88 12
-1.1774205 0.12866506 1.6086113 234 88 12
-1.188638 0.14070028 1.6078802 234 88 12
-1.20044 0.15244602 1.6079305 234 88 12
-1.2093527 0.16556747 1.6041679 234 88 12
-1.2209371 0.17739736 1.6039485 234 88 12
-1.2334017 0.18881765 1.604882 234 88 12
-1.2141955 0.14165606 1.6033109 234 88 12
-1.2249445 0.15394324 1.6019464 234 88 12
-1.2371985 0.16550787 1.6025579 234 88 12
-1.1709507 0.20702448 1.6578186 234 88 12
-1.1850762 0.20753889 1.6541736 234 88 12
-1.1959846 0.21162514 1.6394441 234 88 12
-1.2109669 0.21108776 1.6390759 234 88 12
-1.2311244 0.20489788 1.6562371 234 88 12
-1.1130341 0.19290309 1.6619571 234 88 12
-1.1270311 0.1937059 1.6574552 234 88 12
-1.1408592 0.19467026 1.6524613 234 88 12
-1.1536496 0.19681229 1.6438549 234 88 12
-1.168206 0.19682971 1.6417806 234 88 12
-1.1802911 0.19966172 1.6310711 234 88 12
-1.1951653 0.19924878 1.6303254 234 88 12
-1.21016 0.19869503 1.6300122 234 88 12
-1.2253786 0.19789165 1.6304642 234 88 12
-1.0974288 0.18058698 1.6543083 234 88 12
-1.1115878 0.18122783 1.6503497 234 88 12
-1.1259984 0.18152535 1.6474384 234 88 12
-1.1385643 0.18401989 1.6378578 234 88 12
-1.1526045 0.18467705 1.633864 234 88 12
-1.1675833 0.18419813 1.6333212 234 88 12
-1.1796278 0.18711247 1.6224893 234 88 12
-1.1945239 0.18667535 1.6218261 234 88 12
-1.209599 0.18603052 1.6217926 234 88 12
-1.2247392 0.18531305 1.6219791 234 88 12
-1.2413962 0.18292731 1.627214 234 88 12
-1.0966179 0.1681302 1.6450807 234 88 12
-1.1109524 0.16856042 1.6418022 234 88 12
-1.1253498 0.16888274 1.6388508 234 88 12
-1.1378983 0.17142966 1.6292263 234 88 12
-1.1520673 0.17194372 1.6257092 234 88 12
-1.1670325 0.17148308 1.6251178 234 88 12
-1.1794544 0.17399268 1.6156266 234 88 12
-1.1940691 0.1738885 1.6139733 234 88 12
-1.2091025 0.17329289 1.6137927 234 88 12
-1.2243118 0.17249763 1.6142097 234 88 12
-1.2426513 0.16822469 1.6250263 234 88 12
-1.0962617 0.15509698 1.6375881 234 88 12
-1.1106312 0.1554977 1.6344352 234 88 12
-1.1251328 0.15570426 1.6318616 234 88 12
-1.1381376 0.15772858 1.6238992 234 88 12
-1.1519581 0.15869072 1.6190935 234 88 12
-1.1665694 0.15866303 1.6172255 234 88 12
-1.18162 0.15809959 1.6169459 234 88 12
-1.1945386 0.16002117 1.6093109 234 88 12
-1.2093073 0.15974599 1.6081827 234 88 12
-1.2260332 0.15723528 1.6136663 234 88 12
-1.2436632 0.15375458 1.6220112 234 88 12
-1.0962645 0.1415935 1.6314585 234 88 12
-1.1102593 0.14249383 1.6268753 234 88 12
-1.1252465 0.14210072 1.6260899 234 88 12
-1.1400051 0.1419844 1.6244941 234 88 12
-1.1536981 0.14315967 1.6191154 234 88 12
-1.1675848 0.14405222 1.61457 234 88 12
-1.1841843 0.14166521 1.6196287 234 88 12
-1.1968334 0.14397843 1.6109312 234 88 12
-1.2113953 0.14399056 1.6089711 234 88 12
-1.2275646 0.1421389 1.6124604 234 88 12
-1.1104143 0.12880537 1.621285 234 88 12
-1.1249548 0.12899594 1.6188153 234 88 12
-1.1401029 0.12840083 1.6186247 234 88 12
-1.1560512 0.12681314 1.6213089 234 88 12
-1.1693864 0.12844269 1.6146775 234 88 12
-1.2057767 0.22452393 1.6357431 234 88 12
-1.1413745 0.20828001 1.6438804 234 88 12
-1.1546654 0.20767362 1.631146 234 88 12
-1.170936 0.20761277 1.629868 234 88 12
-1.1858325 0.20731337 1.6235809 234 88 12
-1.2021571 0.20726846 1.6226377 234 88 12
-1.2188141 0.20728132 1.6229076 234 88 12
-1.2361046 0.2074001 1.625402 234 88 12
-1.1077119 0.19155921 1.6425471 234 88 12
-1.1237448 0.19145282 1.6401186 234 88 12
-1.1382467 0.19109251 1.6318941 234 88 12
-1.1542569 0.19099215 1.6296034 234 88 12
-1.1699711 0.19084635 1.6262755 234 88 12
-1.1856261 0.19069511 1.6228232 234 88 12
-1.202116 0.19068047 1.622489 234 88 12
-1.218697 0.19068047 1.622489 234 88 12
-1.2355499 0.19072248 1.6234479 234 88 12
-1.091592 0.17498802 1.6447005 234 88 12
-1.1057492 0.17459197 1.6347995 234 88 12
-1.121696 0.17448604 1.6321511 234 88 12
-1.1379576 0.17443146 1.6307864 234 88 12
-1.1542004 0.17437561 1.6293902 234 88 12
-1.170391 0.17431355 1.6278386 234 88 12
-1.1856585 0.17411768 1.622942 234 88 12
-1.2021472 0.17410408 1.622602 234 88 12
-1.2187374 0.17410535 1.6226335 234 88 12
-1.2356666 0.17415436 1.6238589 234 88 12
-1.2562882 0.17471558 1.6378894 234 88 12
-1.0902708 0.15813087 1.6394057 234 88 12
-1.1051823 0.15788318 1.6325617 234 88 12
-1.1213259 0.15781623 1.6307116 234 88 12
-1.137889 0.15780944 1.6305237 234 88 12
-1.154285 0.15777995 1.6297092 234 88 12
-1.1708018 0.15776761 1.6293683 234 88 12
-1.1860324 0.15758473 1.6243148 234 88 12
-1.2024176 0.15755817 1.6235809 234 88 12
-1.2190804 0.15756823 1.6238589 234 88 12
-1.235871 0.15759429 1.624579 234 88 12
-1.2555674 0.15798531 1.6353836 234 88 12
-1.0899366 0.14144216 1.6380668 234 88 12
-1.1051433 0.14125891 1.6324077 234 88 12
-1.1213259 0.141204 1.6307116 234 88 12
-1.137889 0.1411979 1.6305237 234 88 12
-1.1544827 0.14119573 1.6304564 234 88 12
-1.1710479 0.14119017 1.6302848 234 88 12
-1.186902 0.14110024 1.6275077 234 88 12
-1.2027823 0.14101586 1.6249013 234 88 12
-1.2193688 0.14101544 1.6248884 234 88 12
-1.2366692 0.14109649 1.6273913 234 88 12
-1.1053516 0.12466371 1.6332297 234 88 12
-1.1215807 0.12462008 1.6317029 234 88 12
-1.1380954 0.12460898 1.6313143 234 88 12
-1.1547433 0.12461259 1.6314406 234 88 12
-1.1712027 0.12459602 1.6308608 234 88 12
-1.1879991 0.12461529 1.6315351 234 88 12
-1.0968722 0.12867682 1.6573343 234 88 12
-1.0950439 0.14655411 1.6557271 234 88 12
-1.095565 0.16462566 1.6577255 234 88 12
-1.097757 0.18287574 1.6622907 234 88 12
-1.1118289 0.11130774 1.6461897 234 88 12
-1.1095563 0.12915297 1.6439199 234 88 12
-1.1087756 0.1470993 1.6439191 234 88 12
-1.1083829 0.16508006 1.6445093 234 88 12
-1.1098357 0.18324268 1.64791 234 88 12
-1.1127548 0.20158686 1.6535463 234 88 12
-1.1259011 0.11189501 1.6349119 234 88 12
-1.1244886 0.12979761 1.6339581 234 88 12
-1.1237084 0.14774297 1.6339581 234 88 12
-1.1230757 0.16570137 1.634181 234 88 12
-1.1238221 0.18379328 1.6364865 234 88 12
-1.1269418 0.20214905 1.642379 234 88 12
-1.1414063 0.1125793 1.6258031 234 88 12
-1.1397158 0.13046423 1.6244413 234 88 12
-1.138865 0.14840488 1.6243359 234 88 12
-1.1384245 0.16638072 1.6248447 234 88 12
-1.1394415 0.18449974 1.6275368 234 88 12
-1.1439492 0.20299929 1.6354604 234 88 12
-1.1558723 0.13119976 1.6163003 234 88 12
-1.154681 0.1491202 1.6156905 234 88 12
-1.1548735 0.16715662 1.6171355 234 88 12
-1.1593269 0.18561001 1.6249111 234 88 12
-1.1629155 0.20404725 1.6314059 234 88 12
-1.1828219 0.1327339 1.6240214 234 88 12
-1.1799684 0.15060073 1.6209741 234 88 12
-1.1787413 0.16858193 1.6203208 234 88 12
-1.1795027 0.1867449 1.6225969 234 88 12
-1.1793134 0.20483263 1.623473 234 88 12
-1.1906267 0.22417152 1.6413076 234 88 12
-1.1989282 0.13346311 1.615626 234 88 12
-1.1973304 0.15143806 1.6144378 234 88 12
-1.1960872 0.16943298 1.6137673 234 88 12
-1.1953921 0.1874733 1.6138971 234 88 12
-1.1965414 0.20570095 1.6167232 234 88 12
-1.2019666 0.22441533 1.6258035 234 88 12
-1.2232848 0.13479991 1.6191562 234 88 12
-1.2205559 0.15274592 1.616343 234 88 12
-1.2189689 0.17076528 1.615183 234 88 12
-1.2181826 0.18884905 1.615183 234 88 12
-1.2174731 0.20694053 1.6152945 234 88 12
-1.2373059 0.15353109 1.608754 234 88 12
-1.2348452 0.17148511 1.6063482 234 88 12
-1.2336859 0.18953852 1.6058121 234 88 12
-1.2335985 0.20769443 1.6068174 234 88 12
