ply
format ascii 1.0
element vertex 535
property float x
property float y
property float z
property uchar red
property uchar green
property uchar blue
end_header
-0.010140129 0.013827449 2.2460394 234 88 12
-0.01567111 0.01198379 2.2460394 234 88 12
-0.01198379 0.01198379 2.2460394 234 88 12
-0.0046091499 0.01198379 2.2460394 234 88 12
-0.017063681 0.008160891 2.340503 234 88 12
-0.019358428 0.010140129 2.2460394 234 88 12
-0.024554743 0.014215903 2.0515137 234 88 12
-0.016800612 0.014215903 2.0515137 234 88 12
-0.011631194 0.014215903 2.0515137 234 88 12
-0.020031277 0.0066770925 2.340503 234 88 12
-0.0045541069 0.0016394784 2.6343637 234 88 12
-0.029724162 0.011631194 2.0515137 234 88 12
-0.024554743 0.011631194 2.0515137 234 88 12
-0.016800612 0.011631194 2.0515137 234 88 12
-0.011631194 0.011631194 2.0515137 234 88 12
0.00018216427 0.0016394784 2.6343637 234 88 12
-0.021515077 0.0051932945 2.340503 234 88 12
-0.032308869 0.0090464838 2.0515137 234 88 12
-0.015919032 0.010130293 1.9702281 234 88 12
-0.010130293 0.010130293 1.9702281 234 88 12
-0.0043415539 0.010130293 1.9702281 234 88 12
0.0014471847 0.010130293 1.9702281 234 88 12
0.0072359233 0.010130293 1.9702281 234 88 12
0.013024662 0.010130293 1.9702281 234 88 12
0.021707769 0.010130293 1.9702281 234 88 12
0.027496509 0.010130293 1.9702281 234 88 12
0.033285245 0.010130293 1.9702281 234 88 12
0.039073985 0.010130293 1.9702281 234 88 12
0.059024815 0.013328184 1.7303861 234 88 12
-0.027496509 0.0072359233 1.9702281 234 88 12
-0.024602139 0.0072359233 1.9702281 234 88 12
-0.010827813 0.007734152 1.917914 234 88 12
-0.0048080427 0.0080134049 1.8885925 234 88 12
0.0011376371 0.0056881853 2.1327405 234 88 12
0.0094782887 0.0067702061 2.0191283 234 88 12
0.014894454 0.0067702061 2.0191283 234 88 12
0.020310618 0.0067702061 2.0191283 234 88 12
0.029600887 0.0087061431 1.8158549 234 88 12
0.025726782 0.0067702061 2.0191283 234 88 12
0.033851031 0.0067702061 2.0191283 234 88 12
0.039267194 0.0067702061 2.0191283 234 88 12
0.047487792 0.0071951202 1.9745123 234 88 12
0.070448972 0.0095201321 1.7303861 234 88 12
-0.025966471 0.0022256975 2.340503 234 88 12
-0.03747829 0.0038770644 2.0515137 234 88 12
-0.029724162 0.0038770644 2.0515137 234 88 12
-0.030390877 0.0043415539 1.9702281 234 88 12
-0.024602139 0.0043415539 1.9702281 234 88 12
-0.0188134 0.0043415539 1.9702281 234 88 12
-0.013921474 0.0046404912 1.917914 234 88 12
-0.0093573518 0.0040102936 2.0281987 234 88 12
-0.0069581144 0.0041748686 1.999398 234 88 12
-0.0039270688 0.0039270688 2.042763 234 88 12
-0.0013735885 0.0041207653 2.0088661 234 88 12
0.0013950859 0.0041852579 1.9975798 234 88 12
0.0071788765 0.0043073259 1.976218 234 88 12
0.0091135316 0.003905799 2.0464852 234 88 12
0.01232894 0.0041096471 2.0108118 234 88 12
0.014574281 0.0039748037 2.0344093 234 88 12
0.017066842 0.0039385017 2.0407622 234 88 12
0.021361187 0.0042722374 1.9823585 234 88 12
0.034273773 0.0054116482 1.7829615 234 88 12
0.028434865 0.0040621236 2.0191283 234 88 12
0.033851031 0.0040621236 2.0191283 234 88 12
0.039267194 0.0040621236 2.0191283 234 88 12
0.047487792 0.0043170722 1.9745123 234 88 12
0.05324389 0.0043170722 1.9745123 234 88 12
0.074257024 0.0057120789 1.7303861 234 88 12
-0.01510088 0.0013728073 2.0092762 234 88 12
-0.0096384017 0.0010709335 2.1677599 234 88 12
-0.0084264521 0.0012037788 2.098016 234 88 12
-0.0041134907 0.0013711636 2.010139 234 88 12
0.0013558449 0.0013558449 2.0181813 234 88 12
0.0042298036 0.0014099346 1.9897844 234 88 12
0.0070687174 0.0014137435 1.9877846 234 88 12
0.0096240919 0.0013748703 2.008193 234 88 12
0.012647905 0.0014053228 1.9922055 234 88 12
0.01523854 0.0013853218 2.0027061 234 88 12
0.017625544 0.001355811 2.0181992 234 88 12
0.020896891 0.0013931261 1.9986088 234 88 12
0.023819808 0.0014011653 1.9943882 234 88 12
0.025310351 0.0013321238 2.0306351 234 88 12
0.042092573 0.0011376371 2.1327405 234 88 12
-0.025966471 -0.00074189919 2.340503 234 88 12
-0.0060114209 -0.00018216427 2.6343637 234 88 12
-0.03489358 -0.0012923548 2.0515137 234 88 12
-0.029724162 -0.0012923548 2.0515137 234 88 12
-0.024554743 -0.0012923548 2.0515137 234 88 12
-0.024602139 -0.0014471847 1.9702281 234 88 12
-0.0188134 -0.0014471847 1.9702281 234 88 12
-0.015829265 -0.001439024 1.9745123 234 88 12
-0.012355265 -0.0013728073 2.0092762 234 88 12
-0.0097034192 -0.0013862028 2.0022435 234 88 12
-0.0066707209 -0.0013341442 2.0295744 234 88 12
-0.0040675346 -0.0013558449 2.0181813 234 88 12
0.0013514376 -0.0013514376 2.0204952 234 88 12
0.0042298036 -0.0014099346 1.9897844 234 88 12
0.007113216 -0.0014226432 1.9831123 234 88 12
0.012545553 -0.0013939503 1.9981761 234 88 12
0.015333453 -0.0013939503 1.9981761 234 88 12
0.020941604 -0.0013961069 1.9970438 234 88 12
0.023819808 -0.0014011653 1.9943882 234 88 12
0.027884943 -0.0014676286 1.9594949 234 88 12
0.028434865 -0.0013540412 2.0191283 234 88 12
0.033851031 -0.0013540412 2.0191283 234 88 12
0.038853649 -0.001439024 1.9745123 234 88 12
0.044609744 -0.001439024 1.9745123 234 88 12
0.053545833 -0.0014471847 1.9702281 234 88 12
0.074257024 -0.0019040264 1.7303861 234 88 12
-0.0094782887 -0.0040621236 2.0191283 234 88 12
-0.0062157819 -0.0037294691 2.077343 234 88 12
-0.0039270688 -0.0039270688 2.042763 234 88 12
-0.0013377949 -0.0040133847 2.0276577 234 88 12
0.0013761249 -0.0041283746 2.0075345 234 88 12
0.0042679296 -0.0042679296 1.9831123 234 88 12
0.012595376 -0.0041984585 1.9952698 234 88 12
0.015394348 -0.0041984585 1.9952698 234 88 12
0.025373833 -0.0050747669 1.8419158 234 88 12
0.022725256 -0.0040103393 2.0281906 234 88 12
0.030219505 -0.0043170722 1.9745123 234 88 12
0.033097554 -0.0043170722 1.9745123 234 88 12
0.037542023 -0.0034129112 2.1327405 234 88 12
0.039817296 -0.0034129112 2.1327405 234 88 12
-0.024482673 -0.003709496 2.340503 234 88 12
-0.021202089 -0.0046091499 2.2460394 234 88 12
-0.027139451 -0.006461774 2.0515137 234 88 12
-0.024554743 -0.006461774 2.0515137 234 88 12
-0.016800612 -0.006461774 2.0515137 234 88 12
-0.013024662 -0.0072359233 1.9702281 234 88 12
-0.010073168 -0.0071951202 1.9745123 234 88 12
-0.0040621236 -0.0067702061 2.0191283 234 88 12
-0.001258162 -0.0062908097 2.0694649 234 88 12
0.0014225858 -0.0071129287 1.9831425 234 88 12
0.0046872338 -0.0078120562 1.9097341 234 88 12
0.0066165696 -0.0066165696 2.0352602 234 88 12
0.0099370889 -0.0070979209 1.9847183 234 88 12
0.012272442 -0.006818023 2.0141075 234 88 12
0.015345289 -0.0069751316 1.9976112 234 88 12
0.017430706 -0.0058102352 2.1199253 234 88 12
0.027576815 -0.0081108278 1.878363 234 88 12
0.027341457 -0.0071951202 1.9745123 234 88 12
0.033097554 -0.0071951202 1.9745123 234 88 12
0.030716201 -0.0056881853 2.1327405 234 88 12
0.050651465 -0.0072359233 1.9702281 234 88 12
0.070448972 -0.0095201321 1.7303861 234 88 12
-0.018547479 -0.0051932945 2.340503 234 88 12
-0.036176499 -0.013328184 1.7303861 234 88 12
-0.01567111 -0.0064528096 2.2460394 234 88 12
-0.01198379 -0.0064528096 2.2460394 234 88 12
-0.014586911 -0.011345374 1.8790969 234 88 12
-0.0090464838 -0.0090464838 2.0515137 234 88 12
-0.0072359233 -0.010130293 1.9702281 234 88 12
-0.0034129112 -0.0079634599 2.1327405 234 88 12
-0.001439024 -0.010073168 1.9745123 234 88 12
0.001439024 -0.010073168 1.9745123 234 88 12
0.0088556623 -0.012397926 1.8001555 234 88 12
0.012107431 -0.012107431 1.8219427 234 88 12
0.012951217 -0.010073168 1.9745123 234 88 12
0.017602535 -0.0094782887 2.0191283 234 88 12
0.027140437 -0.012665537 1.7800847 234 88 12
0.02446341 -0.010073168 1.9745123 234 88 12
0.021615105 -0.0079634599 2.1327405 234 88 12
0.026165653 -0.0079634599 2.1327405 234 88 12
0.032991476 -0.0079634599 2.1327405 234 88 12
0.059024815 -0.013328184 1.7303861 234 88 12
-0.020031277 -0.0066770925 2.340503 234 88 12
-0.018547479 -0.0066770925 2.340503 234 88 12
-0.0046091499 -0.0082964692 2.2460394 234 88 12
-0.0019040264 -0.017136237 1.7303861 234 88 12
0.0019040264 -0.017136237 1.7303861 234 88 12
0.0095201321 -0.017136237 1.7303861 234 88 12
0.013328184 -0.017136237 1.7303861 234 88 12
0.02094429 -0.017136237 1.7303861 234 88 12
0.028560394 -0.017136237 1.7303861 234 88 12
0.032368448 -0.017136237 1.7303861 234 88 12
0.039984554 -0.017136237 1.7303861 234 88 12
-0.011128488 -0.008160891 2.340503 234 88 12
-0.0095201321 -0.02094429 1.7303861 234 88 12
-0.0022256975 -0.008160891 2.340503 234 88 12
-1.3786664 0.066718623 1.5123692 234 88 12
-1.3948498 0.061784357 1.6372834 234 88 12
-1.3808222 0.069522992 1.510901 234 88 12
-1.3809398 0.066817462 1.510901 234 88 12
-1.3749299 0.064100713 1.4617544 234 88 12
-1.3750548 0.061225377 1.4617544 234 88 12
-1.3984723 0.0664967 1.6348164 234 88 12
-1.3773459 0.064205758 1.4601941 234 88 12
-1.377471 0.061330423 1.4601941 234 88 12
-1.3988676 0.057404194 1.6348164 234 88 12
-1.3989664 0.05513107 1.6348164 234 88 12
1.2433796 0.15237227 2.317764 234 88 12
1.2437444 0.15204987 2.3175952 234 88 12
1.2106339 0.15042299 2.0033178 234 88 12
1.2104536 0.15189581 2.0033178 234 88 12
1.2122998 0.14763716 2.0026307 234 88 12
1.211759 0.15205558 2.0026307 234 88 12
1.2139657 0.14485133 2.0019436 234 88 12
1.1820779 0.15119545 1.6920226 234 88 12
1.2451593 0.1511219 2.3169203 234 88 12
1.1849799 0.14634265 1.6908256 234 88 12
1.1843518 0.15147378 1.6908256 234 88 12
1.2167567 0.14369807 2.0005693 234 88 12
1.2165765 0.14517088 2.0005693 234 88 12
1.1875678 0.14405541 1.6896287 234 88 12
1.1856836 0.15944879 1.6896287 234 88 12
1.214954 0.15842614 2.0005693 234 88 12
1.2162594 0.15858592 1.9998822 234 88 12
1.1924297 0.1420465 1.6872349 234 88 12
1.1918015 0.14717762 1.6872349 234 88 12
1.1835475 0.15215527 1.599488 234 88 12
1.1905454 0.15743989 1.6872349 234 88 12
1.1902314 0.16000545 1.6872349 234 88 12
1.1864455 0.14959399 1.5981476 234 88 12
1.1860938 0.15246692 1.5981476 234 88 12
1.1928194 0.15771821 1.6860379 234 88 12
1.2223388 0.14139156 1.997821 234 88 12
1.1972915 0.1400376 1.684841 234 88 12
1.2133394 0.14758313 1.8955153 234 88 12
1.2122195 0.15673314 1.8955153 234 88 12
1.1941513 0.16569322 1.684841 234 88 12
1.1998794 0.13775036 1.6836442 234 88 12
1.2154094 0.14412166 1.8946615 234 88 12
1.1847345 0.14337777 1.4966098 234 88 12
1.1918898 0.14734441 1.5954671 234 88 12
1.1911865 0.15309027 1.5954671 234 88 12
1.1827654 0.15946537 1.4966098 234 88 12
1.1970532 0.16084042 1.6836442 234 88 12
1.2251298 0.14023831 1.9964467 234 88 12
1.2172554 0.14249018 1.8938078 234 88 12
1.1947877 0.14478315 1.5941268 234 88 12
1.1930295 0.1591478 1.5941268 234 88 12
1.1986991 0.16624987 1.6824472 234 88 12
1.2224257 0.16233042 1.9964467 234 88 12
1.2050552 0.13317588 1.6812503 234 88 12
1.1976857 0.1422219 1.5927864 234 88 12
1.1973341 0.14509483 1.5927864 234 88 12
1.1966308 0.15084068 1.5927864 234 88 12
1.1962792 0.1537136 1.5927864 234 88 12
1.1955758 0.15945946 1.5927864 234 88 12
1.2168614 0.15915874 1.892954 234 88 12
1.201287 0.16396263 1.6812503 234 88 12
1.1834602 0.13526347 1.3300012 234 88 12
1.1829976 0.13904332 1.3300012 234 88 12
1.1988255 0.15402527 1.5914462 234 88 12
1.1981223 0.15977113 1.5914462 234 88 12
1.2035609 0.16424096 1.6800534 234 88 12
1.229046 0.14071764 1.9943854 234 88 12
1.2225692 0.13942575 1.8912466 234 88 12
1.2034817 0.13709937 1.5901059 234 88 12
1.1868104 0.13567352 1.3282378 234 88 12
1.203072 0.14290582 1.5947837 234 88 12
1.2027222 0.14576255 1.5947837 234 88 12
1.1854224 0.14701305 1.3282378 234 88 12
1.1906232 0.13230374 1.3264744 234 88 12
1.2052542 0.14607246 1.5934509 234 88 12
1.1883099 0.15120296 1.3264744 234 88 12
1.2039182 0.15464862 1.5887655 234 88 12
1.2035666 0.15752155 1.5887655 234 88 12
1.2084855 0.14066891 1.5921181 234 88 12
1.2077862 0.14638238 1.5921181 234 88 12
1.19166 0.15161301 1.324711 234 88 12
1.2233492 0.15995285 1.889539 234 88 12
1.2100686 0.16764149 1.6764627 234 88 12
1.2097546 0.17020705 1.6764627 234 88 12
1.2274351 0.14002134 1.8886853 234 88 12
1.1977861 0.129344 1.3229475 234 88 12
1.2113671 0.1381221 1.5907854 234 88 12
1.2110175 0.14097883 1.5907854 234 88 12
1.2199166 0.14587851 1.764382 234 88 12
1.2096188 0.15240574 1.5907854 234 88 12
1.2090108 0.15527195 1.586085 234 88 12
1.2086592 0.15814488 1.586085 234 88 12
1.2249712 0.16015136 1.8886853 234 88 12
1.2123425 0.16791981 1.6752658 234 88 12
1.2120285 0.17048538 1.6752658 234 88 12
1.2290571 0.14021987 1.8878316 234 88 12
1.2011362 0.12975407 1.3211842 234 88 12
1.2219182 0.14612351 1.7633284 234 88 12
1.2216419 0.14838193 1.7633284 234 88 12
1.2079413 0.15575022 1.5149755 234 88 12
1.2112055 0.15845655 1.5847446 234 88 12
1.2044864 0.13016412 1.3194207 234 88 12
1.2164311 0.13874193 1.5881199 234 88 12
1.2241964 0.1441101 1.7622747 234 88 12
1.2230906 0.15314378 1.7622747 234 88 12
1.210454 0.15610188 1.5084641 234 88 12
1.2284391 0.15871842 1.8869778 234 88 12
1.2172043 0.1659109 1.6728719 234 88 12
1.218963 0.13905184 1.5867871 234 88 12
1.2204231 0.14528644 1.6359727 234 88 12
1.2045981 0.15703309 1.3176574 234 88 12
1.2162982 0.15907989 1.582064 234 88 12
1.2197922 0.16362366 1.671675 234 88 12
1.2116494 0.12720439 1.3158939 234 88 12
1.2218447 0.13650502 1.5854543 234 88 12
1.2231345 0.14289002 1.6347187 234 88 12
1.2228055 0.14557804 1.6347187 234 88 12
1.2079482 0.15744314 1.3158939 234 88 12
1.2188445 0.15939155 1.5807236 234 88 12
1.2304778 0.14258669 1.7591139 234 88 12
1.22453 0.1512457 1.6334646 234 88 12
1.2290957 0.15387878 1.7591139 234 88 12
1.2112983 0.1578532 1.3141305 234 88 12
1.2505745 0.15472111 2.3138835 234 88 12
1.2183497 0.1280245 1.3123671 234 88 12
1.2239372 0.1600149 1.5780431 234 88 12
1.2294407 0.13743475 1.5814562 234 88 12
1.2344812 0.14307669 1.7570066 234 88 12
1.2302818 0.14376485 1.6309565 234 88 12
1.2299528 0.14645287 1.6309565 234 88 12
1.2292948 0.15182891 1.6309565 234 88 12
1.2330991 0.15436879 1.7570066 234 88 12
1.2179986 0.1586733 1.3106036 234 88 12
1.22505 0.1288446 1.3088403 234 88 12
1.2319726 0.13774467 1.5801234 234 88 12
1.2213488 0.15908337 1.3088403 234 88 12
1.2290299 0.16063824 1.5753624 234 88 12
0.14612953 1.2244087 1.9964467 234 88 12
0.14465673 1.224589 1.9964467 234 88 12
0.1372927 1.2254903 1.9964467 234 88 12
0.13107358 1.1805727 1.3317646 234 88 12
0.14085871 1.2191013 1.892954 234 88 12
0.12351388 1.1814981 1.3317646 234 88 12
0.13156125 1.2275168 1.9957596 234 88 12
0.13904332 1.1829976 1.3300012 234 88 12
0.13739723 1.2211713 1.8921003 234 88 12
0.11636426 1.1857735 1.3300012 234 88 12
0.14966683 1.2482653 2.315402 234 88 12
0.13613945 1.2282814 1.9950725 234 88 12
0.13172102 1.2288222 1.9950725 234 88 12
0.15544571 1.2272432 1.9943854 234 88 12
0.1507929 1.1849598 1.3282378 234 88 12
0.14323321 1.1858851 1.3282378 234 88 12
0.14674577 1.2216733 1.8912466 234 88 12
0.14491576 1.2218972 1.8912466 234 88 12
0.14308576 1.2221212 1.8912466 234 88 12
0.13759576 1.2227932 1.8912466 234 88 12
0.10921462 1.1900489 1.3282378 234 88 12
0.12451677 1.2310289 1.9943854 234 88 12
0.17766187 1.1850713 1.3264744 234 88 12
0.17388202 1.185534 1.3264744 234 88 12
0.16632234 1.1864593 1.3264744 234 88 12
0.16254249 1.186922 1.3264744 234 88 12
0.15498281 1.1878473 1.3264744 234 88 12
0.1524343 1.2226232 1.8903928 234 88 12
0.14990534 1.2153604 1.7664893 234 88 12
0.14764692 1.2156368 1.7664893 234 88 12
0.14321573 1.2056038 1.5934509 234 88 12
0.13750227 1.2063032 1.5934509 234 88 12
0.13178882 1.2070025 1.5934509 234 88 12
0.12321863 1.2080516 1.5934509 234 88 12
0.12374859 1.2131331 1.6776595 234 88 12
0.11464845 1.2091005 1.5934509 234 88 12
0.098285146 1.194787 1.3264744 234 88 12
0.1931913 1.1865709 1.324711 234 88 12
0.1856316 1.1874962 1.324711 234 88 12
0.1682177 1.2151506 1.7654356 234 88 12
0.16637947 1.2053386 1.5921181 234 88 12
0.16352274 1.2056882 1.5921181 234 88 12
0.15495256 1.2067372 1.5921181 234 88 12
0.14923909 1.2074366 1.5921181 234 88 12
0.14352565 1.2081358 1.5921181 234 88 12
0.13781218 1.2088351 1.5921181 234 88 12
0.13428918 1.2141509 1.6764627 234 88 12
0.13172361 1.2144649 1.6764627 234 88 12
0.12146136 1.215721 1.6764627 234 88 12
0.1188958 1.216035 1.6764627 234 88 12
0.20872073 1.1880704 1.3229475 234 88 12
0.20494089 1.1885331 1.3229475 234 88 12
0.20116104 1.1889957 1.3229475 234 88 12
0.17975479 1.2157701 1.764382 234 88 12
0.17523795 1.216323 1.764382 234 88 12
0.17811629 1.2064719 1.5907854 234 88 12
0.17525956 1.2068216 1.5907854 234 88 12
0.16101781 1.2083075 1.586085 234 88 12
0.15527195 1.2090108 1.586085 234 88 12
0.15239902 1.2093625 1.586085 234 88 12
0.14952609 1.2097142 1.586085 234 88 12
0.14378023 1.2104174 1.586085 234 88 12
0.13969862 1.2157967 1.6752658 234 88 12
0.13713306 1.2161108 1.6752658 234 88 12
0.13200194 1.2167388 1.6752658 234 88 12
0.12430525 1.2176809 1.6752658 234 88 12
0.11917412 1.2183089 1.6752658 234 88 12
0.11147743 1.219251 1.6752658 234 88 12
0.12205049 1.2353055 1.992324 234 88 12
0.21669047 1.1904953 1.3211842 234 88 12
0.18903348 1.2166661 1.7633284 234 88 12
0.18677506 1.2169425 1.7633284 234 88 12
0.18225822 1.2174954 1.7633284 234 88 12
0.1869964 1.2079549 1.5894526 234 88 12
0.17720929 1.2059609 1.5275147 234 88 12
0.17282119 1.2094473 1.5847446 234 88 12
0.16994826 1.2097989 1.5847446 234 88 12
0.16620739 1.213026 1.6384808 234 88 12
0.16351937 1.2133551 1.6384808 234 88 12
0.15545531 1.2143421 1.6384808 234 88 12
0.15007927 1.2150002 1.6384808 234 88 12
0.13834605 1.213667 1.5847446 234 88 12
0.12972726 1.2147219 1.5847446 234 88 12
0.1239814 1.2154253 1.5847446 234 88 12
0.1091902 1.221839 1.6740688 234 88 12
0.22466022 1.1929202 1.3194207 234 88 12
0.19301976 1.2097875 1.5881199 234 88 12
0.1873063 1.2104869 1.5881199 234 88 12
0.18175165 1.2109387 1.5834043 234 88 12
0.17456307 1.2144215 1.6372267 234 88 12
0.16918702 1.2150795 1.6372267 234 88 12
0.16381098 1.2157376 1.6372267 234 88 12
0.16112296 1.2160666 1.6372267 234 88 12
0.15574692 1.2167246 1.6372267 234 88 12
0.15037087 1.2173826 1.6372267 234 88 12
0.14668663 1.2114521 1.5052733 234 88 12
0.14153065 1.2158617 1.5834043 234 88 12
0.13578479 1.216565 1.5834043 234 88 12
0.13003893 1.2172683 1.5834043 234 88 12
0.12429307 1.2179716 1.5834043 234 88 12
0.11854722 1.2186749 1.5834043 234 88 12
0.11716521 1.2231708 1.6728719 234 88 12
0.19904312 1.2116202 1.5867871 234 88 12
0.19332968 1.2123195 1.5867871 234 88 12
0.18780918 1.2127818 1.582064 234 88 12
0.18291874 1.2158169 1.6359727 234 88 12
0.18023072 1.2161459 1.6359727 234 88 12
0.17485468 1.2168039 1.6359727 234 88 12
0.1674291 1.2159996 1.5980673 234 88 12
0.16558272 1.2129518 1.5256345 234 88 12
0.16200441 1.2157067 1.5768962 234 88 12
0.15978712 1.2113347 1.4741637 234 88 12
0.15666789 1.2099257 1.4345411 234 88 12
0.15057375 1.2187022 1.6122172 234 88 12
0.14769717 1.2183789 1.5972744 234 88 12
0.14397112 1.2149732 1.5118332 234 88 12
0.15121028 1.2474502 2.249984 234 88 12
0.22926018 1.1991578 1.3158939 234 88 12
0.19654375 1.2218419 1.7601675 234 88 12
0.19428533 1.2221183 1.7601675 234 88 12
0.20220977 1.2138025 1.5854543 234 88 12
0.1938667 1.2146248 1.5807236 234 88 12
0.17679796 1.220395 1.6682715 234 88 12
0.1726072 1.2233845 1.727175 234 88 12
0.17914873 1.2069942 1.356391 234 88 12
0.1747731 1.2090278 1.3920217 234 88 12
0.17059514 1.2111506 1.4303495 234 88 12
0.16734706 1.2111212 1.4201918 234 88 12
0.16328892 1.2142018 1.4816482 234 88 12
0.15981336 1.2162284 1.5197304 234 88 12
0.15365189 1.2156318 1.4876038 234 88 12
0.14826608 1.2224765 1.6347187 234 88 12
0.14422686 1.2174051 1.5023422 234 88 12
0.14005975 1.2147512 1.4270931 234 88 12
0.13829581 1.218998 1.5229594 234 88 12
0.13353521 1.2220093 1.5807236 234 88 12
0.13066228 1.222361 1.5807236 234 88 12
0.12491641 1.2230643 1.5807236 234 88 12
0.11917055 1.2237675 1.5807236 234 88 12
0.11259073 1.2283467 1.6704781 234 88 12
0.12563521 1.2401665 1.9895756 234 88 12
0.20537642 1.2159848 1.5841216 234 88 12
0.19966295 1.2166841 1.5841216 234 88 12
0.1970513 1.2168195 1.5793834 234 88 12
0.19156604 1.2195947 1.6334646 234 88 12
0.1879417 1.2120308 1.4276254 234 88 12
0.18318637 1.2097734 1.3546395 234 88 12
0.17254001 1.2222586 1.6420761 234 88 12
0.17244872 1.2175028 1.5195415 234 88 12
0.16748327 1.2148316 1.4352525 234 88 12
0.16323604 1.2185581 1.5176802 234 88 12
0.1600465 1.2195133 1.5321997 234 88 12
0.15746064 1.2153064 1.4159232 234 88 12
0.1539723 1.2207644 1.5452504 234 88 12
0.15062444 1.2165006 1.4251144 234 88 12
0.14464672 1.2204928 1.5089277 234 88 12
0.1404285 1.2177639 1.4255074 234 88 12
0.13862894 1.2217195 1.5215267 234 88 12
0.1355582 1.2220954 1.5215267 234 88 12
0.1231313 1.2293645 1.6692811 234 88 12
0.11800018 1.2299925 1.6692811 234 88 12
0.12726779 1.2412916 1.9888885 234 88 12
0.23008028 1.2058581 1.3123671 234 88 12
0.20854305 1.2181672 1.5827888 234 88 12
0.19185764 1.2219772 1.6322106 234 88 12
0.1864816 1.2226353 1.6322106 234 88 12
0.18110555 1.2232933 1.6322106 234 88 12
0.17549312 1.2272979 1.7249624 234 88 12
0.183589 1.2129903 1.3526707 234 88 12
0.17960463 1.2139733 1.3665196 234 88 12
0.17552055 1.215295 1.3894937 234 88 12
0.17200398 1.2157254 1.3894937 234 88 12
0.16849744 1.2161298 1.3888007 234 88 12
0.16486219 1.2169514 1.3993312 234 88 12
0.16077366 1.2202891 1.478651 234 88 12
0.15740021 1.2220685 1.516855 234 88 12
0.15437157 1.2200824 1.4509666 234 88 12
0.1511995 1.2223184 1.5026224 234 88 12
0.1481107 1.2229435 1.509529 234 88 12
0.14565025 1.2256954 1.5780431 234 88 12
0.14277732 1.226047 1.5780431 234 88 12
0.13110632 1.2306963 1.6680843 234 88 12
0.12340963 1.2316384 1.6680843 234 88 12
0.1182785 1.2322664 1.6680843 234 88 12
0.2034205 1.2212088 1.5767027 234 88 12
0.19752529 1.2237016 1.6309565 234 88 12
0.19483727 1.2240306 1.6309565 234 88 12
0.18677321 1.2250177 1.6309565 234 88 12
0.18139715 1.2256757 1.6309565 234 88 12
0.17718138 1.2248598 1.5901612 234 88 12
0.17619398 1.2225815 1.51667 234 88 12
0.17639965 1.2175996 1.3648424 234 88 12
0.16872302 1.2196121 1.3977064 234 88 12
0.16503832 1.2206409 1.4154015 234 88 12
0.15989299 1.2283078 1.6309565 234 88 12
0.15745364 1.2268351 1.5767027 234 88 12
0.15458071 1.2271868 1.5767027 234 88 12
0.14596193 1.2282417 1.5767027 234 88 12
0.14421245 1.2314001 1.6668874 234 88 12
0.13651577 1.2323421 1.6668874 234 88 12
0.11855683 1.2345403 1.6668874 234 88 12
0.12677102 1.2405808 1.882709 234 88 12
0.20916288 1.2232311 1.5801234 234 88 12
0.20630614 1.2235807 1.5801234 234 88 12
0.17900075 1.2283871 1.6297024 234 88 12
0.1778758 1.22692 1.5753624 234 88 12
0.17500287 1.2272717 1.5753624 234 88 12
0.16925701 1.2279749 1.5753624 234 88 12
0.16631195 1.228476 1.5801234 234 88 12
0.16664305 1.2204235 1.3088403 234 88 12
0.16286321 1.2208861 1.3088403 234 88 12
0.15530352 1.2218114 1.3088403 234 88 12
0.15152368 1.2222741 1.3088403 234 88 12
0.15075958 1.2392908 1.8818552 234 88 12
0.14345811 1.2312733 1.5801234 234 88 12
0.13679409 1.234616 1.6656904 234 88 12
0.13166296 1.2352442 1.6656904 234 88 12
0.12396628 1.2361861 1.6656904 234 88 12
