ply
format ascii 1.0
element vertex 493
property float x
property float y
property float z
property uchar red
property uchar green
property uchar blue
end_header
-0.024679247 0.028476054 1.7333381 234 88 12
-0.012247371 0.016700961 2.1454663 234 88 12
-0.0094920183 0.028476054 1.7333381 234 88 12
-0.018927755 0.014474167 2.1454663 234 88 12
-0.015616247 0.018455565 1.9846791 234 88 12
-0.0099376123 0.018455565 1.9846791 234 88 12
-0.0056952108 0.024679247 1.7333381 234 88 12
-0.0014076208 0.00067320996 2.6978695 234 88 12
-0.023381345 0.012247371 2.1454663 234 88 12
-0.018927755 0.012247371 2.1454663 234 88 12
-0.021294883 0.015616247 1.9846791 234 88 12
-0.00772468 0.00772468 2.3613222 234 88 12
-0.0063201929 0.00772468 2.3613222 234 88 12
-0.0042589768 0.015616247 1.9846791 234 88 12
0.0018984036 0.020882441 1.7333381 234 88 12
-0.04746009 0.017085632 1.7333381 234 88 12
-0.025608141 0.010020576 2.1454663 234 88 12
-0.0091291675 0.0063201929 2.3613222 234 88 12
-0.0063201929 0.0063201929 2.3613222 234 88 12
-0.0011133974 0.010020576 2.1454663 234 88 12
0.0018984036 0.017085632 1.7333381 234 88 12
0.0094920183 0.017085632 1.7333381 234 88 12
0.013288826 0.017085632 1.7333381 234 88 12
0.00055080815 0.00055080815 2.6978695 234 88 12
-0.024134202 0.0099376123 1.9846791 234 88 12
-0.0014196589 0.0099376123 1.9846791 234 88 12
0.0011133974 0.0077937818 2.1454663 234 88 12
0.020882441 0.013288826 1.7333381 234 88 12
0.028476054 0.013288826 1.7333381 234 88 12
0.013581404 0.0055923425 2.3105743 234 88 12
-0.030061729 0.0055669867 2.1454663 234 88 12
-0.023381345 0.0055669867 2.1454663 234 88 12
-0.01014898 0.0072492715 1.9688265 234 88 12
-0.0043312535 0.0072187553 1.9720306 234 88 12
0.0014196589 0.0070982943 1.9846791 234 88 12
0.0033401921 0.0055669867 2.1454663 234 88 12
0.0064686243 0.0064686243 2.0507944 234 88 12
0.01357207 0.0075400388 1.938296 234 88 12
0.016818423 0.0064686243 2.0507944 234 88 12
0.02011206 0.0067040198 2.026078 234 88 12
0.021993322 0.0064686243 2.0507944 234 88 12
0.036069669 0.0094920183 1.7333381 234 88 12
0.039866477 0.0094920183 1.7333381 234 88 12
0.019972652 0.0039945305 2.3105743 234 88 12
-0.024134202 0.0042589768 1.9846791 234 88 12
-0.012181974 0.0040606582 2.0193849 234 88 12
-0.010654667 0.0045662858 1.9309 234 88 12
-0.006817847 0.0040907082 2.0141261 234 88 12
-0.0046900762 0.0046900762 1.9092367 234 88 12
-0.0013373821 0.0040121465 2.0278745 234 88 12
0.0013939084 0.0041817254 1.998198 234 88 12
0.0042339768 0.0042339768 1.9890541 234 88 12
0.0067219548 0.004033173 2.0241947 234 88 12
0.0097890943 0.004195326 1.9958179 234 88 12
0.015382863 0.004195326 1.9958179 234 88 12
0.01898117 0.0043802699 1.9634527 234 88 12
0.021556526 0.004311305 1.9755216 234 88 12
0.023365559 0.0041233338 2.0084167 234 88 12
0.024580771 0.0038811746 2.0507944 234 88 12
0.027168222 0.0038811746 2.0507944 234 88 12
0.032343119 0.0038811746 2.0507944 234 88 12
0.051256899 0.0056952108 1.7333381 234 88 12
-0.055053703 0.0018984036 1.7333381 234 88 12
-0.011914307 0.0013238119 2.0349987 234 88 12
-0.010789985 0.0015414264 1.9207511 234 88 12
-0.0070852283 0.0014170457 1.986051 234 88 12
-0.0041330019 0.0013776673 2.0067246 234 88 12
0.0013611593 0.0013611593 2.0153913 234 88 12
0.0044304784 0.0014768261 1.9546663 234 88 12
0.0070512937 0.0014102587 1.9896141 234 88 12
0.009879279 0.0014113256 1.9890541 234 88 12
0.015389054 0.0013990049 1.9955224 234 88 12
0.018004112 0.0013849317 2.0029109 234 88 12
0.02190135 0.00146009 1.9634527 234 88 12
0.027909588 0.0014689257 1.958814 234 88 12
0.04010547 0.0012937249 2.0507944 234 88 12
0.026363902 0.00079890608 2.3105743 234 88 12
-0.0020196298 -6.120091e-05 2.6978695 234 88 12
-0.033991367 -0.0011721161 2.114639 234 88 12
-0.030061729 -0.0011133974 2.1454663 234 88 12
-0.023381345 -0.0011133974 2.1454663 234 88 12
-0.024134202 -0.0014196589 1.9846791 234 88 12
-0.0091291675 -0.00070224365 2.3613222 234 88 12
-0.010233528 -0.0011370586 2.1330442 234 88 12
-0.0086538047 -0.0012362577 2.0809646 234 88 12
-0.0039549568 -0.00079099141 2.3147295 234 88 12
-0.0040679621 -0.0013559874 2.0181067 234 88 12
0.0013801706 -0.0013801706 2.0054104 234 88 12
0.0043781432 -0.001459381 1.963825 234 88 12
0.0070512937 -0.0014102587 1.9896141 234 88 12
0.012525875 -0.0013917639 1.999324 234 88 12
0.015394413 -0.001399492 1.9952667 234 88 12
0.022645356 -0.0015096904 1.9374125 234 88 12
0.02283518 -0.0013432459 2.024796 234 88 12
0.024580771 -0.0012937249 2.0507944 234 88 12
0.027168222 -0.0012937249 2.0507944 234 88 12
0.032343119 -0.0012937249 2.0507944 234 88 12
0.04010547 -0.0012937249 2.0507944 234 88 12
0.027961712 -0.00079890608 2.3105743 234 88 12
-0.0075041223 -0.0025013741 2.2922595 234 88 12
-0.007286821 -0.0031229234 2.1834884 234 88 12
-0.0054663359 -0.0032798015 2.1560347 234 88 12
-0.0040502604 -0.0040502604 2.0212045 234 88 12
-0.0013675113 -0.0041025337 2.0120566 234 88 12
0.001344058 -0.0040321737 2.0243695 234 88 12
0.0042873044 -0.0042873044 1.9797217 234 88 12
0.017827578 -0.0041140565 2.01004 234 88 12
0.021299094 -0.0042598192 1.9845316 234 88 12
0.024298593 -0.004287987 1.9796022 234 88 12
0.066444129 -0.0056952108 1.7333381 234 88 12
-0.018927755 -0.0055669867 2.1454663 234 88 12
-0.021294883 -0.0070982943 1.9846791 234 88 12
-0.0063201929 -0.0035112181 2.3613222 234 88 12
-0.001467724 -0.0073386198 1.9594449 234 88 12
0.0012573665 -0.006286832 2.0698826 234 88 12
0.0050702142 -0.0084503563 1.8427125 234 88 12
0.0063612382 -0.0063612382 2.0620699 234 88 12
0.010133582 -0.007238273 1.9699813 234 88 12
0.012382842 -0.0068793562 2.0076675 234 88 12
0.015943902 -0.0072472277 1.9690411 234 88 12
0.018459216 -0.0070996983 1.9845316 234 88 12
0.026514918 -0.0088383052 1.8019779 234 88 12
0.020079685 -0.0059057898 2.1098921 234 88 12
0.024580771 -0.0064686243 2.0507944 234 88 12
0.027168222 -0.0064686243 2.0507944 234 88 12
0.032343119 -0.0064686243 2.0507944 234 88 12
0.058850512 -0.0094920183 1.7333381 234 88 12
-0.025608141 -0.0077937818 2.1454663 234 88 12
-0.023381345 -0.0077937818 2.1454663 234 88 12
-0.018927755 -0.0077937818 2.1454663 234 88 12
-0.018455565 -0.0099376123 1.9846791 234 88 12
-0.0070982943 -0.0099376123 1.9846791 234 88 12
-0.0042589768 -0.0099376123 1.9846791 234 88 12
0.0011133974 -0.0077937818 2.1454663 234 88 12
0.0090560736 -0.0090560736 2.0507944 234 88 12
0.014230973 -0.0090560736 2.0507944 234 88 12
0.028476054 -0.013288826 1.7333381 234 88 12
0.03227286 -0.013288826 1.7333381 234 88 12
0.039866477 -0.013288826 1.7333381 234 88 12
0.04746009 -0.013288826 1.7333381 234 88 12
0.021570465 -0.0055923425 2.3105743 234 88 12
-0.039866477 -0.017085632 1.7333381 234 88 12
-0.015616247 -0.01277693 1.9846791 234 88 12
-0.0099376123 -0.01277693 1.9846791 234 88 12
-0.0042589768 -0.01277693 1.9846791 234 88 12
-0.0011133974 -0.010020576 2.1454663 234 88 12
0.0018984036 -0.017085632 1.7333381 234 88 12
0.0094920183 -0.017085632 1.7333381 234 88 12
0.013288826 -0.017085632 1.7333381 234 88 12
0.020882441 -0.017085632 1.7333381 234 88 12
0.0011628172 -0.00055080815 2.6978695 234 88 12
-0.015179216 -0.0087879673 2.3105743 234 88 12
-0.028476054 -0.020882441 1.7333381 234 88 12
-0.012247371 -0.012247371 2.1454663 234 88 12
-0.0056952108 -0.020882441 1.7333381 234 88 12
0.0018984036 -0.020882441 1.7333381 234 88 12
0.0094920183 -0.020882441 1.7333381 234 88 12
0.0055923425 -0.0087879673 2.3105743 234 88 12
0.0071901549 -0.0087879673 2.3105743 234 88 12
-0.011983591 -0.010385779 2.3105743 234 88 12
-0.0055923425 -0.010385779 2.3105743 234 88 12
-1.387691 0.06162934 1.5443798 234 88 12
1.1868159 0.14638709 1.7958738 234 88 12
1.1890454 0.14441657 1.7948426 234 88 12
1.1879632 0.15325777 1.7948426 234 88 12
1.191275 0.14244606 1.7938114 234 88 12
1.2513045 0.1532204 2.3852513 234 88 12
1.1935046 0.14047554 1.7927803 234 88 12
1.1918813 0.15373734 1.7927803 234 88 12
1.1932993 0.15839772 1.7917491 234 88 12
1.1976931 0.1387448 1.790718 234 88 12
1.1993816 0.14119489 1.7896868 234 88 12
1.1991763 0.15911707 1.7886556 234 88 12
1.2041113 0.13504356 1.7876244 234 88 12
1.2219865 0.14886276 2.0210187 234 88 12
1.188091 0.14685172 1.6137729 234 88 12
1.1874012 0.15248829 1.6137729 234 88 12
1.2063409 0.13307305 1.7865932 234 88 12
1.2239047 0.14343767 2.0203683 234 88 12
1.2235634 0.14622584 2.0203683 234 88 12
1.1909339 0.14433917 1.6124581 234 88 12
1.1892091 0.15843061 1.6124581 234 88 12
1.2221984 0.15737851 2.0203683 234 88 12
1.2028239 0.16180694 1.7865932 234 88 12
1.1951566 0.1305535 1.6111432 234 88 12
1.1948117 0.13337177 1.6111432 234 88 12
1.1937768 0.14182663 1.6111432 234 88 12
1.2041373 0.14620465 1.7521212 234 88 12
1.2035676 0.15085837 1.7521212 234 88 12
1.192397 0.15309978 1.6111432 234 88 12
1.191707 0.15873635 1.6111432 234 88 12
1.2232634 0.15892382 2.0197179 234 88 12
1.2045124 0.16425702 1.785562 234 88 12
1.2042419 0.16646732 1.785562 234 88 12
1.1783743 0.12319385 1.3367354 234 88 12
1.1779131 0.12696254 1.3367354 234 88 12
1.2064844 0.14413022 1.7510357 234 88 12
1.2053452 0.15343767 1.7510357 234 88 12
1.2240595 0.14097041 1.9631881 234 88 12
1.180792 0.13114007 1.3349771 234 88 12
1.1803308 0.13490875 1.3349771 234 88 12
1.1794082 0.14244612 1.3349771 234 88 12
1.1789469 0.1462148 1.3349771 234 88 12
1.1780243 0.15375215 1.3349771 234 88 12
1.1970478 0.15652955 1.6085136 234 88 12
1.1967028 0.15934783 1.6085136 234 88 12
1.196013 0.16498439 1.6085136 234 88 12
1.2029953 0.12865242 1.6071988 234 88 12
1.1813645 0.15416101 1.3332191 234 88 12
1.1992007 0.15965356 1.6071988 234 88 12
1.1985109 0.16529013 1.6071988 234 88 12
1.2101189 0.16718668 1.7824686 234 88 12
1.2054932 0.12895817 1.605884 234 88 12
1.1870112 0.13572644 1.3314608 234 88 12
1.1865499 0.13949512 1.3314608 234 88 12
1.1856273 0.14703248 1.3314608 234 88 12
1.2276942 0.14624451 1.9609683 234 88 12
1.1898901 0.13990396 1.3297026 234 88 12
1.1889676 0.14744133 1.3297026 234 88 12
1.188045 0.15497869 1.3297026 234 88 12
1.1875838 0.15874738 1.3297026 234 88 12
1.2038516 0.16308333 1.6045692 234 88 12
1.2292707 0.16107409 2.0164661 234 88 12
1.210489 0.12956965 1.6032543 234 88 12
1.2296821 0.14165863 1.9602284 234 88 12
1.1927692 0.14408149 1.3279444 234 88 12
1.1923078 0.14785017 1.3279444 234 88 12
1.1913853 0.15538754 1.3279444 234 88 12
1.2060045 0.16620736 1.6032543 234 88 12
1.2129868 0.12987539 1.6019396 234 88 12
1.2305055 0.14658861 1.9594885 234 88 12
1.1942643 0.15956506 1.3261862 234 88 12
1.2088474 0.16369481 1.6019396 234 88 12
1.1985271 0.15243654 1.324428 234 88 12
1.1976045 0.1599739 1.324428 234 88 12
1.2113453 0.16400056 1.6006248 234 88 12
1.2331482 0.16013372 2.0145149 234 88 12
1.2199141 0.1683856 1.7773128 234 88 12
1.2179826 0.13048688 1.5993099 234 88 12
1.219365 0.14794599 1.6720803 234 88 12
1.2325404 0.15327662 1.9580086 234 88 12
1.2014061 0.15661407 1.3226697 234 88 12
1.2009448 0.16038275 1.3226697 234 88 12
1.2088979 0.12310478 1.3209115 234 88 12
1.2084366 0.12687346 1.3209115 234 88 12
1.2351108 0.14393282 1.9572688 234 88 12
1.2347225 0.14710477 1.9572688 234 88 12
1.2167269 0.14439437 1.5517803 234 88 12
1.2210126 0.15336117 1.6708821 234 88 12
1.2047464 0.15702291 1.3209115 234 88 12
1.204285 0.16079159 1.3209115 234 88 12
1.2356194 0.1604362 2.0132141 234 88 12
1.2122382 0.12351362 1.3191534 234 88 12
1.2117769 0.12728231 1.3191534 234 88 12
1.2365165 0.14410488 1.9565289 234 88 12
1.2222338 0.14258593 1.6124109 234 88 12
1.224232 0.14593494 1.6696839 234 88 12
1.2232889 0.15363979 1.6696839 234 88 12
1.2145321 0.15690199 1.47091 234 88 12
1.207164 0.16496912 1.3191534 234 88 12
1.2263323 0.16468434 1.7742192 234 88 12
1.2155784 0.12392247 1.3173952 234 88 12
1.2151171 0.12769115 1.3173952 234 88 12
1.216855 0.13643074 1.3895662 234 88 12
1.2183532 0.14063774 1.4413123 234 88 12
1.217501 0.1572457 1.4716629 234 88 12
1.2109655 0.16160929 1.3173952 234 88 12
1.2105043 0.16537797 1.3173952 234 88 12
1.2189187 0.12433131 1.315637 234 88 12
1.2184573 0.12809999 1.315637 234 88 12
1.2200774 0.13309611 1.3780235 234 88 12
1.2203176 0.13697696 1.3980174 234 88 12
1.2290989 0.14392389 1.6672876 234 88 12
1.2190958 0.15774597 1.4349322 234 88 12
1.2305208 0.16295362 1.7721568 234 88 12
1.2238939 0.13390499 1.3983183 234 88 12
1.2223288 0.13679734 1.3612223 234 88 12
1.2313752 0.14420252 1.6660894 234 88 12
1.2310609 0.14677081 1.6660894 234 88 12
1.2301178 0.15447564 1.6660894 234 88 12
1.2271857 0.15740524 1.5872611 234 88 12
1.2176461 0.16242698 1.3138788 234 88 12
1.2171848 0.16619566 1.3138788 234 88 12
1.2255992 0.125149 1.3121206 234 88 12
1.2251379 0.12891768 1.3121206 234 88 12
1.2259675 0.13358136 1.3595393 234 88 12
1.2263236 0.13763513 1.3883959 234 88 12
1.2252753 0.15843907 1.4391217 234 88 12
0.14714226 1.2218772 1.963928 234 88 12
0.14555629 1.2220714 1.963928 234 88 12
0.13921238 1.2228478 1.963928 234 88 12
0.13286848 1.2236243 1.963928 234 88 12
0.15048628 1.2228947 1.9631881 234 88 12
0.15323071 1.2523962 2.3846846 234 88 12
0.14484389 1.2108653 1.7834997 234 88 12
0.13114007 1.180792 1.3349771 234 88 12
0.13821299 1.211677 1.7834997 234 88 12
0.1315821 1.2124885 1.7834997 234 88 12
0.15201576 1.252545 2.3846846 234 88 12
0.15541625 1.223718 1.9624481 234 88 12
0.15039232 1.1818259 1.3332191 234 88 12
0.14285496 1.1827484 1.3332191 234 88 12
0.13908628 1.1832097 1.3332191 234 88 12
0.13710728 1.2019604 1.6071988 234 88 12
0.12401155 1.1850548 1.3332191 234 88 12
0.12024286 1.1855161 1.3332191 234 88 12
0.12519099 1.2152592 1.7824686 234 88 12
0.16034624 1.2245413 1.9617082 234 88 12
0.16210721 1.1837822 1.3314608 234 88 12
0.15833853 1.1842436 1.3314608 234 88 12
0.15080117 1.1851661 1.3314608 234 88 12
0.1432638 1.1860887 1.3314608 234 88 12
0.1430496 1.2037684 1.605884 234 88 12
0.14023131 1.2041134 1.605884 234 88 12
0.13741302 1.2044584 1.605884 234 88 12
0.13177645 1.2051482 1.605884 234 88 12
0.12985137 1.2166771 1.7814374 234 88 12
0.12543076 1.2172182 1.7814374 234 88 12
0.1738221 1.1857387 1.3297026 234 88 12
0.17005342 1.1861999 1.3297026 234 88 12
0.16251606 1.1871225 1.3297026 234 88 12
0.15497869 1.188045 1.3297026 234 88 12
0.15121001 1.1885064 1.3297026 234 88 12
0.14899191 1.2055764 1.6045692 234 88 12
0.14573917 1.2311478 2.0164661 234 88 12
0.14434509 1.2313184 2.0164661 234 88 12
0.12644562 1.208336 1.6045692 234 88 12
0.11352319 1.1931192 1.3297026 234 88 12
0.11903965 1.2199888 1.7804062 234 88 12
0.185537 1.187695 1.3279444 234 88 12
0.18176831 1.1881564 1.3279444 234 88 12
0.15538754 1.1913853 1.3279444 234 88 12
0.15211594 1.2077293 1.6032543 234 88 12
0.12675136 1.2108339 1.6032543 234 88 12
0.12393308 1.2111789 1.6032543 234 88 12
0.12591033 1.2211362 1.7793751 234 88 12
0.11927944 1.2219479 1.7793751 234 88 12
0.19725189 1.1896515 1.3261862 234 88 12
0.1934832 1.1901127 1.3261862 234 88 12
0.18217716 1.1914966 1.3261862 234 88 12
0.17463979 1.1924192 1.3261862 234 88 12
0.17087111 1.1928804 1.3261862 234 88 12
0.16369481 1.2088474 1.6019396 234 88 12
0.15805824 1.2095373 1.6019396 234 88 12
0.15242168 1.2102273 1.6019396 234 88 12
0.1496034 1.2105722 1.6019396 234 88 12
0.14710087 1.2129548 1.6398839 234 88 12
0.14482047 1.2151266 1.6744766 234 88 12
0.12423883 1.2136768 1.6019396 234 88 12
0.10680351 1.2007222 1.3261862 234 88 12
0.12393982 1.2233658 1.7783439 234 88 12
0.11951922 1.2239069 1.7783439 234 88 12
0.20519809 1.1920692 1.324428 234 88 12
0.20142941 1.1925304 1.324428 234 88 12
0.18362333 1.2126876 1.6732785 234 88 12
0.17591847 1.2136307 1.6732785 234 88 12
0.17078191 1.2142594 1.6732785 234 88 12
0.16307706 1.2152025 1.6732785 234 88 12
0.15794049 1.2158312 1.6732785 234 88 12
0.15280393 1.2164599 1.6732785 234 88 12
0.15023565 1.2167743 1.6732785 234 88 12
0.14898105 1.2345133 2.0145149 234 88 12
0.1447988 1.2350252 2.0145149 234 88 12
0.14061655 1.2355371 2.0145149 234 88 12
0.12172628 1.2165196 1.6006248 234 88 12
0.10721236 1.2040625 1.324428 234 88 12
0.12262855 1.2237689 1.7434368 234 88 12
0.2131443 1.1944869 1.3226697 234 88 12
0.19160679 1.214021 1.6720803 234 88 12
0.18903852 1.2143353 1.6720803 234 88 12
0.18133366 1.2152784 1.6720803 234 88 12
0.1761971 1.2159071 1.6720803 234 88 12
0.17106053 1.2165358 1.6720803 234 88 12
0.16988546 1.2132996 1.6021901 234 88 12
0.16696438 1.2139875 1.6090198 234 88 12
0.16395292 1.2151947 1.6263614 234 88 12
0.16128097 1.2152535 1.6208149 234 88 12
0.15879655 1.2135272 1.5788298 234 88 12
0.1559079 1.2138808 1.5788298 234 88 12
0.15024495 1.2159179 1.6066214 234 88 12
0.14774166 1.2180811 1.6450166 234 88 12
0.1491323 1.2357489 2.0138645 234 88 12
0.12739973 1.2218798 1.6720803 234 88 12
0.11921374 1.2193625 1.5993099 234 88 12
0.10385253 1.207864 1.3226697 234 88 12
0.19702198 1.2156686 1.6708821 234 88 12
0.18931712 1.2166116 1.6708821 234 88 12
0.18161228 1.2175547 1.6708821 234 88 12
0.17647572 1.2181834 1.6708821 234 88 12
0.18019581 1.2072535 1.4391334 234 88 12
0.17869528 1.2038854 1.3605551 234 88 12
0.17506257 1.2043301 1.3605551 234 88 12
0.16672319 1.2179801 1.6399752 234 88 12
0.16591017 1.2118083 1.5012244 234 88 12
0.16240674 1.2138361 1.5366005 234 88 12
0.15890346 1.2175363 1.6089799 234 88 12
0.1563724 1.2142364 1.5291141 234 88 12
0.15344048 1.232734 1.9304295 234 88 12
0.15167081 1.2318419 1.9059007 234 88 12
0.14675473 1.2125496 1.4657507 234 88 12
0.14490007 1.2188222 1.5995076 234 88 12
0.14224021 1.2196416 1.6104331 234 88 12
0.14094082 1.223623 1.6950035 234 88 12
0.12767835 1.2241561 1.6708821 234 88 12
0.10426137 1.2112043 1.3209115 234 88 12
0.12244887 1.2295135 1.7752503 234 88 12
0.12023857 1.229784 1.7752503 234 88 12
0.22149935 1.2002448 1.3191534 234 88 12
0.1973006 1.2179449 1.6696839 234 88 12
0.19473231 1.2182592 1.6696839 234 88 12
0.18188259 1.2128512 1.5036519 234 88 12
0.18055913 1.2102368 1.43762 234 88 12
0.17274259 1.2189833 1.6228908 234 88 12
0.17328657 1.2122418 1.4641354 234 88 12
0.16527011 1.2177197 1.5710835 234 88 12
0.16292958 1.2157071 1.5164018 234 88 12
0.16003691 1.2148418 1.4874043 234 88 12
0.15670142 1.2169724 1.5283657 234 88 12
0.15365212 1.2154883 1.4841913 234 88 12
0.15044861 1.2158804 1.4841913 234 88 12
0.14744306 1.2174754 1.5133779 234 88 12
0.14126018 1.2183069 1.5151548 234 88 12
0.13925466 1.2212442 1.5791762 234 88 12
0.12264351 1.2240133 1.5966803 234 88 12
0.11982522 1.2243583 1.5966803 234 88 12
0.18234035 1.2332631 1.955789 234 88 12
0.21813951 1.2040464 1.3173952 234 88 12
0.17341828 1.2276843 1.784308 234 88 12
0.18086101 1.2133133 1.4383165 234 88 12
0.17830081 1.2123575 1.4056932 234 88 12
0.17455788 1.2133285 1.4188738 234 88 12
0.1712435 1.2134959 1.4127505 234 88 12
0.16594751 1.2192527 1.5440681 234 88 12
0.16310464 1.2190521 1.5299671 234 88 12
0.16074274 1.2157052 1.4365004 234 88 12
0.15719074 1.2180623 1.4859149 234 88 12
0.15079615 1.2187197 1.4826968 234 88 12
0.1481923 1.2226831 1.576382 234 88 12
0.14419274 1.21875 1.4626979 234 88 12
0.1415962 1.2210523 1.5137098 234 88 12
0.1395669 1.2237952 1.5778333 234 88 12
0.12294924 1.2265112 1.5953655 234 88 12
0.12013096 1.2268562 1.5953655 234 88 12
0.10507906 1.2178848 1.3173952 234 88 12
0.12292844 1.2334316 1.773188 234 88 12
0.11850784 1.2339727 1.773188 234 88 12
0.21477968 1.2078478 1.315637 234 88 12
0.19015299 1.2234405 1.6672876 234 88 12
0.18758471 1.2237549 1.6672876 234 88 12
0.18244813 1.2243836 1.6672876 234 88 12
0.17365395 1.2296095 1.7832946 234 88 12
0.18303619 1.2137612 1.3723321 234 88 12
0.17801306 1.2164727 1.4309504 234 88 12
0.174638 1.2168859 1.4309504 234 88 12
0.17145224 1.216897 1.4203614 234 88 12
0.16438819 1.2185441 1.4422349 234 88 12
0.16110742 1.2186844 1.4349322 234 88 12
0.154036 1.2349999 1.8668597 234 88 12
0.15224433 1.2365274 1.9034344 234 88 12
0.14909975 1.2286988 1.6738123 234 88 12
0.1285142 1.230985 1.6672876 234 88 12
0.12043671 1.2293541 1.5940506 234 88 12
0.12095793 1.2356611 1.7721568 234 88 12
0.11874762 1.2359316 1.7721568 234 88 12
0.17951252 1.2364628 1.9543091 234 88 12
0.17634057 1.236851 1.9543091 234 88 12
0.20388247 1.212572 1.3138788 234 88 12
0.20011379 1.2130332 1.3138788 234 88 12
0.19634511 1.2134945 1.3138788 234 88 12
0.18753706 1.2158751 1.3537761 234 88 12
0.18088736 1.2201523 1.4598559 234 88 12
0.17523348 1.2195029 1.41877 234 88 12
0.17199047 1.2195985 1.4095383 234 88 12
0.16808668 1.2210929 1.4406782 234 88 12
0.16393627 1.2239317 1.5120726 234 88 12
0.15961221 1.2294891 1.6660894 234 88 12
0.15738015 1.2273676 1.5927359 234 88 12
0.15488961 1.2185687 1.3138788 234 88 12
0.15174358 1.2280575 1.5927359 234 88 12
0.14677081 1.2310609 1.6660894 234 88 12
0.14849439 1.2420975 2.0106127 234 88 12
0.14570622 1.2424388 2.0106127 234 88 12
0.10966543 1.224104 1.3138788 234 88 12
0.18793115 1.2190949 1.3520813 234 88 12
0.18544792 1.2182187 1.3121206 234 88 12
0.18167923 1.2186799 1.3121206 234 88 12
0.17414187 1.2196025 1.3121206 234 88 12
0.17037319 1.2200638 1.3121206 234 88 12
0.16283582 1.2209864 1.3121206 234 88 12
0.15152977 1.2223701 1.3121206 234 88 12
0.14776109 1.2228315 1.3121206 234 88 12
0.14641275 1.2312453 1.591421 234 88 12
0.12806839 1.2387675 1.7700945 234 88 12
