ply
format ascii 1.0
element vertex 1906
property float x
property float y
property float z
property uchar red
property uchar green
property uchar blue
end_header
-0.00024609661 0.0002979064 2.7277334 234 88 12
-0.0022697134 0.0028474587 2.7083344 234 88 12
5.6127294e-05 0.0002979064 2.7277334 234 88 12
-0.0019734283 0.002174116 2.7124398 234 88 12
-0.036810957 0.08250732 2.0635948 234 88 12
-0.0038080302 0.08250732 2.0635948 234 88 12
-0.021257853 0.020484839 2.5270841 234 88 12
0.00023351936 0.0013751696 2.716378 234 88 12
0.012455523 0.028701857 2.4456892 234 88 12
0.013538612 0.028701857 2.4456892 234 88 12
-0.013538612 0.027618768 2.4456892 234 88 12
0.0092058443 0.036115237 2.3582256 234 88 12
0.013454696 0.036115237 2.3582256 234 88 12
0.010836509 0.026317237 2.4590874 234 88 12
0.012900607 0.026317237 2.4590874 234 88 12
0.018214617 0.025106635 2.4715493 234 88 12
-0.025895929 0.018938813 2.5270841 234 88 12
-0.012455523 0.026535679 2.4456892 234 88 12
0.0027055449 0.018938813 2.5270841 234 88 12
0.0046442184 0.025285188 2.4590874 234 88 12
0.012900607 0.025285188 2.4590874 234 88 12
0.029033817 0.034698952 2.3582256 234 88 12
0.026091209 0.024122061 2.4715493 234 88 12
-0.011372434 0.02545259 2.4456892 234 88 12
-0.00070814189 0.033282667 2.3582256 234 88 12
0.045318656 0.047332816 2.2012823 234 88 12
-0.16514224 0.085418403 1.733452 234 88 12
-0.012754711 0.017392788 2.5270841 234 88 12
-0.0015480728 0.023221092 2.4590874 234 88 12
-0.17270854 0.077813737 1.7336046 234 88 12
0.026317237 0.021156995 2.4590874 234 88 12
0.053375304 0.041290328 2.2012823 234 88 12
0.038947806 0.029033817 2.3582256 234 88 12
-0.17650433 0.074017942 1.7336046 234 88 12
0.055389468 0.037262004 2.2012823 234 88 12
0.040364087 0.024784965 2.3582256 234 88 12
-0.18030012 0.062630571 1.7336046 234 88 12
-0.032080032 0.012754711 2.5270841 234 88 12
-0.035707626 0.01707756 2.4583116 234 88 12
-0.022030866 0.012754711 2.5270841 234 88 12
-0.012754711 0.012754711 2.5270841 234 88 12
0.038890671 0.016245469 2.4715493 234 88 12
0.003425204 0.0013618281 2.7083344 234 88 12
-0.038812637 0.015007553 2.4583116 234 88 12
0.16132116 0.051243193 1.7336046 234 88 12
0.053375304 0.02517703 2.2012823 234 88 12
0.030029505 0.012307175 2.4715493 234 88 12
0.038890671 0.012307175 2.4715493 234 88 12
-0.18412411 0.043658294 1.733452 234 88 12
-0.040882643 0.011902542 2.4583116 234 88 12
-0.037777632 0.011902542 2.4583116 234 88 12
-0.025357589 0.011902542 2.4583116 234 88 12
-0.0087724123 0.011868558 2.4590874 234 88 12
0.00051602424 0.011868558 2.4590874 234 88 12
0.012900607 0.011868558 2.4590874 234 88 12
0.051361144 0.023162868 2.2012823 234 88 12
0.037531521 0.016287263 2.3582256 234 88 12
0.16891274 0.043651607 1.7336046 234 88 12
-0.015106218 0.019134544 2.2012823 234 88 12
0.16511695 0.036060024 1.7336046 234 88 12
0.033282667 0.012038413 2.3582256 234 88 12
0.038947806 0.012038413 2.3582256 234 88 12
-0.011077893 0.015106218 2.2012823 234 88 12
0.035247844 0.013092056 2.2012823 234 88 12
-0.18792048 0.020880053 1.733452 234 88 12
-0.0090637309 0.011077893 2.2012823 234 88 12
0.00028747119 0.0031621831 2.5790777 234 88 12
0.029205356 0.011077893 2.2012823 234 88 12
-0.013454696 0.0063732769 2.3582256 234 88 12
-0.012038413 0.0063732769 2.3582256 234 88 12
0.0010070812 0.0090637309 2.2012823 234 88 12
0.013092056 0.0090637309 2.2012823 234 88 12
0.023368683 0.0049569933 2.3582256 234 88 12
-0.18792048 0.0094909333 1.733452 234 88 12
0.11551025 0.0063467165 2.0635948 234 88 12
0.049280547 0.0016246334 2.4456892 234 88 12
-0.0033113458 -3.3447937e-05 2.7124398 234 88 12
-0.036718108 -0.00038650641 2.5270841 234 88 12
-0.046057664 -0.00051750185 2.4583116 234 88 12
-0.037777632 -0.00051750185 2.4583116 234 88 12
-0.025357589 -0.00051750185 2.4583116 234 88 12
-0.017392788 -0.00038650641 2.5270841 234 88 12
-0.012754711 -0.00038650641 2.5270841 234 88 12
-0.0077625276 -0.00051750185 2.4583116 234 88 12
-0.013092056 -0.0010070812 2.2012823 234 88 12
-0.011077893 -0.0010070812 2.2012823 234 88 12
0.0010070812 -0.0010070812 2.2012823 234 88 12
0.013092056 -0.0010070812 2.2012823 234 88 12
0.016287263 -0.00070814189 2.3582256 234 88 12
0.02620125 -0.00070814189 2.3582256 234 88 12
0.038947806 -0.00070814189 2.3582256 234 88 12
0.0339678 -0.00049228698 2.4715493 234 88 12
0.038890671 -0.00049228698 2.4715493 234 88 12
0.030868798 -0.00033192258 2.5557406 234 88 12
0.003920414 -4.1267518e-05 2.7083344 234 88 12
0.050363638 -0.0027077224 2.4456892 234 88 12
-0.18792048 -0.01708368 1.733452 234 88 12
-0.029205356 -0.0090637309 2.2012823 234 88 12
0.05169436 -0.0063732769 2.3582256 234 88 12
0.12312631 -0.013962777 2.0635948 234 88 12
-0.037262004 -0.013092056 2.2012823 234 88 12
-0.02517703 -0.013092056 2.2012823 234 88 12
-0.011077893 -0.013092056 2.2012823 234 88 12
0.0010070812 -0.013092056 2.2012823 234 88 12
0.013092056 -0.013092056 2.2012823 234 88 12
0.0024649266 -0.00033730574 2.716378 234 88 12
-0.041290328 -0.015106218 2.2012823 234 88 12
0.012038413 -0.010622129 2.3582256 234 88 12
0.010622129 -0.013454696 2.3582256 234 88 12
0.013454696 -0.013454696 2.3582256 234 88 12
0.02620125 -0.013454696 2.3582256 234 88 12
0.038947806 -0.013454696 2.3582256 234 88 12
0.05169436 -0.013454696 2.3582256 234 88 12
0.12566499 -0.02665621 2.0635948 234 88 12
-0.053375304 -0.023162868 2.2012823 234 88 12
-0.0094865495 -0.0066118371 2.5790777 234 88 12
-0.047092665 -0.012937546 2.4583116 234 88 12
-0.037777632 -0.012937546 2.4583116 234 88 12
0.051446725 -0.013538612 2.4456892 234 88 12
-0.059417792 -0.027191192 2.2012823 234 88 12
-0.051361144 -0.027191192 2.2012823 234 88 12
-0.011077893 -0.027191192 2.2012823 234 88 12
0.0010070812 -0.027191192 2.2012823 234 88 12
0.039875243 -0.013291748 2.4715493 234 88 12
-0.014086088 -0.0083366642 2.5790777 234 88 12
0.0070400783 -0.01570479 2.4456892 234 88 12
0.0113226 -0.014276322 2.4715493 234 88 12
0.013538612 -0.016787879 2.4456892 234 88 12
0.12566499 -0.039349645 2.0635948 234 88 12
-0.06747444 -0.03323368 2.2012823 234 88 12
0.014276322 -0.016245469 2.4715493 234 88 12
-0.03749112 -0.013527724 2.5270841 234 88 12
0.00099576777 -0.012281135 2.5557406 234 88 12
0.024784965 -0.02620125 2.3582256 234 88 12
0.02620125 -0.02620125 2.3582256 234 88 12
0.038947806 -0.02620125 2.3582256 234 88 12
0.05169436 -0.02620125 2.3582256 234 88 12
-0.032196488 -0.012944981 2.5557406 234 88 12
-0.073516928 -0.039276168 2.2012823 234 88 12
-0.013092056 -0.039276168 2.2012823 234 88 12
-0.011077893 -0.039276168 2.2012823 234 88 12
-0.00033192258 -0.012944981 2.5557406 234 88 12
0.00033192258 -0.012944981 2.5557406 234 88 12
0.12566499 -0.052043077 2.0635948 234 88 12
-0.077545255 -0.043304492 2.2012823 234 88 12
-0.020410454 -0.012936204 2.5790777 234 88 12
-0.012361261 -0.012936204 2.5790777 234 88 12
-0.0034785576 -0.017392788 2.5270841 234 88 12
0.037906095 -0.022152914 2.4715493 234 88 12
0.0012693433 -0.062197823 2.0635948 234 88 12
0.019040151 -0.062197823 2.0635948 234 88 12
0.0027724502 -0.0071500032 2.6533928 234 88 12
0.020037146 -0.026535679 2.4456892 234 88 12
0.050363638 -0.026535679 2.4456892 234 88 12
-0.04812767 -0.026392594 2.4583116 234 88 12
0.02665621 -0.064736508 2.0635948 234 88 12
0.12566499 -0.064736508 2.0635948 234 88 12
-0.083587743 -0.053375304 2.2012823 234 88 12
-0.02517703 -0.053375304 2.2012823 234 88 12
0.024122061 -0.026091209 2.4715493 234 88 12
0.026091209 -0.026091209 2.4715493 234 88 12
0.038890671 -0.026091209 2.4715493 234 88 12
-0.027191192 -0.055389468 2.2012823 234 88 12
0.026535679 -0.029784946 2.4456892 234 88 12
0.039349645 -0.074891254 2.0635948 234 88 12
0.012944981 -0.019583432 2.5557406 234 88 12
-0.016042557 -0.031567611 2.4583116 234 88 12
0.12312631 -0.077429943 2.0635948 234 88 12
-0.041290328 -0.063446119 2.2012823 234 88 12
-0.087616064 -0.06546028 2.2012823 234 88 12
-0.045318656 -0.06546028 2.2012823 234 88 12
-0.014300737 -0.025122916 2.5270841 234 88 12
-0.015846763 -0.025895929 2.5270841 234 88 12
0.052043077 -0.085046008 2.0635948 234 88 12
-0.036718108 -0.026668942 2.5270841 234 88 12
-0.053375304 -0.069488607 2.2012823 234 88 12
-0.026392594 -0.036742631 2.4583116 234 88 12
0.013278577 -0.010360208 2.6533928 234 88 12
-0.075531088 -0.073516928 2.2012823 234 88 12
0.11551025 -0.092662066 2.0635948 234 88 12
0.11804893 -0.092662066 2.0635948 234 88 12
-0.047092665 -0.038812637 2.4583116 234 88 12
-0.034672622 -0.038812637 2.4583116 234 88 12
0.064736508 -0.095200755 2.0635948 234 88 12
0.077429943 -0.10281681 2.0635948 234 88 12
0.08250732 -0.1053555 2.0635948 234 88 12
0.1053555 -0.1053555 2.0635948 234 88 12
0.092662066 -0.10789418 2.0635948 234 88 12
-1.3828851 0.041893616 2.0487638 234 88 12
-1.3830562 0.037959035 2.0487638 234 88 12
-1.383284 0.051765997 2.0482302 234 88 12
-1.473766 0.063219734 2.2809505 234 88 12
-1.3456949 0.030864848 1.9381812 234 88 12
-1.3459409 0.025205059 1.9381812 234 88 12
-1.4514368 0.053904399 2.2206476 234 88 12
-1.3869183 0.025315402 2.0466287 234 88 12
-1.3859487 0.066664413 2.0460949 234 88 12
-1.3465147 0.039406225 1.9374133 234 88 12
-1.3494663 0.053710774 1.9351097 234 88 12
-1.2486012 0.0098180221 1.6507227 234 88 12
-1.2490424 -0.00032714056 1.6507227 234 88 12
-1.388656 0.080579184 2.0439596 234 88 12
-1.3505323 0.05659236 1.9343419 234 88 12
-1.3507783 0.050932575 1.9343419 234 88 12
-1.2499605 0.027664715 1.6493464 234 88 12
-1.2500708 0.025128426 1.6493464 234 88 12
-1.251394 -0.0053070611 1.6493464 234 88 12
-1.251725 -0.012915934 1.6493464 234 88 12
-1.3521317 0.019803738 1.9343419 234 88 12
-1.2517608 0.035366248 1.64797 234 88 12
-1.252202 0.025221085 1.64797 234 88 12
-1.2527534 0.012539634 1.64797 234 88 12
-1.2536715 0.04053149 1.6465937 234 88 12
-1.3545712 0.018492179 1.9328063 234 88 12
-1.3548173 0.01283239 1.9328063 234 88 12
-1.4532658 0.051354911 2.2195399 234 88 12
-1.3531148 0.079386592 1.9320383 234 88 12
-1.4740926 0.064740263 2.2806973 234 88 12
-1.35373 0.065237127 1.9320383 234 88 12
-1.3836925 0.052029699 2.0171835 234 88 12
-1.3837395 0.050947633 2.0171835 234 88 12
-1.3937873 0.019701025 2.0423584 234 88 12
-1.4779264 0.064486712 2.2917471 234 88 12
-1.3538116 0.090757862 1.9312705 234 88 12
-1.3547959 0.068118714 1.9312705 234 88 12
-1.3549805 0.063873872 1.9312705 234 88 12
-1.3852133 0.038002364 2.0165963 234 88 12
-1.392361 0.090595312 2.0412908 234 88 12
-1.4779328 0.064504281 2.2917423 234 88 12
-1.3553697 0.082319878 1.9305027 234 88 12
-1.2580801 0.086462699 1.6424645 234 88 12
-1.385244 0.079199962 2.0154221 234 88 12
-1.2612039 0.06372875 1.6410882 234 88 12
-1.2642915 -0.0072873896 1.6410882 234 88 12
-1.2646223 -0.014896262 1.6410882 234 88 12
-1.3939713 0.091650829 2.0402231 234 88 12
-1.3906485 0.075441822 2.0279884 234 88 12
-1.3864355 0.072747096 2.0148349 234 88 12
-1.2627836 0.07650286 1.6397119 234 88 12
-1.4544528 0.052282855 2.2187488 234 88 12
-1.4544908 0.051408172 2.2187488 234 88 12
-1.4238653 0.055594701 2.1221585 234 88 12
-1.2707953 -0.0095456988 1.6369591 234 88 12
-1.2710159 -0.01461828 1.6369591 234 88 12
-1.3603301 0.10521749 1.9266634 234 88 12
-1.3932476 0.075554825 2.02631 234 88 12
-1.397192 0.093761861 2.0380881 234 88 12
-1.3940244 0.077654645 2.0257504 234 88 12
-1.4003568 0.020972159 2.0380881 234 88 12
-1.394846 0.078723386 2.0251908 234 88 12
-1.3949356 0.076661237 2.0251908 234 88 12
-1.3914051 0.063206159 2.0118988 234 88 12
-1.3922049 0.044811022 2.0118988 234 88 12
-1.3924872 0.038318623 2.0118988 234 88 12
-1.2771889 -0.0092677176 1.63283 234 88 12
-1.2774094 -0.014340299 1.63283 234 88 12
-1.3932552 0.041604355 2.0113115 234 88 12
-1.3933964 0.038358156 2.0113115 234 88 12
-1.3677112 0.017645858 1.9243599 234 88 12
-1.1771879 0.10627306 1.3013371 234 88 12
-1.3932236 0.063285217 2.0107243 234 88 12
-1.4279683 0.051121783 2.1196392 234 88 12
-1.3712164 0.019215886 1.9220563 234 88 12
-1.1897691 0.11061945 1.2931054 234 88 12
-1.2898657 -0.0061754654 1.6245718 234 88 12
-1.2900863 -0.011248047 1.6245718 234 88 12
-1.4067979 0.025194228 2.0338178 234 88 12
-1.1961421 0.11089654 1.2889895 234 88 12
-1.457832 0.053598225 2.2165339 234 88 12
-1.3743514 0.1114976 1.9174492 234 88 12
-1.2023503 0.11496583 1.2848737 234 88 12
-1.409192 0.027269326 2.0322163 234 88 12
-1.431927 0.049964953 2.1171198 234 88 12
-1.335494 0.044779111 1.7488803 234 88 12
-1.4321671 0.05728459 2.11676 234 88 12
-1.3805435 0.023874275 1.9159136 234 88 12
-1.4062883 0.075088784 2.0179169 234 88 12
-1.3556296 0.052729644 1.8197801 234 88 12
-1.3879035 0.054448903 1.9439203 234 88 12
-1.3470074 0.048108842 1.7859209 234 88 12
-1.3046738 -0.002990552 1.6149373 234 88 12
-1.406527 0.0895615 2.0173573 234 88 12
-1.2150964 0.11552001 1.2766421 234 88 12
-1.3852043 0.060906824 1.9295133 234 88 12
-1.2958809 0.055011004 1.5808408 234 88 12
-1.3531365 0.054253373 1.8035693 234 88 12
-1.357553 0.051062308 1.8202199 234 88 12
-1.4102454 0.098271422 2.0295472 234 88 12
-1.3294936 0.054501247 1.7031919 234 88 12
-1.3551236 0.052527536 1.8040509 234 88 12
-1.3808061 0.053521842 1.9056263 234 88 12
-1.3936702 0.053675544 1.9564457 234 88 12
-1.4062198 0.03674747 2.0030909 234 88 12
-1.3089361 -0.0028052311 1.6121845 234 88 12
-1.3814236 0.11322271 1.9128422 234 88 12
-1.2850437 0.054425549 1.5165112 234 88 12
-1.379021 0.057723369 1.8935513 234 88 12
-1.3960139 0.057605635 1.961603 234 88 12
-1.3652002 0.053413142 1.8374352 234 88 12
-1.3563665 0.050730824 1.8015814 234 88 12
-1.4343673 0.058044728 2.1153204 234 88 12
-1.4346557 0.051412541 2.1153204 234 88 12
-1.224491 0.11972785 1.2704684 234 88 12
-1.410247 0.063897647 2.0156789 234 88 12
-1.3683248 0.056987163 1.8440484 234 88 12
-1.3538241 0.054134853 1.7846009 234 88 12
-1.3697107 0.053772945 1.8491141 234 88 12
-1.3497759 0.049889769 1.7673949 234 88 12
-1.2276775 0.11986639 1.2684104 234 88 12
-1.2278423 0.11607419 1.2684104 234 88 12
-1.3175712 -0.0049708802 1.6066791 234 88 12
-1.237237 0.12028203 1.2622367 234 88 12
-1.2375667 0.11269761 1.2622367 234 88 12
-1.3487633 0.045131523 1.7295369 234 88 12
-1.3912441 0.024339516 1.9090029 234 88 12
-1.2404234 0.12042058 1.2601788 234 88 12
-1.2407533 0.11283615 1.2601788 234 88 12
-1.354183 0.049805228 1.7454035 234 88 12
-1.4126786 0.03486006 1.9989803 234 88 12
-1.4143246 0.089900523 2.0123217 234 88 12
-1.4149522 0.075465478 2.0123217 234 88 12
-1.4154453 0.06412366 2.0123217 234 88 12
-1.3556988 0.053903267 1.7443116 234 88 12
-1.3558738 0.049878743 1.7443116 234 88 12
-1.3936219 0.024442902 1.9074672 234 88 12
-1.3580897 0.037878688 1.7432196 234 88 12
-1.2530047 0.12476695 1.2519472 234 88 12
-1.2534993 0.11339033 1.2519472 234 88 12
-1.3605964 0.058148336 1.7410356 234 88 12
-1.3609464 0.050099291 1.7410356 234 88 12
-1.3614713 0.038025722 1.7410356 234 88 12
-1.2561911 0.1249055 1.2498893 234 88 12
-1.2566859 0.11352887 1.2498893 234 88 12
-1.4190152 0.081840269 2.0095239 234 88 12
-1.4192841 0.075653821 2.0095239 234 88 12
-1.4197773 0.064312004 2.0095239 234 88 12
-1.3671564 0.024160437 1.7377596 234 88 12
-1.2657506 0.12532113 1.2437155 234 88 12
-1.2662454 0.1139445 1.2437155 234 88 12
-1.4235913 0.065376528 2.0190141 234 88 12
-1.4236344 0.06438376 2.0190141 234 88 12
-1.2845434 0.057606231 1.3228695 234 88 12
-1.3674474 0.056430135 1.7366676 234 88 12
-1.3677099 0.05039335 1.7366676 234 88 12
-1.3682348 0.038319785 1.7366676 234 88 12
-1.3688473 0.024233954 1.7366676 234 88 12
-1.4644378 0.065624177 2.2218375 234 88 12
-1.429224 0.067119032 2.0432351 234 88 12
-1.4692358 0.064658955 2.2460039 234 88 12
-1.4692433 0.064486139 2.2460039 234 88 12
-1.3943459 0.064491801 1.8654283 234 88 12
-1.3855895 0.062806845 1.8205618 234 88 12
-1.2895519 0.057805043 1.3314606 234 88 12
-1.4494383 0.06762898 2.1434534 234 88 12
-1.3864985 0.064576566 1.8173077 234 88 12
-1.386573 0.062862195 1.8173077 234 88 12
-1.3125126 0.058616295 1.4333903 234 88 12
-1.2753102 0.12573676 1.2375418 234 88 12
-1.2758049 0.11436014 1.2375418 234 88 12
-1.2990316 0.10530332 1.3577225 234 88 12
-1.2991778 0.10194252 1.3577225 234 88 12
-1.3446441 0.082426906 1.5925667 234 88 12
-1.4350207 0.06938304 2.0652759 234 88 12
-1.3829318 0.06284827 1.7896123 234 88 12
-1.2784967 0.12587531 1.2354839 234 88 12
-1.2789913 0.11449868 1.2354839 234 88 12
-1.4114604 0.07357952 1.9358457 234 88 12
-1.4034554 0.073257186 1.8928722 234 88 12
-1.4054502 0.068834133 1.9025322 234 88 12
-1.4448887 0.047206149 2.1088419 234 88 12
-1.3024019 0.10608894 1.3417722 234 88 12
-1.3048258 0.1021881 1.354075 234 88 12
-1.3399352 0.091876306 1.5432408 234 88 12
-1.3400519 0.089191914 1.5432408 234 88 12
-1.4174523 0.070568092 1.9612417 234 88 12
-1.4232326 0.067826718 1.9921372 234 88 12
-1.4356558 0.065361485 2.0593536 234 88 12
-1.4080497 0.063292533 1.9081997 234 88 12
-1.3272457 0.05918901 1.4662305 234 88 12
-1.2873333 0.054095987 1.2471961 234 88 12
-1.3778265 0.012527963 1.7312077 234 88 12
-1.3607963 0.10419154 1.6481751 234 88 12
-1.359919 0.093001284 1.6405923 234 88 12
-1.3048459 0.10293414 1.3368136 234 88 12
-1.3332947 0.09094204 1.4920771 234 88 12
-1.3917664 0.07852532 1.8141501 234 88 12
-1.3934942 0.076574571 1.8232844 234 88 12
-1.4184346 0.071796991 1.9607861 234 88 12
-1.3302292 0.056357037 1.4666737 234 88 12
-1.3020073 0.12521559 1.3080766 234 88 12
-1.3297489 0.10100684 1.4592676 234 88 12
-1.3571534 0.091849059 1.6122564 234 88 12
-1.3981599 0.077759244 1.8410836 234 88 12
-1.4085885 0.074619837 1.8993883 234 88 12
-1.4139701 0.072536543 1.929361 234 88 12
-1.4107933 0.064769283 1.9094518 234 88 12
-1.3923826 0.063157059 1.8047601 234 88 12
-1.3730817 0.060768243 1.6948334 234 88 12
-1.3710221 0.058518808 1.6826119 234 88 12
-1.3803333 0.032797609 1.7290237 234 88 12
-1.3806832 0.024748564 1.7290237 234 88 12
-1.3812082 0.012674995 1.7290237 234 88 12
-1.2910779 0.13022169 1.2272522 234 88 12
-1.2912427 0.12642948 1.2272522 234 88 12
-1.2917374 0.11505286 1.2272522 234 88 12
-1.3322471 0.10111545 1.4576542 234 88 12
-1.3737721 0.086452492 1.6937364 234 88 12
-1.4016907 0.077446483 1.852676 234 88 12
-1.4193716 0.067189693 1.9521893 234 88 12
-1.3826007 0.06505166 1.7393391 234 88 12
-1.3826864 0.063079953 1.7393391 234 88 12
-1.3939226 0.061478224 1.8038144 234 88 12
-1.395207 0.059800737 1.8108094 234 88 12
-1.3809743 0.057018261 1.7279317 234 88 12
-1.3812367 0.050981477 1.7279317 234 88 12
-1.3818492 0.036895648 1.7279317 234 88 12
-1.382374 0.024822079 1.7279317 234 88 12
-1.382899 0.012748511 1.7279317 234 88 12
-1.2942644 0.13036023 1.2251943 234 88 12
-1.3161 0.11924365 1.3508909 234 88 12
-1.3162454 0.11589744 1.3508909 234 88 12
-1.294759 0.11898361 1.2251943 234 88 12
-1.2949239 0.1151914 1.2251943 234 88 12
-1.3883841 0.087461405 1.7682794 234 88 12
-1.3931862 0.080976114 1.7948886 234 88 12
-1.3932632 0.079205304 1.7948886 234 88 12
-1.4026192 0.074436389 1.8487455 234 88 12
-1.4071476 0.067902781 1.8737308 234 88 12
-1.4002333 0.064982787 1.8322802 234 88 12
-1.4003046 0.063344657 1.8322802 234 88 12
-1.3333026 0.059493128 1.4368668 234 88 12
-1.3229024 0.055883586 1.3747193 234 88 12
-1.4516288 0.054194268 2.1320744 234 88 12
-1.3171073 0.11665156 1.3375332 234 88 12
-1.3899513 0.087529548 1.7672672 234 88 12
-1.3708069 0.088051267 1.6524656 234 88 12
-1.4337112 0.071375005 2.0257719 234 88 12
-1.4190526 0.068662681 1.9370581 234 88 12
-1.3873465 0.067120411 1.7463006 234 88 12
-1.3668039 0.060619634 1.6212714 234 88 12
-1.4522363 0.051343255 2.1317627 234 88 12
-1.3932358 0.085329674 1.7761682 234 88 12
-1.4066217 0.077440299 1.8560541 234 88 12
-1.3887601 0.078781419 1.7470108 234 88 12
-1.429015 0.06374801 1.9895648 234 88 12
-1.3688056 0.060706664 1.6199785 234 88 12
-1.3293697 0.056175485 1.3772316 234 88 12
-1.4122747 0.11598169 1.8928782 234 88 12
-1.3212571 0.1308504 1.3280083 234 88 12
-1.3214053 0.12744269 1.3280083 234 88 12
-1.3038239 0.13077587 1.2190206 234 88 12
-1.3148062 0.12310175 1.2855803 234 88 12
-1.3043185 0.11939924 1.2190206 234 88 12
-1.3044834 0.11560703 1.2190206 234 88 12
-1.4122208 0.079573214 1.8826467 234 88 12
-1.4106685 0.069570698 1.8702253 234 88 12
-1.3962041 0.065257996 1.778643 234 88 12
-1.3962831 0.063440047 1.778643 234 88 12
-1.3649735 0.055565678 1.5808002 234 88 12
-1.3617725 0.15703927 1.5736463 234 88 12
-1.4338706 0.078755349 2.0119841 234 88 12
-1.4006302 0.075737521 1.799041 234 88 12
-1.4213398 0.06887304 1.9292836 234 88 12
-1.3893886 0.069431491 1.7255584 234 88 12
-1.3996729 0.063524522 1.7895437 234 88 12
-1.3919657 -0.00096974155 1.7224717 234 88 12
-1.3212723 0.13361476 1.2878022 234 88 12
-1.3313391 0.11941333 1.3493782 234 88 12
-1.3314834 0.11609372 1.3493782 234 88 12
-1.3769956 0.08873105 1.6382025 234 88 12
-1.4008547 0.07598751 1.7900685 234 88 12
-1.419118 0.071895145 1.9079211 234 88 12
-1.4199883 0.070453301 1.9131833 234 88 12
-1.4077669 0.070125282 1.833451 234 88 12
-1.4206442 0.063765652 1.9155629 234 88 12
-1.3941762 0.061587263 1.7424688 234 88 12
-1.3690922 0.058265418 1.5780696 234 88 12
-1.3934816 0.0031282967 1.7213798 234 88 12
-1.3936566 -0.00089622592 1.7213798 234 88 12
-1.3181056 0.13650414 1.2458204 234 88 12
-1.3211504 0.12804812 1.2636437 234 88 12
-1.3398666 0.11734179 1.3851421 234 88 12
-1.3400052 0.11415394 1.3851421 234 88 12
-1.4582355 0.071181588 2.1597881 234 88 12
-1.3538133 0.10352685 1.4739891 234 88 12
-1.3539383 0.10065065 1.4739891 234 88 12
-1.3788319 0.091119826 1.6369519 234 88 12
-1.4103769 0.079521962 1.8435972 234 88 12
-1.4189742 0.06239403 1.8958737 234 88 12
-1.4190348 0.060997669 1.8958737 234 88 12
-1.3939449 0.057622157 1.7278671 234 88 12
-1.3932477 0.047471564 1.7202878 234 88 12
-1.4315363 0.10397903 1.9848875 234 88 12
-1.4751031 0.067150295 2.270406 234 88 12
-1.434386 0.087673686 1.9994524 234 88 12
-1.3425453 0.11745825 1.3834121 234 88 12
-1.3426839 0.1142704 1.3834121 234 88 12
-1.3661505 0.1004449 1.5389806 234 88 12
-1.399824 0.085966624 1.7638004 234 88 12
-1.4069197 0.080671713 1.8105108 234 88 12
-1.418813 0.073750019 1.8893803 234 88 12
-1.432469 0.067231186 1.9803627 234 88 12
-1.4340533 0.063948512 1.9901701 234 88 12
-1.4324455 0.10401856 1.9843003 234 88 12
-1.3245862 0.12581405 1.2406161 234 88 12
-1.4311814 0.081022851 1.968552 234 88 12
-1.3683715 0.10054146 1.5375463 234 88 12
-1.4064081 0.081185564 1.7962769 234 88 12
-1.4279392 0.063938752 1.9408321 234 88 12
-1.4069533 0.062046569 1.7942815 234 88 12
-1.4041426 0.096511215 1.7735385 234 88 12
-1.4321369 0.081064396 1.9679348 234 88 12
-1.4495369 0.074093208 2.0895767 234 88 12
-1.3789109 0.095434323 1.5936857 234 88 12
-1.3749424 0.091652155 1.5642809 234 88 12
-1.4225726 0.077728339 1.8988544 234 88 12
-1.4103485 0.077326864 1.8117585 234 88 12
-1.4366394 0.065074056 1.9950235 234 88 12
-1.4368507 0.090879917 1.9977738 234 88 12
-1.3256348 0.1431223 1.2046152 234 88 12
-1.3295584 0.13748531 1.2313958 234 88 12
-1.3306257 0.12614408 1.235576 234 88 12
-1.3437682 0.11735381 1.3284768 234 88 12
-1.380857 0.097965948 1.5923604 234 88 12
-1.3771915 0.089200176 1.5628997 234 88 12
-1.3921654 0.081223249 1.6693902 234 88 12
-1.3833978 0.080562264 1.6053493 234 88 12
-1.4234556 0.072341554 1.8943838 234 88 12
-1.4218627 0.068293542 1.8815062 234 88 12
-1.4342811 0.066298984 1.9712851 234 88 12
-1.4387701 0.065087125 2.003583 234 88 12
-1.4178916 0.063963696 1.8512245 234 88 12
-1.3467386 0.11411558 1.3266529 234 88 12
-1.3886579 0.089224167 1.6310195 234 88 12
-1.4221929 0.078507319 1.8774884 234 88 12
-1.4329814 0.065265626 1.9536057 234 88 12
-1.4330328 0.064083025 1.9536057 234 88 12
-1.4010895 0.061924972 1.7148278 234 88 12
-1.4016145 0.049851403 1.7148278 234 88 12
-1.4041517 -0.0085041784 1.7148278 234 88 12
-1.4487504 0.081945851 2.0712755 234 88 12
-1.4489518 0.077312157 2.0712755 234 88 12
-1.4568713 0.067082882 2.1283338 234 88 12
-1.402343 0.072059795 1.7137358 234 88 12
-1.4572709 0.057892486 2.1283338 234 88 12
-1.4575455 0.051574092 2.1283338 234 88 12
-1.4577204 0.047553293 2.1283338 234 88 12
-1.4501716 0.064211555 2.0708563 234 88 12
-1.4577285 0.058487874 2.1280222 234 88 12
-1.4076209 -0.010369408 1.7126439 234 88 12
-1.4553236 0.038357228 2.1023636 234 88 12
-1.4094868 -0.014320415 1.7115519 234 88 12
-1.3851053 0.16059484 1.5585064 234 88 12
-1.4136188 -1.4137226 1.8556939 234 88 12
-1.3253192 -1.3413317 1.6015912 234 88 12
-1.324623 -1.3420279 1.6015912 234 88 12
-1.3292739 -1.3383245 1.6008698 234 88 12
-1.3337026 -1.3357911 1.599427 234 88 12
-1.328133 -1.3413607 1.599427 234 88 12
-1.3274367 -1.3420569 1.599427 234 88 12
-1.4074798 -1.4081218 1.836127 234 88 12
-1.3290806 -1.3423083 1.5979842 234 88 12
-1.3165489 -1.3548399 1.5979842 234 88 12
-1.3151566 -1.3562323 1.5979842 234 88 12
-1.3320312 -1.3327609 1.5846945 234 88 12
-1.3283824 -1.3364098 1.5846945 234 88 12
-1.3203549 -1.3444372 1.5846945 234 88 12
-1.0694833 -1.1634243 0.84746522 234 88 12
-1.3421149 -1.3330643 1.5950987 234 88 12
-1.0793619 -1.1571988 0.84468406 234 88 12
-1.0739939 -1.1625669 0.84468406 234 88 12
-1.0838726 -1.1563414 0.84190285 234 88 12
-1.3410823 -1.3286763 1.5809137 234 88 12
-1.3096449 -1.3674295 1.5936559 234 88 12
-1.3423088 -1.3284432 1.5801575 234 88 12
-1.098262 -1.1492586 0.83634055 234 88 12
-1.095578 -1.1519426 0.83634055 234 88 12
-1.0848418 -1.1626787 0.83634055 234 88 12
-1.0821579 -1.1653627 0.83634055 234 88 12
-1.3428054 -1.3289398 1.5794013 234 88 12
-1.1054567 -1.1457171 0.83355939 234 88 12
-1.1880269 -1.2544464 1.1728101 234 88 12
-1.1099674 -1.1448598 0.83077824 234 88 12
-1.295802 -1.3188356 1.4746714 234 88 12
-1.2897931 -1.3248444 1.4746714 234 88 12
-1.2857873 -1.3288503 1.4746714 234 88 12
-1.1802729 -1.2646437 1.1709499 234 88 12
-1.3177602 -1.3549783 1.5786451 234 88 12
-1.3004893 -1.3155113 1.4736336 234 88 12
-1.1707239 -1.2766361 1.1690899 234 88 12
-1.314608 -1.3591238 1.577889 234 88 12
-1.4060678 -1.4103281 1.8355223 234 88 12
-1.1243567 -1.1377769 0.82521588 234 88 12
-1.1216727 -1.140461 0.82521588 234 88 12
-1.3041753 -1.3131884 1.4725959 234 88 12
-1.2761343 -1.3412294 1.4725959 234 88 12
-1.1647651 -1.2850382 1.1672298 234 88 12
0.064004242 -1.4779619 2.2917378 234 88 12
0.061798848 -1.4717262 2.272733 234 88 12
0.064506486 -1.4779836 2.2917097 234 88 12
0.064544037 -1.4721621 2.2723749 234 88 12
0.071581207 -1.3968925 2.0240717 234 88 12
-0.068050288 -1.1879144 1.2991269 234 88 12
-0.064257495 -1.1877495 1.2991269 234 88 12
0.038888268 -1.4194149 2.091392 234 88 12
0.035531268 -1.399328 2.0235121 234 88 12
0.061308131 -1.3982072 2.0235121 234 88 12
0.077805318 -1.3974899 2.0235121 234 88 12
-0.079290092 -1.191596 1.2970686 234 88 12
0.03582735 -1.4201981 2.0909729 234 88 12
0.039693236 -1.400015 2.0229528 234 88 12
0.021209234 -1.4025548 2.0218337 234 88 12
-0.09039133 -1.1984648 1.2929522 234 88 12
0.091322295 -1.3995063 2.0218337 234 88 12
-0.09783835 -1.2019815 1.2908939 234 88 12
0.032050576 -1.4223127 2.0897157 234 88 12
0.039001126 -1.4220105 2.0897157 234 88 12
-0.1052594 -1.2055402 1.2889895 234 88 12
-0.10149257 -1.2053335 1.2888356 234 88 12
-0.11635894 -1.2124078 1.2848737 234 88 12
0.065343395 -1.4228158 2.0884583 234 88 12
0.072820187 -1.2949721 1.6190664 234 88 12
0.077892765 -1.2947515 1.6190664 234 88 12
-0.1200126 -1.2157593 1.2828158 234 88 12
-0.11245525 -1.2153891 1.282661 234 88 12
0.06228248 -1.423599 2.0880392 234 88 12
0.062767684 -1.2975444 1.61769 234 88 12
0.090666883 -1.2963313 1.61769 234 88 12
0.046181034 -1.4066771 2.0184765 234 88 12
0.052367482 -1.4064082 2.0184765 234 88 12
0.069090873 -1.4020808 2.0048523 234 88 12
0.07553979 -1.4087495 2.0311487 234 88 12
0.10344099 -1.2979112 1.6163136 234 88 12
0.02238434 -1.4083738 2.0171266 234 88 12
0.026520448 -1.4081941 2.0171266 234 88 12
0.077786937 -1.4026136 2.0042651 234 88 12
0.078526653 -1.4094477 2.0306149 234 88 12
0.10395887 -1.4050331 2.0179169 234 88 12
-0.12341792 -1.2254449 1.2764863 234 88 12
0.050364211 -1.3044893 1.6135609 234 88 12
0.052900501 -1.304379 1.6135609 234 88 12
0.090366326 -1.4097611 2.030081 234 88 12
0.098841168 -1.4061236 2.0173573 234 88 12
-0.12327936 -1.2286319 1.2744281 234 88 12
0.05045687 -1.3066205 1.6121845 234 88 12
0.052993163 -1.3065102 1.6121845 234 88 12
0.062717073 -1.4050907 2.0030909 234 88 12
0.079212293 -1.3817111 1.91361 234 88 12
0.10403421 -1.4067658 2.0167978 234 88 12
0.073604196 -1.3831462 1.9128422 234 88 12
0.061714068 -1.4069562 2.0019164 234 88 12
0.064960264 -1.4068151 2.0019164 234 88 12
0.090635255 -1.3835968 1.9120743 234 88 12
0.22211751 -1.2200392 1.2704684 234 88 12
-0.13044924 -1.2385226 1.2682534 234 88 12
0.025410388 -1.4297532 2.0851057 234 88 12
0.0022984128 -1.232751 1.2682534 234 88 12
0.087723196 -1.4067364 2.0013292 234 88 12
0.10329746 -1.4125112 2.027946 234 88 12
0.091008931 -1.4075044 2.000742 234 88 12
0.2261868 -1.2262473 1.2663525 234 88 12
-0.1339649 -1.2450615 1.264137 234 88 12
0.002575543 -1.239125 1.264137 234 88 12
0.043311302 -1.3176072 1.6053027 234 88 12
0.23390977 -1.2291042 1.2642946 234 88 12
0.065372981 -1.38946 1.9090029 234 88 12
0.086597182 -1.3885372 1.9090029 234 88 12
0.090842023 -1.3883526 1.9090029 234 88 12
0.2302561 -1.2324555 1.2622367 234 88 12
0.23404831 -1.2322906 1.2622367 234 88 12
-0.13748056 -1.2516005 1.2600205 234 88 12
0.023978679 -1.4324161 2.0834291 234 88 12
0.026295528 -1.4323153 2.0834291 234 88 12
0.014452118 -1.4165534 2.0120764 234 88 12
0.025826413 -1.4160588 2.0120764 234 88 12
0.058665525 -1.4116435 1.9989803 234 88 12
0.064009726 -1.3907105 1.9082351 234 88 12
0.094373725 -1.410091 1.9989803 234 88 12
0.04254169 -1.4322592 2.0830102 234 88 12
0.040492624 -1.3893956 1.8917558 234 88 12
0.04423102 -1.39267 1.9070596 234 88 12
0.047790665 -1.396181 1.9233819 234 88 12
0.10367994 -1.3901769 1.9074672 234 88 12
0.10949094 -1.4134729 2.0123217 234 88 12
0.23432539 -1.2386637 1.2581209 234 88 12
0.046848927 -1.4140058 1.997926 234 88 12
0.042866327 -1.3939219 1.9062909 234 88 12
0.055698719 -1.4323373 2.0825911 234 88 12
0.012497396 -1.4192499 2.0103929 234 88 12
0.013531423 -1.419205 2.0103929 234 88 12
0.0462595 -1.4081784 1.9662504 234 88 12
0.041238312 -1.3283734 1.5984209 234 88 12
0.061334912 -1.3944004 1.9059316 234 88 12
0.065579757 -1.3942158 1.9059316 234 88 12
0.02597752 -1.4195343 2.0098317 234 88 12
0.045969512 -1.4078934 1.9595114 234 88 12
0.041330975 -1.3305047 1.5970446 234 88 12
0.09676028 -1.3940513 1.9051638 234 88 12
0.10383502 -1.3937438 1.9051638 234 88 12
0.096699432 -1.4194229 2.0236757 234 88 12
0.10358495 -1.4191235 2.0236757 234 88 12
-0.14437331 -1.2678653 1.2497294 234 88 12
0.047630347 -1.419843 2.0063393 234 88 12
0.048359096 -1.4186141 2.0005591 234 88 12
0.056039851 -1.4199682 2.0087094 234 88 12
0.18364123 -1.3307228 1.5929154 234 88 12
-0.14775041 -1.2775911 1.2435547 234 88 12
0.036629032 -1.3392498 1.591539 234 88 12
0.054653518 -1.4191056 1.9942827 234 88 12
0.10334652 -1.4169886 1.9942827 234 88 12
-0.010090793 -1.3361751 1.5533675 234 88 12
-0.024861764 -1.3013728 1.3732628 234 88 12
-0.017455867 -1.3096802 1.4171118 234 88 12
0.010146942 -1.3571718 1.664529 234 88 12
0.026644731 -1.3904325 1.8371816 234 88 12
0.033071212 -1.3942431 1.8579646 234 88 12
0.05650365 -1.3691382 1.7355757 234 88 12
0.064552695 -1.3687882 1.7355757 234 88 12
0.11391658 -1.4202247 2.0078454 234 88 12
-0.039554302 -1.2825973 1.2566282 234 88 12
-0.011342878 -1.3304243 1.5102818 234 88 12
-0.00089796045 -1.3344573 1.5334846 234 88 12
0.0018372338 -1.3343383 1.5334846 234 88 12
0.021986783 -1.3713473 1.7293864 234 88 12
0.03469982 -1.3954951 1.8571119 234 88 12
0.031690899 -1.3818166 1.785705 234 88 12
0.036360186 -1.3713413 1.732587 234 88 12
0.034278065 -1.3436226 1.5887864 234 88 12
-0.037444871 -1.2894036 1.2743779 234 88 12
-0.016990585 -1.3087362 1.3808159 234 88 12
-0.010434786 -1.3084512 1.3808159 234 88 12
0.00056970509 -1.3267342 1.4795661 234 88 12
0.0096171238 -1.341926 1.5615978 234 88 12
0.018874278 -1.3527842 1.6208682 234 88 12
0.051525913 -1.4219745 1.992521 234 88 12
0.046589375 -1.3729573 1.7333916 234 88 12
0.078785561 -1.3715576 1.7333916 234 88 12
0.10454718 -1.4196693 1.992521 234 88 12
-0.033651177 -1.2923198 1.2723918 234 88 12
-0.018232046 -1.3086864 1.3636924 234 88 12
-0.0051295888 -1.3228464 1.4426283 234 88 12
0.0029800311 -1.3346041 1.5075269 234 88 12
0.012342118 -1.3440207 1.5601711 234 88 12
0.019614808 -1.3565969 1.6292615 234 88 12
0.026762523 -1.3636975 1.6689782 234 88 12
0.02594709 -1.3536383 1.6148813 234 88 12
0.026854513 -1.3482157 1.5860336 234 88 12
0.11698309 -1.4027016 1.8990209 234 88 12
-0.013990428 -1.3319892 1.4747539 234 88 12
-0.017236933 -1.3198279 1.4076126 234 88 12
-0.0093217203 -1.322889 1.4261966 234 88 12
0.015895309 -1.3550612 1.6077631 234 88 12
0.020780828 -1.3615042 1.6440855 234 88 12
0.029659027 -1.3800681 1.7475069 234 88 12
0.021874592 -1.3505675 1.5846572 234 88 12
-0.0098543586 -1.3364332 1.4851608 234 88 12
-0.013951784 -1.3223532 1.4058926 234 88 12
-0.010782424 -1.3222154 1.4058926 234 88 12
0.01905692 -1.3755331 1.7095259 234 88 12
0.023514498 -1.3984835 1.8295571 234 88 12
0.034816407 -1.4154818 1.9286343 234 88 12
0.037901133 -1.4097135 1.8967174 234 88 12
0.028773086 -1.3805082 1.7290237 234 88 12
0.0850823 -1.444917 2.1077623 234 88 12
0.11006343 -1.406576 1.8967174 234 88 12
0.11713817 -1.4062685 1.8967174 234 88 12
0.19199139 -1.3474416 1.5819045 234 88 12
0.019796411 -1.4430006 2.0767238 234 88 12
0.050619163 -1.4469737 2.1074023 234 88 12
0.024822079 -1.382374 1.7279317 234 88 12
0.026834339 -1.3822865 1.7279317 234 88 12
0.038907908 -1.3817617 1.7279317 234 88 12
0.052993737 -1.3811492 1.7279317 234 88 12
0.065067306 -1.3806243 1.7279317 234 88 12
0.073116355 -1.3802743 1.7279317 234 88 12
0.079153135 -1.3800118 1.7279317 234 88 12
0.11153007 -1.4077035 1.8959496 234 88 12
0.11718986 -1.4074574 1.8959496 234 88 12
-0.060744397 -1.3110057 1.2748342 234 88 12
0.07922665 -1.3817027 1.7268398 234 88 12
0.0078939162 -1.4325076 2.001976 234 88 12
0.01306405 -1.4322829 2.001976 234 88 12
-0.065620482 -1.3124197 1.2618115 234 88 12
0.19480565 -1.3537248 1.5777755 234 88 12
0.019881055 -1.4449474 2.0754664 234 88 12
-0.060480177 -1.3170826 1.2709095 234 88 12
0.029646255 -1.4324324 2.0014148 234 88 12
-0.038747638 -1.336744 1.3971198 234 88 12
-0.035577662 -1.3366061 1.3971198 234 88 12
0.025841154 -1.4221387 1.9373535 234 88 12
-0.065353401 -1.3185625 1.2578443 234 88 12
-0.039578494 -1.3424613 1.4142299 234 88 12
0.021072103 -1.4182845 1.9046497 234 88 12
0.0434043 -1.4463252 2.0859885 234 88 12
0.0090180496 -1.3898374 1.7235638 234 88 12
0.10907815 -1.4321342 2.0151348 234 88 12
-0.011190851 -1.3814816 1.6527371 234 88 12
0.019748861 -1.4194983 1.9039044 234 88 12
0.065914407 -1.465642 2.2111542 234 88 12
0.091594279 -1.3879412 1.7224717 234 88 12
-0.013366169 -1.383477 1.6515119 234 88 12
0.0031282967 -1.3934816 1.7213798 234 88 12
0.11472064 -1.4292474 1.9860618 234 88 12
0.007048774 -1.436897 1.9991702 234 88 12
0.013252934 -1.4366273 1.9991702 234 88 12
0.026695283 -1.4360428 1.9991702 234 88 12
0.026790105 -1.4335793 1.9827974 234 88 12
-0.00082271034 -1.3953475 1.7202878 234 88 12
0.013263119 -1.394735 1.7202878 234 88 12
0.027348949 -1.3941226 1.7202878 234 88 12
0.039422516 -1.3935976 1.7202878 234 88 12
0.090581886 -1.4491446 2.104883 234 88 12
0.058323283 -1.4718559 2.2457018 234 88 12
0.052043565 -1.4551073 2.1298923 234 88 12
0.053581864 -1.3946761 1.7191958 234 88 12
0.065655433 -1.3941512 1.7191958 234 88 12
0.13033794 -1.4164153 1.8898067 234 88 12
0.1161074 -1.435141 2.0129998 234 88 12
0.04976695 -1.4556898 2.1295807 234 88 12
0.11700336 -1.4318811 1.9843003 234 88 12
0.068802454 -1.4751008 2.2703614 234 88 12
0.11704289 -1.4327903 1.983713 234 88 12
0.11421199 -1.4368796 2.0119321 234 88 12
0.11617928 -1.436794 2.0119321 234 88 12
0.038284536 -1.4536518 2.1034434 234 88 12
0.061604898 -1.4673021 2.2102048 234 88 12
0.12766312 -1.4201052 1.8875033 234 88 12
0.12907806 -1.4200437 1.8875033 234 88 12
0.20324847 -1.3725747 1.5653882 234 88 12
-0.014540962 -1.4044142 1.7148278 234 88 12
-0.012528701 -1.4043267 1.7148278 234 88 12
0.047839142 -1.401702 1.7148278 234 88 12
0.051863663 -1.401527 1.7148278 234 88 12
0.065949492 -1.4009145 1.7148278 234 88 12
-0.016479708 -1.4061925 1.7137358 234 88 12
0.044681296 -1.4578452 2.1283338 234 88 12
0.048127692 -1.4576954 2.1283338 234 88 12
0.052148491 -1.4575206 2.1283338 234 88 12
0.036367573 -1.4554101 2.1023636 234 88 12
-0.012381669 -1.4077084 1.7126439 234 88 12
0.052169476 -1.4580032 2.1280222 234 88 12
0.078170091 -1.4037714 1.7126439 234 88 12
0.090751491 -1.4530456 2.1023636 234 88 12
0.048059687 -1.4067745 1.7115519 234 88 12
0.052084211 -1.4065996 1.7115519 234 88 12
0.064934433 -1.4552847 2.1016438 234 88 12
0.080329388 -1.4070656 1.7104598 234 88 12
0.20624806 -1.3831204 1.5585064 234 88 12
1.1649454 0.11287071 2.1623144 234 88 12
1.1644424 0.11698005 2.1623144 234 88 12
1.1647545 0.129531 2.1613557 234 88 12
1.1631199 0.14288637 2.1613557 234 88 12
1.1897374 0.1234277 2.2263806 234 88 12
1.2069215 0.13121815 2.2756367 234 88 12
1.1896663 0.12964924 2.2260225 234 88 12
1.163432 0.15543731 2.1603973 234 88 12
0.93180478 0.11596457 1.4651933 234 88 12
0.93134356 0.11973282 1.4651933 234 88 12
0.92995989 0.13103758 1.4651933 234 88 12
1.249095 0.15325898 2.4028339 234 88 12
0.92488635 0.17248833 1.4651933 234 88 12
0.93745083 0.097532108 1.4634353 234 88 12
0.92638129 0.18797013 1.4634353 234 88 12
1.1646547 0.1680997 2.1589594 234 88 12
1.1908839 0.14225878 2.2245908 234 88 12
0.92741501 0.2072202 1.4616773 234 88 12
1.1748053 0.10782119 2.1575215 234 88 12
0.93317229 0.21557429 1.4581614 234 88 12
1.1913275 0.15555237 2.2235169 234 88 12
1.1014801 0.08916349 1.906736 234 88 12
1.1012355 0.091162734 1.906736 234 88 12
1.24932 0.15483661 2.402617 234 88 12
0.94180822 0.22810544 1.4528873 234 88 12
1.2123288 0.12898384 2.2729743 234 88 12
0.94468689 0.23228249 1.4511293 234 88 12
1.2128346 0.12904574 2.2727079 234 88 12
1.1811792 0.10860135 2.1541665 234 88 12
1.1997279 0.12075662 2.221369 234 88 12
1.1095469 0.082034074 1.9030052 234 88 12
1.1068552 0.10402574 1.9030052 234 88 12
1.1726285 0.17846024 2.1541665 234 88 12
1.1100953 0.092247166 1.9020725 234 88 12
1.110399 0.10445951 1.9011399 234 88 12
1.2132512 0.1424191 2.2716432 234 88 12
1.1741982 0.18073781 2.153208 234 88 12
1.2541761 0.15370597 2.4174254 234 88 12
1.1960393 0.16781081 2.2202952 234 88 12
1.2001003 0.14027174 2.2199371 234 88 12
1.1998185 0.1425736 2.2199371 234 88 12
0.97179919 0.20499019 1.4389734 234 88 12
0.98619723 0.1226154 1.4405441 234 88 12
1.2172471 0.13074431 2.2703118 234 88 12
1.2157104 0.14329934 2.2703118 234 88 12
0.99222094 0.13096462 1.4381125 234 88 12
1.2003561 0.1550999 2.2188632 234 88 12
0.98227841 0.20244873 1.4337003 234 88 12
0.98135608 0.20998408 1.4337003 234 88 12
1.188212 0.11154762 2.1503322 234 88 12
1.1237226 0.083769172 1.8955436 234 88 12
1.1227437 0.091766141 1.8955436 234 88 12
1.1222544 0.095764622 1.8955436 234 88 12
1.1212755 0.10376159 1.8955436 234 88 12
1.1620048 0.13322619 2.0619349 234 88 12
1.2024449 0.14367384 2.2185054 234 88 12
0.99657482 0.12007395 1.4350365 234 88 12
0.9995575 0.1242258 1.4481376 234 88 12
0.99554539 0.13137153 1.4363626 234 88 12
1.2010361 0.15518314 2.2185054 234 88 12
1.1996274 0.16669244 2.2185054 234 88 12
1.1994395 0.16822702 2.2185054 234 88 12
1.1230475 0.10397848 1.8946109 234 88 12
1.1213346 0.11797318 1.8946109 234 88 12
1.1705959 0.13628922 2.0907722 234 88 12
0.98941833 0.19949852 1.4301848 234 88 12
0.98849601 0.20703387 1.4301848 234 88 12
1.2001196 0.16831025 2.2181473 234 88 12
1.1233512 0.11619082 1.8936782 234 88 12
1.0665513 0.11761324 1.6747674 234 88 12
1.0027118 0.12082116 1.4294862 234 88 12
1.1675603 0.15010211 2.0806336 234 88 12
1.2070208 0.12320682 2.2174315 234 88 12
1.108808 0.12555236 1.8331068 234 88 12
1.0495898 0.12056112 1.5982975 234 88 12
1.0073297 0.1289759 1.4364836 234 88 12
1.0074575 0.13275555 1.4388011 234 88 12
0.99655819 0.19654833 1.4266694 234 88 12
0.99517471 0.20785135 1.4266694 234 88 12
1.1738883 0.13668898 2.0888667 234 88 12
1.0685083 0.12350774 1.662499 234 88 12
1.0094591 0.12164762 1.4262812 234 88 12
1.0809298 0.13903338 1.7195712 234 88 12
1.1181839 0.146346 1.8715949 234 88 12
1.1312361 0.15080339 1.9257822 234 88 12
1.1244256 0.15459342 1.9004915 234 88 12
1.124185 0.1565598 1.9004915 234 88 12
0.99713063 0.2195631 1.4249116 234 88 12
1.2298965 0.14795202 2.3159642 234 88 12
1.0919185 0.12719944 1.7472898 234 88 12
1.0916073 0.12974158 1.7472898 234 88 12
1.0204662 0.12674969 1.4579008 234 88 12
1.0200211 0.13038599 1.4579008 234 88 12
1.0415611 0.13585097 1.5477802 234 88 12
1.1584073 0.1485697 2.0269547 234 88 12
1.2493169 0.15486951 2.3979847 234 88 12
1.1966295 0.14224409 2.1747086 234 88 12
1.1429737 0.13540801 1.9507056 234 88 12
1.055444 0.12439151 1.5853542 234 88 12
1.023689 0.12714417 1.4562043 234 88 12
1.0764788 0.13602376 1.6776752 234 88 12
1.0545008 0.13703638 1.5878392 234 88 12
1.1201087 0.14670673 1.8623998 234 88 12
1.1546357 0.15316582 2.0075793 234 88 12
1.1334766 0.15495735 1.9215025 234 88 12
1.0777421 0.16104443 1.695457 234 88 12
1.0376164 0.16937914 1.5347056 234 88 12
1.0070374 0.19400686 1.4213961 234 88 12
1.2494097 0.15471455 2.3979466 234 88 12
1.1361264 0.085287385 1.8890146 234 88 12
1.1353923 0.09128511 1.8890146 234 88 12
1.2323329 0.1488094 2.3232658 234 88 12
1.1890275 0.14069389 2.1382642 234 88 12
1.1243372 0.13230413 1.8638136 234 88 12
1.0582348 0.12473312 1.5838852 234 88 12
1.0472815 0.12986694 1.5407658 234 88 12
1.0503064 0.13351494 1.555263 234 88 12
1.0572834 0.13737698 1.5863746 234 88 12
1.1371115 0.14956459 1.9259853 234 88 12
1.141457 0.15150851 1.9451263 234 88 12
1.022199 0.17828567 1.4607658 234 88 12
1.0217569 0.1818984 1.4607658 234 88 12
1.010838 0.19064792 1.4196384 234 88 12
1.1356959 0.10349745 1.8880819 234 88 12
1.1674818 0.13637801 2.0400479 234 88 12
1.0647118 0.12875544 1.5999705 234 88 12
1.0597748 0.1313176 1.5803502 234 88 12
1.1150212 0.14219622 1.8204467 234 88 12
1.1705853 0.14945672 2.0600116 234 88 12
1.135713 0.15157871 1.9131284 234 88 12
1.1126686 0.15572843 1.817492 234 88 12
1.1581933 0.15810497 2.0119169 234 88 12
1.0760459 0.16475852 1.6667687 234 88 12
1.0452535 0.16996968 1.5388037 234 88 12
1.0295787 0.17471457 1.47475 234 88 12
1.0287087 0.18182214 1.47475 234 88 12
1.0141773 0.19105665 1.4178807 234 88 12
1.1357551 0.11770903 1.8871492 234 88 12
1.1767197 0.13943689 2.0753007 234 88 12
1.0678216 0.12600704 1.5985323 234 88 12
1.0706351 0.12950706 1.6125145 234 88 12
1.0779282 0.13341162 1.6460309 234 88 12
1.1546196 0.14713441 1.984046 234 88 12
1.1692004 0.14947942 2.0481713 234 88 12
1.0775563 0.16230023 1.6596775 234 88 12
1.0562669 0.16967477 1.5717493 234 88 12
1.0325074 0.17862979 1.474002 234 88 12
1.1360587 0.12992138 1.8862165 234 88 12
1.1688056 0.13792753 2.0340891 234 88 12
1.0871575 0.13164665 1.6727383 234 88 12
1.0980618 0.13572748 1.7227373 234 88 12
1.1959326 0.15082689 2.1599483 234 88 12
1.1677048 0.15238711 2.0370226 234 88 12
1.150631 0.15557355 1.9638739 234 88 12
1.0793867 0.1683163 1.6583464 234 88 12
1.0719858 0.17480034 1.6293776 234 88 12
1.0217783 0.18433878 1.4143652 234 88 12
1.2175572 0.13531771 2.2435305 234 88 12
1.1458747 0.13365415 1.9230624 234 88 12
1.1623282 0.14464475 2.0024092 234 88 12
1.1350362 0.1440468 1.8804153 234 88 12
1.1902039 0.15063064 2.129945 234 88 12
1.2029053 0.15468669 2.1887813 234 88 12
1.2027996 0.15555045 2.1887813 234 88 12
1.0963049 0.16995735 1.7218893 234 88 12
1.1449474 0.13532351 1.9113405 234 88 12
1.1173252 0.13555922 1.7862371 234 88 12
1.1014905 0.13615762 1.7147777 234 88 12
1.1370713 0.1422482 1.8794742 234 88 12
1.1739384 0.15410756 2.0532036 234 88 12
1.1693871 0.15557818 2.033385 234 88 12
1.1485186 0.16140033 1.9420021 234 88 12
1.1380258 0.13409321 1.8699613 234 88 12
1.1274948 0.13687554 1.8229634 234 88 12
1.1357864 0.14217232 1.8641942 234 88 12
1.1914948 0.14973548 2.1253881 234 88 12
1.1967286 0.15106581 2.1502774 234 88 12
1.1911135 0.15521361 2.1267219 234 88 12
1.1836833 0.15782419 2.0939276 234 88 12
1.1482854 0.088804841 1.8824857 234 88 12
1.1480408 0.090804078 1.8824857 234 88 12
1.1458384 0.10879726 1.8824857 234 88 12
1.1448596 0.11679423 1.8824857 234 88 12
1.1431466 0.13078892 1.8824857 234 88 12
1.1200776 0.13588314 1.777159 234 88 12
1.1522598 0.14195745 1.9316646 234 88 12
1.1930871 0.15530418 2.1309152 234 88 12
1.1752589 0.15717646 2.0483308 234 88 12
1.1394761 0.16077755 1.8824857 234 88 12
1.1920319 0.18604884 2.1436222 234 88 12
1.1498127 0.091020964 1.8815529 234 88 12
1.1145355 0.13255887 1.7373585 234 88 12
1.1068085 0.1341182 1.7013683 234 88 12
1.1581841 0.14440201 1.9527361 234 88 12
1.2255665 0.13407952 2.2657857 234 88 12
1.1491376 0.11123028 1.8806202 234 88 12
1.1484035 0.117228 1.8806202 234 88 12
1.0903573 0.11644582 1.5979556 234 88 12
1.0910867 0.11972151 1.6034515 234 88 12
1.1874653 0.14845572 2.0891066 234 88 12
1.1888659 0.15455417 2.099545 234 88 12
1.112978 0.17075571 1.7402465 234 88 12
1.1226226 0.1286009 1.7500514 234 88 12
1.1223192 0.13108012 1.7500514 234 88 12
1.1801691 0.14515588 2.0449569 234 88 12
1.1161367 0.16346945 1.739071 234 88 12
1.1139777 0.18110861 1.739071 234 88 12
1.0683591 0.10344224 1.4485248 234 88 12
1.0623678 0.10944852 1.4220231 234 88 12
1.0825684 0.12083597 1.5309029 234 88 12
1.0859302 0.12476333 1.5502771 234 88 12
1.0832512 0.12763086 1.5385392 234 88 12
1.1488978 0.13960619 1.8769212 234 88 12
1.1529083 0.14209236 1.8986771 234 88 12
1.1609981 0.1465829 1.9422368 234 88 12
1.239141 0.1547571 2.3412805 234 88 12
1.1992284 0.15874179 2.1424987 234 88 12
1.0715405 0.10383164 1.4468502 234 88 12
1.0810226 0.10991427 1.4993829 234 88 12
1.0743061 0.1190547 1.4706284 234 88 12
1.1218373 0.15393665 1.7367197 234 88 12
1.2003871 0.15680411 2.1420209 234 88 12
1.1990079 0.16807255 2.1420209 234 88 12
1.0687571 0.10640943 1.4153523 234 88 12
1.065555 0.1133194 1.4030173 234 88 12
1.0650966 0.11706413 1.4030173 234 88 12
1.0717255 0.12203041 1.4409008 234 88 12
1.0937539 0.12905782 1.5607219 234 88 12
1.1272631 0.13670762 1.7410418 234 88 12
1.1622096 0.14500347 1.9293005 234 88 12
1.1246876 0.14917026 1.7355442 234 88 12
1.1999158 0.16818368 2.1415429 234 88 12
1.1191357 0.19452812 1.7355442 234 88 12
1.0788532 0.097454309 1.4438964 234 88 12
1.0903848 0.10806582 1.5123659 234 88 12
1.0720358 0.10681075 1.4136266 234 88 12
1.0755609 0.12619197 1.4450977 234 88 12
1.078887 0.13027444 1.4655143 234 88 12
1.0919266 0.13529555 1.5383794 234 88 12
1.1025701 0.13955387 1.5979601 234 88 12
1.2025791 0.15395316 2.1410649 234 88 12
1.2024537 0.15497757 2.1410649 234 88 12
1.2008237 0.16829482 2.1410649 234 88 12
1.2128756 0.17688061 2.210988 234 88 12
1.1624612 0.09053994 1.8750241 234 88 12
1.1663219 0.13072415 1.922798 234 88 12
1.0842013 0.11312622 1.4641992 234 88 12
1.0728737 0.11427896 1.4033253 234 88 12
1.0724171 0.11800973 1.4033253 234 88 12
1.0746553 0.12220985 1.4183024 234 88 12
1.0969669 0.12937686 1.5444895 234 88 12
1.1248018 0.13633536 1.7005943 234 88 12
1.1229857 0.20011462 1.7331929 234 88 12
1.0827585 0.093636416 1.4237988 234 88 12
1.1001883 0.10988886 1.5315897 234 88 12
1.0935903 0.11152583 1.4960778 234 88 12
1.0861518 0.12046251 1.4608606 234 88 12
1.2244236 0.14217734 2.2395341 234 88 12
1.0859931 0.094032317 1.4220963 234 88 12
1.0872726 0.1094378 1.4400241 234 88 12
1.1357648 0.12483779 1.7253568 234 88 12
1.1360886 0.13010469 1.7308418 234 88 12
1.2260561 0.13368277 2.2392268 234 88 12
1.1389389 0.1253383 1.7296662 234 88 12
1.2255917 0.14232032 2.2389195 234 88 12
1.1313025 0.20624785 1.7284906 234 88 12
1.171321 0.091624379 1.8703605 234 88 12
1.1446395 0.11580551 1.7273149 234 88 12
1.2063702 0.14929557 2.1242781 234 88 12
1.2055807 0.15574597 2.1242781 234 88 12
1.133536 0.20652123 1.7273149 234 88 12
1.135461 0.20931448 1.7261394 234 88 12
1.1503401 0.10627273 1.7249638 234 88 12
1.2114727 0.14152499 2.1372416 234 88 12
1.1531904 0.10150633 1.7237881 234 88 12
1.2105446 0.1388948 2.1227734 234 88 12
1.1786536 0.090492681 1.8666297 234 88 12
1.2527075 0.15325204 2.4054043 234 88 12
1.2129767 0.13482779 2.1217704 234 88 12
1.1614327 0.089727037 1.7202613 234 88 12
1.1611243 0.092246912 1.7202613 234 88 12
1.1842142 0.089144103 1.8638315 234 88 12
1.2130032 0.16666633 2.1348522 234 88 12
1.2127525 0.16871513 2.1348522 234 88 12
1.148553 0.21347457 1.7190858 234 88 12
1.2128087 0.1599042 2.1202657 234 88 12
1.2177092 0.12776884 2.1197641 234 88 12
1.172217 0.075701222 1.715559 234 88 12
1.1552533 0.21429467 1.715559 234 88 12
1.1750673 0.070934832 1.7143834 234 88 12
1.2084796 0.13293505 2.0255408 234 88 12
1.2072752 0.1427756 2.0255408 234 88 12
1.2102418 0.12887017 2.0248849 234 88 12
1.2100698 0.13027598 2.0248849 234 88 12
1.2085211 0.14292811 2.0248849 234 88 12
1.1619536 0.21511479 1.7120322 234 88 12
1.1826929 0.064195298 1.7108566 234 88 12
1.2135942 0.12214623 2.0235732 234 88 12
1.2127337 0.1291752 2.0235732 234 88 12
1.188085 0.05718239 1.7085054 234 88 12
1.2255634 0.11890966 2.1162531 234 88 12
1.2107105 0.15603776 2.0229173 234 88 12
1.2136772 0.14213234 2.0222616 234 88 12
1.2278639 0.11591771 2.1152501 234 88 12
1.2277323 0.11699278 2.1152501 234 88 12
1.2181925 0.11557479 2.0216057 234 88 12
1.2133745 0.15493698 2.0216057 234 88 12
1.222074 0.16322061 2.1152501 234 88 12
1.1957105 0.050442852 1.7049786 234 88 12
1.2482885 0.14176403 2.3373613 234 88 12
1.2259653 0.16617337 2.1281612 234 88 12
1.2257144 0.16822217 2.1281612 234 88 12
1.2254637 0.17027099 2.1281612 234 88 12
1.2260171 0.16261205 2.1132438 234 88 12
1.1823628 0.21505523 1.7014518 234 88 12
1.2268728 0.10664929 2.0176706 234 88 12
1.2256683 0.11648984 2.0176706 234 88 12
1.2266116 0.12944698 2.0163589 234 88 12
1.2160454 0.032470755 1.6955738 234 88 12
1.2311269 0.10288943 2.015703 234 88 12
1.2263091 0.14225163 2.015703 234 88 12
1.2387083 0.10633334 2.1102345 234 88 12
1.2260064 0.15505625 2.0150473 234 88 12
1.1960717 0.21417555 1.6943982 234 88 12
1.223671 0.025731221 1.692047 234 88 12
1.239036 0.13429846 2.1374667 234 88 12
1.2383183 0.14016214 2.1374667 234 88 12
1.2380791 0.1421167 2.1374667 234 88 12
1.2515028 0.13892329 2.3358748 234 88 12
1.2389452 0.14222272 2.1370106 234 88 12
1.2284461 0.023758078 1.6896957 234 88 12
1.2417253 0.12669225 2.1365547 234 88 12
1.2053138 0.21274915 1.6896957 234 88 12
1.2394632 0.096775517 2.0117681 234 88 12
1.2386029 0.10380448 2.0117681 234 88 12
1.2382587 0.10661606 2.0117681 234 88 12
1.2391225 0.1551394 2.1360989 234 88 12
1.2318922 0.15863039 2.0117681 234 88 12
1.2449517 0.10273284 2.1072254 234 88 12
1.2331797 0.16877595 2.0104563 234 88 12
1.238802 0.16670482 2.1214705 234 88 12
1.2386765 0.16772923 2.1214705 234 88 12
1.2405386 0.017565278 1.6838177 234 88 12
1.2399151 0.16758668 2.1057208 234 88 12
1.240868 0.16770332 2.1052191 234 88 12
1.2536985 0.13801599 2.3347936 234 88 12
1.2392375 0.17094427 2.0071771 234 88 12
1.2520165 0.10032405 2.1037145 234 88 12
0.12855045 1.2087882 2.274838 234 88 12
0.13089511 1.2090145 2.2745717 234 88 12
0.068954177 1.1021552 1.9076687 234 88 12
0.062956452 1.1028894 1.9076687 234 88 12
0.081383407 1.104231 1.9058033 234 88 12
0.12441836 1.2128876 2.2729743 234 88 12
0.16372614 1.2307466 2.3450644 234 88 12
0.053610906 1.1094288 1.9048706 234 88 12
0.12663983 1.206764 2.2496789 234 88 12
0.049829308 1.1116902 1.9039379 234 88 12
0.13887118 1.2126588 2.2721756 234 88 12
0.094029523 1.1080786 1.9030052 234 88 12
0.082034074 1.1095469 1.9030052 234 88 12
0.10962868 1.1810534 2.1541665 234 88 12
0.1553576 1.2506889 2.4063175 234 88 12
0.096245654 1.1096059 1.9020725 234 88 12
0.1424191 1.2132512 2.2716432 234 88 12
0.12948999 1.2081934 2.2487564 234 88 12
0.10266022 1.1837547 2.153208 234 88 12
0.24565116 1.0562063 1.7649342 234 88 12
0.24313128 1.0565147 1.7649342 234 88 12
0.23053187 1.058057 1.7649342 234 88 12
0.10667564 1.1119263 1.9002072 234 88 12
0.25096428 1.0578228 1.7637585 234 88 12
0.24340464 1.0587481 1.7637585 234 88 12
0.18868273 1.1715683 2.1398261 234 88 12
0.21820584 1.0618324 1.7637585 234 88 12
0.15475625 1.2509016 2.4062452 234 88 12
0.1162385 1.1839411 2.1522493 234 88 12
0.099912561 1.1868637 2.1517701 234 88 12
0.047132149 1.1228114 1.8983417 234 88 12
0.19429131 1.172816 2.138823 234 88 12
0.18461572 1.1740004 2.138823 234 88 12
0.18031546 1.1745267 2.138823 234 88 12
0.20615317 1.0678415 1.7614074 234 88 12
0.121321 1.1155293 1.897409 234 88 12
0.10721537 1.1868939 2.1512909 234 88 12
0.25934404 1.0635978 1.7602317 234 88 12
0.19993597 1.1496929 2.0517745 234 88 12
0.1988669 1.0710002 1.7602317 234 88 12
0.14729412 1.2152215 2.2703118 234 88 12
0.12218405 1.218295 2.2703118 234 88 12
0.1966747 1.1744586 2.1378198 234 88 12
0.20290007 1.1505947 2.0511186 234 88 12
0.19305952 1.1517992 2.0511186 234 88 12
0.13175099 1.1178497 1.8955436 234 88 12
0.1277525 1.1183391 1.8955436 234 88 12
0.11575705 1.1198074 1.8955436 234 88 12
0.10176235 1.1215203 1.8955436 234 88 12
0.11873898 1.1873318 2.1503322 234 88 12
0.043784328 1.1286167 1.8955436 234 88 12
0.19185399 1.0763923 1.7578806 234 88 12
0.14448678 1.2105073 2.2466047 234 88 12
0.10997621 1.1223134 1.8946109 234 88 12
0.10197924 1.1232922 1.8946109 234 88 12
0.20742245 1.1525705 2.0498071 234 88 12
0.16103145 1.209075 2.2462974 234 88 12
0.14617945 1.1196806 1.8936782 234 88 12
0.26547727 1.0719147 1.7555294 234 88 12
0.15457539 1.2352544 2.3433075 234 88 12
0.13474584 1.212885 2.2459898 234 88 12
0.26575065 1.0741481 1.7543538 234 88 12
0.18763433 1.0837095 1.7543538 234 88 12
0.18007469 1.0846348 1.7543538 234 88 12
0.15407984 1.2513551 2.4060531 234 88 12
0.18546768 1.1870567 2.161175 234 88 12
0.17976412 1.1597497 2.0478394 234 88 12
0.167156 1.1829073 2.1353121 234 88 12
0.14609058 1.212682 2.2453749 234 88 12
0.17851084 1.1611679 2.0471835 234 88 12
0.11705837 1.1304392 1.8899473 234 88 12
0.12422382 1.208967 2.2163575 234 88 12
0.18990968 1.1610372 2.0465279 234 88 12
0.15611745 1.2126403 2.2447603 234 88 12
0.15618895 1.2132243 2.2444527 234 88 12
0.15421216 1.2134662 2.2444527 234 88 12
0.10549669 1.1354513 1.8880819 234 88 12
0.10149821 1.1359407 1.8880819 234 88 12
0.13510326 1.2158052 2.2444527 234 88 12
0.15601359 1.25135 2.4059329 234 88 12
0.26963738 1.0850067 1.7484758 234 88 12
0.2098958 1.1611203 2.0452161 234 88 12
0.18002808 1.1912391 2.1593513 234 88 12
0.16654745 1.1868503 2.133306 234 88 12
0.17388189 1.0967271 1.7484758 234 88 12
0.16632225 1.0976524 1.7484758 234 88 12
0.12170752 1.1352656 1.8871492 234 88 12
0.11603339 1.2120403 2.2152836 234 88 12
0.11688391 1.2126265 2.2149258 234 88 12
0.11534934 1.2128142 2.2149258 234 88 12
0.13013826 1.1378307 1.8852838 234 88 12
0.12924373 1.2118038 2.2145677 234 88 12
0.10044553 1.1997371 2.1450601 234 88 12
0.1301775 1.21307 2.2138519 234 88 12
0.27100423 1.0961739 1.7425978 234 88 12
0.20260777 1.1872722 2.1307981 234 88 12
0.19424011 1.1938953 2.1570716 234 88 12
0.16707876 1.1726843 2.0419369 234 88 12
0.16264933 1.1094364 1.7425978 234 88 12
0.13678665 1.1424125 1.8824857 234 88 12
0.12878968 1.1433914 1.8824857 234 88 12
0.11479498 1.1451043 1.8824857 234 88 12
0.14330286 1.2309203 2.3015575 234 88 12
0.27127758 1.0984073 1.7414222 234 88 12
0.16723128 1.1739303 2.041281 234 88 12
0.16040282 1.1119783 1.7414222 234 88 12
0.15284318 1.1129036 1.7414222 234 88 12
0.11513948 1.1623435 1.9554952 234 88 12
0.087326236 1.1153086 1.7146105 234 88 12
0.12657475 1.2002356 2.1431429 234 88 12
0.17722432 1.1739718 2.0406251 234 88 12
0.1127252 1.1279751 1.7786256 234 88 12
0.15012895 1.2466004 2.3775954 234 88 12
0.14480619 1.2357631 2.3217411 234 88 12
0.1844058 1.1743574 2.0399692 234 88 12
0.12045594 1.0597781 1.434014 234 88 12
0.13343883 1.1482178 1.8796875 234 88 12
0.12744111 1.1489519 1.8796875 234 88 12
0.14086464 1.2249405 2.2639906 234 88 12
0.15469632 1.197005 2.128792 234 88 12
0.13580921 1.0650667 1.4518995 234 88 12
0.11422651 1.0671171 1.4489181 234 88 12
0.099852808 1.0687984 1.4485248 234 88 12
0.10138019 1.085803 1.5352051 234 88 12
0.14915395 1.2413446 2.3489332 234 88 12
0.20319091 1.1920364 2.1282904 234 88 12
0.18206556 1.1997813 2.1547921 234 88 12
0.18011101 1.2000206 2.1547921 234 88 12
0.15911321 1.1974316 2.1282904 234 88 12
0.14889689 1.122454 1.7367197 234 88 12
0.12621817 1.0745034 1.4761459 234 88 12
0.12068682 1.0828375 1.5154787 234 88 12
0.11102777 1.0707364 1.4472443 234 88 12
0.10838405 1.0749332 1.4671403 234 88 12
0.1002422 1.0719799 1.4468502 234 88 12
0.10173483 1.0887005 1.53368 234 88 12
0.11574394 1.1536018 1.8758755 234 88 12
0.14996116 1.2456328 2.3701382 234 88 12
0.093459509 1.1292396 1.7367197 234 88 12
0.1280479 1.203752 2.1412258 234 88 12
0.097227789 1.2075244 2.1412258 234 88 12
0.21719654 1.1741378 2.0380018 234 88 12
0.18345752 1.1782675 2.0380018 234 88 12
0.17924015 1.1787837 2.0380018 234 88 12
0.16658802 1.1803322 2.0380018 234 88 12
0.1538545 1.1990423 2.1277888 234 88 12
0.13991539 1.1073272 1.6387342 234 88 12
0.13215363 1.0642463 1.4082346 234 88 12
0.12810697 1.0875108 1.5274301 234 88 12
0.12396231 1.0829339 1.5008147 234 88 12
0.11010873 1.0683043 1.4153523 234 88 12
0.10287379 1.0698068 1.4185826 234 88 12
0.10557779 1.1026541 1.5922683 234 88 12
0.10253016 1.1030271 1.5922683 234 88 12
0.13737744 1.2094545 2.1717386 234 88 12
0.11744169 1.1592917 1.8963654 234 88 12
0.12842435 1.1918405 2.0737934 234 88 12
0.12215474 1.1837356 2.0273476 234 88 12
0.12918667 1.2045369 2.1407466 234 88 12
0.19595952 1.199839 2.1538801 234 88 12
0.19302769 1.2001978 2.1538801 234 88 12
0.18032303 1.2017529 2.1538801 234 88 12
0.15612127 1.1997319 2.1272874 234 88 12
0.15397114 1.1999952 2.1272874 234 88 12
0.14188398 1.1278462 1.7343686 234 88 12
0.13859017 1.1212631 1.6970866 234 88 12
0.13048795 1.0804981 1.4742514 234 88 12
0.13643204 1.1425623 1.8093398 234 88 12
0.13328253 1.1376114 1.7808625 234 88 12
0.11976035 1.0802342 1.4658355 234 88 12
0.11540552 1.0767101 1.4441847 234 88 12
0.11051004 1.071583 1.4136266 234 88 12
0.09958642 1.0735264 1.4168622 234 88 12
0.12342695 1.1714082 1.9547813 234 88 12
0.10647827 1.1318316 1.7325106 234 88 12
0.10666298 1.1549689 1.8561027 234 88 12
0.011732462 1.0801592 1.3948733 234 88 12
-0.0033405428 1.0820041 1.3948733 234 88 12
-0.014645296 1.0833879 1.3948733 234 88 12
-0.018413547 1.0838491 1.3948733 234 88 12
0.18486467 1.2180132 2.240149 234 88 12
0.13119148 1.0860389 1.4862317 234 88 12
0.13709193 1.1472664 1.8233445 234 88 12
0.13517234 1.1490808 1.8319397 234 88 12
0.11800973 1.0724171 1.4033253 234 88 12
0.11427896 1.0728737 1.4033253 234 88 12
0.11168577 1.0926307 1.5091103 234 88 12
0.11855876 1.1462432 1.8054326 234 88 12
0.11671429 1.1477108 1.8121905 234 88 12
0.1144844 1.1479838 1.8121905 234 88 12
0.11560005 1.1568822 1.8613563 234 88 12
0.11460172 1.1645621 1.9024837 234 88 12
0.019677762 1.0825766 1.3931153 234 88 12
0.012141259 1.0834991 1.3931153 234 88 12
0.008373009 1.0839603 1.3931153 234 88 12
-0.0029317446 1.085344 1.3931153 234 88 12
-0.014236498 1.0867277 1.3931153 234 88 12
0.27094465 1.116583 1.7320174 234 88 12
0.12731144 1.1341636 1.7320174 234 88 12
0.11263523 1.0836678 1.4417541 234 88 12
0.11345718 1.1009934 1.5384833 234 88 12
0.10474773 1.081996 1.4271154 234 88 12
0.11194411 1.1353023 1.7278973 234 88 12
0.10085484 1.127843 1.6789578 234 88 12
0.08800596 1.1252366 1.6557606 234 88 12
0.023854811 1.0854553 1.3913572 234 88 12
-0.028900703 1.0919125 1.3913572 234 88 12
0.14057106 1.1109779 1.595872 234 88 12
0.13373728 1.077159 1.3995873 234 88 12
0.13626859 1.1427457 1.7728202 234 88 12
0.11480866 1.078213 1.3924339 234 88 12
0.10741266 1.0931679 1.4720103 234 88 12
0.10009626 1.1343234 1.7000396 234 88 12
0.10241019 1.1452373 1.76346 234 88 12
0.095291495 1.1359068 1.7056776 234 88 12
0.02803186 1.0883338 1.3895992 234 88 12
0.16453896 1.1869063 2.0347226 234 88 12
0.13717228 1.1076338 1.5570542 234 88 12
0.12486745 1.0926787 1.4618856 234 88 12
0.10690419 1.0931778 1.4520597 234 88 12
0.11482482 1.1303817 1.6727538 234 88 12
0.10366853 1.1055043 1.5210344 234 88 12
0.11107298 1.135818 1.7015284 234 88 12
0.11380454 1.1616145 1.8526003 234 88 12
0.10862669 1.1549678 1.810509 234 88 12
0.10569772 1.1537536 1.8014169 234 88 12
0.10877921 1.1647615 1.8672384 234 88 12
-0.013010103 1.0967473 1.3878412 234 88 12
-0.028083108 1.0985923 1.3878412 234 88 12
-0.039387859 1.0999759 1.3878412 234 88 12
0.094814487 1.213365 2.1383502 234 88 12
0.17453203 1.1869478 2.0340667 234 88 12
0.1315027 1.0893804 1.4270015 234 88 12
0.12717557 1.0852784 1.3996595 234 88 12
0.11590977 1.0861535 1.3966858 234 88 12
0.1159993 1.1021243 1.4910318 234 88 12
0.11140733 1.110414 1.5366501 234 88 12
0.11833762 1.1430036 1.7340449 234 88 12
0.11583798 1.1433095 1.7340449 234 88 12
0.12128698 1.1655769 1.8694342 234 88 12
0.11984864 1.1672951 1.8785381 234 88 12
0.12218539 1.1780698 1.9438336 234 88 12
0.11889493 1.1746889 1.9214969 234 88 12
0.013776452 1.0968586 1.3860832 234 88 12
0.010008201 1.0973198 1.3860832 234 88 12
-0.0012965519 1.0987035 1.3860832 234 88 12
0.18171349 1.1873335 2.0334108 234 88 12
0.13008116 1.1237227 1.6117206 234 88 12
0.12720592 1.1244057 1.6137171 234 88 12
0.1179615 1.1115394 1.5293084 234 88 12
0.13672814 1.1928396 2.0334108 234 88 12
0.13961998 1.2075545 2.1242781 234 88 12
0.13140033 1.1943331 2.0384846 234 88 12
0.12450423 1.1886188 1.9989364 234 88 12
0.12892251 1.204313 2.0968359 234 88 12
0.036794756 1.0974311 1.3843253 234 88 12
0.20316549 1.2007437 2.1237764 234 88 12
0.15375015 1.1920208 2.0327549 234 88 12
0.1503837 1.0936022 1.423757 234 88 12
0.14912777 1.186319 1.9941337 234 88 12
0.14019807 1.1025509 1.4712169 234 88 12
0.14196372 1.1680311 1.8760397 234 88 12
0.13998851 1.1682729 1.8760397 234 88 12
0.12069804 1.1239048 1.5880929 234 88 12
0.12545757 1.1525602 1.7682586 234 88 12
0.12732199 1.1792299 1.9340043 234 88 12
0.13166206 1.2027555 2.082243 234 88 12
0.13476905 1.2148603 2.1591771 234 88 12
0.040971808 1.1003097 1.3825672 234 88 12
-0.038161468 1.1099956 1.3825672 234 88 12
-0.041929718 1.1104568 1.3825672 234 88 12
0.11224392 1.2256188 2.2084825 234 88 12
0.15419711 1.1352957 1.6671455 234 88 12
0.13950993 1.1656344 1.8469354 234 88 12
0.13497943 1.1643162 1.8351386 234 88 12
0.12836653 1.1641885 1.8292356 234 88 12
0.13051127 1.1786071 1.9217167 234 88 12
0.13274427 1.1995575 2.0554135 234 88 12
0.13142306 1.1997193 2.0554135 234 88 12
0.13473144 1.2131835 2.1427808 234 88 12
0.22358418 1.0910563 1.4197578 234 88 12
0.21336521 1.1077359 1.5191566 234 88 12
0.20561811 1.1119002 1.539876 234 88 12
0.16302973 1.2051029 2.1067474 234 88 12
0.16134648 1.201362 2.0813191 234 88 12
0.15795977 1.2191566 2.1932893 234 88 12
0.15866107 1.2040172 2.0963073 234 88 12
0.15785973 1.1993594 2.0656683 234 88 12
0.158078 1.1717461 1.8879426 234 88 12
0.15412779 1.1850964 1.9708359 234 88 12
0.15255409 1.1885924 1.9921182 234 88 12
0.15092188 1.1866348 1.9782194 234 88 12
0.14775027 1.1617602 1.8154647 234 88 12
0.14666522 1.1747769 1.8984691 234 88 12
0.14563723 1.1827917 1.9492933 234 88 12
0.14445028 1.197203 2.0412016 234 88 12
0.13858187 1.1824576 1.9415767 234 88 12
0.13622564 1.1871902 1.9702086 234 88 12
0.13529448 1.1898621 1.9866884 234 88 12
0.045557655 1.1065282 1.3790512 234 88 12
0.038021151 1.1074507 1.3790512 234 88 12
0.022948148 1.1092956 1.3790512 234 88 12
0.019179896 1.1097568 1.3790512 234 88 12
-0.048648622 1.118059 1.3790512 234 88 12
-0.052416876 1.1185203 1.3790512 234 88 12
0.27061173 1.1347588 1.7226126 234 88 12
0.21746834 1.1880157 2.0307875 234 88 12
0.21371897 1.1106261 1.5176352 234 88 12
0.16906914 1.2045994 2.1010525 234 88 12
0.16108993 1.2286085 2.2528751 234 88 12
0.16171925 1.2008555 2.0704446 234 88 12
0.15513851 1.2400001 2.323164 234 88 12
0.15590054 1.2147965 2.1576443 234 88 12
0.15487157 1.2173066 2.1733603 234 88 12
0.15398119 1.2174157 2.1733603 234 88 12
0.1531588 1.222605 2.2069032 234 88 12
0.15106434 1.2137454 2.1468139 234 88 12
0.14812195 1.2205211 2.1891031 234 88 12
0.13344988 1.1949675 2.0088246 234 88 12
0.045966454 1.109868 1.3772932 234 88 12
0.038429949 1.1107905 1.3772932 234 88 12
0.27088511 1.1369922 1.721437 234 88 12
0.17388308 1.2019849 2.0798585 234 88 12
0.15962671 1.2326218 2.2748055 234 88 12
0.1609024 1.2224823 2.2074435 234 88 12
0.15365428 1.2499992 2.3871262 234 88 12
0.14217985 1.2066528 2.0851719 234 88 12
0.13559547 1.2255217 2.2070506 234 88 12
-0.051599279 1.1251999 1.3755352 234 88 12
-0.055367529 1.1256613 1.3755352 234 88 12
0.27115846 1.1392257 1.7202613 234 88 12
0.17768615 1.2126255 2.1484089 234 88 12
0.16693607 1.2139413 2.1484089 234 88 12
0.15405336 1.2514805 2.3969145 234 88 12
0.15426235 1.2135999 2.13533 234 88 12
0.13694568 1.2067645 2.0734491 234 88 12
0.054320551 1.1156254 1.3737773 234 88 12
0.18463314 1.2126544 2.147953 234 88 12
0.1594955 1.2138809 2.1348522 234 88 12
0.14105624 1.2161379 2.1348522 234 88 12
0.12691304 1.2006495 2.0129321 234 88 12
0.18447611 1.2257668 2.2361526 234 88 12
0.15529999 1.2514752 2.3968382 234 88 12
0.15340032 1.254522 2.4172654 234 88 12
-0.054141134 1.1356808 1.3702612 234 88 12
0.19754983 1.2128317 2.1470411 234 88 12
0.11060797 1.2313411 2.2056186 234 88 12
0.16802412 1.2156017 2.1334183 234 88 12
-0.057091787 1.1428218 1.3667452 234 88 12
0.27000543 1.1507012 1.7143834 234 88 12
0.093181327 1.2255793 2.1321194 234 88 12
-0.056274194 1.1495016 1.3632292 234 88 12
0.21743511 1.1994015 2.0248849 234 88 12
0.12840579 1.2232156 2.1319847 234 88 12
0.053837962 1.1428227 1.3598754 234 88 12
0.24263041 1.1231041 1.3581177 234 88 12
0.050479021 1.1466233 1.3581177 234 88 12
0.21648684 1.2033116 2.0229173 234 88 12
0.2505745 1.1255212 1.3563601 234 88 12
0.13181239 1.2255633 2.1305509 234 88 12
0.12873919 1.2259394 2.1305509 234 88 12
0.05088776 1.1499627 1.3563601 234 88 12
0.035817061 1.1518073 1.3563601 234 88 12
0.26228625 1.127477 1.3546023 234 88 12
0.024922775 1.1565301 1.3546023 234 88 12
0.0098520787 1.1583748 1.3546023 234 88 12
0.27023032 1.129894 1.3528446 234 88 12
0.25515962 1.1317387 1.3528446 234 88 12
0.047937553 1.1571026 1.3528446 234 88 12
0.036634531 1.158486 1.3528446 234 88 12
0.02533151 1.1598694 1.3528446 234 88 12
0.014028488 1.161253 1.3528446 234 88 12
0.010260814 1.1617141 1.3528446 234 88 12
-0.0010422084 1.1630976 1.3528446 234 88 12
0.2819421 1.1318499 1.3510869 234 88 12
0.18131717 1.2222686 2.129117 234 88 12
0.040810943 1.1613642 1.3510869 234 88 12
0.03704327 1.1618254 1.3510869 234 88 12
0.095100269 1.2327379 2.1282852 234 88 12
0.27858314 1.1356505 1.3493291 234 88 12
0.26728013 1.1370339 1.3493291 234 88 12
0.1115236 1.2388217 2.2016811 234 88 12
0.18358824 1.2238337 2.1281612 234 88 12
0.18051502 1.2242099 2.1281612 234 88 12
0.12827045 1.2306045 2.1281612 234 88 12
0.19599625 1.2244509 2.141114 234 88 12
0.17652854 1.2256193 2.1276834 234 88 12
0.19414771 1.2255564 2.1406581 234 88 12
0.19317043 1.2256761 2.1406581 234 88 12
0.1848349 1.2255242 2.1272054 234 88 12
-0.04047266 1.1848565 1.3438911 234 88 12
0.21348952 1.2137957 2.0176706 234 88 12
0.27268273 1.1499302 1.3422982 234 88 12
0.050389968 1.1771387 1.3422982 234 88 12
-0.035886813 1.191075 1.3403752 234 88 12
0.099989772 1.2386088 2.1249301 234 88 12
0.13007277 1.2368348 2.1248159 234 88 12
-0.027123915 1.2001722 1.3351011 234 88 12
0.11687648 1.2443788 2.1984594 234 88 12
0.13131945 1.2385253 2.1238601 234 88 12
0.10351758 1.2418737 2.123013 234 88 12
0.19573802 1.2385491 2.1338191 234 88 12
0.1885507 1.2388927 2.1200368 234 88 12
0.13297136 1.2486211 2.1952379 234 88 12
0.14358807 1.2453176 2.1195588 234 88 12
0.11890335 1.2483083 2.1186996 234 88 12
0.060949992 1.2397621 1.6814666 234 88 12
0.12815914 1.2476424 2.1042161 234 88 12
0.19312423 1.2415066 2.1324513 234 88 12
0.14319579 1.2494403 2.194164 234 88 12
0.13687629 1.2475425 2.1037145 234 88 12
0.11189435 1.2380602 1.6791154 234 88 12
-1.312284 1.2961435 1.9076126 234 88 12
-1.2468392 1.2434887 1.7361995 234 88 12
-1.2514945 1.2397826 1.7355216 234 88 12
-1.2528769 1.2383802 1.7355216 234 88 12
-1.3341419 1.3157167 1.9666429 234 88 12
-1.3340594 1.3158541 1.9666071 234 88 12
-1.243161 1.2523054 1.7328094 234 88 12
-1.2091339 1.214677 1.6246246 234 88 12
-1.2121165 1.2116511 1.6246246 234 88 12
-1.2131107 1.2106423 1.6246246 234 88 12
-1.3158516 1.2943327 1.9064066 234 88 12
-1.2135792 1.2130928 1.6226741 234 88 12
-1.2426612 1.240823 1.7051386 234 88 12
-1.2457024 1.2377375 1.7051386 234 88 12
-1.2055684 1.2270718 1.6187729 234 88 12
-1.2264469 1.2058898 1.6187729 234 88 12
-1.2418821 1.2607219 1.7280633 234 88 12
-1.2639991 1.2382834 1.7280633 234 88 12
-1.241097 1.2468851 1.7021551 234 88 12
-1.2494603 1.2384 1.7021551 234 88 12
-1.2517413 1.2360859 1.7021551 234 88 12
-1.2645075 1.2387846 1.7273854 234 88 12
-1.2513393 1.2387313 1.7006634 234 88 12
-1.2418424 1.2648301 1.7253513 234 88 12
-1.2410532 1.2514044 1.6991718 234 88 12
-1.2057171 1.2371615 1.6119457 234 88 12
-1.2325609 1.2099276 1.6119457 234 88 12
-1.2054543 1.238891 1.6109704 234 88 12
-1.124174 1.1526232 1.3171314 234 88 12
-1.1295204 1.147199 1.3171314 234 88 12
-1.1219208 1.1575314 1.3153831 234 88 12
-1.1237029 1.1557233 1.3153831 234 88 12
-1.1326135 1.1466832 1.3153831 234 88 12
-1.1361778 1.1430671 1.3153831 234 88 12
-1.1196675 1.1624397 1.3136349 234 88 12
-1.238469 1.2097852 1.6080445 234 88 12
-1.1227608 1.1619239 1.3118867 234 88 12
-1.1352355 1.1492677 1.3118867 234 88 12
-1.1146901 1.1753565 1.3083901 234 88 12
-1.1485503 1.141004 1.3083901 234 88 12
-1.239669 1.2129565 1.6051185 234 88 12
-1.2410321 1.2778561 1.7172152 234 88 12
-1.2060715 1.2514312 1.6021926 234 88 12
-1.240363 1.2644111 1.6909673 234 88 12
-1.1364442 1.161153 1.3031455 234 88 12
-1.1489191 1.1484967 1.3031455 234 88 12
-1.264693 1.2397274 1.6909673 234 88 12
-1.1145877 1.1859496 1.3013972 234 88 12
-1.1234983 1.1769093 1.3013972 234 88 12
-1.2830434 1.2819024 1.8022113 234 88 12
-1.1448838 1.155213 1.3013972 234 88 12
-1.148448 1.151597 1.3013972 234 88 12
-1.1520122 1.1479809 1.3013972 234 88 12
-1.2414817 1.2655137 1.6894757 234 88 12
-1.2430023 1.263971 1.6894757 234 88 12
-1.1158987 1.1872418 1.299649 234 88 12
-1.2885123 1.2770398 1.8017541 234 88 12
-1.1622338 1.140233 1.299649 234 88 12
-1.2650514 1.2416013 1.6894757 234 88 12
-1.2418664 1.2800609 1.7151811 234 88 12
-1.2453221 1.2765548 1.7151811 234 88 12
-1.2072715 1.2546027 1.5992668 234 88 12
-1.2112483 1.2505679 1.5992668 234 88 12
-1.2902532 1.2759593 1.8012971 234 88 12
-1.2470399 1.214256 1.5992668 234 88 12
-1.123396 1.1875024 1.2944043 234 88 12
-1.1750776 1.1350695 1.2944043 234 88 12
-1.2788234 1.2446005 1.7138251 234 88 12
-1.2903496 1.2779186 1.7999256 234 88 12
-1.1763885 1.1363617 1.2926561 234 88 12
-1.2522167 1.2133927 1.5963408 234 88 12
-1.1184185 1.2004192 1.2891597 234 88 12
-1.1202005 1.1986111 1.2891597 234 88 12
-1.1237648 1.1949952 1.2891597 234 88 12
-1.1326754 1.1859549 1.2891597 234 88 12
-1.1362396 1.182339 1.2891597 234 88 12
-1.1861391 1.1317141 1.2891597 234 88 12
-1.1910143 1.1293902 1.2874113 234 88 12
-1.2573935 1.2125295 1.5934149 234 88 12
-1.1228225 1.2011956 1.2856631 234 88 12
-1.1352974 1.1885394 1.2856631 234 88 12
-1.2778894 1.2375268 1.6835088 234 88 12
-1.205169 1.2684392 1.5914643 234 88 12
-1.1116587 1.215144 1.2839149 234 88 12
-1.2799474 1.2919005 1.7976398 234 88 12
-1.1614383 1.2338816 1.4276397 234 88 12
-1.1497532 1.247817 1.4262526 234 88 12
-1.3312112 1.3167136 1.9568677 234 88 12
-1.1058413 1.2236685 1.2821667 234 88 12
-1.240232 1.277969 1.6820171 234 88 12
-1.1596506 1.2377757 1.4262526 234 88 12
-1.3031248 1.2690719 1.7971827 234 88 12
-1.203858 1.1242268 1.2821667 234 88 12
-1.148141 1.183376 1.2804184 234 88 12
-1.2426212 1.290482 1.7077229 234 88 12
-1.2437744 1.2831922 1.6946163 234 88 12
-1.1744561 1.226916 1.4234786 234 88 12
-1.0564355 1.1360551 0.97245288 234 88 12
-1.1382883 1.1986166 1.276922 234 88 12
-1.0583193 1.1379119 0.96994084 234 88 12
-1.148981 1.1877685 1.276922 234 88 12
-1.1507632 1.1859604 1.276922 234 88 12
-1.2118485 1.2251555 1.4958845 234 88 12
-1.1949893 1.21014 1.4263667 234 88 12
-1.2078316 1.2730525 1.5865878 234 88 12
-1.0576423 1.1423668 0.96742874 234 88 12
-1.0602031 1.1397687 0.96742874 234 88 12
-1.0902147 1.1553178 1.0680419 234 88 12
-1.170557 1.2030989 1.3508528 234 88 12
-1.213629 1.2308962 1.5072411 234 88 12
-1.1610602 1.1876626 1.2960124 234 88 12
-1.2115036 1.2206788 1.480175 234 88 12
-1.242919 1.2433779 1.5995435 234 88 12
-1.1998136 1.2065476 1.4233221 234 88 12
-1.2383877 1.2360551 1.5734698 234 88 12
-1.2313863 1.228177 1.5407 234 88 12
-1.1832322 1.2242538 1.4193175 234 88 12
-1.0872989 1.1616694 1.0657796 234 88 12
-1.0782056 1.1438484 1.0059848 234 88 12
-1.1420618 1.1772516 1.2230603 234 88 12
-1.19607 1.2139088 1.4252411 234 88 12
-1.1918344 1.2082179 1.4031594 234 88 12
-1.1940436 1.2073272 1.4061455 234 88 12
-1.2127755 1.2172567 1.4701123 234 88 12
-1.2496992 1.2455738 1.615535 234 88 12
-1.2559276 1.249157 1.637427 234 88 12
-1.2124485 1.2097033 1.4526801 234 88 12
-1.2137783 1.2083544 1.4526801 234 88 12
1.3136547 -1.3341339 1.9625918 234 88 12
0.994901 -1.0607409 1.0098832 234 88 12
1.0003085 -1.0554109 1.0098832 234 88 12
0.96979594 -1.0893514 1.0072689 234 88 12
0.98331469 -1.0760264 1.0072689 234 88 12
1.2523216 -1.2842921 1.7815672 234 88 12
0.96902466 -1.093977 1.0046545 234 88 12
1.2488613 -1.2884898 1.7810349 234 88 12
0.96554953 -1.1012675 1.0020403 234 88 12
0.96825331 -1.0986024 1.0020403 234 88 12
1.2342185 -1.263219 1.7130445 234 88 12
1.2613665 -1.2769508 1.7805027 234 88 12
1.2485472 -1.2903734 1.7799703 234 88 12
1.2490977 -1.2898308 1.7799703 234 88 12
1.2273741 -1.2710191 1.7123318 234 88 12
1.2518504 -1.2871176 1.7799703 234 88 12
1.238431 -1.2601207 1.7123318 234 88 12
1.2623105 -1.2768073 1.7799703 234 88 12
0.95859939 -1.1158484 0.99681157 234 88 12
0.95512432 -1.1231389 0.99419725 234 88 12
1.2647491 -1.2759778 1.7789056 234 88 12
0.95164925 -1.1304294 0.99158293 234 88 12
1.3190536 -1.3382603 1.9772928 234 88 12
0.94817418 -1.1377199 0.98896861 234 88 12
1.2255856 -1.2780509 1.7087681 234 88 12
1.2388537 -1.2649728 1.7087681 234 88 12
0.94392776 -1.1496359 0.98373997 234 88 12
1.223901 -1.2807651 1.7080554 234 88 12
0.94045269 -1.1569264 0.98112565 234 88 12
1.2537024 -1.2534983 1.7066299 234 88 12
1.2421789 -1.3037338 1.7751794 234 88 12
1.0200682 -1.0862662 0.97605067 234 88 12
1.0274069 -1.0828972 0.97343677 234 88 12
1.219164 -1.2907031 1.7044916 234 88 12
1.0320424 -1.0821928 0.97082281 234 88 12
1.3142277 -1.3325691 1.9576066 234 88 12
1.0339745 -1.0841529 0.96820891 234 88 12
1.0474912 -1.07083 0.96820891 234 88 12
1.3158739 -1.3332405 1.9617165 234 88 12
1.0332032 -1.0887778 0.96559501 234 88 12
1.03861 -1.0834485 0.96559501 234 88 12
1.0467199 -1.0754547 0.96559501 234 88 12
1.217796 -1.2952127 1.7023535 234 88 12
1.223693 -1.2894003 1.7023535 234 88 12
1.2259043 -1.2872206 1.7023535 234 88 12
1.2362241 -1.2770488 1.7023535 234 88 12
1.2384354 -1.2748692 1.7023535 234 88 12
1.2771782 -1.2731712 1.7725178 234 88 12
1.0451775 -1.0847044 0.96036714 234 88 12
1.2260106 -1.2902772 1.7002152 234 88 12
1.2385416 -1.2779257 1.7002152 234 88 12
1.0509739 -1.090585 0.95252538 234 88 12
1.0590838 -1.0825912 0.95252538 234 88 12
1.2152703 -1.3029711 1.6987897 234 88 12
1.0583127 -1.087216 0.94991142 234 88 12
1.2630231 -1.2918456 1.7693238 234 88 12
1.2391931 -1.3161211 1.7687914 234 88 12
1.2645177 -1.2911595 1.7687914 234 88 12
1.2592502 -1.2621197 1.6981699 234 88 12
1.2561003 -1.266275 1.6974592 234 88 12
1.0660411 -1.0950568 0.93945575 234 88 12
1.2647109 -1.2588387 1.6967485 234 88 12
1.238722 -1.3189467 1.7671945 234 88 12
1.1786259 -1.2346867 1.4618598 234 88 12
1.2640464 -1.293985 1.7671945 234 88 12
1.2645969 -1.2934424 1.7671945 234 88 12
1.0679731 -1.0970169 0.93684185 234 88 12
1.3158151 -1.3321809 1.9568108 234 88 12
1.2384079 -1.3208303 1.7661299 234 88 12
1.0080171 -1.1654772 0.93516421 234 88 12
1.0196506 -1.1638101 0.95645714 234 88 12
1.0164309 -1.1577083 0.93630356 234 88 12
1.019122 -1.1550556 0.93630356 234 88 12
1.2081851 -1.2587775 1.5665759 234 88 12
1.1825308 -1.2334508 1.4566038 234 88 12
1.1577187 -1.2086768 1.3496364 234 88 12
1.1626211 -1.2038956 1.3497472 234 88 12
1.1985114 -1.230016 1.4833654 234 88 12
1.2240976 -1.2491148 1.5796597 234 88 12
1.0215369 -1.1657239 0.95390517 234 88 12
1.0268154 -1.160521 0.95390517 234 88 12
1.1876177 -1.2420872 1.4810383 234 88 12
1.1556302 -1.2130585 1.3480653 234 88 12
1.0137739 -1.1662838 0.9272421 234 88 12
1.162935 -1.2319762 1.3992995 234 88 12
1.2081585 -1.2592157 1.5586705 234 88 12
1.2191137 -1.2583389 1.5806879 234 88 12
1.2005064 -1.2412485 1.5020595 234 88 12
1.2643974 -1.2644014 1.693195 234 88 12
1.2124304 -1.3163081 1.6916623 234 88 12
1.2256985 -1.3032302 1.6916623 234 88 12
1.0108954 -1.1779467 0.93576461 234 88 12
1.0334858 -1.1782242 0.98633051 234 88 12
1.025764 -1.1656623 0.94108319 234 88 12
1.0325259 -1.1570301 0.93667096 234 88 12
1.0698971 -1.1769007 1.0638609 234 88 12
1.1800359 -1.2439567 1.4577625 234 88 12
1.1634536 -1.2301719 1.390183 234 88 12
1.2598809 -1.2899731 1.7374986 234 88 12
1.2382042 -1.2675334 1.6392438 234 88 12
1.3563031 1.3607751 1.7213807 234 88 12
1.3544186 1.3637692 1.7205402 234 88 12
1.3153957 1.3234462 1.6036632 234 88 12
1.3173589 1.3224819 1.6029066 234 88 12
1.3107721 1.3290685 1.6029066 234 88 12
1.3533665 1.3675956 1.7184387 234 88 12
1.3227832 1.3220513 1.5991236 234 88 12
1.3154646 1.3293699 1.5991236 234 88 12
1.2344403 1.2444099 1.3481828 234 88 12
1.2273191 1.251531 1.3481828 234 88 12
1.3650653 1.3597803 1.7154967 234 88 12
1.2254425 1.2553513 1.3467103 234 88 12
1.3047537 1.3420784 1.5976104 234 88 12
1.2406566 1.2420808 1.345238 234 88 12
1.3513911 1.3745642 1.714656 234 88 12
1.2464205 1.2421479 1.3408208 234 88 12
1.2378752 1.2506932 1.3408208 234 88 12
1.2364509 1.2521175 1.3408208 234 88 12
1.2250571 1.2635113 1.3408208 234 88 12
1.2236329 1.2649355 1.3408208 234 88 12
1.3676721 1.3599477 1.7133951 234 88 12
1.3292063 1.3226196 1.5938272 234 88 12
1.238847 1.2516651 1.3393483 234 88 12
1.2260289 1.2644831 1.3393483 234 88 12
1.3028594 1.3489665 1.5938272 234 88 12
1.2536087 1.2407906 1.3364035 234 88 12
1.3386745 1.3578056 1.6607873 234 88 12
1.2151545 1.2792448 1.3364035 234 88 12
1.3011976 1.3546233 1.5908009 234 88 12
1.3419799 1.3567381 1.6590921 234 88 12
1.3029283 1.3548902 1.5892876 234 88 12
1.2527709 1.2513467 1.3290416 234 88 12
1.2385286 1.265589 1.3290416 234 88 12
1.3323404 1.3678695 1.6579618 234 88 12
1.2651366 1.2409247 1.3275691 234 88 12
1.2637123 1.2423489 1.3275691 234 88 12
1.2537427 1.2523185 1.3275691 234 88 12
1.2508943 1.255167 1.3275691 234 88 12
1.2409247 1.2651366 1.3275691 234 88 12
1.2380762 1.267985 1.3275691 234 88 12
1.3019984 1.3598151 1.5862612 234 88 12
1.2642988 1.2514807 1.3202071 234 88 12
1.2514807 1.2642988 1.3202071 234 88 12
1.3285656 1.37612 1.6545713 234 88 12
1.0395331 1.208653 0.83730644 234 88 12
1.0341643 1.2140218 0.83730644 234 88 12
1.0314798 1.2167063 0.83730644 234 88 12
1.2776363 1.2420305 1.3172623 234 88 12
1.0494182 1.2024313 0.83453119 234 88 12
1.0252582 1.2265913 0.83453119 234 88 12
1.0172049 1.2346447 0.83453119 234 88 12
1.2993723 1.3674351 1.582478 234 88 12
1.3437831 1.324023 1.5817214 234 88 12
1.2786081 1.2430024 1.3157899 234 88 12
1.2757596 1.2458508 1.3157899 234 88 12
1.3575612 1.3493621 1.652876 234 88 12
1.2672143 1.2543962 1.3157899 234 88 12
1.2629416 1.2586689 1.3157899 234 88 12
1.2572447 1.2643658 1.3157899 234 88 12
1.2501235 1.2714869 1.3157899 234 88 12
1.0566188 1.1988943 0.83175594 234 88 12
1.0163522 1.2391608 0.83175594 234 88 12
1.3659217 1.3579417 1.6820399 234 88 12
1.0611349 1.1980414 0.82898074 234 88 12
1.0584506 1.2007259 0.82898074 234 88 12
1.0450283 1.2141482 0.82898074 234 88 12
-2.3598242 -0.8881619 -0.99986905 234 88 12
-0.31509334 2.1044948 -1.2314957 234 88 12
1.5255555 -0.33363867 -0.77123004 234 88 12
1.5236847 -0.33339152 -0.77452362 234 88 12
