ply
format ascii 1.0
element vertex 231
property float x
property float y
property float z
property uchar red
property uchar green
property uchar blue
end_header
0.64980072 0.69875306 2.28178 234 88 12
0.6556741 0.6831885 2.2817774 234 88 12
0.64936382 0.71632171 2.2659867 234 88 12
0.65520883 0.70074409 2.2659543 234 88 12
0.66108817 0.68518478 2.2659588 234 88 12
0.66700006 0.66964215 2.2659986 234 88 12
0.64992058 0.73442268 2.2512677 234 88 12
0.6550796 0.71847492 2.2504959 234 88 12
0.66093707 0.70290411 2.2504771 234 88 12
0.66681206 0.68734258 2.2504771 234 88 12
0.67270941 0.67179257 2.2505009 234 88 12
0.65712434 0.73737746 2.2373655 234 88 12
0.66082972 0.7206465 2.2350421 234 88 12
0.6666829 0.70507336 2.2350187 234 88 12
0.67255986 0.68951291 2.2350209 234 88 12
0.67845953 0.67396408 2.2350471 234 88 12
0.66661507 0.72283679 2.2196257 234 88 12
0.67245263 0.70725518 2.2195859 234 88 12
0.6783303 0.69169497 2.2195888 234 88 12
0.68426746 0.67616522 2.2196543 234 88 12
0.64425296 0.69015592 2.2782326 234 88 12
0.65977877 0.68407387 2.2780337 234 88 12
0.67543048 0.6782406 2.2781019 234 88 12
0.63094831 0.70209807 2.2630115 234 88 12
0.64628315 0.69563043 2.2624042 234 88 12
0.66187996 0.68969125 2.2623587 234 88 12
0.67750847 0.68381476 2.2623799 234 88 12
0.69321322 0.67808431 2.2625577 234 88 12
0.63292539 0.70746201 2.2470672 234 88 12
0.64844406 0.70136476 2.246855 234 88 12
0.66405654 0.69545698 2.2468429 234 88 12
0.67967534 0.68956155 2.2468441 234 88 12
0.69534361 0.68376124 2.2469463 234 88 12
0.63530046 0.71362782 2.2319698 234 88 12
0.65064275 0.70717442 2.2313855 234 88 12
0.6662342 0.70122468 2.2313294 234 88 12
0.68186277 0.69534832 2.2313507 234 88 12
0.6975683 0.68961948 2.2315278 234 88 12
0.6529389 0.7131784 2.2161183 234 88 12
0.66849154 0.70714933 2.2159801 234 88 12
0.68414205 0.70131385 2.2160442 234 88 12
0.64255732 0.69498456 2.2797897 234 88 12
0.65666413 0.72681183 2.2644925 234 88 12
0.65365422 0.71001929 2.2641649 234 88 12
0.65088725 0.69325757 2.2641616 234 88 12
0.64817321 0.67650163 2.2642291 234 88 12
0.66621333 0.72522551 2.250505 234 88 12
0.66321182 0.70843446 2.2501907 234 88 12
0.66044241 0.69167262 2.2501843 234 88 12
0.6577099 0.67491484 2.2502267 234 88 12
0.65631419 0.65829378 2.2520483 234 88 12
0.67581809 0.72364622 2.2365916 234 88 12
0.67279911 0.70685327 2.2362564 234 88 12
0.6700297 0.69009137 2.2362499 234 88 12
0.66729724 0.67333359 2.2362921 234 88 12
0.66619259 0.65674084 2.2384856 234 88 12
0.68558389 0.72208679 2.2228882 234 88 12
0.68242413 0.70527643 2.2223713 234 88 12
0.67965871 0.68851483 2.2223701 234 88 12
0.67695254 0.67175955 2.2224467 234 88 12
0.63396055 0.70084381 2.2654803 234 88 12
0.64730537 0.68743473 2.2654166 234 88 12
0.66068679 0.67406327 2.2654264 234 88 12
0.63051653 0.72419006 2.2532742 234 88 12
0.64304471 0.70992661 2.2515643 234 88 12
0.65636712 0.69649518 2.251457 234 88 12
0.66974431 0.68312037 2.2514591 234 88 12
0.63931465 0.73297298 2.2387733 234 88 12
0.65213287 0.71901351 2.2376575 234 88 12
0.66549426 0.70562232 2.2376285 234 88 12
0.67887145 0.69224751 2.2376308 234 88 12
0.66133809 0.72822124 2.2239828 234 88 12
0.6746819 0.71481115 2.2239184 234 88 12
0.68806416 0.70144063 2.2239299 234 88 12
0.68511629 0.72527057 2.2126305 234 88 12
0.6600582 0.67351991 2.2749443 234 88 12
0.67692572 0.67627805 2.2749121 234 88 12
0.64158994 0.68031794 2.260828 234 88 12
0.65845019 0.68300688 2.2607048 234 88 12
0.67531794 0.68577617 2.2606876 234 88 12
0.69219315 0.68861198 2.2607584 234 88 12
0.63999289 0.68990874 2.2467268 234 88 12
0.6568538 0.69260687 2.2466164 234 88 12
0.67372268 0.69538903 2.2466164 234 88 12
0.69059861 0.69823337 2.2466977 234 88 12
0.70760101 0.70214522 2.2481756 234 88 12
0.63840574 0.69960362 2.2327621 234 88 12
0.65526605 0.70229191 2.2326396 234 88 12
0.67213368 0.70506054 2.2326219 234 88 12
0.68900967 0.70790476 2.2327025 234 88 12
0.63693607 0.71055782 2.2204278 234 88 12
0.65368831 0.71207935 2.2187948 234 88 12
0.67055535 0.71483403 2.2187591 234 88 12
0.68748623 0.71817023 2.2194743 234 88 12
0.66478544 0.72549653 2.261842 234 88 12
0.65299118 0.71391195 2.2617748 234 88 12
0.64130038 0.70229429 2.2619307 234 88 12
0.68496013 0.72856027 2.2504773 234 88 12
0.67314094 0.71698326 2.2503581 234 88 12
0.66136688 0.70539272 2.250334 234 88 12
0.64961982 0.69379348 2.2503674 234 88 12
0.63795465 0.68216658 2.2505782 234 88 12
0.69336736 0.72003078 2.2391033 234 88 12
0.68154794 0.70845401 2.2389846 234 88 12
0.66977388 0.69686353 2.2389603 234 88 12
0.65802687 0.68526423 2.2389939 234 88 12
0.64636075 0.67363733 2.2392011 234 88 12
0.70220327 0.71136826 2.2286215 234 88 12
0.68998903 0.69991398 2.2276821 234 88 12
0.6782105 0.68832469 2.2276492 234 88 12
0.66648108 0.67671925 2.22772 234 88 12
0.65534168 0.66491199 2.229049 234 88 12
0.68734598 0.67955607 2.2177987 234 88 12
0.63186514 0.70903069 2.2610364 234 88 12
0.6341908 0.6898728 2.2609911 234 88 12
0.63658059 0.67074323 2.2611048 234 88 12
0.64648956 0.73025584 2.2520916 234 88 12
0.6487661 0.71107554 2.2519262 234 88 12
0.65110058 0.69192237 2.2519033 234 88 12
0.65346992 0.67278445 2.2519658 234 88 12
0.65671074 0.65401423 2.254159 234 88 12
0.66344321 0.73232442 2.2431111 234 88 12
0.66572887 0.71314865 2.2429698 234 88 12
0.66806996 0.69399852 2.2429631 234 88 12
0.67042446 0.67485422 2.2429891 234 88 12
0.67285955 0.65574354 2.2432098 234 88 12
0.68045002 0.73441762 2.2342596 234 88 12
0.68271333 0.7152316 2.234066 234 88 12
0.68505275 0.69608063 2.2340555 234 88 12
0.68742442 0.67694348 2.234122 234 88 12
0.69078082 0.65821671 2.2365453 234 88 12
0.6997959 0.71735817 2.2253947 234 88 12
0.70210582 0.69819319 2.2253139 234 88 12
0.70521879 0.67937022 2.2271371 234 88 12
0.65567738 0.66064721 2.2637839 234 88 12
0.67491525 0.65839034 2.2640114 234 88 12
0.63853693 0.67995012 2.2546775 234 88 12
0.65769744 0.67751348 2.2544672 234 88 12
0.67689848 0.67517513 2.2544944 234 88 12
0.69614047 0.67292923 2.254746 234 88 12
0.62148976 0.69948411 2.2461264 234 88 12
0.6405884 0.69688833 2.2455387 234 88 12
0.65977752 0.69452155 2.2454975 234 88 12
0.67897362 0.69217193 2.2454975 234 88 12
0.6982097 0.68991369 2.2457166 234 88 12
0.64269757 0.71396822 2.2367387 234 88 12
0.66186154 0.71153909 2.2365508 234 88 12
0.68105859 0.70919174 2.2365561 234 88 12
0.70029742 0.70694017 2.2367887 234 88 12
0.64481717 0.73107493 2.2279985 234 88 12
0.66398525 0.72865307 2.2278295 234 88 12
0.6831851 0.72630984 2.227845 234 88 12
0.70262158 0.72451341 2.2291443 234 88 12
0.68051279 0.67240363 2.2696595 234 88 12
0.69219285 0.68424684 2.2696488 234 88 12
0.66025859 0.66897792 2.2581058 234 88 12
0.67195952 0.68075776 2.2579615 234 88 12
0.68363732 0.69260532 2.2579615 234 88 12
0.69530296 0.70449138 2.2580419 234 88 12
0.65168512 0.67739481 2.2465417 234 88 12
0.6633715 0.68921727 2.2464886 234 88 12
0.67504925 0.70106483 2.2464886 234 88 12
0.68672413 0.71292144 2.2465076 234 88 12
0.69826549 0.72520459 2.2474079 234 88 12
0.64308757 0.68588179 2.2351263 234 88 12
0.65478021 0.69768667 2.2350366 234 88 12
0.66645795 0.70953423 2.2350366 234 88 12
0.67812735 0.72140759 2.23509 234 88 12
0.6343503 0.69476813 2.2245438 234 88 12
0.64616787 0.70621735 2.2237117 234 88 12
0.65784812 0.718059 2.2236989 234 88 12
0.66947913 0.73005104 2.2239945 234 88 12
0.68988287 0.72328442 2.2570355 234 88 12
0.67367971 0.72260565 2.256887 234 88 12
0.65750241 0.72190088 2.2568951 234 88 12
0.64136207 0.72115642 2.2571418 234 88 12
0.69044811 0.70971578 2.2481003 234 88 12
0.6742602 0.7090221 2.2480426 234 88 12
0.65808547 0.7083149 2.248065 234 88 12
0.64191782 0.70759976 2.2481344 234 88 12
0.6910392 0.69612134 2.2393208 234 88 12
0.6748513 0.69542783 2.2392633 234 88 12
0.65867651 0.69472057 2.2392857 234 88 12
0.64250892 0.69400519 2.2393548 234 88 12
0.69165611 0.68249965 2.230696 234 88 12
0.67545289 0.68182218 2.2305481 234 88 12
0.65927565 0.68111736 2.2305562 234 88 12
0.64313674 0.6803692 2.2308102 234 88 12
0.67655915 0.66766369 2.2249112 234 88 12
0.66032714 0.66700715 2.2246478 234 88 12
0.69157612 0.72947067 2.2436638 234 88 12
0.67261982 0.7294609 2.243597 234 88 12
0.65367723 0.72946584 2.2436309 234 88 12
0.63478452 0.72952849 2.2440577 234 88 12
0.71053946 0.71053946 2.2437763 234 88 12
0.69156247 0.71050936 2.2435656 234 88 12
0.67260981 0.71050328 2.2435231 234 88 12
0.65366542 0.7105059 2.2435412 234 88 12
0.6347332 0.71052223 2.2436557 234 88 12
0.71053916 0.69159144 2.2437739 234 88 12
0.69156247 0.69156247 2.2435656 234 88 12
0.67260981 0.69155657 2.2435231 234 88 12
0.65366542 0.69155908 2.2435412 234 88 12
0.63473314 0.69157493 2.2436552 234 88 12
0.69157553 0.67262822 2.2436595 234 88 12
0.6726197 0.6726197 2.2435966 234 88 12
0.6536755 0.67262262 2.243618 234 88 12
0.63478148 0.67267889 2.2440338 234 88 12
0.67275709 0.65380615 2.2446122 234 88 12
0.65400416 0.65400416 2.2461185 234 88 12
0.69198418 0.678101 2.2591939 234 88 12
0.69272697 0.69431537 2.2589834 234 88 12
0.69342971 0.71056777 2.2590053 234 88 12
0.67739117 0.66265607 2.2516944 234 88 12
0.67838198 0.6786465 2.2500815 234 88 12
0.67910677 0.69487745 2.2499771 234 88 12
0.67981321 0.71112549 2.2499771 234 88 12
0.68048275 0.72741008 2.2501872 234 88 12
0.66390634 0.6630953 2.24191 234 88 12
0.66473621 0.67923331 2.2412226 234 88 12
0.66545779 0.69546747 2.2411385 234 88 12
0.66616422 0.71171546 2.2411385 234 88 12
0.66683698 0.72799623 2.2413263 234 88 12
0.64977843 0.66410446 2.2356746 234 88 12
0.65105844 0.67984921 2.2325406 234 88 12
0.65178967 0.6960752 2.2324052 234 88 12
0.6524924 0.71232688 2.2324255 234 88 12
0.65315199 0.72862023 2.2326822 234 88 12
0.63652229 0.68122423 2.2284629 234 88 12
0.63805532 0.69674242 2.2240248 234 88 12
0.63866848 0.71307862 2.2245266 234 88 12
