ply
format ascii 1.0
element vertex 145
property float x
property float y
property float z
property uchar red
property uchar green
property uchar blue
end_header
1.1677573 0.1611629 1.9001956 234 88 12
1.1744601 0.16198333 1.8966675 234 88 12
1.1766545 0.17184681 1.8949034 234 88 12
1.1878659 0.16362418 1.8896111 234 88 12
1.1867088 0.17307745 1.8896111 234 88 12
1.1893102 0.16571994 1.8887291 234 88 12
1.1883845 0.17328255 1.8887291 234 88 12
1.1934675 0.18733755 1.8852009 234 88 12
-1.7907206 0.29709908 1.3192921 234 88 12
-1.7922175 0.28576896 1.3192921 234 88 12
-1.792598 0.29734713 1.3159866 234 88 12
-1.7940949 0.286017 1.3159866 234 88 12
-1.7939765 0.30137187 1.3126811 234 88 12
-1.7822046 -0.97097433 0.94910383 234 88 12
-1.7804531 -0.97435731 0.94910383 234 88 12
-1.7839091 -0.97185683 0.94372159 234 88 12
-1.7821577 -0.97523981 0.94372159 234 88 12
-0.80601627 -1.8654481 0.95448613 234 88 12
-0.80153006 -1.8692117 0.95089793 234 88 12
-0.80947274 -1.8679814 0.94372159 234 88 12
0.47937319 -1.7742807 1.3060702 234 88 12
0.47383213 -1.7759678 1.3044175 234 88 12
0.4720678 -1.7771561 1.3027648 234 88 12
0.47395617 -1.7769066 1.3027648 234 88 12
1.749789 -0.152494 1.3872508 234 88 12
1.7531986 -0.1318209 1.3872508 234 88 12
1.7548935 -0.12823945 1.3856883 234 88 12
1.7613434 -0.12930325 1.3763139 234 88 12
1.7610136 -0.14469282 1.3731891 234 88 12
1.7613236 -0.14281344 1.3731891 234 88 12
1.7638034 -0.12777847 1.3731891 234 88 12
1.2718487 0.9499467 1.5849997 234 88 12
1.2763804 0.94909102 1.5822148 234 88 12
1.2881378 0.944686 1.576645 234 88 12
1.2890569 0.94560504 1.5752527 234 88 12
1.2899759 0.94652402 1.5738602 234 88 12
1.2872822 0.9492178 1.5738602 234 88 12
1.2874089 0.96011949 1.5655056 234 88 12
1.2896749 0.9596917 1.5641133 234 88 12
1.2978194 0.95706129 1.5599359 234 88 12
1.2951257 0.95975506 1.5599359 234 88 12
-1.5641392 1.3448924 0.88361257 234 88 12
-1.5634592 1.3467644 0.88179892 234 88 12
-1.5634941 1.3515581 0.87273055 234 88 12
-1.5680748 1.3454698 0.87273055 234 88 12
-2.219991 -0.10025165 0.24426122 234 88 12
-2.22017 -0.098353863 0.24235791 234 88 12
-2.2200654 -0.10025574 0.24235791 234 88 12
-1.5229399 -1.6374239 -0.013522387 234 88 12
-1.5241909 -1.6359811 -0.01542231 234 88 12
-1.5173606 -1.6426195 -0.017322231 234 88 12
-1.5221723 -1.6366563 -0.028721765 234 88 12
0.051980913 -2.2268775 0.28232729 234 88 12
0.057682466 -2.2272658 0.280424 234 88 12
0.055760108 -2.2275331 0.27090746 234 88 12
0.057661992 -2.2276378 0.27090746 234 88 12
1.4252291 -1.4934978 0.90900385 234 88 12
1.4281508 -1.494213 0.90174919 234 88 12
1.8815333 0.62992209 1.0490812 234 88 12
1.8808604 0.63170409 1.0490812 234 88 12
1.8855255 0.62532133 1.0437707 234 88 12
1.8835071 0.63066733 1.0437707 234 88 12
-0.7143777 2.0604148 0.5452925 234 88 12
-0.71611494 2.0596337 0.5452925 234 88 12
-0.71275985 2.0614617 0.54341012 234 88 12
-0.71623439 2.0598996 0.54341012 234 88 12
-0.71126151 2.0627742 0.53964543 234 88 12
-1.9960171 0.98406851 -0.21023363 234 88 12
-1.9926271 0.99089807 -0.21211599 234 88 12
-1.9913146 0.99239641 -0.21588069 234 88 12
-1.9936578 0.98718464 -0.21588069 234 88 12
-1.9900023 0.99389482 -0.2196454 234 88 12
-1.9597347 -0.76328117 -0.74638259 234 88 12
-1.9584483 -0.75872356 -0.75346327 234 88 12
-1.9551437 -0.75951189 -0.76054394 234 88 12
-0.63232082 -2.0227082 -0.71451962 234 88 12
-0.62875682 -2.0240538 -0.71451962 234 88 12
-0.63207245 -2.0220501 -0.71628976 234 88 12
-0.62850845 -2.0233958 -0.71628976 234 88 12
1.0919422 -1.9618908 -0.12552774 234 88 12
1.0936794 -1.9611098 -0.12552774 234 88 12
1.104103 -1.9564234 -0.12552774 234 88 12
1.0917033 -1.9613594 -0.12929244 234 88 12
1.1038641 -1.955892 -0.12929244 234 88 12
0.33691648 2.2221143 0.14210945 234 88 12
0.32929668 2.2223098 0.13639955 234 88 12
0.34450763 2.2213979 0.13449624 234 88 12
0.34449536 2.2211747 0.12878633 234 88 12
0.34259346 2.2212794 0.12878633 234 88 12
0.32928029 2.222012 0.12878633 234 88 12
-1.1878784 1.8148345 -0.55352551 234 88 12
-1.1894004 1.8136892 -0.55352551 234 88 12
-1.1822624 1.8168747 -0.55896646 234 88 12
-1.1898727 1.8111489 -0.55896646 234 88 12
-1.8230855 0.34411886 -1.2388227 234 88 12
-1.8233955 0.3422395 -1.2388227 234 88 12
-1.8175458 0.35092717 -1.2450724 234 88 12
-1.8164707 0.35074988 -1.2466347 234 88 12
-1.8177106 0.34323239 -1.2466347 234 88 12
-1.1164514 -1.2174667 -1.5000616 234 88 12
-1.1168792 -1.2152008 -1.501454 234 88 12
-1.1155324 -1.2165476 -1.501454 234 88 12
-1.1150411 -1.2133627 -1.5042388 234 88 12
-1.1110005 -1.2174033 -1.5042388 234 88 12
0.46368942 -1.8574717 -1.1622651 234 88 12
0.47290897 -1.8548468 -1.1638275 234 88 12
0.47354725 -1.847012 -1.1747643 234 88 12
0.47542661 -1.8467021 -1.1747643 234 88 12
-0.092887886 2.0192289 -0.97056568 234 88 12
-0.096664593 2.0187299 -0.97056568 234 88 12
-0.086974785 2.0180998 -0.97387117 234 88 12
-0.10208162 2.016104 -0.97387117 234 88 12
-0.084962413 2.0174105 -0.97552389 234 88 12
-1.0160117 1.2003691 -1.5861621 234 88 12
-1.0173683 1.1990319 -1.5861621 234 88 12
-1.01039 1.2000923 -1.5900972 234 88 12
-1.0171728 1.1934068 -1.5900972 234 88 12
-0.98499191 -0.11192688 -1.9981028 234 88 12
-0.98452908 -0.11570819 -1.9981028 234 88 12
-0.97349328 -0.10860047 -2.004277 234 88 12
-0.97228038 -0.10461406 -2.0051591 234 88 12
0.00025524714 -1.0718584 -1.9601748 234 88 12
-0.0014302979 -1.0699513 -1.9610568 234 88 12
-0.0012251907 -1.0682756 -1.9619389 234 88 12
0.00066546135 -1.068507 -1.9619389 234 88 12
0.0075680604 -1.0591469 -1.9672312 234 88 12
1.2970734 -1.0792363 -1.4786035 234 88 12
1.3014382 -1.0728406 -1.4799153 234 88 12
1.3031288 -1.0691578 -1.4812269 234 88 12
1.2877904 -1.0807843 -1.4838502 234 88 12
1.3496652 1.1947751 -1.3396983 234 88 12
1.3456246 1.1988157 -1.3396983 234 88 12
0.10245352 1.3051201 -1.8154731 234 88 12
0.098647594 1.3049546 -1.8154731 234 88 12
0.10449553 1.3020048 -1.8175385 234 88 12
0.098786637 1.3017566 -1.8175385 234 88 12
0.10456505 1.3004059 -1.8185712 234 88 12
0.098856159 1.3001577 -1.8185712 234 88 12
0.085604936 1.2979795 -1.8196038 234 88 12
0.14761905 0.033333335 -2.23 234 88 12
0.14190476 0.031428572 -2.23 234 88 12
0.14761905 0.027619047 -2.23 234 88 12
0.14190476 0.027619047 -2.23 234 88 12
1.4132725 -0.026175246 -1.7421529 234 88 12
1.4052775 -0.025827633 -1.7473164 234 88 12
