ply
format ascii 1.0
element vertex 108
property float x
property float y
property float z
property uchar red
property uchar green
property uchar blue
end_header
-1.1349028 -1.6886868 0.97063291 234 88 12
-1.135197 -1.689255 0.96883881 234 88 12
-1.1422572 -1.6863202 0.96704477 234 88 12
-1.1253422 -1.6950778 0.96704477 234 88 12
-1.1273279 -1.6947702 0.96525067 234 88 12
-1.1403451 -1.6909126 0.95807427 234 88 12
-1.1352706 -1.6935399 0.95807427 234 88 12
-1.133579 -1.6944157 0.95807427 234 88 12
-1.1251216 -1.6987944 0.95807427 234 88 12
-1.1378446 -1.6943687 0.95269203 234 88 12
-1.135344 -1.6978247 0.94730979 234 88 12
-1.7536349 -1.4101831 0.020676212 234 88 12
-0.23908094 -2.2122004 0.24806783 234 88 12
-0.24669257 -2.2118561 0.24616452 234 88 12
-0.23337938 -2.2125888 0.24616452 234 88 12
-0.24669667 -2.2119305 0.24426122 234 88 12
-0.24479477 -2.2120352 0.24426122 234 88 12
-0.23338348 -2.2126632 0.24426122 234 88 12
-0.24291746 -2.2125864 0.23284139 234 88 12
-0.23340805 -2.2131097 0.23284139 234 88 12
1.254391 -1.630775 0.88723987 234 88 12
1.2608291 -1.6266593 0.88542622 234 88 12
1.2596569 -1.6282696 0.88361257 234 88 12
1.2478304 -1.6378961 0.88179892 234 88 12
1.2481803 -1.6383611 0.87998521 234 88 12
1.2497023 -1.637216 0.87998521 234 88 12
1.2603568 -1.6291997 0.87998521 234 88 12
1.2634009 -1.6269094 0.87998521 234 88 12
1.2578901 -1.6354257 0.86910325 234 88 12
1.2609342 -1.6331353 0.86910325 234 88 12
-0.90020323 -1.9125524 -0.73576158 234 88 12
-0.8910448 -1.9152583 -0.73753178 234 88 12
-0.89846438 -1.9079466 -0.74815279 234 88 12
-0.89133638 -1.9106376 -0.74815279 234 88 12
0.890441 -2.0339594 -0.23470423 234 88 12
0.89217824 -2.0331783 -0.23470423 234 88 12
0.88624978 -2.0339272 -0.24599834 234 88 12
0.89319879 -2.030803 -0.24599834 234 88 12
2.0352194 -0.77823293 0.52458662 234 88 12
2.034704 -0.78008962 0.52270424 234 88 12
2.0326264 -0.78542089 0.52082193 234 88 12
2.0399377 -0.77200067 0.51329249 234 88 12
2.035517 -0.78254366 0.51141012 234 88 12
2.0370791 -0.77906913 0.51141012 234 88 12
2.0399537 -0.77409625 0.50764543 234 88 12
2.2199869 0.33489174 0.085010342 234 88 12
2.2200172 0.33298576 0.083107039 234 88 12
2.2202127 0.32536596 0.07739713 234 88 12
2.2196891 0.33487538 0.07739713 234 88 12
2.2193475 0.33294892 0.065977305 234 88 12
2.2192428 0.33485079 0.065977305 234 88 12
-1.3487469 -1.0403136 -1.4582888 234 88 12
-1.3478278 -1.0393946 -1.4596813 234 88 12
-1.3496025 -1.0357817 -1.4610736 234 88 12
-1.3482556 -1.0371287 -1.4610736 234 88 12
-1.3473366 -1.0362096 -1.4624661 234 88 12
-1.3369895 -1.0447186 -1.4638585 234 88 12
-1.3364348 -1.0360829 -1.4708207 234 88 12
-1.3409033 -1.0297763 -1.472213 234 88 12
-1.3368627 -1.0338169 -1.472213 234 88 12
0.23603728 -1.8232439 -1.2638211 234 88 12
0.22646312 -1.8237188 -1.2653835 234 88 12
0.2276333 -1.8191088 -1.2716331 234 88 12
0.23515078 -1.8178689 -1.2716331 234 88 12
0.23497349 -1.816794 -1.2731955 234 88 12
0.22915807 -1.816649 -1.274758 234 88 12
1.7589755 -1.2340471 -0.60612178 234 88 12
1.7612659 -1.2310029 -0.60612178 234 88 12
1.7534646 -1.2394356 -0.60974914 234 88 12
1.7513893 -1.2402577 -0.61337644 234 88 12
1.7536796 -1.2372136 -0.61337644 234 88 12
-1.2091084 0.079404816 -1.8940213 234 88 12
-1.208877 0.077514164 -1.8940213 234 88 12
-1.2074326 0.079609923 -1.8949034 234 88 12
-1.2072012 0.077719271 -1.8949034 234 88 12
-1.2036183 0.076238833 -1.8966675 234 88 12
-1.2033311 0.087787852 -1.8975495 234 88 12
-1.1925825 0.083346538 -1.9028418 234 88 12
-1.1918883 0.077674583 -1.9028418 234 88 12
-0.24222146 -0.95203567 -2.0069232 234 88 12
-0.23256309 -0.95151699 -2.0078053 234 88 12
-0.24160613 -0.94700849 -2.0095694 234 88 12
-0.23383842 -0.94625843 -2.0104513 234 88 12
1.11155 -1.0274222 -1.6386297 234 88 12
1.1142242 -1.0247091 -1.6386297 234 88 12
1.102897 -1.0322659 -1.641253 234 88 12
1.1029738 -1.024318 -1.6464998 234 88 12
1.10136 -1.0200528 -1.6504349 234 88 12
1.9733622 -0.10027748 -1.0482441 234 88 12
1.9719245 -0.10393018 -1.0498968 234 88 12
1.9724236 -0.10015346 -1.0498968 234 88 12
1.9655437 -0.10885112 -1.0598131 234 88 12
1.9667912 -0.099409349 -1.0598131 234 88 12
-0.10952381 0.1952381 -2.23 234 88 12
-0.11333334 0.1952381 -2.23 234 88 12
-0.1 0.18952382 -2.23 234 88 12
-0.1 0.18761905 -2.23 234 88 12
-0.10190476 0.18761905 -2.23 234 88 12
-0.11333334 0.18761905 -2.23 234 88 12
-0.11333334 0.17809524 -2.23 234 88 12
1.2112745 0.11797313 -1.8764012 234 88 12
1.2045475 0.11063937 -1.8805319 234 88 12
1.2028657 0.10880593 -1.8815645 234 88 12
1.2030312 0.11261186 -1.8815645 234 88 12
1.2019286 0.12409917 -1.8825972 234 88 12
1.1979859 0.10711153 -1.8846625 234 88 12
1.1982341 0.11282042 -1.8846625 234 88 12
1.1987306 0.12423821 -1.8846625 234 88 12
