ply
format ascii 1.0
element vertex 1407
property float x
property float y
property float z
property uchar red
property uchar green
property uchar blue
end_header
0.0021335906 0.51015729 1.9673475 234 88 12
0.0048674783 0.49598002 1.9646671 234 88 12
0.010558842 0.48354259 1.9656864 234 88 12
0.020113334 0.47330445 1.9715102 234 88 12
0.030858282 0.46367815 1.9787891 234 88 12
0.049584303 0.4584367 1.9959322 234 88 12
0.064749755 0.45104811 2.008601 234 88 12
0.075365663 0.44104269 2.0156012 234 88 12
0.081044972 0.4283005 2.0164905 234 88 12
0.10110673 0.42321673 2.0350618 234 88 12
0.01708157 0.51797819 1.9671763 234 88 12
0.016707303 0.50191653 1.9606267 234 88 12
0.021485697 0.48890409 1.9604901 234 88 12
0.028313151 0.47706461 1.9628886 234 88 12
0.040929992 0.46847165 1.9724237 234 88 12
0.05917586 0.46292254 1.9888543 234 88 12
0.075256623 0.45600477 2.0025568 234 88 12
0.081178993 0.44339964 2.0037403 234 88 12
0.087353937 0.43091828 2.0052285 234 88 12
0.026614066 0.52258945 1.960148 234 88 12
0.031300101 0.50945616 1.9598727 234 88 12
0.033225849 0.49473065 1.956199 234 88 12
0.041286167 0.48354912 1.9600803 234 88 12
0.051337861 0.47345105 1.9663883 234 88 12
0.067406245 0.46664503 1.980036 234 88 12
0.080942422 0.45829725 1.9905351 234 88 12
0.099623412 0.45264426 2.0072644 234 88 12
0.028648231 0.53868437 1.9498689 234 88 12
0.03125092 0.52430499 1.9470295 234 88 12
0.036100745 0.51126856 1.9469572 234 88 12
0.041118391 0.49832976 1.9470907 234 88 12
0.048325866 0.48663983 1.9498981 234 88 12
0.062739879 0.4789874 1.9614778 234 88 12
0.074881367 0.4699437 1.9702463 234 88 12
0.090229109 0.4625749 1.9828718 234 88 12
0.10736319 0.45604572 1.9976104 234 88 12
0.12152898 0.44776171 2.0087011 234 88 12
0.036280505 0.54218578 1.9403994 234 88 12
0.03621624 0.5262146 1.9343147 234 88 12
0.040960401 0.51311541 1.9341137 234 88 12
0.046273272 0.50034654 1.9346052 234 88 12
0.059934299 0.4923355 1.9452257 234 88 12
0.071056329 0.48277849 1.9527284 234 88 12
0.085691065 0.47509974 1.9644464 234 88 12
0.10091801 0.46762228 1.9768317 234 88 12
0.11654103 0.46022856 1.9896439 234 88 12
0.12740155 0.45013502 1.9966831 234 88 12
0.045061156 0.5304122 1.9263041 234 88 12
0.048627228 0.51659942 1.9246681 234 88 12
0.054978576 0.50441056 1.9264041 234 88 12
0.068679281 0.49639335 1.9369955 234 88 12
0.08777941 0.49130565 1.954042 234 88 12
0.098019093 0.48109761 1.9603783 234 88 12
0.11308742 0.47348112 1.9724767 234 88 12
0.12561491 0.46435204 1.9814874 234 88 12
0.14312215 0.45780566 1.9964068 234 88 12
0.059369341 0.52187347 1.9188777 234 88 12
0.066328466 0.50999552 1.9213181 234 88 12
0.11287367 0.50453967 1.965183 234 88 12
0.11724015 0.49092862 1.9644216 234 88 12
0.1265806 0.48006365 1.9695872 234 88 12
0.13932164 0.47099316 1.9787738 234 88 12
0.15483254 0.4633134 1.9912095 234 88 12
0.13987283 0.51883125 1.9782784 234 88 12
0.13589287 0.50043327 1.9675726 234 88 12
0.14225291 0.48783907 1.9691455 234 88 12
0.15299502 0.47761047 1.9758875 234 88 12
0.047711439 0.44167513 2.0801802 234 88 12
0.061652377 0.43657568 2.0803397 234 88 12
0.076189123 0.43319148 2.0823884 234 88 12
0.035631549 0.45167029 2.0659692 234 88 12
0.049501054 0.44636643 2.0659037 234 88 12
0.063392274 0.44112825 2.0659096 234 88 12
0.077361912 0.43611622 2.0661633 234 88 12
0.091887943 0.43267718 2.0681419 234 88 12
0.037544765 0.45672917 2.0520964 234 88 12
0.051414639 0.45142758 2.0520337 234 88 12
0.062628061 0.43833664 2.0435176 234 88 12
0.076432891 0.43297628 2.0433748 234 88 12
0.093422323 0.43666428 2.0530875 234 88 12
0.1084065 0.43446699 2.0564139 234 88 12
-0.0624157 0.48255914 2.0213246 234 88 12
-0.048568398 0.47746378 2.0214512 234 88 12
-0.034253638 0.47390857 2.0232177 234 88 12
-0.019938815 0.47029522 2.0249288 234 88 12
-0.0057619549 0.4661862 2.0261166 234 88 12
0.020573437 0.50015533 2.0680678 234 88 12
0.034598459 0.49486038 2.0680678 234 88 12
0.039478034 0.46184886 2.03829 234 88 12
0.050776079 0.44888133 2.0299764 234 88 12
0.064297676 0.44268501 2.0289335 234 88 12
0.078068934 0.43724009 2.0286989 234 88 12
0.092138633 0.43264949 2.0293877 234 88 12
0.11025694 0.43935543 2.0423293 234 88 12
-0.074342906 0.4927316 2.0074553 234 88 12
-0.060575694 0.48736674 2.0072963 234 88 12
-0.046741791 0.4822315 2.0073795 234 88 12
-0.032792099 0.47747588 2.0078645 234 88 12
-0.018339835 0.47433475 2.0100622 234 88 12
-0.0041079288 0.47041926 2.0114458 234 88 12
0.010244401 0.46683666 2.0131886 234 88 12
0.025578724 0.46622449 2.0181031 234 88 12
0.040258728 0.46347639 2.0207555 234 88 12
0.052673686 0.45389664 2.0161109 234 88 12
0.066227853 0.4477976 2.0151789 234 88 12
0.079998963 0.44235229 2.0149453 234 88 12
0.094034769 0.4376654 2.0155263 234 88 12
0.11241624 0.44510713 2.0291784 234 88 12
-0.072395161 0.49790958 1.9938177 234 88 12
-0.058650546 0.49246597 1.9935776 234 88 12
-0.044816595 0.48733091 1.9936603 234 88 12
-0.030872446 0.48255676 1.9941227 234 88 12
-0.016509177 0.47912651 1.9960021 234 88 12
-0.0021987534 0.47546619 1.9976455 234 88 12
0.012130028 0.47181031 1.9992998 234 88 12
0.02704894 0.4699195 2.0028288 234 88 12
0.041971248 0.46792832 2.0062647 234 88 12
0.057300895 0.46704465 2.0108902 234 88 12
0.068382658 0.45356861 2.0021253 234 88 12
0.082156546 0.44812083 2.0018916 234 88 12
0.096473828 0.44422257 2.0033131 234 88 12
0.11823655 0.46108973 2.0269728 234 88 12
-0.070386246 0.50330055 1.9804003 234 88 12
-0.056636781 0.49786839 1.9801743 234 88 12
-0.042792127 0.49276376 1.9802887 234 88 12
-0.028800467 0.48814029 1.9809062 234 88 12
-0.014388571 0.48485851 1.9829299 234 88 12
-6.8383182e-05 0.48121792 1.9845848 234 88 12
0.014281355 0.47761616 1.9862865 234 88 12
0.029137481 0.47551933 1.989578 234 88 12
0.043933328 0.47313634 1.9925798 234 88 12
0.059416328 0.47270709 1.9976559 234 88 12
0.07474561 0.47167209 2.0021098 234 88 12
0.089757919 0.4695887 2.0054691 234 88 12
0.10532069 0.46896788 2.0103939 234 88 12
0.11968975 0.46486709 2.0116346 234 88 12
0.13410626 0.46086097 2.0129809 234 88 12
0.15239519 0.46730864 2.0254951 234 88 12
-0.054433722 0.50391757 1.9674357 234 88 12
-0.040552974 0.49891707 1.9676591 234 88 12
-0.02627223 0.49522817 1.9692446 234 88 12
-0.012041395 0.49132425 1.9706123 234 88 12
0.0024396707 0.48817202 1.9727679 234 88 12
0.016909165 0.48491332 1.9748204 234 88 12
0.031514969 0.4820084 1.9772501 234 88 12
0.046353288 0.47973055 1.9803455 234 88 12
0.061822601 0.47923541 1.9853228 234 88 12
0.076997414 0.47772446 1.9892508 234 88 12
0.091765314 0.47492123 1.9918323 234 88 12
0.10709 0.47362116 1.9960092 234 88 12
0.12163537 0.47002059 1.99777 234 88 12
0.13594246 0.46571332 1.9987888 234 88 12
0.15331121 0.46967202 2.0085814 234 88 12
-0.0087289624 0.50091565 1.9615055 234 88 12
0.0052930093 0.49622408 1.9620627 234 88 12
0.019710844 0.49275327 1.9638877 234 88 12
0.034256991 0.48961851 1.9660683 234 88 12
0.049067404 0.48721436 1.9690173 234 88 12
0.064450234 0.48642221 1.9736576 234 88 12
0.079606861 0.48482424 1.9774734 234 88 12
0.09424416 0.48161292 1.9796151 234 88 12
0.10955964 0.48026189 1.9837148 234 88 12
0.12378423 0.47574189 1.9845015 234 88 12
0.13835327 0.47214645 1.986264 234 88 12
0.15564802 0.47588491 1.995764 234 88 12
0.17274176 0.47881693 2.0044477 234 88 12
0.0090721995 0.50722063 1.9543464 234 88 12
0.022662111 0.50105947 1.9533991 234 88 12
0.037206277 0.49786484 1.95551 234 88 12
0.052097868 0.49565417 1.9586459 234 88 12
0.067120746 0.49373573 1.9620961 234 88 12
0.082100816 0.49158496 1.9653178 234 88 12
0.096878655 0.48875278 1.9678431 234 88 12
0.11221001 0.48741508 1.9719342 234 88 12
0.1275245 0.4859086 1.9758643 234 88 12
0.14306374 0.48490518 1.9803348 234 88 12
0.15854299 0.48360986 1.9845161 234 88 12
0.013268788 0.51954091 1.9479048 234 88 12
0.026761578 0.51295495 1.9465421 234 88 12
0.040593248 0.50745559 1.9462888 234 88 12
0.054731332 0.5028913 1.9469951 234 88 12
0.069751561 0.50093013 1.9503831 234 88 12
0.084579214 0.49829951 1.9530932 234 88 12
0.099926285 0.49708271 1.9572736 234 88 12
0.11584029 0.49734771 1.963003 234 88 12
0.13111143 0.49564606 1.9667145 234 88 12
0.14653924 0.494266 1.9707737 234 88 12
0.16221794 0.4934476 1.9754325 234 88 12
0.015687391 0.52620149 1.9356233 234 88 12
0.029177161 0.5195809 1.934237 234 88 12
0.043045815 0.51417065 1.9340788 234 88 12
0.057221353 0.50969356 1.9348725 234 88 12
0.072343878 0.50800908 1.9385246 234 88 12
0.087280765 0.50566685 1.9415163 234 88 12
0.03212297 0.52786332 1.9235859 234 88 12
0.045693319 0.52148402 1.9224535 234 88 12
0.060127225 0.51775241 1.9240021 234 88 12
0.074970402 0.51518893 1.926743 234 88 12
-0.06897977 0.49805233 2.0192239 234 88 12
-0.070764475 0.48394004 2.0201414 234 88 12
-0.060155969 0.51075214 2.0048139 234 88 12
-0.063284904 0.49657062 2.0034883 234 88 12
-0.065358691 0.48245758 2.0039144 234 88 12
-0.063163638 0.46854833 2.0114479 234 88 12
-0.052667465 0.50937891 1.9920846 234 88 12
-0.055446189 0.49522319 1.9913449 234 88 12
-0.057534307 0.48111075 1.9917438 234 88 12
-0.055722799 0.46718121 1.9985898 234 88 12
-0.033840641 0.52278715 1.9940921 234 88 12
-0.043988772 0.50808567 1.9813163 234 88 12
-0.047123715 0.49390516 1.9799993 234 88 12
-0.04900251 0.4798021 1.9807391 234 88 12
-0.044565625 0.46598953 1.9918469 234 88 12
-0.023029912 0.52164316 1.9866792 234 88 12
-0.031624231 0.50703281 1.9765222 234 88 12
-0.036492456 0.49272302 1.972403 234 88 12
-0.037924629 0.47862664 1.9738692 234 88 12
-0.031970743 0.46485937 1.9873765 234 88 12
-0.023704404 0.45107633 2.0046859 234 88 12
0.037951868 0.53841567 2.0561919 234 88 12
-0.0083761616 0.52076739 1.9853978 234 88 12
-0.020223765 0.50591034 1.9700751 234 88 12
-0.024131928 0.49163735 1.9675411 234 88 12
-0.025488837 0.47751668 1.969126 234 88 12
-0.018839875 0.46374643 1.9836707 234 88 12
-0.011779023 0.44987613 1.9989139 234 88 12
0.047411487 0.53713316 2.045953 234 88 12
0.002710101 0.51962996 1.9782602 234 88 12
-0.0044010743 0.50506431 1.9706371 234 88 12
-0.009235532 0.49069017 1.9666487 234 88 12
-0.010253245 0.4765425 1.9687786 234 88 12
-0.0047441646 0.46266872 1.9814014 234 88 12
0.0058668773 0.44888839 2.0022588 234 88 12
0.042368583 0.43576124 2.0648558 234 88 12
0.01847166 0.51881146 1.9784853 234 88 12
0.0071444083 0.50393611 1.9642224 234 88 12
0.0034667179 0.48960772 1.9621097 234 88 12
0.0024428025 0.47542953 1.9642224 234 88 12
0.0098425504 0.46160328 1.9797813 234 88 12
0.021396585 0.44780731 2.0020092 234 88 12
0.04937391 0.43434101 2.0505469 234 88 12
0.051188327 0.4198423 2.0573068 234 88 12
0.028877521 0.53176183 1.9663671 234 88 12
0.025161201 0.51735896 1.9642274 234 88 12
0.022802468 0.5030576 1.9642274 234 88 12
0.019047407 0.4886784 1.9620197 234 88 12
0.01841693 0.4744713 1.9647528 234 88 12
0.025891641 0.46059093 1.9803343 234 88 12
0.045998357 0.44704777 2.0159853 234 88 12
0.057668101 0.4329617 2.0383151 234 88 12
0.059367839 0.41845769 2.0448451 234 88 12
0.04259688 0.54497635 1.959433 234 88 12
0.035457637 0.53029323 1.9519585 234 88 12
0.032604743 0.51595998 1.9511839 234 88 12
0.030502295 0.501679 1.9515846 234 88 12
0.029630085 0.48746237 1.9539177 234 88 12
0.031798735 0.47337475 1.961035 234 88 12
0.047526035 0.45980266 1.9894999 234 88 12
0.068087846 0.44617382 2.0256393 234 88 12
0.066580243 0.43160072 2.0270588 234 88 12
0.066796683 0.41705596 2.0312026 234 88 12
0.049021717 0.54348397 1.9447687 234 88 12
0.043857552 0.52896035 1.9404132 234 88 12
0.040782299 0.5146113 1.9392985 234 88 12
0.038680788 0.50033009 1.9396979 234 88 12
0.038222339 0.48613471 1.9426596 234 88 12
0.047349937 0.4723739 1.9605883 234 88 12
0.066813305 0.4588967 1.9947022 234 88 12
0.07734333 0.4448283 2.0149169 234 88 12
0.074999757 0.43022472 2.0150192 234 88 12
0.074849688 0.41566953 2.0185592 234 88 12
0.059110135 0.54228199 1.9357909 234 88 12
0.053258702 0.52769929 1.9304084 234 88 12
0.050133709 0.51333994 1.9292265 234 88 12
0.048256755 0.49906459 1.9299723 234 88 12
0.050099943 0.48498172 1.9364787 234 88 12
0.063839413 0.47140583 1.9614346 234 88 12
0.079349466 0.457699 1.9891896 234 88 12
0.086587958 0.44348112 2.0041575 234 88 12
0.084680215 0.42888409 2.0049381 234 88 12
0.064686567 0.52658069 1.9234829 234 88 12
0.061149377 0.5121749 1.9216821 234 88 12
0.060934629 0.49797928 1.9249798 234 88 12
0.068666488 0.48417452 1.9405001 234 88 12
0.081110395 0.47046128 1.963304 234 88 12
0.097504206 0.45671982 1.9922402 234 88 12
0.10642017 0.51320612 1.9662579 234 88 12
0.097663157 0.49828231 1.9565651 234 88 12
0.095832668 0.48379648 1.9574252 234 88 12
0.1014982 0.46964493 1.9697416 234 88 12
0.11379405 0.45565286 1.9922255 234 88 12
0.12968834 0.51278085 1.976761 234 88 12
0.12081824 0.49776295 1.9669881 234 88 12
0.11791424 0.48312959 1.9662383 234 88 12
0.11997134 0.46872455 1.9730146 234 88 12
0.12541422 0.45439428 1.9849478 234 88 12
0.14681157 0.5119465 1.9777175 234 88 12
0.13920671 0.49695101 1.9699291 234 88 12
0.13645039 0.4822633 1.9694223 234 88 12
0.13877232 0.46780339 1.9765661 234 88 12
0.1569179 0.49608558 1.9716475 234 88 12
0.15494519 0.48137936 1.9723299 234 88 12
-0.079250909 0.49068308 2.0154238 234 88 12
-0.068004921 0.47850969 2.0143116 234 88 12
-0.055988293 0.46742049 2.0154238 234 88 12
-0.041421644 0.45979863 2.0237527 234 88 12
-0.072106607 0.49749035 2.0011127 234 88 12
-0.060514122 0.48582107 2.0010214 234 88 12
-0.048748467 0.47439274 2.0014226 234 88 12
-0.036171518 0.46406516 2.0040989 234 88 12
-0.02115012 0.45698515 2.0135469 234 88 12
-0.0055676494 0.45051607 2.0243895 234 88 12
0.033789869 0.44766968 2.0678282 234 88 12
0.045371003 0.43553516 2.0671699 234 88 12
0.05780673 0.42447749 2.0688093 234 88 12
-0.074735217 0.51858294 1.9921639 234 88 12
-0.064206518 0.50537699 1.989004 234 88 12
-0.052690752 0.49360085 1.9886968 234 88 12
-0.040925808 0.48217344 1.9890952 234 88 12
-0.028434232 0.47172982 1.9915123 234 88 12
-0.014527176 0.46315163 1.9978018 234 88 12
0.0003425864 0.4557586 2.0066264 234 88 12
0.017519731 0.45125076 2.0215795 234 88 12
0.041162737 0.45484427 2.053726 234 88 12
0.052962638 0.44300002 2.0536737 234 88 12
0.061519086 0.42710784 2.0450156 234 88 12
0.077680998 0.42068988 2.0565159 234 88 12
-0.055989396 0.51371408 1.9777955 234 88 12
-0.044537805 0.5018425 1.9773037 234 88 12
-0.032654569 0.49057347 1.9780229 234 88 12
-0.019902224 0.48047587 1.9811313 234 88 12
-0.0065334756 0.47116026 1.9858772 234 88 12
0.0077094994 0.46293265 1.9929205 234 88 12
0.022556648 0.45539349 2.0014775 234 88 12
0.038991421 0.44977334 2.0141401 234 88 12
0.057207104 0.44623232 2.0313227 234 88 12
0.068924464 0.43435478 2.0311351 234 88 12
0.080859005 0.42274675 2.0315175 234 88 12
0.10052628 0.42050308 2.0519187 234 88 12
-0.035204165 0.51173311 1.9691877 234 88 12
-0.023534121 0.50014168 1.9692791 234 88 12
-0.011165576 0.48949727 1.9712819 234 88 12
0.0024334171 0.48047099 1.9765935 234 88 12
0.015742632 0.47098765 1.9810377 234 88 12
0.030372942 0.46315992 1.9889398 234 88 12
0.046044976 0.4565579 1.9994755 234 88 12
0.064084321 0.45280209 2.0160675 234 88 12
0.076958023 0.44238588 2.0189221 234 88 12
0.088828392 0.43069902 2.0191352 234 88 12
0.10812145 0.42799479 2.0384052 234 88 12
-0.012819041 0.51189786 1.9648424 234 88 12
-0.0008127623 0.50070637 1.9657815 234 88 12
0.01138889 0.4897626 1.967231 234 88 12
0.024707776 0.48027009 1.9716407 234 88 12
0.038638502 0.47151032 1.9775997 234 88 12
0.053931743 0.464412 1.9870437 234 88 12
0.071150035 0.45961311 2.0013561 234 88 12
0.085149288 0.45061323 2.0071175 234 88 12
0.097234048 0.43918666 2.0078759 234 88 12
0.11762076 0.43779051 2.0297611 234 88 12
0.0093476102 0.51164538 1.959649 234 88 12
0.021597942 0.50072324 1.9611676 234 88 12
0.034426741 0.49054068 1.964193 234 88 12
0.047385588 0.48048428 1.9675114 234 88 12
0.062323838 0.47291264 1.9759337 234 88 12
0.078314342 0.46655113 1.9869426 234 88 12
0.096050031 0.46220788 2.0022545 234 88 12
0.11053056 0.45366716 2.0090454 234 88 12
0.12536608 0.44546375 2.016628 234 88 12
0.019222312 0.5221895 1.952651 234 88 12
0.030745344 0.51026088 1.952191 234 88 12
0.042531844 0.49868497 1.9524299 234 88 12
0.054969963 0.4879497 1.9543613 234 88 12
0.070589744 0.48125091 1.9644804 234 88 12
0.085961737 0.47409993 1.9738054 234 88 12
0.10464339 0.47093022 1.9914005 234 88 12
0.11835841 0.46143985 1.9961925 234 88 12
0.13288032 0.45285875 2.0029311 234 88 12
0.027225358 0.53020012 1.9406158 234 88 12
0.03872579 0.51824135 1.9401 234 88 12
0.050597545 0.50677711 1.9405586 234 88 12
0.063011415 0.49600774 1.9424092 234 88 12
0.078213774 0.48876962 1.9513718 234 88 12
0.094927788 0.48330849 1.9640353 234 88 12
0.11304745 0.47941637 1.9800463 234 88 12
0.12704208 0.4702599 1.9854909 234 88 12
0.14154528 0.46164292 1.992115 234 88 12
0.15983935 0.45744577 2.0079792 234 88 12
0.035906367 0.53912437 1.9303565 234 88 12
0.047102354 0.52674818 1.9290389 234 88 12
0.059073959 0.51540715 1.9297428 234 88 12
0.071753182 0.50497049 1.9322467 234 88 12
0.086977206 0.49774125 1.9411728 234 88 12
0.10609989 0.49528638 1.9597826 234 88 12
0.12209895 0.48870394 1.9702963 234 88 12
0.13673724 0.48031452 1.9772731 234 88 12
0.15213677 0.47274753 1.9860182 234 88 12
0.1685131 0.46622336 1.9970181 234 88 12
0.056607772 0.53675175 1.9208699 234 88 12
0.068498239 0.52527601 1.9213294 234 88 12
0.081898741 0.5157426 1.925613 234 88 12
0.12139753 0.51243395 1.9657022 234 88 12
0.13393117 0.50143111 1.9673979 234 88 12
0.14787701 0.49212897 1.9725419 234 88 12
0.16266769 0.48377392 1.9796709 234 88 12
0.14853278 0.5175736 1.9711505 234 88 12
0.16036169 0.50557685 1.9709661 234 88 12
0.05269511 0.42814469 2.0783944 234 88 12
0.069015957 0.42797202 2.0745168 234 88 12
0.085219838 0.4285768 2.071718 234 88 12
0.10119633 0.43121183 2.071718 234 88 12
0.035180878 0.43464729 2.0650706 234 88 12
0.051553454 0.43418759 2.0608234 234 88 12
0.06876459 0.42591262 2.045887 234 88 12
0.084723949 0.42817768 2.0453937 234 88 12
0.099830039 0.43893969 2.056509 234 88 12
0.11572458 0.4423565 2.0575778 234 88 12
0.03386005 0.44228512 2.0496979 234 88 12
0.051368851 0.43216267 2.0323372 234 88 12
0.067426451 0.43356121 2.0306695 234 88 12
0.083354704 0.43603575 2.0304658 234 88 12
0.099214666 0.439174 2.031163 234 88 12
0.11427652 0.45086747 2.0434518 234 88 12
0.032352585 0.45142192 2.0363815 234 88 12
0.049928091 0.44075382 2.0184071 234 88 12
0.06593354 0.44258973 2.0173421 234 88 12
0.081853636 0.44513693 2.0172379 234 88 12
0.09774296 0.44798151 2.0175347 234 88 12
0.11313772 0.45610091 2.0249279 234 88 12
0.12906863 0.45889759 2.0251522 234 88 12
0.1447522 0.46472993 2.0294523 234 88 12
-0.018157177 0.45971099 2.0325816 234 88 12
-0.0017998392 0.4600352 2.0294592 234 88 12
0.014578314 0.45998338 2.0258377 234 88 12
0.030657072 0.462064 2.0250862 234 88 12
0.047138594 0.46069738 2.0197129 234 88 12
0.064393774 0.45203409 2.0045733 234 88 12
0.080321692 0.45452768 2.0043976 234 88 12
0.096100867 0.45848456 2.0061793 234 88 12
0.11169901 0.46452779 2.0107448 234 88 12
0.12764631 0.46709111 2.0106568 234 88 12
0.14353271 0.47038391 2.0115416 234 88 12
0.15925956 0.47586977 2.0153458 234 88 12
-0.052255671 0.46685457 2.0236149 234 88 12
-0.035545684 0.46514633 2.0177844 234 88 12
-0.019230857 0.46582088 2.015151 234 88 12
-0.0029439386 0.46652299 2.0125597 234 88 12
0.013072702 0.46910489 2.0124817 234 88 12
0.029215951 0.47066873 2.0110469 234 88 12
0.0455616 0.47042128 2.0072026 234 88 12
0.06161242 0.47247449 2.0064268 234 88 12
0.077904612 0.47220227 2.0025618 234 88 12
0.094212689 0.47142318 1.9980313 234 88 12
0.11020137 0.47358009 1.9974043 234 88 12
0.12614246 0.47620928 1.9974043 234 88 12
0.14204437 0.47931209 1.9980313 234 88 12
0.1577743 0.48473153 2.0017211 234 88 12
0.17349073 0.49081481 2.0062807 234 88 12
-0.070002943 0.4744654 2.0116947 234 88 12
-0.053415753 0.47376099 2.0072339 234 88 12
-0.036930606 0.47346401 2.0033231 234 88 12
-0.020621527 0.4741433 2.0007157 234 88 12
-0.004418856 0.47542265 1.9989096 234 88 12
0.011674857 0.47740558 1.9980389 234 88 12
0.027845517 0.47871009 1.9962721 234 88 12
0.044057261 0.47953376 1.993873 234 88 12
0.060130134 0.48139119 1.992844 234 88 12
0.076162197 0.48354197 1.9922042 234 88 12
0.092626639 0.48135394 1.9858457 234 88 12
0.10866579 0.48303211 1.9845915 234 88 12
0.12460885 0.48566163 1.9845915 234 88 12
0.1403773 0.49039558 1.9873577 234 88 12
0.15622291 0.49445423 1.9892318 234 88 12
0.17198251 0.49996421 1.9930062 234 88 12
-0.07133504 0.48252106 1.9968412 234 88 12
-0.054878112 0.48260918 1.9934602 234 88 12
-0.038410343 0.48241591 1.9897145 234 88 12
-0.022109013 0.48314101 1.9871866 234 88 12
-0.0058756121 0.48419052 1.9850907 234 88 12
0.010251473 0.4859021 1.9838699 234 88 12
0.026385494 0.4874686 1.9824607 234 88 12
0.0425767 0.48844701 1.9802823 234 88 12
0.058649197 0.49029672 1.9792509 234 88 12
0.074661061 0.49262354 1.9788465 234 88 12
0.090638012 0.49525863 1.9788465 234 88 12
0.10671167 0.49687809 1.9775184 234 88 12
0.12266637 0.49969429 1.9777564 234 88 12
0.13856858 0.50316721 1.978851 234 88 12
0.15454024 0.50587118 1.9789407 234 88 12
-0.072906025 0.49205258 1.9839461 234 88 12
-0.056457207 0.49220687 1.9806753 234 88 12
-0.039948355 0.49175724 1.9766202 234 88 12
-0.0236615 0.4925915 1.9742528 234 88 12
-0.0073899301 0.49337739 1.9718269 234 88 12
0.0088310158 0.49437752 1.9696856 234 88 12
0.024947444 0.49605283 1.9684293 234 88 12
0.041095313 0.49736777 1.9667058 234 88 12
0.05713816 0.49946833 1.9660085 234 88 12
0.07314156 0.50187624 1.9657127 234 88 12
0.089124933 0.50445485 1.965639 234 88 12
0.10509209 0.50719601 1.9657767 234 88 12
0.12107512 0.50977421 1.9657028 234 88 12
0.13703713 0.51259565 1.9659441 234 88 12
-0.074737586 0.50319368 1.9731417 234 88 12
-0.058141045 0.50247663 1.9687576 234 88 12
-0.041836187 0.50343454 1.9665605 234 88 12
-0.025349198 0.50298262 1.9625359 234 88 12
-0.0090209581 0.50341207 1.959663 234 88 12
0.0074001909 0.50293285 1.9556175 234 88 12
0.023537502 0.5044145 1.95412 234 88 12
0.039636169 0.5061031 1.9528933 234 88 12
0.055648733 0.50844961 1.9525197 234 88 12
0.071626768 0.51108485 1.9525197 234 88 12
0.087576017 0.51400334 1.952885 234 88 12
0.0058934824 0.51206529 1.9423034 234 88 12
0.02204321 0.5134486 1.9406902 234 88 12
0.038128663 0.51524335 1.9396087 234 88 12
0.054129761 0.51769108 1.9393675 234 88 12
0.070108391 0.52032644 1.9393675 234 88 12
0.086037792 0.52344513 1.9399868 234 88 12
0.020501383 0.52286065 1.927745 234 88 12
0.036565565 0.52484721 1.9269155 234 88 12
0.052584305 0.52716464 1.9265095 234 88 12
0.068537481 0.53005409 1.9268327 234 88 12
-0.069069028 0.47963554 1.9780333 234 88 12
-0.056440238 0.48670629 1.9724525 234 88 12
-0.044998791 0.49485177 1.9683958 234 88 12
-0.03713822 0.50644606 1.9690547 234 88 12
-0.05533066 0.5120225 2.0068302 234 88 12
-0.066223457 0.50176841 2.0059021 234 88 12
-0.076282345 0.49095383 2.0076323 234 88 12
-0.036660664 0.51446831 1.9981064 234 88 12
-0.048271224 0.50467503 1.9949629 234 88 12
-0.059036169 0.49434304 1.9944323 234 88 12
-0.069416612 0.48375279 1.9951152 234 88 12
-0.077636138 0.47164756 2.0027378 234 88 12
0.039185815 0.5332672 2.0647767 234 88 12
0.02816111 0.52274108 2.0641344 234 88 12
0.017398614 0.51205838 2.0642748 234 88 12
-0.016624643 0.5160625 1.993497 234 88 12
-0.029081415 0.50677878 1.9878511 234 88 12
-0.040648699 0.49695915 1.9848685 234 88 12
-0.051463608 0.48666039 1.9841876 234 88 12
-0.061716903 0.47598249 1.9852651 234 88 12
-0.069681615 0.46369252 1.9936352 234 88 12
0.059126563 0.53526598 2.058434 234 88 12
0.046742741 0.52552927 2.053823 234 88 12
0.035844628 0.51492888 2.0535586 234 88 12
0.0044947835 0.51702422 1.9919527 234 88 12
-0.0088197868 0.50822586 1.9838767 234 88 12
-0.021217896 0.49890533 1.9784623 234 88 12
-0.032273669 0.48874614 1.9770842 234 88 12
-0.043134332 0.4784677 1.9762877 234 88 12
-0.053030733 0.46753308 1.9784908 234 88 12
0.067269564 0.52718002 2.0491571 234 88 12
0.029136002 0.53282994 1.9692112 234 88 12
0.018905206 0.52214062 1.9703302 234 88 12
0.011299795 0.50980622 1.9792757 234 88 12
-0.0001236689 0.4998216 1.9769179 234 88 12
-0.012394257 0.49040753 1.9719613 234 88 12
-0.023723381 0.48041371 1.9697924 234 88 12
-0.03387095 0.46964049 1.971218 234 88 12
-0.037256662 0.45418975 1.9936161 234 88 12
0.045960661 0.53639871 1.9550093 234 88 12
0.035065208 0.52612883 1.9541497 234 88 12
0.024761867 0.5155037 1.9550093 234 88 12
0.014943943 0.50456768 1.9573145 234 88 12
0.0080994982 0.49171427 1.9684976 234 88 12
-0.0027893821 0.48139578 1.9677389 234 88 12
-0.013214402 0.47077581 1.9683695 234 88 12
-0.019846719 0.45757872 1.980565 234 88 12
0.064985551 0.53866935 1.9471707 234 88 12
0.053072684 0.52898651 1.9434359 234 88 12
0.042312458 0.51864153 1.9429624 234 88 12
0.031881046 0.50809854 1.9434359 234 88 12
0.022052884 0.49717298 1.9456816 234 88 12
0.0161297 0.48372781 1.9594777 234 88 12
0.0070796767 0.47220308 1.9642012 234 88 12
-0.00081872265 0.45986861 1.9724519 234 88 12
0.072850227 0.53081387 1.9377159 234 88 12
0.060810093 0.52120602 1.9336566 234 88 12
0.050049867 0.51085943 1.9331906 234 88 12
0.039615933 0.50031555 1.9336566 234 88 12
0.030103935 0.48918727 1.9368048 234 88 12
0.026410855 0.47429377 1.9570194 234 88 12
0.019633677 0.46124157 1.9684659 234 88 12
0.035463486 0.43297422 2.0472713 234 88 12
0.11724475 0.51861912 2.0000308 234 88 12
0.083163738 0.52153027 1.9350814 234 88 12
0.069494314 0.51286185 1.9265318 234 88 12
0.05835028 0.50273496 1.9250062 234 88 12
0.048360042 0.49190706 1.9267513 234 88 12
0.04554373 0.47653243 1.9491675 234 88 12
0.044812147 0.45961598 1.977983 234 88 12
0.052507658 0.43690309 2.0318909 234 88 12
0.043892119 0.42464149 2.0385978 234 88 12
0.14073509 0.51864731 2.0031159 234 88 12
0.12421906 0.51121318 1.987527 234 88 12
0.10687061 0.5043993 1.969399 234 88 12
0.083491549 0.50134128 1.9341756 234 88 12
0.072170444 0.49124575 1.9323015 234 88 12
0.068855606 0.47619238 1.9530733 234 88 12
0.064064078 0.46189177 1.9699532 234 88 12
0.070939183 0.43989912 2.0206561 234 88 12
0.060171757 0.42908484 2.0210106 234 88 12
0.14788607 0.511123 1.991015 234 88 12
0.13330241 0.50259691 1.9808044 234 88 12
0.1195612 0.4936637 1.9727545 234 88 12
0.10452481 0.48557615 1.9609994 234 88 12
0.093218505 0.47531125 1.9594641 234 88 12
0.087042369 0.46186143 1.972317 234 88 12
0.089788914 0.44262406 2.0106275 234 88 12
0.078846171 0.43192255 2.0104802 234 88 12
0.068279907 0.42097339 2.0114131 234 88 12
0.156728 0.50264376 1.9834781 234 88 12
0.14335637 0.49341333 1.9766476 234 88 12
0.13058031 0.48389071 1.9713377 234 88 12
0.11898968 0.47370127 1.9692017 234 88 12
0.11034797 0.46172175 1.9751883 234 88 12
0.10514314 0.44753936 1.9908431 234 88 12
0.10459367 0.4302479 2.0198104 234 88 12
0.096020415 0.4179168 2.0265217 234 88 12
0.16690587 0.49339959 1.9794527 234 88 12
0.1541478 0.48379123 1.9743698 234 88 12
0.14272055 0.47343931 1.972808 234 88 12
0.13509876 0.46080408 1.9815842 234 88 12
-0.084059 0.49956331 2.0125289 234 88 12
-0.082249373 0.48238635 2.0114913 234 88 12
-0.071717307 0.51806033 2.0020943 234 88 12
-0.070391566 0.50062358 1.999269 234 88 12
-0.068361051 0.48358855 1.9990784 234 88 12
-0.065748297 0.46685886 2.0010529 234 88 12
-0.057099938 0.51964438 1.9924366 234 88 12
-0.055488605 0.50237501 1.990705 234 88 12
-0.053407192 0.48536992 1.990705 234 88 12
-0.050974596 0.46854627 1.991992 234 88 12
-0.046772789 0.45259985 1.9997468 234 88 12
-0.041686028 0.52167696 1.9857204 234 88 12
-0.04016953 0.5043537 1.9836674 234 88 12
-0.038161598 0.48730615 1.9834 234 88 12
-0.035614226 0.47053698 1.9850823 234 88 12
-0.031712752 0.45442715 1.9916426 234 88 12
-0.025643116 0.52405268 1.9812218 234 88 12
-0.024592977 0.50646794 1.9775249 234 88 12
-0.022565397 0.48942366 1.9773283 234 88 12
-0.019982867 0.47266242 1.9791092 234 88 12
-0.015792677 0.45667842 1.9866012 234 88 12
-0.0080810227 0.4423162 2.0065699 234 88 12
-0.008437315 0.52705348 1.980733 234 88 12
-0.0081565455 0.50903416 1.9743633 234 88 12
-0.006353667 0.49185431 1.9733708 234 88 12
-0.0034220729 0.4752498 1.9763466 234 88 12
4.9203842e-05 0.45888424 1.9812051 234 88 12
0.0072427266 0.44424203 1.9990797 234 88 12
0.02885133 0.43607506 2.0672812 234 88 12
0.0089947982 0.53015524 1.9808269 234 88 12
0.0072457078 0.51104254 1.9674754 234 88 12
0.0098965187 0.49429402 1.9694375 234 88 12
0.012570367 0.47754079 1.9714729 234 88 12
0.016479511 0.46136832 1.9777743 234 88 12
0.023442712 0.44657806 1.9946017 234 88 12
0.042050436 0.4369522 2.0515201 234 88 12
0.045299962 0.42008367 2.0553894 234 88 12
0.018997144 0.52925134 1.9551843 234 88 12
0.0208878 0.51212949 1.9545234 234 88 12
0.023142399 0.49519789 1.9551107 234 88 12
0.026855377 0.4789812 1.9606801 234 88 12
0.032596555 0.46369112 1.9731519 234 88 12
0.040105753 0.44912133 1.991606 234 88 12
0.054168954 0.43735886 2.0322907 234 88 12
0.05657813 0.42016405 2.0332723 234 88 12
0.032530021 0.54840815 1.949042 234 88 12
0.033641458 0.53086311 1.9457459 234 88 12
0.035577256 0.51377171 1.9452492 234 88 12
0.037906114 0.49688223 1.9460814 234 88 12
0.040838335 0.48028103 1.9489453 234 88 12
0.048503608 0.4659059 1.9677328 234 88 12
0.057733588 0.4520981 1.9917188 234 88 12
0.069418557 0.43919203 2.0238657 234 88 12
0.071634606 0.4219138 2.0241878 234 88 12
0.08211454 0.40810487 2.0521498 234 88 12
0.047666639 0.55027932 1.9412454 234 88 12
0.048722561 0.532709 1.9378078 234 88 12
0.050656643 0.51561743 1.9373119 234 88 12
0.052914515 0.49869144 1.9378965 234 88 12
0.056125913 0.48222306 1.9416513 234 88 12
0.065261431 0.46851552 1.9650716 234 88 12
0.073230684 0.45408115 1.9845498 234 88 12
0.08476954 0.44107097 2.0157855 234 88 12
0.08707051 0.42382896 2.0163839 234 88 12
0.098000273 0.41017792 2.0454605 234 88 12
0.064277351 0.53480214 1.931432 234 88 12
0.066093184 0.51764464 1.9305508 234 88 12
0.06856937 0.50082093 1.9318436 234 88 12
0.073332533 0.48508632 1.9406404 234 88 12
0.082711741 0.47143599 1.9645401 234 88 12
0.08976388 0.45653236 1.9807492 234 88 12
0.099903718 0.44285446 2.0069969 234 88 12
0.1030829 0.42598957 2.0104537 234 88 12
0.083924979 0.53900838 1.9383386 234 88 12
0.083178021 0.52049911 1.9291161 234 88 12
0.086880043 0.50424778 1.93436 234 88 12
0.095986158 0.49052987 1.9570972 234 88 12
0.10133652 0.47488314 1.9676138 234 88 12
0.10796918 0.45972648 1.9822396 234 88 12
0.11604939 0.44508123 2.0014887 234 88 12
0.11652553 0.51315922 1.9729117 234 88 12
0.11674014 0.49501565 1.9668468 234 88 12
0.1210731 0.47881532 1.9739515 234 88 12
0.12578233 0.46272412 1.982234 234 88 12
0.13207617 0.44725093 1.9955357 234 88 12
0.1364435 0.51726359 1.9795114 234 88 12
0.13696578 0.49921077 1.9744732 234 88 12
0.13957274 0.48215023 1.9760221 234 88 12
0.14389901 0.46583825 1.9829781 234 88 12
0.15123458 0.45076212 1.9993707 234 88 12
0.15559006 0.52096277 1.9833302 234 88 12
0.15592335 0.50277847 1.9777492 234 88 12
0.1582035 0.4855212 1.9782442 234 88 12
0.16229559 0.46905589 1.9843689 234 88 12
0.025649922 0.43337658 2.0624371 234 88 12
0.043328617 0.42848065 2.0552766 234 88 12
0.060352378 0.41891775 2.0356746 234 88 12
0.078211106 0.4165293 2.0351436 234 88 12
0.097164012 0.42148459 2.0542109 234 88 12
0.11552672 0.42179033 2.0609028 234 88 12
0.02733526 0.4468163 2.0474572 234 88 12
0.045205642 0.44378895 2.0452802 234 88 12
0.062233843 0.43430951 2.0261159 234 88 12
0.080113851 0.43211031 2.0260882 234 88 12
0.097998247 0.42994201 2.0261421 234 88 12
0.11711265 0.43545118 2.0464816 234 88 12
-0.078945242 0.46611783 2.0137813 234 88 12
-0.061173093 0.46219906 2.0093136 234 88 12
-0.043372639 0.45928484 2.0074289 234 88 12
-0.025545711 0.45692948 2.0069845 234 88 12
-0.0077035334 0.45479518 2.0071115 234 88 12
0.010167553 0.45295158 2.0079925 234 88 12
0.028103126 0.45164609 2.0102727 234 88 12
0.046134349 0.45099834 2.0142684 234 88 12
0.064055026 0.44922897 2.0153553 234 88 12
0.082036309 0.44783321 2.0174184 234 88 12
0.099935062 0.44577023 2.017746 234 88 12
0.11781398 0.44356632 2.0177062 234 88 12
-0.077099696 0.47985289 2.0000975 234 88 12
-0.059327174 0.47636005 1.9967587 234 88 12
-0.041511618 0.47395015 1.9961777 234 88 12
-0.023752125 0.47085807 1.9938504 234 88 12
-0.0059467116 0.46852362 1.9934574 234 88 12
0.011846988 0.46610072 1.9928366 234 88 12
0.029677648 0.46407211 1.9932265 234 88 12
0.047599453 0.46279436 1.9955475 234 88 12
0.065472566 0.46098614 1.9965091 234 88 12
0.083416037 0.45962977 1.9986376 234 88 12
0.1015566 0.45948011 2.003885 234 88 12
0.11961967 0.45857349 2.0071905 234 88 12
0.13758859 0.4569532 2.0086579 234 88 12
0.15592368 0.45729148 2.0152025 234 88 12
-0.075172417 0.49547839 1.9912945 234 88 12
-0.057404015 0.49196076 1.987929 234 88 12
-0.039633896 0.48888934 1.9856824 234 88 12
-0.021833427 0.4864614 1.9850578 234 88 12
-0.0040596444 0.48378256 1.9837964 234 88 12
0.013552608 0.47953475 1.9785528 234 88 12
0.0312015 0.47603264 1.9751896 234 88 12
0.049046006 0.47443542 1.9766606 234 88 12
0.06700547 0.47364417 1.9801871 234 88 12
0.085034952 0.47314993 1.9844793 234 88 12
0.10308986 0.4725889 1.9886119 234 88 12
0.12133738 0.4730241 1.9953007 234 88 12
0.13941233 0.47211665 1.9985712 234 88 12
0.15752828 0.47128668 2.0020485 234 88 12
0.17603257 0.4723407 2.0103669 234 88 12
-0.073230393 0.51143384 1.9833245 234 88 12
-0.055466894 0.50781661 1.9797473 234 88 12
-0.037700787 0.50468278 1.9773692 234 88 12
-0.019900594 0.50225264 1.9767458 234 88 12
-0.0022190225 0.49850759 1.972827 234 88 12
0.015124623 0.49159724 1.9609587 234 88 12
0.032788973 0.48859844 1.9588845 234 88 12
0.050520808 0.48632073 1.9586184 234 88 12
0.068401895 0.48523012 1.9613404 234 88 12
0.086503021 0.48557189 1.9676802 234 88 12
0.10497339 0.48805001 1.9794278 234 88 12
0.12320367 0.48840469 1.9858388 234 88 12
0.14128567 0.48756984 1.9892558 234 88 12
0.15940759 0.48679954 1.9928449 234 88 12
0.17771134 0.48682863 1.9984709 234 88 12
-0.053448569 0.52511472 1.9751235 234 88 12
-0.035693917 0.52158767 1.9718035 234 88 12
-0.017949849 0.51827794 1.9690135 234 88 12
-0.00056585146 0.51107728 1.9565738 234 88 12
0.016938608 0.50617611 1.9498092 234 88 12
0.034628004 0.50352252 1.9486115 234 88 12
0.052371468 0.50141412 1.9487669 234 88 12
0.070161611 0.49966165 1.9498092 234 88 12
0.088156663 0.49933362 1.9544058 234 88 12
0.10692303 0.50395632 1.9713742 234 88 12
0.12521102 0.5046736 1.978622 234 88 12
0.14328854 0.50378817 1.9818766 234 88 12
0.16139676 0.50292343 1.9851912 234 88 12
0.018834967 0.52160907 1.9408175 234 88 12
0.036544837 0.51917458 1.9401704 234 88 12
0.054280296 0.51700377 1.9401704 234 88 12
0.072065644 0.51522428 1.9411345 234 88 12
0.089966618 0.51422673 1.9440297 234 88 12
0.10927705 0.52259737 1.9700687 234 88 12
0.12739341 0.52205127 1.974123 234 88 12
0.14546379 0.52103221 1.9770164 234 88 12
0.020810446 0.53785658 1.9338194 234 88 12
0.038483042 0.53502595 1.9322175 234 88 12
0.056226827 0.53291482 1.932363 234 88 12
0.074016236 0.53115213 1.9333584 234 88 12
0.092241339 0.53249729 1.9419401 234 88 12
0.058299709 0.54990184 1.9271374 234 88 12
0.10293404 0.42651874 2.0703313 234 88 12
0.11431569 0.43892351 2.0714891 234 88 12
0.067205958 0.41618228 2.0703976 234 88 12
0.083542056 0.42177764 2.0557048 234 88 12
0.09581048 0.43290102 2.0539339 234 88 12
0.10739469 0.44497964 2.0543702 234 88 12
0.11838428 0.45793059 2.0567813 234 88 12
0.1397192 0.45560089 2.0246947 234 88 12
0.15213315 0.46622643 2.0220597 234 88 12
0.16360354 0.47825649 2.0225856 234 88 12
0.06528724 0.4155353 2.0376086 234 88 12
0.078486808 0.42533726 2.0328457 234 88 12
0.090304725 0.43701592 2.0324328 234 88 12
0.1054179 0.443977 2.0213242 234 88 12
0.11918017 0.45274144 2.0144267 234 88 12
0.13220547 0.46249422 2.0098331 234 88 12
0.14418808 0.47374493 2.0086308 234 88 12
0.15588321 0.48541644 2.0083737 234 88 12
0.16717854 0.49770427 2.0094728 234 88 12
0.036651369 0.42328793 2.0518937 234 88 12
0.057742704 0.42257315 2.0228009 234 88 12
0.070018023 0.43363297 2.020967 234 88 12
0.081836723 0.445308 2.0205519 234 88 12
0.098224118 0.45045862 2.0054545 234 88 12
0.11083879 0.46086186 2.0023038 234 88 12
0.12384866 0.47063705 1.9977993 234 88 12
0.13586223 0.48183802 1.9965004 234 88 12
0.14754702 0.49352017 1.9962734 234 88 12
0.1590225 0.50552273 1.9967475 234 88 12
0.027113916 0.43299451 2.0430148 234 88 12
0.048572388 0.43182319 2.013087 234 88 12
0.061288152 0.44228944 2.0099113 234 88 12
0.07339067 0.45357007 2.0086095 234 88 12
0.089327224 0.45937335 1.9950885 234 88 12
0.10215481 0.46947935 1.9912947 234 88 12
0.11517406 0.47924834 1.9868079 234 88 12
0.1272411 0.49037388 1.9853508 234 88 12
0.13900165 0.50194311 1.9848782 234 88 12
0.15040763 0.51405233 1.9855794 234 88 12
0.033923935 0.44849315 2.0201297 234 88 12
0.051311266 0.45266178 2.0027046 234 88 12
0.065357372 0.46125579 1.9953883 234 88 12
0.079650886 0.46939355 1.9871571 234 88 12
0.093002588 0.47877195 1.9817666 234 88 12
0.10584708 0.48881567 1.9779023 234 88 12
0.1182881 0.4994038 1.9752717 234 88 12
0.13002171 0.51102418 1.9749047 234 88 12
0.14083911 0.52404898 1.9775565 234 88 12
0.011371016 0.44795895 2.0150802 234 88 12
0.026203701 0.45576304 2.0057888 234 88 12
0.04241303 0.46154499 1.9921126 234 88 12
0.057306908 0.46896857 1.9822536 234 88 12
0.070300221 0.47894546 1.9781425 234 88 12
0.083295003 0.48886079 1.9739506 234 88 12
0.095842332 0.49936968 1.9711021 234 88 12
0.10788788 0.51058263 1.9698097 234 88 12
-0.0132925 0.45008934 2.0160336 234 88 12
0.003580628 0.45533878 2.0009387 234 88 12
0.018293092 0.46329442 1.9920734 234 88 12
0.033993382 0.4697704 1.9800515 234 88 12
0.048522662 0.47770643 1.9713976 234 88 12
0.061621744 0.48754179 1.9670047 234 88 12
0.073566251 0.49897298 1.966131 234 88 12
0.08531642 0.51067513 1.9658527 234 88 12
0.096092135 0.52381867 1.9686649 234 88 12
-0.037288614 0.45117447 2.0146055 234 88 12
-0.020142479 0.45625114 1.9990699 234 88 12
-0.0043782466 0.46294606 1.9873432 234 88 12
0.010097591 0.47121322 1.9792478 234 88 12
0.025480218 0.47812477 1.9682826 234 88 12
0.040939119 0.48477393 1.9568888 234 88 12
0.053416241 0.49546969 1.9544135 234 88 12
0.065206021 0.5071153 1.9540156 234 88 12
0.076757692 0.51910204 1.9543524 234 88 12
0.087549672 0.53221798 1.9570855 234 88 12
-0.044913184 0.45836511 1.9998711 234 88 12
-0.028663643 0.46460089 1.9870526 234 88 12
-0.01330284 0.47183588 1.9766113 234 88 12
0.00063886627 0.48083368 1.9701749 234 88 12
0.017681131 0.48550397 1.9543928 234 88 12
0.032514315 0.49301416 1.944965 234 88 12
0.044858009 0.50389677 1.9429134 234 88 12
0.056628555 0.51556987 1.9425776 234 88 12
0.068256892 0.52744478 1.9426745 234 88 12
0.079157591 0.54039556 1.9450401 234 88 12
-0.070520595 0.46135381 2.0026035 234 88 12
-0.053870216 0.46726942 1.9889905 234 88 12
-0.037985463 0.47399431 1.9773445 234 88 12
-0.023856806 0.48287979 1.9705874 234 88 12
-0.0093863718 0.49121121 1.9627131 234 88 12
0.0087331645 0.49445406 1.9439369 234 88 12
0.023387633 0.50222731 1.9351388 234 88 12
0.035993773 0.51275432 1.9323332 234 88 12
0.047899615 0.52424079 1.9315984 234 88 12
0.059378996 0.53633505 1.9321541 234 88 12
-0.079438947 0.47019523 1.9914721 234 88 12
-0.063509651 0.47704706 1.9800235 234 88 12
-0.049328268 0.48601392 1.9733568 234 88 12
-0.034442976 0.49395812 1.9645543 234 88 12
-0.021685598 0.50463152 1.9617631 234 88 12
-0.010117965 0.51688498 1.9623998 234 88 12
0.012787689 0.51347417 1.9296253 234 88 12
0.026473068 0.52253181 1.9236891 234 88 12
0.038485095 0.53388804 1.9226679 234 88 12
0.049205873 0.54709822 1.9255378 234 88 12
-0.075563908 0.48991075 1.9777644 234 88 12
-0.063093223 0.50116897 1.9760644 234 88 12
-0.051230136 0.51320446 1.9760644 234 88 12
0.094790027 0.42359555 2.0609784 234 88 12
0.099011876 0.43686363 2.0573881 234 88 12
0.10101724 0.45085153 2.0571592 234 88 12
0.13372876 0.45423779 2.0102413 234 88 12
0.14041109 0.4663758 2.0028558 234 88 12
0.14453676 0.47936621 1.999352 234 88 12
0.14673841 0.49302846 1.9987751 234 88 12
0.14818317 0.50696683 1.999352 234 88 12
0.14335829 0.5232802 2.0095024 234 88 12
0.089400984 0.42399937 2.0462718 234 88 12
0.092477627 0.43763822 2.0444303 234 88 12
0.094484687 0.45162275 2.0441999 234 88 12
0.12504476 0.45576772 2.0008445 234 88 12
0.13351008 0.46729484 1.9908155 234 88 12
0.13767642 0.48027256 1.9872736 234 88 12
0.13987924 0.49393463 1.9866989 234 88 12
0.14132282 0.50787318 1.9872736 234 88 12
0.13908355 0.52320606 1.9934347 234 88 12
0.082657591 0.42484447 2.0336242 234 88 12
0.085500032 0.43856004 2.0321455 234 88 12
0.1071999 0.4459005 2.0023971 234 88 12
0.11469192 0.45786917 1.9939148 234 88 12
0.1238769 0.46917117 1.9828768 234 88 12
0.12947421 0.4816578 1.9772117 234 88 12
0.13208961 0.49517897 1.9760219 234 88 12
0.13307789 0.50929171 1.9772793 234 88 12
0.054139674 0.41797182 2.0505686 234 88 12
0.076093458 0.42563182 2.020715 234 88 12
0.078412794 0.43951809 2.0200238 234 88 12
0.08886759 0.45065868 2.0072181 234 88 12
0.10528545 0.45964128 1.9855055 234 88 12
0.1120989 0.4717938 1.9780812 234 88 12
0.11760738 0.48434654 1.9725927 234 88 12
0.1203758 0.49784526 1.9711884 234 88 12
0.11889464 0.51290077 1.9761354 234 88 12
0.068185851 0.42685395 2.0097978 234 88 12
0.070968926 0.4405936 2.0084271 234 88 12
0.078917876 0.45258486 1.9994138 234 88 12
0.091984041 0.46274447 1.9828113 234 88 12
0.099895678 0.47455832 1.9738177 234 88 12
0.1044568 0.48748475 1.969777 234 88 12
0.10614748 0.5014149 1.9699889 234 88 12
0.10246125 0.51732826 1.9781862 234 88 12
0.060836397 0.44255334 2.0007677 234 88 12
0.067641474 0.45495242 1.993499 234 88 12
0.079882145 0.46542928 1.9782267 234 88 12
0.087277777 0.47746024 1.9700588 234 88 12
0.091319047 0.49060982 1.9668176 234 88 12
0.092197247 0.50487375 1.9682332 234 88 12
0.087230772 0.52129948 1.9782724 234 88 12
0.056507114 0.45726708 1.9872922 234 88 12
0.068943597 0.46771038 1.9718411 234 88 12
0.075255722 0.48014742 1.9653164 234 88 12
0.077874996 0.49383488 1.9641831 234 88 12
0.079075202 0.50802404 1.9651254 234 88 12
0.076393858 0.52364618 1.9717566 234 88 12
0.042551465 0.46051964 1.9850931 234 88 12
0.057095453 0.47029629 1.9666966 234 88 12
0.064103201 0.48252615 1.9592116 234 88 12
0.067680053 0.49590263 1.9566995 234 88 12
0.068232767 0.51034528 1.958581 234 88 12
0.069658771 0.52448463 1.9591945 234 88 12
0.068144359 0.53972554 1.9640919 234 88 12
0.0012315724 0.45796955 2.0194371 234 88 12
0.029987944 0.46329921 1.9807543 234 88 12
0.043946736 0.47331822 1.9633309 234 88 12
0.055178173 0.48412776 1.9498124 234 88 12
0.059028339 0.49742159 1.946925 234 88 12
0.061280631 0.51126373 1.946341 234 88 12
0.06291914 0.52532512 1.9466432 234 88 12
0.062680408 0.54008758 1.9496619 234 88 12
-0.0046580443 0.45851094 2.0051882 234 88 12
0.019459506 0.4653942 1.9733976 234 88 12
0.031417783 0.47612205 1.9589585 234 88 12
0.045859486 0.48586291 1.9409389 234 88 12
0.051403113 0.49857679 1.9356461 234 88 12
0.053903986 0.51233441 1.93471 234 88 12
0.055125274 0.52655059 1.9356098 234 88 12
0.054808311 0.54134595 1.9387215 234 88 12
-0.012189032 0.45958903 1.9932923 234 88 12
0.0071034706 0.46809256 1.9685696 234 88 12
0.015679011 0.48000637 1.9590425 234 88 12
0.032456327 0.48900464 1.9378312 234 88 12
0.041826274 0.50041705 1.927133 234 88 12
0.04498769 0.51395541 1.925265 234 88 12
0.046290811 0.52815384 1.9260442 234 88 12
0.04298979 0.54406548 1.9333963 234 88 12
-0.022695603 0.46163535 1.9855833 234 88 12
-0.0080705434 0.47171962 1.967616 234 88 12
0.00049741886 0.48369139 1.9581728 234 88 12
0.0041623977 0.4972676 1.9556434 234 88 12
0.027082279 0.50406647 1.9258776 234 88 12
0.032847248 0.51672524 1.9203458 234 88 12
0.03259144 0.53152287 1.923334 234 88 12
-0.037823502 0.46517947 1.9842809 234 88 12
-0.022342967 0.47503832 1.9652445 234 88 12
-0.017200425 0.48821571 1.9606773 234 88 12
-0.015931357 0.50268394 1.9615397 234 88 12
-0.026877154 0.52143687 1.9795628 234 88 12
-0.052938856 0.4687103 1.98281 234 88 12
-0.04037296 0.47959092 1.9679677 234 88 12
-0.036244623 0.49318057 1.9648563 234 88 12
-0.036843311 0.5083645 1.9683301 234 88 12
-0.067084163 0.4719179 1.9798495 234 88 12
-0.056566477 0.48352444 1.9679468 234 88 12
-0.052165482 0.49708045 1.9644889 234 88 12
-0.059045069 0.51446956 1.9766468 234 88 12
0.16106047 0.49616912 2.0281773 234 88 12
0.15290011 0.50775737 2.022043 234 88 12
0.16382667 0.478746 2.019136 234 88 12
0.15845086 0.49241579 2.0044274 234 88 12
0.14857802 0.50271404 2.0036728 234 88 12
0.1380707 0.51255727 2.0048506 234 88 12
0.12059818 0.51758289 2.0269239 234 88 12
0.15714955 0.47200969 2.0078826 234 88 12
0.15181021 0.48570991 1.9931886 234 88 12
0.14181466 0.49591658 1.9928175 234 88 12
0.13144472 0.50585479 1.9935763 234 88 12
0.1198342 0.51493782 1.9980183 234 88 12
0.15014881 0.46503097 1.9976281 234 88 12
0.14478983 0.47872487 1.9831109 234 88 12
0.13480607 0.48894209 1.9827043 234 88 12
0.12430084 0.49878556 1.9838568 234 88 12
0.11263283 0.50782955 1.9884272 234 88 12
0.098939218 0.51552999 1.9988657 234 88 12
0.065601237 0.51015252 2.066298 234 88 12
0.055483792 0.5206362 2.06566 234 88 12
0.044978879 0.53086442 2.0661421 234 88 12
0.13642022 0.47074318 1.9770753 234 88 12
0.12692909 0.4813379 1.9751704 234 88 12
0.11623278 0.49105823 1.976855 234 88 12
0.10456777 0.50011748 1.9813532 234 88 12
0.092159338 0.50870752 1.9879445 234 88 12
0.079802491 0.51739049 1.9942863 234 88 12
0.048503395 0.5136373 2.0547936 234 88 12
0.038112357 0.52393824 2.0549493 234 88 12
0.026726464 0.53360903 2.05791 234 88 12
0.12333057 0.45926544 1.9850173 234 88 12
0.11716285 0.47235885 1.9731684 234 88 12
0.10715108 0.48260474 1.9727679 234 88 12
0.096079089 0.49210531 1.9754564 234 88 12
0.085621171 0.50205153 1.9763318 234 88 12
0.079307884 0.51479816 1.9653252 234 88 12
0.069873996 0.5253846 1.9633534 234 88 12
0.059450634 0.53531182 1.9642022 234 88 12
0.019284649 0.52631319 2.048316 234 88 12
0.11233263 0.44932088 1.9864858 234 88 12
0.10475899 0.46145225 1.9787573 234 88 12
0.097666986 0.47385725 1.969748 234 88 12
0.087392561 0.48394945 1.970057 234 88 12
0.082158916 0.49751362 1.9559309 234 88 12
0.073538087 0.50866407 1.9516414 234 88 12
0.06382221 0.51905066 1.9505041 234 88 12
0.053481422 0.52902073 1.9511328 234 88 12
0.042669695 0.53869563 1.9530605 234 88 12
0.08991158 0.43088272 2.0212169 234 88 12
0.079731785 0.44132647 2.0207732 234 88 12
0.086339012 0.46378222 1.9719261 234 88 12
0.079504266 0.47634903 1.9622921 234 88 12
0.075339101 0.49067068 1.9452218 234 88 12
0.0668265 0.50189596 1.9406625 234 88 12
0.056937583 0.51216602 1.9400219 234 88 12
0.046669804 0.52218336 1.9404428 234 88 12
0.036087532 0.53200299 1.9417245 234 88 12
0.082670547 0.42369527 2.0111184 234 88 12
0.072692268 0.43428925 2.0100925 234 88 12
0.062197372 0.44450328 2.0105605 234 88 12
0.067559674 0.46588898 1.9659998 234 88 12
0.064533234 0.48107189 1.9457479 234 88 12
0.059442483 0.49467197 1.9315718 234 88 12
0.049822815 0.50512803 1.9301784 234 88 12
0.03955213 0.51514602 1.9305995 234 88 12
0.028683398 0.52478373 1.9326502 234 88 12
-0.0066754441 0.51900858 2.0011771 234 88 12
0.064314365 0.42627245 2.0032392 234 88 12
0.048319299 0.43255082 2.0192847 234 88 12
0.044654548 0.46517342 1.9714657 234 88 12
0.04549725 0.48298204 1.9406662 234 88 12
0.041444309 0.4972451 1.923806 234 88 12
0.031315401 0.50737399 1.923806 234 88 12
0.01811187 0.51552361 1.9321517 234 88 12
-0.01263747 0.51265901 1.9876595 234 88 12
-0.031293496 0.51777643 2.010016 234 88 12
0.027825104 0.45135242 1.988158 234 88 12
0.026258226 0.46765894 1.9640307 234 88 12
0.019354155 0.4801749 1.9548447 234 88 12
0.0092345262 0.49049479 1.9545169 234 88 12
-0.005544065 0.49780437 1.9667429 234 88 12
-0.020119449 0.50534999 1.9782498 234 88 12
-0.034678835 0.51300585 1.9895501 234 88 12
-0.053474858 0.5181728 2.0118594 234 88 12
0.0056936718 0.45139048 1.990489 234 88 12
0.0050183237 0.46826035 1.9642113 234 88 12
-0.0047645378 0.47889173 1.9628345 234 88 12
-0.016492136 0.48825216 1.9666755 234 88 12
-0.02818004 0.49767166 1.9703563 234 88 12
-0.042875178 0.50524724 1.9819088 234 88 12
-0.05630628 0.51369727 1.9899912 234 88 12
-0.015036407 0.4524734 1.9886589 234 88 12
-0.016648743 0.4686628 1.9652112 234 88 12
-0.026035439 0.47959802 1.9627204 234 88 12
-0.03926767 0.48806065 1.9703923 234 88 12
-0.051321372 0.49732807 1.9748743 234 88 12
-0.064729705 0.50580245 1.9828106 234 88 12
-0.039900765 0.46812299 1.9700388 234 88 12
-0.049277656 0.47912404 1.9674489 234 88 12
-0.060914472 0.48868421 1.9707603 234 88 12
-0.074826688 0.49687144 1.9798894 234 88 12
0.064411387 0.53503776 2.0692799 234 88 12
0.048474293 0.53456753 2.0682564 234 88 12
0.032566566 0.53388405 2.0682189 234 88 12
0.016670542 0.53306699 2.0687978 234 88 12
0.062145088 0.54274762 1.9647321 234 88 12
0.046496708 0.54281604 1.9613446 234 88 12
0.031084411 0.54080749 1.9673994 234 88 12
0.017237717 0.5198642 2.0594151 234 88 12
0.078181781 0.53096098 1.9535463 234 88 12
0.062531941 0.53102982 1.9502101 234 88 12
0.046982463 0.53045261 1.9497699 234 88 12
0.031450368 0.52973521 1.9499573 234 88 12
0.016032876 0.52764457 1.9562815 234 88 12
0.0019456802 0.50532234 2.052948 234 88 12
0.15944609 0.50850272 2.0016584 234 88 12
0.14362925 0.50809413 2.0004351 234 88 12
0.1277813 0.50788856 1.9983157 234 88 12
0.11185205 0.50821733 1.9938383 234 88 12
0.095097981 0.51373982 1.9664364 234 88 12
0.078683883 0.51833791 1.9431515 234 88 12
0.06308639 0.51807326 1.9413389 234 88 12
0.047546759 0.51742619 1.9412137 234 88 12
0.032010894 0.51675075 1.9412137 234 88 12
0.016522363 0.5155111 1.9436958 234 88 12
0.0014905396 0.50725728 1.9770126 234 88 12
-0.014044752 0.50401765 1.9882534 234 88 12
-0.029748943 0.50321519 1.9887778 234 88 12
-0.04544723 0.50190711 1.99152 234 88 12
-0.061167028 0.50103414 1.9923507 234 88 12
-0.076904647 0.49925068 1.9971694 234 88 12
0.17674179 0.49200732 2.010294 234 88 12
0.15999418 0.49538293 1.9925801 234 88 12
0.14417355 0.4950045 1.9912444 234 88 12
0.12830494 0.49492171 1.9886237 234 88 12
0.11219212 0.49630639 1.9796227 234 88 12
0.096131831 0.49777731 1.9702594 234 88 12
0.079300851 0.50494438 1.936164 234 88 12
0.06366726 0.50491744 1.9333463 234 88 12
0.048115987 0.50435752 1.9328445 234 88 12
0.032583084 0.50364995 1.9329838 234 88 12
0.017165698 0.5015443 1.9391793 234 88 12
0.0020767336 0.49388757 1.9693978 234 88 12
-0.013474386 0.49088666 1.9794327 234 88 12
-0.029177703 0.49009067 1.9799215 234 88 12
-0.044872902 0.48869759 1.9829891 234 88 12
-0.06059286 0.48789436 1.9835061 234 88 12
-0.076329224 0.48605144 1.9885076 234 88 12
0.16058904 0.48205853 1.9843961 234 88 12
0.14476825 0.48167759 1.9830912 234 88 12
0.12891331 0.48152295 1.9808182 234 88 12
0.11292753 0.48219895 1.9749898 234 88 12
0.096973442 0.48294619 1.9688643 234 88 12
0.080306321 0.48888513 1.9405366 234 88 12
0.06434907 0.49098483 1.9286612 234 88 12
0.048749957 0.49072275 1.9268922 234 88 12
0.033296183 0.48911959 1.930851 234 88 12
0.017986974 0.48541787 1.9437578 234 88 12
0.0027829634 0.47872636 1.9693941 234 88 12
-0.012895776 0.47759539 1.9713039 234 88 12
-0.028596425 0.47668394 1.9722767 234 88 12
-0.04429616 0.47536683 1.974974 234 88 12
-0.060015511 0.47398871 1.9779272 234 88 12
-0.075765967 0.47178882 1.984368 234 88 12
0.1620799 0.46471885 1.9931778 234 88 12
0.14545819 0.46788982 1.9768735 234 88 12
0.1296068 0.46767694 1.9748789 234 88 12
0.11375602 0.46754479 1.9725465 234 88 12
0.097794987 0.4682081 1.966863 234 88 12
0.081881002 0.46883798 1.9613281 234 88 12
0.066077001 0.46893418 1.958048 234 88 12
0.050460912 0.46758899 1.9608378 234 88 12
0.034800552 0.46648484 1.9626101 234 88 12
0.019102378 0.46568054 1.9631201 234 88 12
0.0034243809 0.4645175 1.9651359 234 88 12
-0.01227344 0.46345037 1.9667464 234 88 12
-0.027953448 0.46155134 1.9718437 234 88 12
-0.04366057 0.45913136 1.9791175 234 88 12
0.13112608 0.44946918 1.9870045 234 88 12
0.11529016 0.44881552 1.9868606 234 88 12
0.099475086 0.44803736 1.9872342 234 88 12
0.084753536 0.43961629 2.0193336 234 88 12
0.068804108 0.43892285 2.0193336 234 88 12
0.052859351 0.43818784 2.019506 234 88 12
0.037200704 0.43449605 2.0319273 234 88 12
0.10178862 0.42371288 2.0237544 234 88 12
0.085339367 0.42619231 2.0107687 234 88 12
0.069389746 0.42549765 2.0107734 234 88 12
0.053448699 0.42472598 2.0110929 234 88 12
0.080194034 0.54353732 1.9479852 234 88 12
0.062293105 0.54283988 1.9419827 234 88 12
0.044491719 0.54279894 1.9416304 234 88 12
0.026700696 0.54291415 1.9426217 234 88 12
0.13495468 0.53082168 1.9934134 234 88 12
0.11690322 0.53056079 1.9910917 234 88 12
0.098669879 0.52922934 1.9792442 234 88 12
0.080099836 0.52509892 1.9424906 234 88 12
0.062281843 0.52494699 1.9411383 234 88 12
0.044485178 0.52492511 1.9409437 234 88 12
0.026692219 0.52494699 1.9411383 234 88 12
0.008907754 0.52555752 1.9465709 234 88 12
-0.0089788269 0.52975082 1.9838843 234 88 12
-0.026958078 0.53017557 1.9876637 234 88 12
-0.044963762 0.53057241 1.9911952 234 88 12
0.17103466 0.51310402 1.9959579 234 88 12
0.15288883 0.5126273 1.9915671 234 88 12
0.1348308 0.51235706 1.989078 234 88 12
0.11670183 0.51169264 1.9829588 234 88 12
0.098162755 0.50866151 1.9550405 234 88 12
0.080100141 0.50730091 1.9425082 234 88 12
0.062281843 0.50715214 1.9411383 234 88 12
0.044485178 0.50713104 1.9409437 234 88 12
0.026692219 0.50715214 1.9411383 234 88 12
0.0089073796 0.50772065 1.9463744 234 88 12
-0.0089696655 0.51127094 1.9790745 234 88 12
-0.026921703 0.51151234 1.981298 234 88 12
-0.044914119 0.51202095 1.9859824 234 88 12
-0.062893689 0.51213431 1.9870267 234 88 12
-0.080983162 0.51289332 1.9940176 234 88 12
0.170928 0.49479157 1.9930105 234 88 12
0.15286286 0.49455631 1.9907646 234 88 12
0.13479714 0.49425617 1.9878998 234 88 12
0.11661426 0.49336803 1.9794221 234 88 12
0.098507419 0.49253708 1.9714904 234 88 12
0.080174886 0.48995766 1.9468684 234 88 12
0.062296581 0.48947313 1.9422436 234 88 12
0.044492889 0.48942178 1.9417534 234 88 12
0.026703488 0.48956394 1.9431105 234 88 12
0.0089170309 0.4904367 1.9514413 234 88 12
-0.008967801 0.49322906 1.9780955 234 88 12
-0.026920749 0.49354708 1.9811311 234 88 12
-0.044889707 0.49378681 1.9834194 234 88 12
-0.062882222 0.49407458 1.9861665 234 88 12
-0.080946855 0.49467525 1.9919 234 88 12
0.17098922 0.4769699 1.9947019 234 88 12
0.15287998 0.4766258 1.9912934 234 88 12
0.13481562 0.47634855 1.9885468 234 88 12
0.11674007 0.47594029 1.9845028 234 88 12
0.098630674 0.47522053 1.9773731 234 88 12
0.080493502 0.47401726 1.9654541 234 88 12
0.062468167 0.47297326 1.9551125 234 88 12
0.044606362 0.47282746 1.9536681 234 88 12
0.026784526 0.47319329 1.9572921 234 88 12
0.0089546191 0.47459483 1.9711752 234 88 12
-0.0089692269 0.47536904 1.9788442 234 88 12
-0.026921418 0.47561169 1.9812479 234 88 12
-0.044914119 0.47608966 1.9859824 234 88 12
-0.062891342 0.4761773 1.9868507 234 88 12
-0.080964893 0.47679323 1.9929519 234 88 12
0.15299964 0.45899892 1.9949889 234 88 12
0.13489763 0.45865199 1.9914174 234 88 12
0.11684467 0.45839062 1.9887271 234 88 12
0.098792359 0.45803729 1.9850898 234 88 12
0.080727465 0.45745564 1.9791021 234 88 12
0.062771901 0.45733812 1.9778924 234 88 12
0.044857983 0.45755142 1.9800882 234 88 12
0.026913149 0.45752355 1.9798012 234 88 12
0.0089720068 0.45757237 1.9803038 234 88 12
-0.0089762285 0.45778766 1.9825201 234 88 12
-0.02694582 0.45807895 1.9855185 234 88 12
-0.044932008 0.45830646 1.9878607 234 88 12
-0.062975712 0.45882306 1.9931784 234 88 12
0.13524111 0.4417876 2.0034385 234 88 12
0.11718177 0.44168514 2.0023408 234 88 12
0.09915942 0.44171014 2.0026088 234 88 12
0.081169039 0.44192031 2.0048604 234 88 12
0.063154705 0.44208291 2.0066028 234 88 12
0.045105264 0.44203156 2.0060525 234 88 12
0.027032251 0.44152674 2.0006437 234 88 12
0.0090091527 0.44144848 1.999805 234 88 12
-0.0090135913 0.44166595 2.0021353 234 88 12
-0.027057618 0.44194108 2.0050831 234 88 12
0.11820722 0.42736456 2.0437531 234 88 12
0.099555127 0.42537192 2.0214949 234 88 12
0.081448056 0.42533988 2.0211368 234 88 12
0.063350827 0.42535558 2.0213122 234 88 12
0.045265019 0.42549118 2.0228271 234 88 12
0.02731465 0.42792952 2.0500636 234 88 12
0.10013866 0.40965819 2.0493455 234 88 12
0.081781134 0.40890566 2.040566 234 88 12
0.063685492 0.40940675 2.046412 234 88 12
0.16472432 0.46586478 2.0242872 234 88 12
0.1674659 0.48158938 2.0176408 234 88 12
0.16864862 0.49793103 2.0161157 234 88 12
0.15379706 0.46527371 2.005585 234 88 12
0.15561748 0.48134813 2.0020075 234 88 12
0.15646572 0.4978078 2.0015845 234 88 12
0.15674727 0.5145123 2.0030031 234 88 12
0.11726497 0.44068572 2.0645044 234 88 12
0.13654824 0.45036167 2.0050762 234 88 12
0.14056787 0.46561638 1.9945015 234 88 12
0.1418719 0.48189771 1.9926232 234 88 12
0.14268517 0.49837095 1.9923174 234 88 12
0.14317636 0.51498151 1.9930453 234 88 12
0.10350983 0.42412406 2.0519688 234 88 12
0.10504911 0.44060349 2.0494082 234 88 12
0.12182921 0.4512718 1.9986287 234 88 12
0.12625331 0.46638972 1.9869057 234 88 12
0.12786306 0.48255482 1.9840832 234 88 12
0.12860706 0.49905902 1.9840009 234 88 12
0.12899102 0.51571727 1.98506 234 88 12
0.08199694 0.41023147 2.063725 234 88 12
0.092787713 0.42354888 2.0323281 234 88 12
0.093936995 0.44013163 2.0310111 234 88 12
0.10667246 0.45234126 1.9934871 234 88 12
0.11086996 0.46757555 1.982618 234 88 12
0.11296924 0.48356602 1.9783012 234 88 12
0.11380818 0.50004357 1.9779245 234 88 12
0.11347985 0.51701516 1.9812027 234 88 12
0.069492117 0.41028816 2.0494592 234 88 12
0.079115905 0.42402378 2.0220389 234 88 12
0.08001224 0.44069445 2.021518 234 88 12
0.091256537 0.45349917 1.9890521 234 88 12
0.095164262 0.46887523 1.9792123 234 88 12
0.097007506 0.48499441 1.975742 234 88 12
0.097727165 0.50154656 1.975742 234 88 12
0.097036861 0.51869369 1.9801036 234 88 12
0.051869605 0.41206312 2.0509005 234 88 12
0.064789109 0.42472759 2.0137744 234 88 12
0.065819226 0.44135413 2.0128522 234 88 12
0.075254999 0.454864 1.9862932 234 88 12
0.079542898 0.47013038 1.9754151 234 88 12
0.081621259 0.48618141 1.9712714 234 88 12
0.084221728 0.50198764 1.9655287 234 88 12
0.085022651 0.51850098 1.9652797 234 88 12
0.043181729 0.42792621 2.0274074 234 88 12
0.0509261 0.44226137 2.0062854 234 88 12
0.059665293 0.45606464 1.9821439 234 88 12
0.064995944 0.47096741 1.9682544 234 88 12
0.069755808 0.4859831 1.9560726 234 88 12
0.071223699 0.50222737 1.9538136 234 88 12
0.072117753 0.51869154 1.9532849 234 88 12
0.072400287 0.53541231 1.9546032 234 88 12
0.033068374 0.44420633 2.0084822 234 88 12
0.042892497 0.45768517 1.9814019 234 88 12
0.05060808 0.47174069 1.9605762 234 88 12
0.056190062 0.48645708 1.946089 234 88 12
0.057524472 0.5027532 1.9442544 234 88 12
0.05843918 0.51920724 1.94367 234 88 12
0.058834314 0.53587621 1.9446362 234 88 12
0.019013369 0.44480243 1.9992291 234 88 12
0.026502136 0.45915061 1.9793396 234 88 12
0.034838546 0.47302532 1.9569346 234 88 12
0.042011734 0.4871684 1.9379336 234 88 12
0.043611404 0.50336498 1.9353392 234 88 12
0.044349823 0.51989174 1.9352816 234 88 12
0.044830795 0.53652591 1.9359835 234 88 12
0.0032647739 0.44598457 1.9949024 234 88 12
0.010848204 0.46033844 1.9749722 234 88 12
0.018009029 0.47468957 1.9562519 234 88 12
0.02533914 0.4888272 1.9370202 234 88 12
0.028365554 0.50449938 1.9303045 234 88 12
0.029264746 0.52097696 1.9297812 234 88 12
0.029466126 0.53774023 1.9312917 234 88 12
-0.014115542 0.44771689 1.9951532 234 88 12
-0.0062278858 0.4620207 1.9745841 234 88 12
-0.0023967146 0.47764471 1.9656612 234 88 12
0.0024758887 0.4928045 1.953733 234 88 12
0.010791818 0.50652999 1.9318802 234 88 12
0.011725668 0.52303648 1.9312682 234 88 12
-0.031143881 0.44931117 1.9941888 234 88 12
-0.023275271 0.46367523 1.9739144 234 88 12
-0.020535296 0.47973827 1.9682006 234 88 12
-0.019371083 0.49634534 1.9669631 234 88 12
-0.020021355 0.51364219 1.9708878 234 88 12
-0.049712427 0.45140922 1.9973623 234 88 12
-0.041891493 0.46585971 1.9774593 234 88 12
-0.037512098 0.4813894 1.9672093 234 88 12
-0.036351897 0.4980318 1.9660012 234 88 12
-0.039104693 0.51616096 1.9757996 234 88 12
-0.059345677 0.46761698 1.9774898 234 88 12
-0.056550127 0.48375952 1.9717613 234 88 12
-0.055709541 0.50057572 1.9714619 234 88 12
-0.056684725 0.51807827 1.9762121 234 88 12
-0.078889728 0.47007298 1.9830525 234 88 12
-0.075878106 0.48620409 1.9768019 234 88 12
-0.075294867 0.50317168 1.9772198 234 88 12
