ply
format ascii 1.0
element vertex 2369
property float x
property float y
property float z
property uchar red
property uchar green
property uchar blue
end_header
-0.00038462834 0.00078757229 2.7203844 234 88 12
-0.040993452 0.045678418 2.1150982 234 88 12
-0.033966005 0.045678418 2.1150982 234 88 12
-0.022253588 0.045678418 2.1150982 234 88 12
-0.019854689 0.070393898 1.7823899 234 88 12
1.8315635e-05 0.00071430975 2.7203844 234 88 12
-0.050363384 0.043335933 2.1150982 234 88 12
-0.043335933 0.043335933 2.1150982 234 88 12
-0.033966005 0.043335933 2.1150982 234 88 12
-0.022253588 0.043335933 2.1150982 234 88 12
-0.010541174 0.043335933 2.1150982 234 88 12
-0.0090248585 0.06678395 1.7823899 234 88 12
-0.062075797 0.038650971 2.1150982 234 88 12
0.0018049717 0.059564065 1.7823899 234 88 12
0.0011712415 0.036308486 2.1150982 234 88 12
0.0054149153 0.055954121 1.7823899 234 88 12
-0.069103248 0.033966005 2.1150982 234 88 12
-0.066760764 0.033966005 2.1150982 234 88 12
-0.05504835 0.033966005 2.1150982 234 88 12
-0.043335933 0.033966005 2.1150982 234 88 12
-0.033966005 0.033966005 2.1150982 234 88 12
-0.022253588 0.033966005 2.1150982 234 88 12
-0.010541174 0.033966005 2.1150982 234 88 12
0.0011712415 0.033966005 2.1150982 234 88 12
0.009282385 0.050124876 1.7553496 234 88 12
0.012634802 0.048734237 1.7823899 234 88 12
-0.0056954552 0.0038482805 2.6491861 234 88 12
0.012099718 0.043213278 1.8225212 234 88 12
0.016244745 0.045124292 1.7823899 234 88 12
0.023464631 0.045124292 1.7823899 234 88 12
-0.080815665 0.026938554 2.1150982 234 88 12
0.012995338 0.042698968 1.7553496 234 88 12
0.017286496 0.036144495 1.9049627 234 88 12
0.016106274 0.037581306 1.7904674 234 88 12
0.020429496 0.033001494 1.9049627 234 88 12
0.026447028 0.037025839 1.8043541 234 88 12
0.041514348 0.037904404 1.7823899 234 88 12
-0.085500628 0.022253588 2.1150982 234 88 12
-0.078473181 0.022253588 2.1150982 234 88 12
-0.010541174 0.022253588 2.1150982 234 88 12
0.0011712415 0.022253588 2.1150982 234 88 12
0.016106274 0.034002133 1.7904674 234 88 12
0.018823544 0.027511332 1.9698185 234 88 12
0.024615403 0.027511332 1.9698185 234 88 12
0.031077459 0.028117701 1.9530635 234 88 12
0.048734237 0.034294464 1.7823899 234 88 12
-0.080829054 0.031955674 1.7431337 234 88 12
0.01349094 0.025482886 1.9430286 234 88 12
0.019252013 0.029753111 1.8111539 234 88 12
0.024654979 0.027942309 1.8670757 234 88 12
0.029075798 0.026015187 1.9265898 234 88 12
0.036996976 0.025157943 1.9530635 234 88 12
0.039480519 0.024858104 1.9623232 234 88 12
0.044153623 0.025883159 1.9306672 234 88 12
0.047198702 0.025883159 1.9306672 234 88 12
0.059564065 0.03068452 1.7823899 234 88 12
-0.092528075 0.017568622 2.1150982 234 88 12
-0.0065234541 0.019570362 2.0450373 234 88 12
-0.0012488195 0.018732293 2.0743697 234 88 12
0.0012488195 0.018732293 2.0743697 234 88 12
0.00046179368 0.0023089685 2.6491861 234 88 12
0.015626457 0.021308804 1.9841919 234 88 12
0.018692009 0.021567702 1.9751304 234 88 12
0.024453135 0.021576295 1.9748297 234 88 12
0.031439975 0.022457127 1.9440006 234 88 12
0.034434259 0.022457127 1.9440006 234 88 12
0.046556436 0.021162016 1.9893295 234 88 12
0.070393898 0.027074575 1.7823899 234 88 12
-0.031586032 0.016424738 2.0666933 234 88 12
-0.027952587 0.017303983 2.0311854 234 88 12
-0.021448482 0.016401779 2.0676205 234 88 12
-0.01419047 0.016770555 2.0527275 234 88 12
-0.0089257918 0.016576471 2.0605657 234 88 12
-0.0011929614 0.015508497 2.1036954 234 88 12
0.0011929614 0.015508497 2.1036954 234 88 12
0.0038250906 0.016575392 2.0606091 234 88 12
0.0086065419 0.015983578 2.0845094 234 88 12
0.013184544 0.015581734 2.1007376 234 88 12
0.016313942 0.016313942 2.0711677 234 88 12
0.023018176 0.017602134 2.0191445 234 88 12
0.029920105 0.020471651 1.9032602 234 88 12
0.034495331 0.021354252 1.8676168 234 88 12
0.035395708 0.020006269 1.9220545 234 88 12
0.039426804 0.018983277 1.9633677 234 88 12
0.045718033 0.018010134 2.0026677 234 88 12
0.058413759 0.019471252 1.943661 234 88 12
-0.036200475 0.013731214 2.0746465 234 88 12
-0.03370389 0.013731214 2.0746465 234 88 12
-0.030043874 0.013219304 2.0990787 234 88 12
-0.020578288 0.013315362 2.0944941 234 88 12
-0.013440797 0.013440797 2.0885074 234 88 12
-0.0086254487 0.013554276 2.0830913 234 88 12
0.0057796836 0.012715304 2.1231332 234 88 12
0.014639098 0.014639098 2.0313158 234 88 12
0.016942006 0.014335544 2.0458035 234 88 12
0.021818196 0.01600001 1.9663631 234 88 12
0.024646917 0.014269268 2.0489666 234 88 12
0.035205353 0.015490355 1.9906876 234 88 12
0.042063527 0.015955132 1.9685051 234 88 12
0.077613786 0.019854689 1.7823899 234 88 12
0.081223726 0.019854689 1.7823899 234 88 12
-0.09955553 0.010541174 2.1150982 234 88 12
-0.090185598 0.010541174 2.1150982 234 88 12
-0.036200475 0.01123463 2.0746465 234 88 12
-0.033115495 0.011038498 2.0860877 234 88 12
-0.028824614 0.011279196 2.0720468 234 88 12
-0.021321975 0.011288105 2.0715272 234 88 12
-0.01778673 0.010672037 2.1074646 234 88 12
-0.016341439 0.011313303 2.0700574 234 88 12
-0.01339779 0.010961828 2.09056 234 88 12
-0.010993684 0.010993684 2.0887017 234 88 12
-0.0058173216 0.010471178 2.1191812 234 88 12
-0.0011735188 0.010561669 2.1139026 234 88 12
0.0012344689 0.011110219 2.0819039 234 88 12
0.0012018153 0.0036054458 2.5196824 234 88 12
0.0059175785 0.010651642 2.1086543 234 88 12
0.0083577167 0.010745635 2.1031713 234 88 12
0.013133555 0.010745635 2.1031713 234 88 12
0.015134205 0.010477527 2.1188109 234 88 12
0.02136769 0.011312306 2.0701156 234 88 12
0.023358721 0.011064658 2.0845616 234 88 12
0.026202746 0.011229748 2.0749314 234 88 12
0.03008209 0.011771252 2.0433435 234 88 12
0.03702195 0.012340651 2.0101287 234 88 12
0.046641245 0.013541007 1.9401079 234 88 12
0.050343983 0.012945595 1.9748403 234 88 12
0.057765067 0.012680137 1.9903253 234 88 12
0.066398971 0.013897459 1.9193149 234 88 12
0.069934107 0.013986822 1.9141021 234 88 12
0.092053555 0.016244745 1.7823899 234 88 12
0.10288338 0.016244745 1.7823899 234 88 12
-0.039147273 0.0088397069 2.0670221 234 88 12
-0.035568494 0.0085854987 2.0860877 234 88 12
-0.022793507 0.0083976081 2.1001794 234 88 12
-0.020259188 0.0083420193 2.1043487 234 88 12
-0.0059722555 0.008361158 2.1029131 234 88 12
0.010982822 0.008542194 2.0893354 234 88 12
0.013433771 0.0085487636 2.0888426 234 88 12
0.022892237 0.0084339818 2.0974514 234 88 12
0.037875306 0.009142315 2.0443263 234 88 12
0.04965036 0.010531894 1.9401079 234 88 12
0.050783511 0.010156702 1.9682473 234 88 12
0.053220782 0.010068797 1.9748403 234 88 12
0.054947257 0.0098623279 1.9903253 234 88 12
0.057765067 0.0098623279 1.9903253 234 88 12
0.066398971 0.010809135 1.9193149 234 88 12
0.069934107 0.010878639 1.9141021 234 88 12
0.081569083 0.010773275 1.9220043 234 88 12
-0.011544841 0.00076965609 2.6491861 234 88 12
-0.027006844 0.0058710529 2.1135395 234 88 12
0.03506073 0.0064927279 2.0482635 234 88 12
0.036338639 0.0062652826 2.0721452 234 88 12
0.043126997 0.0069559673 1.9996234 234 88 12
0.045702331 0.0069245957 2.0029175 234 88 12
0.052084073 0.0074405819 1.9487389 234 88 12
0.058931202 0.0075552822 1.9366953 234 88 12
0.060062967 0.0069840658 1.9966731 234 88 12
0.088443615 0.0090248585 1.7823899 234 88 12
0.099273443 0.0090248585 1.7823899 234 88 12
0.10288338 0.0090248585 1.7823899 234 88 12
0.11732316 0.0090248585 1.7823899 234 88 12
-0.10424049 0.0035137245 2.1150982 234 88 12
-0.035068344 0.0036277596 2.0951421 234 88 12
0.018554427 0.0037108853 2.080595 234 88 12
0.031558063 0.0037869674 2.0672808 234 88 12
0.045100808 0.0041000736 2.0124872 234 88 12
0.047406994 0.0040634568 2.0188951 234 88 12
0.058456171 0.0040783375 2.0162909 234 88 12
0.089488044 0.0054788599 1.7711995 234 88 12
0.093140617 0.0054788599 1.7711995 234 88 12
0.098356292 0.0055673374 1.755716 234 88 12
0.128153 0.0054149153 1.7823899 234 88 12
-0.034445178 0.0011877648 2.1064234 234 88 12
-0.0061945403 0.001238908 2.0795732 234 88 12
0.0078539783 0.0011219969 2.1409516 234 88 12
0.035775717 0.0012336454 2.0823362 234 88 12
0.05942132 0.001697752 1.8386801 234 88 12
0.059668589 0.0014553315 1.965951 234 88 12
0.071291074 0.0015842462 1.8982707 234 88 12
0.059229497 0.0012087653 2.0953982 234 88 12
-0.10658298 -0.0011712415 2.1150982 234 88 12
-0.10189801 -0.0011712415 2.1150982 234 88 12
-0.012468429 -0.00015393122 2.6491861 234 88 12
-0.01123698 -0.00015393122 2.6491861 234 88 12
-0.044278987 -0.0013417875 2.0255616 234 88 12
-0.036303267 -0.0011710731 2.1151867 234 88 12
-0.033961121 -0.0011710731 2.1151867 234 88 12
-0.029076675 -0.0011630671 2.1193898 234 88 12
-0.027457595 -0.0011938085 2.1032505 234 88 12
-0.022422846 -0.0011801498 2.1104214 234 88 12
-0.020263383 -0.0011919637 2.104219 234 88 12
-0.010824724 -0.0012027471 2.0985577 234 88 12
-0.0059514148 -0.001190283 2.1051013 234 88 12
-0.003651151 -0.0012170504 2.0910485 234 88 12
-0.0012570056 -0.0012570056 2.0700719 234 88 12
0.0012036774 -0.0012036774 2.0980694 234 88 12
0.0036611794 -0.0012203932 2.0892935 234 88 12
0.011137469 -0.0012374965 2.0803144 234 88 12
0.013472274 -0.0012247522 2.0870051 234 88 12
0.02336994 -0.0012299968 2.0842516 234 88 12
0.028666493 -0.0012463692 2.0756562 234 88 12
0.036188293 -0.0012478721 2.074867 234 88 12
0.039019372 -0.0012586894 2.0691881 234 88 12
0.042245474 -0.0012801659 2.0579128 234 88 12
0.048019711 -0.0013719917 2.0097044 234 88 12
0.059300538 -0.0015205266 1.9317235 234 88 12
0.059668589 -0.0014553315 1.965951 234 88 12
0.071291074 -0.0015842462 1.8982707 234 88 12
0.08871343 -0.0018104782 1.7794989 234 88 12
0.061647028 -0.0012087653 2.0953982 234 88 12
0.086397961 -0.0016301501 1.8741711 234 88 12
0.099273443 -0.0018049717 1.7823899 234 88 12
0.10800973 -0.0018949076 1.7351735 234 88 12
0.11010327 -0.0018049717 1.7823899 234 88 12
0.11732316 -0.0018049717 1.7823899 234 88 12
0.128153 -0.0018049717 1.7823899 234 88 12
0.0014103039 -1.8315635e-05 2.7203844 234 88 12
0.0059496728 -0.0035698037 2.1052845 234 88 12
0.021005396 -0.0037068347 2.0813038 234 88 12
0.039425474 -0.0035841339 2.1027765 234 88 12
0.014021178 -0.0012018153 2.5196824 234 88 12
0.071507387 -0.0052322475 1.8143567 234 88 12
0.080883086 -0.0056430059 1.742474 234 88 12
0.05922246 -0.0039481642 2.0390713 234 88 12
0.084377542 -0.0053858007 1.7874849 234 88 12
0.13898282 -0.0054149153 1.7823899 234 88 12
-0.0017399853 -9.1578171e-05 2.7203844 234 88 12
-0.050501395 -0.0072144847 1.9724791 234 88 12
-0.039840817 -0.0060364879 2.0961688 234 88 12
-0.017532961 -0.0058443206 2.1163464 234 88 12
0.035355244 -0.0060957316 2.0899482 234 88 12
0.047265258 -0.0063871969 2.0593443 234 88 12
0.055723581 -0.0071440488 1.9798748 234 88 12
0.058581199 -0.0071440488 1.9798748 234 88 12
0.057294365 -0.0066621355 2.0304759 234 88 12
0.058534078 -0.0062270295 2.0761619 234 88 12
0.089565411 -0.0087809227 1.8080031 234 88 12
0.093077779 -0.0087809227 1.8080031 234 88 12
-0.038507733 -0.0081683071 2.117377 234 88 12
-0.030794214 -0.0079836855 2.1312237 234 88 12
-0.023217564 -0.0085538393 2.0884621 234 88 12
-0.015774185 -0.0084937923 2.0929656 234 88 12
-0.0039412351 -0.0091962153 2.0402839 234 88 12
-0.0012484065 -0.0087388456 2.0745866 234 88 12
0.02143719 -0.0088270782 2.0679691 234 88 12
0.046283446 -0.0087563274 2.0732753 234 88 12
0.0060033179 -0.0010775186 2.6491861 234 88 12
0.089565411 -0.012293292 1.8080031 234 88 12
0.093077779 -0.012293292 1.8080031 234 88 12
0.10219581 -0.013006738 1.7544945 234 88 12
0.10591201 -0.013006738 1.7544945 234 88 12
0.10649333 -0.012634802 1.7823899 234 88 12
0.11732316 -0.012634802 1.7823899 234 88 12
0.128153 -0.012634802 1.7823899 234 88 12
0.13898282 -0.012634802 1.7823899 234 88 12
-0.05005556 -0.012871429 1.9791666 234 88 12
0.02641369 -0.011320153 2.0696578 234 88 12
0.032326713 -0.010775571 2.1014249 234 88 12
0.054152526 -0.012496737 2.0010238 234 88 12
0.072654851 -0.015948627 1.7996634 234 88 12
0.055958521 -0.011712248 2.0467856 234 88 12
0.058561243 -0.011712248 2.0467856 234 88 12
0.063323282 -0.011630807 2.0515363 234 88 12
0.064876668 -0.011448824 2.0621519 234 88 12
0.14981265 -0.016244745 1.7823899 234 88 12
-0.11361042 -0.012883657 2.1150982 234 88 12
-0.03968307 -0.01322769 2.0986784 234 88 12
-0.036583554 -0.012981261 2.1104398 234 88 12
-0.033360831 -0.012654109 2.1260538 234 88 12
-0.031609997 -0.012878148 2.1153612 234 88 12
-0.027717939 -0.013256405 2.0973079 234 88 12
-0.025499729 -0.013357001 2.0925066 234 88 12
-0.020599069 -0.013328809 2.0938523 234 88 12
-0.01871077 -0.013721231 2.0751231 234 88 12
-0.013495754 -0.013495754 2.0858843 234 88 12
-0.010841106 -0.01325024 2.0976021 234 88 12
-0.008729131 -0.013717206 2.0753152 234 88 12
-0.0063705575 -0.014015227 2.0610914 234 88 12
0.0011945964 -0.01314056 2.1028368 234 88 12
0.0037595241 -0.013784922 2.0720832 234 88 12
0.0088588689 -0.01392108 2.0655849 234 88 12
0.013956669 -0.013956669 2.0638862 234 88 12
0.018114127 -0.013283693 2.0960054 234 88 12
0.021333294 -0.013803896 2.0711777 234 88 12
0.023438267 -0.013569524 2.0823636 234 88 12
0.02641985 -0.013838969 2.0695038 234 88 12
0.032326713 -0.013170142 2.1014249 234 88 12
0.035335727 -0.013403207 2.0903015 234 88 12
0.042264856 -0.01328324 2.0960271 234 88 12
0.043313328 -0.012876935 2.1154189 234 88 12
0.056929577 -0.015273789 2.0010238 234 88 12
0.052514203 -0.012290558 2.1434052 234 88 12
0.046903294 -0.01052931 2.2274647 234 88 12
0.099273443 -0.019854689 1.7823899 234 88 12
-0.063456781 -0.022295626 1.8295997 234 88 12
-0.055171128 -0.020492133 1.902433 234 88 12
-0.012418758 -0.005207866 2.5196824 234 88 12
-0.036454301 -0.016341584 2.0700514 234 88 12
-0.030940942 -0.014897491 2.1283705 234 88 12
-0.011105701 -0.016041568 2.0821674 234 88 12
0.013450258 -0.01589576 2.0880558 234 88 12
0.021832764 -0.016695643 2.0557528 234 88 12
0.031028291 -0.014939548 2.126672 234 88 12
0.041400399 -0.016309248 2.0713573 234 88 12
0.052983504 -0.019679587 1.9352474 234 88 12
0.05665765 -0.018885883 1.9673009 234 88 12
0.0763174 -0.024198201 1.7527649 234 88 12
0.063682884 -0.018397277 1.987033 234 88 12
0.046903294 -0.012443731 2.2274647 234 88 12
0.095663503 -0.023464631 1.7823899 234 88 12
0.10288338 -0.023464631 1.7823899 234 88 12
0.11732316 -0.023464631 1.7823899 234 88 12
0.128153 -0.023464631 1.7823899 234 88 12
0.13898282 -0.023464631 1.7823899 234 88 12
0.14981265 -0.023464631 1.7823899 234 88 12
-0.063456781 -0.025725722 1.8295997 234 88 12
-0.055171128 -0.02364477 1.902433 234 88 12
-0.05844368 -0.02656531 1.8002142 234 88 12
-0.026472073 -0.018908624 2.0681982 234 88 12
-0.016371399 -0.018890075 2.0688474 234 88 12
-0.014082077 -0.019202832 2.0579009 234 88 12
-0.0065360484 -0.019608146 2.043715 234 88 12
0.0012863809 -0.019295715 2.0546501 234 88 12
0.025064813 -0.01978801 2.0374196 234 88 12
0.031225529 -0.020364475 2.0172434 234 88 12
0.034459587 -0.020675752 2.0063486 234 88 12
0.034719475 -0.019288598 2.054899 234 88 12
0.039811689 -0.017062154 2.1328247 234 88 12
0.062284116 -0.018318858 2.08884 234 88 12
-0.11595291 -0.019911105 2.1150982 234 88 12
-0.052401707 -0.02873642 1.8425517 234 88 12
-0.048174992 -0.028240513 1.8578665 234 88 12
-0.037009727 -0.023302421 2.0103664 234 88 12
-0.016919158 -0.022125054 2.0467262 234 88 12
-0.0066209584 -0.022511259 2.0347993 234 88 12
0.0039045303 -0.022125673 2.0467072 234 88 12
0.012023889 -0.022711789 2.0286064 234 88 12
0.01958509 -0.022196434 2.0445218 234 88 12
0.027980676 -0.022651022 2.030483 234 88 12
0.034459587 -0.023432519 2.0063486 234 88 12
0.046332724 -0.023868373 1.9928885 234 88 12
-0.044852581 -0.031562928 1.8578665 234 88 12
-0.034518007 -0.028514875 1.942089 234 88 12
-0.027395237 -0.024786167 2.045119 234 88 12
-0.024554946 -0.024554946 2.0515082 234 88 12
-0.022177096 -0.024786167 2.045119 234 88 12
-0.018898908 -0.023938617 2.0685382 234 88 12
-0.017217157 -0.025163537 2.0346918 234 88 12
-0.010666247 -0.022517633 2.1078022 234 88 12
-0.0089570563 -0.02431201 2.0582209 234 88 12
-0.0066069108 -0.025106261 2.0362744 234 88 12
-0.0033816018 -0.021416811 2.1382196 234 88 12
0.0011272006 -0.021416811 2.1382196 234 88 12
0.0040744036 -0.025804555 2.0169795 234 88 12
0.0065489733 -0.0248861 2.0423577 234 88 12
0.0088772429 -0.024095375 2.0642068 234 88 12
0.011895663 -0.025113067 2.0360863 234 88 12
0.014528496 -0.025094675 2.0365944 234 88 12
0.023038749 -0.023038749 2.0934031 234 88 12
0.030821441 -0.027886065 1.959464 234 88 12
0.02781284 -0.022975825 2.0951416 234 88 12
0.037361663 -0.028394863 1.9454051 234 88 12
0.03853048 -0.025244107 2.0324655 234 88 12
0.043524679 -0.026676416 1.9928885 234 88 12
0.022834489 -0.0076114968 2.5196824 234 88 12
0.10649333 -0.034294464 1.7823899 234 88 12
0.11732316 -0.034294464 1.7823899 234 88 12
0.128153 -0.034294464 1.7823899 234 88 12
0.13898282 -0.034294464 1.7823899 234 88 12
0.14981265 -0.034294464 1.7823899 234 88 12
-0.11595291 -0.024596071 2.1150982 234 88 12
-0.11361042 -0.024596071 2.1150982 234 88 12
-0.010816338 -0.0084127067 2.5196824 234 88 12
-0.042929232 -0.036060557 1.8284861 234 88 12
-0.029222345 -0.029222345 1.9994414 234 88 12
-0.024986586 -0.030865781 1.9583554 234 88 12
-0.022046987 -0.030865781 1.9583554 234 88 12
-0.019772414 -0.031940054 1.9314986 234 88 12
-0.012083209 -0.028194156 2.025146 234 88 12
-0.0093980515 -0.028194156 2.025146 234 88 12
-0.0072297771 -0.030365065 1.9708734 234 88 12
-0.0012008697 -0.025218263 2.0995433 234 88 12
0.0012893256 -0.027075838 2.0531039 234 88 12
0.012786105 -0.029834246 1.9841439 234 88 12
0.023254862 -0.028726595 2.0118351 234 88 12
0.009213917 -0.0084127067 2.5196824 234 88 12
-0.015572138 -0.032559924 1.9867843 234 88 12
0.012392207 -0.031668972 2.0071213 234 88 12
0.022941692 -0.031038759 2.0215065 234 88 12
-0.015572138 -0.035391223 1.9867843 234 88 12
0.012392207 -0.034422796 2.0071213 234 88 12
0.12454305 -0.048734237 1.7823899 234 88 12
0.128153 -0.048734237 1.7823899 234 88 12
0.13898282 -0.048734237 1.7823899 234 88 12
0.14981265 -0.048734237 1.7823899 234 88 12
-0.10189801 -0.033966005 2.1150982 234 88 12
-0.017226018 -0.011617548 2.5196824 234 88 12
-0.010816338 -0.011617548 2.5196824 234 88 12
0.00040060509 -0.011617548 2.5196824 234 88 12
0.011617548 -0.011617548 2.5196824 234 88 12
0.022834489 -0.011617548 2.5196824 234 88 12
-0.11361042 -0.036308486 2.1150982 234 88 12
-0.10189801 -0.036308486 2.1150982 234 88 12
0.12454305 -0.059564065 1.7823899 234 88 12
0.128153 -0.059564065 1.7823899 234 88 12
0.13898282 -0.059564065 1.7823899 234 88 12
0.14981265 -0.059564065 1.7823899 234 88 12
-0.090185598 -0.043335933 2.1150982 234 88 12
-0.10892546 -0.045678418 2.1150982 234 88 12
-0.10189801 -0.045678418 2.1150982 234 88 12
-0.090185598 -0.045678418 2.1150982 234 88 12
0.11732316 -0.070393898 1.7823899 234 88 12
0.128153 -0.070393898 1.7823899 234 88 12
0.13898282 -0.070393898 1.7823899 234 88 12
-0.078473181 -0.048020899 2.1150982 234 88 12
0.11010327 -0.074003838 1.7823899 234 88 12
-0.066760764 -0.050363384 2.1150982 234 88 12
-0.05504835 -0.052705865 2.1150982 234 88 12
0.092053555 -0.081223726 1.7823899 234 88 12
0.10288338 -0.081223726 1.7823899 234 88 12
0.11732316 -0.081223726 1.7823899 234 88 12
-0.043335933 -0.05504835 2.1150982 234 88 12
0.081223726 -0.084833667 1.7823899 234 88 12
-0.085500628 -0.057390831 2.1150982 234 88 12
-0.078473181 -0.057390831 2.1150982 234 88 12
-0.066760764 -0.057390831 2.1150982 234 88 12
-0.05504835 -0.057390831 2.1150982 234 88 12
-0.043335933 -0.057390831 2.1150982 234 88 12
-0.033966005 -0.057390831 2.1150982 234 88 12
-0.022253588 -0.057390831 2.1150982 234 88 12
0.059564065 -0.088443615 1.7823899 234 88 12
0.070393898 -0.088443615 1.7823899 234 88 12
-0.0059540025 -0.0046716016 2.68191 234 88 12
-0.055954121 -0.092053555 1.7823899 234 88 12
-0.045124292 -0.092053555 1.7823899 234 88 12
-0.03068452 -0.092053555 1.7823899 234 88 12
-0.019854689 -0.092053555 1.7823899 234 88 12
-0.0090248585 -0.092053555 1.7823899 234 88 12
0.0018049717 -0.092053555 1.7823899 234 88 12
0.012634802 -0.092053555 1.7823899 234 88 12
0.023464631 -0.092053555 1.7823899 234 88 12
0.034294464 -0.092053555 1.7823899 234 88 12
0.048734237 -0.092053555 1.7823899 234 88 12
0.059564065 -0.092053555 1.7823899 234 88 12
0.070393898 -0.092053555 1.7823899 234 88 12
0.081223726 -0.092053555 1.7823899 234 88 12
0.092053555 -0.092053555 1.7823899 234 88 12
-1.1617507 0.030637452 1.3714663 234 88 12
-1.1622211 0.019817844 1.3714663 234 88 12
-1.1626915 0.0089982357 1.3714663 234 88 12
-1.1643108 0.041588821 1.3695091 234 88 12
-1.1661924 -0.0016896119 1.3695091 234 88 12
-1.1670276 0.048933655 1.3675519 234 88 12
-1.1719398 0.0057869814 1.3655947 234 88 12
-1.1722534 -0.0014260908 1.3655947 234 88 12
-1.1727238 -0.0122457 1.3655947 234 88 12
-1.172775 0.056410249 1.3636376 234 88 12
-1.1734022 0.041984104 1.3636376 234 88 12
-1.1738727 0.031164495 1.3636376 234 88 12
-1.1743431 0.020344887 1.3636376 234 88 12
-1.1748135 0.0095252786 1.3636376 234 88 12
-1.1752839 -0.0012943303 1.3636376 234 88 12
-1.1757543 -0.012113939 1.3636376 234 88 12
-1.1756487 0.060148545 1.3616805 234 88 12
-1.4756656 0.063774385 2.2844784 234 88 12
-1.184689 -0.0081121214 1.3577662 234 88 12
-1.1848458 -0.011718657 1.3577662 234 88 12
-1.1842698 0.071363434 1.355809 234 88 12
-1.1844265 0.067756899 1.355809 234 88 12
-1.1850538 0.053330753 1.355809 234 88 12
-1.1855242 0.042511147 1.355809 234 88 12
-1.1885035 -0.026013041 1.355809 234 88 12
-1.1871434 0.075101733 1.3538518 234 88 12
-1.1874571 0.067888662 1.3538518 234 88 12
-1.1880842 0.053462517 1.3538518 234 88 12
-1.1885546 0.042642906 1.3538518 234 88 12
-1.1912204 -0.018668208 1.3538518 234 88 12
-1.191534 -0.025881281 1.3538518 234 88 12
-1.1947213 -0.029356057 1.3518947 234 88 12
-1.1959213 0.082710087 1.3479804 234 88 12
-1.1960781 0.079103552 1.3479804 234 88 12
-1.1967053 0.064677402 1.3479804 234 88 12
-1.4174032 0.049997706 2.0835686 234 88 12
-1.2041264 -0.036173847 1.3460232 234 88 12
-1.2070001 -0.032435551 1.3440661 234 88 12
-1.2071569 -0.036042087 1.3440661 234 88 12
-1.2048559 0.086711906 1.342109 234 88 12
-1.2051696 0.079498835 1.342109 234 88 12
-1.2100306 -0.032303791 1.342109 234 88 12
-1.2101874 -0.035910327 1.342109 234 88 12
-1.2077297 0.090450197 1.3401518 234 88 12
-1.2082001 0.079630591 1.3401518 234 88 12
-1.4199544 0.053316496 2.081831 234 88 12
-1.2136339 0.09432026 1.3362374 234 88 12
-1.4209751 0.045341201 2.0813966 234 88 12
-1.2194357 -0.039121579 1.3362374 234 88 12
-1.2227798 -0.046202894 1.3342804 234 88 12
-1.219538 0.098190315 1.3323232 234 88 12
-1.2198516 0.090977244 1.3323232 234 88 12
-1.4222159 0.047801048 2.0805278 234 88 12
-1.4223202 0.045399688 2.0805278 234 88 12
-1.2225685 0.098322079 1.330366 234 88 12
-1.2230389 0.087502465 1.330366 234 88 12
-1.2286839 -0.042332835 1.330366 234 88 12
-1.2288407 -0.045939371 1.330366 234 88 12
-1.2317145 -0.042201076 1.3284088 234 88 12
-1.2287863 0.094979063 1.3264517 234 88 12
-1.2290999 0.087765992 1.3264517 234 88 12
-1.2345337 0.10245565 1.3225374 234 88 12
-1.2409627 -0.045412328 1.3225374 234 88 12
-1.2411195 -0.049018867 1.3225374 234 88 12
-1.2404379 0.10632571 1.3186231 234 88 12
-1.2407515 0.099112637 1.3186231 234 88 12
-1.2471805 -0.048755344 1.3186231 234 88 12
-1.2532415 -0.048491824 1.3147088 234 88 12
-1.4285591 0.056898478 2.076184 234 88 12
-1.252403 0.11045929 1.3107945 234 88 12
-1.3142581 0.053156234 1.5710248 234 88 12
-1.327668 0.049171776 1.62905 234 88 12
-1.3295016 0.044508629 1.6361992 234 88 12
-1.2526819 0.1039154 1.2952926 234 88 12
-1.2879918 0.057559278 1.4435421 234 88 12
-1.3221258 0.056202356 1.5952669 234 88 12
-1.3271431 0.04900115 1.6162131 234 88 12
-1.3270547 0.043997988 1.6148511 234 88 12
-1.258464 0.11072281 1.3068802 234 88 12
-1.3106761 0.069488913 1.5349567 234 88 12
-1.3111585 0.066710487 1.5365927 234 88 12
-1.2731005 0.063863993 1.3638737 234 88 12
-1.2939456 0.060851067 1.457576 234 88 12
-1.3328835 0.059160523 1.6333826 234 88 12
-1.3198849 0.056068491 1.573974 234 88 12
-1.3330933 0.054333366 1.6333826 234 88 12
-1.2655202 -0.051571317 1.3068802 234 88 12
-1.2613376 0.11446111 1.3049231 234 88 12
-1.3044633 0.078580871 1.4959799 234 88 12
-1.3214549 0.074568622 1.5732808 234 88 12
-1.3127353 0.066823006 1.531653 234 88 12
-1.3108796 0.064040288 1.5225673 234 88 12
-1.3256066 0.061494205 1.589751 234 88 12
-1.3216232 0.058782697 1.5708997 234 88 12
-1.3309699 0.056625135 1.6134311 234 88 12
-1.3259095 0.053788289 1.5896034 234 88 12
-1.3376565 0.049832758 1.6428082 234 88 12
-1.2643682 0.11459287 1.3029659 234 88 12
-1.2645249 0.11098633 1.3029659 234 88 12
-1.2986977 0.088468634 1.4580314 234 88 12
-1.3039984 0.073025651 1.4796569 234 88 12
-1.3104991 0.06985148 1.5093807 234 88 12
-1.3319186 0.066653363 1.6087935 234 88 12
-1.3337075 0.064161338 1.6166439 234 88 12
-1.3317043 0.056645527 1.6057591 234 88 12
-1.3361453 0.052000508 1.6255621 234 88 12
-1.2736588 0.095849082 1.3268389 234 88 12
-1.2722205 0.092554145 1.3193289 234 88 12
-1.3076575 0.08478608 1.4860057 234 88 12
-1.3047353 0.079189003 1.4709734 234 88 12
-1.3026018 0.076354869 1.4602571 234 88 12
-1.315189 0.072687119 1.5192727 234 88 12
-1.3377801 0.069105603 1.6258129 234 88 12
-1.3064096 0.067212619 1.4764515 234 88 12
-1.2747686 -0.054782573 1.3010087 234 88 12
-1.2766104 0.095977418 1.3249326 234 88 12
-1.3107361 0.087724604 1.4879657 234 88 12
-1.3079652 0.082198448 1.4734273 234 88 12
-1.3091642 0.079130396 1.4785721 234 88 12
-1.3332852 0.074491449 1.5940598 234 88 12
-1.3247949 0.0670375 1.5515021 234 88 12
-1.3350402 0.064342454 1.6004028 234 88 12
-1.4335805 0.049899098 2.0731435 234 88 12
-1.4337894 0.045096375 2.0731435 234 88 12
-1.3169913 0.090125598 1.5055294 234 88 12
-1.2994983 0.083481558 1.4182194 234 88 12
-1.3049109 0.079841219 1.4440184 234 88 12
-1.3279731 0.072456285 1.5556785 234 88 12
-1.3477798 0.066747002 1.6517112 234 88 12
-1.4338703 0.058733337 2.0727091 234 88 12
-1.2809863 -0.058125589 1.2970945 234 88 12
-1.2763333 0.11872645 1.2951373 234 88 12
-1.3135509 0.091180287 1.4750345 234 88 12
-1.3136796 0.088223323 1.4750345 234 88 12
-1.3120148 0.082519576 1.4654818 234 88 12
-1.3165836 0.079122022 1.4875622 234 88 12
-1.3219328 0.075825982 1.5135622 234 88 12
-1.3326173 0.072420314 1.566185 234 88 12
-1.3357737 0.069677807 1.5813539 234 88 12
-1.3441957 0.066940986 1.6228226 234 88 12
-1.3427356 0.064520299 1.6150045 234 88 12
-1.3442216 0.054788932 1.6203132 234 88 12
-1.341192 0.049577307 1.6040502 234 88 12
-1.28386 -0.05438729 1.2951373 234 88 12
-1.2840168 -0.057993826 1.2951373 234 88 12
-1.2710155 0.10250602 1.247147 234 88 12
-1.2711796 0.098733597 1.247147 234 88 12
-1.3029966 0.087100588 1.4062496 234 88 12
-1.298718 0.081128798 1.3831888 234 88 12
-1.3225856 0.076058201 1.5033472 234 88 12
-1.3436711 0.069548473 1.6090511 234 88 12
-1.3310075 0.067344308 1.5442164 234 88 12
-1.3407091 0.062091466 1.5923529 234 88 12
-1.344303 0.054738294 1.6089902 234 88 12
-1.2868905 -0.05425553 1.2931801 234 88 12
-1.2870473 -0.057862066 1.2931801 234 88 12
-1.2743495 0.098871417 1.2450999 234 88 12
-1.3131956 0.089262225 1.4438114 234 88 12
-1.3237294 0.079119228 1.4960011 234 88 12
-1.3412075 0.074908972 1.5854328 234 88 12
-1.3428323 0.069755815 1.5926763 234 88 12
-1.3448826 0.064705543 1.6021429 234 88 12
-1.3438518 0.049592923 1.5934151 234 88 12
-1.3449939 0.044688966 1.5982184 234 88 12
-1.3382543 0.038401671 1.5619546 234 88 12
-1.3134166 0.095887505 1.4312823 234 88 12
-1.3136859 0.089694023 1.4312823 234 88 12
-1.3350047 0.075662449 1.5402822 234 88 12
-1.3371834 0.072832569 1.5511017 234 88 12
-1.3489567 0.045056161 1.6067138 234 88 12
-1.3256718 0.032796383 1.4813488 234 88 12
-1.3398103 0.033033002 1.5558203 234 88 12
-1.3417488 0.030828871 1.5655198 234 88 12
-1.2882985 0.12286002 1.2873087 234 88 12
-1.3269624 0.088130005 1.4864147 234 88 12
-1.3266518 0.079519324 1.4827441 234 88 12
-1.3433881 0.072684087 1.5708408 234 88 12
-1.3490676 0.069854423 1.6006175 234 88 12
-1.3431498 0.043964591 1.5628721 234 88 12
-1.3539319 0.043152861 1.6204637 234 88 12
-1.3467135 0.039356329 1.5808965 234 88 12
-1.3262472 0.029529309 1.4689282 234 88 12
-1.325949 0.026467787 1.4666167 234 88 12
-1.3440597 0.028309533 1.5641007 234 88 12
-1.4375118 0.052475922 2.0705371 234 88 12
-1.437825 0.045271836 2.0705371 234 88 12
-1.291329 0.12299179 1.2853515 234 88 12
-1.2846632 0.10658295 1.2450787 234 88 12
-1.2967439 0.096970588 1.3087295 234 88 12
-1.3206582 0.086593024 1.4367815 234 88 12
-1.3241578 0.083117843 1.4550561 234 88 12
-1.3576814 0.074352622 1.6359342 234 88 12
-1.354589 0.067378387 1.6174022 234 88 12
-1.3543617 0.064960979 1.6155882 234 88 12
-1.3550425 0.047973569 1.6152728 234 88 12
-1.3496077 0.044706173 1.5848371 234 88 12
-1.3420095 0.032705817 1.5405214 234 88 12
-1.3449175 0.030712251 1.5559191 234 88 12
-1.2990125 -0.053728487 1.2853515 234 88 12
-1.2991693 -0.057335023 1.2853515 234 88 12
-1.2942027 0.12673008 1.2833943 234 88 12
-1.3188851 0.099813409 1.4141102 234 88 12
-1.3013231 0.089864157 1.3140694 234 88 12
-1.344594 0.078361511 1.5518543 234 88 12
-1.3555282 0.069931239 1.6106055 234 88 12
-1.3577188 0.052995063 1.6186904 234 88 12
-1.3541585 0.042664297 1.5963995 234 88 12
-1.337184 0.028276002 1.4985517 234 88 12
-1.3345485 0.024679141 1.4830302 234 88 12
-1.3417826 0.023883054 1.5230557 234 88 12
-1.3419021 0.021131828 1.5230557 234 88 12
-1.2972332 0.12686184 1.2814372 234 88 12
-1.3215235 0.099928126 1.4124062 234 88 12
-1.2924111 0.099146567 1.2472944 234 88 12
-1.3001791 0.094146341 1.290068 234 88 12
-1.3003346 0.090570547 1.290068 234 88 12
-1.3372421 0.082312271 1.4971114 234 88 12
-1.3305606 0.080205038 1.4587423 234 88 12
-1.3566502 0.057748336 1.601007 234 88 12
-1.3574526 0.047925703 1.603133 234 88 12
-1.3252925 0.027856743 1.4160057 234 88 12
-1.3071486 0.016468298 1.3104169 234 88 12
-1.3440944 0.023983566 1.5215626 234 88 12
-1.344214 0.021232342 1.5215626 234 88 12
-1.324162 0.10004284 1.4107022 234 88 12
-1.3088712 0.10016154 1.3224432 234 88 12
-1.3328017 0.086263701 1.4571278 234 88 12
-1.3357587 0.082920156 1.4733623 234 88 12
-1.3573258 0.075174302 1.5959446 234 88 12
-1.3615526 0.070015311 1.6190553 234 88 12
-1.3553166 0.042307075 1.576093 234 88 12
-1.3199948 0.022732709 1.3672328 234 88 12
-1.3579099 0.030123457 1.5880079 234 88 12
-1.3116231 0.10374152 1.3205689 234 88 12
-1.3011265 0.098940872 1.2575486 234 88 12
-1.3657916 0.084001549 1.634396 234 88 12
-1.365995 0.079321004 1.634396 234 88 12
-1.3665038 0.067619644 1.634396 234 88 12
-1.3581036 0.052712854 1.5811301 234 88 12
-1.3558646 0.04211203 1.5652361 234 88 12
-1.3593675 0.040210586 1.5853701 234 88 12
-1.3556881 0.031602971 1.5615076 234 88 12
-1.3784063 0.031192528 1.6951404 234 88 12
-1.3112912 -0.056807984 1.2775229 234 88 12
-1.3674529 0.091107868 1.633126 234 88 12
-1.3838202 0.05712482 1.7225205 234 88 12
-1.3681512 0.051201109 1.626902 234 88 12
-1.3299917 0.020937487 1.3899034 234 88 12
-1.3935647 0.037614658 1.7759314 234 88 12
-1.3469189 0.020115683 1.4913156 234 88 12
-1.3709456 0.056089286 1.631856 234 88 12
-1.3608387 0.050173666 1.5683769 234 88 12
-1.368188 0.043781701 1.611689 234 88 12
-1.3497808 0.03183309 1.4957647 234 88 12
-1.3543061 0.030217836 1.5230516 234 88 12
-1.3548142 0.022095274 1.5240005 234 88 12
-1.349431 0.017377049 1.489773 234 88 12
-1.3173523 -0.05654446 1.2736086 234 88 12
-1.312072 0.13473372 1.2716514 234 88 12
-1.3691897 0.043676909 1.6039234 234 88 12
-1.359404 0.036477122 1.5407997 234 88 12
-1.3602307 0.034001965 1.5452949 234 88 12
-1.3657646 0.032868698 1.579577 234 88 12
-1.373665 0.030313263 1.6282638 234 88 12
-1.3480734 0.019069161 1.4652463 234 88 12
-1.3203827 -0.056412701 1.2716514 234 88 12
-1.3667411 0.040347666 1.5729766 234 88 12
-1.3637357 0.034432411 1.5521584 234 88 12
-1.3612039 0.031072475 1.5350704 234 88 12
-1.3252941 0.017383957 1.3021337 234 88 12
-1.3734001 0.029662943 1.6125029 234 88 12
-1.465224 0.065092087 2.2064404 234 88 12
-1.3767432 0.058686055 1.628046 234 88 12
-1.376845 0.056345783 1.628046 234 88 12
-1.3773538 0.044644423 1.628046 234 88 12
-1.3713026 0.033427238 1.5854365 234 88 12
-1.3543392 0.022701278 1.4718567 234 88 12
-1.3210067 0.13873553 1.26578 234 88 12
-1.3767765 0.10323672 1.6267761 234 88 12
-1.3768781 0.10089645 1.6267761 234 88 12
-1.3773869 0.089195088 1.6267761 234 88 12
-1.3789132 0.05409101 1.6267761 234 88 12
-1.3793203 0.044729922 1.6267761 234 88 12
-1.3703369 0.035216704 1.5642186 234 88 12
-1.350769 0.026905686 1.4315454 234 88 12
-1.3486905 0.023181746 1.4166307 234 88 12
-1.3567669 0.022806833 1.4702889 234 88 12
-1.3360338 0.012318322 1.3292277 234 88 12
-1.3361809 0.0089343404 1.3292277 234 88 12
-1.4450148 0.050396241 2.0657589 234 88 12
-1.4452584 0.044793062 2.0657589 234 88 12
-1.3657199 0.030705374 1.5154215 234 88 12
-1.3693748 0.029117528 1.5398176 234 88 12
-1.3677378 0.025870681 1.5277202 234 88 12
-1.3581325 0.019582687 1.4605088 234 88 12
-1.3325047 -0.055885658 1.2638228 234 88 12
-1.3740309 0.030012412 1.5555832 234 88 12
-1.3355352 -0.055753898 1.2618656 234 88 12
-1.3857284 0.033285059 1.6229661 234 88 12
-1.3606467 0.021901315 1.4409926 234 88 12
-1.3665758 0.021157712 1.4829476 234 88 12
-1.3360023 0.14300087 1.2559942 234 88 12
-1.3893561 0.04047687 1.6204261 234 88 12
-1.3896613 0.033456054 1.6204261 234 88 12
-1.3615099 0.01429353 1.404399 234 88 12
-1.3446267 -0.055358615 1.2559942 234 88 12
-1.38827 0.11077053 1.6191561 234 88 12
-1.3886771 0.10140944 1.6191561 234 88 12
-1.3891858 0.089708082 1.6191561 234 88 12
-1.3642415 0.011315566 1.4027218 234 88 12
-1.4677105 0.061502352 2.2049382 234 88 12
-1.367025 0.0071479818 1.3784996 234 88 12
-1.3537182 -0.054963335 1.2501228 234 88 12
-1.3940678 0.1133673 1.6153461 234 88 12
-1.3945765 0.10166594 1.6153461 234 88 12
-1.397629 0.031457778 1.6153461 234 88 12
-1.398036 0.022096692 1.6153461 234 88 12
-1.3567487 -0.054831576 1.2481656 234 88 12
0.019018725 -1.3272429 1.6610658 234 88 12
0.023699269 -1.3270394 1.6610658 234 88 12
0.035400629 -1.3265306 1.6610658 234 88 12
0.047101989 -1.3260218 1.6610658 234 88 12
0.0097431354 -1.3296163 1.6597958 234 88 12
0.058888849 -1.3274795 1.6597958 234 88 12
0.0028078188 -1.331888 1.6585258 234 88 12
0.012168907 -1.331481 1.6585258 234 88 12
0.068335436 -1.329039 1.6585258 234 88 12
-0.0017872262 -1.334058 1.6572559 234 88 12
0.023955766 -1.3329388 1.6572559 234 88 12
0.035657126 -1.33243 1.6572559 234 88 12
0.047358487 -1.3319212 1.6572559 234 88 12
0.059059847 -1.3314124 1.6572559 234 88 12
0.068506435 -1.3329719 1.6559858 234 88 12
0.059627388 -1.460024 2.2099454 234 88 12
0.08029329 -1.3344296 1.6547159 234 88 12
-0.015572362 -1.3405679 1.6534458 234 88 12
-0.020167407 -1.3427379 1.6521759 234 88 12
0.092165649 -1.3378539 1.6521759 234 88 12
-0.010720819 -1.3442974 1.6509058 234 88 12
0.00098054123 -1.3437886 1.6509058 234 88 12
0.056585379 -1.4609331 2.2094448 234 88 12
-0.027017225 -1.3469762 1.6496359 234 88 12
-0.02233668 -1.3467727 1.6496359 234 88 12
-0.01063532 -1.3462639 1.6496359 234 88 12
0.068284348 -1.4606833 2.2092779 234 88 12
0.097017191 -1.3415834 1.6496359 234 88 12
0.10412351 -1.3432446 1.6483659 234 88 12
0.064439312 -1.4766226 2.2838428 234 88 12
-0.036121815 -1.3532826 1.6458259 234 88 12
0.11833614 -1.346567 1.6458259 234 88 12
-0.038376588 -1.3553509 1.6445559 234 88 12
-0.033696044 -1.3551472 1.6445559 234 88 12
-0.021994684 -1.3546386 1.6445559 234 88 12
0.13020849 -1.3499912 1.643286 234 88 12
-0.04739568 -1.3636237 1.6394759 234 88 12
-0.049650453 -1.3656919 1.638206 234 88 12
-0.044969909 -1.3654884 1.638206 234 88 12
-0.040289365 -1.3652849 1.638206 234 88 12
-0.033268549 -1.3649797 1.638206 234 88 12
0.11269922 -1.3039213 1.2775229 234 88 12
0.11630575 -1.3037646 1.2775229 234 88 12
0.12712537 -1.3032942 1.2775229 234 88 12
0.13794497 -1.3028238 1.2775229 234 88 12
0.14876458 -1.3023534 1.2775229 234 88 12
-0.058669545 -1.3739649 1.633126 234 88 12
0.050591256 -1.4648188 2.207108 234 88 12
0.057050269 -1.464538 2.207108 234 88 12
0.091191761 -1.3078927 1.2755657 234 88 12
0.15971595 -1.3049134 1.2755657 234 88 12
0.080503911 -1.3113936 1.2736086 234 88 12
0.091323525 -1.3109232 1.2736086 234 88 12
0.10574967 -1.3102959 1.2736086 234 88 12
0.11656927 -1.3098255 1.2736086 234 88 12
0.12738888 -1.3093551 1.2736086 234 88 12
0.13820849 -1.3088847 1.2736086 234 88 12
0.14902811 -1.3084143 1.2736086 234 88 12
0.15984771 -1.3079439 1.2736086 234 88 12
0.17066732 -1.3074734 1.2736086 234 88 12
-0.060838819 -1.3779995 1.630586 234 88 12
-0.056158274 -1.3777961 1.630586 234 88 12
0.069816068 -1.3148946 1.2716514 234 88 12
0.14915986 -1.3114448 1.2716514 234 88 12
0.15997948 -1.3109744 1.2716514 234 88 12
0.17079908 -1.310504 1.2716514 234 88 12
0.18522522 -1.3098768 1.2716514 234 88 12
0.018697878 -1.3762412 1.6275907 234 88 12
0.059128217 -1.3183955 1.2696943 234 88 12
0.19617659 -1.3124368 1.2696943 234 88 12
0.0072075319 -1.3646677 1.534771 234 88 12
0.048440371 -1.3218963 1.2677372 234 88 12
0.059259977 -1.3214259 1.2677372 234 88 12
0.070079587 -1.3209555 1.2677372 234 88 12
0.080899194 -1.3204851 1.2677372 234 88 12
0.0917188 -1.3200147 1.2677372 234 88 12
-0.065262869 -1.3841025 1.6267761 234 88 12
-0.055901777 -1.3836955 1.6267761 234 88 12
0.04135906 -1.3252405 1.26578 234 88 12
0.10267017 -1.3225747 1.26578 234 88 12
0.11709632 -1.3219476 1.26578 234 88 12
0.12791592 -1.3214771 1.26578 234 88 12
0.13873553 -1.3210067 1.26578 234 88 12
0.14955515 -1.3205363 1.26578 234 88 12
0.16037475 -1.3200659 1.26578 234 88 12
0.20725971 -1.3180274 1.26578 234 88 12
0.058924139 -1.4712387 2.2416801 234 88 12
-0.030639905 -1.3314071 1.2638228 234 88 12
0.17132612 -1.3226259 1.2638228 234 88 12
0.18214573 -1.3221555 1.2638228 234 88 12
0.19657187 -1.3215283 1.2638228 234 88 12
0.20739149 -1.3210579 1.2638228 234 88 12
-0.067432143 -1.3881372 1.6242361 234 88 12
0.0342944 -1.3795438 1.5952252 234 88 12
0.023589898 -1.3320855 1.2618656 234 88 12
0.034409508 -1.3316151 1.2618656 234 88 12
0.050883818 -1.3749141 1.5680383 234 88 12
0.053951774 -1.3798814 1.6035188 234 88 12
0.056465417 -1.3810365 1.6123145 234 88 12
0.059112336 -1.3856918 1.6454968 234 88 12
0.061059434 -1.3754005 1.5744996 234 88 12
0.066007011 -1.3798233 1.6067609 234 88 12
0.068408348 -1.3797189 1.6067609 234 88 12
0.070934013 -1.377725 1.5936548 234 88 12
0.077687941 -1.3297334 1.2618656 234 88 12
0.081294477 -1.3295766 1.2618656 234 88 12
0.092114083 -1.3291062 1.2618656 234 88 12
0.1029337 -1.3286357 1.2618656 234 88 12
0.11735984 -1.3280085 1.2618656 234 88 12
0.12817945 -1.3275381 1.2618656 234 88 12
0.13899906 -1.3270677 1.2618656 234 88 12
0.14981866 -1.3265972 1.2618656 234 88 12
0.16063827 -1.3261268 1.2618656 234 88 12
0.17145789 -1.3256564 1.2618656 234 88 12
0.18227749 -1.325186 1.2618656 234 88 12
0.19670363 -1.3245587 1.2618656 234 88 12
0.20752324 -1.3240883 1.2618656 234 88 12
0.21834286 -1.3236179 1.2618656 234 88 12
-0.069686912 -1.3902055 1.6229661 234 88 12
-0.026769849 -1.3373113 1.2599086 234 88 12
0.024648976 -1.382098 1.5944642 234 88 12
0.028187376 -1.3848476 1.6151228 234 88 12
0.01290205 -1.3355864 1.2599086 234 88 12
0.038677473 -1.379091 1.5774107 234 88 12
0.040551934 -1.3762877 1.5580449 234 88 12
0.045360569 -1.3870312 1.635971 234 88 12
0.046469118 -1.3803877 1.589046 234 88 12
0.053725194 -1.3789374 1.5809715 234 88 12
0.05868344 -1.3784487 1.5790293 234 88 12
0.063661397 -1.376763 1.5685753 234 88 12
0.066141948 -1.3793064 1.5874386 234 88 12
0.068657219 -1.3780215 1.5790743 234 88 12
0.073778436 -1.3763539 1.5687941 234 88 12
0.075938918 -1.3793874 1.5910454 234 88 12
0.081301458 -1.3764124 1.571538 234 88 12
0.083571054 -1.3776138 1.5807873 234 88 12
0.085784569 -1.3787787 1.5897599 234 88 12
0.099458918 -1.331823 1.2599086 234 88 12
0.10306545 -1.3316662 1.2599086 234 88 12
0.11388506 -1.3311958 1.2599086 234 88 12
0.058395118 -1.471724 2.2413824 234 88 12
0.031929933 -1.4099871 1.7835366 234 88 12
0.0058207382 -1.3389305 1.2579514 234 88 12
0.025502153 -1.3797686 1.5614986 234 88 12
0.031229977 -1.3883424 1.6257323 234 88 12
0.041707374 -1.3829454 1.5897571 234 88 12
0.045849275 -1.378602 1.5594465 234 88 12
0.056708124 -1.38588 1.6158698 234 88 12
0.076428629 -1.3781323 1.5657068 234 88 12
0.093235172 -1.3805472 1.5886072 234 88 12
0.095342599 -1.3815293 1.5964252 234 88 12
0.12844297 -1.3335991 1.2579514 234 88 12
0.13926257 -1.3331287 1.2579514 234 88 12
0.15008219 -1.3326583 1.2579514 234 88 12
0.1609018 -1.3321878 1.2579514 234 88 12
0.1717214 -1.3317174 1.2579514 234 88 12
0.18254101 -1.331247 1.2579514 234 88 12
-0.026506327 -1.3433722 1.2559942 234 88 12
-0.011702243 -1.3496667 1.3077055 234 88 12
-0.0024055042 -1.3599664 1.3874835 234 88 12
0.00074415613 -1.3598294 1.3874835 234 88 12
-0.001513935 -1.349038 1.3063207 234 88 12
-0.0012605735 -1.3422745 1.2559942 234 88 12
0.020362128 -1.3818384 1.5578777 234 88 12
0.0092387227 -1.3496629 1.3144631 234 88 12
0.044596326 -1.429433 1.9204607 234 88 12
0.029413551 -1.3852003 1.5858667 234 88 12
0.050326604 -1.3751135 1.5174648 234 88 12
0.058608327 -1.3780837 1.5422865 234 88 12
0.06641537 -1.3790696 1.5521642 234 88 12
0.069087856 -1.3769419 1.5371723 234 88 12
0.071533859 -1.3793451 1.5558759 234 88 12
0.081606448 -1.3799576 1.5637053 234 88 12
0.084927067 -1.3759476 1.5348945 234 88 12
0.087761521 -1.3854167 1.6063876 234 88 12
0.10281736 -1.3830014 1.5932651 234 88 12
0.19349238 -1.3338071 1.2559942 234 88 12
0.20791852 -1.3331798 1.2559942 234 88 12
0.21873814 -1.3327094 1.2559942 234 88 12
0.048254289 -1.4677687 2.205272 234 88 12
0.013706888 -1.3860143 1.5697211 234 88 12
0.0022233317 -1.3521397 1.3073233 234 88 12
0.02299515 -1.389474 1.5992148 234 88 12
0.03255254 -1.3813113 1.5400752 234 88 12
0.035859648 -1.3835161 1.5580028 234 88 12
0.037923962 -1.3816081 1.5441236 234 88 12
0.045771245 -1.3815093 1.5459739 234 88 12
0.060177151 -1.4486328 2.0631526 234 88 12
0.07987266 -1.3775876 1.5273547 234 88 12
0.081899069 -1.3809803 1.5539261 234 88 12
0.093784139 -1.3748325 1.5109409 234 88 12
0.094099604 -1.3824624 1.569289 234 88 12
0.094741844 -1.3879296 1.6112369 234 88 12
0.11037863 -1.3595412 1.3997192 234 88 12
0.10922279 -1.3697298 1.4771124 234 88 12
0.10372913 -1.3886223 1.6195081 234 88 12
0.104885 -1.3910743 1.6386093 234 88 12
0.11183995 -1.4043773 1.7424687 234 88 12
0.22968951 -1.3352695 1.254037 234 88 12
-0.019694723 -1.3536557 1.2873362 234 88 12
-0.015423197 -1.3489628 1.2520798 234 88 12
0.013798651 -1.3881248 1.5683581 234 88 12
0.020673744 -1.3916035 1.5979072 234 88 12
0.023604926 -1.3926027 1.6067202 234 88 12
0.020187691 -1.379458 1.5027356 234 88 12
0.019002004 -1.3699127 1.4276659 234 88 12
0.053802762 -1.4495839 2.0627182 234 88 12
0.06901139 -1.4489226 2.0627182 234 88 12
0.10414145 -1.3843805 1.5697938 234 88 12
0.1184262 -1.3646283 1.4201438 234 88 12
0.13829476 -1.3381155 1.2195079 234 88 12
0.11938005 -1.3833838 1.56718 234 88 12
0.12903717 -1.3714458 1.4770811 234 88 12
0.11764256 -1.3939202 1.649009 234 88 12
0.11382244 -1.4059013 1.7414309 234 88 12
-0.073939964 -1.4002414 1.6166161 234 88 12
-0.066919148 -1.3999361 1.6166161 234 88 12
-0.062176406 -1.3540318 1.2501228 234 88 12
-0.036231052 -1.3490278 1.2190378 234 88 12
-0.032517117 -1.3488662 1.2190378 234 88 12
-0.019567421 -1.3565836 1.2854453 234 88 12
-0.021763675 -1.3477911 1.2141645 234 88 12
-0.010255817 -1.3542225 1.269757 234 88 12
-0.0034837872 -1.3597432 1.3163939 234 88 12
0.0010050818 -1.3616517 1.3332638 234 88 12
0.014810004 -1.3819976 1.5012493 234 88 12
0.12028889 -1.3748739 1.4808977 234 88 12
0.13950615 -1.3516634 1.3014534 234 88 12
0.11389231 -1.4075085 1.7403929 234 88 12
0.16503537 -1.344153 1.2501228 234 88 12
0.17224844 -1.3438394 1.2501228 234 88 12
0.18306805 -1.343369 1.2501228 234 88 12
0.19388767 -1.3428985 1.2501228 234 88 12
0.20470726 -1.3424281 1.2501228 234 88 12
0.20831381 -1.3422713 1.2501228 234 88 12
0.21913342 -1.3418009 1.2501228 234 88 12
0.22995302 -1.3413305 1.2501228 234 88 12
-0.073854461 -1.4022079 1.6153461 234 88 12
-0.066833645 -1.4019026 1.6153461 234 88 12
-0.03609537 -1.3521484 1.2170223 234 88 12
-0.03238143 -1.351987 1.2170223 234 88 12
-0.013665233 -1.3573499 1.2678367 234 88 12
0.080276228 -1.4497806 2.0618496 234 88 12
0.1265803 -1.3843881 1.5404389 234 88 12
0.12522386 -1.3900298 1.5863672 234 88 12
0.20483904 -1.3454586 1.2481656 234 88 12
0.21926518 -1.3448313 1.2481656 234 88 12
0.23008478 -1.3443609 1.2481656 234 88 12
1.2298564 0.14727683 2.3418241 234 88 12
1.2297442 0.14819358 2.3418241 234 88 12
1.0722147 0.11353855 1.8231276 234 88 12
1.0719301 0.11586368 1.8231276 234 88 12
1.0728525 0.12541644 1.8220428 234 88 12
1.0801047 0.10034449 1.8198735 234 88 12
1.07982 0.10266962 1.8198735 234 88 12
1.0783972 0.11429527 1.8198735 234 88 12
1.0769742 0.12592092 1.8198735 234 88 12
1.08245 0.098271601 1.8187886 234 88 12
1.0818809 0.10292186 1.8187886 234 88 12
1.077612 0.13779882 1.8187886 234 88 12
1.0825187 0.11479975 1.817704 234 88 12
1.0810958 0.1264254 1.817704 234 88 12
1.0817336 0.13830331 1.8166192 234 88 12
1.0823715 0.1501812 1.8155345 234 88 12
1.0936079 0.092557415 1.813365 234 88 12
1.0959533 0.090484522 1.8122802 234 88 12
1.0942458 0.10443531 1.8122802 234 88 12
1.0928228 0.11606096 1.8122802 234 88 12
1.0937452 0.12561372 1.8111955 234 88 12
1.0923222 0.13723938 1.8111955 234 88 12
1.0929601 0.14911728 1.8101107 234 88 12
1.0915371 0.16074292 1.8101107 234 88 12
1.242975 0.14798646 2.3718967 234 88 12
1.1024203 0.088916115 1.809026 234 88 12
1.1021358 0.091241248 1.809026 234 88 12
1.1007128 0.1028669 1.809026 234 88 12
1.0992898 0.11449256 1.809026 234 88 12
1.0978669 0.12611821 1.809026 234 88 12
1.0964439 0.13774386 1.809026 234 88 12
1.0950209 0.14936951 1.809026 234 88 12
1.0935979 0.16099517 1.809026 234 88 12
1.1044811 0.089168362 1.8079412 234 88 12
1.1041965 0.091493487 1.8079412 234 88 12
1.1048344 0.10337138 1.8068565 234 88 12
1.1054722 0.11524928 1.8057717 234 88 12
1.1040492 0.12687494 1.8057717 234 88 12
1.1046871 0.13875283 1.804687 234 88 12
1.1007028 0.17130466 1.804687 234 88 12
1.205542 0.13746758 2.2089419 234 88 12
1.1056095 0.14830559 1.8036022 234 88 12
1.1041865 0.15993124 1.8036022 234 88 12
1.1153544 0.085779302 1.8025175 234 88 12
1.2065389 0.13516803 2.208571 234 88 12
1.2063442 0.13675858 2.208571 234 88 12
1.1048244 0.17180914 1.8025175 234 88 12
1.1165614 0.093006939 1.8014327 234 88 12
1.1152071 0.12116075 1.800348 234 88 12
1.1166987 0.12606326 1.7992632 234 88 12
1.1152757 0.13768891 1.7992632 234 88 12
1.2097478 0.13233203 2.2070868 234 88 12
1.2091637 0.13710368 2.2070868 234 88 12
1.1159136 0.1495668 1.7981786 234 88 12
1.1259431 0.084715381 1.7970937 234 88 12
1.1205357 0.12889287 1.7970937 234 88 12
1.1193974 0.13819338 1.7970937 234 88 12
1.1179744 0.14981905 1.7970937 234 88 12
1.1165514 0.16144469 1.7970937 234 88 12
1.1154131 0.17074522 1.7970937 234 88 12
1.1148438 0.17539547 1.7970937 234 88 12
1.1282884 0.082642496 1.7960091 234 88 12
1.0990682 0.12759034 1.6866194 234 88 12
1.0634751 0.15189916 1.536188 234 88 12
1.0475895 0.15887107 1.4668603 234 88 12
1.0362132 0.16660097 1.4187565 234 88 12
1.0945601 0.13253 1.6554903 234 88 12
1.0938638 0.13821816 1.6554903 234 88 12
1.056283 0.13817069 1.4791123 234 88 12
1.0663944 0.15225649 1.5346514 234 88 12
1.0503032 0.16280873 1.465203 234 88 12
1.0390639 0.17073745 1.4170157 234 88 12
1.0410835 0.17422996 1.4284985 234 88 12
1.1181117 0.18287535 1.7949243 234 88 12
1.0963035 0.12982574 1.6486897 234 88 12
1.1040384 0.13375379 1.6879256 234 88 12
1.084547 0.13430235 1.5951607 234 88 12
1.0618821 0.13524653 1.4874709 234 88 12
1.0562918 0.13831237 1.4625652 234 88 12
1.0577576 0.14198031 1.471709 234 88 12
1.0608699 0.14911592 1.4907442 234 88 12
1.0576798 0.1525526 1.4775177 234 88 12
1.0568229 0.15955336 1.4775177 234 88 12
1.0474365 0.16348098 1.4349864 234 88 12
1.1131755 0.13756603 1.721457 234 88 12
1.0912642 0.14412136 1.6188339 234 88 12
1.0604481 0.14588435 1.470066 234 88 12
1.0641768 0.14949565 1.4903427 234 88 12
1.0674337 0.15632923 1.5102427 234 88 12
1.0511268 0.16021946 1.4332795 234 88 12
1.0437416 0.18282053 1.4108243 234 88 12
1.2121274 0.1479599 2.2048607 234 88 12
1.1128845 0.13755481 1.7072697 234 88 12
1.1178966 0.14069484 1.7339836 234 88 12
1.1082515 0.14252917 1.6873482 234 88 12
1.1217809 0.14602835 1.7564439 234 88 12
1.1179385 0.14834829 1.7388289 234 88 12
1.0759535 0.15332964 1.5340068 234 88 12
1.0751507 0.15988792 1.5340068 234 88 12
1.0770625 0.16625284 1.5473272 234 88 12
1.0491707 0.17193547 1.4126964 234 88 12
1.0802077 0.17229097 1.5665556 234 88 12
1.0475159 0.17948475 1.4090787 234 88 12
1.0470579 0.18322645 1.4090787 234 88 12
1.138877 0.081578568 1.7905853 234 88 12
1.1280358 0.14170946 1.7730324 234 88 12
1.1256211 0.14638749 1.7637447 234 88 12
1.1183094 0.14855301 1.7282152 234 88 12
1.0749733 0.15032849 1.5108092 234 88 12
1.0737851 0.1637398 1.5130947 234 88 12
1.1277779 0.17225866 1.7905853 234 88 12
1.1412225 0.079505682 1.7895006 234 88 12
1.1315387 0.14448264 1.7806107 234 88 12
1.1244452 0.14896749 1.7469922 234 88 12
1.0944071 0.15400817 1.5958602 234 88 12
1.1170377 0.15914504 1.7153398 234 88 12
1.0592303 0.1687835 1.424453 234 88 12
1.0587809 0.17245558 1.424453 234 88 12
1.0615188 0.17576207 1.4405963 234 88 12
1.1284157 0.18413655 1.7895006 234 88 12
1.2402053 0.14358096 2.3366916 234 88 12
1.2530121 0.15301716 2.4097812 234 88 12
1.128 0.14681095 1.7513735 234 88 12
1.1276988 0.14927253 1.7513735 234 88 12
1.1131022 0.15698528 1.6799033 234 88 12
1.096357 0.16041717 1.5944421 234 88 12
1.1429248 0.16054103 1.8383012 234 88 12
1.0993778 0.16619122 1.6139555 234 88 12
1.1305271 0.14956053 1.7536894 234 88 12
1.1065364 0.16040301 1.632745 234 88 12
1.1476895 0.077937275 1.7862463 234 88 12
1.2180853 0.1285094 2.2030056 234 88 12
1.1100166 0.15203466 1.6305944 234 88 12
1.1297973 0.15474512 1.7400409 234 88 12
1.1275481 0.15981475 1.7311778 234 88 12
1.0694166 0.16994135 1.4215871 234 88 12
1.0689682 0.17360508 1.4215871 234 88 12
1.1360211 0.17326763 1.7862463 234 88 12
1.1348827 0.18256815 1.7862463 234 88 12
1.1405064 0.15259251 1.7844013 234 88 12
1.1252184 0.15771699 1.7030222 234 88 12
1.0729445 0.170313 1.4214183 234 88 12
1.0724968 0.17397109 1.4214183 234 88 12
1.1383666 0.17119475 1.7851616 234 88 12
1.1456773 0.15512525 1.8024974 234 88 12
1.1320411 0.15784608 1.7271489 234 88 12
1.1039538 0.16191155 1.5708832 234 88 12
1.0809535 0.16672547 1.443948 234 88 12
1.0805166 0.1702949 1.443948 234 88 12
1.1390043 0.18307264 1.7840768 234 88 12
1.1541566 0.076368868 1.7829921 234 88 12
1.1381905 0.15552782 1.7467027 234 88 12
1.1290983 0.15831593 1.6961099 234 88 12
1.1282312 0.16099013 1.6929892 234 88 12
1.1175163 0.16446701 1.6335028 234 88 12
1.0914825 0.16990294 1.4868393 234 88 12
1.0842066 0.17413557 1.4477693 234 88 12
1.0753841 0.17886649 1.4001116 234 88 12
1.0749284 0.18258993 1.4001116 234 88 12
1.2177899 0.15430331 2.2015216 234 88 12
1.1378735 0.15834124 1.7326658 234 88 12
1.08606 0.17115092 1.4360492 234 88 12
1.0786843 0.17927043 1.3983746 234 88 12
1.0782286 0.18299387 1.3983746 234 88 12
1.1259068 0.15923405 1.6464083 234 88 12
1.1350874 0.16142513 1.7033852 234 88 12
1.0941908 0.16756132 1.4613026 234 88 12
1.0937638 0.1710494 1.4613026 234 88 12
1.0823795 0.18325147 1.4016595 234 88 12
1.2403058 0.15848094 2.3356938 234 88 12
1.1280568 0.16235371 1.6450952 234 88 12
1.1168842 0.16916619 1.5813882 234 88 12
1.0861169 0.17994827 1.399931 234 88 12
1.1470108 0.16145788 1.7465417 234 88 12
1.1092476 0.16747196 1.5132943 234 88 12
1.0936848 0.17254272 1.4191686 234 88 12
1.0949323 0.17945543 1.4323571 234 88 12
1.0889474 0.18405539 1.3982024 234 88 12
1.1504468 0.17503332 1.7786531 234 88 12
1.1493084 0.18433385 1.7786531 234 88 12
1.1062356 0.17179295 1.4767092 234 88 12
1.0945499 0.1840172 1.4110637 234 88 12
1.097787 0.18441342 1.4093597 234 88 12
1.1157767 0.087472305 1.4268091 234 88 12
1.1153381 0.091055505 1.4268091 234 88 12
1.1148995 0.094638713 1.4268091 234 88 12
1.1135838 0.10538831 1.4268091 234 88 12
1.1494696 0.16510218 1.7182633 234 88 12
1.1266735 0.17062202 1.5690063 234 88 12
1.1079773 0.17655735 1.4477565 234 88 12
1.1167597 0.10577704 1.4251374 234 88 12
1.1154439 0.11652665 1.4251374 234 88 12
1.1163244 0.1727645 1.4787879 234 88 12
1.1290188 0.17402507 1.567574 234 88 12
1.1058049 0.18134925 1.4133575 234 88 12
1.1053612 0.18497488 1.4133575 234 88 12
1.1584054 0.17836742 1.7743142 234 88 12
1.1578362 0.18301769 1.7743142 234 88 12
1.2418561 0.15929101 2.3348384 234 88 12
1.1234442 0.077500142 1.4234657 234 88 12
1.1091248 0.17460394 1.4062327 234 88 12
1.1270586 0.074305668 1.4217941 234 88 12
1.1261815 0.081472069 1.4217941 234 88 12
1.1248658 0.092221677 1.4217941 234 88 12
1.1235499 0.10297129 1.4217941 234 88 12
1.1217957 0.11730409 1.4217941 234 88 12
1.1114633 0.18228976 1.4045321 234 88 12
1.1628116 0.17654677 1.7721447 234 88 12
1.1619579 0.18352216 1.7721447 234 88 12
1.1293573 0.081860796 1.4201224 234 88 12
1.1280416 0.092610404 1.4201224 234 88 12
1.1267258 0.10336 1.4201224 234 88 12
1.1236558 0.12844242 1.4201224 234 88 12
1.1162786 0.17883262 1.4111183 234 88 12
1.1156969 0.18247701 1.4101079 234 88 12
1.2291451 0.12582716 2.1974404 234 88 12
1.1342875 0.067916706 1.4184507 234 88 12
1.1285859 0.11449834 1.4184507 234 88 12
1.1272702 0.12524794 1.4184507 234 88 12
1.118391 0.17943171 1.4012794 234 88 12
1.2299472 0.12511817 2.1970694 234 88 12
1.1379019 0.064722233 1.416779 234 88 12
1.1406392 0.068694152 1.4151074 234 88 12
1.1388849 0.08302696 1.4151074 234 88 12
1.1323062 0.136775 1.4151074 234 88 12
1.1230578 0.18059003 1.3837775 234 88 12
1.1229458 0.18420602 1.3864424 234 88 12
1.140745 0.094165295 1.4134357 234 88 12
1.1394293 0.1049149 1.4134357 234 88 12
1.1381135 0.1156645 1.4134357 234 88 12
1.1731157 0.17780797 1.766721 234 88 12
1.1725465 0.18245824 1.766721 234 88 12
1.1399736 0.12680283 1.411764 234 88 12
1.1386579 0.13755244 1.411764 234 88 12
1.1385376 0.17940907 1.4544481 234 88 12
1.1294787 0.18500565 1.3830037 234 88 12
1.232864 0.12466799 2.1955853 234 88 12
1.2327667 0.12546326 2.1955853 234 88 12
1.1514826 0.059110716 1.4100924 234 88 12
1.1501669 0.069860324 1.4100924 234 88 12
1.148851 0.080609933 1.4100924 234 88 12
1.1475353 0.091359533 1.4100924 234 88 12
1.145781 0.10569235 1.4100924 234 88 12
1.1444653 0.11644195 1.4100924 234 88 12
1.1431495 0.12719156 1.4100924 234 88 12
1.1418338 0.13794117 1.4100924 234 88 12
1.1411589 0.18321279 1.4528472 234 88 12
1.1520269 0.080998652 1.4084207 234 88 12
1.1507112 0.09174826 1.4084207 234 88 12
1.1493955 0.10249787 1.4084207 234 88 12
1.1795827 0.17623957 1.7634667 234 88 12
1.1787289 0.18321496 1.7634667 234 88 12
1.1582729 0.056304961 1.406749 234 88 12
1.150817 0.1172194 1.406749 234 88 12
1.1495012 0.12796901 1.406749 234 88 12
1.1614487 0.056693684 1.4050773 234 88 12
1.1610101 0.060276888 1.4050773 234 88 12
1.1513613 0.13910733 1.4050773 234 88 12
1.1413008 0.18697065 1.3645662 234 88 12
1.1837044 0.17674406 1.7612972 234 88 12
1.1628703 0.071415216 1.4034057 234 88 12
1.1615546 0.082164824 1.4034057 234 88 12
1.1634146 0.093303151 1.401734 234 88 12
1.1620989 0.10405276 1.401734 234 88 12
1.1607832 0.11480237 1.401734 234 88 12
1.1563973 0.15063439 1.401734 234 88 12
1.1626433 0.1259407 1.4000623 234 88 12
1.1613275 0.1366903 1.4000623 234 88 12
1.1745908 0.054665376 1.3983907 234 88 12
1.1741521 0.058248576 1.3983907 234 88 12
1.1728364 0.068998188 1.3983907 234 88 12
1.1715207 0.079747789 1.3983907 234 88 12
1.1697664 0.094080597 1.3983907 234 88 12
1.1684506 0.10483021 1.3983907 234 88 12
1.1671349 0.11557981 1.3983907 234 88 12
1.1658192 0.12632942 1.3983907 234 88 12
1.1645035 0.13707903 1.3983907 234 88 12
1.1627491 0.15141183 1.3983907 234 88 12
1.191184 0.15455653 1.7171143 234 88 12
1.1746966 0.080136515 1.396719 234 88 12
1.1729423 0.094469324 1.396719 234 88 12
1.1900892 0.15488978 1.6784153 234 88 12
1.1797057 0.15808909 1.5637292 234 88 12
1.1748023 0.10560765 1.3950473 234 88 12
1.2004349 0.12614843 1.7307851 234 88 12
1.1997942 0.12839918 1.7264282 234 88 12
1.2004006 0.13368657 1.7413808 234 88 12
1.1721709 0.12710686 1.3950473 234 88 12
1.1968172 0.1401754 1.7081107 234 88 12
1.1874616 0.1580749 1.6226506 234 88 12
1.1963538 0.17593238 1.7547888 234 88 12
1.2470678 0.1571375 2.3322723 234 88 12
1.184557 0.052248344 1.3933756 234 88 12
1.1836798 0.059414748 1.3933756 234 88 12
1.1912285 0.11420243 1.5703256 234 88 12
1.1852505 0.11397041 1.4957652 234 88 12
1.1996808 0.12759592 1.6955967 234 88 12
1.2001739 0.13306941 1.7100338 234 88 12
1.1961727 0.13977407 1.6705531 234 88 12
1.1962569 0.14510986 1.6797051 234 88 12
1.198999 0.1479996 1.7181354 234 88 12
1.1727152 0.1489948 1.3933756 234 88 12
1.1856601 0.16162091 1.5732495 234 88 12
1.2408123 0.12402646 2.191504 234 88 12
1.2406176 0.12561701 2.191504 234 88 12
1.1855398 0.070553079 1.391704 234 88 12
1.1842241 0.08130268 1.391704 234 88 12
1.1924728 0.10364728 1.5338103 234 88 12
1.2012959 0.11646597 1.6682643 234 88 12
1.2041426 0.1211145 1.7124562 234 88 12
1.2048324 0.12416326 1.7262094 234 88 12
1.2012272 0.13023047 1.6891733 234 88 12
1.1995605 0.14294104 1.6877384 234 88 12
1.2003324 0.1481822 1.7060249 234 88 12
1.1979142 0.15055712 1.6784998 234 88 12
1.1888841 0.15896651 1.5749842 234 88 12
1.1891031 0.16469635 1.5868921 234 88 12
1.1860843 0.092441015 1.3900323 234 88 12
1.2010136 0.10881166 1.6187483 234 88 12
1.2003312 0.11438615 1.6187483 234 88 12
1.2058277 0.1210501 1.7040081 234 88 12
1.206645 0.12682381 1.7245919 234 88 12
1.1932842 0.13540851 1.5583184 234 88 12
1.2032197 0.14093277 1.7016511 234 88 12
1.1975298 0.14518535 1.6318284 234 88 12
1.1967727 0.14788567 1.6260662 234 88 12
1.2024473 0.15095043 1.7077806 234 88 12
1.1969414 0.15341181 1.6374806 234 88 12
1.1946937 0.15899813 1.616357 234 88 12
1.1774514 0.17446232 1.409029 234 88 12
1.2025362 0.1766891 1.7515346 234 88 12
1.1876297 0.087202452 1.3555982 234 88 12
1.1983243 0.10122939 1.5309292 234 88 12
1.1932375 0.1002382 1.4573563 234 88 12
1.2008158 0.11320373 1.5868293 234 88 12
1.2080351 0.12132028 1.7028462 234 88 12
1.2076062 0.12904428 1.7101425 234 88 12
1.192922 0.12819941 1.5012456 234 88 12
1.2085255 0.13708998 1.73704 234 88 12
1.2001998 0.14828046 1.6387774 234 88 12
1.1932729 0.15371996 1.5503306 234 88 12
1.1952028 0.15949641 1.5875804 234 88 12
1.1930437 0.16265222 1.5625359 234 88 12
1.1800499 0.16807698 1.3883606 234 88 12
1.1796113 0.17166018 1.3883606 234 88 12
1.1972604 0.053803235 1.3866889 234 88 12
1.1968218 0.057386439 1.3866889 234 88 12
1.1950675 0.071719244 1.3866889 234 88 12
1.194629 0.075302452 1.3866889 234 88 12
1.1937517 0.082468852 1.3866889 234 88 12
1.1913589 0.083906487 1.3538735 234 88 12
1.1904047 0.091252908 1.3530581 234 88 12
1.1962008 0.10060092 1.4557965 234 88 12
1.2010289 0.1149777 1.5533148 234 88 12
1.2129407 0.12605508 1.7497147 234 88 12
1.2077771 0.13364412 1.687029 234 88 12
1.2054027 0.13818054 1.6601006 234 88 12
1.2068067 0.14125863 1.6864588 234 88 12
1.2037292 0.14324178 1.6444967 234 88 12
1.1969709 0.15105571 1.5586131 234 88 12
1.1986794 0.1540264 1.589287 234 88 12
1.199188 0.15685628 1.6019422 234 88 12
1.1944296 0.16613802 1.5483218 234 88 12
1.1823486 0.1756321 1.3866889 234 88 12
1.2069424 0.17486845 1.7493651 234 88 12
1.1988249 0.085175313 1.4189199 234 88 12
1.2171646 0.11543918 1.7615947 234 88 12
1.2085334 0.10982157 1.616733 234 88 12
1.2186192 0.12176596 1.7962428 234 88 12
1.2061079 0.11396386 1.5869099 234 88 12
1.2152849 0.12398327 1.7486306 234 88 12
1.2116615 0.12940288 1.7026167 234 88 12
1.1880435 0.13214111 1.3406849 234 88 12
1.2001356 0.13918354 1.542057 234 88 12
1.2061124 0.14353348 1.6432422 234 88 12
1.2072536 0.1490818 1.6715378 234 88 12
1.2028207 0.15150794 1.6072445 234 88 12
1.2020302 0.15991956 1.6109614 234 88 12
1.1891177 0.16824852 1.4260857 234 88 12
1.1886965 0.1716895 1.4260857 234 88 12
1.2005421 0.079663098 1.3833456 234 88 12
1.2243327 0.11894 1.8512833 234 88 12
1.2107644 0.1067322 1.6048226 234 88 12
1.209017 0.11139273 1.5855644 234 88 12
1.1976563 0.11267165 1.402236 234 88 12
1.209693 0.12428441 1.6224437 234 88 12
1.2085636 0.13825166 1.6319368 234 88 12
1.2058625 0.14033434 1.5919112 234 88 12
1.2039247 0.14286181 1.5652651 234 88 12
1.2073573 0.14915818 1.634043 234 88 12
1.2054186 0.16010395 1.6242415 234 88 12
1.2021321 0.16340356 1.577075 234 88 12
1.1942155 0.1681305 1.457008 234 88 12
1.1938082 0.171459 1.457008 234 88 12
1.1877911 0.1767233 1.3690971 234 88 12
1.2067879 0.054969404 1.3816739 234 88 12
1.2063494 0.058552608 1.3816739 234 88 12
1.2034202 0.079623446 1.3756275 234 88 12
1.2007674 0.084571116 1.3402762 234 88 12
1.2186842 0.11311098 1.7099814 234 88 12
1.2020215 0.09848588 1.3913414 234 88 12
1.1985017 0.1073146 1.3492239 234 88 12
1.1999131 0.12008905 1.4005948 234 88 12
1.2065997 0.13390005 1.5452487 234 88 12
1.2062303 0.13691857 1.5452487 234 88 12
1.2083992 0.14064483 1.5905759 234 88 12
1.2082138 0.14644788 1.59964 234 88 12
1.2069597 0.14919533 1.5837916 234 88 12
1.2069622 0.15775922 1.6019362 234 88 12
1.2066168 0.16058207 1.6019362 234 88 12
1.1994557 0.16478254 1.4871602 234 88 12
1.2077287 0.16576177 1.6320857 234 88 12
1.1991889 0.17410229 1.5022503 234 88 12
1.2082095 0.069690935 1.3800023 234 88 12
1.2066145 0.080014437 1.3739462 234 88 12
1.2064552 0.084023744 1.3800023 234 88 12
1.219334 0.10560942 1.6636552 234 88 12
1.2030215 0.092266306 1.3356875 234 88 12
1.2063318 0.10788666 1.4311271 234 88 12
1.2091441 0.11757525 1.5041964 234 88 12
1.2121316 0.12628971 1.578289 234 88 12
1.21237 0.13255899 1.5966687 234 88 12
1.217553 0.13774611 1.7029954 234 88 12
1.200866 0.16220601 1.4527431 234 88 12
1.1947845 0.17033994 1.3597956 234 88 12
1.1997085 0.17218119 1.4539022 234 88 12
1.195052 0.177187 1.3800023 234 88 12
1.2073799 0.085390404 1.3369714 234 88 12
1.2169845 0.11901753 1.6032115 234 88 12
1.2055143 0.12424872 1.3930614 234 88 12
1.2050819 0.12778123 1.3930614 234 88 12
1.2134353 0.13826023 1.5800446 234 88 12
1.2107489 0.14667243 1.5478958 234 88 12
1.213044 0.15273395 1.6068294 234 88 12
1.2096802 0.15862672 1.5555502 234 88 12
1.2093163 0.16160011 1.5555502 234 88 12
1.2019209 0.16625696 1.4231076 234 88 12
1.1998657 0.17017972 1.3925451 234 88 12
1.2163155 0.056135576 1.3766589 234 88 12
1.2158769 0.059718776 1.3766589 234 88 12
1.2145612 0.070468381 1.3766589 234 88 12
1.2148598 0.084027693 1.4171512 234 88 12
1.2291925 0.11422166 1.7899381 234 88 12
1.2092812 0.096930444 1.3344543 234 88 12
1.2229706 0.11693489 1.6681499 234 88 12
1.2198184 0.11651292 1.6019008 234 88 12
1.2216853 0.12724514 1.6676677 234 88 12
1.2066141 0.11934999 1.3360484 234 88 12
1.2202467 0.13190646 1.6497164 234 88 12
1.2057029 0.12679543 1.3360484 234 88 12
1.220032 0.13739812 1.6591771 234 88 12
1.2117498 0.15298432 1.5273664 234 88 12
1.2080412 0.15623847 1.4589171 234 88 12
1.202522 0.17745423 1.398491 234 88 12
1.2194914 0.056524299 1.3749872 234 88 12
1.2190528 0.060107499 1.3749872 234 88 12
1.2177371 0.070857108 1.3749872 234 88 12
1.2179124 0.084401324 1.4155444 234 88 12
1.2199446 0.099815868 1.5022494 234 88 12
1.2329637 0.12447302 1.8570668 234 88 12
1.2288812 0.12677525 1.7729781 234 88 12
1.2286097 0.12899335 1.7729781 234 88 12
1.216136 0.12090278 1.4750882 234 88 12
1.2090024 0.12719929 1.3343116 234 88 12
1.2202883 0.13958903 1.6175618 234 88 12
1.2206161 0.14255455 1.6328447 234 88 12
1.2189969 0.14779708 1.6112175 234 88 12
1.2134122 0.1564289 1.5110314 234 88 12
1.2102171 0.15994635 1.4498692 234 88 12
1.2081254 0.16363506 1.4135783 234 88 12
1.2121693 0.1658068 1.5089295 234 88 12
1.2054569 0.17118676 1.3749872 234 88 12
1.2195972 0.081995435 1.3733156 234 88 12
1.2227336 0.10015723 1.5007814 234 88 12
1.2488766 0.14505406 2.2532649 234 88 12
1.22921 0.1196951 1.7116932 234 88 12
1.2198213 0.11107825 1.4633087 234 88 12
1.2190075 0.12125426 1.4735768 234 88 12
1.2145519 0.12514761 1.3789414 234 88 12
1.2159482 0.13345069 1.436322 234 88 12
1.2181312 0.13792588 1.5012696 234 88 12
1.2214546 0.1480979 1.6099238 234 88 12
1.2186147 0.15066914 1.5498646 234 88 12
1.2104839 0.17085472 1.4152478 234 88 12
1.2237135 0.17456125 1.7406871 234 88 12
1.2214574 0.093133762 1.3716439 234 88 12
1.2359678 0.13103011 1.863874 234 88 12
1.229079 0.13412726 1.6965408 234 88 12
1.2172745 0.12909818 1.3772787 234 88 12
1.2189329 0.13381599 1.4347509 234 88 12
1.2171015 0.14019325 1.4077392 234 88 12
1.2239246 0.1455406 1.5999548 234 88 12
1.2235816 0.14834319 1.5999548 234 88 12
1.2200537 0.15089935 1.5173109 234 88 12
1.2196945 0.15703087 1.5273714 234 88 12
1.2193211 0.16008164 1.5273714 234 88 12
1.2126857 0.16479781 1.3716439 234 88 12
1.21137 0.17554742 1.3716439 234 88 12
1.2233175 0.1042721 1.3699722 234 88 12
1.2222438 0.10694611 1.349105 234 88 12
1.2213491 0.11425498 1.349105 234 88 12
1.2225394 0.11963169 1.4007796 234 88 12
1.2199744 0.12519154 1.3480961 234 88 12
1.2223296 0.13081388 1.43318 234 88 12
1.2313759 0.13975944 1.7166957 234 88 12
1.2238946 0.15131541 1.5470855 234 88 12
1.2207601 0.15435633 1.4698602 234 88 12
1.2317563 0.061662391 1.3683006 234 88 12
1.2308791 0.068828799 1.3683006 234 88 12
1.2291248 0.083161607 1.3683006 234 88 12
1.2339312 0.12668213 1.6786902 234 88 12
1.2251256 0.12341509 1.3967179 234 88 12
1.2246988 0.12690145 1.3967179 234 88 12
1.2228875 0.13326462 1.3650932 234 88 12
1.2217211 0.14033818 1.3558851 234 88 12
1.2497745 0.15214011 2.2594335 234 88 12
1.2212304 0.14765924 1.3683006 234 88 12
1.2207917 0.15124245 1.3683006 234 88 12
1.2515883 0.15614 2.3299913 234 88 12
1.2309849 0.094299935 1.3666289 234 88 12
1.2296692 0.10504954 1.3666289 234 88 12
1.2279356 0.11940868 1.3674395 234 88 12
1.2293332 0.132404 1.4686201 234 88 12
1.2288883 0.14886449 1.5217743 234 88 12
1.2238824 0.15162577 1.3637211 234 88 12
0.14788352 1.243642 2.3715575 234 88 12
0.12704273 1.2061026 2.2093129 234 88 12
0.1246569 1.2063946 2.2093129 234 88 12
0.14701088 1.204374 2.2089419 234 88 12
0.13587703 1.2057368 2.2089419 234 88 12
0.15982156 1.2035214 2.208571 234 88 12
0.15902628 1.2036186 2.208571 234 88 12
0.13914441 1.2060522 2.208571 234 88 12
0.024006194 1.0429589 1.4686009 234 88 12
0.15223868 1.2526822 2.4100018 234 88 12
0.1413165 1.2369087 2.3385451 234 88 12
-0.0082426257 1.0469061 1.4686009 234 88 12
0.042310927 1.0439419 1.4669292 234 88 12
0.1129866 1.2099693 2.2082 234 88 12
0.15045081 1.2060992 2.207829 234 88 12
0.057032458 1.0453634 1.4652575 234 88 12
0.053449258 1.045802 1.4652575 234 88 12
0.17121424 1.2042731 2.2074578 234 88 12
0.068170786 1.0472234 1.4635859 234 88 12
0.17289107 1.2047833 2.2070868 234 88 12
0.17050524 1.2050754 2.2070868 234 88 12
0.2047212 1.0337332 1.4619142 234 88 12
0.19038838 1.0354875 1.4619142 234 88 12
0.17963877 1.0368034 1.4619142 234 88 12
0.16888918 1.0381191 1.4619142 234 88 12
0.15813957 1.0394348 1.4619142 234 88 12
0.14738996 1.0407506 1.4619142 234 88 12
0.13305715 1.0425049 1.4619142 234 88 12
0.14664698 1.2079957 2.2070868 234 88 12
0.086475521 1.0482064 1.4619142 234 88 12
0.079309121 1.0490836 1.4619142 234 88 12
0.11165488 1.2122786 2.2070868 234 88 12
0.21944273 1.0351548 1.4602425 234 88 12
0.21585952 1.0355934 1.4602425 234 88 12
0.20152672 1.0373477 1.4602425 234 88 12
0.12269627 1.0469965 1.4602425 234 88 12
0.11194666 1.0483122 1.4602425 234 88 12
0.10119706 1.049628 1.4602425 234 88 12
0.068439469 1.1279352 1.7970937 234 88 12
0.066114336 1.1282197 1.7970937 234 88 12
0.056813814 1.1293582 1.7970937 234 88 12
0.17385888 1.2060957 2.2063448 234 88 12
0.23058106 1.037015 1.4585708 234 88 12
0.22699785 1.0374535 1.4585708 234 88 12
0.1481674 1.0471023 1.4585708 234 88 12
0.14458421 1.0475409 1.4585708 234 88 12
0.1338346 1.0488566 1.4585708 234 88 12
0.24171938 1.038875 1.4568992 234 88 12
0.17722175 1.0467695 1.4568992 234 88 12
0.17005534 1.0476466 1.4568992 234 88 12
0.082894735 1.1303493 1.7949243 234 88 12
0.24927451 1.0411737 1.4552275 234 88 12
0.23852491 1.0424895 1.4552275 234 88 12
0.2241921 1.0442438 1.4552275 234 88 12
0.21344249 1.0455595 1.4552275 234 88 12
0.20269288 1.0468752 1.4552275 234 88 12
0.19194327 1.0481911 1.4552275 234 88 12
0.18119366 1.0495068 1.4552275 234 88 12
0.17044407 1.0508225 1.4552275 234 88 12
0.15252805 1.0530155 1.4552275 234 88 12
0.14536165 1.0538926 1.4552275 234 88 12
0.13461204 1.0552083 1.4552275 234 88 12
0.18207046 1.2072369 2.2052317 234 88 12
0.25682965 1.0434724 1.4535558 234 88 12
0.22816402 1.0469811 1.4535558 234 88 12
0.22458082 1.0474197 1.4535558 234 88 12
0.21383122 1.0487354 1.4535558 234 88 12
0.14803208 1.2385608 2.3372619 234 88 12
0.05549765 1.1378859 1.7927548 234 88 12
0.043871995 1.1393089 1.7927548 234 88 12
0.26438478 1.0457711 1.4518842 234 88 12
0.25363517 1.0470868 1.4518842 234 88 12
0.25005195 1.0475254 1.4518842 234 88 12
0.092951983 1.1353933 1.7916701 234 88 12
0.072025806 1.1379546 1.7916701 234 88 12
0.067375541 1.1385238 1.7916701 234 88 12
0.13706429 1.2401781 2.3371193 234 88 12
0.26835668 1.0485084 1.4502125 234 88 12
0.088553965 1.1380233 1.7905853 234 88 12
0.13648628 1.2405238 2.3369768 234 88 12
0.10828243 1.2176994 2.2044897 234 88 12
0.27591181 1.0508071 1.4485408 234 88 12
0.10043186 1.1386611 1.7895006 234 88 12
0.10300923 1.1404374 1.7884158 234 88 12
0.26593965 1.0584745 1.4451975 234 88 12
0.25877327 1.0593518 1.4451975 234 88 12
0.24802364 1.0606675 1.4451975 234 88 12
0.047458336 1.1493284 1.7873311 234 88 12
0.045133203 1.149613 1.7873311 234 88 12
0.28782761 1.059019 1.4435258 234 88 12
0.28424439 1.0594575 1.4435258 234 88 12
0.26991159 1.0612118 1.4435258 234 88 12
0.25916198 1.0625277 1.4435258 234 88 12
0.14823098 1.2401859 2.3364065 234 88 12
0.10816398 1.1439898 1.7862463 234 88 12
0.10118858 1.1448436 1.7862463 234 88 12
0.08956293 1.1462665 1.7862463 234 88 12
0.077937275 1.1476895 1.7862463 234 88 12
0.06631162 1.1491125 1.7862463 234 88 12
0.063986488 1.149397 1.7862463 234 88 12
0.054685969 1.1505355 1.7862463 234 88 12
0.045385446 1.1516738 1.7862463 234 88 12
0.08283978 1.1491811 1.7851616 234 88 12
0.078189515 1.1497504 1.7851616 234 88 12
0.099367931 1.1492498 1.7840768 234 88 12
0.29974338 1.0672308 1.4385108 234 88 12
0.27824417 1.0698622 1.4385108 234 88 12
0.27107775 1.0707395 1.4385108 234 88 12
0.13319084 1.1233519 1.6451087 234 88 12
0.13212015 1.1336228 1.7037305 234 88 12
0.11357096 1.149603 1.7829921 234 88 12
0.3001321 1.0704067 1.4368391 234 88 12
0.29296568 1.0712838 1.4368391 234 88 12
0.16371413 1.1328813 1.707077 234 88 12
0.15856379 1.1323954 1.7004873 234 88 12
0.15590321 1.134721 1.712294 234 88 12
0.15325576 1.104148 1.5298979 234 88 12
0.15038384 1.1201694 1.6224029 234 88 12
0.1462394 1.1456653 1.7699192 234 88 12
0.14440863 1.1519823 1.8058878 234 88 12
0.14096555 1.1414291 1.7411002 234 88 12
0.13069956 1.1407952 1.729941 234 88 12
0.11614833 1.1513792 1.7819074 234 88 12
0.18261786 1.1310985 1.6949743 234 88 12
0.17280781 1.1430975 1.7600895 234 88 12
0.17040722 1.1433914 1.7600895 234 88 12
0.16975555 1.1302023 1.6800766 234 88 12
0.16783066 1.1234568 1.63798 234 88 12
0.16413452 1.1335908 1.6963607 234 88 12
0.16024594 1.1027933 1.5077782 234 88 12
0.15628126 1.1325411 1.6842347 234 88 12
0.14595909 1.1396556 1.719517 234 88 12
0.14310798 1.1365502 1.6986871 234 88 12
0.14062974 1.1381838 1.706709 234 88 12
0.13601342 1.1424843 1.7292342 234 88 12
0.13268901 1.1382662 1.701345 234 88 12
0.12911165 1.1462326 1.7467431 234 88 12
0.12373398 1.1450701 1.7357634 234 88 12
0.12188885 1.1475539 1.7493798 234 88 12
0.11977866 1.1488847 1.7558465 234 88 12
0.058272306 1.1605549 1.7808226 234 88 12
0.055947173 1.1608394 1.7808226 234 88 12
0.044321522 1.1622624 1.7808226 234 88 12
0.30807593 1.0758812 1.4334958 234 88 12
0.30449274 1.0763198 1.4334958 234 88 12
0.29374313 1.0776355 1.4334958 234 88 12
0.28299353 1.0789512 1.4334958 234 88 12
0.19898954 1.1234361 1.6442548 234 88 12
0.19283679 1.1258283 1.6543542 234 88 12
0.18026641 1.1337591 1.6937438 234 88 12
0.17723101 1.1218017 1.6177728 234 88 12
0.16149367 1.1404974 1.7211068 234 88 12
0.15901841 1.1394714 1.7129174 234 88 12
0.15388636 1.1386142 1.7037644 234 88 12
0.15134355 1.1418682 1.7218983 234 88 12
0.13236615 1.1507499 1.7623137 234 88 12
0.12827846 1.1540779 1.7797379 234 88 12
0.074800462 1.1606236 1.7797379 234 88 12
0.29054865 1.08125 1.4318241 234 88 12
0.28338227 1.0821272 1.4318241 234 88 12
0.21472666 1.0919911 1.4410244 234 88 12
0.21117683 1.0924256 1.4410244 234 88 12
0.19591917 1.1279525 1.653057 234 88 12
0.19313845 1.1282928 1.653057 234 88 12
0.18560264 1.1362847 1.6975905 234 88 12
0.1796854 1.1399153 1.7158991 234 88 12
0.17882572 1.1319863 1.6652881 234 88 12
0.17170238 1.1428602 1.728294 234 88 12
0.16947316 1.1411737 1.7159517 234 88 12
0.16726676 1.1385429 1.6976777 234 88 12
0.16416202 1.1439589 1.7294012 234 88 12
0.15165371 1.1460867 1.733161 234 88 12
0.14423048 1.1475425 1.7366077 234 88 12
0.14195278 1.1496527 1.7481446 234 88 12
0.13739535 1.1522392 1.7609236 234 88 12
0.13468075 1.1507417 1.7493975 234 88 12
0.12576811 1.1548512 1.7684132 234 88 12
0.12313151 1.1542344 1.7624944 234 88 12
0.091328621 1.1606922 1.7786531 234 88 12
0.089003488 1.1609768 1.7786531 234 88 12
0.30885339 1.082233 1.4301524 234 88 12
0.3052702 1.0826715 1.4301524 234 88 12
0.20530508 1.1445773 1.7501494 234 88 12
0.20608002 1.1377372 1.7066933 234 88 12
0.21604335 1.1011456 1.478811 234 88 12
0.20068829 1.125443 1.6232376 234 88 12
0.1864524 1.1451398 1.7389076 234 88 12
0.18097894 1.1478647 1.7521464 234 88 12
0.18337487 1.1276013 1.6234897 234 88 12
0.17580858 1.150041 1.7620896 234 88 12
0.17604303 1.1365544 1.6753879 234 88 12
0.17066856 1.1528783 1.7763157 234 88 12
0.16419122 1.1486071 1.7436914 234 88 12
0.15196584 1.1509788 1.7493306 234 88 12
0.14961769 1.153301 1.7624395 234 88 12
0.14017396 1.1550311 1.7661388 234 88 12
0.12727481 1.152325 1.738533 234 88 12
0.12393904 1.1581372 1.7733476 234 88 12
0.1204265 1.1548915 1.7496675 234 88 12
0.11521924 1.1608551 1.7839808 234 88 12
0.10785677 1.1607609 1.7775685 234 88 12
0.20636012 1.1400254 1.7054888 234 88 12
0.20377833 1.1403414 1.7054888 234 88 12
0.21641296 1.1041653 1.4772216 234 88 12
0.21803243 1.091872 1.397494 234 88 12
0.21433721 1.0923243 1.397494 234 88 12
0.1861956 1.1560767 1.795025 234 88 12
0.19141601 1.1320862 1.6410987 234 88 12
0.18050021 1.1528159 1.7689357 234 88 12
0.17727372 1.1567245 1.7920961 234 88 12
0.17419215 1.1498628 1.7443796 234 88 12
0.1719434 1.1490524 1.7372241 234 88 12
0.16449684 1.1503929 1.7400517 234 88 12
0.16190024 1.1524161 1.7512931 234 88 12
0.15713325 1.1510923 1.7387215 234 88 12
0.14219622 1.1513824 1.7285827 234 88 12
0.13687322 1.1499461 1.7148198 234 88 12
0.11494818 1.1616393 1.7742082 234 88 12
0.11344665 1.1638108 1.7873111 234 88 12
0.19140361 1.2175415 2.1992955 234 88 12
0.23598975 1.0946732 1.4070717 234 88 12
0.15986903 1.2415104 2.334981 234 88 12
0.20850748 1.1327388 1.6412207 234 88 12
0.21843331 1.0951471 1.3957701 234 88 12
0.18972197 1.1549737 1.775735 234 88 12
0.18394198 1.151781 1.7494185 234 88 12
0.14757198 1.1547829 1.7396361 234 88 12
0.13625076 1.1614023 1.7749507 234 88 12
0.13131209 1.1607679 1.7665907 234 88 12
0.12637964 1.1605877 1.7613015 234 88 12
0.12390237 1.160557 1.7590482 234 88 12
0.11194684 1.1619384 1.7584952 234 88 12
0.11054177 1.1642936 1.7732273 234 88 12
0.10543846 1.15907 1.7337656 234 88 12
0.050232992 1.1719973 1.775399 234 88 12
0.30285317 1.0926377 1.4251374 234 88 12
0.29568675 1.0935149 1.4251374 234 88 12
0.24004063 1.0974648 1.4053668 234 88 12
0.19664247 1.1732345 1.8922426 234 88 12
0.20162582 1.1598577 1.8040223 234 88 12
0.21245383 1.1208949 1.5439398 234 88 12
0.19950293 1.1384932 1.6545932 234 88 12
0.18872486 1.1542412 1.7542992 234 88 12
0.18529415 1.1503332 1.7243919 234 88 12
0.14485668 1.1751404 1.8616127 234 88 12
0.10264663 1.143086 1.6044087 234 88 12
0.10320809 1.156381 1.6967556 234 88 12
0.09686581 1.1598024 1.7150334 234 88 12
0.08569134 1.1463114 1.6123568 234 88 12
0.090550423 1.1585329 1.7009192 234 88 12
0.094662711 1.1686509 1.7743142 234 88 12
0.090012453 1.16922 1.7743142 234 88 12
0.078386799 1.170643 1.7743142 234 88 12
0.066761144 1.172066 1.7743142 234 88 12
0.055135492 1.173489 1.7743142 234 88 12
0.31399149 1.0944978 1.4234657 234 88 12
0.20186645 1.1618237 1.8029875 234 88 12
0.2208651 1.1193781 1.5189215 234 88 12
0.19862574 1.1497728 1.7148532 234 88 12
0.18725203 1.154683 1.7397627 234 88 12
0.17779247 1.1545441 1.7305815 234 88 12
0.14824696 1.1616191 1.7550696 234 88 12
0.14144669 1.1652347 1.7747765 234 88 12
0.13842718 1.1611964 1.7435665 234 88 12
0.10961647 1.165522 1.7492259 234 88 12
0.10592488 1.1633607 1.7307237 234 88 12
0.092144035 1.1431147 1.5754312 234 88 12
0.099684462 1.1662323 1.7456483 234 88 12
0.090590499 1.1560743 1.6658442 234 88 12
0.083098225 1.1492454 1.6109998 234 88 12
0.088241778 1.161145 1.699711 234 88 12
0.083289303 1.1721346 1.7732295 234 88 12
0.078639038 1.1727037 1.7732295 234 88 12
0.3143802 1.0976737 1.4217941 234 88 12
0.30363059 1.0989894 1.4217941 234 88 12
0.29288101 1.1003052 1.4217941 234 88 12
0.21640351 1.1502521 1.7163908 234 88 12
0.21387818 1.1505612 1.7163908 234 88 12
0.20970553 1.1495318 1.7052122 234 88 12
0.21893562 1.1139935 1.4554559 234 88 12
0.21547329 1.1144173 1.4554559 234 88 12
0.19534256 1.1547815 1.730556 234 88 12
0.19130805 1.1529164 1.7134343 234 88 12
0.19113296 1.138344 1.607504 234 88 12
0.17854989 1.1547827 1.7156457 234 88 12
0.17581885 1.1559949 1.7220179 234 88 12
0.160586 1.1605573 1.741601 234 88 12
0.15815362 1.1608052 1.7412397 234 88 12
0.15328118 1.1613331 1.7407422 234 88 12
0.14609966 1.1638336 1.7525126 234 88 12
0.13631974 1.163968 1.7447988 234 88 12
0.12436645 1.1659478 1.7485499 234 88 12
0.11643138 1.1651298 1.7355616 234 88 12
0.10900068 1.1603992 1.6946234 234 88 12
0.099415064 1.1675231 1.7378165 234 88 12
0.081929103 1.1496443 1.5925059 234 88 12
0.065094694 1.1305354 1.4388469 234 88 12
0.28968653 1.1039196 1.4201224 234 88 12
0.25311735 1.1044437 1.3906987 234 88 12
0.24942867 1.1048951 1.3906987 234 88 12
0.20793696 1.155545 1.7299902 234 88 12
0.20644416 1.1492553 1.681801 234 88 12
0.22447069 1.1062471 1.3780195 234 88 12
0.20175809 1.1426601 1.6284277 234 88 12
0.19306372 1.1512803 1.6846846 234 88 12
0.17308281 1.1609428 1.7384161 234 88 12
0.16578951 1.1615862 1.7365593 234 88 12
0.1485727 1.1622986 1.7261739 234 88 12
0.14618385 1.1637975 1.735157 234 88 12
0.11625083 1.1720618 1.7694092 234 88 12
0.10053618 1.1667491 1.7155337 234 88 12
0.079625912 1.1380224 1.4826 234 88 12
0.31515765 1.1040254 1.4184507 234 88 12
0.30440804 1.1053412 1.4184507 234 88 12
0.28290883 1.1079726 1.4184507 234 88 12
0.23757723 1.1170628 1.4455125 234 88 12
0.23231842 1.1148694 1.4238338 234 88 12
0.22875449 1.1153055 1.4238338 234 88 12
0.22860992 1.1090996 1.3762773 234 88 12
0.22487578 1.1095567 1.3762773 234 88 12
0.21193735 1.1150856 1.4064242 234 88 12
0.21003237 1.1111478 1.3745528 234 88 12
0.18463655 1.1643012 1.7569567 234 88 12
0.18339862 1.1610235 1.7307538 234 88 12
0.17865548 1.1609232 1.7255518 234 88 12
0.17081521 1.1638836 1.740839 234 88 12
0.16888906 1.1610976 1.7177501 234 88 12
0.12117601 1.1669822 1.7180898 234 88 12
0.11053129 1.1611319 1.6634307 234 88 12
0.090462781 1.1521575 1.5760864 234 88 12
0.099210605 1.1707255 1.7261498 234 88 12
0.093416683 1.1661484 1.6857561 234 88 12
0.071071789 1.1387266 1.4553219 234 88 12
0.067620546 1.1391491 1.4553219 234 88 12
0.072688177 1.1547947 1.579613 234 88 12
0.23795545 1.1201527 1.443886 234 88 12
0.23844834 1.1139745 1.3958784 234 88 12
0.23270506 1.1180282 1.4221712 234 88 12
0.20636156 1.1551837 1.6884297 234 88 12
0.20640913 1.1502359 1.6496495 234 88 12
0.19854082 1.1612278 1.7283466 234 88 12
0.20550497 1.1408107 1.5748216 234 88 12
0.19770992 1.152282 1.6573502 234 88 12
0.1975102 1.1391245 1.5539113 234 88 12
0.18919733 1.1370627 1.5297478 234 88 12
0.14225325 1.171997 1.7587894 234 88 12
0.13792568 1.1745974 1.7750388 234 88 12
0.13509169 1.1725174 1.7559948 234 88 12
0.13297048 1.1737901 1.7639445 234 88 12
0.12771152 1.1725404 1.7490876 234 88 12
0.12345598 1.1745554 1.7608116 234 88 12
0.11762451 1.1725619 1.7395673 234 88 12
0.11220591 1.1720388 1.7302586 234 88 12
0.10627339 1.1658136 1.6757112 234 88 12
0.10931171 1.1762482 1.7605096 234 88 12
0.10445134 1.1723304 1.7250981 234 88 12
0.10157873 1.1720115 1.7198371 234 88 12
0.096113205 1.1719536 1.7141325 234 88 12
0.062017746 1.1485544 1.4977714 234 88 12
0.058721829 1.1835084 1.7688905 234 88 12
0.0563967 1.1837929 1.7688905 234 88 12
0.25631288 1.1114675 1.3650541 234 88 12
0.23548809 1.13229 1.5124031 234 88 12
0.20648156 1.1479064 1.6096973 234 88 12
0.20607838 1.1429619 1.5694295 234 88 12
0.20026225 1.1496081 1.6172806 234 88 12
0.19293301 1.1472213 1.5908009 234 88 12
0.18261121 1.1620408 1.7001106 234 88 12
0.18090279 1.1593552 1.6767688 234 88 12
0.17499255 1.1503755 1.5985285 234 88 12
0.17048751 1.1596149 1.6685836 234 88 12
0.16461453 1.1644897 1.7020956 234 88 12
0.15193866 1.1721506 1.7513577 234 88 12
0.14715977 1.1725898 1.750183 234 88 12
0.14496206 1.1746503 1.7646288 234 88 12
0.11949665 1.1724331 1.7216169 234 88 12
0.093986563 1.1708043 1.6833054 234 88 12
0.087706126 1.1662111 1.64007 234 88 12
0.070302568 1.1477523 1.4740503 234 88 12
0.066929616 1.1481651 1.4740503 234 88 12
0.06015515 1.1445638 1.4383249 234 88 12
0.062375076 1.1514738 1.4962348 234 88 12
0.053810921 1.1502076 1.4775732 234 88 12
0.077575117 1.1832924 1.7678057 234 88 12
0.30199102 1.1153073 1.4134357 234 88 12
0.2948246 1.1161845 1.4134357 234 88 12
0.28407502 1.1175002 1.4134357 234 88 12
0.23774934 1.1228002 1.4103661 234 88 12
0.20737933 1.1669732 1.7458026 234 88 12
0.22094299 1.1400679 1.5364834 234 88 12
0.20968407 1.1501135 1.6083494 234 88 12
0.19235258 1.1590152 1.6645679 234 88 12
0.19104362 1.1556916 1.6356833 234 88 12
0.1872756 1.1588159 1.6577637 234 88 12
0.17904162 1.1601639 1.6605842 234 88 12
0.1746293 1.1675825 1.7176174 234 88 12
0.1640161 1.1735849 1.7566153 234 88 12
0.16174547 1.1729656 1.7491759 234 88 12
0.15715359 1.1691419 1.7128109 234 88 12
0.15457815 1.174209 1.7522106 234 88 12
0.14001456 1.1741552 1.7369848 234 88 12
0.13450706 1.171947 1.7130861 234 88 12
0.13251834 1.1742712 1.7303391 234 88 12
0.12094649 1.1774368 1.7448425 234 88 12
0.11398044 1.167693 1.6569834 234 88 12
0.11614703 1.1829453 1.7856445 234 88 12
0.11338921 1.1823196 1.7776585 234 88 12
0.10736991 1.1879605 1.8183208 234 88 12
0.081526473 1.1555793 1.5236069 234 88 12
0.078335598 1.1559699 1.5236069 234 88 12
0.072974823 1.1536367 1.498821 234 88 12
0.067295529 1.1511546 1.4724767 234 88 12
0.069527417 1.1580219 1.5316818 234 88 12
0.055602573 1.1465118 1.4221144 234 88 12
0.063070014 1.1622798 1.5604328 234 88 12
0.048520289 1.151337 1.4549353 234 88 12
0.080152489 1.1850686 1.766721 234 88 12
0.31312934 1.1171675 1.411764 234 88 12
0.24762294 1.1218601 1.3833934 234 88 12
0.21813916 1.1432403 1.5350162 234 88 12
0.20628105 1.1594046 1.6605438 234 88 12
0.19838475 1.1542152 1.6080226 234 88 12
0.19649729 1.1521808 1.5886947 234 88 12
0.19028307 1.1608886 1.656498 234 88 12
0.18817914 1.1595424 1.6428161 234 88 12
0.18214014 1.169657 1.7228057 234 88 12
0.17896497 1.1722314 1.7414548 234 88 12
0.17533837 1.1680512 1.7020029 234 88 12
0.17184886 1.1725891 1.7370739 234 88 12
0.16698541 1.1732446 1.7375883 234 88 12
0.16283216 1.167238 1.6820036 234 88 12
0.15942374 1.1779205 1.7695851 234 88 12
0.15711264 1.1782033 1.7695851 234 88 12
0.15485744 1.1749649 1.7396008 234 88 12
0.14579061 1.1818031 1.7884746 234 88 12
0.12909707 1.1726087 1.6925972 234 88 12
0.11856382 1.1734232 1.6885461 234 88 12
0.11499674 1.1716555 1.669739 234 88 12
0.1186497 1.18467 1.7845912 234 88 12
0.11185045 1.1764145 1.7070565 234 88 12
0.056730922 1.1460711 1.3906107 234 88 12
0.055987943 1.1496602 1.4204571 234 88 12
0.18908527 1.2249794 2.1955853 234 88 12
0.30993485 1.1207819 1.4100924 234 88 12
0.30635166 1.1212205 1.4100924 234 88 12
0.29560205 1.1225362 1.4100924 234 88 12
0.28126925 1.1242906 1.4100924 234 88 12
0.23564531 1.1285179 1.3981705 234 88 12
0.21421774 1.1575308 1.6300272 234 88 12
0.20948306 1.1517885 1.5744855 234 88 12
0.19107072 1.1620724 1.6450369 234 88 12
0.1870583 1.1584663 1.6090403 234 88 12
0.18115789 1.1683071 1.689153 234 88 12
0.17486903 1.1731757 1.7251641 234 88 12
0.17005196 1.1732199 1.720373 234 88 12
0.16553749 1.1706617 1.6930418 234 88 12
0.16270187 1.1732746 1.7129499 234 88 12
0.15778445 1.1719295 1.6958437 234 88 12
0.1527873 1.184839 1.8038889 234 88 12
0.14497216 1.1738089 1.698578 234 88 12
0.13796502 1.1780448 1.7282575 234 88 12
0.12010953 1.178604 1.7139698 234 88 12
0.11298303 1.1750581 1.6751528 234 88 12
0.10959189 1.17897 1.7058747 234 88 12
0.087205529 1.1584288 1.5013317 234 88 12
0.091391899 1.1732647 1.636178 234 88 12
0.078117892 1.1604886 1.509657 234 88 12
0.065050974 1.1491418 1.3959149 234 88 12
0.064565107 1.1614052 1.503135 234 88 12
0.047733486 1.1481148 1.3682698 234 88 12
0.044001844 1.1485716 1.3682698 234 88 12
0.28882438 1.1265892 1.4084207 234 88 12
0.28165796 1.1274664 1.4084207 234 88 12
0.27090836 1.1287822 1.4084207 234 88 12
0.23226982 1.1373581 1.4432492 234 88 12
0.20833102 1.161697 1.6370907 234 88 12
0.20098038 1.1607943 1.6207701 234 88 12
0.19473915 1.1683112 1.6819142 234 88 12
0.19463255 1.1567069 1.5767277 234 88 12
0.19164571 1.1570725 1.5767277 234 88 12
0.18361774 1.1640165 1.6307033 234 88 12
0.17522062 1.1650863 1.6310835 234 88 12
0.17183338 1.1682428 1.6559099 234 88 12
0.16984035 1.1646147 1.6208504 234 88 12
0.16712865 1.1641657 1.6137807 234 88 12
0.16377373 1.1687369 1.6514513 234 88 12
0.14473844 1.1712488 1.6530991 234 88 12
0.13955113 1.1733365 1.6662531 234 88 12
0.13577729 1.1805202 1.7271128 234 88 12
0.13035975 1.1699984 1.6258425 234 88 12
0.12987848 1.1779063 1.6969086 234 88 12
0.11864378 1.1702505 1.6151417 234 88 12
0.1134607 1.1720181 1.6254005 234 88 12
0.11169928 1.1796476 1.6925278 234 88 12
0.10000043 1.1646045 1.5433596 234 88 12
0.093467027 1.1696841 1.582111 234 88 12
0.092076309 1.1721666 1.6030464 234 88 12
0.087531529 1.1704106 1.582111 234 88 12
0.075654909 1.1599255 1.4740137 234 88 12
0.067931771 1.1596102 1.4625996 234 88 12
0.066431671 1.1620386 1.4829243 234 88 12
0.048138313 1.1514223 1.3665289 234 88 12
0.044406671 1.1518791 1.3665289 234 88 12
0.080909215 1.191251 1.7634667 234 88 12
0.078584082 1.1915357 1.7634667 234 88 12
0.066958427 1.1929586 1.7634667 234 88 12
0.30712911 1.1275722 1.406749 234 88 12
0.22951269 1.1530524 1.5559834 234 88 12
0.22645742 1.1534264 1.5559834 234 88 12
0.21794714 1.1488093 1.5031372 234 88 12
0.21137273 1.1549649 1.5531086 234 88 12
0.20351443 1.1640546 1.6290119 234 88 12
0.2017041 1.1625038 1.6124599 234 88 12
0.19542217 1.1582797 1.5658309 234 88 12
0.19240174 1.1586493 1.5658309 234 88 12
0.1825151 1.1623957 1.5895169 234 88 12
0.18012303 1.1608258 1.5721216 234 88 12
0.17187704 1.1579616 1.5359478 234 88 12
0.16875088 1.1583443 1.5359478 234 88 12
0.16470616 1.166062 1.6033986 234 88 12
0.15886974 1.1677799 1.61277 234 88 12
0.15315434 1.1671474 1.6003304 234 88 12
0.15016694 1.1651708 1.5784562 234 88 12
0.14704098 1.1634393 1.5587136 234 88 12
0.14532925 1.1764656 1.6784062 234 88 12
0.12503436 1.1808029 1.6957138 234 88 12
0.12392368 1.1845521 1.7294555 234 88 12
0.11930744 1.1801114 1.6827093 234 88 12
0.1100923 1.1732452 1.6080534 234 88 12
0.092373244 1.1542752 1.4106432 234 88 12
0.08880382 1.1547121 1.4106432 234 88 12
0.087713622 1.1587642 1.4472395 234 88 12
0.087912716 1.1642064 1.4982905 234 88 12
0.076100871 1.1534121 1.3839837 234 88 12
0.0773082 1.1685538 1.5267686 234 88 12
0.063765779 1.1692352 1.5176514 234 88 12
0.056347381 1.1657534 1.4766556 234 88 12
0.069535799 1.1947348 1.762382 234 88 12
0.067210674 1.1950195 1.762382 234 88 12
0.23967405 1.1387615 1.4022758 234 88 12
0.23608094 1.1392013 1.4022758 234 88 12
0.21824929 1.1563021 1.5460973 234 88 12
0.21946405 1.1498257 1.4850943 234 88 12
0.19968729 1.164346 1.6017435 234 88 12
0.19318263 1.1666727 1.6164987 234 88 12
0.18535633 1.1657994 1.5988444 234 88 12
0.18316439 1.1639827 1.5787436 234 88 12
0.18095802 1.1617496 1.5546117 234 88 12
0.17628016 1.1562765 1.4963269 234 88 12
0.16971269 1.1573504 1.4989311 234 88 12
0.1591123 1.1713244 1.6211401 234 88 12
0.15052035 1.1686667 1.5853804 234 88 12
0.14757393 1.1690273 1.5853804 234 88 12
0.14502452 1.1731727 1.622336 234 88 12
0.14356975 1.1832416 1.7176906 234 88 12
0.13794136 1.180673 1.6862854 234 88 12
0.13189967 1.1782658 1.6559497 234 88 12
0.13101079 1.1842484 1.7125775 234 88 12
0.12246791 1.1758555 1.6215829 234 88 12
0.1169126 1.1698605 1.5572317 234 88 12
0.10461102 1.1583775 1.4320114 234 88 12
0.10112295 1.1588044 1.4320114 234 88 12
0.083933294 1.1559151 1.383873 234 88 12
0.080686584 1.1569154 1.3896848 234 88 12
0.065306477 1.1577841 1.3799114 234 88 12
0.060774419 1.1573303 1.3701878 234 88 12
0.064111941 1.1720634 1.5161628 234 88 12
0.083738826 1.195088 1.7612972 234 88 12
0.27565774 1.1378711 1.4034057 234 88 12
0.27207455 1.1383097 1.4034057 234 88 12
0.26132494 1.1396254 1.4034057 234 88 12
0.22513504 1.1537629 1.5001121 234 88 12
0.21612917 1.1584426 1.535749 234 88 12
0.20730917 1.1635987 1.5763578 234 88 12
0.21046461 1.1529884 1.474509 234 88 12
0.20300339 1.1554062 1.4894972 234 88 12
0.18038362 1.1674128 1.5815216 234 88 12
0.17594092 1.1620435 1.5226183 234 88 12
0.16961518 1.1628177 1.5226183 234 88 12
0.16681372 1.1606306 1.497414 234 88 12
0.16350691 1.1615465 1.5025063 234 88 12
0.16077049 1.1550299 1.4342532 234 88 12
0.15659812 1.1741691 1.6198244 234 88 12
0.14837649 1.1786914 1.6548493 234 88 12
0.14567986 1.1790214 1.6548493 234 88 12
0.13601604 1.1555586 1.4093374 234 88 12
0.13531263 1.1820121 1.6720012 234 88 12
0.12669677 1.1616073 1.4582285 234 88 12
0.10665353 1.1572502 1.3903861 234 88 12
0.10498942 1.161469 1.430384 234 88 12
0.093486995 1.1611314 1.4129955 234 88 12
0.089937605 1.1615658 1.4129955 234 88 12
0.081128769 1.1651456 1.4379156 234 88 12
0.074355476 1.1616758 1.3950919 234 88 12
0.061176512 1.1606153 1.3684585 234 88 12
0.093291596 1.1960105 1.7602125 234 88 12
0.046857685 1.1628667 1.373427 234 88 12
0.29754567 1.1384156 1.401734 234 88 12
0.29396248 1.1388541 1.401734 234 88 12
0.2181903 1.1628084 1.5529903 234 88 12
0.21513954 1.1631819 1.5529903 234 88 12
0.21976027 1.1515858 1.4393369 234 88 12
0.21247725 1.1582905 1.4992344 234 88 12
0.19329034 1.1727506 1.6240275 234 88 12
0.18103637 1.1689931 1.5698587 234 88 12
0.17582501 1.1666669 1.5393167 234 88 12
0.16462184 1.1576841 1.4326322 234 88 12
0.15767297 1.1585346 1.4326322 234 88 12
0.15422438 1.1548884 1.3907139 234 88 12
0.15057631 1.1544631 1.3817304 234 88 12
0.13996477 1.1582799 1.4076755 234 88 12
0.13253036 1.1577233 1.3925642 234 88 12
0.12367462 1.1650267 1.4566469 234 88 12
0.11850225 1.1606578 1.4051077 234 88 12
0.10766076 1.1617106 1.4022832 234 88 12
0.11912027 1.1949408 1.7591277 234 88 12
0.088070624 1.161504 1.3754481 234 88 12
0.077656925 1.1635909 1.3838171 234 88 12
0.056961384 1.1634932 1.3567104 234 88 12
0.053219691 1.1639512 1.3567104 234 88 12
0.18483128 1.2297927 2.1933591 234 88 12
0.21672444 1.1496739 1.3802454 234 88 12
0.2130716 1.1501211 1.3802454 234 88 12
0.19435504 1.1786994 1.6606981 234 88 12
0.19359417 1.1752329 1.622721 234 88 12
0.19071753 1.1696688 1.5596026 234 88 12
0.18634434 1.1733966 1.5936633 234 88 12
0.18647511 1.1563257 1.4117099 234 88 12
0.17227595 1.1582155 1.4133307 234 88 12
0.1659032 1.1766545 1.6017278 234 88 12
0.16152434 1.1611888 1.4310113 234 88 12
0.15815032 1.1595155 1.4087534 234 88 12
0.14731905 1.1581485 1.380026 234 88 12
0.14355314 1.1575069 1.3682632 234 88 12
0.14034174 1.1613703 1.4052869 234 88 12
0.13292257 1.1609278 1.3908775 234 88 12
0.1254624 1.1610485 1.3824245 234 88 12
0.12404237 1.1680312 1.4550655 234 88 12
0.11950885 1.1654469 1.4215741 234 88 12
0.099063508 1.1626803 1.3653595 234 88 12
0.094257101 1.1674231 1.4096836 234 88 12
0.087624192 1.1635929 1.3601584 234 88 12
0.11007199 1.19814 1.7580431 234 88 12
0.28757352 1.146083 1.3983907 234 88 12
0.28399032 1.1465216 1.3983907 234 88 12
0.26965749 1.1482759 1.3983907 234 88 12
0.26249111 1.1491531 1.3983907 234 88 12
0.25890788 1.1495917 1.3983907 234 88 12
0.24815829 1.1509074 1.3983907 234 88 12
0.23740868 1.1522231 1.3983907 234 88 12
0.21859308 1.1557866 1.4123313 234 88 12
0.21505879 1.1562192 1.4123313 234 88 12
0.2048227 1.1627756 1.4709836 234 88 12
0.2014942 1.1631831 1.4709836 234 88 12
0.19967189 1.1605076 1.4389282 234 88 12
0.19356263 1.1668046 1.500298 234 88 12
0.18665925 1.1759695 1.5923091 234 88 12
0.18118247 1.1757374 1.5823296 234 88 12
0.17604679 1.1737862 1.5537983 234 88 12
0.17619619 1.1609172 1.4116808 234 88 12
0.17017995 1.1735052 1.5427492 234 88 12
0.16896306 1.1627412 1.422062 234 88 12
0.16245048 1.1582841 1.3639531 234 88 12
0.15874645 1.1587374 1.3639531 234 88 12
0.15500237 1.161828 1.3930645 234 88 12
0.15217659 1.1950781 1.7569582 234 88 12
0.14395399 1.1607819 1.3665394 234 88 12
0.14520119 1.1959319 1.7569582 234 88 12
0.13679585 1.1629543 1.3808753 234 88 12
0.13357554 1.1973548 1.7569582 234 88 12
0.11201905 1.1676205 1.3989416 234 88 12
0.10754189 1.1663373 1.3786892 234 88 12
0.09946546 1.1659642 1.363631 234 88 12
0.28079584 1.150136 1.396719 234 88 12
0.22410396 1.1606467 1.4377133 234 88 12
0.2026798 1.1700501 1.5155478 234 88 12
0.2000452 1.1635574 1.4373229 234 88 12
0.19372699 1.1631116 1.423329 234 88 12
0.190237 1.1635387 1.423329 234 88 12
0.18051459 1.1810449 1.6106049 234 88 12
0.17562552 1.1790605 1.5809591 234 88 12
0.17359044 1.1758555 1.5413139 234 88 12
0.16405448 1.1957159 1.7558736 234 88 12
0.16139117 1.1762789 1.5290347 234 88 12
0.15914828 1.1620203 1.3622251 234 88 12
0.15530778 1.1692699 1.4400402 234 88 12
0.11914856 1.1688659 1.3846024 234 88 12
0.20665705 1.161253 1.3809597 234 88 12
0.15622075 1.2471801 2.3322723 234 88 12
0.18210901 1.1614876 1.3479183 234 88 12
0.17836098 1.1619463 1.3479183 234 88 12
0.16703846 1.1638534 1.3541358 234 88 12
0.1586099 1.1794258 1.5275793 234 88 12
0.096877933 1.20603 1.7547888 234 88 12
0.089902535 1.2068838 1.7547888 234 88 12
0.14460865 1.2486013 2.3322723 234 88 12
0.24574126 1.1608735 1.3933756 234 88 12
0.23857486 1.1617507 1.3933756 234 88 12
0.22424205 1.1635051 1.3933756 234 88 12
0.21925496 1.165846 1.4148577 234 88 12
0.21574676 1.1662754 1.4148577 234 88 12
0.19915964 1.1665751 1.3933756 234 88 12
0.19199322 1.1674522 1.3933756 234 88 12
0.11340608 1.2060987 1.7537041 234 88 12
0.21388116 1.1679966 1.391704 234 88 12
0.18163234 1.1719439 1.391704 234 88 12
0.12760912 1.2064519 1.7526193 234 88 12
0.12295885 1.207021 1.7526193 234 88 12
0.20710348 1.1720496 1.3900323 234 88 12
0.20352028 1.1724882 1.3900323 234 88 12
0.19277067 1.173804 1.3900323 234 88 12
0.12321109 1.2090819 1.7515346 234 88 12
0.11158544 1.2105049 1.7515346 234 88 12
0.10228492 1.2116432 1.7515346 234 88 12
0.16807698 1.1800499 1.3883606 234 88 12
0.1756321 1.1823486 1.3866889 234 88 12
0.1684657 1.1832258 1.3866889 234 88 12
0.1648825 1.1836643 1.3866889 234 88 12
0.15810482 1.1877174 1.3850173 234 88 12
0.14774394 1.192209 1.3833456 234 88 12
0.14454946 1.1958234 1.3816739 234 88 12
0.13060537 1.2007536 1.3800023 234 88 12
0.087606944 1.2060167 1.3800023 234 88 12
-1.0168737 1.1214191 1.0226973 234 88 12
-1.0244761 1.1137062 1.0226973 234 88 12
-1.0346125 1.1034223 1.0226973 234 88 12
-1.0371467 1.1008513 1.0226973 234 88 12
-1.0136696 1.1283985 1.0202113 234 88 12
-1.0263402 1.1155437 1.0202113 234 88 12
-1.0364769 1.1052598 1.0202113 234 88 12
-1.0491475 1.092405 1.0202113 234 88 12
-1.0104656 1.135378 1.0177255 234 88 12
-1.0535458 1.0916715 1.0177255 234 88 12
-1.058614 1.0865296 1.0177255 234 88 12
-1.0097957 1.1397865 1.0152395 234 88 12
-1.0141941 1.139053 1.0127536 234 88 12
-1.0243306 1.1287692 1.0127536 234 88 12
-1.0370013 1.1159143 1.0127536 234 88 12
-1.0471377 1.1056304 1.0127536 234 88 12
-1.0598084 1.0927756 1.0127536 234 88 12
-1.0699449 1.0824916 1.0127536 234 88 12
-1.072479 1.0799208 1.0127536 234 88 12
-1.0084559 1.1486034 1.0102676 234 88 12
-1.0135242 1.1434615 1.0102676 234 88 12
-1.0211265 1.1357486 1.0102676 234 88 12
-1.0261948 1.1306067 1.0102676 234 88 12
-1.0312631 1.1254647 1.0102676 234 88 12
-1.0363313 1.1203228 1.0102676 234 88 12
-1.3358597 1.3176693 1.9697044 234 88 12
-1.0566044 1.099755 1.0102676 234 88 12
-1.0591385 1.0971841 1.0102676 234 88 12
-1.0642067 1.0920421 1.0102676 234 88 12
-1.0718092 1.0843292 1.0102676 234 88 12
-1.0768774 1.0791873 1.0102676 234 88 12
-1.0103202 1.1504409 1.0077816 234 88 12
-1.0812757 1.0784538 1.0077816 234 88 12
-1.0147185 1.1497074 1.0052958 234 88 12
-1.024855 1.1394236 1.0052958 234 88 12
-1.0850042 1.0821289 1.0028098 234 88 12
-1.0926065 1.0744159 1.0028098 234 88 12
-1.0108446 1.1610954 1.0003239 234 88 12
-1.0133787 1.1585245 1.0003239 234 88 12
-1.0235152 1.1482406 1.0003239 234 88 12
-1.0260494 1.1456696 1.0003239 234 88 12
-1.277904 1.2725301 1.7622074 234 88 12
-1.0894026 1.0813954 1.0003239 234 88 12
-1.0919367 1.0788244 1.0003239 234 88 12
-1.0944709 1.0762534 1.0003239 234 88 12
-1.1020732 1.0685406 1.0003239 234 88 12
-1.0127088 1.162933 0.9978379 234 88 12
-1.0253794 1.1500781 0.9978379 234 88 12
-1.2766305 1.2746497 1.7616557 234 88 12
-1.1039374 1.0703781 0.9978379 234 88 12
-1.1064715 1.0678071 0.9978379 234 88 12
-1.1152682 1.0663402 0.99286604 234 88 12
-1.0132332 1.1735874 0.99038011 234 88 12
-1.0259038 1.1607325 0.99038011 234 88 12
-1.285746 1.2678846 1.7600005 234 88 12
-1.0150974 1.1754249 0.98789418 234 88 12
-1.0201657 1.170283 0.98789418 234 88 12
-1.025234 1.1651411 0.98789418 234 88 12
-1.0303022 1.1599991 0.98789418 234 88 12
-1.1189967 1.0700152 0.98789418 234 88 12
-1.1215309 1.0674442 0.98789418 234 88 12
-1.1265991 1.0623022 0.98789418 234 88 12
-1.0365648 1.1611031 0.98292226 234 88 12
-1.0181559 1.1835084 0.98043633 234 88 12
-1.0257584 1.1757956 0.98043633 234 88 12
-1.1397941 1.0601019 0.98043633 234 88 12
-1.0200202 1.1853459 0.97795039 234 88 12
-1.0225543 1.182775 0.97795039 234 88 12
-1.0250884 1.180204 0.97795039 234 88 12
-1.035225 1.1699201 0.97795039 234 88 12
-1.0377591 1.1673491 0.97795039 234 88 12
-1.1391243 1.0645103 0.97795039 234 88 12
-1.0244186 1.1846125 0.97546446 234 88 12
1.2927854 -1.325394 1.8951826 234 88 12
1.2971079 -1.3214468 1.8949705 234 88 12
1.1288497 -1.2270155 1.3344504 234 88 12
1.1183641 -1.239736 1.3328372 234 88 12
1.1267055 -1.231514 1.3328372 234 88 12
1.1383836 -1.2200032 1.3328372 234 88 12
1.1417202 -1.2167145 1.3328372 234 88 12
1.1128832 -1.2475232 1.3312242 234 88 12
1.1162199 -1.2442344 1.3312242 234 88 12
1.1495857 -1.2113466 1.3312242 234 88 12
1.2997707 -1.3197626 1.8943346 234 88 12
1.110739 -1.2520217 1.3296111 234 88 12
1.1124073 -1.2503773 1.3296111 234 88 12
1.1157439 -1.2470884 1.3296111 234 88 12
1.1240854 -1.2388666 1.3296111 234 88 12
1.127422 -1.2355777 1.3296111 234 88 12
1.1357634 -1.2273558 1.3296111 234 88 12
1.1391001 -1.224067 1.3296111 234 88 12
1.1474415 -1.2158451 1.3296111 234 88 12
1.1507781 -1.2125562 1.3296111 234 88 12
1.1574513 -1.2059788 1.3296111 234 88 12
1.1607878 -1.20269 1.3296111 234 88 12
1.3831198 1.3911744 1.7807825 234 88 12
1.2072302 1.2585782 1.231758 234 88 12
1.2055738 1.2602345 1.231758 234 88 12
1.202261 1.2635473 1.231758 234 88 12
1.3966925 1.3981175 1.8131983 234 88 12
1.2161162 1.2542131 1.2283331 234 88 12
1.2061778 1.2641513 1.2283331 234 88 12
1.2045215 1.2658077 1.2283331 234 88 12
1.1945832 1.2757461 1.2283331 234 88 12
1.2205592 1.2520305 1.2266208 234 88 12
1.1973698 1.2752199 1.2266208 234 88 12
1.2233459 1.2515044 1.2249084 234 88 12
-2.2018778 -0.89423066 -0.84434384 234 88 12
