ply
format ascii 1.0
element vertex 2175
property float x
property float y
property float z
property uchar red
property uchar green
property uchar blue
end_header
1.3255509 -1.0618564 0.74180382 234 88 12
1.3223007 -1.051139 0.7440691 234 88 12
1.3251853 -1.0441881 0.74413657 234 88 12
1.3267453 -1.0407183 0.74413657 234 88 12
1.3357917 -1.0377051 0.74197716 234 88 12
1.3393673 -1.0343882 0.74139202 234 88 12
1.3358421 -1.0270407 0.74330908 234 88 12
1.3460051 -1.0242136 0.74081278 234 88 12
1.3388989 -1.016529 0.74377775 234 88 12
1.3412119 -1.0095277 0.74401212 234 88 12
1.3445374 -1.0026101 0.74395162 234 88 12
1.3460964 -0.99914235 0.74395162 234 88 12
1.358114 -0.996714 0.74088424 234 88 12
1.3501627 -0.98867434 0.74413133 234 88 12
1.3627474 -0.98640847 0.74088424 234 88 12
1.353559 -0.9817661 0.74404979 234 88 12
1.3568078 -0.97484392 0.74401146 234 88 12
1.3625942 -0.96824247 0.74322021 234 88 12
1.3675708 -0.96522397 0.74220407 234 88 12
1.364206 -0.95744777 0.74413025 234 88 12
1.4216899 -0.95474112 0.72833353 234 88 12
1.4246588 -0.9481374 0.72833353 234 88 12
1.3767829 -0.93713194 0.74316359 234 88 12
1.3787194 -0.93002188 0.74351734 234 88 12
1.3794684 -0.92642432 0.74376118 234 88 12
1.3406613 -1.0626613 0.73395091 234 88 12
1.3299781 -1.0339907 0.7404964 234 88 12
1.3496184 -1.0175809 0.73709148 234 88 12
1.3601838 -0.99351501 0.73716217 234 88 12
1.3536139 -0.98559159 0.73997557 234 88 12
1.3616203 -0.96462613 0.74036974 234 88 12
1.3722146 -0.95503908 0.73862487 234 88 12
1.3718643 -0.9476341 0.73964655 234 88 12
1.5069609 -0.96408451 0.70008123 234 88 12
1.3202511 -1.0620838 0.73611349 234 88 12
1.3246322 -1.0516771 0.73619527 234 88 12
1.3264318 -1.0446754 0.73656547 234 88 12
1.3279915 -1.0412061 0.73656547 234 88 12
1.3305089 -1.0342295 0.73673546 234 88 12
1.3344675 -1.0273461 0.7364983 234 88 12
1.3367517 -1.0239308 0.73629272 234 88 12
1.3485997 -1.0212514 0.73337024 234 88 12
1.3429062 -1.0136548 0.73587137 234 88 12
1.3419608 -1.0099778 0.7365849 234 88 12
1.3448478 -1.0030175 0.73665142 234 88 12
1.3460175 -0.99951005 0.7367633 234 88 12
1.3490243 -0.99255574 0.73679614 234 88 12
1.3532003 -0.98572713 0.73649251 234 88 12
1.3547597 -0.9822588 0.73649251 234 88 12
1.359428 -0.97185248 0.73649532 234 88 12
1.3633898 -0.96502423 0.73625046 234 88 12
1.3672153 -0.95450914 0.73649812 234 88 12
1.3708373 -0.951334 0.73589551 234 88 12
1.3723937 -0.94787216 0.73589551 234 88 12
1.3740535 -0.93701768 0.73677981 234 88 12
1.3797789 -0.93049818 0.73601258 234 88 12
1.3943365 -0.91440117 0.73400247 234 88 12
1.3910462 -0.95436722 0.72646046 234 88 12
1.3875351 -0.93559659 0.72970492 234 88 12
1.3772541 -0.93023998 0.73315001 234 88 12
1.386824 -0.92066568 0.73172045 234 88 12
1.3867928 -0.91318661 0.73264188 234 88 12
1.4076242 -0.91325229 0.72697818 234 88 12
1.3945225 -0.90711355 0.73128462 234 88 12
1.3960747 -0.90366113 0.73128462 234 88 12
1.4040473 -0.90145338 0.72938955 234 88 12
1.4491761 -0.90662569 0.71650583 234 88 12
1.4017259 -0.89350373 0.73099017 234 88 12
1.4212998 -0.89374036 0.72564697 234 88 12
1.3238944 -1.0626594 0.72790086 234 88 12
1.3239807 -1.052072 0.7291553 234 88 12
1.3269068 -1.0451208 0.72920877 234 88 12
1.3364742 -1.0385672 0.72743171 234 88 12
1.3318431 -1.0347241 0.72913843 234 88 12
1.3348746 -1.0277776 0.72916305 234 88 12
1.336435 -1.0243071 0.72916305 234 88 12
1.3399199 -1.0173951 0.72906172 234 88 12
1.3442888 -1.0069596 0.72914845 234 88 12
1.3474092 -1.000019 0.72914845 234 88 12
1.3540552 -0.99343789 0.72815877 234 88 12
1.351946 -0.98959297 0.72918886 234 88 12
1.3535064 -0.98612219 0.72918886 234 88 12
1.3685191 -0.98415583 0.72539663 234 88 12
1.3588508 -0.97943676 0.72856116 234 88 12
1.3619654 -0.97250926 0.72856116 234 88 12
1.3627417 -0.96528143 0.72922504 234 88 12
1.3695334 -0.95516026 0.72862345 234 88 12
1.3825973 -0.95332843 0.72533804 234 88 12
1.3771044 -0.94887871 0.72734934 234 88 12
1.3758873 -0.9376151 0.72903526 234 88 12
1.3795949 -0.9307726 0.7288658 234 88 12
1.3948357 -0.92219591 0.72581005 234 88 12
1.387323 -0.91342503 0.72888494 234 88 12
1.4023787 -0.91243011 0.72496396 234 88 12
1.3909456 -0.90658456 0.72873813 234 88 12
1.3925036 -0.90311885 0.72873813 234 88 12
1.4043382 -0.89415962 0.72664279 234 88 12
1.4062747 -0.88703382 0.72698295 234 88 12
1.3316339 -1.0561664 0.72304547 234 88 12
1.3321135 -1.0526718 0.72333509 234 88 12
1.3402928 -1.0495603 0.72153616 234 88 12
1.358893 -1.0401193 0.71772742 234 88 12
1.3358729 -1.0280486 0.72527486 234 88 12
1.3453107 -1.010844 0.72482312 234 88 12
1.4026093 -1.0020211 0.71067333 234 88 12
1.3607037 -0.97252959 0.72530937 234 88 12
1.377632 -0.94911593 0.72361094 234 88 12
1.3857801 -0.92077845 0.72482938 234 88 12
1.4139557 -0.91468889 0.71808034 234 88 12
1.4040731 -0.89798772 0.72269452 234 88 12
1.4000108 -0.88585943 0.72521901 234 88 12
1.4009053 -1.0495061 0.70210099 234 88 12
1.3421313 -1.042842 0.71829826 234 88 12
1.3390938 -1.0355915 0.71994954 234 88 12
1.3478267 -1.0326158 0.71801037 234 88 12
1.3712856 -0.97035831 0.71919876 234 88 12
1.3819664 -0.96447045 0.71709216 234 88 12
1.3836459 -0.95379984 0.71790975 234 88 12
1.3781551 -0.9493525 0.71987385 234 88 12
1.3850291 -0.93565762 0.71968585 234 88 12
1.3866857 -0.92852241 0.72009265 234 88 12
1.4080908 -0.88389522 0.71974099 234 88 12
1.3776399 -1.0278904 0.70728374 234 88 12
1.3415549 -1.0217012 0.71735507 234 88 12
1.3427531 -1.0182086 0.71745145 234 88 12
1.3456546 -1.0148532 0.71709049 234 88 12
1.3462244 -1.0077058 0.71777552 234 88 12
1.3497937 -1.00081 0.71765399 234 88 12
1.3541898 -0.99762082 0.71688646 234 88 12
1.3543863 -0.99039769 0.717677 234 88 12
1.3588611 -0.9836126 0.71730798 234 88 12
1.362429 -0.97308725 0.71760964 234 88 12
1.3644774 -0.96601582 0.71790266 234 88 12
1.3727275 -0.94872731 0.71777898 234 88 12
1.3781281 -0.93843138 0.71757907 234 88 12
1.3857504 -0.92106712 0.71762687 234 88 12
1.3882923 -0.91402882 0.71778816 234 88 12
1.389852 -0.91055948 0.71778816 234 88 12
1.3931541 -0.90365541 0.7177369 234 88 12
1.3970176 -0.89308572 0.71796715 234 88 12
1.4006933 -0.88625789 0.71781015 234 88 12
1.3598471 -1.0055306 0.71094263 234 88 12
1.4081 -0.89168608 0.71169299 234 88 12
1.3557382 -0.99814451 0.7092613 234 88 12
1.3546938 -0.99079597 0.710361 234 88 12
1.3582418 -0.98390257 0.71024752 234 88 12
1.3628837 -0.97349077 0.71025741 234 88 12
1.3705807 -0.96347851 0.70944923 234 88 12
1.3704146 -0.95610785 0.71032935 234 88 12
1.3719747 -0.95263779 0.71032935 234 88 12
1.379707 -0.95005977 0.70866692 234 88 12
1.3754253 -0.94574648 0.71024024 234 88 12
1.3784465 -0.9387933 0.71026677 234 88 12
1.3796636 -0.93526977 0.71035963 234 88 12
1.3827871 -0.92832941 0.7103588 234 88 12
1.3870336 -0.92158228 0.71005201 234 88 12
1.3885922 -0.9181155 0.71005201 234 88 12
1.3918567 -0.91120875 0.71001178 234 88 12
1.393603 -0.90401638 0.71038795 234 88 12
1.3982805 -0.89360332 0.71038896 234 88 12
1.4086264 -0.89192277 0.70796353 234 88 12
1.4012591 -0.88663226 0.71042836 234 88 12
1.3766812 -0.98253846 0.70219505 234 88 12
1.3618546 -0.97719854 0.70649844 234 88 12
1.4029768 -0.97497821 0.69647557 234 88 12
1.3865103 -0.94019669 0.70449513 234 88 12
1.389608 -0.93330634 0.70449513 234 88 12
1.396854 -0.93080103 0.70296645 234 88 12
1.4456935 -0.93181348 0.69065267 234 88 12
1.3992873 -0.91642666 0.70397294 234 88 12
1.4142532 -0.90436566 0.70158905 234 88 12
1.3974887 -0.89735949 0.70656365 234 88 12
1.3544304 -0.99476743 0.70277971 234 88 12
1.3576854 -0.9878425 0.70274478 234 88 12
1.3620859 -0.98468769 0.70200914 234 88 12
1.3620303 -0.98104364 0.70242703 234 88 12
1.363745 -0.97394377 0.70279145 234 88 12
1.3683082 -0.96351898 0.70282197 234 88 12
1.3776585 -0.96109313 0.70078444 234 88 12
1.3774418 -0.95740503 0.70124698 234 88 12
1.3764864 -0.94622356 0.70272279 234 88 12
1.3953493 -0.91212881 0.70185095 234 88 12
1.395492 -0.90465033 0.70264518 234 88 12
1.3976473 -0.90129721 0.70248538 234 88 12
1.3995795 -0.89412814 0.70280385 234 88 12
1.4025238 -0.88715166 0.7028513 234 88 12
1.3873485 -0.99491858 0.68763608 234 88 12
1.3614391 -0.98133254 0.69533467 234 88 12
1.359882 -0.98862284 0.69131726 234 88 12
1.3627533 -0.98166007 0.69137877 234 88 12
1.3666712 -0.9748199 0.6911788 234 88 12
1.376914 -0.96514821 0.68977988 234 88 12
1.3736522 -0.95738083 0.69138277 234 88 12
1.3796058 -0.94716406 0.69105995 234 88 12
1.362401 -0.98544115 0.68745464 234 88 12
1.3660477 -0.97874749 0.68369913 234 88 12
1.366194 -0.9751122 0.68404299 234 88 12
1.8290403 0.060639393 0.27099711 234 88 12
1.7850152 0.059907008 0.28950155 234 88 12
1.8498589 0.069530599 0.2620492 234 88 12
1.8172164 0.055929814 0.27249399 234 88 12
1.7533077 0.053089254 0.29914555 234 88 12
1.7924914 0.064258881 0.28258905 234 88 12
1.784472 0.067180201 0.2858583 234 88 12
1.8172723 0.052405629 0.26897475 234 88 12
1.7529277 0.049271837 0.29556134 234 88 12
1.864007 0.064140104 0.24944992 234 88 12
1.7606508 0.057582818 0.29219028 234 88 12
1.8267111 0.0674114 0.26474482 234 88 12
1.7641343 0.065393589 0.29057759 234 88 12
1.8142365 0.073347494 0.26975077 234 88 12
1.7482409 0.044987753 0.293742 234 88 12
1.86406 0.060799032 0.24611354 234 88 12
1.7605047 0.057574779 0.28845361 234 88 12
1.826575 0.067403913 0.26126522 234 88 12
1.8167112 0.07002905 0.26523229 234 88 12
1.8088992 0.07290221 0.26835632 234 88 12
1.7602305 0.042525366 0.28510338 234 88 12
1.7566949 0.053446896 0.28628966 234 88 12
1.8416122 0.068791792 0.25162086 234 88 12
1.8342345 0.071576849 0.25454128 234 88 12
1.8497049 0.076341145 0.24818148 234 88 12
1.7440115 0.044548437 0.28775266 234 88 12
1.84077 0.075592928 0.24833369 234 88 12
1.7456586 0.056169733 0.28298515 234 88 12
1.8164089 0.066484183 0.25471413 234 88 12
1.787782 0.06749519 0.26604 234 88 12
1.8017545 0.072312966 0.26039606 234 88 12
1.7458807 0.04095111 0.27937585 234 88 12
1.7429454 0.044449404 0.28045237 234 88 12
1.7462867 0.05623598 0.27888632 234 88 12
1.778841 0.066712581 0.2658827 234 88 12
1.9575117 0.085426152 0.19535157 234 88 12
1.8462288 0.052140348 0.23629147 234 88 12
1.9575589 0.082453229 0.19238283 234 88 12
1.804787 0.072576314 0.25195771 234 88 12
1.7422999 0.071133345 0.27626964 234 88 12
1.7613173 0.042687654 0.26569811 234 88 12
1.744055 0.044584308 0.27229813 234 88 12
1.7437842 0.056008257 0.27216041 234 88 12
1.8048437 0.069011405 0.24839783 234 88 12
2.0112262 0.089953244 0.1685667 234 88 12
1.7550133 0.072157577 0.26749909 234 88 12
1.7475185 0.082931422 0.27015394 234 88 12
1.7459319 0.021897512 0.26820275 234 88 12
1.7455143 0.02948474 0.26820275 234 88 12
1.7588842 0.038661715 0.26291987 234 88 12
1.7483441 0.041250613 0.26687875 234 88 12
1.7492117 0.045146469 0.26646677 234 88 12
1.7898518 0.067696132 0.25052047 234 88 12
1.7896528 0.071310863 0.25052047 234 88 12
1.7603472 0.072589397 0.26165178 234 88 12
1.7417936 0.074915305 0.26866734 234 88 12
1.7730899 0.014314049 0.25427336 234 88 12
1.7462012 0.014302116 0.26440632 234 88 12
1.7591496 0.03117332 0.25917691 234 88 12
1.749064 0.04513834 0.26268792 234 88 12
1.7420754 0.063494861 0.26494071 234 88 12
1.7514111 0.075653009 0.26117051 234 88 12
1.7481104 -0.03131263 0.26077864 234 88 12
1.7533312 -0.02653005 0.25873351 234 88 12
1.7493814 -0.023421491 0.26014268 234 88 12
1.7583843 -0.0180302 0.25667456 234 88 12
1.7517259 -0.015374322 0.25910318 234 88 12
1.7507201 -0.0079138894 0.25932512 234 88 12
1.746287 -0.00097327289 0.26083589 234 88 12
1.746078 0.0028226746 0.26083589 234 88 12
1.7604342 0.012521682 0.25528303 234 88 12
1.7453406 0.014195166 0.26087746 234 88 12
1.7451316 0.017991543 0.26087746 234 88 12
1.7451684 0.029462364 0.26062828 234 88 12
1.7436508 0.036923155 0.26104113 234 88 12
1.7431359 0.044508889 0.26107743 234 88 12
1.7430212 0.05595332 0.26088527 234 88 12
1.7442895 0.063694671 0.2602534 234 88 12
1.7441747 0.0712988 0.26014015 234 88 12
1.7412504 0.082507379 0.2610006 234 88 12
1.741761 0.090159185 0.26065317 234 88 12
1.7633814 0.098917611 0.25241053 234 88 12
1.7530327 0.10212713 0.25620398 234 88 12
1.7629731 0.10633551 0.25241053 234 88 12
1.7556752 0.10975014 0.25506204 234 88 12
1.7499719 0.11704414 0.25703925 234 88 12
1.7495582 0.12455764 0.25703925 234 88 12
1.745204 0.12822244 0.25858787 234 88 12
1.7677014 0.13241094 0.250112 234 88 12
1.7473626 -0.02376236 0.25704804 234 88 12
1.7560508 -0.010826921 0.25357926 234 88 12
1.7558439 -0.0070670499 0.25357926 234 88 12
1.7511168 0.075636812 0.25364381 234 88 12
1.7419032 0.097776748 0.25659412 234 88 12
1.7405493 0.10912053 0.25686333 234 88 12
1.7401316 0.1167088 0.25686333 234 88 12
1.7383976 0.12806664 0.25727254 234 88 12
1.7441159 0.13197362 0.25508299 234 88 12
1.7482533 0.13581201 0.25347826 234 88 12
1.7472126 -0.03527787 0.25348094 234 88 12
1.7471998 -0.03144294 0.25340861 234 88 12
1.7465043 -0.023896791 0.25351089 234 88 12
1.7458003 -0.016347749 0.25361624 234 88 12
1.7481619 -0.008297056 0.25259218 234 88 12
1.7474048 0.0030505701 0.25264058 234 88 12
1.7445941 0.010288558 0.25352132 234 88 12
1.7438326 0.017840141 0.2536476 234 88 12
1.7436185 0.029291803 0.25349566 234 88 12
1.7429409 0.036859225 0.25359097 234 88 12
1.743945 0.044611424 0.25306857 234 88 12
1.7425566 0.055920906 0.25334823 234 88 12
1.7472841 0.063968018 0.25146046 234 88 12
1.7534168 0.068278678 0.24913469 234 88 12
1.7415524 0.071095824 0.25340995 234 88 12
1.7414598 0.082525775 0.253214 234 88 12
1.740708 0.090096831 0.25333637 234 88 12
1.7401212 0.097681835 0.25339815 234 88 12
1.7395413 0.10907669 0.25338092 234 88 12
1.7385362 0.11665177 0.25359562 234 88 12
1.7403125 0.12051085 0.25286958 234 88 12
1.7388098 0.12426922 0.25334269 234 88 12
1.73804 0.13185686 0.25347129 234 88 12
1.7588321 0.13595909 0.24579741 234 88 12
1.7534765 0.064517915 0.24537921 234 88 12
1.7396017 0.10527106 0.24958062 234 88 12
1.7461452 0.12445596 0.24683569 234 88 12
1.7738142 0.13617001 0.23660864 234 88 12
1.8092031 -0.027078796 0.22346143 234 88 12
1.747785 -0.027463188 0.24541357 234 88 12
1.7464421 -0.023871362 0.24582277 234 88 12
1.746784 -0.016146371 0.2455487 234 88 12
1.7458118 -0.0086463373 0.24574853 234 88 12
1.7449346 0.0027073331 0.24583873 234 88 12
1.7441822 0.010255855 0.24595906 234 88 12
1.7438257 0.01786292 0.24593684 234 88 12
1.7550043 0.030713001 0.24169007 234 88 12
1.7428225 0.040685747 0.24584644 234 88 12
1.7429686 0.044522054 0.24571885 234 88 12
1.7433891 0.056012757 0.2453426 234 88 12
1.7426573 0.063570566 0.24545544 234 88 12
1.7412076 0.071075656 0.24582583 234 88 12
1.7405651 0.08246842 0.24583134 234 88 12
1.7400913 0.090061031 0.24585132 234 88 12
1.7401488 0.097682722 0.24568087 234 88 12
1.7394872 0.10145681 0.24584305 234 88 12
1.7392374 0.10906005 0.24578278 234 88 12
1.7378322 0.12423513 0.24598645 234 88 12
1.7377467 0.13184057 0.2458674 234 88 12
1.7571213 0.13592252 0.23886462 234 88 12
1.7494451 -0.038623128 0.24119507 234 88 12
1.7509482 -0.015421575 0.24021257 234 88 12
1.7431704 0.029266991 0.24209195 234 88 12
1.7387208 0.11664852 0.24196479 234 88 12
1.7503686 -0.034599684 0.2369512 234 88 12
1.7394842 0.09002582 0.23835789 234 88 12
1.7454929 0.10553403 0.23595957 234 88 12
1.7534485 0.10964584 0.2331001 234 88 12
1.7583317 -0.029279746 0.23026 234 88 12
1.7581252 -0.025528146 0.23026 234 88 12
1.7625576 -0.017182605 0.22856945 234 88 12
1.7569031 -0.014375759 0.23047024 234 88 12
1.7466549 -0.0084620016 0.2338994 234 88 12
1.7455751 0.0028461178 0.23405747 234 88 12
1.7441 0.010283135 0.23442577 234 88 12
1.7440785 0.017932508 0.23428766 234 88 12
1.7432011 0.02929097 0.23437485 234 88 12
1.7426373 0.036868967 0.23442557 234 88 12
1.7425685 0.044502426 0.23430413 234 88 12
1.7413508 0.055835679 0.23450939 234 88 12
1.741343 0.063469596 0.23436685 234 88 12
1.7414564 0.071106844 0.23418242 234 88 12
1.7471558 0.079140678 0.23205997 234 88 12
1.7592283 0.09122806 0.22765788 234 88 12
1.745356 0.094171979 0.23239604 234 88 12
1.7389911 0.1090438 0.23431274 234 88 12
1.7385732 0.11663722 0.23431274 234 88 12
1.753201 0.12087785 0.22917689 234 88 12
1.7381459 0.12423039 0.23431598 234 88 12
1.7384589 0.13183729 0.23406313 234 88 12
1.7492154 0.01483155 0.22874063 234 88 12
1.7456257 0.11687233 0.22804813 234 88 12
1.752655 0.12085784 0.22557133 234 88 12
1.755219 0.1321395 0.22448313 234 88 12
1.742483 0.025397282 0.22698866 234 88 12
1.7427399 0.029254442 0.22683017 234 88 12
1.7434154 0.036976479 0.22645847 234 88 12
1.7416234 0.044416465 0.22692542 234 88 12
1.7464364 0.056334741 0.22507809 234 88 12
1.7405459 0.063409247 0.22693628 234 88 12
1.7428538 0.071226418 0.22601138 234 88 12
1.7443162 0.029468469 0.21860602 234 88 12
1.7430601 0.036953423 0.21888457 234 88 12
1.7413162 0.044399034 0.21932481 234 88 12
1.7412841 0.055853497 0.21912736 234 88 12
1.7402697 0.063394725 0.21932517 234 88 12
1.7480139 0.037541773 0.20958839 234 88 12
0.974379 1.4467497 0.59931999 234 88 12
1.0166575 1.4718112 0.58025426 234 88 12
0.97105443 1.4529946 0.59849316 234 88 12
1.0226973 1.4822748 0.57558167 234 88 12
1.0281763 1.4886359 0.57222939 234 88 12
1.0221186 1.4893624 0.57373887 234 88 12
1.005869 1.4852389 0.57950699 234 88 12
0.98161376 1.4465355 0.59373301 234 88 12
0.9646073 1.4419255 0.59979856 234 88 12
1.0723665 1.4997048 0.55334884 234 88 12
0.96736938 1.4512655 0.59640276 234 88 12
1.0283518 1.4888113 0.56875598 234 88 12
1.0222946 1.4895386 0.57025152 234 88 12
1.2663816 1.6126752 0.46720955 234 88 12
1.0307673 1.4715652 0.56950396 234 88 12
0.96479726 1.4421154 0.59603697 234 88 12
0.99150735 1.4633055 0.5827176 234 88 12
0.99293655 1.4678501 0.58105648 234 88 12
1.0188594 1.4842819 0.56927907 234 88 12
0.98780233 1.4729843 0.58105648 234 88 12
1.1467005 1.5528177 0.51467323 234 88 12
1.2665094 1.612803 0.46467853 234 88 12
0.96305031 1.4373037 0.59418732 234 88 12
0.95726556 1.438421 0.59547335 234 88 12
0.96655375 1.4470838 0.59052724 234 88 12
1.2912164 1.6116816 0.45571929 234 88 12
1.0462872 1.4941193 0.55559808 234 88 12
1.0366828 1.4930449 0.5585404 234 88 12
1.0342424 1.4954853 0.5585404 234 88 12
1.0475315 1.5054513 0.55213284 234 88 12
1.5638853 1.7539467 0.34139082 234 88 12
0.96674287 1.447273 0.58678222 234 88 12
0.96408802 1.4499278 0.58678222 234 88 12
1.0464596 1.4942918 0.55218333 234 88 12
1.0368568 1.4932188 0.55509788 234 88 12
1.0167252 1.4871254 0.56225729 234 88 12
1.0388638 1.5013944 0.55231798 234 88 12
1.041351 1.5061442 0.55034232 234 88 12
0.95955557 1.43572 0.58820814 234 88 12
0.95705789 1.438507 0.58812988 234 88 12
0.95649368 1.4422566 0.58726835 234 88 12
1.0217973 1.4822842 0.5587799 234 88 12
1.0025373 1.4803747 0.56450552 234 88 12
0.97695112 1.471876 0.57372427 234 88 12
0.98231822 1.4668782 0.57006902 234 88 12
0.97972697 1.4694694 0.57006902 234 88 12
1.0632708 1.513244 0.53595668 234 88 12
1.0824604 1.5258145 0.52744722 234 88 12
0.88031542 1.5171152 0.58393854 234 88 12
0.88353837 1.5220902 0.58174211 234 88 12
0.88817942 1.5275673 0.57903117 234 88 12
0.90248907 1.5366676 0.57275897 234 88 12
0.87939662 1.5315641 0.58031344 234 88 12
0.95496315 1.4457037 0.57939106 234 88 12
1.0681504 1.5087001 0.53263342 234 88 12
1.1641974 1.5584935 0.49392861 234 88 12
1.1585773 1.5619798 0.49449492 234 88 12
0.9647119 1.4739375 0.56931084 234 88 12
0.93620944 1.4644836 0.57938415 234 88 12
0.92724496 1.468197 0.5807777 234 88 12
0.88856763 1.5092459 0.58014834 234 88 12
0.89612532 1.5160081 0.57634795 234 88 12
0.88640046 1.5196087 0.57797325 234 88 12
0.88132274 1.5213493 0.57885891 234 88 12
0.87760133 1.5273262 0.57826036 234 88 12
0.89303654 1.5368173 0.57164508 234 88 12
0.87303764 1.5329661 0.57797474 234 88 12
0.95659924 1.4385624 0.57715583 234 88 12
1.008909 1.4799923 0.5525161 234 88 12
1.2234901 1.5871481 0.46794671 234 88 12
1.1476595 1.5537506 0.49665758 234 88 12
0.95716256 1.4666089 0.56963563 234 88 12
0.93065512 1.465941 0.57677877 234 88 12
0.92796522 1.4686308 0.57677877 234 88 12
0.92099476 1.477191 0.57636088 234 88 12
0.93752205 1.5108305 0.56317443 234 88 12
0.9101916 1.5031345 0.57238126 234 88 12
0.89809078 1.5056807 0.57489264 234 88 12
0.87720704 1.5198737 0.57665133 234 88 12
0.88556886 1.5341237 0.5707078 234 88 12
0.94678986 1.449898 0.57306021 234 88 12
1.1027893 1.5290567 0.51184571 234 88 12
0.9599902 1.4641573 0.56591213 234 88 12
0.95471096 1.4694365 0.56591213 234 88 12
0.92625403 1.4796437 0.5706628 234 88 12
0.93122858 1.4857 0.56779134 234 88 12
1.100512 1.563746 0.50340843 234 88 12
0.91864687 1.4878433 0.57050854 234 88 12
0.98344886 1.5231475 0.54444969 234 88 12
0.90887052 1.4951153 0.5711605 234 88 12
0.90190238 1.4959916 0.57274628 234 88 12
0.92173553 1.5191269 0.56156105 234 88 12
0.88951725 1.5098561 0.57236117 234 88 12
0.89059168 1.5177664 0.57002234 234 88 12
0.87341833 1.5333468 0.57043701 234 88 12
0.9618209 1.4373403 0.5687263 234 88 12
0.95593369 1.4424573 0.56892484 234 88 12
0.94698149 1.4500897 0.56926507 234 88 12
0.98934156 1.4782772 0.55107999 234 88 12
0.94199103 1.4596202 0.56809479 234 88 12
0.939309 1.4623022 0.56809479 234 88 12
0.94358999 1.4682269 0.56546408 234 88 12
0.93826371 1.4735532 0.56546408 234 88 12
0.9258337 1.4717834 0.56912434 234 88 12
0.91766089 1.4798054 0.5691632 234 88 12
0.91322207 1.4855936 0.56881541 234 88 12
0.94384181 1.5026283 0.55653149 234 88 12
0.90526336 1.4936986 0.56877768 234 88 12
0.90257645 1.4963856 0.56877768 234 88 12
0.89847219 1.5060622 0.56734133 234 88 12
0.8903085 1.5065179 0.56932819 234 88 12
0.88474184 1.5118262 0.56939477 234 88 12
0.89875323 1.524778 0.56244445 234 88 12
0.88024247 1.5212826 0.56811702 234 88 12
0.87485927 1.5229298 0.56908 234 88 12
0.90002578 1.5433807 0.55732119 234 88 12
0.97479308 1.4440047 0.56002253 234 88 12
0.95712954 1.4391152 0.56577873 234 88 12
0.94377971 1.4684166 0.56170738 234 88 12
0.97294986 1.4269769 0.56114691 234 88 12
0.9675768 1.4323499 0.56114691 234 88 12
0.96560478 1.4394453 0.55985236 234 88 12
0.9639889 1.4426552 0.55944955 234 88 12
0.9529047 1.4451706 0.56161475 234 88 12
0.95548892 1.4504436 0.55962932 234 88 12
0.94703466 1.4543 0.56079113 234 88 12
0.94197029 1.4598116 0.56067818 234 88 12
0.93624276 1.4610654 0.56180859 234 88 12
0.93044496 1.4662567 0.56196183 234 88 12
0.92775244 1.4689492 0.56196183 234 88 12
0.9213559 1.4777763 0.56134766 234 88 12
0.91294777 1.485691 0.56147242 234 88 12
0.9045732 1.4936275 0.56158304 234 88 12
0.89399052 1.5044585 0.56152034 234 88 12
0.88512528 1.5122097 0.56180185 234 88 12
0.88859975 1.5210471 0.55869079 234 88 12
0.87710881 1.5203059 0.5617817 234 88 12
0.87095982 1.5291029 0.56111258 234 88 12
0.88178992 1.5368227 0.55642533 234 88 12
0.98672986 1.426165 0.55420917 234 88 12
0.97582781 1.4244817 0.55735719 234 88 12
0.92723823 1.4805046 0.55549788 234 88 12
0.90523422 1.4940177 0.55762178 234 88 12
0.98070467 1.4189314 0.55382907 234 88 12
0.96772319 1.4605531 0.54673803 234 88 12
0.95703053 1.4593101 0.54969317 234 88 12
0.94802737 1.4589387 0.55201417 234 88 12
0.93889505 1.4625136 0.55339015 234 88 12
0.94897527 1.4826958 0.54589748 234 88 12
0.92991793 1.4779397 0.55179346 234 88 12
0.91976994 1.4811651 0.55350745 234 88 12
0.92020369 1.4852175 0.55239671 234 88 12
0.90036267 1.5035107 0.55277991 234 88 12
0.89755791 1.5136509 0.55096376 234 88 12
0.88467979 1.5381355 0.5480901 234 88 12
1.017935 1.4309973 0.53805077 234 88 12
0.98370391 1.4164988 0.54999161 234 88 12
0.97535342 1.4244125 0.55009866 234 88 12
0.97347635 1.4275261 0.54979563 234 88 12
0.96715683 1.4324126 0.55014676 234 88 12
0.96385717 1.4347905 0.55037266 234 88 12
0.95995289 1.4409144 0.54982877 234 88 12
0.95575708 1.4428504 0.55038249 234 88 12
0.95987743 1.4568418 0.54594433 234 88 12
0.94525373 1.4537405 0.55028772 234 88 12
0.94503945 1.473298 0.54554784 234 88 12
0.93004954 1.4703119 0.54995269 234 88 12
0.9346841 1.4763194 0.54734492 234 88 12
0.91107285 1.4890575 0.55000931 234 88 12
0.90590757 1.4945234 0.54993564 234 88 12
0.90336049 1.4972701 0.54988676 234 88 12
0.89208531 1.5078071 0.5500676 234 88 12
0.8950808 1.516508 0.54720151 234 88 12
0.88460284 1.5161029 0.54986829 234 88 12
0.87863165 1.521247 0.550071 234 88 12
0.87748075 1.5245242 0.54955 234 88 12
0.87028575 1.5292083 0.55016524 234 88 12
1.0661842 1.4458659 0.51917034 234 88 12
1.0233158 1.4259865 0.53438616 234 88 12
1.0033739 1.4190589 0.5409019 234 88 12
0.98629087 1.4138427 0.54630929 234 88 12
0.98446167 1.4169962 0.54598808 234 88 12
0.96006674 1.4570311 0.54219556 234 88 12
0.93794245 1.4701273 0.54438478 234 88 12
0.91426265 1.4943618 0.54425025 234 88 12
0.91158938 1.497035 0.54425025 234 88 12
0.90831286 1.5032409 0.54353994 234 88 12
1.0424254 1.4166025 0.52847683 234 88 12
1.0253022 1.4108692 0.53396106 234 88 12
1.0040059 1.4029021 0.54098254 234 88 12
1.02759 1.4203533 0.53113645 234 88 12
0.99482709 1.4061221 0.54241228 234 88 12
0.9889102 1.4112017 0.54261321 234 88 12
0.98396778 1.4168174 0.54245168 234 88 12
0.97573656 1.4247956 0.54251236 234 88 12
0.97264087 1.427272 0.54266101 234 88 12
0.9689467 1.4335194 0.54204839 234 88 12
0.96493757 1.4355295 0.54252797 234 88 12
0.95966649 1.4409615 0.54248941 234 88 12
0.95697767 1.4436502 0.54248941 234 88 12
0.94995362 1.4522223 0.54211795 234 88 12
0.94590747 1.4542539 0.54260135 234 88 12
0.94061559 1.4596746 0.54257047 234 88 12
0.93983072 1.4632572 0.54189914 234 88 12
0.92816317 1.4735724 0.54222363 234 88 12
0.92136222 1.4783102 0.54271865 234 88 12
0.92351109 1.4908158 0.53920245 234 88 12
0.92789292 1.4965088 0.53678507 234 88 12
1.0128719 1.3911939 0.53797138 234 88 12
1.0101888 1.3938769 0.53797138 234 88 12
1.0089308 1.4057773 0.53544497 234 88 12
1.0009947 1.4137974 0.53542507 234 88 12
0.9815262 1.436056 0.53476268 234 88 12
0.96518695 1.4478298 0.53584647 234 88 12
0.94073045 1.4832156 0.533252 234 88 12
0.92298108 1.4791373 0.53843361 234 88 12
0.94554067 1.4967325 0.52890134 234 88 12
1.0166883 1.3849833 0.5348385 234 88 12
1.0154448 1.3885241 0.53429902 234 88 12
1.0114216 1.3988971 0.53280789 234 88 12
1.0049298 1.3993864 0.53421742 234 88 12
0.99821264 1.4039937 0.53471291 234 88 12
0.99852121 1.4166504 0.53166819 234 88 12
0.98660368 1.4142747 0.53502476 234 88 12
0.98371762 1.4168584 0.53509575 234 88 12
0.97861201 1.4264921 0.5340324 234 88 12
0.97278124 1.4275281 0.5351584 234 88 12
0.96723026 1.4328227 0.5352186 234 88 12
0.9656601 1.4360857 0.53482103 234 88 12
0.97042578 1.442543 0.53218549 234 88 12
0.95665044 1.44368 0.53515345 234 88 12
0.95368505 1.4542289 0.53337258 234 88 12
0.9464711 1.4547238 0.53495044 234 88 12
0.94894785 1.4598762 0.53315884 234 88 12
0.94098109 1.4600494 0.53498906 234 88 12
0.93893719 1.4630414 0.53476638 234 88 12
0.97433186 1.4834286 0.52166688 234 88 12
0.94137651 1.4720179 0.53208554 234 88 12
0.93249393 1.4718447 0.53421217 234 88 12
0.92981058 1.474528 0.53421217 234 88 12
1.0232812 1.3847121 0.5296669 234 88 12
1.0082195 1.3928939 0.53126496 234 88 12
1.0211953 1.3835384 0.52672672 234 88 12
1.0158272 1.3889064 0.52672672 234 88 12
0.988464 1.415462 0.52691233 234 88 12
0.96969306 1.4342749 0.52690268 234 88 12
0.96494335 1.4399598 0.5266878 234 88 12
0.94913292 1.4562023 0.52658856 234 88 12
0.94377559 1.465512 0.5256806 234 88 12
0.94701254 1.4709343 0.52369136 234 88 12
1.0168607 1.3853186 0.52360773 234 88 12
1.0087525 1.393364 0.52362204 234 88 12
1.0028694 1.3984554 0.52380186 234 88 12
1.0001783 1.4011464 0.52380186 234 88 12
0.99544674 1.4068912 0.52357167 234 88 12
0.98978907 1.4121164 0.52366996 234 88 12
0.98162186 1.4201342 0.52370387 234 88 12
0.97927308 1.4271116 0.52265245 234 88 12
0.97408545 1.4284842 0.5235191 234 88 12
0.96245086 1.4428346 0.52290213 234 88 12
0.9546656 1.4470104 0.52372211 234 88 12
0.94385743 1.4577498 0.52373767 234 88 12
0.93852866 1.4670954 0.52282524 234 88 12
0.93584555 1.4697785 0.52282524 234 88 12
1.0136985 1.396315 0.51814038 234 88 12
1.0110228 1.3989906 0.51814038 234 88 12
1.0083473 1.4016663 0.51814038 234 88 12
0.99246281 1.4219313 0.51715648 234 88 12
0.98018694 1.4438628 0.51498771 234 88 12
0.95911825 1.4532892 0.51760268 234 88 12
0.9548648 1.4551938 0.51813024 234 88 12
0.95163971 1.4732859 0.51479101 234 88 12
1.0223659 1.3801678 0.51611155 234 88 12
1.0166931 1.3853745 0.51621509 234 88 12
1.1330273 1.4582448 0.47420293 234 88 12
1.0086617 1.3934722 0.51620036 234 88 12
1.0509795 1.4260937 0.49956039 234 88 12
1.0010304 1.4017954 0.5160467 234 88 12
0.99777335 1.4083577 0.51531279 234 88 12
0.99419421 1.4147055 0.51469803 234 88 12
0.98749292 1.4234548 0.5142433 234 88 12
0.98244125 1.4248675 0.51505131 234 88 12
0.98293769 1.4332899 0.51307088 234 88 12
0.97144961 1.431385 0.51604474 234 88 12
0.97122753 1.4353422 0.5152154 234 88 12
0.96322304 1.4393744 0.51609743 234 88 12
0.9701339 1.4468745 0.51289755 234 88 12
0.95772493 1.4446962 0.51613659 234 88 12
0.95493996 1.44734 0.51616788 234 88 12
0.94670105 1.455332 0.51622272 234 88 12
0.94157124 1.4608337 0.51614016 234 88 12
1.0213451 1.3924733 0.50992399 234 88 12
1.0239971 1.3982558 0.50807273 234 88 12
1.0314208 1.4108928 0.50366974 234 88 12
1.0628444 1.4329462 0.49193239 234 88 12
1.0274862 1.416863 0.503223 234 88 12
1.0016735 1.4064415 0.51117581 234 88 12
0.93923306 1.463791 0.51229316 234 88 12
1.0293032 1.4014372 0.50256944 234 88 12
1.0102876 1.3945764 0.50818259 234 88 12
0.97160977 1.4357244 0.50764674 234 88 12
0.96608073 1.4369578 0.50857854 234 88 12
0.96078897 1.4423841 0.50854933 234 88 12
0.95560741 1.4478633 0.50848478 234 88 12
0.95899689 1.453522 0.50652206 234 88 12
0.95133585 1.4537798 0.50812799 234 88 12
0.95374596 1.458914 0.50649142 234 88 12
0.96736312 1.4377987 0.50070006 234 88 12
0.96505082 1.4406767 0.50058025 234 88 12
0.9617703 1.4430668 0.50076884 234 88 12
0.9604044 1.4504193 0.49950093 234 88 12
1.2360543 -1.3639262 -0.30744123 234 88 12
1.2385362 -1.3612344 -0.30768403 234 88 12
1.171917 -1.3416625 -0.26443836 234 88 12
1.2106788 -1.3477114 -0.28746495 234 88 12
1.1732513 -1.3521168 -0.27364159 234 88 12
1.4788253 -1.4210261 -0.46220782 234 88 12
1.1817305 -1.3435982 -0.27473363 234 88 12
1.2101287 -1.3471298 -0.29111758 234 88 12
1.2230511 -1.3469573 -0.29786667 234 88 12
1.1673782 -1.3537889 -0.27552608 234 88 12
1.2056502 -1.3592139 -0.29769948 234 88 12
1.1607472 -1.3451625 -0.26865667 234 88 12
1.1673979 -1.3431902 -0.27136162 234 88 12
1.2736665 -1.365694 -0.33586037 234 88 12
1.2433571 -1.3516649 -0.31446648 234 88 12
1.1912153 -1.3349304 -0.28057721 234 88 12
1.0955086 -1.4258289 -0.27065578 234 88 12
1.0973508 -1.422729 -0.27040124 234 88 12
1.100078 -1.4197557 -0.27065578 234 88 12
1.1150335 -1.4186184 -0.27798054 234 88 12
1.1530719 -1.350017 -0.27092758 234 88 12
1.1560481 -1.343568 -0.26995304 234 88 12
1.1727368 -1.3404655 -0.27741006 234 88 12
1.2069999 -1.3420146 -0.29581484 234 88 12
1.2385666 -1.3466873 -0.31403983 234 88 12
1.1294292 -1.4332449 -0.29538417 234 88 12
1.093504 -1.4249799 -0.2736606 234 88 12
1.1004915 -1.4226148 -0.27634516 234 88 12
1.1051453 -1.413204 -0.27509424 234 88 12
1.1433201 -1.4158225 -0.29578745 234 88 12
1.1521444 -1.3493192 -0.27454418 234 88 12
1.1551968 -1.3428875 -0.27362317 234 88 12
1.2537259 -1.3567133 -0.3297734 234 88 12
1.0950595 -1.4212695 -0.27739474 234 88 12
1.1104395 -1.4100971 -0.28096154 234 88 12
1.145812 -1.412423 -0.2999478 234 88 12
1.1132154 -1.4037657 -0.27994487 234 88 12
1.1498146 -1.348297 -0.27731866 234 88 12
1.1610346 -1.3366497 -0.27857506 234 88 12
1.2503238 -1.3488841 -0.32894981 234 88 12
1.0909138 -1.4268365 -0.28177601 234 88 12
1.0952289 -1.4207298 -0.28163421 234 88 12
1.1064218 -1.4089122 -0.28280202 234 88 12
1.1070356 -1.4056127 -0.2818538 234 88 12
1.1816095 -1.4145482 -0.32310736 234 88 12
1.1509849 -1.4062036 -0.30438122 234 88 12
1.1441321 -1.4017313 -0.29919627 234 88 12
1.1407963 -1.3978142 -0.29600799 234 88 12
1.126363 -1.3918618 -0.28641132 234 88 12
1.1203265 -1.3873296 -0.28161773 234 88 12
1.1459748 -1.3540505 -0.28192699 234 88 12
1.220946 -1.3675914 -0.3251406 234 88 12
1.1503222 -1.3479311 -0.28179675 234 88 12
1.1608356 -1.3361324 -0.28262702 234 88 12
1.2287383 -1.3495954 -0.32222393 234 88 12
1.2474061 -1.3510079 -0.33223605 234 88 12
1.2197028 -1.3405297 -0.31417766 234 88 12
1.0883474 -1.4259118 -0.28448156 234 88 12
1.0977331 -1.413787 -0.28461403 234 88 12
1.1040753 -1.4045844 -0.28432116 234 88 12
1.1122797 -1.3956934 -0.2850838 234 88 12
1.1544758 -1.3997126 -0.30784982 234 88 12
1.1196595 -1.3901266 -0.28669053 234 88 12
1.1668358 -1.3953588 -0.31242332 234 88 12
1.1978844 -1.3978903 -0.32901371 234 88 12
1.1322367 -1.3821409 -0.28999758 234 88 12
1.1259624 -1.3774672 -0.28506845 234 88 12
1.1331043 -1.3684156 -0.28523538 234 88 12
1.1525298 -1.3550345 -0.28994647 234 88 12
1.1493173 -1.3436407 -0.28401324 234 88 12
1.1515288 -1.3405793 -0.28396708 234 88 12
1.1599097 -1.3354357 -0.28623807 234 88 12
1.2278788 -1.3489487 -0.32557571 234 88 12
1.3621482 -1.3799398 -0.40491277 234 88 12
1.2188299 -1.3398728 -0.31758213 234 88 12
1.1224704 -1.393525 -0.29370335 234 88 12
1.1368729 -1.3825145 -0.29675922 234 88 12
1.1344609 -1.3646816 -0.28885302 234 88 12
1.1367452 -1.3616456 -0.28885302 234 88 12
1.1654749 -1.3609246 -0.30293158 234 88 12
1.1582358 -1.3523315 -0.29608673 234 88 12
1.1604898 -1.3493358 -0.29608673 234 88 12
1.156912 -1.3342243 -0.28862095 234 88 12
1.2725259 -1.3597857 -0.35597202 234 88 12
1.3614228 -1.3793941 -0.4077417 234 88 12
1.1045884 -1.4270409 -0.3016367 234 88 12
1.0962178 -1.4225379 -0.29581037 234 88 12
1.0953681 -1.4123117 -0.29157701 234 88 12
1.103241 -1.4101462 -0.29467064 234 88 12
1.1022037 -1.4031841 -0.29156119 234 88 12
1.1093736 -1.394114 -0.29173246 234 88 12
1.116086 -1.3849659 -0.29164791 234 88 12
1.1207733 -1.3789061 -0.29171142 234 88 12
1.1250147 -1.3727591 -0.29152128 234 88 12
1.1371908 -1.3717281 -0.2971701 234 88 12
1.1294935 -1.3666562 -0.29146537 234 88 12
1.1357703 -1.3609375 -0.29244351 234 88 12
1.1442546 -1.3557345 -0.29470766 234 88 12
1.1418183 -1.3516473 -0.29197678 234 88 12
1.2077993 -1.3632326 -0.32898903 234 88 12
1.1474144 -1.3422313 -0.29123932 234 88 12
1.1523041 -1.3362217 -0.29142171 234 88 12
1.1559839 -1.3335261 -0.29224014 234 88 12
1.2158883 -1.3450582 -0.32622159 234 88 12
1.3656795 -1.3801277 -0.41351625 234 88 12
1.0978875 -1.4255432 -0.30204755 234 88 12
1.1010581 -1.4226717 -0.30254409 234 88 12
1.1060215 -1.3964319 -0.29527971 234 88 12
1.113198 -1.3873674 -0.29545489 234 88 12
1.1424646 -1.3477461 -0.29518747 234 88 12
1.2010859 -1.3408737 -0.3214601 234 88 12
1.3145555 -1.3666167 -0.38675433 234 88 12
1.281847 -1.3550506 -0.36639962 234 88 12
1.104134 -1.4225577 -0.30827609 234 88 12
1.116258 -1.4210279 -0.31362635 234 88 12
1.1096606 -1.4100615 -0.30638656 234 88 12
1.0985534 -1.4049069 -0.29907992 234 88 12
1.1054963 -1.3958024 -0.29912513 234 88 12
1.108137 -1.3928251 -0.29932049 234 88 12
1.1122693 -1.3866686 -0.2990768 234 88 12
1.116576 -1.3805387 -0.2989279 234 88 12
1.1188636 -1.3774983 -0.2989279 234 88 12
1.1287479 -1.3689946 -0.30062771 234 88 12
1.1331105 -1.3593681 -0.29922336 234 88 12
1.1349946 -1.3562412 -0.29899496 234 88 12
1.1393212 -1.3501049 -0.2988534 234 88 12
1.1441977 -1.3440937 -0.29902583 234 88 12
1.1509047 -1.3349361 -0.29893658 234 88 12
1.1531923 -1.3318957 -0.29893658 234 88 12
1.1786796 -1.3276498 -0.30980611 234 88 12
1.1620412 -1.3196542 -0.29876029 234 88 12
1.0963855 -1.4108042 -0.30450273 234 88 12
1.1873908 -1.4218352 -0.35253039 234 88 12
1.1109854 -1.4063718 -0.30995089 234 88 12
1.1249563 -1.3746942 -0.30518076 234 88 12
1.1407834 -1.36402 -0.30895123 234 88 12
1.1430435 -1.3610162 -0.30895123 234 88 12
1.1551405 -1.3355105 -0.30552074 234 88 12
1.1593362 -1.3257612 -0.30400229 234 88 12
1.1634002 -1.3159137 -0.30238435 234 88 12
1.1003618 -1.4041051 -0.30829731 234 88 12
1.1092771 -1.4021785 -0.31187865 234 88 12
1.1065788 -1.3949136 -0.30796212 234 88 12
1.1088586 -1.3918834 -0.30796212 234 88 12
1.1126463 -1.3856814 -0.30754063 234 88 12
1.11479 -1.3791544 -0.30621323 234 88 12
1.1226232 -1.3702298 -0.30674973 234 88 12
1.1419392 -1.3426015 -0.30604395 234 88 12
1.1680077 -1.3382226 -0.31696877 234 88 12
1.1561284 -1.3280963 -0.30761531 234 88 12
1.1584097 -1.3250642 -0.30761531 234 88 12
1.1697813 -1.320816 -0.31153712 234 88 12
1.1655455 -1.4046121 -0.34379008 234 88 12
1.1541662 -1.3993747 -0.33650115 234 88 12
1.1204982 -1.3900148 -0.3171317 234 88 12
1.1304107 -1.3816233 -0.31884393 234 88 12
1.1167614 -1.3755349 -0.31017035 234 88 12
1.1212602 -1.3694435 -0.31013021 234 88 12
1.1256621 -1.363331 -0.31003642 234 88 12
1.1276312 -1.3602241 -0.30986115 234 88 12
1.1346189 -1.3511323 -0.30993104 234 88 12
1.1410098 -1.3419024 -0.30966777 234 88 12
1.1440698 -1.3390464 -0.31010121 234 88 12
1.1597394 -1.3176864 -0.30991024 234 88 12
1.1621867 -1.3146902 -0.31000206 234 88 12
1.1162664 -1.3818556 -0.31648719 234 88 12
1.1185405 -1.3788331 -0.31648719 234 88 12
1.1438299 -1.3491914 -0.31789687 234 88 12
1.1509094 -1.3402148 -0.3180505 234 88 12
1.1471928 -1.3321413 -0.31343028 234 88 12
1.1141155 -1.3809289 -0.3194328 234 88 12
1.120518 -1.3682731 -0.31797287 234 88 12
1.1259824 -1.3588711 -0.31721961 234 88 12
1.1302346 -1.3527211 -0.31704414 234 88 12
1.1348902 -1.3502151 -0.31834045 234 88 12
1.136986 -1.3435739 -0.3169829 234 88 12
1.1465207 -1.3315061 -0.31719583 234 88 12
1.1526233 -1.325819 -0.31804925 234 88 12
1.1585164 -1.3164591 -0.31751147 234 88 12
1.1600996 -1.3132303 -0.31711549 234 88 12
1.1808306 -1.3152841 -0.32754028 234 88 12
1.1721694 -1.3092505 -0.32136264 234 88 12
1.1223967 -1.3611336 -0.32064223 234 88 12
1.1501826 -1.3247327 -0.32082701 234 88 12
1.3157991 -1.349131 -0.40620676 234 88 12
1.1666743 -1.3035941 -0.32109958 234 88 12
1.2035106 -1.3105342 -0.34061813 234 88 12
1.1157376 -1.3697838 -0.32486546 234 88 12
1.1265332 -1.3579926 -0.32575095 234 88 12
1.1637725 -1.3557878 -0.3421253 234 88 12
1.1424614 -1.3474338 -0.32942519 234 88 12
1.142158 -1.3330945 -0.32432047 234 88 12
1.1594362 -1.3194424 -0.32754496 234 88 12
1.1780934 -1.3027683 -0.33035767 234 88 12
1.17969 -1.2995695 -0.32998478 234 88 12
1.1138805 -1.3688985 -0.3279961 234 88 12
1.1170946 -1.3660486 -0.3284843 234 88 12
1.1233258 -1.3603274 -0.32936347 234 88 12
1.1275647 -1.3506503 -0.32797524 234 88 12
1.1343256 -1.3415066 -0.32792109 234 88 12
1.1433305 -1.3400686 -0.33153665 234 88 12
1.1437982 -1.3330281 -0.3293328 234 88 12
1.1460873 -1.326387 -0.32809719 234 88 12
1.1528845 -1.3172524 -0.32806265 234 88 12
1.1637926 -1.3092575 -0.33029547 234 88 12
1.1624225 -1.3052043 -0.3282786 234 88 12
1.1667376 -1.2990534 -0.32813585 234 88 12
1.1698172 -1.2962474 -0.32857779 234 88 12
1.1779881 -1.2912624 -0.33059493 234 88 12
1.185626 -1.2824447 -0.3310529 234 88 12
1.1364369 -1.3729404 -0.34385896 234 88 12
1.1310029 -1.3438233 -0.33148754 234 88 12
1.140137 -1.3423933 -0.33513364 234 88 12
1.1424081 -1.3393747 -0.33513364 234 88 12
1.1592083 -1.307544 -0.3318989 234 88 12
1.1721294 -1.2890744 -0.33145764 234 88 12
1.11431 -1.3644608 -0.33524072 234 88 12
1.1219976 -1.3625534 -0.33804572 234 88 12
1.1193128 -1.3584725 -0.33546376 234 88 12
1.1245813 -1.3525491 -0.33582798 234 88 12
1.1251898 -1.3491365 -0.33494902 234 88 12
1.1300738 -1.3431243 -0.33511078 234 88 12
1.1367769 -1.3339632 -0.33502573 234 88 12
1.1455466 -1.3253253 -0.33604431 234 88 12
1.1614668 -1.32582 -0.3433536 234 88 12
1.150715 -1.3157716 -0.33513829 234 88 12
1.1573896 -1.3139184 -0.33750716 234 88 12
1.1585414 -1.3069184 -0.33566111 234 88 12
1.1599519 -1.3036339 -0.33518523 234 88 12
1.1646739 -1.2975961 -0.33526564 234 88 12
1.1689123 -1.2914163 -0.33508113 234 88 12
1.1809827 -1.2876359 -0.33922026 234 88 12
1.1764088 -1.2824905 -0.33543143 234 88 12
1.1783742 -1.2793506 -0.3352533 234 88 12
1.1447039 -1.3736221 -0.35609481 234 88 12
1.1211926 -1.3653755 -0.34287742 234 88 12
1.2016026 -1.3592715 -0.37660038 234 88 12
1.1652046 -1.3155921 -0.34579325 234 88 12
1.160293 -1.3106233 -0.34194577 234 88 12
1.152061 -1.3712653 -0.36267254 234 88 12
1.1323806 -1.3637408 -0.35149777 234 88 12
1.1292545 -1.3419683 -0.34289569 234 88 12
1.1335626 -1.3358303 -0.34275898 234 88 12
1.1620907 -1.3070329 -0.34578452 234 88 12
1.1613091 -1.2994626 -0.34292823 234 88 12
1.1672682 -1.2900823 -0.34244376 234 88 12
1.1327994 -1.3351717 -0.34646457 234 88 12
1.1343848 -1.3319626 -0.34610209 234 88 12
1.1579827 -1.3054467 -0.34769672 234 88 12
1.3083302 -1.3444712 -0.42625538 234 88 12
1.1797674 -1.2970775 -0.35446706 234 88 12
1.1663392 -1.2893834 -0.34606639 234 88 12
1.1686265 -1.2863432 -0.34606639 234 88 12
1.1730509 -1.2802159 -0.34598517 234 88 12
1.1749634 -1.3025409 -0.3583464 234 88 12
1.1660385 -1.2962869 -0.35243991 234 88 12
1.1767292 -1.2953436 -0.36095053 234 88 12
1.177242 -1.2918284 -0.36003473 234 88 12
1.1685995 -1.2855042 -0.35427862 234 88 12
1.1702253 -1.2822669 -0.35393068 234 88 12
1.1826291 -1.2893789 -0.36572629 234 88 12
1.47157 0.93227112 -0.41180703 234 88 12
1.6011504 0.96564698 -0.49414405 234 88 12
1.478901 0.93057919 -0.41941094 234 88 12
1.4529924 0.92631823 -0.40444648 234 88 12
1.5022707 0.94510406 -0.43585259 234 88 12
1.4611089 0.91713941 -0.41047394 234 88 12
1.4449195 0.91582835 -0.40157005 234 88 12
1.4502258 0.92138129 -0.40588856 234 88 12
1.4485065 0.92470211 -0.40588856 234 88 12
1.5043412 0.94551009 -0.44104758 234 88 12
1.4876984 0.94410121 -0.43187758 234 88 12
1.6079196 0.98316205 -0.50601143 234 88 12
1.4455285 0.91189706 -0.40512204 234 88 12
1.5400246 0.94584447 -0.46378607 234 88 12
1.4491104 0.92080373 -0.4094108 234 88 12
1.4717822 0.93165469 -0.42421907 234 88 12
1.4521725 0.93701911 -0.41540819 234 88 12
1.4376581 0.90913659 -0.40458742 234 88 12
1.5170473 0.9454155 -0.45554465 234 88 12
1.5076287 0.9496156 -0.45178458 234 88 12
1.4894936 0.94779408 -0.44188187 234 88 12
1.4343721 0.91572285 -0.40897182 234 88 12
1.4943395 0.93817961 -0.44582012 234 88 12
1.4585968 0.93467593 -0.42649037 234 88 12
1.4770048 0.94386911 -0.43841434 234 88 12
1.9687105 1.090631 -0.73059505 234 88 12
1.4339147 0.91534865 -0.41294706 234 88 12
1.4314948 0.91850716 -0.41254672 234 88 12
1.491671 0.94076198 -0.44913575 234 88 12
1.4575037 0.93410999 -0.42994198 234 88 12
1.478838 0.94417483 -0.44348851 234 88 12
1.6385018 0.99433285 -0.53822047 234 88 12
1.4336804 0.90718895 -0.41498888 234 88 12
1.4315938 0.91045934 -0.41478986 234 88 12
1.4302403 0.91396338 -0.41502294 234 88 12
1.5315294 0.95613217 -0.47731853 234 88 12
1.6162425 0.98463327 -0.52764684 234 88 12
1.6668383 1.0024047 -0.5579021 234 88 12
1.4627212 0.94657022 -0.43999889 234 88 12
1.4214717 0.94243914 -0.41804579 234 88 12
1.4906949 0.92543763 -0.45263326 234 88 12
1.4783505 0.93991065 -0.45019978 234 88 12
1.4381361 0.9316383 -0.42787859 234 88 12
1.4185421 0.93362296 -0.41856509 234 88 12
1.4142463 0.94401807 -0.41910991 234 88 12
1.3980578 0.98557252 -0.42178151 234 88 12
1.396571 0.98898357 -0.42192161 234 88 12
1.409498 0.99547273 -0.43009147 234 88 12
1.4437426 0.91001177 -0.42931679 234 88 12
1.4346545 0.91098756 -0.42504847 234 88 12
1.4273052 0.91257876 -0.42180336 234 88 12
1.425555 0.9159593 -0.42180336 234 88 12
1.4233536 0.92311162 -0.42255008 234 88 12
1.462595 0.93865025 -0.44606575 234 88 12
1.4216826 0.93039554 -0.4235945 234 88 12
1.4199387 0.9337638 -0.4235945 234 88 12
1.4242876 0.93885803 -0.42706886 234 88 12
1.415509 0.94023776 -0.42305848 234 88 12
1.412313 0.94321173 -0.42223477 234 88 12
1.4559389 0.97690541 -0.45260534 234 88 12
1.4355357 0.97550124 -0.44209719 234 88 12
1.4126154 0.9736554 -0.43022361 234 88 12
1.4007958 0.97460276 -0.4245896 234 88 12
1.3956484 0.97717726 -0.4226926 234 88 12
1.3986681 0.98163247 -0.42534143 234 88 12
1.3910565 0.99491918 -0.42497712 234 88 12
1.4328485 0.90231931 -0.42621288 234 88 12
1.4230962 0.91888255 -0.42563266 234 88 12
1.4231641 0.93827635 -0.43061626 234 88 12
1.4119192 0.93896544 -0.42524847 234 88 12
1.4075902 0.9493553 -0.4257662 234 88 12
1.4226216 0.95712143 -0.43515882 234 88 12
1.402835 0.95961326 -0.42604017 234 88 12
1.3868029 0.98993295 -0.42587528 234 88 12
1.3859868 0.99350619 -0.42638502 234 88 12
1.4371743 0.89168262 -0.42991763 234 88 12
1.4393668 0.90032959 -0.43317688 234 88 12
1.4311574 0.9015488 -0.42947352 234 88 12
1.4341371 0.90646112 -0.43217254 234 88 12
1.4208103 0.92575067 -0.43054038 234 88 12
1.4049522 0.95221007 -0.42948523 234 88 12
1.3961005 0.96906853 -0.42942494 234 88 12
1.3899391 0.9939909 -0.43271956 234 88 12
1.3879747 0.99729848 -0.4325965 234 88 12
1.4517705 0.88866693 -0.44050649 234 88 12
1.4377878 0.88772184 -0.43349624 234 88 12
1.4316638 0.89754844 -0.43299416 234 88 12
1.4271841 0.90792638 -0.43342692 234 88 12
1.4230218 0.91446733 -0.43305111 234 88 12
1.4141306 0.93130976 -0.43296817 234 88 12
1.4123819 0.93468738 -0.43296817 234 88 12
1.4093602 0.94157368 -0.43323147 234 88 12
1.4050661 0.94811255 -0.43279135 234 88 12
1.4035319 0.95154786 -0.43290973 234 88 12
1.4001696 0.95833832 -0.43298399 234 88 12
1.3967147 0.96510381 -0.43300718 234 88 12
1.3949599 0.96847969 -0.43300381 234 88 12
1.3891978 0.97849429 -0.43272424 234 88 12
1.3874482 0.98187369 -0.43272424 234 88 12
1.3855779 0.98522657 -0.43265918 234 88 12
1.3934993 0.99809128 -0.43972266 234 88 12
1.5090131 0.90135586 -0.47535092 234 88 12
1.4401481 0.88038713 -0.43707484 234 88 12
1.4229646 0.91029084 -0.43625799 234 88 12
1.4302396 0.92035729 -0.4422532 234 88 12
1.4131875 0.94235414 -0.43953404 234 88 12
1.4082669 1.0008054 -0.45170125 234 88 12
1.4991103 0.88255447 -0.46992904 234 88 12
1.4815238 0.87970501 -0.46085823 234 88 12
1.4437391 0.86948621 -0.4403604 234 88 12
1.4552164 0.87772459 -0.44785169 234 88 12
1.4399917 0.87614697 -0.44021818 234 88 12
1.4385067 0.87961841 -0.4403668 234 88 12
1.4323735 0.88944042 -0.43986812 234 88 12
1.4312587 0.89303535 -0.44022328 234 88 12
1.4291456 0.8962903 -0.4400197 234 88 12
1.4243218 0.90656161 -0.44025478 234 88 12
1.4225734 0.90993845 -0.44025478 234 88 12
1.4199995 0.91697544 -0.44076362 234 88 12
1.4153782 0.92338532 -0.44014373 234 88 12
1.4136294 0.92676294 -0.44014373 234 88 12
1.4106361 0.93366164 -0.44041896 234 88 12
1.4048102 0.94363028 -0.44010264 234 88 12
1.4010154 0.95030791 -0.439942 234 88 12
1.3958505 0.96046579 -0.43998688 234 88 12
1.3921796 0.96718156 -0.43989456 234 88 12
1.4042743 0.97757047 -0.44820949 234 88 12
1.3871281 0.97736472 -0.43999961 234 88 12
1.38348 0.98408896 -0.43992022 234 88 12
1.3973613 0.9981997 -0.45000225 234 88 12
1.4530674 0.84863275 -0.44392696 234 88 12
1.4607637 0.8557567 -0.449296 234 88 12
1.4545468 0.85733515 -0.44674951 234 88 12
1.4593849 0.86722493 -0.45144597 234 88 12
1.452328 0.86853307 -0.44843724 234 88 12
1.4412107 0.87240517 -0.44413972 234 88 12
1.4399327 0.89577895 -0.44924411 234 88 12
1.4054245 0.93966496 -0.44368538 234 88 12
1.4270469 1.0040327 -0.46959934 234 88 12
1.4571241 0.84606999 -0.44945577 234 88 12
1.4496441 0.85120684 -0.44720286 234 88 12
1.4478951 0.85458517 -0.44720286 234 88 12
1.4408419 0.8680774 -0.44717121 234 88 12
1.441124 0.87220359 -0.44830146 234 88 12
1.4131922 0.92223537 -0.44735345 234 88 12
1.411297 0.92945421 -0.44821447 234 88 12
1.4179118 0.95418262 -0.45728967 234 88 12
1.398829 0.95680362 -0.44900519 234 88 12
1.3995377 0.96078306 -0.45029929 234 88 12
1.3998767 0.96841824 -0.45230529 234 88 12
1.392599 0.97421008 -0.45030534 234 88 12
1.3931288 0.97808599 -0.45149082 234 88 12
1.3922482 0.99276274 -0.45463067 234 88 12
1.4537615 0.84048629 -0.45078883 234 88 12
1.4484448 0.85059369 -0.45075008 234 88 12
1.4466956 0.85397232 -0.45075008 234 88 12
1.4413385 0.86406678 -0.45068949 234 88 12
1.4402477 0.86769146 -0.45105341 234 88 12
1.4381145 0.87092608 -0.45084107 234 88 12
1.4326311 0.88097614 -0.45071137 234 88 12
1.4308817 0.88435501 -0.45071137 234 88 12
1.4296758 0.88792121 -0.45100799 234 88 12
1.423887 0.89787143 -0.45071289 234 88 12
1.420959 0.90481275 -0.45102122 234 88 12
1.418653 0.90801251 -0.45072049 234 88 12
1.4199481 0.91624683 -0.45329475 234 88 12
1.4140868 0.9222548 -0.45202076 234 88 12
1.407106 0.93186378 -0.4510918 234 88 12
1.4048843 0.93510664 -0.45084038 234 88 12
1.417356 0.94242215 -0.45837069 234 88 12
1.4061245 0.94315368 -0.45334429 234 88 12
1.5739291 0.99505901 -0.54350764 234 88 12
1.4151136 0.93771917 -0.46039876 234 88 12
1.4511545 0.83917218 -0.4577691 234 88 12
1.4494047 0.84255189 -0.4577691 234 88 12
1.4490945 0.84651083 -0.45856011 234 88 12
1.4441937 0.85270602 -0.45779008 234 88 12
1.4408845 0.8595379 -0.4578937 234 88 12
1.4391351 0.86291671 -0.4578937 234 88 12
1.4360131 0.86981308 -0.45809767 234 88 12
1.430624 0.87989402 -0.45802045 234 88 12
1.4296622 0.88752502 -0.45937961 234 88 12
1.4240867 0.8975144 -0.45919606 234 88 12
1.4201314 0.90016127 -0.45802072 234 88 12
1.4163703 0.90683323 -0.45788112 234 88 12
1.4126251 0.91351491 -0.45775115 234 88 12
1.4108884 0.91689879 -0.45775816 234 88 12
1.4075949 0.92371917 -0.45786619 234 88 12
1.4224786 0.89281279 -0.46159497 234 88 12
1.4048723 0.9265576 -0.46153402 234 88 12
1.4626777 0.84771132 -0.47334024 234 88 12
1.4559366 0.85302967 -0.47156039 234 88 12
1.4503613 0.86286581 -0.47134486 234 88 12
1.4708339 0.87460095 -0.4831948 234 88 12
1.4390223 0.86658049 -0.46714213 234 88 12
1.4709959 0.88238657 -0.48506626 234 88 12
1.4346668 0.87298888 -0.46667901 234 88 12
1.4229897 0.89277899 -0.46604031 234 88 12
1.4175028 0.92997992 -0.47218803 234 88 12
1.4163747 0.89828336 -0.46858627 234 88 12
1.4143485 0.90157324 -0.46844348 234 88 12
1.4129565 0.90506756 -0.46862796 234 88 12
1.4150996 0.91357094 -0.47152233 234 88 12
1.4085908 0.91547334 -0.46907976 234 88 12
1.4342843 0.91927713 -0.48540688 234 88 12
1.4125867 0.90056217 -0.47587201 234 88 12
1.4245116 0.91216809 -0.4836531 234 88 12
0.44905359 1.7870052 -0.33339867 234 88 12
0.49182269 1.8194865 -0.3697879 234 88 12
0.40703341 1.7664235 -0.30519491 234 88 12
0.40668356 1.7700779 -0.30750874 234 88 12
0.4039456 1.7517307 -0.29884219 234 88 12
0.45714313 1.7918056 -0.34356132 234 88 12
0.44727343 1.7888609 -0.33823436 234 88 12
0.44793695 1.7967013 -0.34364682 234 88 12
0.41440138 1.7541746 -0.30848747 234 88 12
0.43513021 1.7723396 -0.32746005 234 88 12
0.40621814 1.7565506 -0.30726576 234 88 12
0.45650652 1.7943978 -0.3492088 234 88 12
0.42240918 1.775261 -0.32505393 234 88 12
0.48227149 1.8188096 -0.37399459 234 88 12
0.52435368 1.850016 -0.40878811 234 88 12
0.64439934 1.9317621 -0.50326532 234 88 12
0.64214593 1.9329288 -0.50326532 234 88 12
0.40577689 1.7475059 -0.305666 234 88 12
0.49179661 1.8104651 -0.37572792 234 88 12
0.4056406 1.7554351 -0.31078801 234 88 12
0.44814074 1.7880764 -0.34640417 234 88 12
0.44501501 1.7896948 -0.34640417 234 88 12
0.43771955 1.7922425 -0.3456029 234 88 12
0.55851501 1.8750186 -0.44031584 234 88 12
0.67580408 1.9334277 -0.52088487 234 88 12
0.40194118 1.752194 -0.3118892 234 88 12
0.46772051 1.8006253 -0.36525875 234 88 12
0.45883366 1.7982777 -0.36076301 234 88 12
0.45576879 1.7998646 -0.36076301 234 88 12
0.45270389 1.8014514 -0.36076301 234 88 12
0.47532803 1.8198851 -0.38026816 234 88 12
0.53154695 1.8599348 -0.42501232 234 88 12
0.44419545 1.768791 -0.34104711 234 88 12
0.39836058 1.7409292 -0.30791238 234 88 12
0.44385999 1.7875493 -0.35298297 234 88 12
0.42907959 1.7813985 -0.34411803 234 88 12
0.58313227 1.8900276 -0.46510887 234 88 12
0.45574981 1.809924 -0.37130651 234 88 12
0.40045133 1.7375602 -0.31095186 234 88 12
0.39227176 1.7441442 -0.31244949 234 88 12
0.40974915 1.7677964 -0.33329636 234 88 12
0.55768114 1.8696551 -0.44705763 234 88 12
0.50420636 1.8375667 -0.40895146 234 88 12
0.41578194 1.7831618 -0.345083 234 88 12
0.36597091 1.7585309 -0.31294015 234 88 12
0.38894516 1.7451847 -0.31650132 234 88 12
0.38377982 1.7457176 -0.31514636 234 88 12
0.55722547 1.868775 -0.44983658 234 88 12
0.38016817 1.7552507 -0.31999546 234 88 12
0.38480198 1.762202 -0.32591212 234 88 12
0.36286181 1.7557745 -0.31465709 234 88 12
0.39575484 1.7369406 -0.3180109 234 88 12
0.39258504 1.7388349 -0.31816986 234 88 12
0.38536659 1.7420198 -0.31782296 234 88 12
0.47888196 1.8126459 -0.39258888 234 88 12
0.38754049 1.7593721 -0.3294282 234 88 12
0.40833443 1.7768705 -0.3471798 234 88 12
0.36803919 1.7544415 -0.31999022 234 88 12
0.37503764 1.7464013 -0.32170382 234 88 12
0.41099021 1.7741262 -0.35058966 234 88 12
0.39423904 1.7385217 -0.32745343 234 88 12
0.37782884 1.743517 -0.32528758 234 88 12
0.37445003 1.7452663 -0.32528758 234 88 12
0.36990318 1.7502164 -0.32689363 234 88 12
0.36653352 1.751961 -0.32689363 234 88 12
0.38472351 1.7393777 -0.32940522 234 88 12
0.40013877 1.7411629 -0.33981293 234 88 12
0.38825232 1.7410556 -0.33599761 234 88 12
0.38114116 1.7442676 -0.33571136 234 88 12
0.37121341 1.7495867 -0.3358205 234 88 12
0.36785403 1.751326 -0.3358205 234 88 12
0.39409477 1.7321591 -0.33687401 234 88 12
0.38295701 1.7367047 -0.33613575 234 88 12
0.37662151 1.7404866 -0.33643916 234 88 12
0.37923566 1.7502036 -0.34313351 234 88 12
0.37589806 1.7519315 -0.34313351 234 88 12
0.36365613 1.7478329 -0.33682236 234 88 12
0.39668006 1.7291365 -0.34030437 234 88 12
0.39278889 1.730522 -0.33992693 234 88 12
0.37593397 1.7392846 -0.33994862 234 88 12
0.35888827 1.7479217 -0.3398357 234 88 12
0.3996692 1.7263988 -0.34403121 234 88 12
0.39210162 1.7293177 -0.34343621 234 88 12
0.38605917 1.7333072 -0.34394905 234 88 12
0.37534669 1.7381504 -0.34353036 234 88 12
0.37286469 1.7404991 -0.34416378 234 88 12
0.36160561 1.7449906 -0.34336722 234 88 12
0.35830089 1.7467872 -0.34341815 234 88 12
0.36213058 1.7485338 -0.35005417 234 88 12
0.40524361 1.7206385 -0.35118842 234 88 12
0.38404378 1.7304572 -0.35050991 234 88 12
0.38686568 1.73647 -0.35489163 234 88 12
0.37111327 1.7418457 -0.35326192 234 88 12
0.3649058 1.745666 -0.35361743 234 88 12
0.40803081 1.7177583 -0.35476702 234 88 12
0.403294 1.7185167 -0.35378158 234 88 12
0.39720067 1.7224927 -0.35425931 234 88 12
0.39348701 1.7240024 -0.35401902 234 88 12
0.38345632 1.7293224 -0.35409281 234 88 12
0.38007832 1.7310714 -0.35409281 234 88 12
0.37640092 1.7326156 -0.35388362 234 88 12
0.36640793 1.7379612 -0.35398358 234 88 12
0.35661754 1.7434351 -0.35421917 234 88 12
0.38618872 1.7345552 -0.36234263 234 88 12
0.43690929 1.72518 -0.37638065 234 88 12
0.42522007 1.7206336 -0.37031215 234 88 12
0.40931028 1.7130651 -0.36126202 234 88 12
0.40577045 1.7146956 -0.36114618 234 88 12
0.40211841 1.7162461 -0.36095133 234 88 12
0.39211041 1.7215893 -0.36104396 234 88 12
0.38893163 1.7234806 -0.36118448 234 88 12
0.38207889 1.7269123 -0.3611179 234 88 12
0.37585467 1.7307767 -0.36148548 234 88 12
0.37247804 1.7325249 -0.36148548 234 88 12
0.36857665 1.7339187 -0.36112696 234 88 12
0.36634836 1.740432 -0.36419588 234 88 12
0.35482752 1.7407626 -0.36096981 234 88 12
0.51979375 1.7792003 -0.43572447 234 88 12
0.41929737 1.7070166 -0.36516356 234 88 12
0.4196918 1.7158324 -0.37028742 234 88 12
0.37952152 1.7365894 -0.37026435 234 88 12
0.35761952 1.7378775 -0.36455458 234 88 12
0.48589209 1.7447762 -0.41026363 234 88 12
0.47101203 1.7373621 -0.40174404 234 88 12
0.45385072 1.7283436 -0.39165473 234 88 12
0.42596677 1.711372 -0.37395504 234 88 12
0.41660744 1.7085866 -0.36965463 234 88 12
0.39362365 1.721236 -0.37007719 234 88 12
0.43641233 1.6971167 -0.37335223 234 88 12
0.42566422 1.7018594 -0.37289259 234 88 12
0.41265085 1.7091994 -0.37322947 234 88 12
0.4020218 1.7140566 -0.37286839 234 88 12
0.38365629 1.7217308 -0.37184295 234 88 12
0.38058814 1.7236973 -0.37205428 234 88 12
0.37365794 1.7270746 -0.37193647 234 88 12
0.36680171 1.7305056 -0.37187007 234 88 12
0.36334309 1.7322012 -0.37181699 234 88 12
0.3571566 1.7360797 -0.37219465 234 88 12
0.43776986 1.6931094 -0.37588966 234 88 12
0.43614349 1.7006098 -0.37958199 234 88 12
0.42067921 1.7016888 -0.3757405 234 88 12
0.4035165 1.7102269 -0.37554768 234 88 12
0.36475921 1.736418 -0.37894425 234 88 12
0.44008139 1.6898454 -0.37912452 234 88 12
0.43836364 1.6929128 -0.38032258 234 88 12
0.4298839 1.6950438 -0.37907982 234 88 12
0.42628434 1.6966214 -0.37892255 234 88 12
0.41970924 1.7002617 -0.3790524 234 88 12
0.41289094 1.7037146 -0.37900993 234 88 12
0.41011491 1.7059151 -0.37942979 234 88 12
0.40143815 1.712222 -0.38042793 234 88 12
0.39811122 1.7139983 -0.38045749 234 88 12
0.39289698 1.7144134 -0.37920091 234 88 12
0.39931333 1.7272688 -0.38809937 234 88 12
0.38236928 1.7193819 -0.37893572 234 88 12
0.38090387 1.7224717 -0.38021794 234 88 12
0.37567991 1.7229297 -0.37898219 234 88 12
0.36866251 1.7262515 -0.37881088 234 88 12
0.35902965 1.7318422 -0.37914282 234 88 12
0.35905531 1.7398193 -0.38353801 234 88 12
0.37509221 1.7217946 -0.38256636 234 88 12
0.35822755 1.7305634 -0.38258675 234 88 12
0.36688325 1.7442561 -0.39250231 234 88 12
0.43651187 1.6901078 -0.38699022 234 88 12
0.42943755 1.6977192 -0.38912705 234 88 12
0.41035849 1.70471 -0.38756472 234 88 12
0.44005045 1.7351176 -0.41233802 234 88 12
0.4017463 1.7110437 -0.38857925 234 88 12
0.4072817 1.7474195 -0.4098143 234 88 12
0.368828 1.7249016 -0.38685566 234 88 12
0.36320537 1.7331679 -0.38975358 234 88 12
0.36867553 1.7407932 -0.39541245 234 88 12
0.35107124 1.7330528 -0.38629177 234 88 12
0.44139683 1.6844492 -0.38966039 234 88 12
0.43801713 1.6861989 -0.38966039 234 88 12
0.42791253 1.6914754 -0.3896845 234 88 12
0.42123044 1.6950343 -0.38973784 234 88 12
0.41785124 1.6967839 -0.38973784 234 88 12
0.44208944 1.7278388 -0.41313982 234 88 12
0.44094414 1.6966959 -0.40040508 234 88 12
0.43761063 1.6984217 -0.40040508 234 88 12
0.43933797 1.6903695 -0.40091187 234 88 12
0.43598479 1.6921055 -0.40091187 234 88 12
0.42752919 1.689828 -0.39739886 234 88 12
0.59574288 1.828927 -0.51679337 234 88 12
0.41763651 1.6952527 -0.39755875 234 88 12
0.59632093 -1.2185577 -1.2737073 234 88 12
0.60987902 -1.1605294 -1.2371385 234 88 12
0.68442476 -1.1739173 -1.3106651 234 88 12
0.69520891 -1.1734571 -1.319322 234 88 12
0.53715295 -1.2088326 -1.2219435 234 88 12
0.54598826 -1.2070072 -1.2277944 234 88 12
0.57167107 -1.2076895 -1.2497107 234 88 12
0.59536511 -1.1623561 -1.2322563 234 88 12
0.62740088 -1.1660421 -1.2619174 234 88 12
0.75358838 -1.1907337 -1.3870889 234 88 12
0.59776413 -1.1531259 -1.2266856 234 88 12
0.63339007 -1.1548426 -1.2577181 234 88 12
0.53524214 -1.2069079 -1.2246028 234 88 12
0.54413855 -1.2051041 -1.230477 234 88 12
0.53935671 -1.2013232 -1.2234557 234 88 12
0.54623789 -1.1961509 -1.2249271 234 88 12
0.55771351 -1.1948582 -1.2333452 234 88 12
0.58426529 -1.1584924 -1.2256767 234 88 12
0.58984286 -1.1498516 -1.2232511 234 88 12
0.59846395 -1.1485206 -1.2292825 234 88 12
0.60729259 -1.1472917 -1.2355684 234 88 12
0.65403843 -1.1552254 -1.280596 234 88 12
0.53385264 -1.2019676 -1.2252542 234 88 12
0.54738581 -1.1978102 -1.2329806 234 88 12
0.542 -1.1938603 -1.2253821 234 88 12
0.54489183 -1.191187 -1.2255925 234 88 12
0.57437956 -1.1929264 -1.2511435 234 88 12
0.55361789 -1.1831868 -1.2262807 234 88 12
0.58460134 -1.1504872 -1.2252591 234 88 12
0.59977919 -1.1473619 -1.2351654 234 88 12
0.62676108 -1.1504738 -1.2597723 234 88 12
0.65826452 -1.1548998 -1.2891423 234 88 12
0.54760432 -1.1837207 -1.2275815 234 88 12
0.55699003 -1.1758411 -1.2288971 234 88 12
0.57075566 -1.1623999 -1.2293172 234 88 12
0.5734213 -1.1596955 -1.2293172 234 88 12
0.64410514 -1.1563303 -1.284061 234 88 12
0.66560227 -1.1583823 -1.3031737 234 88 12
0.52777249 -1.2008802 -1.230974 234 88 12
0.53666556 -1.1928968 -1.2317998 234 88 12
0.54324597 -1.1845415 -1.2304651 234 88 12
0.54563886 -1.1817834 -1.2302024 234 88 12
0.55090123 -1.1763475 -1.2301253 234 88 12
0.55373579 -1.1736668 -1.2302804 234 88 12
0.56032318 -1.1684879 -1.2314759 234 88 12
0.5641641 -1.1660147 -1.2326076 234 88 12
0.57855827 -1.1656892 -1.2439564 234 88 12
0.57042462 -1.1575441 -1.2309232 234 88 12
0.57727617 -1.1491612 -1.2297852 234 88 12
0.58082259 -1.1466484 -1.2306478 234 88 12
0.66075665 -1.152853 -1.3000393 234 88 12
0.52559972 -1.1989138 -1.2334002 234 88 12
0.53069788 -1.193459 -1.2331774 234 88 12
0.5715704 -1.159523 -1.2391175 234 88 12
0.57270062 -1.1499492 -1.2324703 234 88 12
0.64046943 -1.1527467 -1.2889092 234 88 12
0.75150657 -1.1766773 -1.3966433 234 88 12
0.61006933 -1.1389678 -1.2537128 234 88 12
0.52704597 -1.1943837 -1.2366967 234 88 12
0.5339914 -1.1860902 -1.2357205 234 88 12
0.55961776 -1.1841986 -1.254591 234 88 12
0.55306208 -1.1671958 -1.2360755 234 88 12
0.56587029 -1.1632906 -1.2431903 234 88 12
0.5609653 -1.1590492 -1.2359749 234 88 12
0.57067937 -1.1545721 -1.2401848 234 88 12
0.57095647 -1.1480607 -1.2353079 234 88 12
0.58011919 -1.1401985 -1.2364302 234 88 12
0.63019961 -1.1489179 -1.2830267 234 88 12
0.74997228 -1.1751651 -1.3986893 234 88 12
0.52541202 -1.1956128 -1.242029 234 88 12
0.52606314 -1.1926029 -1.2402041 234 88 12
0.53818274 -1.1788777 -1.2390937 234 88 12
0.54085076 -1.1761708 -1.2390937 234 88 12
0.56015319 -1.1670355 -1.2472094 234 88 12
0.5747143 -1.1407895 -1.2382971 234 88 12
0.67207545 -1.1606654 -1.330466 234 88 12
0.61060518 -1.1395565 -1.2656246 234 88 12
0.53325599 -1.1921207 -1.251093 234 88 12
0.5279088 -1.1850127 -1.2414317 234 88 12
0.54612476 -1.1659669 -1.2409961 234 88 12
0.55424136 -1.15786 -1.2410946 234 88 12
0.56219524 -1.1497202 -1.2410405 234 88 12
0.56527007 -1.1471012 -1.2414261 234 88 12
0.57436121 -1.142555 -1.2450317 234 88 12
0.57274944 -1.1388528 -1.2409172 234 88 12
0.61246634 -1.1450505 -1.2767569 234 88 12
0.70719743 -1.165045 -1.3662578 234 88 12
0.53015792 -1.1837853 -1.2478611 234 88 12
0.54287863 -1.1670064 -1.244898 234 88 12
0.5500837 -1.1587303 -1.2441587 234 88 12
0.58124417 -1.1459595 -1.2585735 234 88 12
0.56996846 -1.1400592 -1.2453085 234 88 12
0.61313814 -1.1406295 -1.2792499 234 88 12
0.57894969 -1.1288251 -1.2436849 234 88 12
0.52451152 -1.1843814 -1.2495356 234 88 12
0.53020018 -1.1758827 -1.2474651 234 88 12
0.55689228 -1.1553704 -1.2524512 234 88 12
0.57294708 -1.1425887 -1.2551134 234 88 12
0.5680083 -1.1381272 -1.2479223 234 88 12
0.57357353 -1.1327784 -1.248148 234 88 12
0.54858518 -1.1837763 -1.273036 234 88 12
0.52528954 -1.1766046 -1.2498267 234 88 12
0.52929908 -1.1709495 -1.2486308 234 88 12
0.5323537 -1.1683111 -1.2489778 234 88 12
0.53773612 -1.1629013 -1.2490162 234 88 12
0.54304928 -1.157478 -1.2489914 234 88 12
0.54746598 -1.1551323 -1.2506001 234 88 12
0.55072564 -1.1492789 -1.2486817 234 88 12
0.56311929 -1.1454426 -1.2552645 234 88 12
0.56014359 -1.1414698 -1.2499969 234 88 12
0.57129961 -1.1341174 -1.2529848 234 88 12
0.58261651 -1.1268891 -1.256189 234 88 12
0.57728785 -1.1221386 -1.2485369 234 88 12
0.65691483 -1.1652137 -1.3467038 234 88 12
0.56638438 -1.1314701 -1.2528036 234 88 12
0.58067155 -1.124972 -1.2587826 234 88 12
0.52714121 -1.1737752 -1.2601777 234 88 12
0.53584206 -1.1594352 -1.2560874 234 88 12
0.54957789 -1.1525459 -1.2613157 234 88 12
0.54423124 -1.1481382 -1.2540203 234 88 12
0.55227828 -1.1400167 -1.2540519 234 88 12
0.56130427 -1.1321323 -1.2549964 234 88 12
0.56766444 -1.1235965 -1.2534506 234 88 12
0.51834959 -1.1706114 -1.2567476 234 88 12
0.52156937 -1.1680039 -1.2572329 234 88 12
0.52939379 -1.1598455 -1.2570707 234 88 12
0.53265232 -1.157256 -1.2575983 234 88 12
0.53790557 -1.1518266 -1.2575248 234 88 12
0.53958356 -1.1489086 -1.2566297 234 88 12
0.54795587 -1.1474407 -1.2618034 234 88 12
0.54764205 -1.1407896 -1.2566714 234 88 12
0.55590749 -1.1327211 -1.256905 234 88 12
0.56347948 -1.1244845 -1.2564967 234 88 12
0.52844512 -1.1740322 -1.2722232 234 88 12
0.5230515 -1.1698991 -1.2652043 234 88 12
0.53594309 -1.1498922 -1.2601417 234 88 12
0.52110285 -1.1679784 -1.2678028 234 88 12
0.52329952 -1.1587816 -1.2627494 234 88 12
0.53817695 -1.1488534 -1.2664955 234 88 12
0.54076982 -1.1395646 -1.2616669 234 88 12
0.54898292 -1.1314801 -1.2618468 234 88 12
0.55725169 -1.1234146 -1.2620814 234 88 12
0.56466573 -1.1219176 -1.2664506 234 88 12
0.5654698 -1.1153425 -1.2622739 234 88 12
0.57291222 -1.1139166 -1.2667155 234 88 12
0.52750039 -1.1707635 -1.2798821 234 88 12
0.52665871 -1.1674644 -1.2768933 234 88 12
0.52928334 -1.1648016 -1.2768933 234 88 12
0.53182375 -1.1459818 -1.2652035 234 88 12
0.5466001 -1.1327848 -1.2664948 234 88 12
0.55346841 -1.1243992 -1.2654747 234 88 12
0.57849962 -1.1140323 -1.2762904 234 88 12
0.54767013 -1.1699052 -1.2991949 234 88 12
0.55946285 -1.1691033 -1.3071674 234 88 12
0.54285008 -1.1627736 -1.2906085 234 88 12
0.53252912 -1.1413399 -1.2678211 234 88 12
0.53728276 -1.1357919 -1.2673031 234 88 12
0.53972793 -1.1330303 -1.2671025 234 88 12
0.55702829 -1.1171016 -1.2682618 234 88 12
0.55905676 -1.114228 -1.2676792 234 88 12
0.56433445 -1.1087964 -1.2676241 234 88 12
0.56674868 -1.1060181 -1.2673892 234 88 12
0.5519107 -1.1311338 -1.2799251 234 88 12
0.55618167 -1.1288624 -1.2813864 234 88 12
0.57841241 -1.1010478 -1.2776575 234 88 12
0.53814512 -1.1330364 -1.276747 234 88 12
0.5662244 -1.1298994 -1.2945795 234 88 12
0.55992407 -1.1250539 -1.2866745 234 88 12
0.55492783 -1.1204641 -1.2798803 234 88 12
0.55333281 -1.1166879 -1.2760857 234 88 12
0.55177224 -1.1128842 -1.2722963 234 88 12
0.55988616 -1.1047819 -1.2723874 234 88 12
0.56887031 -1.0969341 -1.2732786 234 88 12
0.59387767 -1.1007924 -1.2938396 234 88 12
0.58174074 -1.0937703 -1.2802383 234 88 12
0.55070597 -1.1246541 -1.2851219 234 88 12
0.54177618 -1.1190729 -1.2749012 234 88 12
0.66038358 -1.1431305 -1.3756998 234 88 12
0.56402928 -1.1147101 -1.2876163 234 88 12
0.55332965 -1.1084663 -1.2756793 234 88 12
0.55610561 -1.1057886 -1.2757761 234 88 12
0.56355804 -1.0975105 -1.2752755 234 88 12
0.57266212 -1.0897132 -1.2762802 234 88 12
0.57527673 -1.0869929 -1.2762328 234 88 12
0.58012325 -1.0849624 -1.278248 234 88 12
0.58915579 -1.1264569 -1.3186626 234 88 12
0.55378479 -1.1071861 -1.28045 234 88 12
0.55847639 -1.0981561 -1.2774917 234 88 12
0.56901336 -1.0872706 -1.2773563 234 88 12
0.57845026 -1.0795873 -1.2786663 234 88 12
0.55260223 -1.1088768 -1.2860883 234 88 12
0.55404007 -1.1058599 -1.285017 234 88 12
0.59313446 -1.0829387 -1.2965277 234 88 12
0.54932719 -1.1031792 -1.2851908 234 88 12
0.55252516 -1.0971763 -1.2833086 234 88 12
0.55519432 -1.0944684 -1.2833086 234 88 12
0.56411988 -1.0935864 -1.2888857 234 88 12
0.56006026 -1.0889126 -1.2828861 234 88 12
0.5708276 -1.0781008 -1.2829627 234 88 12
0.56144226 -1.1017478 -1.2978084 234 88 12
0.56890923 -1.0936446 -1.2974511 234 88 12
0.563308 -1.0815172 -1.2853906 234 88 12
0.56134295 -1.0795803 -1.2880111 234 88 12
0.57230729 -1.075948 -1.2930455 234 88 12
0.55987114 -1.0917544 -1.3003765 234 88 12
0.55307883 -1.0862828 -1.2921313 234 88 12
0.56331563 -1.0753324 -1.2917546 234 88 12
0.55509293 -1.0785246 -1.2935593 234 88 12
1.5586948 -0.32135734 -0.80266529 234 88 12
1.580174 -0.32777175 -0.82266903 234 88 12
1.5222973 -0.3253462 -0.78205717 234 88 12
1.5369867 -0.32139435 -0.79194361 234 88 12
1.5611488 -0.3174845 -0.8084442 234 88 12
1.5851542 -0.31379083 -0.82485539 234 88 12
1.5244582 -0.3250272 -0.78812742 234 88 12
1.5889294 -0.31353861 -0.8317067 234 88 12
1.6742983 -0.31010473 -0.89048886 234 88 12
1.6977615 -0.32756987 -0.91193354 234 88 12
1.5154632 -0.32866716 -0.78685158 234 88 12
1.5262288 -0.32471782 -0.79388589 234 88 12
1.5785483 -0.31683439 -0.82909769 234 88 12
1.5790093 -0.3133449 -0.82909769 234 88 12
1.5154055 -0.32462823 -0.79104567 234 88 12
1.5979481 -0.31643113 -0.84653187 234 88 12
1.5922856 -0.31305993 -0.84237146 234 88 12
1.5721525 -0.30962169 -0.8283484 234 88 12
1.5114264 -0.33193544 -0.79358858 234 88 12
1.5110393 -0.32818666 -0.79299235 234 88 12
1.5750079 -0.3163766 -0.83515793 234 88 12
1.5905848 -0.31283522 -0.84536612 234 88 12
1.5097754 -0.33543414 -0.79736656 234 88 12
1.5098293 -0.32416445 -0.7964049 234 88 12
1.6945728 -0.31228215 -0.91915977 234 88 12
1.5093051 -0.33514532 -0.80158907 234 88 12
1.5090667 -0.32013857 -0.80011278 234 88 12
1.5626285 -0.31245467 -0.83504027 234 88 12
1.7395875 -0.30922121 -0.95238018 234 88 12
1.4964389 -0.40277067 -0.80353934 234 88 12
1.5872899 -0.38626188 -0.86199588 234 88 12
1.5198432 -0.34190309 -0.81366748 234 88 12
1.5041437 -0.33123446 -0.80238825 234 88 12
1.5476723 -0.31584358 -0.8297444 234 88 12
1.5237066 -0.30861616 -0.81331527 234 88 12
1.4972284 -0.40593535 -0.8088721 234 88 12
1.4977243 -0.40218192 -0.8088721 234 88 12
1.494622 -0.39508188 -0.80623037 234 88 12
1.5007616 -0.39077446 -0.80987263 234 88 12
1.5168591 -0.38561377 -0.81995219 234 88 12
1.5001956 -0.38341552 -0.80886692 234 88 12
1.5635782 -0.37451267 -0.84954059 234 88 12
1.527115 -0.37389919 -0.8256461 234 88 12
1.5272379 -0.36667964 -0.82510281 234 88 12
1.4999471 -0.36108795 -0.80677575 234 88 12
1.5081737 -0.35689116 -0.81179214 234 88 12
1.5012003 -0.35353926 -0.806943 234 88 12
1.5006148 -0.34982318 -0.80623919 234 88 12
1.5017005 -0.3422769 -0.80629724 234 88 12
1.508094 -0.33084372 -0.80948997 234 88 12
1.5049641 -0.31588107 -0.80615097 234 88 12
1.5066278 -0.30456606 -0.80626142 234 88 12
1.4914808 -0.40983576 -0.80999535 234 88 12
1.4919276 -0.40235817 -0.8096444 234 88 12
1.492681 -0.39484072 -0.80948895 234 88 12
1.5034274 -0.3790409 -0.81510401 234 88 12
1.5039206 -0.3753078 -0.81510401 234 88 12
1.4966735 -0.3721371 -0.81013286 234 88 12
1.4971712 -0.36836973 -0.81013286 234 88 12
1.4973413 -0.35714054 -0.80928117 234 88 12
1.4997829 -0.34952721 -0.81021225 234 88 12
1.4999406 -0.34202495 -0.80967176 234 88 12
1.5021923 -0.33069503 -0.81016123 234 88 12
1.5041287 -0.32314634 -0.81077027 234 88 12
1.505123 -0.31562039 -0.81077027 234 88 12
1.5445782 -0.31178313 -0.83602679 234 88 12
1.5072188 -0.30433571 -0.81116259 234 88 12
1.5058972 -0.29677814 -0.80965805 234 88 12
1.492687 -0.38324469 -0.81303561 234 88 12
1.5008016 -0.32292098 -0.81312883 234 88 12
1.49198 -0.37544388 -0.81644326 234 88 12
1.4922942 -0.36795112 -0.81601232 234 88 12
1.5008847 -0.31888908 -0.81735718 234 88 12
1.5097067 -0.3150782 -0.82266253 234 88 12
1.5000262 -0.30759281 -0.81585795 234 88 12
1.5011277 -0.30382395 -0.81624287 234 88 12
1.5021483 -0.29628289 -0.81625837 234 88 12
1.4850622 -0.40918481 -0.81939214 234 88 12
1.4859687 -0.40165079 -0.81933594 234 88 12
1.4868176 -0.39412078 -0.81924367 234 88 12
1.4880087 -0.38655788 -0.81936508 234 88 12
1.4901062 -0.37519631 -0.81974226 234 88 12
1.4904189 -0.36770338 -0.819314 234 88 12
1.4914696 -0.36015555 -0.81934786 234 88 12
1.5032634 -0.34837463 -0.82582241 234 88 12
1.4933519 -0.34507161 -0.819278 234 88 12
1.4936994 -0.34130451 -0.81918299 234 88 12
1.4951768 -0.33374473 -0.81948566 234 88 12
1.4974673 -0.31489012 -0.81935889 234 88 12
1.4987551 -0.30734706 -0.81954312 234 88 12
1.5000613 -0.29603168 -0.81942374 234 88 12
1.5047214 -0.29234841 -0.82206333 234 88 12
1.5020703 -0.28851452 -0.82006627 234 88 12
1.5208814 -0.28529966 -0.83169484 234 88 12
1.506196 -0.28108877 -0.82205516 234 88 12
1.5150726 -0.27766341 -0.82738292 234 88 12
1.4994826 -0.4034313 -0.83245695 234 88 12
1.484531 -0.39763698 -0.82259983 234 88 12
1.492823 -0.34102076 -0.82310921 234 88 12
1.4934827 -0.32973316 -0.82258767 234 88 12
1.5034972 -0.29587436 -0.82606304 234 88 12
1.5004361 -0.28070661 -0.82288641 234 88 12
1.507735 -0.26967546 -0.82655007 234 88 12
1.5036296 -0.26568821 -0.82364488 234 88 12
1.5040702 -0.26191989 -0.82360893 234 88 12
1.5082955 -0.2583847 -0.82596612 234 88 12
1.5074813 -0.25454926 -0.82513762 234 88 12
1.4969119 -0.40326786 -0.83525044 234 88 12
1.5069921 -0.39131993 -0.84053761 234 88 12
1.4866604 -0.38956746 -0.82774943 234 88 12
1.4851092 -0.38598779 -0.82649064 234 88 12
1.4876262 -0.37460643 -0.82712084 234 88 12
1.4869879 -0.36718675 -0.82611436 234 88 12
1.4879162 -0.35964876 -0.82607234 234 88 12
1.4891754 -0.34834546 -0.82592672 234 88 12
1.4909494 -0.34077322 -0.82640779 234 88 12
1.4917772 -0.33324 -0.82630366 234 88 12
1.4927566 -0.32193825 -0.82598424 234 88 12
1.4939528 -0.31439352 -0.82610822 234 88 12
1.4949647 -0.3068516 -0.82611787 234 88 12
1.4975722 -0.29555804 -0.82681161 234 88 12
1.4973942 -0.28799537 -0.82607949 234 88 12
1.4984106 -0.28045368 -0.82609195 234 88 12
1.4995503 -0.26912317 -0.82586986 234 88 12
1.5012946 -0.26541641 -0.82665008 234 88 12
1.5011423 -0.26161197 -0.82624274 234 88 12
1.5018362 -0.25405183 -0.82605314 234 88 12
1.5111517 -0.25090545 -0.83158791 234 88 12
1.558247 -0.37579119 -0.87523395 234 88 12
1.4937325 -0.31789759 -0.83073443 234 88 12
1.4922359 -0.31414515 -0.82950592 234 88 12
1.4935188 -0.30660576 -0.82968277 234 88 12
1.4880701 -0.36637625 -0.83564377 234 88 12
1.4922116 -0.35869816 -0.83755577 234 88 12
1.4848059 -0.35162804 -0.83245665 234 88 12
1.4941173 -0.32885355 -0.83631021 234 88 12
1.4937136 -0.32138148 -0.83545983 234 88 12
1.4960974 -0.30637845 -0.83570546 234 88 12
1.4924085 -0.29503816 -0.8325339 234 88 12
1.4974638 -0.28760168 -0.83502412 234 88 12
1.5166856 -0.251073 -0.84382623 234 88 12
1.4827372 -0.35513723 -0.83594239 234 88 12
1.4829304 -0.35138026 -0.83575869 234 88 12
1.4845004 -0.34005925 -0.83580369 234 88 12
1.4851929 -0.33628091 -0.83592093 234 88 12
1.4866544 -0.33248442 -0.83650285 234 88 12
1.4863389 -0.32497197 -0.83570987 234 88 12
1.4880499 -0.31365165 -0.83584052 234 88 12
1.4893082 -0.30610847 -0.83599925 234 88 12
1.4902488 -0.29856557 -0.83596534 234 88 12
1.4967754 -0.29490292 -0.83962864 234 88 12
1.4924277 -0.28727001 -0.83638155 234 88 12
1.493541 -0.27973759 -0.8364532 234 88 12
1.4934385 -0.27215311 -0.8357836 234 88 12
1.494125 -0.2683897 -0.83589834 234 88 12
1.4949307 -0.26083505 -0.83578175 234 88 12
1.4962152 -0.25330898 -0.83595765 234 88 12
1.4847815 -0.33223701 -0.83980018 234 88 12
1.4844631 -0.32472417 -0.83901227 234 88 12
1.5003872 -0.30592686 -0.84709096 234 88 12
1.5100235 -0.30229926 -0.85259485 234 88 12
1.6471609 -0.30052114 -0.93488193 234 88 12
1.5013523 -0.29104692 -0.84648949 234 88 12
1.5004443 -0.28729033 -0.84564537 234 88 12
1.4965817 -0.27966657 -0.8427183 234 88 12
1.4931043 -0.26059014 -0.83911335 234 88 12
1.5260205 -0.251517 -0.8581776 234 88 12
1.5205241 -0.34537867 -0.86656713 234 88 12
1.4848139 -0.31315443 -0.84275007 234 88 12
1.487191 -0.30938634 -0.84386992 234 88 12
1.6300843 -0.28430936 -0.92704755 234 88 12
1.498596 -0.27581143 -0.84802294 234 88 12
1.5042536 -0.26484227 -0.85053092 234 88 12
1.4955674 -0.25302178 -0.84442413 234 88 12
1.4851625 -0.34655455 -0.849989 234 88 12
1.4834973 -0.34289515 -0.84871954 234 88 12
1.4800292 -0.33927736 -0.84638828 234 88 12
1.4799042 -0.33177018 -0.84572852 234 88 12
1.4818225 -0.32421067 -0.84627181 234 88 12
1.4947642 -0.27172357 -0.84982091 234 88 12
1.5015689 -0.2682941 -0.85357332 234 88 12
1.4897385 -0.26011708 -0.84594589 234 88 12
1.498911 -0.34565827 -0.86235416 234 88 12
1.491712 -0.3422721 -0.85787582 234 88 12
0.7989561 1.1508508 -1.2558682 234 88 12
0.71627045 1.119204 -1.1775583 234 88 12
0.83249432 1.1714594 -1.2929552 234 88 12
0.72418576 1.1103072 -1.1820565 234 88 12
0.95249015 1.2134154 -1.4073282 234 88 12
0.71428192 1.1135622 -1.1775371 234 88 12
0.75997877 1.1367184 -1.2243387 234 88 12
0.77482039 1.1464306 -1.2410288 234 88 12
0.75241935 1.1405531 -1.2218069 234 88 12
0.71188504 1.1038725 -1.1745516 234 88 12
0.75123143 1.1320317 -1.2200887 234 88 12
0.76697612 1.1421869 -1.23756 234 88 12
0.74531543 1.1366199 -1.2191931 234 88 12
0.97209805 1.2330946 -1.4372525 234 88 12
0.7591002 1.1202059 -1.2222866 234 88 12
0.70668513 1.1005566 -1.1740437 234 88 12
0.71051085 1.1060854 -1.180306 234 88 12
0.707856 1.1087402 -1.180306 234 88 12
0.76774943 1.1381187 -1.2400684 234 88 12
0.76004004 1.138308 -1.2350341 234 88 12
0.73396939 1.1309031 -1.2126242 234 88 12
0.74112689 1.1374161 -1.2217757 234 88 12
0.63744515 1.1703542 -1.1744169 234 88 12
0.64677149 1.1801898 -1.1872448 234 88 12
0.71821368 1.1008604 -1.1871036 234 88 12
0.70257872 1.0977175 -1.1746285 234 88 12
0.70101941 1.1009016 -1.1757079 234 88 12
0.74778259 1.1286178 -1.2251886 234 88 12
0.74529344 1.1311069 -1.2251886 234 88 12
0.84756887 1.1773994 -1.3238902 234 88 12
0.71266234 1.1246679 -1.1992322 234 88 12
0.75980574 1.1475348 -1.2457439 234 88 12
0.64603102 1.1648171 -1.1816387 234 88 12
0.63509911 1.1648287 -1.1743838 234 88 12
0.63241017 1.1675175 -1.1743838 234 88 12
0.62944096 1.1701194 -1.1741396 234 88 12
0.63148791 1.1742623 -1.1782519 234 88 12
0.64089555 1.1805879 -1.1887044 234 88 12
0.69650918 1.1017588 -1.1784889 234 88 12
0.77950609 1.1446676 -1.2614985 234 88 12
0.85009068 1.1776277 -1.3297654 234 88 12
0.68368387 1.1154206 -1.1790403 234 88 12
0.75575852 1.1483041 -1.2482393 234 88 12
0.67296427 1.122412 -1.1765823 234 88 12
0.67027295 1.1251032 -1.1765823 234 88 12
0.67253232 1.1296945 -1.1810988 234 88 12
0.688438 1.1673563 -1.2164159 234 88 12
0.66146642 1.1616881 -1.1948965 234 88 12
0.6396662 1.1579579 -1.1780643 234 88 12
0.64130235 1.1620541 -1.1818435 234 88 12
0.62330353 1.1739947 -1.1778494 234 88 12
0.67623347 1.1933366 -1.2254983 234 88 12
0.69815099 1.0937145 -1.1794707 234 88 12
0.7443946 1.1252297 -1.2303469 234 88 12
0.68825585 1.1048484 -1.1802812 234 88 12
0.73126942 1.1267779 -1.2227722 234 88 12
0.69187844 1.1139653 -1.1886164 234 88 12
0.6933257 1.1183043 -1.1924022 234 88 12
0.67421615 1.1180462 -1.1797303 234 88 12
0.66614652 1.1261158 -1.1797303 234 88 12
0.65019524 1.1459558 -1.1822747 234 88 12
0.65718907 1.151988 -1.1907973 234 88 12
0.64278758 1.1506152 -1.1804765 234 88 12
0.64482594 1.1548955 -1.1846107 234 88 12
0.62810177 1.1636509 -1.1793969 234 88 12
0.70108181 1.0978812 -1.1892456 234 88 12
0.69044071 1.0970471 -1.1817946 234 88 12
0.68299848 1.105394 -1.1823821 234 88 12
0.71592778 1.1229476 -1.2151606 234 88 12
0.71336794 1.1255074 -1.2151606 234 88 12
0.67976379 1.1191806 -1.1892334 234 88 12
0.66713673 1.1216465 -1.1826358 234 88 12
0.67011452 1.133878 -1.1925112 234 88 12
0.65700412 1.1326367 -1.1831926 234 88 12
0.66154414 1.1379775 -1.1896082 234 88 12
0.70842868 1.158592 -1.2334354 234 88 12
0.64958626 1.1409285 -1.18376 234 88 12
0.64028287 1.1485544 -1.182671 234 88 12
0.6322493 1.1566335 -1.1827005 234 88 12
0.62373066 1.1645584 -1.182315 234 88 12
0.64081764 1.183629 -1.2057922 234 88 12
0.68024802 1.106995 -1.1867888 234 88 12
0.67779136 1.1097729 -1.1869959 234 88 12
0.67510825 1.1124561 -1.1869959 234 88 12
0.67013466 1.1142154 -1.1849247 234 88 12
0.65025991 1.1363493 -1.1863804 234 88 12
0.61695224 1.1717502 -1.1877291 234 88 12
0.6146993 1.1745584 -1.188087 234 88 12
0.6919837 1.0918124 -1.1897018 234 88 12
0.68435532 1.0961934 -1.1876253 234 88 12
0.68610656 1.1007984 -1.1916897 234 88 12
0.69435352 1.1081197 -1.2016447 234 88 12
0.66614413 1.115288 -1.1881901 234 88 12
0.66260666 1.1176428 -1.187434 234 88 12
0.65848708 1.1235148 -1.1885545 234 88 12
0.65510893 1.1259406 -1.1879455 234 88 12
0.649728 1.1313215 -1.1879455 234 88 12
0.64722514 1.1340805 -1.1881093 234 88 12
0.63917392 1.1421564 -1.188125 234 88 12
0.63644654 1.1448331 -1.1880926 234 88 12
0.63078892 1.1501192 -1.187855 234 88 12
0.62809807 1.15281 -1.187855 234 88 12
0.62289071 1.1582481 -1.1880026 234 88 12
0.62063462 1.1610768 -1.1883688 234 88 12
0.65828019 1.1260175 -1.1951182 234 88 12
0.61321491 1.1645583 -1.1909781 234 88 12
0.62247217 1.1743734 -1.2030807 234 88 12
0.69267029 1.0823202 -1.1943178 234 88 12
0.6760574 1.0982341 -1.1938776 234 88 12
0.67422122 1.1012839 -1.1946418 234 88 12
0.64130789 1.1332669 -1.194056 234 88 12
0.63010257 1.1474695 -1.1959435 234 88 12
0.63347232 1.1592401 -1.2054776 234 88 12
0.63262779 1.1624615 -1.2069743 234 88 12
0.62601584 1.1638339 -1.2036748 234 88 12
0.69367784 1.0778738 -1.197239 234 88 12
0.68758696 1.08292 -1.1965861 234 88 12
0.68449181 1.0854263 -1.1962183 234 88 12
0.67903179 1.0907736 -1.1961477 234 88 12
0.6763407 1.0934647 -1.1961477 234 88 12
0.68041736 1.0990634 -1.202194 234 88 12
0.67115647 1.098931 -1.196324 234 88 12
0.66598219 1.1043974 -1.1965065 234 88 12
0.66335922 1.1071143 -1.1965653 234 88 12
0.65830612 1.1126232 -1.1968501 234 88 12
0.65304118 1.1180432 -1.196947 234 88 12
0.6498462 1.1205361 -1.1965083 234 88 12
0.64420754 1.1258183 -1.1962855 234 88 12
0.63879943 1.1311895 -1.1962625 234 88 12
0.63933831 1.1350442 -1.199008 234 88 12
0.63428974 1.1441185 -1.2015237 234 88 12
0.63142461 1.1538377 -1.2058069 234 88 12
0.62006027 1.1536294 -1.198575 234 88 12
0.69445598 1.0733207 -1.1999496 234 88 12
0.64144969 1.1382631 -1.2073516 234 88 12
0.70504034 1.1642787 -1.2629188 234 88 12
0.69490677 1.0686092 -1.2023625 234 88 12
0.69140458 1.0709112 -1.2016239 234 88 12
0.68499905 1.0797515 -1.2031224 234 88 12
0.67600715 1.0873933 -1.2022915 234 88 12
0.67896014 1.100168 -1.21197 234 88 12
0.66483593 1.0979729 -1.2019274 234 88 12
0.65699559 1.1061376 -1.202127 234 88 12
0.64885777 1.1141788 -1.2020675 234 88 12
0.65049809 1.1185455 -1.2057642 234 88 12
0.64516455 1.1275723 -1.2080369 234 88 12
0.69563246 1.0640261 -1.2050275 234 88 12
0.69233876 1.0664238 -1.2044802 234 88 12
0.68457109 1.07464 -1.2047542 234 88 12
0.67704499 1.0829551 -1.205236 234 88 12
0.67435682 1.0856432 -1.205236 234 88 12
0.67062795 1.0917342 -1.2066784 234 88 12
0.66569477 1.0934515 -1.2047145 234 88 12
0.66238481 1.0996985 -1.2065082 234 88 12
0.65800631 1.1016805 -1.2050446 234 88 12
0.65297401 1.1071978 -1.2053409 234 88 12
0.6608457 1.1140935 -1.2143589 234 88 12
0.64884746 1.1130648 -1.2064036 234 88 12
0.641361 1.1176176 -1.2046121 234 88 12
0.69939381 1.0569248 -1.2080077 234 88 12
0.69360143 1.0620979 -1.2076324 234 88 12
0.68880218 1.0795383 -1.2152928 234 88 12
0.66652215 1.0889163 -1.2074744 234 88 12
0.65823722 1.0968978 -1.2072905 234 88 12
0.64442295 1.1176721 -1.2115082 234 88 12
0.77101684 1.0846134 -1.2727134 234 88 12
0.75037783 1.0778149 -1.2562143 234 88 12
0.70422006 1.0584314 -1.2168016 234 88 12
0.68404961 1.0685015 -1.2107279 234 88 12
0.67275035 1.0790087 -1.2102516 234 88 12
0.66737431 1.0920942 -1.2148876 234 88 12
0.64989549 1.103775 -1.2114011 234 88 12
0.657987 1.1107866 -1.2204831 234 88 12
0.7105056 1.0405312 -1.2147936 234 88 12
0.72107255 1.0541756 -1.2292411 234 88 12
0.70789027 1.0513726 -1.2197024 234 88 12
0.69866562 1.0507009 -1.213797 234 88 12
0.69424427 1.0565492 -1.2146484 234 88 12
0.68970454 1.058321 -1.2129967 234 88 12
0.68436921 1.0637243 -1.2130374 234 88 12
0.67663532 1.0719523 -1.2133322 234 88 12
0.67386115 1.0746026 -1.2132583 234 88 12
0.68221503 1.0823011 -1.2228371 234 88 12
0.6656307 1.0825995 -1.2131189 234 88 12
0.65725386 1.0905387 -1.2128577 234 88 12
0.64960372 1.0987872 -1.2132148 234 88 12
0.71270168 1.0326074 -1.2163448 234 88 12
0.71112984 1.0358967 -1.2173617 234 88 12
0.70122218 1.0429823 -1.2156907 234 88 12
0.69081092 1.0539222 -1.2160038 234 88 12
0.68259293 1.0619197 -1.2158731 234 88 12
0.67579812 1.0705843 -1.2169803 234 88 12
0.66632181 1.0780029 -1.2157619 234 88 12
0.65831995 1.0861056 -1.2158216 234 88 12
0.64768207 1.0969189 -1.2159255 234 88 12
0.71127856 1.0260103 -1.2215065 234 88 12
0.70873022 1.0287777 -1.2216343 234 88 12
0.70063078 1.0368297 -1.2216066 234 88 12
0.69239557 1.0448133 -1.2214599 234 88 12
0.68990511 1.0476047 -1.2216353 234 88 12
0.68460488 1.0530225 -1.221704 234 88 12
0.68346387 1.0564698 -1.2230487 234 88 12
0.69156659 1.0643765 -1.232383 234 88 12
0.67641318 1.0610306 -1.2215968 234 88 12
0.6735639 1.0675943 -1.2237626 234 88 12
0.66707057 1.072437 -1.2228003 234 88 12
0.6570369 1.0796155 -1.2211354 234 88 12
0.65481406 1.0825118 -1.2215282 234 88 12
0.70112127 1.0321121 -1.2240659 234 88 12
0.67679846 1.0759126 -1.235335 234 88 12
0.65867674 1.075442 -1.2245781 234 88 12
0.65009445 1.0832849 -1.2241504 234 88 12
0.66463691 1.0933546 -1.23839 234 88 12
0.70210302 1.0276561 -1.2269624 234 88 12
0.69398081 1.035701 -1.2269181 234 88 12
0.69571191 1.0487607 -1.2354094 234 88 12
0.69040293 1.0540696 -1.2354094 234 88 12
0.65610665 1.0810285 -1.231197 234 88 12
0.6654771 1.0889344 -1.2411153 234 88 12
0.69821018 1.028854 -1.2303014 234 88 12
0.6937387 1.0347071 -1.2310883 234 88 12
0.69105387 1.0373918 -1.2310883 234 88 12
0.70669544 1.0495253 -1.2469107 234 88 12
0.72687846 1.0637701 -1.2665229 234 88 12
0.68440241 1.0461539 -1.2322906 234 88 12
0.6749199 1.0920411 -1.2530291 234 88 12
0.70180213 1.0258268 -1.2354742 234 88 12
0.70895326 1.0338075 -1.2440276 234 88 12
0.70210147 1.034201 -1.2403771 234 88 12
0.73968971 1.0619268 -1.2772962 234 88 12
0.7954371 -0.12236974 -1.5668827 234 88 12
0.81165689 -0.11010363 -1.5836372 234 88 12
0.81741655 -0.12369167 -1.5955981 234 88 12
0.80220097 -0.12139806 -1.5793605 234 88 12
0.78527898 -0.11907285 -1.5613121 234 88 12
0.79141337 -0.11114188 -1.5674504 234 88 12
0.8388406 -0.10444012 -1.617425 234 88 12
0.77555531 -0.1270262 -1.556825 234 88 12
0.78501147 -0.12244605 -1.5665675 234 88 12
0.84663713 -0.10705646 -1.6307204 234 88 12
0.82898933 -0.10474439 -1.6120415 234 88 12
0.77242076 -0.12688205 -1.5589498 234 88 12
0.7744363 -0.11914895 -1.5607044 234 88 12
0.83873975 -0.1038309 -1.6271875 234 88 12
0.90088153 -0.096885808 -1.6917927 234 88 12
0.78049493 -0.12947665 -1.5728215 234 88 12
0.76953316 -0.12293061 -1.5611582 234 88 12
0.8228665 -0.10800796 -1.6157957 234 88 12
0.85458022 -0.10255609 -1.6484393 234 88 12
0.76723176 -0.13027874 -1.5644736 234 88 12
0.81195998 -0.10840559 -1.6095419 234 88 12
0.92667121 -0.097876512 -1.7271646 234 88 12
0.80986792 -0.10142037 -1.6070755 234 88 12
0.76221728 -0.12651947 -1.5645045 234 88 12
0.7623226 -0.12272016 -1.5644433 234 88 12
0.80912399 -0.10471629 -1.6114733 234 88 12
0.91371793 -0.095405273 -1.7179524 234 88 12
0.77867573 -0.13573645 -1.5869224 234 88 12
0.76159865 -0.13370736 -1.5695076 234 88 12
0.79510725 -0.10885423 -1.6024069 234 88 12
0.79526448 -0.10523744 -1.6024069 234 88 12
0.77413642 -0.10278355 -1.5808636 234 88 12
0.753824 -0.20584244 -1.5701047 234 88 12
0.7566697 -0.20153637 -1.5727822 234 88 12
0.75497574 -0.19809753 -1.5709255 234 88 12
0.75572789 -0.1941998 -1.5715123 234 88 12
0.76237977 -0.18927874 -1.5779964 234 88 12
0.75610965 -0.15647005 -1.5702447 234 88 12
0.7556963 -0.14896558 -1.5694997 234 88 12
0.75705266 -0.11098794 -1.5692028 234 88 12
0.75963563 -0.10326339 -1.571466 234 88 12
0.75747633 -0.095793374 -1.5689641 234 88 12
0.75022364 -0.1907035 -1.5711026 234 88 12
0.75207549 -0.18285109 -1.5726129 234 88 12
0.75412291 -0.17875955 -1.5744821 234 88 12
0.75864363 -0.17430963 -1.5788087 234 88 12
0.76323706 -0.1698942 -1.5832094 234 88 12
0.75176144 -0.16781318 -1.5716451 234 88 12
0.75192666 -0.16401395 -1.5716451 234 88 12
0.75164813 -0.1564927 -1.5710397 234 88 12
0.75205427 -0.14887905 -1.5711149 234 88 12
0.75405812 -0.137321 -1.5726159 234 88 12
0.75397146 -0.12977037 -1.572201 234 88 12
0.75348371 -0.1222431 -1.5713862 234 88 12
0.75543791 -0.11452912 -1.5730047 234 88 12
0.75560278 -0.11073703 -1.5730047 234 88 12
0.75392509 -0.1032608 -1.5710022 234 88 12
0.75661623 -0.099335589 -1.5735223 234 88 12
0.75466484 -0.095637843 -1.5714105 234 88 12
0.74762964 -0.20929193 -1.5745705 234 88 12
0.74634558 -0.2057772 -1.5731443 234 88 12
0.74777204 -0.20173784 -1.5743859 234 88 12
0.74724269 -0.19052768 -1.5733767 234 88 12
0.7496689 -0.17505556 -1.5751171 234 88 12
0.74853057 -0.16390294 -1.5735059 234 88 12
0.7487089 -0.15632151 -1.5733558 234 88 12
0.74890524 -0.14873487 -1.5732232 234 88 12
0.75086999 -0.13718238 -1.5746748 234 88 12
0.75019598 -0.12968424 -1.5736823 234 88 12
0.75485581 -0.11044295 -1.5774772 234 88 12
0.7507298 -0.10312187 -1.5730658 234 88 12
0.75870252 -0.095188677 -1.5806371 234 88 12
0.75176394 -0.091693729 -1.5735991 234 88 12
0.74347574 -0.20180622 -1.5753638 234 88 12
0.74496138 -0.1864634 -1.5761703 234 88 12
0.74415469 -0.18282309 -1.5752195 234 88 12
0.74518734 -0.17511275 -1.5759068 234 88 12
0.74509853 -0.16379647 -1.5753344 234 88 12
0.74601686 -0.15611973 -1.5759104 234 88 12
0.74571067 -0.14859597 -1.5752864 234 88 12
0.74607712 -0.13720348 -1.5751593 234 88 12
0.74335331 -0.12944718 -1.5773599 234 88 12
0.74422276 -0.12180152 -1.5778853 234 88 12
0.76044238 -0.11312333 -1.5933836 234 88 12
0.7442795 -0.11043224 -1.5774572 234 88 12
0.74482602 -0.10281847 -1.577668 234 88 12
0.74559098 -0.09519995 -1.5780923 234 88 12
0.74756867 -0.08755184 -1.5797018 234 88 12
0.75037551 -0.083692148 -1.5822835 234 88 12
0.73990792 -0.20476209 -1.5823655 234 88 12
0.73773777 -0.20140807 -1.5801162 234 88 12
0.73753095 -0.19013317 -1.5794393 234 88 12
0.7425099 -0.12910131 -1.5816977 234 88 12
0.7424798 -0.087473385 -1.5799106 234 88 12
0.76293993 -0.079448804 -1.5994432 234 88 12
0.74626362 -0.076023296 -1.5831021 234 88 12
0.75134641 -0.072187737 -1.5878767 234 88 12
0.73722517 -0.20452946 -1.5848969 234 88 12
0.74391496 -0.19954479 -1.5911385 234 88 12
0.73580927 -0.19351099 -1.5830698 234 88 12
0.73530501 -0.18983072 -1.5824292 234 88 12
0.73867822 -0.18550852 -1.5855006 234 88 12
0.73664474 -0.18207707 -1.583396 234 88 12
0.73582232 -0.17466517 -1.5822923 234 88 12
0.73692662 -0.16319168 -1.5828761 234 88 12
0.73642218 -0.15570579 -1.5820758 234 88 12
0.7361899 -0.14817218 -1.5815361 234 88 12
0.73680812 -0.14053968 -1.5818121 234 88 12
0.73754251 -0.12911882 -1.5820415 234 88 12
0.73742646 -0.12155576 -1.5816126 234 88 12
0.73775756 -0.11395361 -1.5816131 234 88 12
0.73814821 -0.1101386 -1.5818298 234 88 12
0.73881072 -0.10252164 -1.5821493 234 88 12
0.74340022 -0.094748817 -1.5862488 234 88 12
0.73886627 -0.087347716 -1.5815667 234 88 12
0.74923939 -0.06828887 -1.5907698 234 88 12
0.74140066 -0.060745213 -1.5828952 234 88 12
0.74510139 -0.049427524 -1.585989 234 88 12
0.75157732 -0.19009282 -1.6031376 234 88 12
0.74010372 -0.18835011 -1.5920815 234 88 12
0.74445695 -0.18391143 -1.5960641 234 88 12
0.74119598 -0.13213389 -1.5907873 234 88 12
0.74135959 -0.12837088 -1.5907873 234 88 12
0.73951775 -0.12101133 -1.5887178 234 88 12
0.73561919 -0.10238288 -1.5842105 234 88 12
0.73556542 -0.094802253 -1.5838435 234 88 12
0.73601902 -0.083402857 -1.5838032 234 88 12
0.73670828 -0.075796552 -1.5841465 234 88 12
0.73682928 -0.068200581 -1.5839462 234 88 12
0.73671764 -0.060599159 -1.5835229 234 88 12
0.73746938 -0.049198747 -1.583768 234 88 12
0.88626105 -0.15730825 -1.7347519 234 88 12
0.7393325 -0.16920996 -1.5956012 234 88 12
0.73934889 -0.16548191 -1.5954628 234 88 12
0.73451775 -0.158638 -1.5905885 234 88 12
0.74003088 -0.052951343 -1.5914609 234 88 12
0.72670317 -0.17795289 -1.5890543 234 88 12
0.72740257 -0.15522218 -1.5887818 234 88 12
0.72685909 -0.14772756 -1.5879616 234 88 12
0.7274335 -0.14010255 -1.5881907 234 88 12
0.72840095 -0.12866519 -1.5886344 234 88 12
0.72758877 -0.12115853 -1.5875601 234 88 12
0.7279309 -0.11355307 -1.5875708 234 88 12
0.73261094 -0.10570703 -1.591665 234 88 12
0.72883177 -0.10212575 -1.587952 234 88 12
0.72892451 -0.094534852 -1.5877281 234 88 12
0.73351675 -0.086803205 -1.5917442 234 88 12
0.73645973 -0.041475065 -1.5926615 234 88 12
0.72894233 -0.1470066 -1.5949432 234 88 12
0.72512239 -0.13231613 -1.5907662 234 88 12
0.72655845 -0.10951222 -1.5911827 234 88 12
0.72742474 -0.1018975 -1.5916841 234 88 12
0.73121125 -0.094176829 -1.5949169 234 88 12
0.72778958 -0.090528339 -1.5915629 234 88 12
0.72603673 -0.086793795 -1.5897685 234 88 12
0.72701651 -0.082971983 -1.5905308 234 88 12
0.72745007 -0.075375542 -1.5906276 234 88 12
0.73042804 -0.071551315 -1.5932616 234 88 12
0.72681451 -0.067786165 -1.589723 234 88 12
0.72714245 -0.060182516 -1.5897205 234 88 12
0.72751611 -0.05257953 -1.5897609 234 88 12
0.77127963 -0.042507064 -1.6303495 234 88 12
0.72043252 -0.13610005 -1.5915897 234 88 12
0.72123063 -0.1284547 -1.5920229 234 88 12
0.72216845 -0.12080826 -1.5925859 234 88 12
0.75143319 -0.10040845 -1.6189808 234 88 12
0.73398632 -0.097539932 -1.6026371 234 88 12
0.74942982 -0.093191288 -1.6168256 234 88 12
0.724244 -0.067644499 -1.5923665 234 88 12
0.72457427 -0.060047146 -1.5923665 234 88 12
0.72444719 -0.05244261 -1.5919408 234 88 12
0.74891543 -0.041779164 -1.6142679 234 88 12
0.71718621 -0.14732122 -1.5940626 234 88 12
0.72446972 -0.12777442 -1.6000038 234 88 12
0.71833432 -0.12071725 -1.5940546 234 88 12
0.71866477 -0.11311585 -1.5940546 234 88 12
0.73188257 -0.093625598 -1.6054784 234 88 12
0.79728633 -0.080833599 -1.6653636 234 88 12
0.77016103 -0.077945754 -1.640198 234 88 12
0.72657645 -0.075019546 -1.5998312 234 88 12
0.76608098 -0.1415361 -1.643659 234 88 12
0.72035432 -0.14274068 -1.6017809 234 88 12
0.72051823 -0.13897084 -1.6017809 234 88 12
0.71799207 -0.13545263 -1.5993245 234 88 12
0.71815652 -0.13166939 -1.5993245 234 88 12
0.71977657 -0.071146809 -1.5983971 234 88 12
0.72235698 -0.067348756 -1.6006117 234 88 12
0.71942419 -0.055982605 -1.5974696 234 88 12
0.71958911 -0.052189268 -1.5974696 234 88 12
0.72617865 -0.14167823 -1.611976 234 88 12
0.72432029 -0.13815069 -1.6101446 234 88 12
0.72845614 -0.13034447 -1.6136007 234 88 12
0.72037739 -0.063435733 -1.603598 234 88 12
0.7261492 -0.059698846 -1.6087044 234 88 12
0.71614903 -0.048248563 -1.5991476 234 88 12
