ply
format ascii 1.0
element vertex 1885
property float x
property float y
property float z
property uchar red
property uchar green
property uchar blue
end_header
-0.0057976395 0.012933196 2.4958646 234 88 12
0.00044597225 0.012933196 2.4958646 234 88 12
-0.011149307 0.012041251 2.4958646 234 88 12
0.0056998665 0.051298797 1.7325233 234 88 12
0.013291453 0.051267032 1.7331411 234 88 12
0.011149307 0.012041251 2.4958646 234 88 12
-0.073912106 0.047379553 1.7350293 234 88 12
-0.066331372 0.047379553 1.7350293 234 88 12
-0.00026267322 0.00024321595 2.7248924 234 88 12
0.024624273 0.04735437 1.7355582 234 88 12
0.028100897 0.046834826 1.7464687 234 88 12
-0.081089117 0.043373249 1.7399584 234 88 12
-0.077317528 0.043373249 1.7399584 234 88 12
-0.073912106 0.04358919 1.7350293 234 88 12
0.0017012589 0.039128955 1.8368391 234 88 12
0.0051982426 0.039853193 1.8203075 234 88 12
0.0094997771 0.043698978 1.7325233 234 88 12
0.011285394 0.037080582 1.8835955 234 88 12
0.017047575 0.043566022 1.7355582 234 88 12
0.024624273 0.043566022 1.7355582 234 88 12
0.028100897 0.043088041 1.7464687 234 88 12
0.035506442 0.042981483 1.7489009 234 88 12
0.046516083 0.042794798 1.7531623 234 88 12
0.048498552 0.041313581 1.7869725 234 88 12
0.05244296 0.038909294 1.841853 234 88 12
0.055826377 0.038909294 1.841853 234 88 12
0.015609029 0.010257361 2.4958646 234 88 12
-0.043024644 0.029145727 2.0013568 234 88 12
9.7286384e-06 0.0002043014 2.7248924 234 88 12
0.019919584 0.032177791 1.9255552 234 88 12
0.023234846 0.032528784 1.9167804 234 88 12
0.061929025 0.035148907 1.8512774 234 88 12
-0.0929868 0.036056105 1.7337129 234 88 12
-0.012220189 0.021107599 2.1467638 234 88 12
-0.0099983364 0.021107599 2.1467638 234 88 12
-0.010242669 0.02780153 1.9617999 234 88 12
-0.0013571639 0.025786115 2.017489 234 88 12
0.0013571639 0.025786115 2.017489 234 88 12
0.0039531183 0.025036417 2.0382042 234 88 12
0.0091208601 0.02475662 2.0459354 234 88 12
0.011621781 0.02453487 2.0520627 234 88 12
0.022984136 0.029113239 1.9255552 234 88 12
0.02545519 0.028449919 1.9438838 234 88 12
0.036157563 0.032713987 1.8260609 234 88 12
0.035372123 0.029220449 1.9225929 234 88 12
0.037811525 0.028736761 1.9359579 234 88 12
0.045142446 0.029576086 1.9127661 234 88 12
0.054113086 0.033166084 1.8135687 234 88 12
0.056748763 0.03267353 1.8271787 234 88 12
0.065276541 0.031801391 1.8512774 234 88 12
0.074342556 0.034451429 1.7780526 234 88 12
0.077969022 0.034451429 1.7780526 234 88 12
0.022744585 0.0084734727 2.4958646 234 88 12
-0.050292455 0.023107344 2.0163908 234 88 12
-0.047887545 0.024669342 1.9681526 234 88 12
-0.042279985 0.024784818 1.9645865 234 88 12
-0.035441596 0.024100287 1.9857265 234 88 12
-0.03260627 0.024100287 1.9857265 234 88 12
-0.029105045 0.023561228 2.0023739 234 88 12
-0.021490978 0.019228769 2.1361704 234 88 12
-0.021076478 0.021076478 2.0791087 234 88 12
-0.020229464 0.022926725 2.0219688 234 88 12
-0.0056606838 0.019246325 2.1356282 234 88 12
0.0099514443 0.018797172 2.1494992 234 88 12
0.013266375 0.02050258 2.096832 234 88 12
0.014405942 0.016326735 2.2257919 234 88 12
0.0275003 0.020326309 2.1022758 234 88 12
0.04307298 0.027120024 1.8924699 234 88 12
0.04614285 0.02377056 1.9959092 234 88 12
0.057528865 0.027942592 1.867067 234 88 12
0.066807866 0.029121378 1.8306633 234 88 12
0.077969022 0.030824963 1.7780526 234 88 12
0.076146826 0.027542468 1.8794237 234 88 12
0.079387113 0.027542468 1.8794237 234 88 12
-0.075440943 0.026316609 1.8089187 234 88 12
-0.050192729 0.018363193 2.0872881 234 88 12
-0.050292455 0.020388832 2.0163908 234 88 12
-0.047887545 0.021767067 1.9681526 234 88 12
-0.042082995 0.021767067 1.9681526 234 88 12
-0.032838963 0.018243868 2.0914645 234 88 12
-0.032033864 0.019220319 2.0572889 234 88 12
-0.03260627 0.021264959 1.9857265 234 88 12
-0.023753185 0.016966561 2.1361704 234 88 12
-0.023556065 0.018596893 2.0791087 234 88 12
-0.019463765 0.017173911 2.1289132 234 88 12
-0.017764462 0.017764462 2.1082437 234 88 12
-0.01339707 0.018268732 2.0905943 234 88 12
-0.010351654 0.017252756 2.1261535 234 88 12
-0.0075700865 0.016221613 2.1622436 234 88 12
-0.0060795322 0.018238597 2.0916491 234 88 12
0.0010895537 0.016343305 2.1579843 234 88 12
0.0033640061 0.01682003 2.141299 234 88 12
0.012237194 0.016687084 2.145952 234 88 12
0.020048451 0.017689809 2.1108568 234 88 12
0.023011129 0.018166682 2.094166 234 88 12
0.034639452 0.017916957 2.1029065 234 88 12
0.039140191 0.018938802 2.067142 234 88 12
0.048265088 0.020685038 2.0060236 234 88 12
0.06504561 0.023797175 1.8970989 234 88 12
0.068218566 0.023797175 1.8970989 234 88 12
0.075741217 0.025247071 1.8463525 234 88 12
-0.026312362 0.0057976395 2.4958646 234 88 12
-0.081246428 0.022472417 1.8224601 234 88 12
-0.057224203 0.017300339 2.0313325 234 88 12
-0.05456261 0.017300339 2.0313325 234 88 12
-0.050551161 0.016850388 2.0495036 234 88 12
-0.038347911 0.015106753 2.1199195 234 88 12
-0.035789814 0.015008632 2.1238821 234 88 12
-0.031865589 0.015342692 2.1103914 234 88 12
-0.026397578 0.014920371 2.1274467 234 88 12
-0.022242315 0.015218426 2.1154096 234 88 12
-0.019788602 0.015132461 2.1188815 234 88 12
-0.010420601 0.015051979 2.1221316 234 88 12
0.0011691016 0.015198319 2.1162217 234 88 12
0.0059436713 0.015453545 2.1059146 234 88 12
0.0080895834 0.015023513 2.1232812 234 88 12
0.015181401 0.015181401 2.116905 234 88 12
0.025821397 0.015984675 2.084465 234 88 12
0.035254482 0.015803734 2.0917723 234 88 12
0.04028238 0.015868817 2.089144 234 88 12
0.045710672 0.016060507 2.0814025 234 88 12
0.067104705 0.021277102 1.8707324 234 88 12
0.068218566 0.020624219 1.8970989 234 88 12
0.068680927 0.019841157 1.9287225 234 88 12
0.080369912 0.022229975 1.832251 234 88 12
-0.092045717 0.019103829 1.8182263 234 88 12
-0.081246428 0.019015122 1.8224601 234 88 12
-0.066439852 0.016240854 1.9548683 234 88 12
-0.043862693 0.013040259 2.1076241 234 88 12
-0.010674565 0.013046691 2.107317 234 88 12
0.033620909 0.013697408 2.0762601 234 88 12
0.047162775 0.014822586 2.0225585 234 88 12
0.047494177 0.013395794 2.0906553 234 88 12
0.049042337 0.0131577 2.1020188 234 88 12
0.065954968 0.016872201 1.9247359 234 88 12
0.083789907 0.01880998 1.832251 234 88 12
-0.083225489 0.015286313 1.8382983 234 88 12
-0.063486971 0.013287971 1.9548683 234 88 12
-0.053646024 0.011775956 2.0430691 234 88 12
-0.04727013 0.010908492 2.0936713 234 88 12
-0.041459877 0.010661111 2.1081018 234 88 12
-0.036394529 0.010566154 2.113641 234 88 12
-0.031778187 0.010592729 2.1120908 234 88 12
-0.029701259 0.010692453 2.1062737 234 88 12
-0.020249425 0.010720284 2.10465 234 88 12
-0.01061403 0.01061403 2.1108482 234 88 12
-0.008232371 0.010584477 2.1125722 234 88 12
0.0011846357 0.010661721 2.1080663 234 88 12
0.0035262762 0.010578829 2.1129017 234 88 12
0.0060004205 0.010800757 2.0999558 234 88 12
0.013171822 0.010776945 2.1013448 234 88 12
0.018291382 0.010974829 2.0898015 234 88 12
0.023001928 0.01089565 2.0944204 234 88 12
0.026355112 0.011295048 2.0711222 234 88 12
0.046417773 0.011290809 2.0713694 234 88 12
0.056926791 0.012496125 2.0010593 234 88 12
0.072402894 0.013864383 1.9212443 234 88 12
0.088017002 0.016166387 1.7869607 234 88 12
0.09160953 0.016166387 1.7869607 234 88 12
-0.066439852 0.010335089 1.9548683 234 88 12
-0.063486971 0.010335089 1.9548683 234 88 12
-0.053646024 0.009159077 2.0430691 234 88 12
-0.037179608 0.0083953952 2.1003454 234 88 12
-0.018113313 0.0084528793 2.096034 234 88 12
0.0085675092 0.0085675092 2.0874369 234 88 12
0.01595212 0.008589603 2.0857797 234 88 12
0.023309108 0.0085875662 2.0859325 234 88 12
0.026163155 0.0087210517 2.0759211 234 88 12
0.033797555 0.0087623289 2.0728254 234 88 12
0.045746863 0.0086548124 2.080889 234 88 12
0.05135214 0.0087674391 2.0724421 234 88 12
0.059703708 0.0097192079 2.0010593 234 88 12
0.070680395 0.010994729 1.9053954 234 88 12
-0.092689112 0.0090871677 1.7758474 234 88 12
-0.07641983 0.008129769 1.8763742 234 88 12
-0.056964897 0.0066238251 2.0344985 234 88 12
-0.025404293 0.0060486412 2.0948927 234 88 12
-0.010799295 0.0059996084 2.1000412 234 88 12
-0.006104249 0.006104249 2.0890539 234 88 12
0.047030471 0.0060295472 2.0968976 234 88 12
0.069290392 0.0076989322 1.9216121 234 88 12
0.084287189 0.0086007332 1.826923 234 88 12
0.092280097 0.0090470687 1.7800578 234 88 12
-0.090383522 0.0051160487 1.8346915 234 88 12
-0.079671741 0.0048778616 1.8763742 234 88 12
-0.049071431 0.0035905926 2.1016462 234 88 12
0.0291206 0.0037983391 2.0652907 234 88 12
0.041656487 0.0037869532 2.0672832 234 88 12
0.052427813 0.0038361815 2.0586681 234 88 12
0.06195626 0.0043225298 1.9735572 234 88 12
-0.086972825 0.0017053495 1.8346915 234 88 12
-0.062326983 0.0012719792 2.0622108 234 88 12
-0.05382292 0.0012516958 2.0728598 234 88 12
-0.028864594 0.0011545838 2.1238434 234 88 12
0.08210586 0.0018245747 1.7720983 234 88 12
0.092823051 0.001894348 1.7354673 234 88 12
-0.00071019056 -9.7286384e-06 2.7248924 234 88 12
-0.072981231 -0.0013770043 2.0070727 234 88 12
-0.064870939 -0.0012719792 2.0622108 234 88 12
-0.056326311 -0.0012516958 2.0728598 234 88 12
-0.05382292 -0.0012516958 2.0728598 234 88 12
-0.048025984 -0.0011713655 2.1150331 234 88 12
-0.0431748 -0.0011668865 2.1173847 234 88 12
-0.041810077 -0.0011945736 2.1028488 234 88 12
-0.031627003 -0.0011713705 2.1150305 234 88 12
-0.027267596 -0.0011855477 2.1075876 234 88 12
-0.020233162 -0.001190186 2.1051524 234 88 12
-0.010873052 -0.0012081169 2.0957386 234 88 12
-0.008367449 -0.00119535 2.1024413 234 88 12
0.0012206096 -0.0012206096 2.08918 234 88 12
0.0035346097 -0.0011782032 2.1114433 234 88 12
0.0062479116 -0.0012495823 2.0739694 234 88 12
0.013413044 -0.0012193676 2.0898321 234 88 12
0.015951971 -0.0012270747 2.0857859 234 88 12
0.023538591 -0.0012388732 2.0795915 234 88 12
0.033344205 -0.0012349705 2.0816405 234 88 12
0.036000524 -0.0012413973 2.0782664 234 88 12
0.04561317 -0.0012327883 2.0827861 234 88 12
0.047370739 -0.0012146344 2.0923169 234 88 12
0.051069926 -0.001245608 2.0760558 234 88 12
0.054524355 -0.0012680083 2.0642958 234 88 12
0.073257476 -0.0016279439 1.8753294 234 88 12
0.085755013 -0.0018245747 1.7720983 234 88 12
0.092823051 -0.001894348 1.7354673 234 88 12
0.099728279 -0.0018816657 1.7421255 234 88 12
0.025420418 -0.00044597225 2.4958646 234 88 12
-0.079880424 -0.0046988484 1.9077015 234 88 12
-0.076747857 -0.0046988484 1.9077015 234 88 12
-0.079134732 -0.0050511532 1.8460482 234 88 12
-0.075767294 -0.0050511532 1.8460482 234 88 12
-0.041908462 -0.0033979835 2.1353528 234 88 12
-0.019969963 -0.0035241109 2.1132805 234 88 12
0.001105772 -0.0033173158 2.1494696 234 88 12
0.0034936201 -0.0034936201 2.1186166 234 88 12
0.0060736123 -0.0036441674 2.0922706 234 88 12
0.025498111 -0.0036425872 2.0925472 234 88 12
0.035245724 -0.0036461095 2.0919309 234 88 12
0.083104059 -0.0053045144 1.80171 234 88 12
0.091455974 -0.005379763 1.7885414 234 88 12
0.033447918 -0.0013379168 2.4958646 234 88 12
-0.051867336 -0.0060310857 2.096736 234 88 12
-0.043030974 -0.0055167913 2.1507368 234 88 12
-0.032438438 -0.0060071186 2.0992525 234 88 12
-0.015668975 -0.0060265288 2.0972145 234 88 12
0.018665971 -0.0062219906 2.0766909 234 88 12
0.066397116 -0.0073774578 1.955367 234 88 12
-0.067219324 -0.0092261815 2.0380363 234 88 12
-0.064583272 -0.0092261815 2.0380363 234 88 12
-0.064316869 -0.0095791081 2.0115669 234 88 12
-0.048341889 -0.0078696096 2.1397793 234 88 12
-0.042576887 -0.0080550872 2.1258686 234 88 12
-0.028754808 -0.0080513461 2.1261489 234 88 12
-0.0061286511 -0.0085801119 2.0864916 234 88 12
-0.0012495483 -0.0087468382 2.0739872 234 88 12
0.034710478 -0.0083783912 2.1016207 234 88 12
0.047007211 -0.008025622 2.1280785 234 88 12
0.047002506 -0.0076515707 2.1561322 234 88 12
0.06722796 -0.0096039949 2.0097003 234 88 12
0.095646873 -0.012632606 1.7825545 234 88 12
0.10286551 -0.012632606 1.7825545 234 88 12
0.11369345 -0.012632606 1.7825545 234 88 12
0.1245214 -0.012632606 1.7825545 234 88 12
-0.067219324 -0.011862233 2.0380363 234 88 12
-0.064583272 -0.011862233 2.0380363 234 88 12
-0.064316869 -0.012315997 2.0115669 234 88 12
-0.046034217 -0.0096350694 2.1679542 234 88 12
-0.045102339 -0.009900514 2.1524701 234 88 12
-0.042457964 -0.010917762 2.0931306 234 88 12
-0.036018107 -0.011178033 2.0779481 234 88 12
-0.011109472 -0.011109472 2.0819473 234 88 12
-0.0012371243 -0.01113412 2.0805097 234 88 12
0.0012371243 -0.01113412 2.0805097 234 88 12
0.003728759 -0.011186277 2.0774672 234 88 12
0.011073773 -0.011073773 2.0840299 234 88 12
0.013727076 -0.011231244 2.0748441 234 88 12
0.023415763 -0.011091677 2.0829854 234 88 12
0.027191259 -0.011653397 2.0502186 234 88 12
0.031081997 -0.011189519 2.0772781 234 88 12
0.036060333 -0.011191137 2.0771837 234 88 12
0.039295968 -0.011408507 2.0645037 234 88 12
0.044349898 -0.010787813 2.1007109 234 88 12
0.064250469 -0.012850095 1.9804112 234 88 12
0.067106046 -0.012850095 1.9804112 234 88 12
0.06722796 -0.012347993 2.0097003 234 88 12
-0.049501978 -0.010676897 2.2204208 234 88 12
-0.055076994 -0.01289036 2.1147783 234 88 12
-0.044749219 -0.011447474 2.1836433 234 88 12
-0.042894095 -0.011508171 2.1807463 234 88 12
-0.04144337 -0.012321002 2.1419523 234 88 12
-0.041922051 -0.013175502 2.1011691 234 88 12
-0.036385197 -0.012910876 2.1137991 234 88 12
-0.033167779 -0.012580882 2.1295488 234 88 12
-0.029317986 -0.012899914 2.1143222 234 88 12
-0.027655153 -0.013226377 2.0987411 234 88 12
-0.022694714 -0.013139046 2.1029091 234 88 12
-0.013389387 -0.013389387 2.090961 234 88 12
-0.0087327063 -0.013722825 2.075047 234 88 12
0.014285401 -0.014285401 2.0481968 234 88 12
0.032771748 -0.013351453 2.0927715 234 88 12
0.032270033 -0.012240358 2.1458011 234 88 12
0.040078614 -0.014221443 2.0512493 234 88 12
0.039690927 -0.013230309 2.0985534 234 88 12
0.042699374 -0.013419803 2.0895095 234 88 12
0.043136001 -0.012824217 2.1179352 234 88 12
0.043137979 -0.012167122 2.1492965 234 88 12
0.041876215 -0.011235083 2.1937802 234 88 12
0.043342825 -0.0110877 2.2008142 234 88 12
0.063849606 -0.014333584 2.045897 234 88 12
0.066455707 -0.014333584 2.045897 234 88 12
-0.049501978 -0.012618151 2.2204208 234 88 12
-0.042597454 -0.014966673 2.1255767 234 88 12
-0.029674698 -0.01330245 2.1927857 234 88 12
-0.025944328 -0.016060775 2.0813918 234 88 12
-0.018693736 -0.016201239 2.0757191 234 88 12
0.003790892 -0.016427198 2.0665939 234 88 12
0.011402626 -0.016470458 2.0648468 234 88 12
0.017031271 -0.017031271 2.0421987 234 88 12
0.024137758 -0.016515307 2.0630357 234 88 12
0.038891166 -0.017433971 2.0259359 234 88 12
0.036742803 -0.015408273 2.1077428 234 88 12
0.04245745 -0.014917483 2.1275632 234 88 12
0.048764542 -0.014087535 2.1610804 234 88 12
0.051859882 -0.014344223 2.1507142 234 88 12
-0.033712596 -0.0095413001 2.3960545 234 88 12
-0.03244042 -0.0095413001 2.3960545 234 88 12
-0.04326839 -0.013245425 2.2664101 234 88 12
-0.046300109 -0.015433369 2.189832 234 88 12
-0.043064695 -0.019574862 2.0448799 234 88 12
-0.020069186 -0.0097108958 2.3901186 234 88 12
-0.035800572 -0.018517537 2.0818863 234 88 12
-0.02657965 -0.015947789 2.1718273 234 88 12
-0.026456928 -0.018897805 2.0685768 234 88 12
-0.024392243 -0.019257035 2.0560038 234 88 12
-0.019306634 -0.019306634 2.0542679 234 88 12
-0.01391599 -0.018976349 2.0658278 234 88 12
-0.0091521544 -0.019611759 2.0435884 234 88 12
-0.0012814993 -0.019222489 2.0572128 234 88 12
0.0012831389 -0.019247083 2.0563521 234 88 12
0.029060951 -0.016144972 2.1649261 234 88 12
0.045269728 -0.018352592 2.0876594 234 88 12
0.043065667 -0.015755732 2.1785493 234 88 12
0.039997328 -0.013952557 2.2416606 234 88 12
0.046652194 -0.015550731 2.1857245 234 88 12
0.041010056 -0.012554099 2.2906065 234 88 12
-0.052527409 -0.020766651 2.0886769 234 88 12
-0.048544161 -0.021160275 2.0765209 234 88 12
-0.054214168 -0.026332596 1.9167875 234 88 12
-0.049099274 -0.026925407 1.8984801 234 88 12
-0.039446615 -0.024836756 1.9629825 234 88 12
-0.037182648 -0.025284199 1.9491644 234 88 12
-0.026659403 -0.021581421 2.0635149 234 88 12
-0.011767248 -0.022227023 2.0435772 234 88 12
-0.0089906594 -0.021834457 2.0557005 234 88 12
-0.0013044531 -0.022175703 2.0451622 234 88 12
0.01433837 -0.022159299 2.0456686 234 88 12
0.019759735 -0.022394367 2.0384092 234 88 12
0.022394367 -0.022394367 2.0384092 234 88 12
0.031005802 -0.022917332 2.0222588 234 88 12
0.034177519 -0.023240713 2.0122721 234 88 12
0.044534933 -0.021631254 2.061976 234 88 12
0.037912682 -0.014988734 2.2671127 234 88 12
0.040945128 -0.015468159 2.2523069 234 88 12
0.031523641 -0.010507881 2.4054918 234 88 12
-0.034703828 -0.012928877 2.3727548 234 88 12
-0.051640987 -0.020876143 2.1531591 234 88 12
-0.052527409 -0.023209786 2.0886769 234 88 12
-0.066996135 -0.032639142 1.8281289 234 88 12
-0.063560434 -0.032639142 1.8281289 234 88 12
-0.055225894 -0.033848129 1.7947228 234 88 12
-0.048448082 -0.034093097 1.787954 234 88 12
-0.029263854 -0.022240529 2.115459 234 88 12
-0.030382084 -0.025098244 2.0364959 234 88 12
-0.027346475 -0.024742048 2.0463381 234 88 12
-0.024120413 -0.024120413 2.0635149 234 88 12
-0.023379035 -0.02612951 2.0080004 234 88 12
-0.020580955 -0.026069209 2.0096667 234 88 12
-0.017601922 -0.025725886 2.0191531 234 88 12
-0.014308861 -0.024715304 2.0470772 234 88 12
-0.0095194392 -0.025838479 2.016042 234 88 12
-0.0072301161 -0.027474441 1.9708378 234 88 12
-0.0033804516 -0.021409526 2.1384211 234 88 12
-0.001300134 -0.024702545 2.0474296 234 88 12
0.0014145448 -0.026876351 1.9873639 234 88 12
0.0037868463 -0.023983359 2.067302 234 88 12
0.0095644454 -0.025960639 2.0126665 234 88 12
0.019218238 -0.021479208 2.1364956 234 88 12
0.029042192 -0.029042192 1.9275184 234 88 12
0.023809016 -0.021541491 2.1347747 234 88 12
0.032515638 -0.026860744 1.9877952 234 88 12
0.035343084 -0.026860744 1.9877952 234 88 12
0.043379527 -0.026587453 1.9953467 234 88 12
0.043039467 -0.0247803 2.0452812 234 88 12
0.045706566 -0.024812136 2.0444014 234 88 12
0.043715388 -0.021297239 2.1415236 234 88 12
0.042397071 -0.017139241 2.2564156 234 88 12
0.034044355 -0.013200872 2.3652391 234 88 12
0.031523641 -0.011744102 2.4054918 234 88 12
-0.051640987 -0.023073632 2.1531591 234 88 12
-0.056077093 -0.027386487 2.0453379 234 88 12
-0.053468853 -0.027386487 2.0453379 234 88 12
-0.066996135 -0.03607484 1.8281289 234 88 12
-0.063560434 -0.03607484 1.8281289 234 88 12
-0.053643718 -0.032186233 1.9253442 234 88 12
-0.038872134 -0.035491947 1.8427013 234 88 12
-0.031291801 -0.034585677 1.8653581 234 88 12
-0.023225525 -0.032515734 1.9171066 234 88 12
-0.016790912 -0.032055378 1.9286156 234 88 12
-0.010748846 -0.02508064 2.102984 234 88 12
-0.011924682 -0.035774048 1.8356488 234 88 12
-0.008601482 -0.036126226 1.8268443 234 88 12
-0.0051033935 -0.035723753 1.8369062 234 88 12
-0.0016338871 -0.03431163 1.8722093 234 88 12
0.0016338871 -0.03431163 1.8722093 234 88 12
0.0034864852 -0.024405396 2.1198652 234 88 12
0.0018619383 -0.0078201406 2.5344965 234 88 12
0.011734402 -0.035203207 1.8499198 234 88 12
0.016238239 -0.037889227 1.7827693 234 88 12
0.017798999 -0.02875223 2.0111942 234 88 12
0.02480839 -0.030645659 1.9638585 234 88 12
0.035549764 -0.035549764 1.8412559 234 88 12
0.03393162 -0.030981045 1.9554739 234 88 12
0.00026267322 -0.0002043014 2.7248924 234 88 12
0.033651121 -0.024368053 2.1207986 234 88 12
0.040120393 -0.02717833 2.0505416 234 88 12
0.036239963 -0.023061795 2.153455 234 88 12
0.045202192 -0.027121315 2.0519671 234 88 12
0.032992415 -0.014139607 2.3765099 234 88 12
-0.0469894 -0.024016805 2.1817904 234 88 12
-0.026874196 -0.032531921 1.9874235 234 88 12
-0.0096887304 -0.031834401 2.0033453 234 88 12
0.0092547536 -0.030408476 2.0358934 234 88 12
0.016551072 -0.029282663 2.0615914 234 88 12
0.02480839 -0.033564292 1.9638585 234 88 12
0.0093654171 -0.010257361 2.4958646 234 88 12
0.03393162 -0.03393162 1.9554739 234 88 12
0.046103992 -0.039273769 1.8335335 234 88 12
0.041353039 -0.027174855 2.1097045 234 88 12
0.044532001 -0.026262462 2.1305308 234 88 12
0.043088909 -0.024171827 2.1782517 234 88 12
0.048038818 -0.025695181 2.1434796 234 88 12
-0.026874196 -0.035360783 1.9874235 234 88 12
-0.0096887304 -0.034602609 2.0033453 234 88 12
0.0075815283 -0.011149307 2.4958646 234 88 12
0.011149307 -0.011149307 2.4958646 234 88 12
0.040965695 -0.035315257 1.9883796 234 88 12
0.046442069 -0.035183385 1.9911489 234 88 12
0.045545943 -0.027771916 2.1467898 234 88 12
0.04246866 -0.024691083 2.2114873 234 88 12
0.044443946 -0.024691083 2.2114873 234 88 12
0.022744585 -0.011149307 2.4958646 234 88 12
0.033447918 -0.011149307 2.4958646 234 88 12
0.048544172 -0.035424124 2.0411975 234 88 12
-0.00044597225 -0.014717084 2.4958646 234 88 12
-0.014717084 -0.020068752 2.4958646 234 88 12
0.019176807 -0.022744585 2.4958646 234 88 12
0.022744585 -0.022744585 2.4958646 234 88 12
-1.1764853 0.042119719 1.3618425 234 88 12
-1.1795152 0.042251457 1.3598857 234 88 12
-1.4050665 0.051715579 2.0631275 234 88 12
-1.1823884 0.045989104 1.3579289 234 88 12
-1.4056603 0.055312548 2.062644 234 88 12
-1.1854184 0.046120841 1.3559721 234 88 12
-1.1855751 0.042514931 1.3559721 234 88 12
-1.4084102 0.043825876 2.0611932 234 88 12
-1.4118955 0.06718988 2.0582919 234 88 12
-1.2603316 0.022757862 1.4835442 234 88 12
-1.415188 0.043227773 2.0568411 234 88 12
-1.4147744 0.069993407 2.0563576 234 88 12
-1.4149681 0.065537892 2.0563576 234 88 12
-1.4152006 0.060191281 2.0563576 234 88 12
-1.415433 0.054844663 2.0563576 234 88 12
-1.2628908 0.022869129 1.4818915 234 88 12
-1.415898 0.044151433 2.0563576 234 88 12
-1.4155232 0.070025966 2.0558741 234 88 12
-1.26545 0.022980396 1.4802388 234 88 12
-1.2731274 0.023314198 1.4752805 234 88 12
-1.2756662 0.078370981 1.4711808 234 88 12
-1.2757987 0.075322442 1.4711808 234 88 12
-1.282757 0.072005168 1.4988791 234 88 12
-1.274194 0.069270909 1.4635884 234 88 12
-1.2743278 0.066194244 1.4635884 234 88 12
-1.236689 0.06290058 1.3100088 234 88 12
-1.2630517 0.056544773 1.4160471 234 88 12
-1.2631931 0.053291962 1.4160471 234 88 12
-1.283502 0.051373776 1.498261 234 88 12
-1.2908404 0.040447358 1.5261596 234 88 12
-1.3139223 0.040866438 1.6200594 234 88 12
-1.3359013 0.041812457 1.7095683 234 88 12
-1.370587 0.045621265 1.8512353 234 88 12
-1.3689363 0.043657154 1.8441782 234 88 12
-1.3488955 0.035910379 1.7613459 234 88 12
-1.2573969 0.083309807 1.3844571 234 88 12
-1.2781575 0.078487337 1.4692371 234 88 12
-1.3146627 0.073414557 1.6189247 234 88 12
-1.2472413 0.070128307 1.3401971 234 88 12
-1.3028984 0.066047043 1.5690712 234 88 12
-1.2900039 0.063298151 1.5153837 234 88 12
-1.2813226 0.057220239 1.4784797 234 88 12
-1.3129473 0.055815298 1.6086913 234 88 12
-1.3130574 0.053281359 1.6086913 234 88 12
-1.3360198 0.052617244 1.7033004 234 88 12
-1.3473034 0.049498081 1.7492899 234 88 12
-1.3603538 0.047316827 1.8027364 234 88 12
-1.357687 0.045064133 1.7913311 234 88 12
-1.3466151 0.041260812 1.7449728 234 88 12
-1.3558953 0.040976085 1.7832062 234 88 12
-1.2808049 0.023647999 1.4703223 234 88 12
-1.3337476 0.032269575 1.6902776 234 88 12
-1.2428643 0.095781341 1.3121928 234 88 12
-1.272769 0.082333393 1.434968 234 88 12
-1.2623686 0.073272504 1.3897673 234 88 12
-1.2989539 0.068984188 1.5421849 234 88 12
-1.2990745 0.06620989 1.5421849 234 88 12
-1.3074955 0.063475147 1.5769491 234 88 12
-1.3197964 0.061075717 1.6280218 234 88 12
-1.3178786 0.058545858 1.6195304 234 88 12
-1.3200139 0.053696245 1.6275886 234 88 12
-1.3382615 0.052730501 1.7038233 234 88 12
-1.332153 0.047660146 1.6773211 234 88 12
-1.3492167 0.047574855 1.7487589 234 88 12
-1.3287983 0.042594742 1.6623517 234 88 12
-1.3438127 0.042656023 1.7252345 234 88 12
-1.3111447 0.032158203 1.5865285 234 88 12
-1.2833639 0.023759266 1.4686695 234 88 12
-1.3364308 0.032531388 1.6924801 234 88 12
-1.2590712 0.087320402 1.364594 234 88 12
-1.3205165 0.075962618 1.6237051 234 88 12
-1.3154166 0.066151574 1.6002117 234 88 12
-1.3127519 0.06098396 1.5879285 234 88 12
-1.3121136 0.050492518 1.5832764 234 88 12
-1.3439759 0.04887725 1.7184277 234 88 12
-1.339013 0.041669741 1.6959975 234 88 12
-1.342585 0.040085696 1.7108896 234 88 12
-1.3368335 0.036805835 1.6858336 234 88 12
-1.3343821 0.031729337 1.6744736 234 88 12
-1.2666246 0.093603425 1.3840815 234 88 12
-1.2617985 0.090868257 1.3627366 234 88 12
-1.2619474 0.087445445 1.3627366 234 88 12
-1.3409069 0.076842919 1.7015758 234 88 12
-1.3275524 0.075678937 1.6437128 234 88 12
-1.3249233 0.073451713 1.6319463 234 88 12
-1.3140788 0.068894304 1.5842806 234 88 12
-1.3171213 0.063687809 1.5964365 234 88 12
-1.3211937 0.06120168 1.6135486 234 88 12
-1.3205034 0.051104184 1.6086738 234 88 12
-1.3380777 0.050320532 1.684386 234 88 12
-1.3325983 0.047436606 1.6601933 234 88 12
-1.3395783 0.043777071 1.6896355 234 88 12
-1.3155007 0.034974381 1.5840527 234 88 12
-1.3115449 0.031568371 1.5663378 234 88 12
-1.3312497 0.033045158 1.6516708 234 88 12
-1.3005799 0.023665385 1.5175241 234 88 12
-1.3151941 0.024351249 1.5807351 234 88 12
-1.3153081 0.021729715 1.5807351 234 88 12
-1.2734804 0.086628176 1.3986487 234 88 12
-1.3239727 0.078665845 1.6184723 234 88 12
-1.3088887 0.074642822 1.5515826 234 88 12
-1.3196272 0.071442097 1.5980465 234 88 12
-1.3129914 0.069084473 1.568508 234 88 12
-1.3257726 0.053935952 1.6216493 234 88 12
-1.3281274 0.051658299 1.6315378 234 88 12
-1.330758 0.047079861 1.6421969 234 88 12
-1.3173511 0.040271208 1.5821276 234 88 12
-1.3217098 0.03836121 1.6008705 234 88 12
-1.3195821 0.032811623 1.5904862 234 88 12
-1.3173969 0.024447022 1.5793124 234 88 12
-1.3175108 0.021825491 1.5793124 234 88 12
-1.2722449 0.093847789 1.3804517 234 88 12
-1.2760973 0.090032421 1.3968664 234 88 12
-1.3088402 0.083131894 1.5413237 234 88 12
-1.3285527 0.076090634 1.6277342 234 88 12
-1.3172927 0.074360743 1.5772618 234 88 12
-1.3283674 0.058984518 1.6235968 234 88 12
-1.3286355 0.054079849 1.6238415 234 88 12
-1.338636 0.045547888 1.6667191 234 88 12
-1.3305441 0.042020086 1.6300055 234 88 12
-1.3413745 0.034551218 1.6767834 234 88 12
-1.3080401 0.02165469 1.5258601 234 88 12
-1.2694706 0.09478391 1.3535346 234 88 12
-1.3226374 0.081934385 1.5915128 234 88 12
-1.3270659 0.078950442 1.6109587 234 88 12
-1.326686 0.073997542 1.6082662 234 88 12
-1.3171797 0.071948059 1.56486 234 88 12
-1.328908 0.068924844 1.6173193 234 88 12
-1.3282712 0.066463329 1.6139548 234 88 12
-1.3274399 0.063976817 1.6097054 234 88 12
-1.3306769 0.036854245 1.6190143 234 88 12
-1.3267858 0.033579797 1.6007682 234 88 12
-1.3104031 0.021757424 1.5243341 234 88 12
-1.2754176 0.10117222 1.3669857 234 88 12
-1.2755646 0.097791992 1.3669857 234 88 12
-1.311041 0.086393155 1.5277765 234 88 12
-1.3369991 0.078268565 1.6454695 234 88 12
-1.3276379 0.076680079 1.6021231 234 88 12
-1.3272187 0.064064689 1.5976748 234 88 12
-1.330408 0.054097533 1.610343 234 88 12
-1.3378326 0.052231103 1.6440969 234 88 12
-1.3083721 0.041061718 1.5064491 234 88 12
-1.3383316 0.042765498 1.6444989 234 88 12
-1.3133439 0.03048934 1.5271894 234 88 12
-1.3416797 0.033942826 1.6581255 234 88 12
-1.3417805 0.03162425 1.6581255 234 88 12
-1.4262645 0.047280516 2.0495875 234 88 12
-1.4264195 0.043716103 2.0495875 234 88 12
-1.2721782 0.095498443 1.3355721 234 88 12
-1.2842634 0.087138183 1.3903307 234 88 12
-1.3381263 0.076070912 1.6397058 234 88 12
-1.338019 0.05216207 1.6343484 234 88 12
-1.3289632 0.043670159 1.5903188 234 88 12
-1.3157984 0.039052382 1.5278813 234 88 12
-1.3531306 0.042671539 1.7030147 234 88 12
-1.334335 0.036942285 1.6140468 234 88 12
-1.2799406 0.019757055 1.3564509 234 88 12
-1.4265224 0.07586091 2.0486205 234 88 12
-1.2690446 0.10012435 1.3058107 234 88 12
-1.2692007 0.096535251 1.3058107 234 88 12
-1.2972803 0.089123733 1.4376229 234 88 12
-1.2974155 0.086013399 1.4376229 234 88 12
-1.3390142 0.078642644 1.6336418 234 88 12
-1.3549153 0.044911869 1.7021875 234 88 12
-1.3051661 0.03408666 1.4637071 234 88 12
-1.2854594 0.027270382 1.3687179 234 88 12
-1.3226312 0.031653244 1.5461419 234 88 12
-1.2829559 0.016469818 1.3545994 234 88 12
-1.3168875 0.021907359 1.5168543 234 88 12
-1.2719045 0.10384457 1.303863 234 88 12
-1.2997587 0.092347696 1.435935 234 88 12
-1.2883312 0.087556779 1.379755 234 88 12
-1.3193126 0.081008196 1.5279648 234 88 12
-1.3406502 0.076374225 1.6300148 234 88 12
-1.338822 0.071668103 1.6201998 234 88 12
-1.3389741 0.059443086 1.6183679 234 88 12
-1.3393149 0.054553989 1.6189868 234 88 12
-1.3386959 0.042138007 1.6133918 234 88 12
-1.326074 0.034716409 1.5508928 234 88 12
-1.3187652 0.030451493 1.514709 234 88 12
-1.311929 0.026030077 1.4807745 234 88 12
-1.2677763 0.10168073 1.2663476 234 88 12
-1.2679379 0.097962961 1.2663476 234 88 12
-1.3075072 0.088639826 1.4586445 234 88 12
-1.3442978 0.078683689 1.6371627 234 88 12
-1.337984 0.07191392 1.6047163 234 88 12
-1.33883 0.064432606 1.6072733 234 88 12
-1.3396469 0.05203528 1.6086379 234 88 12
-1.3191851 0.038775455 1.5053388 234 88 12
-1.3273109 0.037346572 1.5449315 234 88 12
-1.3212615 0.027729915 1.5131761 234 88 12
-1.3146622 0.02024219 1.4791749 234 88 12
-1.3307402 0.083112314 1.5591323 234 88 12
-1.3580816 0.077481367 1.6944628 234 88 12
-1.3515244 0.075925261 1.6613753 234 88 12
-1.3363211 0.056811843 1.5812941 234 88 12
-1.3395584 0.049402498 1.5958534 234 88 12
-1.3333393 0.040781293 1.5629214 234 88 12
-1.339424 0.039216522 1.5929704 234 88 12
-1.3389339 0.036566347 1.5899472 234 88 12
-1.3290172 0.031850997 1.5393952 234 88 12
-1.3166488 0.026190422 1.4763941 234 88 12
-1.2740241 0.10195238 1.2623127 234 88 12
-1.3097901 0.08927419 1.4412496 234 88 12
-1.2897465 0.088820823 1.3393015 234 88 12
-1.3489512 0.078783579 1.6379216 234 88 12
-1.3428916 0.059634138 1.6028998 234 88 12
-1.3337829 0.037893947 1.551813 234 88 12
-1.3212804 0.029750494 1.4864848 234 88 12
-1.3232791 0.027286362 1.4960965 234 88 12
-1.2761066 0.10598709 1.2557859 234 88 12
-1.3567686 0.080447808 1.6671442 234 88 12
-1.349714 0.076632708 1.6298076 234 88 12
-1.4776465 0.064235762 2.2885537 234 88 12
-1.3424829 0.049443703 1.5863029 234 88 12
-1.3384036 0.035775933 1.5621358 234 88 12
-1.333391 0.029247496 1.5347481 234 88 12
-1.3237884 0.021038624 1.4832482 234 88 12
-1.3137757 0.089680195 1.4317518 234 88 12
-1.3194021 0.085842103 1.4604878 234 88 12
-1.3297515 0.08165852 1.5140045 234 88 12
-1.34623 0.077257529 1.5997312 234 88 12
-1.3436517 0.039092194 1.5774261 234 88 12
-1.3620975 0.03580115 1.673762 234 88 12
-1.2848173 0.013172999 1.2618222 234 88 12
-1.431725 0.076979898 2.0452354 234 88 12
-1.281895 0.10636397 1.2491494 234 88 12
-1.3216559 0.09193521 1.4588642 234 88 12
-1.3623106 0.078160793 1.6735221 234 88 12
-1.3514602 0.077034444 1.6151125 234 88 12
-1.3397568 0.032609936 1.5420439 234 88 12
-1.3423955 0.030540453 1.5557022 234 88 12
-1.3378375 0.02664656 1.5303684 234 88 12
-1.3478235 0.02674197 1.5839055 234 88 12
-1.4329261 0.049355719 2.0452354 234 88 12
-1.4331585 0.044009104 2.0452354 234 88 12
-1.2850405 0.10650072 1.2471181 234 88 12
-1.3265702 0.08868853 1.4695435 234 88 12
-1.3544431 0.081825122 1.6200341 234 88 12
-1.3529373 0.07961154 1.6112914 234 88 12
-1.3486602 0.031651743 1.5765685 234 88 12
-1.3507988 0.029635798 1.5877615 234 88 12
-1.2860725 0.10710724 1.2334515 234 88 12
-1.3231399 0.092803456 1.4360708 234 88 12
-1.3305438 0.085651018 1.4755034 234 88 12
-1.3124619 0.018609436 1.3587716 234 88 12
-1.3497698 0.088413805 1.5695826 234 88 12
-1.3023217 0.011473845 1.2818427 234 88 12
-1.3495663 0.02294617 1.5523057 234 88 12
-1.3496813 0.020304449 1.5523057 234 88 12
-1.3204402 0.094526052 1.3878272 234 88 12
-1.2950034 0.11142111 1.2246971 234 88 12
-1.2951683 0.10762713 1.2246971 234 88 12
-1.3529799 0.088822067 1.56021 234 88 12
-1.3537716 0.089195505 1.5504885 234 88 12
-1.4374962 0.047768846 2.0423341 234 88 12
-1.4376512 0.044204436 2.0423341 234 88 12
-1.4377152 0.07724034 2.0413668 234 88 12
-1.3046246 0.10807007 1.2178541 234 88 12
-1.3200939 0.100755 1.3125581 234 88 12
-1.3076494 0.11200508 1.215794 234 88 12
-1.327603 0.10398645 1.3206613 234 88 12
-1.4414591 0.077403121 2.038949 234 88 12
0.064114861 -1.4775535 2.2886169 234 88 12
-0.022727512 -1.2661123 1.2493273 234 88 12
-0.018940726 -1.2659477 1.2493273 234 88 12
0.063883021 -1.4775963 2.2885959 234 88 12
-0.033462845 -1.2708231 1.2524575 234 88 12
-0.02969482 -1.2706593 1.2524575 234 88 12
-0.037093215 -1.2741531 1.2504128 234 88 12
0.076088801 -1.4317638 2.0452354 234 88 12
0.077871002 -1.4316863 2.0452354 234 88 12
0.088661902 -1.4334676 2.0437846 234 88 12
0.067405656 -1.4373926 2.0418503 234 88 12
0.078131445 -1.4376764 2.0413668 234 88 12
0.041729849 -1.3732036 1.6145972 234 88 12
0.044060968 -1.3727803 1.6125431 234 88 12
0.046570692 -1.3733324 1.6167619 234 88 12
0.04865633 -1.3711736 1.6035658 234 88 12
0.053480331 -1.3705834 1.601138 234 88 12
0.055919819 -1.3704773 1.601138 234 88 12
0.058433436 -1.371725 1.6097958 234 88 12
0.063157611 -1.3618405 1.5480343 234 88 12
0.065705918 -1.3678492 1.5870831 234 88 12
0.06813658 -1.3693984 1.5976421 234 88 12
0.088857234 -1.4379603 2.0408833 234 88 12
0.028655518 -1.3791636 1.6353099 234 88 12
0.030079361 -1.3763993 1.6176994 234 88 12
0.033245351 -1.3788347 1.6344675 234 88 12
0.053618066 -1.3731141 1.6029614 234 88 12
0.058378275 -1.371145 1.5914787 234 88 12
0.061015148 -1.376292 1.6257657 234 88 12
0.068160325 -1.3732523 1.6079814 234 88 12
0.021921242 -1.3816977 1.6360009 234 88 12
0.022327347 -1.3769881 1.6047664 234 88 12
0.033490434 -1.3812896 1.636633 234 88 12
0.056350015 -1.3777788 1.6198775 234 88 12
0.058279414 -1.3697948 1.5672851 234 88 12
0.065848112 -1.3746815 1.6020076 234 88 12
0.065753676 -1.4404652 2.039916 234 88 12
0.017176857 -1.3834071 1.6317564 234 88 12
0.024135081 -1.383112 1.6318069 234 88 12
0.02918244 -1.3773017 1.5937687 234 88 12
0.041721597 -1.3780276 1.6024166 234 88 12
0.047737997 -1.3844985 1.6482221 234 88 12
0.053533122 -1.3746579 1.5829848 234 88 12
0.013945591 -1.3879377 1.6474593 234 88 12
0.021542493 -1.393851 1.6908911 234 88 12
0.017781097 -1.3814952 1.6038054 234 88 12
0.02330891 -1.3882658 1.6525744 234 88 12
0.025615299 -1.3826683 1.6143349 234 88 12
0.027975956 -1.3825275 1.6140689 234 88 12
0.031247111 -1.3778007 1.5821793 234 88 12
0.03987018 -1.3820711 1.6144925 234 88 12
0.061271008 -1.3821633 1.6216054 234 88 12
0.068462491 -1.3784174 1.5977238 234 88 12
0.070999414 -1.3767309 1.5867597 234 88 12
0.078247406 -1.3776085 1.5950572 234 88 12
0.099680685 -1.4404905 2.038949 234 88 12
0.010991078 -1.3924295 1.6637468 234 88 12
0.011858519 -1.3900855 1.6473373 234 88 12
0.015100828 -1.3917322 1.6600571 234 88 12
0.013741765 -1.3850209 1.6118865 234 88 12
0.024934471 -1.3934909 1.6756116 234 88 12
0.024872618 -1.3883104 1.6387348 234 88 12
0.029607134 -1.3821052 1.5960498 234 88 12
0.030464619 -1.3772722 1.5619293 234 88 12
0.034697015 -1.3826129 1.6012365 234 88 12
0.039186534 -1.3810706 1.5916519 234 88 12
0.047131632 -1.384042 1.6152508 234 88 12
0.04919998 -1.3820249 1.6015395 234 88 12
0.054076985 -1.3822587 1.6047108 234 88 12
0.056181267 -1.3784502 1.5782648 234 88 12
0.073663749 -1.3775909 1.5775597 234 88 12
0.080915622 -1.3787323 1.5879241 234 88 12
0.005696523 -1.4047142 1.7368436 234 88 12
-0.0017678794 -1.3891746 1.6213462 234 88 12
0.0073971823 -1.39867 1.6933773 234 88 12
0.015655141 -1.4075942 1.7609634 234 88 12
0.013777848 -1.4018342 1.718434 234 88 12
0.0017968019 -1.370396 1.4857595 234 88 12
0.016672088 -1.387803 1.617197 234 88 12
0.022191599 -1.3840138 1.5913574 234 88 12
0.038765378 -1.3899739 1.6399958 234 88 12
0.039234865 -1.3829716 1.589165 234 88 12
0.046644069 -1.3829156 1.5911026 234 88 12
0.053732004 -1.3802433 1.5738908 234 88 12
0.056452952 -1.3827567 1.593051 234 88 12
0.061227899 -1.3791305 1.5681616 234 88 12
0.074087992 -1.3762076 1.5509524 234 88 12
0.076403461 -1.3783408 1.5672169 234 88 12
0.078766637 -1.3793749 1.5754929 234 88 12
0.089297704 -1.3767941 1.5600375 234 88 12
0.091089882 -1.379506 1.5803479 234 88 12
0.095304251 -1.3816494 1.5972867 234 88 12
0.097496971 -1.3822194 1.6021311 234 88 12
0.0038279558 -1.4064282 1.7357911 234 88 12
0.015502435 -1.4028835 1.7131549 234 88 12
0.010487294 -1.3913831 1.625815 234 88 12
0.012011992 -1.3856302 1.5834327 234 88 12
0.032052059 -1.3980596 1.6825643 234 88 12
0.030555813 -1.3812876 1.5570754 234 88 12
0.031509195 -1.3761497 1.5190899 234 88 12
0.034742247 -1.3778772 1.5330137 234 88 12
0.038951799 -1.3836352 1.5772923 234 88 12
0.043624304 -1.3819783 1.5664577 234 88 12
0.045763288 -1.379793 1.5508636 234 88 12
0.048156906 -1.3785112 1.5420856 234 88 12
0.051418498 -1.3832122 1.5781806 234 88 12
0.056542903 -1.3848168 1.5918001 234 88 12
0.066344716 -1.3823824 1.5768323 234 88 12
0.071655028 -1.377683 1.5435283 234 88 12
0.078990981 -1.3805891 1.5675651 234 88 12
0.083624065 -1.3824348 1.5828228 234 88 12
0.093377195 -1.3824373 1.5860014 234 88 12
0.096577875 -1.3871 1.6217902 234 88 12
0.10007619 -1.383919 1.5992159 234 88 12
0.21871129 -1.3327348 1.2561746 234 88 12
0.2223172 -1.3325781 1.2561746 234 88 12
0.015603561 -1.4176935 1.812179 234 88 12
0.020545775 -1.4197062 1.8291838 234 88 12
0.014063401 -1.4022778 1.6939899 234 88 12
-0.0024741457 -1.3726041 1.4619825 234 88 12
0.0093540112 -1.3873476 1.5784545 234 88 12
0.048126955 -1.4457327 2.0370147 234 88 12
0.021140188 -1.3854666 1.5680076 234 88 12
0.033732496 -1.3849316 1.5681028 234 88 12
0.035643194 -1.3827915 1.5523999 234 88 12
0.048569452 -1.3826437 1.5555617 234 88 12
0.050566651 -1.3784143 1.5239384 234 88 12
0.056220483 -1.3819327 1.5526738 234 88 12
0.058584251 -1.3781736 1.5247625 234 88 12
0.063937537 -1.3828297 1.5620823 234 88 12
0.066557586 -1.3791246 1.5346688 234 88 12
0.075118721 -1.3722826 1.4852809 234 88 12
0.079299264 -1.381308 1.5555648 234 88 12
0.093635693 -1.3839599 1.5805669 234 88 12
0.095840871 -1.3913392 1.6376296 234 88 12
0.10157202 -1.3823084 1.5705935 234 88 12
0.23326667 -1.3351376 1.2542177 234 88 12
0.023489237 -1.4335252 1.9267919 234 88 12
0.011178015 -1.4158381 1.7842505 234 88 12
0.0065162592 -1.4052774 1.7000545 234 88 12
0.03283735 -1.4355555 1.9458529 234 88 12
0.0086056413 -1.3991867 1.6531225 234 88 12
0.013042239 -1.3989938 1.6531225 234 88 12
0.012674853 -1.3946894 1.6193271 234 88 12
0.010312 -1.3865702 1.5550116 234 88 12
0.012869917 -1.386459 1.5550116 234 88 12
0.0038365554 -1.3644426 1.3797188 234 88 12
0.027278157 -1.4047898 1.7033019 234 88 12
0.014364528 -1.373051 1.4506379 234 88 12
0.027009077 -1.3891444 1.5808265 234 88 12
0.030680146 -1.3854164 1.552913 234 88 12
0.033893183 -1.3788991 1.5030249 234 88 12
0.035485338 -1.3630736 1.3797736 234 88 12
0.04251568 -1.3664144 1.408298 234 88 12
0.053634137 -1.3832244 1.5435733 234 88 12
0.056120951 -1.3817986 1.5332662 234 88 12
0.064026006 -1.3834292 1.5487092 234 88 12
0.066467248 -1.3890229 1.5932957 234 88 12
0.069426306 -1.3785067 1.51204 234 88 12
0.071646869 -1.3846062 1.5605086 234 88 12
0.074690826 -1.3796879 1.5230708 234 88 12
0.07945957 -1.3830389 1.5509056 234 88 12
0.081662789 -1.3849183 1.5663568 234 88 12
0.085156672 -1.3802059 1.5306824 234 88 12
0.089450262 -1.3837159 1.5595986 234 88 12
0.09223894 -1.3827587 1.5530603 234 88 12
0.093346991 -1.3942252 1.6431327 234 88 12
0.094178893 -1.3979652 1.6726707 234 88 12
0.10571712 -1.3806515 1.5411608 234 88 12
0.22258067 -1.3386379 1.2522609 234 88 12
0.037623432 -1.4478393 2.0372469 234 88 12
0.018500647 -1.4218006 1.821752 234 88 12
0.0068480526 -1.4045948 1.6796998 234 88 12
0.00066787505 -1.3933685 1.5875119 234 88 12
0.018876392 -1.4152783 1.7695754 234 88 12
-0.0082276352 -1.3576089 1.2976223 234 88 12
0.013568924 -1.3669592 1.3802106 234 88 12
0.024524907 -1.3851641 1.530032 234 88 12
0.031147381 -1.3885872 1.5597948 234 88 12
0.025841668 -1.3653622 1.3716822 234 88 12
0.061508395 -1.4697361 2.221185 234 88 12
0.040854312 -1.386416 1.5457659 234 88 12
0.047807522 -1.3813424 1.5075012 234 88 12
0.056250747 -1.3844053 1.5350084 234 88 12
0.058923431 -1.3851702 1.5420761 234 88 12
0.064103983 -1.3767154 1.4760758 234 88 12
0.066752717 -1.3834447 1.530967 234 88 12
0.074364319 -1.3858383 1.5528176 234 88 12
0.077582173 -1.3808916 1.514268 234 88 12
0.079621382 -1.3847847 1.5462006 234 88 12
0.082541801 -1.3829044 1.5321398 234 88 12
0.085852265 -1.3906531 1.5954375 234 88 12
0.090409435 -1.3826669 1.532979 234 88 12
0.09374246 -1.3801992 1.5143493 234 88 12
0.10775651 -1.3555187 1.3213018 234 88 12
0.11111712 -1.3553725 1.3213018 234 88 12
0.098283388 -1.3950655 1.6351591 234 88 12
0.10704148 -1.3857217 1.5632769 234 88 12
0.10996123 -1.3847995 1.5568992 234 88 12
0.11104962 -1.3875316 1.5791897 234 88 12
0.022101456 -1.4325999 1.8996986 234 88 12
0.039427266 -1.444757 2.0059102 234 88 12
-0.0061187134 -1.3784724 1.4443074 234 88 12
-0.0095477253 -1.3688887 1.3642379 234 88 12
-0.003891371 -1.372563 1.3964883 234 88 12
-0.0022207284 -1.3645374 1.3310599 234 88 12
0.00021061623 -1.3627844 1.3175086 234 88 12
0.01949947 -1.382146 1.483693 234 88 12
0.018122753 -1.3647068 1.3397303 234 88 12
0.039861895 -1.3843929 1.5094601 234 88 12
0.050715171 -1.3999205 1.6410854 234 88 12
0.06421005 -1.3824641 1.5023015 234 88 12
0.066940174 -1.3823453 1.5023015 234 88 12
0.072163619 -1.3849281 1.5254173 234 88 12
0.066446066 -1.4594626 2.136555 234 88 12
0.080271296 -1.3836517 1.5178177 234 88 12
0.083663665 -1.379885 1.4880418 234 88 12
0.096534476 -1.3823454 1.5128876 234 88 12
0.10606872 -1.3992494 1.6553642 234 88 12
0.10830314 -1.4027997 1.6853715 234 88 12
0.10512471 -1.4114041 1.7550216 234 88 12
0.11187344 -1.403607 1.69329 234 88 12
1.2534158 0.15325055 2.4146435 234 88 12
1.0294039 0.17761828 1.4109594 234 88 12
1.0403131 0.18242969 1.4120431 234 88 12
1.141158 0.12991843 1.8426059 234 88 12
1.1240298 0.12886687 1.7571785 234 88 12
1.1274869 0.13195799 1.7761656 234 88 12
1.1312107 0.13494611 1.7964096 234 88 12
1.0454538 0.18715186 1.4035162 234 88 12
1.1338433 0.12584174 1.7925217 234 88 12
1.1385101 0.12919784 1.8181227 234 88 12
1.1308452 0.14197271 1.7873601 234 88 12
1.130257 0.1442872 1.7858231 234 88 12
1.1283644 0.14654042 1.7776707 234 88 12
1.1271114 0.15365921 1.7757463 234 88 12
1.0938894 0.11314756 1.5675101 234 88 12
1.2060816 0.1423198 2.1621656 234 88 12
1.1377329 0.13118875 1.8040702 234 88 12
1.1303359 0.13956626 1.7713408 234 88 12
1.133152 0.15159705 1.793371 234 88 12
1.1327952 0.15621425 1.7944415 234 88 12
1.0891949 0.16336887 1.5749718 234 88 12
1.0794917 0.17370062 1.5316243 234 88 12
1.052123 0.18796816 1.4000057 234 88 12
1.097061 0.11034444 1.5660433 234 88 12
1.1089443 0.1165994 1.6322592 234 88 12
1.1524031 0.12971337 1.868167 234 88 12
1.1459825 0.13043155 1.8350154 234 88 12
1.1397907 0.13144377 1.8032503 234 88 12
1.129603 0.13200621 1.7502788 234 88 12
1.1336051 0.1564941 1.78692 234 88 12
1.104286 0.16294116 1.6375667 234 88 12
1.0838709 0.17067213 1.5356491 234 88 12
1.0801198 0.097858332 1.4509192 234 88 12
1.140573 0.11955737 1.7877022 234 88 12
1.1312116 0.12452843 1.7409916 234 88 12
1.1408837 0.13384943 1.798695 234 88 12
1.0833372 0.16809209 1.5139645 234 88 12
1.1061339 0.16901523 1.6362227 234 88 12
1.1122774 0.17109816 1.6703675 234 88 12
1.0633184 0.18074863 1.4154006 234 88 12
1.1282166 0.11546896 1.7052786 234 88 12
1.1119113 0.11362104 1.6153191 234 88 12
1.1371026 0.12567168 1.7604297 234 88 12
1.1412853 0.12905924 1.7854471 234 88 12
1.1389755 0.14060032 1.7805645 234 88 12
1.1401422 0.15692972 1.7977902 234 88 12
1.1087117 0.1636129 1.6312052 234 88 12
1.0737534 0.17308977 1.4472836 234 88 12
1.1147194 0.17139706 1.6690822 234 88 12
1.0665913 0.18114923 1.4136778 234 88 12
1.0966312 0.098470017 1.5040869 234 88 12
1.0962205 0.10182516 1.5040869 234 88 12
1.1232485 0.11353342 1.6620682 234 88 12
1.1410494 0.12390713 1.7679259 234 88 12
1.1385218 0.13568448 1.761897 234 88 12
1.1390295 0.13820153 1.7664256 234 88 12
1.1407982 0.1432036 1.7796419 234 88 12
1.1389129 0.14543654 1.770694 234 88 12
1.1391479 0.15493289 1.7784501 234 88 12
1.1391957 0.15727192 1.7803048 234 88 12
1.1354235 0.15979601 1.7610815 234 88 12
1.0897527 0.16876759 1.5136673 234 88 12
1.07648 0.1770464 1.4456184 234 88 12
1.0996048 0.098834001 1.5025216 234 88 12
1.1031682 0.10350164 1.5259402 234 88 12
1.1376168 0.11750096 1.7307593 234 88 12
1.1123673 0.11289685 1.5845559 234 88 12
1.1297635 0.1206345 1.6884515 234 88 12
1.135583 0.12479386 1.7242962 234 88 12
1.1400478 0.13088778 1.7538093 234 88 12
1.1436791 0.15285242 1.7896041 234 88 12
1.1177361 0.1639467 1.6503555 234 88 12
1.1173916 0.16676103 1.6503555 234 88 12
1.1277548 0.10526164 1.6507996 234 88 12
1.1274111 0.10806955 1.6507996 234 88 12
1.1411582 0.11558826 1.7355971 234 88 12
1.1280597 0.11410156 1.6588186 234 88 12
1.1792318 0.13175729 1.9671561 234 88 12
1.142552 0.14591311 1.7651141 234 88 12
1.0952851 0.17280154 1.5108743 234 88 12
1.1014211 0.09806674 1.4739228 234 88 12
1.2436826 0.14981706 2.3511333 234 88 12
1.1326932 0.11508729 1.6708308 234 88 12
1.1507602 0.12319227 1.7833424 234 88 12
1.140476 0.12282144 1.7223639 234 88 12
1.1480153 0.12729616 1.7701036 234 88 12
1.1438764 0.1288045 1.7467605 234 88 12
1.1512903 0.15779619 1.8114759 234 88 12
1.1497023 0.16009498 1.8037623 234 88 12
1.1070406 0.1689678 1.5583274 234 88 12
1.0885895 0.17436601 1.4533048 234 88 12
1.1427962 0.10709689 1.7097718 234 88 12
1.099601 0.096652187 1.4415901 234 88 12
1.1473125 0.11672211 1.7441101 234 88 12
1.1324575 0.114536 1.6529192 234 88 12
1.1508068 0.12529446 1.7715083 234 88 12
1.1509533 0.13733841 1.7812811 234 88 12
1.0942017 0.16410047 1.4588139 234 88 12
1.1433697 0.16567209 1.7564636 234 88 12
1.111881 0.10043168 1.4987162 234 88 12
1.1396736 0.11357732 1.67989 234 88 12
1.1444825 0.11792585 1.7128026 234 88 12
1.1459267 0.12102015 1.7240357 234 88 12
1.1507455 0.12744129 1.7585728 234 88 12
1.149883 0.13218938 1.7568389 234 88 12
1.1510673 0.13486463 1.7661538 234 88 12
1.1477538 0.14904493 1.7564315 234 88 12
1.1501775 0.15385687 1.7749953 234 88 12
1.1523539 0.15841219 1.7918428 234 88 12
1.1516942 0.16071965 1.7895175 234 88 12
1.0968732 0.16797699 1.4571824 234 88 12
1.1160202 0.16926377 1.5761374 234 88 12
1.09986 0.17445388 1.480472 234 88 12
1.1082665 0.17648776 1.5338074 234 88 12
1.1411115 0.10497948 1.6658323 234 88 12
1.1511316 0.11447991 1.7362784 234 88 12
1.1405143 0.11332591 1.6685058 234 88 12
1.1512264 0.12728339 1.7467475 234 88 12
1.1549444 0.13305245 1.7746168 234 88 12
1.1521242 0.14463019 1.7657776 234 88 12
1.1518611 0.15645629 1.7732387 234 88 12
1.1594094 0.16268872 1.8255939 234 88 12
1.1237429 0.16900745 1.6057898 234 88 12
1.1394314 0.10943067 1.6413954 234 88 12
1.1465303 0.11490776 1.6914492 234 88 12
1.1518688 0.12201681 1.7314484 234 88 12
1.153771 0.14000456 1.7578871 234 88 12
1.1529672 0.14477858 1.7564732 234 88 12
1.1502057 0.16164342 1.7519814 234 88 12
1.1386492 0.16518505 1.6803221 234 88 12
1.1166003 0.17052326 1.542482 234 88 12
1.1102706 0.17456155 1.5048879 234 88 12
1.1098652 0.17787412 1.5048879 234 88 12
1.1108544 0.093889505 1.4224596 234 88 12
1.1193527 0.10096692 1.484188 234 88 12
1.1334569 0.10960961 1.5841321 234 88 12
1.1547449 0.11991685 1.7327707 234 88 12
1.1481943 0.12318892 1.6922317 234 88 12
1.1550031 0.13270462 1.7447903 234 88 12
1.1183748 0.16784072 1.5316973 234 88 12
1.1370497 0.17132968 1.6576105 234 88 12
1.1128012 0.17823349 1.5033425 234 88 12
1.147863 0.10563674 1.6583115 234 88 12
1.1671988 0.11902451 1.799835 234 88 12
1.1514654 0.11557578 1.6908268 234 88 12
1.1550417 0.11953645 1.7182281 234 88 12
1.1521984 0.12127011 1.7004757 234 88 12
1.165136 0.16125798 1.8207963 234 88 12
1.1531235 0.16470294 1.7425878 234 88 12
1.1528244 0.16714649 1.7425878 234 88 12
1.1132224 0.17573701 1.4824697 234 88 12
1.1129941 0.17908596 1.4836953 234 88 12
1.1647726 0.11253367 1.7626306 234 88 12
1.1499621 0.10868253 1.6570296 234 88 12
1.1610405 0.11856625 1.7419436 234 88 12
1.156409 0.1195076 1.7107347 234 88 12
1.155072 0.12173469 1.7033796 234 88 12
1.1626707 0.12908466 1.7621051 234 88 12
1.1617579 0.13375194 1.7597445 234 88 12
1.163518 0.13888438 1.7762476 234 88 12
1.1611193 0.15278742 1.771432 234 88 12
1.1622152 0.15510039 1.7809613 234 88 12
1.1594908 0.15984453 1.7661479 234 88 12
1.1649905 0.1638591 1.8075471 234 88 12
1.1647205 0.16606449 1.8075471 234 88 12
1.1158061 0.17948626 1.4808917 234 88 12
1.1671605 0.11042325 1.7615261 234 88 12
1.201844 0.13200721 2.0258036 234 88 12
1.1412864 0.11051602 1.5784081 234 88 12
1.1597462 0.12278789 1.7197455 234 88 12
1.1562244 0.1243525 1.6961659 234 88 12
1.1626837 0.13127565 1.7479002 234 88 12
1.1614633 0.13349284 1.7411803 234 88 12
1.1634449 0.13636313 1.7576985 234 88 12
1.1610479 0.14578463 1.7488921 234 88 12
1.1596832 0.14813599 1.7412671 234 88 12
1.1627492 0.15303814 1.767224 234 88 12
1.1635258 0.1553642 1.7747389 234 88 12
1.1390747 0.16743091 1.6120727 234 88 12
1.1387192 0.17033571 1.6120727 234 88 12
1.119218 0.17647088 1.4793139 234 88 12
1.1565642 0.11004598 1.6677157 234 88 12
1.1411386 0.10649272 1.5525907 234 88 12
1.1622365 0.12052591 1.7181981 234 88 12
1.1618197 0.12300912 1.7173795 234 88 12
1.1636142 0.1261633 1.7332073 234 88 12
1.1687306 0.13010609 1.7738479 234 88 12
1.1627257 0.13356178 1.7333316 234 88 12
1.1613708 0.16052563 1.7474521 234 88 12
1.1682335 0.16222557 1.7987764 234 88 12
1.1530561 0.11069082 1.62284 234 88 12
1.1569723 0.11521995 1.6561245 234 88 12
1.1639199 0.12059997 1.7127545 234 88 12
1.1667178 0.12417182 1.73684 234 88 12
1.1722969 0.13776761 1.7907674 234 88 12
1.1632147 0.16320129 1.7463261 234 88 12
1.1292554 0.17001961 1.4997025 234 88 12
1.1616811 0.1079317 1.6651963 234 88 12
1.1563301 0.10832459 1.6246753 234 88 12
1.1632938 0.11981507 1.6886337 234 88 12
1.1639265 0.1411811 1.7134511 234 88 12
1.1672863 0.14410602 1.7418597 234 88 12
1.1689939 0.15613995 1.7661637 234 88 12
1.1738642 0.16036223 1.8073272 234 88 12
1.1549596 0.16461016 1.6668457 234 88 12
1.1337711 0.17015938 1.5101298 234 88 12
1.1283989 0.17753616 1.4759792 234 88 12
1.1453953 0.098887429 1.5083935 234 88 12
1.2389708 0.14616233 2.2880888 234 88 12
1.1523844 0.10880318 1.5727614 234 88 12
1.1642797 0.11681116 1.6737958 234 88 12
1.1742047 0.14021046 1.774152 234 88 12
1.1721803 0.15405029 1.7715592 234 88 12
1.1723187 0.15635177 1.7748553 234 88 12
1.1737999 0.15854771 1.7885872 234 88 12
1.1738554 0.16077305 1.7911607 234 88 12
1.1766042 0.16266774 1.8145496 234 88 12
1.1570177 0.16759667 1.6655887 234 88 12
1.1291076 0.17835255 1.456908 234 88 12
1.1302053 0.18145283 1.4684992 234 88 12
1.1664973 0.11138982 1.6657524 234 88 12
1.1691983 0.12086679 1.6968846 234 88 12
1.1688826 0.1234449 1.6968846 234 88 12
1.1720806 0.12714584 1.7263241 234 88 12
1.2250968 0.14500864 2.1714494 234 88 12
1.1729788 0.13497593 1.7412946 234 88 12
1.1724622 0.1447266 1.746753 234 88 12
1.1730977 0.14958696 1.7566743 234 88 12
1.1736097 0.15430699 1.7654608 234 88 12
1.1731902 0.15664551 1.764387 234 88 12
1.165278 0.16451833 1.7083565 234 88 12
1.1325774 0.17528589 1.4553032 234 88 12
1.1719068 0.10481326 1.6826177 234 88 12
1.2266401 0.13890733 2.1710365 234 88 12
1.172976 0.14728557 1.7345867 234 88 12
1.1648186 0.16514112 1.6850715 234 88 12
1.1644984 0.167757 1.6850715 234 88 12
1.1232001 0.18533222 1.3604851 234 88 12
1.1745543 0.10247336 1.6813933 234 88 12
1.2276416 0.13723269 2.1706235 234 88 12
1.1762282 0.16188355 1.7577155 234 88 12
1.1415654 0.16887613 1.4692817 234 88 12
1.126543 0.18574141 1.3587254 234 88 12
1.1260815 0.18951316 1.3587254 234 88 12
1.2275593 0.14441144 2.1702104 234 88 12
1.1774085 0.1551138 1.7411083 234 88 12
1.1534199 0.17404605 1.5507104 234 88 12
1.129886 0.18615058 1.3569659 234 88 12
1.173438 0.16574402 1.6961992 234 88 12
1.1731242 0.1683075 1.6961992 234 88 12
1.1720692 0.17102718 1.6896605 234 88 12
1.1520374 0.17836584 1.5164211 234 88 12
1.132843 0.19030878 1.3558654 234 88 12
1.1833103 0.15792777 1.7567278 234 88 12
1.1838448 0.16019642 1.7643132 234 88 12
1.2168125 0.15835063 2.0700805 234 88 12
1.2432101 0.15541551 2.3132451 234 88 12
1.1605738 0.17138389 1.5597789 234 88 12
1.2314305 0.13230486 2.1689713 234 88 12
1.1654372 0.16248383 1.568363 234 88 12
1.188895 0.16233148 1.7943314 234 88 12
1.1830568 0.16546085 1.7417403 234 88 12
1.1827637 0.16785507 1.7417403 234 88 12
1.1628976 0.17475574 1.5583599 234 88 12
1.1407249 0.18351503 1.3549362 234 88 12
1.1890515 0.1605828 1.7729372 234 88 12
1.1653731 0.16917014 1.5475303 234 88 12
1.1848857 0.1681148 1.7406234 234 88 12
1.2301824 0.15551572 2.1681452 234 88 12
1.1960297 0.16233192 1.8248438 234 88 12
1.170989 0.16897336 1.5752101 234 88 12
1.1490245 0.18027461 1.3631476 234 88 12
1.1894418 0.16388905 1.735521 234 88 12
1.1736237 0.16929583 1.5738233 234 88 12
1.1523207 0.18067805 1.3614125 234 88 12
1.1514103 0.18811612 1.3614125 234 88 12
1.1644824 0.17202063 1.445456 234 88 12
1.1737566 0.17310546 1.5494907 234 88 12
1.1551617 0.18480055 1.3596776 234 88 12
1.2358958 0.12835839 2.1669061 234 88 12
1.2353539 0.13278508 2.1669061 234 88 12
1.2339453 0.14429447 2.1669061 234 88 12
1.2326448 0.15491852 2.1669061 234 88 12
1.1878092 0.16545419 1.6670871 234 88 12
1.1965871 0.16453019 1.7409245 234 88 12
1.1962966 0.16690381 1.7409245 234 88 12
1.1624385 0.18181846 1.3588374 234 88 12
1.1830822 0.17375961 1.5596923 234 88 12
1.1661136 0.18209656 1.3617216 234 88 12
1.2384666 0.12687586 2.1656671 234 88 12
1.1841038 0.17159374 1.5331335 234 88 12
1.1857433 0.17408533 1.5582916 234 88 12
1.2384927 0.13316926 2.1652539 234 88 12
1.1755052 0.18188357 1.3950117 234 88 12
1.1857635 0.12150093 1.3885399 234 88 12
1.181662 0.17453094 1.4222928 234 88 12
1.2387617 0.14398541 2.164428 234 88 12
1.1889387 0.12188958 1.3868685 234 88 12
1.1847334 0.17490686 1.4206761 234 88 12
1.1864856 0.1776073 1.4515082 234 88 12
1.1818262 0.18265726 1.3916844 234 88 12
1.1888001 0.17496063 1.4339194 234 88 12
1.1952894 0.1226669 1.3835257 234 88 12
1.2390307 0.15480155 2.1636019 234 88 12
1.1989032 0.11947297 1.3818543 234 88 12
1.2207872 0.13514866 1.7928723 234 88 12
1.2189733 0.13657735 1.7645707 234 88 12
1.2152436 0.13742907 1.701968 234 88 12
1.1975014 0.17472441 1.4744263 234 88 12
1.1954154 0.1787003 1.4468079 234 88 12
1.2301276 0.12835994 1.9118055 234 88 12
1.2115785 0.12907714 1.5744146 234 88 12
1.2177428 0.13522032 1.7008121 234 88 12
1.2182823 0.1380561 1.7170174 234 88 12
1.2176822 0.14036967 1.7112247 234 88 12
1.2155869 0.14492212 1.6831151 234 88 12
1.2165806 0.14766279 1.7074068 234 88 12
1.2157834 0.15007281 1.6982268 234 88 12
1.2026132 0.15874137 1.4769255 234 88 12
1.1993976 0.17547159 1.4555807 234 88 12
1.1989908 0.17879431 1.4555807 234 88 12
1.2300969 0.11573747 1.8498626 234 88 12
1.2263104 0.11520839 1.7751294 234 88 12
1.2263763 0.12281395 1.7944708 234 88 12
1.2273568 0.12620516 1.8215519 234 88 12
1.216755 0.11880785 1.5982598 234 88 12
1.2276286 0.13096641 1.8381342 234 88 12
1.2052538 0.12025028 1.3785115 234 88 12
1.2245352 0.13556609 1.7890333 234 88 12
1.2190713 0.13771617 1.6881149 234 88 12
1.2178369 0.14519751 1.6819309 234 88 12
1.2179872 0.15034255 1.6970669 234 88 12
1.2177858 0.15529664 1.7049285 234 88 12
1.2333887 0.12279314 1.8983986 234 88 12
1.227446 0.13182427 1.7983742 234 88 12
1.2135587 0.1470219 1.5496814 234 88 12
1.2164308 0.15028904 1.617339 234 88 12
1.2116652 0.15603332 1.5333331 234 88 12
1.2074288 0.15956534 1.4546747 234 88 12
1.205374 0.16652076 1.4297915 234 88 12
1.2049578 0.16992143 1.4297915 234 88 12
1.2052875 0.17619252 1.4524804 234 88 12
1.2366431 0.12937307 1.9517435 234 88 12
1.2294726 0.1249189 1.7810355 234 88 12
1.2209778 0.12499323 1.5932901 234 88 12
1.2191298 0.12989604 1.5656809 234 88 12
1.2146503 0.13391145 1.4774457 234 88 12
1.2185676 0.14189379 1.5857342 234 88 12
1.2182175 0.14475413 1.5857342 234 88 12
1.2199193 0.14794621 1.632031 234 88 12
1.2086933 0.15327781 1.3980948 234 88 12
1.2082644 0.15678176 1.3980948 234 88 12
1.2125896 0.1596083 1.5014448 234 88 12
1.2118187 0.1659072 1.5014448 234 88 12
1.2384784 0.12241648 1.9400563 234 88 12
1.2411947 0.13089278 2.0293338 234 88 12
1.2405912 0.13154837 2.0168889 234 88 12
1.2404224 0.13292764 2.0168889 234 88 12
1.2372715 0.13036148 1.9344808 234 88 12
1.2314141 0.12515654 1.7800137 234 88 12
1.2165511 0.11903682 1.4086992 234 88 12
1.2179102 0.13103028 1.4759381 234 88 12
1.2175146 0.13426204 1.4759381 234 88 12
1.2125645 0.13554965 1.3619518 234 88 12
1.2187502 0.14140986 1.5261353 234 88 12
1.2183758 0.14446972 1.5261353 234 88 12
1.2128992 0.15020816 1.4125882 234 88 12
1.2188857 0.15364675 1.5649787 234 88 12
1.2185274 0.15657359 1.5649787 234 88 12
1.2168921 0.15970634 1.5352043 234 88 12
1.2125688 0.16367881 1.4439422 234 88 12
1.2121598 0.16702014 1.4439422 234 88 12
1.2079806 0.17525741 1.3685265 234 88 12
1.20754 0.17885701 1.3685265 234 88 12
1.2387441 0.13054173 1.9337057 234 88 12
1.2262726 0.11609333 1.5676596 234 88 12
1.2274022 0.12391336 1.6213015 234 88 12
1.2179551 0.12180491 1.3718261 234 88 12
1.2187721 0.12633647 1.407084 234 88 12
1.2178413 0.12946783 1.393011 234 88 12
1.2162383 0.13233158 1.3608152 234 88 12
1.2214622 0.14174181 1.5247078 234 88 12
1.2210878 0.14480168 1.5247078 234 88 12
1.2196826 0.15087064 1.5076817 234 88 12
1.2196095 0.15703921 1.5252099 234 88 12
1.2473502 0.13759509 2.1558766 234 88 12
1.2314464 0.1231598 1.6618627 234 88 12
1.2257191 0.11938942 1.4888448 234 88 12
1.2215689 0.11861099 1.3701546 234 88 12
1.2203332 0.12548387 1.3591263 234 88 12
1.219447 0.13272431 1.3591263 234 88 12
1.2211337 0.13736984 1.4221781 234 88 12
1.2202007 0.1441527 1.4193022 234 88 12
1.2183274 0.16118169 1.425204 234 88 12
1.249994 0.12379381 2.1598845 234 88 12
1.245425 0.1343801 2.059618 234 88 12
1.2289243 0.1165567 1.4873624 234 88 12
1.2209476 0.13608368 1.316241 234 88 12
1.2205194 0.15481968 1.3733718 234 88 12
1.2223086 0.16756427 1.4759575 234 88 12
1.2496952 0.13274322 2.1594715 234 88 12
1.2279196 0.1193883 1.3668119 234 88 12
1.227481 0.12297087 1.3668119 234 88 12
1.2263813 0.12591004 1.3417568 234 88 12
1.224771 0.1444423 1.3640375 234 88 12
1.2241164 0.15164062 1.3717082 234 88 12
0.1530309 1.2537034 2.4145083 234 88 12
0.17615427 1.200577 2.1821885 234 88 12
0.17890632 1.2010366 2.1817753 234 88 12
0.16562627 1.2026621 2.1817753 234 88 12
0.16502906 1.2051245 2.1805363 234 88 12
0.17132248 1.2051507 2.1801233 234 88 12
0.17761588 1.2051768 2.1797101 234 88 12
0.18783481 1.2079083 2.177645 234 88 12
0.17632544 1.209317 2.177645 234 88 12
0.16570139 1.2106174 2.177645 234 88 12
0.154192 1.2120261 2.177645 234 88 12
0.14469631 1.2098622 2.1588063 234 88 12
0.1291219 1.1433971 1.7715553 234 88 12
0.14356795 1.2133265 2.177645 234 88 12
0.14359085 1.1085886 1.5671163 234 88 12
0.14620712 1.1886362 2.0317516 234 88 12
0.13388337 1.1069793 1.5509424 234 88 12
0.13745825 1.1508561 1.8071401 234 88 12
0.12543981 1.0959098 1.4809711 234 88 12
0.12849161 1.1288536 1.6735904 234 88 12
0.12509315 1.1261444 1.6555229 234 88 12
0.12236481 1.1375436 1.7194951 234 88 12
0.11176336 1.1100026 1.5527692 234 88 12
0.11416414 1.1282607 1.6600245 234 88 12
0.11726043 1.1461599 1.7656974 234 88 12
0.11158887 1.137262 1.7102419 234 88 12
0.099603549 1.1128776 1.5607854 234 88 12
0.18802691 1.2094777 2.1768191 234 88 12
0.1583492 1.1376777 1.7315154 234 88 12
0.15407372 1.2297107 2.2717283 234 88 12
0.15328054 1.1153171 1.5958508 234 88 12
0.15062377 1.130246 1.6820618 234 88 12
0.1485223 1.1434873 1.7587111 234 88 12
0.14680929 1.1541286 1.8202925 234 88 12
0.14357136 1.1426038 1.7499177 234 88 12
0.14048991 1.1371565 1.7155343 234 88 12
0.13843518 1.141309 1.7385631 234 88 12
0.13419762 1.1303517 1.6708163 234 88 12
0.12763754 1.1255413 1.637679 234 88 12
0.12585402 1.1421568 1.7344775 234 88 12
0.12273299 1.1401473 1.7203594 234 88 12
0.12010757 1.1401995 1.7187707 234 88 12
0.11581666 1.1432465 1.7336577 234 88 12
0.11753433 1.1552086 1.8055152 234 88 12
0.10960612 1.1473242 1.7532419 234 88 12
0.17325081 1.1245489 1.6485658 234 88 12
0.16917802 1.1346546 1.7064984 234 88 12
0.16821556 1.1199062 1.6168529 234 88 12
0.16222836 1.155507 1.8271114 234 88 12
0.16013411 1.1548173 1.8214074 234 88 12
0.15891214 1.1332597 1.6905093 234 88 12
0.1562376 1.1345251 1.6961658 234 88 12
0.15360472 1.1317134 1.6772679 234 88 12
0.15109976 1.1410482 1.731709 234 88 12
0.14596207 1.1397005 1.7197906 234 88 12
0.14341481 1.1400123 1.7197906 234 88 12
0.13811983 1.1391369 1.7106035 234 88 12
0.13243151 1.1368301 1.692495 234 88 12
0.12764841 1.1397412 1.7065185 234 88 12
0.12518491 1.150404 1.7689987 234 88 12
0.11941207 1.147736 1.7486494 234 88 12
0.11859457 1.152773 1.77842 234 88 12
0.11483902 1.1614519 1.8279827 234 88 12
0.11195607 1.1600549 1.8174311 234 88 12
0.11121117 1.1634434 1.8373146 234 88 12
0.10444823 1.154194 1.7765473 234 88 12
0.10446125 1.1634942 1.8326384 234 88 12
0.18977599 1.1358887 1.7140387 234 88 12
0.18544243 1.1424463 1.7511786 234 88 12
0.17916827 1.1263493 1.6472565 234 88 12
0.17653906 1.1256952 1.6412427 234 88 12
0.17077422 1.1448369 1.7548463 234 88 12
0.16956103 1.136202 1.7007223 234 88 12
0.16668323 1.1388736 1.7150142 234 88 12
0.16427502 1.1375171 1.7048392 234 88 12
0.16158299 1.1392056 1.7132133 234 88 12
0.15639985 1.1418223 1.7254291 234 88 12
0.15127183 1.1382614 1.6996187 234 88 12
0.14652547 1.1463654 1.7459759 234 88 12
0.14138235 1.1447325 1.7320348 234 88 12
0.1318969 1.1484487 1.7477801 234 88 12
0.12936434 1.1483463 1.7452387 234 88 12
0.12478202 1.1501045 1.7526166 234 88 12
0.11817846 1.1529154 1.7649568 234 88 12
0.1107094 1.1586688 1.7947763 234 88 12
0.10173809 1.1599828 1.7961069 234 88 12
0.10064097 1.162302 1.8095708 234 88 12
0.098879404 1.1633346 1.8146045 234 88 12
0.19235913 1.1618166 1.8636349 234 88 12
0.1877827 1.1685239 1.9023581 234 88 12
0.19371448 1.1479566 1.7773707 234 88 12
0.18887977 1.155306 1.8199394 234 88 12
0.19049345 1.1442152 1.7513185 234 88 12
0.18598652 1.1436361 1.7441953 234 88 12
0.18089153 1.1537299 1.8038518 234 88 12
0.17642407 1.1542767 1.8038518 234 88 12
0.17861916 1.1329918 1.6714629 234 88 12
0.17370747 1.1452905 1.7451493 234 88 12
0.17379537 1.1299217 1.6484036 234 88 12
0.16435076 1.1419796 1.7170782 234 88 12
0.13529816 1.1541404 1.7712828 234 88 12
0.12304515 1.1539491 1.7606311 234 88 12
0.11071431 1.1601481 1.7901729 234 88 12
0.10482626 1.1528924 1.7399263 234 88 12
0.10470873 1.1625801 1.8008629 234 88 12
0.096987963 1.1617818 1.7898805 234 88 12
0.096566141 1.1649956 1.8098003 234 88 12
0.087782562 1.1553308 1.7421454 234 88 12
0.090977006 1.1638445 1.7982396 234 88 12
0.075412408 1.1455076 1.6707277 234 88 12
0.073059686 1.1501758 1.6983206 234 88 12
0.19212006 1.1726861 1.9208424 234 88 12
0.19517575 1.1575259 1.8255832 234 88 12
0.19231589 1.1418129 1.7220979 234 88 12
0.18790725 1.1479836 1.7583755 234 88 12
0.1866333 1.144536 1.7351604 234 88 12
0.17921458 1.1547551 1.7951462 234 88 12
0.1756642 1.1605375 1.8295988 234 88 12
0.16741174 1.1419997 1.7036628 234 88 12
0.14949754 1.1502303 1.7425616 234 88 12
0.14240025 1.1534712 1.7578447 234 88 12
0.1354969 1.1559165 1.7681544 234 88 12
0.11566272 1.1557168 1.7512281 234 88 12
0.10801697 1.1610904 1.7798175 234 88 12
0.10603879 1.1620351 1.7843442 234 88 12
0.10240675 1.1598458 1.7673763 234 88 12
0.097427785 1.1599938 1.7644025 234 88 12
0.096403912 1.1624628 1.7795026 234 88 12
0.097146079 1.1773453 1.8759671 234 88 12
0.072990507 1.1482478 1.6694604 234 88 12
0.19087259 1.1805412 1.9600601 234 88 12
0.20929517 1.1336402 1.6657672 234 88 12
0.19359764 1.1635649 1.8503566 234 88 12
0.19397542 1.152705 1.7790759 234 88 12
0.18727092 1.1591599 1.8162159 234 88 12
0.18648288 1.1552067 1.7895217 234 88 12
0.18014988 1.1448108 1.7158856 234 88 12
0.17177178 1.1500416 1.7436057 234 88 12
0.16449252 1.1504343 1.7403209 234 88 12
0.16195162 1.151783 1.7471613 234 88 12
0.15964507 1.149922 1.7330335 234 88 12
0.15465555 1.1529305 1.7488393 234 88 12
0.14174859 1.1473184 1.7014323 234 88 12
0.12440589 1.1608969 1.7769452 234 88 12
0.1199324 1.1619443 1.7802399 234 88 12
0.11483589 1.1613685 1.7723325 234 88 12
0.058126427 1.1262466 1.4950655 234 88 12
0.054783937 1.1266556 1.4950655 234 88 12
0.075191684 1.1567705 1.7100383 234 88 12
0.055456679 1.1363565 1.559553 234 88 12
0.21525285 1.1297662 1.6267338 234 88 12
0.1985992 1.1593678 1.8127148 234 88 12
0.18885739 1.1509603 1.7479402 234 88 12
0.18650998 1.1510147 1.7463688 234 88 12
0.18285479 1.155472 1.7734259 234 88 12
0.18333319 1.1454186 1.7059864 234 88 12
0.17962739 1.1502723 1.7356745 234 88 12
0.16705006 1.1535499 1.7474036 234 88 12
0.15247232 1.1534503 1.7346915 234 88 12
0.15012375 1.1572293 1.7582506 234 88 12
0.14213508 1.1505736 1.7067441 234 88 12
0.1240507 1.161028 1.7623488 234 88 12
0.11727543 1.1627645 1.768471 234 88 12
0.10772849 1.163624 1.7663856 234 88 12
0.092643254 1.1639551 1.7561601 234 88 12
0.055146549 1.1296182 1.4935061 234 88 12
0.058903359 1.1387317 1.5581024 234 88 12
0.055793997 1.1391124 1.5581024 234 88 12
0.052684635 1.139493 1.5581024 234 88 12
0.062144998 1.1537652 1.6622169 234 88 12
0.17807518 1.2162708 2.1739278 234 88 12
0.1763045 1.2164875 2.1739278 234 88 12
0.22557871 1.1183945 1.5377626 234 88 12
0.20296183 1.1572164 1.7868999 234 88 12
0.19883683 1.1613092 1.811693 234 88 12
0.18839963 1.1666268 1.8396105 234 88 12
0.18844192 1.1611516 1.8018123 234 88 12
0.18400189 1.1545924 1.7527307 234 88 12
0.17884915 1.1565307 1.7617673 234 88 12
0.17649671 1.1567442 1.7612528 234 88 12
0.15067346 1.1680015 1.8172015 234 88 12
0.14576937 1.1618403 1.7704784 234 88 12
0.13603774 1.1609758 1.7562737 234 88 12
0.13383235 1.1621351 1.7624192 234 88 12
0.083160371 1.1636436 1.7299849 234 88 12
0.067422666 1.1474296 1.6046317 234 88 12
0.076968849 1.1627842 1.718809 234 88 12
0.047296204 1.1358392 1.5075176 234 88 12
0.22910082 1.1208218 1.5362803 234 88 12
0.21247812 1.1460474 1.7004809 234 88 12
0.20989132 1.146364 1.7004809 234 88 12
0.21887572 1.1171374 1.501332 234 88 12
0.19364168 1.1661167 1.8262556 234 88 12
0.19158591 1.161185 1.7895561 234 88 12
0.19386157 1.1495936 1.7094562 234 88 12
0.15063699 1.1613129 1.7549735 234 88 12
0.14858902 1.167586 1.7976145 234 88 12
0.13913587 1.1655725 1.7751662 234 88 12
0.1358937 1.1609547 1.7396606 234 88 12
0.13124382 1.1625522 1.7469418 234 88 12
0.11960466 1.1652437 1.7559115 234 88 12
0.099087194 1.1693932 1.7675097 234 88 12
0.094764486 1.1667191 1.7448304 234 88 12
0.07093215 1.1539273 1.6336062 234 88 12
0.070218734 1.15676 1.653044 234 88 12
0.041074581 1.1356682 1.4784485 234 88 12
0.18800598 1.2166482 2.1731017 234 88 12
0.23553552 1.1073481 1.4219675 234 88 12
0.22931613 1.1127343 1.4555383 234 88 12
0.22478779 1.1086637 1.4219675 234 88 12
0.19454452 1.1665617 1.8153546 234 88 12
0.20073831 1.1478503 1.6850399 234 88 12
0.19651432 1.1519737 1.7112168 234 88 12
0.18956222 1.1576335 1.7461228 234 88 12
0.17077842 1.1567801 1.7232398 234 88 12
0.16803892 1.1586751 1.7345603 234 88 12
0.16054155 1.1611563 1.7459099 234 88 12
0.15328255 1.1617473 1.7437506 234 88 12
0.14857925 1.1650451 1.7635093 234 88 12
0.13150005 1.1646713 1.7456218 234 88 12
0.096749194 1.1749943 1.7896782 234 88 12
0.083201215 1.1638902 1.6970415 234 88 12
0.056808405 1.1391915 1.4943163 234 88 12
0.053485621 1.1395983 1.4943163 234 88 12
0.040946744 1.1297735 1.4118623 234 88 12
0.25383708 1.1083308 1.4202961 234 88 12
0.21618491 1.1451197 1.6598873 234 88 12
0.21504831 1.1375613 1.602577 234 88 12
0.2036624 1.1498655 1.6838092 234 88 12
0.16820385 1.1615067 1.7381675 234 88 12
0.16090851 1.1619748 1.7350048 234 88 12
0.15831149 1.1649892 1.755082 234 88 12
0.1092901 1.1729777 1.7698847 234 88 12
0.10632922 1.172158 1.7610844 234 88 12
0.098923713 1.172539 1.7571722 234 88 12
0.090597756 1.1751857 1.7692901 234 88 12
0.07924708 1.1645143 1.679495 234 88 12
0.059924554 1.1453573 1.5192562 234 88 12
0.27572119 1.1088752 1.4186248 234 88 12
0.26497346 1.1101906 1.4186248 234 88 12
0.24194928 1.1098913 1.3948027 234 88 12
0.22843231 1.1217778 1.4729884 234 88 12
0.21536608 1.1401575 1.6012105 234 88 12
0.20165066 1.1568863 1.7162118 234 88 12
0.19593148 1.1590501 1.7273964 234 88 12
0.19032638 1.1613114 1.7394333 234 88 12
0.1810203 1.1610271 1.7285573 234 88 12
0.17611523 1.1614599 1.727277 234 88 12
0.16876397 1.161864 1.7234896 234 88 12
0.16377114 1.162563 1.7241606 234 88 12
0.11837055 1.1727608 1.7596223 234 88 12
0.095400937 1.1729572 1.739639 234 88 12
0.081923358 1.1624551 1.6467853 234 88 12
0.08282008 1.1673225 1.6848171 234 88 12
0.057529349 1.1450816 1.4912159 234 88 12
0.054206565 1.1454884 1.4912159 234 88 12
0.061527446 1.157184 1.5874318 234 88 12
0.29044017 1.1102965 1.4169533 234 88 12
0.2868576 1.1107349 1.4169533 234 88 12
0.2361763 1.1177458 1.4232894 234 88 12
0.231511 1.1200929 1.4372259 234 88 12
0.21886781 1.1315693 1.5151387 234 88 12
0.19864014 1.161021 1.7268193 234 88 12
0.18145539 1.1626678 1.7232356 234 88 12
0.16606124 1.1677397 1.7482501 234 88 12
0.13984914 1.1720275 1.7567197 234 88 12
0.13537067 1.1737586 1.7660033 234 88 12
0.13257115 1.1722207 1.7512456 234 88 12
0.13061158 1.1740203 1.7634851 234 88 12
0.12094864 1.174466 1.7577019 234 88 12
0.10431188 1.1763635 1.7566119 234 88 12
0.098034285 1.1783748 1.7663649 234 88 12
0.072104394 1.1602603 1.5993162 234 88 12
0.053106405 1.1468641 1.4759481 234 88 12
0.24812414 1.1133838 1.3724239 234 88 12
0.24274509 1.116393 1.3913803 234 88 12
0.22614107 1.1275638 1.4650685 234 88 12
0.2192184 1.1344336 1.513631 234 88 12
0.20219083 1.1613607 1.7139509 234 88 12
0.19421263 1.1632465 1.7212833 234 88 12
0.15898113 1.17293 1.7645938 234 88 12
0.15431111 1.1731441 1.761711 234 88 12
0.1495835 1.1730273 1.7561023 234 88 12
0.12198852 1.1784552 1.7726361 234 88 12
0.11722337 1.1787076 1.7699679 234 88 12
0.10570045 1.183935 1.8007466 234 88 12
0.072730713 1.1632075 1.6010704 234 88 12
0.04950491 1.1456928 1.4369173 234 88 12
0.040875487 1.1487556 1.453097 234 88 12
0.24852937 1.1166946 1.3706812 234 88 12
0.241648 1.1166841 1.3636111 234 88 12
0.23116039 1.122659 1.4025077 234 88 12
0.20246392 1.1635917 1.7127764 234 88 12
0.19540474 1.1634396 1.7043514 234 88 12
0.16417213 1.1723691 1.7466928 234 88 12
0.15459165 1.1731079 1.7430943 234 88 12
0.14760593 1.1771353 1.7693986 234 88 12
0.09951172 1.1837878 1.7757486 234 88 12
0.083357744 1.1739488 1.6777745 234 88 12
0.052066203 1.1510296 1.4559841 234 88 12
0.052717201 1.1554708 1.4934701 234 88 12
0.030745761 1.1421794 1.360966 234 88 12
0.037801813 1.1522332 1.4514886 234 88 12
0.21639146 1.1462616 1.5589683 234 88 12
0.20943595 1.1536911 1.6150918 234 88 12
0.17146146 1.1743338 1.751556 234 88 12
0.17008626 1.169449 1.7084434 234 88 12
0.16428244 1.1756022 1.7548804 234 88 12
0.15972738 1.1739175 1.7357497 234 88 12
0.14098865 1.1804998 1.7723405 234 88 12
0.096831039 1.1746415 1.6762449 234 88 12
0.10144375 1.1847198 1.7670484 234 88 12
0.090596534 1.1740724 1.6648785 234 88 12
0.087913193 1.1744008 1.6648785 234 88 12
0.088036686 1.178018 1.6958691 234 88 12
0.062872536 1.1677939 1.5823594 234 88 12
0.031154754 1.1455208 1.3592072 234 88 12
0.23087642 1.1358588 1.4575368 234 88 12
0.21978328 1.1485991 1.5575408 234 88 12
0.22474632 1.1355219 1.4479847 234 88 12
0.20178415 1.1702064 1.7280209 234 88 12
0.20688592 1.1565764 1.6137574 234 88 12
0.20024563 1.1642637 1.6741558 234 88 12
0.19374688 1.1724876 1.7394195 234 88 12
0.18936488 1.1720451 1.7308193 234 88 12
0.18692003 1.1723443 1.7308193 234 88 12
0.17735545 1.1727997 1.7245353 234 88 12
0.17433269 1.1752337 1.7426685 234 88 12
0.16899849 1.1784424 1.7651228 234 88 12
0.13923496 1.1842854 1.7844514 234 88 12
0.13672021 1.1834604 1.7744983 234 88 12
0.13211644 1.1839412 1.7737733 234 88 12
0.12831932 1.1797515 1.73288 234 88 12
0.12145141 1.1870255 1.7894021 234 88 12
0.11974225 1.1883361 1.7990785 234 88 12
0.11555321 1.1849568 1.7648834 234 88 12
0.10926288 1.1828591 1.7396891 234 88 12
0.10432496 1.1792833 1.7029629 234 88 12
0.089366615 1.1706089 1.6106666 234 88 12
0.086495303 1.1709603 1.6106666 234 88 12
0.091940187 1.1844369 1.7349235 234 88 12
0.058272824 1.1548021 1.4383556 234 88 12
0.054789934 1.1552284 1.4383556 234 88 12
0.076517336 1.1800984 1.6802217 234 88 12
0.24246092 1.1319892 1.4059321 234 88 12
0.23124687 1.1388854 1.4559437 234 88 12
0.22004767 1.1514163 1.5569901 234 88 12
0.20913866 1.160323 1.6255448 234 88 12
0.20524725 1.1625915 1.6417714 234 88 12
0.19521578 1.1722325 1.7179468 234 88 12
0.17509937 1.1754971 1.7252105 234 88 12
0.14869365 1.187862 1.8079026 234 88 12
0.14619541 1.185006 1.7792752 234 88 12
0.13979541 1.1878181 1.7976426 234 88 12
0.13618496 1.1822207 1.7429622 234 88 12
0.12636863 1.1827989 1.7373178 234 88 12
0.12295124 1.1865511 1.7675039 234 88 12
0.11675848 1.1840997 1.738446 234 88 12
0.1095247 1.184998 1.7385632 234 88 12
0.10460091 1.1815377 1.7017761 234 88 12
0.08612141 1.1592816 1.4797831 234 88 12
0.081111252 1.1622061 1.5007097 234 88 12
0.08008498 1.16532 1.5277667 234 88 12
0.08813072 1.1787335 1.6581323 234 88 12
0.078165516 1.1778148 1.6387711 234 88 12
0.12857142 1.2302946 2.1697974 234 88 12
0.039597128 1.1513574 1.3564756 234 88 12
0.2217191 1.1521053 1.5382299 234 88 12
0.21860103 1.152487 1.5382299 234 88 12
0.20382997 1.1720651 1.7041808 234 88 12
0.20049536 1.1737638 1.7162319 234 88 12
0.18872501 1.1737366 1.7025242 234 88 12
0.17948335 1.1794181 1.7450192 234 88 12
0.15772085 1.1867218 1.7883509 234 88 12
0.15323821 1.1840253 1.7580448 234 88 12
0.15101391 1.1873548 1.7865962 234 88 12
0.14360932 1.1832566 1.7398603 234 88 12
0.13117504 1.1907266 1.7954069 234 88 12
0.11876301 1.1845901 1.7239127 234 88 12
0.10603492 1.1656353 1.532349 234 88 12
0.10915443 1.1769832 1.6418905 234 88 12
0.10532346 1.1755468 1.6240962 234 88 12
0.098164 1.1740034 1.6014996 234 88 12
0.087561533 1.1684115 1.5371594 234 88 12
0.089779913 1.1754378 1.6053115 234 88 12
0.086899139 1.1757904 1.6053115 234 88 12
0.23902291 1.1396394 1.4099712 234 88 12
0.21785824 1.1609995 1.5909225 234 88 12
0.20841044 1.1584604 1.5552955 234 88 12
0.1864979 1.1815566 1.7521014 234 88 12
0.17416444 1.1848544 1.769341 234 88 12
0.16759732 1.1840658 1.7539889 234 88 12
0.16494945 1.1861488 1.7709458 234 88 12
0.16187763 1.1923181 1.8267974 234 88 12
0.1618187 1.1721222 1.6320266 234 88 12
0.15811838 1.1863536 1.7648588 234 88 12
0.15345836 1.1623964 1.5283973 234 88 12
0.15006998 1.1560253 1.4629766 234 88 12
0.14862652 1.1840394 1.7313486 234 88 12
0.14587232 1.181255 1.7012545 234 88 12
0.13592564 1.1833152 1.7093791 234 88 12
0.13090865 1.1839292 1.7093791 234 88 12
0.12745228 1.1815799 1.6826518 234 88 12
0.12135065 1.1801417 1.6615866 234 88 12
0.09291102 1.1576798 1.4114792 234 88 12
0.093710534 1.1646798 1.4799067 234 88 12
0.087050378 1.1654623 1.4795916 234 88 12
0.079504944 1.1651795 1.4679614 234 88 12
0.069698066 1.1581638 1.3887531 234 88 12
0.066057213 1.1586094 1.3887531 234 88 12
0.072836488 1.1700008 1.5065734 234 88 12
0.056226913 1.1569383 1.3610427 234 88 12
0.052488193 1.157396 1.3610427 234 88 12
0.048611283 1.1577257 1.3596474 234 88 12
0.21739693 1.160786 1.5606389 234 88 12
0.21438946 1.1611239 1.5603373 234 88 12
0.211647 1.1610303 1.556062 234 88 12
0.18690939 1.1781509 1.6964493 234 88 12
0.18249562 1.176926 1.6788648 234 88 12
0.17757732 1.1840508 1.7438432 234 88 12
0.18230373 1.1611483 1.5214589 234 88 12
0.165491 1.1864971 1.7534755 234 88 12
0.1658165 1.167734 1.5669603 234 88 12
0.1603626 1.1911227 1.7933012 234 88 12
0.14614756 1.1835036 1.7000707 234 88 12
0.14361039 1.1838143 1.7000707 234 88 12
0.13793296 1.1663866 1.5195401 234 88 12
0.12682316 1.1620454 1.4627471 234 88 12
0.12425973 1.1649423 1.4884797 234 88 12
0.12931742 1.1882296 1.7266279 234 88 12
0.11601857 1.1697887 1.5267097 234 88 12
0.10874249 1.1686784 1.506778 234 88 12
0.093930967 1.1618235 1.4204315 234 88 12
0.086009197 1.1614767 1.407318 234 88 12
0.095914014 1.1834446 1.6382327 234 88 12
0.07844568 1.1707377 1.4903507 234 88 12
0.075169042 1.1711388 1.4903507 234 88 12
0.049017414 1.1610438 1.3579009 234 88 12
0.17941983 1.2272565 2.1681452 234 88 12
0.17676382 1.2275816 2.1681452 234 88 12
0.22886713 1.15202 1.4552946 234 88 12
0.19674847 1.1840756 1.745078 234 88 12
0.20958732 1.1580824 1.4934446 234 88 12
0.19030571 1.1836269 1.7323295 234 88 12
0.18788625 1.183923 1.7323295 234 88 12
0.1841066 1.1819869 1.7076133 234 88 12
0.17514081 1.1795092 1.6707766 234 88 12
0.16614267 1.1703987 1.5655577 234 88 12
0.15879773 1.18818 1.7395064 234 88 12
0.15397444 1.1942611 1.7960811 234 88 12
0.1516237 1.1893445 1.7424579 234 88 12
0.14742434 1.162428 1.459824 234 88 12
0.14113975 1.1666058 1.4949439 234 88 12
0.14059077 1.1821367 1.6542764 234 88 12
0.13086037 1.1775218 1.5944554 234 88 12
0.13412772 1.1964052 1.7931427 234 88 12
0.12040265 1.1657581 1.4600569 234 88 12
0.11697687 1.1660554 1.4588004 234 88 12
0.11441937 1.1682917 1.4786159 234 88 12
0.11572888 1.1780679 1.5809989 234 88 12
0.10442601 1.1627976 1.4094037 234 88 12
0.093683556 1.1639915 1.408157 234 88 12
0.072995864 1.1628793 1.3706082 234 88 12
0.13338229 1.2328916 2.1681452 234 88 12
0.22136451 1.1574142 1.4688835 234 88 12
0.21432288 1.163394 1.5234846 234 88 12
0.20994101 1.1609721 1.4919236 234 88 12
0.19816765 1.1763567 1.6406833 234 88 12
0.19046298 1.1762797 1.6298004 234 88 12
0.18437852 1.1842084 1.706444 234 88 12
0.18744932 1.1628668 1.4827681 234 88 12
0.17562577 1.1888231 1.7442466 234 88 12
0.17848596 1.1606162 1.4470507 234 88 12
0.17506789 1.1610345 1.4470507 234 88 12
0.16983733 1.1708239 1.544661 234 88 12
0.16632329 1.1739875 1.5738233 234 88 12
0.16335073 1.1743513 1.5738233 234 88 12
0.15688057 1.1860534 1.6902195 234 88 12
0.15431708 1.1863672 1.6902195 234 88 12
0.14910017 1.185608 1.6753082 234 88 12
0.14357728 1.1841948 1.6530194 234 88 12
0.13766135 1.1667 1.4586475 234 88 12
0.13143998 1.1695791 1.4812396 234 88 12
0.12406778 1.1849651 1.6357616 234 88 12
0.12131291 1.1853024 1.6357616 234 88 12
0.060599945 1.1658646 1.3491044 234 88 12
0.22560948 1.1631234 1.5029664 234 88 12
0.21613544 1.1595312 1.4504161 234 88 12
0.20933411 1.1603637 1.4504161 234 88 12
0.19653247 1.1602647 1.4319928 234 88 12
0.18879403 1.1708788 1.5389001 234 88 12
0.18570381 1.171257 1.5389001 234 88 12
0.18178996 1.1739961 1.5638946 234 88 12
0.17615852 1.173383 1.5494907 234 88 12
0.1639083 1.175171 1.5526834 234 88 12
0.15484497 1.1721914 1.5074623 234 88 12
0.15164445 1.1725831 1.5074623 234 88 12
0.15216646 1.2321852 2.1673191 234 88 12
0.14117952 1.1676966 1.4392555 234 88 12
0.11775766 1.1721593 1.4569051 234 88 12
0.17439593 1.2302608 2.1669061 234 88 12
0.20970303 1.1633778 1.4488295 234 88 12
0.20309275 1.1638591 1.445068 234 88 12
0.20037371 1.162912 1.4303762 234 88 12
0.1969084 1.1633362 1.4303762 234 88 12
0.18912928 1.1736177 1.5374585 234 88 12
0.18603906 1.1739959 1.5374585 234 88 12
0.16200121 1.2317779 2.1669061 234 88 12
0.15403318 1.2327532 2.1669061 234 88 12
0.1382992 1.1721736 1.4494736 234 88 12
0.22417492 1.1598966 1.3903576 234 88 12
0.20877731 1.1684189 1.469532 234 88 12
0.19277701 1.1614835 1.3634449 234 88 12
0.18538956 1.1623877 1.3634449 234 88 12
0.17810862 1.1628926 1.3588374 234 88 12
0.17073134 1.1635751 1.3562075 234 88 12
0.16340092 1.1634834 1.3444105 234 88 12
0.14457205 1.1655129 1.3411291 234 88 12
0.1963001 1.1721131 1.4577752 234 88 12
0.19537339 1.1674384 1.3983388 234 88 12
-1.2655623 1.2680923 1.7406664 234 88 12
-1.2716581 1.2628292 1.7400522 234 88 12
-1.263979 1.2715412 1.7394379 234 88 12
-1.2767967 1.2603798 1.7382095 234 88 12
-1.019027 1.164064 0.99303752 234 88 12
-1.263612 1.2774415 1.7357526 234 88 12
-1.2698734 1.2710891 1.7357526 234 88 12
-1.2717518 1.2691834 1.7357526 234 88 12
-1.2805176 1.2602901 1.7357526 234 88 12
-1.0303558 1.1600269 0.98806649 234 88 12
-1.2826911 1.2599276 1.7345241 234 88 12
-1.0296861 1.1644346 0.98558098 234 88 12
-1.2718813 1.2718159 1.73391 234 88 12
-1.2825255 1.261017 1.73391 234 88 12
-1.0340836 1.1637013 0.98309547 234 88 12
-1.1124176 1.1628238 1.133733 234 88 12
-1.2649579 1.2825252 1.7314531 234 88 12
-0.89613247 -2.1855085 -0.81669217 234 88 12
