ply
format ascii 1.0
element vertex 454
property float x
property float y
property float z
property uchar red
property uchar green
property uchar blue
end_header
-0.40457156 0.47121438 1.7430335 234 88 12
-0.40900767 0.47624034 1.7377167 234 88 12
-0.41014403 0.48306292 1.7386383 234 88 12
-0.40572983 0.4862861 1.7372143 234 88 12
-0.41321364 0.48720211 1.7372143 234 88 12
-0.42114642 0.482025 1.7322015 234 88 12
-0.42663187 0.4856697 1.7346257 234 88 12
-0.39653394 0.48481926 1.7324258 234 88 12
-0.39800945 0.48845127 1.7352583 234 88 12
-0.42622438 0.4889988 1.7328734 234 88 12
-0.38750052 0.4915503 1.7298123 234 88 12
-0.38038585 0.50722617 1.743573 234 88 12
-0.41910422 0.49856344 1.7324276 234 88 12
-0.37602413 0.50477821 1.7374837 234 88 12
-0.39395505 0.49100101 1.724113 234 88 12
-0.41301808 0.49856195 1.7284893 234 88 12
-0.39401731 0.49936616 1.7265328 234 88 12
-0.40428206 0.49653348 1.723087 234 88 12
-0.41559547 0.49791822 1.723087 234 88 12
-0.42752153 0.49850559 1.7223518 234 88 12
-0.3633838 0.53347743 1.7540365 234 88 12
-0.39271373 0.49827766 1.7211305 234 88 12
-0.40403032 0.49966282 1.7211305 234 88 12
-0.41419554 0.50257343 1.7225441 234 88 12
-0.40419346 0.510535 1.7211056 234 88 12
-0.4154537 0.51191324 1.7211056 234 88 12
-0.3959778 0.51334983 1.7197386 234 88 12
-0.38714355 0.52529991 1.7217482 234 88 12
-0.38638067 0.53176111 1.7274971 234 88 12
-0.40198043 0.51638466 1.7123359 234 88 12
-0.39485657 0.53651923 1.7307605 234 88 12
-0.42079177 0.51875669 1.712397 234 88 12
-0.39779902 0.51926631 1.7105762 234 88 12
-0.39597008 0.52714455 1.7177302 234 88 12
-0.40340683 0.52273506 1.713033 234 88 12
-0.42246783 0.52469909 1.7127072 234 88 12
-0.39923993 0.52560669 1.7112792 234 88 12
-0.39436764 0.53736818 1.7222644 234 88 12
-0.38901564 0.54958737 1.7337086 234 88 12
-0.38030756 0.5426988 1.7238691 234 88 12
-0.38706607 0.53645229 1.7127923 234 88 12
-0.40161586 0.53877062 1.7132764 234 88 12
-0.39612791 0.54614896 1.7110189 234 88 12
-0.83897853 -1.9822752 -0.62601125 234 88 12
-0.83719659 -1.9829481 -0.62601125 234 88 12
-0.84229416 -1.9802717 -0.62778139 234 88 12
-0.82600778 -1.9856687 -0.62955159 234 88 12
-0.83823335 -1.9803014 -0.63132173 234 88 12
-0.83976692 -1.9789706 -0.63309193 234 88 12
-0.83798492 -1.9796433 -0.63309193 234 88 12
-0.83442092 -1.9809889 -0.63309193 234 88 12
-0.82551098 -1.9843527 -0.63309193 234 88 12
-0.8125751 -1.9587783 -0.60825604 234 88 12
-0.79963213 -1.9060239 -0.55663103 234 88 12
-0.8123914 -1.9480683 -0.60127771 234 88 12
-0.81279427 -1.9709469 -0.62430209 234 88 12
-0.82158339 -1.9762517 -0.63439727 234 88 12
-0.81673312 -1.9611368 -0.61951643 234 88 12
-0.81143695 -1.9549838 -0.6123575 234 88 12
-0.80033034 -1.8767077 -0.54302561 234 88 12
-0.78000003 -1.7861558 -0.45733801 234 88 12
-0.80502027 -1.923918 -0.58575368 234 88 12
-0.73500252 -1.5971577 -0.27764791 234 88 12
-0.78881264 -1.8178501 -0.49132922 234 88 12
-0.76253337 -1.6988184 -0.37958249 234 88 12
-0.78218281 -1.8119944 -0.48408592 234 88 12
-0.7825802 -1.8272089 -0.49740028 234 88 12
-0.83268213 -1.9763831 -0.64548308 234 88 12
-0.82555413 -1.9790742 -0.64548308 234 88 12
-0.82020813 -1.9810925 -0.64548308 234 88 12
-0.77003866 -1.7377013 -0.41966274 234 88 12
-0.79289389 -1.8655305 -0.53712827 234 88 12
-0.73609918 -1.6045667 -0.29402795 234 88 12
0.90910703 -2.047606 -0.10482186 234 88 12
0.9125815 -2.0460439 -0.10482186 234 88 12
0.88989401 -1.9872448 -0.064179286 234 88 12
0.73134774 -1.6312983 0.20035031 234 88 12
0.89844453 -2.0517609 -0.10858656 234 88 12
0.9019115 -2.0135298 -0.086031727 234 88 12
0.74192619 -1.6271545 0.19584145 234 88 12
0.7789461 -1.703275 0.13878798 234 88 12
0.89658785 -2.0522764 -0.11046892 234 88 12
0.90006232 -2.0507143 -0.11046892 234 88 12
0.91222316 -2.0452468 -0.11046892 234 88 12
0.76238257 -1.6827837 0.15211441 234 88 12
0.74168903 -1.626627 0.19210424 234 88 12
0.81615734 -1.7893862 0.072221406 234 88 12
0.81366837 -1.7758311 0.08118578 234 88 12
0.89810085 -2.0051839 -0.084383622 234 88 12
0.91190964 -2.0258806 -0.10070867 234 88 12
0.84427124 -1.8680068 0.013535963 234 88 12
0.74102044 -1.6251125 0.18908356 234 88 12
0.76478654 -1.6705548 0.1550272 234 88 12
0.85755295 -1.8785509 0.0035148484 234 88 12
0.77806956 -1.7265323 0.11380095 234 88 12
0.8250131 -1.8172505 0.046411123 234 88 12
0.80022997 -1.7525725 0.092103787 234 88 12
0.79534054 -1.7329872 0.10523149 234 88 12
0.83597511 -1.8627143 0.013078359 234 88 12
0.86808467 -1.927864 -0.034555744 234 88 12
0.90903622 -2.0145009 -0.097429752 234 88 12
0.80259937 -1.7659943 0.079948761 234 88 12
0.74732596 -1.630201 0.17609796 234 88 12
0.91869438 -2.0410597 -0.11799833 234 88 12
0.90803188 -2.0452147 -0.12176304 234 88 12
0.91150641 -2.0436525 -0.12176304 234 88 12
0.91671818 -2.0413094 -0.12176304 234 88 12
-1.2983897 -1.1623558 -1.4039842 234 88 12
-1.2920831 -1.1668242 -1.4053766 234 88 12
-1.2875514 -1.1676799 -1.4081614 234 88 12
-1.2879791 -1.165414 -1.4095539 234 88 12
-1.2924476 -1.1591074 -1.4109462 234 88 12
-1.2870601 -1.164495 -1.4109462 234 88 12
-1.2843664 -1.1671886 -1.4109462 234 88 12
-1.2694939 -1.1538037 -1.3880652 234 88 12
-1.2901183 -1.1540844 -1.4165159 234 88 12
-1.2653183 -1.1428856 -1.3740275 234 88 12
-1.234991 -1.0930786 -1.2840807 234 88 12
-1.2533873 -1.130652 -1.3496155 234 88 12
-1.2869334 -1.1535933 -1.4193008 234 88 12
-1.2524624 -1.1119145 -1.3308444 234 88 12
-1.1378589 -0.92667556 -0.98254347 234 88 12
-1.2583705 -1.1239882 -1.3557777 234 88 12
-1.2467381 -1.1068636 -1.3226377 234 88 12
-1.2177625 -1.0587028 -1.2337443 234 88 12
-1.1506504 -0.94361162 -1.02377 234 88 12
-1.2837484 -1.153102 -1.4220856 234 88 12
-1.2810547 -1.1557958 -1.4220856 234 88 12
-1.2671876 -1.1414269 -1.3898033 234 88 12
-1.1872721 -0.99810451 -1.1345729 234 88 12
-1.2033328 -1.0335541 -1.1934652 234 88 12
-1.1980212 -1.0131143 -1.1695368 234 88 12
-1.1565223 -0.9428243 -1.0427357 234 88 12
-1.1391821 -0.91848177 -0.99545532 234 88 12
0.27181616 -1.8880132 -1.1638275 234 88 12
0.28121302 -1.8864634 -1.1638275 234 88 12
0.28250217 -1.8581979 -1.1337888 234 88 12
0.28185281 -1.8460723 -1.1194444 234 88 12
0.24785458 -1.6825452 -0.92111051 234 88 12
0.26770282 -1.8864832 -1.1669523 234 88 12
0.28085843 -1.8843135 -1.1669523 234 88 12
0.28649655 -1.8833835 -1.1669523 234 88 12
0.28911349 -1.8687842 -1.150458 234 88 12
0.22464846 -1.5596079 -0.77813399 234 88 12
0.27880177 -1.8835485 -1.1685147 234 88 12
0.27888516 -1.8511634 -1.1310989 234 88 12
0.28269538 -1.858017 -1.1427834 234 88 12
0.22560939 -1.5630927 -0.79355013 234 88 12
0.23478143 -1.5887493 -0.82472724 234 88 12
0.27736902 -1.8347532 -1.1182965 234 88 12
0.26819274 -1.7844261 -1.0592375 234 88 12
0.27050066 -1.7718159 -1.045305 234 88 12
0.26690102 -1.7892916 -1.0681213 234 88 12
0.27048358 -1.7941799 -1.0743184 234 88 12
0.24921827 -1.6722286 -0.93242103 234 88 12
0.27890849 -1.8210167 -1.1095287 234 88 12
0.2898024 -1.8612491 -1.1567219 234 88 12
0.2831988 -1.8750937 -1.1794515 234 88 12
1.6423274 -1.1551734 -0.32923466 234 88 12
1.4803613 -0.99818963 -0.13852674 234 88 12
1.7683769 -1.2864107 -0.48460621 234 88 12
1.7105308 -1.2254515 -0.4144519 234 88 12
1.4779358 -0.99607366 -0.14037512 234 88 12
1.4919283 -1.004239 -0.1539959 234 88 12
1.4878938 -0.99006236 -0.14405175 234 88 12
1.7798288 -1.27119 -0.48460621 234 88 12
1.7667667 -1.2875829 -0.48641989 234 88 12
1.6559095 -1.175295 -0.35515407 234 88 12
1.5119512 -1.0380793 -0.18904164 234 88 12
1.4875903 -0.9951452 -0.15096447 234 88 12
1.4947895 -0.99696398 -0.15672177 234 88 12
1.6306607 -1.1250348 -0.31277621 234 88 12
1.7640113 -1.2902771 -0.48823354 234 88 12
1.7514434 -1.2632663 -0.4662779 234 88 12
1.7441429 -1.2537414 -0.45662069 234 88 12
1.5153375 -1.0317827 -0.19240628 234 88 12
1.5769093 -1.0856637 -0.26056933 234 88 12
1.49279 -1.0003422 -0.16156408 234 88 12
1.4925939 -0.99502969 -0.15876499 234 88 12
1.5723729 -1.0680624 -0.24870096 234 88 12
1.75749 -1.2689086 -0.47554493 234 88 12
1.5789257 -1.0962973 -0.27101982 234 88 12
1.5294116 -1.0405272 -0.21036227 234 88 12
1.512406 -1.0194073 -0.18854874 234 88 12
1.7582649 -1.250379 -0.46681401 234 88 12
1.7607907 -1.2926214 -0.49186087 234 88 12
1.6906104 -1.200985 -0.40022016 234 88 12
1.6944909 -1.2013496 -0.40295684 234 88 12
1.7062527 -1.2060534 -0.41303533 234 88 12
1.7768233 -1.2713125 -0.49186087 234 88 12
1.7729228 -1.2755288 -0.49367455 234 88 12
1.7646564 -1.2836114 -0.49911553 234 88 12
1.7703823 -1.2760011 -0.49911553 234 88 12
-1.0573918 1.1727772 -1.0269648 234 88 12
-1.1660031 1.2392232 -1.4161215 234 88 12
-1.1677438 1.2356013 -1.4118458 234 88 12
-1.1451765 1.2252921 -1.3456213 234 88 12
-1.1634964 -0.057016615 -1.9090161 234 88 12
-1.1630336 -0.060797919 -1.9090161 234 88 12
-1.1560434 -0.048428472 -1.9134263 234 88 12
-1.1544235 -0.061663035 -1.9134263 234 88 12
-1.1543677 -0.048223365 -1.9143084 234 88 12
-1.1541363 -0.050114017 -1.9143084 234 88 12
-1.1357069 -0.050872728 -1.8783005 234 88 12
-1.1380526 -0.057305653 -1.8911798 234 88 12
-1.1245415 -0.048610199 -1.8312645 234 88 12
-1.0359633 0.036802325 -1.439602 234 88 12
-1.1424062 -0.048678268 -1.9204828 234 88 12
-1.1419799 -0.050390709 -1.9196192 234 88 12
-1.0829504 0.00039095173 -1.6596178 234 88 12
-1.0992763 -0.017120128 -1.7332177 234 88 12
-1.1108096 -0.029898759 -1.7854102 234 88 12
-1.1366758 -0.056452528 -1.9014392 234 88 12
-1.0835783 0.0010293674 -1.6732824 234 88 12
-1.1160452 -0.033361487 -1.8172244 234 88 12
-1.1251116 -0.043573994 -1.8577125 234 88 12
-1.1078531 -0.036888458 -1.7867671 234 88 12
-1.0477406 0.027316201 -1.5334677 234 88 12
-1.0802908 -0.0042551318 -1.6742433 234 88 12
-1.1000105 -0.023898408 -1.7597735 234 88 12
-1.0251008 0.034758791 -1.4424224 234 88 12
-0.18416354 -1.0577899 -1.9557645 234 88 12
-0.18227288 -1.0580213 -1.9557645 234 88 12
-0.18773973 -1.0556513 -1.9566466 234 88 12
-0.18206778 -1.0563456 -1.9566466 234 88 12
-0.17261451 -1.0575026 -1.9566466 234 88 12
-0.17138933 -1.014575 -1.866171 234 88 12
-0.17010854 -1.0527068 -1.9592928 234 88 12
-0.16926435 -1.0384954 -1.9263594 234 88 12
-0.17352714 -1.0313761 -1.9164321 234 88 12
-0.16668005 -1.0424418 -1.9397194 234 88 12
-0.17290305 -1.0341063 -1.9275762 234 88 12
-0.16796586 -0.97275108 -1.7879484 234 88 12
-0.17269798 -1.0321331 -1.9281362 234 88 12
-0.1719318 -1.015916 -1.8917538 234 88 12
-0.16663347 -1.0324296 -1.9271419 234 88 12
-0.16740666 -0.97602546 -1.8015403 234 88 12
-0.18252268 -1.0443841 -1.9628209 234 88 12
-0.18063203 -1.0446155 -1.9628209 234 88 12
-0.18116207 -0.88805157 -1.6172774 234 88 12
-0.16916126 -1.0195894 -1.9044644 234 88 12
-0.16873759 -0.94038469 -1.7294691 234 88 12
-0.16908301 -1.0443283 -1.9637029 234 88 12
-0.17096509 -0.98624033 -1.837242 234 88 12
-0.16763467 -1.0029521 -1.8728783 234 88 12
-0.1663966 -0.98124301 -1.825097 234 88 12
0.98747087 -0.89091396 -1.132367 234 88 12
1.1544466 -1.1098218 -1.5546815 234 88 12
1.1557837 -1.1084652 -1.5546815 234 88 12
1.1453688 -1.0902315 -1.5238634 234 88 12
1.15435 -1.0947726 -1.538473 234 88 12
1.0115895 -0.91522723 -1.1913608 234 88 12
0.99126625 -0.88413793 -1.1360292 234 88 12
1.1221468 -1.0443455 -1.4495513 234 88 12
1.1507887 -1.1115654 -1.5559932 234 88 12
1.1548001 -1.1074957 -1.5559932 234 88 12
1.0784829 -1.0153933 -1.3760364 234 88 12
1.1180263 -1.0470667 -1.4522439 234 88 12
1.0418888 -0.94801015 -1.2650987 234 88 12
1.1029234 -1.0203019 -1.4075679 234 88 12
0.9965573 -0.87931514 -1.1433587 234 88 12
1.1551535 -1.1051697 -1.5573049 234 88 12
1.1298662 -1.0619686 -1.4847976 234 88 12
1.1044661 -1.0266705 -1.4204916 234 88 12
1.0755593 -0.98599917 -1.346781 234 88 12
1.1250058 -1.0449175 -1.4616497 234 88 12
1.1528327 -1.1055566 -1.5586166 234 88 12
1.0832692 -1.0174193 -1.3928206 234 88 12
1.0701315 -0.99314529 -1.3535395 234 88 12
1.1366032 -1.0705498 -1.504847 234 88 12
1.0161453 -0.9167406 -1.216509 234 88 12
0.99291056 -0.87579119 -1.1491071 234 88 12
1.1465882 -1.0894135 -1.5386724 234 88 12
1.1305183 -1.0667773 -1.4983186 234 88 12
1.1211904 -1.0518584 -1.4730507 234 88 12
1.0914288 -1.0110925 -1.3995134 234 88 12
1.1418591 -1.1107873 -1.5625516 234 88 12
1.8478812 -0.11952268 -0.73192573 234 88 12
1.701099 -0.059669312 -0.54795361 234 88 12
1.7013915 -0.055860948 -0.54770291 234 88 12
2.0211446 -0.17960006 -0.94742745 234 88 12
1.7922945 -0.1087708 -0.66883111 234 88 12
1.7074031 -0.074162424 -0.56315434 234 88 12
1.7057105 -0.069672771 -0.56045437 234 88 12
1.7021688 -0.064453483 -0.55545628 234 88 12
2.0204554 -0.17758769 -0.94908017 234 88 12
1.962054 -0.17284147 -0.88260126 234 88 12
1.691998 -0.072860055 -0.55027539 234 88 12
1.7285836 -0.082379848 -0.59467304 234 88 12
1.7008842 -0.068312094 -0.55999589 234 88 12
1.702139 -0.053216826 -0.55912828 234 88 12
2.0160832 -0.19622318 -0.9523856 234 88 12
1.8060097 -0.12091041 -0.69601125 234 88 12
1.8854661 -0.14589277 -0.79244077 234 88 12
1.7139208 -0.081201263 -0.58259511 234 88 12
1.7334656 -0.080907516 -0.60532373 234 88 12
1.7578757 -0.079384819 -0.6335324 234 88 12
1.8670256 -0.11916278 -0.76683885 234 88 12
2.015394 -0.19421081 -0.95403838 234 88 12
2.0029497 -0.18782344 -0.93866038 234 88 12
1.731571 -0.087971963 -0.60933435 234 88 12
1.9347615 -0.15873364 -0.85530037 234 88 12
1.9392992 -0.15795647 -0.86043298 234 88 12
1.7612703 -0.088171341 -0.64373499 234 88 12
1.7834419 -0.093179025 -0.67015934 234 88 12
1.8957435 -0.13361897 -0.806306 234 88 12
1.9953406 -0.18534736 -0.93239409 234 88 12
1.9705963 -0.17211026 -0.90194356 234 88 12
2.0033238 -0.17791328 -0.94044089 234 88 12
2.0162015 -0.18086833 -0.9556911 234 88 12
2.0106411 -0.20126815 -0.96064931 234 88 12
2.0116391 -0.19371474 -0.96064931 234 88 12
2.0133853 -0.18049626 -0.96064931 234 88 12
1.1918007 1.3251408 -1.3606325 234 88 12
0.97802806 1.2270751 -0.87196213 234 88 12
0.97361755 1.2290244 -0.86807132 234 88 12
0.97092903 1.2317129 -0.86807132 234 88 12
1.0413688 1.2639041 -1.0303137 234 88 12
1.1746806 1.3197023 -1.3292645 234 88 12
0.98233092 1.2278967 -0.88848048 234 88 12
0.97663689 1.2292457 -0.88167077 234 88 12
0.99162388 1.242805 -0.92640942 234 88 12
1.1886207 1.3246545 -1.3634237 234 88 12
1.0859956 1.2689867 -1.1217166 234 88 12
0.97923976 1.225538 -0.88833296 234 88 12
0.96995819 1.225365 -0.87364286 234 88 12
1.0545033 1.2674564 -1.0704073 234 88 12
1.000609 1.2265534 -0.93111336 234 88 12
1.0905877 1.2702713 -1.1370698 234 88 12
1.0366361 1.2495663 -1.0220628 234 88 12
1.1881343 1.3214744 -1.366215 234 88 12
0.98368746 1.2217026 -0.90576786 234 88 12
1.0173161 1.2402169 -0.98540735 234 88 12
0.99366069 1.2334719 -0.93897593 234 88 12
1.022536 1.249231 -1.0071474 234 88 12
1.1486255 1.2972058 -1.2779781 234 88 12
0.99924803 1.2349124 -0.9574371 234 88 12
1.0856451 1.2750622 -1.1490718 234 88 12
1.1782198 1.3277224 -1.3690062 234 88 12
1.138198 1.2871479 -1.25214 234 88 12
1.055474 1.2521932 -1.075447 234 88 12
1.0541753 1.2608887 -1.0865531 234 88 12
1.1785141 1.3051999 -1.3441629 234 88 12
1.1725048 1.3045406 -1.334235 234 88 12
1.1587019 1.3004888 -1.3076532 234 88 12
1.0958631 1.2752241 -1.1764861 234 88 12
1.1777334 1.3245423 -1.3717974 234 88 12
1.1902856 1.3101569 -1.373193 234 88 12
1.1659997 1.3031833 -1.327047 234 88 12
1.1893688 1.3092403 -1.3745886 234 88 12
1.1853282 1.3132809 -1.3745886 234 88 12
1.178594 1.3200153 -1.3745886 234 88 12
1.1780515 1.3113916 -1.3815666 234 88 12
-0.10315394 1.385895 -1.7576431 234 88 12
-0.089763664 1.3848752 -1.7586758 234 88 12
-0.09380497 1.3774581 -1.7168645 234 88 12
-0.10118145 1.3843787 -1.7586758 234 88 12
-0.093118511 1.3704145 -1.6876916 234 88 12
-0.10986307 1.3193134 -1.4023331 234 88 12
-0.10498709 1.3455228 -1.5496057 234 88 12
-0.10977568 1.3388361 -1.5129054 234 88 12
-0.11054881 1.2873278 -1.2412617 234 88 12
-0.10401382 1.3370829 -1.5162966 234 88 12
-0.10897401 1.2902339 -1.2760485 234 88 12
-0.095354237 1.345153 -1.5855803 234 88 12
-0.11349449 1.2829854 -1.2566539 234 88 12
-0.095194466 1.3782308 -1.7628065 234 88 12
-0.099000394 1.3780653 -1.7628065 234 88 12
-0.11041818 1.377569 -1.7628065 234 88 12
-0.11188123 1.2858496 -1.2898443 234 88 12
-0.10512515 1.3247504 -1.4930516 234 88 12
-0.099646524 1.3540697 -1.6461192 234 88 12
-0.10776697 1.2992574 -1.3758982 234 88 12
-0.099045381 1.3452709 -1.611871 234 88 12
-0.098837048 1.3547157 -1.6606629 234 88 12
-0.10794444 1.3400627 -1.5869409 234 88 12
-0.11120848 1.2815125 -1.3024083 234 88 12
-0.097702757 1.3481065 -1.6378089 234 88 12
-0.099202462 1.3589749 -1.6933662 234 88 12
-0.10069479 1.3731856 -1.7659045 234 88 12
-0.11020961 1.3727719 -1.7659045 234 88 12
-0.10583625 1.3134208 -1.4775666 234 88 12
-0.094109192 1.3678441 -1.7468312 234 88 12
-0.098607592 1.3658732 -1.7379643 234 88 12
-0.097048856 1.3624201 -1.7300649 234 88 12
-0.09674982 1.3701531 -1.76797 234 88 12
-0.037142858 0.082857139 -2.23 234 88 12
-0.029852994 0.081854984 -2.2244251 234 88 12
-0.039486796 0.10170842 -2.1018009 234 88 12
-0.053804617 0.15399252 -1.7559509 234 88 12
-0.035721954 0.095642649 -2.1250315 234 88 12
-0.04202576 0.10570115 -2.0614083 234 88 12
-0.051119596 0.15335879 -1.7360078 234 88 12
-0.038105022 0.10643127 -2.0401678 234 88 12
-0.045161601 0.11800289 -1.9651664 234 88 12
-0.035443321 0.086997241 -2.1661289 234 88 12
-0.040577244 0.11872601 -1.9409981 234 88 12
-0.032589808 0.088779137 -2.140012 234 88 12
-0.039090168 0.099616878 -2.0679891 234 88 12
-0.035443321 0.084849164 -2.1661289 234 88 12
-0.034032758 0.090362839 -2.1138897 234 88 12
-0.039090168 0.097094931 -2.0679891 234 88 12
-0.065329932 0.14372584 -1.750051 234 88 12
-0.05047619 0.07333333 -2.23 234 88 12
-0.030635051 0.07922858 -2.1754 234 88 12
-0.030733241 0.074354611 -2.2095177 234 88 12
-0.033619877 0.076408811 -2.1951382 234 88 12
-0.036715299 0.074422903 -2.2090397 234 88 12
-0.039466027 0.075896204 -2.1987267 234 88 12
-0.039047617 0.071428575 -2.23 234 88 12
-0.05047619 0.071428575 -2.23 234 88 12
-0.040472582 0.075756371 -2.1851768 234 88 12
-0.030756248 0.07044173 -2.2091281 234 88 12
-0.033676919 0.072456405 -2.1942308 234 88 12
-0.037216965 0.071416341 -2.2019215 234 88 12
-0.033333335 0.065714285 -2.23 234 88 12
1.0987701 0.10031971 -1.3733444 234 88 12
1.1230704 0.093361244 -1.431859 234 88 12
1.1070398 0.10420227 -1.3926113 234 88 12
1.0991691 0.087616481 -1.3850304 234 88 12
1.1057594 0.088681996 -1.4004347 234 88 12
1.1674757 0.066459574 -1.5479877 234 88 12
1.180712 0.063862666 -1.5794114 234 88 12
1.230073 0.047586024 -1.6972718 234 88 12
1.092605 0.11329666 -1.3669504 234 88 12
1.2675977 0.017511411 -1.7938366 234 88 12
1.1227612 0.077140823 -1.4503329 234 88 12
1.2302538 0.036874272 -1.7048652 234 88 12
1.1141895 0.098525934 -1.4281946 234 88 12
1.1519458 0.084892228 -1.5175465 234 88 12
1.2826225 0.027169228 -1.8278652 234 88 12
1.2681026 0.016731614 -1.8001518 234 88 12
1.2623278 0.02106506 -1.7863988 234 88 12
1.2324567 0.035254549 -1.7160832 234 88 12
1.1818485 0.058616005 -1.5970216 234 88 12
1.2165372 0.04681807 -1.6782082 234 88 12
1.1759466 0.066986263 -1.5825707 234 88 12
1.2414502 0.040907282 -1.7362584 234 88 12
1.2761931 0.027487513 -1.8177329 234 88 12
1.278597 0.0082786316 -1.8299307 234 88 12
1.2501887 0.027426032 -1.7631718 234 88 12
1.2479678 0.030554609 -1.757791 234 88 12
1.2238398 0.045421671 -1.7012291 234 88 12
1.279259 0.023502344 -1.8299307 234 88 12
1.2580687 0.021515826 -1.7868859 234 88 12
1.1394264 0.070920222 -1.5138787 234 88 12
1.2261592 0.038782299 -1.713068 234 88 12
1.1083742 0.090422332 -1.4417793 234 88 12
1.275399 0.0084176771 -1.831996 234 88 12
1.2755644 0.012223605 -1.831996 234 88 12
1.2745446 0.025613876 -1.8330287 234 88 12
1.2705191 0.0067232805 -1.835094 234 88 12
1.2707675 0.012432173 -1.835094 234 88 12
1.2713466 0.025752921 -1.835094 234 88 12
