ply
format ascii 1.0
element vertex 225
property float x
property float y
property float z
property uchar red
property uchar green
property uchar blue
end_header
-0.3700389 0.66792732 1.636449 234 88 12
-0.37755156 0.66884685 1.636449 234 88 12
-0.37783119 0.67311233 1.6415396 234 88 12
-0.35835484 0.6727519 1.6323291 234 88 12
-0.36437881 0.67534423 1.6345943 234 88 12
-0.34807658 0.68259448 1.640072 234 88 12
-0.36939242 0.69521558 1.65239 234 88 12
-0.35908878 0.69148564 1.6435483 234 88 12
-0.36899588 0.69845539 1.6506847 234 88 12
-0.38761324 0.68309677 1.6288215 234 88 12
-0.35566199 0.68439358 1.629348 234 88 12
-0.36388946 0.684506 1.6282307 234 88 12
-0.37004471 0.68689156 1.6302692 234 88 12
-0.38190109 0.6876052 1.629348 234 88 12
-0.35296428 0.68561941 1.6253139 234 88 12
-0.36348224 0.68783301 1.6264794 234 88 12
-0.36197758 0.69847691 1.640106 234 88 12
-0.36566684 0.69892848 1.640106 234 88 12
-0.37699649 0.69566768 1.6342573 234 88 12
-2.0708435 -0.63624161 -0.59768856 234 88 12
-2.068825 -0.64158762 -0.59768856 234 88 12
-2.035717 -0.62168062 -0.5561043 234 88 12
-2.0641768 -0.63801044 -0.59412074 234 88 12
-2.0448017 -0.62687075 -0.57013166 234 88 12
-2.035321 -0.62167364 -0.55849046 234 88 12
-2.0551829 -0.63082051 -0.58484679 234 88 12
-0.82605094 -1.9803901 -0.64194274 234 88 12
-0.81332856 -1.9844415 -0.64371294 234 88 12
-0.82911813 -1.9777286 -0.64548308 234 88 12
-0.82733613 -1.9784014 -0.64548308 234 88 12
-0.8288697 -1.9770707 -0.64725327 234 88 12
-0.8270877 -1.9777435 -0.64725327 234 88 12
-0.8235237 -1.979089 -0.64725327 234 88 12
-0.81461376 -1.9824529 -0.64725327 234 88 12
-0.79646122 -1.9645773 -0.63119864 234 88 12
-0.79001933 -1.9385413 -0.60987359 234 88 12
-0.7957688 -1.9704165 -0.63840479 234 88 12
-0.76886368 -1.8627578 -0.54282904 234 88 12
-0.79267645 -1.9502209 -0.62571692 234 88 12
-0.75357372 -1.8018743 -0.49086726 234 88 12
-0.81312335 -1.978505 -0.65787423 234 88 12
-0.81822091 -1.9758288 -0.65964442 234 88 12
-0.81465691 -1.9771743 -0.65964442 234 88 12
0.94235379 -2.0332973 -0.10105715 234 88 12
0.94582832 -2.0317352 -0.10105715 234 88 12
0.94918334 -2.0299072 -0.1029395 234 88 12
0.95010161 -2.0153227 -0.094047114 234 88 12
0.87939066 -1.8050501 0.057841774 234 88 12
0.93040431 -1.9455719 -0.044723473 234 88 12
0.93690312 -2.035109 -0.10482186 234 88 12
0.94558936 -2.0312037 -0.10482186 234 88 12
0.94732666 -2.0304227 -0.10482186 234 88 12
0.94150162 -1.9970288 -0.082374334 234 88 12
0.94252264 -1.9811523 -0.072764255 234 88 12
0.93655843 -1.9569058 -0.055979472 234 88 12
0.93853742 -1.9887663 -0.078662641 234 88 12
0.94540739 -2.0020971 -0.088829137 234 88 12
0.94421941 -1.9862118 -0.078662641 234 88 12
0.94430101 -1.9799825 -0.074828357 234 88 12
0.92971516 -2.0377018 -0.10858656 234 88 12
0.93489385 -1.9723001 -0.072132438 234 88 12
0.94313538 -2.0303905 -0.11611598 234 88 12
0.9412787 -2.030906 -0.11799833 234 88 12
0.94301593 -2.0301249 -0.11799833 234 88 12
0.94475317 -2.0293438 -0.11799833 234 88 12
-1.2891359 -1.1477146 -1.4220856 234 88 12
-1.2895638 -1.1454487 -1.4234781 234 88 12
-1.2796445 -1.1516918 -1.426263 234 88 12
-1.2800723 -1.1494259 -1.4276555 234 88 12
-1.2822114 -1.1380963 -1.4346175 234 88 12
-1.2561055 -1.1326314 -1.4009917 234 88 12
-1.2812924 -1.1371773 -1.43601 234 88 12
-1.2799455 -1.1385242 -1.43601 234 88 12
-1.2581557 -1.1370879 -1.4114646 234 88 12
-1.2803733 -1.1362582 -1.4374024 234 88 12
-1.2655218 -1.1472207 -1.4333243 234 88 12
-1.2480688 -1.1198347 -1.3863071 234 88 12
-1.2544271 -1.1351944 -1.4090801 234 88 12
0.30458108 -1.875984 -1.1732019 234 88 12
0.30252442 -1.875219 -1.1747643 234 88 12
0.29107088 -1.8760037 -1.1763268 234 88 12
0.296709 -1.8750739 -1.1763268 234 88 12
0.31174397 -1.8725941 -1.1763268 234 88 12
0.31188715 -1.8470237 -1.1478481 234 88 12
0.29089358 -1.8749288 -1.1778891 234 88 12
0.29841107 -1.8736889 -1.1778891 234 88 12
0.31156668 -1.8715192 -1.1778891 234 88 12
0.3094441 -1.8446469 -1.1477622 234 88 12
0.31250274 -1.851429 -1.1558261 234 88 12
0.31590617 -1.8612665 -1.1673346 234 88 12
0.31454083 -1.8362793 -1.139432 234 88 12
0.28093016 -1.5571326 -0.82436514 234 88 12
0.30712661 -1.829379 -1.133561 234 88 12
0.30508846 -1.7661963 -1.0673776 234 88 12
1.6126215 -1.0145928 -0.20522612 234 88 12
1.6913146 -1.1033446 -0.30954501 234 88 12
1.8026203 -1.2448057 -0.46804002 234 88 12
1.7929986 -1.2306821 -0.45361218 234 88 12
1.6736077 -1.0868641 -0.29143736 234 88 12
1.7632314 -1.189225 -0.41017583 234 88 12
1.5449891 -0.92377412 -0.11235517 234 88 12
1.7800832 -1.2189037 -0.4406288 234 88 12
1.7482061 -1.1785592 -0.39656925 234 88 12
1.7633214 -1.1929065 -0.41491333 234 88 12
1.7759999 -1.2014176 -0.42842332 234 88 12
1.7975067 -1.2535028 -0.47372422 234 88 12
1.785731 -1.2256427 -0.45069525 234 88 12
1.7992264 -1.2324811 -0.463808 234 88 12
1.6362952 -1.034102 -0.24419978 234 88 12
1.7958964 -1.2546749 -0.4755379 234 88 12
1.7719058 -1.2034699 -0.43184417 234 88 12
1.7874224 -1.2249845 -0.45646122 234 88 12
1.7980654 -1.2344689 -0.46880677 234 88 12
1.7926759 -1.2570193 -0.47916523 234 88 12
1.7949662 -1.2539752 -0.47916523 234 88 12
1.7984018 -1.249409 -0.47916523 234 88 12
1.8022674 -1.240399 -0.48641989 234 88 12
-1.1514232 -0.030592175 -1.9169545 234 88 12
-1.1502104 -0.026605763 -1.9178365 234 88 12
-1.1470903 -0.024304897 -1.9196006 234 88 12
-1.1380175 -0.028951317 -1.9240109 234 88 12
-1.1379616 -0.015511646 -1.9248929 234 88 12
-1.1322403 -0.020568281 -1.9275391 234 88 12
-1.131546 -0.026240237 -1.9275391 234 88 12
-1.120349 -0.024644909 -1.9017627 234 88 12
-1.1141863 -0.020263942 -1.8860269 234 88 12
-1.1055598 -0.0064057042 -1.8585855 234 88 12
-1.1095572 -0.015066444 -1.8755479 234 88 12
-1.0639468 0.025341673 -1.705982 234 88 12
-0.16994813 -1.0357182 -1.9681132 234 88 12
-0.16805747 -1.0359497 -1.9681132 234 88 12
-0.17163368 -1.0338111 -1.9689952 234 88 12
-0.16785237 -1.034274 -1.9689952 234 88 12
-0.1544127 -1.0342181 -1.9698772 234 88 12
-0.14603014 -1.0138711 -1.9310189 234 88 12
-0.13614954 -0.81834882 -1.5335947 234 88 12
-0.14602868 -1.0189658 -1.9458768 234 88 12
-0.14603242 -1.0239345 -1.9602224 234 88 12
-0.14278564 -0.99628705 -1.9095032 234 88 12
-0.14350805 -0.95873183 -1.8414307 234 88 12
-0.16243021 -1.021331 -1.9760516 234 88 12
1.1719003 -1.0526503 -1.5048635 234 88 12
1.1663883 -1.0397911 -1.4847983 234 88 12
1.18449 -1.0654774 -1.5327022 234 88 12
1.1634725 -1.0438807 -1.4899932 234 88 12
1.1763291 -1.0603811 -1.521863 234 88 12
1.1572512 -1.0170445 -1.4542359 234 88 12
1.1798518 -1.0840473 -1.5546815 234 88 12
1.1837194 -1.0692004 -1.5429932 234 88 12
1.1787448 -1.0574088 -1.5249747 234 88 12
1.1827338 -1.0753311 -1.5519332 234 88 12
1.1748312 -1.0592743 -1.526378 234 88 12
1.1698253 -1.0435202 -1.5042639 234 88 12
1.1607461 -1.024465 -1.4742588 234 88 12
1.1752102 -1.0848213 -1.5573049 234 88 12
1.1868278 -1.0719336 -1.5561453 234 88 12
1.1715523 -1.0865649 -1.5586166 234 88 12
1.1666341 -1.0817171 -1.5651751 234 88 12
1.1759939 -1.0722212 -1.5651751 234 88 12
1.1773311 -1.0708647 -1.5651751 234 88 12
1.7537509 0.0040612398 -0.51434004 234 88 12
1.8965296 -0.068441607 -0.71618789 234 88 12
1.8216465 -0.024900435 -0.60935926 234 88 12
1.7424551 0.021995133 -0.496236 234 88 12
1.9876924 -0.12003326 -0.84940314 234 88 12
1.8958833 -0.06270925 -0.71861666 234 88 12
2.0349259 -0.1473624 -0.91925716 234 88 12
1.9743887 -0.11346532 -0.83426851 234 88 12
2.0250201 -0.13799593 -0.90469074 234 88 12
1.7575377 0.0083600078 -0.5297603 234 88 12
1.8393342 -0.032415129 -0.64372712 234 88 12
2.0122261 -0.13595951 -0.89075261 234 88 12
1.8795067 -0.061046794 -0.70556962 234 88 12
1.989557 -0.11720011 -0.85809946 234 88 12
2.0172653 -0.13466495 -0.90015149 234 88 12
2.0020623 -0.12435251 -0.87878567 234 88 12
2.0275154 -0.13592751 -0.91358715 234 88 12
2.0330884 -0.14139131 -0.92462188 234 88 12
2.0330861 -0.15427928 -0.93255287 234 88 12
2.0348322 -0.1410608 -0.93255287 234 88 12
2.0318978 -0.15604362 -0.93420559 234 88 12
2.0297709 -0.15768392 -0.93751103 234 88 12
2.0302699 -0.15390722 -0.93751103 234 88 12
2.0301387 -0.14044072 -0.94081652 234 88 12
2.025517 -0.16096456 -0.94412196 234 88 12
2.0265148 -0.15341115 -0.94412196 234 88 12
1.1934282 1.351012 -1.3396983 234 88 12
1.1893876 1.3550526 -1.3396983 234 88 12
1.187068 1.3500392 -1.3452808 234 88 12
-0.077555276 1.4110386 -1.7421529 234 88 12
-0.079458244 1.4109559 -1.7421529 234 88 12
-0.090876028 1.4104594 -1.7421529 234 88 12
-0.081291683 1.4092741 -1.7431856 234 88 12
-0.090806507 1.4088604 -1.7431856 234 88 12
-0.018095238 0.11523809 -2.23 234 88 12
-0.0089595346 0.11249194 -2.2073605 234 88 12
-0.010476191 0.10761905 -2.23 234 88 12
-0.0080531863 0.12770054 -2.1260109 234 88 12
-0.0087477537 0.10788896 -2.2197144 234 88 12
-0.027619047 0.10571428 -2.23 234 88 12
-0.0077994769 0.1700286 -1.911055 234 88 12
-0.0072568655 0.11299976 -2.185735 234 88 12
-0.0077903336 0.11908081 -2.145725 234 88 12
-0.010476191 0.10190476 -2.23 234 88 12
-0.012542721 0.10323624 -2.2234671 234 88 12
-0.014285714 0.10190476 -2.23 234 88 12
-0.027619047 0.10190476 -2.23 234 88 12
-0.013195154 0.19792733 -1.7403634 234 88 12
1.1974422 0.13002793 -1.4923345 234 88 12
1.2955942 0.056909628 -1.7785794 234 88 12
1.2868487 0.064894982 -1.7537012 234 88 12
1.2808731 0.071185857 -1.736603 234 88 12
1.2917826 0.058362361 -1.7738396 234 88 12
1.2908036 0.061135318 -1.7708647 234 88 12
1.3027024 0.057188991 -1.8035222 234 88 12
1.2368209 0.10541611 -1.6196016 234 88 12
1.2831162 0.062949963 -1.7558752 234 88 12
1.3027208 0.047267564 -1.8154731 234 88 12
1.2732546 0.070518151 -1.7348244 234 88 12
1.2960552 0.059626605 -1.7964125 234 88 12
1.3031344 0.056782383 -1.8154731 234 88 12
1.2929612 0.043878771 -1.8216692 234 88 12
1.2917758 0.053463113 -1.8227018 234 88 12
1.2896804 0.04211485 -1.8237345 234 88 12
1.2901769 0.053532634 -1.8237345 234 88 12
