ply
format ascii 1.0
element vertex 2306
property float x
property float y
property float z
property uchar red
property uchar green
property uchar blue
end_header
-4.4718299 -0.044055272 5.0389838 234 88 12
-4.4454236 -0.022876384 5.0309882 234 88 12
-4.4280825 0.00040595117 5.0311227 234 88 12
-4.4133754 0.024333742 5.0336394 234 88 12
-4.3977609 0.048059452 5.035347 234 88 12
-4.3843951 0.072370306 5.0391078 234 88 12
-4.3777227 0.098439462 5.0489898 234 88 12
-4.3762026 0.12595063 5.0636344 234 88 12
-4.4871197 -0.036802698 5.0185366 234 88 12
-4.4626822 -0.015128771 5.0123668 234 88 12
-4.4446883 0.0080392035 5.01194 234 88 12
-4.4295301 0.031898148 5.0140595 234 88 12
-4.4159727 0.056176253 5.017633 234 88 12
-4.4026113 0.080537952 5.0214028 234 88 12
-4.3947921 0.10636495 5.0302157 234 88 12
-4.3915377 0.1334731 5.0432239 234 88 12
-4.5064955 -0.028588761 5.001626 234 88 12
-4.4803758 -0.0072664511 4.9940267 234 88 12
-4.461834 0.015813356 4.9931388 234 88 12
-4.4464393 0.039657954 4.995059 234 88 12
-4.4325385 0.063894004 4.9983273 234 88 12
-4.4192157 0.088308111 5.0021329 234 88 12
-4.4097199 0.11374791 5.009407 234 88 12
-4.4078636 0.14126468 5.0236211 234 88 12
-4.5221963 -0.021219555 4.9813499 234 88 12
-4.4979825 0.00058693503 4.9754992 234 88 12
-4.4789252 0.023585515 4.974185 234 88 12
-4.4632154 0.04739574 4.9758372 234 88 12
-4.4479356 0.071329489 4.9778819 234 88 12
-4.4358926 0.096107215 4.9828281 234 88 12
-4.4272299 0.12180787 4.990828 234 88 12
-4.4222927 0.14856674 5.0022178 234 88 12
-4.5433803 -0.012556747 4.9657893 234 88 12
-4.5133386 0.0079156747 4.9548864 234 88 12
-4.4944901 0.030998604 4.953783 234 88 12
-4.4789114 0.054877695 4.9555612 234 88 12
-4.4645905 0.079089627 4.9584632 234 88 12
-4.4520593 0.10378634 4.9629698 234 88 12
-4.4422011 0.12922035 4.9698801 234 88 12
-4.4376888 0.1561318 4.9816008 234 88 12
-4.4455748 0.1864821 5.0044827 234 88 12
-4.5613742 -0.0046269582 4.9473052 234 88 12
-4.5317354 0.015979977 4.9368434 234 88 12
-4.5112171 0.038703363 4.9343109 234 88 12
-4.4955258 0.062596202 4.9360027 234 88 12
-4.4811749 0.086842529 4.9388833 234 88 12
-4.4678917 0.11138987 4.9427218 234 88 12
-4.4575043 0.13672762 4.9491439 234 88 12
-4.4531646 0.16372672 4.9609675 234 88 12
-4.4565105 0.1929066 4.9796944 234 88 12
-4.546876 0.023277044 4.9158578 234 88 12
-4.5274434 0.046296876 4.9143038 234 88 12
-4.5115099 0.070168927 4.9157953 234 88 12
-4.4965801 0.094308406 4.9181728 234 88 12
-4.4832358 0.11887753 4.9219546 234 88 12
-4.4740849 0.14457649 4.9294457 234 88 12
-4.4696236 0.1715911 4.9411144 234 88 12
-4.4721446 0.20060021 4.959023 234 88 12
-4.5639977 0.031058399 4.8964996 234 88 12
-4.5430818 0.053756777 4.8936944 234 88 12
-4.5272245 0.077684306 4.8952627 234 88 12
-4.5126166 0.10194291 4.8979263 234 88 12
-4.4997158 0.12666599 4.9020929 234 88 12
-4.489471 0.15212363 4.9086051 234 88 12
-4.4844298 0.17902668 4.9197149 234 88 12
-4.4858928 0.20779395 4.9366045 234 88 12
-4.580668 0.038742289 4.8766518 234 88 12
-4.5593486 0.061379712 4.873538 234 88 12
-4.542614 0.085128218 4.8743615 234 88 12
-4.5280519 0.1094347 4.8770676 234 88 12
-4.5149083 0.13413294 4.8810177 234 88 12
-4.5049152 0.15969469 4.8877282 234 88 12
-4.4995222 0.18654646 4.8984852 234 88 12
-4.4978576 0.21451253 4.9125581 234 88 12
-4.596508 0.046236441 4.855999 234 88 12
-4.5747786 0.068807475 4.8525724 234 88 12
-4.5589137 0.092808038 4.8541551 234 88 12
-4.544023 0.11707147 4.8565836 234 88 12
-4.5304828 0.14170718 4.860189 234 88 12
-4.5213103 0.1675241 4.867588 234 88 12
-4.5138478 0.1938702 4.8765082 234 88 12
-4.5135422 0.22224362 4.8916941 234 88 12
-4.6155801 0.054521088 4.837996 234 88 12
-4.589839 0.076153472 4.8312087 234 88 12
-4.572691 0.099867247 4.831706 234 88 12
-4.5581846 0.12425758 4.8344631 234 88 12
-4.5468817 0.14950347 4.8399792 234 88 12
-4.5355062 0.17478533 4.8454623 234 88 12
-4.5281749 0.20120199 4.8544583 234 88 12
-4.5266109 0.22927384 4.8684831 234 88 12
-4.6304555 0.061802343 4.8163366 234 88 12
-4.6054468 0.083642803 4.810226 234 88 12
-4.5876923 0.10724024 4.810226 234 88 12
-4.5728397 0.13157706 4.8126903 234 88 12
-4.5609164 0.15669739 4.8176618 234 88 12
-4.5507593 0.18233238 4.8241673 234 88 12
-4.5427365 0.20860398 4.8325353 234 88 12
-4.5406556 0.23657557 4.8460488 234 88 12
-4.6198997 0.09085618 4.788188 234 88 12
-4.6017275 0.11437909 4.7878523 234 88 12
-4.5873537 0.13886847 4.7907209 234 88 12
-4.5751185 0.16394189 4.7954149 234 88 12
-4.5651565 0.18966232 4.802063 234 88 12
-4.557579 0.21608923 4.8107753 234 88 12
-4.5549574 0.24395439 4.8237624 234 88 12
-4.6360612 0.098500311 4.7675018 234 88 12
-4.6162505 0.12164805 4.7658172 234 88 12
-4.6011362 0.14598063 4.7680635 234 88 12
-4.5901661 0.17141381 4.7738075 234 88 12
-4.5806437 0.19728793 4.7808032 234 88 12
-4.5728078 0.22368614 4.7892628 234 88 12
-4.5743604 0.25273311 4.8057284 234 88 12
-4.6270752 0.15621693 4.7554746 234 88 12
-4.6092262 0.17994002 4.7554746 234 88 12
-4.5949378 0.20460626 4.7584586 234 88 12
-4.5883708 0.23138149 4.7679491 234 88 12
-4.6252184 0.18767746 4.7344708 234 88 12
-4.6162858 0.21380432 4.7419181 234 88 12
-4.1032939 -0.31951469 5.5648456 234 88 12
-4.1007109 -0.28798622 5.5477405 234 88 12
-4.0953746 -0.25599977 5.5279293 234 88 12
-4.0936623 -0.22500129 5.5118594 234 88 12
-4.0957394 -0.19497329 5.4996734 234 88 12
-4.1040988 -0.16638689 5.4938455 234 88 12
-4.1148038 -0.1383397 5.4903932 234 88 12
-4.1264739 -0.11051971 5.4879203 234 88 12
-4.1372752 -0.082551748 5.484592 234 88 12
-4.1180348 -0.048837699 5.4513922 234 88 12
-4.0804186 -0.011985893 5.4000964 234 88 12
-4.0970159 0.014464683 5.4027228 234 88 12
-4.1221943 -0.3265864 5.5452328 234 88 12
-4.1158962 -0.29414722 5.5244679 234 88 12
-4.1135273 -0.26279429 5.5077419 234 88 12
-4.1098862 -0.23131974 5.4898152 234 88 12
-4.1091499 -0.20064442 5.4748731 234 88 12
-4.1148367 -0.17147002 5.4664044 234 88 12
-4.1241603 -0.14312814 5.4615936 234 88 12
-4.131608 -0.11445271 5.4549413 234 88 12
-4.1139302 -0.080879189 5.4234161 234 88 12
-4.0690837 -0.042365249 5.3651614 234 88 12
-4.0748768 -0.013925564 5.3571305 234 88 12
-4.0887904 0.012948641 5.3571305 234 88 12
-4.1052189 0.039372999 5.359601 234 88 12
-4.136385 -0.33255473 5.5207806 234 88 12
-4.1330371 -0.30076516 5.5030808 234 88 12
-4.1285706 -0.26889268 5.4843435 234 88 12
-4.1215897 -0.23664285 5.4631844 234 88 12
-4.1160917 -0.20491704 5.4435925 234 88 12
-4.1238084 -0.17618005 5.4371934 234 88 12
-4.1342664 -0.1480722 5.4335341 234 88 12
-4.1233749 -0.11567412 5.408812 234 88 12
-4.0735273 -0.075801261 5.345819 234 88 12
-4.0643516 -0.044383872 5.3230834 234 88 12
-4.054574 -0.013067864 5.2998576 234 88 12
-4.0597396 0.015280136 5.291358 234 88 12
-4.0822735 0.040432967 5.2998576 234 88 12
-4.1302929 0.061211027 5.3331556 234 88 12
-4.151803 -0.3077659 5.4832153 234 88 12
-4.1397018 -0.27410889 5.4569931 234 88 12
-4.1317954 -0.24163572 5.4350405 234 88 12
-4.12641 -0.20992106 5.4156752 234 88 12
-4.1332054 -0.18098016 5.4084034 234 88 12
-4.1369452 -0.15147413 5.3981581 234 88 12
-4.1000195 -0.11380956 5.3480463 234 88 12
-4.076633 -0.079308324 5.3114133 234 88 12
-4.053411 -0.045187321 5.2751012 234 88 12
-4.054882 -0.016079497 5.2630239 234 88 12
-4.0618558 0.011899124 5.2563524 234 88 12
-4.0756717 0.038584132 5.2563524 234 88 12
-4.137455 0.056861918 5.3028183 234 88 12
-4.1710725 -0.31489131 5.4637346 234 88 12
-4.1589026 -0.28115979 5.4375806 234 88 12
-4.1517153 -0.24878953 5.4164457 234 88 12
-4.1453733 -0.21680747 5.3962345 234 88 12
-4.1457524 -0.18645112 5.3826976 234 88 12
-4.1342101 -0.1537433 5.3575654 234 88 12
-4.1093583 -0.11856855 5.3195586 234 88 12
-4.0948005 -0.085804351 5.291739 234 88 12
-4.0618029 -0.049725901 5.24613 234 88 12
-4.0645022 -0.020847904 5.2353172 234 88 12
-4.0731649 0.0068245758 5.2303176 234 88 12
-4.0869861 0.033519436 5.2303176 234 88 12
-4.1497664 0.051609688 5.2774606 234 88 12
-4.184339 -0.28963789 5.4241624 234 88 12
-4.1761475 -0.25695768 5.4021378 234 88 12
-4.1700625 -0.2249507 5.3822665 234 88 12
-4.1602082 -0.19233215 5.3588114 234 88 12
-4.1423535 -0.15827137 5.3276844 234 88 12
-4.1278772 -0.12519978 5.2999701 234 88 12
-4.1181483 -0.093340978 5.2769699 234 88 12
-4.0775657 -0.055698425 5.2242823 234 88 12
-4.0812235 -0.026965968 5.2144432 234 88 12
-4.0914593 0.00045297079 5.2109699 234 88 12
-4.1117659 0.026018061 5.2171712 234 88 12
-4.2247372 0.035311989 5.312036 234 88 12
-4.2186489 -0.3001526 5.4191995 234 88 12
-4.1999521 -0.26499867 5.3870397 234 88 12
-4.1865835 -0.23132262 5.3601909 234 88 12
-4.1732159 -0.19790825 5.3334613 234 88 12
-4.1565771 -0.16406959 5.3036885 234 88 12
-4.1473975 -0.13204405 5.2812357 234 88 12
-4.1447001 -0.10153019 5.2651153 234 88 12
-4.1453199 -0.071819119 5.2522483 234 88 12
-4.1074347 -0.034898579 5.2025666 234 88 12
-4.1122541 -0.0063920645 5.193903 234 88 12
-4.1943727 0.0080195572 5.2589746 234 88 12
-4.2233515 0.032443885 5.273211 234 88 12
-4.2335577 -0.3062568 5.3951497 234 88 12
-4.2145658 -0.27099639 5.3628879 234 88 12
-4.1980648 -0.23659758 5.3331699 234 88 12
-4.186029 -0.20344594 5.307879 234 88 12
-4.1793146 -0.17165595 5.2878079 234 88 12
-4.1714616 -0.13982828 5.2667336 234 88 12
-4.1705356 -0.10959185 5.2523723 234 88 12
-4.1738491 -0.080323726 5.2421174 234 88 12
-4.1795254 -0.051605929 5.2341561 234 88 12
-4.1933584 -0.024484636 5.2339754 234 88 12
-4.2124572 0.0016778713 5.2387853 234 88 12
-4.2388449 0.026595104 5.2504673 234 88 12
-4.2583628 0.052810524 5.2556167 234 88 12
-4.2428942 -0.31109056 5.3656693 234 88 12
-4.2254181 -0.27615589 5.3350606 234 88 12
-4.2133312 -0.24270461 5.3097506 234 88 12
-4.2051406 -0.21033849 5.2882781 234 88 12
-4.2003732 -0.17890163 5.2701659 234 88 12
-4.201282 -0.14880721 5.2575378 234 88 12
-4.2016115 -0.11871984 5.2444143 234 88 12
-4.2051978 -0.089398637 5.2344351 234 88 12
-4.211741 -0.060740355 5.2272964 234 88 12
-4.2223401 -0.03290889 5.2240167 234 88 12
-4.2364063 -0.0057408651 5.2240167 234 88 12
-4.252511 0.021064891 5.2259331 234 88 12
-4.2685504 0.047900528 5.2277799 234 88 12
-4.2891707 0.073981464 5.2339053 234 88 12
-4.2770877 -0.35290286 5.3738227 234 88 12
-4.2496176 -0.31532541 5.3336887 234 88 12
-4.2377548 -0.2816498 5.3086314 234 88 12
-4.2306061 -0.24925825 5.2881742 234 88 12
-4.2261524 -0.21764828 5.2703676 234 88 12
-4.2256107 -0.18703684 5.2563496 234 88 12
-4.2281485 -0.15719673 5.2453065 234 88 12
-4.232161 -0.12776154 5.2357044 234 88 12
-4.2309604 -0.097396381 5.2212319 234 88 12
-4.2354555 -0.068265222 5.2121768 234 88 12
-4.2416601 -0.039542392 5.2047644 234 88 12
-4.2518744 -0.011624235 5.2011385 234 88 12
-4.2649903 0.015741812 5.2002382 234 88 12
-4.2802815 0.042721476 5.2013698 234 88 12
-4.2983112 0.069249079 5.2050433 234 88 12
-4.3034482 -0.39324883 5.3741984 234 88 12
-4.2743063 -0.35491204 5.3325629 234 88 12
-4.2607789 -0.32057717 5.3059592 234 88 12
-4.2522578 -0.28763351 5.2842221 234 88 12
-4.2513762 -0.25658813 5.2698126 234 88 12
-4.252317 -0.22607847 5.2571878 234 88 12
-4.2533631 -0.19571613 5.2447171 234 88 12
-4.2568588 -0.16598198 5.2346048 234 88 12
-4.2587466 -0.13602358 5.2230272 234 88 12
-4.2570462 -0.10547271 5.2081394 234 88 12
-4.2542562 -0.074858584 5.1922984 234 88 12
-4.2591753 -0.045846604 5.183713 234 88 12
-4.2675767 -0.017556457 5.1784053 234 88 12
-4.2789431 0.01015235 5.1758733 234 88 12
-4.2933631 0.037304923 5.1761813 234 88 12
-4.3090506 0.064245559 5.177659 234 88 12
-4.3278661 0.090684034 5.1820168 234 88 12
-4.3265214 -0.43311825 5.3712082 234 88 12
-4.3018146 -0.39548257 5.3338895 234 88 12
-4.2860732 -0.36032754 5.3052258 234 88 12
-4.2796354 -0.32760075 5.2854805 234 88 12
-4.2750988 -0.29550022 5.2676148 234 88 12
-4.2745175 -0.26445076 5.2535481 234 88 12
-4.2765861 -0.23411383 5.2420316 234 88 12
-4.2801514 -0.20420775 5.231967 234 88 12
-4.2814999 -0.17394376 5.2198739 234 88 12
-4.2801423 -0.1432531 5.2053094 234 88 12
-4.2777338 -0.11249912 5.1898293 234 88 12
-4.2755756 -0.08194612 5.1746483 234 88 12
-4.276937 -0.052204989 5.1627946 234 88 12
-4.2833815 -0.023513589 5.1556926 234 88 12
-4.2935314 0.0044445889 5.15204 234 88 12
-4.3063064 0.031908724 5.1508207 234 88 12
-4.3216519 0.058923814 5.151968 234 88 12
-4.3386717 0.08567287 5.1546454 234 88 12
-4.3596425 0.1118113 5.1609268 234 88 12
-4.3576279 -0.47528604 5.3756161 234 88 12
-4.3249626 -0.43532386 5.3308458 234 88 12
-4.3147326 -0.40119955 5.3074374 234 88 12
-4.3055902 -0.36756778 5.2851548 234 88 12
-4.3001323 -0.33501008 5.2664313 234 88 12
-4.2996502 -0.30376413 5.2524524 234 88 12
-4.3017902 -0.27323824 5.2409868 234 88 12
-4.3027501 -0.24257202 5.2284698 234 88 12
-4.3072495 -0.21278016 5.2193027 234 88 12
-4.3043623 -0.18155076 5.2033129 234 88 12
-4.301126 -0.15040991 5.1870685 234 88 12
-4.2991548 -0.11968084 5.1720653 234 88 12
-4.2971487 -0.089093804 5.1570935 234 88 12
-4.2960596 -0.058827888 5.1430311 234 88 12
-4.3008952 -0.029791486 5.1344743 234 88 12
-4.3093266 -0.0014850831 5.129252 234 88 12
-4.320838 0.026230861 5.1268706 234 88 12
-4.3347621 0.053511977 5.1267023 234 88 12
-4.3511496 0.080382332 5.1287799 234 88 12
-4.3680778 0.10718556 5.13134 234 88 12
-4.3715224 -0.51344603 5.3635054 234 88 12
-4.3510094 -0.47618344 5.330318 234 88 12
-4.3397336 -0.4415243 5.3059559 234 88 12
-4.3328152 -0.40816081 5.2857866 234 88 12
-4.326014 -0.37502995 5.2658148 234 88 12
-4.3250232 -0.34344304 5.2513537 234 88 12
-4.3247609 -0.31216735 5.2376347 234 88 12
-4.3343501 -0.28321159 5.2331305 234 88 12
-4.3487754 -0.25534958 5.2331305 234 88 12
-4.3382506 -0.22219579 5.2100444 234 88 12
-4.3414011 -0.19211063 5.1996846 234 88 12
-4.3225656 -0.15766972 5.1691141 234 88 12
-4.3201423 -0.12678754 5.1537628 234 88 12
-4.3190694 -0.096320018 5.1397171 234 88 12
-4.3190374 -0.066188946 5.1266837 234 88 12
-4.3195477 -0.036287326 5.114202 234 88 12
-4.3259158 -0.0075638462 5.1071124 234 88 12
-4.3361168 0.020416772 5.1035395 234 88 12
-4.3485975 0.04797234 5.1020503 234 88 12
-4.3631082 0.075175054 5.1024065 234 88 12
-4.3792176 0.10212217 5.1042051 234 88 12
-4.3980374 0.12865946 5.1084414 234 88 12
-4.3970423 -0.55482787 5.3621769 234 88 12
-4.3711843 -0.5158692 5.3240471 234 88 12
-4.3629203 -0.4817073 5.3025489 234 88 12
-4.35531 -0.44792658 5.2817559 234 88 12
-4.3516493 -0.41530976 5.2647343 234 88 12
-4.3500423 -0.38335153 5.2496963 234 88 12
-4.3494081 -0.35177159 5.2356267 234 88 12
-4.3550596 -0.32175878 5.2274361 234 88 12
-4.3695407 -0.29378814 5.2274361 234 88 12
-4.4602304 -0.28236854 5.2976656 234 88 12
-4.3450618 -0.16515493 5.1519871 234 88 12
-4.3421025 -0.13409807 5.1362157 234 88 12
-4.3413491 -0.10362738 5.1225228 234 88 12
-4.3412671 -0.073420763 5.109499 234 88 12
-4.3420181 -0.043498237 5.0972877 234 88 12
-4.3446407 -0.014035134 5.0868239 234 88 12
-4.351397 0.014596663 5.0801406 234 88 12
-4.3627419 0.042375199 5.0776243 234 88 12
-4.3762136 0.06977357 5.0770335 234 88 12
-4.3913407 0.09689685 5.0779319 234 88 12
-4.407814 0.12381617 5.0800328 234 88 12
-4.4282827 0.15014166 5.0856986 234 88 12
-4.404665 -0.59178352 5.3438606 234 88 12
-4.3906474 -0.5556336 5.3169179 234 88 12
-4.3838139 -0.52159876 5.2967896 234 88 12
-4.3797517 -0.48846686 5.2793274 234 88 12
-4.375402 -0.45544428 5.2616749 234 88 12
-4.3743005 -0.42338678 5.2471075 234 88 12
-4.3750196 -0.39190927 5.2342858 234 88 12
-4.3793817 -0.36140701 5.2248774 234 88 12
-4.3939271 -0.33331239 5.2248774 234 88 12
-4.3645878 -0.14152446 5.1190004 234 88 12
-4.3667493 -0.11155353 5.1080074 234 88 12
-4.365828 -0.081107438 5.094275 234 88 12
-4.3657341 -0.050952431 5.0813475 234 88 12
-4.3654375 -0.020890169 5.0682926 234 88 12
-4.3685398 0.0084420647 5.0583463 234 88 12
-4.3773532 0.036692996 5.0535617 234 88 12
-4.3898845 0.064273469 5.0521226 234 88 12
-4.4045076 0.091498502 5.052557 234 88 12
-4.4197426 0.11863075 5.053535 234 88 12
-4.4365473 0.14553054 5.0559034 234 88 12
-4.4563355 0.17200644 5.0609083 234 88 12
-4.4064116 -0.5946728 5.3061604 234 88 12
-4.401454 -0.56091297 5.2878127 234 88 12
-4.3997879 -0.52818662 5.272594 234 88 12
-4.3962054 -0.49513713 5.2556715 234 88 12
-4.3974538 -0.46345297 5.2432775 234 88 12
-4.3991451 -0.432004 5.2313457 234 88 12
-4.4031105 -0.4012166 5.2215528 234 88 12
-4.4142642 -0.37219843 5.2183881 234 88 12
-4.3952966 -0.12010801 5.0961432 234 88 12
-4.3901019 -0.088753402 5.07862 234 88 12
-4.3900118 -0.058524407 5.0657473 234 88 12
-4.3901081 -0.028458733 5.0530963 234 88 12
-4.389111 0.0016734351 5.0395236 234 88 12
-4.3937588 0.030696191 5.0310359 234 88 12
-4.4049306 0.058537986 5.0283842 234 88 12
-4.4174337 0.086135626 5.0269246 234 88 12
-4.4315791 0.11345734 5.0269246 234 88 12
-4.446876 0.14060085 5.0279417 234 88 12
-4.4632001 0.16759993 5.0298595 234 88 12
-4.4190254 -0.60044682 5.2785983 234 88 12
-4.4196763 -0.56812972 5.265533 234 88 12
-4.4170828 -0.53511786 5.2495394 234 88 12
-4.4159961 -0.50265181 5.2349992 234 88 12
-4.4180856 -0.47112095 5.2234335 234 88 12
-4.4260368 -0.44112849 5.2172771 234 88 12
-4.436286 -0.41174504 5.213244 234 88 12
-4.4125781 -0.065791234 5.0484538 234 88 12
-4.4133124 -0.035775062 5.0364242 234 88 12
-4.4137006 -0.0058187577 5.0241385 234 88 12
-4.413198 0.02416786 5.011116 234 88 12
-4.4195156 0.052874621 5.0041733 234 88 12
-4.4304447 0.080755211 5.0013247 234 88 12
-4.443409 0.10828242 5.0002785 234 88 12
-4.4577198 0.13559008 5.0004191 234 88 12
-4.4729052 0.16276716 5.0013247 234 88 12
-4.489428 0.1897573 5.003396 234 88 12
-4.4335251 -0.60672528 5.2527332 234 88 12
-4.4343619 -0.57442796 5.2399111 234 88 12
-4.4372444 -0.54279053 5.2290154 234 88 12
-4.4398146 -0.51118875 5.2178831 234 88 12
-4.4462624 -0.48066178 5.21033 234 88 12
-4.4591312 -0.45176974 5.208643 234 88 12
-4.4355311 -0.042924579 5.0187254 234 88 12
-4.4341617 -0.012591046 5.0049424 234 88 12
-4.4343991 0.017324347 4.9926319 234 88 12
-4.435802 0.046918627 4.9813957 234 88 12
-4.4442406 0.075241946 4.9763708 234 88 12
-4.4551373 0.10312109 4.9735155 234 88 12
-4.4684334 0.13059793 4.9727645 234 88 12
-4.4834423 0.15780793 4.9735084 234 88 12
-4.498837 0.18496861 4.9745841 234 88 12
-4.5184178 0.21154264 4.9792843 234 88 12
-4.4516368 -0.58140796 5.216588 234 88 12
-4.4570446 -0.55037826 5.2080407 234 88 12
-4.4648333 -0.52003938 5.2016902 234 88 12
-4.4773464 -0.49093649 5.1996417 234 88 12
-4.4587989 -0.050277825 5.0018029 234 88 12
-4.4576869 -0.019920275 4.9883065 234 88 12
-4.4546785 0.010629833 4.9732089 234 88 12
-4.4544654 0.040553033 4.9606137 234 88 12
-4.4591737 0.069536492 4.9523559 234 88 12
-4.4689693 0.097619422 4.9485512 234 88 12
-4.4803853 0.1254108 4.946167 234 88 12
-4.4939618 0.15284997 4.9456625 234 88 12
-4.5089898 0.18007 4.9464121 234 88 12
-4.5252428 0.20712203 4.9482145 234 88 12
-4.4816937 -0.5592218 5.1913266 234 88 12
-4.4936209 -0.52985364 5.1887145 234 88 12
-4.4795027 -0.026957136 4.9700241 234 88 12
-4.4776421 0.0034568871 4.955996 234 88 12
-4.4752827 0.033812501 4.9415946 234 88 12
-4.4765482 0.06342157 4.9303894 234 88 12
-4.4837866 0.091954485 4.9243865 234 88 12
-4.4935303 0.1200339 4.920567 234 88 12
-4.5056877 0.14770688 4.9188385 234 88 12
-4.5198522 0.17506529 4.9188385 234 88 12
-4.5348883 0.20229845 4.9195843 234 88 12
-4.5496402 0.2295787 4.920085 234 88 12
-4.4968958 -0.00308047 4.93543 234 88 12
-4.4981236 0.026716081 4.924191 234 88 12
-4.4957657 0.056992818 4.9099178 234 88 12
-4.4993515 0.086163335 4.9008017 234 88 12
-4.5069351 0.11461235 4.8951464 234 88 12
-4.5173388 0.14257275 4.891923 234 88 12
-4.5302505 0.17012793 4.8908505 234 88 12
-4.5445905 0.19746622 4.8909979 234 88 12
-4.5587697 0.2248285 4.8910084 234 88 12
-4.5739694 0.25205246 4.8918824 234 88 12
-4.519043 -0.010134265 4.9172354 234 88 12
-4.519959 0.019778641 4.9057779 234 88 12
-4.5176821 0.050105218 4.8916421 234 88 12
-4.5174756 0.079951182 4.8793292 234 88 12
-4.5210671 0.10907193 4.8702984 234 88 12
-4.5294862 0.13736005 4.8654022 234 88 12
-4.5405874 0.16519848 4.8627982 234 88 12
-4.5537944 0.19270563 4.8619847 234 88 12
-4.5679469 0.22007167 4.8619723 234 88 12
-4.5821142 0.24743563 4.8619723 234 88 12
-4.5406599 0.013023689 4.8862629 234 88 12
-4.538528 0.043384332 4.8723192 234 88 12
-4.5376139 0.073403001 4.8594656 234 88 12
-4.5381064 0.10306683 4.8478537 234 88 12
-4.5426044 0.13199505 4.8396683 234 88 12
-4.5518918 0.16012323 4.8355474 234 88 12
-4.5636687 0.1878476 4.8335347 234 88 12
-4.576498 0.21540312 4.8324118 234 88 12
-4.5906639 0.24276452 4.8324118 234 88 12
-4.5568147 0.037080783 4.8507128 234 88 12
-4.5570436 0.066959888 4.8388872 234 88 12
-4.5564041 0.096854478 4.8263812 234 88 12
-4.5585461 0.12619048 4.816258 234 88 12
-4.5645485 0.15484294 4.8094049 234 88 12
-4.5750484 0.18276952 4.8063331 234 88 12
-4.5869894 0.21046072 4.8044744 234 88 12
-4.6011581 0.2378273 4.8044744 234 88 12
-4.5738893 0.060929608 4.8160381 234 88 12
-4.5743437 0.090690248 4.804512 234 88 12
-4.5757952 0.12017682 4.7938643 234 88 12
-4.5819554 0.14884432 4.7871718 234 88 12
-4.5899758 0.1771705 4.7820501 234 88 12
-4.6039424 0.2045999 4.7818689 234 88 12
-4.6213145 0.23155847 4.7845011 234 88 12
-4.592761 0.054559689 4.7947907 234 88 12
-4.5934362 0.084333584 4.7835054 234 88 12
-4.5942521 0.11396781 4.7723827 234 88 12
-4.5964808 0.14327274 4.7624722 234 88 12
-4.6040273 0.17169435 4.7569842 234 88 12
-4.6163344 0.19938093 4.7554317 234 88 12
-4.6325188 0.22651562 4.7570667 234 88 12
-4.6156225 0.077472016 4.7649407 234 88 12
-4.6207347 0.10649929 4.7573991 234 88 12
-4.6144185 0.13717896 4.7405152 234 88 12
-4.6256099 0.16510466 4.7380309 234 88 12
-4.6400142 0.19254519 4.7381811 234 88 12
-3.8923938 -0.41428384 5.9888754 234 88 12
-3.9298308 -0.44933334 5.925621 234 88 12
-3.9097679 -0.42506659 5.9305964 234 88 12
-3.8968472 -0.39950955 5.9464288 234 88 12
-3.8765953 -0.37516835 5.9512548 234 88 12
-3.8628626 -0.34957704 5.966083 234 88 12
-3.9669266 -0.45665792 5.8975697 234 88 12
-3.9421551 -0.43320811 5.8954487 234 88 12
-3.9206936 -0.40920025 5.8982663 234 88 12
-3.9022191 -0.38463956 5.9056029 234 88 12
-3.8885009 -0.3591527 5.9201937 234 88 12
-3.874393 -0.33363545 5.9343238 234 88 12
-3.9802694 -0.44036114 5.8690076 234 88 12
-3.9551208 -0.41699937 5.8663154 234 88 12
-3.9341881 -0.39291561 5.8698759 234 88 12
-3.9160578 -0.36829919 5.8776579 234 88 12
-3.9001479 -0.34321335 5.8888435 234 88 12
-3.8877232 -0.31737888 5.9053879 234 88 12
-3.8839116 -0.28972664 5.9351335 234 88 12
-3.9926538 -0.42424557 5.8391089 234 88 12
-3.9687402 -0.40069956 5.838222 234 88 12
-3.9475555 -0.37667298 5.8413649 234 88 12
-3.9288812 -0.35216293 5.8482652 234 88 12
-3.9133623 -0.32700694 5.8599367 234 88 12
-3.9021311 -0.30093336 5.8781414 234 88 12
-3.8946092 -0.27398676 5.9020953 234 88 12
-4.0064821 -0.4079088 5.8114009 234 88 12
-3.9829659 -0.38431168 5.81108 234 88 12
-3.9615922 -0.36032909 5.8139067 234 88 12
-3.9429796 -0.33581188 5.8208356 234 88 12
-3.9264667 -0.31084239 5.8309402 234 88 12
-3.9151051 -0.28478497 5.8488107 234 88 12
-3.9075232 -0.25783247 5.872498 234 88 12
-4.0491295 -0.41427991 5.7917376 234 88 12
-4.0196013 -0.39171204 5.7827253 234 88 12
-3.9963219 -0.36809415 5.7827253 234 88 12
-3.9749639 -0.34412345 5.785533 234 88 12
-3.9562023 -0.31964216 5.7921762 234 88 12
-3.9398875 -0.2946375 5.8024855 234 88 12
-3.9273293 -0.26880816 5.818449 234 88 12
-3.9219933 -0.24138172 5.8452964 234 88 12
-4.0598125 -0.39848295 5.7596102 234 88 12
-4.0318332 -0.37569216 5.7528424 234 88 12
-4.0092797 -0.35196823 5.7538614 234 88 12
-3.988692 -0.32787091 5.7577448 234 88 12
-3.9702156 -0.3033413 5.7647414 234 88 12
-3.9528012 -0.2785517 5.773356 234 88 12
-3.9409633 -0.25257203 5.7902527 234 88 12
-3.9374166 -0.22474743 5.8195553 234 88 12
-4.0714107 -0.38256073 5.7289004 234 88 12
-4.0448418 -0.35955888 5.7241578 234 88 12
-4.0225506 -0.33580622 5.7255225 234 88 12
-4.0019641 -0.31172186 5.7293596 234 88 12
-3.9835999 -0.28717846 5.7364511 234 88 12
-3.9671912 -0.26219338 5.7464528 234 88 12
-3.9551442 -0.23624207 5.7629218 234 88 12
-3.952337 -0.20822814 5.7931094 234 88 12
-4.0839276 -0.36650535 5.6995873 234 88 12
-4.0577397 -0.34346649 5.6953883 234 88 12
-4.0355134 -0.31972104 5.6968112 234 88 12
-4.015451 -0.29555136 5.7013497 234 88 12
-3.9978983 -0.27085504 5.7095451 234 88 12
-3.9811137 -0.24594344 5.7189231 234 88 12
-3.9689648 -0.22000203 5.7351213 234 88 12
-3.9663703 -0.19190919 5.7654109 234 88 12
-4.0966811 -0.35043123 5.6706862 234 88 12
-4.0716581 -0.32720837 5.6681333 234 88 12
-4.049027 -0.30355307 5.6689534 234 88 12
-4.0285764 -0.2794691 5.6728897 234 88 12
-4.0106287 -0.25485799 5.6804438 234 88 12
-3.9945109 -0.22981702 5.6906958 234 88 12
-3.9837382 -0.20357907 5.7087579 234 88 12
-3.9813507 -0.17540267 5.7391448 234 88 12
-4.1091361 -0.33443293 5.6414428 234 88 12
-4.0842223 -0.31121802 5.6390305 234 88 12
-4.0616865 -0.2875663 5.6399531 234 88 12
-4.0423141 -0.26328677 5.6453657 234 88 12
-4.0242934 -0.23869465 5.6527491 234 88 12
-4.0073647 -0.21382171 5.6617579 234 88 12
-3.9973845 -0.18740717 5.6808195 234 88 12
-3.9976821 -0.15861344 5.7148671 234 88 12
-4.120553 -0.31864831 5.6108341 234 88 12
-4.0963497 -0.29533258 5.609396 234 88 12
-4.0748625 -0.2715016 5.611753 234 88 12
-4.0554204 -0.24724658 5.6170111 234 88 12
-4.0374107 -0.22266006 5.6243405 234 88 12
-4.0203233 -0.19782576 5.6330433 234 88 12
-4.0111947 -0.17121759 5.6531768 234 88 12
-4.1438246 -0.32841974 5.5647798 234 88 12
-4.1207733 -0.30497289 5.5648499 234 88 12
-4.1015344 -0.28079757 5.57021 234 88 12
-4.0857058 -0.25591367 5.5803695 234 88 12
-4.0681028 -0.23131138 5.5881319 234 88 12
-4.0504327 -0.20666479 5.5958676 234 88 12
-4.0337281 -0.18175569 5.6050324 234 88 12
-4.0234494 -0.15538216 5.6233883 234 88 12
-4.1829772 -0.33527422 5.540833 234 88 12
-4.1566877 -0.31242579 5.5364676 234 88 12
-4.133924 -0.28894562 5.5369077 234 88 12
-4.1138673 -0.26493847 5.5410852 234 88 12
-4.0971742 -0.24023235 5.5499573 234 88 12
-4.0794563 -0.21566857 5.5574794 234 88 12
-4.0620522 -0.19098265 5.565505 234 88 12
-4.0465512 -0.1658285 5.5762691 234 88 12
-4.0365791 -0.13937862 5.5949173 234 88 12
-4.1947112 -0.31947634 5.5110574 234 88 12
-4.1699367 -0.29638079 5.5087476 234 88 12
-4.1464787 -0.27305111 5.5082164 234 88 12
-4.1250205 -0.24933361 5.5104218 234 88 12
-4.1092 -0.22446625 5.5204062 234 88 12
-4.0920506 -0.19979778 5.5286398 234 88 12
-4.0742931 -0.17519572 5.5360985 234 88 12
-4.0593028 -0.14993745 5.5474801 234 88 12
-4.049943 -0.12334242 5.5668449 234 88 12
-4.2088304 -0.30326742 5.4845767 234 88 12
-4.1838012 -0.28023818 5.4819217 234 88 12
-4.1598935 -0.25701195 5.4807658 234 88 12
-4.1367559 -0.23364168 5.4806495 234 88 12
-4.1136651 -0.21026282 5.4805961 234 88 12
-4.103951 -0.18409337 5.4989214 234 88 12
-4.0888338 -0.15894035 5.5099478 234 88 12
-4.0732293 -0.13380994 5.5203934 234 88 12
-4.0640111 -0.10716636 5.5398169 234 88 12
-4.4200363 -0.60385805 5.3279672 234 88 12
-4.3998828 -0.58055878 5.3311458 234 88 12
-4.3870778 -0.55625719 5.3437481 234 88 12
-4.3842745 -0.53048629 5.3692932 234 88 12
-4.259923 -0.30794379 5.4766831 234 88 12
-4.2220502 -0.28723931 5.4569411 234 88 12
-4.1975503 -0.26413271 5.4549918 234 88 12
-4.1749215 -0.24067447 5.4555497 234 88 12
-4.1533465 -0.21700054 5.4575386 234 88 12
-4.1302962 -0.19361527 5.4575386 234 88 12
-4.1073155 -0.17021538 5.457633 234 88 12
-4.0998759 -0.14345357 5.4790416 234 88 12
-4.0867729 -0.11778236 5.4928327 234 88 12
-4.0776906 -0.091093026 5.5123034 234 88 12
-4.4563375 -0.61078131 5.3019691 234 88 12
-4.4308047 -0.58818257 5.298316 234 88 12
-4.4099684 -0.56499326 5.3005819 234 88 12
-4.3934898 -0.54119593 5.3084059 234 88 12
-4.3810778 -0.51677161 5.3214822 234 88 12
-4.367218 -0.49246281 5.332808 234 88 12
-4.3531737 -0.46809974 5.3439865 234 88 12
-4.3372192 -0.44395015 5.352787 234 88 12
-4.3207836 -0.4198128 5.3610349 234 88 12
-4.3033628 -0.3957763 5.3680673 234 88 12
-4.2861128 -0.3716594 5.3753791 234 88 12
-4.3185196 -0.33887935 5.4479442 234 88 12
-4.247632 -0.29655156 5.4152412 234 88 12
-4.2229571 -0.27354553 5.4130001 234 88 12
-4.2023439 -0.24977201 5.4161615 234 88 12
-4.1847625 -0.22537403 5.4234128 234 88 12
-4.1657085 -0.20122036 5.4287429 234 88 12
-4.147253 -0.17690144 5.4349265 234 88 12
-4.1242228 -0.15351191 5.4349537 234 88 12
-4.1012583 -0.13010786 5.43507 234 88 12
-4.1019077 -0.10141519 5.4675097 234 88 12
-4.0925817 -0.074758157 5.4865141 234 88 12
-4.4674377 -0.59506017 5.2728271 234 88 12
-4.443542 -0.57228166 5.2712216 234 88 12
-4.4222074 -0.54917222 5.2728271 234 88 12
-4.405767 -0.52537435 5.2806311 234 88 12
-4.3921928 -0.50111079 5.2921338 234 88 12
-4.3776507 -0.47690663 5.3024945 234 88 12
-4.3627744 -0.45267794 5.31251 234 88 12
-4.3467841 -0.42855057 5.3211761 234 88 12
-4.3296032 -0.40455192 5.3283763 234 88 12
-4.3110914 -0.38072151 5.3339114 234 88 12
-4.2928858 -0.35679775 5.33989 234 88 12
-4.2740073 -0.33294791 5.3450394 234 88 12
-4.2548914 -0.30910257 5.3499193 234 88 12
-4.2364182 -0.28510144 5.3556852 234 88 12
-4.218976 -0.26086059 5.3628602 234 88 12
-4.202054 -0.23646381 5.3707857 234 88 12
-4.1834264 -0.21234907 5.3765039 234 88 12
-4.1647129 -0.18820846 5.3821554 234 88 12
-4.1481867 -0.16356382 5.3907919 234 88 12
-4.1313419 -0.13892159 5.3990722 234 88 12
-4.1146135 -0.11418986 5.4075794 234 88 12
-4.110642 -0.086505488 5.4335117 234 88 12
-4.1029563 -0.059479743 5.4545913 234 88 12
-4.4809761 -0.57905602 5.2467952 234 88 12
-4.457078 -0.55629486 5.2451811 234 88 12
-4.4373207 -0.53298128 5.2487359 234 88 12
-4.4188776 -0.50945705 5.2539697 234 88 12
-4.405632 -0.48513976 5.2658005 234 88 12
-4.3904123 -0.46103212 5.2752252 234 88 12
-4.3755717 -0.43679702 5.2852068 234 88 12
-4.3594408 -0.41269401 5.2936211 234 88 12
-4.3418207 -0.38877299 5.3001947 234 88 12
-4.3239594 -0.36484405 5.3065104 234 88 12
-4.3050551 -0.34104905 5.3115296 234 88 12
-4.285943 -0.31725356 5.3163209 234 88 12
-4.2662888 -0.2935214 5.3204446 234 88 12
-4.2473884 -0.26961657 5.3255882 234 88 12
-4.2279859 -0.24576978 5.3301144 234 88 12
-4.2093105 -0.22174472 5.3356366 234 88 12
-4.1907287 -0.19765861 5.3413286 234 88 12
-4.1715398 -0.17365526 5.3462605 234 88 12
-4.1500511 -0.15010409 5.3481636 234 88 12
-4.1283236 -0.12659034 5.3497624 234 88 12
-4.1064744 -0.10309136 5.3512115 234 88 12
-4.083889 -0.079749487 5.3516769 234 88 12
-4.0638919 -0.05579843 5.3556609 234 88 12
-4.0523238 -0.029799504 5.3711705 234 88 12
-4.4976044 -0.5626663 5.2246218 234 88 12
-4.4737024 -0.53990877 5.2230124 234 88 12
-4.4524879 -0.51679027 5.2247343 234 88 12
-4.4355221 -0.49305108 5.2317743 234 88 12
-4.4223037 -0.46870694 5.2435689 234 88 12
-4.4062171 -0.44471329 5.2518458 234 88 12
-4.3911753 -0.42049482 5.2615094 234 88 12
-4.3742747 -0.39650548 5.2688909 234 88 12
-4.3571677 -0.37249565 5.2760692 234 88 12
-4.3390937 -0.34859785 5.2820678 234 88 12
-4.3200746 -0.32482147 5.286901 234 88 12
-4.3006129 -0.30108869 5.2912035 234 88 12
-4.2812228 -0.27731034 5.2956328 234 88 12
-4.2621579 -0.25343651 5.3005214 234 88 12
-4.2423334 -0.22967391 5.3044591 234 88 12
-4.2231946 -0.20574398 5.3093271 234 88 12
-4.2048421 -0.18161541 5.3152699 234 88 12
-4.1850677 -0.15774018 5.3193836 234 88 12
-4.1644444 -0.13401614 5.3224049 234 88 12
-4.1421642 -0.11063422 5.3232441 234 88 12
-4.1201591 -0.087183587 5.3244586 234 88 12
-4.0853186 -0.06668859 5.3084369 234 88 12
-4.0552487 -0.045192152 5.298717 234 88 12
-4.0407972 -0.019998835 5.3100781 234 88 12
-4.0468364 0.01034465 5.3494196 234 88 12
-4.4935942 -0.52307642 5.2048693 234 88 12
-4.4728661 -0.49987134 5.2071972 234 88 12
-4.4574194 -0.47588038 5.2160997 234 88 12
-4.4417982 -0.45185035 5.2248549 234 88 12
-4.4255395 -0.42785451 5.2328815 234 88 12
-4.4089904 -0.40384564 5.2406063 234 88 12
-4.3914976 -0.37993422 5.2472029 234 88 12
-4.3740163 -0.35597172 5.2538662 234 88 12
-4.3557568 -0.33209437 5.259594 234 88 12
-4.3366632 -0.30832267 5.2643027 234 88 12
-4.3173118 -0.28456265 5.2687192 234 88 12
-4.2979202 -0.26077682 5.2731194 234 88 12
-4.2786207 -0.23693967 5.2776752 234 88 12
-4.2591457 -0.21310256 5.2820396 234 88 12
-4.2394552 -0.18927567 5.2861595 234 88 12
-4.220377 -0.16528994 5.2911143 234 88 12
-4.2010508 -0.14131863 5.295784 234 88 12
-4.1808214 -0.11750783 5.2993021 234 88 12
-4.1586866 -0.094094358 5.3003263 234 88 12
-4.1209974 -0.074221224 5.2806749 234 88 12
-4.090889 -0.052733548 5.2709818 234 88 12
-4.0676579 -0.029681286 5.2704291 234 88 12
-4.0453138 -0.0064170817 5.2710662 234 88 12
-4.0293713 0.018447919 5.2803655 234 88 12
-4.4683571 -0.43390259 5.2148514 234 88 12
-4.4495668 -0.41024387 5.2197289 234 88 12
-4.4307847 -0.38654751 5.2246561 234 88 12
-4.4119339 -0.36282593 5.2295356 234 88 12
-4.3936691 -0.33896753 5.2351913 234 88 12
-4.3745394 -0.31521872 5.2397995 234 88 12
-4.355341 -0.29144752 5.2443571 234 88 12
-4.3353024 -0.26779762 5.2478809 234 88 12
-4.3160496 -0.24397133 5.252439 234 88 12
-4.2969332 -0.22008368 5.2572083 234 88 12
-4.2768302 -0.19635676 5.260745 234 88 12
-4.2578669 -0.17236897 5.2657862 234 88 12
-4.2386103 -0.14840384 5.2704873 234 88 12
-4.2188673 -0.12450682 5.2745919 234 88 12
-4.1978993 -0.10084744 5.2771254 234 88 12
-4.1756139 -0.077464975 5.277946 234 88 12
-4.1314015 -0.059129 5.2497954 234 88 12
-4.1062255 -0.03652915 5.2466726 234 88 12
-4.0833616 -0.013396981 5.2466044 234 88 12
-4.0605998 0.0097597223 5.2466726 234 88 12
-4.0413899 0.033810548 5.2515149 234 88 12
-4.4951982 -0.30774745 5.3188996 234 88 12
-4.4671474 -0.28517905 5.3126965 234 88 12
-4.3798881 -0.27348962 5.2317834 234 88 12
-4.3583126 -0.25008431 5.2333803 234 88 12
-4.3384776 -0.22633171 5.2372017 234 88 12
-4.3179927 -0.20267804 5.2402248 234 88 12
-4.2987509 -0.17874955 5.2448654 234 88 12
-4.2787223 -0.15494813 5.2485323 234 88 12
-4.2591562 -0.13102019 5.2528253 234 88 12
-4.237988 -0.10740688 5.2550764 234 88 12
-4.215981 -0.083962604 5.2562528 234 88 12
-4.1940331 -0.060495622 5.2575164 234 88 12
-4.1705923 -0.037366185 5.2568297 234 88 12
-4.1230078 -0.019987453 5.2242932 234 88 12
-4.1001439 0.0031445611 5.224226 234 88 12
-4.0773807 0.026301119 5.2242918 234 88 12
-4.0594702 0.050689969 5.2308393 234 88 12
-4.4495668 -0.21936922 5.3046613 234 88 12
-4.3646111 -0.20794339 5.2265596 234 88 12
-4.3409753 -0.18486837 5.2256145 234 88 12
-4.3190789 -0.16144444 5.2268782 234 88 12
-4.2988582 -0.13765948 5.2302942 234 88 12
-4.2781906 -0.11394375 5.2331643 234 88 12
-4.2584953 -0.089991882 5.2373118 234 88 12
-4.2392178 -0.065913476 5.2420344 234 88 12
-4.2176294 -0.04232895 5.2437916 234 88 12
-4.1933126 -0.019371787 5.2420025 234 88 12
-4.1701336 0.003844456 5.2416892 234 88 12
-4.1175261 0.019833447 5.2026372 234 88 12
-4.1029339 0.045042414 5.2135062 234 88 12
-4.4395914 -0.17987636 5.2771168 234 88 12
-4.3592129 -0.16798905 5.2049274 234 88 12
-4.3353872 -0.14495544 5.2037477 234 88 12
-4.3134255 -0.12153599 5.2049274 234 88 12
-4.2928038 -0.097816505 5.2078271 234 88 12
-4.2737794 -0.073719576 5.2127972 234 88 12
-4.2551517 -0.049493201 5.2183185 234 88 12
-4.2361727 -0.025304619 5.2234311 234 88 12
-4.2176661 -0.00096306688 5.2291994 234 88 12
-4.2020507 0.024125921 5.2387819 234 88 12
-4.1946583 0.051329378 5.259201 234 88 12
-4.459343 -0.16256219 5.257854 234 88 12
-4.3729887 -0.15201548 5.1786265 234 88 12
-4.3495631 -0.12891531 5.1779418 234 88 12
-4.3278394 -0.10545582 5.1794019 234 88 12
-4.3079281 -0.081587456 5.1831727 234 88 12
-4.2886615 -0.057544727 5.1877947 234 88 12
-4.2704377 -0.033225909 5.1937885 234 88 12
-4.2518463 -0.0089455638 5.1993594 234 88 12
-4.2346811 0.015721258 5.2068152 234 88 12
-4.2234445 0.041899387 5.2220082 234 88 12
-4.4792867 -0.14519672 5.2387877 234 88 12
-4.3886514 -0.13566585 5.1547232 234 88 12
-4.3651795 -0.1125825 5.1539788 234 88 12
-4.3435149 -0.089113586 5.1554976 234 88 12
-4.3232851 -0.06531474 5.1588383 234 88 12
-4.3048263 -0.041088175 5.1644468 234 88 12
-4.2863665 -0.016817 5.1701002 234 88 12
-4.2682405 0.0075785881 5.1762261 234 88 12
-4.2522726 0.032545581 5.1851678 234 88 12
-4.2418051 0.058943678 5.201261 234 88 12
-4.4047103 -0.11923879 5.1313276 234 88 12
-4.3818364 -0.096032582 5.1313276 234 88 12
-4.3598351 -0.072635487 5.1324162 234 88 12
-4.3400273 -0.048738763 5.1362624 234 88 12
-4.3217387 -0.024463648 5.1420507 234 88 12
-4.3032317 -0.00019317184 5.1476102 234 88 12
-4.2851763 0.024230102 5.1537881 234 88 12
-4.2704878 0.049525235 5.1643043 234 88 12
-4.2620111 0.076454282 5.1828504 234 88 12
-4.4231896 -0.10230379 5.1109223 234 88 12
-4.3995419 -0.079256862 5.1099739 234 88 12
-4.3779645 -0.055759717 5.1115861 234 88 12
-4.3593621 -0.03157717 5.1169162 234 88 12
-4.3395367 -0.0076342989 5.1207604 234 88 12
-4.3209863 0.016640529 5.126236 234 88 12
-4.3028917 0.041069768 5.1323309 234 88 12
-4.2891169 0.066612668 5.1439433 234 88 12
-4.2816935 0.093847834 5.1637235 234 88 12
-4.4231596 -0.061185841 5.0958672 234 88 12
-4.4002552 -0.037948702 5.0958672 234 88 12
-4.3780527 -0.014551429 5.0967355 234 88 12
-4.358192 0.009399211 5.1005211 234 88 12
-4.3387637 0.033483669 5.104877 234 88 12
-4.3204083 0.057864767 5.1106124 234 88 12
-4.308558 0.083909564 5.1245775 234 88 12
-4.4635797 -0.067671165 5.0742087 234 88 12
-4.4396491 -0.044657256 5.0729594 234 88 12
-4.4167466 -0.021421563 5.0729594 234 88 12
-4.3948593 0.0020482605 5.0742087 234 88 12
-4.3758154 0.026197784 5.07898 234 88 12
-4.3566437 0.050355591 5.0836315 234 88 12
-4.3386183 0.074832976 5.0897474 234 88 12
-4.3290672 0.10148539 5.1065073 234 88 12
-4.4784045 -0.051503126 5.0492892 234 88 12
-4.4549947 -0.028385326 5.0486689 234 88 12
-4.4323182 -0.0051054372 5.0489373 234 88 12
-4.4112382 0.018548153 5.0511599 234 88 12
-4.3924656 0.0427684 5.0562329 234 88 12
-4.3735175 0.066987641 5.06113 234 88 12
-4.3565331 0.091733709 5.0684967 234 88 12
-4.348805 0.11888189 5.0874238 234 88 12
-4.4933767 -0.035311595 5.0245762 234 88 12
-4.4699693 -0.012203448 5.0239539 234 88 12
-4.4478397 0.011193558 5.0248742 234 88 12
-4.4273601 0.034985576 5.0278058 234 88 12
-4.4087405 0.059248015 5.033031 234 88 12
-4.3903551 0.083610795 5.0385842 234 88 12
-4.3752089 0.10882921 5.0481663 234 88 12
-4.3688345 0.13636501 5.0686574 234 88 12
-4.5082035 -0.019160585 4.9997172 234 88 12
-4.484993 0.0039813221 4.9993253 234 88 12
-4.4630132 0.027405849 5.000411 234 88 12
-4.442976 0.051299848 5.0038514 234 88 12
-4.4245749 0.075618327 5.0093031 234 88 12
-4.4069395 0.10017122 5.0157309 234 88 12
-4.3935308 0.1258433 5.0273767 234 88 12
-4.3884335 0.15375078 5.0493159 234 88 12
-4.5223937 -0.003161483 4.9741316 234 88 12
-4.499135 0.019955877 4.9736729 234 88 12
-4.4779053 0.043544926 4.975636 234 88 12
-4.4586568 0.067624353 4.9799933 234 88 12
-4.4404955 0.09200535 4.9856949 234 88 12
-4.4234533 0.11671288 4.9927969 234 88 12
-4.4125838 0.14304945 5.0074534 234 88 12
-4.4062405 0.17068304 5.0277486 234 88 12
-4.5629425 -0.0095933136 4.9526901 234 88 12
-4.5368018 0.012875572 4.9488416 234 88 12
-4.513938 0.036071818 4.9488416 234 88 12
-4.4926209 0.059633847 4.9506793 234 88 12
-4.4738603 0.083828487 4.9555821 234 88 12
-4.456368 0.10837649 4.9620428 234 88 12
-4.439652 0.13317361 4.9694886 234 88 12
-4.4302821 0.15991738 4.9858632 234 88 12
-4.5769615 0.0063646925 4.9269681 234 88 12
-4.549953 0.028614245 4.9221125 234 88 12
-4.5281863 0.052049246 4.9233866 234 88 12
-4.5070529 0.075645983 4.9254189 234 88 12
-4.4889197 0.099990517 4.9310246 234 88 12
-4.4718595 0.12464871 4.937952 234 88 12
-4.4565215 0.14980175 4.9469924 234 88 12
-4.449141 0.17708872 4.9656529 234 88 12
-4.5893855 0.02194963 4.899435 234 88 12
-4.563581 0.044447444 4.8959918 234 88 12
-4.5412493 0.067736059 4.8965831 234 88 12
-4.5210223 0.091536492 4.8996496 234 88 12
-4.5045066 0.11627468 4.9071145 234 88 12
-4.487246 0.14088877 4.9137564 234 88 12
-4.4738936 0.1665583 4.9250932 234 88 12
-4.466454 0.1938654 4.9435706 234 88 12
-4.6025238 0.037678879 4.8727875 234 88 12
-4.5766292 0.060131732 4.8692451 234 88 12
-4.5543571 0.083417431 4.869885 234 88 12
-4.535007 0.10741855 4.8739395 234 88 12
-4.519093 0.13230544 4.88205 234 88 12
-4.5029974 0.15721492 4.8900113 234 88 12
-4.4913883 0.18334848 4.9033308 234 88 12
-4.4845371 0.21084598 4.9223948 234 88 12
-4.6141958 0.05305437 4.844511 234 88 12
-4.5888672 0.075609341 4.8416185 234 88 12
-4.5676732 0.099133261 4.8434796 234 88 12
-4.5481157 0.12307397 4.8472533 234 88 12
-4.532846 0.14811844 4.8560481 234 88 12
-4.519393 0.17370062 4.867034 234 88 12
-4.5067749 0.19959354 4.8790865 234 88 12
-4.5026975 0.22785211 4.9012938 234 88 12
-4.6278687 0.068873644 4.8185854 234 88 12
-4.603179 0.09156017 4.8164277 234 88 12
-4.5817285 0.11501353 4.8179727 234 88 12
-4.5622549 0.13896856 4.8218079 234 88 12
-4.5479989 0.16427143 4.8317094 234 88 12
-4.5338125 0.18967669 4.8417687 234 88 12
-4.52319 0.21610177 4.8560629 234 88 12
-4.5203376 0.24472435 4.8795652 234 88 12
-4.643549 0.085151225 4.7949762 234 88 12
-4.6187553 0.10780367 4.7927089 234 88 12
-4.5971527 0.13121687 4.7940655 234 88 12
-4.5781093 0.15527953 4.7983637 234 88 12
-4.5624585 0.18024123 4.8065963 234 88 12
-4.5490565 0.20585614 4.8174891 234 88 12
-4.5408621 0.23293999 4.8345022 234 88 12
-4.6375217 0.12481326 4.7726107 234 88 12
-4.6156006 0.14816003 4.7736063 234 88 12
-4.5976181 0.17250535 4.7790937 234 88 12
-4.5787582 0.19667286 4.7836204 234 88 12
-4.5653667 0.22230759 4.794456 234 88 12
-4.5615826 0.25059292 4.8164415 234 88 12
-4.6385889 0.16623881 4.7582417 234 88 12
-4.6157632 0.18939668 4.7582417 234 88 12
-4.5969095 0.21358071 4.762754 234 88 12
-4.5840759 0.23938838 4.7741652 234 88 12
-4.6397018 0.20777397 4.7438869 234 88 12
-4.6237874 0.23276618 4.7517204 234 88 12
-3.8815475 -0.36965978 5.9925485 234 88 12
-3.9071367 -0.43544534 5.9624219 234 88 12
-3.9014723 -0.4014172 5.9610505 234 88 12
-3.8964162 -0.36740732 5.9603901 234 88 12
-3.8925686 -0.33340806 5.9611459 234 88 12
-3.8973596 -0.29938677 5.9720397 234 88 12
-3.9227941 -0.43318716 5.9312015 234 88 12
-3.9169142 -0.39916316 5.9295878 234 88 12
-3.9119647 -0.36516237 5.9290547 234 88 12
-3.9075894 -0.33116844 5.9291897 234 88 12
-3.9046018 -0.2971704 5.9309421 234 88 12
-3.9080758 -0.26310727 5.9402337 234 88 12
-3.9471805 -0.46503171 5.9048891 234 88 12
-3.9390986 -0.43094239 5.9007483 234 88 12
-3.9330413 -0.39691973 5.8989401 234 88 12
-3.9279785 -0.36292234 5.8982787 234 88 12
-3.9234548 -0.32893273 5.8982401 234 88 12
-3.9197733 -0.29494146 5.8991766 234 88 12
-3.9199107 -0.26091132 5.9045386 234 88 12
-3.9640927 -0.4627974 5.8751135 234 88 12
-3.956001 -0.42870936 5.8709898 234 88 12
-3.9494405 -0.39468056 5.8686161 234 88 12
-3.944411 -0.36068633 5.8679972 234 88 12
-3.9396257 -0.32669857 5.8676581 234 88 12
-3.9354308 -0.29271236 5.8679972 234 88 12
-3.9336145 -0.25870344 5.8710737 234 88 12
-3.9390731 -0.22456637 5.8825316 234 88 12
-3.9822075 -0.46059164 5.8467069 234 88 12
-3.9738491 -0.4264937 5.842308 234 88 12
-3.966229 -0.39244685 5.8387437 234 88 12
-3.9607716 -0.35845014 5.8376412 234 88 12
-3.9559305 -0.32446525 5.8372402 234 88 12
-3.9515438 -0.2904827 5.8373575 234 88 12
-3.9482191 -0.25648999 5.8386889 234 88 12
-3.9518013 -0.22238836 5.8479209 234 88 12
-3.9920862 -0.42428428 5.8140516 234 88 12
-3.9831395 -0.39021474 5.8090115 234 88 12
-3.977313 -0.35621566 5.807498 234 88 12
-3.9725957 -0.32223299 5.80724 234 88 12
-3.9679885 -0.28825241 5.807106 234 88 12
-3.9638445 -0.254269 5.807498 234 88 12
-3.9648812 -0.22020799 5.8137751 234 88 12
-4.0111656 -0.42208862 5.7867212 234 88 12
-4.0016513 -0.38800225 5.7810788 234 88 12
-3.9941564 -0.35398349 5.7776999 234 88 12
-3.9891148 -0.32000071 5.7770786 234 88 12
-3.9845719 -0.28602192 5.7770181 234 88 12
-3.9802051 -0.25204211 5.7771554 234 88 12
-3.9782324 -0.21802607 5.7799945 234 88 12
-3.9847767 -0.18381289 5.7924523 234 88 12
-4.0310683 -0.41990536 5.7602754 234 88 12
-4.0198259 -0.38578451 5.7527447 234 88 12
-4.0110559 -0.35175177 5.7479658 234 88 12
-4.0060062 -0.31776911 5.7473392 234 88 12
-4.0014634 -0.28379035 5.7472792 234 88 12
-3.9970858 -0.24981061 5.7474041 234 88 12
-3.9932501 -0.21582158 5.748136 234 88 12
-3.9976954 -0.18165773 5.7581539 234 88 12
-4.0397649 -0.38358608 5.7263479 234 88 12
-4.0290761 -0.34952691 5.7194748 234 88 12
-4.023046 -0.31553766 5.7177649 234 88 12
-4.0184665 -0.28155828 5.7176647 234 88 12
-4.0139775 -0.24757899 5.7176647 234 88 12
-4.0097308 -0.21359602 5.7179346 234 88 12
-4.0093699 -0.17953055 5.7225313 234 88 12
-4.059629 -0.38138449 5.6998224 234 88 12
-4.0486426 -0.34731022 5.6926708 234 88 12
-4.0401373 -0.31330609 5.6882448 234 88 12
-4.0351548 -0.27932766 5.6877003 234 88 12
-4.0301228 -0.24535498 5.6871004 234 88 12
-4.0256343 -0.21137966 5.6871004 234 88 12
-4.023066 -0.17736429 5.6892242 234 88 12
-4.0280929 -0.1431293 5.6997566 234 88 12
-4.0793509 -0.37917915 5.6730971 234 88 12
-4.0681868 -0.34509143 5.6658015 234 88 12
-4.0575294 -0.31107447 5.6590509 234 88 12
-4.0511522 -0.27710074 5.6569824 234 88 12
-4.0458379 -0.24313596 5.6560769 234 88 12
-4.0412197 -0.20916894 5.6559334 234 88 12
-4.0372415 -0.17518978 5.6564932 234 88 12
-4.039813 -0.14103168 5.6642518 234 88 12
-4.0867472 -0.34286577 5.6378241 234 88 12
-4.0757818 -0.30884227 5.6307859 234 88 12
-4.0674763 -0.27487263 5.6266336 234 88 12
-4.0623522 -0.24090904 5.6259403 234 88 12
-4.0576439 -0.20694549 5.6256995 234 88 12
-4.0533295 -0.17297585 5.6258883 234 88 12
-4.0514793 -0.1389384 5.6287675 234 88 12
-4.1062794 -0.3406435 5.6108708 234 88 12
-4.0966144 -0.30660769 5.605288 234 88 12
-4.0844126 -0.27264133 5.5969548 234 88 12
-4.0789337 -0.23868161 5.5958829 234 88 12
-4.073741 -0.20472771 5.595119 234 88 12
-4.0691609 -0.17076798 5.5950179 234 88 12
-4.0655174 -0.1367839 5.595932 234 88 12
-4.0675855 -0.102606 5.6030436 234 88 12
-4.1259208 -0.33841982 5.5839953 234 88 12
-4.1154046 -0.30437225 5.5775399 234 88 12
-4.1028852 -0.27040049 5.5689244 234 88 12
-4.0951104 -0.23645903 5.5653949 234 88 12
-4.0895367 -0.20251545 5.5642262 234 88 12
-4.0849047 -0.16856264 5.5640688 234 88 12
-4.0807433 -0.13459851 5.5644183 234 88 12
-4.0803061 -0.10050942 5.5687809 234 88 12
-4.144371 -0.33618945 5.5558119 234 88 12
-4.1332045 -0.30213678 5.5487089 234 88 12
-4.1209683 -0.26816115 5.5404558 234 88 12
-4.1115165 -0.23423418 5.535162 234 88 12
-4.1060772 -0.20029116 5.5341444 234 88 12
-4.1015053 -0.16633883 5.5340524 234 88 12
-4.0971055 -0.13238266 5.5341444 234 88 12
-4.0940075 -0.098382778 5.5356288 234 88 12
-4.0975218 -0.064115688 5.5441957 234 88 12
-4.1613688 -0.3339527 5.5260701 234 88 12
-4.1506696 -0.29990122 5.5195107 234 88 12
-4.1388159 -0.26592261 5.5117197 234 88 12
-4.1282005 -0.23200628 5.5052304 234 88 12
-4.1173849 -0.19815777 5.4985194 234 88 12
-4.115171 -0.16418152 5.5009255 234 88 12
-4.1139846 -0.1301527 5.5044265 234 88 12
-4.1102457 -0.096173696 5.5052199 234 88 12
-4.1116381 -0.061989594 5.5114708 234 88 12
-4.1800652 -0.33172151 5.4981112 234 88 12
-4.1682658 -0.29766506 5.4904423 234 88 12
-4.1504707 -0.26372781 5.4764585 234 88 12
-4.1362138 -0.22988595 5.4661779 234 88 12
-4.1262436 -0.19607092 5.4603972 234 88 12
-4.1201849 -0.16222401 5.4587302 234 88 12
-4.1168761 -0.12831636 5.45996 234 88 12
-4.1274056 -0.093934163 5.4757934 234 88 12
-4.122642 -0.05998525 5.4755006 234 88 12
-4.1159983 -0.026121879 5.4732213 234 88 12
-4.2009773 -0.32949558 5.4724369 234 88 12
-4.1853275 -0.29542962 5.4608064 234 88 12
-4.1668673 -0.26150092 5.4462247 234 88 12
-4.1518593 -0.22767417 5.4352307 234 88 12
-4.1415 -0.19387409 5.4290824 234 88 12
-4.1364603 -0.16001235 5.4284911 234 88 12
-4.1319852 -0.12614046 5.4284911 234 88 12
-4.1168299 -0.092628084 5.4173002 234 88 12
-4.0769949 -0.060188491 5.3802156 234 88 12
-4.0681577 -0.026751731 5.3756051 234 88 12
-4.0674219 0.0070393337 5.3794942 234 88 12
-4.2066884 -0.29318291 5.4356232 234 88 12
-4.1865773 -0.25924847 5.4194341 234 88 12
-4.1710267 -0.22541732 5.4079552 234 88 12
-4.1599312 -0.19162033 5.4010863 234 88 12
-4.1508822 -0.15784445 5.3963351 234 88 12
-4.1203365 -0.12473289 5.3692245 234 88 12
-4.0959487 -0.091685548 5.3484836 234 88 12
-4.0778246 -0.058601972 5.3342366 234 88 12
-4.0551577 -0.025863828 5.3152366 234 88 12
-4.0503802 0.0075710742 5.3148627 234 88 12
-4.076674 0.042709123 5.3469095 234 88 12
-4.2286658 -0.2909314 5.4110103 234 88 12
-4.210814 -0.25695744 5.3972645 234 88 12
-4.1926575 -0.22312623 5.3831849 234 88 12
-4.1738958 -0.18944837 5.3684621 234 88 12
-4.1521206 -0.15599076 5.3506098 234 88 12
-4.1259289 -0.12284148 5.3281727 234 88 12
-4.1047158 -0.089749075 5.3108487 234 88 12
-4.0728035 -0.057253614 5.2824383 234 88 12
-4.0628362 -0.024066383 5.2766953 234 88 12
-4.0555935 0.0091985334 5.273766 234 88 12
-4.0538526 0.042737085 5.2765331 234 88 12
-4.2618752 -0.32279778 5.3931937 234 88 12
-4.2391129 -0.28871426 5.3745427 234 88 12
-4.2201009 -0.25478798 5.3597012 234 88 12
-4.2035208 -0.22097895 5.3473282 234 88 12
-4.184144 -0.18734801 5.3320737 234 88 12
-4.16432 -0.15388261 5.3163409 234 88 12
-4.144515 -0.12057643 5.3006058 234 88 12
-4.1189132 -0.087629698 5.2789006 234 88 12
-4.087081 -0.055150647 5.2507691 234 88 12
-4.0781398 -0.021930875 5.246119 234 88 12
-4.0721817 0.011390971 5.2445297 234 88 12
-4.0677814 0.044782829 5.2445412 234 88 12
-4.1237211 0.081830218 5.3066797 234 88 12
-4.3052845 -0.38904804 5.3809462 234 88 12
-4.2836871 -0.3547008 5.3636432 234 88 12
-4.2659454 -0.32053536 5.3502264 234 88 12
-4.2496243 -0.28650117 5.338233 234 88 12
-4.2340798 -0.25258222 5.3270116 234 88 12
-4.2183022 -0.21878073 5.3155384 234 88 12
-4.201365 -0.18511827 5.3028698 234 88 12
-4.1832404 -0.15161379 5.2889762 234 88 12
-4.1673527 -0.11818509 5.2773409 234 88 12
-4.1525478 -0.084837608 5.2667933 234 88 12
-4.105268 -0.052892894 5.2231193 234 88 12
-4.0960498 -0.01967846 5.2182198 234 88 12
-4.0903311 0.013661924 5.216887 234 88 12
-4.0872874 0.047137231 5.218286 234 88 12
-4.3654919 -0.49029246 5.3807125 234 88 12
-4.3463688 -0.45559144 5.3660703 234 88 12
-4.3297224 -0.42108065 5.3538971 234 88 12
-4.3111944 -0.38667232 5.3398151 234 88 12
-4.2958364 -0.35242769 5.3289037 234 88 12
-4.2791514 -0.31829283 5.3166413 234 88 12
-4.2649765 -0.2842733 5.3068919 234 88 12
-4.2515531 -0.25034657 5.2978868 234 88 12
-4.2375259 -0.21652055 5.2882605 234 88 12
-4.2224731 -0.18281291 5.277585 234 88 12
-4.2063522 -0.14924081 5.2658157 234 88 12
-4.1932836 -0.11569853 5.2571173 234 88 12
-4.1807914 -0.082225323 5.2489891 234 88 12
-4.1678119 -0.048855033 5.2403574 234 88 12
-4.1185637 -0.017216826 5.1949673 234 88 12
-4.1140466 0.016214743 5.1948662 234 88 12
-4.2034159 0.054877512 5.2900181 234 88 12
-4.3969307 -0.55699569 5.3558536 234 88 12
-4.3857841 -0.52237642 5.3492804 234 88 12
-4.3726702 -0.48777238 5.3407378 234 88 12
-4.3574991 -0.45321181 5.3301325 234 88 12
-4.3435278 -0.41877919 5.3207092 234 88 12
-4.326817 -0.38441262 5.3085384 234 88 12
-4.3119879 -0.35018197 5.2982316 234 88 12
-4.2975883 -0.31605738 5.2883401 234 88 12
-4.2838664 -0.28203139 5.2791128 234 88 12
-4.2719059 -0.24808353 5.271637 234 88 12
-4.2599835 -0.21421194 5.2641892 234 88 12
-4.2477293 -0.18042344 5.2563982 234 88 12
-4.2354755 -0.14671504 5.2485976 234 88 12
-4.2234731 -0.1130794 5.2410388 234 88 12
-4.2121243 -0.079498619 5.2341266 234 88 12
-4.205101 -0.045814574 5.2315526 234 88 12
-4.2024388 -0.011958471 5.2333632 234 88 12
-4.2076268 0.022314556 5.2430801 234 88 12
-4.2219791 0.057200432 5.262042 234 88 12
-4.4189696 -0.58916295 5.326118 234 88 12
-4.4097924 -0.55458224 5.3215413 234 88 12
-4.399951 -0.52002782 5.3163023 234 88 12
-4.3882775 -0.4854795 5.3092432 234 88 12
-4.3743591 -0.4509567 5.2999511 234 88 12
-4.3611083 -0.41653997 5.2913084 234 88 12
-4.3462958 -0.38219535 5.281105 234 88 12
-4.3315716 -0.34795621 5.2709761 234 88 12
-4.3199401 -0.31382304 5.2639041 234 88 12
-4.3064861 -0.27977109 5.2550116 234 88 12
-4.2957811 -0.24578415 5.2488403 234 88 12
-4.2869844 -0.2118326 5.2445593 234 88 12
-4.2769318 -0.17795032 5.2390223 234 88 12
-4.2670779 -0.14412028 5.2336755 234 88 12
-4.2566748 -0.11036213 5.2277741 234 88 12
-4.2476792 -0.076615185 5.2232685 234 88 12
-4.2406044 -0.042836923 5.220675 234 88 12
-4.2365108 -0.0089491466 5.2210555 234 88 12
-4.2374468 0.025198765 5.2264647 234 88 12
-4.2422099 0.059617583 5.2357097 234 88 12
-4.4420638 -0.62138212 5.29741 234 88 12
-4.4344687 -0.58683723 5.2944217 234 88 12
-4.4255896 -0.55227727 5.2901683 234 88 12
-4.4164333 -0.51775259 5.2856379 234 88 12
-4.4053516 -0.48322535 5.2792096 234 88 12
-4.3933954 -0.44874644 5.2719121 234 88 12
-4.3807974 -0.41433296 5.2639737 234 88 12
-4.3672686 -0.3799918 5.2551084 234 88 12
-4.3560495 -0.3457545 5.2485065 234 88 12
-4.3438692 -0.31158534 5.2409477 234 88 12
-4.333693 -0.2774846 5.2353563 234 88 12
-4.3242955 -0.24343397 5.2305264 234 88 12
-4.3157568 -0.20942041 5.2265382 234 88 12
-4.3062172 -0.17546849 5.2215552 234 88 12
-4.2958751 -0.14158867 5.2157712 234 88 12
-4.2841015 -0.10781262 5.2085624 234 88 12
-4.2735362 -0.07406839 5.2025414 234 88 12
-4.2667975 -0.040230602 5.2003045 234 88 12
-4.2631154 -0.0062755556 5.201097 234 88 12
-4.2612643 0.027781397 5.2037082 234 88 12
-4.2618284 0.062001564 5.2087216 234 88 12
-4.4587336 -0.61910146 5.2668548 234 88 12
-4.4514542 -0.58457291 5.264194 234 88 12
-4.4430318 -0.55003148 5.2604165 234 88 12
-4.4344697 -0.51552492 5.2564974 234 88 12
-4.4251599 -0.48104012 5.2518435 234 88 12
-4.414391 -0.44657412 5.2457585 234 88 12
-4.4037271 -0.41217282 5.239768 234 88 12
-4.3928051 -0.37783113 5.2335176 234 88 12
-4.3813977 -0.34355193 5.2267838 234 88 12
-4.3732896 -0.30934227 5.2232704 234 88 12
-4.3678379 -0.27515525 5.2223549 234 88 12
-4.3662691 -0.24093767 5.225245 234 88 12
-4.343545 -0.20701636 5.207386 234 88 12
-4.3311362 -0.17306931 5.1996284 234 88 12
-4.3190794 -0.1391941 5.1922069 234 88 12
-4.3064752 -0.10541319 5.1842365 234 88 12
-4.2960539 -0.071637101 5.1784029 234 88 12
-4.2886744 -0.037797101 5.1755552 234 88 12
-4.2841902 -0.0038531334 5.1755552 234 88 12
-4.2820582 0.030211633 5.1778741 234 88 12
-4.2823153 0.064435683 5.1825523 234 88 12
-4.2883201 0.099063203 5.1929088 234 88 12
-4.4696336 -0.58235633 5.2351232 234 88 12
-4.4622698 -0.54784805 5.2323966 234 88 12
-4.4545975 -0.51335895 5.2293682 234 88 12
-4.4460311 -0.47887912 5.2254696 234 88 12
-4.4378729 -0.44444796 5.221961 234 88 12
-4.4294372 -0.41004929 5.2181787 234 88 12
-4.4216447 -0.37569627 5.2150159 234 88 12
-4.4182744 -0.3413966 5.2161446 234 88 12
-4.4401698 -0.2035237 5.2551322 234 88 12
-4.353322 -0.17072251 5.1749268 234 88 12
-4.3408875 -0.13683234 5.1671925 234 88 12
-4.3293629 -0.10299499 5.160336 234 88 12
-4.3183742 -0.069210202 5.1539931 234 88 12
-4.3110838 -0.035339307 5.1512566 234 88 12
-4.3062091 -0.0013850458 5.1508784 234 88 12
-4.3036509 0.066919297 5.1571631 234 88 12
-4.307991 0.10146867 5.1658187 234 88 12
-4.4883218 -0.58015889 5.2065263 234 88 12
-4.4823132 -0.5456906 5.205122 234 88 12
-4.4758325 -0.51122302 5.2032619 234 88 12
-4.4698944 -0.47678819 5.2019219 234 88 12
-4.4638243 -0.44236481 5.2004528 234 88 12
-4.3760862 -0.16836056 5.150713 234 88 12
-4.363646 -0.13444304 5.1430321 234 88 12
-4.3520098 -0.10058127 5.1361194 234 88 12
-4.3418722 -0.066737786 5.1306505 234 88 12
-4.3331513 -0.032893166 5.1265492 234 88 12
-4.3278813 0.0010691087 5.1257935 234 88 12
-4.3251328 0.035153892 5.1274867 234 88 12
-4.3249168 0.069400668 5.1316447 234 88 12
-4.328845 0.10394844 5.1398406 234 88 12
-4.3877954 -0.13201384 5.1201282 234 88 12
-4.3760872 -0.098119497 5.1131997 234 88 12
-4.3657961 -0.06424658 5.1076269 234 88 12
-4.3570714 -0.030367328 5.1035552 234 88 12
-4.350719 0.0035799164 5.1017661 234 88 12
-4.3476739 0.037680015 5.1031651 234 88 12
-4.3459616 0.07187105 5.1058526 234 88 12
-4.3484163 0.10634986 5.1125693 234 88 12
-4.3609509 0.14157888 5.1290402 234 88 12
-4.401453 -0.095613152 5.0914135 234 88 12
-4.3908691 -0.061709635 5.0856056 234 88 12
-4.3815489 -0.027814895 5.0809989 234 88 12
-4.3741746 0.0061223553 5.0782485 234 88 12
-4.3696752 0.040180255 5.0782485 234 88 12
-4.3678169 0.074389413 5.0807805 234 88 12
-4.3693676 0.10883827 5.0865855 234 88 12
-4.3762012 0.14370574 5.0974693 234 88 12
-4.4337683 -0.092879832 5.0761046 234 88 12
-4.4182487 -0.059083171 5.0656629 234 88 12
-4.4069376 -0.025220603 5.0592046 234 88 12
-4.397656 0.0086688101 5.0546665 234 88 12
-4.3925943 0.042730611 5.0541363 234 88 12
-4.3900113 0.07692913 5.0559635 234 88 12
-4.3897033 0.11128958 5.0599604 234 88 12
-4.395359 0.14609648 5.0696459 234 88 12
-4.4433584 -0.056536548 5.0434394 234 88 12
-4.4319234 -0.022639599 5.0369153 234 88 12
-4.4216905 0.011244315 5.031517 234 88 12
-4.4147115 0.045241181 5.0291843 234 88 12
-4.4121594 0.079468153 5.0310316 234 88 12
-4.4122562 0.11388119 5.0353861 234 88 12
-4.4145236 0.14848837 5.0417995 234 88 12
-4.4674382 -0.054024808 5.0201426 234 88 12
-4.4565248 -0.02007138 5.0141582 234 88 12
-4.4463816 0.013854136 5.0088873 234 88 12
-4.4390411 0.047870561 5.006237 234 88 12
-4.4353881 0.082071602 5.0070429 234 88 12
-4.4332743 0.11637817 5.0092945 234 88 12
-4.4345932 0.15094253 5.0147743 234 88 12
-4.439261 0.185811 5.0234089 234 88 12
-4.4934678 -0.051435959 4.9985619 234 88 12
-4.4803987 -0.017530963 4.990622 234 88 12
-4.4693789 0.016386077 4.9845781 234 88 12
-4.4615006 0.050403833 4.9814501 234 88 12
-4.4564214 0.084550001 4.9809251 234 88 12
-4.4545932 0.11889553 4.9834294 234 88 12
-4.4539447 0.1533487 4.9870372 234 88 12
-4.4572945 0.18813397 4.994381 234 88 12
-4.5037355 -0.015010604 4.9664989 234 88 12
-4.4925666 0.01892967 4.9603639 234 88 12
-4.4838881 0.052935403 4.9565229 234 88 12
-4.4785624 0.087094344 4.9557767 234 88 12
-4.4750295 0.12135854 4.9566889 234 88 12
-4.4737992 0.15579002 4.9597344 234 88 12
-4.4768372 0.19056796 4.9667382 234 88 12
-4.5267954 -0.012499479 4.9420371 234 88 12
-4.5156488 0.021470772 4.9359713 234 88 12
-4.5060692 0.055458095 4.931334 234 88 12
-4.499855 0.089591071 4.9297814 234 88 12
-4.4957204 0.12383889 4.9301367 234 88 12
-4.4943171 0.15827762 4.9330029 234 88 12
-4.4953928 0.19293015 4.9381537 234 88 12
-4.5009894 0.22799458 4.9474726 234 88 12
-4.5500398 -0.0099776601 4.9176636 234 88 12
-4.5382495 0.023990992 4.9110589 234 88 12
-4.528204 0.057980347 4.9060354 234 88 12
-4.5212774 0.092096969 4.9038472 234 88 12
-4.5171566 0.1263679 4.9042153 234 88 12
-4.5148754 0.16076915 4.9062624 234 88 12
-4.514092 0.19530334 4.9096799 234 88 12
-4.5173831 0.23019601 4.9168253 234 88 12
-4.5607643 0.026509341 4.8859963 234 88 12
-4.5503459 0.060504939 4.8806748 234 88 12
-4.5431247 0.094629407 4.8782387 234 88 12
-4.5382199 0.12887461 4.8778973 234 88 12
-4.5346847 0.16321021 4.8787961 234 88 12
-4.5335641 0.19773406 4.8818851 234 88 12
-4.5343752 0.23244445 4.8867302 234 88 12
-4.5823345 0.028983714 4.8600144 234 88 12
-4.5720611 0.063008487 4.8548641 234 88 12
-4.5642128 0.097118869 4.8518853 234 88 12
-4.5588293 0.13135368 4.8511186 234 88 12
-4.5550132 0.16568798 4.8517604 234 88 12
-4.5520883 0.20009536 4.8532047 234 88 12
-4.5518861 0.23473386 4.8571029 234 88 12
-4.5567369 0.26984048 4.8655605 234 88 12
-4.6022892 0.031380497 4.8325343 234 88 12
-4.5927634 0.06545902 4.8280897 234 88 12
-4.5850797 0.099596731 4.8252821 234 88 12
-4.57865 0.13378339 4.8235893 234 88 12
-4.5743775 0.16810015 4.8238206 234 88 12
-4.5711393 0.20249611 4.824976 234 88 12
-4.5701141 0.23708014 4.8281112 234 88 12
-4.5740819 0.27211937 4.8357172 234 88 12
-4.6125269 0.06785997 4.8004379 234 88 12
-4.6049786 0.10201854 4.7977719 234 88 12
-4.598804 0.13623545 4.796319 234 88 12
-4.5940528 0.17053455 4.7961259 234 88 12
-4.5905452 0.20492381 4.7970352 234 88 12
-4.5890684 0.23948427 4.7997489 234 88 12
-4.6326246 0.070280142 4.7730441 234 88 12
-4.6246438 0.10442749 4.7700195 234 88 12
-4.6182094 0.1386403 4.7683501 234 88 12
-4.613308 0.1729406 4.7680278 234 88 12
-4.6098604 0.20734543 4.7689848 234 88 12
-4.6078844 0.24187787 4.7712393 234 88 12
-4.638689 0.14111529 4.7412887 234 88 12
-4.6332641 0.17539611 4.7405133 234 88 12
-4.6294932 0.20979135 4.7411823 234 88 12
-3.873534 -0.35979295 5.9843249 234 88 12
-3.8823814 -0.33049196 5.9616122 234 88 12
-3.8915918 -0.30149415 5.9396391 234 88 12
-3.9091966 -0.2753396 5.9301448 234 88 12
-3.9292877 -0.25003642 5.9243569 234 88 12
-3.867152 -0.4009845 5.9612274 234 88 12
-3.8759212 -0.37152323 5.9384298 234 88 12
-3.8866189 -0.34288949 5.9186683 234 88 12
-3.8975585 -0.31449679 5.8994389 234 88 12
-3.9126084 -0.28757471 5.8863587 234 88 12
-3.9280198 -0.26087254 5.873919 234 88 12
-3.9468281 -0.23531649 5.8664846 234 88 12
-3.97245 -0.21187741 5.8688893 234 88 12
-3.8801553 -0.41627282 5.9309735 234 88 12
-3.8879638 -0.38647485 5.9069352 234 88 12
-3.8970656 -0.35730779 5.8850017 234 88 12
-3.9078703 -0.32887957 5.8657365 234 88 12
-3.9209092 -0.30132815 5.8498721 234 88 12
-3.9343588 -0.27403626 5.8347406 234 88 12
-3.9517052 -0.2480748 5.8253231 234 88 12
-3.9667454 -0.22148874 5.8127017 234 88 12
-3.9902053 -0.19751573 5.8121409 234 88 12
-3.8966033 -0.43274495 5.9058194 234 88 12
-3.9042032 -0.40284252 5.8816299 234 88 12
-3.9124899 -0.3733722 5.8586545 234 88 12
-3.920007 -0.34383881 5.8347754 234 88 12
-3.9304109 -0.31543693 5.8152547 234 88 12
-3.9435878 -0.2880767 5.7998714 234 88 12
-3.9567194 -0.26082835 5.7845607 234 88 12
-3.9711623 -0.23410609 5.7712421 234 88 12
-3.9872239 -0.20797808 5.760324 234 88 12
-4.0064073 -0.18285811 5.7538853 234 88 12
-4.036902 -0.16105893 5.7633162 234 88 12
-3.9148216 -0.44983628 5.8832378 234 88 12
-3.921104 -0.41943666 5.8572845 234 88 12
-3.9286506 -0.38968137 5.833385 234 88 12
-3.9353726 -0.35985172 5.8085179 234 88 12
-3.9444673 -0.33100128 5.7872577 234 88 12
-3.9536669 -0.30236006 5.766336 234 88 12
-3.9659083 -0.27484587 5.7499003 234 88 12
-3.9787199 -0.24764213 5.7344122 234 88 12
-3.9928682 -0.22096886 5.7209339 234 88 12
-4.006103 -0.19413406 5.7062984 234 88 12
-4.0226245 -0.16837414 5.6963563 234 88 12
-4.0440974 -0.14410812 5.6933508 234 88 12
-3.9372313 -0.46840909 5.8666744 234 88 12
-3.9406855 -0.43695956 5.8367825 234 88 12
-3.9479761 -0.40706453 5.8126464 234 88 12
-3.9533789 -0.37674183 5.7860379 234 88 12
-3.9600105 -0.34704372 5.7614088 234 88 12
-3.968894 -0.31827486 5.7401762 234 88 12
-3.9785271 -0.28991845 5.7201843 234 88 12
-3.9891703 -0.26203993 5.7017813 234 88 12
-4.0002499 -0.23444508 5.6841469 234 88 12
-4.0115967 -0.20707379 5.6670365 234 88 12
-4.0251708 -0.18049473 5.6531506 234 88 12
-4.0392509 -0.15417333 5.64008 234 88 12
-4.0582967 -0.12935808 5.6339197 234 88 12
-4.0863428 -0.10708148 5.64008 234 88 12
-3.9728303 -0.45886347 5.8341613 234 88 12
-3.9693244 -0.42515075 5.7947302 234 88 12
-3.9738841 -0.39447761 5.7670646 234 88 12
-3.9795856 -0.36441281 5.7412529 234 88 12
-3.9867587 -0.33503997 5.7177339 234 88 12
-3.9932079 -0.30563217 5.6934104 234 88 12
-4.0016975 -0.27706268 5.6721368 234 88 12
-4.0107341 -0.24883619 5.6518064 234 88 12
-4.0209346 -0.22112642 5.633256 234 88 12
-4.0319929 -0.19382146 5.616044 234 88 12
-4.0434422 -0.16676967 5.599514 234 88 12
-4.0578947 -0.14070494 5.5872111 234 88 12
-4.0740676 -0.1152188 5.5773444 234 88 12
-4.0964179 -0.091499977 5.5758944 234 88 12
-3.9986382 -0.41366509 5.7539921 234 88 12
-4.0014534 -0.38255587 5.7242489 234 88 12
-4.0074019 -0.35271719 5.6991353 234 88 12
-4.0125918 -0.32284528 5.6731896 234 88 12
-4.0188122 -0.29351279 5.6488938 234 88 12
-4.0249734 -0.26436305 5.6247277 234 88 12
-4.0340223 -0.2362874 5.6047273 234 88 12
-4.0422602 -0.20813441 5.5837917 234 88 12
-4.05265 -0.18078035 5.565959 234 88 12
-4.0648804 -0.15409824 5.5507674 234 88 12
-4.0787392 -0.12799641 5.5378976 234 88 12
-4.0944147 -0.10249843 5.5275717 234 88 12
-4.1130652 -0.077886701 5.5213056 234 88 12
-4.1342382 -0.053992469 5.5184445 234 88 12
-4.0602727 -0.0054470771 5.3896599 234 88 12
-4.0678921 0.021346491 5.3695045 234 88 12
-4.0901961 0.044326067 5.368794 234 88 12
-4.0329652 -0.40394047 5.7205644 234 88 12
-4.029623 -0.37092963 5.6826463 234 88 12
-4.0337195 -0.34063303 5.6553183 234 88 12
-4.0395331 -0.31110781 5.6305861 234 88 12
-4.0444136 -0.28149828 5.6047921 234 88 12
-4.05023 -0.25238764 5.5804949 234 88 12
-4.0563164 -0.22355816 5.5567727 234 88 12
-4.0640683 -0.19541286 5.535502 234 88 12
-4.0745106 -0.16821696 5.5180268 234 88 12
-4.0868435 -0.14169803 5.5032301 234 88 12
-4.1006474 -0.11570713 5.4905186 234 88 12
-4.1118207 -0.089103185 5.4744239 234 88 12
-4.0501256 -0.04319172 5.3621845 234 88 12
-4.0488682 -0.013979843 5.3304038 234 88 12
-4.0391054 0.017158089 5.2877421 234 88 12
-4.061058 0.039996423 5.2868185 234 88 12
-4.1163316 0.054635387 5.3292027 234 88 12
-4.058991 -0.35978368 5.6430402 234 88 12
-4.0595303 -0.32849064 5.6112113 234 88 12
-4.0662332 -0.29939085 5.5880313 234 88 12
-4.0702791 -0.26966813 5.5614572 234 88 12
-4.0738702 -0.24002829 5.5344977 234 88 12
-4.0800252 -0.21136944 5.5112071 234 88 12
-4.0879936 -0.1834285 5.4905362 234 88 12
-4.0968986 -0.15592337 5.4712858 234 88 12
-4.1094208 -0.12958595 5.4569874 234 88 12
-4.0978942 -0.096771717 5.4110966 234 88 12
-4.0498142 -0.054501608 5.3175879 234 88 12
-4.0355883 -0.021905314 5.2691283 234 88 12
-4.0475559 0.0035369326 5.2551827 234 88 12
-4.0686841 0.026549289 5.253233 234 88 12
-4.0967455 0.047827076 5.2602534 234 88 12
-4.1557908 0.061635572 5.3070722 234 88 12
-4.0963764 -0.3512876 5.6146193 234 88 12
-4.0880752 -0.31731367 5.5712047 234 88 12
-4.0916505 -0.28737348 5.5441298 234 88 12
-4.0933981 -0.25710389 5.5148392 234 88 12
-4.0986099 -0.22810903 5.4904151 234 88 12
-4.0970435 -0.19733369 5.4572024 234 88 12
-4.1069994 -0.17013784 5.4394975 234 88 12
-4.1189971 -0.14366175 5.4246292 234 88 12
-4.076478 -0.1022485 5.3384347 234 88 12
-4.0558276 -0.067458928 5.2815008 234 88 12
-4.0489802 -0.036795799 5.24298 234 88 12
-4.0651641 -0.012439675 5.2345872 234 88 12
-4.0855899 0.010766537 5.2317319 234 88 12
-4.1131601 0.0321634 5.2380719 234 88 12
-4.1940894 0.040539827 5.3125796 234 88 12
-4.1091275 -0.33500934 5.5532227 234 88 12
-4.1108532 -0.30442554 5.5238166 234 88 12
-4.11479 -0.27476308 5.497602 234 88 12
-4.1129427 -0.2435839 5.4639478 234 88 12
-4.1099453 -0.21234511 5.4290609 234 88 12
-4.1203432 -0.18526603 5.4120631 234 88 12
-4.1215034 -0.15570651 5.3831239 234 88 12
-4.096828 -0.1191949 5.3207741 234 88 12
-4.0935693 -0.089037478 5.2867231 234 88 12
-4.0701976 -0.053772543 5.2269721 234 88 12
-4.0845613 -0.028895075 5.2162585 234 88 12
-4.1059241 -0.0059046159 5.2146001 234 88 12
-4.13269 0.01571016 5.2198491 234 88 12
-4.2059035 0.025891842 5.2840786 234 88 12
-4.2294741 0.048598014 5.2849593 234 88 12
-4.1323643 -0.3222127 5.5065155 234 88 12
-4.1343884 -0.29189241 5.4779048 234 88 12
-4.1304264 -0.26000366 5.4416552 234 88 12
-4.1327329 -0.23027565 5.4139285 234 88 12
-4.1378055 -0.20158261 5.3900447 234 88 12
-4.1334524 -0.17039452 5.3541083 234 88 12
-4.1201625 -0.13699704 5.306901 234 88 12
-4.1229749 -0.10841469 5.2808447 234 88 12
-4.1317167 -0.081644312 5.2626152 234 88 12
-4.1134624 -0.047880862 5.2100186 234 88 12
-4.1361752 -0.025168115 5.2100186 234 88 12
-4.1949873 -0.011632683 5.2557993 234 88 12
-4.2178473 0.011227179 5.2557993 234 88 12
-4.2362337 0.035178911 5.2501721 234 88 12
-4.2569022 0.05854027 5.2474494 234 88 12
-4.1651721 -0.34358087 5.5040317 234 88 12
-4.1585236 -0.31043994 5.4641094 234 88 12
-4.1553531 -0.27869198 5.4290748 234 88 12
-4.159153 -0.24931808 5.4034162 234 88 12
-4.1616893 -0.21978782 5.3763323 234 88 12
-4.1512251 -0.18674247 5.3326783 234 88 12
-4.1457362 -0.15546273 5.2957873 234 88 12
-4.1509247 -0.12744488 5.272882 234 88 12
-4.1624618 -0.10134041 5.258266 234 88 12
-4.1752863 -0.075698562 5.2454062 234 88 12
-4.1935291 -0.051577676 5.2395086 234 88 12
-4.2133627 -0.0279123 5.2356644 234 88 12
-4.2295666 -0.0033661283 5.2272944 234 88 12
-4.2463508 0.020969989 5.219717 234 88 12
-4.2643361 0.044955749 5.2136965 234 88 12
-4.2850332 0.068252988 5.2110882 234 88 12
-4.3087831 0.090823568 5.2122712 234 88 12
-4.1868315 -0.29942083 5.4248691 234 88 12
-4.1868858 -0.26879719 5.3944345 234 88 12
-4.1783571 -0.23589593 5.3531871 234 88 12
-4.1710858 -0.20370321 5.3138971 234 88 12
-4.1720014 -0.17416498 5.2854009 234 88 12
-4.1792555 -0.14663146 5.2652106 234 88 12
-4.1905885 -0.12038128 5.2503595 234 88 12
-4.2041593 -0.094854109 5.2384558 234 88 12
-4.2169147 -0.06920936 5.2256231 234 88 12
-4.2299113 -0.043731477 5.2131968 234 88 12
-4.2438579 -0.018594949 5.2020564 234 88 12
-4.2588887 0.0061825677 5.1923523 234 88 12
-4.2757845 0.030428385 5.1850348 234 88 12
-4.2943044 0.054228589 5.1797781 234 88 12
-4.31141 0.078316815 5.1728263 234 88 12
-4.3326445 0.10140654 5.170979 234 88 12
-4.2106357 -0.28711841 5.3801384 234 88 12
-4.1949639 -0.25198913 5.3299508 234 88 12
-4.1941876 -0.22162579 5.2991877 234 88 12
-4.1994681 -0.19325383 5.2763748 234 88 12
-4.2089982 -0.16626602 5.2591281 234 88 12
-4.2214355 -0.14022313 5.245687 234 88 12
-4.2299776 -0.11323684 5.2274656 234 88 12
-4.2394814 -0.086655572 5.2105942 234 88 12
-4.2478828 -0.05992531 5.1924872 234 88 12
-4.2598104 -0.034242772 5.1788979 234 88 12
-4.2735052 -0.009112861 5.1676011 234 88 12
-4.2888236 0.015527454 5.158392 234 88 12
-4.304009 0.040125679 5.1490922 234 88 12
-4.3217525 0.064046964 5.1429896 234 88 12
-4.3390794 0.088015676 5.1364279 234 88 12
-4.3604727 0.11101435 5.1348414 234 88 12
-4.3899255 0.13222001 5.1429896 234 88 12
-4.224822 -0.30255851 5.3534884 234 88 12
-4.2155628 -0.26927912 5.3117871 234 88 12
-4.2190709 -0.2401007 5.286622 234 88 12
-4.2264705 -0.2122557 5.2665792 234 88 12
-4.2383852 -0.18585636 5.2523799 234 88 12
-4.249866 -0.15945469 5.2377524 234 88 12
-4.2562113 -0.13177386 5.2168365 234 88 12
-4.2621212 -0.10414946 5.1955495 234 88 12
-4.268517 -0.076827452 5.175035 234 88 12
-4.2774768 -0.050333355 5.157846 234 88 12
-4.2900639 -0.024894543 5.145247 234 88 12
-4.3025308 0.00047145295 5.1326022 234 88 12
-4.3179021 0.025031285 5.1235943 234 88 12
-4.3328309 0.049623538 5.114121 234 88 12
-4.3503308 0.073541738 5.1078286 234 88 12
-4.3672023 0.097552694 5.1008301 234 88 12
-4.3867526 0.12091059 5.0970974 234 88 12
-4.4088368 0.14368598 5.0964198 234 88 12
-4.2387757 -0.31792036 5.3265719 234 88 12
-4.2367206 -0.28675586 5.2942562 234 88 12
-4.2442589 -0.25870165 5.2742991 234 88 12
-4.2535925 -0.23133688 5.2567582 234 88 12
-4.2654657 -0.20484346 5.2425361 234 88 12
-4.2747326 -0.17773971 5.2251849 234 88 12
-4.2793055 -0.14949107 5.2021532 234 88 12
-4.2857413 -0.12193579 5.1816087 234 88 12
-4.2922835 -0.094578333 5.1613598 234 88 12
-4.2986612 -0.067344889 5.1410718 234 88 12
-4.3086405 -0.041193772 5.12534 234 88 12
-4.3199158 -0.015494347 5.1113086 234 88 12
-4.3324986 0.0097714905 5.0989704 234 88 12
-4.3467216 0.034544449 5.0887079 234 88 12
-4.3618345 0.059025791 5.0795941 234 88 12
-4.3777204 0.083256237 5.0714769 234 88 12
-4.3935823 0.1074271 5.0633941 234 88 12
-4.4097238 0.1314719 5.055706 234 88 12
-4.4288769 0.15480639 5.0516386 234 88 12
-4.4548187 0.17667706 5.0555987 234 88 12
-4.2681413 -0.36894622 5.348999 234 88 12
-4.2577376 -0.33481869 5.3060126 234 88 12
-4.2604051 -0.30501902 5.2798214 234 88 12
-4.2690282 -0.27721468 5.2613053 234 88 12
-4.2813258 -0.25064158 5.2475252 234 88 12
-4.2935848 -0.22417371 5.2338095 234 88 12
-4.3020778 -0.1967597 5.2155447 234 88 12
-4.3030753 -0.16742487 5.1881905 234 88 12
-4.3089571 -0.13964432 5.1670508 234 88 12
-4.3153114 -0.1121653 5.1466594 234 88 12
-4.3233128 -0.085285351 5.1284351 234 88 12
-4.3319077 -0.058707748 5.1110764 234 88 12
-4.3403049 -0.032222949 5.093616 234 88 12
-4.3500695 -0.0062178816 5.0779395 234 88 12
-4.3624334 0.019031776 5.0655003 234 88 12
-4.3753772 0.044043284 5.0538511 234 88 12
-4.3895311 0.068680055 5.0437322 234 88 12
-4.4031782 0.093350492 5.0330911 234 88 12
-4.4186988 0.1175192 5.0247426 234 88 12
-4.4350548 0.14143936 5.0174408 234 88 12
-4.4524164 0.16508722 5.011373 234 88 12
-4.4742746 0.18775043 5.0105958 234 88 12
-4.284224 -0.38502878 5.3245125 234 88 12
-4.2805967 -0.35293806 5.290298 234 88 12
-4.2877183 -0.32441896 5.2698016 234 88 12
-4.2965479 -0.29658684 5.2515988 234 88 12
-4.3124361 -0.27098694 5.2422957 234 88 12
-4.3205829 -0.24322854 5.2235098 234 88 12
-4.3373294 -0.21806954 5.2154512 234 88 12
-4.3404942 -0.18919386 5.1908226 234 88 12
-4.3331742 -0.15765686 5.1536016 234 88 12
-4.3396592 -0.13013601 5.1334505 234 88 12
-4.347362 -0.10310357 5.1149349 234 88 12
-4.3568678 -0.076690182 5.0987391 234 88 12
-4.3728442 -0.023508478 5.0630999 234 88 12
-4.38132 0.0027448409 5.0460706 234 88 12
-4.3917251 0.028398843 5.0314636 234 88 12
-4.4035954 0.05359146 5.018702 234 88 12
-4.416389 0.078469463 5.0071263 234 88 12
-4.4305677 0.10294326 4.9972649 234 88 12
-4.4444814 0.12739621 4.9871693 234 88 12
-4.460423 0.15133244 4.9795113 234 88 12
-4.4756503 0.17535794 4.9710832 234 88 12
-4.4960747 0.19824721 4.9687219 234 88 12
-4.5220881 0.21999335 4.9728093 234 88 12
-4.3096042 -0.4353843 5.3414426 234 88 12
-4.3059616 -0.40290788 5.3071089 234 88 12
-4.305366 -0.37168044 5.2768593 234 88 12
-4.3122268 -0.34300229 5.2561207 234 88 12
-4.325491 -0.31643328 5.2434735 234 88 12
-4.3440533 -0.29154214 5.2374578 234 88 12
-4.3723807 -0.26954374 5.2434735 234 88 12
-4.4441681 -0.25991482 5.3025594 234 88 12
-4.446909 -0.20036483 5.2485585 234 88 12
-4.3653259 -0.14849809 5.121706 234 88 12
-4.3781776 -0.12275096 5.109448 234 88 12
-4.3830128 -0.095018663 5.0876832 234 88 12
-4.3898182 -0.067969985 5.0684404 234 88 12
-4.3976626 -0.041340381 5.0505838 234 88 12
-4.4044209 -0.014590944 5.0315814 234 88 12
-4.4117208 0.011872444 5.0133653 234 88 12
-4.4211683 0.037680525 4.9978137 234 88 12
-4.4304562 0.063399136 4.9821949 234 88 12
-4.4438553 0.088060446 4.9714894 234 88 12
-4.456213 0.11286616 4.9596572 234 88 12
-4.4692745 0.13742413 4.948729 234 88 12
-4.4841547 0.16150838 4.9399796 234 88 12
-4.4989738 0.18553542 4.9312272 234 88 12
-4.517261 0.20878813 4.926507 234 88 12
-4.5363235 0.23184939 4.9227061 234 88 12
-4.3257799 -0.4515599 5.3168144 234 88 12
-4.3274817 -0.4207392 5.2893472 234 88 12
-4.3312125 -0.39079505 5.2646203 234 88 12
-4.3407431 -0.36285633 5.2472563 234 88 12
-4.3564262 -0.33693478 5.2375984 234 88 12
-4.378531 -0.31301129 5.2358832 234 88 12
-4.4535971 -0.30461732 5.2987738 234 88 12
-4.5003242 -0.28753239 5.3267345 234 88 12
-4.4211001 -0.058860812 5.0363021 234 88 12
-4.4285984 -0.03222385 5.018249 234 88 12
-4.4334149 -0.0050844289 4.9971919 234 88 12
-4.4428687 0.020778777 4.9817138 234 88 12
-4.4481878 0.047479674 4.9615445 234 88 12
-4.4591994 0.072716065 4.9481263 234 88 12
-4.4700074 0.097889252 4.934576 234 88 12
-4.4823465 0.12261751 4.9228897 234 88 12
-4.494194 0.1473572 4.9107289 234 88 12
-4.5078673 0.17161632 4.900743 234 88 12
-4.5229235 0.19551173 4.892405 234 88 12
-4.5377045 0.21939602 4.8838181 234 88 12
-4.555974 0.24252754 4.8792324 234 88 12
-4.3492007 -0.50181466 5.3308678 234 88 12
-4.3464217 -0.4691959 5.2977338 234 88 12
-4.3516245 -0.43943429 5.274745 234 88 12
-4.3565602 -0.40978944 5.2516155 234 88 12
-4.3694153 -0.38280693 5.2383914 234 88 12
-4.3879914 -0.3576864 5.2322655 234 88 12
-4.4149513 -0.33513507 5.236392 234 88 12
-4.4534411 -0.050057419 5.0055709 234 88 12
-4.4582629 -0.022838265 4.9846053 234 88 12
-4.4644413 0.0038825355 4.9653764 234 88 12
-4.4706297 0.030443113 4.9463067 234 88 12
-4.4766922 0.0568766 4.9272385 234 88 12
-4.4859786 0.082427025 4.912014 234 88 12
-4.4966645 0.10754438 4.8985052 234 88 12
-4.5066433 0.13270563 4.8842936 234 88 12
-4.5186963 0.1573128 4.8725419 234 88 12
-4.53057 0.18186283 4.8606763 234 88 12
-4.5456719 0.20566328 4.8525338 234 88 12
-4.5653849 0.22848445 4.8496246 234 88 12
-4.5876818 0.25078151 4.8496246 234 88 12
-4.3755164 -0.55351365 5.348361 234 88 12
-4.3653479 -0.51803911 5.305963 234 88 12
-4.367722 -0.48706505 5.2793961 234 88 12
-4.3736973 -0.45749035 5.2574749 234 88 12
-4.3840432 -0.42949814 5.2410831 234 88 12
-4.3991179 -0.40312791 5.2305903 234 88 12
-4.4201336 -0.37867495 5.2273974 234 88 12
-4.4866953 -0.041513663 4.9760365 234 88 12
-4.4874773 -0.013392279 4.9506412 234 88 12
-4.4927244 0.013460651 4.9305711 234 88 12
-4.498517 0.040021602 4.9112797 234 88 12
-4.5041223 0.066467389 4.8919206 234 88 12
-4.5135942 0.091892533 4.8771014 234 88 12
-4.5211329 0.11761945 4.8602066 234 88 12
-4.5312443 0.14265938 4.8463392 234 88 12
-4.5423226 0.16738506 4.833662 234 88 12
-4.5590439 0.19085287 4.8273954 234 88 12
-4.5785666 0.21370929 4.8242984 234 88 12
-4.6018767 0.23579903 4.8254323 234 88 12
-4.382153 -0.56655008 5.3114285 234 88 12
-4.3838377 -0.53505063 5.2839451 234 88 12
-4.3887057 -0.50484884 5.260592 234 88 12
-4.3977594 -0.47621587 5.2425437 234 88 12
-4.4115849 -0.44926879 5.2304482 234 88 12
-4.4300013 -0.42387211 5.2240138 234 88 12
-4.4574404 -0.40132192 5.2285204 234 88 12
-4.5173011 -0.004141985 4.9175773 234 88 12
-4.5206461 0.023069544 4.8955774 234 88 12
-4.525322 0.049794398 4.8752522 234 88 12
-4.5334129 0.075583726 4.8589377 234 88 12
-4.539288 0.10172831 4.8402534 234 88 12
-4.5474634 0.12722415 4.8242874 234 88 12
-4.5568209 0.15234074 4.8097606 234 88 12
-4.5700707 0.17653483 4.7996721 234 88 12
-4.5883217 0.19963562 4.7952013 234 88 12
-4.6093192 0.22215694 4.793797 234 88 12
-4.3979163 -0.58268631 5.2858634 234 88 12
-4.4024844 -0.55212343 5.2620845 234 88 12
-4.4112277 -0.52316201 5.2435894 234 88 12
-4.423316 -0.49545988 5.2293067 234 88 12
-4.438354 -0.46883371 5.2187061 234 88 12
-4.4616423 -0.44491181 5.2181263 234 88 12
-4.5567021 0.0027983782 4.8955336 234 88 12
-4.5486941 0.03259464 4.8609514 234 88 12
-4.5522928 0.059470091 4.8396587 234 88 12
-4.5581746 0.085662812 4.8210788 234 88 12
-4.5652742 0.11143813 4.8039951 234 88 12
-4.5723963 0.13706942 4.7870636 234 88 12
-4.5858302 0.16124503 4.7772369 234 88 12
-4.6034775 0.18447995 4.7721257 234 88 12
-4.6244717 0.20700446 4.7707262 234 88 12
-4.4151983 -0.59934527 5.2621632 234 88 12
-4.4241843 -0.57024294 5.2439017 234 88 12
-4.4339495 -0.54156548 5.2267332 234 88 12
-4.449018 -0.51478672 5.2161026 234 88 12
-4.470511 -0.49018213 5.2132783 234 88 12
-4.506763 -0.47030035 5.2281389 234 88 12
-4.5770693 0.04199164 4.8269105 234 88 12
-4.576889 0.069621556 4.8016644 234 88 12
-4.5869102 0.094800666 4.7879043 234 88 12
-4.5933948 0.12062877 4.7703443 234 88 12
-4.6046209 0.14531365 4.7581267 234 88 12
-4.6232839 0.16836441 4.7541437 234 88 12
-4.6455708 0.19065115 4.7541437 234 88 12
-4.4457211 -0.62060565 5.254518 234 88 12
-4.4446201 -0.58795041 5.2241082 234 88 12
-4.4587903 -0.56070542 5.2123294 234 88 12
-4.4762444 -0.53465331 5.2045841 234 88 12
-4.5023236 -0.51147789 5.2071996 234 88 12
-4.6107831 0.077641711 4.7741899 234 88 12
-4.62745 0.10132739 4.7678671 234 88 12
-4.6479254 0.12415069 4.7657518 234 88 12
-4.6655068 0.14755964 4.7605023 234 88 12
-4.4889584 -0.58167827 5.2041693 234 88 12
-4.5109887 -0.55706155 5.2018571 234 88 12
-4.0510187 -0.11120444 5.610333 234 88 12
-4.0202518 -0.14415245 5.6788926 234 88 12
-4.0264878 -0.14323474 5.62536 234 88 12
-4.0367079 -0.14247204 5.5808692 234 88 12
-3.9863849 -0.17753132 5.7430854 234 88 12
-3.9954498 -0.1765058 5.6941409 234 88 12
-4.0063162 -0.1755756 5.6497445 234 88 12
-4.0194921 -0.17476052 5.6108432 234 88 12
-4.0337043 -0.17400293 5.5746856 234 88 12
-3.947216 -0.21292037 5.8687072 234 88 12
-3.9512188 -0.21138208 5.8065839 234 88 12
-3.9615245 -0.21020335 5.7589812 234 88 12
-3.9742599 -0.20917156 5.7173133 234 88 12
-3.9884307 -0.20823132 5.6793418 234 88 12
-4.0029325 -0.20732319 5.6426673 234 88 12
-4.0187716 -0.20649813 5.6093478 234 88 12
-4.0355248 -0.20573264 5.5784335 234 88 12
-3.9071653 -0.24728894 5.9251132 234 88 12
-3.913094 -0.24559169 5.8657088 234 88 12
-3.9263115 -0.24437624 5.8231683 234 88 12
-3.9413483 -0.24329311 5.7852588 234 88 12
-3.9551322 -0.24215096 5.7452836 234 88 12
-3.9705734 -0.24112794 5.7094779 234 88 12
-3.9870837 -0.24018577 5.6765018 234 88 12
-4.0037637 -0.23926874 5.6444058 234 88 12
-4.0215464 -0.2384316 5.6151061 234 88 12
-4.0409713 -0.2377042 5.5896468 234 88 12
-3.8907197 -0.27908117 5.8886828 234 88 12
-3.9060471 -0.27783599 5.8502288 234 88 12
-3.9205534 -0.27655357 5.8106246 234 88 12
-3.9365838 -0.27539885 5.7749648 234 88 12
-3.9539382 -0.2743549 5.7427249 234 88 12
-3.9712822 -0.27332711 5.7109847 234 88 12
-3.9890196 -0.27234271 5.6805835 234 88 12
-4.0079579 -0.27145532 5.6531787 234 88 12
-4.0263472 -0.27054507 5.6250682 234 88 12
-4.0461984 -0.26974654 5.6004081 234 88 12
-3.872889 -0.31312719 5.9221988 234 88 12
-3.8871369 -0.311627 5.8807464 234 88 12
-3.9038785 -0.31035018 5.8454652 234 88 12
-3.9194546 -0.30900264 5.8082309 234 88 12
-3.9375999 -0.30787817 5.7771602 234 88 12
-3.9550822 -0.30672064 5.7451758 234 88 12
-3.9746547 -0.30574265 5.7181525 234 88 12
-3.9942045 -0.30477867 5.6915154 234 88 12
-4.0135202 -0.3038123 5.6648135 234 88 12
-4.0328345 -0.30286109 5.6385303 234 88 12
-4.0531726 -0.30200112 5.6147676 234 88 12
-3.8701167 -0.34584022 5.9160056 234 88 12
-3.887958 -0.3445026 5.882565 234 88 12
-3.9049678 -0.34311432 5.847858 234 88 12
-3.9215918 -0.34171546 5.8128867 234 88 12
-3.9411347 -0.34059188 5.7847972 234 88 12
-3.960032 -0.33943132 5.7557826 234 88 12
-3.9793711 -0.33832711 5.7281775 234 88 12
-3.9999316 -0.33734363 5.7035909 234 88 12
-4.0202365 -0.33635443 5.6788611 234 88 12
-4.0403552 -0.33536544 5.6541362 234 88 12
-4.0635324 -0.33464387 5.6360965 234 88 12
-3.8716595 -0.37892839 5.9194522 234 88 12
-3.8893998 -0.37745228 5.8857589 234 88 12
-3.908031 -0.37608668 5.8545871 234 88 12
-3.9263952 -0.37471822 5.8233504 234 88 12
-3.9464476 -0.37353209 5.7962756 234 88 12
-3.9653573 -0.37225804 5.7671943 234 88 12
-3.9871702 -0.37127495 5.7447543 234 88 12
-4.0075283 -0.37017331 5.7196078 234 88 12
-4.029788 -0.36926344 5.6988397 234 88 12
-4.0558748 -0.36871588 5.6863408 234 88 12
-4.0838008 -0.36834282 5.6778255 234 88 12
-3.8784044 -0.4125962 5.9345202 234 88 12
-3.8928516 -0.41063836 5.8934054 234 88 12
-3.9125748 -0.40926516 5.8645682 234 88 12
-3.9319444 -0.40787807 5.8354392 234 88 12
-3.9528048 -0.40666717 5.8100104 234 88 12
-3.9758124 -0.40569514 5.789598 234 88 12
-3.997479 -0.40460315 5.7666659 234 88 12
-4.0241799 -0.40403411 5.7547164 234 88 12
-4.0546641 -0.403851 5.7508712 234 88 12
-3.9131393 -0.44580066 5.9383464 234 88 12
-3.9195282 -0.44279188 5.8798423 234 88 12
-3.9417963 -0.44161204 5.8569007 234 88 12
-3.9650772 -0.44056413 5.8365245 234 88 12
-3.9914675 -0.43987599 5.8231444 234 88 12
-3.8823161 -0.41172552 5.9492245 234 88 12
-3.8756802 -0.3740533 5.9415174 234 88 12
-3.8743196 -0.33671927 5.9419227 234 88 12
-3.8761203 -0.29952049 5.9471931 234 88 12
-3.9082146 -0.44723472 5.918056 234 88 12
-3.9014735 -0.40957338 5.9102516 234 88 12
-3.8959687 -0.37205359 5.9043283 234 88 12
-3.8922353 -0.33467677 5.9011045 234 88 12
-3.8925619 -0.29750544 5.9040751 234 88 12
-3.8969955 -0.26045704 5.9133182 234 88 12
-3.9315038 -0.44530171 5.8855796 234 88 12
-3.9227571 -0.40757164 5.8748031 234 88 12
-3.916342 -0.37007168 5.8675466 234 88 12
-3.9117007 -0.33272606 5.8629704 234 88 12
-3.9104695 -0.29556841 5.8635535 234 88 12
-3.9138331 -0.258571 5.8710938 234 88 12
-3.9241896 -0.22170869 5.8892303 234 88 12
-3.9551964 -0.44340745 5.8539085 234 88 12
-3.9458716 -0.40569752 5.84235 234 88 12
-3.9375808 -0.36815092 5.8323359 234 88 12
-3.9320796 -0.33083308 5.8265018 234 88 12
-3.9293885 -0.29368761 5.8248839 234 88 12
-3.9310865 -0.25671306 5.8298554 234 88 12
-3.9369922 -0.21981394 5.8411503 234 88 12
-3.9810061 -0.44166943 5.8255734 234 88 12
-3.9690065 -0.40383461 5.8101277 234 88 12
-3.9596109 -0.36628553 5.7985482 234 88 12
-3.9526465 -0.32896081 5.7905803 234 88 12
-3.9484892 -0.29182658 5.7867875 234 88 12
-3.9476953 -0.25484517 5.7880015 234 88 12
-3.9520154 -0.21799739 5.7968354 234 88 12
-3.9733269 -0.18143386 5.8309965 234 88 12
-4.0092945 -0.44010815 5.8010278 234 88 12
-3.9925854 -0.40200889 5.778758 234 88 12
-3.9823177 -0.36446768 5.7659826 234 88 12
-3.9747193 -0.32717222 5.7571397 234 88 12
-3.9693232 -0.29004911 5.7515445 234 88 12
-3.9673939 -0.25309744 5.7510672 234 88 12
-3.968591 -0.21623741 5.7552094 234 88 12
-3.9769619 -0.17949082 5.7699571 234 88 12
-4.0176935 -0.40028569 5.7498088 234 88 12
-4.006115 -0.36271855 5.7352152 234 88 12
-3.9973776 -0.32542101 5.7247739 234 88 12
-3.9902854 -0.28828675 5.7167363 234 88 12
-3.9860413 -0.25132388 5.7128668 234 88 12
-3.9856286 -0.2145019 5.7146106 234 88 12
-3.991396 -0.17779212 5.7254152 234 88 12
-4.0440927 -0.39864776 5.7228765 234 88 12
-4.0302029 -0.36099315 5.7050443 234 88 12
-4.01967 -0.32366112 5.6920767 234 88 12
-4.0117545 -0.28655452 5.6829042 234 88 12
-4.0059152 -0.24960259 5.676744 234 88 12
-4.0028691 -0.21278311 5.6746407 234 88 12
-4.0052567 -0.1760938 5.6804366 234 88 12
-4.0164337 -0.13947129 5.6990223 234 88 12
-4.0751772 -0.39729628 5.7028017 234 88 12
-4.0540485 -0.35926244 5.6746874 234 88 12
-4.0425959 -0.32193965 5.6604962 234 88 12
-4.0341258 -0.28486732 5.6505961 234 88 12
-4.0260348 -0.24789909 5.6412358 234 88 12
-4.021739 -0.21111868 5.6373434 234 88 12
-4.0211086 -0.17444766 5.6387343 234 88 12
-4.0268435 -0.13784881 5.6493111 234 88 12
-4.0798311 -0.35764164 5.6472645 234 88 12
-4.0666056 -0.32027632 5.6306524 234 88 12
-4.0566759 -0.28319517 5.618742 234 88 12
-4.0472999 -0.24624255 5.6076169 234 88 12
-4.0405183 -0.20946126 5.6001959 234 88 12
-4.0376997 -0.17282672 5.5984411 234 88 12
-4.0391331 -0.13626391 5.6027699 234 88 12
-4.0531607 -0.09974166 5.6251297 234 88 12
-4.1095524 -0.35623214 5.6255426 234 88 12
-4.0897274 -0.31857929 5.5997086 234 88 12
-4.0775681 -0.28146586 5.5847292 234 88 12
-4.0676851 -0.24456555 5.5729709 234 88 12
-4.0603838 -0.20784132 5.5648675 234 88 12
-4.0559974 -0.17124873 5.5608969 234 88 12
-4.0562453 -0.13475205 5.5635028 234 88 12
-4.0613904 -0.098261148 5.5730643 234 88 12
-4.1082196 -0.31668073 5.5624304 234 88 12
-4.0985847 -0.27975044 5.5511174 234 88 12
-4.0890784 -0.24292958 5.539979 234 88 12
-4.0817122 -0.20626709 5.531846 234 88 12
-4.0766044 -0.16972321 5.5268874 234 88 12
-4.0746665 -0.13326491 5.5263906 234 88 12
-4.0762591 -0.096831925 5.5308666 234 88 12
-4.1434631 -0.35210991 5.5465755 234 88 12
-4.1314135 -0.31500426 5.5319886 234 88 12
-4.1207108 -0.27808613 5.5192733 234 88 12
-4.1067581 -0.24118374 5.5020146 234 88 12
-4.0923948 -0.20443214 5.4841723 234 88 12
-4.0883245 -0.16803898 5.4806948 234 88 12
-4.0946016 -0.13180365 5.4916701 234 88 12
-4.0949774 -0.095432796 5.4944057 234 88 12
-4.0998983 -0.059032094 5.5034957 234 88 12
-4.1706443 -0.35058868 5.5217052 234 88 12
-4.1540132 -0.31330881 5.5008936 234 88 12
-4.1351357 -0.27613887 5.4769602 234 88 12
-4.1214261 -0.2393544 5.4601688 234 88 12
-4.1111884 -0.20281313 5.4481773 234 88 12
-4.1073713 -0.16650161 5.4450736 234 88 12
-4.1057949 -0.13024563 5.4450736 234 88 12
-4.1048646 -0.093993083 5.4459691 234 88 12
-4.0514283 -0.057793826 5.3740606 234 88 12
-4.0434437 -0.021919802 5.3651524 234 88 12
-4.0486889 0.01405823 5.3745937 234 88 12
-4.1775174 -0.31166068 5.4712191 234 88 12
-4.1614423 -0.27464905 5.4513211 234 88 12
-4.1480112 -0.2379057 5.4350443 234 88 12
-4.1383047 -0.20140599 5.4238763 234 88 12
-4.1264935 -0.1649733 5.4098091 234 88 12
-4.1046457 -0.12855716 5.3819351 234 88 12
-4.0747018 -0.092361882 5.3429132 234 88 12
-4.0475607 -0.056529235 5.307724 234 88 12
-4.0309181 -0.020944659 5.2869606 234 88 12
-4.0281067 0.014643011 5.2852221 234 88 12
-4.0652771 0.051046118 5.3385258 234 88 12
-4.205791 -0.31022558 5.4481959 234 88 12
-4.1890154 -0.27320966 5.4275007 234 88 12
-4.1737452 -0.23643422 5.4088454 234 88 12
-4.154016 -0.19972707 5.3841019 234 88 12
-4.130619 -0.1631881 5.3543439 234 88 12
-4.1113129 -0.12697512 5.3301477 234 88 12
-4.0935597 -0.09099739 5.3080573 234 88 12
-4.0599098 -0.055253658 5.2642608 234 88 12
-4.0541816 -0.019697485 5.2585535 234 88 12
-4.0521703 0.015858773 5.2579184 234 88 12
-4.0517573 0.051442496 5.2594662 234 88 12
-4.2250814 -0.30840826 5.4130859 234 88 12
-4.2020998 -0.271245 5.3841619 234 88 12
-4.1825213 -0.23445681 5.3598232 234 88 12
-4.1664176 -0.19798046 5.3401694 234 88 12
-4.1498113 -0.16168083 5.3198256 234 88 12
-4.1374421 -0.12561947 5.3052039 234 88 12
-4.1075802 -0.08961682 5.2668972 234 88 12
-4.0872302 -0.053958226 5.2414474 234 88 12
-4.0835962 -0.018402092 5.2386212 234 88 12
-4.0809879 0.017142354 5.2371821 234 88 12
-4.0808587 0.05272539 5.2391019 234 88 12
-4.2289081 -0.30594662 5.3574872 234 88 12
-4.2140765 -0.26925537 5.3397098 234 88 12
-4.2016845 -0.23280457 5.3251953 234 88 12
-4.189734 -0.19650131 5.3112655 234 88 12
-4.1779819 -0.16033319 5.2975936 234 88 12
-4.1679444 -0.12431265 5.2862163 234 88 12
-4.1574969 -0.088398024 5.274282 234 88 12
-4.1197205 -0.052653193 5.2256341 234 88 12
-4.1124082 -0.017111966 5.2178884 234 88 12
-4.1108623 0.018441249 5.2178884 234 88 12
-4.1175508 0.054168765 5.2289577 234 88 12
-4.2756968 -0.37777108 5.3553948 234 88 12
-4.2595801 -0.34077331 5.3360634 234 88 12
-4.2471571 -0.30411342 5.3216338 234 88 12
-4.2370815 -0.26767373 5.3103194 234 88 12
-4.2285357 -0.23138611 5.3010349 234 88 12
-4.2193985 -0.19517292 5.2909579 234 88 12
-4.2096381 -0.15904491 5.2800455 234 88 12
-4.200985 -0.12303187 5.2706022 234 88 12
-4.1916747 -0.087105788 5.2602773 234 88 12
-4.1866937 -0.051267751 5.2557168 234 88 12
-4.183991 -0.015453362 5.25419 234 88 12
-4.1872406 0.02043554 5.2605991 234 88 12
-4.1973448 0.056531232 5.276154 234 88 12
-4.3210931 -0.44981992 5.3511729 234 88 12
-4.3089256 -0.41281155 5.3372149 234 88 12
-4.2943811 -0.37580743 5.3201146 234 88 12
-4.2829046 -0.33911201 5.3070512 234 88 12
-4.27314 -0.30261159 5.2962403 234 88 12
-4.2660875 -0.26630926 5.2890038 234 88 12
-4.2589321 -0.23007272 5.2816272 234 88 12
-4.2511292 -0.19389166 5.2733912 234 88 12
-4.2433476 -0.15778926 5.2651796 234 88 12
-4.2347121 -0.12175635 5.2558341 234 88 12
-4.2273641 -0.08581721 5.2481856 234 88 12
-4.2216778 -0.049946669 5.2427306 234 88 12
-4.2189207 -0.01410225 5.2411461 234 88 12
-4.2195401 0.021778079 5.2440271 234 88 12
-4.2226081 0.057738252 5.2501497 234 88 12
-4.3702869 -0.55877793 5.3495851 234 88 12
-4.3616991 -0.52177191 5.3404312 234 88 12
-4.3521132 -0.48478106 5.329968 234 88 12
-4.3408723 -0.44778061 5.3173332 234 88 12
-4.3296399 -0.41090092 5.3047042 234 88 12
-4.3198376 -0.37421784 5.2939386 234 88 12
-4.3112388 -0.33769408 5.2847433 234 88 12
-4.3032017 -0.30128092 5.276278 234 88 12
-4.2967987 -0.26500514 5.2699485 234 88 12
-4.2904792 -0.22879207 5.2637243 234 88 12
-4.2819633 -0.19258942 5.2546191 234 88 12
-4.2720103 -0.15645051 5.2436256 234 88 12
-4.2615147 -0.12041113 5.231914 234 88 12
-4.2528114 -0.08448977 5.2225475 234 88 12
-4.247334 -0.048648965 5.2174072 234 88 12
-4.2437725 -0.012839989 5.2147779 234 88 12
-4.2431612 0.022988888 5.2160192 234 88 12
-4.2451391 0.058885336 5.2206602 234 88 12
-4.395524 -0.59327465 5.3207498 234 88 12
-4.3877101 -0.55633789 5.3126707 234 88 12
-4.3805671 -0.51953024 5.3054571 234 88 12
-4.3724518 -0.48272189 5.296979 234 88 12
-4.3651237 -0.44604576 5.2895174 234 88 12
-4.3567057 -0.40937638 5.2806368 234 88 12
-4.3484497 -0.37280035 5.2719622 234 88 12
-4.3416133 -0.33637345 5.2651267 234 88 12
-4.3353167 -0.30003369 5.2589889 234 88 12
-4.3280005 -0.26371753 5.2515225 234 88 12
-4.321991 -0.22750948 5.24575 234 88 12
-4.3079953 -0.19118145 5.2295918 234 88 12
-4.2961669 -0.15504192 5.2162433 234 88 12
-4.2862473 -0.11904813 5.2053704 234 88 12
-4.277988 -0.083163753 5.1966524 234 88 12
-4.272017 -0.047356036 5.1909084 234 88 12
-4.2687774 -0.011578228 5.1887164 234 88 12
-4.2673202 0.024206053 5.1888447 234 88 12
-4.2685394 0.060049474 5.1924596 234 88 12
-4.2742262 0.096052021 5.2018971 234 88 12
-4.4292269 -0.6285038 5.3029456 234 88 12
-4.4162292 -0.59106028 5.2882643 234 88 12
-4.4090843 -0.5542441 5.281105 234 88 12
-4.4035172 -0.51761794 5.2759733 234 88 12
-4.3981872 -0.48105761 5.2711434 234 88 12
-4.3931589 -0.44456306 5.2666998 234 88 12
-4.3866377 -0.40802348 5.2603302 234 88 12
-4.3806601 -0.37157336 5.2546582 234 88 12
-4.3741784 -0.33515418 5.2483335 234 88 12
-4.3689561 -0.29884607 5.2436285 234 88 12
-4.3647203 -0.26261652 5.2401929 234 88 12
-4.3539424 -0.22623818 5.2283182 234 88 12
-4.3358011 -0.18981466 5.2069378 234 88 12
-4.320981 -0.15364718 5.1898317 234 88 12
-4.3123579 -0.11770083 5.1807156 234 88 12
-4.3041158 -0.081843033 5.1720862 234 88 12
-4.2981672 -0.04606076 5.1664138 234 88 12
-4.293601 -0.010319978 5.1625242 234 88 12
-4.2911267 0.025416007 5.1613359 234 88 12
-4.291317 0.061198533 5.16359 234 88 12
-4.2961378 0.097132146 5.1718326 234 88 12
-4.4559288 -0.62680304 5.2781987 234 88 12
-4.4387693 -0.58902216 5.2583179 234 88 12
-4.4329844 -0.55237085 5.2529478 234 88 12
-4.4312415 -0.51607996 5.2527366 234 88 12
-4.4279528 -0.47968242 5.2505503 234 88 12
-4.4240403 -0.44326577 5.2475662 234 88 12
-4.4192023 -0.40682396 5.2433977 234 88 12
-4.413826 -0.3703942 5.2385387 234 88 12
-4.4100213 -0.33408308 5.2356868 234 88 12
-4.4084477 -0.29788783 5.2356868 234 88 12
-4.4640417 -0.26361001 5.3088241 234 88 12
-4.4424443 -0.22651501 5.2832198 234 88 12
-4.3660293 -0.18850099 5.1874337 234 88 12
-4.3474417 -0.15228058 5.1656365 234 88 12
-4.3385768 -0.11635669 5.15628 234 88 12
-4.3311701 -0.080526814 5.1487865 234 88 12
-4.3239923 -0.044768218 5.141582 234 88 12
-4.319006 -0.0090580396 5.1371827 234 88 12
-4.3159781 0.026640549 5.1352921 234 88 12
-4.3148589 0.062362663 5.135848 234 88 12
-4.3177347 0.098202132 5.1415291 234 88 12
-4.4660921 -0.58741575 5.2345862 234 88 12
-4.4632668 -0.55102897 5.233006 234 88 12
-4.4616899 -0.51475203 5.233006 234 88 12
-4.458961 -0.47839469 5.2315469 234 88 12
-4.4558907 -0.44202968 5.2296534 234 88 12
-4.4530044 -0.4056935 5.227993 234 88 12
-4.4514284 -0.36944067 5.227993 234 88 12
-4.4597011 -0.18851446 5.2485099 234 88 12
-4.3750463 -0.15093315 5.1429677 234 88 12
-4.3667312 -0.11503145 5.1343808 234 88 12
-4.3588672 -0.079213671 5.1263633 234 88 12
-4.3511167 -0.043472786 5.1184859 234 88 12
-4.3444896 -0.0077969641 5.1120329 234 88 12
-4.3403239 0.027855594 5.1087079 234 88 12
-4.3387728 0.063533515 5.1087079 234 88 12
-4.3404541 0.099302322 5.112823 234 88 12
-4.3478327 0.135306 5.1241932 234 88 12
-4.4996052 -0.5863542 5.2186956 234 88 12
-4.4937496 -0.54970366 5.2133198 234 88 12
-4.4922471 -0.51343226 5.2134137 234 88 12
-4.4907427 -0.47715989 5.2135053 234 88 12
-4.4903965 -0.44095969 5.215054 234 88 12
-4.4059634 -0.14963526 5.1245241 234 88 12
-4.3979955 -0.11373342 5.1164422 234 88 12
-4.3865051 -0.077901512 5.1039124 234 88 12
-4.378027 -0.04217935 5.0951767 234 88 12
-4.3702345 -0.0065348744 5.0873022 234 88 12
-4.3660941 0.029091792 5.084033 234 88 12
-4.3632517 0.064715505 5.0824018 234 88 12
-4.3632493 0.10040349 5.0843563 234 88 12
-4.3688865 0.13630384 5.0934358 234 88 12
-4.4345269 -0.11247768 5.1050706 234 88 12
-4.413918 -0.076590016 5.0812273 234 88 12
-4.4043555 -0.040889487 5.0712004 234 88 12
-4.3965955 -0.0052680485 5.063426 234 88 12
-4.3907194 0.030308358 5.0580063 234 88 12
-4.3873415 0.065887652 5.0557146 234 88 12
-4.3860531 0.10150378 5.0560408 234 88 12
-4.3883576 0.13724649 5.0608706 234 88 12
-4.4403715 -0.075277947 5.0574002 234 88 12
-4.430706 -0.039601002 5.0473218 234 88 12
-4.4214497 -0.0040178415 5.0377464 234 88 12
-4.4153032 0.031522777 5.0320311 234 88 12
-4.4102969 0.067033239 5.0277305 234 88 12
-4.408473 0.10259207 5.0273852 234 88 12
-4.4100318 0.13826393 5.0312481 234 88 12
-4.4154553 0.17412969 5.0399213 234 88 12
-4.4703784 -0.073973291 5.0380211 234 88 12
-4.4560294 -0.038318455 5.0222459 234 88 12
-4.4469619 -0.002762516 5.0129752 234 88 12
-4.4395337 0.03272992 5.0057216 234 88 12
-4.4335074 0.068183057 5.0001941 234 88 12
-4.4306264 0.10367167 4.9985447 234 88 12
-4.4313126 0.13926704 5.001298 234 88 12
-4.4354496 0.17502894 5.0083132 234 88 12
-4.4821148 -0.037034243 4.9981904 234 88 12
-4.4716859 -0.001516971 4.9873233 234 88 12
-4.4630404 0.033923566 4.9786329 234 88 12
-4.4574213 0.069347285 4.9736443 234 88 12
-4.4525108 0.14026655 4.9714093 234 88 12
-4.4546633 0.17589632 4.9759374 234 88 12
-4.4657469 0.21198545 4.9914126 234 88 12
-4.5099316 -0.035743281 4.9763079 234 88 12
-4.4963565 -0.00027370756 4.9617023 234 88 12
-4.4878497 0.035137199 4.9532461 234 88 12
-4.4801655 0.070483826 4.945785 234 88 12
-4.476243 0.10586476 4.9428911 234 88 12
-4.4736962 0.14126484 4.941668 234 88 12
-4.4753385 0.17682253 4.9455376 234 88 12
-4.4807515 0.21259342 4.9539952 234 88 12
-4.5430241 -0.034426965 4.9608207 234 88 12
-4.5223098 0.00098182017 4.9377251 234 88 12
-4.5113592 0.036327656 4.9263854 234 88 12
-4.5034752 0.07163173 4.9187379 234 88 12
-4.498312 0.10693856 4.9143682 234 88 12
-4.4944654 0.14224795 4.9115839 234 88 12
-4.4945269 0.17768827 4.9135141 234 88 12
-4.498374 0.21332341 4.9200139 234 88 12
-4.5473552 0.0022260598 4.9127316 234 88 12
-4.5343847 0.037508264 4.8990617 234 88 12
-4.5273056 0.072790198 4.8924332 234 88 12
-4.5203142 0.10800932 4.8859062 234 88 12
-4.5161757 0.14326286 4.8827915 234 88 12
-4.5145879 0.17858905 4.8827295 234 88 12
-4.5160546 0.21405646 4.8863263 234 88 12
-4.5258484 0.24999519 4.8999009 234 88 12
-4.5746675 0.0034941607 4.8905168 234 88 12
-4.558569 0.038706861 4.8732357 234 88 12
-4.5478539 0.073872216 4.8623381 234 88 12
-4.5420489 0.10907125 4.8572674 234 88 12
-4.5377989 0.14427404 4.8540411 234 88 12
-4.5361967 0.17955229 4.85396 234 88 12
-4.5369716 0.21494007 4.8567047 234 88 12
-4.5406194 0.25050524 4.8628664 234 88 12
-4.580512 0.039865497 4.8448696 234 88 12
-4.5696049 0.074980088 4.8338261 234 88 12
-4.5633926 0.11012074 4.828311 234 88 12
-4.5587173 0.14526008 4.824605 234 88 12
-4.5555873 0.18042535 4.8227201 234 88 12
-4.5561481 0.21574317 4.8251882 234 88 12
-4.5652518 0.2515319 4.837738 234 88 12
-4.6084232 0.041125484 4.8236194 234 88 12
-4.5945435 0.076160081 4.8091826 234 88 12
-4.5905976 0.11133867 4.8063593 234 88 12
-4.5823865 0.14634097 4.7985435 234 88 12
-4.5792403 0.18147102 4.7966518 234 88 12
-4.5797734 0.21675296 4.799067 234 88 12
-4.5850053 0.25230426 4.8069863 234 88 12
-4.6237893 0.077439189 4.7896218 234 88 12
-4.6163068 0.11251285 4.7827129 234 88 12
-4.6092534 0.1475326 4.7763 234 88 12
-4.6077237 0.18271258 4.7763 234 88 12
-4.6072764 0.21794274 4.7775574 234 88 12
-4.6101828 0.25336042 4.7827129 234 88 12
-4.6512222 0.11395419 4.7697439 234 88 12
-4.6390738 0.1488269 4.7575078 234 88 12
-4.6372848 0.18399784 4.7572088 234 88 12
-4.6375594 0.21926147 4.7592893 234 88 12
