ply
format ascii 1.0
element vertex 2068
property float x
property float y
property float z
property uchar red
property uchar green
property uchar blue
end_header
-0.057944287 0.11312933 2.2471309 234 88 12
-0.052425783 0.11312933 2.2471309 234 88 12
-0.041388776 0.10945032 2.2471309 234 88 12
-0.059783787 0.10761082 2.2471309 234 88 12
-0.052425783 0.10761082 2.2471309 234 88 12
-0.041388776 0.10761082 2.2471309 234 88 12
-0.032191269 0.10393181 2.2471309 234 88 12
-0.020576326 0.07045833 2.4026494 234 88 12
0.021823376 0.066717178 2.4026494 234 88 12
-0.059783787 0.096573815 2.2471309 234 88 12
-0.052425783 0.096573815 2.2471309 234 88 12
-0.041388776 0.096573815 2.2471309 234 88 12
-0.032191269 0.096573815 2.2471309 234 88 12
-0.021154264 0.096573815 2.2471309 234 88 12
-0.010599926 0.065470129 2.4026494 234 88 12
0.014341076 0.065470129 2.4026494 234 88 12
0.033046827 0.065470129 2.4026494 234 88 12
-0.0093528759 0.064223081 2.4026494 234 88 12
0.0068587754 0.064223081 2.4026494 234 88 12
0.011846975 0.064223081 2.4026494 234 88 12
0.021823376 0.064223081 2.4026494 234 88 12
0.033046827 0.064223081 2.4026494 234 88 12
-0.010117256 0.091055311 2.2471309 234 88 12
-0.057944287 0.085536808 2.2471309 234 88 12
-0.052425783 0.085536808 2.2471309 234 88 12
-0.041388776 0.085536808 2.2471309 234 88 12
-0.032191269 0.085536808 2.2471309 234 88 12
-0.021154264 0.085536808 2.2471309 234 88 12
-0.010117256 0.085536808 2.2471309 234 88 12
0.0009197506 0.085536808 2.2471309 234 88 12
-0.019536637 0.084658764 2.2415841 234 88 12
-0.010233477 0.084658764 2.2415841 234 88 12
-0.026979165 0.082798131 2.2415841 234 88 12
0.00093031605 0.082798131 2.2415841 234 88 12
0.011956758 0.080018304 2.2471309 234 88 12
-0.034421694 0.079076864 2.2415841 234 88 12
0.012094108 0.079076864 2.2415841 234 88 12
0.010599926 0.052999627 2.4026494 234 88 12
0.011846975 0.052999627 2.4026494 234 88 12
0.021823376 0.052999627 2.4026494 234 88 12
0.033046827 0.052999627 2.4026494 234 88 12
-0.057944287 0.074499801 2.2471309 234 88 12
-0.052425783 0.074499801 2.2471309 234 88 12
-0.041388776 0.074499801 2.2471309 234 88 12
-0.04000359 0.075355597 2.2415841 234 88 12
-0.03070043 0.075355597 2.2415841 234 88 12
-0.021397268 0.075355597 2.2415841 234 88 12
-0.010233477 0.075355597 2.2415841 234 88 12
0.00093031605 0.075355597 2.2415841 234 88 12
0.012094108 0.075355597 2.2415841 234 88 12
0.019314762 0.074499801 2.2471309 234 88 12
-0.043724854 0.071634337 2.2415841 234 88 12
0.023257902 0.071634337 2.2415841 234 88 12
-0.057944287 0.063462794 2.2471309 234 88 12
-0.052425783 0.063462794 2.2471309 234 88 12
-0.051167384 0.064191811 2.2415841 234 88 12
-0.041864224 0.064191811 2.2415841 234 88 12
-0.03070043 0.064191811 2.2415841 234 88 12
-0.021397268 0.064191811 2.2415841 234 88 12
-0.017733766 0.081575327 2.1093183 234 88 12
-0.010918136 0.068486489 2.2089071 234 88 12
-0.010055403 0.077091426 2.1434348 234 88 12
-0.0056925369 0.078557014 2.1322837 234 88 12
-0.0032448533 0.074631624 2.1621506 234 88 12
0.0011475048 0.079177827 2.1275599 234 88 12
0.0055720219 0.076893903 2.1449378 234 88 12
0.0075864103 0.07478033 2.1610193 234 88 12
0.010402185 0.079750083 2.1232059 234 88 12
0.010233477 0.064191811 2.2415841 234 88 12
0.012094108 0.064191811 2.2415841 234 88 12
0.023257902 0.064191811 2.2415841 234 88 12
0.030351769 0.063462794 2.2471309 234 88 12
0.021823376 0.043023229 2.4026494 234 88 12
0.033046827 0.043023229 2.4026494 234 88 12
-0.012092335 0.073653318 2.1528659 234 88 12
-0.0099657327 0.074189343 2.1486657 234 88 12
-0.0055641951 0.074560218 2.1457596 234 88 12
0.0033771801 0.075423688 2.1389935 234 88 12
0.013044608 0.07945352 2.1074164 234 88 12
-0.0160456 0.069530934 2.1684039 234 88 12
-0.0079749105 0.074052744 2.1318817 234 88 12
0.0032864152 0.071205661 2.1548774 234 88 12
0.0080192741 0.074464686 2.1285543 234 88 12
0.012521436 0.0739903 2.132386 234 88 12
0.03256106 0.060470544 2.2415841 234 88 12
-0.054888647 0.05860991 2.2415841 234 88 12
-0.019309955 0.07156042 2.1336632 234 88 12
-0.013793399 0.066844933 2.1729589 234 88 12
0.012710091 0.072794162 2.1233821 234 88 12
-0.040529128 0.038035028 2.4026494 234 88 12
-0.021996716 0.070621036 2.122196 234 88 12
-0.017512735 0.062839814 2.1891656 234 88 12
0.0011534862 0.070362657 2.1244197 234 88 12
0.016675204 0.067812502 2.1463678 234 88 12
-0.021438718 0.06657286 2.1376143 234 88 12
-0.018629691 0.064655989 2.1546712 234 88 12
-0.013902818 0.063097402 2.16854 234 88 12
-0.0054620691 0.064452417 2.1564827 234 88 12
0.0032829137 0.064563975 2.1554902 234 88 12
0.0053764996 0.063442692 2.1654675 234 88 12
-0.059783787 0.052425783 2.2471309 234 88 12
-0.056749281 0.053028014 2.2415841 234 88 12
-0.053028014 0.053028014 2.2415841 234 88 12
-0.041864224 0.053028014 2.2415841 234 88 12
-0.03070043 0.053028014 2.2415841 234 88 12
-0.026931515 0.066743322 2.1152589 234 88 12
-0.021438718 0.064316154 2.1376143 234 88 12
-0.0096634645 0.061201941 2.1662979 234 88 12
-0.0077573238 0.063166775 2.1482008 234 88 12
0.001108668 0.063194081 2.1479492 234 88 12
0.016947418 0.064400189 2.1368403 234 88 12
0.019138325 0.064169675 2.1389635 234 88 12
0.017676005 0.053028014 2.2415841 234 88 12
0.023257902 0.053028014 2.2415841 234 88 12
0.03256106 0.053028014 2.2415841 234 88 12
0.037709773 0.052425783 2.2471309 234 88 12
-0.025630428 0.061290152 2.1449575 234 88 12
0.010294025 0.062907927 2.1295152 234 88 12
0.014970475 0.063336626 2.1254232 234 88 12
0.016474992 0.058211643 2.1533751 234 88 12
-0.041776177 0.031799778 2.4026494 234 88 12
-0.021397268 0.047446117 2.2415841 234 88 12
-0.0224916 0.060372192 2.1085215 234 88 12
-0.01790183 0.053705495 2.1771493 234 88 12
-0.015964769 0.054280214 2.1712332 234 88 12
-0.011462407 0.053143889 2.1829305 234 88 12
0.0052843955 0.053900834 2.1751385 234 88 12
0.010810398 0.061258927 2.0993934 234 88 12
0.011933639 0.05532869 2.16044 234 88 12
0.028058628 0.031799778 2.4026494 234 88 12
0.033046827 0.031799778 2.4026494 234 88 12
-0.018347109 0.052882843 2.163398 234 88 12
-0.016317669 0.053304385 2.1588817 234 88 12
-0.0093766898 0.051050868 2.1830263 234 88 12
-0.0051051904 0.050030869 2.1939549 234 88 12
-0.0032827081 0.053617567 2.1555262 234 88 12
-0.0011723726 0.057446256 2.1145043 234 88 12
0.0010944537 0.053628236 2.1554117 234 88 12
-0.026813626 0.054793064 2.1179497 234 88 12
-0.021212688 0.052473489 2.1438599 234 88 12
-0.0099808658 0.052122299 2.1477828 234 88 12
-0.0052515897 0.049364943 2.1785831 234 88 12
-0.0033994599 0.053258207 2.1350944 234 88 12
-0.0010746981 0.050510809 2.1657834 234 88 12
0.0034815311 0.054543987 2.1207321 234 88 12
0.0074813566 0.050231963 2.1688983 234 88 12
0.010102075 0.052755281 2.1407123 234 88 12
0.012019804 0.051357344 2.1563275 234 88 12
0.014415618 0.052118003 2.1478307 234 88 12
0.017599992 0.055146646 2.1140003 234 88 12
-0.062331174 0.041864224 2.2415841 234 88 12
-0.053028014 0.041864224 2.2415841 234 88 12
-0.041864224 0.041864224 2.2415841 234 88 12
-0.03070043 0.041864224 2.2415841 234 88 12
-0.026813626 0.052461445 2.1179497 234 88 12
-0.0062370268 0.05613324 2.0751121 234 88 12
0.01481556 0.05128463 2.1316793 234 88 12
0.015869711 0.042008057 2.2399061 234 88 12
0.017380603 0.041164584 2.2497466 234 88 12
0.023257902 0.041864224 2.2415841 234 88 12
0.03256106 0.041864224 2.2415841 234 88 12
-0.021397268 0.04000359 2.2415841 234 88 12
-0.021664666 0.049030561 2.131371 234 88 12
0.011812173 0.046174858 2.1662371 234 88 12
0.015253328 0.050453313 2.1140003 234 88 12
0.015729688 0.045091771 2.179461 234 88 12
0.025719091 0.065054171 1.9357339 234 88 12
0.043228276 0.039549276 2.2471309 234 88 12
-0.024994589 0.048798963 2.1051352 234 88 12
-0.009370992 0.042690072 2.1833589 234 88 12
0.015729688 0.042994481 2.179461 234 88 12
0.043724854 0.038142957 2.2415841 234 88 12
-0.019944068 0.040937822 2.1789138 234 88 12
-0.018287759 0.041954271 2.165231 234 88 12
-0.0096187908 0.041681428 2.1689038 234 88 12
-0.007632676 0.042524908 2.1575494 234 88 12
0.0011290516 0.04403301 2.137248 234 88 12
0.003245241 0.042188134 2.1620829 234 88 12
0.0074647609 0.041589383 2.1701429 234 88 12
0.0098223509 0.04256352 2.1570296 234 88 12
0.011792011 0.041808039 2.1671994 234 88 12
-0.023882644 0.042078946 2.1329339 234 88 12
-0.016432473 0.040533431 2.1548634 234 88 12
-0.0056809625 0.042039122 2.1334989 234 88 12
0.015514974 0.038270272 2.186976 234 88 12
0.020574318 0.044779398 2.0946167 234 88 12
-0.0073965248 0.036982622 2.1752605 234 88 12
0.0078203315 0.039101657 2.1434751 234 88 12
0.012306932 0.039158419 2.1426237 234 88 12
0.01422415 0.038295791 2.1555631 234 88 12
0.04506778 0.032191269 2.2471309 234 88 12
-0.044270277 0.020576326 2.4026494 234 88 12
-0.064191811 0.03070043 2.2415841 234 88 12
-0.053028014 0.03070043 2.2415841 234 88 12
-0.041864224 0.03070043 2.2415841 234 88 12
-0.03070043 0.03070043 2.2415841 234 88 12
-0.021397268 0.03070043 2.2415841 234 88 12
-0.018898731 0.036685772 2.1463628 234 88 12
-0.0050900811 0.033594534 2.1955414 234 88 12
0.03085448 0.059893988 1.7771411 234 88 12
0.03448442 0.059893988 1.7771411 234 88 12
0.019536637 0.03070043 2.2415841 234 88 12
0.023257902 0.03070043 2.2415841 234 88 12
0.03256106 0.03070043 2.2415841 234 88 12
0.043724854 0.03070043 2.2415841 234 88 12
0.031799778 0.020576326 2.4026494 234 88 12
0.033046827 0.020576326 2.4026494 234 88 12
-0.009210282 0.031724304 2.1927335 234 88 12
0.014987602 0.035739668 2.1247315 234 88 12
-0.022486517 0.034321524 2.1086621 234 88 12
-0.014244461 0.031776104 2.154743 234 88 12
-0.010233477 0.026979165 2.2415841 234 88 12
-0.0095591601 0.030801738 2.1723824 234 88 12
-0.0010749941 0.031174827 2.1656282 234 88 12
0.0010749941 0.031174827 2.1656282 234 88 12
0.0033370962 0.032258596 2.1460083 234 88 12
0.0032928137 0.029635323 2.1537576 234 88 12
0.010250171 0.030750511 2.1320734 234 88 12
0.010233477 0.025118534 2.2415841 234 88 12
-0.064191811 0.021397268 2.2415841 234 88 12
-0.053028014 0.021397268 2.2415841 234 88 12
-0.041864224 0.021397268 2.2415841 234 88 12
-0.03070043 0.021397268 2.2415841 234 88 12
-0.021397268 0.021397268 2.2415841 234 88 12
-0.010233477 0.021397268 2.2415841 234 88 12
0.00093031605 0.021397268 2.2415841 234 88 12
0.012094108 0.021397268 2.2415841 234 88 12
0.023257902 0.021397268 2.2415841 234 88 12
0.03256106 0.021397268 2.2415841 234 88 12
0.043724854 0.021397268 2.2415841 234 88 12
0.04690728 0.021154264 2.2471309 234 88 12
-0.045517329 0.010599926 2.4026494 234 88 12
0.033046827 0.010599926 2.4026494 234 88 12
-0.043023229 0.0068587754 2.4026494 234 88 12
-0.062331174 0.010233477 2.2415841 234 88 12
-0.053028014 0.010233477 2.2415841 234 88 12
-0.041864224 0.010233477 2.2415841 234 88 12
-0.03070043 0.010233477 2.2415841 234 88 12
-0.021397268 0.010233477 2.2415841 234 88 12
-0.010233477 0.010233477 2.2415841 234 88 12
0.00093031605 0.010233477 2.2415841 234 88 12
0.012094108 0.010233477 2.2415841 234 88 12
0.023257902 0.010233477 2.2415841 234 88 12
0.03256106 0.010233477 2.2415841 234 88 12
0.043724854 0.010233477 2.2415841 234 88 12
0.04690728 0.010117256 2.2471309 234 88 12
-0.045517329 -0.00062352506 2.4026494 234 88 12
-0.043023229 -0.00062352506 2.4026494 234 88 12
-0.060470544 -0.00093031605 2.2415841 234 88 12
-0.053028014 -0.00093031605 2.2415841 234 88 12
-0.041864224 -0.00093031605 2.2415841 234 88 12
-0.03070043 -0.00093031605 2.2415841 234 88 12
-0.021397268 -0.00093031605 2.2415841 234 88 12
-0.010233477 -0.00093031605 2.2415841 234 88 12
0.00093031605 -0.00093031605 2.2415841 234 88 12
0.012094108 -0.00093031605 2.2415841 234 88 12
0.023257902 -0.00093031605 2.2415841 234 88 12
0.03256106 -0.00093031605 2.2415841 234 88 12
0.043724854 -0.00093031605 2.2415841 234 88 12
0.04506778 -0.0009197506 2.2471309 234 88 12
0.035540927 -0.00062352506 2.4026494 234 88 12
0.041388776 -0.010117256 2.2471309 234 88 12
-0.054888647 -0.012094108 2.2415841 234 88 12
-0.053028014 -0.012094108 2.2415841 234 88 12
-0.041864224 -0.012094108 2.2415841 234 88 12
-0.03070043 -0.012094108 2.2415841 234 88 12
-0.021397268 -0.012094108 2.2415841 234 88 12
-0.010233477 -0.012094108 2.2415841 234 88 12
0.00093031605 -0.012094108 2.2415841 234 88 12
0.012094108 -0.012094108 2.2415841 234 88 12
0.023257902 -0.012094108 2.2415841 234 88 12
0.03256106 -0.012094108 2.2415841 234 88 12
0.041388776 -0.011956758 2.2471309 234 88 12
0.043228276 -0.011956758 2.2471309 234 88 12
0.054265283 -0.015635761 2.2471309 234 88 12
-0.045517329 -0.011846975 2.4026494 234 88 12
-0.043023229 -0.011846975 2.4026494 234 88 12
0.038035028 -0.014341076 2.4026494 234 88 12
-0.04930675 -0.023257902 2.2415841 234 88 12
-0.041864224 -0.023257902 2.2415841 234 88 12
-0.03070043 -0.023257902 2.2415841 234 88 12
-0.021397268 -0.023257902 2.2415841 234 88 12
-0.010233477 -0.023257902 2.2415841 234 88 12
0.00093031605 -0.023257902 2.2415841 234 88 12
0.012094108 -0.023257902 2.2415841 234 88 12
0.023257902 -0.023257902 2.2415841 234 88 12
0.03256106 -0.023257902 2.2415841 234 88 12
0.035870273 -0.022993764 2.2471309 234 88 12
0.043228276 -0.022993764 2.2471309 234 88 12
0.054265283 -0.022993764 2.2471309 234 88 12
-0.031799778 -0.018082226 2.4026494 234 88 12
0.032191269 -0.026672767 2.2471309 234 88 12
-0.045517329 -0.021823376 2.4026494 234 88 12
-0.043023229 -0.021823376 2.4026494 234 88 12
-0.031799778 -0.021823376 2.4026494 234 88 12
-0.04000359 -0.03256106 2.2415841 234 88 12
-0.03070043 -0.03256106 2.2415841 234 88 12
-0.021397268 -0.03256106 2.2415841 234 88 12
-0.010233477 -0.03256106 2.2415841 234 88 12
0.00093031605 -0.03256106 2.2415841 234 88 12
0.012094108 -0.03256106 2.2415841 234 88 12
0.023257902 -0.03256106 2.2415841 234 88 12
0.024833266 -0.034030773 2.2471309 234 88 12
0.034030773 -0.034030773 2.2471309 234 88 12
0.043228276 -0.034030773 2.2471309 234 88 12
0.054265283 -0.034030773 2.2471309 234 88 12
0.019314762 -0.037709773 2.2471309 234 88 12
-0.020576326 -0.026811577 2.4026494 234 88 12
-0.019536637 -0.043724854 2.2415841 234 88 12
-0.010233477 -0.043724854 2.2415841 234 88 12
0.00093031605 -0.043724854 2.2415841 234 88 12
0.0082777552 -0.043228276 2.2471309 234 88 12
0.011956758 -0.043228276 2.2471309 234 88 12
0.022993764 -0.043228276 2.2471309 234 88 12
0.034030773 -0.043228276 2.2471309 234 88 12
0.043228276 -0.043228276 2.2471309 234 88 12
0.054265283 -0.043228276 2.2471309 234 88 12
-0.010599926 -0.030552726 2.4026494 234 88 12
-0.0009197506 -0.04506778 2.2471309 234 88 12
0.00062352506 -0.031799778 2.4026494 234 88 12
-0.044270277 -0.033046827 2.4026494 234 88 12
-0.043023229 -0.033046827 2.4026494 234 88 12
-0.031799778 -0.033046827 2.4026494 234 88 12
-0.020576326 -0.033046827 2.4026494 234 88 12
-0.010599926 -0.033046827 2.4026494 234 88 12
0.00062352506 -0.033046827 2.4026494 234 88 12
0.011846975 -0.034293879 2.4026494 234 88 12
0.06530229 -0.052425783 2.2471309 234 88 12
0.028512267 -0.054265283 2.2471309 234 88 12
0.034030773 -0.054265283 2.2471309 234 88 12
0.043228276 -0.054265283 2.2471309 234 88 12
0.054265283 -0.054265283 2.2471309 234 88 12
0.06530229 -0.054265283 2.2471309 234 88 12
-0.038035028 -0.044270277 2.4026494 234 88 12
-0.031799778 -0.044270277 2.4026494 234 88 12
-0.020576326 -0.044270277 2.4026494 234 88 12
0.043228276 -0.06530229 2.2471309 234 88 12
0.054265283 -0.06530229 2.2471309 234 88 12
0.06530229 -0.06530229 2.2471309 234 88 12
0.059783787 -0.076339297 2.2471309 234 88 12
0.06530229 -0.076339297 2.2471309 234 88 12
-1.3413645 -0.010726265 1.8099264 234 88 12
-1.3414445 -0.01256403 1.8099264 234 88 12
-1.3438138 0.0041101361 1.8079318 234 88 12
-1.3464229 0.015271007 1.8059372 234 88 12
-1.3872699 0.11960692 1.9617628 234 88 12
-1.3873241 0.11836105 1.9617628 234 88 12
-1.3878115 0.10714819 1.9617628 234 88 12
-1.3882991 0.095935337 1.9617628 234 88 12
-1.3491118 0.024594113 1.8039426 234 88 12
-1.3494314 0.017243054 1.8039426 234 88 12
-1.349751 0.0098919934 1.8039426 234 88 12
-1.3502305 -0.0011345964 1.8039426 234 88 12
-1.3507099 -0.012161186 1.8039426 234 88 12
-1.3504163 0.03017455 1.8029453 234 88 12
-1.3908262 0.086059384 1.9604106 234 88 12
-1.3494836 0.087212406 1.8019481 234 88 12
-1.3516409 0.03759275 1.8019481 234 88 12
-1.3518807 0.032079455 1.8019481 234 88 12
-1.3523601 0.021052865 1.8019481 234 88 12
-1.3528395 0.010026274 1.8019481 234 88 12
-1.3533189 -0.0010003153 1.8019481 234 88 12
-1.3537983 -0.012026905 1.8019481 234 88 12
-1.3923606 0.074892044 1.9597344 234 88 12
-1.3514273 0.07809072 1.8009508 234 88 12
-1.3528656 0.04501095 1.8009508 234 88 12
-1.3910241 0.12975597 1.9590584 234 88 12
-1.3926492 0.092379779 1.9590584 234 88 12
-1.39292 0.086150415 1.9590584 234 88 12
-1.3934075 0.07493756 1.9590584 234 88 12
-1.3532912 0.070806801 1.7999535 234 88 12
-1.3536108 0.063455738 1.7999535 234 88 12
-1.3926127 0.11734276 1.9583822 234 88 12
-1.393046 0.10737578 1.9583822 234 88 12
-1.3930637 0.13109288 1.9577062 234 88 12
-1.393172 0.12860113 1.9577062 234 88 12
-1.3959887 0.063815735 1.9577062 234 88 12
-1.3602411 0.017713038 1.7969615 234 88 12
-1.3605607 0.010361978 1.7969615 234 88 12
-1.3610401 -0.00066461245 1.7969615 234 88 12
-1.360347 0.050859947 1.7959642 234 88 12
-1.3607465 0.041671123 1.7959642 234 88 12
-1.361226 0.030644532 1.7959642 234 88 12
-1.3589332 0.087951094 1.7892349 234 88 12
-1.359014 0.086092219 1.7892349 234 88 12
-1.3594989 0.07493896 1.7892349 234 88 12
-1.360091 0.097313382 1.7882261 234 88 12
-1.3602526 0.093595631 1.7882261 234 88 12
-1.3605759 0.086160131 1.7882261 234 88 12
-1.3610609 0.075006872 1.7882261 234 88 12
-1.3615458 0.063853621 1.7882261 234 88 12
-1.4006637 0.052784942 1.9550018 234 88 12
-1.3613297 0.1048168 1.7872174 234 88 12
-1.3992366 0.13385773 1.9536496 234 88 12
-1.3994533 0.12887423 1.9536496 234 88 12
-1.3999408 0.11766137 1.9536496 234 88 12
-1.4003742 0.10769439 1.9536496 234 88 12
-1.4008616 0.096481532 1.9536496 234 88 12
-1.36273 0.10860246 1.7862086 234 88 12
-1.3651546 0.052836187 1.7862086 234 88 12
-1.4027575 0.052875977 1.9536496 234 88 12
-1.3671632 0.036426391 1.791975 234 88 12
-1.3674029 0.030913096 1.791975 234 88 12
-1.3678824 0.019886505 1.791975 234 88 12
-1.3682818 0.010697681 1.791975 234 88 12
-1.3687613 -0.00032890961 1.791975 234 88 12
-1.4039128 0.050429747 1.9529735 234 88 12
-1.4052846 0.043000024 1.9522974 234 88 12
-1.3710507 0.018183021 1.7899804 234 88 12
-1.3714502 0.0089941965 1.7899804 234 88 12
-1.3718497 -0.00019462848 1.7899804 234 88 12
-1.4034065 0.11032268 1.9516213 234 88 12
-1.4035147 0.10783094 1.9516213 234 88 12
-1.3669311 0.11995946 1.7831824 234 88 12
-1.3721155 0.029276751 1.7889831 234 88 12
-1.4034241 0.13403979 1.9509453 234 88 12
-1.4036407 0.1290563 1.9509453 234 88 12
-1.3710793 0.060543336 1.7821736 234 88 12
-1.3714025 0.053107832 1.7821736 234 88 12
-1.3718874 0.041954577 1.7821736 234 88 12
-1.3698125 0.12567191 1.7811649 234 88 12
-1.3701358 0.1182364 1.7811649 234 88 12
-1.3706207 0.10708315 1.7811649 234 88 12
-1.3710248 0.097788766 1.7811649 234 88 12
-1.3711057 0.095929891 1.7811649 234 88 12
-1.3715906 0.08477664 1.7811649 234 88 12
-1.3719947 0.075482257 1.7811649 234 88 12
-1.3724796 0.064328998 1.7811649 234 88 12
-1.3729645 0.053175744 1.7811649 234 88 12
-1.3734494 0.042022489 1.7811649 234 88 12
-1.3712128 0.12945758 1.7801561 234 88 12
-1.3716978 0.11830431 1.7801561 234 88 12
-1.3754964 0.030937146 1.7801561 234 88 12
-1.372694 0.13138436 1.7791474 234 88 12
-1.3819402 0.01681524 1.7829994 234 88 12
-1.3822598 0.0094641801 1.7829994 234 88 12
-1.3818251 0.029349918 1.7761211 234 88 12
-1.4141473 0.032151297 1.9468887 234 88 12
-1.3818514 0.064736471 1.7751123 234 88 12
-1.3823364 0.053583216 1.7751123 234 88 12
-1.3828213 0.042429961 1.7751123 234 88 12
-1.4150858 0.034688562 1.9462125 234 88 12
-1.415194 0.032196816 1.9462125 234 88 12
-1.3851885 0.013273992 1.7810048 234 88 12
-1.3853483 0.0095984619 1.7810048 234 88 12
-1.3800998 0.1410183 1.7741035 234 88 12
-1.3818778 0.10012303 1.7741035 234 88 12
-1.3820394 0.096405275 1.7741035 234 88 12
-1.3825244 0.085252017 1.7741035 234 88 12
-1.3830093 0.074098766 1.7741035 234 88 12
-1.3818234 0.13736846 1.7730948 234 88 12
-1.3822274 0.12807408 1.7730948 234 88 12
-1.3827124 0.11692082 1.7730948 234 88 12
-1.4142179 0.12701972 1.9441843 234 88 12
-1.4145972 0.11829861 1.9441843 234 88 12
-1.3831428 0.143013 1.772086 234 88 12
-1.4149398 0.13454047 1.9435081 234 88 12
-1.4159867 0.13458599 1.9428321 234 88 12
-1.4162575 0.12835662 1.9428321 234 88 12
-1.3861052 0.14686657 1.7700685 234 88 12
-1.3864285 0.13943107 1.7700685 234 88 12
-1.3869134 0.12827781 1.7700685 234 88 12
-1.3873984 0.11712456 1.7700685 234 88 12
-1.3878024 0.10783018 1.7700685 234 88 12
-1.3882873 0.096676923 1.7700685 234 88 12
-1.3887722 0.085523665 1.7700685 234 88 12
-1.3892572 0.074370414 1.7700685 234 88 12
-1.3897421 0.063217156 1.7700685 234 88 12
-1.3901463 0.053922776 1.7700685 234 88 12
-1.3906312 0.042769518 1.7700685 234 88 12
-1.391116 0.031616263 1.7700685 234 88 12
-1.391601 0.020463008 1.7700685 234 88 12
-1.4204826 0.031178525 1.9428321 234 88 12
-1.3931494 0.0080963997 1.7760183 234 88 12
-1.392678 0.031684175 1.7690598 234 88 12
-1.393163 0.02053092 1.7690598 234 88 12
-1.3926235 0.068929605 1.768051 234 88 12
-1.392866 0.06335298 1.768051 234 88 12
-1.393351 0.052199721 1.768051 234 88 12
-1.3937551 0.042905342 1.768051 234 88 12
-1.39265 0.10431616 1.7670423 234 88 12
-1.3929733 0.096880659 1.7670423 234 88 12
-1.3934581 0.085727401 1.7670423 234 88 12
-1.3923748 0.16825052 1.7720292 234 88 12
-1.3926764 0.13970272 1.7660335 234 88 12
-1.3931613 0.12854946 1.7660335 234 88 12
-1.3936462 0.11739621 1.7660335 234 88 12
-1.4249952 0.023885353 1.9401277 234 88 12
-1.3936726 0.15278275 1.7650248 234 88 12
-1.3937534 0.15092388 1.7650248 234 88 12
-1.4027344 0.0011481829 1.7700346 234 88 12
-1.4282441 0.021530155 1.9380994 234 88 12
-1.4034503 0.03587731 1.7619985 234 88 12
-1.4036119 0.032159559 1.7619985 234 88 12
-1.4040967 0.021006303 1.7619985 234 88 12
-1.4059027 -0.00055530097 1.7680399 234 88 12
-1.4254627 0.13374977 1.9367472 234 88 12
-1.4256794 0.12876627 1.9367472 234 88 12
-1.4033958 0.07312274 1.7609898 234 88 12
-1.4037999 0.063828364 1.7609898 234 88 12
-1.4042848 0.052675106 1.7609898 234 88 12
-1.4061437 0.0099209584 1.7609898 234 88 12
-1.4034221 0.10850929 1.759981 234 88 12
-1.4035029 0.10665042 1.759981 234 88 12
-1.4039879 0.095497161 1.759981 234 88 12
-1.404392 0.086202785 1.759981 234 88 12
-1.4028828 0.15690799 1.7589723 234 88 12
-1.4032061 0.14947248 1.7589723 234 88 12
-1.4034485 0.14389585 1.7589723 234 88 12
-1.4036101 0.1401781 1.7589723 234 88 12
-1.4040951 0.12902485 1.7589723 234 88 12
-1.40458 0.11787159 1.7589723 234 88 12
-1.4050649 0.10671833 1.7589723 234 88 12
-1.4055499 0.095565073 1.7589723 234 88 12
-1.405954 0.086270697 1.7589723 234 88 12
-1.4064388 0.075117439 1.7589723 234 88 12
-1.4069238 0.063964188 1.7589723 234 88 12
-1.4074087 0.05281093 1.7589723 234 88 12
-1.4078937 0.041657675 1.7589723 234 88 12
-1.4082978 0.032363296 1.7589723 234 88 12
-1.4087827 0.021210039 1.7589723 234 88 12
-1.4092677 0.010056783 1.7589723 234 88 12
-1.4048085 0.16694987 1.7640507 234 88 12
-1.4044447 0.1569759 1.7579635 234 88 12
-1.3982302 0.13491364 1.6733124 234 88 12
-1.3964704 0.13434815 1.6590023 234 88 12
-1.3964385 0.12801313 1.6565369 234 88 12
-1.3952583 0.12676631 1.6466367 234 88 12
-1.3984094 0.12232222 1.6703587 234 88 12
-1.435789 0.016865278 1.9333668 234 88 12
-1.3986921 0.14246117 1.6637968 234 88 12
-1.3980545 0.14098436 1.6580225 234 88 12
-1.3996389 0.13534546 1.6690398 234 88 12
-1.4015559 0.11935931 1.6790936 234 88 12
-1.3968564 0.12053209 1.6408509 234 88 12
-1.3973287 0.11803249 1.6438423 234 88 12
-1.3944703 0.11766377 1.6201946 234 88 12
-1.4142224 0.040070444 1.7549373 234 88 12
-1.4146265 0.030776065 1.7549373 234 88 12
-1.4150306 0.021481685 1.7549373 234 88 12
-1.4155155 0.01032843 1.7549373 234 88 12
-1.4364026 0.02687778 1.9326906 234 88 12
-1.3307077 -1.2963176 1.5305166 234 88 12
-1.3271805 -1.2998447 1.5305166 234 88 12
-1.3330714 -1.2951541 1.529603 234 88 12
-1.32309 -1.3063358 1.5286893 234 88 12
-1.3398808 -1.2931455 1.5259482 234 88 12
-1.3387173 -1.2955092 1.5250344 234 88 12
-1.3287358 -1.3066909 1.5241207 234 88 12
-1.3202363 -1.317591 1.5222933 234 88 12
-1.3464086 -1.2926189 1.5213796 234 88 12
-1.3428814 -1.2961462 1.5213796 234 88 12
-1.3384724 -1.3005551 1.5213796 234 88 12
-1.3322998 -1.3067276 1.5213796 234 88 12
-1.3270091 -1.3120185 1.5213796 234 88 12
-1.3217182 -1.3173093 1.5213796 234 88 12
-1.3499725 -1.2926557 1.5186385 234 88 12
0.0052350424 -1.2983676 1.8305937 234 88 12
0.010879582 -1.2996871 1.829585 234 88 12
0.022236573 -1.3038881 1.8265587 234 88 12
-2.0264019e-06 -1.30642 1.82555 234 88 12
0.0018568495 -1.3063391 1.82555 234 88 12
0.011219141 -1.3074969 1.8245412 234 88 12
0.022372397 -1.3070121 1.8245412 234 88 12
0.00013379726 -1.3095438 1.8235325 234 88 12
0.011287053 -1.3090589 1.8235325 234 88 12
0.022440309 -1.308574 1.8235325 234 88 12
0.033661477 -1.309651 1.8225237 234 88 12
0.03508655 -1.3668209 1.9773129 234 88 12
0.010319807 -1.3172423 1.8248858 234 88 12
0.012157572 -1.3171623 1.8248858 234 88 12
0.045018468 -1.3138521 1.8194975 234 88 12
0.08219599 -1.3122356 1.8194975 234 88 12
0.087772615 -1.3119931 1.8194975 234 88 12
0.098925874 -1.3115083 1.8194975 234 88 12
0.10822025 -1.3111042 1.8194975 234 88 12
0.00047335643 -1.3173537 1.8184887 234 88 12
0.012224712 -1.3187065 1.8238885 234 88 12
0.023251303 -1.3182272 1.8238885 234 88 12
0.05438076 -1.31501 1.8184887 234 88 12
0.067392893 -1.3144442 1.8184887 234 88 12
0.034001034 -1.3174609 1.81748 234 88 12
0.043295417 -1.3170568 1.81748 234 88 12
0.054516584 -1.3181338 1.8164712 234 88 12
0.065669842 -1.3176489 1.8164712 234 88 12
0.076823093 -1.3171641 1.8164712 234 88 12
0.088044263 -1.318241 1.8154625 234 88 12
0.097338639 -1.317837 1.8154625 234 88 12
0.1084919 -1.3173521 1.8154625 234 88 12
0.11964516 -1.3168671 1.8154625 234 88 12
0.11971307 -1.3184291 1.8144537 234 88 12
0.00081291562 -1.3251636 1.813445 234 88 12
0.045417663 -1.3747627 1.9719042 234 88 12
0.037990436 -1.3235471 1.813445 234 88 12
0.043567061 -1.3233047 1.813445 234 88 12
0.05472032 -1.3228198 1.813445 234 88 12
0.065873571 -1.3223349 1.813445 234 88 12
0.077026829 -1.3218499 1.813445 234 88 12
0.088180088 -1.321365 1.813445 234 88 12
0.097474463 -1.3209609 1.813445 234 88 12
0.10862772 -1.3204759 1.813445 234 88 12
0.11978098 -1.319991 1.813445 234 88 12
0.012627555 -1.3279719 1.8179047 234 88 12
0.087822862 -1.3739678 1.9712281 234 88 12
0.00094873924 -1.3282875 1.8114275 234 88 12
0.012101995 -1.3278025 1.8114275 234 88 12
0.021883521 -1.3291167 1.8169075 234 88 12
0.032910112 -1.3286372 1.8169075 234 88 12
0.082884893 -1.3752314 1.970552 234 88 12
0.012169907 -1.3293645 1.8104187 234 88 12
0.043770798 -1.3279907 1.8104187 234 88 12
0.054991964 -1.3290677 1.80941 234 88 12
0.066145219 -1.3285828 1.80941 234 88 12
0.077298477 -1.3280978 1.80941 234 88 12
0.075546198 -1.378697 1.9685237 234 88 12
0.097971916 -1.377722 1.9685237 234 88 12
0.11640278 -1.3279625 1.8084012 234 88 12
0.022152083 -1.3352937 1.8129183 234 88 12
0.033178672 -1.3348142 1.8129183 234 88 12
0.054411873 -1.3806647 1.9678476 234 88 12
0.12018844 -1.3293629 1.8073925 234 88 12
0.054502908 -1.3827585 1.9664954 234 88 12
0.06820751 -1.3821627 1.9664954 234 88 12
0.075682752 -1.3818376 1.9664954 234 88 12
0.0014241221 -1.3392214 1.8043661 234 88 12
0.012577378 -1.3387364 1.8043661 234 88 12
0.032122709 -1.3847804 1.9658194 234 88 12
0.022353506 -1.3399264 1.8099264 234 88 12
0.033380095 -1.3394469 1.8099264 234 88 12
0.044406686 -1.3389674 1.8099264 234 88 12
0.086941123 -1.3823971 1.9658194 234 88 12
0.098153979 -1.3819095 1.9658194 234 88 12
-0.00036684202 -1.3408641 1.8033574 234 88 12
-0.00029893019 -1.3424261 1.8023486 234 88 12
0.0015599458 -1.3423452 1.8023486 234 88 12
0.010854325 -1.3419411 1.8023486 234 88 12
0.057131205 -1.3857908 1.9644672 234 88 12
0.065852314 -1.3854116 1.9644672 234 88 12
0.075819299 -1.3849783 1.9644672 234 88 12
0.087032154 -1.3844907 1.9644672 234 88 12
0.098245017 -1.3840033 1.9644672 234 88 12
0.11866913 -1.3372536 1.8023486 234 88 12
0.12052801 -1.3371727 1.8023486 234 88 12
0.033505131 -1.3878669 1.963791 234 88 12
0.11873704 -1.3388156 1.8013399 234 88 12
0.12059592 -1.3387347 1.8013399 234 88 12
0.055768978 -1.3462092 1.8049399 234 88 12
-0.001818247 -1.3503168 1.7973049 234 88 12
4.0628966e-05 -1.3502359 1.7973049 234 88 12
0.011193885 -1.349751 1.7973049 234 88 12
0.022823488 -1.3507359 1.8029453 234 88 12
0.033850078 -1.3502566 1.8029453 234 88 12
0.044876669 -1.3497771 1.8029453 234 88 12
0.036224462 -1.392993 1.9604106 234 88 12
0.024728395 -1.3522003 1.8019481 234 88 12
0.033917218 -1.3518008 1.8019481 234 88 12
0.04494381 -1.3513213 1.8019481 234 88 12
0.054132633 -1.3509219 1.8019481 234 88 12
0.063679181 -1.3928481 1.9597344 234 88 12
0.06492506 -1.3927939 1.9597344 234 88 12
0.076183431 -1.3933533 1.9590584 234 88 12
0.087396286 -1.3928658 1.9590584 234 88 12
0.11735355 -1.3498302 1.7942786 234 88 12
0.11921243 -1.3497493 1.7942786 234 88 12
0.097408786 -1.3934793 1.9583822 234 88 12
0.065427788 -1.3566194 1.7979589 234 88 12
-0.005128528 -1.3598503 1.7912524 234 88 12
0.00044809995 -1.3596078 1.7912524 234 88 12
0.011601356 -1.3591229 1.7912524 234 88 12
0.022754611 -1.3586379 1.7912524 234 88 12
0.11569841 -1.3545969 1.7912524 234 88 12
0.11941616 -1.3544352 1.7912524 234 88 12
-0.006919492 -1.361493 1.7902436 234 88 12
0.00051601179 -1.3611698 1.7902436 234 88 12
0.011669268 -1.3606849 1.7902436 234 88 12
0.028806768 -1.3613058 1.7959642 234 88 12
0.032482296 -1.3611461 1.7959642 234 88 12
0.043508887 -1.3606666 1.7959642 234 88 12
0.022890436 -1.3617619 1.7892349 234 88 12
0.054602619 -1.3617314 1.7949669 234 88 12
0.065629207 -1.3612521 1.7949669 234 88 12
0.11411118 -1.3609256 1.7872174 234 88 12
0.11968781 -1.3606832 1.7872174 234 88 12
0.037925497 -1.4034076 1.9536496 234 88 12
0.039171372 -1.4033535 1.9536496 234 88 12
0.03275086 -1.367323 1.791975 234 88 12
0.043777451 -1.3668436 1.791975 234 88 12
0.054804038 -1.3663641 1.791975 234 88 12
0.065830633 -1.3658848 1.791975 234 88 12
0.0703182 -1.4019992 1.9536496 234 88 12
0.076547563 -1.4017284 1.9536496 234 88 12
0.086514547 -1.4012949 1.9536496 234 88 12
0.072900981 -1.4039847 1.9522974 234 88 12
0.076638594 -1.4038221 1.9522974 234 88 12
-0.010161861 -1.3725885 1.7831824 234 88 12
0.00099139463 -1.3721036 1.7831824 234 88 12
0.01214465 -1.3716186 1.7831824 234 88 12
0.023297906 -1.3711337 1.7831824 234 88 12
0.034790047 -1.3718758 1.7889831 234 88 12
0.04397887 -1.3714763 1.7889831 234 88 12
0.086651094 -1.4044356 1.9516213 234 88 12
0.04433693 -1.4073242 1.9509453 234 88 12
0.055072602 -1.3725411 1.7879859 234 88 12
0.066099189 -1.3720617 1.7879859 234 88 12
0.07712578 -1.3715823 1.7879859 234 88 12
-0.010026038 -1.3757124 1.7811649 234 88 12
0.0011272182 -1.3752275 1.7811649 234 88 12
0.012280474 -1.3747426 1.7811649 234 88 12
0.02343373 -1.3742577 1.7811649 234 88 12
0.1108009 -1.3704591 1.7811649 234 88 12
0.12009528 -1.370055 1.7811649 234 88 12
0.10900994 -1.3721019 1.7801561 234 88 12
0.12016319 -1.371617 1.7801561 234 88 12
-0.01174909 -1.3789172 1.7791474 234 88 12
-0.011613267 -1.3820411 1.7771299 234 88 12
-0.0097543905 -1.3819603 1.7771299 234 88 12
0.1073548 -1.3768686 1.7771299 234 88 12
0.0014667774 -1.3830373 1.7761211 234 88 12
0.012620033 -1.3825524 1.7761211 234 88 12
0.021914413 -1.3821484 1.7761211 234 88 12
0.042611092 -1.3823658 1.7820021 234 88 12
0.044448856 -1.382286 1.7820021 234 88 12
0.055475444 -1.3818065 1.7820021 234 88 12
0.037180308 -1.4149774 1.9462125 234 88 12
0.043409672 -1.4147066 1.9462125 234 88 12
0.04267823 -1.3839101 1.7810048 234 88 12
0.044515997 -1.3838302 1.7810048 234 88 12
0.055542585 -1.3833507 1.7810048 234 88 12
0.066569179 -1.3828713 1.7810048 234 88 12
0.075758003 -1.3824718 1.7810048 234 88 12
0.086851731 -1.3835366 1.7800075 234 88 12
0.080876894 -1.4151753 1.9448603 234 88 12
0.087106265 -1.4149045 1.9448603 234 88 12
0.10762645 -1.3831165 1.7730948 234 88 12
0.10948532 -1.3830357 1.7730948 234 88 12
0.1187797 -1.3826315 1.7730948 234 88 12
-0.012996759 -1.3930558 1.7700685 234 88 12
-0.0092790071 -1.3928941 1.7700685 234 88 12
-0.0018435034 -1.3925709 1.7700685 234 88 12
1.5372498e-05 -1.39249 1.7700685 234 88 12
0.011168628 -1.3920051 1.7700685 234 88 12
0.034916144 -1.4203202 1.9428321 234 88 12
0.043637253 -1.4199409 1.9428321 234 88 12
0.083505191 -1.4182075 1.9428321 234 88 12
0.087242812 -1.418045 1.9428321 234 88 12
0.1059713 -1.3878832 1.7700685 234 88 12
0.10968906 -1.3877217 1.7700685 234 88 12
0.11898343 -1.3873175 1.7700685 234 88 12
8.3284329e-05 -1.394052 1.7690598 234 88 12
0.01123654 -1.3935671 1.7690598 234 88 12
0.04859437 -1.3929358 1.775021 234 88 12
0.054107666 -1.392696 1.775021 234 88 12
0.13970037 -1.317489 1.3458413 234 88 12
0.045267396 -1.3761928 1.661113 234 88 12
0.065201394 -1.3937608 1.7740237 234 88 12
0.076227985 -1.3932815 1.7740237 234 88 12
0.087254576 -1.392802 1.7740237 234 88 12
0.043112256 -1.3781697 1.6598991 234 88 12
0.036861658 -1.3730882 1.6125104 234 88 12
0.10810182 -1.3940504 1.7660335 234 88 12
0.11925508 -1.3935654 1.7660335 234 88 12
0.031406108 -1.425717 1.9394516 234 88 12
0.032651979 -1.4256629 1.9394516 234 88 12
0.043864839 -1.4251753 1.9394516 234 88 12
0.10631086 -1.3956931 1.7650248 234 88 12
0.050767839 -1.4005769 1.7700346 234 88 12
0.048224203 -1.3711787 1.5735883 234 88 12
0.056281131 -1.4003373 1.7700346 234 88 12
0.063285291 -1.3585824 1.4940909 234 88 12
0.065469958 -1.3999377 1.7700346 234 88 12
0.076496549 -1.3994584 1.7700346 234 88 12
0.08752314 -1.3989789 1.7700346 234 88 12
-0.014380252 -1.4040704 1.7630073 234 88 12
-0.010662501 -1.4039087 1.7630073 234 88 12
0.00049075531 -1.4034238 1.7630073 234 88 12
0.055168729 -1.4267817 1.9380994 234 88 12
0.057704531 -1.3598874 1.4837254 234 88 12
0.063387796 -1.36094 1.4925684 234 88 12
0.0888073 -1.4253191 1.9380994 234 88 12
0.05117273 -1.393396 1.696687 234 88 12
0.056415413 -1.4034257 1.7680399 234 88 12
0.057808165 -1.362271 1.4821861 234 88 12
0.065671377 -1.4045705 1.7670426 234 88 12
0.076697968 -1.404091 1.7670426 234 88 12
0.087724559 -1.4036117 1.7670426 234 88 12
0.098818287 -1.4046764 1.7660453 234 88 12
0.10850929 -1.4034221 1.759981 234 88 12
-0.015967481 -1.4103991 1.7589723 234 88 12
-0.010390854 -1.4101566 1.7589723 234 88 12
0.00076240266 -1.4096717 1.7589723 234 88 12
0.10857721 -1.4049841 1.7589723 234 88 12
0.11973047 -1.4044992 1.7589723 234 88 12
-0.015763745 -1.415085 1.755946 234 88 12
-0.010187117 -1.4148426 1.755946 234 88 12
0.00096613815 -1.4143577 1.755946 234 88 12
0.025631906 -1.4364567 1.9326906 234 88 12
0.033107143 -1.4361317 1.9326906 234 88 12
1.1728976 0.11655013 2.0951552 234 88 12
1.1725945 0.11902575 2.0951552 234 88 12
1.1723281 0.13030034 2.0945778 234 88 12
1.1763039 0.1069162 2.0940003 234 88 12
1.1761523 0.10815401 2.0940003 234 88 12
1.1747888 0.11929432 2.0940003 234 88 12
1.1734252 0.13043463 2.0940003 234 88 12
1.1720617 0.14157495 2.0940003 234 88 12
1.1708496 0.15147744 2.0940003 234 88 12
1.1775525 0.10581267 2.0934229 234 88 12
1.1772494 0.1082883 2.0934229 234 88 12
1.176983 0.11956289 2.0928454 234 88 12
1.1716802 0.16288632 2.0928454 234 88 12
1.1768681 0.12959968 2.092268 234 88 12
1.1344409 0.15103909 1.931186 234 88 12
1.1342149 0.15288594 1.931186 234 88 12
1.1333106 0.16027333 1.931186 234 88 12
1.1330845 0.16212018 1.931186 234 88 12
1.1317283 0.17320128 1.931186 234 88 12
1.1347214 0.16232054 1.9303243 234 88 12
1.1725109 0.1742952 2.0916903 234 88 12
1.1776986 0.14100856 2.0911129 234 88 12
1.1395231 0.136665 1.9294627 234 88 12
1.135002 0.17360198 1.9294627 234 88 12
1.1336458 0.18468308 1.9294627 234 88 12
1.1334196 0.18652993 1.9294627 234 88 12
1.1339263 0.19596453 1.9286011 234 88 12
1.173493 0.18446627 2.0905354 234 88 12
1.1439272 0.12783147 1.9277395 234 88 12
1.1457901 0.12618497 1.9268779 234 88 12
1.1453381 0.12987867 1.9268779 234 88 12
1.1360698 0.20559949 1.9268779 234 88 12
1.1456186 0.14116013 1.9260162 234 88 12
1.1363504 0.21688093 1.9260162 234 88 12
1.1349941 0.22796203 1.9260162 234 88 12
1.1329596 0.24458368 1.9260162 234 88 12
1.1881839 0.10083216 2.0882256 234 88 12
1.1458992 0.15244158 1.9251547 234 88 12
1.1445428 0.16352268 1.9251547 234 88 12
1.1352746 0.23924348 1.9251547 234 88 12
1.1341444 0.24847773 1.9251547 234 88 12
1.1334662 0.25401828 1.9251547 234 88 12
1.1327881 0.25955883 1.9251547 234 88 12
1.1883719 0.10839332 2.0876482 234 88 12
1.151831 0.1175518 1.924293 234 88 12
1.1450495 0.17295727 1.924293 234 88 12
1.134425 0.25975919 1.924293 234 88 12
1.1881055 0.11966792 2.0870707 234 88 12
1.1453301 0.18423872 1.9234314 234 88 12
1.1555569 0.1142588 1.9225699 234 88 12
1.1456107 0.19552016 1.9225699 234 88 12
1.1565157 0.11999971 1.9217082 234 88 12
1.1551594 0.13108081 1.9217082 234 88 12
1.1458912 0.20680162 1.9217082 234 88 12
1.144761 0.21603587 1.9217082 234 88 12
1.1592829 0.11096582 1.9208466 234 88 12
1.1581526 0.12020007 1.9208466 234 88 12
1.1567963 0.13128115 1.9208466 234 88 12
1.155666 0.1405154 1.9208466 234 88 12
1.1549878 0.14605595 1.9208466 234 88 12
1.1543097 0.1515965 1.9208466 234 88 12
1.1529534 0.1626776 1.9208466 234 88 12
1.151597 0.17375869 1.9208466 234 88 12
1.1502408 0.18483979 1.9208466 234 88 12
1.1488844 0.19592088 1.9208466 234 88 12
1.1477542 0.20515512 1.9208466 234 88 12
1.1463978 0.21623622 1.9208466 234 88 12
1.1450416 0.22731732 1.9208466 234 88 12
1.1441374 0.23470472 1.9208466 234 88 12
1.1436852 0.23839842 1.9208466 234 88 12
1.144724 0.23926114 1.9265115 234 88 12
1.1421028 0.25132635 1.9208466 234 88 12
1.1409726 0.2605606 1.9208466 234 88 12
1.1559466 0.15179686 1.9199849 234 88 12
1.1474597 0.23032984 1.9256597 234 88 12
1.1452248 0.24858858 1.9256597 234 88 12
1.1630088 0.10767283 1.9191234 234 88 12
1.1562272 0.16307831 1.9191234 234 88 12
1.1449245 0.25542077 1.9191234 234 88 12
1.1444725 0.25911447 1.9191234 234 88 12
1.1565077 0.17435975 1.9182618 234 88 12
1.1553775 0.183594 1.9182618 234 88 12
1.1980578 0.10204072 2.0830283 234 88 12
1.1973002 0.10822978 2.0830283 234 88 12
1.1959367 0.11937009 2.0830283 234 88 12
1.1667347 0.10437984 1.9174001 234 88 12
1.1662825 0.10807354 1.9174001 234 88 12
1.1556581 0.19487545 1.9174001 234 88 12
1.1990033 0.10341281 2.0824509 234 88 12
1.1983973 0.10836406 2.0824509 234 88 12
1.1665632 0.11935499 1.9165386 234 88 12
1.1559386 0.20615689 1.9165386 234 88 12
1.1566148 0.20921166 1.9222523 234 88 12
1.1557208 0.21651515 1.9222523 234 88 12
1.1668438 0.13063644 1.915677 234 88 12
1.1573391 0.21671323 1.9214005 234 88 12
1.1559982 0.22766848 1.9214005 234 88 12
1.1546572 0.23862374 1.9214005 234 88 12
1.1671243 0.14191788 1.9148153 234 88 12
1.165994 0.15115213 1.9148153 234 88 12
1.1562756 0.23882182 1.9205487 234 88 12
1.1662747 0.16243359 1.9139537 234 88 12
1.1554241 0.25108236 1.9139537 234 88 12
1.1665552 0.17371504 1.9130921 234 88 12
1.1559308 0.26051694 1.9130921 234 88 12
1.1772342 0.10004143 1.9122305 234 88 12
1.1668358 0.18499649 1.9122305 234 88 12
1.1664943 0.19559506 1.9179932 234 88 12
1.1777408 0.10947603 1.9113688 234 88 12
1.1667715 0.20674838 1.9171414 234 88 12
1.180734 0.098595284 1.9105073 234 88 12
1.1793778 0.10967638 1.9105073 234 88 12
1.1782475 0.11891063 1.9105073 234 88 12
1.1768912 0.12999173 1.9105073 234 88 12
1.1766652 0.13183858 1.9105073 234 88 12
1.1755348 0.14107282 1.9105073 234 88 12
1.1741786 0.15215391 1.9105073 234 88 12
1.1728222 0.16323501 1.9105073 234 88 12
1.1714659 0.17431611 1.9105073 234 88 12
1.1672724 0.21607584 1.9162896 234 88 12
1.1659316 0.22703108 1.9162896 234 88 12
1.1628759 0.24449638 1.9105073 234 88 12
1.1621977 0.25003693 1.9105073 234 88 12
1.1610675 0.25927117 1.9105073 234 88 12
1.1771717 0.14127317 1.9096457 234 88 12
1.166209 0.23818442 1.9154377 234 88 12
1.1774523 0.15255462 1.908784 234 88 12
1.1666018 0.24120338 1.908784 234 88 12
1.1943325 0.22345136 2.0772536 234 88 12
1.2098228 0.10599346 2.0766761 234 88 12
1.2095199 0.10846909 2.0766761 234 88 12
1.177959 0.16198923 1.9079225 234 88 12
1.177938 0.16919734 1.9137341 234 88 12
1.1774911 0.17284909 1.9137341 234 88 12
1.1673344 0.24879113 1.9079225 234 88 12
1.1875077 0.097549856 1.9070609 234 88 12
1.1777685 0.18400241 1.9128822 234 88 12
1.1705538 0.23606354 1.9070609 234 88 12
1.1877884 0.10883131 1.9061992 234 88 12
1.1780459 0.19515574 1.9120305 234 88 12
1.1767049 0.20611098 1.9120305 234 88 12
1.1880689 0.12011276 1.9053376 234 88 12
1.1841339 0.15883632 1.9111786 234 88 12
1.1769823 0.21726432 1.9111786 234 88 12
1.1926445 0.096304074 1.904476 234 88 12
1.1885755 0.12954736 1.904476 234 88 12
1.1839643 0.1736414 1.9103268 234 88 12
1.1826234 0.18459666 1.9103268 234 88 12
1.1812824 0.1955519 1.9103268 234 88 12
1.1799415 0.20650715 1.9103268 234 88 12
1.1786007 0.21746239 1.9103268 234 88 12
1.1772597 0.22841765 1.9103268 234 88 12
1.2002726 0.22040933 2.0743661 234 88 12
1.1888561 0.1408288 1.9036144 234 88 12
1.1882644 0.15192899 1.909475 234 88 12
1.1768754 0.23871182 1.9036144 234 88 12
1.1885418 0.16308232 1.9086231 234 88 12
1.1771559 0.24999326 1.9027528 234 88 12
1.2171994 0.10940908 2.0726337 234 88 12
1.1888192 0.17423564 1.9077713 234 88 12
1.2038668 0.21833657 2.0726337 234 88 12
1.1994181 0.095258646 1.9010296 234 88 12
1.198966 0.098952346 1.9010296 234 88 12
1.1893201 0.1835631 1.9069195 234 88 12
1.1879792 0.19451834 1.9069195 234 88 12
1.118101 0.28350419 1.4178376 234 88 12
1.1994727 0.10838695 1.9001679 234 88 12
1.1882566 0.20567167 1.9060676 234 88 12
1.1258043 0.27641618 1.4471128 234 88 12
1.2204908 0.10981192 2.0709012 234 88 12
1.2026919 0.095659353 1.8993063 234 88 12
1.2024659 0.097506203 1.8993063 234 88 12
1.2011095 0.1085873 1.8993063 234 88 12
1.1997533 0.11966839 1.8993063 234 88 12
1.1983969 0.13074949 1.8993063 234 88 12
1.1981709 0.13259634 1.8993063 234 88 12
1.1983674 0.13648652 1.9052159 234 88 12
1.173852 0.22885308 1.7891586 234 88 12
1.1721531 0.2324501 1.7781008 234 88 12
1.1288687 0.27679127 1.4454998 234 88 12
1.1870942 0.22309195 1.8993063 234 88 12
1.1866422 0.22678564 1.8993063 234 88 12
1.1852858 0.23786674 1.8993063 234 88 12
1.1993152 0.14216222 1.904364 234 88 12
1.171313 0.23341861 1.7519585 234 88 12
1.1787701 0.2281867 1.8136783 234 88 12
1.1889572 0.22144546 1.8984448 234 88 12
1.188279 0.22698601 1.8984448 234 88 12
1.1998161 0.15148968 1.9035122 234 88 12
1.1984751 0.16244492 1.9035122 234 88 12
1.1793742 0.2239237 1.7954075 234 88 12
1.1781962 0.22700168 1.7879237 234 88 12
1.1805514 0.22665066 1.8095179 234 88 12
1.1879526 0.22107388 1.872261 234 88 12
1.1299055 0.28280884 1.4007394 234 88 12
1.1885597 0.23826745 1.8975831 234 88 12
1.2098068 0.21529454 2.0697463 234 88 12
1.2096554 0.21653236 2.0697463 234 88 12
1.2043397 0.12795138 1.9026604 234 88 12
1.1987525 0.17359824 1.9026604 234 88 12
1.1891778 0.1985573 1.8398051 234 88 12
1.1854304 0.20309986 1.8090377 234 88 12
1.182322 0.20939913 1.7865043 234 88 12
1.1918777 0.20379578 1.8720158 234 88 12
1.1832439 0.21265899 1.7992378 234 88 12
1.183912 0.21405172 1.8073237 234 88 12
1.1803929 0.22108802 1.7816995 234 88 12
1.1741186 0.23743932 1.7405056 234 88 12
1.2094656 0.094613925 1.89586 234 88 12
1.1990299 0.18475157 1.9018085 234 88 12
1.1875762 0.19521612 1.800469 234 88 12
1.1881802 0.196834 1.8084589 234 88 12
1.1861922 0.20015897 1.7927083 234 88 12
1.1854819 0.20268078 1.7887079 234 88 12
1.1824222 0.21320172 1.7710567 234 88 12
1.1892682 0.21126077 1.8368882 234 88 12
1.1814027 0.22825427 1.7792538 234 88 12
1.1588353 0.25377741 1.5855652 234 88 12
1.1794875 0.23422849 1.7674599 234 88 12
1.158537 0.25919679 1.5892019 234 88 12
1.1358536 0.28719535 1.3973763 234 88 12
1.2106503 0.098507978 1.8949983 234 88 12
1.2092941 0.10958908 1.8949983 234 88 12
1.1896756 0.1765954 1.7773625 234 88 12
1.1956379 0.17838748 1.8410567 234 88 12
1.1906567 0.18668069 1.8001904 234 88 12
1.1911212 0.18846093 1.8072214 234 88 12
1.1877252 0.19242965 1.777236 234 88 12
1.1917046 0.19209482 1.8178154 234 88 12
1.1890612 0.20566724 1.8076957 234 88 12
1.1875823 0.22225684 1.8133794 234 88 12
1.1674231 0.24765912 1.6377035 234 88 12
1.210312 0.11941624 1.9001049 234 88 12
1.1752869 0.18558399 1.6128374 234 88 12
1.1917803 0.18107732 1.7829157 234 88 12
1.1785191 0.19194248 1.6556246 234 88 12
1.1781905 0.19462755 1.6556246 234 88 12
1.1975207 0.19165488 1.8579711 234 88 12
1.1894789 0.20712283 1.7923731 234 88 12
1.1881356 0.2102391 1.7821118 234 88 12
1.1877419 0.21258472 1.7809741 234 88 12
1.1863363 0.2178774 1.7728896 234 88 12
1.187637 0.22632813 1.7978022 234 88 12
1.1723884 0.24745119 1.6627026 234 88 12
1.2119304 0.11961432 1.899253 234 88 12
1.2105894 0.13056958 1.899253 234 88 12
1.2092485 0.14152482 1.899253 234 88 12
1.209025 0.14335069 1.899253 234 88 12
1.2079076 0.15248007 1.899253 234 88 12
1.2065667 0.16343531 1.899253 234 88 12
1.1760572 0.18662246 1.5932297 234 88 12
1.1736706 0.19044465 1.5720103 234 88 12
1.1785179 0.19347841 1.6297239 234 88 12
1.181981 0.19899993 1.675496 234 88 12
1.19877 0.19038202 1.8495042 234 88 12
1.1914611 0.20335463 1.7862329 234 88 12
1.1887299 0.21170571 1.7673328 234 88 12
1.1875604 0.21685611 1.7613715 234 88 12
1.1872777 0.21916574 1.7613715 234 88 12
1.1886784 0.2197907 1.7777078 234 88 12
1.1891476 0.22513562 1.7901324 234 88 12
1.1929843 0.22275138 1.8293351 234 88 12
1.1903232 0.22758426 1.8064485 234 88 12
1.1734703 0.24923982 1.6493816 234 88 12
1.1990047 0.22080074 1.893275 234 88 12
1.2095259 0.15267815 1.8984013 234 88 12
1.170174 0.17820998 1.482592 234 88 12
1.1693705 0.18477477 1.482592 234 88 12
1.1944009 0.18220018 1.7662725 234 88 12
1.1902001 0.18648444 1.724075 234 88 12
1.1956434 0.18579653 1.785587 234 88 12
1.1983039 0.18827257 1.8196023 234 88 12
1.1917884 0.19868721 1.7594489 234 88 12
1.1886055 0.22013912 1.7530538 234 88 12
1.1896333 0.22703356 1.7745355 234 88 12
1.1827805 0.23689717 1.7097381 234 88 12
1.1880701 0.2327507 1.7646257 234 88 12
1.1588287 0.27023363 1.4816555 234 88 12
1.1997373 0.22838849 1.8924135 234 88 12
1.1986071 0.23762274 1.8924135 234 88 12
1.2100267 0.1620056 1.8975494 234 88 12
1.1715404 0.172535 1.4538511 234 88 12
1.171127 0.17591256 1.4538511 234 88 12
1.1855352 0.1747615 1.6240345 234 88 12
1.1730945 0.18481953 1.4903252 234 88 12
1.1781991 0.20253098 1.5770704 234 88 12
1.2041036 0.19130531 1.869674 234 88 12
1.2029958 0.19390725 1.8602589 234 88 12
1.19467 0.20445454 1.7763467 234 88 12
1.1909978 0.21180068 1.7432698 234 88 12
1.1900396 0.22714546 1.7542441 234 88 12
1.1836511 0.23659021 1.6918294 234 88 12
1.2051638 0.21301965 1.9140236 234 88 12
1.1829631 0.24176043 1.6911718 234 88 12
1.1642079 0.26748931 1.5050224 234 88 12
1.2317648 0.10867915 2.0651264 234 88 12
1.2201911 0.088428661 1.8906902 234 88 12
1.1709713 0.17716432 1.4145279 234 88 12
1.1708142 0.1839295 1.4228567 234 88 12
1.1719482 0.18678498 1.4412719 234 88 12
1.1688647 0.1946914 1.4150083 234 88 12
1.171239 0.19675142 1.4476112 234 88 12
1.2007977 0.18555833 1.7975283 234 88 12
1.1780374 0.20469631 1.5440749 234 88 12
1.2030698 0.18991992 1.8323611 234 88 12
1.2017714 0.19463715 1.8234099 234 88 12
1.1838788 0.21098793 1.6261457 234 88 12
1.1993588 0.20040676 1.8022286 234 88 12
1.1914675 0.21359798 1.7243136 234 88 12
1.1911705 0.21602573 1.7243136 234 88 12
1.1782011 0.24131058 1.6017381 234 88 12
1.1827574 0.24292977 1.6607572 234 88 12
1.158211 0.27635768 1.4068427 234 88 12
1.1626801 0.27351418 1.4580002 234 88 12
1.2206978 0.097863264 1.8898287 234 88 12
1.1785461 0.16316298 1.4478761 234 88 12
1.1746888 0.17057975 1.4097147 234 88 12
1.1742579 0.17410018 1.4097147 234 88 12
1.1719736 0.19507194 1.4133718 234 88 12
1.1688387 0.20340596 1.3860102 234 88 12
1.1805053 0.20237517 1.5353206 234 88 12
1.1966065 0.19401591 1.7304013 234 88 12
1.1963124 0.19641848 1.7304013 234 88 12
1.1729078 0.21659565 1.4595443 234 88 12
1.1923654 0.20393063 1.6912314 234 88 12
1.1864662 0.21364522 1.6302916 234 88 12
1.1894238 0.21570008 1.6718103 234 88 12
1.2003273 0.20725611 1.7995086 234 88 12
1.1854193 0.22673164 1.6374701 234 88 12
1.178162 0.23698992 1.5598196 234 88 12
1.1777952 0.23998711 1.5598196 234 88 12
1.19384 0.22804663 1.7485008 234 88 12
1.1766371 0.25158823 1.5632074 234 88 12
1.1766798 0.25404876 1.5676584 234 88 12
1.165448 0.27133635 1.4497162 234 88 12
1.2204382 0.21031404 2.064549 234 88 12
1.2341105 0.1077099 2.0639715 234 88 12
1.223691 0.086982526 1.888967 234 88 12
1.2223347 0.098063618 1.888967 234 88 12
1.2213628 0.10964947 1.8949939 234 88 12
1.2202454 0.11877885 1.8949939 234 88 12
1.1830341 0.16978313 1.4767001 234 88 12
1.1790397 0.17403385 1.4297756 234 88 12
1.1815639 0.18285498 1.4784527 234 88 12
1.1735514 0.18949279 1.3812013 234 88 12
1.1781205 0.19068335 1.4448848 234 88 12
1.1810372 0.19534749 1.4919919 234 88 12
1.1738565 0.20914608 1.4178138 234 88 12
1.1984419 0.19667912 1.7292805 234 88 12
1.1914608 0.20444871 1.6478319 234 88 12
1.1836069 0.21346062 1.5566474 234 88 12
1.1908005 0.20982313 1.6477995 234 88 12
1.1959357 0.20750691 1.7133313 234 88 12
1.1861182 0.21902858 1.5997739 234 88 12
1.1821157 0.22549464 1.5564005 234 88 12
1.1962639 0.21361953 1.7278702 234 88 12
1.196817 0.21718216 1.7412307 234 88 12
1.1828103 0.23506178 1.5815996 234 88 12
1.1983551 0.21943688 1.7657328 234 88 12
1.1755069 0.25150466 1.5101376 234 88 12
1.1866733 0.24001831 1.6419721 234 88 12
1.1719136 0.26150343 1.4781324 234 88 12
1.1986996 0.22849701 1.7853647 234 88 12
1.1667334 0.2740429 1.4288937 234 88 12
1.2071892 0.22180252 1.888967 234 88 12
1.206511 0.22734307 1.888967 234 88 12
1.2207779 0.21663739 2.0639715 234 88 12
1.225554 0.08533603 1.8881054 234 88 12
1.2205228 0.12993218 1.8941422 234 88 12
1.176985 0.17229114 1.3523506 234 88 12
1.1760092 0.17614883 1.3452364 234 88 12
1.1855097 0.17657949 1.4801883 234 88 12
1.179316 0.18202549 1.4021122 234 88 12
1.1771969 0.18627091 1.3795153 234 88 12
1.1749489 0.19419169 1.3614559 234 88 12
1.1744989 0.19786838 1.3614559 234 88 12
1.1896279 0.19229646 1.5655394 234 88 12
1.1747147 0.20783812 1.3817424 234 88 12
1.1798944 0.21045016 1.4594306 234 88 12
1.1727626 0.2191584 1.3737397 234 88 12
1.1737353 0.22160356 1.3917077 234 88 12
1.1745316 0.2272148 1.41266 234 88 12
1.1894432 0.216058 1.6040158 234 88 12
1.1844884 0.22346975 1.5468376 234 88 12
1.1763773 0.23448324 1.4513001 234 88 12
1.181743 0.23167488 1.5222435 234 88 12
1.1809797 0.23791094 1.5222435 234 88 12
1.1843723 0.23910296 1.5722291 234 88 12
1.1781976 0.24931009 1.5026517 234 88 12
1.1962807 0.23080476 1.7261035 234 88 12
1.1884178 0.24345541 1.6369026 234 88 12
1.1899276 0.24361883 1.6585138 234 88 12
1.1779182 0.26286721 1.5221447 234 88 12
1.1691449 0.27818856 1.4247006 234 88 12
1.2208002 0.14108551 1.8932903 234 88 12
1.1834912 0.16490997 1.3841758 234 88 12
1.1797748 0.17282078 1.3434949 234 88 12
1.1815932 0.17932665 1.382201 234 88 12
1.1782076 0.19459057 1.3597406 234 88 12
1.1814185 0.19614503 1.4100873 234 88 12
1.1780783 0.20146319 1.3702782 234 88 12
1.1786658 0.20441397 1.3843211 234 88 12
1.1779109 0.20822933 1.38006 234 88 12
1.1780609 0.2240956 1.4110277 234 88 12
1.1793381 0.22595938 1.4333113 234 88 12
1.1789193 0.22938086 1.4333113 234 88 12
1.1981322 0.21242866 1.6870015 234 88 12
1.1793593 0.23484825 1.4497305 234 88 12
1.1928531 0.22270505 1.6274755 234 88 12
1.1887759 0.22976725 1.5799176 234 88 12
1.1757365 0.24778505 1.4195426 234 88 12
1.1753119 0.25125429 1.4195426 234 88 12
1.1940564 0.23047249 1.659361 234 88 12
1.1782553 0.2532562 1.4667412 234 88 12
1.1897541 0.24296324 1.618307 234 88 12
1.1948996 0.23801497 1.6855084 234 88 12
1.1801846 0.26135626 1.5099767 234 88 12
1.2111902 0.21959811 1.8932903 234 88 12
1.2104629 0.22220322 1.8872437 234 88 12
1.2097847 0.22774377 1.8872437 234 88 12
1.2210776 0.15223883 1.8924384 234 88 12
1.1844547 0.16202658 1.3417615 234 88 12
1.1961607 0.16964662 1.538229 234 88 12
1.1916953 0.17402355 1.4771426 234 88 12
1.1818173 0.18082324 1.336527 234 88 12
1.1843424 0.18331583 1.380522 234 88 12
1.1814094 0.20839499 1.3826456 234 88 12
1.1795688 0.21637999 1.3692261 234 88 12
1.1780195 0.22426176 1.3601412 234 88 12
1.1775705 0.22793111 1.3601412 234 88 12
1.1799213 0.22878949 1.3983188 234 88 12
1.1752679 0.24317826 1.3533601 234 88 12
1.1814641 0.23912048 1.4419571 234 88 12
1.1842617 0.24138081 1.4897461 234 88 12
1.1737329 0.26068509 1.3628079 234 88 12
1.1905473 0.24565741 1.5955949 234 88 12
1.1776563 0.26693141 1.4356813 234 88 12
1.192499 0.24959876 1.6334317 234 88 12
1.1728311 0.28278571 1.3908399 234 88 12
1.2311429 0.080396548 1.8855206 234 88 12
1.1877633 0.16243157 1.3400198 234 88 12
1.1898584 0.16568932 1.3808242 234 88 12
1.1870328 0.176985 1.3572133 234 88 12
1.1905805 0.18234202 1.4259899 234 88 12
1.1842238 0.18873245 1.334777 234 88 12
1.1860824 0.20441663 1.3966007 234 88 12
1.1828054 0.21999066 1.3741715 234 88 12
1.1913863 0.2204008 1.5153992 234 88 12
1.1880889 0.22953542 1.4797384 234 88 12
1.1785409 0.24357888 1.3516372 234 88 12
1.1804397 0.25042078 1.3964071 234 88 12
1.1785135 0.25896049 1.3819939 234 88 12
1.2006457 0.23050632 1.6871443 234 88 12
1.1776353 0.26613623 1.3819939 234 88 12
1.2014048 0.23350862 1.7055793 234 88 12
1.188575 0.25518894 1.5390705 234 88 12
1.1802596 0.27070883 1.4340916 234 88 12
1.1764252 0.2796092 1.3891777 234 88 12
1.2263783 0.20727202 2.0616617 234 88 12
1.2253177 0.21593671 2.0616617 234 88 12
1.240202 0.10343007 2.061084 234 88 12
1.2318755 0.087984301 1.8846589 234 88 12
1.2319127 0.090555251 1.8907348 234 88 12
1.2310188 0.097858749 1.8907348 234 88 12
1.2020903 0.16425003 1.5315254 234 88 12
1.2003545 0.16766752 1.5087758 234 88 12
1.1902386 0.17386688 1.3471997 234 88 12
1.1911246 0.17707537 1.3692811 234 88 12
1.1936256 0.18271476 1.424387 234 88 12
1.1890454 0.18834843 1.3572038 234 88 12
1.192116 0.19317855 1.4204361 234 88 12
1.1916938 0.19662794 1.4204361 234 88 12
1.1896918 0.20443027 1.4023565 234 88 12
1.1880099 0.20898005 1.382929 234 88 12
1.1858827 0.21403991 1.3568919 234 88 12
1.1914704 0.21213081 1.4493439 234 88 12
1.1880008 0.23051293 1.4282837 234 88 12
1.1905715 0.23313789 1.4782221 234 88 12
1.1941543 0.23129025 1.5361825 234 88 12
1.1917131 0.23707537 1.5062562 234 88 12
1.1919079 0.2394361 1.5146102 234 88 12
1.1997373 0.23325658 1.6367449 234 88 12
1.1877636 0.25326335 1.4722719 234 88 12
1.1945401 0.24794532 1.5780479 234 88 12
1.1775278 0.27756518 1.3468848 234 88 12
1.2312962 0.10901207 1.8898829 234 88 12
1.1943275 0.16325 1.3355845 234 88 12
1.199469 0.16903314 1.4424839 234 88 12
1.1927499 0.17452824 1.3319811 234 88 12
1.191846 0.18553463 1.3400831 234 88 12
1.1903125 0.20020957 1.3448826 234 88 12
1.1892807 0.20772128 1.3428296 234 88 12
1.1891344 0.21443792 1.3551803 234 88 12
1.1897353 0.22024056 1.3791416 234 88 12
1.1965666 0.21603441 1.4945796 234 88 12
1.1884643 0.22785275 1.372942 234 88 12
1.2018424 0.21535151 1.5894716 234 88 12
1.1947604 0.22636916 1.48469 234 88 12
1.2022575 0.22202717 1.6119902 234 88 12
1.2000144 0.23446055 1.5988072 234 88 12
1.2053506 0.22866677 1.6833719 234 88 12
1.1927807 0.25031567 1.5020748 234 88 12
1.1889501 0.26165441 1.4574314 234 88 12
1.2288755 0.20506497 2.0605066 234 88 12
1.2342553 0.098254904 1.8890312 234 88 12
1.2329144 0.10921016 1.8890312 234 88 12
1.2315736 0.12016541 1.8890312 234 88 12
1.2304561 0.12929478 1.8890312 234 88 12
1.2302326 0.13112065 1.8890312 234 88 12
1.2288917 0.1420759 1.8890312 234 88 12
1.2277743 0.15120527 1.8890312 234 88 12
1.1985521 0.18079023 1.3922569 234 88 12
1.1947663 0.18614289 1.3315073 234 88 12
1.1984888 0.19058521 1.4142923 234 88 12
1.195917 0.20519222 1.3990797 234 88 12
1.1917868 0.21214083 1.3354387 234 88 12
1.2005143 0.20965137 1.4988788 234 88 12
1.2160399 0.19558881 1.7667474 234 88 12
1.1993924 0.2163803 1.4930921 234 88 12
1.2033483 0.22421765 1.5884666 234 88 12
1.2029982 0.22707777 1.5884666 234 88 12
1.1905609 0.24762346 1.3959272 234 88 12
1.2000048 0.23625579 1.5521817 234 88 12
1.2017009 0.23835385 1.5900756 234 88 12
1.1967217 0.24879426 1.5182525 234 88 12
1.1915797 0.26516077 1.4573482 234 88 12
1.231851 0.13131873 1.8881793 234 88 12
1.2307335 0.14044811 1.8881793 234 88 12
1.2006201 0.16412489 1.3254268 234 88 12
1.2008158 0.17127787 1.3475763 234 88 12
1.1993949 0.17534159 1.3284833 234 88 12
1.1999425 0.17863117 1.3481296 234 88 12
1.1998117 0.1855461 1.3629273 234 88 12
1.19664 0.19783534 1.3284466 234 88 12
1.2007082 0.19787942 1.4126785 234 88 12
1.2040367 0.20090835 1.4891721 234 88 12
1.1946368 0.21627636 1.3336983 234 88 12
1.1952707 0.21881288 1.3532251 234 88 12
1.1981783 0.21862391 1.4128684 234 88 12
1.2059762 0.21472336 1.5642415 234 88 12
1.1958333 0.23039971 1.3941853 234 88 12
1.2058358 0.21981822 1.5742326 234 88 12
1.1925975 0.24378368 1.3611488 234 88 12
1.1989707 0.23721264 1.4763005 234 88 12
1.211882 0.21990412 1.6994702 234 88 12
1.2036113 0.23970555 1.5785666 234 88 12
1.1989334 0.2500582 1.5080411 234 88 12
1.1899614 0.26839018 1.3689188 234 88 12
1.1914394 0.26851907 1.399807 234 88 12
1.2209625 0.21786481 1.8820741 234 88 12
1.2313727 0.20285791 2.0593517 234 88 12
1.2310697 0.20533353 2.0593517 234 88 12
1.2402315 0.074010924 1.8812125 234 88 12
1.2310109 0.15160143 1.8873276 234 88 12
1.2024895 0.17584524 1.3219519 234 88 12
1.2023866 0.18970695 1.3572147 234 88 12
1.2004216 0.19449319 1.3266977 234 88 12
1.2068416 0.19557133 1.4716589 234 88 12
1.1998755 0.20496331 1.3429692 234 88 12
1.1994234 0.20865633 1.3429692 234 88 12
1.2035375 0.21336088 1.4467309 234 88 12
1.2044718 0.21505874 1.4720026 234 88 12
1.206742 0.22002453 1.5356786 234 88 12
1.1957986 0.23821285 1.3428123 234 88 12
1.1958206 0.24417819 1.3594522 234 88 12
1.1949409 0.25143397 1.3596385 234 88 12
1.1946746 0.2576268 1.3705182 234 88 12
1.2084799 0.23591988 1.6171733 234 88 12
1.194098 0.26426923 1.3757493 234 88 12
1.2308033 0.21660812 2.0587742 234 88 12
1.2420945 0.072364435 1.8803509 234 88 12
1.2416424 0.076058134 1.8803509 234 88 12
1.2054917 0.18684295 1.3430555 234 88 12
1.2072104 0.20129468 1.4260057 234 88 12
1.2064599 0.20800744 1.4276966 234 88 12
1.2027919 0.21525872 1.3615661 234 88 12
1.2023484 0.21888216 1.3615661 234 88 12
1.206955 0.21866181 1.4704862 234 88 12
1.2029085 0.2270764 1.3987434 234 88 12
1.2094294 0.22035345 1.5342642 234 88 12
1.2065338 0.22723521 1.4854287 234 88 12
1.2024025 0.23909448 1.4216942 234 88 12
1.2105943 0.22802332 1.5842985 234 88 12
1.2024335 0.24442551 1.4379489 234 88 12
1.2110251 0.23388994 1.611623 234 88 12
1.2073702 0.24517007 1.557532 234 88 12
1.1991525 0.26365352 1.4158908 234 88 12
1.2014282 0.26163515 1.4641397 234 88 12
1.2420695 0.088091977 1.8856238 234 88 12
1.212127 0.16139695 1.3465809 234 88 12
1.2116779 0.16506584 1.3465809 234 88 12
1.2326831 0.16477872 1.8856238 234 88 12
1.2092106 0.18355608 1.3413354 234 88 12
1.2076786 0.1914351 1.3267417 234 88 12
1.2065582 0.2023907 1.3324133 234 88 12
1.2078745 0.20419875 1.3719397 234 88 12
1.2060034 0.2156518 1.3598757 234 88 12
1.2055598 0.21927524 1.3598757 234 88 12
1.209474 0.21682329 1.4527723 234 88 12
1.2052089 0.22574261 1.3712027 234 88 12
1.2065322 0.22945489 1.4168979 234 88 12
1.2093694 0.22758229 1.4839361 234 88 12
1.2105402 0.23058392 1.5234746 234 88 12
1.2089953 0.24524345 1.5298905 234 88 12
1.2099869 0.24549036 1.5561546 234 88 12
1.2096256 0.24844271 1.5561546 234 88 12
1.2077311 0.25468591 1.5271004 234 88 12
1.2425704 0.097419433 1.8847721 234 88 12
1.2122186 0.18072191 1.3212893 234 88 12
1.2117598 0.18447129 1.3212893 234 88 12
1.210533 0.19557719 1.3249984 234 88 12
1.2162416 0.19301412 1.475819 234 88 12
1.2098546 0.20279221 1.3307179 234 88 12
1.2093996 0.20650941 1.3307179 234 88 12
1.2092873 0.20980364 1.3388505 234 88 12
1.2320665 0.18323554 1.8847721 234 88 12
1.2315791 0.18542294 1.8786277 234 88 12
1.2092637 0.21896207 1.3695303 234 88 12
1.2084588 0.22888568 1.3809869 234 88 12
1.2123344 0.22517166 1.4766262 234 88 12
1.2091513 0.23325531 1.4152983 234 88 12
1.2125832 0.22974084 1.4992176 234 88 12
1.2132559 0.23091634 1.5220451 234 88 12
1.2083751 0.24518993 1.4344357 234 88 12
1.204561 0.25544757 1.3629073 234 88 12
1.2083024 0.25035501 1.4500791 234 88 12
1.2060872 0.25752452 1.4126835 234 88 12
1.2031232 0.26651669 1.3605891 234 88 12
1.2119569 0.24940091 1.5489802 234 88 12
1.2279623 0.21497253 1.8786277 234 88 12
1.2476833 0.067424953 1.8777661 234 88 12
1.2428478 0.10857276 1.8839202 234 88 12
1.2415069 0.11952801 1.8839202 234 88 12
1.2388673 0.13945207 1.8777661 234 88 12
1.2386413 0.14129892 1.8777661 234 88 12
1.2372849 0.15238002 1.8777661 234 88 12
1.2215072 0.16474819 1.4408505 234 88 12
1.2359285 0.1634611 1.8777661 234 88 12
1.2345723 0.1745422 1.8777661 234 88 12
1.2334419 0.18377645 1.8777661 234 88 12
1.2320857 0.19485754 1.8777661 234 88 12
1.2135441 0.23361734 1.4551393 234 88 12
1.2124062 0.23837484 1.4381183 234 88 12
1.2139078 0.23778775 1.481914 234 88 12
1.2112359 0.25071406 1.448535 234 88 12
1.2300512 0.21147919 1.8777661 234 88 12
1.2417842 0.13068134 1.8830683 234 88 12
1.2143366 0.24591963 1.4312977 234 88 12
1.2326213 0.20554221 1.8830683 234 88 12
1.2321402 0.20798585 1.8769045 234 88 12
1.2391673 0.19376111 2.0558867 234 88 12
0.11889147 1.1714975 2.0957327 234 88 12
0.11765365 1.171649 2.0957327 234 88 12
0.21418135 1.1215129 1.9401407 234 88 12
0.21620531 1.1229076 1.9392889 234 88 12
0.21437943 1.1231312 1.9392889 234 88 12
0.20342419 1.124472 1.9392889 234 88 12
0.13043463 1.1734252 2.0940003 234 88 12
0.12919682 1.1735767 2.0940003 234 88 12
0.11805651 1.1749403 2.0940003 234 88 12
0.1069162 1.1763039 2.0940003 234 88 12
0.11200173 1.1767949 2.0934229 234 88 12
0.10705048 1.1774009 2.0934229 234 88 12
0.1208007 1.1768315 2.0928454 234 88 12
0.13083749 1.1767166 2.092268 234 88 12
0.19326125 1.1322862 1.9358815 234 88 12
0.14211208 1.17645 2.0916903 234 88 12
0.19528522 1.1336811 1.9350297 234 88 12
0.19345933 1.1339046 1.9350297 234 88 12
0.17690511 1.1733049 2.0911129 234 88 12
0.14348418 1.1773957 2.0911129 234 88 12
0.21009029 1.1335114 1.9341779 234 88 12
0.18290025 1.1384821 1.9333261 234 88 12
0.21596408 1.1360776 1.9324743 234 88 12
0.1513139 1.1797779 2.0893805 234 88 12
0.21616216 1.1376959 1.9316224 234 88 12
0.21433628 1.1379194 1.9316224 234 88 12
0.20338103 1.1392603 1.9316224 234 88 12
0.19425166 1.1403778 1.9316224 234 88 12
0.18329641 1.1417186 1.9316224 234 88 12
0.16877756 1.1787539 2.0888031 234 88 12
0.17436512 1.1444545 1.9307706 234 88 12
0.17253923 1.1446779 1.9307706 234 88 12
0.10578341 1.1875778 2.0882256 234 88 12
0.18734431 1.1445084 1.9299188 234 88 12
0.11458238 1.1876144 2.0876482 234 88 12
0.20214939 1.1443387 1.9290669 234 88 12
0.14189553 1.1517137 1.9290669 234 88 12
0.14006965 1.1519372 1.9290669 234 88 12
0.12461916 1.1874994 2.0870707 234 88 12
0.2151286 1.1443926 1.9282151 234 88 12
0.16035235 1.1510972 1.9282151 234 88 12
0.1290336 1.1537485 1.9225699 234 88 12
0.13094251 1.187839 2.086493 234 88 12
0.13108081 1.1551594 1.9217082 234 88 12
0.12923396 1.1553855 1.9217082 234 88 12
0.11815286 1.1567417 1.9217082 234 88 12
0.1552902 1.1538576 1.9208466 234 88 12
0.14974965 1.1545358 1.9208466 234 88 12
0.1442091 1.155214 1.9208466 234 88 12
0.13866855 1.1558921 1.9208466 234 88 12
0.12943432 1.1570224 1.9208466 234 88 12
0.11835322 1.1583787 1.9208466 234 88 12
0.16642421 1.1552817 1.9256597 234 88 12
0.16094659 1.1559522 1.9256597 234 88 12
0.1573374 1.1552684 1.9199849 234 88 12
0.10747247 1.1613718 1.9199849 234 88 12
0.18122929 1.1551121 1.9248078 234 88 12
0.16307831 1.1562272 1.9191234 234 88 12
0.1942085 1.155166 1.923956 234 88 12
0.2071877 1.1552199 1.9231042 234 88 12
0.20353596 1.1556669 1.9231042 234 88 12
0.10992039 1.1660565 1.9174001 234 88 12
0.10622669 1.1665087 1.9174001 234 88 12
0.11689447 1.1962397 2.0830283 234 88 12
0.10699197 1.1974517 2.0830283 234 88 12
0.12304869 1.166111 1.9165386 234 88 12
0.10836406 1.1983973 2.0824509 234 88 12
0.10712625 1.1985488 2.0824509 234 88 12
0.21123561 1.1580095 1.9214005 234 88 12
0.20393211 1.1589035 1.9214005 234 88 12
0.19297686 1.1602445 1.9214005 234 88 12
0.18202162 1.1615853 1.9214005 234 88 12
0.13802384 1.1659396 1.915677 234 88 12
0.095546305 1.1711388 1.915677 234 88 12
0.15115213 1.165994 1.9148153 234 88 12
0.14930528 1.1662201 1.9148153 234 88 12
0.16428043 1.1660485 1.9139537 234 88 12
0.19183463 1.1926347 2.0801408 234 88 12
0.1862676 1.1659933 1.9188451 234 88 12
0.18261586 1.1664402 1.9188451 234 88 12
0.090606824 1.1767277 1.9130921 234 88 12
0.19924681 1.1660472 1.9179932 234 88 12
0.10373513 1.1767821 1.9122305 234 88 12
0.20857427 1.1665481 1.9171414 234 88 12
0.11686342 1.1768366 1.9113688 234 88 12
0.18170349 1.1705617 1.9105073 234 88 12
0.17246926 1.171692 1.9105073 234 88 12
0.16138816 1.1730483 1.9105073 234 88 12
0.15030706 1.1744046 1.9105073 234 88 12
0.13922597 1.1757609 1.9105073 234 88 12
0.12999173 1.1768912 1.9105073 234 88 12
0.12814488 1.1771172 1.9105073 234 88 12
0.11706378 1.1784736 1.9105073 234 88 12
0.10782953 1.1796038 1.9105073 234 88 12
0.096748434 1.1809602 1.9105073 234 88 12
0.14496687 1.1767197 1.9096457 234 88 12
0.085867696 1.1839534 1.9096457 234 88 12
0.18395106 1.1736095 1.908784 234 88 12
0.15809517 1.1767741 1.908784 234 88 12
0.10214575 1.2091802 2.0772536 234 88 12
0.1901647 1.1995203 2.0766761 234 88 12
0.17122348 1.1768287 1.9079225 234 88 12
0.19130591 1.1768745 1.9128822 234 88 12
0.18435177 1.1768832 1.9070609 234 88 12
0.18250492 1.1771092 1.9070609 234 88 12
0.097549856 1.1875077 1.9070609 234 88 12
0.095703006 1.1877338 1.9070609 234 88 12
0.084621914 1.1890901 1.9070609 234 88 12
0.20611098 1.1767049 1.9120305 234 88 12
0.20428512 1.1769284 1.9120305 234 88 12
0.11067816 1.1875622 1.9061992 234 88 12
0.12380645 1.1876168 1.9053376 234 88 12
0.20468128 1.1801651 1.9103268 234 88 12
0.13693476 1.1876713 1.904476 234 88 12
0.1519099 1.1874998 1.9036144 234 88 12
0.15006305 1.1877258 1.9036144 234 88 12
0.1650382 1.1875544 1.9027528 234 88 12
0.18862906 1.207503 2.0726337 234 88 12
0.17816651 1.1876088 1.9018912 234 88 12
0.089517742 1.1984594 1.9018912 234 88 12
0.085824043 1.1989115 1.9018912 234 88 12
0.1019822 1.2181085 2.0726337 234 88 12
0.1981701 1.1875322 1.9069195 234 88 12
0.19269247 1.1882026 1.9069195 234 88 12
0.1044929 1.1982878 1.9010296 234 88 12
0.18889764 1.2096972 2.0714786 234 88 12
0.11762119 1.1983424 1.9001679 234 88 12
0.10101296 1.2204542 2.0714786 234 88 12
0.19354236 1.1907111 1.8993063 234 88 12
0.18246126 1.1920674 1.8993063 234 88 12
0.17138018 1.1934237 1.8993063 234 88 12
0.16029908 1.1947801 1.8993063 234 88 12
0.15106483 1.1959103 1.8993063 234 88 12
0.13998374 1.1972667 1.8993063 234 88 12
0.13074949 1.1983969 1.8993063 234 88 12
0.12890264 1.1986229 1.8993063 234 88 12
0.11782154 1.1999793 1.8993063 234 88 12
0.10674045 1.2013355 1.8993063 234 88 12
0.095659353 1.2026919 1.8993063 234 88 12
0.084578261 1.2040483 1.8993063 234 88 12
0.14387779 1.1984514 1.8984448 234 88 12
0.15700608 1.198506 1.8975831 234 88 12
0.17198125 1.1983345 1.8967215 234 88 12
0.083332479 1.209185 1.8967215 234 88 12
0.19434379 1.1972587 1.89586 234 88 12
0.18510954 1.1983889 1.89586 234 88 12
0.18326269 1.1986151 1.89586 234 88 12
0.096460775 1.2092395 1.89586 234 88 12
0.20138253 1.1986369 1.9009567 234 88 12
0.19639099 1.1986696 1.8949983 234 88 12
0.10958908 1.2092941 1.8949983 234 88 12
0.10774223 1.2095201 1.8949983 234 88 12
0.12456422 1.2091225 1.8941367 234 88 12
0.074699298 1.2152259 1.8941367 234 88 12
0.13769253 1.209177 1.893275 234 88 12
0.18639275 1.2200257 2.0662813 234 88 12
0.15082082 1.2092316 1.8924135 234 88 12
0.098508075 1.2307826 2.0662813 234 88 12
0.16394912 1.2092861 1.8915519 234 88 12
0.16025543 1.2097383 1.8915519 234 88 12
0.077147216 1.2199106 1.8915519 234 88 12
0.075300366 1.2201366 1.8915519 234 88 12
0.17892428 1.2091146 1.8906902 234 88 12
0.13542362 1.2064439 1.7914438 234 88 12
0.13223426 1.2043586 1.760712 234 88 12
0.090275511 1.2199651 1.8906902 234 88 12
0.19205257 1.2091691 1.8898287 234 88 12
0.1414209 1.2126126 1.854201 234 88 12
0.1347845 1.2061161 1.7596387 234 88 12
0.12966861 1.2056209 1.7451291 234 88 12
0.12731737 1.2059087 1.7451291 234 88 12
0.10340381 1.2200197 1.8898287 234 88 12
0.19911733 1.210412 1.8949939 234 88 12
0.19779347 1.2101278 1.888967 234 88 12
0.19409977 1.21058 1.888967 234 88 12
0.18301868 1.2119362 1.888967 234 88 12
0.17193758 1.2132926 1.888967 234 88 12
0.16085649 1.214649 1.888967 234 88 12
0.16322234 1.1838199 1.4764667 234 88 12
0.15843247 1.2009833 1.7003766 234 88 12
0.15094383 1.2023164 1.7060015 234 88 12
0.14578296 1.2016039 1.6878463 234 88 12
0.1440445 1.2159072 1.8781693 234 88 12
0.13814265 1.2025391 1.6878463 234 88 12
0.13839094 1.2109245 1.8015196 234 88 12
0.13425328 1.2118174 1.8067399 234 88 12
0.13135163 1.210548 1.7847972 234 88 12
0.12174238 1.2025723 1.6611817 234 88 12
0.11738033 1.2003016 1.6232996 234 88 12
0.12161405 1.2103785 1.7664088 234 88 12
0.12391951 1.21917 1.888967 234 88 12
0.11837896 1.2198482 1.888967 234 88 12
0.11653211 1.2200742 1.888967 234 88 12
0.10729787 1.2212044 1.888967 234 88 12
0.096216768 1.2225608 1.888967 234 88 12
0.085135676 1.2239171 1.888967 234 88 12
0.074054576 1.2252734 1.888967 234 88 12
0.19839951 1.1735353 1.3487624 234 88 12
0.1676217 1.1964213 1.6188422 234 88 12
0.16604276 1.19055 1.5331715 234 88 12
0.15987723 1.1913586 1.5339339 234 88 12
0.1508996 1.1978781 1.6105082 234 88 12
0.14839786 1.2014078 1.6560448 234 88 12
0.1442043 1.2076504 1.736979 234 88 12
0.13946043 1.2082311 1.736979 234 88 12
0.13691345 1.214168 1.8164428 234 88 12
0.12938195 1.2127767 1.7837664 234 88 12
0.12438133 1.2086326 1.7165792 234 88 12
0.12611526 1.2149881 1.8093572 234 88 12
0.11229692 1.1996031 1.5681297 234 88 12
0.10689424 1.2009213 1.57741 234 88 12
0.12042616 1.221259 1.8881054 234 88 12
0.079836093 1.1921525 1.4067521 234 88 12
0.19880317 1.1768332 1.3470266 234 88 12
0.18791857 1.1775744 1.3382771 234 88 12
0.18322179 1.1804085 1.3717198 234 88 12
0.17701469 1.188172 1.4753964 234 88 12
0.17499892 1.1844307 1.416362 234 88 12
0.17118743 1.1861494 1.4348973 234 88 12
0.1605223 1.2111415 1.7855304 234 88 12
0.15735967 1.1906129 1.4759172 234 88 12
0.15390117 1.2147917 1.8275671 234 88 12
0.15157257 1.2087709 1.7342232 234 88 12
0.14956222 1.2128867 1.7915066 234 88 12
0.14679776 1.2092221 1.7322499 234 88 12
0.14584783 1.2165976 1.8397088 234 88 12
0.14165255 1.216539 1.8312411 234 88 12
0.13976084 1.2171954 1.8375298 234 88 12
0.13055004 1.2120882 1.7452401 234 88 12
0.13257642 1.2196774 1.8612539 234 88 12
0.1278169 1.2156209 1.7925807 234 88 12
0.11754783 1.20461 1.6109804 234 88 12
0.11870395 1.2133429 1.7423491 234 88 12
0.11799484 1.2154454 1.772187 234 88 12
0.10300484 1.2025498 1.5541351 234 88 12
0.10014452 1.2030549 1.5564291 234 88 12
0.19582778 1.1799808 1.336527 234 88 12
0.18702374 1.1836697 1.3771189 234 88 12
0.18361615 1.1836303 1.370024 234 88 12
0.17155801 1.1891769 1.4333036 234 88 12
0.16743499 1.1927645 1.4812279 234 88 12
0.16245444 1.2032346 1.6345068 234 88 12
0.15836953 1.2149595 1.8089992 234 88 12
0.15643877 1.2124822 1.7668145 234 88 12
0.14560859 1.2161646 1.8034507 234 88 12
0.14156878 1.2173978 1.8149359 234 88 12
0.12802987 1.2137498 1.7324662 234 88 12
0.11895882 1.2154254 1.7412531 234 88 12
0.10279749 1.2011039 1.4878781 234 88 12
0.090633728 1.2001318 1.4496223 234 88 12
0.077717103 1.1961621 1.3633367 234 88 12
0.08186999 1.2023277 1.4670831 234 88 12
0.19118047 1.2283479 2.0616617 234 88 12
0.19895357 1.1844479 1.358915 234 88 12
0.17858617 1.191808 1.4385543 234 88 12
0.17162977 1.2025514 1.6004102 234 88 12
0.16583905 1.2129993 1.7597674 234 88 12
0.16319111 1.2148054 1.7840167 234 88 12
0.16335721 1.202381 1.5810549 234 88 12
0.16063397 1.2013984 1.559522 234 88 12
0.15747023 1.2042356 1.5996093 234 88 12
0.14994885 1.2158264 1.7742026 234 88 12
0.14868711 1.2224963 1.8808111 234 88 12
0.14584011 1.218056 1.8024551 234 88 12
0.14175805 1.2111216 1.6808141 234 88 12
0.1392034 1.2114342 1.6808141 234 88 12
0.14026739 1.2209489 1.8386301 234 88 12
0.13605447 1.2210654 1.8320976 234 88 12
0.13104668 1.22333 1.8591233 234 88 12
0.1273482 1.2213194 1.8188177 234 88 12
0.12142248 1.2199056 1.7838165 234 88 12
0.12274738 1.2237276 1.8490062 234 88 12
0.1171697 1.2205794 1.7863246 234 88 12
0.091192745 1.1999128 1.3961408 234 88 12
0.078113966 1.1994045 1.36163 234 88 12
0.077281773 1.2018156 1.3994147 234 88 12
0.084090248 1.2306907 1.8855206 234 88 12
0.074855998 1.2318209 1.8855206 234 88 12
0.099582344 1.2395594 2.0616617 234 88 12
0.21921574 1.1838026 1.3319122 234 88 12
0.21515991 1.1846054 1.3372015 234 88 12
0.18217361 1.2203468 1.8846589 234 88 12
0.19935146 1.1876986 1.3572038 234 88 12
0.1920913 1.1884669 1.3551248 234 88 12
0.18108043 1.1897839 1.3545948 234 88 12
0.16730052 1.2176384 1.8064554 234 88 12
0.17280141 1.1936325 1.4035532 234 88 12
0.16929373 1.1940619 1.4035532 234 88 12
0.16206168 1.2129164 1.7138447 234 88 12
0.15925904 1.2157391 1.7566627 234 88 12
0.1546573 1.2171577 1.771432 234 88 12
0.14697009 1.2241158 1.8753363 234 88 12
0.14040726 1.2225384 1.8342255 234 88 12
0.13790703 1.2217757 1.8157706 234 88 12
0.13300061 1.2210777 1.7933489 234 88 12
0.12867649 1.221607 1.7933489 234 88 12
0.12595278 1.2211879 1.7803569 234 88 12
0.11474097 1.2201396 1.7385579 234 88 12
0.0721775 1.2041545 1.3725691 234 88 12
0.097218543 1.2307452 1.8846589 234 88 12
0.095371693 1.2309713 1.8846589 234 88 12
0.19021122 1.2306936 2.0605066 234 88 12
0.19847994 1.2203454 1.8898829 234 88 12
0.19714876 1.2201753 1.8837974 234 88 12
0.19345506 1.2206274 1.8837974 234 88 12
0.21556528 1.1879172 1.3354582 234 88 12
0.20404774 1.1937289 1.4159063 234 88 12
0.20402311 1.189718 1.3425486 234 88 12
0.19355275 1.1951733 1.4188268 234 88 12
0.17906816 1.2045952 1.558617 234 88 12
0.17240353 1.2131487 1.7000296 234 88 12
0.16534054 1.2199895 1.8092505 234 88 12
0.16915229 1.1990418 1.4349446 234 88 12
0.1548593 1.2202514 1.790591 234 88 12
0.15274566 1.2225956 1.8287041 234 88 12
0.15059102 1.221536 1.8045191 234 88 12
0.14839193 1.2212857 1.7950255 234 88 12
0.14646192 1.2225578 1.8139569 234 88 12
0.14163688 1.2212427 1.7791295 234 88 12
0.13942929 1.2215129 1.7791295 234 88 12
0.13677675 1.2208848 1.7617177 234 88 12
0.13527198 1.2225083 1.7880216 234 88 12
0.12322507 1.2226074 1.7628844 234 88 12
0.11153973 1.2136606 1.5732369 234 88 12
0.10461667 1.2134551 1.5539941 234 88 12
0.11264484 1.2225113 1.7374611 234 88 12
0.089580901 1.2074769 1.4111046 234 88 12
0.086104892 1.2079023 1.4111046 234 88 12
0.08248771 1.2108173 1.4562881 234 88 12
0.071385086 1.2066641 1.3555493 234 88 12
0.065340362 1.208243 1.3708827 234 88 12
0.099850915 1.2417536 2.0605066 234 88 12
0.21564694 1.1915592 1.3393502 234 88 12
0.19254601 1.2103542 1.6491923 234 88 12
0.19960023 1.1988765 1.4432253 234 88 12
0.19371676 1.2025739 1.5009993 234 88 12
0.18523705 1.1964376 1.3617871 234 88 12
0.18159692 1.1968832 1.3617871 234 88 12
0.17770858 1.1979145 1.3725628 234 88 12
0.17410553 1.1983554 1.3725628 234 88 12
0.16493121 1.2074583 1.527408 234 88 12
0.15926909 1.2225604 1.8070105 234 88 12
0.15828481 1.212745 1.6142079 234 88 12
0.1551154 1.2217197 1.7808317 234 88 12
0.15285569 1.2189866 1.7224303 234 88 12
0.1480574 1.2195739 1.7224303 234 88 12
0.14570609 1.2200785 1.7266364 234 88 12
0.14205985 1.2236948 1.7881489 234 88 12
0.11800808 1.2219334 1.6968448 234 88 12
0.10047185 1.2125422 1.4729631 234 88 12
0.093956701 1.2133397 1.4729631 234 88 12
0.091322288 1.2141455 1.4823434 234 88 12
0.074997693 1.209203 1.3476632 234 88 12
0.078370534 1.2135314 1.439664 234 88 12
0.069347128 1.2110043 1.3691964 234 88 12
0.10870035 1.2326627 1.8829358 234 88 12
0.21976519 1.1944011 1.3376546 234 88 12
0.1985496 1.1998893 1.3974414 234 88 12
0.18791974 1.2058897 1.4946141 234 88 12
0.18826479 1.2007883 1.3899996 234 88 12
0.18520315 1.2004021 1.3742681 234 88 12
0.17447495 1.2090521 1.5259757 234 88 12
0.17449641 1.2015489 1.3708818 234 88 12
0.16402142 1.2229741 1.7873946 234 88 12
0.15817073 1.2184913 1.6798946 234 88 12
0.15516859 1.226941 1.8470144 234 88 12
0.1301669 1.2282485 1.8107746 234 88 12
0.11864179 1.2218286 1.648854 234 88 12
0.12169347 1.2291873 1.8087398 234 88 12
0.11674711 1.2273179 1.7575674 234 88 12
0.11818575 1.2301813 1.8204161 234 88 12
0.089532696 1.2156972 1.4483992 234 88 12
0.079086594 1.2120209 1.3459423 234 88 12
0.10646414 1.2307103 1.8016875 234 88 12
0.068302535 1.2135121 1.3494823 234 88 12
0.064625964 1.2139621 1.3494823 234 88 12
0.059304286 1.2136943 1.3304782 234 88 12
0.19745785 1.2131271 1.6158352 234 88 12
0.19873843 1.2094022 1.5368887 234 88 12
0.20496331 1.1998755 1.3429692 234 88 12
0.18076976 1.2237602 1.8058977 234 88 12
0.19779518 1.2005117 1.3376352 234 88 12
0.18702862 1.2103503 1.526155 234 88 12
0.18356594 1.2068306 1.4389056 234 88 12
0.18108487 1.2056637 1.406368 234 88 12
0.16860284 1.2127064 1.5283866 234 88 12
0.16216739 1.214949 1.5605741 234 88 12
0.15857928 1.2198117 1.6584427 234 88 12
0.14652787 1.2255667 1.7531375 234 88 12
0.1442014 1.2316667 1.8817972 234 88 12
0.14222281 1.2316195 1.8753935 234 88 12
0.13702607 1.2260658 1.7384471 234 88 12
0.12214697 1.231217 1.8121237 234 88 12
0.11463192 1.2276886 1.7137063 234 88 12
0.10460427 1.2251389 1.6301409 234 88 12
0.093409136 1.2206506 1.5005183 234 88 12
0.10343652 1.2280685 1.6917949 234 88 12
0.074537188 1.2151083 1.3267907 234 88 12
0.21638203 1.2018441 1.3422929 234 88 12
0.21269257 1.2022957 1.3422929 234 88 12
0.20461047 1.2068757 1.4276966 234 88 12
0.19191827 1.2165697 1.621308 234 88 12
0.19520861 1.2104858 1.4861894 234 88 12
0.17054757 1.22679 1.8021722 234 88 12
0.17457671 1.2094524 1.4015481 234 88 12
0.1710902 1.2098792 1.4015481 234 88 12
0.16468728 1.2195714 1.6134264 234 88 12
0.16146226 1.2218531 1.6583087 234 88 12
0.15811338 1.2267722 1.7655526 234 88 12
0.15590248 1.2266926 1.7572225 234 88 12
0.15151593 1.2291133 1.802029 234 88 12
0.14111724 1.2307488 1.810653 234 88 12
0.13908906 1.2310978 1.8130524 234 88 12
0.13792636 1.2326472 1.8465177 234 88 12
0.13198303 1.2308923 1.7874781 234 88 12
0.12626733 1.2276217 1.6930501 234 88 12
0.1263468 1.2302433 1.7556351 234 88 12
0.12590763 1.2320325 1.7969105 234 88 12
0.12479909 1.2330675 1.8182997 234 88 12
0.10760608 1.2272077 1.6288775 234 88 12
0.068066649 1.2196035 1.332918 234 88 12
0.064959586 1.2202985 1.3404007 234 88 12
0.076058134 1.2416424 1.8803509 234 88 12
0.19086391 1.2121532 1.4399679 234 88 12
0.1900989 1.2093432 1.3653289 234 88 12
0.18679622 1.2093709 1.3556485 234 88 12
0.17842783 1.2170173 1.5258733 234 88 12
0.16932805 1.2277789 1.773872 234 88 12
0.16928047 1.2237734 1.6707592 234 88 12
0.16591011 1.2259828 1.7169508 234 88 12
0.15784664 1.2315456 1.8345721 234 88 12
0.14956966 1.2308856 1.7915649 234 88 12
0.14715248 1.2301129 1.7640989 234 88 12
0.14369513 1.2329308 1.8256549 234 88 12
0.13976537 1.2336304 1.8312757 234 88 12
0.13752972 1.2335804 1.8229545 234 88 12
0.13330643 1.2312975 1.7509854 234 88 12
0.12709059 1.2326744 1.7668209 234 88 12
0.12164921 1.2325388 1.746217 234 88 12
0.12148289 1.2341936 1.7882279 234 88 12
0.11528987 1.2320596 1.71389 234 88 12
0.10411043 1.2275162 1.5619245 234 88 12
0.10153713 1.2280599 1.5678048 234 88 12
0.084419712 1.2215909 1.3476586 234 88 12
0.075350501 1.221753 1.3232931 234 88 12
0.076514788 1.2241662 1.388988 234 88 12
0.068470374 1.2229021 1.3311819 234 88 12
0.064748831 1.2233576 1.3311819 234 88 12
0.061664619 1.2240266 1.3386765 234 88 12
0.09103328 1.2414708 1.8794893 234 88 12
0.19281034 1.2306749 1.8786277 234 88 12
0.17298016 1.2399404 2.0698049 234 88 12
0.20879801 1.210102 1.3581852 234 88 12
0.20109846 1.2140446 1.4420602 234 88 12
0.19611581 1.215957 1.4784788 234 88 12
0.19290301 1.2163503 1.4784788 234 88 12
0.18300676 1.2138022 1.373379 234 88 12
0.17988695 1.2135299 1.3550906 234 88 12
0.16540059 1.2297478 1.758916 234 88 12
0.16228867 1.232247 1.8181375 234 88 12
0.15413173 1.2307442 1.7482159 234 88 12
0.15192282 1.2321551 1.7800986 234 88 12
0.14971489 1.2322783 1.7759893 234 88 12
0.14346156 1.233788 1.7967948 234 88 12
0.13880883 1.2337372 1.7794554 234 88 12
0.13335897 1.233114 1.7433841 234 88 12
0.11829005 1.2356834 1.7636535 234 88 12
0.098412946 1.2270916 1.4554331 234 88 12
0.095121473 1.2274944 1.4554331 234 88 12
0.076779902 1.2254664 1.3359737 234 88 12
0.0756905 1.2268562 1.3711032 234 88 12
0.10416158 1.2415254 1.8786277 234 88 12
0.19670439 1.2318597 1.8777661 234 88 12
0.19301069 1.2323117 1.8777661 234 88 12
0.1973463 1.2155194 1.3796563 234 88 12
0.18596384 1.2176803 1.4031721 234 88 12
0.17223939 1.228223 1.6746473 234 88 12
0.17482445 1.2201705 1.4376854 234 88 12
0.15648508 1.2338524 1.7880148 234 88 12
0.14966318 1.2325824 1.7235414 234 88 12
0.14720677 1.2325803 1.7142658 234 88 12
0.1460517 1.2359951 1.8145293 234 88 12
0.13876653 1.2353063 1.7661182 234 88 12
0.11504417 1.2373767 1.7405967 234 88 12
0.09662623 1.2353828 1.610469 234 88 12
0.072499461 1.2304668 1.3694333 234 88 12
0.073184624 1.2321098 1.4223289 234 88 12
0.10620879 1.2429363 1.8777661 234 88 12
0.096974537 1.2440665 1.8777661 234 88 12
0.085893445 1.2454228 1.8777661 234 88 12
0.19641283 1.2337388 1.8830683 234 88 12
0.21615514 1.2160568 1.3661855 234 88 12
0.21257043 1.2164956 1.3661855 234 88 12
0.20056967 1.2208657 1.4644204 234 88 12
0.18446557 1.2311293 1.7451986 234 88 12
0.18204902 1.2315098 1.7480667 234 88 12
0.19010672 1.2226857 1.4826801 234 88 12
0.18670055 1.2203753 1.3903372 234 88 12
0.18460827 1.2191834 1.3413106 234 88 12
0.17767654 1.2238309 1.4699427 234 88 12
0.17616874 1.221697 1.3914403 234 88 12
0.16349314 1.237854 1.8859749 234 88 12
0.16367279 1.2339426 1.7542822 234 88 12
0.15998967 1.2379599 1.8750397 234 88 12
0.15013826 1.2358803 1.7637999 234 88 12
0.14487635 1.2345704 1.6976377 234 88 12
0.14502896 1.2395329 1.8663036 234 88 12
0.12818961 1.2388438 1.7731798 234 88 12
0.11455705 1.2378141 1.681815 234 88 12
0.11371487 1.2410479 1.7878187 234 88 12
0.081588633 1.2316697 1.3371354 234 88 12
0.074221507 1.2325715 1.3371354 234 88 12
0.076952435 1.2347064 1.4207431 234 88 12
0.067488708 1.2336293 1.3450522 234 88 12
0.063832089 1.234077 1.3450522 234 88 12
-1.2058741 1.1795547 1.4970334 234 88 12
-1.2094066 1.1778709 1.4957665 234 88 12
-1.2035587 1.1876041 1.4932331 234 88 12
-1.203826 1.1930332 1.4894328 234 88 12
-1.2102824 1.1864828 1.4894328 234 88 12
-1.2099411 1.1887292 1.4881661 234 88 12
-1.2199302 1.180495 1.4868993 234 88 12
-1.2050431 1.1993986 1.4843658 234 88 12
-1.2095256 1.1986512 1.4818323 234 88 12
-1.220806 1.1891069 1.4805655 234 88 12
-1.2059189 1.2080106 1.4780321 234 88 12
-1.2097929 1.2040803 1.4780321 234 88 12
-1.2162493 1.1975299 1.4780321 234 88 12
-1.2201233 1.1935997 1.4780321 234 88 12
-1.2265798 1.1870494 1.4780321 234 88 12
-1.2065275 1.2111933 1.4754986 234 88 12
-1.2100601 1.2095095 1.4742318 234 88 12
-1.2203906 1.1990288 1.4742318 234 88 12
-1.2307209 1.1885482 1.4742318 234 88 12
-1.2083533 1.2207415 1.4678981 234 88 12
-1.2096446 1.2194314 1.4678981 234 88 12
-1.219975 1.2089509 1.4678981 234 88 12
-1.2315967 1.1971601 1.4678981 234 88 12
1.1964884 -1.1595466 1.5094289 234 88 12
1.1991386 -1.1569344 1.5094289 234 88 12
1.1940292 -1.1676538 1.505585 234 88 12
1.1985736 -1.1669632 1.5030223 234 88 12
1.2091746 -1.1565142 1.5030223 234 88 12
1.1938422 -1.1754156 1.5004597 234 88 12
1.1991427 -1.170191 1.5004597 234 88 12
1.2044431 -1.1649666 1.5004597 234 88 12
1.2097436 -1.159742 1.5004597 234 88 12
1.1934642 -1.1776826 1.4991784 234 88 12
1.1989557 -1.1779529 1.4953345 234 88 12
1.2094977 -1.1707417 1.5008335 234 88 12
1.2108817 -1.1661977 1.4953345 234 88 12
1.1928991 -1.1877115 1.4927719 234 88 12
1.2207267 -1.1602826 1.4927719 234 88 12
1.2093128 -1.1784154 1.4957665 234 88 12
1.1930901 -1.1932063 1.488928 234 88 12
1.1983906 -1.1879817 1.488928 234 88 12
1.1997157 -1.1866757 1.488928 234 88 12
1.2169423 -1.1696959 1.488928 234 88 12
1.2209177 -1.1657774 1.488928 234 88 12
1.2514697 -1.2261398 1.6498587 234 88 12
1.2205397 -1.1680444 1.4876467 234 88 12
1.2055714 -1.1877217 1.4919662 234 88 12
1.2199821 -1.1735173 1.4919662 234 88 12
1.1919559 -1.2000073 1.4850841 234 88 12
1.2427163 -1.2385768 1.6472824 234 88 12
1.2100642 -1.187039 1.4894328 234 88 12
1.2205448 -1.1767086 1.4894328 234 88 12
1.2096905 -1.1892803 1.4881661 234 88 12
1.2309537 -1.1653571 1.4825215 234 88 12
1.1987725 -1.1989714 1.4812402 234 88 12
1.2319007 -1.1663181 1.4812402 234 88 12
1.1887406 -1.2126484 1.4786776 234 88 12
1.192716 -1.20873 1.4786776 234 88 12
1.1993417 -1.2021993 1.4786776 234 88 12
1.203317 -1.1982809 1.4786776 234 88 12
1.2568012 -1.2297723 1.6438473 234 88 12
1.2271693 -1.1747704 1.4786776 234 88 12
1.2311447 -1.1708519 1.4786776 234 88 12
1.2364452 -1.1656275 1.4786776 234 88 12
1.2441139 -1.2435476 1.6429886 234 88 12
1.1866595 -1.2184885 1.476115 234 88 12
1.2091318 -1.1991951 1.4818323 234 88 12
1.2209225 -1.1875734 1.4818323 234 88 12
1.2580707 -1.2310604 1.6421298 234 88 12
1.1862814 -1.2207555 1.4748337 234 88 12
1.2300105 -1.177653 1.4748337 234 88 12
1.2419367 -1.1658977 1.4748337 234 88 12
1.1885536 -1.2204102 1.4735523 234 88 12
1.1991546 -1.2099612 1.4735523 234 88 12
1.2451301 -1.2463549 1.6404122 234 88 12
1.2593403 -1.2323483 1.6404122 234 88 12
1.2309576 -1.1786138 1.4735523 234 88 12
1.2442089 -1.1655525 1.4735523 234 88 12
1.2106308 -1.2033364 1.4780321 234 88 12
1.215871 -1.1981711 1.4780321 234 88 12
1.2211113 -1.1930059 1.4780321 234 88 12
1.182119 -1.2324357 1.4697084 234 88 12
1.2199901 -1.1997297 1.4742318 234 88 12
1.2317808 -1.188108 1.4742318 234 88 12
1.181363 -1.2369697 1.4671459 234 88 12
1.1879885 -1.2304391 1.4671459 234 88 12
1.1985896 -1.21999 1.4671459 234 88 12
1.1999147 -1.2186838 1.4671459 234 88 12
1.2091906 -1.2095408 1.4671459 234 88 12
1.2634022 -1.2346929 1.6361184 234 88 12
1.2370182 -1.182112 1.4671459 234 88 12
1.2423187 -1.1768874 1.4671459 234 88 12
1.2436439 -1.1755813 1.4671459 234 88 12
1.2529197 -1.1664383 1.4671459 234 88 12
1.2542448 -1.1651322 1.4671459 234 88 12
1.1876105 -1.2327061 1.4658645 234 88 12
1.2140023 -1.2093774 1.4716983 234 88 12
1.1792817 -1.2428099 1.4645833 234 88 12
1.2477971 -1.2526137 1.634401 234 88 12
1.2207415 -1.2083533 1.4678981 234 88 12
1.2312222 -1.1980228 1.4678981 234 88 12
1.2633337 -1.1637511 1.4620206 234 88 12
-1.2905732 1.6556362 -0.81360894 234 88 12
1.8246917 -1.166849 -0.62444419 234 88 12
1.8257976 -1.165379 -0.62444419 234 88 12
