ply
format ascii 1.0
element vertex 316
property float x
property float y
property float z
property uchar red
property uchar green
property uchar blue
end_header
-0.81516904 1.1097196 1.7842273 234 88 12
-0.81918043 1.1056501 1.7842273 234 88 12
-0.82185465 1.1029369 1.7842273 234 88 12
-0.82854021 1.0961541 1.7842273 234 88 12
-0.83121443 1.093441 1.7842273 234 88 12
-0.83817673 1.09228 1.7802922 234 88 12
-0.82846344 1.104102 1.7789805 234 88 12
-0.83782327 1.0946062 1.7789805 234 88 12
-0.82810998 1.1064281 1.7776688 234 88 12
-0.83212131 1.1023585 1.7776688 234 88 12
-0.83746982 1.0969322 1.7776688 234 88 12
-0.84148115 1.0928626 1.7776688 234 88 12
-0.82803321 1.1143759 1.772422 234 88 12
-0.83739305 1.1048801 1.772422 234 88 12
-0.84675282 1.0953842 1.772422 234 88 12
-0.81163436 1.1329807 1.7711103 234 88 12
-0.81297147 1.1316242 1.7711103 234 88 12
-0.81796646 1.1285241 1.7697986 234 88 12
-0.82598919 1.1203847 1.7697986 234 88 12
-0.8122645 1.1362764 1.768487 234 88 12
-0.81761301 1.1308502 1.768487 234 88 12
-0.81895012 1.1294936 1.768487 234 88 12
-0.82697278 1.1213543 1.768487 234 88 12
-0.82830989 1.1199977 1.768487 234 88 12
-0.83633262 1.1118584 1.768487 234 88 12
-0.83766973 1.1105019 1.768487 234 88 12
-0.8456924 1.1023625 1.768487 234 88 12
-0.84702957 1.101006 1.768487 234 88 12
-0.81859666 1.1318197 1.7671752 234 88 12
-0.82795644 1.1223239 1.7671752 234 88 12
-0.83731627 1.112828 1.7671752 234 88 12
-0.84730625 1.1066277 1.7645519 234 88 12
-0.83118409 1.1308542 1.7593051 234 88 12
-0.83786964 1.1240715 1.7593051 234 88 12
-0.84054393 1.1213584 1.7593051 234 88 12
-0.84722948 1.1145756 1.7593051 234 88 12
-0.8499037 1.1118625 1.7593051 234 88 12
-0.85658932 1.1050798 1.7593051 234 88 12
-0.84715271 1.1225234 1.7540584 234 88 12
-0.85714269 1.1163232 1.7514349 234 88 12
-0.84573883 1.1318278 1.7488116 234 88 12
-0.84707594 1.1304713 1.7488116 234 88 12
-0.85643578 1.1209755 1.7488116 234 88 12
-0.85608232 1.1233015 1.7474999 234 88 12
-0.8383463 1.1432629 1.7461882 234 88 12
-0.84770614 1.133767 1.7461882 234 88 12
-0.86571884 1.1194274 1.7435648 234 88 12
-0.84762937 1.1417148 1.7409414 234 88 12
-0.8569892 1.132219 1.7409414 234 88 12
-0.8459388 1.1453975 1.7396297 234 88 12
-0.84727591 1.1440409 1.7396297 234 88 12
-0.85128725 1.1399713 1.7396297 234 88 12
-0.85663569 1.1345451 1.7396297 234 88 12
-0.86064708 1.1304754 1.7396297 234 88 12
-1.8392467 0.21897228 1.2531828 234 88 12
-1.8394963 0.21708392 1.2531828 234 88 12
-1.8426211 0.20789018 1.2498773 234 88 12
-1.845247 0.20247316 1.2465719 234 88 12
-1.8439405 0.21959236 1.2449191 234 88 12
-1.8441899 0.21770401 1.2449191 234 88 12
-1.8451878 0.2101506 1.2449191 234 88 12
-1.8454373 0.20826225 1.2449191 234 88 12
-1.8435135 0.24451302 1.2399609 234 88 12
-1.8445114 0.23695961 1.2399609 234 88 12
-1.8467566 0.21996443 1.2399609 234 88 12
-1.8452007 0.23897198 1.2383082 234 88 12
-1.84545 0.23708363 1.2383082 234 88 12
-1.8460802 0.24677344 1.2350028 234 88 12
-1.8473276 0.23733166 1.2350028 234 88 12
-1.8485749 0.2278899 1.2350028 234 88 12
-1.8498223 0.21844813 1.2350028 234 88 12
-1.8510697 0.20900635 1.2350028 234 88 12
-1.8520212 0.23795176 1.226739 234 88 12
-1.8522707 0.23606341 1.226739 234 88 12
-1.853518 0.22662163 1.226739 234 88 12
-1.8545159 0.21906821 1.226739 234 88 12
-1.8547654 0.21717986 1.226739 234 88 12
-1.854647 0.23253474 1.2234336 234 88 12
-1.8561567 0.25002599 1.2168226 234 88 12
-1.8566557 0.24624929 1.2168226 234 88 12
-1.857903 0.23680751 1.2168226 234 88 12
-1.8591504 0.22736575 1.2168226 234 88 12
-1.8640935 0.22609748 1.208559 234 88 12
-1.862787 0.24321669 1.2069063 234 88 12
-1.8635354 0.23755163 1.2069063 234 88 12
-1.8640344 0.23377492 1.2069063 234 88 12
-1.8647828 0.22810985 1.2069063 234 88 12
-1.8642247 0.239564 1.2052536 234 88 12
-1.732223 -1.1510085 0.8414585 234 88 12
-1.7304716 -1.1543914 0.8414585 234 88 12
-1.733667 -1.1496111 0.8396644 234 88 12
-1.7281049 -1.1617458 0.83787036 234 88 12
-1.7356791 -1.148508 0.83607626 234 88 12
-1.7339276 -1.151891 0.83607626 234 88 12
-1.7304246 -1.158657 0.83607626 234 88 12
-1.7295488 -1.1603484 0.83607626 234 88 12
-1.7496442 -1.1257094 0.83069396 234 88 12
-1.7312534 -1.1612309 0.83069396 234 88 12
-1.7519639 -1.1226206 0.82889992 234 88 12
-1.752532 -1.1229148 0.82710582 234 88 12
-1.749029 -1.1296808 0.82710582 234 88 12
-1.7472775 -1.1330638 0.82710582 234 88 12
-1.7402714 -1.1465958 0.82710582 234 88 12
-1.7376442 -1.1516703 0.82710582 234 88 12
-1.7323897 -1.1618193 0.82710582 234 88 12
-1.7306383 -1.1652023 0.82710582 234 88 12
-1.753976 -1.1215174 0.82531172 234 88 12
-1.743467 -1.1418154 0.82531172 234 88 12
-1.7504261 -1.1325489 0.81992942 234 88 12
-1.7407928 -1.1511555 0.81992942 234 88 12
-1.7533139 -1.1297543 0.81634128 234 88 12
-1.7515624 -1.1331373 0.81634128 234 88 12
-1.7498108 -1.1365203 0.81634128 234 88 12
-1.7471836 -1.1415948 0.81634128 234 88 12
-1.7419291 -1.1517438 0.81634128 234 88 12
-1.7401776 -1.1551268 0.81634128 234 88 12
-1.7366745 -1.1618928 0.81634128 234 88 12
-1.7570305 -1.1295336 0.80737084 234 88 12
-1.7552791 -1.1329167 0.80737084 234 88 12
-1.7509003 -1.1413741 0.80737084 234 88 12
-1.7491487 -1.1447572 0.80737084 234 88 12
-1.7456458 -1.1515231 0.80737084 234 88 12
-1.7646047 -1.1162958 0.80557674 234 88 12
-1.7616699 -1.123356 0.80378264 234 88 12
-1.7668774 -1.1174724 0.7984004 234 88 12
-1.7642502 -1.1225469 0.7984004 234 88 12
-1.7589957 -1.1326959 0.7984004 234 88 12
-1.7537411 -1.1428449 0.7984004 234 88 12
-1.7595638 -1.1329901 0.7966063 234 88 12
-1.5902184 1.3692815 0.77297896 234 88 12
-1.5895383 1.3711535 0.77116531 234 88 12
-1.5900034 1.3715034 0.76935166 234 88 12
-1.5922937 1.3684592 0.76935166 234 88 12
-1.5980197 1.3608489 0.76935166 234 88 12
-1.5991648 1.3593268 0.76935166 234 88 12
-1.5957643 1.3686868 0.76028335 234 88 12
-1.5980546 1.3656427 0.76028335 234 88 12
-1.6026354 1.3595544 0.76028335 234 88 12
-1.581342 1.3888235 0.75846964 234 88 12
-1.5824872 1.3873014 0.75846964 234 88 12
-1.5939391 1.3720808 0.75846964 234 88 12
-1.6076812 1.353816 0.75846964 234 88 12
-1.5891433 1.380391 0.75484234 234 88 12
-1.5820571 1.3917452 0.75121498 234 88 12
-1.5854926 1.387179 0.75121498 234 88 12
-1.5889282 1.3826128 0.75121498 234 88 12
-1.5923637 1.3780466 0.75121498 234 88 12
-1.5980897 1.3704364 0.75121498 234 88 12
-1.5992348 1.3689144 0.75121498 234 88 12
-1.6061059 1.359782 0.75121498 234 88 12
-1.6072512 1.3582599 0.75121498 234 88 12
-1.6075011 1.3608317 0.74577403 234 88 12
-1.5928638 1.3831903 0.74033302 234 88 12
-1.5962994 1.3786241 0.74033302 234 88 12
-1.5985898 1.37558 0.74033302 234 88 12
-1.6043156 1.3679696 0.74033302 234 88 12
-1.6077513 1.3634036 0.74033302 234 88 12
-1.5889982 1.3922002 0.73307836 234 88 12
-1.5981597 1.3800238 0.73307836 234 88 12
-1.5883181 1.3940723 0.73126471 234 88 12
-1.5928988 1.387984 0.73126471 234 88 12
-1.5986247 1.3803737 0.73126471 234 88 12
-1.5997699 1.3788517 0.73126471 234 88 12
-1.6077862 1.3681972 0.73126471 234 88 12
-1.6075712 1.3704191 0.72763735 234 88 12
-1.5975146 1.3866894 0.72219634 234 88 12
-1.5986598 1.3851674 0.72219634 234 88 12
-2.2200534 -0.19945262 0.10341673 234 88 12
-2.2199485 -0.2013545 0.10341673 234 88 12
-2.2194996 -0.21086802 0.10151343 234 88 12
-2.2203207 -0.20137498 0.093900211 234 88 12
-2.2197974 -0.21088439 0.093900211 234 88 12
-2.221756 -0.17665459 0.091996908 234 88 12
-2.221442 -0.18236025 0.091996908 234 88 12
-2.2204998 -0.1994772 0.091996908 234 88 12
-2.2220535 -0.17667097 0.084383696 234 88 12
-2.2217395 -0.18237662 0.084383696 234 88 12
-2.221216 -0.19188604 0.084383696 234 88 12
-2.2206926 -0.20139545 0.084383696 234 88 12
-2.2201693 -0.21090487 0.084383696 234 88 12
-2.2220068 -0.18429898 0.074867174 234 88 12
-2.2215881 -0.19190651 0.074867174 234 88 12
-2.2210648 -0.20141593 0.074867174 234 88 12
-2.2227838 -0.17289588 0.071060568 234 88 12
-2.2229629 -0.17099808 0.069157265 234 88 12
-2.2231116 -0.17100628 0.065350659 234 88 12
-2.223007 -0.17290816 0.065350659 234 88 12
-2.2224834 -0.18241757 0.065350659 234 88 12
-2.2219601 -0.19192699 0.065350659 234 88 12
-1.9773061 0.96103722 -0.38152778 234 88 12
-1.9780872 0.95929998 -0.38152778 234 88 12
-1.9788682 0.95756274 -0.38152778 234 88 12
-1.9817268 0.95049423 -0.38341013 234 88 12
-1.9673859 0.97954977 -0.39093953 234 88 12
-1.9767587 0.95870268 -0.39093953 234 88 12
-1.9783208 0.95522821 -0.39093953 234 88 12
-1.980664 0.95001644 -0.39093953 234 88 12
-1.9663392 0.98116761 -0.39282188 234 88 12
-1.9686824 0.97595584 -0.39282188 234 88 12
-1.9749309 0.96205777 -0.39282188 234 88 12
-1.9668385 0.97721523 -0.40035132 234 88 12
-1.9691817 0.97200346 -0.40035132 234 88 12
-1.9707438 0.96852899 -0.40035132 234 88 12
-1.9746492 0.95984268 -0.40035132 234 88 12
-1.9785545 0.95115638 -0.40035132 234 88 12
-1.9793355 0.94941914 -0.40035132 234 88 12
-1.9780231 0.95091748 -0.404116 234 88 12
-1.9678532 0.97140622 -0.40976307 234 88 12
-1.9686342 0.96966892 -0.40976307 234 88 12
-1.9733206 0.95924538 -0.40976307 234 88 12
-1.977226 0.95055914 -0.40976307 234 88 12
-1.9636822 0.97997302 -0.41164541 234 88 12
-1.9683685 0.96954948 -0.41164541 234 88 12
-1.9618384 0.98123246 -0.41917485 234 88 12
-1.9626194 0.97949523 -0.41917485 234 88 12
-1.9673058 0.96907169 -0.41917485 234 88 12
-1.9688679 0.96559715 -0.41917485 234 88 12
-1.9712111 0.96038538 -0.41917485 234 88 12
-1.8387121 -0.89268577 -0.91631866 234 88 12
-1.8380393 -0.89446777 -0.91631866 234 88 12
-1.835363 -0.8995654 -0.91808879 234 88 12
-1.8326868 -0.90466297 -0.91985899 234 88 12
-1.8374257 -0.88812816 -0.92339933 234 88 12
-1.8354074 -0.89347416 -0.92339933 234 88 12
-1.8347347 -0.89525616 -0.92339933 234 88 12
-1.8313708 -0.90416616 -0.92339933 234 88 12
-1.8435398 -0.86396861 -0.93047994 234 88 12
-1.842867 -0.86575061 -0.93047994 234 88 12
-1.8361393 -0.88357055 -0.93047994 234 88 12
-1.8435546 -0.86193824 -0.93225014 234 88 12
-1.8422091 -0.86550224 -0.93225014 234 88 12
-1.8381724 -0.87619418 -0.93225014 234 88 12
-1.8354814 -0.88332218 -0.93225014 234 88 12
-1.8348086 -0.88510418 -0.93225014 234 88 12
-1.8314449 -0.89401412 -0.93225014 234 88 12
-1.8274082 -0.90470612 -0.93225014 234 88 12
-1.8362429 -0.86935776 -0.94287115 234 88 12
-1.8348974 -0.87292176 -0.94287115 234 88 12
-1.8335519 -0.87648576 -0.94287115 234 88 12
-1.830188 -0.88539571 -0.94287115 234 88 12
-1.8268242 -0.89430571 -0.94287115 234 88 12
-1.8383204 -0.85589021 -0.94995183 234 88 12
-1.8376477 -0.85767215 -0.94995183 234 88 12
-1.8349566 -0.86480016 -0.94995183 234 88 12
-1.8383353 -0.85385978 -0.95172197 234 88 12
-1.8369896 -0.85742378 -0.95172197 234 88 12
-1.8349714 -0.86276978 -0.95172197 234 88 12
-1.8336259 -0.86633378 -0.95172197 234 88 12
-1.8302621 -0.87524372 -0.95172197 234 88 12
-1.8255823 -0.88365692 -0.9552623 234 88 12
-1.8242515 -0.88519049 -0.9570325 234 88 12
-1.8310088 -0.86330974 -0.96057284 234 88 12
-1.8296633 -0.86687374 -0.96057284 234 88 12
-1.8249539 -0.87934768 -0.96057284 234 88 12
-1.8229356 -0.88469368 -0.96057284 234 88 12
-1.0729345 1.8204703 -0.75484234 234 88 12
-1.0759786 1.81818 -0.75484234 234 88 12
-1.0786729 1.8154246 -0.75665599 234 88 12
-1.0844111 1.8103788 -0.75846964 234 88 12
-1.0715349 1.8186101 -0.762097 234 88 12
-1.074579 1.8163197 -0.762097 234 88 12
-1.0761011 1.8151746 -0.762097 234 88 12
-1.0852333 1.8083035 -0.762097 234 88 12
-1.0882775 1.8060131 -0.762097 234 88 12
-1.0838337 1.8064431 -0.76935166 234 88 12
-1.065219 1.8197203 -0.77116531 234 88 12
-1.0697852 1.8162847 -0.77116531 234 88 12
-1.0758735 1.8117039 -0.77116531 234 88 12
-1.0834838 1.8059781 -0.77116531 234 88 12
-1.0850059 1.8048328 -0.77116531 234 88 12
-1.0648692 1.8192552 -0.77297896 234 88 12
-1.0634695 1.8173949 -0.78023362 234 88 12
-1.0649916 1.8162497 -0.78023362 234 88 12
-1.0665135 1.8151045 -0.78023362 234 88 12
-1.0756459 1.8082334 -0.78023362 234 88 12
-1.0786901 1.805943 -0.78023362 234 88 12
-1.0742463 1.8063731 -0.78748828 234 88 12
-1.06137 1.8146044 -0.79111564 234 88 12
-1.0659362 1.8111689 -0.79111564 234 88 12
-1.0720243 1.8065882 -0.79111564 234 88 12
-1.0596204 1.8122791 -0.80018395 234 88 12
-1.7023115 0.26628467 -1.4278731 234 88 12
-1.7026215 0.26440531 -1.4278731 234 88 12
-1.7009265 0.26798677 -1.4294356 234 88 12
-1.7027864 0.25671053 -1.4294356 234 88 12
-1.7017114 0.25653324 -1.430998 234 88 12
-1.7011113 0.24678178 -1.4341228 234 88 12
-1.6918321 0.28965273 -1.4372475 234 88 12
-1.692762 0.28401461 -1.4372475 234 88 12
-1.693072 0.28213525 -1.4372475 234 88 12
-1.6955516 0.26710027 -1.4372475 234 88 12
-1.6958617 0.26522091 -1.4372475 234 88 12
-1.6974114 0.25582403 -1.4372475 234 88 12
-1.6989613 0.24642718 -1.4372475 234 88 12
-1.6921618 0.27426317 -1.4403723 234 88 12
-1.6926367 0.264689 -1.4419347 234 88 12
-1.6920365 0.25493756 -1.4450595 234 88 12
-1.6863121 0.28295085 -1.446622 234 88 12
-1.687552 0.27543336 -1.446622 234 88 12
-1.6891018 0.26603648 -1.446622 234 88 12
-1.6906517 0.25663963 -1.446622 234 88 12
-1.6804624 0.29163849 -1.4528716 234 88 12
-1.6820122 0.28224164 -1.4528716 234 88 12
-1.683252 0.27472416 -1.4528716 234 88 12
-1.6780024 0.29316327 -1.4559964 234 88 12
-1.6795522 0.28376642 -1.4559964 234 88 12
-1.681102 0.27436957 -1.4559964 234 88 12
-1.6826519 0.26497272 -1.4559964 234 88 12
-1.6752721 0.26954705 -1.4653708 234 88 12
-1.675892 0.26578829 -1.4653708 234 88 12
-1.6737421 0.2654337 -1.4684956 234 88 12
-0.80294698 1.1253031 -1.7789805 234 88 12
-0.80469054 1.1216452 -1.7802922 234 88 12
-0.79693818 1.1273472 -1.7816038 234 88 12
-0.80953419 1.1129924 -1.7829156 234 88 12
-0.80856466 1.1120088 -1.7842273 234 88 12
