ply
format ascii 1.0
element vertex 2123
property float x
property float y
property float z
property uchar red
property uchar green
property uchar blue
end_header
-6.3457032e-05 0.00033681039 2.7274373 234 88 12
4.8813099e-06 0.00033681039 2.7274373 234 88 12
-0.023770565 0.031227997 2.4853029 234 88 12
-0.022838386 0.031227997 2.4853029 234 88 12
-0.011652238 0.031227997 2.4853029 234 88 12
0.00046608949 0.031227997 2.4853029 234 88 12
-0.0030380688 0.0034644643 2.7020178 234 88 12
-0.015103769 0.046749763 2.3524058 234 88 12
-0.010788406 0.046749763 2.3524058 234 88 12
0.00071922713 0.046749763 2.3524058 234 88 12
0.012226861 0.046749763 2.3524058 234 88 12
0.03861469 0.11952166 1.7646327 234 88 12
0.012584416 0.030295817 2.4853029 234 88 12
5.3299453e-05 0.0033578656 2.7020178 234 88 12
0.025172949 0.045311309 2.3524058 234 88 12
0.023770565 0.02936364 2.4853029 234 88 12
0.036680583 0.043872852 2.3524058 234 88 12
0.049626671 0.03955749 2.3524058 234 88 12
0.035888892 0.024702745 2.4853029 234 88 12
-0.03775325 0.022838386 2.4853029 234 88 12
0.053942032 0.035242129 2.3524058 234 88 12
0.035888892 0.022838386 2.4853029 234 88 12
-0.013665315 0.028049856 2.3524058 234 88 12
-0.010788406 0.028049856 2.3524058 234 88 12
-0.034937102 0.068035409 1.7646327 234 88 12
-0.020226743 0.068035409 1.7646327 234 88 12
0.00071922713 0.026611403 2.3524058 234 88 12
0.012226861 0.026611403 2.3524058 234 88 12
0.023734495 0.026611403 2.3524058 234 88 12
-0.04596987 0.064357817 1.7646327 234 88 12
-0.0097878799 0.016313132 2.4853029 234 88 12
-0.001360636 0.0043292963 2.6650605 234 88 12
-0.0091939736 0.064357817 1.7646327 234 88 12
0.030905919 0.017732905 2.4640064 234 88 12
-0.049647458 0.060680229 1.7646327 234 88 12
0.0018387948 0.060680229 1.7646327 234 88 12
0.035972465 0.016719596 2.4640064 234 88 12
-0.03595281 0.017146725 2.4396119 234 88 12
-0.03484657 0.017146725 2.4396119 234 88 12
-0.012584416 0.014448775 2.4853029 234 88 12
-0.0018387948 0.057002638 1.7646327 234 88 12
0.0018387948 0.057002638 1.7646327 234 88 12
0.012871563 0.057002638 1.7646327 234 88 12
0.010788406 0.022296041 2.3524058 234 88 12
0.012226861 0.022296041 2.3524058 234 88 12
0.023734495 0.022296041 2.3524058 234 88 12
0.056818943 0.022296041 2.3524058 234 88 12
-0.022296041 0.020857586 2.3524058 234 88 12
-0.05332505 0.05332505 1.7646327 234 88 12
-0.02077383 0.016996769 2.3995073 234 88 12
-0.057002638 0.04596987 1.7646327 234 88 12
-0.013516596 0.011652238 2.4853029 234 88 12
-0.011652238 0.011652238 2.4853029 234 88 12
0.0018387948 0.04596987 1.7646327 234 88 12
0.012871563 0.04596987 1.7646327 234 88 12
0.059695851 0.017980678 2.3524058 234 88 12
0.039617609 0.011652238 2.4853029 234 88 12
-0.0018387948 0.042292278 1.7646327 234 88 12
0.025839375 0.011653052 2.4640064 234 88 12
0.035972465 0.011653052 2.4640064 234 88 12
-0.044278502 0.0097878799 2.4853029 234 88 12
-0.042590253 0.011615523 2.4396119 234 88 12
-0.03484657 0.011615523 2.4396119 234 88 12
-0.023734495 0.013665315 2.3524058 234 88 12
-0.0091939736 0.034937102 1.7646327 234 88 12
0.0018387948 0.034937102 1.7646327 234 88 12
-0.012871563 0.031259511 1.7646327 234 88 12
-0.022677926 0.0082968026 2.4396119 234 88 12
-0.057002638 0.027581921 1.7646327 234 88 12
0.0079114987 0.010788406 2.3524058 234 88 12
0.012226861 0.010788406 2.3524058 234 88 12
0.023734495 0.010788406 2.3524058 234 88 12
0.064011216 0.010788406 2.3524058 234 88 12
-0.023904333 0.023904333 1.7646327 234 88 12
-0.061637029 0.020545676 1.7494109 234 88 12
-0.057002638 0.020226743 1.7646327 234 88 12
-0.013559633 0.0055242949 2.4663405 234 88 12
-0.011550799 0.0055242949 2.4663405 234 88 12
-0.0077114976 0.0044645513 2.5169191 234 88 12
-0.027581921 0.020226743 1.7646327 234 88 12
-0.020226743 0.020226743 1.7646327 234 88 12
-0.0091939736 0.020226743 1.7646327 234 88 12
-0.02077383 0.0056655896 2.3995073 234 88 12
0.022799449 0.0045598899 2.4640064 234 88 12
-0.04596987 0.012871563 1.7646327 234 88 12
-0.05790145 0.0093389433 1.7494109 234 88 12
-0.049647458 0.0091939736 1.7646327 234 88 12
-0.04596987 0.0091939736 1.7646327 234 88 12
-0.034937102 0.0091939736 1.7646327 234 88 12
-0.0050345897 0.0035961356 2.3524058 234 88 12
-0.048121452 0.0016593605 2.4396119 234 88 12
-0.016810099 0.0056033661 1.7494109 234 88 12
-0.0093389433 0.0056033661 1.7494109 234 88 12
0.0018677887 0.0056033661 1.7494109 234 88 12
0.013074521 0.0056033661 1.7494109 234 88 12
0.0045598899 0.0015199633 2.4640064 234 88 12
-0.046694718 0.0018677887 1.7494109 234 88 12
-0.031752408 0.0018677887 1.7494109 234 88 12
0.024281254 0.0018677887 1.7494109 234 88 12
0.035487987 0.0018677887 1.7494109 234 88 12
-0.0037966501 -3.9964736e-05 2.7090185 234 88 12
-0.048121452 -0.00055312016 2.4396119 234 88 12
-0.047015212 -0.00055312016 2.4396119 234 88 12
-0.03484657 -0.00055312016 2.4396119 234 88 12
-0.022677926 -0.00055312016 2.4396119 234 88 12
-0.019514808 -0.00062950997 2.3995073 234 88 12
-0.050430298 -0.0018677887 1.7494109 234 88 12
-0.046694718 -0.0018677887 1.7494109 234 88 12
-0.031752408 -0.0018677887 1.7494109 234 88 12
-0.020545676 -0.0018677887 1.7494109 234 88 12
-0.0093389433 -0.0018677887 1.7494109 234 88 12
0.0018677887 -0.0018677887 1.7494109 234 88 12
0.013074521 -0.0018677887 1.7494109 234 88 12
0.011353605 -0.0010321459 2.1881235 234 88 12
0.013417897 -0.0010321459 2.1881235 234 88 12
0.023739357 -0.0010321459 2.1881235 234 88 12
0.036125109 -0.0010321459 2.1881235 234 88 12
0.048510857 -0.0010321459 2.1881235 234 88 12
0.060896609 -0.0010321459 2.1881235 234 88 12
0.01516055 -0.00022627687 2.6112046 234 88 12
0.034959156 -0.00050665438 2.4640064 234 88 12
0.035972465 -0.00050665438 2.4640064 234 88 12
0.068326578 -0.00071922713 2.3524058 234 88 12
0.0031475499 -0.0018885299 2.3995073 234 88 12
0.01196069 -0.0018885299 2.3995073 234 88 12
0.071218066 -0.0030964378 2.1881235 234 88 12
0.04813217 -0.0015199633 2.4640064 234 88 12
-0.0030964378 -0.0051607299 2.1881235 234 88 12
-0.00062950997 -0.0031475499 2.3995073 234 88 12
-0.039223563 -0.013074521 1.7494109 234 88 12
-0.031752408 -0.013074521 1.7494109 234 88 12
-0.020545676 -0.013074521 1.7494109 234 88 12
-0.019610772 -0.0092893131 2.1881235 234 88 12
0.024550889 -0.0056655896 2.3995073 234 88 12
-0.01648202 -0.004201299 2.5603321 234 88 12
-0.01131119 -0.004201299 2.5603321 234 88 12
-0.013417897 -0.013417897 2.1881235 234 88 12
-0.011353605 -0.013417897 2.1881235 234 88 12
0.050575152 -0.013417897 2.1881235 234 88 12
0.060896609 -0.013417897 2.1881235 234 88 12
-0.023591911 -0.0054940069 2.5603321 234 88 12
-0.0038455015 -0.0059430473 2.5464647 234 88 12
0.069765031 -0.012226861 2.3524058 234 88 12
-0.040858135 -0.011250791 2.4191229 234 88 12
-0.011615523 -0.010509282 2.4396119 234 88 12
-0.01196069 -0.01196069 2.3995073 234 88 12
-0.010701669 -0.01196069 2.3995073 234 88 12
0.00062950997 -0.01196069 2.3995073 234 88 12
0.01196069 -0.01196069 2.3995073 234 88 12
0.024550889 -0.01196069 2.3995073 234 88 12
-0.045595311 -0.012435084 2.4191229 234 88 12
-0.034936666 -0.012435084 2.4191229 234 88 12
0.035882067 -0.01321971 2.3995073 234 88 12
0.020625871 -0.0073414119 2.5464647 234 88 12
0.00061712542 -0.00013360447 2.7266598 234 88 12
-0.053652655 -0.012721763 2.4396119 234 88 12
-0.047963899 -0.013619378 2.4191229 234 88 12
-0.010509282 -0.012721763 2.4396119 234 88 12
0.065025195 -0.023739357 2.1881235 234 88 12
-0.023093728 -0.014803672 2.4191229 234 88 12
0.00034959102 -0.008739776 2.5464647 234 88 12
0.037999082 -0.01266636 2.4640064 234 88 12
0.011998336 -0.0030923546 2.6650605 234 88 12
-0.034609511 -0.010837322 2.5464647 234 88 12
0.066888124 -0.023734495 2.3524058 234 88 12
-0.034609511 -0.012235686 2.5464647 234 88 12
-0.0045446833 -0.012235686 2.5464647 234 88 12
0.00034959102 -0.012235686 2.5464647 234 88 12
-0.028116388 -0.011957544 2.5603321 234 88 12
-0.007433068 -0.011957544 2.5603321 234 88 12
-0.0051607299 -0.0381894 2.1881235 234 88 12
0.0010321459 -0.0381894 2.1881235 234 88 12
0.013417897 -0.0381894 2.1881235 234 88 12
0.034959156 -0.018746214 2.4640064 234 88 12
-0.0094426498 -0.024550889 2.3995073 234 88 12
0.01321971 -0.024550889 2.3995073 234 88 12
0.024550889 -0.024550889 2.3995073 234 88 12
0.035882067 -0.024550889 2.3995073 234 88 12
-0.043226723 -0.024278022 2.4191229 234 88 12
-0.034936666 -0.024278022 2.4191229 234 88 12
-0.023093728 -0.024278022 2.4191229 234 88 12
-0.013417897 -0.042317983 2.1881235 234 88 12
0.023739357 -0.042317983 2.1881235 234 88 12
-0.052546415 -0.023784166 2.4396119 234 88 12
-0.022945557 -0.013896605 2.5603321 234 88 12
-0.0094030425 -0.023784166 2.4396119 234 88 12
0.0011313844 -0.010182459 2.6112046 234 88 12
-0.019610772 -0.048510857 2.1881235 234 88 12
-0.011353605 -0.048510857 2.1881235 234 88 12
-0.0056033661 -0.087786071 1.7494109 234 88 12
-0.00022627687 -0.010635013 2.6112046 234 88 12
0.031919226 -0.023812758 2.4640064 234 88 12
0.035972465 -0.023812758 2.4640064 234 88 12
0.0079114987 -0.035242129 2.3524058 234 88 12
0.019419132 -0.035242129 2.3524058 234 88 12
0.023734495 -0.035242129 2.3524058 234 88 12
0.018746214 -0.024826067 2.4640064 234 88 12
-0.013828004 -0.028209127 2.4396119 234 88 12
-0.023739357 -0.052639443 2.1881235 234 88 12
0.00071922713 -0.036680583 2.3524058 234 88 12
0.0055163843 -0.093778536 1.7646327 234 88 12
0.012871563 -0.093778536 1.7646327 234 88 12
0.0011132477 -0.0063084033 2.6650605 234 88 12
0.03861469 -0.093778536 1.7646327 234 88 12
0.023734495 -0.036680583 2.3524058 234 88 12
0.062572755 -0.036680583 2.3524058 234 88 12
-0.098053865 -0.054703735 2.1881235 234 88 12
-0.0038467068 -0.011992674 2.6112046 234 88 12
-0.0091939736 -0.09745612 1.7646327 234 88 12
-0.023904333 -0.10113371 1.7646327 234 88 12
-0.020226743 -0.10113371 1.7646327 234 88 12
0.05332505 -0.10113371 1.7646327 234 88 12
0.036680583 -0.03955749 2.3524058 234 88 12
-0.021496303 -0.012897782 2.6112046 234 88 12
0.058257397 -0.040995944 2.3524058 234 88 12
-0.036125109 -0.060896609 2.1881235 234 88 12
-0.034060817 -0.060896609 2.1881235 234 88 12
-0.04596987 -0.10848889 1.7646327 234 88 12
-0.057002638 -0.11216648 1.7646327 234 88 12
-0.024890406 -0.03484657 2.4396119 234 88 12
-0.051440172 -0.03595281 2.4396119 234 88 12
-0.027102888 -0.03595281 2.4396119 234 88 12
-0.09598957 -0.069153778 2.1881235 234 88 12
-0.048510857 -0.069153778 2.1881235 234 88 12
0.051065125 -0.048188217 2.3524058 234 88 12
-0.047015212 -0.03816529 2.4396119 234 88 12
-0.093925282 -0.073282361 2.1881235 234 88 12
-0.054703735 -0.073282361 2.1881235 234 88 12
-0.0629609 -0.077410944 2.1881235 234 88 12
-1.3808517 0.043301642 2.0410585 234 88 12
-1.3812039 0.03520282 2.0410585 234 88 12
-1.3813503 0.051437445 2.040509 234 88 12
-1.3815703 0.046375684 2.040509 234 88 12
-1.3820544 0.035239805 2.040509 234 88 12
-1.3817607 0.061597954 2.0399597 234 88 12
-1.4774939 0.064003244 2.2907619 234 88 12
-1.4556555 0.058708359 2.231679 234 88 12
-1.4558309 0.059458856 2.231545 234 88 12
-1.3859854 0.023239518 2.0383117 234 88 12
-1.3846792 0.072881773 2.0377622 234 88 12
-1.3469857 0.036247492 1.9302722 234 88 12
-1.3470483 0.034810398 1.9302722 234 88 12
-1.3487556 0.023366127 1.9294924 234 88 12
-1.3859404 0.083079264 2.0366635 234 88 12
-1.3485886 0.055034753 1.9287125 234 88 12
-1.3496087 0.059398547 1.9279326 234 88 12
-1.3517942 0.092609271 1.925593 234 88 12
-1.392072 0.020461356 2.034466 234 88 12
-1.3700475 0.057676967 1.9708607 234 88 12
-1.3710496 0.058980752 1.9701781 234 88 12
-1.4400376 0.061477877 2.1775758 234 88 12
-1.3715966 0.046402436 1.9701781 234 88 12
-1.3564588 0.040978804 1.9240333 234 88 12
-1.3567088 0.035230417 1.9240333 234 88 12
-1.3572711 0.02229655 1.9240333 234 88 12
-1.3921151 0.078276396 2.0328178 234 88 12
-1.3924671 0.070177577 2.0328178 234 88 12
-1.3564792 0.068336144 1.9232534 234 88 12
-1.372052 0.060284536 1.9694955 234 88 12
-1.3725441 0.04896405 1.9694955 234 88 12
-1.3726535 0.046448387 1.9694955 234 88 12
-1.3731457 0.035127904 1.9694955 234 88 12
-1.3923055 0.09349867 2.0322685 234 88 12
-1.3994242 0.08650367 2.0532205 234 88 12
-1.3996266 0.081847176 2.0532205 234 88 12
-1.3569994 0.084196709 1.9224735 234 88 12
-1.3576243 0.069825739 1.9224735 234 88 12
-1.4409153 0.058798153 2.1770852 234 88 12
-1.3594987 0.026712844 1.9224735 234 88 12
-1.3596861 0.022401555 1.9224735 234 88 12
-1.3931122 0.094548009 2.0317192 234 88 12
-1.3583319 0.081375018 1.9216937 234 88 12
-1.307402 0.055810444 1.7597301 234 88 12
-1.4009084 0.088434316 2.0522099 234 88 12
-1.4011917 0.081915222 2.0522099 234 88 12
-1.3093143 0.051761102 1.758611 234 88 12
-1.3125112 0.058098823 1.7563726 234 88 12
-1.3130492 0.045724761 1.7563726 234 88 12
-1.4700677 0.06695693 2.26614 234 88 12
-1.4036204 0.080154695 2.0506935 234 88 12
-1.4039575 0.090433009 2.0501883 234 88 12
-1.3787395 0.076958023 1.9647174 234 88 12
-1.3802707 0.041738734 1.9647174 234 88 12
-1.3805989 0.034191746 1.9647174 234 88 12
-1.4595119 0.056152187 2.229265 234 88 12
-1.398128 0.09679462 2.0284228 234 88 12
-1.3803979 0.063167825 1.9640348 234 88 12
-1.3682641 0.019894879 1.9170145 234 88 12
-1.380908 0.075792097 1.9633523 234 88 12
-1.4021919 0.022929883 2.0278735 234 88 12
-1.3682424 0.076046653 1.9154547 234 88 12
-1.3684922 0.070298262 1.9154547 234 88 12
-1.3211758 0.05847555 1.7507768 234 88 12
-1.3217139 0.046101488 1.7507768 234 88 12
-1.3239849 0.033802774 1.7496575 234 88 12
-1.4038491 0.024016205 2.0267749 234 88 12
-1.3727181 0.11223657 1.9115554 234 88 12
-1.4591504 0.064118579 2.2220092 234 88 12
-1.3298405 0.058852278 1.7451808 234 88 12
-1.3303785 0.046478216 1.7451808 234 88 12
-1.3309165 0.034104154 1.7451808 234 88 12
-1.4629375 0.065696225 2.2354019 234 88 12
-1.3757377 0.07061328 1.9107755 234 88 12
-1.3985882 0.064738564 1.9950992 234 88 12
-1.4502379 0.064051606 2.1877408 234 88 12
-1.3329185 0.027992468 1.7440617 234 88 12
-1.3777996 0.023189094 1.9107755 234 88 12
-1.3895274 0.072386228 1.9578916 234 88 12
-1.4760011 0.064497106 2.2838199 234 88 12
-1.4093902 0.06765613 2.0322762 234 88 12
-1.4028559 0.066903278 2.0074255 234 88 12
-1.4210914 0.065461241 2.076194 234 88 12
-1.4050144 0.064745657 2.0152388 234 88 12
-1.3967502 0.063636065 1.9837835 234 88 12
-1.3899651 0.062323574 1.9578916 234 88 12
-1.3333961 0.056940623 1.7429426 234 88 12
-1.3338444 0.046628907 1.7429426 234 88 12
-1.3911681 0.034651279 1.9578916 234 88 12
-1.4078186 0.067810848 2.0225749 234 88 12
-1.4198054 0.063845478 2.0679135 234 88 12
-1.392225 0.034697231 1.957209 234 88 12
-1.3802147 0.023294099 1.9092158 234 88 12
-1.4073973 0.099226162 2.0223799 234 88 12
-1.4307127 0.068112418 2.1078653 234 88 12
-1.4429138 0.065591164 2.1549294 234 88 12
-1.4139353 0.065707289 2.0421557 234 88 12
-1.3920789 0.062415481 1.9565264 234 88 12
-1.3786935 0.11393619 1.9076561 234 88 12
-1.4139687 0.094600521 2.0436182 234 88 12
-1.4703858 0.06484364 2.2612679 234 88 12
-1.4677032 0.064861692 2.2506788 234 88 12
-1.4159735 0.065713242 2.0465751 234 88 12
-1.3401192 0.022106819 1.739585 234 88 12
-1.4154396 0.078802459 2.0431128 234 88 12
-1.3938099 0.071312211 1.9551612 234 88 12
-1.4205716 0.067379922 2.0616813 234 88 12
-1.4381399 0.065845445 2.1317916 234 88 12
-1.2822527 0.048406802 1.5042821 234 88 12
-1.2823801 0.045475017 1.5042821 234 88 12
-1.4155338 0.094668567 2.0426073 234 88 12
-1.4553261 0.065911129 2.1992757 234 88 12
-1.3991133 0.063833684 1.9704103 234 88 12
-1.4625949 0.057029095 2.227253 234 88 12
-1.4279171 0.06634368 2.0848727 234 88 12
-1.4367627 0.06534829 2.1211858 234 88 12
-1.4166118 0.062066935 2.0374672 234 88 12
-1.2870522 0.051552802 1.5011002 234 88 12
-1.2873071 0.045689236 1.5011002 234 88 12
-1.3446904 0.03676926 1.7362275 234 88 12
-1.3447801 0.034706917 1.7362275 234 88 12
-1.2366896 0.003291171 1.2846793 234 88 12
-1.2368518 -0.00044088066 1.2846793 234 88 12
-1.3453181 0.022332856 1.7362275 234 88 12
-1.4515899 0.064580373 2.1805348 234 88 12
-1.3572145 0.059951134 1.784502 234 88 12
-1.3455267 0.057468042 1.7351084 234 88 12
-1.2398255 0.0034275171 1.282654 234 88 12
-1.2399877 -0.00030453457 1.282654 234 88 12
-1.3874601 0.023609115 1.9045366 234 88 12
-1.4591931 0.065729484 2.2113438 234 88 12
-1.4303361 0.065597676 2.0886455 234 88 12
-1.3910655 0.062544629 1.9211369 234 88 12
-1.3857073 0.060978543 1.8980694 234 88 12
-1.2919792 0.051767021 1.4979182 234 88 12
-1.2922342 0.045903455 1.4979182 234 88 12
-1.292744 0.034176324 1.4979182 234 88 12
-1.4425787 0.064728774 2.1381693 234 88 12
-1.4079146 0.062902644 1.9881991 234 88 12
-1.3890607 0.061107401 1.9064789 234 88 12
-1.3489926 0.05761873 1.73287 234 88 12
-1.2452861 0.022360468 1.2786034 234 88 12
-1.2498677 0.0009666484 1.2943649 234 88 12
-1.2500274 -0.0027074702 1.2943649 234 88 12
-1.3505169 0.022558892 1.73287 234 88 12
-1.4194061 0.095769987 2.0400805 234 88 12
-1.420054 0.080869198 2.0400805 234 88 12
-1.2479353 0.033692967 1.2765782 234 88 12
-1.4357728 0.052277181 2.1035368 234 88 12
-1.4510486 0.053349972 2.1707058 234 88 12
-1.4549786 0.065000273 2.1885197 234 88 12
-1.442597 0.064783499 2.1333468 234 88 12
-1.4080905 0.064104222 1.9795692 234 88 12
-1.3837481 0.062490758 1.8708682 234 88 12
-1.3992487 0.061486613 1.9396931 234 88 12
-1.3735778 0.058860503 1.8248804 234 88 12
-1.2993698 0.05208835 1.4931452 234 88 12
-1.2996247 0.046224784 1.4931452 234 88 12
-1.250909 0.037561368 1.2745529 234 88 12
-1.2510712 0.033829316 1.2745529 234 88 12
-1.2515581 0.02263316 1.2745529 234 88 12
-1.2520448 0.011437004 1.2745529 234 88 12
-1.2563617 -0.0061131297 1.2903773 234 88 12
-1.2530184 -0.010955305 1.2745529 234 88 12
-1.3923528 0.022382028 1.9014171 234 88 12
-1.3894989 0.11584581 1.9006373 234 88 12
-1.4175022 0.081151538 2.020489 234 88 12
-1.4184394 0.066154875 2.0217788 234 88 12
-1.4166324 0.065187126 2.0134146 234 88 12
-1.393997 0.061310858 1.9102583 234 88 12
-1.2538826 0.041429766 1.2725277 234 88 12
-1.2542073 0.033965662 1.2725277 234 88 12
-1.254694 0.022769505 1.2725277 234 88 12
-1.2551807 0.011573351 1.2725277 234 88 12
-1.2589698 0.0050434554 1.2883835 234 88 12
-1.2561543 -0.010818959 1.2725277 234 88 12
-1.4518281 0.05293088 2.1702151 234 88 12
-1.4041795 0.02765573 1.9497006 234 88 12
-1.4510897 0.065173611 2.1672728 234 88 12
-1.4066899 0.062975496 1.9627484 234 88 12
-1.3882811 0.059599224 1.8774575 234 88 12
-1.262696 -0.0095187891 1.2863897 234 88 12
-1.3575383 0.020797929 1.7283933 234 88 12
-1.3919141 0.11595082 1.8990775 234 88 12
-1.4401648 0.066868752 2.1145134 234 88 12
-1.3932749 0.061305724 1.8943357 234 88 12
-1.314564 0.055753995 1.5255069 234 88 12
-1.2651443 0.0053119147 1.2843958 234 88 12
-1.2657833 -0.0093845595 1.2843958 234 88 12
-1.2625885 -0.014278319 1.2684771 234 88 12
-1.3931217 0.11600331 1.8982977 234 88 12
-1.4159361 0.0653551 1.9961802 234 88 12
-1.4315236 0.06427782 2.0699787 234 88 12
-1.262966 0.049302906 1.2664518 234 88 12
-1.2631283 0.045570854 1.2664518 234 88 12
-1.2636151 0.034374699 1.2664518 234 88 12
-1.2641019 0.023178544 1.2664518 234 88 12
-1.264751 0.0082503371 1.2664518 234 88 12
-1.3614526 0.010636902 1.726155 234 88 12
-1.4022352 0.088078201 1.9298162 234 88 12
-1.4442356 0.072065398 2.129241 234 88 12
-1.4750102 0.064804167 2.2763028 234 88 12
-1.4032586 0.068269409 1.930599 234 88 12
-1.4282956 0.066070206 2.0510216 234 88 12
-1.3115599 0.055555679 1.4851904 234 88 12
-1.4392945 0.052430302 2.1012626 234 88 12
-1.2721176 -0.012790219 1.2804081 234 88 12
-1.4024324 0.064368136 1.9195504 234 88 12
-1.3845766 0.061037727 1.8311661 234 88 12
-1.2744062 0.0057146032 1.2784144 234 88 12
-1.2752049 -0.012655989 1.2784144 234 88 12
-1.4044718 0.082947731 1.9273393 234 88 12
-1.4178504 0.06548965 1.9903666 234 88 12
-1.2722117 0.053443994 1.2603761 234 88 12
-1.2725362 0.045979891 1.2603761 234 88 12
-1.273023 0.034783736 1.2603761 234 88 12
-1.2735097 0.023587583 1.2603761 234 88 12
-1.2739966 0.012391428 1.2603761 234 88 12
-1.2741588 0.0086593758 1.2603761 234 88 12
-1.2752947 -0.017464986 1.2603761 234 88 12
-1.3999438 0.087254934 1.8989021 234 88 12
-1.3853964 0.089830734 1.8255507 234 88 12
-1.3966495 0.085282169 1.8817266 234 88 12
-1.4475815 0.071692832 2.1375258 234 88 12
-1.423169 0.071498893 2.0134354 234 88 12
-1.2753476 0.053580344 1.2583508 234 88 12
-1.2756721 0.04611624 1.2583508 234 88 12
-1.2761589 0.034920085 1.2583508 234 88 12
-1.3681153 0.017125314 1.7216784 234 88 12
-1.3682947 0.013000627 1.7216784 234 88 12
-1.3683844 0.010938283 1.7216784 234 88 12
-1.4272316 0.096110225 2.0350266 234 88 12
-1.4113204 0.084285475 1.9500924 234 88 12
-1.4634396 0.067150779 2.2157459 234 88 12
-1.283668 0.0061172922 1.2724328 234 88 12
-1.2846265 -0.015927419 1.2724328 234 88 12
-1.4437292 0.068367533 2.1108804 234 88 12
-1.4644786 0.064076759 2.2191122 234 88 12
-1.2867553 0.0062515219 1.270439 234 88 12
-1.4422292 0.052557901 2.0993671 234 88 12
-1.2877138 -0.015793189 1.270439 234 88 12
-1.3160793 0.12038211 1.4356074 234 88 12
-1.3987758 0.090366617 1.8717811 234 88 12
-1.4325181 0.078494295 2.0498383 234 88 12
-1.3855077 0.09121298 1.8008751 234 88 12
-1.2857291 0.03159707 1.252275 234 88 12
-1.2862159 0.020400915 1.252275 234 88 12
-1.4149674 0.023083938 1.9428747 234 88 12
-1.3360664 0.11438226 1.5274667 234 88 12
-1.4190476 0.08297687 1.9728926 234 88 12
-1.4190975 0.08182881 1.9728926 234 88 12
-1.2875669 0.06158983 1.2502497 234 88 12
-1.2880538 0.050393675 1.2502497 234 88 12
-1.288216 0.046661623 1.2502497 234 88 12
-1.3652984 0.044842768 1.6705024 234 88 12
-1.2890273 0.028001364 1.2502497 234 88 12
-1.2893518 0.020537261 1.2502497 234 88 12
-1.291299 -0.024247359 1.2502497 234 88 12
-1.4526181 0.068049878 2.1499238 234 88 12
-1.2936211 0.061765987 1.2644576 234 88 12
-1.3924781 0.061400652 1.8139675 234 88 12
-1.4082578 0.060526941 1.9014838 234 88 12
-1.4057277 0.058936112 1.8870335 234 88 12
-1.3757911 0.05468259 1.7195717 234 88 12
-1.3652711 0.051429667 1.6602993 234 88 12
-1.3111416 0.041931495 1.357069 234 88 12
-1.3626333 0.046471622 1.6444361 234 88 12
-1.3613093 0.043906145 1.6364551 234 88 12
-1.3896424 0.047031447 1.7947283 234 88 12
-1.3053365 0.027190227 1.321232 234 88 12
-1.3601875 0.10283148 1.6321493 234 88 12
-1.4420853 0.071140043 2.0882874 234 88 12
-1.4418485 0.068248816 2.0862339 234 88 12
-1.3268908 0.053072937 1.4312711 234 88 12
-1.3486423 0.05203706 1.5542361 234 88 12
-1.297507 0.043529626 1.2624637 234 88 12
-1.3473494 0.046561915 1.545563 234 88 12
-1.302002 0.03683034 1.2862774 234 88 12
-1.3021581 0.033241041 1.2862774 234 88 12
-1.2984655 0.021484913 1.2624637 234 88 12
-1.2989447 0.010462559 1.2624637 234 88 12
-1.3003824 -0.022604508 1.2624637 234 88 12
-1.2977332 -0.027706718 1.2461993 234 88 12
-1.2948048 0.13621928 1.250277 234 88 12
-1.2951275 0.12879857 1.250277 234 88 12
-1.3756374 0.098452605 1.7075186 234 88 12
-1.369375 0.098347016 1.6713337 234 88 12
-1.4477242 0.072077356 2.1171229 234 88 12
-1.4523391 0.070387304 2.1433446 234 88 12
-1.2991565 0.076730922 1.2604699 234 88 12
-1.4131594 0.063464306 1.9153852 234 88 12
-1.4176505 0.06226553 1.9410154 234 88 12
-1.3778895 0.056788672 1.7100629 234 88 12
-1.3731394 0.05425255 1.6819996 234 88 12
-1.319218 0.045820858 1.3685437 234 88 12
-1.3330098 0.041366335 1.4470586 234 88 12
-1.3833601 0.047304157 1.7392694 234 88 12
-1.3093563 0.030584322 1.3077781 234 88 12
-1.2965897 0.024236735 1.2324705 234 88 12
-1.2967538 0.020463075 1.2324705 234 88 12
-1.297246 0.0091421017 1.2324705 234 88 12
-1.3034697 -0.022470279 1.2604699 234 88 12
-1.3036294 -0.026144397 1.2604699 234 88 12
-1.380515 0.0114657 1.7138442 234 88 12
-1.381053 -0.00090836087 1.7138442 234 88 12
-1.2979226 0.13635483 1.2482636 234 88 12
-1.3278178 0.1213911 1.4204211 234 88 12
-1.3117185 0.12072453 1.3254769 234 88 12
-1.4022987 0.085450009 1.8496772 234 88 12
-1.4441612 0.066751465 2.0913281 234 88 12
-1.4306014 0.063710369 2.0107253 234 88 12
-1.3716292 0.060757894 1.6628119 234 88 12
-1.3709725 0.058477752 1.6583626 234 88 12
-1.3988866 0.058307923 1.822644 234 88 12
-1.3071007 0.047815818 1.2796317 234 88 12
-1.3072571 0.044216763 1.2796317 234 88 12
-1.300269 0.039630216 1.2373203 234 88 12
-1.300595 0.032131851 1.2373203 234 88 12
-1.2999247 0.020600943 1.2304226 234 88 12
-1.3004169 0.0092799673 1.2304226 234 88 12
-1.4203615 0.020798041 1.9394618 234 88 12
-1.3504255 0.10850317 1.5354391 234 88 12
-1.4036233 0.085507601 1.8488218 234 88 12
-1.3508629 0.097766086 1.5352623 234 88 12
-1.4310578 0.075773887 2.0109899 234 88 12
-1.4515508 0.070267908 2.1325872 234 88 12
-1.4162225 0.067549244 1.919776 234 88 12
-1.4275191 0.06370189 1.9865932 234 88 12
-1.4115627 0.06208827 1.8903745 234 88 12
-1.3631607 0.050610144 1.5967863 234 88 12
-1.3425037 0.045235839 1.4713644 234 88 12
-1.3143699 0.037759762 1.3005058 234 88 12
-1.3203882 0.031892449 1.3351064 234 88 12
-1.4465809 0.047148362 2.0967138 234 88 12
-1.3099637 -0.029550057 1.2564822 234 88 12
-1.3076278 -0.038493834 1.2401234 234 88 12
-1.3188348 0.13054308 1.3325106 234 88 12
-1.3092437 0.1238767 1.2719903 234 88 12
-1.4201952 0.083631299 1.9408395 234 88 12
-1.3875463 0.092507727 1.7432323 234 88 12
-1.4396259 0.075560614 2.0577006 234 88 12
-1.3071405 0.10652656 1.2544885 234 88 12
-1.3909101 0.05952014 1.7550505 234 88 12
-1.390993 0.05761531 1.7550505 234 88 12
-1.3665018 0.045934517 1.6019347 234 88 12
-1.3233892 0.028620826 1.3332636 234 88 12
-1.3175076 0.023707056 1.2959311 234 88 12
-1.3109744 0.018347714 1.2544885 234 88 12
-1.3065946 0.013329358 1.2263269 234 88 12
-1.3951514 0.037696041 1.7752159 234 88 12
-1.4251945 0.037664019 1.9592179 234 88 12
-1.4252974 0.035297666 1.9592179 234 88 12
-1.3133705 -0.036764063 1.2544885 234 88 12
-1.3104275 0.13542897 1.2615616 234 88 12
-1.3282788 0.12468287 1.3702216 234 88 12
-1.312279 0.12400867 1.2700301 234 88 12
-1.3890973 0.094525449 1.7421759 234 88 12
-1.4222672 0.079697564 1.9454759 234 88 12
-1.4340016 0.074565396 2.0174279 234 88 12
-1.4395278 0.07244765 2.0513937 234 88 12
-1.4375762 0.065677688 2.0373554 234 88 12
-1.4281631 0.06265296 1.9776964 234 88 12
-1.3937569 0.059657712 1.7618247 234 88 12
-1.3938385 0.057780426 1.7618247 234 88 12
-1.3733569 0.053868469 1.6327404 234 88 12
-1.3173195 0.044731196 1.2799916 234 88 12
-1.3346773 0.040404432 1.3873123 234 88 12
-1.387895 0.0014553638 1.7093675 234 88 12
-1.3879848 -0.00060697971 1.7093675 234 88 12
-1.3087485 0.14127958 1.2309284 234 88 12
-1.3663574 0.10544178 1.588588 234 88 12
-1.4003052 0.084436961 1.7993804 234 88 12
-1.4004567 0.080954045 1.7993804 234 88 12
-1.4321581 0.070081055 1.9986502 234 88 12
-1.4437968 0.066299446 2.0718677 234 88 12
-1.4410779 0.065614305 2.0543284 234 88 12
-1.4064016 0.061962653 1.8320469 234 88 12
-1.3744854 0.056229867 1.6267987 234 88 12
-1.3296953 0.046011448 1.3381594 234 88 12
-1.3490108 0.045433495 1.4612509 234 88 12
-1.3474363 0.039219961 1.4494804 234 88 12
-1.4253769 0.052888539 1.9506099 234 88 12
-1.4268742 0.044849526 1.9579338 234 88 12
-1.4272343 0.036567293 1.9579338 234 88 12
-1.4272857 0.035384119 1.9579338 234 88 12
-1.3118936 0.14141633 1.2288972 234 88 12
-1.3154439 0.12897396 1.2485069 234 88 12
-1.3685524 0.10304883 1.5872402 234 88 12
-1.3742 0.098738864 1.6228211 234 88 12
-1.4184411 0.081467211 1.9062217 234 88 12
-1.4507974 0.06721893 2.1130328 234 88 12
-1.3704323 0.058339089 1.5868225 234 88 12
-1.4016278 0.058279134 1.7900895 234 88 12
-1.4042162 0.056762226 1.8065268 234 88 12
-1.4205334 0.057066847 1.9129432 234 88 12
-1.3678296 0.045377146 1.5661902 234 88 12
-1.3962344 0.048304897 1.7521174 234 88 12
-1.3855286 0.044057522 1.6811506 234 88 12
-1.4631057 0.060177516 2.1912439 234 88 12
-1.4277655 0.047259104 1.9572917 234 88 12
-1.3231115 -0.047383729 1.2485069 234 88 12
-1.4373642 0.097483836 2.0284567 234 88 12
-1.3150388 0.14155307 1.226866 234 88 12
-1.3693935 0.10852377 1.5791562 234 88 12
-1.3695024 0.10601646 1.5791562 234 88 12
-1.3318911 0.11707134 1.3319689 234 88 12
-1.4171876 0.085010439 1.8905258 234 88 12
-1.4260917 0.077221476 1.9475479 234 88 12
-1.428292 0.075527549 1.9617059 234 88 12
-1.4386399 0.066754691 2.0280545 234 88 12
-1.4404248 0.065755218 2.0396478 234 88 12
-1.3593086 0.052086882 1.4956839 234 88 12
-1.4017774 0.050975651 1.7780858 234 88 12
-1.3907995 0.042805798 1.7026393 234 88 12
-1.4449011 0.055224497 2.0663998 234 88 12
-1.3932732 -0.0024432873 1.70601 234 88 12
-1.3211648 0.14025237 1.2446905 234 88 12
-1.350551 0.11727828 1.4378269 234 88 12
-1.3348732 0.11382025 1.3301377 234 88 12
-1.4038545 0.084858879 1.7908942 234 88 12
-1.4241753 0.07800483 1.9271219 234 88 12
-1.3867687 0.056992445 1.666406 234 88 12
-1.395211 0.055658489 1.7234496 234 88 12
-1.4071432 0.053446081 1.8039777 234 88 12
-1.3938276 0.049377467 1.7121788 234 88 12
-1.3480098 0.038161792 1.3971344 234 88 12
-1.3481463 0.035021983 1.3971344 234 88 12
-1.4359226 0.053662445 1.9998457 234 88 12
-1.4519817 0.055042587 2.1095145 234 88 12
-1.3212408 0.13452514 1.2199802 234 88 12
-1.3401463 0.11308496 1.3450041 234 88 12
-1.396317 0.091358513 1.7291594 234 88 12
-1.4299244 0.074526392 1.9578428 234 88 12
-1.4354938 0.071291275 1.9956064 234 88 12
-1.4390614 0.069762394 2.0199602 234 88 12
-1.4229863 0.062548161 1.9059589 234 88 12
-1.406621 0.056749754 1.790367 234 88 12
-1.3598171 0.046008289 1.4615484 234 88 12
-1.3797804 0.04663961 1.6006055 234 88 12
-1.3777344 0.043779656 1.585508 234 88 12
-1.4397119 0.097585909 2.0269403 234 88 12
-1.3268771 0.13352986 1.2352586 234 88 12
-1.3271981 0.12614483 1.2352586 234 88 12
-1.3427886 0.11652212 1.3432046 234 88 12
-1.4343727 0.080258802 1.983593 234 88 12
-1.4019865 0.088231809 1.7556369 234 88 12
-1.4179529 0.060893282 1.8607785 234 88 12
-1.3502494 0.053899765 1.3769158 234 88 12
-1.330804 0.048626956 1.2369339 234 88 12
-1.3309643 0.044940289 1.2369339 234 88 12
-1.3668585 0.044016331 1.4920295 234 88 12
-1.3955261 0.047115017 1.6969529 234 88 12
-1.3359399 -0.057869166 1.2405316 234 88 12
-1.4743863 0.066611193 2.2633657 234 88 12
-1.3346683 0.12445529 1.2644732 234 88 12
-1.3413194 0.1183169 1.3109535 234 88 12
-1.4036458 0.086422861 1.754618 234 88 12
-1.4229338 0.079355791 1.8928056 234 88 12
-1.425926 0.075929575 1.9135052 234 88 12
-1.439018 0.06608478 2.0057037 234 88 12
-1.4039488 0.063888669 1.749691 234 88 12
-1.3842261 0.054159179 1.6030222 234 88 12
-1.3940765 0.05087705 1.6736976 234 88 12
-1.4539745 0.046718691 2.1084633 234 88 12
-1.3341063 0.14047603 1.2410448 234 88 12
-1.3362454 0.12519948 1.2520376 234 88 12
-1.3676695 0.10899039 1.480994 234 88 12
-1.3444924 0.11159786 1.3090965 234 88 12
-1.398635 0.090499215 1.7057931 234 88 12
-1.4332963 0.069931321 1.9574649 234 88 12
-1.411713 0.060507808 1.7935466 234 88 12
-1.379753 0.048356898 1.5514057 234 88 12
-1.4539837 0.059011415 2.1081128 234 88 12
-1.4619811 0.047030576 2.163836 234 88 12
-1.3351549 0.13443811 1.2215488 234 88 12
-1.3391302 0.12895203 1.2500731 234 88 12
-1.3615218 0.10961245 1.4145854 234 88 12
-1.4200366 0.079430684 1.8512485 234 88 12
-1.4300177 0.074328966 1.9257481 234 88 12
-1.4130983 0.062310077 1.792603 234 88 12
-1.3816966 0.053611342 1.5500056 234 88 12
-1.345165 0.046015978 1.2686148 234 88 12
-1.3455212 -0.064814717 1.2345501 234 88 12
-1.4040295 -0.010240589 1.6992949 234 88 12
-1.3402199 0.14076258 1.2368082 234 88 12
-1.3476996 0.12646084 1.2904543 234 88 12
-1.3532734 0.11728586 1.3309339 234 88 12
-1.3643497 0.10362439 1.4129304 234 88 12
-1.3931582 0.091464251 1.6341451 234 88 12
-1.4175972 0.082089201 1.8221276 234 88 12
-1.430328 0.070667185 1.917828 234 88 12
-1.4368889 0.067559056 1.968093 234 88 12
-1.4291767 0.0628106 1.9061493 234 88 12
-1.4117634 0.060470957 1.7691416 234 88 12
-1.4118425 0.058654267 1.7691416 234 88 12
-1.4367994 0.022758216 1.9521551 234 88 12
-1.4057624 -0.010165244 1.6981758 234 88 12
-1.4058521 -0.012227588 1.6981758 234 88 12
-1.4627409 0.047063611 2.1633451 234 88 12
-1.3425905 0.14487849 1.2305624 234 88 12
-1.3601505 0.11880027 1.3622992 234 88 12
-1.3602904 0.11558131 1.3622992 234 88 12
-1.3844229 0.10260955 1.5513152 234 88 12
-1.4055562 0.090098761 1.7164395 234 88 12
-1.4232846 0.080858536 1.8553976 234 88 12
-1.4286128 0.075195521 1.896154 234 88 12
-1.4380713 0.070921987 1.9705194 234 88 12
-1.4351684 0.066617541 1.9457376 234 88 12
-1.4173533 0.060770534 1.8008238 234 88 12
-1.4555645 0.072666399 2.1067111 234 88 12
-1.4016587 0.090070851 1.6694626 234 88 12
-1.4163213 0.081718639 1.787102 234 88 12
-1.4270017 0.074425347 1.8723592 234 88 12
-1.4345307 0.070479959 1.9328877 234 88 12
-1.4236345 0.064244613 1.8410161 234 88 12
-1.3551025 -0.071760267 1.2285687 234 88 12
-1.4135262 -1.4136159 1.8554108 234 88 12
-1.4048501 -1.4059808 1.830477 234 88 12
-1.3239235 -1.3389704 1.5933679 234 88 12
-1.3203409 -1.3425529 1.5933679 234 88 12
-1.3181914 -1.3447025 1.5933679 234 88 12
-1.3291979 -1.3356465 1.5918829 234 88 12
-1.3205997 -1.3442447 1.5918829 234 88 12
-1.3198831 -1.3449613 1.5918829 234 88 12
-1.3210872 -1.3447324 1.5911405 234 88 12
-1.3342433 -1.3335268 1.5896556 234 88 12
-1.3113148 -1.3564553 1.5896556 234 88 12
-1.3371546 -1.3444052 1.6104507 234 88 12
-1.3364954 -1.3450644 1.6104507 234 88 12
-1.3089364 -1.359809 1.5889132 234 88 12
-1.3373681 -1.3323525 1.5881708 234 88 12
-1.33233 -1.350127 1.6097678 234 88 12
-1.3450918 -1.3391595 1.6084018 234 88 12
-1.3295102 -1.3565354 1.6070358 234 88 12
-1.3455385 -1.3290585 1.5844585 234 88 12
-1.3061299 -1.368467 1.5844585 234 88 12
-1.2783633 -1.3343061 1.4676181 234 88 12
-1.2732778 -1.3393918 1.4676181 234 88 12
-1.2912613 -1.3227926 1.4665642 234 88 12
-1.2851585 -1.3288956 1.4665642 234 88 12
0.064025335 -1.4778644 2.2914476 234 88 12
0.061182674 -1.4697808 2.2664866 234 88 12
0.03438494 -1.4024743 2.0527151 234 88 12
0.03624754 -1.4023932 2.0527151 234 88 12
0.031625066 -1.4033782 2.0522099 234 88 12
0.041869357 -1.4029329 2.0522099 234 88 12
0.029796492 -1.4042418 2.0517044 234 88 12
0.043765981 -1.4036344 2.0517044 234 88 12
0.047491178 -1.4034724 2.0517044 234 88 12
0.047525201 -1.404255 2.051199 234 88 12
0.059666116 -1.4045112 2.0506935 234 88 12
0.070875727 -1.4048078 2.0501883 234 88 12
0.021618944 -1.4093015 2.048672 234 88 12
0.083084688 -1.4066291 2.048672 234 88 12
0.094362348 -1.4084909 2.0471559 234 88 12
0.058901966 -1.4713145 2.2655621 234 88 12
0.01630334 -1.4158049 2.0446289 234 88 12
0.02392081 -1.403342 1.9980729 234 88 12
0.068818606 -1.4078671 2.0229292 234 88 12
0.084397539 -1.2214954 1.3103156 234 88 12
0.095419891 -1.2210162 1.3103156 234 88 12
0.073880367 -1.407647 2.0229292 234 88 12
0.092102714 -1.4068547 2.0229292 234 88 12
0.095139772 -1.4067227 2.0229292 234 88 12
0.021750795 -1.4043667 1.9974731 234 88 12
0.023961186 -1.4042706 1.9974731 234 88 12
0.07350941 -1.2250619 1.3083217 234 88 12
0.084531769 -1.2245827 1.3083217 234 88 12
0.075082079 -1.3791729 1.9084359 234 88 12
0.11392471 -1.2233046 1.3083217 234 88 12
0.047104262 -1.4160337 2.0436182 234 88 12
0.048035558 -1.4159933 2.0436182 234 88 12
0.053738579 -1.3941751 1.95845 234 88 12
0.05921115 -1.4155074 2.0436182 234 88 12
0.060324989 -1.4007024 1.9853529 234 88 12
0.0662954 -1.2284687 1.3063279 234 88 12
0.07364364 -1.2281492 1.3063279 234 88 12
0.070823289 -1.3805679 1.9076561 234 88 12
0.083757162 -1.3800056 1.9076561 234 88 12
-0.018307198 -1.2797219 1.4825245 234 88 12
0.017032556 -1.3082185 1.6028349 234 88 12
0.05378418 -1.3952239 1.9577726 234 88 12
0.054173652 -1.3731347 1.8693529 234 88 12
0.059573285 -1.4203477 2.0594249 234 88 12
0.063224055 -1.4490697 2.1751194 234 88 12
0.069438696 -1.381838 1.9068762 234 88 12
0.083809659 -1.3812131 1.9068762 234 88 12
0.017126298 -1.3103746 1.6014426 234 88 12
0.035907403 -1.348882 1.7612901 234 88 12
0.058322951 -1.4316717 2.1017828 234 88 12
0.059034996 -1.4316407 2.1017828 234 88 12
0.061757475 -1.4404081 2.137902 234 88 12
0.055541508 -1.2351224 1.3023403 234 88 12
0.022391479 -1.3307856 1.6762865 234 88 12
0.028844057 -1.3462602 1.7412819 234 88 12
0.035480261 -1.3568608 1.7862034 234 88 12
0.050194427 -1.3899742 1.9254479 234 88 12
0.056487188 -1.4242855 2.0681236 234 88 12
0.057932679 -1.4132735 2.0229537 234 88 12
0.062767543 -1.4557722 2.1991436 234 88 12
0.065014951 -1.4062074 1.9950742 234 88 12
0.10215298 -1.4159924 2.0421021 234 88 12
-0.011951894 -1.2870541 1.4776201 234 88 12
0.024758911 -1.3326056 1.675047 234 88 12
0.039090488 -1.3658106 1.8167 234 88 12
0.054617219 -1.4237518 2.0621512 234 88 12
0.060377683 -1.4442097 2.1488652 234 88 12
0.048461728 -1.2416165 1.2983526 234 88 12
0.059484087 -1.2411373 1.2983526 234 88 12
0.095463939 -1.384336 1.9045366 234 88 12
0.036360607 -1.4093142 1.9938745 234 88 12
-0.018375816 -1.2647481 1.3691909 234 88 12
-0.011564054 -1.2644519 1.3691909 234 88 12
0.02710885 -1.3686632 1.819353 234 88 12
0.033573825 -1.3832442 1.882533 234 88 12
0.034448046 -1.3756685 1.85049 234 88 12
0.037772574 -1.3817782 1.8770773 234 88 12
0.041567542 -1.3904828 1.9147828 234 88 12
0.046081208 -1.3979871 1.9475189 234 88 12
0.049988862 -1.4048738 1.9775171 234 88 12
0.062751532 -1.4601065 2.2146766 234 88 12
0.048595957 -1.2447038 1.2963588 234 88 12
0.059618313 -1.2442245 1.2963588 234 88 12
0.10653454 -1.4121931 2.0190835 234 88 12
0.013191864 -1.4112519 1.9932748 234 88 12
0.024243826 -1.4107714 1.9932748 234 88 12
0.036400985 -1.4102428 1.9932748 234 88 12
0.02807712 -1.3820292 1.8699281 234 88 12
0.060259216 -1.4381108 2.1180449 234 88 12
0.045056071 -1.2479508 1.2943649 234 88 12
-0.024617951 -1.2540733 1.2923712 234 88 12
0.025588036 -1.3766246 1.8391641 234 88 12
0.036528859 -1.394424 1.919276 234 88 12
0.036750637 -1.3906807 1.902909 234 88 12
0.040880132 -1.3950589 1.9228889 234 88 12
0.047316376 -1.4050832 1.9680587 234 88 12
0.051934414 -1.4162354 2.0178268 234 88 12
0.057494957 -1.4375466 2.1123073 234 88 12
0.060885228 -1.4494175 2.1649916 234 88 12
0.041516181 -1.2511978 1.2923712 234 88 12
0.048864417 -1.2508783 1.2923712 234 88 12
0.061860874 -1.4100662 1.9926751 234 88 12
0.10601427 -1.4189607 2.0400805 234 88 12
0.10694557 -1.4189202 2.0400805 234 88 12
0.030614637 -1.390962 1.8968183 234 88 12
0.038544096 -1.4014721 1.9451516 234 88 12
0.046292096 -1.4066502 1.9697076 234 88 12
0.055567261 -1.4350674 2.0980361 234 88 12
0.061282102 -1.456207 2.19327 234 88 12
0.011102602 -1.414134 1.9914756 234 88 12
0.03306523 -1.3983519 1.9244034 234 88 12
0.03674018 -1.4045491 1.9531596 234 88 12
0.046033081 -1.4217254 2.032686 234 88 12
0.046378791 -1.4161866 2.0076985 234 88 12
0.047424711 -1.416141 2.0076985 234 88 12
0.050766177 -1.4213482 2.0319104 234 88 12
0.057980742 -1.4446481 2.1387291 234 88 12
0.034436405 -1.2576919 1.2883835 234 88 12
0.059799042 -1.3919358 1.9006373 234 88 12
0.070422009 -1.40232 1.9497006 234 88 12
0.071679838 -1.4022653 1.9497006 234 88 12
0.094534256 -1.4161239 2.0168862 234 88 12
0.10668248 -1.4155957 2.0168862 234 88 12
0.043141302 -1.4098536 1.9733269 234 88 12
0.053778198 -1.4312288 2.073704 234 88 12
0.056604102 -1.4410883 2.1195889 234 88 12
0.05942665 -1.4527305 2.1736665 234 88 12
0.058414448 -1.3932059 1.8998574 234 88 12
0.084282182 -1.3920811 1.8998574 234 88 12
0.10727573 -1.3910815 1.8998574 234 88 12
0.01007816 -1.4160395 1.9902761 234 88 12
0.012288553 -1.4159433 1.9902761 234 88 12
0.024445711 -1.4154147 1.9902761 234 88 12
-0.016732797 -1.2661028 1.2843958 234 88 12
0.033774946 -1.3947567 1.8956662 234 88 12
0.027356626 -1.2641859 1.2843958 234 88 12
0.03837898 -1.2637067 1.2843958 234 88 12
0.058706794 -1.4139252 1.9902761 234 88 12
0.064094767 -1.259181 1.2684771 234 88 12
0.065482587 -1.4046526 1.9483354 234 88 12
0.071771741 -1.4043791 1.9483354 234 88 12
0.066007935 -1.4640771 2.2260458 234 88 12
0.083092228 -1.403887 1.9483354 234 88 12
0.094394363 -1.3928514 1.8990775 234 88 12
0.10732824 -1.392289 1.8990775 234 88 12
0.035538048 -1.4158629 1.9896764 234 88 12
0.04621233 -1.4212967 2.0176837 234 88 12
0.057082355 -1.3956834 1.8982977 234 88 12
0.059956551 -1.3955585 1.8982977 234 88 12
0.056767009 -1.2626415 1.2664518 234 88 12
0.10138001 -1.3575072 1.726155 234 88 12
0.091572672 -1.3941839 1.8982977 234 88 12
0.094446868 -1.3940589 1.8982977 234 88 12
0.10738073 -1.3934965 1.8982977 234 88 12
0.045189843 -1.4188201 2.0008883 234 88 12
0.016602729 -1.2708397 1.2804081 234 88 12
0.056577154 -1.4158785 1.9890766 234 88 12
0.059903421 -1.4743847 2.2718863 234 88 12
-0.0089818705 -1.2750452 1.2784144 234 88 12
0.0020404849 -1.2745659 1.2784144 234 88 12
0.01306284 -1.2740867 1.2784144 234 88 12
0.042111494 -1.2695625 1.2624013 234 88 12
0.16707055 -1.3091795 1.4835993 234 88 12
0.034783736 -1.273023 1.2603761 234 88 12
0.038515788 -1.2728606 1.2603761 234 88 12
0.059377242 -1.4091538 1.945605 234 88 12
0.090823032 -1.4077866 1.945605 234 88 12
0.11191777 -1.3622577 1.7227975 234 88 12
0.02745598 -1.2764834 1.2583508 234 88 12
0.038652137 -1.2759967 1.2583508 234 88 12
0.058165364 -1.4102653 1.9449224 234 88 12
0.11405545 -1.363901 1.7216784 234 88 12
0.016396172 -1.2801062 1.2563255 234 88 12
0.09468843 -1.4097364 1.9442399 234 88 12
0.11825549 -1.3654546 1.7205592 234 88 12
0.11914002 -1.3990345 1.8943983 234 88 12
0.0090684146 -1.2835667 1.2543002 234 88 12
0.0017406568 -1.2870271 1.252275 234 88 12
0.012936812 -1.2865404 1.252275 234 88 12
0.024132967 -1.2860535 1.252275 234 88 12
0.048286501 -1.3719692 1.7183208 234 88 12
0.12253087 -1.3687412 1.7183208 234 88 12
0.13078023 -1.3683825 1.7183208 234 88 12
0.11201036 -1.4281083 2.0340159 234 88 12
-0.0018550488 -1.2903254 1.2502497 234 88 12
0.0018770029 -1.2901632 1.2502497 234 88 12
0.013073158 -1.2896763 1.2502497 234 88 12
0.024269313 -1.2891896 1.2502497 234 88 12
0.070785142 -1.465742 2.2248387 234 88 12
0.053363804 -1.4157687 1.9415095 234 88 12
0.059652962 -1.4154954 1.9415095 234 88 12
0.075283304 -1.4554238 2.1672709 234 88 12
0.11935003 -1.4038647 1.8912789 234 88 12
-0.016510563 -1.2972463 1.2461993 234 88 12
0.14338034 -1.3730433 1.7149633 234 88 12
0.0039315075 -1.4274718 1.983079 234 88 12
-0.031302422 -1.3010314 1.2441739 234 88 12
-0.020106269 -1.3005446 1.2441739 234 88 12
-0.0089101139 -1.3000578 1.2441739 234 88 12
0.0022860412 -1.299571 1.2441739 234 88 12
0.013482196 -1.2990842 1.2441739 234 88 12
0.040338509 -1.3792596 1.7138442 234 88 12
0.10251115 -1.4157498 1.9401444 234 88 12
0.11023733 -1.4273728 2.0091949 234 88 12
0.012813454 -1.4280161 1.9824792 234 88 12
0.023865417 -1.4275355 1.9824792 234 88 12
-0.053558387 -1.3051409 1.2421486 234 88 12
0.027087199 -1.4200881 1.9394618 234 88 12
0.051822271 -1.4575858 2.1665349 234 88 12
0.03284486 -1.4234118 1.9605021 234 88 12
0.035892021 -1.4197052 1.9394618 234 88 12
0.032164481 -1.3813512 1.712725 234 88 12
0.036289167 -1.3811718 1.712725 234 88 12
0.021056328 -1.4249204 1.95986 234 88 12
0.036437616 -1.4242517 1.95986 234 88 12
0.067211092 -1.4572973 2.1662896 234 88 12
0.10637654 -1.4176996 1.9387792 234 88 12
0.0018422463 -1.4303539 1.9812797 234 88 12
0.012894209 -1.4298733 1.9812797 234 88 12
0.04652996 -1.4496337 2.1112666 234 88 12
0.047821447 -1.4495776 2.1112666 234 88 12
0.13955703 -1.3801544 1.7104867 234 88 12
0.14161937 -1.3800647 1.7104867 234 88 12
0.0093110204 -1.4274232 1.9585758 234 88 12
0.012860548 -1.427269 1.9585758 234 88 12
0.14169472 -1.3817977 1.7093675 234 88 12
0.12541343 -1.4108602 1.8865997 234 88 12
0.006987894 -1.4285203 1.9579338 234 88 12
0.012903774 -1.4282632 1.9579338 234 88 12
0.042702682 -1.4508873 2.1105657 234 88 12
0.043666348 -1.4269257 1.9579338 234 88 12
0.12977722 -1.4118803 1.8858198 234 88 12
0.047246478 -1.4512334 2.1102154 234 88 12
0.043709576 -1.4279199 1.9572917 234 88 12
0.055632703 -1.4485642 2.0951974 234 88 12
0.066809058 -1.4480783 2.0951974 234 88 12
-0.00020663791 -1.4341646 1.9788808 234 88 12
0.047302328 -1.4287597 1.9566497 234 88 12
0.089885809 -1.4476629 2.0948184 234 88 12
0.15437016 -1.3881915 1.7048908 234 88 12
0.12849763 -1.4155655 1.8834802 234 88 12
0.12993473 -1.415503 1.8834802 234 88 12
0.11357027 -1.434046 2.0047998 234 88 12
0.11863203 -1.433826 2.0047998 234 88 12
0.040199123 -1.4611361 2.164572 234 88 12
0.1180187 -1.4246058 1.9340011 234 88 12
0.026396854 -1.4521875 2.0936811 234 88 12
0.082715541 -1.4596683 2.1643267 234 88 12
0.15872088 -1.3932109 1.7015333 234 88 12
0.12067223 -1.4276673 1.9319533 234 88 12
-0.0021747681 -1.4398328 1.9752822 234 88 12
3.56243e-05 -1.4397367 1.9752822 234 88 12
0.039813068 -1.4626755 2.1635907 234 88 12
0.035166081 -1.4561077 2.1074119 234 88 12
0.11581688 -1.439062 2.0015037 234 88 12
0.059287548 -1.46259 2.1630998 234 88 12
0.11889093 -1.4397806 2.0009544 234 88 12
0.0015474993 -1.4397137 1.950871 234 88 12
1.1595979 0.11128527 2.1440902 234 88 12
1.1586571 0.11897159 2.1440902 234 88 12
1.157313 0.12995204 2.1440902 234 88 12
1.2009712 0.12843943 2.2577491 234 88 12
1.2007357 0.13036412 2.2577491 234 88 12
1.1587542 0.14238791 2.1425533 234 88 12
1.1583835 0.15348749 2.142041 234 88 12
1.1652703 0.1052926 2.1415288 234 88 12
1.1557859 0.12774633 2.1219051 234 88 12
1.1554981 0.13009737 2.1219051 234 88 12
1.2004594 0.1420515 2.2571504 234 88 12
1.1569717 0.12669833 2.1213567 234 88 12
1.15654 0.1302249 2.1213567 234 88 12
1.2481747 0.1521717 2.3995202 234 88 12
1.2034813 0.12679313 2.2565517 234 88 12
1.2480508 0.15376706 2.399483 234 88 12
1.1598247 0.16592336 2.1405044 234 88 12
1.16819 0.10564997 2.139992 234 88 12
1.1680555 0.10674801 2.139992 234 88 12
1.2036573 0.13007057 2.2562525 234 88 12
1.2036356 0.1443938 2.2553546 234 88 12
1.1679164 0.14016587 2.1379428 234 88 12
1.1686208 0.14248107 2.1374307 234 88 12
1.1652933 0.17773767 2.1369183 234 88 12
1.1688294 0.11621838 2.1158726 234 88 12
1.1685417 0.11856943 2.1158726 234 88 12
1.2032067 0.1384666 2.2403071 234 88 12
1.1681447 0.13045216 2.115324 234 88 12
1.1679442 0.18029112 2.1353815 234 88 12
1.1779221 0.10684118 2.1348693 234 88 12
1.1737558 0.1408806 2.1348693 234 88 12
1.1736214 0.14197864 2.1348693 234 88 12
1.1689174 0.18041024 2.1348693 234 88 12
1.1797342 0.10817747 2.1338446 234 88 12
1.2108735 0.12769793 2.2526608 234 88 12
1.2105595 0.13026419 2.2526608 234 88 12
1.2088318 0.14437865 2.2526608 234 88 12
1.1178912 0.087956153 1.8834553 234 88 12
0.99786144 0.10516625 1.4472955 234 88 12
1.0019139 0.12447319 1.4710249 234 88 12
0.9887656 0.16469371 1.4406019 234 88 12
0.98830765 0.16843501 1.4406019 234 88 12
1.0433317 0.1007831 1.6016531 234 88 12
1.0007 0.10928507 1.4455621 234 88 12
0.99745756 0.11255635 1.434896 234 88 12
1.0013336 0.11693964 1.4514564 234 88 12
1.0008816 0.12063288 1.4514564 234 88 12
1.1738552 0.14427558 2.1114852 234 88 12
0.99526894 0.12754692 1.4335682 234 88 12
0.99881035 0.13165131 1.4487445 234 88 12
1.0722178 0.14326166 1.7295755 234 88 12
1.1633393 0.15237829 2.0757408 234 88 12
0.99208158 0.16509959 1.4388565 234 88 12
0.99162364 0.16884089 1.4388565 234 88 12
1.178782 0.11266404 2.1109369 234 88 12
1.1217741 0.086351722 1.8815434 234 88 12
1.1207709 0.094547726 1.8815434 234 88 12
1.1777748 0.12089268 2.1109369 234 88 12
1.1884151 0.13484167 2.1579652 234 88 12
1.0045425 0.094525576 1.4388517 234 88 12
1.0107843 0.10717747 1.4685229 234 88 12
1.175041 0.14322758 2.1109369 234 88 12
1.1882906 0.14988336 2.1645036 234 88 12
1.2149185 0.1519524 2.2668865 234 88 12
1.1798239 0.11279156 2.1103883 234 88 12
1.1816339 0.13276963 2.1268392 234 88 12
1.0879724 0.10874782 1.7533846 234 88 12
1.0141903 0.096436016 1.462323 234 88 12
1.0264421 0.10289332 1.5127425 234 88 12
1.0260201 0.10634051 1.5127425 234 88 12
1.0045818 0.11726211 1.4350318 234 88 12
1.0039674 0.12098436 1.4344177 234 88 12
1.009681 0.12543803 1.4586134 234 88 12
1.0046231 0.12863103 1.4405708 234 88 12
1.0041676 0.13235253 1.4405708 234 88 12
1.1104439 0.154212 1.8617707 234 88 12
1.0612615 0.16008623 1.6744146 234 88 12
1.0011288 0.17678876 1.44985 234 88 12
1.0006777 0.180475 1.44985 234 88 12
1.25415 0.15373817 2.4171031 234 88 12
1.0970123 0.10834918 1.7785487 234 88 12
1.1856233 0.13485327 2.1390483 234 88 12
1.0178609 0.093191937 1.4606253 234 88 12
1.0174155 0.09683077 1.4606253 234 88 12
1.0172042 0.10796326 1.4651437 234 88 12
1.0158743 0.11882833 1.4651437 234 88 12
1.007466 0.13275626 1.4388347 234 88 12
1.0392787 0.13870597 1.566547 234 88 12
1.0637721 0.16039354 1.6730932 234 88 12
1.0043961 0.17718865 1.4481302 234 88 12
1.2152655 0.12953787 2.2502663 234 88 12
1.2151871 0.13017944 2.2502663 234 88 12
1.2077651 0.13999154 2.2254763 234 88 12
1.0162566 0.092346929 1.4390775 234 88 12
1.015802 0.096060947 1.4390775 234 88 12
1.0177572 0.10784344 1.4526157 234 88 12
1.0096381 0.12167092 1.4270059 234 88 12
1.0527169 0.13667174 1.6059914 234 88 12
1.1510081 0.14808613 2.0032485 234 88 12
1.1984907 0.15317319 2.194947 234 88 12
1.1983865 0.15402429 2.194947 234 88 12
1.1647705 0.15698643 2.0624325 234 88 12
1.0399554 0.16809683 1.5704648 234 88 12
1.0508323 0.17339703 1.616394 234 88 12
1.0150449 0.18391342 1.4789116 234 88 12
1.0530589 0.094818033 1.5739856 234 88 12
1.0332267 0.096286871 1.4944526 234 88 12
1.0420827 0.10547943 1.5348462 234 88 12
1.0416732 0.10882481 1.5348462 234 88 12
1.1080884 0.12513052 1.8117039 234 88 12
1.0183191 0.11150565 1.4416605 234 88 12
1.0162826 0.11873576 1.4370003 234 88 12
1.0867805 0.1396122 1.7326452 234 88 12
1.1013273 0.14559774 1.7944807 234 88 12
1.1494954 0.14973494 1.9914651 234 88 12
1.1821247 0.15204947 2.1246622 234 88 12
1.0207113 0.15937141 1.4750518 234 88 12
1.125731 0.16263543 1.9016815 234 88 12
1.0535288 0.1737271 1.6149746 234 88 12
1.0073326 0.18937166 1.4357691 234 88 12
1.0241044 0.08582899 1.437124 234 88 12
1.125904 0.12424587 1.8749208 234 88 12
1.053948 0.1111544 1.5725446 234 88 12
1.0307156 0.11716039 1.480065 234 88 12
1.0178901 0.13025315 1.4339306 234 88 12
1.0150003 0.13377236 1.4238224 234 88 12
1.0887648 0.1424915 1.7314333 234 88 12
1.1776811 0.15445925 2.102963 234 88 12
1.1484443 0.16132303 1.9862329 234 88 12
1.0587138 0.17971133 1.6266296 234 88 12
1.179924 0.18732992 2.128722 234 88 12
1.0380951 0.028878639 1.4507792 234 88 12
1.1329213 0.085636437 1.8758079 234 88 12
1.2279372 0.14004016 2.3004255 234 88 12
1.0269372 0.089939594 1.4353939 234 88 12
1.0288643 0.098052964 1.4475889 234 88 12
1.0924026 0.11637571 1.7223054 234 88 12
1.0526372 0.11062045 1.5532942 234 88 12
1.0819626 0.11971032 1.6804101 234 88 12
1.0334246 0.12109135 1.4784105 234 88 12
1.1351424 0.13990967 1.9128268 234 88 12
1.1100198 0.1417052 1.8088266 234 88 12
1.1618708 0.15041125 2.0298188 234 88 12
1.1615113 0.15334874 2.0298188 234 88 12
1.1094142 0.16679381 1.8191217 234 88 12
1.061733 0.17704296 1.6252333 234 88 12
1.018436 0.18949391 1.4507792 234 88 12
1.1938888 0.17101821 2.1740668 234 88 12
1.1349882 0.083809718 1.8748519 234 88 12
1.1332326 0.098152727 1.8748519 234 88 12
1.1114537 0.11565987 1.7915236 234 88 12
1.0692936 0.10765602 1.6084546 234 88 12
1.0798403 0.11322585 1.6561037 234 88 12
1.0940881 0.12191541 1.7210797 234 88 12
1.0531672 0.12057626 1.5467311 234 88 12
1.0294353 0.12042663 1.4459436 234 88 12
1.1668407 0.14641933 2.0425432 234 88 12
1.1711147 0.15351547 2.0643663 234 88 12
1.1594331 0.15502496 2.015578 234 88 12
1.1686996 0.15625249 2.0555394 234 88 12
1.1503776 0.15847014 1.9789395 234 88 12
1.1329932 0.16311219 1.9075775 234 88 12
1.0322628 0.18137839 1.4896017 234 88 12
1.2287885 0.13968842 2.3000064 234 88 12
1.039651 0.069824472 1.4473733 234 88 12
1.0676439 0.10043672 1.5842669 234 88 12
1.0998565 0.11493575 1.7308544 234 88 12
1.1438411 0.12970847 1.9283596 234 88 12
1.1279185 0.1284426 1.8590167 234 88 12
1.1326563 0.13557 1.8832136 234 88 12
1.0301892 0.12796618 1.4372576 234 88 12
1.1515203 0.14352246 1.9687719 234 88 12
1.1597378 0.14746414 2.0062954 234 88 12
1.1698161 0.15228352 2.0523071 234 88 12
1.1795278 0.16088271 2.0987332 234 88 12
1.0395446 0.06890592 1.4303126 234 88 12
1.0835015 0.10452241 1.6421522 234 88 12
1.1520329 0.12775399 1.9550906 234 88 12
1.1634345 0.13221195 2.0074728 234 88 12
1.1218747 0.12479742 1.8212779 234 88 12
1.147314 0.13216434 1.9367678 234 88 12
1.1174976 0.12858567 1.8041197 234 88 12
1.0328219 0.11697299 1.4266326 234 88 12
1.1117133 0.13242769 1.7808205 234 88 12
1.1030555 0.13629648 1.7449371 234 88 12
1.1827625 0.14900874 2.101229 234 88 12
1.1708697 0.15381232 2.0516636 234 88 12
1.0862485 0.1567992 1.682251 234 88 12
1.0388916 0.17863941 1.4863379 234 88 12
1.2293648 0.14158268 2.2995872 234 88 12
1.1376776 0.10701558 1.8719842 234 88 12
1.045675 0.074266836 1.4439672 234 88 12
1.2149787 0.13920309 2.2341554 234 88 12
1.2146388 0.1419791 2.2341554 234 88 12
1.2127162 0.14217494 2.2256908 234 88 12
1.1477469 0.12836082 1.9285206 234 88 12
1.1347859 0.12742195 1.8702281 234 88 12
1.1386884 0.13031019 1.8892013 234 88 12
1.1342827 0.13153309 1.8702281 234 88 12
1.1315371 0.1331757 1.8588842 234 88 12
1.147876 0.14324714 1.9372189 234 88 12
1.1972697 0.14998141 2.1610901 234 88 12
1.1749157 0.15261514 2.0628731 234 88 12
1.187951 0.15610997 2.1228912 234 88 12
1.1497972 0.16100492 1.9554727 234 88 12
1.1248962 0.16700532 1.8477385 234 88 12
1.0327178 0.18012691 1.4439672 234 88 12
1.1964897 0.17697136 2.1723402 234 88 12
1.0456635 0.073418327 1.4268529 234 88 12
1.04757 0.085613884 1.4422643 234 88 12
1.0890887 0.10226089 1.6397401 234 88 12
1.0462296 0.096564926 1.4422643 234 88 12
1.1732483 0.13713969 2.0406585 234 88 12
1.0939901 0.12685236 1.6756086 234 88 12
1.1194065 0.13345988 1.7945085 234 88 12
1.046901 0.12632446 1.4618231 234 88 12
1.059726 0.13140957 1.5227911 234 88 12
1.1537846 0.14560582 1.9571123 234 88 12
1.1888647 0.15177239 2.1195805 234 88 12
1.1988953 0.1641179 2.1719084 234 88 12
1.248302 0.15585198 2.3913217 234 88 12
1.1914284 0.11301883 2.1043558 234 88 12
1.0923835 0.096751258 1.6383812 234 88 12
1.0909573 0.10840251 1.6383812 234 88 12
1.1792133 0.13688044 2.0614896 234 88 12
1.0889114 0.12291793 1.6371397 234 88 12
1.1800512 0.14110819 2.0677409 234 88 12
1.193638 0.15199265 2.1365464 234 88 12
1.1593657 0.16249324 1.9844117 234 88 12
1.1458845 0.085143432 1.8691164 234 88 12
1.0517824 0.077930734 1.4233932 234 88 12
1.0509131 0.11195833 1.4388583 234 88 12
1.1592032 0.13756093 1.9617219 234 88 12
1.1698735 0.14547697 2.0163398 234 88 12
1.1882312 0.15428132 2.1075413 234 88 12
1.2075287 0.15572193 2.1989233 234 88 12
1.1816252 0.15815122 2.0787654 234 88 12
1.0433176 0.17401423 1.4388583 234 88 12
1.1451926 0.10585573 1.8681605 234 88 12
1.1449419 0.10790472 1.8681605 234 88 12
1.0541611 0.085748799 1.4216633 234 88 12
1.0527996 0.096872516 1.4216633 234 88 12
1.0514381 0.10799623 1.4216633 234 88 12
1.053255 0.11965503 1.4371552 234 88 12
1.1797838 0.14645551 2.0570915 234 88 12
1.1986761 0.1532945 2.1513145 234 88 12
1.1985542 0.15429148 2.1513145 234 88 12
1.1927792 0.1554587 2.1244173 234 88 12
1.195919 0.15639947 2.1399622 234 88 12
1.053363 0.1195222 1.4199334 234 88 12
1.0551499 0.13100208 1.4354522 234 88 12
1.1931304 0.14775163 2.1162288 234 88 12
1.2025836 0.15435366 2.1661155 234 88 12
1.0506818 0.16750555 1.4354522 234 88 12
1.2020624 0.16544469 2.1701818 234 88 12
1.2004769 0.17839852 2.1701818 234 88 12
1.2100664 0.15104601 2.196528 234 88 12
1.2066993 0.15174706 2.1802838 234 88 12
1.2032112 0.15351485 2.1640882 234 88 12
1.2049984 0.15533656 2.1740389 234 88 12
1.0543641 0.16425121 1.4337493 234 88 12
1.2006074 0.11519032 2.1225748 234 88 12
1.0640203 0.086955555 1.4164737 234 88 12
1.0631126 0.094371364 1.4164737 234 88 12
1.0585742 0.13145041 1.4164737 234 88 12
1.0602802 0.14274514 1.4320463 234 88 12
1.2037026 0.16564545 2.1693184 234 88 12
1.2502788 0.15597241 2.3981876 234 88 12
1.0668528 0.091065712 1.4147439 234 88 12
1.066399 0.094773613 1.4147439 234 88 12
1.0645837 0.10960524 1.4147439 234 88 12
1.0632221 0.12072895 1.4147439 234 88 12
1.0618606 0.13185267 1.4147439 234 88 12
1.0614067 0.13556057 1.4147439 234 88 12
1.0639625 0.1394908 1.4303433 234 88 12
1.0635157 0.14314115 1.4303433 234 88 12
1.0621752 0.15409218 1.4303433 234 88 12
1.156781 0.086477146 1.8633809 234 88 12
1.1537714 0.11106515 1.8633809 234 88 12
1.1527683 0.11926115 1.8633809 234 88 12
1.0637854 0.14337865 1.4130141 234 88 12
1.06197 0.15821026 1.4130141 234 88 12
1.2036439 0.17972532 2.1684551 234 88 12
1.2008054 0.11416657 2.0994201 234 88 12
1.156902 0.11560772 1.861469 234 88 12
1.1564003 0.11970572 1.861469 234 88 12
1.1551464 0.12995072 1.861469 234 88 12
1.2095877 0.14476566 2.1675918 234 88 12
1.1954452 0.13680848 2.0786312 234 88 12
1.1948334 0.14180726 2.0786312 234 88 12
1.0935433 0.031960417 1.4218283 234 88 12
1.100014 0.032752432 1.4184223 234 88 12
1.1998388 0.12846735 2.0768821 234 88 12
1.1967796 0.15346122 2.0768821 234 88 12
1.1694934 0.088033147 1.8566895 234 88 12
1.1064848 0.033544447 1.4150163 234 88 12
1.202513 0.12498941 2.075716 234 88 12
1.2019011 0.12998819 2.075716 234 88 12
1.2003715 0.14248513 2.075716 234 88 12
1.1989949 0.15373236 2.075716 234 88 12
1.1097201 0.033940453 1.4133133 234 88 12
1.2037735 0.12387529 2.0751331 234 88 12
1.2444652 0.15045236 2.3519568 234 88 12
1.2041163 0.13025934 2.0745499 234 88 12
1.2443222 0.15342568 2.3518422 234 88 12
1.2153831 0.15862291 2.1637068 234 88 12
1.2504107 0.15417698 2.3903346 234 88 12
1.2154104 0.1652002 2.163275 234 88 12
1.2124101 0.11439383 2.0933874 234 88 12
1.2385637 0.13906117 2.2949769 234 88 12
1.2039211 0.159409 2.0728009 234 88 12
1.1263438 0.032270145 1.4047984 234 88 12
1.2103825 0.1158053 2.0722179 234 88 12
1.2543645 0.15332177 2.416141 234 88 12
1.215012 0.18205588 2.1624117 234 88 12
1.1332613 0.029411811 1.4013923 234 88 12
1.2154248 0.11134882 2.0698857 234 88 12
1.1925403 0.080455571 1.8452184 234 88 12
1.2067056 0.14117852 2.0193713 234 88 12
1.2065308 0.14260632 2.0193713 234 88 12
1.2051327 0.1540287 2.0193713 234 88 12
1.1475433 0.020044798 1.3945804 234 88 12
1.2109097 0.16660649 2.0687199 234 88 12
1.2214646 0.10953644 2.0890002 234 88 12
1.2075311 0.16591577 2.0173731 234 88 12
1.2148123 0.16748816 2.0830345 234 88 12
1.2217277 0.10577822 2.0669708 234 88 12
1.2136899 0.1260923 2.0167069 234 88 12
1.2131656 0.1303757 2.0167069 234 88 12
1.2117676 0.14179809 2.0167069 234 88 12
1.2101946 0.15464827 2.0167069 234 88 12
1.2087965 0.16607067 2.0167069 234 88 12
1.2157249 0.16881251 2.0824771 234 88 12
1.2153049 0.12339161 2.0160408 234 88 12
1.2156966 0.13068549 2.0153747 234 88 12
1.2241461 0.18223476 2.1576633 234 88 12
1.215564 0.14226277 2.0147085 234 88 12
1.22677 0.10132173 2.0646386 234 88 12
1.2199751 0.11671729 2.0140424 234 88 12
1.2154313 0.15384005 2.0140424 234 88 12
1.2077917 0.17482476 1.9617913 234 88 12
1.2280307 0.10020761 2.0640557 234 88 12
1.2152988 0.16541734 2.0133762 234 88 12
1.2274265 0.18263628 2.1559367 234 88 12
1.250523 0.14247061 2.3493218 234 88 12
1.2275259 0.10749718 2.0107119 234 88 12
1.2273933 0.11907446 2.0100458 234 88 12
1.1685472 0.20357485 1.382506 234 88 12
1.2304064 0.10495137 2.0093796 234 88 12
1.2272607 0.13065174 2.0093796 234 88 12
1.2367018 0.093658462 2.0599744 234 88 12
1.2271281 0.14222902 2.0087135 234 88 12
1.1723748 0.20599975 1.3455106 234 88 12
1.2366987 0.14167273 2.1297002 234 88 12
1.2269955 0.15380631 2.0080473 234 88 12
1.1756827 0.20640463 1.3437696 234 88 12
1.174769 0.2138688 1.3437696 234 88 12
1.2390701 0.09267991 2.0588086 234 88 12
1.2385751 0.13373543 2.129231 234 88 12
1.238452 0.13474123 2.129231 234 88 12
1.2268629 0.16538359 2.0073814 234 88 12
1.2370044 0.1539606 2.1287618 234 88 12
1.182662 0.20694546 1.3456999 234 88 12
1.2521967 0.14142931 2.34852 234 88 12
1.2410967 0.12791884 2.1282926 234 88 12
1.2393732 0.14200008 2.1282926 234 88 12
1.1859533 0.20734832 1.3439676 234 88 12
1.2388731 0.09874174 2.005383 234 88 12
1.2387873 0.15417883 2.1278234 234 88 12
1.2403134 0.097468838 2.0047169 234 88 12
1.2390901 0.10746343 2.0047169 234 88 12
1.2319248 0.16600317 2.0047169 234 88 12
1.2392476 0.18126576 2.1498933 234 88 12
1.240999 0.16567911 2.1259463 234 88 12
1.2509111 0.087787174 2.0529783 234 88 12
1.2484306 0.09411481 2.0007203 234 88 12
1.2382944 0.17692713 2.0007203 234 88 12
1.2397346 0.17565422 2.0000541 234 88 12
1.2395599 0.17708202 2.0000541 234 88 12
0.12807626 1.2033243 2.2565517 234 88 12
0.13078173 1.2041475 2.2559531 234 88 12
0.11126125 1.1673212 2.1169693 234 88 12
0.10773469 1.1677529 2.1169693 234 88 12
0.13881125 1.221622 2.3037786 234 88 12
0.10551117 1.1690825 2.116421 234 88 12
0.15403466 1.2538 2.4163885 234 88 12
0.12092046 1.1682539 2.1158726 234 88 12
0.1620167 1.2350973 2.356081 234 88 12
0.14205311 1.2220334 2.3033595 234 88 12
0.14167318 1.2080086 2.2532594 234 88 12
0.072501726 1.1105664 1.8882349 234 88 12
0.07045272 1.1108172 1.8882349 234 88 12
0.13305825 1.1699407 2.1142273 234 88 12
0.10805835 1.178761 2.134357 234 88 12
0.10586225 1.1790298 2.134357 234 88 12
0.1450202 1.2087533 2.2526608 234 88 12
0.081142299 1.1131953 1.886323 234 88 12
0.10927551 1.1795998 2.1338446 234 88 12
0.10598138 1.180003 2.1338446 234 88 12
0.05860329 1.115954 1.886323 234 88 12
0.12192384 1.2115803 2.2526608 234 88 12
0.083413579 1.1147606 1.885367 234 88 12
0.19715354 1.1599535 2.0932066 234 88 12
0.18840568 1.1610242 2.0932066 234 88 12
0.142845 1.1719153 2.112582 234 88 12
0.093473122 1.1779584 2.112582 234 88 12
0.20242345 1.1615568 2.0920405 234 88 12
0.19938856 1.1494874 2.0453496 234 88 12
0.093728177 1.1800421 2.1114852 234 88 12
0.20525466 1.1500537 2.0446835 234 88 12
0.17631546 1.1658766 2.0914576 234 88 12
0.15145622 1.1740338 2.1109369 234 88 12
0.13632527 1.1707715 2.0914576 234 88 12
0.12323373 1.1172597 1.8815434 234 88 12
0.11708673 1.1180121 1.8815434 234 88 12
0.12757741 1.1718422 2.0914576 234 88 12
0.090449721 1.1212724 1.8815434 234 88 12
0.11832412 1.211291 2.2373931 234 88 12
0.092680179 1.1812279 2.1109369 234 88 12
0.11842245 1.2148947 2.2511642 234 88 12
0.11778088 1.2149731 2.2511642 234 88 12
0.15863688 1.1742125 2.1103883 234 88 12
0.13165201 1.1180726 1.8805875 234 88 12
0.11116201 1.1205806 1.8805875 234 88 12
0.1177054 1.2119911 2.2370694 234 88 12
0.18843086 1.1546819 2.0433514 234 88 12
0.179086 1.167786 2.0902915 234 88 12
0.17658661 1.1680919 2.0902915 234 88 12
0.15466887 1.2245302 2.3012638 234 88 12
0.14534427 1.171916 2.0902915 234 88 12
0.1257273 1.1206411 1.8796315 234 88 12
0.18858576 1.1559473 2.0426853 234 88 12
0.14234158 1.1204507 1.8786756 234 88 12
0.14029258 1.1207016 1.8786756 234 88 12
0.13590005 1.2110127 2.2364218 234 88 12
0.11901285 1.1863104 2.1297464 234 88 12
0.19873524 1.1559895 2.0420191 234 88 12
0.16436082 1.1718369 2.0891254 234 88 12
0.14666188 1.1217653 1.8777198 234 88 12
0.1435363 1.226701 2.3008447 234 88 12
0.14039189 1.2270859 2.3008447 234 88 12
0.20698597 1.1677438 2.0885425 234 88 12
0.20888472 1.1560317 2.041353 234 88 12
0.21332301 1.1567729 2.0406868 234 88 12
0.15530245 1.1243942 1.8758079 234 88 12
0.10180148 1.1913804 2.1282098 234 88 12
0.11669384 1.2152364 2.2354505 234 88 12
0.20850681 1.169806 2.0873764 234 88 12
0.21347791 1.1580384 2.0400207 234 88 12
0.21205011 1.1582131 2.0400207 234 88 12
0.18873699 1.1875069 2.1522236 234 88 12
0.18773118 1.1876301 2.1522236 234 88 12
0.19634433 1.1601355 2.0400207 234 88 12
0.18777753 1.1611841 2.0400207 234 88 12
0.18830873 1.1221975 1.8748519 234 88 12
0.17351539 1.174089 2.0873764 234 88 12
0.16476753 1.1751597 2.0873764 234 88 12
0.16167173 1.1254579 1.8748519 234 88 12
0.15142673 1.1267118 1.8748519 234 88 12
0.14118172 1.1279658 1.8748519 234 88 12
0.12888773 1.1294706 1.8748519 234 88 12
0.11659373 1.1309754 1.8748519 234 88 12
0.094054721 1.1337341 1.8748519 234 88 12
0.10960692 1.1914128 2.1276975 234 88 12
0.17651004 1.1638477 2.0393546 234 88 12
0.16599202 1.1267724 1.873896 234 88 12
0.11886501 1.1325407 1.873896 234 88 12
0.13116138 1.1803973 2.0867934 234 88 12
0.14507884 1.2281287 2.3000064 234 88 12
0.11851041 1.1913109 2.1271851 234 88 12
0.1354793 1.1323503 1.8729401 234 88 12
0.096548297 1.1371155 1.8729401 234 88 12
0.087950312 1.1913244 2.1060011 234 88 12
0.15004459 1.1324109 1.8719842 234 88 12
0.13989709 1.2148937 2.2341554 234 88 12
0.071237214 1.0568371 1.4920744 234 88 12
0.08856748 1.11694 1.7694699 234 88 12
0.072816744 1.0900723 1.641099 234 88 12
0.18716183 1.191319 2.1503468 234 88 12
0.17554693 1.1678189 2.0373564 234 88 12
0.16460988 1.1324713 1.8710283 234 88 12
0.090584852 1.0904502 1.6394333 234 88 12
0.080212303 1.0878085 1.6217004 234 88 12
0.071666978 1.0760272 1.5635439 234 88 12
0.19330576 1.1914718 2.1498773 234 88 12
0.18569641 1.167861 2.0366902 234 88 12
0.19917065 1.0369545 1.4405613 234 88 12
0.17712617 1.1327827 1.8700724 234 88 12
0.17507716 1.1330335 1.8700724 234 88 12
0.14427078 1.0403268 1.4251231 234 88 12
0.14056288 1.0407807 1.4251231 234 88 12
0.12943916 1.0421422 1.4251231 234 88 12
0.11460754 1.0439576 1.4251231 234 88 12
0.1409478 1.1925157 2.1251361 234 88 12
0.11714096 1.0898877 1.6383812 234 88 12
0.11770515 1.1400558 1.8700724 234 88 12
0.12920429 1.1851337 2.0844612 234 88 12
0.082979381 1.0810666 1.5784141 234 88 12
0.066395178 1.0498351 1.4250137 234 88 12
0.063813157 1.0528232 1.4373373 234 88 12
0.076361552 1.0948792 1.6383812 234 88 12
0.093731843 1.198295 2.1251361 234 88 12
0.19591631 1.0406368 1.4388583 234 88 12
0.1928758 1.0377133 1.4233932 234 88 12
0.15579675 1.0422517 1.4233932 234 88 12
0.10388608 1.0486056 1.4233932 234 88 12
0.1058057 1.0938956 1.6370223 234 88 12
0.079590365 1.0971043 1.6370223 234 88 12
0.19327806 1.0409997 1.4216633 234 88 12
0.18586224 1.0419073 1.4216633 234 88 12
0.16732273 1.0441766 1.4216633 234 88 12
0.11911995 1.0500765 1.4216633 234 88 12
0.11541204 1.0505303 1.4216633 234 88 12
0.10428832 1.0518919 1.4216633 234 88 12
0.10029607 1.0971903 1.6356634 234 88 12
0.091557615 1.0982599 1.6356634 234 88 12
0.21757266 1.1678127 2.0346918 234 88 12
0.14547753 1.050186 1.4199334 234 88 12
0.13806173 1.0510937 1.4199334 234 88 12
0.21097666 1.1796217 2.0821292 234 88 12
0.17664358 1.1971304 2.1480005 234 88 12
0.17554304 1.0498416 1.4182036 234 88 12
0.16441932 1.0512031 1.4182036 234 88 12
0.093969114 1.0598263 1.4182036 234 88 12
0.13483602 1.197215 2.1230869 234 88 12
0.12495361 1.1984246 2.1230869 234 88 12
0.11726729 1.1993654 2.1230869 234 88 12
0.10518879 1.2008438 2.1230869 234 88 12
0.09420833 1.2021878 2.1230869 234 88 12
0.1833611 1.0522203 1.4164737 234 88 12
0.10549508 1.0617511 1.4164737 234 88 12
0.090663455 1.0635664 1.4164737 234 88 12
0.09432745 1.203161 2.1225748 234 88 12
0.18329497 1.0586008 1.4303433 234 88 12
0.18005544 1.0559605 1.4147439 234 88 12
0.17634754 1.0564144 1.4147439 234 88 12
0.16151592 1.0582298 1.4147439 234 88 12
0.1503922 1.0595913 1.4147439 234 88 12
0.13926849 1.0609529 1.4147439 234 88 12
0.13185267 1.0618606 1.4147439 234 88 12
0.12814477 1.0623144 1.4147439 234 88 12
0.11702105 1.0636759 1.4147439 234 88 12
0.10589733 1.0650375 1.4147439 234 88 12
0.091065712 1.0668528 1.4147439 234 88 12
0.089908786 1.1089431 1.6302277 234 88 12
0.071964994 1.0916051 1.5298829 234 88 12
0.10213289 1.2031934 2.1220624 234 88 12
0.19708697 1.1973426 2.1465929 234 88 12
0.18803474 1.1984507 2.1465929 234 88 12
0.17596512 1.1999279 2.1465929 234 88 12
0.18004063 1.062283 1.4286402 234 88 12
0.15821026 1.06197 1.4130141 234 88 12
0.15079445 1.0628777 1.4130141 234 88 12
0.12767218 1.189958 2.0634563 234 88 12
0.032621916 1.0781026 1.4169964 234 88 12
0.10993833 1.2032259 2.1215503 234 88 12
0.17408538 1.1795578 2.0313613 234 88 12
0.16409078 1.1807811 2.0313613 234 88 12
0.17715204 1.0629872 1.4112842 234 88 12
0.17344414 1.063441 1.4112842 234 88 12
0.091870211 1.0734257 1.4112842 234 88 12
0.096219294 1.1202382 1.6639408 234 88 12
0.10715453 1.1511872 1.836243 234 88 12
0.091043122 1.1217303 1.6685227 234 88 12
0.14164369 1.2305434 2.2822559 234 88 12
0.047162898 1.0785198 1.4092673 234 88 12
0.04220105 1.0769844 1.3978324 234 88 12
0.11884182 1.2031239 2.121038 234 88 12
0.032543723 1.0806872 1.4112842 234 88 12
0.16499923 1.2411385 2.3527586 234 88 12
0.18280706 1.1797746 2.0306952 234 88 12
0.17718229 1.0692005 1.4252343 234 88 12
0.1182278 1.0735351 1.4095544 234 88 12
0.11451989 1.0739889 1.4095544 234 88 12
0.10339618 1.0753505 1.4095544 234 88 12
0.12370104 1.1731654 1.9553609 234 88 12
0.11313371 1.1561158 1.8555428 234 88 12
0.10786983 1.1541512 1.841346 234 88 12
0.10574695 1.154411 1.841346 234 88 12
0.065992504 1.0792382 1.4057972 234 88 12
0.0948423 1.1421601 1.7674166 234 88 12
0.05871192 1.0804485 1.407534 234 88 12
0.031093262 1.0813497 1.3940425 234 88 12
0.17392795 1.0728827 1.4235313 234 88 12
0.16080391 1.1763673 1.9890364 234 88 12
0.16034481 1.1610219 1.9035455 234 88 12
0.15871228 1.1562746 1.8760843 234 88 12
0.1522242 1.0982943 1.5498401 234 88 12
0.15070039 1.1557363 1.8676535 234 88 12
0.1445854 1.0736445 1.4078245 234 88 12
0.14087749 1.0740985 1.4078245 234 88 12
0.11573514 1.0810084 1.4290984 234 88 12
0.10685973 1.0894694 1.470034 234 88 12
0.098660223 1.1355311 1.720142 234 88 12
0.062130664 1.0819644 1.3979853 234 88 12
0.060467586 1.0861909 1.4203161 234 88 12
0.056805454 1.0866392 1.4203161 234 88 12
0.050852232 1.0832614 1.3975222 234 88 12
0.042436708 1.0888499 1.4228251 234 88 12
0.027849654 1.0852995 1.393207 234 88 12
0.17941898 1.2031245 2.1447158 234 88 12
0.17640157 1.2034938 2.1447158 234 88 12
0.16359363 1.1686045 1.9382259 234 88 12
0.16146469 1.1726573 1.9597046 234 88 12
0.16702326 1.0770117 1.4218283 234 88 12
0.15241614 1.0779335 1.416923 234 88 12
0.14684099 1.1575462 1.8639783 234 88 12
0.1419688 1.1264219 1.6843153 234 88 12
0.14091939 1.1414343 1.7686164 234 88 12
0.13631459 1.1250215 1.6724632 234 88 12
0.13346423 1.1530741 1.8293755 234 88 12
0.11985779 1.1012073 1.5261726 234 88 12
0.1174961 1.1178534 1.618818 234 88 12
0.10788024 1.0948049 1.481606 234 88 12
0.10444859 1.0952249 1.481606 234 88 12
0.11478607 1.1373357 1.7272851 234 88 12
0.096120417 1.0919124 1.4570707 234 88 12
0.11700443 1.1573611 1.8422462 234 88 12
0.10968836 1.1445481 1.7646017 234 88 12
0.10503092 1.1454395 1.7664222 234 88 12
0.077321969 1.0915165 1.4417961 234 88 12
0.10524075 1.1685886 1.8976823 234 88 12
0.052350033 1.0883758 1.4066954 234 88 12
0.04714879 1.0864638 1.3922601 234 88 12
0.030186638 1.0911912 1.4072766 234 88 12
0.024496244 1.0890938 1.3914521 234 88 12
0.21896671 1.1792021 2.0286968 234 88 12
0.18184395 1.1837459 2.0286968 234 88 12
0.17613275 1.1844449 2.0286968 234 88 12
0.16471036 1.185843 2.0286968 234 88 12
0.16208275 1.1697876 1.9340156 234 88 12
0.16092379 1.1622458 1.8895929 234 88 12
0.15687464 1.1674423 1.9167711 234 88 12
0.15593122 1.1139098 1.6066126 234 88 12
0.15311027 1.1474712 1.7986469 234 88 12
0.1512505 1.1636558 1.8908997 234 88 12
0.14716065 1.1179234 1.6236098 234 88 12
0.14729676 1.1627882 1.8830855 234 88 12
0.14374524 1.1665641 1.9024028 234 88 12
0.13963647 1.1501417 1.8045518 234 88 12
0.13444372 1.1587285 1.8505201 234 88 12
0.12884355 1.1430801 1.7560883 234 88 12
0.11515275 1.0971577 1.4809061 234 88 12
0.10560695 1.0886861 1.4251738 234 88 12
0.11405373 1.1279063 1.6578972 234 88 12
0.12459236 1.1736602 1.9298745 234 88 12
0.12349805 1.175705 1.9409218 234 88 12
0.11729558 1.1648805 1.8739524 234 88 12
0.091946311 1.1179219 1.5845302 234 88 12
0.094894148 1.1422458 1.727241 234 88 12
0.092365414 1.1425554 1.727241 234 88 12
0.080310158 1.1407734 1.7084087 234 88 12
0.21912161 1.1804676 2.0280309 234 88 12
0.19371845 1.2031839 2.1437774 234 88 12
0.15978453 1.1802136 1.9836564 234 88 12
0.15557003 1.2060877 2.1333549 234 88 12
0.15684058 1.0860516 1.4256591 234 88 12
0.14757846 1.1227505 1.6356125 234 88 12
0.14393888 1.1115005 1.5665704 234 88 12
0.14495637 1.1581179 1.8425035 234 88 12
0.14207904 1.1686037 1.9023257 234 88 12
0.14093912 1.1736242 1.9311395 234 88 12
0.1376294 1.1652639 1.8793949 234 88 12
0.12955989 1.1472578 1.7672683 234 88 12
0.13618933 1.1841416 1.9897958 234 88 12
0.13068496 1.1697009 1.9005698 234 88 12
0.12879245 1.1699325 1.9005698 234 88 12
0.1206744 1.150416 1.779492 234 88 12
0.12400227 1.173079 1.9156839 234 88 12
0.11721869 1.1792009 1.9469219 234 88 12
0.11369541 1.175849 1.924588 234 88 12
0.11278846 1.1811702 1.9553463 234 88 12
0.091216132 1.1555353 1.7884271 234 88 12
0.10839096 1.1856329 1.9785134 234 88 12
0.060817935 1.1229941 1.5743606 234 88 12
0.12093443 1.2100431 2.1316781 234 88 12
0.12142872 1.2136235 2.1531723 234 88 12
0.063819334 1.1435107 1.6976459 234 88 12
0.15017028 1.25156 2.3978915 234 88 12
0.16350095 1.1033639 1.5136205 234 88 12
0.15999553 1.108513 1.5420835 234 88 12
0.15680146 1.108904 1.5420835 234 88 12
0.14896001 1.1496286 1.781871 234 88 12
0.14596474 1.1687855 1.8951783 234 88 12
0.14264818 1.15635 1.8177433 234 88 12
0.14533168 1.1930695 2.041147 234 88 12
0.14386308 1.1926568 2.0375741 234 88 12
0.14107303 1.1929538 2.0373063 234 88 12
0.13860568 1.1883518 2.0077343 234 88 12
0.12932418 1.1572371 1.8132581 234 88 12
0.13040678 1.1696008 1.8886124 234 88 12
0.12632757 1.1694047 1.8844192 234 88 12
0.13035637 1.1914871 2.0205517 234 88 12
0.13069747 1.1962543 2.0495503 234 88 12
0.12935042 1.1964191 2.0495503 234 88 12
0.12507802 1.189925 2.007236 234 88 12
0.11732204 1.1805573 1.9450234 234 88 12
0.11672161 1.194718 2.0299711 234 88 12
0.091465794 1.157575 1.7873535 234 88 12
0.086818993 1.1615727 1.8080301 234 88 12
0.13439706 1.230673 2.2598305 234 88 12
0.0641049 1.1458439 1.6964178 234 88 12
0.24807745 1.1517475 1.8557335 234 88 12
0.15793739 1.1919404 2.0354178 234 88 12
0.15523581 1.1886364 2.0130215 234 88 12
0.15372872 1.2004246 2.084523 234 88 12
0.15251103 1.2005736 2.084523 234 88 12
0.15108402 1.1957915 2.0539794 234 88 12
0.14750908 1.1856831 1.9889948 234 88 12
0.14616925 1.1994276 2.0726786 234 88 12
0.14375807 1.192261 2.0266986 234 88 12
0.14126584 1.2006581 2.0765626 234 88 12
0.13326558 1.1809441 1.9490497 234 88 12
0.13380302 1.1886678 1.9970487 234 88 12
0.13790901 1.2063106 2.1088617 234 88 12
0.14156483 1.2262715 2.2346189 234 88 12
0.13320385 1.2091122 2.1225762 234 88 12
0.12740353 1.1992192 2.0572405 234 88 12
0.11652078 1.1900512 1.992539 234 88 12
0.10487743 1.1903485 1.9855893 234 88 12
0.21515752 1.1071211 1.5366665 234 88 12
0.16104655 1.1914293 2.0260324 234 88 12
0.15314128 1.2296288 2.2605698 234 88 12
0.1530301 1.2460749 2.3640838 234 88 12
0.15204772 1.2433343 2.3460624 234 88 12
0.14068425 1.2181871 2.1788895 234 88 12
0.13767399 1.2152594 2.1581266 234 88 12
0.13604967 1.2160945 2.1621344 234 88 12
0.13441697 1.2147485 2.1523964 234 88 12
0.12402027 1.2062192 2.0906506 234 88 12
0.11561102 1.1974057 2.0286479 234 88 12
0.11279178 1.1955436 2.014744 234 88 12
0.1066257 1.1915534 1.9848534 234 88 12
0.10504853 1.1917464 1.9848534 234 88 12
0.1092782 1.2028391 2.0579922 234 88 12
0.10665447 1.2031603 2.0579922 234 88 12
0.17485107 1.2329707 2.2956057 234 88 12
0.21148941 1.1941738 2.0745499 234 88 12
0.21550499 1.10996 1.5351722 234 88 12
0.21230209 1.110352 1.5351722 234 88 12
0.17119603 1.1914715 2.0253663 234 88 12
0.16308101 1.2048329 2.1050477 234 88 12
0.1604979 1.2135912 2.1594362 234 88 12
0.15919103 1.2162195 2.1753387 234 88 12
0.15746509 1.2044863 2.0983858 234 88 12
0.15378092 1.2300696 2.2603006 234 88 12
0.15312771 1.22527 2.2288647 234 88 12
0.15316725 1.2440232 2.3497121 234 88 12
0.15334466 1.250918 2.3942714 234 88 12
0.15337895 1.2523882 2.4037704 234 88 12
0.14986174 1.2387563 2.3131738 234 88 12
0.14193873 1.2134552 2.143925 234 88 12
0.13810715 1.2043388 2.0821717 234 88 12
0.14337121 1.224034 2.213208 234 88 12
0.14147145 1.2208998 2.1915176 234 88 12
0.13177365 1.2122548 2.1281753 234 88 12
0.12335172 1.2059879 2.0811605 234 88 12
0.12282186 1.2169491 2.1513591 234 88 12
0.082193896 1.1726723 1.8340708 234 88 12
0.093560815 1.2151085 2.1164274 234 88 12
0.17848992 1.1918631 2.0247002 234 88 12
0.16909114 1.204528 2.1005998 234 88 12
0.16491088 1.2152507 2.1679082 234 88 12
0.16278015 1.2199894 2.1974247 234 88 12
0.15996109 1.2223678 2.2108278 234 88 12
0.15879188 1.2140586 2.1551132 234 88 12
0.15800832 1.2125213 2.1443474 234 88 12
0.15326272 1.2510108 2.3942287 234 88 12
0.15331905 1.2531278 2.4082294 234 88 12
0.1473967 1.2284014 2.2404628 234 88 12
0.1430604 1.2209376 2.1877646 234 88 12
0.14105242 1.2225505 2.1967762 234 88 12
0.1340885 1.215377 2.1438725 234 88 12
0.12830612 1.2108924 2.1096466 234 88 12
0.11971673 1.2010976 2.0381517 234 88 12
0.12016365 1.206107 2.071533 234 88 12
0.097592488 1.1794039 1.8773036 234 88 12
0.12843116 1.2221915 2.1842265 234 88 12
0.084544465 1.1742922 1.8330815 234 88 12
0.21619992 1.1156375 1.5321838 234 88 12
0.16609088 1.2154062 2.1639824 234 88 12
0.16155578 1.2277833 2.243751 234 88 12
0.15865539 1.2324215 2.2726521 234 88 12
0.15482447 1.2487459 2.3796358 234 88 12
0.15679373 1.2255073 2.2244608 234 88 12
0.1537953 1.2394125 2.3158097 234 88 12
0.15315945 1.2157779 2.1558111 234 88 12
0.14244111 1.2194253 2.1715693 234 88 12
0.14194556 1.223166 2.1964004 234 88 12
0.11944532 1.2039174 2.0479391 234 88 12
0.11599612 1.2031935 2.0402062 234 88 12
0.15757258 1.2462022 2.3634176 234 88 12
0.1608737 1.2363721 2.2982817 234 88 12
0.1599856 1.2376373 2.3062735 234 88 12
0.1679052 1.2109724 2.1287127 234 88 12
0.16438091 1.2192615 2.1830113 234 88 12
0.15639491 1.2439121 2.3465967 234 88 12
0.15832849 1.234538 2.2834549 234 88 12
0.15439296 1.249884 2.3861704 234 88 12
0.14872693 1.2345182 2.2751975 234 88 12
0.14510007 1.2282413 2.2287552 234 88 12
0.14375822 1.2302943 2.241807 234 88 12
0.12995832 1.2110631 2.0972445 234 88 12
0.12598032 1.2062502 2.0606208 234 88 12
0.11507455 1.1985016 1.9978532 234 88 12
0.11732124 1.2112586 2.0879071 234 88 12
0.24736217 1.1628946 1.849998 234 88 12
0.15329315 1.2496495 2.3827322 234 88 12
0.15215804 1.2489146 2.3765452 234 88 12
0.11042517 1.1978791 1.979027 234 88 12
0.10576606 1.196449 1.9648641 234 88 12
0.21766005 1.1922065 2.0220358 234 88 12
0.166462 1.2256216 2.2190948 234 88 12
0.14830506 1.2387543 2.2982874 234 88 12
0.13371441 1.2173921 2.1302662 234 88 12
0.12902324 1.2152376 2.1104598 234 88 12
0.12200928 1.2063022 2.0393701 234 88 12
0.11729385 1.2038494 2.0173774 234 88 12
0.10862683 1.1967384 1.9580609 234 88 12
0.24780674 1.1665268 1.8480862 234 88 12
0.16296613 1.2285551 2.2325902 234 88 12
0.15560864 1.2393988 2.3066201 234 88 12
0.143354 1.2287228 2.215966 234 88 12
0.13227487 1.215445 2.1070135 234 88 12
0.10840568 1.1952922 1.9352179 234 88 12
0.24802902 1.1683428 1.8471303 234 88 12
0.17882587 1.2149597 2.1386156 234 88 12
0.17480266 1.2154522 2.1386156 234 88 12
0.16373883 1.2168064 2.1386156 234 88 12
0.15983678 1.2289344 2.2276397 234 88 12
0.13002332 1.2095953 2.051981 234 88 12
0.11803693 1.199842 1.9662427 234 88 12
0.11910036 1.2039992 1.999004 234 88 12
0.2462023 1.1704097 1.8461744 234 88 12
0.15953904 1.2430474 2.3329263 234 88 12
0.19413114 1.214896 2.1376772 234 88 12
0.15294901 1.2227365 2.1602533 234 88 12
0.09255594 1.2251095 2.1113048 234 88 12
0.13371901 1.2267549 2.15939 234 88 12
0.12909265 1.2273213 2.15939 234 88 12
0.09279418 1.2270559 2.1102803 234 88 12
0.24526474 1.1797409 1.8413948 234 88 12
0.21604362 1.2026799 2.0167069 234 88 12
0.15623544 1.2503269 2.3818336 234 88 12
0.14779888 1.2266964 2.1585267 234 88 12
0.21619852 1.2039454 2.0160408 234 88 12
0.17380692 1.2243453 2.1580951 234 88 12
0.16455419 1.2254779 2.1580951 234 88 12
0.15437618 1.2267237 2.1580951 234 88 12
0.15252563 1.2269502 2.1580951 234 88 12
0.14142235 1.2283092 2.1580951 234 88 12
0.12939379 1.2297815 2.1580951 234 88 12
0.2457093 1.183373 1.8394829 234 88 12
0.19679743 1.2199986 2.1348619 234 88 12
0.1877452 1.2211065 2.1348619 234 88 12
0.18532296 1.2120425 2.0446191 234 88 12
0.16753076 1.2267783 2.1572318 234 88 12
0.094368711 1.2308143 2.1082311 234 88 12
0.17873442 1.2262393 2.1568 234 88 12
0.17976008 1.2269462 2.1563683 234 88 12
0.24294502 1.1947711 1.8337474 234 88 12
0.19353801 1.2267313 2.1315773 234 88 12
0.188509 1.2273468 2.1315773 234 88 12
0.12392065 1.2387751 2.1537783 234 88 12
0.10093103 1.2389014 2.1036208 234 88 12
0.18899095 1.2333077 2.1524835 234 88 12
0.10823403 1.2439343 2.1005471 234 88 12
0.13130097 1.2453631 2.1498933 234 88 12
0.11176641 1.2454776 2.0995226 234 88 12
0.19154415 1.2388219 2.1494617 234 88 12
0.11859293 1.2466176 2.0984981 234 88 12
0.19707721 1.2389655 2.1250079 234 88 12
0.078191511 1.22909 1.3485994 234 88 12
0.12981163 1.24722 2.0974734 234 88 12
0.14475669 1.2478781 2.1477351 234 88 12
0.13282026 1.2449775 2.0000541 234 88 12
0.096839257 1.2300913 1.3468964 234 88 12
-1.3377323 1.3187153 1.976395 234 88 12
-1.3166399 1.2996838 1.9183971 234 88 12
-1.2441114 1.2454921 1.7263064 234 88 12
-1.2503253 1.2402345 1.7256086 234 88 12
-1.2421247 1.2506478 1.724213 234 88 12
-1.209064 1.2169859 1.6151066 234 88 12
-1.2120934 1.2139126 1.6151066 234 88 12
-1.2151226 1.2108393 1.6151066 234 88 12
-1.2406611 1.2563193 1.7214218 234 88 12
-1.255599 1.2411642 1.7214218 234 88 12
-1.2153316 1.2150847 1.6121348 234 88 12
-1.2067195 1.2267936 1.6101537 234 88 12
-1.2397209 1.2625066 1.7179328 234 88 12
-1.2273909 1.2087934 1.6081725 234 88 12
-1.2622954 1.2406507 1.717235 234 88 12
-1.3210694 1.2995341 1.915501 234 88 12
-1.2346473 1.231982 1.6527632 234 88 12
-1.2388326 1.2290362 1.6518962 234 88 12
-1.2152157 1.2270889 1.6042103 234 88 12
-1.2332962 1.2359537 1.6510292 234 88 12
-1.2385991 1.2305738 1.6510292 234 88 12
-1.2068706 1.2370412 1.6032196 234 88 12
-1.2149487 1.2288456 1.6032196 234 88 12
-1.217978 1.2257723 1.6032196 234 88 12
-1.2300953 1.2134788 1.6032196 234 88 12
-1.2384046 1.2711688 1.7130482 234 88 12
-1.2073464 1.2395301 1.6012385 234 88 12
-1.233479 1.2396697 1.6484282 234 88 12
-1.2378405 1.2748811 1.7109548 234 88 12
-1.2385519 1.2741594 1.7109548 234 88 12
-1.2388583 1.2120175 1.5982668 234 88 12
-1.2376524 1.2761186 1.7102569 234 88 12
-1.2390752 1.2746753 1.7102569 234 88 12
-1.2404978 1.273232 1.7102569 234 88 12
-1.2387311 1.2395431 1.6449602 234 88 12
-1.2703736 1.2429218 1.7102569 234 88 12
-1.2039921 1.2503623 1.5962857 234 88 12
-1.2508709 1.2285273 1.6440932 234 88 12
-1.2267743 1.2542747 1.6432261 234 88 12
-1.224773 1.2576056 1.6423591 234 88 12
-1.2985152 1.2967476 1.8583405 234 88 12
-1.2981136 1.2976226 1.8580289 234 88 12
-1.204944 1.25534 1.5923234 234 88 12
-1.2463447 1.2133373 1.5923234 234 88 12
-1.2264899 1.2610657 1.6388911 234 88 12
-1.1632842 1.21473 1.4210114 234 88 12
-1.1690805 1.2088494 1.4210114 234 88 12
-1.1748769 1.2029687 1.4210114 234 88 12
-1.2556558 1.2314758 1.6388911 234 88 12
-1.2609587 1.2260958 1.6388911 234 88 12
-1.2508597 1.2117283 1.5903423 234 88 12
-1.1614519 1.2187212 1.4195899 234 88 12
-1.1802903 1.1996089 1.4195899 234 88 12
-1.1889849 1.1907879 1.4195899 234 88 12
-1.1918831 1.1878476 1.4195899 234 88 12
-1.309532 1.2879078 1.8567823 234 88 12
-1.2624927 1.22584 1.6380241 234 88 12
-1.2286741 1.2614508 1.6371571 234 88 12
-1.262259 1.2273775 1.6371571 234 88 12
-1.2800624 1.2425122 1.7039768 234 88 12
-1.1679313 1.2164122 1.4167469 234 88 12
-1.1795242 1.2046508 1.4167469 234 88 12
-1.192566 1.1914192 1.4167469 234 88 12
-1.1660992 1.2204033 1.4153253 234 88 12
-1.1689974 1.2174629 1.4153253 234 88 12
-1.1718955 1.2145226 1.4153253 234 88 12
-1.1805902 1.2057016 1.4153253 234 88 12
-1.1834884 1.2027612 1.4153253 234 88 12
-1.192183 1.1939402 1.4153253 234 88 12
-1.1950812 1.1909999 1.4153253 234 88 12
-1.2037759 1.1821789 1.4153253 234 88 12
-1.2066741 1.1792384 1.4153253 234 88 12
-1.31341 1.285376 1.8558474 234 88 12
-1.239664 1.2866381 1.7018833 234 88 12
-1.2151927 1.2553431 1.5853894 234 88 12
-1.2160516 1.1739892 1.4124821 234 88 12
-1.2754655 1.2191811 1.633689 234 88 12
-1.10209 1.0784301 0.94823778 234 88 12
-1.1073347 1.0731093 0.94823778 234 88 12
-1.109957 1.0704488 0.94823778 234 88 12
-1.2268783 1.1672696 1.4096391 234 88 12
-1.250293 1.2800412 1.6990921 234 88 12
-1.2141249 1.2623696 1.5814271 234 88 12
-1.3321702 1.3159366 1.9565679 234 88 12
-1.2385283 1.2605568 1.631088 234 88 12
-1.1801239 1.216836 1.4082175 234 88 12
-1.1917168 1.2050747 1.4082175 234 88 12
-1.2033095 1.1933132 1.4082175 234 88 12
-1.1128285 1.0788093 0.96171427 234 88 12
-1.2163515 1.1800817 1.4082175 234 88 12
-1.2279444 1.1683204 1.4082175 234 88 12
-1.2394351 1.2921036 1.6983943 234 88 12
-1.245837 1.2856086 1.6983943 234 88 12
-1.2508163 1.280557 1.6983943 234 88 12
-1.2148678 1.2631018 1.5804365 234 88 12
-1.2158775 1.2620773 1.5804365 234 88 12
-1.2168874 1.2610528 1.5804365 234 88 12
-1.1059482 1.0822331 0.94309282 234 88 12
-1.2967746 1.273775 1.7855498 234 88 12
-1.1224725 1.0728238 0.95918179 234 88 12
-1.1216822 1.0662704 0.94309282 234 88 12
-1.2267182 1.252565 1.579446 234 88 12
-1.0971484 1.1641827 1.0934281 234 88 12
-1.1104996 1.0814741 0.94052041 234 88 12
-1.2971357 1.2741309 1.7850683 234 88 12
-1.2976265 1.273633 1.7850683 234 88 12
-1.238771 1.1616008 1.4053744 234 88 12
1.3126278 -1.3331335 1.9592346 234 88 12
1.3129693 -1.3327968 1.9592346 234 88 12
1.2283337 -1.2580098 1.6947024 234 88 12
1.2263085 -1.2622586 1.6931788 234 88 12
1.2389141 -1.2498336 1.6931788 234 88 12
1.2268716 -1.2628299 1.692417 234 88 12
1.311455 -1.3309001 1.9518723 234 88 12
1.2386894 -1.2511815 1.692417 234 88 12
1.2186571 -1.2765582 1.6886081 234 88 12
1.3190076 -1.3381758 1.9769723 234 88 12
1.2528732 -1.245085 1.6870844 234 88 12
1.2148314 -1.283708 1.6863226 234 88 12
1.2156192 -1.2829314 1.6863226 234 88 12
1.2250735 -1.2736126 1.6863226 234 88 12
1.227437 -1.2712829 1.6863226 234 88 12
1.2138188 -1.2858324 1.6855608 234 88 12
1.2269876 -1.2739786 1.684799 234 88 12
1.214945 -1.2869749 1.6840372 234 88 12
1.2389189 -1.2655971 1.6825136 234 88 12
1.2595991 -1.2692791 1.7292492 234 88 12
1.2063922 -1.2987841 1.6817518 234 88 12
1.262729 -1.267143 1.7286073 234 88 12
1.3113841 -1.3363124 1.9579136 234 88 12
1.2577031 -1.2739952 1.7273234 234 88 12
1.2003262 -1.3012856 1.6558473 234 88 12
1.2036999 -1.2979602 1.6558473 234 88 12
1.2045434 -1.2971288 1.6558473 234 88 12
1.2032431 -1.3097721 1.6764193 234 88 12
1.2268788 -1.2864752 1.6764193 234 88 12
1.2386966 -1.2748268 1.6764193 234 88 12
1.2740172 -1.2626601 1.7241137 234 88 12
1.2625417 -1.2749203 1.7234718 234 88 12
1.2035815 -1.3116913 1.6748956 234 88 12
1.2067329 -1.308585 1.6748956 234 88 12
1.2209142 -1.2946068 1.6748956 234 88 12
1.2272171 -1.2883943 1.6748956 234 88 12
1.2303685 -1.2852881 1.6748956 234 88 12
1.2390349 -1.2767459 1.6748956 234 88 12
1.2421863 -1.2736396 1.6748956 234 88 12
1.2153891 -1.2912616 1.6525851 234 88 12
1.2571234 -1.3191345 1.8006523 234 88 12
1.0174979 -1.1591504 0.93072921 234 88 12
1.0287189 -1.153164 0.94187051 234 88 12
1.2599819 -1.2802908 1.7215459 234 88 12
1.2626374 -1.2776732 1.7215459 234 88 12
1.2666208 -1.2737471 1.7215459 234 88 12
1.2739235 -1.2665489 1.7215459 234 88 12
1.2785708 -1.2619683 1.7215459 234 88 12
1.1997259 -1.309112 1.650954 234 88 12
1.2030996 -1.3057865 1.650954 234 88 12
1.2123775 -1.2966416 1.650954 234 88 12
1.2149079 -1.2941475 1.650954 234 88 12
1.0279572 -1.1577321 0.93928856 234 88 12
1.149987 -1.2258092 1.3572912 234 88 12
1.2003287 -1.3097235 1.6501385 234 88 12
1.2564003 -1.3211633 1.799762 234 88 12
1.0214684 -1.171478 0.94463074 234 88 12
1.0269837 -1.1578863 0.92633826 234 88 12
1.037828 -1.1603879 0.95592409 234 88 12
1.221207 -1.2637022 1.5930727 234 88 12
1.3502573 1.3543706 1.7033406 234 88 12
1.3487409 1.3565106 1.7028681 234 88 12
1.3568655 1.3527521 1.6995606 234 88 12
1.3055416 1.3114036 1.5628192 234 88 12
1.3146015 1.3169482 1.5817827 234 88 12
1.3587152 1.3527737 1.6981431 234 88 12
1.3564299 1.3550589 1.6981431 234 88 12
1.3112241 1.3213931 1.580974 234 88 12
1.2974728 1.321758 1.5610877 234 88 12
1.3486602 1.3628286 1.6981431 234 88 12
1.3180157 1.3156691 1.5801654 234 88 12
1.3125402 1.3211447 1.5801654 234 88 12
1.3086289 1.3250558 1.5801654 234 88 12
1.2972069 1.323167 1.5602219 234 88 12
1.3444017 1.3677108 1.6976707 234 88 12
1.3442565 1.3684797 1.6971982 234 88 12
1.3026564 1.3331634 1.578548 234 88 12
1.289138 1.3335214 1.5584904 234 88 12
1.3211814 1.3157059 1.5777392 234 88 12
1.2911183 1.3338268 1.556759 234 88 12
1.3176497 1.3084382 1.5558932 234 88 12
1.3759866 1.3731065 1.7442108 234 88 12
1.3220373 1.3212551 1.5728872 234 88 12
1.3103038 1.3329885 1.5728872 234 88 12
1.2985704 1.3447219 1.5728872 234 88 12
1.3230191 1.3087829 1.5515645 234 88 12
1.2972912 1.3481362 1.5712698 234 88 12
1.2875813 1.3453635 1.5506988 234 88 12
1.3500947 1.3624545 1.6770169 234 88 12
1.326022 1.3236754 1.568035 234 88 12
1.3205465 1.329151 1.568035 234 88 12
1.3135064 1.3361911 1.568035 234 88 12
1.308813 1.3408844 1.568035 234 88 12
1.3049018 1.3447956 1.568035 234 88 12
1.2970796 1.3526179 1.568035 234 88 12
1.3343781 1.3163868 1.5672263 234 88 12
1.2950182 1.3568143 1.5664176 234 88 12
1.3682969 1.3550427 1.6891656 234 88 12
1.3317776 1.3091671 1.5446385 234 88 12
1.3805118 1.3725117 1.7412335 234 88 12
1.3331864 1.3089012 1.5437727 234 88 12
1.166407 1.0961949 0.87208188 234 88 12
1.3547478 1.3611749 1.6744612 234 88 12
1.3099173 1.3451177 1.5639915 234 88 12
1.2981839 1.3568511 1.5639915 234 88 12
1.1413509 1.1283486 0.86670506 234 88 12
1.3569057 1.3603665 1.673439 234 88 12
1.1769311 1.0963172 0.86401665 234 88 12
1.4031401 1.4072659 1.8411119 234 88 12
1.3371469 1.309512 1.5403098 234 88 12
1.3216876 1.33655 1.5615655 234 88 12
-0.31201556 2.1125672 -1.1806147 234 88 12
