ply
format ascii 1.0
element vertex 85
property float x
property float y
property float z
property uchar red
property uchar green
property uchar blue
end_header
-0.7894932 -2.0129857 -0.59768856 234 88 12
-0.7788012 -2.0170221 -0.59768856 234 88 12
-0.77345526 -2.0190406 -0.59768856 234 88 12
-0.76989126 -2.020386 -0.59768856 234 88 12
-1.9293044 0.39638653 -1.076333 234 88 12
-1.9305443 0.38886905 -1.076333 234 88 12
-1.9308542 0.38698965 -1.076333 234 88 12
-1.9256244 0.3919186 -1.0825827 234 88 12
-1.9262443 0.38815984 -1.0825827 234 88 12
-1.266556 -1.1978656 -1.4011993 234 88 12
-1.2638623 -1.2005594 -1.4011993 234 88 12
-1.2637988 -1.1951085 -1.4053766 234 88 12
-1.2584114 -1.200496 -1.4053766 234 88 12
-1.2570646 -1.2018429 -1.4053766 234 88 12
-1.2565733 -1.1986579 -1.4081614 234 88 12
-1.2480009 -1.2035542 -1.4109462 234 88 12
0.32716894 -1.9075937 -1.1232051 234 88 12
0.33280706 -1.9066639 -1.1232051 234 88 12
0.3174175 -1.9069936 -1.1263299 234 88 12
0.34184933 -1.902964 -1.1263299 234 88 12
0.33192056 -1.9012889 -1.1310171 234 88 12
0.32422578 -1.9014539 -1.1325794 234 88 12
0.32610518 -1.9011438 -1.1325794 234 88 12
0.33174327 -1.900214 -1.1325794 234 88 12
-1.1614158 1.2529182 -1.4536815 234 88 12
-1.166842 1.2475698 -1.4536815 234 88 12
-1.1590897 1.2532717 -1.4549931 234 88 12
-1.1588942 1.2476466 -1.4589282 234 88 12
-1.1492027 1.2513812 -1.4628632 234 88 12
-1.1519158 1.2487069 -1.4628632 234 88 12
-1.1532724 1.2473699 -1.4628632 234 88 12
-1.1486201 1.2480768 -1.4654866 234 88 12
-1.133445 -0.080204032 -1.9231288 234 88 12
-1.130325 -0.077903166 -1.9248929 234 88 12
-1.1300936 -0.079793818 -1.9248929 234 88 12
-1.1212522 -0.082549587 -1.9293032 234 88 12
-1.1207335 -0.07289122 -1.9301852 234 88 12
-1.1188264 -0.074576765 -1.9310672 234 88 12
-1.1183635 -0.078358069 -1.9310672 234 88 12
-0.14462027 -1.0796382 -1.9469441 234 88 12
-0.135167 -1.0807953 -1.9469441 234 88 12
-0.14630581 -1.077731 -1.9478261 234 88 12
-0.12530354 -1.0786009 -1.9487082 234 88 12
-0.14190918 -1.0731667 -1.9504722 234 88 12
-0.13623723 -1.073861 -1.9504722 234 88 12
-0.12489332 -1.0752494 -1.9504722 234 88 12
-0.13981342 -1.0717224 -1.9513543 234 88 12
-0.13603212 -1.0721853 -1.9513543 234 88 12
1.2079473 -1.1224382 -1.510084 234 88 12
1.2092843 -1.1210817 -1.510084 234 88 12
1.2056265 -1.1228253 -1.5113958 234 88 12
1.2083007 -1.1201121 -1.5113958 234 88 12
1.2096379 -1.1187556 -1.5113958 234 88 12
1.1986642 -1.1239862 -1.5153308 234 88 12
1.198034 -1.1206906 -1.5179542 234 88 12
1.1910717 -1.1218516 -1.5218893 234 88 12
1.1924088 -1.1204951 -1.5218893 234 88 12
1.2392218 1.3052185 -1.3396983 234 88 12
1.2378749 1.3065653 -1.3396983 234 88 12
1.236528 1.3079121 -1.3396983 234 88 12
-0.047689889 1.3818983 -1.7617738 234 88 12
-0.049592853 1.3818156 -1.7617738 234 88 12
-0.059038147 1.3798029 -1.7628065 234 88 12
-0.03979994 1.3758332 -1.7659045 234 88 12
-0.04931476 1.3754195 -1.7659045 234 88 12
-0.058829583 1.3750058 -1.7659045 234 88 12
-0.062635511 1.3748404 -1.7659045 234 88 12
-0.039730418 1.3742342 -1.7669373 234 88 12
-0.049245238 1.3738205 -1.7669373 234 88 12
0.010476191 0.059999999 -2.23 234 88 12
0.0085714282 0.059999999 -2.23 234 88 12
-0.00095238094 0.059999999 -2.23 234 88 12
0.014285714 0.058095239 -2.23 234 88 12
0.0085714282 0.058095239 -2.23 234 88 12
-0.00095238094 0.058095239 -2.23 234 88 12
1.3375952 0.0019003697 -1.7917215 234 88 12
1.3342317 -0.0017665136 -1.7937869 234 88 12
1.3343145 0.00013645057 -1.7937869 234 88 12
1.3326327 -0.001696991 -1.7948196 234 88 12
1.3327154 0.00020597311 -1.7948196 234 88 12
1.3283321 0.0099293618 -1.7979176 234 88 12
1.3245549 -0.0032523423 -1.7999829 234 88 12
1.3247204 0.00055358582 -1.7999829 234 88 12
1.3181587 -0.0029742522 -1.8041136 234 88 12
1.3183243 0.00083167601 -1.8041136 234 88 12
