ply
format ascii 1.0
element vertex 2199
property float x
property float y
property float z
property uchar red
property uchar green
property uchar blue
end_header
-3.4676592 -2.4556904 -1.2845517 234 88 12
-3.4605701 -2.4292102 -1.2769622 234 88 12
-3.4658847 -2.4095573 -1.2790995 234 88 12
-3.4772568 -2.3931382 -1.2859778 234 88 12
-3.4824517 -2.3733406 -1.2880143 234 88 12
-3.5002401 -2.3601756 -1.2998993 234 88 12
-3.5484805 -2.3628194 -1.3355788 234 88 12
-3.4933624 -2.4780419 -1.3295479 234 88 12
-3.4641948 -2.4392009 -1.3044647 234 88 12
-3.4638531 -2.4163644 -1.3021452 234 88 12
-3.4686403 -2.3963251 -1.3038715 234 88 12
-3.4772227 -2.3782954 -1.3085856 234 88 12
-3.494102 -2.364608 -1.3198283 234 88 12
-3.5410757 -2.3665984 -1.3547428 234 88 12
-3.4663029 -2.448432 -1.3309979 234 88 12
-3.4624734 -2.4235842 -1.3258845 234 88 12
-3.4659667 -2.4027641 -1.3265877 234 88 12
-3.473448 -2.3840756 -1.3304533 234 88 12
-3.4862468 -2.3681688 -1.3385295 234 88 12
-3.5207191 -2.3635881 -1.3637676 234 88 12
-3.4699502 -2.4357171 -1.3568877 234 88 12
-3.4663298 -2.4109068 -1.3519011 234 88 12
-3.4689481 -2.3895154 -1.3519011 234 88 12
-3.4832156 -2.3743393 -1.3611969 234 88 12
-3.5069776 -2.3640711 -1.3780546 234 88 12
-3.4822903 -2.4276137 -1.3899637 234 88 12
-3.4781709 -2.4024143 -1.3845327 234 88 12
-3.484956 -2.3831167 -1.3878673 234 88 12
-3.6095388 -2.2534468 -0.7630139 234 88 12
-3.5690603 -2.2463677 -0.76978552 234 88 12
-3.5487409 -2.2458162 -0.78454715 234 88 12
-3.5321338 -2.246465 -0.80077261 234 88 12
-3.5721214 -2.2657161 -0.84047663 234 88 12
-3.5906579 -2.251117 -0.84967715 234 88 12
-3.5708654 -2.2714717 -0.86330187 234 88 12
-3.5880544 -2.2564163 -0.87202919 234 88 12
-3.5692346 -2.2771273 -0.88605946 234 88 12
-3.5836794 -2.2611566 -0.89371097 234 88 12
-3.7146053 -2.1547322 -0.96023118 234 88 12
-3.7155852 -2.1335902 -0.96223235 234 88 12
-3.7194662 -2.11327 -0.96547252 234 88 12
-3.7293017 -2.0946295 -0.97125638 234 88 12
-3.7382851 -2.0756452 -0.9766838 234 88 12
-3.5620234 -2.2809532 -0.90651911 234 88 12
-3.5848324 -2.2677302 -0.91782463 234 88 12
-3.6161766 -2.2570906 -0.93279892 234 88 12
-3.6255412 -2.2391372 -0.93837512 234 88 12
-3.6341066 -2.2208362 -0.94361562 234 88 12
-3.6475317 -2.2039735 -0.95094752 234 88 12
-3.6515369 -2.1840625 -0.95424515 234 88 12
-3.6632483 -2.1664608 -0.96085685 234 88 12
-3.6715832 -2.1477237 -0.96602565 234 88 12
-3.6790931 -2.1286521 -0.9708463 234 88 12
-3.6932774 -2.1114748 -0.97854501 234 88 12
-3.700557 -2.0921488 -0.98328036 234 88 12
-3.7111406 -2.0736966 -0.98944533 234 88 12
-3.7292495 -2.0572853 -0.99886239 234 88 12
-3.5524008 -2.2839873 -0.9259811 234 88 12
-3.5792971 -2.2721291 -0.9391613 234 88 12
-3.5925708 -2.2556112 -0.9464696 234 88 12
-3.6032081 -2.2381213 -0.95264661 234 88 12
-3.613405 -2.2203882 -0.95864099 234 88 12
-3.6188877 -2.2010691 -0.96260113 234 88 12
-3.6296482 -2.1833282 -0.96885347 234 88 12
-3.6405888 -2.1655378 -0.97519171 234 88 12
-3.6467531 -2.1461885 -0.97946554 234 88 12
-3.6568067 -2.1279366 -0.98543346 234 88 12
-3.6625748 -2.1083121 -0.98954701 234 88 12
-3.6785929 -2.0916252 -0.99812168 234 88 12
-3.6946356 -2.0748017 -1.0067179 234 88 12
-3.716253 -2.0594287 -1.0177516 234 88 12
-3.5273826 -2.2818816 -0.93875718 234 88 12
-3.5618641 -2.2726095 -0.95536739 234 88 12
-3.5714924 -2.254935 -0.96115309 234 88 12
-3.5801375 -2.2368464 -0.96651685 234 88 12
-3.5911422 -2.2194238 -0.97291827 234 88 12
-3.6024649 -2.2019956 -0.97946686 234 88 12
-3.6117637 -2.1838262 -0.98513824 234 88 12
-3.62642 -2.1672175 -0.9931621 234 88 12
-3.6322639 -2.1477854 -0.99733591 234 88 12
-3.6370978 -2.1279793 -1.0010723 234 88 12
-3.6482458 -2.1099925 -1.0075828 234 88 12
-3.6765957 -2.096961 -1.0216508 234 88 12
-3.6913257 -2.0797358 -1.0297556 234 88 12
-3.5148759 -2.2839444 -0.95693463 234 88 12
-3.5403471 -2.2717247 -0.96973562 234 88 12
-3.5536885 -2.2553148 -0.97720939 234 88 12
-3.5627122 -2.2373812 -0.98278928 234 88 12
-3.5738244 -2.220026 -0.98929751 234 88 12
-3.5848947 -2.2025502 -0.99579543 234 88 12
-3.603205 -2.187238 -1.005499 234 88 12
-3.6231549 -2.1722741 -1.0159392 234 88 12
-3.6216125 -2.1505547 -1.0168893 234 88 12
-3.6311398 -2.13217 -1.0227383 234 88 12
-3.5051446 -2.2869408 -0.97634476 234 88 12
-3.5267279 -2.2734487 -0.98753935 234 88 12
-3.5393019 -2.2568085 -0.99474204 234 88 12
-3.546823 -2.2384057 -0.99970555 234 88 12
-3.5538197 -2.219753 -1.0044417 234 88 12
-3.560921 -2.2010562 -1.0092306 234 88 12
-3.5009673 -2.2918181 -0.99826759 234 88 12
-3.5141599 -2.2755218 -1.0058059 234 88 12
-3.5266984 -2.2588873 -1.0130602 234 88 12
-3.5341952 -2.2404885 -1.0180593 234 88 12
-3.5396297 -2.2213428 -1.022138 234 88 12
-3.5492826 -2.2034779 -1.0281188 234 88 12
-3.4851079 -2.2927577 -1.0149746 234 88 12
-3.505955 -2.2790561 -1.0260478 234 88 12
-3.5204754 -2.2630801 -1.0342689 234 88 12
-3.5386336 -2.2481642 -1.0441494 234 88 12
-3.4760544 -2.2960024 -1.0347617 234 88 12
-3.5548699 -2.3017981 -1.0724268 234 88 12
-3.4669862 -2.2992496 -1.054571 234 88 12
-3.5455916 -2.3050532 -1.0924885 234 88 12
-3.4892955 -2.3132348 -1.0890038 234 88 12
-3.4917464 -2.2932382 -1.0918376 234 88 12
-3.4766791 -2.3153157 -1.1073405 234 88 12
-3.4791167 -2.2953212 -1.1101938 234 88 12
-3.4724772 -2.3202929 -1.1296624 234 88 12
-3.4791985 -2.3017333 -1.1345747 234 88 12
-3.5078328 -2.3389509 -1.1709626 234 88 12
-3.5363486 -2.3276734 -1.1863573 234 88 12
-3.5059702 -2.3448222 -1.1947286 234 88 12
-3.5374687 -2.3345635 -1.2117047 234 88 12
-3.5031083 -2.3503709 -1.2181023 234 88 12
-3.531625 -2.3390901 -1.2337825 234 88 12
-3.4940374 -2.3537767 -1.2385143 234 88 12
-3.5269098 -2.3440223 -1.2564756 234 88 12
-3.4910772 -2.3593297 -1.2619853 234 88 12
-3.5275757 -2.350836 -1.281907 234 88 12
-3.4870002 -2.3645132 -1.2849847 234 88 12
-3.5258861 -2.3568628 -1.3062795 234 88 12
-3.4832723 -2.3698401 -1.3082372 234 88 12
-3.5082507 -2.3573577 -1.3227078 234 88 12
-3.4808898 -2.375664 -1.3322545 234 88 12
-3.4962437 -2.3598099 -1.3419582 234 88 12
-3.478143 -2.3813832 -1.3561785 234 88 12
-3.4898844 -2.3642459 -1.364116 234 88 12
-3.4806747 -2.3890047 -1.3829246 234 88 12
-3.4937723 -2.3723052 -1.3916386 234 88 12
-3.6832373 -2.3681674 -0.7065984 234 88 12
-3.697104 -2.3487241 -0.70498371 234 88 12
-3.7185175 -2.3348293 -0.70716077 234 88 12
-3.6413853 -2.3637903 -0.71755469 234 88 12
-3.6373286 -2.3311214 -0.70681947 234 88 12
-3.6486878 -2.3100359 -0.70397645 234 88 12
-3.665633 -2.2930911 -0.70397645 234 88 12
-3.7233341 -2.305649 -0.72451389 234 88 12
-3.6144814 -2.340759 -0.72729039 234 88 12
-3.6232572 -2.3176973 -0.72307485 234 88 12
-3.6384816 -2.2994702 -0.72218877 234 88 12
-3.6554313 -2.2825205 -0.72218877 234 88 12
-3.7104859 -2.2931311 -0.74156547 234 88 12
-3.5829453 -2.3439245 -0.74330074 234 88 12
-3.5934556 -2.3221307 -0.73993963 234 88 12
-3.6106138 -2.3053331 -0.7400471 234 88 12
-3.6281357 -2.2888 -0.74034154 234 88 12
-3.6462944 -2.2727242 -0.74096203 234 88 12
-3.4492719 -2.635036 -0.81514907 234 88 12
-3.4597378 -2.612047 -0.81138372 234 88 12
-3.4768915 -2.5946276 -0.81130391 234 88 12
-3.4970238 -2.5796316 -0.81284827 234 88 12
-3.5454948 -2.3425786 -0.75614715 234 88 12
-3.5566587 -2.3212945 -0.75310433 234 88 12
-3.5708783 -2.302357 -0.75168562 234 88 12
-3.5905559 -2.2874873 -0.75313133 234 88 12
-3.6159985 -2.2768145 -0.75757217 234 88 12
-3.6435974 -2.2676115 -0.76310331 234 88 12
-3.4274411 -2.614886 -0.82749373 234 88 12
-3.4435782 -2.596647 -0.8268559 234 88 12
-3.4578938 -2.5769315 -0.82521707 234 88 12
-3.4751678 -2.5596576 -0.82521707 234 88 12
-3.4962833 -2.5454812 -0.82732302 234 88 12
-3.5186913 -2.349257 -0.77457196 234 88 12
-3.5282176 -2.3266921 -0.77061492 234 88 12
-3.541111 -2.3067441 -0.76847398 234 88 12
-3.5572453 -2.2892578 -0.7680636 234 88 12
-3.5753212 -2.2732155 -0.76868081 234 88 12
-3.5976298 -2.2602618 -0.77151996 234 88 12
-3.63778 -2.2602189 -0.783692 234 88 12
-3.4111745 -2.5993719 -0.84285903 234 88 12
-3.4265761 -2.5805557 -0.84181315 234 88 12
-3.4417 -2.5615368 -0.84061992 234 88 12
-3.4585116 -2.543916 -0.84037209 234 88 12
-3.4754262 -2.5263839 -0.8401829 234 88 12
-3.4910817 -2.5078497 -0.83930123 234 88 12
-3.5075238 -2.4899595 -0.83885753 234 88 12
-3.5247705 -2.4727125 -0.83885753 234 88 12
-3.5055277 -2.3364737 -0.79123056 234 88 12
-3.5142369 -2.3133049 -0.78680134 234 88 12
-3.5288024 -2.2946281 -0.78554195 234 88 12
-3.54566 -2.2776852 -0.78551579 234 88 12
-3.5628536 -2.2609909 -0.78566873 234 88 12
-3.5842516 -2.2473726 -0.78805184 234 88 12
-3.4027059 -2.5903435 -0.86259377 234 88 12
-3.4143848 -2.5684364 -0.85943156 234 88 12
-3.4288261 -2.5488625 -0.85784465 234 88 12
-3.4413679 -2.5277832 -0.85520518 234 88 12
-3.4590826 -2.5109298 -0.85547155 234 88 12
-3.4751492 -2.492754 -0.85481936 234 88 12
-3.4910319 -2.474447 -0.85406995 234 88 12
-3.5068269 -2.4560881 -0.85327721 234 88 12
-3.5233722 -2.4383326 -0.85290313 234 88 12
-3.541219 -2.4215925 -0.85324526 234 88 12
-3.5595579 -2.4052229 -0.85385406 234 88 12
-3.4979618 -2.3279555 -0.81092232 234 88 12
-3.5052824 -2.3037179 -0.8056922 234 88 12
-3.5176528 -2.2833815 -0.80322933 234 88 12
-3.5344095 -2.2663615 -0.80314791 234 88 12
-3.5518205 -2.2498257 -0.80341846 234 88 12
-3.6083856 -2.2619352 -0.82465035 234 88 12
-3.4123685 -2.5332584 -0.87302566 234 88 12
-3.4291344 -2.5156386 -0.87275922 234 88 12
-3.4461176 -2.4981995 -0.87261695 234 88 12
-3.4622405 -2.4800766 -0.87199289 234 88 12
-3.4777794 -2.4615054 -0.87104678 234 88 12
-3.4934762 -2.4430795 -0.87019521 234 88 12
-3.5103438 -2.4255855 -0.86999971 234 88 12
-3.5264421 -2.407501 -0.86937994 234 88 12
-3.5437675 -2.3903716 -0.86944109 234 88 12
-3.4891899 -2.3185151 -0.82999021 234 88 12
-3.4974663 -2.2949877 -0.82523161 234 88 12
-3.512567 -2.2766764 -0.82422978 234 88 12
-3.5270567 -2.2579334 -0.82290262 234 88 12
-3.5861692 -2.2721083 -0.84577024 234 88 12
-3.6088614 -2.2591565 -0.84880948 234 88 12
-3.402401 -2.5229633 -0.89187318 234 88 12
-3.4173737 -2.5038776 -0.89057797 234 88 12
-3.434309 -2.4864004 -0.89040726 234 88 12
-3.4504726 -2.4683111 -0.88980091 234 88 12
-3.4659305 -2.4496765 -0.88880062 234 88 12
-3.4813764 -2.4310548 -0.88780046 234 88 12
-3.4972389 -2.41278 -0.88704085 234 88 12
-3.5140944 -2.3952899 -0.886841 234 88 12
-3.530623 -2.3775532 -0.88646054 234 88 12
-3.4869816 -2.3140633 -0.85272449 234 88 12
-3.497122 -2.2918904 -0.84893537 234 88 12
-3.5102932 -2.2720683 -0.84684092 234 88 12
-3.5614018 -2.2804565 -0.86557674 234 88 12
-3.5825751 -2.2663922 -0.86781543 234 88 12
-3.6094072 -2.2564135 -0.87312257 234 88 12
-3.4396851 -2.4573269 -0.90816873 234 88 12
-3.454469 -2.438154 -0.90677392 234 88 12
-3.4697976 -2.4194396 -0.90569794 234 88 12
-3.4853952 -2.4009581 -0.9047814 234 88 12
-3.4971142 -2.3795016 -0.90168685 234 88 12
-3.5111644 -2.359899 -0.89992231 234 88 12
-3.498111 -2.3197372 -0.88301069 234 88 12
-3.5032091 -2.2936282 -0.87633342 234 88 12
-3.5202456 -2.2765918 -0.87633342 234 88 12
-3.5682957 -2.2825613 -0.89350075 234 88 12
-3.5887368 -2.2678449 -0.89532 234 88 12
-3.6307461 -2.2688315 -0.90898407 234 88 12
-3.4286573 -2.4461505 -0.92640799 234 88 12
-3.4441938 -2.4275694 -0.92543149 234 88 12
-3.4592156 -2.4086058 -0.92416734 234 88 12
-3.4740505 -2.3895245 -0.92280555 234 88 12
-3.4853818 -2.3677692 -0.91946244 234 88 12
-3.4849246 -2.3370621 -0.90946782 234 88 12
-3.4920976 -2.312367 -0.90384841 234 88 12
-3.5091951 -2.2952693 -0.90384841 234 88 12
-3.5418029 -2.2897613 -0.91253942 234 88 12
-3.5715847 -2.2819715 -0.91959238 234 88 12
-3.5940874 -2.2686789 -0.92254615 234 88 12
-3.6334763 -2.2676375 -0.93484437 234 88 12
-3.6526656 -2.2517231 -0.93589461 234 88 12
-3.4173138 -2.4347219 -0.944471 234 88 12
-3.4330971 -2.4163339 -0.94362801 234 88 12
-3.4484591 -2.397634 -0.94254786 234 88 12
-3.4630213 -2.3783357 -0.94101501 234 88 12
-3.4785519 -2.3598175 -0.94004816 234 88 12
-3.4829314 -2.3327901 -0.93271858 234 88 12
-3.4913352 -2.3089747 -0.92773098 234 88 12
-3.5084708 -2.2918391 -0.92773098 234 88 12
-3.5405464 -2.2858577 -0.93617588 234 88 12
-3.5738623 -2.2806146 -0.94526106 234 88 12
-3.5997443 -2.269717 -0.95011044 234 88 12
-3.6190941 -2.253957 -0.95127219 234 88 12
-3.6363552 -2.2366629 -0.95126152 234 88 12
-3.6542983 -2.2198579 -0.95162994 234 88 12
-3.6738038 -2.2041562 -0.95286089 234 88 12
-3.6929765 -2.1881938 -0.95389992 234 88 12
-3.7130158 -2.172816 -0.95540851 234 88 12
-3.7316899 -2.1564598 -0.95615858 234 88 12
-3.4227896 -2.4057207 -0.96229255 234 88 12
-3.4385712 -2.3873413 -0.9614442 234 88 12
-3.4552279 -2.3696599 -0.96110952 234 88 12
-3.4724591 -2.3524287 -0.96110952 234 88 12
-3.4797039 -2.3275638 -0.95535535 234 88 12
-3.489558 -2.3048005 -0.95113957 234 88 12
-3.511631 -2.2913172 -0.95394474 234 88 12
-3.5477431 -2.2882478 -0.96473545 234 88 12
-3.5714126 -2.2757421 -0.96838123 234 88 12
-3.5893967 -2.2589865 -0.96878242 234 88 12
-3.6063061 -2.2414401 -0.96857446 234 88 12
-3.6230915 -2.2238085 -0.96829808 234 88 12
-3.6401582 -2.2063842 -0.96818125 234 88 12
-3.6569271 -2.1887507 -0.96789896 234 88 12
-3.6740632 -2.171382 -0.96782297 234 88 12
-3.6924171 -2.1548655 -0.96842307 234 88 12
-3.7099874 -2.1377938 -0.96858579 234 88 12
-3.7286398 -2.1214623 -0.96934384 234 88 12
-3.7510316 -2.1076643 -0.97215033 234 88 12
-3.5150487 -2.4134748 -1.0208234 234 88 12
-3.500587 -2.3713872 -1.0021888 234 88 12
-3.4803345 -2.3252747 -0.9803198 234 88 12
-3.4898543 -2.3021858 -0.97584838 234 88 12
-3.5098555 -2.2870688 -0.97745788 234 88 12
-3.538548 -2.2783964 -0.98405504 234 88 12
-3.5607629 -2.2647955 -0.98689359 234 88 12
-3.5775149 -2.2471294 -0.98659235 234 88 12
-3.5942798 -2.2294786 -0.98630047 234 88 12
-3.6108563 -2.2116981 -0.98590368 234 88 12
-3.6275914 -2.1940393 -0.98559928 234 88 12
-3.6416085 -2.1744578 -0.98376566 234 88 12
-3.6579518 -2.1565516 -0.98325068 234 88 12
-3.6763537 -2.1400931 -0.98389107 234 88 12
-3.6937807 -2.1229465 -0.9839834 234 88 12
-3.7110426 -2.1056845 -0.9839834 234 88 12
-3.732229 -2.091095 -0.98615724 234 88 12
-3.7545204 -2.0772073 -0.98892653 234 88 12
-3.5472453 -2.4672217 -1.0754104 234 88 12
-3.5017791 -2.4005053 -1.0381097 234 88 12
-3.4836817 -2.3556459 -1.0171766 234 88 12
-3.4819319 -2.3237095 -1.0059761 234 88 12
-3.4945889 -2.3029172 -1.003271 234 88 12
-3.5130405 -2.2865336 -1.0039587 234 88 12
-3.5332923 -2.271476 -1.0056857 234 88 12
-3.548903 -2.252954 -1.0047177 234 88 12
-3.565861 -2.2354391 -1.0045326 234 88 12
-3.5827284 -2.2178624 -1.0042968 234 88 12
-3.5990698 -2.1999114 -1.0037615 234 88 12
-3.6134903 -2.1805985 -1.0021349 234 88 12
-3.6287847 -2.1619387 -1.0010158 234 88 12
-3.6456258 -2.1443892 -1.0007802 234 88 12
-3.6628814 -2.1271336 -1.0007802 234 88 12
-3.6818368 -2.1110535 -1.0017363 234 88 12
-3.6978722 -2.0929513 -1.001049 234 88 12
-3.7151294 -2.0756941 -1.001049 234 88 12
-3.7427213 -2.0654082 -1.0068033 234 88 12
-3.4988053 -2.4267206 -1.071982 234 88 12
-3.4823685 -2.382776 -1.0517248 234 88 12
-3.470175 -2.3425238 -1.0341301 234 88 12
-3.4701362 -2.3119137 -1.0238477 234 88 12
-3.4874232 -2.2946267 -1.0238477 234 88 12
-3.5071537 -2.2791734 -1.0252826 234 88 12
-3.5219812 -2.2600412 -1.0238384 234 88 12
-3.5369124 -2.2410157 -1.0224649 234 88 12
-3.5540712 -2.2236493 -1.0223951 234 88 12
-3.5714226 -2.2064242 -1.0224376 234 88 12
-3.6173193 -2.1503828 -1.0190341 234 88 12
-3.6339464 -2.1326814 -1.0186738 234 88 12
-3.6512024 -2.1154256 -1.0186738 234 88 12
-3.6700585 -2.0992751 -1.0195814 234 88 12
-3.6864951 -2.0814486 -1.0191152 234 88 12
-3.7037535 -2.0641901 -1.0191152 234 88 12
-3.4705527 -2.4020271 -1.0803486 234 88 12
-3.4697757 -2.3703372 -1.0693588 234 88 12
-3.4583373 -2.3306861 -1.0520654 234 88 12
-3.4693348 -2.3084972 -1.0482771 234 88 12
-3.490335 -2.2939487 -1.0504609 234 88 12
-3.5507948 -2.3089385 -1.0760001 234 88 12
-3.5743976 -2.2959924 -1.0796072 234 88 12
-3.5926366 -2.2790158 -1.0800346 234 88 12
-3.5428922 -2.2123063 -1.0406158 234 88 12
-3.4539244 -2.3864248 -1.0956147 234 88 12
-3.4625833 -2.3620799 -1.0902576 234 88 12
-3.4574308 -2.3272419 -1.0766003 234 88 12
-3.4719188 -2.3076463 -1.074856 234 88 12
-3.5079513 -2.3043599 -1.0860392 234 88 12
-3.5465107 -2.3027351 -1.098653 234 88 12
-3.5753098 -2.2935984 -1.1053679 234 88 12
-3.4941187 -2.4467506 -1.1565698 234 88 12
-3.4479694 -2.379153 -1.117378 234 88 12
-3.456867 -2.3549595 -1.1121078 234 88 12
-3.4671619 -2.3319478 -1.1077261 234 88 12
-3.4786053 -2.3099008 -1.1040726 234 88 12
-3.5031269 -2.2977993 -1.1083519 234 88 12
-3.554184 -2.3054724 -1.1285876 234 88 12
-3.4810417 -2.4338799 -1.1743238 234 88 12
-3.4786882 -2.4004619 -1.1618894 234 88 12
-3.4857459 -2.3745775 -1.1553451 234 88 12
-3.4631827 -2.3261168 -1.1306566 234 88 12
-3.4754074 -2.3046172 -1.1274326 234 88 12
-3.502707 -2.2945523 -1.1334234 234 88 12
-3.5794201 -2.3213215 -1.1693947 234 88 12
-3.4748476 -2.4264164 -1.1963772 234 88 12
-3.4773376 -2.3967438 -1.1868447 234 88 12
-3.4878306 -2.3734503 -1.1823559 234 88 12
-3.5054326 -2.3556955 -1.1823024 234 88 12
-3.5252609 -2.339633 -1.183623 234 88 12
-3.5496094 -2.3269501 -1.1877137 234 88 12
-3.4795196 -2.4594183 -1.2366554 234 88 12
-3.4675698 -2.4180958 -1.2178092 234 88 12
-3.4778361 -2.3944533 -1.2130772 234 88 12
-3.4898639 -2.3722675 -1.2094836 234 88 12
-3.5076036 -2.354528 -1.2094836 234 88 12
-3.5308223 -2.3409483 -1.2128936 234 88 12
-3.5586004 -2.3307323 -1.2191066 234 88 12
-3.4666965 -2.446723 -1.2547665 234 88 12
-3.4689476 -2.416559 -1.2448049 234 88 12
-3.4763889 -2.3906355 -1.2382091 234 88 12
-3.4905076 -2.369997 -1.2358824 234 88 12
-3.5119874 -2.355037 -1.2382091 234 88 12
-3.5349064 -2.3411219 -1.2414224 234 88 12
-3.5708036 -2.336906 -1.2527287 234 88 12
-3.4891384 -2.4942853 -1.3072588 234 88 12
-3.456357 -2.4359913 -1.2744716 234 88 12
-3.4670973 -2.4124773 -1.2698731 234 88 12
-3.4771636 -2.3885329 -1.264877 234 88 12
-3.4880073 -2.3652885 -1.2604127 234 88 12
-3.5136466 -2.3534441 -1.265379 234 88 12
-3.5447893 -2.3456719 -1.2737923 234 88 12
-3.4794033 -2.4840198 -1.32766 234 88 12
-3.4536426 -2.4312804 -1.2991533 234 88 12
-3.4644067 -2.4077265 -1.2945088 234 88 12
-3.4771993 -2.3858418 -1.2912071 234 88 12
-3.493346 -2.3666072 -1.2900858 234 88 12
-3.519521 -2.3550546 -1.2953959 234 88 12
-3.5559421 -2.3511572 -1.3072065 234 88 12
-3.4540553 -2.4290276 -1.3259884 234 88 12
-3.4633837 -2.4042704 -1.3203367 234 88 12
-3.4755518 -2.3818307 -1.3165742 234 88 12
-3.4948084 -2.364922 -1.3174343 234 88 12
-3.5270176 -2.3578823 -1.326654 234 88 12
-3.461621 -2.4324036 -1.3576899 234 88 12
-3.4619038 -2.4004447 -1.3459862 234 88 12
-3.4774334 -2.3805451 -1.3443716 234 88 12
-3.4978504 -2.3644361 -1.3459634 234 88 12
-3.5348692 -2.3609574 -1.3583555 234 88 12
-3.4818707 -2.4457562 -1.3980629 234 88 12
-3.4662118 -2.4011314 -1.3755969 234 88 12
-3.4813643 -2.3808317 -1.3736786 234 88 12
-3.5023162 -2.365027 -1.3755969 234 88 12
-3.5426068 -2.3639219 -1.3902003 234 88 12
-3.4897547 -2.3845539 -1.4061381 234 88 12
-3.6965539 -2.3461578 -0.68917203 234 88 12
-3.7043116 -2.3204653 -0.68872017 234 88 12
-3.6435082 -2.3489258 -0.70402682 234 88 12
-3.6427915 -2.3188667 -0.70117468 234 88 12
-3.651509 -2.2939017 -0.70100737 234 88 12
-3.6658626 -2.2718985 -0.7024368 234 88 12
-3.6271977 -2.3713374 -0.72917366 234 88 12
-3.6097164 -2.3321707 -0.72142512 234 88 12
-3.6148226 -2.3053441 -0.72021925 234 88 12
-3.6351111 -2.2866006 -0.72339189 234 88 12
-3.6523037 -2.2661242 -0.72566402 234 88 12
-3.5763037 -2.3451378 -0.7414301 234 88 12
-3.5702689 -2.3123503 -0.73693961 234 88 12
-3.5848765 -2.290755 -0.73851377 234 88 12
-3.6065412 -2.2728462 -0.74214834 234 88 12
-3.6366975 -2.2592735 -0.74825293 234 88 12
-3.5389333 -2.3557703 -0.7601006 234 88 12
-3.539881 -2.3268039 -0.75762725 234 88 12
-3.5456529 -2.300525 -0.75659978 234 88 12
-3.5565913 -2.2770448 -0.75711334 234 88 12
-3.5742676 -2.2571194 -0.7596277 234 88 12
-3.6173851 -2.250473 -0.76968336 234 88 12
-3.4844165 -2.5948319 -0.79596728 234 88 12
-3.5220184 -2.3480222 -0.78199571 234 88 12
-3.5234852 -2.319376 -0.77964562 234 88 12
-3.5321476 -2.2946947 -0.77948081 234 88 12
-3.5432928 -2.2713478 -0.78006679 234 88 12
-3.5567942 -2.2492313 -0.78136188 234 88 12
-3.5892065 -2.2370095 -0.78835011 234 88 12
-3.4401813 -2.6305716 -0.81521845 234 88 12
-3.4417379 -2.6013961 -0.81280506 234 88 12
-3.4513049 -2.5770762 -0.8129034 234 88 12
-3.4632545 -2.5541615 -0.81374508 234 88 12
-3.4787402 -2.5332913 -0.81568599 234 88 12
-3.5057178 -2.519033 -0.8211962 234 88 12
-3.5061958 -2.3408713 -0.80415505 234 88 12
-3.5138261 -2.3156195 -0.80366945 234 88 12
-3.5230322 -2.291235 -0.80366945 234 88 12
-3.5322816 -2.2668738 -0.80368286 234 88 12
-3.5458183 -2.2447872 -0.80500925 234 88 12
-3.6137536 -2.2512534 -0.82296699 234 88 12
-3.4234366 -2.6224871 -0.83714974 234 88 12
-3.4240224 -2.5927644 -0.83439559 234 88 12
-3.4325473 -2.5678678 -0.83416915 234 88 12
-3.4458053 -2.5457778 -0.83544278 234 88 12
-3.4578555 -2.5229387 -0.83633035 234 88 12
-3.4689503 -2.4995153 -0.83691341 234 88 12
-3.485409 -2.4791634 -0.83918583 234 88 12
-3.497587 -2.4562936 -0.84010351 234 88 12
-3.5115583 -2.4344091 -0.84158194 234 88 12
-3.5251858 -2.4122844 -0.84294784 234 88 12
-3.542892 -2.3923824 -0.84558719 234 88 12
-3.4980359 -2.3379371 -0.82864875 234 88 12
-3.5049014 -2.3122633 -0.82791662 234 88 12
-3.5140722 -2.2878594 -0.8279056 234 88 12
-3.5233135 -2.2634938 -0.82791662 234 88 12
-3.5867305 -2.2678866 -0.84476817 234 88 12
-3.6067109 -2.2488997 -0.84808594 234 88 12
-3.418355 -2.6214802 -0.8627758 234 88 12
-3.4142756 -2.5889246 -0.85847455 234 88 12
-3.4235129 -2.5644569 -0.85847455 234 88 12
-3.4282489 -2.5373254 -0.85702747 234 88 12
-3.4363377 -2.5122068 -0.85666114 234 88 12
-3.4513385 -2.4911194 -0.85851079 234 88 12
-3.4658921 -2.4697154 -0.86021155 234 88 12
-3.4805748 -2.4483309 -0.86194819 234 88 12
-3.4950218 -2.4267573 -0.86360407 234 88 12
-3.5076938 -2.4041355 -0.86468965 234 88 12
-3.5220573 -2.3824196 -0.86630946 234 88 12
-3.4954607 -2.3380811 -0.85492295 234 88 12
-3.4982383 -2.310142 -0.85288125 234 88 12
-3.5066512 -2.2853165 -0.85262913 234 88 12
-3.5178869 -2.262012 -0.85326952 234 88 12
-3.5859747 -2.2688804 -0.87184101 234 88 12
-3.6051843 -2.249449 -0.8749609 234 88 12
-3.4184835 -2.5634384 -0.88408816 234 88 12
-3.4170666 -2.5326412 -0.88061118 234 88 12
-3.4262934 -2.5082014 -0.88061118 234 88 12
-3.4380696 -2.485245 -0.88143998 234 88 12
-3.453928 -2.4646165 -0.88359123 234 88 12
-3.467104 -2.4423873 -0.88486642 234 88 12
-3.4780653 -2.4188633 -0.88542086 234 88 12
-3.4912062 -2.3965456 -0.8866778 234 88 12
-3.5049264 -2.3745108 -0.88811755 234 88 12
-3.4995725 -2.3419151 -0.88341016 234 88 12
-3.4956636 -2.3102555 -0.8791821 234 88 12
-3.5096304 -2.2884037 -0.88070601 234 88 12
-3.5624411 -2.2873363 -0.89467585 234 88 12
-3.5855899 -2.2700751 -0.8991093 234 88 12
-3.6100764 -2.2533803 -0.90395635 234 88 12
-3.4198108 -2.5062871 -0.9057281 234 88 12
-3.4356484 -2.4856827 -0.90790707 234 88 12
-3.4474468 -2.4626799 -0.90874904 234 88 12
-3.4525044 -2.4357958 -0.90737218 234 88 12
-3.4617431 -2.4113243 -0.90737218 234 88 12
-3.4754612 -2.3893688 -0.90884012 234 88 12
-3.4905193 -2.368114 -0.91074187 234 88 12
-3.4926667 -2.339679 -0.90841997 234 88 12
-3.497776 -2.3129342 -0.90707129 234 88 12
-3.5090163 -2.2895513 -0.90772361 234 88 12
-3.5553899 -2.2849987 -0.91979736 234 88 12
-3.5865145 -2.27197 -0.92688292 234 88 12
-3.6085753 -2.2539515 -0.93100852 234 88 12
-3.629241 -2.2350791 -0.93466961 234 88 12
-3.6471415 -2.2146661 -0.93742585 234 88 12
-3.665256 -2.1942787 -0.94024253 234 88 12
-3.684058 -2.1741538 -0.94327199 234 88 12
-3.7012849 -2.1531465 -0.9457854 234 88 12
-3.7200882 -2.1328464 -0.94879729 234 88 12
-3.7420013 -2.1139855 -0.95279688 234 88 12
-3.4347551 -2.457159 -0.93185657 234 88 12
-3.4383307 -2.4294443 -0.92996794 234 88 12
-3.4505081 -2.4066656 -0.93094897 234 88 12
-3.4621773 -2.3835714 -0.93175799 234 88 12
-3.4789865 -2.3633149 -0.9342702 234 88 12
-3.4865749 -2.337893 -0.93371928 234 88 12
-3.4928701 -2.3117809 -0.9327423 234 88 12
-3.5088172 -2.2909279 -0.93495637 234 88 12
-3.543474 -2.2800505 -0.94333357 234 88 12
-3.574415 -2.2669437 -0.95046109 234 88 12
-3.5931444 -2.2471879 -0.95355171 234 88 12
-3.6087811 -2.2257247 -0.95561755 234 88 12
-3.6273785 -2.2057297 -0.95864713 234 88 12
-3.6424856 -2.1838565 -0.96052533 234 88 12
-3.657783 -2.1620235 -0.9624598 234 88 12
-3.6730993 -2.1401417 -0.96439439 234 88 12
-3.691288 -2.1196306 -0.96725857 234 88 12
-3.7096696 -2.0991285 -0.97017652 234 88 12
-3.7328119 -2.0808601 -0.97463125 234 88 12
-3.7564163 -2.0626819 -0.97922194 234 88 12
-3.4293029 -2.4260361 -0.95425546 234 88 12
-3.4414759 -2.4032557 -0.95524883 234 88 12
-3.4537442 -2.3804989 -0.95627117 234 88 12
-3.4699903 -2.3599277 -0.95862901 234 88 12
-3.4838285 -2.337956 -0.96017033 234 88 12
-3.494173 -2.3140266 -0.96053463 234 88 12
-3.5057101 -2.2907329 -0.96129733 234 88 12
-3.534384 -2.276619 -0.96778864 234 88 12
-3.5586944 -2.2599893 -0.97280252 234 88 12
-3.5738921 -2.2384071 -0.97476268 234 88 12
-3.591063 -2.2177968 -0.97737366 234 88 12
-3.6122429 -2.1991818 -0.98130864 234 88 12
-3.6285508 -2.1779542 -0.98361474 234 88 12
-3.6418116 -2.1551127 -0.98490423 234 88 12
-3.6532509 -2.1313181 -0.98558712 234 88 12
-3.6731865 -2.1117296 -0.98907393 234 88 12
-3.6918888 -2.0914304 -0.99214333 234 88 12
-3.7090232 -2.0702763 -0.99468702 234 88 12
-3.7435944 -2.057466 -1.0029548 234 88 12
-3.5277581 -2.4238091 -1.0089689 234 88 12
-3.5155392 -2.3869483 -1.0016013 234 88 12
-3.4911568 -2.3435876 -0.99011284 234 88 12
-3.4896657 -2.3130975 -0.98644739 234 88 12
-3.5077932 -2.2933552 -0.98945653 234 88 12
-3.5298736 -2.2756476 -0.99379653 234 88 12
-3.5456426 -2.2544525 -0.99598616 234 88 12
-3.5582163 -2.2315078 -0.99708873 234 88 12
-3.5732176 -2.2097986 -0.99900723 234 88 12
-3.6049283 -2.196677 -1.0065502 234 88 12
-3.6232681 -2.1764832 -1.0095711 234 88 12
-3.632643 -2.1516514 -1.0095711 234 88 12
-3.6434302 -2.1275294 -1.0100448 234 88 12
-3.6591086 -2.1058276 -1.0121549 234 88 12
-3.6826868 -2.0879564 -1.0168998 234 88 12
-3.7006617 -2.0672133 -1.0197594 234 88 12
-3.5713632 -2.4804688 -1.0551953 234 88 12
-3.5204291 -2.4213827 -1.0342649 234 88 12
-3.4952343 -2.377269 -1.0223056 234 88 12
-3.4876876 -2.3432605 -1.0164798 234 88 12
-3.4848812 -2.3120189 -1.0123072 234 88 12
-3.4949384 -2.2878788 -1.0125768 234 88 12
-3.5236089 -2.2737355 -1.0192442 234 88 12
-3.5365357 -2.2510142 -1.020487 234 88 12
-3.5491042 -2.2280676 -1.021603 234 88 12
-3.5632718 -2.205924 -1.0232626 234 88 12
-3.6261756 -2.1495612 -1.0351579 234 88 12
-3.6389318 -2.126416 -1.0363061 234 88 12
-3.557225 -2.474201 -1.0784001 234 88 12
-3.5015223 -2.4124372 -1.055512 234 88 12
-3.4767897 -2.3686216 -1.0435568 234 88 12
-3.4719169 -2.3361344 -1.0385928 234 88 12
-3.4765916 -2.3090222 -1.0369821 234 88 12
-3.4904823 -2.2869592 -1.0385928 234 88 12
-3.5186863 -2.2725468 -1.0451862 234 88 12
-3.5308526 -2.2493999 -1.0461788 234 88 12
-3.5455165 -2.2275429 -1.0480361 234 88 12
-3.547823 -2.4706233 -1.1032474 234 88 12
-3.4778435 -2.4007974 -1.0749677 234 88 12
-3.4730275 -2.3681662 -1.0699378 234 88 12
-3.4662116 -2.3345733 -1.0642143 234 88 12
-3.4675202 -2.3055975 -1.0613874 234 88 12
-3.4935892 -2.2901492 -1.0673275 234 88 12
-3.5635762 -2.2981596 -1.0887591 234 88 12
-3.5324948 -2.4636745 -1.1259519 234 88 12
-3.4632764 -2.3942857 -1.0975721 234 88 12
-3.4699001 -2.3680687 -1.0965983 234 88 12
-3.4752457 -2.3411717 -1.0951679 234 88 12
-3.4836476 -2.3159916 -1.0948395 234 88 12
-3.4994082 -2.2948189 -1.0971496 234 88 12
-3.5593159 -2.2973437 -1.1152519 234 88 12
-3.5040498 -2.4492562 -1.1437963 234 88 12
-3.46087 -2.3946295 -1.1245695 234 88 12
-3.4616351 -2.365103 -1.1214409 234 88 12
-3.4709597 -2.3404043 -1.1214409 234 88 12
-3.4809618 -2.3160772 -1.1216873 234 88 12
-3.4915204 -2.2920458 -1.122135 234 88 12
-3.5710921 -2.3051662 -1.1476064 234 88 12
-3.4952145 -2.4459934 -1.1687297 234 88 12
-3.4909251 -2.4132957 -1.1636518 234 88 12
-3.4669211 -2.3697152 -1.1513015 234 88 12
-3.47276 -2.3430114 -1.1500063 234 88 12
-3.4809523 -2.3176351 -1.1495826 234 88 12
-3.5498652 -2.3252931 -1.1715021 234 88 12
-3.4867465 -2.4429405 -1.1938046 234 88 12
-3.4905334 -2.4147944 -1.19169 234 88 12
-3.4981651 -2.3888578 -1.191022 234 88 12
-3.5075774 -2.3639266 -1.191022 234 88 12
-3.5207937 -2.3410842 -1.1924419 234 88 12
-3.5492847 -2.3265142 -1.1995506 234 88 12
-3.4847279 -2.4435642 -1.2213411 234 88 12
-3.4847395 -2.4132469 -1.2177606 234 88 12
-3.494108 -2.3882642 -1.2177407 234 88 12
-3.503581 -2.3633401 -1.2177606 234 88 12
-3.5217559 -2.3431969 -1.2210705 234 88 12
-3.550411 -2.3286691 -1.2283263 234 88 12
-3.4827886 -2.4747002 -1.2526248 234 88 12
-3.4794421 -2.4423289 -1.2476882 234 88 12
-3.4852247 -2.4152501 -1.2462801 234 88 12
-3.4934087 -2.3895538 -1.2457989 234 88 12
-3.5033841 -2.3648646 -1.2460065 234 88 12
-3.5191345 -2.3433447 -1.2484246 234 88 12
-3.5528545 -2.3315465 -1.257705 234 88 12
-3.4683957 -2.4682474 -1.2755152 234 88 12
-3.4715929 -2.4396331 -1.2730732 234 88 12
-3.4796498 -2.4138322 -1.2725326 234 88 12
-3.4885354 -2.38851 -1.2723161 234 88 12
-3.5002987 -2.3647909 -1.2732178 234 88 12
-3.5216784 -2.3463371 -1.2778454 234 88 12
-3.560853 -2.3374569 -1.2893469 234 88 12
-3.4715803 -2.4719193 -1.305312 234 88 12
-3.4675865 -2.4391325 -1.2999902 234 88 12
-3.4739809 -2.4123633 -1.2987837 234 88 12
-3.4870532 -2.3893692 -1.3002111 234 88 12
-3.4987025 -2.3655477 -1.3010743 234 88 12
-3.5235445 -2.348963 -1.3071141 234 88 12
-3.4840045 -2.480926 -1.3389325 234 88 12
-3.4653938 -2.439671 -1.3276838 234 88 12
-3.4739177 -2.4140697 -1.3273082 234 88 12
-3.4835062 -2.389075 -1.3273582 234 88 12
-3.4971273 -2.3663204 -1.3290135 234 88 12
-3.5267482 -2.3523312 -1.3370224 234 88 12
-3.4751511 -2.4470446 -1.3602854 234 88 12
-3.4735608 -2.4156153 -1.3558038 234 88 12
-3.4819684 -2.3899117 -1.3553722 234 88 12
-3.4957893 -2.3672292 -1.3571231 234 88 12
-3.5275252 -2.3543696 -1.3660759 234 88 12
-3.4929385 -2.4590228 -1.3963654 234 88 12
-3.4795949 -2.4207878 -1.3870022 234 88 12
-3.484091 -2.3928082 -1.3849572 234 88 12
-3.4985993 -2.37045 -1.3870022 234 88 12
-3.5090535 -2.4085419 -1.4240969 234 88 12
-3.6369221 -2.3476017 -0.70666397 234 88 12
-3.6336889 -2.3129232 -0.69709474 234 88 12
-3.6543393 -2.3031392 -0.69656485 234 88 12
-3.6826527 -2.301198 -0.69889683 234 88 12
-3.7398322 -2.3284504 -0.71191549 234 88 12
-3.5958345 -2.3312309 -0.7226159 234 88 12
-3.6105874 -2.315228 -0.71979493 234 88 12
-3.6291161 -2.3032289 -0.71844202 234 88 12
-3.6511736 -2.2949014 -0.71844202 234 88 12
-3.6754401 -2.2888265 -0.71927655 234 88 12
-3.7276373 -2.3110206 -0.73060554 234 88 12
-3.4334574 -2.6129935 -0.80759048 234 88 12
-3.4513154 -2.5985725 -0.80548483 234 88 12
-3.4708369 -2.5861211 -0.80409145 234 88 12
-3.4982915 -2.5826702 -0.80598742 234 88 12
-3.5436749 -2.3346133 -0.74266553 234 88 12
-3.5560205 -2.3160141 -0.7388435 234 88 12
-3.5780051 -2.307637 -0.73882234 234 88 12
-3.6013987 -2.3007255 -0.73934889 234 88 12
-3.6260412 -2.2950847 -0.74035323 234 88 12
-3.6488631 -2.2875409 -0.74064726 234 88 12
-3.6778071 -2.2862236 -0.7432825 234 88 12
-3.7279971 -2.3063169 -0.75398815 234 88 12
-3.4108617 -2.6172431 -0.83184087 234 88 12
-3.4192572 -2.5918705 -0.82566726 234 88 12
-3.4361811 -2.5764763 -0.82316339 234 88 12
-3.4513247 -2.5591567 -0.81993729 234 88 12
-3.4741011 -2.5505579 -0.81993729 234 88 12
-3.5053585 -2.5514493 -0.82346642 234 88 12
-3.5163987 -2.3325455 -0.76375818 234 88 12
-3.5265508 -2.3115792 -0.75899416 234 88 12
-3.5409784 -2.2952816 -0.75597709 234 88 12
-3.5614755 -2.2854345 -0.7553907 234 88 12
-3.5858207 -2.279603 -0.75632489 234 88 12
-3.6191442 -2.2829983 -0.7607671 234 88 12
-3.6483886 -2.2820594 -0.76357597 234 88 12
-3.6987612 -2.3025248 -0.77455437 234 88 12
-3.4002838 -2.6002326 -0.85141832 234 88 12
-3.4106331 -2.5771821 -0.84602165 234 88 12
-3.4233637 -2.5570517 -0.84170169 234 88 12
-3.4387271 -2.5400662 -0.83854854 234 88 12
-3.455682 -2.5249889 -0.8361026 234 88 12
-3.4723678 -2.5097008 -0.83356857 234 88 12
-3.4891138 -2.4945724 -0.83108604 234 88 12
-3.5135632 -2.4880273 -0.83184314 234 88 12
-3.5042291 -2.314707 -0.78198928 234 88 12
-3.5160329 -2.2955673 -0.77784997 234 88 12
-3.5343471 -2.283416 -0.77637362 234 88 12
-3.5563087 -2.2751248 -0.77637362 234 88 12
-3.5790894 -2.2676833 -0.77670032 234 88 12
-3.6081071 -2.2666554 -0.77949888 234 88 12
-3.6488981 -2.2775793 -0.78691983 234 88 12
-3.4098008 -2.5714538 -0.86971319 234 88 12
-3.4082384 -2.5350161 -0.85913169 234 88 12
-3.4242179 -2.5188317 -0.85623068 234 88 12
-3.4442904 -2.5073562 -0.85511684 234 88 12
-3.4559128 -2.4864845 -0.85040629 234 88 12
-3.4722917 -2.4710584 -0.84776497 234 88 12
-3.4884412 -2.4554741 -0.84505373 234 88 12
-3.5074449 -2.4431088 -0.84357041 234 88 12
-3.5273855 -2.4318147 -0.84249419 234 88 12
-3.4873664 -2.323719 -0.80728579 234 88 12
-3.4975667 -2.3027503 -0.80239403 234 88 12
-3.5099261 -2.284235 -0.79843622 234 88 12
-3.5309584 -2.2749636 -0.79805595 234 88 12
-3.5529184 -2.2666731 -0.79805595 234 88 12
-3.57582 -2.2593577 -0.79843622 234 88 12
-3.6158094 -2.2696147 -0.80568182 234 88 12
-3.4029453 -2.524209 -0.88074857 234 88 12
-3.4207473 -2.5101109 -0.87861174 234 88 12
-3.4317544 -2.488456 -0.87354308 234 88 12
-3.4497049 -2.4747295 -0.87153018 234 88 12
-3.4636819 -2.4566727 -0.86782843 234 88 12
-3.4774914 -2.4385629 -0.86409301 234 88 12
-3.5113773 -2.4095383 -0.85939157 234 88 12
-3.5319507 -2.3990619 -0.85860693 234 88 12
-3.4844913 -2.3157852 -0.82929605 234 88 12
-3.4944983 -2.2946227 -0.82426065 234 88 12
-3.5128171 -2.2824113 -0.82272685 234 88 12
-3.5288289 -2.2678325 -0.82025504 234 88 12
-3.5507936 -2.2595401 -0.82025504 234 88 12
-3.6012018 -2.280684 -0.8318916 234 88 12
-3.6254892 -2.2745831 -0.83278036 234 88 12
-3.4205356 -2.5050735 -0.90243161 234 88 12
-3.4286032 -2.4801097 -0.89599782 234 88 12
-3.44152 -2.4607782 -0.89175481 234 88 12
-3.4539025 -2.4410048 -0.88732278 234 88 12
-3.4677784 -2.4230285 -0.88358384 234 88 12
-3.483974 -2.4077146 -0.88088346 234 88 12
-3.5006173 -2.3929796 -0.87840259 234 88 12
-3.5206966 -2.3820302 -0.87741375 234 88 12
-3.4845798 -2.3110199 -0.85256714 234 88 12
-3.5004547 -2.2960804 -0.84994102 234 88 12
-3.5112026 -2.2758212 -0.84518534 234 88 12
-3.5348001 -2.2691872 -0.84585315 234 88 12
-3.5765219 -2.281394 -0.85405988 234 88 12
-3.5984304 -2.2728429 -0.85397768 234 88 12
-3.6246693 -2.2687411 -0.85568154 234 88 12
-3.4277754 -2.4406476 -0.90945852 234 88 12
-3.4440331 -2.4252522 -0.90670496 234 88 12
-3.4613409 -2.4111052 -0.9044407 234 88 12
-3.47387 -2.3918252 -0.90011311 234 88 12
-3.4913192 -2.3780217 -0.89796686 234 88 12
-3.5026972 -2.3577614 -0.8932184 234 88 12
-3.4931233 -2.3152802 -0.87950784 234 88 12
-3.5050426 -2.296066 -0.87513131 234 88 12
-3.5271389 -2.2877238 -0.87513131 234 88 12
-3.5641644 -2.2950079 -0.88145554 234 88 12
-3.5815043 -2.2816153 -0.87941921 234 88 12
-3.603651 -2.2732542 -0.87941921 234 88 12
-3.6430669 -2.2826071 -0.8866272 234 88 12
-3.4213579 -2.4286904 -0.93033534 234 88 12
-3.4371223 -2.4127824 -0.92733502 234 88 12
-3.4528956 -2.396987 -0.92436963 234 88 12
-3.4678571 -2.3804078 -0.9210757 234 88 12
-3.4820526 -2.3631115 -0.9174785 234 88 12
-3.4809141 -2.3294601 -0.90720832 234 88 12
-3.493206 -2.3104854 -0.90288872 234 88 12
-3.5121837 -2.2987409 -0.90150869 234 88 12
-3.542855 -2.2993519 -0.90518224 234 88 12
-3.5678039 -2.2938585 -0.90636522 234 88 12
-3.5853832 -2.2806726 -0.90439159 234 88 12
-3.6101108 -2.2749252 -0.90547293 234 88 12
-3.4209073 -2.4233711 -0.95388776 234 88 12
-3.4350078 -2.4056139 -0.95009214 234 88 12
-3.4482765 -2.3870735 -0.94596153 234 88 12
-3.4647381 -2.3721464 -0.94330198 234 88 12
-3.4816396 -2.3577838 -0.9408654 234 88 12
-3.4796846 -2.3232622 -0.93010175 234 88 12
-3.4953809 -2.3079138 -0.92722535 234 88 12
-3.5143993 -2.2961779 -0.92583454 234 88 12
-3.5397618 -2.2911587 -0.92722535 234 88 12
-3.5716047 -2.2928629 -0.9314155 234 88 12
-3.5922861 -2.2828517 -0.93074292 234 88 12
-3.6139603 -2.2738853 -0.93050373 234 88 12
-3.6345203 -2.2637861 -0.92979026 234 88 12
-3.4656799 -2.3682997 -0.96736729 234 88 12
-3.4808969 -2.3520939 -0.96413285 234 88 12
-3.4796896 -2.3183837 -0.95356858 234 88 12
-3.4996343 -2.3075442 -0.95254523 234 88 12
-3.5218618 -2.2991526 -0.95254523 234 88 12
-3.5484431 -2.2953341 -0.95446748 234 88 12
-3.5661042 -2.2821472 -0.95245171 234 88 12
-3.5837696 -2.2690291 -0.95045775 234 88 12
-3.5988119 -2.2532744 -0.94734234 234 88 12
-3.6169822 -2.2408171 -0.9456116 234 88 12
-3.6345062 -2.2277579 -0.94361931 234 88 12
-3.6547635 -2.217519 -0.94281816 234 88 12
-3.6881087 -2.2204208 -0.94760793 234 88 12
-3.4897196 -2.3567157 -0.99178737 234 88 12
-3.4826646 -2.3166795 -0.97841609 234 88 12
-3.5008428 -2.3039188 -0.97656918 234 88 12
-3.523092 -2.2955189 -0.97656918 234 88 12
-3.5384574 -2.2798953 -0.97349322 234 88 12
-3.5575078 -2.2682099 -0.97208625 234 88 12
-3.5708132 -2.2506223 -0.96815169 234 88 12
-3.5881233 -2.2372763 -0.96601892 234 88 12
-3.6044574 -2.2230005 -0.96347958 234 88 12
-3.621424 -2.2094455 -0.96124065 234 88 12
-3.6386669 -2.1962385 -0.95914346 234 88 12
-3.6546297 -2.1818149 -0.95651394 234 88 12
-3.674155 -2.1710148 -0.95544028 234 88 12
-3.6929355 -2.1595116 -0.95405841 234 88 12
-3.7129979 -2.1493084 -0.95323515 234 88 12
-3.7400239 -2.1459188 -0.95536888 234 88 12
-3.4911563 -2.3861744 -1.0265713 234 88 12
-3.4760792 -2.3371084 -1.0092071 234 88 12
-3.4831939 -2.3123448 -1.0022062 234 88 12
-3.5023103 -2.300559 -1.0007576 234 88 12
-3.5164738 -2.283592 -0.99707288 234 88 12
-3.5308466 -2.2669609 -0.99351966 234 88 12
-3.546593 -2.2518716 -0.9906199 234 88 12
-3.5648561 -2.2394755 -0.98887551 234 88 12
-3.5842681 -2.2283139 -0.98766005 234 88 12
-3.5969875 -2.2103617 -0.98349011 234 88 12
-3.6143796 -2.1972737 -0.98142201 234 88 12
-3.6253083 -2.177743 -0.97653705 234 88 12
-3.6401443 -2.1622684 -0.97340614 234 88 12
-3.6588488 -2.1507316 -0.97198701 234 88 12
-3.6770382 -2.1387293 -0.97035861 234 88 12
-3.6953554 -2.1269016 -0.9688009 234 88 12
-3.7143526 -2.1157825 -0.96754926 234 88 12
-3.7362192 -2.1074762 -0.96753317 234 88 12
-3.764689 -2.1055164 -0.97031999 234 88 12
-3.4790411 -2.401191 -1.0553887 234 88 12
-3.4581506 -2.3454823 -1.0349698 234 88 12
-3.4657092 -2.3210444 -1.0280396 234 88 12
-3.4800868 -2.3041151 -1.0243469 234 88 12
-3.500726 -2.2939496 -1.0235848 234 88 12
-3.5133748 -2.2753835 -1.0191569 234 88 12
-3.5267289 -2.2576942 -1.0150962 234 88 12
-3.5376942 -2.2376471 -1.0099887 234 88 12
-3.5585246 -2.2279482 -1.0093997 234 88 12
-3.5815785 -2.2205489 -1.0098183 234 88 12
-3.5961666 -2.2045093 -1.0064368 234 88 12
-3.6114371 -2.1892631 -1.0033928 234 88 12
-3.6174788 -2.1648302 -0.99628037 234 88 12
-3.6321013 -2.1491823 -0.99302864 234 88 12
-3.6503906 -2.13727 -0.99142092 234 88 12
-3.6667595 -2.1235135 -0.98898822 234 88 12
-3.6840851 -2.1107657 -0.9869954 234 88 12
-3.6997147 -2.0964272 -0.98428625 234 88 12
-3.7229998 -2.0895658 -0.98490578 234 88 12
-3.7488787 -2.085176 -0.98663324 234 88 12
-3.4609237 -2.376523 -1.0707287 234 88 12
-3.4538743 -2.3359611 -1.0566788 234 88 12
-3.4625967 -2.3127997 -1.0502205 234 88 12
-3.4849257 -2.3043697 -1.0502205 234 88 12
-3.5145762 -2.3037038 -1.0536426 234 88 12
-3.5463498 -2.3051674 -1.0580177 234 88 12
-3.5284643 -2.2545526 -1.0393702 234 88 12
-3.5346832 -2.2295525 -1.032007 234 88 12
-3.5554404 -2.2197793 -1.0313774 234 88 12
-3.5789464 -2.2128417 -1.032007 234 88 12
-3.6144149 -2.1567142 -1.0181153 234 88 12
-3.6288824 -2.1409199 -1.0147567 234 88 12
-3.6473339 -2.1291738 -1.0132029 234 88 12
-3.6637065 -2.115427 -1.0107436 234 88 12
-3.6810353 -2.1026874 -1.0087291 234 88 12
-3.6933234 -2.0851097 -1.0045234 234 88 12
-3.7151568 -2.0768669 -1.0045234 234 88 12
-3.7458293 -2.0770991 -1.008363 234 88 12
-3.4469209 -2.3895335 -1.0988024 234 88 12
-3.4555366 -2.3657527 -1.0920478 234 88 12
-3.461551 -2.3393703 -1.0841138 234 88 12
-3.4724555 -2.3184874 -1.0785971 234 88 12
-3.4955502 -2.3107779 -1.0789293 234 88 12
-3.5358315 -2.3212645 -1.0873839 234 88 12
-3.5583215 -2.3127737 -1.0873839 234 88 12
-3.5824151 -2.305959 -1.0881345 234 88 12
-3.6531975 -2.1299078 -1.0389985 234 88 12
-3.6861894 -2.102623 -1.034119 234 88 12
-3.6911161 -2.0778594 -1.0265826 234 88 12
-3.7154725 -2.0720434 -1.0276946 234 88 12
-3.4454172 -2.3829904 -1.1220737 234 88 12
-3.4543939 -2.3596056 -1.115414 234 88 12
-3.4590068 -2.3317122 -1.1067041 234 88 12
-3.4743576 -2.3156085 -1.1032709 234 88 12
-3.496779 -2.3071437 -1.1032709 234 88 12
-3.5360029 -2.3164594 -1.1113055 234 88 12
-3.5605304 -2.310086 -1.1122669 234 88 12
-3.5950184 -2.31408 -1.1179336 234 88 12
-3.4730175 -2.4082966 -1.1598033 234 88 12
-3.4654341 -2.3666945 -1.1448154 234 88 12
-3.4624567 -2.3305225 -1.1322442 234 88 12
-3.4777453 -2.3143108 -1.1287253 234 88 12
-3.5007918 -2.306463 -1.1290128 234 88 12
-3.5514567 -2.3278012 -1.1426526 234 88 12
-3.582088 -2.3276987 -1.1465161 234 88 12
-3.469187 -2.4328485 -1.1935928 234 88 12
-3.4727428 -2.4030569 -1.1838889 234 88 12
-3.4843321 -2.3822825 -1.1782953 234 88 12
-3.5039835 -2.3703699 -1.1767626 234 88 12
-3.5195615 -2.3541422 -1.1732334 234 88 12
-3.5411747 -2.3444371 -1.1727062 234 88 12
-3.5638547 -2.3358746 -1.1727062 234 88 12
-3.6034954 -2.345098 -1.1809571 234 88 12
-3.4657946 -2.4241731 -1.2162359 234 88 12
-3.4743497 -2.3998656 -1.2089612 234 88 12
-3.4869661 -2.3801813 -1.2038114 234 88 12
-3.5058875 -2.3674424 -1.2018802 234 88 12
-3.524107 -2.3540099 -1.1996181 234 88 12
-3.5460441 -2.344593 -1.1992265 234 88 12
-3.5695577 -2.3368506 -1.1996181 234 88 12
-3.4561753 -2.4425876 -1.2475152 234 88 12
-3.4668741 -2.4204125 -1.2411823 234 88 12
-3.4726696 -2.3930771 -1.2324011 234 88 12
-3.4911706 -2.3797688 -1.2301929 234 88 12
-3.511312 -2.3682907 -1.2288402 234 88 12
-3.5296431 -2.354918 -1.2265872 234 88 12
-3.552413 -2.3463216 -1.2265872 234 88 12
-3.5889094 -2.3521881 -1.2334471 234 88 12
-3.453306 -2.4344711 -1.2705212 234 88 12
-3.4651685 -2.4135847 -1.264725 234 88 12
-3.4754326 -2.3911276 -1.2581608 234 88 12
-3.4923167 -2.376029 -1.2550789 234 88 12
-3.5144551 -2.3666675 -1.2547244 234 88 12
-3.5352404 -2.3558722 -1.253683 234 88 12
-3.5601068 -2.3494325 -1.2547244 234 88 12
-3.4538925 -2.4301703 -1.2953609 234 88 12
-3.463448 -2.4067376 -1.2882767 234 88 12
-3.4787459 -2.3897641 -1.2842753 234 88 12
-3.4969687 -2.3760698 -1.2818402 234 88 12
-3.5209544 -2.3686333 -1.2824187 234 88 12
-3.5444758 -2.3606851 -1.2827518 234 88 12
-3.5741019 -2.3591905 -1.2862144 234 88 12
-3.4530606 -2.4242961 -1.3194842 234 88 12
-3.4651756 -2.4036634 -1.3136803 234 88 12
-3.4817033 -2.3879986 -1.3102739 234 88 12
-3.5033095 -2.3779168 -1.3095783 234 88 12
-3.5283453 -2.3715334 -1.3106873 234 88 12
-3.5530086 -2.3647213 -1.3115906 234 88 12
-3.4602668 -2.4272747 -1.3479817 234 88 12
-3.4656346 -2.3991902 -1.338457 234 88 12
-3.4855187 -2.3871512 -1.3368005 234 88 12
-3.508482 -2.3784819 -1.3368005 234 88 12
-3.5361705 -2.3748744 -1.3393028 234 88 12
-3.5666587 -2.3741751 -1.3432543 234 88 12
-3.4718542 -2.4350524 -1.3789914 234 88 12
-3.46979 -2.3987494 -1.3652843 234 88 12
-3.4882302 -2.3850899 -1.3628086 234 88 12
-3.5145924 -2.3800383 -1.3646202 234 88 12
-3.5462787 -2.3806336 -1.3692621 234 88 12
-3.4770353 -2.4016654 -1.3938916 234 88 12
-3.4970422 -2.3896294 -1.3922161 234 88 12
-3.5203681 -2.3812134 -1.3923621 234 88 12
-3.6846826 -2.3255432 -0.68205202 234 88 12
-3.6587045 -2.365555 -0.70455438 234 88 12
-3.6354134 -2.331279 -0.70224637 234 88 12
-3.6351197 -2.3060799 -0.70209235 234 88 12
-3.6400228 -2.2828803 -0.70242471 234 88 12
-3.7129893 -2.2854044 -0.70912611 234 88 12
-3.6021285 -2.3429332 -0.72362089 234 88 12
-3.5915794 -2.3138564 -0.7224614 234 88 12
-3.5978627 -2.291374 -0.72294295 234 88 12
-3.6201515 -2.2749703 -0.72498399 234 88 12
-3.6520772 -2.2620473 -0.72796297 234 88 12
-3.5899506 -2.3627305 -0.74688053 234 88 12
-3.543623 -2.3195567 -0.74204874 234 88 12
-3.5478327 -2.2964723 -0.74234033 234 88 12
-3.5563829 -2.2750411 -0.74307156 234 88 12
-3.5796168 -2.259165 -0.7452898 234 88 12
-3.641715 -2.2578168 -0.75144297 234 88 12
-3.5295794 -2.3383808 -0.76483643 234 88 12
-3.5248744 -2.3118496 -0.76420158 234 88 12
-3.5312366 -2.2896821 -0.76473105 234 88 12
-3.5374959 -2.2674353 -0.76524955 234 88 12
-3.5573838 -2.2503576 -0.76720065 234 88 12
-3.6154225 -2.2475624 -0.77316129 234 88 12
-3.5236614 -2.3357024 -0.78825992 234 88 12
-3.5136712 -2.3071165 -0.78702563 234 88 12
-3.5192728 -2.2847002 -0.78749186 234 88 12
-3.5265775 -2.2629075 -0.78814352 234 88 12
-3.5455251 -2.2455163 -0.79006386 234 88 12
-3.444154 -2.6210258 -0.80525023 234 88 12
-3.4385288 -2.5940528 -0.80446458 234 88 12
-3.4485765 -2.5740514 -0.80545324 234 88 12
-3.4601464 -2.5546467 -0.8066138 234 88 12
-3.4810762 -2.5392172 -0.80883282 234 88 12
-3.5911841 -2.3871641 -0.82007563 234 88 12
-3.5097842 -2.3298583 -0.81073183 234 88 12
-3.509584 -2.3051875 -0.81055963 234 88 12
-3.5127721 -2.2818496 -0.81077003 234 88 12
-3.5214481 -2.2606153 -0.81159961 234 88 12
-3.5592804 -2.2504621 -0.81571859 234 88 12
-3.4437737 -2.6449602 -0.82915097 234 88 12
-3.430141 -2.614363 -0.82740074 234 88 12
-3.4225585 -2.5865784 -0.82635951 234 88 12
-3.4252589 -2.5634015 -0.82652229 234 88 12
-3.4415438 -2.546154 -0.82827473 234 88 12
-3.4462929 -2.5237892 -0.82867676 234 88 12
-3.4596426 -2.50509 -0.83008462 234 88 12
-3.474828 -2.4870763 -0.83170658 234 88 12
-3.4825273 -2.4657979 -0.83245254 234 88 12
-3.4976118 -2.4475524 -0.8340615 234 88 12
-3.5108085 -2.4284172 -0.83544916 234 88 12
-3.5285864 -2.4110649 -0.83737153 234 88 12
-3.5888851 -2.4108312 -0.84426045 234 88 12
-3.5810513 -2.3827629 -0.84318876 234 88 12
-3.5071559 -2.3284903 -0.83440328 234 88 12
-3.508003 -2.3042459 -0.83434761 234 88 12
-3.5101621 -2.2805169 -0.83444506 234 88 12
-3.5204265 -2.2599092 -0.83548838 234 88 12
-3.5925007 -2.2628417 -0.84374279 234 88 12
-3.4279683 -2.6130199 -0.85086805 234 88 12
-3.4226942 -2.5862756 -0.85007173 234 88 12
-3.4240036 -2.5624881 -0.85007173 234 88 12
-3.4274995 -2.5396566 -0.85033607 234 88 12
-3.4281754 -2.5155861 -0.85025948 234 88 12
-3.4409413 -2.496711 -0.85164368 234 88 12
-3.4523704 -2.4771764 -0.85286576 234 88 12
-3.4646654 -2.457927 -0.85419196 234 88 12
-3.4758518 -2.4381278 -0.85538369 234 88 12
-3.4886994 -2.4189374 -0.85677546 234 88 12
-3.5011232 -2.3994825 -0.85811555 234 88 12
-3.5122199 -2.3794014 -0.85929483 234 88 12
-3.5276091 -2.3609676 -0.86099154 234 88 12
-3.5076201 -2.3283525 -0.85842025 234 88 12
-3.5080924 -2.3039622 -0.85831755 234 88 12
-3.510745 -2.2804289 -0.85847777 234 88 12
-3.5662727 -2.2772884 -0.86501157 234 88 12
-3.5934539 -2.2628942 -0.86812633 234 88 12
-3.4258111 -2.5873001 -0.87414986 234 88 12
-3.4271207 -2.563504 -0.87414986 234 88 12
-3.4261205 -2.5386982 -0.87386173 234 88 12
-3.4251237 -2.513912 -0.87357414 234 88 12
-3.4304159 -2.4918437 -0.87407076 234 88 12
-3.4471698 -2.4746187 -0.87599587 234 88 12
-3.4545107 -2.4533055 -0.87674707 234 88 12
-3.4663863 -2.4338372 -0.87806296 234 88 12
-3.4757242 -2.4132364 -0.87906224 234 88 12
-3.4850011 -2.3925471 -0.8800534 234 88 12
-3.4972968 -2.3730192 -0.88142008 234 88 12
-3.5036757 -2.3510287 -0.88204962 234 88 12
-3.5015206 -2.3256044 -0.88161665 234 88 12
-3.5028429 -2.3015769 -0.88161665 234 88 12
-3.5137157 -2.2812717 -0.88280481 234 88 12
-3.5671208 -2.2773015 -0.88928276 234 88 12
-3.5928738 -2.262361 -0.8923192 234 88 12
-3.4458244 -2.5469556 -0.90008038 234 88 12
-3.4283605 -2.5149622 -0.89766651 234 88 12
-3.4331343 -2.4926622 -0.89811182 234 88 12
-3.448103 -2.4746702 -0.89986694 234 88 12
-3.4554448 -2.453357 -0.90064144 234 88 12
-3.4476178 -2.4256654 -0.89946735 234 88 12
-3.457242 -2.4052603 -0.90053475 234 88 12
-3.4685245 -2.3854685 -0.90181458 234 88 12
-3.4799898 -2.3656721 -0.9031173 234 88 12
-3.4930482 -2.3464353 -0.90462393 234 88 12
-3.4971569 -2.3235476 -0.90498167 234 88 12
-3.4993773 -2.2998943 -0.90509695 234 88 12
-3.5166912 -2.2821164 -0.90714806 234 88 12
-3.5705271 -2.2783017 -0.91388118 234 88 12
-3.5909722 -2.2613237 -0.91633093 234 88 12
-3.6260507 -2.2497251 -0.92065513 234 88 12
-3.4459395 -2.4490108 -0.92315453 234 88 12
-3.4367213 -2.4207807 -0.92176151 234 88 12
-3.4453943 -2.4000285 -0.92273533 234 88 12
-3.4594898 -2.3814383 -0.92442584 234 88 12
-3.4707761 -2.361608 -0.92574424 234 88 12
-3.4895358 -2.3446999 -0.92804986 234 88 12
-3.4980962 -2.3235991 -0.9290067 234 88 12
-3.5005863 -2.3000522 -0.92916107 234 88 12
-3.5101848 -2.2792659 -0.9302544 234 88 12
-3.5594347 -2.2737091 -0.93658376 234 88 12
-3.579165 -2.2565045 -0.93901277 234 88 12
-3.5982614 -2.2389157 -0.94135708 234 88 12
-3.6122148 -2.219264 -0.94302166 234 88 12
-3.6276245 -2.2000518 -0.94487762 234 88 12
-3.6417179 -2.1802475 -0.94655919 234 88 12
-3.6599641 -2.1618466 -0.94878781 234 88 12
-3.6760459 -2.1425378 -0.95073003 234 88 12
-3.6937094 -2.1236739 -0.95287997 234 88 12
-3.7130105 -2.1052556 -0.95524484 234 88 12
-3.7364917 -2.0881448 -0.95815963 234 88 12
-3.4437037 -2.4477277 -0.94657713 234 88 12
-3.4376523 -2.4208319 -0.94557482 234 88 12
-3.4455333 -2.3997521 -0.94646919 234 88 12
-3.4587431 -2.3808017 -0.94808835 234 88 12
-3.4691484 -2.3606205 -0.9493252 234 88 12
-3.4810443 -2.340966 -0.9507643 234 88 12
-3.4969816 -2.3228345 -0.95275241 234 88 12
-3.5015256 -2.3001039 -0.95319062 234 88 12
-3.5094628 -2.2786698 -0.95408982 234 88 12
-3.5455465 -2.2680392 -0.95881391 234 88 12
-3.560869 -2.2492096 -0.96071506 234 88 12
-3.5791965 -2.231405 -0.9630236 234 88 12
-3.5973535 -2.2134032 -0.96530801 234 88 12
-3.6134658 -2.1945126 -0.96731383 234 88 12
-3.6273568 -2.1746929 -0.96901727 234 88 12
-3.6363957 -2.1530175 -0.97006136 234 88 12
-3.6464984 -2.1316631 -0.9712494 234 88 12
-3.6666563 -2.1138015 -0.97380108 234 88 12
-3.6876509 -2.0960858 -0.97646523 234 88 12
-3.7031755 -2.0763211 -0.97838646 234 88 12
-3.7362304 -2.062449 -0.98268366 234 88 12
-3.4570496 -2.428587 -0.971973 234 88 12
-3.4600437 -2.4054143 -0.97220814 234 88 12
-3.4687679 -2.3845739 -0.97324497 234 88 12
-3.4806631 -2.3649604 -0.97472495 234 88 12
-3.5032179 -2.3495419 -0.97769511 234 88 12
-3.4979205 -2.3228862 -0.97676945 234 88 12
-3.5042424 -2.3008549 -0.97746861 234 88 12
-3.5133691 -2.2798769 -0.97855943 234 88 12
-3.5325882 -2.2627296 -0.98106015 234 88 12
-3.5450788 -2.242873 -0.98261976 234 88 12
-3.5577528 -2.2229979 -0.98420429 234 88 12
-3.5814836 -2.2071667 -0.98733228 234 88 12
-3.6116683 -2.193547 -0.99136001 234 88 12
-3.6274531 -2.1744306 -0.99337596 234 88 12
-3.6329894 -2.1514902 -0.99396074 234 88 12
-3.6387019 -2.1285801 -0.99456984 234 88 12
-3.6531174 -2.1087184 -0.99639285 234 88 12
-3.6795225 -2.0929537 -0.99988723 234 88 12
-3.6982753 -2.0743423 -1.0023131 234 88 12
-3.7230542 -2.0576577 -1.005578 234 88 12
-3.6015697 -2.4635549 -1.0163149 234 88 12
-3.5391057 -2.4130268 -1.0071419 234 88 12
-3.5279005 -2.3837767 -1.0053402 234 88 12
-3.5053191 -2.3500597 -1.0019046 234 88 12
-3.4988594 -2.322938 -1.0007865 234 88 12
-3.5010505 -2.2992811 -1.0009116 234 88 12
-3.5147004 -2.2800808 -1.002682 234 88 12
-3.526403 -2.2600327 -1.0041721 234 88 12
-3.5432074 -2.2418499 -1.006394 234 88 12
-3.5547225 -2.2215476 -1.0078559 234 88 12
-3.562535 -2.1997814 -1.0087858 234 88 12
-3.6153758 -2.1946177 -1.0161748 234 88 12
-3.6325998 -2.1760163 -1.0184524 234 88 12
-3.6339469 -2.1515429 -1.0184524 234 88 12
-3.6396599 -2.1286328 -1.0190784 234 88 12
-3.6540775 -2.1087713 -1.0209516 234 88 12
-3.6924639 -2.0972016 -1.0262589 234 88 12
-3.7014291 -2.0751529 -1.0273488 234 88 12
-3.570802 -2.4505022 -1.0360659 234 88 12
-3.5265031 -2.4075353 -1.0293301 234 88 12
-3.4969952 -2.3709226 -1.0247798 234 88 12
-3.482924 -2.3407474 -1.022509 234 88 12
-3.4766684 -2.3137991 -1.0213919 234 88 12
-3.4861276 -2.2930927 -1.0225928 234 88 12
-3.5174613 -2.2808416 -1.0270183 234 88 12
-3.5335999 -2.262496 -1.0292021 234 88 12
-3.544152 -2.2419021 -1.0305617 234 88 12
-3.5560887 -2.2217584 -1.0321248 234 88 12
-3.5676401 -2.2013874 -1.0336303 234 88 12
-3.5702462 -2.4747775 -1.060352 234 88 12
-3.5438454 -2.4390268 -1.0561506 234 88 12
-3.5014973 -2.396971 -1.0495359 234 88 12
-3.484628 -2.3655829 -1.0467817 234 88 12
-3.4762878 -2.3377604 -1.0453197 234 88 12
-3.4730327 -2.3120344 -1.0446279 234 88 12
-3.4789197 -2.2899406 -1.0453197 234 88 12
-3.5611081 -2.2975237 -1.0575538 234 88 12
-3.5691657 -2.473983 -1.0843476 234 88 12
-3.5114515 -2.4253092 -1.0751766 234 88 12
-3.477047 -2.3866365 -1.0696288 234 88 12
-3.47329 -2.3606617 -1.0688412 234 88 12
-3.4772232 -2.3378119 -1.0692475 234 88 12
-3.4805901 -2.3147168 -1.0695658 234 88 12
-3.4886944 -2.2934687 -1.0706189 234 88 12
-3.5601823 -2.2968464 -1.0815029 234 88 12
-3.5651135 -2.4719498 -1.1078546 234 88 12
-3.4841132 -2.4136827 -1.0947512 234 88 12
-3.4729095 -2.384613 -1.0927589 234 88 12
-3.4725437 -2.3600321 -1.0924915 234 88 12
-3.4749546 -2.3365784 -1.0926658 234 88 12
-3.4849505 -2.3161285 -1.094046 234 88 12
-3.4873955 -2.2926409 -1.0942253 234 88 12
-3.5609913 -2.2968447 -1.1057134 234 88 12
-3.5679312 -2.4727809 -1.1324431 234 88 12
-3.4841392 -2.4133582 -1.1185689 234 88 12
-3.4742875 -2.3848457 -1.1167488 234 88 12
-3.4734786 -2.3600836 -1.1164027 234 88 12
-3.4764752 -2.3368647 -1.1166766 234 88 12
-3.4861097 -2.3162687 -1.1180313 234 88 12
-3.4891346 -2.2930081 -1.1183093 234 88 12
-3.5320368 -2.4574769 -1.1505867 234 88 12
-3.5044901 -2.4214249 -1.14577 234 88 12
-3.4808214 -2.3871865 -1.141602 234 88 12
-3.4784548 -2.3617718 -1.1409879 234 88 12
-3.4899163 -2.3419313 -1.1426792 234 88 12
-3.4912345 -2.3179834 -1.1426792 234 88 12
-3.5504456 -2.3167961 -1.1523263 234 88 12
-3.5075228 -2.4469194 -1.1703904 234 88 12
-3.501199 -2.4197302 -1.1690855 234 88 12
-3.5025201 -2.3957269 -1.1690855 234 88 12
-3.5062511 -2.3726995 -1.1694965 234 88 12
-3.5125396 -2.3506787 -1.1703435 234 88 12
-3.5460722 -2.3394356 -1.1758355 234 88 12
-3.551451 -2.3168714 -1.1765257 234 88 12
-3.5008168 -2.4437852 -1.1931065 234 88 12
-3.4936073 -2.416261 -1.1916181 234 88 12
-3.4961162 -2.392777 -1.1918256 234 88 12
-3.5047827 -2.3717763 -1.193107 234 88 12
-3.5114229 -2.3499057 -1.1940345 234 88 12
-3.5433154 -2.3380179 -1.1993639 234 88 12
-3.5400424 -2.484498 -1.2241932 234 88 12
-3.4953916 -2.4411852 -1.2159926 234 88 12
-3.4944894 -2.4162896 -1.2155964 234 88 12
-3.4958644 -2.3923421 -1.2156063 234 88 12
-3.5033484 -2.3708675 -1.2167051 234 88 12
-3.5084615 -2.3483937 -1.2173809 234 88 12
-3.5431433 -2.3376267 -1.2233244 234 88 12
-3.4940832 -2.4648259 -1.2398204 234 88 12
-3.4818194 -2.4351921 -1.2373457 234 88 12
-3.4831362 -2.4112694 -1.2373457 234 88 12
-3.4958503 -2.3920047 -1.2394212 234 88 12
-3.5015621 -2.3698161 -1.2402209 234 88 12
-3.5076523 -2.3477445 -1.2410892 234 88 12
-3.5420203 -2.3368583 -1.2471035 234 88 12
-3.4809878 -2.458977 -1.2612025 234 88 12
-3.4790509 -2.4337008 -1.2605972 234 88 12
-3.4803669 -2.4097924 -1.2605972 234 88 12
-3.4874234 -2.3882296 -1.2616646 234 88 12
-3.4995518 -2.3686745 -1.2636743 234 88 12
-3.5079055 -2.3475213 -1.2649816 234 88 12
-3.5443833 -2.3374734 -1.2715143 234 88 12
-3.4798326 -2.4581494 -1.2847443 234 88 12
-3.4791541 -2.4334056 -1.2843655 234 88 12
-3.4813023 -2.4098439 -1.2845236 234 88 12
-3.4868906 -2.387681 -1.2853342 234 88 12
-3.4970484 -2.3673337 -1.2870116 234 88 12
-3.5337422 -2.3575499 -1.2937214 234 88 12
-3.4832938 -2.4592626 -1.3091643 234 88 12
-3.4816535 -2.4341085 -1.3085916 234 88 12
-3.4829695 -2.4101973 -1.3085916 234 88 12
-3.4884179 -2.3879743 -1.3093915 234 88 12
-3.4954538 -2.3663609 -1.3104985 234 88 12
-3.5351017 -2.3577688 -1.3179153 234 88 12
-3.4898615 -2.4616811 -1.3342173 234 88 12
-3.4853048 -2.4352908 -1.3330572 234 88 12
-3.4866216 -2.4113691 -1.3330572 234 88 12
-3.4918559 -2.3890476 -1.3338305 234 88 12
-3.4955132 -2.3660574 -1.3342923 234 88 12
-3.5369966 -2.3582022 -1.342218 234 88 12
-3.5044971 -2.4674895 -1.360938 234 88 12
-3.4934542 -2.4383454 -1.3584489 234 88 12
-3.4934707 -2.4138591 -1.358187 234 88 12
-3.4947886 -2.3899145 -1.358187 234 88 12
-3.4978244 -2.3666649 -1.3585325 234 88 12
-3.5156465 -2.4718316 -1.3870481 234 88 12
-3.5057318 -2.4431176 -1.3847429 234 88 12
-3.4993117 -2.4159327 -1.3831552 234 88 12
-3.497443 -2.3906677 -1.3825015 234 88 12
-3.5067899 -2.3699636 -1.3841475 234 88 12
-3.6425519 -2.3415179 -0.68985242 234 88 12
-3.6438429 -2.3093066 -0.68707216 234 88 12
-3.6626391 -2.2905104 -0.68707216 234 88 12
-3.614912 -2.3532836 -0.71522862 234 88 12
-3.615623 -2.320569 -0.71226358 234 88 12
-3.6322997 -2.3002093 -0.71192235 234 88 12
-3.6547508 -2.2842307 -0.71252209 234 88 12
-3.6856482 -2.2745306 -0.71448588 234 88 12
-3.5433362 -2.330766 -0.73307246 234 88 12
-3.5551877 -2.3068571 -0.73192245 234 88 12
-3.5739651 -2.288337 -0.731947 234 88 12
-3.6067755 -2.2804837 -0.73432738 234 88 12
-3.6403959 -2.2730737 -0.73682725 234 88 12
-3.6841722 -2.2730889 -0.74100399 234 88 12
-3.5195034 -2.345073 -0.75871366 234 88 12
-3.5226152 -2.3143456 -0.75600433 234 88 12
-3.536339 -2.2920003 -0.75515842 234 88 12
-3.5553803 -2.2737875 -0.75523973 234 88 12
-3.5794699 -2.2594068 -0.75619227 234 88 12
-3.6295097 -2.2645345 -0.76160479 234 88 12
-3.7182493 -2.2982547 -0.77361941 234 88 12
-3.4313195 -2.6145437 -0.80355978 234 88 12
-3.4429064 -2.5893188 -0.80218446 234 88 12
-3.4608781 -2.5695183 -0.80200005 234 88 12
-3.482533 -2.5527806 -0.80249596 234 88 12
-3.5027022 -2.3316102 -0.78222597 234 88 12
-3.5104141 -2.3045576 -0.78027558 234 88 12
-3.5261388 -2.283823 -0.77977037 234 88 12
-3.5468273 -2.2669256 -0.78015268 234 88 12
-3.5728722 -2.2540739 -0.78148311 234 88 12
-3.6171882 -2.254914 -0.78603691 234 88 12
-3.4246886 -2.6439006 -0.8329885 234 88 12
-3.4181576 -2.6031828 -0.82809448 234 88 12
-3.4243343 -2.5734856 -0.8256582 234 88 12
-3.4386568 -2.5507517 -0.82478696 234 88 12
-3.453104 -2.5281799 -0.8239454 234 88 12
-3.4704771 -2.508069 -0.8236618 234 88 12
-3.4855011 -2.486062 -0.8229385 234 88 12
-3.5041809 -2.467061 -0.82290524 234 88 12
-3.4942703 -2.324712 -0.80713409 234 88 12
-3.5054114 -2.3003714 -0.80576694 234 88 12
-3.5219548 -2.2802916 -0.80540061 234 88 12
-3.5430627 -2.2637324 -0.80587178 234 88 12
-3.5715487 -2.2527506 -0.80768484 234 88 12
-3.6268456 -2.2618704 -0.81435716 234 88 12
-3.4055612 -2.5923018 -0.85262084 234 88 12
-3.4196801 -2.5693576 -0.8516826 234 88 12
-3.4167807 -2.5322745 -0.84743172 234 88 12
-3.434027 -2.5121529 -0.84712601 234 88 12
-3.4515312 -2.4922633 -0.84687239 234 88 12
-3.4657753 -2.4697323 -0.84599137 234 88 12
-3.483058 -2.4497173 -0.84570086 234 88 12
-3.4979742 -2.4278214 -0.84495878 234 88 12
-3.5160046 -2.4084539 -0.84481663 234 88 12
-3.5347764 -2.3896818 -0.84481663 234 88 12
-3.4914718 -2.322232 -0.83304149 234 88 12
-3.5021021 -2.2975035 -0.83154261 234 88 12
-3.520123 -2.2785764 -0.83144623 234 88 12
-3.5391667 -2.2604389 -0.83154261 234 88 12
-3.5993936 -2.273596 -0.83934462 234 88 12
-3.6233833 -2.2589319 -0.84033608 234 88 12
-3.4272599 -2.6104841 -0.88394308 234 88 12
-3.4205582 -2.5698817 -0.8787843 234 88 12
-3.4127715 -2.5287075 -0.8734448 234 88 12
-3.4298811 -2.5084896 -0.87310582 234 88 12
-3.4434333 -2.4853711 -0.8720625 234 88 12
-3.4570756 -2.462393 -0.8710444 234 88 12
-3.4719505 -2.4404767 -0.87027651 234 88 12
-3.4834514 -2.4159007 -0.86885059 234 88 12
-3.4993958 -2.3949544 -0.86830509 234 88 12
-3.5175467 -2.3757858 -0.8681941 234 88 12
-3.4907711 -2.3213971 -0.85934258 234 88 12
-3.5056682 -2.2999849 -0.85863209 234 88 12
-3.5213091 -2.279191 -0.85807014 234 88 12
-3.5793903 -2.2909389 -0.8656854 234 88 12
-3.5984969 -2.2725952 -0.86576861 234 88 12
-3.6226492 -2.2580509 -0.86681646 234 88 12
-3.4136722 -2.5292368 -0.90043783 234 88 12
-3.4285414 -2.5071502 -0.89963096 234 88 12
-3.4399579 -2.4822772 -0.8981266 234 88 12
-3.4439991 -2.4514863 -0.89513606 234 88 12
-3.4520063 -2.4240894 -0.89296836 234 88 12
-3.4680574 -2.4032826 -0.89243668 234 88 12
-3.4836016 -2.3821049 -0.8918069 234 88 12
-3.4949636 -2.3576612 -0.89034438 234 88 12
-3.4919274 -2.3220184 -0.88602018 234 88 12
-3.5066822 -2.3004801 -0.88526183 234 88 12
-3.5290673 -2.2848783 -0.88602018 234 88 12
-3.5828726 -2.2932947 -0.8929764 234 88 12
-3.6020291 -2.2749598 -0.89306825 234 88 12
-3.630141 -2.2633719 -0.89491552 234 88 12
-3.4265461 -2.4370136 -0.91820115 234 88 12
-3.4423466 -2.4160221 -0.91760659 234 88 12
-3.4587064 -2.3955152 -0.9171316 234 88 12
-3.4753423 -2.375257 -0.91671669 234 88 12
-3.4776928 -2.3437362 -0.91337562 234 88 12
-3.4927602 -2.3223853 -0.91265589 234 88 12
-3.5100527 -2.3028085 -0.91239423 234 88 12
-3.5302675 -2.2855029 -0.91272748 234 88 12
-3.5813236 -2.2917964 -0.91929621 234 88 12
-3.6007078 -2.2736361 -0.91943634 234 88 12
-3.6206145 -2.2558615 -0.91968054 234 88 12
-3.6424029 -2.23948 -0.92029983 234 88 12
-3.4250915 -2.4355822 -0.94451153 234 88 12
-3.4410174 -2.4146926 -0.94392937 234 88 12
-3.4553685 -2.3925741 -0.94301844 234 88 12
-3.4690082 -2.3699427 -0.94196385 234 88 12
-3.4765732 -2.3425736 -0.93964118 234 88 12
-3.4932351 -2.3224719 -0.93923777 234 88 12
-3.5106442 -2.3029747 -0.93899292 234 88 12
-3.5316324 -2.2862542 -0.93949342 234 88 12
-3.564997 -2.2789822 -0.94255358 234 88 12
-3.5831101 -2.2599456 -0.94244528 234 88 12
-3.5998228 -2.2398596 -0.94204962 234 88 12
-3.6183736 -2.2211709 -0.94203353 234 88 12
-3.6365778 -2.2022259 -0.94194663 234 88 12
-3.6555302 -2.1838369 -0.94201267 234 88 12
-3.6752839 -2.1660295 -0.94224095 234 88 12
-3.6980264 -2.1503754 -0.94307226 234 88 12
-3.7192636 -2.1335919 -0.94359463 234 88 12
-3.4412725 -2.414645 -0.97059625 234 88 12
-3.4550893 -2.3920877 -0.96954715 234 88 12
-3.4726858 -2.3726003 -0.96932018 234 88 12
-3.4757414 -2.3416383 -0.9659707 234 88 12
-3.4933255 -2.3222566 -0.96575493 234 88 12
-3.5117204 -2.3035176 -0.96571362 234 88 12
-3.5312307 -2.2856419 -0.96590984 234 88 12
-3.5497448 -2.2669923 -0.96589357 234 88 12
-3.5670402 -2.2474177 -0.96561998 234 88 12
-3.58918 -2.2315102 -0.96636802 234 88 12
-3.6077783 -2.2129118 -0.96636802 234 88 12
-3.6253583 -2.1935582 -0.96615517 234 88 12
-3.6363091 -2.1693356 -0.96456218 234 88 12
-3.6522644 -2.1488569 -0.96401924 234 88 12
-3.6733568 -2.1321311 -0.96454334 234 88 12
-3.6935892 -2.114758 -0.96488655 234 88 12
-3.7153933 -2.0984874 -0.96555072 234 88 12
-3.7401698 -2.0842843 -0.96681982 234 88 12
-3.5039351 -2.3972092 -1.0028059 234 88 12
-3.4821875 -2.3464525 -0.99390441 234 88 12
-3.4927244 -2.3214993 -0.99213451 234 88 12
-3.5103354 -2.3021462 -0.99192059 234 88 12
-3.5251081 -2.2806149 -0.99109083 234 88 12
-3.5393641 -2.2587337 -0.99015468 234 88 12
-3.55358 -2.2368739 -0.98921621 234 88 12
-3.5722649 -2.2184341 -0.98924631 234 88 12
-3.6038988 -2.2096765 -0.99205488 234 88 12
-3.6195207 -2.1888847 -0.99142015 234 88 12
-3.6268637 -2.1620328 -0.989025 234 88 12
-3.6434388 -2.1420541 -0.98860717 234 88 12
-3.6619744 -2.1235185 -0.98860717 234 88 12
-3.6854675 -2.108547 -0.98965335 234 88 12
-3.6986508 -2.0861657 -0.98852408 234 88 12
-3.7195182 -2.0692823 -0.9890132 234 88 12
-3.7595739 -2.0658445 -0.99350888 234 88 12
-3.5596154 -2.4754279 -1.0464089 234 88 12
-3.4877117 -2.384021 -1.0259101 234 88 12
-3.4709995 -2.3373361 -1.0179526 234 88 12
-3.4795787 -2.3109093 -1.0157124 234 88 12
-3.4981289 -2.2923591 -1.0157124 234 88 12
-3.521883 -2.2778239 -1.0168695 234 88 12
-3.5337138 -2.2540979 -1.0153764 234 88 12
-3.5494726 -2.2334361 -1.014761 234 88 12
-3.5680082 -2.2149005 -1.014761 234 88 12
-3.6025746 -2.2083521 -1.0182778 234 88 12
-3.6206598 -2.1893883 -1.0181675 234 88 12
-3.6243265 -2.1598167 -1.0149159 234 88 12
-3.6414239 -2.1402264 -1.014603 234 88 12
-3.6599572 -2.1216931 -1.014603 234 88 12
-3.680356 -2.1045008 -1.0150055 234 88 12
-3.6973305 -2.0848453 -1.0146689 234 88 12
-3.7174349 -2.0674219 -1.0150055 234 88 12
-3.483139 -2.4138038 -1.0558736 234 88 12
-3.4603584 -2.3619742 -1.0463035 234 88 12
-3.4627922 -2.330575 -1.0425881 234 88 12
-3.476723 -2.3083856 -1.0415288 234 88 12
-3.4999139 -2.2934532 -1.0425881 234 88 12
-3.5252488 -2.2801187 -1.0441273 234 88 12
-3.5367198 -2.2560894 -1.0425166 234 88 12
-3.5488117 -2.2326167 -1.0410568 234 88 12
-3.5673497 -2.2140787 -1.0410568 234 88 12
-3.6442044 -2.1419008 -1.0416566 234 88 12
-3.6710451 -2.1293628 -1.0434912 234 88 12
-3.7009602 -2.1189404 -1.0459915 234 88 12
-3.714757 -2.0968943 -1.0449333 234 88 12
-3.4570899 -2.3926418 -1.076502 234 88 12
-3.4666095 -2.3666797 -1.0743476 234 88 12
-3.46806 -2.3344579 -1.070316 234 88 12
-3.4800308 -2.3106918 -1.0687705 234 88 12
-3.5105793 -2.3014522 -1.0715624 234 88 12
-3.5658381 -2.3111315 -1.0800706 234 88 12
-3.5879364 -2.2949851 -1.0808505 234 88 12
-3.451185 -2.3876417 -1.1017418 234 88 12
-3.4655664 -2.3655787 -1.1007141 234 88 12
-3.4707167 -2.3362777 -1.0974834 234 88 12
-3.4853199 -2.3145504 -1.0965304 234 88 12
-3.5091033 -2.3000097 -1.0977669 234 88 12
-3.5648408 -2.3100572 -1.106567 234 88 12
-3.5956984 -2.3006134 -1.1094316 234 88 12
-3.4558976 -2.3911588 -1.1295485 234 88 12
-3.4643676 -2.3643532 -1.1270453 234 88 12
-3.4707251 -2.3360057 -1.124043 234 88 12
-3.4879892 -2.3163555 -1.1237173 234 88 12
-3.5093749 -2.299926 -1.1243939 234 88 12
-3.5755918 -2.3180456 -1.135908 234 88 12
-3.4808671 -2.4448683 -1.1672276 234 88 12
-3.4829657 -2.4126067 -1.1630265 234 88 12
-3.4958603 -2.3891459 -1.1615548 234 88 12
-3.5109019 -2.3674533 -1.1606284 234 88 12
-3.5038679 -2.32851 -1.1542246 234 88 12
-3.5588622 -2.3381031 -1.1632204 234 88 12
-3.5814738 -2.3222768 -1.1641655 234 88 12
-3.4724305 -2.4377916 -1.1919762 234 88 12
-3.4822142 -2.4117391 -1.1896654 234 88 12
-3.4971576 -2.3899055 -1.1886867 234 88 12
-3.5150092 -2.3704157 -1.188454 234 88 12
-3.5352652 -2.3528209 -1.188832 234 88 12
-3.5582633 -2.3373396 -1.1898998 234 88 12
-3.595125 -2.3324995 -1.194448 234 88 12
-3.4717338 -2.4369714 -1.2186807 234 88 12
-3.4804168 -2.4100325 -1.2160374 234 88 12
-3.4976778 -2.3900464 -1.2156428 234 88 12
-3.5154209 -2.3704593 -1.2153758 234 88 12
-3.5367539 -2.3536975 -1.2160376 234 88 12
-3.5603931 -2.338697 -1.2172885 234 88 12
-3.4615843 -2.4625945 -1.2478987 234 88 12
-3.4704199 -2.4356525 -1.245227 234 88 12
-3.4795895 -2.4091041 -1.2426627 234 88 12
-3.4963403 -2.3887088 -1.2421249 234 88 12
-3.5153801 -2.3701458 -1.2421952 234 88 12
-3.5369961 -2.3535974 -1.242943 234 88 12
-3.5633266 -2.3406789 -1.244922 234 88 12
-3.454298 -2.4564106 -1.2728662 234 88 12
-3.4690797 -2.4343123 -1.2717664 234 88 12
-3.4792814 -2.4085922 -1.2694337 234 88 12
-3.4964156 -2.3884954 -1.2689884 234 88 12
-3.5157609 -2.3701649 -1.269141 234 88 12
-3.5428801 -2.3579166 -1.2713763 234 88 12
-3.5694509 -2.34514 -1.2734498 234 88 12
-3.4548116 -2.4565799 -1.2999407 234 88 12
-3.4659498 -2.4315257 -1.2978104 234 88 12
-3.4786656 -2.4078333 -1.2961301 234 88 12
-3.4967272 -2.3884702 -1.2959309 234 88 12
-3.516109 -2.3701577 -1.2960945 234 88 12
-3.5473518 -2.3611283 -1.299495 234 88 12
-3.5817857 -2.3544266 -1.3037403 234 88 12
-3.4609544 -2.4613338 -1.3286254 234 88 12
-3.464186 -2.4298432 -1.3242215 234 88 12
-3.4790084 -2.4078429 -1.3231028 234 88 12
-3.4965832 -2.3880818 -1.3227621 234 88 12
-3.5167625 -2.3703918 -1.32315 234 88 12
-3.5529418 -2.3652158 -1.3279817 234 88 12
-3.481817 -2.4780743 -1.3616213 234 88 12
-3.4663475 -2.4313328 -1.351754 234 88 12
-3.4790277 -2.4075928 -1.3499998 234 88 12
-3.4966307 -2.387846 -1.3496598 234 88 12
-3.5184035 -2.3714049 -1.3505055 234 88 12
-3.5570819 -2.3681669 -1.3561267 234 88 12
-3.4795277 -2.441725 -1.3825364 234 88 12
-3.4798241 -2.4079659 -1.3771363 234 88 12
-3.4985693 -2.3891141 -1.3771192 234 88 12
-3.5220244 -2.3739805 -1.378462 234 88 12
-3.5647814 -2.3739047 -1.3853499 234 88 12
-3.4930108 -2.4182713 -1.4079583 234 88 12
-3.5061114 -2.394839 -1.4062624 234 88 12
-3.5315742 -2.3812346 -1.408209 234 88 12
-3.6204541 -2.3369386 -0.70333976 234 88 12
-3.618005 -2.3066204 -0.70384157 234 88 12
-3.6342201 -2.2873805 -0.70366865 234 88 12
-3.6576674 -2.2722991 -0.7032361 234 88 12
-3.5726769 -2.3365946 -0.72819597 234 88 12
-3.5619569 -2.3014948 -0.72890651 234 88 12
-3.5811925 -2.2843175 -0.72865218 234 88 12
-3.6120095 -2.2738521 -0.72802758 234 88 12
-3.6521025 -2.2685909 -0.7271086 234 88 12
-3.5227845 -2.3345482 -0.75276601 234 88 12
-3.5239098 -2.3066847 -0.75305241 234 88 12
-3.5317457 -2.2829189 -0.75314867 234 88 12
-3.5479114 -2.2641096 -0.75301021 234 88 12
-3.575079 -2.2517011 -0.75256354 234 88 12
-3.6364188 -2.2590027 -0.75116116 234 88 12
-3.5119927 -2.3273706 -0.77629453 234 88 12
-3.510988 -2.2983177 -0.77659118 234 88 12
-3.5221996 -2.2766623 -0.77659118 234 88 12
-3.5391724 -2.2584114 -0.77645206 234 88 12
-3.5642986 -2.2448831 -0.77611709 234 88 12
-3.6282346 -2.2537773 -0.77485007 234 88 12
-3.4437211 -2.6015859 -0.79831618 234 88 12
-3.4506719 -2.5768304 -0.79840678 234 88 12
-3.4702885 -2.560358 -0.79823554 234 88 12
-3.499579 -2.3192151 -0.79971123 234 88 12
-3.5074751 -2.2956054 -0.7997781 234 88 12
-3.518666 -2.2739904 -0.7997781 234 88 12
-3.5410051 -2.2589622 -0.79955328 234 88 12
-3.5708015 -2.2481954 -0.7991792 234 88 12
-3.4208121 -2.6146762 -0.82184374 234 88 12
-3.4137385 -2.5807331 -0.82214957 234 88 12
-3.4242675 -2.5585144 -0.82216167 234 88 12
-3.4355228 -2.5367751 -0.82216167 234 88 12
-3.4494219 -2.5167418 -0.82211787 234 88 12
-3.4688716 -2.5002353 -0.82198256 234 88 12
-3.5728002 -2.3916883 -0.82139039 234 88 12
-3.494242 -2.3153477 -0.82285553 234 88 12
-3.5053461 -2.2937262 -0.82285666 234 88 12
-3.5183418 -2.2732322 -0.82282704 234 88 12
-3.5404353 -2.2580945 -0.82265013 234 88 12
-3.5934949 -2.260994 -0.82197315 234 88 12
-3.4192851 -2.6125779 -0.84509033 234 88 12
-3.4171605 -2.5819516 -0.84525901 234 88 12
-3.426044 -2.5586743 -0.84528875 234 88 12
-3.4233406 -2.5278885 -0.84546357 234 88 12
-3.4308274 -2.5038171 -0.8455103 234 88 12
-3.4498866 -2.48719 -0.84541225 234 88 12
-3.4610999 -2.4655018 -0.84541237 234 88 12
-3.472383 -2.4438577 -0.84541166 234 88 12
-3.4893246 -2.4257495 -0.84534067 234 88 12
-3.5034609 -2.4058454 -0.84530473 234 88 12
-3.5209186 -2.3879554 -0.8452279 234 88 12
-3.5406392 -2.3713849 -0.84512335 234 88 12
-3.4980571 -2.3170226 -0.84578681 234 88 12
-3.5092235 -2.2954552 -0.84578681 234 88 12
-3.5234449 -2.2757072 -0.84574932 234 88 12
-3.5797653 -2.2807946 -0.84519631 234 88 12
-3.5994494 -2.263984 -0.84509331 234 88 12
-3.4395142 -2.6249561 -0.86807901 234 88 12
-3.4249644 -2.5860639 -0.8682996 234 88 12
-3.4333391 -2.5624514 -0.8683241 234 88 12
-3.4191246 -2.5241861 -0.86854053 234 88 12
-3.4298773 -2.5022795 -0.86854422 234 88 12
-3.4404175 -2.4802418 -0.86854976 234 88 12
-3.4516098 -2.4586244 -0.86854976 234 88 12
-3.4656081 -2.4387741 -0.8685261 234 88 12
-3.4766695 -2.4170609 -0.86852723 234 88 12
-3.4878669 -2.3954334 -0.86852723 234 88 12
-3.5014844 -2.3752942 -0.86850697 234 88 12
-3.5171306 -2.3563685 -0.86846977 234 88 12
-3.4956737 -2.3149471 -0.86874264 234 88 12
-3.5068214 -2.2934155 -0.86874264 234 88 12
-3.5306933 -2.27946 -0.86863679 234 88 12
-3.5818965 -2.2815213 -0.86830431 234 88 12
-3.6010218 -2.2644076 -0.86823905 234 88 12
-3.4613054 -2.5797651 -0.89126682 234 88 12
-3.4263873 -2.5279462 -0.89147347 234 88 12
-3.4371395 -2.5060396 -0.89147544 234 88 12
-3.4476037 -2.483953 -0.89147872 234 88 12
-3.4587958 -2.4623358 -0.89147872 234 88 12
-3.4465251 -2.4259443 -0.89158285 234 88 12
-3.4574792 -2.404295 -0.89158368 234 88 12
-3.4713368 -2.3844471 -0.8915717 234 88 12
-3.4850447 -2.3644805 -0.89156044 234 88 12
-3.4885285 -2.338253 -0.89159423 234 88 12
-3.4944391 -2.3135688 -0.89161718 234 88 12
-3.5108113 -2.2952142 -0.89159423 234 88 12
-3.559458 -2.2960212 -0.89143002 234 88 12
-3.5824878 -2.2813399 -0.89137834 234 88 12
-3.6039944 -2.2656524 -0.89133358 234 88 12
-3.4604206 -2.4912655 -0.91440445 234 88 12
-3.4317942 -2.4443541 -0.91442251 234 88 12
-3.4351902 -2.4179995 -0.91442603 234 88 12
-3.4464917 -2.3966596 -0.91442597 234 88 12
-3.4607003 -2.3771191 -0.91442454 234 88 12
-3.4779329 -2.3594069 -0.9144218 234 88 12
-3.4897223 -2.3383152 -0.9144215 234 88 12
-3.4948299 -2.3131754 -0.91442418 234 88 12
-3.5079911 -2.2929268 -0.91442329 234 88 12
-3.5304539 -2.2781947 -0.91441822 234 88 12
-3.5823491 -2.2807283 -0.91440004 234 88 12
-3.601563 -2.2637334 -0.91439652 234 88 12
-3.4284906 -2.4414163 -0.93717706 234 88 12
-3.4393563 -2.4198167 -0.93717623 234 88 12
-3.4507005 -2.3985183 -0.93717706 234 88 12
-3.4648681 -2.378967 -0.93718779 234 88 12
-3.4750211 -2.3569181 -0.93718445 234 88 12
-3.4862499 -2.3355343 -0.93718487 234 88 12
-3.4951804 -2.3127594 -0.9371773 234 88 12
-3.5089869 -2.2929311 -0.93718666 234 88 12
-3.5356452 -2.2807248 -0.93724072 234 88 12
-3.564642 -2.2697484 -0.93730265 234 88 12
-3.5843525 -2.2531636 -0.93733221 234 88 12
-3.6007915 -2.2345974 -0.93735039 234 88 12
-3.6193657 -2.2172108 -0.93737578 234 88 12
-3.6370785 -2.1992619 -0.9373982 234 88 12
-3.4468002 -2.4236975 -0.95992678 234 88 12
-3.4609089 -2.4041238 -0.95994925 234 88 12
-3.4720767 -2.382699 -0.95994967 234 88 12
-3.4822285 -2.3606496 -0.95994258 234 88 12
-3.4885333 -2.3362641 -0.95990688 234 88 12
-3.4996331 -2.3148253 -0.95990688 234 88 12
-3.5134723 -2.2950299 -0.95992714 234 88 12
-3.5326226 -2.2783678 -0.95998657 234 88 12
-3.5527349 -2.2621958 -0.96005291 234 88 12
-3.5696125 -2.2440441 -0.96009511 234 88 12
-3.5856626 -2.2253568 -0.96013117 234 88 12
-3.6027641 -2.2072284 -0.96017474 234 88 12
-3.6204474 -2.1893759 -0.96022242 234 88 12
-3.6343894 -2.1693425 -0.96024257 234 88 12
-3.6506293 -2.150574 -0.96027941 234 88 12
-3.6717579 -2.1344807 -0.96035171 234 88 12
-3.6867042 -2.1148803 -0.96037877 234 88 12
-3.7089796 -2.0992584 -0.96045893 234 88 12
-3.595722 -2.4585364 -0.98403901 234 88 12
-3.5130508 -2.3788888 -0.98296934 234 88 12
-3.4924951 -2.3380182 -0.98260921 234 88 12
-3.499609 -2.3141854 -0.98256409 234 88 12
-3.510911 -2.2929027 -0.98256654 234 88 12
-3.5219972 -2.2714899 -0.98256654 234 88 12
-3.5352783 -2.2513721 -0.98259133 234 88 12
-3.5517492 -2.2330999 -0.98265183 234 88 12
-3.5694039 -2.2154639 -0.98272538 234 88 12
-3.6055639 -2.20842 -0.98300606 234 88 12
-3.6167245 -2.1868634 -0.98300606 234 88 12
-3.6234844 -2.1628149 -0.98295695 234 88 12
-3.6341062 -2.1409764 -0.98295105 234 88 12
-3.647718 -2.1208081 -0.9829784 234 88 12
-3.6747522 -2.1080289 -0.98315465 234 88 12
-3.6887527 -2.087965 -0.98318583 234 88 12
-3.70436 -2.0687475 -0.9832347 234 88 12
-3.7454646 -2.0632148 -0.98356479 234 88 12
-3.5203283 -2.4111116 -1.0059922 234 88 12
-3.493479 -2.366169 -1.0054103 234 88 12
-3.4784009 -2.3287706 -1.0050105 234 88 12
-3.4814367 -2.3025763 -1.0048883 234 88 12
-3.5141547 -2.2942588 -1.0052181 234 88 12
-3.5272202 -2.2740421 -1.0052483 234 88 12
-3.5370076 -2.2518723 -1.0052286 234 88 12
-3.5467536 -2.2296906 -1.0052085 234 88 12
-3.561764 -2.2105772 -1.0052679 234 88 12
-3.6120768 -2.2117498 -1.005859 234 88 12
-3.6239653 -2.1906123 -1.00587 234 88 12
-3.6301897 -2.1662607 -1.0057958 234 88 12
-3.6399131 -2.1439204 -1.0057745 234 88 12
-3.6530244 -2.1234801 -1.0058038 234 88 12
-3.6815908 -2.1115551 -1.0060638 234 88 12
-3.695375 -2.0913749 -1.0061026 234 88 12
-3.7065649 -2.0697618 -1.0061026 234 88 12
-3.7500224 -2.0655181 -1.0065815 234 88 12
-3.5050166 -2.4008992 -1.0284531 234 88 12
-3.4681849 -2.3499413 -1.0275315 234 88 12
-3.4678354 -2.3216774 -1.0273131 234 88 12
-3.4788542 -2.300395 -1.0273131 234 88 12
-3.5077217 -2.289814 -1.0276541 234 88 12
-3.5344105 -2.2777648 -1.0279522 234 88 12
-3.5428631 -2.2548077 -1.0279022 234 88 12
-3.5539405 -2.2334116 -1.0279022 234 88 12
-3.5689559 -2.2143009 -1.0279769 234 88 12
-3.6398888 -2.1714017 -1.0286872 234 88 12
-3.6491077 -2.1487665 -1.0286508 234 88 12
-3.6621935 -2.1283028 -1.028687 234 88 12
-3.690084 -2.1159949 -1.0290008 234 88 12
-3.7032738 -2.0954833 -1.0290382 234 88 12
-3.7188919 -2.0762713 -1.0291209 234 88 12
-3.5493095 -2.4562094 -1.0523783 234 88 12
-3.4789481 -2.3840353 -1.0504885 234 88 12
-3.4674144 -2.3487787 -1.049966 234 88 12
-3.4702964 -2.3225234 -1.0497781 234 88 12
-3.4813061 -2.3012583 -1.0497781 234 88 12
-3.5148926 -2.2935266 -1.050297 234 88 12
-3.5664315 -2.2962525 -1.0512259 234 88 12
-3.4772351 -2.4104881 -1.0732229 234 88 12
-3.4598036 -2.371464 -1.0724515 234 88 12
-3.4686902 -2.3488741 -1.0723939 234 88 12
-3.4751766 -2.3248434 -1.0722718 234 88 12
-3.4871321 -2.3041606 -1.0722973 234 88 12
-3.54268 -2.3095953 -1.0734937 234 88 12
-3.5679827 -2.2966201 -1.0738746 234 88 12
-3.4594395 -2.398632 -1.0951322 234 88 12
-3.4634984 -2.3730285 -1.0949166 234 88 12
-3.4710538 -2.3496387 -1.0948098 234 88 12
-3.4777575 -2.3257639 -1.0946771 234 88 12
-3.488754 -2.3045239 -1.0946771 234 88 12
-3.5186701 -2.2946212 -1.0952584 234 88 12
-3.5723982 -2.2986915 -1.0965675 234 88 12
-3.4665923 -2.4023354 -1.117718 234 88 12
-3.4726405 -2.3779631 -1.1175445 234 88 12
-3.4775088 -2.352915 -1.1173308 234 88 12
-3.4846134 -2.329288 -1.1171955 234 88 12
-3.4958887 -2.3082178 -1.1172051 234 88 12
-3.5251472 -2.2979193 -1.1178366 234 88 12
-3.5849061 -2.3055732 -1.119518 234 88 12
-3.4890854 -2.4155996 -1.1408987 234 88 12
-3.4847701 -2.3847444 -1.1403037 234 88 12
-3.492481 -2.3614171 -1.1401757 234 88 12
-3.4956515 -2.3353579 -1.139873 234 88 12
-3.5085561 -2.3152528 -1.1399462 234 88 12
-3.5675936 -2.3227644 -1.1417913 234 88 12
-3.4953156 -2.4470148 -1.1639768 234 88 12
-3.4876406 -2.4139435 -1.1631771 234 88 12
-3.4952447 -2.3905015 -1.163031 234 88 12
-3.5064445 -2.3692982 -1.1630381 234 88 12
-3.5217035 -2.3505638 -1.1632174 234 88 12
-3.5452898 -2.3368161 -1.1637485 234 88 12
-3.5659893 -2.3212187 -1.1641556 234 88 12
-3.4829354 -2.4384501 -1.1857507 234 88 12
-3.4853566 -2.4117668 -1.1853499 234 88 12
-3.4933753 -2.3886273 -1.1852107 234 88 12
-3.505569 -2.3680775 -1.1852653 234 88 12
-3.5236893 -2.3511224 -1.1855938 234 88 12
-3.5518754 -2.3401749 -1.1863859 234 88 12
-3.5730107 -2.3248405 -1.18685 234 88 12
-3.4825196 -2.4374013 -1.2079774 234 88 12
-3.4850059 -2.4107966 -1.2075474 234 88 12
-3.4929543 -2.3876507 -1.2073938 234 88 12
-3.5049374 -2.3670082 -1.2074431 234 88 12
-3.523345 -2.3502645 -1.207814 234 88 12
-3.5505259 -2.3387446 -1.2086221 234 88 12
-3.4719582 -2.429987 -1.2295947 234 88 12
-3.481854 -2.4080839 -1.2295355 234 88 12
-3.4928396 -2.3868651 -1.2295355 234 88 12
-3.5041461 -2.3658428 -1.2295527 234 88 12
-3.5251622 -2.3507233 -1.2300934 234 88 12
-3.5531914 -2.3397388 -1.2310092 234 88 12
-3.4658399 -2.4534719 -1.251973 234 88 12
-3.4713387 -2.4288158 -1.2516541 234 88 12
-3.4806011 -2.4065564 -1.2515548 234 88 12
-3.4915709 -2.3853683 -1.2515548 234 88 12
-3.506856 -2.3668253 -1.2518044 234 88 12
-3.531621 -2.3540056 -1.2526 234 88 12
-3.5566733 -2.3412268 -1.2534091 234 88 12
-3.4656556 -2.4525394 -1.2740203 234 88 12
-3.4708998 -2.4277601 -1.2736654 234 88 12
-3.4801898 -2.4055548 -1.2735622 234 88 12
-3.490005 -2.3836904 -1.2734917 234 88 12
-3.5052183 -2.3651445 -1.2737544 234 88 12
-3.5419137 -2.3596191 -1.2753372 234 88 12
-3.5643387 -2.3452389 -1.2760381 234 88 12
-3.4684925 -2.4535189 -1.2962106 234 88 12
-3.4750345 -2.4295752 -1.2959199 234 88 12
-3.4802403 -2.4048426 -1.2955425 234 88 12
-3.4911823 -2.3837082 -1.2955425 234 88 12
-3.5069396 -2.3655238 -1.2958575 234 88 12
-3.5407445 -2.3582644 -1.2973499 234 88 12
-3.4748266 -2.4567094 -1.3186123 234 88 12
-3.4772854 -2.4302096 -1.3180206 234 88 12
-3.4832096 -2.4059484 -1.3176719 234 88 12
-3.492871 -2.3840432 -1.3175836 234 88 12
-3.508045 -2.3655272 -1.3178772 234 88 12
-3.5478776 -2.3619573 -1.3198732 234 88 12
-3.4825318 -2.4607666 -1.3411089 234 88 12
-3.4804988 -2.4314489 -1.340155 234 88 12
-3.4837091 -2.405519 -1.3395889 234 88 12
-3.4946311 -2.3844237 -1.3395889 234 88 12
-3.5108955 -2.3666005 -1.3399789 234 88 12
-3.5601439 -2.3687699 -1.3427706 234 88 12
-3.4945927 -2.4675748 -1.3639469 234 88 12
-3.4881275 -2.4354568 -1.3626008 234 88 12
-3.4896379 -2.4084678 -1.3618745 234 88 12
-3.5005574 -2.3873768 -1.3618745 234 88 12
-3.5152643 -2.3686049 -1.3621652 234 88 12
-3.5076613 -2.4750183 -1.3869042 234 88 12
-3.5033596 -2.4442291 -1.3856665 234 88 12
-3.4998965 -2.4141097 -1.3845012 234 88 12
-3.5108221 -2.393007 -1.3845012 234 88 12
-3.5249381 -2.3738575 -1.3847581 234 88 12
-3.525768 -2.4574959 -1.4094018 234 88 12
-3.5263584 -2.4298244 -1.4085226 234 88 12
-3.5284102 -2.4031541 -1.4077703 234 88 12
-3.6219034 -2.3045821 -0.69959712 234 88 12
-3.6386423 -2.29074 -0.69975615 234 88 12
-3.6648617 -2.2858787 -0.6994884 234 88 12
-3.589128 -2.3064611 -0.7217505 234 88 12
-3.6052723 -2.2921267 -0.72191578 234 88 12
-3.6302722 -2.2862506 -0.72172028 234 88 12
-3.6608813 -2.2856078 -0.72129983 234 88 12
-3.7067778 -2.2991676 -0.72026759 234 88 12
-3.5328033 -2.3152053 -0.74388945 234 88 12
-3.5401485 -2.2924142 -0.74435639 234 88 12
-3.5544612 -2.2764912 -0.74456578 234 88 12
-3.5773869 -2.2688777 -0.74446112 234 88 12
-3.6139436 -2.2741816 -0.74386519 234 88 12
-3.6526251 -2.2812893 -0.74319792 234 88 12
-3.708421 -2.3042254 -0.74192345 234 88 12
-3.509208 -2.3255241 -0.76545215 234 88 12
-3.5133705 -2.2995811 -0.76596445 234 88 12
-3.524755 -2.280843 -0.76624101 234 88 12
-3.5404913 -2.2664063 -0.76637644 234 88 12
-3.5640404 -2.2595003 -0.76626265 234 88 12
-3.5942972 -2.2589293 -0.76593757 234 88 12
-3.6440184 -2.2766228 -0.76500219 234 88 12
-3.7198615 -2.3184779 -0.76325524 234 88 12
-3.5036438 -2.3233669 -0.78700906 234 88 12
-3.5033388 -2.293107 -0.78757137 234 88 12
-3.5177536 -2.2773888 -0.78772396 234 88 12
-3.5376918 -2.267066 -0.78772396 234 88 12
-3.5639284 -2.2627759 -0.78755218 234 88 12
-3.591192 -2.2593856 -0.78735387 234 88 12
-3.6447856 -2.2808027 -0.78644508 234 88 12
-3.4311621 -2.5972223 -0.80475587 234 88 12
-3.4419172 -2.5760586 -0.80499667 234 88 12
-3.4582691 -2.5608761 -0.80510044 234 88 12
-3.4789026 -2.5501933 -0.80510044 234 88 12
-3.4907205 -2.3139565 -0.80865413 234 88 12
-3.5007508 -2.293889 -0.80888385 234 88 12
-3.5129788 -2.2760823 -0.80906105 234 88 12
-3.5386484 -2.2713406 -0.80892903 234 88 12
-3.5674002 -2.2694821 -0.80872786 234 88 12
-3.6001294 -2.2713025 -0.80843806 234 88 12
-3.6452045 -2.2846491 -0.80787152 234 88 12
-3.4140642 -2.6148901 -0.82670826 234 88 12
-3.4113085 -2.5793469 -0.82716697 234 88 12
-3.4243622 -2.5607584 -0.82731378 234 88 12
-3.432214 -2.5368412 -0.82756013 234 88 12
-3.4469211 -2.5202131 -0.82767195 234 88 12
-3.4632368 -2.5053229 -0.82775187 234 88 12
-3.475873 -2.4867208 -0.82790154 234 88 12
-3.4926648 -2.4724522 -0.82797068 234 88 12
-3.4891365 -2.3156869 -0.82993853 234 88 12
-3.4990802 -2.2955604 -0.83012438 234 88 12
-3.5146184 -2.2809973 -0.83020526 234 88 12
-3.5363438 -2.2724631 -0.83017159 234 88 12
-3.5762126 -2.2813113 -0.82980567 234 88 12
-3.5961998 -2.2709632 -0.82980567 234 88 12
-3.6241331 -2.2681398 -0.82966125 234 88 12
-3.4096472 -2.6132936 -0.8487798 234 88 12
-3.4101677 -2.5812616 -0.84907776 234 88 12
-3.4174845 -2.5566647 -0.84927297 234 88 12
-3.4164257 -2.5234971 -0.84958923 234 88 12
-3.4274356 -2.50316 -0.84972656 234 88 12
-3.4475265 -2.4923186 -0.84973067 234 88 12
-3.4513495 -2.4648108 -0.8499701 234 88 12
-3.4675729 -2.4501498 -0.85002887 234 88 12
-3.4800353 -2.4317391 -0.85014105 234 88 12
-3.4929357 -2.4138722 -0.85024595 234 88 12
-3.5113406 -2.4015963 -0.85027176 234 88 12
-3.5262764 -2.3859031 -0.85034639 234 88 12
-3.488277 -2.3181243 -0.85116673 234 88 12
-3.5025434 -2.3022497 -0.85124636 234 88 12
-3.5180786 -2.2876804 -0.85130757 234 88 12
-3.5514889 -2.2904382 -0.85111946 234 88 12
-3.5788929 -2.2872612 -0.85101616 234 88 12
-3.597554 -2.2756529 -0.85103446 234 88 12
-3.6217532 -2.2693095 -0.85097641 234 88 12
-3.4184709 -2.5931807 -0.87084883 234 88 12
-3.4210517 -2.5635545 -0.87102878 234 88 12
-3.4106045 -2.5205524 -0.87133664 234 88 12
-3.427089 -2.5059619 -0.87137514 234 88 12
-3.4332478 -2.4807661 -0.87151515 234 88 12
-3.4485698 -2.4651592 -0.87156397 234 88 12
-3.4589825 -2.4446182 -0.87166029 234 88 12
-3.4709578 -2.4257901 -0.87174064 234 88 12
-3.478462 -2.4025757 -0.87186354 234 88 12
-3.492187 -2.3857417 -0.87192541 234 88 12
-3.5106306 -2.3736737 -0.87194145 234 88 12
-3.4905691 -2.323663 -0.8723256 234 88 12
-3.5014396 -2.3044651 -0.87241191 234 88 12
-3.5213344 -2.2941649 -0.87241191 234 88 12
-3.5623369 -2.3042746 -0.87221259 234 88 12
-3.5774815 -2.289279 -0.87225807 234 88 12
-3.597445 -2.2789433 -0.87225807 234 88 12
-3.6240807 -2.2749357 -0.87219584 234 88 12
-3.4166851 -2.5300517 -0.89293349 234 88 12
-3.4306293 -2.5128 -0.89296705 234 88 12
-3.4367774 -2.4875832 -0.89304084 234 88 12
-3.4520955 -2.4719691 -0.89306653 234 88 12
-3.4542756 -2.4430287 -0.89315963 234 88 12
-3.4509943 -2.4087987 -0.89327985 234 88 12
-3.4668388 -2.3941224 -0.89330155 234 88 12
-3.4779823 -2.3748021 -0.89334691 234 88 12
-3.4895434 -2.3560131 -0.89338976 234 88 12
-3.4846461 -2.3210943 -0.89351511 234 88 12
-3.5022566 -2.308557 -0.89352655 234 88 12
-3.5221403 -2.2982626 -0.89352655 234 88 12
-3.5622532 -2.307543 -0.893426 234 88 12
-3.5791371 -2.2942386 -0.89344126 234 88 12
-3.599093 -2.2839067 -0.89344126 234 88 12
-3.6241548 -2.2784212 -0.89341617 234 88 12
-3.4587779 -2.4820201 -0.91456747 234 88 12
-3.4282646 -2.4196959 -0.91459411 234 88 12
-3.4416282 -2.4025149 -0.91459763 234 88 12
-3.45455 -2.3849776 -0.91460133 234 88 12
-3.469353 -2.369415 -0.91460401 234 88 12
-3.4829953 -2.3527668 -0.91460729 234 88 12
-3.4827516 -2.3224902 -0.91461766 234 88 12
-3.4975321 -2.3072095 -0.91462028 234 88 12
-3.5177436 -2.2972863 -0.9146201 234 88 12
-3.5400848 -2.2894208 -0.91461885 234 88 12
-3.5760107 -2.2945948 -0.91461074 234 88 12
-3.5957785 -2.2841239 -0.9146108 234 88 12
-3.617841 -2.2758346 -0.91460973 234 88 12
-3.4268477 -2.4214275 -0.93585682 234 88 12
-3.4427578 -2.406857 -0.93583995 234 88 12
-3.4508891 -2.3845038 -0.93579173 234 88 12
-3.4703095 -2.3736064 -0.93578953 234 88 12
-3.4791601 -2.3522048 -0.93574482 234 88 12
-3.4792073 -2.3222482 -0.93566531 234 88 12
-3.4971278 -2.310091 -0.93565762 234 88 12
-3.5168173 -2.2996836 -0.93565708 234 88 12
-3.5390871 -2.2917781 -0.93566668 234 88 12
-3.5602148 -2.2827427 -0.93567175 234 88 12
-3.5770023 -2.2695396 -0.93565977 234 88 12
-3.5966032 -2.2590477 -0.93565887 234 88 12
-3.6081562 -2.2409582 -0.93562669 234 88 12
-3.6261659 -2.2290275 -0.93561977 234 88 12
-3.645505 -2.2183576 -0.93561804 234 88 12
-3.4352441 -2.4331763 -0.95715958 234 88 12
-3.4470766 -2.4144323 -0.95708829 234 88 12
-3.45575 -2.392612 -0.95699042 234 88 12
-3.473783 -2.3803153 -0.95697373 234 88 12
-3.4826252 -2.3588977 -0.9568786 234 88 12
-3.4807444 -2.3270209 -0.95669305 234 88 12
-3.4960313 -2.3122876 -0.95665449 234 88 12
-3.5147507 -2.3009617 -0.95664531 234 88 12
-3.5329084 -2.2891049 -0.95663142 234 88 12
-3.5500069 -2.2762482 -0.95660877 234 88 12
-3.5647557 -2.2611752 -0.95656681 234 88 12
-3.5776796 -2.2444279 -0.95651001 234 88 12
-3.5904391 -2.2276084 -0.95645231 234 88 12
-3.6040998 -2.211719 -0.95640248 234 88 12
-3.6172042 -2.1953831 -0.95634854 234 88 12
-3.6344032 -2.1829216 -0.95632845 234 88 12
-3.6513851 -2.1702893 -0.95630676 234 88 12
-3.6647828 -2.1544063 -0.95625621 234 88 12
-3.6817915 -2.1418805 -0.95623523 234 88 12
-3.7013953 -2.131731 -0.95623523 234 88 12
-3.720999 -2.1215813 -0.95623523 234 88 12
-3.4841933 -2.3336828 -0.97772843 234 88 12
-3.4959173 -2.3154433 -0.97762334 234 88 12
-3.5097878 -2.2994032 -0.97754687 234 88 12
-3.5209861 -2.2808442 -0.97743672 234 88 12
-3.533551 -2.2637095 -0.97734499 234 88 12
-3.5482941 -2.2487502 -0.97728175 234 88 12
-3.5609241 -2.2318401 -0.97719222 234 88 12
-3.5862958 -2.2270677 -0.9772644 234 88 12
-3.5960004 -2.2075016 -0.97713888 234 88 12
-3.6121516 -2.1940751 -0.97709513 234 88 12
-3.6230128 -2.1757805 -0.97698575 234 88 12
-3.6269796 -2.1512315 -0.97679156 234 88 12
-3.6405785 -2.1356907 -0.97671819 234 88 12
-3.6592696 -2.1248546 -0.97670817 234 88 12
-3.6755173 -2.1118169 -0.97666824 234 88 12
-3.6940975 -2.1009135 -0.97665715 234 88 12
-3.7124443 -2.0898118 -0.97664332 234 88 12
-3.7319224 -2.0797272 -0.97664332 234 88 12
-3.5077338 -2.3903997 -0.9994657 234 88 12
-3.4788365 -2.3316257 -0.99860966 234 88 12
-3.4885957 -2.3115039 -0.99843472 234 88 12
-3.5027511 -2.2958062 -0.99833757 234 88 12
-3.5169139 -2.2801857 -0.99824136 234 88 12
-3.525028 -2.2587979 -0.99804181 234 88 12
-3.5351393 -2.2394679 -0.99787819 234 88 12
-3.5507512 -2.2254949 -0.99780977 234 88 12
-3.5703523 -2.2153468 -0.99780977 234 88 12
-3.599416 -2.2140987 -0.99796999 234 88 12
-3.6155646 -2.2006674 -0.9979111 234 88 12
-3.6157751 -2.1724753 -0.99758512 234 88 12
-3.6234765 -2.1514242 -0.99738699 234 88 12
-3.6395364 -2.1381757 -0.99732971 234 88 12
-3.6554375 -2.1248221 -0.99727029 234 88 12
-3.6742544 -2.1141503 -0.9972595 234 88 12
-3.681519 -2.0930903 -0.99705863 234 88 12
-3.6976116 -2.0800622 -0.99700409 234 88 12
-3.7176061 -2.0705385 -0.99701375 234 88 12
-3.7559016 -2.0771689 -0.99732089 234 88 12
-3.496855 -2.3828006 -1.0203645 234 88 12
-3.4653506 -2.3215015 -1.0192331 234 88 12
-3.4813855 -2.3076589 -1.0191523 234 88 12
-3.5010934 -2.2974555 -1.0191523 234 88 12
-3.5158746 -2.2824643 -1.0190452 234 88 12
-3.5275068 -2.2644932 -1.0188711 234 88 12
-3.5383687 -2.2458825 -1.0186818 234 88 12
-3.5507915 -2.2288675 -1.0185274 234 88 12
-3.5703785 -2.2187264 -1.0185274 234 88 12
-3.6128223 -2.2300999 -1.0190136 234 88 12
-3.6259162 -2.2137494 -1.018874 234 88 12
-3.632462 -2.1913908 -1.0185975 234 88 12
-3.6268675 -2.1579738 -1.0180681 234 88 12
-3.642925 -2.1447206 -1.0179961 234 88 12
-3.6588235 -2.1313622 -1.0179213 234 88 12
-3.67764 -2.1206894 -1.0179077 234 88 12
-3.684896 -2.0996132 -1.0176553 234 88 12
-3.7009864 -2.0865805 -1.0175867 234 88 12
-3.7209814 -2.0770576 -1.0175987 234 88 12
-3.4578915 -2.3471541 -1.0403875 234 88 12
-3.4587431 -2.3181741 -1.0398868 234 88 12
-3.4784238 -2.3079846 -1.0398868 234 88 12
-3.5049086 -2.304455 -1.0400654 234 88 12
-3.5363464 -2.3056576 -1.0403721 234 88 12
-3.543474 -2.2832217 -1.0400432 234 88 12
-3.5492644 -2.2596581 -1.0396825 234 88 12
-3.557569 -2.238663 -1.0393896 234 88 12
-3.5810142 -2.2321591 -1.0394884 234 88 12
-3.5364954 -2.4594376 -1.0643101 234 88 12
-3.4612045 -2.3536685 -1.0613431 234 88 12
-3.4689174 -2.3314841 -1.0609702 234 88 12
-3.4857442 -2.3184381 -1.0608814 234 88 12
-3.5151813 -2.3177805 -1.0611802 234 88 12
-3.5460103 -2.3183558 -1.0615193 234 88 12
-3.5657477 -2.3080668 -1.0615178 234 88 12
-3.5986786 -2.3104563 -1.0619162 234 88 12
-3.4490893 -2.3747699 -1.0824523 234 88 12
-3.46225 -2.3579166 -1.0822169 234 88 12
-3.4661129 -2.3319166 -1.0816542 234 88 12
-3.4772758 -2.3133206 -1.0813537 234 88 12
-3.500479 -2.3066344 -1.0814786 234 88 12
-3.5463648 -2.3219955 -1.0823957 234 88 12
-3.5661364 -2.311759 -1.0823957 234 88 12
-3.5942814 -2.3095741 -1.0826862 234 88 12
-3.4495425 -2.3784077 -1.1033101 234 88 12
-3.4652681 -2.3641343 -1.1031482 234 88 12
-3.4633396 -2.3323715 -1.1022838 234 88 12
-3.4806929 -2.3199201 -1.1021923 234 88 12
-3.5011027 -2.3104963 -1.1022224 234 88 12
-3.5378678 -2.317004 -1.1028965 234 88 12
-3.5669861 -2.3158932 -1.1032649 234 88 12
-3.6068461 -2.3250036 -1.1040499 234 88 12
-3.4564574 -2.3885493 -1.1244299 234 88 12
-3.4713399 -2.3734069 -1.1242119 234 88 12
-3.4687524 -2.3409569 -1.1232212 234 88 12
-3.4848697 -2.3272705 -1.1230645 234 88 12
-3.5049818 -2.3175502 -1.1230848 234 88 12
-3.5506618 -2.332762 -1.1242243 234 88 12
-3.5776916 -2.3295753 -1.1245412 234 88 12
-3.4750102 -2.4104254 -1.1461537 234 88 12
-3.4836986 -2.3889792 -1.1456071 234 88 12
-3.4976287 -2.3728912 -1.1453209 234 88 12
-3.4951909 -2.3406963 -1.1442419 234 88 12
-3.5228298 -2.3383265 -1.144627 234 88 12
-3.554095 -2.3393962 -1.1451834 234 88 12
-3.58077 -2.3358707 -1.1455152 234 88 12
-3.4753933 -2.4139972 -1.1670375 234 88 12
-3.4826019 -2.3910799 -1.1663626 234 88 12
-3.4996827 -2.378154 -1.1662191 234 88 12
-3.5182962 -2.3667791 -1.166158 234 88 12
-3.5351553 -2.353694 -1.1660048 234 88 12
-3.5549052 -2.3434687 -1.1660048 234 88 12
-3.5775824 -2.3360844 -1.166158 234 88 12
-3.4724143 -2.4141715 -1.1876982 234 88 12
-3.4829166 -2.3945899 -1.1871595 234 88 12
-3.497592 -2.3792858 -1.186866 234 88 12
-3.5163758 -2.3681135 -1.186811 234 88 12
-3.5347071 -2.3565085 -1.1867305 234 88 12
-3.5558548 -2.3476737 -1.186811 234 88 12
-3.5827425 -2.3443961 -1.1872163 234 88 12
-3.4741125 -2.4190605 -1.2085944 234 88 12
-3.4790585 -2.3939083 -1.2076684 234 88 12
-3.494164 -2.3790765 -1.207381 234 88 12
-3.5138788 -2.3688695 -1.207381 234 88 12
-3.5341043 -2.3591654 -1.2074125 234 88 12
-3.5548894 -2.3500023 -1.207478 234 88 12
-3.591522 -2.3562281 -1.2085106 234 88 12
-3.4711289 -2.4192157 -1.2291611 234 88 12
-3.4767909 -2.394814 -1.2282188 234 88 12
-3.4931235 -2.3812397 -1.2279941 234 88 12
-3.5132527 -2.3714721 -1.2280228 234 88 12
-3.5336378 -2.3619509 -1.2280681 234 88 12
-3.5536714 -2.3520772 -1.22809 234 88 12
-3.5906038 -2.3586357 -1.2292172 234 88 12
-3.4547973 -2.4360919 -1.2501298 234 88 12
-3.4718397 -2.4230981 -1.2499348 234 88 12
-3.4760451 -2.3972411 -1.248827 234 88 12
-3.4946723 -2.385982 -1.2487514 234 88 12
-3.5145094 -2.375937 -1.2487619 234 88 12
-3.5353296 -2.366859 -1.2488415 234 88 12
-3.5565679 -2.3581765 -1.2489498 234 88 12
-3.5935864 -2.3648336 -1.2501578 234 88 12
-3.4561119 -2.4405699 -1.2709366 234 88 12
-3.466218 -2.4205689 -1.270203 234 88 12
-3.4740059 -2.3983619 -1.2693003 234 88 12
-3.4912992 -2.3858047 -1.2691213 234 88 12
-3.5117643 -2.376426 -1.2691817 234 88 12
-3.536844 -2.3715894 -1.2695864 234 88 12
-3.5585785 -2.3634062 -1.2697389 234 88 12
-3.6132681 -2.3872955 -1.2723318 234 88 12
-3.4566441 -2.4442475 -1.2916611 234 88 12
-3.4669702 -2.4244819 -1.2909034 234 88 12
-3.4727812 -2.4002948 -1.2897905 234 88 12
-3.4915671 -2.3892579 -1.2897216 234 88 12
-3.5113993 -2.3792713 -1.2897364 234 88 12
-3.5341623 -2.3721752 -1.2899828 234 88 12
-3.5610952 -2.3691306 -1.2905556 234 88 12
-3.4590862 -2.4498689 -1.3125226 234 88 12
-3.4678988 -2.4285698 -1.3115951 234 88 12
-3.4709682 -2.4016292 -1.3101901 234 88 12
-3.489059 -2.3899295 -1.3100607 234 88 12
-3.5100095 -2.3810925 -1.3101721 234 88 12
-3.5375812 -2.3787789 -1.310835 234 88 12
-3.5639961 -2.3752308 -1.3113964 234 88 12
-3.4711795 -2.4350395 -1.3324746 234 88 12
-3.4724107 -2.4062364 -1.3308328 234 88 12
-3.4881392 -2.3921833 -1.3304884 234 88 12
-3.5087349 -2.3830216 -1.3305759 234 88 12
-3.5346925 -2.3791475 -1.3311335 234 88 12
-3.5680852 -2.3824973 -1.3323364 234 88 12
-3.4759698 -2.4430404 -1.3534943 234 88 12
-3.4729304 -2.4099104 -1.3513722 234 88 12
-3.487453 -2.3946652 -1.3508998 234 88 12
-3.5070388 -2.3845251 -1.3508998 234 88 12
-3.5330837 -2.3807738 -1.351495 234 88 12
-3.5784829 -2.3959658 -1.3538612 234 88 12
-3.4851487 -2.4554992 -1.3749566 234 88 12
-3.4783149 -2.4184887 -1.3723615 234 88 12
-3.4908593 -2.4012444 -1.3716736 234 88 12
-3.5110602 -2.391717 -1.3717332 234 88 12
-3.5324721 -2.3833802 -1.371909 234 88 12
-3.4995017 -2.443023 -1.3949814 234 88 12
-3.4958797 -2.4094427 -1.3926114 234 88 12
-3.5151165 -2.3989441 -1.3925754 234 88 12
-3.5413055 -2.3953366 -1.3932406 234 88 12
