ply
format ascii 1.0
element vertex 307
property float x
property float y
property float z
property uchar red
property uchar green
property uchar blue
end_header
1.6623129 -0.30795005 1.4747452 234 88 12
1.6635528 -0.30043256 1.4747452 234 88 12
1.6651026 -0.29103571 1.4747452 234 88 12
1.6663425 -0.28351822 1.4747452 234 88 12
1.6669624 -0.27975947 1.4747452 234 88 12
1.662768 -0.3118861 1.4731828 234 88 12
1.6695873 -0.27053991 1.4731828 234 88 12
1.6663227 -0.29702842 1.4716203 234 88 12
1.6664678 -0.30284384 1.470058 234 88 12
1.664443 -0.32181486 1.4684956 234 88 12
1.666448 -0.31635404 1.4669331 234 88 12
1.6665931 -0.32216945 1.4653708 234 88 12
1.666903 -0.32029009 1.4653708 234 88 12
1.6684529 -0.31089321 1.4653708 234 88 12
1.6703126 -0.29961699 1.4653708 234 88 12
1.6734123 -0.28082326 1.4653708 234 88 12
1.6752721 -0.26954705 1.4653708 234 88 12
1.0494728 -1.7987919 0.85278028 234 88 12
1.0525169 -1.7965015 0.85278028 234 88 12
1.0543889 -1.7958214 0.85096657 234 88 12
1.0550888 -1.7967516 0.84733927 234 88 12
1.0515723 -1.8015823 0.84189826 234 88 12
1.0541441 -1.8018324 0.83645725 234 88 12
1.0621043 -1.7965715 0.8346436 234 88 12
1.0533218 -1.8039078 0.83282995 234 88 12
1.0548439 -1.8027625 0.83282995 234 88 12
1.0639763 -1.7958914 0.83282995 234 88 12
1.0654984 -1.7947463 0.83282995 234 88 12
1.0646762 -1.7968216 0.82920259 234 88 12
1.0741584 -1.7904155 0.82738894 234 88 12
1.0805966 -1.7862999 0.82557529 234 88 12
1.0855126 -1.7833294 0.82376158 234 88 12
1.0554214 -1.8066982 0.82194793 234 88 12
1.0691199 -1.7963915 0.82194793 234 88 12
1.0752082 -1.7918108 0.82194793 234 88 12
1.0828185 -1.7860849 0.82194793 234 88 12
1.0843406 -1.7849396 0.82194793 234 88 12
1.0557714 -1.8071632 0.82013428 234 88 12
1.8287913 0.80546492 1.0172181 234 88 12
1.8307947 0.8021493 1.015448 234 88 12
1.8314527 0.80239773 1.0136778 234 88 12
1.8307799 0.80417973 1.0136778 234 88 12
1.8274161 0.81308967 1.0136778 234 88 12
1.8219749 0.83546728 1.0065972 234 88 12
1.8239783 0.83215165 1.004827 234 88 12
1.8340549 0.80745214 1.0030568 234 88 12
1.8313639 0.81458014 1.0030568 234 88 12
1.8280001 0.82349008 1.0030568 234 88 12
1.825309 0.83061808 1.0030568 234 88 12
1.8239635 0.83418208 1.0030568 234 88 12
1.8272681 0.83339369 0.99597615 234 88 12
1.8366573 0.81250656 0.99243581 234 88 12
1.8359845 0.81428856 0.99243581 234 88 12
1.8326206 0.82319856 0.99243581 234 88 12
1.8285841 0.8338905 0.99243581 234 88 12
1.8373152 0.81275499 0.99066567 234 88 12
1.8373004 0.81478536 0.98889548 234 88 12
1.8278521 0.84379411 0.98535514 234 88 12
1.8345649 0.82800454 0.983585 234 88 12
1.8325467 0.83335054 0.983585 234 88 12
1.82851 0.84404248 0.983585 234 88 12
1.8372413 0.82290697 0.9818148 234 88 12
1.8264771 0.85141891 0.9818148 234 88 12
1.8426086 0.8106814 0.98004466 234 88 12
1.8378992 0.8231554 0.98004466 234 88 12
1.8264623 0.85344929 0.98004466 234 88 12
1.8271202 0.85369772 0.97827446 234 88 12
1.846586 0.80811107 0.97296399 234 88 12
1.8445677 0.81345701 0.97296399 234 88 12
1.8405311 0.82414901 0.97296399 234 88 12
1.8331307 0.84375095 0.97296399 234 88 12
1.9413544 -1.0033493 0.48129249 234 88 12
1.9408391 -1.005206 0.47941014 234 88 12
1.9465722 -0.99316466 0.4775278 234 88 12
1.947619 -0.99154681 0.47564542 234 88 12
1.956742 -0.97267592 0.47188073 234 88 12
1.9575231 -0.97093868 0.47188073 234 88 12
1.9445107 -1.0005915 0.46999836 234 88 12
1.9476351 -0.99364245 0.46999836 234 88 12
1.9523214 -0.98321891 0.46999836 234 88 12
1.9570078 -0.97279537 0.46999836 234 88 12
1.9577888 -0.97105813 0.46999836 234 88 12
1.9479007 -0.9937619 0.46811602 234 88 12
1.9505256 -0.99076521 0.46058661 234 88 12
1.9544309 -0.98207897 0.46058661 234 88 12
1.9575552 -0.9751299 0.46058661 234 88 12
1.9583362 -0.97339267 0.46058661 234 88 12
1.9638197 -0.96332747 0.45493954 234 88 12
1.9573215 -0.97920173 0.45117483 234 88 12
1.9604458 -0.97225267 0.45117483 234 88 12
1.9643511 -0.96356642 0.45117483 234 88 12
1.9674753 -0.95661736 0.45117483 234 88 12
1.9529009 -0.98974472 0.44929248 234 88 12
1.9560251 -0.98279566 0.44929248 234 88 12
1.9693031 -0.95326233 0.44929248 234 88 12
1.9508233 -0.99507594 0.44741014 234 88 12
2.2275558 0.13500564 -0.0025416305 234 88 12
2.2272418 0.14071128 -0.0025416305 234 88 12
2.2256577 0.16542348 -0.0082515422 234 88 12
2.2273629 0.13308737 -0.010154846 234 88 12
2.2269442 0.1406949 -0.010154846 234 88 12
2.226316 0.1521062 -0.010154846 234 88 12
2.2257926 0.16161563 -0.010154846 234 88 12
2.2252693 0.17112504 -0.010154846 234 88 12
2.2262883 0.1444741 -0.021574669 234 88 12
2.2258697 0.15208164 -0.021574669 234 88 12
2.2253463 0.16159105 -0.021574669 234 88 12
2.2248228 0.17110047 -0.021574669 234 88 12
2.2239716 0.18249948 -0.027284579 234 88 12
2.2261257 0.14064986 -0.031091187 234 88 12
2.2254977 0.15206115 -0.031091187 234 88 12
2.2249742 0.16157058 -0.031091187 234 88 12
2.2244508 0.17107999 -0.031091187 234 88 12
2.2238228 0.18249129 -0.031091187 234 88 12
2.226156 0.13874388 -0.03299449 234 88 12
1.4080117 1.7245262 0.28901112 234 88 12
1.4053179 1.7272199 0.28901112 234 88 12
1.4039711 1.7285668 0.28901112 234 88 12
1.4125321 1.7209653 0.27951151 234 88 12
1.4057977 1.7276996 0.27951151 234 88 12
1.4044508 1.7290465 0.27951151 234 88 12
1.3964655 1.7372237 0.27761158 234 88 12
1.3951187 1.7385706 0.27761158 234 88 12
1.4089712 1.7254857 0.27001187 234 88 12
1.4076244 1.7268325 0.27001187 234 88 12
1.4049306 1.7295263 0.27001187 234 88 12
1.3968494 1.7376075 0.27001187 234 88 12
1.4054103 1.730006 0.26051226 234 88 12
1.4040635 1.7313529 0.26051226 234 88 12
1.398676 1.7367404 0.26051226 234 88 12
1.4110857 1.7249064 0.25481251 234 88 12
1.4166651 1.7197108 0.25101265 234 88 12
1.416761 1.7198068 0.24911274 234 88 12
1.4140673 1.7225006 0.24911274 234 88 12
1.4100267 1.7265412 0.24911274 234 88 12
1.4046392 1.7319286 0.24911274 234 88 12
1.3992517 1.7373161 0.24911274 234 88 12
1.6014452 -1.418251 -0.6532771 234 88 12
1.6032705 -1.414857 -0.65509075 234 88 12
1.606456 -1.407719 -0.66053176 234 88 12
1.6082813 -1.404325 -0.66234541 234 88 12
1.5998 -1.4146295 -0.66415906 234 88 12
1.6066711 -1.4054972 -0.66415906 234 88 12
1.6078162 -1.4039751 -0.66415906 234 88 12
1.6192681 -1.3887545 -0.66415906 234 88 12
1.6142223 -1.3944927 -0.66597271 234 88 12
1.6057409 -1.4047973 -0.66778642 234 88 12
1.6206282 -1.3850105 -0.66778642 234 88 12
1.6054908 -1.4022255 -0.67322737 234 88 12
1.606636 -1.4007034 -0.67322737 234 88 12
1.6112168 -1.3946152 -0.67322737 234 88 12
1.6169426 -1.3870049 -0.67322737 234 88 12
1.6176229 -1.3851329 -0.67504108 234 88 12
1.6230987 -1.3749508 -0.68048203 234 88 12
1.5985848 -1.4065641 -0.68229574 234 88 12
1.6157625 -1.3837333 -0.68229574 234 88 12
1.6272143 -1.3685126 -0.68229574 234 88 12
1.5981196 -1.4062142 -0.68410939 234 88 12
1.5992649 -1.4046922 -0.68410939 234 88 12
1.606136 -1.3955598 -0.68410939 234 88 12
1.6072811 -1.3940377 -0.68410939 234 88 12
1.6141522 -1.3849053 -0.68410939 234 88 12
1.6175878 -1.3803391 -0.68410939 234 88 12
1.6221685 -1.3742509 -0.68410939 234 88 12
1.6267493 -1.3681628 -0.68410939 234 88 12
1.6056709 -1.3952099 -0.68592304 234 88 12
1.6285746 -1.3647686 -0.68592304 234 88 12
1.6003751 -1.3983763 -0.6931777 234 88 12
1.8124682 1.0767292 -0.73740137 234 88 12
1.7993318 1.1021017 -0.73740137 234 88 12
1.7975804 1.1054846 -0.73740137 234 88 12
1.7967045 1.1071762 -0.73740137 234 88 12
1.8130833 1.0727578 -0.74098951 234 88 12
1.8069531 1.0845983 -0.74098951 234 88 12
1.8060772 1.0862898 -0.74098951 234 88 12
1.8125151 1.0724636 -0.74278361 234 88 12
1.8116393 1.0741551 -0.74278361 234 88 12
1.8063848 1.0843041 -0.74278361 234 88 12
1.8011303 1.0944531 -0.74278361 234 88 12
1.7958758 1.1046021 -0.74278361 234 88 12
1.8066924 1.0823184 -0.74457771 234 88 12
1.7961833 1.1026164 -0.74457771 234 88 12
1.7874728 1.115266 -0.74996001 234 88 12
1.7860289 1.1166633 -0.75175405 234 88 12
1.8029758 1.0825392 -0.75354815 234 88 12
1.8021001 1.0842307 -0.75354815 234 88 12
1.7968454 1.0943797 -0.75354815 234 88 12
1.7959697 1.0960711 -0.75354815 234 88 12
1.7915909 1.1045287 -0.75354815 234 88 12
1.7863364 1.1146777 -0.75354815 234 88 12
1.786644 1.112692 -0.75534225 234 88 12
1.7965848 1.0920998 -0.75713634 234 88 12
1.8045136 1.0726109 -0.76251858 234 88 12
1.8039454 1.0723166 -0.76431268 234 88 12
1.8021939 1.0756997 -0.76431268 234 88 12
1.7978152 1.0841571 -0.76431268 234 88 12
1.7960637 1.0875401 -0.76431268 234 88 12
1.7925607 1.0943061 -0.76431268 234 88 12
1.7966788 1.0835688 -0.76790088 234 88 12
0.90011609 -1.1907749 -1.6727335 234 88 12
0.90412742 -1.1867052 -1.6727335 234 88 12
0.90448087 -1.1843792 -1.6740453 234 88 12
0.89716512 -1.1878663 -1.6766686 234 88 12
0.90117645 -1.1837966 -1.6766686 234 88 12
0.90385073 -1.1810836 -1.6766686 234 88 12
0.90723187 -1.1737182 -1.6792921 234 88 12
0.91328728 -1.1636398 -1.6819154 234 88 12
0.90294385 -1.1721661 -1.6832271 234 88 12
0.91364074 -1.1613137 -1.6832271 234 88 12
0.9193427 -1.1535614 -1.6845388 234 88 12
0.90400422 -1.1651878 -1.6871622 234 88 12
0.90534133 -1.1638312 -1.6871622 234 88 12
0.91470116 -1.1543354 -1.6871622 234 88 12
0.91603827 -1.1529788 -1.6871622 234 88 12
0.89366078 -1.1737142 -1.6884738 234 88 12
0.90302056 -1.1642182 -1.6884738 234 88 12
0.89134002 -1.1741011 -1.6897856 234 88 12
0.91139674 -1.1537528 -1.6897856 234 88 12
0.91977292 -1.1432874 -1.6910973 234 88 12
0.92350757 -1.1335959 -1.6950324 234 88 12
0.88775891 -1.1678969 -1.696344 234 88 12
0.89177024 -1.1638272 -1.696344 234 88 12
0.89444447 -1.1611141 -1.696344 234 88 12
0.90246719 -1.1529747 -1.696344 234 88 12
0.9038043 -1.1516181 -1.696344 234 88 12
0.91316408 -1.1421223 -1.696344 234 88 12
0.91450125 -1.1407658 -1.696344 234 88 12
0.9211868 -1.133983 -1.696344 234 88 12
0.92386103 -1.1312698 -1.696344 234 88 12
1.8918413 -0.28356007 -1.147408 234 88 12
1.8914015 -0.27965936 -1.1490607 234 88 12
1.8907714 -0.26996955 -1.1523662 234 88 12
1.8925178 -0.25675106 -1.1523662 234 88 12
1.8925769 -0.24907364 -1.1540189 234 88 12
1.8868982 -0.28482834 -1.1556716 234 88 12
1.8871477 -0.28294 -1.1556716 234 88 12
1.8876466 -0.27916327 -1.1556716 234 88 12
1.888894 -0.26972151 -1.1556716 234 88 12
1.8901414 -0.26027974 -1.1556716 234 88 12
1.8913888 -0.25083798 -1.1556716 234 88 12
1.8867078 -0.27903926 -1.1573243 234 88 12
1.8870165 -0.26947346 -1.158977 234 88 12
1.8863864 -0.25978366 -1.1622826 234 88 12
1.886695 -0.25021788 -1.1639353 234 88 12
1.8879424 -0.24077611 -1.1639353 234 88 12
1.8825132 -0.27464247 -1.165588 234 88 12
1.8830121 -0.27086574 -1.165588 234 88 12
1.8852574 -0.25387058 -1.165588 234 88 12
1.8857564 -0.25009385 -1.165588 234 88 12
1.8870037 -0.2406521 -1.165588 234 88 12
1.8872532 -0.23876373 -1.165588 234 88 12
1.8771303 -0.27201 -1.1755044 234 88 12
1.8773797 -0.27012163 -1.1755044 234 88 12
1.8786271 -0.26067987 -1.1755044 234 88 12
1.876441 -0.26999763 -1.1771572 234 88 12
0.95976496 1.300523 -1.5560182 234 88 12
0.96197236 1.2946492 -1.5588094 234 88 12
0.96595681 1.2851651 -1.5629963 234 88 12
0.97446829 1.2748203 -1.5643919 234 88 12
0.9731214 1.2761672 -1.5643919 234 88 12
0.95291835 1.2963703 -1.5643919 234 88 12
0.97489852 1.2725568 -1.5657876 234 88 12
0.97355169 1.2739037 -1.5657876 234 88 12
0.96277672 1.2846787 -1.5657876 234 88 12
0.95334864 1.2941067 -1.5657876 234 88 12
0.9753288 1.2702934 -1.5671831 234 88 12
0.97263503 1.2729871 -1.5671831 234 88 12
0.96994132 1.2756808 -1.5671831 234 88 12
0.96320695 1.2824152 -1.5671831 234 88 12
0.96051323 1.2851089 -1.5671831 234 88 12
0.95243198 1.2931901 -1.5671831 234 88 12
0.96358109 1.274708 -1.5727656 234 88 12
0.9532364 1.2832196 -1.5741612 234 88 12
0.96217811 1.2706114 -1.5769525 234 88 12
0.95679063 1.2759988 -1.5769525 234 88 12
0.95275003 1.2800394 -1.5769525 234 88 12
0.94736254 1.285427 -1.5769525 234 88 12
0.94283557 1.2862874 -1.5797436 234 88 12
0.95269388 1.2745959 -1.5811392 234 88 12
0.9432658 1.2840239 -1.5811392 234 88 12
0.96120536 1.2642511 -1.5825349 234 88 12
1.0529412 -0.060079262 -1.973473 234 88 12
1.0544305 -0.02582591 -1.973473 234 88 12
1.0512595 -0.061912704 -1.9745055 234 88 12
1.0518386 -0.048591956 -1.9745055 234 88 12
1.0522523 -0.039077137 -1.9745055 234 88 12
1.0526659 -0.029562315 -1.9745055 234 88 12
1.0530797 -0.020047495 -1.9745055 234 88 12
1.0465451 -0.059801172 -1.9776037 234 88 12
1.0470415 -0.048383389 -1.9776037 234 88 12
1.0474553 -0.038868569 -1.9776037 234 88 12
1.047869 -0.029353747 -1.9776037 234 88 12
1.0482826 -0.019838927 -1.9776037 234 88 12
1.048779 -0.0084211426 -1.9776037 234 88 12
1.0423273 -0.046271857 -1.9807017 234 88 12
1.0426582 -0.038660001 -1.9807017 234 88 12
1.0432373 -0.025339251 -1.9807017 234 88 12
1.0434855 -0.019630359 -1.9807017 234 88 12
1.04048 -0.051911227 -1.9817343 234 88 12
1.042383 -0.0081430525 -1.9817343 234 88 12
1.0324849 -0.051563613 -1.9868977 234 88 12
1.0325676 -0.049660649 -1.9868977 234 88 12
1.0329814 -0.040145829 -1.9868977 234 88 12
1.0334778 -0.028728046 -1.9868977 234 88 12
1.0310514 -0.047688164 -1.9879304 234 88 12
1.0313823 -0.040076308 -1.9879304 234 88 12
1.0318787 -0.028658522 -1.9879304 234 88 12
