ply
format ascii 1.0
element vertex 256
property float x
property float y
property float z
property uchar red
property uchar green
property uchar blue
end_header
-1.0065427 0.02183727 2.0044532 234 88 12
-1.0111742 0.025851766 2.0013552 234 88 12
-1.0117534 0.012531016 2.0013552 234 88 12
-1.0223674 0.026338423 1.9941264 234 88 12
-1.0229466 0.013017674 1.9941264 234 88 12
-1.0255654 0.026477467 1.9920611 234 88 12
-1.0261446 0.013156719 1.9920611 234 88 12
-1.0318787 0.028658522 1.9879304 234 88 12
-1.0385231 0.02322772 1.9837997 234 88 12
-1.0390195 0.011809935 1.9837997 234 88 12
-1.0397911 0.030909099 1.982767 234 88 12
-1.0408109 0.044299372 1.9817343 234 88 12
-1.0421618 0.050077785 1.9807017 234 88 12
-1.0425755 0.040562965 1.9807017 234 88 12
-1.0431546 0.027242215 1.9807017 234 88 12
-1.0438166 0.012018503 1.9807017 234 88 12
-1.0528315 0.025756387 1.9745055 234 88 12
-1.0534106 0.012435638 1.9745055 234 88 12
-1.06419 0.022437116 1.9672768 234 88 12
-1.0646038 0.012922296 1.9672768 234 88 12
-1.0658718 0.020603675 1.9662441 234 88 12
-1.0662028 0.012991819 1.9662441 234 88 12
-1.080263 0.021229377 1.9569501 234 88 12
-1.0805939 0.013617521 1.9569501 234 88 12
-1.0853083 0.015729053 1.9538521 234 88 12
-1.0854738 0.011923125 1.9538521 234 88 12
-0.93091947 -1.2743714 1.5978866 234 88 12
-0.94315356 -1.2731367 1.5895129 234 88 12
-0.94811082 -1.2700127 1.5881174 234 88 12
-0.97192419 -1.2480326 1.5867217 234 88 12
-0.96923047 -1.2507263 1.5867217 234 88 12
-0.96341276 -1.2583773 1.5853261 234 88 12
-0.97645116 -1.2471721 1.5839305 234 88 12
-0.96971685 -1.2539064 1.5839305 234 88 12
-0.96567625 -1.2579471 1.5839305 234 88 12
-0.95355439 -1.2700689 1.5839305 234 88 12
-0.95220751 -1.2714157 1.5839305 234 88 12
-0.94277942 -1.2808439 1.5839305 234 88 12
-0.94100231 -1.2844542 1.5825349 234 88 12
-0.97111982 -1.2580031 1.5797436 234 88 12
-0.95765114 -1.2714719 1.5797436 234 88 12
-0.94644594 -1.2845103 1.578348 234 88 12
-0.97123206 -1.2688904 1.57137 234 88 12
-0.96988517 -1.2702372 1.57137 234 88 12
-0.96853834 -1.271584 1.57137 234 88 12
-0.97080183 -1.2711538 1.5699743 234 88 12
-0.98395252 -1.2708359 1.5602051 234 88 12
-0.98713261 -1.2713223 1.5574138 234 88 12
-0.98309201 -1.2753628 1.5574138 234 88 12
-0.88082695 1.1316446 1.7252011 234 88 12
-0.88849622 1.1258314 1.7238895 234 88 12
-0.88244081 1.1359098 1.7212662 234 88 12
-0.88511503 1.1331967 1.7212662 234 88 12
-0.88912636 1.129127 1.7212662 234 88 12
-0.8894031 1.1347488 1.7173311 234 88 12
-0.90242076 1.1235094 1.7160194 234 88 12
-0.9153617 1.1202178 1.7094609 234 88 12
-0.91669881 1.1188612 1.7094609 234 88 12
-0.90297419 1.1347529 1.7081492 234 88 12
-0.91634536 1.1211873 1.7081492 234 88 12
-0.90395784 1.1357224 1.7068375 234 88 12
-0.90663207 1.1330093 1.7068375 234 88 12
-0.91599184 1.1235135 1.7068375 234 88 12
-0.92000324 1.1194438 1.7068375 234 88 12
-0.92928624 1.1178957 1.7015908 234 88 12
-0.91654527 1.1347569 1.6989673 234 88 12
-0.92991644 1.1211914 1.6989673 234 88 12
-0.90647852 1.148905 1.696344 234 88 12
-0.90577161 1.1535573 1.6937206 234 88 12
-0.91245717 1.1467745 1.6937206 234 88 12
-0.9164685 1.1427048 1.6937206 234 88 12
-0.92716545 1.1318524 1.6937206 234 88 12
-0.92983967 1.1291393 1.6937206 234 88 12
-0.93919951 1.1196434 1.6937206 234 88 12
-0.94321084 1.1155738 1.6937206 234 88 12
-0.94348752 1.1211956 1.6897856 234 88 12
-0.95713538 1.1132517 1.6858505 234 88 12
-0.95171016 1.1266258 1.6806037 234 88 12
-0.95705861 1.1211996 1.6806037 234 88 12
-0.95839572 1.119843 1.6806037 234 88 12
-1.8636665 0.25101814 1.2036009 234 88 12
-1.864415 0.24535307 1.2036009 234 88 12
-1.8643558 0.25303051 1.201948 234 88 12
-1.8653537 0.2454771 1.201948 234 88 12
-1.8721743 0.24445687 1.190379 234 88 12
-1.8721151 0.25213429 1.1887262 234 88 12
-1.873113 0.24458089 1.1887262 234 88 12
-1.8746227 0.26207215 1.1821153 234 88 12
-1.8750033 0.27365032 1.1788099 234 88 12
-1.8778195 0.27402237 1.1738516 234 88 12
-1.8780689 0.27213401 1.1738516 234 88 12
-1.8798153 0.25891554 1.1738516 234 88 12
-1.8815616 0.24569707 1.1738516 234 88 12
-1.8858746 0.23473899 1.1688935 234 88 12
-1.8860058 0.24820551 1.165588 234 88 12
-1.8890715 0.24668922 1.1606299 234 88 12
-1.889321 0.24480085 1.1606299 234 88 12
-1.892006 0.2317064 1.158977 234 88 12
-1.7803214 -1.0901142 0.80019444 234 88 12
-1.7785698 -1.0934973 0.80019444 234 88 12
-1.7857895 -1.0865107 0.791224 234 88 12
-1.7822864 -1.0932766 0.791224 234 88 12
-1.7901213 -1.0823187 0.78584176 234 88 12
-1.8032106 -1.0612116 0.78045946 234 88 12
-1.8005834 -1.0662861 0.78045946 234 88 12
-1.8046545 -1.0598143 0.77866542 234 88 12
-1.8029031 -1.0631973 0.77866542 234 88 12
-1.8011515 -1.0665803 0.77866542 234 88 12
-1.7941455 -1.0801123 0.77866542 234 88 12
-1.7897667 -1.0885698 0.77866542 234 88 12
-1.7871394 -1.0936443 0.77866542 234 88 12
-1.7908561 -1.0934236 0.76969498 234 88 12
-1.7995666 -1.0807742 0.76431268 234 88 12
-1.7945727 -1.0932029 0.76072448 234 88 12
-1.8038515 -1.0808476 0.75354815 234 88 12
-1.8052955 -1.0794502 0.75175405 234 88 12
-1.8058636 -1.0797445 0.74996001 234 88 12
-1.8032364 -1.084819 0.74996001 234 88 12
-0.05813523 1.8448558 1.274758 234 88 12
-0.058667123 1.8480808 1.2700707 234 88 12
-1.6048157 1.3731133 0.729451 234 88 12
-1.6114718 1.3662028 0.7258237 234 88 12
-1.6039206 1.3772072 0.72401005 234 88 12
-1.6130821 1.3650306 0.72401005 234 88 12
-1.612402 1.3669027 0.72219634 234 88 12
-1.6266443 1.3537816 0.71131438 234 88 12
-1.6133671 1.3723962 0.70950067 234 88 12
-1.6179478 1.366308 0.70950067 234 88 12
-1.6271093 1.3541315 0.70950067 234 88 12
-1.6115419 1.3757902 0.70768702 234 88 12
-1.6085713 1.3807063 0.70587337 234 88 12
-1.63126 1.352487 0.70224601 234 88 12
-1.6074612 1.3870221 0.69680506 234 88 12
-1.6131871 1.3794118 0.69680506 234 88 12
-1.6234938 1.3657132 0.69680506 234 88 12
-1.6269293 1.361147 0.69680506 234 88 12
-1.6338004 1.3520147 0.69680506 234 88 12
-1.6397763 1.3469763 0.69136405 234 88 12
-1.6363758 1.3563361 0.68229574 234 88 12
-1.6398114 1.3517699 0.68229574 234 88 12
-2.223084 -0.16337417 0.076770477 234 88 12
-2.2229793 -0.16527605 0.076770477 234 88 12
-2.2236652 -0.15959089 0.067253962 234 88 12
-2.2233512 -0.16529652 0.067253962 234 88 12
-2.224726 -0.14438809 0.06154405 234 88 12
-2.2253375 -0.13869883 0.053930834 234 88 12
-2.2246048 -0.15201202 0.053930834 234 88 12
-2.2238719 -0.16532519 0.053930834 234 88 12
-2.2235112 -0.17865886 0.044414315 234 88 12
-2.2243929 -0.16535386 0.040607706 234 88 12
-2.22366 -0.17866704 0.040607706 234 88 12
-1.4019383 -1.7400028 -0.19591492 234 88 12
-1.4071339 -1.7344234 -0.19971476 234 88 12
-1.4083848 -1.7329805 -0.20161469 234 88 12
-1.4108866 -1.7300949 -0.20541453 234 88 12
-1.406846 -1.7341355 -0.20541453 234 88 12
-1.4054992 -1.7354823 -0.20541453 234 88 12
-1.4254144 -1.7149915 -0.2111143 234 88 12
-1.4200269 -1.720379 -0.2111143 234 88 12
-1.4333997 -1.7068143 -0.21301422 234 88 12
-1.4359975 -1.7040246 -0.21491414 234 88 12
-1.4384993 -1.701139 -0.21871398 234 88 12
-1.4344587 -1.7051796 -0.21871398 234 88 12
-1.4304181 -1.7092202 -0.21871398 234 88 12
-1.42099 -1.7186483 -0.21871398 234 88 12
-1.4169494 -1.7226889 -0.21871398 234 88 12
-1.4256098 -1.7124932 -0.23391336 234 88 12
-1.4202224 -1.7178806 -0.23391336 234 88 12
-1.4161818 -1.7219213 -0.23391336 234 88 12
-0.68294644 2.1112776 0.3288219 234 88 12
-0.68468368 2.1104965 0.3288219 234 88 12
-0.68306589 2.1115434 0.32693952 234 88 12
-0.68480313 2.1107624 0.32693952 234 88 12
-0.69696397 2.1052949 0.32693952 234 88 12
-0.70265353 2.1040144 0.31941012 234 88 12
-0.68390208 2.1134031 0.31376305 234 88 12
-0.69780016 2.1071546 0.31376305 234 88 12
-0.70474917 2.1040304 0.31376305 234 88 12
-0.71169817 2.1009061 0.31376305 234 88 12
-0.72445625 2.0967672 0.3043513 234 88 12
-0.70558536 2.1058903 0.30058658 234 88 12
-0.71079713 2.1035471 0.30058658 234 88 12
-0.72469521 2.0972986 0.30058658 234 88 12
-1.9712752 0.96876788 -0.3965866 234 88 12
-1.9694474 0.97212291 -0.39846894 234 88 12
-1.9756799 0.95612925 -0.404116 234 88 12
-1.964729 0.97835523 -0.40976307 234 88 12
-1.9621201 0.98344755 -0.41164541 234 88 12
-1.9683685 0.96954948 -0.41164541 234 88 12
-1.9746171 0.95565146 -0.41164541 234 88 12
-1.9610733 0.98506534 -0.41352779 234 88 12
-1.9675715 0.96919113 -0.41729248 234 88 12
-1.9795371 0.94115609 -0.42105719 234 88 12
-1.9727572 0.95481527 -0.42482188 234 88 12
-1.9782246 0.94265443 -0.42482188 234 88 12
-1.8569506 -0.83441991 -0.92516947 234 88 12
-1.8576382 -0.83060753 -0.92693967 234 88 12
-1.8583406 -0.82476473 -0.93047994 234 88 12
-1.8549768 -0.83367473 -0.93047994 234 88 12
-1.8610464 -0.81560636 -0.93225014 234 88 12
-1.8590281 -0.82095236 -0.93225014 234 88 12
-1.8637671 -0.80441761 -0.93579048 234 88 12
-1.8577271 -0.81842512 -0.93756062 234 88 12
-1.8624808 -0.79986 -0.94287115 234 88 12
-1.8537349 -0.82302588 -0.94287115 234 88 12
-1.8496982 -0.83371788 -0.94287115 234 88 12
2.2288601 -0.12054699 -0.3280066 234 88 12
-1.0864055 1.8066932 -0.76391065 234 88 12
-1.0909717 1.8032576 -0.76391065 234 88 12
-1.0940158 1.8009672 -0.76391065 234 88 12
-1.0845336 1.8073733 -0.7657243 234 88 12
-1.0906218 1.8027925 -0.7657243 234 88 12
-1.093666 1.8005022 -0.7657243 234 88 12
-1.1066647 1.7892654 -0.76935166 234 88 12
-1.1081867 1.7881202 -0.76935166 234 88 12
-1.0793899 1.8068732 -0.77660632 234 88 12
-1.0802121 1.8047979 -0.78023362 234 88 12
-1.0817342 1.8036526 -0.78023362 234 88 12
-1.0939107 1.7944912 -0.78023362 234 88 12
-1.099999 1.7899104 -0.78023362 234 88 12
-1.1076093 1.7841846 -0.78023362 234 88 12
-1.1182637 1.7761682 -0.78023362 234 88 12
-1.1209579 1.7734128 -0.78204733 234 88 12
-1.1313848 1.7619259 -0.79111564 234 88 12
-1.1142923 1.774058 -0.79292929 234 88 12
-1.1219025 1.768332 -0.79292929 234 88 12
-1.1295128 1.7626061 -0.79292929 234 88 12
-1.7064269 0.28819886 -1.4169364 234 88 12
-1.7067368 0.28631949 -1.4169364 234 88 12
-1.7017971 0.30287924 -1.4200611 234 88 12
-1.6991723 0.3120988 -1.4216236 234 88 12
-1.7013421 0.29894319 -1.4216236 234 88 12
-1.7035118 0.28578761 -1.4216236 234 88 12
-1.6971674 0.31755963 -1.4231859 234 88 12
-1.7035316 0.27227741 -1.4247483 234 88 12
-1.6939424 0.31702772 -1.4278731 234 88 12
-0.89873403 -1.2421858 -1.6462665 234 88 12
-0.90228343 -1.2349603 -1.6490513 234 88 12
-0.90583283 -1.2277348 -1.6518362 234 88 12
-0.90668851 -1.2232029 -1.654621 234 88 12
-0.90130103 -1.2285905 -1.654621 234 88 12
-0.89995414 -1.2299373 -1.654621 234 88 12
-0.82136846 1.1439924 -1.7540584 234 88 12
-0.83222085 1.1332955 -1.7540584 234 88 12
-0.83357739 1.1319584 -1.7540584 234 88 12
-0.84714293 1.1185873 -1.7540584 234 88 12
-0.84849954 1.1172501 -1.7540584 234 88 12
-0.81904233 1.1443459 -1.75537 234 88 12
-0.8537302 1.1062765 -1.7579935 234 88 12
-0.82136434 1.1304213 -1.7632402 234 88 12
-0.8322168 1.1197244 -1.7632402 234 88 12
-0.83357334 1.1183872 -1.7632402 234 88 12
-0.84578234 1.1063533 -1.7632402 234 88 12
-0.84849542 1.1036791 -1.7632402 234 88 12
-0.85934788 1.0929821 -1.7632402 234 88 12
-0.86206096 1.0903078 -1.7632402 234 88 12
