ply
format ascii 1.0
element vertex 1818
property float x
property float y
property float z
property uchar red
property uchar green
property uchar blue
end_header
-2.4985951e-05 0.00024629009 2.728126 234 88 12
3.5694218e-06 0.00024629009 2.728126 234 88 12
-0.0022888356 0.0033534102 2.702055 234 88 12
-0.00069348206 0.0005014409 2.7243989 234 88 12
-0.12654096 0.081212856 1.7384477 234 88 12
-0.01402124 0.0092755891 2.6167514 234 88 12
-0.11520893 0.081212856 1.7384477 234 88 12
3.2006865e-05 0.00043742714 2.7243989 234 88 12
0.0030625532 0.025112938 2.408432 234 88 12
0.0082743317 0.022616506 2.4403985 234 88 12
0.025926238 0.022616506 2.4403985 234 88 12
0.032545704 0.022616506 2.4403985 234 88 12
-0.038257387 0.028151663 2.3510354 234 88 12
-0.032941308 0.067616366 1.8197796 234 88 12
-0.0294738 0.067616366 1.8197796 234 88 12
0.011637703 0.023887916 2.408432 234 88 12
0.012687308 0.021513261 2.4403985 234 88 12
0.022616506 0.021513261 2.4403985 234 88 12
0.032545704 0.021513261 2.4403985 234 88 12
-0.032941308 0.064148858 1.8197796 234 88 12
-0.0294738 0.064148858 1.8197796 234 88 12
-0.0065282476 0.026838351 2.3491855 234 88 12
-0.00061251066 0.022662895 2.408432 234 88 12
-0.018663678 0.043548584 2.0767713 234 88 12
-0.001837532 0.021437874 2.408432 234 88 12
0.00061251066 0.021437874 2.408432 234 88 12
0.011637703 0.021437874 2.408432 234 88 12
0.026011704 0.015972098 2.4904184 234 88 12
0.045724254 0.021922588 2.4011612 234 88 12
-0.010569857 0.0071184756 2.6167514 234 88 12
-0.018663678 0.041060094 2.0767713 234 88 12
-0.0086316885 0.025895065 2.318033 234 88 12
0.012271238 0.023820639 2.3510354 234 88 12
0.012321333 0.015059408 2.4904184 234 88 12
0.022662895 0.020212851 2.408432 234 88 12
0.032400545 0.015059408 2.4904184 234 88 12
0.046976976 0.020669868 2.4011612 234 88 12
0.009383888 0.022376962 2.3510354 234 88 12
0.022376962 0.022376962 2.3510354 234 88 12
-0.028372819 0.035774421 2.0823596 234 88 12
-0.011770484 0.022756269 2.318033 234 88 12
-0.012230183 0.027282717 2.2360888 234 88 12
-0.0084036505 0.022155078 2.3289168 234 88 12
0.0079402123 0.020933287 2.3510354 234 88 12
0.010827563 0.020933287 2.3510354 234 88 12
0.022376962 0.020933287 2.3510354 234 88 12
-0.011459524 0.020627143 2.3289168 234 88 12
-0.0099315867 0.020627143 2.3289168 234 88 12
-0.070215441 0.039008576 1.9108199 234 88 12
-0.021318134 0.023171885 2.2433903 234 88 12
-0.014957981 0.019681554 2.3166873 234 88 12
-0.010543976 0.017573293 2.360961 234 88 12
-0.010922402 0.039008576 1.9108199 234 88 12
-0.13574985 0.035887893 1.9108199 234 88 12
-0.011949839 0.01616743 2.360961 234 88 12
0.032482687 0.016602263 2.3510354 234 88 12
0.021448247 0.01049595 2.4904184 234 88 12
0.022360938 0.01049595 2.4904184 234 88 12
0.032400545 0.01049595 2.4904184 234 88 12
-0.015219659 0.015219659 2.3495085 234 88 12
0.054493289 0.013153553 2.4011612 234 88 12
0.0047373571 0.0011178034 2.702055 234 88 12
-0.13887054 0.02964652 1.9108199 234 88 12
-0.067094751 0.02964652 1.9108199 234 88 12
-0.010922402 0.02964652 1.9108199 234 88 12
-0.0038613547 0.0093775755 2.4403985 234 88 12
-0.0030625532 0.010412682 2.408432 234 88 12
0.00061251066 0.010412682 2.408432 234 88 12
0.054493289 0.010648115 2.4011612 234 88 12
-0.14199123 0.023405146 1.9108199 234 88 12
-0.063974068 0.023405146 1.9108199 234 88 12
-0.14199123 0.020284461 1.9108199 234 88 12
-0.031039013 0.009383888 2.3510354 234 88 12
-0.063974068 0.020284461 1.9108199 234 88 12
-0.014043088 0.020284461 1.9108199 234 88 12
0.0050528627 0.009383888 2.3510354 234 88 12
0.010827563 0.009383888 2.3510354 234 88 12
0.022376962 0.009383888 2.3510354 234 88 12
0.032482687 0.009383888 2.3510354 234 88 12
-0.023405146 0.014043088 1.9108199 234 88 12
0.044032089 0.0064965375 2.3510354 234 88 12
-0.051491324 0.010922402 1.9108199 234 88 12
-0.042129263 0.010922402 1.9108199 234 88 12
-0.063974068 0.0078017158 1.9108199 234 88 12
-0.051491324 0.0078017158 1.9108199 234 88 12
-0.042129263 0.0078017158 1.9108199 234 88 12
-0.02964652 0.0078017158 1.9108199 234 88 12
-0.020284461 0.0078017158 1.9108199 234 88 12
-0.14823259 0.0046810294 1.9108199 234 88 12
0.030849569 0.00046044131 2.4882684 234 88 12
-0.14823259 -0.0015603431 1.9108199 234 88 12
-0.020061158 -0.00021571138 2.6167514 234 88 12
-0.010569857 -0.00021571138 2.6167514 234 88 12
-0.063974068 -0.0015603431 1.9108199 234 88 12
-0.051491324 -0.0015603431 1.9108199 234 88 12
-0.042129263 -0.0015603431 1.9108199 234 88 12
-0.02964652 -0.0015603431 1.9108199 234 88 12
-0.0093775755 -0.00055162207 2.4403985 234 88 12
-0.00061251066 -0.00061251066 2.408432 234 88 12
0.00061251066 -0.00061251066 2.408432 234 88 12
0.0064965375 -0.00072183751 2.3510354 234 88 12
0.010827563 -0.00072183751 2.3510354 234 88 12
0.022376962 -0.00072183751 2.3510354 234 88 12
0.032482687 -0.00072183751 2.3510354 234 88 12
0.044032089 -0.00072183751 2.3510354 234 88 12
0.031770449 -0.00046044131 2.4882684 234 88 12
0.032400545 -0.00045634568 2.4904184 234 88 12
0.0049502719 -5.3228734e-05 2.702055 234 88 12
-0.022616506 -0.0027581104 2.4403985 234 88 12
-0.012687308 -0.0027581104 2.4403985 234 88 12
0.032691333 -0.0023022066 2.4882684 234 88 12
-0.14823259 -0.010922402 1.9108199 234 88 12
-0.060853381 -0.010922402 1.9108199 234 88 12
-0.051491324 -0.010922402 1.9108199 234 88 12
0.0041439719 -0.0032230893 2.4882684 234 88 12
0.14823259 -0.010922402 1.9108199 234 88 12
0.043352839 -0.0041071111 2.4904184 234 88 12
-0.020933287 -0.009383888 2.3510354 234 88 12
0.15135328 -0.020284461 1.9108199 234 88 12
-0.010827563 -0.010827563 2.3510354 234 88 12
-0.0059857368 -0.0069066198 2.4882684 234 88 12
0.012271238 -0.010827563 2.3510354 234 88 12
0.022376962 -0.010827563 2.3510354 234 88 12
0.032482687 -0.010827563 2.3510354 234 88 12
0.044032089 -0.010827563 2.3510354 234 88 12
-0.012370455 -0.0067837979 2.5205004 234 88 12
-0.010774267 -0.0067837979 2.5205004 234 88 12
-0.009383888 -0.012271238 2.3510354 234 88 12
0.054137815 -0.012271238 2.3510354 234 88 12
-0.0030625532 -0.011637703 2.408432 234 88 12
0.00061251066 -0.011637703 2.408432 234 88 12
-0.14823259 -0.032767206 1.9108199 234 88 12
-0.0041439719 -0.011511032 2.4882684 234 88 12
0.00046044131 -0.011511032 2.4882684 234 88 12
0.011511032 -0.011511032 2.4882684 234 88 12
0.036374863 -0.011511032 2.4882684 234 88 12
0.040614765 -0.011408642 2.4904184 234 88 12
0.043352839 -0.011408642 2.4904184 234 88 12
0.0022727693 -0.00061984622 2.7179475 234 88 12
-0.022745676 -0.011572361 2.5205004 234 88 12
-0.021149488 -0.011572361 2.5205004 234 88 12
-0.010774267 -0.011572361 2.5205004 234 88 12
0.025264313 -0.022376962 2.3510354 234 88 12
0.032482687 -0.022376962 2.3510354 234 88 12
0.044032089 -0.022376962 2.3510354 234 88 12
0.054137815 -0.022376962 2.3510354 234 88 12
0.059413534 -0.020212851 2.408432 234 88 12
0.15135328 -0.054612007 1.9108199 234 88 12
0.021640742 -0.018878093 2.4882684 234 88 12
0.058188513 -0.025112938 2.408432 234 88 12
0.14823259 -0.067094751 1.9108199 234 88 12
-0.0049645989 -0.024822993 2.4403985 234 88 12
-0.0096692676 -0.021640742 2.4882684 234 88 12
-0.010922402 -0.073336124 1.9108199 234 88 12
-0.0078017158 -0.073336124 1.9108199 234 88 12
0.0015603431 -0.073336124 1.9108199 234 88 12
0.010922402 -0.073336124 1.9108199 234 88 12
0.023405146 -0.073336124 1.9108199 234 88 12
0.011637703 -0.028788002 2.408432 234 88 12
0.014146716 -0.021448247 2.4904184 234 88 12
0.019798977 -0.021640742 2.4882684 234 88 12
0.021640742 -0.021640742 2.4882684 234 88 12
0.03057516 -0.021448247 2.4904184 234 88 12
-0.020284461 -0.076456815 1.9108199 234 88 12
-0.0068899565 -0.030691624 2.4011612 234 88 12
-2.2957267e-05 -0.001124906 2.7179475 234 88 12
0.0043845177 -0.030691624 2.4011612 234 88 12
0.042129263 -0.076456815 1.9108199 234 88 12
0.04524995 -0.076456815 1.9108199 234 88 12
0.022662895 -0.030013023 2.408432 234 88 12
0.020535555 -0.022360938 2.4904184 234 88 12
0.022360938 -0.022360938 2.4904184 234 88 12
0.032400545 -0.022360938 2.4904184 234 88 12
-0.019629735 -0.011001281 2.6167514 234 88 12
-0.012431916 -0.023482507 2.4882684 234 88 12
-0.012687308 -0.028132726 2.4403985 234 88 12
-0.026525833 -0.079577498 1.9108199 234 88 12
0.054612007 -0.079577498 1.9108199 234 88 12
0.1451119 -0.079577498 1.9108199 234 88 12
-0.032767206 -0.082698181 1.9108199 234 88 12
-0.011900834 -0.033197064 2.4011612 234 88 12
-0.010648115 -0.033197064 2.4011612 234 88 12
0.025112938 -0.032463066 2.408432 234 88 12
0.032463066 -0.032463066 2.408432 234 88 12
0.055738471 -0.032463066 2.408432 234 88 12
-0.031524707 -0.021947581 2.5205004 234 88 12
-0.021149488 -0.021947581 2.5205004 234 88 12
0.067094751 -0.085818872 1.9108199 234 88 12
-0.0075498982 -0.012295549 2.6167514 234 88 12
0.05328843 -0.034913108 2.408432 234 88 12
0.14199123 -0.088939555 1.9108199 234 88 12
-0.019306773 -0.032545704 2.4403985 234 88 12
-0.022616506 -0.03475219 2.4403985 234 88 12
-0.021922588 -0.039460659 2.4011612 234 88 12
-0.050197609 -0.035855435 2.4403985 234 88 12
-0.05699873 -0.043218818 2.4011612 234 88 12
-0.028186185 -0.043218818 2.4011612 234 88 12
0.044713277 -0.043488257 2.408432 234 88 12
-0.03475219 -0.040268414 2.4403985 234 88 12
-0.033197064 -0.045724254 2.4011612 234 88 12
-0.053240571 -0.048229694 2.4011612 234 88 12
-0.043578144 -0.043578144 2.4403985 234 88 12
-0.042474899 -0.043578144 2.4403985 234 88 12
-1.3901701 0.054504082 2.0661705 234 88 12
-1.3902098 0.053592253 2.0661705 234 88 12
-1.3907777 0.058184713 2.0656755 234 88 12
-1.3914517 0.042683605 2.0656755 234 88 12
-1.3926936 0.03177496 2.0651808 234 88 12
-1.3927592 0.065579288 2.0641911 234 88 12
-1.4744242 0.063025393 2.2823994 234 88 12
-1.3447942 0.047631517 1.9297349 234 88 12
-1.345045 0.041862268 1.9297349 234 88 12
-1.3458806 0.050568834 1.9289522 234 88 12
-1.3462569 0.041914962 1.9289522 234 88 12
-1.3471553 0.049179215 1.9281695 234 88 12
-1.3474689 0.041967653 1.9281695 234 88 12
-1.3479078 0.031871468 1.9281695 234 88 12
-1.3496214 0.020385662 1.9273869 234 88 12
-1.3958368 0.083070621 2.061717 234 88 12
-1.3492656 0.056496166 1.9266042 234 88 12
-1.3693465 0.046661932 1.9822422 234 88 12
-1.3705345 0.043035049 1.9815781 234 88 12
-1.397171 0.087696396 2.0607274 234 88 12
-1.3536962 0.010447554 1.9250387 234 88 12
-1.3986925 0.053899571 2.0581348 234 88 12
-1.3987325 0.052979559 2.0581348 234 88 12
-1.3730702 0.032109685 1.9802498 234 88 12
-1.4780639 0.064467296 2.2921264 234 88 12
-1.3525456 0.09276475 1.9234734 234 88 12
-1.3536744 0.066803128 1.9234734 234 88 12
-1.3745775 0.021139614 1.9795856 234 88 12
-1.4014785 0.023934929 2.0597377 234 88 12
-1.3555967 0.078447007 1.921908 234 88 12
-1.3751976 0.054273397 1.9782573 234 88 12
-1.4010117 0.054000407 2.056637 234 88 12
-1.4010518 0.053080395 2.056637 234 88 12
-1.3586694 0.0077737016 1.921908 234 88 12
-1.4008831 0.090598449 2.0582533 234 88 12
-1.4037771 0.024034867 2.0582533 234 88 12
-1.4016095 0.091543593 2.0577583 234 88 12
-1.3578951 0.081437021 1.9203426 234 88 12
-1.3740358 0.075414479 1.9697609 234 88 12
-1.3767755 0.065377608 1.9769291 234 88 12
-1.3587103 0.062686957 1.9203426 234 88 12
-1.4030378 0.043027468 2.0556386 234 88 12
-1.358041 0.10600903 1.9195598 234 88 12
-1.3745978 0.086724028 1.9690818 234 88 12
-1.3750331 0.076711737 1.9690818 234 88 12
-1.3755772 0.064196363 1.9690818 234 88 12
-1.3797727 0.020139311 1.9762648 234 88 12
-1.4699374 0.066094764 2.2662923 234 88 12
-1.4700022 0.064605765 2.2662923 234 88 12
-1.3800734 0.060616285 1.9749366 234 88 12
-1.3647919 0.0065948553 1.9179945 234 88 12
-1.3798382 0.063127726 1.9663651 234 88 12
-1.3651873 0.10920981 1.9148637 234 88 12
-1.3695769 0.0082479399 1.9148637 234 88 12
-1.3870778 0.018004568 1.9716158 234 88 12
-1.3699723 0.1108629 1.9117329 234 88 12
-1.3865833 0.053389769 1.96229 234 88 12
-1.4120616 0.031437021 2.0501468 234 88 12
-1.3742993 0.011343338 1.9117329 234 88 12
-1.3910849 0.020631148 1.9689592 234 88 12
-1.3883601 0.060990438 1.9609318 234 88 12
-1.3886867 0.053481214 1.9609318 234 88 12
-1.2550234 0.024891704 1.4643459 234 88 12
-1.2552944 0.018656222 1.4643459 234 88 12
-1.4135677 0.03242426 2.0491481 234 88 12
-1.4122174 0.094745457 2.0508308 234 88 12
-1.3930885 0.021944437 1.9676309 234 88 12
-1.3905723 0.058578808 1.9595734 234 88 12
-1.2598562 0.034472734 1.4609621 234 88 12
-1.3912797 0.04230883 1.9595734 234 88 12
-1.2623404 0.037704375 1.4592702 234 88 12
-1.2626115 0.031468894 1.4592702 234 88 12
-1.2631537 0.018997932 1.4592702 234 88 12
-1.2635604 0.0096447086 1.4592702 234 88 12
-1.4023157 0.073669545 1.9982761 234 88 12
-1.2630624 0.081466652 1.4575783 234 88 12
-1.41658 0.034398731 2.0471511 234 88 12
-1.3813828 0.015986433 1.9070367 234 88 12
-1.2660888 0.072227329 1.4558864 234 88 12
-1.2671733 0.047285404 1.4558864 234 88 12
-1.2689797 0.066105753 1.4541945 234 88 12
-1.2691153 0.062988013 1.4541945 234 88 12
-1.269522 0.053634789 1.4541945 234 88 12
-1.2700641 0.041163824 1.4541945 234 88 12
-1.2704709 0.031810604 1.4541945 234 88 12
-1.271013 0.01933964 1.4541945 234 88 12
-1.2714196 0.0099864174 1.4541945 234 88 12
-1.2717351 0.063101918 1.4525026 234 88 12
-1.2721417 0.053748693 1.4525026 234 88 12
-1.272684 0.041277729 1.4525026 234 88 12
-1.2730906 0.031924505 1.4525026 234 88 12
-1.2736328 0.019453542 1.4525026 234 88 12
-1.2740395 0.010100321 1.4525026 234 88 12
-1.417541 0.095890477 2.0473671 234 88 12
-1.4064517 0.06391079 1.9958836 234 88 12
-1.3831782 0.11432715 1.9031233 234 88 12
-1.3997008 0.10683826 1.9609894 234 88 12
-1.2830274 0.04485108 1.445735 234 88 12
-1.283163 0.041733339 1.445735 234 88 12
-1.2837052 0.029262377 1.445735 234 88 12
-1.2841119 0.019909155 1.445735 234 88 12
-1.2845185 0.010555932 1.445735 234 88 12
-1.4031595 0.027287023 1.9609894 234 88 12
-1.4097729 0.072889484 1.9934911 234 88 12
-1.4101562 0.064071856 1.9934911 234 88 12
-1.2859184 0.038729504 1.4440432 234 88 12
-1.286325 0.02937628 1.4440432 234 88 12
-1.2867316 0.020023057 1.4440432 234 88 12
-1.2871383 0.010669836 1.4440432 234 88 12
-1.4020137 0.037759915 1.9527817 234 88 12
-1.4225645 0.039267693 2.0431571 234 88 12
-1.3908902 0.020734917 1.9007752 234 88 12
-1.411769 0.069663413 1.9922948 234 88 12
-1.4120086 0.064152397 1.9922948 234 88 12
-1.2929201 -0.0015733215 1.4406593 234 88 12
-1.413414 0.053170633 1.9916967 234 88 12
-1.2941843 0.029717989 1.4389675 234 88 12
-1.294591 0.020364767 1.4389675 234 88 12
-1.2951331 0.0078938035 1.4389675 234 88 12
-1.2955399 -0.0014594186 1.4389675 234 88 12
-1.2943641 0.085951224 1.4372755 234 88 12
-1.4062747 0.036691271 1.950065 234 88 12
-1.4490851 0.069853611 2.1545246 234 88 12
-1.3940231 0.1162437 1.8960789 234 88 12
-1.4437354 0.070374705 2.1264713 234 88 12
-1.4342917 0.069717191 2.0807371 234 88 12
-1.4351283 0.076563828 2.0826921 234 88 12
-1.4442456 0.070396885 2.1261418 234 88 12
-1.4017196 0.073887564 1.9180821 234 88 12
-1.4102153 0.07162416 1.9593133 234 88 12
-1.3024945 0.080057457 1.4321998 234 88 12
-1.3053411 0.014584897 1.4321998 234 88 12
-1.3056122 0.0083494158 1.4321998 234 88 12
-1.3060189 -0.0010038067 1.4321998 234 88 12
-1.4394469 0.074155629 2.1001093 234 88 12
-1.4295857 0.074029684 2.0508318 234 88 12
-1.4583895 0.067596242 2.1932914 234 88 12
-1.3581159 0.081778407 1.695567 234 88 12
-1.4517846 0.067713536 2.1603298 234 88 12
-1.3051143 0.080171354 1.4305079 234 88 12
-1.4106989 0.031868018 1.9473484 234 88 12
-1.4058231 0.079011336 1.9269552 234 88 12
-1.4632858 0.066847526 2.2162533 234 88 12
-1.3988221 0.085095659 1.8856461 234 88 12
-1.3773239 0.088851571 1.7753237 234 88 12
-1.4126934 0.034462538 1.94599 234 88 12
-1.4128021 0.031959463 1.94599 234 88 12
-1.4231105 0.08108256 2.0052645 234 88 12
-1.3655787 0.090111867 1.7045141 234 88 12
-1.401935 0.080389671 1.8936495 234 88 12
-1.4349638 0.072650217 2.0657241 234 88 12
-1.4233189 0.071782351 2.0042326 234 88 12
-1.3132447 0.074277587 1.4254322 234 88 12
-1.4213024 0.042470746 1.9869117 234 88 12
-1.3164979 -0.0005481948 1.4254322 234 88 12
-1.4012947 0.11655986 1.8913828 234 88 12
-1.3286639 0.11324413 1.5013851 234 88 12
-1.3090026 0.11649089 1.3967772 234 88 12
-1.4202684 0.07788077 1.9840499 234 88 12
-1.4275162 0.072331086 2.0215976 234 88 12
-1.4573634 0.066426888 2.1801717 234 88 12
-1.4690801 0.065070271 2.242645 234 88 12
-1.3158644 0.074391484 1.4237403 234 88 12
-1.414045 0.10868809 1.9516913 234 88 12
-1.3946729 0.092207484 1.8420556 234 88 12
-1.4238033 0.079399146 1.9979985 234 88 12
-1.4225662 0.075448558 1.9903094 234 88 12
-1.4435735 0.070598088 2.1038074 234 88 12
-1.3186197 0.071387649 1.4220484 234 88 12
-1.4225798 0.055777717 1.9857154 234 88 12
-1.4226756 0.05357331 1.9857154 234 88 12
-1.4231548 0.042551283 1.9857154 234 88 12
-1.3220086 -0.0065558706 1.4220484 234 88 12
-1.3222797 -0.012791352 1.4220484 234 88 12
-1.4327344 0.036944602 2.0366666 234 88 12
-1.3300716 0.1145903 1.4798737 234 88 12
-1.3174831 0.1126302 1.4094137 234 88 12
-1.3177575 0.10631661 1.4094137 234 88 12
-1.3780249 0.086667314 1.7397218 234 88 12
-1.3919359 0.081885457 1.8159045 234 88 12
-1.430558 0.072172821 2.0282767 234 88 12
-1.3701305 0.07994324 1.6942075 234 88 12
-1.4326569 0.070025273 2.0394266 234 88 12
-1.450379 0.067261443 2.1372852 234 88 12
-1.4335475 0.036058202 2.0361674 234 88 12
-1.4161017 0.10877752 1.9503629 234 88 12
-1.3027093 0.12841578 1.3128421 234 88 12
-1.3984004 0.090403378 1.8455611 234 88 12
-1.4122901 0.080659196 1.9218448 234 88 12
-1.3578031 0.091701731 1.6159008 234 88 12
-1.418534 0.076739974 1.9562509 234 88 12
-1.4342916 0.06817241 2.0434058 234 88 12
-1.3275193 -0.012563546 1.4186646 234 88 12
-1.3056458 0.12854345 1.3109457 234 88 12
-1.4126333 0.086188413 1.9180526 234 88 12
-1.3513242 0.10397064 1.568521 234 88 12
-1.353017 0.10093082 1.5775318 234 88 12
-1.3597276 0.094205163 1.6145902 234 88 12
-1.40039 0.07925076 1.8456185 234 88 12
-1.3264791 0.071729355 1.4169728 234 88 12
-1.4403865 0.051841054 2.0696754 234 88 12
-1.4081405 0.090991393 1.8854852 234 88 12
-1.3916054 0.09372393 1.7888452 234 88 12
-1.4082894 0.083790652 1.8845189 234 88 12
-1.4181403 0.079826526 1.9414946 234 88 12
-1.3835313 0.082860187 1.7385345 234 88 12
-1.4254874 0.07248386 1.9828662 234 88 12
-1.4158374 0.072673462 1.9261073 234 88 12
-1.3295054 0.062490039 1.4152808 234 88 12
-1.3331654 -0.021688962 1.4152808 234 88 12
-1.2991679 0.14093126 1.2361676 234 88 12
-1.3589903 0.10307936 1.5854442 234 88 12
-1.3976475 0.087196611 1.8133856 234 88 12
-1.3657131 0.09387707 1.6234045 234 88 12
-1.3620313 0.092414878 1.6009183 234 88 12
-1.4234545 0.074147739 1.9649178 234 88 12
-1.428316 0.071167395 1.9933263 234 88 12
-1.4333125 0.066657789 2.0221474 234 88 12
-1.3904514 0.065151468 1.7644281 234 88 12
-1.390533 0.063276194 1.7644281 234 88 12
-1.4269708 0.06149007 1.9827248 234 88 12
-1.4273063 0.053774647 1.9827248 234 88 12
-1.4416225 0.054291338 2.06881 234 88 12
-1.4416572 0.053493995 2.06881 234 88 12
-1.4279293 0.039446011 1.9827248 234 88 12
-1.3041816 0.1366162 1.2443781 234 88 12
-1.3215843 0.12612081 1.3481735 234 88 12
-1.3147824 0.12536658 1.306311 234 88 12
-1.4057533 0.088406406 1.8536555 234 88 12
-1.4052769 0.087018527 1.8503684 234 88 12
-1.4073491 0.083365098 1.8620874 234 88 12
-1.4028296 0.079747021 1.8334426 234 88 12
-1.431921 0.06882327 2.0087152 234 88 12
-1.4166931 0.06763231 1.9151285 234 88 12
-1.3385406 -0.024578897 1.4118971 234 88 12
-1.422539 0.02611329 1.9398775 234 88 12
-1.3241026 0.13292889 1.3463594 234 88 12
-1.3243934 0.12624294 1.3463594 234 88 12
-1.413416 0.087714702 1.8923303 234 88 12
-1.3771602 0.098553888 1.6686567 234 88 12
-1.3696008 0.096425287 1.6208271 234 88 12
-1.4143511 0.07908342 1.8958291 234 88 12
-1.4156649 0.076051973 1.9032172 234 88 12
-1.4157249 0.074673496 1.9032172 234 88 12
-1.4234968 0.072191119 1.9511219 234 88 12
-1.4363965 0.063854188 2.0294862 234 88 12
-1.3685249 0.06071971 1.6043991 234 88 12
-1.3802149 0.050158232 1.6745979 234 88 12
-1.316432 0.037378177 1.2724462 234 88 12
-1.3875158 0.0471269 1.7194091 234 88 12
-1.3154879 0.029905774 1.2645142 234 88 12
-1.3412958 -0.027582735 1.4102051 234 88 12
-1.4235907 0.026159013 1.9391983 234 88 12
-1.3100017 0.13706605 1.237757 234 88 12
-1.3695534 0.10427099 1.6086565 234 88 12
-1.4333848 0.078912139 2.0089276 234 88 12
-1.4261365 0.080102436 1.9630069 234 88 12
-1.4043016 0.085042424 1.8250498 234 88 12
-1.4004952 0.084388137 1.8005791 234 88 12
-1.4244605 0.073444776 1.9504656 234 88 12
-1.4335716 0.069905162 2.0076208 234 88 12
-1.4493792 0.065322198 2.1072178 234 88 12
-1.457882 0.064556479 2.1612616 234 88 12
-1.4254649 0.062576629 1.9538589 234 88 12
-1.3706747 0.058375929 1.603079 234 88 12
-1.3202945 0.052037787 1.2798446 234 88 12
-1.3796699 0.054388966 1.6593704 234 88 12
-1.3877629 0.053135507 1.7106645 234 88 12
-1.3271974 0.042261481 1.3211803 234 88 12
-1.3711324 0.046200674 1.6026212 234 88 12
-1.3599741 0.038900372 1.5293952 234 88 12
-1.3623019 0.03673175 1.5436474 234 88 12
-1.4441178 0.04321596 2.0675118 234 88 12
-1.4310433 0.031851396 1.9809303 234 88 12
-1.4233005 0.10909051 1.9457139 234 88 12
-1.3150512 0.13635443 1.2480389 234 88 12
-1.3504181 0.112276 1.4716836 234 88 12
-1.3413461 0.11262292 1.412665 234 88 12
-1.4055455 0.088404886 1.8241538 234 88 12
-1.3954948 0.089865528 1.7590736 234 88 12
-1.4233099 0.078840896 1.9372053 234 88 12
-1.4149141 0.076752044 1.8819023 234 88 12
-1.4149771 0.07530392 1.8819023 234 88 12
-1.3843217 0.07633692 1.6824317 234 88 12
-1.4701146 0.064409584 2.238116 234 88 12
-1.4629636 0.063787773 2.1913402 234 88 12
-1.3694223 0.058283564 1.5802258 234 88 12
-1.3987998 0.058058515 1.7715985 234 88 12
-1.3272111 0.048977647 1.3025225 234 88 12
-1.3692422 0.050695561 1.5769023 234 88 12
-1.3202231 0.040934447 1.2547066 234 88 12
-1.4153764 0.052016057 1.8779066 234 88 12
-1.3272591 0.031402122 1.2978556 234 88 12
-1.3175206 0.02552228 1.23273 234 88 12
-1.4442677 0.055205196 2.0670793 234 88 12
-1.4448224 0.04244775 2.0670793 234 88 12
-1.3468065 -0.03359041 1.4068214 234 88 12
-1.4259115 0.021244312 1.93784 234 88 12
-1.3179801 0.14016449 1.2460443 234 88 12
-1.327379 0.13233393 1.3063488 234 88 12
-1.3212444 0.13155492 1.2652837 234 88 12
-1.3214012 0.12794663 1.2652837 234 88 12
-1.3583912 0.11026266 1.5064147 234 88 12
-1.3585112 0.1075002 1.5064147 234 88 12
-1.3444184 0.1064787 1.4123003 234 88 12
-1.3676565 0.096652351 1.5641568 234 88 12
-1.4105978 0.081030488 1.8455048 234 88 12
-1.4231371 0.072848774 1.9266132 234 88 12
-1.4561533 0.063046761 2.1435719 234 88 12
-1.3962815 0.051975612 1.741788 234 88 12
-1.3996055 0.048723113 1.7629756 234 88 12
-1.4052573 0.048089676 1.8004177 234 88 12
-1.4407051 0.031760637 2.0316739 234 88 12
-1.3235259 0.12488578 1.2562079 234 88 12
-1.347017 0.10659168 1.410622 234 88 12
-1.3698075 0.096745878 1.5627676 234 88 12
-1.3983109 0.086382501 1.7536286 234 88 12
-1.406902 0.082350247 1.810886 234 88 12
-1.4121869 0.079469532 1.8459907 234 88 12
-1.4118252 0.076423213 1.8426285 234 88 12
-1.4118938 0.074843094 1.8426285 234 88 12
-1.4250978 0.0714968 1.9314735 234 88 12
-1.4457886 0.067162395 2.0709639 234 88 12
-1.4428086 0.066573419 2.0505152 234 88 12
-1.4607927 0.062440187 2.1716495 234 88 12
-1.3949003 0.053610448 1.7207301 234 88 12
-1.4115927 0.054120511 1.8344493 234 88 12
-1.3872703 0.046011835 1.6665704 234 88 12
-1.4235141 0.05192009 1.9149076 234 88 12
-1.4338696 0.030869994 1.979136 234 88 12
-1.3271514 0.13542683 1.2613676 234 88 12
-1.3274652 0.12821028 1.2613676 234 88 12
-1.3265787 0.12501852 1.2542363 234 88 12
-1.3468632 0.11382303 1.3919499 234 88 12
-1.4253722 0.083068833 1.9287615 234 88 12
-1.3496157 0.10670467 1.4089438 234 88 12
-1.4015543 0.085986428 1.763966 234 88 12
-1.4225407 0.073390529 1.9061382 234 88 12
-1.4148349 0.073107436 1.8524507 234 88 12
-1.473802 0.064256929 2.2599518 234 88 12
-1.4665939 0.063025206 2.2094398 234 88 12
-1.46206 0.062142458 2.177635 234 88 12
-1.342934 0.040064011 1.3423114 234 88 12
-1.3797774 0.044194747 1.5998451 234 88 12
-1.4078839 0.048151702 1.7965518 234 88 12
-1.3269264 0.14791888 1.2400601 234 88 12
-1.3301834 0.13555866 1.2594094 234 88 12
-1.3542628 0.11807013 1.4253212 234 88 12
-1.3493747 0.11709016 1.3902394 234 88 12
-1.3876204 0.09491244 1.6554916 234 88 12
-1.4447083 0.067441233 2.0531645 234 88 12
-1.3677173 0.044172008 1.4981872 234 88 12
-1.3678379 0.041396532 1.4981872 234 88 12
-1.3298552 0.15172894 1.2380654 234 88 12
-1.3308758 0.13324678 1.2396454 234 88 12
-1.3520231 0.11720531 1.3885289 234 88 12
-1.3317094 0.12209644 1.2421845 234 88 12
-1.4336761 0.080890656 1.9714998 234 88 12
-1.4034173 0.08276388 1.7517971 234 88 12
-1.4691211 0.063509099 2.2240512 234 88 12
-1.3987154 0.055713225 1.7090015 234 88 12
-1.377501 0.043037694 1.5505407 234 88 12
-1.3754612 0.039942041 1.5347102 234 88 12
-1.3297821 0.15376301 1.2131209 234 88 12
-1.3299453 0.1500075 1.2131209 234 88 12
-1.3339598 0.13338087 1.2376536 234 88 12
-1.3386487 0.11717035 1.2673471 234 88 12
-1.3846279 0.095084883 1.602882 234 88 12
-1.3766065 0.095139228 1.5431137 234 88 12
-1.4202499 0.07602869 1.8622041 234 88 12
-1.4203153 0.074528508 1.8622041 234 88 12
-1.4393157 0.068173558 2.0017591 234 88 12
-1.4550259 0.065406471 2.1179533 234 88 12
-1.4539706 0.06289465 2.1092734 234 88 12
-1.4451334 0.06064501 2.0426795 234 88 12
-1.4529612 0.060822148 2.1010787 234 88 12
-1.4064977 0.050766237 1.7515197 234 88 12
-1.3370439 0.13351496 1.235662 234 88 12
-1.3332492 0.13167681 1.2060846 234 88 12
-1.3340027 0.12764582 1.210499 234 88 12
-1.3898369 0.091815144 1.6248255 234 88 12
-1.422096 0.07596276 1.8658187 234 88 12
-1.4157785 0.07562805 1.8174824 234 88 12
-1.3886893 0.054381281 1.6036408 234 88 12
-1.3966269 0.05305934 1.663795 234 88 12
-1.4334363 0.017809765 1.9330858 234 88 12
-1.4455035 0.028282253 2.0286784 234 88 12
-1.3364569 0.14650504 1.2093269 234 88 12
-1.3377504 0.14212632 1.2179557 234 88 12
-1.3379123 0.13840166 1.2179557 234 88 12
-1.3364195 0.13181464 1.2040372 234 88 12
-1.3371601 0.1277831 1.20846 234 88 12
-1.3693786 0.10762513 1.4536285 234 88 12
-1.3443507 0.11402965 1.26003 234 88 12
-1.4129627 0.086901218 1.787511 234 88 12
-1.4130388 0.085148111 1.787511 234 88 12
-1.4000592 0.08719866 1.686677 234 88 12
-1.4001507 0.085096508 1.686677 234 88 12
-1.411356 0.08034455 1.7727133 234 88 12
-1.4138149 0.076309428 1.7905755 234 88 12
-1.4138907 0.074566931 1.7905755 234 88 12
-1.4350212 0.068878122 1.9539312 234 88 12
-1.4526081 0.065627784 2.0903969 234 88 12
-1.4575453 0.062507957 2.1279562 234 88 12
-1.4656552 0.062479071 2.1913855 234 88 12
-1.4325559 0.10949292 1.9397365 234 88 12
-1.3410422 0.13853773 1.2159344 234 88 12
-1.3421402 0.12708224 1.220746 234 88 12
-1.3472025 0.11773942 1.2580878 234 88 12
-1.433383 0.080278963 1.9361827 234 88 12
-1.368814 0.10010935 1.4252621 234 88 12
-1.4018257 0.08727546 1.6855363 234 88 12
-1.401917 0.085173309 1.6855363 234 88 12
-1.4128722 0.080410466 1.7717341 234 88 12
-1.4342685 0.070327915 1.939814 234 88 12
-1.4667919 0.064269036 2.198535 234 88 12
-1.3638757 0.051291175 1.3686355 234 88 12
-1.4335843 0.10953763 1.9390724 234 88 12
-1.474788 0.067797467 2.2631178 234 88 12
-1.3487656 0.12202181 1.2457486 234 88 12
-1.3489227 0.11840694 1.2457486 234 88 12
-1.39588 0.096556775 1.6242425 234 88 12
-1.3715971 0.094216183 1.4236333 234 88 12
-1.3934611 0.085744075 1.6004752 234 88 12
-1.413316 0.078929745 1.7613801 234 88 12
-1.4326431 0.072033457 1.9179139 234 88 12
-1.4557528 0.065569937 2.105722 234 88 12
-1.4612787 0.064276218 2.1507189 234 88 12
-1.4579223 0.062499166 2.1224718 234 88 12
-1.4067917 0.053967338 1.6987766 234 88 12
-1.4068809 0.051914789 1.6987766 234 88 12
-1.4110508 0.048728067 1.7319421 234 88 12
-1.4184053 0.048673358 1.7924268 234 88 12
-1.413764 -1.4138297 1.8560791 234 88 12
-1.3342249 -1.3477777 1.6176304 234 88 12
-1.3359549 -1.3469262 1.6169616 234 88 12
-1.3249836 -1.3578974 1.6169616 234 88 12
-1.3376849 -1.3460746 1.6162928 234 88 12
-1.3363941 -1.3473654 1.6162928 234 88 12
-1.3357487 -1.3480108 1.6162928 234 88 12
-1.3254228 -1.3583367 1.6162928 234 88 12
-1.3265073 -1.3581305 1.6156242 234 88 12
-1.3181444 -1.3691287 1.613618 234 88 12
-1.4061102 -1.4064865 1.8291874 234 88 12
-1.3006541 -1.3098416 1.4672593 234 88 12
-1.3147383 -1.3760484 1.6109431 234 88 12
-1.3474461 -1.3442192 1.6102743 234 88 12
-1.3044113 -1.3074738 1.4662015 234 88 12
-1.2962446 -1.3156404 1.4662015 234 88 12
-1.3061268 -1.3071477 1.4651438 234 88 12
-1.3030643 -1.3102102 1.4651438 234 88 12
-1.2979602 -1.3153144 1.4651438 234 88 12
-1.2928561 -1.3204185 1.4651438 234 88 12
-1.286731 -1.3265436 1.4651438 234 88 12
-1.2816269 -1.3316476 1.4651438 234 88 12
0.064089559 -1.4780864 2.2921224 234 88 12
0.061300926 -1.4699668 2.2664077 234 88 12
0.049282983 -1.4463696 2.1804371 234 88 12
0.064735435 -1.4705337 2.2659459 234 88 12
-0.078294575 -1.1993773 1.2979702 234 88 12
0.062260691 -1.446894 2.1797354 234 88 12
0.058939647 -1.3722298 1.9117329 234 88 12
0.064708896 -1.371979 1.9117329 234 88 12
0.051833473 -1.3749672 1.9101675 234 88 12
0.076352783 -1.3739012 1.9101675 234 88 12
0.086501665 -1.3746742 1.9093848 234 88 12
0.098040164 -1.3741726 1.9093848 234 88 12
0.10813635 -1.3737335 1.9093848 234 88 12
0.090252936 -1.4139479 2.0498414 234 88 12
0.044832684 -1.3801286 1.9070367 234 88 12
0.054928869 -1.3796896 1.9070367 234 88 12
0.060443111 -1.4028908 1.9982761 234 88 12
0.064851917 -1.4026991 1.9982761 234 88 12
0.066467367 -1.3791879 1.9070367 234 88 12
0.076563552 -1.378749 1.9070367 234 88 12
0.086659744 -1.3783101 1.9070367 234 88 12
0.098198242 -1.3778083 1.9070367 234 88 12
0.11406368 -1.3771186 1.9070367 234 88 12
0.037932184 -1.2675799 1.4558864 234 88 12
0.055167645 -1.3957653 1.9649743 234 88 12
0.064958565 -1.3953396 1.9649743 234 88 12
0.073731624 -1.3800863 1.9062541 234 88 12
0.07661625 -1.3799609 1.9062541 234 88 12
0.086712435 -1.379522 1.9062541 234 88 12
0.085760415 -1.4156785 2.0488517 234 88 12
0.051540762 -1.3969533 1.9643102 234 88 12
0.075954482 -1.4040722 1.9970798 234 88 12
0.074851766 -1.4169204 2.0483568 234 88 12
0.09764751 -1.4159293 2.0483568 234 88 12
0.119991 -1.3805035 1.9046886 234 88 12
0.043022458 -1.451359 2.1773965 234 88 12
0.081301197 -1.4181753 2.0473671 234 88 12
0.086772181 -1.4179374 2.0473671 234 88 12
0.097714141 -1.4174618 2.0473671 234 88 12
0.042211525 -1.3863137 1.9031233 234 88 12
0.02279909 -1.2787368 1.4491189 234 88 12
0.076152205 -1.3989743 1.9623177 234 88 12
0.049271882 -1.4011734 1.9616535 234 88 12
0.042207666 -1.4524831 2.1766946 234 88 12
0.04350071 -1.4524268 2.1766946 234 88 12
0.054276101 -1.4519583 2.1766946 234 88 12
0.023026897 -1.2839763 1.445735 234 88 12
0.049316596 -1.4022018 1.9609894 234 88 12
0.05788365 -1.4018292 1.9609894 234 88 12
0.065226838 -1.40151 1.9609894 234 88 12
0.076241627 -1.401031 1.9609894 234 88 12
0.07746549 -1.4009778 1.9609894 234 88 12
0.020023057 -1.2867316 1.4440432 234 88 12
0.049743224 -1.4107792 1.9934911 234 88 12
0.079502702 -1.4094853 1.9934911 234 88 12
0.042422295 -1.3911614 1.8999925 234 88 12
0.049823757 -1.4126316 1.9922948 234 88 12
0.064285077 -1.4759141 2.2814038 234 88 12
0.12937179 -1.2872268 1.4406593 234 88 12
0.084236562 -1.4226536 2.0443983 234 88 12
0.017247027 -1.2947265 1.4389675 234 88 12
0.08293011 -1.4121201 1.9916967 234 88 12
0.086236723 -1.4119763 1.9916967 234 88 12
0.087005369 -1.4233007 2.0439034 234 88 12
0.097035497 -1.4228647 2.0439034 234 88 12
0.091758899 -1.4038804 1.950065 234 88 12
0.08630082 -1.4067757 1.9570044 234 88 12
0.13205644 -1.3921213 1.8968617 234 88 12
0.041024845 -1.4550744 2.1750574 234 88 12
0.043179922 -1.4549807 2.1750574 234 88 12
0.036916513 -1.397472 1.8960789 234 88 12
0.0082355123 -1.3029925 1.4338917 234 88 12
0.13294515 -1.2975703 1.4338917 234 88 12
0.05397106 -1.4548744 2.1748235 234 88 12
0.0021139341 -1.3058833 1.4321998 234 88 12
0.011467156 -1.3054767 1.4321998 234 88 12
0.13360414 -1.3944825 1.8952962 234 88 12
-0.0071253851 -1.3089098 1.4305079 234 88 12
0.064662099 -1.4761294 2.2812545 234 88 12
0.13629068 -1.3026743 1.4305079 234 88 12
0.098199479 -1.4078149 1.9473484 234 88 12
-0.016364705 -1.3119363 1.428816 234 88 12
0.04976372 -1.4124856 1.9543478 234 88 12
0.10817733 -1.4269861 2.0409346 234 88 12
-0.025604025 -1.3149626 1.4271241 234 88 12
0.077957332 -1.4122901 1.9536837 234 88 12
0.086524382 -1.4119176 1.9536837 234 88 12
0.13963623 -1.3077782 1.4271241 234 88 12
-0.01925464 -1.3173113 1.4254322 234 88 12
-0.0099014174 -1.3169047 1.4254322 234 88 12
0.002569546 -1.3163624 1.4254322 234 88 12
0.011922768 -1.3159558 1.4254322 234 88 12
0.14286788 -1.3102624 1.4254322 234 88 12
0.10834894 -1.4105345 1.9453108 234 88 12
-0.03472944 -1.3206089 1.4237403 234 88 12
0.074631542 -1.4303213 2.0371659 234 88 12
0.098382369 -1.4120214 1.9446317 234 88 12
-0.037733279 -1.3233641 1.4220484 234 88 12
-0.031497795 -1.3230931 1.4220484 234 88 12
-0.019026833 -1.3225508 1.4220484 234 88 12
-0.0096736113 -1.3221442 1.4220484 234 88 12
0.0027973519 -1.321602 1.4220484 234 88 12
0.012150574 -1.3211952 1.4220484 234 88 12
0.046960093 -1.4229631 1.9857154 234 88 12
0.14933117 -1.315231 1.4220484 234 88 12
0.10844039 -1.4126378 1.9439524 234 88 12
0.13536261 -1.4016914 1.8906001 234 88 12
-0.040737115 -1.3261194 1.4203565 234 88 12
-0.031383894 -1.3257128 1.4203565 234 88 12
0.097718023 -1.4155523 1.951027 234 88 12
0.15256281 -1.3177152 1.4203565 234 88 12
-0.043740954 -1.3288748 1.4186646 234 88 12
-0.018799027 -1.3277904 1.4186646 234 88 12
-0.0094458051 -1.3273838 1.4186646 234 88 12
0.0030251578 -1.3268415 1.4186646 234 88 12
0.087971814 -1.4170064 1.9503629 234 88 12
0.064996608 -1.4764239 2.2810552 234 88 12
0.041610148 -1.4269073 1.9833229 234 88 12
0.16225775 -1.3251678 1.4152808 234 88 12
0.097501874 -1.4335914 2.0369759 234 88 12
-0.046516985 -1.3368696 1.4135889 234 88 12
-0.040281504 -1.3365985 1.4135889 234 88 12
0.040548213 -1.4278814 1.9827248 234 88 12
0.043854821 -1.4277376 1.9827248 234 88 12
0.079433277 -1.4347597 2.0341704 234 88 12
0.16548939 -1.327652 1.4135889 234 88 12
0.098447017 -1.4343179 2.0364811 234 88 12
0.10847715 -1.4338818 2.0364811 234 88 12
-0.051855966 -1.3134469 1.2509373 234 88 12
-0.030814379 -1.3388116 1.4118971 234 88 12
-0.021461157 -1.338405 1.4118971 234 88 12
0.04726642 -1.4369328 2.0336711 234 88 12
0.13856339 -1.4088377 1.8859038 234 88 12
-0.046289179 -1.3421092 1.4102051 234 88 12
-0.040053699 -1.3418381 1.4102051 234 88 12
-0.055407945 -1.316705 1.2489368 234 88 12
-0.051721275 -1.3165448 1.2489368 234 88 12
-0.042867064 -1.3184388 1.2631816 234 88 12
-0.024464995 -1.3411603 1.4102051 234 88 12
-0.021347253 -1.3410248 1.4102051 234 88 12
0.048768215 -1.4432051 2.0679445 234 88 12
0.054349598 -1.4429625 2.0679445 234 88 12
0.06466458 -1.4777062 2.2879157 234 88 12
0.17507042 -1.3324848 1.4102051 234 88 12
0.11126353 -1.4198904 1.9391983 234 88 12
-0.064124279 -1.3182776 1.2347478 234 88 12
-0.046370629 -1.3216524 1.2612083 234 88 12
0.14011109 -1.4111989 1.8843385 234 88 12
0.018741239 -1.4260204 1.93784 234 88 12
-0.046061374 -1.3473487 1.4068214 234 88 12
-0.042943634 -1.3472131 1.4068214 234 88 12
-0.035081461 -1.349064 1.4211096 234 88 12
-0.032013934 -1.3489306 1.4211096 234 88 12
0.042797115 -1.4476951 2.0858977 234 88 12
0.040007148 -1.439572 2.0321732 234 88 12
0.044042431 -1.4447532 2.0670793 234 88 12
0.054407857 -1.4443024 2.0670793 234 88 12
0.086927831 -1.4375319 2.0321732 234 88 12
0.10786664 -1.4233537 1.9457139 234 88 12
0.18465145 -1.3373177 1.4068214 234 88 12
0.14016378 -1.4124107 1.8835558 234 88 12
-0.010358284 -1.3831425 1.6362764 234 88 12
-0.0015144318 -1.3855629 1.65495 234 88 12
0.041679539 -1.4455271 2.0666466 234 88 12
0.026461182 -1.4340613 1.979136 234 88 12
0.014978241 -1.4187046 1.8712579 234 88 12
0.19423248 -1.3421506 1.4034375 234 88 12
0.11770411 -1.4238249 1.9364816 234 88 12
-0.051841244 -1.3580989 1.4000537 234 88 12
0.20069575 -1.3471191 1.4000537 234 88 12
-0.05484508 -1.3608543 1.3983618 234 88 12
0.010700777 -1.4226282 1.8688487 234 88 12
0.0595291 -1.4433703 2.0291777 234 88 12
0.012803618 -1.433654 1.9330858 234 88 12
0.057722684 -1.4442234 2.0286784 234 88 12
-0.060738854 -1.3689847 1.3932861 234 88 12
0.010391991 -1.435866 1.9317274 234 88 12
0.065150015 -1.4454496 2.0276799 234 88 12
0.089070365 -1.4444096 2.0276799 234 88 12
0.20438302 -1.3600823 1.3915943 234 88 12
0.14208034 -1.4232556 1.8765116 234 88 12
0.0179657 -1.441854 1.9743509 234 88 12
0.03157628 -1.4520077 2.0627522 234 88 12
0.097384095 -1.4448227 2.0271807 234 88 12
0.20449692 -1.3627021 1.3899024 234 88 12
0.10803169 -1.4446481 2.0295537 234 88 12
1.2177414 0.13666333 2.3121858 234 88 12
1.2182782 0.13542511 2.311986 234 88 12
1.2180811 0.14018206 2.3117862 234 88 12
1.2172425 0.14703369 2.3117862 234 88 12
1.1883277 0.12253501 2.2197402 234 88 12
1.2171503 0.15093419 2.3115866 234 88 12
1.2179095 0.1510271 2.311187 234 88 12
1.1909657 0.13009433 2.2178922 234 88 12
1.2196878 0.1616762 2.3095887 234 88 12
1.1965359 0.11951943 2.2156746 234 88 12
1.1744145 0.11318183 2.1371732 234 88 12
1.1753851 0.11330063 2.1366622 234 88 12
1.1966796 0.12998967 2.2149355 234 88 12
1.1756855 0.11889479 2.1361516 234 88 12
0.98040688 0.11809831 1.4454894 234 88 12
0.97994798 0.12184767 1.4454894 234 88 12
0.97903013 0.12934639 1.4454894 234 88 12
0.97765338 0.14059447 1.4454894 234 88 12
0.97627664 0.15184255 1.4454894 234 88 12
0.97489989 0.16309063 1.4454894 234 88 12
0.97352308 0.17433873 1.4454894 234 88 12
1.1982276 0.14063179 2.2134573 234 88 12
0.98602462 0.099758253 1.4437402 234 88 12
0.98464787 0.11100633 1.4437402 234 88 12
0.98327112 0.12225442 1.4437402 234 88 12
0.98235327 0.12975314 1.4437402 234 88 12
0.98097652 0.14100122 1.4437402 234 88 12
0.98051757 0.14475058 1.4437402 234 88 12
0.97959977 0.15224931 1.4437402 234 88 12
0.97822297 0.16349739 1.4437402 234 88 12
0.97684622 0.17474547 1.4437402 234 88 12
0.97546947 0.18599355 1.4437402 234 88 12
0.98292285 0.15265605 1.441991 234 88 12
0.9815461 0.16390413 1.441991 234 88 12
0.97741586 0.19764839 1.441991 234 88 12
0.97649801 0.2051471 1.441991 234 88 12
1.254299 0.15370867 2.4178047 234 88 12
1.1813426 0.11291835 2.1335971 234 88 12
1.1805384 0.11948878 2.1335971 234 88 12
1.1779917 0.14029513 2.1335971 234 88 12
1.037107 0.11908118 1.6105033 234 88 12
1.0355904 0.13147146 1.6105033 234 88 12
0.98349249 0.17555897 1.4402418 234 88 12
0.98211575 0.18680705 1.4402418 234 88 12
0.98119789 0.19430578 1.4402418 234 88 12
1.0406107 0.11322208 1.6090581 234 88 12
0.9937216 0.13860507 1.4471219 234 88 12
1.1812732 0.12958202 2.1325753 234 88 12
1.0399438 0.14143625 1.6076131 234 88 12
1.1255022 0.14814922 1.9317962 234 88 12
0.99381012 0.14637758 1.4367435 234 88 12
0.99289227 0.1538763 1.4367435 234 88 12
0.99151552 0.16512439 1.4367435 234 88 12
1.0368023 0.18449512 1.6156025 234 88 12
1.0468599 0.10769903 1.6061679 234 88 12
1.0464807 0.11079659 1.6061679 234 88 12
1.126696 0.15207301 1.930928 234 88 12
1.1408529 0.15389542 1.985697 234 88 12
1.1130693 0.15602078 1.8808678 234 88 12
0.9939208 0.17302985 1.4349942 234 88 12
0.99254405 0.18427794 1.4349942 234 88 12
1.0398961 0.18176077 1.6141716 234 88 12
1.0552924 0.061571527 1.6047229 234 88 12
1.0549133 0.064669095 1.6047229 234 88 12
1.0499845 0.10493749 1.6047229 234 88 12
1.0496053 0.10803507 1.6047229 234 88 12
1.0480887 0.12042534 1.6047229 234 88 12
1.0469513 0.12971805 1.6047229 234 88 12
1.0454347 0.14210832 1.6047229 234 88 12
1.0450556 0.1452059 1.6047229 234 88 12
0.99770284 0.16968724 1.4332451 234 88 12
0.99724394 0.1734366 1.4332451 234 88 12
1.2474388 0.15520599 2.3918524 234 88 12
1.1860615 0.11460742 2.1310427 234 88 12
1.1855253 0.1189877 2.1310427 234 88 12
1.1758314 0.11678642 2.0919397 234 88 12
1.0572796 0.068102702 1.6032777 234 88 12
1.0142878 0.088465139 1.4443318 234 88 12
1.0470427 0.15173708 1.6032777 234 88 12
1.1246949 0.15436807 1.9093 234 88 12
1.1117122 0.15868637 1.8604215 234 88 12
1.1021682 0.163517 1.8252851 234 88 12
1.0966653 0.16849394 1.8060787 234 88 12
1.0960953 0.17315011 1.8060787 234 88 12
1.0611624 0.059146035 1.6018326 234 88 12
1.1766291 0.1194082 2.0913596 234 88 12
1.0207386 0.062962003 1.4426054 234 88 12
1.0180209 0.085165948 1.4426054 234 88 12
1.0562335 0.099414438 1.6018326 234 88 12
1.228853 0.1371541 2.3063922 234 88 12
1.061633 0.078067489 1.6003875 234 88 12
1.0231127 0.070764787 1.4408789 234 88 12
1.0597373 0.093555339 1.6003875 234 88 12
1.0578415 0.10904318 1.6003875 234 88 12
1.0563251 0.12143346 1.6003875 234 88 12
1.083396 0.17329386 1.7356321 234 88 12
1.0479839 0.18957998 1.6003875 234 88 12
1.2073821 0.12406319 2.2097616 234 88 12
1.1792898 0.11594766 2.0901995 234 88 12
1.1788332 0.11967798 2.0901995 234 88 12
1.0579331 0.13106221 1.5989424 234 88 12
1.0567956 0.14035492 1.5989424 234 88 12
1.1296068 0.15693472 1.9065897 234 88 12
1.1217991 0.16325986 1.8776771 234 88 12
1.0860047 0.1709882 1.7344254 234 88 12
1.0856882 0.17357442 1.7344254 234 88 12
1.2257732 0.16546354 2.3061924 234 88 12
1.2295597 0.13767524 2.3059926 234 88 12
1.0580245 0.15308124 1.5974972 234 88 12
1.1238625 0.16143623 1.8767227 234 88 12
1.2086893 0.12502725 2.2090223 234 88 12
1.0694902 0.082173176 1.5960522 234 88 12
1.0687319 0.088368319 1.5960522 234 88 12
1.0675944 0.097661026 1.5960522 234 88 12
1.1556054 0.15822588 2.0009975 234 88 12
1.1323396 0.16124183 1.9038322 234 88 12
1.0718565 0.085606784 1.5946071 234 88 12
1.0714773 0.088704355 1.5946071 234 88 12
1.0703399 0.097997062 1.5946071 234 88 12
1.0688233 0.11038734 1.5946071 234 88 12
1.067686 0.11968005 1.5946071 234 88 12
1.0665485 0.12897275 1.5946071 234 88 12
1.0661694 0.13207032 1.5946071 234 88 12
1.0650319 0.14136304 1.5946071 234 88 12
1.0635154 0.15375331 1.5946071 234 88 12
1.0901204 0.16693239 1.7163123 234 88 12
1.1269878 0.16597116 1.874814 234 88 12
1.0601031 0.18163143 1.5946071 234 88 12
1.0689148 0.13240637 1.5931619 234 88 12
1.0677774 0.14169908 1.5931619 234 88 12
1.1428498 0.16118325 1.932768 234 88 12
1.1087277 0.16585344 1.7856683 234 88 12
1.1054941 0.16852382 1.7729241 234 88 12
1.0807596 0.058400743 1.5917169 234 88 12
1.0693854 0.15132782 1.5917169 234 88 12
1.0678688 0.16371809 1.5917169 234 88 12
1.176904 0.15909123 2.0752704 234 88 12
1.1859024 0.11675704 2.0867188 234 88 12
1.185598 0.11924391 2.0867188 234 88 12
1.0793345 0.092810042 1.5902717 234 88 12
1.0785762 0.099005185 1.5902717 234 88 12
1.0690976 0.17644441 1.5902717 234 88 12
1.1854825 0.12932633 2.0861387 234 88 12
1.0801842 0.10863393 1.5888267 234 88 12
1.0786676 0.12102421 1.5888267 234 88 12
1.2536128 0.15345202 2.4139717 234 88 12
1.1963358 0.11919941 2.125423 234 88 12
1.0889959 0.059408858 1.5873815 234 88 12
1.1850626 0.14189561 2.0855587 234 88 12
1.0780008 0.14923836 1.5873815 234 88 12
1.0803671 0.15267198 1.5859364 234 88 12
1.0792297 0.16196468 1.5859364 234 88 12
1.0972322 0.060416978 1.5830462 234 88 12
1.085858 0.15334405 1.5830462 234 88 12
1.0847206 0.16263676 1.5830462 234 88 12
1.0999776 0.060753018 1.581601 234 88 12
1.0886034 0.1536801 1.581601 234 88 12
1.2011887 0.11979341 2.1228685 234 88 12
1.2313615 0.16701683 2.3031957 234 88 12
1.2182282 0.12860696 2.2038484 234 88 12
1.1113385 0.058999605 1.5758207 234 88 12
1.1970754 0.11686254 2.0809178 234 88 12
1.196771 0.11934941 2.0809178 234 88 12
1.1168294 0.059671685 1.5729305 234 88 12
1.1992795 0.11713233 2.0797577 234 88 12
1.2137702 0.12861782 2.1697934 234 88 12
1.2136582 0.12953189 2.1697934 234 88 12
1.2071463 0.11941113 2.1198032 234 88 12
1.1226994 0.057246193 1.5700402 234 88 12
1.1989783 0.15724444 2.0855711 234 88 12
1.198383 0.16210824 2.0855711 234 88 12
1.2181565 0.12637146 2.1676612 234 88 12
1.2021756 0.14899665 2.0844364 234 88 12
1.2185191 0.13012686 2.1672347 234 88 12
1.1399304 0.053067293 1.5613695 234 88 12
1.2189088 0.14037985 2.1663818 234 88 12
1.2025809 0.17249537 2.0827346 234 88 12
1.221509 0.12585405 2.1659555 234 88 12
1.2210615 0.12951028 2.1659555 234 88 12
1.2078259 0.13858077 2.0821674 234 88 12
1.2075282 0.14101267 2.0821674 234 88 12
1.2501998 0.15672372 2.3903241 234 88 12
1.1458004 0.050641801 1.5584793 234 88 12
1.1991282 0.14895406 2.0212612 234 88 12
1.1987773 0.15182003 2.0212612 234 88 12
1.1975496 0.1618509 2.0212612 234 88 12
1.207636 0.16694328 2.0804656 234 88 12
1.2131786 0.13059679 2.0798981 234 88 12
1.2043415 0.13795659 2.0192556 234 88 12
1.2085649 0.16829114 2.0798981 234 88 12
1.2079695 0.17315492 2.0798981 234 88 12
1.1575403 0.045790821 1.5526989 234 88 12
1.214554 0.12829681 2.0793309 234 88 12
1.2075833 0.13253558 2.0179186 234 88 12
1.207801 0.14128892 2.0172501 234 88 12
1.1665349 0.040603798 1.5483636 234 88 12
1.2183825 0.12382875 2.0776291 234 88 12
1.2106496 0.12854755 2.0165815 234 88 12
1.2078433 0.15147525 2.0165815 234 88 12
1.2293597 0.12217619 2.1621175 234 88 12
1.218716 0.13004041 2.0770619 234 88 12
1.2078856 0.16166157 2.015913 234 88 12
1.2137159 0.12455952 2.0152445 234 88 12
1.2130144 0.13029145 2.0152445 234 88 12
1.2117866 0.14032231 2.0152445 234 88 12
1.2103834 0.15178616 2.0152445 234 88 12
1.2091557 0.16181703 2.0152445 234 88 12
1.2234375 0.11827667 2.0753601 234 88 12
1.2182277 0.11929397 2.0132389 234 88 12
1.2181154 0.17069429 2.0747926 234 88 12
1.2196733 0.11801644 2.0125704 234 88 12
1.2182701 0.12948029 2.0125704 234 88 12
1.2130082 0.17246972 2.0125704 234 88 12
1.218137 0.1410996 2.0119019 234 88 12
1.1911525 0.021609129 1.5368026 234 88 12
1.235814 0.11647189 2.1591325 234 88 12
1.2181793 0.15128592 2.0112333 234 88 12
1.229719 0.11164055 2.0725236 234 88 12
1.228826 0.11893623 2.0725236 234 88 12
1.2180462 0.16290522 2.0105648 234 88 12
1.1663836 0.20171902 1.4721135 234 88 12
1.1689191 0.2053982 1.470565 234 88 12
1.1672314 0.20541868 1.4110335 234 88 12
1.2335476 0.1071725 2.0708218 234 88 12
1.1720814 0.20152739 1.4249893 234 88 12
1.171657 0.20499456 1.4249893 234 88 12
1.1748027 0.20611835 1.467468 234 88 12
1.229967 0.1076408 2.0078907 234 88 12
1.2297915 0.10907378 2.0078907 234 88 12
1.2285638 0.11910465 2.0078907 234 88 12
1.1751544 0.20190352 1.4233718 234 88 12
1.1747301 0.20537069 1.4233718 234 88 12
1.1782274 0.20227966 1.4217542 234 88 12
1.177803 0.20574683 1.4217542 234 88 12
1.2372272 0.10392039 2.0691199 234 88 12
1.2366319 0.10878418 2.0691199 234 88 12
1.2298762 0.12944642 2.0065536 234 88 12
1.2002813 0.18761384 1.6738539 234 88 12
1.1928424 0.19495368 1.5770357 234 88 12
1.1948856 0.11629193 1.4168904 234 88 12
1.1944605 0.11976475 1.4168904 234 88 12
1.2295678 0.1424987 2.0058851 234 88 12
1.2395314 0.10296827 2.0679853 234 88 12
1.2409918 0.13580519 2.1576459 234 88 12
1.2404375 0.14033484 2.1576459 234 88 12
1.2393286 0.14939414 2.1576459 234 88 12
1.2297854 0.15125205 2.0052166 234 88 12
1.24377 0.16124462 2.2540526 234 88 12
1.2400138 0.10796396 2.0674181 234 88 12
1.2399098 0.15130429 2.1572235 234 88 12
1.2537889 0.15368044 2.4019077 234 88 12
1.2296523 0.16287135 2.0045478 234 88 12
1.2386398 0.099975653 2.0038793 234 88 12
1.2375875 0.10857353 2.0038793 234 88 12
1.2312732 0.16016084 2.0038793 234 88 12
1.2309225 0.16302681 2.0038793 234 88 12
1.2400852 0.098698132 2.0032108 234 88 12
1.2443987 0.12794665 2.156378 234 88 12
1.2401276 0.10888445 2.0025423 234 88 12
1.2419018 0.16166264 2.1555328 234 88 12
1.2335049 0.17352404 2.0018737 234 88 12
1.2359862 0.18962978 2.1003895 234 88 12
1.2442464 0.096298538 2.0012052 234 88 12
1.247251 0.12461777 2.1551101 234 88 12
1.2465857 0.13005336 2.1551101 234 88 12
1.2452551 0.14092451 2.1551101 234 88 12
1.2440354 0.15088975 2.1551101 234 88 12
1.2427047 0.16176091 2.1551101 234 88 12
1.2490462 0.096727878 2.0634472 234 88 12
1.2501239 0.09685979 2.06288 234 88 12
1.2512016 0.096991703 2.0623126 234 88 12
1.2507955 0.1222931 2.1534195 234 88 12
1.2400306 0.17286834 1.9985312 234 88 12
1.2409732 0.1891287 2.0978351 234 88 12
0.12200064 1.190531 2.2186313 234 88 12
0.11803973 1.1910158 2.2186313 234 88 12
0.13035215 1.1930721 2.2167835 234 88 12
0.1138017 1.1703981 2.1392167 234 88 12
0.11951466 1.1716691 2.138195 234 88 12
0.11547258 1.1963186 2.2160442 234 88 12
0.12031161 1.1964389 2.2156746 234 88 12
0.11099169 1.1746826 2.1371732 234 88 12
0.15528573 1.2511086 2.4078751 234 88 12
0.11877599 1.1747149 2.1366622 234 88 12
0.13720526 1.1965091 2.214566 234 88 12
0.13386953 1.1884587 2.1825864 234 88 12
0.10696779 1.1781305 2.1356406 234 88 12
0.15434258 1.2531608 2.4141495 234 88 12
0.13117817 1.1761522 2.1351297 234 88 12
0.19571333 1.16036 2.1031566 234 88 12
0.19328143 1.1606576 2.1031566 234 88 12
0.14063179 1.1982276 2.2134573 234 88 12
0.09086702 1.0377738 1.6119484 234 88 12
0.12716801 1.1678492 2.0954204 234 88 12
0.13591485 1.1785278 2.1335971 234 88 12
0.13103323 1.1684946 2.0948403 234 88 12
0.081910357 1.0416566 1.6105033 234 88 12
0.12715428 1.1796001 2.1335971 234 88 12
0.1183937 1.1806724 2.1335971 234 88 12
0.13597246 1.2263011 2.3077908 234 88 12
0.0044711228 1.0511352 1.6105033 234 88 12
0.20097284 1.1629978 2.1014547 234 88 12
0.19367716 1.1638908 2.1014547 234 88 12
0.19246121 1.1640396 2.1014547 234 88 12
0.18273364 1.1652303 2.1014547 234 88 12
0.14167783 1.1916144 2.1804543 234 88 12
0.10392938 1.0417482 1.6090581 234 88 12
0.032685284 1.0504683 1.6090581 234 88 12
0.20232069 1.1639267 2.1008873 234 88 12
0.08568 1.0467684 1.6076131 234 88 12
0.18546499 1.1884601 2.1817367 234 88 12
0.18274722 1.1887927 2.1817367 234 88 12
0.21611395 1.03359 1.6061679 234 88 12
0.14065154 1.1809034 2.1320643 234 88 12
0.11389416 1.0461016 1.6061679 234 88 12
0.072859578 1.0095398 1.4477848 234 88 12
0.1703112 1.1905766 2.1791749 234 88 12
0.12042534 1.0480887 1.6047229 234 88 12
0.089449652 1.0518801 1.6047229 234 88 12
0.04298611 1.0575672 1.6047229 234 88 12
0.20749332 1.0402182 1.6032777 234 88 12
0.15212914 1.1936243 2.1787486 234 88 12
0.14041178 1.1729397 2.0919397 234 88 12
0.1189877 1.1855253 2.1310427 234 88 12
0.11789263 1.1856594 2.1310427 234 88 12
0.13320714 1.2285657 2.3067918 234 88 12
0.20528024 1.1679399 2.0986183 234 88 12
0.13039012 1.0524422 1.6018326 234 88 12
0.13432947 1.1748028 2.0913596 234 88 12
0.093219295 1.0569918 1.6018326 234 88 12
0.077764638 1.0189267 1.4426054 234 88 12
0.046755757 1.0626789 1.6018326 234 88 12
0.1112164 1.2075292 2.2105007 234 88 12
0.19887269 1.0468465 1.6003875 234 88 12
0.14441188 1.1746873 2.0907795 234 88 12
0.13017601 1.1861261 2.1300209 234 88 12
0.17149755 1.1742626 2.0974836 234 88 12
0.19301359 1.0503502 1.5989424 234 88 12
0.14035492 1.0567956 1.5989424 234 88 12
0.13725735 1.0571748 1.5989424 234 88 12
0.14579022 1.1756371 2.0901995 234 88 12
0.13957302 1.1763982 2.0901995 234 88 12
0.10008652 1.0617244 1.5989424 234 88 12
0.078567564 1.0254867 1.4391524 234 88 12
0.053622976 1.0674115 1.5989424 234 88 12
0.13891347 1.2290229 2.3061924 234 88 12
-0.014523547 1.0757526 1.5989424 234 88 12
0.28937429 1.0413424 1.5974972 234 88 12
0.17649326 1.174745 2.0969164 234 88 12
0.17162947 1.1753403 2.0969164 234 88 12
0.15709609 1.1963055 2.1770427 234 88 12
0.15231505 1.1853867 2.128999 234 88 12
0.057056583 1.0697778 1.5974972 234 88 12
0.18749054 1.0565994 1.5960522 234 88 12
0.18129539 1.0573577 1.5960522 234 88 12
0.16085149 1.1966681 2.1766164 234 88 12
0.15651484 1.0603908 1.5960522 234 88 12
0.10075859 1.0672153 1.5960522 234 88 12
0.094563454 1.0679736 1.5960522 234 88 12
-0.016949037 1.0816226 1.5960522 234 88 12
0.19378899 1.1614127 2.0379744 234 88 12
0.17447414 1.1963252 2.1783555 234 88 12
0.17175636 1.1966578 2.1783555 234 88 12
0.18472899 1.059724 1.5946071 234 88 12
0.18163143 1.0601031 1.5946071 234 88 12
0.17233872 1.0612406 1.5946071 234 88 12
0.15994845 1.0627571 1.5946071 234 88 12
0.15065575 1.0638945 1.5946071 234 88 12
0.15116866 1.1783346 2.0884593 234 88 12
0.10728977 1.0692024 1.5946071 234 88 12
0.09489949 1.070719 1.5946071 234 88 12
0.076071307 1.0357795 1.433973 234 88 12
0.072370648 1.0362325 1.433973 234 88 12
0.06702137 1.0741313 1.5946071 234 88 12
0.063923799 1.0745105 1.5946071 234 88 12
-0.016612999 1.0843681 1.5946071 234 88 12
0.19824339 1.1621566 2.0373058 234 88 12
0.18391359 1.1639105 2.0373058 234 88 12
0.1824806 1.164086 2.0373058 234 88 12
0.153786 1.1808059 2.0952146 234 88 12
0.11072338 1.0715687 1.5931619 234 88 12
0.085942827 1.0746019 1.5931619 234 88 12
0.058064703 1.0780141 1.5931619 234 88 12
0.20741957 1.1753352 2.0946474 234 88 12
0.18825966 1.1962677 2.1775103 234 88 12
0.19983183 1.1632513 2.0366373 234 88 12
0.1940999 1.1639528 2.0366373 234 88 12
0.19266693 1.1641283 2.0366373 234 88 12
0.18263607 1.165356 2.0366373 234 88 12
0.16991323 1.0671105 1.5917169 234 88 12
0.083181299 1.0777265 1.5917169 234 88 12
0.073888585 1.0788639 1.5917169 234 88 12
-0.019038489 1.0902381 1.5917169 234 88 12
0.1950684 1.1957692 2.1749105 234 88 12
0.10520032 1.0778179 1.5902717 234 88 12
0.095907614 1.0789553 1.5902717 234 88 12
0.29448807 1.0574358 1.5888267 234 88 12
0.19389179 1.1972083 2.1766651 234 88 12
0.16580796 1.2006458 2.1766651 234 88 12
0.11792663 1.0790468 1.5888267 234 88 12
0.19399008 1.1980113 2.1762424 234 88 12
0.16800785 1.1818665 2.0855587 234 88 12
0.12136024 1.0814131 1.5873815 234 88 12
0.06250643 1.0886167 1.5873815 234 88 12
0.14014158 1.2319545 2.3045943 234 88 12
0.17179404 1.1718395 2.0339632 234 88 12
0.14700426 1.1855559 2.0849786 234 88 12
0.084525451 1.0887082 1.5859364 234 88 12
0.075232744 1.0898457 1.5859364 234 88 12
-0.020791901 1.101599 1.5859364 234 88 12
0.15584324 1.1855927 2.0843985 234 88 12
0.10654448 1.0887997 1.5844913 234 88 12
0.094154201 1.0903162 1.5844913 234 88 12
0.29583225 1.0684175 1.5830462 234 88 12
0.20506351 1.1703455 2.0326262 234 88 12
0.169239 1.1747304 2.0326262 234 88 12
0.16343877 1.1857816 2.0838184 234 88 12
0.1449818 1.1895406 2.0912437 234 88 12
0.12856351 1.0888911 1.5830462 234 88 12
0.11617322 1.0904077 1.5830462 234 88 12
0.10688052 1.0915451 1.5830462 234 88 12
0.094490238 1.0930617 1.5830462 234 88 12
0.085197531 1.0941991 1.5830462 234 88 12
0.072807252 1.0957156 1.5830462 234 88 12
0.063514546 1.096853 1.5830462 234 88 12
-0.020119822 1.1070899 1.5830462 234 88 12
0.17942531 1.1747727 2.0319576 234 88 12
0.13199711 1.0912575 1.581601 234 88 12
0.063850589 1.0995985 1.581601 234 88 12
-0.022881351 1.1102145 1.581601 234 88 12
0.18961164 1.1748151 2.0312891 234 88 12
0.088967182 1.0993109 1.580156 234 88 12
0.08586961 1.09969 1.580156 234 88 12
0.073479332 1.1012065 1.580156 234 88 12
0.20123094 1.174682 2.0306206 234 88 12
0.15924847 1.2071534 2.1737065 234 88 12
0.1109862 1.0994023 1.5787109 234 88 12
0.10479107 1.1001606 1.5787109 234 88 12
0.29717639 1.0793993 1.5772657 234 88 12
0.13300523 1.0994937 1.5772657 234 88 12
0.12681009 1.100252 1.5772657 234 88 12
0.061177295 1.0957893 1.5105803 234 88 12
0.16141839 1.1821332 2.0292835 234 88 12
0.14655785 1.2376695 2.3215988 234 88 12
0.053457025 1.0850471 1.4290582 234 88 12
0.046758305 1.0804948 1.3998241 234 88 12
-0.021537194 1.1211962 1.5758207 234 88 12
0.14614764 1.2358848 2.3094482 234 88 12
0.081018627 1.1114299 1.5743755 234 88 12
0.074823491 1.1121882 1.5743755 234 88 12
0.057487819 1.0878249 1.4273618 234 88 12
0.028302468 1.08591 1.3969034 234 88 12
0.29818451 1.0876356 1.5729305 234 88 12
0.18681951 1.2070386 2.1720159 234 88 12
0.1569224 1.1944093 2.0797577 234 88 12
0.15076898 1.1964893 2.0872729 234 88 12
0.14440617 1.1533531 1.8385413 234 88 12
0.14123899 1.1442944 1.7850378 234 88 12
0.13891737 1.1445786 1.7850378 234 88 12
0.12542248 1.0948846 1.4942195 234 88 12
0.13268389 1.1596189 1.8659033 234 88 12
0.12985617 1.156546 1.8465385 234 88 12
0.1278182 1.1570252 1.8478398 234 88 12
0.10494936 1.0845442 1.4214588 234 88 12
0.12584791 1.1647261 1.8900917 234 88 12
0.099536374 1.0911621 1.455189 234 88 12
0.11050109 1.1326789 1.6979387 234 88 12
0.14850776 1.2412883 2.3394432 234 88 12
0.090647377 1.1130379 1.5729305 234 88 12
0.10877479 1.1675662 1.8943413 234 88 12
0.13930041 1.2282199 2.2590413 234 88 12
0.06583064 1.098294 1.4722173 234 88 12
0.057882305 1.0910479 1.4256654 234 88 12
0.080833197 1.1439731 1.7413406 234 88 12
0.032456987 1.0887731 1.3951548 234 88 12
0.028709061 1.0892318 1.3951548 234 88 12
0.021162562 1.0900863 1.3947629 234 88 12
-0.020865116 1.126687 1.5729305 234 88 12
0.20487419 1.1806816 2.0272779 234 88 12
0.16475073 1.1855927 2.0272779 234 88 12
0.16045178 1.1861188 2.0272779 234 88 12
0.15090089 1.1975671 2.0867054 234 88 12
0.14405894 1.1488098 1.7999804 234 88 12
0.14332595 1.1628048 1.8803725 234 88 12
0.14162374 1.1650511 1.8921546 234 88 12
0.1405482 1.1707712 1.9244636 234 88 12
0.13883644 1.1715386 1.9276884 234 88 12
0.12290984 1.1008375 1.5076693 234 88 12
0.11709338 1.0900198 1.441013 234 88 12
0.10894854 1.0871511 1.4186639 234 88 12
0.10554853 1.0884838 1.4239628 234 88 12
0.11072075 1.1172066 1.5936798 234 88 12
0.10091703 1.0972741 1.4715055 234 88 12
0.12258669 1.1821902 1.9777702 234 88 12
0.13605748 1.2158893 2.1821296 234 88 12
0.14090918 1.2293402 2.2633274 234 88 12
0.13936414 1.2287406 2.2587671 234 88 12
0.10509273 1.1763535 1.9316469 234 88 12
0.030163195 1.0939194 1.402043 234 88 12
0.010321229 1.0947863 1.3930137 234 88 12
0.19645667 1.2071112 2.1689405 234 88 12
0.17637002 1.1854596 2.0266094 234 88 12
0.1547053 1.1969179 2.0785973 234 88 12
0.14208208 1.1259214 1.6503602 234 88 12
0.1364124 1.1005305 1.496372 234 88 12
0.13752116 1.1747781 1.9354825 234 88 12
0.11659087 1.0892025 1.4151767 234 88 12
0.11834259 1.1341571 1.6818248 234 88 12
0.12922709 1.1775461 1.9458296 234 88 12
0.13040143 1.1863295 1.9985293 234 88 12
0.14462633 1.2315739 2.2759013 234 88 12
0.14897113 1.244159 2.3533347 234 88 12
0.11810002 1.2025125 2.0851748 234 88 12
0.098587967 1.1819559 1.9497234 234 88 12
-0.020193037 1.1321779 1.5700402 234 88 12
0.20375212 1.1833972 2.0259409 234 88 12
0.19372125 1.1846249 2.0259409 234 88 12
0.18655635 1.1855019 2.0259409 234 88 12
0.18225741 1.1860281 2.0259409 234 88 12
0.17222655 1.1872559 2.0259409 234 88 12
0.1607627 1.1886591 2.0259409 234 88 12
0.15360177 1.156369 1.8259423 234 88 12
0.15155089 1.161661 1.8563404 234 88 12
0.14809902 1.1300658 1.6632688 234 88 12
0.14153279 1.1875865 2.0052807 234 88 12
0.13905048 1.1829559 1.9755248 234 88 12
0.1162214 1.0890467 1.3923899 234 88 12
0.12275776 1.1308287 1.6491655 234 88 12
0.11030648 1.0957074 1.4281895 234 88 12
0.11622205 1.1458542 1.7349472 234 88 12
0.15021034 1.2456139 2.3615978 234 88 12
0.151853 1.2506422 2.3931313 234 88 12
0.15138063 1.2497984 2.3876948 234 88 12
0.13717748 1.2256711 2.2317207 234 88 12
0.13446534 1.2236471 2.217514 234 88 12
0.12940779 1.2169715 2.1735265 234 88 12
0.12851198 1.2170812 2.1735265 234 88 12
0.11239858 1.1951401 2.029326 234 88 12
0.030969538 1.1005071 1.3985753 234 88 12
0.090327665 1.1777805 1.908355 234 88 12
0.022382809 1.1000558 1.3895153 234 88 12
0.018633448 1.1005147 1.3895153 234 88 12
0.0073853661 1.1018914 1.3895153 234 88 12
0.19674267 1.1855443 2.0252724 234 88 12
0.15391803 1.1261984 1.6272819 234 88 12
0.1514115 1.1452849 1.7430028 234 88 12
0.1489529 1.1455858 1.7430028 234 88 12
0.14902507 1.1847421 1.9843397 234 88 12
0.14306548 1.1351558 1.674292 234 88 12
0.14747624 1.1996906 2.0752847 234 88 12
0.13581088 1.1220965 1.588349 234 88 12
0.14445773 1.1967133 2.054662 234 88 12
0.14213984 1.1913805 2.0200524 234 88 12
0.12936197 1.1360179 1.6692692 234 88 12
0.1185523 1.1008229 1.4442434 234 88 12
0.11500815 1.1012567 1.4442434 234 88 12
0.13412915 1.1840833 1.9690453 234 88 12
0.12244545 1.1506923 1.754477 234 88 12
0.1482562 1.2394774 2.3210406 234 88 12
0.15176117 1.2504848 2.3915124 234 88 12
0.15075628 1.2493917 2.3840189 234 88 12
0.14013168 1.2302104 2.2578096 234 88 12
0.1457658 1.2411553 2.3295019 234 88 12
0.13366257 1.2228844 2.2077873 234 88 12
0.12042073 1.2057625 2.0922945 234 88 12
0.086782962 1.163165 1.8044358 234 88 12
0.10839466 1.1950041 2.0169303 234 88 12
0.092390507 1.1792021 1.9074868 234 88 12
0.15213828 1.1733009 1.9049662 234 88 12
0.15047565 1.1785346 1.9366537 234 88 12
0.14865413 1.1982495 2.0594401 234 88 12
0.14819415 1.2060611 2.1082942 234 88 12
0.14736108 1.2084078 2.1224344 234 88 12
0.14725713 1.2147108 2.1620593 234 88 12
0.14173819 1.1971871 2.0474155 234 88 12
0.13624065 1.1865021 1.9758682 234 88 12
0.12392718 1.1482359 1.7253218 234 88 12
0.1085534 1.1963011 2.0162475 234 88 12
0.082554691 1.1656934 1.803393 234 88 12
0.15139112 1.1986278 2.0558536 234 88 12
0.14889243 1.2198845 2.1908286 234 88 12
0.14701504 1.2133735 2.1474016 234 88 12
0.13976309 1.2009692 2.061769 234 88 12
0.13184875 1.1776267 1.9051453 234 88 12
0.14152311 1.2184649 2.1758718 234 88 12
0.14678034 1.235763 2.2914593 234 88 12
0.13299757 1.2043954 2.0785069 234 88 12
0.13896944 1.2289718 2.2415483 234 88 12
0.11948843 1.2041917 2.0665421 234 88 12
0.11091612 1.193942 1.9937487 234 88 12
0.08521416 1.1644117 1.783234 234 88 12
0.099607363 1.1906062 1.963341 234 88 12
0.023603056 1.1100252 1.3842678 234 88 12
0.019853694 1.1104841 1.3842678 234 88 12
0.0086056124 1.1118609 1.3842678 234 88 12
0.1301792 1.2393376 2.3013978 234 88 12
-0.018848879 1.1431596 1.5642598 234 88 12
0.1509143 1.2113049 2.1306057 234 88 12
0.15115528 1.2367517 2.298537 234 88 12
0.14772475 1.2298013 2.2499545 234 88 12
0.13687995 1.2010454 2.0516555 234 88 12
0.14407785 1.2285775 2.2389452 234 88 12
0.14074458 1.2238498 2.2050924 234 88 12
0.13849574 1.2272965 2.2259979 234 88 12
0.12798569 1.212357 2.1190422 234 88 12
0.11731698 1.2040373 2.055593 234 88 12
0.10954114 1.1954976 1.9930291 234 88 12
0.096721999 1.181058 1.8875049 234 88 12
0.078701928 1.1644192 1.7632884 234 88 12
0.15150912 1.1962372 2.0225983 234 88 12
0.15007614 1.1964126 2.0225983 234 88 12
0.15267113 1.2440101 2.3459024 234 88 12
0.15095021 1.2383499 2.3062894 234 88 12
0.14103244 1.2206831 2.1788936 234 88 12
0.13613875 1.2105861 2.1067224 234 88 12
0.13965853 1.2217597 2.1850224 234 88 12
0.13819349 1.2224475 2.1884539 234 88 12
0.13295962 1.2159301 2.1401551 234 88 12
0.12733418 1.2100196 2.0956283 234 88 12
0.12464734 1.2076914 2.0777001 234 88 12
0.11877588 1.2050427 2.0549791 234 88 12
0.10776451 1.1942968 1.9733784 234 88 12
0.094621584 1.1825261 1.8831012 234 88 12
0.084960513 1.1789802 1.8511971 234 88 12
0.16169544 1.1962795 2.0219297 234 88 12
0.14492153 1.2084775 2.0920324 234 88 12
0.14022365 1.2162302 2.1416314 234 88 12
0.1382135 1.2136523 2.1221178 234 88 12
0.13229629 1.2081209 2.0788908 234 88 12
0.12300496 1.2010151 2.0219297 234 88 12
0.12642725 1.2093242 2.0822411 234 88 12
0.11368475 1.1964692 1.9826329 234 88 12
0.10793924 1.1957244 1.9726269 234 88 12
0.098872542 1.1866283 1.9021029 234 88 12
0.084960379 1.1780016 1.8307238 234 88 12
0.024823302 1.1199945 1.3790202 234 88 12
0.021073941 1.1204535 1.3790202 234 88 12
0.017324582 1.1209124 1.3790202 234 88 12
0.0098258592 1.1218302 1.3790202 234 88 12
0.29844734 1.1154691 1.5584793 234 88 12
0.20484032 1.1922877 2.0212612 234 88 12
0.15245111 1.2477951 2.3688724 234 88 12
0.13910079 1.2101017 2.0904191 234 88 12
0.13185887 1.207979 2.0691135 234 88 12
0.12365283 1.2079004 2.0614452 234 88 12
0.12453403 1.2164932 2.12305 234 88 12
0.089668497 1.1796383 1.8318869 234 88 12
0.028979411 1.1228588 1.3772711 234 88 12
0.19643506 1.2145145 2.1651025 234 88 12
0.15104426 1.2414346 2.3201764 234 88 12
0.14182052 1.2156857 2.1250823 234 88 12
0.1394655 1.2118697 2.0952914 234 88 12
0.12096423 1.1995726 1.9895943 234 88 12
0.11528381 1.1930962 1.9375378 234 88 12
0.11787564 1.1999506 1.9895943 234 88 12
0.099024102 1.1870761 1.8793954 234 88 12
0.19368738 1.196231 2.0199242 234 88 12
0.13067622 1.2071863 2.0440681 234 88 12
0.1252438 1.2024542 2.0038853 234 88 12
0.10976222 1.1918243 1.9106338 234 88 12
0.094956525 1.1775715 1.7910253 234 88 12
0.094418533 1.1856717 1.8508433 234 88 12
0.081805892 1.1769068 1.7740928 234 88 12
0.081382349 1.1791712 1.790565 234 88 12
0.011046106 1.1317996 1.3737726 234 88 12
0.0072967452 1.1322585 1.3737726 234 88 12
-0.013735075 1.1592531 1.5555891 234 88 12
0.20387371 1.1962733 2.0192556 234 88 12
0.1517389 1.2412677 2.3143065 234 88 12
0.14489096 1.2201902 2.1468444 234 88 12
0.13590945 1.2069114 2.036978 234 88 12
0.13213859 1.2048426 2.0176425 234 88 12
0.11610615 1.1938639 1.9187577 234 88 12
0.079890624 1.1672885 1.6818181 234 88 12
0.067069225 1.1692821 1.6850595 234 88 12
0.19363101 1.2176145 2.1660988 234 88 12
0.19181915 1.2178364 2.1660988 234 88 12
0.20546214 1.197368 2.0185871 234 88 12
0.13605803 1.2081252 2.036339 234 88 12
0.12715968 1.2019539 1.9793651 234 88 12
0.11803459 1.1917285 1.8903615 234 88 12
0.11014567 1.1856524 1.835106 234 88 12
0.095445476 1.1815662 1.7889227 234 88 12
0.082817733 1.1693058 1.6805862 234 88 12
0.088197537 1.1789371 1.76133 234 88 12
0.030606408 1.1361513 1.3702743 234 88 12
0.19463521 1.2183067 2.1656764 234 88 12
0.10619516 1.1880149 1.8341316 234 88 12
0.096162453 1.1775852 1.7401309 234 88 12
0.086100563 1.1813097 1.7602327 234 88 12
0.076798014 1.17431 1.6946093 234 88 12
0.074211791 1.1746266 1.6946093 234 88 12
0.075150557 1.1834866 1.7669784 234 88 12
0.016015714 1.1413101 1.368525 234 88 12
0.0085169915 1.1422279 1.368525 234 88 12
0.0047676307 1.1426868 1.368525 234 88 12
0.10282715 1.1732541 1.6917733 234 88 12
0.089225851 1.1617113 1.5822632 234 88 12
0.072286732 1.1649545 1.5919636 234 88 12
0.077078581 1.1766022 1.6934028 234 88 12
0.074492358 1.1769187 1.6934028 234 88 12
0.070553899 1.1759509 1.68138 234 88 12
0.075403117 1.18555 1.7658923 234 88 12
0.023921184 1.1437154 1.3667759 234 88 12
0.020171823 1.1441743 1.3667759 234 88 12
0.076065473 1.1639912 1.5636933 234 88 12
0.075553939 1.1672062 1.5905886 234 88 12
0.063715041 1.1716911 1.6164896 234 88 12
0.053983811 1.165902 1.5569359 234 88 12
0.050916716 1.1662774 1.5569359 234 88 12
0.15080377 1.2517799 2.3898804 234 88 12
0.20922297 1.2092611 2.0687356 234 88 12
0.20194048 1.2042446 2.0152445 234 88 12
0.15215869 1.2352524 2.2408271 234 88 12
0.14778885 1.221154 2.1083333 234 88 12
0.10887557 1.1839694 1.72853 234 88 12
0.10642665 1.1842692 1.72853 234 88 12
0.017642708 1.1546026 1.3615283 234 88 12
0.048847824 1.174808 1.5526433 234 88 12
0.19938543 1.2071356 2.0139074 234 88 12
0.046113465 1.1779019 1.5512124 234 88 12
0.18264015 1.2254796 2.1627178 234 88 12
0.015113595 1.165031 1.3562807 234 88 12
0.19396442 1.2103773 2.0125704 234 88 12
0.0084283706 1.172595 1.3527824 234 88 12
0.0050857589 1.1763771 1.3510332 234 88 12
0.18393919 1.2285805 2.1610272 234 88 12
0.18303326 1.2286915 2.1610272 234 88 12
0.20781524 1.2183821 2.0640948 234 88 12
0.13312607 1.2417046 2.233242 234 88 12
0.19633015 1.2178223 2.0085592 234 88 12
0.20193905 1.2275838 2.1039658 234 88 12
0.20654242 1.2286053 2.0588739 234 88 12
0.13799629 1.2499377 2.2954042 234 88 12
0.13628337 1.2501473 2.2954042 234 88 12
0.20792075 1.2295552 2.0582938 234 88 12
0.20903765 1.2265798 2.0032108 234 88 12
0.20167556 1.2345119 2.1003895 234 88 12
0.21078154 1.2289445 2.0018737 234 88 12
0.14070502 1.2507619 2.2948048 234 88 12
0.19256255 1.2389346 2.1551101 234 88 12
0.11492728 1.2419661 2.0012052 234 88 12
0.19266084 1.2397376 2.1546874 234 88 12
0.12240311 1.2436293 1.9998683 234 88 12
0.12347871 1.2457719 2.0634472 234 88 12
0.20007943 1.2396328 2.0978351 234 88 12
0.13274488 1.2449417 1.9985312 234 88 12
0.1334701 1.2467366 2.0623126 234 88 12
-1.3347161 1.3160096 1.9682236 234 88 12
-1.2562561 1.2491479 1.75208 234 88 12
-1.2548053 1.2515625 1.7514515 234 88 12
-1.261043 1.246177 1.750823 234 88 12
-1.337046 1.3180819 1.9741633 234 88 12
-1.2326289 1.2278669 1.6691799 234 88 12
-1.2499449 1.26215 1.7476804 234 88 12
-1.2505857 1.2615 1.7476804 234 88 12
-1.2306818 1.2311077 1.6683363 234 88 12
-1.2567331 1.2548878 1.7449653 234 88 12
-1.2396865 1.2245028 1.6666491 234 88 12
-1.2487961 1.2661438 1.7457949 234 88 12
-1.2507182 1.2641938 1.7457949 234 88 12
-1.2686577 1.2459935 1.7457949 234 88 12
-1.2280525 1.2388366 1.6649619 234 88 12
-1.2278252 1.2403326 1.6641183 234 88 12
-1.2286851 1.2394602 1.6641183 234 88 12
-1.2117846 1.2238134 1.6068246 234 88 12
-1.2396371 1.2296144 1.6632748 234 88 12
-1.2186108 1.2183793 1.6058306 234 88 12
-1.2718245 1.2465518 1.7432808 234 88 12
-1.2479492 1.2717167 1.7426523 234 88 12
-1.2092218 1.2293957 1.6048363 234 88 12
-1.2102354 1.2283676 1.6048363 234 88 12
-1.2183429 1.2201422 1.6048363 234 88 12
-1.2238877 1.2174993 1.6028481 234 88 12
-1.2506447 1.2718104 1.7407668 234 88 12
-1.2273211 1.2484362 1.6590568 234 88 12
-1.2436602 1.2318597 1.6590568 234 88 12
-1.2471 1.2283698 1.6590568 234 88 12
-1.2277265 1.2505558 1.6573696 234 88 12
-1.2509451 1.2269996 1.6573696 234 88 12
-1.2187623 1.228664 1.5988714 234 88 12
-1.2288967 1.2183824 1.5988714 234 88 12
-1.2299101 1.2173542 1.5988714 234 88 12
-1.20836 1.2407088 1.5978771 234 88 12
-1.2504904 1.2299917 1.6556824 234 88 12
-1.2743804 1.2503009 1.7360872 234 88 12
-1.2539988 1.2728812 1.7348189 234 88 12
-1.2753315 1.2512383 1.7348189 234 88 12
-1.2085698 1.2449697 1.5948946 234 88 12
-1.2146504 1.2388006 1.5948946 234 88 12
-1.2187041 1.2346879 1.5948946 234 88 12
-1.2247847 1.228519 1.5948946 234 88 12
-1.2288386 1.2244062 1.5948946 234 88 12
-1.248951 1.2829562 1.7344816 234 88 12
-1.2495917 1.2823062 1.7344816 234 88 12
-1.2179004 1.239977 1.5919122 234 88 12
-1.2290483 1.2286671 1.5919122 234 88 12
-1.2822672 1.2491556 1.7344816 234 88 12
-1.2085116 1.2509936 1.5909179 234 88 12
-1.2399281 1.2191203 1.5909179 234 88 12
-1.2505343 1.2832353 1.7332246 234 88 12
-1.2579038 1.2338587 1.64809 234 88 12
-1.2825391 1.2505845 1.7303798 234 88 12
-1.2608889 1.2333609 1.6464028 234 88 12
-1.2492193 1.2427521 1.6380079 234 88 12
-1.117678 1.1257625 1.1287394 234 88 12
-1.1220593 1.1213174 1.1287394 234 88 12
-1.1242501 1.119095 1.1287394 234 88 12
-1.2536162 1.2382913 1.6380079 234 88 12
-1.2859051 1.2500231 1.7284774 234 88 12
-1.3363261 1.3161783 1.9670221 234 88 12
-1.2180519 1.2502618 1.584953 234 88 12
-1.1149082 1.131796 1.1265904 234 88 12
-1.2096765 1.2602502 1.5839589 234 88 12
-1.217784 1.2520249 1.5839589 234 88 12
-1.219811 1.2499685 1.5839589 234 88 12
-1.2289319 1.2407149 1.5839589 234 88 12
-1.2309587 1.2386587 1.5839589 234 88 12
-1.1318545 1.1178268 1.1244414 234 88 12
-1.2481872 1.2211797 1.5839589 234 88 12
-1.2502141 1.2191234 1.5839589 234 88 12
-1.2094086 1.2620133 1.5829647 234 88 12
-1.2617127 1.233959 1.6354198 234 88 12
-1.2307016 1.2667149 1.6345572 234 88 12
-1.2465307 1.2506558 1.6345572 234 88 12
-1.1175523 1.1387839 1.1201433 234 88 12
-1.1219336 1.1343389 1.1201433 234 88 12
-1.126315 1.1298939 1.1201433 234 88 12
-1.132887 1.1232263 1.1201433 234 88 12
-1.1372684 1.1187812 1.1201433 234 88 12
-1.1438404 1.1121137 1.1201433 234 88 12
-1.1460311 1.1098912 1.1201433 234 88 12
-1.2547455 1.2175086 1.5819705 234 88 12
-1.2449565 1.2728152 1.674961 234 88 12
-1.3299135 1.3151169 1.9501495 234 88 12
-1.2465055 1.2712438 1.674961 234 88 12
-1.0797317 1.1803778 1.1179943 234 88 12
-1.2383837 1.2602152 1.6336945 234 88 12
-1.1169732 1.1425949 1.1179943 234 88 12
-1.2934544 1.2471201 1.7253066 234 88 12
-1.0703899 1.193079 1.1158453 234 88 12
-1.1536356 1.108623 1.1158453 234 88 12
-1.2715679 1.2278423 1.6328318 234 88 12
-1.2724473 1.2269502 1.6328318 234 88 12
-1.2643441 1.2107528 1.5799822 234 88 12
-1.2505933 1.2935457 1.726311 234 88 12
-1.2291248 1.2721967 1.6319692 234 88 12
-1.2507428 1.269224 1.6734415 234 88 12
-1.0917175 1.1746647 1.1136962 234 88 12
-1.2502302 1.2507844 1.6319692 234 88 12
-1.1223869 1.1435493 1.1136962 234 88 12
-1.1333404 1.1324368 1.1136962 234 88 12
-1.1442938 1.1213242 1.1136962 234 88 12
-1.1552471 1.1102115 1.1136962 234 88 12
-1.2950521 1.2474017 1.7240382 234 88 12
-1.2497833 1.2953104 1.7256825 234 88 12
-1.2280129 1.2746186 1.6311065 234 88 12
-1.1656214 1.1029099 1.1115472 234 88 12
-1.2719824 1.2300098 1.6311065 234 88 12
-1.2825352 1.2193037 1.6311065 234 88 12
-1.2842939 1.2175194 1.6311065 234 88 12
1.2818401 -1.306928 1.8702387 234 88 12
1.2824546 -1.3063223 1.8702387 234 88 12
1.286186 -1.3039621 1.8693473 234 88 12
1.3191217 -1.3383749 1.9777116 234 88 12
1.2787251 -1.3148301 1.8669707 234 88 12
1.3120186 -1.3310164 1.9514692 234 88 12
1.2760926 -1.321378 1.8642968 234 88 12
1.2825451 -1.3150181 1.8642968 234 88 12
1.2828523 -1.3147153 1.8642968 234 88 12
1.2957571 -1.3019954 1.8642968 234 88 12
1.3122898 -1.3320497 1.9505894 234 88 12
1.275611 -1.3258059 1.8616229 234 88 12
1.1898305 -1.2486285 1.5245317 234 88 12
1.1730566 -1.2395192 1.4658146 234 88 12
1.1712766 -1.23138 1.4449794 234 88 12
1.1726756 -1.2418035 1.4645234 234 88 12
1.1753461 -1.2391714 1.4645234 234 88 12
1.1425807 -1.2137647 1.3417413 234 88 12
1.1722696 -1.2323875 1.4436359 234 88 12
1.1750485 -1.2296485 1.4436359 234 88 12
1.0199754 -1.1548096 0.94845754 234 88 12
1.0226419 -1.1521814 0.94845754 234 88 12
1.0253084 -1.1495531 0.94845754 234 88 12
1.1749653 -1.2414557 1.4632324 234 88 12
1.1490477 -1.2186866 1.3593482 234 88 12
1.2002158 -1.2488692 1.5326867 234 88 12
1.1054461 -1.1504124 1.1201433 234 88 12
1.1121137 -1.1438404 1.1201433 234 88 12
1.1143361 -1.1416497 1.1201433 234 88 12
1.0165008 -1.1619722 0.94571799 234 88 12
1.0193534 -1.1551971 0.93710637 234 88 12
1.0220425 -1.1525465 0.93710637 234 88 12
1.1848707 -1.2525024 1.5030104 234 88 12
1.1861 -1.2512908 1.5030104 234 88 12
1.1873293 -1.2500792 1.5030104 234 88 12
1.2087475 -1.2609707 1.5725458 234 88 12
1.2038629 -1.2556725 1.5505725 234 88 12
1.223686 -1.2650859 1.6134802 234 88 12
1.1025895 -1.1564053 1.1179943 234 88 12
1.2233843 -1.2504238 1.5809762 234 88 12
1.2244124 -1.2494104 1.5809762 234 88 12
1.2543645 -1.3027281 1.758656 234 88 12
1.2269893 -1.2754539 1.6395184 234 88 12
1.2309777 -1.2753326 1.6478841 234 88 12
1.226155 -1.2687546 1.6230025 234 88 12
1.2634588 -1.293764 1.758656 234 88 12
1.22926 -1.2461021 1.5799822 234 88 12
1.253634 -1.3042607 1.7581064 234 88 12
1.0163162 -1.1718335 0.94511884 234 88 12
1.0679835 -1.19687 1.1136962 234 88 12
1.070206 -1.1946794 1.1136962 234 88 12
1.0790962 -1.1859167 1.1136962 234 88 12
1.0813187 -1.183726 1.1136962 234 88 12
1.0990989 -1.1662005 1.1136962 234 88 12
1.1013215 -1.1640098 1.1136962 234 88 12
1.2383493 -1.26595 1.639654 234 88 12
1.2400943 -1.26423 1.639654 234 88 12
1.1302142 -1.1355311 1.1136962 234 88 12
1.3147703 -1.3304718 1.9500029 234 88 12
1.065127 -1.202863 1.1115472 234 88 12
1.0895747 -1.1787655 1.1115472 234 88 12
1.1384703 -1.1305705 1.1115472 234 88 12
1.2410114 -1.2374588 1.5779938 234 88 12
1.3387789 1.3382145 1.6659007 234 88 12
1.3359572 1.3410362 1.6659007 234 88 12
1.3732867 1.3729817 1.7544798 234 88 12
1.3343172 1.3472971 1.6624001 234 88 12
1.3366011 1.3473235 1.6606499 234 88 12
1.3469651 1.3385 1.6594831 234 88 12
1.3379357 1.3475294 1.6594831 234 88 12
1.3362427 1.3492224 1.6594831 234 88 12
1.3473501 1.3388851 1.6588997 234 88 12
1.3203605 1.3148998 1.5801244 234 88 12
1.3695577 1.3796248 1.7522721 234 88 12
1.321673 1.314652 1.5793179 234 88 12
1.3685457 1.3810532 1.7519567 234 88 12
1.3295237 1.3605623 1.6559825 234 88 12
1.3258947 1.3157533 1.5752854 234 88 12
1.3290519 1.3157901 1.5728658 234 88 12
1.3251513 1.3196906 1.5728658 234 88 12
1.379571 1.3737748 1.7491183 234 88 12
1.3207552 1.326216 1.5712529 234 88 12
1.3420051 1.3348423 1.6187745 234 88 12
1.3191766 1.3076611 1.5290021 234 88 12
1.3422426 1.3363822 1.6174282 234 88 12
1.1753824 1.1599357 1.0312362 234 88 12
1.131274 1.11282 0.86660361 234 88 12
1.3424801 1.337922 1.6160817 234 88 12
1.3265371 1.325757 1.5672204 234 88 12
1.3655668 1.3902769 1.747226 234 88 12
1.3576676 1.3424305 1.6483979 234 88 12
1.3468314 1.3344593 1.6154085 234 88 12
1.3580526 1.3428155 1.6478145 234 88 12
1.1968518 1.150512 1.0221109 234 88 12
1.1791986 1.1681653 1.0221109 234 88 12
1.3374954 1.3179927 1.5648009 234 88 12
1.3483713 1.3346968 1.6140622 234 88 12
1.3263463 1.3077444 1.5235075 234 88 12
1.383081 1.3748443 1.7456491 234 88 12
1.181509 1.1748891 1.0152671 234 88 12
1.3763696 1.3815557 1.7456491 234 88 12
1.368438 1.3894873 1.7456491 234 88 12
1.3675228 1.3904024 1.7456491 234 88 12
1.3398725 1.3188095 1.5623814 234 88 12
1.1412299 1.1280484 0.84752536 234 88 12
1.1830148 1.1763948 1.0129858 234 88 12
1.3289509 1.3297311 1.5623814 234 88 12
1.3250504 1.3336316 1.5623814 234 88 12
1.0922705 1.1697291 0.83416337 234 88 12
1.3164692 1.3422128 1.5623814 234 88 12
1.1410882 1.2183213 1.0129858 234 88 12
1.0735737 1.188426 0.83416337 234 88 12
1.8376259 -0.20027921 -0.61819744 234 88 12
