ply
format ascii 1.0
element vertex 204
property float x
property float y
property float z
property uchar red
property uchar green
property uchar blue
end_header
0.81678939 0.054878458 2.0889535 234 88 12
0.8154009 0.06622237 2.0889535 234 88 12
0.81516951 0.068113022 2.0889535 234 88 12
0.81331819 0.083238237 2.0889535 234 88 12
0.81638241 0.072099432 2.0880713 234 88 12
0.83960658 -1.1977699 1.7055259 234 88 12
0.84328926 -1.1960793 1.7042141 234 88 12
0.84542394 -1.2036717 1.6976557 234 88 12
1.7064531 -0.37507546 1.3966252 234 88 12
1.7050483 -0.39028776 1.3950628 234 88 12
1.7076534 -0.3945784 1.3903755 234 88 12
1.712448 -0.37220323 1.3888131 234 88 12
1.7144529 -0.3667424 1.3872508 234 88 12
1.7108784 -0.39511028 1.3856883 234 88 12
1.7111883 -0.39323092 1.3856883 234 88 12
1.7124282 -0.38571343 1.3856883 234 88 12
1.713358 -0.38007531 1.3856883 234 88 12
1.7155278 -0.3669197 1.3856883 234 88 12
1.7214831 -0.39106783 1.3716267 234 88 12
1.7259479 -0.38408226 1.3669395 234 88 12
0.97997403 1.1591078 1.6476588 234 88 12
0.97728032 1.1618015 1.6476588 234 88 12
0.96742439 1.1734955 1.6462665 234 88 12
0.98542494 1.1591711 1.6434816 234 88 12
0.97330308 1.171293 1.6434816 234 88 12
0.97826272 1.1681714 1.6420891 234 88 12
0.97918177 1.1690904 1.6406968 234 88 12
0.97300202 1.1844606 1.6337346 234 88 12
0.99234939 1.1687894 1.6309497 234 88 12
0.99461532 1.1683615 1.6295573 234 88 12
0.99326843 1.1697084 1.6295573 234 88 12
0.99192154 1.1710553 1.6295573 234 88 12
0.97979975 1.1831771 1.6295573 234 88 12
0.97845286 1.1845239 1.6295573 234 88 12
-2.2125831 -0.36500657 0.06154405 234 88 12
-2.215693 -0.30985603 0.059640747 234 88 12
-2.2154837 -0.31365982 0.059640747 234 88 12
-2.21647 -0.29845291 0.055834137 234 88 12
-2.2166491 -0.29655513 0.053930834 234 88 12
-2.2164397 -0.30035889 0.053930834 234 88 12
-2.2157071 -0.3136721 0.053930834 234 88 12
-2.2134039 -0.35551351 0.053930834 234 88 12
-2.2152717 -0.32700166 0.046317618 234 88 12
-2.215167 -0.32890353 0.046317618 234 88 12
-2.2139111 -0.35172614 0.046317618 234 88 12
-2.2169604 -0.30038756 0.040607706 234 88 12
-2.2162278 -0.31370077 0.040607706 234 88 12
-2.2154951 -0.32701394 0.040607706 234 88 12
-2.2151809 -0.33271959 0.040607706 234 88 12
-2.2144482 -0.34603277 0.040607706 234 88 12
-2.2140296 -0.35364029 0.040607706 234 88 12
-2.2152088 -0.3403517 0.029187884 234 88 12
-2.2173464 -0.3042241 0.025381276 234 88 12
-2.2168231 -0.31373352 0.025381276 234 88 12
-2.2160902 -0.32704669 0.025381276 234 88 12
-2.2153575 -0.3403599 0.025381276 234 88 12
-2.2151482 -0.34416366 0.025381276 234 88 12
-2.2146246 -0.35367307 0.025381276 234 88 12
-2.2176578 -0.30805653 0.01205815 234 88 12
-2.2173438 -0.31376219 0.01205815 234 88 12
-2.2166111 -0.32707536 0.01205815 234 88 12
-2.2158782 -0.34038854 0.01205815 234 88 12
-2.2151456 -0.35370174 0.01205815 234 88 12
-2.21522 -0.35370582 0.010154846 234 88 12
1.8979154 0.73587024 0.91631866 234 88 12
1.8925332 0.75012618 0.91631866 234 88 12
1.9005768 0.73280305 0.91277832 234 88 12
1.9025655 0.73151791 0.90923798 234 88 12
1.90122 0.73508185 0.90923798 234 88 12
1.8965106 0.74755585 0.90923798 234 88 12
1.9032234 0.73176628 0.90746778 234 88 12
1.8924444 0.7623086 0.90569764 234 88 12
1.9038666 0.73404509 0.90392745 234 88 12
1.9051529 0.7386027 0.89684677 234 88 12
1.9024619 0.7457307 0.89684677 234 88 12
1.9017892 0.7475127 0.89684677 234 88 12
1.896407 0.76176864 0.89684677 234 88 12
0.51763535 1.9885757 0.89684677 234 88 12
0.51585335 1.9892485 0.89684677 234 88 12
0.50209421 1.9959465 0.89330649 234 88 12
0.49674821 1.9979649 0.89330649 234 88 12
0.50283939 1.9979205 0.88799596 234 88 12
0.52675056 1.9911485 0.88268548 234 88 12
0.51605856 1.995185 0.88268548 234 88 12
0.50893062 1.997876 0.88268548 234 88 12
0.50180262 2.0005672 0.88268548 234 88 12
0.51705223 1.9978169 0.87560481 234 88 12
0.52517378 1.9977577 0.86852413 234 88 12
0.51626384 2.0011215 0.86852413 234 88 12
0.5020079 2.0065036 0.86852413 234 88 12
0.52720422 1.9977429 0.86675394 234 88 12
1.938237 -1.0458045 0.38717484 234 88 12
1.9437044 -1.0336436 0.38717484 234 88 12
1.9444854 -1.0319064 0.38717484 234 88 12
1.9377216 -1.0476612 0.38529247 234 88 12
1.9377377 -1.0497568 0.37964541 234 88 12
1.9392998 -1.0462823 0.37964541 234 88 12
1.9439862 -1.0358588 0.37964541 234 88 12
1.9455483 -1.0323843 0.37964541 234 88 12
1.9523282 -1.018725 0.37588072 234 88 12
1.9403785 -1.0488557 0.36646894 234 88 12
1.9419407 -1.0453812 0.36646894 234 88 12
1.9435028 -1.0419067 0.36646894 234 88 12
1.9481893 -1.0314832 0.36646894 234 88 12
1.9430195 -1.0479547 0.35329247 234 88 12
1.9438006 -1.0462174 0.35329247 234 88 12
2.2280343 0.072079681 -0.07867378 234 88 12
2.2271967 0.08729475 -0.07867378 234 88 12
2.2279902 0.070169605 -0.082480393 234 88 12
2.2272573 0.083482787 -0.082480393 234 88 12
2.2263012 0.09678369 -0.088190302 234 88 12
2.2273645 0.072042823 -0.095803514 234 88 12
2.2268412 0.081552237 -0.095803514 234 88 12
2.2260036 0.096767306 -0.095803514 234 88 12
2.2268438 0.07201416 -0.10912664 234 88 12
1.4924664 1.6500503 0.19021516 234 88 12
1.4816916 1.6608253 0.19021516 234 88 12
1.4803447 1.6621721 0.19021516 234 88 12
1.4953521 1.6475484 0.18641531 234 88 12
1.4959278 1.6481242 0.17501578 234 88 12
1.494581 1.649471 0.17501578 234 88 12
1.485153 1.6588992 0.17501578 234 88 12
1.4811122 1.6629398 0.17501578 234 88 12
1.4952526 1.6501427 0.16171633 234 88 12
1.4939058 1.6514896 0.16171633 234 88 12
1.562979 -1.4393669 -0.70950067 234 88 12
1.5602236 -1.4420612 -0.71131438 234 88 12
1.5613688 -1.4405391 -0.71131438 234 88 12
1.5712104 -1.4264907 -0.71312803 234 88 12
1.556753 -1.4418336 -0.72038269 234 88 12
1.5578982 -1.4403116 -0.72038269 234 88 12
1.5636241 -1.4327012 -0.72038269 234 88 12
1.5682049 -1.426613 -0.72038269 234 88 12
1.5755061 -1.4130368 -0.72763735 234 88 12
1.5518873 -1.4405563 -0.73489201 234 88 12
1.5530324 -1.4390342 -0.73489201 234 88 12
1.5644842 -1.4238137 -0.73489201 234 88 12
1.5725006 -1.4131593 -0.73489201 234 88 12
1.5490968 -1.4384569 -0.74577403 234 88 12
1.5497769 -1.4365848 -0.74758768 234 88 12
1.8291029 0.99311042 -0.80378264 234 88 12
1.8220968 1.0066425 -0.80378264 234 88 12
1.8203454 1.0100254 -0.80378264 234 88 12
1.8288423 0.9908306 -0.80737084 234 88 12
1.8206999 1.0037743 -0.81095898 234 88 12
1.8251256 0.99105126 -0.81634128 234 88 12
1.8242499 0.99274272 -0.81634128 234 88 12
1.8207469 0.99950874 -0.81634128 234 88 12
1.8172438 1.0062747 -0.81634128 234 88 12
1.8208408 0.9909777 -0.82710582 234 88 12
1.8197044 0.99038941 -0.83069396 234 88 12
1.8188287 0.99208087 -0.83069396 234 88 12
0.77983415 1.9474492 -0.78404766 234 88 12
0.79616082 1.9375553 -0.78763586 234 88 12
0.79755819 1.9361115 -0.78942996 234 88 12
0.78402615 1.9431175 -0.78942996 234 88 12
0.78233469 1.9439932 -0.78942996 234 88 12
0.77159733 1.9481113 -0.7930181 234 88 12
0.79549903 1.9321342 -0.80198854 234 88 12
0.78704149 1.9365129 -0.80198854 234 88 12
0.7735095 1.943519 -0.80198854 234 88 12
0.77321535 1.9429507 -0.80378264 234 88 12
0.78976268 1.9293402 -0.81634128 234 88 12
0.78807116 1.930216 -0.81634128 234 88 12
0.78777701 1.9296478 -0.81813538 234 88 12
0.87057632 -1.1991017 -1.6871622 234 88 12
0.86959267 -1.198132 -1.6884738 234 88 12
0.86994618 -1.195806 -1.6897856 234 88 12
0.86664176 -1.1952235 -1.6924089 234 88 12
0.86172354 -1.1903757 -1.6989673 234 88 12
0.86644185 -1.1816539 -1.7015908 234 88 12
1.8601403 -0.34277529 -1.1887262 234 88 12
1.8606392 -0.33899859 -1.1887262 234 88 12
1.8614469 -0.32565609 -1.190379 234 88 12
1.8551972 -0.34404355 -1.1969899 234 88 12
1.8559456 -0.33837849 -1.1969899 234 88 12
1.8576919 -0.32516 -1.1969899 234 88 12
1.8575608 -0.31169349 -1.2002953 234 88 12
1.8476872 -0.3430514 -1.2102118 234 88 12
1.8481863 -0.33927467 -1.2102118 234 88 12
1.8484358 -0.33738634 -1.2102118 234 88 12
0.99399793 1.1892941 -1.6146339 234 88 12
0.99130416 1.1919878 -1.6146339 234 88 12
1.0042865 1.175339 -1.6174252 234 88 12
0.99351156 1.186114 -1.6174252 234 88 12
0.99081779 1.1888077 -1.6174252 234 88 12
0.98181999 1.1959723 -1.6188208 234 88 12
0.99119192 1.1811006 -1.6230077 234 88 12
0.97772324 1.1945693 -1.6230077 234 88 12
1.0023972 1.1680622 -1.6244032 234 88 12
0.99107969 1.1702135 -1.6313813 234 88 12
0.98924643 1.1683801 -1.6341726 234 88 12
0.977929 1.1705314 -1.6411506 234 88 12
0.97835928 1.168268 -1.6425462 234 88 12
1.0337243 -0.13359964 -1.9837997 234 88 12
1.0320425 -0.13543308 -1.9848324 234 88 12
1.0313536 -0.11443095 -1.985865 234 88 12
1.0300028 -0.10865254 -1.9868977 234 88 12
1.0177341 -0.13290441 -1.9941264 234 88 12
1.0182306 -0.12148663 -1.9941264 234 88 12
1.0188097 -0.10816588 -1.9941264 234 88 12
1.0112553 -0.13452929 -1.9982572 234 88 12
1.0118344 -0.12120854 -1.9982572 234 88 12
1.0048592 -0.13425119 -2.002388 234 88 12
