ply
format ascii 1.0
element vertex 2009
property float x
property float y
property float z
property uchar red
property uchar green
property uchar blue
end_header
-0.00043789877 0.00049727486 2.7261035 234 88 12
-0.0013059931 0.0041667395 2.6973503 234 88 12
-0.001884516 0.00742721 2.6718018 234 88 12
0.00011085389 0.00742721 2.6718018 234 88 12
7.4220129e-06 0.00048243083 2.7261035 234 88 12
0.00364117 0.0063966499 2.6783347 234 88 12
-0.027771726 0.020526929 2.5186934 234 88 12
-0.021331906 0.020526929 2.5186934 234 88 12
-0.034283426 0.023734679 2.4530954 234 88 12
-0.031118801 0.022679804 2.4530954 234 88 12
-0.032601591 0.016502041 2.5186934 234 88 12
-0.040612672 0.020570055 2.4530954 234 88 12
-0.031118801 0.020570055 2.4530954 234 88 12
0.047309589 0.070018195 1.7364986 234 88 12
0.054879121 0.070018195 1.7364986 234 88 12
0.066233426 0.070018195 1.7364986 234 88 12
0.077587724 0.070018195 1.7364986 234 88 12
0.039740056 0.066233426 1.7364986 234 88 12
0.019142192 0.021612151 2.4058177 234 88 12
0.021612151 0.021612151 2.4058177 234 88 12
0.088942029 0.066233426 1.7364986 234 88 12
0.096511558 0.066233426 1.7364986 234 88 12
0.032170519 0.062448658 1.7364986 234 88 12
0.04352482 0.062448658 1.7364986 234 88 12
0.015437251 0.020377172 2.4058177 234 88 12
0.021612151 0.020377172 2.4058177 234 88 12
0.092726797 0.062448658 1.7364986 234 88 12
0.096511558 0.062448658 1.7364986 234 88 12
-0.043777294 0.016350556 2.4530954 234 88 12
-0.00065147888 0.020195846 2.3879735 234 88 12
0.00065147888 0.020195846 2.3879735 234 88 12
0.028385753 0.05866389 1.7364986 234 88 12
0.032726973 0.019142192 2.4058177 234 88 12
0.10786586 0.05866389 1.7364986 234 88 12
-0.064072609 0.019010555 2.3603504 234 88 12
-0.040759932 0.015075591 2.4368634 234 88 12
-0.062448658 0.051094357 1.7364986 234 88 12
0.02081622 0.051094357 1.7364986 234 88 12
0.024600986 0.051094357 1.7364986 234 88 12
0.010497331 0.016672231 2.4058177 234 88 12
0.1154354 0.051094357 1.7364986 234 88 12
0.11922017 0.051094357 1.7364986 234 88 12
-0.066888988 0.017602365 2.3603504 234 88 12
-0.036626481 0.01006222 2.5186934 234 88 12
-0.042993356 0.013958882 2.4368634 234 88 12
-0.016502041 0.01006222 2.5186934 234 88 12
-0.0018414672 0.0092073362 2.5366459 234 88 12
0.13057446 0.04352482 1.7364986 234 88 12
-0.05866389 0.039740056 1.7364986 234 88 12
0.0094619179 0.039740056 1.7364986 234 88 12
0.013246685 0.039740056 1.7364986 234 88 12
0.13057446 0.039740056 1.7364986 234 88 12
0.0045398804 0.0013059931 2.6973503 234 88 12
-0.046941921 0.010021308 2.4530954 234 88 12
-0.045226775 0.010608749 2.4368634 234 88 12
-0.041876644 0.010608749 2.4368634 234 88 12
-0.030063925 0.010021308 2.4530954 234 88 12
-0.03182625 0.0094920397 2.4368634 234 88 12
-0.019142192 0.010497331 2.4058177 234 88 12
0.0067923903 0.010497331 2.4058177 234 88 12
0.011732311 0.010497331 2.4058177 234 88 12
0.021612151 0.010497331 2.4058177 234 88 12
0.032726973 0.010497331 2.4058177 234 88 12
0.043841794 0.010497331 2.4058177 234 88 12
0.14192876 0.032170519 1.7364986 234 88 12
-0.020570055 0.0079115592 2.4530954 234 88 12
-0.054879121 0.028385753 1.7364986 234 88 12
0.0018923836 0.028385753 1.7364986 234 88 12
0.013246685 0.028385753 1.7364986 234 88 12
0.041896503 0.0083793011 2.4367244 234 88 12
0.14571354 0.028385753 1.7364986 234 88 12
-0.068297178 0.0091532301 2.3603504 234 88 12
-0.0018923836 0.024600986 1.7364986 234 88 12
0.043013744 0.0072620609 2.4367244 234 88 12
0.15328307 0.024600986 1.7364986 234 88 12
-0.054879121 0.02081622 1.7364986 234 88 12
-0.0054293824 0.019907735 1.7798581 234 88 12
-0.0018923836 0.02081622 1.7364986 234 88 12
0.0018923836 0.02081622 1.7364986 234 88 12
0.1608526 0.02081622 1.7364986 234 88 12
-0.051094357 0.017031452 1.7364986 234 88 12
0.021593107 0.0052523771 2.4236114 234 88 12
-0.045244854 0.012668558 1.7798581 234 88 12
-0.016288146 0.012668558 1.7798581 234 88 12
0.019258717 0.0040851822 2.4236114 234 88 12
0.033265058 0.0040851822 2.4236114 234 88 12
-0.054879121 0.0094619179 1.7364986 234 88 12
-0.051094357 0.0094619179 1.7364986 234 88 12
-0.041625265 0.0090489704 1.7798581 234 88 12
-0.0307665 0.0090489704 1.7798581 234 88 12
-0.019907735 0.0090489704 1.7798581 234 88 12
-0.017031452 0.0094619179 1.7364986 234 88 12
-0.0094619179 0.0094619179 1.7364986 234 88 12
0.0018923836 0.0094619179 1.7364986 234 88 12
-0.17916961 0.0054293824 1.7798581 234 88 12
-0.039740056 0.0018923836 1.7364986 234 88 12
-0.028385753 0.0018923836 1.7364986 234 88 12
0.16469127 0.0018097941 1.7798581 234 88 12
-0.03984639 -0.0004024888 2.5186934 234 88 12
-0.050106544 -0.00052743731 2.4530954 234 88 12
-0.05081033 -0.00055835524 2.4368634 234 88 12
-0.041876644 -0.00055835524 2.4368634 234 88 12
-0.03182625 -0.00055835524 2.4368634 234 88 12
-0.026899302 -0.00052743731 2.4530954 234 88 12
-0.020570055 -0.00052743731 2.4530954 234 88 12
-0.014087108 -0.0004024888 2.5186934 234 88 12
-0.051094357 -0.0018923836 1.7364986 234 88 12
-0.039740056 -0.0018923836 1.7364986 234 88 12
-0.028385753 -0.0018923836 1.7364986 234 88 12
-0.02081622 -0.0018923836 1.7364986 234 88 12
-0.0094619179 -0.0018923836 1.7364986 234 88 12
0.0018923836 -0.0018923836 1.7364986 234 88 12
0.0018524701 -0.00061749003 2.4058177 234 88 12
0.011732311 -0.00061749003 2.4058177 234 88 12
0.014589937 -0.00058359746 2.4236114 234 88 12
0.021593107 -0.00058359746 2.4236114 234 88 12
0.033265058 -0.00058359746 2.4236114 234 88 12
0.043841794 -0.00061749003 2.4058177 234 88 12
0.048599947 -0.00055862009 2.4367244 234 88 12
0.16469127 -0.0018097941 1.7798581 234 88 12
-0.18278921 -0.0090489704 1.7798581 234 88 12
-0.016672231 -0.0030874503 2.4058177 234 88 12
-0.00061749003 -0.0030874503 2.4058177 234 88 12
0.053721633 -0.0030874503 2.4058177 234 88 12
-0.18278921 -0.012668558 1.7798581 234 88 12
-0.017602365 -0.0049286624 2.3603504 234 88 12
-0.039740056 -0.013246685 1.7364986 234 88 12
-0.028385753 -0.013246685 1.7364986 234 88 12
-0.02081622 -0.013246685 1.7364986 234 88 12
0.16469127 -0.012668558 1.7798581 234 88 12
-0.01006222 -0.0036223992 2.5186934 234 88 12
-0.013422742 -0.0052523771 2.4236114 234 88 12
0.04376981 -0.0052523771 2.4236114 234 88 12
-0.0052523771 -0.006419572 2.4236114 234 88 12
0.010309411 -0.0012193928 2.6718018 234 88 12
-0.010608749 -0.0072586183 2.4368634 234 88 12
-0.008439268 -0.0064535574 2.4693756 234 88 12
-0.0036920612 -0.006856685 2.4530954 234 88 12
0.17220691 -0.024600986 1.7364986 234 88 12
0.0057836836 -0.00080847187 2.6973503 234 88 12
-0.013958882 -0.008375329 2.4368634 234 88 12
-0.011417832 -0.0074464125 2.4693756 234 88 12
0.16831085 -0.0307665 1.7798581 234 88 12
-0.0017507925 -0.011088352 2.4236114 234 88 12
-0.00061749003 -0.011732311 2.4058177 234 88 12
0.00061749003 -0.011732311 2.4058177 234 88 12
0.011732311 -0.011732311 2.4058177 234 88 12
0.014589937 -0.011088352 2.4236114 234 88 12
0.021593107 -0.011088352 2.4236114 234 88 12
0.033265058 -0.011088352 2.4236114 234 88 12
0.04376981 -0.011088352 2.4236114 234 88 12
0.051251672 -0.011732311 2.4058177 234 88 12
0.053721633 -0.011732311 2.4058177 234 88 12
0.16831085 -0.034386087 1.7798581 234 88 12
-0.05116142 -0.011076183 2.4530954 234 88 12
-0.051927038 -0.01172546 2.4368634 234 88 12
-0.041876644 -0.01172546 2.4368634 234 88 12
-0.03182625 -0.01172546 2.4368634 234 88 12
0.17599167 -0.039740056 1.7364986 234 88 12
-0.019360673 -0.011417832 2.4693756 234 88 12
-0.010424977 -0.011417832 2.4693756 234 88 12
0.0016758603 -0.012848262 2.4367244 234 88 12
-0.0026371866 -0.013185932 2.4530954 234 88 12
-0.04065137 -0.010867197 2.5186934 234 88 12
-0.022339238 -0.013403542 2.4693756 234 88 12
-0.00055862009 -0.015082742 2.4367244 234 88 12
-0.0028174215 -0.011672175 2.5186934 234 88 12
0.012967291 -0.021612151 2.4058177 234 88 12
0.053721633 -0.021612151 2.4058177 234 88 12
0.011731021 -0.020668942 2.4367244 234 88 12
0.019258717 -0.021593107 2.4236114 234 88 12
0.021593107 -0.021593107 2.4236114 234 88 12
0.033265058 -0.021593107 2.4236114 234 88 12
0.04376981 -0.021593107 2.4236114 234 88 12
-0.05081033 -0.021775855 2.4368634 234 88 12
-0.041876644 -0.021775855 2.4368634 234 88 12
-0.0072620609 -0.021786183 2.4367244 234 88 12
0.00055862009 -0.021786183 2.4367244 234 88 12
0.011731021 -0.021786183 2.4367244 234 88 12
-0.050106544 -0.02162493 2.4530954 234 88 12
0.007745041 -0.030276069 2.3603504 234 88 12
0.011969608 -0.030276069 2.3603504 234 88 12
0.021612151 -0.026552072 2.4058177 234 88 12
-0.032267787 -0.022339238 2.4693756 234 88 12
-0.031274933 -0.022339238 2.4693756 234 88 12
-0.021346383 -0.022339238 2.4693756 234 88 12
-0.01172546 -0.025125986 2.4368634 234 88 12
-0.18734597 -0.088942029 1.7364986 234 88 12
-0.012131058 -0.024789553 2.4530954 234 88 12
-0.0021122838 -0.033092447 2.3603504 234 88 12
-0.0018923836 -0.088942029 1.7364986 234 88 12
0.0018923836 -0.088942029 1.7364986 234 88 12
0.013246685 -0.088942029 1.7364986 234 88 12
0.0063368515 -0.033092447 2.3603504 234 88 12
0.011969608 -0.033092447 2.3603504 234 88 12
0.052486654 -0.029022032 2.4058177 234 88 12
-0.0097425897 -0.0048220898 2.6783347 234 88 12
-0.013246685 -0.092726797 1.7364986 234 88 12
-0.00018657044 -0.003047317 2.6973503 234 88 12
-0.010867197 -0.020526929 2.5186934 234 88 12
-0.024600986 -0.096511558 1.7364986 234 88 12
-0.02081622 -0.096511558 1.7364986 234 88 12
0.035955288 -0.096511558 1.7364986 234 88 12
0.021826934 -0.035908826 2.3603504 234 88 12
-0.032170519 -0.10029633 1.7364986 234 88 12
0.021612151 -0.032726973 2.4058177 234 88 12
0.051251672 -0.032726973 2.4058177 234 88 12
0.053721633 -0.032726973 2.4058177 234 88 12
-0.18356121 -0.10408109 1.7364986 234 88 12
-0.038236436 -0.022136884 2.5186934 234 88 12
-0.012477153 -0.022136884 2.5186934 234 88 12
-0.047309589 -0.10786586 1.7364986 234 88 12
0.054879121 -0.10786586 1.7364986 234 88 12
0.028596276 -0.033265058 2.4236114 234 88 12
0.033265058 -0.033265058 2.4236114 234 88 12
0.04376981 -0.033265058 2.4236114 234 88 12
-0.048576906 -0.032942958 2.4368634 234 88 12
-0.041876644 -0.032942958 2.4368634 234 88 12
-0.019551702 -0.032958586 2.4367244 234 88 12
-0.054879121 -0.11165063 1.7364986 234 88 12
-0.047996793 -0.032173675 2.4530954 234 88 12
-0.024009276 -0.03405967 2.4368634 234 88 12
-0.02162493 -0.032173675 2.4530954 234 88 12
0.026051501 -0.042949773 2.3603504 234 88 12
0.032726973 -0.037666891 2.4058177 234 88 12
-0.17977643 -0.11922017 1.7364986 234 88 12
-0.066233426 -0.11922017 1.7364986 234 88 12
0.073802955 -0.11922017 1.7364986 234 88 12
0.033092447 -0.044357963 2.3603504 234 88 12
-0.033260643 -0.032267787 2.4693756 234 88 12
-0.031274933 -0.032267787 2.4693756 234 88 12
0.055623475 -0.047174338 2.3603504 234 88 12
-0.17599167 -0.13057446 1.7364986 234 88 12
-0.08515726 -0.13057446 1.7364986 234 88 12
0.042949773 -0.048582528 2.3603504 234 88 12
-0.022136884 -0.028576704 2.5186934 234 88 12
-0.092726797 -0.13435923 1.7364986 234 88 12
-0.042722423 -0.038502924 2.4530954 234 88 12
-0.048599947 -0.043013744 2.4367244 234 88 12
-0.034075823 -0.043013744 2.4367244 234 88 12
-0.11165063 -0.14571354 1.7364986 234 88 12
-0.15328307 -0.15328307 1.7364986 234 88 12
-0.13435923 -0.15328307 1.7364986 234 88 12
-1.3668214 0.043654997 2.0020189 234 88 12
-1.3668721 0.042488907 2.0020189 234 88 12
-1.3673284 0.031994063 2.0020189 234 88 12
-1.367497 0.05069416 2.0013862 234 88 12
-1.367852 0.042531505 2.0013862 234 88 12
-1.3683082 0.032036666 2.0013862 234 88 12
-1.3682741 0.055401135 2.0007534 234 88 12
-1.3703187 0.030955777 2.0001206 234 88 12
-1.3707749 0.020460937 2.0001206 234 88 12
-1.3697268 0.06714727 1.9994879 234 88 12
-1.3703351 0.053154152 1.9994879 234 88 12
-1.3707914 0.042659312 1.9994879 234 88 12
-1.3706052 0.06952206 1.998855 234 88 12
-1.3708587 0.063691594 1.998855 234 88 12
-1.4672309 0.063481398 2.262511 234 88 12
-1.3653649 0.069870941 1.9810473 234 88 12
-1.3656331 0.063701868 1.9810473 234 88 12
-1.3661159 0.052597538 1.9810473 234 88 12
-1.4673694 0.0651059 2.2623763 234 88 12
-1.366348 0.071149834 1.9803777 234 88 12
-1.3666699 0.063746944 1.9803777 234 88 12
-1.3671527 0.052642614 1.9803777 234 88 12
-1.3675818 0.042772099 1.9803777 234 88 12
-1.3665801 0.089702122 1.9797082 234 88 12
-1.3667947 0.084766865 1.9797082 234 88 12
-1.3730885 0.080144703 1.9969566 234 88 12
-1.4587395 0.06908235 2.2374229 234 88 12
-1.3703166 0.051544029 1.9783691 234 88 12
-1.3707458 0.041673511 1.9783691 234 88 12
-1.370334 0.075031579 1.9776995 234 88 12
-1.3703877 0.073797762 1.9776995 234 88 12
-1.4593236 0.064225562 2.2371824 234 88 12
-1.3709778 0.060225803 1.9776995 234 88 12
-1.3713883 0.098564208 1.9763604 234 88 12
-1.3830255 0.062927283 2.0066395 234 88 12
-1.4774139 0.064658843 2.2901328 234 88 12
-1.3753219 0.031983301 1.9756908 234 88 12
-1.3817053 0.017431278 1.9931598 234 88 12
-1.3881518 0.053085506 2.0036108 234 88 12
-1.3856246 0.017601686 1.9906286 234 88 12
-1.3810595 0.043358088 1.9716736 234 88 12
-1.3811132 0.042124271 1.9716736 234 88 12
-1.381596 0.031019941 1.9716736 234 88 12
-1.3905288 0.063253514 2.0017936 234 88 12
-1.3909656 0.053207841 2.0017936 234 88 12
-1.3858936 0.10173081 1.9880974 234 88 12
-1.3917578 0.056597177 2.001188 234 88 12
-1.3919034 0.053248618 2.001188 234 88 12
-1.3815413 0.10395022 1.9696649 234 88 12
-1.2648336 0.048044011 1.564778 234 88 12
-1.1873773 0.038365904 1.3001163 234 88 12
-1.1877061 0.030803513 1.3001163 234 88 12
-1.3840625 0.045960944 1.9696649 234 88 12
-1.3842235 0.042259499 1.9696649 234 88 12
-1.3847063 0.031155169 1.9696649 234 88 12
-1.1903902 0.042285241 1.2980644 234 88 12
-1.1908834 0.030941656 1.2980644 234 88 12
-1.1934031 0.046204574 1.2960124 234 88 12
-1.3923821 0.020232085 1.986199 234 88 12
-1.1964159 0.050123911 1.2939605 234 88 12
-1.1967447 0.042561524 1.2939605 234 88 12
-1.2093641 0.036277514 1.3376034 234 88 12
-1.1974024 0.027436743 1.2939605 234 88 12
-1.3961077 0.06461437 1.9981594 234 88 12
-1.1994288 0.054043248 1.2919085 234 88 12
-1.1995932 0.050262053 1.2919085 234 88 12
-1.199922 0.042699665 1.2919085 234 88 12
-1.2122455 0.040025797 1.335641 234 88 12
-1.2127172 0.029177282 1.335641 234 88 12
-1.200744 0.02379369 1.2919085 234 88 12
-1.2009084 0.020012494 1.2919085 234 88 12
-1.3942912 0.021483382 1.9849334 234 88 12
-1.2004688 0.10333692 1.2898566 234 88 12
-1.2007977 0.095774531 1.2898566 234 88 12
-1.2012908 0.084430948 1.2898566 234 88 12
-1.2151269 0.043774083 1.3336787 234 88 12
-1.2033173 0.11103746 1.2878047 234 88 12
-1.2049613 0.073225506 1.2878047 234 88 12
-1.2796648 0.029232338 1.555745 234 88 12
-1.4174623 0.049192585 2.0661681 234 88 12
-1.2210468 0.04765448 1.3297539 234 88 12
-1.2213613 0.040422134 1.3297539 234 88 12
-1.2218329 0.029573619 1.3297539 234 88 12
-1.2106045 0.016645724 1.2857528 234 88 12
-1.4305925 0.051626008 2.1124094 234 88 12
-1.4495151 0.056190703 2.1837678 234 88 12
-1.4338579 0.051200431 2.1245267 234 88 12
-1.3917489 0.036405958 1.964978 234 88 12
-1.3919635 0.031470701 1.964978 234 88 12
-1.2095073 0.11509493 1.2837008 234 88 12
-1.2098362 0.10753255 1.2837008 234 88 12
-1.2100006 0.10375135 1.2837008 234 88 12
-1.2103294 0.096188955 1.2837008 234 88 12
-1.2108226 0.084845372 1.2837008 234 88 12
-1.2113158 0.073501788 1.2837008 234 88 12
-1.211809 0.062158205 1.2837008 234 88 12
-1.2137818 0.016783865 1.2837008 234 88 12
-1.4236144 0.048844103 2.0830073 234 88 12
-1.4358412 0.051028281 2.1296344 234 88 12
-1.2162478 -0.039934058 1.2837008 234 88 12
-1.2164122 -0.043715253 1.2837008 234 88 12
-1.2268095 0.055151049 1.3258291 234 88 12
-1.2269667 0.051534876 1.3258291 234 88 12
-1.2274384 0.040686361 1.3258291 234 88 12
-1.22791 0.029837845 1.3258291 234 88 12
-1.4530165 0.056261092 2.194098 234 88 12
-1.4021075 0.034681249 1.9951308 234 88 12
-1.3822254 0.025563527 1.9173107 234 88 12
-1.3965704 0.10453162 1.9811366 234 88 12
-1.4650556 0.066160642 2.2412083 234 88 12
-1.2289047 0.076980188 1.3238668 234 88 12
-1.2312632 0.022737613 1.3238668 234 88 12
-1.2314204 0.019121442 1.3238668 234 88 12
-1.4024631 0.048116256 1.9945251 234 88 12
-1.4027057 0.042535327 1.9945251 234 88 12
-1.2227668 -0.043438971 1.2795969 234 88 12
-1.3928381 0.10691369 1.9622998 234 88 12
-1.2322578 0.069879964 1.3219044 234 88 12
-1.2325722 0.062647618 1.3219044 234 88 12
-1.2330439 0.0517991 1.3219044 234 88 12
-1.2335156 0.040950585 1.3219044 234 88 12
-1.223478 0.013417095 1.277545 234 88 12
-1.4667486 0.060475621 2.2461567 234 88 12
-1.2254508 -0.031957243 1.277545 234 88 12
-1.3845285 0.027073184 1.9157839 234 88 12
-1.4009979 0.025279874 1.9805038 234 88 12
-1.2222164 0.1156475 1.275493 234 88 12
-1.2268196 0.0097740423 1.275493 234 88 12
-1.2253937 0.11578564 1.2734411 234 88 12
-1.4656367 0.064215854 2.2408881 234 88 12
-1.2299969 0.0099121835 1.2734411 234 88 12
-1.4029069 0.026531171 1.9792382 234 88 12
-1.2421597 0.052195437 1.3160173 234 88 12
-1.2426313 0.041346923 1.3160173 234 88 12
-1.243103 0.030498408 1.3160173 234 88 12
-1.2435747 0.019649891 1.3160173 234 88 12
-1.2331741 0.010050325 1.2713892 234 88 12
-1.2986758 0.0217204 1.5437009 234 88 12
-1.2346537 -0.023980429 1.2713892 234 88 12
-1.3969852 0.10709399 1.9596217 234 88 12
-1.2317482 0.11606193 1.2693373 234 88 12
-1.2384886 -0.038967066 1.2693373 234 88 12
-1.3980219 0.10713907 1.9589521 234 88 12
-1.4081875 0.046128556 1.9908907 234 88 12
-1.4083332 0.042779997 1.9908907 234 88 12
-1.2408438 -0.019922951 1.2672853 234 88 12
-1.4014015 0.029408755 1.9589521 234 88 12
-1.2526904 0.020046229 1.3101301 234 88 12
-1.2428703 0.0066835545 1.2652334 234 88 12
-1.2438567 -0.016003614 1.2652334 234 88 12
-1.3913769 0.033009011 1.9112031 234 88 12
-1.2414443 0.11269515 1.2631814 234 88 12
-1.2552574 0.031026857 1.3081677 234 88 12
-1.2562008 0.0093298266 1.3081677 234 88 12
-1.2462119 0.0030405011 1.2631814 234 88 12
-1.2463763 -0.00074069382 1.2631814 234 88 12
-1.2468696 -0.012084278 1.2631814 234 88 12
-1.2571441 -0.012367205 1.3081677 234 88 12
-1.3925589 0.033060409 1.9104396 234 88 12
-1.3926201 0.03165355 1.9104396 234 88 12
-1.2446216 0.11283329 1.2611295 234 88 12
-1.2510332 -0.034633305 1.2611295 234 88 12
-1.2481277 0.10540905 1.2590775 234 88 12
-1.4667078 0.06623248 2.2401412 234 88 12
-1.261649 0.024058739 1.304243 234 88 12
-1.2618062 0.020442568 1.304243 234 88 12
-1.262278 0.0095940512 1.304243 234 88 12
-1.2527308 -0.00046441087 1.2590775 234 88 12
-1.2542105 -0.034495164 1.2590775 234 88 12
-1.4032056 0.10736445 1.9556043 234 88 12
-1.293502 0.10399257 1.450675 234 88 12
-1.265002 0.016958507 1.3022805 234 88 12
-1.2653165 0.0097261639 1.3022805 234 88 12
-1.2657882 -0.0011223519 1.3022805 234 88 12
-1.4133624 0.035170592 1.9878621 234 88 12
-1.296086 0.10410492 1.4490063 234 88 12
-1.2543178 0.10946652 1.2549738 234 88 12
-1.2544822 0.10568533 1.2549738 234 88 12
-1.3179369 0.10808424 1.5396303 234 88 12
-1.318056 0.10534441 1.5396303 234 88 12
-1.2939931 0.10525451 1.4253433 234 88 12
-1.3210766 0.096579351 1.5521644 234 88 12
-1.4086587 0.029724287 1.9542652 234 88 12
-1.3509531 0.095305167 1.6837333 234 88 12
-1.2966441 0.10536977 1.4236312 234 88 12
-1.2608367 0.10596161 1.2508699 234 88 12
-1.2667551 -0.030161403 1.2508699 234 88 12
-1.4135331 0.030498071 1.9722774 234 88 12
-1.2791812 0.12740584 1.3278385 234 88 12
-1.3527157 0.097598046 1.6825329 234 88 12
-1.4224898 0.07621666 2.0205622 234 88 12
-1.2640139 0.10609975 1.2488179 234 88 12
-1.4005893 0.039047636 1.9050955 234 88 12
-1.4008952 0.032013334 1.9050955 234 88 12
-1.2821182 0.12753353 1.3259418 234 88 12
-1.3434378 0.10305525 1.626879 234 88 12
-1.3481784 0.094794624 1.6487616 234 88 12
-1.4368308 0.073334083 2.0868649 234 88 12
-1.3619351 0.094164453 1.7072947 234 88 12
-1.3900349 0.085385881 1.848139 234 88 12
-1.4174703 0.076658338 1.9856188 234 88 12
-1.4028313 0.041964151 1.9035685 234 88 12
-1.4032595 0.03211613 1.9035685 234 88 12
-1.2762868 -0.029746979 1.244714 234 88 12
-1.4191355 0.032066707 1.9842278 234 88 12
-1.2829313 0.13300745 1.297151 234 88 12
-1.3089077 0.11775517 1.4280453 234 88 12
-1.3636197 0.09635587 1.7061474 234 88 12
-1.2740389 0.095170595 1.2426621 234 88 12
-1.4039524 0.043422412 1.9028051 234 88 12
-1.2859439 0.13313843 1.2952054 234 88 12
-1.3115247 0.11786896 1.4263551 234 88 12
-1.3927349 0.085503273 1.8463954 234 88 12
-1.2770517 0.099089928 1.2406101 234 88 12
-1.2772161 0.095308736 1.2406101 234 88 12
-1.2826413 -0.029470697 1.2406101 234 88 12
-1.4668229 0.071874887 2.2321341 234 88 12
-1.4582525 0.071340322 2.1860816 234 88 12
-1.410027 0.084128827 1.9306225 234 88 12
-1.3860198 0.087589696 1.8027751 234 88 12
-1.4435791 0.071797132 2.1075532 234 88 12
-1.4445652 0.070298083 2.1124887 234 88 12
-1.2858186 -0.029332556 1.2385583 234 88 12
-1.4135731 0.10781521 1.9489088 234 88 12
-1.286128 0.13192137 1.2590858 234 88 12
-1.3255079 0.11518938 1.4700345 234 88 12
-1.3854722 0.091724828 1.7917275 234 88 12
-1.4283234 0.053653773 2.0165577 234 88 12
-1.4283664 0.052661855 2.0165577 234 88 12
-1.4146098 0.10786028 1.9482392 234 88 12
-1.3279835 0.11529702 1.4684358 234 88 12
-1.4456578 0.070345588 2.111783 234 88 12
-1.419472 0.073988259 1.9670829 234 88 12
-1.4472516 0.068823643 2.1202755 234 88 12
-1.4654899 0.065935135 2.2209735 234 88 12
-1.2923375 -0.032837465 1.2344544 234 88 12
-1.4238734 0.031154411 1.9811993 234 88 12
-1.4215239 0.027340606 1.9672149 234 88 12
-1.3329481 0.11739717 1.4814276 234 88 12
-1.3881321 0.090184927 1.787338 234 88 12
-1.4213119 0.071601138 1.9707215 234 88 12
-1.2955147 -0.032699324 1.2324024 234 88 12
-1.4246658 0.034543749 1.9805936 234 88 12
-1.2899789 0.16784215 1.2303505 234 88 12
-1.290472 0.15649857 1.2303505 234 88 12
-1.3297385 0.11366811 1.4463211 234 88 12
-1.3819031 0.094443962 1.7426903 234 88 12
-1.2922804 0.11490542 1.2303505 234 88 12
-1.3829128 0.08837498 1.7469963 234 88 12
-1.4085019 0.079116523 1.8924224 234 88 12
-1.4278837 0.071942918 2.0025311 234 88 12
-1.2988564 -0.036342379 1.2303505 234 88 12
-1.4256523 0.03346834 1.9799877 234 88 12
-1.4257493 0.031235969 1.9799877 234 88 12
-1.2948 0.13016833 1.2282985 234 88 12
-1.3322706 0.1137782 1.4446858 234 88 12
-1.2954576 0.11504356 1.2282985 234 88 12
-1.4199696 0.073333599 1.9506012 234 88 12
-1.4321748 0.041895714 2.0144045 234 88 12
-1.3274543 0.12264958 1.40122 234 88 12
-1.2979773 0.13030648 1.2262466 234 88 12
-1.3030137 0.12484592 1.2550582 234 88 12
-1.3505344 0.10316852 1.5347011 234 88 12
-1.4196143 0.079761393 1.9433277 234 88 12
-1.426181 0.075855479 1.981732 234 88 12
-1.426229 0.07474976 1.981732 234 88 12
-1.4328111 0.072478011 2.0206561 234 88 12
-1.3055397 -0.043628484 1.2262466 234 88 12
-1.3299735 0.12592663 1.3995043 234 88 12
-1.3605371 0.10583925 1.5813538 234 88 12
-1.3911437 0.091394037 1.7649689 234 88 12
-1.3939772 0.088730246 1.7816147 234 88 12
-1.4265342 0.072694749 1.9767524 234 88 12
-1.4363863 0.069297798 2.036191 234 88 12
-1.4578779 0.065412529 2.16679 234 88 12
-1.4064672 0.066625781 1.8522277 234 88 12
-1.308717 -0.043490343 1.2241946 234 88 12
-1.3956563 0.085174538 1.7806319 234 88 12
-1.4165703 0.07857319 1.9095615 234 88 12
-1.4260294 0.074117817 1.9674757 234 88 12
-1.407847 0.065121479 1.8513805 234 88 12
-1.4589763 0.063215479 2.1704488 234 88 12
-1.3515466 0.04320243 1.4935148 234 88 12
-1.4345459 0.044980183 2.0127897 234 88 12
-1.4346752 0.042004429 2.0127897 234 88 12
-1.4732403 0.060007744 2.2587349 234 88 12
-1.3411096 0.1236455 1.4325321 234 88 12
-1.3413733 0.11757916 1.4325321 234 88 12
-1.3707788 0.10382208 1.6163512 234 88 12
-1.3879524 0.089603283 1.7219913 234 88 12
-1.4217471 0.078926004 1.9346719 234 88 12
-1.4269471 0.075311676 1.9668506 234 88 12
-1.4322389 0.071102381 1.9994493 234 88 12
-1.4196668 0.066367723 1.9179136 234 88 12
-1.4314474 0.063832678 1.9923816 234 88 12
-1.3453336 0.050955359 1.4393184 234 88 12
-1.3729273 0.05131539 1.6154937 234 88 12
-1.3808692 0.050066214 1.6658237 234 88 12
-1.3645761 0.045097951 1.5604794 234 88 12
-1.4349049 0.055927519 2.0122516 234 88 12
-1.4350344 0.052951764 2.0122516 234 88 12
-1.4355087 0.042040668 2.0122516 234 88 12
-1.3154002 -0.050776452 1.2200909 234 88 12
-1.4017282 0.082787015 1.7976871 234 88 12
-1.4183084 0.077446878 1.9042181 234 88 12
-1.4404702 0.068303086 2.0460436 234 88 12
-1.4659579 0.064467147 2.211045 234 88 12
-1.4659705 0.064175762 2.211045 234 88 12
-1.4697925 0.064006224 2.2359023 234 88 12
-1.454915 0.062983774 2.1386647 234 88 12
-1.3917104 0.051470991 1.7235343 234 88 12
-1.388716 0.048940558 1.7033045 234 88 12
-1.3187419 -0.054419506 1.2180389 234 88 12
-1.3703519 0.10813589 1.5854244 234 88 12
-1.3704599 0.10565057 1.5854244 234 88 12
-1.3924613 0.093340598 1.7283288 234 88 12
-1.4075398 0.085027985 1.8263041 234 88 12
-1.4031179 0.084594823 1.7967407 234 88 12
-1.3942194 0.081188112 1.7365153 234 88 12
-1.434714 0.071065336 2.0031664 234 88 12
-1.3446289 0.047424607 1.3966091 234 88 12
-1.3991839 0.052409347 1.7612351 234 88 12
-1.4188921 0.053938605 1.8928801 234 88 12
-1.3586643 0.11392331 1.492034 234 88 12
-1.3725483 0.10574137 1.5840757 234 88 12
-1.4079314 0.083738334 1.8183011 234 88 12
-1.4146041 0.078917816 1.8622735 234 88 12
-1.4509262 0.066713996 2.1057851 234 88 12
-1.4628192 0.064169124 2.1859488 234 88 12
-1.4752487 0.064182356 2.2705183 234 88 12
-1.3611455 0.11121832 1.4905103 234 88 12
-1.3797092 0.10148147 1.6166965 234 88 12
-1.3983825 0.092574455 1.7438949 234 88 12
-1.4281256 0.073695928 1.94508 234 88 12
-1.4401388 0.069613636 2.0274093 234 88 12
-1.4103683 0.070435621 1.8205734 234 88 12
-1.4296302 0.062756017 1.9522369 234 88 12
-1.4734831 0.068857647 2.2583303 234 88 12
-1.3816979 0.10156793 1.6154122 234 88 12
-1.4013405 0.086563788 1.7505246 234 88 12
-1.4290971 0.074959584 1.9444184 234 88 12
-1.4342407 0.06401635 1.9776298 234 88 12
-1.3295673 0.05594904 1.2304 234 88 12
-1.4599991 0.062778763 2.1605132 234 88 12
-1.4526279 0.061530441 2.1076822 234 88 12
-1.3518308 0.047673602 1.3862413 234 88 12
-1.3319441 -0.065210521 1.2098311 234 88 12
-1.4354196 0.024946641 1.9739306 234 88 12
-1.3710595 0.10662042 1.5237709 234 88 12
-1.4028507 0.08852841 1.7494961 234 88 12
-1.4138741 0.081803702 1.8276221 234 88 12
-1.4285083 0.074111074 1.9317294 234 88 12
-1.4364953 0.069383889 1.9883817 234 88 12
-1.4322438 0.06639111 1.9564819 234 88 12
-1.3352858 -0.068853579 1.2077792 234 88 12
-1.4290707 0.10972516 1.9388655 234 88 12
-1.392458 0.094689056 1.6611125 234 88 12
-1.4263111 0.073476933 1.9065521 234 88 12
-1.4387226 0.067204736 1.9970248 234 88 12
-1.4456736 0.064994939 2.0481153 234 88 12
-1.4457108 0.06414073 2.0481153 234 88 12
-1.4469802 0.062499814 2.0570452 234 88 12
-1.3744712 0.055689007 1.5144154 234 88 12
-1.4246194 0.058416177 1.8890628 234 88 12
-1.4418175 0.031383242 2.0084836 234 88 12
-1.3386275 -0.07249663 1.2057273 234 88 12
-1.4197845 0.082538068 1.8503569 234 88 12
-1.4152701 0.080661036 1.8152714 234 88 12
-1.4297752 0.075649358 1.9243356 234 88 12
-1.4298309 0.074367478 1.9243356 234 88 12
-1.4349253 0.068744227 1.9613581 234 88 12
-1.4158494 0.062393151 1.8136308 234 88 12
-1.3419691 -0.076139681 1.2036754 234 88 12
-1.4384273 0.020604234 1.9721135 234 88 12
-1.4489225 0.065816715 2.061631 234 88 12
-1.4501578 0.052978609 2.0611944 234 88 12
-1.4452809 0.028552441 2.0063305 234 88 12
-1.3518296 -0.083287649 1.1975195 234 88 12
-1.4130721 -1.4132086 1.8541065 234 88 12
-1.4131494 -1.41316 1.8540847 234 88 12
-1.3951232 -1.3971612 1.8001969 234 88 12
-1.4132409 -1.4131255 1.8540412 234 88 12
-1.3094436 -1.3242891 1.530066 234 88 12
-1.3074181 -1.3275031 1.5291612 234 88 12
-1.3056716 -1.3292496 1.5291612 234 88 12
-1.3916939 -1.4025111 1.7987349 234 88 12
-1.3182126 -1.3190858 1.5273515 234 88 12
-1.2990009 -1.3382976 1.5273515 234 88 12
-1.2946345 -1.3426639 1.5273515 234 88 12
-1.2876484 -1.34965 1.5273515 234 88 12
-1.3991188 -1.3955131 1.7984101 234 88 12
-1.3912802 -1.4033515 1.7984101 234 88 12
-1.3218757 -1.3293037 1.5429298 234 88 12
-1.31666 -1.3356427 1.5420746 234 88 12
-1.3009788 -1.351324 1.5420746 234 88 12
-1.2839128 -1.3581401 1.5237319 234 88 12
-1.3263004 -1.3271258 1.5412194 234 88 12
-1.3254751 -1.3279511 1.5412194 234 88 12
-1.3163965 -1.3370297 1.5412194 234 88 12
-1.3147458 -1.3386804 1.5412194 234 88 12
-1.3040165 -1.3494097 1.5412194 234 88 12
-1.2836338 -1.3596077 1.5228271 234 88 12
-1.3278912 -1.3165388 1.5219222 234 88 12
-1.3276874 -1.3268621 1.5403641 234 88 12
-1.4048944 -1.4053341 1.8240771 234 88 12
0.063978776 -1.4777197 2.2910075 234 88 12
0.064243279 -1.4777275 2.2909949 234 88 12
0.064274348 -1.4774556 2.2901168 234 88 12
0.06418591 -1.4774719 2.2901087 234 88 12
0.025371773 -1.3970995 2.0181026 234 88 12
0.032748926 -1.3967788 2.0181026 234 88 12
0.066078477 -1.4611077 2.2359805 234 88 12
0.021233261 -1.3990539 2.0169587 234 88 12
0.058563709 -1.4618075 2.2357402 234 88 12
0.033130068 -1.4198767 2.08127 234 88 12
0.016117876 -1.4028252 2.0146711 234 88 12
0.031551011 -1.4206223 2.0808337 234 88 12
0.12210476 -1.1964695 1.2919085 234 88 12
0.12966715 -1.1961408 1.2919085 234 88 12
0.035126198 -1.402886 2.0140994 234 88 12
-0.00066029927 -1.2271465 1.3703091 234 88 12
0.0028179318 -1.2269952 1.3703091 234 88 12
0.095774531 -1.2007977 1.2898566 234 88 12
0.099555731 -1.2006333 1.2898566 234 88 12
0.10711812 -1.2003044 1.2898566 234 88 12
0.066911258 -1.4641953 2.2417419 234 88 12
0.13358648 -1.1991537 1.2898566 234 88 12
0.14114887 -1.1988249 1.2898566 234 88 12
0.15249246 -1.1983316 1.2898566 234 88 12
0.042868823 -1.4214844 2.0799608 234 88 12
-0.00050254707 -1.2159374 1.3164077 234 88 12
0.0064232359 -1.2297667 1.3684216 234 88 12
0.080787897 -1.2046325 1.2878047 234 88 12
0.1526306 -1.2015089 1.2878047 234 88 12
0.0063694203 -1.2319188 1.3636286 234 88 12
0.069582455 -1.208303 1.2857528 234 88 12
0.16411233 -1.204193 1.2857528 234 88 12
0.013110247 -1.4065049 2.0123835 234 88 12
0.038403343 -1.4054052 2.0123835 234 88 12
0.023401476 -1.2822379 1.5438355 234 88 12
0.037215341 -1.2566441 1.4492588 234 88 12
0.048187573 -1.2750443 1.5206921 234 88 12
0.053790715 -1.2711313 1.5068065 234 88 12
0.062158205 -1.211809 1.2837008 234 88 12
0.065939397 -1.2116446 1.2837008 234 88 12
0.16425046 -1.2073702 1.2837008 234 88 12
0.17181286 -1.2070414 1.2837008 234 88 12
0.026872611 -1.424211 2.0786514 234 88 12
0.032502137 -1.4239663 2.0786514 234 88 12
0.043711241 -1.4060616 2.0118117 234 88 12
0.017296731 -1.2936846 1.5761504 234 88 12
0.020696485 -1.2847191 1.5423119 234 88 12
0.033156037 -1.306658 1.628583 234 88 12
0.045399126 -1.2776021 1.5191215 234 88 12
0.050952192 -1.2737349 1.5052078 234 88 12
0.060573302 -1.4053285 2.0118117 234 88 12
0.064187117 -1.4649758 2.2413149 234 88 12
0.071042918 -1.3923204 1.9636389 234 88 12
0.075978175 -1.3921058 1.9636389 234 88 12
0.085848689 -1.3916767 1.9636389 234 88 12
0.171951 -1.2102187 1.2816489 234 88 12
0.042986348 -1.4241874 2.0782151 234 88 12
0.014713516 -1.2960541 1.5746955 234 88 12
0.02275702 -1.2957044 1.5746955 234 88 12
0.023606617 -1.2869561 1.5407883 234 88 12
0.033246834 -1.3087463 1.6272342 234 88 12
0.039260264 -1.3153356 1.6538994 234 88 12
0.042904042 -1.3060206 1.6182591 234 88 12
0.051569927 -1.34417 1.7682147 234 88 12
0.054429889 -1.3553444 1.8121933 234 88 12
0.047309708 -1.218821 1.2795969 234 88 12
0.085893765 -1.3927133 1.9629694 234 88 12
0.018041955 -1.4047463 1.9940616 234 88 12
0.017492637 -1.2981905 1.5732404 234 88 12
0.022854973 -1.2979573 1.5732404 234 88 12
0.030082768 -1.3190575 1.6577938 234 88 12
0.032449387 -1.3189546 1.6577938 234 88 12
0.039580595 -1.3446894 1.7606293 234 88 12
0.044743493 -1.3522455 1.7913501 234 88 12
0.059100088 -1.4241639 2.0777786 234 88 12
0.043666653 -1.2221627 1.277545 234 88 12
0.06373018 -1.3947157 1.9622998 234 88 12
0.18357086 -1.21608 1.277545 234 88 12
0.010102619 -1.4101845 2.0100958 234 88 12
0.021429684 -1.4055383 1.9934561 234 88 12
0.025990643 -1.3325047 1.7016839 234 88 12
0.034655567 -1.3507371 1.7762305 234 88 12
0.043748062 -1.3586094 1.8093499 234 88 12
0.049046621 -1.3575885 1.8061831 234 88 12
0.040023603 -1.2255044 1.275493 234 88 12
0.043980625 -1.3706568 1.8512293 234 88 12
0.036380548 -1.2288461 1.2734411 234 88 12
0.097133324 -1.3953408 1.9609607 234 88 12
0.18384714 -1.2224345 1.2734411 234 88 12
0.023802646 -1.4277297 2.0764694 234 88 12
0.03667013 -1.4271703 2.0764694 234 88 12
0.043103874 -1.4268905 2.0764694 234 88 12
0.035206657 -1.3557038 1.7813815 234 88 12
0.040402561 -1.370561 1.8436047 234 88 12
0.049938705 -1.3963816 1.9518348 234 88 12
0.056775577 -1.4262961 2.0764694 234 88 12
0.032737494 -1.2321877 1.2713892 234 88 12
0.029094441 -1.2355294 1.2693373 234 88 12
0.19546701 -1.2282958 1.2693373 234 88 12
0.0070949914 -1.4138643 2.0078082 234 88 12
0.011551812 -1.4097247 1.9910344 234 88 12
0.021592721 -1.4092882 1.9910344 234 88 12
0.057786487 -1.4001677 1.9589521 234 88 12
0.065189376 -1.3998458 1.9589521 234 88 12
0.075059891 -1.3994167 1.9589521 234 88 12
0.086164221 -1.3989339 1.9589521 234 88 12
0.097268552 -1.3984511 1.9589521 234 88 12
0.19560516 -1.2314731 1.2672853 234 88 12
0.010476915 -1.4107107 1.9904289 234 88 12
0.042965379 -1.4131919 2.0072365 234 88 12
0.025589529 -1.2420483 1.2652334 234 88 12
0.065182656 -1.4051532 1.976707 234 88 12
0.075677499 -1.4046968 1.976707 234 88 12
-0.0049248142 -1.3942105 1.9104396 234 88 12
0.021946475 -1.2453899 1.2631814 234 88 12
0.06289307 -1.4062344 1.9760741 234 88 12
0.19966264 -1.2376631 1.2631814 234 88 12
0.20344383 -1.2374988 1.2631814 234 88 12
0.02073268 -1.4312484 2.0742872 234 88 12
0.018303422 -1.2487316 1.2611295 234 88 12
0.062292613 -1.4667135 2.240248 234 88 12
0.056687903 -1.4033315 1.9569434 234 88 12
0.064519212 -1.4710565 2.260016 234 88 12
0.08625754 -1.4062003 1.9754413 234 88 12
0.10727429 -1.4011321 1.9569434 234 88 12
0.0083678802 -1.41362 1.9886127 234 88 12
0.01171485 -1.4134746 1.9886127 234 88 12
-0.057182334 -1.2551968 1.2590775 234 88 12
0.064150967 -1.471177 2.2599487 234 88 12
0.091279782 -1.4028662 1.9562738 234 88 12
0.097448856 -1.402598 1.9562738 234 88 12
0.20750131 -1.2436888 1.2590775 234 88 12
0.021796517 -1.4139755 1.9880072 234 88 12
0.011017315 -1.2554148 1.2570256 234 88 12
0.10736445 -1.4032056 1.9556043 234 88 12
0.071949244 -1.4667903 2.2399278 234 88 12
0.21533997 -1.2497146 1.2549738 234 88 12
-0.052986715 -1.2645642 1.2529218 234 88 12
0.0075124032 -1.2619338 1.2529218 234 88 12
0.095526174 -1.4126176 1.9866507 234 88 12
0.21925932 -1.2527274 1.2529218 234 88 12
0.020075368 -1.4346622 2.0721052 234 88 12
8.8155051e-05 -1.2654399 1.2508699 234 88 12
0.042668048 -1.2730173 1.2963934 234 88 12
0.096965387 -1.4106432 1.9722774 234 88 12
0.21939746 -1.2559047 1.2508699 234 88 12
-0.010192469 -1.4027302 1.9050955 234 88 12
-0.047604136 -1.2799865 1.2944311 234 88 12
-0.048929237 -1.2707543 1.2488179 234 88 12
-0.0035548983 -1.2687815 1.2488179 234 88 12
0.053256914 -1.4097129 1.952926 234 88 12
0.039183989 -1.276213 1.2944311 234 88 12
0.05736082 -1.4133468 1.9716445 234 88 12
0.098956287 -1.4143478 1.9854393 234 88 12
0.020809852 -1.4025667 1.9043319 234 88 12
0.041848011 -1.4350697 2.0712323 234 88 12
0.043456446 -1.4349997 2.0712323 234 88 12
-0.010979147 -1.2722876 1.246766 234 88 12
0.23101732 -1.261766 1.246766 234 88 12
0.003303 -1.4237885 2.0015173 234 88 12
-0.04372374 -1.2859064 1.2905062 234 88 12
-0.040107567 -1.2857492 1.2905062 234 88 12
-0.041090563 -1.27678 1.244714 234 88 12
-0.02218459 -1.2759581 1.244714 234 88 12
-0.018403394 -1.2757937 1.244714 234 88 12
0.028599698 -1.2827619 1.2905062 234 88 12
0.086598359 -1.414039 1.970379 234 88 12
0.097093195 -1.4135827 1.970379 234 88 12
0.19132744 -1.2756867 1.2905062 234 88 12
0.11873923 -1.4089433 1.951587 234 88 12
0.23493667 -1.2647789 1.244714 234 88 12
0.0033415023 -1.4246742 2.0009453 234 88 12
-0.13037975 -1.2927184 1.2885439 234 88 12
0.022319509 -1.4048698 1.9028051 234 88 12
0.017883295 -1.2862722 1.2885439 234 88 12
0.021499468 -1.2861149 1.2885439 234 88 12
0.032347985 -1.2856432 1.2885439 234 88 12
0.05632253 -1.416337 1.9697461 234 88 12
0.087807052 -1.4149681 1.9697461 234 88 12
0.097135797 -1.4145626 1.9697461 234 88 12
0.238856 -1.2677916 1.2426621 234 88 12
-0.13024764 -1.2957569 1.2865815 234 88 12
-0.028994827 -1.2913547 1.2865815 234 88 12
0.042332888 -1.4143428 1.9502479 234 88 12
0.0035507206 -1.2899396 1.2865815 234 88 12
0.10804889 -1.4177111 1.9830164 234 88 12
0.20967253 -1.2809778 1.2865815 234 88 12
0.074967772 -1.466502 2.2322543 234 88 12
-0.028862715 -1.2943933 1.2846191 234 88 12
-0.018014198 -1.2939216 1.2846191 234 88 12
-0.0071656825 -1.2934499 1.2846191 234 88 12
6.6661196e-05 -1.2931355 1.2846191 234 88 12
0.010915177 -1.2926638 1.2846191 234 88 12
0.021763692 -1.2921921 1.2846191 234 88 12
0.032612208 -1.2917205 1.2846191 234 88 12
0.21703698 -1.283702 1.2846191 234 88 12
0.075197361 -1.4666784 2.2321341 234 88 12
-0.13359958 -1.3019913 1.2826568 234 88 12
0.0043536047 -1.4241261 1.9819529 234 88 12
0.011047544 -1.4238352 1.9819529 234 88 12
-0.021498257 -1.2971175 1.2826568 234 88 12
-0.017882086 -1.2969602 1.2826568 234 88 12
-0.010649742 -1.2966458 1.2826568 234 88 12
0.00019877376 -1.296174 1.2826568 234 88 12
0.01104729 -1.2957023 1.2826568 234 88 12
0.10775844 -1.4170458 1.9678477 234 88 12
0.22440143 -1.2864261 1.2826568 234 88 12
0.022244869 -1.4242874 1.9813474 234 88 12
0.032373123 -1.4091703 1.8997512 234 88 12
0.022027917 -1.2982693 1.2806944 234 88 12
0.052994657 -1.4204085 1.9672149 234 88 12
0.22814971 -1.2893075 1.2806944 234 88 12
0.12143224 -1.4140197 1.9482392 234 88 12
-0.13695154 -1.3082258 1.2787321 234 88 12
0.04789998 -1.4096795 1.8989878 234 88 12
0.0033602258 -1.4269871 1.9801366 234 88 12
0.011169821 -1.4266475 1.9801366 234 88 12
0.022326387 -1.4261624 1.9801366 234 88 12
0.10936897 -1.4223522 1.9799877 234 88 12
0.021272434 -1.4132061 1.8974608 234 88 12
0.022679294 -1.4131449 1.8974608 234 88 12
0.048027247 -1.4259843 1.9795312 234 88 12
0.23216222 -1.2982661 1.2748072 234 88 12
-0.13655519 -1.3173416 1.2728449 234 88 12
0.032578714 -1.4138989 1.8966974 234 88 12
0.051851131 -1.432577 2.0138664 234 88 12
0.053834967 -1.4324908 2.0138664 234 88 12
0.11168289 -1.4241309 1.9787763 234 88 12
0.23229434 -1.3013046 1.2728449 234 88 12
0.062115673 -1.4730439 2.2588022 234 88 12
0.064352408 -1.4729466 2.2588022 234 88 12
0.017269833 -1.4442627 2.0659952 234 88 12
-0.14922565 -1.3164974 1.2221428 234 88 12
0.041455586 -1.4290876 1.9777149 234 88 12
0.098727912 -1.4243102 1.9634181 234 88 12
0.10805666 -1.4239047 1.9634181 234 88 12
0.23255856 -1.3073817 1.2689201 234 88 12
0.00060338981 -1.4345527 1.9946544 234 88 12
-0.13977502 -1.3266145 1.2669578 234 88 12
-0.028220296 -1.3378913 1.3698637 234 88 12
0.027105466 -1.41769 1.894407 234 88 12
0.044024505 -1.4354225 2.0122516 234 88 12
0.053943682 -1.4349912 2.0122516 234 88 12
0.017328596 -1.4456143 2.0651224 234 88 12
-0.13964292 -1.3296531 1.2649953 234 88 12
0.042076908 -1.4363422 2.0117133 234 88 12
-0.13951081 -1.3326917 1.2630329 234 88 12
0.026517425 -1.425233 1.927156 234 88 12
0.02433626 -1.4155132 1.861817 234 88 12
0.2329549 -1.3164976 1.2630329 234 88 12
0.25955781 -1.308274 1.215987 234 88 12
0.022520825 -1.4245192 1.9130495 234 88 12
0.028341914 -1.4304793 1.9553216 234 88 12
0.037483089 -1.4386628 2.0137029 234 88 12
0.23308702 -1.3195362 1.2610706 234 88 12
0.12311681 -1.4243336 1.9415437 234 88 12
-0.13924658 -1.338769 1.2591082 234 88 12
0.0026114022 -1.4354727 1.9746877 234 88 12
0.011536654 -1.4350846 1.9746877 234 88 12
0.021577563 -1.434648 1.9746877 234 88 12
0.021235971 -1.4256978 1.9123257 234 88 12
0.046430793 -1.4559798 2.130589 234 88 12
0.042979334 -1.450666 2.0925813 234 88 12
0.053449024 -1.46393 2.1880133 234 88 12
0.040237002 -1.4447495 2.050597 234 88 12
-0.13911447 -1.3418075 1.2571458 234 88 12
0.047917508 -1.4589409 2.1483874 234 88 12
0.045395032 -1.4551429 2.1205845 234 88 12
0.051880918 -1.462696 2.1763299 234 88 12
0.00083440315 -1.4398659 1.991223 234 88 12
0.10602268 -1.4308649 1.9589885 234 88 12
0.10718878 -1.4308143 1.9589885 234 88 12
0.11884971 -1.4303073 1.9589885 234 88 12
0.061753739 -1.4337714 1.9583557 234 88 12
0.065252021 -1.4336193 1.9583557 234 88 12
0.23723164 -1.3315333 1.253221 234 88 12
0.031419478 -1.442651 2.0079453 234 88 12
0.059464153 -1.4348526 1.9577229 234 88 12
0.060786918 -1.4366803 1.9721135 234 88 12
0.065294623 -1.4345992 1.9577229 234 88 12
0.06529244 -1.4374241 1.9715078 234 88 12
0.12462109 -1.4305004 1.9375263 234 88 12
0.12955634 -1.4302858 1.9375263 234 88 12
0.10852528 -1.434683 1.9564573 234 88 12
0.028552441 -1.4452809 2.0063305 234 88 12
0.11789662 -1.4352572 1.9558245 234 88 12
1.1566287 0.11963212 2.1419992 234 88 12
1.156086 0.12406588 2.1419992 234 88 12
1.1555433 0.12849963 2.1419992 234 88 12
1.1591035 0.10755955 2.1414821 234 88 12
1.1565257 0.12861988 2.1414821 234 88 12
1.155169 0.13970427 2.1414821 234 88 12
1.1603574 0.10546292 2.140965 234 88 12
1.1600859 0.10767981 2.140965 234 88 12
1.1587292 0.11876418 2.140965 234 88 12
1.1575081 0.12874013 2.140965 234 88 12
1.1561514 0.13982451 2.140965 234 88 12
1.1660038 0.11242971 2.1559083 234 88 12
1.1652348 0.11871208 2.1559083 234 88 12
1.1639533 0.12918268 2.1559083 234 88 12
1.1626717 0.13965328 2.1559083 234 88 12
1.1567268 0.14327008 2.1404479 234 88 12
1.1559129 0.1499207 2.1404479 234 88 12
1.1673163 0.10940212 2.1554198 234 88 12
1.1568953 0.15004095 2.1399307 234 88 12
1.1885601 0.12155481 2.217643 234 88 12
1.1882668 0.12395186 2.217643 234 88 12
1.167219 0.11789219 2.1549313 234 88 12
1.1883881 0.12883262 2.2172704 234 88 12
1.1870189 0.14001884 2.2172704 234 88 12
1.1641742 0.15046465 2.1544428 234 88 12
1.1882161 0.13611044 2.2168975 234 88 12
1.1584859 0.16148609 2.1383793 234 88 12
1.175714 0.11439872 2.1691158 234 88 12
1.1752316 0.11834072 2.1691158 234 88 12
1.1885331 0.13939318 2.2165248 234 88 12
1.1647487 0.16116244 2.1534657 234 88 12
1.1677769 0.10187092 2.1373451 234 88 12
1.172341 0.10682889 2.1529775 234 88 12
1.1670864 0.14975837 2.1529775 234 88 12
1.1669582 0.15080543 2.1529775 234 88 12
1.1924922 0.11879216 2.2157793 234 88 12
1.1777022 0.11264154 2.1681962 234 88 12
1.1912209 0.12917934 2.2157793 234 88 12
1.1899494 0.13956654 2.2157793 234 88 12
1.188678 0.14995372 2.2157793 234 88 12
1.160212 0.17182277 2.1368279 234 88 12
1.1778519 0.11866146 2.1677365 234 88 12
1.1883105 0.15882957 2.2154064 234 88 12
1.1675327 0.16150321 2.1520004 234 88 12
1.175125 0.10716966 2.1515119 234 88 12
1.1683326 0.16266386 2.1515119 234 88 12
1.1671791 0.1720874 2.1515119 234 88 12
1.1895312 0.16060096 2.2146609 234 88 12
1.1779091 0.10751043 2.1500463 234 88 12
1.181013 0.12905101 2.1654377 234 88 12
1.2405833 0.14698839 2.3691666 234 88 12
1.2539275 0.15377457 2.4167092 234 88 12
1.1910926 0.17133488 2.2131698 234 88 12
1.1483353 0.15403302 2.0577896 234 88 12
1.1668504 0.18276072 2.1326909 234 88 12
1.167833 0.18288095 2.1321738 234 88 12
1.1783124 0.10541053 2.1316566 234 88 12
1.1994762 0.12045798 2.2120516 234 88 12
1.1833006 0.13933367 2.1635985 234 88 12
1.1514974 0.14874527 2.0564854 234 88 12
1.2408215 0.15078504 2.3688021 234 88 12
0.99999529 0.10598897 1.4828212 234 88 12
0.99955553 0.10958175 1.4828212 234 88 12
1.1550015 0.14066198 2.0551813 234 88 12
1.1538039 0.1504463 2.0551813 234 88 12
1.1753061 0.18264686 2.1466269 234 88 12
1.181124 0.10687971 2.1301055 234 88 12
1.1890574 0.1140314 2.1622193 234 88 12
1.1562405 0.14081362 2.0545292 234 88 12
1.1714913 0.18557884 2.1301055 234 88 12
1.2418671 0.14655066 2.3685286 234 88 12
1.0068038 0.10317572 1.4794689 234 88 12
1.1562817 0.15074956 2.0538771 234 88 12
1.0095483 0.10715826 1.4777929 234 88 12
1.008229 0.11793659 1.4777929 234 88 12
1.1991051 0.15285197 2.2101877 234 88 12
1.1780901 0.18298763 2.1451616 234 88 12
1.1839356 0.1083489 2.1285541 234 88 12
1.0136122 0.10036247 1.4761168 234 88 12
1.0127326 0.10754802 1.4761168 234 88 12
1.0114135 0.11832635 1.4761168 234 88 12
1.24198 0.14993539 2.3682551 234 88 12
1.0172362 0.09715946 1.4744406 234 88 12
1.1559503 0.16687074 2.0436847 234 88 12
1.189589 0.11212829 2.1436961 234 88 12
1.0191014 0.10832755 1.4727645 234 88 12
1.0177821 0.11910588 1.4727645 234 88 12
1.0391222 0.14520454 1.5690541 234 88 12
1.1573918 0.16559671 2.0430179 234 88 12
1.140429 0.17098024 1.979031 234 88 12
1.0240448 0.094346203 1.4710883 234 88 12
1.1095277 0.15470806 1.8411793 234 88 12
1.1444216 0.16755216 1.9864957 234 88 12
1.0157654 0.14114283 1.4460064 234 88 12
1.0440532 0.15235965 1.5660428 234 88 12
1.1384228 0.15823165 1.9508638 234 88 12
1.1458757 0.16773015 1.9857303 234 88 12
1.1782327 0.18752901 2.1264856 234 88 12
1.1956831 0.11784319 2.1585412 234 88 12
1.0270697 0.036106765 1.4242955 234 88 12
1.0308532 0.091532953 1.467736 234 88 12
1.0299736 0.098718502 1.467736 234 88 12
1.0286545 0.10949683 1.467736 234 88 12
1.0190282 0.1415422 1.444289 234 88 12
1.1315109 0.14922285 1.9105362 234 88 12
1.1383233 0.15128389 1.9395776 234 88 12
1.1492143 0.15803578 1.9877442 234 88 12
1.2004204 0.1773425 2.2079511 234 88 12
1.0308591 0.032757584 1.4225429 234 88 12
1.0294796 0.044027776 1.4225429 234 88 12
1.0340375 0.091922715 1.4660599 234 88 12
1.0331581 0.099108264 1.4660599 234 88 12
1.0318388 0.10988659 1.4660599 234 88 12
1.0305195 0.12066492 1.4660599 234 88 12
1.0261618 0.14213546 1.458836 234 88 12
1.1329787 0.15135285 1.9096397 234 88 12
1.1369095 0.16791213 1.9345202 234 88 12
1.1364621 0.17156772 1.9345202 234 88 12
1.0323846 0.131833 1.4643837 234 88 12
1.1679447 0.14792101 2.0480082 234 88 12
1.2225435 0.15200599 2.2818277 234 88 12
1.1262074 0.15347551 1.8737754 234 88 12
1.1983737 0.1544392 2.1805236 234 88 12
1.1691272 0.15759411 2.0580506 234 88 12
1.1633101 0.15930709 2.0342543 234 88 12
1.1448703 0.16218391 1.9574974 234 88 12
1.1465654 0.16542837 1.9663759 234 88 12
1.1949009 0.11490395 2.1407652 234 88 12
1.040846 0.089109465 1.4627076 234 88 12
1.0395267 0.099887788 1.4627076 234 88 12
1.0386472 0.10707334 1.4627076 234 88 12
1.1536831 0.14873451 1.9808517 234 88 12
1.1213768 0.14936571 1.8418475 234 88 12
1.1211113 0.15153503 1.8418475 234 88 12
1.1991708 0.15453675 2.180104 234 88 12
1.1464109 0.16237247 1.9566865 234 88 12
1.0778298 0.17352514 1.6667835 234 88 12
1.1602632 0.16572715 2.0182025 234 88 12
1.199177 0.11827084 2.1567023 234 88 12
1.0413079 0.030223498 1.4172851 234 88 12
1.0408481 0.033980228 1.4172851 234 88 12
1.1915264 0.11939087 2.1237597 234 88 12
1.0394686 0.045250423 1.4172851 234 88 12
1.0405123 0.11824143 1.4610314 234 88 12
1.039193 0.12901975 1.4610314 234 88 12
1.1951964 0.15079235 2.1567023 234 88 12
1.1770061 0.15122984 2.0771825 234 88 12
1.1754161 0.15380028 2.0715911 234 88 12
1.1781417 0.15754832 2.0855525 234 88 12
1.1626441 0.15984099 2.0188348 234 88 12
1.151812 0.162237 1.9726275 234 88 12
1.1574441 0.16332865 1.997907 234 88 12
1.0414189 0.056928162 1.4155325 234 88 12
1.1837521 0.15390952 2.1029718 234 88 12
1.2111242 0.12512761 2.2057145 234 88 12
1.0512785 0.083093196 1.4576792 234 88 12
1.0508387 0.08668597 1.4576792 234 88 12
1.0495195 0.097464301 1.4576792 234 88 12
1.1872344 0.15287736 2.1128023 234 88 12
1.1578139 0.16232742 1.9846596 234 88 12
1.0512969 0.031446144 1.4120272 234 88 12
1.0480782 0.057743259 1.4120272 234 88 12
1.0471586 0.065256722 1.4120272 234 88 12
1.0557821 0.072704636 1.4560031 234 88 12
1.0513846 0.10863239 1.4560031 234 88 12
1.0500653 0.11941072 1.4560031 234 88 12
1.0474268 0.14096737 1.4560031 234 88 12
1.1846637 0.15537797 2.0970685 234 88 12
1.1787726 0.15682499 2.0707157 234 88 12
1.1883445 0.15867098 2.1159034 234 88 12
1.1577963 0.16263962 1.9772562 234 88 12
1.0514078 0.058150809 1.4102746 234 88 12
1.0504882 0.065664269 1.4102746 234 88 12
1.0589665 0.07309439 1.454327 234 88 12
1.0585268 0.076687172 1.454327 234 88 12
1.0572075 0.087465495 1.454327 234 88 12
1.0558882 0.098243825 1.454327 234 88 12
1.0545689 0.10902215 1.454327 234 88 12
1.0532497 0.11980048 1.454327 234 88 12
1.0519304 0.1305788 1.454327 234 88 12
1.0506111 0.14135712 1.454327 234 88 12
1.1941065 0.15527587 2.1356826 234 88 12
1.1662629 0.16214213 2.0089686 234 88 12
1.0397675 0.2032114 1.4389693 234 88 12
1.0393207 0.20686133 1.4389693 234 88 12
1.2060858 0.17803594 2.2049689 234 88 12
1.0579562 0.032261241 1.4085219 234 88 12
1.0617111 0.077076934 1.4526508 234 88 12
1.0603918 0.087855257 1.4526508 234 88 12
1.1776398 0.15727125 2.053175 234 88 12
1.1291089 0.17478926 1.8316435 234 88 12
1.100884 0.18476637 1.7026805 234 88 12
1.0538504 0.20440175 1.4895376 234 88 12
1.0525814 0.21476892 1.4895376 234 88 12
1.2011408 0.11779319 2.1373458 234 88 12
1.061286 0.032668788 1.4067693 234 88 12
1.0557681 0.077749558 1.4067693 234 88 12
1.0622569 0.09902335 1.4509747 234 88 12
1.0530092 0.10028994 1.4067693 234 88 12
1.0520896 0.1078034 1.4067693 234 88 12
1.0507101 0.1190736 1.4067693 234 88 12
1.0493306 0.13034379 1.4067693 234 88 12
1.0488708 0.13410053 1.4067693 234 88 12
1.0479511 0.14161399 1.4067693 234 88 12
1.0556606 0.15291499 1.4509747 234 88 12
1.1485925 0.16830109 1.9119308 234 88 12
1.1313126 0.17284159 1.8306242 234 88 12
1.1035711 0.18239154 1.7014377 234 88 12
1.0571418 0.19800389 1.4850065 234 88 12
1.0401342 0.20547841 1.4067693 234 88 12
1.2422242 0.15684961 2.3603187 234 88 12
1.0373752 0.22801879 1.4067693 234 88 12
1.0604773 0.066886917 1.4050167 234 88 12
1.0581781 0.085670568 1.4050167 234 88 12
1.0512807 0.14202154 1.4050167 234 88 12
1.0499014 0.15329173 1.4050167 234 88 12
1.0489817 0.16080518 1.4050167 234 88 12
1.0448433 0.19461577 1.4050167 234 88 12
1.1995254 0.11924435 2.1196208 234 88 12
1.1989824 0.1236802 2.1196208 234 88 12
1.0624274 0.078564659 1.403264 234 88 12
1.0615078 0.086078115 1.403264 234 88 12
1.0601283 0.09734831 1.403264 234 88 12
1.0523113 0.16121273 1.403264 234 88 12
1.0509319 0.17248292 1.403264 234 88 12
1.0495524 0.18375312 1.403264 234 88 12
1.0490927 0.18750985 1.403264 234 88 12
1.1992866 0.12934533 2.1191034 234 88 12
1.0662169 0.075215474 1.4015114 234 88 12
1.0648375 0.086485669 1.4015114 234 88 12
1.063458 0.097755857 1.4015114 234 88 12
1.0620785 0.10902605 1.4015114 234 88 12
1.060699 0.12029625 1.4015114 234 88 12
1.0597794 0.1278097 1.4015114 234 88 12
1.0593196 0.13156644 1.4015114 234 88 12
1.0579401 0.14283663 1.4015114 234 88 12
1.0570204 0.15035009 1.4015114 234 88 12
1.0556411 0.16162029 1.4015114 234 88 12
1.0542616 0.17289047 1.4015114 234 88 12
1.1955945 0.1861929 2.1358805 234 88 12
1.0626493 0.13197398 1.3997588 234 88 12
1.0617296 0.13948745 1.3997588 234 88 12
1.0724164 0.079787299 1.3980062 234 88 12
1.0714967 0.087300763 1.3980062 234 88 12
1.1230984 0.10249639 1.6687863 234 88 12
1.073447 0.098978505 1.3962536 234 88 12
1.1214116 0.11627793 1.6687863 234 88 12
1.1210742 0.11903424 1.6687863 234 88 12
1.2487611 0.15265946 2.3860199 234 88 12
1.1245292 0.11106433 1.6675004 234 88 12
1.2120378 0.12184551 2.1498058 234 88 12
1.1939667 0.10996383 2.0369225 234 88 12
1.2468407 0.14755601 2.3658855 234 88 12
1.2160982 0.17845047 2.1997504 234 88 12
1.1992644 0.10777486 2.0343142 234 88 12
1.2103372 0.12056772 2.1139297 234 88 12
1.205003 0.18628174 2.1309955 234 88 12
1.2006743 0.10652874 2.0336621 234 88 12
1.2005032 0.1079265 2.0336621 234 88 12
1.1079012 0.038374469 1.3822325 234 88 12
1.1112309 0.038782015 1.3804799 234 88 12
1.11835 0.035840381 1.3769747 234 88 12
1.2083802 0.13981757 2.0788519 234 88 12
1.1254692 0.032898746 1.3734694 234 88 12
1.2505462 0.14987056 2.3852713 234 88 12
1.210217 0.1338214 2.07828 234 88 12
1.2096168 0.13872471 2.07828 234 88 12
1.2081164 0.15098304 2.07828 234 88 12
1.1292586 0.029549565 1.3717167 234 88 12
1.2105532 0.14008354 2.077708 234 88 12
1.2102017 0.1006014 2.0290973 234 88 12
1.1330482 0.026200382 1.3699641 234 88 12
1.2132902 0.12673238 2.0771363 234 88 12
1.2104393 0.15002318 2.0771363 234 88 12
1.2148267 0.12318786 2.0765643 234 88 12
1.2140765 0.12931702 2.0765643 234 88 12
1.2127262 0.14034951 2.0765643 234 88 12
1.2115258 0.15015616 2.0765643 234 88 12
1.2101755 0.16118865 2.0765643 234 88 12
1.1098192 0.27120298 1.3664589 234 88 12
1.2188364 0.11745766 2.0748487 234 88 12
1.2170804 0.095768549 2.0258369 234 88 12
1.2199953 0.13462768 2.0932336 234 88 12
1.2214595 0.11404613 2.073705 234 88 12
1.2208593 0.11894946 2.073705 234 88 12
1.2220148 0.12664354 2.0926931 234 88 12
1.2217311 0.12896064 2.0926931 234 88 12
1.2204548 0.13938758 2.0926931 234 88 12
1.2203131 0.14054611 2.0926931 234 88 12
1.2473084 0.16059899 2.357444 234 88 12
1.2211392 0.093427934 2.0238807 234 88 12
1.2225491 0.092181817 2.0232286 234 88 12
1.2205178 0.14876837 2.0719893 234 88 12
1.2273984 0.11671934 2.0905311 234 88 12
1.2214543 0.15012719 2.0714173 234 88 12
1.2243128 0.15044293 2.0899906 234 88 12
1.2211903 0.16129266 2.0708454 234 88 12
1.2290286 0.10626321 2.0702736 234 88 12
1.2315017 0.10407752 2.0691297 234 88 12
1.2322148 0.11142933 2.0883691 234 88 12
1.2313639 0.11838062 2.0883691 234 88 12
1.2526634 0.14799945 2.3842921 234 88 12
1.2320765 0.08625447 2.0186639 234 88 12
1.2344103 0.11052215 2.0872881 234 88 12
1.2334176 0.118632 2.0872881 234 88 12
1.2321414 0.12905893 2.0872881 234 88 12
1.231007 0.13832733 2.0872881 234 88 12
1.2308651 0.13948587 2.0872881 234 88 12
1.2295889 0.1499128 2.0872881 234 88 12
1.231892 0.13961156 2.0867476 234 88 12
1.2316426 0.15016419 2.0862072 234 88 12
1.1630938 0.27772376 1.3384168 234 88 12
1.2359642 0.085311621 2.0167077 234 88 12
1.2386208 0.099972092 2.0656984 234 88 12
1.2318689 0.15513453 2.0656984 234 88 12
1.2311187 0.16126369 2.0656984 234 88 12
1.2401117 0.10651638 2.0845857 234 88 12
1.2322052 0.16139667 2.0651267 234 88 12
1.2525529 0.15525383 2.383889 234 88 12
1.2420301 0.099145211 2.0639827 234 88 12
1.2423072 0.1056092 2.0835047 234 88 12
1.2420236 0.1079263 2.0835047 234 88 12
1.2437395 0.083425917 2.012795 234 88 12
1.2428011 0.11860461 2.0824237 234 88 12
1.1868612 0.27681985 1.3261484 234 88 12
1.2449784 0.083577558 2.0121429 234 88 12
1.2425516 0.12915723 2.0818832 234 88 12
1.2423022 0.13970986 2.0813427 234 88 12
1.2420528 0.15026249 2.0808022 234 88 12
1.2423974 0.15020223 2.0605514 234 88 12
1.2517072 0.16024394 2.3551855 234 88 12
1.2006397 0.27469334 1.3191379 234 88 12
1.2436339 0.14910938 2.0599797 234 88 12
1.2421335 0.1613677 2.0599797 234 88 12
0.1131994 1.1740878 2.1700354 234 88 12
0.10630089 1.1749321 2.1700354 234 88 12
0.11834072 1.1752316 2.1691158 234 88 12
0.10950974 1.1658449 2.1378622 234 88 12
0.10618442 1.1662519 2.1378622 234 88 12
0.10852154 1.166963 2.1373451 234 88 12
0.10630467 1.1672343 2.1373451 234 88 12
0.10563613 1.1776731 2.1686561 234 88 12
0.12468137 1.1780016 2.1672769 234 88 12
0.11897849 1.1696717 2.1352766 234 88 12
0.1459268 1.2400101 2.3695312 234 88 12
0.09582153 1.1735032 2.1347594 234 88 12
0.1289441 1.1801395 2.1658974 234 88 12
0.12170929 1.196448 2.2135427 234 88 12
0.15645526 1.2449646 2.387748 234 88 12
0.11700188 1.1977429 2.2131698 234 88 12
0.094085649 1.1777042 2.1326909 234 88 12
0.1793443 1.1464946 2.0571375 234 88 12
0.12966458 1.174307 2.1320376 234 88 12
0.11797426 1.1990614 2.2124243 234 88 12
0.11717524 1.1991593 2.2124243 234 88 12
0.096422777 1.1784153 2.1321738 234 88 12
0.17110939 1.14876 2.0564854 234 88 12
0.18793216 1.1655283 2.1180966 234 88 12
0.18943188 1.1477748 2.0558333 234 88 12
0.12853481 1.1992065 2.2116787 234 88 12
0.1845822 1.1669806 2.1175561 234 88 12
0.18110657 1.167406 2.1175561 234 88 12
0.18259472 1.1498691 2.0551813 234 88 12
0.18119696 1.1500401 2.0551813 234 88 12
0.1700149 1.1514088 2.0551813 234 88 12
0.1395475 1.1850476 2.1626792 234 88 12
0.1266986 1.1776628 2.1304855 234 88 12
0.14338249 1.2419033 2.368711 234 88 12
0.19513483 1.1667311 2.1170156 234 88 12
0.19281773 1.1670148 2.1170156 234 88 12
0.1416254 1.1856798 2.1622193 234 88 12
0.13901752 1.1771528 2.1299682 234 88 12
0.13458166 1.1776956 2.1299682 234 88 12
0.12792787 1.1785101 2.1299682 234 88 12
0.010305994 1.0031912 1.4383166 234 88 12
-0.00096419797 1.0045707 1.4383166 234 88 12
0.094686888 1.1826164 2.1301055 234 88 12
0.16053386 1.1550841 2.0538771 234 88 12
0.14135575 1.1778641 2.1294508 234 88 12
0.014470274 1.0060611 1.436564 234 88 12
0.010713543 1.006521 1.436564 234 88 12
0.11272098 1.1857488 2.1456501 234 88 12
-0.015583573 1.0097396 1.436564 234 88 12
0.15890813 1.2455528 2.3872871 234 88 12
0.16068551 1.156323 2.053225 234 88 12
0.15928775 1.156494 2.053225 234 88 12
0.022391284 1.0084711 1.4348114 234 88 12
0.10655221 1.1874458 2.1451616 234 88 12
0.17118236 1.1727896 2.1153941 234 88 12
0.152686 1.1784725 2.1284161 234 88 12
0.026555562 1.011341 1.4330587 234 88 12
0.1066658 1.1883738 2.1446731 234 88 12
0.14993539 1.24198 2.3682551 234 88 12
0.11410882 1.1884047 2.1441846 234 88 12
0.14856058 1.1615794 2.0512686 234 88 12
0.034884121 1.0170807 1.4295535 234 88 12
0.031127391 1.0175405 1.4295535 234 88 12
-0.028980304 1.0248976 1.4295535 234 88 12
0.11852424 1.1897482 2.1432076 234 88 12
-0.032329485 1.0286871 1.4278009 234 88 12
0.092083067 1.188918 2.1270027 234 88 12
0.16473381 1.1777478 2.1132321 234 88 12
0.13907956 1.1652546 2.0499644 234 88 12
0.17412789 1.1776402 2.1126916 234 88 12
0.18771192 1.1727437 2.0942929 234 88 12
0.18158278 1.1734939 2.0942929 234 88 12
0.23562105 1.0060288 1.4225429 234 88 12
0.23186432 1.0064887 1.4225429 234 88 12
0.14497386 1.167048 2.0486603 234 88 12
0.070366062 1.036676 1.4660599 234 88 12
0.044027776 1.0294796 1.4225429 234 88 12
0.040271048 1.0299395 1.4225429 234 88 12
0.19059893 1.1777086 2.1116104 234 88 12
0.22100167 1.0111978 1.4207903 234 88 12
0.15630756 1.1669182 2.0480082 234 88 12
-0.038212754 1.0429254 1.4207903 234 88 12
0.11199667 1.2098562 2.2072055 234 88 12
0.2046272 1.1770338 2.1110699 234 88 12
0.19883446 1.1777428 2.1110699 234 88 12
0.27776018 1.0076301 1.4190377 234 88 12
0.19288123 1.1743164 2.0931489 234 88 12
0.21389577 1.015447 1.4190377 234 88 12
0.074738361 1.0426049 1.4627076 234 88 12
0.12118631 1.194132 2.1407652 234 88 12
0.11699807 1.1946446 2.1407652 234 88 12
0.10652746 1.1959262 2.1407652 234 88 12
-0.047416009 1.0575566 1.4627076 234 88 12
0.20475289 1.1780607 2.1105294 234 88 12
0.17462674 1.1776536 2.0925772 234 88 12
0.20678985 1.0196964 1.4172851 234 88 12
0.20303312 1.0201561 1.4172851 234 88 12
0.15956949 1.1835911 2.1105294 234 88 12
0.082313672 1.0449098 1.4610314 234 88 12
0.049007151 1.0390089 1.4172851 234 88 12
0.041493692 1.0399284 1.4172851 234 88 12
-0.047026247 1.0607409 1.4610314 234 88 12
0.28608873 1.0133698 1.4155325 234 88 12
0.18334053 1.1776897 2.0920053 234 88 12
0.17108223 1.1791902 2.0920053 234 88 12
0.08988899 1.0472146 1.4593554 234 88 12
-0.040746838 1.0533742 1.4155325 234 88 12
0.19633475 1.0277351 1.4137799 234 88 12
0.19257802 1.028195 1.4137799 234 88 12
0.18728369 1.0385257 1.4576792 234 88 12
0.10105707 1.0490798 1.4576792 234 88 12
0.097464301 1.0495195 1.4576792 234 88 12
0.093871526 1.0499593 1.4576792 234 88 12
0.083093196 1.0512785 1.4576792 234 88 12
0.13631383 1.2097549 2.2057145 234 88 12
0.05357898 1.0452083 1.4137799 234 88 12
0.10372705 1.1990948 2.1392999 234 88 12
0.20512995 1.1811413 2.1089079 234 88 12
0.20281285 1.1814249 2.1089079 234 88 12
0.19831648 1.1780622 2.0908616 234 88 12
0.19298556 1.0315247 1.4120272 234 88 12
0.18922883 1.0319844 1.4120272 234 88 12
0.1804879 1.0425895 1.4560031 234 88 12
0.158788 1.1868135 2.1089079 234 88 12
0.14951961 1.1879479 2.1089079 234 88 12
0.14604396 1.1883733 2.1089079 234 88 12
0.12659627 1.0491859 1.4560031 234 88 12
0.11581794 1.050505 1.4560031 234 88 12
0.053986531 1.048538 1.4120272 234 88 12
0.050229799 1.0489979 1.4120272 234 88 12
0.046473067 1.0494577 1.4120272 234 88 12
0.11117007 1.1991256 2.1388113 234 88 12
-0.049449738 1.0707337 1.4560031 234 88 12
0.1783662 1.0366936 1.4102746 234 88 12
0.17369211 1.0466534 1.454327 234 88 12
0.17009933 1.0470932 1.454327 234 88 12
0.15932101 1.0484124 1.454327 234 88 12
0.15213546 1.0492918 1.454327 234 88 12
0.14854269 1.0497316 1.454327 234 88 12
0.13776435 1.0510509 1.454327 234 88 12
0.12698603 1.0523702 1.454327 234 88 12
0.1162077 1.0536895 1.454327 234 88 12
0.10542937 1.0550086 1.454327 234 88 12
0.094651043 1.0563279 1.454327 234 88 12
0.083872721 1.0576472 1.454327 234 88 12
0.1372862 1.2110735 2.2049689 234 88 12
0.054394078 1.0518677 1.4102746 234 88 12
0.11966014 1.1990284 2.1383228 234 88 12
0.11171774 1.2142031 2.2049689 234 88 12
-0.049059976 1.0739181 1.454327 234 88 12
0.08996024 1.1991494 2.1218314 234 88 12
0.18628721 1.0391036 1.4085219 234 88 12
0.17877375 1.0400232 1.4085219 234 88 12
0.17126028 1.0409429 1.4085219 234 88 12
0.16689631 1.0507172 1.4526508 234 88 12
0.091448031 1.059952 1.4526508 234 88 12
0.084262483 1.0608315 1.4526508 234 88 12
0.11698722 1.0600581 1.4509747 234 88 12
0.1062089 1.0613774 1.4509747 234 88 12
-0.042465828 1.0704824 1.4067693 234 88 12
0.293423 1.0416945 1.4492985 234 88 12
0.15704845 1.0494415 1.4050167 234 88 12
0.14252642 1.0601642 1.4492985 234 88 12
0.13893364 1.060604 1.4492985 234 88 12
0.12815531 1.0619233 1.4492985 234 88 12
0.059373453 1.0613968 1.4050167 234 88 12
0.051859993 1.0623165 1.4050167 234 88 12
0.30021179 1.035298 1.403264 234 88 12
0.17623965 1.050472 1.403264 234 88 12
0.16872619 1.0513917 1.403264 234 88 12
0.20156606 1.184281 2.0874302 234 88 12
0.19175941 1.1854813 2.0874302 234 88 12
0.18195274 1.1866816 2.0874302 234 88 12
0.17092027 1.188032 2.0874302 234 88 12
0.16846859 1.1883321 2.0874302 234 88 12
0.17289047 1.0542616 1.4015114 234 88 12
0.16913374 1.0547214 1.4015114 234 88 12
0.15786356 1.0561008 1.4015114 234 88 12
0.14659336 1.0574803 1.4015114 234 88 12
0.15050384 1.2130497 2.2031052 234 88 12
0.10737818 1.0709305 1.4459462 234 88 12
0.10378541 1.0713701 1.4459462 234 88 12
0.09300708 1.0726894 1.4459462 234 88 12
0.060188551 1.0680562 1.4015114 234 88 12
0.052675087 1.0689758 1.4015114 234 88 12
0.090561487 1.2040615 2.1192458 234 88 12
0.20600975 1.1883291 2.1051245 234 88 12
0.20253409 1.1887546 2.1051245 234 88 12
0.17718241 1.1883682 2.0868583 234 88 12
0.16002077 1.1904688 2.0868583 234 88 12
0.15451437 1.0598903 1.3997588 234 88 12
0.14700091 1.06081 1.3997588 234 88 12
0.13573071 1.0621895 1.3997588 234 88 12
0.14899249 1.2139534 2.2027326 234 88 12
0.1293246 1.0714762 1.4442701 234 88 12
0.12573183 1.071916 1.4442701 234 88 12
0.1149535 1.0732353 1.4442701 234 88 12
0.10417517 1.0745546 1.4442701 234 88 12
0.093396842 1.0758737 1.4442701 234 88 12
0.060596097 1.0713859 1.3997588 234 88 12
0.053082637 1.0723054 1.3997588 234 88 12
0.18589622 1.1884044 2.0862863 234 88 12
0.16994885 1.0613807 1.3980062 234 88 12
0.29896456 1.0571766 1.4409178 234 88 12
0.19461001 1.1884407 2.0857146 234 88 12
0.10136192 1.081363 1.4409178 234 88 12
0.094176367 1.0822425 1.4409178 234 88 12
0.29935434 1.0603609 1.4392416 234 88 12
0.14822355 1.070799 1.394501 234 88 12
0.13695335 1.0721784 1.394501 234 88 12
0.12568317 1.0735579 1.394501 234 88 12
0.11971556 1.0823486 1.4392416 234 88 12
0.11612278 1.0827883 1.4392416 234 88 12
0.14842367 1.2408872 2.3387618 234 88 12
0.058062013 1.0818347 1.394501 234 88 12
0.1007883 1.2098157 2.1339264 234 88 12
0.11169885 1.2206745 2.2016141 234 88 12
0.30265707 1.0552759 1.3927484 234 88 12
0.15990129 1.0727491 1.3927484 234 88 12
0.11916184 1.0980378 1.5077389 234 88 12
0.11582579 1.0984462 1.5077389 234 88 12
0.14111918 1.2252018 2.2432084 234 88 12
0.10823131 1.2098466 2.1334379 234 88 12
0.30013385 1.0667295 1.4358894 234 88 12
0.30306461 1.0586057 1.3909956 234 88 12
0.16030884 1.0760788 1.3909956 234 88 12
0.14903866 1.0774583 1.3909956 234 88 12
0.13776846 1.0788378 1.3909956 234 88 12
0.12649827 1.0802172 1.3909956 234 88 12
0.12329815 1.1410493 1.7404232 234 88 12
0.1091378 1.1009116 1.4983526 234 88 12
0.092687689 1.0843556 1.3909956 234 88 12
0.05887711 1.0884939 1.3909956 234 88 12
0.091282979 1.209956 2.1161432 234 88 12
0.30052361 1.069914 1.4342133 234 88 12
0.30347216 1.0619353 1.389243 234 88 12
0.14193274 1.0817076 1.389243 234 88 12
0.13817601 1.0821674 1.389243 234 88 12
0.12690581 1.0835469 1.389243 234 88 12
0.13997118 1.1869833 2.0093043 234 88 12
0.121872 1.1259809 1.6361078 234 88 12
0.12424941 1.1457831 1.7547252 234 88 12
0.1006087 1.0867656 1.389243 234 88 12
0.14540066 1.2306366 2.2709277 234 88 12
0.14938426 1.2445482 2.3559308 234 88 12
0.078068316 1.0895245 1.389243 234 88 12
0.074311584 1.0899844 1.389243 234 88 12
0.13044676 1.2090113 2.1324611 234 88 12
0.055527929 1.0922835 1.389243 234 88 12
0.1241644 1.2097803 2.1324611 234 88 12
0.30091339 1.0730983 1.4325372 234 88 12
0.2973206 1.0735381 1.4325372 234 88 12
0.15361048 1.0836577 1.3874904 234 88 12
0.14833453 1.1354169 1.6957102 234 88 12
0.14544858 1.1319505 1.6726776 234 88 12
0.10852971 1.0891756 1.3874904 234 88 12
0.13998389 1.2087859 2.1319726 234 88 12
0.1475317 1.2358449 2.3007123 234 88 12
0.14491725 1.2311836 2.2706747 234 88 12
0.074719131 1.0933141 1.3874904 234 88 12
0.11718814 1.1838748 1.9649303 234 88 12
0.12951329 1.2100675 2.1319726 234 88 12
0.12968279 1.2141732 2.1568551 234 88 12
0.1277698 1.2144073 2.1568551 234 88 12
0.16108464 1.1991607 2.0822833 234 88 12
0.15985881 1.1993107 2.0822833 234 88 12
0.15205884 1.1778357 1.9440707 234 88 12
0.15171699 1.2379361 2.3141537 234 88 12
0.11269399 1.0920454 1.3857378 234 88 12
0.12243634 1.1415775 1.6983035 234 88 12
0.1505724 1.2461432 2.363863 234 88 12
0.1531875 1.2322247 2.276958 234 88 12
0.14909427 1.2032946 2.0915611 234 88 12
0.14494306 1.2000518 2.0679321 234 88 12
0.142885 1.1959021 2.0402048 234 88 12
0.15317814 1.2528247 2.4067178 234 88 12
0.12920251 1.1671926 1.848804 234 88 12
0.11763591 1.1360844 1.6439238 234 88 12
0.13905448 1.2104356 2.1288035 234 88 12
0.14728667 1.2391572 2.3160789 234 88 12
0.13595635 1.2198443 2.185684 234 88 12
0.12452985 1.2025499 2.0679297 234 88 12
0.10932098 1.1820556 1.9271016 234 88 12
0.057485133 1.125347 1.5299063 234 88 12
0.20379095 1.199023 2.0997195 234 88 12
0.2026324 1.1991647 2.0997195 234 88 12
0.2984899 1.0830911 1.4275087 234 88 12
0.30134562 1.0757138 1.3822325 234 88 12
0.17973807 1.199083 2.0811393 234 88 12
0.15227644 1.2429296 2.3419642 234 88 12
0.14349428 1.2189789 2.1807373 234 88 12
0.13667847 1.19968 2.0510306 234 88 12
0.14963654 1.2429142 2.3397832 234 88 12
0.13905245 1.2192242 2.1788156 234 88 12
0.13312593 1.2103472 2.1169522 234 88 12
0.12716238 1.2057854 2.0828607 234 88 12
0.12321003 1.2035289 2.0652065 234 88 12
0.11102694 1.1889626 1.9617566 234 88 12
0.20287167 1.2022585 2.112895 234 88 12
0.30175316 1.0790434 1.3804799 234 88 12
0.18845189 1.1991192 2.0805676 234 88 12
0.15195045 1.228159 2.2425385 234 88 12
0.15318425 1.2522821 2.4025462 234 88 12
0.15340146 1.2538044 2.4127557 234 88 12
0.13410543 1.1921154 1.9905536 234 88 12
0.13574111 1.2055709 2.0805676 234 88 12
0.13002704 1.2096195 2.1026437 234 88 12
0.12888102 1.2097597 2.1026437 234 88 12
0.12173393 1.2019871 2.0456426 234 88 12
0.10652115 1.1862224 1.9294528 234 88 12
0.12473235 1.2144204 2.1300185 234 88 12
0.10002837 1.1853471 1.9184446 234 88 12
0.11740293 1.2153176 2.1300185 234 88 12
0.10693233 1.2165992 2.1300185 234 88 12
0.07732746 1.205506 2.03301 234 88 12
0.30216071 1.0823731 1.3787273 234 88 12
0.1971657 1.1991553 2.0799956 234 88 12
0.14935826 1.205007 2.0799956 234 88 12
0.14122462 1.2026197 2.0571702 234 88 12
0.12655108 1.1906475 1.9642699 234 88 12
0.13964266 1.227091 2.2209821 234 88 12
0.12912819 1.208706 2.0882473 234 88 12
0.12793215 1.2088524 2.0882473 234 88 12
0.12541527 1.2109597 2.1003866 234 88 12
0.11384989 1.202335 2.0326412 234 88 12
0.10966856 1.2009753 2.0200131 234 88 12
0.084677704 1.1732885 1.8125583 234 88 12
0.13884909 1.2379788 2.2937918 234 88 12
0.20416801 1.2021035 2.098098 234 88 12
0.20300946 1.2022454 2.098098 234 88 12
0.2960664 1.0930839 1.4224803 234 88 12
0.14131756 1.2219644 2.1821814 234 88 12
0.12419267 1.2118362 2.0977097 234 88 12
0.1298974 1.2216043 2.1700339 234 88 12
0.097452141 1.1792376 1.84983 234 88 12
0.11064517 1.1992277 1.9991243 234 88 12
0.2992191 1.0894922 1.375222 234 88 12
0.12218357 1.214996 2.1104112 234 88 12
0.10177217 1.1915737 1.9268837 234 88 12
0.29962665 1.092822 1.3734694 234 88 12
0.14261277 1.2214419 2.167567 234 88 12
0.13774094 1.2212635 2.1619446 234 88 12
0.13072419 1.21176 2.086729 234 88 12
0.12337954 1.210485 2.0709481 234 88 12
0.11805801 1.2069993 2.0409198 234 88 12
0.11669803 1.2071658 2.0409198 234 88 12
0.11641546 1.20867 2.0515873 234 88 12
0.10610968 1.1980975 1.9656897 234 88 12
0.10633963 1.2204394 2.1280646 234 88 12
0.077934004 1.2104614 2.0304017 234 88 12
0.3000342 1.0961516 1.3717167 234 88 12
0.1623307 1.231899 2.2569072 234 88 12
0.15449512 1.2376049 2.2922487 234 88 12
0.14199091 1.2020485 2.0161266 234 88 12
0.14327407 1.2132324 2.1005628 234 88 12
0.14643475 1.2313727 2.2385027 234 88 12
0.12669736 1.2021996 2.0033138 234 88 12
0.12851062 1.2109582 2.0701773 234 88 12
0.12554784 1.210543 2.0643861 234 88 12
0.095072538 1.1864361 1.8571302 234 88 12
0.1120752 1.2097639 2.0463068 234 88 12
0.11378264 1.2204703 2.1275761 234 88 12
0.09149728 1.2208985 2.1104548 234 88 12
0.30044174 1.0994812 1.3699641 234 88 12
0.15154305 1.2456152 2.3473439 234 88 12
0.14236018 1.2185624 2.1320391 234 88 12
0.13578218 1.2101928 2.061933 234 88 12
0.11018123 1.1988772 1.9515238 234 88 12
0.10681635 1.1969932 1.9339811 234 88 12
0.10233761 1.198441 1.9408545 234 88 12
0.091258153 1.188717 1.8561894 234 88 12
0.1201786 1.2206295 2.1270876 234 88 12
0.29442242 1.1094453 1.4140996 234 88 12
0.29709256 1.1032708 1.3682115 234 88 12
0.19918942 1.2055242 2.0765643 234 88 12
0.19183443 1.2064245 2.0765643 234 88 12
0.15263598 1.2427974 2.3243346 234 88 12
0.14454824 1.2145953 2.0952644 234 88 12
0.13762268 1.2155168 2.0958436 234 88 12
0.12398387 1.1991314 1.9541665 234 88 12
0.11763135 1.2003999 1.958019 234 88 12
0.11903824 1.2050085 1.9955343 234 88 12
0.1128075 1.2034422 1.9772594 234 88 12
0.11379808 1.2311995 2.1960227 234 88 12
0.20272514 1.2102574 2.1087561 234 88 12
0.14991277 1.2328197 2.2385621 234 88 12
0.13359559 1.2099619 2.0381444 234 88 12
0.11509852 1.203055 1.9641954 234 88 12
0.10719348 1.2000744 1.9323592 234 88 12
0.10613655 1.2010591 1.9392557 234 88 12
0.10091304 1.199595 1.9222951 234 88 12
0.11567014 1.21787 2.0842202 234 88 12
0.090749584 1.2239814 2.1089034 234 88 12
0.2004136 1.2098587 2.0943146 234 88 12
0.14306107 1.2189101 2.1111591 234 88 12
0.12658554 1.1994462 1.9330552 234 88 12
0.12361543 1.2038707 1.9667256 234 88 12
0.12212709 1.2069116 1.9904284 234 88 12
0.10985435 1.1945934 1.8758389 234 88 12
0.10438564 1.1930647 1.857613 234 88 12
0.075620681 1.1686399 1.6259042 234 88 12
0.10134386 1.1993186 1.9063804 234 88 12
0.073752612 1.1761901 1.6866107 234 88 12
0.19100755 1.209834 2.0748487 234 88 12
0.14666195 1.2315713 2.213999 234 88 12
0.11879804 1.1970028 1.8899676 234 88 12
0.11691493 1.1972333 1.8899676 234 88 12
0.10898168 1.1948541 1.8613849 234 88 12
0.11519259 1.209837 1.9957014 234 88 12
0.10154215 1.2009387 1.9055277 234 88 12
0.074035801 1.1785039 1.6853929 234 88 12
0.10195017 1.2070595 1.9581759 234 88 12
0.10575099 1.213569 2.0176833 234 88 12
0.29872274 1.1165894 1.361201 234 88 12
0.19972137 1.2098701 2.0742767 234 88 12
0.12953936 1.2000725 1.9127265 234 88 12
0.13017455 1.2054286 1.9604664 234 88 12
0.10909411 1.1902138 1.8041246 234 88 12
0.078897931 1.1568809 1.4787985 234 88 12
0.10493708 1.1940123 1.8330261 234 88 12
0.060176264 1.1526481 1.4214783 234 88 12
0.093169242 1.1939181 1.8195447 234 88 12
0.11334579 1.23413 2.1945317 234 88 12
0.29913029 1.1199191 1.3594483 234 88 12
0.11065798 1.1867939 1.7560796 234 88 12
0.0792602 1.1598406 1.4772406 234 88 12
0.088268287 1.1788933 1.6597327 234 88 12
0.085575588 1.1792229 1.6597327 234 88 12
0.10230613 1.2099677 1.9566451 234 88 12
0.096314453 1.2097278 1.9478323 234 88 12
0.16157044 1.2479373 2.3644273 234 88 12
0.07929872 1.2216111 2.0245328 234 88 12
0.29994538 1.1265783 1.3559431 234 88 12
0.14706936 1.2176412 2.0534561 234 88 12
0.10340088 1.2311604 2.1226914 234 88 12
0.15161604 1.1890893 1.7398186 234 88 12
0.093928449 1.2315695 2.1047666 234 88 12
0.30116802 1.1365674 1.3506852 234 88 12
0.19949235 1.2206293 2.1035824 234 88 12
0.30198312 1.1432266 1.34718 234 88 12
0.20063759 1.2212957 2.0883691 234 88 12
0.30239069 1.1465564 1.3454274 234 88 12
0.20105121 1.220735 2.068558 234 88 12
0.20088896 1.2233495 2.0872881 234 88 12
0.10210188 1.2379129 2.119272 234 88 12
0.11270125 1.2421156 2.1904311 234 88 12
0.30361333 1.1565453 1.3401694 234 88 12
0.097107321 1.2391577 2.1006296 234 88 12
0.30859271 1.1660745 1.3349116 234 88 12
0.20294197 1.2260172 2.0656984 234 88 12
0.30900025 1.1694041 1.333159 234 88 12
0.10685808 1.2420405 2.1168294 234 88 12
0.098576501 1.2419692 2.0990782 234 88 12
0.10801873 1.2428403 2.1163409 234 88 12
0.1181021 1.2464861 2.1878219 234 88 12
0.10214232 1.2435271 2.0980439 234 88 12
0.31022289 1.1793932 1.3279011 234 88 12
0.2034739 1.2303631 2.063411 234 88 12
0.31063044 1.1827228 1.3261484 234 88 12
0.20360689 1.2314497 2.062839 234 88 12
0.10804525 1.2457961 2.0964925 234 88 12
0.11905728 1.2461989 2.1138985 234 88 12
0.14865401 1.253916 2.383601 234 88 12
0.30809635 1.1931716 1.3208905 234 88 12
0.14745627 1.2530744 2.355288 234 88 12
0.20291299 1.2359456 2.0605514 234 88 12
0.16222453 1.2514648 2.3551855 234 88 12
0.15122126 1.2528116 2.3551855 234 88 12
0.14968081 1.2530001 2.3551855 234 88 12
0.12975506 1.2467734 2.1129215 234 88 12
0.13300446 1.2489748 2.1855853 234 88 12
0.11949039 1.2473866 2.0949411 234 88 12
0.20033145 1.2380089 2.0797212 234 88 12
0.13807689 1.2449843 2.0599797 234 88 12
0.14108127 1.248705 2.1852126 234 88 12
0.15141028 1.2539119 2.3834281 234 88 12
0.14556487 1.2451705 2.0594077 234 88 12
-1.2317876 1.2297063 1.6894567 234 88 12
-1.2299323 1.2327943 1.6886529 234 88 12
-1.2422227 1.2203252 1.6886529 234 88 12
-1.2313545 1.2325571 1.6878492 234 88 12
-1.2420061 1.2217506 1.6878492 234 88 12
-1.2263912 1.242415 1.6846341 234 88 12
-1.3278749 1.3105065 1.9481137 234 88 12
-1.3274564 1.3113165 1.9478568 234 88 12
-1.2525636 1.2206848 1.6814189 234 88 12
-1.2533829 1.2198535 1.6814189 234 88 12
-1.2253083 1.2495419 1.6806152 234 88 12
-1.2531663 1.2212789 1.6806152 234 88 12
-1.2295229 1.2370486 1.6615541 234 88 12
-1.2312568 1.2352896 1.6615541 234 88 12
-1.2254778 1.2529868 1.6782038 234 88 12
-1.2255969 1.2435832 1.6598532 234 88 12
-1.2253677 1.2450913 1.6590028 234 88 12
-1.2288355 1.2415731 1.6590028 234 88 12
-1.2314363 1.2389345 1.6590028 234 88 12
-1.2392387 1.2310187 1.6590028 234 88 12
-1.2511467 1.2202132 1.6581523 234 88 12
-1.2517844 1.2208419 1.6573019 234 88 12
-1.2526513 1.2199624 1.6573019 234 88 12
-1.2316157 1.2425795 1.6564515 234 88 12
-1.2420189 1.232025 1.6564515 234 88 12
-1.2532891 1.2205909 1.6564515 234 88 12
-1.2227172 1.2528831 1.655601 234 88 12
-1.2259865 1.2633214 1.6709698 234 88 12
-1.2644962 1.224252 1.6709698 234 88 12
-1.0889544 1.0228651 0.97635901 234 88 12
-1.2255533 1.2661722 1.6693623 234 88 12
-1.2466332 1.2099859 1.605319 234 88 12
-1.2476218 1.2089829 1.605319 234 88 12
-1.2657017 1.2254401 1.6693623 234 88 12
-1.0981771 1.021327 0.97114635 234 88 12
-1.2315161 1.2528857 1.6496478 234 88 12
-1.2419194 1.2423311 1.6496478 234 88 12
-1.2208837 1.2649484 1.6487974 234 88 12
-1.2206545 1.2664565 1.6479468 234 88 12
-1.2241223 1.2629384 1.6479468 234 88 12
-1.2319248 1.2550225 1.6479468 234 88 12
-1.2345256 1.2523838 1.6479468 234 88 12
-1.2423279 1.244468 1.6479468 234 88 12
-1.2449288 1.2418294 1.6479468 234 88 12
-1.2527312 1.2339135 1.6479468 234 88 12
-1.2587998 1.2277567 1.6479468 234 88 12
-1.2195584 1.2688442 1.6470964 234 88 12
-1.2427008 1.2617592 1.6787908 234 88 12
-1.2532349 1.210561 1.6004704 234 88 12
-1.2646393 1.2231081 1.6470964 234 88 12
-1.2242537 1.2747245 1.6645397 234 88 12
-1.2385721 1.267102 1.6780214 234 88 12
-1.102636 1.0363505 0.95811468 234 88 12
-1.1132634 1.0255686 0.95811468 234 88 12
-1.2422862 1.2644879 1.6772521 234 88 12
-1.2532662 1.2533482 1.6772521 234 88 12
-1.2548348 1.2517569 1.6772521 234 88 12
-1.1045904 1.038277 0.95550835 234 88 12
-1.3210907 1.3076082 1.9194005 234 88 12
-1.106545 1.0402036 0.95290202 234 88 12
-1.2742347 1.233229 1.6764827 234 88 12
-1.2186418 1.2748768 1.6436946 234 88 12
-1.2340287 1.2751735 1.6757133 234 88 12
-1.0447351 1.1068214 0.95029569 234 88 12
-1.1084995 1.04213 0.95029569 234 88 12
-1.1217837 1.0286527 0.95029569 234 88 12
-1.0413759 1.114139 0.94768935 234 88 12
-1.0493463 1.1060525 0.94768935 234 88 12
-1.0546601 1.1006615 0.94768935 234 88 12
-1.2636242 1.2463018 1.6749439 234 88 12
-1.2706828 1.2391406 1.6749439 234 88 12
-1.2207842 1.2752546 1.6419938 234 88 12
-1.0619283 1.0971971 0.94508302 234 88 12
-1.2556211 1.2168676 1.5946519 234 88 12
-1.2756094 1.2286505 1.6605208 234 88 12
-1.065722 1.1190624 0.9877373 234 88 12
-1.0708038 1.1139067 0.9877373 234 88 12
-1.0733447 1.1113288 0.9877373 234 88 12
-1.1303041 1.0317366 0.94247669 234 88 12
-1.0445825 1.1226139 0.93987036 234 88 12
-1.0498962 1.1172229 0.93987036 234 88 12
-1.071151 1.0956591 0.93987036 234 88 12
-1.0764648 1.0902681 0.93987036 234 88 12
-1.2257984 1.2828026 1.6581095 234 88 12
-1.046537 1.1245404 0.93726403 234 88 12
-1.0669194 1.1253251 0.98275214 234 88 12
-1.0694604 1.1227472 0.98275214 234 88 12
-1.0720013 1.1201694 0.98275214 234 88 12
-1.0796239 1.1124359 0.98275214 234 88 12
-1.0821649 1.109858 0.98275214 234 88 12
-1.083733 1.0868037 0.93726403 234 88 12
-1.2817229 1.2487189 1.7061205 234 88 12
-1.13687 1.0328941 0.93726403 234 88 12
-1.0713296 1.1245897 0.9802596 234 88 12
-1.0814933 1.1142783 0.9802596 234 88 12
-1.0941978 1.1013892 0.9802596 234 88 12
-1.3276705 1.3057441 1.9252026 234 88 12
-1.2634724 1.2147202 1.5907731 234 88 12
-1.2253652 1.2856534 1.656502 234 88 12
-1.2196382 1.2827954 1.6377414 234 88 12
-1.2205052 1.2819159 1.6377414 234 88 12
-1.050446 1.1283934 0.93205136 234 88 12
-1.093526 1.1058093 0.97776699 234 88 12
-1.0929557 1.0852658 0.93205136 234 88 12
-1.3248081 1.3056688 1.918179 234 88 12
-1.2741445 1.2425528 1.6703277 234 88 12
-1.1221811 1.0556155 0.93205136 234 88 12
-1.2869302 1.245487 1.704753 234 88 12
-1.2851245 1.2314131 1.6703277 234 88 12
-1.23237 1.2860886 1.6695583 234 88 12
-1.0524005 1.13032 0.92944503 234 88 12
-1.1030179 1.0999182 0.97527438 234 88 12
-1.097567 1.0844969 0.92944503 234 88 12
-1.1028807 1.0791059 0.92944503 234 88 12
-1.2700158 1.2478956 1.6695583 234 88 12
-1.2747215 1.2431214 1.6695583 234 88 12
-1.1241355 1.0575421 0.92944503 234 88 12
-1.1453904 1.0359782 0.92944503 234 88 12
-1.2825644 1.2351645 1.6695583 234 88 12
-1.2849172 1.2327775 1.6695583 234 88 12
-1.2872701 1.2303904 1.6695583 234 88 12
-1.218313 1.2866913 1.6360406 234 88 12
-1.0743964 1.1326947 0.97278184 234 88 12
-1.082019 1.1249613 0.97278184 234 88 12
-1.0845599 1.1223834 0.97278184 234 88 12
-1.0921826 1.1146499 0.97278184 234 88 12
-1.0947235 1.1120721 0.97278184 234 88 12
-1.1048871 1.1017607 0.97278184 234 88 12
-1.2617 1.2208822 1.5878639 234 88 12
1.3186785 -1.338086 1.9766328 234 88 12
1.2247417 -1.267341 1.709381 234 88 12
1.2292492 -1.262898 1.709381 234 88 12
1.2315031 -1.2606765 1.709381 234 88 12
1.3186237 -1.3382101 1.9765854 234 88 12
1.2198054 -1.2743546 1.7079282 234 88 12
1.2210935 -1.2741588 1.7072017 234 88 12
1.2184935 -1.2672279 1.6912374 234 88 12
1.2208794 -1.2648761 1.6912374 234 88 12
1.2232654 -1.2625244 1.6912374 234 88 12
1.2132678 -1.2746525 1.6896994 234 88 12
1.23156 -1.2566224 1.6896994 234 88 12
1.2422374 -1.2565399 1.7050225 234 88 12
1.2142261 -1.285224 1.704296 234 88 12
1.2503558 -1.2886006 1.7683918 234 88 12
1.2526491 -1.2863402 1.7683918 234 88 12
1.2120806 -1.2905607 1.7021167 234 88 12
1.2089522 -1.2845912 1.6858544 234 88 12
1.243886 -1.2957972 1.7678375 234 88 12
1.255352 -1.2844956 1.7678375 234 88 12
1.2443852 -1.2587188 1.7021167 234 88 12
1.20793 -1.2867357 1.6850854 234 88 12
1.210089 -1.2857445 1.6843164 234 88 12
1.2419014 -1.254388 1.6843164 234 88 12
1.2433953 -1.2987396 1.7661746 234 88 12
1.2468351 -1.2953491 1.7661746 234 88 12
1.2525681 -1.2896982 1.7661746 234 88 12
1.2577279 -1.2846125 1.7661746 234 88 12
1.2634608 -1.2789617 1.7661746 234 88 12
1.2097207 -1.2971828 1.699211 234 88 12
1.210472 -1.2964423 1.699211 234 88 12
1.2462195 -1.2524056 1.6827784 234 88 12
1.2538315 -1.2547781 1.6984847 234 88 12
1.2417581 -1.3028121 1.7645116 234 88 12
1.204978 -1.2964671 1.6804713 234 88 12
1.2065686 -1.2948993 1.6804713 234 88 12
1.2097498 -1.2917637 1.6804713 234 88 12
1.2719793 -1.2738435 1.7639571 234 88 12
1.2599499 -1.2519693 1.6963053 234 88 12
1.2406942 -1.3063196 1.7628485 234 88 12
1.2525699 -1.2954336 1.7622942 234 88 12
1.2634625 -1.2846971 1.7622942 234 88 12
1.2766484 -1.2717001 1.7622942 234 88 12
1.242087 -1.3065859 1.7617399 234 88 12
1.1979541 -1.2685287 1.5985309 234 88 12
1.2087574 -1.3067243 1.6933997 234 88 12
1.1996738 -1.2682673 1.5975612 234 88 12
1.2081144 -1.3105801 1.6912204 234 88 12
1.2039582 -1.306568 1.6743193 234 88 12
1.1998183 -1.272426 1.5946519 234 88 12
1.2009658 -1.2755961 1.5917428 234 88 12
1.3065034 -1.3237598 1.9183317 234 88 12
1.2104225 -1.2691424 1.5898033 234 88 12
1.2075797 -1.3175511 1.6868618 234 88 12
1.2025969 -1.3147316 1.6697053 234 88 12
1.303141 -1.330637 1.9249316 234 88 12
1.3059397 -1.3247669 1.9180264 234 88 12
1.2402879 -1.3173745 1.7556422 234 88 12
1.2414345 -1.3162444 1.7556422 234 88 12
1.2420077 -1.3156792 1.7556422 234 88 12
1.2365983 -1.2977132 1.7033856 234 88 12
1.0218477 -1.183655 0.97278184 234 88 12
1.2401338 -1.2942283 1.7033856 234 88 12
1.2592067 -1.2987268 1.7556422 234 88 12
1.2626464 -1.2953362 1.7556422 234 88 12
1.2637931 -1.2942061 1.7556422 234 88 12
1.306971 1.3109192 1.5881026 234 88 12
1.3053918 1.3124985 1.5881026 234 88 12
1.3025212 1.3175242 1.5864699 234 88 12
1.320667 1.3227732 1.6163944 234 88 12
1.3151925 1.3080858 1.5840209 234 88 12
1.3174129 1.3279436 1.6149428 234 88 12
1.3167107 1.3286457 1.6149428 234 88 12
1.3033479 1.3199303 1.5840209 234 88 12
1.3170598 1.3083738 1.5823882 234 88 12
1.340304 1.3408732 1.6600831 234 88 12
1.3380272 1.34315 1.6600831 234 88 12
1.2986473 1.3278638 1.5815718 234 88 12
1.3277537 1.3214351 1.6120396 234 88 12
1.3427885 1.3399425 1.6589061 234 88 12
1.3376656 1.3450652 1.6589061 234 88 12
1.3336812 1.3490497 1.6589061 234 88 12
1.3125645 1.3385406 1.610588 234 88 12
1.2952751 1.3355465 1.5783064 234 88 12
1.3201034 1.3223411 1.5932897 234 88 12
1.3163738 1.3260707 1.5932897 234 88 12
1.314882 1.3275625 1.5932897 234 88 12
1.2947735 1.3382033 1.5766737 234 88 12
1.3179008 1.3275976 1.5909764 234 88 12
1.2966408 1.3384913 1.5750411 234 88 12
1.3284311 1.3597374 1.6547869 234 88 12
1.3355753 1.3222363 1.6055074 234 88 12
1.3278697 1.3196646 1.589434 234 88 12
1.3092219 1.3383124 1.589434 234 88 12
1.2953495 1.3419378 1.5734084 234 88 12
1.3274736 1.3108913 1.572592 234 88 12
1.34913 1.340592 1.65361 234 88 12
1.3280123 1.3114301 1.5717757 234 88 12
1.3273195 1.3631794 1.6530216 234 88 12
1.3055274 1.3450606 1.5871207 234 88 12
1.3381935 1.3234504 1.6026042 234 88 12
1.3960075 1.3944767 1.8112358 234 88 12
1.2919773 1.3496205 1.570143 234 88 12
1.3040707 1.3495712 1.5848073 234 88 12
1.334416 1.3202438 1.5840361 234 88 12
1.3224815 1.3321784 1.5840361 234 88 12
1.3165143 1.3381456 1.5840361 234 88 12
1.3157684 1.3388915 1.5840361 234 88 12
1.3053256 1.3493342 1.5840361 234 88 12
1.3170233 1.3386546 1.5832649 234 88 12
1.3065805 1.3490973 1.5832649 234 88 12
1.3549025 1.3418107 1.6483139 234 88 12
1.328719 1.3679942 1.6483139 234 88 12
1.3270115 1.3697019 1.6483139 234 88 12
1.3268306 1.3706594 1.6477255 234 88 12
1.1422403 1.0967443 0.84874189 234 88 12
1.3277882 1.3704786 1.6471369 234 88 12
1.1494188 1.093218 0.84597516 234 88 12
1.293668 1.3576283 1.5627959 234 88 12
1.2912991 1.3599972 1.5627959 234 88 12
1.1539212 1.0923679 0.84320837 234 88 12
1.1432164 1.1030728 0.84320837 234 88 12
1.3462714 1.3259118 1.5946203 234 88 12
1.3349808 1.3183906 1.5610201 234 88 12
1.3395039 1.3150252 1.560347 234 88 12
1.1602497 1.0933439 0.83767486 234 88 12
1.1495448 1.1040488 0.83767486 234 88 12
1.3039391 1.3598822 1.5770959 234 88 12
1.1647521 1.0924938 0.83490813 234 88 12
1.1486948 1.1085511 0.83490813 234 88 12
1.3985896 1.3945535 1.8092215 234 88 12
1.338968 1.3176378 1.55857 234 88 12
1.3168916 1.3489656 1.5755535 234 88 12
1.5475842 -0.34502125 -0.82355314 234 88 12
1.5480583 -0.34143284 -0.82355314 234 88 12
