ply
format ascii 1.0
element vertex 287
property float x
property float y
property float z
property uchar red
property uchar green
property uchar blue
end_header
-0.84993404 1.0744493 1.7842273 234 88 12
-0.85929388 1.0649533 1.7842273 234 88 12
-0.85894042 1.0672795 1.7829156 234 88 12
-1.8325189 0.14699487 1.2812792 234 88 12
-1.8279692 0.18866266 1.2796265 234 88 12
-1.8284682 0.18488596 1.2796265 234 88 12
-1.8297156 0.1754442 1.2796265 234 88 12
-1.8331491 0.15668468 1.2779738 234 88 12
-1.831593 0.17569223 1.2763211 234 88 12
-1.8315339 0.18336967 1.2746683 234 88 12
-1.8307263 0.19671217 1.2730155 234 88 12
-1.8314747 0.1910471 1.2730155 234 88 12
-1.831665 0.19683617 1.2713628 234 88 12
-1.8319144 0.19494782 1.2713628 234 88 12
-1.8331618 0.18550606 1.2713628 234 88 12
-1.8346587 0.17417593 1.2713628 234 88 12
-1.835906 0.16473417 1.2713628 234 88 12
-1.8374029 0.15340404 1.2713628 234 88 12
-1.8370479 0.19946864 1.2614465 234 88 12
-1.8375468 0.19569194 1.2614465 234 88 12
-1.8390437 0.18436182 1.2614465 234 88 12
-1.8402911 0.17492005 1.2614465 234 88 12
-1.8415384 0.16547827 1.2614465 234 88 12
-1.8419782 0.16937901 1.2597938 234 88 12
-1.8427267 0.16371395 1.2597938 234 88 12
-1.8419191 0.17705643 1.2581409 234 88 12
-1.8458515 0.15452021 1.2564882 234 88 12
-1.8418007 0.1924113 1.2548355 234 88 12
-1.8419911 0.19820039 1.2531828 234 88 12
-1.8429297 0.1983244 1.2515301 234 88 12
-1.8431792 0.19643605 1.2515301 234 88 12
-1.8446761 0.18510592 1.2515301 234 88 12
-1.8459234 0.17566416 1.2515301 234 88 12
-1.8474203 0.16433404 1.2515301 234 88 12
-1.8486677 0.15489227 1.2515301 234 88 12
-1.7138535 -1.1586571 0.87734032 234 88 12
-1.7129776 -1.1603487 0.87734032 234 88 12
-1.7184929 -1.1524794 0.87375212 234 88 12
-1.7219489 -1.149979 0.86836988 234 88 12
-1.7175701 -1.1584364 0.86836988 234 88 12
-1.7166944 -1.160128 0.86836988 234 88 12
-1.7187065 -1.1590248 0.86478168 234 88 12
-1.7265413 -1.1480668 0.85939938 234 88 12
-1.7271094 -1.148361 0.85760534 234 88 12
-1.7262337 -1.1500524 0.85760534 234 88 12
-1.7209792 -1.1602014 0.85760534 234 88 12
-1.7282459 -1.1489493 0.85401714 234 88 12
-1.7305185 -1.150126 0.8468408 234 88 12
-1.7278912 -1.1552005 0.8468408 234 88 12
-1.725264 -1.160275 0.8468408 234 88 12
-1.7284125 -1.1597601 0.8396644 234 88 12
-1.7289807 -1.1600543 0.83787036 234 88 12
-1.6262592 1.3010508 0.81106597 234 88 12
-1.6061109 1.3287978 0.80925226 234 88 12
-1.6232888 1.3059669 0.80925226 234 88 12
-1.6031405 1.3337139 0.80743861 234 88 12
-1.6111568 1.3230594 0.80743861 234 88 12
-1.6145923 1.3184932 0.80743861 234 88 12
-1.624899 1.3047947 0.80743861 234 88 12
-1.6024604 1.3355858 0.80562496 234 88 12
-1.6036055 1.3340638 0.80562496 234 88 12
-1.6047508 1.3325417 0.80562496 234 88 12
-1.6116219 1.3234093 0.80562496 234 88 12
-1.6150573 1.3188432 0.80562496 234 88 12
-1.6207833 1.3112329 0.80562496 234 88 12
-1.6253641 1.3051447 0.80562496 234 88 12
-1.6265092 1.3036226 0.80562496 234 88 12
-1.6045357 1.3347636 0.8019976 234 88 12
-1.6036406 1.3388575 0.79655665 234 88 12
-1.6047858 1.3373355 0.79655665 234 88 12
-1.6070762 1.3342913 0.79655665 234 88 12
-1.6150924 1.3236369 0.79655665 234 88 12
-1.6231087 1.3129824 0.79655665 234 88 12
-1.6253991 1.3099383 0.79655665 234 88 12
-1.6144123 1.3255088 0.79474294 234 88 12
-1.624969 1.3143821 0.78930199 234 88 12
-1.6345955 1.3025556 0.78748828 234 88 12
-1.606431 1.340957 0.78567463 234 88 12
-1.612157 1.3333467 0.78567463 234 88 12
-1.6144474 1.3303026 0.78567463 234 88 12
-1.6190281 1.3242143 0.78567463 234 88 12
-1.624754 1.316604 0.78567463 234 88 12
-1.6270443 1.3135599 0.78567463 234 88 12
-1.6350607 1.3029054 0.78567463 234 88 12
-1.6348456 1.3051274 0.78204733 234 88 12
-1.6144823 1.3350962 0.77660632 234 88 12
-1.6126571 1.3384904 0.77479267 234 88 12
-1.6149474 1.3354462 0.77479267 234 88 12
-1.6160926 1.3339242 0.77479267 234 88 12
-2.2151272 -0.25641084 0.14909603 234 88 12
-2.2149179 -0.2602146 0.14909603 234 88 12
-2.2173696 -0.21838136 0.14528942 234 88 12
-2.2168462 -0.22789077 0.14528942 234 88 12
-2.2175488 -0.21648358 0.14338611 234 88 12
-2.2174442 -0.21838546 0.14338611 234 88 12
-2.2169206 -0.22789487 0.14338611 234 88 12
-2.2162926 -0.23930617 0.14338611 234 88 12
-2.2157693 -0.24881558 0.14338611 234 88 12
-2.2151411 -0.26022688 0.14338611 234 88 12
-2.2181301 -0.21270028 0.13386959 234 88 12
-2.2178161 -0.21840593 0.13386959 234 88 12
-2.2172928 -0.22791535 0.13386959 234 88 12
-2.2166646 -0.23932664 0.13386959 234 88 12
-2.2161412 -0.24883606 0.13386959 234 88 12
-2.2158852 -0.26026782 0.12435307 234 88 12
-2.2185764 -0.21272485 0.12244977 234 88 12
-2.2182624 -0.2184305 0.12244977 234 88 12
-2.2177391 -0.22793992 0.12244977 234 88 12
-2.2171111 -0.23935121 0.12244977 234 88 12
-2.2165875 -0.24886063 0.12244977 234 88 12
-2.2159595 -0.26027194 0.12244977 234 88 12
-2.2187393 -0.2165491 0.11293325 234 88 12
-2.2186346 -0.21845098 0.11293325 234 88 12
-2.218111 -0.22796039 0.11293325 234 88 12
-0.70926476 2.0815585 0.43423367 234 88 12
-0.67649585 2.09693 0.43046895 234 88 12
-0.68344486 2.0938058 0.43046895 234 88 12
-0.69908017 2.0867763 0.43046895 234 88 12
-0.67697364 2.0979929 0.42293954 234 88 12
-0.68392265 2.0948684 0.42293954 234 88 12
-0.69434619 2.0901821 0.42293954 234 88 12
-0.69608349 2.089401 0.42293954 234 88 12
-0.70476973 2.0854957 0.42293954 234 88 12
-0.67757094 2.0993214 0.41352779 234 88 12
-0.68451995 2.0961971 0.41352779 234 88 12
-0.69494349 2.0915105 0.41352779 234 88 12
-0.70039415 2.0896988 0.40976307 234 88 12
-0.70398813 2.0884025 0.40788072 234 88 12
-0.71453112 2.0839818 0.40599835 234 88 12
-0.67816818 2.1006498 0.404116 234 88 12
-0.67828768 2.1009154 0.40223366 234 88 12
-0.68002492 2.1001344 0.40223366 234 88 12
-0.68349946 2.0985723 0.40223366 234 88 12
-0.693923 2.0938859 0.40223366 234 88 12
-0.70260924 2.0899806 0.40223366 234 88 12
-0.70434654 2.0891995 0.40223366 234 88 12
-0.71477002 2.0845132 0.40223366 234 88 12
-0.67888492 2.1022439 0.39282188 234 88 12
-2.0112858 0.90321964 -0.33446893 234 88 12
-2.0128479 0.89974517 -0.33446893 234 88 12
-1.9969609 0.93437082 -0.33635131 234 88 12
-1.9977419 0.93263358 -0.33635131 234 88 12
-1.998523 0.93089628 -0.33635131 234 88 12
-2.0032094 0.92047274 -0.33635131 234 88 12
-1.9938205 0.93922424 -0.34199837 234 88 12
-1.997726 0.93053794 -0.34199837 234 88 12
-2.0024123 0.9201144 -0.34199837 234 88 12
-2.0070987 0.90969086 -0.34199837 234 88 12
-2.0078797 0.90795362 -0.34199837 234 88 12
-1.9969288 0.9301796 -0.3476454 234 88 12
-1.9914454 0.94024473 -0.35329247 234 88 12
-1.9961318 0.92982119 -0.35329247 234 88 12
-1.9976939 0.92634672 -0.35329247 234 88 12
-2.000818 0.91939765 -0.35329247 234 88 12
-2.0055044 0.90897411 -0.35329247 234 88 12
-2.0078475 0.90376234 -0.35329247 234 88 12
-2.0091441 0.90016836 -0.35517484 234 88 12
-1.991679 0.93617296 -0.36270425 234 88 12
-1.9940221 0.93096119 -0.36270425 234 88 12
-1.9971465 0.92401218 -0.36270425 234 88 12
-1.9987086 0.92053765 -0.36270425 234 88 12
-2.0041759 0.90837687 -0.36270425 234 88 12
-2.0080812 0.89969057 -0.36270425 234 88 12
-1.8489288 -0.93929869 -0.85082245 234 88 12
-1.8475833 -0.94286269 -0.85082245 234 88 12
-1.8557156 -0.91335714 -0.85790312 234 88 12
-1.8496608 -0.92939508 -0.85790312 234 88 12
-1.8577487 -0.90598077 -0.85967332 234 88 12
-1.8557304 -0.91132677 -0.85967332 234 88 12
-1.8516939 -0.92201871 -0.85967332 234 88 12
-1.8476572 -0.93271071 -0.85967332 234 88 12
-1.8517087 -0.91998833 -0.86144346 234 88 12
-1.8591238 -0.89835596 -0.8632136 234 88 12
-1.8578376 -0.89379835 -0.87029427 234 88 12
-1.8551464 -0.90092635 -0.87029427 234 88 12
-1.8517827 -0.90983629 -0.87029427 234 88 12
-1.8511099 -0.91161829 -0.87029427 234 88 12
-1.8470733 -0.92231029 -0.87029427 234 88 12
-1.8417059 -0.93453586 -0.87206447 234 88 12
-1.8376842 -0.94319743 -0.87383461 234 88 12
-1.8417356 -0.93047506 -0.87560481 234 88 12
-1.8518566 -0.89968431 -0.87914515 234 88 12
-1.8538897 -0.89230794 -0.88091528 234 88 12
-1.8518714 -0.89765394 -0.88091528 234 88 12
-1.8505259 -0.90121788 -0.88091528 234 88 12
-1.8464893 -0.91190988 -0.88091528 234 88 12
-1.8424526 -0.92260182 -0.88091528 234 88 12
-1.8411071 -0.92616582 -0.88091528 234 88 12
-1.8390889 -0.93151182 -0.88091528 234 88 12
-1.8479236 -0.89616346 -0.8915363 234 88 12
-1.8459053 -0.90150946 -0.8915363 234 88 12
-1.1310883 1.7963815 -0.70587337 234 88 12
-1.1276942 1.7982068 -0.70768702 234 88 12
-1.1383486 1.7901905 -0.70768702 234 88 12
-1.1398706 1.7890453 -0.70768702 234 88 12
-1.1611795 1.7730128 -0.70768702 234 88 12
-1.1379987 1.7897254 -0.70950067 234 88 12
-1.1577855 1.7748381 -0.70950067 234 88 12
-1.1653959 1.7691121 -0.70950067 234 88 12
-1.1232504 1.7986369 -0.71494168 234 88 12
-1.1293386 1.7940562 -0.71494168 234 88 12
-1.1354269 1.7894754 -0.71494168 234 88 12
-1.138471 1.7871851 -0.71494168 234 88 12
-1.1491255 1.7791687 -0.71494168 234 88 12
-1.1597799 1.7711525 -0.71494168 234 88 12
-1.162824 1.7688621 -0.71494168 234 88 12
-1.1469035 1.7793838 -0.71856904 234 88 12
-1.1211509 1.7958465 -0.7258237 234 88 12
-1.1287612 1.7901205 -0.7258237 234 88 12
-1.1302832 1.7889754 -0.7258237 234 88 12
-1.1394156 1.7821043 -0.7258237 234 88 12
-1.1439818 1.7786686 -0.7258237 234 88 12
-1.148548 1.7752331 -0.7258237 234 88 12
-1.1558084 1.7690421 -0.72763735 234 88 12
-1.1600246 1.7651415 -0.729451 234 88 12
-1.1261894 1.7898705 -0.73126471 234 88 12
-1.1209234 1.7923758 -0.73489201 234 88 12
-1.1254896 1.7889403 -0.73489201 234 88 12
-1.1285337 1.7866499 -0.73489201 234 88 12
-1.1391882 1.7786336 -0.73489201 234 88 12
-1.1498425 1.7706174 -0.73489201 234 88 12
-1.1528866 1.768327 -0.73489201 234 88 12
-1.1589749 1.7637463 -0.73489201 234 88 12
-1.1373161 1.7793138 -0.73670566 234 88 12
-1.7520049 0.21270481 -1.3700644 234 88 12
-1.7518598 0.20688939 -1.3716267 234 88 12
-1.748925 0.21798833 -1.3731891 234 88 12
-1.7435105 0.24412224 -1.3747516 234 88 12
-1.7447504 0.23660475 -1.3747516 234 88 12
-1.7472301 0.22156976 -1.3747516 234 88 12
-1.74816 0.21593165 -1.3747516 234 88 12
-1.7411956 0.25146243 -1.3763139 234 88 12
-1.7418156 0.24770367 -1.3763139 234 88 12
-1.7436754 0.23642744 -1.3763139 234 88 12
-1.7452252 0.22703059 -1.3763139 234 88 12
-1.747085 0.21575436 -1.3763139 234 88 12
-1.7373507 0.25468928 -1.3810011 234 88 12
-1.7375156 0.24699448 -1.3825636 234 88 12
-1.7379905 0.23742034 -1.3841259 234 88 12
-1.7330508 0.25398007 -1.3872508 234 88 12
-1.7342907 0.2464626 -1.3872508 234 88 12
-1.7358404 0.23706573 -1.3872508 234 88 12
-1.7377003 0.2257895 -1.3872508 234 88 12
-1.7383202 0.22203076 -1.3872508 234 88 12
-1.7392502 0.21639264 -1.3872508 234 88 12
-1.74111 0.20511641 -1.3872508 234 88 12
-1.7381752 0.21621534 -1.3888131 234 88 12
-1.7375751 0.20646389 -1.391938 234 88 12
-1.7269108 0.25103691 -1.3966252 234 88 12
-1.7275308 0.24727818 -1.3966252 234 88 12
-1.7261459 0.24898025 -1.3981875 234 88 12
-1.7264558 0.24710087 -1.3981875 234 88 12
-1.7280056 0.23770402 -1.3981875 234 88 12
-1.7269306 0.23752673 -1.39975 234 88 12
-0.88261706 1.1165895 -1.7317597 234 88 12
-0.89075643 1.1085669 -1.7317597 234 88 12
-0.89346951 1.1058927 -1.7317597 234 88 12
-0.87796485 1.1172966 -1.734383 234 88 12
-0.88881731 1.1065996 -1.734383 234 88 12
-0.91187871 1.0838686 -1.734383 234 88 12
-0.89734364 1.0962561 -1.7356946 234 88 12
-0.90683949 1.0868963 -1.7356946 234 88 12
-0.90819609 1.0855592 -1.7356946 234 88 12
-0.87369967 1.1156827 -1.7383181 234 88 12
-0.88048244 1.1089971 -1.7383181 234 88 12
-0.88319552 1.1063229 -1.7383181 234 88 12
-0.88997829 1.0996373 -1.7383181 234 88 12
-0.89404798 1.095626 -1.7383181 234 88 12
-0.90083075 1.0889404 -1.7383181 234 88 12
-0.90354389 1.0862662 -1.7383181 234 88 12
-0.9116832 1.0782435 -1.7383181 234 88 12
-0.87854332 1.1070298 -1.7409414 234 88 12
-0.88939577 1.0963329 -1.7409414 234 88 12
-0.8979221 1.0859895 -1.7422532 234 88 12
-0.8688519 1.1107645 -1.7448765 234 88 12
-0.87912178 1.0967631 -1.7474999 234 88 12
-0.86594325 1.1078135 -1.7488116 234 88 12
-0.8672998 1.1064764 -1.7488116 234 88 12
-0.87001294 1.1038022 -1.7488116 234 88 12
-0.87815225 1.0957795 -1.7488116 234 88 12
-0.87950879 1.0944424 -1.7488116 234 88 12
-0.88764811 1.0864197 -1.7488116 234 88 12
-0.89036125 1.0837455 -1.7488116 234 88 12
-0.89850056 1.0757227 -1.7488116 234 88 12
-0.90121365 1.0730485 -1.7488116 234 88 12
-0.79358399 -0.28615335 -2.0863073 234 88 12
-0.79312116 -0.28993464 -2.0863073 234 88 12
