ply
format ascii 1.0
element vertex 881
property float x
property float y
property float z
property uchar red
property uchar green
property uchar blue
end_header
0.61880575 0.21611545 -25.31984 234 88 12
0.64219153 0.21741925 -25.315255 234 88 12
-0.53833364 0.18291809 -25.361611 234 88 12
-0.50988214 0.18463098 -25.365484 234 88 12
-0.48035248 0.18350319 -25.360942 234 88 12
0.50246489 0.19044733 -25.301774 234 88 12
0.52490022 0.1909008 -25.303416 234 88 12
0.54898179 0.19141237 -25.29953 234 88 12
0.57286573 0.18933332 -25.303593 234 88 12
0.59296189 0.18816332 -25.30991 234 88 12
0.61606132 0.18795757 -25.306503 234 88 12
0.64035171 0.18727791 -25.309396 234 88 12
0.66672977 0.18949865 -25.308088 234 88 12
0.69003952 0.18903433 -25.304182 234 88 12
0.71479566 0.18962841 -25.30794 234 88 12
0.73757335 0.18984545 -25.309788 234 88 12
0.76292914 0.18842283 -25.307605 234 88 12
0.78735295 0.18774023 -25.310498 234 88 12
0.81314154 0.18880673 -25.310896 234 88 12
-0.84580199 0.15312495 -25.408703 234 88 12
-0.81913911 0.15266968 -25.403867 234 88 12
-0.79106826 0.15203812 -25.397416 234 88 12
-0.76228308 0.15203635 -25.392044 234 88 12
-0.73482469 0.15119082 -25.387322 234 88 12
-0.7079501 0.15124389 -25.381024 234 88 12
-0.67890141 0.15264397 -25.374458 234 88 12
-0.64872056 0.15483623 -25.365592 234 88 12
-0.62145018 0.15356679 -25.361663 234 88 12
-0.59359859 0.15260027 -25.3626 234 88 12
-0.56530524 0.15283286 -25.350607 234 88 12
-0.53511707 0.15502239 -25.34819 234 88 12
-0.50830222 0.15454443 -25.349117 234 88 12
-0.4832289 0.15317755 -25.331872 234 88 12
-0.45213446 0.15596388 -25.336146 234 88 12
-0.42530238 0.1553622 -25.33726 234 88 12
-0.39914542 0.15766138 -25.335319 234 88 12
-0.15387341 0.16139161 -25.314517 234 88 12
-0.12647229 0.16042467 -25.315419 234 88 12
-0.096811781 0.1621844 -25.313892 234 88 12
0.19243887 0.16257442 -25.298544 234 88 12
0.21735861 0.16358535 -25.306197 234 88 12
0.24221032 0.16351615 -25.30215 234 88 12
0.2664047 0.1623692 -25.304472 234 88 12
0.29021928 0.16425163 -25.303597 234 88 12
0.31497202 0.16322106 -25.299769 234 88 12
0.34007137 0.16292474 -25.295873 234 88 12
0.36213908 0.1618588 -25.298746 234 88 12
0.38639787 0.16176733 -25.294541 234 88 12
0.4088378 0.16210568 -25.296221 234 88 12
0.43133776 0.16186743 -25.300144 234 88 12
0.45467512 0.16129841 -25.302592 234 88 12
0.47754936 0.16240857 -25.292222 234 88 12
0.50065226 0.16032641 -25.295943 234 88 12
0.5247158 0.16083405 -25.292087 234 88 12
0.54815488 0.16241767 -25.299628 234 88 12
0.57040725 0.16116215 -25.298009 234 88 12
0.59384078 0.16059804 -25.300466 234 88 12
0.61514679 0.16001529 -25.303394 234 88 12
0.64013292 0.16041437 -25.299891 234 88 12
0.6634487 0.15821608 -25.303717 234 88 12
0.68757098 0.16123713 -25.30541 234 88 12
0.71348234 0.15921119 -25.302133 234 88 12
0.73737675 0.15977988 -25.298495 234 88 12
0.76242216 0.15976177 -25.305357 234 88 12
0.78854123 0.16128826 -25.307745 234 88 12
0.81342518 0.16017045 -25.305473 234 88 12
0.83703331 0.15837659 -25.309596 234 88 12
0.86539304 0.16131545 -25.308086 234 88 12
0.89100412 0.16016712 -25.318081 234 88 12
0.91733114 0.15993877 -25.31587 234 88 12
-0.90386274 0.12262388 -25.410165 234 88 12
-0.87468125 0.12389193 -25.401681 234 88 12
-0.84572403 0.1238029 -25.396078 234 88 12
-0.81983255 0.12238148 -25.397583 234 88 12
-0.79115341 0.12239844 -25.385605 234 88 12
-0.7622923 0.1222879 -25.380285 234 88 12
-0.73414329 0.12163555 -25.380461 234 88 12
-0.70796274 0.12150029 -25.369233 234 88 12
-0.67917685 0.12138488 -25.363939 234 88 12
-0.64950286 0.12412578 -25.360101 234 88 12
-0.6208474 0.12412376 -25.354707 234 88 12
-0.59222678 0.12412342 -25.349302 234 88 12
-0.56647501 0.12458537 -25.338399 234 88 12
-0.53868409 0.12362487 -25.339302 234 88 12
-0.50839101 0.12490369 -25.337319 234 88 12
-0.48203021 0.12438013 -25.319495 234 88 12
-0.45444326 0.12379443 -25.320778 234 88 12
-0.42625012 0.12663681 -25.324601 234 88 12
-0.39868414 0.12700123 -25.319364 234 88 12
-0.37028996 0.12821331 -25.316615 234 88 12
-0.34312475 0.12716419 -25.312726 234 88 12
-0.31633104 0.12699148 -25.312814 234 88 12
-0.29119114 0.12711734 -25.30784 234 88 12
-0.26208169 0.12920504 -25.298389 234 88 12
-0.23472036 0.12862171 -25.299605 234 88 12
-0.20874171 0.12999018 -25.300675 234 88 12
-0.18129421 0.12902604 -25.30161 234 88 12
-0.15251995 0.13180416 -25.299231 234 88 12
-0.12512214 0.13083888 -25.300146 234 88 12
-0.099477386 0.13070723 -25.288894 234 88 12
-0.071235631 0.1313903 -25.293339 234 88 12
-0.045639836 0.1310889 -25.289915 234 88 12
-0.020745425 0.13080251 -25.295677 234 88 12
0.061832622 0.13261319 -25.291117 234 88 12
0.0890049 0.13251621 -25.29133 234 88 12
0.11458993 0.13242643 -25.292192 234 88 12
0.14192618 0.1338626 -25.28453 234 88 12
0.16596393 0.13283322 -25.286714 234 88 12
0.19055128 0.13434349 -25.285738 234 88 12
0.21639423 0.13433387 -25.294267 234 88 12
0.24116745 0.1343744 -25.29018 234 88 12
0.26450548 0.13414019 -25.291668 234 88 12
0.28973619 0.13257109 -25.282697 234 88 12
0.31392679 0.13409125 -25.287679 234 88 12
0.33895113 0.13390635 -25.283707 234 88 12
0.36036462 0.13273046 -25.286286 234 88 12
0.38556995 0.13281014 -25.294582 234 88 12
0.40962943 0.13320338 -25.290763 234 88 12
0.42952307 0.13177545 -25.294344 234 88 12
0.45362688 0.13217227 -25.290472 234 88 12
0.47595507 0.13219247 -25.292965 234 88 12
0.50059621 0.13232541 -25.289743 234 88 12
0.52389462 0.13186309 -25.292246 234 88 12
0.54784529 0.13328147 -25.287928 234 88 12
0.56867407 0.1309497 -25.292341 234 88 12
0.59204254 0.13048866 -25.294782 234 88 12
0.61411836 0.13087193 -25.291386 234 88 12
0.63932682 0.13143856 -25.300043 234 88 12
0.66341184 0.13020854 -25.297544 234 88 12
0.68753733 0.1324049 -25.303135 234 88 12
0.71079222 0.13207285 -25.299954 234 88 12
0.73642016 0.13064109 -25.29706 234 88 12
0.76258643 0.13205321 -25.299554 234 88 12
0.78541447 0.13025592 -25.30337 234 88 12
0.81233688 0.13192396 -25.303331 234 88 12
0.8395033 0.13116074 -25.300451 234 88 12
0.86564987 0.13172124 -25.309537 234 88 12
0.89142261 0.13288289 -25.310045 234 88 12
0.91587432 0.13230035 -25.313016 234 88 12
0.94422288 0.1325354 -25.316288 234 88 12
-0.93275396 0.095971359 -25.405844 234 88 12
-0.90386958 0.095033985 -25.406879 234 88 12
-0.87524433 0.093088925 -25.402775 234 88 12
-0.84650319 0.093112201 -25.390708 234 88 12
-0.82070517 0.093560793 -25.385102 234 88 12
-0.79189005 0.094790316 -25.382138 234 88 12
-0.76302778 0.094682415 -25.376782 234 88 12
-0.73346037 0.094575068 -25.371796 234 88 12
-0.70469 0.093134756 -25.366256 234 88 12
-0.6759089 0.093022628 -25.360934 234 88 12
-0.64977046 0.092890012 -25.349643 234 88 12
-0.620856 0.094398832 -25.343009 234 88 12
-0.59300399 0.093434118 -25.343937 234 88 12
-0.56485732 0.094038788 -25.33242 234 88 12
-0.53630147 0.094044129 -25.326998 234 88 12
-0.50716746 0.096824416 -25.324528 234 88 12
-0.4818733 0.095627257 -25.319526 234 88 12
-0.45346778 0.09520606 -25.314895 234 88 12
-0.42395189 0.097167315 -25.312192 234 88 12
-0.39967255 0.096436069 -25.307401 234 88 12
-0.37148831 0.09690512 -25.30255 234 88 12
-0.34304343 0.096783195 -25.29735 234 88 12
-0.31629704 0.099266392 -25.300376 234 88 12
-0.28812089 0.099268471 -25.288606 234 88 12
-0.26043945 0.098083191 -25.289654 234 88 12
-0.23626503 0.099223905 -25.284078 234 88 12
-0.2082618 0.1002668 -25.282681 234 88 12
-0.17911381 0.10043534 -25.289865 234 88 12
-0.15360163 0.099989973 -25.279406 234 88 12
-0.12695944 0.10113209 -25.279049 234 88 12
-0.099420454 0.10296045 -25.277245 234 88 12
-0.072397791 0.10005938 -25.280207 234 88 12
-0.04647752 0.10225919 -25.278095 234 88 12
-0.019600093 0.10136666 -25.273688 234 88 12
0.0069349752 0.10104171 -25.273666 234 88 12
0.032782125 0.10228801 -25.278158 234 88 12
0.060887056 0.10338235 -25.279374 234 88 12
0.086494106 0.10486511 -25.277221 234 88 12
0.11207925 0.10259254 -25.274325 234 88 12
0.14006607 0.10388904 -25.278867 234 88 12
0.16493296 0.10371738 -25.274772 234 88 12
0.18981705 0.10567117 -25.279213 234 88 12
0.21536143 0.1052224 -25.282268 234 88 12
0.23944995 0.10419178 -25.284511 234 88 12
0.26419647 0.10503413 -25.279976 234 88 12
0.28794096 0.10249889 -25.276993 234 88 12
0.31383648 0.10450069 -25.275591 234 88 12
0.33805975 0.10507187 -25.283817 234 88 12
0.36125673 0.10427448 -25.280037 234 88 12
0.38453063 0.10370577 -25.282515 234 88 12
0.40551866 0.10288723 -25.285626 234 88 12
0.42937679 0.10485381 -25.284919 234 88 12
0.45370137 0.10541281 -25.293261 234 88 12
0.47679622 0.10639778 -25.289432 234 88 12
0.49990212 0.10431025 -25.293241 234 88 12
0.5228902 0.10584192 -25.282076 234 88 12
0.5470129 0.1052742 -25.284961 234 88 12
0.56854738 0.10401432 -25.283 234 88 12
0.59187606 0.10527474 -25.291318 234 88 12
0.61421373 0.10410212 -25.294233 234 88 12
0.63919907 0.10450021 -25.290733 234 88 12
0.66199688 0.10259891 -25.294593 234 88 12
0.68624294 0.10177139 -25.292453 234 88 12
0.71106887 0.10250814 -25.301341 234 88 12
0.7360822 0.10282952 -25.297492 234 88 12
0.76217337 0.10352577 -25.303876 234 88 12
0.78651021 0.10269571 -25.301736 234 88 12
0.81165739 0.10336712 -25.303998 234 88 12
0.83889689 0.10249134 -25.30122 234 88 12
0.86421034 0.10409735 -25.306771 234 88 12
0.89014583 0.10409916 -25.310556 234 88 12
0.91771796 0.10472695 -25.30663 234 88 12
0.94277311 0.1049099 -25.313552 234 88 12
0.96754921 0.10556426 -25.310378 234 88 12
-0.93157734 0.066327869 -25.413191 234 88 12
-0.90279935 0.066362103 -25.40106 234 88 12
-0.87693715 0.065056131 -25.402493 234 88 12
-0.84715503 0.064484158 -25.390469 234 88 12
-0.81723791 0.066449949 -25.387711 234 88 12
-0.79154729 0.066999731 -25.382152 234 88 12
-0.76360042 0.06593836 -25.376657 234 88 12
-0.73510351 0.064810784 -25.365747 234 88 12
-0.70651883 0.064816983 -25.353933 234 88 12
-0.67755072 0.063263354 -25.354855 234 88 12
-0.64887059 0.063259461 -25.349488 234 88 12
-0.62276109 0.063128254 -25.338206 234 88 12
-0.59410044 0.065123151 -25.331928 234 88 12
-0.56573084 0.065246493 -25.319991 234 88 12
-0.53806705 0.067058053 -25.323511 234 88 12
-0.50786438 0.066055013 -25.319213 234 88 12
-0.48051729 0.066663984 -25.307234 234 88 12
-0.45425815 0.066311212 -25.302425 234 88 12
-0.42587548 0.068007398 -25.306348 234 88 12
-0.39750291 0.067899887 -25.294591 234 88 12
-0.37004794 0.068366032 -25.289406 234 88 12
-0.34471794 0.069690614 -25.293855 234 88 12
-0.31651626 0.069687865 -25.282143 234 88 12
-0.28906965 0.070049663 -25.276982 234 88 12
-0.26231675 0.069877792 -25.277211 234 88 12
-0.23228636 0.071840965 -25.274884 234 88 12
-0.20804182 0.071106584 -25.276534 234 88 12
-0.18001351 0.07283949 -25.270525 234 88 12
-0.15516885 0.072222617 -25.2724 234 88 12
-0.1262888 0.074087905 -25.270428 234 88 12
-0.10035833 0.073736632 -25.265616 234 88 12
-0.072196128 0.07453261 -25.269915 234 88 12
-0.046912132 0.073163948 -25.260243 234 88 12
-0.01864783 0.073746084 -25.264564 234 88 12
0.0069318305 0.076543461 -25.262747 234 88 12
0.031767625 0.073194556 -25.266277 234 88 12
0.061477009 0.076471606 -25.270434 234 88 12
0.0854764 0.075774925 -25.265283 234 88 12
0.11194432 0.075684335 -25.26502 234 88 12
0.13691921 0.074869358 -25.266743 234 88 12
0.16488265 0.077234767 -25.264614 234 88 12
0.19070666 0.07723001 -25.273078 234 88 12
0.21451813 0.074690547 -25.276561 234 88 12
0.23842364 0.075105908 -25.272539 234 88 12
0.26330221 0.077164669 -25.276933 234 88 12
0.28794643 0.075586004 -25.274086 234 88 12
0.31209662 0.076594786 -25.27496 234 88 12
0.33639172 0.076408263 -25.270647 234 88 12
0.36035717 0.076403696 -25.277018 234 88 12
0.38363044 0.075838285 -25.279469 234 88 12
0.40781215 0.07826732 -25.280722 234 88 12
0.4285591 0.075934345 -25.28513 234 88 12
0.45258345 0.07643415 -25.281275 234 88 12
0.47464926 0.074937308 -25.285096 234 88 12
0.49791854 0.076234643 -25.280515 234 88 12
0.5222835 0.076792274 -25.28893 234 88 12
0.54692624 0.075673322 -25.28675 234 88 12
0.56903009 0.075921836 -25.282684 234 88 12
0.59153422 0.076365731 -25.284357 234 88 12
0.61318174 0.075002982 -25.282383 234 88 12
0.63661872 0.073216996 -25.286502 234 88 12
0.6619173 0.077822083 -25.290423 234 88 12
0.68779688 0.076168744 -25.294055 234 88 12
0.71188415 0.077034612 -25.290756 234 88 12
0.73626663 0.074331709 -25.295803 234 88 12
0.76109433 0.076138288 -25.297984 234 88 12
0.78750972 0.074294368 -25.301598 234 88 12
0.81355972 0.076855175 -25.300882 234 88 12
0.83860561 0.076002423 -25.310912 234 88 12
0.86351965 0.074875168 -25.308823 234 88 12
0.88962299 0.07484669 -25.304734 234 88 12
0.91575944 0.077403578 -25.304081 234 88 12
0.9433281 0.076674595 -25.313679 234 88 12
0.96929095 0.077141929 -25.310817 234 88 12
-0.95890749 0.038053872 -25.417989 234 88 12
-0.93139973 0.040009681 -25.415586 234 88 12
-0.90340103 0.038794356 -25.404135 234 88 12
-0.87456167 0.038711056 -25.392111 234 88 12
-0.8476793 0.036809808 -25.393586 234 88 12
-0.82002363 0.036109065 -25.382161 234 88 12
-0.79112435 0.035998879 -25.376798 234 88 12
-0.761865 0.038611298 -25.379179 234 88 12
-0.7348492 0.038370872 -25.368337 234 88 12
-0.70604585 0.038258562 -25.363043 234 88 12
-0.67755951 0.038376976 -25.351125 234 88 12
-0.64854387 0.036716142 -25.352086 234 88 12
-0.62011345 0.036837271 -25.340144 234 88 12
-0.59153183 0.038941933 -25.333796 234 88 12
-0.56728272 0.038161499 -25.323111 234 88 12
-0.5372673 0.037278422 -25.312297 234 88 12
-0.50968199 0.03777018 -25.306835 234 88 12
-0.48044368 0.039004911 -25.304152 234 88 12
-0.45289944 0.039492885 -25.298689 234 88 12
-0.42666489 0.039134771 -25.293941 234 88 12
-0.3984941 0.041903801 -25.284751 234 88 12
-0.37086743 0.04039218 -25.286741 234 88 12
-0.34242023 0.040269876 -25.281538 234 88 12
-0.31602052 0.041650021 -25.269125 234 88 12
-0.28971944 0.04238699 -25.273527 234 88 12
-0.26062841 0.042272562 -25.268614 234 88 12
-0.23484352 0.042584212 -25.268867 234 88 12
-0.20784407 0.043354843 -25.270024 234 88 12
-0.17905062 0.045225583 -25.261611 234 88 12
-0.1542035 0.044611208 -25.263462 234 88 12
-0.12613413 0.044194489 -25.258834 234 88 12
-0.10036473 0.045651299 -25.263305 234 88 12
-0.073397151 0.046260349 -25.251304 234 88 12
-0.047717207 0.045192596 -25.257481 234 88 12
-0.020257534 0.046491495 -25.256449 234 88 12
0.0062130346 0.047526321 -25.263157 234 88 12
0.033405299 0.047322608 -25.263338 234 88 12
0.05987407 0.046756595 -25.264067 234 88 12
0.086359261 0.048295538 -25.256025 234 88 12
0.10950156 0.048177443 -25.257377 234 88 12
0.13696105 0.049213915 -25.263013 234 88 12
0.16171425 0.048193426 -25.2655 234 88 12
0.18727422 0.048212019 -25.266338 234 88 12
0.21353215 0.04870838 -25.266517 234 88 12
0.23660655 0.048270279 -25.268737 234 88 12
0.26253512 0.049224899 -25.270547 234 88 12
0.28556447 0.047590008 -25.273221 234 88 12
0.3105628 0.047409057 -25.269219 234 88 12
0.3356388 0.048544868 -25.274191 234 88 12
0.35883652 0.048396769 -25.282991 234 88 12
0.38287218 0.048789272 -25.279174 234 88 12
0.40594834 0.048337086 -25.275178 234 88 12
0.42976343 0.047216585 -25.272667 234 88 12
0.44889813 0.047889466 -25.275048 234 88 12
0.47365981 0.048005639 -25.278358 234 88 12
0.49702461 0.047429683 -25.280927 234 88 12
0.51954726 0.047762112 -25.282671 234 88 12
0.54316056 0.047233067 -25.280505 234 88 12
0.56658387 0.046664924 -25.282987 234 88 12
0.59144792 0.046786378 -25.286237 234 88 12
0.61443273 0.049595245 -25.290558 234 88 12
0.63893751 0.048595527 -25.281866 234 88 12
0.66192102 0.048316936 -25.284424 234 88 12
0.68616556 0.047485543 -25.282341 234 88 12
0.71047446 0.048515722 -25.291236 234 88 12
0.73475837 0.047679075 -25.289215 234 88 12
0.76070162 0.046022052 -25.292906 234 88 12
0.78591031 0.048681516 -25.291873 234 88 12
0.81101041 0.047715032 -25.302006 234 88 12
0.8385099 0.04834388 -25.29805 234 88 12
0.86264938 0.046251181 -25.302322 234 88 12
0.88923998 0.050231505 -25.307511 234 88 12
0.91611299 0.04978274 -25.309988 234 88 12
0.94110794 0.048637818 -25.308045 234 88 12
0.96884521 0.049240275 -25.314877 234 88 12
-0.95978061 0.012054192 -25.41485 234 88 12
-0.93183125 0.011238513 -25.408989 234 88 12
-0.90510053 0.010794182 -25.404091 234 88 12
-0.87534166 0.0086017432 -25.39984 234 88 12
-0.84639189 0.0097234792 -25.396858 234 88 12
-0.82067117 0.010273858 -25.391268 234 88 12
-0.79191441 0.01017109 -25.379462 234 88 12
-0.76286292 0.00861294 -25.380477 234 88 12
-0.73376874 0.010005846 -25.373941 234 88 12
-0.7044473 0.010013639 -25.362468 234 88 12
-0.67799688 0.0096572372 -25.357745 234 88 12
-0.65129996 0.0076896993 -25.346253 234 88 12
-0.62184002 0.0075921046 -25.341144 234 88 12
-0.59317737 0.009227833 -25.327875 234 88 12
-0.56471787 0.011997198 -25.325071 234 88 12
-0.53456093 0.011106571 -25.320688 234 88 12
-0.50711714 0.011610236 -25.308733 234 88 12
-0.48113307 0.011858504 -25.304175 234 88 12
-0.4525723 0.012982565 -25.301169 234 88 12
-0.42419633 0.012560085 -25.296569 234 88 12
-0.39568574 0.012442952 -25.291281 234 88 12
-0.37075054 0.012777967 -25.28021 234 88 12
-0.34319117 0.014455709 -25.283988 234 88 12
-0.31555444 0.015127653 -25.278059 234 88 12
-0.28632005 0.01652946 -25.265449 234 88 12
-0.26113798 0.017965239 -25.269787 234 88 12
-0.23272316 0.017748077 -25.264483 234 88 12
-0.20873303 0.015508395 -25.267369 234 88 12
-0.18167611 0.016109702 -25.255497 234 88 12
-0.15289483 0.018880366 -25.253028 234 88 12
-0.12786466 0.017253156 -25.255352 234 88 12
-0.098133008 0.018908495 -25.253684 234 88 12
-0.073987653 0.018193728 -25.255081 234 88 12
-0.046077151 0.019339861 -25.254603 234 88 12
-0.019746649 0.021526511 -25.258066 234 88 12
0.0060859926 0.020654082 -25.254003 234 88 12
0.03244967 0.019596882 -25.260462 234 88 12
0.059669501 0.019991374 -25.254893 234 88 12
0.08562434 0.01950982 -25.262868 234 88 12
0.11048111 0.019363602 -25.268131 234 88 12
0.13524591 0.019304202 -25.263963 234 88 12
0.16145879 0.021617738 -25.260891 234 88 12
0.18770931 0.021176105 -25.264224 234 88 12
0.21185586 0.020040789 -25.266477 234 88 12
0.23750566 0.019867704 -25.262788 234 88 12
0.2604578 0.020890794 -25.268162 234 88 12
0.28535949 0.020823857 -25.26405 234 88 12
0.30972213 0.021712692 -25.271436 234 88 12
0.33262421 0.019752134 -25.275046 234 88 12
0.35765972 0.019555836 -25.271226 234 88 12
0.38007403 0.019890434 -25.27294 234 88 12
0.40485087 0.019895374 -25.27632 234 88 12
0.42713622 0.019911322 -25.278872 234 88 12
0.45212512 0.02247291 -25.277755 234 88 12
0.47413595 0.021414367 -25.27426 234 88 12
0.49750117 0.020838959 -25.276829 234 88 12
0.51903664 0.021186807 -25.280825 234 88 12
0.54157648 0.021518938 -25.282567 234 88 12
0.56598393 0.022207679 -25.279099 234 88 12
0.58916463 0.020131211 -25.282848 234 88 12
0.61287875 0.020820217 -25.279009 234 88 12
0.63723157 0.0202731 -25.288956 234 88 12
0.66079735 0.019337176 -25.286527 234 88 12
0.68737738 0.019005002 -25.288896 234 88 12
0.71116254 0.021542875 -25.28872 234 88 12
0.73658145 0.021591816 -25.291947 234 88 12
0.76148223 0.020350135 -25.289999 234 88 12
0.78764555 0.020303659 -25.29243 234 88 12
0.81178551 0.019170701 -25.290037 234 88 12
0.8366503 0.020006181 -25.298943 234 88 12
0.86404385 0.02033523 -25.30525 234 88 12
0.88924651 0.020709529 -25.301981 234 88 12
0.91704676 0.021493161 -25.310317 234 88 12
0.94295647 0.022520944 -25.31105 234 88 12
-0.96186384 -0.014163146 -25.417948 234 88 12
-0.93361594 -0.015209234 -25.418691 234 88 12
-0.90349705 -0.015993963 -25.413149 234 88 12
-0.87708122 -0.01621931 -25.401749 234 88 12
-0.84882174 -0.017389924 -25.402645 234 88 12
-0.82011008 -0.017379717 -25.390737 234 88 12
-0.78926517 -0.015906081 -25.388035 234 88 12
-0.76277228 -0.017237555 -25.390136 234 88 12
-0.73399034 -0.016921574 -25.377567 234 88 12
-0.70591841 -0.01665512 -25.365159 234 88 12
-0.67735702 -0.016642001 -25.353255 234 88 12
-0.64860575 -0.016742122 -25.347811 234 88 12
-0.62037872 -0.017888584 -25.343254 234 88 12
-0.59408165 -0.018122807 -25.338334 234 88 12
-0.56647738 -0.015896106 -25.325071 234 88 12
-0.53791073 -0.015882358 -25.319529 234 88 12
-0.5077543 -0.014224404 -25.317859 234 88 12
-0.48131446 -0.014844788 -25.299968 234 88 12
-0.45108044 -0.015951275 -25.295617 234 88 12
-0.42595665 -0.014383206 -25.293269 234 88 12
-0.3984675 -0.013908627 -25.287958 234 88 12
-0.36998928 -0.014031934 -25.282761 234 88 12
-0.34252019 -0.015004064 -25.277434 234 88 12
-0.31543432 -0.013310388 -25.275583 234 88 12
-0.28811523 -0.012039275 -25.269924 234 88 12
-0.26039174 -0.011596397 -25.263226 234 88 12
-0.23536159 -0.011365194 -25.258522 234 88 12
-0.20717291 -0.0087075894 -25.255789 234 88 12
-0.18145141 -0.010614569 -25.265261 234 88 12
-0.15280902 -0.0078332153 -25.256329 234 88 12
-0.12549373 -0.0092102307 -25.257995 234 88 12
-0.099905495 -0.0063066459 -25.256138 234 88 12
-0.074082078 -0.0070724226 -25.252054 234 88 12
-0.045407766 -0.0078817088 -25.257823 234 88 12
-0.020686959 -0.007623521 -25.246431 234 88 12
0.0051283269 -0.0070673588 -25.251272 234 88 12
0.032212528 -0.0079124084 -25.259148 234 88 12
0.058884001 -0.0064982189 -25.257679 234 88 12
0.083735436 -0.0071997494 -25.259329 234 88 12
0.11240287 -0.0069309381 -25.258395 234 88 12
0.13661198 -0.0060292489 -25.265656 234 88 12
0.16139954 -0.0060913827 -25.261522 234 88 12
0.18513949 -0.0078293662 -25.264584 234 88 12
0.21093295 -0.0058304346 -25.263189 234 88 12
0.23552775 -0.0067571218 -25.272928 234 88 12
0.26179651 -0.0075289715 -25.268078 234 88 12
0.28490061 -0.0062107131 -25.263225 234 88 12
0.30880428 -0.008754806 -25.266766 234 88 12
0.33483986 -0.0047365473 -25.270552 234 88 12
0.35801742 -0.0052008894 -25.273053 234 88 12
0.38093433 -0.0054182912 -25.269771 234 88 12
0.40422312 -0.0059962811 -25.272369 234 88 12
0.42522321 -0.0068202702 -25.275572 234 88 12
0.4500398 -0.0068125877 -25.278924 234 88 12
0.47338609 -0.0073853355 -25.281469 234 88 12
0.49562935 -0.0055020895 -25.276899 234 88 12
0.51875165 -0.0075867566 -25.280741 234 88 12
0.54218928 -0.0067842607 -25.270452 234 88 12
0.56577017 -0.0066460979 -25.279713 234 88 12
0.58921177 -0.007213564 -25.2822 234 88 12
0.61339959 -0.0080287514 -25.27994 234 88 12
0.63636334 -0.0083045994 -25.282455 234 88 12
0.66248389 -0.0058303774 -25.288846 234 88 12
0.68548257 -0.0061217358 -25.29155 234 88 12
0.70974412 -0.006962919 -25.289595 234 88 12
0.73592465 -0.0071199021 -25.292134 234 88 12
0.76075303 -0.0082573674 -25.29017 234 88 12
0.78557776 -0.0074227859 -25.299077 234 88 12
0.81205662 -0.0083107995 -25.296085 234 88 12
0.83683513 -0.0064283073 -25.301756 234 88 12
0.86253371 -0.0063181313 -25.299113 234 88 12
0.88930634 -0.0066639737 -25.30161 234 88 12
0.91434949 -0.0079148352 -25.299718 234 88 12
-0.96107402 -0.041963448 -25.423976 234 88 12
-0.9321346 -0.040714395 -25.420825 234 88 12
-0.90444167 -0.041645189 -25.415936 234 88 12
-0.87538628 -0.041848815 -25.410473 234 88 12
-0.84660892 -0.042899455 -25.405188 234 88 12
-0.82001902 -0.043256471 -25.400425 234 88 12
-0.79008176 -0.043965054 -25.39515 234 88 12
-0.76311389 -0.045639186 -25.383048 234 88 12
-0.73427909 -0.045761271 -25.377847 234 88 12
-0.70569341 -0.045758445 -25.366057 234 88 12
-0.67924208 -0.046110052 -25.361277 234 88 12
-0.64873267 -0.04250562 -25.351038 234 88 12
-0.62102136 -0.04376576 -25.352567 234 88 12
-0.59262065 -0.043629813 -25.340474 234 88 12
-0.56403218 -0.043617521 -25.334954 234 88 12
-0.53748343 -0.044143215 -25.323548 234 88 12
-0.50818207 -0.043031763 -25.311458 234 88 12
-0.48195198 -0.04071416 -25.309214 234 88 12
-0.45295812 -0.041113865 -25.298362 234 88 12
-0.42510552 -0.042286903 -25.29926 234 88 12
-0.39783421 -0.041692843 -25.287436 234 88 12
-0.36773575 -0.03963633 -25.285217 234 88 12
-0.34308112 -0.040976241 -25.286666 234 88 12
-0.31480467 -0.041090669 -25.275033 234 88 12
-0.29058283 -0.039961246 -25.269622 234 88 12
-0.26042833 -0.039871248 -25.274443 234 88 12
-0.23306092 -0.037756489 -25.261271 234 88 12
-0.20831036 -0.039033658 -25.257802 234 88 12
-0.18090662 -0.03733669 -25.261393 234 88 12
-0.15209389 -0.037747395 -25.256886 234 88 12
-0.1272835 -0.034741343 -25.254726 234 88 12
-0.098517014 -0.033924637 -25.252838 234 88 12
-0.071256684 -0.035068779 -25.256193 234 88 12
-0.0471819 -0.033125147 -25.260241 234 88 12
-0.021475119 -0.033781908 -25.2561 234 88 12
0.0055100984 -0.033580754 -25.260791 234 88 12
0.032213965 -0.034825725 -25.256725 234 88 12
0.060171901 -0.031756058 -25.259479 234 88 12
0.084894518 -0.03487916 -25.262891 234 88 12
0.10980061 -0.034619409 -25.257882 234 88 12
0.13388399 -0.035751183 -25.26008 234 88 12
0.16014875 -0.033111346 -25.265244 234 88 12
0.18656291 -0.034002291 -25.266908 234 88 12
0.21032268 -0.03268416 -25.262451 234 88 12
0.2343061 -0.035442818 -25.266057 234 88 12
0.26083081 -0.031722623 -25.270871 234 88 12
0.28376856 -0.033785094 -25.274438 234 88 12
0.30783413 -0.032954352 -25.26962 234 88 12
0.3320878 -0.034109155 -25.272062 234 88 12
0.35512988 -0.034050784 -25.280893 234 88 12
0.38018302 -0.034255298 -25.277159 234 88 12
0.4026129 -0.033928107 -25.278964 234 88 12
0.42620805 -0.034932725 -25.269972 234 88 12
0.44953498 -0.035506268 -25.272511 234 88 12
0.47284207 -0.034359206 -25.280902 234 88 12
0.49671248 -0.035480082 -25.27839 234 88 12
0.51721199 -0.03521051 -25.281178 234 88 12
0.54060443 -0.036039275 -25.278702 234 88 12
0.56351035 -0.036315421 -25.281222 234 88 12
0.58804555 -0.033036196 -25.286431 234 88 12
0.61172471 -0.03330481 -25.289225 234 88 12
0.63584242 -0.034915242 -25.280974 234 88 12
0.66101854 -0.034042144 -25.28249 234 88 12
0.68526033 -0.034881647 -25.280502 234 88 12
0.70978593 -0.034350109 -25.289185 234 88 12
0.73414623 -0.035307157 -25.287335 234 88 12
0.76028504 -0.035356225 -25.2898 234 88 12
0.78470043 -0.036305738 -25.287829 234 88 12
0.81023695 -0.033590994 -25.299021 234 88 12
0.83809504 -0.033578464 -25.295904 234 88 12
0.86136944 -0.034776248 -25.299462 234 88 12
0.88814439 -0.035123293 -25.301956 234 88 12
0.91510187 -0.033073139 -25.308594 234 88 12
-0.93395653 -0.07030829 -25.428809 234 88 12
-0.90421496 -0.070398926 -25.423638 234 88 12
-0.87668505 -0.071328218 -25.412329 234 88 12
-0.84759434 -0.070215156 -25.415856 234 88 12
-0.8196627 -0.071458697 -25.404642 234 88 12
-0.78994357 -0.072049694 -25.392844 234 88 12
-0.76271868 -0.072233562 -25.393199 234 88 12
-0.73513681 -0.071563932 -25.380822 234 88 12
-0.70633146 -0.071679821 -25.37556 234 88 12
-0.67777139 -0.071663526 -25.363623 234 88 12
-0.64905693 -0.072719709 -25.364791 234 88 12
-0.6205345 -0.071384695 -25.352201 234 88 12
-0.5929077 -0.072493996 -25.340719 234 88 12
-0.56788362 -0.072019266 -25.329296 234 88 12
-0.53667049 -0.070947426 -25.327616 234 88 12
-0.50908028 -0.070453556 -25.322123 234 88 12
-0.48165173 -0.06994836 -25.31013 234 88 12
-0.45244052 -0.070467618 -25.305791 234 88 12
-0.42493316 -0.068758856 -25.302883 234 88 12
-0.39792424 -0.069225657 -25.298547 234 88 12
-0.36966349 -0.069227556 -25.286804 234 88 12
-0.34121738 -0.06935028 -25.281615 234 88 12
-0.31241092 -0.066745 -25.284107 234 88 12
-0.28755125 -0.066402427 -25.27298 234 88 12
-0.25986863 -0.067587929 -25.274033 234 88 12
-0.23496328 -0.064584591 -25.271937 234 88 12
-0.20681006 -0.065005852 -25.267347 234 88 12
-0.17979154 -0.06536345 -25.262007 234 88 12
-0.15394959 -0.062940178 -25.259643 234 88 12
-0.1244541 -0.06279263 -25.259153 234 88 12
-0.10045218 -0.06382494 -25.261348 234 88 12
-0.071804341 -0.061136489 -25.252286 234 88 12
-0.046755295 -0.062863857 -25.254464 234 88 12
-0.019453922 -0.061723614 -25.260053 234 88 12
0.0053452142 -0.062435589 -25.261822 234 88 12
0.033274502 -0.059644218 -25.258858 234 88 12
0.057185903 -0.062668186 -25.262088 234 88 12
0.082288569 -0.06224745 -25.269383 234 88 12
0.1111394 -0.060359083 -25.267193 234 88 12
0.13404256 -0.061991527 -25.269841 234 88 12
0.16060147 -0.061033717 -25.271952 234 88 12
0.18472853 -0.062175377 -25.274262 234 88 12
0.21242823 -0.060533811 -25.273164 234 88 12
0.23565358 -0.061195894 -25.275541 234 88 12
0.25983599 -0.062176757 -25.266645 234 88 12
0.28417262 -0.061285081 -25.274028 234 88 12
0.30788835 -0.062393173 -25.271367 234 88 12
0.33128473 -0.062642279 -25.273005 234 88 12
0.35521939 -0.062142646 -25.269182 234 88 12
0.37937699 -0.062785218 -25.278072 234 88 12
0.40266459 -0.063364392 -25.280675 234 88 12
0.42587737 -0.062067296 -25.276097 234 88 12
0.4489443 -0.064153418 -25.279904 234 88 12
0.47096193 -0.063709759 -25.27704 234 88 12
0.49577293 -0.060788692 -25.288135 234 88 12
0.51816514 -0.062461094 -25.285433 234 88 12
0.54095715 -0.060869094 -25.280863 234 88 12
0.56367747 -0.062768997 -25.284725 234 88 12
0.58817935 -0.062187246 -25.281296 234 88 12
0.61185358 -0.062843854 -25.29092 234 88 12
0.6363198 -0.062156016 -25.287484 234 88 12
0.65903766 -0.063955154 -25.291388 234 88 12
0.68362118 -0.063393574 -25.288177 234 88 12
0.70944695 -0.064956468 -25.291946 234 88 12
0.73398091 -0.062664034 -25.293551 234 88 12
0.75847238 -0.060664766 -25.292771 234 88 12
0.78661156 -0.062567497 -25.290957 234 88 12
0.81046376 -0.062861835 -25.293993 234 88 12
0.83584634 -0.062574378 -25.297843 234 88 12
0.86193594 -0.063030524 -25.300005 234 88 12
-0.93163987 -0.098021394 -25.432766 234 88 12
-0.90520748 -0.098250768 -25.42142 234 88 12
-0.87615247 -0.09846261 -25.41605 234 88 12
-0.8488436 -0.098630821 -25.416217 234 88 12
-0.82143301 -0.099471717 -25.405042 234 88 12
-0.64998525 -0.098441556 -25.367747 234 88 12
-0.62150685 -0.098737803 -25.362951 234 88 12
-0.59307242 -0.099956797 -25.351878 234 88 12
-0.56486682 -0.10013697 -25.340594 234 88 12
-0.5371788 -0.099750071 -25.335146 234 88 12
-0.50883006 -0.097063909 -25.325825 234 88 12
-0.47959393 -0.097588298 -25.321545 234 88 12
-0.45090502 -0.096166161 -25.308332 234 88 12
-0.42573127 -0.096897673 -25.310256 234 88 12
-0.39659143 -0.096858752 -25.296037 234 88 12
-0.36913664 -0.096386609 -25.290785 234 88 12
-0.34230695 -0.096561891 -25.291052 234 88 12
-0.31640144 -0.096809735 -25.279916 234 88 12
-0.28800658 -0.096927545 -25.274659 234 88 12
-0.26019153 -0.093830805 -25.277116 234 88 12
-0.23452021 -0.094385905 -25.26667 234 88 12
-0.20675527 -0.095413076 -25.262868 234 88 12
-0.18072162 -0.094971344 -25.267668 234 88 12
-0.15279549 -0.092755673 -25.268299 234 88 12
-0.12405314 -0.090866419 -25.259598 234 88 12
-0.099224117 -0.088920137 -25.263955 234 88 12
-0.073734177 -0.091091261 -25.260968 234 88 12
-0.045527136 -0.090389828 -25.265082 234 88 12
-0.018984712 -0.089002562 -25.266258 234 88 12
0.0065681459 -0.089954194 -25.27239 234 88 12
0.031335392 -0.089584408 -25.26735 234 88 12
0.058496475 -0.090841513 -25.268935 234 88 12
0.084951717 -0.090112283 -25.273497 234 88 12
0.10991456 -0.090657729 -25.269009 234 88 12
0.13299836 -0.090668854 -25.27031 234 88 12
0.16061199 -0.092105948 -25.267222 234 88 12
0.18559002 -0.089349984 -25.278131 234 88 12
0.21044206 -0.088732385 -25.273805 234 88 12
0.23563432 -0.090558566 -25.277025 234 88 12
0.25952089 -0.089355497 -25.27292 234 88 12
0.28343533 -0.090299399 -25.282442 234 88 12
0.30846645 -0.087399593 -25.280368 234 88 12
0.3327183 -0.088558949 -25.282834 234 88 12
0.3556108 -0.088770049 -25.279493 234 88 12
0.37989554 -0.089929864 -25.281998 234 88 12
0.39988402 -0.090775664 -25.281084 234 88 12
0.4236194 -0.091787335 -25.278499 234 88 12
0.44857213 -0.090175666 -25.283987 234 88 12
0.472246 -0.089593098 -25.280194 234 88 12
0.49397657 -0.090475908 -25.28318 234 88 12
0.51867442 -0.08876807 -25.285314 234 88 12
0.54203486 -0.090555941 -25.289439 234 88 12
0.5650174 -0.090941348 -25.292002 234 88 12
0.58852573 -0.09187541 -25.289506 234 88 12
0.61314478 -0.088592612 -25.282204 234 88 12
0.63585258 -0.090390077 -25.286046 234 88 12
0.66141412 -0.088690514 -25.288608 234 88 12
0.68454325 -0.089886676 -25.292137 234 88 12
0.70841436 -0.089327451 -25.288591 234 88 12
0.73460247 -0.089487449 -25.29113 234 88 12
0.7604308 -0.089496215 -25.295003 234 88 12
0.7835955 -0.089903697 -25.297778 234 88 12
0.81168309 -0.091699667 -25.29592 234 88 12
0.83646513 -0.089812711 -25.301595 234 88 12
-0.90399239 -0.12498376 -25.43178 234 88 12
-0.87501615 -0.12509541 -25.426452 234 88 12
-0.84835825 -0.12689997 -25.421583 234 88 12
-0.5920281 -0.12740734 -25.356457 234 88 12
-0.56439498 -0.12690656 -25.350939 234 88 12
-0.53540705 -0.12719754 -25.340065 234 88 12
-0.50748207 -0.12529874 -25.333375 234 88 12
-0.47932441 -0.12480195 -25.32184 234 88 12
-0.45199677 -0.1249645 -25.326927 234 88 12
-0.42487482 -0.12560598 -25.309585 234 88 12
0.032387191 -0.12022915 -25.269793 234 88 12
0.05730395 -0.11863472 -25.273642 234 88 12
0.081946302 -0.12165163 -25.276914 234 88 12
0.10995785 -0.11979239 -25.27705 234 88 12
0.13490496 -0.12130566 -25.279176 234 88 12
0.15973239 -0.11828123 -25.276983 234 88 12
0.18494972 -0.12021189 -25.280048 234 88 12
0.21054303 -0.11866925 -25.282379 234 88 12
0.23266316 -0.1199491 -25.285466 234 88 12
0.25834399 -0.12013784 -25.282102 234 88 12
0.28132412 -0.11913075 -25.287882 234 88 12
0.30709066 -0.11807804 -25.283651 234 88 12
0.33129086 -0.11843905 -25.285827 234 88 12
0.35418298 -0.1186449 -25.282427 234 88 12
0.37846735 -0.11980067 -25.284872 234 88 12
0.40165285 -0.11849341 -25.280229 234 88 12
0.42593959 -0.11792707 -25.28855 234 88 12
0.44669381 -0.12026029 -25.292929 234 88 12
0.47028918 -0.11956786 -25.289092 234 88 12
0.4927496 -0.12044641 -25.292386 234 88 12
0.5157288 -0.11945151 -25.282121 234 88 12
0.54058019 -0.11651965 -25.293149 234 88 12
0.5647269 -0.1173435 -25.290954 234 88 12
0.58773052 -0.11773012 -25.293513 234 88 12
0.61118627 -0.11856004 -25.291005 234 88 12
0.63496397 -0.11895371 -25.293997 234 88 12
0.65832941 -0.11888221 -25.291116 234 88 12
0.68240402 -0.11815466 -25.299727 234 88 12
0.7088629 -0.11873748 -25.290609 234 88 12
0.73198401 -0.11914434 -25.293384 234 88 12
0.75715164 -0.11887845 -25.290162 234 88 12
0.78395602 -0.11825388 -25.296476 234 88 12
0.81016861 -0.11685379 -25.299095 234 88 12
0.83464597 -0.11957172 -25.304194 234 88 12
-0.90402929 -0.15338036 -25.443125 234 88 12
0.083942673 -0.15244866 -25.286268 234 88 12
0.10902115 -0.1509429 -25.286615 234 88 12
0.13298962 -0.1487648 -25.290506 234 88 12
0.16006296 -0.14858152 -25.285815 234 88 12
0.184657 -0.15124242 -25.289792 234 88 12
0.20952649 -0.14970076 -25.291804 234 88 12
0.23437467 -0.15050263 -25.288062 234 88 12
0.25927877 -0.14802459 -25.287022 234 88 12
0.28336941 -0.14827683 -25.289238 234 88 12
0.30725506 -0.14908043 -25.286026 234 88 12
0.33061751 -0.14760995 -25.293786 234 88 12
0.35572823 -0.14791342 -25.290139 234 88 12
0.37557863 -0.14933453 -25.2938 234 88 12
0.40013786 -0.14922861 -25.29 234 88 12
0.42236429 -0.14876332 -25.285118 234 88 12
0.44714158 -0.14970841 -25.295015 234 88 12
0.46932176 -0.14707609 -25.294408 234 88 12
0.49216965 -0.14734724 -25.296866 234 88 12
0.51634891 -0.14827756 -25.29468 234 88 12
0.53872143 -0.14825331 -25.29714 234 88 12
0.56134524 -0.14827667 -25.29382 234 88 12
0.586676 -0.14511438 -25.298669 234 88 12
0.61020352 -0.14605614 -25.296233 234 88 12
0.63390392 -0.14633811 -25.299147 234 88 12
0.66006291 -0.14552024 -25.294881 234 88 12
0.68275469 -0.14652793 -25.298398 234 88 12
0.7076238 -0.14483063 -25.300648 234 88 12
0.73148304 -0.14523352 -25.30373 234 88 12
0.75820502 -0.14593552 -25.301133 234 88 12
0.78254493 -0.14652422 -25.304159 234 88 12
0.80710524 -0.14838743 -25.302645 234 88 12
0.83317819 -0.14553712 -25.307637 234 88 12
0.13499757 -0.1801296 -25.301292 234 88 12
0.15867473 -0.18079744 -25.297572 234 88 12
0.18330664 -0.1818183 -25.293651 234 88 12
0.21042888 -0.17681534 -25.296813 234 88 12
0.23442094 -0.17960132 -25.30075 234 88 12
0.25823058 -0.17828757 -25.296595 234 88 12
0.28117191 -0.18037632 -25.300516 234 88 12
0.30603851 -0.17965591 -25.29628 234 88 12
0.33041724 -0.17877384 -25.303919 234 88 12
0.35403311 -0.17988248 -25.295022 234 88 12
0.37644793 -0.17953751 -25.29682 234 88 12
0.39959613 -0.17748921 -25.29617 234 88 12
0.42203957 -0.1771401 -25.297766 234 88 12
0.44681609 -0.17808361 -25.307627 234 88 12
0.4708469 -0.17756778 -25.303648 234 88 12
0.4928332 -0.17692549 -25.30528 234 88 12
0.51434972 -0.17562157 -25.305996 234 88 12
0.53774718 -0.17577115 -25.302279 234 88 12
0.56381087 -0.17493322 -25.297829 234 88 12
0.58647203 -0.17672836 -25.301618 234 88 12
0.61104376 -0.17399127 -25.303217 234 88 12
0.63382233 -0.17589939 -25.307073 234 88 12
0.65882917 -0.17551255 -25.303691 234 88 12
0.68246438 -0.17482785 -25.293567 234 88 12
0.70604238 -0.1767471 -25.297888 234 88 12
0.73213252 -0.17267348 -25.303195 234 88 12
0.75734528 -0.1743442 -25.306552 234 88 12
0.78201582 -0.17377557 -25.303273 234 88 12
0.80637603 -0.17436232 -25.306276 234 88 12
0.8331687 -0.17505996 -25.303613 234 88 12
0.18535913 -0.21010111 -25.306249 234 88 12
0.20937309 -0.20764054 -25.307399 234 88 12
0.23328962 -0.21031845 -25.311296 234 88 12
0.25799321 -0.20681226 -25.309866 234 88 12
0.28195522 -0.20949157 -25.313771 234 88 12
0.30558486 -0.20805696 -25.302968 234 88 12
0.32996044 -0.207169 -25.310444 234 88 12
0.35371146 -0.20828513 -25.30781 234 88 12
0.37663096 -0.20823804 -25.309456 234 88 12
0.39751483 -0.20717002 -25.305355 234 88 12
0.42222496 -0.20583569 -25.310349 234 88 12
0.4449579 -0.20598916 -25.31267 234 88 12
0.46944248 -0.20492817 -25.308837 234 88 12
0.49228758 -0.20519353 -25.311233 234 88 12
0.51591663 -0.20449227 -25.307336 234 88 12
0.53857508 -0.20318138 -25.312902 234 88 12
0.56297399 -0.20248319 -25.309405 234 88 12
0.58563262 -0.20427393 -25.31313 234 88 12
0.60912286 -0.20345698 -25.30275 234 88 12
0.633663 -0.20287236 -25.299327 234 88 12
0.65745327 -0.20365073 -25.309086 234 88 12
0.68169031 -0.2024672 -25.305005 234 88 12
0.70712338 -0.2026204 -25.307088 234 88 12
0.73149234 -0.20357472 -25.305114 234 88 12
0.75644295 -0.20294958 -25.314077 234 88 12
0.78033269 -0.20360135 -25.312047 234 88 12
0.80580971 -0.20259827 -25.31196 234 88 12
0.83330784 -0.20196397 -25.307978 234 88 12
0.8570086 -0.20388226 -25.312268 234 88 12
0.20888308 -0.23771311 -25.321959 234 88 12
0.23292777 -0.23795512 -25.324154 234 88 12
0.257875 -0.23813321 -25.320123 234 88 12
0.28135683 -0.23698661 -25.319382 234 88 12
0.30525476 -0.23647125 -25.315408 234 88 12
0.32963247 -0.23558324 -25.322889 234 88 12
0.35252804 -0.23579146 -25.319482 234 88 12
0.37623074 -0.23655066 -25.321914 234 88 12
0.39762599 -0.23578404 -25.317862 234 88 12
0.42233816 -0.23403023 -25.316684 234 88 12
0.44556428 -0.2327048 -25.311895 234 88 12
0.46904166 -0.23324071 -25.321323 234 88 12
0.49316491 -0.23282976 -25.317366 234 88 12
0.51508924 -0.2320759 -25.318944 234 88 12
0.53847405 -0.23289756 -25.316344 234 88 12
0.56028996 -0.23213608 -25.311494 234 88 12
0.58445388 -0.23269826 -25.314252 234 88 12
0.60836022 -0.2311381 -25.314314 234 88 12
0.63208816 -0.23043998 -25.310448 234 88 12
0.65639616 -0.23112534 -25.31337 234 88 12
0.68330521 -0.23068965 -25.316237 234 88 12
0.70605799 -0.23005895 -25.311976 234 88 12
0.73050135 -0.23112345 -25.310042 234 88 12
0.75532458 -0.23254615 -25.313939 234 88 12
0.78333002 -0.23058508 -25.315845 234 88 12
0.80624975 -0.23250163 -25.319732 234 88 12
0.83175972 -0.23273005 -25.317155 234 88 12
0.85538071 -0.23454052 -25.3214 234 88 12
