ply
format ascii 1.0
element vertex 1204
property float x
property float y
property float z
property uchar red
property uchar green
property uchar blue
end_header
-1.1700153 -0.096373878 -1.3658004 234 88 12
-1.1686028 -0.09946233 -1.3539268 234 88 12
-1.1678609 -0.10702053 -1.356028 234 88 12
-1.1663483 -0.087622017 -1.3518476 234 88 12
-1.1658877 -0.091367036 -1.3518223 234 88 12
-1.165022 -0.094847322 -1.3469592 234 88 12
-1.1645613 -0.098610975 -1.3469592 234 88 12
-1.1643509 -0.10650824 -1.3553225 234 88 12
-1.1651038 -0.11081933 -1.3694844 234 88 12
-1.1633095 -0.087419271 -1.3568671 234 88 12
-1.1629815 -0.091242 -1.3583603 234 88 12
-1.1618187 -0.094523251 -1.35024 234 88 12
-1.1613588 -0.098281547 -1.35024 234 88 12
-1.1613101 -0.1062393 -1.3601117 234 88 12
-1.1643947 -0.11160653 -1.4000294 234 88 12
-1.1589375 -0.08626876 -1.3467312 234 88 12
-1.1596147 -0.098787211 -1.3694961 234 88 12
-1.1565878 -0.10513397 -1.3463129 234 88 12
-1.1585723 -0.11001988 -1.3729223 234 88 12
-1.1557052 -0.085937664 -1.3497368 234 88 12
-1.15521 -0.089688644 -1.3493774 234 88 12
-1.1557437 -0.094060518 -1.3600249 234 88 12
-1.1549721 -0.097620487 -1.3566786 234 88 12
-1.1559081 -0.10600796 -1.3762296 234 88 12
-1.1560552 -0.10995094 -1.3825028 234 88 12
-1.1630447 -0.088954128 -1.4585316 234 88 12
-1.1557691 -0.087791793 -1.3870181 234 88 12
-1.1523601 -0.08958827 -1.3562722 234 88 12
-1.1560072 -0.099594533 -1.4032406 234 88 12
-1.195401 -0.12341213 -1.8111283 234 88 12
-1.1793863 -0.12102453 -1.6539185 234 88 12
-1.1591052 -0.024016473 -1.3776137 234 88 12
-1.1577367 -0.026502149 -1.3676757 234 88 12
-1.1593081 -0.036975585 -1.394322 234 88 12
-1.1572602 -0.082878441 -1.4276665 234 88 12
-1.1795084 -0.10193916 -1.6572254 234 88 12
-1.1501327 -0.085840404 -1.3644897 234 88 12
-1.1485564 -0.088891596 -1.3532567 234 88 12
-1.1496375 -0.093544766 -1.3686724 234 88 12
-1.1484449 -0.096869417 -1.3613349 234 88 12
-1.1477969 -0.10448032 -1.363983 234 88 12
-1.1507064 -0.10963602 -1.397048 234 88 12
-1.1550276 -0.018219244 -1.3660157 234 88 12
-1.1554532 -0.023111418 -1.3752902 234 88 12
-1.1541138 -0.025686165 -1.3660157 234 88 12
-1.153362 -0.029057937 -1.3629466 234 88 12
-1.1524941 -0.032316741 -1.358699 234 88 12
-1.1525208 -0.0450873 -1.3730938 234 88 12
-1.1519814 -0.048708431 -1.3722225 234 88 12
-1.1778481 -0.093351588 -1.6559024 234 88 12
-1.1545794 -0.078988537 -1.4293036 234 88 12
-1.1485268 -0.078527063 -1.3739902 234 88 12
-1.1560969 -0.087595515 -1.4525822 234 88 12
-1.1464837 -0.085220538 -1.3629091 234 88 12
-1.1460431 -0.088975549 -1.3630815 234 88 12
-1.1484407 -0.10203518 -1.399263 234 88 12
-1.1524045 -0.10762819 -1.4413513 234 88 12
-1.1528916 -0.015053925 -1.3750951 234 88 12
-1.1509422 -0.016791869 -1.3598369 234 88 12
-1.1488107 -0.035789311 -1.3615398 234 88 12
-1.1482831 -0.043704372 -1.3654158 234 88 12
-1.1483788 -0.047995377 -1.3708709 234 88 12
-1.1473451 -0.051166806 -1.3651985 234 88 12
-1.1533792 -0.064739153 -1.4328083 234 88 12
-1.1687794 -0.081502452 -1.5861362 234 88 12
-1.1542081 -0.073093377 -1.4490745 234 88 12
-1.1550523 -0.077503547 -1.4612342 234 88 12
-1.1552253 -0.081332758 -1.4668715 234 88 12
-1.1678481 -0.093692109 -1.591063 234 88 12
-1.16063 -0.092160597 -1.5260001 234 88 12
-1.1582853 -0.094127312 -1.5075144 234 88 12
-1.1478748 -0.091556452 -1.4132868 234 88 12
-1.1584209 -0.10110743 -1.5162121 234 88 12
-1.155636 -0.10309611 -1.4938833 234 88 12
-1.1552337 -0.10638192 -1.4938833 234 88 12
-1.142836 -0.10439879 -1.3828274 234 88 12
-1.1487114 -0.013470852 -1.3679614 234 88 12
-1.147862 -0.016708346 -1.3640946 234 88 12
-1.1484404 -0.026009098 -1.3787431 234 88 12
-1.1464077 -0.027877981 -1.3633519 234 88 12
-1.1512035 -0.04156689 -1.4185638 234 88 12
-1.1454247 -0.039556675 -1.3671615 234 88 12
-1.1514968 -0.057692308 -1.4379056 234 88 12
-1.1459455 -0.060664419 -1.3936479 234 88 12
-1.1591319 -0.075444527 -1.5215855 234 88 12
-1.1687918 -0.086477354 -1.6155233 234 88 12
-1.1644019 -0.0863313 -1.5779178 234 88 12
-1.1642789 -0.089495979 -1.580173 234 88 12
-1.1583543 -0.088743657 -1.5288395 234 88 12
-1.1659657 -0.10012371 -1.6056629 234 88 12
-1.1471014 -0.09624704 -1.440668 234 88 12
-1.1467626 -0.099770889 -1.441457 234 88 12
-1.155346 -0.1074289 -1.5226867 234 88 12
-1.2102957 -0.13442907 -2.0197041 234 88 12
-1.2148187 -0.13771471 -2.0617249 234 88 12
-1.1488845 -0.017543083 -1.4031625 234 88 12
-1.1441133 -0.015775308 -1.3618084 234 88 12
-1.1401083 -0.049809709 -1.3631415 234 88 12
-1.1665978 -0.08015006 -1.6135693 234 88 12
-1.1482686 -0.068698168 -1.4499707 234 88 12
-1.165908 -0.089026026 -1.6168571 234 88 12
-1.1624489 -0.089735702 -1.5888965 234 88 12
-1.1905891 -0.11140934 -1.8442144 234 88 12
-1.1903383 -0.11345851 -1.8442144 234 88 12
-1.1942677 -0.11796667 -1.8813708 234 88 12
-1.1733673 -0.10842574 -1.6983935 234 88 12
-1.1785934 -0.11388018 -1.7472608 234 88 12
-1.2083642 -0.13093404 -2.0114114 234 88 12
-1.2052977 -0.1310747 -1.9861279 234 88 12
-1.2043043 -0.13227923 -1.9791142 234 88 12
-1.1665188 -0.12206499 -1.6554515 234 88 12
-1.191559 -0.13303123 -1.8741997 234 88 12
-1.1417332 -0.020800665 -1.3766592 234 88 12
-1.1402442 -0.023346221 -1.3671657 234 88 12
-1.1428837 -0.030507652 -1.3955164 234 88 12
-1.1389936 -0.030502254 -1.364144 234 88 12
-1.1427828 -0.038627885 -1.4027175 234 88 12
-1.1446952 -0.044587497 -1.4240199 234 88 12
-1.1377568 -0.041936189 -1.3654561 234 88 12
-1.162425 -0.07204017 -1.5940796 234 88 12
-1.1620647 -0.074984975 -1.5940796 234 88 12
-1.1640537 -0.079838656 -1.6149085 234 88 12
-1.1715343 -0.08880116 -1.6840737 234 88 12
-1.1942817 -0.10857583 -1.8870145 234 88 12
-1.1783508 -0.099339783 -1.7494396 234 88 12
-1.179073 -0.10241598 -1.7582994 234 88 12
-1.1704522 -0.099426433 -1.6858358 234 88 12
-1.162299 -0.1003379 -1.6209923 234 88 12
-1.1799446 -0.11295193 -1.7757261 234 88 12
-1.1823993 -0.11664435 -1.7991636 234 88 12
-1.2055045 -0.1300257 -1.9986798 234 88 12
-1.199827 -0.12907897 -1.9519638 234 88 12
-1.1803589 -0.12747017 -1.7933959 234 88 12
-1.1913306 -0.13329773 -1.8876177 234 88 12
-1.2520081 -0.15277614 -2.3961136 234 88 12
-1.1388439 -0.016621003 -1.3779711 234 88 12
-1.1369044 -0.031386819 -1.3769332 234 88 12
-1.1369559 -0.035620287 -1.3814032 234 88 12
-1.1344919 -0.03738904 -1.3637674 234 88 12
-1.1401922 -0.046896733 -1.4176291 234 88 12
-1.1397172 -0.050444033 -1.4173098 234 88 12
-1.1887665 -0.10115997 -1.8509114 234 88 12
-1.1949703 -0.11009365 -1.9081728 234 88 12
-1.193481 -0.11104339 -1.8973986 234 88 12
-1.1877127 -0.10924938 -1.8504121 234 88 12
-1.1948286 -0.11590861 -1.9126468 234 88 12
-1.1824108 -0.11045567 -1.8099669 234 88 12
-1.1881521 -0.12026051 -1.8644356 234 88 12
-1.1808954 -0.11895885 -1.8062422 234 88 12
-1.1759155 -0.12396652 -1.771974 234 88 12
-1.1705681 -0.12453437 -1.7305588 234 88 12
-1.1901909 -0.13326238 -1.8929222 234 88 12
-1.18654 -0.13417171 -1.8651472 234 88 12
-1.1771164 -0.13381685 -1.7908593 234 88 12
-1.1334506 -0.026621448 -1.3734337 234 88 12
-1.1366349 -0.03404979 -1.4047124 234 88 12
-1.1577084 -0.05870524 -1.5887998 234 88 12
-1.138795 -0.044189539 -1.4307017 234 88 12
-1.1697522 -0.076261096 -1.6972487 234 88 12
-1.1311899 -0.045369919 -1.3736937 234 88 12
-1.1351876 -0.052864734 -1.4112508 234 88 12
-1.1582565 -0.075487949 -1.6086842 234 88 12
-1.16942 -0.090117171 -1.7076695 234 88 12
-1.1922853 -0.11513552 -1.9057872 234 88 12
-1.188597 -0.11495429 -1.877434 234 88 12
-1.1903871 -0.11801428 -1.8939754 234 88 12
-1.1962215 -0.12486259 -1.9449619 234 88 12
-1.1885408 -0.1231273 -1.8846492 234 88 12
-1.1928058 -0.12697293 -1.9208354 234 88 12
-1.195331 -0.12985283 -1.9428251 234 88 12
-1.1862817 -0.13236421 -1.8760256 234 88 12
-1.1817293 -0.13310054 -1.8419288 234 88 12
-1.1920178 -0.13781562 -1.9249557 234 88 12
-1.208879 -0.14338063 -2.0590005 234 88 12
-1.1799518 -0.13910639 -1.8339632 234 88 12
-1.130127 -0.042816412 -1.3902711 234 88 12
-1.1275318 -0.048804197 -1.3764058 234 88 12
-1.1305546 -0.055297043 -1.4048283 234 88 12
-1.1935815 -0.10710721 -1.9212966 234 88 12
-1.1965193 -0.11302821 -1.9485652 234 88 12
-1.1805357 -0.10423609 -1.821551 234 88 12
-1.1941143 -0.11514476 -1.9325891 234 88 12
-1.1900105 -0.11653515 -1.9033017 234 88 12
-1.1916463 -0.12130474 -1.9198278 234 88 12
-1.1898264 -0.12426518 -1.9089752 234 88 12
-1.1926423 -0.12737735 -1.932777 234 88 12
-1.193779 -0.13143569 -1.9449387 234 88 12
-1.1886909 -0.13150822 -1.9071224 234 88 12
-1.18679 -0.13283429 -1.8941778 234 88 12
-1.1768925 -0.13646248 -1.8237945 234 88 12
-1.1477935 -0.13306998 -1.6040522 234 88 12
-1.1396035 -0.13471051 -1.5445696 234 88 12
-1.1506811 -0.13940832 -1.6313277 234 88 12
-1.1780741 -0.14524888 -1.8405989 234 88 12
-1.2525302 -0.15340304 -2.4023769 234 88 12
-1.1280259 -0.055440992 -1.4120551 234 88 12
-1.127583 -0.059059165 -1.4120551 234 88 12
-1.1704487 -0.093512684 -1.7538075 234 88 12
-1.1943552 -0.11239044 -1.9441062 234 88 12
-1.1814501 -0.10583542 -1.8446106 234 88 12
-1.1882502 -0.11227677 -1.8996917 234 88 12
-1.1932144 -0.11721003 -1.9401082 234 88 12
-1.190563 -0.11947004 -1.9228697 234 88 12
-1.1848415 -0.11849435 -1.8804737 234 88 12
-1.1818967 -0.12127168 -1.8615661 234 88 12
-1.1918283 -0.12749161 -1.9391807 234 88 12
-1.1788245 -0.12428432 -1.8419431 234 88 12
-1.2015415 -0.13456169 -2.0159671 234 88 12
-1.185848 -0.13284869 -1.9005319 234 88 12
-1.188259 -0.13543268 -1.9203286 234 88 12
-1.1624186 -0.13094811 -1.7287804 234 88 12
-1.1563755 -0.13218087 -1.6860112 234 88 12
-1.1471621 -0.13312535 -1.6199744 234 88 12
-1.1417217 -0.13516806 -1.5822998 234 88 12
-1.1831048 -0.14384665 -1.8903911 234 88 12
-1.1538602 -0.14258501 -1.6769974 234 88 12
-1.1969861 -0.14882864 -1.9955757 234 88 12
-1.1672329 -0.14870135 -1.7794974 234 88 12
-1.2117496 -0.15232037 -2.1058395 234 88 12
-1.1832075 -0.10147541 -1.8673906 234 88 12
-1.1414384 -0.074495412 -1.5482671 234 88 12
-1.1893339 -0.10986324 -1.9180371 234 88 12
-1.140671 -0.080764011 -1.5482671 234 88 12
-1.1858431 -0.11161657 -1.8948406 234 88 12
-1.1963693 -0.1197342 -1.9764043 234 88 12
-1.1935016 -0.11985853 -1.9562078 234 88 12
-1.1777201 -0.11340783 -1.8388786 234 88 12
-1.1855853 -0.12343425 -1.9032565 234 88 12
-1.1697634 -0.11893929 -1.7873359 234 88 12
-1.1612059 -0.11807287 -1.7259949 234 88 12
-1.1773263 -0.12848304 -1.8491549 234 88 12
-1.1886133 -0.13395634 -1.9338149 234 88 12
-1.150359 -0.12546131 -1.6555979 234 88 12
-1.1453252 -0.13001905 -1.6239063 234 88 12
-1.1843258 -0.14954859 -1.9169703 234 88 12
-1.1923765 -0.1516179 -1.9757652 234 88 12
-1.2484426 -0.1535517 -2.3744111 234 88 12
-1.1388018 -0.084329776 -1.5593127 234 88 12
-1.1568892 -0.09792541 -1.6957992 234 88 12
-1.1383824 -0.090712607 -1.5618132 234 88 12
-1.1609671 -0.10555508 -1.7304308 234 88 12
-1.1532825 -0.104468 -1.67641 234 88 12
-1.1466707 -0.10428093 -1.6305623 234 88 12
-1.1631789 -0.11434248 -1.7531476 234 88 12
-1.1658219 -0.11792083 -1.7744374 234 88 12
-1.1608441 -0.11849286 -1.7405235 234 88 12
-1.1496245 -0.1199951 -1.6642644 234 88 12
-1.1437545 -0.12109701 -1.6246339 234 88 12
-1.1545594 -0.12692778 -1.7042297 234 88 12
-1.114278 -0.11993568 -1.4199638 234 88 12
-1.1377227 -0.12862879 -1.5893239 234 88 12
-1.1135699 -0.12717183 -1.4211911 234 88 12
-1.1807829 -0.14166494 -1.8979034 234 88 12
-1.1637118 -0.14126714 -1.7796023 234 88 12
-1.1890889 -0.14638536 -1.9592924 234 88 12
-1.1737242 -0.14676885 -1.8534435 234 88 12
-1.16327 -0.14820917 -1.7824211 234 88 12
-1.1818955 -0.15296535 -1.9151493 234 88 12
-1.1168354 -0.080402128 -1.4281127 234 88 12
-1.1343757 -0.09302099 -1.5568868 234 88 12
-1.127878 -0.093226321 -1.5132132 234 88 12
-1.1614726 -0.11173801 -1.7551798 234 88 12
-1.1172214 -0.095616877 -1.4432831 234 88 12
-1.111558 -0.097076826 -1.4062757 234 88 12
-1.1109006 -0.10065701 -1.4047971 234 88 12
-1.1220692 -0.10828411 -1.4864558 234 88 12
-1.1087486 -0.10758694 -1.3959996 234 88 12
-1.1092751 -0.11156392 -1.4028368 234 88 12
-1.1071494 -0.1147932 -1.3911606 234 88 12
-1.1086023 -0.11895677 -1.4044026 234 88 12
-1.1151011 -0.1240877 -1.4524901 234 88 12
-1.1074893 -0.12624481 -1.4029117 234 88 12
-1.1114746 -0.13062467 -1.4334199 234 88 12
-1.1656975 -0.15260734 -1.8174398 234 88 12
-1.2410812 -0.15377307 -2.3270504 234 88 12
-1.1114259 -0.086534142 -1.4202923 234 88 12
-1.1027629 -0.10242742 -1.3760123 234 88 12
-1.1055595 -0.10721265 -1.3983067 234 88 12
-1.1062871 -0.11124122 -1.4063532 234 88 12
-1.1028427 -0.11412649 -1.3859767 234 88 12
-1.1012211 -0.1175905 -1.3780825 234 88 12
-1.1032969 -0.12188661 -1.3952312 234 88 12
-1.1016058 -0.12536198 -1.3868883 234 88 12
-1.0997648 -0.12887496 -1.3775878 234 88 12
-1.1827006 -0.14387505 -1.9363762 234 88 12
-1.1208003 -0.13882782 -1.5242766 234 88 12
-1.1135753 -0.14147921 -1.4787914 234 88 12
-1.1028733 -0.1442482 -1.4104811 234 88 12
-1.1640371 -0.15019815 -1.8184538 234 88 12
-1.1657929 -0.15239862 -1.831803 234 88 12
-1.0977076 -0.11714115 -1.3786722 234 88 12
-1.1004678 -0.12157886 -1.3999538 234 88 12
-1.0973725 -0.12861642 -1.3855623 234 88 12
-1.0994244 -0.13269855 -1.402 234 88 12
-1.1005329 -0.13655587 -1.4121832 234 88 12
-1.1000863 -0.14020415 -1.4121832 234 88 12
-1.101761 -0.14398551 -1.4259539 234 88 12
-1.1663799 -0.15012941 -1.8471036 234 88 12
-1.1259197 -0.15157393 -1.5875793 234 88 12
-1.0940508 -0.12820974 -1.3872916 234 88 12
-1.0995629 -0.13641053 -1.4283371 234 88 12
-1.0991228 -0.14000639 -1.4283371 234 88 12
-1.0947131 -0.14334834 -1.4031359 234 88 12
-1.0918967 -0.14693905 -1.3881629 234 88 12
-0.1502822 -1.2451825 -2.3286572 234 88 12
-0.14255466 -1.2256278 -2.1430395 234 88 12
-0.12817349 -1.1933144 -1.8345292 234 88 12
-0.11363962 -1.1658007 -1.5693051 234 88 12
-0.13205718 -1.1837456 -1.7719904 234 88 12
-0.13206145 -1.190869 -1.8345788 234 88 12
-0.12943289 -1.1896335 -1.8208971 234 88 12
-0.12671091 -1.188419 -1.8073002 234 88 12
-0.12518258 -1.1901537 -1.8208971 234 88 12
-0.11029961 -1.1634989 -1.5707108 234 88 12
-0.13450669 -1.1829344 -1.786343 234 88 12
-0.1364568 -1.1973143 -1.9110656 234 88 12
-0.13686411 -1.2042365 -1.9705511 234 88 12
-0.13619857 -1.2069929 -1.9933728 234 88 12
-0.12707719 -1.18801 -1.8218886 234 88 12
-0.10200452 -1.143656 -1.4172845 234 88 12
-0.13626064 -1.1957116 -1.9119091 234 88 12
-0.12804076 -1.176201 -1.7417954 234 88 12
-0.12699346 -1.1803246 -1.7749233 234 88 12
-0.10336069 -1.1357446 -1.3813069 234 88 12
-0.10114723 -1.1394621 -1.4098837 234 88 12
-0.14033161 -1.1965286 -1.9364736 234 88 12
-0.13040827 -1.1649468 -1.6720208 234 88 12
-0.13181587 -1.1793894 -1.7898672 234 88 12
-0.12507467 -1.1655997 -1.6720208 234 88 12
-0.14557447 -1.2319751 -2.2274704 234 88 12
-0.10728346 -1.1336536 -1.3968649 234 88 12
-0.10363518 -1.1341001 -1.3968649 234 88 12
-0.13312478 -1.1637653 -1.685428 234 88 12
-0.13353968 -1.1760271 -1.7820451 234 88 12
-0.1335952 -1.1845126 -1.8486848 234 88 12
-0.11539266 -1.1333696 -1.4298803 234 88 12
-0.10952751 -1.1270491 -1.3746504 234 88 12
-0.10755873 -1.1322076 -1.4132389 234 88 12
-0.10396288 -1.1326478 -1.4132389 234 88 12
-0.098657615 -1.1291779 -1.3809148 234 88 12
-0.13278504 -1.1472721 -1.578339 234 88 12
-0.13795695 -1.184469 -1.8674049 234 88 12
-0.12174863 -1.1280428 -1.4210814 234 88 12
-0.12571508 -1.1553808 -1.6336871 234 88 12
-0.11500902 -1.1302351 -1.43153 234 88 12
-0.11147262 -1.130668 -1.43153 234 88 12
-0.11127689 -1.1401544 -1.5038348 234 88 12
-0.10154798 -1.1243856 -1.3742424 234 88 12
-0.098618969 -1.1267365 -1.3894675 234 88 12
-0.15310098 -1.2518432 -2.396987 234 88 12
-0.14320028 -1.2006341 -2.0066974 234 88 12
-0.13014615 -1.1481514 -1.6040522 234 88 12
-0.12722231 -1.1485093 -1.6040522 234 88 12
-0.11778714 -1.1253127 -1.4227487 234 88 12
-0.13434011 -1.1917261 -1.9323008 234 88 12
-0.123705 -1.1653197 -1.7260051 234 88 12
-0.10521995 -1.1215386 -1.3831971 234 88 12
-0.14050291 -1.1744764 -1.824791 234 88 12
-0.13734475 -1.1693606 -1.7848525 234 88 12
-0.12845062 -1.1392215 -1.5581838 234 88 12
-0.11557764 -1.1154661 -1.3743167 234 88 12
-0.11182395 -1.1159256 -1.3743167 234 88 12
-0.10821878 -1.1168367 -1.3777273 234 88 12
-0.10030981 -1.1166476 -1.3693279 234 88 12
-0.14424871 -1.1859078 -1.9235791 234 88 12
-0.13564068 -1.1596125 -1.7299378 234 88 12
-0.12811503 -1.1364797 -1.5596271 234 88 12
-0.11130837 -1.1122332 -1.3733864 234 88 12
-0.10391432 -1.1135316 -1.3761723 234 88 12
-0.17455888 -1.103363 -1.3907402 234 88 12
-0.17050377 -1.1068611 -1.4114823 234 88 12
-0.16676894 -1.1084435 -1.4192578 234 88 12
-0.14541537 -1.1802382 -1.8973122 234 88 12
-0.14353339 -1.1804686 -1.8973122 234 88 12
-0.14235875 -1.1850909 -1.9282596 234 88 12
-0.13160408 -1.1516812 -1.6882961 234 88 12
-0.11466316 -1.108436 -1.3751347 234 88 12
-0.17803386 -1.0985366 -1.3852756 234 88 12
-0.1743075 -1.0989429 -1.3849393 234 88 12
-0.17065927 -1.0986121 -1.3796943 234 88 12
-0.16690603 -1.0990715 -1.3796943 234 88 12
-0.15909958 -1.1079849 -1.4333903 234 88 12
-0.14931896 -1.183825 -1.9370395 234 88 12
-0.14782065 -1.1869044 -1.9565802 234 88 12
-0.14577682 -1.183718 -1.9333917 234 88 12
-0.13077456 -1.1467708 -1.671703 234 88 12
-0.12111662 -1.1177214 -1.4677173 234 88 12
-0.11468577 -1.1067405 -1.3883129 234 88 12
-0.11117817 -1.1079391 -1.3935034 234 88 12
-0.18048678 -1.0998149 -1.4195592 234 88 12
-0.15847445 -1.1118269 -1.4809781 234 88 12
-0.15519008 -1.1018146 -1.4123309 234 88 12
-0.15353616 -1.2508055 -2.3930962 234 88 12
-0.15160412 -1.2016714 -2.0676615 234 88 12
-0.14331287 -1.1785269 -1.9084107 234 88 12
-0.14485475 -1.2000226 -2.0513477 234 88 12
-0.14352329 -1.2001855 -2.0513477 234 88 12
-0.12843017 -1.1345727 -1.6066712 234 88 12
-0.12517312 -1.1335754 -1.5974699 234 88 12
-0.110129 -1.1023859 -1.3797406 234 88 12
-0.17716378 -1.0923336 -1.3913809 234 88 12
-0.17349079 -1.0923761 -1.3887588 234 88 12
-0.16995342 -1.0908719 -1.3762785 234 88 12
-0.16617002 -1.0914009 -1.3767029 234 88 12
-0.16230242 -1.0935447 -1.3874651 234 88 12
-0.15856464 -1.0940022 -1.3874651 234 88 12
-0.15475239 -1.1041143 -1.4496052 234 88 12
-0.15145636 -1.1184015 -1.5390514 234 88 12
-0.15154473 -1.2025539 -2.0812685 234 88 12
-0.14767161 -1.1605064 -1.807325 234 88 12
-0.12125229 -1.098893 -1.3895509 234 88 12
-0.12364775 -1.1257557 -1.564501 234 88 12
-0.11419667 -1.1013831 -1.4000292 234 88 12
-0.10956389 -1.0984954 -1.3777725 234 88 12
-0.18064882 -1.0875551 -1.3868047 234 88 12
-0.1656675 -1.0893251 -1.3864038 234 88 12
-0.16130784 -1.101904 -1.4622816 234 88 12
-0.15760663 -1.1105372 -1.5138112 234 88 12
-0.15439419 -1.0964952 -1.4228784 234 88 12
-0.15238954 -1.1874119 -1.9940504 234 88 12
-0.14750244 -1.159657 -1.8154446 234 88 12
-0.14204247 -1.1816773 -1.9499488 234 88 12
-0.13763013 -1.1669767 -1.8539416 234 88 12
-0.12975305 -1.138898 -1.6709902 234 88 12
-0.1259774 -1.1346157 -1.6411033 234 88 12
-0.11315839 -1.0955991 -1.3854394 234 88 12
-0.17524034 -1.0940186 -1.4450705 234 88 12
-0.17195182 -1.0922148 -1.4314749 234 88 12
-0.16895558 -1.0861294 -1.391717 234 88 12
-0.15746386 -1.0990309 -1.4625485 234 88 12
-0.15396437 -1.1080271 -1.5153441 234 88 12
-0.15047747 -1.0983174 -1.4528828 234 88 12
-0.149297 -1.1536924 -1.7932154 234 88 12
-0.14925626 -1.1882915 -2.0063858 234 88 12
-0.14652082 -1.1744457 -1.9190044 234 88 12
-0.14511983 -1.1784391 -1.9425554 234 88 12
-0.14357311 -1.180046 -1.9512901 234 88 12
-0.143608 -1.191306 -2.0207009 234 88 12
-0.13391402 -1.1457999 -1.7329791 234 88 12
-0.13027176 -1.1404793 -1.6974469 234 88 12
-0.11780926 -1.0975569 -1.4235579 234 88 12
-0.17591405 -1.0827246 -1.3983248 234 88 12
-0.17225912 -1.0826042 -1.3949013 234 88 12
-0.16871786 -1.0808934 -1.3819712 234 88 12
-0.1649138 -1.0817721 -1.384462 234 88 12
-0.15684824 -1.1067789 -1.5293034 234 88 12
-0.15139417 -1.1545007 -1.8130472 234 88 12
-0.14775032 -1.1889337 -2.017993 234 88 12
-0.14460023 -1.1739188 -1.9251262 234 88 12
-0.13980554 -1.1667223 -1.8781912 234 88 12
-0.11698353 -1.0924277 -1.4133407 234 88 12
-0.16818514 -1.0790274 -1.3923899 234 88 12
-0.15686986 -1.0845313 -1.4167055 234 88 12
-0.15341192 -1.1745517 -1.9456278 234 88 12
-0.15141979 -1.1636794 -1.8800056 234 88 12
-0.15108365 -1.199762 -2.0927703 234 88 12
-0.14451243 -1.1531452 -1.8128276 234 88 12
-0.14440496 -1.1723235 -1.9259659 234 88 12
-0.13997458 -1.1674329 -1.8938936 234 88 12
-0.13879228 -1.1717894 -1.9187577 234 88 12
-0.12093187 -1.0921359 -1.4356303 234 88 12
-0.1171084 -1.0915192 -1.4292271 234 88 12
-0.16405359 -1.0758239 -1.392172 234 88 12
-0.15841375 -1.1264957 -1.6811329 234 88 12
-0.15591772 -1.1147219 -1.611298 234 88 12
-0.15300566 -1.1240588 -1.6632177 234 88 12
-0.15136933 -1.1682872 -1.9177595 234 88 12
-0.14960915 -1.1700609 -1.9267685 234 88 12
-0.14551716 -1.1650301 -1.8947879 234 88 12
-0.14308822 -1.1606735 -1.8678824 234 88 12
-0.13947384 -1.1489216 -1.7973826 234 88 12
-0.13818136 -1.1678405 -1.9058446 234 88 12
-0.12091271 -1.0908134 -1.4483037 234 88 12
-0.15957254 -1.0822335 -1.4462394 234 88 12
-0.15557821 -1.1134737 -1.6204116 234 88 12
-0.15282318 -1.1392751 -1.7646396 234 88 12
-0.15088508 -1.1562623 -1.8595104 234 88 12
-0.14944074 -1.1690212 -1.9307746 234 88 12
-0.14521021 -1.1622373 -1.8894179 234 88 12
-0.14355439 -1.1794208 -1.9855965 234 88 12
-0.13398793 -1.1279882 -1.6876537 234 88 12
-0.15520129 -1.1160271 -1.6502939 234 88 12
-0.15223297 -1.0993011 -1.5554343 234 88 12
-0.14777075 -1.1377379 -1.7657576 234 88 12
-0.14834592 -1.1802746 -2.0022612 234 88 12
-0.14589424 -1.1860758 -2.0327966 234 88 12
-0.1401609 -1.1537738 -1.849599 234 88 12
-0.13447252 -1.1456602 -1.8006978 234 88 12
-0.11873586 -1.0773602 -1.4108868 234 88 12
-0.15497188 -1.1052529 -1.6066277 234 88 12
-0.15201081 -1.1077976 -1.6185033 234 88 12
-0.14893262 -1.1634963 -1.9195497 234 88 12
-0.14747332 -1.1690037 -1.9485481 234 88 12
-0.13544685 -1.1181061 -1.6635671 234 88 12
-0.13522008 -1.1350625 -1.7556878 234 88 12
-0.12496187 -1.0904562 -1.5061202 234 88 12
-0.12015637 -1.0834223 -1.4646428 234 88 12
-0.15449195 -1.1250728 -1.7278039 234 88 12
-0.15166363 -1.102973 -1.6080201 234 88 12
-0.15042289 -1.1571288 -1.8962132 234 88 12
-0.14639631 -1.1551466 -1.8830049 234 88 12
-0.14244966 -1.1556298 -1.8830049 234 88 12
-0.14382128 -1.1811124 -2.0198896 234 88 12
-0.13675825 -1.1446967 -1.8209435 234 88 12
-0.12837812 -1.1093029 -1.6265899 234 88 12
-0.15431792 -1.1013172 -1.6164999 234 88 12
-0.15217224 -1.1574814 -1.9091423 234 88 12
-0.13242042 -1.0948685 -1.5687113 234 88 12
-0.15030806 -1.2332791 -2.3047445 234 88 12
-0.15642987 -1.1227689 -1.7430733 234 88 12
-0.15394817 -1.1174192 -1.7140328 234 88 12
-0.15184203 -1.1481092 -1.8703575 234 88 12
-0.14928089 -1.1332853 -1.7925997 234 88 12
-0.14530845 -1.142718 -1.8385561 234 88 12
-0.1451721 -1.1645201 -1.9504644 234 88 12
-0.1434409 -1.164732 -1.9504644 234 88 12
-0.13508272 -1.1148055 -1.6887447 234 88 12
-0.15703793 -1.0746214 -1.5131756 234 88 12
-0.15366572 -1.1151117 -1.7152474 234 88 12
-0.15080297 -1.1011392 -1.6430312 234 88 12
-0.1482823 -1.1596124 -1.9362992 234 88 12
-0.14688393 -1.165029 -1.9627469 234 88 12
-0.13794914 -1.1161814 -1.7109416 234 88 12
-0.1605916 -1.0550753 -1.4350525 234 88 12
-0.15680315 -1.0640095 -1.476985 234 88 12
-0.14574333 -1.1167659 -1.731445 234 88 12
-0.14028448 -1.113539 -1.7121636 234 88 12
-0.13930173 -1.1283482 -1.7848788 234 88 12
-0.16036779 -1.0465692 -1.4112104 234 88 12
-0.15655626 -1.0519021 -1.4348687 234 88 12
-0.15295696 -1.0680472 -1.5112187 234 88 12
-0.1500919 -1.0919412 -1.6256781 234 88 12
-0.14839497 -1.1237804 -1.7794582 234 88 12
-0.14433756 -1.094999 -1.6371192 234 88 12
-0.14357686 -1.1234534 -1.7750013 234 88 12
-0.13917066 -1.10245 -1.6702687 234 88 12
-0.16362444 -1.0444285 -1.4207048 234 88 12
-0.15999699 -1.0420935 -1.407433 234 88 12
-0.15621893 -1.0439391 -1.4140385 234 88 12
-0.1524827 -1.0443964 -1.4140385 234 88 12
-0.14894731 -1.0535606 -1.4557378 234 88 12
-0.14530247 -1.0524477 -1.4482921 234 88 12
-0.14159772 -1.0512633 -1.4404706 234 88 12
-0.13790955 -1.051057 -1.4373294 234 88 12
-0.13386898 -1.0473924 -1.4174662 234 88 12
-0.16326101 -1.0402693 -1.4183779 234 88 12
-0.15206763 -1.0397077 -1.4093134 234 88 12
-0.14459604 -1.0417895 -1.4147911 234 88 12
-0.14132571 -1.0500867 -1.4518481 234 88 12
-0.13704497 -1.0417877 -1.4104459 234 88 12
-0.16548087 -1.0550336 -1.5049232 234 88 12
-0.16281149 -1.0380299 -1.424996 234 88 12
-0.15918101 -1.035427 -1.4109421 234 88 12
-0.1516543 -1.0357643 -1.4082488 234 88 12
-0.16625004 -1.0319571 -1.4162267 234 88 12
-0.1625305 -1.031716 -1.4130688 234 88 12
-0.15868092 -1.0360519 -1.430591 234 88 12
-0.14381818 -1.0359124 -1.4217108 234 88 12
-0.16947936 -1.0297594 -1.4249688 234 88 12
-0.16586572 -1.0282251 -1.416157 234 88 12
-0.14752558 -1.0454333 -1.4828634 234 88 12
-0.14392331 -1.0437346 -1.4733251 234 88 12
-0.16907562 -1.026461 -1.426705 234 88 12
-0.15796459 -1.025031 -1.4144725 234 88 12
-0.15043196 -1.0260921 -1.4150819 234 88 12
-0.14297824 -1.0286388 -1.4222482 234 88 12
-0.16763192 -1.0391374 -1.4967909 234 88 12
-0.16490734 -1.0244964 -1.4322064 234 88 12
-0.15746291 -1.0271585 -1.4397579 234 88 12
-0.14634642 -1.0259928 -1.4288614 234 88 12
-0.16800323 -1.0241057 -1.4480385 234 88 12
-0.16466497 -1.01779 -1.4195031 234 88 12
-0.15714699 -1.0183669 -1.4180466 234 88 12
-0.1496103 -1.0191349 -1.4173907 234 88 12
-0.14652464 -1.0403553 -1.5058399 234 88 12
-0.16410905 -1.0177875 -1.4350952 234 88 12
-0.1566993 -1.0180012 -1.4322 234 88 12
-0.15297343 -1.0163218 -1.4232823 234 88 12
-0.14921948 -1.0167813 -1.4232823 234 88 12
-0.026305458 1.3468485 -1.1957402 234 88 12
-0.03051142 1.3482997 -1.2091839 234 88 12
-0.036293719 1.3570091 -1.2829021 234 88 12
-0.037898093 1.3475009 -1.2052543 234 88 12
-0.0529733 1.4130226 -1.7496821 234 88 12
-0.059728008 1.4389763 -1.9656147 234 88 12
-0.058991838 1.4172696 -1.7867745 234 88 12
-0.060071636 1.4055996 -1.6911529 234 88 12
-0.022928027 1.3455949 -1.2121351 234 88 12
-0.026282849 1.344076 -1.2011237 234 88 12
-0.030600343 1.3460444 -1.2184159 234 88 12
-0.035035577 1.3490692 -1.2442204 234 88 12
-0.04229933 1.3488122 -1.2446926 234 88 12
-0.056381527 1.4226905 -1.8420976 234 88 12
-0.054557029 1.3927199 -1.6011007 234 88 12
-0.058784217 1.4141146 -1.7741572 234 88 12
-0.022546608 1.3416502 -1.2077922 234 88 12
-0.026227748 1.3412025 -1.2055417 234 88 12
-0.039230146 1.3655556 -1.400463 234 88 12
-0.043387976 1.3709121 -1.4437768 234 88 12
-0.048032004 1.3810043 -1.5243015 234 88 12
-0.055798311 1.4175934 -1.8131554 234 88 12
-0.054877933 1.3943666 -1.6311544 234 88 12
-0.022740522 1.3512065 -1.3070093 234 88 12
-0.02204828 1.3372827 -1.2004887 234 88 12
-0.02585968 1.3371882 -1.2010335 234 88 12
-0.030311905 1.3397303 -1.2219155 234 88 12
-0.033539895 1.3373162 -1.2045584 234 88 12
-0.043723732 1.3707652 -1.4632773 234 88 12
-0.049263321 1.3868827 -1.588151 234 88 12
-0.049930234 1.3737643 -1.4882311 234 88 12
-0.062748924 1.4646853 -2.1865458 234 88 12
-0.019084623 1.3372861 -1.2254071 234 88 12
-0.056578811 1.4214875 -1.8651243 234 88 12
-0.018291283 1.33207 -1.2119515 234 88 12
-0.022155389 1.3322449 -1.2144477 234 88 12
-0.025926003 1.3321297 -1.2148032 234 88 12
-0.030037817 1.3334717 -1.225875 234 88 12
-0.03417065 1.3352841 -1.2403786 234 88 12
-0.046805304 1.3683922 -1.4854181 234 88 12
-0.048610222 1.36067 -1.4297678 234 88 12
-0.023907032 1.335772 -1.2646334 234 88 12
-0.027811062 1.3368368 -1.273417 234 88 12
-0.039498944 1.35865 -1.4322298 234 88 12
-0.042823378 1.3602784 -1.444844 234 88 12
-0.046948683 1.3676043 -1.4982424 234 88 12
-0.013907704 1.3248605 -1.2086794 234 88 12
-0.018398862 1.3270051 -1.2249565 234 88 12
-0.040101781 1.3829875 -1.6209364 234 88 12
-0.038230669 1.3643585 -1.4907866 234 88 12
-0.036916677 1.3439552 -1.3484626 234 88 12
-0.044735849 1.3691127 -1.5258244 234 88 12
-0.055889726 1.4240657 -1.9114532 234 88 12
-0.014121482 1.3227687 -1.2182916 234 88 12
-0.019694731 1.3286841 -1.2601864 234 88 12
-0.024766294 1.3338488 -1.2968253 234 88 12
-0.042749204 1.3826108 -1.6339034 234 88 12
-0.04204962 1.3674541 -1.5305759 234 88 12
-0.047502067 1.3831559 -1.6390183 234 88 12
-0.049996689 1.3843867 -1.6481295 234 88 12
-0.01902936 1.3238187 -1.2498517 234 88 12
-0.021692654 1.319936 -1.2247747 234 88 12
-0.026016057 1.3221171 -1.2405459 234 88 12
-0.042664777 1.380669 -1.6351573 234 88 12
-0.052039523 1.4079225 -1.8193036 234 88 12
-0.062229875 1.4648982 -2.2015524 234 88 12
-0.01983293 1.3240027 -1.273358 234 88 12
-0.021882402 1.3180226 -1.2349696 234 88 12
-0.032740846 1.3475296 -1.4303269 234 88 12
-0.049960185 1.4127064 -1.8599249 234 88 12
-0.056711931 1.4395975 -2.0370724 234 88 12
-0.063829876 1.4759874 -2.2762215 234 88 12
-0.039839126 1.3845513 -1.6864823 234 88 12
-0.04197811 1.3844583 -1.6864823 234 88 12
-0.049134258 1.4078234 -1.8375603 234 88 12
-0.015193569 0.10297864 -1.8437084 234 88 12
-0.019524103 0.10827003 -1.7981678 234 88 12
-0.024019185 0.11270541 -1.7599944 234 88 12
-0.0092093693 0.10867056 -1.7630162 234 88 12
-0.013236864 0.11156785 -1.7372352 234 88 12
-0.017078236 0.11195733 -1.7337695 234 88 12
-0.0244844 0.11112151 -1.7412069 234 88 12
-0.027934575 0.10987599 -1.7522899 234 88 12
-0.017020021 0.10779347 -1.7371655 234 88 12
-0.020614613 0.10682118 -1.7461207 234 88 12
-0.0056583858 0.10373707 -1.7397825 234 88 12
-0.0094861584 0.10434774 -1.7339534 234 88 12
-0.013237794 0.10401124 -1.7371655 234 88 12
-0.017078236 0.104367 -1.7337695 234 88 12
-0.020636383 0.10318191 -1.7450817 234 88 12
-0.024578724 0.1039869 -1.7373977 234 88 12
-0.020797381 0.10020556 -1.7373977 234 88 12
-0.027614307 0.097570553 -1.7634993 234 88 12
-0.0018126757 0.092446461 -1.7783452 234 88 12
-0.0056042965 0.09527304 -1.7492481 234 88 12
-0.016245343 0.092056938 -1.7823551 234 88 12
-0.020542266 0.095241413 -1.7495737 234 88 12
-0.024537692 0.096263252 -1.7390548 234 88 12
-0.027911711 0.094899818 -1.7530901 234 88 12
-0.0056442586 0.092189558 -1.7422547 234 88 12
-0.0095019108 0.093118727 -1.7322993 234 88 12
-0.01707324 0.092954308 -1.734061 234 88 12
-0.0094709275 0.089026712 -1.7355527 234 88 12
-0.020838637 0.089037806 -1.7354287 234 88 12
0.0018920623 0.085142799 -1.7366673 234 88 12
-0.0018856598 0.084854692 -1.7400286 234 88 12
-0.0056323884 0.084485821 -1.7443321 234 88 12
-0.0094709275 0.085238345 -1.7355527 234 88 12
-0.016938532 0.084692657 -1.741919 234 88 12
-0.023958109 0.082931913 -1.7624609 234 88 12
0.0045667579 0.065456867 -1.9308174 234 88 12
0.001822588 0.078371286 -1.7731413 234 88 12
-0.0018179517 0.078171924 -1.7755754 234 88 12
-0.0090200827 0.077572711 -1.7828913 234 88 12
-0.015823407 0.075600728 -1.8069679 234 88 12
-0.019922191 0.077877663 -1.7791681 234 88 12
0.0036132319 0.049380835 -2.0976844 234 88 12
-0.0014620177 0.059942726 -1.9624407 234 88 12
-0.0074169668 0.06081913 -1.9512185 234 88 12
-0.012307094 0.072084412 -1.8069679 234 88 12
-0.020211563 0.075334005 -1.7653573 234 88 12
0.0050031627 0.03902467 -2.2046678 234 88 12
0.0039585838 0.051461592 -2.0372479 234 88 12
0.0017169635 0.066961572 -1.8285942 234 88 12
-0.0026998231 0.035097703 -2.2575309 234 88 12
-0.0072298408 0.056392759 -1.9708667 234 88 12
-0.010121777 0.056392759 -1.9708667 234 88 12
-0.013997394 0.06065537 -1.9134854 234 88 12
-0.019887023 0.070508532 -1.7808466 234 88 12
0.0078942319 0.058417313 -1.9011056 234 88 12
0.003551723 0.043804582 -2.1084485 234 88 12
-0.001319528 0.048822533 -2.0372479 234 88 12
-0.0030708606 0.037873946 -2.1925993 234 88 12
-0.0046028052 0.034060758 -2.2467055 234 88 12
-0.0092518413 0.048902586 -2.0361118 234 88 12
-0.0092826588 0.038162041 -2.1885116 234 88 12
0.0078942319 0.055259623 -1.9011056 234 88 12
0.0033293616 0.038842551 -2.1473618 234 88 12
0.00086018955 0.030106634 -2.2784004 234 88 12
-0.0009399525 0.032898337 -2.2365251 234 88 12
-0.0056026974 0.039218884 -2.1417167 234 88 12
-0.014627566 0.056884978 -1.8767253 234 88 12
0.0090407412 0.042620637 -2.0519445 234 88 12
0.0049335887 0.032561686 -2.2119732 234 88 12
0.0026845161 0.029529678 -2.2602096 234 88 12
0.00096930162 0.031986956 -2.2211165 234 88 12
-0.00090961566 0.030017316 -2.2524519 234 88 12
-0.0034964439 0.038460884 -2.1181223 234 88 12
-0.0048038564 0.03170545 -2.225595 234 88 12
-0.010047616 0.047367334 -1.9764287 234 88 12
-0.015617486 0.057264116 -1.81898 234 88 12
0.016759224 0.057726219 -1.7523786 234 88 12
0.010005131 0.044308439 -1.9796151 234 88 12
0.0072937249 0.045221094 -1.9641589 234 88 12
0.0028526895 0.02947779 -2.2307794 234 88 12
-0.00086742139 0.026890064 -2.2746038 234 88 12
-0.0071147149 0.031508021 -2.1963964 234 88 12
-0.015599749 0.05373247 -1.8200146 234 88 12
0.020540847 0.054153141 -1.7496414 234 88 12
0.014444271 0.046542652 -1.8874176 234 88 12
0.0096770013 0.040090431 -2.004225 234 88 12
0.0052614645 0.030516494 -2.1775463 234 88 12
0.0023996402 0.02319652 -2.3100629 234 88 12
-0.0051611611 0.029934734 -2.1880782 234 88 12
-0.010369926 0.042961121 -1.9522556 234 88 12
-0.012430958 0.040055308 -2.0048609 234 88 12
-0.019731909 0.05202049 -1.7882497 234 88 12
0.019966783 0.049009379 -1.7770399 234 88 12
0.015081561 0.045244686 -1.8502423 234 88 12
0.0094425138 0.036421124 -2.0218115 234 88 12
0.0009299271 0.025108032 -2.2417884 234 88 12
-0.00099402596 0.026838701 -2.2081363 234 88 12
-0.012133138 0.046799246 -1.8200146 234 88 12
-0.012717304 0.038151912 -1.9881573 234 88 12
-0.014944912 0.036682967 -2.0167201 234 88 12
-0.024426585 0.050732139 -1.7435417 234 88 12
0.019823821 0.045054141 -1.7838631 234 88 12
0.016759224 0.046553403 -1.7523786 234 88 12
0.012618212 0.045065042 -1.7836341 234 88 12
0.0027897812 0.023248177 -2.2417884 234 88 12
-0.00097729533 0.024432383 -2.2169199 234 88 12
-0.0027837593 0.023197994 -2.2428422 234 88 12
-0.0047384673 0.023692336 -2.232461 234 88 12
-0.01064718 0.038025647 -1.9314615 234 88 12
-0.013552122 0.037644785 -1.9394596 234 88 12
-0.017938722 0.040769823 -1.8738337 234 88 12
-0.024703819 0.047507346 -1.7323457 234 88 12
-0.032154206 0.047285598 -1.7370025 234 88 12
0.02009913 0.042025454 -1.7707233 234 88 12
0.016013447 0.040923253 -1.7958822 234 88 12
0.0089635747 0.029451745 -2.0577319 234 88 12
0.0057238392 0.026329661 -2.1289968 234 88 12
0.0023352411 0.017903514 -2.3213329 234 88 12
0.0009757771 0.022442874 -2.2177169 234 88 12
-0.00087833207 0.020201636 -2.2688756 234 88 12
-0.0032561526 0.024963837 -2.1601732 234 88 12
-0.0058425721 0.026875831 -2.1165299 234 88 12
-0.012386411 0.040698212 -1.8010191 234 88 12
-0.014691429 0.037544765 -1.8729999 234 88 12
-0.019334655 0.040427007 -1.8072096 234 88 12
-0.024543535 0.04342318 -1.7388188 234 88 12
-0.035697132 0.043212317 -1.7436318 234 88 12
0.020265311 0.038688321 -1.762792 234 88 12
0.0116251 0.027125232 -2.0518692 234 88 12
0.0094084656 0.028225398 -2.0243649 234 88 12
0.0045581455 0.019144213 -2.2513947 234 88 12
0.0025616754 0.017931728 -2.2817068 234 88 12
-0.00097518001 0.020478779 -2.2180305 234 88 12
-0.0027202235 0.019041564 -2.2539608 234 88 12
-0.003782029 0.015884522 -2.3328869 234 88 12
-0.0091925189 0.027577557 -2.040561 234 88 12
-0.014537182 0.033920091 -1.8819977 234 88 12
-0.020242361 0.038644508 -1.7638873 234 88 12
-0.024593376 0.039727759 -1.736806 234 88 12
-0.036021553 0.039813295 -1.7346675 234 88 12
-0.038324941 0.038324941 -1.7718765 234 88 12
0.020343767 0.035139237 -1.7590474 234 88 12
0.014125185 0.029819835 -1.9060309 234 88 12
0.0081131291 0.022021351 -2.1215153 234 88 12
0.0057284115 0.021767965 -2.1285167 234 88 12
0.00268587 0.01701051 -2.2599728 234 88 12
0.0009518817 0.018085752 -2.230262 234 88 12
-0.0011040157 0.020976299 -2.1503918 234 88 12
-0.0040248698 0.025490841 -2.0256479 234 88 12
-0.0056799166 0.021583684 -2.1336088 234 88 12
-0.010319161 0.021784896 -2.1280489 234 88 12
-0.020767607 0.035871323 -1.7388188 234 88 12
-0.02853754 0.03614755 -1.7311862 234 88 12
-0.035970263 0.035970263 -1.7360848 234 88 12
-0.038857102 0.035156425 -1.7585725 234 88 12
0.022971742 0.030039972 -1.802295 234 88 12
0.020340145 0.031434771 -1.7592204 234 88 12
0.016606137 0.031367145 -1.7613087 234 88 12
0.012847437 0.031200917 -1.7664423 234 88 12
0.0058163404 0.019775558 -2.1192842 234 88 12
0.002551646 0.014459327 -2.283462 234 88 12
0.00092766277 0.015770268 -2.2429771 234 88 12
-0.00091346231 0.015528859 -2.2504323 234 88 12
-0.0027490219 0.015577791 -2.2489212 234 88 12
-0.0057328674 0.019491749 -2.1280489 234 88 12
-0.011426668 0.027750477 -1.8729999 234 88 12
-0.012657176 0.023907999 -1.9916648 234 88 12
-0.020927174 0.032341994 -1.7312031 234 88 12
-0.035647023 0.031894702 -1.7450165 234 88 12
0.024566056 0.028345449 -1.7379093 234 88 12
0.015989915 0.02180443 -1.9668449 234 88 12
0.0097693028 0.016282171 -2.1601241 234 88 12
0.0021455151 0.010727576 -2.3545349 234 88 12
0.00099009578 0.014851437 -2.2101996 234 88 12
-0.00064099266 0.0096148895 -2.3934789 234 88 12
-0.002814688 0.01407344 -2.2374296 234 88 12
-0.0040889676 0.006814946 -2.4914768 234 88 12
-0.019498883 0.026589384 -1.7993715 234 88 12
-0.028096974 0.028096974 -1.7466059 234 88 12
-0.038474675 0.027481912 -1.768133 234 88 12
0.028047124 0.024307508 -1.7483506 234 88 12
0.020751279 0.024524238 -1.739598 234 88 12
0.012657817 0.018283512 -1.9916273 234 88 12
0.0047459193 0.01233939 -2.2316785 234 88 12
0.0029934314 0.012971536 -2.2061496 234 88 12
0.00093099609 0.012102949 -2.2412271 234 88 12
-0.00084185717 0.010944144 -2.2880249 234 88 12
-0.023845468 0.023845468 -1.76701 234 88 12
-0.027840907 0.024128785 -1.7555683 234 88 12
-0.030987134 0.023696044 -1.7730443 234 88 12
0.028398955 0.0208259 -1.7360365 234 88 12
0.024201531 0.020478217 -1.7526305 234 88 12
0.020905713 0.020905713 -1.7322273 234 88 12
0.012986101 0.015871901 -1.9724774 234 88 12
0.0068084407 0.014978569 -2.0151138 234 88 12
-0.00097844389 0.010762882 -2.2163169 234 88 12
0.031934917 0.01690672 -1.7437747 234 88 12
0.013799429 0.011290441 -2.0713909 234 88 12
0.011247126 0.011247126 -2.0739176 234 88 12
0.0062428922 0.0080265757 -2.2617831 234 88 12
0.0024946325 0.0074838977 -2.2934394 234 88 12
0.00058239826 0.0052415845 -2.4242408 234 88 12
0.032184906 0.013252608 -1.7360543 234 88 12
0.028413041 0.013259419 -1.7355436 234 88 12
0.019801727 0.012601098 -1.7849176 234 88 12
0.014024373 0.010907846 -1.9119116 234 88 12
0.009532108 0.009532108 -2.0150919 234 88 12
0.0053800624 0.0075320872 -2.1650934 234 88 12
0.0019505558 0.0045512971 -2.3886528 234 88 12
0.035650652 0.0093817497 -1.7449162 234 88 12
0.028468719 0.0094895726 -1.7335949 234 88 12
0.019265655 0.0087571163 -1.8105028 234 88 12
0.015798271 0.0087768175 -1.8084341 234 88 12
0.010309793 0.007364138 -1.9567655 234 88 12
0.0063200081 0.0063200081 -2.0663991 234 88 12
0.035767063 0.0056474311 -1.7416996 234 88 12
0.031916257 0.0056322808 -1.7443509 234 88 12
0.026720883 0.0053441767 -1.794769 234 88 12
0.023308393 0.0053788596 -1.7886995 234 88 12
0.019595314 0.0053441767 -1.794769 234 88 12
0.006711503 0.0022371677 -2.3384957 234 88 12
0.007742485 0.003318208 -2.1493137 234 88 12
0.0052500567 0.003150034 -2.1787441 234 88 12
0.03139757 0.0018469159 -1.7603692 234 88 12
0.017347921 0.001156528 -2.1228228 234 88 12
0.012947132 0.001177012 -2.1120687 234 88 12
0.013945145 0.0015494606 -1.9165332 234 88 12
0.0099845193 0.0014263599 -1.981161 234 88 12
0.039579749 -0.00188475 -1.7405063 234 88 12
0.03139757 -0.0018469159 -1.7603692 234 88 12
0.015034864 -0.001156528 -2.1228228 234 88 12
0.014776831 -0.0013433483 -2.0247421 234 88 12
0.007319666 -0.0010456665 -2.181025 234 88 12
0.035389494 -0.0055878148 -1.7521324 234 88 12
0.029701481 -0.0052414378 -1.8127484 234 88 12
0.017347921 -0.003469584 -2.1228228 234 88 12
0.011303904 -0.0030828831 -2.1904955 234 88 12
0.0081972014 -0.0027324003 -2.2518299 234 88 12
0.035433576 -0.0093246251 -1.7509143 234 88 12
0.025823005 -0.0075950017 -1.9325248 234 88 12
0.016422179 -0.0054740594 -2.1552238 234 88 12
0.01391653 -0.0053525111 -2.1679864 234 88 12
0.011506453 -0.0052302061 -2.1808283 234 88 12
0.0099103777 -0.0055057658 -2.1518946 234 88 12
0.01775481 -0.0073108035 -2.1816897 234 88 12
0.022785004 -0.010633002 -1.9325248 234 88 12
0.0017789594 -0.0011320651 -2.6450951 234 88 12
1.4468303 -0.06516692 -2.0321732 234 88 12
1.3844905 -0.064211756 -1.5189731 234 88 12
1.4121895 -0.062345866 -1.7461807 234 88 12
1.3785843 -0.058512144 -1.4683452 234 88 12
1.4030677 -0.057766557 -1.6694993 234 88 12
1.3802567 -0.052981403 -1.4801252 234 88 12
1.3563979 -0.046731506 -1.2816082 234 88 12
1.3476226 -0.041701734 -1.2076164 234 88 12
1.3469052 -0.037778258 -1.2003109 234 88 12
1.3466719 -0.033915274 -1.1970096 234 88 12
1.3478273 -0.030389054 -1.2052543 234 88 12
1.3464962 -0.02620396 -1.1928058 234 88 12
1.3466613 -0.022406509 -1.1928058 234 88 12
1.3475773 -0.018869199 -1.1990764 234 88 12
1.3675973 -0.02255328 -1.3650955 234 88 12
1.3970963 -0.064141326 -1.6395404 234 88 12
1.3837157 -0.061481565 -1.5313033 234 88 12
1.3820618 -0.05874503 -1.5170848 234 88 12
1.3523979 -0.05352132 -1.2773623 234 88 12
1.3692673 -0.051901627 -1.4120879 234 88 12
1.3460557 -0.041832574 -1.2224226 234 88 12
1.3440135 -0.026265178 -1.2006156 234 88 12
1.3445437 -0.014946242 -1.2009219 234 88 12
1.3480814 -0.012507197 -1.2284424 234 88 12
1.3510485 -0.010019313 -1.2513714 234 88 12
1.3547156 -0.0080107236 -1.2800804 234 88 12
1.3801168 -0.058664687 -1.5209758 234 88 12
1.3932824 -0.057089273 -1.6234261 234 88 12
1.352531 -0.05020785 -1.3023131 234 88 12
1.3696835 -0.049138695 -1.4361223 234 88 12
1.3520527 -0.039730303 -1.2950085 234 88 12
1.3692594 -0.040050585 -1.4297142 234 88 12
1.3432915 -0.030556655 -1.2233547 234 88 12
1.3410677 -0.022369133 -1.2031745 234 88 12
1.3438435 -0.019461567 -1.2238995 234 88 12
1.3453836 -0.016254418 -1.2348559 234 88 12
1.3482724 -0.013648119 -1.2565665 234 88 12
1.3477043 -0.0097555667 -1.2507985 234 88 12
1.3453009 -0.0050066751 -1.2303839 234 88 12
1.3446474 -0.00094053347 -1.2238891 234 88 12
1.3438307 0.0032533368 -1.2160736 234 88 12
1.3764024 -0.010165136 -1.4754248 234 88 12
1.42159 -0.058003854 -1.8559958 234 88 12
1.3601274 -0.048063833 -1.3835132 234 88 12
1.3850373 -0.048961259 -1.5739639 234 88 12
1.376906 -0.044894006 -1.5105432 234 88 12
1.3717312 -0.041025735 -1.469756 234 88 12
1.3431926 -0.031158546 -1.2486272 234 88 12
1.362331 -0.032688383 -1.3952316 234 88 12
1.342898 -0.023725772 -1.2439115 234 88 12
1.3410554 -0.019431964 -1.2284207 234 88 12
1.3417462 -0.015923839 -1.23253 234 88 12
1.348524 -0.014760826 -1.2838824 234 88 12
1.3689142 -0.01649924 -1.4401115 234 88 12
1.340919 -0.00052007043 -1.2211022 234 88 12
1.3410808 0.0032006865 -1.2211022 234 88 12
1.3602281 -0.0029151177 -1.369296 234 88 12
1.4588009 -0.061609469 -2.1448586 234 88 12
1.3907104 -0.050121605 -1.6336446 234 88 12
1.3830477 -0.046373032 -1.5753189 234 88 12
1.3775527 -0.042678587 -1.5331666 234 88 12
1.4274752 -0.051994123 -1.9082662 234 88 12
1.3455151 -0.028789969 -1.2898846 234 88 12
1.353503 -0.02759802 -1.3490332 234 88 12
1.3902463 -0.036015846 -1.6256149 234 88 12
1.3831561 -0.031202942 -1.5712107 234 88 12
1.3794215 -0.027257716 -1.5420982 234 88 12
1.3416358 -0.0094917212 -1.2547176 234 88 12
1.3380787 -0.0042960444 -1.2265223 234 88 12
1.3666835 -0.010468628 -1.4417186 234 88 12
1.3743293 -0.011322732 -1.4989811 234 88 12
1.3669727 -0.0045631444 -1.4419602 234 88 12
1.3979924 -0.051497854 -1.702404 234 88 12
1.3945324 -0.048784524 -1.6763551 234 88 12
1.4081268 -0.04947022 -1.7755452 234 88 12
1.4054109 -0.04700638 -1.7549917 234 88 12
1.3995286 -0.043568984 -1.7110783 234 88 12
1.3562036 -0.029048871 -1.3910589 234 88 12
1.3846183 -0.034777533 -1.599743 234 88 12
1.3858618 -0.032747649 -1.608153 234 88 12
1.3773801 -0.027218526 -1.5446528 234 88 12
1.3667092 -0.02038132 -1.4648002 234 88 12
1.3902208 -0.02727877 -1.6381571 234 88 12
1.3390589 -0.0022015746 -1.2577406 234 88 12
1.3718882 -0.013984065 -1.5004801 234 88 12
1.3359178 0.0067315595 -1.2320445 234 88 12
1.4622546 -0.055680122 -2.1715822 234 88 12
1.3775371 -0.008608643 -1.5399054 234 88 12
1.4100876 -0.051853608 -1.8020219 234 88 12
1.4186993 -0.050383855 -1.8628376 234 88 12
1.4021715 -0.044612993 -1.7434601 234 88 12
1.4051085 -0.043499265 -1.7640111 234 88 12
1.4078294 -0.04246432 -1.7830508 234 88 12
1.4011692 -0.038435109 -1.7344177 234 88 12
1.4030391 -0.037124597 -1.7473168 234 88 12
1.3819971 -0.027090697 -1.5945026 234 88 12
1.3771515 -0.022618951 -1.5586437 234 88 12
1.3655187 -0.014932076 -1.4734997 234 88 12
1.3911517 -0.023853885 -1.6586341 234 88 12
1.3509862 -0.0019988217 -1.3661034 234 88 12
1.369032 -0.0079604285 -1.4963404 234 88 12
1.4025141 -0.021199964 -1.7386553 234 88 12
1.3880553 -0.010657179 -1.6325217 234 88 12
1.4002258 -0.015808376 -1.7207062 234 88 12
1.4595454 -0.06040135 -2.1596165 234 88 12
1.4096797 -0.043412026 -1.80761 234 88 12
1.4074086 -0.040944483 -1.7910658 234 88 12
1.4092059 -0.039793912 -1.8032203 234 88 12
1.402776 -0.03562269 -1.7572315 234 88 12
1.3744994 -0.022325011 -1.5565166 234 88 12
1.403343 -0.032044493 -1.7600935 234 88 12
1.4021162 -0.027648756 -1.7502306 234 88 12
1.4086159 -0.027201552 -1.7953075 234 88 12
1.3837639 -0.0092075234 -1.6169934 234 88 12
1.3838667 -0.0068419427 -1.6169934 234 88 12
1.3316008 0.028593987 -1.2427118 234 88 12
1.4445654 -0.057467867 -2.0597744 234 88 12
1.3948789 -0.045499805 -1.7181842 234 88 12
1.4143579 -0.048303172 -1.851542 234 88 12
1.4065614 -0.044608347 -1.7974045 234 88 12
1.4058595 -0.035489067 -1.7899317 234 88 12
1.4070016 -0.032399636 -1.7967879 234 88 12
1.3799378 -0.017913254 -1.6083703 234 88 12
1.3825849 -0.016770313 -1.6260424 234 88 12
1.3934364 -0.020014888 -1.7008325 234 88 12
1.3828255 -0.012113839 -1.6263024 234 88 12
1.3817761 -0.0091210995 -1.6182772 234 88 12
1.3802024 -0.0057591195 -1.6065757 234 88 12
1.3384392 0.02258051 -1.314051 234 88 12
1.3286737 0.032401659 -1.2447052 234 88 12
1.3241591 0.039205775 -1.2119765 234 88 12
1.4243627 -0.052304834 -1.9288253 234 88 12
1.4027215 -0.045720182 -1.78285 234 88 12
1.3854073 -0.037028868 -1.6650703 234 88 12
1.4039485 -0.040655833 -1.789553 234 88 12
1.3952545 -0.03590221 -1.730299 234 88 12
1.4030796 -0.03674458 -1.7826358 234 88 12
1.4012004 -0.032317732 -1.7688446 234 88 12
1.3994263 -0.029665835 -1.7562667 234 88 12
1.3961368 -0.026225109 -1.7333714 234 88 12
1.3881818 -0.020355612 -1.6787142 234 88 12
1.402544 -0.025471652 -1.7758077 234 88 12
1.40755 -0.026286218 -1.809369 234 88 12
1.368459 -0.00270491 -1.5423065 234 88 12
1.325587 0.032535866 -1.2466987 234 88 12
1.321714 0.038859285 -1.219085 234 88 12
1.3236171 0.041443795 -1.231006 234 88 12
1.3987772 -0.045068275 -1.767771 234 88 12
1.4116086 -0.046584688 -1.8518149 234 88 12
1.3958343 -0.04047779 -1.7472929 234 88 12
1.4135737 -0.044045959 -1.8639019 234 88 12
1.3957431 -0.036549035 -1.7455857 234 88 12
1.3986624 -0.035637133 -1.7643512 234 88 12
1.4099814 -0.038065359 -1.8387978 234 88 12
1.4130205 -0.037669595 -1.8584902 234 88 12
1.4031957 -0.030098747 -1.792323 234 88 12
1.3536439 0.0013041225 -1.4605238 234 88 12
1.3541011 0.0040521948 -1.4627244 234 88 12
1.3226813 0.025036575 -1.2520347 234 88 12
1.3242433 0.031587988 -1.2603574 234 88 12
1.3181552 0.043138493 -1.2174119 234 88 12
1.3196769 0.045980752 -1.2265222 234 88 12
1.3263961 0.04502606 -1.2705785 234 88 12
1.4142913 -0.047563877 -1.8783953 234 88 12
1.404864 -0.043417118 -1.8170891 234 88 12
1.3809378 -0.032142006 -1.6612895 234 88 12
1.3800024 -0.027262956 -1.6539667 234 88 12
1.3832082 -0.026247749 -1.6741412 234 88 12
1.3875227 -0.025844764 -1.70156 234 88 12
1.3960432 -0.027510433 -1.7563913 234 88 12
1.3904321 -0.018813457 -1.7181745 234 88 12
1.3999308 -0.021856382 -1.7796295 234 88 12
1.3958557 -0.017709438 -1.7524755 234 88 12
1.3264558 0.02491078 -1.2978122 234 88 12
1.3147705 0.035634704 -1.2202731 234 88 12
1.3161315 0.038657475 -1.2281185 234 88 12
1.3149761 0.043276712 -1.219465 234 88 12
1.3163987 0.046203509 -1.2277309 234 88 12
1.31594 0.050396115 -1.2236403 234 88 12
1.3176581 0.053032476 -1.2338717 234 88 12
1.3269858 -0.025501512 -1.3351855 234 88 12
1.4029676 -0.043220717 -1.8149298 234 88 12
1.3814598 -0.035037678 -1.6782702 234 88 12
1.4129514 -0.043023232 -1.8772798 234 88 12
1.3634187 -0.024382018 -1.5626074 234 88 12
1.348685 -0.016324406 -1.4683242 234 88 12
1.3867217 -0.028262818 -1.7093186 234 88 12
1.3835088 -0.024831137 -1.6883037 234 88 12
1.3895174 -0.025282314 -1.7259833 234 88 12
1.3687655 -0.013684876 -1.5931208 234 88 12
1.3752548 -0.014296973 -1.6338485 234 88 12
1.3993143 -0.024099432 -1.7868978 234 88 12
1.3604296 -0.0016837809 -1.5377555 234 88 12
1.3474272 0.0082319751 -1.4537882 234 88 12
1.3192127 0.027511805 -1.2721924 234 88 12
1.3129163 0.03883294 -1.2297593 234 88 12
1.3130809 0.042586375 -1.2297682 234 88 12
1.3115194 0.051401537 -1.2176125 234 88 12
1.3125398 0.058485866 -1.2220652 234 88 12
1.3212829 0.05572639 -1.2774642 234 88 12
1.3110582 -0.025788583 -1.2569833 234 88 12
1.3502948 -0.031962521 -1.4989476 234 88 12
1.3172958 -0.020079389 -1.2936678 234 88 12
1.405255 -0.042545114 -1.8383904 234 88 12
1.3688869 -0.029334599 -1.6121225 234 88 12
1.3400632 -0.017070666 -1.4323146 234 88 12
1.3502986 -0.017691944 -1.495171 234 88 12
1.3338755 -0.0084933266 -1.3921316 234 88 12
1.3402487 -0.0078475783 -1.430994 234 88 12
1.3604387 -0.013425099 -1.5561414 234 88 12
1.3422468 -0.0025314712 -1.4418167 234 88 12
1.3641827 -0.0098806107 -1.5781292 234 88 12
1.3602068 -0.005316677 -1.5525618 234 88 12
1.3481855 0.0036186092 -1.4765531 234 88 12
1.3725046 -0.0066298726 -1.6282341 234 88 12
1.38484 -0.01119741 -1.7050031 234 88 12
1.3791442 -0.0057105497 -1.6686559 234 88 12
1.3083905 0.039808176 -1.2231761 234 88 12
1.3081636 0.047743082 -1.219673 234 88 12
1.3090335 0.051061079 -1.2241173 234 88 12
1.3090024 0.058885273 -1.2218434 234 88 12
1.3098286 0.066080786 -1.2249879 234 88 12
1.3173749 -0.031275749 -1.3168547 234 88 12
1.3137254 -0.02695539 -1.2938159 234 88 12
1.3570188 -0.031467784 -1.5549155 234 88 12
1.3081257 -0.014562382 -1.2569622 234 88 12
1.3157256 -0.013221545 -1.3022394 234 88 12
1.3117739 -0.0083335228 -1.2772391 234 88 12
1.3116671 -0.0046388297 -1.275633 234 88 12
1.3098186 -0.00027235964 -1.2633958 234 88 12
1.4389869 -0.046615783 -2.0509827 234 88 12
1.3222923 0.01225882 -1.3350132 234 88 12
1.3720853 -0.0097464528 -1.6397005 234 88 12
1.313377 0.023968315 -1.2784317 234 88 12
1.3607674 0.001294345 -1.5688688 234 88 12
1.3061574 0.035518564 -1.2320719 234 88 12
1.3103157 0.036878768 -1.2566824 234 88 12
1.3370726 0.02397492 -1.4206914 234 88 12
1.3052796 0.047683749 -1.2236269 234 88 12
1.3100263 0.048412576 -1.2519341 234 88 12
1.3066537 0.066218823 -1.2270383 234 88 12
1.3134892 0.06478478 -1.2684511 234 88 12
1.3930857 -0.045194 -1.7851386 234 88 12
1.3308626 -0.028162152 -1.4144839 234 88 12
1.3125662 -0.020143181 -1.3047233 234 88 12
1.3004473 -0.013109492 -1.2315823 234 88 12
1.3006535 -0.0055302544 -1.2308558 234 88 12
1.3052728 0.026768323 -1.2497823 234 88 12
1.3025371 0.032057777 -1.2323233 234 88 12
1.3036475 0.035286125 -1.2380344 234 88 12
1.3434681 0.015601838 -1.4774886 234 88 12
1.3676118 0.0062279273 -1.622017 234 88 12
1.3099964 0.046530034 -1.2725304 234 88 12
1.3047214 0.057698384 -1.2386196 234 88 12
1.3039013 0.066041879 -1.231656 234 88 12
1.3201121 0.057487916 -1.3292758 234 88 12
1.2962313 -0.027971709 -1.2313386 234 88 12
1.3708436 -0.040569421 -1.6653087 234 88 12
1.3140205 -0.024622586 -1.3332119 234 88 12
1.2969801 -0.016705735 -1.2328343 234 88 12
1.2996303 -0.013636683 -1.2473658 234 88 12
1.2989206 -0.0096511086 -1.2422677 234 88 12
1.2967613 -0.005157562 -1.2286714 234 88 12
1.3025761 0.03426088 -1.2523502 234 88 12
1.2997363 0.039707787 -1.2345859 234 88 12
1.3626721 0.0056381756 -1.6065271 234 88 12
1.3365427 0.024463179 -1.4509313 234 88 12
1.2996254 0.051395163 -1.231012 234 88 12
1.3525017 0.019974131 -1.5442052 234 88 12
1.308213 0.05325805 -1.2801282 234 88 12
1.2995163 0.063159883 -1.2274289 234 88 12
1.3229389 0.049899712 -1.3659985 234 88 12
1.3463287 0.035646755 -1.5046276 234 88 12
1.30152 -0.029495781 -1.2817402 234 88 12
1.2919834 -0.023787467 -1.22631 234 88 12
1.3037788 -0.0227469 -1.2928739 234 88 12
1.3174402 -0.02266752 -1.3702451 234 88 12
1.2929987 -0.01252357 -1.2292877 234 88 12
1.2951977 -0.0055375174 -1.2400243 234 88 12
1.2973282 0.039412789 -1.2410219 234 88 12
1.2975193 0.043146651 -1.2411848 234 88 12
1.2960433 0.047903355 -1.231652 234 88 12
1.2968303 0.059055965 -1.2333632 234 88 12
1.3496361 0.026002565 -1.540644 234 88 12
1.296572 0.067034617 -1.2299349 234 88 12
1.3014518 0.067323275 -1.2575077 234 88 12
1.2912662 -0.027963845 -1.2431954 234 88 12
1.2939838 -0.024760565 -1.2575296 234 88 12
1.3071973 -0.02411929 -1.3308356 234 88 12
1.3073468 -0.020682063 -1.3308356 234 88 12
1.2893577 -0.01226013 -1.228789 234 88 12
1.2940322 -0.0060279295 -1.253271 234 88 12
1.2982721 0.044772264 -1.2645631 234 88 12
1.2930284 0.05182546 -1.2337054 234 88 12
1.294174 0.054975163 -1.2393132 234 88 12
1.2962556 0.057459027 -1.2502856 234 88 12
1.2927938 -0.028722022 -1.2709763 234 88 12
1.2903794 -0.024520617 -1.2568034 234 88 12
1.2888103 -0.020412104 -1.2472641 234 88 12
1.346413 -0.031087641 -1.5641699 234 88 12
1.2877042 -0.012538776 -1.2393601 234 88 12
1.2925432 -0.021843748 -1.2865192 234 88 12
1.2886893 -0.017241161 -1.2647934 234 88 12
