ply
format ascii 1.0
element vertex 351
property float x
property float y
property float z
property uchar red
property uchar green
property uchar blue
end_header
-0.15330495 -1.0125555 2.005486 234 88 12
-0.14379013 -1.0121418 2.005486 234 88 12
-0.13237235 -1.0116454 2.005486 234 88 12
-0.12095456 -1.0111489 2.005486 234 88 12
-0.10953677 -1.0106525 2.005486 234 88 12
-0.098118991 -1.0101562 2.005486 234 88 12
-0.090507135 -1.0098252 2.005486 234 88 12
-0.088604175 -1.0097425 2.005486 234 88 12
-0.077186391 -1.009246 2.005486 234 88 12
-0.0657686 -1.0087496 2.005486 234 88 12
-0.054350819 -1.0082532 2.005486 234 88 12
-0.088534646 -1.0113415 2.0044532 234 88 12
-0.077116862 -1.0108451 2.0044532 234 88 12
-0.065699078 -1.0103486 2.0044532 234 88 12
-1.1685853 -1.7288867 0.82710582 234 88 12
-1.1706445 -1.732864 0.81454718 234 88 12
-1.1638784 -1.736367 0.81454718 234 88 12
-1.1537294 -1.7416215 0.81454718 234 88 12
-1.152038 -1.7424972 0.81454718 234 88 12
-1.1421832 -1.74832 0.81275308 234 88 12
-1.1543179 -1.7427579 0.81095898 234 88 12
-1.171527 -1.7345685 0.80916494 234 88 12
-1.1647609 -1.7380716 0.80916494 234 88 12
-1.1563035 -1.7424502 0.80916494 234 88 12
-1.1529205 -1.7442018 0.80916494 234 88 12
-1.1427715 -1.7494563 0.80916494 234 88 12
0.14644265 -1.857425 1.2383082 234 88 12
0.13145985 -1.8603594 1.2366555 234 88 12
0.1333482 -1.86011 1.2366555 234 88 12
0.15613246 -1.858055 1.2350028 234 88 12
0.12805519 -1.8636746 1.2316973 234 88 12
0.13372025 -1.8629262 1.2316973 234 88 12
0.14505038 -1.8614293 1.2316973 234 88 12
0.15638049 -1.8599325 1.2316973 234 88 12
0.13207993 -1.8650532 1.2283918 234 88 12
0.13396829 -1.8648037 1.2283918 234 88 12
0.14554645 -1.8651843 1.2250863 234 88 12
0.10790339 -1.8711125 1.2234336 234 88 12
0.1116801 -1.8706136 1.2234336 234 88 12
0.15700059 -1.8646262 1.2234336 234 88 12
0.16656637 -1.8643175 1.2217809 234 88 12
0.1778965 -1.8628206 1.2217809 234 88 12
0.10437472 -1.8734889 1.2201282 234 88 12
0.11192814 -1.872491 1.2201282 234 88 12
0.12325826 -1.8709942 1.2201282 234 88 12
0.13458838 -1.8694973 1.2201282 234 88 12
0.1459185 -1.8680005 1.2201282 234 88 12
0.15724863 -1.8665036 1.2201282 234 88 12
0.16669039 -1.8652562 1.2201282 234 88 12
0.17424381 -1.8642583 1.2201282 234 88 12
0.17802051 -1.8637594 1.2201282 234 88 12
0.18935063 -1.8622625 1.2201282 234 88 12
0.17814453 -1.8646981 1.2184755 234 88 12
0.10663513 -1.8760556 1.2151699 234 88 12
0.18972269 -1.8650787 1.2151699 234 88 12
0.14867498 -1.8743221 1.208559 234 88 12
0.15622841 -1.8733242 1.208559 234 88 12
1.0070126 -0.92804021 1.7763571 234 88 12
1.0066257 -0.93036097 1.7750454 234 88 12
1.0106953 -0.92634958 1.7750454 234 88 12
1.0188346 -0.91832691 1.7750454 234 88 12
1.0215478 -0.91565269 1.7750454 234 88 12
1.0062386 -0.93268174 1.7737337 234 88 12
1.0217433 -0.92127782 1.7711103 234 88 12
1.0105039 -0.93429554 1.7697986 234 88 12
1.0322087 -0.9129017 1.7697986 234 88 12
1.0362784 -0.90889031 1.7697986 234 88 12
0.99248165 -0.9539988 1.768487 234 88 12
0.99209464 -0.95631957 1.7671752 234 88 12
0.99887741 -0.94963396 1.7671752 234 88 12
0.99364674 -0.96060759 1.7632402 234 88 12
0.99907297 -0.95525914 1.7632402 234 88 12
1.0004295 -0.95392203 1.7632402 234 88 12
1.0099254 -0.94456226 1.7632402 234 88 12
1.011282 -0.94322509 1.7632402 234 88 12
1.0221344 -0.9325282 1.7632402 234 88 12
1.0234909 -0.93119109 1.7632402 234 88 12
1.0370564 -0.91781992 1.7632402 234 88 12
1.0325998 -0.92415202 1.7619284 234 88 12
1.0432608 -0.92140102 1.7566817 234 88 12
1.0446173 -0.92006391 1.7566817 234 88 12
1.0211689 -0.94511563 1.75537 234 88 12
1.0333779 -0.93308163 1.75537 234 88 12
1.0546957 -0.9140085 1.7540584 234 88 12
1.023108 -0.94708294 1.7527467 234 88 12
1.0271777 -0.9430716 1.7527467 234 88 12
1.0326039 -0.9377231 1.7527467 234 88 12
1.0393866 -0.93103755 1.7527467 234 88 12
1.0434563 -0.92702621 1.7527467 234 88 12
1.0502391 -0.9203406 1.7527467 234 88 12
1.0543088 -0.91632926 1.7527467 234 88 12
1.0610915 -0.90964371 1.7527467 234 88 12
1.0657437 -0.90893674 1.7501233 234 88 12
1.0545043 -0.92195445 1.7488116 234 88 12
1.0663263 -0.91224116 1.7474999 234 88 12
1.7628472 -0.046539977 1.3935003 234 88 12
1.7646872 -0.048773944 1.3903755 234 88 12
1.7608026 -0.079021193 1.3888131 234 88 12
1.7611127 -0.077141821 1.3888131 234 88 12
1.7626426 -0.08125516 1.3856883 234 88 12
1.7632626 -0.077496417 1.3856883 234 88 12
1.7648125 -0.068099558 1.3856883 234 88 12
1.7651224 -0.066220187 1.3856883 234 88 12
1.768532 -0.045547094 1.3856883 234 88 12
1.7647927 -0.081609756 1.3825636 234 88 12
1.7732671 -0.063702524 1.3747516 234 88 12
1.774817 -0.054305665 1.3747516 234 88 12
1.7757469 -0.04866755 1.3747516 234 88 12
1.7760371 -0.060298376 1.3716267 234 88 12
1.7832718 -0.049908634 1.3638147 234 88 12
-0.27739707 -2.2151661 0.11864316 234 88 12
-0.26598579 -2.2157943 0.11864316 234 88 12
-0.27930304 -2.2151358 0.11673986 234 88 12
-0.25457856 -2.2164967 0.11673986 234 88 12
-0.24317136 -2.2171993 0.11483656 234 88 12
-0.26981002 -2.2159569 0.10912664 234 88 12
-0.26600626 -2.2161663 0.10912664 234 88 12
-0.25459495 -2.2167945 0.10912664 234 88 12
-0.24318364 -2.2174225 0.10912664 234 88 12
-0.30214614 -2.2142518 0.10722334 234 88 12
-0.29834235 -2.2144611 0.10722334 234 88 12
-0.28693107 -2.2150893 0.10722334 234 88 12
-0.23178872 -2.2183483 0.10151343 234 88 12
-0.22037743 -2.2189763 0.10151343 234 88 12
-0.30406439 -2.2144446 0.099610128 234 88 12
-0.29835874 -2.2147586 0.099610128 234 88 12
-0.28694743 -2.2153869 0.099610128 234 88 12
-0.27743801 -2.2159102 0.099610128 234 88 12
-0.26602674 -2.2165382 0.099610128 234 88 12
-0.25461543 -2.2171664 0.099610128 234 88 12
-0.24320413 -2.2177944 0.099610128 234 88 12
-0.23179282 -2.2184227 0.099610128 234 88 12
-0.22038153 -2.2190506 0.099610128 234 88 12
-0.26224753 -2.2171941 0.088190302 234 88 12
-0.25463998 -2.2176127 0.088190302 234 88 12
1.2745638 -1.6607547 0.77479267 234 88 12
1.2776079 -1.6584643 0.77479267 234 88 12
1.2852181 -1.6527385 0.77479267 234 88 12
1.2882622 -1.6504481 0.77479267 234 88 12
1.2996166 -1.6433619 0.77116531 234 88 12
1.3011386 -1.6422168 0.77116531 234 88 12
1.2824016 -1.6584994 0.7657243 234 88 12
1.2884898 -1.6539186 0.7657243 234 88 12
1.2900119 -1.6527735 0.7657243 234 88 12
1.2991443 -1.6459024 0.7657243 234 88 12
1.2583985 -1.6772873 0.76391065 234 88 12
1.2614427 -1.674997 0.76391065 234 88 12
1.2660089 -1.6715615 0.76391065 234 88 12
1.2777129 -1.6649404 0.75846964 234 88 12
1.3100262 -1.6413566 0.75665599 234 88 12
1.2802848 -1.6651905 0.75302869 234 88 12
1.2818068 -1.6640452 0.75302869 234 88 12
1.2878951 -1.6594645 0.75302869 234 88 12
1.2970275 -1.6525934 0.75302869 234 88 12
1.2985495 -1.6514482 0.75302869 234 88 12
1.310726 -1.6422868 0.75302869 234 88 12
1.3213805 -1.6342704 0.75302869 234 88 12
1.3095539 -1.6438971 0.75121498 234 88 12
-0.95334941 -1.8376101 -0.8649838 234 88 12
-0.95310098 -1.8369522 -0.86675394 234 88 12
-0.94240904 -1.8409888 -0.86675394 234 88 12
-0.93884504 -1.8423343 -0.86675394 234 88 12
-0.93146867 -1.8443674 -0.86852413 234 88 12
-0.92027986 -1.8470881 -0.87206447 234 88 12
-0.93047506 -1.8417356 -0.87560481 234 88 12
-0.95161057 -1.8330044 -0.87737495 234 88 12
-0.94270056 -1.8363682 -0.87737495 234 88 12
-0.93200862 -1.8404049 -0.87737495 234 88 12
-0.92666262 -1.8424231 -0.87737495 234 88 12
-0.91953468 -1.8451141 -0.87737495 234 88 12
-0.95086533 -1.8310305 -0.88268548 234 88 12
-0.92032301 -1.8418095 -0.88445562 234 88 12
-0.90963107 -1.8458462 -0.88445562 234 88 12
-0.93942815 -1.8330932 -0.88799596 234 88 12
-0.93051821 -1.836457 -0.88799596 234 88 12
-0.91982621 -1.8404936 -0.88799596 234 88 12
-0.91448021 -1.8425119 -0.88799596 234 88 12
-0.90913427 -1.8445302 -0.88799596 234 88 12
-0.89844227 -1.8485668 -0.88799596 234 88 12
-0.93843454 -1.8304613 -0.89507663 234 88 12
0.87051558 -2.0221565 -0.35705718 234 88 12
0.87746459 -2.0190322 -0.35705718 234 88 12
0.88788813 -2.0143459 -0.35705718 234 88 12
0.87560791 -2.0195475 -0.35893953 234 88 12
0.89981002 -2.008347 -0.36082187 234 88 12
0.89783382 -2.0085967 -0.36458659 234 88 12
0.85080844 -2.0294197 -0.36646894 234 88 12
0.85602021 -2.0270765 -0.36646894 234 88 12
0.86644375 -2.0223901 -0.36646894 234 88 12
0.87339282 -2.0192659 -0.36646894 234 88 12
0.87686729 -2.0177038 -0.36646894 234 88 12
0.88902813 -2.0122364 -0.36646894 234 88 12
0.89771438 -2.0083311 -0.36646894 234 88 12
0.89945167 -2.00755 -0.36646894 234 88 12
0.91125411 -2.0012853 -0.372116 234 88 12
0.87441331 -2.0168905 -0.37776306 234 88 12
0.87788785 -2.0153284 -0.37776306 234 88 12
0.88831139 -2.0106421 -0.37776306 234 88 12
0.89526039 -2.0075178 -0.37776306 234 88 12
0.90047216 -2.0051746 -0.37776306 234 88 12
0.91089571 -2.0004883 -0.37776306 234 88 12
0.91784471 -1.997364 -0.37776306 234 88 12
2.0686421 -0.75149137 0.39846894 234 88 12
2.0626595 -0.76550883 0.3965866 234 88 12
2.0642216 -0.76203436 0.3965866 234 88 12
2.0730789 -0.74304396 0.39470425 234 88 12
2.075422 -0.73783219 0.39470425 234 88 12
2.0631909 -0.76574779 0.39282188 234 88 12
2.0546153 -0.78695321 0.38717484 234 88 12
2.0655501 -0.7626316 0.38717484 234 88 12
2.0694554 -0.75394535 0.38717484 234 88 12
2.0741417 -0.74352181 0.38717484 234 88 12
2.0757039 -0.74004728 0.38717484 234 88 12
2.0540998 -0.78880996 0.38529247 234 88 12
2.0595672 -0.77664912 0.38529247 234 88 12
2.0642536 -0.76622558 0.38529247 234 88 12
2.0754702 -0.74411911 0.37776306 234 88 12
2.0809376 -0.73195827 0.37776306 234 88 12
2.0640199 -0.77029741 0.37588072 234 88 12
2.064801 -0.76856011 0.37588072 234 88 12
2.0663631 -0.76508564 0.37588072 234 88 12
2.0718305 -0.7529248 0.37588072 234 88 12
2.0757358 -0.74423856 0.37588072 234 88 12
2.0765169 -0.74250126 0.37588072 234 88 12
2.0812035 -0.73207772 0.37588072 234 88 12
2.0866709 -0.71991694 0.37588072 234 88 12
2.086421 -0.72189313 0.372116 234 88 12
2.0726438 -0.75537878 0.36458659 234 88 12
2.0734248 -0.75364155 0.36458659 234 88 12
0.18380503 -1.7523544 -1.3763139 234 88 12
0.18944314 -1.7514246 -1.3763139 234 88 12
0.20071939 -1.7495646 -1.3763139 234 88 12
0.21164101 -1.7455549 -1.3794388 234 88 12
0.15284859 -1.7519389 -1.3841259 234 88 12
0.15660733 -1.7513191 -1.3841259 234 88 12
0.16788356 -1.7494593 -1.3841259 234 88 12
0.21110912 -1.74233 -1.3841259 234 88 12
0.20529372 -1.7421849 -1.3856883 234 88 12
0.152494 -1.749789 -1.3872508 234 88 12
0.15625274 -1.749169 -1.3872508 234 88 12
0.16752897 -1.7473092 -1.3872508 234 88 12
0.1788052 -1.7454494 -1.3872508 234 88 12
0.19008143 -1.7435896 -1.3872508 234 88 12
0.1994783 -1.7420398 -1.3872508 234 88 12
0.20135766 -1.7417299 -1.3872508 234 88 12
0.21263389 -1.7398701 -1.3872508 234 88 12
0.1859681 -1.7420596 -1.3903755 234 88 12
0.22355554 -1.7358603 -1.3903755 234 88 12
0.23465447 -1.7329255 -1.391938 234 88 12
0.2324205 -1.7310855 -1.3950628 234 88 12
0.23429987 -1.7307756 -1.3950628 234 88 12
0.19054243 -1.7346798 -1.39975 234 88 12
0.19993928 -1.73313 -1.39975 234 88 12
1.7484288 -1.1832055 -0.72763735 234 88 12
1.7399474 -1.1935101 -0.729451 234 88 12
1.743383 -1.1889439 -0.729451 234 88 12
1.7536896 -1.1752453 -0.729451 234 88 12
1.7532246 -1.1748954 -0.73126471 234 88 12
1.7367269 -1.1958543 -0.73307836 234 88 12
1.7424529 -1.188244 -0.73307836 234 88 12
1.743598 -1.1867219 -0.73307836 234 88 12
1.7516143 -1.1760675 -0.73307836 234 88 12
1.7539047 -1.1730233 -0.73307836 234 88 12
1.7410576 -1.1871942 -0.73851937 234 88 12
1.7314311 -1.1990209 -0.74033302 234 88 12
1.7577703 -1.1640134 -0.74033302 234 88 12
1.7646414 -1.154881 -0.74033302 234 88 12
1.7657866 -1.1533589 -0.74033302 234 88 12
1.7218045 -1.2108474 -0.74214667 234 88 12
1.7229497 -1.2093253 -0.74214667 234 88 12
1.7201942 -1.2120196 -0.74396032 234 88 12
1.7224846 -1.2089754 -0.74396032 234 88 12
1.7305009 -1.198321 -0.74396032 234 88 12
1.7316461 -1.1967989 -0.74396032 234 88 12
1.7396624 -1.1861445 -0.74396032 234 88 12
1.7430979 -1.1815783 -0.74396032 234 88 12
1.7476786 -1.17549 -0.74396032 234 88 12
1.7545497 -1.1663578 -0.74396032 234 88 12
1.755695 -1.1648357 -0.74396032 234 88 12
1.7648565 -1.1526592 -0.74396032 234 88 12
1.7197292 -1.2116697 -0.74577403 234 88 12
1.7632462 -1.1538312 -0.74577403 234 88 12
1.7199442 -1.2094477 -0.74940133 234 88 12
1.7391623 -1.1810008 -0.75484234 234 88 12
1.7425978 -1.1764348 -0.75484234 234 88 12
1.7437431 -1.1749127 -0.75484234 234 88 12
1.7421328 -1.1760848 -0.75665599 234 88 12
-0.34282821 -0.80195451 -2.0783689 234 88 12
-0.31635907 -0.80519432 -2.0783689 234 88 12
-0.31068712 -0.80588853 -2.0783689 234 88 12
-0.33127919 -0.80166727 -2.0792511 234 88 12
-0.34241799 -0.79860306 -2.080133 234 88 12
-0.298933 -0.80392557 -2.080133 234 88 12
-0.33275962 -0.79808438 -2.0810151 234 88 12
-0.32121059 -0.79779714 -2.081897 234 88 12
-0.28717887 -0.80196261 -2.081897 234 88 12
-0.3096616 -0.79750991 -2.0827792 234 88 12
-0.29831767 -0.7988984 -2.0827792 234 88 12
-0.28676865 -0.79861116 -2.0836613 234 88 12
-0.27711028 -0.79809254 -2.0845432 234 88 12
-0.30674541 -0.78936273 -2.0871894 234 88 12
-0.2991828 -0.79028839 -2.0871894 234 88 12
-0.28783888 -0.79167688 -2.0871894 234 88 12
-0.27649495 -0.79306537 -2.0871894 234 88 12
-0.30654028 -0.787687 -2.0880713 234 88 12
-0.29877257 -0.78693694 -2.0889535 234 88 12
1.055866 -0.93241853 -1.7396297 234 88 12
1.0572031 -0.93106192 -1.7396297 234 88 12
1.0665629 -0.92156607 -1.7396297 234 88 12
1.0678999 -0.92020953 -1.7396297 234 88 12
1.0481967 -0.93823171 -1.7409414 234 88 12
1.0525615 -0.93183595 -1.7422532 234 88 12
1.0632585 -0.92098349 -1.7422532 234 88 12
1.0422181 -0.94036227 -1.7435648 234 88 12
1.0435553 -0.93900573 -1.7435648 234 88 12
1.0515779 -0.93086642 -1.7435648 234 88 12
1.0555892 -0.92679673 -1.7435648 234 88 12
1.0622748 -0.92001396 -1.7435648 234 88 12
1.0662862 -0.91594428 -1.7435648 234 88 12
1.0823315 -0.89966565 -1.7435648 234 88 12
1.0836687 -0.89830911 -1.7435648 234 88 12
1.0706511 -0.90954852 -1.7448765 234 88 12
1.0650258 -0.90935302 -1.7488116 234 88 12
1.0757227 -0.89850056 -1.7488116 234 88 12
1.02794 -0.94501042 -1.7501233 234 88 12
1.0306143 -0.94229728 -1.7501233 234 88 12
1.0413113 -0.93144488 -1.7501233 234 88 12
1.0520082 -0.92059243 -1.7501233 234 88 12
1.0179501 -0.95121062 -1.7527467 234 88 12
1.0169665 -0.95024109 -1.7540584 234 88 12
1.0223149 -0.94481486 -1.7540584 234 88 12
1.0249891 -0.94210178 -1.7540584 234 88 12
1.0330118 -0.9339624 -1.7540584 234 88 12
1.0423716 -0.92446655 -1.7540584 234 88 12
1.0437087 -0.92311001 -1.7540584 234 88 12
1.046383 -0.92039686 -1.7540584 234 88 12
1.0203476 -0.94287574 -1.7566817 234 88 12
1.0424484 -0.91651869 -1.7593051 234 88 12
1.9143741 -0.011789247 -1.1705462 234 88 12
1.9146236 -0.0099008931 -1.1705462 234 88 12
1.9098709 -0.016958233 -1.1771572 234 88 12
1.9108688 -0.0094048185 -1.1771572 234 88 12
1.9079933 -0.016710196 -1.1804626 234 88 12
1.9087417 -0.011045135 -1.1804626 234 88 12
1.9039297 -0.025779909 -1.1854208 234 88 12
1.9008049 -0.03497364 -1.1887262 234 88 12
1.9010544 -0.033085287 -1.1887262 234 88 12
1.9025513 -0.021755163 -1.1887262 234 88 12
1.9042976 -0.0085366881 -1.1887262 234 88 12
1.8972403 -0.040266644 -1.1936845 234 88 12
1.8972995 -0.032589212 -1.1953372 234 88 12
