ply
format ascii 1.0
element vertex 1693
property float x
property float y
property float z
property uchar red
property uchar green
property uchar blue
end_header
-1.3607111 -0.14467457 -0.27164571 234 88 12
-1.3572176 -0.14462125 -0.27239734 234 88 12
-1.3537341 -0.14457732 -0.27309321 234 88 12
-1.3503183 -0.14454505 -0.27398765 234 88 12
-1.3468764 -0.14450611 -0.27472592 234 88 12
-1.3434175 -0.14445723 -0.2754636 234 88 12
-1.3399666 -0.14439656 -0.2761132 234 88 12
-1.3365481 -0.14433496 -0.27689984 234 88 12
-1.3331289 -0.14423986 -0.27755931 234 88 12
-1.3297278 -0.14417421 -0.27822216 234 88 12
-1.3262759 -0.14409836 -0.27884793 234 88 12
-1.3228764 -0.14403699 -0.27955201 234 88 12
-1.3194733 -0.14397237 -0.28033105 234 88 12
-1.31613 -0.1439248 -0.28112498 234 88 12
-1.3128121 -0.14389977 -0.28205974 234 88 12
-1.3639779 -0.14832579 -0.27013969 234 88 12
-1.3604529 -0.14826283 -0.27079328 234 88 12
-1.3569384 -0.14818401 -0.27146655 234 88 12
-1.3534512 -0.14813908 -0.27218435 234 88 12
-1.3500057 -0.14809503 -0.27300656 234 88 12
-1.3465579 -0.14804163 -0.27366318 234 88 12
-1.3431029 -0.14796654 -0.27441929 234 88 12
-1.3396387 -0.14789129 -0.27514776 234 88 12
-1.3362111 -0.14781942 -0.27595598 234 88 12
-1.3327666 -0.14772545 -0.27653066 234 88 12
-1.3293752 -0.14764102 -0.27719174 234 88 12
-1.3259605 -0.14754551 -0.27784819 234 88 12
-1.3225819 -0.14747895 -0.2785685 234 88 12
-1.3192207 -0.14740539 -0.27936244 234 88 12
-1.315895 -0.14734219 -0.28020369 234 88 12
-1.3126192 -0.14730015 -0.28119754 234 88 12
-1.3636707 -0.15189388 -0.26918987 234 88 12
-1.3601604 -0.15181777 -0.26987848 234 88 12
-1.3566348 -0.15174435 -0.27048356 234 88 12
-1.3531558 -0.15169916 -0.27122779 234 88 12
-1.3496969 -0.1516425 -0.27194712 234 88 12
-1.3462411 -0.15156163 -0.27259411 234 88 12
-1.3427569 -0.15146412 -0.27330193 234 88 12
-1.3393039 -0.15137208 -0.27410792 234 88 12
-1.335875 -0.15128782 -0.27496611 234 88 12
-1.3324341 -0.15119096 -0.2755752 234 88 12
-1.3290584 -0.15109788 -0.27631907 234 88 12
-1.3256965 -0.15101217 -0.27697828 234 88 12
-1.3223644 -0.15091958 -0.27783038 234 88 12
-1.3190055 -0.15083524 -0.27857008 234 88 12
-1.3156876 -0.15074676 -0.27942706 234 88 12
-1.3123922 -0.1506728 -0.28038495 234 88 12
-1.3633186 -0.15545347 -0.26818473 234 88 12
-1.3598044 -0.15537935 -0.268834 234 88 12
-1.3562994 -0.15531549 -0.26942507 234 88 12
-1.3528062 -0.15525419 -0.27018863 234 88 12
-1.3493552 -0.15519379 -0.27080931 234 88 12
-1.3459182 -0.15509522 -0.27152038 234 88 12
-1.3424472 -0.15498516 -0.27221834 234 88 12
-1.3390175 -0.15488061 -0.27311307 234 88 12
-1.335591 -0.15476946 -0.27389424 234 88 12
-1.3321584 -0.15467024 -0.27456312 234 88 12
-1.3287901 -0.15454807 -0.27532744 234 88 12
-1.3254516 -0.15444315 -0.27609138 234 88 12
-1.3221776 -0.15432591 -0.27702426 234 88 12
-1.318867 -0.15423169 -0.27782465 234 88 12
-1.3155621 -0.15412868 -0.27870977 234 88 12
-1.3122383 -0.15402854 -0.27960393 234 88 12
-1.362885 -0.15902147 -0.26701356 234 88 12
-1.3593375 -0.15894145 -0.2675313 234 88 12
-1.3558014 -0.15889834 -0.2681069 234 88 12
-1.3523283 -0.15882614 -0.26888286 234 88 12
-1.3488868 -0.15875917 -0.26950697 234 88 12
-1.34546 -0.15865084 -0.27027 234 88 12
-1.342003 -0.158525 -0.27095806 234 88 12
-1.3386138 -0.1584068 -0.27186978 234 88 12
-1.3352115 -0.15830476 -0.27267838 234 88 12
-1.3318262 -0.15819776 -0.27344982 234 88 12
-1.3284768 -0.15807968 -0.2742797 234 88 12
-1.3251956 -0.15796787 -0.27510769 234 88 12
-1.3219383 -0.15784294 -0.2760944 234 88 12
-1.3186224 -0.15771831 -0.27689406 234 88 12
-1.3152949 -0.15761383 -0.27778574 234 88 12
-1.3693224 -0.16265987 -0.2645821 234 88 12
-1.3658285 -0.16260989 -0.26512001 234 88 12
-1.36229 -0.16257757 -0.26550527 234 88 12
-1.358733 -0.16252392 -0.26599736 234 88 12
-1.3552237 -0.16248843 -0.26662541 234 88 12
-1.3517442 -0.1624251 -0.26737801 234 88 12
-1.3483228 -0.1623543 -0.26805919 234 88 12
-1.3449094 -0.1622407 -0.26879108 234 88 12
-1.3414816 -0.16211591 -0.26946697 234 88 12
-1.3381057 -0.16198699 -0.27032417 234 88 12
-1.3347182 -0.16188323 -0.27115464 234 88 12
-1.3313987 -0.16178166 -0.27202461 234 88 12
-1.328083 -0.16165988 -0.27289681 234 88 12
-1.3248367 -0.16155131 -0.27383169 234 88 12
-1.3215895 -0.1614178 -0.27482621 234 88 12
-1.3183229 -0.16129183 -0.27571702 234 88 12
-1.3149478 -0.16116812 -0.27657501 234 88 12
-1.3115902 -0.16108417 -0.27737761 234 88 12
-1.3082392 -0.16101404 -0.27831498 234 88 12
-1.3685434 -0.16624398 -0.26280616 234 88 12
-1.3650689 -0.16620203 -0.26329306 234 88 12
-1.3615602 -0.16617063 -0.26370491 234 88 12
-1.3580206 -0.16613998 -0.26421997 234 88 12
-1.3545018 -0.16611949 -0.26486227 234 88 12
-1.3510237 -0.16606405 -0.26556624 234 88 12
-1.3476003 -0.16598119 -0.26625039 234 88 12
-1.3441762 -0.16586653 -0.2669891 234 88 12
-1.3407753 -0.16574111 -0.26771833 234 88 12
-1.3374036 -0.1656303 -0.26852046 234 88 12
-1.3340703 -0.16553142 -0.26936338 234 88 12
-1.3307642 -0.16545951 -0.27025048 234 88 12
-1.3274717 -0.16535796 -0.27119837 234 88 12
-1.3242356 -0.16525009 -0.27213238 234 88 12
-1.3209876 -0.16511772 -0.27313845 234 88 12
-1.3176882 -0.16499149 -0.27402049 234 88 12
-1.3143093 -0.16488674 -0.2748562 234 88 12
-1.3109177 -0.16481566 -0.27562949 234 88 12
-1.3075401 -0.16474874 -0.2764141 234 88 12
-1.3041727 -0.16469528 -0.27722078 234 88 12
-1.3008272 -0.16465097 -0.27798906 234 88 12
-1.3676966 -0.16983216 -0.26080394 234 88 12
-1.3642065 -0.16979152 -0.26125961 234 88 12
-1.3607451 -0.16976795 -0.26174548 234 88 12
-1.3572109 -0.16975122 -0.26225578 234 88 12
-1.3537279 -0.16972807 -0.26285671 234 88 12
-1.3502206 -0.16967437 -0.26346145 234 88 12
-1.3468045 -0.16959237 -0.26420265 234 88 12
-1.3433851 -0.16948885 -0.26493908 234 88 12
-1.3400228 -0.16937112 -0.26570916 234 88 12
-1.3366679 -0.16927825 -0.26652721 234 88 12
-1.3333348 -0.16920157 -0.26734638 234 88 12
-1.3300273 -0.16913315 -0.26822474 234 88 12
-1.3267392 -0.16904123 -0.26917241 234 88 12
-1.323482 -0.16893267 -0.27012454 234 88 12
-1.3202036 -0.16882304 -0.2710605 234 88 12
-1.3168813 -0.16871016 -0.2719304 234 88 12
-1.3134851 -0.16862196 -0.27265315 234 88 12
-1.310067 -0.1685584 -0.27337902 234 88 12
-1.3066795 -0.16851386 -0.27413735 234 88 12
-1.3033053 -0.16846707 -0.27492736 234 88 12
-1.2999868 -0.16842721 -0.27577182 234 88 12
-1.2966669 -0.16839962 -0.2765794 234 88 12
-1.2933527 -0.16837942 -0.2773795 234 88 12
-1.2899938 -0.16841321 -0.27796848 234 88 12
-1.4209791 -0.17406479 -0.25266005 234 88 12
-1.4176471 -0.17400629 -0.25300541 234 88 12
-1.4143422 -0.17395302 -0.25334068 234 88 12
-1.4110042 -0.17388307 -0.25356912 234 88 12
-1.407646 -0.173826 -0.25377481 234 88 12
-1.4043169 -0.17375724 -0.2540989 234 88 12
-1.4009496 -0.17372217 -0.25446869 234 88 12
-1.3975879 -0.17367218 -0.25485981 234 88 12
-1.394218 -0.17364846 -0.2553077 234 88 12
-1.3909054 -0.1736227 -0.25583552 234 88 12
-1.3875474 -0.17359782 -0.25633073 234 88 12
-1.3841413 -0.17355172 -0.25676074 234 88 12
-1.3807267 -0.17349682 -0.25716999 234 88 12
-1.3772915 -0.17348297 -0.2575645 234 88 12
-1.3738162 -0.17346433 -0.25797253 234 88 12
-1.3703093 -0.17342927 -0.25834584 234 88 12
-1.366816 -0.17341172 -0.25872292 234 88 12
-1.3633373 -0.173369 -0.2591884 234 88 12
-1.3598641 -0.17335124 -0.25968116 234 88 12
-1.35635 -0.17333128 -0.26017505 234 88 12
-1.3528735 -0.17329971 -0.2607426 234 88 12
-1.3493683 -0.17322672 -0.26127281 234 88 12
-1.3459446 -0.17315392 -0.26195966 234 88 12
-1.3425518 -0.17306846 -0.26271324 234 88 12
-1.3392022 -0.17298108 -0.26353844 234 88 12
-1.3358691 -0.17290968 -0.26435929 234 88 12
-1.3325292 -0.17284567 -0.26517225 234 88 12
-1.3291646 -0.17277162 -0.26598141 234 88 12
-1.3258617 -0.17269328 -0.26689326 234 88 12
-1.3225666 -0.17259434 -0.26786118 234 88 12
-1.3192742 -0.17249949 -0.26872526 234 88 12
-1.3159099 -0.17240428 -0.26952673 234 88 12
-1.3125315 -0.17234265 -0.27018095 234 88 12
-1.3091084 -0.17228543 -0.27091413 234 88 12
-1.3057155 -0.17223999 -0.27157454 234 88 12
-1.3023489 -0.17219517 -0.27241627 234 88 12
-1.2990346 -0.17216796 -0.27322591 234 88 12
-1.2957201 -0.17214392 -0.2740069 234 88 12
-1.2923609 -0.17212211 -0.27463263 234 88 12
-1.2889768 -0.17212609 -0.27510732 234 88 12
-1.2855591 -0.1721722 -0.27558075 234 88 12
-1.2822296 -0.17223799 -0.27609914 234 88 12
-1.2788877 -0.17227946 -0.27666076 234 88 12
-1.2755565 -0.17229749 -0.27717973 234 88 12
-1.2722152 -0.17229582 -0.27759184 234 88 12
-1.2689956 -0.17229985 -0.27810045 234 88 12
-1.2658274 -0.17232035 -0.27861493 234 88 12
-1.262761 -0.1723361 -0.27923064 234 88 12
-1.2597053 -0.17234364 -0.27972244 234 88 12
-1.2566784 -0.17234113 -0.28021214 234 88 12
-1.2536625 -0.17233808 -0.28069733 234 88 12
-1.2506807 -0.17236549 -0.28126365 234 88 12
-1.2477163 -0.17242555 -0.28184958 234 88 12
-1.2447793 -0.17250338 -0.28236164 234 88 12
-1.2418446 -0.17257013 -0.28289295 234 88 12
-1.2389307 -0.17262943 -0.28350327 234 88 12
-1.2360176 -0.1726764 -0.2842145 234 88 12
-1.2330881 -0.17268917 -0.28490008 234 88 12
-1.2301742 -0.17274561 -0.28556027 234 88 12
-1.2272685 -0.17282366 -0.28626139 234 88 12
-1.2243933 -0.17291642 -0.28706668 234 88 12
-1.2214976 -0.17297009 -0.28788941 234 88 12
-1.2186115 -0.17301241 -0.28872813 234 88 12
-1.2156827 -0.17304138 -0.28947782 234 88 12
-1.2127573 -0.17309654 -0.2902682 234 88 12
-1.2098255 -0.17311328 -0.29096666 234 88 12
-1.2069378 -0.17315182 -0.29178281 234 88 12
-1.2040738 -0.17318532 -0.29253378 234 88 12
-1.2012241 -0.17322715 -0.2933619 234 88 12
-1.1983591 -0.17326463 -0.29419585 234 88 12
-1.1954819 -0.17331141 -0.29503046 234 88 12
-1.1925818 -0.17336931 -0.29579516 234 88 12
-1.1896857 -0.17347031 -0.29658607 234 88 12
-1.1867894 -0.17356704 -0.29745365 234 88 12
-1.183914 -0.17368457 -0.29835725 234 88 12
-1.1810314 -0.17379898 -0.29924438 234 88 12
-1.1781424 -0.17391058 -0.30007569 234 88 12
-1.1752539 -0.17400922 -0.30083695 234 88 12
-1.4206168 -0.17761215 -0.25172777 234 88 12
-1.4172784 -0.1775482 -0.25202634 234 88 12
-1.4139416 -0.17749986 -0.2522574 234 88 12
-1.4105798 -0.17742825 -0.25250659 234 88 12
-1.4072113 -0.17738786 -0.25266888 234 88 12
-1.4038366 -0.17732649 -0.25294339 234 88 12
-1.4004775 -0.17728694 -0.25323416 234 88 12
-1.3970562 -0.17723411 -0.2535174 234 88 12
-1.393659 -0.17721285 -0.25390352 234 88 12
-1.390282 -0.17717013 -0.25432983 234 88 12
-1.3869061 -0.17714311 -0.25478935 234 88 12
-1.3834838 -0.17710797 -0.25515547 234 88 12
-1.380054 -0.17706908 -0.2555188 234 88 12
-1.3765812 -0.17702794 -0.25590347 234 88 12
-1.3730725 -0.17698885 -0.256204 234 88 12
-1.3695244 -0.17695652 -0.25649403 234 88 12
-1.3660036 -0.17692851 -0.2568193 234 88 12
-1.3624855 -0.17689918 -0.25724753 234 88 12
-1.3590062 -0.17688061 -0.25772001 234 88 12
-1.3554992 -0.17684444 -0.25815641 234 88 12
-1.3520112 -0.17679485 -0.25864539 234 88 12
-1.3485355 -0.17673258 -0.25918194 234 88 12
-1.3451255 -0.17667577 -0.25983775 234 88 12
-1.3417783 -0.17661368 -0.26057437 234 88 12
-1.3384382 -0.17654019 -0.26134823 234 88 12
-1.3350608 -0.17649216 -0.26211343 234 88 12
-1.3316696 -0.17643771 -0.26284379 234 88 12
-1.3282957 -0.17636929 -0.26366326 234 88 12
-1.3249686 -0.17630665 -0.26455977 234 88 12
-1.3216462 -0.17622024 -0.26540675 234 88 12
-1.3183227 -0.17613626 -0.26621701 234 88 12
-1.3149578 -0.17605652 -0.26697125 234 88 12
-1.3115567 -0.17600266 -0.26761279 234 88 12
-1.3081526 -0.1759505 -0.26834269 234 88 12
-1.3047652 -0.17591321 -0.26896856 234 88 12
-1.3013966 -0.1758644 -0.26975093 234 88 12
-1.2980657 -0.17585134 -0.27048349 234 88 12
-1.2947359 -0.17581813 -0.27118995 234 88 12
-1.2913952 -0.17580251 -0.27180966 234 88 12
-1.2880398 -0.17580554 -0.27235497 234 88 12
-1.2846552 -0.17581559 -0.27285937 234 88 12
-1.2813179 -0.17585458 -0.2734528 234 88 12
-1.2779937 -0.17587046 -0.27406216 234 88 12
-1.2747499 -0.17588252 -0.27474735 234 88 12
-1.2714767 -0.17586443 -0.27531078 234 88 12
-1.2682707 -0.17583677 -0.27587718 234 88 12
-1.2651452 -0.17584305 -0.27645793 234 88 12
-1.2621131 -0.17583244 -0.27709086 234 88 12
-1.2591176 -0.17586119 -0.27773399 234 88 12
-1.2561322 -0.17585542 -0.27835146 234 88 12
-1.2531487 -0.17585646 -0.27893289 234 88 12
-1.2501767 -0.17588512 -0.27953805 234 88 12
-1.2472165 -0.17593607 -0.28015346 234 88 12
-1.2443122 -0.17599844 -0.280779 234 88 12
-1.2414179 -0.17604814 -0.28139874 234 88 12
-1.2385403 -0.17608296 -0.28208392 234 88 12
-1.2356414 -0.17611748 -0.28283809 234 88 12
-1.2327078 -0.17612852 -0.28354641 234 88 12
-1.2297998 -0.17616229 -0.28427948 234 88 12
-1.2269084 -0.17622878 -0.28507945 234 88 12
-1.2240654 -0.1762971 -0.2859705 234 88 12
-1.2211842 -0.17635059 -0.28683829 234 88 12
-1.2183032 -0.17639602 -0.28764297 234 88 12
-1.2154089 -0.17642047 -0.28846244 234 88 12
-1.2125246 -0.17645492 -0.289299 234 88 12
-1.209614 -0.17646741 -0.29008637 234 88 12
-1.2067005 -0.17649812 -0.29089489 234 88 12
-1.203848 -0.17651693 -0.29174225 234 88 12
-1.2009854 -0.17655109 -0.2925891 234 88 12
-1.1981357 -0.17659065 -0.29349373 234 88 12
-1.1952396 -0.17663307 -0.29435636 234 88 12
-1.1923546 -0.17668181 -0.29519753 234 88 12
-1.1894662 -0.17674313 -0.29602245 234 88 12
-1.1865743 -0.17682762 -0.2968667 234 88 12
-1.1836715 -0.17690868 -0.29774572 234 88 12
-1.1808046 -0.17699301 -0.29861695 234 88 12
-1.177908 -0.17707778 -0.29950373 234 88 12
-1.1750401 -0.17715593 -0.3002793 234 88 12
-1.1721545 -0.17722383 -0.30104714 234 88 12
-1.4203121 -0.1811736 -0.2508331 234 88 12
-1.4169265 -0.18112517 -0.25104003 234 88 12
-1.4135959 -0.18107005 -0.25131468 234 88 12
-1.4102104 -0.18100613 -0.25158009 234 88 12
-1.4068572 -0.18095947 -0.2518198 234 88 12
-1.403426 -0.18088697 -0.25195959 234 88 12
-1.4000398 -0.18083849 -0.25218335 234 88 12
-1.3965947 -0.18078458 -0.25239992 234 88 12
-1.3931841 -0.18073252 -0.25280178 234 88 12
-1.3897555 -0.18070255 -0.25308649 234 88 12
-1.3863399 -0.1806742 -0.25347148 234 88 12
-1.3828848 -0.18064076 -0.25375244 234 88 12
-1.3794247 -0.18060547 -0.25408985 234 88 12
-1.3759465 -0.18058113 -0.25443674 234 88 12
-1.3724414 -0.18054232 -0.25475095 234 88 12
-1.3688625 -0.18049056 -0.25496308 234 88 12
-1.3652891 -0.1804399 -0.25520228 234 88 12
-1.3617357 -0.18038534 -0.25551401 234 88 12
-1.3582174 -0.18035599 -0.25592156 234 88 12
-1.354705 -0.1803143 -0.2563053 234 88 12
-1.3512229 -0.1802622 -0.25677613 234 88 12
-1.3477589 -0.18022475 -0.25723063 234 88 12
-1.3443797 -0.18017633 -0.25782228 234 88 12
-1.341014 -0.18011642 -0.25844291 234 88 12
-1.3376424 -0.18007125 -0.25913278 234 88 12
-1.3342229 -0.18002977 -0.25979525 234 88 12
-1.3308085 -0.17997221 -0.26049496 234 88 12
-1.3273829 -0.17992368 -0.26117344 234 88 12
-1.3240341 -0.17986955 -0.26203075 234 88 12
-1.3206408 -0.17980908 -0.26277974 234 88 12
-1.3172948 -0.1797475 -0.2636031 234 88 12
-1.3139298 -0.17967914 -0.26432011 234 88 12
-1.3105839 -0.17963319 -0.26501741 234 88 12
-1.3072116 -0.17957623 -0.2656878 234 88 12
-1.3038097 -0.17952463 -0.26627713 234 88 12
-1.3004453 -0.17948721 -0.26699835 234 88 12
-1.297109 -0.17946566 -0.26766819 234 88 12
-1.2937762 -0.17944157 -0.26835909 234 88 12
-1.2904166 -0.1794157 -0.26894255 234 88 12
-1.2871032 -0.17938641 -0.26955565 234 88 12
-1.283787 -0.17936623 -0.27023191 234 88 12
-1.2805197 -0.17935843 -0.27096078 234 88 12
-1.2772752 -0.17935689 -0.27176041 234 88 12
-1.2740586 -0.17936576 -0.27249764 234 88 12
-1.2708639 -0.17933676 -0.27321912 234 88 12
-1.2676928 -0.17931245 -0.27385753 234 88 12
-1.2645751 -0.17930411 -0.2744804 234 88 12
-1.2615631 -0.1793036 -0.27515916 234 88 12
-1.2586036 -0.17933982 -0.27590398 234 88 12
-1.2556709 -0.17934535 -0.27666284 234 88 12
-1.2527159 -0.17935258 -0.27733438 234 88 12
-1.2497932 -0.17936616 -0.27802938 234 88 12
-1.2468693 -0.17942626 -0.27871874 234 88 12
-1.2439872 -0.179456 -0.2794385 234 88 12
-1.2410807 -0.17948968 -0.280091 234 88 12
-1.2382021 -0.17950348 -0.2808192 234 88 12
-1.235297 -0.17952713 -0.28157552 234 88 12
-1.2323815 -0.1795478 -0.28235407 234 88 12
-1.2294983 -0.17958194 -0.28315823 234 88 12
-1.2266503 -0.17964031 -0.28404353 234 88 12
-1.2237994 -0.179703 -0.28494701 234 88 12
-1.2209337 -0.17975062 -0.28578008 234 88 12
-1.2180691 -0.17978464 -0.2867073 234 88 12
-1.2152046 -0.17981173 -0.28760167 234 88 12
-1.2123336 -0.17983817 -0.28852102 234 88 12
-1.209423 -0.17984609 -0.28930151 234 88 12
-1.2065211 -0.17987346 -0.29008785 234 88 12
-1.2036546 -0.1798843 -0.29100952 234 88 12
-1.2007902 -0.17992136 -0.29182827 234 88 12
-1.1979329 -0.1799389 -0.29272934 234 88 12
-1.1950531 -0.17997551 -0.29362159 234 88 12
-1.1921843 -0.18000871 -0.29455344 234 88 12
-1.1892809 -0.18004979 -0.29544359 234 88 12
-1.1863685 -0.18010565 -0.29633394 234 88 12
-1.1834624 -0.18015289 -0.29722587 234 88 12
-1.1805871 -0.18022331 -0.29808137 234 88 12
-1.1776939 -0.18026164 -0.29888843 234 88 12
-1.1748236 -0.180301 -0.29966093 234 88 12
-1.1719358 -0.18034507 -0.30046691 234 88 12
-1.169062 -0.18038326 -0.30117674 234 88 12
-1.4200598 -0.18473362 -0.25017974 234 88 12
-1.416655 -0.18468276 -0.25035372 234 88 12
-1.4132921 -0.18462992 -0.25056861 234 88 12
-1.40993 -0.18457367 -0.25081789 234 88 12
-1.4065567 -0.18452792 -0.2510586 234 88 12
-1.4031028 -0.18447244 -0.25119738 234 88 12
-1.3996934 -0.18441852 -0.2513843 234 88 12
-1.3962428 -0.18436607 -0.25151306 234 88 12
-1.3928088 -0.18431595 -0.25186757 234 88 12
-1.3893231 -0.18426288 -0.25211404 234 88 12
-1.3858766 -0.18423156 -0.2524373 234 88 12
-1.3823842 -0.18418036 -0.25264993 234 88 12
-1.3789233 -0.18414861 -0.25297262 234 88 12
-1.3754168 -0.18410249 -0.25329093 234 88 12
-1.3719011 -0.18405655 -0.25356634 234 88 12
-1.3683394 -0.18399114 -0.25375598 234 88 12
-1.3647445 -0.18393644 -0.25397117 234 88 12
-1.3611751 -0.18388578 -0.25429144 234 88 12
-1.3576186 -0.18381502 -0.25458507 234 88 12
-1.3540923 -0.18376484 -0.25486703 234 88 12
-1.350558 -0.18370921 -0.25515512 234 88 12
-1.3470991 -0.18367888 -0.25562414 234 88 12
-1.3436901 -0.18363549 -0.25612295 234 88 12
-1.3403144 -0.18360364 -0.25670973 234 88 12
-1.3369122 -0.1835676 -0.25724208 234 88 12
-1.3334671 -0.18352314 -0.25782656 234 88 12
-1.3300052 -0.18346438 -0.25842027 234 88 12
-1.3265629 -0.18340754 -0.25904333 234 88 12
-1.3231857 -0.18336603 -0.25978772 234 88 12
-1.3197879 -0.18331696 -0.26042282 234 88 12
-1.3164075 -0.18324589 -0.26120951 234 88 12
-1.3130412 -0.18320087 -0.26186586 234 88 12
-1.3096812 -0.18313898 -0.26255271 234 88 12
-1.3063275 -0.18309659 -0.26322302 234 88 12
-1.302914 -0.1830402 -0.26382464 234 88 12
-1.2995829 -0.18299729 -0.26455684 234 88 12
-1.2962437 -0.18296272 -0.26519886 234 88 12
-1.2929438 -0.18292304 -0.26592664 234 88 12
-1.2896199 -0.18289518 -0.26658177 234 88 12
-1.2863629 -0.18285859 -0.2673017 234 88 12
-1.2831091 -0.18283417 -0.26808719 234 88 12
-1.2798899 -0.18278964 -0.26886983 234 88 12
-1.2766877 -0.1827821 -0.26970663 234 88 12
-1.2735159 -0.18276677 -0.270539 234 88 12
-1.2703626 -0.18273535 -0.27133893 234 88 12
-1.2672078 -0.18270846 -0.27205292 234 88 12
-1.2641593 -0.18270412 -0.27275841 234 88 12
-1.2611729 -0.18271642 -0.27351616 234 88 12
-1.258251 -0.18276495 -0.27435685 234 88 12
-1.2553135 -0.18278158 -0.27514623 234 88 12
-1.2523845 -0.18281785 -0.27589937 234 88 12
-1.2494747 -0.18281033 -0.27665666 234 88 12
-1.2465888 -0.18283269 -0.27746569 234 88 12
-1.2437061 -0.18285384 -0.27825396 234 88 12
-1.2408312 -0.18289644 -0.27900223 234 88 12
-1.2379708 -0.18293691 -0.27981441 234 88 12
-1.2351016 -0.18296104 -0.28066002 234 88 12
-1.2322019 -0.18296937 -0.28145483 234 88 12
-1.2292947 -0.1829937 -0.28223466 234 88 12
-1.2264315 -0.18302937 -0.28317988 234 88 12
-1.2235718 -0.18308369 -0.28410947 234 88 12
-1.2207206 -0.18314268 -0.28498934 234 88 12
-1.2178612 -0.18318206 -0.2858833 234 88 12
-1.2150056 -0.18319626 -0.28681743 234 88 12
-1.2121465 -0.18321134 -0.28769737 234 88 12
-1.2092885 -0.18322995 -0.28860582 234 88 12
-1.2063922 -0.18324311 -0.28944691 234 88 12
-1.2035184 -0.18325472 -0.29040562 234 88 12
-1.2006135 -0.18328024 -0.29121222 234 88 12
-1.1977405 -0.18328839 -0.29207462 234 88 12
-1.1948457 -0.18330473 -0.29293468 234 88 12
-1.1919506 -0.18331546 -0.29388118 234 88 12
-1.1890592 -0.18333756 -0.29482783 234 88 12
-1.1861674 -0.18337403 -0.29575394 234 88 12
-1.183268 -0.18339989 -0.29666445 234 88 12
-1.1804143 -0.18342904 -0.29754495 234 88 12
-1.1774959 -0.18345034 -0.29835669 234 88 12
-1.1746399 -0.18347545 -0.29915194 234 88 12
-1.1717643 -0.18350414 -0.29994966 234 88 12
-1.1688882 -0.18354571 -0.30072615 234 88 12
-1.4198398 -0.18830055 -0.24958902 234 88 12
-1.4164415 -0.18824609 -0.24980192 234 88 12
-1.4130586 -0.18818201 -0.24999664 234 88 12
-1.4096523 -0.18811781 -0.25017536 234 88 12
-1.406245 -0.18805026 -0.25032839 234 88 12
-1.4027991 -0.18799943 -0.25047013 234 88 12
-1.3993882 -0.18795557 -0.25072072 234 88 12
-1.3959321 -0.1879029 -0.25088531 234 88 12
-1.3924833 -0.18785662 -0.25117595 234 88 12
-1.3889747 -0.18780179 -0.25136284 234 88 12
-1.3855314 -0.18776509 -0.2516853 234 88 12
-1.382027 -0.18770312 -0.25192657 234 88 12
-1.3785384 -0.18764593 -0.25222914 234 88 12
-1.3750128 -0.18758844 -0.2524566 234 88 12
-1.3714631 -0.18753962 -0.25260897 234 88 12
-1.367891 -0.18747822 -0.25279756 234 88 12
-1.3642695 -0.18741061 -0.25299364 234 88 12
-1.3606984 -0.18733771 -0.2532518 234 88 12
-1.3571155 -0.18725088 -0.25342057 234 88 12
-1.3535617 -0.18720769 -0.25362781 234 88 12
-1.3499816 -0.18714605 -0.25383447 234 88 12
-1.3465126 -0.18711719 -0.25422904 234 88 12
-1.3430754 -0.18706301 -0.25467239 234 88 12
-1.3396701 -0.18703198 -0.25518153 234 88 12
-1.3362641 -0.18700536 -0.25567727 234 88 12
-1.3328137 -0.18694798 -0.2561822 234 88 12
-1.3293529 -0.186896 -0.2566811 234 88 12
-1.3258644 -0.18682353 -0.25715706 234 88 12
-1.3224477 -0.18678038 -0.25777883 234 88 12
-1.3190305 -0.18672732 -0.25839265 234 88 12
-1.3156611 -0.18668677 -0.25920184 234 88 12
-1.3122908 -0.18665043 -0.25986027 234 88 12
-1.3089316 -0.18659781 -0.26049836 234 88 12
-1.3055873 -0.18652469 -0.26112289 234 88 12
-1.302194 -0.18647122 -0.2617499 234 88 12
-1.2988803 -0.18641918 -0.26250295 234 88 12
-1.2955464 -0.18638265 -0.26316083 234 88 12
-1.2922697 -0.18632709 -0.26390311 234 88 12
-1.2889884 -0.18629182 -0.26460582 234 88 12
-1.2857601 -0.18625145 -0.26540071 234 88 12
-1.2825646 -0.18621099 -0.26627285 234 88 12
-1.2793863 -0.1861784 -0.26713376 234 88 12
-1.2762262 -0.18614181 -0.26802308 234 88 12
-1.2730764 -0.18613115 -0.26894553 234 88 12
-1.2699663 -0.18610127 -0.26977808 234 88 12
-1.2668757 -0.18608794 -0.27060315 234 88 12
-1.2638741 -0.18607993 -0.27138353 234 88 12
-1.2609111 -0.18610407 -0.27223653 234 88 12
-1.2579793 -0.18614807 -0.27305955 234 88 12
-1.2550542 -0.18616955 -0.27388537 234 88 12
-1.2521352 -0.18621253 -0.27467654 234 88 12
-1.24926 -0.18621273 -0.27551795 234 88 12
-1.2463897 -0.18622249 -0.27638851 234 88 12
-1.2435106 -0.1862266 -0.27724539 234 88 12
-1.2406285 -0.18626076 -0.27805758 234 88 12
-1.2377492 -0.18629299 -0.27890276 234 88 12
-1.2348731 -0.18632051 -0.27968204 234 88 12
-1.2319914 -0.18635079 -0.28053316 234 88 12
-1.2290867 -0.1863678 -0.28135485 234 88 12
-1.2262382 -0.18640551 -0.28238782 234 88 12
-1.2233821 -0.1864359 -0.28328452 234 88 12
-1.2205705 -0.18649051 -0.28421055 234 88 12
-1.2177135 -0.18653124 -0.28510154 234 88 12
-1.2148693 -0.18656604 -0.28613976 234 88 12
-1.2120044 -0.18656235 -0.28700705 234 88 12
-1.2091594 -0.18658018 -0.28797241 234 88 12
-1.2062724 -0.18657299 -0.28882143 234 88 12
-1.2033886 -0.18660166 -0.28974315 234 88 12
-1.2004841 -0.18660273 -0.29052974 234 88 12
-1.1975843 -0.18662152 -0.29142299 234 88 12
-1.1946621 -0.18663088 -0.29228062 234 88 12
-1.1917435 -0.18662604 -0.2931564 234 88 12
-1.1888471 -0.18663992 -0.29414975 234 88 12
-1.1859805 -0.18663901 -0.29511452 234 88 12
-1.1830927 -0.18665533 -0.29608758 234 88 12
-1.18022 -0.18666041 -0.29694742 234 88 12
-1.1773229 -0.18666538 -0.297807 234 88 12
-1.1744636 -0.18667045 -0.29861836 234 88 12
-1.1715838 -0.18669266 -0.29949988 234 88 12
-1.1687286 -0.18671333 -0.30037414 234 88 12
-1.4196463 -0.19178588 -0.24923646 234 88 12
-1.4162591 -0.19173783 -0.24950899 234 88 12
-1.4128654 -0.19166674 -0.249618 234 88 12
-1.4094447 -0.19158864 -0.24973345 234 88 12
-1.4059979 -0.19151204 -0.24980628 234 88 12
-1.4025923 -0.19147709 -0.25006975 234 88 12
-1.3991576 -0.19143783 -0.25032301 234 88 12
-1.3956962 -0.19139862 -0.25049743 234 88 12
-1.3922159 -0.19134848 -0.25067159 234 88 12
-1.3886764 -0.19127522 -0.25081582 234 88 12
-1.3852102 -0.1912198 -0.25112194 234 88 12
-1.3817159 -0.19114439 -0.25142883 234 88 12
-1.3782409 -0.19110349 -0.25173569 234 88 12
-1.3747107 -0.1910223 -0.25189807 234 88 12
-1.3711353 -0.19096043 -0.25196822 234 88 12
-1.3675614 -0.19090257 -0.25214345 234 88 12
-1.3639453 -0.19082588 -0.25234316 234 88 12
-1.3603673 -0.19074708 -0.2525494 234 88 12
-1.3567381 -0.19065919 -0.25260231 234 88 12
-1.3531523 -0.19058671 -0.25271326 234 88 12
-1.3495645 -0.19051588 -0.25289128 234 88 12
-1.3460628 -0.19048541 -0.25324497 234 88 12
-1.3425874 -0.19043499 -0.25363984 234 88 12
-1.339138 -0.19040522 -0.25407132 234 88 12
-1.3357085 -0.19036637 -0.25448994 234 88 12
-1.3322559 -0.19031288 -0.25490923 234 88 12
-1.3287944 -0.19023442 -0.25535682 234 88 12
-1.3253287 -0.19015016 -0.25583239 234 88 12
-1.3218946 -0.1900945 -0.25637794 234 88 12
-1.3184971 -0.19002882 -0.25701981 234 88 12
-1.3151234 -0.18999931 -0.25774899 234 88 12
-1.3117718 -0.18994114 -0.25842557 234 88 12
-1.3084149 -0.18987955 -0.2590019 234 88 12
-1.305044 -0.18981185 -0.25965383 234 88 12
-1.3017091 -0.18973745 -0.26034751 234 88 12
-1.2983948 -0.18970362 -0.2611332 234 88 12
-1.295077 -0.18965992 -0.2618543 234 88 12
-1.2918092 -0.18961594 -0.26257002 234 88 12
-1.2885527 -0.18957516 -0.26332721 234 88 12
-1.2853595 -0.18953347 -0.264158 234 88 12
-1.2822025 -0.18951104 -0.26505163 234 88 12
-1.2790645 -0.18948162 -0.26594197 234 88 12
-1.2759266 -0.18944826 -0.26691771 234 88 12
-1.2728087 -0.18942154 -0.26783656 234 88 12
-1.2697274 -0.18938403 -0.268733 234 88 12
-1.2667029 -0.18937951 -0.26963199 234 88 12
-1.2637439 -0.18937916 -0.27044501 234 88 12
-1.2607981 -0.18941776 -0.27132409 234 88 12
-1.2578424 -0.18945209 -0.27211652 234 88 12
-1.2548968 -0.18947884 -0.27295427 234 88 12
-1.2519907 -0.18951615 -0.27379437 234 88 12
-1.2491143 -0.18951557 -0.27468097 234 88 12
-1.2462532 -0.18951795 -0.27557685 234 88 12
-1.2433753 -0.18952234 -0.2764624 234 88 12
-1.2405158 -0.18956546 -0.27731349 234 88 12
-1.2376248 -0.18960134 -0.27816796 234 88 12
-1.2347529 -0.1896288 -0.27899171 234 88 12
-1.2318686 -0.18965124 -0.27986809 234 88 12
-1.228982 -0.18967416 -0.2807434 234 88 12
-1.2261072 -0.18969867 -0.28167305 234 88 12
-1.2232587 -0.18972898 -0.28260396 234 88 12
-1.2204456 -0.18977314 -0.28357436 234 88 12
-1.2176263 -0.18981098 -0.28449939 234 88 12
-1.214772 -0.18984638 -0.28547181 234 88 12
-1.211894 -0.18986092 -0.28631693 234 88 12
-1.2090521 -0.18987075 -0.28736177 234 88 12
-1.2061514 -0.18986954 -0.28820869 234 88 12
-1.2032874 -0.18988695 -0.28916391 234 88 12
-1.2003691 -0.18989367 -0.28999446 234 88 12
-1.1974569 -0.18992238 -0.29084923 234 88 12
-1.1945116 -0.18990352 -0.2917185 234 88 12
-1.1915854 -0.18991223 -0.29254972 234 88 12
-1.1887077 -0.18991101 -0.29356507 234 88 12
-1.185834 -0.18991224 -0.29449347 234 88 12
-1.1829604 -0.18991378 -0.29551085 234 88 12
-1.1800692 -0.18989883 -0.29640067 234 88 12
-1.1771634 -0.18988448 -0.29734003 234 88 12
-1.1742976 -0.18988464 -0.29820819 234 88 12
-1.1714113 -0.18990283 -0.29909236 234 88 12
-1.1685369 -0.18991564 -0.29999804 234 88 12
-1.4194065 -0.19524416 -0.2487682 234 88 12
-1.4160328 -0.19519231 -0.24904438 234 88 12
-1.4126443 -0.19512743 -0.24919109 234 88 12
-1.4092431 -0.19504518 -0.24938356 234 88 12
-1.4058239 -0.1949606 -0.2494905 234 88 12
-1.4024123 -0.19491131 -0.24973186 234 88 12
-1.3989799 -0.19487219 -0.24995228 234 88 12
-1.395503 -0.19480405 -0.2501794 234 88 12
-1.3920017 -0.19475455 -0.25036393 234 88 12
-1.3884929 -0.19468867 -0.25053089 234 88 12
-1.3850192 -0.19464941 -0.25083366 234 88 12
-1.3815206 -0.19458122 -0.25112173 234 88 12
-1.3780185 -0.19451981 -0.25138307 234 88 12
-1.3744702 -0.19443426 -0.25145578 234 88 12
-1.3708858 -0.19436797 -0.25155102 234 88 12
-1.3673144 -0.19429752 -0.25172398 234 88 12
-1.3636923 -0.19422439 -0.25191038 234 88 12
-1.3600852 -0.19413657 -0.2520046 234 88 12
-1.3564447 -0.19403062 -0.25194643 234 88 12
-1.3528555 -0.19395886 -0.25204029 234 88 12
-1.3492595 -0.19387747 -0.2522177 234 88 12
-1.3457303 -0.19383448 -0.25253491 234 88 12
-1.3422169 -0.19377712 -0.25287288 234 88 12
-1.3387369 -0.19374769 -0.25320801 234 88 12
-1.3352816 -0.19368436 -0.25357538 234 88 12
-1.3318246 -0.19362519 -0.25394431 234 88 12
-1.3283907 -0.19354394 -0.25435347 234 88 12
-1.3249367 -0.19346375 -0.25478475 234 88 12
-1.3215074 -0.1933947 -0.25533422 234 88 12
-1.3180973 -0.19333447 -0.25600629 234 88 12
-1.3147407 -0.19328304 -0.25669552 234 88 12
-1.3113758 -0.19322678 -0.25736855 234 88 12
-1.3080322 -0.19315088 -0.25792812 234 88 12
-1.304702 -0.19306901 -0.25863663 234 88 12
-1.3013878 -0.19300775 -0.25936424 234 88 12
-1.2980941 -0.19296481 -0.26014478 234 88 12
-1.2947898 -0.1929143 -0.26089785 234 88 12
-1.2915322 -0.1928663 -0.26162845 234 88 12
-1.2882909 -0.19281483 -0.262408 234 88 12
-1.2851214 -0.19280229 -0.26326131 234 88 12
-1.281974 -0.19278332 -0.26412662 234 88 12
-1.2788665 -0.19276609 -0.26508337 234 88 12
-1.275725 -0.19273209 -0.26602557 234 88 12
-1.2726467 -0.19270078 -0.26701262 234 88 12
-1.2696095 -0.19269218 -0.26795131 234 88 12
-1.2666471 -0.19269902 -0.26892844 234 88 12
-1.2636929 -0.19270505 -0.26976679 234 88 12
-1.2607308 -0.19272027 -0.27060262 234 88 12
-1.25777 -0.19273619 -0.27141969 234 88 12
-1.254807 -0.1927533 -0.27225738 234 88 12
-1.2519061 -0.19279001 -0.27313854 234 88 12
-1.2490462 -0.19279206 -0.27403689 234 88 12
-1.246185 -0.19279862 -0.274936 234 88 12
-1.243306 -0.19281139 -0.27580927 234 88 12
-1.2404274 -0.19283067 -0.27663273 234 88 12
-1.2375351 -0.1928605 -0.27748723 234 88 12
-1.234646 -0.19288972 -0.2783337 234 88 12
-1.2317791 -0.19293359 -0.27927703 234 88 12
-1.2289044 -0.19294722 -0.28014421 234 88 12
-1.2260384 -0.19296268 -0.28102636 234 88 12
-1.2231808 -0.19298464 -0.2818971 234 88 12
-1.2203638 -0.19302652 -0.2828709 234 88 12
-1.217542 -0.19305988 -0.2838472 234 88 12
-1.2146928 -0.19310479 -0.28486701 234 88 12
-1.2118349 -0.1931329 -0.28579469 234 88 12
-1.2089692 -0.1931443 -0.28676916 234 88 12
-1.2060622 -0.19314569 -0.28759622 234 88 12
-1.2031565 -0.19316039 -0.28852083 234 88 12
-1.2002475 -0.19317259 -0.2893926 234 88 12
-1.1973257 -0.19318858 -0.29027241 234 88 12
-1.1943967 -0.19318083 -0.29114475 234 88 12
-1.1914722 -0.1931753 -0.29202183 234 88 12
-1.1885709 -0.19318755 -0.29298094 234 88 12
-1.1856882 -0.19317257 -0.29390384 234 88 12
-1.1827976 -0.19315706 -0.29491456 234 88 12
-1.1799094 -0.19314369 -0.29585467 234 88 12
-1.1769894 -0.19311946 -0.29681414 234 88 12
-1.1741015 -0.19309924 -0.29768918 234 88 12
-1.1712147 -0.19310011 -0.29864099 234 88 12
-1.1683379 -0.19308977 -0.29955487 234 88 12
-1.4192425 -0.19864464 -0.24850999 234 88 12
-1.4158533 -0.19858854 -0.24880432 234 88 12
-1.412482 -0.19853418 -0.24896734 234 88 12
-1.4090999 -0.19845827 -0.24921982 234 88 12
-1.4056784 -0.19838265 -0.24937972 234 88 12
-1.4022517 -0.19831199 -0.2495859 234 88 12
-1.3988032 -0.19824588 -0.24976409 234 88 12
-1.3953014 -0.19817901 -0.24998753 234 88 12
-1.3918409 -0.19813514 -0.25022885 234 88 12
-1.3883561 -0.19808241 -0.25048686 234 88 12
-1.3848668 -0.1980259 -0.25072787 234 88 12
-1.3813624 -0.19796985 -0.25100382 234 88 12
-1.37783 -0.19789541 -0.25117289 234 88 12
-1.3742623 -0.19781838 -0.25123621 234 88 12
-1.3706818 -0.19772317 -0.25138581 234 88 12
-1.3671095 -0.19764967 -0.25155311 234 88 12
-1.3634967 -0.19756843 -0.25169222 234 88 12
-1.3598865 -0.19747591 -0.25167501 234 88 12
-1.3562552 -0.19737612 -0.25163589 234 88 12
-1.3526594 -0.19728767 -0.25171005 234 88 12
-1.3490849 -0.19720645 -0.25189512 234 88 12
-1.3455329 -0.19716169 -0.25211823 234 88 12
-1.3420002 -0.19708316 -0.25238454 234 88 12
-1.3384827 -0.19703322 -0.2526972 234 88 12
-1.3349879 -0.19696327 -0.25302998 234 88 12
-1.3314929 -0.19690666 -0.25336417 234 88 12
-1.3280491 -0.19682342 -0.25372509 234 88 12
-1.3246167 -0.19674392 -0.25416003 234 88 12
-1.3212033 -0.19666326 -0.2546888 234 88 12
-1.3178296 -0.19659848 -0.25534915 234 88 12
-1.3144534 -0.19653499 -0.25598137 234 88 12
-1.3111112 -0.19646258 -0.2566297 234 88 12
-1.3077535 -0.19637339 -0.25721931 234 88 12
-1.3044353 -0.19630296 -0.25795554 234 88 12
-1.3011448 -0.19623726 -0.25872786 234 88 12
-1.2978683 -0.19619903 -0.25952656 234 88 12
-1.2945984 -0.19614722 -0.26032872 234 88 12
-1.2913737 -0.19609337 -0.26105796 234 88 12
-1.288147 -0.19604708 -0.26186269 234 88 12
-1.284968 -0.19603374 -0.26268129 234 88 12
-1.28182 -0.1960143 -0.26356102 234 88 12
-1.2787146 -0.19599211 -0.26456414 234 88 12
-1.2756089 -0.19598075 -0.26554097 234 88 12
-1.2725717 -0.1959572 -0.26655254 234 88 12
-1.2695687 -0.19595008 -0.2674717 234 88 12
-1.2666188 -0.19594496 -0.26844204 234 88 12
-1.2636819 -0.19595579 -0.26931184 234 88 12
-1.2607238 -0.19598022 -0.27014806 234 88 12
-1.2577519 -0.1959919 -0.27099404 234 88 12
-1.2548045 -0.19600637 -0.2718856 234 88 12
-1.2519124 -0.19601728 -0.27278033 234 88 12
-1.2490384 -0.19601784 -0.27368753 234 88 12
-1.2461539 -0.19601778 -0.27453638 234 88 12
-1.2432694 -0.19602464 -0.27536751 234 88 12
-1.2403992 -0.19605743 -0.276218 234 88 12
-1.2375249 -0.19608038 -0.27709648 234 88 12
-1.2346555 -0.19613037 -0.27803355 234 88 12
-1.2317893 -0.1961656 -0.2789044 234 88 12
-1.228937 -0.19620194 -0.2797983 234 88 12
-1.2260552 -0.19621255 -0.28057731 234 88 12
-1.2232005 -0.19622991 -0.281452 234 88 12
-1.220353 -0.19626034 -0.28235751 234 88 12
-1.2175255 -0.19629386 -0.28334715 234 88 12
-1.2146735 -0.19632542 -0.2843381 234 88 12
-1.2118072 -0.1963626 -0.28528828 234 88 12
-1.2089227 -0.19636994 -0.28624579 234 88 12
-1.2060032 -0.19638888 -0.28707427 234 88 12
-1.2030696 -0.19640089 -0.28802034 234 88 12
-1.2001582 -0.19642476 -0.28890922 234 88 12
-1.1972438 -0.19642096 -0.28982407 234 88 12
-1.1943286 -0.19640724 -0.29070598 234 88 12
-1.1913848 -0.19641989 -0.29159311 234 88 12
-1.1884956 -0.19642777 -0.29258961 234 88 12
-1.1855971 -0.19641959 -0.29346046 234 88 12
-1.1826801 -0.19641006 -0.29446606 234 88 12
-1.1797837 -0.19638936 -0.29539735 234 88 12
-1.1768653 -0.19636459 -0.2964484 234 88 12
-1.1739629 -0.1963372 -0.29732546 234 88 12
-1.1710619 -0.19632166 -0.29826008 234 88 12
-1.1681687 -0.19630057 -0.29912622 234 88 12
-1.4190959 -0.20205833 -0.24828527 234 88 12
-1.4157058 -0.20201034 -0.2485209 234 88 12
-1.4123066 -0.20194445 -0.2487421 234 88 12
-1.4089402 -0.20187768 -0.24911801 234 88 12
-1.4055614 -0.20179378 -0.24937744 234 88 12
-1.4021144 -0.20170831 -0.2494563 234 88 12
-1.3986868 -0.20162179 -0.24964149 234 88 12
-1.3951786 -0.20154674 -0.24986575 234 88 12
-1.3917212 -0.20149311 -0.25019791 234 88 12
-1.3882567 -0.20144481 -0.25048014 234 88 12
-1.3847715 -0.20138407 -0.25071342 234 88 12
-1.3812592 -0.20131357 -0.25096655 234 88 12
-1.3777249 -0.20123511 -0.25116612 234 88 12
-1.3741337 -0.20115255 -0.25121731 234 88 12
-1.3705363 -0.20106302 -0.25132783 234 88 12
-1.3669185 -0.20098381 -0.25138487 234 88 12
-1.3633168 -0.20090775 -0.25146934 234 88 12
-1.3597024 -0.20080742 -0.25147078 234 88 12
-1.3561089 -0.2007105 -0.25149815 234 88 12
-1.3525284 -0.20062714 -0.2516387 234 88 12
-1.3489583 -0.20053629 -0.25175327 234 88 12
-1.3454318 -0.20047604 -0.25194472 234 88 12
-1.3418789 -0.20039194 -0.25212446 234 88 12
-1.338342 -0.20031861 -0.25243891 234 88 12
-1.3348038 -0.20024005 -0.2527343 234 88 12
-1.3312876 -0.20018387 -0.25303891 234 88 12
-1.3278297 -0.20011027 -0.25340013 234 88 12
-1.3244109 -0.20004143 -0.25383111 234 88 12
-1.3210104 -0.19995885 -0.25434923 234 88 12
-1.3176472 -0.1998985 -0.25494353 234 88 12
-1.314263 -0.19981263 -0.25548967 234 88 12
-1.3109429 -0.19972619 -0.25617024 234 88 12
-1.3075708 -0.19963164 -0.25676944 234 88 12
-1.3042937 -0.19954347 -0.25756705 234 88 12
-1.3009768 -0.19948125 -0.2583279 234 88 12
-1.2977271 -0.19943796 -0.25913678 234 88 12
-1.294473 -0.19938762 -0.2598899 234 88 12
-1.2912768 -0.19931806 -0.26070085 234 88 12
-1.2880852 -0.19928106 -0.2615086 234 88 12
-1.2849289 -0.19927217 -0.26244698 234 88 12
-1.2817826 -0.19927059 -0.26331153 234 88 12
-1.2786688 -0.19924804 -0.26431608 234 88 12
-1.2755712 -0.19923381 -0.26522533 234 88 12
-1.2725461 -0.19922766 -0.26620202 234 88 12
-1.2695595 -0.1992241 -0.26715916 234 88 12
-1.2666023 -0.19922621 -0.2680705 234 88 12
-1.2636623 -0.19922678 -0.26895749 234 88 12
-1.2606941 -0.19922922 -0.26978593 234 88 12
-1.2577255 -0.19922036 -0.27069141 234 88 12
-1.2548116 -0.19923583 -0.27158958 234 88 12
-1.251923 -0.19923529 -0.27248669 234 88 12
-1.2490638 -0.19925053 -0.27339149 234 88 12
-1.2461785 -0.19925953 -0.27428144 234 88 12
-1.2432846 -0.19927285 -0.27508472 234 88 12
-1.2404216 -0.19930444 -0.27591241 234 88 12
-1.2375459 -0.19932922 -0.27678243 234 88 12
-1.2346853 -0.19937682 -0.27770954 234 88 12
-1.2318256 -0.19942327 -0.27857748 234 88 12
-1.2289915 -0.19945647 -0.27949625 234 88 12
-1.2261184 -0.19947126 -0.28027491 234 88 12
-1.2232452 -0.19948309 -0.28114742 234 88 12
-1.2203772 -0.19950679 -0.28198585 234 88 12
-1.217535 -0.19953137 -0.28296164 234 88 12
-1.2146709 -0.19955405 -0.28391119 234 88 12
-1.211807 -0.19959166 -0.28487258 234 88 12
-1.2089161 -0.1996162 -0.28580987 234 88 12
-1.2059913 -0.19962591 -0.2866446 234 88 12
-1.2030644 -0.19964539 -0.28761853 234 88 12
-1.2001425 -0.19965709 -0.28851285 234 88 12
-1.1972544 -0.19965955 -0.28948633 234 88 12
-1.1943062 -0.19966722 -0.29037659 234 88 12
-1.1913415 -0.19966587 -0.29122639 234 88 12
-1.1884151 -0.19967413 -0.2921556 234 88 12
-1.1855035 -0.19966471 -0.29303061 234 88 12
-1.1826078 -0.19966014 -0.29404384 234 88 12
-1.1797162 -0.19963754 -0.29504164 234 88 12
-1.1767926 -0.19962515 -0.29607549 234 88 12
-1.1738581 -0.19960747 -0.29695578 234 88 12
-1.1709361 -0.19957756 -0.29785339 234 88 12
-1.1680324 -0.19955153 -0.29874433 234 88 12
-1.4190393 -0.20548714 -0.24826072 234 88 12
-1.4156387 -0.20543537 -0.2485221 234 88 12
-1.4122295 -0.20536887 -0.24877341 234 88 12
-1.4088288 -0.2053018 -0.24907283 234 88 12
-1.4054674 -0.20522147 -0.24935863 234 88 12
-1.4020338 -0.2051224 -0.24952345 234 88 12
-1.3986114 -0.20501882 -0.24978859 234 88 12
-1.3951227 -0.2049129 -0.24998333 234 88 12
-1.3916424 -0.20483041 -0.25025632 234 88 12
-1.3881766 -0.20477866 -0.25052388 234 88 12
-1.384658 -0.20471392 -0.25076369 234 88 12
-1.3812045 -0.20465824 -0.25113194 234 88 12
-1.3776626 -0.20457816 -0.25129926 234 88 12
-1.3740683 -0.20450058 -0.25135288 234 88 12
-1.3704417 -0.204418 -0.25136814 234 88 12
-1.3668077 -0.2043263 -0.25139634 234 88 12
-1.3632262 -0.20423366 -0.25145316 234 88 12
-1.3596131 -0.20413962 -0.25148716 234 88 12
-1.3560396 -0.20404095 -0.25158028 234 88 12
-1.3524698 -0.20393475 -0.25170237 234 88 12
-1.3489187 -0.203835 -0.25180293 234 88 12
-1.3453733 -0.2037607 -0.25189396 234 88 12
-1.3418109 -0.20366292 -0.25201673 234 88 12
-1.3382739 -0.20358171 -0.25229829 234 88 12
-1.3347109 -0.20350179 -0.25258523 234 88 12
-1.3311745 -0.20344998 -0.25286601 234 88 12
-1.3277109 -0.20339515 -0.25326411 234 88 12
-1.3242712 -0.2033255 -0.25370267 234 88 12
-1.3209102 -0.20325482 -0.25426673 234 88 12
-1.3175619 -0.20318241 -0.2548126 234 88 12
-1.3142331 -0.20310151 -0.25544212 234 88 12
-1.3108924 -0.20300761 -0.25604173 234 88 12
-1.3075492 -0.20289864 -0.25670873 234 88 12
-1.3042298 -0.20280732 -0.25737766 234 88 12
-1.3009138 -0.20272734 -0.25812236 234 88 12
-1.2976498 -0.20268158 -0.25888342 234 88 12
-1.29443 -0.20261873 -0.25969238 234 88 12
-1.291256 -0.20255646 -0.26053695 234 88 12
-1.2880945 -0.20251952 -0.26141161 234 88 12
-1.2849315 -0.20251536 -0.26233035 234 88 12
-1.2817696 -0.20251118 -0.26319042 234 88 12
-1.2786396 -0.20249152 -0.26417739 234 88 12
-1.2755735 -0.20248394 -0.265087 234 88 12
-1.2725734 -0.20248077 -0.26610582 234 88 12
-1.2695914 -0.20248117 -0.26700501 234 88 12
-1.2666254 -0.20247305 -0.26790645 234 88 12
-1.2636661 -0.20247031 -0.26874335 234 88 12
-1.2607194 -0.20248646 -0.26961893 234 88 12
-1.257783 -0.20247385 -0.27055397 234 88 12
-1.2549019 -0.20246988 -0.27152722 234 88 12
-1.2520151 -0.20246205 -0.27242174 234 88 12
-1.2491293 -0.20247 -0.27329679 234 88 12
-1.2462138 -0.20248369 -0.27411048 234 88 12
-1.2433305 -0.20252666 -0.27489622 234 88 12
-1.2404759 -0.20257322 -0.27577134 234 88 12
-1.237616 -0.20260406 -0.27667165 234 88 12
-1.2347345 -0.20264856 -0.27754732 234 88 12
-1.2318566 -0.20268261 -0.27832724 234 88 12
-1.2290011 -0.20271602 -0.27917815 234 88 12
-1.2261488 -0.2027243 -0.28001999 234 88 12
-1.223296 -0.20273935 -0.28091224 234 88 12
-1.2204412 -0.20276111 -0.28175817 234 88 12
-1.2175505 -0.20278017 -0.28263972 234 88 12
-1.2146691 -0.20279548 -0.28362473 234 88 12
-1.2117852 -0.20283011 -0.28454052 234 88 12
-1.2089205 -0.20284024 -0.28552686 234 88 12
-1.2059773 -0.20286008 -0.28633427 234 88 12
-1.2030748 -0.20287676 -0.28729881 234 88 12
-1.2001641 -0.20290356 -0.2882295 234 88 12
-1.1972641 -0.20293187 -0.28921393 234 88 12
-1.1943138 -0.20295419 -0.29013904 234 88 12
-1.1913344 -0.20294911 -0.29095623 234 88 12
-1.1884239 -0.20294941 -0.29188658 234 88 12
-1.1854988 -0.20293354 -0.29271909 234 88 12
-1.1825992 -0.20294948 -0.293776 234 88 12
-1.1796653 -0.20294044 -0.29471031 234 88 12
-1.1767356 -0.20292584 -0.29572658 234 88 12
-1.1737979 -0.20291053 -0.29659473 234 88 12
-1.170846 -0.20285813 -0.29745453 234 88 12
-1.1679255 -0.20282809 -0.29832081 234 88 12
-1.4189393 -0.20893522 -0.24824489 234 88 12
-1.4155819 -0.20888442 -0.24856541 234 88 12
-1.4122002 -0.20881809 -0.24888255 234 88 12
-1.4088148 -0.20873708 -0.24918871 234 88 12
-1.4054624 -0.20865373 -0.24952503 234 88 12
-1.4020225 -0.20853954 -0.24972453 234 88 12
-1.3986113 -0.20843329 -0.25005749 234 88 12
-1.3951329 -0.20831268 -0.25025609 234 88 12
-1.3916533 -0.20821973 -0.25048419 234 88 12
-1.3881637 -0.20814814 -0.25073744 234 88 12
-1.3846299 -0.20806314 -0.25097667 234 88 12
-1.3811691 -0.20799726 -0.25129328 234 88 12
-1.37765 -0.2079148 -0.25149033 234 88 12
-1.3740788 -0.2078554 -0.25159741 234 88 12
-1.3704423 -0.20775112 -0.25156929 234 88 12
-1.3668169 -0.20765324 -0.25156321 234 88 12
-1.3632283 -0.20755122 -0.25157109 234 88 12
-1.3596173 -0.20746691 -0.25165621 234 88 12
-1.3560313 -0.20737241 -0.2517318 234 88 12
-1.3524691 -0.20727631 -0.25186644 234 88 12
-1.3489018 -0.20717343 -0.25193223 234 88 12
-1.3453553 -0.20708372 -0.25202098 234 88 12
-1.3417757 -0.20696618 -0.25214428 234 88 12
-1.3382288 -0.2068625 -0.25236264 234 88 12
-1.3346592 -0.20678117 -0.25259991 234 88 12
-1.3311265 -0.20671763 -0.25289762 234 88 12
-1.3276622 -0.20666628 -0.25333103 234 88 12
-1.3242153 -0.20660613 -0.25378977 234 88 12
-1.320851 -0.20654747 -0.25429449 234 88 12
-1.3174971 -0.20646315 -0.25485509 234 88 12
-1.3141779 -0.20638959 -0.25542463 234 88 12
-1.3108754 -0.2062871 -0.25609361 234 88 12
-1.3075436 -0.20619023 -0.2567175 234 88 12
-1.3042418 -0.20608106 -0.25744683 234 88 12
-1.3009212 -0.20600133 -0.25810903 234 88 12
-1.2976708 -0.20595098 -0.25892052 234 88 12
-1.2944416 -0.20590021 -0.25971396 234 88 12
-1.2912775 -0.20585222 -0.26063442 234 88 12
-1.2881431 -0.20581522 -0.26149487 234 88 12
-1.2849941 -0.20581862 -0.2624567 234 88 12
-1.2818484 -0.20582676 -0.2633452 234 88 12
-1.2787247 -0.2058043 -0.26431016 234 88 12
-1.2756687 -0.20580181 -0.26520004 234 88 12
-1.2726723 -0.20579255 -0.26619513 234 88 12
-1.269686 -0.20578791 -0.26706483 234 88 12
-1.2667056 -0.20578947 -0.26794594 234 88 12
-1.2637235 -0.20577628 -0.26871375 234 88 12
-1.2607778 -0.20577417 -0.26965261 234 88 12
-1.2578569 -0.20575265 -0.27057265 234 88 12
-1.2549489 -0.20573395 -0.27150591 234 88 12
-1.2520592 -0.20573333 -0.27240096 234 88 12
-1.2491668 -0.2057357 -0.27327772 234 88 12
-1.2462682 -0.20575671 -0.27410698 234 88 12
-1.2434078 -0.20582336 -0.27491941 234 88 12
-1.2405365 -0.20587973 -0.27575638 234 88 12
-1.2377017 -0.20591558 -0.27665202 234 88 12
-1.2347842 -0.2059337 -0.2773551 234 88 12
-1.2319206 -0.20596483 -0.27814897 234 88 12
-1.2290568 -0.20599006 -0.27895808 234 88 12
-1.2262371 -0.20601794 -0.27992888 234 88 12
-1.2233865 -0.20603559 -0.28078218 234 88 12
-1.2205269 -0.20604449 -0.2816783 234 88 12
-1.2176159 -0.20605059 -0.28253215 234 88 12
-1.2147366 -0.2060751 -0.28345089 234 88 12
-1.2118394 -0.20610229 -0.28440853 234 88 12
-1.2089615 -0.20611329 -0.28537592 234 88 12
-1.2060541 -0.20612686 -0.28623495 234 88 12
-1.2031393 -0.20615754 -0.28717505 234 88 12
-1.2002389 -0.20619089 -0.28806917 234 88 12
-1.1973152 -0.20622285 -0.28899865 234 88 12
-1.1943841 -0.20624612 -0.28987964 234 88 12
-1.1914062 -0.20623926 -0.29072841 234 88 12
-1.1884793 -0.20623703 -0.29166794 234 88 12
-1.1855435 -0.20623505 -0.29251869 234 88 12
-1.1826154 -0.20626864 -0.29352576 234 88 12
-1.1796719 -0.20625001 -0.29443976 234 88 12
-1.1767237 -0.2062376 -0.2953794 234 88 12
-1.1737768 -0.20621016 -0.29624984 234 88 12
-1.1708031 -0.2061677 -0.29710921 234 88 12
-1.1678439 -0.20611598 -0.2979695 234 88 12
-1.418878 -0.21236769 -0.24824681 234 88 12
-1.4155447 -0.21232416 -0.24867491 234 88 12
-1.412239 -0.21226249 -0.24909089 234 88 12
-1.4088577 -0.21217054 -0.24938008 234 88 12
-1.4054867 -0.21206495 -0.24974163 234 88 12
-1.4020511 -0.21195402 -0.25003501 234 88 12
-1.3986287 -0.21184702 -0.25039973 234 88 12
-1.3951778 -0.2117252 -0.25063616 234 88 12
-1.3917015 -0.21162043 -0.25088338 234 88 12
-1.3882294 -0.21153004 -0.25118867 234 88 12
-1.3846995 -0.21144153 -0.25143927 234 88 12
-1.3812308 -0.21136237 -0.25169742 234 88 12
-1.3776972 -0.21127712 -0.25178949 234 88 12
-1.374098 -0.21121298 -0.25185995 234 88 12
-1.3705008 -0.21111897 -0.25188329 234 88 12
-1.3669162 -0.2110213 -0.25196519 234 88 12
-1.363356 -0.21089823 -0.25200822 234 88 12
-1.3597416 -0.21079489 -0.25204781 234 88 12
-1.3561278 -0.21067886 -0.25203719 234 88 12
-1.3525371 -0.21058732 -0.25212348 234 88 12
-1.348942 -0.21048953 -0.25220811 234 88 12
-1.3453792 -0.21039605 -0.25231636 234 88 12
-1.3417851 -0.21027676 -0.25241276 234 88 12
-1.3382631 -0.21017827 -0.25261954 234 88 12
-1.3347079 -0.21009733 -0.25283542 234 88 12
-1.3311884 -0.21003435 -0.25315504 234 88 12
-1.3276849 -0.20997379 -0.2535389 234 88 12
-1.324229 -0.2098969 -0.25397349 234 88 12
-1.3208449 -0.20983883 -0.25445408 234 88 12
-1.3175105 -0.20978256 -0.25506117 234 88 12
-1.3142127 -0.20971564 -0.25575065 234 88 12
-1.3108951 -0.20962368 -0.25631308 234 88 12
-1.3076105 -0.20951323 -0.25697699 234 88 12
-1.3042921 -0.20940007 -0.25759023 234 88 12
-1.3010012 -0.20931225 -0.25831539 234 88 12
-1.2977254 -0.20924877 -0.25902834 234 88 12
-1.2945328 -0.20921869 -0.25993689 234 88 12
-1.2913654 -0.20920016 -0.260858 234 88 12
-1.2882354 -0.20916286 -0.26177866 234 88 12
-1.2850884 -0.20916077 -0.26272062 234 88 12
-1.2819477 -0.20916878 -0.26361986 234 88 12
-1.2788401 -0.20915018 -0.26459459 234 88 12
-1.2757846 -0.20915182 -0.26546039 234 88 12
-1.2728084 -0.20913726 -0.26645766 234 88 12
-1.269803 -0.209124 -0.26727344 234 88 12
-1.2668081 -0.2091222 -0.26812549 234 88 12
-1.2638154 -0.20911819 -0.26890225 234 88 12
-1.2608759 -0.20909532 -0.26982308 234 88 12
-1.257949 -0.20908527 -0.27072147 234 88 12
-1.2550478 -0.20906038 -0.27162581 234 88 12
-1.2521502 -0.20906667 -0.27247604 234 88 12
-1.2492555 -0.20906483 -0.2733615 234 88 12
-1.2463386 -0.20909593 -0.27416836 234 88 12
-1.2434682 -0.20915587 -0.27503635 234 88 12
-1.2405904 -0.20920236 -0.27579853 234 88 12
-1.2377773 -0.2092588 -0.27666939 234 88 12
-1.2348893 -0.20928086 -0.27739054 234 88 12
-1.2320317 -0.20931582 -0.27819798 234 88 12
-1.2291507 -0.2093295 -0.27893915 234 88 12
-1.2263271 -0.20935054 -0.27983384 234 88 12
-1.2234744 -0.2093564 -0.28068668 234 88 12
-1.2206138 -0.20935486 -0.28160542 234 88 12
-1.2177045 -0.20936374 -0.28246419 234 88 12
-1.2148304 -0.20937771 -0.28340541 234 88 12
-1.2119288 -0.20938595 -0.28436447 234 88 12
-1.2090335 -0.20939203 -0.28532841 234 88 12
-1.2061193 -0.20942441 -0.28625914 234 88 12
-1.2032091 -0.20943918 -0.28712113 234 88 12
-1.2002966 -0.20948661 -0.28798024 234 88 12
-1.1973421 -0.20951082 -0.28880454 234 88 12
-1.1944251 -0.20954535 -0.28969531 234 88 12
-1.1914697 -0.20954723 -0.29052825 234 88 12
-1.188572 -0.20956438 -0.29152881 234 88 12
-1.1856221 -0.20956597 -0.29238315 234 88 12
-1.1826633 -0.20960074 -0.2933392 234 88 12
-1.1796946 -0.20958074 -0.29422045 234 88 12
-1.1767359 -0.20957611 -0.29513709 234 88 12
-1.1737922 -0.20953119 -0.29604678 234 88 12
-1.1707991 -0.20947097 -0.2968788 234 88 12
-1.1677917 -0.20939529 -0.2976727 234 88 12
-1.4188486 -0.21578094 -0.24834654 234 88 12
-1.4155447 -0.2157344 -0.24883672 234 88 12
-1.4122926 -0.21567602 -0.249367 234 88 12
-1.4089539 -0.2155798 -0.24976722 234 88 12
-1.4055356 -0.21547505 -0.25013298 234 88 12
-1.4020896 -0.21536232 -0.25044356 234 88 12
-1.3986944 -0.21526439 -0.25077221 234 88 12
-1.3952603 -0.21515445 -0.25112184 234 88 12
-1.3918042 -0.2150556 -0.25144904 234 88 12
-1.3883323 -0.21495193 -0.25177424 234 88 12
-1.3848412 -0.21484901 -0.25199098 234 88 12
-1.3813504 -0.2147443 -0.25215763 234 88 12
-1.3778058 -0.21465802 -0.25220549 234 88 12
-1.3742091 -0.21456797 -0.25226041 234 88 12
-1.370624 -0.21447215 -0.25236122 234 88 12
-1.3670567 -0.21437047 -0.25247367 234 88 12
-1.3634883 -0.21423858 -0.25250836 234 88 12
-1.359899 -0.21412378 -0.25256744 234 88 12
-1.3562808 -0.21402106 -0.25256611 234 88 12
-1.3526645 -0.21393559 -0.25258978 234 88 12
-1.3490503 -0.21386038 -0.25262719 234 88 12
-1.3454666 -0.21374235 -0.25275712 234 88 12
-1.3419067 -0.21363288 -0.25289207 234 88 12
-1.338354 -0.21352791 -0.25309882 234 88 12
-1.3347944 -0.21343962 -0.25331618 234 88 12
-1.33128 -0.21336278 -0.25363817 234 88 12
-1.327776 -0.21329012 -0.2539775 234 88 12
-1.3243204 -0.21321941 -0.2543806 234 88 12
-1.3209234 -0.21315845 -0.25484629 234 88 12
-1.3176086 -0.21312421 -0.25547625 234 88 12
-1.3143069 -0.21307827 -0.25616075 234 88 12
-1.3110297 -0.21299578 -0.25674561 234 88 12
-1.3077316 -0.2129058 -0.25736823 234 88 12
-1.3044485 -0.2127985 -0.25801497 234 88 12
-1.3011678 -0.21272345 -0.25875549 234 88 12
-1.2979043 -0.2126705 -0.25952978 234 88 12
-1.2946775 -0.21264294 -0.26036449 234 88 12
-1.291491 -0.21262352 -0.26128141 234 88 12
-1.2883511 -0.21259405 -0.26213612 234 88 12
-1.2852242 -0.21260338 -0.26310212 234 88 12
-1.2821073 -0.21260073 -0.26399621 234 88 12
-1.2790315 -0.2126102 -0.26498204 234 88 12
-1.2760111 -0.21259961 -0.26593681 234 88 12
-1.2730156 -0.21259151 -0.26685192 234 88 12
-1.2699913 -0.21256707 -0.26768324 234 88 12
-1.2669753 -0.21255419 -0.26847408 234 88 12
-1.2639885 -0.21253108 -0.26928717 234 88 12
-1.261047 -0.21251511 -0.27021357 234 88 12
-1.258092 -0.21250173 -0.27105006 234 88 12
-1.2551597 -0.21249725 -0.27189397 234 88 12
-1.2522383 -0.21250074 -0.27270002 234 88 12
-1.2493512 -0.21252989 -0.27362209 234 88 12
-1.2464705 -0.21253785 -0.27446366 234 88 12
-1.2436341 -0.21256874 -0.27535162 234 88 12
-1.2407523 -0.21260515 -0.27609912 234 88 12
-1.2379272 -0.21264792 -0.27688717 234 88 12
-1.2350632 -0.21268252 -0.27759189 234 88 12
-1.2322393 -0.21271046 -0.27841911 234 88 12
-1.2293811 -0.21272452 -0.27924748 234 88 12
-1.226529 -0.21273532 -0.28006793 234 88 12
-1.2236401 -0.21271647 -0.28087839 234 88 12
-1.2207566 -0.21270386 -0.28172074 234 88 12
-1.2178678 -0.21270426 -0.28262961 234 88 12
-1.2149796 -0.21271127 -0.28350617 234 88 12
-1.2120734 -0.21272145 -0.28448503 234 88 12
-1.2091418 -0.21273027 -0.28538646 234 88 12
-1.2062525 -0.21274957 -0.28635906 234 88 12
-1.2033345 -0.21276802 -0.28715584 234 88 12
-1.2003961 -0.21280154 -0.28798932 234 88 12
-1.1974267 -0.21280283 -0.28870296 234 88 12
-1.1944809 -0.21281927 -0.28952119 234 88 12
-1.1915487 -0.21282569 -0.29037953 234 88 12
-1.1886287 -0.21285021 -0.29138839 234 88 12
-1.1856782 -0.21285687 -0.29228244 234 88 12
-1.1826942 -0.21287741 -0.29314383 234 88 12
-1.1797248 -0.2128687 -0.29396648 234 88 12
-1.1767759 -0.21287053 -0.29497275 234 88 12
-1.1738192 -0.21282284 -0.29591747 234 88 12
-1.1708573 -0.21276074 -0.29680775 234 88 12
-1.1678471 -0.21267738 -0.29749483 234 88 12
-1.4188898 -0.21921711 -0.24853713 234 88 12
-1.4155684 -0.21915798 -0.24904268 234 88 12
-1.4123006 -0.21910297 -0.24960032 234 88 12
-1.4089883 -0.2190076 -0.25014036 234 88 12
-1.4056333 -0.21891358 -0.25057663 234 88 12
-1.4022279 -0.21881092 -0.25098543 234 88 12
-1.3988087 -0.2187171 -0.25128242 234 88 12
-1.3953623 -0.2185971 -0.25163694 234 88 12
-1.3919055 -0.2185057 -0.25201477 234 88 12
-1.3884414 -0.21840176 -0.25233043 234 88 12
-1.3849931 -0.21829693 -0.25260642 234 88 12
-1.3814998 -0.21818318 -0.2527428 234 88 12
-1.3779428 -0.21808034 -0.2528498 234 88 12
-1.3743659 -0.21799236 -0.25292599 234 88 12
-1.3708067 -0.21790239 -0.25309056 234 88 12
-1.3672551 -0.21780644 -0.25319288 234 88 12
-1.3637129 -0.2176732 -0.25325785 234 88 12
-1.3601237 -0.21753676 -0.2533112 234 88 12
-1.3565021 -0.2174122 -0.25333595 234 88 12
-1.3528655 -0.21729278 -0.2532921 234 88 12
-1.3492285 -0.21722051 -0.25326669 234 88 12
-1.3456138 -0.21710739 -0.2533403 234 88 12
-1.3420501 -0.21701163 -0.25351755 234 88 12
-1.3385061 -0.21691833 -0.253759 234 88 12
-1.3349514 -0.21683025 -0.25397721 234 88 12
-1.3314528 -0.21673877 -0.25424877 234 88 12
-1.3279355 -0.21666274 -0.25449176 234 88 12
-1.3245008 -0.21660858 -0.25490714 234 88 12
-1.3211303 -0.2165772 -0.25542349 234 88 12
-1.3178242 -0.21654082 -0.25610934 234 88 12
-1.3145546 -0.21649813 -0.25682827 234 88 12
-1.3112741 -0.21643338 -0.25742643 234 88 12
-1.3079901 -0.21634708 -0.25810672 234 88 12
-1.3047075 -0.21627129 -0.25871809 234 88 12
-1.3014338 -0.21620274 -0.25947804 234 88 12
-1.2981557 -0.21616801 -0.26024441 234 88 12
-1.2949315 -0.21614205 -0.26107787 234 88 12
-1.2917521 -0.21614741 -0.26194685 234 88 12
-1.2886063 -0.21613499 -0.26280048 234 88 12
-1.2854686 -0.21614221 -0.26370792 234 88 12
-1.28233 -0.21612406 -0.26460078 234 88 12
-1.2792554 -0.21612987 -0.26552691 234 88 12
-1.2762505 -0.2161032 -0.2665037 234 88 12
-1.2732243 -0.21609513 -0.26736025 234 88 12
-1.2701864 -0.21607738 -0.26818535 234 88 12
-1.2671516 -0.2160528 -0.26899627 234 88 12
-1.2641801 -0.21601568 -0.26986266 234 88 12
-1.2612256 -0.21598863 -0.27070668 234 88 12
-1.258285 -0.21598699 -0.27153901 234 88 12
-1.2553885 -0.21599035 -0.27235049 234 88 12
-1.2524437 -0.21598989 -0.27315635 234 88 12
-1.2495632 -0.21600308 -0.27398829 234 88 12
-1.2466822 -0.2160103 -0.27483352 234 88 12
-1.2438505 -0.21603995 -0.27568744 234 88 12
-1.2409798 -0.21604502 -0.27646756 234 88 12
-1.2381389 -0.21609774 -0.27720503 234 88 12
-1.2352957 -0.21611828 -0.27798509 234 88 12
-1.2324566 -0.21614945 -0.27880543 234 88 12
-1.2296011 -0.21614917 -0.27960244 234 88 12
-1.2267088 -0.21612741 -0.28032116 234 88 12
-1.223787 -0.21609542 -0.28109343 234 88 12
-1.2208868 -0.21607433 -0.28192208 234 88 12
-1.2180095 -0.21608212 -0.28280371 234 88 12
-1.2151124 -0.2160843 -0.28368933 234 88 12
-1.2121851 -0.21609078 -0.28458798 234 88 12
-1.2092595 -0.2160882 -0.28548149 234 88 12
-1.2063507 -0.21608835 -0.28635894 234 88 12
-1.203433 -0.21607754 -0.28717016 234 88 12
-1.2004964 -0.21608101 -0.28799644 234 88 12
-1.1975301 -0.21609864 -0.2887228 234 88 12
-1.1945464 -0.21609845 -0.28952376 234 88 12
-1.1915978 -0.2161278 -0.29035935 234 88 12
-1.1886608 -0.21614615 -0.2912512 234 88 12
-1.1857194 -0.21616307 -0.29214187 234 88 12
-1.1827504 -0.21617621 -0.29297379 234 88 12
-1.1797909 -0.21617224 -0.29390521 234 88 12
-1.1768454 -0.21618441 -0.2949042 234 88 12
-1.1738832 -0.21614099 -0.2958348 234 88 12
-1.1709205 -0.21608039 -0.29674951 234 88 12
-1.1679155 -0.21597292 -0.297383 234 88 12
-1.4189401 -0.2226654 -0.24882171 234 88 12
-1.4156201 -0.22260537 -0.24931963 234 88 12
-1.4123547 -0.22255549 -0.24990971 234 88 12
-1.4090535 -0.2224832 -0.25055544 234 88 12
-1.4057301 -0.22241448 -0.25106277 234 88 12
-1.4023602 -0.22231216 -0.25155687 234 88 12
-1.3989509 -0.22221188 -0.25188687 234 88 12
-1.3955206 -0.22209912 -0.25231392 234 88 12
-1.3920926 -0.22201409 -0.25273022 234 88 12
-1.3886471 -0.22191915 -0.25309315 234 88 12
-1.3852111 -0.22181372 -0.25335923 234 88 12
-1.3816896 -0.22169782 -0.25352207 234 88 12
-1.378162 -0.22159115 -0.25370189 234 88 12
-1.3746072 -0.22150194 -0.25385108 234 88 12
-1.3710593 -0.22141193 -0.25401244 234 88 12
-1.3675076 -0.22130291 -0.25410646 234 88 12
-1.3639478 -0.22117871 -0.25416338 234 88 12
-1.3603517 -0.22105316 -0.25418726 234 88 12
-1.3567339 -0.22092094 -0.25424586 234 88 12
-1.3530694 -0.2208033 -0.25416673 234 88 12
-1.3494422 -0.22069815 -0.25413042 234 88 12
-1.345797 -0.22057574 -0.25409786 234 88 12
-1.342217 -0.22048161 -0.25421721 234 88 12
-1.33867 -0.22037846 -0.25446019 234 88 12
-1.3351653 -0.22028665 -0.2547227 234 88 12
-1.331704 -0.22019877 -0.25506887 234 88 12
-1.3282503 -0.22014057 -0.25540579 234 88 12
-1.3248217 -0.22008966 -0.25581833 234 88 12
-1.321463 -0.22005998 -0.25633998 234 88 12
-1.3181835 -0.2200141 -0.25697773 234 88 12
-1.314925 -0.21998322 -0.25766211 234 88 12
-1.3116426 -0.21993907 -0.25828766 234 88 12
-1.3083599 -0.21988493 -0.25899959 234 88 12
-1.3050999 -0.21983378 -0.25974048 234 88 12
-1.3018131 -0.21978267 -0.26049368 234 88 12
-1.298558 -0.21977547 -0.26128153 234 88 12
-1.2953198 -0.21976551 -0.26205999 234 88 12
-1.2921513 -0.21977137 -0.26294002 234 88 12
-1.2889806 -0.21975125 -0.2637095 234 88 12
-1.2858223 -0.21976107 -0.26458828 234 88 12
-1.2827045 -0.21973986 -0.26546199 234 88 12
-1.2796122 -0.21973017 -0.26635633 234 88 12
-1.2765611 -0.21968721 -0.26723445 234 88 12
-1.2735114 -0.21964966 -0.26806659 234 88 12
-1.2704649 -0.21961573 -0.26884334 234 88 12
-1.267441 -0.2195783 -0.26970417 234 88 12
-1.2644556 -0.21953908 -0.27056132 234 88 12
-1.2615331 -0.21949808 -0.27141964 234 88 12
-1.2585911 -0.21948971 -0.27222524 234 88 12
-1.2556791 -0.21949467 -0.27301651 234 88 12
-1.2527464 -0.21949554 -0.2738274 234 88 12
-1.2498544 -0.21950763 -0.27458291 234 88 12
-1.2469849 -0.2195163 -0.27536194 234 88 12
-1.2441588 -0.21952488 -0.27622657 234 88 12
-1.2413223 -0.21953015 -0.27706046 234 88 12
-1.2384328 -0.21952223 -0.27778813 234 88 12
-1.2355494 -0.21952804 -0.27847468 234 88 12
-1.2326756 -0.21953672 -0.27919021 234 88 12
-1.2298165 -0.2195405 -0.27999107 234 88 12
-1.2269099 -0.2195164 -0.28074219 234 88 12
-1.2239987 -0.21948494 -0.28150222 234 88 12
-1.2210764 -0.21946093 -0.2822382 234 88 12
-1.2181784 -0.21945458 -0.28305909 234 88 12
-1.2152478 -0.21945438 -0.283905 234 88 12
-1.2123345 -0.21945748 -0.28480459 234 88 12
-1.2093933 -0.21946549 -0.28563505 234 88 12
-1.2064786 -0.21945205 -0.28642793 234 88 12
-1.2035508 -0.21944131 -0.28719045 234 88 12
-1.2006092 -0.2194294 -0.28803127 234 88 12
-1.1976602 -0.21943763 -0.2887802 234 88 12
-1.194687 -0.21943327 -0.28964989 234 88 12
-1.1917269 -0.21943932 -0.29044194 234 88 12
-1.1887523 -0.21946187 -0.29124259 234 88 12
-1.1858145 -0.21947522 -0.29207927 234 88 12
-1.1828444 -0.21949732 -0.29291711 234 88 12
-1.1798897 -0.21948787 -0.29384431 234 88 12
-1.1769371 -0.21950332 -0.29484521 234 88 12
-1.173955 -0.21947197 -0.29576531 234 88 12
-1.1710007 -0.2194119 -0.29662277 234 88 12
-1.1680205 -0.21931676 -0.29728122 234 88 12
-1.4189923 -0.22611504 -0.24903328 234 88 12
-1.4156751 -0.22604673 -0.24956216 234 88 12
-1.4123936 -0.22600049 -0.25016907 234 88 12
-1.4091268 -0.22594975 -0.25088795 234 88 12
-1.4058378 -0.22588926 -0.25149319 234 88 12
-1.4025083 -0.22580847 -0.2520893 234 88 12
-1.3991427 -0.22571252 -0.25254471 234 88 12
-1.3956929 -0.22561327 -0.25297577 234 88 12
-1.3922925 -0.22553094 -0.25343555 234 88 12
-1.3888514 -0.22544263 -0.25380613 234 88 12
-1.3854093 -0.22536249 -0.25419904 234 88 12
-1.3819216 -0.22526269 -0.2544878 234 88 12
-1.3783961 -0.22518302 -0.25471877 234 88 12
-1.3748734 -0.22509499 -0.25490394 234 88 12
-1.3713143 -0.225004 -0.25500904 234 88 12
-1.3677771 -0.2248901 -0.25510619 234 88 12
-1.3642052 -0.22476725 -0.25514154 234 88 12
-1.3605891 -0.22464979 -0.25512054 234 88 12
-1.3569317 -0.22453065 -0.25504943 234 88 12
-1.353281 -0.22440436 -0.25499591 234 88 12
-1.3496552 -0.22430237 -0.25498351 234 88 12
-1.3460315 -0.22417519 -0.25500509 234 88 12
-1.3424542 -0.22407705 -0.25513095 234 88 12
-1.3389091 -0.22395651 -0.25531042 234 88 12
-1.3354357 -0.22386493 -0.255575 234 88 12
-1.3319756 -0.22379094 -0.25593006 234 88 12
-1.3285561 -0.22372896 -0.25633618 234 88 12
-1.3251663 -0.22365963 -0.25681899 234 88 12
-1.3218491 -0.22361387 -0.25734653 234 88 12
-1.3185653 -0.22356596 -0.25797407 234 88 12
-1.3152974 -0.22352161 -0.25859318 234 88 12
-1.3119976 -0.223489 -0.25924308 234 88 12
-1.3087179 -0.22346188 -0.25996825 234 88 12
-1.3054701 -0.22343626 -0.26074984 234 88 12
-1.3022127 -0.22342483 -0.26154966 234 88 12
-1.2989747 -0.22342806 -0.2623832 234 88 12
-1.2957637 -0.22344291 -0.26322102 234 88 12
-1.2925929 -0.22345499 -0.26409115 234 88 12
-1.2893985 -0.22345628 -0.26485438 234 88 12
-1.2862459 -0.22344353 -0.26572194 234 88 12
-1.2831338 -0.22340769 -0.26657144 234 88 12
-1.280025 -0.22336327 -0.26742237 234 88 12
-1.2769351 -0.2232769 -0.26818627 234 88 12
-1.2738499 -0.22319873 -0.26892659 234 88 12
-1.2708087 -0.22314386 -0.26971171 234 88 12
-1.2677781 -0.22308984 -0.2704833 234 88 12
-1.264809 -0.22304262 -0.271297 234 88 12
-1.2618619 -0.22297412 -0.27209234 234 88 12
-1.2589174 -0.22293468 -0.27289421 234 88 12
-1.2560145 -0.2229295 -0.27371904 234 88 12
-1.2530956 -0.22294098 -0.27451419 234 88 12
-1.2501883 -0.22295036 -0.27524991 234 88 12
-1.2473072 -0.22295256 -0.27599457 234 88 12
-1.2444524 -0.22295183 -0.27683628 234 88 12
-1.2416156 -0.22294151 -0.27764386 234 88 12
-1.2386834 -0.22291382 -0.2783211 234 88 12
-1.2357912 -0.22290122 -0.27897328 234 88 12
-1.2328958 -0.22289904 -0.27964457 234 88 12
-1.230019 -0.22289692 -0.28044566 234 88 12
-1.2271217 -0.22286657 -0.28120984 234 88 12
-1.2242016 -0.22285368 -0.28194675 234 88 12
-1.2212999 -0.22282972 -0.2826727 234 88 12
-1.21838 -0.22282382 -0.28344681 234 88 12
-1.2154478 -0.22281211 -0.28427027 234 88 12
-1.2125003 -0.22282273 -0.28504149 234 88 12
-1.2095723 -0.2228205 -0.28584516 234 88 12
-1.2066282 -0.22282836 -0.28657529 234 88 12
-1.2036892 -0.22279328 -0.28732174 234 88 12
-1.200731 -0.22278311 -0.2881366 234 88 12
-1.1977753 -0.22278222 -0.28892549 234 88 12
-1.1948085 -0.22277157 -0.2897541 234 88 12
-1.1918414 -0.22276444 -0.29049971 234 88 12
-1.1888843 -0.22277795 -0.29126905 234 88 12
-1.1859411 -0.22280801 -0.29207884 234 88 12
-1.1830084 -0.22282967 -0.29292421 234 88 12
-1.1800575 -0.22284194 -0.29389555 234 88 12
-1.1770995 -0.22284477 -0.29481964 234 88 12
-1.1741044 -0.22281635 -0.29568961 234 88 12
-1.1711108 -0.22274747 -0.29645899 234 88 12
-1.1681162 -0.22263772 -0.29716629 234 88 12
-1.4189633 -0.22953867 -0.24920398 234 88 12
-1.4156993 -0.22949106 -0.24976814 234 88 12
-1.4124559 -0.22944313 -0.25043188 234 88 12
-1.4092139 -0.22940535 -0.25117669 234 88 12
-1.4059479 -0.22934876 -0.25185997 234 88 12
-1.4026441 -0.22928368 -0.25254451 234 88 12
-1.3993057 -0.22919873 -0.25313898 234 88 12
-1.3959162 -0.22911983 -0.2536771 234 88 12
-1.3925113 -0.22905032 -0.25415834 234 88 12
-1.3890667 -0.22897542 -0.25457809 234 88 12
-1.3856289 -0.22893474 -0.25501273 234 88 12
-1.3821662 -0.22888268 -0.25540766 234 88 12
-1.3786717 -0.22881783 -0.25568989 234 88 12
-1.3751407 -0.2287197 -0.25587486 234 88 12
-1.3715959 -0.22863772 -0.25595366 234 88 12
-1.3680516 -0.22854157 -0.25604045 234 88 12
-1.3644537 -0.22844612 -0.25606623 234 88 12
-1.3608027 -0.22835234 -0.25602372 234 88 12
-1.3571523 -0.22823971 -0.25591006 234 88 12
-1.353528 -0.22812206 -0.25592403 234 88 12
-1.3499235 -0.2280008 -0.25599577 234 88 12
-1.3463254 -0.22786897 -0.25607212 234 88 12
-1.342721 -0.22773745 -0.25610963 234 88 12
-1.3391956 -0.22763641 -0.25623514 234 88 12
-1.3356773 -0.22754208 -0.25650741 234 88 12
-1.3322652 -0.22747499 -0.2569373 234 88 12
-1.328875 -0.22738463 -0.25742187 234 88 12
-1.325535 -0.22730453 -0.25792262 234 88 12
-1.3222064 -0.22723934 -0.25840304 234 88 12
-1.3189214 -0.2271662 -0.25893384 234 88 12
-1.3156583 -0.22712918 -0.25956119 234 88 12
-1.3123504 -0.22710012 -0.26019198 234 88 12
-1.3090772 -0.22708638 -0.26094432 234 88 12
-1.3058553 -0.22708989 -0.26177079 234 88 12
-1.3026469 -0.22710127 -0.26264323 234 88 12
-1.2994386 -0.2271275 -0.26350351 234 88 12
-1.2962409 -0.22715528 -0.2643527 234 88 12
-1.2930531 -0.22718265 -0.26522052 234 88 12
-1.289864 -0.22717525 -0.26603514 234 88 12
-1.2867216 -0.22716246 -0.26694751 234 88 12
-1.2836204 -0.22712263 -0.267796 234 88 12
-1.2805152 -0.22702483 -0.26857972 234 88 12
-1.2774101 -0.22690472 -0.26931716 234 88 12
-1.2743146 -0.22677693 -0.26999909 234 88 12
-1.2712483 -0.22669122 -0.27073562 234 88 12
-1.2681911 -0.22660956 -0.27137459 234 88 12
-1.2652059 -0.22652202 -0.27209668 234 88 12
-1.2622944 -0.22644412 -0.27289591 234 88 12
-1.25933 -0.22638247 -0.2737042 234 88 12
-1.2563872 -0.22636781 -0.27445984 234 88 12
-1.2534334 -0.22634205 -0.27516663 234 88 12
-1.2505179 -0.22633966 -0.27589461 234 88 12
-1.2476301 -0.22634078 -0.27664196 234 88 12
-1.2447676 -0.22634007 -0.27746304 234 88 12
-1.2419075 -0.22632476 -0.2782779 234 88 12
-1.2389777 -0.2262817 -0.27895018 234 88 12
-1.2360675 -0.22624756 -0.27954815 234 88 12
-1.2331523 -0.22622776 -0.28019307 234 88 12
-1.230249 -0.22621182 -0.28093195 234 88 12
-1.2273326 -0.22619966 -0.28171181 234 88 12
-1.2244167 -0.22619356 -0.28237739 234 88 12
-1.2215028 -0.226185 -0.28307279 234 88 12
-1.2185896 -0.22616997 -0.28385048 234 88 12
-1.2156281 -0.22617152 -0.28460498 234 88 12
-1.212693 -0.22616934 -0.28536871 234 88 12
-1.2097191 -0.22618836 -0.28603594 234 88 12
-1.206764 -0.226198 -0.28678964 234 88 12
-1.2037998 -0.22619146 -0.2874849 234 88 12
-1.2008487 -0.22617787 -0.28827485 234 88 12
-1.1978953 -0.22615959 -0.28906245 234 88 12
-1.1949289 -0.22615172 -0.28987393 234 88 12
-1.1919742 -0.22612249 -0.29060059 234 88 12
-1.1890027 -0.22613127 -0.29136701 234 88 12
-1.1860679 -0.22615557 -0.29219815 234 88 12
-1.1831343 -0.22618945 -0.29304772 234 88 12
-1.1802067 -0.22620192 -0.29395225 234 88 12
-1.1772513 -0.22619937 -0.29480967 234 88 12
-1.1742588 -0.22615359 -0.2956688 234 88 12
-1.1712574 -0.22608169 -0.29639257 234 88 12
-1.1682389 -0.22597515 -0.29705711 234 88 12
-1.3646799 -0.23210322 -0.25699057 234 88 12
-1.3610409 -0.23203201 -0.25695903 234 88 12
-1.3574113 -0.231949 -0.25688655 234 88 12
-1.3538005 -0.23184542 -0.25687091 234 88 12
-1.3501976 -0.23172413 -0.25691439 234 88 12
-1.3466264 -0.23159147 -0.25707716 234 88 12
-1.343064 -0.23145652 -0.2572082 234 88 12
-1.3395219 -0.23134222 -0.25734859 234 88 12
-1.3359954 -0.23122912 -0.25758242 234 88 12
-1.3325469 -0.23117352 -0.25792364 234 88 12
-1.3291716 -0.2310897 -0.25836895 234 88 12
-1.3258374 -0.23100795 -0.25883591 234 88 12
-1.3225533 -0.23091735 -0.25935958 234 88 12
-1.3192903 -0.23083954 -0.25996918 234 88 12
-1.3160301 -0.23079747 -0.26059418 234 88 12
-1.3127732 -0.23076948 -0.26135496 234 88 12
-1.3095003 -0.23076558 -0.2620745 234 88 12
-1.3063107 -0.23077431 -0.26293992 234 88 12
-1.3031042 -0.23079458 -0.26375666 234 88 12
-1.2999333 -0.23082859 -0.2646512 234 88 12
-1.2967085 -0.23085876 -0.26548924 234 88 12
-1.2935 -0.23088987 -0.26633735 234 88 12
-1.2903146 -0.23088309 -0.26723087 234 88 12
-1.2871938 -0.2308722 -0.26808896 234 88 12
-1.3649093 -0.23573929 -0.25781852 234 88 12
-1.3612772 -0.2356978 -0.2578307 234 88 12
-1.3576492 -0.23562157 -0.25780255 234 88 12
-1.3540668 -0.23550954 -0.25780541 234 88 12
-1.3504604 -0.23537756 -0.25785826 234 88 12
-1.3469038 -0.23524627 -0.25807027 234 88 12
-1.3433409 -0.23512056 -0.25823533 234 88 12
-1.3398284 -0.23500318 -0.25845456 234 88 12
-1.3363254 -0.23490234 -0.25867174 234 88 12
-1.3328994 -0.23483279 -0.25897054 234 88 12
-1.329524 -0.23476219 -0.25935488 234 88 12
-1.3262023 -0.23468826 -0.2598326 234 88 12
-1.3228992 -0.23460765 -0.26031911 234 88 12
-1.3196678 -0.23453528 -0.26095351 234 88 12
-1.3164335 -0.23447634 -0.26167237 234 88 12
-1.3132033 -0.23445696 -0.26248208 234 88 12
-1.30997 -0.23443738 -0.26322396 234 88 12
-1.3067549 -0.23445049 -0.2639667 234 88 12
-1.3035492 -0.23446368 -0.26477955 234 88 12
-1.3003606 -0.23449264 -0.2655743 234 88 12
-1.2971626 -0.23453513 -0.26648312 234 88 12
-1.2939724 -0.23455334 -0.26731364 234 88 12
-1.2877035 -0.23452886 -0.26910547 234 88 12
-1.3651298 -0.23923103 -0.25869181 234 88 12
-1.3615386 -0.23917902 -0.25873476 234 88 12
-1.3579005 -0.23910891 -0.25869195 234 88 12
-1.354269 -0.23900545 -0.25860329 234 88 12
-1.3506554 -0.238907 -0.25863367 234 88 12
-1.3471343 -0.23878522 -0.25886819 234 88 12
-1.3436172 -0.23867884 -0.25913531 234 88 12
-1.3401243 -0.23857014 -0.25942265 234 88 12
-1.3366457 -0.23847278 -0.25968376 234 88 12
-1.3332316 -0.23841145 -0.25999145 234 88 12
-1.3298595 -0.23837283 -0.26031642 234 88 12
-1.3265491 -0.23832177 -0.2607602 234 88 12
-1.3232727 -0.23826021 -0.26130209 234 88 12
-1.3200316 -0.23819413 -0.26195864 234 88 12
-1.3167986 -0.23813243 -0.26266818 234 88 12
-1.3135961 -0.23809862 -0.26343099 234 88 12
-1.3104081 -0.23807375 -0.2641988 234 88 12
-1.3071966 -0.23806546 -0.26489988 234 88 12
-1.3039813 -0.2380664 -0.26564889 234 88 12
-1.3007839 -0.23808412 -0.26646008 234 88 12
-1.2976214 -0.23810844 -0.26740869 234 88 12
-1.3653521 -0.24266435 -0.25938804 234 88 12
-1.3617781 -0.24261659 -0.25946534 234 88 12
-1.3581383 -0.24253518 -0.25945244 234 88 12
-1.3545161 -0.24242047 -0.25937725 234 88 12
-1.3509226 -0.24233534 -0.25945999 234 88 12
-1.3473799 -0.24223287 -0.25968474 234 88 12
-1.3438406 -0.24215326 -0.25994694 234 88 12
-1.3403544 -0.24206334 -0.26021377 234 88 12
-1.3368987 -0.24199583 -0.26054587 234 88 12
-1.3335272 -0.24194751 -0.26092274 234 88 12
-1.3301749 -0.24192754 -0.26129533 234 88 12
-1.3268929 -0.24189962 -0.26175464 234 88 12
-1.3236357 -0.2418617 -0.26231226 234 88 12
-1.3203906 -0.24179927 -0.26290224 234 88 12
-1.3171546 -0.24173825 -0.26355909 234 88 12
-1.313933 -0.24169607 -0.26425585 234 88 12
-1.3107714 -0.24165476 -0.26496116 234 88 12
-1.3075582 -0.24160707 -0.2656727 234 88 12
-1.3043549 -0.24159536 -0.26640902 234 88 12
-1.3011675 -0.24160187 -0.26723419 234 88 12
-1.2980456 -0.2416185 -0.26821474 234 88 12
-1.3654884 -0.24603976 -0.25984802 234 88 12
-1.3619555 -0.24600449 -0.26000555 234 88 12
-1.3583486 -0.24592268 -0.26005843 234 88 12
-1.3547571 -0.24582054 -0.26006819 234 88 12
-1.3511808 -0.24572331 -0.26025089 234 88 12
-1.3476461 -0.24564424 -0.26046911 234 88 12
-1.344104 -0.24558954 -0.26072589 234 88 12
-1.3406098 -0.24553069 -0.26092142 234 88 12
-1.3371684 -0.2454939 -0.26130951 234 88 12
-1.3338041 -0.24547108 -0.26179554 234 88 12
-1.3304883 -0.24546319 -0.26224286 234 88 12
-1.3272108 -0.24543192 -0.26266055 234 88 12
-1.3239777 -0.24540205 -0.26320443 234 88 12
-1.3207343 -0.24535578 -0.26378246 234 88 12
-1.3175008 -0.24529612 -0.2643784 234 88 12
-1.3142668 -0.24525379 -0.26501597 234 88 12
-1.3111281 -0.24519868 -0.26577044 234 88 12
-1.3079582 -0.24514121 -0.26655637 234 88 12
-1.3047658 -0.24510745 -0.26734099 234 88 12
-1.3015988 -0.24509227 -0.26814905 234 88 12
-1.298463 -0.24509407 -0.26902314 234 88 12
-1.3655678 -0.24939289 -0.26013217 234 88 12
-1.3620489 -0.24936489 -0.26034532 234 88 12
-1.3585096 -0.24929294 -0.26047832 234 88 12
-1.3549654 -0.24920791 -0.2606573 234 88 12
-1.3514278 -0.24913433 -0.260908 234 88 12
-1.3478909 -0.2490814 -0.26118452 234 88 12
-1.3443566 -0.24903645 -0.26143679 234 88 12
-1.3408632 -0.24898854 -0.26163377 234 88 12
-1.3374257 -0.24896624 -0.26201678 234 88 12
-1.3340825 -0.2489615 -0.2624897 234 88 12
-1.3308037 -0.24896503 -0.26302965 234 88 12
-1.327528 -0.24895074 -0.26344739 234 88 12
-1.3243255 -0.24893642 -0.2640305 234 88 12
-1.3210681 -0.2488813 -0.26458277 234 88 12
-1.3178522 -0.24882289 -0.26522461 234 88 12
-1.3146421 -0.24876936 -0.26584044 234 88 12
-1.311504 -0.24869989 -0.26659938 234 88 12
-1.3083438 -0.24865267 -0.2673569 234 88 12
-1.3051377 -0.24859819 -0.26816242 234 88 12
-1.3019763 -0.24857161 -0.26887916 234 88 12
-1.2988217 -0.2485425 -0.26969297 234 88 12
-1.295705 -0.2485135 -0.27050507 234 88 12
-1.2925406 -0.24845139 -0.27140158 234 88 12
-1.2894197 -0.24835559 -0.27226531 234 88 12
-1.3656547 -0.2527412 -0.26033696 234 88 12
-1.3622014 -0.25273734 -0.26063204 234 88 12
-1.3586694 -0.25267424 -0.26083385 234 88 12
-1.3551613 -0.25259946 -0.26116064 234 88 12
-1.3516427 -0.25254433 -0.26145947 234 88 12
-1.3481113 -0.25250506 -0.26174462 234 88 12
-1.3446038 -0.25247143 -0.2620068 234 88 12
-1.3411291 -0.25244307 -0.26227863 234 88 12
-1.3377021 -0.25243384 -0.26267522 234 88 12
-1.3343588 -0.25243679 -0.26317084 234 88 12
-1.3310683 -0.2524441 -0.26366608 234 88 12
-1.327803 -0.25243903 -0.26413447 234 88 12
-1.3245763 -0.25241852 -0.26467234 234 88 12
-1.3213325 -0.25237179 -0.26524398 234 88 12
-1.3181539 -0.25231951 -0.26589478 234 88 12
-1.3149711 -0.25226063 -0.26653934 234 88 12
-1.3118432 -0.25218136 -0.26737777 234 88 12
-1.3086832 -0.25213453 -0.26806935 234 88 12
-1.3054938 -0.25208875 -0.26892264 234 88 12
-1.3023271 -0.2520458 -0.26957778 234 88 12
-1.2991577 -0.25199692 -0.270366 234 88 12
-1.2960209 -0.25193037 -0.27109741 234 88 12
-1.292882 -0.25185396 -0.27188232 234 88 12
-1.289762 -0.25174254 -0.27275029 234 88 12
-1.3656642 -0.2560484 -0.26053362 234 88 12
-1.3622574 -0.2560544 -0.2609092 234 88 12
-1.3587637 -0.25601567 -0.26117131 234 88 12
-1.3553063 -0.25597665 -0.26154927 234 88 12
-1.3517856 -0.25594265 -0.26182671 234 88 12
-1.3483002 -0.25591554 -0.26214967 234 88 12
-1.3448043 -0.25590325 -0.26245796 234 88 12
-1.3413657 -0.25587986 -0.26282214 234 88 12
-1.3379512 -0.25585193 -0.2632252 234 88 12
-1.3346111 -0.2558659 -0.26370044 234 88 12
-1.3313145 -0.2558834 -0.26418262 234 88 12
-1.3280596 -0.25587768 -0.26472199 234 88 12
-1.3248289 -0.25583706 -0.2652994 234 88 12
-1.3215964 -0.25579243 -0.26583852 234 88 12
-1.3184076 -0.25573528 -0.26651159 234 88 12
-1.3152474 -0.25566834 -0.26713876 234 88 12
-1.3121224 -0.2556075 -0.26798883 234 88 12
-1.3089618 -0.25554601 -0.26867237 234 88 12
-1.3058025 -0.25549027 -0.26951081 234 88 12
-1.3026241 -0.25543025 -0.27013439 234 88 12
-1.299445 -0.25536699 -0.27082326 234 88 12
-1.2962985 -0.25528188 -0.27152247 234 88 12
-1.2931531 -0.25516929 -0.27225105 234 88 12
-1.2900411 -0.25502996 -0.27307369 234 88 12
-1.3117405 -0.18852245 -0.36047276 234 88 12
-1.3142239 -0.18833803 -0.36225158 234 88 12
-1.3167409 -0.18815995 -0.36383448 234 88 12
-1.3093078 -0.19148636 -0.35965161 234 88 12
-1.3117152 -0.19132132 -0.36150196 234 88 12
-1.3141865 -0.19112994 -0.36320682 234 88 12
-1.3167135 -0.19094448 -0.36489002 234 88 12
-1.3193006 -0.19076863 -0.36658301 234 88 12
-1.3117315 -0.19413822 -0.36239186 234 88 12
-1.3141865 -0.19393498 -0.36414894 234 88 12
-1.3166952 -0.19372386 -0.36582982 234 88 12
-1.3192615 -0.19354465 -0.36755799 234 88 12
