<svg xmlns="http://www.w3.org/2000/svg" width="1200" height="470" viewBox="0 0 1200 470">
<style>
text { font-family: ui-sans-serif, system-ui, sans-serif; fill: #111827; }
.title { font-size: 22px; font-weight: 700; }
.panel-title { font-size: 15px; font-weight: 650; }
.tick { font-size: 11px; fill: #475569; }
.legend { font-size: 11px; }
.note { font-size: 11px; fill: #64748b; }
</style>
<rect width="100%" height="100%" fill="#ffffff"/>
<text x="600.00" y="32" class="title" text-anchor="middle">Validation ranking metrics — joint_history_control</text>
<text x="236.67" y="68" class="panel-title" text-anchor="middle">Normalized regret (lower is better)</text>
<rect x="65.00" y="90.00" width="343.33" height="315.00" fill="#f8fafc" stroke="#cbd5e1"/>
<line x1="65.00" y1="90.00" x2="65.00" y2="405.00" stroke="#e2e8f0"/>
<text x="65.00" y="424.00" class="tick" text-anchor="middle">0</text>
<line x1="65.00" y1="405.00" x2="408.33" y2="405.00" stroke="#e2e8f0"/>
<text x="57.00" y="409.00" class="tick" text-anchor="end">0.141</text>
<line x1="133.67" y1="90.00" x2="133.67" y2="405.00" stroke="#e2e8f0"/>
<text x="133.67" y="424.00" class="tick" text-anchor="middle">10</text>
<line x1="65.00" y1="342.00" x2="408.33" y2="342.00" stroke="#e2e8f0"/>
<text x="57.00" y="346.00" class="tick" text-anchor="end">0.234</text>
<line x1="202.33" y1="90.00" x2="202.33" y2="405.00" stroke="#e2e8f0"/>
<text x="202.33" y="424.00" class="tick" text-anchor="middle">21</text>
<line x1="65.00" y1="279.00" x2="408.33" y2="279.00" stroke="#e2e8f0"/>
<text x="57.00" y="283.00" class="tick" text-anchor="end">0.328</text>
<line x1="271.00" y1="90.00" x2="271.00" y2="405.00" stroke="#e2e8f0"/>
<text x="271.00" y="424.00" class="tick" text-anchor="middle">32</text>
<line x1="65.00" y1="216.00" x2="408.33" y2="216.00" stroke="#e2e8f0"/>
<text x="57.00" y="220.00" class="tick" text-anchor="end">0.421</text>
<line x1="339.67" y1="90.00" x2="339.67" y2="405.00" stroke="#e2e8f0"/>
<text x="339.67" y="424.00" class="tick" text-anchor="middle">42</text>
<line x1="65.00" y1="153.00" x2="408.33" y2="153.00" stroke="#e2e8f0"/>
<text x="57.00" y="157.00" class="tick" text-anchor="end">0.514</text>
<line x1="408.33" y1="90.00" x2="408.33" y2="405.00" stroke="#e2e8f0"/>
<text x="408.33" y="424.00" class="tick" text-anchor="middle">52</text>
<line x1="65.00" y1="90.00" x2="408.33" y2="90.00" stroke="#e2e8f0"/>
<text x="57.00" y="94.00" class="tick" text-anchor="end">0.607</text>
<text x="236.67" y="447.00" class="tick" text-anchor="middle">epoch</text>
<line x1="391.98" y1="90.0" x2="391.98" y2="405.0" stroke="#64748b" stroke-width="1.5" stroke-dasharray="1 4" data-last-epoch="50" data-stopped-early="true"/>
<line x1="326.59" y1="90.0" x2="326.59" y2="405.0" stroke="#111827" stroke-width="1.5" stroke-dasharray="3 4" data-best-epoch="40"/>
<polyline points="65.00,104.32 71.54,289.09 78.08,355.40 84.62,371.62 91.16,375.46 97.70,374.95 104.24,375.45 110.78,379.89 117.32,380.48 123.86,378.14 130.40,382.39 136.94,382.53 143.48,382.96 150.02,383.70 156.56,383.00 163.10,385.73 169.63,382.07 176.17,382.44 182.71,384.77 189.25,385.06 195.79,382.46 202.33,383.95 208.87,386.58 215.41,386.67 221.95,387.11 228.49,384.86 235.03,385.98 241.57,385.10 248.11,387.60 254.65,384.08 261.19,387.21 267.73,386.00 274.27,387.42 280.81,385.69 287.35,386.48 293.89,386.54 300.43,388.50 306.97,388.12 313.51,386.44 320.05,386.93 326.59,390.68 333.13,388.44 339.67,387.01 346.21,388.63 352.75,388.94 359.29,389.96 365.83,389.45 372.37,388.56 378.90,385.28 385.44,388.23 391.98,388.35" fill="none" stroke="#7c3aed" stroke-width="2.5" stroke-linejoin="round" stroke-linecap="round" data-series="validation_normalized_regret_mean"/>
<line x1="75.00" y1="107.00" x2="95.00" y2="107.00" stroke="#7c3aed" stroke-width="2.5"/>
<text x="102.00" y="111.00" class="legend">validation</text>
<text x="615.00" y="68" class="panel-title" text-anchor="middle">Spearman (higher is better)</text>
<rect x="443.33" y="90.00" width="343.33" height="315.00" fill="#f8fafc" stroke="#cbd5e1"/>
<line x1="443.33" y1="90.00" x2="443.33" y2="405.00" stroke="#e2e8f0"/>
<text x="443.33" y="424.00" class="tick" text-anchor="middle">0</text>
<line x1="443.33" y1="405.00" x2="786.67" y2="405.00" stroke="#e2e8f0"/>
<text x="435.33" y="409.00" class="tick" text-anchor="end">-0.0324</text>
<line x1="512.00" y1="90.00" x2="512.00" y2="405.00" stroke="#e2e8f0"/>
<text x="512.00" y="424.00" class="tick" text-anchor="middle">10</text>
<line x1="443.33" y1="342.00" x2="786.67" y2="342.00" stroke="#e2e8f0"/>
<text x="435.33" y="346.00" class="tick" text-anchor="end">0.127</text>
<line x1="580.67" y1="90.00" x2="580.67" y2="405.00" stroke="#e2e8f0"/>
<text x="580.67" y="424.00" class="tick" text-anchor="middle">21</text>
<line x1="443.33" y1="279.00" x2="786.67" y2="279.00" stroke="#e2e8f0"/>
<text x="435.33" y="283.00" class="tick" text-anchor="end">0.286</text>
<line x1="649.33" y1="90.00" x2="649.33" y2="405.00" stroke="#e2e8f0"/>
<text x="649.33" y="424.00" class="tick" text-anchor="middle">32</text>
<line x1="443.33" y1="216.00" x2="786.67" y2="216.00" stroke="#e2e8f0"/>
<text x="435.33" y="220.00" class="tick" text-anchor="end">0.445</text>
<line x1="718.00" y1="90.00" x2="718.00" y2="405.00" stroke="#e2e8f0"/>
<text x="718.00" y="424.00" class="tick" text-anchor="middle">42</text>
<line x1="443.33" y1="153.00" x2="786.67" y2="153.00" stroke="#e2e8f0"/>
<text x="435.33" y="157.00" class="tick" text-anchor="end">0.604</text>
<line x1="786.67" y1="90.00" x2="786.67" y2="405.00" stroke="#e2e8f0"/>
<text x="786.67" y="424.00" class="tick" text-anchor="middle">52</text>
<line x1="443.33" y1="90.00" x2="786.67" y2="90.00" stroke="#e2e8f0"/>
<text x="435.33" y="94.00" class="tick" text-anchor="end">0.764</text>
<text x="615.00" y="447.00" class="tick" text-anchor="middle">epoch</text>
<line x1="770.32" y1="90.0" x2="770.32" y2="405.0" stroke="#64748b" stroke-width="1.5" stroke-dasharray="1 4" data-last-epoch="50" data-stopped-early="true"/>
<line x1="704.92" y1="90.0" x2="704.92" y2="405.0" stroke="#111827" stroke-width="1.5" stroke-dasharray="3 4" data-best-epoch="40"/>
<polyline points="443.33,390.68 449.87,213.80 456.41,147.81 462.95,125.17 469.49,122.55 476.03,122.36 482.57,120.91 489.11,115.72 495.65,112.37 502.19,114.79 508.73,111.69 515.27,110.96 521.81,112.12 528.35,110.87 534.89,111.13 541.43,110.02 547.97,112.29 554.51,111.32 561.05,108.49 567.59,108.22 574.13,109.12 580.67,108.77 587.21,107.64 593.75,106.19 600.29,107.55 606.83,109.58 613.37,108.15 619.90,106.47 626.44,107.90 632.98,107.90 639.52,106.54 646.06,107.10 652.60,105.87 659.14,106.20 665.68,106.72 672.22,105.08 678.76,105.78 685.30,105.62 691.84,105.96 698.38,107.53 704.92,104.32 711.46,105.89 718.00,105.53 724.54,104.91 731.08,105.78 737.62,105.22 744.16,104.73 750.70,104.86 757.24,106.90 763.78,105.09 770.32,106.89" fill="none" stroke="#059669" stroke-width="2.5" stroke-linejoin="round" stroke-linecap="round" data-series="validation_spearman_mean"/>
<line x1="453.33" y1="107.00" x2="473.33" y2="107.00" stroke="#059669" stroke-width="2.5"/>
<text x="480.33" y="111.00" class="legend">validation</text>
<text x="993.33" y="68" class="panel-title" text-anchor="middle">NDCG@5 (higher is better)</text>
<rect x="821.67" y="90.00" width="343.33" height="315.00" fill="#f8fafc" stroke="#cbd5e1"/>
<line x1="821.67" y1="90.00" x2="821.67" y2="405.00" stroke="#e2e8f0"/>
<text x="821.67" y="424.00" class="tick" text-anchor="middle">0</text>
<line x1="821.67" y1="405.00" x2="1165.00" y2="405.00" stroke="#e2e8f0"/>
<text x="813.67" y="409.00" class="tick" text-anchor="end">0.462</text>
<line x1="890.33" y1="90.00" x2="890.33" y2="405.00" stroke="#e2e8f0"/>
<text x="890.33" y="424.00" class="tick" text-anchor="middle">10</text>
<line x1="821.67" y1="342.00" x2="1165.00" y2="342.00" stroke="#e2e8f0"/>
<text x="813.67" y="346.00" class="tick" text-anchor="end">0.545</text>
<line x1="959.00" y1="90.00" x2="959.00" y2="405.00" stroke="#e2e8f0"/>
<text x="959.00" y="424.00" class="tick" text-anchor="middle">21</text>
<line x1="821.67" y1="279.00" x2="1165.00" y2="279.00" stroke="#e2e8f0"/>
<text x="813.67" y="283.00" class="tick" text-anchor="end">0.627</text>
<line x1="1027.67" y1="90.00" x2="1027.67" y2="405.00" stroke="#e2e8f0"/>
<text x="1027.67" y="424.00" class="tick" text-anchor="middle">32</text>
<line x1="821.67" y1="216.00" x2="1165.00" y2="216.00" stroke="#e2e8f0"/>
<text x="813.67" y="220.00" class="tick" text-anchor="end">0.71</text>
<line x1="1096.33" y1="90.00" x2="1096.33" y2="405.00" stroke="#e2e8f0"/>
<text x="1096.33" y="424.00" class="tick" text-anchor="middle">42</text>
<line x1="821.67" y1="153.00" x2="1165.00" y2="153.00" stroke="#e2e8f0"/>
<text x="813.67" y="157.00" class="tick" text-anchor="end">0.793</text>
<line x1="1165.00" y1="90.00" x2="1165.00" y2="405.00" stroke="#e2e8f0"/>
<text x="1165.00" y="424.00" class="tick" text-anchor="middle">52</text>
<line x1="821.67" y1="90.00" x2="1165.00" y2="90.00" stroke="#e2e8f0"/>
<text x="813.67" y="94.00" class="tick" text-anchor="end">0.876</text>
<text x="993.33" y="447.00" class="tick" text-anchor="middle">epoch</text>
<line x1="1148.65" y1="90.0" x2="1148.65" y2="405.0" stroke="#64748b" stroke-width="1.5" stroke-dasharray="1 4" data-last-epoch="50" data-stopped-early="true"/>
<line x1="1083.25" y1="90.0" x2="1083.25" y2="405.0" stroke="#111827" stroke-width="1.5" stroke-dasharray="3 4" data-best-epoch="40"/>
<polyline points="821.67,390.68 828.21,212.36 834.75,146.44 841.29,125.09 847.83,122.29 854.37,122.27 860.90,122.39 867.44,115.67 873.98,113.99 880.52,116.26 887.06,112.20 893.60,111.90 900.14,112.65 906.68,110.55 913.22,111.04 919.76,110.68 926.30,113.18 932.84,111.91 939.38,109.39 945.92,108.78 952.46,110.88 959.00,108.57 965.54,107.41 972.08,107.26 978.62,108.22 985.16,110.10 991.70,108.01 998.24,108.19 1004.78,107.29 1011.32,108.30 1017.86,107.20 1024.40,107.82 1030.94,107.18 1037.48,106.46 1044.02,106.65 1050.56,106.20 1057.10,105.50 1063.63,106.30 1070.17,106.67 1076.71,107.93 1083.25,104.32 1089.79,105.39 1096.33,106.44 1102.87,104.65 1109.41,105.20 1115.95,105.22 1122.49,104.54 1129.03,104.90 1135.57,107.38 1142.11,105.60 1148.65,107.22" fill="none" stroke="#d97706" stroke-width="2.5" stroke-linejoin="round" stroke-linecap="round" data-series="validation_ndcg_at_5_mean"/>
<line x1="831.67" y1="107.00" x2="851.67" y2="107.00" stroke="#d97706" stroke-width="2.5"/>
<text x="858.67" y="111.00" class="legend">validation</text>
<text x="600.00" y="452" class="note" text-anchor="middle">Black dashed: validation-selected best epoch. Gray dotted: early-stop epoch. Test data are evaluated only on the restored best checkpoint.</text>
</svg>
