ply
format ascii 1.0
element vertex 1383
property float x
property float y
property float z
property uchar red
property uchar green
property uchar blue
end_header
-0.083642401 0.98892987 2.0648186 234 88 12
-0.085344218 0.98913819 2.0648186 234 88 12
-0.087046035 0.98934644 2.0648186 234 88 12
-0.088777125 0.9895227 2.0647757 234 88 12
-0.080153659 0.98990881 2.0638733 234 88 12
-0.081755958 0.9902299 2.0640247 234 88 12
-0.08345627 0.99043989 2.0640268 234 88 12
-0.08515808 0.99064821 2.0640268 234 88 12
-0.086859889 0.99085647 2.0640268 234 88 12
-0.088563234 0.99106312 2.0640247 234 88 12
-0.090294503 0.99123961 2.0639818 234 88 12
-0.078266412 0.99120945 2.0630789 234 88 12
-0.079869524 0.99152994 2.0632308 234 88 12
-0.081550911 0.99176115 2.0632617 234 88 12
-0.083252579 0.99196941 2.0632617 234 88 12
-0.084954247 0.99217767 2.0632617 234 88 12
-0.086655922 0.99238598 2.0632617 234 88 12
-0.08835759 0.99259424 2.0632617 234 88 12
-0.090059258 0.99280256 2.0632617 234 88 12
-0.09181539 0.9929527 2.0631826 234 88 12
-0.076881364 0.99193722 2.0615041 234 88 12
-0.077983081 0.99283004 2.0624368 234 88 12
-0.079664633 0.99306107 2.0624678 234 88 12
-0.081366301 0.99326932 2.0624678 234 88 12
-0.083067976 0.99347764 2.0624678 234 88 12
-0.084769644 0.9936859 2.0624678 234 88 12
-0.086471312 0.99389422 2.0624678 234 88 12
-0.088144422 0.99413329 2.06251 234 88 12
-0.089863047 0.99432319 2.0624847 234 88 12
-0.09162724 0.99446499 2.0623937 234 88 12
-0.076127671 0.99409485 2.0615945 234 88 12
-0.077778362 0.99436098 2.0616739 234 88 12
-0.079434961 0.99461961 2.0617433 234 88 12
-0.081136301 0.99482787 2.0617433 234 88 12
-0.08288274 0.99498653 2.0616748 234 88 12
-0.084584408 0.99519479 2.0616748 234 88 12
-0.086258367 0.99543309 2.0617163 234 88 12
-0.087959841 0.99564135 2.0617163 234 88 12
-0.089678451 0.99583131 2.061691 234 88 12
-0.091517352 0.99589455 2.0614903 234 88 12
-0.075943023 0.99560338 2.0608003 234 88 12
-0.077593751 0.99586922 2.0608799 234 88 12
-0.079250388 0.99612755 2.0609493 234 88 12
-0.080951728 0.9963358 2.0609493 234 88 12
-0.082653068 0.996544 2.0609493 234 88 12
-0.084372319 0.99673283 2.0609224 234 88 12
-0.086073786 0.99694109 2.0609224 234 88 12
-0.087792262 0.99713123 2.0608971 234 88 12
-0.089505441 0.99732721 2.0608799 234 88 12
-0.075825073 0.99703705 2.0599017 234 88 12
-0.077409148 0.99737746 2.0600863 234 88 12
-0.079065822 0.99763548 2.0601556 234 88 12
-0.080767162 0.99784374 2.0601556 234 88 12
-0.082468502 0.99805194 2.0601556 234 88 12
-0.084215201 0.99821126 2.0600872 234 88 12
-0.085916862 0.99841952 2.0600872 234 88 12
-0.087619171 0.99862713 2.0600863 234 88 12
-0.089505129 0.99864119 2.0598135 234 88 12
-0.077275783 0.99882883 2.0592122 234 88 12
-0.078925595 0.99909461 2.0592933 234 88 12
-0.080627263 0.99930292 2.0592933 234 88 12
-0.08232893 0.99951118 2.0592933 234 88 12
-0.084031224 0.99971879 2.0592923 234 88 12
-0.085786015 0.99987048 2.0592122 234 88 12
-0.087977134 0.99956203 2.0584812 234 88 12
-0.078860752 1.0004718 2.0583131 234 88 12
-0.080495231 1.0007541 2.0584183 234 88 12
-0.082265839 1.0008886 2.0583131 234 88 12
-0.084026754 1.0010346 2.0582244 234 88 12
-0.12834033 1.0312186 2.0351586 234 88 12
-0.12738149 1.0145735 2.0297074 234 88 12
-0.12283745 1.0010124 2.0291181 234 88 12
-0.11930978 0.9866094 2.027163 234 88 12
-0.11291021 0.97460514 2.0290747 234 88 12
-0.10348003 0.96506381 2.0350406 234 88 12
-0.086404346 0.96166492 2.0512066 234 88 12
-0.1146699 1.0230737 2.0271368 234 88 12
-0.11200833 1.0078678 2.0240042 234 88 12
-0.10836986 0.99351281 2.0221925 234 88 12
-0.099856861 0.98320752 2.0268948 234 88 12
-0.087965503 0.97561508 2.0360761 234 88 12
-0.081037931 0.96389079 2.0386207 234 88 12
-0.088602938 1.0077591 2.0288482 234 88 12
-0.086622499 0.99194354 2.0248137 234 88 12
-0.081108406 0.9790647 2.0254729 234 88 12
-0.30552527 0.94109988 2.0780201 234 88 12
-0.32033309 0.94149989 2.053107 234 88 12
-0.30544895 0.93534261 2.0526407 234 88 12
-0.29023901 0.93098903 2.0538442 234 88 12
-0.2740424 0.93181115 2.0598555 234 88 12
-0.25606933 0.94150764 2.0741382 234 88 12
-0.23380642 0.97211623 2.1079462 234 88 12
-0.21654497 0.97631484 2.1172318 234 88 12
-0.20053574 0.97401524 2.1204767 234 88 12
-0.18492326 0.96968931 2.1218357 234 88 12
-0.33295691 0.95423585 2.0396552 234 88 12
-0.31843075 0.94596565 2.037257 234 88 12
-0.30351055 0.94003958 2.0370047 234 88 12
-0.28843901 0.93495202 2.0375233 234 88 12
-0.27279997 0.93284583 2.0407927 234 88 12
-0.25619268 0.93556833 2.0485334 234 88 12
-0.23911801 0.94023573 2.0581002 234 88 12
-0.22191919 0.94501567 2.0678043 234 88 12
-0.20450412 0.95034051 2.0780478 234 88 12
-0.18693329 0.95588571 2.0885315 234 88 12
-0.16518158 0.98010218 2.1164467 234 88 12
-0.33070809 0.9607138 2.0256348 234 88 12
-0.31634405 0.95149279 2.022387 234 88 12
-0.30142403 0.94556624 2.022136 234 88 12
-0.28635213 0.94047964 2.0226519 234 88 12
-0.2706576 0.93866146 2.0261638 234 88 12
-0.25429311 0.94011003 2.0326853 234 88 12
-0.23772751 0.94222254 2.0398395 234 88 12
-0.22101597 0.94467831 2.0473344 234 88 12
-0.2045467 0.94558799 2.0534289 234 88 12
-0.18799148 0.94659561 2.0596349 234 88 12
-0.17152803 0.94687867 2.065192 234 88 12
-0.14704879 0.98281229 2.1038208 234 88 12
-0.31393087 0.95888895 2.0092094 234 88 12
-0.29914945 0.95214081 2.0082176 234 88 12
-0.28388062 0.94809413 2.0096767 234 88 12
-0.267966 0.94737995 2.0141733 234 88 12
-0.2517778 0.94782889 2.0197458 234 88 12
-0.23537025 0.94908172 2.0260713 234 88 12
-0.21897632 0.94993579 2.0320537 234 88 12
-0.202838 0.94925767 2.0366528 234 88 12
-0.18653421 0.94912326 2.0417669 234 88 12
-0.17021546 0.94880587 2.0467303 234 88 12
-0.15243348 0.9547981 2.0575221 234 88 12
-0.13425426 0.96201998 2.0694857 234 88 12
-0.11653195 0.96673042 2.0791695 234 88 12
-0.29313007 0.97953606 2.0130455 234 88 12
-0.27970859 0.9649117 2.004982 234 88 12
-0.26437292 0.96084607 2.0064366 234 88 12
-0.24852298 0.95934683 2.0102203 234 88 12
-0.23253973 0.95831335 2.0144393 234 88 12
-0.21639346 0.95785666 2.019197 234 88 12
-0.20079386 0.95453805 2.0213661 234 88 12
-0.18491851 0.95239979 2.0246186 234 88 12
-0.16799623 0.95488679 2.0321071 234 88 12
-0.15056348 0.95929354 2.0413778 234 88 12
-0.1331414 0.96321422 2.0502348 234 88 12
-0.11596644 0.96566552 2.0577736 234 88 12
-0.098711655 0.96810776 2.06533 234 88 12
-0.081363015 0.97059727 2.0729563 234 88 12
-0.27348053 0.99280655 2.0100842 234 88 12
-0.2584703 0.9864561 2.0095112 234 88 12
-0.24285419 0.98325074 2.0117657 234 88 12
-0.22883846 0.97189969 2.0066876 234 88 12
-0.21373825 0.96612477 2.0066257 234 88 12
-0.19855772 0.96073705 2.0069134 234 88 12
-0.18202908 0.9616313 2.0128922 234 88 12
-0.16397886 0.96917647 2.0249259 234 88 12
-0.14830843 0.9655109 2.0268121 234 88 12
-0.13089213 0.96938282 2.035567 234 88 12
-0.11397641 0.97070569 2.0420275 234 88 12
-0.097032078 0.97185272 2.0483496 234 88 12
-0.079719961 0.97422409 2.055814 234 88 12
-0.063316531 0.9726153 2.0596557 234 88 12
-0.24986692 1.0262089 2.0249639 234 88 12
-0.23645854 1.0108266 2.0163736 234 88 12
-0.2212321 1.005012 2.0163186 234 88 12
-0.20590355 0.99969953 2.0167136 234 88 12
-0.19020885 0.99611425 2.0186613 234 88 12
-0.17642105 0.98353499 2.0125234 234 88 12
-0.1613186 0.97725624 2.0120432 234 88 12
-0.14417134 0.98012096 2.0198162 234 88 12
-0.12783918 0.97905737 2.0240633 234 88 12
-0.11126582 0.97882497 2.029078 234 88 12
-0.09448643 0.97922385 2.034683 234 88 12
-0.077578746 0.97989565 2.0405555 234 88 12
-0.061429381 0.97726321 2.0434391 234 88 12
-0.23375003 1.0194464 2.0038929 234 88 12
-0.2187551 1.0124023 2.0027494 234 88 12
-0.20341963 1.007081 2.0031369 234 88 12
-0.18717605 1.0060688 2.00737 234 88 12
-0.17021732 1.0081724 2.0144024 234 88 12
-0.15487491 1.0025628 2.0145533 234 88 12
-0.13920808 0.99839109 2.0159945 234 88 12
-0.12386438 0.99274158 2.0161128 234 88 12
-0.10763179 0.99087948 2.01964 234 88 12
-0.090798073 0.99136639 2.0252967 234 88 12
-0.075135805 0.98680222 2.026412 234 88 12
-0.056166079 0.99545485 2.0394864 234 88 12
-0.24041425 1.0647205 2.0185688 234 88 12
-0.22684592 1.0495161 2.0102904 234 88 12
-0.21413642 1.0304773 1.9985969 234 88 12
-0.19890673 1.0243462 1.9982837 234 88 12
-0.18326984 1.0201701 1.9997021 234 88 12
-0.1677105 1.0155606 2.0007405 234 88 12
-0.14945091 1.0231832 2.0126603 234 88 12
-0.13341947 1.020305 2.0152669 234 88 12
-0.11741865 1.0171679 2.0176513 234 88 12
-0.10143492 1.0138454 2.0198781 234 88 12
-0.22364743 1.0605866 1.9997586 234 88 12
-0.20880766 1.0520552 1.9973699 234 88 12
-0.19585972 1.0344447 1.9869944 234 88 12
-0.18039833 1.0293294 1.987583 234 88 12
-0.16100132 1.0424727 2.0042744 234 88 12
-0.22005138 1.0736678 1.9909124 234 88 12
-0.20514105 1.0653143 1.9887058 234 88 12
-0.18937917 1.0612184 1.990208 234 88 12
-0.1728051 1.0608997 1.9950182 234 88 12
-0.21144433 0.97436875 2.1263325 234 88 12
-0.19689146 0.97909403 2.1251845 234 88 12
-0.18337967 0.98656267 2.126065 234 88 12
-0.22717427 0.97229922 2.1127298 234 88 12
-0.21163651 0.97450262 2.1097291 234 88 12
-0.19737555 0.97997338 2.1091387 234 88 12
-0.18372385 0.98705202 2.1097291 234 88 12
-0.16993386 0.99377692 2.1100585 234 88 12
-0.15574437 0.99941826 2.1095953 234 88 12
-0.14196792 1.0061901 2.1099579 234 88 12
-0.11693899 0.98131263 2.0872872 234 88 12
-0.10027091 0.97944665 2.081414 234 88 12
-0.086226143 0.98494375 2.0809011 234 88 12
-0.073348679 0.99384004 2.0828505 234 88 12
-0.26241085 0.97777396 2.1092758 234 88 12
-0.24575226 0.97742105 2.1043875 234 88 12
-0.2243896 0.9647947 2.0905304 234 88 12
-0.20431067 0.95504349 2.0788252 234 88 12
-0.18956043 0.95895237 2.0771282 234 88 12
-0.17588848 0.96568382 2.0774925 234 88 12
-0.16103896 0.9692412 2.0755484 234 88 12
-0.14565748 0.97127134 2.0725033 234 88 12
-0.13092239 0.97498727 2.0706902 234 88 12
-0.11429134 0.97330344 2.0649798 234 88 12
-0.10000526 0.97809494 2.0639629 234 88 12
-0.086219177 0.9842931 2.0639629 234 88 12
-0.072729148 0.99135804 2.0645862 234 88 12
-0.060677685 1.0027161 2.0682886 234 88 12
-0.26998752 0.95517778 2.0805857 234 88 12
-0.25254032 0.95270175 2.0741956 234 88 12
-0.23630996 0.95310599 2.0699279 234 88 12
-0.21850562 0.94931459 2.062624 234 88 12
-0.20359589 0.95281684 2.0606418 234 88 12
-0.18961023 0.95868891 2.0603845 234 88 12
-0.1757931 0.9650023 2.0604472 234 88 12
-0.16088568 0.96836752 2.0583808 234 88 12
-0.14591748 0.97149247 2.056149 234 88 12
-0.13172823 0.97669971 2.0554233 234 88 12
-0.11487826 0.97439611 2.0493062 234 88 12
-0.10085412 0.97992092 2.0488231 234 88 12
-0.087069161 0.98611861 2.0488231 234 88 12
-0.073515296 0.9929927 2.0493062 234 88 12
-0.061097801 1.0032572 2.0522048 234 88 12
-0.31184709 0.93611443 2.0637286 234 88 12
-0.29662046 0.93930036 2.0614777 234 88 12
-0.28170276 0.94317037 2.0597327 234 88 12
-0.2666336 0.94660699 2.0576794 234 88 12
-0.25124004 0.9491604 2.0549934 234 88 12
-0.23471302 0.94874173 2.0501659 234 88 12
-0.21875843 0.94963217 2.0463018 234 88 12
-0.20434752 0.95441204 2.0452569 234 88 12
-0.19042525 0.96044487 2.0451174 234 88 12
-0.17630471 0.9659431 2.0445945 234 88 12
-0.16166262 0.97001159 2.0430479 234 88 12
-0.14685518 0.97357142 2.0411429 234 88 12
-0.13271903 0.97892576 2.0405271 234 88 12
-0.11600284 0.97700125 2.0347211 234 88 12
-0.10188039 0.98225266 2.0340459 234 88 12
-0.088094547 0.98845071 2.0340459 234 88 12
-0.074557349 0.99537647 2.0345621 234 88 12
-0.32696277 0.93245709 2.0489607 234 88 12
-0.31172553 0.93565935 2.0467319 234 88 12
-0.29683819 0.93963712 2.045073 234 88 12
-0.28206164 0.9438321 2.0435772 234 88 12
-0.26704493 0.9473815 2.041621 234 88 12
-0.25170413 0.95005125 2.0390387 234 88 12
-0.23435144 0.94751912 2.0327256 234 88 12
-0.21972871 0.95179641 2.0313225 234 88 12
-0.20535894 0.95668423 2.0303617 234 88 12
-0.19137746 0.9625628 2.0301127 234 88 12
-0.17725135 0.96804619 2.0295827 234 88 12
-0.16296783 0.97308487 2.0287378 234 88 12
-0.14823054 0.97684968 2.0269899 234 88 12
-0.13377395 0.9813298 2.0257561 234 88 12
-0.11989141 0.9873786 2.0256386 234 88 12
-0.10335384 0.98585838 2.0201676 234 88 12
-0.089482777 0.99183035 2.0200062 234 88 12
-0.3273834 0.93331558 2.0329192 234 88 12
-0.31252587 0.9374125 2.031352 234 88 12
-0.29770407 0.94154471 2.0298159 234 88 12
-0.28292406 0.9457286 2.0283227 234 88 12
-0.26803502 0.94959217 2.0266051 234 88 12
-0.25292984 0.95285511 2.0244644 234 88 12
-0.23530468 0.94963932 2.017705 234 88 12
-0.22080025 0.95422119 2.0165281 234 88 12
-0.20681718 0.96012038 2.016293 234 88 12
-0.19265175 0.96553022 2.0157113 234 88 12
-0.17832847 0.97049785 2.0148182 234 88 12
-0.16447625 0.97670752 2.014807 234 88 12
-0.15051314 0.98261309 2.0145812 234 88 12
-0.13658236 0.98860002 2.0144136 234 88 12
-0.12639406 1.0051029 2.0216477 234 88 12
-0.11229001 1.0107225 2.02121 234 88 12
-0.32901341 0.93703699 2.0189435 234 88 12
-0.31373146 0.94013613 2.0166705 234 88 12
-0.29898584 0.94445997 2.015281 234 88 12
-0.28440681 0.94914621 2.0141549 234 88 12
-0.2696887 0.95344949 2.0127606 234 88 12
-0.25479904 0.95727462 2.0110314 234 88 12
-0.23981909 0.96081108 2.009104 234 88 12
-0.22217168 0.95741755 2.0022774 234 88 12
-0.20813017 0.96317786 2.0019443 234 88 12
-0.19453584 0.97010577 2.0024359 234 88 12
-0.18822567 0.99650437 2.0166352 234 88 12
-0.17382774 1.0015421 2.0157702 234 88 12
-0.16010091 1.0083865 2.0161757 234 88 12
-0.14682446 1.0164956 2.0174654 234 88 12
-0.30117488 0.94957352 2.0022984 234 88 12
-0.28710979 0.9555552 2.0020936 234 88 12
-0.27820885 0.97434235 2.0109429 234 88 12
-0.26444992 0.98123336 2.0113649 234 88 12
-0.25077796 0.98835993 2.0119514 234 88 12
-0.23712611 0.99555862 2.0125864 234 88 12
-0.22289801 1.0012788 2.0121813 234 88 12
-0.20776823 1.0046068 2.010102 234 88 12
-0.19214305 1.0065372 2.0070527 234 88 12
-0.17683855 1.0092239 2.0045424 234 88 12
-0.16511075 1.0216147 2.0088027 234 88 12
-0.15783711 1.0465212 2.0217526 234 88 12
-0.22478105 1.0058168 1.9986777 234 88 12
-0.21090838 1.0124898 1.9989368 234 88 12
-0.19708525 1.0193043 1.9992933 234 88 12
-0.18312295 1.0257556 1.9993967 234 88 12
-0.17031726 1.0353782 2.0016942 234 88 12
-0.16290697 1.0600533 2.0143809 234 88 12
-0.24035028 1.0459929 2.0098205 234 88 12
-0.22022787 1.0366628 1.9989724 234 88 12
-0.19957519 1.0255222 1.986915 234 88 12
-0.19037627 1.044903 1.9959142 234 88 12
-0.17850241 1.0572944 2.0000775 234 88 12
-0.16789003 1.0733411 2.0067334 234 88 12
-0.22630206 1.0522759 1.9929233 234 88 12
-0.21070109 1.054791 1.990286 234 88 12
-0.19653857 1.0610968 1.9902499 234 88 12
-0.18347339 1.0704055 1.9922632 234 88 12
-0.32446277 0.93488723 2.061897 234 88 12
-0.31229341 0.92326635 2.0625241 234 88 12
-0.32918343 0.95307475 2.0462067 234 88 12
-0.31795835 0.93945974 2.0434959 234 88 12
-0.30583122 0.92780542 2.0440321 234 88 12
-0.2929157 0.9177829 2.0473137 234 88 12
-0.32161114 0.95993567 2.0316558 234 88 12
-0.30993837 0.94730681 2.03058 234 88 12
-0.2979646 0.93533307 2.03058 234 88 12
-0.28537238 0.92464256 2.0327201 234 88 12
-0.26976827 0.92006344 2.0451272 234 88 12
-0.31313482 0.96876657 2.0203478 234 88 12
-0.30161643 0.95580059 2.0187316 234 88 12
-0.28964007 0.94382721 2.0187349 234 88 12
-0.27687562 0.93348283 2.0214369 234 88 12
-0.26186144 0.92766601 2.0317059 234 88 12
-0.24471831 0.92592436 2.0489016 234 88 12
-0.2084662 0.96156621 2.1291714 234 88 12
-0.29950333 0.98872131 2.0270557 234 88 12
-0.29220536 0.9666062 2.0106423 234 88 12
-0.28020772 0.95463628 2.010673 234 88 12
-0.26678598 0.9455986 2.0155294 234 88 12
-0.25239038 0.9384445 2.023551 234 88 12
-0.23689421 0.93333906 2.0350611 234 88 12
-0.21848494 0.93374962 2.0559087 234 88 12
-0.18844229 0.9563061 2.1141746 234 88 12
-0.28732401 1.0054607 2.0283344 234 88 12
-0.27848065 0.98652285 2.01724 234 88 12
-0.26819634 0.97080034 2.0112631 234 88 12
-0.25579724 0.95953047 2.0125043 234 88 12
-0.24203262 0.95099622 2.0182526 234 88 12
-0.22770201 0.94348139 2.0257435 234 88 12
-0.21161386 0.9392727 2.0387998 234 88 12
-0.1977039 0.93062288 2.0445807 234 88 12
-0.26655015 1.0025666 2.0173607 234 88 12
-0.25535303 0.98863244 2.0143762 234 88 12
-0.24383222 0.97541678 2.0125279 234 88 12
-0.23134719 0.96417695 2.0138857 234 88 12
-0.21766454 0.95528662 2.0191116 234 88 12
-0.20367643 0.94689661 2.0252159 234 88 12
-0.19065635 0.93653339 2.0281131 234 88 12
-0.172254 0.93631625 2.0479431 234 88 12
-0.25133726 1.0254472 2.0282328 234 88 12
-0.24307057 1.0052338 2.0153074 234 88 12
-0.2309605 0.99309516 2.0152767 234 88 12
-0.21963486 0.97938335 2.0126951 234 88 12
-0.20766538 0.96699184 2.0122383 234 88 12
-0.19537088 0.95524132 2.0128269 234 88 12
-0.18202128 0.94550306 2.0167341 234 88 12
-0.16320653 0.94601697 2.0376461 234 88 12
-0.14444937 0.94604981 2.0579753 234 88 12
-0.23642367 1.0475925 2.0376296 234 88 12
-0.23028605 1.0228091 2.0176139 234 88 12
-0.21820623 1.0104682 2.0173337 234 88 12
-0.20598666 0.99841207 2.017509 234 88 12
-0.19328763 0.98729688 2.0192091 234 88 12
-0.17838509 0.98042518 2.0278301 234 88 12
-0.1659831 0.96861702 2.0284674 234 88 12
-0.15323211 0.9574545 2.0301726 234 88 12
-0.13684535 0.95300663 2.0429888 234 88 12
-0.11898714 0.95102143 2.0600278 234 88 12
-0.23945694 1.069968 2.0278134 234 88 12
-0.22807379 1.0559485 2.0250056 234 88 12
-0.22121681 1.0326874 2.0075336 234 88 12
-0.20974782 1.0190878 2.0052643 234 88 12
-0.19737229 1.0073372 2.0059299 234 88 12
-0.18348175 0.99854797 2.0113633 234 88 12
-0.16926742 0.9902845 2.0177014 234 88 12
-0.15708576 0.97803265 2.0176268 234 88 12
-0.14413579 0.96722442 2.019908 234 88 12
-0.12717469 0.96379453 2.0343199 234 88 12
-0.11123388 0.95824903 2.045392 234 88 12
-0.092289582 0.95790386 2.0652018 234 88 12
-0.231427 1.0776423 2.0141089 234 88 12
-0.21971482 1.0643232 2.0124106 234 88 12
-0.20972787 1.0475062 2.0051928 234 88 12
-0.19807357 1.0341877 2.0034339 234 88 12
-0.1857882 1.0221554 2.0037014 234 88 12
-0.1731094 1.0108877 2.0051928 234 88 12
-0.15798901 1.0042987 2.0142086 234 88 12
-0.14469291 0.99408001 2.0174608 234 88 12
-0.13085222 0.98482162 2.0223033 234 88 12
-0.11674506 0.97596765 2.0278549 234 88 12
-0.1017855 0.96856415 2.0358403 234 88 12
-0.084343463 0.96546668 2.0509996 234 88 12
-0.068970352 0.95845193 2.0598326 234 88 12
-0.22171703 1.0888529 2.0058904 234 88 12
-0.21107437 1.0732806 2.0007212 234 88 12
-0.19898486 1.0607581 2.0002673 234 88 12
-0.18880975 1.0443985 1.9937823 234 88 12
-0.17662223 1.0321441 1.9937121 234 88 12
-0.16317366 1.02235 1.9975441 234 88 12
-0.14357874 1.024294 2.0201294 234 88 12
-0.13045809 1.0135669 2.0226393 234 88 12
-0.11845297 1.0007129 2.021749 234 88 12
-0.10539363 0.98981327 2.0240138 234 88 12
-0.091167428 0.98098797 2.0296772 234 88 12
-0.075655006 0.97436029 2.0389934 234 88 12
-0.060523808 0.9668985 2.0470355 234 88 12
-0.19984423 1.0875754 1.9972646 234 88 12
-0.18897989 1.0724758 1.9928581 234 88 12
-0.17540689 1.0628831 1.9969994 234 88 12
-0.16180089 1.0532773 2.0011613 234 88 12
-0.11713595 1.0312626 2.0247273 234 88 12
-0.10490716 1.0186919 2.0243716 234 88 12
-0.091818765 1.0077034 2.0265565 234 88 12
-0.079297327 0.99565148 2.027045 234 88 12
-0.066250004 0.98452765 2.0290463 234 88 12
-0.20470577 0.9628002 2.1325517 234 88 12
-0.22415031 0.96942985 2.1169395 234 88 12
-0.20619407 0.97192067 2.116411 234 88 12
-0.18832113 0.97486091 2.1164026 234 88 12
-0.17049606 0.97808594 2.1167226 234 88 12
-0.32544729 0.92725146 2.0619783 234 88 12
-0.30688059 0.92601907 2.0571909 234 88 12
-0.28922477 0.92892808 2.0571876 234 88 12
-0.2717413 0.93268824 2.0581646 234 88 12
-0.25436366 0.93703663 2.0598171 234 88 12
-0.23683313 0.94067109 2.0606456 234 88 12
-0.21853434 0.94019955 2.0567555 234 88 12
-0.20082165 0.94277889 2.0563741 234 88 12
-0.18350913 0.94764179 2.0586121 234 88 12
-0.16628492 0.95316476 2.0616021 234 88 12
-0.14913899 0.95935565 2.065351 234 88 12
-0.13172586 0.96407735 2.0674131 234 88 12
-0.11408575 0.96742898 2.0679061 234 88 12
-0.0962338 0.96935272 2.0667684 234 88 12
-0.078586742 0.97266662 2.0672181 234 88 12
-0.06133794 0.97899675 2.0711031 234 88 12
-0.32610178 0.93275243 2.0419934 234 88 12
-0.30830905 0.9350093 2.0412433 234 88 12
-0.29068771 0.93805313 2.0413957 234 88 12
-0.27316004 0.94156748 2.0420856 234 88 12
-0.25573868 0.94565809 2.0434327 234 88 12
-0.23759758 0.9460476 2.0405526 234 88 12
-0.21950585 0.94654673 2.0378027 234 88 12
-0.20187242 0.94944775 2.0377946 234 88 12
-0.18440823 0.95332354 2.0388963 234 88 12
-0.16765586 0.96150768 2.0448959 234 88 12
-0.15016884 0.96553141 2.0461571 234 88 12
-0.13317627 0.97279841 2.0510979 234 88 12
-0.11559787 0.97650623 2.0519927 234 88 12
-0.097796917 0.97874099 2.0512166 234 88 12
-0.08012674 0.98185861 2.0514417 234 88 12
-0.062644415 0.98639899 2.0532753 234 88 12
-0.046330433 1.0002126 2.0655851 234 88 12
-0.32769558 0.94252378 2.026947 234 88 12
-0.30996096 0.94504315 2.0265014 234 88 12
-0.29232502 0.94801521 2.026571 234 88 12
-0.2747719 0.9514001 2.0271091 234 88 12
-0.25736523 0.95555848 2.0285237 234 88 12
-0.23890091 0.95424592 2.0237358 234 88 12
-0.22108769 0.95619124 2.0226452 234 88 12
-0.203458 0.95909894 2.0226452 234 88 12
-0.18590522 0.96244991 2.0231462 234 88 12
-0.16924489 0.97115022 2.0296862 234 88 12
-0.15171851 0.97491473 2.0306463 234 88 12
-0.13482265 0.98277301 2.0362184 234 88 12
-0.1172706 0.98664987 2.0372972 234 88 12
-0.099466518 0.988864 2.0365038 234 88 12
-0.081796438 0.99198228 2.0367279 234 88 12
-0.064325549 0.99660695 2.0386429 234 88 12
-0.32961738 0.95378965 2.0135951 234 88 12
-0.31168365 0.95540833 2.0121346 234 88 12
-0.29404753 0.95838696 2.0122106 234 88 12
-0.27656311 0.96212006 2.0131371 234 88 12
-0.25914559 0.96624202 2.0144999 234 88 12
-0.24101914 0.96671772 2.0117579 234 88 12
-0.22283132 0.96671051 2.0084779 234 88 12
-0.20512857 0.96922433 2.0080352 234 88 12
-0.18765973 0.97306067 2.0090771 234 88 12
-0.17105444 0.9821071 2.0159571 234 88 12
-0.15355903 0.98609257 2.0171568 234 88 12
-0.13664183 0.99385232 2.0225775 234 88 12
-0.11908714 0.99774742 2.0236681 234 88 12
-0.10132965 1.0003208 2.0232804 234 88 12
-0.08369346 1.0037359 2.0238328 234 88 12
-0.067126572 1.0151832 2.0333383 234 88 12
-0.29850739 0.98193729 2.012605 234 88 12
-0.28083724 0.98513365 2.0129104 234 88 12
-0.26338181 0.98944008 2.014456 234 88 12
-0.24602814 0.99436349 2.0166881 234 88 12
-0.22595446 0.98469377 2.0026326 234 88 12
-0.20782842 0.98509574 1.9998306 234 88 12
-0.1933796 1.0065343 2.0204644 234 88 12
-0.17553842 1.0090055 2.0199542 234 88 12
-0.15780035 1.012081 2.0201163 234 88 12
-0.14058602 1.0185148 2.0240088 234 88 12
-0.12280871 1.0214775 2.0240419 234 88 12
-0.10502671 1.0244102 2.0240419 234 88 12
-0.24879329 1.0102426 2.0082874 234 88 12
-0.23101127 1.0131482 2.0082581 234 88 12
-0.21323426 1.0160803 2.0082581 234 88 12
-0.19547383 1.0191078 2.008364 234 88 12
-0.17747949 1.0207475 2.0069363 234 88 12
-0.1599793 1.0253453 2.0087762 234 88 12
-0.14316721 1.0344611 2.0155947 234 88 12
-0.23336582 1.0269846 1.9975131 234 88 12
-0.21529296 1.02838 1.9958214 234 88 12
-0.19768496 1.0323563 1.9969654 234 88 12
-0.17992538 1.035499 1.9971933 234 88 12
-0.16421604 1.0513028 2.0112936 234 88 12
-0.238446 1.0555853 2.0028272 234 88 12
-0.2200074 1.055518 1.999534 234 88 12
-0.20198643 1.0576634 1.9986582 234 88 12
-0.18421111 1.0612195 1.9993196 234 88 12
-0.16704765 1.0685915 2.0041306 234 88 12
-0.22267316 1.0712159 1.9905907 234 88 12
-0.20464492 1.0734965 1.9898621 234 88 12
-0.1870176 1.0781224 1.9916694 234 88 12
-0.080913194 0.98408663 2.087641 234 88 12
-0.071984783 0.99649918 2.0879354 234 88 12
-0.1118082 0.97287118 2.0850148 234 88 12
-0.092254132 0.97295201 2.071125 234 88 12
-0.082961395 0.98491633 2.0709176 234 88 12
-0.074305713 0.99763554 2.071569 234 88 12
-0.066251464 1.0110874 2.0730417 234 88 12
-0.19456412 0.9740957 2.1255805 234 88 12
-0.18196875 0.98288167 2.1213434 234 88 12
-0.16389674 0.98537439 2.1098762 234 88 12
-0.12511238 0.96392339 2.0709908 234 88 12
-0.10521059 0.96372157 2.056793 234 88 12
-0.095314629 0.97498411 2.0557861 234 88 12
-0.086162589 0.98710752 2.0557644 234 88 12
-0.077287003 0.9995594 2.0561135 234 88 12
-0.069559552 1.0133947 2.0580125 234 88 12
-0.20752841 0.96430647 2.1105149 234 88 12
-0.19382891 0.97189295 2.1048932 234 88 12
-0.16125004 0.95812917 2.0746911 234 88 12
-0.1414548 0.95841968 2.06092 234 88 12
-0.12827522 0.96607953 2.0557029 234 88 12
-0.10887899 0.96646422 2.0422623 234 88 12
-0.09916167 0.97793537 2.0414982 234 88 12
-0.089872763 0.98989904 2.0412958 234 88 12
-0.081073463 1.0024414 2.0417442 234 88 12
-0.073550165 1.0165212 2.0439038 234 88 12
-0.2308989 0.96592253 2.1087227 234 88 12
-0.19239748 0.94623697 2.0714619 234 88 12
-0.17678149 0.95149899 2.0633149 234 88 12
-0.15995924 0.95527548 2.0535433 234 88 12
-0.14457574 0.96053225 2.0455561 234 88 12
-0.13209726 0.96899194 2.0412831 234 88 12
-0.12186306 0.97997898 2.0399079 234 88 12
-0.10328436 0.98120809 2.0275695 234 88 12
-0.093976729 0.99315411 2.0273461 234 88 12
-0.085405946 1.0059718 2.0280962 234 88 12
-0.25311977 0.96607894 2.1052015 234 88 12
-0.20651267 0.93791062 2.0581212 234 88 12
-0.19330768 0.94591427 2.0531332 234 88 12
-0.17862475 0.95219183 2.0462174 234 88 12
-0.16397026 0.95839256 2.0392809 234 88 12
-0.14981996 0.96505576 2.0329363 234 88 12
-0.13650924 0.9725799 2.0276244 234 88 12
-0.12655115 0.98389375 2.0266206 234 88 12
-0.1173667 0.99609363 2.0266168 234 88 12
-0.10921243 1.0095055 2.0279617 234 88 12
-0.10295104 1.0251861 2.0318062 234 88 12
-0.25426945 0.94339943 2.0751426 234 88 12
-0.22760412 0.93712914 2.0534918 234 88 12
-0.20940058 0.93978173 2.0423105 234 88 12
-0.1963709 0.9479726 2.0375731 234 88 12
-0.18244845 0.95509392 2.0316646 234 88 12
-0.17002814 0.96381062 2.0276206 234 88 12
-0.15818143 0.97311383 2.0242765 234 88 12
-0.14800552 0.98427618 2.0230503 234 88 12
-0.14021404 0.99817288 2.0248883 234 88 12
-0.13202816 1.0116395 2.0262311 234 88 12
-0.12501866 1.0265111 2.0291145 234 88 12
-0.26733243 0.93365139 2.0601146 234 88 12
-0.24874291 0.93623394 2.0487051 234 88 12
-0.22730072 0.93554521 2.0336537 234 88 12
-0.21421082 0.94375676 2.0289166 234 88 12
-0.20265029 0.95358163 2.0260596 234 88 12
-0.1874799 0.95934093 2.0186319 234 88 12
-0.17652352 0.9697175 2.0164735 234 88 12
-0.16656584 0.98119199 2.0155659 234 88 12
-0.15882303 0.99518573 2.0174754 234 88 12
-0.15232056 1.0106421 2.0209892 234 88 12
-0.14417481 1.0242412 2.022419 234 88 12
-0.30309445 0.92535269 2.0612869 234 88 12
-0.28464076 0.92838401 2.0502748 234 88 12
-0.26790568 0.93307269 2.0412817 234 88 12
-0.25226411 0.93879485 2.0335629 234 88 12
-0.23160568 0.9389593 2.0195806 234 88 12
-0.21902721 0.94773728 2.0155129 234 88 12
-0.20889874 0.95915371 2.0144651 234 88 12
-0.19938989 0.97124308 2.0141838 234 88 12
-0.1912811 0.98490041 2.0156593 234 88 12
-0.18185864 0.99709284 2.0154898 234 88 12
-0.17231482 1.0091437 2.0151651 234 88 12
-0.16299126 1.0214434 2.0151179 234 88 12
-0.16537975 1.0473746 2.0300288 234 88 12
-0.32119513 0.92069691 2.0521564 234 88 12
-0.30297378 0.9241057 2.0415657 234 88 12
-0.28752747 0.93027484 2.0342569 234 88 12
-0.27255276 0.93683106 2.0274642 234 88 12
-0.25808033 0.94381952 2.0212312 234 88 12
-0.24441315 0.9515816 2.0159366 234 88 12
-0.22437277 0.95229501 2.0027437 234 88 12
-0.21412748 0.96359849 2.0015662 234 88 12
-0.20574069 0.97695082 2.0026886 234 88 12
-0.20301981 0.99668115 2.0108898 234 88 12
-0.1904088 1.0053425 2.0067675 234 88 12
-0.18110169 1.0177126 2.0067675 234 88 12
-0.17619833 1.0351598 2.0123303 234 88 12
-0.17130584 1.0527107 2.0179532 234 88 12
-0.32218 0.92063081 2.0337679 234 88 12
-0.30707398 0.92727071 2.0269742 234 88 12
-0.29291803 0.93480515 2.021271 234 88 12
-0.27934471 0.94286925 2.016227 234 88 12
-0.26602608 0.95112681 2.0114522 234 88 12
-0.25441056 0.9611522 2.0087154 234 88 12
-0.24508941 0.97363997 2.0087655 234 88 12
-0.23699015 0.9874751 2.010318 234 88 12
-0.22597991 0.99809837 2.0082903 234 88 12
-0.21160322 1.0049121 2.0020745 234 88 12
-0.20005912 1.0148314 1.9993322 234 88 12
-0.1904543 1.0269209 1.9989902 234 88 12
-0.18315127 1.0416571 2.0015333 234 88 12
-0.17829609 1.0592808 2.0071809 234 88 12
-0.17613567 1.0801584 2.0162847 234 88 12
-0.31348079 0.93284339 2.0151272 234 88 12
-0.30039969 0.94153661 2.0107613 234 88 12
-0.28826579 0.95116735 2.0074985 234 88 12
-0.27790356 0.96264601 2.0063465 234 88 12
-0.27248323 0.97945344 2.0111697 234 88 12
-0.26102999 0.98975211 2.0086968 234 88 12
-0.25215673 1.0028527 2.0093532 234 88 12
-0.23842405 1.0105635 2.0040588 234 88 12
-0.22113353 1.014199 1.9943428 234 88 12
-0.20762736 1.0219575 1.9892236 234 88 12
-0.19828075 1.0343801 1.9892236 234 88 12
-0.19549058 1.0543531 1.9973924 234 88 12
-0.18736765 1.0682647 1.9989572 234 88 12
-0.18415925 1.0879633 2.0067091 234 88 12
-0.31072012 0.95125329 2.0035653 234 88 12
-0.22767031 1.0431838 1.9943599 234 88 12
-0.21581808 1.0529119 1.9913541 234 88 12
-0.20567062 1.0645524 1.9904329 234 88 12
-0.19726627 1.0782019 1.9916698 234 88 12
-0.33387968 0.94186264 2.0575149 234 88 12
-0.32204059 0.97862512 2.0546319 234 88 12
-0.32304898 0.95810288 2.0399303 234 88 12
-0.32119697 0.94106102 2.0389535 234 88 12
-0.3188709 0.92457366 2.04024 234 88 12
-0.30921763 0.9779194 2.0367854 234 88 12
-0.30842939 0.95960528 2.0308111 234 88 12
-0.30647606 0.94268942 2.0303295 234 88 12
-0.30425218 0.92608505 2.0311167 234 88 12
-0.30077109 0.91087663 2.0377743 234 88 12
-0.29338342 1.0001462 2.0427945 234 88 12
-0.29400313 0.98010612 2.0303597 234 88 12
-0.29337013 0.96162653 2.0237677 234 88 12
-0.29148576 0.94463032 2.0229745 234 88 12
-0.28922221 0.92806566 2.0239298 234 88 12
-0.28550899 0.91308808 2.031538 234 88 12
-0.27823994 1.0022007 2.0357871 234 88 12
-0.27760085 0.98366523 2.0292928 234 88 12
-0.27715802 0.96496135 2.0219347 234 88 12
-0.2753841 0.94781768 2.0206418 234 88 12
-0.27297655 0.9313854 2.0222208 234 88 12
-0.26861918 0.91705626 2.0325956 234 88 12
-0.26250014 1.0049453 2.0314255 234 88 12
-0.26159874 0.98671818 2.0262072 234 88 12
-0.26060316 0.96864247 2.0214314 234 88 12
-0.25901821 0.95126176 2.0193026 234 88 12
-0.25633207 0.93510008 2.0220811 234 88 12
-0.25149107 0.92122293 2.0344141 234 88 12
-0.24550693 1.028458 2.0416315 234 88 12
-0.24604437 1.0084904 2.0301054 234 88 12
-0.24533753 0.9900322 2.0241039 234 88 12
-0.24377601 0.97257787 2.0218813 234 88 12
-0.24189302 0.9554947 2.0210774 234 88 12
-0.23929346 0.93918949 2.0234118 234 88 12
-0.23463269 0.92504352 2.0347362 234 88 12
-0.23600926 1.0625641 2.0276923 234 88 12
-0.23384193 1.0457407 2.0281043 234 88 12
-0.23171079 1.0288719 2.0283573 234 88 12
-0.22985545 1.0116873 2.0274127 234 88 12
-0.22869453 0.99373448 2.0234649 234 88 12
-0.22681561 0.97660512 2.0226357 234 88 12
-0.22513498 0.95926857 2.0209546 234 88 12
-0.22233856 0.94313174 2.0240829 234 88 12
-0.21851936 0.9280355 2.0315914 234 88 12
-0.2231324 1.0812643 2.0195348 234 88 12
-0.22148465 1.0638301 2.0177102 234 88 12
-0.21932571 1.0470046 2.0180838 234 88 12
-0.21690838 1.0304706 2.0195608 234 88 12
-0.21484701 1.0135243 2.0195127 234 88 12
-0.21277437 0.99659091 2.0195127 234 88 12
-0.21050827 0.9798674 2.0203352 234 88 12
-0.20852047 0.9628399 2.0199735 234 88 12
-0.2063427 0.9460147 2.0204179 234 88 12
-0.20352288 0.92984742 2.0235739 234 88 12
-0.2081698 1.083047 2.0114405 234 88 12
-0.20648229 1.0656664 2.0098135 234 88 12
-0.2043221 1.048841 2.0101862 234 88 12
-0.20184495 1.0323694 2.0118916 234 88 12
-0.19964311 1.0155779 2.0124338 234 88 12
-0.19757009 0.99864137 2.0124338 234 88 12
-0.19505081 0.98218304 2.0143008 234 88 12
-0.19329827 0.96490067 2.0129588 234 88 12
-0.19103467 0.94815922 2.013752 234 88 12
-0.18621118 0.93401635 2.0251899 234 88 12
-0.19199109 1.0862498 2.008419 234 88 12
-0.19108939 1.0679512 2.0035408 234 88 12
-0.18897007 1.0510713 2.0037348 234 88 12
-0.18619263 1.0349216 2.006654 234 88 12
-0.18377453 1.0183533 2.0080764 234 88 12
-0.18160659 1.0015036 2.0084612 234 88 12
-0.177357 0.98685384 2.017417 234 88 12
-0.17501713 0.97013932 2.0184889 234 88 12
-0.17223248 0.95387059 2.0213814 234 88 12
-0.16697299 0.94006503 2.0343955 234 88 12
-0.17587867 1.0893422 2.0049725 234 88 12
-0.17444144 1.0716481 2.0023541 234 88 12
-0.17214222 1.0549392 2.003267 234 88 12
-0.17002019 1.0380275 2.0034542 234 88 12
-0.16831146 1.0206676 2.0019586 234 88 12
-0.1652502 1.0047585 2.0059626 234 88 12
-0.15988602 0.99122262 2.0192871 234 88 12
-0.156445 0.97559458 2.0247796 234 88 12
-0.15416829 0.95874256 2.0255487 234 88 12
-0.14953056 0.94422895 2.0358324 234 88 12
-0.14985186 1.0454386 2.0161502 234 88 12
-0.14500861 1.0313406 2.0271983 234 88 12
-0.14496407 1.0121067 2.0190134 234 88 12
-0.14228225 0.99566793 2.0213869 234 88 12
-0.13881053 0.98001105 2.0268984 234 88 12
-0.13604783 0.96359861 2.0295696 234 88 12
-0.13145936 0.94895512 2.0394783 234 88 12
-0.12520421 1.0381124 2.0376239 234 88 12
-0.12557462 1.0183935 2.0278952 234 88 12
-0.12283889 1.0019296 2.0304132 234 88 12
-0.12083575 0.98470867 2.0300474 234 88 12
-0.11828813 0.96802813 2.0318153 234 88 12
-0.11413563 0.95288914 2.0398512 234 88 12
-0.10645713 1.0242977 2.0352159 234 88 12
-0.10495975 1.0065105 2.0328729 234 88 12
-0.10325116 0.98895317 2.0313549 234 88 12
-0.10074402 0.97218788 2.0329235 234 88 12
-0.096262924 0.9573018 2.042088 234 88 12
-0.088508613 1.0289234 2.0376141 234 88 12
-0.087282784 1.0108273 2.0342515 234 88 12
-0.085244209 0.99355739 2.0339956 234 88 12
-0.081765853 0.97767824 2.0392134 234 88 12
-0.079191968 0.96089667 2.0409806 234 88 12
-0.067716815 1.0169511 2.0424547 234 88 12
-0.067815825 0.99753875 2.0341535 234 88 12
-0.06575048 0.98026198 2.033988 234 88 12
-0.060095347 0.96635175 2.0472448 234 88 12
-0.31557378 0.91486496 2.0516365 234 88 12
-0.29682767 0.91220647 2.0508792 234 88 12
-0.27831084 0.91342425 2.058126 234 88 12
-0.33214834 0.93232602 2.0399985 234 88 12
-0.31336325 0.92900509 2.0378942 234 88 12
-0.29467449 0.92690289 2.038276 234 88 12
-0.27602032 0.92547309 2.0400338 234 88 12
-0.25741854 0.92545199 2.0446796 234 88 12
-0.23879905 0.92597044 2.0504413 234 88 12
-0.22010447 0.92560577 2.0544031 234 88 12
-0.20139848 0.92623299 2.0604105 234 88 12
-0.18266295 0.92842162 2.0696414 234 88 12
-0.33006549 0.94824535 2.0299299 234 88 12
-0.31132784 0.94548708 2.0289819 234 88 12
-0.29262778 0.9431982 2.0289819 234 88 12
-0.27396452 0.94158047 2.0303416 234 88 12
-0.25533757 0.94099218 2.033792 234 88 12
-0.23667221 0.94015163 2.0367374 234 88 12
-0.21791384 0.93698227 2.0349562 234 88 12
-0.19919397 0.93494523 2.0354748 234 88 12
-0.18053028 0.93783402 2.0460267 234 88 12
-0.16177338 0.93950725 2.0541224 234 88 12
-0.14294203 0.94249225 2.0649123 234 88 12
-0.32809806 0.96560794 2.0227742 234 88 12
-0.30931908 0.96234477 2.0208254 234 88 12
-0.29061663 0.96005559 2.0208254 234 88 12
-0.27196085 0.95863891 2.0225763 234 88 12
-0.25332496 0.95798916 2.0258718 234 88 12
-0.23459718 0.95558608 2.0256479 234 88 12
-0.21586852 0.95308518 2.0252266 234 88 12
-0.19714917 0.95087659 2.0253937 234 88 12
-0.17847675 0.95295638 2.0342121 234 88 12
-0.15972666 0.95380491 2.0405624 234 88 12
-0.14092521 0.95427424 2.0461595 234 88 12
-0.12205892 0.95597911 2.0542684 234 88 12
-0.10315793 0.95620185 2.059392 234 88 12
-0.084241837 0.95552504 2.0627019 234 88 12
-0.065058894 0.96082556 2.0781529 234 88 12
-0.30746314 0.98143512 2.0170879 234 88 12
-0.28869295 0.9783715 2.0155549 234 88 12
-0.27002597 0.97704035 2.0174632 234 88 12
-0.25135699 0.97602838 2.0200105 234 88 12
-0.23257621 0.97246718 2.0174844 234 88 12
-0.21383756 0.96967798 2.0164928 234 88 12
-0.19511814 0.96746999 2.0166595 234 88 12
-0.17644437 0.96984118 2.0259771 234 88 12
-0.15768792 0.97002584 2.0309401 234 88 12
-0.13889466 0.96943796 2.0343661 234 88 12
-0.12002562 0.97195625 2.0440261 234 88 12
-0.10114446 0.9715175 2.0477722 234 88 12
-0.082236379 0.97092855 2.0512245 234 88 12
-0.063314945 0.96994698 2.0538945 234 88 12
-0.28712401 1.0027647 2.0221772 234 88 12
-0.26833853 1.0003965 2.0220408 234 88 12
-0.24952599 0.99736577 2.0205979 234 88 12
-0.23066391 0.99253631 2.0156019 234 88 12
-0.21183136 0.98722285 2.0096397 234 88 12
-0.19310856 0.98527843 2.0103281 234 88 12
-0.17443465 0.98922294 2.0226753 234 88 12
-0.15565112 0.98748887 2.0237951 234 88 12
-0.13683295 0.98912168 2.0315959 234 88 12
-0.11797671 0.98898977 2.0359087 234 88 12
-0.099094279 0.98842978 2.0393794 234 88 12
-0.080189578 0.98764992 2.0424197 234 88 12
-0.061275788 0.98646343 2.0446563 234 88 12
-0.24763861 1.0176179 2.018892 234 88 12
-0.22881669 1.0148103 2.0179031 234 88 12
-0.21001527 1.0124904 2.0178664 234 88 12
-0.19121988 1.0105163 2.0185072 234 88 12
-0.17242414 1.0091488 2.020339 234 88 12
-0.15361287 1.0087019 2.023982 234 88 12
-0.13477142 1.008168 2.0274611 234 88 12
-0.11590736 1.007218 2.030129 234 88 12
-0.097013757 1.006543 2.0333438 234 88 12
-0.078119658 1.0050638 2.0349796 234 88 12
-0.059163105 1.0047455 2.0389099 234 88 12
-0.24590462 1.0419005 2.0248554 234 88 12
-0.22679338 1.0319836 2.010119 234 88 12
-0.20798391 1.0295002 2.0097668 234 88 12
-0.18919215 1.0279617 2.0112479 234 88 12
-0.17038339 1.0258216 2.0115631 234 88 12
-0.15156952 1.026448 2.0172596 234 88 12
-0.13267259 1.0308573 2.0303323 234 88 12
-0.11375419 1.0301186 2.0333989 234 88 12
-0.094838023 1.0282782 2.0343227 234 88 12
-0.075816296 1.0293069 2.0408509 234 88 12
-0.2438568 1.0585985 2.0160055 234 88 12
-0.22498184 1.0560485 2.0155435 234 88 12
-0.20596699 1.0471771 2.0029361 234 88 12
-0.18715443 1.04483 2.0028505 234 88 12
-0.16834502 1.0428638 2.0034983 234 88 12
-0.14951442 1.0497706 2.021245 234 88 12
-0.24184215 1.0761714 2.0088186 234 88 12
-0.22293608 1.072798 2.0067968 234 88 12
-0.20406991 1.0704714 2.0067635 234 88 12
-0.18520717 1.0683749 2.0071688 234 88 12
-0.16635369 1.0685909 2.0119855 234 88 12
-0.2020852 1.0901864 2.0036094 234 88 12
-0.18319589 1.0879096 2.0036762 234 88 12
-0.086116016 0.95913625 2.0708044 234 88 12
-0.073292464 0.9717387 2.0703614 234 88 12
-0.06135064 0.98578554 2.0724616 234 88 12
-0.10805882 0.95539683 2.0582476 234 88 12
-0.09483812 0.96736896 2.0566933 234 88 12
-0.082092807 0.98008478 2.0564616 234 88 12
-0.069587626 0.99319112 2.0569141 234 88 12
-0.05889798 1.0093302 2.0626247 234 88 12
-0.19675376 0.95569825 2.1224849 234 88 12
-0.16750611 0.94424212 2.0784738 234 88 12
-0.14945269 0.94914722 2.0641232 234 88 12
-0.13362083 0.9572562 2.0556128 234 88 12
-0.11709761 0.96414238 2.0450435 234 88 12
-0.10407135 0.97641969 2.0440395 234 88 12
-0.091198325 0.98892784 2.0434487 234 88 12
-0.078874074 1.0023248 2.044405 234 88 12
-0.067599542 1.0174823 2.0483844 234 88 12
-0.203858 0.92965007 2.0696561 234 88 12
-0.18753543 0.93738526 2.0602887 234 88 12
-0.1716098 0.94556713 2.0518227 234 88 12
-0.15789673 0.9569788 2.0491681 234 88 12
-0.14280245 0.96621674 2.0427186 234 88 12
-0.12965961 0.97840339 2.0415008 234 88 12
-0.11351879 0.98581117 2.0319815 234 88 12
-0.10080648 0.99858195 2.0318475 234 88 12
-0.088410869 1.0118678 2.0326011 234 88 12
-0.081988476 1.0350655 2.0503092 234 88 12
-0.22815575 0.92897916 2.0625606 234 88 12
-0.20861958 0.93216395 2.045043 234 88 12
-0.19497223 0.94376236 2.0426764 234 88 12
-0.18009691 0.95348549 2.0370233 234 88 12
-0.16715017 0.9660449 2.0364172 234 88 12
-0.15261212 0.97614515 2.0315216 234 88 12
-0.13924912 0.98799998 2.0297289 234 88 12
-0.12639613 1.000633 2.0293005 234 88 12
-0.11370111 1.0135125 2.0293005 234 88 12
-0.10367169 1.0307353 2.0367217 234 88 12
-0.27023751 0.92213011 2.0677722 234 88 12
-0.25166062 0.92709368 2.0532691 234 88 12
-0.23250967 0.93100959 2.0370634 234 88 12
-0.21707985 0.94007576 2.0301814 234 88 12
-0.20370561 0.95206046 2.0285268 234 88 12
-0.18956138 0.96286887 2.0248272 234 88 12
-0.1765058 0.97526652 2.0239415 234 88 12
-0.16359162 0.98786694 2.0234177 234 88 12
-0.1502478 0.99978966 2.0217307 234 88 12
-0.13831106 1.0139074 2.0238276 234 88 12
-0.12631987 1.0279727 2.0258121 234 88 12
-0.29130965 0.91670412 2.0520866 234 88 12
-0.27553877 0.92567134 2.0447984 234 88 12
-0.25993732 0.9347648 2.0378189 234 88 12
-0.24188176 0.94024104 2.0245106 234 88 12
-0.22645007 0.94931173 2.0176861 234 88 12
-0.21307197 0.96129256 2.0160367 234 88 12
-0.20033984 0.97420979 2.0160367 234 88 12
-0.18695444 0.98613977 2.0143268 234 88 12
-0.17506419 1.0003333 2.0165346 234 88 12
-0.16540515 1.0180303 2.0247188 234 88 12
-0.15271959 1.0310925 2.0249181 234 88 12
-0.14294502 1.048811 2.0330031 234 88 12
-0.3151277 0.91503972 2.0431812 234 88 12
-0.29966781 0.92452294 2.0368056 234 88 12
-0.28472629 0.93462801 2.03161 234 88 12
-0.26989236 0.94480401 2.0265996 234 88 12
-0.25508568 0.95494074 2.0215771 234 88 12
-0.23646508 0.95948052 2.0068226 234 88 12
-0.22322771 0.97168261 2.0055604 234 88 12
-0.21082012 0.9850986 2.0064118 234 88 12
-0.20157127 1.0032916 2.0154688 234 88 12
-0.18802761 1.015065 2.0134463 234 88 12
-0.17577182 1.0288019 2.0147858 234 88 12
-0.16498284 1.0448673 2.0200493 234 88 12
-0.15600052 1.0639012 2.0302489 234 88 12
-0.32416758 0.92379755 2.0295551 234 88 12
-0.30940095 0.93422681 2.0249124 234 88 12
-0.29500335 0.94509608 2.0211003 234 88 12
-0.28057802 0.95586723 2.0171592 234 88 12
-0.26652309 0.96710432 2.0140769 234 88 12
-0.25301191 0.97907805 2.0123086 234 88 12
-0.2411917 0.99349922 2.014786 234 88 12
-0.22626355 1.0033472 2.0093832 234 88 12
-0.21186854 1.0139101 2.0052614 234 88 12
-0.19886677 1.0265317 2.0046809 234 88 12
-0.1861625 1.0396038 2.0048678 234 88 12
-0.17761005 1.0591921 2.0159965 234 88 12
-0.16659974 1.0750564 2.0207841 234 88 12
-0.33496261 0.93492126 2.0201406 234 88 12
-0.31990522 0.94498217 2.0148635 234 88 12
-0.30598608 0.95653677 2.0122662 234 88 12
-0.29237291 0.96848023 2.0103765 234 88 12
-0.280054 0.98223424 2.0116475 234 88 12
-0.26907346 0.99793744 2.0162644 234 88 12
-0.2557798 1.0103344 2.0151618 234 88 12
-0.23786059 1.0158621 2.0023596 234 88 12
-0.22263078 1.0252211 1.9961954 234 88 12
-0.20954746 1.0377475 1.9954394 234 88 12
-0.19709355 1.0512331 1.9963001 234 88 12
-0.18860243 1.0709349 2.0075188 234 88 12
-0.17664163 1.0853184 2.0097942 234 88 12
-0.32321241 0.97659642 2.018384 234 88 12
-0.23921353 1.0452464 2.00175 234 88 12
-0.22548833 1.0569465 1.999517 234 88 12
-0.21192731 1.0688628 1.997668 234 88 12
-0.19921289 1.0820704 1.9979774 234 88 12
-0.18779774 1.09734 2.0016801 234 88 12
-0.22350012 1.0814446 1.9904939 234 88 12
-0.076906554 0.97173244 2.080344 234 88 12
-0.073532246 0.98586202 2.0783465 234 88 12
-0.071555123 1.0007299 2.0783296 234 88 12
-0.072653778 1.0172843 2.0826826 234 88 12
-0.08288727 0.97196209 2.0653219 234 88 12
-0.079926565 0.98630494 2.0639193 234 88 12
-0.077962264 1.0011733 2.0639193 234 88 12
-0.076996349 1.0165877 2.0653281 234 88 12
-0.092941679 0.9584257 2.0532744 234 88 12
-0.089761935 0.97266555 2.0515769 234 88 12
-0.087634109 0.98744988 2.0513487 234 88 12
-0.085405432 1.0021777 2.0509789 234 88 12
-0.084399514 1.0175695 2.0523221 234 88 12
-0.12187202 0.95454341 2.0673797 234 88 12
-0.1005598 0.95951784 2.0405598 234 88 12
-0.097220272 0.97367668 2.0386524 234 88 12
-0.095042624 0.98843515 2.0383565 234 88 12
-0.093259007 1.0034028 2.0386081 234 88 12
-0.092871025 1.019133 2.0408027 234 88 12
-0.12574343 0.95369738 2.049319 234 88 12
-0.11993879 0.96669376 2.0440466 234 88 12
-0.10576886 0.97525871 2.02723 234 88 12
-0.10343901 0.98994428 2.0267274 234 88 12
-0.102245 1.0052347 2.0277929 234 88 12
-0.11047066 1.0256531 2.0418813 234 88 12
-0.15149826 0.94792479 2.0585263 234 88 12
-0.13596502 0.95609641 2.040009 234 88 12
-0.12866634 0.96834391 2.0327313 234 88 12
-0.12539653 0.98262835 2.0309598 234 88 12
-0.12259305 0.99714285 2.0298247 234 88 12
-0.12049691 1.0120254 2.0296583 234 88 12
-0.12067176 1.0281374 2.0326095 234 88 12
-0.17824113 0.94239664 2.0687327 234 88 12
-0.15813461 0.9484843 2.0441694 234 88 12
-0.14742669 0.95911986 2.0323312 234 88 12
-0.1407432 0.97171605 2.0259438 234 88 12
-0.13591008 0.98521668 2.022063 234 88 12
-0.13486783 1.0006818 2.0233366 234 88 12
-0.13461296 1.0165797 2.0256851 234 88 12
-0.14177302 1.0365102 2.0381474 234 88 12
-0.1796786 0.94037199 2.0472238 234 88 12
-0.16864139 0.95098507 2.0350449 234 88 12
-0.16025877 0.96282977 2.026427 234 88 12
-0.15502527 0.97621089 2.0220463 234 88 12
-0.15310085 0.99127203 2.0221291 234 88 12
-0.15275884 1.0071675 2.0243511 234 88 12
-0.15287998 1.023331 2.0272036 234 88 12
-0.15697917 1.0416684 2.0354471 234 88 12
-0.19853956 0.93077296 2.0464447 234 88 12
-0.18993185 0.94271213 2.0376179 234 88 12
-0.17774925 0.95277983 2.0239923 234 88 12
-0.17414825 0.96706313 2.0218403 234 88 12
-0.17029555 0.98119682 2.0193474 234 88 12
-0.17046049 0.99739254 2.0222409 234 88 12
-0.16657971 1.0114896 2.019707 234 88 12
-0.1662039 1.027427 2.0218785 234 88 12
-0.17407876 1.0478272 2.0351496 234 88 12
-0.1731682 1.063568 2.0366173 234 88 12
-0.20632763 0.93188453 2.0334537 234 88 12
-0.20106937 0.94548196 2.0291364 234 88 12
-0.19240372 0.95733821 2.020283 234 88 12
-0.18493675 0.96971548 2.0130103 234 88 12
-0.18412066 0.98542583 2.014581 234 88 12
-0.18234222 1.0006527 2.0148718 234 88 12
-0.18068908 1.0159481 2.0153303 234 88 12
-0.18298899 1.0333461 2.0210648 234 88 12
-0.18160838 1.048822 2.0218928 234 88 12
-0.18051562 1.0644624 2.0231071 234 88 12
-0.18119308 1.0810881 2.026691 234 88 12
-0.23955868 0.9290179 2.0513234 234 88 12
-0.21480627 0.93333066 2.0213687 234 88 12
-0.21030548 0.94730967 2.0180812 234 88 12
-0.2079208 0.96231061 2.0175822 234 88 12
-0.20638603 0.97773522 2.0182052 234 88 12
-0.19915277 0.99025673 2.0112946 234 88 12
-0.19469391 1.0041459 2.0080442 234 88 12
-0.1926932 1.0192897 2.0080442 234 88 12
-0.1908495 1.0345168 2.0082524 234 88 12
-0.18978001 1.0501609 2.0094879 234 88 12
-0.18978648 1.0664004 2.0121534 234 88 12
-0.18873338 1.0820843 2.0134156 234 88 12
-0.2461873 0.92954916 2.0365953 234 88 12
-0.22911756 0.93759859 2.016902 234 88 12
-0.21947369 0.94910049 2.0069063 234 88 12
-0.21685131 0.96399391 2.0061007 234 88 12
-0.21659669 0.98007077 2.0084007 234 88 12
-0.21342193 0.99468225 2.0068696 234 88 12
-0.20562139 1.0068934 1.9992571 234 88 12
-0.20288458 1.0216746 1.9982926 234 88 12
-0.20157708 1.0372018 1.9992077 234 88 12
-0.20012839 1.0526624 1.9999384 234 88 12
-0.19827761 1.0679123 2.00014 234 88 12
-0.19859518 1.0843515 2.0032029 234 88 12
-0.27101612 0.9223671 2.0428808 234 88 12
-0.25705928 0.93210572 2.0273972 234 88 12
-0.24820766 0.9441613 2.0185266 234 88 12
-0.24149726 0.95717901 2.0124278 234 88 12
-0.23878984 0.97212195 2.0115316 234 88 12
-0.2338578 0.98593956 2.0077353 234 88 12
-0.22768149 0.99908799 2.0023103 234 88 12
-0.22389024 1.0134112 1.9999897 234 88 12
-0.21679948 1.0259931 1.9933559 234 88 12
-0.2174554 1.042595 1.9968379 234 88 12
-0.21282335 1.0564092 1.9934075 234 88 12
-0.20990273 1.0711142 1.9922124 234 88 12
-0.29676849 0.91539383 2.0500546 234 88 12
-0.27982664 0.92391711 2.0308576 234 88 12
-0.26948109 0.93539327 2.0201404 234 88 12
-0.26270658 0.94848704 2.0140173 234 88 12
-0.25893143 0.96298617 2.01176 234 88 12
-0.25959417 0.97965842 2.015238 234 88 12
-0.25770363 0.99508554 2.0154171 234 88 12
-0.25863391 1.011945 2.0192499 234 88 12
-0.30269548 0.91558689 2.034189 234 88 12
-0.29083779 0.92649615 2.0216312 234 88 12
-0.28356361 0.93945968 2.0149262 234 88 12
-0.27851352 0.95342803 2.0110629 234 88 12
-0.2779066 0.96952385 2.0128946 234 88 12
-0.27706647 0.98552239 2.01443 234 88 12
-0.31293583 0.9177736 2.0238347 234 88 12
-0.30397367 0.93006217 2.0150473 234 88 12
-0.29834649 0.94384521 2.0104897 234 88 12
-0.29568949 0.95900959 2.009707 234 88 12
-0.29702428 0.97610736 2.0140102 234 88 12
-0.31823018 0.93414062 2.0097826 234 88 12
-0.31453031 0.94887906 2.0076981 234 88 12
-0.23983185 0.93987429 2.0215771 234 88 12
-0.24932858 0.95012081 2.0202107 234 88 12
-0.25999776 0.96004021 2.0215771 234 88 12
-0.27108401 0.96985853 2.0238879 234 88 12
-0.28173113 0.97980452 2.0251656 234 88 12
-0.29495415 0.98911786 2.0322907 234 88 12
-0.25158116 0.93159592 2.0225129 234 88 12
-0.25923678 0.94240147 2.0168245 234 88 12
-0.26977238 0.95237917 2.017832 234 88 12
-0.28027731 0.96237171 2.0187573 234 88 12
-0.29142109 0.97220469 2.0211244 234 88 12
-0.3068341 0.98097813 2.0331147 234 88 12
-0.27126986 0.93405873 2.0182288 234 88 12
-0.28104159 0.94428653 2.0174127 234 88 12
-0.29210663 0.95416015 2.0195446 234 88 12
-0.30343056 0.96397996 2.0222363 234 88 12
-0.32033759 0.97239482 2.0374334 234 88 12
-0.28314027 0.92573273 2.0191009 234 88 12
-0.29156023 0.93637848 2.0151536 234 88 12
-0.30261567 0.94627941 2.0172009 234 88 12
-0.31495336 0.95585394 2.0221012 234 88 12
-0.30312213 0.92815405 2.0151362 234 88 12
-0.31326309 0.93833947 2.015058 234 88 12
-0.32497418 0.94810349 2.0184801 234 88 12
-0.16834265 0.94800949 2.0346334 234 88 12
-0.18290685 0.94898349 2.0214114 234 88 12
-0.19759122 0.94912177 2.0150211 234 88 12
-0.21245123 0.94847572 2.0150211 234 88 12
-0.22736819 0.94764417 2.0165265 234 88 12
-0.24259777 0.94590908 2.0253532 234 88 12
-0.25750452 0.94523078 2.0256016 234 88 12
-0.27243462 0.94449687 2.0262988 234 88 12
-0.2873922 0.94370836 2.0274358 234 88 12
-0.30232844 0.94298524 2.0280423 234 88 12
-0.31726438 0.94227141 2.0285721 234 88 12
-0.33253995 0.94088382 2.0345237 234 88 12
-0.19731285 0.93555522 2.0155268 234 88 12
-0.21204363 0.9354918 2.0108988 234 88 12
-0.22721097 0.93386286 2.0186737 234 88 12
-0.24213387 0.9331463 2.0192173 234 88 12
-0.25703624 0.9324984 2.0192173 234 88 12
-0.27195773 0.93180007 2.0196145 234 88 12
-0.286879 0.93110901 2.0199537 234 88 12
-0.30180192 0.93041939 2.0202811 234 88 12
-0.31675327 0.92967272 2.0210555 234 88 12
-0.17188467 1.0946339 2.0194449 234 88 12
-0.18973976 1.0932624 2.013494 234 88 12
-0.2078235 1.0933323 2.0137973 234 88 12
-0.17168963 1.0753193 2.0140557 234 88 12
-0.18971714 1.0750638 2.0129285 234 88 12
-0.20778544 1.0750638 2.0129285 234 88 12
-0.22589956 1.0752819 2.0138907 234 88 12
-0.15386218 1.0589339 2.021626 234 88 12
-0.17171045 1.0573748 2.0146308 234 88 12
-0.1897244 1.057036 2.0131102 234 88 12
-0.2077934 1.057036 2.0131102 234 88 12
-0.22588117 1.0571239 2.0135045 234 88 12
-0.24408258 1.0576912 2.0160503 234 88 12
-0.13642249 1.0459057 2.0447869 234 88 12
-0.1539437 1.0413839 2.0241437 234 88 12
-0.17173284 1.0394356 2.0152497 234 88 12
-0.18977717 1.0392559 2.0144291 234 88 12
-0.2078276 1.039138 2.0138907 234 88 12
-0.22591206 1.0391955 2.0141535 234 88 12
-0.24426502 1.040388 2.0195975 234 88 12
-0.08198119 1.0293194 2.0522361 234 88 12
-0.10008496 1.0281454 2.046782 234 88 12
-0.11826003 1.0279526 2.0458856 234 88 12
-0.13629439 1.026751 2.0403037 234 88 12
-0.15392761 1.0231659 2.0236468 234 88 12
-0.17172584 1.0213169 2.0150561 234 88 12
-0.18978153 1.0212054 2.0145383 234 88 12
-0.20785597 1.0212054 2.0145383 234 88 12
-0.22597018 1.0213852 2.0153737 234 88 12
-0.24445325 1.0230821 2.0232577 234 88 12
-0.063736029 1.0106714 2.0502024 234 88 12
-0.081882276 1.0098814 2.0464659 234 88 12
-0.10005393 1.0096351 2.045301 234 88 12
-0.11817548 1.0090368 2.0424714 234 88 12
-0.13623627 1.0081484 2.0382695 234 88 12
-0.15406728 1.0059687 2.0279598 234 88 12
-0.17173733 1.0033076 2.0153737 234 88 12
-0.18978523 1.0031505 2.0146308 234 88 12
-0.20787549 1.0032252 2.0149841 234 88 12
-0.22605419 1.0036806 2.017138 234 88 12
-0.24442101 1.0048419 2.0226307 234 88 12
-0.26318705 1.0073711 2.0345931 234 88 12
-0.28144962 1.0077711 2.0364852 234 88 12
-0.045634586 0.99483401 2.0616317 234 88 12
-0.063695729 0.99183351 2.0471797 234 88 12
-0.081858508 0.9913975 2.0450797 234 88 12
-0.10002238 0.99113077 2.0437951 234 88 12
-0.11817548 0.99085599 2.0424714 234 88 12
-0.13624816 0.99006993 2.0386853 234 88 12
-0.15416759 0.98848629 2.0310578 234 88 12
-0.17206529 0.98711139 2.0244355 234 88 12
-0.18992327 0.98579222 2.0180817 234 88 12
-0.20806473 0.98604596 2.0193038 234 88 12
-0.22628997 0.9866243 2.0220895 234 88 12
-0.24449013 0.98701572 2.0239749 234 88 12
-0.26312396 0.98898315 2.0334511 234 88 12
-0.28127044 0.98898315 2.0334511 234 88 12
-0.29961151 0.98962587 2.0365467 234 88 12
-0.31842136 0.99165511 2.0463204 234 88 12
-0.063700132 0.97370195 2.0475097 234 88 12
-0.081869759 0.97334045 2.0457358 234 88 12
-0.10003096 0.97302842 2.0442047 234 88 12
-0.11817548 0.97267514 2.0424714 234 88 12
-0.1362875 0.97218418 2.0400624 234 88 12
-0.15418425 0.9704538 2.0315723 234 88 12
-0.17231317 0.97039521 2.0312848 234 88 12
-0.19009529 0.96858078 2.0223823 234 88 12
-0.20816888 0.96843779 2.0216808 234 88 12
-0.22630392 0.96858078 2.0223823 234 88 12
-0.24471237 0.96978605 2.028296 234 88 12
-0.26303026 0.97049099 2.031755 234 88 12
-0.28110141 0.97025323 2.0305882 234 88 12
-0.29919958 0.97013199 2.0299935 234 88 12
-0.31737021 0.97024602 2.0305529 234 88 12
-0.063882194 0.95823288 2.0611644 234 88 12
-0.081898883 0.95548695 2.0474348 234 88 12
-0.10007433 0.95525491 2.0462747 234 88 12
-0.11820826 0.954759 2.0437951 234 88 12
-0.136314 0.95419806 2.0409904 234 88 12
-0.1542439 0.95268285 2.0334144 234 88 12
-0.17231706 0.95227849 2.0313926 234 88 12
-0.19009529 0.95047647 2.0223823 234 88 12
-0.20816888 0.95033616 2.0216808 234 88 12
-0.22630392 0.95047647 2.0223823 234 88 12
-0.24471237 0.9516592 2.028296 234 88 12
-0.26298603 0.95219076 2.0309539 234 88 12
-0.28105226 0.95195121 2.0297561 234 88 12
-0.29916608 0.95189208 2.0294604 234 88 12
-0.3173022 0.95190656 2.0295329 234 88 12
-0.33568269 0.95261306 2.0330653 234 88 12
-0.1545787 0.9365651 2.0437541 234 88 12
-0.17256881 0.93550462 2.0383487 234 88 12
-0.19021961 0.93298191 2.0254903 234 88 12
-0.20824587 0.93257934 2.0234385 234 88 12
-0.22639951 0.93276602 2.0243897 234 88 12
-0.24493739 0.93439078 2.0326715 234 88 12
-0.26300058 0.93410546 2.0312171 234 88 12
-0.28105685 0.93383408 2.0298338 234 88 12
-0.29916608 0.93376082 2.0294604 234 88 12
-0.3173022 0.93377501 2.0295329 234 88 12
-0.33569905 0.93451363 2.0332975 234 88 12
-0.24536213 0.91783613 2.0409303 234 88 12
-0.2631565 0.91651052 2.03404 234 88 12
-0.28114891 0.91600126 2.0313926 234 88 12
-0.29922771 0.91581815 2.0304408 234 88 12
-0.31744412 0.916053 2.0316615 234 88 12
-0.055627197 0.99579674 2.0792243 234 88 12
-0.070345126 0.96109831 2.0662894 234 88 12
-0.068505153 0.97759318 2.0632174 234 88 12
-0.067793906 0.99483597 2.0633225 234 88 12
-0.068356216 1.0129665 2.0670178 234 88 12
-0.083628796 0.96094435 2.0536175 234 88 12
-0.082528003 0.97792548 2.0526366 234 88 12
-0.081779636 0.99513787 2.0526366 234 88 12
-0.08150012 1.0126739 2.0539434 234 88 12
-0.083587609 1.0318813 2.0618505 234 88 12
-0.098002985 0.96151334 2.0440209 234 88 12
-0.0968998 0.97849381 2.0430446 234 88 12
-0.096151479 0.99570519 2.0430446 234 88 12
-0.095898598 1.0132556 2.0444098 234 88 12
-0.099255167 1.0333279 2.0557256 234 88 12
-0.11914737 0.94868666 2.0508041 234 88 12
-0.11289395 0.96241671 2.035836 234 88 12
-0.11169242 0.97933936 2.0346036 234 88 12
-0.11097159 0.99657279 2.0346787 234 88 12
-0.11101673 1.0143265 2.0368409 234 88 12
-0.11357713 1.0338326 2.0458605 234 88 12
-0.13432457 0.94973141 2.0431957 234 88 12
-0.13175121 0.9658525 2.038295 234 88 12
-0.13029125 0.98265791 2.0363863 234 88 12
-0.12906009 0.9995991 2.0350916 234 88 12
-0.12873095 1.0171365 2.036226 234 88 12
-0.12925224 1.0352647 2.0396533 234 88 12
-0.15849413 0.93852347 2.0574503 234 88 12
-0.15055521 0.95142603 2.0383494 234 88 12
-0.14741336 0.96721482 2.0319924 234 88 12
-0.14591217 0.9840101 2.0299966 234 88 12
-0.14523496 1.0013297 2.0301929 234 88 12
-0.14534187 1.0191739 2.0324783 234 88 12
-0.14755264 1.0384636 2.0403731 234 88 12
-0.17075516 0.93773466 2.0418575 234 88 12
-0.16682492 0.95312732 2.0335059 234 88 12
-0.1644889 0.96945429 2.0293415 234 88 12
-0.16337408 0.98652846 2.0283875 234 88 12
-0.1633068 1.0042765 2.0301914 234 88 12
-0.16305307 1.021916 2.0315058 234 88 12
-0.1635505 1.0400715 2.0348012 234 88 12
-0.1634547 1.0578488 2.0365353 234 88 12
-0.16362499 1.0758251 2.0389731 234 88 12
-0.19268788 0.92491531 2.0495753 234 88 12
-0.1867132 0.93919665 2.0360112 234 88 12
-0.18184362 0.95404404 2.0253093 234 88 12
-0.18062767 0.97108293 2.0241055 234 88 12
-0.18012229 0.98856294 2.0247505 234 88 12
-0.17850097 1.0053281 2.0224895 234 88 12
-0.17760226 1.0225486 2.0221095 234 88 12
-0.17714009 1.0400572 2.0228672 234 88 12
-0.17694442 1.0577526 2.0243208 234 88 12
-0.1765272 1.0753075 2.0251975 234 88 12
-0.17680386 1.0933549 2.0278864 234 88 12
-0.20534521 0.92438686 2.0350182 234 88 12
-0.20167398 0.94004929 2.0275228 234 88 12
-0.20005611 0.95689893 2.0253036 234 88 12
-0.19727355 0.97300935 2.0200846 234 88 12
-0.19531876 0.9895978 2.0169926 234 88 12
-0.19305003 1.0059597 2.0130889 234 88 12
-0.19215144 1.0231812 2.0127134 234 88 12
-0.19154567 1.0405931 2.0130925 234 88 12
-0.19150105 1.0583855 2.0149198 234 88 12
-0.19106668 1.0759268 2.0157428 234 88 12
-0.19066086 1.0934948 2.0166402 234 88 12
-0.22086388 0.92554343 2.0278471 234 88 12
-0.21642652 0.94077492 2.0184844 234 88 12
-0.21487576 0.95767087 2.0164602 234 88 12
-0.21442808 0.9752273 2.0172431 234 88 12
-0.21067645 0.99072689 2.0096099 234 88 12
-0.20863187 1.0072473 2.0063205 234 88 12
-0.20699528 1.024004 2.0040686 234 88 12
-0.20725074 1.0419834 2.0066409 234 88 12
-0.20639974 1.0592464 2.0063918 234 88 12
-0.2056464 1.0765736 2.0063918 234 88 12
-0.20549223 1.0943129 2.0079222 234 88 12
-0.24074642 0.92921329 2.0316055 234 88 12
-0.23196883 0.94196373 2.0114253 234 88 12
-0.23058234 0.95897162 2.0098374 234 88 12
-0.23016767 0.97655827 2.0106964 234 88 12
-0.23000149 0.99430603 2.0121822 234 88 12
-0.22470836 1.0088362 2.0007429 234 88 12
-0.22327532 1.0257436 1.9990301 234 88 12
-0.22385074 1.0439441 2.0023842 234 88 12
-0.22186473 1.0604783 1.9992746 234 88 12
-0.22110599 1.0778114 1.9992621 234 88 12
-0.26430708 0.91695815 2.0423384 234 88 12
-0.2576634 0.93113554 2.0277016 234 88 12
-0.25453293 0.94724184 2.0218003 234 88 12
-0.25294909 0.96421772 2.0197463 234 88 12
-0.25333449 0.98236656 2.0225985 234 88 12
-0.24741518 0.99666387 2.0097337 234 88 12
-0.24522977 1.013188 2.0061712 234 88 12
-0.24235626 1.0471143 2.0027752 234 88 12
-0.24036461 1.0636921 1.999689 234 88 12
-0.27928644 0.91772979 2.0333903 234 88 12
-0.27475455 0.93313694 2.0241091 234 88 12
-0.27278352 0.94994992 2.0211289 234 88 12
-0.27204528 0.96746457 2.0211849 234 88 12
-0.27165797 0.98519015 2.0221062 234 88 12
-0.27128342 1.0029311 2.0230598 234 88 12
-0.29536864 0.91911072 2.0271161 234 88 12
-0.29197866 0.93519247 2.0207164 234 88 12
-0.2903187 0.95221502 2.0185287 234 88 12
-0.29001018 0.97000962 2.019635 234 88 12
-0.28993461 0.98795205 2.0213106 234 88 12
-0.31233028 0.92096412 2.0228939 234 88 12
-0.30936381 0.9373166 2.0175846 234 88 12
-0.30815917 0.95462942 2.0165207 234 88 12
-0.30874211 0.97297066 2.0197701 234 88 12
-0.32714328 0.9396376 2.0152609 234 88 12
-0.32654795 0.95732725 2.015666 234 88 12
