ply
format ascii 1.0
element vertex 263
property float x
property float y
property float z
property uchar red
property uchar green
property uchar blue
end_header
-0.14973345 -1.0508492 1.9807017 234 88 12
-0.14388551 -1.053799 1.9786363 234 88 12
-0.15142785 -1.055729 1.9776037 234 88 12
-0.14381598 -1.0553981 1.9776037 234 88 12
-0.12845322 -1.0579342 1.9755383 234 88 12
-0.12655026 -1.0578514 1.9755383 234 88 12
-0.1701794 -1.0629525 1.973473 234 88 12
-0.17010987 -1.0645515 1.9724402 234 88 12
-0.15298319 -1.0638069 1.9724402 234 88 12
-0.14537133 -1.0634758 1.9724402 234 88 12
-0.13585652 -1.0630622 1.9724402 234 88 12
-0.1263417 -1.0626485 1.9724402 234 88 12
-0.1624285 -1.0658195 1.9714075 234 88 12
-0.15291367 -1.0654058 1.9714075 234 88 12
-0.14530182 -1.0650749 1.9714075 234 88 12
-0.135787 -1.0646613 1.9714075 234 88 12
-0.12627217 -1.0642475 1.9714075 234 88 12
-0.16969274 -1.0741456 1.9662441 234 88 12
-0.16208088 -1.0738146 1.9662441 234 88 12
-0.15446903 -1.0734837 1.9662441 234 88 12
-0.1449542 -1.07307 1.9662441 234 88 12
-0.13536987 -1.0742553 1.9652115 234 88 12
-0.12585504 -1.0738417 1.9652115 234 88 12
-0.16377528 -1.0786945 1.9631461 234 88 12
-0.16187231 -1.0786117 1.9631461 234 88 12
-0.15426046 -1.0782808 1.9631461 234 88 12
-0.14474563 -1.077867 1.9631461 234 88 12
-0.13523081 -1.0774534 1.9631461 234 88 12
-0.125716 -1.0770397 1.9631461 234 88 12
-0.15024596 -1.0829123 1.9600481 234 88 12
-0.14453706 -1.0826641 1.9600481 234 88 12
-0.13502225 -1.0822505 1.9600481 234 88 12
-0.14799538 -1.0908247 1.9548846 234 88 12
-0.14418946 -1.0906593 1.9548846 234 88 12
0.10243022 -1.9023993 1.1705462 234 88 12
0.085931115 -1.9083995 1.1639353 234 88 12
0.10103794 -1.9064037 1.1639353 234 88 12
0.099273607 -1.9075919 1.1622826 234 88 12
0.11060373 -1.906095 1.1622826 234 88 12
0.1200455 -1.9048476 1.1622826 234 88 12
0.082402445 -1.9107759 1.1606299 234 88 12
0.093856588 -1.9102178 1.158977 234 88 12
0.10153402 -1.9101586 1.1573243 234 88 12
0.10921145 -1.9100994 1.1556716 234 88 12
0.08289852 -1.9145309 1.1540189 234 88 12
0.092340291 -1.9132835 1.1540189 234 88 12
0.10178205 -1.9120361 1.1540189 234 88 12
0.10933547 -1.9110382 1.1540189 234 88 12
0.11877724 -1.9097908 1.1540189 234 88 12
0.12066559 -1.9095414 1.1540189 234 88 12
0.09107203 -1.9182266 1.1457552 234 88 12
0.10051379 -1.9169792 1.1457552 234 88 12
0.10995556 -1.9157318 1.1457552 234 88 12
0.11939733 -1.9144845 1.1457552 234 88 12
0.096985124 -1.9193556 1.1424497 234 88 12
0.10076183 -1.9188566 1.1424497 234 88 12
0.11045164 -1.9194868 1.1391443 234 88 12
0.097481199 -1.9231106 1.1358389 234 88 12
0.10125791 -1.9226116 1.1358389 234 88 12
1.0176899 -0.97957361 1.734383 234 88 12
1.0190465 -0.9782365 1.734383 234 88 12
1.0060635 -0.99491203 1.7317597 234 88 12
1.0182725 -0.98287803 1.7317597 234 88 12
1.0097462 -0.99322146 1.7304479 234 88 12
1.019242 -0.98386163 1.7304479 234 88 12
1.0062591 -1.0005372 1.7278246 234 88 12
1.0072286 -1.0015209 1.7265129 234 88 12
1.0085852 -1.0001837 1.7265129 234 88 12
1.0099417 -0.99884665 1.7265129 234 88 12
1.0180811 -0.99082392 1.7265129 234 88 12
1.0194376 -0.98948681 1.7265129 234 88 12
1.0275769 -0.98146415 1.7265129 234 88 12
1.0095547 -1.0011674 1.7252011 234 88 12
1.0190506 -0.99180758 1.7252011 234 88 12
1.0285465 -0.98244774 1.7252011 234 88 12
1.0376554 -0.97540873 1.7238895 234 88 12
1.0144025 -1.0060856 1.7186427 234 88 12
1.0184722 -1.0020742 1.7186427 234 88 12
1.0211853 -0.99940002 1.7186427 234 88 12
1.027968 -0.99271446 1.7186427 234 88 12
1.0306811 -0.99004024 1.7186427 234 88 12
1.0374639 -0.98335463 1.7186427 234 88 12
1.0388205 -0.98201752 1.7186427 234 88 12
1.0277766 -1.0006604 1.713396 234 88 12
1.0372725 -0.99130058 1.713396 234 88 12
1.025259 -1.0089598 1.7094609 234 88 12
1.0279721 -1.0062855 1.7094609 234 88 12
1.0347549 -0.99959999 1.7094609 234 88 12
1.0262285 -1.0099435 1.7081492 234 88 12
1.0285547 -1.0095899 1.7068375 234 88 12
1.7936523 -0.094091579 1.3388163 234 88 12
1.7942722 -0.090332836 1.3388163 234 88 12
1.7984469 -0.071716413 1.3372539 234 88 12
1.7951823 -0.098204918 1.3356916 234 88 12
1.7964222 -0.090687431 1.3356916 234 88 12
1.7992119 -0.073773086 1.3356916 234 88 12
1.7995218 -0.071893714 1.3356916 234 88 12
1.8005968 -0.072071008 1.3341291 234 88 12
1.7970223 -0.10043889 1.3325667 234 88 12
1.8007419 -0.077886425 1.3325667 234 88 12
1.800577 -0.085581206 1.3310044 234 88 12
1.8007221 -0.091396622 1.3294419 234 88 12
1.8010123 -0.10302745 1.3263172 234 88 12
1.8016323 -0.099268705 1.3263172 234 88 12
1.803182 -0.089871846 1.3263172 234 88 12
1.8047318 -0.080474988 1.3263172 234 88 12
1.8062817 -0.071078122 1.3263172 234 88 12
1.8096715 -0.06391523 1.3231924 234 88 12
1.8110565 -0.06221316 1.3216299 234 88 12
1.8096517 -0.077425435 1.3200675 234 88 12
1.8076271 -0.096396446 1.3185052 234 88 12
1.808557 -0.090758331 1.3185052 234 88 12
1.8097968 -0.083240844 1.3185052 234 88 12
1.8101068 -0.081361473 1.3185052 234 88 12
1.8116566 -0.071964614 1.3185052 234 88 12
1.8132064 -0.062567756 1.3185052 234 88 12
1.8096319 -0.090935633 1.3169427 234 88 12
1.8113071 -0.10086438 1.3122555 234 88 12
1.8131471 -0.10309835 1.3091308 234 88 12
1.813767 -0.099339604 1.3091308 234 88 12
1.8153168 -0.089942746 1.3091308 234 88 12
1.8168666 -0.080545887 1.3091308 234 88 12
-0.32894859 -2.2159855 0.025381276 234 88 12
-0.32704669 -2.2160902 0.025381276 234 88 12
-0.34797969 -2.215162 0.019671366 234 88 12
-0.34988567 -2.2151318 0.017768061 234 88 12
-0.34418002 -2.2154458 0.017768061 234 88 12
-0.33086684 -2.2161784 0.017768061 234 88 12
-0.32706308 -2.2163877 0.017768061 234 88 12
-0.30995023 -2.2174044 0.015864758 234 88 12
-0.30804834 -2.217509 0.015864758 234 88 12
-0.35180804 -2.215399 0.0082515422 234 88 12
-0.34420049 -2.2158177 0.0082515422 234 88 12
-0.33469108 -2.216341 0.0082515422 234 88 12
-0.32708356 -2.2167599 0.0082515422 234 88 12
-0.31757414 -2.2172832 0.0082515422 234 88 12
-0.30806473 -2.2178066 0.0082515422 234 88 12
-0.34612286 -2.216085 -0.0012649772 234 88 12
-0.34422097 -2.2161896 -0.0012649772 234 88 12
-0.33471155 -2.2167132 -0.0012649772 234 88 12
-0.32710403 -2.2171319 -0.0012649772 234 88 12
-0.31759462 -2.2176552 -0.0012649772 234 88 12
-0.33853582 -2.2168758 -0.010781496 234 88 12
-0.33473203 -2.2170851 -0.010781496 234 88 12
-0.32712451 -2.2175038 -0.010781496 234 88 12
-0.33855218 -2.2171733 -0.01839471 234 88 12
-0.33474842 -2.2173827 -0.01839471 234 88 12
1.2695959 -1.6921698 0.70587337 234 88 12
1.2711179 -1.6910245 0.70587337 234 88 12
1.2745119 -1.6891993 0.70405972 234 88 12
1.2565972 -1.7034066 0.70224601 234 88 12
1.2557749 -1.7054819 0.69861871 234 88 12
1.2679514 -1.6963204 0.69861871 234 88 12
1.2740396 -1.6917397 0.69861871 234 88 12
1.2755617 -1.6905946 0.69861871 234 88 12
1.2546028 -1.7070922 0.69680506 234 88 12
1.2640851 -1.7006861 0.69499135 234 88 12
1.2823498 -1.6869439 0.69499135 234 88 12
1.2560024 -1.7089524 0.6895504 234 88 12
1.2651348 -1.7020813 0.6895504 234 88 12
1.2681789 -1.699791 0.6895504 234 88 12
1.2742672 -1.6952102 0.6895504 234 88 12
1.2803555 -1.6906295 0.6895504 234 88 12
1.2833996 -1.6883391 0.6895504 234 88 12
1.2653624 -1.7055519 0.68048203 234 88 12
1.2729726 -1.699826 0.68048203 234 88 12
1.2744946 -1.6986808 0.68048203 234 88 12
1.283627 -1.6918097 0.68048203 234 88 12
1.2736725 -1.7007562 0.67685473 234 88 12
1.2655898 -1.7090225 0.67141372 234 88 12
1.2732002 -1.7032965 0.67141372 234 88 12
0.83710504 -2.0221658 -0.44552779 234 88 12
0.83524835 -2.022681 -0.44741014 234 88 12
0.83698559 -2.0218999 -0.44741014 234 88 12
0.81937408 -2.0291791 -0.45117483 234 88 12
0.82284862 -2.027617 -0.45117483 234 88 12
0.8175174 -2.0296946 -0.4530572 234 88 12
0.81739795 -2.029429 -0.45493954 234 88 12
0.81913519 -2.0286479 -0.45493954 234 88 12
0.82260972 -2.0270858 -0.45493954 234 88 12
0.82955873 -2.0239615 -0.45493954 234 88 12
0.83824503 -2.0200562 -0.45493954 234 88 12
0.84171951 -2.0184941 -0.45493954 234 88 12
0.85040581 -2.0145886 -0.45493954 234 88 12
0.81680065 -2.0281005 -0.4643513 234 88 12
0.81853789 -2.0273194 -0.4643513 234 88 12
0.82896143 -2.0226331 -0.4643513 234 88 12
0.83764774 -2.0187275 -0.4643513 234 88 12
0.84633404 -2.0148222 -0.4643513 234 88 12
0.818299 -2.026788 -0.46811602 234 88 12
0.8355521 -2.0187116 -0.46999836 234 88 12
0.82315242 -2.0236475 -0.47376308 234 88 12
0.82836419 -2.0213044 -0.47376308 234 88 12
0.8353132 -2.0181801 -0.47376308 234 88 12
0.83705044 -2.0173991 -0.47376308 234 88 12
0.82255512 -2.0223191 -0.48317483 234 88 12
0.8277669 -2.0199759 -0.48317483 234 88 12
0.83124143 -2.0184138 -0.48317483 234 88 12
2.070179 -0.77933174 0.3156454 234 88 12
2.0626342 -0.79682374 0.31376305 234 88 12
2.0644619 -0.79346871 0.31188071 234 88 12
2.0691483 -0.78304517 0.31188071 234 88 12
2.0616035 -0.80053717 0.30999836 234 88 12
2.0618691 -0.80065668 0.30811599 234 88 12
2.0626502 -0.79891938 0.30811599 234 88 12
2.0642123 -0.79544491 0.30811599 234 88 12
2.0681176 -0.7867586 0.30811599 234 88 12
2.0704608 -0.78154683 0.30811599 234 88 12
2.0738509 -0.77471727 0.30623364 234 88 12
2.0764596 -0.76962495 0.3043513 234 88 12
2.0631976 -0.80125391 0.29870424 234 88 12
2.0639787 -0.79951668 0.29870424 234 88 12
2.0647597 -0.79777944 0.29870424 234 88 12
2.067884 -0.79083037 0.29870424 234 88 12
2.0725703 -0.78040683 0.29870424 234 88 12
2.0733514 -0.7786696 0.29870424 234 88 12
2.0764756 -0.77172059 0.29870424 234 88 12
2.0676503 -0.79490221 0.28929245 234 88 12
2.0699935 -0.78969043 0.28929245 234 88 12
2.0738988 -0.78100413 0.28929245 234 88 12
2.0778041 -0.77231783 0.28929245 234 88 12
2.0733836 -0.78286082 0.28741011 234 88 12
2.0679321 -0.79711723 0.28176305 234 88 12
2.0710564 -0.79016823 0.28176305 234 88 12
2.0733995 -0.78495646 0.28176305 234 88 12
1.7079623 -1.1837468 -0.82738894 234 88 12
1.7102526 -1.1807028 -0.82738894 234 88 12
1.7063521 -1.184919 -0.82920259 234 88 12
1.7086425 -1.1818749 -0.82920259 234 88 12
1.7097876 -1.1803528 -0.82920259 234 88 12
1.6955804 -1.1982677 -0.83101624 234 88 12
1.6923598 -1.2006119 -0.8346436 234 88 12
1.6987659 -1.1911297 -0.83645725 234 88 12
1.7136532 -1.1713428 -0.83645725 234 88 12
1.6914296 -1.1999121 -0.8382709 234 88 12
1.6983007 -1.1907797 -0.8382709 234 88 12
1.7005911 -1.1877356 -0.8382709 234 88 12
1.7051718 -1.1816474 -0.8382709 234 88 12
1.7097526 -1.1755592 -0.8382709 234 88 12
1.7120429 -1.172515 -0.8382709 234 88 12
1.6898195 -1.2010843 -0.84008461 234 88 12
1.6909646 -1.1995622 -0.84008461 234 88 12
1.7095026 -1.1729873 -0.84371191 234 88 12
1.6902494 -1.1966405 -0.84733927 234 88 12
1.6913947 -1.1951184 -0.84733927 234 88 12
1.6948302 -1.1905522 -0.84733927 234 88 12
1.7005562 -1.1829419 -0.84733927 234 88 12
1.7017013 -1.1814198 -0.84733927 234 88 12
1.7085724 -1.1722875 -0.84733927 234 88 12
1.7097176 -1.1707654 -0.84733927 234 88 12
1.6991609 -1.1818922 -0.85278028 234 88 12
1.6925049 -1.1888026 -0.85640758 234 88 12
1.6982307 -1.1811923 -0.85640758 234 88 12
1.7005211 -1.1781482 -0.85640758 234 88 12
1.7051018 -1.1720599 -0.85640758 234 88 12
1.6911097 -1.1877528 -0.86184859 234 88 12
1.6901795 -1.1870531 -0.86547589 234 88 12
1.6924698 -1.184009 -0.86547589 234 88 12
1.6959054 -1.1794428 -0.86547589 234 88 12
1.8416522 0.0016609181 -1.2994592 234 88 12
1.8407134 0.0017849368 -1.3011119 234 88 12
1.836709 0.00039265788 -1.3077229 234 88 12
1.835081 0.0025290488 -1.3110284 234 88 12
