ply
format ascii 1.0
element vertex 436
property float x
property float y
property float z
property uchar red
property uchar green
property uchar blue
end_header
-0.0061734938 0.0061734938 2.4806857 234 88 12
-0.0028416365 0.0018387061 2.6422436 234 88 12
-0.0071232622 0.0052237255 2.4806857 234 88 12
-0.011496225 0.014050943 2.0593867 234 88 12
-0.0054692701 0.008594567 2.3198047 234 88 12
-0.0022177694 0.0048790923 2.4971342 234 88 12
-0.0012773584 0.014050943 2.0593867 234 88 12
0.0001671551 0.0018387061 2.6422436 234 88 12
-0.008594567 0.007031919 2.3198047 234 88 12
0.00044355387 0.0039919848 2.4971342 234 88 12
0.0038320753 0.011496225 2.0593867 234 88 12
0.0063867923 0.011496225 2.0593867 234 88 12
-0.011433936 0.0088930614 2.0630205 234 88 12
-0.0092978003 0.013016921 1.753731 234 88 12
-0.00557868 0.013016921 1.753731 234 88 12
0.00185956 0.013016921 1.753731 234 88 12
0.013974811 0.0088930614 2.0630205 234 88 12
0.01905656 0.0088930614 2.0630205 234 88 12
0.026679184 0.0088930614 2.0630205 234 88 12
0.031760935 0.0088930614 2.0630205 234 88 12
0.026346853 0.0063595851 2.253031 234 88 12
-0.007540416 0.0022177694 2.4971342 234 88 12
-0.0278934 0.0092978003 1.753731 234 88 12
-0.02417428 0.0092978003 1.753731 234 88 12
-0.01673604 0.0092978003 1.753731 234 88 12
-0.0092978003 0.0092978003 1.753731 234 88 12
-0.00557868 0.0092978003 1.753731 234 88 12
0.00185956 0.0092978003 1.753731 234 88 12
0.007572596 0.007572596 1.9348774 234 88 12
0.01673604 0.0092978003 1.753731 234 88 12
0.016187815 0.0073580979 1.9573997 234 88 12
0.020150861 0.0077503314 1.9162152 234 88 12
0.020928591 0.0069761975 1.9974992 234 88 12
0.024215365 0.0071221665 1.9821725 234 88 12
0.03533164 0.0092978003 1.753731 234 88 12
0.039383557 0.0063521867 2.0630205 234 88 12
0.031797927 0.0045425608 2.253031 234 88 12
-0.024138309 0.0038113121 2.0630205 234 88 12
-0.031612519 0.00557868 1.753731 234 88 12
-0.0278934 0.00557868 1.753731 234 88 12
-0.02417428 0.00557868 1.753731 234 88 12
-0.01673604 0.00557868 1.753731 234 88 12
-0.0065864804 0.0028227775 2.2360139 234 88 12
-0.0070479545 0.0042287726 1.9899647 234 88 12
-0.0043798136 0.0043798136 1.9635326 234 88 12
0.0013823475 0.0041470425 2.0042675 234 88 12
0.004287662 0.004287662 1.9796592 234 88 12
0.0072248429 0.0043349057 1.9713914 234 88 12
0.0097097615 0.0041613267 2.0017679 234 88 12
0.0090209106 0.0030069703 2.2037802 234 88 12
0.015155247 0.0041332492 2.0066814 234 88 12
0.018159272 0.0041906014 1.9966447 234 88 12
0.020953007 0.0041906014 1.9966447 234 88 12
0.023857024 0.0042100633 1.9932389 234 88 12
0.02157037 0.0034058478 2.1339767 234 88 12
0.026679184 0.0038113121 2.0630205 234 88 12
0.031760935 0.0038113121 2.0630205 234 88 12
0.039383557 0.0038113121 2.0630205 234 88 12
-0.026824526 0.0012773584 2.0593867 234 88 12
-0.010024955 0.001113884 2.145211 234 88 12
-0.0063848319 0.0012769664 2.0595927 234 88 12
-0.0041377838 0.0013792613 2.0058877 234 88 12
0.001436334 0.001436334 1.9759246 234 88 12
0.0070618545 0.0014123709 1.9885052 234 88 12
0.012528704 0.0013920781 1.999159 234 88 12
0.015406287 0.0014005715 1.9947 234 88 12
0.02770504 0.00145816 1.964466 234 88 12
0.039050762 0.00185956 1.753731 234 88 12
0.029980902 0.00090851216 2.253031 234 88 12
-0.0055161184 -0.0001671551 2.6422436 234 88 12
-0.010922335 -0.00047488415 2.4806857 234 88 12
-0.03533164 -0.00185956 1.753731 234 88 12
-0.0278934 -0.00185956 1.753731 234 88 12
-0.02417428 -0.00185956 1.753731 234 88 12
-0.011285756 -0.0010259778 2.1913617 234 88 12
-0.011010374 -0.0012233749 2.0877283 234 88 12
-0.0079229502 -0.0011318501 2.1357787 234 88 12
-0.0067585418 -0.0013517083 2.0203531 234 88 12
-0.0038993924 -0.0012997974 2.0476062 234 88 12
-0.0013792613 -0.0013792613 2.0058877 234 88 12
0.0012769664 -0.0012769664 2.0595927 234 88 12
0.00431481 -0.00143827 1.9749082 234 88 12
0.0072029904 -0.001440598 1.973686 234 88 12
0.0097445473 -0.0013920781 1.999159 234 88 12
0.015406287 -0.0014005715 1.9947 234 88 12
0.018077234 -0.0013905565 1.9999578 234 88 12
0.021008573 -0.0014005715 1.9947 234 88 12
0.024100563 -0.0014176802 1.9857179 234 88 12
0.028067807 -0.0014772529 1.9544421 234 88 12
0.039050762 -0.00185956 1.753731 234 88 12
0.031760935 -0.0012704374 2.0630205 234 88 12
0.028163876 -0.00090851216 2.253031 234 88 12
0.031797927 -0.00090851216 2.253031 234 88 12
-0.017261731 -0.0027255365 2.253031 234 88 12
-0.011025557 -0.0030069703 2.2037802 234 88 12
-0.0092892246 -0.0039810962 2.033308 234 88 12
-0.0063848319 -0.0038308993 2.0595927 234 88 12
-0.0042983019 -0.0042983019 1.9777972 234 88 12
-0.0013526159 -0.0040578479 2.0198767 234 88 12
0.0014051491 -0.0042154472 1.9922967 234 88 12
0.0068960432 -0.0041376259 2.0059154 234 88 12
0.013017243 -0.0043390808 1.9706608 234 88 12
0.021410543 -0.0037783312 2.0687921 234 88 12
0.03533164 -0.00557868 1.753731 234 88 12
0.02922006 -0.0038113121 2.0630205 234 88 12
0.024529828 -0.0027255365 2.253031 234 88 12
-0.007540416 -0.0022177694 2.4971342 234 88 12
-0.0278934 -0.0092978003 1.753731 234 88 12
-0.02417428 -0.0092978003 1.753731 234 88 12
-0.014280579 -0.0079336548 1.8969662 234 88 12
-0.0050116172 -0.0050116172 2.2037802 234 88 12
-0.0045900717 -0.0076501193 1.9267374 234 88 12
0.0013937482 -0.0069687413 1.9982822 234 88 12
0.0044341274 -0.0073902123 1.9540277 234 88 12
0.0073902123 -0.0073902123 1.9540277 234 88 12
0.015343902 -0.0085243899 1.834939 234 88 12
0.015562844 -0.0070740199 1.9872279 234 88 12
0.024330975 -0.0081103249 1.8784158 234 88 12
0.031612519 -0.0092978003 1.753731 234 88 12
-0.0057662004 -0.003104877 2.4971342 234 88 12
-0.020455159 -0.013016921 1.753731 234 88 12
-0.01673604 -0.013016921 1.753731 234 88 12
-0.0092978003 -0.013016921 1.753731 234 88 12
-0.00557868 -0.013016921 1.753731 234 88 12
0.00185956 -0.013016921 1.753731 234 88 12
0.0053272927 -0.012430349 1.7977238 234 88 12
0.0078640338 -0.011009648 1.9042765 234 88 12
0.012277216 -0.012277216 1.8092089 234 88 12
0.01673604 -0.013016921 1.753731 234 88 12
0.020455159 -0.013016921 1.753731 234 88 12
0.0278934 -0.013016921 1.753731 234 88 12
0.026447635 -0.010890203 1.9132348 234 88 12
0.017261731 -0.0063595851 2.253031 234 88 12
0.019078756 -0.0063595851 2.253031 234 88 12
0.038754568 -0.01004748 1.976439 234 88 12
-0.019160377 -0.011496225 2.0593867 234 88 12
-0.010157216 -0.007031919 2.3198047 234 88 12
-0.0023439729 -0.007031919 2.3198047 234 88 12
0.00078132428 -0.007031919 2.3198047 234 88 12
0.0038320753 -0.011496225 2.0593867 234 88 12
0.0063867923 -0.011496225 2.0593867 234 88 12
0.0099172313 -0.012750726 1.9862076 234 88 12
0.0015043959 -0.0015043959 2.6422436 234 88 12
0.012626136 -0.010330474 2.127389 234 88 12
-0.01660566 -0.014050943 2.0593867 234 88 12
-0.0010071056 -0.011078162 2.2012696 234 88 12
-0.0061734938 -0.0061734938 2.4806857 234 88 12
-0.011496225 -0.01660566 2.0593867 234 88 12
-0.0030213168 -0.013092373 2.2012696 234 88 12
-1.413103 0.065986112 1.7685554 234 88 12
-1.4132608 0.062355492 1.7685554 234 88 12
-1.4145494 0.067867741 1.7675704 234 88 12
-1.4147862 0.062421814 1.7675704 234 88 12
1.244617 0.1525086 2.326004 234 88 12
1.1770247 0.14556605 1.5791214 234 88 12
1.2465441 0.15139726 2.3250751 234 88 12
1.2309481 0.15018871 2.1509607 234 88 12
1.2307173 0.15207417 2.1509607 234 88 12
1.2320144 0.14840552 2.1505208 234 88 12
1.231553 0.15217644 2.1505208 234 88 12
1.1755818 0.13874209 1.4527211 234 88 12
1.1950909 0.14499134 1.6945508 234 88 12
1.1674118 0.14476378 1.3640599 234 88 12
1.16696 0.14845535 1.3640599 234 88 12
1.1665081 0.15214692 1.3640599 234 88 12
1.1789929 0.13572742 1.4511436 234 88 12
1.1711355 0.14147268 1.3623376 234 88 12
1.1702319 0.14885584 1.3623376 234 88 12
1.16978 0.1525474 1.3623376 234 88 12
1.1960969 0.1554096 1.6933677 234 88 12
1.2359686 0.1481536 2.1670444 234 88 12
1.2002066 0.14046994 1.6921847 234 88 12
1.2481763 0.15230839 2.3315675 234 88 12
1.1744075 0.14187317 1.3606154 234 88 12
1.2027645 0.13820925 1.6910017 234 88 12
1.2137309 0.14351076 1.8478914 234 88 12
1.1781312 0.13858208 1.3588932 234 88 12
1.1772276 0.14596522 1.3588932 234 88 12
1.1763239 0.15334836 1.3588932 234 88 12
1.2118219 0.15745769 1.8451635 234 88 12
1.2366538 0.14514595 2.1483219 234 88 12
1.237745 0.14658357 2.1662228 234 88 12
1.1814032 0.13898255 1.3571709 234 88 12
1.1804994 0.1463657 1.3571709 234 88 12
1.1795958 0.15374884 1.3571709 234 88 12
1.2025291 0.15877068 1.6898186 234 88 12
1.2350384 0.15834421 2.1483219 234 88 12
1.2078804 0.13368785 1.6886357 234 88 12
1.2094059 0.13942862 1.7216202 234 88 12
1.1851269 0.13569146 1.3554487 234 88 12
1.1837714 0.14676617 1.3554487 234 88 12
1.1828676 0.15414931 1.3554487 234 88 12
1.1824158 0.15784089 1.3554487 234 88 12
1.2070349 0.1587996 1.7216202 234 88 12
1.2151213 0.15989077 1.8432981 234 88 12
1.2198298 0.13611618 1.8423653 234 88 12
1.2272962 0.14313574 1.9717864 234 88 12
1.2192653 0.14216854 1.8451066 234 88 12
1.1883988 0.13609195 1.3537265 234 88 12
1.187947 0.13978352 1.3537265 234 88 12
1.1870433 0.14716665 1.3537265 234 88 12
1.2067137 0.16185667 1.6874527 234 88 12
1.2380127 0.15734106 2.165401 234 88 12
1.2392759 0.14451003 2.1470022 234 88 12
1.2126858 0.13170224 1.6862696 234 88 12
1.2139945 0.13753261 1.7193609 234 88 12
1.1894115 0.15495028 1.3520043 234 88 12
1.1889597 0.15864184 1.3520043 234 88 12
1.237545 0.15865102 2.1470022 234 88 12
1.2401115 0.1446123 2.1465626 234 88 12
1.2149333 0.13197735 1.6850866 234 88 12
1.1953945 0.13320133 1.3502821 234 88 12
1.1944908 0.14058447 1.3502821 234 88 12
1.1935871 0.14796761 1.3502821 234 88 12
1.1931353 0.15165919 1.3502821 234 88 12
1.1922315 0.15904233 1.3502821 234 88 12
1.2281471 0.15898301 1.9703391 234 88 12
1.2383807 0.15875329 2.1465626 234 88 12
1.2316103 0.14208947 1.9696155 234 88 12
1.2182868 0.13805798 1.7171017 234 88 12
1.2155327 0.14750037 1.6878901 234 88 12
1.2149153 0.15254448 1.6878901 234 88 12
1.1959553 0.15575123 1.3485599 234 88 12
1.1955035 0.1594428 1.3485599 234 88 12
1.2295219 0.15915129 1.9696155 234 88 12
1.2269179 0.13698375 1.8386344 234 88 12
1.2265632 0.1410422 1.8413934 234 88 12
1.2019383 0.1340023 1.3468376 234 88 12
1.2141798 0.14436778 1.6089957 234 88 12
1.2157038 0.16295704 1.6827205 234 88 12
1.2213655 0.13533843 1.6815375 234 88 12
1.2122388 0.14040941 1.5056527 234 88 12
1.220312 0.14552553 1.6855369 234 88 12
1.2193859 0.15309168 1.6855369 234 88 12
1.2020473 0.16024376 1.3451153 234 88 12
1.2089339 0.13111168 1.3433931 234 88 12
1.2154062 0.13761002 1.5041877 234 88 12
1.2137723 0.14034697 1.4754491 234 88 12
1.2053192 0.16064425 1.3433931 234 88 12
1.2048674 0.16433582 1.3433931 234 88 12
1.2201989 0.16350724 1.6803545 234 88 12
1.2426952 0.15791421 2.1629362 234 88 12
1.251037 0.15127356 2.3227532 234 88 12
1.2122059 0.13151217 1.3416709 234 88 12
1.2155854 0.13683912 1.4375538 234 88 12
1.2250913 0.14355068 1.6831836 234 88 12
1.2333419 0.14821427 1.8929906 234 88 12
1.2085911 0.16104472 1.3416709 234 88 12
1.2081393 0.16473629 1.3416709 234 88 12
1.2196144 0.13419141 1.4534491 234 88 12
1.2215725 0.13856252 1.5175384 234 88 12
1.234499 0.15201706 1.8921491 234 88 12
1.226092 0.1539125 1.682007 234 88 12
1.2250043 0.16152163 1.6779884 234 88 12
1.2508843 0.15495974 2.3225982 234 88 12
1.2218465 0.13413945 1.4310522 234 88 12
1.225808 0.13962005 1.5605569 234 88 12
1.215135 0.16184568 1.3382264 234 88 12
1.2326031 0.13671389 1.6756223 234 88 12
1.2295585 0.13750973 1.5853465 234 88 12
1.2321061 0.14184944 1.6796538 234 88 12
1.2383583 0.14699768 1.8904663 234 88 12
1.2376961 0.15240838 1.8904663 234 88 12
1.2257454 0.12942252 1.334782 234 88 12
1.2259867 0.13359468 1.3602453 234 88 12
1.232798 0.15473332 1.6784772 234 88 12
1.2216787 0.16264664 1.334782 234 88 12
0.14546195 1.2132902 1.8451635 234 88 12
0.14573309 1.2227923 1.9739572 234 88 12
0.14418201 1.222982 1.9739572 234 88 12
0.13567346 1.2030749 1.6910017 234 88 12
0.13060187 1.2036957 1.6910017 234 88 12
0.15024991 1.2481772 2.3243012 234 88 12
0.14102013 1.2047017 1.6898186 234 88 12
0.14703141 1.236423 2.1483219 234 88 12
0.14514595 1.2366538 2.1483219 234 88 12
0.12834117 1.2062535 1.6898186 234 88 12
0.12580538 1.2065639 1.6898186 234 88 12
0.14989433 1.2163448 1.8432981 234 88 12
0.14636682 1.2063284 1.6886357 234 88 12
0.14383103 1.2066388 1.6886357 234 88 12
0.14394248 1.2172582 1.8460349 234 88 12
0.14524822 1.2374895 2.147882 234 88 12
0.14430548 1.2376047 2.147882 234 88 12
0.10337972 1.1951202 1.4448333 234 88 12
0.15244219 1.2261571 1.9717864 234 88 12
0.14813794 1.2185347 1.8451066 234 88 12
0.13609195 1.1883988 1.3537265 234 88 12
0.13240038 1.1888506 1.3537265 234 88 12
0.12501724 1.1897544 1.3537265 234 88 12
0.12823996 1.2209702 1.8451066 234 88 12
0.15470774 1.2488256 2.3236818 234 88 12
0.16233341 1.1885078 1.3520043 234 88 12
0.15495028 1.1894115 1.3520043 234 88 12
0.15125871 1.1898633 1.3520043 234 88 12
0.14387557 1.190767 1.3520043 234 88 12
0.14863122 1.2398708 2.1649902 234 88 12
0.12172615 1.1934781 1.3520043 234 88 12
0.11803457 1.1939299 1.3520043 234 88 12
0.18119174 1.1895205 1.3502821 234 88 12
0.1738086 1.1904242 1.3502821 234 88 12
0.17011704 1.190876 1.3502821 234 88 12
0.1627339 1.1917797 1.3502821 234 88 12
0.15535076 1.1926835 1.3502821 234 88 12
0.14796761 1.1935871 1.3502821 234 88 12
0.14427604 1.194039 1.3502821 234 88 12
0.11843506 1.1972018 1.3502821 234 88 12
0.14272684 1.2403423 2.1465626 234 88 12
0.14677973 1.2500944 2.3235271 234 88 12
0.1963585 1.1909851 1.3485599 234 88 12
0.19266693 1.1914369 1.3485599 234 88 12
0.18897536 1.1918887 1.3485599 234 88 12
0.16727084 1.2245195 1.8963562 234 88 12
0.1636637 1.224961 1.8963562 234 88 12
0.15644945 1.225844 1.8963562 234 88 12
0.15523149 1.210113 1.6061374 234 88 12
0.15205966 1.1964072 1.3485599 234 88 12
0.1493289 1.2075251 1.5456388 234 88 12
0.14683336 1.2112285 1.6077386 234 88 12
0.14403507 1.2115711 1.6077386 234 88 12
0.11883553 1.2004738 1.3485599 234 88 12
0.11145239 1.2013775 1.3485599 234 88 12
0.21152526 1.1924496 1.3468376 234 88 12
0.19545953 1.2070282 1.5915698 234 88 12
0.17468075 1.225235 1.8955148 234 88 12
0.16927005 1.2258973 1.8955148 234 88 12
0.1693518 1.2026087 1.4438041 234 88 12
0.15273474 1.2130824 1.6075749 234 88 12
0.15123442 1.2281048 1.8955148 234 88 12
0.13769588 1.2119114 1.549135 234 88 12
0.13692696 1.2172935 1.6517442 234 88 12
0.1485109 1.2504796 2.3232176 234 88 12
0.21192575 1.1957215 1.3451153 234 88 12
0.18028711 1.2261713 1.8946733 234 88 12
0.17431499 1.2148994 1.6464816 234 88 12
0.17360681 1.2109548 1.5631237 234 88 12
0.16955449 1.214143 1.6187929 234 88 12
0.16694261 1.2140539 1.6103394 234 88 12
0.16399749 1.2150242 1.6229494 234 88 12
0.15951565 1.224337 1.8041728 234 88 12
0.15855326 1.215457 1.6181188 234 88 12
0.1557996 1.2157941 1.6181188 234 88 12
0.15301096 1.2136444 1.5666109 234 88 12
0.15016827 1.215026 1.5879843 234 88 12
0.14774223 1.2180847 1.6450905 234 88 12
0.1455456 1.2203979 1.6873648 234 88 12
0.14033023 1.211983 1.500162 234 88 12
0.1389135 1.2168748 1.597729 234 88 12
0.13550067 1.2159544 1.5700604 234 88 12
0.13707484 1.2245491 1.7517602 234 88 12
0.11963649 1.2070177 1.3451153 234 88 12
0.11225335 1.2079213 1.3451153 234 88 12
0.2160178 1.1985415 1.3433931 234 88 12
0.18228632 1.2275491 1.893832 234 88 12
0.17507207 1.2284321 1.893832 234 88 12
0.16994844 1.2286347 1.8844397 234 88 12
0.17354171 1.2191516 1.6843601 234 88 12
0.16849761 1.2197691 1.6843601 234 88 12
0.1634535 1.2203865 1.6843601 234 88 12
0.15588734 1.2213125 1.6843601 234 88 12
0.15084323 1.2219299 1.6843601 234 88 12
0.14434373 1.2165171 1.5470008 234 88 12
0.1401971 1.2217884 1.6523974 234 88 12
0.14496455 1.2372172 2.0066674 234 88 12
0.13725966 1.2264714 1.7480533 234 88 12
0.13352169 1.2245923 1.6963559 234 88 12
0.1455867 1.2442042 2.1629362 234 88 12
0.1163454 1.2107414 1.3433931 234 88 12
0.11265383 1.2111932 1.3433931 234 88 12
0.14125046 1.2439153 2.1448033 234 88 12
0.22010984 1.2013617 1.3416709 234 88 12
0.18428555 1.2289269 1.8929906 234 88 12
0.18138148 1.2204609 1.6831836 234 88 12
0.17483671 1.2196983 1.6459917 234 88 12
0.17343916 1.2176796 1.5939126 234 88 12
0.17005356 1.2192318 1.6209749 234 88 12
0.16689226 1.2206613 1.6457697 234 88 12
0.14466844 1.21917 1.5456043 234 88 12
0.13868205 1.2199028 1.5456043 234 88 12
0.13785091 1.224443 1.6511697 234 88 12
0.13607475 1.2261652 1.6869577 234 88 12
0.13274899 1.2253158 1.6570772 234 88 12
0.12954409 1.2248968 1.6377808 234 88 12
0.11674588 1.2140132 1.3416709 234 88 12
0.11305431 1.2144651 1.3416709 234 88 12
0.22420189 1.2041817 1.3399487 234 88 12
0.18922123 1.2217702 1.682007 234 88 12
0.18001261 1.2186571 1.5730108 234 88 12
0.17610265 1.2205569 1.6095439 234 88 12
0.16147865 1.2251658 1.682007 234 88 12
0.15643455 1.2257832 1.682007 234 88 12
0.15139045 1.2264006 1.682007 234 88 12
0.14824978 1.2230253 1.5853616 234 88 12
0.14525877 1.2228427 1.571256 234 88 12
0.1407681 1.2264534 1.6499418 234 88 12
0.14136569 1.2326375 1.8107859 234 88 12
0.15215172 1.2529248 2.3662159 234 88 12
0.12083793 1.2168334 1.3399487 234 88 12
0.22460237 1.2074536 1.3382264 234 88 12
0.18648043 1.2319032 1.8913077 234 88 12
0.18287331 1.2323446 1.8913077 234 88 12
0.1920169 1.2236968 1.6808304 234 88 12
0.18192868 1.2249316 1.6808304 234 88 12
0.18795492 1.2116349 1.3297185 234 88 12
0.17653582 1.2228268 1.6035326 234 88 12
0.18016896 1.2130871 1.3436742 234 88 12
0.16863367 1.2157762 1.3793814 234 88 12
0.16524111 1.2156782 1.365032 234 88 12
0.15141171 1.2252043 1.5840307 234 88 12
0.15075041 1.2383041 1.9479939 234 88 12
0.146264 1.2279474 1.6430999 234 88 12
0.14680202 1.2367598 1.8913077 234 88 12
0.12492998 1.2196534 1.3382264 234 88 12
0.19481255 1.2256235 1.6796538 234 88 12
0.1872464 1.2265495 1.6796538 234 88 12
0.18835856 1.2149326 1.3279827 234 88 12
0.17116399 1.2261448 1.6069596 234 88 12
0.17300153 1.2176627 1.3540351 234 88 12
0.16923173 1.2184284 1.3633524 234 88 12
0.16064 1.2251648 1.537482 234 88 12
0.15715271 1.2290155 1.6423579 234 88 12
0.15389362 1.2463559 2.161293 234 88 12
0.15117145 1.2197624 1.3365042 234 88 12
0.14543048 1.246796 2.143044 234 88 12
0.19508615 1.2278588 1.6784772 234 88 12
0.18752 1.2287849 1.6784772 234 88 12
0.18247589 1.2294023 1.6784772 234 88 12
0.17490974 1.2303284 1.6784772 234 88 12
0.16986562 1.2309458 1.6784772 234 88 12
0.16734357 1.2312545 1.6784772 234 88 12
0.16162185 1.2381908 1.8896248 234 88 12
0.16633821 1.2212269 1.334782 234 88 12
0.16264664 1.2216787 1.334782 234 88 12
0.1552635 1.2225825 1.334782 234 88 12
0.14418879 1.223938 1.334782 234 88 12
0.12942252 1.2257454 1.334782 234 88 12
