ply
format ascii 1.0
element vertex 1360
property float x
property float y
property float z
property uchar red
property uchar green
property uchar blue
end_header
5.1274548 -2.3669062 6.40277 234 88 12
5.0893025 -2.3821399 6.3924837 234 88 12
5.0700879 -2.4100685 6.40277 234 88 12
5.0539145 -2.4401908 6.4164786 234 88 12
5.044456 -2.475096 6.4376974 234 88 12
5.0245814 -2.5030024 6.447588 234 88 12
5.0247765 -2.545105 6.4798484 234 88 12
5.018539 -2.5830259 6.5052199 234 88 12
4.9986205 -2.6114662 6.5154929 234 88 12
4.9991236 -2.6547527 6.5488343 234 88 12
4.9754181 -2.6808133 6.5551147 234 88 12
4.9613748 -2.7140439 6.5724206 234 88 12
4.9430652 -2.7443171 6.5850172 234 88 12
4.9346318 -2.7821269 6.6090426 234 88 12
4.9228849 -2.8177226 6.6294737 234 88 12
4.9147253 -2.8562956 6.6542392 234 88 12
4.8985524 -2.8890083 6.6699262 234 88 12
4.8886352 -2.9267633 6.6930575 234 88 12
4.8864279 -2.9708345 6.725441 234 88 12
4.8745346 -3.0076504 6.7467194 234 88 12
4.8554335 -3.0389826 6.7596703 234 88 12
4.8314886 -3.0665777 6.7669845 234 88 12
4.8100858 -3.0963273 6.7774043 234 88 12
4.796361 -3.1324971 6.7971377 234 88 12
5.1109958 -2.4010296 6.3746724 234 88 12
5.0863366 -2.4253707 6.379065 234 88 12
5.0728874 -2.4574223 6.3957086 234 88 12
5.0543466 -2.4861538 6.4069257 234 88 12
5.038928 -2.5171876 6.4216728 234 88 12
5.0399179 -2.5599158 6.4546628 234 88 12
5.0381031 -2.6010404 6.4848347 234 88 12
5.0188389 -2.6300375 6.4958405 234 88 12
5.0058513 -2.6636941 6.5139656 234 88 12
4.9958258 -2.6997221 6.5355821 234 88 12
4.9745312 -2.7277231 6.5446725 234 88 12
4.9580259 -2.7593846 6.5592752 234 88 12
4.9411564 -2.7909479 6.573596 234 88 12
4.9326921 -2.8290322 6.5976639 234 88 12
4.9262757 -2.8689675 6.6243057 234 88 12
4.9062576 -2.8987634 6.6354871 234 88 12
4.8966312 -2.9367621 6.6588268 234 88 12
4.8933163 -2.9799898 6.6897378 234 88 12
4.8814421 -3.0168314 6.710916 234 88 12
4.8636708 -3.0492301 6.7253556 234 88 12
4.8480482 -3.0835383 6.7424712 234 88 12
4.8332567 -3.1187346 6.7607346 234 88 12
4.8063645 -3.1442392 6.7647347 234 88 12
5.1237597 -2.4550374 6.3780785 234 88 12
5.0989523 -2.4795208 6.3824663 234 88 12
5.0788484 -2.5073013 6.3920102 234 88 12
5.0795546 -2.5496883 6.4243779 234 88 12
5.0610242 -2.5789306 6.4359169 234 88 12
5.073236 -2.6301143 6.4814477 234 88 12
5.054142 -2.6594238 6.4927177 234 88 12
5.0330725 -2.6874394 6.5018907 234 88 12
5.0075965 -2.7123516 6.5062227 234 88 12
4.9882226 -2.7418039 6.5174417 234 88 12
4.9696317 -2.7719715 6.529644 234 88 12
4.9484 -2.800308 6.5389671 234 88 12
4.941937 -2.8399205 6.5651746 234 88 12
4.9361963 -2.8804018 6.5924468 234 88 12
4.9181166 -2.9117177 6.6058054 234 88 12
4.903821 -2.9461358 6.623651 234 88 12
4.9035144 -2.9917393 6.6578698 234 88 12
4.893208 -3.0298555 6.680768 234 88 12
4.8753896 -3.062259 6.6950951 234 88 12
4.8609118 -3.097532 6.7134819 234 88 12
4.8434072 -3.1305752 6.7284694 234 88 12
4.8183665 -3.1576245 6.7346601 234 88 12
5.2657785 -2.5980155 6.5205884 234 88 12
5.2362089 -2.6202633 6.5205884 234 88 12
5.2161317 -2.6491292 6.5309014 234 88 12
5.1706901 -2.6602705 6.5136271 234 88 12
5.1154094 -2.6642232 6.4854159 234 88 12
5.0829802 -2.6842141 6.4821115 234 88 12
5.0520658 -2.7052615 6.4804535 234 88 12
5.0292029 -2.7321632 6.4877238 234 88 12
5.0044413 -2.7577536 6.4929399 234 88 12
4.9756045 -2.7803795 6.4936366 234 88 12
4.958446 -2.811769 6.5074868 234 88 12
4.9630346 -2.8597786 6.5460577 234 88 12
4.9430275 -2.8894818 6.5570378 234 88 12
4.9405222 -2.932802 6.5880928 234 88 12
4.9284744 -2.9690862 6.6084938 234 88 12
4.9114337 -3.0017052 6.623332 234 88 12
4.9085822 -3.0457413 6.6547289 234 88 12
4.8844409 -3.0731621 6.6616673 234 88 12
4.8722367 -3.1102924 6.6826143 234 88 12
4.8552752 -3.1438162 6.6981754 234 88 12
4.8392491 -3.1783054 6.7149873 234 88 12
5.2535067 -2.6365595 6.4966464 234 88 12
5.2192492 -2.655602 6.491632 234 88 12
5.1896544 -2.6778688 6.491632 234 88 12
5.1380887 -2.6845236 6.4676909 234 88 12
5.0982337 -2.699291 6.4563551 234 88 12
5.0687814 -2.7214506 6.4563551 234 88 12
5.0394835 -2.7437229 6.4565258 234 88 12
5.0100303 -2.765883 6.4565258 234 88 12
4.9849253 -2.7912757 6.46137 234 88 12
4.9652319 -2.8207879 6.4723153 234 88 12
4.970849 -2.8695967 6.511817 234 88 12
4.9773355 -2.9195535 6.5526614 234 88 12
4.9582129 -2.9502697 6.5648236 234 88 12
4.9353538 -2.9782293 6.5728383 234 88 12
4.922276 -3.0139673 6.5921283 234 88 12
4.915504 -3.0549412 6.6188517 234 88 12
4.8913693 -3.0823705 6.6257572 234 88 12
4.8816605 -3.1215241 6.6494789 234 88 12
4.8789368 -3.1666639 6.6815739 234 88 12
5.273972 -2.6550615 6.4759598 234 88 12
5.2297463 -2.6672246 6.4603333 234 88 12
5.1964583 -2.6869118 6.456367 234 88 12
5.1482763 -2.6959591 6.4362307 234 88 12
5.1155109 -2.7158303 6.4326921 234 88 12
5.0799937 -2.7336662 6.4261141 234 88 12
5.0462546 -2.7527225 6.4214296 234 88 12
5.0168014 -2.7748826 6.4214296 234 88 12
4.9922256 -2.8006721 6.4268322 234 88 12
4.9856191 -2.8400202 6.4522777 234 88 12
5.0180469 -2.9092577 6.521585 234 88 12
4.9949751 -2.9369135 6.5292063 234 88 12
4.9763436 -2.9680896 6.5419064 234 88 12
4.9616189 -3.0024652 6.5591502 234 88 12
4.9471502 -3.0372574 6.5768452 234 88 12
4.9312415 -3.0711298 6.5930572 234 88 12
4.9140201 -3.1041563 6.6079116 234 88 12
4.8971019 -3.1376162 6.6232562 234 88 12
5.3220944 -2.6927416 6.4845023 234 88 12
5.2637868 -2.6953108 6.454124 234 88 12
5.2258162 -2.7118657 6.4452872 234 88 12
5.1941733 -2.7328191 6.4431877 234 88 12
5.1555753 -2.7487512 6.4335456 234 88 12
5.1006417 -2.7527268 6.4060688 234 88 12
5.0589614 -2.7660632 6.3928118 234 88 12
5.0294819 -2.7882433 6.3928118 234 88 12
5.056838 -2.8527508 6.4553995 234 88 12
5.0592341 -2.8992689 6.490941 234 88 12
5.037765 -2.9281282 6.5002871 234 88 12
5.0234218 -2.9625554 6.5176721 234 88 12
4.9992352 -2.989599 6.5241785 234 88 12
4.9816194 -3.021843 6.5381465 234 88 12
4.9562159 -3.0481396 6.5434299 234 88 12
4.9405761 -3.0822487 6.5598631 234 88 12
4.9245167 -3.1162302 6.5759706 234 88 12
5.3419909 -2.7109013 6.4627028 234 88 12
5.2905669 -2.7183511 6.439868 234 88 12
5.2408919 -2.726763 6.4186988 234 88 12
5.2136703 -2.7509179 6.4213834 234 88 12
5.1839294 -2.7732944 6.4213834 234 88 12
5.1506553 -2.7931077 6.4175668 234 88 12
5.1209307 -2.8154724 6.4175668 234 88 12
5.0487642 -2.985846 6.502409 234 88 12
5.0228715 -3.0117023 6.5070686 234 88 12
5.0004482 -3.0403223 6.515656 234 88 12
4.9860816 -3.0753891 6.5333862 234 88 12
4.9595866 -3.1010523 6.5375733 234 88 12
4.957623 -3.146421 6.569654 234 88 12
5.4105225 -2.7193723 6.4602699 234 88 12
5.3603501 -2.7280104 6.439126 234 88 12
5.3211646 -2.7440903 6.4293919 234 88 12
5.2801213 -2.7587404 6.4176035 234 88 12
5.2392645 -2.7733812 6.4059105 234 88 12
5.2071776 -2.7941902 6.4034896 234 88 12
5.0224352 -3.1077738 6.5302916 234 88 12
5.4209919 -2.7310054 6.4281702 234 88 12
5.3727722 -2.7410097 6.4092073 234 88 12
5.3372779 -2.759706 6.4034266 234 88 12
5.3081841 -2.7828596 6.4043384 234 88 12
5.2797475 -2.8064938 6.4059544 234 88 12
5.2591696 -2.8358066 6.4159355 234 88 12
5.4279227 -2.7402046 6.3923693 234 88 12
5.3932424 -2.7596118 6.3875747 234 88 12
5.3523993 -2.7746372 6.3763127 234 88 12
5.3222866 -2.7971225 6.3761897 234 88 12
5.3011866 -2.8260441 6.3855453 234 88 12
5.44696 -2.7577538 6.3690081 234 88 12
5.4047523 -2.7719951 6.3565273 234 88 12
5.3781834 -2.7970665 6.360148 234 88 12
5.3492241 -2.8204885 6.3613119 234 88 12
5.3281765 -2.849581 6.3707581 234 88 12
5.4194365 -2.7865953 6.32868 234 88 12
5.3862219 -2.8070467 6.3254666 234 88 12
5.3649879 -2.8359549 6.3346224 234 88 12
5.4388332 -2.8483844 6.3364196 234 88 12
4.7609138 -2.5404058 7.04881 234 88 12
4.7537265 -2.5814116 7.0483198 234 88 12
4.7473817 -2.6227744 7.0488715 234 88 12
4.7447271 -2.6657505 7.0539956 234 88 12
4.7931547 -2.5038943 7.0169072 234 88 12
4.7840362 -2.5441117 7.0140548 234 88 12
4.7772093 -2.5852673 7.01401 234 88 12
4.7704859 -2.626467 7.014092 234 88 12
4.7649579 -2.6681874 7.015645 234 88 12
4.816329 -2.5076232 6.982203 234 88 12
4.8077664 -2.5480709 6.9800477 234 88 12
4.8007584 -2.5891514 6.9797831 234 88 12
4.7941546 -2.6304021 6.9800105 234 88 12
4.788651 -2.6721323 6.9815812 234 88 12
4.7878351 -2.7159426 6.988884 234 88 12
4.8422117 -2.5124576 6.9507747 234 88 12
4.8322139 -2.5523267 6.9469042 234 88 12
4.8249617 -2.5933104 6.9463472 234 88 12
4.8186173 -2.6346757 6.9468875 234 88 12
4.8134212 -2.6765437 6.9488211 234 88 12
4.8112583 -2.7197642 6.9544368 234 88 12
4.7512646 -3.0467238 6.9475737 234 88 12
4.7443614 -3.0878491 6.9474373 234 88 12
4.8576822 -2.557003 6.9149685 234 88 12
4.8501062 -2.5978632 6.9140291 234 88 12
4.8434033 -2.6390853 6.9141364 234 88 12
4.8381009 -2.6809137 6.9159293 234 88 12
4.833776 -2.7231894 6.9189024 234 88 12
4.7816052 -3.0094252 6.913331 234 88 12
4.773808 -3.0501142 6.9121108 234 88 12
4.7668223 -3.0911925 6.9118748 234 88 12
4.7605405 -3.132621 6.9124928 234 88 12
4.9501882 -2.5449564 6.9546566 234 88 12
4.8824487 -2.5613866 6.882164 234 88 12
4.8737121 -2.601769 6.8798499 234 88 12
4.8658938 -2.6425173 6.8786259 234 88 12
4.860137 -2.6841419 6.8798614 234 88 12
4.8555169 -2.7262766 6.8824582 234 88 12
4.8137102 -2.9729648 6.8812089 234 88 12
4.8000326 -3.0108409 6.8729258 234 88 12
4.7918363 -3.0513039 6.8712282 234 88 12
4.7849717 -3.092407 6.8711329 234 88 12
4.7800126 -3.1344631 6.8733373 234 88 12
4.916985 -2.5257721 6.85285 234 88 12
4.9054093 -2.5650249 6.8472037 234 88 12
4.8940825 -2.6043224 6.8418417 234 88 12
4.8870482 -2.6453846 6.8415518 234 88 12
4.8804603 -2.6866355 6.8417902 234 88 12
4.8761306 -2.7288749 6.8447084 234 88 12
4.8736248 -2.7719526 6.8497987 234 88 12
4.8360739 -2.9762831 6.8455367 234 88 12
4.8229232 -3.0144122 6.8379426 234 88 12
4.8153696 -3.0551853 6.8370252 234 88 12
4.80797 -3.0960248 6.8362904 234 88 12
4.8017187 -3.13743 6.8369303 234 88 12
4.9277563 -2.1759863 6.7404237 234 88 12
4.9191561 -2.2161462 6.7382517 234 88 12
4.9138885 -2.2575104 6.7399602 234 88 12
4.9111347 -2.2998331 6.7446036 234 88 12
4.9348965 -2.5273674 6.8119416 234 88 12
4.9226022 -2.5662937 6.8054876 234 88 12
4.9149456 -2.6070867 6.8044677 234 88 12
4.9067497 -2.6476407 6.8028116 234 88 12
4.8997002 -2.6886697 6.8025012 234 88 12
4.8937306 -2.7301655 6.803462 234 88 12
4.8898439 -2.7725923 6.8068795 234 88 12
4.8859148 -2.8150358 6.8102541 234 88 12
4.8785925 -2.8559735 6.8096271 234 88 12
4.8765941 -2.8993566 6.8152928 234 88 12
4.8745599 -2.9427831 6.8209276 234 88 12
4.8578711 -2.9793358 6.8092146 234 88 12
4.8470378 -3.0185716 6.8044224 234 88 12
4.8369212 -3.0581043 6.8004708 234 88 12
4.8276677 -3.0980196 6.7975368 234 88 12
4.821445 -3.1394145 6.7982016 234 88 12
4.8205762 -3.1835179 6.8052387 234 88 12
4.9482651 -2.1788266 6.7031865 234 88 12
4.9398599 -2.2190409 6.7012529 234 88 12
4.9341025 -2.2602081 6.7023792 234 88 12
4.93051 -2.3021955 6.7060142 234 88 12
4.9462204 -2.4824955 6.7555852 234 88 12
4.9426703 -2.5248764 6.7593374 234 88 12
4.9382086 -2.5669224 6.7620344 234 88 12
4.9329615 -2.6086702 6.7638211 234 88 12
4.9240746 -2.6488996 6.7613654 234 88 12
4.9156318 -2.6892931 6.7594233 234 88 12
4.9088535 -2.7303901 6.7594233 234 88 12
4.9017591 -2.7713473 6.7590528 234 88 12
4.8963213 -2.8130414 6.760622 234 88 12
4.8924904 -2.8554809 6.7640781 234 88 12
4.8864841 -2.8969572 6.7649884 234 88 12
4.8846126 -2.9403694 6.7707567 234 88 12
4.8782711 -2.9817326 6.7712808 234 88 12
4.867065 -3.0207741 6.7660813 234 88 12
4.8574853 -3.0605488 6.7627878 234 88 12
4.8472524 -3.0999675 6.7587175 234 88 12
4.8425212 -3.1420784 6.7611332 234 88 12
4.8407636 -3.1857126 6.7670655 234 88 12
4.9691787 -2.181814 6.6664615 234 88 12
4.9622359 -2.2225423 6.6662173 234 88 12
4.9557185 -2.2634244 6.6664615 234 88 12
4.9514389 -2.3051429 6.6692777 234 88 12
4.951807 -2.3486521 6.6774468 234 88 12
4.970355 -2.4428935 6.7143621 234 88 12
4.9614329 -2.4830816 6.7118783 234 88 12
4.9556599 -2.5245128 6.713026 234 88 12
4.9531875 -2.5673072 6.7179918 234 88 12
4.9489741 -2.609431 6.7209525 234 88 12
4.9385724 -2.6489773 6.7167516 234 88 12
4.9279575 -2.6883879 6.712296 234 88 12
4.9211903 -2.7294204 6.712296 234 88 12
4.9152365 -2.7708111 6.7132416 234 88 12
4.9121118 -2.8134742 6.7174773 234 88 12
4.9063039 -2.8549685 6.7185988 234 88 12
4.9014959 -2.8969336 6.7208877 234 88 12
4.8959603 -2.9385843 6.7223315 234 88 12
4.8947082 -2.9822688 6.7287774 234 88 12
4.8879271 -3.0233831 6.7287774 234 88 12
4.8771129 -3.062547 6.724062 234 88 12
4.8703361 -3.1036379 6.724062 234 88 12
4.8639798 -3.1449375 6.724555 234 88 12
4.859849 -3.1873608 6.7276587 234 88 12
4.9924521 -2.1856396 6.6324625 234 88 12
4.9854188 -2.2263353 6.6321168 234 88 12
4.978992 -2.2672493 6.6324625 234 88 12
4.9740677 -2.3087261 6.6345224 234 88 12
4.9735231 -2.3518808 6.6415882 234 88 12
4.9795852 -2.3976488 6.6562195 234 88 12
4.9800882 -2.4414022 6.6645174 234 88 12
4.9733572 -2.4823768 6.6645465 234 88 12
4.9693012 -2.5244279 6.6676416 234 88 12
4.96562 -2.5666652 6.6711731 234 88 12
4.957304 -2.6070182 6.6693878 234 88 12
4.947022 -2.6465254 6.6653395 234 88 12
4.940484 -2.6875875 6.6655917 234 88 12
4.9337516 -2.7285681 6.6656203 234 88 12
4.928257 -2.7700925 6.6670756 234 88 12
4.9256282 -2.8129086 6.6718411 234 88 12
4.9236784 -2.8560822 6.6773996 234 88 12
4.9169116 -2.8971109 6.6773996 234 88 12
4.909626 -2.9378989 6.6767993 234 88 12
4.9028597 -2.9789245 6.6767993 234 88 12
4.8960929 -3.0199502 6.6767993 234 88 12
4.8897471 -3.0611787 6.6772871 234 88 12
4.8834763 -3.1024489 6.6778631 234 88 12
4.889545 -3.1498342 6.6927881 234 88 12
4.8929667 -3.1960533 6.7046609 234 88 12
5.015934 -2.1895394 6.5987 234 88 12
5.0087576 -2.2301846 6.5981956 234 88 12
5.0024738 -2.2711506 6.5987 234 88 12
4.9967804 -2.3123415 6.5998745 234 88 12
4.9953084 -2.3551378 6.6058354 234 88 12
4.9972668 -2.3993134 6.6157007 234 88 12
4.993331 -2.441298 6.6188908 234 88 12
4.9885921 -2.4829988 6.6211734 234 88 12
4.9840989 -2.5248227 6.6237397 234 88 12
4.9807611 -2.5671451 6.6276264 234 88 12
4.9766908 -2.6092057 6.6306858 234 88 12
4.9691224 -2.6498306 6.6297598 234 88 12
4.9616389 -2.6904814 6.6289282 234 88 12
4.9542804 -2.7311776 6.6282387 234 88 12
4.9474897 -2.772115 6.6281967 234 88 12
4.9420319 -2.8136444 6.6296821 234 88 12
4.9271502 -2.8509438 6.6203661 234 88 12
4.918541 -2.8910077 6.6182299 234 88 12
4.9220133 -2.936641 6.6299677 234 88 12
4.9212418 -2.9804101 6.636848 234 88 12
4.9180841 -3.0231194 6.6409955 234 88 12
4.9113193 -3.0641365 6.6409955 234 88 12
4.9069457 -3.1063197 6.6437526 234 88 12
4.9112353 -3.1528122 6.6565137 234 88 12
4.9253898 -3.2043769 6.6806941 234 88 12
5.03971 -2.1935427 6.5652652 234 88 12
5.0328422 -2.2343013 6.5651107 234 88 12
5.0261879 -2.2751365 6.5651965 234 88 12
5.0199566 -2.3161294 6.5657578 234 88 12
5.0174737 -2.3585405 6.5705376 234 88 12
5.0150208 -2.4010141 6.5753603 234 88 12
5.0099473 -2.4425204 6.5772381 234 88 12
5.0065131 -2.484694 6.5809684 234 88 12
5.0038199 -2.5272045 6.5855432 234 88 12
4.9991865 -2.5689747 6.5879331 234 88 12
4.9948473 -2.6108918 6.5906601 234 88 12
4.991116 -2.6530931 6.5940809 234 88 12
4.9829321 -2.6934383 6.5924602 234 88 12
4.9697576 -2.7316134 6.5851731 234 88 12
4.9475155 -2.7657447 6.5675735 234 88 12
4.940783 -2.8065643 6.5675735 234 88 12
4.9486833 -2.8539631 6.5842252 234 88 12
4.9419374 -2.8948665 6.5842252 234 88 12
4.9454432 -2.9405053 6.5959139 234 88 12
4.9414034 -2.9827385 6.5990138 234 88 12
4.9379296 -3.025274 6.6027656 234 88 12
4.9297609 -3.0655942 6.6011567 234 88 12
4.9292111 -3.1096046 6.608264 234 88 12
4.9356174 -3.1571209 6.6233535 234 88 12
5.0638046 -2.1976576 6.532177 234 88 12
5.0563149 -2.2381983 6.5313325 234 88 12
5.0497184 -2.2790551 6.5314817 234 88 12
5.0439534 -2.3202212 6.5325594 234 88 12
5.0401368 -2.3621318 6.5358152 234 88 12
5.0345917 -2.4034169 6.5371447 234 88 12
5.0287232 -2.4445903 6.5381141 234 88 12
5.0245471 -2.4864416 6.5409818 234 88 12
5.0172243 -2.5270646 6.5403266 234 88 12
5.0107799 -2.5680373 6.5406566 234 88 12
5.0058279 -2.6096284 6.5426626 234 88 12
4.9990878 -2.6504936 6.5426626 234 88 12
4.9942102 -2.6921489 6.5447583 234 88 12
4.9859843 -2.7323859 6.5430861 234 88 12
4.9689789 -2.7687726 6.5315132 234 88 12
4.9479256 -2.8032429 6.5153503 234 88 12
4.9573994 -2.8512349 6.5336385 234 88 12
4.9672074 -2.8995774 6.5523391 234 88 12
4.971601 -2.9456267 6.5649471 234 88 12
4.969636 -2.9888434 6.5703769 234 88 12
4.966166 -3.0314066 6.5741105 234 88 12
4.9532061 -3.0694611 6.5670815 234 88 12
4.9526763 -3.1134748 6.5741591 234 88 12
4.9620585 -3.1624403 6.5925198 234 88 12
5.0810976 -2.2425632 6.4989996 234 88 12
5.0740738 -2.2832732 6.4986768 234 88 12
5.0678358 -2.32427 6.4992237 234 88 12
5.0512629 -2.3613927 6.4883132 234 88 12
5.0391765 -2.4001093 6.4823613 234 88 12
5.0331454 -2.4411073 6.4831243 234 88 12
5.0279999 -2.4824617 6.4848728 234 88 12
5.0328603 -2.5278308 6.4977593 234 88 12
5.0334244 -2.5715978 6.5058846 234 88 12
5.0274105 -2.6127465 6.5066919 234 88 12
5.0224624 -2.6543489 6.5086894 234 88 12
5.0190954 -2.6966424 6.5124569 234 88 12
4.9985719 -2.7316074 6.4970503 234 88 12
4.9857888 -2.7697773 6.4902768 234 88 12
4.971221 -2.807085 6.481492 234 88 12
4.9723396 -2.851321 6.4902768 234 88 12
5.0099659 -2.9122221 6.5400472 234 88 12
5.0066953 -2.9548538 6.543973 234 88 12
5.0038433 -2.9977238 6.5483775 234 88 12
4.9945302 -3.0375903 6.5455189 234 88 12
4.9877596 -3.0786421 6.5455189 234 88 12
4.9830856 -3.1207099 6.5478835 234 88 12
5.1054397 -2.2467692 6.4661603 234 88 12
5.0984268 -2.2874892 6.4658527 234 88 12
5.0814295 -2.3245237 6.454567 234 88 12
5.0691929 -2.36322 6.4484992 234 88 12
5.0612664 -2.403492 6.4471684 234 88 12
5.055757 -2.4446838 6.4484992 234 88 12
5.0494642 -2.4855826 6.4489684 234 88 12
5.0445852 -2.52705 6.4510002 234 88 12
5.0572214 -2.5756259 6.4724002 234 88 12
5.0568476 -2.6190922 6.4794426 234 88 12
5.0622234 -2.6650307 6.492867 234 88 12
5.0425954 -2.7005477 6.4785953 234 88 12
5.0167127 -2.733228 6.457356 234 88 12
5.00524 -2.7719412 6.4520831 234 88 12
4.9985189 -2.8126912 6.4520831 234 88 12
4.9956608 -2.8551674 6.4563813 234 88 12
5.0355778 -2.9170647 6.5083332 234 88 12
5.0305157 -2.9588838 6.5102348 234 88 12
5.0342636 -3.0048215 6.5219722 234 88 12
5.0300689 -3.0471451 6.5248594 234 88 12
5.0216074 -3.0874636 6.5229816 234 88 12
5.0299048 -3.1358643 6.5398545 234 88 12
5.1101832 -2.3303709 6.4266138 234 88 12
5.0844893 -2.3640692 6.4058962 234 88 12
5.0777788 -2.4047565 6.4058962 234 88 12
5.0741124 -2.4466186 6.4092278 234 88 12
5.0730281 -2.4895289 6.4153938 234 88 12
5.0757055 -2.534003 6.4256954 234 88 12
5.0840192 -2.5808651 6.4422011 234 88 12
5.1118937 -2.6359234 6.4802227 234 88 12
5.0903411 -2.6708448 6.463974 234 88 12
5.0599418 -2.7018573 6.4379597 234 88 12
5.0400367 -2.7370749 6.4234562 234 88 12
5.0295382 -2.7762148 6.4192963 234 88 12
5.0257068 -2.8182418 6.4224863 234 88 12
5.0763259 -2.9729857 6.5008245 234 88 12
5.070457 -3.0145855 6.5018454 234 88 12
5.114572 -2.3704507 6.3794551 234 88 12
5.1041079 -2.4097545 6.3753886 234 88 12
5.1074495 -2.4543321 6.3863106 234 88 12
5.1063356 -2.4972863 6.3924084 234 88 12
5.1141391 -2.5438483 6.4082217 234 88 12
5.1963921 -2.6205909 6.505157 234 88 12
5.1652155 -2.6519995 6.4786062 234 88 12
5.1280131 -2.6806166 6.4454308 234 88 12
5.0978985 -2.7118533 6.4199352 234 88 12
5.0699148 -2.7437203 6.3967223 234 88 12
5.0631838 -2.784534 6.3967223 234 88 12
5.0818863 -2.8365133 6.4245806 234 88 12
5.1547313 -2.4673936 6.3782654 234 88 12
5.1586967 -2.5124686 6.389823 234 88 12
5.266654 -2.5988896 6.5137277 234 88 12
5.2342191 -2.6301918 6.4860778 234 88 12
5.213232 -2.6658633 6.4707646 234 88 12
5.1898704 -2.7003829 6.4528513 234 88 12
5.1470523 -2.7265303 6.4138122 234 88 12
5.1229715 -2.760232 6.3950334 234 88 12
5.1489577 -2.8153615 6.4305983 234 88 12
5.2798381 -2.6429002 6.475132 234 88 12
5.251091 -2.6755507 6.4516196 234 88 12
5.2309837 -2.7115128 6.4373522 234 88 12
5.2066727 -2.7455544 6.4185357 234 88 12
5.2000937 -2.7869294 6.4187822 234 88 12
5.2138429 -2.8370738 6.4409432 234 88 12
5.2960258 -2.6880937 6.4397907 234 88 12
5.2763262 -2.72436 6.4260855 234 88 12
5.2537193 -2.7592576 6.4092498 234 88 12
5.2585359 -2.8056085 6.4216995 234 88 12
5.2766547 -2.8578236 6.4484048 234 88 12
5.3423843 -2.7011824 6.4291301 234 88 12
5.3246031 -2.7383821 6.4175811 234 88 12
5.3015676 -2.773258 6.4004407 234 88 12
5.2947159 -2.8147991 6.4004407 234 88 12
5.3064618 -2.8643293 6.4201903 234 88 12
5.3750639 -2.7086942 6.4037466 234 88 12
5.3557487 -2.7453237 6.3906798 234 88 12
5.3431554 -2.7846098 6.3846612 234 88 12
5.3418808 -2.828614 6.3905511 234 88 12
5.3464279 -2.8751807 6.4025879 234 88 12
5.4113493 -2.7176511 6.3819838 234 88 12
5.3880601 -2.7527325 6.3648801 234 88 12
5.3794446 -2.7937281 6.3630686 234 88 12
5.3735499 -2.8358514 6.3640971 234 88 12
5.3732848 -2.8803954 6.371017 234 88 12
5.4195266 -2.7597823 6.3380728 234 88 12
5.4033012 -2.7976627 6.3283949 234 88 12
5.399734 -2.8407657 6.33183 234 88 12
4.8613358 -2.9796181 6.8770795 234 88 12
4.8467269 -3.0053978 6.9097495 234 88 12
4.8115997 -3.0100386 6.9097495 234 88 12
4.777463 -3.0157237 6.9113588 234 88 12
4.7555037 -3.0343647 6.9329195 234 88 12
4.9018869 -2.9554846 6.7968283 234 88 12
4.8892922 -2.9828227 6.8317628 234 88 12
4.854382 -2.9874532 6.8317881 234 88 12
4.8254752 -2.9983337 6.8413968 234 88 12
4.8052273 -3.0183949 6.8650541 234 88 12
4.7777119 -3.031013 6.8772774 234 88 12
4.7507887 -3.0443869 6.8906355 234 88 12
4.7358599 -3.0707788 6.9238634 234 88 12
4.8823791 -2.9505348 6.7324414 234 88 12
4.8740654 -2.9821703 6.7737169 234 88 12
4.8545237 -3.0025856 6.797822 234 88 12
4.8262095 -3.0140853 6.8083096 234 88 12
4.8024116 -3.0304425 6.826169 234 88 12
4.7792759 -3.0476847 6.8453431 234 88 12
4.753099 -3.0618739 6.859848 234 88 12
4.7370915 -3.0871649 6.8911738 234 88 12
4.8863153 -2.9694514 6.7047095 234 88 12
4.8706937 -2.9936404 6.734416 234 88 12
4.854547 -3.0175824 6.7636981 234 88 12
4.8285055 -3.0314624 6.7777147 234 88 12
4.8053083 -3.0484865 6.7964573 234 88 12
4.783731 -3.067425 6.8180585 234 88 12
4.7612219 -3.0855885 6.8384528 234 88 12
4.7421455 -3.107672 6.8647199 234 88 12
4.8888001 -2.9868879 6.6747131 234 88 12
4.8755279 -3.0135622 6.7079511 234 88 12
4.85601 -3.0340664 6.7318587 234 88 12
4.834208 -3.0524168 6.7524915 234 88 12
4.8125353 -3.071115 6.7736111 234 88 12
4.7910123 -3.0901916 6.7952614 234 88 12
4.7696471 -3.1096632 6.8174667 234 88 12
4.8910756 -3.0041099 6.644392 234 88 12
4.887403 -3.0407991 6.6923566 234 88 12
4.8601251 -3.0533161 6.704165 234 88 12
4.8451958 -3.078954 6.7355175 234 88 12
4.829668 -3.1042807 6.7663536 234 88 12
4.8015561 -3.1164753 6.7775888 234 88 12
4.7852559 -3.1415129 6.8079066 234 88 12
4.9136448 -3.042274 6.6451588 234 88 12
4.886333 -3.0546324 6.6566739 234 88 12
4.8721819 -3.0808966 6.6887774 234 88 12
4.8497109 -3.0987093 6.708312 234 88 12
4.8319778 -3.1217654 6.7355704 234 88 12
4.8048911 -3.1350794 6.7483826 234 88 12
4.9159293 -3.0595632 6.6147194 234 88 12
4.8886204 -3.0719466 6.6261907 234 88 12
4.8765044 -3.1004086 6.661304 234 88 12
4.8682547 -3.1333275 6.7029114 234 88 12
4.8384538 -3.1436937 6.7113156 234 88 12
4.9173627 -3.0759697 6.5829883 234 88 12
4.9058852 -3.104919 6.618609 234 88 12
4.8790135 -3.1180215 6.6310124 234 88 12
4.875855 -3.1564243 6.6803355 234 88 12
4.8502483 -3.1713355 6.6953044 234 88 12
4.9245644 -3.0983734 6.5599918 234 88 12
4.9162951 -3.1307907 6.6003938 234 88 12
4.9141474 -3.1700971 6.6507249 234 88 12
4.7769742 -2.5304124 7.0339446 234 88 12
4.7461133 -2.5608575 7.0339689 234 88 12
4.7254457 -2.5979407 7.0492172 234 88 12
4.8273621 -2.5207615 7.0003538 234 88 12
4.7948685 -2.5501471 6.997961 234 88 12
4.7656341 -2.5816052 7.0003538 234 88 12
4.7411914 -2.6162176 7.0098782 234 88 12
4.7221913 -2.6545346 7.0276127 234 88 12
4.949132 -2.1696844 6.7233076 234 88 12
4.9185953 -2.1989684 6.7225752 234 88 12
4.8956919 -2.2326303 6.7325349 234 88 12
4.8850675 -2.2735491 6.7598867 234 88 12
4.8451428 -2.5404491 6.964304 234 88 12
4.8136425 -2.5704308 6.9633451 234 88 12
4.7844348 -2.6018813 6.9657354 234 88 12
4.7608209 -2.6370168 6.9763899 234 88 12
4.7421346 -2.6755369 6.9944482 234 88 12
4.9629211 -2.1871467 6.6837254 234 88 12
4.9329457 -2.2166922 6.6837254 234 88 12
4.9100342 -2.2503071 6.6935587 234 88 12
4.8932061 -2.2875798 6.711998 234 88 12
4.9002495 -2.5337949 6.937664 234 88 12
4.8623724 -2.5597773 6.9275446 234 88 12
4.8318157 -2.5903218 6.9279246 234 88 12
4.8040648 -2.6226854 6.9323902 234 88 12
4.7805629 -2.6578836 6.9431167 234 88 12
4.7649822 -2.6984603 6.9655976 234 88 12
5.0122805 -2.1782033 6.6519613 234 88 12
4.9778061 -2.2052019 6.6457858 234 88 12
4.951066 -2.2365434 6.6501951 234 88 12
4.9262638 -2.2690525 6.6573262 234 88 12
4.9121938 -2.3079193 6.6794381 234 88 12
4.9002738 -2.5424218 6.8764682 234 88 12
4.8704739 -2.5733232 6.87782 234 88 12
4.8469067 -2.6082294 6.8881488 234 88 12
4.8234577 -2.6433294 6.8987513 234 88 12
4.8007531 -2.6790388 6.910542 234 88 12
4.7939458 -2.7254519 6.9456606 234 88 12
5.0249085 -2.1950362 6.6110873 234 88 12
4.9945083 -2.2242627 6.6104398 234 88 12
4.9669352 -2.2550983 6.6136503 234 88 12
4.9449787 -2.2892215 6.6246052 234 88 12
4.9310918 -2.3281989 6.6468015 234 88 12
4.9848065 -2.5047586 6.8482375 234 88 12
4.9457178 -2.5299189 6.8365045 234 88 12
4.9150085 -2.5601881 6.8365045 234 88 12
4.8861961 -2.5916584 6.8391991 234 88 12
4.8615608 -2.6258388 6.847887 234 88 12
4.8391013 -2.661531 6.8597836 234 88 12
4.8208265 -2.7001123 6.8778367 234 88 12
5.041357 -2.2139759 6.575511 234 88 12
5.011456 -2.2434483 6.575511 234 88 12
4.9847703 -2.2747631 6.5798759 234 88 12
4.9643202 -2.3097463 6.5927882 234 88 12
4.9525676 -2.3499873 6.6177468 234 88 12
4.9880562 -2.4186451 6.7080088 234 88 12
4.9634256 -2.452033 6.7159433 234 88 12
4.9363346 -2.4840059 6.7205334 234 88 12
4.9264121 -2.5266557 6.7491608 234 88 12
4.9086895 -2.564739 6.7671146 234 88 12
4.8991294 -2.6082065 6.7967649 234 88 12
4.8772559 -2.6440973 6.8092465 234 88 12
4.8582196 -2.6819775 6.8258958 234 88 12
4.8401842 -2.7207088 6.8441458 234 88 12
5.0944839 -2.2072108 6.5490665 234 88 12
5.0588193 -2.2334683 6.5413785 234 88 12
5.0289369 -2.2629225 6.5413785 234 88 12
5.003808 -2.2951083 6.5477886 234 88 12
4.9843125 -2.3306439 6.5618925 234 88 12
4.9741921 -2.3718629 6.5888944 234 88 12
4.9683046 -2.4159091 6.6219449 234 88 12
4.9592142 -2.4583869 6.6509123 234 88 12
4.9457583 -2.4985158 6.6741309 234 88 12
4.9297481 -2.5373216 6.6940293 234 88 12
4.9202271 -2.5804291 6.7231741 234 88 12
4.9072318 -2.6216578 6.7477355 234 88 12
4.8903942 -2.6606929 6.7671275 234 88 12
4.8722186 -2.6990783 6.7848186 234 88 12
4.8577871 -2.74014 6.808012 234 88 12
4.8556695 -2.7897034 6.8490424 234 88 12
5.1100593 -2.225682 6.5124846 234 88 12
5.0779004 -2.2538579 6.5094638 234 88 12
5.048718 -2.2836938 6.5103831 234 88 12
5.023931 -2.316072 6.5171981 234 88 12
5.0054326 -2.3521957 6.5325408 234 88 12
4.9929848 -2.3920653 6.5562096 234 88 12
4.9799109 -2.4318244 6.5792556 234 88 12
4.9662204 -2.4714677 6.6016808 234 88 12
4.9521384 -2.5111232 6.623785 234 88 12
4.9424767 -2.5537763 6.6521969 234 88 12
4.9342346 -2.5976458 6.6828518 234 88 12
4.920094 -2.6381063 6.7055974 234 88 12
4.9033041 -2.6771181 6.7248607 234 88 12
4.8865676 -2.7163873 6.74439 234 88 12
4.8722 -2.7574494 6.7674594 234 88 12
4.8605895 -2.8006275 6.7946739 234 88 12
4.8159275 -2.9778266 6.908885 234 88 12
4.7833018 -3.0076954 6.9069219 234 88 12
4.7535286 -3.0395973 6.9091129 234 88 12
4.7312999 -3.0770314 6.9224262 234 88 12
5.1385341 -2.2513065 6.4929276 234 88 12
5.0992503 -2.2755179 6.4805803 234 88 12
5.0700703 -2.3053563 6.4814963 234 88 12
5.0464063 -2.3383908 6.489759 234 88 12
5.0271716 -2.3741086 6.5040207 234 88 12
5.0072646 -2.4095867 6.5175147 234 88 12
4.9931951 -2.4487178 6.5390134 234 88 12
4.9802465 -2.4887724 6.5622387 234 88 12
4.968029 -2.5295393 6.5866833 234 88 12
4.9548788 -2.570003 6.6100869 234 88 12
4.946146 -2.6135199 6.6397948 234 88 12
4.9284372 -2.6516449 6.6573849 234 88 12
4.9112105 -2.6902847 6.6758175 234 88 12
4.8969283 -2.7310653 6.6985416 234 88 12
4.8832927 -2.7725394 6.7223983 234 88 12
4.8709078 -2.8151317 6.7482557 234 88 12
4.8613029 -2.8599162 6.7783108 234 88 12
4.856379 -2.9605017 6.8597784 234 88 12
4.8251681 -2.9912653 6.8597784 234 88 12
4.7954049 -3.0230613 6.8618712 234 88 12
4.7698383 -3.0579126 6.8700843 234 88 12
4.7459607 -3.0940976 6.8808494 234 88 12
4.731874 -3.1376565 6.9061012 234 88 12
5.1389966 -2.3075647 6.47578 234 88 12
5.0937834 -2.3283689 6.4557142 234 88 12
5.0638971 -2.3578267 6.4557142 234 88 12
5.044486 -2.3934274 6.4696207 234 88 12
5.0191684 -2.4256759 6.47578 234 88 12
5.0092149 -2.4672337 6.5025892 234 88 12
4.9973631 -2.5079384 6.5270977 234 88 12
4.9853029 -2.5487928 6.5515594 234 88 12
4.969564 -2.5876298 6.5712557 234 88 12
4.9611464 -2.63132 6.6011438 234 88 12
4.9437337 -2.6695981 6.6189747 234 88 12
4.922636 -2.7056952 6.6318965 234 88 12
4.9090242 -2.7468529 6.6553226 234 88 12
4.8952675 -2.788188 6.6787782 234 88 12
4.8864746 -2.8331354 6.7094154 234 88 12
4.8718939 -2.8745062 6.7322154 234 88 12
4.8558917 -2.915168 6.753233 234 88 12
4.8680148 -2.9756923 6.8144345 234 88 12
4.8373661 -3.0067613 6.8151608 234 88 12
4.8094306 -3.0397778 6.8197894 234 88 12
4.7863998 -3.0763965 6.8315425 234 88 12
4.7644296 -3.1139348 6.844955 234 88 12
5.1151433 -2.3500395 6.4268169 234 88 12
5.0758672 -2.3740456 6.4144926 234 88 12
5.0526423 -2.4073508 6.4232187 234 88 12
5.0400352 -2.4470742 6.4460931 234 88 12
5.0191569 -2.4820704 6.4581742 234 88 12
5.0086842 -2.5235548 6.4842877 234 88 12
5.00032 -2.5666399 6.5134835 234 88 12
4.9872088 -2.6070895 6.5365505 234 88 12
4.9759674 -2.6489892 6.562377 234 88 12
4.9616871 -2.6892383 6.5843096 234 88 12
4.9406257 -2.7253406 6.5971665 234 88 12
4.9215941 -2.7629268 6.6129436 234 88 12
4.9095392 -2.8053401 6.6385283 234 88 12
4.9027848 -2.8516243 6.6717348 234 88 12
4.8809934 -2.888052 6.6842618 234 88 12
4.8681417 -2.9307973 6.7094665 234 88 12
4.8675952 -2.9824386 6.7522898 234 88 12
4.8461404 -3.0198147 6.7658892 234 88 12
4.8277702 -3.0595629 6.7840242 234 88 12
4.8058143 -3.0969346 6.7972059 234 88 12
4.7838807 -3.1344838 6.8105555 234 88 12
5.140131 -2.3737948 6.4026265 234 88 12
5.0971956 -2.3956845 6.3856373 234 88 12
5.0739932 -2.4290118 6.3943334 234 88 12
5.0618501 -2.4690366 6.4176631 234 88 12
5.0405965 -2.5038218 6.4291692 234 88 12
5.0298147 -2.5451438 6.4546933 234 88 12
5.0220013 -2.5885966 6.4844232 234 88 12
5.0088477 -2.6290429 6.5072756 234 88 12
4.9954705 -2.6696117 6.5300469 234 88 12
4.9811563 -2.7098432 6.5517693 234 88 12
4.9579077 -2.7445161 6.5615463 234 88 12
4.9350853 -2.7795849 6.5720019 234 88 12
4.9245448 -2.8229625 6.5994339 234 88 12
4.912096 -2.8653779 6.6245012 234 88 12
4.901433 -2.9093108 6.6522946 234 88 12
4.8856969 -2.9500701 6.6732903 234 88 12
4.885036 -3.0016279 6.7156224 234 88 12
4.8630738 -3.0386157 6.7283788 234 88 12
4.8467813 -3.0798206 6.749289 234 88 12
4.8237925 -3.1164248 6.7608848 234 88 12
4.8022738 -3.1542504 6.7747016 234 88 12
5.1339612 -2.4263294 6.37677 234 88 12
5.1110663 -2.4599607 6.3859 234 88 12
5.0916157 -2.4957554 6.3996172 234 88 12
5.0680199 -2.5291965 6.4080205 234 88 12
5.0667562 -2.5764248 6.4459653 234 88 12
5.0634408 -2.6228163 6.4815512 234 88 12
5.0475249 -2.6617017 6.5006933 234 88 12
5.0267653 -2.6977286 6.5135374 234 88 12
4.9977283 -2.7285759 6.5153747 234 88 12
4.9673185 -2.7585502 6.5153747 234 88 12
4.9434614 -2.7928474 6.524272 234 88 12
4.9421 -2.8422706 6.5639491 234 88 12
4.9340339 -2.8876345 6.5948219 234 88 12
4.9186721 -2.9283769 6.6159477 234 88 12
4.8956246 -2.9640522 6.6266408 234 88 12
4.8896894 -3.011847 6.6612535 234 88 12
4.8848228 -3.0608191 6.6977067 234 88 12
4.8591876 -3.0953314 6.7053351 234 88 12
4.8411493 -3.1354551 6.7237735 234 88 12
4.821022 -3.1742697 6.7394319 234 88 12
5.1614118 -2.4988127 6.3943386 234 88 12
5.1333075 -2.5296474 6.396904 234 88 12
5.1184745 -2.5685658 6.4168015 234 88 12
5.1481223 -2.6350429 6.4951687 234 88 12
5.1143265 -2.6629643 6.4907546 234 88 12
5.0767279 -2.6884401 6.4812684 234 88 12
5.0407686 -2.7148502 6.4738712 234 88 12
5.0041533 -2.7407501 6.4655261 234 88 12
4.9799252 -2.7746406 6.4737229 234 88 12
4.9642797 -2.8143003 6.4935708 234 88 12
4.9347768 -2.8449264 6.4948373 234 88 12
4.9559717 -2.9098911 6.5651431 234 88 12
4.9406638 -2.9506884 6.5861955 234 88 12
4.9176435 -2.9863915 6.5968513 234 88 12
4.9041152 -3.0288849 6.620729 234 88 12
4.8889847 -3.0705314 6.6426196 234 88 12
4.8729959 -3.1118293 6.6635327 234 88 12
4.869545 -3.1625032 6.7022438 234 88 12
4.8473392 -3.1998527 6.7149048 234 88 12
5.2702227 -2.6208122 6.516602 234 88 12
5.2262077 -2.6428556 6.4992599 234 88 12
5.1901913 -2.6696239 6.4921641 234 88 12
5.1364102 -2.6852372 6.4617743 234 88 12
5.0964546 -2.7092192 6.4492593 234 88 12
5.0556455 -2.7325094 6.4354978 234 88 12
5.0240092 -2.7615669 6.4337711 234 88 12
4.9949775 -2.7923079 6.4354978 234 88 12
4.9860334 -2.8363705 6.4641404 234 88 12
4.9858179 -2.8866236 6.5048041 234 88 12
4.9851484 -2.9370573 6.5452514 234 88 12
4.9692264 -2.9775097 6.565371 234 88 12
4.9533362 -3.0182278 6.5857315 234 88 12
4.9259686 -3.0511267 6.5905452 234 88 12
4.9078293 -3.0906484 6.6081324 234 88 12
4.8951859 -3.1343422 6.6335115 234 88 12
4.8941159 -3.1867783 6.6752653 234 88 12
5.3072438 -2.6521327 6.5063653 234 88 12
5.2480521 -2.6650176 6.469707 234 88 12
5.2120175 -2.6917675 6.462636 234 88 12
5.1586738 -2.7076232 6.4330215 234 88 12
5.1201725 -2.7325163 6.422493 234 88 12
5.0778537 -2.7548425 6.4068594 234 88 12
5.0456848 -2.7835577 6.4044461 234 88 12
5.0233312 -2.8186777 6.4149995 234 88 12
5.0368705 -2.8777328 6.4733839 234 88 12
5.0290213 -2.9231293 6.5037532 234 88 12
5.0100198 -2.9613154 6.5194435 234 88 12
4.9963346 -3.0033462 6.54246 234 88 12
4.9758906 -3.0409551 6.5565381 234 88 12
4.9550719 -3.0784721 6.5702443 234 88 12
4.9278722 -3.1116118 6.5753489 234 88 12
4.9217634 -3.1600173 6.6095276 234 88 12
5.3421841 -2.6822383 6.4932194 234 88 12
5.2839146 -2.6957443 6.458065 234 88 12
5.2420068 -2.7189593 6.4435868 234 88 12
5.2027493 -2.7436635 6.4323907 234 88 12
5.1722136 -2.7737615 6.4323907 234 88 12
5.1158185 -2.7872796 6.3987246 234 88 12
5.0854049 -2.8172572 6.3987246 234 88 12
5.0823159 -2.9664719 6.5156975 234 88 12
5.0494657 -2.9954987 6.5130148 234 88 12
5.0247188 -3.0300732 6.521163 234 88 12
5.0016398 -3.0659094 6.5316367 234 88 12
4.9809356 -3.1035483 6.5454264 234 88 12
4.9540377 -3.1369388 6.5509305 234 88 12
5.3618464 -2.7031364 6.4605494 234 88 12
5.315805 -2.7240763 6.4411387 234 88 12
5.2760391 -2.7486777 6.4295487 234 88 12
5.2393727 -2.7750874 6.4218206 234 88 12
5.2057071 -2.8033104 6.4178815 234 88 12
5.1950955 -2.846297 6.4437127 234 88 12
5.082541 -3.0771194 6.5389161 234 88 12
5.0454569 -3.1034815 6.5308228 234 88 12
5.0204787 -3.1382926 6.5389161 234 88 12
5.3786182 -2.7222762 6.4242935 234 88 12
5.3431244 -2.7496297 6.4182787 234 88 12
5.30828 -2.7773159 6.4130311 234 88 12
5.2775993 -2.8075571 6.4130311 234 88 12
5.2578349 -2.8447413 6.4269829 234 88 12
5.3989987 -2.7435946 6.3926225 234 88 12
5.3667045 -2.7728977 6.390645 234 88 12
5.3343663 -2.8021502 6.3885942 234 88 12
5.3084102 -2.835398 6.3945875 234 88 12
5.2969165 -2.877934 6.4189944 234 88 12
5.4193587 -2.7648966 6.3609533 234 88 12
5.3851209 -2.7929883 6.3565636 234 88 12
5.357944 -2.8254313 6.3609533 234 88 12
5.3386025 -2.8628716 6.3752151 234 88 12
5.4493308 -2.7920599 6.3411255 234 88 12
5.4105988 -2.8174303 6.3312612 234 88 12
5.3850203 -2.8509028 6.3376241 234 88 12
5.3807211 -2.8979068 6.3705635 234 88 12
4.7181468 -2.6088338 7.0452542 234 88 12
4.7227459 -2.6502092 7.0444779 234 88 12
4.7459779 -2.5611649 7.0196695 234 88 12
4.7462668 -2.6007617 7.0121298 234 88 12
4.7500997 -2.6417639 7.0101686 234 88 12
4.7588649 -2.6848254 7.0159488 234 88 12
4.7408109 -3.0280619 6.916585 234 88 12
4.7429013 -3.0677323 6.9120107 234 88 12
4.7458162 -3.1077712 6.9087257 234 88 12
4.7777619 -2.5151203 7.0003476 234 88 12
4.7724366 -2.5525296 6.9841037 234 88 12
4.7731237 -2.5922348 6.9772596 234 88 12
4.7758775 -2.6327326 6.9736462 234 88 12
4.7809491 -2.6741679 6.9736462 234 88 12
4.8007636 -2.7218559 6.9965706 234 88 12
4.7718859 -2.9823532 6.896914 234 88 12
4.7652764 -3.0179119 6.8789353 234 88 12
4.7608361 -3.0543675 6.8643351 234 88 12
4.7649474 -3.0948806 6.8629451 234 88 12
4.7739582 -3.1378069 6.8691058 234 88 12
4.8133516 -2.5101309 6.9790411 234 88 12
4.8031273 -2.5456307 6.9553499 234 88 12
4.7992253 -2.5834684 6.941473 234 88 12
4.8002419 -2.6231961 6.9352188 234 88 12
4.8026175 -2.6634343 6.9310727 234 88 12
4.81037 -2.7059002 6.9352269 234 88 12
4.8009686 -2.9744747 6.8664827 234 88 12
4.7905917 -3.0082495 6.842886 234 88 12
4.7896433 -3.04634 6.8337617 234 88 12
4.7885365 -3.0842779 6.8244109 234 88 12
4.7895451 -3.1231775 6.8183088 234 88 12
4.8003674 -3.1669102 6.8272028 234 88 12
4.835022 -2.5392411 6.9285951 234 88 12
4.8273859 -2.5755892 6.9091096 234 88 12
4.8257122 -2.614186 6.8987947 234 88 12
4.8253922 -2.6532526 6.8905687 234 88 12
4.8286262 -2.6937342 6.887794 234 88 12
4.8382559 -2.7369037 6.8948007 234 88 12
4.8285336 -2.965946 6.8339224 234 88 12
4.8181567 -2.9997194 6.8105259 234 88 12
4.820117 -3.0391576 6.8059034 234 88 12
4.8121886 -3.0737979 6.786284 234 88 12
4.8113341 -3.1117241 6.7774215 234 88 12
4.8160982 -3.1523516 6.7770844 234 88 12
4.8663816 -2.5326736 6.9011464 234 88 12
4.8544674 -2.5673366 6.8753152 234 88 12
4.8491898 -2.6044464 6.8596153 234 88 12
4.8490286 -2.6435108 6.8517137 234 88 12
4.8484726 -2.6823452 6.843225 234 88 12
4.8518214 -2.7227507 6.8406725 234 88 12
4.8571968 -2.7640004 6.8411942 234 88 12
4.8530846 -2.9560957 6.797029 234 88 12
4.8500228 -2.9932513 6.7848635 234 88 12
4.8418183 -3.0278804 6.7649693 234 88 12
4.8386383 -3.0647442 6.7526722 234 88 12
4.8386369 -3.1030433 6.7451749 234 88 12
4.8410954 -3.1424863 6.7413874 234 88 12
4.8464699 -3.1833453 6.7419834 234 88 12
4.8893604 -2.5229065 6.8611679 234 88 12
4.880754 -2.5588312 6.8405533 234 88 12
4.8754148 -2.5958827 6.8248987 234 88 12
4.8715162 -2.6333854 6.8114414 234 88 12
4.8704705 -2.6719472 6.8023009 234 88 12
4.8690524 -2.7102764 6.7926154 234 88 12
4.8700967 -2.7495673 6.7866464 234 88 12
4.8717885 -2.7890868 6.7816601 234 88 12
4.8645377 -2.8246605 6.7632623 234 88 12
4.8672776 -2.8645039 6.7598748 234 88 12
4.8668146 -2.90288 6.7516942 234 88 12
4.868259 -2.9420562 6.7463822 234 88 12
4.8710127 -2.981792 6.7430367 234 88 12
4.8698716 -3.0196774 6.7338767 234 88 12
4.8605537 -3.0536087 6.7125211 234 88 12
4.8650475 -3.0939968 6.7118073 234 88 12
4.8740387 -3.1365681 6.7178006 234 88 12
4.8790131 -3.1772094 6.7178006 234 88 12
4.9191723 -2.5158365 6.831759 234 88 12
4.9066782 -2.5502472 6.8054962 234 88 12
4.8958712 -2.5851021 6.7817993 234 88 12
4.8936529 -2.6232059 6.7709804 234 88 12
4.8908224 -2.6609685 6.7592645 234 88 12
4.8893542 -2.6991963 6.7496009 234 88 12
4.8852401 -2.7362292 6.7360067 234 88 12
4.8828859 -2.7738991 6.7250581 234 88 12
4.8866806 -2.8141398 6.7232795 234 88 12
4.8807287 -2.8500824 6.7070074 234 88 12
4.8805971 -2.8884821 6.6994114 234 88 12
4.8835378 -2.9282064 6.6963902 234 88 12
4.8885107 -2.968837 6.6963902 234 88 12
4.8881688 -3.0069985 6.6885099 234 88 12
4.8842478 -3.0434091 6.6753392 234 88 12
4.8782253 -3.078707 6.65908 234 88 12
4.8831391 -3.1191523 6.6590219 234 88 12
4.9066219 -3.1686838 6.6864076 234 88 12
4.8837113 -2.2497125 6.7501922 234 88 12
4.890872 -2.291415 6.7533975 234 88 12
4.9233537 -2.4990761 6.7644105 234 88 12
4.9165721 -2.5355396 6.7468801 234 88 12
4.916357 -2.5744302 6.7391243 234 88 12
4.9148149 -2.612726 6.7294126 234 88 12
4.9089913 -2.6492057 6.7133727 234 88 12
4.9028187 -2.6854057 6.6968417 234 88 12
4.902029 -2.7237127 6.6883011 234 88 12
4.9005589 -2.7616591 6.6787686 234 88 12
4.9008098 -2.8002648 6.671793 234 88 12
4.9055839 -2.8407845 6.671504 234 88 12
4.9098811 -2.8810911 6.6705122 234 88 12
4.8984995 -2.9143543 6.646421 234 88 12
4.9034557 -2.9548464 6.646421 234 88 12
4.9040208 -2.9933136 6.6399617 234 88 12
4.9071445 -3.0329223 6.6372738 234 88 12
4.9022198 -3.0686975 6.6227694 234 88 12
4.9107585 -3.1108081 6.628046 234 88 12
4.9262056 -3.1563194 6.6434431 234 88 12
4.9045348 -2.2008364 6.7155671 234 88 12
4.9042363 -2.2399259 6.7077079 234 88 12
4.9083996 -2.2804878 6.7064686 234 88 12
4.9185462 -2.3231421 6.7140841 234 88 12
4.9381905 -2.4474964 6.7209234 234 88 12
4.9330635 -2.4845884 6.705977 234 88 12
4.9335265 -2.5236943 6.6992927 234 88 12
4.9358501 -2.5634673 6.6953592 234 88 12
4.933404 -2.60132 6.6844144 234 88 12
4.9231691 -2.6359503 6.6620378 234 88 12
4.9194937 -2.6730666 6.6493316 234 88 12
4.917316 -2.7106957 6.638844 234 88 12
4.9169402 -2.7489934 6.6310158 234 88 12
4.9209032 -2.7890763 6.6295576 234 88 12
4.9233327 -2.8284829 6.6258569 234 88 12
4.9164419 -2.863765 6.6085262 234 88 12
4.9213877 -2.9041717 6.6085262 234 88 12
4.9236875 -2.9433842 6.6046619 234 88 12
4.9286313 -2.9837737 6.6046619 234 88 12
4.927958 -3.0215578 6.5964713 234 88 12
4.9281802 -3.0596938 6.5895982 234 88 12
4.933116 -3.1000159 6.5895982 234 88 12
4.9500008 -3.1461012 6.6069827 234 88 12
4.9396682 -2.156776 6.7022347 234 88 12
4.9292169 -2.1925905 6.6794887 234 88 12
4.926075 -2.2306659 6.6675258 234 88 12
4.9295082 -2.2708893 6.6652408 234 88 12
4.9351177 -2.3118522 6.6661544 234 88 12
4.9459505 -2.3546767 6.674727 234 88 12
4.954031 -2.4355536 6.6719384 234 88 12
4.9488568 -2.4725296 6.6570654 234 88 12
4.9473553 -2.5107744 6.6475859 234 88 12
4.947403 -2.5495367 6.6403847 234 88 12
4.9476237 -2.5883052 6.6334476 234 88 12
4.9478016 -2.6269975 6.6264586 234 88 12
4.9443722 -2.6641693 6.6142244 234 88 12
4.9409227 -2.7012289 6.6019802 234 88 12
4.9417071 -2.7399511 6.5959163 234 88 12
4.9366045 -2.7761283 6.5813026 234 88 12
4.9306026 -2.8117948 6.5654068 234 88 12
4.942924 -2.8553138 6.5761313 234 88 12
4.9545422 -2.8986127 6.5858192 234 88 12
4.9594855 -2.9390025 6.5858192 234 88 12
4.9626846 -2.9785993 6.583293 234 88 12
4.96311 -3.0168974 6.5767574 234 88 12
4.9636078 -3.0551744 6.5703373 234 88 12
4.9685431 -3.0954945 6.5703373 234 88 12
4.9779263 -3.1379445 6.5767574 234 88 12
4.9567103 -2.1853251 6.6477833 234 88 12
4.9530964 -2.2232101 6.6352363 234 88 12
4.9532337 -2.2622612 6.6281772 234 88 12
4.9565086 -2.3023369 6.6256976 234 88 12
4.9635997 -2.3437355 6.6287756 234 88 12
4.9698501 -2.3848588 6.6306257 234 88 12
4.9659786 -2.422307 6.6177688 234 88 12
4.9649434 -2.4606967 6.6090488 234 88 12
4.9655981 -2.499649 6.6027942 234 88 12
4.9664297 -2.5386157 6.5968065 234 88 12
4.9713898 -2.5791392 6.5968065 234 88 12
4.9710865 -2.6175799 6.5891905 234 88 12
4.9698339 -2.6555736 6.5802135 234 88 12
4.9708323 -2.6944098 6.5745039 234 88 12
4.9587808 -2.7277906 6.5499644 234 88 12
4.9606586 -2.7668188 6.5455556 234 88 12
4.939188 -2.7958491 6.507503 234 88 12
4.9440989 -2.8359714 6.507503 234 88 12
4.9692407 -2.8849719 6.5366149 234 88 12
4.9853077 -2.930182 6.5526323 234 88 12
4.9970374 -2.9735715 6.5623932 234 88 12
4.9994893 -3.0128024 6.5588193 234 88 12
5.0021896 -3.0521183 6.5556083 234 88 12
5.0071273 -3.0924568 6.5556083 234 88 12
5.0172009 -3.135237 6.5629644 234 88 12
4.9885702 -2.1795218 6.622601 234 88 12
4.9794083 -2.2155678 6.6021295 234 88 12
4.977159 -2.2537665 6.5916853 234 88 12
4.9804773 -2.293786 6.5893025 234 88 12
4.9843836 -2.3339906 6.5877714 234 88 12
4.9858909 -2.3733287 6.5827832 234 88 12
4.9831614 -2.4110904 6.5716958 234 88 12
4.9851947 -2.4505103 6.5674858 234 88 12
4.9877162 -2.4900763 6.5639844 234 88 12
4.991735 -2.5301821 6.5626416 234 88 12
4.9904385 -2.5682213 6.5536642 234 88 12
4.987968 -2.6057222 6.5430155 234 88 12
4.9902983 -2.6450474 6.5392704 234 88 12
4.9920726 -2.6841152 6.5347347 234 88 12
4.9864645 -2.7201085 6.5196323 234 88 12
4.9731932 -2.7527745 6.4935865 234 88 12
4.9708729 -2.789855 6.4832416 234 88 12
4.970758 -2.8277948 6.4760642 234 88 12
5.0049181 -2.880605 6.5178356 234 88 12
5.0161161 -2.9236283 6.5267825 234 88 12
5.0298944 -2.9678831 6.5393929 234 88 12
5.039639 -3.0104146 6.5462389 234 88 12
5.0457048 -3.0513122 6.5478373 234 88 12
5.0524778 -3.0925529 6.5504394 234 88 12
5.0246654 -2.1751037 6.6036015 234 88 12
5.0077629 -2.2086463 6.5721755 234 88 12
5.0049162 -2.2466168 6.5609655 234 88 12
5.0049338 -2.2854657 6.5538788 234 88 12
5.0055256 -2.3244524 6.5476255 234 88 12
5.0060034 -2.3633451 6.5412192 234 88 12
5.0040002 -2.4012914 6.5312748 234 88 12
5.0067968 -2.4409051 6.5282054 234 88 12
5.0100565 -2.4806645 6.5258021 234 88 12
5.0099707 -2.51914 6.5186286 234 88 12
5.0124292 -2.5585301 6.5150948 234 88 12
5.0173655 -2.5988557 6.5150948 234 88 12
5.0260611 -2.6406701 6.5204463 234 88 12
5.0228491 -2.6777425 6.5088534 234 88 12
5.0086079 -2.7102134 6.4816055 234 88 12
4.9948106 -2.742635 6.45503 234 88 12
4.9974294 -2.7817292 6.4517894 234 88 12
5.006268 -2.8234484 6.4573727 234 88 12
5.0430441 -2.8772974 6.5025258 234 88 12
5.0518289 -2.9192572 6.5079842 234 88 12
5.0707998 -2.9657919 6.5278425 234 88 12
5.0769153 -3.0067034 6.5294995 234 88 12
5.0389142 -2.2026749 6.5463781 234 88 12
5.0314894 -2.2391171 6.5287442 234 88 12
5.0326529 -2.2783086 6.5233526 234 88 12
5.0346484 -2.3177397 6.5191526 234 88 12
5.0282497 -2.3541944 6.5030389 234 88 12
5.0203214 -2.3899646 6.4847789 234 88 12
5.0232639 -2.4295177 6.4819617 234 88 12
5.0155239 -2.4651086 6.4640141 234 88 12
5.0217829 -2.5057907 6.4659128 234 88 12
5.0399384 -2.5510201 6.4846368 234 88 12
5.0528116 -2.5943668 6.4958644 234 88 12
5.0637245 -2.6370399 6.5043063 234 88 12
5.0564132 -2.6725118 6.4870167 234 88 12
5.0367579 -2.7028337 6.4523473 234 88 12
5.0267615 -2.7368298 6.4313412 234 88 12
5.0273981 -2.7750826 6.4253392 234 88 12
5.0401168 -2.8183985 6.4363437 234 88 12
5.0797019 -2.199841 6.5343089 234 88 12
5.0635133 -2.2334602 6.5044284 234 88 12
5.0673261 -2.2735262 6.5028219 234 88 12
5.0603375 -2.3098903 6.4859867 234 88 12
5.0504284 -2.345093 6.4650621 234 88 12
5.0464711 -2.3822196 6.4525499 234 88 12
5.0460329 -2.4205036 6.4450092 234 88 12
5.0482025 -2.4596765 6.4411454 234 88 12
5.0531182 -2.4998374 6.4411454 234 88 12
5.0680189 -2.5437727 6.4551606 234 88 12
5.0729423 -2.5839972 6.4551606 234 88 12
5.1076937 -2.6358585 6.4969621 234 88 12
5.0921259 -2.6681449 6.468235 234 88 12
5.0788441 -2.7011032 6.4427509 234 88 12
5.0622425 -2.7324867 6.4126654 234 88 12
5.067142 -2.7725186 6.4126654 234 88 12
5.0825744 -2.8169768 6.4273686 234 88 12
5.0995193 -2.2291231 6.4857774 234 88 12
5.103169 -2.2691388 6.4839554 234 88 12
5.0933933 -2.3045897 6.4633498 234 88 12
5.0791821 -2.3383315 6.4365749 234 88 12
5.0665302 -2.3723876 6.4120197 234 88 12
5.0714402 -2.4125013 6.4120197 234 88 12
5.0767837 -2.4527726 6.4126248 234 88 12
5.0887136 -2.4954805 6.4224095 234 88 12
5.0977211 -2.5371766 6.4281082 234 88 12
5.1169987 -2.5828378 6.448092 234 88 12
5.1622548 -2.6387324 6.5041709 234 88 12
5.1309175 -2.6649892 6.453732 234 88 12
5.1194868 -2.6987584 6.4310107 234 88 12
5.1129775 -2.7343264 6.4151535 234 88 12
5.1152115 -2.7733529 6.4114408 234 88 12
5.1460671 -2.8242898 6.4473839 234 88 12
5.1148348 -2.3339677 6.4178085 234 88 12
5.1020837 -2.368036 6.3933053 234 88 12
5.1074295 -2.408304 6.393909 234 88 12
5.1193933 -2.4509628 6.4036732 234 88 12
5.125545 -2.4915767 6.4053826 234 88 12
5.1457696 -2.5374465 6.4265394 234 88 12
5.219842 -2.6038787 6.5220294 234 88 12
5.2065325 -2.6375463 6.496788 234 88 12
5.2006454 -2.6738935 6.4818206 234 88 12
5.1809206 -2.7046256 6.4478102 234 88 12
5.1818409 -2.7433701 6.4422755 234 88 12
5.1867781 -2.7837064 6.4422755 234 88 12
5.1938701 -2.8249357 6.4452376 234 88 12
5.1617608 -2.4105561 6.4010038 234 88 12
5.2743936 -2.606405 6.5283661 234 88 12
5.2425032 -2.6331437 6.4778543 234 88 12
5.2378364 -2.6699941 6.4646702 234 88 12
5.2306056 -2.7057214 6.4480014 234 88 12
5.2232151 -2.7412403 6.4311399 234 88 12
5.2281566 -2.7816119 6.4311399 234 88 12
5.2510328 -2.8293598 6.4556065 234 88 12
5.2931142 -2.8853319 6.5062156 234 88 12
5.2841578 -2.669601 6.4598918 234 88 12
5.2772899 -2.7055659 6.4438314 234 88 12
5.271606 -2.7418609 6.4294009 234 88 12
5.2697697 -2.7795789 6.4202056 234 88 12
5.2747154 -2.8199868 6.4202056 234 88 12
5.3034906 -2.8702652 6.4524417 234 88 12
5.3380485 -2.6720414 6.4650998 234 88 12
5.3207307 -2.7040918 6.4350715 234 88 12
5.3148737 -2.7403929 6.4205093 234 88 12
5.305584 -2.7751954 6.4013543 234 88 12
5.3105297 -2.815603 6.4013543 234 88 12
5.3281198 -2.8612115 6.4183297 234 88 12
5.3606195 -2.7012076 6.4214101 234 88 12
5.3523922 -2.7366354 6.403789 234 88 12
5.3465056 -2.7728381 6.389318 234 88 12
5.346344 -2.8112195 6.3825026 234 88 12
5.3577099 -2.8542492 6.391057 234 88 12
5.3886323 -2.732373 6.3853421 234 88 12
5.3766537 -2.7662079 6.3629112 234 88 12
5.378264 -2.805279 6.3584976 234 88 12
5.3883629 -2.8477542 6.3653164 234 88 12
5.4289446 -2.7296782 6.3722448 234 88 12
5.418189 -2.7640641 6.3515859 234 88 12
5.4140568 -2.8008978 6.3396568 234 88 12
5.4294081 -2.8454735 6.3533177 234 88 12
4.7998776 -2.5223298 7.0385842 234 88 12
4.8631039 -2.5389283 6.9889627 234 88 12
4.8208051 -2.5374022 6.9815807 234 88 12
4.7871761 -2.5430095 6.990674 234 88 12
4.7565846 -2.5512226 7.0057721 234 88 12
4.7344689 -2.5666912 7.0375943 234 88 12
4.9354825 -2.5307033 6.8868508 234 88 12
4.9214392 -2.551785 6.9313154 234 88 12
4.8831806 -2.5534484 6.9313154 234 88 12
4.8454986 -2.5555851 6.9323978 234 88 12
4.8151269 -2.5637863 6.9473429 234 88 12
4.783462 -2.5710163 6.9600563 234 88 12
4.7552204 -2.5812232 6.9795599 234 88 12
4.7298741 -2.5940344 7.0049925 234 88 12
4.9196229 -2.5166893 6.7656221 234 88 12
4.9171686 -2.546773 6.8300982 234 88 12
4.8886719 -2.5561013 6.8474975 234 88 12
4.8609166 -2.5661638 6.8665447 234 88 12
4.8435197 -2.5849407 6.9053049 234 88 12
4.8108878 -2.5912819 6.9158921 234 88 12
4.7830272 -2.6017177 6.9357328 234 88 12
4.7574091 -2.6142042 6.9601932 234 88 12
4.7338343 -2.6286225 6.9890008 234 88 12
4.9135494 -2.5423136 6.7316809 234 88 12
4.9100208 -2.5716908 6.7939277 234 88 12
4.8833103 -2.5824883 6.8144522 234 88 12
4.8585696 -2.5950642 6.8389473 234 88 12
4.8368883 -2.6103718 6.8695445 234 88 12
4.8100314 -2.6215515 6.8908701 234 88 12
4.7862377 -2.6354876 6.9183497 234 88 12
4.7652106 -2.6519957 6.9515648 234 88 12
4.7435222 -2.668184 6.9840369 234 88 12
4.9147911 -2.5738003 6.7110386 234 88 12
4.9026489 -2.5963202 6.7574282 234 88 12
4.8827796 -2.6127865 6.7903404 234 88 12
4.8585682 -2.6258736 6.8157258 234 88 12
4.8346443 -2.63939 6.8420429 234 88 12
4.8129253 -2.6549706 6.8729172 234 88 12
4.7923818 -2.6717877 6.906507 234 88 12
4.7758822 -2.6923432 6.9483538 234 88 12
4.9192486 -2.6079226 6.6961985 234 88 12
4.9033375 -2.6275043 6.735662 234 88 12
4.8809671 -2.641993 6.7638988 234 88 12
4.8611431 -2.6588299 6.7972732 234 88 12
4.8381391 -2.6732221 6.8252506 234 88 12
4.8195281 -2.6915762 6.8619046 234 88 12
4.9175229 -2.6369743 6.6702037 234 88 12
4.9021692 -2.6571333 6.710535 234 88 12
4.8834577 -2.6747723 6.7453499 234 88 12
4.865243 -2.6930916 6.7816162 234 88 12
4.8441348 -2.7092149 6.8130794 234 88 12
4.9152112 -2.6655004 6.6431861 234 88 12
4.9010253 -2.6867516 6.6854758 234 88 12
4.8853731 -2.7070787 6.7257414 234 88 12
4.8681026 -2.7263296 6.7636566 234 88 12
4.851501 -2.7464435 6.8034 234 88 12
4.9163809 -2.6968999 6.6224341 234 88 12
4.9016261 -2.717813 6.6635871 234 88 12
4.8851933 -2.737607 6.7023201 234 88 12
4.8717103 -2.7602289 6.7470541 234 88 12
4.8562422 -2.7814746 6.7888193 234 88 12
4.918469 -2.7290728 6.6033244 234 88 12
4.9061637 -2.7522159 6.648788 234 88 12
4.8867593 -2.769614 6.6820779 234 88 12
4.872149 -2.7914143 6.7246399 234 88 12
4.8593903 -2.8151581 6.7712727 234 88 12
4.923058 -2.7633815 6.5886617 234 88 12
4.9078851 -2.7842431 6.6289062 234 88 12
4.8944311 -2.8068998 6.6728759 234 88 12
4.8735404 -2.8234177 6.7039714 234 88 12
4.8607812 -2.8473206 6.7504835 234 88 12
4.9273548 -2.7974792 6.573451 234 88 12
4.9120317 -2.8183689 6.6133628 234 88 12
4.898324 -2.8409746 6.6567988 234 88 12
4.8792925 -2.8592477 6.6912284 234 88 12
4.8621798 -2.8794897 6.7297082 234 88 12
4.9400649 -2.8388712 6.5731211 234 88 12
4.9199605 -2.8558176 6.6045456 234 88 12
4.9029627 -2.8757336 6.6420403 234 88 12
4.8815942 -2.8920825 6.6721892 234 88 12
4.8633208 -2.9114289 6.7084613 234 88 12
4.8832655 -2.9653945 6.8156705 234 88 12
4.8486776 -2.9708374 6.8233719 234 88 12
4.8195295 -2.9813104 6.8413706 234 88 12
4.7998142 -3.0006173 6.8774433 234 88 12
4.7687988 -3.0097284 6.892621 234 88 12
4.7438745 -3.0246711 6.9197178 234 88 12
4.9414535 -2.8705642 6.5526781 234 88 12
4.9257345 -2.8914599 6.5918317 234 88 12
4.9085503 -2.911371 6.6289544 234 88 12
4.8855505 -2.9264016 6.6561337 234 88 12
4.8695869 -2.9479635 6.696557 234 88 12
4.8609853 -2.9765112 6.751133 234 88 12
4.8434939 -2.9973958 6.7901158 234 88 12
4.8128576 -3.0065114 6.8051939 234 88 12
4.7891965 -3.0222208 6.8336325 234 88 12
4.7646942 -3.0373807 6.8609347 234 88 12
4.7405419 -3.0531001 6.8893509 234 88 12
4.9601932 -2.9174387 6.5628204 234 88 12
4.9338055 -2.9291813 6.5831556 234 88 12
4.9122772 -2.9454057 6.6124988 234 88 12
4.8911214 -2.9621994 6.6429658 234 88 12
4.8836498 -2.9916029 6.6987767 234 88 12
4.8602071 -3.0069141 6.7262068 234 88 12
4.8409634 -3.0263064 6.7618208 234 88 12
4.8139296 -3.0387805 6.7835064 234 88 12
4.7885985 -3.0530252 6.808733 234 88 12
4.7637129 -3.0679016 6.8352084 234 88 12
4.7433248 -3.0872748 6.8706899 234 88 12
4.9713297 -2.9578261 6.5594368 234 88 12
4.9418221 -2.9669368 6.5743232 234 88 12
4.9237208 -2.9863772 6.609797 234 88 12
4.8934765 -2.9951475 6.6239743 234 88 12
4.8887568 -3.0272539 6.6846418 234 88 12
4.8611751 -3.0388908 6.7044916 234 88 12
4.841342 -3.057858 6.7389221 234 88 12
4.8184052 -3.0742183 6.7681384 234 88 12
4.793056 -3.088557 6.7933106 234 88 12
4.7664595 -3.1019266 6.8165369 234 88 12
4.749064 -3.1242936 6.8576345 234 88 12
4.9788046 -2.9950838 6.5495434 234 88 12
4.9486403 -3.0037019 6.5633116 234 88 12
4.9251137 -3.0184138 6.589107 234 88 12
4.9049315 -3.0363753 6.6212997 234 88 12
4.881001 -3.0511692 6.6472163 234 88 12
4.8637266 -3.0723243 6.6856656 234 88 12
4.8454466 -3.0928652 6.7228751 234 88 12
4.8215723 -3.1084673 6.7503195 234 88 12
4.7943125 -3.1210976 6.7718863 234 88 12
4.7755303 -3.1420064 6.8097482 234 88 12
4.9852948 -3.0315363 6.5378718 234 88 12
4.9555278 -3.0405958 6.5523715 234 88 12
4.9331374 -3.056468 6.5801916 234 88 12
4.9063292 -3.0685282 6.6005349 234 88 12
4.8870649 -3.0877147 6.6347976 234 88 12
4.8663712 -3.1058588 6.6669984 234 88 12
4.850163 -3.1284802 6.7079229 234 88 12
4.8237557 -3.1418085 6.7306666 234 88 12
4.8015933 -3.1593781 6.7616749 234 88 12
4.9983644 -3.0739675 6.5376315 234 88 12
4.9723315 -3.0865452 6.5588112 234 88 12
4.9359398 -3.0898333 6.5619678 234 88 12
4.9092655 -3.1020977 6.5825162 234 88 12
4.8951502 -3.1261954 6.6259713 234 88 12
4.8817244 -3.1513054 6.6713548 234 88 12
4.8598466 -3.1688249 6.702013 234 88 12
4.8295097 -3.1785576 6.7175817 234 88 12
5.0178638 -3.1223612 6.5484715 234 88 12
4.9775705 -3.1221297 6.5448346 234 88 12
4.945375 -3.1293166 6.5554466 234 88 12
4.934855 -3.1566911 6.6048059 234 88 12
4.9244986 -3.1846352 6.6552234 234 88 12
4.9031477 -3.2026486 6.686553 234 88 12
4.7312493 -2.5789948 7.0108075 234 88 12
4.7287726 -2.614733 7.0057082 234 88 12
4.7309198 -2.6530256 7.0101295 234 88 12
