ply
format ascii 1.0
element vertex 1531
property float x
property float y
property float z
property uchar red
property uchar green
property uchar blue
end_header
-0.075557433 -1.1051097 1.0829307 234 88 12
-0.070901871 -1.1049073 1.0829307 234 88 12
-0.066058755 -1.1052421 1.0846707 234 88 12
-0.075387351 -1.1090217 1.0804043 234 88 12
-0.07180538 -1.1058782 1.070755 234 88 12
-0.067112803 -1.1056743 1.070755 234 88 12
-0.042804062 -1.1075851 1.0803401 234 88 12
-0.075713709 -1.111632 1.0735505 234 88 12
-0.071516655 -1.1101396 1.0692662 234 88 12
-0.066826776 -1.1099396 1.0692788 234 88 12
-0.062243201 -1.1094296 1.0682626 234 88 12
-0.057850059 -1.1083182 1.0652524 234 88 12
-0.042633969 -1.1114973 1.0778135 234 88 12
-0.03400958 -1.1085044 1.0692514 234 88 12
-0.080215149 -1.115761 1.071015 234 88 12
-0.07508292 -1.1167527 1.0750389 234 88 12
-0.070851445 -1.115407 1.071191 234 88 12
-0.066064291 -1.1155262 1.0722752 234 88 12
-0.06161581 -1.1146907 1.0701481 234 88 12
-0.05706707 -1.1141068 1.0688691 234 88 12
-0.077930838 -1.1249441 1.0864253 234 88 12
-0.074666046 -1.1213003 1.0746769 234 88 12
-0.070079692 -1.1209327 1.0741127 234 88 12
-0.065429039 -1.1207305 1.0741127 234 88 12
-0.06112979 -1.119522 1.0706853 234 88 12
-0.056475829 -1.1192902 1.0705863 234 88 12
-0.051881514 -1.1188712 1.069851 234 88 12
-0.04757465 -1.1175059 1.0658985 234 88 12
-0.097268581 -1.1272397 1.0756996 234 88 12
-0.077762648 -1.1288126 1.083927 234 88 12
-0.073158935 -1.1286124 1.083927 234 88 12
-0.068246529 -1.1292261 1.0867387 234 88 12
-0.064544491 -1.1265914 1.0783319 234 88 12
-0.059919488 -1.1263903 1.0783319 234 88 12
-0.055830386 -1.1246096 1.0728843 234 88 12
-0.051346768 -1.1239103 1.0711701 234 88 12
-0.045854498 -1.1263947 1.0804251 234 88 12
-0.041237459 -1.126194 1.0804251 234 88 12
-0.036441345 -1.1266192 1.0825787 234 88 12
-0.099187054 -1.1266383 1.0573919 234 88 12
-0.08002647 -1.1267501 1.0606451 234 88 12
-0.073959671 -1.1300372 1.0728707 234 88 12
-0.067596123 -1.1343455 1.0886567 234 88 12
-0.063019857 -1.1341466 1.0886567 234 88 12
-0.058382925 -1.134118 1.0892524 234 88 12
-0.053808916 -1.1339191 1.0892524 234 88 12
-0.05079985 -1.1289649 1.0726455 234 88 12
-0.0460696 -1.1290585 1.073676 234 88 12
-0.040881813 -1.1306922 1.0800775 234 88 12
-0.036272965 -1.1304919 1.0800775 234 88 12
-0.078426495 -1.1341345 1.0703548 234 88 12
-0.072503947 -1.1371446 1.0817537 234 88 12
-0.067428939 -1.1381909 1.0861733 234 88 12
-0.062852666 -1.1379919 1.0861733 234 88 12
-0.058497604 -1.1371777 1.0839934 234 88 12
-0.053913072 -1.1369784 1.0839934 234 88 12
-0.04998653 -1.134799 1.0769864 234 88 12
-0.044926837 -1.1360061 1.0819647 234 88 12
-0.04033462 -1.1358064 1.0819647 234 88 12
-0.035990745 -1.134755 1.0789558 234 88 12
-0.031667192 -1.1335475 1.0753993 234 88 12
-0.027050097 -1.1333468 1.0753993 234 88 12
-0.090556249 -1.1421331 1.0804521 234 88 12
-0.090100296 -1.1326718 1.0470771 234 88 12
-0.076172985 -1.1430109 1.0857655 234 88 12
-0.071604565 -1.1428123 1.0857655 234 88 12
-0.067307383 -1.1419195 1.0832701 234 88 12
-0.062818892 -1.1414833 1.0824182 234 88 12
-0.058330111 -1.14103 1.0815057 234 88 12
-0.053745583 -1.1408306 1.0815057 234 88 12
-0.049393151 -1.1399398 1.0790251 234 88 12
-0.044799242 -1.13974 1.0790251 234 88 12
-0.04040892 -1.1388795 1.0766581 234 88 12
-0.035822559 -1.1386234 1.0764576 234 88 12
-0.090388618 -1.1459887 1.077962 234 88 12
-0.085392445 -1.1466933 1.0812649 234 88 12
-0.085213333 -1.1364285 1.0445186 234 88 12
-0.07835789 -1.141287 1.0629917 234 88 12
-0.071717992 -1.1459651 1.0807858 234 88 12
-0.06714014 -1.1457661 1.0807858 234 88 12
-0.06265153 -1.1453327 1.0799322 234 88 12
-0.058453307 -1.1440898 1.0761336 234 88 12
-0.053857893 -1.14389 1.0761336 234 88 12
-0.049304243 -1.1435671 1.0756857 234 88 12
-0.044631407 -1.1436002 1.0765322 234 88 12
-0.040302459 -1.1425489 1.0734404 234 88 12
-0.035721231 -1.1422668 1.0731431 234 88 12
-0.089983545 -1.1503496 1.0773444 234 88 12
-0.085225262 -1.1505386 1.0787815 234 88 12
-0.080944829 -1.1496699 1.0763031 234 88 12
-0.076359443 -1.1494706 1.0763031 234 88 12
-0.071567267 -1.1497718 1.0781537 234 88 12
-0.066988856 -1.1495727 1.0781537 234 88 12
-0.062784947 -1.1484003 1.0745599 234 88 12
-0.058427677 -1.1475674 1.0722237 234 88 12
-0.053989772 -1.1469107 1.0705392 234 88 12
-0.049388841 -1.1466924 1.0704731 234 88 12
-0.044739775 -1.1466191 1.0709411 234 88 12
-0.040159628 -1.146338 1.0706433 234 88 12
-0.03555293 -1.1461377 1.0706433 234 88 12
-0.09094049 -1.151832 1.065964 234 88 12
-0.085577838 -1.1532551 1.0720606 234 88 12
-0.080985866 -1.1530554 1.0720606 234 88 12
-0.076191925 -1.1533235 1.0738147 234 88 12
-0.071757972 -1.1527613 1.0724552 234 88 12
-0.067248814 -1.1523601 1.0716994 234 88 12
-0.063176662 -1.1508198 1.0666814 234 88 12
-0.058593813 -1.1505408 1.0663882 234 88 12
-0.054106526 -1.1499904 1.0650804 234 88 12
-0.049488317 -1.1497897 1.0650804 234 88 12
-0.045086835 -1.1489354 1.0626405 234 88 12
-0.040343225 -1.1491004 1.0640069 234 88 12
-0.036011953 -1.1479399 1.0604285 234 88 12
-0.08146064 -1.1554892 1.0641471 234 88 12
-0.076449804 -1.1562018 1.0676197 234 88 12
-0.071692891 -1.1563754 1.0690396 234 88 12
-0.067620352 -1.1548958 1.0641785 234 88 12
-0.063475937 -1.1535047 1.0596595 234 88 12
-0.058846798 -1.1533035 1.0596595 234 88 12
-0.054164041 -1.1532495 1.0602179 234 88 12
-0.049582835 -1.1529171 1.0597211 234 88 12
-0.045113973 -1.1522384 1.0579128 234 88 12
-0.040505003 -1.1519535 1.0575976 234 88 12
-0.081292138 -1.1593648 1.0616442 234 88 12
-0.076679826 -1.1591642 1.0616442 234 88 12
-0.072185501 -1.1586871 1.0605779 234 88 12
-0.067989968 -1.1574646 1.0566422 234 88 12
-0.065160766 -1.1527262 1.0391769 234 88 12
-0.054799441 -1.1549506 1.0492994 234 88 12
-0.050140928 -1.1547481 1.0492994 234 88 12
-0.081791833 -1.1617908 1.053467 234 88 12
-0.077158324 -1.1615894 1.053467 234 88 12
-0.038890101 -1.1134243 1.0862606 234 88 12
-0.042037353 -1.1042354 1.0787139 234 88 12
-0.045719791 -1.1112878 1.0790211 234 88 12
-0.033322979 -1.1116542 1.0695523 234 88 12
-0.063546054 -1.1023482 1.0731661 234 88 12
-0.061831005 -1.0962009 1.0650539 234 88 12
-0.069658078 -1.100637 1.0659093 234 88 12
-0.066064142 -1.0956573 1.0575398 234 88 12
-0.07225427 -1.1011025 1.0582039 234 88 12
-0.074715689 -1.1016546 1.0504686 234 88 12
-0.07559716 -1.1031927 1.0425018 234 88 12
-0.065507911 -1.1038487 1.0887731 234 88 12
-0.078667156 -1.125151 1.086026 234 88 12
-0.088394456 -1.1426352 1.0838253 234 88 12
-0.085943386 -1.147308 1.0834929 234 88 12
-0.074171379 -1.1423531 1.0845726 234 88 12
-0.069509409 -1.1447667 1.0845726 234 88 12
-0.060576871 -1.1428375 1.0852129 234 88 12
-0.044254366 -1.133495 1.0869515 234 88 12
-0.074591652 -1.1066704 1.0831833 234 88 12
-0.066338994 -1.105454 1.0837045 234 88 12
-0.079484947 -1.1267306 1.0810384 234 88 12
-0.089201607 -1.1441942 1.0789027 234 88 12
-0.087665148 -1.1498128 1.0784448 234 88 12
-0.082116984 -1.1512619 1.0785799 234 88 12
-0.074957348 -1.151075 1.0789496 234 88 12
-0.067489453 -1.1506073 1.0793611 234 88 12
-0.053083371 -1.143169 1.0807754 234 88 12
-0.043792233 -1.1409872 1.0814393 234 88 12
-0.031297237 -1.1356678 1.0825584 234 88 12
-0.09507183 -1.1291366 1.0752698 234 88 12
-0.075887091 -1.1162558 1.0773723 234 88 12
-0.072318487 -1.1199402 1.077203 234 88 12
-0.090008751 -1.1457533 1.0739801 234 88 12
-0.087554462 -1.1504197 1.073667 234 88 12
-0.082330152 -1.1522086 1.0737516 234 88 12
-0.075764731 -1.1526345 1.0740255 234 88 12
-0.069919072 -1.1538162 1.0741955 234 88 12
-0.059276108 -1.1501719 1.0750393 234 88 12
-0.045861412 -1.1438236 1.0762644 234 88 12
-0.036520563 -1.1416451 1.0769107 234 88 12
-0.078473017 -1.1122313 1.0727638 234 88 12
-0.076711677 -1.1178484 1.0723432 234 88 12
-0.075291328 -1.1237826 1.0718786 234 88 12
-0.091640033 -1.1481701 1.0689425 234 88 12
-0.087002344 -1.1505712 1.0689425 234 88 12
-0.083136126 -1.1537653 1.068836 234 88 12
-0.076572113 -1.1541939 1.0691015 234 88 12
-0.070727326 -1.1553774 1.0692661 234 88 12
-0.059346028 -1.1509923 1.0701846 234 88 12
-0.050021462 -1.1487538 1.0708162 234 88 12
-0.040654041 -1.146531 1.0714482 234 88 12
-0.032614935 -1.1456809 1.0718962 234 88 12
-0.077469595 -1.1043389 1.0686247 234 88 12
-0.080420092 -1.1150162 1.0675679 234 88 12
-0.078259952 -1.1202036 1.0672157 234 88 12
-0.076113455 -1.1253706 1.0668646 234 88 12
-0.092446566 -1.1497279 1.0640236 234 88 12
-0.074322701 -1.138188 1.0658351 234 88 12
-0.074185953 -1.1453006 1.0652255 234 88 12
-0.080056667 -1.158486 1.0638207 234 88 12
-0.072279729 -1.1576933 1.064238 234 88 12
-0.063170284 -1.1555977 1.0648277 234 88 12
-0.050497498 -1.1499898 1.0658813 234 88 12
-0.043531366 -1.1501622 1.0661787 234 88 12
-0.033437151 -1.147269 1.0668817 234 88 12
-0.085322112 -1.1134343 1.0626198 234 88 12
-0.081946388 -1.1173538 1.0624379 234 88 12
-0.07935638 -1.1220821 1.0621541 234 88 12
-0.076106831 -1.1260914 1.0619591 234 88 12
-0.086357191 -1.1441163 1.0600045 234 88 12
-0.074121319 -1.1387135 1.0609878 234 88 12
-0.074878469 -1.1467474 1.0602819 234 88 12
-0.08086209 -1.1600416 1.0589086 234 88 12
-0.073087439 -1.1592534 1.0593119 234 88 12
-0.062105864 -1.1552751 1.0601214 234 88 12
-0.051314227 -1.1515673 1.0609002 234 88 12
-0.044649988 -1.1520414 1.0611496 234 88 12
-0.035591904 -1.1501741 1.0616989 234 88 12
-0.080493756 -1.1090025 1.0583044 234 88 12
-0.082576416 -1.1187412 1.0574285 234 88 12
-0.079239957 -1.1226839 1.0572491 234 88 12
-0.076929569 -1.1276804 1.0569414 234 88 12
-0.087168835 -1.145684 1.0550543 234 88 12
-0.080367796 -1.1458972 1.0553222 234 88 12
-0.076149382 -1.1487876 1.0552649 234 88 12
-0.079747528 -1.1596401 1.0542353 234 88 12
-0.073895156 -1.1608135 1.0543857 234 88 12
-0.058115885 -1.1520104 1.05576 234 88 12
-0.051675808 -1.1526896 1.0559751 234 88 12
-0.044010777 -1.1521733 1.0563382 234 88 12
-0.032243893 -1.1547482 1.056623 234 88 12
-0.079909168 -1.1090993 1.0534129 234 88 12
-0.082184963 -1.1190475 1.0525432 234 88 12
-0.078871071 -1.1230212 1.0523667 234 88 12
-0.079363644 -1.1309534 1.0517268 234 88 12
-0.075213179 -1.1339947 1.0516571 234 88 12
-0.074492522 -1.1405671 1.0511725 234 88 12
-0.076962262 -1.1503577 1.0503073 234 88 12
-0.072288089 -1.1527777 1.0503073 234 88 12
-0.066350341 -1.1539186 1.0504584 234 88 12
-0.057151839 -1.1517959 1.0509965 234 88 12
-0.051399168 -1.1531745 1.0511216 234 88 12
-0.043280467 -1.1522164 1.051525 234 88 12
-0.079712577 -1.1171541 1.047894 234 88 12
-0.088916197 -1.1343062 1.0462427 234 88 12
-0.084209494 -1.1367431 1.0462427 234 88 12
-0.075928561 -1.135471 1.0466616 234 88 12
-0.073673457 -1.1404592 1.0463737 234 88 12
-0.068961985 -1.1428984 1.0463737 234 88 12
-0.064461708 -1.1455528 1.0463493 234 88 12
-0.055615585 -1.1438082 1.0468258 234 88 12
-0.050887648 -1.1462561 1.0468258 234 88 12
-0.046159711 -1.1487039 1.0468258 234 88 12
-0.079646699 -1.1178093 1.0429403 234 88 12
-0.075774729 -1.1212233 1.042838 234 88 12
-0.085028037 -1.138324 1.0412506 234 88 12
-0.075647354 -1.1359138 1.0417775 234 88 12
-0.072027802 -1.1395018 1.0416533 234 88 12
-0.066845633 -1.1414753 1.0417047 234 88 12
-0.067247383 -1.1491357 1.0411341 234 88 12
-0.062545091 -1.1515702 1.0411341 234 88 12
-0.07239107 -1.1406164 1.0366943 234 88 12
-0.077049784 -1.1053315 1.0852053 234 88 12
-0.072334692 -1.1047087 1.0852053 234 88 12
-0.058820609 -1.1330599 1.0915371 234 88 12
-0.0626873 -1.1041874 1.0853635 234 88 12
-0.075793721 -1.1413648 1.0883043 234 88 12
-0.071202047 -1.1407582 1.0883043 234 88 12
-0.067781776 -1.1363961 1.0874686 234 88 12
-0.063175835 -1.1357875 1.0874686 234 88 12
-0.058518156 -1.1353492 1.0875065 234 88 12
-0.053912856 -1.1347408 1.0875065 234 88 12
-0.047136676 -1.1084927 1.0820888 234 88 12
-0.042438839 -1.1078721 1.0820888 234 88 12
-0.09577889 -1.1258612 1.0798385 234 88 12
-0.075492159 -1.1436474 1.0842855 234 88 12
-0.070900485 -1.1430408 1.0842855 234 88 12
-0.066531859 -1.1417198 1.0841238 234 88 12
-0.061937466 -1.1411129 1.0841238 234 88 12
-0.057633698 -1.1395509 1.0839081 234 88 12
-0.053035673 -1.1389436 1.0839081 234 88 12
-0.04452233 -1.1353943 1.0833813 234 88 12
-0.040103279 -1.1341348 1.0832344 234 88 12
-0.036971178 -1.1283351 1.0820642 234 88 12
-0.10013893 -1.1287975 1.0757543 234 88 12
-0.088782027 -1.148302 1.080394 234 88 12
-0.083852082 -1.1487318 1.0806329 234 88 12
-0.075190596 -1.1459301 1.0802667 234 88 12
-0.069870442 -1.1476246 1.0807964 234 88 12
-0.065817475 -1.1453239 1.0804064 234 88 12
-0.061635729 -1.1433969 1.0801028 234 88 12
-0.057331719 -1.1418368 1.0798838 234 88 12
-0.052733693 -1.1412293 1.0798838 234 88 12
-0.048173428 -1.1404946 1.0798545 234 88 12
-0.043574922 -1.139887 1.0798545 234 88 12
-0.039800558 -1.1364261 1.0792003 234 88 12
-0.035496451 -1.1347457 1.0789546 234 88 12
-0.031397391 -1.1323054 1.0785352 234 88 12
-0.088480607 -1.1505835 1.0763772 234 88 12
-0.083550923 -1.1510113 1.0766195 234 88 12
-0.078773186 -1.1509969 1.0767579 234 88 12
-0.074189849 -1.1503913 1.0767579 234 88 12
-0.069569461 -1.1499028 1.0767853 234 88 12
-0.06551607 -1.1476053 1.0763897 234 88 12
-0.061140273 -1.1463077 1.0762281 234 88 12
-0.056988996 -1.144256 1.0758907 234 88 12
-0.052391481 -1.1436486 1.0758907 234 88 12
-0.047871418 -1.1427805 1.0758299 234 88 12
-0.043272913 -1.1421731 1.0758299 234 88 12
-0.039259899 -1.1395404 1.0753578 234 88 12
-0.035193462 -1.1370391 1.0749168 234 88 12
-0.031093946 -1.1346022 1.0744913 234 88 12
-0.026473556 -1.1339918 1.0744913 234 88 12
-0.090038314 -1.1472867 1.0710316 234 88 12
-0.083347313 -1.1529946 1.0725355 234 88 12
-0.078472167 -1.1532754 1.0727465 234 88 12
-0.073888831 -1.1526698 1.0727465 234 88 12
-0.069607273 -1.1511132 1.0725204 234 88 12
-0.065052338 -1.1504049 1.0724961 234 88 12
-0.06129821 -1.1471049 1.0718564 234 88 12
-0.056700528 -1.1464974 1.0718564 234 88 12
-0.05218463 -1.1456186 1.0717919 234 88 12
-0.047515038 -1.1452494 1.0718485 234 88 12
-0.042917229 -1.144642 1.0718485 234 88 12
-0.03827928 -1.1441731 1.0718813 234 88 12
-0.033682 -1.1435658 1.0718813 234 88 12
-0.03771358 -1.1123064 1.0646279 234 88 12
-0.032999396 -1.1116836 1.0646279 234 88 12
-0.10350095 -1.1230778 1.0604314 234 88 12
-0.089735486 -1.1495788 1.0669959 234 88 12
-0.085124515 -1.1489697 1.0669959 234 88 12
-0.078691162 -1.1539569 1.068349 234 88 12
-0.073616058 -1.1548605 1.0687138 234 88 12
-0.069338426 -1.1532913 1.0684811 234 88 12
-0.065230355 -1.1511571 1.0681121 234 88 12
-0.061089974 -1.1490878 1.0677593 234 88 12
-0.056491129 -1.1484802 1.0677593 234 88 12
-0.05221406 -1.1468059 1.0675021 234 88 12
-0.047611129 -1.1461978 1.0675021 234 88 12
-0.042975202 -1.1457021 1.0675292 234 88 12
-0.038372703 -1.145094 1.0675292 234 88 12
-0.033380069 -1.1458513 1.0678576 234 88 12
-0.087560751 -1.1429622 1.0609208 234 88 12
-0.078663677 -1.1553981 1.0641258 234 88 12
-0.074070968 -1.1547914 1.0641258 234 88 12
-0.069521926 -1.1540474 1.064092 234 88 12
-0.064928688 -1.1534405 1.064092 234 88 12
-0.061044462 -1.1505463 1.0635314 234 88 12
-0.056592751 -1.1494471 1.0634111 234 88 12
-0.05198884 -1.1488389 1.0634111 234 88 12
-0.047394093 -1.1481999 1.0634036 234 88 12
-0.042672928 -1.14799 1.063501 234 88 12
-0.038070429 -1.147382 1.063501 234 88 12
-0.034770608 -1.1422199 1.0623882 234 88 12
-0.082283214 -1.1603205 1.0606134 234 88 12
-0.07769835 -1.1597148 1.0606134 234 88 12
-0.073187418 -1.1588798 1.0605562 234 88 12
-0.06922026 -1.1563307 1.0600719 234 88 12
-0.06543684 -1.1531475 1.0594302 234 88 12
-0.061101392 -1.1516767 1.0592155 234 88 12
-0.056299776 -1.1517051 1.059374 234 88 12
-0.051686477 -1.1511276 1.0593816 234 88 12
-0.047212105 -1.1500851 1.0592737 234 88 12
-0.042706799 -1.1491359 1.0591891 234 88 12
-0.038099911 -1.1485273 1.0591891 234 88 12
-0.082940571 -1.1597022 1.0558662 234 88 12
-0.078344502 -1.1590949 1.0558662 234 88 12
-0.073748432 -1.1584877 1.0558662 234 88 12
-0.071143761 -1.151632 1.054285 234 88 12
-0.066523567 -1.1510216 1.054285 234 88 12
-0.062066898 -1.1498848 1.0541519 234 88 12
-0.056634117 -1.1519175 1.0548198 234 88 12
-0.051790204 -1.1520743 1.0550133 234 88 12
-0.047410056 -1.1506989 1.0548198 234 88 12
-0.042798024 -1.1500895 1.0548198 234 88 12
-0.03779735 -1.1508174 1.0551571 234 88 12
-0.091031954 -1.1366423 1.0453219 234 88 12
-0.078042656 -1.1613797 1.0518436 234 88 12
-0.076160297 -1.1523732 1.0496845 234 88 12
-0.07153172 -1.1517617 1.0496845 234 88 12
-0.066385552 -1.1527933 1.0501064 234 88 12
-0.063946255 -1.1451635 1.0483049 234 88 12
-0.056919385 -1.1522942 1.0502918 234 88 12
-0.052299954 -1.1516839 1.0502918 234 88 12
-0.047469471 -1.1517797 1.0504726 234 88 12
-0.043645993 -1.1484802 1.0497838 234 88 12
-0.074652381 -1.1433409 1.0428371 234 88 12
-0.069982253 -1.142724 1.0428371 234 88 12
-0.069356568 -1.1291168 1.0394526 234 88 12
-0.075850345 -1.1409571 1.0375041 234 88 12
-0.067809097 -1.1509571 1.0403138 234 88 12
-0.06316191 -1.1503432 1.0403138 234 88 12
-0.068433665 -1.106999 1.0366628 234 88 12
-0.079799458 -1.1088736 1.0366628 234 88 12
-0.088878259 -1.1385378 1.0322697 234 88 12
-0.049607504 -1.1295589 1.0984815 234 88 12
-0.059928071 -1.1340994 1.0980314 234 88 12
-0.067978084 -1.1416334 1.0978761 234 88 12
-0.03314485 -1.1163807 1.0882715 234 88 12
-0.060863141 -1.0980699 1.0856743 234 88 12
-0.070571803 -1.1033137 1.0853136 234 88 12
-0.077388607 -1.1123738 1.0853136 234 88 12
-0.078308657 -1.1293763 1.0860566 234 88 12
-0.084119745 -1.1398544 1.0861864 234 88 12
-0.090960242 -1.1489462 1.0861864 234 88 12
-0.041495383 -1.1069949 1.0766872 234 88 12
-0.059166465 -1.1018852 1.075397 234 88 12
-0.070462108 -1.1050571 1.0748627 234 88 12
-0.076605782 -1.1150445 1.074945 234 88 12
-0.081632078 -1.1265502 1.0751626 234 88 12
-0.094723865 -1.1271451 1.0744045 234 88 12
-0.093738258 -1.146856 1.0753529 234 88 12
-0.086043812 -1.1759404 1.0771264 234 88 12
-0.030687233 -1.1045141 1.0665572 234 88 12
-0.037588242 -1.1136862 1.0665572 234 88 12
-0.062203787 -1.0994527 1.0645319 234 88 12
-0.071000271 -1.1059434 1.0643076 234 88 12
-0.079379097 -1.112958 1.0641298 234 88 12
-0.086208023 -1.1220342 1.0641298 234 88 12
-0.088768251 -1.1369064 1.0646245 234 88 12
-0.092321716 -1.1504999 1.0650072 234 88 12
-0.064173386 -1.0984315 1.053786 234 88 12
-0.072806157 -1.1051458 1.0535902 234 88 12
-0.080296464 -1.1133586 1.0535184 234 88 12
-0.085106619 -1.125176 1.0537417 234 88 12
-0.089496739 -1.1376015 1.0540129 234 88 12
-0.092578262 -1.1518625 1.0544312 234 88 12
-0.06518732 -1.0986756 1.0431309 234 88 12
-0.073283643 -1.106119 1.0430009 234 88 12
-0.080022752 -1.1153597 1.0430121 234 88 12
-0.08594688 -1.1257026 1.0431088 234 88 12
-0.08908169 -1.1398547 1.0434998 234 88 12
-0.085498661 -1.1632708 1.0446035 234 88 12
-0.043100595 -1.1294992 1.0347351 234 88 12
-0.07366614 -1.1072224 1.0323969 234 88 12
-0.080356166 -1.116551 1.0324132 234 88 12
-0.080896169 -1.1341914 1.0330422 234 88 12
-0.075238317 -1.1603798 1.0342952 234 88 12
-0.066168852 -1.1027238 1.0934585 234 88 12
-0.065632753 -1.112464 1.0934585 234 88 12
-0.068461068 -1.1209737 1.0922099 234 88 12
-0.07626991 -1.1276201 1.089114 234 88 12
-0.088964976 -1.1323845 1.0842066 234 88 12
-0.089689724 -1.1415606 1.0837408 234 88 12
-0.087902829 -1.1516821 1.0842066 234 88 12
-0.070226185 -1.1014266 1.0823596 234 88 12
-0.075312413 -1.1091173 1.0802933 234 88 12
-0.075565271 -1.1185354 1.080004 234 88 12
-0.076649271 -1.127641 1.0794095 234 88 12
-0.096047513 -1.1299047 1.0720875 234 88 12
-0.090067014 -1.1415813 1.0740895 234 88 12
-0.090098247 -1.1510118 1.0738831 234 88 12
-0.081167191 -1.1638771 1.076967 234 88 12
-0.072972104 -1.1005993 1.0717646 234 88 12
-0.076917127 -1.1086944 1.0701342 234 88 12
-0.081334159 -1.1165848 1.0683326 234 88 12
-0.07726378 -1.1275749 1.0696194 234 88 12
-0.076730087 -1.1372713 1.0696194 234 88 12
-0.090444297 -1.141602 1.0644381 234 88 12
-0.090475447 -1.1510326 1.0642338 234 88 12
-0.079372056 -1.1647321 1.0680771 234 88 12
-0.033479568 -1.105251 1.0766056 234 88 12
-0.074521951 -1.1002007 1.0616179 234 88 12
-0.077319413 -1.1087071 1.0604172 234 88 12
-0.081712976 -1.1166056 1.0586419 234 88 12
-0.076383129 -1.1280614 1.0603697 234 88 12
-0.077109411 -1.1372921 1.0599159 234 88 12
-0.086816311 -1.1431315 1.0562288 234 88 12
-0.086284682 -1.1527903 1.0562288 234 88 12
-0.079750776 -1.164753 1.0583891 234 88 12
-0.033865537 -1.1052722 1.066732 234 88 12
-0.074400172 -1.1004015 1.0520759 234 88 12
-0.077136204 -1.1089319 1.0509092 234 88 12
-0.077296585 -1.1183813 1.0506614 234 88 12
-0.076762639 -1.1280823 1.0506614 234 88 12
-0.086133599 -1.1340874 1.0471303 234 88 12
-0.08560165 -1.1437521 1.0471303 234 88 12
-0.079403013 -1.1555718 1.0491498 234 88 12
-0.078869916 -1.1652573 1.0491498 234 88 12
-0.072485089 -1.101246 1.0431638 234 88 12
-0.076728843 -1.109238 1.0414762 234 88 12
-0.076981723 -1.1186563 1.0411984 234 88 12
-0.076125249 -1.128479 1.0413122 234 88 12
-0.076102868 -1.1379927 1.0411316 234 88 12
-0.07315129 -1.1486064 1.0419846 234 88 12
-0.064391263 -1.1614467 1.044886 234 88 12
-0.070700929 -1.1115814 1.0340019 234 88 12
-0.071264297 -1.1209091 1.033618 234 88 12
-0.06969367 -1.1310177 1.0339797 234 88 12
-0.072522506 -1.1394916 1.0328046 234 88 12
-0.065308563 -1.1517259 1.0351369 234 88 12
-0.092087351 -1.1511353 1.0815473 234 88 12
-0.079631917 -1.1518384 1.0803994 234 88 12
-0.072532743 -1.1495621 1.0800502 234 88 12
-0.066352762 -1.1467788 1.0798376 234 88 12
-0.058262739 -1.1451048 1.0793347 234 88 12
-0.04966706 -1.1437492 1.0787523 234 88 12
-0.042941257 -1.1413343 1.0784509 234 88 12
-0.038952481 -1.137329 1.0785654 234 88 12
-0.032225251 -1.1349354 1.0782614 234 88 12
-0.027490281 -1.1313728 1.0782614 234 88 12
-0.06387648 -1.1031895 1.0845917 234 88 12
-0.043358352 -1.1089743 1.0821737 234 88 12
-0.086384498 -1.1551729 1.0751572 234 88 12
-0.076292925 -1.1545591 1.0743794 234 88 12
-0.069904722 -1.1518874 1.0741416 234 88 12
-0.065079771 -1.1483362 1.0741328 234 88 12
-0.056582727 -1.1468949 1.0735811 234 88 12
-0.046590503 -1.1463475 1.0728045 234 88 12
-0.037977573 -1.1450381 1.0722282 234 88 12
-0.033250365 -1.1414814 1.0722282 234 88 12
-0.031136695 -1.1363821 1.0726192 234 88 12
-0.026401727 -1.1328197 1.0726192 234 88 12
-0.067079425 -1.1020896 1.0794533 234 88 12
-0.042252347 -1.1104443 1.0764412 234 88 12
-0.085284352 -1.1566352 1.0694549 234 88 12
-0.075196333 -1.1560166 1.0686958 234 88 12
-0.068927139 -1.1532767 1.0684805 234 88 12
-0.060867157 -1.1515691 1.068006 234 88 12
-0.053399898 -1.149547 1.0676143 234 88 12
-0.044002157 -1.1486616 1.0669408 234 88 12
-0.039267927 -1.1450995 1.0669408 234 88 12
-0.03629306 -1.1405071 1.0671972 234 88 12
-0.035350747 -1.134702 1.0677521 234 88 12
-0.045614626 -1.1222132 1.0699532 234 88 12
-0.061896659 -1.1060065 1.0730522 234 88 12
-0.034486152 -1.1094152 1.070435 234 88 12
-0.081236616 -1.1597421 1.0633419 234 88 12
-0.07306087 -1.1580578 1.0628667 234 88 12
-0.068226174 -1.1545095 1.0628573 234 88 12
-0.058672875 -1.1536493 1.0621841 234 88 12
-0.051428556 -1.1515023 1.0618327 234 88 12
-0.043901891 -1.1495377 1.0614393 234 88 12
-0.038179543 -1.1465461 1.0612996 234 88 12
-0.03799165 -1.1403235 1.0619464 234 88 12
-0.038973317 -1.1333756 1.062764 234 88 12
-0.04380158 -1.1241001 1.0641372 234 88 12
-0.048737649 -1.1146829 1.065534 234 88 12
-0.080138445 -1.1612017 1.05765 234 88 12
-0.071964972 -1.1595143 1.0571866 234 88 12
-0.068093382 -1.1554217 1.057309 234 88 12
-0.05801725 -1.1548529 1.0565809 234 88 12
-0.050337616 -1.1529522 1.0561782 234 88 12
-0.042812835 -1.1509851 1.0557946 234 88 12
-0.03921622 -1.1467586 1.0559524 234 88 12
-0.038374308 -1.1409123 1.0564938 234 88 12
-0.042361464 -1.1321921 1.0577109 234 88 12
-0.04434634 -1.1245887 1.0586555 234 88 12
-0.048166066 -1.1158359 1.0598629 234 88 12
-0.08033523 -1.1619401 1.0521297 234 88 12
-0.075554669 -1.1583432 1.0521297 234 88 12
-0.071137436 -1.1545411 1.0521783 234 88 12
-0.059622467 -1.1547716 1.0512772 234 88 12
-0.051410239 -1.1531638 1.0508142 234 88 12
-0.045670521 -1.150158 1.0506811 234 88 12
-0.041278973 -1.1463778 1.0507294 234 88 12
-0.041848715 -1.1396962 1.0514497 234 88 12
-0.046448737 -1.1306019 1.0527216 234 88 12
-0.048025321 -1.1232229 1.0535893 234 88 12
-0.05097929 -1.1149714 1.0546504 234 88 12
-0.085178472 -1.1474611 1.0484492 234 88 12
-0.070266113 -1.1495591 1.0471338 234 88 12
-0.057203904 -1.1506776 1.0460527 234 88 12
-0.048819739 -1.1491671 1.0455788 234 88 12
-0.047831371 -1.1433973 1.0460752 234 88 12
-0.054727241 -1.1329958 1.0476149 234 88 12
-0.05199983 -1.1281567 1.0478902 234 88 12
-0.049179059 -1.1233561 1.0481547 234 88 12
-0.05702994 -1.1121823 1.0498418 234 88 12
-0.067521095 -1.1519567 1.0412099 234 88 12
-0.062729575 -1.1483516 1.0412099 234 88 12
-0.067453772 -1.1392722 1.0424255 234 88 12
-0.065680958 -1.1338812 1.0428159 234 88 12
-0.059838373 -1.1308393 1.0426856 234 88 12
-0.056470942 -1.1263524 1.0428736 234 88 12
-0.062709183 -1.1161751 1.0443044 234 88 12
-0.074721329 -1.1423411 1.0371232 234 88 12
-0.069891192 -1.138707 1.0371232 234 88 12
-0.077234603 -1.1215311 1.0392494 234 88 12
-0.072353862 -1.1178589 1.0392494 234 88 12
-0.059508264 -1.1364558 1.0976257 234 88 12
-0.072959997 -1.1347518 1.0979844 234 88 12
-0.041133232 -1.1484581 1.0876489 234 88 12
-0.039153948 -1.1339201 1.0874622 234 88 12
-0.043291371 -1.1245563 1.0874773 234 88 12
-0.048987281 -1.1164825 1.0875435 234 88 12
-0.069664344 -1.120754 1.0881006 234 88 12
-0.067305073 -1.1059517 1.0879019 234 88 12
-0.079304203 -1.1029148 1.0881732 234 88 12
-0.035048477 -1.1578982 1.0779794 234 88 12
-0.028474486 -1.1394259 1.0776818 234 88 12
-0.032148927 -1.1296932 1.0776818 234 88 12
-0.039234877 -1.122815 1.0777804 234 88 12
-0.041310027 -1.1117344 1.0777341 234 88 12
-0.059730925 -1.114175 1.0781592 234 88 12
-0.063686445 -1.1045855 1.0781665 234 88 12
-0.07567329 -1.101544 1.0784048 234 88 12
-0.031439498 -1.1565356 1.0682701 234 88 12
-0.028731901 -1.1413352 1.06811 234 88 12
-0.031956524 -1.1312028 1.0680985 234 88 12
-0.035636164 -1.1214564 1.0680985 234 88 12
-0.034070469 -1.1073451 1.0679679 234 88 12
-0.056112677 -1.1128089 1.0684248 234 88 12
-0.064653315 -1.1069865 1.068545 234 88 12
-0.072126694 -1.100242 1.0686384 234 88 12
-0.081348687 -1.0948762 1.0687748 234 88 12
-0.036294624 -1.1624031 1.0587388 234 88 12
-0.034034688 -1.1475328 1.0586134 234 88 12
-0.037728686 -1.1377482 1.0586134 234 88 12
-0.042788003 -1.129108 1.058642 234 88 12
-0.048794813 -1.1212423 1.0586904 234 88 12
-0.055089314 -1.1135901 1.0587447 234 88 12
-0.061321355 -1.1058592 1.0587974 234 88 12
-0.068710469 -1.0990467 1.0588741 234 88 12
-0.07688424 -1.0928324 1.0589669 234 88 12
-0.03637607 -1.1512271 1.0489951 234 88 12
-0.038905799 -1.1404277 1.0489752 234 88 12
-0.043256536 -1.1311685 1.0489862 234 88 12
-0.04862332 -1.1227491 1.0490144 234 88 12
-0.053179555 -1.1136408 1.0490289 234 88 12
-0.059219006 -1.1057439 1.0490682 234 88 12
-0.066051468 -1.0984707 1.0491208 234 88 12
-0.077449284 -1.0948731 1.0492501 234 88 12
-0.040935591 -1.1438344 1.0393095 234 88 12
-0.045559797 -1.1347748 1.0393214 234 88 12
-0.049132384 -1.1248283 1.0393196 234 88 12
-0.053599928 -1.115625 1.0393294 234 88 12
-0.059467737 -1.1075668 1.0393572 234 88 12
-0.067373157 -1.1011531 1.0394111 234 88 12
-0.06787122 -1.1421323 1.029754 234 88 12
-0.079111494 -1.1384282 1.0298207 234 88 12
-0.032572608 -1.1472635 1.0930864 234 88 12
-0.041783407 -1.1327815 1.0928445 234 88 12
-0.055747304 -1.1360997 1.0930333 234 88 12
-0.063379839 -1.1161783 1.0926588 234 88 12
-0.075204477 -1.1117141 1.0926588 234 88 12
-0.098135583 -1.1465727 1.0936152 234 88 12
-0.021108456 -1.1553527 1.0814471 234 88 12
-0.028280886 -1.1328799 1.0810726 234 88 12
-0.035997547 -1.1129429 1.0807499 234 88 12
-0.047795802 -1.1084888 1.0807499 234 88 12
-0.060034227 -1.1056362 1.0807834 234 88 12
-0.071837917 -1.1011798 1.0807834 234 88 12
-0.087257095 -1.1095299 1.0810519 234 88 12
-0.019448048 -1.1509547 1.0696149 234 88 12
-0.027446849 -1.1316085 1.069355 234 88 12
-0.034530152 -1.1092501 1.0690416 234 88 12
-0.046585135 -1.1057342 1.0690581 234 88 12
-0.061707675 -1.1133603 1.0692704 234 88 12
-0.073552407 -1.1088884 1.0692704 234 88 12
-0.085571758 -1.1050354 1.0692812 234 88 12
-0.10406882 -1.1238172 1.0696914 234 88 12
-0.022536406 -1.164848 1.0580413 234 88 12
-0.028046215 -1.1357836 1.0576937 234 88 12
-0.037700418 -1.1229228 1.0575751 234 88 12
-0.049101025 -1.1167421 1.0575509 234 88 12
-0.06022666 -1.1096064 1.0575131 234 88 12
-0.072068915 -1.1051173 1.0575129 234 88 12
-0.084029712 -1.1010489 1.0575186 234 88 12
-0.098993279 -1.1074741 1.0576742 234 88 12
-0.029048678 -1.1414996 1.0459918 234 88 12
-0.03728709 -1.1231891 1.0458424 234 88 12
-0.047789715 -1.1136258 1.0457873 234 88 12
-0.059416939 -1.1082993 1.0457782 234 88 12
-0.07120961 -1.1035905 1.0457757 234 88 12
-0.083550721 -1.1008329 1.0457944 234 88 12
-0.041022293 -1.13901 1.0341945 234 88 12
-0.04819094 -1.1168407 1.0340626 234 88 12
-0.058723651 -1.1074195 1.0340257 234 88 12
-0.070938066 -1.10418 1.034035 234 88 12
-0.084668063 -1.1062845 1.0340844 234 88 12
-0.050485898 -1.1270074 1.0988553 234 88 12
-0.069933839 -1.1081557 1.0942271 234 88 12
-0.077776313 -1.1291486 1.0971565 234 88 12
-0.023709876 -1.1236253 1.0872611 234 88 12
-0.041787863 -1.1101278 1.0837034 234 88 12
-0.058502063 -1.100759 1.0809258 234 88 12
-0.071077228 -1.1052473 1.0807341 234 88 12
-0.083053827 -1.1117973 1.0809258 234 88 12
-0.09213338 -1.1286288 1.0830233 234 88 12
-0.10017562 -1.149496 1.0858614 234 88 12
-0.028785544 -1.1077428 1.0712703 234 88 12
-0.043955322 -1.103814 1.0695366 234 88 12
-0.058054853 -1.103272 1.0684265 234 88 12
-0.070449561 -1.1084406 1.0683614 234 88 12
-0.082739353 -1.1139661 1.0683614 234 88 12
-0.093852162 -1.1236583 1.0691189 234 88 12
-0.10102601 -1.1476045 1.0724612 234 88 12
-0.026733464 -1.1154643 1.05962 234 88 12
-0.044794124 -1.1019572 1.0562009 234 88 12
-0.058447085 -1.1029325 1.0553846 234 88 12
-0.07119102 -1.1069181 1.0551089 234 88 12
-0.083039761 -1.1139891 1.0553846 234 88 12
-0.09454681 -1.1223127 1.0558827 234 88 12
-0.10015441 -1.1518958 1.060161 234 88 12
-0.044996951 -1.1022353 1.0432401 234 88 12
-0.058430169 -1.1039857 1.0425757 234 88 12
-0.070994198 -1.1086305 1.0424203 234 88 12
-0.083088763 -1.1148919 1.0425478 234 88 12
-0.0944997 -1.123595 1.0431012 234 88 12
-0.096308574 -1.1668736 1.0496782 234 88 12
-0.036165398 -1.1328522 1.0354806 234 88 12
-0.058003549 -1.1064346 1.0299851 234 88 12
-0.070981562 -1.10971 1.0295969 234 88 12
-0.08281976 -1.116908 1.0298814 234 88 12
-0.090433203 -1.1391224 1.0327313 234 88 12
-0.066219904 -1.1018084 1.0922713 234 88 12
-0.076677978 -1.1082685 1.0889044 234 88 12
-0.077484824 -1.1236873 1.0916348 234 88 12
-0.083526686 -1.1342305 1.0910544 234 88 12
-0.091211595 -1.1432015 1.0894268 234 88 12
-0.042932622 -1.1062026 1.0901433 234 88 12
-0.069177598 -1.0982578 1.0769697 234 88 12
-0.074936852 -1.1090513 1.0765692 234 88 12
-0.0800552 -1.1204357 1.0765692 234 88 12
-0.093319684 -1.1241449 1.0714455 234 88 12
-0.098420478 -1.1354902 1.0714455 234 88 12
-0.094589986 -1.1553729 1.0770873 234 88 12
-0.059909329 -1.0898552 1.0661187 234 88 12
-0.067497291 -1.0989844 1.0645933 234 88 12
-0.074724309 -1.1084152 1.0632852 234 88 12
-0.082392141 -1.1174054 1.0616975 234 88 12
-0.084267557 -1.1318163 1.0637134 234 88 12
-0.087841362 -1.1446601 1.0646771 234 88 12
-0.092961237 -1.1560479 1.0646771 234 88 12
-0.05833796 -1.0904818 1.0536625 234 88 12
-0.06641116 -1.0991635 1.0518528 234 88 12
-0.072984293 -1.1091975 1.050958 234 88 12
-0.07824526 -1.1204382 1.050868 234 88 12
-0.084496975 -1.1307442 1.0501658 234 88 12
-0.08960928 -1.1421151 1.0501658 234 88 12
-0.084099405 -1.1636318 1.0567553 234 88 12
-0.048893556 -1.0983052 1.0459858 234 88 12
-0.063324988 -1.101185 1.040336 234 88 12
-0.071244285 -1.1099799 1.0386307 234 88 12
-0.076505356 -1.1212205 1.0385416 234 88 12
-0.082757898 -1.1315261 1.0378451 234 88 12
-0.086734869 -1.1439732 1.0385416 234 88 12
-0.080325805 -1.1663522 1.0456251 234 88 12
-0.052156202 -1.1106452 1.0336742 234 88 12
-0.06588763 -1.1141155 1.0284872 234 88 12
-0.070384659 -1.1260942 1.0288659 234 88 12
-0.071594037 -1.1411742 1.03124 234 88 12
-0.069160894 -1.1597592 1.0358379 234 88 12
-0.09608911 -1.1310223 1.0830815 234 88 12
-0.092489667 -1.1405563 1.0830815 234 88 12
-0.090070009 -1.1499593 1.0820017 234 88 12
-0.08444728 -1.1597216 1.0838523 234 88 12
-0.079806045 -1.121769 1.0885662 234 88 12
-0.094600342 -1.1294852 1.0717567 234 88 12
-0.090149134 -1.1391019 1.0725358 234 88 12
-0.091219828 -1.1481155 1.0682889 234 88 12
-0.084542669 -1.1579784 1.0710927 234 88 12
-0.078003399 -1.1017185 1.0840467 234 88 12
-0.084332958 -1.1104115 1.0749809 234 88 12
-0.083459459 -1.1197274 1.0724874 234 88 12
-0.080276348 -1.1292561 1.0720966 234 88 12
-0.09076491 -1.1373366 1.0593258 234 88 12
-0.087173827 -1.1468486 1.0593258 234 88 12
-0.082621679 -1.1564697 1.0601934 234 88 12
-0.077431567 -1.1661735 1.0616335 234 88 12
-0.082547553 -1.0996573 1.0671498 234 88 12
-0.083959118 -1.1087816 1.0625985 234 88 12
-0.081043169 -1.1182847 1.0619688 234 88 12
-0.079773836 -1.127616 1.0598568 234 88 12
-0.088212751 -1.1359099 1.049013 234 88 12
-0.083661735 -1.1455226 1.049877 234 88 12
-0.079108112 -1.1551431 1.0507407 234 88 12
-0.075515524 -1.1646591 1.0507407 234 88 12
-0.079286695 -1.0982955 1.057369 234 88 12
-0.080571696 -1.1074339 1.0529597 234 88 12
-0.080182932 -1.1166939 1.0500662 234 88 12
-0.0770353 -1.1262045 1.0496538 234 88 12
-0.084702127 -1.1345845 1.0395682 234 88 12
-0.074043095 -1.1448572 1.0458825 234 88 12
-0.070179597 -1.154424 1.0461169 234 88 12
-0.054813467 -1.1653283 1.0565923 234 88 12
-0.074958488 -1.0970273 1.0485462 234 88 12
-0.075974129 -1.1061971 1.0444036 234 88 12
-0.076654315 -1.1153617 1.040573 234 88 12
-0.073046334 -1.1249183 1.040573 234 88 12
-0.073859848 -1.1340177 1.0366418 234 88 12
-0.070258796 -1.143556 1.0366418 234 88 12
-0.063491032 -1.1534472 1.0394486 234 88 12
-0.043747216 -1.1648601 1.0537294 234 88 12
-0.037776951 -1.0986063 1.0689272 234 88 12
-0.068468042 -1.1052227 1.0384177 234 88 12
-0.068383396 -1.1144788 1.0352832 234 88 12
-0.062785126 -1.1242509 1.0370381 234 88 12
-0.059162091 -1.133836 1.037042 234 88 12
-0.052492041 -1.1437463 1.0397342 234 88 12
-0.046065215 -1.1536536 1.0422037 234 88 12
-0.050108887 -1.1238103 1.0355536 234 88 12
-0.036027428 -1.1437774 1.0415297 234 88 12
-0.036732171 -1.1239797 1.0857038 234 88 12
-0.035594143 -1.1244913 1.0776415 234 88 12
-0.046349332 -1.1171112 1.0813752 234 88 12
-0.042984989 -1.1096281 1.0813752 234 88 12
-0.065676942 -1.1021019 1.0882936 234 88 12
-0.043893181 -1.1250737 1.0720452 234 88 12
-0.047491208 -1.1176361 1.0738655 234 88 12
-0.034323089 -1.1101311 1.0712974 234 88 12
-0.064520553 -1.1026218 1.080101 234 88 12
-0.044396184 -1.1256 1.0643772 234 88 12
-0.04527764 -1.1181461 1.0654739 234 88 12
-0.040696062 -1.1106572 1.0651592 234 88 12
-0.056239393 -1.1031506 1.0700612 234 88 12
-0.045043662 -1.1261281 1.0567356 234 88 12
-0.046046879 -1.1186703 1.057851 234 88 12
-0.048301008 -1.1111889 1.0592891 234 88 12
-0.054260932 -1.1036699 1.0616804 234 88 12
-0.047758304 -1.1266737 1.0496039 234 88 12
-0.048429672 -1.1192037 1.0506231 234 88 12
-0.050670672 -1.1117128 1.0520416 234 88 12
-0.0553253 -1.1041863 1.0540746 234 88 12
-0.052693646 -1.1272395 1.0430007 234 88 12
-0.052102335 -1.1197454 1.0436946 234 88 12
-0.054526463 -1.1122417 1.0451429 234 88 12
-0.058711424 -1.1047022 1.0470351 234 88 12
-0.064231552 -1.1278642 1.037982 234 88 12
-0.063245513 -1.1203307 1.0385743 234 88 12
-0.063798875 -1.1127867 1.0395476 234 88 12
-0.065481834 -1.1052185 1.040802 234 88 12
-0.042371608 -1.138674 1.0957162 234 88 12
-0.043090992 -1.127782 1.095767 234 88 12
-0.032254327 -1.144972 1.0804787 234 88 12
-0.029284608 -1.1324024 1.0789411 234 88 12
-0.036248535 -1.1244485 1.0816816 234 88 12
-0.042070497 -1.1159203 1.0839293 234 88 12
-0.042672548 -1.104982 1.0839293 234 88 12
-0.066071555 -1.1042923 1.0937394 234 88 12
-0.032080691 -1.155902 1.0695639 234 88 12
-0.032680999 -1.1449955 1.0695639 234 88 12
-0.029710729 -1.1324259 1.0680405 234 88 12
-0.038809054 -1.1254569 1.0716659 234 88 12
-0.033413839 -1.1117867 1.0691084 234 88 12
-0.043100461 -1.1050055 1.0729828 234 88 12
-0.061981216 -1.1022835 1.080775 234 88 12
-0.075308442 -1.0969396 1.0861969 234 88 12
-0.036686804 -1.1579056 1.0604163 234 88 12
-0.039758962 -1.1481431 1.0614609 234 88 12
-0.040360715 -1.1372101 1.0614609 234 88 12
-0.042821702 -1.1271354 1.0622466 234 88 12
-0.048378825 -1.1184622 1.0643398 234 88 12
-0.053462718 -1.1095343 1.0662323 234 88 12
-0.059431851 -1.1009678 1.0684978 234 88 12
-0.06640593 -1.0928055 1.0711865 234 88 12
-0.041898213 -1.1601954 1.0514886 234 88 12
-0.04204537 -1.1490395 1.051298 234 88 12
-0.042727333 -1.1381364 1.0513314 234 88 12
-0.04620216 -1.1285216 1.0525337 234 88 12
-0.051599871 -1.1197631 1.0545402 234 88 12
-0.055040214 -1.1100785 1.0557268 234 88 12
-0.059901837 -1.1010094 1.0575074 234 88 12
-0.065614499 -1.0922848 1.059643 234 88 12
-0.050688203 -1.1641794 1.0440067 234 88 12
-0.045425002 -1.1504492 1.0415735 234 88 12
-0.046446379 -1.1396921 1.0417471 234 88 12
-0.051387131 -1.1307402 1.0435452 234 88 12
-0.053503092 -1.1204611 1.0441719 234 88 12
-0.057455532 -1.1110023 1.0455592 234 88 12
-0.062289324 -1.1019124 1.0473109 234 88 12
-0.068044983 -1.0931988 1.0494437 234 88 12
-0.064761832 -1.1593505 1.0383786 234 88 12
-0.061100442 -1.146337 1.0366261 234 88 12
-0.058163382 -1.1336924 1.0351716 234 88 12
-0.058845252 -1.1227316 1.0352031 234 88 12
-0.061941709 -1.1128647 1.0362253 234 88 12
-0.06711293 -1.1039097 1.0380982 234 88 12
-0.072600193 -1.140178 1.029861 234 88 12
-0.076317869 -1.1305486 1.0311246 234 88 12
-0.076926813 -1.1194851 1.0311246 234 88 12
-0.02829171 -1.1434284 1.0900816 234 88 12
-0.036284186 -1.1319094 1.0894527 234 88 12
-0.039716046 -1.1133715 1.0867592 234 88 12
-0.056468379 -1.1154139 1.0901105 234 88 12
-0.065839574 -1.1060427 1.0901105 234 88 12
-0.079685241 -1.1034304 1.0921135 234 88 12
-0.029030232 -1.1691955 1.0817552 234 88 12
-0.024945626 -1.1385531 1.0756527 234 88 12
-0.034303673 -1.1291951 1.0756527 234 88 12
-0.035751704 -1.107604 1.0721132 234 88 12
-0.048387069 -1.1033702 1.0735894 234 88 12
-0.065171964 -1.1053752 1.0768913 234 88 12
-0.077982776 -1.1012002 1.0784088 234 88 12
-0.024456533 -1.1623446 1.0667175 234 88 12
-0.029119605 -1.1454918 1.064607 234 88 12
-0.034949947 -1.1305751 1.0630338 234 88 12
-0.042995047 -1.1191703 1.0624521 234 88 12
-0.056974728 -1.1169049 1.0644803 234 88 12
-0.066949397 -1.1084306 1.0647401 234 88 12
-0.077259757 -1.1004494 1.0651433 234 88 12
-0.08854454 -1.0939075 1.0659645 234 88 12
-0.030125687 -1.1717142 1.0562453 234 88 12
-0.032249305 -1.1507915 1.0530392 234 88 12
-0.039845727 -1.1385808 1.0522522 234 88 12
-0.047515541 -1.1265277 1.0515046 234 88 12
-0.056808155 -1.1170067 1.0514656 234 88 12
-0.0671876 -1.1091429 1.0518947 234 88 12
-0.076819636 -1.1001261 1.0519997 234 88 12
-0.088563263 -1.0942698 1.0530037 234 88 12
-0.034921221 -1.1553732 1.0412233 234 88 12
-0.040884465 -1.1405747 1.0397393 234 88 12
-0.048532784 -1.1284671 1.0389903 234 88 12
-0.057520915 -1.1184583 1.0388188 234 88 12
-0.066909738 -1.1090695 1.0388188 234 88 12
-0.077031292 -1.100788 1.0391279 234 88 12
-0.062424731 -1.1745399 1.0358812 234 88 12
-0.053109244 -1.1359141 1.0279531 234 88 12
-0.059405424 -1.1217093 1.0266453 234 88 12
-0.068913162 -1.1124711 1.0266899 234 88 12
-0.084196575 -1.1119598 1.0291327 234 88 12
-0.069794782 -1.132638 1.1095153 234 88 12
-0.025144 -1.1335708 1.0939872 234 88 12
-0.038857885 -1.1095943 1.0867764 234 88 12
-0.053623036 -1.1087817 1.0867764 234 88 12
-0.068209432 -1.1048316 1.0857991 234 88 12
-0.083112352 -1.1064826 1.0865664 234 88 12
-0.024124525 -1.1109847 1.0720001 234 88 12
-0.038833652 -1.1090343 1.0716504 234 88 12
-0.053654827 -1.1093593 1.0720001 234 88 12
-0.068381585 -1.1078727 1.071793 234 88 12
-0.08319737 -1.1079351 1.0720621 234 88 12
-0.098227039 -1.1111984 1.0733165 234 88 12
-0.024800193 -1.1257485 1.0615295 234 88 12
-0.039069202 -1.1137494 1.0581347 234 88 12
-0.053711444 -1.1104043 1.0573659 234 88 12
-0.068463236 -1.1093255 1.0572852 234 88 12
-0.083241403 -1.108714 1.0573462 234 88 12
-0.098222755 -1.1112186 1.0583541 234 88 12
-0.025060095 -1.1313515 1.0482036 234 88 12
-0.039183825 -1.1160089 1.0438508 234 88 12
-0.053880371 -1.1135641 1.0433619 234 88 12
-0.068588205 -1.1115386 1.0429986 234 88 12
-0.083432041 -1.1119026 1.0433514 234 88 12
-0.098313048 -1.1127005 1.0438347 234 88 12
-0.025908805 -1.1499262 1.0386745 234 88 12
-0.03968497 -1.1261166 1.031875 234 88 12
-0.053995553 -1.1157118 1.0290383 234 88 12
-0.068752117 -1.1144352 1.0289013 234 88 12
-0.083560027 -1.1140615 1.0290315 234 88 12
-0.10041138 -1.1452178 1.0384952 234 88 12
-0.070736744 -1.1492902 1.0241177 234 88 12
-0.065891966 -1.0999384 1.0964637 234 88 12
-0.077655107 -1.1087888 1.0964637 234 88 12
-0.078199044 -1.1419659 1.1111642 234 88 12
-0.049504336 -1.0987118 1.0848818 234 88 12
-0.065280795 -1.0990932 1.0797718 234 88 12
-0.07718946 -1.1075841 1.0795631 234 88 12
-0.088721342 -1.1168841 1.0798404 234 88 12
-0.099183805 -1.1285362 1.0815219 234 88 12
-0.030150898 -1.1035504 1.0769166 234 88 12
-0.048484497 -1.0987707 1.0687262 234 88 12
-0.062925078 -1.1019516 1.0653378 234 88 12
-0.075290449 -1.1094567 1.0645448 234 88 12
-0.086925738 -1.1185138 1.0646783 234 88 12
-0.097589083 -1.1297032 1.0660745 234 88 12
-0.10199584 -1.1547856 1.075673 234 88 12
-0.027434524 -1.1071608 1.0628372 234 88 12
-0.045779765 -1.1023656 1.0547073 234 88 12
-0.060758002 -1.1044115 1.0506752 234 88 12
-0.072623171 -1.1129762 1.0505167 234 88 12
-0.084330782 -1.121876 1.0505565 234 88 12
-0.095119908 -1.132786 1.0517772 234 88 12
-0.099281237 -1.1583936 1.0616028 234 88 12
-0.041598041 -1.1090541 1.0425104 234 88 12
-0.057525251 -1.1091285 1.0373498 234 88 12
-0.069798909 -1.1168315 1.0366862 234 88 12
-0.081499487 -1.1257495 1.0367358 234 88 12
-0.090234786 -1.1411496 1.0405612 234 88 12
-0.09254095 -1.1708949 1.0526989 234 88 12
-0.029779013 -1.1317242 1.0396146 234 88 12
-0.05178589 -1.1191462 1.0270997 234 88 12
-0.065918013 -1.1229455 1.0241644 234 88 12
-0.074107073 -1.1394776 1.0286191 234 88 12
-0.082879446 -1.1549011 1.032409 234 88 12
-0.094623774 -1.1290783 1.089736 234 88 12
-0.096748561 -1.1419611 1.089736 234 88 12
-0.075686023 -1.0951982 1.0854697 234 88 12
-0.084156558 -1.1037325 1.0775963 234 88 12
-0.087947063 -1.1154457 1.0755243 234 88 12
-0.093328714 -1.1260157 1.0714685 234 88 12
-0.095447414 -1.1388618 1.0714685 234 88 12
-0.095581166 -1.1531328 1.0739433 234 88 12
-0.074941695 -1.0918846 1.066555 234 88 12
-0.079862706 -1.1028314 1.063107 234 88 12
-0.083239995 -1.1148144 1.0615566 234 88 12
-0.0859809 -1.1272275 1.060789 234 88 12
-0.088391587 -1.1398666 1.060428 234 88 12
-0.090510003 -1.1527108 1.060428 234 88 12
-0.086366676 -1.1700808 1.068184 234 88 12
-0.068369709 -1.0925602 1.0548843 234 88 12
-0.073770709 -1.1031768 1.050874 234 88 12
-0.078528643 -1.1141958 1.0476433 234 88 12
-0.080645353 -1.1270297 1.0476433 234 88 12
-0.085840337 -1.1376863 1.0438666 234 88 12
-0.083163202 -1.1539226 1.0497501 234 88 12
-0.080940373 -1.1698961 1.0550869 234 88 12
-0.060524043 -1.0941031 1.0447729 234 88 12
-0.065984033 -1.1046884 1.0407217 234 88 12
-0.071187772 -1.1154065 1.0369738 234 88 12
-0.072619081 -1.1287193 1.0378076 234 88 12
-0.073453307 -1.1424626 1.0393701 234 88 12
-0.072127201 -1.1577616 1.0435687 234 88 12
-0.041195862 -1.1034174 1.0484744 234 88 12
-0.05510528 -1.1083121 1.034287 234 88 12
-0.058078904 -1.1205987 1.0332613 234 88 12
-0.060523547 -1.1332425 1.0328723 234 88 12
-0.063538149 -1.145481 1.0317937 234 88 12
-0.059830587 -1.1624823 1.0388447 234 88 12
-0.041790824 -1.1279589 1.0332499 234 88 12
-0.042157903 -1.1421068 1.0353636 234 88 12
-0.040945843 -1.1573863 1.0393755 234 88 12
-0.096938275 -1.1260999 1.073132 234 88 12
-0.089827336 -1.1338309 1.0719938 234 88 12
-0.089104652 -1.1428514 1.0567611 234 88 12
-0.081801519 -1.1504867 1.0561512 234 88 12
-0.076337256 -1.1584665 1.0515333 234 88 12
-0.065111317 -1.1653657 1.0594761 234 88 12
-0.090339191 -1.1205907 1.0683515 234 88 12
-0.088207282 -1.1293936 1.0562171 234 88 12
-0.085575797 -1.1380173 1.0453172 234 88 12
-0.077520505 -1.1454924 1.0463724 234 88 12
-0.06996239 -1.1530697 1.0463374 234 88 12
-0.059450112 -1.1600982 1.0526745 234 88 12
-0.043937575 -1.1662699 1.0696656 234 88 12
-0.091129772 -1.1073759 1.0640839 234 88 12
-0.087045558 -1.1158103 1.0562431 234 88 12
-0.082676575 -1.1241332 1.049116 234 88 12
-0.079926461 -1.1327498 1.0385419 234 88 12
-0.072352193 -1.1403241 1.0385419 234 88 12
-0.064794131 -1.1479015 1.038507 234 88 12
-0.05195681 -1.1544818 1.0497853 234 88 12
-0.040593054 -1.1614001 1.0577978 234 88 12
-0.086199783 -1.1022283 1.0555594 234 88 12
-0.083595999 -1.1110061 1.0445317 234 88 12
-0.076569661 -1.1187445 1.0432599 234 88 12
-0.070010044 -1.1265739 1.0409919 234 88 12
-0.062635876 -1.1342218 1.0405031 234 88 12
-0.053960323 -1.141608 1.0428059 234 88 12
-0.045047186 -1.1489631 1.045589 234 88 12
-0.035324614 -1.1561853 1.0500548 234 88 12
-0.080499955 -1.0969006 1.0487275 234 88 12
-0.075931117 -1.1052468 1.0420415 234 88 12
-0.069320388 -1.1130966 1.0398484 234 88 12
-0.06155711 -1.1206843 1.0401592 234 88 12
-0.053888302 -1.1282936 1.0402644 234 88 12
-0.044744242 -1.1356062 1.0435063 234 88 12
-0.037244476 -1.1432596 1.0432341 234 88 12
-0.022846248 -1.1496117 1.0574758 234 88 12
-0.067690328 -1.099339 1.0407252 234 88 12
-0.060616124 -1.1071086 1.0395054 234 88 12
-0.053037561 -1.1147604 1.039377 234 88 12
-0.044954393 -1.1223046 1.0403223 234 88 12
-0.024898337 -1.127404 1.0665574 234 88 12
-0.032065064 -1.1060616 1.0649389 234 88 12
-0.082993254 -1.1582361 1.0477057 234 88 12
-0.067510717 -1.152665 1.0390842 234 88 12
-0.06192451 -1.1452404 1.0390842 234 88 12
-0.064069025 -1.1362758 1.0458719 234 88 12
-0.058462575 -1.1288242 1.0458719 234 88 12
-0.052322324 -1.1214833 1.0454007 234 88 12
-0.050239213 -1.1132895 1.0485176 234 88 12
-0.051668521 -1.1043104 1.0547675 234 88 12
-0.079906382 -1.1490154 1.0390314 234 88 12
-0.073504463 -1.1417103 1.0383441 234 88 12
-0.06789396 -1.1342534 1.0383441 234 88 12
-0.062933356 -1.126664 1.038913 234 88 12
-0.058297265 -1.119002 1.0397695 234 88 12
-0.056094695 -1.1108164 1.0427717 234 88 12
-0.057230022 -1.1018821 1.0487344 234 88 12
-0.088518046 -1.1374948 1.0404823 234 88 12
-0.082874358 -1.1299938 1.0404823 234 88 12
-0.074597709 -1.1230309 1.0381912 234 88 12
-0.069163211 -1.1154969 1.0383677 234 88 12
-0.065484412 -1.1075883 1.0400809 234 88 12
-0.064013794 -1.0991855 1.0437398 234 88 12
-0.07734888 -1.112542 1.0345539 234 88 12
-0.029905921 -1.1404449 1.096175 234 88 12
-0.034299426 -1.1262741 1.0944897 234 88 12
-0.042061966 -1.115463 1.0957295 234 88 12
-0.026281489 -1.1533946 1.081985 234 88 12
-0.027392276 -1.135928 1.0774791 234 88 12
-0.033709541 -1.1237264 1.0774791 234 88 12
-0.034048259 -1.1056226 1.072347 234 88 12
-0.047550879 -1.1005049 1.0785122 234 88 12
-0.063556895 -1.0977055 1.0867813 234 88 12
-0.030389326 -1.1555213 1.0690141 234 88 12
-0.033449445 -1.1400131 1.0662138 234 88 12
-0.042325221 -1.1303397 1.0683933 234 88 12
-0.045331042 -1.114836 1.0655638 234 88 12
-0.058077183 -1.1089152 1.0710193 234 88 12
-0.066278599 -1.0984824 1.0725971 234 88 12
-0.07483381 -1.088361 1.0744653 234 88 12
-0.03546581 -1.158626 1.0568677 234 88 12
-0.040950719 -1.1455411 1.0561467 234 88 12
-0.046914287 -1.1329453 1.055835 234 88 12
-0.053245153 -1.1207173 1.055835 234 88 12
-0.061373755 -1.110247 1.0573486 234 88 12
-0.069915608 -1.1001492 1.0592012 234 88 12
-0.077755511 -1.0893418 1.0604559 234 88 12
-0.040512037 -1.1616983 1.044682 234 88 12
-0.045909543 -1.1485193 1.0438913 234 88 12
-0.052243724 -1.1362848 1.0438913 234 88 12
-0.057352554 -1.1228439 1.0428654 234 88 12
-0.066922136 -1.1137797 1.0455698 234 88 12
-0.074141949 -1.1023879 1.0463027 234 88 12
-0.082701094 -1.0922698 1.0481441 234 88 12
-0.053088203 -1.1537153 1.0334769 234 88 12
-0.058948658 -1.1409867 1.0330757 234 88 12
-0.065035425 -1.1284884 1.0328645 234 88 12
-0.071914583 -1.1167675 1.0333104 234 88 12
-0.080039166 -1.1062442 1.0347825 234 88 12
-0.073037736 -1.1530015 1.0283194 234 88 12
-0.077518038 -1.1388457 1.0267651 234 88 12
-0.085774064 -1.1284016 1.0283194 234 88 12
-0.022423653 -1.1358309 1.0935922 234 88 12
-0.030733908 -1.1135598 1.0846564 234 88 12
-0.044398103 -1.1064854 1.0846564 234 88 12
-0.060137294 -1.1050705 1.0880052 234 88 12
-0.074113764 -1.0987632 1.0884671 234 88 12
-0.023408808 -1.136465 1.0767165 234 88 12
-0.030823026 -1.1117481 1.0664238 234 88 12
-0.046774432 -1.1110753 1.0701635 234 88 12
-0.061965398 -1.1081626 1.072605 234 88 12
-0.07581339 -1.1015289 1.0728692 234 88 12
-0.09001255 -1.0958164 1.0736771 234 88 12
-0.015767822 -1.1587532 1.0682809 234 88 12
-0.02719753 -1.1450516 1.064477 234 88 12
-0.037530985 -1.1284581 1.0589825 234 88 12
-0.050640117 -1.1197762 1.0580565 234 88 12
-0.064315841 -1.1126797 1.0580486 234 88 12
-0.078001559 -1.1056103 1.0580565 234 88 12
-0.092207573 -1.0999218 1.0588709 234 88 12
-0.030425223 -1.1520437 1.051284 234 88 12
-0.040269103 -1.134056 1.0450394 234 88 12
-0.053074379 -1.1245235 1.0436335 234 88 12
-0.066700041 -1.1172887 1.0435461 234 88 12
-0.080437042 -1.1103569 1.0436335 234 88 12
-0.094648406 -1.1046799 1.0444477 234 88 12
-0.033961907 -1.1599078 1.0385623 234 88 12
-0.043957096 -1.1423063 1.032596 234 88 12
-0.056118567 -1.1309524 1.0301678 234 88 12
-0.069470249 -1.1229482 1.0296437 234 88 12
-0.083311118 -1.1162816 1.0298835 234 88 12
-0.10426993 -1.128482 1.040951 234 88 12
-0.065575093 -1.1550491 1.0266708 234 88 12
-0.077558145 -1.1430701 1.0239228 234 88 12
-0.057299975 -1.0962154 1.0894552 234 88 12
-0.073260106 -1.0973327 1.0887581 234 88 12
-0.088901959 -1.1032706 1.0914813 234 88 12
-0.022941168 -1.118377 1.088569 234 88 12
-0.040393867 -1.10163 1.0752734 234 88 12
-0.05651255 -1.1006317 1.0730907 234 88 12
-0.072407104 -1.1024677 1.0729066 234 88 12
-0.088267751 -1.1047933 1.0730673 234 88 12
-0.10377832 -1.1130234 1.0773805 234 88 12
-0.022878347 -1.1144323 1.0662657 234 88 12
-0.039546717 -1.1070216 1.0596113 234 88 12
-0.055537503 -1.1076062 1.0585536 234 88 12
-0.071459435 -1.1089847 1.0580517 234 88 12
-0.087318636 -1.1112336 1.058158 234 88 12
-0.10305505 -1.1155587 1.059713 234 88 12
-0.021569844 -1.1255097 1.0545247 234 88 12
-0.038491353 -1.1150744 1.0458237 234 88 12
-0.054495081 -1.1154966 1.0446618 234 88 12
-0.070417233 -1.1168735 1.0441628 234 88 12
-0.086276382 -1.1191226 1.0442685 234 88 12
-0.10203246 -1.1231139 1.0455798 234 88 12
-0.019644352 -1.1439934 1.0478483 234 88 12
-0.036920823 -1.1296822 1.0365456 234 88 12
-0.053380486 -1.1243627 1.0314411 234 88 12
-0.069316365 -1.1256081 1.0308553 234 88 12
-0.085154563 -1.1282407 1.0312232 234 88 12
-0.10023189 -1.1436063 1.0403327 234 88 12
-0.034576364 -1.1541022 1.0338913 234 88 12
-0.051465631 -1.1440251 1.0255753 234 88 12
-0.067376874 -1.1464063 1.0257639 234 88 12
-0.083173208 -1.1505973 1.0271856 234 88 12
-0.075162061 -1.0887986 1.0828242 234 88 12
-0.086684175 -1.0982749 1.0812482 234 88 12
-0.097117826 -1.1098979 1.08237 234 88 12
-0.056585893 -1.0857846 1.0720741 234 88 12
-0.069503613 -1.0925645 1.0671239 234 88 12
-0.081253804 -1.1015406 1.0649571 234 88 12
-0.092091732 -1.1122922 1.0650144 234 88 12
-0.10073884 -1.1274776 1.0705545 234 88 12
-0.10568526 -1.1503711 1.0855376 234 88 12
-0.050239846 -1.0909324 1.0581148 234 88 12
-0.062706739 -1.0985622 1.0542706 234 88 12
-0.074391715 -1.1076469 1.052263 234 88 12
-0.085753597 -1.117332 1.0510137 234 88 12
-0.095224544 -1.1308042 1.0544275 234 88 12
-0.099741757 -1.1544746 1.0702862 234 88 12
-0.018373378 -1.1130081 1.0786687 234 88 12
-0.042069957 -1.0995768 1.0485435 234 88 12
-0.054867674 -1.106586 1.0439534 234 88 12
-0.067151144 -1.1145053 1.0405238 234 88 12
-0.077999853 -1.1251985 1.0405238 234 88 12
-0.087462068 -1.1386795 1.0439258 234 88 12
-0.094386682 -1.1574041 1.0536698 234 88 12
-0.031564251 -1.1126624 1.0444376 234 88 12
-0.045927439 -1.1167318 1.0362399 234 88 12
-0.057942405 -1.1252131 1.0335083 234 88 12
-0.068838656 -1.1358495 1.033424 234 88 12
-0.078488842 -1.1489816 1.0363659 234 88 12
-0.083723642 -1.1711444 1.0501828 234 88 12
-0.012893492 -1.1412147 1.0591964 234 88 12
-0.03423525 -1.1321545 1.0349265 234 88 12
-0.045821145 -1.1415755 1.0333146 234 88 12
-0.056917567 -1.1519275 1.0328425 234 88 12
-0.067005388 -1.1642847 1.0347892 234 88 12
-0.031853277 -1.1614736 1.0372496 234 88 12
-0.10381014 -1.1328535 1.0860198 234 88 12
-0.1021527 -1.1463947 1.0860198 234 88 12
-0.099868454 -1.1604825 1.0879234 234 88 12
-0.091620222 -1.1071736 1.0902722 234 88 12
-0.096708477 -1.1151508 1.0699314 234 88 12
-0.096093841 -1.1277814 1.0668076 234 88 12
-0.096254937 -1.1397301 1.061362 234 88 12
-0.094336502 -1.1534327 1.0621712 234 88 12
-0.090473741 -1.1688364 1.0688033 234 88 12
-0.081244521 -1.0921179 1.0839357 234 88 12
-0.087268554 -1.099473 1.0610212 234 88 12
-0.087923668 -1.1110736 1.0541543 234 88 12
-0.087784231 -1.1232866 1.0496688 234 88 12
-0.087624222 -1.1354858 1.045257 234 88 12
-0.084194608 -1.1504384 1.05055 234 88 12
-0.0807456 -1.1654445 1.0558854 234 88 12
-0.074905232 -1.0861404 1.0607892 234 88 12
-0.07626579 -1.0972432 1.0519083 234 88 12
-0.07689596 -1.1088762 1.0452005 234 88 12
-0.075863831 -1.1218276 1.0433942 234 88 12
-0.075517729 -1.1341959 1.0395807 234 88 12
-0.073873356 -1.1476303 1.0395807 234 88 12
-0.068803839 -1.1639829 1.0495996 234 88 12
-0.062316805 -1.085149 1.0562558 234 88 12
-0.06382554 -1.0961688 1.0470462 234 88 12
-0.063529015 -1.1085711 1.0431093 234 88 12
-0.063322291 -1.1208727 1.0389227 234 88 12
-0.061994355 -1.1340668 1.0379977 234 88 12
-0.060347751 -1.1475196 1.0379977 234 88 12
-0.055496018 -1.1636717 1.0472628 234 88 12
-0.04829447 -1.0975035 1.0510415 234 88 12
-0.048697196 -1.1094003 1.045128 234 88 12
-0.047204964 -1.1227763 1.0446669 234 88 12
-0.04569678 -1.1361619 1.0442526 234 88 12
-0.044044197 -1.1496636 1.0442526 234 88 12
-0.040341612 -1.1648722 1.0501094 234 88 12
-0.027214989 -1.103066 1.070572 234 88 12
-0.032820109 -1.1109965 1.0499214 234 88 12
-0.033817001 -1.122438 1.042393 234 88 12
-0.031662807 -1.1363581 1.0438073 234 88 12
-0.02911683 -1.1506071 1.0463256 234 88 12
-0.09940587 -1.1580253 1.0825882 234 88 12
-0.088002734 -1.1602256 1.0553441 234 88 12
-0.076178104 -1.1616729 1.0553441 234 88 12
-0.064270064 -1.1630346 1.0585922 234 88 12
-0.052317716 -1.1643791 1.0626037 234 88 12
-0.040398967 -1.1657748 1.0647404 234 88 12
-0.098268613 -1.1477638 1.0672213 234 88 12
-0.086688913 -1.1496965 1.0514376 234 88 12
-0.075020365 -1.1513573 1.0443141 234 88 12
-0.063278981 -1.1528751 1.0418435 234 88 12
-0.051173419 -1.1540158 1.0522897 234 88 12
-0.039316513 -1.1554433 1.0530156 234 88 12
-0.027160866 -1.1566434 1.0618315 234 88 12
-0.097114116 -1.1375108 1.0533918 234 88 12
-0.085405521 -1.1392113 1.0459186 234 88 12
-0.073739611 -1.1408936 1.0388063 234 88 12
-0.061933771 -1.1423385 1.0388063 234 88 12
-0.049889717 -1.1435279 1.0467693 234 88 12
-0.038032539 -1.1449533 1.0474939 234 88 12
-0.025864553 -1.146119 1.056543 234 88 12
-0.095678367 -1.1266719 1.0568411 234 88 12
-0.084122129 -1.128726 1.0403994 234 88 12
-0.072328545 -1.1302299 1.0388446 234 88 12
-0.060351513 -1.1314759 1.0445005 234 88 12
-0.048448905 -1.1328578 1.046428 234 88 12
-0.036488134 -1.134195 1.0496881 234 88 12
-0.024272783 -1.1353202 1.0591971 234 88 12
-0.094339728 -1.1160216 1.0541774 234 88 12
-0.082667358 -1.1179098 1.0432485 234 88 12
-0.070813172 -1.1193689 1.0430566 234 88 12
-0.058955051 -1.1208203 1.0430566 234 88 12
-0.046971634 -1.1221157 1.0471308 234 88 12
-0.03497038 -1.1234257 1.0509104 234 88 12
-0.022092912 -1.1238923 1.0773031 234 88 12
-0.093007684 -1.1053754 1.0510044 234 88 12
-0.081288524 -1.1072106 1.0421373 234 88 12
-0.069414578 -1.108664 1.0421373 234 88 12
-0.057498876 -1.1100545 1.0436425 234 88 12
-0.045553874 -1.111421 1.0457562 234 88 12
-0.03283352 -1.1118886 1.0698564 234 88 12
-0.079821631 -1.0963024 1.0449927 234 88 12
-0.06795118 -1.0978186 1.0436853 234 88 12
-0.056026507 -1.0992329 1.0446222 234 88 12
-0.043883733 -1.1003499 1.0522574 234 88 12
-0.031205717 -1.100866 1.0736732 234 88 12
-0.02981418 -1.1551049 1.0841615 234 88 12
-0.048535064 -1.1658053 1.0697174 234 88 12
-0.036606394 -1.1582278 1.0608821 234 88 12
-0.031024184 -1.1499159 1.0660539 234 88 12
-0.027293717 -1.1413316 1.0754266 234 88 12
-0.02126381 -1.1330066 1.0797369 234 88 12
-0.066100068 -1.1676899 1.0701823 234 88 12
-0.053001985 -1.1602108 1.0589508 234 88 12
-0.042424273 -1.1524934 1.053124 234 88 12
-0.037001546 -1.1441526 1.0586128 234 88 12
-0.030493572 -1.1359247 1.0617551 234 88 12
-0.027117766 -1.1272366 1.0719308 234 88 12
-0.081968024 -1.1697739 1.0668066 234 88 12
-0.069905579 -1.1621518 1.0579712 234 88 12
-0.058073893 -1.1545548 1.049536 234 88 12
-0.048242148 -1.1467588 1.0453658 234 88 12
-0.042235065 -1.1384858 1.049536 234 88 12
-0.036328007 -1.1301739 1.0539749 234 88 12
-0.033526596 -1.1213863 1.0653555 234 88 12
-0.029309705 -1.1127435 1.0737102 234 88 12
-0.085164584 -1.1642894 1.0533229 234 88 12
-0.074880883 -1.1564935 1.0483243 234 88 12
-0.063456617 -1.1488664 1.0408127 234 88 12
-0.055980377 -1.1407779 1.0417672 234 88 12
-0.049537376 -1.1325444 1.0449834 234 88 12
-0.044647761 -1.1240716 1.0516397 234 88 12
-0.039788816 -1.1155537 1.0584406 234 88 12
-0.035182096 -1.1069552 1.0658795 234 88 12
-0.10069166 -1.1574339 1.0660006 234 88 12
-0.082268842 -1.1505542 1.0438348 234 88 12
-0.072491363 -1.1427232 1.0399151 234 88 12
-0.065959603 -1.1344879 1.0429339 234 88 12
-0.059786603 -1.1261846 1.0467634 234 88 12
-0.051833645 -1.118116 1.0467634 234 88 12
-0.046081316 -1.1097138 1.0515797 234 88 12
-0.043390822 -1.1007969 1.0631914 234 88 12
-0.092534818 -1.1442511 1.0453832 234 88 12
-0.080168493 -1.1367323 1.0360407 234 88 12
-0.074100055 -1.1284175 1.0400515 234 88 12
-0.066517949 -1.1202929 1.0408546 234 88 12
-0.059457507 -1.1120861 1.0427943 234 88 12
-0.053462811 -1.1037018 1.0470731 234 88 12
-0.050343629 -1.0948256 1.0576876 234 88 12
-0.090427957 -1.1303864 1.0375649 234 88 12
-0.083596073 -1.1221426 1.0399805 234 88 12
-0.075319156 -1.114094 1.0393387 234 88 12
-0.06809441 -1.1058897 1.0409484 234 88 12
-0.062180564 -1.0974673 1.0454067 234 88 12
-0.10050724 -1.1147866 1.0554409 234 88 12
-0.084160253 -1.1078688 1.037823 234 88 12
-0.076797739 -1.0996636 1.0391637 234 88 12
-0.030906793 -1.1355618 1.0951984 234 88 12
-0.029002417 -1.1548176 1.0734419 234 88 12
-0.030001666 -1.1437956 1.0760758 234 88 12
-0.0284246 -1.1318583 1.0760758 234 88 12
-0.032416515 -1.1218195 1.0817808 234 88 12
-0.037406556 -1.1120626 1.0885165 234 88 12
-0.034930192 -1.1540345 1.0630054 234 88 12
-0.037248414 -1.14347 1.0669618 234 88 12
-0.036515575 -1.1318173 1.067821 234 88 12
-0.037311915 -1.120676 1.0702374 234 88 12
-0.033664085 -1.1080235 1.0681322 234 88 12
-0.041785963 -1.0992763 1.0780152 234 88 12
-0.061577722 -1.1720215 1.0718646 234 88 12
-0.041954 -1.153638 1.0536743 234 88 12
-0.041870061 -1.1422276 1.0551803 234 88 12
-0.042757846 -1.1311365 1.0576695 234 88 12
-0.044707607 -1.1203815 1.0612353 234 88 12
-0.047406126 -1.1098425 1.065563 234 88 12
-0.050596371 -1.0994245 1.0703938 234 88 12
-0.071769699 -1.1727349 1.0655658 234 88 12
-0.051502146 -1.1541266 1.046857 234 88 12
-0.049923684 -1.1421789 1.046857 234 88 12
-0.049276896 -1.1305498 1.0477915 234 88 12
-0.051670615 -1.1199377 1.0517789 234 88 12
-0.053669818 -1.1091564 1.0553755 234 88 12
-0.055750828 -1.0983677 1.0590589 234 88 12
-0.060529444 -1.0884154 1.0654602 234 88 12
-0.079418369 -1.1725347 1.0566808 234 88 12
-0.060338784 -1.1543572 1.0392824 234 88 12
-0.057040524 -1.1418012 1.0375721 234 88 12
-0.059203915 -1.1311235 1.0413005 234 88 12
-0.059739579 -1.1198632 1.0434113 234 88 12
-0.060846616 -1.108772 1.0460947 234 88 12
-0.062635392 -1.0978779 1.0494621 234 88 12
-0.066775277 -1.0877085 1.0551823 234 88 12
-0.076398499 -1.1571037 1.0388056 234 88 12
-0.072823457 -1.1444064 1.03684 234 88 12
-0.070163533 -1.132039 1.0357771 234 88 12
-0.06865257 -1.1200666 1.0358504 234 88 12
-0.069325253 -1.1088148 1.038087 234 88 12
-0.071539052 -1.0980433 1.0418545 234 88 12
-0.091126561 -1.1478539 1.0384495 234 88 12
-0.083918154 -1.1338892 1.0329323 234 88 12
-0.08234936 -1.1218606 1.0329533 234 88 12
-0.081132375 -1.1099477 1.0333203 234 88 12
-0.022943333 -1.1287237 1.0839442 234 88 12
-0.028579406 -1.1084876 1.0731536 234 88 12
-0.043743782 -1.1049331 1.0817343 234 88 12
-0.055163383 -1.0948118 1.0826937 234 88 12
-0.07067927 -1.0915835 1.0917752 234 88 12
-0.020697182 -1.1493583 1.0751569 234 88 12
-0.029948814 -1.1353883 1.0716962 234 88 12
-0.036003016 -1.1159111 1.0618507 234 88 12
-0.050022114 -1.1103665 1.0680665 234 88 12
-0.061124258 -1.0997261 1.0684052 234 88 12
-0.072747447 -1.0899563 1.0697646 234 88 12
-0.027344489 -1.1553718 1.0621617 234 88 12
-0.036690213 -1.1415912 1.0589335 234 88 12
-0.045595434 -1.1271101 1.0548747 234 88 12
-0.056519825 -1.1161858 1.0548747 234 88 12
-0.068224952 -1.106589 1.0564094 234 88 12
-0.079507187 -1.0962505 1.0570964 234 88 12
-0.092987455 -1.0895495 1.0620311 234 88 12
-0.034540921 -1.1623683 1.0502981 234 88 12
-0.044202529 -1.1491544 1.047732 234 88 12
-0.053030089 -1.1345448 1.0435549 234 88 12
-0.064423978 -1.1244265 1.0444764 234 88 12
-0.075663529 -1.1140275 1.0450836 234 88 12
-0.086981207 -1.1037474 1.0458331 234 88 12
-0.10187636 -1.0993831 1.0534408 234 88 12
-0.043745026 -1.1729293 1.0424373 234 88 12
-0.052375644 -1.1578761 1.0378327 234 88 12
-0.062431935 -1.1453892 1.0360901 234 88 12
-0.072340362 -1.1326847 1.0340855 234 88 12
-0.083488733 -1.1221207 1.0345045 234 88 12
-0.095110908 -1.1123415 1.0358257 234 88 12
-0.072999023 -1.1582346 1.0308197 234 88 12
-0.083497845 -1.1464807 1.0299268 234 88 12
-0.096715935 -1.1393406 1.0342513 234 88 12
-0.041173473 -1.0924681 1.0797894 234 88 12
-0.057279013 -1.0881302 1.073181 234 88 12
-0.073334903 -1.0875891 1.0715556 234 88 12
-0.089416854 -1.0912985 1.0755039 234 88 12
-0.0244938 -1.1052902 1.0710568 234 88 12
-0.040641662 -1.0998751 1.063096 234 88 12
-0.056700438 -1.0988524 1.0608566 234 88 12
-0.072741657 -1.0990069 1.06015 234 88 12
-0.08878497 -1.1000929 1.0606555 234 88 12
-0.10490872 -1.1059898 1.0674174 234 88 12
-0.023912862 -1.1183643 1.0617464 234 88 12
-0.040061776 -1.1126567 1.0534697 234 88 12
-0.056117211 -1.1114191 1.0509703 234 88 12
-0.072149888 -1.1105796 1.0489862 234 88 12
-0.088189416 -1.1125448 1.0506233 234 88 12
-0.10426933 -1.1161128 1.0543278 234 88 12
-0.023318613 -1.132295 1.0535427 234 88 12
-0.039469589 -1.1267561 1.0455467 234 88 12
-0.055531263 -1.1249064 1.0422821 234 88 12
-0.071564332 -1.1240474 1.0402883 234 88 12
-0.087603569 -1.1260192 1.0419213 234 88 12
-0.10372752 -1.1325614 1.049405 234 88 12
-0.022654036 -1.1506593 1.0509715 234 88 12
-0.038844481 -1.1442268 1.041899 234 88 12
-0.054936528 -1.1408548 1.0367229 234 88 12
-0.070986748 -1.1406363 1.0355579 234 88 12
-0.087044097 -1.142532 1.0370803 234 88 12
-0.10329437 -1.1564714 1.0539029 234 88 12
-0.03818696 -1.1648402 1.0421392 234 88 12
-0.05432827 -1.1601166 1.0352954 234 88 12
-0.070414312 -1.1600741 1.0343595 234 88 12
-0.086555533 -1.1676658 1.0430508 234 88 12
-0.050491843 -1.0891812 1.0568883 234 88 12
-0.064864673 -1.0882851 1.0537724 234 88 12
-0.079280607 -1.0883065 1.0538473 234 88 12
-0.021777311 -1.1106429 1.0810294 234 88 12
-0.036062863 -1.1035236 1.0566006 234 88 12
-0.050422557 -1.102093 1.0516918 234 88 12
-0.064779781 -1.1012563 1.0488205 234 88 12
-0.079175286 -1.1012563 1.0488205 234 88 12
-0.093674123 -1.1024724 1.0529935 234 88 12
-0.021695808 -1.1209501 1.0667663 234 88 12
-0.036037959 -1.1171767 1.0539856 234 88 12
-0.050387476 -1.1157227 1.0490606 234 88 12
-0.064723186 -1.1146772 1.0455194 234 88 12
-0.079064548 -1.1140914 1.0435352 234 88 12
-0.093570791 -1.1156517 1.0488205 234 88 12
-0.10870205 -1.1232545 1.0745716 234 88 12
-0.021658992 -1.1334873 1.0603237 234 88 12
-0.036021665 -1.1310803 1.0522749 234 88 12
-0.050371829 -1.1297683 1.0478873 234 88 12
-0.064689174 -1.1284667 1.0435352 234 88 12
-0.079064548 -1.1284667 1.0435352 234 88 12
-0.093464561 -1.1287644 1.0445304 234 88 12
-0.10878946 -1.1386629 1.077631 234 88 12
-0.021638598 -1.1468457 1.0567546 234 88 12
-0.035997108 -1.144708 1.0496964 234 88 12
-0.050371829 -1.1441602 1.0478873 234 88 12
-0.06459894 -1.141248 1.0382717 234 88 12
-0.078954265 -1.141248 1.0382717 234 88 12
-0.093464561 -1.1431435 1.0445304 234 88 12
-0.10884036 -1.1537079 1.0794127 234 88 12
-0.021678923 -1.1634356 1.0638115 234 88 12
-0.036034971 -1.160326 1.0536718 234 88 12
-0.050371829 -1.1585522 1.0478873 234 88 12
-0.064640194 -1.1563413 1.040678 234 88 12
-0.079092264 -1.1576232 1.044858 234 88 12
-0.093713984 -1.1606116 1.0546031 234 88 12
-0.050522901 -1.1764618 1.0592175 234 88 12
-0.064969927 -1.1766775 1.0599122 234 88 12
-0.079419263 -1.1768491 1.0604649 234 88 12
-0.02013083 -1.1408236 1.0891778 234 88 12
-0.028128104 -1.1644323 1.0709401 234 88 12
-0.027040187 -1.1503106 1.0698471 234 88 12
-0.026930824 -1.1368948 1.0709401 234 88 12
-0.028319277 -1.1245241 1.0753829 234 88 12
-0.026690111 -1.1100219 1.0730797 234 88 12
-0.036714751 -1.161769 1.0568726 234 88 12
-0.036117289 -1.1480273 1.0568726 234 88 12
-0.037006445 -1.1353362 1.0601624 234 88 12
-0.037883535 -1.1226104 1.063428 234 88 12
-0.038267009 -1.1095186 1.0656031 234 88 12
-0.041891169 -1.0986139 1.0749598 234 88 12
-0.048632514 -1.1615335 1.0502278 234 88 12
-0.046818171 -1.146925 1.0475625 234 88 12
-0.047437299 -1.1340435 1.0502278 234 88 12
-0.048366569 -1.1213554 1.0535748 234 88 12
-0.049506452 -1.1087846 1.0573865 234 88 12
-0.051990729 -1.0970905 1.0641506 234 88 12
-0.061574243 -1.1620234 1.0457872 234 88 12
-0.059584524 -1.1472863 1.0427687 234 88 12
-0.060377944 -1.1345086 1.0457872 234 88 12
-0.059927743 -1.1208527 1.0461084 234 88 12
-0.061080795 -1.1082814 1.0499115 234 88 12
-0.062960595 -1.096166 1.0552965 234 88 12
-0.064804308 -1.0839838 1.0606073 234 88 12
-0.075906061 -1.1634806 1.0442734 234 88 12
-0.071645916 -1.1471416 1.0364091 234 88 12
-0.071938008 -1.134006 1.0383215 234 88 12
-0.072225526 -1.1208519 1.0402255 234 88 12
-0.073682204 -1.108469 1.0446454 234 88 12
-0.074692711 -1.0957544 1.0481089 234 88 12
-0.078441173 -1.0848063 1.0574679 234 88 12
-0.098864563 -1.1709588 1.0609912 234 88 12
-0.088479683 -1.1502984 1.0401815 234 88 12
-0.086596936 -1.1356243 1.0374511 234 88 12
-0.085999765 -1.1218411 1.0374557 234 88 12
-0.086284637 -1.1086464 1.0393391 234 88 12
-0.087175339 -1.0958357 1.0425147 234 88 12
