ply
format ascii 1.0
element vertex 1562
property float x
property float y
property float z
property uchar red
property uchar green
property uchar blue
end_header
-0.41398633 0.41365889 8.0283937 234 88 12
-0.41014391 0.37666076 8.0205183 234 88 12
-0.40570572 0.3400681 8.020051 234 88 12
-0.40030387 0.30399495 8.0313749 234 88 12
-0.38742319 0.49312535 8.0485468 234 88 12
-0.38633722 0.45401123 8.0076103 234 88 12
-0.38236043 0.41709825 8.0016241 234 88 12
-0.37788501 0.38053414 8.0016241 234 88 12
-0.37338924 0.34398147 8.0018644 234 88 12
-0.36881796 0.30746636 8.0029907 234 88 12
-0.36105776 0.27246299 8.0414305 234 88 12
-0.3583473 0.4945955 7.9910278 234 88 12
-0.35402015 0.45790613 7.9892826 234 88 12
-0.35016087 0.42093286 7.9821749 234 88 12
-0.3456865 0.38437712 7.9821749 234 88 12
-0.34096605 0.34795645 7.9849758 234 88 12
-0.33602965 0.3116242 7.9901967 234 88 12
-0.32948408 0.27600023 8.0135098 234 88 12
-0.32489055 0.49928713 7.9854736 234 88 12
-0.32159796 0.4618746 7.9722166 234 88 12
-0.31712049 0.42529389 7.9722166 234 88 12
-0.31221142 0.38896161 7.9769773 234 88 12
-0.30753818 0.35246766 7.979104 234 88 12
-0.30243453 0.31617013 7.9859133 234 88 12
-0.29599521 0.28042659 8.007184 234 88 12
-0.28984216 0.50502485 7.9962869 234 88 12
-0.28779972 0.46672571 7.9699345 234 88 12
-0.28294301 0.43031693 7.9739223 234 88 12
-0.27758363 0.39415982 7.9832239 234 88 12
-0.27298975 0.35753444 7.9843297 234 88 12
-0.26796922 0.32110602 7.9899249 234 88 12
-0.26182953 0.2851305 8.0072222 234 88 12
-0.25374576 0.55139732 8.0633545 234 88 12
-0.25715369 0.5091005 7.9805884 234 88 12
-0.25336 0.47193113 7.9733024 234 88 12
-0.24956329 0.43481869 7.9661121 234 88 12
-0.24451402 0.39844483 7.9718685 234 88 12
-0.23897158 0.36227822 7.9826245 234 88 12
-0.23371308 0.32589793 7.9903908 234 88 12
-0.22737671 0.28992516 8.0090294 234 88 12
-0.31003711 1.1253133 7.8653736 234 88 12
-0.30654225 1.0876747 7.8549881 234 88 12
-0.30209339 1.0513277 7.8549881 234 88 12
-0.29607818 1.0168928 7.8718019 234 88 12
-0.21706316 0.59852469 8.131485 234 88 12
-0.22521599 0.55247563 8.0027113 234 88 12
-0.22349365 0.51380014 7.9745874 234 88 12
-0.22024547 0.47626746 7.9620194 234 88 12
-0.21595962 0.43942222 7.9599276 234 88 12
-0.20958318 0.40370739 7.9786515 234 88 12
-0.20507315 0.36692658 7.9787269 234 88 12
-0.19967383 0.33055326 7.9875731 234 88 12
-0.19332014 0.29451701 8.0057173 234 88 12
-0.28471357 1.1622927 7.8223133 234 88 12
-0.28042057 1.1258056 7.8207474 234 88 12
-0.27582949 1.0897099 7.8223133 234 88 12
-0.27093735 1.0539709 7.8270011 234 88 12
-0.26555327 1.0187769 7.8367467 234 88 12
-0.25980675 0.98391843 7.8501458 234 88 12
-0.25251064 0.95065939 7.8793478 234 88 12
-0.24738647 0.91486305 7.8860726 234 88 12
-0.24049953 0.8808108 7.9106908 234 88 12
-0.18603723 0.68276542 8.1843262 234 88 12
-0.18854965 0.63989913 8.1140718 234 88 12
-0.18809427 0.5996694 8.0736113 234 88 12
-0.19220892 0.55669516 7.9887304 234 88 12
-0.18994284 0.51839542 7.9668031 234 88 12
-0.18598509 0.48126712 7.9614906 234 88 12
-0.18148269 0.44448254 7.9614906 234 88 12
-0.17659809 0.407897 7.9651713 234 88 12
-0.17206417 0.37111387 7.9654584 234 88 12
-0.16567606 0.33516064 7.9834538 234 88 12
-0.25669354 1.2029239 7.8084183 234 88 12
-0.2528553 1.1658249 7.8022451 234 88 12
-0.24841464 1.1295445 7.8022451 234 88 12
-0.24452256 1.0925876 7.7966976 234 88 12
-0.24008428 1.056327 7.7966976 234 88 12
-0.23359533 1.0224279 7.8172536 234 88 12
-0.22755355 0.98786616 7.8331685 234 88 12
-0.22030887 0.95446503 7.8608999 234 88 12
-0.21584271 0.91797656 7.8608999 234 88 12
-0.20949763 0.88335198 7.8794117 234 88 12
-0.20400125 0.84777188 7.8894401 234 88 12
-0.19900618 0.81165427 7.8944855 234 88 12
-0.19286849 0.77649784 7.9106035 234 88 12
-0.18420394 0.74333209 7.9510627 234 88 12
-0.17934901 0.70680326 7.9544349 234 88 12
-0.17476606 0.67004091 7.9551663 234 88 12
-0.17015485 0.63329339 7.956162 234 88 12
-0.16533418 0.59668243 7.9591451 234 88 12
-0.15969011 0.56058556 7.9699149 234 88 12
-0.15573762 0.52336466 7.9646144 234 88 12
-0.15199338 0.48606321 7.9573975 234 88 12
-0.14838041 0.44874495 7.9490094 234 88 12
-0.14391559 0.41192362 7.9486394 234 88 12
-0.13941132 0.37512374 7.9486394 234 88 12
-0.13201746 0.33959305 7.9753914 234 88 12
-0.22414996 1.2073483 7.7951317 234 88 12
-0.22044756 1.1700829 7.7878041 234 88 12
-0.2160988 1.1336786 7.7868905 234 88 12
-0.21165745 1.0973927 7.7868905 234 88 12
-0.20656922 1.0618569 7.7931924 234 88 12
-0.20113102 1.0266621 7.8028369 234 88 12
-0.19326322 0.99401617 7.8358717 234 88 12
-0.18796843 0.9584235 7.8438768 234 88 12
-0.18350078 0.92193651 7.8438911 234 88 12
-0.17709896 0.88731754 7.8623581 234 88 12
-0.17272393 0.85067129 7.8614159 234 88 12
-0.16825014 0.81412047 7.8614159 234 88 12
-0.16124488 0.77973014 7.8852701 234 88 12
-0.15502053 0.74451554 7.9016008 234 88 12
-0.14840452 0.70947927 7.9214597 234 88 12
-0.14355612 0.67297423 7.9247036 234 88 12
-0.13794078 0.63698691 7.9350314 234 88 12
-0.13362324 0.60004783 7.9332929 234 88 12
-0.12911817 0.56324148 7.9332929 234 88 12
-0.12260783 0.52764165 7.9516616 234 88 12
-0.11826342 0.49067441 7.9501228 234 88 12
-0.11468168 0.45331281 7.9416652 234 88 12
-0.11012501 0.4165006 7.9420996 234 88 12
-0.10510119 0.37990186 7.9467421 234 88 12
-0.09775015 0.34426972 7.9722495 234 88 12
-0.086787686 0.30988038 8.0298672 234 88 12
-0.19061807 1.2130152 7.7910953 234 88 12
-0.18781768 1.1746 7.7753282 234 88 12
-0.18337397 1.1382951 7.7753282 234 88 12
-0.17750253 1.1036563 7.788857 234 88 12
-0.17419758 1.0660112 7.7780552 234 88 12
-0.16677199 1.0329471 7.8060679 234 88 12
-0.16167203 0.99720931 7.8120852 234 88 12
-0.15550849 0.96250325 7.8279676 234 88 12
-0.14975607 0.92726845 7.8399053 234 88 12
-0.14450337 0.89146847 7.8471251 234 88 12
-0.13947156 0.85541153 7.8522534 234 88 12
-0.134114 0.81959707 7.8603282 234 88 12
-0.12836325 0.78404647 7.8719311 234 88 12
-0.12320574 0.74793261 7.8780437 234 88 12
-0.11581962 0.71346766 7.9043078 234 88 12
-0.1113197 0.67670339 7.9043078 234 88 12
-0.1054398 0.64089298 7.916718 234 88 12
-0.10058323 0.6043151 7.9198642 234 88 12
-0.096076526 0.56749547 7.9198642 234 88 12
-0.090269998 0.53144038 7.9314179 234 88 12
-0.084463008 0.49529767 7.9428859 234 88 12
-0.080360286 0.45818034 7.9392343 234 88 12
-0.076290481 0.42107454 7.9353213 234 88 12
-0.071551554 0.38430232 7.9372954 234 88 12
-0.061732937 0.34965792 7.9835463 234 88 12
-0.053861193 0.31391057 8.0125351 234 88 12
-0.046850249 0.27764043 8.0338573 234 88 12
-0.035635702 0.24257834 8.091258 234 88 12
-0.15393217 1.1806082 7.7742033 234 88 12
-0.14973161 1.1439532 7.7718973 234 88 12
-0.14503096 1.1078854 7.7742033 234 88 12
-0.13913947 1.0731082 7.7873855 234 88 12
-0.13449717 1.0368974 7.7890797 234 88 12
-0.1259568 1.0046725 7.8261399 234 88 12
-0.12032563 0.9692719 7.8366075 234 88 12
-0.1156439 0.93288237 7.8384438 234 88 12
-0.11116525 0.89629185 7.8384438 234 88 12
-0.10498872 0.8611998 7.8536134 234 88 12
-0.10050344 0.82455516 7.8536134 234 88 12
-0.095880531 0.78802234 7.8548336 234 88 12
-0.089922309 0.75251865 7.8678365 234 88 12
-0.083133131 0.71753156 7.8880501 234 88 12
-0.077696778 0.68142807 7.8962531 234 88 12
-0.072533742 0.64507663 7.9020076 234 88 12
-0.066853285 0.60901302 7.9122186 234 88 12
-0.062111266 0.57230002 7.9142213 234 88 12
-0.056574792 0.53602892 7.9230661 234 88 12
-0.050541632 0.49996012 7.9361157 234 88 12
-0.045880023 0.46309277 7.9373178 234 88 12
-0.040988281 0.4263263 7.940475 234 88 12
-0.03488097 0.3900778 7.9539452 234 88 12
-0.028265232 0.3539387 7.9716229 234 88 12
-0.01990236 0.31833524 8.0039177 234 88 12
-0.012696857 0.28208557 8.0262423 234 88 12
-0.0041918075 0.24608572 8.0592918 234 88 12
0.0049963961 0.21003893 8.0978041 234 88 12
-0.12068409 1.1857576 7.7664027 234 88 12
-0.11710585 1.1483607 7.7585626 234 88 12
-0.11192561 1.1128024 7.7650595 234 88 12
-0.10640859 1.0775527 7.7744956 234 88 12
-0.10027163 1.0428693 7.78934 234 88 12
-0.092367277 1.0098358 7.8196378 234 88 12
-0.087804146 0.97333378 7.8203859 234 88 12
-0.082098976 0.93788874 7.8311105 234 88 12
-0.076926753 0.9018811 7.8371129 234 88 12
-0.07244122 0.86523432 7.8371129 234 88 12
-0.067883618 0.8286472 7.8377357 234 88 12
-0.061016351 0.79388827 7.8582382 234 88 12
-0.056146197 0.75745136 7.8614578 234 88 12
-0.049575198 0.72222525 7.8791871 234 88 12
-0.04481186 0.68560809 7.8813953 234 88 12
-0.038120724 0.65024745 7.8999381 234 88 12
-0.032973729 0.61377442 7.9052954 234 88 12
-0.026470508 0.57806808 7.9220314 234 88 12
-0.021919198 0.54113406 7.9222717 234 88 12
-0.017024588 0.50438064 7.9253793 234 88 12
-0.011671044 0.46783313 7.9322858 234 88 12
-0.006303309 0.43124005 7.93926 234 88 12
4.9914423e-05 0.39502531 7.9543309 234 88 12
0.0090781432 0.35978407 7.9913273 234 88 12
0.015033602 0.32311282 8.0028381 234 88 12
0.021822039 0.28664303 8.0210791 234 88 12
0.028926402 0.25013727 8.0417652 234 88 12
0.038056966 0.2140547 8.0787563 234 88 12
0.045296453 0.17721841 8.1001844 234 88 12
-0.07407441 1.1228021 7.7965236 234 88 12
-0.069599167 1.0862395 7.7965236 234 88 12
-0.063970707 1.0508431 7.8064265 234 88 12
-0.057898618 1.015801 7.8200502 234 88 12
-0.052882839 0.97965395 7.8245692 234 88 12
-0.048042405 0.94331163 7.8275661 234 88 12
-0.042269375 0.90776193 7.8384299 234 88 12
-0.037090298 0.87162638 7.8442078 234 88 12
-0.031565391 0.83572501 7.8528471 234 88 12
-0.027065473 0.79896075 7.8528471 234 88 12
-0.021961445 0.76264548 7.857883 234 88 12
-0.016695786 0.72640586 7.8642249 234 88 12
-0.009954039 0.69111866 7.8827367 234 88 12
-0.0044774031 0.65487051 7.8906827 234 88 12
0.00095836638 0.61853606 7.8982358 234 88 12
0.0067879534 0.58237344 7.9089589 234 88 12
0.011866433 0.5457142 7.9134779 234 88 12
0.017388184 0.50925148 7.9215679 234 88 12
0.022423772 0.47248909 7.925663 234 88 12
0.028847577 0.43633369 7.9409332 234 88 12
0.036168892 0.40044844 7.9633141 234 88 12
0.043495353 0.36439723 7.9855795 234 88 12
0.049373627 0.32764506 7.9961228 234 88 12
0.057005793 0.29140925 8.0205517 234 88 12
0.063274272 0.25456971 8.0339947 234 88 12
0.071897045 0.21829052 8.0659523 234 88 12
0.077084176 0.18091272 8.0706291 234 88 12
0.085256115 0.14416373 8.0987024 234 88 12
0.097827598 0.10806005 8.1609974 234 88 12
-0.011733019 0.95066994 7.8418636 234 88 12
-0.0071182442 0.91397953 7.8427863 234 88 12
-0.0022156888 0.87751877 7.8460603 234 88 12
0.0026639947 0.84101409 7.8491244 234 88 12
0.0068337931 0.80394667 7.8463902 234 88 12
0.011338404 0.76714408 7.8463902 234 88 12
0.01822572 0.73199898 7.8656406 234 88 12
0.023289053 0.69549292 7.8700709 234 88 12
0.02924755 0.65951949 7.8816509 234 88 12
0.035218976 0.6234647 7.8932533 234 88 12
0.040500276 0.58692634 7.8992767 234 88 12
0.045968063 0.55044293 7.9067388 234 88 12
0.051083054 0.5137223 7.9113579 234 88 12
0.056631085 0.47717497 7.9193592 234 88 12
0.063040279 0.44095555 7.9340711 234 88 12
0.071471177 0.40547743 7.9645104 234 88 12
0.078409567 0.36918539 7.9830956 234 88 12
0.085827522 0.33292818 8.0052834 234 88 12
0.092550248 0.29627326 8.0219326 234 88 12
0.10006424 0.25973591 8.0445805 234 88 12
0.10545967 0.22244504 8.0507679 234 88 12
0.11077622 0.18508889 8.0563078 234 88 12
0.11728425 0.14795379 8.0709209 234 88 12
0.12824452 0.11156503 8.1193628 234 88 12
0.13461317 0.074069656 8.1326094 234 88 12
0.14269477 0.036710963 8.1587343 234 88 12
0.14916366 -0.0010127872 8.1725197 234 88 12
0.15793116 -0.038649347 8.2034979 234 88 12
0.032898478 0.88352168 7.8487978 234 88 12
0.036291339 0.84578156 7.8398948 234 88 12
0.040800642 0.80894065 7.8398948 234 88 12
0.046291776 0.77279878 7.8476429 234 88 12
0.052624773 0.73717016 7.8619571 234 88 12
0.05862052 0.70121109 7.8735299 234 88 12
0.064380452 0.66501623 7.883182 234 88 12
0.069813654 0.62855417 7.8902245 234 88 12
0.075007446 0.59190381 7.8953624 234 88 12
0.080089867 0.55515504 7.8996043 234 88 12
0.085045673 0.51831043 7.902842 234 88 12
0.090736762 0.48178846 7.9117036 234 88 12
0.098046683 0.44591674 7.9328928 234 88 12
0.10611604 0.41019973 7.9597325 234 88 12
0.11333689 0.3739537 7.9799428 234 88 12
0.11992145 0.33732894 7.9951982 234 88 12
0.12704279 0.30076674 8.0144053 234 88 12
0.13372569 0.26392967 8.0301857 234 88 12
0.1396521 0.22676913 8.0401888 234 88 12
0.14585114 0.18960141 8.0521631 234 88 12
0.15367249 0.15269819 8.076148 234 88 12
0.16107388 0.11553887 8.096858 234 88 12
0.1678863 0.078131929 8.1130724 234 88 12
0.17419775 0.040538553 8.1254845 234 88 12
0.18066838 0.0028721911 8.1389875 234 88 12
0.18637671 -0.034954876 8.1468153 234 88 12
0.1922821 -0.07282754 8.1560316 234 88 12
0.20167108 -0.11066397 8.190567 234 88 12
0.084771097 0.8211726 7.9099774 234 88 12
0.084225714 0.78046507 7.8708377 234 88 12
0.088293605 0.74314219 7.8672943 234 88 12
0.093286701 0.70643699 7.8708377 234 88 12
0.098960012 0.67011827 7.8795319 234 88 12
0.10433607 0.63356042 7.8859138 234 88 12
0.11013976 0.59718883 7.8954854 234 88 12
0.11530777 0.56041265 7.9002056 234 88 12
0.11985119 0.52329296 7.9002056 234 88 12
0.12550525 0.48668846 7.9085159 234 88 12
0.13384168 0.45118919 7.9367762 234 88 12
0.14199664 0.41540256 7.9635024 234 88 12
0.14858465 0.37882027 7.9784446 234 88 12
0.15577988 0.34233937 7.9977736 234 88 12
0.16197446 0.3053897 8.0096121 234 88 12
0.1683705 0.26841155 8.0228519 234 88 12
0.17505975 0.23141395 8.0381508 234 88 12
0.18147436 0.19423652 8.0513496 234 88 12
0.18880646 0.15715912 8.0711317 234 88 12
0.19521691 0.11976241 8.0841103 234 88 12
0.20166975 0.082277328 8.0973129 234 88 12
0.2081058 0.044693422 8.1103115 234 88 12
0.21427314 0.0069853882 8.1212997 234 88 12
0.22000638 -0.030838627 8.1291132 234 88 12
0.22537753 -0.068740003 8.1342964 234 88 12
0.23403469 -0.10657505 8.1628036 234 88 12
0.24428242 -0.14460579 8.2024031 234 88 12
0.13719438 0.67736083 7.9022932 234 88 12
0.14077201 0.63961744 7.895092 234 88 12
0.14546035 0.60252911 7.8961196 234 88 12
0.15003783 0.56537622 7.896327 234 88 12
0.15452932 0.52818012 7.8959036 234 88 12
0.16162562 0.49217477 7.9144869 234 88 12
0.16813315 0.45577636 7.9286695 234 88 12
0.1770647 0.42024219 7.9603333 234 88 12
0.18400291 0.38372502 7.9773912 234 88 12
0.19063157 0.34697253 7.9921112 234 88 12
0.19727865 0.31011569 8.0068703 234 88 12
0.20424037 0.27324077 8.0237875 234 88 12
0.21095875 0.23617524 8.0388632 234 88 12
0.21714503 0.19887048 8.0500593 234 88 12
0.22441186 0.16171327 8.0688467 234 88 12
0.23068735 0.12423218 8.0805101 234 88 12
0.23745209 0.086744182 8.0955477 234 88 12
0.24402164 0.049119629 8.1091223 234 88 12
0.24979421 0.011308605 8.1170311 234 88 12
0.2548604 -0.02661941 8.1199598 234 88 12
0.26053685 -0.064532809 8.1271181 234 88 12
0.26701388 -0.10247111 8.1397867 234 88 12
0.27301753 -0.14050487 8.1491041 234 88 12
0.18074104 0.6078015 7.8955836 234 88 12
0.18516465 0.57050657 7.8946304 234 88 12
0.1905341 0.5336687 7.9004369 234 88 12
0.19662856 0.49711162 7.9113669 234 88 12
0.2052651 0.46154255 7.9402657 234 88 12
0.21393129 0.4257665 7.9691935 234 88 12
0.22125669 0.38927916 7.9884868 234 88 12
0.22753672 0.35228997 8.0003128 234 88 12
0.23390964 0.3152414 8.0127153 234 88 12
0.24051161 0.27816626 8.0266418 234 88 12
0.24667166 0.24087128 8.037406 234 88 12
0.25352871 0.20366144 8.0529423 234 88 12
0.25981483 0.166216 8.0644321 234 88 12
0.26642892 0.12874663 8.0781145 234 88 12
0.27411041 0.091347538 8.0990582 234 88 12
0.27875698 0.053385191 8.0990582 234 88 12
0.28491443 0.015588849 8.1093893 234 88 12
0.28956556 -0.022410788 8.1093893 234 88 12
0.29421669 -0.060410425 8.1093893 234 88 12
0.30073416 -0.098343782 8.1220379 234 88 12
0.30658847 -0.13637586 8.1301289 234 88 12
0.32068354 -0.17457601 8.1936855 234 88 12
0.2320118 0.54166818 7.9420614 234 88 12
0.269122 0.35914686 8.0394192 234 88 12
0.27114499 0.32052672 8.021594 234 88 12
0.27752042 0.28328082 8.0335684 234 88 12
0.28326023 0.24578054 8.0411472 234 88 12
0.28950512 0.20834228 8.0521059 234 88 12
0.29600972 0.17087708 8.0647545 234 88 12
0.3024978 0.13331532 8.0772171 234 88 12
0.30811372 0.095522709 8.0837431 234 88 12
0.31427094 0.057755027 8.0938587 234 88 12
0.32109606 0.01998679 8.1083755 234 88 12
0.32650262 -0.018009134 8.1133575 234 88 12
0.33235681 -0.05601383 8.1212835 234 88 12
0.33567432 -0.094170868 8.1123657 234 88 12
0.3406108 -0.13224167 8.1141891 234 88 12
0.32789761 0.2135718 8.0665083 234 88 12
0.33323181 0.17574139 8.0710421 234 88 12
0.3389318 0.13794431 8.0779591 234 88 12
0.34490147 0.10013895 8.086607 234 88 12
0.35037148 0.062202752 8.0919323 234 88 12
0.35680309 0.02433362 8.1035061 234 88 12
0.36146733 -0.013773104 8.1035061 234 88 12
0.36687216 -0.051833358 8.1083136 234 88 12
0.372284 -0.089928329 8.1131401 234 88 12
0.37857306 -0.12804459 8.1236 234 88 12
0.3837001 0.10506795 8.1014643 234 88 12
0.38730571 0.066761151 8.0946417 234 88 12
0.39193964 0.028618304 8.0944233 234 88 12
0.39660776 -0.0095199598 8.0944233 234 88 12
0.40669486 -0.0473116 8.1288261 234 88 12
0.41625848 -0.085375443 8.1597223 234 88 12
0.23264088 -0.12861641 8.2053852 234 88 12
0.26900172 -0.13663252 8.1731014 234 88 12
0.30592927 -0.14269546 8.1591301 234 88 12
0.34395227 -0.14608449 8.1705837 234 88 12
0.19882603 -0.091465876 8.1802902 234 88 12
0.23523583 -0.099672295 8.1473446 234 88 12
0.27210125 -0.10598934 8.1314888 234 88 12
0.30932042 -0.11114052 8.126256 234 88 12
0.34699896 -0.11515677 8.1314888 234 88 12
0.38554868 -0.11741801 8.1530771 234 88 12
0.16533038 -0.053346287 8.1642313 234 88 12
0.20264351 -0.059006687 8.1549034 234 88 12
0.23963644 -0.065426946 8.1387587 234 88 12
0.27657887 -0.071656272 8.1241894 234 88 12
0.31361273 -0.077381402 8.1140175 234 88 12
0.35154724 -0.080836385 8.124155 234 88 12
0.38934082 -0.084759302 8.1301527 234 88 12
0.1692917 -0.020457713 8.1427298 234 88 12
0.20672192 -0.025686201 8.1373644 234 88 12
0.24390502 -0.031552877 8.1264572 234 88 12
0.28075731 -0.038119186 8.1094131 234 88 12
0.31825197 -0.042708505 8.1094131 234 88 12
0.35579202 -0.047190282 8.1103506 234 88 12
0.39458382 -0.048933905 8.1352625 234 88 12
0.1366709 0.02149393 8.1584196 234 88 12
0.17343833 0.013136158 8.1273155 234 88 12
0.21098551 0.0082758665 8.1251822 234 88 12
0.24868019 0.0039266106 8.1273155 234 88 12
0.28574106 -0.0022748692 8.1138878 234 88 12
0.32329524 -0.0069231275 8.113471 234 88 12
0.36086679 -0.011521857 8.113471 234 88 12
0.39875275 -0.015415084 8.1194696 234 88 12
0.14078458 0.055026937 8.1415462 234 88 12
0.17805763 0.048594724 8.1268721 234 88 12
0.21533565 0.042561658 8.1153355 234 88 12
0.25292608 0.03779418 8.1140289 234 88 12
0.29054388 0.033134226 8.1135931 234 88 12
0.32756552 0.026894975 8.1001921 234 88 12
0.36515227 0.022294387 8.1001921 234 88 12
0.40330321 0.01898439 8.1108608 234 88 12
0.10735447 0.094179943 8.1324644 234 88 12
0.14483793 0.088290483 8.1225195 234 88 12
0.18235835 0.082840361 8.1159658 234 88 12
0.21968532 0.076873146 8.1052799 234 88 12
0.25700906 0.071151853 8.0964708 234 88 12
0.29464522 0.066545211 8.0964708 234 88 12
0.33247268 0.062456992 8.1006107 234 88 12
0.37018928 0.058012988 8.1019287 234 88 12
0.41019446 0.058878619 8.1459589 234 88 12
0.074447639 0.13692011 8.1501303 234 88 12
0.11131342 0.12693205 8.1093616 234 88 12
0.14884026 0.12131792 8.1017609 234 88 12
0.18655834 0.11670125 8.1017609 234 88 12
0.22415482 0.1116447 8.0983753 234 88 12
0.26161358 0.10621926 8.0921173 234 88 12
0.29953843 0.10232971 8.0977192 234 88 12
0.33738407 0.098106265 8.1007633 234 88 12
0.37527421 0.093937911 8.1042576 234 88 12
0.040410619 0.17325601 8.118535 234 88 12
0.077568568 0.1644274 8.0874653 234 88 12
0.11521495 0.15936972 8.0842009 234 88 12
0.15293157 0.15474576 8.0841465 234 88 12
0.19064958 0.15012911 8.0841465 234 88 12
0.22851367 0.14604798 8.0881634 234 88 12
0.26624611 0.14142956 8.0881634 234 88 12
0.30397165 0.13679013 8.0880041 234 88 12
0.34179753 0.13243504 8.0899992 234 88 12
0.38077334 0.13102336 8.1143799 234 88 12
0.0066743488 0.21142744 8.1008816 234 88 12
0.044154778 0.20413168 8.081706 234 88 12
0.081588596 0.19741678 8.0666037 234 88 12
0.11929089 0.19271567 8.0659924 234 88 12
0.15702341 0.18817598 8.0665493 234 88 12
0.19474143 0.18355931 8.0665493 234 88 12
0.23260707 0.17949098 8.0705595 234 88 12
0.27046794 0.17530569 8.0737381 234 88 12
0.30864516 0.17202361 8.0835848 234 88 12
0.34663495 0.16799812 8.088006 234 88 12
-0.36675182 0.28490216 8.0398693 234 88 12
-0.32910454 0.28062207 8.0421352 234 88 12
-0.29151076 0.27711532 8.0496998 234 88 12
-0.027061922 0.24959888 8.0832272 234 88 12
0.010466884 0.24211392 8.0632467 234 88 12
0.048236396 0.23749095 8.0632467 234 88 12
0.085728787 0.2311473 8.0511217 234 88 12
0.12339866 0.22623049 8.0490074 234 88 12
0.1613441 0.22267984 8.0565653 234 88 12
0.199204 0.21853784 8.0599661 234 88 12
0.23713472 0.21456707 8.0646086 234 88 12
0.27490914 0.2099435 8.0646086 234 88 12
0.31299475 0.20629445 8.0716057 234 88 12
-0.40022135 0.32210103 8.0168943 234 88 12
-0.36244124 0.31663093 8.0111866 234 88 12
-0.32475346 0.31163353 8.0085926 234 88 12
-0.2871176 0.30702692 8.0085926 234 88 12
-0.24966542 0.30540332 8.0285683 234 88 12
-0.21198548 0.30153441 8.0335827 234 88 12
-0.06096394 0.2850149 8.0468435 234 88 12
-0.023215901 0.28008685 8.0447674 234 88 12
0.014505816 0.27505746 8.0419855 234 88 12
0.052262191 0.27043611 8.0419855 234 88 12
0.090100765 0.26632789 8.045516 234 88 12
0.12775925 0.26110885 8.0414028 234 88 12
0.16559471 0.2568723 8.0440645 234 88 12
0.20355813 0.2530925 8.0499134 234 88 12
0.24153218 0.24918731 8.0549259 234 88 12
0.27960271 0.2454865 8.0613966 234 88 12
0.31775922 0.24190475 8.0687418 234 88 12
-0.43420348 0.36241475 8.014287 234 88 12
-0.39613518 0.35548499 7.9993219 234 88 12
-0.35835731 0.3499966 7.9936242 234 88 12
-0.32071209 0.34538886 7.9936242 234 88 12
-0.28308079 0.34095261 7.9947433 234 88 12
-0.24544832 0.33663517 7.9966464 234 88 12
-0.2078564 0.33390665 8.0089903 234 88 12
-0.17016777 0.33045381 8.0166388 234 88 12
-0.13239367 0.32925004 8.0391808 234 88 12
-0.09470854 0.32128212 8.0170631 234 88 12
-0.056978587 0.31666401 8.0170631 234 88 12
-0.019118818 0.31355995 8.0271482 234 88 12
0.018647596 0.30893737 8.0271482 234 88 12
0.056461375 0.30466643 8.0295048 234 88 12
0.094282582 0.30033314 8.031456 234 88 12
0.13206457 0.29570866 8.031456 234 88 12
0.1699255 0.29146144 8.0340061 234 88 12
0.20782126 0.28728202 8.0370321 234 88 12
0.24579082 0.2832998 8.0414171 234 88 12
0.2839019 0.27969891 8.0484295 234 88 12
-0.43038124 0.39745727 8.0068521 234 88 12
-0.39212298 0.38937882 7.9849763 234 88 12
-0.3543832 0.38425866 7.9817495 234 88 12
-0.31664568 0.37893012 7.9771786 234 88 12
-0.27901933 0.37461963 7.9790788 234 88 12
-0.24144708 0.37156343 7.989017 234 88 12
-0.20375495 0.36694995 7.989017 234 88 12
-0.166053 0.36106312 7.9808216 234 88 12
-0.12838875 0.35656744 7.9815583 234 88 12
-0.090660557 0.35356915 7.991993 234 88 12
-0.052906718 0.34976596 7.9972615 234 88 12
-0.015013212 0.34713155 8.0101709 234 88 12
0.022755524 0.3425087 8.0101709 234 88 12
0.060559381 0.33814707 8.0118818 234 88 12
0.098612376 0.3352766 8.0233955 234 88 12
0.136429 0.33064789 8.0233955 234 88 12
0.1742575 0.32607645 8.0237741 234 88 12
0.21216856 0.32184872 8.026432 234 88 12
0.25029007 0.31836331 8.0340376 234 88 12
0.28873616 0.3158282 8.0480223 234 88 12
-0.42801178 0.44159514 8.0551424 234 88 12
-0.3883222 0.42482448 7.9800997 234 88 12
-0.35059863 0.42020714 7.9800997 234 88 12
-0.31287748 0.41561502 7.9802566 234 88 12
-0.27515334 0.41099763 7.9802566 234 88 12
-0.23741908 0.40617982 7.979002 234 88 12
-0.19962579 0.39891571 7.9623828 234 88 12
-0.16196615 0.39423928 7.9619613 234 88 12
-0.12432425 0.38873759 7.9563274 234 88 12
-0.086686909 0.38413081 7.9563274 234 88 12
-0.048820976 0.38309777 7.9790158 234 88 12
-0.010956213 0.38014436 7.9896069 234 88 12
0.026852859 0.37598386 7.9925504 234 88 12
0.064621598 0.37136099 7.9925504 234 88 12
0.10272759 0.36887458 8.0062685 234 88 12
0.14056452 0.36434704 8.0069218 234 88 12
0.17850111 0.36028063 8.0105562 234 88 12
0.21663497 0.35695499 8.0190096 234 88 12
0.25463679 0.35286036 8.0225172 234 88 12
-0.38466248 0.46147358 7.9819784 234 88 12
-0.34674758 0.45577979 7.9754901 234 88 12
-0.30903506 0.45179629 7.9793873 234 88 12
-0.27115884 0.44585085 7.9713187 234 88 12
-0.23340322 0.44122958 7.9713187 234 88 12
-0.19558351 0.43403044 7.9554815 234 88 12
-0.15788102 0.42768443 7.9448137 234 88 12
-0.12021892 0.42321521 7.9456801 234 88 12
-0.08252833 0.41926807 7.9497848 234 88 12
-0.044736147 0.41641915 7.9607339 234 88 12
-0.0069131888 0.41300568 7.9682269 234 88 12
0.031105038 0.4108555 7.9836521 234 88 12
0.069029957 0.40715814 7.9894729 234 88 12
0.10686395 0.40260783 7.9899688 234 88 12
0.14486441 0.39895952 7.9961491 234 88 12
0.1828284 0.39490658 7.9998083 234 88 12
0.22092688 0.39132473 8.0064716 234 88 12
-0.38130221 0.50067502 7.9981937 234 88 12
-0.34282598 0.49087995 7.9675269 234 88 12
-0.30500528 0.48608282 7.9665141 234 88 12
-0.26719639 0.48135415 7.9659061 234 88 12
-0.22936682 0.47605249 7.9618578 234 88 12
-0.1915231 0.46877283 7.9458919 234 88 12
-0.15379576 0.46282876 7.9378943 234 88 12
-0.11610502 0.45787993 7.9358711 234 88 12
-0.078361563 0.45446518 7.9431376 234 88 12
-0.040644407 0.44984862 7.9431376 234 88 12
-0.0027132533 0.4476468 7.9578567 234 88 12
0.035221301 0.44449815 7.9668689 234 88 12
0.073097073 0.4404113 7.97018 234 88 12
0.1110704 0.43679097 7.9763765 234 88 12
0.14897011 0.43250301 7.9784927 234 88 12
0.18699192 0.42874053 7.9838676 234 88 12
0.22527608 0.42596364 7.9953799 234 88 12
-0.30197105 0.53243643 8.0239582 234 88 12
-0.2632764 0.51777798 7.9653835 234 88 12
-0.22537588 0.51220554 7.9598732 234 88 12
-0.18750274 0.50597382 7.9504509 234 88 12
-0.1496965 0.50056928 7.9458637 234 88 12
-0.11193161 0.49483636 7.9393077 234 88 12
-0.074172825 0.4900257 7.9381924 234 88 12
-0.03638643 0.48574683 7.9402356 234 88 12
0.0014888475 0.48229483 7.9472246 234 88 12
0.039322414 0.47800416 7.9492326 234 88 12
0.077125944 0.47337705 7.9492326 234 88 12
0.11495908 0.46893999 7.950376 234 88 12
0.15293883 0.46527782 7.9561996 234 88 12
0.19105454 0.46207619 7.9648404 234 88 12
0.22954248 0.46025118 7.9818769 234 88 12
-0.26045749 0.57338041 8.074254 234 88 12
-0.22144111 0.55028296 7.968328 234 88 12
-0.18347153 0.54372019 7.9572554 234 88 12
-0.14558595 0.53647262 7.9421635 234 88 12
-0.10775927 0.53123909 7.938674 234 88 12
-0.069981858 0.52550244 7.932241 234 88 12
-0.032175973 0.52087504 7.932241 234 88 12
0.0056375503 0.51633257 7.9327374 234 88 12
0.043444272 0.51169616 7.9326863 234 88 12
0.081166439 0.5064283 7.9289241 234 88 12
0.11896021 0.50180238 7.9289241 234 88 12
0.15696813 0.4983854 7.9360652 234 88 12
0.19511372 0.49539122 7.9457479 234 88 12
0.23368703 0.49400052 7.9650035 234 88 12
-0.2181579 0.6079241 8.0860786 234 88 12
-0.17939597 0.57984853 7.9539323 234 88 12
-0.14147398 0.57102054 7.9302211 234 88 12
-0.10362644 0.56582189 7.9270148 234 88 12
-0.065803178 0.56060934 7.9237123 234 88 12
-0.028022155 0.55513918 7.9189219 234 88 12
0.0097579164 0.55005002 7.9162889 234 88 12
0.047545813 0.54520571 7.9150476 234 88 12
0.08515504 0.53908825 7.9064717 234 88 12
0.12297553 0.53475142 7.9081278 234 88 12
0.16107102 0.53190589 7.9184208 234 88 12
0.19922043 0.52894306 7.9280872 234 88 12
-0.17528841 0.61429459 7.9407196 234 88 12
-0.13734676 0.60683084 7.9250684 234 88 12
-0.099520147 0.59937024 7.9093561 234 88 12
-0.061640371 0.59531051 7.9125571 234 88 12
-0.023810895 0.59019923 7.9098873 234 88 12
0.013925666 0.58428508 7.9026976 234 88 12
0.051696293 0.57915246 7.8998694 234 88 12
0.08950647 0.57447594 7.8996 234 88 12
0.127322 0.56984735 7.8996 234 88 12
0.16536808 0.56653523 7.907064 234 88 12
0.20345163 0.56312865 7.9140291 234 88 12
-0.17118005 0.64907038 7.9291258 234 88 12
-0.13321036 0.64265263 7.9194922 234 88 12
-0.095257036 0.63800722 7.9194922 234 88 12
-0.057401221 0.63144964 7.9090223 234 88 12
-0.019554574 0.62585139 7.9037666 234 88 12
0.018322432 0.62101024 7.9026504 234 88 12
0.056187853 0.61613977 7.9013677 234 88 12
0.09405724 0.61137134 7.9006424 234 88 12
0.13188821 0.60638773 7.8987212 234 88 12
0.16984461 0.60220712 7.9012527 234 88 12
0.2080719 0.59931767 7.9109907 234 88 12
-0.16707021 0.68437409 7.9201131 234 88 12
-0.12907018 0.67809069 7.9114027 234 88 12
-0.091106482 0.67266989 7.9072719 234 88 12
-0.053238366 0.66600496 7.8964391 234 88 12
-0.015338873 0.66088849 7.8938904 234 88 12
0.022577556 0.65616137 7.8934307 234 88 12
0.0605097 0.65160465 7.8938904 234 88 12
0.098461546 0.64717072 7.8950181 234 88 12
0.13634846 0.64225662 7.8935413 234 88 12
0.17472889 0.64025515 7.9079299 234 88 12
-0.16295204 0.71944273 7.9095435 234 88 12
-0.12493049 0.7130304 7.9003382 234 88 12
-0.086957045 0.70720673 7.8941832 234 88 12
-0.049074855 0.70052963 7.883502 234 88 12
-0.011150655 0.69551486 7.8815498 234 88 12
0.026793346 0.69087052 7.8815498 234 88 12
0.064784698 0.68664718 7.8837838 234 88 12
0.10288535 0.68312335 7.88975 234 88 12
0.14130616 0.68140769 7.9053869 234 88 12
-0.19698393 0.76304477 7.9185538 234 88 12
-0.15882747 0.75430161 7.8976321 234 88 12
-0.12079047 0.74770832 7.8876791 234 88 12
-0.082792632 0.74209166 7.8827181 234 88 12
-0.044957723 0.73416656 7.8657966 234 88 12
-0.0069259703 0.73061192 7.8714495 234 88 12
0.031103155 0.72657651 7.8746309 234 88 12
0.069086947 0.72192729 7.8746309 234 88 12
0.10737269 0.71956271 7.8865561 234 88 12
-0.19279434 0.79417002 7.8872557 234 88 12
-0.1546976 0.7880426 7.8798718 234 88 12
-0.11666847 0.78120279 7.868855 234 88 12
-0.078640528 0.77654821 7.868855 234 88 12
-0.040672459 0.77081966 7.8634028 234 88 12
-0.002743314 0.76511449 7.8580446 234 88 12
0.03524467 0.76046473 7.8580446 234 88 12
0.073522985 0.7583887 7.8712006 234 88 12
-0.22693285 0.8376022 7.8941483 234 88 12
-0.18863849 0.82656854 7.862731 234 88 12
-0.15056753 0.82190871 7.862731 234 88 12
-0.11252797 0.81566608 7.854877 234 88 12
-0.074486099 0.81100982 7.854877 234 88 12
-0.036505193 0.80528086 7.8495302 234 88 12
0.0014585985 0.79985458 7.8456712 234 88 12
0.039612774 0.79675692 7.8534551 234 88 12
0.077786334 0.79331362 7.8595395 234 88 12
-0.2228376 0.87290746 7.8833985 234 88 12
-0.18456377 0.86410135 7.8633618 234 88 12
-0.14643197 0.85725898 7.852787 234 88 12
-0.10838275 0.8502335 7.8412733 234 88 12
-0.07028874 0.84650278 7.8458042 234 88 12
-0.032309636 0.84020245 7.8377743 234 88 12
0.005765433 0.83595008 7.8397574 234 88 12
0.04391076 0.83228284 7.8446279 234 88 12
-0.25709268 0.91537875 7.8842039 234 88 12
-0.21874264 0.90845788 7.8735695 234 88 12
-0.18043807 0.8988536 7.8500924 234 88 12
-0.1422821 0.89418334 7.8500924 234 88 12
-0.10418346 0.88702738 7.8381882 234 88 12
-0.066012621 0.88380563 7.8451142 234 88 12
-0.027947238 0.87791383 7.8392277 234 88 12
0.010151482 0.87302905 7.8381696 234 88 12
0.048874166 0.87479109 7.8692203 234 88 12
-0.25286222 0.94759321 7.858335 234 88 12
-0.21459384 0.94235355 7.8557277 234 88 12
-0.17633729 0.9363867 7.8497009 234 88 12
-0.13812673 0.93026543 7.8429236 234 88 12
-0.099931188 0.92559034 7.8429236 234 88 12
-0.061669145 0.92249036 7.8503532 234 88 12
-0.023458963 0.91759461 7.8493261 234 88 12
0.014847664 0.91404009 7.8546481 234 88 12
-0.28735194 0.99267679 7.870235 234 88 12
-0.24877045 0.98286319 7.8467546 234 88 12
-0.21044503 0.97624928 7.8378859 234 88 12
-0.1721909 0.97026253 7.8318701 234 88 12
-0.13397014 0.96558434 7.8318701 234 88 12
-0.095724456 0.96186066 7.8362861 234 88 12
-0.057448655 0.95806813 7.8404016 234 88 12
-0.019196078 0.95338601 7.8404016 234 88 12
-0.28303161 1.0238901 7.8397794 234 88 12
-0.24464531 1.0174683 7.8319659 234 88 12
-0.20634417 1.012206 7.8293619 234 88 12
-0.16804703 1.0045265 7.8157969 234 88 12
-0.12981826 0.99998313 7.8164129 234 88 12
-0.091576293 0.99575108 7.8184476 234 88 12
-0.053285368 0.99227375 7.8239307 234 88 12
-0.3174898 1.0667634 7.8405638 234 88 12
-0.27881083 1.0566702 7.8166733 234 88 12
-0.24049167 1.0514035 7.8141036 234 88 12
-0.20210794 1.0421718 7.7938933 234 88 12
-0.16389993 1.038408 7.7979627 234 88 12
-0.12567092 1.0338668 7.7985778 234 88 12
-0.087295495 1.0342213 7.8210974 234 88 12
-0.0488608 1.0321698 7.8329244 234 88 12
-0.31332543 1.1007863 7.8226552 234 88 12
-0.27465615 1.0906138 7.7988067 234 88 12
-0.23633172 1.0851599 7.7954612 234 88 12
-0.19796251 1.07604 7.7760663 234 88 12
-0.15975039 1.0713629 7.7760663 234 88 12
-0.12152358 1.0677505 7.7807426 234 88 12
-0.083117031 1.0689046 7.8064137 234 88 12
-0.044540539 1.069556 7.8299718 234 88 12
-0.30932605 1.1373438 7.8155909 234 88 12
-0.27063477 1.1272703 7.7925696 234 88 12
-0.23225464 1.1213956 7.7874932 234 88 12
-0.19393986 1.1171263 7.7893066 234 88 12
-0.15561056 1.1117876 7.7865143 234 88 12
-0.11729228 1.1070974 7.7865143 234 88 12
-0.078937009 1.1035765 7.7915773 234 88 12
-0.30549946 1.176881 7.8207335 234 88 12
-0.26666218 1.1652517 7.7915554 234 88 12
-0.22820272 1.1587715 7.7840328 234 88 12
-0.18979223 1.1517935 7.7743716 234 88 12
-0.1514536 1.1457497 7.7686377 234 88 12
-0.11313167 1.1412765 7.7695603 234 88 12
-0.074639551 1.1417582 7.7915978 234 88 12
-0.26257843 1.2011504 7.7813649 234 88 12
-0.22412144 1.1956327 7.7779794 234 88 12
-0.18565178 1.1872096 7.7624669 234 88 12
-0.1472903 1.1821697 7.7610283 234 88 12
-0.10893334 1.1774749 7.7610283 234 88 12
0.29416016 0.23456684 8.0694342 234 88 12
0.25772306 0.23570631 8.0470266 234 88 12
0.22163844 0.23599219 8.0317678 234 88 12
0.18584493 0.23535886 8.0241756 234 88 12
0.15039307 0.23304936 8.0304947 234 88 12
0.114788 0.23150133 8.0304947 234 88 12
0.07929574 0.22897156 8.0386114 234 88 12
0.043706741 0.22691171 8.0428276 234 88 12
0.0081302077 0.22413085 8.0529795 234 88 12
0.33357716 0.19845743 8.1120768 234 88 12
0.2956807 0.20377497 8.0562162 234 88 12
0.25951624 0.20380984 8.0433273 234 88 12
0.22366348 0.20286222 8.0384254 234 88 12
0.18791889 0.20153983 8.0365667 234 88 12
0.15222609 0.19998796 8.0365667 234 88 12
0.11653689 0.19841059 8.0367727 234 88 12
0.080935463 0.19604546 8.0433273 234 88 12
0.045326255 0.19323844 8.053422 234 88 12
0.33519122 0.16725972 8.1003857 234 88 12
0.29819328 0.1693695 8.0712996 234 88 12
0.26164073 0.17050861 8.0499573 234 88 12
0.22587384 0.16877431 8.0513592 234 88 12
0.19012082 0.1669181 8.0537195 234 88 12
0.1541605 0.16620848 8.04704 234 88 12
0.11837073 0.16460656 8.0473986 234 88 12
0.082645573 0.16240357 8.0524807 234 88 12
0.37542641 0.1295702 8.150692 234 88 12
0.33689854 0.13571103 8.0910282 234 88 12
0.30017737 0.13674143 8.0709743 234 88 12
0.26401687 0.13605382 8.0642214 234 88 12
0.22813728 0.13429202 8.0657625 234 88 12
0.19219893 0.13278213 8.0653601 234 88 12
0.15623908 0.13142075 8.063818 234 88 12
0.12053481 0.12827061 8.0760145 234 88 12
0.085634917 0.11704297 8.1501398 234 88 12
0.37673244 0.099187061 8.1306257 234 88 12
0.33886996 0.10321073 8.0883675 234 88 12
0.30232871 0.10339243 8.0751715 234 88 12
0.26625183 0.10202612 8.0736647 234 88 12
0.23057455 0.098839171 8.0858555 234 88 12
0.1945086 0.097271085 8.0858555 234 88 12
0.15838489 0.096061535 8.0831652 234 88 12
0.12251653 0.093097538 8.0936327 234 88 12
0.37843278 0.067549154 8.1198378 234 88 12
0.34113213 0.069616236 8.0929813 234 88 12
0.30470687 0.069061644 8.0854893 234 88 12
0.26857197 0.067499444 8.0854244 234 88 12
0.232776 0.064325802 8.0971994 234 88 12
0.19639978 0.063852832 8.0891285 234 88 12
0.16024409 0.062345576 8.0886564 234 88 12
0.12451649 0.05764126 8.1115971 234 88 12
0.38000926 0.036268845 8.1060648 234 88 12
0.34327316 0.036330733 8.0942602 234 88 12
0.30684704 0.035511088 8.0888233 234 88 12
0.2706342 0.033936616 8.0888233 234 88 12
0.23456495 0.03166689 8.0938148 234 88 12
0.19860677 0.028590942 8.1045761 234 88 12
0.16254152 0.025716867 8.1138687 234 88 12
0.42097771 -0.002923531 8.1589775 234 88 12
0.38238585 0.0023143026 8.1108713 234 88 12
0.34582102 0.0014765172 8.1056404 234 88 12
0.30929402 0.00063529948 8.1004448 234 88 12
0.27304578 -0.0012680269 8.1027222 234 88 12
0.23702121 -0.0043512834 8.1132746 234 88 12
0.20078258 -0.0066515398 8.1183147 234 88 12
0.16450337 -0.0089184698 8.1231117 234 88 12
0.42434049 -0.039919853 8.1826448 234 88 12
0.38424075 -0.030008191 8.1033478 234 88 12
0.34770477 -0.031097217 8.0999489 234 88 12
0.31131536 -0.032679364 8.0999489 234 88 12
0.27557108 -0.037138712 8.1197157 234 88 12
0.23897885 -0.038055558 8.1151285 234 88 12
0.20263295 -0.040189862 8.1188984 234 88 12
0.16651711 -0.0440173 8.1342554 234 88 12
0.38780051 -0.068225376 8.1350336 234 88 12
0.35051227 -0.067182772 8.1173 234 88 12
0.31368122 -0.067496195 8.1087255 234 88 12
0.27690303 -0.067774057 8.0999308 234 88 12
0.24093507 -0.071851566 8.1166649 234 88 12
0.20486055 -0.075996809 8.1338186 234 88 12
0.16903116 -0.082592852 8.1673594 234 88 12
0.38966763 -0.10081051 8.1273632 234 88 12
0.35267594 -0.10101192 8.1181955 234 88 12
0.31586525 -0.10169505 8.1122179 234 88 12
0.27963275 -0.10484497 8.1224785 234 88 12
0.2432106 -0.10739201 8.1287565 234 88 12
0.20699103 -0.11138691 8.1445274 234 88 12
0.35444146 -0.13340992 8.1089878 234 88 12
0.31781164 -0.13500252 8.1089878 234 88 12
0.28128091 -0.13705833 8.1119709 234 88 12
-0.18062416 1.2242304 7.8064094 234 88 12
-0.22070727 1.2239221 7.8037562 234 88 12
-0.26100504 1.2247159 7.8105884 234 88 12
-0.10017959 1.1821191 7.788857 234 88 12
-0.14000684 1.1800576 7.7705131 234 88 12
-0.1801161 1.1807611 7.776773 234 88 12
-0.22046117 1.1824735 7.7920108 234 88 12
-0.26081002 1.1836762 7.802712 234 88 12
-0.30125728 1.1849453 7.8140054 234 88 12
-0.10005996 1.1406835 7.7762961 234 88 12
-0.14000684 1.1400557 7.7705131 234 88 12
-0.18010794 1.1406835 7.7762961 234 88 12
-0.22019093 1.1409893 7.7791123 234 88 12
-0.26081002 1.1435516 7.802712 234 88 12
-0.30096292 1.1436591 7.8037028 234 88 12
-0.060283858 1.1052041 7.819675 234 88 12
-0.10007689 1.1008458 7.7780738 234 88 12
-0.14008395 1.1006596 7.7762961 234 88 12
-0.1801161 1.1007096 7.776773 234 88 12
-0.22045711 1.1022855 7.7918162 234 88 12
-0.26062983 1.1026647 7.7954354 234 88 12
-0.30121765 1.1044648 7.8126178 234 88 12
-0.060283858 1.0650148 7.819675 234 88 12
-0.100162 1.0617172 7.7870097 234 88 12
-0.1402268 1.0617172 7.7870097 234 88 12
-0.18023941 1.0614098 7.7839656 234 88 12
-0.22053294 1.0625677 7.7954354 234 88 12
-0.26062983 1.0625677 7.7954354 234 88 12
-0.30123556 1.0643656 7.8132443 234 88 12
-0.020159176 1.028118 7.8535676 234 88 12
-0.060373981 1.0263577 7.8354468 234 88 12
-0.10044114 1.0244997 7.8163199 234 88 12
-0.1402268 1.0216523 7.7870097 234 88 12
-0.18068045 1.0238559 7.8096929 234 88 12
-0.2209011 1.0241778 7.8130069 234 88 12
-0.26110244 1.0243249 7.8145213 234 88 12
-0.30182186 1.0261943 7.8337655 234 88 12
-0.020151705 0.98743355 7.8496451 234 88 12
-0.060424007 0.98692548 7.8442016 234 88 12
-0.10054623 0.98535305 7.827354 234 88 12
-0.14076471 0.98535305 7.827354 234 88 12
-0.18072072 0.98392391 7.8120418 234 88 12
-0.22142902 0.98636562 7.838203 234 88 12
-0.26168945 0.98636794 7.8382277 234 88 12
-0.020147167 0.94691688 7.8472629 234 88 12
-0.060424007 0.94664282 7.8442016 234 88 12
-0.10066888 0.94628745 7.8402324 234 88 12
-0.14090937 0.94610578 7.838203 234 88 12
-0.1811692 0.94610578 7.838203 234 88 12
-0.22176993 0.9475624 7.8544736 234 88 12
-0.26213133 0.94770557 7.8560729 234 88 12
0.020182569 0.90821552 7.8658481 234 88 12
-0.020150963 0.90679336 7.849256 234 88 12
-0.06043227 0.90648407 7.8456473 234 88 12
-0.10066888 0.90601993 7.8402324 234 88 12
-0.14093643 0.90601993 7.8402324 234 88 12
-0.18136746 0.90683728 7.8497682 234 88 12
-0.22178325 0.90729511 7.8551097 234 88 12
-0.26258203 0.90893781 7.8742747 234 88 12
0.060744956 0.87067771 7.9003673 234 88 12
0.020162886 0.8670041 7.855515 234 88 12
-0.020143567 0.86617339 7.8453727 234 88 12
-0.060430702 0.86617339 7.8453727 234 88 12
-0.1007477 0.86643028 7.8485093 234 88 12
-0.14106357 0.8665334 7.8497682 234 88 12
-0.18158673 0.86758101 7.8625588 234 88 12
-0.22218464 0.86853999 7.8742671 234 88 12
0.060495257 0.82676852 7.8566699 234 88 12
0.020162325 0.82665533 7.8552203 234 88 12
-0.020156391 0.82641208 7.8521056 234 88 12
-0.060469177 0.82641208 7.8521056 234 88 12
-0.14123411 0.82722843 7.8625588 234 88 12
-0.18158673 0.82722843 7.8625588 234 88 12
-0.22233032 0.8286857 7.8812194 234 88 12
0.10151237 0.79179645 7.9287982 234 88 12
0.06049528 0.78643864 7.8566737 234 88 12
0.020163704 0.7863844 7.8559442 234 88 12
-0.020156391 0.78609926 7.8521056 234 88 12
-0.060492076 0.78639698 7.856113 234 88 12
-0.10090454 0.78705537 7.8649764 234 88 12
-0.14126635 0.78705537 7.8649764 234 88 12
-0.18179835 0.78779286 7.8749042 234 88 12
-0.22297093 0.7905333 7.9117942 234 88 12
0.10117083 0.74866414 7.8929372 234 88 12
0.060581516 0.74717206 7.8717656 234 88 12
0.020165093 0.74610841 7.8566737 234 88 12
-0.020165093 0.74610841 7.8566737 234 88 12
-0.060554713 0.74684143 7.8670745 234 88 12
-0.10097226 0.74719471 7.872087 234 88 12
-0.1414665 0.74775147 7.8799872 234 88 12
-0.18202455 0.7483232 7.8880992 234 88 12
0.10117083 0.70819581 7.8929372 234 88 12
0.060614105 0.70716459 7.8774686 234 88 12
0.020195752 0.7068513 7.8727698 234 88 12
-0.02020287 0.70710045 7.8765063 234 88 12
-0.060608607 0.70710045 7.8765063 234 88 12
-0.10116237 0.70813662 7.8920493 234 88 12
-0.14175011 0.70875061 7.9012589 234 88 12
-0.18249118 0.70968795 7.915319 234 88 12
0.14197712 0.6693207 7.9182839 234 88 12
0.10122917 0.66811252 7.8990626 234 88 12
0.060686562 0.66755217 7.8901486 234 88 12
0.020223446 0.66737372 7.8873096 234 88 12
-0.020232342 0.66766727 7.8919797 234 88 12
-0.060733031 0.66806334 7.8982806 234 88 12
-0.10127641 0.66842437 7.9040236 234 88 12
-0.14187425 0.66883576 7.9105687 234 88 12
-0.18270284 0.66991037 7.9276652 234 88 12
0.18260108 0.6289593 7.9217296 234 88 12
0.14191872 0.62849718 7.9139037 234 88 12
0.10128852 0.62798882 7.9052949 234 88 12
0.060735904 0.62760437 7.8987832 234 88 12
0.020245301 0.62760437 7.8987832 234 88 12
-0.020257652 0.62798721 7.9052672 234 88 12
-0.060788151 0.6281442 7.9079261 234 88 12
-0.1013585 0.62842274 7.912643 234 88 12
-0.14210106 0.62930471 7.9275794 234 88 12
-0.18279244 0.62961841 7.9328923 234 88 12
0.22351447 0.58926541 7.937736 234 88 12
0.18251024 0.58808857 7.916431 234 88 12
0.14189845 0.58786505 7.9123845 234 88 12
0.10131065 0.58760178 7.907618 234 88 12
0.06079578 0.5876925 7.9092612 234 88 12
0.020267267 0.58775073 7.910315 234 88 12
-0.020269439 0.58781374 7.9114556 234 88 12
-0.060834471 0.58806652 7.9160323 234 88 12
-0.10145872 0.58846056 7.9231658 234 88 12
-0.14214137 0.58887136 7.9306026 234 88 12
-0.18293285 0.5894503 7.9410834 234 88 12
-0.22653982 0.59724134 8.0821285 234 88 12
0.22337632 0.54828733 7.9311423 234 88 12
0.18251623 0.54754871 7.91678 234 88 12
0.14186715 0.54720181 7.9100356 234 88 12
0.10131065 0.54707748 7.907618 234 88 12
0.06079578 0.547162 7.9092612 234 88 12
0.020270204 0.54729551 7.9118571 234 88 12
-0.020283762 0.5476616 7.9189754 234 88 12
-0.060901262 0.54811132 7.9277205 234 88 12
-0.10145872 0.54787707 7.9231658 234 88 12
-0.1421719 0.54837734 7.9328923 234 88 12
-0.18330227 0.54990685 7.9626327 234 88 12
-0.2245342 0.5511294 7.9864049 234 88 12
-0.26691669 0.5543654 8.0493279 234 88 12
0.22353637 0.50803721 7.9387813 234 88 12
0.18260108 0.50722522 7.9217296 234 88 12
0.14195269 0.50697392 7.9164519 234 88 12
0.10132629 0.50663149 7.9092612 234 88 12
0.060810611 0.50675511 7.9118571 234 88 12
0.020288961 0.50722402 7.9217048 234 88 12
-0.020304253 0.50760633 7.9297328 234 88 12
-0.060946308 0.50788587 7.9356036 234 88 12
-0.1016109 0.50805449 7.9391446 234 88 12
-0.14243032 0.50867969 7.9522738 234 88 12
-0.18333156 0.50925434 7.9643416 234 88 12
-0.22432457 0.50982857 7.9763999 234 88 12
-0.26521736 0.51003337 7.980701 234 88 12
-0.30626535 0.51044226 7.9892879 234 88 12
-0.34720555 0.51059639 7.9925246 234 88 12
-0.38967261 0.51272708 8.0372696 234 88 12
0.22394623 0.46825123 7.958343 234 88 12
0.18288605 0.46737546 7.9383531 234 88 12
0.14211348 0.46694431 7.9285111 234 88 12
0.10146829 0.46675411 7.92417 234 88 12
0.060893022 0.4668465 7.9262786 234 88 12
0.020304484 0.46700314 7.9298539 234 88 12
-0.020316638 0.46728268 7.936235 234 88 12
-0.060984019 0.46754414 7.942203 234 88 12
-0.1017039 0.46783796 7.9489102 234 88 12
-0.14249098 0.46818465 7.9568238 234 88 12
-0.1832446 0.46829176 7.9592681 234 88 12
-0.2242723 0.46893299 7.9739051 234 88 12
-0.26509961 0.46902239 7.9759459 234 88 12
-0.30602002 0.46923071 7.980701 234 88 12
-0.34699255 0.46946049 7.9859462 234 88 12
-0.38783804 0.46948814 7.9865775 234 88 12
0.22462195 0.42882374 7.9905934 234 88 12
0.18341583 0.42797029 7.9692569 234 88 12
0.14243133 0.42729402 7.9523501 234 88 12
0.10169465 0.42711753 7.9479384 234 88 12
0.060994469 0.4269613 7.9440322 234 88 12
0.020334745 0.42702964 7.9457412 234 88 12
-0.02034238 0.42718998 7.9497495 234 88 12
-0.061031058 0.42721739 7.9504352 234 88 12
-0.10172781 0.42725676 7.9514194 234 88 12
-0.14248635 0.42745903 7.9564757 234 88 12
-0.18323864 0.42755684 7.958921 234 88 12
-0.22409731 0.42782214 7.9655538 234 88 12
-0.26508763 0.42821848 7.9754624 234 88 12
-0.30592346 0.42829284 7.9773211 234 88 12
-0.34699255 0.42863786 7.9859462 234 88 12
-0.38781893 0.42864197 7.9860492 234 88 12
-0.42980179 0.42980179 8.0150452 234 88 12
0.22494373 0.38853917 8.0059509 234 88 12
0.18373172 0.38787809 7.9876838 234 88 12
0.14280628 0.38761702 7.9804702 234 88 12
0.10199746 0.38759038 7.9797339 234 88 12
0.061174896 0.38744101 7.9756064 234 88 12
0.020382309 0.38726386 7.9707122 234 88 12
-0.020375567 0.38713574 7.9671721 234 88 12
-0.061075348 0.38681054 7.9581857 234 88 12
-0.10177787 0.38675588 7.956676 234 88 12
-0.14248635 0.38674864 7.9564757 234 88 12
-0.18323456 0.38682851 7.9586825 234 88 12
-0.22431506 0.38745329 7.9759459 234 88 12
-0.26509961 0.38745329 7.9759459 234 88 12
-0.30619207 0.38784328 7.9867225 234 88 12
-0.34699589 0.38781893 7.9860492 234 88 12
-0.38786814 0.38786814 7.9874091 234 88 12
-0.42934251 0.38845274 8.0035629 234 88 12
0.26662683 0.34866586 8.0376225 234 88 12
0.22528026 0.34816039 8.0220127 234 88 12
0.18409966 0.34774381 8.0091476 234 88 12
0.14307642 0.34747133 8.0007324 234 88 12
0.10217886 0.34740812 7.9987798 234 88 12
0.061304986 0.34739491 7.9983726 234 88 12
0.020427987 0.34727579 7.9946933 234 88 12
-0.020414673 0.34704942 7.9877028 234 88 12
-0.061158638 0.3465656 7.9727616 234 88 12
-0.10179698 0.34610972 7.9586825 234 88 12
-0.14252357 0.34612867 7.9592681 234 88 12
-0.18348096 0.34657517 7.9730563 234 88 12
-0.22467111 0.34721899 7.9929395 234 88 12
-0.26552039 0.34721899 7.9929395 234 88 12
-0.30624756 0.34708056 7.9886642 234 88 12
-0.34708056 0.34708056 7.9886642 234 88 12
-0.3883113 0.34743643 7.9996543 234 88 12
-0.42930579 0.34753326 8.0026455 234 88 12
0.26667166 0.30769807 8.0394325 234 88 12
0.22549945 0.30749926 8.0324745 234 88 12
0.18429346 0.30715576 8.0204525 234 88 12
0.1433017 0.30707505 8.0176277 234 88 12
0.10235607 0.3070682 8.0173874 234 88 12
0.061420243 0.30710122 8.0185432 234 88 12
0.020479482 0.30719224 8.0217285 234 88 12
-0.020470832 0.30706248 8.0171871 234 88 12
-0.061410043 0.30705023 8.016758 234 88 12
-0.10235416 0.30706248 8.0171871 234 88 12
-0.18404323 0.3067387 8.0058556 234 88 12
-0.22484717 0.30660978 8.0013428 234 88 12
-0.26572847 0.30660978 8.0013428 234 88 12
-0.30658999 0.30658999 8.0006504 234 88 12
-0.34745556 0.30657846 8.000246 234 88 12
-0.38834912 0.30659142 8.0007 234 88 12
-0.43007338 0.30719528 8.0218353 234 88 12
0.30863559 0.26748419 8.0722466 234 88 12
0.26695234 0.26695234 8.0507679 234 88 12
0.22563034 0.26665404 8.0387211 234 88 12
0.18452018 0.26652917 8.0336781 234 88 12
0.14349966 0.26649937 8.0324745 234 88 12
0.1025062 0.26651612 8.0331516 234 88 12
0.061506946 0.2665301 8.0337162 234 88 12
0.020500299 0.2665039 8.0326576 234 88 12
-0.020496564 0.26645535 8.0306969 234 88 12
-0.061489694 0.26645535 8.0306969 234 88 12
-0.26628235 0.26628235 8.0237103 234 88 12
-0.30706358 0.26612175 8.0172253 234 88 12
-0.34796962 0.26609442 8.0161209 234 88 12
0.30863103 0.22632942 8.0720863 234 88 12
0.26742133 0.22627959 8.0697079 234 88 12
0.22592707 0.22592707 8.0528831 234 88 12
0.18477382 0.22583467 8.0484734 234 88 12
0.14371297 0.22583467 8.0484734 234 88 12
0.10265739 0.22584626 8.0490265 234 88 12
0.061600156 0.22586724 8.0500278 234 88 12
0.020553255 0.2260858 8.0604591 234 88 12
-0.020563111 0.22619422 8.0656338 234 88 12
0.35078946 0.18571207 8.1032047 234 88 12
0.30886057 0.18531634 8.0801201 234 88 12
0.26746011 0.18516469 8.0712738 234 88 12
0.22627674 0.18513551 8.0695724 234 88 12
0.18501869 0.18501869 8.0627575 234 88 12
0.14389092 0.18500261 8.0618191 234 88 12
0.10277922 0.18500261 8.0618191 234 88 12
0.061679829 0.18503949 8.0639706 234 88 12
0.020591652 0.18532488 8.0806179 234 88 12
0.35075691 0.14442933 8.1021996 234 88 12
0.3091276 0.14425954 8.0894661 234 88 12
0.26770073 0.14414655 8.0809917 234 88 12
0.2264822 0.14412503 8.0793781 234 88 12
0.18527377 0.14410181 8.0776367 234 88 12
0.14407466 0.14407466 8.0755997 234 88 12
0.10288852 0.14404394 8.0732956 234 88 12
0.061811741 0.1442274 8.0870552 234 88 12
0.39288646 0.10339118 8.1260738 234 88 12
0.35091171 0.10320932 8.1069794 234 88 12
0.30942607 0.10314202 8.0999126 234 88 12
0.26798379 0.10307068 8.0924225 234 88 12
0.22669424 0.10304284 8.0894985 234 88 12
0.18553001 0.10307223 8.0925846 234 88 12
0.14438219 0.10313014 8.0986652 234 88 12
0.10325581 0.10325581 8.1118603 234 88 12
0.39261842 0.061992384 8.1186676 234 88 12
0.35103256 0.061946925 8.1107121 234 88 12
0.30952138 0.061904274 8.1032486 234 88 12
0.26823243 0.061899796 8.1024647 234 88 12
0.22698234 0.061904274 8.1032486 234 88 12
0.18583129 0.061943762 8.1101589 234 88 12
0.1445978 0.061970487 8.1148357 234 88 12
0.10345412 0.062072471 8.1326828 234 88 12
0.39256915 0.020661535 8.1173058 234 88 12
0.35122618 0.020660363 8.1166916 234 88 12
0.30981359 0.020654239 8.1134758 234 88 12
0.26825187 0.020634759 8.1032486 234 88 12
0.22737798 0.020670725 8.1221313 234 88 12
0.18611617 0.020679576 8.1267776 234 88 12
0.14485209 0.020693155 8.1339073 234 88 12
0.43655151 -0.020788167 8.1837883 234 88 12
0.39256915 -0.020661535 8.1173058 234 88 12
0.35122618 -0.020660363 8.1166916 234 88 12
0.30990547 -0.020660363 8.1166916 234 88 12
0.2685051 -0.020654239 8.1134758 234 88 12
0.22750115 -0.020681923 8.1280098 234 88 12
0.1861373 -0.020681923 8.1280098 234 88 12
0.14499006 -0.020712866 8.1442547 234 88 12
0.39302978 -0.062057331 8.1300335 234 88 12
0.35126072 -0.061987184 8.1177578 234 88 12
0.30981359 -0.061962716 8.1134758 234 88 12
0.2685051 -0.061962716 8.1134758 234 88 12
0.22763978 -0.062083576 8.1346264 234 88 12
0.18634067 -0.062113561 8.1398735 234 88 12
0.39316326 -0.10346401 8.1337223 234 88 12
0.35155568 -0.10339873 8.1268673 234 88 12
0.31016034 -0.10338678 8.1256123 234 88 12
0.26887918 -0.10341506 8.128582 234 88 12
0.22781941 -0.10355428 8.1431999 234 88 12
0.18674414 -0.10374674 8.1634083 234 88 12
0.35175556 -0.14484052 8.1330395 234 88 12
0.31019619 -0.14475822 8.1268673 234 88 12
0.26923442 -0.14497238 8.1429291 234 88 12
0.22866777 -0.14551584 8.1836891 234 88 12
0.2084166 -0.099221736 8.1438599 234 88 12
0.21102144 -0.063226596 8.1353054 234 88 12
0.21352674 -0.027287623 8.1275492 234 88 12
0.21618171 0.0085890824 8.1185398 234 88 12
0.2189279 0.044395544 8.1087551 234 88 12
0.22185142 0.080113806 8.0974798 234 88 12
0.22627231 0.11553881 8.073781 234 88 12
0.22892551 0.15110381 8.0646753 234 88 12
0.23101184 0.18671948 8.0602503 234 88 12
0.23271306 0.22239293 8.0590143 234 88 12
0.23423477 0.25810429 8.059269 234 88 12
0.23739278 0.29334596 8.0458946 234 88 12
0.23894314 0.32900414 8.0458946 234 88 12
0.2393723 0.36505073 8.0552568 234 88 12
0.2387037 0.40157536 8.073822 234 88 12
0.17930564 -0.061909866 8.1277695 234 88 12
0.1820588 -0.025937082 8.1182327 234 88 12
0.18380402 0.010027484 8.1167765 234 88 12
0.18652982 0.045898333 8.1074238 234 88 12
0.18938093 0.081690051 8.0970383 234 88 12
0.19262484 0.11735408 8.0834589 234 88 12
0.19599144 0.1529028 8.0688543 234 88 12
0.19961938 0.18829814 8.0521011 234 88 12
0.20224503 0.22380278 8.0434237 234 88 12
0.20423324 0.25940868 8.0398941 234 88 12
0.20636764 0.29494864 8.0351686 234 88 12
0.2079383 0.33063072 8.0350142 234 88 12
0.21021293 0.36607283 8.02913 234 88 12
0.21176367 0.40173995 8.02913 234 88 12
0.21369801 0.43725497 8.026001 234 88 12
0.21674339 0.47227556 8.0137882 234 88 12
0.2195657 0.50731134 8.0033703 234 88 12
0.15145592 0.011462796 8.1139078 234 88 12
0.15372965 0.047430724 8.1083546 234 88 12
0.15712598 0.083234705 8.0939646 234 88 12
0.15899357 0.11915096 8.0915709 234 88 12
0.16395155 0.15453614 8.0648222 234 88 12
0.16690719 0.19012293 8.0538054 234 88 12
0.16986419 0.22563241 8.0427513 234 88 12
0.17295894 0.26103023 8.0305824 234 88 12
0.17610011 0.29632992 8.0180168 234 88 12
0.17784074 0.33196807 8.0165215 234 88 12
0.17979445 0.36752489 8.0133314 234 88 12
0.18270615 0.4027141 8.0025234 234 88 12
0.18571109 0.43779099 7.9909472 234 88 12
0.19088942 0.47188139 7.9620347 234 88 12
0.19345857 0.50692743 7.9538569 234 88 12
0.19576836 0.54203826 7.9477301 234 88 12
0.19712977 0.57758075 7.9491687 234 88 12
0.19614486 0.614375 7.9693871 234 88 12
0.12482509 0.084778063 8.0904493 234 88 12
0.12716204 0.12068653 8.084528 234 88 12
0.13086028 0.15633082 8.0681267 234 88 12
0.13441585 0.19188759 8.0527859 234 88 12
0.13741334 0.22745834 8.0417099 234 88 12
0.14090522 0.26283056 8.0267944 234 88 12
0.14402457 0.29819927 8.0147209 234 88 12
0.14690629 0.33355415 8.0044575 234 88 12
0.14979571 0.36883432 7.9941096 234 88 12
0.1529942 0.40393245 7.9813423 234 88 12
0.15668099 0.43875477 7.9647565 234 88 12
0.16134386 0.47306183 7.9405479 234 88 12
0.16411045 0.50802338 7.9310327 234 88 12
0.1668153 0.54294616 7.9219756 234 88 12
0.16835572 0.57837588 7.9219756 234 88 12
0.16836441 0.61459923 7.9339314 234 88 12
0.093467481 0.12246665 8.0908594 234 88 12
0.098414257 0.15800598 8.0655069 234 88 12
0.10222603 0.19358031 8.048625 234 88 12
0.10572775 0.22910251 8.0340366 234 88 12
0.10865053 0.26466128 8.0237761 234 88 12
0.11224925 0.29996771 8.0083952 234 88 12
0.11549582 0.33526912 7.9956374 234 88 12
0.11824517 0.37063962 7.9866076 234 88 12
0.12227342 0.40550345 7.9678822 234 88 12
0.1264585 0.44017655 7.947926 234 88 12
0.1312266 0.47447544 7.9235029 234 88 12
0.13393922 0.50947845 7.914628 234 88 12
0.13618875 0.54462868 7.9092526 234 88 12
0.13739681 0.5802412 7.9117889 234 88 12
0.13869409 0.61582643 7.9136515 234 88 12
0.13721922 0.65290701 7.9366598 234 88 12
0.06544821 0.15975223 8.0659132 234 88 12
0.069409892 0.19537586 8.0483465 234 88 12
0.072769925 0.23100244 8.035161 234 88 12
0.075606287 0.2666598 8.0257988 234 88 12
0.078914456 0.30212772 8.0129404 234 88 12
0.082836553 0.33732834 7.9955287 234 88 12
0.086656734 0.37243807 7.9788299 234 88 12
0.090068951 0.40756845 7.9651074 234 88 12
0.094959162 0.44206092 7.940423 234 88 12
0.099626876 0.47646585 7.9173307 234 88 12
0.10303944 0.5112322 7.903491 234 88 12
0.10563183 0.54626501 7.8957067 234 88 12
0.10734938 0.58165455 7.8944044 234 88 12
0.10847469 0.61732954 7.8975039 234 88 12
0.10720223 0.65428281 7.9184651 234 88 12
0.10813674 0.69017065 7.9230213 234 88 12
0.035192456 0.19740994 8.0572376 234 88 12
0.038561448 0.23314101 8.0443211 234 88 12
0.04142129 0.26889908 8.0350351 234 88 12
0.046529938 0.30401334 8.0095501 234 88 12
0.050673593 0.33922035 7.9909592 234 88 12
0.053748157 0.37462521 7.9800367 234 88 12
0.057959121 0.40957376 7.9608874 234 88 12
0.062454477 0.4442845 7.939641 234 88 12
0.067749582 0.4785369 7.9125628 234 88 12
0.071124226 0.51338518 7.899333 234 88 12
0.07389354 0.5484035 7.8904619 234 88 12
0.075396061 0.58394384 7.8907661 234 88 12
0.075370416 0.62023175 7.902174 234 88 12
0.076712273 0.65589857 7.9036598 234 88 12
0.078258671 0.69146556 7.9036598 234 88 12
0.079554953 0.7271741 7.9054832 234 88 12
0.07981538 0.76350862 7.9148698 234 88 12
0.077050664 0.80177963 7.9463792 234 88 12
0.0061099995 0.23489577 8.0398626 234 88 12
0.0096719544 0.27055216 8.0258684 234 88 12
0.01213535 0.30638734 8.0195713 234 88 12
0.01789587 0.34126258 7.9900484 234 88 12
0.021580357 0.37655693 7.9750934 234 88 12
0.02593754 0.41152492 7.9553599 234 88 12
0.031062897 0.44608206 7.9301591 234 88 12
0.035078473 0.48087928 7.9127507 234 88 12
0.038259897 0.51588869 7.9012084 234 88 12
0.040828273 0.55107832 7.8939853 234 88 12
0.042202599 0.58675766 7.8952165 234 88 12
0.044941649 0.62179267 7.8867593 234 88 12
0.046488404 0.65736812 7.8867593 234 88 12
0.048431892 0.69273353 7.8839359 234 88 12
0.049978219 0.72829908 7.8839359 234 88 12
0.051712289 0.76375568 7.882597 234 88 12
0.053258415 0.79931659 7.882597 234 88 12
0.053208206 0.83588552 7.8940063 234 88 12
-0.029583665 0.23728491 8.0569878 234 88 12
-0.023643361 0.27254531 8.0270033 234 88 12
-0.015015364 0.34331629 7.9892359 234 88 12
-0.011791384 0.37882495 7.9778051 234 88 12
-0.0064662648 0.41357636 7.9518547 234 88 12
-0.0014095017 0.44823629 7.9277029 234 88 12
0.0028905557 0.48300499 7.9087319 234 88 12
0.0057569174 0.51820552 7.8996429 234 88 12
0.0079652164 0.55361778 7.8950939 234 88 12
0.0096118525 0.58924741 7.8944302 234 88 12
0.012420667 0.62432647 7.8856969 234 88 12
0.014479771 0.6597138 7.8821554 234 88 12
0.017665235 0.69449079 7.87077 234 88 12
0.019982677 0.7296586 7.865406 234 88 12
0.021831278 0.76505488 7.8632994 234 88 12
0.024418077 0.79999727 7.8560362 234 88 12
0.024741611 0.83628929 7.8645706 234 88 12
0.024841553 0.87278688 7.8746867 234 88 12
0.020313634 0.91245687 7.9172277 234 88 12
-0.056305621 0.27437279 8.02285 234 88 12
-0.052662235 0.31005499 8.0089235 234 88 12
-0.048031028 0.34537327 7.9883151 234 88 12
-0.044632137 0.3809053 7.9759727 234 88 12
-0.039295599 0.41573682 7.9505281 234 88 12
-0.034762681 0.45066065 7.93046 234 88 12
-0.03126289 0.48581782 7.9173369 234 88 12
-0.028503854 0.52116913 7.9092016 234 88 12
-0.025503293 0.55636269 7.8994131 234 88 12
-0.022996886 0.5917021 7.8929563 234 88 12
-0.021002004 0.62723124 7.8899593 234 88 12
-0.017161135 0.66184276 7.8744082 234 88 12
-0.015133653 0.69726723 7.8711638 234 88 12
-0.01142207 0.73176879 7.8564415 234 88 12
-0.0082781138 0.76648164 7.8455591 234 88 12
-0.0066894577 0.80202329 7.8452702 234 88 12
-0.005143139 0.83758861 7.8452702 234 88 12
-0.0050729583 0.87408751 7.8553677 234 88 12
-0.0073244777 0.91218483 7.8813834 234 88 12
-0.0069649257 0.94868982 7.8895559 234 88 12
-0.084334172 0.31168917 7.9979033 234 88 12
-0.079620384 0.3470296 7.9771991 234 88 12
-0.07510969 0.38228106 7.9577932 234 88 12
-0.071831226 0.41777739 7.946486 234 88 12
-0.067728415 0.45291737 7.9297066 234 88 12
-0.064608917 0.48828965 7.9194002 234 88 12
-0.061557271 0.52361423 7.9095225 234 88 12
-0.059081785 0.55910164 7.9034457 234 88 12
-0.056347702 0.59443462 7.8956399 234 88 12
-0.053890958 0.62983727 7.8896613 234 88 12
-0.050867438 0.66492683 7.8799005 234 88 12
-0.047960911 0.70000482 7.8708982 234 88 12
-0.040896051 0.76927984 7.8444881 234 88 12
-0.038345147 0.80433667 7.8377976 234 88 12
-0.036797021 0.83994353 7.8377976 234 88 12
-0.036746304 0.87647998 7.8478189 234 88 12
-0.037371323 0.91352469 7.8623872 234 88 12
-0.036280081 0.94952625 7.8654761 234 88 12
-0.035520058 0.98577988 7.8707952 234 88 12
-0.037935559 1.0243515 7.8974638 234 88 12
-0.11171927 0.34880745 7.9690166 234 88 12
-0.10756586 0.38421431 7.9523368 234 88 12
-0.10386413 0.41964024 7.9385448 234 88 12
-0.10132736 0.45535082 7.9322648 234 88 12
-0.098596334 0.49094808 7.9247141 234 88 12
-0.095356107 0.52630025 7.913846 234 88 12
-0.093827046 0.5622564 7.9140649 234 88 12
-0.09150283 0.59787875 7.9091167 234 88 12
-0.08753068 0.63273221 7.8934402 234 88 12
-0.084617116 0.66796881 7.8846245 234 88 12
-0.08169549 0.70313811 7.8757391 234 88 12
-0.07890521 0.73831111 7.8676925 234 88 12
-0.075206921 0.77293682 7.8537002 234 88 12
-0.072829947 0.80820471 7.8483171 234 88 12
-0.071228102 0.84388787 7.8479953 234 88 12
-0.068915501 0.87913543 7.8430176 234 88 12
-0.067531995 0.91493535 7.8441215 234 88 12
-0.066281497 0.9508307 7.8461008 234 88 12
-0.06537918 0.9869774 7.8503714 234 88 12
-0.063926019 1.0227669 7.851028 234 88 12
-0.064621784 1.060127 7.8658328 234 88 12
-0.14336079 0.35045406 7.9574733 234 88 12
-0.13986737 0.38608494 7.9453206 234 88 12
-0.13760012 0.42199787 7.9409089 234 88 12
-0.13577768 0.45802313 7.9393082 234 88 12
-0.13344136 0.49385902 7.934444 234 88 12
-0.13014586 0.52930617 7.9234781 234 88 12
-0.12622707 0.56443042 7.9085293 234 88 12
-0.12478958 0.60047597 7.9093399 234 88 12
-0.12238008 0.6361022 7.9039612 234 88 12
-0.11832366 0.67093146 7.8880715 234 88 12
-0.11522586 0.70610964 7.8782687 234 88 12
-0.11153274 0.74091566 7.8646436 234 88 12
-0.10932148 0.77640784 7.8604674 234 88 12
-0.10582656 0.81116062 7.8480668 234 88 12
-0.10351812 0.84650671 7.8432436 234 88 12
-0.10196323 0.88226914 7.8432436 234 88 12
-0.098516233 0.91685456 7.8310966 234 88 12
-0.096946239 0.95256317 7.8309879 234 88 12
-0.09543898 0.98831296 7.8312821 234 88 12
-0.093898542 1.0240419 7.8313632 234 88 12
-0.091842949 1.0594029 7.8281245 234 88 12
-0.090290375 1.095112 7.8281245 234 88 12
-0.089558303 1.1314467 7.8334231 234 88 12
-0.18787837 0.31849384 8.015521 234 88 12
-0.17715867 0.35263363 7.9589553 234 88 12
-0.17167586 0.38780335 7.9347391 234 88 12
-0.16949628 0.42377785 7.9309697 234 88 12
-0.16854274 0.46011564 7.9348059 234 88 12
-0.16756275 0.49647194 7.9384851 234 88 12
-0.16514204 0.53233176 7.933208 234 88 12
-0.16149993 0.56768304 7.9203148 234 88 12
-0.15767036 0.60286516 7.9062281 234 88 12
-0.15546177 0.63864303 7.9022284 234 88 12
-0.15262601 0.67410827 7.8943038 234 88 12
-0.14929643 0.70928162 7.8832774 234 88 12
-0.1457482 0.74426651 7.8708611 234 88 12
-0.14069876 0.77838051 7.8490186 234 88 12
-0.13964251 0.8145048 7.852169 234 88 12
-0.13798836 0.85031372 7.8515735 234 88 12
-0.13475524 0.88518906 7.8410583 234 88 12
-0.13182224 0.92017162 7.8324099 234 88 12
-0.12810305 0.95459276 7.8187962 234 88 12
-0.12546678 0.98962641 7.8119788 234 88 12
-0.12340108 1.0249984 7.8087463 234 88 12
-0.11974597 1.0592296 7.795475 234 88 12
-0.11819544 1.0948919 7.795475 234 88 12
-0.11439706 1.1288705 7.7812586 234 88 12
-0.11399101 1.1653644 7.7884903 234 88 12
-0.22904868 0.28522024 8.0500555 234 88 12
-0.21899271 0.31993708 7.998745 234 88 12
-0.21373789 0.35547742 7.9764738 234 88 12
-0.20856012 0.39087892 7.9546285 234 88 12
-0.20398468 0.42629936 7.9364047 234 88 12
-0.20335546 0.46282563 7.9421616 234 88 12
-0.20328681 0.49958119 7.951344 234 88 12
-0.20555733 0.53723824 7.9748049 234 88 12
-0.21478477 0.57770157 8.0407658 234 88 12
-0.1923404 0.67963302 7.9326239 234 88 12
-0.19076578 0.71584946 7.9326239 234 88 12
-0.18027242 0.74770051 7.8779387 234 88 12
-0.17500322 0.78182864 7.8552122 234 88 12
-0.17319459 0.81763965 7.8537016 234 88 12
-0.17182179 0.85368204 7.8548679 234 88 12
-0.16763206 0.88810337 7.8386989 234 88 12
-0.16456094 0.92307925 7.829391 234 88 12
-0.16205034 0.95833683 7.8235211 234 88 12
-0.15914766 0.99329847 7.8152204 234 88 12
-0.15533049 1.0275886 7.8012538 234 88 12
-0.14971212 1.0605326 7.7761221 234 88 12
-0.14816159 1.0961947 7.7761221 234 88 12
-0.14548588 1.1310288 7.7691507 234 88 12
-0.14393641 1.1666664 7.7691507 234 88 12
-0.14906079 1.2075183 7.8105798 234 88 12
-0.25810036 0.28620949 8.0199051 234 88 12
-0.2508145 0.32153493 7.9860563 234 88 12
-0.24781317 0.35766476 7.9776354 234 88 12
-0.24419379 0.39356989 7.965519 234 88 12
-0.24133965 0.42960769 7.9579411 234 88 12
-0.23975809 0.46598369 7.9579411 234 88 12
-0.23877713 0.50255793 7.9615273 234 88 12
-0.23970035 0.53982741 7.976501 234 88 12
-0.20608637 0.82036752 7.8504257 234 88 12
-0.20435371 0.85627031 7.8494153 234 88 12
-0.20309988 0.89243817 7.8512912 234 88 12
-0.20092419 0.92807496 7.8476043 234 88 12
-0.19556691 0.96173519 7.8246822 234 88 12
-0.19326913 0.99717063 7.8202257 234 88 12
-0.18672653 1.0297849 7.7900581 234 88 12
-0.18419899 1.0649053 7.7841678 234 88 12
-0.18039037 1.0990843 7.7704954 234 88 12
-0.17710586 1.1335422 7.7599792 234 88 12
-0.17684999 1.1701815 7.7678509 234 88 12
-0.18239769 1.2113354 7.8110428 234 88 12
-0.29092422 0.28795916 8.0121202 234 88 12
-0.28497037 0.32363874 7.9867001 234 88 12
-0.28173238 0.35978994 7.9770794 234 88 12
-0.27870995 0.39592838 7.9687004 234 88 12
-0.27573693 0.43202049 7.9605947 234 88 12
-0.27416167 0.46847907 7.9606519 234 88 12
-0.27289397 0.50503802 7.9625101 234 88 12
-0.23640224 0.89546251 7.8498216 234 88 12
-0.2330538 0.93048954 7.8392811 234 88 12
-0.2312873 0.96639317 7.8380947 234 88 12
-0.228532 1.0016707 7.8310418 234 88 12
-0.22582239 1.0369263 7.8242474 234 88 12
-0.21934001 1.0696127 7.7950239 234 88 12
-0.21475528 1.1033937 7.7770324 234 88 12
-0.21066014 1.1373911 7.7619219 234 88 12
-0.21068406 1.1742975 7.7713251 234 88 12
-0.21363197 1.2134807 7.798183 234 88 12
-0.32264182 0.28948054 7.9975553 234 88 12
-0.31893474 0.32567981 7.9854712 234 88 12
-0.3162092 0.36202523 7.9789834 234 88 12
-0.31485006 0.39867663 7.9803109 234 88 12
-0.3122434 0.43498981 7.9744883 234 88 12
-0.31065315 0.4715654 7.9744883 234 88 12
-0.31468555 0.50994128 8.0067835 234 88 12
-0.26941288 0.93528718 7.8550806 234 88 12
-0.26370689 0.96898574 7.8310571 234 88 12
-0.26011863 1.0038095 7.8193069 234 88 12
-0.2560479 1.0382404 7.8047271 234 88 12
-0.251789 1.0724411 7.7890244 234 88 12
-0.25022748 1.108356 7.7890244 234 88 12
-0.24691415 1.1430453 7.7787986 234 88 12
-0.24518102 1.1787989 7.7777867 234 88 12
-0.24592836 1.216387 7.7912784 234 88 12
-0.35658753 0.29142898 7.9952836 234 88 12
-0.35299218 0.3277218 7.9840679 234 88 12
-0.35077947 0.36425763 7.9805975 234 88 12
-0.3491852 0.40092584 7.9805975 234 88 12
-0.34590358 0.43713033 7.9711046 234 88 12
-0.34553647 0.4741264 7.9780064 234 88 12
-0.34715351 0.51179844 7.9961023 234 88 12
-0.29519698 1.0080327 7.827198 234 88 12
-0.28882158 1.0411483 7.7997584 234 88 12
-0.28522959 1.0758617 7.7881794 234 88 12
-0.28282431 1.111282 7.7833691 234 88 12
-0.28073594 1.1468852 7.7803645 234 88 12
-0.27925366 1.1828961 7.7808285 234 88 12
-0.39074555 0.2934024 7.9935303 234 88 12
-0.38591504 0.32950559 7.9757342 234 88 12
-0.3840518 0.36616594 7.9742641 234 88 12
-0.38135299 0.40260592 7.9681821 234 88 12
-0.37927189 0.43916929 7.9655004 234 88 12
-0.37792134 0.47592577 7.9668512 234 88 12
-0.42166972 0.33186826 7.9822927 234 88 12
-0.41868114 0.36836866 7.9747815 234 88 12
-0.41833714 0.40546951 7.9815822 234 88 12
