ply
format ascii 1.0
element vertex 202
property float x
property float y
property float z
property uchar red
property uchar green
property uchar blue
end_header
-1.3183692 -0.97491723 1.5308973 234 88 12
-1.3192858 -0.97583389 1.5295016 234 88 12
-1.3229523 -0.97950035 1.5239191 234 88 12
-0.036207158 -1.0747501 1.9621135 234 88 12
-0.03987404 -1.0781136 1.9600481 234 88 12
-0.039804518 -1.0797125 1.9590154 234 88 12
-0.022608319 -1.080567 1.9579828 234 88 12
-0.020705355 -1.0804842 1.9579828 234 88 12
-0.051083259 -1.083407 1.9569501 234 88 12
-0.052916702 -1.0850887 1.9559174 234 88 12
-0.052708134 -1.0898858 1.9528193 234 88 12
-0.05080517 -1.0898031 1.9528193 234 88 12
-0.041290347 -1.0893894 1.9528193 234 88 12
-0.029803041 -1.090492 1.9517866 234 88 12
-0.02028822 -1.0900784 1.9517866 234 88 12
-0.050596602 -1.0946002 1.9497213 234 88 12
-0.041081779 -1.0941864 1.9497213 234 88 12
-0.029663995 -1.09369 1.9497213 234 88 12
-0.020149175 -1.0932764 1.9497213 234 88 12
-0.042706653 -1.1006653 1.9455906 234 88 12
-0.04080369 -1.1005826 1.9455906 234 88 12
-1.1410062 -1.7791895 0.73740137 234 88 12
-1.1429919 -1.7788819 0.73560727 234 88 12
-1.1396089 -1.7806334 0.73560727 234 88 12
-1.1280625 -1.7873319 0.73381317 234 88 12
-1.1354169 -1.7849653 0.73022503 234 88 12
-1.156009 -1.7750244 0.72843093 234 88 12
-1.1565974 -1.7761607 0.72484273 234 88 12
-1.1498313 -1.7796638 0.72484273 234 88 12
-1.1396823 -1.7849183 0.72484273 234 88 12
-1.1295333 -1.7901728 0.72484273 234 88 12
-1.141668 -1.7846107 0.72304863 234 88 12
-1.1515963 -1.7830728 0.71407819 234 88 12
-1.1499048 -1.7839485 0.71407819 234 88 12
-1.1482134 -1.7848244 0.71407819 234 88 12
-1.1397558 -1.7892032 0.71407819 234 88 12
-1.1496842 -1.7876652 0.70510775 234 88 12
0.19607572 -1.8986236 1.1556716 234 88 12
0.19808809 -1.8993127 1.1540189 234 88 12
0.18134095 -1.9034356 1.1507134 234 88 12
0.19267106 -1.9019387 1.1507134 234 88 12
0.19833612 -1.9011903 1.1507134 234 88 12
0.20790191 -1.9008816 1.1490607 234 88 12
0.1801967 -1.9093174 1.140797 234 88 12
0.18586177 -1.908569 1.140797 234 88 12
0.18775012 -1.9083195 1.140797 234 88 12
0.19719189 -1.9070721 1.140797 234 88 12
0.20852201 -1.9055753 1.140797 234 88 12
0.18787414 -1.9092582 1.1391443 234 88 12
0.19743992 -1.9089496 1.1374916 234 88 12
0.18861824 -1.9148906 1.1292279 234 88 12
1.085147 -0.96932298 1.696344 234 88 12
1.0752641 -0.98100352 1.6950324 234 88 12
1.0789468 -0.97931296 1.6937206 234 88 12
1.0897992 -0.96861601 1.6937206 234 88 12
1.0744901 -0.98564506 1.6924089 234 88 12
1.0750726 -0.98894948 1.6897856 234 88 12
1.0791423 -0.98493814 1.6897856 234 88 12
1.0899948 -0.9742412 1.6897856 234 88 12
1.0801119 -0.98592174 1.6884738 234 88 12
1.0896077 -0.97656196 1.6884738 234 88 12
1.1000732 -0.96818578 1.6871622 234 88 12
1.0903858 -0.98549151 1.6819154 234 88 12
1.0998818 -0.97613174 1.6819154 234 88 12
1.0855422 -0.99414438 1.6792921 234 88 12
1.0896119 -0.99013305 1.6792921 234 88 12
1.0950381 -0.9847846 1.6792921 234 88 12
1.1004642 -0.97943616 1.6792921 234 88 12
1.8286915 -0.082496159 1.2919444 234 88 12
1.8294564 -0.084552832 1.2903819 234 88 12
1.8336312 -0.065936409 1.2888196 234 88 12
1.834251 -0.062177666 1.2888196 234 88 12
1.8317516 -0.090722844 1.2856947 234 88 12
1.8333014 -0.081325978 1.2856947 234 88 12
1.8348513 -0.07192912 1.2856947 234 88 12
1.8364011 -0.062532261 1.2856947 234 88 12
1.836711 -0.060652889 1.2856947 234 88 12
1.8363812 -0.076042458 1.2825699 234 88 12
1.8362163 -0.083737247 1.2810075 234 88 12
1.8395864 -0.090084553 1.274758 234 88 12
1.8408263 -0.082567066 1.274758 234 88 12
1.8426861 -0.071290836 1.274758 234 88 12
1.8442359 -0.061893973 1.274758 234 88 12
1.8466958 -0.060369197 1.2716331 234 88 12
1.8465309 -0.068063982 1.2700707 234 88 12
1.846676 -0.073879398 1.2685083 234 88 12
-0.22243492 -2.2216988 0.029187884 234 88 12
-0.21673338 -2.2220874 0.027284579 234 88 12
-0.23576041 -2.2211893 0.023477972 234 88 12
-0.20723215 -2.2227595 0.023477972 234 88 12
-0.23767047 -2.2212334 0.019671366 234 88 12
-0.22816105 -2.2217569 0.019671366 234 88 12
-0.21674976 -2.2223849 0.019671366 234 88 12
-0.20724034 -2.2229083 0.019671366 234 88 12
-0.23388718 -2.2218149 0.010154846 234 88 12
-0.22818153 -2.2221289 0.010154846 234 88 12
-0.21677023 -2.2227569 0.010154846 234 88 12
-0.20726082 -2.2232804 0.010154846 234 88 12
-0.23010799 -2.2224705 -0.0012649772 234 88 12
-0.2282061 -2.2225752 -0.0012649772 234 88 12
1.3206289 -1.6617849 0.68592304 234 88 12
1.323673 -1.6594945 0.68592304 234 88 12
1.3103243 -1.6702663 0.68410939 234 88 12
1.3118464 -1.669121 0.68410939 234 88 12
1.3209788 -1.6622499 0.68410939 234 88 12
1.325545 -1.6588144 0.68410939 234 88 12
1.3296388 -1.6579193 0.67866838 234 88 12
1.3288167 -1.6599946 0.67504108 234 88 12
1.3109018 -1.6742018 0.67322737 234 88 12
1.31699 -1.6696211 0.67322737 234 88 12
1.3185121 -1.668476 0.67322737 234 88 12
1.3291665 -1.6604596 0.67322737 234 88 12
1.3306886 -1.6593145 0.67322737 234 88 12
1.3176899 -1.6705513 0.66960007 234 88 12
1.3160454 -1.6747019 0.66234541 234 88 12
1.3175675 -1.6735568 0.66234541 234 88 12
1.3221337 -1.6701212 0.66234541 234 88 12
-0.88979125 -1.8202593 -0.96234298 234 88 12
-0.90533239 -1.8128885 -0.96588331 234 88 12
-0.90176839 -1.8142341 -0.96588331 234 88 12
-0.89107645 -1.8182707 -0.96588331 234 88 12
-0.87300807 -1.8243403 -0.96765345 234 88 12
-0.87122607 -1.8250132 -0.96765345 234 88 12
-0.89414364 -1.8156092 -0.96942365 234 88 12
-0.89186484 -1.8149661 -0.97296399 234 88 12
-0.90384197 -1.8089408 -0.97650433 234 88 12
-0.90205997 -1.8096135 -0.97650433 234 88 12
-0.89136797 -1.8136501 -0.97650433 234 88 12
-0.88602203 -1.8156683 -0.97650433 234 88 12
-0.88067603 -1.8176867 -0.97650433 234 88 12
-0.86998403 -1.8217232 -0.97650433 234 88 12
-0.88171279 -1.81504 -0.9818148 234 88 12
-0.89522356 -1.8076839 -0.98712534 234 88 12
-0.89165956 -1.8090296 -0.98712534 234 88 12
-0.88096762 -1.8130661 -0.98712534 234 88 12
0.9052164 -1.9925014 -0.43988073 234 88 12
0.90869093 -1.9909393 -0.43988073 234 88 12
0.89281672 -1.9974374 -0.44364542 234 88 12
0.89095998 -1.9979528 -0.44552779 234 88 12
0.91528159 -1.9870179 -0.44552779 234 88 12
0.88910329 -1.9984682 -0.44741014 234 88 12
0.89257777 -1.996906 -0.44741014 234 88 12
0.90300131 -1.9922197 -0.44741014 234 88 12
0.90473861 -1.9914386 -0.44741014 234 88 12
0.91342485 -1.9875332 -0.44741014 234 88 12
0.89024323 -1.9963586 -0.45682189 234 88 12
0.89371777 -1.9947965 -0.45682189 234 88 12
0.90066677 -1.9916722 -0.45682189 234 88 12
0.90414131 -1.99011 -0.45682189 234 88 12
0.91456485 -1.9854237 -0.45682189 234 88 12
0.89300102 -1.9932023 -0.46811602 234 88 12
0.89647555 -1.9916402 -0.46811602 234 88 12
2.0881915 -0.74566174 0.29870424 234 88 12
2.0814278 -0.76141649 0.29682189 234 88 12
2.0868952 -0.74925566 0.29682189 234 88 12
2.084568 -0.75656307 0.29117483 234 88 12
2.0801473 -0.76710606 0.28929245 234 88 12
2.0848336 -0.75668252 0.28929245 234 88 12
2.0856147 -0.75494528 0.28929245 234 88 12
2.08952 -0.74625897 0.28929245 234 88 12
2.0944722 -0.73595494 0.28741011 234 88 12
2.0851154 -0.7588976 0.28176305 234 88 12
2.0838189 -0.76249158 0.2798807 234 88 12
2.085381 -0.75901705 0.2798807 234 88 12
2.0869434 -0.75554258 0.2798807 234 88 12
2.0908487 -0.74685627 0.2798807 234 88 12
2.0854132 -0.76320833 0.26858658 234 88 12
0.2185203 -1.6936259 -1.4513092 234 88 12
0.218343 -1.692551 -1.4528716 234 88 12
0.20125136 -1.6942657 -1.4544339 234 88 12
0.21628633 -1.6917859 -1.4544339 234 88 12
0.22192444 -1.6908561 -1.4544339 234 88 12
0.23320068 -1.6889963 -1.4544339 234 88 12
0.21610904 -1.690711 -1.4559964 234 88 12
0.2386615 -1.6869915 -1.4559964 234 88 12
0.20259883 -1.6907308 -1.4591211 234 88 12
0.20206694 -1.6875058 -1.4638084 234 88 12
0.20770505 -1.6865759 -1.4638084 234 88 12
0.21898128 -1.6847161 -1.4638084 234 88 12
0.22837815 -1.6831663 -1.4638084 234 88 12
0.21827209 -1.6804162 -1.470058 234 88 12
0.21245669 -1.6802711 -1.4716203 234 88 12
0.20288253 -1.680746 -1.4731828 234 88 12
0.20476189 -1.680436 -1.4731828 234 88 12
0.20852064 -1.6798161 -1.4731828 234 88 12
0.2179175 -1.6782663 -1.4731828 234 88 12
1.7442131 -1.1442784 -0.81106597 234 88 12
1.7414577 -1.1469727 -0.81287962 234 88 12
1.7455734 -1.1405344 -0.81469327 234 88 12
1.731366 -1.1584493 -0.81650692 234 88 12
1.7325113 -1.1569272 -0.81650692 234 88 12
1.7292907 -1.1592715 -0.82013428 234 88 12
1.7327263 -1.1547053 -0.82013428 234 88 12
1.7361618 -1.1501391 -0.82013428 234 88 12
1.7430329 -1.1410067 -0.82013428 234 88 12
1.7425679 -1.1406568 -0.82194793 234 88 12
1.7315462 -1.1514337 -0.82920259 234 88 12
1.7322263 -1.1495616 -0.83101624 234 88 12
1.7333714 -1.1480396 -0.83101624 234 88 12
1.7390974 -1.1404293 -0.83101624 234 88 12
1.7285407 -1.151556 -0.83645725 234 88 12
1.7271454 -1.1505063 -0.84189826 234 88 12
