ply
format ascii 1.0
element vertex 192
property float x
property float y
property float z
property uchar red
property uchar green
property uchar blue
end_header
-1.3183692 -0.97491723 1.5308973 234 88 12
-1.3229523 -0.97950035 1.5239191 234 88 12
-0.038040601 -1.0764318 1.9610808 234 88 12
-0.039804518 -1.0797125 1.9590154 234 88 12
-0.022608319 -1.080567 1.9579828 234 88 12
-0.020705355 -1.0804842 1.9579828 234 88 12
-0.052986223 -1.0834898 1.9569501 234 88 12
-0.051083259 -1.083407 1.9569501 234 88 12
-0.052708134 -1.0898858 1.9528193 234 88 12
-0.05080517 -1.0898031 1.9528193 234 88 12
-0.041290347 -1.0893894 1.9528193 234 88 12
-0.029872563 -1.0888929 1.9528193 234 88 12
-0.02028822 -1.0900784 1.9517866 234 88 12
-0.048624113 -1.0961164 1.9486886 234 88 12
-0.041012257 -1.0957855 1.9486886 234 88 12
-0.029594474 -1.0952891 1.9486886 234 88 12
-0.020079652 -1.0948753 1.9486886 234 88 12
-0.042706653 -1.1006653 1.9455906 234 88 12
-0.04080369 -1.1005826 1.9455906 234 88 12
-1.1410062 -1.7791895 0.73740137 234 88 12
-1.1393147 -1.7800653 0.73740137 234 88 12
-1.1429919 -1.7788819 0.73560727 234 88 12
-1.1396089 -1.7806334 0.73560727 234 88 12
-1.1280625 -1.7873319 0.73381317 234 88 12
-1.1371083 -1.7840894 0.73022503 234 88 12
-1.156009 -1.7750244 0.72843093 234 88 12
-1.1565974 -1.7761607 0.72484273 234 88 12
-1.1498313 -1.7796638 0.72484273 234 88 12
-1.1413739 -1.7840425 0.72484273 234 88 12
-1.1396823 -1.7849183 0.72484273 234 88 12
-1.1295333 -1.7901728 0.72484273 234 88 12
-1.1230615 -1.7942441 0.72304863 234 88 12
-1.1515963 -1.7830728 0.71407819 234 88 12
-1.1499048 -1.7839485 0.71407819 234 88 12
-1.1397558 -1.7892032 0.71407819 234 88 12
-1.1479927 -1.788541 0.70510775 234 88 12
0.19418736 -1.898873 1.1556716 234 88 12
0.19808809 -1.8993127 1.1540189 234 88 12
0.18134095 -1.9034356 1.1507134 234 88 12
0.19078271 -1.9021882 1.1507134 234 88 12
0.19833612 -1.9011903 1.1507134 234 88 12
0.2077779 -1.8999429 1.1507134 234 88 12
0.17818433 -1.9086281 1.1424497 234 88 12
0.18775012 -1.9083195 1.140797 234 88 12
0.18032072 -1.9102561 1.1391443 234 88 12
0.18787414 -1.9092582 1.1391443 234 88 12
0.1973159 -1.9080108 1.1391443 234 88 12
0.20864603 -1.9065139 1.1391443 234 88 12
0.19743992 -1.9089496 1.1374916 234 88 12
0.18861824 -1.9148906 1.1292279 234 88 12
1.085147 -0.96932298 1.696344 234 88 12
1.0739076 -0.98234063 1.6950324 234 88 12
1.0888296 -0.96763235 1.6950324 234 88 12
1.0789468 -0.97931296 1.6937206 234 88 12
1.0744901 -0.98564506 1.6924089 234 88 12
1.0750726 -0.98894948 1.6897856 234 88 12
1.0791423 -0.98493814 1.6897856 234 88 12
1.0899948 -0.9742412 1.6897856 234 88 12
1.0787554 -0.98725891 1.6884738 234 88 12
1.0896077 -0.97656196 1.6884738 234 88 12
1.1000732 -0.96818578 1.6871622 234 88 12
1.0890293 -0.98682863 1.6819154 234 88 12
1.0998818 -0.97613174 1.6819154 234 88 12
1.0855422 -0.99414438 1.6792921 234 88 12
1.0896119 -0.99013305 1.6792921 234 88 12
1.0950381 -0.9847846 1.6792921 234 88 12
1.1004642 -0.97943616 1.6792921 234 88 12
1.8276165 -0.082318865 1.2935067 234 88 12
1.8283815 -0.084375538 1.2919444 234 88 12
1.8325561 -0.065759115 1.2903819 234 88 12
1.834251 -0.062177666 1.2888196 234 88 12
1.8317516 -0.090722844 1.2856947 234 88 12
1.8333014 -0.081325978 1.2856947 234 88 12
1.8348513 -0.07192912 1.2856947 234 88 12
1.8354712 -0.068170376 1.2856947 234 88 12
1.8356162 -0.073985793 1.2841324 234 88 12
1.8355964 -0.08749599 1.2810075 234 88 12
1.8410109 -0.06136208 1.2794452 234 88 12
1.8392764 -0.091963924 1.274758 234 88 12
1.8408263 -0.082567066 1.274758 234 88 12
1.8426861 -0.071290836 1.274758 234 88 12
1.8442359 -0.061893973 1.274758 234 88 12
1.8460759 -0.064127944 1.2716331 234 88 12
1.8460561 -0.077638142 1.2685083 234 88 12
-0.22243492 -2.2216988 0.029187884 234 88 12
-0.21673338 -2.2220874 0.027284579 234 88 12
-0.23575631 -2.2211149 0.025381276 234 88 12
-0.20722805 -2.2226851 0.025381276 234 88 12
-0.23767047 -2.2212334 0.019671366 234 88 12
-0.22625917 -2.2218616 0.019671366 234 88 12
-0.21674976 -2.2223849 0.019671366 234 88 12
-0.20724034 -2.2229083 0.019671366 234 88 12
-0.23388718 -2.2218149 0.010154846 234 88 12
-0.22627965 -2.2222335 0.010154846 234 88 12
-0.21677023 -2.2227569 0.010154846 234 88 12
-0.2282061 -2.2225752 -0.0012649772 234 88 12
1.3206289 -1.6617849 0.68592304 234 88 12
1.3251951 -1.6583494 0.68592304 234 88 12
1.3103243 -1.6702663 0.68410939 234 88 12
1.3118464 -1.669121 0.68410939 234 88 12
1.3194567 -1.6633952 0.68410939 234 88 12
1.325545 -1.6588144 0.68410939 234 88 12
1.330811 -1.656309 0.68048203 234 88 12
1.3284667 -1.6595296 0.67685473 234 88 12
1.3093797 -1.6753471 0.67322737 234 88 12
1.31699 -1.6696211 0.67322737 234 88 12
1.3185121 -1.668476 0.67322737 234 88 12
1.3276445 -1.6616049 0.67322737 234 88 12
1.3322107 -1.6581693 0.67322737 234 88 12
1.3145233 -1.6758472 0.66234541 234 88 12
1.3175675 -1.6735568 0.66234541 234 88 12
1.3236557 -1.6689761 0.66234541 234 88 12
-0.88979125 -1.8202593 -0.96234298 234 88 12
-0.90533239 -1.8128885 -0.96588331 234 88 12
-0.90176839 -1.8142341 -0.96588331 234 88 12
-0.89998639 -1.8149068 -0.96588331 234 88 12
-0.89107645 -1.8182707 -0.96588331 234 88 12
-0.87300807 -1.8243403 -0.96765345 234 88 12
-0.86944407 -1.8256859 -0.96765345 234 88 12
-0.8709777 -1.8243551 -0.96942365 234 88 12
-0.8916164 -1.814308 -0.97473413 234 88 12
-0.90205997 -1.8096135 -0.97650433 234 88 12
-0.89136797 -1.8136501 -0.97650433 234 88 12
-0.88780403 -1.8149956 -0.97650433 234 88 12
-0.88067603 -1.8176867 -0.97650433 234 88 12
-0.86998403 -1.8217232 -0.97650433 234 88 12
-0.89547193 -1.808342 -0.98535514 234 88 12
-0.89012599 -1.8103603 -0.98535514 234 88 12
-0.88121599 -1.813724 -0.98535514 234 88 12
0.90347916 -1.9932824 -0.43988073 234 88 12
0.90869093 -1.9909393 -0.43988073 234 88 12
0.89107943 -1.9982184 -0.44364542 234 88 12
0.89281672 -1.9974374 -0.44364542 234 88 12
0.91713828 -1.9865025 -0.44364542 234 88 12
0.88910329 -1.9984682 -0.44741014 234 88 12
0.89257777 -1.996906 -0.44741014 234 88 12
0.90300131 -1.9922197 -0.44741014 234 88 12
0.90647584 -1.9906576 -0.44741014 234 88 12
0.91342485 -1.9875332 -0.44741014 234 88 12
0.89024323 -1.9963586 -0.45682189 234 88 12
0.89198053 -1.9955776 -0.45682189 234 88 12
0.90240407 -1.9908911 -0.45682189 234 88 12
0.91282761 -1.9862047 -0.45682189 234 88 12
0.90030843 -1.9908751 -0.46246895 234 88 12
0.89300102 -1.9932023 -0.46811602 234 88 12
2.0866294 -0.74913621 0.29870424 234 88 12
2.0881915 -0.74566174 0.29870424 234 88 12
2.0806468 -0.76315373 0.29682189 234 88 12
2.0793662 -0.76884335 0.28929245 234 88 12
2.0801473 -0.76710606 0.28929245 234 88 12
2.0848336 -0.75668252 0.28929245 234 88 12
2.08952 -0.74625897 0.28929245 234 88 12
2.0843184 -0.75853926 0.28741011 234 88 12
2.0838189 -0.76249158 0.2798807 234 88 12
2.0846 -0.76075435 0.2798807 234 88 12
2.0869434 -0.75554258 0.2798807 234 88 12
2.0916297 -0.74511904 0.2798807 234 88 12
0.21869759 -1.694701 -1.4497467 234 88 12
0.20142865 -1.6953408 -1.4528716 234 88 12
0.21646363 -1.692861 -1.4528716 234 88 12
0.218343 -1.692551 -1.4528716 234 88 12
0.23337798 -1.6900712 -1.4528716 234 88 12
0.21986778 -1.690091 -1.4559964 234 88 12
0.2386615 -1.6869915 -1.4559964 234 88 12
0.21405236 -1.6899459 -1.4575588 234 88 12
0.20635758 -1.6901109 -1.4591211 234 88 12
0.20036486 -1.6888908 -1.4622459 234 88 12
0.20788236 -1.6876509 -1.4622459 234 88 12
0.21915859 -1.6857911 -1.4622459 234 88 12
0.22855544 -1.6842413 -1.4622459 234 88 12
0.21621543 -1.6796513 -1.4716203 234 88 12
0.2180948 -1.6793412 -1.4716203 234 88 12
0.20288253 -1.680746 -1.4731828 234 88 12
0.20852064 -1.6798161 -1.4731828 234 88 12
0.2045846 -1.679361 -1.4747452 234 88 12
1.7419227 -1.1473225 -0.81106597 234 88 12
1.743068 -1.1458005 -0.81106597 234 88 12
1.7318312 -1.1587992 -0.81469327 234 88 12
1.7490089 -1.1359682 -0.81469327 234 88 12
1.7302209 -1.1599714 -0.81650692 234 88 12
1.7281456 -1.1607935 -0.82013428 234 88 12
1.7327263 -1.1547053 -0.82013428 234 88 12
1.7361618 -1.1501391 -0.82013428 234 88 12
1.7430329 -1.1410067 -0.82013428 234 88 12
1.7441782 -1.1394846 -0.82013428 234 88 12
1.7416377 -1.139957 -0.82557529 234 88 12
1.731081 -1.1510837 -0.83101624 234 88 12
1.7322263 -1.1495616 -0.83101624 234 88 12
1.7390974 -1.1404293 -0.83101624 234 88 12
1.730616 -1.1507338 -0.83282995 234 88 12
1.7264653 -1.1523783 -0.84008461 234 88 12
1.7276105 -1.1508563 -0.84008461 234 88 12
